<svg xmlns="http://www.w3.org/2000/svg" width="600" height="300" viewBox="0 0 562.5 281.25"><g style="display:inline" transform="translate(98.796 41.129)"><g style="stroke-width:.857633"><path d="M-53.298 82.791c2.51-.863 1.16-.572 4.07-.772 1.937.404 2.96.322 4.455 1.804 2.048 2.03 2.124 5.137 1.092 7.67-.36.882-.984 1.63-1.475 2.446-.699.62-1.31 1.356-2.096 1.861-2.836 1.822-6.995 2.14-9.497-.458-.502-.521-.76-1.231-1.14-1.847-.083-.792-.301-1.58-.248-2.374.226-3.363 2.852-6.429 5.668-8.023M71.29 113.239s-2.477.782-3.457 1.069c-12.357 3.627-24.733 2.623-34.81-4.338-6.606-4.562-10.197-13.025-9.788-21.958.179-3.915 1.721-8.75 3.733-12.184 5.139-8.775 14.658-14.824 23.304-18.259 8.175-3.247 22.17-4.275 30.154-1.673 2.345.731-.685 1.123-.462.48-.084-.62-.074-.516.017-1.146.799-5.491 7.942-11.184 15.694-14.855 15.194-7.195 35.717-7.93 52.518-2.228 6.324 2.146 14.389 6.915 15.964 14.207.414 1.861-.009 4.215-.876 5.978-.961 1.989-2.088.692.785.027.955-.22 2.624-.327 4.135-.372 4.728-.142 11.222.485 16.317 1.954 11.513 3.319 20.708 10.188 24.092 22.133.572 2.02.747 4.304.606 6.663-.318 5.5-2.47 11.452-5.335 14.954-4.579 5.595-12.666 10.184-20.041 12.1-9.333 2.425-21.105 1.798-29.245-.14-1.29-.306-.74-.196-1.685-.461-.178-.001.108-.188-.03-.017-.235.235-.091.1-.355.337-3.447 3.106-9.275 6.283-14.026 8.197-4.35 1.753-10.093 3.283-18.25 4.105-11.927 1.202-23.923-.305-34.242-4.317-2.082-.81-4.602-1.808-6.8-3.037-3.62-2.025-6.614-3.705-9.79-6.282-.904-.733-.94-.75-.94-.75M-20.155 82.802c.821-.536 1.609-1.13 2.465-1.61 2.232-1.252 2.829-1.311 5.206-2.062 2.094-.296 2.62-.532 4.698-.218 3.065.463 5.736 2.101 7.844 4.317.47.627.995 1.216 1.409 1.882 1.645 2.652 2.425 5.947 1.931 9.043-.13.82-.413 1.61-.62 2.415C1.81 98.66 1.638 99.374.13 101.2c-2.395 2.901-5.719 4.395-9.392 4.89-.975.01-1.952.103-2.924.031-3.884-.287-7.64-1.766-10.376-4.59-.618-.637-1.108-1.386-1.662-2.08-.396-.752-.852-1.476-1.186-2.257-1.16-2.714-1.562-5.878-.898-8.771.134-.586.38-1.14.571-1.711.31-.52.575-1.071.931-1.561 1.335-1.838 3.395-2.936 5.486-3.68" style="display:inline;fill:#e5f6ff;fill-opacity:1;fill-rule:nonzero;stroke:none;stroke-width:.804031;stroke-linecap:round;stroke-linejoin:round;stroke-miterlimit:4;stroke-dasharray:none;stroke-dashoffset:0;stroke-opacity:1" transform="translate(94.963 248.357) scale(1.166)"/><path d="M-53.299 82.312c2.49-.857 1.29-.597 4.184-.795l.05-.004.044.01c1.908.397 3.055.349 4.6 1.88 2.15 2.13 2.256 5.433 1.142 8.169-.415 1.019-1.076 1.801-1.527 2.548l-.06.1-.085.075c-.643.572-1.283 1.35-2.18 1.925-3.044 1.956-7.354 2.259-9.975-.463-.558-.58-.823-1.32-1.18-1.898l-.042-.069-.01-.09c-.077-.74-.31-1.543-.248-2.46.243-3.623 3.06-6.901 6.024-8.58l.185.875c-2.667 1.51-5.103 4.365-5.31 7.467-.044.646.143 1.39.235 2.197.38.633.63 1.282 1.06 1.728 2.383 2.475 6.39 2.142 9.017.454.651-.419 1.216-1.077 1.929-1.723.516-.837 1.07-1.526 1.362-2.242.95-2.333.906-5.245-1.041-7.173-1.434-1.421-2.329-1.318-4.265-1.717-2.861.193-1.393-.121-3.908.744zM71.279 113.722s-2.47.78-3.468 1.072c-12.462 3.658-24.947 2.643-35.103-4.372-6.7-4.627-10.34-13.188-9.924-22.28.185-4.034 1.745-8.93 3.828-12.487 5.27-8.998 14.917-15.093 23.637-18.557 8.33-3.309 22.311-4.331 30.415-1.69 2.388.746-1.764 3.217-1.162 1.072-.066-.514-.05-.6.034-1.174.863-5.93 8.25-11.678 16.084-15.388 15.357-7.273 35.938-7.987 52.816-2.258 6.378 2.164 14.532 6.903 16.162 14.441.401 1.808.078 3.998-.69 5.817.066-.018.134-.035.205-.052 1.036-.24 2.695-.337 4.216-.383 4.77-.143 11.28.486 16.42 1.967 11.577 3.338 20.872 10.263 24.296 22.348.587 2.075.764 4.41.62 6.816-.325 5.618-2.481 11.663-5.497 15.349-4.728 5.777-12.894 10.378-20.363 12.318-9.444 2.453-21.235 1.815-29.426-.134-1.293-.308-.76-.203-1.697-.466l.088.012c-.434-.002.69-.61.399-.252l-.025.03-.026.027c-.23.23-.124.132-.383.365-3.566 3.212-9.41 6.38-14.21 8.314-4.401 1.773-10.188 3.312-18.375 4.137-11.988 1.208-24.031-.306-34.399-4.336-2.083-.81-4.614-1.812-6.835-3.055-3.62-2.024-6.633-3.715-9.83-6.309l-.877-.71.537-.954s.097.053 1.002.787c3.156 2.56 6.13 4.23 9.751 6.255 2.175 1.216 4.683 2.212 6.763 3.02 10.27 3.994 22.22 5.494 34.088 4.299 8.126-.82 13.824-2.342 18.124-4.074 4.701-1.894 10.512-5.08 13.842-8.08.268-.241.085-.068.326-.31l-.051.057c-.015.018.538-.218.458-.218h.047l.042.012c.953.268.386.153 1.673.459 8.089 1.925 19.841 2.54 29.064.144 7.28-1.891 15.29-6.468 19.719-11.88 2.716-3.32 4.86-9.177 5.172-14.56.138-2.312-.033-4.545-.59-6.51-3.344-11.806-12.44-18.619-23.887-21.918-5.052-1.457-11.53-2.083-16.215-1.943-1.502.045-3.18.16-4.055.362-2.723.63-1.929 1.03-1.122-.64l.001-.003.001-.002c.794-1.613 1.203-3.867.818-5.6v-.002c-1.522-7.044-9.498-11.843-15.768-13.971-16.723-5.676-37.189-4.92-52.22 2.198-7.67 3.632-14.569 9.27-15.303 14.323-.094.644-.1.38-.016 1.003l.017.124-.048.137c.386-1.113 2.056.667-.19-.034h-.003c-7.864-2.564-21.873-1.53-29.891 1.655-8.572 3.405-17.963 9.408-22.972 17.961-1.94 3.312-3.465 8.086-3.639 11.88-.401 8.775 3.141 17.14 9.652 21.638 10 6.907 22.266 7.898 34.517 4.302.965-.282 3.448-1.066 3.448-1.066zM-20.281 82.385c.797-.52 1.597-1.125 2.5-1.631 2.265-1.27 2.946-1.361 5.308-2.107l.036-.012.036-.005c2.074-.293 2.695-.537 4.804-.218 3.15.476 5.87 2.15 8.014 4.403l.011.013.011.014c.459.613.991 1.207 1.423 1.904 1.684 2.713 2.499 6.083 1.98 9.34-.142.895-.436 1.707-.632 2.472l-.016.06-.027.06c-.955 2.064-1.2 2.916-2.753 4.797-2.534 3.07-6.014 4.611-9.764 5.116l-.024.003h-.023c-.954.01-1.944.105-2.955.03-3.954-.292-7.776-1.794-10.568-4.676-.643-.664-1.138-1.423-1.68-2.101l-.018-.023-.014-.027c-.388-.737-.85-1.466-1.198-2.282-1.187-2.777-1.613-6.019-.915-9.065.153-.666.413-1.244.59-1.773l.024-.074.041-.069c.287-.48.559-1.054.97-1.619 1.47-2.024 3.654-3.159 5.794-3.92l.01.955c-2.04.726-3.977 1.787-5.177 3.438-.289.398-.537.9-.851 1.433-.199.582-.418 1.09-.53 1.576-.628 2.74-.251 5.827.881 8.477.316.739.761 1.448 1.161 2.206.558.701 1.04 1.432 1.625 2.036 2.679 2.766 6.371 4.221 10.184 4.503.926.069 1.883-.02 2.87-.032 3.588-.487 6.746-1.933 8.997-4.66 1.452-1.758 1.563-2.337 2.518-4.409.214-.82.477-1.567.593-2.296.467-2.935-.277-6.156-1.884-8.746-.391-.63-.906-1.21-1.383-1.846-2.071-2.172-4.69-3.768-7.664-4.218-2.033-.307-2.473-.083-4.556.213-2.361.744-2.88.779-5.068 2.006-.809.454-1.583 1.036-2.429 1.588z" style="stroke-width:.857633" transform="translate(94.963 248.357) scale(1.166)"/></g><rect width="1596.293" height="421.612" x="-162.435" y="-518.426" ry=".714" style="fill:#ffd5d5;stroke:#000;stroke-width:.9375;stroke-linejoin:round;stroke-miterlimit:2;stroke-dasharray:none"/><path d="M40.416-217.795v46.404h278.423v-46.404zM92.126-133.548c-4.949-1.96-10.33-2.897-15.656-2.82-5.225.076-8.812.84-14.022 1.653-11.663 2.722-25.687 5.885-34.727 14.35-1.322 1.238-2.305 2.793-3.458 4.19-.532 1.545-1.356 3.02-1.595 4.636-1.032 6.956 4.057 14.842 8.932 19.293 1.563 1.428 3.388 2.538 5.082 3.807 2.023.964 3.97 2.106 6.069 2.892 9.309 3.49 20.683 3.652 30.552 3.687 2.31-.226 5.714.009 7.621-1.812.616-.588.476-1.179-.165-1.627-.377-.265-.85-.356-1.276-.533-3.21-.766-7.078.291-8.51 3.588-.372.854-.449 1.808-.673 2.712.107 1.174.026 2.38.32 3.522 2.033 7.87 9.193 12.992 16.47 15.624 2.437.882 5.012 1.328 7.518 1.992 14.99 2.296 30.04-.226 44.465-4.423 2.465-.717 4.889-1.57 7.333-2.355 5.183-1.914 10.522-3.707 15.238-6.661 1.505-.943 3.187-2.138 4.101-3.75.217-.381.206-.853.31-1.28-.16-.327-.223-.724-.48-.982-1.38-1.38-4.16-1.194-5.929-1.062-.186.089-.423.112-.56.267-.313.358.072 1.15.202 1.378 1.403 2.463 3.494 4.35 5.524 6.27 7.866 6.547 17.504 9.856 27.558 11.136 2.126.27 4.272.363 6.408.545 8.096.207 17.132-.59 23.23-6.598.712-.702 1.263-1.55 1.895-2.326 1.08-2.071 2.62-5.75 1.08-8.02-.863-.246.092.87.208 1.003 6.892 5.623 16.352 7.093 24.786 8.873 7.927 1.237 16.02 2.907 24.091 1.949 3.387-.402 6.092-1.14 8.631-3.435.808-.73 1.28-1.76 1.92-2.64.201-.964.558-1.907.603-2.89.153-3.389-1.946-6.624-4.743-8.327.38-.034-1.14-.506-1.164-.117-.085 1.345 5.799 3.612 6.476 3.892 11.67 3.772 24.005 4.204 36.162 4.121 7.528-.597 20.45-1.52 24.474-9.398.519-1.017.562-2.213.843-3.32-.15-1.19-.165-2.404-.448-3.57-1.2-4.942-4.76-11.303-7.94-15.254-.764-.95-1.644-1.798-2.465-2.697-2.313-1.955-6.751-5.057-10.066-3.948-.059.077-.258.23-.099.36.738.6 2.48-.876 2.918-1.155 4.376-3.563 7.642-8.777 8.108-14.525.128-1.575-.169-3.155-.253-4.733-.578-1.453-.892-3.04-1.733-4.358-5.565-8.718-19.927-9.79-29.074-10.806-11.638-.69-23.514-1.043-34.937 1.736-1.97.48-3.886 1.165-5.828 1.748-4.21 1.589-8.6 3.343-11.693 6.778-1.049 1.165-2.047 2.671-1.85 4.348.07.602.491 1.108.737 1.662 1.34 1.444 6.074 3.609 6.624.15.114-.714-.113-1.441-.17-2.162-.497-.965-.833-2.031-1.49-2.897-5.299-6.988-15.17-10.18-23.368-11.829-2.9-.583-5.856-.86-8.784-1.29-13.834-.935-28.131-.5-41.384 4.019-1.82.62-3.558 1.463-5.338 2.194-2.186 1.157-10.134 5.546-6.698 9.24.29.313.716.461 1.075.692 1.81.735 3.628-.108 3.836-2.169.055-.536-.029-1.078-.043-1.618-.254-.7-.41-1.443-.761-2.1-3.23-6.051-9.891-9.544-16.06-11.85-2.225-.831-4.54-1.403-6.81-2.105-11.72-2.98-24.013-3.925-36.019-2.152-2.088.308-4.135.852-6.203 1.278-1.808.751-3.731 1.27-5.425 2.254-3.908 2.268-7.078 6.18-6.986 10.903.023 1.216.546 2.371.82 3.557h.003c-.273-1.186-.796-2.34-.82-3.557-.091-4.72 3.078-8.632 6.984-10.9 1.694-.983 3.617-1.502 5.425-2.254 2.068-.426 4.115-.97 6.203-1.278 12.005-1.772 24.297-.827 36.018 2.152 2.27.702 4.584 1.274 6.81 2.106 6.167 2.305 12.827 5.797 16.057 11.847.35.657.507 1.4.76 2.1.015.539.098 1.08.044 1.616-.208 2.059-2.023 2.901-3.831 2.167-.358-.23-.784-.378-1.074-.69-3.435-3.692 4.513-8.08 6.697-9.236 1.78-.731 3.517-1.573 5.338-2.194 13.251-4.518 27.548-4.953 41.382-4.018 2.928.43 5.883.707 8.784 1.29 8.197 1.648 18.066 4.84 23.366 11.827.655.865.992 1.93 1.488 2.896.057.72.285 1.446.172 2.159-.549 3.456-5.28 1.293-6.619-.15-.245-.553-.666-1.058-.736-1.66-.197-1.675.8-3.18 1.849-4.345 3.093-3.435 7.482-5.189 11.691-6.778 1.943-.582 3.857-1.268 5.828-1.747 11.423-2.78 23.298-2.426 34.935-1.736 9.147 1.015 23.507 2.087 29.072 10.803.84 1.318 1.155 2.905 1.732 4.357.085 1.578.382 3.158.254 4.732-.466 5.748-3.731 10.96-8.106 14.523-.44.28-2.174 1.75-2.913 1.157-.158-.127.039-.28.097-.356 3.312-1.109 7.75 1.995 10.061 3.947.822.9 1.702 1.748 2.465 2.697 3.18 3.951 6.74 10.31 7.94 15.253.283 1.165.298 2.38.447 3.569-.28 1.106-.323 2.301-.842 3.318-4.022 7.877-16.945 8.8-24.47 9.397-12.158.082-24.493-.35-36.161-4.122-.677-.279-6.554-2.544-6.476-3.884.022-.389 1.548.08 1.16.116 2.796 1.702 4.894 4.936 4.741 8.324-.044.982-.4 1.925-.602 2.887-.64.88-1.111 1.91-1.918 2.64-2.54 2.294-5.243 3.032-8.63 3.434-8.071.959-16.163-.712-24.09-1.948-8.433-1.78-17.892-3.25-24.784-8.873-.111-.127-1.07-1.24-.214-.999 1.54 2.267 0 5.948-1.08 8.017-.631.775-1.183 1.624-1.895 2.325-6.096 6.009-15.131 6.805-23.227 6.598-2.136-.182-4.281-.275-6.408-.546-10.052-1.28-19.69-4.588-27.555-11.134-2.03-1.92-4.12-3.807-5.524-6.27-.127-.223-.514-1.017-.202-1.373.136-.155.372-.178.558-.267 1.767-.131 4.545-.318 5.925 1.06.257.258.32.654.48.98-.104.427-.093.898-.31 1.28-.913 1.61-2.594 2.805-4.1 3.748-4.716 2.954-10.054 4.747-15.237 6.66-2.444.785-4.868 1.638-7.333 2.356-14.424 4.197-29.473 6.718-44.463 4.422-2.506-.663-5.08-1.109-7.518-1.99-7.275-2.633-14.434-7.753-16.467-15.622-.294-1.141-.213-2.347-.32-3.52.224-.905.3-1.858.672-2.712 1.431-3.295 5.297-4.353 8.506-3.587.425.177.897.268 1.275.532.64.446.78 1.034.166 1.622-1.907 1.82-5.311 1.585-7.62 1.811-9.868-.035-21.242-.197-30.55-3.686-2.099-.786-4.046-1.928-6.068-2.892-1.694-1.269-3.52-2.379-5.082-3.806-4.874-4.45-9.963-12.335-8.932-19.29.24-1.616 1.064-3.09 1.595-4.636 1.153-1.395 2.136-2.95 3.457-4.187 9.04-8.465 23.064-11.628 34.726-14.35 5.21-.814 8.796-1.578 14.02-1.653 5.327-.078 10.707.859 15.655 2.819l.001-.003z" style="fill:#ffd5d5;stroke:#000;stroke-width:.9375;stroke-linejoin:round;stroke-miterlimit:2;stroke-dasharray:none"/><path d="M101.143 76.784c.255-1.833 1.02-3.67 2.958-6.293 3.913-5.292 10.184-10.162 17.668-13.206 10.294-4.187 21.295-4.76 32.468-3.731 11.796 1.086 21.443 5.015 29.096 11.05 5.637 4.446 11.798 11.293 12.413 18.31.571 6.502-1.075 2.287-1.365-1.055-.23-2.644 1.56-6.4 4.27-9.26 4.027-4.248 9.753-8.015 15.009-10.037 7.021-2.702 13.82-3.964 20.557-4.068 6.322-.097 12.582.757 18.907 2.343 12.797 3.21 23.657 10.926 27.839 19.874.362.775.616 1.467.754 2.085.87 3.894-3.404 2.544-2.166-.522.876-2.172 4.523-3.974 6.89-4.974 9.792-4.133 20.994-3.929 30.798.304 8.389 3.62 15.518 10.384 18.826 18.848 3.338 8.541 3.076 18.954-1.058 27.405-5.25 10.735-15.593 17.985-27.622 21.56-12.073 3.59-23.398 3.436-35.434-1.084-5.64-2.119-10.064-4.798-13.397-8.71-1.153-1.353-2.305-4.475-.138-3.185 3.043 1.813 1.486 5.987-.588 8.717-5.807 7.646-14.86 11.581-23.637 13.131-10.287 1.816-21.375 1.656-31.329-1.92-8.128-2.92-15.617-8.143-21.3-14.97-1.387-1.666-5.545-9.55-1.577-7.137 3.444 2.095.556 6.531-2.148 8.647-7.146 5.591-15.66 8.9-24.897 10.22-11.478 1.638-25.79.73-36.2-4.317-5.403-2.62-11-6.914-15.406-13.195-2.865-4.084-2.275-8.29.127-5.073 1.129 1.513.876 2.973-1.43 4.447-5.615 3.587-11.47 4.867-17.411 5.242-7.443.47-15.316-.758-22.484-5.141-4.162-2.546-9.103-8.137-11.009-16.134-1.634-6.858-.27-16.737 2.125-21.795C56.43 82.22 63.98 76.124 73.896 72.517c6.234-2.268 15.978-2.934 23.78-.843 2.19.587 4.863 1.564 6.801 2.426" style="fill:#e5f6ff;fill-opacity:1;stroke:#000;stroke-width:1.03125;stroke-linejoin:round;stroke-miterlimit:2;stroke-dasharray:none"/><path d="M487.178 346.62c1.13.4 2.98.905 2.86 2.537-.192 2.58-3.817 3.677-5.537 4.564-1.526.476-3.026 1.048-4.579 1.43-3.755.92-8.892 1.617-12.669 1.962-4.579.417-10.667.666-15.251.517-2.51-.081-5.009-.364-7.513-.545-2.324-.34-4.67-.559-6.973-1.016-6.03-1.198-13.631-3.542-17.177-9.064-.625-.973-.904-2.13-1.356-3.195-.056-1.164-.3-2.334-.168-3.492.146-1.288.532-2.55.993-3.762 2.293-6.037 7-10.717 11.814-14.807 3.491-2.485 4.948-3.7 8.763-5.698 6.49-3.4 13.663-5.282 20.877-6.336 5.155-.637 5.376-.759 10.48-1.03 3.826-.202 7.785-.39 11.524.613" style="fill:#ffd5d5;stroke:#000;stroke-width:.9375;stroke-linejoin:round;stroke-miterlimit:2;stroke-dasharray:none"/><path d="M567.079 351.994c2.337 1.783 3.086 2.606 1.04 5.357-.604.512-1.158 1.092-1.813 1.537-6.902 4.687-15.707 5.229-23.707 6.256-6.666.455-13.29.796-19.976.67-4.268-.079-8.978-.27-13.216-.855-2.022-.28-4.015-.747-6.022-1.12-1.83-.568-3.696-1.026-5.488-1.703-5.39-2.037-10.77-5.31-14.149-10.096-.458-.65-.765-1.393-1.148-2.09-.173-1.09-.52-1.681.094-2.644.883-1.381 3.235-.895 4.484-.687" style="fill:#ffd5d5;stroke:#000;stroke-width:.9375;stroke-linejoin:round;stroke-miterlimit:2;stroke-dasharray:none"/><path d="M642.976 354.255c3.05 2.473 3.238 4.207 1.035 7.542-.624.758-1.192 1.564-1.87 2.273-5.395 5.633-12.776 8.163-20.295 9.486-1.818.291-3.628.644-5.455.873-8.492 1.064-17.187.782-25.45-1.548-1.463-.558-2.956-1.044-4.39-1.673-6.323-2.777-12.1-6.852-16.972-11.723-1.926-2.335-4.136-4.842-4.309-8.025.002-.095-.02-.194.007-.285.038-.128 1.841.689 1.802.819" style="fill:#ffd5d5;stroke:#000;stroke-width:.9375;stroke-linejoin:round;stroke-miterlimit:2;stroke-dasharray:none"/><path d="M669.49 312.39c-.916-1.309 2.124-3.946 2.89-4.694 5.07-3.45 10.647-4.948 16.796-4.864 1.394.074 2.793.079 4.18.222 7.111.734 14.062 2.882 20.125 6.693 2.806 2.166 3.714 2.618 5.99 5.365 3.63 4.383 5.87 9.684 6.683 15.293.173 3.043.432 4.667-.034 7.677-.828 5.347-3.743 9.854-7.28 13.825-.99 1.035-1.938 2.113-2.971 3.106-4.967 4.778-10.817 8.587-17.138 11.306-1.352.446-2.683.957-4.055 1.338-7.396 2.056-15.083 2.158-22.667 1.288-1.482-.217-2.973-.382-4.446-.652-6.523-1.195-12.821-3.329-18.432-6.913-2.78-1.935-5.939-3.842-7.502-6.978" style="fill:#ffd5d5;stroke:#000;stroke-width:.9375;stroke-linejoin:round;stroke-miterlimit:2;stroke-dasharray:none"/><path d="M585.744 311.445c-.196-.03-.36-.163-.54-.244-2.331-1.845-3.83-4.904-2.92-7.923.241-.8.759-1.487 1.138-2.23.749-.65 1.43-1.384 2.246-1.946 2.395-1.651 5.123-2.747 7.828-3.755a88.477 88.477 0 0 1 16.76-4.449c1.827-.23 3.647-.52 5.48-.688 8.83-.812 17.826-.2 26.503 1.546 1.664.455 3.343.855 4.991 1.364 6.488 2.005 12.772 4.897 18.414 8.678 1.723 1.285 4.514 3.091 5.142 5.338.187.673.07 1.518.019 2.198-.141.876-.376 2.688-1.316 3.056" style="fill:#ffd5d5;stroke:#000;stroke-width:.9375;stroke-linejoin:round;stroke-miterlimit:2;stroke-dasharray:none"/><path d="M491.065 310.081c-.32-.544-.768-1.359-.866-2.114-.31-2.383.601-4.94 1.647-6.992 2.564-5.028 6.618-8.74 11.32-11.746 5.143-2.607 5.887-3.375 11.544-4.685 8.132-1.884 16.588-1.24 24.842-1.04 2.025.167 4.056.269 6.075.5 9.304 1.066 18.527 3.518 26.726 8.122 1.248.894 2.551 1.716 3.746 2.681 4.111 3.322 7.368 7.524 9.177 12.504.375 1.07.97 2.318.93 3.49-.008.254-.076.702-.462.644" style="fill:#ffd5d5;stroke:#000;stroke-width:.9375;stroke-linejoin:round;stroke-miterlimit:2;stroke-dasharray:none"/><path d="M237.866-58.612c3.79 1.538 1.273 4.973-1.836 6.442-7.305 3.452-18.12 5.086-27.191 3.784-7.595-1.316-15.582-4.353-20.378-11.478-3.876-5.25-5.082-12.194-4.218-18.818 1.4-10.733 7.17-18.283 15.004-23.392 12.363-8.063 24.798-8.416 40.393-8.25" style="fill:none;stroke:#000;stroke-width:.937499;stroke-linejoin:round;stroke-miterlimit:2;stroke-dasharray:none"/><path d="M547.845 96.28c.11-3.859 4.517-6.591 7.711-7.947 9.02-3.83 18.867-2.875 27.838.39 8.508 3.096 15.522 9.623 18.83 17.466 3.338 7.915 3.67 17.63-1.389 24.9-6.576 9.45-16.248 17.024-27.29 20.31-11.502 3.422-23.398 3.35-35.434-.84-5.64-1.962-10.065-4.446-13.397-8.07-1.153-1.254-2.292-4.168-.142-2.966M-137.682 79.957c-3.774-.095-7.603.305-11.244 1.334-1.154.327-2.276.76-3.414 1.139-6.217 2.582-12.444 5.939-17.108 10.906-.868.923-1.596 1.967-2.394 2.951-.572 1.059-1.262 2.062-1.717 3.176-1.336 3.268-1.52 6.85-.691 10.263.711 2.93 1.48 4.009 2.868 6.688 3.18 4.803 7.227 8.988 12.515 11.455 4.064 1.897 5.275 1.821 9.696 2.635 1.838.074 3.675.257 5.514.22 7.376-.15 14.946-1.874 21.614-5.044 1.502-.714 2.91-1.61 4.366-2.415 1.281-1.116 2.672-2.119 3.844-3.35 2.963-3.111 5.226-7.12 5.802-11.423.4-2.997-.071-4.161-.64-7.048-.42-1.035-.749-2.113-1.26-3.107-1.987-3.869-5.365-7.024-8.975-9.36-.922-.596-1.902-1.097-2.852-1.645-4.814-2.338-9.79-4.6-15.178-5.154-.972-.1-1.953-.071-2.929-.107l-2.44.21.062.706 2.353-.208c.946.033 1.896.003 2.838.098 5.305.54 10.2 2.774 14.94 5.07.93.535 1.89 1.023 2.791 1.605 3.502 2.259 6.793 5.31 8.734 9.052.494.953.813 1.986 1.22 2.98.554 2.74 1.016 3.89.648 6.737-.538 4.165-2.724 8.043-5.58 11.06-1.134 1.199-2.481 2.176-3.722 3.264-1.43.793-2.813 1.676-4.29 2.379-6.575 3.132-14.042 4.836-21.318 4.992-1.806.039-3.61-.14-5.415-.209-4.32-.786-5.496-.709-9.47-2.552-5.17-2.397-9.123-6.485-12.24-11.168-1.35-2.593-2.095-3.634-2.795-6.465-.807-3.26-.652-6.693.614-9.823.435-1.075 1.096-2.044 1.644-3.066.775-.96 1.481-1.978 2.324-2.878 4.59-4.898 10.73-8.204 16.852-10.753 1.115-.373 2.215-.799 3.346-1.12 3.575-1.014 7.337-1.408 11.043-1.318l.044-.707zM-153.878 134.41c-4.944-.72-9.943-.974-14.936-.86-2.055.046-4.118.053-6.157.307-6.02.752-8.025 1.662-13.792 3.462-1.997.889-4.068 1.628-5.992 2.666-4.246 2.292-8.566 5.588-10.322 10.28-1.21 3.236-.694 4.43-.342 7.74.46 1.271.81 2.588 1.38 3.815 2.593 5.588 7.33 10.636 12.523 13.89 1.482.929 3.097 1.627 4.645 2.44 1.674.586 3.304 1.312 5.02 1.758 4.97 1.292 8.682 1.534 13.895 1.364 5.04-.164 9.81-.823 14.65-2.244 2.018-.592 3.934-1.485 5.902-2.227 4.15-2.41 5.14-2.649 8.544-5.848 1.072-1.007 2.112-2.068 2.975-3.26 1.77-2.444 2.982-5.307 3.804-8.192.37-1.303.545-2.655.817-3.982.046-1.229.203-2.459.138-3.687-.166-3.15-1.197-6.266-3.264-8.687-1.858-2.176-2.812-2.45-5.298-3.933-4.195-2.03-8.569-2.651-13.11-3.35l-.107.7c4.393.674 8.8 1.3 12.855 3.26 2.376 1.4 3.293 1.662 5.073 3.72 1.985 2.294 2.976 5.264 3.143 8.265.066 1.189-.083 2.38-.124 3.57-.263 1.295-.431 2.613-.79 3.884-.784 2.775-1.965 5.6-3.66 7.955-.84 1.165-1.855 2.203-2.9 3.189-3.324 3.134-4.29 3.367-8.347 5.733-1.935.733-3.82 1.614-5.805 2.198-4.793 1.412-9.485 2.06-14.479 2.228-5.135.172-8.78-.06-13.678-1.325-1.683-.435-3.283-1.144-4.925-1.716-1.518-.794-3.1-1.475-4.553-2.383-5.092-3.18-9.716-8.102-12.279-13.563-.55-1.173-.894-2.434-1.34-3.65-.357-3.107-.859-4.27.257-7.319 1.668-4.558 5.886-7.756 9.99-9.975 1.9-1.027 3.944-1.759 5.916-2.638 5.666-1.773 7.702-2.69 13.615-3.43 2.026-.253 4.076-.26 6.117-.307 4.956-.113 9.918.138 14.824.85l.117-.698zM-149.725-8.291c-6.472-.702-13.039-.674-19.45.565-1.781.345-3.526.852-5.289 1.277-1.755.616-3.542 1.145-5.264 1.847-6.135 2.502-12.255 6.179-16.082 11.75-.802 1.167-1.34 2.493-2.011 3.74-.351 1.323-.86 2.614-1.053 3.968-.596 4.183.478 8.435 2.504 12.093 1.955 3.53 3.04 4.238 5.857 7.105 1.314.99 2.564 2.07 3.943 2.969 5.814 3.788 12.649 5.754 19.53 6.325 1.762.146 3.535.094 5.303.142 7.27-.23 14.278-2.137 20.83-5.257 4-1.905 5.573-3.057 9.287-5.411 1.339-1.024 2.727-1.986 4.016-3.073 4.032-3.4 8.147-7.69 9.52-12.957.274-1.049.29-2.148.435-3.222-.113-1.053-.129-2.12-.338-3.158a18.693 18.693 0 0 0-4.596-8.948c-2.36-2.557-3.299-2.86-6.275-4.729-1.356-.59-2.674-1.28-4.07-1.772-6.552-2.314-13.733-2.749-20.623-2.631-1.633.027-3.262.154-4.893.231l.033.708c1.618-.077 3.233-.203 4.852-.23 6.796-.119 13.882.301 20.35 2.572 1.362.479 2.65 1.148 3.975 1.723 1.129.704 2.321 1.316 3.386 2.114 3.615 2.707 6.234 6.604 7.156 11.04.204.981.227 1.991.34 2.987-.13 1.02-.137 2.064-.393 3.06-1.32 5.144-5.362 9.333-9.29 12.65-1.272 1.073-2.643 2.024-3.964 3.037-3.667 2.326-5.236 3.473-9.183 5.356-6.459 3.08-13.366 4.97-20.536 5.201-1.742-.045-3.489.008-5.225-.135-6.762-.556-13.482-2.475-19.201-6.19-1.35-.877-2.576-1.933-3.864-2.9-1.074-1.087-2.245-2.085-3.22-3.261-3.475-4.192-5.718-9.75-4.96-15.259.179-1.3.66-2.542.992-3.814.642-1.205 1.157-2.489 1.927-3.617 3.743-5.477 9.76-9.08 15.776-11.538 1.7-.694 3.464-1.218 5.196-1.827 1.74-.421 3.464-.923 5.223-1.264 6.361-1.234 12.877-1.258 19.299-.56l.05-.707z" style="fill:none;stroke:#000;stroke-width:.9375;stroke-linejoin:round;stroke-miterlimit:2;stroke-dasharray:none"/><path d="M-.155 97.803c-3.555-.405-7.374 1.302-9.896 4.427-2.082 2.579-3.556 6.938-2.717 10.809 1.193 5.506 4.93 9.587 8.945 11.536 4.973 2.414 9.828 3.159 15.641 2.39 3.508-.465 7.092-1.5 10.336-3.409 3.402-2.002 6.984-5.911 7.239-11.096.251-5.126-2.435-10.625-5.18-13.845-3.507-4.115-8.144-6.297-13.022-6.516C6.32 91.879.67 94.18-2.48 97.493M-142.679 212.294c-1.509-1.119-3.41-1.332-5.243-1.326-.606.002-1.211.056-1.817.083-.645.091-1.296.145-1.934.273-2.432.491-5.117 1.545-6.842 3.403-.385.415-.663.917-.995 1.375-.194.52-.504 1.01-.584 1.558-.205 1.42.194 2.95.711 4.245a15.117 15.117 0 0 0 2.635 4.274c.586.673 1.276 1.248 1.914 1.872.785.544 1.537 1.138 2.354 1.632 2.517 1.52 5.309 2.503 8.19 3.057 2.64.507 3.755.477 6.449.628 1.115-.025 2.232-.005 3.345-.076 4.262-.274 8.591-1.217 12.554-2.82.906-.365 1.776-.813 2.664-1.22 2.882-1.528 5.611-3.481 7.157-6.443.802-1.538.83-2.188 1.188-3.843.032-.618.116-1.236.095-1.855-.058-1.743-.582-3.428-1.446-4.936-.736-1.284-1.095-1.573-2.071-2.671-1.793-1.7-3.89-2.71-6.284-3.265-1.595-.37-2.295-.384-3.927-.544-2.73-.205-5.466-.019-8.158.45-1.61.28-2.077.417-3.651.796a26.045 26.045 0 0 0-7.727 3.56c-.37.25-.723.527-1.084.792-1.107.877-.596.44-1.541 1.301M-52.372 104.492c2.638-3.567 6.33-4.936 9.85-4.948 2.272-.008 4.765.628 6.327 3.337 1.117 1.936 1.521 4.671 1.017 7.103-.69 3.327-2.816 5.503-4.938 6.68-3.705 2.055-7.855 2.503-11.972 1.36-3.109-.862-6.06-2.792-6.827-6.76-.24-1.244-.036-3.024.384-4.185.657-1.817 1.66-3.039 2.79-3.92 1.294-1.009 3.13-1.606 4.6-1.568" style="fill:#e5f6ff;fill-opacity:1;stroke:#000;stroke-width:1.03125;stroke-linejoin:round;stroke-miterlimit:2;stroke-dasharray:none"/></g></svg>