<svg xmlns="http://www.w3.org/2000/svg" width="345.375" height="141.348" viewBox="0 0 323.789 132.513"><g style="opacity:1"><path d="M493.72 110.833c-4.75 5.21-11.273 9.717-17.723 13.35-6.652 3.748-17.665 7.551-27.314 9.097-13.083 2.097-29.772.68-40.44-2.463-1.84-.56-4.671-1.778-6.424-2.57-3.214-1.454-6.635-3.813-9.279-6.793a4.487 4.487 0 0 1-1.108-3.42c.05-.53.354-1.004.53-1.506.645-.788 3.52-2.51 4.431-1.253.132.182.108.436.162.653-.168.282-.276.609-.503.845-1.273 1.33-5.013 1.492-6.695 1.677-4.448.375-8.993.283-13.406-.45-1.247-.207-2.475-.514-3.713-.77-7.836-2.126-15.5-5.259-21.97-10.26-1.382-1.07-2.64-2.29-3.96-3.435-4.472-4.752-8.205-10.508-7.585-17.348.438-4.832 1.487-5.841 3.678-10.091 1.261-1.503 2.372-3.146 3.784-4.51 6.695-6.467 16.1-9.649 25.157-10.843 2.462-.325 4.956-.335 7.434-.503 6.139.12 12.288.878 17.925 3.464 1.771.812 4.351 2.39 5.648 4.037.398.505.533 1.17.799 1.754-.138.502-.052 1.133-.414 1.507-.915.945-2.753.28-3.59-.116-3.308-1.566-4.83-4.049-6.757-6.977-.458-1.194-1.09-2.335-1.373-3.582-.976-4.315.403-8.37 3.415-11.545 3.147-3.317 5.453-4.103 9.5-6.28 2.167-.769 4.283-1.698 6.5-2.306 10.276-2.82 21.558-2.858 31.929-.526 2.556.575 5.024 1.494 7.535 2.24 5.788 2.395 11.418 5.392 15.536 10.25 1.388 1.639 3.049 4.314 3.267 6.605.088.925-.265 1.839-.397 2.758-.485.597-.859 1.304-1.454 1.79-1.422 1.16-4.072 1.835-5.563.346-.415-.415-.724-.996-.775-1.581-.068-.778.29-1.535.436-2.302.568-.708 1.037-1.508 1.705-2.123 4-3.68 10.983-5.608 16.237-6.126 1.673-.165 3.36-.087 5.04-.131 1.573.225 3.173.302 4.717.675 4.51 1.09 9.121 3.946 11.034 8.36.294.679.344 1.439.516 2.158-.11.676-.073 1.394-.329 2.03-.555 1.378-2.153 2.316-3.575 2.442-.249.022-.606.094-.74-.117-.18-.28.017-.665.026-.998 5.132-2.641 11.137-1.21 16.427.11 7.343 2.45 14.09 6.847 18.468 13.362.926 1.378 1.614 2.903 2.421 4.354.472 1.667 1.16 3.287 1.416 5 1.176 7.857-1.873 16.184-7.661 21.589-1.58 1.475-3.49 2.552-5.234 3.829-2.134.9-4.189 2.018-6.401 2.703-8.25 2.556-19.588 2.485-28.118 1.248-1.538-.224-3.042-.642-4.564-.963l-2.923-1.127" style="opacity:1;fill:#d5f6ff;fill-opacity:1;stroke:#000;stroke-width:.80000001;stroke-linecap:butt;stroke-linejoin:miter;stroke-miterlimit:4;stroke-dasharray:none;stroke-dashoffset:0;stroke-opacity:1" transform="translate(-19.11 -237.021)"/><path d="M-97.193 384.726c-6.762.524-13.544.701-20.324.734-7.536-.176-15.114-.822-22.483-2.474-1.32-.296-2.623-.67-3.934-1.004-3.596-1.173-9.323-2.718-11.834-5.826-.233-.288-.358-.65-.538-.975-.013-.274-.116-.558-.038-.821.484-1.638 2.445-1.214 3.58-.719 1.993 1.546-2.269 2.574-3.16 2.876-4.025 1.287-8.194 1.98-12.377 2.486-4.962.718-9.964.816-14.96.515-3.386-.446-7.005-.84-9.99-2.662-.407-.248-.767-.566-1.151-.849-1.184-1.106-2.386-2.504-1.586-4.164-.202.087.98-.825.972-.531-.015.605-.036.516-.43.57-1.523.13-3.053.153-4.579.081-2.691-.095-5.325-.69-7.867-1.547-2.491-.882-4.895-2.255-6.608-4.313-.393-.471-.713-.998-1.069-1.498-1.208-2.129-1.887-4.498-.693-6.812.63-1.224 1.39-1.698 2.407-2.57 2.053-1.357 4.414-2.339 6.903-1.916.087.044.22.044.262.133.664 1.4-2.721.036-2.943-.036-3.023-1.254-5.694-3.414-7.708-5.99-.54-.69-.994-1.443-1.491-2.166-.393-.831-.871-1.628-1.18-2.495a14.629 14.629 0 0 1-.218-9.2c.953-3.093 1.969-4.096 3.82-6.784 1.089-1.123 2.095-2.33 3.265-3.368 5.46-4.843 12.355-8.149 19.475-9.661 1.778-.378 3.598-.525 5.397-.787 1.706-.03 3.413-.164 5.118-.09 4.698.202 10.073 1.253 14.24 3.557.545.302 1.029.703 1.544 1.055.344.302 1.803 1.711.707 2.282-.518.27-1.222-.362-1.45-.675-.21-.284-.296-.64-.443-.96-.007-.426-.115-.863-.02-1.279.954-4.157 7.82-6.74 11.17-8.22 5.936-2.246 12.154-3.922 18.543-3.988 3.95-.04 4.794.282 8.58.952 4.82 1.328 9.656 3.344 13.04 7.173.394.446.714.951 1.071 1.426.754 1.382 1.382 3.529-.29 4.5-.463.142-.947.148-1.287-.22-.392-.91.473-1.794 1.023-2.4 3.518-3.064 8.099-4.424 12.482-5.728 7.224-1.756 14.732-2.474 22.147-1.713 1.468.151 2.918.437 4.377.656 1.299.337 2.622.59 3.896 1.011 3.324 1.1 7.338 2.992 8.95 6.344.243.504.308 1.074.462 1.61.045 1.206-.306 3.556-2.006 3.54-.253-.002-.53-.08-.72-.247-.217-.19-.282-.503-.423-.755.026-.341-.039-.701.077-1.023 1.211-3.373 7.077-4.628 10.012-5.424 7.257-1.665 14.768-1.648 22.032-.012 1.605.361 3.176.861 4.765 1.292 3.544 1.32 5.716 1.949 8.99 3.876 3.954 2.326 7.691 5.5 10.188 9.389.766 1.192 1.29 2.524 1.935 3.786.334 1.286.82 2.541 1.003 3.857.5 3.586-.317 7.167-2.226 10.222-1.387 2.22-1.988 2.49-3.9 4.115-1.51.908-5.167 3.043-7.042 1.864-.127-.08-.189-.234-.283-.351.096-.199.104-.474.288-.596.384-.255 1.379.065 1.667.175 1.444.548 2.382 1.489 3.422 2.588 1.555 1.994 2.637 4.309 2.524 6.896-.09 2.048-.488 2.556-1.25 4.514-2.429 4.363-6.469 7.303-11.134 8.95-.895.315-1.825.52-2.737.78-2.068.42-4.182.609-6.26.147-.166-.036-1.274-.302-1.413-.716-.07-.208.05-.436.076-.655.205-.073.4-.2.616-.22 1.102-.101 2.288.972 2.14 2.12-.058.442-.303.839-.455 1.258-.35.4-.66.838-1.05 1.199-1.137 1.055-2.55 1.932-3.902 2.658a45.373 45.373 0 0 1-6.496 2.832c-1.401.483-2.836.86-4.255 1.29-9.586 2.356-19.529 3.503-29.407 3.312-2.148-.042-4.291-.228-6.436-.342-5.222-.615-10.645-1.347-15.36-3.873-1.027-.55-1.898-1.354-2.847-2.03l.25-.425c.922.665 1.765 1.456 2.765 1.995 4.67 2.52 10.053 3.238 15.229 3.852 2.137.114 4.27.3 6.41.341 9.842.19 19.749-.955 29.299-3.31 1.408-.428 2.832-.803 4.223-1.284 2.14-.74 4.43-1.733 6.432-2.814 1.324-.716 2.683-1.562 3.793-2.6.357-.334.638-.74.958-1.11.128-.252.328-.479.385-.756.23-1.11-.888-1.956-1.893-1.785-.056-.017-.19-.106-.168-.052a.591.591 0 0 0 .265.299c.287.15.601.251.917.323 2.022.458 4.08.266 6.091-.14.898-.257 1.812-.458 2.692-.77 4.564-1.614 8.52-4.492 10.878-8.776.278-.67.63-1.315.832-2.012.912-3.152-.078-6.198-2.029-8.71-.986-1.06-1.86-1.943-3.228-2.488-2.774-1.104.45.222-1.276-.234-.08-.02-.12-.11-.18-.166.176.544 1.157.52 1.578.48 1.874-.176 3.559-1.11 5.12-2.086 1.855-1.584 2.438-1.847 3.78-4.012 1.8-2.906 2.609-6.258 2.162-9.67-.17-1.29-.638-2.524-.957-3.786-.627-1.243-1.135-2.555-1.883-3.73-2.45-3.849-6.14-6.993-10.04-9.294-3.247-1.915-5.406-2.542-8.92-3.852-1.578-.428-3.138-.925-4.732-1.285-7.207-1.625-14.66-1.641-21.86.017-2.628.716-8.275 1.983-9.604 4.851-.117.253-.108.546-.162.819.06.19.057.416.182.573.933 1.172 2.665-1.84 2.118-2.583-.13-.503-.172-1.037-.388-1.509-1.51-3.287-5.487-5.137-8.7-6.204-1.26-.418-2.57-.67-3.855-1.005-1.447-.217-2.886-.502-4.341-.652-7.37-.758-14.833-.041-22.012 1.71-4.309 1.286-8.83 2.62-12.28 5.648-.378.427-1.01 1.037-.942 1.662.097.175.485.164.72.086 1.35-.78.686-2.603.128-3.677-.342-.463-.648-.955-1.027-1.389-3.31-3.789-8.082-5.766-12.819-7.082-3.744-.666-4.577-.986-8.485-.947-6.344.065-12.517 1.734-18.41 3.968-3.1 1.375-6.308 2.636-8.875 4.932-.692.62-1.68 1.693-1.955 2.687-.1.363-.033.752-.05 1.128.3.774.207.86.834 1.357.273.217.558.172.562.15.117-.616-.562-1.089-.87-1.437-.495-.343-.959-.735-1.484-1.029-4.103-2.289-9.43-3.328-14.064-3.53-1.688-.073-3.378.059-5.068.088-1.782.26-3.586.405-5.348.78-7.053 1.5-13.884 4.778-19.284 9.585-1.152 1.025-2.142 2.22-3.213 3.329-1.9 2.777-2.718 3.505-3.718 6.658-1.203 3.796-.526 7.677 1.324 11.118.485.71.928 1.452 1.456 2.131 1.961 2.527 4.572 4.65 7.525 5.885.257.083 1.469.486 1.835.57.204.046.492-.047.614.122.06.084.133.176.135.28.001.052-.087-.061-.13-.092-2.365-.42-4.62.567-6.563 1.849-1.198 1.037-2.459 2.096-2.77 3.76-.326 1.744.35 3.353 1.16 4.846.34.485.646.997 1.022 1.455 1.66 2.02 4.011 3.363 6.442 4.225 2.507.847 5.105 1.432 7.758 1.526 1.501.07 3.007.046 4.505-.085 1.723-.244.092.553.09.554-.08.065-.138.155-.208.232-.037.087-.226.484-.229.612-.029 1.156.958 2.05 1.689 2.803.364.273.705.58 1.092.82 2.928 1.807 6.502 2.178 9.83 2.624 4.972.299 9.95.199 14.888-.516 4.156-.504 8.298-1.194 12.294-2.477 1.236-.422 1.974-.718 3.11-1.299.082-.041.201-.019.26-.089.2-.237-.182-.442-.28-.533-.821-.379-1.705-.632-2.56-.168-.132.072-.292.145-.352.283-.087.198-.035.43-.052.645.15.297.243.629.448.89.718.918 1.884 1.717 2.856 2.279 2.74 1.581 5.767 2.588 8.788 3.466 1.304.333 2.599.705 3.912 1 7.344 1.649 14.896 2.292 22.406 2.466 6.77-.035 13.544-.21 20.295-.747l.014.502zM-69.826 261.133c-3.357 2.46-7.153 4.324-11.123 5.573-1.338.42-2.709.728-4.063 1.092-6.68 1.487-13.559 1.864-20.382 1.532-3.984-.194-6.002-.495-9.901-.954-3.112-.559-6.448-.743-9.357-2.126-.543-.257-1.602-.81-1.501-1.665.042-.361.346-.64.52-.96.334-.188.645-.428 1.004-.565 1.313-.503 3.214-.544 4.518.04.235.104.423.292.635.438.084.219.253.423.252.657-.012 2.22-3.596 3.95-5.18 4.82-4.242 1.925-8.888 2.54-13.515 2.2-1.234-.09-2.458-.288-3.688-.432-5.573-1.06-11.641-2.795-15.95-6.718-.569-.519-1.017-1.158-1.525-1.737-.285-.536-.646-1.04-.855-1.61-.534-1.454-.19-3.22 1.358-3.84.237-.095.5-.102.75-.153 1.135.072 2.224.49 1.231 1.722-1.226 1.12-2.953 1.558-4.5 2.056-4.338 1.35-8.855 1.925-13.37 2.273-5.545.277-11.167-.482-16.319-2.625-1.128-.469-2.2-1.064-3.3-1.597-1.013-.679-2.082-1.283-3.041-2.036-3.47-2.727-6.723-6.876-7.77-11.239-.217-.908-.218-1.854-.327-2.78.125-.834.13-1.694.375-2.5.869-2.874 3.1-4.675 5.917-5.418.5-.131 1.016-.184 1.524-.276.415-.032.83-.078 1.246-.095.434-.017 1.087-.008 1.548.065.1.015.324-.014.29.081-.258.718-.698.339-1.124.182-2.197-.999-4.34-2.36-5.812-4.319-.432-.574-.757-1.221-1.135-1.832-.245-.773-.588-1.521-.736-2.318-.824-4.425 1.034-8.751 4.045-11.953 1.018-1.082 2.23-1.963 3.346-2.944 1.437-.883 2.807-1.884 4.31-2.648 5.283-2.69 11.252-4.238 17.116-4.934 4.997-.593 6.728-.353 11.662-.185 4.121.385 8.238 1.075 12.13 2.524 1.108.411 2.524 1.038 3.474 1.837.238.2.394.48.59.72.003.182.112.395.01.546-.657.96-1.708-.155-2.027-.737a3.543 3.543 0 0 1-.404-1.138c-.075-.474 0-.96 0-1.439.23-.585.353-1.224.688-1.757.848-1.348 2.479-2.57 3.8-3.327 4.037-2.317 8.512-3.201 12.997-4.193 10.473-1.766 21.27-1.717 31.696.387 1.83.37 3.624.891 5.436 1.337 3.845 1.228 7.654 2.736 10.87 5.236 1.087.844 2.058 1.811 2.684 3.049.174.345.22.74.33 1.11-.06.32-.024.672-.18.956-.553 1.01-2.186.614-2.913.124-.214-.144-.378-.353-.567-.53-.1-.214-.277-.407-.299-.642-.238-2.589 5.251-3.595 6.876-4.002 4.096-.871 8.298-1.094 12.428-.316 2.488.47 3.164.801 5.488 1.62 2.052.988 5.695 2.5 6.425 4.964.072.245.052.507.077.761-.146.842-.748 1.912-1.73 1.453-1.124-1.312 1.934-2.11 2.62-2.33 4.149-.976 8.462-.823 12.648-.143 1.264.205 2.512.496 3.768.745 7.627 2.042 15.064 5.404 21.04 10.671 1.276 1.125 2.387 2.424 3.58 3.635.972 1.359 2.067 2.637 2.915 4.077 3.084 5.235 4.556 11.945 1.828 17.67-.658 1.382-1.726 2.527-2.589 3.79-1.26 1.084-2.418 2.301-3.782 3.252-5.87 4.096-14.399 6.594-21.47 7.274-1.736.167-3.486.114-5.23.17-1.575-.126-3.16-.171-4.727-.38-3.981-.53-8.652-1.771-12.217-3.709-.446-.242-.854-.55-1.28-.824-.44-.409-1.292-1.113-.562-1.763.395-.352 1.296-.11 1.725-.029 1.916.72 2.147 1.736 1.986 3.657-.142.408-.233.838-.425 1.225-1.351 2.724-4.536 3.24-7.206 3.756-3.84.535-8.05.81-11.57-1.155-.487-.272-.908-.65-1.362-.974l.255-.43c.429.314.825.678 1.287.94 3.435 1.947 7.578 1.646 11.331 1.126 3.066-.596 6.037-1.103 7.198-4.39.194-1.59.06-2.66-1.588-3.26-.482-.097-.842-.068-1.315-.073-.053-.001-.135-.097-.152-.047-.134.398.504.837.635.977.411.268.803.57 1.233.805 3.512 1.925 8.148 3.157 12.076 3.682 1.552.208 3.122.254 4.683.38 1.727-.055 3.462-.002 5.182-.167 7.003-.672 15.455-3.147 21.265-7.21 1.335-.934 2.466-2.129 3.7-3.193 2.109-3.107 3.149-3.866 3.728-7.63.7-4.552-.704-9.23-2.985-13.13-.833-1.424-1.913-2.69-2.869-4.035-1.178-1.201-2.275-2.489-3.536-3.603-5.923-5.236-13.307-8.574-20.875-10.603-1.247-.246-2.486-.535-3.74-.739-4.129-.669-8.385-.824-12.477.145-.212.069-2.73.824-2.516 1.382.486.35.892-.479 1.045-.831-.005-.213.036-.43-.014-.637-.555-2.321-4.302-3.875-6.163-4.78-2.293-.811-2.952-1.138-5.408-1.603-4.08-.772-8.232-.549-12.278.316-1.951.492-4.08.883-5.734 2.133-.109.083-.813.737-.805 1.098.004.186.125.35.188.525.151.155.278.34.454.466.79.565 2.148.768 2.46-.378-.086-.337-.107-.697-.257-1.01-.576-1.203-1.519-2.143-2.558-2.957-3.17-2.485-6.94-3.975-10.738-5.195-1.802-.444-3.587-.964-5.405-1.332-10.378-2.1-21.127-2.146-31.55-.383-5.09 1.13-13.255 2.616-16.473 7.347-.271.4-.397.88-.596 1.32-.018.437-.103.877-.054 1.312.073.646.363 1.251.82 1.709.132.132.324.188.475.298.077.056.113.212.207.197.096-.016.096-.17.144-.255-.163-.216-.284-.471-.488-.648-.91-.786-2.304-1.401-3.368-1.8-3.857-1.444-7.939-2.128-12.023-2.513-4.9-.168-6.62-.408-11.582.182-5.816.69-11.737 2.227-16.974 4.9-1.483.756-2.833 1.746-4.25 2.62-1.093.966-2.282 1.834-3.28 2.9-2.84 3.035-4.659 7.136-3.933 11.33.133.769.453 1.492.68 2.238.36.593.667 1.221 1.08 1.778 1.423 1.918 3.513 3.246 5.65 4.224.48.18.796.14.835.782.005.075-.141-.056-.216-.069a4.731 4.731 0 0 0-.55-.056c-.941-.04-1.127.007-2.132.083-2.523.458-4.517 1.08-6.071 3.313-.388.557-.729 1.162-.935 1.809-.245.772-.268 1.598-.402 2.397.095.9.083 1.819.286 2.701.988 4.288 4.195 8.387 7.588 11.066.943.745 1.995 1.342 2.992 2.013 1.086.527 2.143 1.117 3.257 1.582 5.1 2.127 10.668 2.875 16.159 2.6 4.483-.348 8.97-.922 13.276-2.268 1.466-.475 3.128-.885 4.287-1.956.079-.105.202-.175.268-.288.248-.418-.978-.552-1.118-.546-.205.039-.421.04-.616.117-1.248.492-1.567 1.885-1.16 3.07.187.546.525 1.029.788 1.543.487.563.912 1.186 1.46 1.69 4.234 3.892 10.255 5.603 15.752 6.65 1.217.144 2.43.339 3.652.429 4.557.335 9.134-.27 13.308-2.173 1.757-.969 3.564-1.889 4.685-3.625.098-.152.202-.31.233-.488.027-.155-.044-.311-.067-.467-.168-.128-.314-.296-.506-.385-1.207-.56-2.984-.514-4.208-.059-.305.114-.569.317-.854.476-.137.115-.36.173-.41.344-.228.763.76 1.214 1.212 1.432 2.875 1.385 6.188 1.553 9.266 2.114 3.888.459 5.891.76 9.864.953 6.786.33 13.629-.046 20.27-1.53 1.344-.362 2.703-.667 4.03-1.086 3.927-1.24 7.686-3.088 11-5.537l.243.44z" style="opacity:1;fill:#000;fill-opacity:1;stroke:#000;stroke-width:.40000001;stroke-linecap:butt;stroke-linejoin:miter;stroke-miterlimit:4;stroke-dasharray:none;stroke-dashoffset:0;stroke-opacity:1" transform="translate(-19.11 -237.021)"/><path d="M163.193 331.886c-2.43 3.257-5.249 6.23-8.527 8.568-.984.701-2.032 1.302-3.047 1.953-6.527 3.662-13.897 5.084-21.239 5.528-1.772.108-3.55.095-5.325.142-7.155-.17-14.339-.86-21.245-2.907-3.438-1.02-4.425-1.564-7.591-2.958-2.02-1.162-7.219-3.866-5.04-7.166.226-.34.594-.55.89-.824 1.116-.68 3.543-.95 3.682 1.003.024.324-.083.643-.125.965-1.256 2.514-4.048 2.935-6.5 3.227-4.929.485-9.736-.6-14.444-1.996-3.23-1.285-7.352-2.667-8.923-6.242-.192-.435-.248-.923-.372-1.384.019-.398-.033-.807.057-1.195.407-1.75 1.749-2.27 3.28-2.01.814.33 1.912 1.135.997 2.098-.166.174-.409.245-.613.368-2.521 1.134-5.292 1.154-7.99 1.162-4.846-.07-9.591-1.003-14.225-2.424-3.715-1.323-7.175-3.378-9.705-6.573-1.881-2.376-2.04-3.217-3.297-6.03-1.731-5.294-2.256-10.918-.802-16.371 1.029-3.862 1.805-4.627 3.813-8.013 1.06-1.178 2.017-2.467 3.18-3.536 5.143-4.73 11.955-7.233 18.683-8.107 1.6-.208 3.22-.201 4.831-.302 5.126.283 10.642.737 15.19 3.483.067.071.254.13.2.213-.693 1.06-2.133-.993-2.351-1.563-.144-.377-.163-.794-.244-1.19.08-.524.074-1.069.238-1.57 1.302-3.99 6.704-6.187 10.022-7.645 7.405-2.713 15.31-3.815 23.122-2.705 1.555.22 3.08.633 4.619.95 5.457 1.702 10.98 3.984 15.187 8.105.196.302 1.216 1.433.32 1.795-.527.213-1.149-.727-1.386-1.033-1.13-2.49 1.477-4.38 3.133-5.677 4.396-3.045 9.459-4.88 14.604-6.002 1.427-.31 2.872-.525 4.308-.788 7.233-.957 14.775-1.256 21.802 1.146 1.167.4 2.274.968 3.412 1.452.947.584 1.936 1.1 2.84 1.753 2.292 1.652 4.669 4.084 5.589 6.91.119.367.136.761.205 1.141-.02 1.329-.783 2.345-2.08 1.935-.501-.21-.837-.681-.503-1.226.969-.946 2.422-1.27 3.667-1.61 3.433-.748 6.96-.735 10.416-.155.97.164 1.927.4 2.891.6 6.196 1.582 12.31 4.04 17.604 7.813 1.23.876 2.357 1.899 3.535 2.849 1.07 1.1 2.211 2.131 3.21 3.302 4.003 4.692 7.168 10.626 8.283 16.835.275 1.529.29 3.095.435 4.643-.153 1.503-.134 3.036-.459 4.509-.996 4.518-3.516 8.14-7.192 10.715-3.177 2.225-5.184 2.69-8.78 4.015-4.444 1.24-9.011 1.864-13.613 1.58-1.831-.113-4.121-.444-5.883-1.154-.56-.226-1.049-.612-1.573-.919-.232-.313-.56-.57-.694-.94-.4-1.115.709-1.934 1.606-2.05.78-.1 1.066.13 1.765.422 1.761 1.234 2.107 3.383 1.33 5.39-.187.487-.5.911-.751 1.366-3.61 4.169-8.34 4.925-13.437 5.615-7.387.353-14.785-1.071-21.819-3.37-1.33-.435-2.626-.974-3.939-1.461l-3.068-1.635" style="opacity:1;fill:#e5f6ff;fill-opacity:1;stroke:#000;stroke-width:1;stroke-linecap:butt;stroke-linejoin:miter;stroke-miterlimit:4;stroke-dasharray:none;stroke-dashoffset:0;stroke-opacity:.82647059" transform="translate(-19.11 -237.021)"/><path d="M-2.596 543.413c-4.514 2.517-9.575 3.82-14.55 5.072-7.939 1.592-16.094 2.56-24.205 2.144-1.743-.089-3.476-.323-5.214-.485-6.543-1.1-13.468-2.311-19.136-6.01-.667-.435-1.267-.967-1.9-1.451-.978-.957-3.32-3.348-2.233-4.982.096-.145.286-.197.43-.296 1.08-.165 1.614.929 1.525 1.886-.03.308-.13.604-.196.906-1.298 2.514-4.086 3.398-6.634 4.111-4.765 1.11-9.65.608-14.415-.19-3.22-.819-7.738-1.664-10.18-4.144-.256-.26-.425-.592-.638-.888-.438-1.243.614-2.731 1.959-2.069.166.082.277.245.415.367.048.18.164.357.145.543-.163 1.629-2.534 2.292-3.794 2.657-2.778.693-5.468.524-8.25.007-3.42-.783-6.876-1.51-10.149-2.808-.861-.341-1.7-.738-2.549-1.107-5.056-2.451-9.65-6.015-12.582-10.894-.652-1.086-1.133-2.266-1.7-3.4-1.846-5.072-2.182-10.407-.493-15.582 1.129-3.46 1.98-4.38 3.92-7.461.997-1.116 1.912-2.31 2.99-3.346 4.758-4.575 10.887-7.635 17.168-9.505 1.53-.455 3.103-.746 4.655-1.12 1.43-.174 2.851-.443 4.29-.522 3.718-.202 8.2.196 11.346 2.43.418.297.737.713 1.105 1.07.145.33.402.633.435.993.129 1.408-1.327 1.64-2.365 1.488-1.202-.176-1.509-.522-2.527-1.16-.357-.377-.778-.702-1.072-1.13-1.027-1.489-1.087-3.27-.396-4.92.668-1.595 1.556-2.277 2.738-3.52 4.694-3.689 10.472-5.745 16.315-6.771 1.472-.258 2.965-.376 4.447-.564 6.233-.363 12.453.448 18.276 2.75 3.281 1.296 4.056 1.909 6.982 3.655 1.788 1.32 6.436 4.289 6.221 7.044-.022.286-.173.546-.26.82-.15.104-.272.267-.449.313-.417.111-.736-.179-.778-.597-.118-1.175.82-2.22 1.45-3.072 3.556-3.703 8.681-4.875 13.535-5.842 5.8-.897 11.76-1.16 17.575-.213 1.137.186 2.257.466 3.386.7 3.747.98 7.497 2.353 10.314 5.123 1.285 1.263 1.546 1.87 2.458 3.345.879 1.956 1.613 4.477.28 6.413-1.08.69-.648-1.008-.441-1.436 1.134-1.222 2.954-1.635 4.49-2.128 4.799-1.457 9.866-1.6 14.842-1.617 5.696.21 11.376 1.226 16.64 3.48 3.843 1.644 4.556 2.348 8.02 4.656 1.154 1.024 2.388 1.964 3.461 3.072 4.238 4.372 7.197 10.054 8.052 16.108.206 1.461.156 2.947.234 4.42-.202 1.446-.26 2.92-.606 4.338-1.046 4.28-3.367 8.146-6.604 11.13-2.722 2.51-3.847 2.798-7.095 4.436-1.31.376-2.593.863-3.93 1.127-4.594.904-10.032.514-14.391-1.251-.784-.318-1.496-.789-2.244-1.183-.709-.585-2.735-2.106-1.67-3.375.909-1.085 2.542.276 3.24.757.356.402.776.754 1.065 1.206 1.446 2.263 1.217 5.18-.355 7.318-.461.628-1.101 1.102-1.652 1.653-.796.452-1.548.991-2.387 1.356-4.597 1.998-10.364 2.326-15.295 1.98-1.43-.1-2.844-.345-4.266-.518-2.525-.6-4.679-.968-7.04-2.045-.797-.363-1.501-.9-2.251-1.35l.224-.442c.725.44 1.404.968 2.176 1.322 2.326 1.067 4.468 1.435 6.955 2.03 1.409.171 2.81.415 4.226.515 4.863.34 10.555.02 15.088-1.952.806-.351 1.527-.872 2.291-1.307 1.115-1.125 1.926-1.67 2.474-3.175.59-1.619.383-3.545-.517-5.01-.264-.43-.657-.765-.986-1.148-.593-.427-1.714-1.498-2.579-.903-1.082.745 1.262 2.453 1.463 2.636.725.387 1.415.85 2.176 1.16 4.283 1.748 9.646 2.133 14.162 1.244 1.314-.259 2.574-.738 3.86-1.107 3.19-1.613 4.296-1.896 6.966-4.367 3.065-2.836 5.4-6.591 6.413-10.656.347-1.395.416-2.844.624-4.265-.07-1.453-.011-2.917-.208-4.357-.816-5.98-3.723-11.601-7.895-15.927-1.059-1.097-2.277-2.028-3.415-3.043-3.424-2.287-4.133-2.988-7.934-4.618-5.22-2.24-10.855-3.247-16.506-3.453-4.936.02-9.962.163-14.72 1.614-1.42.458-3.153.837-4.209 1.96-.05.12-.244.898-.397.831-.042-.018.073-.056.109-.084 1.136-1.753.454-3.96-.313-5.717-.872-1.434-1.125-2.032-2.361-3.262-2.755-2.741-6.452-4.083-10.133-5.052-1.118-.231-2.227-.51-3.354-.694-5.774-.943-11.69-.678-17.45.215-4.752.95-9.795 2.087-13.267 5.73-.782 1.077-.727.86-1.195 1.977-.11.264-.301.9-.018.858.101-.015.174-.107.26-.16.438-.778.065-1.584-.4-2.291-1.345-2.044-3.426-3.443-5.38-4.831-2.894-1.734-3.654-2.339-6.903-3.627-5.766-2.286-11.928-3.089-18.102-2.729-1.47.187-2.95.304-4.408.56-5.766 1.016-11.475 3.042-16.1 6.694-.533.565-1.125 1.08-1.6 1.696-1.34 1.74-2.01 3.986-.71 5.952.268.406.659.715.989 1.073 1.03.666 2.039 1.334 3.342 1.113.23-.04.922-.314.897-.721-.019-.31-.215-.584-.322-.876-.338-.338-.626-.735-1.013-1.015-3.055-2.21-7.479-2.587-11.103-2.39-1.424.076-2.83.343-4.245.515-1.539.37-3.1.658-4.615 1.11-6.218 1.854-12.288 4.886-16.991 9.424-1.061 1.024-1.96 2.203-2.94 3.304-1.98 3.165-2.666 3.83-3.84 7.361-1.655 4.978-1.284 10.145.462 15.035.554 1.118 1.022 2.281 1.66 3.353 2.879 4.828 7.415 8.352 12.407 10.775.841.366 1.671.759 2.524 1.097 3.252 1.292 6.69 2.01 10.09 2.79 2.718.506 5.347.674 8.063-.007 1.248-.365 2.328-.73 3.226-1.71.073-.08.166-.154.2-.257.038-.11.003-.232.005-.348-.686-.888-1.963-.119-1.699.961.183.272.322.58.55.817 2.338 2.442 6.873 3.274 9.988 4.074 4.709.789 9.535 1.288 14.242.188 2.395-.674 5.093-1.493 6.294-3.88.203-.681.315-2.017-.688-2.075-1.528.923 1.227 3.81 1.856 4.399.617.476 1.201 1 1.853 1.427 5.61 3.686 12.489 4.874 18.973 5.972 1.727.161 3.45.394 5.182.483 8.078.413 16.2-.552 24.104-2.143 4.922-1.242 9.94-2.528 14.398-5.035l.232.447zM240.402 542.544c-1.405 2.15-3.008 4.201-4.945 5.9-.622.545-1.294 1.03-1.941 1.545a33.666 33.666 0 0 1-11.038 5.117c-3.033.788-4.52.904-7.659 1.351-9.707 1.16-19.476.33-29.125-.914-4.27-.68-8.553-1.495-12.63-2.972-1.625-.588-3.766-1.531-5.212-2.576-.54-.39-.977-.905-1.466-1.358-.246-.454-.583-.87-.738-1.363-.584-1.846.765-3.46 2.354-4.158.379-.167.791-.24 1.187-.36 1.438-.242 3.635-.062 3.892 1.788.042.296-.033.597-.05.896-.127.366-.208.753-.384 1.099-1.128 2.22-3.857 3.402-5.989 4.347-3.414 1.284-7.009 2.238-10.669 2.422-.766.039-1.534 0-2.3 0-3.525-.18-7.102-.836-10.227-2.554-.48-.264-.926-.586-1.39-.88-1.236-1.088-2.922-2.437-3.026-4.234.195-.938.985-.494 1.348.043.283 1.24-1.34 2.042-2.204 2.56-2.733 1.268-5.823 1.398-8.786 1.355-4.684-.41-9.3-1.756-13.53-3.81-1.078-.522-2.108-1.135-3.162-1.703-4.544-2.682-8.587-6.178-11.49-10.623-2.03-3.11-2.291-4.24-3.683-7.677-1.77-5.908-2.174-12.136-.758-18.173 1.008-4.297 1.602-4.98 3.499-8.892.916-1.31 1.723-2.7 2.747-3.927 4.244-5.085 10.241-8.686 16.59-10.467 1.525-.428 3.107-.617 4.66-.926 1.506-.083 3.01-.268 4.518-.249 4.82.063 9.717 1.217 13.95 3.543.675.371 1.3.827 1.952 1.241.562.489 2.437 1.784 1.578 2.898-.741.962-2.252-.236-2.82-.642-.26-.37-.585-.703-.776-1.113-1.162-2.486.64-4.797 2.537-6.267.771-.598 1.632-1.07 2.449-1.604 1.067-.49 2.108-1.044 3.202-1.473 5.676-2.222 11.948-3.336 18.035-3.333 1.635 0 3.266.173 4.9.259 5.93.667 11.612 2.473 16.358 6.182 2.307 1.803 2.75 2.549 4.553 4.705.687.898 3.895 6.58.836 6.795-.318.022-.625-.13-.937-.194-.274-.222-.605-.388-.821-.666-.518-.667-.685-1.478-.373-2.292.884-2.305 3.37-3.31 5.351-4.39 6.735-2.756 14.038-4.414 21.348-4.231 1.524.038 3.038.245 4.557.367 1.415.293 2.853.494 4.245.878 4.075 1.125 8.658 3.344 11.484 6.596.484.557.834 1.217 1.25 1.826.175.561.446 1.101.526 1.683.244 1.77-.802 3.67-2.634 4.006-.294.054-.598-.014-.897-.021-.218-.118-.485-.172-.652-.354-.163-.176-.285-.42-.283-.66.016-1.895 2.7-2.503 4.024-2.967 4.86-1.238 9.982-1.192 14.928-.507 1.366.189 2.716.476 4.074.714 7.677 1.842 15.045 5.163 20.974 10.47 1.216 1.09 2.287 2.332 3.43 3.498.955 1.306 2.016 2.541 2.865 3.92 2.542 4.125 4.007 8.748 3.711 13.634-.27 4.451-1.159 5.732-2.783 9.87-.98 1.511-1.83 3.115-2.94 4.534-4.618 5.899-11.375 10.052-18.568 12.008-1.814.494-3.694.7-5.54 1.05-1.884.042-3.768.216-5.649.128-6.65-.31-13.342-2.24-19.15-5.483-1.008-.562-1.947-1.24-2.92-1.861l-2.06-1.68.273-.414 2.019 1.659c.96.615 1.886 1.288 2.88 1.846 5.748 3.223 12.379 5.137 18.966 5.448 1.86.088 3.723-.084 5.585-.125 1.827-.346 3.686-.55 5.48-1.038 7.111-1.936 13.794-6.048 18.348-11.89 1.092-1.4 1.926-2.985 2.89-4.477 1.595-3.962 2.415-5.093 2.706-9.422.323-4.814-1.1-9.37-3.594-13.444-.835-1.364-1.882-2.588-2.823-3.882-1.13-1.156-2.186-2.388-3.388-3.467-5.874-5.274-13.182-8.57-20.797-10.399-1.348-.236-2.689-.521-4.045-.709-4.888-.676-9.953-.724-14.755.504-1.3.459-2.518.776-3.449 1.842-.206.236-.415.518-.185.85.104.15.306.202.46.303.247.012.497.078.741.036 1.511-.26 2.48-1.8 2.323-3.275-.058-.547-.302-1.058-.453-1.587-.395-.59-.723-1.232-1.186-1.771-2.753-3.211-7.286-5.404-11.282-6.512-1.377-.381-2.798-.581-4.197-.872-1.505-.121-3.005-.327-4.514-.365-7.249-.182-14.492 1.464-21.166 4.205-1.504.824-6.66 3.173-4.872 5.806.164.242.431.393.647.59.238.064.468.186.715.194 2.472.08-.597-5.42-1.055-5.938-1.766-2.13-2.196-2.862-4.462-4.644-4.68-3.68-10.295-5.463-16.155-6.124-1.62-.086-3.237-.257-4.86-.258-6.036-.002-12.26 1.105-17.886 3.315-1.076.423-2.098.97-3.147 1.454-2.214 1.458-6.243 3.761-4.827 7.078.16.376.445.685.668 1.027.48.363 1.407 1.27 2.137.804.901-.575-1.39-2.144-1.386-2.192-.637-.408-1.248-.858-1.91-1.224-4.167-2.306-9.002-3.446-13.753-3.51-1.49-.02-2.975.163-4.463.245-1.534.304-3.097.491-4.603.914-6.272 1.762-12.196 5.323-16.38 10.357-1.008 1.212-1.802 2.588-2.704 3.882-1.743 3.618-2.458 4.594-3.386 8.5-1.418 5.968-1.053 12.125.683 17.976 1.364 3.397 1.623 4.522 3.619 7.597 2.86 4.407 6.856 7.87 11.351 10.526 1.044.564 2.064 1.172 3.13 1.69 4.183 2.033 8.748 3.368 13.38 3.774 2.888.04 5.906-.08 8.567-1.32.65-.395 1.81-.998 2.025-1.76a1.405 1.405 0 0 0-.488-.517c-.144 1.495 1.83 3.063 2.775 3.93.45.286.882.602 1.348.86 3.067 1.699 6.588 2.34 10.052 2.518.753 0 1.508.038 2.26 0 3.619-.183 7.171-1.13 10.545-2.402 2.366-1.056 5.03-2.295 6.03-4.869.035-.249.116-.495.105-.746-.07-1.66-2.166-1.754-3.357-1.55-.365.112-.747.18-1.096.334-1.273.56-2.571 1.855-2.152 3.386.125.458.428.848.642 1.272.463.438.874.938 1.39 1.314 1.416 1.034 3.531 1.969 5.124 2.548 4.055 1.473 8.317 2.283 12.563 2.962 9.615 1.24 19.35 2.066 29.02.907 3.115-.445 4.59-.561 7.597-1.345a33.157 33.157 0 0 0 10.9-5.068c.635-.509 1.295-.987 1.906-1.525 1.913-1.687 3.489-3.724 4.875-5.854l.344.368zM260.151 444.538c-1.197 2.043-2.582 4.006-4.29 5.658-.55.53-1.147 1.008-1.72 1.511a31.068 31.068 0 0 1-9.943 5.212c-2.76.863-4.124 1.037-6.997 1.59-8.894 1.506-17.936 1.18-26.885.47-3.965-.435-7.95-.992-11.774-2.17-1.524-.468-3.54-1.24-4.92-2.138-.515-.335-.94-.79-1.411-1.185-.248-.408-.577-.776-.743-1.223-.62-1.674.55-3.222 1.983-3.938.341-.17.718-.257 1.078-.385 1.314-.287 3.347-.22 3.668 1.472.051.271-.004.552-.006.828-.102.343-.159.703-.305 1.03-.94 2.097-3.402 3.309-5.324 4.275-3.09 1.337-6.359 2.378-9.724 2.713-.704.07-1.414.07-2.12.104-3.256-.007-6.583-.45-9.54-1.893-.455-.222-.88-.499-1.321-.748-1.188-.947-2.803-2.114-2.98-3.765.138-.873.886-.5 1.244-.02.317 1.128-1.142 1.94-1.916 2.457-2.461 1.291-5.303 1.55-8.036 1.644-4.336-.166-8.65-1.2-12.642-2.9-1.016-.434-1.994-.952-2.99-1.428-4.31-2.266-8.192-5.305-11.068-9.27-2.012-2.775-2.304-3.804-3.741-6.908-1.898-5.364-2.55-11.084-1.517-16.71.735-4.005 1.252-4.662 2.823-8.351.785-1.248 1.467-2.566 2.355-3.742 3.683-4.877 9.048-8.465 14.819-10.392 1.386-.463 2.835-.709 4.253-1.063 1.385-.144 2.762-.383 4.153-.433 4.444-.16 9.01.683 13.016 2.636.64.312 1.236.704 1.855 1.056.54.425 2.326 1.534 1.585 2.599-.64.92-2.086-.116-2.629-.464-.255-.33-.57-.622-.764-.991-1.183-2.239.374-4.449 2.056-5.89.683-.585 1.456-1.058 2.184-1.587.962-.5 1.896-1.058 2.885-1.502 5.13-2.303 10.862-3.612 16.471-3.884 1.508-.073 3.019.013 4.528.019 5.496.347 10.813 1.755 15.355 4.96 2.207 1.556 2.65 2.224 4.408 4.13.674.795 3.887 5.887 1.077 6.222-.292.035-.582-.091-.873-.137-.262-.192-.575-.33-.786-.576-.508-.59-.698-1.331-.447-2.095.71-2.164 2.957-3.202 4.734-4.286 6.083-2.843 12.739-4.699 19.484-4.86 1.406-.034 2.812.088 4.217.133 1.317.206 2.65.326 3.952.618 3.806.853 8.13 2.69 10.881 5.56.47.49.823 1.084 1.234 1.626.187.509.46.994.56 1.527.306 1.62-.573 3.418-2.246 3.81-.27.063-.552.014-.828.02-.206-.098-.454-.136-.617-.296-.158-.155-.281-.375-.29-.595-.071-1.747 2.376-2.429 3.575-2.916 4.423-1.359 9.146-1.548 13.735-1.14 1.267.113 2.524.317 3.787.475 7.158 1.351 14.098 4.08 19.802 8.703 1.17.948 2.213 2.045 3.319 3.068.939 1.16 1.973 2.25 2.817 3.482 2.529 3.687 4.088 7.88 4.035 12.396-.048 4.114-.81 5.334-2.12 9.22-.836 1.436-1.547 2.952-2.506 4.31-3.99 5.643-10.03 9.775-16.572 11.9-1.65.537-3.373.812-5.06 1.217-1.732.124-3.461.37-5.199.373-6.144.013-12.397-1.464-17.896-4.19-.955-.472-1.85-1.055-2.775-1.583l-1.975-1.455.233-.393 1.936 1.437c.913.524 1.796 1.102 2.738 1.571 5.442 2.71 11.64 4.176 17.725 4.166 1.718-.003 3.427-.245 5.14-.367 1.67-.402 3.374-.673 5.006-1.204 6.466-2.104 12.44-6.193 16.373-11.781.944-1.34 1.641-2.837 2.462-4.256 1.292-3.722 1.997-4.801 2.07-8.803.081-4.45-1.436-8.585-3.918-12.225-.832-1.22-1.851-2.3-2.777-3.45-1.093-1.014-2.122-2.102-3.28-3.043-5.65-4.594-12.534-7.302-19.635-8.644-1.253-.157-2.501-.36-3.76-.471-4.535-.403-9.205-.219-13.576 1.129-1.176.481-2.285.829-3.095 1.852-.18.227-.36.497-.133.792.103.134.292.172.437.258.229 0 .463.05.686 0 1.38-.307 2.204-1.77 1.993-3.122-.078-.501-.326-.961-.489-1.442-.39-.526-.722-1.102-1.173-1.578-2.682-2.835-6.958-4.65-10.691-5.492-1.287-.29-2.605-.41-3.908-.614-1.392-.045-2.784-.166-4.177-.133-6.688.159-13.29 2.001-19.318 4.828-1.348.827-5.994 3.223-4.228 5.57.162.214.415.342.623.513.223.049.44.15.668.147 2.282-.038-.795-4.967-1.24-5.424-1.723-1.883-2.153-2.538-4.322-4.078-4.48-3.18-9.734-4.57-15.165-4.915-1.497-.006-2.995-.091-4.49-.019-5.564.27-11.25 1.57-16.336 3.86-.972.438-1.89.988-2.835 1.482-1.974 1.443-5.584 3.747-4.13 6.74.165.338.442.61.663.915.458.313 1.354 1.107 2.006.644.804-.57-1.378-1.912-1.377-1.957-.605-.347-1.189-.733-1.815-1.04-3.945-1.938-8.452-2.77-12.834-2.615-1.374.048-2.735.284-4.102.426-1.4.35-2.832.592-4.201 1.05-5.701 1.906-11 5.454-14.63 10.28-.874 1.163-1.544 2.466-2.317 3.699-1.443 3.413-2.058 4.344-2.738 7.985-1.037 5.563-.424 11.219 1.44 16.532 1.41 3.069 1.699 4.094 3.678 6.837 2.835 3.932 6.673 6.943 10.936 9.188.987.472 1.954.986 2.96 1.416 3.947 1.684 8.214 2.708 12.502 2.874 2.663-.093 5.44-.34 7.836-1.602.581-.393 1.624-1.001 1.787-1.713a1.296 1.296 0 0 0-.473-.455c-.066 1.384 1.825 2.74 2.735 3.496.427.244.84.515 1.28.732 2.904 1.428 6.178 1.86 9.378 1.868.695-.034 1.392-.033 2.084-.102 3.326-.332 6.558-1.364 9.61-2.689 2.133-1.078 4.532-2.34 5.337-4.757.021-.231.085-.462.064-.693-.14-1.526-2.075-1.518-3.164-1.276-.332.12-.68.199-.995.356-1.148.574-2.286 1.826-1.83 3.218.135.416.432.762.648 1.143.447.382.848.825 1.34 1.148 1.352.888 3.344 1.655 4.838 2.116 3.804 1.175 7.768 1.73 11.712 2.164 8.917.709 17.926 1.032 26.787-.472 2.851-.55 4.204-.723 6.94-1.581a30.598 30.598 0 0 0 9.818-5.161c.562-.497 1.15-.968 1.688-1.491 1.687-1.64 3.048-3.589 4.23-5.613l.333.324z" style="opacity:1;fill:#000;fill-opacity:1;stroke:#000;stroke-width:.40000001;stroke-linecap:butt;stroke-linejoin:miter;stroke-miterlimit:4;stroke-dasharray:none;stroke-dashoffset:0;stroke-opacity:1" transform="translate(-19.11 -237.021)"/><path d="M28.11 457.961c-5.515 4.86-11.715 8.823-18.012 12.576-8.396 4.79-17.703 7.686-27.349 8.424-2.17.166-4.35.146-6.525.22-11.302-.271-22.573-2.196-33.272-5.88-1.8-.62-3.555-1.365-5.333-2.047-3.468-1.64-7.187-3.356-9.696-6.398-.77-.934-1.439-2.151-1.274-3.423.067-.523.386-.982.578-1.472.666-.757 3.573-2.358 4.429-1.081.124.184.091.434.137.652-.176.272-.295.591-.528.818-1.307 1.27-5.014 1.296-6.684 1.42-4.415.212-8.909-.042-13.248-.925-1.227-.25-2.43-.596-3.646-.895-7.678-2.383-15.149-5.755-21.37-10.935-1.33-1.107-2.531-2.36-3.796-3.54-4.256-4.86-7.744-10.69-6.886-17.434.606-4.765 1.68-5.726 4-9.853 1.3-1.442 2.46-3.027 3.904-4.326 6.856-6.16 16.274-8.972 25.278-9.83 2.448-.234 4.916-.155 7.374-.232 6.07.338 12.126 1.308 17.611 4.068 1.723.866 4.22 2.52 5.445 4.195.375.514.485 1.177.727 1.765-.154.491-.091 1.118-.463 1.475-.94.903-2.735.18-3.548-.242-3.218-1.668-4.635-4.179-6.437-7.145-.41-1.198-.995-2.35-1.23-3.593-.811-4.303.697-8.267 3.791-11.3 3.232-3.17 5.542-3.864 9.624-5.874 2.172-.683 4.299-1.527 6.514-2.05 10.267-2.422 21.431-2.057 31.61.621 2.508.66 4.916 1.657 7.375 2.485 5.64 2.576 11.104 5.742 15.005 10.696 1.315 1.67 2.862 4.377 2.996 6.651.054.918-.327 1.81-.49 2.715-.502.573-.897 1.26-1.504 1.719-1.447 1.097-4.093 1.67-5.516.143-.396-.425-.68-1.011-.71-1.592-.04-.772.342-1.507.513-2.261.588-.68 1.08-1.455 1.763-2.04 4.088-3.498 11.067-5.156 16.284-5.48 1.661-.104 3.328.033 4.992.05 1.548.278 3.129.411 4.643.836 4.422 1.239 8.883 4.23 10.618 8.665.266.682.289 1.436.434 2.153-.133.666-.122 1.377-.398 1.996-.6 1.345-2.213 2.216-3.625 2.29-.247.012-.603.07-.729-.142-.167-.284.042-.658.063-.987 5.171-2.43 11.062-.8 16.248.695 7.178 2.687 13.698 7.278 17.796 13.88.867 1.397 1.493 2.93 2.24 4.394.408 1.666 1.03 3.294 1.222 4.998.883 7.815-2.431 15.945-8.351 21.086-1.616 1.403-3.544 2.4-5.315 3.6-2.144.816-4.217 1.848-6.43 2.447-8.254 2.234-19.469 1.759-27.865.23-1.514-.276-2.987-.744-4.48-1.116l-2.853-1.219" style="opacity:1;fill:#f4f4f4;fill-opacity:1;stroke:#000;stroke-width:.40000001;stroke-linecap:butt;stroke-linejoin:miter;stroke-miterlimit:4;stroke-dasharray:none;stroke-dashoffset:0;stroke-opacity:1" transform="translate(-19.11 -237.021)"/><path d="m363.867 431.976 2.265.905c1.864 1.087 3.344 1.7 4.683 3.504 2.096 2.822 1.985 6.452.472 9.515-.572 1.16-1.468 2.13-2.201 3.195-1.046.863-1.975 1.893-3.139 2.588-5.015 2.998-11.639 2.784-16.68-.013-1.183-.656-2.17-1.616-3.255-2.423-1.722-2.336-2.864-3.164-3.117-6.16-.302-3.582 1.531-6.6 4.422-8.543 1.067-.717 2.293-1.163 3.44-1.745 1.33-.357 2.632-.837 3.988-1.073 5.491-.955 11.27-.06 16.56 1.466" style="opacity:1;fill:#f4f4f4;fill-opacity:1;stroke:#000;stroke-width:.80000001;stroke-linecap:butt;stroke-linejoin:miter;stroke-miterlimit:4;stroke-dasharray:none;stroke-dashoffset:0;stroke-opacity:1" transform="translate(-19.11 -237.021)"/><path d="M313.65 302.85c.57-.173 1.124-.41 1.71-.52 3.37-.632 6.07.182 8.16 2.911.251.496.55.97.752 1.489.815 2.094.75 4.605-.893 6.297-.435.448-.992.758-1.488 1.137-.622.25-1.218.577-1.865.753-2.816.766-6.21.48-8.83-.817-.576-.286-1.077-.702-1.615-1.053-.384-.42-.832-.79-1.152-1.26-1.526-2.248-.507-4.789 1.361-6.396 2.496-1.59 4.476-1.929 7.338-1.093M260.652 300.306c.754-.298 1.488-.653 2.263-.894 4.824-1.505 9.862-1.55 14.767-.394 2.388.839 4.223 1.186 6.135 2.927 2.362 2.152 2.802 5.178 1.794 8.118-.372 1.084-1.055 2.034-1.582 3.051-2.315 2.583-2.633 3.363-5.793 5.093-3.944 2.159-8.511 2.953-12.968 2.657-1.438-.096-2.848-.45-4.271-.675-2.842-1.02-4.294-1.2-6.54-3.232-2.21-2-3.058-4.72-2.251-7.6.247-.88.779-1.653 1.168-2.48.604-.75 1.133-1.566 1.81-2.25 2.78-2.8 6.74-4.48 10.683-4.118" style="opacity:1;fill:#e5f6ff;fill-opacity:1;stroke:#000;stroke-width:1;stroke-linecap:butt;stroke-linejoin:miter;stroke-miterlimit:4;stroke-dasharray:none;stroke-dashoffset:0;stroke-opacity:1" transform="translate(-19.11 -237.021)"/><path d="M156.863 137.96c-2.382 3.067-5.145 5.866-8.359 8.067-.965.66-1.991 1.226-2.987 1.84-6.397 3.447-13.621 4.785-20.818 5.204-1.738.1-3.48.089-5.22.133-7.013-.16-14.055-.809-20.825-2.737-3.37-.96-4.337-1.472-7.44-2.785-1.98-1.094-7.077-3.64-4.94-6.746.22-.32.582-.518.872-.776 1.094-.64 3.472-.894 3.61.944.022.305-.082.606-.123.909-1.231 2.367-3.969 2.763-6.372 3.038-4.832.457-9.544-.566-14.158-1.88-3.167-1.21-7.207-2.51-8.747-5.876-.188-.41-.243-.869-.365-1.303.02-.375-.032-.76.056-1.125.399-1.647 1.715-2.137 3.216-1.892.798.31 1.874 1.068.976 1.975-.162.164-.4.23-.6.346-2.471 1.068-5.188 1.087-7.832 1.094-4.75-.066-9.401-.944-13.943-2.282-3.642-1.246-7.033-3.18-9.513-6.189-1.845-2.237-2-3.028-3.232-5.676-1.697-4.985-2.211-10.28-.787-15.414 1.01-3.636 1.77-4.356 3.738-7.544 1.039-1.11 1.977-2.323 3.116-3.329 5.043-4.453 11.72-6.81 18.315-7.633 1.569-.196 3.157-.19 4.735-.284 5.025.267 10.431.694 14.89 3.28.065.066.249.122.196.2-.68.997-2.092-.935-2.305-1.472-.14-.355-.16-.747-.239-1.121.078-.493.072-1.006.233-1.478 1.276-3.756 6.571-5.824 9.824-7.197 7.259-2.555 15.007-3.592 22.665-2.547 1.524.208 3.018.597 4.527.895 5.35 1.603 10.762 3.75 14.887 7.63.192.285 1.192 1.35.313 1.69-.517.201-1.126-.684-1.359-.972-1.107-2.345 1.448-4.123 3.072-5.345 4.31-2.867 9.272-4.595 14.314-5.65 1.4-.293 2.816-.495 4.223-.742 7.09-.901 14.483-1.183 21.37 1.078 1.145.376 2.23.912 3.346 1.367.928.55 1.897 1.036 2.785 1.65 2.245 1.556 4.575 3.846 5.477 6.507.117.345.134.716.2 1.074-.018 1.25-.766 2.208-2.038 1.821-.491-.198-.82-.64-.493-1.154.95-.89 2.374-1.196 3.595-1.516 3.364-.703 6.821-.692 10.21-.145.95.153 1.889.377 2.833.565 6.074 1.489 12.067 3.804 17.256 7.355 1.205.825 2.31 1.788 3.465 2.682 1.049 1.036 2.167 2.007 3.147 3.11 3.923 4.416 7.025 10.003 8.119 15.85.27 1.438.284 2.914.426 4.37-.15 1.416-.131 2.859-.45 4.246-.976 4.254-3.446 7.663-7.05 10.088-3.113 2.095-5.08 2.532-8.605 3.78-4.356 1.167-8.834 1.755-13.344 1.487-1.796-.106-4.04-.418-5.767-1.086-.55-.212-1.028-.577-1.542-.865-.227-.295-.55-.537-.68-.886-.393-1.049.694-1.82 1.574-1.929.765-.094 1.045.121 1.73.397 1.726 1.162 2.066 3.185 1.305 5.075-.185.458-.492.857-.738 1.286-3.537 3.925-8.174 4.636-13.17 5.286-7.241.333-14.493-1.008-21.388-3.173-1.303-.41-2.574-.917-3.86-1.375l-3.008-1.54" style="opacity:1;fill:#d5f6ff;fill-opacity:1;stroke:#000;stroke-width:.79999989;stroke-linecap:butt;stroke-linejoin:miter;stroke-miterlimit:4;stroke-dasharray:none;stroke-dashoffset:0;stroke-opacity:.82647059" transform="translate(-19.11 -237.021)"/><path d="M-50.638 316.13c4.939 4.482 13.212 2.912 17.422.847 10.41-5.106 11.182-17.992 5.687-26.004-4.129-6.02-12.345-8.622-19.623-6.803-8.652 2.162-15.541 9.068-16.322 17.662-.355 3.916 1.625 7.734 4.228 10.028 3.287 2.896 7.327 4.536 11.362 3.961" style="display:inline;fill:#e5f6ff;fill-opacity:1;stroke:#000;stroke-width:1.125;stroke-linejoin:round;stroke-miterlimit:2;stroke-dasharray:none;stroke-dashoffset:0" transform="translate(-19.11 -237.021)"/></g></svg>