<svg width="444" height="126" viewBox="0 0 444 126" fill="none" xmlns="http://www.w3.org/2000/svg">
<g clip-path="url(#clip0_503_96)">
<path d="M58.3774 49.0427H288.471V84.09H58.3774V49.0427Z" fill="#5FD35F" stroke="#5FD35F" stroke-opacity="0.826471" stroke-width="0.853328"/>
<path d="M-74.6532 60.2321C-74.7578 60.4028 -75.002 60.4359 -75.1759 60.5372C-78.0228 61.5761 -80.2905 60.5532 -82.7439 59.1185C-85.2548 57.3159 -87.1652 54.8199 -87.4798 51.6892C-87.7412 49.0866 -87.2377 48.2077 -86.554 45.6509C-86.0206 44.6077 -85.5897 43.509 -84.954 42.5234C-81.5759 37.2861 -76.089 33.412 -70.5327 30.6611C-68.8389 29.8217 -67.0543 29.171 -65.3157 28.4265C-56.0091 24.915 -46.0934 23.7203 -36.1841 24.7006C-34.3708 24.8798 -32.5756 25.2158 -30.7719 25.4729C-24.3335 26.7251 -17.9293 28.6366 -12.3325 32.0659C-11.9027 32.0275 -10.7827 33.6232 -11.9517 33.4782M402.177 277.253C394.448 280.543 386.172 282.524 377.832 283.87C375.664 284.221 373.482 284.485 371.307 284.792C356.246 286.638 341.048 286.867 325.883 286.752C314.163 286.496 302.402 285.713 290.869 283.645C289.132 283.335 287.413 282.939 285.686 282.586C282.389 281.626 274.374 279.772 274.022 275.478C273.978 274.946 274.196 274.424 274.282 273.897C274.584 273.481 274.832 273.027 275.188 272.652C276.422 271.351 278.417 270.34 280.281 270.239C280.585 270.223 280.888 270.283 281.191 270.306C281.387 270.414 281.65 270.457 281.78 270.633C281.922 270.837 281.985 271.085 281.958 271.332C281.789 273.037 279.64 274.018 278.3 274.75C273.724 276.695 268.63 276.901 263.694 277.178C258.574 277.43 253.384 277.397 248.329 276.485C247.469 276.329 246.623 276.108 245.772 275.919C244.449 275.469 239.806 274.543 239.694 272.678C239.677 272.409 239.819 272.152 239.881 271.889C240.536 271.256 242.035 270.336 242.946 271.15C243.055 271.247 243.077 271.403 243.143 271.53C243.024 271.746 242.971 272.009 242.783 272.175C242.424 272.495 241.191 272.773 240.832 272.834C238.85 273.175 236.931 272.96 234.948 272.764C231.178 272.109 227.575 270.708 224.564 268.44C222.493 266.879 221.735 265.863 220.012 263.967C216.117 259.059 213.69 253.302 212.979 247.203C212.815 245.795 212.819 244.372 212.738 242.957C212.897 236.487 214.787 230.217 218.742 224.864C221.68 220.887 223.333 219.839 227.143 216.551C234.439 211.218 242.924 207.681 251.91 205.743C257.878 204.454 259.581 204.525 265.618 204.057C274.379 203.934 283.306 204.855 291.369 208.284C292.318 208.688 293.214 209.194 294.137 209.65C295.222 210.371 297.484 211.608 296.803 213.298C296.178 214.842 294.638 214.755 293.24 214.709C292.775 214.531 292.249 214.453 291.844 214.175C289.473 212.541 290.448 209.209 291.61 207.245C292.102 206.413 292.775 205.687 293.357 204.909C294.211 204.111 295.006 203.251 295.921 202.514C300.926 198.478 307.096 195.798 313.303 193.855C315.242 193.247 317.226 192.773 319.187 192.234C330.234 189.632 341.672 188.807 353.018 189.651C355.269 189.819 357.504 190.123 359.747 190.358C369.36 191.638 378.767 194.226 387.439 198.367C388.681 198.96 389.871 199.644 391.088 200.281C393.264 201.596 395.513 202.954 397.045 204.966C397.073 205.002 397.794 206.033 397.614 206.368C397.524 206.535 397.28 206.574 397.113 206.677C396.953 206.485 396.739 206.325 396.633 206.104C395.747 204.274 397.229 201.976 398.444 200.66C399.03 200.024 399.727 199.484 400.369 198.895C405.464 195.202 411.521 192.873 417.762 191.516C419.215 191.2 420.691 190.993 422.156 190.733C427.592 190.072 433.249 189.903 438.497 191.654C441.395 192.621 441.785 193.102 444.214 194.707C444.882 195.372 445.629 195.974 446.219 196.702C448.099 199.022 449.048 202.107 448.075 204.949C447.908 205.44 447.586 205.873 447.34 206.334C446.729 207.228 445.892 207.946 444.914 208.414C444.833 208.453 444.676 208.591 444.658 208.506C444.509 207.788 445.135 207.875 445.622 207.76C449.737 206.986 453.999 207.301 458.082 208.112C459.355 208.366 460.604 208.713 461.866 209.013C469.949 211.372 477.348 215.382 483.919 220.37C485.431 221.518 486.855 222.765 488.323 223.961C489.681 225.263 491.114 226.495 492.395 227.862C496.951 232.726 501.444 239.002 502.531 245.542C502.781 247.046 502.679 248.585 502.752 250.107C502.414 251.666 502.283 253.277 501.738 254.784C499.964 259.677 496.048 263.869 491.674 266.877C487.452 269.781 485.085 270.451 480.311 272.404C470.003 275.756 459.065 277.14 448.178 276.566C446.447 276.474 444.726 276.261 443 276.107C439.745 275.555 436.227 275.225 433.267 273.684C432.705 273.39 431.722 272.752 431.717 271.973C431.715 271.687 431.95 271.444 432.067 271.179C432.355 271.117 432.637 270.969 432.931 270.994C434.642 271.136 435.869 273.044 435.828 274.522C435.812 275.11 435.581 275.674 435.458 276.25C435.087 276.8 434.795 277.405 434.346 277.9C431.43 281.11 426.653 282.598 422.407 283.355C420.802 283.641 419.169 283.761 417.55 283.965C409.867 284.43 402.179 283.268 394.835 281.156C393.104 280.656 391.421 280.024 389.713 279.458" fill="#D5F6FF"/>
<path d="M-74.6532 60.2321C-74.7578 60.4028 -75.002 60.4359 -75.1759 60.5372C-78.0228 61.5761 -80.2905 60.5532 -82.7439 59.1185C-85.2548 57.3159 -87.1652 54.8199 -87.4798 51.6892C-87.7412 49.0866 -87.2377 48.2077 -86.554 45.6509C-86.0206 44.6077 -85.5897 43.509 -84.954 42.5234C-81.5759 37.2861 -76.089 33.412 -70.5327 30.6611C-68.8389 29.8217 -67.0543 29.171 -65.3157 28.4265C-56.0091 24.915 -46.0934 23.7203 -36.1841 24.7006C-34.3708 24.8798 -32.5756 25.2158 -30.7719 25.4729C-24.3335 26.7251 -17.9293 28.6366 -12.3325 32.0659C-11.9027 32.0275 -10.7827 33.6232 -11.9517 33.4782M402.177 277.253C394.448 280.543 386.172 282.524 377.832 283.87C375.664 284.221 373.482 284.485 371.307 284.792C356.246 286.638 341.048 286.867 325.883 286.752C314.163 286.496 302.402 285.713 290.869 283.645C289.132 283.335 287.413 282.939 285.686 282.586C282.389 281.626 274.374 279.772 274.022 275.478C273.978 274.946 274.196 274.424 274.282 273.897C274.584 273.481 274.832 273.027 275.188 272.652C276.422 271.351 278.417 270.34 280.281 270.239C280.585 270.223 280.888 270.283 281.191 270.306C281.387 270.414 281.65 270.457 281.78 270.633C281.922 270.837 281.985 271.085 281.958 271.332C281.789 273.037 279.64 274.018 278.3 274.75C273.724 276.695 268.63 276.901 263.694 277.178C258.574 277.43 253.384 277.397 248.329 276.485C247.469 276.329 246.623 276.108 245.772 275.919C244.449 275.469 239.806 274.543 239.694 272.678C239.677 272.409 239.819 272.152 239.881 271.889C240.536 271.256 242.035 270.336 242.946 271.15C243.055 271.247 243.077 271.403 243.143 271.53C243.024 271.746 242.971 272.009 242.783 272.175C242.424 272.495 241.191 272.773 240.832 272.834C238.85 273.175 236.931 272.96 234.948 272.764C231.178 272.109 227.575 270.708 224.564 268.44C222.493 266.879 221.735 265.863 220.012 263.967C216.117 259.059 213.69 253.302 212.979 247.203C212.815 245.795 212.819 244.372 212.738 242.957C212.897 236.487 214.787 230.217 218.742 224.864C221.68 220.887 223.333 219.839 227.143 216.551C234.439 211.218 242.924 207.681 251.91 205.743C257.878 204.454 259.581 204.525 265.618 204.057C274.379 203.934 283.306 204.855 291.369 208.284C292.318 208.688 293.214 209.194 294.137 209.65C295.222 210.371 297.484 211.608 296.803 213.298C296.178 214.842 294.638 214.755 293.24 214.709C292.775 214.531 292.249 214.453 291.844 214.175C289.473 212.541 290.448 209.209 291.61 207.245C292.102 206.413 292.775 205.687 293.357 204.909C294.211 204.111 295.006 203.251 295.921 202.514C300.926 198.478 307.096 195.798 313.303 193.855C315.242 193.247 317.226 192.773 319.187 192.234C330.234 189.632 341.672 188.807 353.018 189.651C355.269 189.819 357.504 190.123 359.747 190.358C369.36 191.638 378.767 194.226 387.439 198.367C388.681 198.96 389.871 199.644 391.088 200.281C393.264 201.596 395.513 202.954 397.045 204.966C397.073 205.002 397.794 206.033 397.614 206.368C397.524 206.535 397.28 206.574 397.113 206.677C396.953 206.485 396.739 206.325 396.633 206.104C395.747 204.274 397.229 201.976 398.444 200.66C399.03 200.024 399.727 199.484 400.369 198.895C405.464 195.202 411.521 192.873 417.762 191.516C419.215 191.2 420.691 190.993 422.156 190.733C427.592 190.072 433.249 189.903 438.497 191.654C441.395 192.621 441.785 193.102 444.214 194.707C444.882 195.372 445.629 195.974 446.219 196.702C448.099 199.022 449.048 202.107 448.075 204.949C447.908 205.44 447.586 205.873 447.34 206.334C446.729 207.228 445.892 207.946 444.914 208.414C444.833 208.453 444.676 208.591 444.658 208.506C444.509 207.788 445.135 207.875 445.622 207.76C449.737 206.986 453.999 207.301 458.082 208.112C459.355 208.366 460.604 208.713 461.866 209.013C469.949 211.372 477.348 215.382 483.919 220.37C485.431 221.518 486.855 222.765 488.323 223.961C489.681 225.263 491.114 226.495 492.395 227.862C496.951 232.726 501.444 239.002 502.531 245.542C502.781 247.046 502.679 248.585 502.752 250.107C502.414 251.666 502.283 253.277 501.738 254.784C499.964 259.677 496.048 263.869 491.674 266.877C487.452 269.781 485.085 270.451 480.311 272.404C470.003 275.756 459.065 277.14 448.178 276.566C446.447 276.474 444.726 276.261 443 276.107C439.745 275.555 436.227 275.225 433.267 273.684C432.705 273.39 431.722 272.752 431.717 271.973C431.715 271.687 431.95 271.444 432.067 271.179C432.355 271.117 432.637 270.969 432.931 270.994C434.642 271.136 435.869 273.044 435.828 274.522C435.812 275.11 435.581 275.674 435.458 276.25C435.087 276.8 434.795 277.405 434.346 277.9C431.43 281.11 426.653 282.598 422.407 283.355C420.802 283.641 419.169 283.761 417.55 283.965C409.867 284.43 402.179 283.268 394.835 281.156C393.104 280.656 391.421 280.024 389.713 279.458" stroke="black" stroke-opacity="0.826471" stroke-width="0.853328"/>
<path d="M355.015 52.5799C358.484 51.4727 361.905 50.5458 365.606 50.9074C368.546 51.5634 369.856 51.5154 372.316 53.3607C374.964 55.3468 376.502 58.6289 376.476 61.9313C376.466 63.158 376.105 64.3569 375.919 65.5697C374.566 68.7227 374.507 69.6699 371.952 72.1883C367.492 76.584 361.379 77.9003 355.331 77.752C352.081 77.192 350.313 77.2411 347.489 75.4374C344.33 73.4192 342.863 70.1979 343.48 66.4902C343.678 65.3041 344.262 64.2172 344.653 63.0801C345.337 62.0348 345.927 60.9201 346.704 59.942C349.641 56.2524 353.911 53.0802 358.671 52.5074" fill="#E5F6FF"/>
<path d="M355.015 52.5799C358.484 51.4727 361.905 50.5458 365.606 50.9074C368.546 51.5634 369.856 51.5154 372.316 53.3607C374.964 55.3468 376.502 58.6289 376.476 61.9313C376.466 63.158 376.105 64.3569 375.919 65.5697C374.566 68.7227 374.507 69.6699 371.952 72.1883C367.492 76.584 361.379 77.9003 355.331 77.752C352.081 77.192 350.313 77.2411 347.489 75.4374C344.33 73.4192 342.863 70.1979 343.48 66.4902C343.678 65.3041 344.262 64.2172 344.653 63.0801C345.337 62.0348 345.927 60.9201 346.704 59.942C349.641 56.2524 353.911 53.0802 358.671 52.5074" stroke="black" stroke-opacity="0.826471" stroke-width="1.06666"/>
<path d="M406.129 61.4011C407.802 61.7062 409.339 62.1158 410.726 63.1782C411.652 64.1478 412.481 64.695 412.669 66.1403C412.944 68.2597 411.547 70.2235 409.888 71.3573C409.22 71.8128 408.441 72.0784 407.718 72.4389C406.886 72.6096 406.065 72.8602 405.22 72.953C403.629 73.128 401.729 73.0224 400.174 72.6117C399.194 72.3536 397.507 71.752 396.998 70.6576C396.779 70.1851 396.949 69.6176 396.924 69.0981C397.215 68.6054 397.42 68.0507 397.795 67.6197C400.183 64.8731 404.526 63.6048 408.027 63.3691" fill="#E5F6FF"/>
<path d="M406.129 61.4011C407.802 61.7062 409.339 62.1158 410.726 63.1782C411.652 64.1478 412.481 64.695 412.669 66.1403C412.944 68.2597 411.547 70.2235 409.888 71.3573C409.22 71.8128 408.441 72.0784 407.718 72.4389C406.886 72.6096 406.065 72.8602 405.22 72.953C403.629 73.128 401.729 73.0224 400.174 72.6117C399.194 72.3536 397.507 71.752 396.998 70.6576C396.779 70.1851 396.949 69.6176 396.924 69.0981C397.215 68.6054 397.42 68.0507 397.795 67.6197C400.183 64.8731 404.526 63.6048 408.027 63.3691" stroke="black" stroke-opacity="0.826471" stroke-width="1.06666"/>
<path d="M241.299 95.1994C235.88 98.9445 229.768 101.499 223.633 103.872C215.707 106.731 207.468 108.704 199.126 109.973C193.382 110.845 190.603 111.024 184.817 111.571C174.729 112.232 164.495 112.501 154.469 110.943C153.082 110.729 151.716 110.41 150.338 110.143C147.998 109.529 141.803 107.805 142.519 104.209C142.613 103.737 142.914 103.328 143.113 102.887C144.37 101.752 146.501 100.173 148.382 100.766C148.628 100.844 148.82 101.033 149.039 101.166C149.14 101.416 149.339 101.646 149.34 101.914C149.344 104.449 145.261 106.248 143.405 107.157C137.067 109.706 130.185 109.689 123.456 109.482C117.608 108.88 111.435 108.362 106.009 105.921C105.305 105.606 104.654 105.186 103.976 104.819C103.529 104.445 103.01 104.142 102.635 103.7C100.868 101.614 102.596 99.7924 104.368 98.6543C104.798 98.361 107.058 97.6421 106.467 99.1269C106.333 99.4629 105.095 100.1 104.918 100.202C100.556 102.381 95.7596 103.056 90.9585 103.59C84.2663 103.963 77.4898 103.501 70.997 101.796C69.7085 101.458 68.4499 101.017 67.1752 100.629C60.3379 98.2522 54.0873 94.2629 49.3236 88.8656C48.3977 87.817 47.5988 86.6661 46.7369 85.5664C44.2708 81.8822 41.8708 77.8502 41.681 73.3211C41.5882 71.1035 41.9305 70.3324 42.4436 68.1969C43.4761 65.3809 44.8724 62.4935 47.6681 61.0311C48.1097 60.7612 49.9966 60.8785 49.3929 61.8599C49.2884 62.0305 49.0441 62.0625 48.8702 62.1649C46.0233 63.2039 43.7556 62.1799 41.3023 60.7452C38.7914 58.9426 36.881 56.4466 36.5663 53.3159C36.305 50.7144 36.8084 49.8354 37.4922 47.2786C38.0255 46.2354 38.4564 45.1368 39.0922 44.1512C42.4703 38.9139 47.9561 35.0398 53.5134 32.2878C55.2073 31.4494 56.9907 30.7987 58.7305 30.0542C68.0371 26.5417 77.9527 25.3481 87.862 26.3273C89.6753 26.5065 91.4705 26.8425 93.2742 27.1006C99.7115 28.3518 106.116 30.2632 111.714 33.6936C112.143 33.6542 113.263 35.251 112.094 35.1049C111.454 35.0259 111.089 32.5875 111.038 32.2686C111.118 31.7438 111.111 31.1987 111.277 30.6931C113.05 25.2702 119.349 22.8094 124.109 20.6441C134.256 16.8447 145.129 14.69 155.999 14.386C158.273 14.322 160.547 14.4393 162.822 14.4671C170.601 15.1092 178.623 16.29 185.528 20.1161C189.007 22.0447 189.506 22.8308 192.258 25.4388C194.291 27.9497 198.566 32.5683 196.431 36.1523C196.181 36.5704 195.723 36.8275 195.369 37.1656C193.816 37.9197 191.82 37.9816 190.982 36.1736C190.467 35.0611 190.773 34.4926 190.974 33.315C191.258 32.8531 191.478 32.3497 191.824 31.9305C194.623 28.5385 200.154 27.7886 204.226 27.1049C210.78 26.4798 217.424 27.2766 223.741 29.0675C224.93 29.4046 226.089 29.8377 227.264 30.2227C231.303 31.8046 235.516 33.8387 238.034 37.4792C238.322 37.8952 238.538 38.356 238.79 38.7944C239.031 39.5763 239.532 40.8883 238.561 41.4995C237.791 41.9848 236.746 41.2947 236.134 40.9288C235.953 40.7336 235.714 40.5768 235.587 40.3443C234.223 37.8408 240.942 36.3347 242.161 35.9752C250.086 33.9688 258.342 33.6136 266.481 34.211C268.61 34.3678 270.728 34.6483 272.852 34.867C283.491 36.3262 293.876 39.7288 302.799 45.6957C304.423 46.7816 305.92 48.0381 307.482 49.2093C312.425 53.6807 316.874 59.0684 317.743 65.8449C318.244 69.7435 317.623 70.807 316.723 74.5894C316.083 75.9046 315.564 77.2838 314.801 78.535C311.804 83.4501 307.052 86.9723 301.769 89.2528C300.569 89.7701 299.313 90.1488 298.085 90.5979C294.313 91.6773 289.399 93.0586 285.819 90.5818C285.485 90.3504 285.243 90.0101 284.955 89.7253C284.871 89.4298 284.665 89.1451 284.702 88.8411C284.961 86.7269 288.103 87.0352 289.531 87.3605C290.161 87.5045 290.756 87.7627 291.368 87.9632C293.847 89.1472 295.944 91.0459 296.166 93.9045C296.321 95.9056 295.83 96.4826 295.097 98.3738C294.523 99.0735 294.029 99.8436 293.378 100.475C288.172 105.511 280.332 106.688 273.478 107.88C265.317 108.944 256.992 109.061 248.886 107.471C243.716 106.458 242.842 105.894 238.047 104.057C233.252 101.956 229.148 98.8591 225.353 95.3637" fill="#E5F6FF"/>
<path d="M241.299 95.1994C235.88 98.9445 229.768 101.499 223.633 103.872C215.707 106.731 207.468 108.704 199.126 109.973C193.382 110.845 190.603 111.024 184.817 111.571C174.729 112.232 164.495 112.501 154.469 110.943C153.082 110.729 151.716 110.41 150.338 110.143C147.998 109.529 141.803 107.805 142.519 104.209C142.613 103.737 142.914 103.328 143.113 102.887C144.37 101.752 146.501 100.173 148.382 100.766C148.628 100.844 148.82 101.033 149.039 101.166C149.14 101.416 149.339 101.646 149.34 101.914C149.344 104.449 145.261 106.248 143.405 107.157C137.067 109.706 130.185 109.689 123.456 109.482C117.608 108.88 111.435 108.362 106.009 105.921C105.305 105.606 104.654 105.186 103.976 104.819C103.529 104.445 103.01 104.142 102.635 103.7C100.868 101.614 102.596 99.7924 104.368 98.6543C104.798 98.361 107.058 97.6421 106.467 99.1269C106.333 99.4629 105.095 100.1 104.918 100.202C100.556 102.381 95.7596 103.056 90.9585 103.59C84.2663 103.963 77.4898 103.501 70.997 101.796C69.7085 101.458 68.4499 101.017 67.1752 100.629C60.3379 98.2522 54.0873 94.2629 49.3236 88.8656C48.3977 87.817 47.5988 86.6661 46.7369 85.5664C44.2708 81.8822 41.8708 77.8502 41.681 73.3211C41.5882 71.1035 41.9305 70.3324 42.4436 68.1969C43.4761 65.3809 44.8724 62.4935 47.6681 61.0311C48.1097 60.7612 49.9966 60.8785 49.3929 61.8599C49.2884 62.0305 49.0441 62.0625 48.8702 62.1649C46.0233 63.2039 43.7556 62.1799 41.3023 60.7452C38.7914 58.9426 36.881 56.4466 36.5663 53.3159C36.305 50.7144 36.8084 49.8354 37.4922 47.2786C38.0255 46.2354 38.4564 45.1368 39.0922 44.1512C42.4703 38.9139 47.9561 35.0398 53.5134 32.2878C55.2073 31.4494 56.9907 30.7987 58.7305 30.0542C68.0371 26.5417 77.9527 25.3481 87.862 26.3273C89.6753 26.5065 91.4705 26.8425 93.2742 27.1006C99.7115 28.3518 106.116 30.2632 111.714 33.6936C112.143 33.6542 113.263 35.251 112.094 35.1049C111.454 35.0259 111.089 32.5875 111.038 32.2686C111.118 31.7438 111.111 31.1987 111.277 30.6931C113.05 25.2702 119.349 22.8094 124.109 20.6441C134.256 16.8447 145.129 14.69 155.999 14.386C158.273 14.322 160.547 14.4393 162.822 14.4671C170.601 15.1092 178.623 16.29 185.528 20.1161C189.007 22.0447 189.506 22.8308 192.258 25.4388C194.291 27.9497 198.566 32.5683 196.431 36.1523C196.181 36.5704 195.723 36.8275 195.369 37.1656C193.816 37.9197 191.82 37.9816 190.982 36.1736C190.467 35.0611 190.773 34.4926 190.974 33.315C191.258 32.8531 191.478 32.3497 191.824 31.9305C194.623 28.5385 200.154 27.7886 204.226 27.1049C210.78 26.4798 217.424 27.2766 223.741 29.0675C224.93 29.4046 226.089 29.8377 227.264 30.2227C231.303 31.8046 235.516 33.8387 238.034 37.4792C238.322 37.8952 238.538 38.356 238.79 38.7944C239.031 39.5763 239.532 40.8883 238.561 41.4995C237.791 41.9848 236.746 41.2947 236.134 40.9288C235.953 40.7336 235.714 40.5768 235.587 40.3443C234.223 37.8408 240.942 36.3347 242.161 35.9752C250.086 33.9688 258.342 33.6136 266.481 34.211C268.61 34.3678 270.728 34.6483 272.852 34.867C283.491 36.3262 293.876 39.7288 302.799 45.6957C304.423 46.7816 305.92 48.0381 307.482 49.2093C312.425 53.6807 316.874 59.0684 317.743 65.8449C318.244 69.7435 317.623 70.807 316.723 74.5894C316.083 75.9046 315.564 77.2838 314.801 78.535C311.804 83.4501 307.052 86.9723 301.769 89.2528C300.569 89.7701 299.313 90.1488 298.085 90.5979C294.313 91.6773 289.399 93.0586 285.819 90.5818C285.485 90.3504 285.243 90.0101 284.955 89.7253C284.871 89.4298 284.665 89.1451 284.702 88.8411C284.961 86.7269 288.103 87.0352 289.531 87.3605C290.161 87.5045 290.756 87.7627 291.368 87.9632C293.847 89.1472 295.944 91.0459 296.166 93.9045C296.321 95.9056 295.83 96.4826 295.097 98.3738C294.523 99.0735 294.029 99.8436 293.378 100.475C288.172 105.511 280.332 106.688 273.478 107.88C265.317 108.944 256.992 109.061 248.886 107.471C243.716 106.458 242.842 105.894 238.047 104.057C233.252 101.956 229.148 98.8591 225.353 95.3637" stroke="black" stroke-opacity="0.826471" stroke-width="1.06666"/>
<path d="M64.4255 59.7862L64.2732 59.7481C64.5493 58.8437 65.149 58.2059 66.1391 58.2059C67.0245 58.2059 67.6242 58.7295 67.6242 59.5101C67.6242 59.9671 67.3767 60.4431 66.7389 60.8239C67.1577 61.0047 67.3291 61.119 67.529 61.3284C67.7956 61.6235 67.9479 62.0615 67.9479 62.5565C67.9479 63.0611 67.7861 63.5275 67.51 63.8893C67.053 64.4986 66.1486 64.7747 65.3013 64.7747C64.6064 64.7747 64.2351 64.5747 64.2351 64.232C64.2351 64.0321 64.4065 63.8893 64.6254 63.8893C64.7873 63.8893 64.9396 63.9464 65.2061 64.1368C65.5584 64.3843 65.7583 64.4319 66.0249 64.4319C66.7293 64.4319 67.2625 63.7846 67.2625 62.9754C67.2625 62.2519 66.9293 61.7854 66.2724 61.595C66.0629 61.5283 65.844 61.4998 65.3013 61.4998V61.3665C65.6631 61.2427 65.9106 61.138 66.101 61.0238C66.5675 60.7572 66.8721 60.3288 66.8721 59.7481C66.8721 59.1007 66.4723 58.7771 65.844 58.7771C65.2537 58.7771 64.8158 59.0817 64.4255 59.7862Z" fill="black"/>
<path d="M75.6021 49.0192L64.9016 84.186H64.1019L59.7037 69.887C59.4371 69.0112 59.1325 68.5923 58.5232 68.5923C58.1614 68.5923 57.6854 68.7446 57.2285 69.1064L57 68.7256L60.1226 66.3265H60.5986L64.9206 80.359H64.9968L74.5168 49.0192H75.6021Z" fill="black"/>
<path d="M102.201 50.1426H74.9929V49.0002H102.201V50.1426Z" fill="black"/>
<path d="M86.4739 62.8708L85.9599 64.175H82.2375V64.0608L83.9321 62.2615C84.827 61.319 85.1697 60.5955 85.1697 59.7863C85.1697 58.92 84.6556 58.444 83.8464 58.444C83.161 58.444 82.8278 58.7486 82.447 59.6816L82.2471 59.634C82.447 58.5202 83.0563 57.7395 84.2272 57.7395C85.303 57.7395 85.9884 58.4726 85.9884 59.415C85.9884 60.1671 85.6171 60.8811 84.7699 61.776L83.1991 63.4515H85.4267C85.8266 63.4515 86.0265 63.3468 86.3407 62.8137L86.4739 62.8708Z" fill="black"/>
<path d="M93.3285 54.9788L84.2274 78.436H83.6181L79.772 68.3448C79.4484 67.488 79.0676 67.2215 78.5916 67.2215C78.2679 67.2215 77.7728 67.4309 77.354 67.8117L77.1255 67.4309L80.0957 65.07H80.4575L84.3416 75.2754H84.4178L92.3004 54.9788H93.3285Z" fill="black"/>
<path d="M102.182 56.1021H92.6621V54.9597H102.182V56.1021Z" fill="black"/>
<path d="M101.687 70.0776L100.659 72.686H93.2141V72.4576L96.6032 68.859C98.393 66.974 99.0784 65.527 99.0784 63.9086C99.0784 62.176 98.0503 61.224 96.4319 61.224C95.061 61.224 94.3946 61.8332 93.633 63.6992L93.2332 63.604C93.633 61.3763 94.8516 59.815 97.1935 59.815C99.345 59.815 100.716 61.2811 100.716 63.166C100.716 64.6702 99.9733 66.0982 98.2788 67.888L95.1372 71.239H99.5925C100.392 71.239 100.792 71.0296 101.42 69.9633L101.687 70.0776Z" fill="black"/>
<path d="M117.795 72.267L116.919 73.1619L112.521 68.7827L108.122 73.1619L107.247 72.286L111.626 67.8878L107.247 63.4895L108.141 62.6137L112.521 66.9929L116.919 62.6137L117.795 63.4705L113.416 67.8878L117.795 72.267Z" fill="black"/>
<path d="M132.417 59.7862L132.265 59.7481C132.541 58.8437 133.141 58.2059 134.131 58.2059C135.016 58.2059 135.616 58.7295 135.616 59.5101C135.616 59.9671 135.369 60.4431 134.731 60.8239C135.15 61.0047 135.321 61.119 135.521 61.3284C135.788 61.6235 135.94 62.0615 135.94 62.5565C135.94 63.0611 135.778 63.5275 135.502 63.8893C135.045 64.4986 134.141 64.7747 133.293 64.7747C132.598 64.7747 132.227 64.5747 132.227 64.232C132.227 64.0321 132.398 63.8893 132.617 63.8893C132.779 63.8893 132.932 63.9464 133.198 64.1368C133.55 64.3843 133.75 64.4319 134.017 64.4319C134.721 64.4319 135.254 63.7846 135.254 62.9754C135.254 62.2519 134.921 61.7854 134.264 61.595C134.055 61.5283 133.836 61.4998 133.293 61.4998V61.3665C133.655 61.2427 133.903 61.138 134.093 61.0238C134.559 60.7572 134.864 60.3288 134.864 59.7481C134.864 59.1007 134.464 58.7771 133.836 58.7771C133.246 58.7771 132.808 59.0817 132.417 59.7862Z" fill="black"/>
<path d="M143.594 49.0192L132.894 84.186H132.094L127.696 69.887C127.429 69.0112 127.124 68.5923 126.515 68.5923C126.153 68.5923 125.677 68.7446 125.22 69.1064L124.992 68.7256L128.115 66.3265H128.591L132.913 80.359H132.989L142.509 49.0192H143.594Z" fill="black"/>
<path d="M170.193 50.1426H142.985V49.0002H170.193V50.1426Z" fill="black"/>
<path d="M154.466 62.8708L153.952 64.175H150.229V64.0608L151.924 62.2615C152.819 61.319 153.162 60.5955 153.162 59.7863C153.162 58.92 152.648 58.444 151.838 58.444C151.153 58.444 150.82 58.7486 150.439 59.6816L150.239 59.634C150.439 58.5202 151.048 57.7395 152.219 57.7395C153.295 57.7395 153.98 58.4726 153.98 59.415C153.98 60.1671 153.609 60.8811 152.762 61.776L151.191 63.4515H153.419C153.819 63.4515 154.018 63.3468 154.333 62.8137L154.466 62.8708Z" fill="black"/>
<path d="M161.32 54.9788L152.219 78.436H151.61L147.764 68.3448C147.44 67.488 147.06 67.2215 146.584 67.2215C146.26 67.2215 145.765 67.4309 145.346 67.8117L145.117 67.4309L148.088 65.07H148.449L152.334 75.2754H152.41L160.292 54.9788H161.32Z" fill="black"/>
<path d="M170.174 56.1021H160.654V54.9597H170.174V56.1021Z" fill="black"/>
<path d="M169.679 70.0776L168.651 72.686H161.206V72.4576L164.595 68.859C166.385 66.974 167.07 65.527 167.07 63.9086C167.07 62.176 166.042 61.224 164.424 61.224C163.053 61.224 162.387 61.8332 161.625 63.6992L161.225 63.604C161.625 61.3763 162.843 59.815 165.185 59.815C167.337 59.815 168.708 61.2811 168.708 63.166C168.708 64.6702 167.965 66.0982 166.271 67.888L163.129 71.239H167.584C168.384 71.239 168.784 71.0296 169.412 69.9633L169.679 70.0776Z" fill="black"/>
<path d="M185.805 72.267L184.93 73.1619L180.531 68.7827L176.133 73.1619L175.257 72.286L179.637 67.8878L175.257 63.4895L176.152 62.6137L180.531 66.9929L184.93 62.6137L185.805 63.4705L181.426 67.8878L185.805 72.267Z" fill="black"/>
<path d="M200.409 59.7862L200.257 59.7481C200.533 58.8437 201.133 58.2059 202.123 58.2059C203.008 58.2059 203.608 58.7295 203.608 59.5101C203.608 59.9671 203.36 60.4431 202.723 60.8239C203.141 61.0047 203.313 61.119 203.513 61.3284C203.779 61.6235 203.932 62.0615 203.932 62.5565C203.932 63.0611 203.77 63.5275 203.494 63.8893C203.037 64.4986 202.132 64.7747 201.285 64.7747C200.59 64.7747 200.219 64.5747 200.219 64.232C200.219 64.0321 200.39 63.8893 200.609 63.8893C200.771 63.8893 200.923 63.9464 201.19 64.1368C201.542 64.3843 201.742 64.4319 202.009 64.4319C202.713 64.4319 203.246 63.7846 203.246 62.9754C203.246 62.2519 202.913 61.7854 202.256 61.595C202.047 61.5283 201.828 61.4998 201.285 61.4998V61.3665C201.647 61.2427 201.894 61.138 202.085 61.0238C202.551 60.7572 202.856 60.3288 202.856 59.7481C202.856 59.1007 202.456 58.7771 201.828 58.7771C201.237 58.7771 200.799 59.0817 200.409 59.7862Z" fill="black"/>
<path d="M211.586 49.0192L200.885 84.186H200.086L195.687 69.887C195.421 69.0112 195.116 68.5923 194.507 68.5923C194.145 68.5923 193.669 68.7446 193.212 69.1064L192.984 68.7256L196.106 66.3265H196.582L200.904 80.359H200.98L210.5 49.0192H211.586Z" fill="black"/>
<path d="M238.185 50.1426H210.977V49.0002H238.185V50.1426Z" fill="black"/>
<path d="M222.458 62.8708L221.944 64.175H218.221V64.0608L219.916 62.2615C220.811 61.319 221.153 60.5955 221.153 59.7863C221.153 58.92 220.639 58.444 219.83 58.444C219.145 58.444 218.811 58.7486 218.431 59.6816L218.231 59.634C218.431 58.5202 219.04 57.7395 220.211 57.7395C221.287 57.7395 221.972 58.4726 221.972 59.415C221.972 60.1671 221.601 60.8811 220.754 61.776L219.183 63.4515H221.41C221.81 63.4515 222.01 63.3468 222.324 62.8137L222.458 62.8708Z" fill="black"/>
<path d="M229.312 54.9788L220.211 78.436H219.602L215.756 68.3448C215.432 67.488 215.051 67.2215 214.575 67.2215C214.252 67.2215 213.756 67.4309 213.338 67.8117L213.109 67.4309L216.079 65.07H216.441L220.325 75.2754H220.401L228.284 54.9788H229.312Z" fill="black"/>
<path d="M238.166 56.1021H228.646V54.9597H238.166V56.1021Z" fill="black"/>
<path d="M237.671 70.0776L236.642 72.686H229.198V72.4576L232.587 68.859C234.377 66.974 235.062 65.527 235.062 63.9086C235.062 62.176 234.034 61.224 232.416 61.224C231.045 61.224 230.378 61.8332 229.617 63.6992L229.217 63.604C229.617 61.3763 230.835 59.815 233.177 59.815C235.329 59.815 236.7 61.2811 236.7 63.166C236.7 64.6702 235.957 66.0982 234.262 67.888L231.121 71.239H235.576C236.376 71.239 236.776 71.0296 237.404 69.9633L237.671 70.0776Z" fill="black"/>
<path d="M258.786 66.5931H247.571V65.3365H258.786V66.5931ZM258.786 70.4011H247.571V69.1445H258.786V70.4011Z" fill="black"/>
<path d="M279.654 62.8708L279.14 64.175H275.417V64.0608L277.112 62.2615C278.007 61.319 278.35 60.5955 278.35 59.7863C278.35 58.92 277.836 58.444 277.026 58.444C276.341 58.444 276.008 58.7486 275.627 59.6816L275.427 59.634C275.627 58.5202 276.236 57.7395 277.407 57.7395C278.483 57.7395 279.168 58.4726 279.168 59.415C279.168 60.1671 278.797 60.8811 277.95 61.776L276.379 63.4515H278.607C279.007 63.4515 279.206 63.3468 279.521 62.8137L279.654 62.8708Z" fill="black"/>
<path d="M286.508 54.9788L277.407 78.436H276.798L272.952 68.3448C272.628 67.488 272.247 67.2215 271.771 67.2215C271.448 67.2215 270.953 67.4309 270.534 67.8117L270.305 67.4309L273.275 65.07H273.637L277.521 75.2754H277.597L285.48 54.9788H286.508Z" fill="black"/>
<path d="M295.362 56.1021H285.842V54.9597H295.362V56.1021Z" fill="black"/>
<path d="M294.867 70.0776L293.839 72.686H286.394V72.4576L289.783 68.859C291.573 66.974 292.258 65.527 292.258 63.9086C292.258 62.176 291.23 61.224 289.612 61.224C288.241 61.224 287.575 61.8332 286.813 63.6992L286.413 63.604C286.813 61.3763 288.031 59.815 290.373 59.815C292.525 59.815 293.896 61.2811 293.896 63.166C293.896 64.6702 293.153 66.0982 291.459 67.888L288.317 71.239H292.772C293.572 71.239 293.972 71.0296 294.6 69.9633L294.867 70.0776Z" fill="black"/>
</g>
<defs>
<clipPath id="clip0_503_96">
<rect width="443.07" height="125.995" fill="white"/>
</clipPath>
</defs>
</svg>
