<svg xmlns="http://www.w3.org/2000/svg" width="497.212" height="317.105" viewBox="0 0 466.137 297.286"><defs><clipPath id="a"><path d="M226.254 254.46H228V279h-1.746zm0 0"/></clipPath><clipPath id="b"><path d="M383 388h1.996v25.203H383zm0 0"/></clipPath><clipPath id="c"><path d="M383 254.46h1.996V279H383Zm0 0"/></clipPath><clipPath id="g"><path d="M226.254 254.46H228V279h-1.746zm0 0"/></clipPath><clipPath id="h"><path d="M383 388h1.996v25.203H383zm0 0"/></clipPath><clipPath id="i"><path d="M383 254.46h1.996V279H383Zm0 0"/></clipPath><clipPath id="d"><path d="M226.254 254.46H228V279h-1.746zm0 0"/></clipPath><clipPath id="e"><path d="M383 388h1.996v25.203H383zm0 0"/></clipPath><clipPath id="f"><path d="M383 254.46h1.996V279H383Zm0 0"/></clipPath><clipPath id="j"><path d="M226.254 254.46H228V279h-1.746zm0 0"/></clipPath><clipPath id="k"><path d="M383 388h1.996v25.203H383zm0 0"/></clipPath><clipPath id="l"><path d="M383 254.46h1.996V279H383Zm0 0"/></clipPath><clipPath id="p"><path d="M226.254 254.46H228V279h-1.746zm0 0"/></clipPath><clipPath id="q"><path d="M383 388h1.996v25.203H383zm0 0"/></clipPath><clipPath id="r"><path d="M383 254.46h1.996V279H383Zm0 0"/></clipPath><clipPath id="m"><path d="M226.254 254.46H228V279h-1.746zm0 0"/></clipPath><clipPath id="n"><path d="M383 388h1.996v25.203H383zm0 0"/></clipPath><clipPath id="o"><path d="M383 254.46h1.996V279H383Zm0 0"/></clipPath></defs><g style="display:inline"><path d="M39.465 116.056c-1.537-.54-4.647-2.41-5.104-2.708-5.549-3.63-10.832-7.82-15.028-13.04-1.24-1.542-2.303-3.224-3.454-4.836-.928-1.837-2.008-3.601-2.784-5.51-3.513-8.65-3.95-18.42-1.632-27.45.699-2.723 1.805-5.19 2.708-7.786 1.373-2.526 2.555-5.084 4.119-7.46C23.7 39.05 31.05 32.167 39.3 26.732c8.42-5.547 11.92-6.621 21.288-10.785 4.295-1.433 8.529-3.053 12.885-4.297 19.09-5.453 39.253-7.68 59.101-7.583 4.854.024 9.7.37 14.551.555 17.676 1.669 34.684 3.97 51.055 11.118 1.569.685-.014 1.546-.896 1.159-.514-.226-.121-1.035.477-1.393 1.4-.84 3.148-1.9 4.47-2.468 11.302-4.866 24-6.92 36.054-8.079 13.445-1.292 26.693-1.293 40.066.19 8.996 1 12.675 1.17 21.404 3.263 12.575 3.015 25.63 7.788 35.954 15.998 5.531 4.397 12.236 10.759 15.964 15.658 7.103 9.332 13.023 23.93 13.192 36.293.096 6.982-1.256 17.67-5.254 26.788-4.869 11.106-11.506 16.943-18.936 22.822-2.262 1.79-5.112 3.431-6.922 4.157-2.068.83-4.81.944-5.046.37-.153-.369 1.049-.993 1.573-.665 4.913 4.88 8.37 9.984 10.32 17.132 2.71 9.936-.65 21.115-5.956 29.27-6.169 9.483-16.774 18.833-29.136 24.537-9.983 4.607-17.73 7.364-28.543 8.73-6.026.761-7.717.99-13.568 1.122-4.293-.067-8.588-.357-12.707-1.427-1.172-.304-3.475-1.017-3.451-1.795-.052-.658 1.403-.309 2.125.03 1.563.727 2.861 2.086 3.262 3.755.155.645.194 1.368.097 2.042-.11.752-.32 1.48-.707 2.168-3.314 5.87-13.027 7.854-18.728 9.376-16.072 3.946-31.946 3.982-47.532 3.36-12.428-.995-24.902-2.86-35.47-8.014-1.442-.703-2.763-1.573-4.144-2.36-2.536-1.957-6.046-4.29-5.795-8.068.06-.894.517-1.616.938-2.436.223-.41.469-.453.656-.287.24.2.358.633.157.872-.188.223-.55.377-.823.454-2.33.662-4.622.991-7.008 1.344-7.77 1.149-16.614.96-24.858-.256-2.289-.338-4.562-.813-6.844-1.219-13.599-3.204-26.905-8.38-39.11-16.276-2.62-1.696-5.127-3.63-7.69-5.444-9.434-7.622-18.562-16.742-23.208-29.506-2.893-7.95-3.2-11.625-3.007-18.551.087-3.11.482-6.243 1.141-9.262 1.205-5.513 3.78-11.694 6.37-16.489.188-.348.383-.691.582-1.03" style="opacity:1;fill:#e5f6ff;fill-opacity:1;stroke:#000;stroke-width:.98437506;stroke-linecap:butt;stroke-linejoin:miter;stroke-miterlimit:4;stroke-dasharray:none;stroke-dashoffset:0;stroke-opacity:1" transform="translate(98.796 41.129)"/><path d="M95.346 361.52c-.078-.148-.037.228-.125.268-.285.13-.61.101-.914.162-2.593.516-5.156.893-7.773 1.225-9.088.855-18.196.247-27.081-1.27-2.467-.42-4.906-.97-7.36-1.454-14.56-3.625-28.62-9.318-41.275-17.285-2.718-1.71-5.291-3.64-7.937-5.46-9.659-7.584-18.861-16.562-22.88-28.756-2.503-7.596-1.843-9.599-1.76-17.555.667-2.882 1.036-5.84 2.002-8.645 1.764-5.122 5.076-10.808 8.291-15.193 1.464-1.996 3.184-3.787 4.776-5.681" style="opacity:1;fill:none;fill-opacity:1;stroke:#000;stroke-width:.71873009;stroke-linecap:butt;stroke-linejoin:miter;stroke-miterlimit:4;stroke-dasharray:none;stroke-dashoffset:0;stroke-opacity:1" transform="translate(98.796 41.129)"/><path d="M-578.722 417.293c-7.37-3.872-14.52-8.465-20.284-14.544-1.573-1.66-2.952-3.493-4.427-5.24-1.234-2.022-2.64-3.949-3.7-6.066-4.81-9.597-6.12-20.73-4.154-31.25.593-3.174 1.671-6.237 2.507-9.355 1.39-3.075 2.548-6.266 4.17-9.225 5.614-10.234 13.605-19.044 22.772-26.207 9.354-7.31 13.347-8.882 23.925-14.626 4.89-2.065 9.694-4.35 14.671-6.196 21.815-8.094 45.157-12.439 68.33-13.99 5.667-.38 11.354-.375 17.03-.562 20.771.501 42.053 2.03 61.729 9.277 2.022.745 3.963 1.696 5.944 2.544.922.637 7.374 3.109 5.262 5.923-1.332 1.774-6.169.969-7.872.784-2.452-.499-8.524-1.704-8.325-5.33.145-2.662 1.76-3.488 3.515-5.199 1.37-.844 2.683-1.792 4.113-2.532 12.23-6.333 26.96-9.416 40.4-11.525 14.993-2.353 30.185-2.946 45.371-2.095 10.215.572 12.555 1.19 22.616 2.76 14.395 2.948 28.16 8.352 40.09 17.177 6.391 4.727 10.547 9.221 14.692 14.94 6.947 9.583 13.77 25.05 14.681 41.24.523 9.278.749 14.045-.354 23.136-1.535 12.657-5.39 25.146-13.073 35.725-.928 1.277-2.07 2.386-3.104 3.58-1.452 1.319-7.475 6.842-9.879 4.45-.217-.215-.267-.551-.4-.827.125-.411.118-.889.375-1.234 1.888-2.53 7.932.193 9.93 1.034 6.123 3.308 10.99 8.4 14.16 14.599.743 1.45 1.296 2.99 1.944 4.486 3.095 9.02 4 18.659 1.961 28.032-.473 2.176-1.213 4.285-1.82 6.428-4.594 11.863-13.314 21.08-23.76 28.12-2.5 1.686-5.152 3.134-7.729 4.702-11.18 5.976-23.24 10.253-35.663 12.782-6.922 1.41-8.909 1.429-15.717 2.077-5.018.281-10.07.297-15.028-.626-1.411-.262-3.443-.498-4.282-1.84.364-.29.638-.765 1.09-.87.473-.11.965.136 1.425.287 1.826.597 3.58 1.889 4.514 3.604.361.662.493 1.426.74 2.139-.014.786.138 1.593-.043 2.359-1.547 6.538-10.858 9.67-16.211 11.885-15.2 5.882-31.425 7.626-47.56 8.646-13.024.287-26.369-.336-38.795-4.628-1.695-.585-3.318-1.359-4.978-2.038-3.209-1.79-7.53-3.868-8.46-7.874-.219-.947.023-1.757.19-2.675-.133-.177-.002.296-.11.36-.348.207-.78.218-1.166.34-3.294 1.036-6.576 1.89-9.939 2.695-11.737 2.416-23.795 2.968-35.744 2.33-3.318-.178-6.625-.523-9.938-.784-19.811-2.503-39.383-7.717-57.575-16.038-3.905-1.786-7.667-3.873-11.5-5.81-14.186-8.268-28.056-18.382-35.78-33.355-4.811-9.326-4.35-11.978-5.845-22.142.294-3.774.18-7.602.882-11.322 1.279-6.792 4.474-14.53 7.803-20.593 1.516-2.76 3.41-5.297 5.114-7.945" style="opacity:1;fill:#d5f6ff;fill-opacity:1;stroke:#000;stroke-width:.93750006;stroke-linecap:butt;stroke-linejoin:miter;stroke-miterlimit:4;stroke-dasharray:none;stroke-dashoffset:0;stroke-opacity:1" transform="translate(82.693 -206.113)"/><path d="M111.44-376.97c-1.711 2.78-3.696 5.429-5.046 7.867-3.029 5.538-6.406 13.551-7.6 19.76-.705 3.664-.622 7.437-.934 11.155 1.422 10.018.954 12.655 5.663 21.86 7.614 14.883 21.387 24.915 35.45 33.126 3.815 1.93 7.558 4.008 11.445 5.787 18.116 8.292 37.61 13.486 57.342 15.975 3.299.259 6.592.601 9.896.777 11.882.63 23.872.078 35.54-2.335 3.455-.831 4.495-1.026 7.705-1.982.692-.206 3.785-1.672 4.603-.717.17.198-.043.52-.065.78-1.227 4.567 4.618 7.372 7.73 9.122 1.633.673 3.23 1.44 4.898 2.018 12.335 4.279 25.591 4.886 38.522 4.603 16.05-1.017 32.189-2.753 47.303-8.619 4.402-1.83 14.01-5.343 15.512-10.692.19-.674.1-1.397.15-2.096-.65-2.198-1.104-3.328-3.145-4.607-.45-.282-.95-.478-1.45-.657-.362-.13-.799-.062-1.125-.268-.202-.128-.21-.43-.315-.644-.353.512-.294.303 1.074.745 1.764.571 4.435 1.003 6.166 1.162 4.535.415 6.403.21 11.161.088 6.762-.643 8.732-.66 15.608-2.061 12.343-2.514 24.325-6.767 35.429-12.716 2.553-1.557 5.183-2.996 7.66-4.67 10.298-6.96 18.892-16.064 23.383-27.787.558-1.912 1.243-3.792 1.673-5.736 2.041-9.232 1.221-18.718-1.802-27.625-.627-1.468-1.16-2.979-1.88-4.403-3.066-6.065-7.79-11.057-13.754-14.309-2.32-.986-5.454-2.62-8.091-1.767-.273.088-.487.304-.73.456l-.264.072c-.009.925.771 1.016 1.636.798 2.827-.712 5.093-2.815 7.168-4.71 1.004-1.165 2.112-2.248 3.011-3.495 7.456-10.334 10.045-23.92 11.88-36.222.794-9.068 1.406-12.364.87-21.583-.866-14.869-4.91-29.11-13.29-41.524-6.236-7.266-7.063-9.044-14.836-14.812-11.832-8.779-25.829-13.483-40.119-16.413-10.015-1.564-12.344-2.18-22.514-2.75-15.136-.85-30.25.595-45.22 2.758-13.304 2.284-27.981 4.5-40.105 10.805-1.377.716-2.638 1.636-3.957 2.453-.677.665-2.97 2.46-3.186 3.884-.5 3.3 5.487 4.381 7.568 4.821.996.11 1.986.3 2.987.331 1.958.059 6.553-.191 2.825-2.965-1.139-.847-2.447-1.438-3.671-2.157-1.958-.843-3.875-1.788-5.874-2.528-19.581-7.248-40.78-8.759-61.46-9.268-5.66.186-11.33.18-16.98.559-23.097 1.545-46.365 5.88-68.104 13.958-4.953 1.841-9.732 4.119-14.599 6.178-10.506 5.716-14.478 7.283-23.763 14.555-9.074 7.106-16.983 15.848-22.52 26-1.597 2.928-2.732 6.085-4.097 9.127-.792 2.88-1.817 5.707-2.374 8.642-1.97 10.362-.766 21.312 3.937 30.796 1.034 2.087 2.41 3.986 3.615 5.98 1.452 1.726 2.807 3.54 4.356 5.18 5.684 6.02 12.75 10.557 20.033 14.387" style="opacity:1;fill:#000;fill-opacity:1;stroke:#de8787;stroke-width:0;stroke-linecap:butt;stroke-linejoin:miter;stroke-miterlimit:4;stroke-dasharray:none;stroke-dashoffset:0;stroke-opacity:.82647059" transform="translate(82.693 -206.113)"/><path d="M-576.07 55.343c-7.37-3.872-14.521-8.466-20.284-14.545-1.574-1.659-2.952-3.493-4.428-5.24-1.233-2.021-2.639-3.948-3.7-6.066-4.809-9.596-6.12-20.73-4.154-31.25.593-3.173 1.672-6.236 2.507-9.354 1.39-3.075 2.548-6.266 4.171-9.225 5.614-10.235 13.605-19.044 22.772-26.207 9.354-7.31 13.346-8.882 23.925-14.626 4.89-2.065 9.694-4.35 14.67-6.197 21.815-8.093 45.158-12.438 68.331-13.99 5.667-.38 11.353-.374 17.03-.562 20.771.502 42.053 2.03 61.729 9.278 2.022.745 3.962 1.696 5.943 2.544.923.637 7.375 3.109 5.262 5.923-1.332 1.774-6.168.968-7.871.783-2.452-.498-8.524-1.703-8.326-5.33.146-2.662 1.76-3.488 3.515-5.198 1.371-.844 2.684-1.792 4.114-2.533 12.229-6.332 26.991-8.565 40.4-10.861 15.02-2.165 30.185-3.61 45.371-2.758 10.215.572 12.554 1.19 22.615 2.76 14.396 2.947 28.492 7.689 40.422 16.513 7.86 5.815 8.705 7.613 15.024 14.94 8.505 12.514 12.638 26.885 13.55 41.904.563 9.275-.047 12.605-.824 21.73-1.86 12.612-4.452 26.552-12.135 37.13-.928 1.278-2.07 2.387-3.104 3.58-1.452 1.32-7.476 6.843-9.88 4.451-.217-.216-.266-.551-.4-.827.126-.411.119-.89.376-1.234 1.888-2.53 7.932.192 9.93 1.034 6.123 3.308 10.99 8.4 14.16 14.598.742 1.451 1.296 2.991 1.944 4.486 3.095 9.021 4 18.66 1.96 28.032-.473 2.176-1.212 4.286-1.819 6.428-4.595 11.864-13.314 21.08-23.76 28.121-2.5 1.686-5.153 3.134-7.73 4.701-11.18 5.977-23.24 10.254-35.662 12.783-6.922 1.409-8.91 1.428-15.717 2.077-5.019.28-10.07.297-15.028-.626-1.412-.263-3.443-.498-4.282-1.84.363-.29.637-.765 1.09-.87.472-.11.965.136 1.425.287 1.826.597 3.58 1.888 4.514 3.603.36.663.493 1.426.74 2.14-.015.786.138 1.593-.043 2.358-1.547 6.539-10.859 9.67-16.211 11.886-15.201 5.881-31.426 7.626-47.561 8.645-13.024.288-26.368-.336-38.794-4.627-1.695-.585-3.319-1.36-4.978-2.039-3.209-1.789-7.53-3.868-8.46-7.873-.22-.948.023-1.758.19-2.676-.133-.176-.003.297-.11.36-.348.207-.78.219-1.166.34-3.294 1.037-6.576 1.892-9.94 2.696-11.736 2.415-23.794 2.967-35.744 2.329-3.318-.178-6.625-.522-9.937-.783-19.811-2.504-39.384-7.718-57.575-16.038-3.906-1.786-7.667-3.873-11.5-5.81-14.187-8.269-28.056-18.382-35.78-33.356-4.811-9.326-4.35-11.978-5.845-22.142.294-3.773.18-7.601.881-11.321 1.28-6.792 4.474-14.53 7.804-20.593 1.516-2.76 3.409-5.297 5.113-7.946" style="opacity:1;fill:#d5f6ff;fill-opacity:1;stroke:#000;stroke-width:.93750006;stroke-linecap:butt;stroke-linejoin:miter;stroke-miterlimit:4;stroke-dasharray:none;stroke-dashoffset:0;stroke-opacity:1" transform="translate(82.693 -206.113)"/><path d="M-57.174 66.513c.65-1.331 1.211-2.709 1.949-3.993 1.925-3.35 2.651-3.889 5.15-6.7 2.485-2.004 2.986-2.717 5.92-3.917 4.33-1.77 9.056-1.712 13.5-.47 1.093.45 2.23.806 3.28 1.35 4.182 2.165 7.738 5.834 9.493 10.23.465 1.164.708 2.406 1.063 3.61.363 3.46.69 4.517.148 8.054-.86 5.613-4.012 10.12-8.39 13.602-1.254.768-2.449 1.644-3.764 2.303-5.253 2.631-11.264 3.62-16.991 2.074-1.293-.348-2.508-.94-3.761-1.41-1.094-.67-2.245-1.255-3.282-2.01-3.6-2.62-6.567-6.412-7.943-10.676-.28-.864-.388-1.773-.582-2.66 0-.915-.083-1.833 0-2.744.308-3.415 2.129-6.431 4.263-9.013" style="opacity:1;fill:#e5f6ff;fill-opacity:1;stroke:#000;stroke-width:.98437506;stroke-linecap:butt;stroke-linejoin:miter;stroke-miterlimit:4;stroke-dasharray:none;stroke-dashoffset:0;stroke-opacity:.82647059" transform="translate(98.796 41.129)"/><path d="M545.383 139.423c4.939 4.482 13.213 2.911 17.422.847 10.41-5.106 11.182-17.992 5.687-26.005-4.129-6.02-12.345-8.621-19.623-6.802-8.652 2.162-15.541 9.067-16.322 17.661-.355 3.917 1.625 7.735 4.228 10.028 3.287 2.896 7.327 4.537 11.362 3.962" style="display:inline;fill:#e5f6ff;fill-opacity:1;stroke:#000;stroke-width:1.125;stroke-linejoin:round;stroke-miterlimit:2;stroke-dasharray:none;stroke-dashoffset:0" transform="translate(98.796 41.129)"/><path d="M-95.466-231.668c-6.078-3.627-11.93-7.845-16.519-13.233-1.252-1.47-2.33-3.077-3.494-4.615-.943-1.757-2.039-3.442-2.83-5.269-3.586-8.28-4.105-17.66-1.863-26.354.677-2.623 1.761-5.127 2.641-7.691 1.352-2.498 2.51-5.106 4.054-7.495 5.338-8.264 12.627-15.21 20.831-20.717 8.372-5.62 11.862-6.725 21.193-10.97 4.282-1.47 8.502-3.128 12.847-4.41 19.041-5.619 39.185-8.022 59.033-8.098 4.854-.018 9.704.286 14.555.428 17.69 1.515 35.76 3.915 52.152 11.013 6.25 2.447-7.563 3.708-2.765-.063 1.215-.634 3.96-2.44 5.22-2.985 10.77-4.651 23.501-6.453 35.078-7.508 12.914-1.177 25.904-.873 38.81.64 8.683 1.017 10.645 1.657 19.142 3.5 12.12 3.224 23.57 8.47 33.27 16.479 5.198 4.29 8.5 8.268 11.729 13.269 5.41 8.38 10.397 21.676 10.305 35.264-.053 7.787-.117 11.785-1.547 19.33-1.99 10.505-5.949 20.747-13.07 29.189-1.709 2.092-3.632 3.538-5.234 4.584-3.715 2.423-3.961-2.182-.961-.27.897.389 1.672 1.141 2.155 1.383 4.894 3.09 8.55 7.605 10.66 12.957.494 1.253.819 2.57 1.228 3.855 1.779 7.708 1.637 15.817-.983 23.55-.608 1.794-1.436 3.52-2.155 5.28-5.028 9.68-13.313 16.93-22.86 22.268-2.286 1.278-4.678 2.35-7.017 3.524-10.071 4.41-20.73 7.351-31.531 8.812-6.02.813-7.71.725-13.56.909-4.294-.03-8.59-.283-12.72-1.316-1.174-.295-2.88-.599-3.466-1.765.337-.224.614-.607 1.01-.67.411-.068.806.164 1.184.314 1.496.596 2.865 1.769 3.497 3.253.244.573.285 1.218.427 1.828-.087.657-.033 1.34-.26 1.97-1.933 5.388-10.147 7.516-14.907 9.087-13.48 4.118-27.441 4.722-41.257 4.724-11.1-.446-22.388-1.672-32.548-5.916-1.385-.58-2.693-1.312-4.039-1.968-2.56-1.665-6.037-3.632-6.449-7.032-.097-.803.185-1.468.414-2.227-.096-.155-.03.248-.127.296-.316.154-.684.14-1.023.222-2.9.693-5.771 1.235-8.706 1.73-10.208 1.402-20.513 1.228-30.613.063-2.804-.323-5.583-.786-8.375-1.179-16.608-3.138-32.757-8.53-47.437-16.45-3.152-1.7-6.153-3.643-9.23-5.465-11.28-7.664-22.116-16.854-27.268-29.786-3.21-8.054-2.566-10.248-2.876-18.828.606-3.14.872-6.348 1.82-9.423 1.73-5.613 5.177-11.918 8.582-16.813 1.55-2.229 3.399-4.25 5.099-6.376" style="opacity:1;fill:#d5f6ff;fill-opacity:1;stroke:#000;stroke-width:.79337001;stroke-linecap:butt;stroke-linejoin:miter;stroke-miterlimit:4;stroke-dasharray:none;stroke-dashoffset:0;stroke-opacity:1" transform="translate(98.796 41.129)"/></g></svg>