<svg xmlns="http://www.w3.org/2000/svg" width="362.474" height="177.616" viewBox="0 0 95.905 46.994"><path d="M109.262-39.012s-1.336-.164-1.571-.21c-4.469-.882-8.704-2.28-11.817-5.46-1.292-1.31-2.295-3.612-1.895-5.406.463-3.604 3.858-6.73 7.495-8.11 2.978-1.282 6.667-1.42 9.515.037-.491.9-2.887-.366-3.17-1.49-.354-1.637 1.407-2.687 2.672-3.286 3.415-1.412 7.42-1.467 10.86-.124 1.575.535 3.302 2.67 2.041 4.047-.244.238-.813.39-1.176.362-1.398-.104-1.686-1.083-.374-1.19.664-.026 1.167.048 1.818.179 2.107.32 4.534 1.84 6.418 3.382 1.985 1.878 3.915 4.608 3.902 7.499.047 2.416-1.751 4.273-3.473 5.72-2.847 2.106-6.426 2.93-9.872 3.43-4.274.415-8.72.488-12.848-.848" style="opacity:1;fill:#d3f5ff;fill-opacity:.29803922;fill-rule:nonzero;stroke:#000;stroke-width:.25;stroke-linecap:round;stroke-linejoin:round;stroke-miterlimit:4;stroke-dasharray:none;stroke-dashoffset:0;stroke-opacity:1"/><path d="M37.403-41.39s-1.336-.163-1.57-.21c-4.47-.881-8.704-2.28-11.818-5.46-1.291-1.31-2.294-3.612-1.894-5.406.463-3.604 3.858-6.73 7.494-8.11 2.979-1.281 6.667-1.42 9.515.038-.49.9-2.886-.367-3.17-1.492-.353-1.635 1.408-2.686 2.673-3.284 3.414-1.413 7.42-1.468 10.86-.125 1.574.536 3.302 2.671 2.041 4.048-.244.238-.813.389-1.176.362-1.399-.104-1.687-1.084-.374-1.191.664-.026 1.167.049 1.818.179 2.107.32 4.533 1.84 6.417 3.383 1.985 1.877 3.915 4.608 3.902 7.498.048 2.416-1.75 4.273-3.473 5.72-2.846 2.106-6.425 2.931-9.872 3.431-4.273.415-8.719.487-12.848-.848" style="opacity:1;fill:#d5f6ff;fill-opacity:1;fill-rule:nonzero;stroke:#000;stroke-width:.30000001;stroke-linecap:round;stroke-linejoin:round;stroke-miterlimit:4;stroke-dasharray:none;stroke-dashoffset:0;stroke-opacity:1"/><path d="M-34.273 17.68c-3.59-.888-7.248-2.32-9.749-5.523-1.037-1.321-1.843-3.64-1.521-5.447.371-3.632 3.098-6.78 6.02-8.17 2.392-1.293 5.354-1.432 7.64.056-.395.96-2.318-.362-2.546-1.535-.284-1.707 1.13-2.803 2.146-3.427 2.742-1.474 5.958-1.532 8.72-.13 1.264.558 2.651 2.786 1.639 4.222-.196.249-.653.406-.945.378-1.122-.109-1.354-1.13-.3-1.242.533-.027.937.05 1.46.187 1.692.333 3.64 1.92 5.153 3.529 1.594 1.959 3.144 4.807 3.133 7.822.038 2.52-1.406 4.458-2.788 5.968-2.286 2.197-5.16 3.058-7.927 3.58-3.431.432-7.001.507-10.316-.886" style="opacity:1;fill:#d5f6ff;fill-opacity:1;fill-rule:nonzero;stroke:#000;stroke-width:.269876;stroke-linecap:round;stroke-linejoin:round;stroke-miterlimit:4;stroke-dasharray:none;stroke-dashoffset:0;stroke-opacity:1"/><path d="M-31.061 47.335c-3.59-.889-7.248-2.32-9.75-5.524-1.036-1.321-1.776-3.508-1.523-5.445.348-3.145 2.563-6.185 5.324-7.542 2.26-1.26 5.424-1.827 7.608-.32-.399 1.058-2.453-.328-2.696-1.558-.304-1.79 1.207-2.94 2.292-3.595 2.927-1.546 6.362-1.606 9.312-.136 2.176 1.147 2.633 2.857 1.816 4.132-.23.281-.687.439-.979.41-1.123-.108-1.354-1.13-.3-1.241.533-.027.937.05 1.46.186 1.692.334 3.64 1.92 5.153 3.53 1.593 1.958 3.143 4.807 3.133 7.822.038 2.52-1.406 4.458-2.789 5.968-2.286 2.197-5.16 3.057-7.927 3.58-3.43.431-7 .507-10.316-.886" style="opacity:1;fill:#d5f6ff;fill-opacity:1;fill-rule:nonzero;stroke:#000;stroke-width:.27000001;stroke-linecap:round;stroke-linejoin:round;stroke-miterlimit:4;stroke-dasharray:none;stroke-dashoffset:0;stroke-opacity:1"/><path d="M-2.617-9.323c.256-.178.494-.384.767-.533 1.549-.844 3.426-1.092 5.157-.837.455.067.895.21 1.343.314.972.446 1.344.493 2.072 1.293.816.897 1.095 1.971.736 3.143-.118.383-.356.72-.533 1.079-.3.33-.56.7-.898.989-1.571 1.348-3.983 2.11-6.03 2.147-.54.01-1.08-.08-1.62-.12-1.204-.346-1.705-.36-2.706-1.137A4.576 4.576 0 0 1-6.1-6.316c-.025-.425.064-.85.097-1.275.35-.993.355-1.298 1.052-2.118.766-.9 1.838-1.467 2.973-1.742.342-.082.696-.101 1.044-.152.309.006.619-.011.926.02.967.094 1.842.505 2.49 1.23" style="opacity:1;fill:#d5f6ff;fill-opacity:1;fill-rule:nonzero;stroke:#000;stroke-width:.29104167;stroke-linecap:round;stroke-linejoin:round;stroke-miterlimit:4;stroke-dasharray:none;stroke-dashoffset:0;stroke-opacity:1"/><path d="M-8.755-27.579c-.322.09-.596.152-.898.316a5.291 5.291 0 0 0-1.966 1.829c-.2.314-.342.66-.514.991-.115.36-.274.708-.347 1.08a5.71 5.71 0 0 0-.084 1.124c.002.375.016.754.096 1.12.14.643.51 1.44.972 1.924.267.278.612.469.918.703.369.16.718.378 1.107.482 1.965.526 4.117-.195 5.816-1.172.465-.268.888-.602 1.332-.903.405-.378.84-.728 1.216-1.135 1.053-1.139 1.949-2.553 2.287-4.086.255-1.158.108-1.477-.055-2.604-.162-.342-.273-.713-.485-1.026-.67-.99-1.766-1.453-2.92-1.575-1.118-.118-1.538.033-2.63.223-.443.176-.91.298-1.327.529-.971.537-1.804 1.287-2.495 2.15-.307.382-.538.82-.807 1.23l-.07-.106v0c.274-.413.509-.853.82-1.238.703-.869 1.545-1.62 2.529-2.161.422-.232.895-.354 1.343-.531 1.105-.19 1.532-.343 2.662-.221 1.18.126 2.298.601 2.986 1.61.218.32.334.697.5 1.046.188 1.245.327 1.454.035 2.767-.344 1.54-1.26 2.967-2.321 4.108-.38.409-.819.76-1.228 1.14-.448.302-.874.638-1.343.906-1.724.986-3.897 1.704-5.886 1.17-.395-.106-.75-.326-1.126-.49-.313-.239-.666-.433-.94-.718-1.082-1.126-1.281-2.894-.99-4.36.075-.374.239-.725.358-1.088.175-.333.322-.683.526-1a5.393 5.393 0 0 1 2.006-1.846c.314-.167.588-.227.92-.319l.003.131z" style="opacity:1;fill:#d5f6ff;fill-opacity:1;fill-rule:nonzero;stroke:#000;stroke-width:.25;stroke-linecap:round;stroke-linejoin:round;stroke-miterlimit:4;stroke-dasharray:none;stroke-dashoffset:0;stroke-opacity:1"/><path d="M19.797 14.243c.312-.114.615-.26.937-.344.734-.193 1.626-.3 2.376-.117a4.062 4.062 0 0 1 2.237 1.462c.287.377.613 1.15.734 1.607.282 1.066.177 1.859-.158 2.79-.57 1.58-1.871 2.618-3.53 2.97-.544.115-1.111.058-1.667.088-.556-.123-1.136-.166-1.668-.369-1.137-.433-1.833-1.01-2.485-2.024-.258-.4-.475-.84-.586-1.303-.205-.86.04-1.557.22-2.375.17-.324.305-.668.509-.972.2-.3.444-.569.695-.827.84-.866 1.714-1.323 2.855-1.654" style="opacity:1;fill:#e5f6ff;fill-opacity:1;fill-rule:nonzero;stroke:#000;stroke-width:.29104167;stroke-linecap:round;stroke-linejoin:round;stroke-miterlimit:4;stroke-dasharray:none;stroke-dashoffset:0;stroke-opacity:1"/><path d="M57.415 85.87c-3.486-.89-7.038-2.322-9.467-5.526-1.007-1.32-1.725-3.508-1.484-5.441.312-2.958 2.318-5.82 4.82-7.099 1.574-.912 3.717-1.355 5.405-.97.399.092.746.24.894.48-.236.706-.855.317-1.18.105-.53-.345-.902-.979-1.006-1.523-.316-1.943 1.26-3.19 2.392-3.901a10.44 10.44 0 0 1 4.804-1.303 11.297 11.297 0 0 1 5.007 1.057c2.314 1.146 2.842 3.059 1.836 4.11a.53.53 0 0 1-.482.153c-.175-.142.115-.11.458-.128.184-.004.334.052.587.111 1.595.321 3.42 1.537 4.785 3.138 1.565 1.836 3.01 4.557 2.879 7.723-.1 2.425-1.28 4.336-2.634 5.746-2.125 2.214-4.873 3.112-7.64 3.534-3.451.526-6.93.507-10.15-.886M-24.78 78.023c-3.486-.888-7.038-2.32-9.467-5.525-1.007-1.32-1.725-3.508-1.484-5.441.312-2.958 2.318-5.82 4.819-7.098 2.049-1.188 4.914-1.72 6.91-.26-.398 1.192-2.542-.313-2.796-1.649-.316-1.943 1.26-3.19 2.392-3.901a10.44 10.44 0 0 1 4.804-1.303 11.297 11.297 0 0 1 5.007 1.058c2.314 1.145 2.867 3.082 1.836 4.11-.22.3-.663.458-.946.43-1.09-.11-1.315-1.131-.292-1.243.518-.027.91.05 1.418.187 1.643.333 3.601 1.722 5.07 3.331 1.548 1.96 3.25 4.742 2.976 8.022.037 2.521-1.365 4.459-2.708 5.969-2.22 2.197-5.01 3.058-7.697 3.58-3.332.432-6.799.508-10.018-.886M10.713 86.617c-3.485-.89-7.038-2.322-9.467-5.526-1.007-1.32-1.725-3.507-1.484-5.44.312-2.958 2.318-5.821 4.82-7.1 1.574-.912 3.717-1.355 5.405-.97.399.092.746.241.894.48-.236.706-.854.317-1.18.105-.53-.344-.902-.978-1.005-1.522-.317-1.943 1.26-3.191 2.391-3.902a10.44 10.44 0 0 1 4.804-1.303 11.297 11.297 0 0 1 5.007 1.058c2.314 1.145 2.868 3.082 1.836 4.11-.22.3-.663.458-.946.43-1.09-.11-1.315-1.13-.291-1.243.517-.027.91.05 1.417.187 1.643.334 3.601 1.723 5.07 3.331 1.548 1.96 3.251 4.743 2.977 8.022.037 2.521-1.366 4.459-2.708 5.969-2.22 2.198-5.01 3.058-7.698 3.58-3.332.432-6.799.508-10.018-.885" style="opacity:1;fill:#d5f6ff;fill-opacity:1;fill-rule:nonzero;stroke:#000;stroke-width:.29104167;stroke-linecap:round;stroke-linejoin:round;stroke-miterlimit:4;stroke-dasharray:none;stroke-dashoffset:0;stroke-opacity:1"/><path d="M43.631 27.577c-3.486-.889-7.038-2.321-9.467-5.525-1.007-1.32-1.725-3.508-1.484-5.441.312-2.958 2.318-5.82 4.82-7.099 1.574-.912 3.717-1.356 5.405-.97.399.092.746.24.894.48-.236.706-.855.317-1.18.105-.53-.345-.902-.979-1.005-1.523-.317-1.943 1.26-3.19 2.391-3.901a10.44 10.44 0 0 1 4.804-1.304 11.297 11.297 0 0 1 5.007 1.058c2.314 1.146 2.843 3.059 1.836 4.11-.164.172-.417.163-.619.014-.282-.21-.055-.667.298-.694.19-.015.241-.007.501.055 1.643.333 3.601 1.722 5.07 3.33 1.548 1.96 3.251 4.743 2.977 8.023.037 2.52-1.366 4.459-2.708 5.969-2.22 2.197-5.01 3.058-7.698 3.58-3.332.432-6.799.507-10.018-.886" style="opacity:1;fill:#e5f6ff;fill-opacity:1;fill-rule:nonzero;stroke:#000;stroke-width:.29104167;stroke-linecap:round;stroke-linejoin:round;stroke-miterlimit:4;stroke-dasharray:none;stroke-dashoffset:0;stroke-opacity:1"/><path d="M32.64-13.003c1.394 1.265 3.729.822 4.917.24 2.938-1.442 3.156-5.078 1.605-7.34-1.165-1.699-3.484-2.433-5.538-1.92-2.442.61-4.386 2.56-4.607 4.985-.1 1.105.459 2.183 1.194 2.83.927.817 2.067 1.28 3.206 1.118" style="display:inline;fill:#e5f6ff;fill-opacity:1;stroke:#000;stroke-width:.3175;stroke-linejoin:round;stroke-miterlimit:2;stroke-dasharray:none;stroke-dashoffset:0"/></svg>