<svg xmlns="http://www.w3.org/2000/svg" width="362.474" height="177.616" viewBox="0 0 95.905 46.994"><path d="M42.676 5.237c.615.045 1.434.16 1.825.209.739.178 1.494.298 2.216.535 2.963.973 5.667 2.876 7.559 5.362.477.628.852 1.327 1.278 1.991.597 1.526 1.16 2.559 1.19 4.24.012.687-.132 1.373-.301 2.039-.377 1.49-.925 2.589-1.89 3.785-.471.584-1.049 1.073-1.573 1.61-1.666 1.183-2.106 1.638-4.024 2.423-2.25.92-4.736 1.31-7.16 1.163-.79-.048-1.57-.219-2.354-.328-1.771-.565-2.618-.674-4.136-1.781-1.824-1.331-3.009-3.288-3.466-5.49-.157-.76-.15-1.545-.224-2.317.091-.793.093-1.602.273-2.38.157-.68.439-1.328.73-1.962 1.162-2.533 3.043-4.601 5.276-6.23.504-.312.992-.65 1.512-.936 1.393-.765 3-1.355 4.613-1.312.179.005.356.043.534.065" style="opacity:1;fill:#e5f6ff;fill-opacity:1;fill-rule:nonzero;stroke:#000;stroke-width:.29104164;stroke-linecap:round;stroke-linejoin:round;stroke-miterlimit:4;stroke-dasharray:none;stroke-dashoffset:0;stroke-opacity:1"/><path d="M58.517-23.622c1.944-.17.916-.137 3.085-.06.641.1 1.292.148 1.923.298 2.59.615 5.024 2.037 6.809 4.013.45.498.819 1.065 1.228 1.598.616 1.252 1.169 2.088 1.313 3.512.058.582-.016 1.175-.112 1.752-.216 1.29-.603 2.262-1.34 3.345-.359.53-.816.985-1.224 1.477-1.333 1.123-1.675 1.54-3.25 2.342A14.039 14.039 0 0 1 60.94-3.85c-.676.015-1.35-.074-2.026-.111-1.547-.354-2.275-.386-3.645-1.218-1.645-1-2.791-2.576-3.336-4.412-.188-.633-.237-1.3-.355-1.95.021-.679-.034-1.365.064-2.037.085-.589.279-1.158.482-1.717.809-2.232 2.263-4.12 4.047-5.66.406-.3.798-.623 1.219-.902 1.13-.748 2.457-1.362 3.83-1.44.154-.009.307.01.46.017" style="opacity:1;fill:#d5f6ff;fill-opacity:1;fill-rule:nonzero;stroke:#000;stroke-width:.29104167;stroke-linecap:round;stroke-linejoin:round;stroke-miterlimit:4;stroke-dasharray:none;stroke-dashoffset:0;stroke-opacity:1"/><path d="M28.37-18.24c-.564.654-.948 1.453-1.22 2.267-.098.292-.171.592-.256.888-.06.33-.14.659-.182.992-.182 1.456-.016 2.97.64 4.296.173.349.406.664.609.996.269.296.51.62.807.889.954.864 2.163 1.422 3.418 1.68 1.226.25 1.606.16 2.858.116.5-.092 1.007-.148 1.499-.276a11.862 11.862 0 0 0 5.486-3.232c.358-.373.658-.798.988-1.198.247-.428.535-.835.742-1.284.578-1.249.79-2.627.474-3.979-.274-1.174-.569-1.45-1.205-2.455-.337-.356-.645-.742-1.012-1.067-1.551-1.376-3.737-2.345-5.77-2.709-.532-.095-1.075-.113-1.613-.17-.524.035-1.053.019-1.572.104a7.338 7.338 0 0 0-2.788 1.057c-.672.426-1.452 1.154-1.961 1.774-.237.289-.426.614-.639.921l-.033-.053v0c.214-.308.405-.634.644-.924.513-.623 1.297-1.35 1.974-1.778a7.394 7.394 0 0 1 2.804-1.059c.521-.084 1.053-.068 1.58-.103.539.057 1.084.076 1.618.171 2.04.367 4.233 1.338 5.79 2.718.37.327.679.714 1.018 1.07.642 1.012.939 1.29 1.217 2.47.325 1.378.102 2.791-.49 4.063-.21.45-.499.858-.748 1.287-.331.4-.633.826-.994 1.2a11.917 11.917 0 0 1-5.507 3.237c-.493.129-1.003.185-1.505.277-1.257.044-1.639.134-2.87-.119-1.263-.258-2.478-.819-3.439-1.688-.298-.27-.542-.595-.813-.893-.555-.906-.726-1.052-1.032-2.075-.423-1.408-.358-2.883-.038-4.301.086-.297.16-.598.258-.89.276-.82.664-1.624 1.235-2.28l.028.06zM24.557-42.155c-.82 1.034-1.146 2.221-1.288 3.384-.063.511-.136 1.026-.088 1.539.064.69.282 1.37.424 2.056.292.714.512 1.444.876 2.142.666 1.274 1.618 2.628 2.907 3.676 1.03.837 2.27 1.508 3.86 1.758.68.106 1.395.03 2.092.045.696-.167 1.442-.257 2.09-.5 3.397-1.275 5.275-4.075 6.269-6.501.287-.702.453-1.425.68-2.137.108-.612.266-1.22.324-1.836.209-2.2-.337-4.489-1.706-6.493-.331-.485-.767-.933-1.15-1.4-.477-.386-.897-.808-1.43-1.158-1.485-.976-3.373-1.567-5.453-1.559-1.785.007-2.27.266-3.9.715-.591.283-1.23.524-1.772.85a9.252 9.252 0 0 0-3.795 4.32c-.612 1.418-.637 2.182-.854 3.617l-.024 1.384-.132-.047v0l.03-1.39c.222-1.439.25-2.207.868-3.63.714-1.643 1.933-3.204 3.839-4.345.548-.328 1.194-.57 1.791-.855 1.652-.454 2.142-.714 3.95-.721 2.103-.008 4.016.586 5.522 1.572.537.351.962.776 1.444 1.164.387.469.827.919 1.162 1.406 1.393 2.028 1.954 4.395 1.735 6.623-.06.616-.22 1.226-.33 1.84-.23.714-.397 1.439-.687 2.142-1.008 2.446-2.908 5.257-6.338 6.536-.659.245-1.417.336-2.125.504-.709-.015-1.436.062-2.127-.047-1.61-.251-2.865-.927-3.91-1.772-1.285-1.04-2.273-2.423-2.93-3.69-.38-.733-.608-1.5-.912-2.25-.14-.689-.356-1.373-.419-2.067-.046-.515.028-1.032.092-1.546.147-1.172.48-2.368 1.313-3.408l.102.08zM8.584-18.843c-1.37.678-2.413 1.86-3.174 3.166-.23.396-.416.816-.625 1.224-.157.468-.357.925-.473 1.405-.354 1.458-.324 3.093.554 4.382.727 1.066 1.338 1.214 2.43 1.785.557.087 1.108.281 1.67.26 2.37-.087 4.91-1.502 6.638-3.03a16.77 16.77 0 0 0 2.094-2.247c.615-.787 1.084-1.678 1.626-2.517.333-.86.739-1.693.998-2.577.533-1.818.734-3.796-.448-5.418a3.518 3.518 0 0 0-1.008-.924c-.395-.24-.867-.318-1.301-.478-.511-.028-1.022-.109-1.534-.086-2.12.095-3.907.942-5.488 2.347-1.404 1.247-1.768 2.003-2.76 3.515l-.07-.106v0c1.003-1.517 1.372-2.277 2.788-3.527 1.597-1.412 3.406-2.265 5.543-2.357.52-.022 1.039.06 1.558.091.444.164.927.245 1.33.49.4.243.756.569 1.032.945 1.226 1.67.996 3.73.44 5.601-.264.887-.674 1.724-1.012 2.586-.546.842-1.019 1.735-1.638 2.524a16.884 16.884 0 0 1-2.109 2.256c-1.747 1.54-4.307 2.955-6.699 3.039-.572.02-1.13-.178-1.696-.267-1.115-.583-1.732-.732-2.477-1.817-.942-1.373-.926-3.018-.549-4.564.119-.484.322-.942.483-1.413.211-.41.4-.833.633-1.23.774-1.319 1.838-2.522 3.235-3.19l.01.132zM73.359-27.427c-.272.141-.553.265-.814.424-2.345 1.43-4.487 3.23-6.003 5.549-.531.811-.925 1.704-1.387 2.557-.213.958-.593 1.894-.64 2.875-.077 1.658.533 3.829 1.427 5.232.457.719 1.061 1.347 1.708 1.902 1.67 1.434 2.344 1.395 4.412 2.014.948-.007 1.907.12 2.844-.02 2.5-.378 4.098-1.245 6.158-2.704.9-.637 1.764-1.339 2.527-2.134 1.694-1.765 1.983-2.673 3.038-4.743.324-1.992.732-2.737-.119-4.711-1.152-2.673-3.896-4.273-6.638-4.83-1.114-.228-2.269-.17-3.403-.254-3.92.314-2.067-.038-5.576.972l-.015-.123v0c3.53-1.01 1.667-.659 5.604-.97 1.142.085 2.303.028 3.424.256 2.77.565 5.535 2.18 6.706 4.876.888 2.043.445 2.8.093 4.883-1.068 2.078-1.36 2.985-3.067 4.757-.768.796-1.635 1.5-2.54 2.138-2.075 1.463-3.683 2.333-6.2 2.71-.944.141-1.91.012-2.867.018-2.088-.626-2.766-.586-4.452-2.032-.654-.56-1.264-1.195-1.728-1.92-.96-1.503-1.515-3.631-1.425-5.402.05-.986.437-1.926.656-2.89.466-.855.863-1.75 1.398-2.565 1.526-2.325 3.677-4.132 6.032-5.567.264-.16.547-.286.82-.428l.027.13zM-23.817-22.154c-.702 1.293-.981 2.778-1.103 4.233-.054.64-.117 1.285-.076 1.926.056.865.242 1.716.363 2.573.25.893.438 1.806.75 2.68.57 1.594 1.385 3.29 2.488 4.6.882 1.047 1.942 1.888 3.304 2.2.581.133 1.193.037 1.79.056.595-.209 1.234-.322 1.788-.626C-11.606-6.107-10-9.61-9.148-12.647c.246-.878.388-1.782.582-2.674.092-.765.228-1.527.278-2.297.178-2.752-.289-5.617-1.46-8.125-.284-.607-.657-1.167-.985-1.751-.408-.483-.768-1.011-1.223-1.45-1.271-1.221-2.887-1.96-4.667-1.95-1.528.009-1.943.332-3.338.894-.506.355-1.053.656-1.516 1.063-1.616 1.42-2.646 3.364-3.248 5.406-.524 1.776-.545 2.73-.73 4.526l-.021 1.732-.113-.059v0l.025-1.738c.19-1.801.214-2.762.743-4.543.611-2.055 1.654-4.01 3.286-5.437.469-.41 1.022-.713 1.533-1.07 1.413-.567 1.832-.893 3.379-.902 1.8-.01 3.437.733 4.726 1.967.46.44.824.971 1.236 1.457.331.586.708 1.15.994 1.759 1.193 2.538 1.673 5.5 1.486 8.287-.052.772-.19 1.535-.284 2.303-.196.893-.339 1.8-.587 2.68-.863 3.06-2.489 6.579-5.424 8.179-.564.307-1.212.42-1.818.63-.607-.019-1.23.078-1.821-.058-1.378-.315-2.452-1.16-3.346-2.218-1.1-1.301-1.945-3.031-2.507-4.617-.326-.918-.52-1.877-.78-2.815-.12-.863-.305-1.718-.36-2.587-.039-.644.024-1.291.08-1.934.125-1.467.41-2.963 1.123-4.265l.088.1z" style="display:inline;opacity:1;fill:#000;fill-opacity:1;fill-rule:nonzero;stroke:#000;stroke-width:.29104167;stroke-linecap:round;stroke-linejoin:round;stroke-miterlimit:4;stroke-dasharray:none;stroke-dashoffset:0;stroke-opacity:1" transform="translate(5.991 4.324)"/><path d="M70.318-47.17c2.214-.009 1.049-.068 3.493.224.715.172 1.446.288 2.145.517 2.869.94 5.486 2.777 7.317 5.178.462.606.826 1.282 1.238 1.923.578 1.473 1.124 2.47 1.152 4.094.012.663-.128 1.326-.291 1.97-.366 1.438-.896 2.5-1.83 3.655-.456.564-1.015 1.036-1.523 1.554-1.613 1.143-2.039 1.582-3.896 2.34a15.921 15.921 0 0 1-6.93 1.124c-.766-.047-1.52-.212-2.28-.317-1.715-.546-2.534-.65-4.004-1.72-1.766-1.286-2.913-3.175-3.355-5.302-.152-.734-.145-1.492-.217-2.238.088-.766.09-1.546.264-2.297.152-.657.425-1.283.706-1.895 1.126-2.447 2.947-4.444 5.109-6.017.488-.302.96-.628 1.463-.904 1.349-.74 2.905-1.308 4.466-1.267.173.004.345.041.517.062" style="opacity:1;fill:#d5f6ff;fill-opacity:1;fill-rule:nonzero;stroke:#000;stroke-width:.29104167;stroke-linecap:round;stroke-linejoin:round;stroke-miterlimit:4;stroke-dasharray:none;stroke-dashoffset:0;stroke-opacity:1"/><g style="stroke-width:1.14741421;fill:#e5f6ff;fill-opacity:1"><path d="M41.49 22.835c1.548-.844 3.425-1.092 5.156-.837.455.067.895.21 1.343.315.972.445 1.344.492 2.072 1.292.816.897 1.095 1.972.736 3.143-.118.383-.355.72-.533 1.08-.299.329-.56.698-.897.988-1.572 1.348-3.983 2.11-6.03 2.148-.542.01-1.08-.08-1.62-.121-1.205-.346-1.706-.36-2.707-1.136a4.576 4.576 0 0 1-1.77-3.332c-.025-.425.065-.85.097-1.274.35-.994.355-1.3 1.053-2.12.765-.899 1.837-1.465 2.973-1.74.341-.083.695-.102 1.043-.153.31.007.62-.01.927.02.966.095 1.841.505 2.49 1.23" style="opacity:1;fill:#e5f6ff;fill-opacity:1;fill-rule:nonzero;stroke:#000;stroke-width:.33394533;stroke-linecap:round;stroke-linejoin:round;stroke-miterlimit:4;stroke-dasharray:none;stroke-dashoffset:0;stroke-opacity:1" transform="matrix(.80712 0 0 .94106 -15.815 -5.563)"/></g><g style="stroke-width:1.06236112"><path d="M40.723 23.368c.255-.178.493-.384.766-.533 1.55-.844 3.426-1.092 5.157-.837.455.067.895.21 1.343.315.972.445 1.344.492 2.072 1.292.816.897 1.095 1.972.736 3.143-.118.383-.355.72-.533 1.08-.299.329-.56.698-.897.988-1.572 1.348-3.983 2.11-6.03 2.148-.542.01-1.08-.08-1.62-.121-1.205-.346-1.706-.36-2.707-1.136a4.576 4.576 0 0 1-1.77-3.332c-.025-.425.065-.85.097-1.274.35-.994.355-1.3 1.053-2.12.765-.899 1.837-1.465 2.973-1.74.341-.083.695-.102 1.043-.153.31.007.62-.01.927.02.966.095 1.841.505 2.49 1.23" style="opacity:1;fill:#d5f6ff;fill-opacity:1;fill-rule:nonzero;stroke:#000;stroke-width:.30919135;stroke-linecap:round;stroke-linejoin:round;stroke-miterlimit:4;stroke-dasharray:none;stroke-dashoffset:0;stroke-opacity:1" transform="matrix(.94153 0 0 .94106 -55.783 -2.823)"/></g><path d="M-23.692 42.388c.595.043 1.387.154 1.766.201.715.172 1.447.288 2.146.517 2.868.94 5.486 2.777 7.317 5.179.462.606.825 1.281 1.238 1.922.577 1.473 1.123 2.47 1.152 4.094.011.664-.128 1.326-.292 1.97-.365 1.438-.895 2.5-1.83 3.655-.455.564-1.015 1.036-1.523 1.554-1.612 1.143-2.038 1.583-3.895 2.34a15.921 15.921 0 0 1-6.93 1.124c-.766-.046-1.52-.211-2.28-.317-1.715-.546-2.535-.65-4.005-1.72-1.766-1.286-2.912-3.175-3.354-5.302-.153-.734-.145-1.492-.218-2.238.089-.766.09-1.546.265-2.297.152-.657.424-1.283.706-1.895 1.125-2.447 2.947-4.444 5.108-6.017.488-.301.96-.628 1.464-.904 1.348-.739 2.905-1.308 4.465-1.267.174.005.345.042.518.062" style="opacity:1;fill:#d5f6ff;fill-opacity:1;fill-rule:nonzero;stroke:#000;stroke-width:.29104167;stroke-linecap:round;stroke-linejoin:round;stroke-miterlimit:4;stroke-dasharray:none;stroke-dashoffset:0;stroke-opacity:1"/><path d="M38.973 83.028c1.393 1.265 3.729.822 4.916.24 2.938-1.442 3.157-5.079 1.606-7.34-1.166-1.699-3.484-2.433-5.538-1.92-2.442.61-4.386 2.56-4.607 4.985-.1 1.105.459 2.182 1.193 2.83.928.817 2.068 1.28 3.207 1.118" style="display:inline;fill:#e5f6ff;fill-opacity:1;stroke:#000;stroke-width:.3175;stroke-linejoin:round;stroke-miterlimit:2;stroke-dasharray:none;stroke-dashoffset:0"/></svg>