<svg xmlns="http://www.w3.org/2000/svg" width="606.819" height="317.105" viewBox="0 0 568.892 297.286"><g style="opacity:1"><path d="M440.762 956.512c-.346.562-.624 1.183-1.04 1.686-3.765 4.56-10.76 7.027-16.077 7.901-2.593.427-5.231.408-7.847.612-2.906-.395-5.86-.49-8.718-1.184-13.11-3.18-24.97-11.82-33.915-22.597-2.336-2.813-4.303-5.967-6.454-8.95-4.358-8.377-5.968-10.287-8.396-19.545-3.181-12.127-3.047-24.896-.318-37.05.764-3.401 1.994-6.56 3.376-9.126" style="opacity:1;fill:#d5f6ff;fill-opacity:1;stroke:#000;stroke-width:1.00000012;stroke-linecap:butt;stroke-linejoin:miter;stroke-miterlimit:4;stroke-dasharray:none;stroke-dashoffset:0;stroke-opacity:1" transform="translate(82.693 -206.113)"/><path d="M378.342-863.716c-7.514 2.047-14.94 4.402-22.431 6.541-12.703 3.563-25.584 6.366-38.535 8.84-12.448 2.351-25.018 3.973-37.644 4.957-6.186.2-12.445.55-18.605-.29-2.986-.407-3.741-.724-6.529-1.524-5.339-2.056-7.586-6.133-10.154-10.881-3.011-5.503-6.146-7.013-12.044-8.516-7.276-1.338-14.4.328-21.295 2.577-5.67 2.205-9.268 4.286-12.19 9.698-.89 2.185-1.612 5.101.292 7.028.342.346.787.57 1.181.855 3.952 1.849 7.796 1.134 11.571-.744 1.7-1.278 4.829-3.081 2.356-5.177a6.754 6.754 0 0 0-3.079-.94c-.249-.015-.5-.01-.748.01-.08.005-.238.146-.228.067.036-.307.215-.58.323-.87 4.025.248 8.026.688 12 1.368 5.039.935 9.367 2.487 12.882 6.316 2.252 3.843 1.266 6.391-1.836 9.25-4.443 3.133-9.904 4.2-15.149 5.194-7.087 1.423-14.298 1.944-21.504 2.272-6.284.134-12.36-.397-18.203-2.794-3.963-2.164-5.394-4.865-5.785-9.203.052-3.24.864-6.563.07-9.783-.147-.6-.44-1.154-.661-1.731-2.423-3.797-6.916-4.61-11.091-5.02-5.47.025-9.975 2.965-14.352 5.896-3.92 2.53-7.43 5.618-11.444 8.002-4.216 2.384-8.86 3.229-13.648 3.087-3.462-.345-6.998-1.632-8.743-4.868-.298-.554-.471-1.166-.707-1.749-1.1-2.736-.061-5.861-1.19-8.585-.206-.495-.543-.924-.814-1.386-.423-.385-.777-.863-1.269-1.155-3.86-2.29-8.895-.127-12.527 1.42-3.463 1.799-6.947 3.915-9.1 7.284-1.098 1.719-1.328 2.723-1.991 4.62-.706 2.927-1.741 6.517.4 9.136.32.39.747.678 1.12 1.017 3.42 1.585 6.052.42 7.826-2.758.531-1.729.304-3.682-1.017-5.008.283-.175.52-.478.849-.524.188-.026.307.226.46.34 1.711 1.286 3.06 2.768 4.407 4.428 1.756 2.587 3.41 5.732 2.593 8.967-.18.717-.51 1.387-.766 2.081-2.667 4.528-7.667 6.43-12.32 8.278-5.116 1.89-10.455 2.846-15.88 2.175-2.472-.474-4.69-1.83-7.248-1.938-1.868-.079-2.63.228-4.48.64-4.8 1.761-8.69 5.227-10.926 9.848-.49 1.013-.826 2.093-1.239 3.139-1.611 5.134-2.025 10.982 1.274 15.599.59.824 1.38 1.482 2.07 2.223.858.485 1.655 1.097 2.573 1.455 5.389 2.1 10.43-.869 14.816-3.723 2.948-1.664 6.126-5.721 9.947-5.095.595.098 1.13.424 1.694.636.481.478 1.04.888 1.445 1.433 1.9 2.561 2.57 6.545 1.77 9.61-.273 1.039-.778 2.002-1.167 3.003-2.898 4.75-6.514 9.42-11.463 12.192-.864.484-1.808.809-2.712 1.213-2.584.955-5.295 1.193-8.026 1.217-.887.008-2.8-.007-3.735-.284-.395-.118-.728-.388-1.092-.581-.161-.358-.468-.68-.485-1.073-.11-2.637 2.665-4.964 4.45-6.485.394-.265.774-.552 1.184-.793.658-.387 1.48-.743 2.2-1.018.271-.104.554-.179.825-.286.113-.045.323-.29.325-.168.006.341-.207.65-.31.975-3.397.457-6.806.815-10.204 1.275-4.138.913-8.983 1.22-12.469 3.929-.543.422-.967.977-1.45 1.466-2.948 4.483-2.434 9.085-1.041 14.013 2.408 5.584 5.607 7.854 11.262 9.551 4.777 1.46 9.29-.252 13.845-1.64 3.074-.834 6.728-1.645 9.12 1.1.434.498.725 1.104 1.088 1.656 1.836 3.95 1.667 8.464 3.152 12.52.29.793.713 1.532 1.069 2.298.487.626.874 1.345 1.462 1.878 3.641 3.3 10.33 1.048 14.4-.016 5.954-1.358 11.633-4.588 17.843-4.742.902-.022 1.8.131 2.7.197 5.393 1.18 8.505 4.1 11.97 8.149 1.943 2.18 4.01 5.103 7.247 5.235 1.658.068 2.88-.59 4.386-1.161 3.372-1.305 8.275-4.75 11.965-4.532.631.037 1.218.34 1.826.51.52.46 1.123.842 1.562 1.38 3.577 4.39 1.988 10.899.804 15.796-2.008 5.702-4.828 11.82-10.004 15.365-.883.604-1.89 1.004-2.835 1.507-4.575 1.57-9.371.58-14.08.697-3.787.095-4.328.297-8.085.862-6.053 1.067-12.392 3.125-15.728 8.732-.55.925-.856 1.976-1.284 2.964-.106.882-.335 1.759-.318 2.647.117 6.109 4.655 8.443 9.57 10.604 5.196 1.547 11.08 2.25 15.998-.617.752-.438 1.378-1.062 2.067-1.592 1.75-1.982 2.772-5.573-.128-7.058-.357-.068-1.164-.174.423-.929.315-.15.69.1 1.036.137 2.118.23 4.199.488 6.303.836 5.69 1.268 10.22 2.853 14.797 6.518 3.406 3.636 3.676 8.498.88 12.66-.588.876-1.368 1.607-2.052 2.41-3.071 2.552-8.085 5.599-12.196 5.909-.08-.37-.392-.76-.242-1.107.142-.33.61-.387.944-.517 1.066-.414 2.615-.617 3.48.374.314.36.4.866.6 1.3-.11.792-.111 1.61-.334 2.378-.234.805-2.258 5.048-2.512 5.591-1.566 3.344-2.865 6.411-3.961 9.941-.664 3.75-.161 7.815 3.467 9.902 2.202 1.267 3.587 1.085 6.079 1.297 7.157-.408 12.745-4.368 17.467-9.442 1.334-.762 2.3-4.031 3.662-4.65.846-.384 1.544-.036 2.37.17 4.303 2.046 8.629 4.062 12.85 6.271 5.613 3.246 7.329 5.791 8.193 12.148.465 3.126-.597 7.588 1.904 10.093.455.456 1.053.742 1.58 1.113.759.195 1.499.495 2.278.585 4.95.574 9.931-1.692 13.894-4.45 1.212-.844 2.306-1.846 3.46-2.77 2.404-2.665 6.934-6.411 5.916-10.638-.428-1.775-1.256-2.263-2.483-3.522-1.995-1.582-4.221-2.83-6.543-3.862-.286-.127-3.249-1.264-3.676-1.554-.393-.267-.651-.692-.977-1.038-.114-.41-.367-.807-.342-1.233.254-4.383 8.622-7.908 11.855-9.414 7.41-2.953 15.386-4.17 23.208-2.161 1.263.324 2.472.832 3.708 1.247 3.298 1.432 9.011 4.4 6.634 8.987-.312.602-.911 1.004-1.366 1.507-3.738 2.55-8.41 2.788-12.396 4.829-3.67 3.087.413 4.38 3.253 5.116 4.57.833 9.257-.595 13.79.287.322.289.77.48.964.867.866 1.73-.425 4.226-.951 5.825-.99 3.013-.655 1.876-1.356 5.047-.416 2.922-.6 6.811 2.413 8.535 1.853 1.06 3.132.725 5.196.69 5.92-1.319 12.058-4.222 16.237-8.743.746-.806 1.325-1.751 1.987-2.627 1.963-3.351 2.55-7.39-1.03-9.864-.572-.395-1.228-.653-1.842-.98-2.005-1.393-6.49-.925-8.384-2.136-.28-.179-.46-.48-.689-.719-.04-.423-.2-.851-.12-1.269.767-4.04 5.623-7.95 8.744-10.192 4.72-2.79 10.193-3.742 15.592-2.745 1.106.204 2.178.56 3.266.84 4.74 1.883 8.528 5.483 8.63 10.889.02.992-.22 1.971-.33 2.957-.993 4.885-4.435 8.3-7.444 12.01-.073.211-.266.416-.22.635.025.114.235-.067.348-.038.286.073.531.272.82.336 2.028.453 4.218.126 6.257-.01 4.829-.62 9.887-.979 14.338-3.147.89-.434 1.713-.996 2.57-1.493 2.937-2.193 5.538-5.095 6.526-8.72.405-1.484.223-2.69.155-4.205-.878-3.992-3.894-7.017-6.536-9.986-3.203-3.453-5.402-6.771-6.6-11.352-.838-3.15-.144-6.473-.865-9.617-.158-.275-.289-.57-.476-.827-.947-1.302-2.27-2.276-3.264-3.547-1.242-1.59-1.665-2.478-2.687-4.255-2.427-4.904-3.109-10.437-.41-15.426.513-.948 1.273-1.74 1.909-2.609 5.388-5.4 11.592-5.618 18.758-5.035 8.2 1.83 10.786 6.657 13.452 14.014 1.416 4.298 2.784 9.842 7.291 12.005.847.407 1.798.544 2.697.817 5.941.238 12.334-1.743 17.236-5.121.91-.627 1.692-1.421 2.538-2.131.54-.744 1.192-1.418 1.62-2.232 1.888-3.601.05-6.673-2.365-9.328-1.31-1.288-2.892-1.978-4.64-2.44-.817-.215-1.664-.22-2.425-.585.024-.402-.106-.844.073-1.204.192-.388 2.417-1.823 2.465-1.852 2.524-1.525 5.108-2.426 7.913-3.29 5.56-1.515 11.508-1.974 16.86.584.991.475 1.876 1.148 2.814 1.722 3.357 2.808 6.801 7.34 5.279 12.037-.28.864-.798 1.634-1.196 2.45-2.156 3.319-6.433 4.607-8.455 8.018-.282.476-.426 1.02-.64 1.53-.243 4.99 4.515 4.852 8.165 4.573 7.056-1.286 11.892-4.325 16.686-9.537 1.857-2.363 3.086-5.41 1.284-8.136 1.38-.37-.744-.32-.537-.408.363-.153.737-.441 1.123-.367.518.1 4.024 3.162 4.438 3.506 2.655 2.518 5.457 5.394 5.592 9.308.108 3.109-.718 3.925-2.034 6.788-4.955 6.751-12.231 10.955-19.819 14.128-2.767 1.22-5.668 1.624-6.18 4.976-.099 2.289-.1 4.743 1.284 6.707.325.461.769.825 1.153 1.238 5.386 3.128 11.395.993 16.76-1.06 6.168-3.108 12.074-7.53 15.464-13.713.563-1.027.927-2.15 1.39-3.224 1.734-6.24 1.257-12.785 1.058-19.183-.371-7.532 1.495-11.97 5.51-18.11.425-.703 1.51-2.14 1.494-3.167-.018-1.15-5.94-2.513-6.52-2.664-5.557-1.466-12.091-3.392-15.4-8.559-.565-.884-.861-1.914-1.292-2.87-.114-1.117-.376-2.228-.343-3.35.157-5.286 2.529-10.934 5.842-14.998.805-.987 1.775-1.827 2.662-2.74 4.205-3.616 9.46-4.863 14.645-6.278.252-.17.58-.262.755-.51.339-.478-.177-.965-.401-1.272-1.623-2.214-3.551-3.938-5.587-5.776-1.008-.805-1.992-1.64-3.024-2.415-2.974-2.234-3.38-2.374-6.495-4.283-1.403-.86-4.17-2.473-5.469-3.608-.657-.575-1.172-1.294-1.759-1.94-.241-.785-.688-1.533-.724-2.352-.196-4.518 3.548-8.895 6.774-11.567 1.01-.836 2.145-1.505 3.217-2.257 5.87-3.356 12.276-2.148 18.663-2.022 1.128.022 2.256-.04 3.383-.06 2.81-.36 6.92-1.351 6.541-5.086-.175-1.723-1.61-3.936-2.341-5.295-3.633-5.243-8.215-10.732-14.65-12.487-1.002-.274-2.055-.308-3.082-.462-4.163-.62-7.696 2.687-11.742 2.639-.645-.008-1.271-.219-1.906-.328-.55-.375-1.196-.637-1.65-1.124-2.825-3.034-1.953-8.25-.91-11.768.375-1.261.95-2.454 1.424-3.681 3.857-7.747 10.767-10.685 17.813-14.826 1.602-1.234 4.642-2.785 4.291-5.36-.337-2.475-4.655-5.027-6.328-6.16-6.594-3.339-13.991-5.768-21.485-5.282-1.143.075-2.268.334-3.402.5-2.736.595-4.877 1.902-6.92 3.74-.87.784-2.142 2.117-3.12 2.802-.585.41-1.236.713-1.853 1.07-7.078 2.75-14.758 1.888-22.03.516-3.621-1.045-9.979-3.367-8.251-8.51 1.103-3.285 3.057-4.124 5.672-6.173 9.496-5.574 20.056-9.152 30.842-11.204 1.625-.538 8.852-.45 9.939-1.878.428-.564-.41-1.16-.65-1.41-2.81-2.704-6.635-4.658-10.627-4.473-.866.04-1.713.266-2.57.399-3.757 1.226-6.184 4.333-9.013 6.883-2.53 2.281-2.154 1.874-5.06 3.82-7.786 3.77-16.046 6.449-24.063 9.686-7.236 2.419-15.552 7.097-23.353 7.01-1.09-.012-2.158-.316-3.236-.474-.778-.414-1.65-.687-2.333-1.244-2.189-1.783-2-4.428-.293-6.505 1.781-2.167 4.676-3.426 7.009-4.73 8.933-4.348 18.402-7.39 27.814-10.498 3.038-1.287 6.924-2.268 8.754-5.292l.691.732c-2.145 3.05-5.904 4.235-9.228 5.532-9.365 3.088-18.787 6.11-27.668 10.45-2.267 1.276-11.175 5.47-6.656 9.404.596.518 1.375.776 2.063 1.164 1.012.156 2.012.453 3.036.466 7.592.093 16.077-4.6 23.133-6.97 7.967-3.215 16.175-5.88 23.906-9.636 2.848-1.92 2.446-1.5 4.942-3.755 2.95-2.665 5.509-5.85 9.47-7.04.914-.133 1.819-.365 2.741-.4 4.274-.159 8.332 1.927 11.324 4.841.232.588.652 1.134.695 1.765.03.437-.185.906-.49 1.221-1.405 1.455-8.27 1.36-10.163 1.92-10.66 2.029-21.105 5.561-30.48 11.09-1.763 1.39-4.219 2.822-5.172 5.08-1.977 4.686 4.238 6.814 7.457 7.751 7.079 1.341 14.576 2.208 21.47-.468.575-.335 1.181-.62 1.724-1.006.959-.68 2.267-2.048 3.124-2.801 2.172-1.91 4.47-3.256 7.343-3.869 1.175-.167 2.34-.428 3.523-.5 7.652-.473 15.197 1.995 21.93 5.407 1.993 1.348 4.511 2.688 5.848 4.848 2.388 3.858-.99 6.535-3.918 8.463-6.89 4.041-13.658 6.912-17.394 14.5-1.463 3.863-3.94 10.21-.803 13.988.353.424.879.667 1.318 1 .551.106 1.092.308 1.653.316 2.97.047 5.96-1.954 8.92-2.41 1.009-.156 2.036-.143 3.053-.215 1.085.169 2.196.214 3.254.506 6.614 1.828 11.348 7.406 15.1 12.806 1.284 2.354 2.365 3.633 2.441 6.404.112 4.062-4.305 5.21-7.439 5.599-1.146.019-2.293.079-3.44.056-6.204-.125-12.442-1.33-18.146 1.923-1.035.73-2.132 1.38-3.105 2.192-2.501 2.088-6.45 6.733-6.443 10.262.001.708.33 1.377.494 2.066.538.613 1.003 1.3 1.614 1.84 1.272 1.126 4.046 2.742 5.416 3.582 3.172 1.944 3.554 2.064 6.582 4.333 1.045.783 2.042 1.627 3.064 2.441 1.354 1.218 8.083 6.355 5.81 8.782-.259.277-.654.384-.981.576-5.05 1.362-10.167 2.585-14.254 6.107-.852.886-1.785 1.7-2.557 2.656-3.057 3.788-5.301 9.02-5.577 13.923-.058 1.04.15 2.08.225 3.119.38.899.625 1.866 1.137 2.697 3.136 5.083 9.595 6.905 14.97 8.333 1.54.398 5.637 1.103 6.706 2.598 1.207 1.687-.425 3.584-1.226 4.929-3.716 5.727-5.626 10.082-5.246 17.086.212 6.717.726 13.584-1.235 20.11-.496 1.108-.894 2.267-1.49 3.327-3.53 6.287-9.556 10.795-15.887 13.946-5.702 2.159-11.995 4.276-17.652.87-.435-.465-.935-.877-1.306-1.395-1.626-2.268-1.63-5.164-1.373-7.811.843-3.59 3.667-4.134 6.783-5.449 7.404-3.103 14.531-7.201 19.34-13.817 1.24-2.416 1.885-2.947 1.882-5.723-.004-3.749-2.73-6.486-5.24-8.891-.188-.157-4.359-3.386-4.42-3.488-.25-.415-.303-.952-.242-1.433.049-.379 1.227 1.155.93.669 2.17 3.19.806 6.848-1.436 9.635-4.98 5.323-9.974 8.438-17.246 9.726-.958.065-1.914.23-2.874.196-2.61-.091-6.039-1.323-6.333-4.405-.063-.668.16-1.331.241-1.997.26-.558.453-1.153.782-1.674 2.092-3.308 6.166-4.673 8.348-7.912.315-.546.728-1.047.946-1.639 1.607-4.355-1.635-8.644-4.745-11.29-.888-.553-1.724-1.203-2.666-1.66-5.181-2.514-10.957-2.027-16.346-.555-2.725.845-5.236 1.723-7.683 3.217-.504.308-.985.651-1.456 1.008-.252.19-.399.563-.708.63-.178.038-.25-.266-.374-.399.427.33 1.864.424 2.268.532 1.88.502 3.595 1.259 5.01 2.638.506.553 1.075 1.054 1.519 1.659 1.991 2.713 2.55 6.162.852 9.194-.48.854-1.185 1.56-1.777 2.34-.888.73-1.713 1.544-2.664 2.19-4.151 2.822-9.498 4.826-14.516 5.22-1.116.089-2.24-.041-3.36-.062-.975-.304-2.008-.467-2.927-.913-4.66-2.263-6.204-7.841-7.638-12.345-2.509-7.045-4.84-11.76-12.703-13.547-6.868-.562-12.85-.415-18 4.793-.593.823-1.273 1.589-1.777 2.469-2.59 4.524-1.775 9.694.388 14.174.945 1.663 1.42 2.644 2.572 4.136 1.02 1.32 2.391 2.315 3.378 3.656.235.32.404.683.607 1.025.784 3.138.097 6.445.856 9.609 1.097 4.484 3.255 7.683 6.363 11.052 2.042 2.287 5.062 5.396 6.217 8.229.288.706.411 1.468.616 2.202.046.795.187 1.59.138 2.385-.302 4.964-3.542 8.947-7.396 11.783-.893.51-1.752 1.085-2.68 1.53-4.538 2.176-9.669 2.564-14.583 3.184-1.72.113-9.851 1.313-7.85-2.71 2.8-3.41 5.955-6.627 7.087-11.047.13-.918.382-1.827.39-2.754.043-5.103-3.492-8.504-7.94-10.299-1.053-.273-2.089-.62-3.158-.82-5.202-.972-10.477-.055-15.018 2.647-3.4 2.462-7.241 5.588-8.395 9.822.112.171.168.396.336.513 1.698 1.18 6.66.766 8.476 2.176 1.52.815 2.575 1.176 3.682 2.577 2.416 3.055 1.157 6.954-.584 9.944-.703.904-1.322 1.879-2.107 2.712-4.298 4.564-10.72 7.638-16.785 8.892-2.354.008-3.67.356-5.77-.886-3.466-2.051-3.244-6.448-2.678-9.84.777-3.377.366-1.934 1.398-5.116.31-.959 1.44-3.293 1.145-4.468-.07-.274-.351-.444-.527-.666-4.53-.933-9.268.642-13.837-.3-.754-.2-1.534-.32-2.261-.6-3.616-1.396-4.22-4.078-1.086-6.436.593-.295 1.165-.635 1.779-.884 3.408-1.383 7.322-1.57 10.355-3.807.374-.417.815-.782 1.122-1.25 2.376-3.621-3.768-6.453-6.086-7.482-1.2-.408-2.372-.905-3.599-1.223-7.657-1.984-15.467-.771-22.718 2.129-3.392 1.589-6.77 3.125-9.556 5.703-.285.264-1.56 1.62-1.697 2.337-.057.297.062.602.093.904.228.287.382.652.683.86.413.288 3.466 1.464 3.694 1.566 1.54.684 3.2 1.54 4.614 2.452.748.481 1.446 1.034 2.17 1.551 1.243 1.279 2.48 2.147 2.823 4.041.87 4.79-3.499 8.745-6.403 11.773-1.186.939-2.311 1.96-3.557 2.817-4.14 2.847-9.368 5.172-14.516 4.504-.872-.113-1.696-.461-2.545-.692-.601-.43-1.283-.766-1.804-1.29-2.617-2.638-1.735-7.09-2.102-10.408-.75-6.128-2.26-8.459-7.672-11.608-4.168-2.185-8.448-4.158-12.683-6.209-.151-.043-1.236-.46-1.596-.29-1.253.587-2.31 4.003-3.614 4.61-4.928 5.217-10.742 9.252-18.153 9.62-2.702-.25-4.151-.065-6.537-1.464-4.36-2.558-4.529-6.842-3.731-11.285.36-1.133.668-2.283 1.08-3.398 1.685-4.565 4.385-8.726 5.704-13.42-.433-1.8-1.187-1.825-2.888-1.262-.189.062-.352.31-.542.25-.249-.077-.349-.387-.523-.581 1.404-.088 2.875-.686 4.152-1.202 2.72-1.1 5.295-2.461 7.453-4.488.638-.76 1.368-1.453 1.914-2.282 2.442-3.705 2.332-7.865-.677-11.16-4.443-3.606-8.87-5.123-14.415-6.37-2.315-.382-2.367-.424-4.587-.67-.18-.019-2.734-.232-2.81-.306-1.618-1.596.02-1.028.217-.973 3.567 1.95 2.536 6.308.176 8.861-.749.555-1.435 1.206-2.245 1.665-5.146 2.91-11.232 2.216-16.642.59-5.095-2.242-10.24-4.888-10.198-11.367.008-1.163.353-2.298.53-3.447.474-1.034.824-2.135 1.422-3.102 3.534-5.71 10.02-7.861 16.28-8.955 3.832-.57 4.354-.769 8.212-.864 4.574-.113 9.24.847 13.687-.638.892-.477 1.844-.856 2.676-1.431 5.025-3.474 7.73-9.462 9.66-15.02 1.322-5.168 2.637-11.63-1.778-15.692-.497-.16-.97-.445-1.492-.479-3.574-.232-8.498 3.277-11.788 4.502-1.753.637-2.94 1.286-4.853 1.169-3.42-.21-5.635-3.106-7.693-5.465-3.304-3.885-6.237-6.735-11.398-7.901-.85-.065-1.7-.216-2.553-.196-6.168.148-11.808 3.406-17.73 4.727-4.586 1.19-11.166 3.45-15.256-.241-.634-.572-1.054-1.342-1.58-2.013-.38-.804-.83-1.578-1.14-2.411-1.487-3.981-1.349-8.4-3.02-12.327-.306-.501-.55-1.047-.919-1.505-2.107-2.615-5.571-1.671-8.341-.94-4.71 1.433-9.38 3.138-14.311 1.624-6.072-1.83-9.204-4.1-11.874-10.035-1.605-5.538-2.064-10.34 1.363-15.329.54-.519 1.022-1.107 1.622-1.557 3.617-2.716 8.519-3.088 12.78-4.001 3.437-.465 6.884-.843 10.323-1.285.196.33.532.609.587.988.004.03-4.401 1.648-4.348 2.175-1.523 1.317-4.11 3.619-4.04 5.785.27.165.505.403.807.495.894.273 2.758.284 3.592.277 2.627-.023 5.235-.248 7.721-1.17.861-.388 1.76-.698 2.583-1.162 4.801-2.71 8.316-7.264 11.1-11.902.324-.739.75-1.44.97-2.216 1.01-3.548-.011-7.658-2.56-10.27-.457-.193-.884-.487-1.37-.579-3.316-.625-6.934 3.548-9.528 5-4.667 3.003-9.982 5.969-15.66 3.714-.99-.394-1.85-1.057-2.776-1.585-.738-.79-1.58-1.492-2.212-2.368-3.598-4.992-3.08-11.288-1.288-16.832.44-1.077.8-2.19 1.319-3.23 2.387-4.788 6.482-8.355 11.5-10.14 2.013-.434 2.745-.737 4.775-.64 2.55.121 4.772 1.413 7.225 1.935 5.29.666 10.497-.304 15.482-2.145 4.436-1.77 9.275-3.571 11.785-7.922 1.655-3.759.453-6.444-1.71-9.705-1.045-1.302-2.074-2.555-3.36-3.63-.188-.157-1.512-1.132-1.512-1.135-.043-.367.302-.675.454-1.013 1.786 1.734 1.973 4.253 1.115 6.513-.294.466-.525.98-.883 1.398-2.129 2.491-5.424 2.966-8.244 1.468-.43-.391-.92-.724-1.29-1.173-2.47-2.996-1.327-7.025-.455-10.38.736-2.01.966-2.992 2.168-4.808 2.278-3.44 5.864-5.627 9.454-7.468 3.977-1.67 9.235-3.786 13.396-1.275.558.336.963.877 1.444 1.315.312.523.696 1.008.937 1.567 1.165 2.705.205 5.762 1.146 8.51 1.639 4.4 4.107 5.583 8.667 6.164 4.636.141 9.129-.693 13.203-3.013 3.994-2.388 7.493-5.472 11.407-7.984 4.54-3.027 9.226-6.002 14.89-5.983 4.494.453 9.214 1.394 11.817 5.468.25.634.578 1.242.75 1.9.837 3.221.094 6.579-.054 9.822.303 4.206 1.383 6.4 5.18 8.6 5.671 2.354 11.754 2.874 17.86 2.738 7.169-.327 14.342-.847 21.391-2.266 5.093-.97 10.419-1.994 14.727-5.05 2.506-2.357 3.548-4.387 1.723-7.638-3.269-3.683-7.64-5.222-12.4-6.095-4.05-.693-8.126-1.078-12.214-1.42-.028-.353-.181-.72-.085-1.062.176-.631 4.319.608 4.778 1.038.309.28.688.496.927.837 1.735 2.472-1.874 5.015-3.538 6.112-4.154 1.995-8.103 2.68-12.41.658-.465-.341-.989-.613-1.393-1.024-2.273-2.305-1.41-5.794-.298-8.406 3.11-5.534 6.84-7.732 12.708-9.987 7.044-2.284 14.319-3.954 21.742-2.574 6.099 1.56 9.463 3.176 12.594 8.86 2.448 4.552 4.525 8.535 9.628 10.542 2.718.786 3.466 1.101 6.38 1.5 6.115.838 12.33.486 18.471.29 12.597-.981 25.138-2.599 37.557-4.946 12.928-2.47 25.786-5.272 38.464-8.833 7.511-2.148 14.957-4.52 22.492-6.57l.124 1zM444.146-347.393c-7.37-3.872-14.521-8.465-20.284-14.544-1.574-1.66-2.952-3.493-4.428-5.24-1.233-2.022-2.639-3.949-3.7-6.066-4.809-9.597-6.12-20.73-4.154-31.25.593-3.174 1.672-6.237 2.507-9.355 1.39-3.075 2.548-6.266 4.171-9.225 5.614-10.234 13.605-19.044 22.772-26.207 9.354-7.31 13.346-8.882 23.925-14.625 4.89-2.066 9.694-4.35 14.67-6.197 21.815-8.094 45.158-12.439 68.331-13.99 5.667-.38 11.353-.375 17.03-.562 20.771.501 42.053 2.03 61.729 9.277 2.022.745 3.962 1.696 5.943 2.544.923.637 7.375 3.11 5.262 5.923-1.332 1.774-6.168.969-7.871.784-2.452-.499-8.524-1.704-8.326-5.33.146-2.662 1.76-3.488 3.515-5.199 1.371-.844 2.684-1.792 4.114-2.532 12.229-6.333 26.991-8.566 40.4-10.862 15.02-2.165 30.185-3.61 45.371-2.758 10.215.573 12.554 1.19 22.615 2.76 14.396 2.948 28.492 7.69 40.422 16.514 7.86 5.814 8.705 7.613 15.024 14.94 8.505 12.514 12.637 26.885 13.55 41.903.563 9.276-.047 12.605-.824 21.73-1.86 12.613-4.452 26.552-12.135 37.13-.928 1.279-2.07 2.387-3.104 3.58-1.452 1.32-7.476 6.843-9.88 4.452-.217-.216-.266-.552-.4-.828.126-.411.119-.889.376-1.233 1.888-2.53 7.932.192 9.93 1.033 6.123 3.308 10.99 8.4 14.16 14.599.742 1.45 1.296 2.99 1.944 4.486 3.095 9.02 4 18.659 1.96 28.032-.473 2.176-1.212 4.285-1.819 6.428-4.595 11.863-13.314 21.08-23.76 28.12-2.5 1.686-5.153 3.135-7.73 4.702-11.18 5.976-23.24 10.253-35.662 12.782-6.922 1.41-8.91 1.429-15.717 2.078-5.019.28-10.07.297-15.028-.626-1.412-.263-3.443-.499-4.282-1.84.363-.29.637-.766 1.09-.871.472-.11.965.136 1.425.287 1.826.598 3.58 1.889 4.514 3.604.36.662.493 1.426.74 2.139-.015.786.138 1.593-.043 2.359-1.547 6.538-10.859 9.67-16.212 11.886-15.2 5.88-31.425 7.625-47.56 8.645-13.024.287-26.368-.336-38.794-4.628-1.695-.585-3.319-1.359-4.978-2.038-3.209-1.79-7.53-3.868-8.46-7.874-.22-.947.023-1.757.19-2.675-.133-.177-.003.296-.11.36-.348.207-.78.218-1.166.34-3.294 1.036-6.576 1.891-9.94 2.695-11.736 2.416-23.794 2.968-35.744 2.33-3.318-.178-6.625-.523-9.937-.784-19.811-2.503-39.384-7.717-57.575-16.038-3.906-1.786-7.667-3.873-11.5-5.809-14.187-8.27-28.056-18.383-35.78-33.356-4.811-9.326-4.35-11.978-5.845-22.142.294-3.774.18-7.602.881-11.322 1.28-6.792 4.474-14.53 7.804-20.593 1.516-2.76 3.409-5.297 5.113-7.945l.676.704c-1.681 2.623-3.55 5.135-5.045 7.868-3.03 5.538-6.406 13.551-7.6 19.76-.705 3.664-.623 7.437-.934 11.156 1.421 10.017.953 12.655 5.662 21.859 7.614 14.883 21.387 24.915 35.45 33.126 3.816 1.93 7.559 4.008 11.446 5.787 18.116 8.292 37.61 13.486 57.342 15.975 3.299.259 6.592.601 9.896.777 11.881.63 23.872.078 35.539-2.335 3.455-.83 4.496-1.025 7.705-1.982.692-.206 3.786-1.672 4.603-.717.17.198-.043.52-.064.78-1.227 4.567 4.617 7.372 7.73 9.123 1.633.672 3.23 1.438 4.898 2.017 12.334 4.28 25.591 4.886 38.522 4.603 16.049-1.017 32.188-2.753 47.302-8.619 4.402-1.83 14.011-5.343 15.513-10.691.189-.675.099-1.398.149-2.097-.648-2.198-1.103-3.328-3.144-4.607-.45-.281-.95-.477-1.45-.657-.363-.13-.8-.061-1.125-.268-.202-.128-.21-.43-.315-.644-.354.512-.294.303 1.074.745 1.764.571 4.435 1.003 6.165 1.162 4.536.416 6.403.21 11.162.088 6.762-.643 8.732-.66 15.608-2.06 12.342-2.514 24.325-6.768 35.429-12.717 2.553-1.557 5.182-2.996 7.66-4.67 10.297-6.96 18.891-16.064 23.382-27.787.558-1.912 1.244-3.791 1.674-5.736 2.04-9.232 1.221-18.718-1.802-27.625-.627-1.468-1.16-2.979-1.88-4.403-3.066-6.065-7.79-11.057-13.754-14.309-2.321-.985-5.455-2.62-8.092-1.767-.273.089-.486.304-.73.456l-.263.072c-.009.925.77 1.016 1.635.798 2.828-.712 5.094-2.815 7.169-4.71 1.003-1.165 2.111-2.248 3.011-3.495 7.456-10.334 10.045-23.92 11.88-36.222.793-9.068 1.406-12.364.87-21.583-.866-14.869-4.91-29.11-13.29-41.524-6.237-7.265-7.064-9.044-14.837-14.812-11.832-8.779-25.828-13.483-40.118-16.413-10.016-1.564-12.345-2.18-22.514-2.75-15.136-.85-30.25.595-45.22 2.758-13.304 2.285-27.981 4.5-40.105 10.805-1.377.716-2.638 1.636-3.957 2.454-.677.665-2.97 2.458-3.186 3.883-.501 3.3 5.486 4.381 7.568 4.821.995.11 1.985.301 2.987.331 1.958.06 6.552-.191 2.825-2.964-1.139-.848-2.448-1.439-3.672-2.158-1.958-.842-3.874-1.788-5.874-2.528-19.58-7.248-40.78-8.759-61.46-9.268-5.66.186-11.328.18-16.979.559-23.097 1.545-46.365 5.88-68.104 13.959-4.953 1.84-9.733 4.118-14.599 6.177-10.507 5.716-14.479 7.284-23.763 14.555-9.074 7.107-16.983 15.848-22.521 26-1.597 2.928-2.731 6.085-4.097 9.127-.79 2.88-1.816 5.707-2.374 8.642-1.969 10.363-.766 21.312 3.937 30.796 1.035 2.087 2.41 3.986 3.616 5.98 1.452 1.726 2.807 3.54 4.356 5.18 5.684 6.02 12.75 10.557 20.032 14.387l-.335.95z" style="opacity:1;fill:#000;fill-opacity:1;stroke:#de8787;stroke-width:0;stroke-linecap:butt;stroke-linejoin:miter;stroke-miterlimit:4;stroke-dasharray:none;stroke-dashoffset:0;stroke-opacity:.82647059" transform="translate(82.693 -206.113)"/><path d="M93.762 692.077c-5.923-.108-11.584-1.09-17.2-2.539-8.062-2.382-15.228-6.42-21.048-11.478-1.338-1.163-2.547-2.419-3.82-3.628-5.086-5.557-8.918-11.882-10.486-18.711-1.131-4.93-.773-6.576-.663-11.614 1.546-11.794 7.723-22.537 17.056-31.68 2.12-2.076 4.496-3.973 6.745-5.96 14.627-11.347 32.509-19.517 51.57-25.047 4.22-1.225 8.55-2.183 12.826-3.274 15.934-3.536 32.362-5.58 48.901-5.56 8.471.008 10.258.338 18.337 1.064.934 2.486-.17 3.898-3.83 3.96-.546-.811-1.309-1.55-1.64-2.434-1.864-4.99 3.039-9.773 7.97-12.23 2.386-1.189 5.03-2.004 7.544-3.006 18.99-6.11 39.378-9.076 59.76-9.829 4.546-.168 9.1-.097 13.65-.146 21.22.722 42.658 2.877 62.834 8.419 3.187.875 6.266 1.986 9.398 2.978 7.45 3.066 21.148 8.216 22.812 15.84.191.874-.05 1.776-.075 2.664l-1.397-1.236s-.099-.13 2.693-.543c11.527-1.023 23.295-.074 34.31 2.861 2.475.66 4.862 1.517 7.293 2.275 9.633 3.49 17.878 8.702 23.935 15.689 3.816 4.402 4.513 6.22 7.272 11.087 4.419 9.888 5.724 20.658 2.154 30.889-.563 1.613-1.431 3.149-2.147 4.723-2.017 3.245-6.976 9.895-12.67 9.324-.46-.047-.835-.325-1.252-.488-.115-.347-.473-.697-.344-1.042 1.065-2.852 7.625-2.764 10.271-2.277 1.403.258 2.707.783 4.06 1.175 1.332.74 2.781 1.357 3.993 2.218 6.477 4.598 8.698 11.472 8.85 18.193.05 2.175-.284 4.346-.426 6.52-2.136 12.188-8.578 23.538-17.85 33.312-1.666 1.755-3.56 3.363-5.34 5.045-6.802 5.534-15.086 10.19-24.955 11.014-1.116.093-2.242.036-3.364.054-1.75.066-5.813-1.195-2.888-2.914 1.062-.624 2.89-.505 4.032-.542 6.201.711 11.404 3.846 14.417 8.24.747 1.09 1.236 2.282 1.854 3.422.316 1.302.816 2.583.948 3.905.661 6.608-2.993 12.868-8.194 17.835-1.545 1.475-3.357 2.757-5.035 4.136-10.911 7.533-24.41 11.536-38.376 13.72-3.11.487-6.26.785-9.39 1.177-13.802 1.163-27.927 1.552-41.585-.756-1.89-.32-3.736-.783-5.604-1.175-2.093-.524-12.233-3.584-11.357-6.503.13-.436.61-.751.915-1.127 2.985-.634 7.846.18 8.111 3.288.063.734-.304 1.45-.456 2.176-.567.659-1.016 1.394-1.701 1.975-6.18 5.247-19.726 8.22-27.993 10.19-17.04 3.235-34.628 5.13-52.161 4.743-3.532-.078-7.05-.378-10.576-.567-12.622-1.45-28.162-3.058-38.373-9.858-1.321-.88-2.356-2.005-3.535-3.007-.614-1.042-1.465-2.015-1.842-3.128-1.324-3.91 1.42-7.811 5.37-9.973.77-.421 1.653-.691 2.48-1.037 1.505-.539 6.342-.805 5.367 1.744-.632 1.653-2.17 2.265-3.75 3.27-9.045 3.995-19.488 4.63-29.602 3.955-2.936-.196-5.848-.576-8.773-.864-16.637-2.512-33.211-6.915-47.017-15.008-2.78-1.63-5.268-3.56-7.902-5.341-2.294-2.019-4.758-3.92-6.882-6.056-8.524-8.566-14.812-19.215-14.385-30.425.111-2.927 1.062-5.796 1.593-8.694 5.627-11.425 2.342-6.037 9.727-16.214M533.73 649.166c-4.91-.106-9.603-1.07-14.26-2.493-6.682-2.34-12.623-6.305-17.447-11.273-1.11-1.143-2.112-2.376-3.168-3.564-4.216-5.458-7.392-11.67-8.692-18.378-.938-4.841-.641-6.459-.55-11.407 1.282-11.584 6.402-22.135 14.14-31.115 1.756-2.04 3.727-3.902 5.59-5.853 12.127-11.146 26.95-19.17 42.752-24.602 3.498-1.203 7.088-2.144 10.633-3.216 13.209-3.472 26.827-5.48 40.538-5.461 7.023.009 8.504.332 15.201 1.046 4.329.793 9.063 1.22 12.946 3.429.61.346 2.153 1.339 1.465 2.403-.363.56-1.088.815-1.632 1.222-4.494 1.022-9.831 1.16-13.855-1.377-.782-.494-1.399-1.192-2.098-1.788-.453-.797-1.086-1.523-1.36-2.39-1.545-4.902 2.519-9.6 6.607-12.013 1.977-1.167 4.169-1.968 6.253-2.952 15.742-6.002 32.644-8.915 49.54-9.654 3.77-.165 7.545-.095 11.317-.143 17.59.708 35.363 2.825 52.088 8.268 2.642.86 5.194 1.95 7.791 2.926 6.176 3.01 17.531 8.07 18.911 15.557.159.859-.041 1.745-.062 2.617-.394.807-.654 1.687-1.182 2.422-1.596 2.219-4.949 3.544-7.72 3.002-.514-.1-.97-.376-1.456-.563-.267-.3-.713-.513-.8-.897-.922-4.026 9.918-5.307 12.232-5.711 9.556-1.005 19.312-.073 28.442 2.81 2.052.648 4.031 1.49 6.047 2.234 7.985 3.427 14.82 8.547 19.841 15.41 3.164 4.323 3.741 6.108 6.029 10.889 3.663 9.712 4.745 20.29 1.786 30.338-.467 1.585-1.187 3.093-1.78 4.64-1.672 3.186-5.783 9.718-10.504 9.157-.382-.046-.692-.32-1.038-.479-.095-.34-.391-.685-.285-1.023.884-2.802 6.321-2.715 8.515-2.237 1.163.253 2.244.77 3.366 1.154 1.103.726 2.305 1.333 3.31 2.178 5.37 4.517 7.21 11.268 7.336 17.87.041 2.136-.235 4.268-.353 6.403-1.77 11.97-7.111 23.119-14.798 32.719-1.38 1.724-2.95 3.303-4.427 4.954-5.638 5.437-12.505 10.01-20.687 10.819-.924.091-1.858.035-2.788.053-1.452.064-4.82-1.175-2.394-2.863.88-.612 2.396-.495 3.342-.532 5.141.699 9.454 3.777 11.952 8.094.62 1.07 1.024 2.24 1.537 3.36.261 1.28.676 2.538.785 3.836.549 6.49-2.48 12.639-6.792 17.517-1.281 1.45-2.783 2.708-4.174 4.063-9.046 7.398-20.235 11.33-31.813 13.476-2.578.477-5.19.77-7.784 1.155-11.442 1.142-23.152 1.524-34.474-.743-1.566-.313-3.097-.769-4.646-1.154-1.735-.514-10.14-3.52-9.415-6.386.109-.428.506-.739.759-1.108 2.474-.622 6.504.178 6.724 3.23.052.72-.252 1.425-.378 2.137-.47.647-.843 1.369-1.41 1.94-5.123 5.154-16.353 8.073-23.206 10.008-14.126 3.178-28.706 5.04-43.241 4.659-2.928-.077-5.845-.371-8.767-.557-10.464-1.423-23.346-3.004-31.811-9.683-1.095-.864-1.954-1.968-2.93-2.953-.51-1.024-1.215-1.979-1.527-3.072-1.099-3.841 1.177-7.672 4.452-9.795.638-.414 1.37-.68 2.054-1.02 1.248-.528 5.258-.79 4.45 1.714-.524 1.623-1.798 2.225-3.11 3.211-7.497 3.924-16.154 4.548-24.538 3.885-2.435-.192-4.849-.566-7.273-.849-13.792-2.466-27.532-6.79-38.977-14.74-2.305-1.601-4.367-3.498-6.55-5.246-1.902-1.983-3.945-3.85-5.706-5.948-7.066-8.413-12.279-18.873-11.925-29.883.093-2.875.88-5.693 1.321-8.54 4.664-11.22 1.941-5.928 8.063-15.924" style="opacity:1;fill:#d5f6ff;fill-opacity:1;stroke:#000;stroke-width:1.00000012;stroke-linecap:butt;stroke-linejoin:miter;stroke-miterlimit:4;stroke-dasharray:none;stroke-dashoffset:0;stroke-opacity:.82647059" transform="translate(82.693 -206.113)"/><path d="M-139.852 500.317c.65-1.331 1.212-2.709 1.95-3.993 1.924-3.35 2.65-3.889 5.15-6.7 2.485-2.004 2.985-2.717 5.919-3.917 4.33-1.77 9.056-1.712 13.5-.47 1.094.45 2.23.807 3.28 1.35 4.182 2.165 7.739 5.834 9.493 10.23.465 1.165.709 2.406 1.063 3.61.363 3.46.69 4.517.149 8.054-.86 5.613-4.012 10.12-8.39 13.602-1.255.768-2.45 1.644-3.765 2.303-5.253 2.631-11.264 3.62-16.991 2.075-1.293-.35-2.507-.941-3.76-1.412-1.095-.67-2.246-1.253-3.283-2.008-3.6-2.622-6.566-6.413-7.943-10.677-.279-.863-.388-1.773-.582-2.66 0-.915-.083-1.833 0-2.744.309-3.414 2.13-6.431 4.263-9.012" style="opacity:1;fill:#d5f6ff;fill-opacity:1;stroke:#000;stroke-width:1;stroke-linecap:butt;stroke-linejoin:miter;stroke-miterlimit:4;stroke-dasharray:none;stroke-dashoffset:0;stroke-opacity:.82647059" transform="translate(82.693 -206.113)"/><path d="M659.91 1159.293c-4.911-.108-9.604-1.09-14.26-2.539-6.683-2.381-12.623-6.42-17.448-11.477-1.11-1.164-2.111-2.42-3.167-3.629-4.216-5.557-7.392-11.882-8.692-18.71-.938-4.93-.641-6.577-.55-11.615 1.282-11.794 6.402-22.536 14.14-31.68 1.756-2.075 3.727-3.972 5.59-5.959 12.127-11.348 26.95-19.517 42.751-25.048 3.498-1.224 7.089-2.183 10.633-3.274 13.21-3.535 26.828-5.58 40.54-5.56 7.021.01 8.503.338 15.2 1.065.774 2.486-.14 3.897-3.174 3.96-.453-.812-1.086-1.551-1.36-2.435-1.546-4.99 2.518-9.773 6.607-12.23 1.977-1.188 4.169-2.004 6.253-3.006 15.742-6.11 32.644-9.076 49.54-9.828 3.77-.168 7.545-.097 11.317-.146 17.59.72 35.363 2.876 52.088 8.418 2.642.875 5.194 1.986 7.791 2.979 6.176 3.065 17.531 8.215 18.911 15.839.159.874-.041 1.776-.062 2.664l-1.159-1.236s-.081-.13 2.233-.543c9.555-1.023 19.312-.074 28.442 2.862 2.052.66 4.031 1.516 6.047 2.274 7.985 3.49 14.82 8.702 19.84 15.689 3.164 4.402 3.742 6.22 6.03 11.087 3.663 9.888 4.745 20.659 1.785 30.889-.466 1.614-1.186 3.149-1.78 4.724-1.672 3.244-5.782 9.895-10.503 9.323-.382-.046-.692-.325-1.038-.487-.095-.348-.392-.698-.285-1.043.883-2.852 6.32-2.764 8.515-2.277 1.163.258 2.244.784 3.366 1.176 1.103.739 2.305 1.356 3.31 2.217 5.37 4.598 7.21 11.472 7.336 18.193.041 2.175-.235 4.346-.353 6.52-1.77 12.188-7.111 23.538-14.798 33.312-1.38 1.756-2.951 3.363-4.427 5.045-5.638 5.535-12.505 10.19-20.687 11.014-.925.093-1.859.036-2.788.054-1.452.066-4.82-1.195-2.395-2.914.88-.624 2.397-.504 3.343-.542 5.14.712 9.454 3.846 11.952 8.241.619 1.09 1.024 2.281 1.536 3.422.262 1.301.676 2.582.786 3.905.549 6.608-2.48 12.867-6.793 17.834-1.28 1.476-2.782 2.758-4.174 4.136-9.045 7.533-20.235 11.536-31.813 13.72-2.577.487-5.189.785-7.783 1.178-11.442 1.162-23.152 1.55-34.474-.757-1.567-.32-3.097-.783-4.646-1.175-1.735-.524-10.14-3.584-9.415-6.502.108-.436.506-.752.758-1.128 2.475-.633 6.505.181 6.725 3.289.052.733-.252 1.45-.378 2.176-.47.658-.843 1.393-1.411 1.975-5.123 5.247-16.352 8.22-23.206 10.189-14.125 3.235-28.705 5.13-43.24 4.743-2.929-.078-5.845-.378-8.768-.566-10.463-1.45-23.346-3.059-31.81-9.859-1.096-.88-1.954-2.004-2.93-3.007-.51-1.042-1.215-2.014-1.528-3.128-1.098-3.91 1.177-7.811 4.452-9.973.639-.42 1.37-.691 2.055-1.037 1.248-.539 5.258-.805 4.45 1.744-.524 1.653-1.799 2.265-3.11 3.27-7.497 3.995-16.155 4.63-24.539 3.955-2.434-.196-4.848-.576-7.272-.864-13.793-2.511-27.532-6.914-38.977-15.008-2.305-1.63-4.367-3.56-6.55-5.341-1.903-2.019-3.945-3.92-5.706-6.056-7.066-8.566-12.279-19.215-11.925-30.425.092-2.927.88-5.796 1.321-8.694 4.664-11.424 1.94-6.036 8.063-16.214" style="opacity:1;fill:#d5f6ff;fill-opacity:1;stroke:#000;stroke-width:1.00000012;stroke-linecap:butt;stroke-linejoin:miter;stroke-miterlimit:4;stroke-dasharray:none;stroke-dashoffset:0;stroke-opacity:.82647059" transform="translate(82.693 -206.113)"/><path d="M285.648 63.669c-14.047-.485-27.432-4.913-40.564-9.54-14.67-5.836-30.368-13.553-37.183-28.84-1.286-2.886-1.818-6.052-2.727-9.078-.036-3.329-.522-6.684-.108-9.987 2.102-16.777 14.018-30.734 26.897-40.722 3.959-3.07 8.33-5.567 12.494-8.351 4.579-2.209 9.015-4.74 13.736-6.625 13.677-5.461 28.223-7.952 42.916-7.826 10.89.093 14.263 1.088 24.712 2.888 8.398 2.048 16.865 4.318 24.365 8.767 1.915 1.136 4.609 2.99 5.855 5.082.243.408.167.935.25 1.402-.49.187-.955.67-1.467.56-.727-.154-1.32-.728-1.836-1.263-2.657-2.754-3.384-6.717-2.026-10.314.676-1.79 1.912-3.316 2.868-4.974 1.844-1.789 3.515-3.777 5.534-5.367 13.601-10.708 29.025-13.93 45.976-15.008 5.157-.328 10.335-.149 15.502-.223 14.451.525 28.925 2.115 42.826 6.274 6.347 1.9 13.006 4.566 18.654 8.136 1.976 1.249 3.678 2.885 5.517 4.328 1.872 2.145 5.698 5.943 4.53 9.42-.45 1.34-1.919 1.626-2.958.683-.595-.539-.727-1.43-1.09-2.146.141-1.107.02-2.28.423-3.321 1.36-3.503 4.295-6.284 7.234-8.43 4.95-3.61 10.79-6.269 16.593-8.11 3.853-1.223 7.846-1.947 11.769-2.92 4.468-.505 8.91-1.384 13.404-1.514 5.015-.146 10.041.206 15.035.688 14.54 1.404 28.894 5.011 42.077 11.396 4.08 1.976 7.868 4.502 11.802 6.753 3.319 2.62 6.86 4.981 9.958 7.86 10.032 9.324 18.72 22.842 18.12 37.102-.123 2.931-1.141 5.755-1.712 8.633-1.397 2.506-2.45 5.237-4.191 7.517-6.313 8.267-16.564 13.146-26.774 14.05-1.385.124-2.78-.063-4.17-.095-.618-.266-1.594-.178-1.853-.798-.792-1.901 2.379-2.21 4.31-2.165 6.792.16 12.159 2.71 18.212 5.393 2.241 1.413 4.616 2.634 6.725 4.24 6.493 4.943 12.353 11.804 14.826 19.721 2.258 7.226 1.222 9.242.348 16.594-1.05 2.806-1.788 5.75-3.15 8.419-6.256 12.259-18.55 22.187-30.697 28.18-3.36 1.657-6.942 2.817-10.413 4.225-13.64 3.416-6.925 2.112-20.122 4.02" style="opacity:1;fill:#d5f6ff;fill-opacity:1;stroke:#000;stroke-width:.73000009;stroke-linecap:butt;stroke-linejoin:miter;stroke-miterlimit:4;stroke-dasharray:none;stroke-dashoffset:0;stroke-opacity:1" transform="translate(82.693 -206.113)"/><path d="m580.312 105.275 1.607 3.717c1.087 4.399 1.806 5.717 1.218 10.484-.892 7.233-4.63 13.527-10.042 18.324-2.16 1.914-4.684 3.372-7.026 5.057-7.736 3.692-9.15 4.843-17.61 6.923-11.895 2.926-24.325 3.023-36.447 1.877-2.484-.415-4.99-.719-7.452-1.246-6.584-1.41-13.722-3.702-19.13-7.885-.735-.568-1.347-1.28-2.021-1.92-.353-.497-.88-.908-1.058-1.491-.302-.992 0-1.76.929-1.318 1.32.628 2.006 2.36 2.786 3.447.292.72.677 1.407.874 2.158 1.324 5.042-.907 10.522-3.86 14.547-1.235 1.68-2.754 3.133-4.13 4.699-5.709 4.336-6.574 5.58-13.594 8.306-12.565 4.88-26.195 4.691-39.374 3.255-3.183-.52-6.39-.915-9.549-1.561-9.673-1.98-19.637-5.175-27.955-10.641-1.34-.882-2.541-1.96-3.812-2.94-1.56-1.622-2.95-2.818-4.057-4.757-1.564-2.739 1.158-3.792.323-.317-.306.605-.53 1.26-.918 1.815-3.52 5.039-10.809 8.445-16.474 10.04-2.763.778-5.63 1.12-8.446 1.681-3.205.006-6.425.315-9.616.018-14.636-1.36-28.597-8.309-39.66-17.777-2.889-2.471-5.42-5.331-8.13-7.997-5.78-7.714-7.767-9.389-11.562-18.241-4.971-11.597-6.147-24.265-4.978-36.716 1.376-9.449 2.87-19.082 9.158-26.685" style="opacity:1;fill:#d5f6ff;fill-opacity:1;stroke:#000;stroke-width:.73000009;stroke-linecap:butt;stroke-linejoin:miter;stroke-miterlimit:4;stroke-dasharray:none;stroke-dashoffset:0;stroke-opacity:1" transform="translate(82.693 -206.113)"/><path d="M-451.939 117.909c-14.047-.485-32.908-4.51-45.94-9.415-14.776-5.56-29.867-14.178-36.682-29.465-1.286-2.885-2.262-5.952-2.727-9.078a36.965 36.965 0 0 1-.108-9.987c2.102-16.776 14.018-30.734 26.897-40.721 3.959-3.07 8.329-5.568 12.493-8.352 4.58-2.209 9.016-4.74 13.737-6.625 13.676-5.461 28.223-7.952 42.916-7.826 10.89.093 14.263 1.088 24.712 2.888 8.398 2.048 16.865 4.319 24.365 8.768 1.915 1.135 4.609 2.989 5.855 5.081.243.408.166.935.25 1.402-.49.187-.955.67-1.468.561-.726-.155-1.32-.73-1.835-1.264-2.657-2.754-3.384-6.717-2.026-10.314.676-1.79 1.912-3.316 2.867-4.974 1.845-1.789 3.515-3.777 5.534-5.367 13.602-10.708 29.026-13.93 45.976-15.008 5.158-.328 10.335-.149 15.503-.223 14.45.525 28.925 2.115 42.826 6.274 6.347 1.9 13.006 4.566 18.654 8.136 1.976 1.249 3.678 2.885 5.517 4.328 1.872 2.145 5.697 5.943 4.53 9.42-.45 1.34-1.919 1.626-2.959.684-.594-.54-.726-1.432-1.09-2.147.142-1.107.02-2.28.424-3.32 1.36-3.504 4.294-6.285 7.234-8.43 4.95-3.612 10.79-6.27 16.593-8.111 3.853-1.222 7.846-1.946 11.768-2.92 4.469-.505 8.91-1.384 13.405-1.514 5.015-.146 10.041.206 15.035.688 14.54 1.404 28.894 5.011 42.077 11.397 4.079 1.975 7.868 4.501 11.801 6.752 3.32 2.62 6.86 4.981 9.958 7.86 10.033 9.324 18.722 22.842 18.122 37.103-.124 2.93-1.142 5.754-1.713 8.632-1.397 2.506-2.45 5.237-4.191 7.518-6.313 8.266-16.564 13.145-26.775 14.05-1.385.123-2.78-.064-4.17-.096-.617-.266-1.594-.178-1.852-.798-.793-1.901 2.379-2.21 4.31-2.164 6.792.158 12.159 2.71 18.212 5.392 2.241 1.413 4.616 2.634 6.724 4.24 6.494 4.943 12.353 11.804 14.827 19.721 2.258 7.226 1.221 9.242.348 16.594-1.05 2.806-1.788 5.75-3.15 8.419-6.256 12.26-18.55 22.187-30.698 28.18a78.574 78.574 0 0 1-10.412 4.225c-4.147 1.352-9.793 2.866-15.304 3.459 1.8 3.381 2.832 6.887 2.244 11.655-.892 7.232-4.63 13.526-10.042 18.323-2.16 1.914-4.684 3.372-7.026 5.057-7.736 3.692-9.151 4.843-17.61 6.923-11.896 2.926-24.325 3.023-36.447 1.878-2.484-.416-4.99-.72-7.452-1.247-6.584-1.41-13.722-3.702-19.13-7.885-.735-.568-1.347-1.28-2.021-1.92-.353-.497-.88-.908-1.058-1.491-.302-.992-.001-1.76.928-1.318 1.32.628 2.007 2.36 2.787 3.447.291.72.677 1.408.874 2.158 1.324 5.042-.907 10.522-3.86 14.547-1.235 1.681-2.754 3.133-4.13 4.7-5.709 4.335-6.574 5.579-13.595 8.305-12.564 4.88-26.194 4.691-39.373 3.255-3.183-.52-6.39-.914-9.55-1.561-9.673-1.98-19.637-5.175-27.954-10.641-1.341-.882-2.542-1.96-3.813-2.94-1.559-1.622-2.948-2.818-4.056-4.757-1.564-2.739 1.158-3.792.323-.317-.306.605-.53 1.26-.918 1.815-3.52 5.039-10.81 8.445-16.474 10.04-2.763.778-5.63 1.12-8.446 1.681-3.205.006-6.425.315-9.617.019-14.635-1.361-28.597-8.31-39.66-17.778-2.888-2.471-5.42-5.331-8.129-7.997-5.78-7.714-7.767-9.388-11.562-18.241-4.971-11.597-6.147-24.265-4.978-36.716 1.376-9.449 3.995-18.582 7.908-24.81" style="opacity:1;fill:#d5f6ff;fill-opacity:1;stroke:#000;stroke-width:.73000008;stroke-linecap:butt;stroke-linejoin:miter;stroke-miterlimit:4;stroke-dasharray:none;stroke-dashoffset:0;stroke-opacity:1" transform="translate(82.693 -206.113)"/><path d="M-510.353 414.42c-14.02-.982-32.727-5.675-45.576-11.038-14.57-6.082-29.346-15.23-35.614-30.748-1.183-2.93-2.05-6.03-2.403-9.17a36.965 36.965 0 0 1 .247-9.985c2.696-16.69 15.1-30.217 28.325-39.74 4.065-2.928 8.522-5.27 12.782-7.904 4.655-2.044 9.178-4.416 13.963-6.133 13.862-4.972 28.488-6.945 43.167-6.298 10.88.48 14.215 1.594 24.594 3.763 8.32 2.346 16.7 4.915 24.038 9.627 1.873 1.203 4.5 3.151 5.671 5.287.228.416.133.94.2 1.41-.495.169-.978.635-1.486.508-.721-.18-1.293-.776-1.79-1.328-2.557-2.847-3.143-6.833-1.658-10.38.739-1.765 2.028-3.246 3.042-4.869 1.907-1.722 3.647-3.65 5.72-5.167 13.974-10.218 29.502-12.892 46.48-13.367 5.167-.144 10.334.218 15.501.327 14.423 1.038 28.832 3.14 42.577 7.79 6.275 2.124 12.836 5.025 18.353 8.794 1.93 1.318 3.573 3.014 5.36 4.52 1.795 2.211 5.483 6.142 4.193 9.575-.497 1.323-1.975 1.557-2.981.579-.575-.56-.675-1.457-1.013-2.185.18-1.1.1-2.278.541-3.303 1.483-3.452 4.515-6.128 7.528-8.167 5.075-3.434 11.006-5.883 16.871-7.517 3.893-1.085 7.91-1.667 11.864-2.5 4.484-.346 8.954-1.067 13.45-1.038 5.017.032 10.028.563 15.001 1.222 14.481 1.918 28.699 6.033 41.647 12.882 4.006 2.12 7.702 4.778 11.554 7.168 3.224 2.736 6.68 5.22 9.673 8.208 9.695 9.674 17.898 23.492 16.792 37.722-.227 2.925-1.345 5.71-2.018 8.566-1.485 2.455-2.634 5.147-4.455 7.364-6.602 8.038-17.02 12.55-27.256 13.091-1.389.074-2.776-.162-4.164-.243-.608-.288-1.587-.234-1.823-.864-.725-1.928 2.456-2.123 4.385-2.01 6.781.4 12.054 3.14 18.008 6.036 2.19 1.491 4.52 2.796 6.57 4.475 6.314 5.17 11.926 12.236 14.118 20.236 2 7.301.892 9.279-.242 16.596-1.149 2.767-1.991 5.682-3.447 8.301-6.687 12.03-19.326 21.515-31.678 27.073a78.576 78.576 0 0 1-10.556 3.853c-4.192 1.203-9.889 2.516-15.417 2.913 1.679 3.443 2.586 6.984 1.829 11.727-1.148 7.197-5.107 13.354-10.686 17.956-2.226 1.836-4.8 3.203-7.201 4.805-7.862 3.414-9.317 4.515-17.844 6.293-11.993 2.501-24.418 2.158-36.492.583-2.467-.504-4.96-.896-7.403-1.51-6.53-1.643-13.582-4.188-18.837-8.56-.715-.594-1.302-1.327-1.952-1.99-.335-.51-.848-.94-1.005-1.528-.267-1.002.062-1.758.975-1.284 1.297.675 1.921 2.43 2.663 3.544.265.729.626 1.43.796 2.188 1.145 5.085-1.28 10.483-4.374 14.4-1.293 1.636-2.863 3.033-4.294 4.55-5.859 4.13-6.768 5.343-13.88 7.818-12.73 4.431-26.345 3.758-39.465 1.855-3.162-.633-6.353-1.14-9.487-1.899-9.597-2.322-19.442-5.868-27.56-11.626-1.309-.929-2.47-2.05-3.706-3.074-1.5-1.675-2.847-2.92-3.885-4.898-1.466-2.792 1.292-3.748.335-.304-.328.593-.575 1.24-.983 1.78-3.696 4.911-11.102 8.057-16.82 9.45-2.789.679-5.666.92-8.5 1.38-3.204-.108-6.432.087-9.611-.323-14.578-1.88-28.284-9.319-39.005-19.174-2.798-2.572-5.226-5.52-7.84-8.28-5.502-7.915-7.428-9.659-10.907-18.64-4.556-11.766-5.282-24.469-3.671-36.87 1.71-9.394 4.652-18.428 8.783-24.514M-530.152 752.418c-14.02-.983-32.727-5.675-45.576-11.039-14.57-6.082-29.346-15.23-35.614-30.748-1.183-2.93-2.05-6.03-2.403-9.17a36.965 36.965 0 0 1 .247-9.985c2.696-16.69 15.1-30.217 28.325-39.74 4.065-2.928 8.522-5.27 12.782-7.904 4.655-2.044 9.178-4.416 13.963-6.133 13.862-4.972 28.488-6.945 43.167-6.298 10.88.48 14.215 1.594 24.594 3.763 8.32 2.346 16.7 4.915 24.038 9.627 1.873 1.203 4.5 3.151 5.671 5.287.228.416.133.94.2 1.41-.495.169-.978.635-1.486.508-.721-.18-1.293-.776-1.79-1.328-2.557-2.847-3.143-6.833-1.658-10.38.739-1.765 2.028-3.246 3.042-4.868 1.907-1.723 3.647-3.65 5.72-5.168 13.974-10.218 29.502-12.892 46.48-13.367 5.167-.144 10.334.218 15.501.328 14.423 1.038 28.832 3.14 42.577 7.79 6.275 2.123 12.836 5.024 18.353 8.793 1.93 1.318 3.573 3.014 5.36 4.52 1.795 2.211 5.483 7.392 4.193 10.826-.497 1.322-1.975 1.557-2.981.67-.575-.483-.675-1.406-1.013-2.155.18-1.134.1-2.345.541-3.4 1.483-3.555 4.515-6.31 7.528-8.409 5.075-3.534 11.006-6.432 16.871-8.22 3.893-1.186 7.91-1.822 11.864-2.734 4.484-.378 8.954-1.166 13.45-1.134 5.017.035 10.028.615 15.001 1.336 14.481 2.098 28.699 6.597 41.647 14.087 4.006 2.317 7.702 5.225 11.554 7.838 3.224 2.992 6.68 5.71 9.673 8.975 9.695 10.58 17.898 25.69 16.792 41.25-.227 3.2-1.345 6.246-2.018 9.368-1.485 2.684-2.634 5.629-4.455 8.053-5.687 7.57-17.895 13.723-27.256 14.316-1.389.08-2.776-.178-4.164-.267-.608-.315-1.587-.256-1.9-1.085-.696-2.105 2.49-2.126 4.41-1.907 6.75.771 11.865 3.796 17.65 7.014 2.106 1.61 4.36 3.04 6.316 4.829 6.02 5.51 11.237 12.872 12.986 20.98 1.597 7.4.382 9.313-1.151 16.557-1.299 2.7-2.3 5.565-3.897 8.1-7.337 11.645-20.477 20.422-33.115 25.295a78.573 78.573 0 0 1-10.751 3.268c-4.252.972-10.012 1.97-15.554 2.064 1.487 3.53 2.199 7.115 1.183 11.81-1.54 7.122-5.831 13.053-11.654 17.342-2.324 1.711-4.97 2.935-7.454 4.403-8.038 2.978-9.55 3.997-18.162 5.305-12.112 1.84-24.5.816-36.469-1.419-2.436-.638-4.904-1.167-7.31-1.914-6.429-1.998-13.33-4.925-18.339-9.579-.68-.632-1.227-1.396-1.84-2.095-.306-.527-.794-.984-.919-1.58-.211-1.015.158-1.752 1.044-1.228 1.258.744 1.785 2.53 2.464 3.683.225.743.547 1.463.676 2.229.863 5.14-1.853 10.397-5.158 14.139-1.38 1.563-3.025 2.871-4.537 4.307-6.076 3.803-7.05 4.964-14.288 7.046-12.954 3.726-26.51 2.308-39.507-.312-3.123-.806-6.28-1.487-9.369-2.416-9.455-2.846-19.09-6.926-26.88-13.12-1.257-1-2.355-2.182-3.532-3.273-1.407-1.755-2.683-3.072-3.611-5.104-1.31-2.868 1.495-3.67.35-.285-.359.575-.64 1.206-1.078 1.724-3.96 4.7-11.527 7.435-17.312 8.513-2.822.525-5.71.608-8.564.912-3.193-.284-6.427-.266-9.579-.85-14.453-2.676-27.73-10.856-37.894-21.283-2.653-2.722-4.916-5.8-7.374-8.698-5.06-8.205-6.888-10.052-9.869-19.21-3.904-11.999-3.932-24.722-1.644-37.016 2.223-9.286 5.655-18.145 10.114-23.995M-548.795 1084.356c-13.978-1.473-32.509-6.818-45.162-12.627-14.348-6.589-28.795-16.248-34.516-31.976-1.08-2.97-1.837-6.098-2.08-9.248-.257-3.32-.05-6.704.595-9.97 3.278-16.587 16.148-29.67 29.699-38.726 4.165-2.783 8.7-4.967 13.05-7.45 4.724-1.88 9.328-4.093 14.17-5.641 14.027-4.485 28.713-5.944 43.36-4.784 10.856.86 14.151 2.09 24.447 4.622 8.234 2.635 16.52 5.496 23.687 10.462 1.83 1.268 4.387 3.307 5.483 5.482.213.424.1.944.15 1.416-.5.152-1 .6-1.503.456-.714-.205-1.265-.82-1.742-1.39-2.456-2.934-2.902-6.939-1.294-10.431.8-1.738 2.14-3.173 3.21-4.76 1.967-1.654 3.773-3.52 5.899-4.963 14.322-9.724 29.934-11.852 46.919-11.733 5.168.036 10.32.58 15.48.87 14.377 1.542 28.704 4.147 42.277 9.276 6.197 2.341 12.652 5.47 18.035 9.43 1.883 1.384 3.465 3.137 5.198 4.705 1.717 2.272 5.221 7.579 3.812 10.965-.543 1.305-2.029 1.487-3.003.566-.558-.503-.626-1.429-.937-2.19.22-1.126.183-2.34.66-3.38 1.606-3.5 4.732-6.146 7.818-8.138 5.195-3.355 11.224-6.044 17.148-7.625 3.932-1.05 7.968-1.544 11.953-2.317 4.494-.221 8.989-.852 13.481-.663 5.013.21 10 .966 14.945 1.86 14.399 2.603 28.45 7.598 41.128 15.536 3.922 2.456 7.515 5.492 11.273 8.238 3.117 3.102 6.475 5.94 9.352 9.308 9.32 10.912 16.989 26.3 15.34 41.813-.34 3.188-1.564 6.194-2.346 9.29-1.578 2.632-2.829 5.534-4.734 7.893-5.948 7.366-18.364 13.089-27.74 13.353-1.39.032-2.768-.275-4.153-.412-.596-.336-1.576-.312-1.954-1.15-.236-2.13 2.929-2.039 4.775-1.752 6.493 1.006 10.78 4.209 15.683 7.627 1.67 1.682 3.535 3.19 5.01 5.047 4.541 5.716 7.806 13.257 7.438 21.42-.335 7.452-2.035 9.323-5.433 16.508-1.988 2.653-3.723 5.481-5.963 7.959-10.294 11.38-25.598 19.693-39.392 24.12a92.46 92.46 0 0 1-11.507 2.89c-4.468.823-10.438 1.619-15.775 1.518 1.428 3.58 1.962 7.188.885 11.844-1.635 7.065-5.741 12.841-11.194 16.924-2.176 1.63-4.63 2.76-6.946 4.14-7.433 2.695-8.847 3.66-16.75 4.666-11.117 1.415-22.394-.043-33.25-2.695-2.203-.723-4.44-1.337-6.611-2.169-5.806-2.221-12.014-5.388-16.437-10.214-.602-.656-1.076-1.439-1.613-2.158-.263-.537-.694-1.011-.789-1.612-.16-1.021.2-1.746.992-1.19 1.126.787 1.55 2.591 2.132 3.767.182.75.453 1.481.546 2.25.624 5.169-2.024 10.327-5.161 13.95-1.31 1.514-2.853 2.764-4.28 4.146-5.669 3.588-6.595 4.714-13.27 6.542-11.944 3.27-24.276 1.378-36.057-1.695-2.826-.914-5.686-1.706-8.476-2.742-8.541-3.175-17.207-7.59-24.121-14.053-1.115-1.042-2.08-2.263-3.12-3.394-1.228-1.804-2.35-3.164-3.133-5.227-1.105-2.912 1.482-3.617.329-.273-.347.562-.624 1.183-1.04 1.685-3.765 4.56-10.761 7.028-16.078 7.902-2.593.426-5.23.407-7.846.611-2.906-.394-5.86-.49-8.719-1.184-13.109-3.18-24.969-11.82-33.915-22.597-2.335-2.813-4.302-5.967-6.454-8.95-4.358-8.377-5.967-10.287-8.396-19.544-3.18-12.128-2.8-24.844-.317-37.05 2.326-9.203 5.743-17.937 10-23.627M-534.205 1428.156c-11.477-.999-23.857-3.346-33.351-6.323-15.346-4.812-31.202-12.768-39.075-28.153-1.486-2.904-2.668-6.016-3.336-9.22-.703-3.377-1.048-6.884-.834-10.33 1.084-17.495 11.604-32.7 24.051-43.857 3.826-3.43 7.893-6.689 12.158-9.54 4.318-2.887 9.054-5.48 13.727-7.733 13.54-6.524 28.647-9.93 43.568-10.737 11.058-.598 14.687-.12 25.362 1.413 8.706 1.25 17.386 3.393 25.277 7.52 2.015 1.052 4.865 2.798 6.26 4.884.273.407 1.103.957 1.12 1.84-.597.556-1.096 1.005-1.599.86-.714-.206-1.265-.82-1.742-1.39-2.456-2.934-2.902-6.939-1.294-10.431.8-1.739 2.14-3.173 3.21-4.76 1.967-1.654 3.773-3.52 5.9-4.964 14.321-9.723 29.933-11.851 46.918-11.732 5.168.036 10.32.58 15.48.87 14.378 1.542 28.704 4.147 42.277 9.276 6.198 2.341 12.653 5.47 18.035 9.43 1.883 1.384 3.465 3.137 5.198 4.705 1.717 2.272 5.221 7.579 3.812 10.965-.543 1.304-2.029 1.487-3.003.566-.558-.503-.625-1.429-.937-2.19.22-1.126.183-2.34.66-3.38 1.606-3.5 4.733-6.146 7.818-8.139 5.195-3.354 11.225-6.043 17.148-7.624 3.933-1.05 7.969-1.545 11.953-2.317 4.494-.221 8.989-.853 13.482-.663 5.012.21 10 .966 14.944 1.86 14.399 2.603 28.45 7.598 41.128 15.536 3.923 2.456 7.515 5.492 11.273 8.237 3.117 3.103 6.475 5.94 9.353 9.31 9.319 10.91 16.988 26.3 15.339 41.812-.34 3.188-1.564 6.194-2.345 9.29-1.578 2.632-2.83 5.534-4.735 7.893-5.948 7.366-18.364 13.089-27.74 13.353-1.39.032-2.768-.275-4.152-.412-.597-.336-1.577-.312-1.954-1.15-.237-2.13 2.928-2.039 4.775-1.752 6.492 1.006 10.78 4.209 15.682 7.627 1.67 1.682 3.535 3.19 5.01 5.047 4.542 5.716 7.806 13.257 7.439 21.42-.335 7.452-2.036 9.323-5.434 16.508-1.987 2.653-3.722 5.481-5.963 7.959-10.293 11.38-25.597 19.693-39.391 24.12a92.478 92.478 0 0 1-11.508 2.89c-4.468.823-10.438 1.619-15.775 1.518 1.428 3.58 1.963 7.188.885 11.844-1.634 7.065-5.74 12.841-11.194 16.924-2.176 1.63-4.63 2.76-6.946 4.14-7.433 2.694-8.847 3.66-16.75 4.666-11.117 1.415-22.393-.043-33.25-2.695-2.203-.723-4.44-1.338-6.611-2.169-5.806-2.221-12.014-5.388-16.437-10.214-.602-.656-1.075-1.439-1.613-2.158-.263-.537-.694-1.011-.788-1.612-.161-1.021.2-1.746.992-1.19 1.125.787 1.548 2.591 2.132 3.767.181.75.452 1.481.545 2.25.624 5.169-2.024 10.327-5.16 13.95-1.311 1.514-2.854 2.764-4.28 4.146-5.67 3.588-6.596 4.714-13.27 6.542-11.945 3.27-24.277 1.378-36.058-1.695-2.825-.914-5.686-1.706-8.476-2.743-8.541-3.174-17.207-7.59-24.12-14.052-1.116-1.042-2.08-2.263-3.12-3.394-1.229-1.804-2.352-3.164-3.134-5.227-1.105-2.912 3.957-3.175.176.26-3.272 2.625-5.728 3.903-10.272 5.024-1.038.256-5 .78-5 .78-6.176.41-12.694.153-19.756-1.754a81.716 81.716 0 0 1-5.207-1.62c-10.33-3.546-19.832-9.517-27.714-17.718a74.974 74.974 0 0 1-5-5.795c-1.605-2.053-3.204-4.117-4.513-6.383-7.871-13.622-10.779-25.231-11.807-37.692-.548-6.648-.004-15.68 2.156-23.074.334-1.145 1.68-4.198 1.68-4.198M-540.843 1774.571c-11.478-1-23.858-3.346-33.352-6.324-15.346-4.812-31.202-12.767-39.074-28.152-1.487-2.905-2.669-6.016-3.336-9.221-.703-3.377-1.048-6.884-.835-10.329 1.084-17.496 11.604-32.7 24.052-43.858 3.825-3.429 7.892-6.688 12.157-9.54 4.318-2.886 9.054-5.48 13.728-7.732 13.538-6.524 28.646-9.93 43.567-10.737 11.058-.598 14.687-.12 25.362 1.412 8.706 1.25 17.387 3.394 25.277 7.52 2.015 1.053 4.865 2.799 6.26 4.885.273.407 1.103.957 1.12 1.839-.596.556-1.095 1.005-1.599.86-.713-.205-1.265-.82-1.741-1.39-2.457-2.934-2.903-6.938-1.294-10.43.8-1.739 2.14-3.174 3.21-4.76 1.966-1.655 3.772-3.52 5.898-4.964 14.322-9.723 29.935-11.851 46.92-11.732 5.167.036 10.32.58 15.48.87 14.377 1.542 28.703 4.147 42.277 9.275 6.197 2.342 12.652 5.47 18.034 9.43 1.883 1.385 3.466 3.137 5.198 4.706 1.717 2.272 5.222 7.578 3.812 10.965-.543 1.304-2.029 1.486-3.003.566-.557-.503-.625-1.43-.936-2.19.22-1.127.182-2.34.66-3.38 1.605-3.5 4.732-6.146 7.817-8.139 5.196-3.355 11.225-6.043 17.148-7.624 3.933-1.05 7.969-1.545 11.953-2.317 4.494-.221 8.99-.853 13.482-.664 5.012.211 10 .966 14.945 1.86 14.398 2.604 28.45 7.598 41.127 15.537 3.923 2.456 7.516 5.491 11.273 8.237 3.118 3.103 6.476 5.94 9.353 9.309 9.32 10.912 16.988 26.3 15.339 41.813-.34 3.188-1.564 6.194-2.345 9.29-1.578 2.631-2.83 5.534-4.734 7.893-5.948 7.366-18.364 13.088-27.74 13.353-1.391.032-2.769-.275-4.153-.413-.596-.335-1.576-.311-1.954-1.15-.237-2.129 2.928-2.038 4.775-1.752 6.492 1.007 10.78 4.21 15.683 7.627 1.67 1.683 3.535 3.191 5.01 5.047 4.541 5.717 7.805 13.258 7.438 21.421-.335 7.452-2.035 9.322-5.433 16.508-1.988 2.653-3.723 5.48-5.964 7.958-10.293 11.381-25.597 19.693-39.391 24.12a92.46 92.46 0 0 1-11.508 2.891c-4.468.822-10.438 1.619-15.774 1.518 1.427 3.58 1.962 7.188.885 11.844-1.635 7.064-5.741 12.84-11.195 16.924-2.176 1.629-4.63 2.76-6.945 4.139-7.434 2.695-8.848 3.66-16.751 4.667-11.116 1.415-22.393-.042-33.249-2.695-2.204-.723-4.44-1.338-6.612-2.169-5.806-2.221-12.014-5.389-16.437-10.215-.601-.656-1.075-1.438-1.613-2.158-.262-.537-.694-1.01-.788-1.611-.16-1.022.2-1.746.992-1.191 1.125.788 1.549 2.592 2.132 3.768.182.75.452 1.48.545 2.25.625 5.168-2.024 10.326-5.16 13.95-1.31 1.514-2.854 2.764-4.28 4.146-5.67 3.588-6.595 4.714-13.27 6.541-11.945 3.27-24.277 1.379-36.058-1.694-2.825-.914-5.686-1.706-8.476-2.743-8.54-3.174-17.207-7.59-24.12-14.053-1.116-1.042-2.08-2.262-3.12-3.394-1.229-1.803-2.351-3.163-3.134-5.226-1.104-2.913 3.957-3.175.013.216-3.886 1.728-6.584 2.467-11.403 2.776-1.1.07-5.239-.047-5.239-.047-6.392-.528-13.043-1.673-20.021-4.3a95.664 95.664 0 0 1-5.116-2.12c-10.101-4.486-19.014-10.921-25.955-19.024a67.176 67.176 0 0 1-4.32-5.645c-1.358-1.976-2.4-4.044-3.514-6.12-6.242-11.624-7.91-22.653-6.92-31.911.613-5.722 2.045-15.169 5.294-21.158.502-.927 2.31-3.336 2.31-3.336M-541.092 2102.204c-10.805-.953-22.46-3.19-31.398-6.028-14.446-4.587-29.373-12.17-36.785-26.836-1.399-2.769-2.512-5.735-3.14-8.79-.662-3.219-.987-6.562-.786-9.846 1.02-16.677 10.925-31.171 22.642-41.807 3.602-3.269 7.43-6.375 11.446-9.094 4.064-2.751 8.523-5.224 12.923-7.37 12.745-6.22 26.968-9.466 41.015-10.235 10.41-.57 13.826-.115 23.875 1.346 8.197 1.191 16.368 3.235 23.797 7.168 1.896 1.004 4.58 2.668 5.893 4.657.256.387 1.038.911 1.055 1.753-.563.53-1.032.958-1.616.787-.891-.26-1.495-.943-2.017-1.575-2.69-3.256-3.18-7.7-1.418-11.576.877-1.928 2.345-3.52 3.517-5.28 2.154-1.837 4.133-3.907 6.462-5.51 15.69-10.789 32.792-13.15 51.398-13.018 5.662.04 11.306.643 16.958.965 15.751 1.711 31.445 4.602 46.314 10.293 6.79 2.598 13.86 6.07 19.757 10.464 2.063 1.537 3.796 3.481 5.694 5.222 1.881 2.52 5.72 8.41 4.176 12.167-.594 1.448-2.222 1.65-3.363.484-.618-.642-.684-1.555-.988-2.305.214-1.111.178-2.308.644-3.333 1.568-3.452 4.62-6.063 7.633-8.028 5.073-3.31 10.96-5.96 16.744-7.52 3.84-1.035 7.78-1.524 11.67-2.285 4.388-.219 8.777-.841 13.163-.655 4.894.208 9.764.953 14.592 1.835 14.059 2.568 27.778 7.494 40.157 15.323 3.83 2.423 7.338 5.417 11.007 8.125 3.043 3.06 6.322 5.858 9.131 9.18 9.1 10.763 16.588 25.94 14.977 41.241-.33 3.145-1.526 6.11-2.29 9.164-1.54 2.594-2.762 5.457-4.622 7.784-5.807 7.265-17.93 12.909-27.085 13.17-1.358.03-2.703-.271-4.055-.407-.582-.331-1.539-.307-2.57-1.449-.9-2.443 2.266-2.352 4.112-2.066 6.493 1.007 10.78 4.21 15.683 7.627 1.67 1.683 3.535 3.191 5.01 5.047 4.542 5.717 7.806 13.258 7.439 21.421-.336 7.452-2.036 9.322-5.434 16.508-1.988 2.653-3.722 5.48-5.963 7.958-10.293 11.381-25.598 19.693-39.392 24.12a92.46 92.46 0 0 1-11.507 2.891c-4.468.822-10.438 1.619-15.775 1.518 1.428 3.58 1.963 7.188.885 11.844-1.634 7.064-5.74 12.84-11.194 16.924-2.176 1.629-4.63 2.76-6.946 4.139-7.433 2.695-8.847 3.66-16.75 4.667-11.117 1.415-22.394-.043-33.25-2.695-2.203-.723-4.44-1.338-6.611-2.169-5.806-2.221-12.014-5.389-16.437-10.215-.602-.656-1.075-1.438-1.613-2.158-.263-.537-.694-1.01-.788-1.611-.161-1.022.2-1.746.991-1.191 1.126.788 1.55 2.592 2.132 3.768.182.75.453 1.48.546 2.25.624 5.168-2.024 10.326-5.16 13.95-1.311 1.514-2.854 2.764-4.28 4.146-5.67 3.588-6.596 4.714-13.27 6.541-11.945 3.27-24.277 1.379-36.058-1.694-2.825-.914-5.686-1.706-8.476-2.743-8.541-3.174-17.207-7.59-24.121-14.053-1.115-1.042-2.08-2.262-3.12-3.394-1.228-1.803-2.35-3.164-3.133-5.227-1.105-2.912 3.957-3.174.013.217-3.886 1.728-6.584 2.467-11.403 2.776-1.1.07-5.239-.047-5.239-.047-6.393-.529-13.044-1.674-20.022-4.3a95.748 95.748 0 0 1-5.115-2.12c-10.102-4.486-19.015-10.921-25.955-19.024a67.19 67.19 0 0 1-4.32-5.645c-1.358-1.976-2.4-4.044-3.515-6.12-6.241-11.624-7.91-22.654-6.919-31.911.613-5.722 2.045-15.169 5.293-21.158.503-.927 2.31-3.336 2.31-3.336" style="opacity:1;fill:#d5f6ff;fill-opacity:1;stroke:#000;stroke-width:1.00000012;stroke-linecap:butt;stroke-linejoin:miter;stroke-miterlimit:4;stroke-dasharray:none;stroke-dashoffset:0;stroke-opacity:1" transform="translate(82.693 -206.113)"/><path d="M-31.086 311.931c.645-2.05.757-3.114 2.302-4.817 1.425-1.571 3.335-2.57 5.377-3.064 1.035-.25 2.113-.387 3.176-.33 2.923.16 3.75.252 6.557 1.259 3.264 1.171 6.47 3.176 8.792 5.776.81.907 1.622 1.858 2.133 2.962 1.398 3.02 1.825 4.775 1.582 7.466-.488 5.4-3.65 10.3-7.612 13.843-1.701 1.52-3.487 3.034-5.552 4.004-5.212 2.45-7.57 3.445-13.485 3.52a23.638 23.638 0 0 1-6.522-.859c-4.194-1.151-7.278-2.795-9.473-6.658-.901-1.586-1.511-3.402-1.639-5.222-.134-1.918.283-3.871.874-5.7a22.76 22.76 0 0 1 2.844-5.794c2.802-4.108 7.58-7.815 12-10.089.36-.185.767-.263 1.15-.394" style="opacity:.93999999;fill:#e5f6ff;fill-opacity:1;stroke:#000;stroke-width:1.03125012;stroke-linecap:butt;stroke-linejoin:miter;stroke-miterlimit:4;stroke-dasharray:none;stroke-dashoffset:0;stroke-opacity:1" transform="translate(82.693 -206.113)"/><path d="M-81.482 59.991c-10.697-.952-22.236-3.19-31.086-6.028-14.303-4.587-29.082-12.17-36.42-26.836-1.385-2.769-2.487-5.735-3.109-8.79-.655-3.219-.977-6.562-.778-9.846 1.01-16.677 10.816-31.171 22.418-41.807 3.566-3.269 7.356-6.375 11.331-9.094 4.025-2.751 8.439-5.224 12.795-7.37 12.62-6.22 26.7-9.466 40.608-10.235 10.306-.57 13.689-.115 23.639 1.346 8.115 1.191 16.205 3.235 23.56 7.168 1.878 1.004 4.534 2.668 5.835 4.657.254.387 1.028.911 1.044 1.753-.557.53-1.022.958-1.6.787-.882-.26-1.48-.943-1.997-1.575-2.664-3.256-3.147-7.7-1.403-11.576.868-1.928 2.321-3.52 3.482-5.28 2.132-1.837 4.091-3.907 6.397-5.51 15.534-10.789 32.467-13.15 50.889-13.018 5.605.04 11.193.643 16.79.965 15.594 1.711 31.132 4.602 45.854 10.293 6.721 2.598 13.723 6.07 19.56 10.464 2.042 1.537 3.759 3.481 5.638 5.222 1.862 2.52 5.663 8.41 4.135 12.167-.589 1.448-2.2 1.65-3.33.484-.612-.642-.678-1.555-.979-2.305.213-1.111.177-2.308.638-3.333 1.553-3.452 4.575-6.063 7.558-8.028 5.022-3.31 10.85-5.96 16.577-7.52 3.801-1.035 7.703-1.524 11.555-2.285 4.344-.219 8.69-.841 13.032-.655 4.846.208 9.667.953 14.447 1.835 13.92 2.568 27.503 7.494 39.758 15.323 3.793 2.423 7.265 5.417 10.898 8.125 3.014 3.06 6.26 5.858 9.041 9.181 9.01 10.762 16.423 25.94 14.828 41.24-.327 3.145-1.51 6.11-2.267 9.164-1.525 2.594-2.735 5.457-4.576 7.784-5.75 7.265-17.753 12.91-26.817 13.17-1.344.031-2.676-.271-4.014-.407-.576-.331-1.524-.307-2.545-1.449-.89-2.443 2.243-2.352 4.072-2.066 6.428 1.007 10.672 4.21 15.527 7.627 1.653 1.683 3.5 3.191 4.96 5.047 4.497 5.717 7.728 13.257 7.365 21.421-.332 7.452-2.015 9.322-5.38 16.508-1.968 2.653-3.685 5.48-5.904 7.958-10.191 11.381-25.343 19.693-39 24.12a90.807 90.807 0 0 1-11.393 2.891c-4.424.822-10.335 1.618-15.619 1.518 1.414 3.58 1.943 7.188.876 11.844-1.618 7.064-5.684 12.84-11.083 16.924-2.154 1.629-4.584 2.76-6.876 4.139-7.36 2.695-8.76 3.66-16.585 4.667-11.006 1.415-22.17-.043-32.919-2.695-2.182-.723-4.396-1.338-6.546-2.169-5.748-2.221-11.895-5.389-16.274-10.215-.595-.656-1.065-1.438-1.597-2.158-.26-.537-.687-1.01-.78-1.611-.16-1.022.198-1.746.982-1.26 1.132.792 1.464 2.62 2.003 3.833.144.76.382 1.508.432 2.282.333 5.2-2.765 10.171-6.28 13.578-1.469 1.423-3.164 2.568-4.746 3.853-6.168 3.202-7.21 4.264-14.323 5.643-12.73 2.467-31.32 1.012-43.4-3.097-12.05-4.098-21.23-9.74-29.376-18.936-1.041-1.175-2.764-4.596-2.764-4.596-.886-2.037-1.326-5.208-1.326-5.425-.002-3.14 4.347-2.905.375.038-3.285 1.925-5.87 2.928-10.587 3.714-1.077.18-5.166.473-5.166.473-6.35.108-13.015-.371-20.148-2.293a94.065 94.065 0 0 1-5.247-1.602c-10.393-3.461-19.806-8.98-27.44-16.355a66.923 66.923 0 0 1-4.81-5.188c-1.532-1.832-2.762-3.786-4.064-5.742-7.29-10.946-10.018-21.756-9.951-31.066.041-5.755.524-15.297 3.136-21.58.405-.971 1.949-3.548 1.949-3.548M584.732 215.556c-.63-.017-1.101-.567.09-1.722 1.625-2.16 3.796-3.913 5.945-5.329 5.023-3.309 10.851-5.96 16.577-7.52 3.802-1.035 7.704-1.523 11.555-2.285 4.344-.218 8.69-.841 13.033-.655 4.845.208 9.667.953 14.447 1.835 13.919 2.568 27.502 7.494 39.758 15.323 3.792 2.423 7.265 5.417 10.898 8.125 3.013 3.06 6.26 5.858 9.04 9.181 9.01 10.762 16.424 25.94 14.829 41.24-.328 3.145-1.511 6.11-2.267 9.164-1.525 2.595-2.735 5.457-4.576 7.784-5.75 7.265-15.292 12.675-24.356 12.936M-370.964 35.501c-8.953-1.14-18.052-3.068-25.33-5.403-14.304-4.587-29.13-12.146-36.42-26.836-2.938-5.919-4.249-13.916-3.888-20.042.984-16.679 9.907-30.204 21.48-40.87 7.422-6.838 16.418-12.743 25.065-16.464 11.207-4.824 26.7-8.997 40.607-9.766 10.307-.57 13.69-.114 23.64 1.346 8.114 1.192 16.205 3.235 23.56 7.168 1.877 1.004 4.561 3.106 5.855 4.288 2.044 1.866.252 2.404-1.433.383-2.643-3.169-3.123-7.493-1.393-11.265.862-1.877 2.303-3.426 3.454-5.14 2.116-1.786 4.059-3.801 6.346-5.36 15.409-10.5 31.377-14.456 50.479-14.824 5.559-.107 15.096.05 20.631.57 15.49 1.458 28.23 5.013 40.513 10.552 6.501 2.93 15.72 7.956 20.75 12.464 2.042 1.83 3.424 3.229 5.287 5.514.84 1.03 1.95 2.729 2.868 4.602.51.95-.263 1.45-.882 1.434" style="opacity:1;fill:#d5f6ff;fill-opacity:1;stroke:#000;stroke-width:1.03125012;stroke-linecap:butt;stroke-linejoin:miter;stroke-miterlimit:4;stroke-dasharray:none;stroke-dashoffset:0;stroke-opacity:1" transform="translate(82.693 -206.113)"/><path d="M313.825 193.938c-8.953-1.141-18.052-3.069-25.33-5.404-14.304-4.587-28.237-12.146-36.42-26.836-3.298-5.919-5.096-13.916-5.107-20.042-.032-16.679 8.067-30.204 18.992-40.87 7.006-6.838 15.642-12.743 24.062-16.464 10.914-4.824 26.154-8.997 40.014-9.766 10.272-.57 13.682-.114 23.72 1.346 8.188 1.192 16.403 3.235 23.997 7.168 1.939 1.004 4.75 3.106 6.117 4.288" style="opacity:1;fill:none;fill-opacity:1;stroke:#000;stroke-width:1.03125012;stroke-linecap:butt;stroke-linejoin:miter;stroke-miterlimit:4;stroke-dasharray:none;stroke-dashoffset:0;stroke-opacity:1" transform="translate(82.693 -206.113)"/><path d="M90.514 380.274c-8.711.3-21.766-1.322-31.751-4.853-14.138-5-27.739-14.49-35.16-29.964-2.99-6.236-4.357-14.622-4.03-21.027.892-17.439 9.555-31.932 21.138-42.927 7.427-7.05 16.678-12.866 25.356-16.637 11.249-4.887 26.813-8.799 40.802-9.406 10.366-.45 13.773.076 23.792 1.746 8.173 1.362 16.354 3.566 23.749 7.836 1.096.633 2.07 1.315 2.753 1.992 1.637 1.62.034 1.773-.567 1.03-2.71-3.344-2.797-6.488-.992-10.634a21.544 21.544 0 0 1 3.604-5.65c1.972-2.225 4.235-4.179 6.622-5.892 16.078-11.542 33.072-15.278 52.672-16.326 5.794-.31 17.41.169 23.186.713 16.164 1.52 27.532 5.533 40.617 10.678 7.777 3.059 18.118 9.427 22.059 13.083 4.158 3.856 8.307 8.733 9.02 11.549.654 1.238 1.288 3.418-.209 2.08-.547-.489-.877-.802-.223-1.915 1.693-2.19 3.952-3.967 6.19-5.403 5.23-3.356 11.297-5.807 17.259-7.388a79.414 79.414 0 0 1 12.03-2.235c10.651-1.125 19.064-.736 28.805.442 12.736 1.54 23.365 4.874 34.683 9.777 10.373 4.494 20.698 12.702 26.558 18.105 7.448 6.869 13.817 17.293 16.428 26.89 1.925 7.076 2.084 18.367-1.018 25.56-2.528 5.865-5.547 10.223-10.804 14.924-3.974 3.553-11.501 8.577-20.33 10.478-1.679-.071-2.827-2.108-1.272-1.661 2.823 2.331 4.901 5.397 7.211 8.648.987 2.03 2.15 3.927 2.959 6.09 2.488 6.666 3.694 14.895 2.03 22.998-1.52 7.395-3.132 8.918-6.939 15.414-1.963 2.248-3.764 4.723-5.891 6.742-9.769 9.275-22.833 14.44-34.088 16.026a55.266 55.266 0 0 1-9.252.519c-3.542-.099-8.223-.535-12.27-1.738-1.31-.516.293-1.552 1.072-.92 2.634 3.04 3.625 7.614 3.15 12.367-.724 7.212-4.036 13.45-8.882 18.177-1.934 1.885-4.204 3.31-6.306 4.966-6.965 3.594-8.233 4.726-15.871 6.703-10.743 2.779-22.002 2.728-32.997 1.44-2.256-.445-4.53-.778-6.767-1.334-5.98-1.486-12.474-3.86-17.422-8.1-.673-.577-1.236-1.295-1.854-1.942-.326-.5-.808-.918-.976-1.502-.286-.993-.022-1.756.27-1.712.658.483 1.012 2.377 1.586 3.633.154.788.408 1.563.46 2.365.356 5.385-2.947 10.535-6.694 14.064-1.565 1.475-3.372 2.661-5.058 3.991-6.575 3.318-7.685 4.418-15.267 5.846-13.57 2.556-33.385 1.049-46.262-3.208-12.844-4.245-22.629-10.09-31.313-19.616-1.11-1.217-2.946-4.76-2.946-4.76-.944-2.11-1.414-5.396-1.414-5.62-.001-1.54 1.037-2.295 1.74-2.603.716-.3.975.435-.989 1.83-3.11 1.724-5.59 2.612-10.173 3.275-1.047.152-5.041.371-5.041.371-6.225.024-12.792-.495-19.901-2.341-1.764-.458-3.334-.982-4.977-1.53-9.873-3.296-18.946-8.465-26.462-15.312a68.842 68.842 0 0 1-4.766-4.81c-1.528-1.697-2.78-3.502-4.101-5.31-7.393-10.115-10.526-20.05-10.973-28.578-.277-5.271.06-14.838 3.642-21.224" style="opacity:1;fill:#e5f6ff;fill-opacity:1;stroke:#000;stroke-width:1.05810213;stroke-linecap:butt;stroke-linejoin:miter;stroke-miterlimit:4;stroke-dasharray:none;stroke-dashoffset:0;stroke-opacity:1" transform="translate(82.693 -206.113)"/><path d="M-11.213 558.906c4.938 4.481 13.212 2.91 17.421.846 10.41-5.106 11.183-17.992 5.688-26.004-4.129-6.02-12.345-8.622-19.623-6.803-8.652 2.162-15.541 9.068-16.322 17.662-.356 3.916 1.625 7.734 4.228 10.028 3.287 2.896 7.327 4.536 11.362 3.961" style="display:inline;fill:#e5f6ff;fill-opacity:1;stroke:#000;stroke-width:1.125;stroke-linejoin:round;stroke-miterlimit:2;stroke-dasharray:none;stroke-dashoffset:0" transform="translate(82.693 -206.113)"/></g></svg>