<svg xmlns="http://www.w3.org/2000/svg" xmlns:xlink="http://www.w3.org/1999/xlink" width="399.52" height="382.299" viewBox="0 0 299.64 286.724"><defs><symbol id="b" overflow="visible" style="overflow:visible"><path d="M1.781-1.14C1.391-.485 1-.345.563-.314c-.125.016-.22.016-.22.204 0 .062.063.109.141.109.266 0 .579-.031.844-.031.344 0 .688.031 1 .031.063 0 .188 0 .188-.188 0-.109-.079-.124-.157-.124-.218-.016-.468-.094-.468-.344 0-.125.062-.235.14-.375l.766-1.266h2.5c.016.203.156 1.563.156 1.656 0 .297-.516.329-.719.329-.14 0-.234 0-.234.203C4.5 0 4.61 0 4.64 0c.407 0 .829-.031 1.235-.031.25 0 .89.031 1.14.031.048 0 .173 0 .173-.203 0-.11-.094-.11-.235-.11-.61 0-.61-.062-.64-.359l-.61-6.219c-.016-.203-.016-.25-.187-.25-.157 0-.204.079-.266.172zm1.203-1.47 1.954-3.296.328 3.297Zm0 0" style="stroke:none"/></symbol><symbol id="c" overflow="visible" style="overflow:visible"><path d="M1.594-.781c-.094.39-.125.469-.907.469-.171 0-.265 0-.265.203C.422 0 .516 0 .688 0H4.25C5.828 0 7-1.172 7-2.156c0-.719-.578-1.297-1.547-1.406 1.031-.188 2.078-.922 2.078-1.876 0-.734-.656-1.375-1.843-1.375h-3.36c-.187 0-.281 0-.281.204 0 .109.094.109.281.109.016 0 .203 0 .375.016.172.03.266.03.266.171 0 .032-.016.063-.031.188zm1.5-2.875.625-2.469c.094-.344.11-.375.531-.375h1.297c.875 0 1.078.594 1.078 1.031 0 .875-.86 1.813-2.063 1.813zM2.656-.312h-.219c-.109-.016-.14-.032-.14-.11 0-.031 0-.047.062-.219l.688-2.78h1.875c.953 0 1.156.733 1.156 1.155 0 .985-.89 1.954-2.078 1.954Zm0 0" style="stroke:none"/></symbol><clipPath id="a"><path d="M0 0h192.348v94H0Zm0 0"/></clipPath></defs><g style="display:inline"><path d="M162.09 1.474c1.733-.02 3.464.007 5.187.085 6.014.273 7.295.684 13.12 1.697 2.02.547 4.08 1.004 6.06 1.642 5.527 1.78 10.788 4.313 14.962 7.826 3.516 2.958 3.694 3.833 6.036 7.42.539 1.41 1.211 2.792 1.616 4.234.412 1.469.636 2.973.828 4.473.45 3.522.347 7.115-.144 10.63-.097.7-.262 1.393-.393 2.089-.339 1.056-.308 1.221-.8 2.062-.054.092-.32.291-.202.26.342-.084.592-.22.903-.357.53-.263 1.014-.585 1.525-.875.58-.329 1.173-.642 1.76-.964 5.855-2.858 12.322-4.686 19.071-5.443 1.783-.2 3.584-.27 5.375-.405 1.89-.032 3.78-.11 5.67-.095 7.588.058 15.434.585 22.565 2.887 1.738.561 3.37 1.322 5.055 1.983 6.756 3.183 12.683 7.43 17.342 12.57 3.047 3.362 3.607 4.57 5.958 8.228.679 1.501 1.455 2.975 2.037 4.503 2.15 5.643 3.248 12.364 1.48 18.177-.432 1.42-1.203 2.753-1.805 4.13-.954 1.218-1.768 2.519-2.862 3.654-3.52 3.652-8.73 6.587-13.79 8.628-.7.283-1.424.526-2.135.788-.393.148-.802.27-1.198.395-.742.229-1.287.412-1.308.612-.018.171.332.172.519.25.616.254 1.352.576 2.1.942 4.691 2.294 8.364 5.909 11.185 9.778.818 1.122 1.505 2.306 2.258 3.459.665 1.296 1.404 2.568 1.995 3.887a50.042 50.042 0 0 1 4.302 18.464c.06 1.568-.05 3.137-.074 4.705-.57 5.7-1.727 11.393-4.544 16.663-1.984 3.713-3.076 4.828-5.759 8.315-5.525 6.443-12.16 11.62-20.251 15.863-5.608 2.941-7.953 3.614-14.096 5.945-6.423 1.79-8.267 2.574-14.901 3.395-4.144.514-8.336.581-12.507.311-3.854-.25-4.61-.52-8.076-1.247-.482-.175-.782-.28-1.14-.403a10.955 10.955 0 0 0-.98-1.114c-.3-.292-.673-.524-1.01-.787-.271-.122-.505-.372-.814-.364-.71.017-1.159.282-.8.784.424.596 1.197 1.063 1.877 1.368.373.167.793.325 1.185.46 1.233 1.614 1.918 3.598 1.691 5.49-.096.805-.436 1.58-.653 2.37-.518.829-.91 1.72-1.551 2.487-1.67 1.996-3.889 3.532-6.275 4.92-4.9 2.85-10.031 4.41-15.535 6.277-6.182 1.67-8.607 2.474-15.01 3.595-4.995.875-10.785 1.493-15.873 1.81-7.001.436-9.372.299-16.404.253-14.268-.498-27.823-3.2-41.144-7.335-2.523-.783-5.031-1.567-7.486-2.52-6.348-2.463-8.36-3.583-14.02-6.322-7.735-3.742-15.11-8.992-21.693-14.62-4.287-3.527-8.86-8.793-12.09-13.047a31.654 31.654 0 0 1-1.688-2.43 55.177 55.177 0 0 0 4.158-1.514l-.751.086c-1.035.384-2.288.772-3.586 1.147-.55-.9-1.04-1.795-1.766-3.072-.833-1.608-1.699-3.22-2.27-4.91l.025-.316c-.148-.184.034-.219-.102-.408-.252.079-.532.115-.758.237-.071.04.081.545.132.692.588 1.72 1.468 3.361 2.323 4.997.702 1.231 1.18 2.108 1.708 2.978-2.366.655-4.846 1.22-6.71 1.435-4.287.494-8.675.352-12.176-.308-3.446-.65-5.039-1.253-8.252-2.583-1.372-.568-2.883-1.402-4.122-2.183-3.7-2.333-7.055-5.795-9.121-9.539-2.052-3.717-2.153-5.174-3.207-9.189-.186-1.646-.506-3.286-.56-4.939a35.428 35.428 0 0 1 3.068-15.65c1.869-4.158 3.12-5.465 5.877-9.219 1.276-1.3 2.455-2.669 3.83-3.9 3.37-3.019 7.392-5.673 11.885-7.51 1.57.475 3.204.763 4.827.771.7.004 1.392-.113 2.089-.17.994-.39 2.4-.682 2.992-1.59.144-.222.21-.51.114-.747-.426-1.057-3.195-.518-3.91-.454-.866.197-1.754.337-2.596.591-1.06.32-2.108.709-3.145 1.127-2.368-.73-4.584-1.898-6.344-3.228-1.08-.817-1.981-1.78-2.972-2.67-2.427-3.014-3.382-3.905-5.125-7.321-2.355-4.615-3.7-9.619-4.287-14.588-.2-1.691-.21-3.393-.316-5.09.14-1.861.154-3.732.419-5.585 1.26-8.822 4.908-17.103 10.28-24.79 1.432-2.048 3.1-3.976 4.65-5.964 1.705-1.808 3.283-3.702 5.113-5.424 5.235-4.924 11.817-9.648 18.988-12.575 5.129-2.093 8.036-2.347 13.594-3.39 2.25-.103 4.499-.365 6.751-.308 5.71.143 11.221 1.534 16.183 3.817 2.92 1.343 4.26 2.344 6.795 4.002 1.585 1.18 3.237 2.34 4.56 3.734.068.154.179.274.26.398.174.17.409.203.726-.289-.042-.214-.242-.374-.391-.547-.06-.267-.197-.53-.183-.803.1-1.929 1.605-3.875 2.98-5.332 2.416-2.562 3.992-3.576 6.953-5.86 6.375-4.558 13.616-7.975 21.442-10.551 5.456-1.796 7.328-2.106 12.992-3.44 2.258-.402 4.5-.87 6.774-1.206 5.088-.75 10.31-1.226 15.51-1.286z" style="display:inline;opacity:1;fill:#f5f5f5;fill-opacity:1;stroke:none;stroke-width:.5;stroke-linecap:square;stroke-linejoin:miter;stroke-miterlimit:4;stroke-dasharray:none;stroke-opacity:1"/><path d="M33.993 108.279c.843-.027 1.662.069 1.813.536.165.513-.778 1.096-1.099 1.255-.276.136-.615.16-.922.239-.682.067-1.358.198-2.045.203-1.513.011-3.042-.23-4.519-.647.74-.282 1.49-.546 2.253-.781.835-.257 1.714-.401 2.57-.602.241-.026 1.106-.176 1.949-.203zM212.056 190.978c.117.031.24.058.346.1.326.25.69.47.979.75.063.061.119.129.18.192a7.881 7.881 0 0 1-1.068-.639 2.549 2.549 0 0 1-.437-.403z" style="display:inline;opacity:1;fill:#f5f5f5;fill-opacity:1;stroke:none;stroke-width:.5;stroke-linecap:square;stroke-linejoin:miter;stroke-miterlimit:4;stroke-dasharray:none;stroke-opacity:1"/><path d="M-13.213 82.072c-3.636 1.509-8.634 3.004-12.227 3.392-3.631.392-8.366.365-12.231-.403-3.45-.686-5.075-1.286-8.292-2.628-1.379-.575-2.927-1.366-4.14-2.202-3.544-2.444-7.092-5.84-9.173-9.607-2.063-3.735-2.166-5.2-3.229-9.233-.19-1.653-.513-3.299-.57-4.958a35.647 35.647 0 0 1 3.044-15.707c1.865-4.181 3.106-5.482 5.863-9.259 1.275-1.307 2.451-2.683 3.824-3.921 4.305-3.884 10.075-7.405 16.114-9.228.843-.254 1.73-.394 2.596-.59.715-.065 3.484-.603 3.91.453.097.239.032.526-.112.747-.592.909-2 1.2-2.993 1.59-.696.057-1.39.174-2.09.17-4.16-.022-8.402-1.837-11.398-4.112-1.087-.825-1.993-1.798-2.99-2.697-2.435-3.027-3.399-3.931-5.149-7.36-2.363-4.631-3.716-9.65-4.31-14.635-.203-1.696-.216-3.404-.324-5.105.138-1.868.151-3.744.414-5.602 1.252-8.842 4.895-17.146 10.265-24.856 1.43-2.052 3.098-3.986 4.647-5.98 1.702-1.811 3.278-3.709 5.107-5.436 5.246-4.953 11.794-9.66 18.973-12.631 6.622-2.74 7.867-2.627 14.777-3.906 2.26-.097 4.517-.354 6.777-.291 5.738.158 11.276 1.571 16.258 3.87 2.92 1.35 4.29 2.367 6.829 4.028 1.613 1.2 3.297 2.38 4.64 3.8.117.124.393.26.303.4-.61.945-.926-.03-1.055-.247-.068-.28-.213-.555-.204-.841.056-1.979 1.537-3.954 2.94-5.457 2.405-2.58 3.996-3.605 6.956-5.9 6.695-4.76 14.392-8.434 22.605-11.123 5.466-1.789 7.34-2.097 13.013-3.425 2.261-.4 4.506-.866 6.783-1.199 6.796-.992 13.828-1.5 20.73-1.178 6.023.281 7.315.697 13.15 1.72 2.025.551 4.089 1.013 6.074 1.655 5.547 1.794 10.825 4.344 15.014 7.874 3.535 2.979 3.717 3.86 6.076 7.469.544 1.42 1.223 2.81 1.633 4.26.417 1.477.645 2.988.84 4.496.46 3.532.362 7.135-.115 10.663-.095.702-.256 1.398-.384 2.097-.35 1.136-.293 1.2-.777 2.099-.053.098-.06.286-.19.282-.14-.004-.3-.204-.215-.295.293-.313.76-.483 1.154-.71.58-.333 1.175-.647 1.763-.971 4.74-2.373 9.828-4.197 15.25-5.219 4.489-.846 5.806-.807 10.437-1.146 1.893-.03 3.786-.104 5.679-.086 7.606.069 15.464.603 22.608 2.923 1.745.567 3.383 1.335 5.074 2.002 6.774 3.202 12.717 7.469 17.39 12.627 3.053 3.371 3.622 4.59 5.98 8.256.683 1.508 1.463 2.988 2.05 4.523 2.164 5.668 3.27 12.406 1.52 18.25-.428 1.428-1.194 2.773-1.792 4.16-.95 1.23-1.759 2.542-2.85 3.69-3.875 4.071-9.406 6.952-14.943 9.259-.7.291-1.434.522-2.15.784-.614.183-1.392.911-2.007.614-.287-.14.661-.29.974-.193.723.223 1.611.71 2.227 1.015 4.613 2.495 8.358 5.847 11.191 9.737.821 1.128 1.51 2.317 2.265 3.475.667 1.3 1.409 2.577 2.002 3.901a50.34 50.34 0 0 1 4.326 18.512c.062 1.572-.044 3.145-.066 4.718-.562 5.715-1.71 11.425-4.52 16.714-1.983 3.736-3.065 4.84-5.753 8.35-5.41 6.36-12.276 11.76-20.247 15.926-6.612 3.456-8.26 3.85-15.242 6.488-6.438 1.782-8.288 2.565-14.937 3.376-4.152.506-8.371.567-12.549.29-3.877-.257-4.628-.529-8.115-1.266-.772-.283-1.574-.517-2.317-.85-.68-.304-1.577-.834-2.001-1.43-.359-.502.212-.782.924-.8.308-.007.542.244.814.365.336.263.71.496 1.01.788 1.875 1.834 3.084 4.295 2.82 6.714-.09.819-.424 1.607-.636 2.41-.513.843-.9 1.747-1.54 2.528-1.663 2.028-3.864 3.577-6.266 4.99-5.156 3.03-10.894 4.87-16.708 6.833-6.164 1.654-8.645 2.467-15.026 3.577-4.987.868-10.815 1.482-15.893 1.794-7.007.43-9.384.291-16.42.24a146.75 146.75 0 0 1-24.977-3.092c-4.924-1.049-11.447-2.8-16.21-4.28-2.525-.786-5.037-1.571-7.495-2.526-6.367-2.474-9.465-4.018-14.042-6.342-7.596-3.859-15.127-8.927-21.724-14.647-4.307-3.526-8.883-8.804-12.12-13.067-1.769-2.328-2.269-3.38-3.651-5.805-.856-1.636-1.736-3.278-2.324-4.997-.05-.147-.202-.652-.13-.69.226-.123.505-.159.758-.238.135.19.306.354.453.538l-.653.321c-.134-.166-.288-.317-.414-.487.19-.117.36-.262.571-.35.047-.02-.041.084-.035.127.024.17.07.337.126.502.57 1.716 1.453 3.35 2.299 4.982 1.377 2.42 1.867 3.459 3.63 5.783 3.23 4.254 7.804 9.52 12.092 13.047 6.581 5.628 13.958 10.88 21.692 14.621 5.66 2.739 7.673 3.858 14.02 6.322 2.455.952 4.965 1.736 7.487 2.52 13.322 4.135 26.875 6.836 41.144 7.334 7.032.046 9.403.183 16.405-.253 5.087-.317 10.877-.934 15.872-1.81 6.402-1.12 8.828-1.926 15.01-3.595 5.503-1.867 10.635-3.427 15.534-6.277 2.387-1.388 4.605-2.924 6.275-4.92.642-.768 1.035-1.659 1.553-2.488.217-.79.555-1.563.652-2.369.284-2.373-.9-4.804-2.752-6.598-.288-.28-.652-.5-.978-.75-.243-.095-.568-.11-.73-.287-.084-.093.042-.313.183-.315.127-.002-.026.222.038.312.157.223.363.427.6.595 1.277.903 1.975 1.008 3.63 1.61 3.466.726 4.221.997 8.076 1.246 4.17.27 8.363.203 12.507-.31 6.634-.822 8.478-1.606 14.9-3.395 6.143-2.332 8.489-3.004 14.096-5.946 8.091-4.243 14.726-9.42 20.251-15.863 2.683-3.487 3.776-4.602 5.76-8.315 2.816-5.27 3.974-10.964 4.545-16.663.024-1.568.132-3.137.072-4.704a50.04 50.04 0 0 0-4.302-18.464c-.59-1.32-1.33-2.592-1.994-3.887-.753-1.154-1.44-2.338-2.257-3.46-2.821-3.869-6.554-7.2-11.155-9.67-2.317-1.133-.39-.238-2.208-.988-.187-.078-.568-.079-.55-.25.045-.445 2.405-.976 2.614-1.068.711-.263 1.435-.505 2.135-.788 5.06-2.04 10.27-4.977 13.79-8.629 1.094-1.135 1.908-2.436 2.862-3.654.602-1.377 1.373-2.711 1.805-4.13 1.768-5.813.67-12.533-1.48-18.176-.582-1.529-1.358-3.002-2.037-4.504-2.35-3.657-2.912-4.865-5.959-8.227-4.658-5.14-10.584-9.388-17.34-12.57-1.686-.662-3.319-1.423-5.057-1.984-7.131-2.302-14.976-2.828-22.563-2.887-1.89-.014-3.78.063-5.67.095-1.792.135-3.593.205-5.375.405-6.75.758-13.216 2.585-19.072 5.443-.587.322-1.18.636-1.76.965-.785.444-1.496.982-2.428 1.23-.119.032.147-.166.201-.258.493-.841.463-1.007.8-2.063.132-.696.297-1.389.394-2.088.49-3.516.595-7.11.145-10.631-.192-1.5-.417-3.003-.83-4.473-.404-1.441-1.076-2.822-1.614-4.234-2.342-3.586-2.52-4.46-6.036-7.419-4.175-3.513-9.437-6.046-14.964-7.826-1.98-.638-4.039-1.095-6.058-1.643-5.826-1.013-7.108-1.424-13.121-1.697-6.893-.313-13.914.202-20.698 1.201-2.274.335-4.516.805-6.774 1.207-5.664 1.333-7.537 1.644-12.992 3.44-7.827 2.575-15.067 5.993-21.442 10.551-2.961 2.284-4.538 3.298-6.954 5.859-1.375 1.457-2.88 3.404-2.978 5.333-.014.272.121.535.182.802.126.22.691.83-.265.864-.18.006-.173-.262-.283-.38-1.33-1.414-3.004-2.587-4.606-3.78-2.535-1.657-3.877-2.658-6.797-4.001-4.961-2.283-10.473-3.675-16.182-3.818-2.253-.056-4.5.206-6.75.308-5.56 1.044-8.467 1.298-13.596 3.391-7.17 2.927-13.752 7.65-18.987 12.575-1.83 1.722-3.408 3.615-5.112 5.423-1.55 1.988-3.22 3.917-4.65 5.964-5.373 7.687-9.021 15.968-10.28 24.79-.265 1.853-.28 3.724-.42 5.585.105 1.697.116 3.4.316 5.091.587 4.97 1.932 9.972 4.287 14.587 1.743 3.416 2.698 4.307 5.125 7.32.99.89 1.89 1.854 2.971 2.67 2.96 2.237 7.194 4.045 11.304 4.015.687-.006 1.364-.136 2.046-.204.307-.08.645-.102.92-.238.322-.159 1.265-.743 1.1-1.255-.301-.935-3.28-.385-3.762-.333-.856.201-1.735.346-2.57.603-5.745 1.766-10.827 4.932-14.949 8.623-1.375 1.231-2.553 2.6-3.83 3.9-2.757 3.755-4.009 5.061-5.878 9.22a35.426 35.426 0 0 0-3.068 15.649c.055 1.653.374 3.293.56 4.94 1.055 4.014 1.155 5.472 3.207 9.189 2.067 3.744 5.421 7.206 9.122 9.539 1.239.781 2.75 1.614 4.122 2.182 3.213 1.33 4.806 1.934 8.252 2.584 3.5.66 7.888.801 12.176.307 3.089-.356 7.923-1.637 11.003-2.78l.752-.085z" style="display:inline;opacity:1;fill:#000;fill-opacity:1;stroke:none;stroke-width:.5;stroke-linecap:square;stroke-linejoin:miter;stroke-miterlimit:4;stroke-dasharray:none;stroke-opacity:1" transform="translate(64.096 90.292)"/><g style="display:inline"><path d="M113.306-160.5c-1.085.794-2.327 1.67-3.246 2.597-2.193 2.215-4.67 5.546-4.771 8.823-.028.906.38 1.773.57 2.66.616.644 1.095 1.458 1.851 1.934 1.95 1.228 4.178 1.244 6.37.865 1.762-.304 4.362-1.15 5.713-2.556.615-.639.93-1.51 1.395-2.265-.063-.797.1-1.646-.19-2.391-.701-1.807-2.567-3.182-4.122-4.122-1.23-.743-3.46-1.707-4.958-1.94-.544-.085-1.1.034-1.652.05l.545-.572c.565 0 1.138-.098 1.694-.002 1.525.263 3.745 1.23 5.001 2.001 1.616.992 3.485 2.402 4.215 4.275.306.785.153 1.678.23 2.517-.46.787-.715 1.74-1.382 2.362-3.135 2.925-9.658 4.723-13.512 2.213-.78-.508-1.273-1.357-1.909-2.036-.2-.916-.622-1.81-.602-2.747.048-2.219 1.267-4.482 2.471-6.234 1.768-2.572 4.09-4.513 6.768-6.066l-.48.634z" style="opacity:1;fill:#000;fill-opacity:1;stroke:none;stroke-width:.5;stroke-linecap:square;stroke-linejoin:miter;stroke-miterlimit:4;stroke-dasharray:none;stroke-opacity:1" transform="translate(31.024 428.583)"/><path d="M138.277-179.406c-1.997-.265-3.64-1.12-4.92-2.559-.94-1.059-1.03-1.225-1.358-2.53-.277-1.098-.33-1.623-.253-2.463.2-2.143 1.362-4.767 3.192-7.203.557-.74 1.221-1.45 1.477-1.58.338-.168.978-.232 2.327-.23 1.64 0 2.009.053 3.103.437 4.238 1.49 7.853 4.068 9.043 6.45.438.877.497 1.144.497 2.27 0 1.228-.028 1.326-.702 2.525-.806 1.434-1.636 2.232-3.148 3.026-2.643 1.39-6.68 2.199-9.258 1.857z" style="opacity:1;fill:#f5f5f5;fill-opacity:1;stroke:none;stroke-width:.5;stroke-linecap:square;stroke-linejoin:miter;stroke-miterlimit:4;stroke-dasharray:none;stroke-opacity:1" transform="matrix(.8 0 0 .8 31.024 428.583)"/></g><g style="display:inline"><path d="M137.906-136.99c-.558.284-1.188.459-1.675.852-.749.604-1.378 1.35-1.98 2.1-.911 1.136-1.839 2.278-2.551 3.549-1.298 2.315-2.43 5.565-2.52 8.264-.042 1.244.33 2.467.495 3.7.7 1.013 1.193 2.203 2.098 3.036 4.633 4.26 12.644 3.68 18.033 1.487 1.436-.585 2.704-1.518 4.057-2.277.753-.836 1.653-1.56 2.26-2.508 2.093-3.267 2.259-6.71-.038-9.95-2.002-2.825-3.694-3.248-6.68-4.836-4.215-1.628-8.656-2.242-13.141-2.437-1.964-.086-3.638-.174-5.51.393-.424.128-.785.412-1.178.618l.473-.636c.407-.192.788-.456 1.223-.576 1.905-.525 3.546-.443 5.54-.349 4.508.214 8.97.846 13.198 2.504 3.035 1.634 4.727 2.063 6.76 4.947 2.117 3 2.371 7.154.12 10.19-.949 1.277-2.322 2.177-3.482 3.266-1.365.749-2.648 1.67-4.095 2.245-5.494 2.18-13.536 2.674-18.206-1.677-.923-.86-1.429-2.082-2.144-3.122-.172-1.255-.553-2.498-.516-3.764.04-1.408.342-2.81.745-4.161 1.321-4.422 3.82-7.9 7.51-10.638.514-.38 1.156-.544 1.734-.816l-.53.596z" style="opacity:1;fill:#000;fill-opacity:1;stroke:none;stroke-width:.5;stroke-linecap:square;stroke-linejoin:miter;stroke-miterlimit:4;stroke-dasharray:none;stroke-opacity:1" transform="matrix(1.16532 0 0 1 -39.398 369.775)"/><path d="M173.182-140.68c-3.02-.473-5.46-1.458-7.557-3.05-1.046-.794-1.675-1.543-2.708-3.225-.663-1.078-.798-1.445-1.031-2.792-.67-3.876.01-7.602 2.207-12.1.911-1.865 2.383-3.997 4.452-6.449 1.467-1.738 1.338-1.685 3.711-1.526 5.049.34 9.39 1.162 13.394 2.537 1.305.448 4.883 2.28 6.202 3.176.966.656 2.508 2.23 3.272 3.34 1.356 1.972 2.12 4.512 1.96 6.523-.128 1.6-.47 2.771-1.294 4.421-2.082 4.169-7.115 7.393-13.691 8.769-1.61.337-2.453.415-4.964.463-1.664.032-3.442-.008-3.953-.087z" style="opacity:1;fill:#f5f5f5;fill-opacity:1;stroke:none;stroke-width:.5;stroke-linecap:square;stroke-linejoin:miter;stroke-miterlimit:4;stroke-dasharray:none;stroke-opacity:1" transform="matrix(.93225 0 0 .8 -39.398 369.775)"/></g></g><g style="display:inline"><g style="fill:#717171;fill-opacity:1;stroke:#7f7f7f;stroke-opacity:1"><path d="M34.702 109.88V-4.257" style="clip-rule:nonzero;fill:#717171;fill-opacity:1;stroke:#7f7f7f;stroke-width:.3985;stroke-linecap:butt;stroke-linejoin:miter;stroke-miterlimit:10;stroke-opacity:1" transform="translate(37.556 62.373)"/><path d="M33.108-3.276c.598-.101 1.496-1.195 1.594-1.496.102.301.996 1.395 1.594 1.496" style="fill:#717171;fill-opacity:1;stroke:#7f7f7f;stroke-width:.31878999;stroke-linecap:round;stroke-linejoin:round;stroke-miterlimit:10;stroke-opacity:1" transform="translate(37.556 62.373)"/></g><g clip-path="url(#a)" style="clip-rule:nonzero" transform="matrix(1.01819 -.00648 -.0083 1.00263 47.568 55.43)"><path d="m-27.214 6.802 185.957 72.57" style="fill:none;stroke:#000;stroke-width:.79701;stroke-linecap:butt;stroke-linejoin:miter;stroke-miterlimit:10;stroke-opacity:1" transform="matrix(1 0 0 -1 30.117 89.24)"/></g><path d="M32.717 30.142a2.266 2.266 0 0 0-2.265-2.27 2.268 2.268 0 1 0 2.266 2.27zm0 0" style="fill:#000;fill-opacity:1;fill-rule:nonzero;stroke:#000;stroke-width:.3985;stroke-linecap:butt;stroke-linejoin:miter;stroke-miterlimit:10;stroke-opacity:1" transform="translate(64.096 90.292)"/><use xlink:href="#b" width="100%" height="100%" x="42.41" y="58.508" style="fill:#000;fill-opacity:1" transform="translate(25.983 38.392) scale(1.29542)"/><path d="M137.034-10.678a2.266 2.266 0 0 0-2.266-2.27 2.269 2.269 0 1 0 0 4.539 2.266 2.266 0 0 0 2.266-2.27zm0 0" style="fill:#000;fill-opacity:1;fill-rule:nonzero;stroke:#000;stroke-width:.3985;stroke-linecap:butt;stroke-linejoin:miter;stroke-miterlimit:10;stroke-opacity:1" transform="translate(64.096 90.292)"/><use xlink:href="#c" width="100%" height="100%" x="147.801" y="17.688" style="fill:#000;fill-opacity:1" transform="translate(-5.482 51.337) scale(1.29542)"/><path d="M30.452 30.142h104.015" style="fill:none;stroke:#000;stroke-width:.3985;stroke-linecap:butt;stroke-linejoin:miter;stroke-miterlimit:10;stroke-dasharray:2.98883,1.99255;stroke-opacity:1" transform="translate(64.096 90.292)"/><path d="M134.569 32.732v-5.18" style="fill:none;stroke:#000;stroke-width:.3985;stroke-linecap:square;stroke-linejoin:miter;stroke-miterlimit:10;stroke-opacity:1" transform="translate(64.096 90.292)"/><path d="M134.768 29.841V-9.546" style="fill:none;stroke:#000;stroke-width:.3985;stroke-linecap:butt;stroke-linejoin:miter;stroke-miterlimit:10;stroke-dasharray:2.98883,1.99255;stroke-opacity:1" transform="translate(64.096 90.292)"/><path d="M132.178 29.943h5.18" style="fill:none;stroke:#000;stroke-width:.3985;stroke-linecap:square;stroke-linejoin:miter;stroke-miterlimit:10;stroke-opacity:1" transform="translate(64.096 90.292)"/><path d="M132.499 30.142h1.437" style="fill:none;stroke:#000;stroke-width:.99628001;stroke-linecap:butt;stroke-linejoin:miter;stroke-miterlimit:10;stroke-opacity:1" transform="translate(64.096 90.292)"/><path d="M132.202 27.83c.144.867 1.734 2.167 2.168 2.312-.434.144-2.024 1.445-2.168 2.312" style="fill:none;stroke:#000;stroke-width:.79701;stroke-linecap:round;stroke-linejoin:round;stroke-miterlimit:10;stroke-opacity:1" transform="translate(64.096 90.292)"/><path d="M134.768-7.276v-1.438" style="fill:none;stroke:#000;stroke-width:.99628001;stroke-linecap:butt;stroke-linejoin:miter;stroke-miterlimit:10;stroke-opacity:1" transform="translate(64.096 90.292)"/><path d="M132.456-6.98c.867-.144 2.168-1.734 2.312-2.167.145.433 1.445 2.023 2.313 2.168" style="fill:none;stroke:#000;stroke-width:.79701;stroke-linecap:round;stroke-linejoin:round;stroke-miterlimit:10;stroke-opacity:1" transform="translate(64.096 90.292)"/><path d="M138.334-10.804c2.48-.117 5.604-.084 7.74 1.37.345.234.612.566.918.85.167.346.417.663.5 1.04.32 1.467-.575 3.015-1.274 4.209-.212.362-1.91 2.955-2.122 3.28-.899 1.555-2.765 4.326-2.496 6.251.042.302.172.585.257.877.191.257.348.544.573.772 1.313 1.329 3.495 1.643 5.257 1.919.19.057 2.144-.049 1.418.75-.153.168-.428.153-.644.226-.412.139-.826.273-1.239.41-1.533.634-3.575 1.387-4.131 3.165-.258.823-.027 1.432.127 2.245.649 2.215 2.031 4.836 1.834 7.188-.038.457-.206.893-.308 1.34-.244.394-.432.828-.732 1.181-1.585 1.87-4.34 2.414-6.615 2.731-.372.052-.75.005-1.125.008l-.834-.16 1.364-.738.783.105c.36-.015.72-.047 1.08-.047.017 0-.036.054-.02.049 1.388-.397 2.821-.87 3.848-1.95.295-.31.49-.702.736-1.053.109-.41.283-.809.327-1.231.097-.942-.15-1.97-.388-2.864-.387-1.457-1.003-2.831-1.445-4.27-.18-.92-.421-1.56-.162-2.498.52-1.887 2.54-2.766 4.16-3.451.401-.147.796-.313 1.204-.44.195-.06.405-.182.6-.123.138.042.218.228.22.372 0 .073-.144-.032-.216-.044-.327-.055-.902-.13-1.196-.17-1.875-.341-4.027-.708-5.374-2.198-.242-.268-.405-.598-.608-.897-.246-.873-.399-1.068-.274-1.987.095-.704.495-1.647.778-2.263.71-1.547.857-1.694 1.761-3.205.046-.07 2.035-3.128 2.107-3.249.595-1 1.551-2.592 1.284-3.85-.07-.329-.299-.601-.448-.902-.288-.253-.542-.551-.865-.758-2.148-1.374-5.224-1.34-7.668-1.162l1.308-.828zM32.164 31.926c-.029.323-.114.646-.086.97.122 1.42 1.011 2.454 2.293 3.03 1.474.663 2.603.648 4.205.827.888-.015 1.778.007 2.665-.044 1.575-.09 4.697-.48 6.216-.674 3.658-.468 7.31-.995 10.961-1.51 4.544-.539 9.144-1.147 13.722-.628 2.508.284 3.174.562 5.565 1.215 2.708.963 5.862 2.292 6.807 5.295.09.286.107.59.161.886-.004.23.009.46-.01.69-.007.07-.162 1.008-.375 1.016-1.854.077-1.655.354-1.716-.686.05-.237.07-.483.15-.711.504-1.431 1.787-2.586 3.116-3.25.425-.212.885-.343 1.327-.515.96-.194 1.91-.436 2.878-.583 1.043-.159 2.704-.132 3.725-.09 2.443.098 4.87.388 7.294.679 5.013.488 9.961 1.54 14.986 1.922 1.123.085 2.25.113 3.376.17 2.657.046 3.667.123 6.277-.055 1.864-.127 3.61-.293 5.275-1.208.488-.268.892-.667 1.339-1 .787-.958 2.195-2.536 1.323-3.884-.286-.442-.713-.632-1.142-.887l1.439-.594c.724.516 1.427 1.05 1.496 2.033.096 1.34-.867 2.485-1.625 3.456-.454.366-.86.802-1.363 1.1-1.559.92-3.64 1.216-5.332 1.478-2.935.456-5.942.31-8.896.259-1.132-.06-2.265-.092-3.396-.18-5.032-.394-9.99-1.44-15.015-1.91-3.694-.422-7.429-.879-11.144-.462-.436.147-.889.253-1.31.442-1.267.568-2.551 1.618-3.075 2.94-.078.195-.099.408-.148.612-.012.857.107.117-1.402.63-.062.021.084.147.147.13.116-.029.222-.492.244-.643.028-.202.023-.408.035-.612-.042-.267-.05-.543-.128-.802-.873-2.888-4.04-4.1-6.596-5.015-2.392-.635-3.006-.894-5.513-1.16-4.556-.487-9.13.121-13.649.664-3.662.517-7.323 1.052-10.991 1.521-1.622.208-4.597.578-6.268.66-.9.043-1.803.007-2.705.012-1.678-.22-2.798-.21-4.321-.97-1.376-.686-2.272-1.872-2.43-3.403-.035-.329.044-.66.067-.989l1.547-.172z" style="fill:#de8787;fill-opacity:1;stroke:none;stroke-width:5.5999999;stroke-miterlimit:4;stroke-dasharray:none;stroke-opacity:1" transform="translate(64.096 90.292)"/><g style="fill:#000;stroke:none;stroke-width:1.00502515"><g style="fill:#000;stroke:none;stroke-width:1.00502515"><path d="M34.35 46.3c.004.21.014.419.012.628-.005.414-.024.827-.034 1.241-.009.372-.072 3.333-.075 3.527-.026 2.039-.012 2.185.013 4.164 0 1.172.097 2.341.102 3.513l-.935.115c.182-1.164.04-2.354.105-3.524-.003-4.732.005.894-.019-4.166-.007-1.576.033-3.157-.048-4.732-.01-.198-.036-.395-.054-.593l.932-.173z" style="opacity:1;fill:#000;fill-opacity:1;stroke:none;stroke-width:2.0100503;stroke-linecap:square;stroke-linejoin:miter;stroke-miterlimit:100;stroke-dasharray:none;stroke-opacity:1" transform="matrix(.9555 0 0 .9555 67.821 92.782)"/><path d="M33.358 54.347c.495-.396.855-.616 1.672-1.018.294-.144.718-.288 1.05-.443.626-.153 1.366-.404 1.95.136.177.164.253.417.38.625.062.284.15.562.185.85.077.638.031 1.373-.016 2.009-.053.725-.154 1.446-.218 2.17-.006.108-.014.215-.017.322a1.884 1.884 0 0 0 0 .154c0 .011.018.03.008.031-.88.082-.923.336-.847.004l.878-.068c-.11.332-.021.101-.9.212-.02.003-.001-.041 0-.062l.018-.165.04-.328c.172-1.322.458-2.787.279-4.113-.036-.264-.124-.517-.186-.775-.194-.44-.428-.545-.74-.726-.03-.014-.47.045-.502.053-.782.222-1.61.775-2.29 1.352-.198-.065-.548-.151-.744-.22zM41.749 53.914c-.699.057.056-.1-.175.356-.165.328-.5.532-.698.84-.385.598-.648 1.257-.606 1.992.017.305.156.588.235.881.225.225.392.538.675.676.637.311 1.713.24 2.34-.008.167-.066.245-.27.363-.407.846-.982.59-.468.867-1.646-.082-.26-.111-.544-.246-.78-.41-.715-1.234-1.085-1.965-1.297-.177-.052-.361-.073-.541-.109l.728-.394c.177.048.358.083.532.144.77.273 1.605.697 2.014 1.478.143.272.17.593.256.89-.073.318-.073.664-.218.955-.518 1.04-1.33 1.262-2.411 1.583-.735.218-1.742.254-2.445-.142-.302-.17-.474-.517-.71-.775-.08-.32-.22-.63-.238-.96-.04-.78.223-1.455.61-2.104.527-.881 1.295-1.616 2.373-1.63l-.74.457zM46.325 53.665c.166 1.067.407 2.118.665 3.164.182.743.396 1.473.527 2.228-.072.42-.06.65-1.008-.004-.167-.115-.107-.403-.135-.61-.081-.605-.091-1.221.04-1.822.074-.339.22-.656.33-.984.196-.3.357-.627.589-.898.663-.777 1.587-1.301 2.525-1.624.632-.217 1.133-.21 1.825-.281l-.72.437c.107-.05.442-.142.323-.151-.221-.019-.441.061-.655.124-.931.27-1.864.763-2.533 1.502-.229.253-.39.563-.585.844-.309.883-.411.936-.418 1.874-.001.27.033.539.079.803.033.19.256.393.158.557-.265.442-1.03.342-.64.386-.01-.138-.01-.277-.03-.414-.075-.477-.298-1.397-.397-1.81-.252-1.051-.538-2.094-.756-3.153l.816-.168z" style="opacity:1;fill:#000;fill-opacity:1;stroke:none;stroke-width:2.0100503;stroke-linecap:square;stroke-linejoin:miter;stroke-miterlimit:100;stroke-dasharray:none;stroke-opacity:1" transform="matrix(.9555 0 0 .9555 67.821 92.782)"/><path d="M51.39 51.76c.651.564 1.313 1.113 1.958 1.685l-.782.301a21.58 21.58 0 0 0-1.956-1.668l.78-.318z" style="opacity:1;fill:#000;fill-opacity:1;stroke:none;stroke-width:2.0100503;stroke-linecap:square;stroke-linejoin:miter;stroke-miterlimit:100;stroke-dasharray:none;stroke-opacity:1" transform="matrix(.9555 0 0 .9555 67.821 92.782)"/><path d="M50.617 52.028c.552-.207 1.106-.41 1.658-.616l.372-.139c.076-.029.15-.067.228-.087.3-.075.605-.131.907-.197.027.064.076.123.083.193.019.225-.239.564-.338.74-.197.35-.158.283-.321.64-.011.102-.215.444-.167.565.006.014.024-.02.036-.03l-.83.293c-.023-.051-.06-.098-.071-.154-.042-.216.153-.449.187-.645.144-.325.303-.635.477-.945.064-.114.135-.262.171-.25.03.012.03.06.044.09.222-.05.442-.115.667-.153.085-.014-.164.055-.246.083-.504.173-1.006.355-1.504.546-.166.063-.332.13-.498.195l-.855-.129zM51.921 54.456c.208 1.306.247 2.634.344 3.952.04.493.05.658.091 1.11.008.085.015.17.025.254.003.03.041.082.013.088-.286.055-.58.051-.87.077l.867-.147c-.288.07-.57.17-.862.211-.028.004.005-.06.005-.09.001-.085 0-.17-.002-.255-.01-.456-.023-.62-.047-1.115-.069-1.061-.036-.642-.131-1.737-.054-.61-.092-1.228-.205-1.83-.021-.113-.052-.223-.077-.334l.849-.184zM54.837 53.462c1.312.023 2.629.107 3.925.327.072.029.168.023.216.086.238.312-.373.72-.52.853-.46.419-.526.49-.995.945-.826.876-1.627 1.787-2.32 2.782-.03.046-.062.091-.092.138-.117.183.076-.1-.069-.102-.462-.009-1.051.25-.769.127.318-.335 1.054-.211 1.497-.216.511-.006.773-.026 1.309-.055 1.099-.113 2.222-.06 3.316-.21l.11-.001-.748.47-.086.004c-1.088.086-2.183.071-3.27.17-.698.043-.716.05-1.356.07-.123.004-.246.003-.369.008-.07.003-.28.036-.212.016.668-.197.945-.058.688-.18-.599.676-1.265.196-.8-.256.156-.204.304-.414.465-.614a51.944 51.944 0 0 1 1.907-2.2c.296-.297.657-.664.964-.956.11-.105.218-.215.337-.31a.763.763 0 0 1 .19-.108c.015-.006.062.02.047.014l-.177-.063c-1.287-.242-2.603-.307-3.91-.293l.722-.446zM62.808 53.614c.136-.003.452-.144.41-.009-.058.183-.343.152-.492.267-.208.16-.4.347-.568.552a4.26 4.26 0 0 0-.856 1.634c-.072.285-.067.585-.1.877.055.266.063.547.167.796.476 1.148 1.812 1.562 2.913 1.525.327-.011.647-.098.97-.146.272-.269.65-.38.935-.627.402-.347.666-.765.72-1.315.066-.683-.156-.997-.406-1.606-.554-.88-1.245-1.695-2.253-1.995-.456-.136-.6-.095-1.046-.074l.426-.042-.83-.157 1.117-.242c.456.02.609-.006 1.066.161 1.022.375 1.714 1.23 2.279 2.152.272.67.501.995.44 1.744a2.19 2.19 0 0 1-.22.8c-.237.47-.792.977-1.26 1.169-.52.213-1.077.308-1.616.462-.331.036-.661.11-.994.108-1.189-.008-2.536-.524-3.016-1.757-.106-.272-.114-.575-.17-.863.034-.31.03-.627.103-.93.204-.85.742-1.758 1.385-2.33.465-.413 1.074-.46 1.644-.617l-.748.463zM68.938 53.456c-.02.213-.039.426-.061.638-.043.417-.099.832-.136 1.249a56.677 56.677 0 0 0-.177 3.493l-.78.107c.123-1.793.226-3.587.323-5.382l.83-.105z" style="opacity:1;fill:#000;fill-opacity:1;stroke:none;stroke-width:2.0100503;stroke-linecap:square;stroke-linejoin:miter;stroke-miterlimit:100;stroke-dasharray:none;stroke-opacity:1" transform="matrix(.9555 0 0 .9555 67.821 92.782)"/><path d="M67.543 54.907c.717-.418 1.38-.783 2.202-.946.778-.156 1.595-.372 2.38-.121.212.067.392.214.588.32.12.18.28.335.36.536.178.446.147 1.002.087 1.461-.099.75-.345 1.485-.543 2.21-.11.385-.224.768-.326 1.154a3.25 3.25 0 0 0-.029.116c-.002.012.006.035-.006.035-.289.017-.578.011-.867.017.02-.069.04-.136.055-.206l.881.005c-.007-.008-.016-.03-.023-.021-.02.025.003.133-.035.156-.297.035-.593.08-.892.106-.011 0 .012-.021.017-.033.015-.038.03-.077.043-.116.135-.38.253-.767.376-1.151.205-.71.452-1.428.553-2.165.055-.403.092-.923-.073-1.317-.07-.169-.213-.295-.32-.442-.836-.409-.258-.2-1.283-.348-.061-.01-.118-.06-.18-.05-.296.051-.59.127-.875.23-.233.085-.987.505-1.236.641l-.855-.071zM75.112 46.386c-.018.268-.008.536-.018.803-.017.417-.05.833-.062 1.25-.057 1.787-.038 3.577-.032 5.365.022 1.372.057 2.744.123 4.115.02.41.035.833.09 1.242-.89.08-.827.382-.923-.059a2.751 2.751 0 0 1-.052-.386l.869-.14c-.007.667.389.377-.752.724.019-.42.014-.842.012-1.262-.006-1.378-.031-2.755-.039-4.133-.005-2.463-.01-4.927-.078-7.389l.862-.13z" style="opacity:1;fill:#000;fill-opacity:1;stroke:none;stroke-width:2.0100503;stroke-linecap:square;stroke-linejoin:miter;stroke-miterlimit:100;stroke-dasharray:none;stroke-opacity:1" transform="matrix(.9555 0 0 .9555 67.821 92.782)"/><path d="M71.566 49.822c1.975-.068 3.948-.173 5.912-.401.535-.081.31-.054.672-.093l-.732.475c-.32.022-.117.006-.613.058-1.99.182-3.986.29-5.98.418l.74-.457zM79.686 53.856c-.159.029-.322.037-.477.085-.025.008-.01.06-.034.073-.275.152-.58.245-.847.412-.531.333-.978.75-1.305 1.302-.145.244-.224.525-.336.788-.04.255-.117.508-.12.767-.006.395.103.856.403 1.135.318.295.694.298 1.091.26.025-.002-.026-.043-.039-.065.24-.126.503-.215.722-.378.802-.596 1.525-1.72 1.793-2.708.033-.118.041-.243.062-.364-.004-.063.008-.13-.012-.19-.005-.016-.067.01-.05.01.257-.012.518-.09.772-.044.06.01-.066.11-.08.171-.066.32-.006.447.053.78.075.178.135.363.225.533.455.865 1.169 1.621 2.004 2.09.185.104.386.174.58.261.637.173.337.128.896.164l-.735.425c-.56-.096-.26-.024-.899-.238-.194-.099-.396-.182-.583-.296a5.81 5.81 0 0 1-2.055-2.197c-.098-.184-.166-.384-.25-.577-.083-.417-.134-.486-.092-.886.01-.098-.022-.246.064-.288.286-.138.613-.179.928-.192.128-.005.048.417.072.39-.028.134-.044.27-.083.4-.291.971-1.067 2.23-1.826 2.858-.216.179-.48.285-.719.427-.662.15-1.408.502-2.107.238-.662-.25-.938-.949-.926-1.634.005-.276.085-.545.127-.818.114-.28.193-.578.34-.84.438-.775 1.332-1.556 2.154-1.844a8.982 8.982 0 0 1 1.515-.372c.19-.032.386.018.58.027l-.805.335z" style="opacity:1;fill:#000;fill-opacity:1;stroke:none;stroke-width:2.0100503;stroke-linecap:square;stroke-linejoin:miter;stroke-miterlimit:100;stroke-dasharray:none;stroke-opacity:1" transform="matrix(.9555 0 0 .9555 67.821 92.782)"/><path d="M84.823 45.778c-.004.135-.004.27-.01.404-.067 1.521-.089.997-.073 2.974.017 2.079.136 4.152.256 6.225.072 1.055.162 2.109.267 3.16.018.187.03.446.078.64-.295.04-.588.114-.885.118-.035 0-.02-.071-.03-.107a1.242 1.242 0 0 1-.062-.406l.058-.133.874.054-.06-.018c-.038.087.017.218.044.305.01.03.06.08.03.091-.27.11-.56.159-.84.238.03-.186.003-.484-.004-.646-.037-1.063-.098-2.124-.14-3.186a2296.74 2296.74 0 0 0-.246-6.232c-.027-.642-.061-1.283-.083-1.925-.016-.476-.01-.952-.026-1.428l.85-.128z" style="opacity:1;fill:#000;fill-opacity:1;stroke:none;stroke-width:2.0100503;stroke-linecap:square;stroke-linejoin:miter;stroke-miterlimit:100;stroke-dasharray:none;stroke-opacity:1" transform="matrix(.9555 0 0 .9555 67.821 92.782)"/></g><g style="fill:#000;stroke:none;stroke-width:1.00502515"><path d="M100.455 53.125c-.467-.27-.801-.153-1.227.009-.257.098-.53.21-.773.338-.234.17-.481.323-.703.51-.671.57-1.522 1.515-1.233 2.518.058.202.2.368.3.553.189.15.356.336.567.45.822.444 1.828.473 2.725.36.949-.12 1.056-.018.747-.229.252-.127.393-.162.577-.355.146-.153-.035-.083-.086-.066a9.155 9.155 0 0 1-.05.025l.73-.456.075.022c.121.074.23.175.22.341-.022.354-.46.498-.694.628-.441.118-.88.25-1.325.352-1.15.262-2.584.298-3.64-.334-.226-.135-.401-.349-.602-.523-.106-.213-.257-.408-.32-.639-.29-1.082.53-2.076 1.254-2.72.22-.196.467-.358.7-.537 1.006-.577 1.528-.76 2.068-.883.357-.057.933-.105 1.32.2.07.055.121.133.182.2l-.811.236z" style="opacity:1;fill:#000;fill-opacity:1;stroke:none;stroke-width:2.0100503;stroke-linecap:square;stroke-linejoin:miter;stroke-miterlimit:100;stroke-dasharray:none;stroke-opacity:1" transform="matrix(.98416 0 0 .98416 60.985 92.214)"/><path d="M102.397 45.06c.288 3.139.43 6.287.575 9.435.034 1.1.123 2.198.129 3.299v.086l-.843.116c.003-.028.005-.055.01-.082.062-1.102.027-2.206.012-3.308-.072-2.77-.143-5.549-.52-8.298-.046-.339-.115-.674-.173-1.01l.812-.238z" style="opacity:1;fill:#000;fill-opacity:1;stroke:none;stroke-width:2.0100503;stroke-linecap:square;stroke-linejoin:miter;stroke-miterlimit:100;stroke-dasharray:none;stroke-opacity:1" transform="matrix(.98416 0 0 .98416 60.985 92.214)"/><path d="M101.965 53.359c.151-.105.294-.224.453-.314.276-.156.561-.294.85-.423.82-.368 1.62-.703 2.569-.517.804.158.984 1.214 1.206 1.791.347 1.48.384 3.007.272 4.519l-.811.096c.234-1.473.19-2.983-.161-4.435-.275-1.005-.433-1.33-1.15-1.573 0 0-.375.059-.468.077a3.958 3.958 0 0 0-.898.304c-.708.314-.494.274-1.018.63zM112.313 53.132c.021.02.087.045.062.06-.298.171-.631.27-.93.44-.928.529-1.811 1.238-2.408 2.159-.142.219-.23.47-.345.705-.042.331-.198.69.122.951.29.237.84.164 1.138.105.06-.011.096-.082.151-.111.287-.152.582-.287.873-.43.8-.512 1.459-1.17 1.884-2.05.17-.348.292-.734.279-1.13-.004-.089-.048-.171-.073-.257-.376.165.299-.146.628.046.114.066-.025.274-.01.41.023.202.063.404.126.597.215.658.371.816.746 1.402.658.885 1.515 1.538 2.487 2 .163.078.332.14.498.209l-.723.35c-.439-.208-.66-.298-1.09-.573a7.03 7.03 0 0 1-1.902-1.759c-.156-.245-.33-.478-.468-.734a4.19 4.19 0 0 1-.475-1.368c-.025-.162-.135-.375-.024-.492.226-.238.569-.331.881-.411.064-.016.09.101.134.152.02.11.06.22.06.332-.006 1.01-.734 2.097-1.42 2.748-.247.234-.533.42-.8.63-.29.157-.56.36-.868.469-.58.204-2.877 1.002-3.014-.42-.02-.216.061-.43.091-.645.123-.25.22-.515.369-.747.606-.943 1.489-1.67 2.418-2.242.29-.178.581-.36.899-.477.456-.167.937-.246 1.406-.369l-.703.45z" style="opacity:1;fill:#000;fill-opacity:1;stroke:none;stroke-width:2.0100503;stroke-linecap:square;stroke-linejoin:miter;stroke-miterlimit:100;stroke-dasharray:none;stroke-opacity:1" transform="matrix(.98416 0 0 .98416 60.985 92.214)"/><path d="M116.576 52.726c-.161 1.395.01 2.81.234 4.188.319.094-.59.072-.793-.108-.14-.124.017-.383.043-.573.08-.595.185-1.093.424-1.648.127-.293.3-.562.45-.843.197-.237.369-.499.59-.71.754-.718 1.785-1.004 2.797-.955.474.024.75.42 1.047.722.112.204.247.397.338.613.422 1 .41 2.141.318 3.204-.035.325-.125.63-.274.915l-.853.012c.153-.259.29-.52.327-.829.122-1.016.152-2.123-.27-3.08-.088-.197-.219-.37-.328-.555-1.315-1.206.5.355-.975-.583-.037-.024.09-.135.047-.128-.518.077-1.023.346-1.418.694-.223.195-.395.445-.593.668-.411.743-.517.815-.72 1.642-.062.246-.093.5-.118.753-.018.185.104.417-.013.558-.815.984-.808.736-.83.377-.102-1.417-.335-2.83-.267-4.257l.837-.077zM127.271 52.754c-.602-.163-1.436.082-1.83.3-.679.292-1.231.892-1.675 1.487-.32.524-.439 1.222-.24 1.801.262.757 1.179.904 1.895.893.486-.008.939-.224 1.34-.47.483-.3.907-.746 1.042-1.323.079-.516.23-1.095.114-1.598.2-.336.851.182.69.604-.037.498.01.994.147 1.476.33 1.336.919 2.59 1.321 3.903a6.83 6.83 0 0 1 0 2.632c-.318 1.152-1.479 1.81-2.578 2.048-.815.224-1.66.364-2.505.252-.465.001-.91-.105-1.352-.244-.381-.083-.946-.364-1.107-.552l.643-.297c.434.255.879.494 1.383.572.621.196 1.286.146 1.93.16a3.954 3.954 0 0 0 2.124-.805c.548-.426.838-1.104.848-1.79a5.625 5.625 0 0 0-.13-1.948c-.55-1.594-1.206-3.17-1.478-4.844-.05-.462-.122-1.111.387-1.348.341-.186.697-.058.517.374-.143.987-.495 2.014-1.228 2.713-.656.624-1.706.837-2.48.88-.92.05-2.045-.292-2.316-1.251-.167-.592.02-1.248.309-1.778.83-1.173 1.886-2.061 3.328-2.203.467-.036.75-.045 1.35.108-.225.073-.223.175-.449.248zM131.1 54.508s.532-.109.778-.21c.478-.197.877-.39 1.221-.801.234-.252.538-.572.424-.946-.412.041-.716.165-1.036.308-.792.332-1.556.897-1.891 1.7-.113.272-.17.587-.122.884.065.4.265.76.585 1.003.915.692 2.116.814 3.228.815.545-.01 1.089-.059 1.625-.16.138-.023.273-.04.026-.022.075-.073.531-.237.159-.184-.16 0 .12-.093.172-.137l.508-.271c.35.045.448.56.082.668-1.026.355-2.12.474-3.2.482-1.144-.025-2.378-.174-3.297-.917a1.856 1.856 0 0 1-.643-1.134 1.913 1.913 0 0 1 .104-.981c.282-.78.973-1.344 1.667-1.77a5.175 5.175 0 0 1 1.938-.624c.293-.032.563.014.816.142.218.19.075.632-.1.859-.642.925-1.75 1.37-2.818 1.583-.307.064-.617.114-.927.16l.7-.447z" style="opacity:1;fill:#000;fill-opacity:1;stroke:none;stroke-width:2.0100503;stroke-linecap:square;stroke-linejoin:miter;stroke-miterlimit:100;stroke-dasharray:none;stroke-opacity:1" transform="matrix(.98416 0 0 .98416 60.985 92.214)"/></g></g><path d="m263.469-78.338-.2-.023c.005.026.038.067.014.08-.266.142-.561.223-.832.356-.57.28-1.204.654-1.695 1.06-.233.193-.431.422-.647.633-.139.22-.31.423-.417.66-.276.616-.198 1.188.418 1.552.494.291 1.045.324 1.594.416a9.134 9.134 0 0 0 2.729-.175c.02-.005.025-.037.044-.044.52-.164.293-.08.686-.237l.676.104c-.636.26-1.253.391-1.942.523-.545.104-1.217.176-1.767.177-.328.001-.655-.035-.982-.052-.597-.113-1.137-.145-1.656-.495-.644-.434-.734-1.09-.44-1.766.107-.25.284-.464.426-.696.22-.219.42-.457.657-.657.495-.42 1.115-.794 1.69-1.093.803-.418 1.081-.507 2.051-.673.073-.012.145.03.218.045l-.626.305z" style="opacity:1;fill:#000;fill-opacity:1;stroke:none;stroke-width:2;stroke-linecap:square;stroke-linejoin:miter;stroke-miterlimit:100;stroke-dasharray:none;stroke-opacity:1" transform="translate(64.096 90.292)"/><path d="M265.63-87.193c.137 4.215.19 8.432.348 12.646.01.213.017.425.03.637.019.278.204.623-.69.095-.109-.064-.017-.246-.025-.37-.028-.476-.027-.518-.046-1.013.026-1.006.248-2.2 1.092-2.894.159-.13.354-.214.53-.322 1.02-.326 2.072-.51 2.95.211.415.34.432.518.648.983.036.203.094.405.108.61.06.934-.28 1.864-.526 2.753-.005.121-.106.309-.03.429l-.681.155c-.058-.195-.014-.336.039-.535.263-.861.61-1.773.553-2.685-.011-.193-.067-.38-.101-.57-.08-.166-.134-.345-.238-.497a1.83 1.83 0 0 0-.888-.677c-.185-.07-.395-.06-.579-.132-.033-.012.014-.1-.021-.1-.198.01-.387.086-.581.128-.176.092-.368.16-.528.276-.688.503-.976 1.4-1.067 2.19-.022.192-.017.386-.026.58.019.398.024.613.06 1.003.01.12.125.271.04.359-.877.9-.65.362-.638.114.012-.214.013-.429.02-.643.024-2.789-.024-5.575-.127-8.363-.03-.796-.054-1.593-.103-2.388-.038-.626-.107-1.25-.16-1.874l.636-.106zM275.016-78.189c-.216.05-.452.045-.648.147-.648.338-1.502 1.115-1.952 1.663-.338.414-.86 1.164-.807 1.783.014.17.188.285.282.428.188.026.375.083.564.077.054-.001.083-.07.129-.098.248-.152.521-.266.754-.441.664-.5 1.067-1.124 1.48-1.82.057-.125.118-.25.171-.377.125-.303.03-.552.735-.004.1.078.016.253.04.377.095.504.148.537.37 1.027a4.395 4.395 0 0 0 1.408 1.5c.15.098.317.168.475.252l-.608.261c-.158-.094-.324-.175-.474-.28a4.84 4.84 0 0 1-1.437-1.571c-.238-.52-.286-.541-.4-1.073-.028-.132-.147-.302-.055-.402 1.295-1.433.461.251.43.285-.421.696-.862 1.37-1.505 1.894-.231.188-.47.386-.75.49-.43.158-.888.262-1.346.281-.216.01-.411-.133-.617-.2-.093-.184-.269-.345-.28-.55-.036-.652.487-1.418.847-1.868.347-.434 1.396-1.457 1.905-1.756.186-.11.42-.105.63-.157l.659.132zM278.037-78.093c.032.113.072.224.098.339.22.943.41 1.898.577 2.852.137.782.148.475.06 1.04-.278-.096-.652-.056-.834-.286-.177-.223-.078-.566-.068-.85.037-1.031.383-2.002 1.112-2.754.22-.225.495-.39.742-.585.782-.325 1.17-.572 2.124-.488.24.021.46.176.646.33.376.311.619.829.722 1.29.056.249.046.507.068.76.001.98-.421 1.867-.649 2.798l-.68.055c.253-.912.683-1.78.692-2.747-.02-.239-.008-.483-.06-.717-.097-.427-.321-.9-.686-1.172-.176-.131-.405-.17-.605-.261-.05-.023-.091-.093-.145-.082-.277.06-.533.192-.8.287-.247.182-.522.332-.743.545a3.493 3.493 0 0 0-.982 1.67 4.04 4.04 0 0 0-.126.965c-.005.266.17.54.09.795-.07.224-.33.337-.496.505.16-.495.118-.224 0-.98-.168-1.069-.395-2.133-.731-3.162l.673-.147zM287.471-77.657c-.306-.033-.9-.13-1.16.023-.227.134-.316.421-.48.627-.617.774-1.098 1.117-1.29 2.109-.05.263.045.534.068.8.164.139.29.343.494.416.508.181.694.08 1.052-.135.276-.166.564-.314.818-.51.538-.412.681-.662 1.068-1.17.079-.136.16-.27.235-.406.164-.298.133-.55.811-.17.117.066.015.267.027.4.065.731.054.551.212 1.357.314 1.415.851 2.764 1.311 4.134.124.369.255.735.358 1.11.092.34.151.69.227 1.034.012.723.123 1.113-.274 1.765-.972 1.596-3.397 1.532-4.98 1.652-1.262-.135-1.508-.094-2.685-.465-.317-.1-.616-.248-.924-.371l.567-.266c.297.121.586.267.892.363 1.157.363 1.407.317 2.651.436.31.012.621.066.93.035 1.028-.105 2.299-.422 2.914-1.348.405-.609.3-.99.301-1.68-.072-.34-.125-.685-.215-1.022-.1-.374-.23-.74-.353-1.106-.463-1.378-1.017-2.73-1.35-4.148-.192-.884-.147-.58-.249-1.369-.015-.119-.132-.277-.042-.358.169-.15.427-.19.653-.187.242.004-1.031.862-.369.62-.147.195-.28.403-.442.585-.34.38-.99 1.002-1.47 1.195a5.62 5.62 0 0 1-1.483.367c-.27.028-.56-.002-.803-.122-.22-.11-.341-.356-.512-.534-.016-.291-.105-.587-.048-.873.141-.701.763-1.755 1.303-2.192.483-.39 1.05-.68 1.626-.913.402-.163.855-.027 1.249.051l-.638.266zM290.706-76.486c.22.013.729.056.906-.002.087-.029.107-.15.175-.212.214-.195.47-.343.667-.554.454-.486.408-.569.545-1.134-.04-.122-.043-.263-.121-.366-.18-.238-.489-.228-.743-.164-.029.008.047.067.023.085-1.946 1.442.739-.83-1.271.923-.166.224-.363.428-.499.67-.376.671-.508 1.51-.009 2.167.414.544.84.612 1.45.859 1.022.219 2.063.19 3.091.043.268-.039.53-.104.796-.156l-.536.35c-.263.046-.524.103-.79.136-1.046.129-2.1.145-3.131-.109-.659-.29-1.072-.36-1.505-.968-.507-.712-.392-1.602-.003-2.329.136-.253.333-.47.5-.704.34-.315.804-.812 1.26-.991.385-.151.793-.25 1.202-.309.322-.046.65.068.822.354.08.135.081.303.122.454-.047.194-.057.401-.14.583a2.732 2.732 0 0 1-.43.65c-.807.92-1.833 1.202-3.006 1.03l.625-.306z" style="opacity:1;fill:#000;fill-opacity:1;stroke:none;stroke-width:2;stroke-linecap:square;stroke-linejoin:miter;stroke-miterlimit:100;stroke-dasharray:none;stroke-opacity:1" transform="translate(64.096 90.292)"/><g style="fill:#717171;fill-opacity:1;stroke:#7f7f7f;stroke-opacity:1"><path d="M14.292 84.47h183.632" style="fill:#717171;fill-opacity:1;stroke:#7f7f7f;stroke-width:.3985;stroke-linecap:butt;stroke-linejoin:miter;stroke-miterlimit:10;stroke-opacity:1" transform="matrix(1.02805 0 0 .99907 35.664 77.014)"/><path d="M196.729 82.876c.098.597 1.195 1.496 1.492 1.593-.297.102-1.394.997-1.492 1.594" style="fill:#717171;fill-opacity:1;stroke:#7f7f7f;stroke-width:.31878999;stroke-linecap:round;stroke-linejoin:round;stroke-miterlimit:10;stroke-opacity:1" transform="matrix(1.02805 0 0 .99907 35.664 77.014)"/></g><path d="M-23.81 63.818h21.841v1.489H-23.81z" style="opacity:1;fill:#f5f5f5;fill-opacity:1;stroke:none;stroke-width:.5;stroke-linecap:square;stroke-linejoin:miter;stroke-miterlimit:4;stroke-dasharray:none;stroke-opacity:1" transform="translate(64.096 90.292)"/><g style="stroke-width:1.01008523"><g style="fill:#000;fill-opacity:1;stroke:#000;stroke-width:.06664829;stroke-miterlimit:4;stroke-dasharray:none;stroke-opacity:1"><path d="M153.739 7.401a40.954 40.954 0 0 0 2.513 5.996c.095.159.188.32.285.477.06.097.119.195.187.286.034.045.072.09.119.122.015.011.074 0 .056.002-.68.113-.732.315-.664.08.12-.85.297-1.695.457-2.54.217-1.276.482-2.546.638-3.832.031-.423.044-.329.784-.362.058-.002.095.065.142.098l-.66.277v0c-.045-.024-.183-.047-.137-.072.19-.104.416-.129.624-.193-.01.008-.026.012-.03.024-.014.05-.015.101-.022.152-.213 1.283-.473 2.558-.676 3.843-.146.832-.299 1.666-.405 2.503.012.388.06.23-.714.31-.032.004-.05-.042-.071-.067-.127-.15-.184-.265-.285-.448-.09-.163-.178-.328-.266-.492-.947-1.96-1.775-3.977-2.547-6.011l.672-.153zM159.706 10.682c.595-.043.907-.02 1.526-.216.6-.28.842-.29 1.336-.703.14-.116.242-.27.362-.404.049-.132.128-.256.146-.396.049-.39-.312-.639-.663-.748-.679.059-1.04.193-1.585.493-.66.463-1.175 1.055-1.483 1.804-.092.224-.185.459-.206.699-.018.215.02.439.089.643.366 1.095 1.762 1.432 2.765 1.55.363.044.65.034 1.078.051.66-.039 1.028-.094 2.065-.29l-.58.43c-1.6.172-.924.114-2.02.176-.37-.022-.744-.018-1.111-.068-1.09-.148-2.486-.555-2.86-1.735a1.85 1.85 0 0 1-.075-.704c.021-.254.099-.502.193-.739.307-.774.888-1.456 1.548-1.955.207-.157.418-.319.66-.416a9.7 9.7 0 0 1 1.1-.389c.422-.033.73-.055 1.126.118.406.178.698.584.649 1.039-.018.16-.103.306-.154.46-.125.149-.23.318-.376.448-.359.317-.883.677-1.327.826-.9.3-1.865.468-2.819.477zM165.29 7.96c.254 1.738.542 3.476.985 5.177-.49-.023.383.51.192.605-.22.11-.484.183-.727.14-.1-.017-.08-.188-.111-.285-.173-.53-.168-.608-.286-1.203-.152-1.055-.161-2.203.562-3.073.42-.506.74-.757 1.294-1.08.476-.18.736-.33 1.224-.412.485-.082.948-.12 1.39.11.077.04.132.11.197.165l-.661.258c-.097-.056-.204-.092-.306-.138-.48-.058-.749.093-1.186.223-.538.29-.868.407-1.286.871-.737.818-.732 1.929-.57 2.946.096.46.3 1.077.43 1.4-.677.58-.623.357-.704.032-.035-.142-.074-.283-.11-.424-.395-1.718-.678-3.46-1.017-5.189l.69-.123z" style="opacity:1;fill:#000;fill-opacity:1;stroke:#000;stroke-width:.06664829;stroke-linecap:square;stroke-linejoin:miter;stroke-miterlimit:4;stroke-dasharray:none;stroke-opacity:1" transform="matrix(.95071 0 0 .95061 72.875 91.076)"/><path d="m170.73-1.851-.085 1.821c-.119 2.47-.14 2.253-.207 4.829-.014 1.779-.04 3.808-.024 4.583a71.52 71.52 0 0 0 .222 5.002l-.688.118c-.117-1.753-.128-3.538-.129-5.041.018-3.738.154-7.474.163-11.212.232-.033.515-.067.747-.1z" style="opacity:1;fill:#000;fill-opacity:1;stroke:#000;stroke-width:.06664829;stroke-linecap:square;stroke-linejoin:miter;stroke-miterlimit:4;stroke-dasharray:none;stroke-opacity:1" transform="matrix(.95071 0 0 .95061 72.875 91.076)"/><path d="M167.126 3.912c1.631-.395 3.69-.723 5.35-.967l-.361.447c-1.312.231-3.29.51-4.388.806zM171.684 6.085c.883.409 1.774.798 2.644 1.231l-.634.28v0c-.862-.452-1.755-.84-2.653-1.218l.643-.293z" style="opacity:1;fill:#000;fill-opacity:1;stroke:#000;stroke-width:.06664829;stroke-linecap:square;stroke-linejoin:miter;stroke-miterlimit:4;stroke-dasharray:none;stroke-opacity:1" transform="matrix(.95071 0 0 .95061 72.875 91.076)"/><path d="M171.464 6.235a18.32 18.32 0 0 1 2.397-.882c.16-.049.32-.103.485-.137.31-.065.624-.107.936-.16.048.05.124.084.142.15.085.297-.36.987-.494 1.29-.08.313-.049.152-.089.483l-.702.081v0c.036-.36.009-.182.082-.534.103-.246.237-.467.357-.705.043-.085.078-.173.12-.258.016-.036.058-.066.055-.106-.001-.023-.044-.017-.065-.026.111-.03.447-.118.334-.092-.98.228-1.937.566-2.847.99l-.711-.094zM173.417 9.113c.03.612.142 1.215.202 1.824.068.825.031.418.11 1.221.089.589.064 1.198.143 1.786-.234.032-.517.066-.721.091.024-.044.005-.335.004-.357a25.53 25.53 0 0 0-.095-1.407c-.039-.405-.07-.812-.113-1.217-.064-.61-.183-1.213-.23-1.824l.7-.117zM178.264 8.474c-.337-.2-.7-.074-.99.076-.423.227-.617.363-.873.646-.724.804-.723.959-1.013 1.945-.088.3-.081.631-.024.939.268 1.44 1.196 1.653 2.454 1.794.389.043 1.965-.072 2.392-.405l.512.319a8.97 8.97 0 0 1-1.674.466c-.707.124-1.907.064-2.448-.081-.984-.264-1.74-.942-1.928-2.005a2.674 2.674 0 0 1 .029-.992c.073-.36.214-.85.385-1.175.273-.515 1-1.33 1.525-1.643.442-.263.97-.458 1.47-.574.2-.046.66.242.827.323-.225.074-.419.293-.644.367z" style="opacity:1;fill:#000;fill-opacity:1;stroke:#000;stroke-width:.06664829;stroke-linecap:square;stroke-linejoin:miter;stroke-miterlimit:4;stroke-dasharray:none;stroke-opacity:1" transform="matrix(.95071 0 0 .95061 72.875 91.076)"/><path d="M183.568 8.562c-.272-.074-.616.036-.834.174-1.02.643-2.08 1.68-2.737 2.688-.163.25-.304.52-.398.803-.062.184-.12.393-.063.579.068.216.387.202.665.166.04-.005.548-.184.548-.184.37-.19.794-.35 1.244-.8.256-.267.528-.521.767-.804.684-.805 1.378-1.863 1.662-2.894.223.055.495.018.67.167.1.086-.018.263-.012.394a4.668 4.668 0 0 0 .432 1.786c.097.21.223.407.334.61.468.692 1.014 1.382 1.792 1.748.144.068.301.105.452.158l-.622.295c-.163-.06-.323-.134-.459-.19-.778-.411-1.335-1.117-1.81-1.835-.113-.21-.24-.414-.34-.631a5.349 5.349 0 0 1-.467-1.843c-.01-.14-.108-.322-.006-.42.192-.183.497-.191.746-.287-.514 1.442-1.432 2.71-2.5 3.8-1.018.815-1.536 1.297-2.936 1.414-.38.032-.763-.175-.833-.573-.037-.212.013-.435.083-.638.102-.295.253-.573.424-.834.448-.685 1.038-1.425 1.634-1.973a6.79 6.79 0 0 1 1.071-.793c.548-.326 1.106-.559 1.773-.617-.137.176-.184.35-.28.534z" style="opacity:1;fill:#000;fill-opacity:1;stroke:#000;stroke-width:.06664829;stroke-linecap:square;stroke-linejoin:miter;stroke-miterlimit:4;stroke-dasharray:none;stroke-opacity:1" transform="matrix(.95071 0 0 .95061 72.875 91.076)"/><path d="M187.959-2.715c.03 1.975.263 3.94.328 5.913.154 2.816.215 5.635.358 8.45.046.657.079 1.317.196 1.965.018.285-.384.225-.565.225-.216.031-.291.037-.215-.456-.154-2.417-.098-4.841-.217-7.26a95.218 95.218 0 0 0-.467-6.643c0-.672-.225-1.545-.078-2.093z" style="opacity:1;fill:#000;fill-opacity:1;stroke:#000;stroke-width:.06664829;stroke-linecap:square;stroke-linejoin:miter;stroke-miterlimit:4;stroke-dasharray:none;stroke-opacity:1" transform="matrix(.95071 0 0 .95061 72.875 91.076)"/></g><g style="fill:#000;fill-opacity:1;stroke:none;stroke-width:1.01008523"><path d="M167.56 20.994c-.211-.242-.468-.315-.777-.272a1.679 1.679 0 0 0-.517.135c-.032.016.075.078.047.099-.22.162-.475.262-.712.392-.23.174-.471.329-.688.52-.657.58-1.49 1.544-1.208 2.566.058.206.196.376.294.563.185.153.349.343.555.46.805.452 1.79.481 2.669.366.928-.122 1.033-.018.731-.233.246-.13.384-.165.565-.362.142-.156-.034-.084-.085-.067l-.05.025.716-.465.073.023c.12.075.226.178.216.348-.022.36-.451.507-.68.64-.432.12-.86.255-1.296.358-1.127.268-2.531.304-3.564-.34-.222-.138-.393-.355-.59-.533-.104-.217-.252-.416-.312-.651-.285-1.103.518-2.116 1.227-2.773.215-.2.457-.364.686-.547.983-.588.674-.474 2.054-.853.44-.12.883-.153 1.262.157.069.056.119.135.178.203l-.794.241z" style="opacity:1;fill:#000;fill-opacity:1;stroke:none;stroke-width:2.02017045;stroke-linecap:square;stroke-linejoin:miter;stroke-miterlimit:100;stroke-dasharray:none;stroke-opacity:1" transform="matrix(.97923 0 0 .97923 66.82 91.652)"/><path d="M169.46 13.52c.283 3.017.421 6.045.563 9.072.033 1.057.12 2.114.127 3.172v.083l-.826.112c.003-.027.005-.053.01-.08.06-1.058.027-2.12.012-3.18-.07-2.665-.14-5.336-.508-7.98-.046-.325-.114-.648-.17-.972l.794-.228z" style="opacity:1;fill:#000;fill-opacity:1;stroke:none;stroke-width:2.02017045;stroke-linecap:square;stroke-linejoin:miter;stroke-miterlimit:100;stroke-dasharray:none;stroke-opacity:1" transform="matrix(.97923 0 0 .97923 66.82 91.652)"/><path d="M169.038 21.233c.148-.107.287-.228.443-.32.27-.159.55-.3.832-.431.803-.376 1.587-.717 2.515-.527.787.16.964 1.237 1.18 1.825.341 1.509.377 3.065.267 4.606l-.794.098c.229-1.502.186-3.04-.158-4.52-.527-1.294-.674-1.347-1.126-1.555 0 0-.247.04-.338.058-.319.063-.55.157-.848.295-.692.32-.705.386-1.218.748zM179.169 21.002c.02.02.084.046.06.06-.292.175-.618.277-.91.45-.91.538-1.774 1.26-2.358 2.2-.139.222-.225.479-.338.718-.04.337-.194.702.12.97.283.241.823.166 1.114.107.06-.012.094-.084.148-.114.28-.155.57-.292.854-.439.784-.52 1.429-1.192 1.845-2.088.166-.355.286-.748.273-1.152-.004-.09-.047-.175-.071-.262-.368.168.292-.149.614.046.112.068-.025.28-.01.418.023.207.063.412.124.61.21.67.363.83.73 1.428.644.902 1.483 1.567 2.435 2.039.16.079.325.142.487.212l-.707.356c-.43-.21-.647-.302-1.068-.583a6.997 6.997 0 0 1-1.862-1.793c-.152-.249-.323-.486-.458-.747a4.387 4.387 0 0 1-.464-1.395c-.025-.165-.133-.382-.024-.501.221-.243.557-.338.863-.42.063-.016.087.104.131.155.02.113.06.224.059.34-.006 1.029-.72 2.137-1.39 2.8-.242.239-.523.428-.785.643-.283.159-.547.366-.85.477-.567.208-2.816 1.021-2.95-.428-.02-.22.06-.439.09-.658.12-.254.214-.524.36-.761.594-.96 1.458-1.702 2.368-2.285.283-.181.57-.367.88-.486.446-.17.918-.25 1.377-.376l-.688.459z" style="opacity:1;fill:#000;fill-opacity:1;stroke:none;stroke-width:2.02017045;stroke-linecap:square;stroke-linejoin:miter;stroke-miterlimit:100;stroke-dasharray:none;stroke-opacity:1" transform="matrix(.97923 0 0 .97923 66.82 91.652)"/><path d="M183.342 20.587c-.158 1.423.01 3.218.23 4.622.311.097-.579-.28-.778-.463-.048-.744.257-1.643.458-2.264.124-.299.294-.572.441-.859.193-.24.36-.508.578-.724.737-.732 1.746-1.023 2.737-.972.465.023.734.427 1.025.735.11.208.243.405.332.624.413 1.02.4 2.183.31 3.267a2.67 2.67 0 0 1-.268.932l-.834.012c.149-.264.283-.529.319-.845.12-1.036.149-2.164-.265-3.138-.085-.201-.213-.378-.32-.566-.455-.487-.236-.329-.813-.577-.267-.024-.84.152-.84.152a2.068 2.068 0 0 0-.644.407c-.218.2-.387.454-.58.681-.403.757-.506.83-.706 1.673-.06.251-.09.51-.115.768-.018.188.048.867-.066 1.01-.727.154-.737.309-.76-.057-.099-1.445-.327-2.885-.26-4.338l.82-.08zM193.091 21.21c-.529-.025-.88.103-1.369.287-.197.09-.422.278-.693.491-.59.464-.835.936-.953 1.553-.046.241-.02.507.071.732.357.884 1.275.937 2.021.9.104-.006.449-.041.542-.09.283-.146.488-.244.725-.457.555-.501.692-.613.92-1.337.05-.16.058-.333.055-.501 0-.066-.126-.168-.067-.182.869-.207.754-.15.764.395.173 1.308.68 2.52 1.096 3.75.129.381.291.752.37 1.147.087.426.082.868.123 1.301-.08.88-.004 1.402-.542 2.134-.477.649-1.247 1.03-1.966 1.222-1.697.45-1.709.348-3.216.254-1.372-.412-.762-.144-1.85-.744l.682-.328c1.025.576.445.32 1.766.698.23.01 1.497.113 1.926-.002.693-.185 1.44-.472 1.931-1.08.552-.681.48-1.176.576-2.026-.04-.418-.037-.844-.12-1.255-.081-.393-.24-.763-.37-1.14-.43-1.25-.958-2.474-1.19-3.793-.065-.645-.228-.765.818-.718.086.004.05.18.047.273-.034.926-.394 1.45-1.03 2.027-.245.224-.568.494-.877.603-1.018.36-2.45.566-3.398-.232a1.644 1.644 0 0 1-.482-.682 1.714 1.714 0 0 1-.067-.834c.048-.306.178-.603.334-.868.174-.297.4-.56.642-.796a4.622 4.622 0 0 1 2.185-1.188c.379-.085.798-.163 1.143.173-.265.08-.282.232-.547.312zM197.56 22.404c.191-.034.387-.043.573-.102.055-.017.08-.09.13-.12.706-.413.865-.338 1.396-.968.122-.145.229-.314.288-.5.035-.11-.011-.232-.017-.348-.172.027-.349.032-.517.08-.06.017-.098.08-.153.11-.297.161-.618.273-.902.461-.504.334-1.005.806-1.271 1.395-.107.236-.12.51-.179.765.064.235.073.495.19.704.288.514.855.829 1.352 1.01.7.254 1.435.316 2.167.32.344.001.688-.04 1.032-.06l.809-.136c-.055-.004-.197.035-.164-.012.115-.055.247-.08.325-.192.01-.014-.024.029-.04.032-.03.007-.06-.002-.09-.004l-.106-.009.736-.41.126.055c.044.04.1.066.13.118.178.3-.057.486-.317.563-.979.291-1.137.284-2.025.401-.344.011-.688.044-1.032.034-.743-.02-1.513-.098-2.218-.378-.554-.22-1.124-.575-1.424-1.16-.125-.244-.133-.539-.2-.808.063-.28.077-.58.19-.842.368-.85 1.376-1.703 2.186-1.993.503-.18 1.024-.333 1.552-.375.219-.017.421.134.631.201.001.158.049.324.004.474-.133.443-.595.904-.92 1.145-.862.641-1.912.847-2.927 1.005l.686-.457z" style="opacity:1;fill:#000;fill-opacity:1;stroke:none;stroke-width:2.02017045;stroke-linecap:square;stroke-linejoin:miter;stroke-miterlimit:100;stroke-dasharray:none;stroke-opacity:1" transform="matrix(.97923 0 0 .97923 66.82 91.652)"/></g></g><path d="M-21.325 33.369H-6.93v41.449h-14.395z" style="opacity:1;fill:#f5f5f5;fill-opacity:1;stroke:none;stroke-width:1.70000005;stroke-linecap:square;stroke-linejoin:miter;stroke-miterlimit:100;stroke-dasharray:none;stroke-opacity:1" transform="translate(64.096 90.292)"/></g></svg>