<svg xmlns="http://www.w3.org/2000/svg" width="600" height="400" viewBox="0 0 562.5 375"><path d="M437.286 282.507c-.46 12.15-11.436 21.792-23.77 27.974-24.6 12.33-52.876 14.861-79.96 12.029-21.604-2.26-43.617-9.45-59.092-25.347-9.952-10.224-17.336-22.398-18.02-37.371-.223-4.889.94-11.081 3.886-8.788 2.345 1.826-.978 5.287-5.485 7.903-7.158 4.156-20.887 5.22-30.169 4.122-18.627-2.206-36.458-11.494-47.9-28.974-11.087-16.939-11.788-41.754-3.693-60.651 9.477-22.123 30.662-41.018 54.277-45.06 9.597-1.642 23.266-.513 19.66 4.959-10.926-4.034-22.806-14.243-26.847-29.917-3.59-13.926.416-31.532 10.896-44.003 12.977-15.443 33.8-23.757 49.096-26.553 21.576-3.944 42.383-2.196 56.367 3.197 10.29 3.969 21.292 12.155 24.45 23.678.367 1.336 1.455 4.617-.572 5.112-1.74-4.806 2.74-9.317 6.066-12.289 9.127-8.156 21.477-10.966 33.793-11.155 22.785-.351 40.559 6.412 57.982 21.76C471.45 74.76 485.15 94.286 487.34 112.89c1.264 10.735-.756 21.83-9.715 29.263-3.713 3.08-9.56 2.795-12.852-.752 2.836-1.354 9.368.146 13.406 1.523 13.44 4.581 26.327 13.927 34.676 25.311 10.427 14.216 12.724 32.042 9.336 44.354-4.333 15.75-13.008 27.273-26.546 36.275-16.068 10.683-30.263 13.655-48.211 13.488-8.927-.084-18.755-.804-26.044-6.461-1.47-1.141-2.586-2.675-3.806-4.204 12.198 5.336 20.196 17.775 19.702 30.82z" style="display:inline;fill:#e5f6ff;fill-opacity:1;stroke:#000;stroke-width:1.03125;stroke-linejoin:round;stroke-miterlimit:2"/><path d="M-3523.913 788.358c-.368-2.485-.368-3.963-1.793-6.268-2.689-4.35-9.023-10.182-13.379-12.777-1.973-1.177-4.165-1.942-6.247-2.912-2.294-.63-4.52-1.609-6.88-1.891-13.879-1.658-27.634 4.634-38.894 12.071-3.468 2.29-6.677 4.952-10.015 7.428-13.512 11.328-23.824 25.556-30.632 41.816-1.758 4.2-3.43 8.464-4.566 12.873-1.325 5.144-1.861 10.46-2.791 15.69-.11 5.519-.646 11.045-.327 16.556.884 15.308 5.126 30.623 13.846 43.385 6.716 9.828 10.431 11.724 19.52 19.027 3.927 2.21 7.718 4.683 11.784 6.628 15.198 7.272 34.028 11.57 50.91 11.082 3.81-.11 7.58-.792 11.368-1.189 10.279-2.256 21.955-5.228 28.21-14.588 2.364-3.539 2.423-5.455 3.267-9.378.066-1.853.01-7.106-2.163-8.32-2.853-1.598-5.017 3.484-5.844 4.902-1.32 3.654-2.6 6.529-2.923 10.523-.893 11.031 1.387 22.089 5.754 32.196 1.823 4.218 4.285 8.13 6.428 12.196 2.65 3.653 5.063 7.49 7.948 10.96 8.046 9.68 18.18 18.13 28.983 24.561 9.552 5.688 13.072 6.556 23.47 10.61 4.36 1.246 8.671 2.684 13.083 3.738 14.168 3.385 28.768 4.91 43.286 5.675 5.11.269 10.226.5 15.343.496 5.17-.01 10.335-.347 15.503-.521 5.233-.655 10.495-1.114 15.7-1.966 19.073-3.125 39.442-8.976 56.4-18.444 3.86-2.155 7.418-4.812 11.126-7.218 3.018-2.69 6.299-5.113 9.055-8.071 6.536-7.015 11.327-15.746 11.242-25.548-.055-6.298-1.652-9.025-3.81-14.728-5.007-10.5-13.24-18.684-21.966-26.134-.145.119-2.82-2.509-3.122-2.314-.364.236.887 1.597 1.847 2.78 6.025 7.694 13.762 9.542 22.896 11.678 14.025 2.476 28.547 1.959 42.312-1.82 2.82-.774 5.552-1.839 8.328-2.758 16.919-6.527 31.919-16.908 46.688-27.241 8.518-6.326 16.13-13.91 21.778-22.948 2.902-4.644 3.911-7.482 6.05-12.441 3.347-9.536 5.007-19.619 3.774-29.72-1.009-8.263-2.164-10.353-4.82-18.303-5.149-13.133-13.346-24.555-23.86-33.933-7-6.244-9.15-7.15-16.988-12.084-11.615-6.51-24.223-11.495-37.362-13.835-4.97-.806-2.252 1.372-.165 3.025 3.902 2.306 8.621 3.25 12.951 1.407 1.346-.573 2.535-1.461 3.803-2.192 1.225-1.153 2.578-2.184 3.675-3.46 5.79-6.735 8.238-16.287 8.548-25 .102-2.88-.222-5.759-.332-8.639-.505-3.092-.787-6.229-1.515-9.276-3.68-15.42-12.391-28.995-22.433-41.035-2.865-3.435-5.994-6.64-8.99-9.96-15.768-16.132-34.103-29.76-54.678-39.14-3.802-1.733-7.747-3.131-11.621-4.697-14.366-4.793-29.655-7.42-44.694-4.258-8.545 1.796-10.745 3.43-18.426 7.157-7.444 4.845-19.109 12.62-20.545 22.418-.115.779.073 1.573.109 2.36.206.425.23 1.007.62 1.275 1.564 1.075 2.176-2.666 1.95-4.557-.487-4.06-1.384-5.11-3.166-8.99-1.247-1.808-2.313-3.755-3.74-5.425-7.387-8.643-18.183-13.024-29-15.519-3.458-.797-6.983-1.274-10.474-1.91-3.844-.461-7.677-1.018-11.53-1.382-4.03-.38-8.073-.606-12.113-.85-12.512-.756-25.11-1.202-37.64-.54-4.292.226-8.566.716-12.85 1.075-19.526 2.69-41.512 5.323-58.546 16.104-2.96 1.873-5.536 4.291-8.304 6.437-2.15 2.634-4.618 5.038-6.451 7.902-5.643 8.815-7.967 19.404-7.91 29.76.05 8.88 1.49 14.358 3.116 23.101 3.49 15.061 9.01 29.764 19.966 41.04 5.488 5.647 7.756 7.313 14.445 10.913 3.614 1.946 7.672 3.471 12.46 4.783" style="display:inline;fill:#e5f6ff;stroke:#000;stroke-width:1.03125;stroke-linejoin:round;stroke-miterlimit:2" transform="translate(3002.884 -78.7)"/><path d="M-466.911 246.256c3.605 4.848 1.03 12.242-2.89 16.268-7.655 7.362-18.907 9.05-29.065 9.858-22.351.249-45.642-7.525-61.118-24.109-14.201-16.726-17.093-40.349-12.76-61.272 6.079-26.342 25.422-49.684 50.794-59.419 9.838-3.892 21.715-2.854 29.872 4.216 3.673 3.307 8.224 6.966 8.382 12.349" style="display:inline;fill:none;stroke:#000;stroke-width:1.03125;stroke-linejoin:round;stroke-miterlimit:2"/><path d="M-288.722 254.924c11.075 8.57 22.695 20.38 22.685 35.323-1.135 15.285-14.835 25.296-27.207 32.02-28.1 14.222-60.551 17.317-91.516 13.769-24.757-2.28-50.136-10.401-67.835-28.61-13.286-13.623-23.74-32.753-20.342-52.296 1.224-2.868 2.005-9.263 6.026-8.874" style="display:inline;fill:none;stroke:#000;stroke-width:1.03125;stroke-linejoin:round;stroke-miterlimit:2"/><path d="M-234.577 128.73c3.246-1.55 11.208 2.003 15.914 3.31 19.052 6.792 36.51 19.898 45.28 38.496 5.798 11.752 8.196 25.516 4.239 38.255-4.078 15.91-16.244 28.2-29.814 36.68-16.359 11.422-34.922 21.859-55.464 21.705-10.217-.132-21.405-1-29.809-7.395-1.618-1.385-2.96-3.061-4.22-4.767" style="display:inline;fill:none;stroke:#000;stroke-width:1.03125;stroke-linejoin:round;stroke-miterlimit:2"/><path d="M-354.025 41.07c-1.99-5.502 3.172-10.627 6.943-14.067 10.48-9.298 24.661-14.285 38.677-12.77 23.67 2.336 45.093 14.91 62.807 30.194 14.945 13.49 29.313 29.548 34.03 49.654 2.48 12.122 1.971 27.022-8.3 35.51-4.232 3.545-10.94 3.2-14.71-.861" style="display:inline;fill:none;stroke:#000;stroke-width:1.03125;stroke-linejoin:round;stroke-miterlimit:2"/><path d="M-472.375 121.433c-18.807-4.311-31.515-21.849-35.606-39.92-4.64-15.793-6.473-34.819 4.211-48.658 11.856-14.619 31.469-18.083 49.072-20.71 23.569-3.272 47.61-2.245 71.066 1.382 12.404 2.339 26.388 8.574 30.262 21.69.153 1.579 1.665 5.286-.655 5.852" style="display:inline;fill:none;stroke:#000;stroke-width:1.03125;stroke-linejoin:round;stroke-miterlimit:2"/><path d="M137.06 191.496c6.255 7.749 10.505 18.227 8.354 27.847-1.787 7.991-7.54 15.586-13.796 18.567-6.546 3.214-13.704 5.143-20.818 4.093-7.832-.913-15.894-3.947-21.313-10.98-5.574-6.647-7.52-17.252-4.833-25.668 3.344-10.476 9.88-15.71 17.404-19.284 11.608-5.44 25.975-4.904 35.868 4.834" style="fill:#e5f6ff;fill-opacity:1;stroke:#000;stroke-width:1.03125;stroke-linejoin:round;stroke-miterlimit:2;stroke-dasharray:none;stroke-opacity:1"/><path d="M-77.724 32.862c-4.085-7.01-10.73-8.037-18.173-9.02-6.992-.167-14.566-.004-20.96 3.258-1.116.569-2.12 1.335-3.18 2.003-.899.895-1.889 1.709-2.698 2.687-3.47 4.195-5.36 9.643-5.621 15.046-.062 1.284.068 2.57.103 3.854.786 6.473 3.905 12.221 8.668 16.654.92.856 1.944 1.591 2.916 2.387 7.206 4.992 14.396 6.319 22.944 7.062 7.161.224 14.591-.58 20.94-4.197 1.032-.588 1.942-1.369 2.912-2.053 3.958-3.766 5.773-8.015 4.857-13.508-.17-1.02-.51-2.005-.766-3.007-2.429-7.285-7.157-13.474-11.612-19.63l-1.99-2.391-.145.12 1.983 2.382c4.441 6.135 9.156 12.305 11.582 19.565.254.992.592 1.966.762 2.976.91 5.424-.873 9.615-4.779 13.34-.96.678-1.86 1.453-2.882 2.036-6.32 3.603-13.716 4.403-20.846 4.18-8.507-.738-15.668-2.055-22.842-7.02-.966-.79-1.984-1.521-2.898-2.371-4.73-4.399-7.832-10.104-8.617-16.53-.035-1.276-.165-2.552-.104-3.826.255-5.363 2.129-10.77 5.568-14.937.799-.968 1.777-1.774 2.665-2.66 1.05-.663 2.045-1.424 3.15-1.988 6.363-3.25 13.905-3.409 20.865-3.246 7.374.972 13.979 1.974 18.03 8.918l.168-.084z" style="fill:none;stroke:#000;stroke-width:1.03125;stroke-linejoin:round;stroke-miterlimit:2;stroke-dasharray:none;stroke-opacity:1"/><path d="M59.237 184.93c-.714-1.777-3.162-2.637-4.836-2.973-4.171-.74-8.478-.34-12 2.097-2.29 1.626-4.708 4.482-5.67 7.25-1.403 3.552-.949 7.92 1.222 11.067 1.823 2.7 4.96 4.873 7.354 5.868 3.842 1.596 8.595 2.06 12.453.186 4.336-2.028 6.455-4.243 8.591-8.363 1.088-2.392 1.202-5.793.226-8.475-1.216-3.344-3.82-5.539-6.842-6.743-2.378-.946-4.06-1.14-5.991-1.28" style="fill:#e5f6ff;fill-opacity:1;stroke:#000;stroke-width:1.03125;stroke-linejoin:round;stroke-miterlimit:2;stroke-dasharray:none;stroke-opacity:1"/><path d="M-38.003 192.363c3.885 4.047 7.725 10.296 8.832 16.532 1.115 6.279-.136 13.83-5.294 18.885-5.028 4.927-11.826 7.282-18.529 8.935-7.373 1.817-16.289.66-22.918-1.532-5.229-1.73-10.178-5.141-13.556-9.596-3.86-5.09-4.621-11.68-3.951-17.894.7-6.487 5.085-12.153 10.528-15.782 6.772-4.516 13.467-6.637 20.867-7.335 8.588-.81 18.294 1.576 24.926 7.26" style="fill:none;stroke:#000;stroke-width:1.03125;stroke-linejoin:round;stroke-miterlimit:2;stroke-dasharray:none;stroke-opacity:1"/><g style="display:inline"><g style="stroke-width:3.16821"><path d="M-2108.85 1904.172c.339 10.927 1.146 21.83 1.663 32.747.23 4.511.237 9.028.537 13.536.17 2.55.06 1.764.478 3.695l-6.298-1.492c-.601-5.73-.134-11.527-.519-17.271-.276-6.25-.656-12.481-1.075-18.721-.12-1.771-.553-8.677-.73-10.729-.097-1.118-.242-2.232-.363-3.348l6.307 1.583z" style="opacity:1;fill:#000;fill-opacity:1;stroke:none;stroke-width:.316821;stroke-linecap:square;stroke-linejoin:miter;stroke-miterlimit:4;stroke-dasharray:none;stroke-opacity:1" transform="matrix(.31573 0 0 .31554 961.156 -483.184)"/><path d="M-2132.027 1906.036c1.259-.598 2.482-1.274 3.775-1.792 8.279-3.324 18.895-5.876 27.841-5.444 1.906.093 3.772.577 5.659.865 3.06 1.415 6.435 2.29 9.182 4.245 1.01.72 1.447 2.153 1.54 3.39.106 1.408-.39 2.835-.974 4.12-2.034 4.486-6.478 7.379-10.271 10.183-1.112.695-2.21 1.414-3.337 2.084-.835.498-1.702.94-2.547 1.419-.512.29-1.041.556-1.525.892-.042.029-.03.166.02.151.552-.175 1.924-.184 1.604-.667-.593-.895-1.955-.89-2.932-1.336 8.297 2.044 17.147 4.07 23.84 9.707 1.338 1.125 2.62 2.348 3.669 3.747.996 1.33 1.605 2.91 2.408 4.365.37 1.422.973 2.803 1.107 4.266.212 2.31-.434 5.732-1.763 7.711-1.424 2.12-4.078 3.903-6.367 4.917-1.17.519-2.44.774-3.661 1.16-1.618.174-3.228.458-4.854.52-3.593.135-8.301-.265-11.849-.624a132.417 132.417 0 0 1-13.857-2.123l-7.402-2.694 6.42-.016-3.88-1.242c1.12.284 2.23.619 3.362.854 3.26.676 7.32 1.227 10.579 1.587 3.43.38 8.109.804 11.596.75 1.545-.024 3.08-.237 4.62-.355 1.169-.296 2.377-.466 3.505-.889 1.979-.74 4.656-2.257 5.937-4.03 1.253-1.737 1.796-4.739 1.56-6.8-.153-1.342-.741-2.597-1.112-3.896-2.418-3.982-2.243-4.477-6.076-7.469-1.415-1.105-3.106-1.818-4.532-2.909-.13-.1.596-.161.442-.22-2.825-1.086-5.837-1.669-8.775-2.334-2.814-.857-5.751-1.382-8.442-2.57-1.199-.53-1.752-1.864-.768-2.719.466-.404 1.088-.583 1.637-.863 4.32-2.21.995-.374 5.946-3.24 3.523-2.488 7.853-5.212 9.78-9.282.461-.973.85-2.088.699-3.154-.141-.991-1.585-1.594-1.516-2.593.04-.579 1.143-.192 1.715-.288-1.866-.388-3.699-1-5.597-1.165-8.737-.758-19.222 1.733-27.262 5.103-1.192.5-2.308 1.163-3.462 1.744l-5.681-3.066z" style="opacity:1;fill:#000;fill-opacity:1;stroke:none;stroke-width:.316821;stroke-linecap:square;stroke-linejoin:miter;stroke-miterlimit:4;stroke-dasharray:none;stroke-opacity:1" transform="matrix(.31573 0 0 .31554 961.156 -483.184)"/></g><path d="M-2714.93 300.77c3.585-3.073 7.249-6.047 10.902-9.033 6.207-5.005 12.331-10.121 18.471-15.215 7.14-5.93 14.287-11.852 21.396-17.822 3.924-3.288 7.875-6.544 11.82-9.806 1.285-1.06 2.562-2.13 3.845-3.19 1.08-.89 7.127-5.823 8.181-6.683l4.152-3.407c2.367-1.94 5.802-4.743 8.168-6.7 3.789-3.133 7.547-6.303 11.306-9.472 5.34-4.494 10.642-9.032 15.974-13.536 1.656-1.41.904-.764 2.26-1.936l2.308 1.323c-1.427 1.135-.64.507-2.357 1.884-5.433 4.404-10.764 8.933-16.144 13.406-3.787 3.168-7.57 6.342-11.38 9.482-2.755 2.268-5.418 4.43-8.178 6.692-1.386 1.136-2.77 2.276-4.154 3.415-7.955 6.513-15.895 13.047-23.774 19.657a3295.47 3295.47 0 0 1-21.37 17.86c-6.12 5.11-12.23 10.227-18.38 15.299-3.568 2.944-7.173 5.883-10.579 8.997l-2.468-1.217zM-2690.513 288.217c.547.03 1.093.068 1.641.09 1.475.058 2.784.065 4.268.082 2.742.034 5.483.07 8.225.108 7.283.104 14.567.103 21.852.09 3.736-.005 7.473-.07 11.21-.082 1.21-.004 2.42.009 3.63.006 2.009-.005 4.783-.034 6.8-.053 4.494-.052 8.982-.26 13.475-.315.698-.004 1.395 0 2.092.015l-3.888 2.257c-.634-.026-1.268-.057-1.904-.062-4.35-.065-8.698.048-13.048.073-7.174.032-14.35.012-21.523.05-7.358.02-14.715.055-22.072.019-2.781-.023-5.561-.027-8.342-.033-1.464-.003-2.928-.031-4.392-.03-.612 0-1.224.017-1.836.025l3.812-2.24z" style="fill:#000;fill-opacity:1;stroke:none;stroke-width:2.29999;stroke-linecap:square;stroke-linejoin:miter;stroke-miterlimit:100;stroke-dasharray:none;stroke-opacity:1" transform="translate(3002.884 -78.7)"/><path d="M-2625.642 281.698c2.04 1.354 4.191 2.419 6.332 3.473 2.163 1.113 4.41 1.99 6.497 3.337.114.086.254.13.342.259.29.427.577 1.846.134 2.167-1.688 1.223-3.846 1.44-5.76 1.809-.39.098-.781.192-1.171.294-.436.114-.872.23-1.307.355-.467.134-1.864.567-1.398.421 3.967-1.236 1.96-.622.939-.22-.29.114-.574.25-.861.375l-4.028-1.313c.317-.156.628-.332.95-.47.396-.17.798-.319 1.203-.453 2.91-.962 5.826-1.896 8.774-2.63.328-.085.656-.164.983-.256.23-.065.914-.305.689-.213-1.09.442-2.325.455-3.284 1.266-.29.245.145.877.238 1.309.021.098.176.234.104.273-.089.049-.165-.13-.247-.196-1.982-1.362-4.12-2.287-6.207-3.332-1.248-.604-1.63-.782-2.852-1.397-1.054-.53-2.1-1.092-3.158-1.612-.196-.097-.396-.181-.594-.272l3.682-2.974z" style="fill:#000;fill-opacity:1;stroke:none;stroke-width:2.29999;stroke-linecap:square;stroke-linejoin:miter;stroke-miterlimit:100;stroke-dasharray:none;stroke-opacity:1" transform="translate(3002.884 -78.7)"/><path d="M-2614.963 288.71c.091-3.39.106-6.783.116-10.175.028-3.035-.017-6.066-.032-9.098-.02-3.606-.01-7.215 0-10.821.055-7.165.085-14.33.114-21.493.017-3.066-.03-6.128-.013-9.193l2.26-.667c-.028.49-.066.98-.084 1.473-.09 2.562-.058 5.137-.1 7.7-.022 2.183-.054 4.364-.076 6.546-.051 4.981-.075 9.963-.103 14.944.015 6.624.092 13.243.17 19.863.036 3.355.07 6.712.124 10.064l-2.371.856z" style="fill:#000;fill-opacity:1;stroke:none;stroke-width:2.29999;stroke-linecap:square;stroke-linejoin:miter;stroke-miterlimit:100;stroke-dasharray:none;stroke-opacity:1" transform="translate(3002.884 -78.7)"/><path d="M-2621.364 239.54c1.043-2.65 2.017-5.336 3.047-7.993.654-1.66 1.276-3.346 2.119-4.897.91-1.471.578-1.093 3.889-1.593.222-.034.884 1.61 1 1.875.094.2.18.405.282.6.346.658.59 1.003 1.005 1.638.517.79.935 1.435 1.492 2.193.26.353.533.692.8 1.037.58.701 1.153 1.408 1.762 2.077l-3.593 1.734c-.55-.732-1.093-1.47-1.647-2.2-1.355-1.825-2.74-3.652-3.861-5.68-.071-.137-.14-.277-.213-.413-.04-.074-.075-.156-.13-.217-.013-.014-.057-.005-.053.016.027.128.02.39.133.363 1.05-.246 4.564-1.59 3.071-1.094-.093.095-.197.177-.279.284-.215.285-.546.915-.693 1.21-.494.985-.906 2.018-1.355 3.03-1.07 2.57-2.047 5.196-2.848 7.891l-3.929.139z" style="fill:#000;fill-opacity:1;stroke:none;stroke-width:2.29999;stroke-linecap:square;stroke-linejoin:miter;stroke-miterlimit:100;stroke-dasharray:none;stroke-opacity:1" transform="translate(3002.884 -78.7)"/><g style="stroke-width:3.16821"><path d="M-.18 1207.505c-3.032-2.412-5.58-5.459-7.637-8.735-.553-.881-1.032-1.807-1.548-2.71-.41-.944-.9-1.857-1.229-2.833-.908-2.696-1.23-5.77-.539-8.56.613-2.469 1.296-3.185 2.628-5.326.729-.794 1.399-1.646 2.187-2.381 3.404-3.172 7.779-5.28 12.215-6.565 1.06-.306 2.147-.505 3.22-.757 5.958-.996 10.78-.278 16.196 2.469.845.429 1.581 1.045 2.372 1.568 2.872 2.378 5.557 5.105 7.47 8.335 1.253 2.114 1.285 2.587 2.066 4.874.575 2.867.928 5.902-.205 8.691-.653 1.608-1.2 2.14-2.242 3.518-3.665 3.958-8.608 6.206-13.544 8.143-2.833 1.011-5.75 1.858-8.754 2.162-1.623.164-2.111.115-3.715.097-3.561-.27-6.728-1.675-9.588-3.74-.541-.399-1.054-.82-1.51-1.312l1.97.179c.466.445.963.852 1.486 1.23.762.529 1.086.781 1.923 1.24.405.222.844.381 1.238.62.087.053-.395-.08-.298-.05 1.739.553 1.4.426 3.236.697 1.582.044 2.084.101 3.686-.037 2.99-.257 5.9-1.074 8.725-2.058 4.882-1.871 9.766-4.069 13.408-7.944 1.004-1.311 1.55-1.837 2.178-3.372 1.104-2.699.742-5.654.163-8.423-.283-.801-.508-1.625-.848-2.404-1.832-4.193-5.197-7.687-8.71-10.52-.791-.502-1.581-1.006-2.374-1.506-.306-.194-.583-.45-.923-.577-3.8-1.416-7.897-1.505-11.862-.873-1.067.239-2.149.424-3.203.718-4.39 1.224-8.726 3.274-12.103 6.384-.774.713-1.431 1.541-2.147 2.312-1.297 2.07-1.967 2.763-2.554 5.155-.668 2.722-.329 5.712.58 8.333.332.96.822 1.858 1.233 2.787.52.89 1 1.805 1.557 2.674 2.08 3.249 4.651 6.284 7.765 8.58l-1.969-.084z" style="opacity:1;fill:#000;fill-opacity:1;stroke:none;stroke-width:.316821;stroke-linecap:square;stroke-linejoin:miter;stroke-miterlimit:4;stroke-dasharray:none;stroke-opacity:1" transform="matrix(.2866 -.00172 -.00974 .28444 395.563 -197.27)"/><path d="M6.047 1209.118c-1.34-.184-2.13-.438-3.292-1.061-1.145-.614-2.152-1.293-3.265-2.203-.676-.552-.747-.587-1.2-.588-.265 0-.584-.053-.709-.117-.473-.241-2.697-2.976-3.941-4.849a51.627 51.627 0 0 1-1.334-2.182c-2.022-3.499-2.864-6.079-3-9.192-.106-2.439.417-4.828 1.462-6.672 2.185-3.858 5.33-6.714 9.926-9.015 3.248-1.626 6.865-2.758 10.587-3.315 1.594-.239 5.673-.24 7.102 0 1.956.324 4.017.922 4.613 1.337.203.142.956.634 1.673 1.094 1.573 1.009 3.026 2.242 4.885 4.146 4.147 4.248 6.155 8.13 6.676 12.912.462 4.237-.62 7.158-3.79 10.24-2.643 2.568-6.076 4.616-11.251 6.712-5.71 2.313-11.153 3.304-15.142 2.756z" style="opacity:1;fill:#000;fill-opacity:1;stroke:none;stroke-width:.316821;stroke-linecap:square;stroke-linejoin:miter;stroke-miterlimit:4;stroke-dasharray:none;stroke-opacity:1" transform="matrix(.2866 -.00172 -.00974 .28444 395.563 -197.27)"/></g><g style="stroke-width:3.16821" transform="matrix(.34208 -.06318 .06322 .34188 314.907 -317.74)"><g style="stroke-width:3.16821"><g style="stroke-width:3.16821"><path d="M-259.714 1359.65c-2.789-1.041-5.464-2.395-7.894-4.124-.699-.497-1.354-1.051-2.031-1.577-.617-.664-1.288-1.281-1.85-1.992-2.434-3.072-3.716-6.86-3.593-10.79.03-.978.247-1.94.37-2.91.317-.952.55-1.936.951-2.854 1.861-4.256 5.41-7.587 9.338-9.949 1.018-.612 2.112-1.09 3.167-1.635 1.09-.396 2.154-.868 3.269-1.187 4.139-1.185 8.8-1.314 12.985-.27 1.015.254 1.984.662 2.975.992 1.46.682 2.974 1.256 4.377 2.047 2.395 1.348 4.758 3.812 6.222 6.121 1.181 1.864 1.531 2.983 2.345 4.997.21.846.489 1.677.628 2.537.47 2.904.024 6.576-1.14 9.291-.27.629-.647 1.205-.97 1.808-.435.538-.82 1.12-1.305 1.615-3.052 3.111-7.408 4.485-11.453 5.729-3.698.972-7.471 1.816-11.318 1.761-1.81-.026-2.366-.17-4.072-.441l-1.374-.401-1.477-1.246 1.35.46c1.687.31 2.257.473 4.05.53 3.827.124 7.585-.7 11.266-1.656 3.964-1.198 8.273-2.513 11.295-5.524.471-.47.847-1.025 1.271-1.538.316-.579.684-1.131.947-1.736 1.152-2.652 1.579-6.208 1.094-9.047-.143-.84-.424-1.651-.636-2.477-.83-2.012-1.143-3.034-2.355-4.885a18.397 18.397 0 0 0-3.78-4.2c-.77-.633-1.63-1.151-2.441-1.731-.374-.268-.743-.541-1.115-.812-.977-.347-1.93-.774-2.933-1.043-4.069-1.093-8.817-1.026-12.872.08-1.105.302-2.162.759-3.244 1.138-1.048.53-2.132.99-3.143 1.587-3.87 2.284-7.373 5.535-9.2 9.71-.39.892-.613 1.849-.92 2.774-.116.943-.325 1.88-.349 2.83-.098 3.85 1.216 7.54 3.653 10.501.568.69 1.242 1.283 1.862 1.924.68.514 1.338 1.056 2.038 1.54 2.467 1.709 5.18 3.008 7.986 4.05h-1.974z" style="opacity:1;fill:#000;fill-opacity:1;stroke:none;stroke-width:.316821;stroke-linecap:square;stroke-linejoin:miter;stroke-miterlimit:4;stroke-dasharray:none;stroke-opacity:1" transform="matrix(.73422 -.31284 .30968 .74171 -531.128 411.557)"/><path d="M-256.831 1358.789c-1.24-.059-3.431-.407-3.818-.605-.107-.055-.207-.09-.22-.074-.015.014-.267-.055-.561-.154l-.536-.18.219.2.219.198-.532.075-.532.075-.718-.398a29.912 29.912 0 0 1-4.661-3.145c-.54-.437-1.928-1.862-2.396-2.46-1.866-2.387-3.044-5.175-3.427-8.112-.107-.815-.157-2.038-.114-2.769.02-.357.103-1.097.183-1.645.125-.858.189-1.14.46-2.038.602-2 1.037-2.94 2.132-4.61 1.753-2.675 4.133-4.93 7.388-7 .49-.31 1.305-.756 2.24-1.224 1.19-.596 1.704-.823 2.71-1.2 1.456-.545 2.205-.78 3.179-1 1.962-.441 3.691-.627 5.838-.627 2.181 0 4.087.224 5.963.7.754.192 1.264.362 2.42.807.944.362 1.022.402 1.503.759.279.207.976.703 1.549 1.102 1.175.817 1.626 1.172 2.417 1.9a18.89 18.89 0 0 1 4.236 5.766c.936 1.973 1.676 4.204 1.903 5.739.389 2.62.046 5.859-.89 8.409-.556 1.515-1.576 3.117-2.68 4.21-1.201 1.19-2.928 2.345-4.807 3.216-3.436 1.594-8.897 3.165-13.16 3.786-2.04.296-3.69.386-5.507.298z" style="opacity:1;fill:#000;fill-opacity:1;stroke:none;stroke-width:.316821;stroke-linecap:square;stroke-linejoin:miter;stroke-miterlimit:4;stroke-dasharray:none;stroke-opacity:1" transform="matrix(.73422 -.31284 .30968 .74171 -531.128 411.557)"/></g><path d="M-262.43 1357.736c.52-.102 1.045-.163 1.572-.214.137-.013.273-.024.41-.035l1.619 1.152c-.139 0-.278.01-.416.015-.514.03-1.03.072-1.534.174l-1.651-1.093z" style="opacity:1;fill:#000;fill-opacity:1;stroke:none;stroke-width:.316821;stroke-linecap:square;stroke-linejoin:miter;stroke-miterlimit:4;stroke-dasharray:none;stroke-opacity:1" transform="matrix(.73422 -.31284 .30968 .74171 -530.942 411.633)"/></g><ellipse cx="-927.514" cy="1092.487" rx="12.967" ry="6.965" style="opacity:1;fill:#000;fill-opacity:1;stroke:none;stroke-width:.316821;stroke-linecap:square;stroke-linejoin:miter;stroke-miterlimit:4;stroke-dasharray:none;stroke-opacity:1" transform="matrix(.83497 -.5503 .43976 .89812 0 0)"/></g><g style="stroke-width:3.16821"><path d="M-2302.529 642.5c-7.393 15.702-14.01 31.764-20.571 47.829-1.263 3.313-3.344 7.92-4.36 11.318l-6.036-2.164c1.278-3.343 3.525-7.922 4.876-11.235 6.909-15.904 13.81-31.818 20.113-47.974z" style="opacity:1;fill:#000;fill-opacity:1;stroke:none;stroke-width:.316821;stroke-linecap:square;stroke-linejoin:miter;stroke-miterlimit:4;stroke-dasharray:none;stroke-opacity:1" transform="matrix(.31573 0 0 .31554 959.568 -17.93)"/><path d="M-2301.523 642.289c.233 9.338 2.734 18.452 5.136 27.419 3.283 11.642 7.032 23.143 10.599 34.7l.62 2.035-6.265-1.317-.484-1.986c-3.142-11.632-6.987-23.056-10.26-34.65-2.546-9.143-5.042-18.412-5.616-27.928l6.27 1.727z" style="opacity:1;fill:#000;fill-opacity:1;stroke:none;stroke-width:.316821;stroke-linecap:square;stroke-linejoin:miter;stroke-miterlimit:4;stroke-dasharray:none;stroke-opacity:1" transform="matrix(.31573 0 0 .31554 959.568 -17.93)"/><path d="M-2322.718 674c6.36-.44 12.738-.668 19.12-.855l6.974 3.605c-6.26.178-12.536.341-18.75.968l-7.344-3.718z" style="opacity:1;fill:#000;fill-opacity:1;stroke:none;stroke-width:.316821;stroke-linecap:square;stroke-linejoin:miter;stroke-miterlimit:4;stroke-dasharray:none;stroke-opacity:1" transform="matrix(.31573 0 0 .31554 959.568 -17.93)"/></g><path d="M-2763.492 272.311c1.7-.56 5.171-.44 7.24-.412l1.456 1.435c-2.285-.032-4.971-.198-7.009.144zM-2761.478 275.258c1.702-.172 4.646-.211 6.01-.245l1.499 1.388c-1.41.038-4.533.005-5.737.086zM-2742.25 263.59c-.46.469-.954.907-1.38 1.407-2.503 2.944-4.472 6.54-5.028 10.407-.114.795-.07 1.605-.104 2.408.138.72.2 1.46.414 2.162.599 1.965 2.02 3.97 3.79 5.052.237.145.504.236.757.354-2.533-1.096-1.251-.301-.724-.515l1.835.959c-.131.124-.23.243-.416.296-.86.247-2.42-.681-2.698-.78-.24-.144-.494-.267-.72-.432-1.746-1.278-3.073-3.272-3.638-5.355-.2-.734-.247-1.501-.37-2.252.053-.823.028-1.656.16-2.47.634-3.932 2.63-7.524 5.034-10.636.41-.53.868-1.02 1.303-1.529l1.784.924z" style="fill:#000;fill-opacity:1;stroke:none;stroke-width:.1;stroke-linecap:square;stroke-linejoin:miter;stroke-miterlimit:4;stroke-dasharray:none;stroke-opacity:1" transform="translate(3002.884 -78.7)"/><path d="M-2741.913 270.539c2.723 2.492 5.493 4.935 8.119 7.53.577.59 1.13 1.2 1.639 1.85l-2.03-.241a18.045 18.045 0 0 0-1.534-1.777c-2.621-2.618-5.38-5.094-8.184-7.514l1.99.152z" style="fill:#000;fill-opacity:1;stroke:none;stroke-width:.1;stroke-linecap:square;stroke-linejoin:miter;stroke-miterlimit:4;stroke-dasharray:none;stroke-opacity:1" transform="translate(3002.884 -78.7)"/><path d="M-2734.408 272.678c-1.226 1.05-2.355 2.205-3.466 3.373-.57.601-1.514 1.608-2.068 2.275-.21.253-.399.522-.598.783l-.25.489-1.88-.76.318-.543c.215-.264.42-.536.645-.793.482-.553 1.66-1.786 2.116-2.268 1.11-1.17 2.218-2.341 3.378-3.462l1.805.906zM-2730.395 276.74c.2 1.043.277 2.104.514 3.14.049.214.095.43.172.635.054.143.148.268.222.401l-2.01-.343c-.061-.161-.137-.318-.186-.483-.367-1.24-.376-2.558-.713-3.804l2.001.455zM-2724.19 277.398a14.872 14.872 0 0 1-2.945 5.522l-1.838-.86a10.937 10.937 0 0 0 2.82-5.242l1.962.58zM-2719.527 272.371c-.275 1.491-.43 3.089.065 4.558.108.321.236.65.455.91.17.203.446.285.67.427-.324-.207-.935-.24-.97-.622-.03-.316.608-.202.875-.373 1.014-.647 1.85-1.739 2.317-2.599.169-.273.364-.81.372-1.337.417.259.941.513 1.46.62.248.202 1.012 2.332 1.138 2.625.34.795.71 1.7.932 2.532.126.47.195.952.292 1.428-.01.468.064.945-.023 1.405-.26 1.367-1.184 2.484-2.349 3.188-.873.527-1.206.526-2.159.74-1.135.008-.613.078-1.574-.155l-1.536-1.311c.863.399.382.255 1.461.369.925-.136 1.211-.102 2.075-.56 1.084-.573 1.973-1.551 2.203-2.793.079-.43 0-.872.01-1.308-.101-.458-.173-.924-.303-1.374-.217-.753-.64-1.768-.993-2.48-.135-.274-.726-.675-.447-.798.776.14.72.736.433 1.108-.476.616-.958 1.211-1.586 1.686-.306.231-.607.6-.99.586-.91-.03-1.756-.472-2.634-.708-.208-.211-.465-.383-.623-.633-.194-.307-.314-.658-.413-1.008-.441-1.55-.31-3.194-.091-4.766l1.937.643zM-2709.456 276.834c.185 1.293.435 2.575.633 3.865l-2.001-.49c-.123-1.283-.377-2.55-.626-3.813l1.994.438zM-2709.702 260.593c.992.508 2.058.892 2.975 1.524.589.406 1.034.995 1.485 1.55a17.083 17.083 0 0 1 3.431 7.15c.182.825.23 1.674.346 2.51-.052.76-.02 1.532-.156 2.282-.377 2.088-1.519 4.145-3.202 5.455-.185.144-.397.249-.596.373a372 372 0 0 1-.352.147l-1.728-1.106c.107-.012.215-.022.322-.033.196-.093.405-.16.587-.278 1.699-1.104 2.816-3.123 3.182-5.081.134-.72.105-1.46.158-2.19-.113-.813-.155-1.64-.338-2.44a15.905 15.905 0 0 0-2.022-4.952c-.439-.708-.998-1.334-1.497-2-.519-.491-1.17-.873-1.557-1.473-.097-.15.345-.093.518-.14l-1.556-1.298zM-2694.437 205.377c2.536-.284 5.076-.526 7.624-.66 1.501-.096 1.26.028 3.173.678l-2.065.006c2.796.902 1.603.394.511.472a64.52 64.52 0 0 0-7.577.655l-1.666-1.15zM-2693.14 208.54a91.774 91.774 0 0 1 6.864-.64l.72-.036 1.636 1.173-.74.014c-2.276.09-4.55.27-6.8.637l-1.68-1.148zM-2669.081 193.093c-.343.322-.703.626-1.028.966-2.485 2.608-4.774 5.75-6.045 9.143-.327.872-.504 1.794-.756 2.69-.048.83-.194 1.66-.145 2.489.086 1.434.53 2.757 1.228 3.998.52.923 1.253 1.75 2.028 2.464.273.252.58.464.87.695.211.124.412.266.632.373 1.341.654-1.159-1.317-1.313-.431l1.892.847c-.06.091-.072.287-.179.272-1.384-.183-2.037-.463-3.002-1.197-.277-.249-.57-.48-.83-.746-.762-.78-1.456-1.63-1.954-2.608-.667-1.307-1.078-2.705-1.131-4.181-.031-.856.133-1.709.2-2.563.265-.915.458-1.855.796-2.746.359-.947.81-1.86 1.287-2.753 1.496-2.803 3.485-5.315 5.634-7.64l1.816.928z" style="fill:#000;fill-opacity:1;stroke:none;stroke-width:.1;stroke-linecap:square;stroke-linejoin:miter;stroke-miterlimit:4;stroke-dasharray:none;stroke-opacity:1" transform="translate(3002.884 -78.7)"/><path d="M-2671.45 202.807c2.142 1.92 4.353 3.763 6.592 5.57 1.06.834 2.09 1.705 3.05 2.652l-2.031-.18c-.914-.932-1.909-1.778-2.927-2.594-2.256-1.84-4.482-3.719-6.73-5.57l2.045.122z" style="fill:#000;fill-opacity:1;stroke:none;stroke-width:.1;stroke-linecap:square;stroke-linejoin:miter;stroke-miterlimit:4;stroke-dasharray:none;stroke-opacity:1" transform="translate(3002.884 -78.7)"/><path d="M-2664.753 205.32c-1.714 1.64-3.402 3.31-4.97 5.092l-.451.542-1.83-.844.477-.54c1.602-1.755 3.3-3.418 4.95-5.129l1.825.88zM-2662.815 207.47a11.62 11.62 0 0 1 2.106-.614c.237-.045 1.03-.173 1.311-.095.758.212 1.485.522 2.228.782.087.134.208.252.262.403.45 1.262-.733 2.843-1.38 3.82-.325.564-.763 1.048-1.139 1.575-.04.057-.121.11-.107.178.012.06.166-.114.113-.147-.51-.315-1.079-.523-1.619-.785.154-.031.31-.059.462-.093.903-.204.613-.18 1.616-.333a31.269 31.269 0 0 1 2.475-.255c.215.175.514-.152.733-.027l1.79 1.056c-.258.187-.567.138-.876.138-1.516.063-3.079.15-4.51.694-.706-.247-1.451-.403-2.12-.741-.166-.084.148-.483.181-.526.394-.502.853-.954 1.173-1.514.384-.578.68-.977.977-1.604.207-.437.54-1.168.194-1.644-.065-.09-.18-.13-.27-.195.479.148.97.256 1.434.444.173.07-.366-.083-.553-.088-.93-.022-1.853.308-2.713.615l-1.768-1.044zM-2649.463 210.229c-.695 1.113-1.547 2.117-2.36 3.145l-1.822-.825c.806-.968 1.64-1.933 2.26-3.035l1.922.715zM-2644.853 203.944c-.32 1.471-.503 3.544.857 4.597.272.211.626.287.939.43-.227-.164-.833-.258-.68-.492.21-.317.765-.064 1.125-.186a4.865 4.865 0 0 0 1.117-.575c1.013-.673 1.706-1.621 2.388-2.6.809-1.402.614-1.858 2.761-.253.18.134.068.442.108.662.046.253.1.504.15.756.73 2.935 1.49 5.86 2.093 8.824.206 1.537.584 3.412-.774 4.57-.9.767-1.504.752-2.638 1.018-1.544.116-3.112-.034-4.584-.536-.89-.304-1.758-.674-2.637-1.01l1.99.003c-.285-.08-1.133-.335-.853-.238 1.443.499 2.93.804 4.466.715 1.02-.183 1.612-.15 2.452-.773 1.312-.972.849-2.823.694-4.176-.26-1.322-.347-1.834-.669-3.172-.458-1.9-1.036-3.768-1.501-5.667-.054-.252-.103-.506-.163-.757-.048-.199-.362-.57-.159-.593.62-.067 1.218.267 1.824.413.035.008-.083-.024-.108.003-.273.286-.341.736-.634 1.004-.984 1.372-2.068 2.78-3.679 3.463-.382.163-.793.362-1.206.316-.982-.11-1.908-.513-2.863-.769-.307-.207-.661-.357-.92-.621-1.29-1.311-1.114-3.361-.834-5.007l1.938.652zM-2633.937 207.816c1.845-.28 2.909-.142 4.655.95.175.108.206.372.212.577.01.256-.114.5-.171.75-.464 1.034-1.288 1.822-2.07 2.617-.384.39-.237.197-.434.478.594-.836.09.09-1.264-.94-.165-.125.415-.015.621-.031.844-.065 1.687-.155 2.53-.224.67-.047 1.332-.148 1.998-.222l1.665 1.218c-.67-.092-1.35.159-2.022.157-.696.048-1.007.064-1.714.135-.265.026-.53.057-.795.09-.211.027-.423.132-.632.092-.761-.146-1.538-.304-2.235-.642-.14-.067-.028-.308-.042-.463.275-.366.056-.102.505-.525.748-.706 1.525-1.425 1.964-2.373.03-.15.114-.3.086-.45-.107-.583-1.65-.736 1.077.022.23.064-.455-.147-.691-.176-.574-.072-.983.013-1.546.083l-1.697-1.123zM-2627.812 190.19c2.158 2.187 4.289 4.446 5.783 7.159.375.682.667 1.407 1 2.11.233.71.529 1.401.697 2.129.451 1.958.456 4.028-.067 5.968-.326 1.207-.611 1.65-1.15 2.718-.392.698-.887 1.308-1.531 1.784-.086.063-.18.116-.272.169-.057.032-.117.115-.175.087-.622-.301-1.195-.694-1.792-1.04l1.95.716c-.622-.285-1.241-.572-1.864-.854-.035-.016.063.06.102.057a.636.636 0 0 0 .248-.082c.662-.352 1.124-.939 1.518-1.56.548-1.02.824-1.414 1.15-2.583.524-1.87.507-3.856.053-5.742-.17-.708-.464-1.381-.696-2.072-.337-.686-.633-1.395-1.012-2.059-1.53-2.682-3.682-4.977-5.98-7.011l2.038.106zM-2696.154 295.234c-.426 2.558-.046 4.622 2.418 5.972 1.895 1.038 1.618.9 3.142.588 6.436.41 12.708-1.332 19.057-1.999 1.036-.108 2.078-.126 3.118-.19.883.096 1.78.104 2.649.287 1.77.372 4.71 1.783 5.99 2.601.681.435 1.208 1.073 1.774 1.649 1.618 1.646 1.522 1.69 2.777 3.572.362.798 2.192 3.597 1.083 4.486-.174.14-.424.258-.64.201-.874-.232-1.671-.691-2.507-1.037-.923-1.442-1.315-3.2-.278-4.73.774-1.14 1.485-1.334 2.675-1.997 5.741-2.133 11.96-1.57 17.947-1.197 6.458.337 13.834 1.124 20.061-1.067.896-.315 1.718-.808 2.577-1.212.591-.443 1.227-.83 1.773-1.327.42-.381 2.263-2.526 1.284-3.227-.095-.068-.225-.06-.337-.09l2.07.092c1.753 1.982-1.734 4.618-3.075 5.55-.88.425-1.721.94-2.64 1.273-2.48.9-4.673 1.193-7.302 1.398-4.284.334-8.576.086-12.852-.22-5.913-.371-12.042-.952-17.747 1.027-1.054.537-1.82.744-2.525 1.72-.958 1.326-.551 2.935.429 4.078-.41-.083-.81-.22-1.226-.249-.152-.01.262.206.414.193.362-.032.226-.733.129-1.083-.312-1.119-.753-1.796-1.305-2.845-1.202-1.736-1.235-1.956-2.781-3.462-.566-.55-1.237-.99-1.783-1.56-.118-.124-.021-.4-.17-.483-1.762-.964-2.886-.925-4.853-1.197-1.037.05-2.078.047-3.112.147-6.377.616-12.651 2.416-19.108 2.118-2.071-.45-4.787-.707-6.719-1.944-2.441-1.564-2.773-3.86-2.345-6.5l1.938.664zM-2605.99 287.895c.532.198 1.058.415 1.596.595.022.007-.041-.07-.018-.067 1.683.209 3.32.727 4.677-.751.408-.445.605-1.046.908-1.57.182-.772.455-1.529.547-2.318.39-3.338-.398-6.715-.952-9.98-.814-4.794-.526-2.615-.955-7.253-.026-2.674.383-5.14 2.325-7.118 1.65-1.678 4.004-2.706 6.035-3.814 2.031-1.082 4.092-2.143 6.235-2.992.375-.149 1.44-.65 1.985-.356.73.393 1.35.964 2.024 1.447-.138.352-.223.73-.414 1.057-.758 1.3-3.011 3.236-4.67 2.689-1.13-.373-2.132-1.057-3.198-1.586-.423-.618-.9-1.202-1.27-1.853-2.007-3.548-2.982-7.808-3.323-11.84-.094-1.114-.073-2.235-.11-3.352.09-3.218.172-6.45-.271-9.65-.282-2.034-.551-3.505-1.613-5.275-.377-.628-.933-1.13-1.4-1.696-4.956-2.126-.76-.967-.93-.633-.123.242-.538.076-.807.114l-1.721-1.123c.318-.096.627-.35.953-.29 2.675.497 2.737.799 4.5 2.163.456.604.999 1.152 1.367 1.814 1.025 1.844 1.287 3.328 1.562 5.41.424 3.209.355 6.448.263 9.673.042 1.102.03 2.208.127 3.307.35 3.95 1.302 8.21 3.398 11.627.372.608.868 1.131 1.302 1.697-.156.093-.63.201-.467.281 1.619.792 3.592-.962 4.385-2.195.143-.223.207-.487.31-.731.534.082 1.062.261 1.602.246.23-.007-.405-.285-.635-.274-.422.02-.818.213-1.214.36-2.153.8-4.203 1.878-6.23 2.946-1.973 1.076-4.302 2.058-5.938 3.647-1.914 1.858-2.278 4.216-2.259 6.78.43 4.64.135 2.398.955 7.218.566 3.33 1.351 6.764.947 10.168-.1.833-.384 1.633-.576 2.449-.776 1.384-.87 2.132-2.401 2.783-2.752 1.17-6.171-.925-8.682-1.803l2.051.05zM-2572.935 248.237c-.903 1.78-1.797 4.127-1.304 6.144.094.384.314.726.47 1.09.274.236.656.387.82.71.11.217-.849-.23-.64-.356.359-.214.841.058 1.253-.012 1.678-.283 2.465-1.255 3.564-2.41.731-.943 1.317-1.974 1.69-3.107.046-.137-.032-.463.105-.419 2.201.716 1.94.55 1.925 1.977.199 3.433.919 6.806 1.33 10.215.09.753.152 1.51.228 2.264 0 1.505.079 3.423-1.27 4.485-.857.674-1.967.792-3.008.73-.623-.036-1.229-.214-1.843-.322-2.153-.672-2.302-.673-4.794-1.746-.323-.14-.616-.34-.924-.51l1.984.043c.293.156.619.262.877.469.085.068-.217-.018-.326-.027l1.697.583c.589.13 1.167.32 1.766.39.864.102 2.005.098 2.784-.419 1.338-.887 1.226-2.772 1.253-4.129-.07-.747-.123-1.497-.212-2.242-.407-3.448-1.184-6.845-1.467-10.309-.041-1.305-.354-1.521 1.927-.778.149.048-.098.297-.156.442a13.262 13.262 0 0 1-1.826 3.232c-.828.905-1.306 1.572-2.385 2.194-.533.307-2.008.832-2.67.683a10.788 10.788 0 0 1-2.828-1.095c-.347-.192-.522-.596-.784-.894-.141-.405-.343-.794-.425-1.214-.43-2.21.454-4.451 1.298-6.445l1.891.783zM-2562.272 254.658c.803-.304 1.606-.64 2.45-.815.19-.04.388-.12.576-.073.744.183 1.514.359 2.173.751.163.097.029.38.044.569-.058.196-.094.4-.174.588-.16.374-.645 1.143-.845 1.47a44.04 44.04 0 0 0-1.214 2.107c.037.196-.32.41-.28.64.01.036.139.008.107-.01-.51-.277-1.074-.46-1.56-.778-.127-.084.302.05.454.052.232.003.464-.023.695-.035 1.349-.154 2.695-.324 4.044-.471.788-.107.081-.036 1.81 1.127l-1.888-.856c1.913.937 2.575.956 1.764.914-1.367.053-2.725.25-4.078.442-.234.028-.467.058-.701.083-.167.017-.342.096-.501.043-2.014-.668-2.543-.544-1.737-1.91.405-.71.817-1.414 1.24-2.114.192-.32.607-.994.764-1.367.051-.121.066-.254.1-.38-.377-.535-.39-.495 1.44.31.166.072-.365-.032-.545-.011-.83.1-1.61.462-2.385.75l-1.753-1.026zM-2554.43 251.978c2.001-.214 4.002-.422 6-.66 1.002-.131.316-.089 1.984 1.13l-1.929-.757c.043-.088.037-.297.128-.263 2.91 1.09 2.428.982 1.482 1.048-2.001.16-4.005.363-5.988.675l-1.676-1.173zM-2540.608 247.863c-.827 1.324-1.414 2.799-1.46 4.379-.015.49 0 .988.098 1.469.09.432.312.827.467 1.24.218.236 1.221 1.613 1.87 1.204.248-.156-.754-.368-.616-.626.21-.393.85-.292 1.232-.522 1.038-.623 1.34-1.13 2.107-2.034.219-.37.459-.727.657-1.108.148-.286.27-.584.377-.887.06-.169.112-.344.122-.523 0-.03-.117-.023-.09-.009 2.063 1.048 1.968.214 1.744 1.608-.01.383-.04.765-.025 1.148.038.977.247 2.515.366 3.436.14 1.08.46 3.32.547 4.394.058.718.062 1.439.093 2.158-.169 1.317.082 3.1-1 4.14-1.127 1.085-2.796.729-4.158.585-1.353-.325-2.001-.436-3.282-.909-2.886-1.065-2.16-.362-3.209-1.623l2.018.19c.13.114.532.246.39.342-.19.128-.877-.245-.667-.155.965.417 2.232.714 3.235.983 1.095.16 2.847.602 3.852-.195 1.09-.864.828-2.673 1.01-3.837-.03-.708-.032-1.418-.09-2.124-.095-1.158-.413-3.239-.577-4.396-.155-1.09-.365-2.398-.425-3.516-.022-.406 0-.812 0-1.218.182-1.395-.128-1.103 2.206-.586.08.018 0 .166-.02.245a4.236 4.236 0 0 1-.184.572c-.395.963-.554 1.13-1.132 2.09-.822.996-1.097 1.473-2.186 2.21-.407.276-.817.664-1.308.683-.725.029-3.117-.29-4.014-1.07-.32-.279-.505-.681-.757-1.022-.142-.452-.346-.89-.427-1.356-.375-2.163.34-4.287 1.349-6.165l1.885.805zM-2530.047 255.737a53.85 53.85 0 0 1 .58 4.806l.03.437c.01.083-.01.168.012.249 0 .02.07.046.052.038-1.864-.796-2.435-.6-1.698-.82l1.78 1.064c-.74.388-.247.17-2.117-.66-.052-.023.046-.79-.017-.814-.091-1.577-.253-3.163-.638-4.698l2.016.398zM-2673.199 315.49c2.205 2.12 4.412 4.24 6.518 6.458 1.238 1.275 2.206 2.794 3.45 4.06l-2.228-.223c-1.11-1.341-2.123-2.762-3.317-4.034-2.14-2.234-4.374-4.373-6.658-6.458l2.235.197z" style="fill:#000;fill-opacity:1;stroke:none;stroke-width:.1;stroke-linecap:square;stroke-linejoin:miter;stroke-miterlimit:4;stroke-dasharray:none;stroke-opacity:1" transform="translate(3002.884 -78.7)"/><path d="M-2665.325 317.85c-2.763 2.358-5.346 4.919-7.807 7.589l-.545.784-2.001-.88.628-.813a265.24 265.24 0 0 1 7.724-7.676l2.001.995zM-2654.338 320.569c1.369-.095 2.73-.274 4.09-.438.96-.116 1.587-.227 2.532-.094l1.72 1.43c-.146-.065-.283-.163-.44-.193-.71-.14-1.332-.012-2.05.069-1.347.152-2.69.334-4.034.51l-1.817-1.284zM-2639.649 316.41c1.945 2.125 4.051 4.11 6.234 5.99 1 .862 2.033 1.685 3.047 2.53l1.67 1.401-2.617-.188c-.92-.824-.397-.36-1.575-1.386-3.222-2.75-6.438-5.518-9.357-8.597l2.598.25z" style="fill:#000;fill-opacity:1;stroke:none;stroke-width:.1;stroke-linecap:square;stroke-linejoin:miter;stroke-miterlimit:4;stroke-dasharray:none;stroke-opacity:1" transform="translate(3002.884 -78.7)"/><path d="M-2630.923 317.819c-2.563 2.512-4.913 5.239-7.131 8.057l-.636.882-2.375-1.048.678-.887a198.402 198.402 0 0 1 7.093-8.147l2.371 1.143zM-2625.604 323.08c-.148 2.254-.254 4.522-.14 6.78.078.762.01.428.167 1.01l-2.189-.494c-.098-.649-.059-.29-.098-1.08-.046-2.28.062-4.562.12-6.841l2.14.624zM-2663.44 323.247c.705-.131 1.39-.386 2.108-.449.126-.011.261-.048.38-.006.766.272 1.499.626 2.247.94.018.18.07.359.055.54-.09 1.072-1.067 2.5-1.609 3.425-.083.301-.452.652-.48.984 0 .023.633.052.18-.188-.574-.304-1.213-.463-1.82-.695 1.533-.109 3.056-.36 4.581-.555.374-.117.807-.033 1.18-.161l1.843 1.342c-.292-.125-.924.133-1.21.066-1.53.169-3.061.375-4.575.653-.758-.236-1.546-.392-2.274-.708-.095-.041-.052-.201-.057-.304-.024-.474.422-.878.586-1.281.398-.654.82-1.301 1.136-2 .093-.206.34-.774.324-1.064 0-.075-.075-.131-.112-.197.597.191 1.196.374 1.79.573.108.036-.217-.073-.33-.083-.704-.063-1.397.257-2.07.408l-1.874-1.24z" style="fill:#000;fill-opacity:1;stroke:none;stroke-width:.1;stroke-linecap:square;stroke-linejoin:miter;stroke-miterlimit:4;stroke-dasharray:none;stroke-opacity:1" transform="translate(3002.884 -78.7)"/></g></svg>