<svg xmlns="http://www.w3.org/2000/svg" width="400" height="300" viewBox="0 0 105.833 79.375"><path d="M25.7 54.408c1.095 1.73 2.557 3.187 3.97 4.12 3.688 2.44 8.197 3.896 12.49 4.27 5.222.454 10.615.497 15.689-1.06 3.409-1.046 6.94-2.73 8.983-5.914.704-1.097 1.13-3.746-.736-3.198-.68.959 1.327.609 1.69.551 2.152-.342 4.413-1.382 6.14-3.315 1.754-1.96 3.213-5.513 3.19-9.215-.027-4.06-1.168-7.263-4.12-10.029-1.76-1.649-4.35-2.638-6.455-2.697-.397-.012-2.006-.035-2.6.26-.851.422-.878 1.206.091.952 2.236-.933 1.222-4.13.49-5.56-1.925-3.753-7.383-7.463-12.011-8.66-8.068-2.088-16.615-.938-23.608 3.749-3.282 2.2-6.61 5.9-7.822 9.331-.404 1.143-.694 2.475-.686 3.793l.275.034c.075-.522-.62-.274-.966-.214-1.108.4-2.156 1.151-3.083 2.109-1.537 1.572-2.658 3.92-3.127 6.564-.501 2.83.083 5.897 1.369 8.119a12.692 12.692 0 0 0 4.505 4.576c1.462.879 4.913 1.924 7.188 2.062M17.836-18.38c.133-.785.886-1.96 1.72-2.767 3.022-2.924 6.908-4.326 12.689-4.326 4.291 0 9.79 1.5 13.075 4.99 3.109 3.305 3.473 7.228 2.785 9.789-.457 1.7-1.099 2.579-1.653 2.959" style="display:inline;fill:#e5f6ff;fill-opacity:1;stroke:#000;stroke-width:.3175;stroke-linecap:square;stroke-linejoin:miter;stroke-miterlimit:4;stroke-dasharray:none;stroke-opacity:1"/><g style="display:inline;stroke-width:4.07956"><path d="M-3544.427 1866.351c-1.317 1.342-2.774 2.56-3.951 4.026-12.241 15.246-19.723 34.131-23.602 53.168-1.297 6.364-1.792 12.866-2.688 19.3.071 6.374-.35 12.774.213 19.125 1.391 15.718 6.14 31.232 14.363 44.726 4.596 7.543 7.198 9.67 13.028 15.772 4.894 4.066 4.637 4.103 9.308 7.215.809.539 1.631 1.06 2.484 1.525.558.304 1.778.518 1.548 1.11-.42 1.077-1.115 2.026-1.673 3.039l-9.354-7.178c-.247 1.046-.455 2.102-.742 3.138-.02.075-.1.192-.17.158-.4-.193-.731-.506-1.091-.767-.75-.545-1.509-1.08-2.24-1.648-4.534-3.527-3.856-3.125-8.7-7.64-5.636-6.417-8.063-8.563-12.433-16.372-7.786-13.911-12.21-29.702-13.437-45.57-.5-6.452-.056-12.943-.083-19.414.891-6.528 1.41-13.118 2.672-19.585 2.183-11.18 5.982-23.47 10.601-33.946 2.683-6.085 7.992-15.133 11.906-20.84 1.128-1.646 2.478-3.128 3.716-4.691l10.325 5.35zM-3468.63 1921.929c-1.63-.05-3.264-.281-4.888-.147-12.923 1.07-25.955 6.465-35.855 14.833-2.724 2.302-4.95 5.136-7.424 7.703-1.573 2.778-3.57 5.356-4.72 8.335-1.993 5.163-2.27 10.446-.377 15.673.79 2.182 2.03 4.25 3.595 5.962.668.731 9.756 6.947 3.289 2.5 2.86-.221 5.814.088 8.582-.665 13.733-3.734 22.68-16.554 27.912-28.94 1.06-2.507 1.734-5.16 2.601-7.74.373-1.853.888-3.684 1.12-5.56a12.518 12.518 0 0 0-.03-3.275c-.07-.487-.165-1.166-.626-1.335-.363-.133-1.196.655-.838.8 11.494 4.623 10.999-.763 10.794 5.33.105 1.304.116 2.62.316 3.914 1.31 8.48 4.976 18.207 10 25.162 1.537 2.127 3.445 3.96 5.167 5.939 1.872 1.601 3.652 3.318 5.616 4.805 4.488 3.397 9.559 6.05 14.794 8.09.884.344 3.587 1.238 2.703.893-2.915-1.138-5.866-2.182-8.8-3.273.3.764.212.255-.513 1.464l11.289 3.439c-.9 2.24-.184 1.501-1.78 2.518-3.899-1.347-7.815-2.642-11.696-4.04-1.59-.574-5.186-2.347-6.345-2.977-5.938-3.23-11.427-7.112-16.05-12.094-1.714-2.124-3.606-4.116-5.14-6.374-4.952-7.282-8.818-17.633-10.229-26.343-.23-1.429-.268-2.883-.402-4.325.466-6.67-.713-4.665 12.032-1.939.498.107.356.96.452 1.459.383 1.98.257 3.626-.158 5.677-.391 1.933-1.006 3.814-1.508 5.72-.98 2.647-1.797 5.36-2.942 7.94-5.79 13.053-14.784 26.16-28.882 31.132-2.907 1.026-6.072 1.074-9.108 1.611-5.657-2.054-11.586-3.474-16.97-6.162-2.216-1.105-3.986-3.046-5.46-5.035-5.121-6.906-5.368-16.21-2.233-23.969 1.27-3.147 3.386-5.882 5.08-8.824 2.561-2.697 4.878-5.65 7.686-8.09 5.636-4.899 12.451-8.879 19.31-11.778 2.927-1.237 5.993-2.124 9.048-2.997 2.5-.715 5.033-1.343 7.6-1.76 1.606-.261 3.249-.178 4.873-.267l9.116 7.01zM-3433.018 1946.33c18.388-1.532 36.793-2.945 55.242-3.434 6.224-.03 3.527-.044 8.09 0l9.192 6.89c-4.803-.483-1.986-.263-8.462-.503-2.58 0-5.162-.061-7.741-.01-15.714.35-31.413 1.764-47.026 3.482l-9.295-6.434z" style="display:inline;opacity:1;fill:#000;fill-opacity:1;stroke:none;stroke-width:.407955;stroke-linecap:square;stroke-linejoin:miter;stroke-miterlimit:4;stroke-dasharray:none;stroke-opacity:1" transform="matrix(.05397 0 0 .05396 216.493 -62.658)"/><path d="M-3390.856 1931.454c1.988 8.083 3.782 16.248 5.11 24.469.576 3.567.845 6.509 1.219 10.05l.23 3.154-11.088-2.908-.1-3.015c-.921-11.52-3.067-22.97-6.636-33.972l11.265 2.222zM-3333.76 1838.067c.397 1.211.955 2.381 1.193 3.634.971 5.127 1.528 14.584 1.822 19.264.949 15.106 1.246 30.19 1.452 45.32-.084 23.045.825 46.1.345 69.143-2.341-3.035.81 3.697-.234 3.32-3.876-1.398-8.073-2.439-11.308-4.99-1.008-.794.069-2.565.096-3.848.127-5.98.122-6.803.202-13.174.214-7.689.712-15.532 3.26-22.868 1.37-3.948 2.8-6.944 6.534-9.166 1.67-.994 3.676-1.269 5.515-1.904 2.24.03 4.506-.233 6.724.091 2.534.37 5.031 1.063 7.423 1.977 10.19 3.893 16.305 5.606 23.518 12.523 2.001 1.919 3.846 4.032 5.393 6.333 1.458 2.168 2.375 4.654 3.562 6.981 1.074 5.05 2.644 8.413.486 13.519-3.444 8.148-12.668 12.123-20.454 14.565-2.913.914-5.948 1.38-8.922 2.07-10.127 1.065-5.331 1.024-14.382.41l-8.768-6.736c8.873 1.344 4.148 1.081 14.19.44 2.917-.579 5.888-.932 8.751-1.736 6.598-1.854 15.966-5.394 19.01-12.32 1.944-4.423.362-7.568-.681-11.907-3.433-6.143-3.465-7.38-8.976-12.22-2.062-1.81-4.872-2.742-6.694-4.795-.516-.582 3.018.246 2.332-.12-4.734-2.529-8.04-2.475-13.098-3.057-1.64.316-3.389.284-4.922.948-3.556 1.54-4.862 4.168-6.16 7.646-2.646 7.094-2.974 14.758-3.1 22.231.052 4.525.069 8.753.23 13.254.046 1.265 1.446 3.557.202 3.791-3.68.691-7.422-1.034-11.1-1.745-.135-.026.134-.242.2-.363l.347-2.279c.672-7.44.91-14.836 1.041-22.31.273-15.412.33-30.828.048-46.24-.427-15.13-.787-30.26-2.183-45.34-.534-5.778-1.18-12.986-2.92-18.736-.327-1.08-1.03-2.006-1.545-3.01l11.57 1.405zM-3250.686 1859.22c2.202 2.288 4.522 4.468 6.604 6.866 12.73 14.661 23.433 31.314 29.173 49.997 1.502 4.887 2.35 9.952 3.524 14.928.463 5.455 1.271 10.89 1.388 16.363.353 16.457-2.13 33.193-8.374 48.49-4.612 11.296-8.123 15.663-14.627 25.552-4.92 7.049-10.779 13.284-16.868 19.304l-9.961-4.908c1.491-1.304 3.045-2.54 4.475-3.911 6.16-5.904 7.179-7.533 13.033-14.48 6.873-9.996 9.836-13.254 14.64-24.86 6.217-15.015 8.686-31.403 8.166-47.593-.173-5.381-1.063-10.715-1.595-16.072-1.205-4.879-2.089-9.847-3.615-14.635-5.847-18.345-16.533-35.316-29.967-49.052-2.283-2.334-4.916-4.297-7.374-6.446l11.378.457zM-3145.363 1849.065c-2.623 3.109-5.415 6.082-7.868 9.326-11.429 15.114-21.068 31.755-27.605 49.586-5.97 16.286-6.285 22.03-9.351 38.866-.357 6.285-1.164 12.56-1.07 18.853.242 16.192 3.453 32.816 11 47.257 4.778 9.139 6.924 10.455 13.66 17.435 1.68 1.11 9.714 7.095 12.77 6.838 1.951-.164-3.573-1.605-5.36-2.408l8.692 7.168c-5.042-1.683-14.673-4.163-20.137-7.655-2.3-1.47-4.333-3.32-6.499-4.979-6.443-7.377-8.505-8.825-13.01-18.201-7.127-14.837-10.126-31.726-10.217-48.099-.035-6.373.825-12.72 1.238-19.08 3.202-16.969 3.614-22.851 9.59-39.298 7.95-21.882 20.327-41.811 34.011-60.507l10.156 4.898zM-3075.953 1873.776c-12.344 4.6-23.413 12.118-32.94 21.17-2.942 2.796-5.81 5.695-8.352 8.857-2.595 3.226-4.677 6.832-7.016 10.247-1.766 3.91-3.854 7.69-5.299 11.73-3.95 11.046-5.66 24.052-2.795 35.593 2.531 10.201 5.064 12.248 10.897 20.735 9.527 7.709 10.908 10.25 23.17 14.074 1.825.57 3.824-.083 5.734-.015 4.662.165 9.312.804 13.975.71 9.03-.18 11.81-1.284 19.947-3.31 2.941-1.347 5.455-1.949 7.55-4.39 1.498-1.746-.632-1.4-1.383-1.27l11.695.56c.27.484.671.917.812 1.455 1.444 5.529-6.08 7.972-9.66 9.482-8.531 2.068-11.473 3.177-20.871 3.492-15.127.505-22.125-1.315-37.841-6.802a60.037 60.037 0 0 1-13.146-6.469c-3.778-2.483-6.823-5.932-10.235-8.899-5.74-8.935-8.348-11.276-10.732-21.865-2.662-11.82-.687-25.482 3.342-36.735 1.492-4.168 3.6-8.089 5.399-12.133 2.378-3.534 4.486-7.266 7.134-10.603 2.571-3.24 5.507-6.184 8.473-9.067 9.486-9.22 20.368-16.958 32.35-22.578l9.792 6.03zM-3036.036 1934.514c13.305-.889 26.628-1.37 39.962-1.052 7.042.167 14.286.596 21.33.968 8.793.517 4.814.278 11.939.712l8.96 6.792c-7.434-.741-3.3-.354-12.405-1.126-20.072-1.383-40.28-2.35-60.297.372l-9.489-6.666z" style="display:inline;opacity:1;fill:#000;fill-opacity:1;stroke:none;stroke-width:.407955;stroke-linecap:square;stroke-linejoin:miter;stroke-miterlimit:4;stroke-dasharray:none;stroke-opacity:1" transform="matrix(.05397 0 0 .05396 216.493 -62.658)"/><path d="M-2987.65 1911.687c-.227 9.69-.836 19.37-.935 29.063-.064 6.16.083 9.426.254 15.41.326 4.457.12 8.998.89 13.417l-11.458-2.938c.114-4.451-.021-8.905-.025-13.357-.036-14.886.43-29.771.167-44.654l11.107 3.06zM-2812.563 1842.926c2.081 2.197 4.234 4.328 6.243 6.59 2.79 3.141 5.494 6.358 8.15 9.614 5.75 7.052 10.298 12.732 14.72 20.715 5.492 9.919 5.812 12.736 9.273 23.51.89 3.767 1.986 7.492 2.67 11.302 3.406 18.927 2.23 38.908-3.71 57.222-1.638 5.045-3.973 9.835-5.96 14.753-8.596 17.248-19.343 33.56-32.844 47.371l-10.217-5.015c7.377-6.39 13.663-13.781 19.308-21.741 2.574-3.63 5.122-7.287 7.418-11.1 2.54-4.219 4.717-8.647 7.076-12.971 5.187-12.792 7.268-15.904 9.555-29.643 2.901-17.43 1.12-35.21-3.37-52.175-1.33-3.955-2.407-8.003-3.989-11.864-4.78-11.666-12.014-21.875-20.141-31.42-2.762-3.243-5.59-6.439-8.598-9.454-2.213-2.218-4.697-4.148-7.045-6.222l11.461.528zM-2909.532 1835.841c-5.21-15.411-11.78-30.145-19.15-44.171-2.039-3.88-4.22-7.645-6.33-11.467-7.244-13.053-15.642-24.974-24.802-36.063-6.96-8.425-14.05-16.303-21.85-23.57-4.19-3.904-8.612-7.425-12.92-11.137-13.142-10.77-27.138-20.15-41.755-27.604-15.8-8.057-32.244-13.78-48.69-19.433-29.374-9.096-59.517-14.026-89.766-15.785-7.136-.415-14.284-.484-21.426-.726-19.648-.216-39.34 1.137-58.762 4.898-12.187 2.36-28.038 6.643-39.965 10.403-6.63 2.09-13.185 4.52-19.777 6.782-31.33 12.154-61.99 27.061-90.6 46.948-4.294 2.984-8.451 6.252-12.677 9.378-20.398 15.785-37.904 36.245-53.578 58.546-2.77 3.941-5.399 8.027-8.098 12.04-9.12 13.83-17.158 28.618-23.853 44.371l-.589 1.6 12.114-2.642.442-1.375c5.904-15.667 14.033-29.875 22.708-43.422 2.666-3.965 5.257-8.006 7.997-11.894 15.582-22.113 33.124-42.198 53.481-57.642 4.2-3.075 8.34-6.278 12.603-9.224 14.19-9.809 28.719-18.12 43.664-26.037 3.013-1.595 6.001-3.27 9.083-4.654 6.511-2.922 13.121-5.504 19.682-8.256 6.572-2.292 13.105-4.756 19.716-6.874 11.924-3.82 27.506-8.084 39.697-10.52 19.417-3.881 39.1-5.444 58.762-5.432 7.131.202 14.268.192 21.393.606 29.988 1.745 59.777 7.237 88.962 15.763 5.28 1.74 10.595 3.322 15.838 5.218 10.338 3.739 22.594 8.796 32.577 13.857 14.52 7.36 28.474 16.457 41.536 27.135 4.24 3.67 8.588 7.163 12.72 11.013 17.761 16.55 33.303 36.602 45.963 59.057 2.08 3.782 4.243 7.497 6.24 11.344 7.155 13.786 13.505 28.39 17.903 43.827l11.507-4.858z" style="display:inline;opacity:1;fill:#000;fill-opacity:1;stroke:none;stroke-width:.407955;stroke-linecap:square;stroke-linejoin:miter;stroke-miterlimit:4;stroke-dasharray:none;stroke-opacity:1" transform="matrix(.05397 0 0 .05396 216.493 -62.658)"/><path d="M-3332.45 1816.109c.423-5.222.947-10.472 2.321-15.546 1.207-4.457 2.458-7.465 4.094-11.848 5.016-12.418 11.879-24.058 20.409-34.393 1.651-2 3.442-3.882 5.162-5.824 6.685-6.677 13.946-12.8 22.64-16.698 6.147-2.757 10.437-3.85 16.907-5.843 3.034-.73 6.036-1.613 9.103-2.19 10.464-1.965 21.947-2.841 32.582-2.467 10.305.363 13.424 1.164 23.605 2.756 3.742.899 7.532 1.616 11.225 2.697a108.07 108.07 0 0 1 10.507 3.66c11.743 4.795 17.918 6.796 26.953 13.84 5.42 4.226 10.637 9.699 15.498 14.534 9.26 9.866 17.324 20.739 22.442 33.339 2.461 6.058 2.948 8.693 4.5 14.731 1.45 6.542 1.503 13.245 2.283 19.868l-11.34-2.917c-.19-6.452-.468-12.923-1.71-19.276-1.46-6.065-1.724-8.074-4.26-14.188-5.113-12.33-13.27-22.88-22.434-32.47-5.783-5.654-9.024-9.197-15.588-14.065-2.609-1.934-5.622-3.292-8.18-5.293-.342-.268.164-1.095-.228-1.285-7.051-3.432-13.997-4.814-21.526-6.761-10.03-1.704-13.139-2.55-23.296-3.019-10.638-.49-21.592.27-32.075 2.147-3.03.543-6.002 1.375-9.002 2.063-6.62 1.998-10.181 2.843-16.445 5.592-8.46 3.712-15.758 9.4-22.296 15.852-1.708 1.883-3.484 3.706-5.123 5.65-8.468 10.044-15.205 21.487-19.96 33.726-1.476 4.185-2.707 7.32-3.763 11.578-1.224 4.936-1.706 10.067-1.786 15.14l-11.218-3.09z" style="display:inline;opacity:1;fill:#000;fill-opacity:1;stroke:none;stroke-width:.407955;stroke-linecap:square;stroke-linejoin:miter;stroke-miterlimit:4;stroke-dasharray:none;stroke-opacity:1" transform="matrix(.05397 0 0 .05396 216.493 -62.658)"/><path d="M-3475.236 1839.839c5.802-9.176 13.804-17.133 22.846-23.781 2.772-2.038 5.72-3.87 8.58-5.804 13.679-8.349 28.328-15.393 43.549-21.138 11.198-4.227 16.266-5.627 27.832-9.248 15.681-4.562 31.863-7.62 48.153-9.735 5.076-.66 10.166-1.281 15.282-1.615 13.46-.876 17.614-.317 30.96.302 24.502 2.112 48.083 8.466 70.806 16.877 9.09 3.364 16.995 7.705 25.503 12.05 3.487 2.026 7.026 3.98 10.46 6.078 11.142 6.806 22.548 14.532 31.981 23.255l-12.483-1.032c-12.09-11.307-26.668-20.207-41.3-28.555-14.314-7.202-9.935-5.326-25.35-11.692-1.387-.574-2.772-1.171-4.222-1.6-15.126-4.462-30.592-7.918-46.46-9.306-13.498-.79-17.108-1.382-30.727-.63-5.123.283-10.226.835-15.313 1.448-16.18 1.95-32.225 4.973-47.782 9.483-11.398 3.577-16.5 4.989-27.523 9.174-14.992 5.694-29.48 12.582-42.96 20.825-2.778 1.893-5.643 3.684-8.334 5.677-8.605 6.377-16.402 13.998-21.468 23.027l-12.03-4.06z" style="display:inline;opacity:1;fill:#000;fill-opacity:1;stroke:none;stroke-width:.407955;stroke-linecap:square;stroke-linejoin:miter;stroke-miterlimit:4;stroke-dasharray:none;stroke-opacity:1" transform="matrix(.05397 0 0 .05396 216.493 -62.658)"/><path d="M-3309.626 1821.998c8.153-10.49 19.716-17.907 31.729-23.73 3.513-1.703 7.148-3.16 10.722-4.74 11.99-4.973 24.498-8.555 37.133-11.614 8.492-2.056 17.224-3.947 25.868-5.303 4.71-.74 9.456-1.246 14.184-1.869 20.921-2.147 42.05-3.44 63.061-1.655 13.201 1.121 18.163 2.305 31.041 4.606 23.692 5.116 46.877 12.779 68.621 23.252 10.416 5.017 14.479 7.564 24.31 13.192 8.987 5.141 17.681 10.719 26.263 16.462l-11.2-.518c-8.364-5.7-16.856-11.214-25.67-16.255-9.634-5.496-13.792-8.097-24.018-12.95-4.65-2.207-9.404-4.205-14.136-6.243-1.96-.844-3.912-1.723-5.94-2.402-14.2-4.751-15.766-4.815-30.14-8.302-12.915-2.45-17.674-3.66-30.917-4.896-20.854-1.946-41.84-.746-62.615 1.423-4.673.61-9.363 1.11-14.02 1.83-8.455 1.306-17.455 3.19-25.772 5.16-12.505 2.963-24.89 6.45-36.74 11.374-3.515 1.545-7.088 2.97-10.543 4.634-11.484 5.531-22.791 12.582-30.109 22.997l-11.112-4.452zM-2908.353 1874.125c2.608 21.216 3.127 42.563 3.591 63.894.09 18.849.996 37.708.428 56.556l-.158 3.123-10.304-2.823.263-3.043c1.143-18.707.465-37.469.398-56.192-.543-21.409-1.245-42.859-4.72-64.061l10.502 2.546z" style="display:inline;opacity:1;fill:#000;fill-opacity:1;stroke:none;stroke-width:.407955;stroke-linecap:square;stroke-linejoin:miter;stroke-miterlimit:4;stroke-dasharray:none;stroke-opacity:1" transform="matrix(.05397 0 0 .05396 216.493 -62.658)"/><path d="M-2954.54 1869.69c3.72-.186 7.433-.538 11.158-.557 21.6-.109 46.52 2.28 66.949 9.016 8.167 2.694 16.049 6.096 24.074 9.143 4.471 2.707 9.213 5.056 13.415 8.12 10.951 7.989 19.913 18.85 23.514 31.61 2.74 9.706 1.496 13.391.572 23.104-1.238 3.681-2.095 7.495-3.713 11.044-5.508 12.088-15.066 21.396-26.547 28.693-10.381 6.598-15.899 8.242-27.31 12.87-11.47 3.584-14.316 4.808-25.765 7.17-3.352.692-6.758 1.12-10.137 1.68l-8.425-5.335c3.396-.48 6.82-.815 10.189-1.44 11.32-2.104 14.446-3.391 25.753-6.774 11.352-4.471 16.643-5.96 26.968-12.407 11.162-6.97 20.49-15.896 25.83-27.588 1.555-3.402 2.364-7.064 3.545-10.597.84-9.365 2.031-12.764-.759-22.087-3.694-12.343-12.648-22.702-23.414-30.282-4.187-2.948-8.886-5.19-13.33-7.785-2.366-1.13-4.597-2.558-7.1-3.39-21.043-6.997-43.836-9.406-66.062-9.257-3.477.024-6.944.357-10.417.536l-8.988-5.487z" style="display:inline;opacity:1;fill:#000;fill-opacity:1;stroke:none;stroke-width:.407955;stroke-linecap:square;stroke-linejoin:miter;stroke-miterlimit:4;stroke-dasharray:none;stroke-opacity:1" transform="matrix(.05397 0 0 .05396 216.493 -62.658)"/></g><path d="M-25.21 33.58c2.24-.582 2.242 2.798 1.199 4.043-2.545 4.044-7.252 5.963-11.653 7.241-6.564 1.84-13.501 1.651-20.231 1.081-5.52-.609-11.166-1.632-16.05-4.404-3.325-2.179-6.136-5.658-6.729-9.666" style="display:inline;fill:none;fill-opacity:1;stroke:#000;stroke-width:.141111;stroke-linecap:square;stroke-linejoin:miter;stroke-miterlimit:4;stroke-dasharray:none;stroke-opacity:1"/><path d="M-28.486 6.359c.612-.724 1.778-.59 2.663-.684 2.917-.082 5.475 1.755 7.261 3.913 2.848 3.499 4.378 8.004 4.534 12.492.05 2.935-.78 6.003-2.88 8.14-1.689 1.813-3.988 3-6.356 3.658-.38.079-2.503.631-1.946-.298" style="display:inline;fill:none;fill-opacity:1;stroke:#000;stroke-width:.141111;stroke-linecap:square;stroke-linejoin:miter;stroke-miterlimit:4;stroke-dasharray:none;stroke-opacity:1"/><path d="M-54.53-2.494c.098-1.475 1.447-2.485 2.614-3.214 4.027-2.266 8.757-3.172 13.35-2.898 4.131.303 8.494 1.493 11.402 4.616 1.755 1.881 2.505 4.764 1.445 7.18-.53 1.323-1.452 2.598-2.766 3.204l-.001-.035" style="display:inline;fill:none;fill-opacity:1;stroke:#000;stroke-width:.141111;stroke-linecap:square;stroke-linejoin:miter;stroke-miterlimit:4;stroke-dasharray:none;stroke-opacity:1"/><path d="M-78.527 12.44c-1.29.459-1.939-1.417-2.32-2.365-.955-3.105.401-6.411 2.332-8.847 3.559-4.318 8.795-7.146 14.287-8.078 2.71-.427 5.838-.423 8.02 1.487.808.673 1.601 1.97 1.92 2.638-.307-.496.017.103.057.167" style="display:inline;fill:none;fill-opacity:1;stroke:#000;stroke-width:.141111;stroke-linecap:square;stroke-linejoin:miter;stroke-miterlimit:4;stroke-dasharray:none;stroke-opacity:1"/><path d="M-75.996 33.843c-1.612-.04-3.132-.694-4.63-1.228-2.363-.936-4.587-2.342-6.164-4.365-1.826-2.076-2.635-5.06-1.872-7.744.564-2.536 2.175-4.761 4.278-6.261 1.269-.913 2.701-1.63 4.219-2.012.473-.056 1.423-.293 1.638.207" style="display:inline;fill:none;fill-opacity:1;stroke:#000;stroke-width:.141111;stroke-linecap:square;stroke-linejoin:miter;stroke-miterlimit:4;stroke-dasharray:none;stroke-opacity:1"/><path d="M87.032 46.595c1.394 1.265 3.729.822 4.917.239 2.938-1.441 3.202-5.171 1.651-7.433-1.165-1.698-3.53-2.34-5.584-1.826-2.442.61-4.386 2.56-4.607 4.985-.1 1.105.459 2.182 1.194 2.83.927.817 2.067 1.28 3.206 1.118" style="display:inline;fill:#e5f6ff;fill-opacity:1;stroke:#000;stroke-width:.3175;stroke-linejoin:round;stroke-miterlimit:2;stroke-dasharray:none;stroke-dashoffset:0"/><path d="M100.473 89.317c.39.122.665.169 1.077.167 1.589-.007 2.164-1.36 1.87-2.597-.113-.452-.398-.85-.749-1.15-.551-.469-1.34-.58-2.027-.391-.765.208-1.458.772-1.69 1.549-.19.63-.14 1.375.27 1.907.27.349.705.497 1.129.54" style="display:inline;fill:#e5f6ff;fill-opacity:1;fill-rule:nonzero;stroke:#000;stroke-width:.3175;stroke-linecap:round;stroke-linejoin:round;stroke-miterlimit:4;stroke-dasharray:none;stroke-dashoffset:0;stroke-opacity:1"/><path d="M111.957 18.196c.542-.178 1.433-.275 2.138-.285 3.68-.052 6.706 1.304 8.76 3.104 3.31 2.902 4.875 6.68 4.974 10.585.091 3.562-1.569 6.856-3.6 8.596-2.003 1.714-4.65 2.526-7.178 2.676-.427.025-2.784.195-2.122-.644" style="display:inline;fill:none;fill-opacity:1;stroke:#000;stroke-width:.264583;stroke-linecap:square;stroke-linejoin:miter;stroke-miterlimit:4;stroke-dasharray:none;stroke-opacity:1"/><path d="M-77.796 98.287c-1.994-.179-4.62-.925-6.421-1.798-1.966-.953-3.798-2.319-5.181-4.247-1.479-2.062-2.15-4.908-1.574-7.535.538-2.454 1.829-4.633 3.596-6.092 1.066-.889 2.27-1.586 3.546-1.958.398-.055 1.197-.285 1.212.247-1.32.407-1.906-1.285-2.109-2.183-.532-2.355.587-5.795 2.404-7.896 3.269-3.78 7.773-6.186 12.628-6.792 2.39-.298 5.518.132 7.313 1.52.571.44 1.112.928 1.548 1.582l-.445-.028c.525-1.02 1.258-1.848 2.105-2.596 3.074-2.714 7.48-4.17 12.553-4.39 4.176-.183 9.202 1.165 12.554 4.691 3.174 3.338 3.444 7.143 2.645 9.856-.413 1.4-1.232 2.655-2.31 3.376-.325.218-.628.111-.18-.15a5.427 5.427 0 0 1 1.6-.646c3.247-.715 6.349.519 8.27 2.25 2.957 2.664 4.52 6.132 4.55 9.8.027 3.345-1.604 6.554-3.563 8.325-1.931 1.746-4.459 2.686-6.864 2.995-.406.052-2.648.368-1.916-.506 2.134-.588 1.641 2.216.826 3.378-2.365 3.37-6.454 5.152-10.402 6.26-5.875 1.648-12.12 1.602-18.167 1.121-4.97-.395-10.19-1.936-14.463-4.519-1.87-1.13-3.817-2.727-5.115-4.913M-79.613 160.291c-2.088-.186-4.838-.968-6.724-1.883-2.059-.997-3.977-2.428-5.425-4.447-1.549-2.16-2.252-5.14-1.648-7.89.564-2.571 1.915-4.853 3.766-6.381 1.116-.93 2.377-1.66 3.713-2.05.417-.058 1.253-.3 1.269.258-1.383.427-1.996-1.346-2.209-2.285-.557-2.467.615-6.07 2.517-8.27 3.424-3.959 8.14-6.478 13.223-7.112 2.503-.313 5.778.138 7.658 1.59.599.463 1.165.973 1.621 1.658.364.596-.847.68-.465-.03.55-1.068 1.316-1.865 2.203-2.648 3.22-2.843 7.625-4.436 13.145-4.46 4.377-.02 9.705 1.636 13.216 5.329 3.323 3.495 3.712 7.646 2.976 10.356-.488 1.799-1.201 2.693-1.766 3.13l-.13-.427c.577-.037 1.183-.08 1.737-.08 2.812-.005 5.823.913 7.8 2.552 3.209 2.66 4.544 5.647 4.575 9.488.028 3.503-1.68 6.863-3.731 8.719-2.022 1.828-4.669 2.812-7.187 3.136-.426.054-2.773.385-2.006-.53 2.234-.615 1.718 2.321.864 3.537-2.476 3.53-6.758 5.396-10.892 6.556-6.152 1.727-12.69 1.678-19.023 1.174-5.205-.414-10.672-2.027-15.145-4.732-1.959-1.184-3.997-2.856-5.356-5.145M-79.134 226.228c-1.978-.191-4.583-.993-6.369-1.93-1.95-1.024-3.766-2.49-5.138-4.561-1.467-2.214-2.133-5.27-1.561-8.09.534-2.636 1.814-4.976 3.567-6.543 1.057-.954 2.252-1.703 3.517-2.102.394-.059 1.186-.307 1.171.22-1.304.405-1.869-1.461-2.065-2.45-.513-2.598.566-6.39 2.319-8.707 3.153-4.169 7.498-6.821 12.18-7.49 2.305-.328 5.322.147 7.054 1.676.551.487 1.073 1.024 1.493 1.745l-.347-.074c.54-1.111 1.295-1.94 2.167-2.755 3.167-2.956 7.5-4.612 12.93-4.637 4.146-.018 9.192 1.607 12.517 5.23 3.147 3.431 3.516 7.504 2.819 10.163-.463 1.766-1.112 2.678-1.673 3.072-.55.388-1.446-.19-.124-.305a19.78 19.78 0 0 1 1.646-.087c2.663-.005 5.516.986 7.388 2.756 3.039 2.873 4.304 6.099 4.333 10.246.027 3.783-1.591 7.412-3.534 9.415-1.915 1.975-4.422 3.038-6.807 3.387-.403.059-2.626.416-1.9-.56 2.116-.627 1.627 2.426.819 3.691-2.345 3.67-6.401 5.61-10.317 6.817-5.826 1.795-12.02 1.744-18.017 1.22-4.93-.43-10.107-2.108-14.344-4.92-1.855-1.231-3.785-2.97-5.073-5.35" style="display:inline;fill:#e5f6ff;fill-opacity:1;stroke:#000;stroke-width:.264583;stroke-linecap:square;stroke-linejoin:miter;stroke-miterlimit:4;stroke-dasharray:none;stroke-opacity:1"/><path d="M2.827 233.79c-1.978-.192-4.583-.993-6.369-1.93-1.95-1.024-3.766-2.49-5.138-4.561-1.467-2.214-2.133-5.27-1.56-8.091.533-2.635 1.813-4.975 3.566-6.542 1.057-.954 2.252-1.703 3.517-2.102.395-.06 1.186-.307 1.171.22-1.303.405-1.869-1.462-2.064-2.45-.514-2.598.609-6.533 2.285-8.906 2.922-4.136 7.266-6.854 12.213-7.224 2.322-.174 5.223.377 7.054 1.609.61.41 1.238.958 1.725 1.613l-.58.058c.448-1.065.963-1.896 1.791-2.755 3.233-3.353 7.457-4.706 13.26-4.637 4.146.05 9.24 1.606 12.564 5.23 3.147 3.43 3.516 7.504 2.82 10.163-.463 1.766-1.113 2.677-1.674 3.072-.55.387-1.446-.19-.123-.306a19.78 19.78 0 0 1 1.645-.086c2.663-.005 5.516.986 7.388 2.756 3.04 2.873 4.304 6.098 4.333 10.246.027 3.783-1.591 7.412-3.534 9.415-1.915 1.974-4.422 3.037-6.807 3.387-.403.059-2.626.416-1.9-.56 2.116-.627 1.627 2.426.819 3.691-2.345 3.669-6.401 5.61-10.316 6.816-5.827 1.795-12.02 1.745-18.018 1.221-4.93-.43-10.107-2.108-14.344-4.92-1.855-1.231-3.785-2.97-5.073-5.35M90.993 233.651c-1.978-.19-4.583-.982-6.369-1.91-1.95-1.012-3.766-2.462-5.138-4.51-1.467-2.19-2.133-5.214-1.561-8.004.534-2.607 1.814-4.922 3.567-6.472 1.057-.944 2.252-1.684 3.517-2.079.395-.059 1.186-.304 1.171.214-1.303.385-1.869-1.413-2.065-2.365-.513-2.502.61-6.292 2.286-8.577 2.922-3.984 7.266-6.602 12.213-6.959 2.322-.167 5.223.364 7.054 1.55.61.395 1.238.923 1.725 1.553l-.58.056c.448-1.025.963-1.825 1.791-2.653 3.233-3.23 7.456-4.532 13.26-4.466 4.146.048 9.24 1.547 12.564 5.038 3.147 3.304 3.516 7.227 2.82 9.788-.464 1.7-1.113 2.579-1.674 2.959-.329.24-1.642-.082-.124-.187a19.78 19.78 0 0 1 1.646-.086c2.663-.005 5.516.985 7.388 2.756 3.04 2.873 4.304 6.098 4.333 10.246.027 3.782-1.591 7.411-3.534 9.415-1.915 1.974-4.422 3.037-6.807 3.386-.403.06-2.626.417-1.9-.559 2.116-.627 1.627 2.426.819 3.69-2.345 3.67-6.401 5.611-10.317 6.817-5.826 1.795-12.02 1.745-18.017 1.22-4.93-.43-10.107-2.107-14.344-4.92-1.855-1.23-3.785-3.25-5.073-5.63M174.866 234.18c-1.922-.192-4.453-.998-6.19-1.94-1.894-1.029-3.66-2.503-4.993-4.585-1.425-2.225-2.072-5.297-1.516-8.133.519-2.65 1.762-5.001 3.466-6.577 1.027-.959 2.188-1.711 3.417-2.112.384-.06 1.154-.309 1.071.215-1.372.375-1.937-1.385-2.133-2.318-.513-2.45.61-6.161 2.286-8.399 2.922-3.9 7.266-6.463 12.213-6.813 2.322-.164 5.223.356 7.054 1.518.61.387 1.238.903 1.724 1.52l-.578.121c.447-1.025.961-1.825 1.79-2.652 3.233-3.23 7.456-4.533 13.26-4.467 4.146.048 9.24 1.547 12.564 5.038 3.147 3.304 3.516 7.227 2.819 9.788-.463 1.7-1.112 2.579-1.673 2.96-.329.24-1.642-.083-.124-.188a19.78 19.78 0 0 1 1.646-.086c2.663-.005 5.516.985 7.388 2.756 3.039 2.873 4.304 6.098 4.333 10.246.027 3.783-1.591 7.411-3.534 9.415-1.915 1.974-4.422 3.037-6.807 3.387-.403.059-2.626.416-1.9-.56 2.116-.627 1.627 2.426.819 3.69-2.345 3.67-6.401 5.611-10.317 6.817-5.826 1.795-12.02 1.745-18.017 1.221-4.93-.43-10.107-2.108-14.344-4.92-1.855-1.232-3.785-3.251-5.073-5.63M267.37 235.146c-1.921-.192-4.453-.998-6.189-1.94-1.894-1.029-3.66-2.503-4.993-4.585-1.425-2.225-2.073-5.297-1.517-8.133.52-2.65 1.763-5.001 3.466-6.577 1.028-.959 2.189-1.711 3.418-2.112.384-.06 1.153-.309 1.07.215-1.371.375-1.936-1.385-2.132-2.318-.514-2.45.61-6.161 2.285-8.399 2.922-3.9 7.267-6.463 12.214-6.813 2.322-.164 5.223.356 7.054 1.518.61.387 1.238.903 1.724 1.52l-.271-.044c.507-.926 1.215-1.73 2.095-2.487 3.396-2.925 7.563-4.42 12.969-4.467 4.291-.037 8.996 1.547 12.28 5.038 3.11 3.304 3.473 7.227 2.785 9.788-.457 1.7-1.099 2.579-1.653 2.96-.55.354-1.89-.048-.147-.188a19.78 19.78 0 0 1 1.645-.086c2.664-.005 5.516.985 7.389 2.756 3.039 2.873 4.303 6.098 4.333 10.246.026 3.783-1.592 7.412-3.535 9.415-1.915 1.974-4.421 3.037-6.807 3.387-.402.059-2.626.416-1.9-.56 2.116-.627 1.628 2.426.82 3.69-2.346 3.67-6.402 5.611-10.317 6.817-5.827 1.795-12.02 1.745-18.018 1.221-4.929-.43-10.107-2.108-14.343-4.92-1.856-1.232-3.786-3.25-5.074-5.63" style="display:inline;fill:#e5f6ff;fill-opacity:1;stroke:#000;stroke-width:.291042;stroke-linecap:square;stroke-linejoin:miter;stroke-miterlimit:4;stroke-dasharray:none;stroke-opacity:1"/><path d="M-68.68 13.318c1.288 2.38 3.218 4.4 5.073 5.631 4.237 2.812 9.415 4.49 14.344 4.92 5.998.524 12.19.574 18.017-1.22 3.916-1.207 7.971-3.148 10.317-6.817.808-1.265 1.297-4.318-.82-3.69-.726.975 1.498.618 1.9.559 2.386-.35 4.893-1.413 6.808-3.387 1.943-2.003 3.56-5.632 3.534-9.415-.03-4.148-1.294-7.42-4.567-10.246-1.95-1.684-4.822-2.695-7.154-2.756-.44-.011-2.224-.035-2.883.266-.943.432-.973 1.232.102.973 2.478-.954 1.354-4.22.542-5.68-2.133-3.835-8.184-7.625-13.314-8.849-8.943-2.132-18.417-.958-26.169 3.83-3.638 2.248-7.327 6.029-8.671 9.534-.448 1.168-.769 2.53-.76 3.875l.305.029c.083-.524-.687-.275-1.07-.215-1.23.4-2.39 1.154-3.418 2.113-1.704 1.575-2.947 3.927-3.467 6.576-.555 2.836.092 5.908 1.517 8.133 1.334 2.082 3.1 3.556 4.994 4.585 1.736.942 4.267 1.748 6.19 1.94" style="display:inline;fill:#e5f6ff;fill-opacity:1;stroke:#000;stroke-width:.3175;stroke-linecap:square;stroke-linejoin:miter;stroke-miterlimit:4;stroke-dasharray:none;stroke-opacity:1"/></svg>