<svg width="346" height="250" viewBox="0 0 346 250" fill="none" xmlns="http://www.w3.org/2000/svg">
<path d="M49.7474 190C42.4832 189.27 32.9172 186.224 26.3522 182.663C19.1937 178.778 12.5191 173.203 7.48098 165.338C2.09516 156.925 -0.350199 145.314 1.74744 134.595C3.71279 124.583 8.41074 115.698 14.8511 109.741C18.7326 106.113 23.1207 103.271 27.7657 101.755C29.217 101.528 32.1273 100.591 31.8136 102.568C26.6281 103.985 24.4926 97.3331 23.7519 93.8068C21.813 84.5469 26.0574 70.5249 32.3919 62.0663C43.4356 47.3262 59.8539 37.6354 78.5512 36.3164C87.3273 35.6965 98.2917 37.6581 105.212 42.0499C107.518 43.5126 109.891 45.4666 111.728 47.7986L110.178 48.3391C110.677 45.3684 113.523 40.9312 116.679 37.8773C128.101 26.8222 142.788 21.5271 164.634 21.5271C180.855 21.5271 201.639 27.1964 214.051 40.3869C225.805 52.8783 227.181 67.7054 224.577 77.3847C222.85 83.8099 220.427 87.1284 218.33 88.5684C216.251 89.9101 211.186 88.3907 217.774 87.8616C219.842 87.6669 221.918 87.5585 223.995 87.5366C234.06 87.5139 244.843 91.2594 251.918 97.9491C263.404 108.808 268.185 121 268.295 136.674C268.397 150.972 262.282 164.688 254.938 172.258C247.7 179.723 238.225 183.741 229.211 185.06C227.688 185.286 219.286 186.636 222.03 182.943C230.027 180.573 228.179 192.116 225.125 196.893C216.262 210.764 200.932 218.097 186.132 222.658C164.112 229.443 140.702 229.254 118.036 227.269C99.4029 225.644 79.8363 219.302 63.8224 208.674C56.8114 204.022 49.5169 196.391 44.6489 187.395" fill="#E5F6FF"/>
<path d="M49.7474 190C42.4832 189.27 32.9172 186.224 26.3522 182.663C19.1937 178.778 12.5191 173.203 7.48098 165.338C2.09516 156.925 -0.350199 145.314 1.74744 134.595C3.71279 124.583 8.41074 115.698 14.8511 109.741C18.7326 106.113 23.1207 103.271 27.7657 101.755C29.217 101.528 32.1273 100.591 31.8136 102.568C26.6281 103.985 24.4926 97.3331 23.7519 93.8068C21.813 84.5469 26.0574 70.5249 32.3919 62.0663C43.4356 47.3262 59.8539 37.6354 78.5512 36.3164C87.3273 35.6965 98.2917 37.6581 105.212 42.0499C107.518 43.5126 109.891 45.4666 111.728 47.7986L110.178 48.3391C110.677 45.3684 113.523 40.9312 116.679 37.8773C128.101 26.8222 142.788 21.5271 164.634 21.5271C180.855 21.5271 201.639 27.1964 214.051 40.3869C225.805 52.8783 227.181 67.7054 224.577 77.3847C222.85 83.8099 220.427 87.1284 218.33 88.5684C216.251 89.9101 211.186 88.3907 217.774 87.8616C219.842 87.6669 221.918 87.5585 223.995 87.5366C234.06 87.5139 244.843 91.2594 251.918 97.9491C263.404 108.808 268.185 121 268.295 136.674C268.397 150.972 262.282 164.688 254.938 172.258C247.7 179.723 238.225 183.741 229.211 185.06C227.688 185.286 219.286 186.636 222.03 182.943C230.027 180.573 228.179 192.116 225.125 196.893C216.262 210.764 200.932 218.097 186.132 222.658C164.112 229.443 140.702 229.254 118.036 227.269C99.4029 225.644 79.8363 219.302 63.8224 208.674C56.8114 204.022 49.5169 196.391 44.6489 187.395" stroke="black" stroke-width="1.2" stroke-linecap="square"/>
<path d="M305.033 140.811C310.302 145.592 319.127 143.918 323.617 141.715C334.721 136.268 335.545 122.522 329.683 113.973C325.28 107.555 316.515 104.781 308.752 106.716C299.523 109.025 292.175 116.392 291.34 125.557C290.962 129.737 293.075 133.808 295.849 136.253C299.356 139.345 303.665 141.091 307.97 140.482" fill="#E5F6FF"/>
<path d="M305.033 140.811C310.302 145.592 319.127 143.918 323.617 141.715C334.721 136.268 335.545 122.522 329.683 113.973C325.28 107.555 316.515 104.781 308.752 106.716C299.523 109.025 292.175 116.392 291.34 125.557C290.962 129.737 293.075 133.808 295.849 136.253C299.356 139.345 303.665 141.091 307.97 140.482" stroke="black" stroke-width="1.2" stroke-miterlimit="2" stroke-linejoin="round"/>
<path d="M59.9843 125.295C59.6994 125.633 59.3843 125.94 59.1297 126.309C56.4817 130.146 54.8632 134.9 54.0241 139.692C53.7435 141.294 53.6365 142.931 53.4426 144.55C53.458 146.155 53.3669 147.765 53.4887 149.364C53.7896 153.321 54.8169 157.226 56.5957 160.622C57.5899 162.521 58.1528 163.056 59.4139 164.592C60.4726 165.616 60.4169 165.625 61.4274 166.408C61.6024 166.544 61.7802 166.675 61.9647 166.792C62.0854 166.869 62.3493 166.923 62.2996 167.072C62.2087 167.343 62.0584 167.582 61.9377 167.837L59.9142 166.03C59.8608 166.293 59.8158 166.559 59.7537 166.82C59.7494 166.839 59.7321 166.868 59.7169 166.86C59.6304 166.811 59.5588 166.732 59.481 166.667C59.3187 166.529 59.1545 166.395 58.9964 166.252C58.0156 165.364 58.1622 165.465 57.1144 164.329C55.8952 162.713 55.3702 162.173 54.4249 160.207C52.7407 156.706 51.7837 152.731 51.5183 148.737C51.4101 147.113 51.5061 145.479 51.5003 143.85C51.693 142.207 51.8053 140.548 52.0783 138.92C52.5505 136.106 53.3723 133.012 54.3715 130.376C54.9519 128.844 56.1003 126.566 56.947 125.13C57.191 124.715 57.483 124.342 57.7508 123.949L59.9843 125.296V125.295ZM76.3807 139.285C76.0281 139.273 75.6746 139.214 75.3233 139.248C72.5278 139.518 69.7087 140.876 67.5672 142.982C66.9779 143.561 66.4964 144.275 65.9612 144.921C65.6209 145.62 65.1889 146.269 64.9402 147.019C64.509 148.318 64.4491 149.648 64.8586 150.964C65.0295 151.513 65.2977 152.034 65.6363 152.465C65.7808 152.649 67.7467 154.213 66.3478 153.094C66.9664 153.038 67.6055 153.116 68.2042 152.927C71.1749 151.987 73.1103 148.76 74.2421 145.642C74.4714 145.011 74.6172 144.343 74.8048 143.694C74.8854 143.227 74.9969 142.766 75.0471 142.294C75.0759 142.02 75.0737 141.743 75.0406 141.47C75.0254 141.347 75.0049 141.176 74.9051 141.134C74.8266 141.1 74.6464 141.299 74.7238 141.335C77.2102 142.499 77.1031 141.143 77.0588 142.677C77.0815 143.005 77.0839 143.336 77.1272 143.662C77.4105 145.797 78.2036 148.245 79.2904 149.996C79.6228 150.531 80.0356 150.992 80.4081 151.491C80.813 151.894 81.1981 152.326 81.6229 152.7C82.5938 153.555 83.6907 154.223 84.8231 154.736C85.0144 154.823 85.5991 155.048 85.4079 154.961C84.7773 154.675 84.1389 154.412 83.5042 154.137C83.5691 154.33 83.5501 154.202 83.3933 154.506L85.8353 155.372C85.6406 155.935 85.7955 155.749 85.4503 156.005C84.6068 155.666 83.7597 155.34 82.9202 154.988C82.5762 154.844 81.7984 154.398 81.5477 154.239C80.2632 153.426 79.0758 152.449 78.0757 151.195C77.705 150.66 77.2957 150.159 76.9638 149.59C75.8926 147.757 75.0563 145.152 74.7511 142.959C74.7013 142.6 74.6932 142.234 74.6642 141.871C74.765 140.192 74.5099 140.697 77.2669 141.383C77.3746 141.41 77.3439 141.624 77.3647 141.75C77.4475 142.248 77.4203 142.663 77.3305 143.179C77.2459 143.666 77.1129 144.139 77.0043 144.619C76.7923 145.285 76.6156 145.968 76.3679 146.617C75.1154 149.903 73.1698 153.202 70.1201 154.454C69.4913 154.712 68.8067 154.724 68.1499 154.859C66.9262 154.342 65.6437 153.985 64.479 153.308C63.9996 153.03 63.6168 152.542 63.2979 152.041C62.1901 150.303 62.1367 147.961 62.8148 146.008C63.0896 145.215 63.5473 144.527 63.9138 143.786C64.4678 143.108 64.969 142.364 65.5764 141.75C66.7956 140.517 68.2697 139.515 69.7535 138.785C70.3866 138.474 71.0499 138.251 71.7107 138.031C72.2515 137.851 72.7995 137.693 73.3548 137.588C73.7022 137.522 74.0576 137.543 74.4089 137.521L76.3807 139.285ZM84.0842 145.427C88.0618 145.042 92.0432 144.686 96.0341 144.563C97.3805 144.555 96.797 144.552 97.7841 144.563L99.7725 146.297C98.7335 146.176 99.3429 146.231 97.942 146.171C97.3839 146.171 96.8254 146.155 96.2675 146.168C92.8682 146.256 89.4723 146.612 86.0949 147.045L84.0842 145.425V145.427Z" fill="black"/>
<path d="M93.2047 141.683C93.6347 143.717 94.0228 145.773 94.31 147.842C94.4346 148.74 94.4928 149.48 94.5737 150.372L94.6235 151.166L92.225 150.434L92.2033 149.675C92.0041 146.775 91.5399 143.893 90.7678 141.123L93.2047 141.683ZM105.556 118.176C105.641 118.481 105.762 118.775 105.814 119.091C106.024 120.381 106.144 122.762 106.208 123.94C106.413 127.742 106.477 131.539 106.522 135.347C106.504 141.148 106.7 146.951 106.597 152.752C106.09 151.988 106.772 153.682 106.546 153.587C105.707 153.235 104.8 152.973 104.1 152.331C103.882 152.131 104.115 151.686 104.121 151.363C104.148 149.857 104.147 149.65 104.164 148.047C104.211 146.111 104.318 144.137 104.869 142.29C105.166 141.297 105.475 140.542 106.283 139.983C106.644 139.733 107.078 139.664 107.476 139.504C107.96 139.511 108.451 139.445 108.93 139.527C109.479 139.62 110.019 139.794 110.536 140.024C112.74 141.004 114.063 141.436 115.624 143.177C116.056 143.66 116.456 144.192 116.79 144.771C117.106 145.316 117.304 145.942 117.561 146.528C117.793 147.799 118.133 148.646 117.666 149.931C116.921 151.982 114.925 152.982 113.241 153.597C112.611 153.827 111.955 153.944 111.311 154.118C109.121 154.386 110.158 154.376 108.2 154.221L106.303 152.526C108.223 152.864 107.201 152.798 109.373 152.637C110.004 152.491 110.647 152.402 111.266 152.2C112.693 151.733 114.72 150.842 115.378 149.098C115.799 147.985 115.457 147.194 115.231 146.101C114.488 144.555 114.481 144.244 113.289 143.025C112.843 142.57 112.235 142.335 111.841 141.818C111.73 141.672 112.494 141.88 112.346 141.788C111.322 141.152 110.606 141.165 109.512 141.019C109.158 141.098 108.779 141.09 108.448 141.257C107.678 141.645 107.396 142.306 107.115 143.182C106.543 144.968 106.472 146.897 106.444 148.778C106.456 149.917 106.459 150.981 106.494 152.114C106.504 152.432 106.807 153.009 106.538 153.068C105.742 153.242 104.932 152.808 104.137 152.629C104.108 152.622 104.166 152.568 104.18 152.538L104.255 151.964C104.4 150.091 104.452 148.23 104.48 146.348C104.539 142.469 104.552 138.588 104.491 134.709C104.398 130.9 104.32 127.092 104.018 123.296C103.903 121.842 103.763 120.027 103.387 118.58C103.316 118.308 103.164 118.075 103.053 117.822L105.555 118.176L105.556 118.176ZM123.526 123.5C124.002 124.076 124.504 124.625 124.955 125.229C127.708 128.919 130.024 133.111 131.265 137.814C131.59 139.044 131.774 140.319 132.028 141.571C132.128 142.944 132.303 144.312 132.328 145.69C132.404 149.832 131.867 154.045 130.516 157.896C129.519 160.739 128.759 161.838 127.352 164.327C126.288 166.102 125.021 167.671 123.703 169.187L121.549 167.951C121.871 167.623 122.207 167.312 122.517 166.967C123.849 165.481 124.07 165.071 125.336 163.322C126.823 160.806 127.464 159.986 128.503 157.064C129.848 153.285 130.382 149.16 130.269 145.084C130.232 143.73 130.039 142.387 129.924 141.039C129.664 139.811 129.473 138.56 129.142 137.355C127.878 132.737 125.566 128.465 122.66 125.008C122.166 124.42 121.597 123.926 121.065 123.385L123.526 123.5ZM146.309 120.944C145.742 121.727 145.138 122.475 144.607 123.292C142.135 127.096 140.05 131.285 138.636 135.773C137.345 139.873 137.276 141.318 136.613 145.556C136.536 147.138 136.361 148.718 136.382 150.302C136.434 154.378 137.129 158.562 138.761 162.197C139.795 164.498 140.259 164.829 141.716 166.586C142.08 166.865 143.817 168.372 144.479 168.307C144.901 168.266 143.706 167.903 143.319 167.701L145.199 169.505C144.109 169.082 142.025 168.457 140.843 167.578C140.346 167.208 139.906 166.743 139.437 166.325C138.044 164.468 137.598 164.104 136.623 161.744C135.081 158.009 134.433 153.758 134.413 149.636C134.405 148.032 134.591 146.435 134.681 144.834C135.373 140.562 135.463 139.082 136.755 134.942C138.475 129.434 141.152 124.417 144.113 119.711L146.309 120.944ZM161.324 127.164C158.654 128.322 156.259 130.215 154.199 132.493C153.562 133.197 152.942 133.927 152.392 134.723C151.831 135.535 151.38 136.442 150.874 137.302C150.492 138.286 150.041 139.238 149.728 140.254C148.873 143.035 148.504 146.309 149.123 149.214C149.671 151.782 150.219 152.297 151.481 154.433C153.541 156.374 153.84 157.013 156.493 157.976C156.887 158.119 157.32 157.955 157.733 157.972C158.742 158.013 159.747 158.174 160.756 158.151C162.709 158.105 163.311 157.827 165.071 157.317C165.707 156.978 166.251 156.827 166.704 156.212C167.028 155.773 166.567 155.86 166.405 155.893L168.935 156.034C168.993 156.156 169.08 156.265 169.111 156.4C169.423 157.792 167.795 158.407 167.021 158.787C165.176 159.307 164.539 159.586 162.506 159.666C159.234 159.793 157.72 159.335 154.32 157.954C153.319 157.548 152.364 157.001 151.477 156.325C150.659 155.7 150.001 154.832 149.263 154.085C148.021 151.836 147.457 151.247 146.941 148.581C146.365 145.606 146.792 142.167 147.664 139.335C147.987 138.286 148.443 137.299 148.832 136.281C149.346 135.391 149.802 134.452 150.375 133.612C150.931 132.796 151.566 132.055 152.208 131.329C154.26 129.009 156.614 127.061 159.206 125.646L161.324 127.164ZM169.959 142.453C172.837 142.229 175.719 142.108 178.603 142.188C180.127 142.23 181.694 142.338 183.218 142.432C185.12 142.562 184.259 142.502 185.8 142.611L187.738 144.321C186.13 144.134 187.025 144.232 185.055 144.037C180.713 143.689 176.342 143.446 172.012 144.131L169.959 142.453Z" fill="black"/>
<path d="M180.426 136.707C180.377 139.146 180.245 141.583 180.223 144.023C180.21 145.573 180.241 146.395 180.278 147.902C180.349 149.024 180.304 150.167 180.471 151.279L177.992 150.539C178.017 149.419 177.988 148.298 177.987 147.177C177.979 143.43 178.08 139.683 178.023 135.937L180.426 136.707ZM218.3 119.399C218.75 119.952 219.216 120.488 219.651 121.058C220.254 121.848 220.839 122.658 221.414 123.478C222.658 125.253 223.641 126.683 224.598 128.692C225.786 131.189 225.855 131.898 226.604 134.61C226.796 135.558 227.033 136.496 227.181 137.455C227.918 142.219 227.664 147.248 226.379 151.858C226.025 153.128 225.519 154.334 225.09 155.572C223.23 159.913 220.905 164.019 217.985 167.496L215.775 166.234C217.37 164.625 218.73 162.765 219.951 160.761C220.508 159.847 221.059 158.927 221.556 157.967C222.106 156.905 222.576 155.79 223.087 154.702C224.209 151.482 224.659 150.699 225.154 147.24C225.781 142.853 225.396 138.378 224.425 134.107C224.137 133.112 223.904 132.093 223.562 131.121C222.528 128.184 220.963 125.615 219.205 123.212C218.607 122.396 217.996 121.591 217.345 120.832C216.866 120.274 216.329 119.788 215.821 119.266L218.3 119.399ZM197.324 117.616C196.197 113.736 194.776 110.028 193.182 106.497C192.74 105.52 192.269 104.573 191.812 103.611C190.245 100.325 188.429 97.3243 186.447 94.5331C184.941 92.4124 183.408 90.4294 181.72 88.6001C180.814 87.6174 179.858 86.7312 178.926 85.7968C176.083 83.0858 173.055 80.7247 169.893 78.8485C166.475 76.8204 162.918 75.3798 159.361 73.9569C153.007 71.6673 146.486 70.4263 139.943 69.9836C138.399 69.8791 136.853 69.8617 135.308 69.8008C131.058 69.7465 126.798 70.087 122.596 71.0337C119.96 71.6278 116.531 72.7059 113.951 73.6523C112.517 74.1784 111.099 74.7901 109.673 75.3595C102.896 78.4188 96.2635 82.1711 90.0746 87.177C89.1458 87.9281 88.2465 88.7507 87.3324 89.5375C82.9199 93.5108 79.133 98.6609 75.7424 104.274C75.1432 105.266 74.5745 106.295 73.9907 107.305C72.0178 110.786 70.2791 114.509 68.8308 118.474L68.7034 118.877L71.3239 118.212L71.4195 117.866C72.6966 113.922 74.4551 110.346 76.3317 106.936C76.9084 105.938 77.4689 104.92 78.0616 103.942C81.4323 98.3755 85.2269 93.3198 89.6305 89.4323C90.5391 88.6583 91.4346 87.8521 92.3568 87.1105C95.4264 84.6414 98.5692 82.5494 101.802 80.5566C102.454 80.1551 103.1 79.7335 103.767 79.3851C105.175 78.6496 106.605 77.9997 108.025 77.307C109.446 76.73 110.859 76.1098 112.29 75.5767C114.869 74.6151 118.24 73.5418 120.877 72.9286C125.077 71.9517 129.335 71.5583 133.588 71.5613C135.131 71.6122 136.674 71.6097 138.216 71.7139C144.703 72.1531 151.147 73.5355 157.46 75.6817C158.602 76.1196 159.752 76.5178 160.886 76.9951C163.122 77.9362 165.773 79.2092 167.933 80.4831C171.074 82.3357 174.092 84.6256 176.918 87.3134C177.835 88.2372 178.776 89.1164 179.67 90.0855C183.512 94.2514 186.874 99.2988 189.612 104.951C190.062 105.903 190.53 106.838 190.962 107.806C192.51 111.277 193.883 114.953 194.835 118.838L197.324 117.616Z" fill="black"/>
<path d="M105.839 112.649C105.93 111.334 106.044 110.013 106.341 108.736C106.602 107.614 106.873 106.857 107.227 105.753C108.312 102.628 109.796 99.6977 111.641 97.0962C111.999 96.5928 112.386 96.1191 112.758 95.6302C114.204 93.9495 115.775 92.4083 117.655 91.4271C118.985 90.7331 119.913 90.458 121.313 89.9563C121.969 89.7726 122.619 89.5503 123.282 89.405C125.546 88.9104 128.03 88.6899 130.33 88.7841C132.559 88.8755 133.234 89.0771 135.436 89.4778C136.246 89.7041 137.066 89.8846 137.864 90.1567C138.635 90.4182 139.394 90.7256 140.137 91.0779C142.678 92.2849 144.013 92.7886 145.968 94.5617C147.14 95.6254 148.269 97.0031 149.32 98.2201C151.323 100.704 153.068 103.44 154.175 106.612C154.707 108.137 154.813 108.8 155.148 110.32C155.462 111.967 155.473 113.654 155.642 115.321L153.189 114.587C153.148 112.963 153.088 111.334 152.819 109.735C152.503 108.208 152.446 107.702 151.898 106.163C150.792 103.06 149.027 100.404 147.045 97.9903C145.794 96.5671 145.093 95.6753 143.673 94.4499C143.108 93.9631 142.457 93.6213 141.903 93.1176C141.829 93.0501 141.939 92.842 141.854 92.7941C140.329 91.9302 138.826 91.5824 137.197 91.0923C135.028 90.6634 134.355 90.4504 132.158 90.3324C129.857 90.209 127.487 90.4003 125.22 90.8728C124.564 91.0095 123.921 91.2189 123.272 91.3921C121.84 91.895 121.07 92.1077 119.715 92.7997C117.885 93.7341 116.306 95.1658 114.892 96.7899C114.523 97.2638 114.138 97.7227 113.784 98.2121C111.952 100.74 110.495 103.621 109.466 106.701C109.147 107.755 108.881 108.544 108.652 109.616C108.387 110.858 108.283 112.15 108.266 113.427L105.839 112.649Z" fill="black"/>
<path d="M74.9517 118.622C76.2067 116.312 77.9378 114.309 79.8937 112.636C80.4934 112.123 81.131 111.662 81.7497 111.175C84.7087 109.074 87.8776 107.3 91.1702 105.854C93.5925 104.79 94.6888 104.438 97.1908 103.526C100.583 102.378 104.083 101.608 107.607 101.076C108.705 100.91 109.806 100.754 110.913 100.669C113.825 100.449 114.723 100.59 117.61 100.746C122.91 101.277 128.011 102.877 132.927 104.994C134.893 105.84 136.603 106.933 138.444 108.027C139.198 108.537 139.964 109.029 140.706 109.557C143.117 111.27 145.584 113.215 147.624 115.41L144.924 115.151C142.309 112.305 139.155 110.064 135.99 107.963C132.894 106.15 133.841 106.622 130.506 105.02C130.206 104.875 129.907 104.725 129.593 104.617C126.321 103.494 122.976 102.624 119.543 102.275C116.623 102.076 115.842 101.927 112.896 102.116C111.788 102.187 110.684 102.326 109.584 102.481C106.084 102.971 102.613 103.732 99.2476 104.868C96.782 105.768 95.6783 106.123 93.2938 107.177C90.0507 108.61 86.9167 110.344 84.0007 112.419C83.3998 112.895 82.78 113.346 82.1979 113.848C80.3365 115.453 78.6499 117.371 77.554 119.644L74.9517 118.622Z" fill="black"/>
<path d="M110.776 114.131C112.54 111.491 115.041 109.624 117.64 108.158C118.4 107.729 119.186 107.362 119.959 106.965C122.553 105.713 125.258 104.811 127.992 104.041C129.829 103.524 131.718 103.048 133.587 102.706C134.606 102.52 135.633 102.393 136.656 102.236C141.181 101.696 145.752 101.37 150.297 101.819C153.153 102.102 154.226 102.4 157.012 102.979C162.137 104.267 167.152 106.195 171.856 108.832C174.109 110.094 174.988 110.736 177.114 112.152C179.058 113.446 180.939 114.85 182.796 116.296L180.373 116.166C178.564 114.731 176.727 113.343 174.82 112.074C172.736 110.691 171.836 110.036 169.624 108.814C168.618 108.259 167.59 107.756 166.566 107.243C166.143 107.03 165.72 106.809 165.282 106.638C162.21 105.442 161.871 105.426 158.762 104.548C155.968 103.932 154.938 103.627 152.074 103.316C147.563 102.826 143.023 103.128 138.529 103.674C137.518 103.828 136.504 103.954 135.496 104.135C133.667 104.464 131.72 104.938 129.921 105.434C127.216 106.18 124.537 107.057 121.974 108.297C121.213 108.686 120.44 109.044 119.693 109.463C117.209 110.855 114.763 112.63 113.18 115.252L110.776 114.131ZM197.579 127.252C198.143 132.593 198.255 137.966 198.356 143.335C198.375 148.08 198.571 152.827 198.448 157.571L198.414 158.357L196.185 157.647L196.242 156.881C196.489 152.172 196.343 147.449 196.328 142.736C196.211 137.347 196.059 131.948 195.307 126.611L197.579 127.252Z" fill="black"/>
<path d="M187.588 126.136C188.393 126.089 189.196 126 190.002 125.996C194.674 125.968 200.065 126.57 204.484 128.265C206.251 128.943 207.956 129.8 209.692 130.567C210.659 131.248 211.685 131.839 212.594 132.61C214.963 134.621 216.901 137.355 217.68 140.567C218.273 143.01 218.004 143.938 217.804 146.383C217.536 147.309 217.351 148.269 217.001 149.163C215.809 152.205 213.742 154.548 211.258 156.385C209.013 158.046 207.819 158.46 205.351 159.625C202.869 160.527 202.254 160.835 199.777 161.43C199.052 161.604 198.315 161.711 197.584 161.852L195.762 160.51C196.496 160.389 197.237 160.304 197.966 160.147C200.415 159.617 201.091 159.293 203.537 158.442C205.992 157.317 207.137 156.942 209.37 155.319C211.785 153.564 213.803 151.318 214.958 148.375C215.294 147.518 215.469 146.596 215.725 145.707C215.906 143.35 216.164 142.494 215.561 140.148C214.761 137.041 212.825 134.433 210.496 132.525C209.59 131.783 208.573 131.219 207.612 130.566C207.1 130.281 206.618 129.922 206.076 129.712C201.524 127.951 196.594 127.345 191.786 127.382C191.034 127.388 190.284 127.472 189.532 127.517L187.588 126.136Z" fill="black"/>
</svg>
