<svg xmlns="http://www.w3.org/2000/svg" width="311.273" height="247.518"><g transform="translate(-201.008 -35.5)"><path d="M235.077 50.5H478.21c9.703 0 20.205 9.969 20.205 20.42v177.432c0 10.45-10.502 19.665-20.205 19.665H235.077c-9.703 0-19.07-9.214-19.07-19.665V70.919c0-10.45 9.367-20.42 19.07-20.42z" style="opacity:1;fill:#816e34;fill-opacity:1;fill-rule:nonzero;stroke:none;stroke-width:4;stroke-linecap:butt;stroke-linejoin:round;stroke-miterlimit:100;stroke-dasharray:none;stroke-dashoffset:0;stroke-opacity:1"/><path d="m443.437 166.664 36.775 36.696V68.77h-246v124.873l67.04-74.355c5.332-6.569 13.848-6.27 18.715-.172 0 0 15.233 17.823 44.806 53.16l25.663 30.663 36.467-36.578c7.112-7.363 13.146-2.948 16.534.302z" style="fill:#a2e9ff;fill-opacity:1"/><circle cx="429.788" cy="115.322" r="27.763" style="opacity:1;fill:#ffe680;fill-opacity:1;fill-rule:nonzero;stroke:none;stroke-width:4;stroke-linecap:butt;stroke-linejoin:round;stroke-miterlimit:100;stroke-dasharray:none;stroke-dashoffset:0;stroke-opacity:1"/></g></svg>