<svg xmlns="http://www.w3.org/2000/svg" width="453.802" height="407.973" viewBox="0 0 425.439 382.474"><g transform="translate(-543.313 -1058.69)"><path d="M1171.03 962.038c10.03-8.966 20.463-17.462 30.84-26.02 17.706-14.264 34.987-29.05 52.349-43.73 20.184-17.098 40.402-34.155 60.423-51.44 11.063-9.516 22.258-18.873 33.429-28.26 3.632-3.055 7.233-6.148 10.877-9.19 3.061-2.555 20.248-16.682 23.244-19.146 3.926-3.26 7.85-6.522 11.78-9.776 6.72-5.567 16.48-13.593 23.177-19.224 10.725-9.02 21.296-18.215 31.873-27.403 15.034-13.023 29.877-26.254 44.868-39.324 4.644-4.104 2.541-2.217 6.323-5.646l9.98 7.374c-4.085 3.219-1.836 1.437-6.738 5.355-15.473 12.578-30.437 25.747-45.638 38.648-10.681 9.16-21.342 18.346-32.14 27.37-7.804 6.522-15.389 12.696-23.222 19.185-3.935 3.26-7.854 6.54-11.781 9.808-22.584 18.676-45.095 37.449-67.296 56.578a5528.022 5528.022 0 0 1-60.29 51.615c-17.266 14.766-34.496 29.569-51.918 44.152-10.106 8.468-20.355 16.88-29.678 26.171l-10.462-7.098z" style="opacity:1;fill:#000;fill-opacity:1;stroke:none;stroke-width:2.29999995;stroke-linecap:square;stroke-linejoin:miter;stroke-miterlimit:100;stroke-dasharray:none;stroke-opacity:1"/><path d="M1350.46 939.982c1.84 5.778 1.79 11.95 1.977 17.946.398 12.742.01 2.094.51 14.983.282 6.008.72 12.002 1.3 17.987l-13.506 2.695c-.21-6.073-.36-12.147-.662-18.216-.208-4.587-.435-10.266-.76-14.858-.331-4.676-.592-9.612-2.039-14.12-.204-.638-.53-1.23-.795-1.845l13.975-4.572z" style="opacity:1;fill:#fff;fill-opacity:1;stroke:none;stroke-width:2.29999995;stroke-linecap:square;stroke-linejoin:miter;stroke-miterlimit:100;stroke-dasharray:none;stroke-opacity:1"/><path d="M166.169 644.424c13.443-10.081 26.407-20.772 39.448-31.363 17.45-14.248 35.087-28.261 52.868-42.093 11.645-8.903 23.448-17.593 35.213-26.334 4.047-3.006 8.062-6.055 12.117-9.049 9.416-6.95 18.886-13.826 28.312-20.762 32.603-23.473 65.104-47.085 97.708-70.556 12.411-8.723 25.002-17.18 37.223-26.17 2.245-1.626 4.441-3.316 6.67-4.963l6.782.68c-2.45 1.521-4.764 3.239-7.146 4.866-12.513 8.893-25.116 17.648-37.912 26.13-7.714 5.216-15.55 10.486-23.184 15.792-25.459 17.693-50.409 36.109-75.245 54.661-25.094 18.57-50.233 37.084-74.937 56.173-17.747 13.84-35.336 27.882-52.807 42.068-12.83 10.432-25.562 20.98-38.337 31.478l-6.773-.558z" style="opacity:1;fill:#000;fill-opacity:1;stroke:none;stroke-width:2.29999995;stroke-linecap:square;stroke-linejoin:miter;stroke-miterlimit:100;stroke-dasharray:none;stroke-opacity:1"/><ellipse cx="202.971" cy="617.89" rx="7.324" ry="7.071" style="opacity:1;fill:#000;fill-opacity:1;stroke:none;stroke-width:2.29999995;stroke-linecap:square;stroke-linejoin:miter;stroke-miterlimit:100;stroke-dasharray:none;stroke-opacity:1"/><path d="M214.894 616.533c9.272-.622 18.564-.627 27.848-.856 12.347-.23 24.69-.629 37.034-.966 7.594-.066 15.18-.443 22.772-.58 6.177-.11 12.355-.031 18.53.036 3.874.034 4.15.04 7.593.06.16 0 2.2-.145 2.677.09l-6.137 3.35c-.002.274.019.045-.653.008-.54-.03-1.079-.056-1.619-.077-3.02-.12-4-.128-7.317-.207-6.11-.084-12.221-.18-18.333-.084-7.585.12-15.166.456-22.75.573-12.427.399-24.851.864-37.282 1.106-9.358.22-18.733.234-28.063 1.095l5.7-3.548zM378.875 611.6c7.95-.254 15.906-.209 23.853-.483a6625.86 6625.86 0 0 0 35.686-1.234c13.764-.501 27.538-.603 41.31-.658 3.394-.133 6.806.118 10.2-.032.497-.022.993-.075 1.483-.161.241-.043.938-.288.701-.222-2.094.586-4.183 1.187-6.275 1.78-.06 1.122.279.99-.432 1.003l6.261-2.996c.989.641.474.157 1.14 1.79-2.161.734-4.302 1.531-6.484 2.203-.232.072-.485.016-.728.019-.482.007-.964.015-1.446.01-3.304-.027-6.608-.142-9.914-.127-13.688-.078-27.38.01-41.059.578-12.02.475-24.04.975-36.062 1.447-7.995.2-15.999.116-23.986.59l5.752-3.507z" style="opacity:1;fill:#b3b3b3;fill-opacity:1;stroke:none;stroke-width:2.29999995;stroke-linecap:square;stroke-linejoin:miter;stroke-miterlimit:100;stroke-dasharray:none;stroke-opacity:1"/><path d="M437.329 598.598c3.787 1.947 7.72 3.593 11.56 5.432 2.542 1.219 3.35 1.706 5.745 3.026 1.47.873 2.989 1.671 4.422 2.606.403.263.72.525.548.595-2.207.903-4.497 1.588-6.746 2.381-2.593-1.636 2.146-.774 5.732-1.064-4.474 1.956-8.888 4.056-13.271 6.21-1.706.886-3.452 1.7-5.096 2.7-.16.098-.285.339-.471.31-.127-.019-.013-.257-.022-.385-.03-.415-.063-.829-.095-1.243l-6.17 3.232c-.3-.601-.99-1.39-.613-2.168.158-.326 1.623-1.192 1.666-1.216 1.38-.766 2.865-1.33 4.234-2.117a929.212 929.212 0 0 1 8.593-4.204c.643-.31 2.72-1.24 3.517-1.662.294-.155.57-.341.855-.512 2.363-.27 4.732-.5 7.09-.81.044-.006-.058-.138-.015-.131.14.02.259.143.401.157-2.088.867-4.2 1.675-6.263 2.6-.058.027.123.192.06.182-.122-.02-.197-.15-.298-.22-.25-.175-.5-.35-.756-.516-1.438-.937-1.765-1.103-3.4-2.07-5.646-3.12-11.58-5.629-17.434-8.327l6.227-2.786z" style="opacity:1;fill:#b3b3b3;fill-opacity:1;stroke:none;stroke-width:2.29999995;stroke-linecap:square;stroke-linejoin:miter;stroke-miterlimit:100;stroke-dasharray:none;stroke-opacity:1"/><ellipse cx="438.841" cy="442.123" rx="7.324" ry="7.071" style="opacity:1;fill:#000;fill-opacity:1;stroke:none;stroke-width:2.29999995;stroke-linecap:square;stroke-linejoin:miter;stroke-miterlimit:100;stroke-dasharray:none;stroke-opacity:1"/><path d="M146.105 954.68c13.803-10.516 27.634-21.006 41.439-31.519 22.838-17.446 46.134-34.469 68.802-52.07 25.166-19.16 50.25-38.394 75.41-57.558 29.488-22.565 59.297-44.83 89.218-66.993 13.443-9.967 26.785-20.027 40.133-30.082 9.171-6.908 18.35-13.797 27.336-20.873 5.398-4.187 10.502-8.664 16.354-12.42l11.129.936c-.651.32-1.328.606-1.953.96-5.645 3.203-10.262 7.523-15.577 11.064-23.169 16.844-46.241 33.78-69.139 50.881-29.917 22.18-59.91 44.29-89.3 66.961-24.866 19.098-49.428 38.467-74.22 57.631-23.193 17.14-46.298 34.367-68.905 52.047-8.553 6.692-17.111 13.38-25.595 20.133-2.72 2.165-7.895 6.29-10.723 8.665-1.063.893-2.085 1.82-3.128 2.73l-11.281-.494z" style="opacity:1;fill:#000;fill-opacity:1;stroke:none;stroke-width:2.29999995;stroke-linecap:square;stroke-linejoin:miter;stroke-miterlimit:100;stroke-dasharray:none;stroke-opacity:1"/><ellipse cx="203.03" cy="-914.88" rx="8.893" ry="8.586" style="opacity:1;fill:#000;fill-opacity:1;stroke:none;stroke-width:2.29999995;stroke-linecap:square;stroke-linejoin:miter;stroke-miterlimit:100;stroke-dasharray:none;stroke-opacity:1" transform="scale(1 -1)"/><ellipse cx="454.558" cy="724.466" rx="8.893" ry="8.586" style="opacity:1;fill:#000;fill-opacity:1;stroke:none;stroke-width:2.29999995;stroke-linecap:square;stroke-linejoin:miter;stroke-miterlimit:100;stroke-dasharray:none;stroke-opacity:1"/><path d="M150.397 898.218c-1.814 3.597-2.611 7.616-2.89 11.614-.091 1.318-.166 2.645-.084 3.964.083 1.35.386 2.678.58 4.018.387 1.228.641 2.507 1.16 3.686 1.47 3.34 3.996 6.098 7.14 7.926 2.238 1.302 3.206 1.406 5.603 2.052 2.813.236 1.507.282 3.92-.016l-3.266 2.019c-2.477.034-1.144.11-3.991-.33-2.42-.781-3.434-.953-5.676-2.373-3.212-2.033-5.775-4.983-7.27-8.49-.525-1.227-.78-2.551-1.17-3.827-.206-1.388-.524-2.764-.616-4.163-.09-1.346-.01-2.699.07-4.045.243-4.086.966-8.18 2.587-11.955l3.903-.08z" style="opacity:1;fill:#000;fill-opacity:1;stroke:none;stroke-width:2.29999995;stroke-linecap:square;stroke-linejoin:miter;stroke-miterlimit:100;stroke-dasharray:none;stroke-opacity:1"/><path d="M154.111 909.669c1.89-.343 3.772-.727 5.669-1.03.666-.105 6.456-.748 6.82-.785 1.204-.122 5.983-.556 7.319-.611.964-.04 1.93-.003 2.894-.004 2.691.138 1.466-.004 3.683.355l-3.39 1.85c-2.089-.287-.925-.17-3.496-.293-.937.01-1.876-.014-2.812.029-1.75.079-5.621.447-7.275.627-1.252.137-2.5.292-3.748.454-1.06.138-2.11.389-3.178.446-.475.025.924-.234 1.385-.35l-3.871-.688z" style="opacity:1;fill:#000;fill-opacity:1;stroke:none;stroke-width:2.29999995;stroke-linecap:square;stroke-linejoin:miter;stroke-miterlimit:100;stroke-dasharray:none;stroke-opacity:1"/><path d="M170.596 900.386a79.974 79.974 0 0 0-2.532 15.709l.063 1.608-3.801.572-.008-1.7c.402-5.346 1.261-10.644 2.392-15.882l3.886-.307zM181.7 902.45c1.344 1.868 2.746 3.694 4.145 5.52l-3.678 1.16c-1.365-1.85-2.739-3.694-4.193-5.476l3.727-1.205zM190.287 902.146c.843 2.704-.03 5.417-.76 8.036l-1.89.142c.59-2.053 1.284-4.145 1.093-6.319-.04-.458-.221-.892-.332-1.338l1.889-.52zM194.276 883.463c1.266 2.209 2.747 4.209 5.032 5.46.745.408 1.543.756 2.377.921.758.15 1.549.083 2.319.012.463-.042-.928-.065-1.393-.097.563-.44 1.211-.789 1.69-1.32 2.327-2.583 2.356-6.37 1.934-9.603-.086-.658-.25-1.303-.376-1.954-.645-2.64-1-2.88 3.83-2.714.456.016.64.654.968.973 1.788 1.743 1.296 1.255 3.453 3.038 2.319 1.981 5.055 3.41 7.408 5.343.79.65 2.509 2.264 2.987 3.317.26.576.258 1.238.387 1.857-.06.54-.023 1.1-.178 1.622-.887 2.993-4.474 4.885-7.113 6.007-.87.37-1.779.644-2.669.966l-2.329.641-3.706-.697 2.353-.56c2.715-.888 4.986-1.623 7.328-3.343.933-.685 1.853-1.489 2.299-2.597.165-.41.163-.87.245-1.305-.088-.483-.056-1.004-.263-1.45-.461-.999-2.056-2.465-2.803-3.077-2.37-1.941-5.09-3.424-7.447-5.385-5.18-4.199.49.453-3.59-3.035-.313-.268-1.28-.499-.97-.771 6.546-5.727 3.162-1.98 3.287-.89.052.455.175.898.263 1.348.686 4.155 1.204 8.925-1.523 12.527-.486.643-1.152 1.127-1.728 1.69-1.873.448-3.71 1.098-5.62 1.345-.814.105-1.656-.072-2.444-.303-3.542-1.042-5.9-3.968-7.747-6.972l3.739-.994zM221.224 875.276c1.183 1.579 2.162 3.3 3.334 4.883l-3.73 1.15c-1.13-1.63-2.139-3.343-3.368-4.905l3.764-1.128zM208.23 854.505c3.513-.077 7.024.355 10.499.83 1.539.21 4.53.66 6.11 1.114.835.24 1.63.601 2.446.902.722.438 1.52.769 2.165 1.313 3.304 2.79 3.811 7.49 4.022 11.508l-3.772.583c-.07-3.051-.321-6.328-2.125-8.932-1.199-1.73-1.883-1.838-3.671-2.832-.791-.268-1.566-.585-2.372-.804-1.587-.431-4.428-.88-5.978-1.086-3.513-.465-7.066-.804-10.612-.591l3.287-2.005zM394.015 709.957a56.973 56.973 0 0 0-4.023 10.934c-.834 3.244-1.381 5.871-1.309 9.242.032 1.494.338 2.97.507 4.456.498 1.363.815 2.806 1.494 4.089 1.715 3.241 4.81 6.205 8.546 6.836 1.019.172 2.07.02 3.1-.07.23-.02-.452-.093-.678-.14l3.668.68c-3.186.687-6.154 1.928-9.413 1.103-3.84-.973-6.956-4.155-8.707-7.592-.69-1.354-1.017-2.863-1.526-4.295-.171-1.538-.48-3.067-.515-4.614-.082-3.542.444-6.019 1.282-9.433a68.672 68.672 0 0 1 3.742-11.071l3.832-.125z" style="opacity:1;fill:#000;fill-opacity:1;stroke:none;stroke-width:2.29999995;stroke-linecap:square;stroke-linejoin:miter;stroke-miterlimit:100;stroke-dasharray:none;stroke-opacity:1"/><path d="M399.073 719.934c3.462.281 6.826 1.216 10.212 1.938 3.462.738 3.474.7 7.03 1.306 3.661.498 7.363 1.006 11.067.849l-3.364 2.006c-3.66-.126-7.302-.545-10.917-1.124-3.966-.685-3.235-.523-7.087-1.323-3.4-.706-6.806-1.605-10.3-1.653l3.36-1.999z" style="opacity:1;fill:#000;fill-opacity:1;stroke:none;stroke-width:2.29999995;stroke-linecap:square;stroke-linejoin:miter;stroke-miterlimit:100;stroke-dasharray:none;stroke-opacity:1"/><path d="M413.426 713.745c-2.712 7.693-4.444 15.689-6.002 23.682l-3.728.34c1.877-7.949 3.544-15.96 5.923-23.78l3.807-.242zM422.744 718.733c1.227-2.09 2.597-4.182 4.684-5.493 1.345-.242 2.668-.77 4.034-.726.322.01.322.563.429.867.219.623.29 1.652.326 2.26.1 1.662.055 1.926.016 3.666-.06 1.643-.15 3.285-.222 4.927-.013.288-.037.575-.036.863.001.136-.02.526.043.406.085-.159.02-.36.029-.54-1.09.127-2.185.55-3.269.38-.38-.06.588-.496.872-.756.422-.386.829-.788 1.245-1.181a145 145 0 0 1 4.792-4.345c.961-.819 1.985-1.556 3.011-2.288l3.938.508c-1.188.411-2.12 1.384-3.149 2.058a75.702 75.702 0 0 0-4.76 4.278c-.403.397-.796.804-1.194 1.206-.275.277-.46.69-.824.831-1.35.528-2.8.755-4.2 1.132-.617-1.01-.438-.858-.343-2.053.131-1.63.228-3.262.288-4.896.02-1.508.149-3.924-.37-5.377-.009-.024-.024.046-.037.07l3.29-.737c-2.256.678-3.514 2.957-4.682 4.83l-3.911.11zM443.136 688.186c1.038 3.957 3.034 8.149 7.042 9.863.832.356 1.762.417 2.643.625.879-.104 1.835.062 2.638-.312.341-.16-1.19-.081-1.048-.431.343-.846 1.423-1.166 1.985-1.885 1.261-1.615 1.876-3.435 2.187-5.441.165-1.067.119-2.156.178-3.234-.276-2.681-.177-2.957-.876-5.416-.128-.45-.57-1.927-1.076-2.42-.059-.058-.136.247-.054.24 1.366-.133 2.713-.42 4.069-.628.272.412.519.842.815 1.237 2.956 3.947 6.92 7.193 10.515 10.534 2.105 2.246 5.649 5.657 4.801 9.16-.475 1.966-1.535 2.429-3 3.684-3.567 1.99-7.504 3.167-11.47 4.047l-3.707-.752c.763-.132 1.536-.216 2.29-.395a46.846 46.846 0 0 0 9.137-3.213c1.176-.823 2.461-1.384 2.973-2.853 1.048-3.009-2.726-6.544-4.481-8.417-3.684-3.42-7.661-6.687-10.748-10.685-.33-.427-.612-.888-.918-1.332 1.12-.674 2.178-1.466 3.361-2.022.121-.057.126.237.184.357.153.316.33.622.45.95.873 2.385 1.248 4.916 1.389 7.44-.05 1.136.004 2.282-.148 3.41-.3 2.225-.864 4.074-2.146 5.931-.564.818-1.116 1.753-1.997 2.212-4.098 2.14-4.997 1.876-8.637 1.919-.917-.3-1.891-.463-2.752-.9-4.097-2.075-6.167-6.384-7.452-10.551l3.853-.722zM471.17 685.073c2.687-2.992 4.83-5.409 9.308-5.42.396-.001.466.642.7.963.095.452.242.896.285 1.355.051.539.018 1.083-.003 1.623-.07 1.837-.372 3.656-.434 5.492.029.123-.01.45.088.369.146-.12.322-.534.133-.552-.978-.093-1.985.542-2.934.285-.434-.117.742-.51 1.1-.78 1-.759 1.969-1.558 2.958-2.33a227.72 227.72 0 0 0 3.968-3.019l3.856.326a204.084 204.084 0 0 1-4.022 3.011c-.513.397-1.032.784-1.537 1.19-2.62 2.112-2.585 2.747-6.857 3.243-.278.032-.42-.385-.549-.633-.092-.178-.057-.396-.085-.593.134-2.276.69-4.581.5-6.87-.024-.288-.126-.564-.189-.846-1.027-.383-1.767-.599 2.504-.835.43-.024-.762.404-1.122.641-1.431.946-2.673 2.13-3.767 3.446l-3.901-.066zM463.238 658.329c4.366-.456 8.735.24 12.915 1.517 1.319.403 2.636.836 3.895 1.399 1.263.564 2.433 1.317 3.65 1.975 2.629 1.982 3.655 2.312 5.274 5.275 1.62 2.963 1.879 6.35 2.16 9.629l-3.697.604c-.179-3.122-.37-6.32-1.952-9.128-1.529-2.715-2.63-3.112-5.09-4.923-1.198-.618-2.353-1.326-3.593-1.853-1.25-.532-2.549-.947-3.855-1.318-4.227-1.2-8.62-1.704-12.987-1.1l3.28-2.077zM446.289 710.033c.583 2.367.449 4.762.193 7.157l-2.85.331c.288-2.385.426-4.535-.221-6.889l2.878-.6z" style="opacity:1;fill:#000;fill-opacity:1;stroke:none;stroke-width:2.29999995;stroke-linecap:square;stroke-linejoin:miter;stroke-miterlimit:100;stroke-dasharray:none;stroke-opacity:1"/><path d="M219.342 913.963c14.038-.583 28.074-1.195 42.122-1.549 15.367-.5 30.754-.704 46.07-2.142 1.521-.288 3.149-.179 4.628-.694l-8.322 5.44c-1.465-.017-2.914.258-4.379.274-15.179.966-30.392 1.173-45.59 1.712a1286.2 1286.2 0 0 0-42.81 2.053l8.281-5.094zM369.117 909.868c12.34-.484 24.69-.55 37.036-.543 15.858.016 31.716.074 47.573-.108.86-.017 1.72-.028 2.58-.05 4.173-.104 3.986-.917-8.067 4.52-.301.137-.662-.017-.992-.001-.443.02-.884.073-1.326.11l8.475-4.984c.507.056 1.02.074 1.52.168.434.082 1.629.097 1.273.358-6.986 5.139-6.113 4.916-11.623 4.729-15.702-.25-31.407-.24-47.11-.15-12.578.137-25.157.296-37.722.94l8.383-4.988z" style="opacity:1;fill:#999;fill-opacity:1;stroke:none;stroke-width:2.29999995;stroke-linecap:square;stroke-linejoin:miter;stroke-miterlimit:100;stroke-dasharray:none;stroke-opacity:1"/><path d="M426.163 896.517c5.858 2.54 11.842 4.787 17.644 7.458 1.618.745 6.36 3.105 8.147 3.99.858.428 3.185 1.633 4.296 2.066 3.361 1.31 10.113-2.799-8.014 3.375 1.033 4.09-.22.95 8.594-.308.638-.09-1.21.448-1.81.685-4.138 1.637-8.26 3.32-12.384 4.99-4.006 1.768-8.102 3.324-12.138 5.02-.407.17-2.935 1.479-3.64 1.588l-.005-1.221-9.681 2.359-.23-1.779c.16-.222.261-.5.478-.667.55-.424 3.386-1.667 3.61-1.759 4.095-1.688 8.332-3.037 12.335-4.954 5.131-2.136 4.123-1.718 8.94-3.72 1.015-.421 2.043-.813 3.045-1.264.584-.262 1.092-.71 1.711-.873 3.264-.863 6.525-1.891 9.887-2.194.493-.044.557.818.836 1.227 1.527 3.45.553.835-8.888 4.308-.197.072-.368-.2-.555-.295-2.105-1.08.193.144-2.611-1.368l-2.467-1.334c-2.61-1.336-5.264-2.728-7.931-3.94-5.916-2.689-12.042-4.872-18.052-7.33l8.883-4.06z" style="opacity:1;fill:#999;fill-opacity:1;stroke:none;stroke-width:2.29999995;stroke-linecap:square;stroke-linejoin:miter;stroke-miterlimit:100;stroke-dasharray:none;stroke-opacity:1"/><path d="M454.08 909.978c.144-9.646.152-19.295.188-28.942-.266-13.25-.602-26.496-.788-39.747l-.064-4.06 5.651-.825-.03 4.067c.038 13.261.37 26.516.695 39.772.036 9.63.044 19.26.189 28.888l-5.841.847zM451.97 790.19c-.12-5.66-.59-11.306-.767-16.963-.117-3.732-.073-6.287-.056-9.995.04-6.053.85-12.059 1.213-18.09.184-3.054.137-4.349.128-7.304l-.087-2.494 5.756-.87.034 2.54c-.024 2.785-.007 4.589-.182 7.43-.372 5.997-1.204 11.967-1.262 17.986-.035 3.544-.1 6.358.022 9.917.195 5.637.71 11.265.986 16.898l-5.786.945z" style="opacity:1;fill:#999;fill-opacity:1;stroke:none;stroke-width:2.29999995;stroke-linecap:square;stroke-linejoin:miter;stroke-miterlimit:100;stroke-dasharray:none;stroke-opacity:1"/><path d="M444.18 750.955c2.51-5.49 5.265-10.868 7.693-16.396 1.458-2.866 1.288-3.235 6.924-1.13.56.209.093 1.192.176 1.784.296 2.11.642 3.427 1.122 5.59 1.035 4.151 2.663 8.096 4.572 11.912 1.403 2.803 2.635 4.997 4.69 7.324l-5.567 1.821c-4.43-5.75-7.255-13.015-9.342-19.907-.586-2.43-.873-3.405-1.267-5.731-.089-.525-.694-1.367-.208-1.584 1.752-.784 3.82-.451 5.692-.87.355-.08-2.423-1.59-.928.572-2.566 5.463-5.322 10.836-7.68 16.396l-5.878.22z" style="opacity:1;fill:#999;fill-opacity:1;stroke:none;stroke-width:2.29999995;stroke-linecap:square;stroke-linejoin:miter;stroke-miterlimit:100;stroke-dasharray:none;stroke-opacity:1"/><path d="M433.093 809.28c10.74-.523 21.456-1.547 32.215-1.482l6.099 7.245c-1.495-.077-2.987-.21-4.484-.229-4.256-.052-7.9.201-12.163.494-3.825.263-7.65.53-11.468.88-1.212.11-2.418.273-3.627.41l-6.572-7.318z" style="opacity:1;fill:#000;fill-opacity:1;stroke:none;stroke-width:2.29999995;stroke-linecap:square;stroke-linejoin:miter;stroke-miterlimit:100;stroke-dasharray:none;stroke-opacity:1"/><path d="M460.075 802.805c.033 8.071-.746 16.126-.56 24.195l.333 2.424-8.747-4.202-.135-2.57c.135-8.096.768-16.189.388-24.29l8.72 4.443zM595.077 930.872c9.982-9.03 20.523-17.391 30.99-25.84 17.923-14 35.248-28.735 52.687-43.323 20.27-16.999 40.586-33.937 60.627-51.203 11.081-9.495 22.348-18.766 33.58-28.08 3.654-3.029 7.259-6.117 10.927-9.13 3.082-2.53 20.425-16.468 23.447-18.9 3.957-3.222 7.91-6.45 11.87-9.668 6.772-5.502 16.62-13.423 23.353-19.01 10.785-8.948 21.352-18.151 31.928-27.343 15.041-13.018 29.818-26.334 44.8-39.42 4.631-4.12 2.54-2.219 6.293-5.684l13.097 11.249c-4.15 3.14-1.868 1.399-6.835 5.236-15.64 12.374-30.571 25.587-45.831 38.42-10.704 9.133-21.38 18.304-32.247 27.245-7.854 6.462-15.52 12.537-23.414 18.952-3.965 3.222-7.909 6.472-11.863 9.708-22.768 18.454-45.43 37.044-67.661 56.141a3918.404 3918.404 0 0 1-60.438 51.448c-17.31 14.713-34.573 29.48-52.101 43.935-10.167 8.397-20.511 16.692-29.602 26.274l-13.607-11.007z" style="opacity:1;fill:#000;fill-opacity:1;stroke:none;stroke-width:2.29999995;stroke-linecap:square;stroke-linejoin:miter;stroke-miterlimit:100;stroke-dasharray:none;stroke-opacity:1"/><ellipse cx="642.492" cy="-900.485" rx="17.524" ry="16.92" style="opacity:1;fill:#000;fill-opacity:1;stroke:none;stroke-width:2.29999995;stroke-linecap:square;stroke-linejoin:miter;stroke-miterlimit:100;stroke-dasharray:none;stroke-opacity:1" transform="scale(1 -1)"/><ellipse cx="880.383" cy="-702.495" rx="17.524" ry="16.92" style="opacity:1;fill:#000;fill-opacity:1;stroke:none;stroke-width:2.29999995;stroke-linecap:square;stroke-linejoin:miter;stroke-miterlimit:100;stroke-dasharray:none;stroke-opacity:1" transform="scale(1 -1)"/><path d="M559.682 870.868c-2.028 4.12-3.343 8.535-4.353 13.003-1.091 4.822-1.713 8.327-1.835 13.285-.05 2.053.16 4.103.24 6.155 1.028 3.82 1.196 6.25 3.765 9.344.919 1.107 4.193 3.898 3.32 2.756-1.089-1.422-3.926-1.824-3.976-3.613-.04-1.412 2.572 1.183 3.92 1.608 1.274.402 2.61.575 3.914.863l3.215.284 6.461 9.285-3.625-.203c-2.146-.299-7.072-.783-8.99-1.89-4.89-2.823-11.706-6.548-14.842-12.055-2.18-3.83-2.217-6.384-2.984-10.711.009-2.15-.089-4.303.026-6.45.504-9.43 2.757-19.019 5.883-27.913l9.861 6.252zM588.839 864.21c-.802 8.921-2.11 17.785-3.256 26.667-.422 3.443-.78 6.88-.752 10.349l-11.25-2.638c.433-3.487 1-6.954 1.46-10.438 1.16-8.875 2.46-17.772 2.353-26.746l11.445 2.806z" style="opacity:1;fill:#000;fill-opacity:1;stroke:none;stroke-width:2.29999995;stroke-linecap:square;stroke-linejoin:miter;stroke-miterlimit:100;stroke-dasharray:none;stroke-opacity:1"/><path d="M556.76 880.029c9.532-2.797 19.593-2.377 29.409-2.032 4.143.195 8.282.469 12.42.743l8.216 7.719c-4.179-.367-8.353-.806-12.546-.977-9.296-.67-18.85-1.279-27.94 1.234l-9.558-6.687zM614.817 869.693c1.903 2.275 3.955 4.42 6.04 6.527.97.981 2.765 2.795 3.914 3.701.453.358.963.635 1.445.952l-10.333 5.326c-4.178-3.717-7.832-7.983-11.815-11.901l10.75-4.605zM626.625 830.12c.476 1.176.842 2.402 1.427 3.527 1.384 2.66 3.66 6.096 5.995 8.045 2.105 1.757 4.577 2.943 7.387 2.381 1.133-.226 2.063-1.039 3.094-1.559-2.187.25-4.71 1.937-6.561.746-1.171-.752 1.708-2.226 2.296-3.487 1.959-4.202 2.295-9.023 2.022-13.577-.057-.949-.247-1.884-.37-2.827-.102-.472-.751-1.229-.306-1.416 3.667-1.545 7.509-2.983 11.477-3.29.835-.064.582 1.573.933 2.333.438.95.907 1.888 1.43 2.793 2.168 3.745 2.732 4.233 5.47 7.834 3.176 4.118 7.097 7.607 10.222 11.766.856 1.14 1.754 2.276 2.35 3.57 1.587 3.454 1.08 4.265.814 7.867-.598 1.273-.993 2.662-1.794 3.817-1.735 2.502-4.454 4.5-7.011 6.048-1.2.725-2.417 1.465-3.746 1.91-4.18 1.4-8.485 2.403-12.727 3.605l8.113-7.92c-2.11.676-4.18 1.496-6.331 2.03-1.283.319 2.516-.83 3.717-1.382 2.02-.928 5.05-2.7 6.703-4.282.72-.688 1.215-1.577 1.822-2.366.207-.834.621-1.642.62-2.501-.005-2.443-1.301-4.167-2.684-6.056-3.09-4.221-6.965-7.798-10.167-11.927-1.128-1.439-2.297-2.846-3.384-4.317-2.86-3.869-2.186-3.198-4.403-6.763-.262-.421-1.272-1.006-.832-1.235a44.775 44.775 0 0 1 10.848-3.989c.504-.113.012 1.033.019 1.55.344 6.244.318 12.598-1.757 18.591-.583 1.682-.768 3.818-2.21 4.862-3.759 2.723-8.414 3.92-12.62 5.88-1.374.079-2.761.435-4.123.234-7.03-1.036-11.623-7.859-14.897-13.47-.779-1.336-1.418-2.748-2.127-4.122l11.29-2.903zM671.637 822.547c4.313 3.101 7.757 7.152 11.368 10.996l-10.577 4.687c-3.233-3.759-6.598-7.51-11.033-9.88l10.242-5.803zM634.552 793.205c4.16-1.083 8.262-2.423 12.48-3.251 1.33-.261 2.715-.086 4.068.002 4.125.266 6.401.788 10.437 2.101 2.036.663 4.07 1.356 6.013 2.257 2.044.95 3.942 2.186 5.913 3.279 1.66 1.285 3.461 2.406 4.979 3.856 2.79 2.666 4.61 5.476 6.031 9.026 1.36 3.399 1.715 6.992 1.897 10.598l-11.32 2.016c.042-.767.145-1.534.124-2.302-.06-2.121-.417-4.76-1.157-6.737-1.932-5.157-5.234-8.054-9.751-11.015-1.891-.934-3.717-2.014-5.674-2.802-3.339-1.347-7.72-2.456-11.334-2.831a27.855 27.855 0 0 0-4.593-.072c-1.294.08-5.039 1.103-3.845.595 2.26-.96 4.731-1.318 7.097-1.977l-11.365-2.743zM791.14 665.118c-.446 1.21-.986 2.39-1.337 3.632-2.39 8.458-3.134 18.08-1.412 26.732.434 2.183 1.225 4.28 1.838 6.42 1.034 1.931 1.87 3.983 3.102 5.796 2.202 3.237 5.068 5.947 8.23 8.216 1.87 1.342 3.874 2.467 6.156 2.897.627.117 1.276.01 1.913.014 3.497-.835 14.444-3.708-1.081.25l11.177 2.74c-2.307.647-12.346 4.153-17.078 4.1-.796-.01-1.582-.181-2.373-.271-.742-.266-1.51-.466-2.225-.798-5.63-2.62-11.482-8.552-14.74-13.669-1.306-2.049-2.21-4.327-3.314-6.49-.64-2.322-1.462-4.601-1.92-6.965-.468-2.425-.7-4.895-.85-7.36-.51-8.36.627-16.641 2.157-24.837l11.757-.407z" style="opacity:1;fill:#000;fill-opacity:1;stroke:none;stroke-width:2.29999995;stroke-linecap:square;stroke-linejoin:miter;stroke-miterlimit:100;stroke-dasharray:none;stroke-opacity:1"/><path d="M801.129 678.172c1.133.14 2.263.315 3.4.419 3.553.326 7.244.451 10.797.623 6.816.33 13.631.577 20.45.844 4.309.227 8.617.468 12.926.692l-8.988 7.075c-4.071-.466-8.152-.836-12.245-1.053-6.844-.314-13.687-.545-20.534-.761-3.74-.119-7.478-.3-11.22-.358-1.205-.019-2.411.02-3.617.03l9.03-7.511z" style="opacity:1;fill:#000;fill-opacity:1;stroke:none;stroke-width:2.29999995;stroke-linecap:square;stroke-linejoin:miter;stroke-miterlimit:100;stroke-dasharray:none;stroke-opacity:1"/><path d="M827.687 667.369a1053.71 1053.71 0 0 0-3.563 32.138l-10.886 1.466c1.657-10.502 3.061-21.093 3.11-31.743l11.339-1.861zM838.558 676.15c1.258-2.094 2.675-4.102 4.4-5.843.511-.516 2.258-2.125 3.096-2.386 2.088-.648 4.256-.997 6.384-1.496.459.424 1.023.758 1.376 1.273 1.429 2.08 1.499 5.04 1.52 7.434.024 2.83-.144 4.745-.317 7.588-.214 3.014-.448 6.027-.625 9.044-.044.748-.111 1.533-.092 2.289-1.91.02-3.825.21-5.728.061-.188-.015.193-.322.286-.486.154-.271.284-.557.454-.818.861-1.32 1.944-2.493 2.983-3.669 3.31-3.404 6.897-6.53 10.474-9.65.675-.578 1.398-1.092 2.102-1.633l5.903.77c-.723.537-1.447 1.072-2.23 1.52-3.652 2.923-7.087 6.124-10.45 9.373a63.809 63.809 0 0 0-2.864 3.386c-.144.183-.324.34-.44.541-.12.21-.024.624-.26.677-2.015.455-4.1.514-6.15.771.176-.72.228-1.559.304-2.277.317-3.005.555-6.017.79-9.03.197-3.346.307-4.086.25-7.373-.025-1.419.006-4.548-1.104-5.767-.136-.15-.392-.099-.588-.149 1.25-.425 2.497-.863 3.752-1.275.492-.161-1.011.273-1.465.524-2.608 1.444-4.338 4.102-5.906 6.528l-5.855.073zM870.148 659.767c2.084 3.765 3.538 7.842 5.014 11.873l-5.478 1.622c-1.332-3.882-2.686-7.828-4.954-11.282l5.418-2.213zM899.528 630.486c1.762-2.723 3.772-5.413 6.455-7.303.418-.294.875-.527 1.312-.79 2.456-1.066 3.456-1.607 7.182-1.508.532.014.766.754 1.04 1.21 1.127 1.876 1.17 4.231 1.359 6.33.257 4.935-.18 9.872-.428 14.8-.117 3.035.563 2.05-5.63 1.311-.252-.03.406-.304.608-.458.277-.21.553-.423.83-.634 4.115-3.215 8.101-6.593 12.202-9.83 1.37-1.103 2.848-2.06 4.259-3.108l5.86 1.065c-1.649.577-2.974 1.873-4.444 2.761-4.141 3.138-8.135 6.467-12.032 9.903-.265.184-.537.358-.794.554-.2.152-.326.457-.575.488-6.892.85-6.372 2.16-6.074-1.158.409-4.823.899-9.671.59-14.515-.146-1.438-.178-2.662-.608-4.031-.104-.33-.238-.664-.451-.937-.079-.1-.488-.07-.367-.109 1.412-.464 2.88-.738 4.298-1.182.347-.11-.72.116-1.08.174-.428.157-.877.267-1.285.471-2.741 1.372-4.706 4.021-6.34 6.514l-5.887-.018zM865.408 630.867c.51 4.297 1.84 8.699 4.878 11.932.806.858 1.713 1.664 2.758 2.205.903.47 1.971.507 2.957.76.945-.318 3.834-.947 2.836-.954-2.245-.016-4.575 1.732-6.67.926-1.122-.43 1.88-1.532 2.61-2.487 1.645-2.15 2.724-5.046 3.292-7.653.28-1.279.305-2.6.457-3.901-.054-1.03-.038-2.068-.163-3.093a8.862 8.862 0 0 0-.447-1.926c-.076-.21-.653-.483-.431-.515 3.76-.546 7.613-.376 11.35-1.068.343-.063-.22-1.241.069-1.045.515.348.563 1.11.845 1.664 3.588 5.549 9.094 9.436 13.552 14.22.956 1.026 1.805 2.145 2.707 3.217.626 1.158 1.42 2.24 1.876 3.474 1.306 3.525 1.143 7.539-.658 10.86-1.517 2.795-2.734 3.452-5.084 5.432-3.354 2.048-1.743 1.185-4.794 2.658l-11.238-2.664c3.091-.662 1.471-.176 4.822-1.582 2.064-1.154 3.372-1.635 4.933-3.469a7.578 7.578 0 0 0 1.377-7.484c-.355-1-1.01-1.865-1.513-2.798-.828-.979-1.607-2-2.482-2.935-4.744-5.08-10.603-9.189-14.399-15.106-.246-.445-3.11-5.07-1.905-5.584 13.107-5.599 12.428-1.981 12.626 6.195-.156 1.505-.197 3.026-.467 4.515-.562 3.095-1.604 6.472-3.16 9.229-.749 1.326-1.323 2.99-2.665 3.71-10.366 5.553-9.48 5.076-16.822 4.21-1.165-.634-2.435-1.106-3.497-1.902-5.18-3.882-7.576-10.356-8.995-16.412l11.445-2.629zM883.231 584.69c5.096.111 10.211.41 15.209 1.49 4.493.973 6.069 1.66 10.405 3.153 6.966 2.971 12.65 5.904 16.774 12.568 2.223 3.592 2.077 4.414 2.97 8.369.165 4.455.256 2.362-.161 6.283l-11.414 1.398c.73-3.09.472-1.434.672-4.985-.202-1.11-.248-2.258-.604-3.328-2.614-7.852-10.173-11.465-17.322-14.224-1.656-.508-3.29-1.094-4.968-1.523-5.427-1.384-11.945-2.154-17.555-1.56-.834.088-1.649.308-2.473.462l8.467-8.104zM636.601 856.526c3.037 1.895 4.397 3.481 4.53 7.297.087 2.465-.485 4.13-1.052 6.498-1.106 3.823-.571 2.01-1.598 5.442l-5.73.433c1.104-3.38.542-1.6 1.676-5.342.669-2.517 1.674-5.341.78-7.961-.582-1.706-2.128-2.514-3.62-3.252l5.014-3.115z" style="opacity:1;fill:#000;fill-opacity:1;stroke:none;stroke-width:2.29999995;stroke-linecap:square;stroke-linejoin:miter;stroke-miterlimit:100;stroke-dasharray:none;stroke-opacity:1"/><path d="M658.181 902.07c1.63.078 3.26.19 4.891.235 4.395.123 8.287.053 12.703.014 8.159-.073 16.317-.127 24.475-.182 21.673-.123 43.34-.667 65.004-1.263 11.114-.298 22.22-.834 33.333-1.159 3.598-.105 7.198-.146 10.797-.247 5.977-.167 14.224-.492 20.224-.718 13.36-.54 26.685-1.701 40.044-2.259 2.075-.066 4.149-.107 6.225-.094l-11.324 9.306c-1.89-.057-3.78-.133-5.672-.108-12.944.067-25.866.84-38.8 1.263-21.336.659-42.679 1.113-64.014 1.8-21.88.622-43.76 1.311-65.646 1.711-8.274.116-16.544.306-24.816.49-4.355.095-8.713.093-13.067.208-1.82.048-3.638.156-5.457.235l11.1-9.232z" style="opacity:1;fill:gray;fill-opacity:1;stroke:none;stroke-width:2.29999995;stroke-linecap:square;stroke-linejoin:miter;stroke-miterlimit:100;stroke-dasharray:none;stroke-opacity:1"/><path d="M852.075 880.829c7.06 3.379 14.475 5.995 21.854 8.584 7.46 2.742 15.186 4.86 22.408 8.217.395.217.878.322 1.187.65 1.025 1.092 2.11 4.778.626 5.65-5.657 3.322-12.996 4.05-19.49 5.163-1.324.285-2.65.56-3.97.856-1.477.332-2.954.668-4.425 1.027-1.582.386-6.31 1.622-4.734 1.208 13.427-3.532 6.635-1.775 3.184-.647-.978.32-1.937.697-2.906 1.045l-13.832-3.12c1.066-.434 2.114-.917 3.2-1.301a61.137 61.137 0 0 1 4.064-1.274c9.843-2.735 19.712-5.397 29.703-7.537 1.11-.248 2.224-.48 3.33-.745.781-.187 3.092-.866 2.33-.61-3.68 1.238-7.886 1.367-11.092 3.558-.968.662.563 2.28.915 3.398.08.255.618.599.375.707-.301.134-.572-.328-.857-.493-6.863-3.405-14.221-5.657-21.42-8.226-4.301-1.482-5.614-1.918-9.831-3.432-3.636-1.304-7.246-2.69-10.89-3.968-.677-.237-1.365-.442-2.047-.663l12.318-8.047z" style="opacity:1;fill:gray;fill-opacity:1;stroke:none;stroke-width:2.29999995;stroke-linecap:square;stroke-linejoin:miter;stroke-miterlimit:100;stroke-dasharray:none;stroke-opacity:1"/><path d="M886.545 896.275c.05-9.555-.365-19.1-.81-28.644-.284-8.54-1.01-17.056-1.558-25.581-.652-10.139-1.118-20.292-1.646-30.437-.735-20.165-1.617-40.322-2.511-60.48-.354-8.625-1.098-17.229-1.45-25.854l13.733-2.37c-.097 1.387-.26 2.77-.292 4.16-.168 7.228.415 14.463.536 21.684.19 6.142.32 12.285.51 18.427.434 14.021 1.03 28.038 1.607 42.054 1.082 18.63 2.541 37.23 4.004 55.833.723 9.429 1.43 18.863 2.263 28.281l-14.386 2.927z" style="opacity:1;fill:gray;fill-opacity:1;stroke:none;stroke-width:2.29999995;stroke-linecap:square;stroke-linejoin:miter;stroke-miterlimit:100;stroke-dasharray:none;stroke-opacity:1"/><path d="M859.896 763.002c3.496-8.717 6.73-17.535 10.172-26.273 2.19-5.46 4.261-10.998 7.165-16.131 3.16-4.886 1.987-3.615 14.154-5.703.817-.14 3.49 5.08 3.955 5.92.374.633.719 1.283 1.123 1.898 1.367 2.081 2.313 3.162 3.938 5.157 2.018 2.48 3.65 4.504 5.812 6.878 1.007 1.104 2.065 2.16 3.097 3.24 2.242 2.182 4.454 4.385 6.795 6.461l-13.043 6.117c-2.133-2.288-4.24-4.6-6.385-6.877-5.26-5.71-10.623-11.418-15.045-17.815-.281-.436-.552-.878-.843-1.307-.16-.235-.297-.494-.51-.683-.05-.044-.21-.006-.191.059.117.408.126 1.256.539 1.155 3.848-.945 16.652-5.789 11.203-3.972-.33.32-.706.598-.993.957-.757.952-1.893 3.034-2.399 4.008-1.69 3.255-3.072 6.656-4.593 9.989-3.604 8.463-6.857 17.088-9.45 25.917l-14.501 1.005z" style="opacity:1;fill:gray;fill-opacity:1;stroke:none;stroke-width:2.29999995;stroke-linecap:square;stroke-linejoin:miter;stroke-miterlimit:100;stroke-dasharray:none;stroke-opacity:1"/><path d="M723.008 940.891c7.696-2.45 7.42-2.46 19.977-4.954 2.064-.41 4.184-.457 6.278-.662 7.903-.774 15.82-1.276 23.744-1.783 9.732-.853 19.5-.986 29.26-1.145l-10.797 8.963c-9.391-.218-18.784.077-28.16.635-7.995.615-16.004 1.187-23.943 2.357-2.14.316-7.734 2.806-6.395 1.106 1.527-1.938 4.769-1.28 7.12-2.027.922-.293-1.882.44-2.823.66l-14.261-3.15z" style="opacity:1;fill:#000;fill-opacity:1;stroke:none;stroke-width:2.29999995;stroke-linecap:square;stroke-linejoin:miter;stroke-miterlimit:100;stroke-dasharray:none;stroke-opacity:1"/><path d="M774.032 913.554c1.839 5.777 1.79 11.95 1.976 17.945.398 12.743.007 2.095.511 14.983.281 6.008.72 12.002 1.299 17.988l-13.506 2.694c-.21-6.072-.36-12.147-.661-18.216-.208-4.586-.435-10.266-.76-14.858-.332-4.675-.593-9.611-2.04-14.12-.204-.637-.53-1.23-.795-1.844l13.976-4.572zM907.738 812.522c8.103-.744 16.14-2.065 24.234-2.883 3.925-.397 10.24-.848 14.174-1.145 5.679-.355 11.36-.68 17.046-.882 3.883-.137 2.38-.164 5.56.04l-11.326 9.058c-7.072-.359-14.164.055-21.222.5-13.133 1.087-26.343 2.303-39.169 5.463l10.703-10.15z" style="opacity:1;fill:#000;fill-opacity:1;stroke:none;stroke-width:2.29999995;stroke-linecap:square;stroke-linejoin:miter;stroke-miterlimit:100;stroke-dasharray:none;stroke-opacity:1"/><path d="M940.054 784.954c.025 1.12.07 2.238.075 3.357.01 2.898-.108 8.538-.138 11.238-.074 6.685-.124 13.37-.1 20.056-.066 5.637.11 11.264.922 16.844l-14.038 2.92c-.228-5.817-.27-11.635-.051-17.454.11-7.927.112-5.298.068-13.454-.03-5.765-.011-11.563-.568-17.309-.1-1.026-.29-2.04-.435-3.061l14.265-3.137z" style="opacity:1;fill:#000;fill-opacity:1;stroke:none;stroke-width:2.29999995;stroke-linecap:square;stroke-linejoin:miter;stroke-miterlimit:100;stroke-dasharray:none;stroke-opacity:1"/><ellipse cx="1223.329" cy="-925.739" rx="17.524" ry="16.92" style="opacity:1;fill:#000;fill-opacity:1;stroke:none;stroke-width:2.29999995;stroke-linecap:square;stroke-linejoin:miter;stroke-miterlimit:100;stroke-dasharray:none;stroke-opacity:1" transform="scale(1 -1)"/><ellipse cx="1461.22" cy="-727.749" rx="17.524" ry="16.92" style="opacity:1;fill:#000;fill-opacity:1;stroke:none;stroke-width:2.29999995;stroke-linecap:square;stroke-linejoin:miter;stroke-miterlimit:100;stroke-dasharray:none;stroke-opacity:1" transform="scale(1 -1)"/><path d="M1121.965 894.423c-.446 1.21-.986 2.39-1.337 3.631-2.39 8.46-3.135 18.081-1.412 26.733.434 2.183 1.225 4.28 1.838 6.419 1.034 1.932 1.87 3.984 3.102 5.796 2.201 3.238 5.067 5.948 8.23 8.216 1.87 1.342 3.874 2.468 6.156 2.897.627.118 1.276.01 1.913.014 3.497-.834 14.444-3.707-1.081.251l11.177 2.74c-2.307.647-12.346 4.153-17.078 4.099-.796-.01-1.582-.18-2.373-.27-.742-.267-1.51-.466-2.225-.799-5.63-2.62-11.482-8.551-14.741-13.668-1.305-2.05-2.208-4.328-3.313-6.491-.64-2.322-1.462-4.6-1.92-6.965-.468-2.424-.7-4.894-.85-7.36-.51-8.36.627-16.64 2.157-24.836l11.757-.407z" style="opacity:1;fill:#000;fill-opacity:1;stroke:none;stroke-width:2.29999995;stroke-linecap:square;stroke-linejoin:miter;stroke-miterlimit:100;stroke-dasharray:none;stroke-opacity:1"/><path d="M1131.954 907.476c1.133.14 2.263.315 3.4.42 3.553.326 7.244.45 10.797.623 6.815.33 13.631.577 20.45.844 4.308.226 8.617.468 12.926.692l-8.988 7.075c-4.071-.466-8.152-.837-12.245-1.053-6.844-.315-13.687-.545-20.534-.762-3.74-.118-7.478-.299-11.22-.357-1.205-.02-2.411.019-3.617.029l9.03-7.51z" style="opacity:1;fill:#000;fill-opacity:1;stroke:none;stroke-width:2.29999995;stroke-linecap:square;stroke-linejoin:miter;stroke-miterlimit:100;stroke-dasharray:none;stroke-opacity:1"/><path d="M1158.512 896.673a1053.614 1053.614 0 0 0-3.563 32.139l-10.886 1.466c1.657-10.502 3.061-21.093 3.11-31.743l11.339-1.862zM1169.382 905.455c1.259-2.095 2.676-4.103 4.401-5.844.511-.515 2.257-2.125 3.096-2.385 2.088-.648 4.256-.998 6.384-1.496.459.424 1.023.757 1.376 1.272 1.429 2.081 1.499 5.041 1.52 7.434.024 2.83-.144 4.746-.317 7.588-.214 3.015-.448 6.028-.625 9.044-.044.749-.111 1.533-.093 2.29-1.91.02-3.824.21-5.728.06-.187-.014.194-.322.287-.485.154-.271.283-.557.454-.818.86-1.32 1.943-2.493 2.983-3.669 3.31-3.405 6.897-6.53 10.473-9.65.675-.579 1.4-1.093 2.103-1.633l5.903.77c-.723.536-1.447 1.072-2.23 1.519-3.652 2.924-7.087 6.125-10.45 9.374a63.8 63.8 0 0 0-2.865 3.386c-.143.182-.323.34-.439.54-.12.21-.025.624-.26.677-2.015.456-4.1.515-6.15.772.176-.721.227-1.56.303-2.278.318-3.004.556-6.017.79-9.029.197-3.346.307-4.087.25-7.373-.025-1.42.01-4.549-1.104-5.767-.136-.15-.391-.1-.587-.149 1.25-.425 2.496-.863 3.751-1.275.493-.162-1.01.273-1.464.524-2.609 1.444-4.338 4.101-5.907 6.528l-5.855.073zM1200.973 889.072c2.084 3.765 3.538 7.841 5.014 11.873l-5.478 1.622c-1.332-3.883-2.686-7.828-4.954-11.282l5.418-2.213zM1230.353 859.791c1.762-2.723 3.772-5.414 6.455-7.303.418-.294.875-.528 1.312-.791 2.456-1.066 3.456-1.606 7.182-1.508.532.014.766.754 1.04 1.21 1.127 1.876 1.17 4.232 1.359 6.33.257 4.936-.18 9.873-.428 14.801-.117 3.035.563 2.05-5.63 1.311-.252-.03.406-.305.608-.458l.83-.634c4.115-3.216 8.101-6.594 12.202-9.83 1.37-1.103 2.848-2.06 4.259-3.109l5.86 1.065c-1.649.578-2.974 1.873-4.444 2.762-4.141 3.138-8.135 6.466-12.032 9.902-.265.185-.537.359-.794.554-.2.153-.326.458-.575.489-6.892.85-6.372 2.16-6.074-1.158.409-4.824.899-9.672.59-14.515-.146-1.438-.178-2.662-.608-4.031-.104-.331-.238-.664-.451-.937-.078-.1-.488-.07-.367-.11 1.412-.463 2.88-.738 4.298-1.182.347-.109-.72.116-1.08.174-.428.158-.877.268-1.285.472-2.741 1.371-4.706 4.02-6.34 6.513l-5.887-.017zM1196.233 860.172c.51 4.297 1.84 8.698 4.878 11.932.806.858 1.713 1.663 2.758 2.205.903.469 1.97.506 2.957.76.945-.319 3.834-.947 2.836-.954-2.245-.016-4.575 1.731-6.67.926-1.122-.431 1.88-1.533 2.61-2.487 1.645-2.15 2.724-5.046 3.292-7.653.28-1.28.305-2.601.457-3.901-.054-1.031-.039-2.068-.163-3.093a8.884 8.884 0 0 0-.447-1.926c-.076-.211-.653-.484-.432-.516 3.761-.545 7.614-.376 11.35-1.067.344-.064-.22-1.242.07-1.046.515.349.563 1.11.844 1.665 3.588 5.549 9.095 9.436 13.553 14.22.955 1.025 1.804 2.144 2.707 3.217.625 1.158 1.419 2.24 1.876 3.474 1.306 3.524 1.143 7.538-.659 10.86-1.516 2.795-2.733 3.452-5.083 5.432-3.355 2.047-1.744 1.185-4.795 2.657l-11.237-2.663c3.09-.662 1.47-.177 4.822-1.582 2.064-1.154 3.371-1.635 4.933-3.47a7.578 7.578 0 0 0 1.376-7.483c-.354-1-1.009-1.866-1.513-2.799-.827-.978-1.607-1.999-2.481-2.935-4.744-5.08-10.604-9.188-14.399-15.105-.246-.445-3.11-5.07-1.905-5.585 13.106-5.598 12.427-1.98 12.625 6.196-.155 1.505-.196 3.026-.466 4.514-.562 3.096-1.604 6.473-3.16 9.23-.75 1.325-1.324 2.99-2.666 3.709-10.365 5.553-9.48 5.076-16.821 4.211-1.166-.634-2.435-1.106-3.497-1.902-5.18-3.883-7.576-10.356-8.995-16.412l11.444-2.629zM1214.056 813.994c5.096.112 10.211.41 15.209 1.491 4.493.973 6.069 1.659 10.405 3.152 6.966 2.972 12.65 5.905 16.774 12.568 2.223 3.593 2.077 4.415 2.97 8.37.165 4.455.256 2.362-.161 6.282l-11.414 1.398c.73-3.09.472-1.433.672-4.984-.202-1.11-.248-2.259-.604-3.328-2.614-7.853-10.173-11.465-17.322-14.225-1.656-.507-3.29-1.094-4.968-1.522-5.427-1.385-11.945-2.154-17.555-1.56-.834.087-1.649.307-2.473.461l8.467-8.103z" style="opacity:1;fill:#000;fill-opacity:1;stroke:none;stroke-width:2.29999995;stroke-linecap:square;stroke-linejoin:miter;stroke-miterlimit:100;stroke-dasharray:none;stroke-opacity:1"/><path d="M1461.366 914.893c.248-9.386.031-18.77-.217-28.154-.107-8.396-.656-16.776-1.027-25.162-.442-9.973-.698-19.956-1.016-29.933-.317-19.823-.781-39.642-1.258-59.461-.175-8.481-.741-16.948-.915-25.428l13.78-2.039c-.126 1.36-.317 2.716-.378 4.08-.318 7.096.115 14.216.087 21.312.062 6.037.066 12.074.128 18.111.143 13.783.45 27.564.735 41.344.696 18.323 1.77 36.625 2.847 54.93.528 9.276 1.04 18.558 1.678 27.828l-14.444 2.572z" style="opacity:1;fill:gray;fill-opacity:1;stroke:none;stroke-width:2.29999995;stroke-linecap:square;stroke-linejoin:miter;stroke-miterlimit:100;stroke-dasharray:none;stroke-opacity:1"/><path d="M1318.045 966.145c7.696-2.45 7.42-2.46 19.978-4.954 2.064-.41 4.183-.457 6.277-.662 7.904-.775 15.82-1.276 23.745-1.783 9.732-.854 19.499-.986 29.26-1.146l-10.797 8.964c-9.392-.218-18.784.077-28.16.635-7.995.614-16.005 1.186-23.944 2.357-2.14.315-7.733 2.805-6.395 1.106 1.527-1.939 4.77-1.28 7.121-2.028.921-.293-1.882.44-2.824.661l-14.26-3.15zM1488.576 837.776c8.103-.744 16.14-2.065 24.234-2.883 3.925-.397 10.24-.848 14.173-1.145 5.68-.355 11.36-.681 17.046-.882 3.884-.137 2.38-.164 5.56.04l-11.325 9.058c-7.072-.359-14.165.055-21.222.5-13.134 1.087-26.343 2.303-39.169 5.462l10.703-10.15z" style="opacity:1;fill:#000;fill-opacity:1;stroke:none;stroke-width:2.29999995;stroke-linecap:square;stroke-linejoin:miter;stroke-miterlimit:100;stroke-dasharray:none;stroke-opacity:1"/><path d="M1453.173 878.483c5.544 13.127 11.3 26.142 18.193 38.097.723 1.114 1.45 2.223 2.17 3.34.471.734.936 1.475 1.404 2.211.248.39.498.777.745 1.169.096.153.418.374.283.464-10.155 6.786-7.227 8.934-10.99 5.754-4.66-3.5 5.09-8.941 9.511-6.37.016.006.246.158.304.053.112-.202-.102-.48-.177-.707-.084-.255-.034-.846-.237-.773-3.174 1.144-6.23 2.818-9.346 4.227.165-.403.358-.789.496-1.21.855-2.61 1.548-5.305 2.331-7.953a815.558 815.558 0 0 1 6.742-21.717c3.009-8.333 1.564-4.461 4.305-11.634l10.62-.095c-2.906 6.942-1.399 3.19-4.477 11.29-3.439 10.27-6.704 20.742-9.064 31.522-9.095 4.922-8.177 8.495-11.598 2.809-2.452-4.717-.475-.376 9.53-6.842.224-.145-.405-.51.196-.199l.345.18c3.793 1.383 1.065.235-8.733 7.037-.098.069-.117-.248-.181-.368-.21-.393-.424-.784-.642-1.17-.426-.75-.858-1.493-1.29-2.237-.7-1.204-1.402-2.404-2.103-3.606-6.713-12.395-12.557-25.558-18.538-38.593l10.201-4.68z" style="opacity:1;fill:gray;fill-opacity:1;stroke:none;stroke-width:2.29999995;stroke-linecap:square;stroke-linejoin:miter;stroke-miterlimit:100;stroke-dasharray:none;stroke-opacity:1"/><path d="M595.043 1409.735c10.03-8.965 20.463-17.461 30.84-26.02 17.706-14.263 34.987-29.049 52.349-43.73 20.184-17.098 40.402-34.154 60.424-51.44 11.062-9.515 22.257-18.872 33.428-28.26 3.632-3.054 7.233-6.148 10.877-9.19 3.062-2.555 20.248-16.682 23.244-19.145 3.926-3.26 7.85-6.522 11.78-9.777 6.72-5.566 16.48-13.593 23.178-19.223 10.724-9.02 21.296-18.215 31.872-27.404 15.034-13.023 29.877-26.254 44.868-39.324 4.644-4.103 2.542-2.216 6.323-5.645l9.98 7.373c-4.085 3.22-1.836 1.438-6.738 5.355-15.472 12.579-30.437 25.747-45.638 38.649-10.68 9.16-21.342 18.346-32.14 27.37-7.804 6.522-15.389 12.695-23.222 19.184-3.935 3.26-7.854 6.54-11.781 9.809-22.584 18.675-45.095 37.448-67.296 56.578a5528.022 5528.022 0 0 1-60.29 51.615c-17.265 14.765-34.496 29.568-51.918 44.151-10.106 8.469-20.355 16.88-29.677 26.172l-10.463-7.098z" style="opacity:1;fill:#000;fill-opacity:1;stroke:none;stroke-width:2.29999995;stroke-linecap:square;stroke-linejoin:miter;stroke-miterlimit:100;stroke-dasharray:none;stroke-opacity:1"/><path d="M660.189 1374.728c1.617.097 3.233.228 4.851.292 4.36.175 8.225.15 12.609.162 8.098.027 16.196.063 24.295.104 21.513.13 43.025-.16 64.534-.503 11.035-.168 22.065-.574 33.099-.77 3.573-.063 7.147-.06 10.72-.12 5.934-.097 14.123-.326 20.082-.481 13.267-.384 26.506-1.39 39.772-1.79 2.06-.044 4.12-.06 6.18-.022l-11.349 9.173c-1.875-.08-3.75-.178-5.628-.174-12.848-.085-25.683.537-38.526.809-21.185.41-42.374.614-63.558 1.052-21.726.365-43.45.8-65.178.943-8.214.019-16.424.113-24.637.2-4.324.044-8.65-.01-12.973.054-1.807.026-3.612.114-5.418.172l11.125-9.102z" style="opacity:1;fill:gray;fill-opacity:1;stroke:none;stroke-width:2.29999995;stroke-linecap:square;stroke-linejoin:miter;stroke-miterlimit:100;stroke-dasharray:none;stroke-opacity:1" transform="rotate(.248 -5196.693 4170.212) scale(.97978)"/><path d="M853.182 1355.756c6.88 3.46 14.117 6.163 21.32 8.838 7.28 2.829 14.828 5.038 21.867 8.478.385.221.857.332 1.155.664.992 1.104 2.015 4.802.55 5.656-5.583 3.256-12.785 3.9-19.163 4.935-1.3.27-2.602.53-3.9.81-1.451.315-2.902.634-4.348.976-1.555.367-6.203 1.548-4.654 1.152 13.2-3.375 6.523-1.697 3.128-.61-.963.309-1.907.675-2.86 1.012l-13.52-3.281c1.05-.422 2.082-.892 3.15-1.264a58.996 58.996 0 0 1 3.999-1.227c9.678-2.62 19.38-5.166 29.198-7.19 1.09-.235 2.185-.454 3.272-.706.768-.178 3.04-.83 2.291-.582-3.621 1.195-7.745 1.275-10.912 3.428-.957.65.525 2.285.857 3.409.075.255.6.605.36.71-.298.131-.557-.334-.835-.502-6.687-3.485-13.873-5.823-20.898-8.476-4.199-1.532-5.481-1.983-9.596-3.546-3.548-1.346-7.07-2.774-10.628-4.094-.66-.245-1.332-.458-1.999-.687l12.166-7.903z" style="opacity:1;fill:gray;fill-opacity:1;stroke:none;stroke-width:2.29999995;stroke-linecap:square;stroke-linejoin:miter;stroke-miterlimit:100;stroke-dasharray:none;stroke-opacity:1" transform="rotate(.248 -5196.693 4170.212) scale(.97978)"/><ellipse cx="642.492" cy="-1374.485" rx="17.524" ry="16.92" style="opacity:1;fill:#000;fill-opacity:1;stroke:none;stroke-width:2.29999995;stroke-linecap:square;stroke-linejoin:miter;stroke-miterlimit:100;stroke-dasharray:none;stroke-opacity:1" transform="scale(1 -1)"/><ellipse cx="880.383" cy="-1176.495" rx="17.524" ry="16.92" style="opacity:1;fill:#000;fill-opacity:1;stroke:none;stroke-width:2.29999995;stroke-linecap:square;stroke-linejoin:miter;stroke-miterlimit:100;stroke-dasharray:none;stroke-opacity:1" transform="scale(1 -1)"/><path d="M555.103 1347.122c-1.067 4.466-1.373 9.063-1.37 13.643.002 4.944.17 8.5 1.148 13.362.405 2.013 1.063 3.966 1.595 5.95 1.847 3.498 2.548 5.83 5.739 8.28 1.14.876 4.95 2.874 3.846 1.953-1.376-1.146-4.231-.91-4.676-2.645-.35-1.367 2.77.586 4.178.703 1.332.11 2.672-.016 4.009-.025l3.198-.434 8.355 7.626-3.581.604c-2.159.183-7.07.8-9.185.144-5.393-1.671-12.865-3.796-17.14-8.473-2.975-3.253-3.575-5.736-5.28-9.786-.466-2.099-1.038-4.177-1.4-6.296-1.595-9.307-1.518-19.157-.436-28.523l11 3.917zM588.839 1338.21c-.802 8.921-2.11 17.785-3.256 26.667-.422 3.443-.78 6.88-.752 10.349l-11.25-2.638c.433-3.487 1-6.954 1.46-10.438 1.16-8.875 2.46-17.772 2.353-26.746l11.445 2.805z" style="opacity:1;fill:#000;fill-opacity:1;stroke:none;stroke-width:2.29999995;stroke-linecap:square;stroke-linejoin:miter;stroke-miterlimit:100;stroke-dasharray:none;stroke-opacity:1"/><path d="M556.76 1354.029c9.532-2.797 19.593-2.377 29.409-2.032 4.143.195 8.282.468 12.42.743l8.216 7.719c-4.179-.367-8.353-.806-12.546-.977-9.296-.67-18.85-1.279-27.94 1.234l-9.558-6.687zM626.625 1304.12c.476 1.176.842 2.402 1.427 3.527 1.384 2.66 3.66 6.096 5.995 8.045 2.105 1.757 4.577 2.943 7.387 2.381 1.133-.226 2.063-1.039 3.094-1.559-2.187.25-4.71 1.937-6.561.746-1.171-.752 1.708-2.226 2.296-3.487 1.959-4.202 2.295-9.023 2.022-13.577-.057-.949-.247-1.884-.37-2.827-.102-.472-.751-1.228-.306-1.416 3.667-1.545 7.509-2.983 11.477-3.29.835-.063.582 1.573.933 2.333.438.95.907 1.888 1.43 2.793 2.168 3.745 2.732 4.233 5.47 7.834 3.176 4.118 7.097 7.607 10.222 11.766.856 1.14 1.754 2.276 2.35 3.57 1.587 3.454 1.08 4.265.814 7.867-.598 1.273-.993 2.662-1.794 3.817-1.735 2.502-4.454 4.5-7.011 6.048-1.2.725-2.417 1.465-3.746 1.91-4.18 1.4-8.485 2.403-12.727 3.605l8.113-7.92c-2.11.676-4.18 1.496-6.331 2.03-1.283.319 2.516-.83 3.717-1.382 2.02-.928 5.05-2.7 6.703-4.282.72-.688 1.215-1.577 1.822-2.366.207-.834.621-1.642.62-2.501-.005-2.443-1.301-4.167-2.684-6.056-3.09-4.221-6.965-7.798-10.167-11.926-1.128-1.44-2.297-2.847-3.384-4.318-2.86-3.869-2.186-3.198-4.403-6.763-.262-.421-1.272-1.005-.832-1.235a44.774 44.774 0 0 1 10.848-3.989c.504-.113.012 1.033.019 1.55.344 6.244.318 12.598-1.757 18.591-.583 1.682-.768 3.818-2.21 4.862-3.759 2.723-8.414 3.92-12.62 5.88-1.374.079-2.761.435-4.123.234-7.03-1.036-11.623-7.859-14.897-13.47-.779-1.335-1.418-2.748-2.127-4.122l11.29-2.903zM791.14 1139.118c-.446 1.21-.986 2.39-1.337 3.632-2.39 8.458-3.134 18.08-1.412 26.732.434 2.183 1.225 4.28 1.838 6.42 1.034 1.931 1.87 3.983 3.102 5.796 2.202 3.237 5.068 5.947 8.23 8.216 1.87 1.342 3.874 2.467 6.156 2.897.627.118 1.276.01 1.913.014 3.497-.835 14.444-3.708-1.081.25l11.177 2.74c-2.307.647-12.346 4.153-17.078 4.099-.796-.01-1.582-.18-2.373-.27-.742-.267-1.51-.466-2.225-.799-5.63-2.62-11.482-8.551-14.74-13.668-1.306-2.049-2.21-4.327-3.314-6.491-.64-2.322-1.462-4.6-1.92-6.964-.468-2.425-.7-4.895-.85-7.36-.51-8.361.627-16.642 2.157-24.837l11.757-.407z" style="opacity:1;fill:#000;fill-opacity:1;stroke:none;stroke-width:2.29999995;stroke-linecap:square;stroke-linejoin:miter;stroke-miterlimit:100;stroke-dasharray:none;stroke-opacity:1"/><path d="M801.129 1152.172c1.133.14 2.263.315 3.4.419 3.553.326 7.244.451 10.797.623 6.816.33 13.631.577 20.45.845 4.309.226 8.617.467 12.926.691l-8.988 7.075c-4.071-.466-8.152-.836-12.245-1.053-6.844-.314-13.687-.545-20.534-.761-3.74-.119-7.478-.3-11.22-.358-1.205-.02-2.411.019-3.617.029l9.03-7.51z" style="opacity:1;fill:#000;fill-opacity:1;stroke:none;stroke-width:2.29999995;stroke-linecap:square;stroke-linejoin:miter;stroke-miterlimit:100;stroke-dasharray:none;stroke-opacity:1"/><path d="M827.687 1141.369a1053.693 1053.693 0 0 0-3.563 32.138l-10.886 1.466c1.657-10.502 3.061-21.093 3.11-31.743l11.339-1.861zM838.558 1150.15c1.258-2.094 2.675-4.103 4.4-5.843.511-.516 2.258-2.125 3.096-2.386 2.088-.648 4.256-.997 6.384-1.496.459.424 1.023.758 1.376 1.273 1.429 2.08 1.499 5.04 1.52 7.434.024 2.83-.144 4.745-.317 7.588-.214 3.014-.448 6.027-.625 9.044-.044.748-.111 1.533-.092 2.289-1.91.02-3.825.21-5.728.062-.188-.015.193-.323.286-.486.154-.271.284-.557.454-.818.861-1.32 1.944-2.493 2.983-3.67 3.31-3.404 6.897-6.53 10.474-9.65.675-.578 1.398-1.092 2.102-1.632l5.903.77c-.723.536-1.447 1.072-2.23 1.519-3.652 2.924-7.087 6.125-10.45 9.374a63.811 63.811 0 0 0-2.864 3.386c-.144.182-.324.34-.44.54-.12.21-.024.624-.26.677-2.015.456-4.1.515-6.15.772.176-.721.228-1.56.304-2.278.317-3.004.555-6.017.79-9.029.197-3.346.307-4.087.25-7.373-.025-1.42.006-4.549-1.104-5.767-.136-.15-.392-.1-.588-.15 1.25-.424 2.497-.862 3.752-1.274.492-.162-1.011.273-1.465.524-2.608 1.444-4.338 4.101-5.906 6.528l-5.855.073zM870.148 1133.767c2.084 3.765 3.538 7.842 5.014 11.873l-5.478 1.622c-1.332-3.882-2.686-7.828-4.954-11.282l5.418-2.213zM899.528 1104.486c1.762-2.723 3.772-5.414 6.455-7.303.418-.294.875-.527 1.312-.79 2.456-1.066 3.456-1.607 7.182-1.509.532.014.766.754 1.04 1.21 1.127 1.877 1.17 4.232 1.359 6.33.257 4.936-.18 9.873-.428 14.801-.117 3.035.563 2.05-5.63 1.312-.252-.03.406-.305.608-.459.277-.21.553-.423.83-.634 4.115-3.215 8.101-6.593 12.202-9.83 1.37-1.103 2.848-2.06 4.259-3.108l5.86 1.065c-1.649.577-2.974 1.873-4.444 2.761-4.141 3.138-8.135 6.467-12.032 9.903-.265.184-.537.358-.794.554-.2.152-.326.457-.575.488-6.892.85-6.372 2.16-6.074-1.158.409-4.823.899-9.671.59-14.515-.146-1.438-.178-2.662-.608-4.031-.104-.33-.238-.664-.451-.937-.079-.1-.488-.069-.367-.109 1.412-.464 2.88-.738 4.298-1.182.347-.11-.72.116-1.08.174-.428.157-.877.267-1.285.472-2.741 1.37-4.706 4.02-6.34 6.513l-5.887-.017zM865.408 1104.867c.51 4.297 1.84 8.699 4.878 11.933.806.857 1.713 1.663 2.758 2.205.903.468 1.971.506 2.957.759.945-.318 3.834-.947 2.836-.954-2.245-.016-4.575 1.732-6.67.926-1.122-.43 1.88-1.533 2.61-2.487 1.645-2.15 2.724-5.046 3.292-7.653.28-1.279.305-2.6.457-3.901-.054-1.03-.038-2.068-.163-3.093a8.862 8.862 0 0 0-.447-1.926c-.076-.21-.653-.483-.431-.515 3.76-.546 7.613-.376 11.35-1.068.343-.064-.22-1.241.069-1.045.515.348.563 1.11.845 1.664 3.588 5.549 9.094 9.436 13.552 14.22.956 1.026 1.805 2.145 2.707 3.217.626 1.158 1.42 2.24 1.876 3.474 1.306 3.525 1.143 7.539-.658 10.86-1.517 2.795-2.734 3.452-5.084 5.432-3.354 2.048-1.743 1.185-4.794 2.658l-11.238-2.664c3.091-.662 1.471-.176 4.822-1.582 2.064-1.154 3.372-1.635 4.933-3.469a7.578 7.578 0 0 0 1.377-7.484c-.355-1-1.01-1.865-1.513-2.798-.828-.979-1.607-2-2.482-2.935-4.744-5.08-10.603-9.189-14.399-15.106-.246-.445-3.11-5.07-1.905-5.584 13.107-5.598 12.428-1.981 12.626 6.195-.156 1.505-.197 3.026-.467 4.515-.562 3.095-1.604 6.472-3.16 9.229-.749 1.326-1.323 2.99-2.665 3.71-10.366 5.553-9.48 5.076-16.822 4.21-1.165-.633-2.435-1.106-3.497-1.902-5.18-3.882-7.576-10.355-8.995-16.412l11.445-2.629zM883.231 1058.69c5.096.111 10.211.41 15.209 1.49 4.493.973 6.069 1.66 10.405 3.153 6.966 2.971 12.65 5.904 16.774 12.568 2.223 3.592 2.077 4.414 2.97 8.369.165 4.455.256 2.362-.161 6.283l-11.414 1.398c.73-3.09.472-1.434.672-4.985-.202-1.11-.248-2.258-.604-3.328-2.614-7.852-10.173-11.464-17.322-14.224-1.656-.508-3.29-1.094-4.968-1.522-5.427-1.385-11.945-2.155-17.555-1.561-.834.088-1.649.308-2.473.462l8.467-8.103zM636.601 1330.526c3.037 1.895 4.397 3.481 4.53 7.297.087 2.465-.485 4.13-1.052 6.498-1.106 3.823-.571 2.01-1.598 5.442l-5.73.433c1.104-3.38.542-1.6 1.676-5.342.669-2.517 1.674-5.341.78-7.961-.582-1.706-2.128-2.514-3.62-3.252l5.014-3.115z" style="opacity:1;fill:#000;fill-opacity:1;stroke:none;stroke-width:2.29999995;stroke-linecap:square;stroke-linejoin:miter;stroke-miterlimit:100;stroke-dasharray:none;stroke-opacity:1"/><path d="M884.904 1371.607c.263-9.552.117-19.105-.056-28.656-.053-8.545-.497-17.077-.783-25.613-.341-10.152-.518-20.314-.75-30.47-.184-20.177-.497-40.35-.822-60.524-.113-8.632-.57-17.252-.683-25.884l12.147-2.01c-.118 1.383-.293 2.762-.353 4.15-.314 7.221.033 14.469-.026 21.69.026 6.145 0 12.29.026 18.435.06 14.028.262 28.056.448 42.082.524 18.652 1.382 37.283 2.242 55.918.42 9.444.826 18.894 1.343 28.33l-12.733 2.552z" style="opacity:1;fill:gray;fill-opacity:1;stroke:none;stroke-width:2.29999995;stroke-linecap:square;stroke-linejoin:miter;stroke-miterlimit:100;stroke-dasharray:none;stroke-opacity:1" transform="rotate(1.333 887.574 1162.356)"/><path d="M860.616 1237.683c3.723-8.622 7.185-17.353 10.855-25.998 2.331-5.402 4.546-10.884 7.582-15.939 3.287-4.802 2.082-3.561 14.299-5.332.82-.119 3.355 5.17 3.799 6.021.357.642.685 1.302 1.073 1.927 1.312 2.116 2.23 3.222 3.802 5.258 1.953 2.53 3.532 4.598 5.631 7.027.977 1.13 2.007 2.213 3.01 3.32 2.185 2.24 4.34 4.5 6.625 6.636l-13.198 5.774c-2.072-2.343-4.119-4.708-6.203-7.04-5.109-5.846-10.322-11.692-14.576-18.202-.27-.443-.528-.892-.808-1.328-.154-.24-.284-.502-.491-.696-.049-.046-.21-.015-.194.054.106.411.094 1.259.51 1.168 3.87-.844 16.796-5.352 11.302-3.678-.34.31-.722.58-1.017.931-.782.931-1.972 2.983-2.503 3.944-1.774 3.21-3.245 6.573-4.853 9.865-3.823 8.366-7.3 16.904-10.122 25.662l-14.523.627z" style="opacity:1;fill:gray;fill-opacity:1;stroke:none;stroke-width:2.29999995;stroke-linecap:square;stroke-linejoin:miter;stroke-miterlimit:100;stroke-dasharray:none;stroke-opacity:1" transform="rotate(1.333 887.574 1162.356)"/><path d="M723.008 1414.891c7.696-2.45 7.42-2.46 19.977-4.954 2.064-.41 4.184-.457 6.278-.662 7.903-.774 15.82-1.276 23.744-1.783 9.732-.854 19.5-.986 29.26-1.146l-10.797 8.964c-9.391-.218-18.784.077-28.16.635-7.995.614-16.004 1.186-23.943 2.357-2.14.316-7.734 2.806-6.395 1.106 1.527-1.939 4.769-1.28 7.12-2.027.922-.293-1.882.44-2.823.66l-14.261-3.15z" style="opacity:1;fill:#000;fill-opacity:1;stroke:none;stroke-width:2.29999995;stroke-linecap:square;stroke-linejoin:miter;stroke-miterlimit:100;stroke-dasharray:none;stroke-opacity:1"/><path d="M774.032 1387.553c1.839 5.778 1.79 11.95 1.976 17.946.398 12.743.007 2.095.511 14.983a362.2 362.2 0 0 0 1.299 17.988l-13.506 2.694c-.21-6.072-.36-12.147-.661-18.216-.208-4.586-.435-10.266-.76-14.858-.332-4.675-.593-9.611-2.04-14.12-.204-.637-.53-1.23-.795-1.844l13.976-4.572zM907.738 1286.522c8.103-.744 16.14-2.065 24.234-2.883 3.925-.397 10.24-.848 14.174-1.145 5.679-.355 11.36-.68 17.046-.882 3.883-.137 2.38-.164 5.56.04l-11.326 9.057c-7.072-.358-14.164.055-21.222.5-13.133 1.087-26.343 2.304-39.169 5.463l10.703-10.15z" style="opacity:1;fill:#000;fill-opacity:1;stroke:none;stroke-width:2.29999995;stroke-linecap:square;stroke-linejoin:miter;stroke-miterlimit:100;stroke-dasharray:none;stroke-opacity:1"/><path d="M940.054 1258.954c.025 1.12.07 2.238.075 3.357.01 2.898-.108 8.538-.138 11.238-.074 6.685-.124 13.37-.1 20.056-.066 5.637.11 11.264.922 16.844l-14.038 2.92c-.228-5.817-.27-11.635-.051-17.454.11-7.927.112-5.298.068-13.454-.03-5.765-.011-11.563-.568-17.309-.1-1.026-.29-2.04-.435-3.061l14.265-3.137z" style="opacity:1;fill:#000;fill-opacity:1;stroke:none;stroke-width:2.29999995;stroke-linecap:square;stroke-linejoin:miter;stroke-miterlimit:100;stroke-dasharray:none;stroke-opacity:1"/><path d="M605.674 1341.137a677.444 677.444 0 0 1 10.167 10.588c1.94 1.919 3.735 3.978 5.647 5.923.748.76 1.534 1.484 2.283 2.244l.163.193-6.364 2.841-.058-.1c-.628-.818-1.327-1.565-2.012-2.336-1.793-2.018-3.578-4.044-5.469-5.972-3.427-3.544-6.852-7.093-10.547-10.362l6.19-3.019zM668.868 1291.67c3.131 4.395 6.679 8.475 10.292 12.476 2.394 2.522 4.869 4.97 7.454 7.298.743.67 1.562 1.458 2.445 1.972-6.412 2.876-4.645 4.417-6.46 2.79l6.332-2.929c1.448 2.03.165.124-6.041 3.316-.685-.78-1.426-1.517-2.15-2.258-2.43-2.492-4.885-4.958-7.286-7.478-3.746-4.02-7.41-8.115-10.874-12.381l6.288-2.806zM642.978 1251.965c.636-.05 1.27-.134 1.907-.15 10.072-.245 20.715 3.381 30.136 5.923 1.541.643 3.114 1.212 4.622 1.928 1.522.722 2.998 1.539 4.456 2.382 3.24 1.872 5.04 3.025 7.723 5.648 2.886 2.822 3.34 3.863 5.544 7.163 1.826 3.528 2.947 7.255 2.997 11.244.035 2.728-.59 5.163-1.36 7.738-.67 1.763-.475 1.284-1.096 2.802-.103.252-.237.492-.313.754-.012.044.104-.03.116-.075.154-.593.248-1.2.372-1.8l-12.93.616c.02-.663-.017-1.33.058-1.99.074-.651.34-.793.654-1.31.547-.898.75-1.392 1.229-2.385.821-2.143 1.483-4.124 1.48-6.471-.004-3.504-1.155-6.724-2.877-9.736-2.185-2.976-2.613-3.891-5.446-6.372-3.5-3.065-7.754-5.408-12.032-7.185-1.52-.632-3.101-1.11-4.652-1.664 1.942.483 3.934.802 5.828 1.45 1.395.477-2.875-.659-4.324-.936-3.68-.704-7.456-1.265-11.211-1.023l-10.88-6.55z" style="opacity:1;fill:#000;fill-opacity:1;stroke:none;stroke-width:.1;stroke-linecap:square;stroke-linejoin:miter;stroke-miterlimit:4;stroke-dasharray:none;stroke-opacity:1"/><path d="M1365.784 702.411c-2.028 4.12-3.343 8.535-4.354 13.003-1.09 4.822-1.713 8.327-1.835 13.285-.05 2.053.16 4.103.24 6.155 1.028 3.82 1.196 6.25 3.766 9.344.918 1.107 4.192 3.898 3.319 2.756-1.088-1.422-3.925-1.823-3.975-3.613-.04-1.412 2.572 1.184 3.919 1.608 1.274.402 2.61.575 3.915.863l3.215.284 6.46 9.285-3.624-.203c-2.146-.299-7.072-.783-8.99-1.89-4.89-2.823-11.707-6.548-14.842-12.055-2.181-3.83-2.217-6.384-2.984-10.71.01-2.15-.09-4.304.026-6.45.504-9.43 2.756-19.02 5.883-27.914l9.861 6.252zM1394.94 695.753c-.802 8.922-2.11 17.785-3.256 26.667-.421 3.443-.779 6.88-.751 10.349l-11.25-2.638c.432-3.487 1-6.954 1.459-10.438 1.16-8.875 2.46-17.772 2.353-26.746l11.445 2.806z" style="opacity:1;fill:#000;fill-opacity:1;stroke:none;stroke-width:2.29999995;stroke-linecap:square;stroke-linejoin:miter;stroke-miterlimit:100;stroke-dasharray:none;stroke-opacity:1"/><path d="M1362.863 711.572c9.531-2.797 19.591-2.377 29.407-2.032 4.143.195 8.282.469 12.42.743l8.217 7.719c-4.179-.367-8.353-.806-12.547-.977-9.296-.67-18.849-1.279-27.939 1.234l-9.558-6.687zM1432.726 661.663c.476 1.176.842 2.402 1.428 3.527 1.384 2.66 3.66 6.096 5.995 8.045 2.104 1.757 4.576 2.943 7.387 2.381 1.132-.226 2.062-1.039 3.093-1.559-2.187.25-4.71 1.937-6.56.746-1.171-.752 1.708-2.226 2.296-3.487 1.959-4.202 2.295-9.023 2.021-13.577-.057-.949-.246-1.884-.37-2.827-.102-.472-.75-1.228-.305-1.416 3.667-1.545 7.509-2.983 11.477-3.289.834-.064.582 1.572.932 2.332.439.95.907 1.888 1.432 2.793 2.167 3.745 2.73 4.233 5.468 7.834 3.177 4.118 7.098 7.607 10.223 11.766.856 1.14 1.754 2.276 2.35 3.571 1.587 3.453 1.08 4.264.814 7.866-.598 1.273-.993 2.662-1.795 3.818-1.735 2.5-4.453 4.498-7.01 6.047-1.2.725-2.417 1.466-3.746 1.91-4.181 1.4-8.485 2.403-12.728 3.605l8.114-7.92c-2.11.676-4.18 1.496-6.331 2.03-1.283.319 2.515-.83 3.717-1.382 2.02-.928 5.05-2.7 6.703-4.282.72-.688 1.214-1.577 1.822-2.366.206-.834.621-1.642.62-2.5-.01-2.444-1.301-4.168-2.684-6.057-3.09-4.221-6.965-7.798-10.167-11.926-1.128-1.44-2.298-2.847-3.384-4.318-2.86-3.869-2.186-3.198-4.404-6.763-.262-.421-1.271-1.005-.831-1.235a44.775 44.775 0 0 1 10.848-3.989c.504-.113.013 1.033.019 1.55.344 6.244.318 12.598-1.758 18.591-.582 1.682-.768 3.818-2.21 4.862-3.758 2.723-8.413 3.92-12.62 5.88-1.374.079-2.76.435-4.122.234-7.03-1.036-11.623-7.859-14.897-13.47-.78-1.335-1.418-2.748-2.127-4.122l11.29-2.903z" style="opacity:1;fill:#000;fill-opacity:1;stroke:none;stroke-width:2.29999995;stroke-linecap:square;stroke-linejoin:miter;stroke-miterlimit:100;stroke-dasharray:none;stroke-opacity:1"/><path d="M1442.703 688.07c3.036 1.894 4.396 3.48 4.53 7.296.086 2.465-.486 4.131-1.052 6.498-1.106 3.823-.572 2.01-1.599 5.442l-5.729.433c1.103-3.38.541-1.6 1.676-5.342.669-2.517 1.673-5.341.78-7.961-.582-1.706-2.129-2.514-3.621-3.252l5.015-3.115z" style="opacity:1;fill:#000;fill-opacity:1;stroke:none;stroke-width:2.29999995;stroke-linecap:square;stroke-linejoin:miter;stroke-miterlimit:100;stroke-dasharray:none;stroke-opacity:1"/><path d="M1411.775 698.68a677.63 677.63 0 0 1 10.168 10.588c1.94 1.919 3.734 3.978 5.647 5.923.748.76 1.534 1.484 2.283 2.244l.163.193-6.365 2.841-.058-.1c-.628-.818-1.327-1.565-2.011-2.336-1.794-2.018-3.578-4.044-5.47-5.972-3.427-3.544-6.851-7.092-10.547-10.362l6.19-3.019zM1474.97 649.213c3.131 4.395 6.678 8.475 10.292 12.476 2.394 2.522 4.868 4.97 7.453 7.298.744.67 1.562 1.458 2.445 1.972-6.412 2.876-4.644 4.417-6.459 2.79l6.332-2.929c1.447 2.03.164.124-6.041 3.316-.686-.779-1.426-1.517-2.15-2.258-2.43-2.492-4.886-4.958-7.287-7.478-3.745-4.02-7.409-8.115-10.873-12.381l6.288-2.806zM1449.08 609.508c.636-.05 1.27-.134 1.907-.15 10.071-.245 20.715 3.381 30.136 5.923 1.54.643 3.114 1.212 4.622 1.928 1.521.722 2.997 1.539 4.456 2.382 3.24 1.872 5.039 3.025 7.722 5.648 2.887 2.822 3.34 3.863 5.545 7.163 1.826 3.528 2.947 7.255 2.997 11.244.034 2.728-.59 5.163-1.361 7.738-.67 1.763-.474 1.284-1.095 2.802-.103.252-.237.492-.313.754-.013.044.104-.03.116-.075.154-.593.247-1.2.371-1.8l-12.929.616c.02-.663-.018-1.33.057-1.99.074-.651.34-.793.655-1.309.547-.9.75-1.393 1.229-2.386.821-2.143 1.482-4.124 1.48-6.471 0-3.504-1.155-6.724-2.877-9.736-2.185-2.976-2.614-3.891-5.447-6.372-3.5-3.065-7.753-5.408-12.031-7.185-1.521-.632-3.102-1.11-4.652-1.664 1.942.483 3.933.802 5.828 1.45 1.395.477-2.875-.659-4.324-.936-3.68-.704-7.456-1.265-11.211-1.023l-10.881-6.55z" style="opacity:1;fill:#000;fill-opacity:1;stroke:none;stroke-width:.1;stroke-linecap:square;stroke-linejoin:miter;stroke-miterlimit:4;stroke-dasharray:none;stroke-opacity:1"/><path d="M1465.119 931.997c-1.51-.097-3.018-.228-4.529-.292-4.07-.175-7.676-.15-11.767-.162-7.559-.027-15.117-.063-22.676-.104-20.078-.13-40.156.16-60.232.503-10.298.168-20.593.574-30.891.77-3.335.063-6.67.06-10.005.12-5.539.097-13.182.326-18.743.481-12.383.384-24.74 1.39-37.12 1.79-1.924.044-3.846.06-5.769.022l10.592-9.173c1.75.08 3.5.178 5.253.174 11.992.085 23.97-.537 35.958-.809 19.772-.41 39.548-.613 59.32-1.052 20.277-.365 40.553-.799 60.832-.943 7.667-.019 15.33-.113 22.995-.199 4.036-.045 8.072.01 12.108-.055 1.686-.026 3.371-.114 5.057-.171l-10.383 9.101z" style="opacity:1;fill:gray;fill-opacity:1;stroke:none;stroke-width:2.29999995;stroke-linecap:square;stroke-linejoin:miter;stroke-miterlimit:100;stroke-dasharray:none;stroke-opacity:1"/><path d="M1286.536 950.97c-6.881-3.462-14.117-6.164-21.32-8.839-7.28-2.829-14.828-5.038-21.867-8.478-.385-.221-.857-.332-1.156-.664-.992-1.104-2.014-4.802-.549-5.656 5.583-3.256 12.784-3.9 19.162-4.935 1.3-.27 2.603-.53 3.9-.81 1.452-.315 2.903-.634 4.349-.976 1.555-.367 6.203-1.548 4.654-1.152-13.2 3.375-6.523 1.697-3.128.61.962-.309 1.907-.675 2.86-1.012l13.52 3.282c-1.05.42-2.082.891-3.15 1.263a58.998 58.998 0 0 1-3.999 1.227c-9.678 2.62-19.38 5.166-29.198 7.19-1.09.235-2.185.454-3.273.706-.767.178-3.04.83-2.29.582 3.62-1.195 7.745-1.274 10.912-3.428.957-.65-.525-2.285-.857-3.409-.075-.255-.6-.605-.36-.71.297-.131.557.334.835.502 6.687 3.485 13.873 5.823 20.898 8.476 4.199 1.532 5.48 1.983 9.596 3.546 3.548 1.346 7.07 2.774 10.628 4.094.66.245 1.332.458 1.998.687l-12.165 7.903z" style="opacity:1;fill:gray;fill-opacity:1;stroke:none;stroke-width:2.29999995;stroke-linecap:square;stroke-linejoin:miter;stroke-miterlimit:100;stroke-dasharray:none;stroke-opacity:1"/></g></svg>