<svg xmlns="http://www.w3.org/2000/svg" width="466.97" height="418.406" viewBox="0 0 437.785 392.255"><g style="display:inline"><path d="M218.723 329.803c-1.142 13.29-.704 26.626-.603 39.942.029 6.584-.224 13.164-.35 19.745.005.125.006.25.01.375l-13.903 1.472.072-.115c.782-6.455.57-13.004.799-19.487.054-13.37-.212-26.74.325-40.103l13.65-1.829z" style="opacity:1;fill:#000;fill-opacity:1;stroke:none;stroke-width:2.29999995;stroke-linecap:square;stroke-linejoin:miter;stroke-miterlimit:100;stroke-dasharray:none;stroke-opacity:1" transform="translate(-26.517)"/><path d="M184.935 353.426c17.457.079 34.892.716 52.35.563 3.847-.083 6.735-.112 10.44-.289.668-.031 1.356-.306 2.004-.136.488.128.775.645 1.163.968l-11.957 7.182c-.002 1.147.168.5-1.915.495-3.39-.01-6.779.002-10.168-.014-17.53-.054-35.07-.806-52.594-.109l10.677-8.66z" style="opacity:1;fill:#000;fill-opacity:1;stroke:none;stroke-width:2.29999995;stroke-linecap:square;stroke-linejoin:miter;stroke-miterlimit:100;stroke-dasharray:none;stroke-opacity:1" transform="translate(-26.517)"/><path d="M57.477 66.407c-1.276-.195-2.54-.489-3.826-.584-8.766-.65-18.343.544-26.475 3.961-2.052.862-3.948 2.056-5.922 3.084-1.686 1.4-3.53 2.63-5.06 4.199-2.731 2.804-4.814 6.154-6.404 9.706-.94 2.102-1.643 4.29-1.607 6.611.01.638.245 1.252.368 1.878 1.517 3.259 6.521 13.41-.462-1.01l-.449 11.5C6.545 103.62 1.102 94.484.21 89.837c-.15-.782-.14-1.587-.21-2.38.112-.78.154-1.573.337-2.339 1.44-6.04 6.083-12.96 10.445-17.176 1.747-1.688 3.799-3.03 5.698-4.544 2.146-1.091 4.215-2.353 6.44-3.273 2.282-.944 4.656-1.665 7.04-2.305 8.09-2.171 16.432-2.713 24.767-2.852l2.75 11.438z" style="opacity:1;fill:#000;fill-opacity:1;stroke:none;stroke-width:2.29999995;stroke-linecap:square;stroke-linejoin:miter;stroke-miterlimit:100;stroke-dasharray:none;stroke-opacity:1" transform="translate(282.211 145.84)"/><path d="M46.684 78.804c.09 1.138.144 2.28.269 3.416.39 3.546 1.006 7.187 1.548 10.703 1.039 6.744 2.16 13.472 3.261 20.205.64 4.268 1.265 8.537 1.907 12.804l-8.73-7.392c-.357-4.082-.81-8.155-1.416-12.208-1.06-6.768-2.202-13.52-3.36-20.272-.63-3.688-1.201-7.387-1.892-11.065-.222-1.185-.502-2.358-.751-3.538l9.164 7.347z" style="opacity:1;fill:#000;fill-opacity:1;stroke:none;stroke-width:2.29999995;stroke-linecap:square;stroke-linejoin:miter;stroke-miterlimit:100;stroke-dasharray:none;stroke-opacity:1" transform="translate(282.211 145.84)"/><path d="M62.578 102.666a1053.396 1053.396 0 0 0-32.201 2.935l-3.614-10.374c10.622-.476 21.28-1.218 31.724-3.3l4.091 10.739zM56.148 115.073c2.303.814 4.554 1.801 6.605 3.143.607.398 2.533 1.787 2.956 2.557 1.052 1.916 1.828 3.97 2.742 5.955-.323.535-.537 1.154-.971 1.604-1.754 1.815-4.64 2.476-6.98 2.975-2.769.589-4.679.807-7.499 1.206-2.996.393-5.995.766-8.986 1.196-.742.107-1.524.198-2.261.367-.401-1.867-.97-3.705-1.206-5.6-.023-.186.355.125.533.183.297.097.603.167.893.282 1.465.58 2.83 1.406 4.19 2.19 3.998 2.562 7.778 5.451 11.55 8.332.702.545 1.35 1.152 2.02 1.734l.426 5.937c-.67-.6-1.34-1.203-1.934-1.881-3.595-2.994-7.418-5.72-11.274-8.364a63.758 63.758 0 0 0-3.89-2.13c-.208-.105-.398-.25-.618-.322-.23-.076-.616.1-.715-.12-.85-1.884-1.324-3.915-1.986-5.872.742.028 1.573-.09 2.292-.158 3.008-.29 6.007-.659 9.005-1.03 3.318-.477 4.066-.518 7.275-1.23 1.385-.309 4.458-.9 5.43-2.235.12-.163.019-.404.028-.606.666 1.14 1.345 2.274 2 3.421.256.45-.47-.936-.807-1.33-1.936-2.267-4.886-3.43-7.577-4.482l-1.242-5.722zM78.516 142.75c-3.273 2.795-6.976 5.034-10.63 7.287l-2.685-5.043c3.537-2.082 7.132-4.197 10.063-7.11l3.252 4.866zM113.08 165.683c3.02 1.182 6.058 2.613 8.445 4.864.372.35.692.752 1.038 1.127 1.535 2.194 2.265 3.066 2.913 6.736.093.524-.585.901-.977 1.26-1.614 1.48-3.913 1.994-5.93 2.598-4.786 1.238-9.71 1.798-14.588 2.54-2.998.492-1.897.961-2.41-5.255-.022-.253.38.337.57.504.262.23.525.458.787.686 3.973 3.39 8.08 6.62 12.07 9.992 1.356 1.122 2.59 2.378 3.898 3.55l.129 5.956c-.896-1.5-2.43-2.54-3.595-3.803-3.902-3.43-7.962-6.677-12.108-9.809-.234-.222-.459-.454-.702-.667-.189-.166-.513-.228-.593-.466-2.21-6.582-3.39-5.81-.08-6.183 4.808-.564 9.656-1.053 14.34-2.324 1.38-.43 2.573-.706 3.828-1.4.303-.169.603-.367.828-.63.083-.098-.03-.492.034-.382.736 1.29 1.3 2.674 2.018 3.975.176.319-.258-.682-.387-1.023-.24-.388-.437-.806-.719-1.165-1.891-2.412-4.88-3.807-7.65-4.91l-1.16-5.771zM105.884 132.327c-4.108 1.359-8.155 3.542-10.716 7.166-.679.96-1.287 2.01-1.609 3.143-.278.978-.101 2.032-.152 3.049.5.863 1.694 3.567 1.501 2.588-.433-2.202-2.611-4.136-2.241-6.35.198-1.185 1.878 1.535 2.959 2.06 2.435 1.182 5.489 1.66 8.156 1.696 1.31.018 2.61-.222 3.914-.332 1-.26 2.019-.452 2.998-.779a8.88 8.88 0 0 0 1.798-.823c.191-.116.343-.736.419-.526 1.286 3.576 1.89 7.385 3.315 10.907.131.324 1.172-.463 1.038-.141-.239.575-.975.774-1.462 1.161-4.72 4.625-7.427 10.797-11.224 16.122-.813 1.14-1.74 2.197-2.61 3.295-1.01.845-1.911 1.838-3.029 2.533-3.192 1.984-7.158 2.627-10.772 1.526-3.042-.927-3.929-1.988-6.34-3.895-2.676-2.877-1.509-1.471-3.561-4.166l.363-11.543c1.266 2.896.467 1.405 2.514 4.408 1.543 1.792 2.276 2.977 4.385 4.14a7.578 7.578 0 0 0 7.608-.148c.908-.547 1.626-1.361 2.44-2.042.793-1.006 1.637-1.974 2.38-3.018 4.028-5.664 6.882-12.226 11.92-17.128.388-.33 4.346-4.062 5.092-2.984 8.105 11.723 4.425 11.781-3.547 13.61-1.505.148-3.004.413-4.516.445-3.145.068-6.663-.277-9.675-1.251-1.448-.468-3.194-.698-4.167-1.87-7.514-9.045-6.87-8.274-7.49-15.64.389-1.268.598-2.607 1.165-3.806 2.769-5.851 8.632-9.493 14.282-12.095l4.864 10.688zM154.694 140.558c.909 5.016 1.64 10.087 1.579 15.2-.054 4.597-.412 6.278-1.008 10.826-1.519 7.419-3.256 13.575-8.96 18.947-3.076 2.897-3.91 2.919-7.607 4.584-4.332 1.052-2.263.723-6.188 1.098l-3.652-10.904c3.174.097 1.5.176 5.018-.338 1.047-.42 2.164-.694 3.14-1.257 7.172-4.131 9.2-12.26 10.474-19.816.166-1.724.415-3.442.499-5.173.271-5.594-.278-12.134-1.98-17.512-.254-.8-.632-1.554-.948-2.33l9.633 6.675z" style="opacity:1;fill:#000;fill-opacity:1;stroke:none;stroke-width:2.29999995;stroke-linecap:square;stroke-linejoin:miter;stroke-miterlimit:100;stroke-dasharray:none;stroke-opacity:1" transform="translate(282.211 145.84)"/><path d="M278.805 256.852c-5.034.313-9.96 1.47-14.768 2.948-5.191 1.594-8.87 2.917-13.66 5.514-1.984 1.076-3.822 2.4-5.733 3.599-3.078 3.075-5.3 4.566-6.844 8.72-.552 1.486-1.42 6.149-.81 4.687.76-1.82-.41-4.757 1.269-5.784 1.323-.81.278 3.111.61 4.633.317 1.44.88 2.814 1.32 4.221l1.486 3.235-5.312 11.27-1.79-3.583c-.889-2.218-3.12-7.201-3.114-9.644.015-6.228-.165-14.794 3.368-20.812 2.456-4.185 4.87-5.617 8.572-8.72 2.054-1.167 4.052-2.44 6.16-3.506 9.259-4.678 19.627-7.77 29.81-9.644l-.564 12.866zM289.902 293.794c-8.89 1.102-17.83 1.695-26.753 2.453-3.454.315-6.89.692-10.274 1.452l.2-11.554c3.5-.314 7.009-.493 10.512-.78 8.92-.738 17.89-1.35 26.64-3.35l-.325 11.78z" style="opacity:1;fill:#000;fill-opacity:1;stroke:none;stroke-width:2.29999995;stroke-linecap:square;stroke-linejoin:miter;stroke-miterlimit:100;stroke-dasharray:none;stroke-opacity:1" transform="translate(-178.986 -243.384)"/><path d="M267.662 265.783c4.747 8.726 6.463 18.647 8.2 28.315.685 4.09 1.292 8.194 1.898 12.297l-5.809 9.661c-.524-4.162-.977-8.334-1.696-12.469-1.31-9.228-2.733-18.694-7.11-27.048l4.517-10.756zM331.206 323.524c-1.049.714-2.17 1.33-3.146 2.14-2.307 1.915-5.185 4.867-6.597 7.56-1.028 1.936-1.604 3.198-.704 4.163 1.622 1.739 2.36 2.028 3.717 2.336 4.52 1.027 9.48-.492 13.874-1.722.916-.256 1.79-.639 2.685-.959.44-.2 1.042-.993 1.32-.598 2.285 3.259 4.502 6.71 5.64 10.523.239.803-1.414.901-2.083 1.405a33.965 33.965 0 0 0-2.428 1.989c-3.202 2.91-3.56 3.563-6.5 7-3.355 3.975-5.936 8.544-9.341 12.478-.933 1.078-1.854 2.196-2.994 3.051-3.04 2.281-3.94 1.957-7.517 2.458-1.37-.316-2.811-.408-4.11-.947-2.811-1.168-5.338-3.403-7.392-5.575-.963-1.019-1.943-2.052-2.659-3.257-2.252-3.791-4.142-7.786-6.212-11.679 3.365 1.696 6.48 1.524 6.133.498-.583-1.187 1.343 2.283 2.136 3.34 1.334 1.78 3.707 4.366 5.602 5.648.824.558 1.798.854 2.697 1.28.859.027 1.737.261 2.576.078 2.386-.526 3.798-2.152 5.353-3.903 3.472-3.912 6.15-8.455 9.508-12.458 1.169-1.406 2.297-2.847 3.505-4.22 3.178-3.612 2.664-2.812 5.68-5.732.357-.346.714-1.456 1.032-1.074a44.774 44.774 0 0 1 6.19 9.76c.218.469-1.007.23-1.51.346-6.03 1.655-12.247 2.973-18.543 2.21-1.767-.213-3.894.057-5.22-1.132-3.455-3.098-5.936-7.168-8.414-11.092-.734-1.164-1.008-2.607-1.1-3.98-.472-7.09 5.227-13.022 10.02-17.408 1.14-1.043 2.385-1.966 3.579-2.95l5.223 10.423z" style="opacity:1;fill:#000;fill-opacity:1;stroke:none;stroke-width:2.29999995;stroke-linecap:square;stroke-linejoin:miter;stroke-miterlimit:100;stroke-dasharray:none;stroke-opacity:1" transform="translate(-178.986 -243.384)"/><path d="M307.504 338.855c-1.21 3.368-2.473 5.032-6.175 5.97-2.39.604-4.14.398-6.574.344-3.97-.273-2.084-.134-5.657-.412l-1.633-5.509c3.537.365 1.678.191 5.576.51 2.6.121 5.573.507 7.946-.92 1.544-.93 2.007-2.612 2.413-4.227l4.104 4.244z" style="opacity:1;fill:#000;fill-opacity:1;stroke:none;stroke-width:2.29999995;stroke-linecap:square;stroke-linejoin:miter;stroke-miterlimit:100;stroke-dasharray:none;stroke-opacity:1" transform="translate(-178.986 -243.384)"/><path d="M290.598 310.868a676.94 676.94 0 0 1-8.2 12.175c-1.466 2.301-3.1 4.49-4.597 6.77-.585.892-1.126 1.814-1.71 2.706l-.155.2-4.122-5.62c.03-.026.058-.052.086-.079.666-.786 1.25-1.627 1.857-2.46 1.594-2.179 3.197-4.351 4.682-6.607 2.74-4.099 5.485-8.196 7.9-12.498l4.258 5.412zM352.301 362.183c-3.635 3.99-6.872 8.318-10.02 12.696-1.96 2.873-3.83 5.809-5.558 8.827-.497.868-1.095 1.835-1.411 2.807-4.165-5.66-5.299-3.606-4.091-5.724l4.2 5.57c-1.678 1.843-.087.187-4.518-5.204.617-.835 1.181-1.715 1.754-2.578 1.921-2.902 3.813-5.824 5.769-8.703 3.137-4.51 6.365-8.957 9.804-13.244l4.071 5.553zM385.639 328.488c.183.611.399 1.213.549 1.833 2.368 9.791 1.072 20.96.578 30.707-.302 1.641-.526 3.3-.907 4.925-.384 1.64-.87 3.255-1.386 4.858-1.146 3.562-1.893 5.565-3.89 8.742-2.148 3.417-3.07 4.08-5.829 6.932-3.063 2.53-6.469 4.414-10.357 5.306-2.66.61-5.17.514-7.85.304-1.866-.282-1.356-.192-2.97-.478-.269-.047-.532-.127-.804-.146-.045-.01.051.095.097.097.613.025 1.226-.011 1.839-.017l-3.335-12.507c.652-.122 1.297-.299 1.957-.365.652-.066.846.165 1.418.363.995.346 1.52.44 2.592.698 2.268.35 4.343.577 6.638.079 3.424-.74 6.327-2.55 8.908-4.87 2.446-2.764 3.25-3.376 5.077-6.67 2.256-4.068 3.647-8.72 4.48-13.277.297-1.62.43-3.266.644-4.9-.062 2.002.047 4.015-.186 6.004-.171 1.464.036-2.95 0-4.424-.09-3.746-.339-7.555-1.369-11.175l4.104-12.019z" style="opacity:1;fill:#000;fill-opacity:1;stroke:none;stroke-width:.1;stroke-linecap:square;stroke-linejoin:miter;stroke-miterlimit:4;stroke-dasharray:none;stroke-opacity:1" transform="translate(-178.986 -243.384)"/><g style="stroke-width:1.02617967"><path d="M11.115 231.847c18.598-.491 37.2-.74 55.802-.959 2.144 1.142 5.382-.397 7.65.799.669.353.971 1.16 1.457 1.739l-12.525 6.078c.362 3.124-7.676-4.228-6.87-.031-18.606-.043-37.25.06-55.806 1.523l10.292-9.149z" style="opacity:1;fill:#000;fill-opacity:1;stroke:none;stroke-width:2.36021328;stroke-linecap:square;stroke-linejoin:miter;stroke-miterlimit:100;stroke-dasharray:none;stroke-opacity:1" transform="matrix(.94963 0 0 1 .041 -22.728)"/><path d="M43.52 205.48c-.58 13.326.42 26.632 1.083 39.932.306 6.577.331 13.161.483 19.742.01.125.017.25.025.375l-13.827 2.057.067-.119c.509-6.482.02-13.016-.024-19.503-.51-13.36-1.34-26.707-1.367-40.08l13.56-2.404z" style="opacity:1;fill:none;fill-opacity:1;stroke:none;stroke-width:2.36021328;stroke-linecap:square;stroke-linejoin:miter;stroke-miterlimit:100;stroke-dasharray:none;stroke-opacity:1" transform="matrix(.94963 0 0 1 .041 -22.728)"/></g><g transform="translate(-19.887 36.934)"><ellipse cx="108.209" cy="78.351" rx="17.524" ry="16.92" style="opacity:1;fill:#000;fill-opacity:1;stroke:none;stroke-width:2.29999995;stroke-linecap:square;stroke-linejoin:miter;stroke-miterlimit:100;stroke-dasharray:none;stroke-opacity:1"/><ellipse cx="345.9" cy="278.54" rx="17.524" ry="16.92" style="opacity:1;fill:#000;fill-opacity:1;stroke:none;stroke-width:2.29999995;stroke-linecap:square;stroke-linejoin:miter;stroke-miterlimit:100;stroke-dasharray:none;stroke-opacity:1"/><path d="M53.123 39.869c10.031 8.965 20.463 17.461 30.84 26.02 17.706 14.263 34.987 29.049 52.35 43.73 20.184 17.098 40.401 34.154 60.423 51.44 11.062 9.515 22.258 18.872 33.428 28.26 3.633 3.054 7.233 6.148 10.877 9.19 3.062 2.555 20.249 16.682 23.244 19.146 3.927 3.259 7.85 6.521 11.781 9.776 6.719 5.566 16.48 13.593 23.177 19.223 10.724 9.02 21.296 18.215 31.872 27.404 15.035 13.023 29.877 26.254 44.868 39.324 4.645 4.103 2.542 2.216 6.323 5.645l9.98-7.373c-4.084-3.22-1.836-1.438-6.738-5.355-15.472-12.579-30.436-25.747-45.637-38.649-10.682-9.16-21.343-18.346-32.14-27.37-7.804-6.522-15.39-12.695-23.222-19.184-3.935-3.26-7.854-6.54-11.782-9.809-22.584-18.675-45.094-37.448-67.295-56.578a5528.022 5528.022 0 0 0-60.291-51.615c-17.265-14.765-34.496-29.568-51.917-44.151-10.106-8.469-20.356-16.88-29.678-26.172L53.123 39.87z" style="opacity:1;fill:#000;fill-opacity:1;stroke:none;stroke-width:2.29999995;stroke-linecap:square;stroke-linejoin:miter;stroke-miterlimit:100;stroke-dasharray:none;stroke-opacity:1"/></g><g style="stroke-width:.99171895"><path d="M338.41 67.156c-12.917.16-25.833.743-38.75 1.011-3.463.056-6.925.094-10.388.167-8.152.17-16.304.44-24.457.618-14.546.313-29.08.414-43.622.427-5.226.01-10.452.034-15.678.03-34.437-.02 3.41-.095-29.89-.05-11.808.016-23.605.064-35.407-.153-6.15-.11-12.297-.31-18.437-.602l9.202 7.797a907.77 907.77 0 0 1 17.696-.071c26.788-.05 53.585-.588 80.367-.374 10.904.022 19.664.068 30.541-.02 16.205-.131 32.415-.609 48.62-.685 13.181-.146 26.407-.727 39.553.068l-9.35-8.16z" style="opacity:1;fill:gray;fill-opacity:1;stroke:none;stroke-width:2.28095341;stroke-linecap:square;stroke-linejoin:miter;stroke-miterlimit:100;stroke-dasharray:none;stroke-opacity:1" transform="matrix(-1.0167 .0121 .0123 .99993 455.727 482.73)"/><path d="M176.42 58.661c-1.09.357-2.198.665-3.27 1.072-2.978 1.13-6.452 2.757-9.32 4.082-5.07 2.341-10.105 4.753-15.136 7.177a423.44 423.44 0 0 0-9.64 5.018c-.493.266-.984.534-1.47.811-1.072.612-.538.421-1.08.598 5.404-11.238-3.071 7.317 1.446-6.394.107-.324.63.263.936.417.553.278 1.077.614 1.638.876.8.372 1.628.678 2.44 1.021 1.142.484 2.282.973 3.423 1.459 8.983 3.618 17.714 7.808 26.44 11.994 2.104 1.056 4.234 2.06 6.342 3.106.245.121.598.136.729.376.317.582.347 1.278.52 1.917l-14.886 1.068c.107.514.375 1.021.32 1.544-.02.182-.297-.212-.45-.312-.345-.227-.69-.456-1.043-.67-1.704-1.037-2.514-1.452-4.373-2.477-2.678-1.395-4.514-2.377-7.281-3.7-6.178-2.954-12.523-5.53-18.977-7.816-2.856-1.06-5.715-2.12-8.51-3.337-.427-.185-1.076-.172-1.261-.6-1.638-3.796-.856-4.004.557-7.197 1.224-.693.067-.118 1.655-.616.584-.183 1.156-.405 1.732-.613 3.515-1.27 6.972-2.688 10.34-4.315a725.49 725.49 0 0 0 15.084-7.2c4.048-1.99 5.011-2.4 8.827-4.571.956-.545 1.884-1.138 2.826-1.707l11.442 8.989z" style="opacity:1;fill:gray;fill-opacity:1;stroke:none;stroke-width:.09917189;stroke-linecap:square;stroke-linejoin:miter;stroke-miterlimit:4;stroke-dasharray:none;stroke-opacity:1" transform="matrix(-1.0167 .0121 .0123 .99993 455.727 482.73)"/></g><g style="stroke-width:1.00987613"><path d="M335.87 121.309c4.402-12.415 8.022-25.083 12.06-37.618 1.539-4.513 2.794-9.116 4.434-13.595.251-.688.517-1.37.8-2.044.142-.336.16-.799.474-.984.175-.104.247.323.37.485-3.557 1.125-7.22 1.957-10.67 3.374-.345.142-.163.728-.212 1.096-.081.601-.185 1.205-.178 1.811.055 4.383 1.424 8.838 2.389 13.06.535 2.319 1.043 4.644 1.607 6.957 2.227 8.743 1.853 7.15 3.95 15.882 1.287 5.357 2.527 10.72 3.924 16.049l9.137-5.142c-3.904-12.65-6.85-25.59-9.587-38.535-.71-3.935-1.839-8.13-1.378-12.18.062-.542.217-1.07.34-1.6.085-.37.661-1.146.284-1.104-3.527.397-6.94 1.495-10.409 2.242.105 1.403-.454 2.567-.858 3.93-1.332 4.491-2.601 9.001-4.003 13.472-3.92 12.585-7.547 25.311-12.662 37.478l10.188-3.034z" style="opacity:1;fill:gray;fill-opacity:1;stroke:none;stroke-width:2.32271504;stroke-linecap:square;stroke-linejoin:miter;stroke-miterlimit:100;stroke-dasharray:none;stroke-opacity:1" transform="matrix(1 0 0 -.98054 -511.12 392.256)"/><path d="M339.643 259.671c.53-5.843 1.08-11.687 1.37-17.546.265-5.37.346-10.367.476-15.763.022-19.582.1-39.163.094-58.745-.264-21.928-.053-43.855-.096-65.782 0-2.708.01-5.415.01-8.123l11.334 1.714-.32 8.065a1124.175 1124.175 0 0 0-.517 65.59c.135 7.355.353 14.71.478 22.064.207 12.28.062 24.559.216 36.838.172 8.808.206 7.727.173 16-.02 5.031-.171 10.071-.053 15.103.019.864.088 1.727.131 2.59l-13.296-2.005z" style="opacity:1;fill:gray;fill-opacity:1;stroke:none;stroke-width:.10098761;stroke-linecap:square;stroke-linejoin:miter;stroke-miterlimit:4;stroke-dasharray:none;stroke-opacity:1" transform="matrix(1 0 0 -.98054 -511.12 392.256)"/></g><path d="M1195.424 523.986c1.839 5.778 1.79 11.95 1.977 17.946.397 12.742.01 2.094.51 14.983.281 6.008.72 12.002 1.299 17.987l-13.505 2.695c-.21-6.073-.36-12.147-.662-18.216-.208-4.587-.435-10.266-.76-14.858-.332-4.676-.592-9.612-2.04-14.12-.204-.638-.53-1.23-.795-1.845l13.976-4.572z" style="opacity:1;fill:#fff;fill-opacity:1;stroke:none;stroke-width:2.29999995;stroke-linecap:square;stroke-linejoin:miter;stroke-miterlimit:100;stroke-dasharray:none;stroke-opacity:1"/><path d="M1235.136 1109.145c14.06-.166 28.12.09 42.18.031 3.768-.032 7.537-.08 11.306-.096 8.873-.035 17.747.028 26.621 0 15.833-.055 31.655-.32 47.484-.676 5.688-.122 11.377-.23 17.065-.366 37.484-.892-3.711-.01 32.535-.806 12.854-.283 25.694-.534 38.54-1.048 6.696-.266 13.386-.62 20.07-1.068l-10.017 8.029c-6.422.062-12.843.2-19.262.376-29.158.628-58.327.768-87.48 1.66-11.869.297-21.404.565-33.244.751-17.64.279-35.283.21-52.922.544-14.349.188-28.744-.059-43.054 1.069l10.178-8.396z" style="opacity:1;fill:gray;fill-opacity:1;stroke:none;stroke-width:2.29999995;stroke-linecap:square;stroke-linejoin:miter;stroke-miterlimit:100;stroke-dasharray:none;stroke-opacity:1" transform="matrix(.97673 .0105 -.01024 .99994 -1111.653 -806.996)"/><path d="M1425.861 1085.13c11.02 4.693 21.645 10.241 32.506 15.28 1.026.471 5.915 2.693 7.22 3.372 2.59 1.349 4.628 2.404 3.495 6.085-.247.803-1.268 1.101-1.903 1.652 1.652 12.396-14.193-.544-17.75 4.408-.818 1.14 5.417-1.45 4.093-.983-2.695.95-5.487 1.6-8.22 2.438-8.134 2.492-10.456 3.32-18.64 6.043l-8.418 3.018-11.296-2.692 8.588-3.042c10.32-3.542 8.314-2.898 18.423-6.198 2.64-.861 5.264-1.775 7.926-2.562 5.435-1.607 10.9-3.111 16.364-4.62 1.476-.406 5.925-1.548 4.453-1.124-2.603.749-5.233 1.401-7.85 2.102 1.85.966 1.933.642 2.541 3.449.06.278-.447-.352-.688-.503-2.798-1.753-5.842-3.06-8.784-4.54-10.722-5.26-21.31-10.92-32.619-14.85l10.56-6.734z" style="opacity:1;fill:gray;fill-opacity:1;stroke:none;stroke-width:2.29999995;stroke-linecap:square;stroke-linejoin:miter;stroke-miterlimit:100;stroke-dasharray:none;stroke-opacity:1" transform="matrix(.97673 .0105 -.01024 .99994 -1111.653 -806.996)"/><ellipse cx="1068.493" cy="701.723" rx="17.524" ry="16.92" style="opacity:1;fill:#000;fill-opacity:1;stroke:none;stroke-width:2.29999995;stroke-linecap:square;stroke-linejoin:miter;stroke-miterlimit:100;stroke-dasharray:none;stroke-opacity:1"/><ellipse cx="1306.184" cy="901.913" rx="17.524" ry="16.92" style="opacity:1;fill:#000;fill-opacity:1;stroke:none;stroke-width:2.29999995;stroke-linecap:square;stroke-linejoin:miter;stroke-miterlimit:100;stroke-dasharray:none;stroke-opacity:1"/><path d="M1333.16 771.482c18.597-.491 37.2-.74 55.802-.959 2.144 1.142 5.382-.397 7.65.799.668.353.971 1.16 1.457 1.739l-12.526 6.077c.363 3.125-7.675-4.227-6.87-.03-18.605-.043-37.25.06-55.805 1.523l10.292-9.149zM1172.284 645.56c17.445-.657 34.89-.755 52.328-1.645 3.839-.245 6.723-.396 10.417-.729.667-.06 1.343-.363 1.997-.22.493.107.802.612 1.203.918l-11.643 7.68c.046 1.146.188.493-1.894.575-3.386.132-6.772.288-10.158.415-17.518.686-35.074.674-52.552 2.11l10.302-9.104z" style="opacity:1;fill:#000;fill-opacity:1;stroke:none;stroke-width:2.29999995;stroke-linecap:square;stroke-linejoin:miter;stroke-miterlimit:100;stroke-dasharray:none;stroke-opacity:1"/><path d="M1205.165 623.372c-.58 13.326.42 26.632 1.083 39.932.306 6.577.33 13.161.483 19.742.01.125.017.25.025.375l-13.828 2.057.067-.119c.51-6.482.021-13.015-.024-19.503-.51-13.36-1.34-26.707-1.366-40.08l13.56-2.404zM1256.932 892.894c-1.275-.195-2.54-.489-3.826-.584-8.765-.65-18.342.544-26.475 3.96-2.052.863-3.948 2.057-5.922 3.085-1.686 1.4-3.53 2.629-5.059 4.199-2.732 2.804-4.814 6.154-6.405 9.706-.94 2.101-1.643 4.29-1.607 6.61.01.639.245 1.253.369 1.878 1.517 3.26 6.52 13.411-.463-1.009l-.448 11.499c-1.096-2.131-6.538-11.266-7.431-15.914-.15-.782-.14-1.586-.21-2.38.112-.779.154-1.572.337-2.338 1.441-6.04 6.083-12.96 10.445-17.176 1.747-1.689 3.799-3.03 5.698-4.544 2.147-1.091 4.215-2.353 6.44-3.273 2.282-.945 4.656-1.665 7.041-2.305 8.09-2.172 16.43-2.713 24.767-2.852l2.75 11.438z" style="opacity:1;fill:#000;fill-opacity:1;stroke:none;stroke-width:2.29999995;stroke-linecap:square;stroke-linejoin:miter;stroke-miterlimit:100;stroke-dasharray:none;stroke-opacity:1"/><path d="M1246.139 905.29c.09 1.14.144 2.281.27 3.417.39 3.546 1.005 7.187 1.547 10.703 1.039 6.744 2.16 13.471 3.261 20.205.64 4.267 1.265 8.537 1.907 12.804l-8.73-7.392c-.357-4.082-.81-8.155-1.416-12.209-1.06-6.768-2.202-13.519-3.359-20.27-.632-3.689-1.202-7.388-1.893-11.066-.222-1.185-.501-2.359-.751-3.538l9.164 7.346z" style="opacity:1;fill:#000;fill-opacity:1;stroke:none;stroke-width:2.29999995;stroke-linecap:square;stroke-linejoin:miter;stroke-miterlimit:100;stroke-dasharray:none;stroke-opacity:1"/><path d="M1262.034 929.153a1053.396 1053.396 0 0 0-32.202 2.934l-3.613-10.373c10.62-.476 21.279-1.218 31.723-3.3l4.091 10.739zM1255.603 941.56c2.304.814 4.555 1.801 6.605 3.143.607.398 2.534 1.787 2.956 2.557 1.053 1.915 1.829 3.97 2.743 5.955-.324.535-.538 1.154-.972 1.603-1.753 1.816-4.64 2.477-6.98 2.975-2.768.59-4.678.808-7.498 1.207-2.997.393-5.995.766-8.987 1.196-.742.107-1.524.198-2.26.367-.402-1.867-.971-3.705-1.207-5.6-.023-.187.355.125.534.183.296.097.602.167.892.282 1.466.58 2.831 1.405 4.191 2.189 3.998 2.563 7.778 5.452 11.55 8.333.701.545 1.35 1.152 2.02 1.733l.425 5.938c-.67-.601-1.34-1.203-1.934-1.882-3.595-2.993-7.418-5.719-11.273-8.363a63.758 63.758 0 0 0-3.891-2.13c-.208-.105-.397-.25-.618-.323-.23-.076-.616.1-.715-.12-.849-1.883-1.324-3.914-1.985-5.872.741.028 1.573-.089 2.292-.157 3.007-.29 6.007-.66 9.005-1.031 3.318-.476 4.066-.517 7.274-1.23 1.385-.308 4.459-.9 5.43-2.234.12-.164.02-.404.028-.606.667 1.14 1.345 2.274 2 3.42.257.451-.47-.935-.807-1.33-1.936-2.266-4.885-3.43-7.577-4.481l-1.242-5.723zM1277.971 969.237c-3.272 2.795-6.976 5.034-10.63 7.286l-2.685-5.042c3.538-2.083 7.133-4.198 10.063-7.11l3.252 4.866zM1312.535 992.17c3.02 1.182 6.058 2.612 8.446 4.864.371.35.692.751 1.037 1.127 1.535 2.194 2.265 3.066 2.914 6.736.093.524-.586.901-.978 1.26-1.613 1.48-3.912 1.994-5.93 2.597-4.785 1.24-9.71 1.798-14.588 2.54-2.997.493-1.897.962-2.41-5.254-.021-.253.38.337.57.504.262.23.525.458.787.686 3.973 3.39 8.08 6.62 12.07 9.991 1.356 1.123 2.59 2.379 3.899 3.552l.128 5.955c-.895-1.5-2.43-2.54-3.594-3.803-3.903-3.43-7.963-6.677-12.109-9.809-.233-.222-.458-.455-.701-.667-.19-.166-.513-.228-.594-.466-2.21-6.583-3.39-5.811-.08-6.183 4.808-.564 9.656-1.053 14.34-2.324 1.38-.43 2.573-.706 3.828-1.401.304-.168.603-.366.828-.63.083-.097-.03-.491.034-.38.737 1.29 1.3 2.673 2.018 3.973.176.32-.257-.681-.386-1.022-.24-.388-.438-.806-.72-1.165-1.891-2.412-4.88-3.807-7.65-4.91l-1.16-5.771zM1305.34 958.814c-4.108 1.359-8.155 3.542-10.716 7.166-.68.96-1.287 2.01-1.61 3.142-.278.98-.101 2.033-.152 3.05.5.862 1.694 3.567 1.502 2.588-.434-2.203-2.612-4.136-2.242-6.35.199-1.186 1.878 1.535 2.96 2.06 2.434 1.182 5.488 1.66 8.156 1.696 1.309.018 2.609-.222 3.914-.333.999-.259 2.018-.451 2.997-.778a8.88 8.88 0 0 0 1.798-.823c.192-.117.343-.737.42-.526 1.285 3.576 1.89 7.384 3.314 10.907.131.324 1.172-.464 1.038-.141-.238.575-.974.774-1.462 1.16-4.72 4.625-7.427 10.798-11.223 16.122-.814 1.142-1.74 2.198-2.61 3.296-1.01.844-1.912 1.838-3.03 2.533-3.192 1.984-7.157 2.627-10.771 1.526-3.043-.927-3.93-1.988-6.34-3.895-2.676-2.877-1.51-1.471-3.562-4.166l.363-11.543c1.266 2.896.467 1.405 2.514 4.408 1.543 1.791 2.276 2.977 4.385 4.14a7.578 7.578 0 0 0 7.608-.148c.909-.547 1.627-1.361 2.44-2.042.793-1.006 1.637-1.974 2.38-3.018 4.028-5.664 6.883-12.226 11.921-17.128.387-.33 4.346-4.062 5.091-2.984 8.106 11.723 4.426 11.781-3.546 13.61-1.506.148-3.005.412-4.517.445-3.145.068-6.662-.278-9.674-1.251-1.45-.468-3.195-.698-4.168-1.87-7.513-9.045-6.87-8.274-7.49-15.64.389-1.268.598-2.607 1.165-3.806 2.769-5.852 8.632-9.494 14.283-12.095l4.863 10.688zM1354.149 967.045c.909 5.016 1.64 10.087 1.58 15.2-.055 4.597-.413 6.278-1.009 10.825-1.519 7.42-3.256 13.576-8.96 18.948-3.076 2.896-3.91 2.918-7.607 4.583-4.332 1.053-2.263.724-6.188 1.099l-3.651-10.904c3.173.097 1.498.176 5.017-.339 1.047-.419 2.164-.693 3.14-1.256 7.172-4.131 9.2-12.26 10.475-19.817.166-1.724.414-3.442.498-5.172.272-5.594-.277-12.134-1.98-17.513-.253-.799-.632-1.553-.948-2.33l9.633 6.676z" style="opacity:1;fill:#000;fill-opacity:1;stroke:none;stroke-width:2.29999995;stroke-linecap:square;stroke-linejoin:miter;stroke-miterlimit:100;stroke-dasharray:none;stroke-opacity:1"/><path d="M1467.769 1106.42c2.306 14.137 1.941 28.517 1.789 42.785-.424 26.672-.987 53.342-1.234 80.017-.25 9.911-.359 19.828-.174 29.741.083 4.45.338 8.884.475 13.33v1.215l-12.729 1.69.275-.842c.454-4.434.392-8.91.47-13.364.17-9.964.272-19.93.688-29.887.685-26.642 1.23-53.288 1.17-79.94-.145-13.824-.106-27.848-3.051-41.424l12.318-3.32z" style="opacity:1;fill:gray;fill-opacity:1;stroke:none;stroke-width:2.29999995;stroke-linecap:square;stroke-linejoin:miter;stroke-miterlimit:100;stroke-dasharray:none;stroke-opacity:1" transform="matrix(.99998 -.00677 .00682 .99267 -1383.487 -960.4)"/><path d="M1451.19 1247.604c4.402 12.414 8.023 25.082 12.06 37.617 1.54 4.514 2.795 9.116 4.434 13.596.252.687.517 1.37.8 2.044.142.335.161.798.474.984.175.103.247-.324.37-.485-3.557-1.125-7.22-1.957-10.67-3.375-.344-.141-.162-.727-.212-1.096-.08-.601-.185-1.204-.177-1.81.055-4.384 1.424-8.838 2.388-13.06.536-2.32 1.044-4.645 1.607-6.957 2.227-8.744 1.853-7.15 3.95-15.883 1.287-5.357 2.528-10.719 3.925-16.048l9.137 5.141c-3.905 12.65-6.852 25.59-9.588 38.536-.71 3.934-1.839 8.129-1.378 12.18.062.542.217 1.069.34 1.6.085.37.662 1.146.284 1.103-3.527-.397-6.939-1.495-10.409-2.242.105-1.403-.454-2.567-.858-3.93-1.332-4.49-2.601-9-4.003-13.471-3.92-12.585-7.547-25.312-12.662-37.479l10.188 3.035z" style="opacity:1;fill:gray;fill-opacity:1;stroke:none;stroke-width:2.29999995;stroke-linecap:square;stroke-linejoin:miter;stroke-miterlimit:100;stroke-dasharray:none;stroke-opacity:1" transform="matrix(.99998 -.00677 .00682 .99267 -1383.487 -960.4)"/><path d="M1172.864 1508.76c10.031-8.966 20.463-17.462 30.84-26.02 17.707-14.264 34.988-29.05 52.35-43.73 20.184-17.099 40.402-34.155 60.423-51.441 11.063-9.515 22.258-18.872 33.428-28.26 3.633-3.054 7.233-6.148 10.877-9.189 3.062-2.556 20.249-16.683 23.244-19.146 3.927-3.26 7.85-6.522 11.781-9.777 6.719-5.566 16.48-13.593 23.177-19.223 10.725-9.02 21.296-18.215 31.872-27.404 15.035-13.023 29.877-26.254 44.868-39.324 4.645-4.103 2.542-2.216 6.323-5.645l9.98 7.373c-4.084 3.22-1.836 1.438-6.738 5.355-15.472 12.579-30.436 25.747-45.637 38.649-10.681 9.16-21.342 18.346-32.14 27.37-7.804 6.522-15.39 12.695-23.222 19.184-3.935 3.26-7.854 6.54-11.782 9.809-22.584 18.675-45.094 37.448-67.295 56.578a5528.022 5528.022 0 0 1-60.291 51.615c-17.265 14.765-34.496 29.568-51.917 44.151-10.106 8.469-20.356 16.88-29.678 26.172l-10.463-7.098z" style="opacity:1;fill:#000;fill-opacity:1;stroke:none;stroke-width:2.29999995;stroke-linecap:square;stroke-linejoin:miter;stroke-miterlimit:100;stroke-dasharray:none;stroke-opacity:1"/><path d="M1352.295 1486.704c1.839 5.777 1.79 11.95 1.977 17.946.397 12.742.01 2.094.51 14.983.281 6.007.72 12.001 1.299 17.987l-13.505 2.694c-.21-6.072-.36-12.147-.662-18.216-.208-4.586-.435-10.265-.76-14.857-.332-4.676-.592-9.612-2.04-14.12-.204-.638-.53-1.23-.795-1.845l13.976-4.572z" style="opacity:1;fill:#fff;fill-opacity:1;stroke:none;stroke-width:2.29999995;stroke-linecap:square;stroke-linejoin:miter;stroke-miterlimit:100;stroke-dasharray:none;stroke-opacity:1"/><path d="M168.003 1191.146c13.444-10.081 26.408-20.773 39.449-31.363 17.45-14.248 35.087-28.262 52.868-42.093 11.645-8.903 23.448-17.593 35.213-26.334 4.046-3.007 8.061-6.055 12.117-9.05 9.415-6.95 18.886-13.825 28.312-20.762 32.603-23.472 65.104-47.085 97.708-70.555 12.411-8.723 25.001-17.18 37.223-26.17 2.245-1.626 4.441-3.316 6.67-4.964l6.781.68c-2.45 1.522-4.764 3.24-7.145 4.866-12.513 8.893-25.116 17.649-37.913 26.131-7.714 5.216-15.549 10.485-23.184 15.791-25.458 17.694-50.408 36.11-75.244 54.662-25.094 18.57-50.233 37.083-74.937 56.172-17.747 13.841-35.336 27.883-52.808 42.07-12.829 10.43-25.561 20.98-38.336 31.477l-6.774-.558z" style="opacity:1;fill:#000;fill-opacity:1;stroke:none;stroke-width:2.29999995;stroke-linecap:square;stroke-linejoin:miter;stroke-miterlimit:100;stroke-dasharray:none;stroke-opacity:1"/><ellipse cx="204.805" cy="1164.612" rx="7.324" ry="7.071" style="opacity:1;fill:#000;fill-opacity:1;stroke:none;stroke-width:2.29999995;stroke-linecap:square;stroke-linejoin:miter;stroke-miterlimit:100;stroke-dasharray:none;stroke-opacity:1"/><path d="M216.729 1163.255c9.271-.622 18.564-.627 27.848-.856 12.347-.23 24.69-.63 37.034-.966 7.593-.067 15.18-.443 22.772-.58 6.176-.11 12.354-.032 18.53.035 3.874.035 4.149.04 7.592.06.16.001 2.2-.144 2.677.091l-6.136 3.349c-.002.274.018.045-.653.01-.54-.03-1.08-.056-1.62-.078-3.02-.12-4-.127-7.316-.207-6.11-.084-12.222-.18-18.333-.083-7.585.12-15.166.455-22.751.573-12.426.398-24.85.863-37.281 1.105-9.359.22-18.733.234-28.063 1.095l5.7-3.547zM380.71 1158.321c7.949-.253 15.905-.208 23.853-.482 11.896-.379 23.792-.792 35.686-1.235 13.763-.5 27.537-.603 41.309-.657 3.395-.133 6.806.118 10.201-.032a11.61 11.61 0 0 0 1.482-.162c.242-.042.938-.288.702-.221-2.094.585-4.184 1.186-6.275 1.78-.06 1.121.278.989-.433 1.002l6.262-2.996c.988.642.473.157 1.14 1.79-2.162.735-4.303 1.531-6.485 2.204-.231.072-.485.015-.727.019-.482.01-.964.015-1.446.01-3.305-.027-6.609-.141-9.914-.127-13.689-.078-27.38.01-41.06.578-12.02.475-24.04.975-36.061 1.447-7.995.2-16 .116-23.986.59l5.752-3.507z" style="opacity:1;fill:#b3b3b3;fill-opacity:1;stroke:none;stroke-width:2.29999995;stroke-linecap:square;stroke-linejoin:miter;stroke-miterlimit:100;stroke-dasharray:none;stroke-opacity:1"/><path d="M439.163 1145.32c3.788 1.947 7.721 3.593 11.56 5.432 2.542 1.218 3.35 1.705 5.746 3.025 1.47.873 2.989 1.672 4.422 2.607.403.263.719.525.548.595-2.207.903-4.498 1.587-6.746 2.381-2.594-1.637 2.145-.774 5.732-1.064-4.474 1.956-8.888 4.056-13.272 6.21-1.705.885-3.452 1.699-5.095 2.7-.161.098-.286.339-.471.31-.128-.02-.013-.257-.023-.386-.03-.414-.063-.828-.094-1.242l-6.17 3.232c-.3-.602-.99-1.39-.614-2.169.158-.325 1.623-1.191 1.667-1.215 1.38-.766 2.865-1.33 4.233-2.118a927.687 927.687 0 0 1 8.594-4.203c.643-.31 2.72-1.241 3.516-1.662.294-.155.57-.342.855-.513 2.364-.27 4.733-.499 7.091-.809.044-.01-.059-.138-.015-.132.14.021.259.143.4.157-2.087.867-4.2 1.676-6.263 2.601-.058.026.124.192.06.182-.121-.02-.196-.15-.297-.22-.25-.175-.5-.35-.756-.516-1.439-.938-1.765-1.103-3.4-2.071-5.646-3.12-11.58-5.628-17.434-8.326l6.226-2.786z" style="opacity:1;fill:#b3b3b3;fill-opacity:1;stroke:none;stroke-width:2.29999995;stroke-linecap:square;stroke-linejoin:miter;stroke-miterlimit:100;stroke-dasharray:none;stroke-opacity:1"/><ellipse cx="440.676" cy="988.845" rx="7.324" ry="7.071" style="opacity:1;fill:#000;fill-opacity:1;stroke:none;stroke-width:2.29999995;stroke-linecap:square;stroke-linejoin:miter;stroke-miterlimit:100;stroke-dasharray:none;stroke-opacity:1"/><path d="M147.94 1501.401c13.802-10.515 27.633-21.005 41.439-31.518 22.838-17.447 46.133-34.47 68.802-52.07 25.166-19.16 50.249-38.395 75.41-57.559 29.487-22.564 59.297-44.83 89.217-66.993 13.443-9.966 26.786-20.026 40.134-30.081 9.17-6.909 18.35-13.797 27.336-20.873 5.397-4.188 10.501-8.665 16.354-12.42l11.128.935c-.65.32-1.327.606-1.952.96-5.646 3.203-10.262 7.523-15.578 11.064-23.168 16.845-46.24 33.78-69.138 50.882-29.918 22.179-59.911 44.29-89.3 66.961-24.866 19.097-49.428 38.467-74.22 57.63-23.193 17.14-46.299 34.367-68.905 52.047-8.553 6.692-17.111 13.38-25.596 20.133-2.72 2.166-7.895 6.29-10.722 8.666-1.063.893-2.086 1.82-3.128 2.73l-11.282-.494z" style="opacity:1;fill:#000;fill-opacity:1;stroke:none;stroke-width:2.29999995;stroke-linecap:square;stroke-linejoin:miter;stroke-miterlimit:100;stroke-dasharray:none;stroke-opacity:1"/><ellipse cx="204.865" cy="-1461.602" rx="8.893" ry="8.586" style="opacity:1;fill:#000;fill-opacity:1;stroke:none;stroke-width:2.29999995;stroke-linecap:square;stroke-linejoin:miter;stroke-miterlimit:100;stroke-dasharray:none;stroke-opacity:1" transform="scale(1 -1)"/><ellipse cx="456.393" cy="1271.188" rx="8.893" ry="8.586" style="opacity:1;fill:#000;fill-opacity:1;stroke:none;stroke-width:2.29999995;stroke-linecap:square;stroke-linejoin:miter;stroke-miterlimit:100;stroke-dasharray:none;stroke-opacity:1"/><path d="M152.232 1444.94c-1.815 3.597-2.612 7.615-2.89 11.613-.092 1.319-.167 2.645-.085 3.964.084 1.351.387 2.679.58 4.018.387 1.229.642 2.507 1.16 3.686 1.47 3.34 3.997 6.099 7.14 7.927 2.238 1.302 3.207 1.406 5.604 2.051 2.813.237 1.507.282 3.92-.016l-3.266 2.02c-2.477.033-1.144.11-3.992-.331-2.42-.781-3.433-.953-5.675-2.373-3.212-2.033-5.775-4.983-7.271-8.49-.524-1.227-.78-2.551-1.17-3.827-.205-1.388-.523-2.763-.616-4.163-.09-1.346-.009-2.699.071-4.045.243-4.086.965-8.179 2.587-11.954l3.903-.08z" style="opacity:1;fill:#000;fill-opacity:1;stroke:none;stroke-width:2.29999995;stroke-linecap:square;stroke-linejoin:miter;stroke-miterlimit:100;stroke-dasharray:none;stroke-opacity:1"/><path d="M155.946 1456.39c1.89-.343 3.772-.726 5.669-1.029.665-.106 6.456-.749 6.82-.786 1.204-.122 5.983-.555 7.319-.61.964-.04 1.93 0 2.894 0 2.69.138 1.466 0 3.682.354l-3.39 1.85c-2.088-.287-.925-.169-3.495-.292-.938.01-1.876-.014-2.813.029-1.75.079-5.62.447-7.275.627-1.25.137-2.5.292-3.748.454-1.06.138-2.109.389-3.177.446-.475.025.923-.234 1.385-.35l-3.871-.688z" style="opacity:1;fill:#000;fill-opacity:1;stroke:none;stroke-width:2.29999995;stroke-linecap:square;stroke-linejoin:miter;stroke-miterlimit:100;stroke-dasharray:none;stroke-opacity:1"/><path d="M172.43 1447.107a79.973 79.973 0 0 0-2.532 15.71l.063 1.607-3.8.572-.008-1.7c.402-5.345 1.26-10.644 2.391-15.882l3.887-.307zM183.535 1449.17c1.343 1.87 2.745 3.696 4.145 5.522l-3.678 1.159c-1.366-1.85-2.739-3.694-4.193-5.475l3.726-1.205zM192.121 1448.868c.844 2.703-.03 5.417-.76 8.036l-1.888.141c.59-2.052 1.282-4.144 1.092-6.318-.04-.458-.222-.893-.333-1.339l1.89-.52zM196.11 1430.185c1.266 2.209 2.747 4.209 5.032 5.46.746.408 1.544.755 2.377.92.758.152 1.55.084 2.32.013.463-.043-.929-.065-1.393-.098.563-.44 1.21-.789 1.689-1.32 2.327-2.584 2.357-6.371 1.934-9.604-.086-.657-.25-1.302-.375-1.954-.645-2.638-1.001-2.88 3.829-2.713.457.016.64.653.968.973 1.789 1.742 1.297 1.255 3.454 3.038 2.318 1.981 5.055 3.41 7.407 5.343.791.65 2.51 2.264 2.987 3.317.261.576.258 1.238.387 1.857-.059.54-.022 1.1-.177 1.622-.888 2.993-4.474 4.884-7.113 6.007-.87.37-1.78.644-2.669.966l-2.33.641-3.706-.697 2.354-.56c2.715-.888 4.986-1.623 7.328-3.343.933-.685 1.852-1.49 2.298-2.597.166-.41.164-.87.246-1.305-.088-.483-.057-1.004-.263-1.45-.462-.999-2.056-2.465-2.803-3.077-2.37-1.941-5.09-3.425-7.448-5.385-5.18-4.199.49.453-3.588-3.035-.315-.269-1.282-.5-.971-.771 6.546-5.727 3.161-1.98 3.286-.89.052.455.176.898.264 1.348.686 4.154 1.204 8.924-1.523 12.527-.487.642-1.153 1.126-1.729 1.69-1.873.448-3.709 1.098-5.619 1.345-.814.105-1.657-.072-2.445-.304-3.541-1.04-5.9-3.967-7.747-6.97l3.74-.995zM223.059 1421.998c1.183 1.579 2.161 3.299 3.334 4.883l-3.73 1.15c-1.13-1.63-2.139-3.344-3.368-4.906l3.764-1.127zM210.064 1401.227c3.514-.077 7.024.355 10.5.83 1.538.21 4.53.66 6.109 1.113.835.24 1.63.602 2.447.902.721.438 1.52.77 2.164 1.314 3.305 2.79 3.812 7.49 4.022 11.507l-3.77.584c-.072-3.052-.323-6.328-2.127-8.933-1.198-1.73-1.882-1.837-3.67-2.832-.791-.268-1.567-.585-2.372-.804-1.587-.43-4.429-.88-5.979-1.085-3.512-.466-7.065-.805-10.611-.592l3.287-2.004zM395.85 1256.679a56.973 56.973 0 0 0-4.024 10.934c-.834 3.244-1.38 5.871-1.308 9.241.032 1.495.338 2.971.507 4.457.498 1.363.815 2.806 1.493 4.089 1.716 3.24 4.81 6.204 8.546 6.836 1.02.172 2.071.019 3.101-.07.23-.02-.452-.093-.679-.14l3.668.68c-3.186.686-6.153 1.928-9.412 1.102-3.84-.973-6.957-4.154-8.707-7.591-.69-1.354-1.017-2.864-1.526-4.295-.172-1.538-.48-3.067-.515-4.615-.082-3.54.443-6.018 1.281-9.433a68.67 68.67 0 0 1 3.743-11.07l3.831-.125z" style="opacity:1;fill:#000;fill-opacity:1;stroke:none;stroke-width:2.29999995;stroke-linecap:square;stroke-linejoin:miter;stroke-miterlimit:100;stroke-dasharray:none;stroke-opacity:1"/><path d="M400.908 1266.656c3.462.28 6.826 1.216 10.211 1.938 3.463.738 3.474.7 7.03 1.305 3.662.498 7.363 1.007 11.068.85l-3.364 2.006c-3.66-.127-7.303-.545-10.917-1.124-3.966-.685-3.235-.524-7.088-1.323-3.4-.706-6.806-1.606-10.3-1.654l3.36-1.998z" style="opacity:1;fill:#000;fill-opacity:1;stroke:none;stroke-width:2.29999995;stroke-linecap:square;stroke-linejoin:miter;stroke-miterlimit:100;stroke-dasharray:none;stroke-opacity:1"/><path d="M415.26 1260.467c-2.711 7.693-4.444 15.689-6.002 23.682l-3.727.34c1.877-7.95 3.544-15.96 5.923-23.78l3.806-.242zM424.579 1265.454c1.227-2.09 2.596-4.181 4.684-5.492 1.344-.242 2.668-.77 4.033-.727.323.01.322.564.43.868.218.623.29 1.651.326 2.26.1 1.662.055 1.926.015 3.665-.06 1.643-.15 3.285-.222 4.928-.012.287-.037.575-.035.862 0 .137-.021.527.043.407.085-.16.019-.36.028-.54-1.09.127-2.185.55-3.268.38-.38-.06.588-.496.871-.756.422-.386.83-.789 1.245-1.182a145.023 145.023 0 0 1 4.792-4.345c.962-.818 1.986-1.555 3.012-2.287l3.938.508c-1.188.411-2.12 1.383-3.149 2.058a75.724 75.724 0 0 0-4.76 4.278c-.404.396-.796.804-1.195 1.206-.274.277-.46.689-.823.83-1.35.528-2.8.755-4.2 1.133-.617-1.01-.439-.858-.343-2.053.13-1.63.227-3.263.288-4.897.02-1.507.148-3.923-.37-5.376-.01-.025-.025.046-.037.069l3.29-.737c-2.257.679-3.514 2.957-4.683 4.83l-3.91.11zM444.97 1234.907c1.038 3.958 3.034 8.15 7.042 9.864.833.356 1.762.417 2.643.625.88-.104 1.836.062 2.638-.313.342-.16-1.189-.08-1.047-.43.342-.846 1.423-1.166 1.984-1.885 1.262-1.615 1.877-3.435 2.187-5.442.166-1.066.12-2.155.179-3.233-.277-2.682-.177-2.957-.877-5.416-.128-.45-.57-1.927-1.076-2.421-.058-.057-.135.248-.053.24 1.366-.132 2.712-.418 4.068-.628.272.413.52.842.816 1.238 2.956 3.947 6.92 7.193 10.515 10.534 2.105 2.246 5.648 5.656 4.8 9.16-.475 1.966-1.535 2.428-3 3.684-3.567 1.99-7.503 3.167-11.47 4.046l-3.706-.752c.763-.131 1.536-.216 2.289-.394a46.842 46.842 0 0 0 9.138-3.213c1.176-.823 2.46-1.385 2.973-2.854 1.048-3.008-2.726-6.543-4.482-8.417-3.683-3.419-7.66-6.687-10.747-10.684-.33-.427-.612-.888-.918-1.333 1.12-.674 2.177-1.466 3.36-2.021.122-.057.126.236.185.357.153.315.329.621.45.95.872 2.384 1.248 4.915 1.388 7.44-.049 1.136.004 2.282-.147 3.409-.3 2.226-.865 4.075-2.146 5.932-.565.818-1.117 1.752-1.997 2.212-4.099 2.14-4.997 1.876-8.637 1.918-.918-.3-1.891-.463-2.752-.899-4.097-2.075-6.167-6.385-7.453-10.552l3.854-.722zM473.004 1231.795c2.688-2.992 4.832-5.41 9.308-5.42.397-.001.467.642.7.963.095.452.242.895.286 1.355.051.538.018 1.082-.003 1.623-.07 1.837-.372 3.655-.435 5.492.03.123-.009.45.088.369.146-.12.322-.534.134-.552-.978-.093-1.986.541-2.934.285-.434-.118.742-.51 1.1-.781 1-.758 1.968-1.557 2.958-2.329a227.822 227.822 0 0 0 3.968-3.02l3.856.327a203.689 203.689 0 0 1-4.023 3.011c-.512.397-1.032.784-1.536 1.19-2.62 2.111-2.585 2.747-6.858 3.243-.277.032-.42-.385-.548-.633-.092-.178-.057-.396-.085-.594.133-2.276.689-4.58.5-6.869-.024-.288-.126-.564-.189-.847-1.028-.382-1.767-.598 2.504-.835.43-.024-.763.405-1.122.642-1.432.945-2.674 2.13-3.767 3.446l-3.902-.066zM465.073 1205.05c4.366-.455 8.735.241 12.914 1.518 1.32.403 2.636.835 3.896 1.398 1.263.565 2.433 1.317 3.65 1.976 2.628 1.982 3.655 2.312 5.274 5.275 1.619 2.962 1.879 6.35 2.16 9.629l-3.698.604c-.178-3.122-.37-6.32-1.951-9.128-1.53-2.715-2.631-3.112-5.091-4.923-1.197-.618-2.352-1.326-3.592-1.854-1.25-.532-2.549-.946-3.855-1.317-4.227-1.2-8.62-1.704-12.987-1.101l3.28-2.076zM448.123 1256.755c.584 2.367.45 4.761.194 7.157l-2.85.331c.288-2.385.426-4.535-.222-6.89l2.878-.599z" style="opacity:1;fill:#000;fill-opacity:1;stroke:none;stroke-width:2.29999995;stroke-linecap:square;stroke-linejoin:miter;stroke-miterlimit:100;stroke-dasharray:none;stroke-opacity:1"/><path d="M221.177 1460.685c14.038-.583 28.074-1.196 42.122-1.55 15.366-.499 30.754-.704 46.07-2.142 1.52-.288 3.148-.178 4.628-.693l-8.323 5.44c-1.464-.018-2.913.258-4.378.274-15.18.966-30.392 1.172-45.59 1.711a1286.145 1286.145 0 0 0-42.81 2.053l8.28-5.093zM370.952 1456.59c12.34-.485 24.689-.55 37.036-.544 15.858.017 31.716.075 47.573-.108.86-.016 1.72-.027 2.58-.049 4.172-.104 3.985-.917-8.067 4.52-.302.136-.662-.018-.993 0-.443.021-.884.073-1.326.11l8.476-4.983c.506.055 1.019.073 1.52.168.433.082 1.628.097 1.273.358-6.987 5.139-6.114 4.915-11.624 4.728-15.701-.25-31.406-.239-47.11-.149-12.578.136-25.157.295-37.722.939l8.384-4.988z" style="opacity:1;fill:#999;fill-opacity:1;stroke:none;stroke-width:2.29999995;stroke-linecap:square;stroke-linejoin:miter;stroke-miterlimit:100;stroke-dasharray:none;stroke-opacity:1"/><path d="M427.997 1443.239c5.859 2.54 11.843 4.787 17.645 7.458 1.617.744 6.36 3.104 8.147 3.99.858.428 3.185 1.633 4.296 2.065 3.36 1.31 10.113-2.798-8.014 3.375 1.033 4.09-.22.952 8.593-.307.638-.091-1.21.448-1.809.685-4.138 1.636-8.26 3.32-12.384 4.99-4.007 1.768-8.102 3.323-12.138 5.02-.407.17-2.935 1.478-3.64 1.588l-.005-1.222-9.682 2.36-.229-1.78c.16-.222.26-.5.478-.667.55-.423 3.386-1.666 3.61-1.758 4.095-1.689 8.332-3.038 12.335-4.954 5.13-2.137 4.122-1.718 8.94-3.72 1.015-.421 2.042-.814 3.045-1.264.584-.263 1.092-.71 1.71-.873 3.264-.864 6.525-1.891 9.887-2.194.493-.044.558.818.836 1.227 1.527 3.45.554.834-8.888 4.308-.196.072-.368-.2-.554-.296-2.105-1.08.193.145-2.611-1.368-.823-.443-1.645-.889-2.467-1.333-2.61-1.336-5.264-2.728-7.931-3.94-5.916-2.69-12.042-4.872-18.053-7.331l8.884-4.06z" style="opacity:1;fill:#999;fill-opacity:1;stroke:none;stroke-width:2.29999995;stroke-linecap:square;stroke-linejoin:miter;stroke-miterlimit:100;stroke-dasharray:none;stroke-opacity:1"/><path d="M455.914 1456.7c.145-9.647.153-19.295.189-28.943-.266-13.249-.603-26.496-.788-39.746l-.065-4.06 5.652-.825-.03 4.067c.037 13.26.37 26.516.695 39.772.035 9.63.043 19.26.188 28.888l-5.84.847zM453.804 1336.911c-.12-5.66-.59-11.306-.767-16.962-.116-3.733-.073-6.287-.055-9.996.04-6.052.849-12.058 1.212-18.09.184-3.054.138-4.348.129-7.304l-.088-2.493 5.756-.87.035 2.54c-.024 2.784-.007 4.588-.183 7.43-.371 5.996-1.203 11.967-1.26 17.986-.036 3.544-.102 6.358.021 9.916.195 5.638.71 11.266.986 16.899l-5.786.944z" style="opacity:1;fill:#999;fill-opacity:1;stroke:none;stroke-width:2.29999995;stroke-linecap:square;stroke-linejoin:miter;stroke-miterlimit:100;stroke-dasharray:none;stroke-opacity:1"/><path d="M446.014 1297.677c2.51-5.49 5.266-10.868 7.693-16.396 1.459-2.866 1.289-3.235 6.925-1.13.56.208.093 1.192.176 1.784.296 2.11.642 3.427 1.121 5.59 1.036 4.15 2.664 8.095 4.573 11.912 1.403 2.803 2.635 4.997 4.69 7.324l-5.567 1.82c-4.43-5.75-7.255-13.014-9.343-19.906-.585-2.43-.872-3.406-1.267-5.732-.088-.525-.693-1.366-.207-1.584 1.752-.784 3.819-.45 5.692-.87.355-.08-2.423-1.588-.928.573-2.566 5.463-5.323 10.835-7.68 16.395l-5.878.22z" style="opacity:1;fill:#999;fill-opacity:1;stroke:none;stroke-width:2.29999995;stroke-linecap:square;stroke-linejoin:miter;stroke-miterlimit:100;stroke-dasharray:none;stroke-opacity:1"/><path d="M434.927 1356.001c10.74-.523 21.457-1.546 32.216-1.481l6.099 7.244c-1.495-.076-2.988-.21-4.484-.228-4.256-.052-7.9.2-12.163.494-3.825.263-7.65.529-11.469.879-1.211.111-2.417.273-3.626.41l-6.573-7.318z" style="opacity:1;fill:#000;fill-opacity:1;stroke:none;stroke-width:2.29999995;stroke-linecap:square;stroke-linejoin:miter;stroke-miterlimit:100;stroke-dasharray:none;stroke-opacity:1"/><path d="M461.91 1349.527c.033 8.07-.746 16.126-.561 24.195l.333 2.423-8.746-4.201-.136-2.57c.136-8.097.769-16.19.388-24.29l8.721 4.443zM596.912 1477.594c9.981-9.03 20.523-17.392 30.99-25.841 17.922-13.999 35.247-28.734 52.687-43.323 20.269-16.998 40.585-33.937 60.627-51.202 11.081-9.495 22.348-18.766 33.58-28.08 3.654-3.03 7.259-6.118 10.927-9.13 3.082-2.531 20.424-16.468 23.447-18.9 3.956-3.223 7.909-6.45 11.87-9.669 6.771-5.501 16.619-13.422 23.353-19.01 10.785-8.947 21.351-18.15 31.927-27.343 15.042-13.017 29.819-26.333 44.8-39.42 4.632-4.12 2.54-2.218 6.294-5.683l13.097 11.248c-4.15 3.14-1.868 1.4-6.836 5.236-15.64 12.375-30.57 25.588-45.83 38.42-10.705 9.134-21.38 18.305-32.247 27.246-7.854 6.462-15.52 12.536-23.414 18.951-3.966 3.223-7.91 6.473-11.864 9.71-22.767 18.453-45.43 37.042-67.66 56.14a3918.798 3918.798 0 0 1-60.439 51.447c-17.31 14.714-34.572 29.481-52.1 43.936-10.167 8.396-20.512 16.691-29.602 26.274l-13.607-11.007z" style="opacity:1;fill:#000;fill-opacity:1;stroke:none;stroke-width:2.29999995;stroke-linecap:square;stroke-linejoin:miter;stroke-miterlimit:100;stroke-dasharray:none;stroke-opacity:1"/><ellipse cx="644.326" cy="-1447.207" rx="17.524" ry="16.92" style="opacity:1;fill:#000;fill-opacity:1;stroke:none;stroke-width:2.29999995;stroke-linecap:square;stroke-linejoin:miter;stroke-miterlimit:100;stroke-dasharray:none;stroke-opacity:1" transform="scale(1 -1)"/><ellipse cx="882.217" cy="-1249.217" rx="17.524" ry="16.92" style="opacity:1;fill:#000;fill-opacity:1;stroke:none;stroke-width:2.29999995;stroke-linecap:square;stroke-linejoin:miter;stroke-miterlimit:100;stroke-dasharray:none;stroke-opacity:1" transform="scale(1 -1)"/><path d="M561.517 1417.59c-2.028 4.12-3.343 8.535-4.354 13.003-1.09 4.822-1.713 8.326-1.835 13.285-.05 2.052.16 4.103.24 6.154 1.028 3.82 1.196 6.25 3.766 9.345.918 1.106 4.192 3.898 3.319 2.756-1.088-1.423-3.925-1.824-3.975-3.614-.04-1.411 2.572 1.184 3.919 1.609 1.274.402 2.61.575 3.915.862l3.215.285 6.46 9.285-3.624-.204c-2.146-.298-7.072-.783-8.99-1.89-4.89-2.823-11.707-6.547-14.843-12.054-2.18-3.83-2.216-6.385-2.983-10.711.009-2.15-.089-4.303.026-6.45.504-9.43 2.756-19.019 5.883-27.913l9.861 6.252zM590.673 1410.931c-.802 8.922-2.11 17.786-3.256 26.667-.421 3.443-.779 6.88-.751 10.35l-11.25-2.638c.432-3.487 1-6.954 1.459-10.439 1.16-8.874 2.46-17.772 2.353-26.746l11.445 2.806z" style="opacity:1;fill:#000;fill-opacity:1;stroke:none;stroke-width:2.29999995;stroke-linecap:square;stroke-linejoin:miter;stroke-miterlimit:100;stroke-dasharray:none;stroke-opacity:1"/><path d="M558.596 1426.75c9.531-2.796 19.591-2.376 29.407-2.031 4.143.194 8.282.468 12.42.742l8.217 7.72c-4.179-.367-8.353-.806-12.547-.977-9.296-.67-18.849-1.279-27.939 1.234l-9.558-6.687zM616.652 1416.415c1.902 2.275 3.954 4.42 6.04 6.527.97.98 2.764 2.795 3.913 3.7.453.358.964.636 1.445.953l-10.333 5.325c-4.177-3.716-7.831-7.983-11.815-11.9l10.75-4.605zM628.46 1376.842c.475 1.175.841 2.402 1.427 3.527 1.383 2.66 3.66 6.096 5.995 8.045 2.104 1.756 4.576 2.943 7.387 2.38 1.132-.225 2.062-1.038 3.093-1.558-2.187.249-4.71 1.936-6.56.746-1.171-.753 1.708-2.226 2.296-3.488 1.959-4.201 2.295-9.022 2.021-13.577-.057-.948-.246-1.884-.37-2.826-.102-.472-.75-1.229-.306-1.416 3.668-1.545 7.51-2.984 11.478-3.29.834-.064.582 1.572.932 2.333.438.95.907 1.888 1.431 2.793 2.168 3.745 2.731 4.233 5.47 7.833 3.175 4.118 7.096 7.607 10.222 11.767.856 1.139 1.754 2.276 2.35 3.57 1.587 3.454 1.08 4.265.814 7.867-.598 1.272-.993 2.662-1.795 3.817-1.735 2.501-4.453 4.499-7.01 6.047-1.2.726-2.417 1.466-3.746 1.911-4.181 1.4-8.485 2.403-12.728 3.605l8.114-7.921c-2.11.677-4.18 1.497-6.331 2.03-1.283.32 2.515-.83 3.717-1.381 2.02-.928 5.05-2.7 6.703-4.282.72-.688 1.214-1.578 1.821-2.366.207-.834.622-1.643.62-2.501-.005-2.443-1.3-4.168-2.683-6.057-3.09-4.22-6.965-7.797-10.167-11.926-1.128-1.439-2.298-2.847-3.384-4.317-2.86-3.87-2.186-3.198-4.404-6.763-.262-.422-1.272-1.006-.831-1.236a44.778 44.778 0 0 1 10.848-3.988c.504-.113.012 1.033.018 1.55.344 6.243.319 12.598-1.757 18.59-.583 1.683-.768 3.818-2.21 4.863-3.758 2.722-8.413 3.92-12.62 5.88-1.374.078-2.76.435-4.122.234-7.03-1.036-11.623-7.86-14.897-13.47-.78-1.336-1.418-2.748-2.128-4.122l11.291-2.903zM673.472 1369.269c4.313 3.1 7.756 7.151 11.368 10.996l-10.578 4.687c-3.232-3.759-6.597-7.51-11.032-9.88l10.242-5.803zM636.387 1339.927c4.16-1.084 8.262-2.423 12.48-3.252 1.33-.26 2.715-.085 4.068 0 4.125.266 6.4.788 10.437 2.102 2.035.663 4.07 1.356 6.012 2.257 2.045.949 3.943 2.186 5.914 3.279 1.66 1.285 3.46 2.405 4.979 3.856 2.79 2.665 4.61 5.476 6.03 9.026 1.361 3.399 1.716 6.992 1.898 10.598l-11.32 2.016c.041-.767.145-1.534.123-2.302-.06-2.122-.416-4.76-1.157-6.737-1.932-5.157-5.234-8.055-9.75-11.016-1.892-.934-3.718-2.013-5.674-2.802-3.34-1.346-7.72-2.455-11.335-2.83a27.898 27.898 0 0 0-4.592-.073c-1.295.08-5.04 1.103-3.845.595 2.26-.96 4.73-1.318 7.096-1.977l-11.364-2.742zM792.975 1211.84c-.446 1.21-.987 2.39-1.337 3.631-2.39 8.46-3.135 18.081-1.413 26.733.435 2.183 1.226 4.28 1.839 6.419 1.034 1.932 1.87 3.984 3.102 5.796 2.201 3.238 5.067 5.948 8.23 8.216 1.87 1.342 3.874 2.468 6.156 2.897.626.118 1.275.01 1.913.014 3.497-.835 14.444-3.708-1.082.251l11.178 2.739c-2.308.648-12.346 4.154-17.078 4.1-.797-.01-1.583-.18-2.374-.271-.741-.266-1.51-.466-2.224-.798-5.63-2.62-11.483-8.552-14.741-13.668-1.305-2.05-2.209-4.328-3.313-6.492-.64-2.321-1.463-4.6-1.92-6.964-.469-2.425-.7-4.895-.85-7.36-.51-8.36.627-16.641 2.157-24.836l11.757-.407z" style="opacity:1;fill:#000;fill-opacity:1;stroke:none;stroke-width:2.29999995;stroke-linecap:square;stroke-linejoin:miter;stroke-miterlimit:100;stroke-dasharray:none;stroke-opacity:1"/><path d="M802.963 1224.893c1.134.14 2.264.315 3.401.42 3.553.326 7.243.45 10.797.623 6.815.33 13.631.577 20.449.844 4.31.226 8.617.468 12.927.692l-8.989 7.075c-4.07-.466-8.151-.836-12.245-1.053-6.843-.314-13.686-.545-20.533-.762-3.74-.118-7.479-.299-11.22-.357-1.206-.02-2.412.02-3.617.029l9.03-7.511z" style="opacity:1;fill:#000;fill-opacity:1;stroke:none;stroke-width:2.29999995;stroke-linecap:square;stroke-linejoin:miter;stroke-miterlimit:100;stroke-dasharray:none;stroke-opacity:1"/><path d="M829.521 1214.09a1053.7 1053.7 0 0 0-3.562 32.139l-10.886 1.466c1.656-10.502 3.06-21.093 3.11-31.743l11.338-1.861zM840.392 1222.872c1.258-2.095 2.676-4.103 4.4-5.844.512-.515 2.258-2.125 3.097-2.385 2.087-.648 4.256-.998 6.383-1.496.46.424 1.023.757 1.377 1.272 1.428 2.081 1.499 5.041 1.52 7.434.023 2.83-.145 4.746-.318 7.588-.213 3.015-.448 6.028-.624 9.044-.044.749-.111 1.533-.093 2.29-1.91.02-3.824.21-5.728.061-.187-.015.194-.322.286-.486.154-.27.284-.557.454-.818.861-1.32 1.944-2.493 2.983-3.668 3.31-3.405 6.898-6.531 10.474-9.651.675-.578 1.399-1.092 2.103-1.633l5.902.77c-.722.537-1.446 1.072-2.23 1.52-3.651 2.923-7.087 6.124-10.449 9.373a63.803 63.803 0 0 0-2.865 3.387c-.144.182-.323.339-.439.54-.12.21-.025.624-.26.677-2.016.455-4.1.514-6.15.772.175-.722.227-1.56.303-2.278.318-3.005.555-6.017.79-9.03.197-3.345.307-4.086.25-7.373-.025-1.418.01-4.548-1.104-5.767-.136-.15-.392-.099-.588-.148 1.25-.425 2.497-.863 3.752-1.275.493-.162-1.01.272-1.464.524-2.609 1.444-4.338 4.1-5.907 6.528l-5.855.073zM871.983 1206.489c2.084 3.765 3.538 7.842 5.014 11.873l-5.478 1.622c-1.333-3.883-2.686-7.828-4.955-11.282l5.419-2.213zM901.363 1177.208c1.762-2.723 3.771-5.414 6.454-7.303.418-.294.875-.527 1.313-.791 2.456-1.066 3.456-1.606 7.182-1.508.532.014.766.754 1.04 1.21 1.127 1.876 1.17 4.232 1.358 6.33.257 4.936-.18 9.873-.427 14.801-.118 3.035.562 2.05-5.63 1.311-.253-.03.405-.305.607-.458l.83-.634c4.116-3.215 8.102-6.594 12.203-9.83 1.37-1.103 2.848-2.06 4.258-3.109l5.86 1.065c-1.648.578-2.973 1.874-4.443 2.762-4.142 3.138-8.135 6.466-12.032 9.902-.265.185-.538.359-.794.555-.2.152-.326.457-.576.488-6.891.85-6.371 2.16-6.074-1.158.41-4.824.9-9.672.59-14.515-.145-1.438-.177-2.662-.607-4.031-.104-.331-.238-.664-.452-.937-.079-.1-.487-.07-.366-.11 1.411-.463 2.88-.738 4.297-1.182.348-.109-.719.116-1.079.174-.428.158-.877.268-1.285.472-2.741 1.371-4.706 4.02-6.341 6.513l-5.886-.017zM867.242 1177.59c.51 4.296 1.84 8.697 4.879 11.931.806.858 1.713 1.663 2.757 2.205.904.469 1.972.506 2.957.76.946-.319 3.834-.947 2.837-.954-2.245-.016-4.575 1.731-6.67.926-1.122-.431 1.88-1.533 2.61-2.487 1.644-2.15 2.724-5.047 3.292-7.653.28-1.28.305-2.6.457-3.901-.054-1.031-.039-2.068-.163-3.093a8.884 8.884 0 0 0-.447-1.926c-.076-.211-.654-.484-.432-.516 3.76-.545 7.613-.376 11.35-1.067.343-.064-.22-1.242.069-1.046.515.349.563 1.11.845 1.665 3.588 5.549 9.095 9.436 13.552 14.22.956 1.025 1.805 2.144 2.708 3.217.625 1.158 1.418 2.24 1.876 3.474 1.305 3.525 1.142 7.539-.66 10.86-1.516 2.795-2.732 3.452-5.083 5.432-3.354 2.047-1.743 1.185-4.794 2.657l-11.237-2.663c3.09-.662 1.47-.177 4.821-1.582 2.064-1.154 3.372-1.635 4.933-3.47a7.578 7.578 0 0 0 1.377-7.483c-.355-1-1.009-1.866-1.513-2.799-.827-.978-1.607-1.999-2.481-2.935-4.745-5.08-10.604-9.188-14.4-15.105-.246-.445-3.11-5.07-1.905-5.585 13.107-5.598 12.428-1.98 12.626 6.196-.156 1.505-.196 3.026-.467 4.515-.561 3.095-1.604 6.472-3.16 9.228-.748 1.326-1.323 2.991-2.665 3.71-10.365 5.553-9.48 5.076-16.821 4.211-1.166-.634-2.436-1.106-3.498-1.902-5.18-3.883-7.575-10.356-8.995-16.412l11.445-2.629zM885.066 1131.411c5.096.112 10.21.41 15.208 1.491 4.494.973 6.07 1.66 10.406 3.152 6.966 2.972 12.65 5.905 16.773 12.568 2.223 3.593 2.078 4.415 2.97 8.37.166 4.455.256 2.362-.16 6.282l-11.414 1.398c.729-3.09.472-1.433.671-4.984-.201-1.11-.247-2.259-.603-3.328-2.614-7.853-10.174-11.465-17.322-14.224-1.656-.508-3.29-1.095-4.969-1.523-5.427-1.384-11.945-2.154-17.555-1.56-.834.087-1.648.307-2.472.461l8.467-8.103zM638.436 1403.248c3.036 1.895 4.396 3.48 4.53 7.297.086 2.464-.486 4.13-1.052 6.498-1.106 3.822-.572 2.009-1.599 5.442l-5.729.433c1.103-3.38.541-1.6 1.676-5.343.669-2.516 1.673-5.34.78-7.96-.582-1.707-2.129-2.514-3.621-3.252l5.015-3.115z" style="opacity:1;fill:#000;fill-opacity:1;stroke:none;stroke-width:2.29999995;stroke-linecap:square;stroke-linejoin:miter;stroke-miterlimit:100;stroke-dasharray:none;stroke-opacity:1"/><path d="M660.016 1448.792c1.63.078 3.26.189 4.891.235 4.394.123 8.287.053 12.703.014 8.158-.072 16.316-.127 24.475-.182 21.673-.123 43.34-.667 65.003-1.263 11.114-.298 22.22-.833 33.334-1.159 3.598-.105 7.198-.146 10.796-.246 5.977-.168 14.224-.493 20.225-.719 13.36-.54 26.685-1.7 40.043-2.258 2.075-.067 4.15-.108 6.225-.094l-11.324 9.305c-1.89-.057-3.78-.133-5.671-.108-12.945.067-25.866.84-38.8 1.263-21.337.66-42.679 1.113-64.014 1.8-21.881.622-43.76 1.311-65.646 1.711-8.274.116-16.544.307-24.817.49-4.355.095-8.712.093-13.067.208-1.82.048-3.637.157-5.456.235l11.1-9.232z" style="opacity:1;fill:gray;fill-opacity:1;stroke:none;stroke-width:2.29999995;stroke-linecap:square;stroke-linejoin:miter;stroke-miterlimit:100;stroke-dasharray:none;stroke-opacity:1"/><path d="M853.91 1427.55c7.06 3.38 14.474 5.996 21.854 8.584 7.46 2.742 15.186 4.861 22.407 8.218.396.217.878.321 1.187.65 1.025 1.092 2.111 4.777.627 5.65-5.657 3.322-12.996 4.05-19.491 5.162-1.323.286-2.649.56-3.97.857-1.477.331-2.953.668-4.424 1.027-1.582.386-6.31 1.622-4.735 1.207 13.428-3.531 6.635-1.774 3.185-.647-.979.32-1.938.697-2.906 1.046l-13.832-3.12c1.066-.434 2.114-.917 3.199-1.302a61.164 61.164 0 0 1 4.065-1.274c9.843-2.734 19.711-5.396 29.703-7.536 1.11-.249 2.224-.48 3.33-.745.781-.187 3.092-.866 2.33-.61-3.68 1.238-7.886 1.367-11.092 3.558-.968.662.563 2.279.914 3.398.08.254.619.598.375.707-.3.134-.57-.329-.857-.493-6.863-3.405-14.22-5.658-21.419-8.226-4.302-1.482-5.615-1.919-9.831-3.432-3.636-1.305-7.246-2.69-10.891-3.968-.677-.237-1.364-.442-2.047-.663l12.318-8.047z" style="opacity:1;fill:gray;fill-opacity:1;stroke:none;stroke-width:2.29999995;stroke-linecap:square;stroke-linejoin:miter;stroke-miterlimit:100;stroke-dasharray:none;stroke-opacity:1"/><path d="M888.38 1442.997c.05-9.556-.365-19.101-.811-28.644-.284-8.541-1.01-17.056-1.557-25.581-.652-10.14-1.118-20.292-1.646-30.438-.735-20.164-1.617-40.321-2.512-60.479-.353-8.626-1.097-17.229-1.45-25.854l13.734-2.37c-.097 1.386-.26 2.77-.292 4.16-.168 7.227.415 14.462.536 21.684.19 6.141.32 12.285.51 18.426.434 14.022 1.03 28.04 1.606 42.055 1.083 18.63 2.542 37.23 4.004 55.833.724 9.428 1.43 18.862 2.264 28.28l-14.386 2.928z" style="opacity:1;fill:gray;fill-opacity:1;stroke:none;stroke-width:2.29999995;stroke-linecap:square;stroke-linejoin:miter;stroke-miterlimit:100;stroke-dasharray:none;stroke-opacity:1"/><path d="M861.73 1309.724c3.497-8.717 6.73-17.535 10.173-26.273 2.19-5.46 4.26-10.999 7.164-16.131 3.16-4.886 1.988-3.615 14.155-5.703.816-.14 3.489 5.08 3.954 5.92.375.632.72 1.283 1.123 1.898 1.368 2.08 2.314 3.162 3.938 5.157 2.018 2.479 3.65 4.504 5.813 6.877 1.006 1.104 2.064 2.16 3.096 3.24 2.242 2.183 4.455 4.385 6.796 6.462l-13.044 6.116c-2.132-2.288-4.24-4.599-6.384-6.876-5.26-5.71-10.623-11.419-15.046-17.815-.28-.436-.552-.878-.843-1.307-.16-.235-.297-.494-.509-.683-.05-.044-.21-.01-.192.059.117.409.127 1.256.54 1.155 3.847-.945 16.652-5.789 11.203-3.972-.331.32-.707.598-.993.957-.758.952-1.893 3.034-2.4 4.008-1.689 3.255-3.071 6.656-4.593 9.989-3.603 8.463-6.856 17.088-9.45 25.917l-14.5 1.005z" style="opacity:1;fill:gray;fill-opacity:1;stroke:none;stroke-width:2.29999995;stroke-linecap:square;stroke-linejoin:miter;stroke-miterlimit:100;stroke-dasharray:none;stroke-opacity:1"/><path d="M724.842 1487.613c7.696-2.451 7.42-2.46 19.978-4.955 2.064-.41 4.183-.457 6.277-.662 7.904-.774 15.82-1.275 23.745-1.782 9.732-.854 19.499-.987 29.26-1.146l-10.797 8.963c-9.392-.217-18.784.078-28.16.636-7.995.614-16.005 1.186-23.944 2.357-2.14.315-7.733 2.805-6.395 1.106 1.527-1.939 4.77-1.28 7.121-2.028.921-.293-1.882.44-2.824.661l-14.26-3.15z" style="opacity:1;fill:#000;fill-opacity:1;stroke:none;stroke-width:2.29999995;stroke-linecap:square;stroke-linejoin:miter;stroke-miterlimit:100;stroke-dasharray:none;stroke-opacity:1"/><path d="M775.866 1460.275c1.84 5.778 1.79 11.95 1.977 17.946.398 12.742.007 2.094.51 14.983.282 6.008.72 12.002 1.3 17.987l-13.506 2.695c-.21-6.073-.36-12.147-.662-18.216-.208-4.586-.435-10.266-.76-14.858-.331-4.676-.592-9.612-2.039-14.12-.204-.638-.53-1.23-.795-1.844l13.975-4.573zM909.573 1359.244c8.103-.745 16.14-2.065 24.234-2.883 3.925-.397 10.24-.849 14.173-1.145 5.68-.355 11.36-.681 17.046-.882 3.884-.137 2.38-.164 5.56.04l-11.325 9.058c-7.072-.358-14.165.055-21.222.5-13.134 1.087-26.343 2.303-39.17 5.463l10.704-10.15z" style="opacity:1;fill:#000;fill-opacity:1;stroke:none;stroke-width:2.29999995;stroke-linecap:square;stroke-linejoin:miter;stroke-miterlimit:100;stroke-dasharray:none;stroke-opacity:1"/><path d="M941.888 1331.676c.025 1.119.071 2.237.075 3.357.011 2.898-.107 8.538-.137 11.237-.074 6.686-.124 13.37-.1 20.056-.066 5.638.11 11.264.922 16.845l-14.038 2.92c-.229-5.817-.27-11.636-.051-17.455.11-7.926.112-5.297.069-13.453-.031-5.765-.012-11.563-.569-17.31-.1-1.025-.29-2.04-.435-3.06l14.265-3.137z" style="opacity:1;fill:#000;fill-opacity:1;stroke:none;stroke-width:2.29999995;stroke-linecap:square;stroke-linejoin:miter;stroke-miterlimit:100;stroke-dasharray:none;stroke-opacity:1"/><ellipse cx="1225.164" cy="-1472.461" rx="17.524" ry="16.92" style="opacity:1;fill:#000;fill-opacity:1;stroke:none;stroke-width:2.29999995;stroke-linecap:square;stroke-linejoin:miter;stroke-miterlimit:100;stroke-dasharray:none;stroke-opacity:1" transform="scale(1 -1)"/><ellipse cx="1463.055" cy="-1274.471" rx="17.524" ry="16.92" style="opacity:1;fill:#000;fill-opacity:1;stroke:none;stroke-width:2.29999995;stroke-linecap:square;stroke-linejoin:miter;stroke-miterlimit:100;stroke-dasharray:none;stroke-opacity:1" transform="scale(1 -1)"/><path d="M1123.8 1441.145c-.446 1.21-.987 2.39-1.337 3.63-2.39 8.46-3.135 18.082-1.413 26.734.435 2.182 1.226 4.279 1.839 6.418 1.034 1.933 1.87 3.985 3.102 5.797 2.201 3.237 5.067 5.948 8.23 8.216 1.87 1.342 3.874 2.467 6.156 2.897.626.118 1.275.01 1.913.014 3.497-.835 14.444-3.708-1.082.25l11.177 2.74c-2.307.647-12.345 4.153-17.077 4.1-.797-.01-1.583-.181-2.374-.272-.741-.265-1.51-.465-2.224-.797-5.63-2.62-11.483-8.552-14.741-13.669-1.305-2.049-2.209-4.327-3.313-6.49-.64-2.322-1.463-4.601-1.92-6.965-.469-2.425-.7-4.895-.85-7.36-.51-8.36.627-16.641 2.157-24.837l11.757-.407z" style="opacity:1;fill:#000;fill-opacity:1;stroke:none;stroke-width:2.29999995;stroke-linecap:square;stroke-linejoin:miter;stroke-miterlimit:100;stroke-dasharray:none;stroke-opacity:1"/><path d="M1133.788 1454.198c1.134.14 2.264.315 3.401.42 3.553.325 7.243.45 10.797.622 6.815.33 13.631.577 20.449.845 4.31.226 8.617.467 12.927.692l-8.989 7.074c-4.07-.466-8.152-.836-12.245-1.053-6.843-.314-13.686-.544-20.533-.761-3.74-.119-7.479-.3-11.22-.358-1.206-.019-2.412.02-3.617.03l9.03-7.511z" style="opacity:1;fill:#000;fill-opacity:1;stroke:none;stroke-width:2.29999995;stroke-linecap:square;stroke-linejoin:miter;stroke-miterlimit:100;stroke-dasharray:none;stroke-opacity:1"/><path d="M1160.346 1443.395a1053.604 1053.604 0 0 0-3.562 32.138l-10.887 1.467c1.657-10.502 3.062-21.094 3.11-31.743l11.34-1.862zM1171.217 1452.176c1.258-2.094 2.676-4.102 4.4-5.843.512-.516 2.258-2.125 3.097-2.385 2.087-.648 4.255-.998 6.383-1.497.46.425 1.023.758 1.377 1.273 1.428 2.08 1.498 5.04 1.52 7.434.023 2.83-.145 4.745-.318 7.588-.214 3.014-.448 6.027-.624 9.044-.044.748-.111 1.533-.093 2.289-1.91.02-3.824.21-5.728.062-.187-.015.193-.323.286-.486.154-.271.284-.557.454-.818.861-1.32 1.944-2.493 2.983-3.669 3.31-3.404 6.897-6.53 10.474-9.65.675-.578 1.399-1.093 2.103-1.633l5.902.77c-.723.536-1.446 1.072-2.23 1.519-3.651 2.924-7.087 6.125-10.449 9.374a63.803 63.803 0 0 0-2.865 3.386c-.144.183-.323.34-.439.541-.12.21-.025.623-.26.677-2.016.455-4.1.514-6.15.771.175-.721.227-1.56.303-2.277.318-3.005.555-6.017.79-9.03.197-3.346.307-4.087.25-7.373-.025-1.419.01-4.548-1.104-5.767-.136-.15-.392-.1-.588-.149 1.25-.425 2.497-.863 3.752-1.275.492-.162-1.01.273-1.465.524-2.608 1.444-4.338 4.101-5.906 6.528l-5.855.073zM1202.808 1435.793c2.084 3.766 3.538 7.842 5.014 11.873l-5.478 1.622c-1.333-3.882-2.686-7.827-4.955-11.281l5.419-2.214zM1232.188 1406.513c1.762-2.723 3.771-5.414 6.454-7.303.418-.294.875-.528 1.313-.792 2.456-1.065 3.456-1.605 7.182-1.507.532.014.766.754 1.04 1.21 1.127 1.876 1.17 4.232 1.358 6.33.257 4.936-.18 9.872-.428 14.8-.117 3.036.563 2.051-5.63 1.312-.252-.03.406-.305.608-.459.277-.21.553-.422.83-.634 4.116-3.215 8.102-6.593 12.203-9.829 1.37-1.103 2.848-2.061 4.258-3.11l5.86 1.066c-1.648.577-2.973 1.873-4.443 2.761-4.142 3.138-8.135 6.467-12.032 9.903-.265.185-.538.359-.794.554-.2.152-.326.457-.576.488-6.891.85-6.371 2.16-6.074-1.158.41-4.823.9-9.671.59-14.514-.145-1.439-.177-2.663-.607-4.032-.104-.33-.238-.664-.452-.937-.078-.1-.487-.069-.366-.109 1.411-.463 2.88-.738 4.297-1.182.348-.11-.719.116-1.079.174-.428.157-.877.267-1.285.472-2.741 1.37-4.706 4.02-6.341 6.513l-5.886-.017zM1198.067 1406.894c.51 4.296 1.84 8.698 4.879 11.932.806.857 1.712 1.663 2.757 2.205.903.468 1.971.506 2.957.759.946-.318 3.834-.947 2.837-.954-2.245-.016-4.575 1.732-6.67.927-1.122-.432 1.88-1.533 2.61-2.488 1.644-2.15 2.723-5.046 3.292-7.653.28-1.279.305-2.6.457-3.9-.054-1.032-.04-2.069-.163-3.093a8.884 8.884 0 0 0-.447-1.927c-.076-.21-.654-.483-.432-.515 3.76-.545 7.613-.376 11.35-1.067.343-.064-.22-1.242.069-1.046.515.349.563 1.11.845 1.664 3.588 5.55 9.095 9.437 13.552 14.22.956 1.026 1.805 2.145 2.707 3.217.626 1.158 1.42 2.24 1.876 3.474 1.306 3.525 1.143 7.54-.658 10.86-1.517 2.795-2.734 3.452-5.084 5.433-3.354 2.047-1.743 1.185-4.794 2.657l-11.237-2.664c3.09-.662 1.47-.176 4.821-1.582 2.064-1.154 3.372-1.634 4.933-3.469a7.578 7.578 0 0 0 1.377-7.483c-.355-1-1.009-1.866-1.513-2.8-.827-.977-1.607-1.998-2.482-2.934-4.744-5.08-10.603-9.189-14.398-15.106-.247-.445-3.111-5.07-1.906-5.584 13.107-5.598 12.428-1.981 12.626 6.196-.156 1.504-.197 3.026-.467 4.514-.562 3.095-1.604 6.473-3.16 9.229-.749 1.326-1.323 2.99-2.665 3.71-10.365 5.553-9.48 5.076-16.822 4.21-1.165-.633-2.435-1.106-3.497-1.902-5.18-3.882-7.575-10.355-8.995-16.412l11.445-2.628zM1215.89 1360.716c5.097.112 10.212.41 15.21 1.491 4.493.972 6.068 1.659 10.405 3.152 6.966 2.971 12.65 5.904 16.773 12.568 2.223 3.593 2.078 4.414 2.97 8.37.166 4.454.256 2.361-.16 6.282l-11.415 1.398c.73-3.09.473-1.434.672-4.984-.201-1.11-.247-2.259-.603-3.329-2.614-7.852-10.174-11.464-17.322-14.224-1.656-.507-3.29-1.094-4.969-1.522-5.427-1.385-11.945-2.155-17.555-1.561-.834.088-1.648.308-2.472.462l8.467-8.103z" style="opacity:1;fill:#000;fill-opacity:1;stroke:none;stroke-width:2.29999995;stroke-linecap:square;stroke-linejoin:miter;stroke-miterlimit:100;stroke-dasharray:none;stroke-opacity:1"/><path d="M1463.2 1461.614c.249-9.385.032-18.77-.217-28.154-.106-8.396-.655-16.776-1.027-25.161-.441-9.973-.697-19.956-1.015-29.934-.317-19.822-.782-39.641-1.259-59.46-.175-8.482-.74-16.949-.915-25.428l13.78-2.04c-.125 1.361-.317 2.717-.378 4.082-.317 7.095.116 14.214.087 21.31.062 6.037.066 12.075.129 18.112.143 13.782.449 27.564.735 41.344.696 18.323 1.77 36.624 2.847 54.929.528 9.277 1.04 18.559 1.677 27.828l-14.443 2.572z" style="opacity:1;fill:gray;fill-opacity:1;stroke:none;stroke-width:2.29999995;stroke-linecap:square;stroke-linejoin:miter;stroke-miterlimit:100;stroke-dasharray:none;stroke-opacity:1"/><path d="M1319.88 1512.867c7.696-2.451 7.42-2.46 19.978-4.955 2.063-.41 4.183-.457 6.277-.662 7.904-.774 15.82-1.275 23.744-1.782 9.733-.854 19.5-.987 29.26-1.146l-10.797 8.963c-9.391-.217-18.783.077-28.16.636-7.995.614-16.004 1.186-23.943 2.356-2.14.316-7.734 2.806-6.395 1.107 1.527-1.939 4.769-1.28 7.12-2.028.922-.293-1.882.44-2.823.66l-14.261-3.15zM1490.41 1384.498c8.104-.745 16.14-2.065 24.234-2.883 3.925-.397 10.241-.849 14.174-1.146 5.679-.355 11.36-.68 17.046-.881 3.883-.138 2.38-.165 5.56.04l-11.326 9.058c-7.071-.359-14.164.055-21.222.5-13.133 1.087-26.343 2.303-39.168 5.463l10.702-10.15z" style="opacity:1;fill:#000;fill-opacity:1;stroke:none;stroke-width:2.29999995;stroke-linecap:square;stroke-linejoin:miter;stroke-miterlimit:100;stroke-dasharray:none;stroke-opacity:1"/><path d="M1455.008 1425.204c5.544 13.128 11.3 26.143 18.193 38.098.723 1.113 1.45 2.223 2.169 3.34.472.733.936 1.474 1.405 2.21.248.39.498.778.744 1.17.096.152.419.374.283.464-10.154 6.786-7.226 8.933-10.99 5.754-4.66-3.501 5.09-8.941 9.512-6.371.016.01.246.158.304.053.112-.202-.102-.48-.177-.707-.084-.255-.034-.846-.238-.773-3.174 1.144-6.23 2.818-9.346 4.227.166-.403.358-.789.496-1.21.856-2.609 1.549-5.305 2.332-7.953a815.41 815.41 0 0 1 6.742-21.717c3.008-8.333 1.564-4.46 4.305-11.633l10.619-.095c-2.905 6.941-1.398 3.188-4.476 11.29-3.44 10.269-6.704 20.74-9.064 31.521-9.096 4.922-8.178 8.495-11.598 2.809-2.453-4.717-.475-.375 9.529-6.842.225-.145-.404-.51.196-.199l.346.18c3.793 1.383 1.064.236-8.733 7.037-.098.07-.118-.248-.182-.368-.21-.393-.423-.784-.641-1.17-.426-.75-.859-1.493-1.29-2.237-.7-1.204-1.403-2.404-2.104-3.606-6.713-12.394-12.557-25.558-18.537-38.592l10.2-4.68z" style="opacity:1;fill:gray;fill-opacity:1;stroke:none;stroke-width:2.29999995;stroke-linecap:square;stroke-linejoin:miter;stroke-miterlimit:100;stroke-dasharray:none;stroke-opacity:1"/><path d="M596.878 1956.457c10.03-8.966 20.462-17.462 30.84-26.02 17.706-14.264 34.987-29.05 52.348-43.73 20.185-17.098 40.403-34.155 60.424-51.44 11.063-9.516 22.258-18.873 33.429-28.26 3.632-3.055 7.232-6.148 10.876-9.19 3.062-2.555 20.249-16.682 23.245-19.146 3.926-3.26 7.85-6.522 11.78-9.776 6.72-5.566 16.48-13.593 23.177-19.224 10.725-9.02 21.296-18.215 31.872-27.403 15.035-13.023 29.877-26.254 44.868-39.324 4.645-4.104 2.542-2.217 6.323-5.646l9.98 7.374c-4.084 3.219-1.835 1.437-6.738 5.355-15.472 12.578-30.436 25.747-45.637 38.648-10.681 9.16-21.342 18.346-32.14 27.37-7.804 6.522-15.389 12.696-23.222 19.185-3.935 3.26-7.854 6.54-11.781 9.808-22.584 18.676-45.095 37.449-67.296 56.578a5528.022 5528.022 0 0 1-60.29 51.616c-17.266 14.765-34.497 29.568-51.918 44.15-10.106 8.47-20.355 16.88-29.678 26.172l-10.463-7.097z" style="opacity:1;fill:#000;fill-opacity:1;stroke:none;stroke-width:2.29999995;stroke-linecap:square;stroke-linejoin:miter;stroke-miterlimit:100;stroke-dasharray:none;stroke-opacity:1"/><path d="M662.023 1921.45c1.617.097 3.233.227 4.852.292 4.36.175 8.224.15 12.608.162 8.099.027 16.197.063 24.295.104 21.513.13 43.025-.16 64.535-.504 11.035-.167 22.065-.573 33.099-.769 3.572-.064 7.146-.06 10.719-.12 5.934-.097 14.124-.326 20.082-.482 13.267-.383 26.506-1.389 39.772-1.79 2.06-.043 4.12-.06 6.18-.021l-11.348 9.172c-1.875-.079-3.75-.177-5.628-.174-12.849-.085-25.683.538-38.527.81-21.185.409-42.373.613-63.558 1.052-21.725.365-43.45.799-65.177.943-8.214.019-16.425.113-24.638.199-4.324.045-8.648-.01-12.972.055-1.807.026-3.612.114-5.419.171l11.125-9.101z" style="opacity:1;fill:gray;fill-opacity:1;stroke:none;stroke-width:2.29999995;stroke-linecap:square;stroke-linejoin:miter;stroke-miterlimit:100;stroke-dasharray:none;stroke-opacity:1"/><ellipse cx="644.326" cy="-1921.207" rx="17.524" ry="16.92" style="opacity:1;fill:#000;fill-opacity:1;stroke:none;stroke-width:2.29999995;stroke-linecap:square;stroke-linejoin:miter;stroke-miterlimit:100;stroke-dasharray:none;stroke-opacity:1" transform="scale(1 -1)"/><ellipse cx="882.217" cy="-1723.217" rx="17.524" ry="16.92" style="opacity:1;fill:#000;fill-opacity:1;stroke:none;stroke-width:2.29999995;stroke-linecap:square;stroke-linejoin:miter;stroke-miterlimit:100;stroke-dasharray:none;stroke-opacity:1" transform="scale(1 -1)"/><path d="M561.517 1891.59c-2.028 4.12-3.343 8.535-4.354 13.003-1.09 4.822-1.713 8.326-1.835 13.285-.05 2.052.16 4.103.24 6.154 1.028 3.82 1.196 6.25 3.766 9.345.918 1.106 4.192 3.898 3.319 2.756-1.088-1.423-3.925-1.824-3.975-3.614-.04-1.411 2.572 1.184 3.919 1.609 1.274.402 2.61.575 3.915.862l3.215.285 6.46 9.285-3.624-.203c-2.146-.299-7.072-.784-8.99-1.891-4.89-2.823-11.707-6.547-14.843-12.054-2.18-3.83-2.216-6.385-2.983-10.711.009-2.15-.089-4.303.026-6.45.504-9.43 2.756-19.019 5.883-27.913l9.861 6.252zM590.673 1884.931c-.802 8.922-2.11 17.785-3.256 26.667-.421 3.443-.779 6.88-.751 10.35l-11.25-2.638c.432-3.487 1-6.954 1.459-10.438 1.16-8.875 2.46-17.773 2.353-26.747l11.445 2.806z" style="opacity:1;fill:#000;fill-opacity:1;stroke:none;stroke-width:2.29999995;stroke-linecap:square;stroke-linejoin:miter;stroke-miterlimit:100;stroke-dasharray:none;stroke-opacity:1"/><path d="M558.596 1900.75c9.531-2.796 19.591-2.376 29.407-2.031 4.143.194 8.282.468 12.42.742l8.217 7.72c-4.179-.367-8.353-.806-12.547-.977-9.296-.67-18.849-1.279-27.939 1.234l-9.558-6.688zM628.46 1850.842c.475 1.175.841 2.401 1.427 3.527 1.383 2.66 3.66 6.096 5.995 8.045 2.104 1.756 4.576 2.943 7.387 2.38 1.132-.226 2.062-1.038 3.093-1.558-2.187.249-4.71 1.936-6.56.746-1.171-.753 1.708-2.226 2.296-3.488 1.959-4.201 2.295-9.022 2.021-13.577-.057-.948-.246-1.884-.37-2.826-.102-.472-.75-1.229-.306-1.416 3.668-1.545 7.51-2.984 11.478-3.29.834-.064.582 1.572.932 2.333.438.95.907 1.888 1.431 2.793 2.168 3.745 2.731 4.233 5.47 7.833 3.175 4.118 7.096 7.607 10.222 11.767.856 1.139 1.754 2.276 2.35 3.57 1.587 3.453 1.08 4.265.814 7.867-.598 1.272-.993 2.662-1.795 3.817-1.735 2.501-4.453 4.499-7.01 6.047-1.2.726-2.417 1.466-3.746 1.911-4.181 1.4-8.485 2.403-12.728 3.604l8.114-7.92c-2.11.677-4.18 1.497-6.331 2.03-1.283.32 2.515-.83 3.717-1.381 2.02-.928 5.05-2.7 6.703-4.282.72-.688 1.214-1.578 1.821-2.366.207-.834.622-1.643.62-2.501-.005-2.443-1.3-4.168-2.683-6.057-3.09-4.22-6.965-7.797-10.167-11.926-1.128-1.439-2.298-2.847-3.384-4.317-2.86-3.87-2.186-3.198-4.404-6.763-.262-.422-1.272-1.006-.831-1.235a44.774 44.774 0 0 1 10.848-3.99c.504-.112.012 1.034.018 1.55.344 6.244.319 12.599-1.757 18.592-.583 1.682-.768 3.817-2.21 4.862-3.758 2.722-8.413 3.92-12.62 5.88-1.374.078-2.76.435-4.122.234-7.03-1.036-11.623-7.86-14.897-13.47-.78-1.336-1.418-2.748-2.128-4.122l11.291-2.903zM792.975 1685.84c-.446 1.21-.987 2.39-1.337 3.631-2.39 8.459-3.135 18.081-1.413 26.733.435 2.183 1.226 4.28 1.839 6.419 1.034 1.932 1.87 3.984 3.102 5.796 2.201 3.238 5.067 5.948 8.23 8.216 1.87 1.342 3.874 2.468 6.156 2.897.626.118 1.275.01 1.913.014 3.497-.835 14.444-3.708-1.082.251l11.178 2.739c-2.308.648-12.346 4.154-17.078 4.1-.797-.01-1.583-.181-2.374-.271-.741-.266-1.51-.466-2.224-.798-5.63-2.62-11.483-8.552-14.741-13.668-1.305-2.05-2.209-4.328-3.313-6.492-.64-2.321-1.463-4.6-1.92-6.964-.469-2.425-.7-4.895-.85-7.36-.51-8.36.627-16.641 2.157-24.836l11.757-.408z" style="opacity:1;fill:#000;fill-opacity:1;stroke:none;stroke-width:2.29999995;stroke-linecap:square;stroke-linejoin:miter;stroke-miterlimit:100;stroke-dasharray:none;stroke-opacity:1"/><path d="M802.963 1698.893c1.134.14 2.264.315 3.401.42 3.553.326 7.243.45 10.797.623 6.815.33 13.631.577 20.449.844 4.31.226 8.617.468 12.927.692l-8.989 7.075c-4.07-.466-8.151-.837-12.245-1.053-6.843-.315-13.686-.545-20.533-.762-3.74-.118-7.479-.299-11.22-.358-1.206-.019-2.412.02-3.617.03l9.03-7.511z" style="opacity:1;fill:#000;fill-opacity:1;stroke:none;stroke-width:2.29999995;stroke-linecap:square;stroke-linejoin:miter;stroke-miterlimit:100;stroke-dasharray:none;stroke-opacity:1"/><path d="M829.521 1688.09a1053.693 1053.693 0 0 0-3.562 32.139l-10.886 1.466c1.656-10.502 3.06-21.093 3.11-31.743l11.338-1.861zM840.392 1696.872c1.258-2.095 2.676-4.103 4.4-5.844.512-.515 2.258-2.125 3.097-2.385 2.087-.648 4.256-.998 6.383-1.496.46.424 1.023.757 1.377 1.272 1.428 2.081 1.499 5.041 1.52 7.434.023 2.83-.145 4.746-.318 7.588-.213 3.015-.448 6.028-.624 9.044-.044.749-.111 1.533-.093 2.29-1.91.02-3.824.21-5.728.061-.187-.015.194-.322.286-.486.154-.27.284-.557.454-.818.861-1.32 1.944-2.493 2.983-3.669 3.31-3.404 6.898-6.53 10.474-9.65.675-.578 1.399-1.092 2.103-1.633l5.902.77c-.722.537-1.446 1.072-2.23 1.52-3.651 2.923-7.087 6.124-10.449 9.373a63.801 63.801 0 0 0-2.865 3.386c-.144.183-.323.34-.439.541-.12.21-.025.624-.26.677-2.016.455-4.1.514-6.15.771.175-.72.227-1.559.303-2.277.318-3.005.555-6.017.79-9.03.197-3.345.307-4.086.25-7.373-.025-1.419.01-4.548-1.104-5.767-.136-.15-.392-.099-.588-.148 1.25-.425 2.497-.863 3.752-1.276.493-.161-1.01.273-1.464.524-2.609 1.444-4.338 4.102-5.907 6.529l-5.855.073zM871.983 1680.489c2.084 3.765 3.538 7.841 5.014 11.873l-5.478 1.622c-1.333-3.883-2.686-7.828-4.955-11.282l5.419-2.213zM901.363 1651.208c1.762-2.723 3.771-5.414 6.454-7.303.418-.294.875-.527 1.313-.791 2.456-1.066 3.456-1.606 7.182-1.508.532.014.766.754 1.04 1.21 1.127 1.876 1.17 4.232 1.358 6.33.257 4.936-.18 9.873-.427 14.801-.118 3.035.562 2.05-5.63 1.311-.253-.03.405-.305.607-.458l.83-.634c4.116-3.215 8.102-6.594 12.203-9.83 1.37-1.103 2.848-2.06 4.258-3.109l5.86 1.065c-1.648.578-2.973 1.874-4.443 2.762-4.142 3.138-8.135 6.466-12.032 9.902-.265.185-.538.359-.794.555-.2.152-.326.457-.576.488-6.891.85-6.371 2.16-6.074-1.158.41-4.824.9-9.672.59-14.515-.145-1.438-.177-2.662-.607-4.031-.104-.331-.238-.664-.452-.937-.079-.1-.487-.07-.366-.11 1.411-.463 2.88-.738 4.297-1.182.348-.109-.719.116-1.079.174-.428.158-.877.268-1.285.472-2.741 1.371-4.706 4.02-6.341 6.513l-5.886-.017zM867.242 1651.589c.51 4.296 1.84 8.698 4.879 11.932.806.858 1.713 1.663 2.757 2.205.904.469 1.972.506 2.957.76.946-.319 3.834-.947 2.837-.954-2.245-.016-4.575 1.731-6.67.926-1.122-.431 1.88-1.533 2.61-2.487 1.644-2.15 2.724-5.047 3.292-7.653.28-1.28.305-2.601.457-3.901-.054-1.031-.039-2.068-.163-3.093a8.884 8.884 0 0 0-.447-1.926c-.076-.211-.654-.484-.432-.516 3.76-.545 7.613-.376 11.35-1.067.343-.064-.22-1.242.069-1.046.515.349.563 1.11.845 1.665 3.588 5.549 9.095 9.436 13.552 14.22.956 1.025 1.805 2.144 2.708 3.217.625 1.158 1.418 2.24 1.876 3.474 1.305 3.525 1.142 7.538-.66 10.86-1.516 2.795-2.732 3.452-5.083 5.432-3.354 2.047-1.743 1.185-4.794 2.657l-11.237-2.663c3.09-.662 1.47-.177 4.821-1.582 2.064-1.154 3.372-1.635 4.933-3.47a7.578 7.578 0 0 0 1.377-7.483c-.355-1-1.009-1.866-1.513-2.799-.827-.978-1.607-1.999-2.481-2.935-4.745-5.08-10.604-9.188-14.4-15.105-.246-.445-3.11-5.07-1.905-5.585 13.107-5.598 12.428-1.98 12.626 6.196-.156 1.505-.196 3.026-.467 4.515-.561 3.095-1.604 6.472-3.16 9.228-.748 1.326-1.323 2.991-2.665 3.71-10.365 5.553-9.48 5.076-16.821 4.211-1.166-.634-2.436-1.106-3.498-1.902-5.18-3.883-7.575-10.356-8.995-16.412l11.445-2.629zM885.066 1605.411c5.096.112 10.21.41 15.208 1.491 4.494.973 6.07 1.659 10.406 3.152 6.966 2.972 12.65 5.905 16.773 12.568 2.223 3.593 2.078 4.415 2.97 8.37.166 4.455.256 2.362-.16 6.282l-11.414 1.398c.729-3.09.472-1.433.671-4.984-.201-1.11-.247-2.259-.603-3.328-2.614-7.853-10.174-11.465-17.322-14.224-1.656-.508-3.29-1.095-4.969-1.523-5.427-1.385-11.945-2.154-17.555-1.56-.834.087-1.648.307-2.472.461l8.467-8.103zM638.436 1877.248c3.036 1.895 4.396 3.48 4.53 7.296.086 2.465-.486 4.131-1.052 6.499-1.106 3.822-.572 2.009-1.599 5.442l-5.729.433c1.103-3.38.541-1.6 1.676-5.343.669-2.516 1.673-5.34.78-7.96-.582-1.707-2.129-2.514-3.621-3.253l5.015-3.114z" style="opacity:1;fill:#000;fill-opacity:1;stroke:none;stroke-width:2.29999995;stroke-linecap:square;stroke-linejoin:miter;stroke-miterlimit:100;stroke-dasharray:none;stroke-opacity:1"/><path d="M855.016 1902.477c6.881 3.461 14.118 6.164 21.32 8.838 7.28 2.83 14.828 5.038 21.867 8.479.385.221.857.331 1.156.664.992 1.103 2.014 4.801.55 5.656-5.584 3.256-12.785 3.899-19.163 4.935-1.3.27-2.602.53-3.9.81-1.452.315-2.903.634-4.348.976-1.556.367-6.203 1.548-4.655 1.152 13.2-3.375 6.524-1.697 3.129-.61-.963.308-1.907.674-2.86 1.011l-13.521-3.28c1.05-.422 2.083-.893 3.15-1.265a58.996 58.996 0 0 1 4-1.226c9.677-2.62 19.38-5.167 29.197-7.19 1.091-.235 2.186-.454 3.273-.706.767-.178 3.04-.83 2.29-.583-3.62 1.196-7.744 1.275-10.912 3.429-.957.65.526 2.285.857 3.408.075.256.6.606.36.711-.297.13-.556-.335-.834-.502-6.688-3.485-13.873-5.823-20.898-8.476-4.2-1.532-5.481-1.984-9.597-3.546-3.548-1.347-7.07-2.774-10.628-4.095-.66-.245-1.332-.458-1.998-.687l12.165-7.903z" style="opacity:1;fill:gray;fill-opacity:1;stroke:none;stroke-width:2.29999995;stroke-linecap:square;stroke-linejoin:miter;stroke-miterlimit:100;stroke-dasharray:none;stroke-opacity:1"/><path d="M886.738 1918.328c.263-9.551.118-19.104-.056-28.655-.053-8.546-.496-17.077-.783-25.614-.341-10.152-.518-20.314-.75-30.47-.183-20.176-.497-40.35-.821-60.523-.113-8.633-.571-17.253-.684-25.884l12.147-2.011c-.117 1.384-.292 2.763-.353 4.152-.313 7.22.033 14.468-.026 21.69.026 6.144 0 12.289.026 18.433.06 14.028.263 28.056.448 42.083.525 18.651 1.383 37.283 2.243 55.918.42 9.444.826 18.893 1.343 28.33l-12.734 2.551z" style="opacity:1;fill:gray;fill-opacity:1;stroke:none;stroke-width:2.29999995;stroke-linecap:square;stroke-linejoin:miter;stroke-miterlimit:100;stroke-dasharray:none;stroke-opacity:1"/><path d="M862.451 1784.405c3.722-8.623 7.185-17.354 10.854-25.999 2.332-5.401 4.546-10.883 7.583-15.938 3.287-4.802 2.081-3.562 14.298-5.332.82-.12 3.356 5.17 3.8 6.02.357.643.685 1.303 1.072 1.927 1.313 2.117 2.23 3.222 3.802 5.259 1.953 2.53 3.532 4.598 5.632 7.026.977 1.13 2.007 2.213 3.01 3.32 2.185 2.24 4.34 4.5 6.625 6.637l-13.198 5.774c-2.073-2.343-4.119-4.708-6.203-7.04-5.11-5.847-10.322-11.693-14.576-18.202-.27-.443-.529-.893-.809-1.329-.153-.239-.284-.501-.49-.696-.05-.046-.21-.015-.194.054.106.412.094 1.26.509 1.169 3.87-.844 16.797-5.352 11.303-3.678-.34.31-.722.579-1.018.93-.782.932-1.972 2.984-2.503 3.945-1.773 3.21-3.244 6.573-4.852 9.865-3.823 8.366-7.3 16.903-10.123 25.661l-14.522.627z" style="opacity:1;fill:gray;fill-opacity:1;stroke:none;stroke-width:2.29999995;stroke-linecap:square;stroke-linejoin:miter;stroke-miterlimit:100;stroke-dasharray:none;stroke-opacity:1"/><path d="M724.842 1961.613c7.696-2.451 7.42-2.46 19.978-4.955 2.064-.41 4.183-.457 6.277-.662 7.904-.774 15.82-1.275 23.745-1.782 9.732-.854 19.499-.987 29.26-1.146l-10.797 8.963c-9.392-.217-18.784.078-28.16.636-7.995.614-16.005 1.186-23.944 2.357-2.14.315-7.733 2.805-6.395 1.106 1.527-1.939 4.77-1.28 7.121-2.028.921-.293-1.882.44-2.824.661l-14.26-3.15z" style="opacity:1;fill:#000;fill-opacity:1;stroke:none;stroke-width:2.29999995;stroke-linecap:square;stroke-linejoin:miter;stroke-miterlimit:100;stroke-dasharray:none;stroke-opacity:1"/><path d="M775.866 1934.275c1.84 5.778 1.79 11.95 1.977 17.946.398 12.742.007 2.094.51 14.983a362.2 362.2 0 0 0 1.3 17.987l-13.506 2.695c-.21-6.073-.36-12.147-.662-18.216-.208-4.587-.435-10.266-.76-14.858-.331-4.676-.592-9.612-2.039-14.12-.204-.638-.53-1.23-.795-1.845l13.975-4.572zM909.573 1833.244c8.103-.745 16.14-2.065 24.234-2.883 3.925-.397 10.24-.849 14.173-1.145 5.68-.355 11.36-.681 17.046-.882 3.884-.137 2.38-.165 5.56.039l-11.325 9.058c-7.072-.358-14.165.055-21.222.5-13.134 1.087-26.343 2.303-39.17 5.463l10.704-10.15z" style="opacity:1;fill:#000;fill-opacity:1;stroke:none;stroke-width:2.29999995;stroke-linecap:square;stroke-linejoin:miter;stroke-miterlimit:100;stroke-dasharray:none;stroke-opacity:1"/><path d="M941.888 1805.676c.025 1.119.071 2.237.075 3.357.011 2.897-.107 8.538-.137 11.237-.074 6.686-.124 13.37-.1 20.056-.066 5.638.11 11.264.922 16.845l-14.038 2.92c-.229-5.817-.27-11.636-.051-17.455.11-7.926.112-5.297.069-13.453-.031-5.765-.012-11.563-.569-17.31-.1-1.025-.29-2.04-.435-3.06l14.265-3.137z" style="opacity:1;fill:#000;fill-opacity:1;stroke:none;stroke-width:2.29999995;stroke-linecap:square;stroke-linejoin:miter;stroke-miterlimit:100;stroke-dasharray:none;stroke-opacity:1"/><path d="M607.508 1887.859a677.444 677.444 0 0 1 10.168 10.588c1.94 1.919 3.734 3.978 5.647 5.923.748.76 1.533 1.484 2.283 2.243l.163.194-6.365 2.84-.058-.1c-.628-.817-1.327-1.565-2.011-2.335-1.794-2.018-3.578-4.044-5.47-5.972-3.427-3.545-6.851-7.093-10.547-10.362l6.19-3.02zM670.703 1838.391c3.13 4.396 6.678 8.475 10.292 12.477 2.394 2.522 4.868 4.97 7.453 7.297.744.67 1.562 1.458 2.445 1.973-6.411 2.875-4.644 4.417-6.459 2.789l6.332-2.928c1.447 2.03.164.124-6.041 3.316-.686-.78-1.426-1.517-2.15-2.259-2.43-2.491-4.886-4.958-7.287-7.478-3.745-4.02-7.409-8.114-10.873-12.38l6.288-2.807zM644.813 1798.687c.636-.05 1.27-.134 1.907-.15 10.071-.246 20.714 3.381 30.136 5.923 1.54.642 3.114 1.212 4.622 1.927 1.521.723 2.997 1.54 4.456 2.382 3.24 1.873 5.039 3.026 7.722 5.649 2.887 2.821 3.34 3.863 5.545 7.162 1.826 3.529 2.947 7.256 2.997 11.245.034 2.728-.59 5.162-1.361 7.737-.67 1.764-.474 1.285-1.095 2.802-.103.252-.237.493-.313.754-.013.044.104-.03.116-.075.154-.593.247-1.2.371-1.8l-12.929.617c.02-.664-.018-1.331.057-1.99.074-.652.34-.793.654-1.31.548-.899.75-1.392 1.23-2.385.82-2.144 1.482-4.124 1.48-6.472-.004-3.503-1.155-6.723-2.877-9.736-2.185-2.975-2.614-3.89-5.447-6.371-3.5-3.065-7.754-5.408-12.031-7.185-1.521-.632-3.102-1.11-4.653-1.665 1.943.484 3.934.803 5.828 1.45 1.396.478-2.875-.658-4.323-.935-3.68-.704-7.456-1.266-11.212-1.024l-10.88-6.55z" style="opacity:1;fill:#000;fill-opacity:1;stroke:none;stroke-width:.1;stroke-linecap:square;stroke-linejoin:miter;stroke-miterlimit:4;stroke-dasharray:none;stroke-opacity:1"/><path d="M1008.375 683.796c-5.035.313-9.96 1.47-14.769 2.947-5.19 1.595-8.87 2.918-13.66 5.515-1.983 1.076-3.822 2.4-5.732 3.599-3.078 3.075-5.3 4.566-6.844 8.72-.552 1.486-1.421 6.149-.81 4.687.76-1.82-.41-4.757 1.268-5.784 1.324-.81.279 3.111.61 4.633.318 1.44.88 2.814 1.32 4.221l1.487 3.235-5.313 11.27-1.789-3.584c-.889-2.218-3.12-7.2-3.115-9.643.015-6.228-.164-14.794 3.368-20.812 2.457-4.185 4.87-5.617 8.573-8.72 2.054-1.167 4.051-2.44 6.16-3.506 9.258-4.678 19.626-7.77 29.81-9.644l-.564 12.866zM1019.472 720.738c-8.89 1.101-17.83 1.695-26.753 2.452-3.455.316-6.89.693-10.275 1.453l.201-11.554c3.5-.314 7.009-.493 10.511-.78 8.92-.738 17.891-1.35 26.64-3.35l-.324 11.78z" style="opacity:1;fill:#000;fill-opacity:1;stroke:none;stroke-width:2.29999995;stroke-linecap:square;stroke-linejoin:miter;stroke-miterlimit:100;stroke-dasharray:none;stroke-opacity:1"/><path d="M997.232 692.727c4.747 8.726 6.462 18.647 8.2 28.315.684 4.09 1.291 8.194 1.898 12.297L1001.52 743c-.525-4.162-.978-8.335-1.696-12.47-1.31-9.227-2.733-18.693-7.11-27.047l4.517-10.756zM1060.775 750.468c-1.048.714-2.17 1.33-3.145 2.14-2.308 1.915-5.185 4.867-6.597 7.56-1.272 2.428-1.91 5.095-.766 7.723.46 1.06 1.451 1.797 2.177 2.695-.705-2.085-2.888-4.194-2.115-6.256.488-1.303 2.536 1.2 3.894 1.508 4.52 1.027 9.303.337 13.697-.893.915-.256 1.79-.64 2.684-.959.44-.2 1.043-.993 1.32-.598 2.285 3.259 4.503 6.71 5.64 10.523.24.803-1.413.901-2.082 1.405a33.965 33.965 0 0 0-2.428 1.989c-3.202 2.91-3.56 3.563-6.5 7-3.355 3.975-5.936 8.544-9.341 12.478-.933 1.078-1.855 2.196-2.994 3.05-3.04 2.282-3.94 1.958-7.517 2.46-1.37-.317-2.812-.409-4.11-.948-2.812-1.168-5.339-3.403-7.392-5.575-.963-1.019-1.944-2.052-2.66-3.257-2.251-3.791-4.141-7.786-6.212-11.679l9.457 6.257c-1.108-1.92-2.347-3.77-3.324-5.76-.582-1.186 1.344 2.284 2.137 3.342 1.334 1.778 3.707 4.365 5.601 5.647.825.558 1.799.854 2.698 1.28.859.027 1.736.261 2.576.078 2.385-.526 3.798-2.152 5.352-3.903 3.473-3.912 6.15-8.455 9.509-12.458 1.168-1.406 2.297-2.847 3.505-4.22 3.177-3.612 2.664-2.812 5.68-5.732.356-.346.714-1.456 1.031-1.074a44.774 44.774 0 0 1 6.191 9.76c.217.469-1.007.23-1.51.346-6.031 1.655-12.247 2.973-18.543 2.21-1.768-.213-3.894.057-5.22-1.132-3.455-3.098-5.61-7.395-8.414-11.092-.367-1.327-1.008-2.607-1.1-3.98-.472-7.09 5.226-13.022 10.02-17.408 1.14-1.043 2.385-1.966 3.578-2.95l5.223 10.423z" style="opacity:1;fill:#000;fill-opacity:1;stroke:none;stroke-width:2.29999995;stroke-linecap:square;stroke-linejoin:miter;stroke-miterlimit:100;stroke-dasharray:none;stroke-opacity:1"/><path d="M1037.074 765.799c-1.21 3.368-2.474 5.032-6.175 5.97-2.391.604-4.14.398-6.574.344-3.97-.274-2.084-.134-5.657-.413l-1.634-5.508c3.537.364 1.679.19 5.576.51 2.601.121 5.574.506 7.946-.92 1.545-.93 2.007-2.612 2.414-4.227l4.104 4.244z" style="opacity:1;fill:#000;fill-opacity:1;stroke:none;stroke-width:2.29999995;stroke-linecap:square;stroke-linejoin:miter;stroke-miterlimit:100;stroke-dasharray:none;stroke-opacity:1"/><path d="M1020.167 737.812a676.94 676.94 0 0 1-8.2 12.175c-1.466 2.301-3.1 4.49-4.596 6.77-.585.892-1.127 1.813-1.71 2.706l-.156.2-4.121-5.62.086-.079c.666-.787 1.249-1.628 1.857-2.46 1.593-2.179 3.197-4.351 4.682-6.607 2.74-4.099 5.484-8.196 7.899-12.499l4.259 5.413zM1081.87 789.127c-3.634 3.99-6.872 8.318-10.02 12.696-1.959 2.873-3.829 5.809-5.557 8.827-.497.868-1.095 1.835-1.412 2.807-4.165-5.66-5.298-3.607-4.09-5.724l4.2 5.57c-1.679 1.843-.088.187-4.518-5.205.617-.834 1.181-1.714 1.753-2.578 1.922-2.901 3.814-5.823 5.77-8.702 3.137-4.51 6.365-8.957 9.803-13.244l4.072 5.553zM1115.208 755.432c.183.61.4 1.213.55 1.833 2.368 9.791 1.072 20.96.578 30.707-.302 1.641-.526 3.3-.907 4.924-.385 1.64-.871 3.255-1.387 4.859-1.145 3.562-1.892 5.564-3.889 8.742-2.148 3.417-3.07 4.08-5.83 6.932-3.062 2.53-6.468 4.414-10.357 5.306-2.659.61-5.17.514-7.85.304-1.865-.282-1.356-.192-2.97-.478-.268-.047-.532-.128-.803-.146-.045-.01.05.095.097.097.612.025 1.225-.011 1.838-.017l-3.335-12.507c.653-.122 1.297-.299 1.958-.365.652-.066.846.165 1.417.363.995.345 1.52.44 2.592.697 2.269.35 4.344.578 6.638.08 3.425-.74 6.328-2.55 8.908-4.87 2.447-2.764 3.251-3.376 5.077-6.67 2.257-4.068 3.648-8.72 4.48-13.277.297-1.62.43-3.266.645-4.9-.062 2.001.047 4.015-.186 6.003-.172 1.465.036-2.949 0-4.423-.09-3.746-.34-7.555-1.37-11.175l4.104-12.019z" style="opacity:1;fill:#000;fill-opacity:1;stroke:none;stroke-width:.1;stroke-linecap:square;stroke-linejoin:miter;stroke-miterlimit:4;stroke-dasharray:none;stroke-opacity:1"/><path d="M1466.184 1476.861c-1.621-.097-3.241-.227-4.864-.292-4.37-.175-8.245-.15-12.64-.161-8.118-.027-16.236-.063-24.354-.105-21.567-.13-43.132.16-64.695.504-11.062.168-22.119.573-33.18.769-3.582.064-7.164.06-10.746.12-5.949.097-14.159.326-20.132.482-13.3.384-26.572 1.39-39.87 1.79-2.065.043-4.13.06-6.195.021l11.376-9.172c1.88.079 3.76.177 5.642.174 12.88.085 25.746-.538 38.622-.81 21.237-.409 42.478-.613 63.715-1.051 21.78-.366 43.557-.8 65.339-.943 8.234-.02 16.465-.113 24.698-.2 4.335-.045 8.67.01 13.004-.055 1.812-.026 3.622-.114 5.432-.17l-11.152 9.1z" style="opacity:1;fill:gray;fill-opacity:1;stroke:none;stroke-width:2.29999995;stroke-linecap:square;stroke-linejoin:miter;stroke-miterlimit:100;stroke-dasharray:none;stroke-opacity:1"/><path d="M1305.314 1454.803c-3.956 1.172-5.923 1.692-10.178 3.349-2.516.98-4.987 2.071-7.453 3.173-5.748 2.569-9.24 4.29-14.724 7.25-1.972 1.064-3.905 2.198-5.858 3.297-3.393 1.928-6.694 4.013-9.8 6.377-.762.58-1.507 1.171-2.194 1.838-.68.613.405-.335.628-1.059.516-1.675.944-3.393 1.138-5.135.086-.777-.31-1.543-.308-2.324 0-.132.442-.203.315-.242-4.401-1.34-8.863-2.475-13.295-3.712 4.905 1.383 9.822 2.72 14.713 4.15.42.123.801.353 1.21.506.602.225 1.215.418 1.822.63 3.618 1.259 7.169 2.683 10.738 4.075 9.21 3.35 18.472 6.633 28.01 8.933 1.157.279 2.326.507 3.488.76l2.452.57-16.124 7.018-1.795-.765a272.978 272.978 0 0 0-30.43-10.302c-5.35-1.41-4.515-1.224-9.314-2.38-1.04-.25-2.082-.49-3.124-.736-.778-.196-1.554-.397-2.333-.587-.485-.119-1.94-.476-1.46-.34 4.302 1.224 8.617 2.4 12.925 3.6-4.86-1.352-9.752-2.592-14.58-4.054-.33-.1-.668-.311-.834-.614-1.613-2.945-.972-4.401.084-7.957.422-1.42.51-1.36 1.246-1.417.778.163.184.11 1.405-.269.544-.169 1.1-.305 1.645-.47.892-.273 1.791-.525 2.668-.844 3.155-1.148 6.225-2.548 9.3-3.881 4.914-2.237 8.813-3.965 13.692-6.395a276.48 276.48 0 0 0 7.448-3.86c2.249-1.206 4.507-2.4 6.687-3.726 3.598-2.186 4.57-3.044 7.438-5.297l14.752 10.84z" style="opacity:1;fill:gray;fill-opacity:1;stroke:none;stroke-width:.1;stroke-linecap:square;stroke-linejoin:miter;stroke-miterlimit:4;stroke-dasharray:none;stroke-opacity:1"/><path d="M1013.407 663.241c10.031 8.966 20.463 17.462 30.84 26.02 17.706 14.264 34.987 29.05 52.35 43.73 20.183 17.098 40.401 34.155 60.423 51.44 11.062 9.516 22.258 18.873 33.428 28.26 3.633 3.055 7.233 6.148 10.877 9.19 3.062 2.555 20.249 16.682 23.244 19.146 3.927 3.26 7.85 6.522 11.78 9.776 6.72 5.567 16.48 13.593 23.178 19.224 10.724 9.02 21.296 18.215 31.872 27.403 15.035 13.023 29.877 26.254 44.868 39.324 4.645 4.104 2.542 2.217 6.323 5.646l9.98-7.374c-4.085-3.219-1.836-1.437-6.738-5.355-15.472-12.578-30.436-25.747-45.637-38.648-10.682-9.16-21.343-18.346-32.14-27.37-7.804-6.522-15.39-12.696-23.222-19.185-3.935-3.26-7.855-6.54-11.782-9.808-22.584-18.676-45.095-37.449-67.296-56.578a5528.022 5528.022 0 0 0-60.29-51.615c-17.265-14.766-34.496-29.569-51.917-44.152-10.107-8.468-20.356-16.88-29.678-26.171l-10.463 7.098z" style="opacity:1;fill:#000;fill-opacity:1;stroke:none;stroke-width:2.29999995;stroke-linecap:square;stroke-linejoin:miter;stroke-miterlimit:100;stroke-dasharray:none;stroke-opacity:1"/></g></svg>