<svg xmlns="http://www.w3.org/2000/svg" width="466.97" height="418.406" viewBox="0 0 437.785 392.255"><g style="display:inline"><path d="M218.723 329.803c-1.142 13.29-.704 26.626-.603 39.942.029 6.584-.224 13.164-.35 19.745.005.125.006.25.01.375l-13.903 1.472.072-.115c.782-6.455.57-13.004.799-19.487.054-13.37-.212-26.74.325-40.103l13.65-1.829z" style="opacity:1;fill:none;fill-opacity:1;stroke:none;stroke-width:2.29999995;stroke-linecap:square;stroke-linejoin:miter;stroke-miterlimit:100;stroke-dasharray:none;stroke-opacity:1"/><path d="M184.935 353.426c17.457.079 34.892.716 52.35.563 3.847-.083 6.735-.112 10.44-.289.668-.031 1.356-.306 2.004-.136.488.128.775.645 1.163.968l-11.957 7.182c-.002 1.147.168.5-1.915.495-3.39-.01-6.779.002-10.168-.014-17.53-.054-35.07-.806-52.594-.109l10.677-8.66z" style="opacity:1;fill:#000;fill-opacity:1;stroke:none;stroke-width:2.29999995;stroke-linecap:square;stroke-linejoin:miter;stroke-miterlimit:100;stroke-dasharray:none;stroke-opacity:1"/><path d="M57.477 66.407c-1.276-.195-2.54-.489-3.826-.584-8.766-.65-18.343.544-26.475 3.961-2.052.862-3.948 2.056-5.922 3.084-1.686 1.4-3.53 2.63-5.06 4.199-2.731 2.804-4.814 6.154-6.404 9.706-.94 2.102-1.643 4.29-1.607 6.611.01.638.245 1.252.368 1.878 1.517 3.259 6.521 13.41-.462-1.01l-.449 11.5C6.545 103.62 1.102 94.484.21 89.837c-.15-.782-.14-1.587-.21-2.38.112-.78.154-1.573.337-2.339 1.44-6.04 6.083-12.96 10.445-17.176 1.747-1.688 3.799-3.03 5.698-4.544 2.146-1.091 4.215-2.353 6.44-3.273 2.282-.944 4.656-1.665 7.04-2.305 8.09-2.171 16.432-2.713 24.767-2.852l2.75 11.438z" style="opacity:1;fill:#000;fill-opacity:1;stroke:none;stroke-width:2.29999995;stroke-linecap:square;stroke-linejoin:miter;stroke-miterlimit:100;stroke-dasharray:none;stroke-opacity:1" transform="translate(51.139 -53.98)"/><path d="M46.684 78.804c.09 1.138.144 2.28.269 3.416.39 3.546 1.006 7.187 1.548 10.703 1.039 6.744 2.16 13.472 3.261 20.205.64 4.268 1.265 8.537 1.907 12.804l-8.73-7.392c-.357-4.082-.81-8.155-1.416-12.208-1.06-6.768-2.202-13.52-3.36-20.272-.63-3.688-1.201-7.387-1.892-11.065-.222-1.185-.502-2.358-.751-3.538l9.164 7.347z" style="opacity:1;fill:#000;fill-opacity:1;stroke:none;stroke-width:2.29999995;stroke-linecap:square;stroke-linejoin:miter;stroke-miterlimit:100;stroke-dasharray:none;stroke-opacity:1" transform="translate(51.139 -53.98)"/><path d="M62.578 102.666a1053.396 1053.396 0 0 0-32.201 2.935l-3.614-10.374c10.622-.476 21.28-1.218 31.724-3.3l4.091 10.739zM56.148 115.073c2.303.814 4.554 1.801 6.605 3.143.607.398 2.533 1.787 2.956 2.557 1.052 1.916 1.828 3.97 2.742 5.955-.323.535-.537 1.154-.971 1.604-1.754 1.815-4.64 2.476-6.98 2.975-2.769.589-4.679.807-7.499 1.206-2.996.393-5.995.766-8.986 1.196-.742.107-1.524.198-2.261.367-.401-1.867-.97-3.705-1.206-5.6-.023-.186.355.125.533.183.297.097.603.167.893.282 1.465.58 2.83 1.406 4.19 2.19 3.998 2.562 7.778 5.451 11.55 8.332.702.545 1.35 1.152 2.02 1.734l.426 5.937c-.67-.6-1.34-1.203-1.934-1.881-3.595-2.994-7.418-5.72-11.274-8.364a63.758 63.758 0 0 0-3.89-2.13c-.208-.105-.398-.25-.618-.322-.23-.076-.616.1-.715-.12-.85-1.884-1.324-3.915-1.986-5.872.742.028 1.573-.09 2.292-.158 3.008-.29 6.007-.659 9.005-1.03 3.318-.477 4.066-.518 7.275-1.23 1.385-.309 4.458-.9 5.43-2.235.12-.163.019-.404.028-.606.666 1.14 1.345 2.274 2 3.421.256.45-.47-.936-.807-1.33-1.936-2.267-4.886-3.43-7.577-4.482l-1.242-5.722zM78.516 142.75c-3.273 2.795-6.976 5.034-10.63 7.287l-2.685-5.043c3.537-2.082 7.132-4.197 10.063-7.11l3.252 4.866zM113.08 165.683c3.02 1.182 6.058 2.613 8.445 4.864.372.35.692.752 1.038 1.127 1.535 2.194 2.265 3.066 2.913 6.736.093.524-.585.901-.977 1.26-1.614 1.48-3.913 1.994-5.93 2.598-4.786 1.238-9.71 1.798-14.588 2.54-2.998.492-1.897.961-2.41-5.255-.022-.253.38.337.57.504.262.23.525.458.787.686 3.973 3.39 8.08 6.62 12.07 9.992 1.356 1.122 2.59 2.378 3.898 3.55l.129 5.956c-.896-1.5-2.43-2.54-3.595-3.803-3.902-3.43-7.962-6.677-12.108-9.809-.234-.222-.459-.454-.702-.667-.189-.166-.513-.228-.593-.466-2.21-6.582-3.39-5.81-.08-6.183 4.808-.564 9.656-1.053 14.34-2.324 1.38-.43 2.573-.706 3.828-1.4.303-.169.603-.367.828-.63.083-.098-.03-.492.034-.382.736 1.29 1.3 2.674 2.018 3.975.176.319-.258-.682-.387-1.023-.24-.388-.437-.806-.719-1.165-1.891-2.412-4.88-3.807-7.65-4.91l-1.16-5.771zM105.884 132.327c-4.108 1.359-8.155 3.542-10.716 7.166-.679.96-1.287 2.01-1.609 3.143-.278.978-.101 2.032-.152 3.049.5.863 1.694 3.567 1.501 2.588-.433-2.202-2.611-4.136-2.241-6.35.198-1.185 1.878 1.535 2.959 2.06 2.435 1.182 5.489 1.66 8.156 1.696 1.31.018 2.61-.222 3.914-.332 1-.26 2.019-.452 2.998-.779a8.88 8.88 0 0 0 1.798-.823c.191-.116.343-.736.419-.526 1.286 3.576 1.89 7.385 3.315 10.907.131.324 1.172-.463 1.038-.141-.239.575-.975.774-1.462 1.161-4.72 4.625-7.427 10.797-11.224 16.122-.813 1.14-1.74 2.197-2.61 3.295-1.01.845-1.911 1.838-3.029 2.533-3.192 1.984-7.158 2.627-10.772 1.526-3.042-.927-3.929-1.988-6.34-3.895-2.676-2.877-1.509-1.471-3.561-4.166l.363-11.543c1.266 2.896.467 1.405 2.514 4.408 1.543 1.792 2.276 2.977 4.385 4.14a7.578 7.578 0 0 0 7.608-.148c.908-.547 1.626-1.361 2.44-2.042.793-1.006 1.637-1.974 2.38-3.018 4.028-5.664 6.882-12.226 11.92-17.128.388-.33 4.346-4.062 5.092-2.984 8.105 11.723 4.425 11.781-3.547 13.61-1.505.148-3.004.413-4.516.445-3.145.068-6.663-.277-9.675-1.251-1.448-.468-3.194-.698-4.167-1.87-7.514-9.045-6.87-8.274-7.49-15.64.389-1.268.598-2.607 1.165-3.806 2.769-5.851 8.632-9.493 14.282-12.095l4.864 10.688zM154.694 140.558c.909 5.016 1.64 10.087 1.579 15.2-.054 4.597-.412 6.278-1.008 10.826-1.519 7.419-3.256 13.575-8.96 18.947-3.076 2.897-3.91 2.919-7.607 4.584-4.332 1.052-2.263.723-6.188 1.098l-3.652-10.904c3.174.097 1.5.176 5.018-.338 1.047-.42 2.164-.694 3.14-1.257 7.172-4.131 9.2-12.26 10.474-19.816.166-1.724.415-3.442.499-5.173.271-5.594-.278-12.134-1.98-17.512-.254-.8-.632-1.554-.948-2.33l9.633 6.675z" style="opacity:1;fill:#000;fill-opacity:1;stroke:none;stroke-width:2.29999995;stroke-linecap:square;stroke-linejoin:miter;stroke-miterlimit:100;stroke-dasharray:none;stroke-opacity:1" transform="translate(51.139 -53.98)"/><path d="M328.997 200.031c-5.034.313-9.96 1.47-14.769 2.948-5.19 1.594-8.87 2.917-13.66 5.514-1.983 1.076-3.821 2.4-5.732 3.599-3.078 3.075-5.3 4.566-6.844 8.72-.552 1.486-1.42 6.149-.81 4.687.76-1.82-.41-4.757 1.269-5.784 1.323-.81.278 3.111.61 4.633.317 1.44.88 2.814 1.32 4.221l1.486 3.235-5.312 11.27-1.79-3.583c-.889-2.219-3.12-7.201-3.114-9.644.015-6.228-.165-14.794 3.368-20.812 2.456-4.185 4.87-5.617 8.572-8.72 2.054-1.167 4.052-2.44 6.16-3.506 9.259-4.678 19.627-7.77 29.81-9.644l-.564 12.866zM340.094 236.973c-8.89 1.102-17.83 1.695-26.753 2.452-3.455.316-6.89.693-10.274 1.453l.2-11.554c3.5-.314 7.009-.493 10.512-.78 8.92-.738 17.89-1.35 26.639-3.35l-.324 11.78z" style="opacity:1;fill:#000;fill-opacity:1;stroke:none;stroke-width:2.29999995;stroke-linecap:square;stroke-linejoin:miter;stroke-miterlimit:100;stroke-dasharray:none;stroke-opacity:1" transform="translate(4.67 3.788)"/><path d="M317.854 208.962c4.747 8.726 6.463 18.647 8.2 28.315.685 4.09 1.292 8.194 1.898 12.297l-5.809 9.661c-.524-4.162-.977-8.334-1.696-12.47-1.31-9.227-2.733-18.693-7.11-27.047l4.517-10.756zM381.398 266.703c-1.049.714-2.17 1.33-3.146 2.14-2.307 1.915-5.185 4.867-6.597 7.56-1.272 2.428-1.91 5.095-.766 7.723.46 1.06 1.451 1.797 2.177 2.695-.705-2.085-2.888-4.194-2.115-6.256.488-1.303 2.537 1.2 3.894 1.508 4.52 1.027 9.303.337 13.697-.893.915-.256 1.79-.64 2.685-.959.44-.2 1.042-.993 1.32-.598 2.285 3.259 4.502 6.71 5.64 10.523.239.803-1.414.901-2.083 1.405a33.965 33.965 0 0 0-2.428 1.989c-3.202 2.91-3.56 3.563-6.5 7-3.355 3.975-5.936 8.544-9.341 12.478-.933 1.078-1.855 2.196-2.994 3.05-3.04 2.282-3.94 1.958-7.517 2.46-1.37-.317-2.811-.409-4.11-.948-2.811-1.168-5.338-3.403-7.392-5.575-.963-1.019-1.943-2.052-2.659-3.257-2.252-3.791-4.142-7.786-6.212-11.679l9.456 6.257c-1.108-1.92-2.347-3.77-3.323-5.76-.583-1.186 1.343 2.284 2.136 3.342 1.334 1.778 3.707 4.365 5.602 5.647.824.558 1.798.854 2.697 1.28.859.027 1.737.261 2.576.078 2.385-.526 3.798-2.152 5.353-3.903 3.472-3.912 6.15-8.455 9.508-12.458 1.168-1.406 2.297-2.847 3.505-4.22 3.178-3.612 2.664-2.812 5.68-5.732.356-.346.714-1.456 1.032-1.074a44.774 44.774 0 0 1 6.19 9.76c.217.469-1.007.23-1.51.346-6.03 1.655-12.247 2.973-18.543 2.21-1.767-.213-3.894.057-5.22-1.132-3.455-3.098-5.609-7.395-8.414-11.092-.366-1.327-1.008-2.607-1.1-3.98-.472-7.09 5.227-13.022 10.02-17.408 1.14-1.043 2.385-1.966 3.578-2.95l5.224 10.423zM349.173 279.193c-1.21 3.368-2.474 5.032-6.175 5.97-2.391.604-4.14.398-6.574.344-3.97-.274-2.084-.134-5.657-.413l-1.634-5.508c3.537.364 1.679.19 5.576.51 2.601.121 5.574.506 7.946-.92 1.545-.93 2.007-2.612 2.414-4.227l4.104 4.244z" style="opacity:1;fill:#000;fill-opacity:1;stroke:none;stroke-width:2.29999995;stroke-linecap:square;stroke-linejoin:miter;stroke-miterlimit:100;stroke-dasharray:none;stroke-opacity:1" transform="translate(4.67 3.788)"/><path d="M340.79 254.047a676.904 676.904 0 0 1-8.2 12.175c-1.466 2.301-3.1 4.49-4.597 6.77-.585.892-1.126 1.813-1.71 2.706l-.155.2-4.122-5.62.086-.079c.666-.787 1.249-1.628 1.857-2.46 1.594-2.179 3.197-4.351 4.682-6.607 2.74-4.099 5.485-8.196 7.9-12.499l4.258 5.413zM402.493 305.362c-3.635 3.99-6.872 8.318-10.02 12.696-1.96 2.873-3.83 5.809-5.558 8.827-.497.868-1.095 1.835-1.411 2.807-4.165-5.66-5.299-3.606-4.091-5.724l4.2 5.57c-1.678 1.843-.087.187-4.518-5.205.617-.834 1.181-1.714 1.754-2.577 1.921-2.902 3.813-5.824 5.769-8.703 3.137-4.51 6.365-8.957 9.804-13.244l4.07 5.553zM431.095 272.614c.184.61.4 1.213.55 1.833 2.368 9.791 1.072 20.96.578 30.707-.302 1.641-.526 3.3-.907 4.925-.384 1.639-.87 3.255-1.386 4.858-1.146 3.562-1.893 5.565-3.89 8.742-2.148 3.417-3.07 4.08-5.83 6.932-3.062 2.53-6.468 4.414-10.356 5.306-2.66.61-5.17.514-7.85.304-1.866-.282-1.356-.192-2.97-.478-.269-.047-.532-.127-.804-.146-.045-.01.051.095.097.097.612.025 1.226-.011 1.839-.017l-3.335-12.507c.652-.122 1.297-.299 1.957-.365.652-.066.846.165 1.418.363.994.346 1.52.44 2.591.698 2.269.35 4.344.577 6.639.079 3.424-.74 6.327-2.55 8.908-4.87 2.446-2.764 3.25-3.376 5.077-6.67 2.256-4.068 3.647-8.72 4.48-13.277.296-1.62.43-3.266.644-4.9-.062 2.002.047 4.015-.186 6.004-.172 1.464.036-2.95 0-4.424-.09-3.746-.34-7.555-1.369-11.175l4.104-12.019z" style="opacity:1;fill:#000;fill-opacity:1;stroke:none;stroke-width:.1;stroke-linecap:square;stroke-linejoin:miter;stroke-miterlimit:4;stroke-dasharray:none;stroke-opacity:1" transform="translate(4.67 3.788)"/><path d="M11.115 231.847c18.598-.491 37.2-.74 55.802-.959 2.144 1.142 5.382-.397 7.65.799.669.353.971 1.16 1.457 1.739l-12.525 6.078c.362 3.124-7.676-4.228-6.87-.031-18.606-.043-37.25.06-55.806 1.523l10.292-9.149z" style="opacity:1;fill:#000;fill-opacity:1;stroke:none;stroke-width:2.29999995;stroke-linecap:square;stroke-linejoin:miter;stroke-miterlimit:100;stroke-dasharray:none;stroke-opacity:1"/><path d="M43.52 205.48c-.58 13.326.42 26.632 1.083 39.932.306 6.577.331 13.161.483 19.742.01.125.017.25.025.375l-13.827 2.057.067-.119c.509-6.482.02-13.016-.024-19.503-.51-13.36-1.34-26.707-1.367-40.08l13.56-2.404z" style="opacity:1;fill:#000;fill-opacity:1;stroke:none;stroke-width:2.29999995;stroke-linecap:square;stroke-linejoin:miter;stroke-miterlimit:100;stroke-dasharray:none;stroke-opacity:1"/><g transform="translate(-19.887 36.934)"><ellipse cx="108.209" cy="78.351" rx="17.524" ry="16.92" style="opacity:1;fill:#000;fill-opacity:1;stroke:none;stroke-width:2.29999995;stroke-linecap:square;stroke-linejoin:miter;stroke-miterlimit:100;stroke-dasharray:none;stroke-opacity:1"/><ellipse cx="345.9" cy="278.54" rx="17.524" ry="16.92" style="opacity:1;fill:#000;fill-opacity:1;stroke:none;stroke-width:2.29999995;stroke-linecap:square;stroke-linejoin:miter;stroke-miterlimit:100;stroke-dasharray:none;stroke-opacity:1"/><path d="M53.123 39.869c10.031 8.965 20.463 17.461 30.84 26.02 17.706 14.263 34.987 29.049 52.35 43.73 20.184 17.098 40.401 34.154 60.423 51.44 11.062 9.515 22.258 18.872 33.428 28.26 3.633 3.054 7.233 6.148 10.877 9.19 3.062 2.555 20.249 16.682 23.244 19.146 3.927 3.259 7.85 6.521 11.781 9.776 6.719 5.566 16.48 13.593 23.177 19.223 10.724 9.02 21.296 18.215 31.872 27.404 15.035 13.023 29.877 26.254 44.868 39.324 4.645 4.103 2.542 2.216 6.323 5.645l9.98-7.373c-4.084-3.22-1.836-1.438-6.738-5.355-15.472-12.579-30.436-25.747-45.637-38.649-10.682-9.16-21.343-18.346-32.14-27.37-7.804-6.522-15.39-12.695-23.222-19.184-3.935-3.26-7.854-6.54-11.782-9.809-22.584-18.675-45.094-37.448-67.295-56.578a5528.022 5528.022 0 0 0-60.291-51.615c-17.265-14.765-34.496-29.568-51.917-44.151-10.106-8.469-20.356-16.88-29.678-26.172L53.123 39.87z" style="opacity:1;fill:#000;fill-opacity:1;stroke:none;stroke-width:2.29999995;stroke-linecap:square;stroke-linejoin:miter;stroke-miterlimit:100;stroke-dasharray:none;stroke-opacity:1"/></g><path d="M338.41 67.156c-12.917.16-25.833.743-38.75 1.011-3.463.056-6.925.094-10.388.167-8.152.17-16.304.44-24.457.618-14.546.313-29.08.414-43.622.427-5.226.01-10.452.034-15.678.03-34.437-.02 3.41-.095-29.89-.05-11.808.016-23.605.064-35.407-.153-6.15-.11-12.297-.31-18.437-.602l9.202 7.797a907.77 907.77 0 0 1 17.696-.071c26.788-.05 53.585-.588 80.367-.374 10.904.022 19.664.068 30.541-.02 16.205-.131 32.415-.609 48.62-.685 13.181-.146 26.407-.727 39.553.068l-9.35-8.16z" style="opacity:1;fill:gray;fill-opacity:1;stroke:none;stroke-width:2.29999995;stroke-linecap:square;stroke-linejoin:miter;stroke-miterlimit:100;stroke-dasharray:none;stroke-opacity:1" transform="translate(-35.04 247.172)"/><path d="M176.42 58.661c-1.09.357-2.198.665-3.27 1.072-2.978 1.13-6.452 2.757-9.32 4.082-5.07 2.341-10.105 4.753-15.136 7.177a423.44 423.44 0 0 0-9.64 5.018c-.493.266-.984.534-1.47.811-1.072.612-.538.421-1.08.598 5.404-11.238-3.071 7.317 1.446-6.394.107-.324.63.263.936.417.553.278 1.077.614 1.638.876.8.372 1.628.678 2.44 1.021 1.142.484 2.282.973 3.423 1.459 8.983 3.618 17.714 7.808 26.44 11.994 2.104 1.056 4.234 2.06 6.342 3.106.245.121.598.136.729.376.317.582.347 1.278.52 1.917l-14.886 1.068c.107.514.375 1.021.32 1.544-.02.182-.297-.212-.45-.312-.345-.227-.69-.456-1.043-.67-1.704-1.037-2.514-1.452-4.373-2.477-2.678-1.395-4.514-2.377-7.281-3.7-6.178-2.954-12.523-5.53-18.977-7.816-2.856-1.06-5.715-2.12-8.51-3.337-.427-.185-1.076-.172-1.261-.6-1.638-3.796-.856-4.004.557-7.197 1.224-.693.067-.118 1.655-.616.584-.183 1.156-.405 1.732-.613 3.515-1.27 6.972-2.688 10.34-4.315a725.49 725.49 0 0 0 15.084-7.2c4.048-1.99 5.011-2.4 8.827-4.571.956-.545 1.884-1.138 2.826-1.707l11.442 8.989z" style="opacity:1;fill:gray;fill-opacity:1;stroke:none;stroke-width:.1;stroke-linecap:square;stroke-linejoin:miter;stroke-miterlimit:4;stroke-dasharray:none;stroke-opacity:1" transform="translate(-35.04 247.172)"/><path d="M335.87 121.309c4.402-12.415 8.022-25.083 12.06-37.618 1.539-4.513 2.794-9.116 4.434-13.595.251-.688.517-1.37.8-2.044.142-.336.16-.799.474-.984.175-.104.247.323.37.485-3.557 1.125-7.22 1.957-10.67 3.374-.345.142-.163.728-.212 1.096-.081.601-.185 1.205-.178 1.811.055 4.383 1.424 8.838 2.389 13.06.535 2.319 1.043 4.644 1.607 6.957 2.227 8.743 1.853 7.15 3.95 15.882 1.287 5.357 2.527 10.72 3.924 16.049l9.137-5.142c-3.904-12.65-6.85-25.59-9.587-38.535-.71-3.935-1.839-8.13-1.378-12.18.062-.542.217-1.07.34-1.6.085-.37.661-1.146.284-1.104-3.527.397-6.94 1.495-10.409 2.242.105 1.403-.454 2.567-.858 3.93-1.332 4.491-2.601 9.001-4.003 13.472-3.92 12.585-7.547 25.311-12.662 37.478l10.188-3.034z" style="opacity:1;fill:gray;fill-opacity:1;stroke:none;stroke-width:2.29999995;stroke-linecap:square;stroke-linejoin:miter;stroke-miterlimit:100;stroke-dasharray:none;stroke-opacity:1" transform="translate(-260.674 63.264)"/><path d="M339.643 259.671c.53-5.843 1.08-11.687 1.37-17.546.265-5.37.346-10.367.476-15.763.022-19.582.1-39.163.094-58.745-.264-21.928-.053-43.855-.096-65.782 0-2.708.01-5.415.01-8.123l11.334 1.714-.32 8.065a1124.175 1124.175 0 0 0-.517 65.59c.135 7.355.353 14.71.478 22.064.207 12.28.062 24.559.216 36.838.172 8.808.206 7.727.173 16-.02 5.031-.171 10.071-.053 15.103.019.864.088 1.727.131 2.59l-13.296-2.005z" style="opacity:1;fill:gray;fill-opacity:1;stroke:none;stroke-width:.1;stroke-linecap:square;stroke-linejoin:miter;stroke-miterlimit:4;stroke-dasharray:none;stroke-opacity:1" transform="translate(-260.674 63.264)"/></g></svg>