<svg xmlns="http://www.w3.org/2000/svg" width="500" height="600"><g style="display:inline"><path d="M-887.156 3599.186c-3.3 1.548-6.973 1.992-11.856 1.973-24.872-.094-50.5-25.372-46.597-58.32 2.434-20.887 17.958-38.779 35.038-42.997l-.106.88c-7.738.205-13.912-13.103-15.382-20.177-4.808-23.125 8.258-49.88 29.586-62.703 8.529-6.051 23.783-9.742 32.719-7.09 2.164.641 3.712 1.024 5.313 2.575l-.815.437c-1.11-14.59 10.826-27.748 22.73-35.533 17.914-11.714 42.631-15.13 63.136-5.538 12.92 6.044 21.672 19.253 20.584 33.395-.254 3.295-1.922 11.404-7.4 14.468-2.674 1.421-3.27-1.533.31-1.427 20.67.796 46.42 17.23 52.468 41.489 5.427 21.765-3.055 45.054-19.338 50.919-2.845 1.033-3.138-2.774.024-2.126 24.343 4.71 38.792 32.373 30.365 56.877-3.594 10.452-11.716 22.745-26.672 31.36-16.029 9.234-37.777 7.554-41.869 2.249-3.343 8.737-15.122 18.317-26.666 23.171-28.726 12.078-72.905 7.86-91.707-14.682-2.608-3.128-4.726-6.205-6.324-9.743" style="display:inline;opacity:1;fill:#e5f6ff;fill-opacity:1;stroke:#000;stroke-width:1.1;stroke-linecap:square;stroke-linejoin:miter;stroke-miterlimit:100;stroke-dasharray:none;stroke-opacity:1" transform="translate(1087.04 -3239.438)"/><path d="M-701.167 4846.256c6.67 8.265 11.204 19.442 8.91 29.703-1.906 8.524-8.043 16.626-14.716 19.804-6.982 3.429-14.617 5.487-22.206 4.367-8.353-.974-16.954-4.21-22.733-11.712-5.946-7.09-8.021-18.402-5.156-27.38 3.567-11.174 10.54-16.757 18.564-20.57 12.382-5.802 27.707-5.23 38.26 5.157" style="fill:#e5f6ff;fill-opacity:1;stroke:#000;stroke-width:1.1;stroke-linejoin:round;stroke-miterlimit:2;stroke-dasharray:none;stroke-opacity:1" transform="translate(1087.04 -3239.438)"/><path d="m-629.262 3591.592.721-.02c3.93.436 9.354 1.67 11.573 5.323 1.206 2.28.917 4.602.106 6.186-2.13 4.084-7.849 7.302-12.235 7.412-2.37-.042-5.09-.806-6.327-2.66-1.532-2.42-.464-5.329.616-7.592 2.073-4.346 5.895-7.526 9.78-10.171M-681.182 3573.878c4.22-1.957 11.483 1.149 15.264 3.104 2.427 1.343 4.798 2.777 6.753 4.458 2.731 2.373 5.265 5.522 5.828 9.222.196 4.21-.984 7.643-3.385 10.66-3.769 4.648-9.796 7.143-15.678 7.447-1.543.08-3.086-.142-4.629-.212-1.444-.37-2.945-.566-4.334-1.11-5.084-1.995-9.293-6.793-10.116-12.256-.208-1.377-.005-2.786-.007-4.179.463-1.501.746-3.07 1.39-4.504 1.883-4.19 5.386-7.634 9.026-10.322 1.826-1.35 3.443-2.118 5.406-3.147" class="cloud" style="display:inline;opacity:1;fill:#e5f6ff;fill-opacity:1;stroke:#000;stroke-width:1.1;stroke-linecap:square;stroke-linejoin:miter;stroke-miterlimit:100;stroke-dasharray:none;stroke-opacity:1" transform="translate(1087.04 -3239.438)"/><path d="M-2703.765 4507.699c-13.147 5.987-27.778 7.704-47.235 7.633-99.092-.363-201.194-98.151-185.646-225.615 9.698-80.799 71.547-150.014 139.594-166.332l-1.197 2.51c-30.454.547-55.564-53.168-61.78-81.654-20.324-93.13 29.505-200.2 112.702-250.977 33.214-24.015 93.049-38.3 128.393-27.32 8.558 2.659 14.678 4.252 21.073 10.545 3.648 4.314 2.375 8.783.868-.317-6.804-58.543 39.432-113.396 86.392-146.615 70.67-49.991 170.192-67.66 254.724-32.308 53.26 22.275 90.784 74.047 88.618 131.138-.504 13.3-5.975 46.203-27.667 59.405-1.677 1.696-6.33-1.165-1.824-.952 82.354 3.172 184.941 68.691 209.04 165.398 21.622 86.772-11.923 177.336-77.046 200.004-7.665 3.564-3.821-1.22 1.342.031 27.214 5.61 66.862 35.235 89.68 95.998 16.488 43.907 18.09 85.252 7.023 126.433-12.183 45.329-39.326 84.002-82.24 114.565-63.951 45.547-151.503 42.196-167.805 20.994-13.319 34.866-60.246 73.057-106.242 92.409-114.445 48.15-290.458 31.334-365.365-58.532-10.393-12.469-18.829-24.738-25.195-38.843" style="display:inline;opacity:1;fill:#e5f6ff;fill-opacity:1;stroke:none;stroke-linecap:square;stroke-linejoin:miter;stroke-miterlimit:100;stroke-dasharray:none;stroke-opacity:1" transform="translate(1087.04 -3239.438)"/><path d="M-2703.424 4509.608c-13.58 6.184-28.489 7.889-48.046 7.817-100.172-.367-202.793-98.632-187.076-227.474 9.82-81.816 72.527-152.06 141.538-168.608l3.234-.776-1.618 3.396-1.197 2.51-.71 1.491-1.384.025c-32.437.582-56.887-53.802-63.22-82.819-20.51-93.986 29.795-202.248 113.896-253.628 34.041-24.567 93.91-38.832 129.987-27.624 8.529 2.65 14.999 4.354 21.62 10.87l.044.044.041.048c2.028 2.398 3.01 3.298 2.727 6.192-.034.361-.213 1.813-1.78 2.379-1.567.565-1.69-.262-1.853-.47-.327-.415-.413-.712-.577-1.187-.328-.948-.698-2.443-1.086-4.785l-.01-.046-.01-.047c-6.938-59.696 40.15-115.502 87.556-149.037 71.377-50.492 171.467-68.175 256.502-32.612 53.745 22.478 91.7 74.585 89.496 132.696-.52 13.719-5.846 47.3-28.744 61.453-2.207 2.018-4.06 1.07-5.272.356-.63-.371-2.248-1.675-.539-3.789 1.71-2.114 2.406-1.296 3.689-1.235 83.142 3.202 186.02 68.836 210.36 166.51 21.785 87.427-12.15 179.702-78.653 202.933-1.969.91-3.227 1.347-4.274 1.466-1.066.12-2.127-3.078-1.125-3.996 2-1.833 4.23-2.181 7.29-1.445 27.938 5.771 67.71 35.72 90.68 96.887 16.595 44.192 18.25 86.048 7.052 127.712-12.338 45.907-39.987 85.261-83.325 116.127-62.805 44.73-146.72 44.053-168.187 23.067-15.402 35.227-61.302 71.655-106.327 90.598-115.372 48.54-291.66 31.757-367.198-58.866-10.444-12.53-18.965-24.911-25.405-39.18l3.526-2.528c6.292 13.942 14.642 26.097 24.985 38.505 74.276 89.11 250.014 105.958 363.532 58.198 45.527-19.154 91.985-57.368 104.774-90.845l1.41-3.691 1.926 2.505c14.86 19.327 102.487 23.747 165.47-21.11 42.49-30.26 69.126-68.251 81.153-113.002 10.939-40.699 9.39-81.532-6.992-125.155-22.66-60.341-62.167-89.643-88.655-95.103l-.025-.01-.024-.01c-2.091-.506-4.358.914-3.65.265.355-.325-.552-3.073-.345-3.097.208-.024 1.318-.312 3.123-1.151l.102-.047.103-.036c63.676-22.164 96.784-110.969 75.336-197.04-23.857-95.74-126.152-161.144-207.704-164.286-.984-.046-1.396 1.05-.03-.64 1.368-1.69.173-2.425.352-2.32.358.212 1.57-.202.923.452l.237-.24.275-.167c20.278-12.34 25.858-44.375 26.345-57.206 2.127-56.07-34.967-107.508-87.742-129.58-84.029-35.142-182.982-17.487-252.945 32.005-46.5 32.894-91.874 86.773-85.234 144.146.363 2.18.713 3.526.932 4.16.11.318.255.497.096.296-.08-.101-.132-.888-1.649-.341-1.516.547-1.662 1.922-1.684 2.154-.18 1.84-.384-1.582-1.97-3.508-6.151-6.031-11.912-7.51-20.478-10.171-34.583-10.744-94.317 3.528-126.717 26.955l-.082.059-.085.052c-82.243 50.194-131.554 156.034-111.425 248.275 6.003 27.507 31.052 79.31 58.978 80.474l.466-.98 1.616 2.62c-67.084 16.088-128.074 84.275-137.648 164.053-15.381 126.089 86.203 223.4 184.215 223.759 19.356.07 33.71-1.658 46.424-7.449z" class="cloud_stroke" style="fill:#000;stroke:none;stroke-width:0" transform="translate(1087.04 -3239.438)"/><path d="m-1551.84 4120.82 2.872-.085c15.656 1.74 37.268 6.66 46.106 21.225 4.807 9.087 3.653 18.345.426 24.66-8.486 16.282-31.273 29.109-48.748 29.548-9.44-.167-20.282-3.211-25.205-10.605-6.107-9.645-1.85-21.244 2.45-30.265 8.262-17.328 23.49-30.003 38.967-40.548M-1758.693 4050.2c16.81-7.802 45.748 4.579 60.81 12.373 9.669 5.354 19.117 11.072 26.907 17.772 10.88 9.462 20.976 22.015 23.219 36.767.778 16.78-3.92 30.468-13.485 42.494-15.017 18.532-39.028 28.477-62.464 29.689-6.146.317-12.295-.564-18.442-.845-5.756-1.475-11.736-2.253-17.266-4.424-20.258-7.953-37.025-27.082-40.306-48.86-.827-5.49-.02-11.105-.03-16.659 1.847-5.985 2.974-12.241 5.54-17.955 7.503-16.707 21.457-30.437 35.958-41.152 7.278-5.378 13.72-8.443 21.54-12.544" class="cloud" style="display:inline;opacity:1;fill:#e5f6ff;fill-opacity:1;stroke:none;stroke-linecap:square;stroke-linejoin:miter;stroke-miterlimit:100;stroke-dasharray:none;stroke-opacity:1" transform="translate(1087.04 -3239.438)"/><path d="m-1551.426 4118.727 2.873-.085h.115l.11.012c15.819 1.758 37.828 6.53 47.143 21.881l.023.038.02.04c5.054 9.553 3.95 19.58.331 26.659-9.185 17.623-32.534 30.533-50.795 30.992l-.036.001h-.035c-9.769-.173-20.991-3.162-26.356-11.219-6.573-10.38-1.96-23.104 2.435-32.323 8.614-18.066 24.303-31.03 39.924-41.674l1.405 3.409c-15.333 10.447-30.1 22.833-38.009 39.421-4.207 8.825-8.108 19.299-2.449 28.237 4.458 6.693 14.898 9.793 24 9.962 16.687-.437 38.885-13.174 46.676-28.124 2.822-5.52 4.025-13.993-.51-22.6-8.357-13.719-29.467-18.788-44.936-20.52l-2.758.083zM-1759.048 4048.297c18.567-8.617 47.133 4.49 62.304 12.341l.017.01.017.01c9.698 5.37 19.22 11.124 27.13 17.927 11.018 9.583 21.372 22.282 23.718 37.717l.015.102v.105c.799 17.218-4.142 31.73-14.089 44.234-15.668 19.336-40.294 29.412-64.152 30.645-6.367.329-12.56-.568-18.604-.844l-.158-.01-.148-.038c-5.641-1.446-11.69-2.224-17.43-4.478-20.718-8.133-37.792-27.48-41.192-50.043-.883-5.862-.042-11.616-.052-16.958v-.352l.111-.362c1.783-5.778 2.905-12.137 5.66-18.27 7.801-17.373 22.143-31.405 36.861-42.28 7.491-5.536 14.09-8.671 21.866-12.749l.914 3.704c-7.863 4.124-14.148 7.118-21.212 12.338-14.286 10.556-27.852 23.983-35.055 40.024-2.331 5.191-3.466 11.209-5.31 17.28-.02 5.634-.749 10.992.01 16.007 3.162 20.992 19.62 39.902 39.42 47.675 5.276 2.07 11.132 2.853 16.953 4.333 6.196.293 12.248 1.141 18.122.838 23.014-1.19 46.41-11.005 60.792-28.754 9.148-11.501 13.604-24.336 12.87-40.628-2.17-14.027-11.989-26.396-22.71-35.72-7.659-6.588-17.028-12.267-26.66-17.602-14.96-7.738-44.254-19.381-59.3-12.398z" class="cloud_stroke" style="fill:#000;stroke:none;stroke-width:0" transform="translate(1087.04 -3239.438)"/><path d="M-1379.156 3443.242c-3.3 1.502-6.973 1.933-11.856 1.915-24.872-.091-50.5-24.62-46.597-56.593 2.434-20.268 17.958-37.63 35.038-41.723l-.3.63c-7.645.137-13.947-13.338-15.508-20.483-5.1-23.36 7.406-50.218 28.289-62.955 8.336-6.024 23.355-9.607 32.226-6.853 2.148.667 3.684 1.066 5.29 2.645.915 1.082.595 2.203.217-.08-1.708-14.684 9.898-28.444 21.684-36.776 17.739-12.54 42.718-16.972 63.936-8.104 13.368 5.587 22.786 18.573 22.243 32.894-.127 3.336-1.5 11.59-6.945 14.902-.42.425-1.588-.293-.457-.24 20.67.796 46.42 17.231 52.468 41.49 5.427 21.765-2.992 44.482-19.338 50.169-1.924.893-.96-.306.337.01 6.83 1.407 16.782 8.838 22.51 24.08 4.138 11.013 4.54 21.384 1.762 31.714-3.058 11.37-9.87 21.071-20.642 28.738-16.052 11.425-38.027 10.585-42.119 5.266-3.343 8.746-15.122 18.326-26.666 23.18-28.726 12.078-72.905 7.86-91.707-14.682-2.608-3.128-4.726-6.205-6.324-9.743" style="display:inline;opacity:1;fill:#e5f6ff;fill-opacity:1;stroke:#000;stroke-width:1.1;stroke-linecap:square;stroke-linejoin:miter;stroke-miterlimit:100;stroke-dasharray:none;stroke-opacity:1" transform="translate(1087.04 -3239.438)"/></g><g style="display:inline"><path d="m551.232-818.84-4.685-1.834-4.351.414-3.466 2.33-2.6 3.216-1.03 4.671.763 4.797 2.536 4.825 4.667 4.576 6.187 3.456 7.334 1.973 8.41.394 7.673-1.106 6.862-2.697 5.003-3.688 3.134-3.922 1.385-5.857-1.508-7.197-2.022-2.67-2.496-2.183-2.946-1.797-3.413-.88-4.024.362-4.176 1.328-2.673 2.423-1.882 2.632-.522 2.593 1.101 1.6 2-.396 1.602-1.293 2.382-1.384 4.685.167 2.343 3.347v3.347l-2.677 4.016-4.016 2.008-6.694-.67-3.347-3.848-1.674-4.184.168-5.188 3.18-5.69 3.848-3.513 6.36-2.51 6.358-.547 7.452.017 4.458-.618 5.255-.984 3.929-1.859 3.206-4.104.943-5.355-1.48-4.457-2.51-1.506h-2.678l-2.008 1.673-.167 3.18-1.339 3.012-3.681 1.674-3.85-.67-1.505-1.84-1.172-5.02 3.013-4.52 5.69-2.932 7.53-.247 6.191 4.017 2.678 5.857-.167 6.024-2.784 6.553-4.597 4.474-5.628 2.326-6.659.898-.581 1.48 3.849 4.852 1.84 6.694-1.505 8.033-3.638 5.87-6.052 5.56-7.692 3.976-9.059 1.67-7.698.042-7.697-1.127-6.88-2.688-6.096-3.718-4.69-4.948-2.555-5.802-.75-5.866.713-6.359 2.554-4.862 4.31-4.14 4.521-1.96.927-1.418-1.078-5.776.386-5.894 2.828-5.437 4.853-4.436 6.646-3.06 6.527-.502 5.734 2.466 3.39 4.395.582 5.188-2.51 4.518-2.009 1.84-2.343-.836 1.374-3.514-.034-4.016-1.718-2.757-3.638-1.718-5.064.124-4.809 2.215-3.73 3.607-2.042 4.477.13 4.857 1.207 3.252 1.695 1.366 1.917.72 3.166 1.428 1.506 3.347-2.343 2.51z" style="display:inline;opacity:1;fill:#000;stroke:none;stroke-width:.9375px;stroke-linecap:butt;stroke-linejoin:miter;stroke-opacity:1"/><g style="stroke-width:3.98534"><path d="M614.024 523.214c-7.305-1.482-15.578-.412-22.198 3.249-5.328 2.946-8.302 6.509-12.563 10.758-2.56 4.116-4.861 8.71-5.087 13.894-.026.548 1.209-.662 1.595-.278 1.203 1.198.515 3.945 1.757 5.1 3.496 3.252 7.302 2.844 11.66 3.318 2.41-.423 4.9-.51 7.228-1.27 7.055-2.304 12.846-7.353 16.365-13.947.455-.852 3.361-10.205 1.284-4.28-.108-5.571-.146.455 1.217-.003 1.038-.349.686-3.354 1.67-2.871 1.484.727 1.095 4.198 1.924 5.647 1.07 1.872 2.493 3.512 3.74 5.267 5.134 5.905 11.585 10.098 18.058 14.263l-2.205 5.684c-6.697-4.263-13.357-8.576-18.774-14.538-1.353-1.783-6.236-6.5-6.586-9.365-.405-3.326-.176-7.798.627-11.047.914-3.702 6.013-1.264 4.743 1.455-1.39 6.19-1.626 10.608-4.83 15.792-5.796 9.378-15.058 14.369-25.766 15.145-5.253-.635-9.074-.253-13.397-3.885-5.757-4.835-3.894-10.141-2.637-17.432.399-2.309 1.328-4.522 2.416-6.589 1.232-2.34 2.993-4.349 4.49-6.523 2.083-1.974 4.015-4.128 6.25-5.923 8.736-7.014 19.885-10.291 30.86-7.93-.614 2.103-1.228 4.206-1.84 6.309zM557.5 590.296c17.675-1.628 35.487-.984 53.206-.619 15.44.556 30.899.484 46.341.06l-1.03 6.023c-15.469.337-30.95.379-46.415-.177-17.647-.353-35.395-.987-52.988.781l.886-6.067zM583.743 609.144c2.267 14.252.945 34.985-.032 49.325-.264 2.377-.394 4.774-.792 7.132-.657 3.897-1.369 6.762-2.336 10.592-1.528 6.053-4.05 3.75-1.687-5.613.388-1.536 2.098-2.343 3.147-3.514 9.018-8.509 21.057-13.02 33.398-10.853 2.418.425 4.716 1.384 7.074 2.076 10.546 5.424 16.606 11.201 11.018 24.393-1.502 3.547-9.336 6.548-11.91 7.803-8.14 2.58-16.587 3.523-24.918 1.152-1.986-.565-3.783-1.673-5.675-2.51l1.928-6.151c1.842.774 3.512 1.905 5.127 2.399 7.887 2.313 15.887 1.286 23.546-1.296 2.14-1.152 4.478-1.985 6.42-3.457 1.449-1.1 2.005-4.345 3.626-5.162.65-.328.568 2.864.24 2.205-.72-1.44-.577-4.268-1.41-5.642-2.55-4.2-5.56-5.18-9.627-7.52-2.2-.662-4.341-1.586-6.602-1.985-11.745-2.07-23.099 2.57-31.365 10.943-.897 1.158-1.332 3.987-2.69 3.473-1.754-.665-1.375-2.539-2.157-4.27-.04-.092-.313.04-.291-.057 2.487-11.086-1.665 16.023 1.594-8.182 1.033-14.196 2.173-34.625.646-48.81l3.728-6.471z" style="opacity:1;fill:#000;fill-opacity:.773148;fill-rule:nonzero;stroke:#000;stroke-width:0;stroke-linecap:butt;stroke-linejoin:round;stroke-miterlimit:100;stroke-dasharray:none;stroke-dashoffset:0;stroke-opacity:1" transform="matrix(.24477 0 0 .24462 82.873 75.653)"/><g style="stroke-width:3.98534"><path d="M703.885 583.34c13.82-1.522 27.748-2.084 41.64-2.759 5.346-.255 10.693-.485 16.04-.73l-.736 6.091c-5.34.204-10.679.427-16.017.67-13.799.659-27.643 1.2-41.355 2.837zM706.73 601.653c15.55-1.532 31.19-2.162 46.8-2.91 8.078-.371 4.298-.2 11.34-.514l-.73 6.06c-7.032.289-3.257.13-11.325.48-15.517.72-31.074 1.325-46.513 2.992z" style="opacity:1;fill:#000;fill-opacity:.773148;fill-rule:nonzero;stroke:#000;stroke-width:0;stroke-linecap:butt;stroke-linejoin:round;stroke-miterlimit:100;stroke-dasharray:none;stroke-dashoffset:0;stroke-opacity:1" transform="matrix(.24476 -.00247 .00247 .2446 81.415 77.472)"/></g><path d="M932.215 526.744c-9.758-5.026-21.325-.974-29 4.03-6.299 4.107-11.689 10.13-14.233 17.832-.144.433.712-1.232.984-.878 7.522 9.777-4.611 1.627 6.56 9.22 2.094.29 4.173.953 6.283.872 9.603-.37 18.301-6.709 23.86-14.902.94-1.384 1.584-3.146 2.376-4.634 1.432 1.692.235-5.176 1.598-5.095 3.13.186 2.8 3.868 4.164 6.208.79 1.355 1.577 2.729 2.554 3.932 1.255 1.546 2.742 2.853 4.113 4.28 5.465 4.864 11.926 7.833 18.342 10.847l-1.683 5.27c-6.634-3.095-13.312-6.152-19.031-11.06-3.592-3.544-4.857-4.27-7.366-8.492-.514-.864-1.271-1.773-1.196-2.797.042-.577.928-.827 1.455-.73 1.347.248-7.474 6.475-1.683 4.046-.92 1.503-1.706 3.112-2.76 4.51-6.31 8.374-15.649 14.516-25.864 14.69-2.394.042-4.745-.71-7.117-1.065-1.865-1.172-4.037-1.9-5.594-3.515-6.266-6.501-2.816-17.9 1.941-24.231 3.784-5.036 7.573-8.05 12.79-11.142 8.178-4.845 20.02-8.325 30.475-3.135zM809.266 589.36c21.722.5 43.446.079 65.17-.115 24.668-.514 49.335-1.159 73.996-1.967l4.15-.148-.865 6.045-4.152.122c-24.673.68-49.348 1.32-74.025 1.838-21.746.22-43.491.655-65.238.284l.964-6.058zM818.332 649.64c12.754.657 25.553.654 38.322.394 8.838-.325 4.695-.133 12.43-.549l-1.063 6.012c-7.781.381-3.616.204-12.499.507-12.827.24-25.678.25-38.492-.339zM895.73 606.533c.464 11.482.195 27.785.146 39.28-.472 10.523.01 1.291-.622 10.317-.068.957-.135 1.916-.156 2.875-.004.248-.113.871.091.737.32-.21.283-.717.424-1.075l3.118-1.616c10.697-4.976 22.816-6.864 34.187-3.066 2.228.745 4.274 1.965 6.41 2.948 1.553 1.32 3.332 2.404 4.657 3.958 5.133 6.019 1.564 15.3-2.419 21.566-2.119 3.334-9.455 5.145-12.482 6.19-2.701.258-5.39.794-8.104.774-8.928-.07-20.3-3.167-26.976-9.401-.938-.876-2.66-3.161-3.484-4.15l2.7-5.544c.663.933 2.207 3.164 3.003 3.98 6 6.15 17.098 9.088 25.422 9.1 2.549.004 5.07-.542 7.604-.814 2.164-.817 4.464-1.33 6.492-2.451 1.696-.938 2.677-3.16 4.545-3.65.781-.205.72 1.779 1.212 1.127 3.151-4.18-1.683-13.105-4.221-14.94-1.995-.945-3.898-2.126-5.986-2.836-10.948-3.723-22.585-1.61-32.797 3.306-2.021.975-4.191 3.532-6.642 2.888-2.283-.6.09-12.596-.156-14.558.078-11.426.207-27.639.04-39.061l3.995-5.884zM819.014 540.705c6.46.055 12.921.065 19.382.082 9.268.064 18.535-.198 27.794-.575 2.16-.1 1.183-.051 2.931-.142l-.813 6.065c-1.758.06-.777.028-2.945.094-9.285.257-18.573.505-27.862.472-6.468.018-12.935.028-19.403.083l.916-6.078z" style="opacity:1;fill:#000;fill-opacity:.773148;fill-rule:nonzero;stroke:#000;stroke-width:0;stroke-linecap:butt;stroke-linejoin:round;stroke-miterlimit:100;stroke-dasharray:none;stroke-dashoffset:0;stroke-opacity:1" transform="matrix(.24477 0 0 .24462 82.873 75.653)"/></g><g style="stroke-width:3.98534"><path d="M371.234 973.156c10.216-.855 20.428-1.77 30.639-2.69 5.196-.478 10.394-.944 15.588-1.444l-.144 7.626-.041-1.023c-5.197.43-10.392.893-15.587 1.345a4291.05 4291.05 0 0 0-30.64 2.791l.185-6.605zM473.803 925.812c-10.257 8.577-18.69 19.912-23.721 32.817-1.414 3.627-2.323 8.45-3.484 12.177-1.582 11.623-.037 25.424 6.355 35.204 3.655 5.59 5.98 6.915 10.846 10.937 6.86 4.214 3.474 2.413 10.107 5.507l-1.72 5.326c-6.937-3.209-3.39-1.346-10.587-5.694-2-1.605-4.148-3.015-5.997-4.813-4.309-4.187-8.197-8.995-10.537-14.753-5.504-13.546-3.392-24.81-.52-38.947 1.262-3.756 2.276-7.618 3.786-11.268 5.395-13.05 14.466-24.398 24.967-33.1zM492.71 970.243c-1.84 1.265-3.44 3.17-5.159 4.584-3.69 4.783-4.011 5.223-5.799 10.815-.123.383.585-1.278.793-.93.774 1.289.332 4.02 1.062 5.332 2.087 3.748 3.807 3.696 7.611 5.256 1.886.087 3.777.416 5.659.26 8.412-.703 15.755-5.71 19.66-12.876.823-1.51 1.243-4.218 1.864-5.815.253-1.417.778-2.814.757-4.252-.014-.96-.278 1.95-.777 2.78-.26.431-.474-1.306 0-1.495.622-.248 1.38 1.207 1.862.754 1.092-1.028.23-3.694 1.696-4.102 1.17-.325.326 3.354.488 4.519 4.086 12.982 15.711 20.852 27.277 27.394l-1.916 5.39c-12.07-6.764-24-14.863-28.95-28.048-.271-1.22-.906-2.416-.813-3.661.209-2.798.392-5.749 1.702-8.253.371-.708 1.796-.162 2.445.325.465.349.294 1.122.239 1.688-.759 7.787-.872 7.536-2.433 13.48-.778 1.622-1.364 3.345-2.334 4.868-4.686 7.362-12.737 12.331-21.729 12.899-2.116.134-4.234-.251-6.351-.377-4.537-1.78-6.432-1.729-9.26-5.86-4.314-6.3-1.557-15.201 2.395-21.062 1.218-1.806 2.838-3.327 4.258-4.991 1.823-1.42 3.543-2.974 5.469-4.261 6.94-4.639 15.51-7.927 24.013-7.927l-1.432 5.597c-8.195.15-17.677 4.791-22.297 7.97zM552.328 969.309c11.868-.662 23.744-.843 35.626-.809 4.932.036 9.864.094 14.794.232l-1.29 6.496c-4.907-.177-9.816-.26-14.725-.308-11.877-.055-23.747.152-35.606.886zM882.452 885.068c1.829 13.78 1.595 27.78 1.943 41.68.129 10.478.013 19.299-.16 29.775-.07 4.28-.75 9.52.32 13.756.112-.334.107-.755.337-1.004 1.138-1.232 6.24-5.04 7.065-5.565 4.008-2.548 7.277-4.102 11.863-5.034 2.206-.448 4.469-.435 6.703-.652 2.222.363 4.5.423 6.665 1.088 8.02 2.463 15.095 9.478 16.729 18.883.35 2.01.093 4.095.14 6.142-1.193 4.113-1.626 8.608-3.579 12.338-1.075 2.054-3.236 3.152-5.115 4.267-6.75 4.006-15.01 4.827-22.425 3.25-2.4-.51-4.67-1.607-7.005-2.41-6.893-4.502-8.594-5.952-12.176-10.83l2.378-6.456c4.264 5.212 7.661 8.062 11.288 10.592 2.183.776 4.3 1.842 6.55 2.329 6.84 1.48 14.72.738 20.817-3.343 1.602-1.072 2.459-3.407 4.209-4.134.634-.264.693.278 1.04.93.16-1.907.64-3.814.483-5.721-.558-10.37-7.161-16.729-14.5-19.061-1.998-.635-4.11-.677-6.167-1.016-2.1.228-4.228.23-6.298.684-4.397.967-7.394 2.54-11.21 5.052-.214.14-6.919 5.326-7.73 5.635-1.033.394-2.18 1.128-3.27 1.18-.398-.764-1.04-1.424-1.192-2.292-.214-1.23.118-12.09.118-12.104.207-10.465.336-19.275.255-29.743-.333-13.783-.174-27.618-1.72-41.315zM675.868 915.295c7.123 5.033 14.052 10.533 19.888 17.245 1.984 2.28 3.757 4.761 5.636 7.142 7.268 10.533 13.438 22.441 13.766 35.828.219 8.97-2.156 15.629-4.229 24.54-4.638 11.297-13.302 19.846-22.07 27.544l-.609-6.56c8.475-7.583 16.1-15.985 20.198-27.219 2.666-3.937 2.196-3.644 2.315-11.95.188-18.422-5.014-27.528-12.008-37.905-1.813-2.347-3.517-4.795-5.437-7.043-5.672-6.64-12.47-12.026-19.458-16.96zM766.862 960.505c10.787-.411 27.456-1.334 38.233-2.012 6.27-.448 12.536-.933 18.795-1.511l-.625 6.556c-6.277.527-12.557.999-18.84 1.433-10.819.667-27.525 1.606-38.35 2.112zM768.883 979.97c11.423-.362 28.714-1.102 40.138-1.51 5.765-.196 11.53-.388 17.294-.605l-.74 7.6v-1.024c-5.76.152-11.518.312-17.277.5-11.448.401-28.758 1.156-40.201 1.612zM628.98 899.988c2.476 13.977 2.912 28.236 3.263 42.418.13 9.419.092 18.84.01 28.259-.026 2.817-.47 7.451.132 10.435-.09-.497-.482-1.04-.266-1.49.625-1.307 4.973-5.107 5.622-5.593 2.96-2.218 6.996-4.439 10.419-5.581 2.124-.71 4.35-1.007 6.525-1.511 2.219-.077 4.443-.427 6.655-.231 7.554.668 15.645 4.888 18.821 12.675.643 1.575.753 3.342 1.13 5.013-.766 3.901-.86 8.025-2.3 11.702-.724 1.853-2.454 3.087-3.96 4.289-5.754 4.596-13.09 6.135-20.133 5.997-2.413-.047-4.8-.551-7.199-.827-7.877-2.493-4.317-.91-10.779-4.486l1.886-6.28c5.907 3.481 2.62 1.937 9.976 4.341 7.368.842 13.216 1.5 20.285-1.846 1.815-.86 3.363-2.255 5.044-3.382 1.02-1.37 1.612-3.293 3.061-4.11.602-.34.307.392.46 1.1-.146-1.542 0-4.174-.44-5.653-2.195-7.452-9.844-11.471-16.637-12.055-2.083-.179-4.176.177-6.264.266-6.595 1.647-10.37 2.689-15.904 7.11-1.163.93-2.195 2.033-3.26 3.087-.84.83-1.467 1.948-2.456 2.563-.93.578-2.078 1.624-3.117 1.925-.413-.457-1.079-.76-1.24-1.37-.319-1.217-.114-2.525-.116-3.788 0-2.024.074-4.047.1-6.07.124-9.418.172-18.837.077-28.256-.281-14.065-.616-28.246-3.092-42.105l3.703-6.546zM960.478 970.731c9.058-.12 18.12-.445 27.183-.57 6.663-.087 13.327-.091 19.991-.087l-.97 6.55a930.356 930.356 0 0 0-19.942.011c-9.09.129-18.175.467-27.26.652l.998-6.554zM1072.248 959.107c-9.656.796-18.645 6.496-25.008 14.188-1.636 1.977-2.902 4.272-4.352 6.409-.891 2.216-1.863 5.42-2.672 7.672-.104.287.432-1.007.54-.721.568 1.505.275 4.342.981 5.778a7.162 7.162 0 0 0 2.829 3c3.594 2.046 5.195 1.88 8.781.63 1.948-.678 4.338-2.617 5.95-3.932 6.894-5.63 11.413-15.565 13.825-24.301.534-1.611.566-2.739 3.303.534.61.73.335 2.96.666 3.871.52 1.43 1.127 2.832 1.872 4.142 2.868 5.042 4.221 6.034 8.162 10.436 6.202 6.33 13.405 11.305 20.683 16.07l-2.068 6.464c-7.424-4.865-14.78-9.927-21.184-16.291-4.296-4.61-8.429-9.008-11.041-14.993-.41-.94-1.355-2.037-.906-2.956.365-.748 3.826-1.507 2.349.32-3.09 8.937-7.936 18.984-15.468 24.482-1.84 1.344-3.828 1.635-5.959 2.394-1.917.683-3.988.915-6.019.85-3.542-.113-7.247-1.68-9.332-4.924-4.84-7.537.106-18.147 3.588-25.168 1.584-2.153 2.992-4.47 4.753-6.46 7.003-7.918 16.6-13.658 26.866-14.245l-1.139 6.75z" style="opacity:1;fill:#000;fill-opacity:.773148;fill-rule:nonzero;stroke:#000;stroke-width:0;stroke-linecap:butt;stroke-linejoin:round;stroke-miterlimit:100;stroke-dasharray:none;stroke-dashoffset:0;stroke-opacity:1" transform="matrix(.246 0 0 .24585 81.186 75.783)"/></g><path d="m266.143 269.725-1.193-.467-1.023-.02-1.051.508-.747.86-.346 1.316.11 1.262.603 1.228 1.285 1.293 1.828.964 1.898.458 2.14.1 1.955-.281 1.749-.77 1.316-.978.924-1.125.397-1.07.048-1.237-.393-.85-.768-.89-.636-.513-.75-.373-.87-.224-1.024.093-1.063.337-.68.617-.48.67-.133.66.28.407.51-.101.408-.33.606-.351 1.193.042.597.852v.851l-.682 1.022-1.022.511-1.705-.17-.852-.98-.426-1.064.043-1.32.81-1.448.98-.894 1.618-.639 1.62-.139 1.897.089 1.135-.115 1.338-.25 1.169-.6.858-1.044.198-1.447-.545-1.05-.64-.383h-.681l-.511.426-.043.809-.34.766-.938.426-.98-.17-.384-.469-.298-1.277.767-1.15 1.449-.746 1.917-.063 1.577 1.022.681 1.49-.042 1.533-.709 1.668-1.17 1.138-1.434.592-1.695.228-.148.377.98 1.235.469 1.703-.384 2.044-.926 1.494-1.54 1.415-1.96 1.011-2.306.425-1.96.011-1.96-.287-1.752-.684-1.552-.946-1.194-1.259-.65-1.476-.192-1.493.182-1.618.65-1.237 1.098-1.054 1.151-.498.236-.361-.274-1.47.098-1.5.72-1.383 1.236-1.129 1.692-.779 1.662-.127 1.46.627.863 1.118.148 1.32-.64 1.15-.51.469-.597-.213.392-.937.075-.937-.521-.828-.969-.437-1.29.073-1.224.564-.991.918-.478 1.181.033 1.236.307.828.432.347.488.183.806.364.384.851-.597.639z" style="display:inline;opacity:1;fill:#000;stroke:none;stroke-width:.951019px;stroke-linecap:butt;stroke-linejoin:miter;stroke-opacity:1"/><path d="M628.101 525.367c-7.162-1.452-15.273-.403-21.763 3.186-5.224 2.888-8.139 6.381-12.317 10.547-2.51 4.035-5.561 7.646-5.783 12.727-.025.538 1.185-.648 1.563-.271 1.18 1.174 1.301 3.204 2.52 4.337 3.427 3.188 7.158 2.787 11.43 3.252 2.363-.415 4.805-.5 7.087-1.245 6.916-2.258 12.594-7.209 16.044-13.673.446-.836 3.296-9.01 1.259-3.202-.106-5.462-.143.446 1.194-.003 1.017-.342.672-3.288 1.637-2.815 1.454.713 1.073 3.122 1.886 4.542 1.05 1.836 2.444 3.443 3.667 5.164 5.032 5.79 11.357 9.9 17.704 13.984l-2.163 6.566c-6.565-4.18-13.095-8.407-18.406-14.253-1.326-1.748-6.113-7.367-6.456-10.176-.398-3.26-.172-6.65.615-9.836.896-3.63 5.895-1.239 4.65 1.427-1.364 6.068-1.595 10.4-4.736 15.482-5.682 9.194-14.762 14.087-25.26 14.848-5.151-.622-8.896-.248-13.135-3.808-5.644-4.74-3.817-9.943-2.585-17.09.39-2.264 1.302-4.435 2.368-6.46 1.209-2.294 2.935-4.264 4.402-6.396 2.042-1.935 3.937-4.047 6.127-5.806 8.565-6.877 19.496-10.09 30.255-7.774l-1.804 6.746zM572.685 590.573c17.328-1.597 34.791-.965 52.163-.607 15.138.544 30.293.473 45.433.059l-1.01 6.898c-15.166.33-30.344.372-45.506-.173-17.3-.346-34.7-.968-51.948.766l.868-6.943zM597.523 609.39c2.633 13.618 2.026 31.278 1.547 45.083-.178 2.292-.226 4.599-.533 6.876-.507 3.765-1.1 7.524-1.905 11.233-1.274 5.864-3.77 2.747-1.8-6.322.323-1.487 1.94-2.317 2.91-3.475 8.39-8.462 19.81-13.18 31.733-11.493 2.337.33 4.575 1.18 6.862 1.768 10.303 4.873 16.308 10.228 11.363 23.078-1.33 3.456-8.758 6.588-11.191 7.876-7.737 2.738-15.82 3.914-23.898 1.904-1.926-.48-3.687-1.486-5.53-2.23l1.654-6.955c1.668.714 3.249 1.69 5.002 2.14 7.649 1.97 15.3.728 22.575-1.996 2.018-1.176 4.238-2.05 6.055-3.527 1.358-1.103 1.789-3.253 3.319-4.09.614-.336.638 2.734.3 2.11-.736-1.36-.69-3.096-1.534-4.39-2.583-3.95-5.506-4.796-9.487-6.915-2.135-.565-4.22-1.384-6.405-1.695-11.348-1.613-22.105 3.207-29.778 11.514-.824 1.14-1.152 3.872-2.472 3.422-1.707-.582-1.403-3.379-2.209-5.018-.042-.086-.3.05-.281-.044 2.034-10.728-1.087 15.443 1.27-7.91.537-13.67.98-31.032-.941-44.609l3.374-6.334zM716.2 583.753c13.55-1.493 27.204-2.043 40.824-2.705 5.241-.25 10.484-.476 15.725-.717l-.72 6.967c-5.236.2-10.47.418-15.704.657-13.528.646-27.101 1.177-40.544 2.781l.42-6.983zM718.99 601.706c15.244-1.502 30.577-2.12 45.882-2.852 7.92-.365 4.214-.197 11.118-.504l-.716 6.935c-6.894.283-3.193.127-11.103.471-15.213.706-30.465 1.3-45.601 2.933l.42-6.983zM940.054 529.592c-9.567-4.927-19.526-.195-28.43 4.116-6.227 3.948-11.462 8.44-13.956 15.991-.14.425.698-1.207.965-.86 7.375 9.585-4.52.269 6.43 7.713 2.054.285 4.092.934 6.161.855 9.415-.363 17.943-6.412 23.392-14.444.921-1.357 1.553-2.919 2.33-4.378 1.404 1.66.23-4.08 1.566-4 3.069.182 2.746 1.803 4.083 4.097.774 1.329 1.546 2.675 2.504 3.855 1.23 1.516 2.688 2.797 4.032 4.196 5.358 4.769 11.692 7.68 17.982 10.635l-1.65 7.155c-6.503-3.034-13.05-6.032-18.658-10.844-3.52-3.473-4.761-4.186-7.221-8.324-.504-.847-1.246-1.739-1.173-2.743.041-.565.91-.81 1.427-.715 1.32.242-7.327 6.347-1.65 3.966-.902 1.474-1.673 3.051-2.705 4.42-6.187 8.211-15.343 14.233-25.358 14.404-2.347.04-4.652-.696-6.978-1.044-1.828-1.15-3.957-1.863-5.484-3.446-6.143-6.374-2.761-17.55 1.904-23.757 3.71-4.936 7.156-6.705 12.042-10.094 9.633-4.508 20.124-8.99 30.374-3.902l-1.93 7.148zM819.515 589.655c21.296.49 42.595.077 63.892-.113a6098.608 6098.608 0 0 0 72.545-1.929l4.068-.144-.847 6.92-4.07.12c-24.19.667-48.38 1.293-72.574 1.801-21.32.216-42.639.642-63.959.28l.945-6.935zM828.404 648.753c12.504.644 25.051.64 37.57.385 8.665-.318 4.603-.13 12.187-.537l-1.043 6.888c-7.629.374-3.545.2-12.254.497-12.575.236-25.174.244-37.737-.332l1.277-6.901zM903.724 606.808c.61 11.25.566 27.235.674 38.505-.32 10.322.027 1.265-.47 10.122-.054.94-.107 1.88-.115 2.82 0 .243-.098.856.1.722.31-.21.267-.707.4-1.06l3.036-1.626c10.418-5.023 22.274-7.037 33.472-3.468 2.194.7 4.216 1.868 6.324 2.802 1.54 1.273 3.298 2.312 4.619 3.818 5.112 5.83 2.734 14.977-1.086 21.174-2.032 3.297-9.199 5.171-12.152 6.236-2.645.29-5.274.852-7.934.869-8.753.052-18.286-2.83-24.914-8.85-.932-.847-1.642-1.917-2.462-2.875l2.571-6.466c.663.905 1.197 1.925 1.989 2.715 5.965 5.947 15.227 8.677 23.387 8.577 2.498-.031 4.961-.6 7.442-.901 2.11-.83 4.358-1.365 6.331-2.492 1.65-.942 2.582-3.133 4.406-3.639.763-.212.73 2.728 1.204 2.083 3.032-4.14-2.821-11.83-5.334-13.593-1.97-.9-3.85-2.033-5.907-2.7-10.782-3.502-22.161-1.273-32.106 3.684-1.968.984-4.061 2.525-6.472 1.927-2.247-.557-.081-12.35-.35-14.269-.078-11.202-.171-27.097-.49-38.293l3.838-5.822zM829.072 541.954c6.334.054 12.668.063 19.002.08 9.086.062 18.172-.194 27.249-.564 2.117-.098 1.16-.05 2.874-.14l-.797 6.942c-1.724.057-.762.026-2.888.091-9.102.253-18.208.496-27.315.464-6.341.017-12.682.026-19.023.08l.898-6.953z" style="opacity:1;fill:#000;fill-opacity:.773148;fill-rule:nonzero;stroke:#000;stroke-width:0;stroke-linecap:butt;stroke-linejoin:round;stroke-miterlimit:100;stroke-dasharray:none;stroke-dashoffset:0;stroke-opacity:1" transform="translate(-409.333 -1564.898)"/><path d="M379.27 974.573c11.225-.544 22.447-1.146 33.668-1.752 5.712-.317 11.424-.624 17.134-.963l-.496 7.324c-5.71.272-11.418.576-17.127.868-11.226.59-22.452 1.19-33.675 1.849l.496-7.326zM484.036 927.93c-9.858 8.242-17.962 19.135-22.796 31.536-1.359 3.485-2.232 7.165-3.348 10.747-1.52 11.169-.036 22.491 6.107 31.89 3.512 5.372 5.746 6.645 10.422 10.51 6.592 4.05 3.339 2.319 9.713 5.292l-1.652 7.058c-6.667-3.083-3.26-1.294-10.175-5.472-1.92-1.542-3.986-2.897-5.763-4.625-4.14-4.024-7.558-8.644-9.806-14.177-5.29-13.017-3.26-23.842-.5-37.427 1.212-3.61 2.187-7.32 3.637-10.829 5.186-12.54 13.584-23.446 23.675-31.809l.486 7.306zM523.636 962.998c-7.622.324-15.292 3.345-21.431 7.658-1.756 1.233-3.305 2.718-4.958 4.077-3.546 4.597-4.019 4.363-5.737 9.736-.118.369.562-1.228.762-.894.743 1.24.483 2.88 1.185 4.14 2.005 3.603 3.658 3.552 7.314 5.051 1.813.084 3.63.4 5.438.25 8.084-.676 15.14-5.487 18.893-12.374.79-1.45 1.194-3.068 1.792-4.603.242-1.362.747-2.704.727-4.086-.014-.922-.267 1.874-.748 2.671-.249.415-.455-1.254 0-1.437.599-.237 1.327 1.16 1.79.725 1.05-.987.221-3.55 1.63-3.941 1.125-.313.313 2.238.47 3.357 3.926 12.476 15.097 20.039 26.212 26.326l-1.842 6.163c-11.598-6.5-23.063-14.283-27.82-26.952-.26-1.173-.87-2.323-.781-3.52.2-2.688.377-5.523 1.636-7.93.356-.68 1.725-.155 2.35.313.445.334.282 1.078.229 1.621-.73 7.484-.838 7.242-2.338 12.954-.748 1.56-1.311 3.215-2.243 4.679-4.504 7.074-12.24 11.85-20.881 12.395-2.034.129-4.07-.241-6.104-.362-4.36-1.71-6.18-1.661-8.899-5.632-4.145-6.054-1.495-14.607 2.302-20.24 1.17-1.735 2.728-3.197 4.092-4.796 1.752-1.365 3.404-2.858 5.256-4.095 6.669-4.457 14.904-7.617 23.076-7.617l-1.376 6.363zM559.497 968.774c11.404-.637 22.817-.81 34.235-.777 4.74.034 9.48.09 14.217.223l-1.24 7.226c-4.715-.17-9.433-.25-14.15-.296-11.414-.052-22.82.147-34.217.852l1.155-7.228zM876.42 886.228c1.758 13.241 1.851 26.696 2.186 40.054.124 10.068.013 20.138-.153 30.204-.068 4.114-.722 9.15.306 13.22.108-.321.104-.726.324-.964 1.094-1.185 5.998-4.845 6.79-5.349 3.852-2.448 6.993-3.942 11.4-4.837 2.12-.431 4.295-.418 6.442-.627 2.135.349 4.324.407 6.405 1.046 7.706 2.367 14.506 9.108 16.076 18.146.335 1.932.089 3.935.134 5.903-1.146 3.952-1.562 8.271-3.439 11.856-1.033 1.974-3.11 3.029-4.915 4.1-6.487 3.85-14.425 4.639-21.55 3.124-2.307-.49-4.488-1.544-6.732-2.317-6.625-4.326-8.258-5.72-11.7-10.407l2.285-7.188c4.097 5.008 7.362 7.747 10.847 10.178 2.098.746 4.132 1.77 6.294 2.238 6.574 1.423 14.146.71 20.005-3.212 1.54-1.03 2.363-3.274 4.044-3.973.61-.253.667 1.252 1 1.878.155-1.832.615-3.664.464-5.497-.7-8.488-6.881-15.092-13.933-17.333-1.921-.61-3.951-.65-5.927-.976-2.018.219-4.064.22-6.053.657-4.225.93-7.105 2.441-10.773 4.855-.205.135-6.648 5.118-7.427 5.415-.993.379-2.096.1-3.143.15-.382-.735-1-1.37-1.145-2.203-.206-1.182.113-11.618.113-11.632.199-10.056.323-20.116.245-30.175-.32-13.245-.485-26.54-1.972-39.703zM678.215 916.868c6.846 4.836 13.505 10.122 19.113 16.571 1.906 2.193 3.61 4.576 5.416 6.864 6.984 10.122 12.595 21.566 12.91 34.43.21 8.62-2.071 15.019-4.064 23.583-4.457 10.856-12.464 19.07-20.89 26.469l-.585-7.29c8.144-7.286 15.79-15.36 19.728-26.156 2.562-3.783 2.11-2.517 2.224-10.498.181-12.608-5.136-23.878-11.857-33.85-1.742-2.256-3.38-4.608-5.225-6.768-5.451-6.38-11.984-11.557-18.699-16.298l1.93-7.057zM765.66 959.676c10.366-.395 25.428-.963 35.785-1.614 6.025-.43 12.047-.898 18.062-1.453l-.602 7.285c-6.031.506-12.066.96-18.104 1.377-10.397.64-25.495 1.225-35.898 1.712zM767.602 979.02c10.977-.349 26.637-1.06 37.616-1.452 5.54-.189 11.08-.373 16.62-.581l-.712 7.304c-5.535.146-11.07.3-16.603.48-11.001.385-26.68 1.111-37.677 1.549zM633.158 902.158c2.378 13.431 2.798 27.134 3.135 40.762.124 9.052.089 18.105.01 27.157-.025 2.707-.453 7.16.127 10.027-.087-.477-.463-.999-.256-1.432.6-1.255 4.78-4.907 5.402-5.374 2.846-2.132 6.724-4.265 10.013-5.363 2.041-.682 4.18-.968 6.27-1.452 2.133-.074 4.27-.41 6.396-.222 7.26.642 15.034 4.697 18.086 12.18.618 1.514.724 3.212 1.086 4.818-.736 3.749-.826 7.712-2.21 11.245-.696 1.781-2.358 2.966-3.805 4.122-5.53 4.416-12.58 5.895-19.348 5.763-2.32-.045-4.612-.53-6.918-.795-7.57-2.396-4.148-.874-10.358-4.31l1.812-7.02c5.677 3.345 2.518 1.861 9.587 4.171 7.08.81 12.7 1.441 19.493-1.774 1.744-.826 3.232-2.167 4.848-3.25.98-1.316 1.549-3.164 2.941-3.95.579-.325.295 1.362.442 2.043-.14-1.483 0-3.027-.422-4.449-2.11-7.16-9.461-11.023-15.989-11.584-2.001-.172-4.012.17-6.019.255-6.338 1.583-9.966 2.584-15.284 6.833-1.117.893-2.109 1.954-3.133 2.966-.807.798-1.41 1.872-2.36 2.463-.894.556-1.997.577-2.995.865-.397-.439-1.036-.729-1.19-1.317-.308-1.168-.111-2.425-.113-3.64 0-1.944.071-3.888.097-5.833.118-9.05.164-18.102.073-27.152-.27-13.516-.592-27.145-2.971-40.462l3.559-6.29zM951.72 970.14c8.705-.115 17.414-.427 26.123-.548 6.403-.083 12.807-.087 19.21-.083l-.931 7.279a894.31 894.31 0 0 0-19.165.01c-8.734.124-17.465.45-26.195.627l.958-7.283zM1059.13 959.954c-9.28.765-17.918 6.243-24.033 13.635-1.572 1.9-2.788 4.106-4.182 6.159-.856 2.129-1.79 4.225-2.568 6.388-.1.276.416-.967.52-.693.545 1.446.264 3.188.942 4.568a6.883 6.883 0 0 0 2.718 2.882c3.454 1.967 5.532.74 9.095-.05 1.687-1.04 3.513-1.859 5.06-3.123 6.627-5.41 10.97-13.973 13.287-22.367.513-1.549.544-2.632 3.175.513.586.7.321 1.86.64 2.735.498 1.374 1.082 2.721 1.798 3.98 2.756 4.846 4.057 5.8 7.844 10.03 5.96 6.083 12.882 10.864 19.876 15.443l-1.988 7.196c-7.134-4.675-14.203-9.54-20.357-15.656-4.129-4.43-8.1-8.656-10.61-14.408-.395-.903-1.302-1.957-.87-2.84.35-.72 3.676-1.449 2.256.308-2.97 8.588-7.626 17.258-14.864 22.541-1.769 1.292-3.817 2.081-5.726 3.122-1.928.326-3.833 1.042-5.784.98-3.405-.108-6.965-1.614-8.968-4.732-4.653-7.243.101-17.439 3.448-24.185 1.522-2.07 2.875-4.296 4.567-6.21 6.73-7.608 15.952-13.123 25.818-13.687l-1.095 7.471z" style="opacity:1;fill:#000;fill-opacity:.773148;fill-rule:nonzero;stroke:#000;stroke-width:0;stroke-linecap:butt;stroke-linejoin:round;stroke-miterlimit:100;stroke-dasharray:none;stroke-dashoffset:0;stroke-opacity:1" transform="matrix(1.01 0 0 1.01 -416.693 -1574.454)"/></g></svg>