<svg xmlns="http://www.w3.org/2000/svg" xmlns:xlink="http://www.w3.org/1999/xlink" width="235.799" height="171.995" viewBox="0 0 176.85 128.996"><defs><symbol id="g" overflow="visible" style="overflow:visible"><path d="M2.39-3.297c-.03 0-.046 0-.218.172C.922-1.891-.968-1.562-2.5-1.562c-1.734 0-3.469-.375-4.703-1.61-.125-.125-.14-.125-.172-.125-.078 0-.11.031-.11.094 0 .11.688 1 1.954 1.594 1.093.5 2.203.625 3.031.625.781 0 1.984-.11 3.125-.657C1.844-2.25 2.5-3.094 2.5-3.203c0-.063-.031-.094-.11-.094zm0 0" style="stroke:none"/></symbol><symbol id="p" overflow="visible" style="overflow:visible"><path d="M-2.5-2.875c-.766 0-1.969.11-3.11.656-1.218.594-1.874 1.453-1.874 1.547 0 .063.046.11.109.11.031 0 .047 0 .234-.188.985-.984 2.563-1.547 4.641-1.547 1.719 0 3.469.36 4.719 1.594.125.14.14.14.172.14.062 0 .109-.046.109-.109 0-.094-.688-1-1.953-1.578-1.094-.516-2.203-.625-3.047-.625Zm0 0" style="stroke:none"/></symbol><symbol id="h" overflow="visible" style="overflow:visible"><path d="M-3.75-4.922c-.344 0-.656.125-.656.422 0 .219.234.469.453.469.14 0 .203-.063.281-.125.25-.235.578-.266.781-.266.282 0 2.782.469 2.782 1.61 0 .546-.5.656-.829.656-.578 0-1.437-.328-2.156-.594-.172-.047-.312-.11-.5-.11-.5 0-.812.329-.812.75 0 .938 1.468 1.282 1.531 1.282.11 0 .11-.094.11-.156 0-.125-.032-.125-.172-.172-.297-.078-1.25-.344-1.25-.922 0-.11.03-.219.296-.219.235 0 .5.094.891.235.844.312 1.438.5 1.906.5.922 0 1.203-.625 1.203-1.22 0-1.671-3.593-2.14-3.859-2.14zm0 0" style="stroke:none"/></symbol><symbol id="i" overflow="visible" style="overflow:visible"><path d="M-1.031-4.672c-.063 0-.172.094-.172.172 0 .031.016.047.11.125.937.734.984 1.625.984 1.797 0 .64-.704.75-1.094.75A4.34 4.34 0 0 1-2.297-2v-.375c0-.313-.031-.969-.219-1.453-.328-.781-.968-.781-1.046-.781-.454 0-.844.359-.844 1 0 1.046 1 2.468 2.765 2.468.907 0 1.75-.468 1.75-1.421 0-1.282-1-2.11-1.14-2.11zm-2.547.438c1.062 0 1.062 1.64 1.062 1.968v.22c-1.64-.438-1.671-1.47-1.671-1.563 0-.391.265-.625.609-.625zm0 0" style="stroke:none"/></symbol><symbol id="j" overflow="visible" style="overflow:visible"><path d="M-3.781-4.875c-.516 0-.625.64-.625.984 0 .688.5 1.047.718 1.204-.53.109-.718.5-.718.828 0 .359.234.546.531.718.39.188 1 .313 1 .313.11 0 .11-.094.11-.156 0-.125-.016-.125-.235-.188-.703-.172-1.188-.36-1.188-.672 0-.265.297-.265.407-.265.156 0 .344.03.5.078l2.984.75c.063.015.125.031.14.031.11 0 .266-.078.266-.281 0-.297-.28-.375-.375-.39l-2.609-.657c-.031 0-1.313-.453-1.313-1.313 0-.046 0-.328.141-.53.11.359.422.39.484.39.126 0 .313-.094.313-.36a.505.505 0 0 0-.531-.484Zm0 0" style="stroke:none"/></symbol><symbol id="k" overflow="visible" style="overflow:visible"><path d="M-1.422-3.547c-.11 0-.11.078-.11.14 0 .126.016.126.204.204.469.187 1.219.578 1.219 1.156 0 .266-.25.266-.407.266-.078 0-.234 0-.515-.078l-2.953-.735v-.844c0-.171 0-.28-.188-.28-.125 0-.125.093-.125.25v.796l-1.469-.375c-.14-.031-.171-.031-.218-.031-.204 0-.25.172-.25.265 0 .25.203.344.359.391l1.578.39v.845c0 .171 0 .28.188.28.125 0 .125-.093.125-.25v-.796l2.859.719c.031.015.203.046.344.046.484 0 .89-.328.89-.843 0-1.016-1.484-1.516-1.53-1.516zm0 0" style="stroke:none"/></symbol><symbol id="l" overflow="visible" style="overflow:visible"><path d="M-1.422-3.297c-.11 0-.11.078-.11.14 0 .141.032.141.173.173.296.078 1.25.359 1.25.937 0 .078-.016.219-.282.219-.25 0-.593-.14-.953-.266l-1.703-.64c-.297-.094-.375-.11-.562-.11-.547 0-.797.375-.797.735 0 .937 1.484 1.28 1.531 1.28.11 0 .11-.093.11-.155 0-.125-.032-.125-.172-.172-.329-.094-1.25-.344-1.25-.922 0-.11.046-.219.28-.219.235 0 .532.11.72.172l.828.297.984.375c.375.14.484.172.688.172.39 0 .796-.235.796-.75 0-.938-1.5-1.266-1.53-1.266zm-4.672-.265a.414.414 0 0 0-.422.437c0 .328.313.64.625.64.22 0 .422-.156.422-.453 0-.312-.297-.624-.625-.624zm0 0" style="stroke:none"/></symbol><symbol id="m" overflow="visible" style="overflow:visible"><path d="M-1.031-4.672c-.063 0-.172.094-.172.172 0 .031.016.047.11.125.937.734.984 1.625.984 1.797 0 .531-.454.781-1.032.781-.53 0-1.578-.266-2.046-.531-.657-.36-1-.86-1-1.297 0-.11.015-.563.421-.719.063.5.5.5.5.5.157 0 .313-.11.313-.328 0-.281-.219-.516-.594-.516-.484 0-.86.438-.86 1.063 0 1.25 1.423 2.531 2.876 2.531.984 0 1.64-.593 1.64-1.468 0-1.282-1-2.11-1.14-2.11zm0 0" style="stroke:none"/></symbol><symbol id="n" overflow="visible" style="overflow:visible"><path d="M-1.422-5.234c-.11 0-.11.078-.11.156 0 .11.016.125.235.187.563.141 1.188.329 1.188.657 0 .265-.266.265-.407.265-.078 0-.234 0-.515-.062l-2.703-.688c-.141-.031-.157-.031-.22-.031-.202 0-.25.172-.25.266 0 .312.329.39.391.39-.437.203-.593.516-.593.828 0 1.11 1.515 2.282 2.968 2.282.844 0 1.547-.454 1.547-1.204 0-.359-.203-.796-.703-1.187.5-.11.703-.484.703-.828 0-.375-.25-.578-.562-.734-.375-.172-.969-.297-.969-.297zm.188 1.78c.312.079 1.125.704 1.125 1.25 0 .47-.594.548-.891.548-.5 0-1.656-.313-2.078-.485-.61-.25-1.11-.703-1.11-1.125 0-.437.516-.687.938-.687l.125.031zm0 0" style="stroke:none"/></symbol><symbol id="o" overflow="visible" style="overflow:visible"><path d="M-1.422-2.797c-.11 0-.11.078-.11.156 0 .047 0 .11.063.141l.25.063c.688.171 1.11.359 1.11.64 0 .266-.266.266-.407.266-.078 0-.218 0-.468-.063l-5.688-1.422c-.031-.015-.125-.03-.125-.03-.094 0-.125.062-.125.14 0 .031.016.125.031.156l.079.984c0 .125.015.235.203.235.109 0 .109-.11.109-.25 0-.469.063-.485.172-.485.031 0 .172.016.172.016L-1.172-1c.031.016.234.063.39.063.516 0 .891-.36.891-.844 0-.375-.265-.578-.515-.703-.344-.172-.985-.313-1.016-.313zm0 0" style="stroke:none"/></symbol><symbol id="q" overflow="visible" style="overflow:visible"><path d="M3.297 2.39c0-.03 0-.046-.172-.218C1.891.922 1.562-.968 1.562-2.5c0-1.734.375-3.469 1.61-4.703.125-.125.125-.14.125-.172 0-.078-.031-.11-.094-.11-.11 0-1 .688-1.594 1.954C1.11-4.438.984-3.328.984-2.5c0 .781.11 1.984.657 3.125C2.25 1.844 3.094 2.5 3.203 2.5c.063 0 .094-.031.094-.11zm0 0" style="stroke:none"/></symbol><symbol id="t" overflow="visible" style="overflow:visible"><path d="M2.875-2.5c0-.766-.11-1.969-.656-3.11C1.625-6.827.766-7.483.672-7.483a.107.107 0 0 0-.11.109c0 .031 0 .047.188.234.984.985 1.547 2.563 1.547 4.641 0 1.719-.36 3.469-1.594 4.719-.14.125-.14.14-.14.172 0 .062.046.109.109.109.094 0 1-.688 1.578-1.953.516-1.094.625-2.203.625-3.047Zm0 0" style="stroke:none"/></symbol><symbol id="e" overflow="visible" style="overflow:visible"><path d="M6.844-3.266c.156 0 .343 0 .343-.187 0-.203-.187-.203-.328-.203H.891c-.141 0-.329 0-.329.203 0 .187.188.187.329.187zm.015 1.938c.141 0 .329 0 .329-.203 0-.188-.188-.188-.344-.188H.89c-.141 0-.329 0-.329.188 0 .203.188.203.329.203zm0 0" style="stroke:none"/></symbol><symbol id="a" overflow="visible" style="overflow:visible"><path d="M4-1.11c-.078.094-.125.157-.219.266-.219.313-.344.406-.453.406-.14 0-.234-.124-.312-.406-.016-.078-.032-.14-.032-.172-.25-1.015-.359-1.468-.359-1.609.438-.781.797-1.219.969-1.219.062 0 .14.031.25.078.11.079.187.094.265.094.204 0 .344-.14.344-.36 0-.202-.172-.359-.406-.359-.438 0-.813.36-1.5 1.422l-.11-.547c-.14-.687-.25-.875-.53-.875-.22 0-.548.079-1.157.282l-.11.046.032.141c.39-.078.469-.11.562-.11.25 0 .313.095.454.688l.28 1.235-.812 1.156C.953-.641.75-.47.641-.47a.554.554 0 0 1-.25-.094.755.755 0 0 0-.329-.093c-.187 0-.328.14-.328.344 0 .265.204.421.5.421.297 0 .422-.093.922-.703.266-.312.485-.578.89-1.156L2.36-.562c.125.515.25.671.579.671.374 0 .624-.234 1.203-1.14zm0 0" style="stroke:none"/></symbol><symbol id="s" overflow="visible" style="overflow:visible"><path d="M.156-3.984c.125-.032.188-.047.297-.047.578 0 .719.25 1.188 1.968.156.641.406 1.813.406 1.985 0 .156-.063.312-.219.5-.297.406-.5.672-.61.781C1 1.422.892 1.5.75 1.5c-.047 0-.125-.031-.234-.11-.141-.109-.25-.171-.36-.171a.387.387 0 0 0-.39.39c0 .25.218.438.5.438.64 0 1.953-1.485 3.03-3.469.673-1.219.954-1.937.954-2.422a.554.554 0 0 0-.547-.547c-.234 0-.39.141-.39.36 0 .156.078.265.28.39.188.11.25.204.25.344 0 .39-.359 1.172-1.218 2.578l-.188-1.156c-.156-.875-.718-2.516-.859-2.516h-.125l-.984.172a1.759 1.759 0 0 1-.313.063zm0 0" style="stroke:none"/></symbol><symbol id="b" overflow="visible" style="overflow:visible"><path d="m2.14-4.984-1.328.671v.094c.094-.031.172-.062.204-.078.14-.047.265-.078.328-.078.156 0 .234.11.234.344v3.343c0 .25-.062.422-.187.485-.11.062-.204.078-.516.094V0h2.031v-.11c-.578-.015-.703-.077-.703-.437v-4.422zm0 0" style="stroke:none"/></symbol><symbol id="c" overflow="visible" style="overflow:visible"><path d="m3.5-1.016-.094-.03c-.265.421-.375.484-.703.484H.938l1.25-1.297c.656-.688.937-1.25.937-1.829 0-.734-.594-1.296-1.36-1.296-.406 0-.796.156-1.062.453-.234.25-.344.484-.469 1.015l.157.032c.28-.72.546-.954 1.062-.954.625 0 1.047.422 1.047 1.032 0 .578-.344 1.265-.969 1.922L.22-.094V0h2.875zm0 0" style="stroke:none"/></symbol><symbol id="r" overflow="visible" style="overflow:visible"><path d="M2.031-.016c0-.656-.25-1.046-.64-1.046a.517.517 0 0 0-.532.53c0 .266.204.532.532.532a.58.58 0 0 0 .343-.125c.032-.031.047-.031.047-.031.016 0 .016 0 .016.14 0 .75-.344 1.344-.672 1.672-.11.11-.11.125-.11.157 0 .078.048.109.094.109.11 0 .922-.766.922-1.938zm0 0" style="stroke:none"/></symbol><symbol id="d" overflow="visible" style="overflow:visible"><path d="M6.563-2.297c.171 0 .359 0 .359-.203 0-.188-.188-.188-.36-.188h-5.39c-.172 0-.344 0-.344.188 0 .203.172.203.344.203zm0 0" style="stroke:none"/></symbol><symbol id="f" overflow="visible" style="overflow:visible"><path d="M2.531-6.734c-.547 0-.969.171-1.328.515-.578.563-.969 1.703-.969 2.875 0 1.078.329 2.25.797 2.813A1.87 1.87 0 0 0 2.5.14c.5 0 .922-.172 1.281-.516.578-.547.969-1.703.969-2.922 0-2.031-.906-3.437-2.219-3.437zm-.031.25c.844 0 1.281 1.125 1.281 3.218 0 2.079-.437 3.141-1.281 3.141-.86 0-1.297-1.063-1.297-3.14 0-2.11.438-3.22 1.297-3.22zm0 0" style="stroke:none"/></symbol><symbol id="u" overflow="visible"><path d="M7.234-3.266c.422.36.938.625 1.266.766-.36.172-.86.422-1.266.781H.906c-.172 0-.36 0-.36.188 0 .203.188.203.345.203h5.89C6.313-.875 5.797.016 5.797.14c0 .109.125.109.187.109.079 0 .141 0 .188-.078.203-.375.484-.906 1.14-1.484a4.733 4.733 0 0 1 1.875-1.032c.157-.062.172-.062.188-.094.031 0 .031-.03.031-.062 0-.016 0-.031-.015-.047l-.032-.031c-.015 0-.03-.016-.218-.078a4.761 4.761 0 0 1-2.907-2.375c-.109-.188-.109-.203-.25-.203-.062 0-.187 0-.187.109 0 .125.5 1 .984 1.469H.891c-.157 0-.344 0-.344.203 0 .187.187.187.36.187Zm0 0" style="stroke:none"/></symbol><symbol id="v" overflow="visible"><path d="M6.844-3.266c.156 0 .343 0 .343-.187 0-.203-.187-.203-.328-.203H.891c-.141 0-.329 0-.329.203 0 .187.188.187.329.187Zm.015 1.938c.141 0 .329 0 .329-.203 0-.188-.188-.188-.344-.188H.89c-.141 0-.329 0-.329.188 0 .203.188.203.329.203Zm0 0" style="stroke:none"/></symbol><symbol id="w" overflow="visible"><path d="M7.234-3.266c.422.36.938.625 1.266.766-.36.172-.86.422-1.266.781H.906c-.172 0-.36 0-.36.188 0 .203.188.203.345.203h5.89C6.313-.875 5.797.016 5.797.14c0 .109.125.109.187.109.079 0 .141 0 .188-.078.203-.375.484-.906 1.14-1.484a4.733 4.733 0 0 1 1.875-1.032c.157-.062.172-.062.188-.094.031 0 .031-.03.031-.062 0-.016 0-.031-.015-.047l-.032-.031c-.015 0-.03-.016-.218-.078a4.761 4.761 0 0 1-2.907-2.375c-.109-.188-.109-.203-.25-.203-.062 0-.187 0-.187.109 0 .125.5 1 .984 1.469H.891c-.157 0-.344 0-.344.203 0 .187.187.187.36.187Zm0 0" style="stroke:none"/></symbol></defs><g style="display:inline"><use xlink:href="#a" width="100%" height="100%" x="348.783" y="192.41" style="fill:#000;fill-opacity:1" transform="matrix(.97092 0 0 .97092 -191.083 -119.17)"/><use xlink:href="#b" width="100%" height="100%" x="353.206" y="193.915" style="fill:#000;fill-opacity:1" transform="matrix(.97092 0 0 .97092 -191.083 -119.17)"/><use xlink:href="#a" width="100%" height="100%" x="367.899" y="192.41" style="fill:#000;fill-opacity:1" transform="matrix(.97092 0 0 .97092 -228.19 -119.17)"/><use xlink:href="#c" width="100%" height="100%" x="372.322" y="193.915" style="fill:#000;fill-opacity:1" transform="matrix(.97092 0 0 .97092 -228.19 -119.17)"/><use xlink:href="#d" width="100%" height="100%" x="358.774" y="192.41" style="fill:#000;fill-opacity:1" transform="matrix(.97092 0 0 .97092 -209.654 -119.17)"/><use xlink:href="#e" width="100%" height="100%" x="378.721" y="192.41" style="fill:#000;fill-opacity:1" transform="matrix(.97092 0 0 .97092 -209.654 -119.17)"/><use xlink:href="#f" width="100%" height="100%" x="388.675" y="192.41" style="fill:#000;fill-opacity:1" transform="matrix(.97092 0 0 .97092 -209.654 -119.17)"/><use xlink:href="#g" width="100%" height="100%" x="265.103" y="212.087" style="fill:#000;fill-opacity:1" transform="translate(-218.608 -129.573)"/><use xlink:href="#h" width="100%" height="100%" x="265.103" y="208.212" style="fill:#000;fill-opacity:1" transform="translate(-218.608 -129.093)"/><use xlink:href="#i" width="100%" height="100%" x="265.103" y="203.629" style="fill:#000;fill-opacity:1" transform="translate(-218.608 -128.613)"/><use xlink:href="#j" width="100%" height="100%" x="265.103" y="199.046" style="fill:#000;fill-opacity:1" transform="translate(-218.608 -128.133)"/><use xlink:href="#k" width="100%" height="100%" x="265.103" y="194.845" style="fill:#000;fill-opacity:1" transform="translate(-218.608 -127.941)"/><use xlink:href="#l" width="100%" height="100%" x="265.103" y="191.536" style="fill:#000;fill-opacity:1" transform="translate(-218.608 -127.701)"/><use xlink:href="#m" width="100%" height="100%" x="265.103" y="188.48" style="fill:#000;fill-opacity:1" transform="translate(-218.608 -127.413)"/><use xlink:href="#n" width="100%" height="100%" x="265.103" y="184.405" style="fill:#000;fill-opacity:1" transform="translate(-218.608 -127.269)"/><use xlink:href="#o" width="100%" height="100%" x="265.103" y="179.313" style="fill:#000;fill-opacity:1" transform="translate(-218.608 -126.789)"/><use xlink:href="#p" width="100%" height="100%" x="265.103" y="175.983" style="fill:#000;fill-opacity:1" transform="translate(-218.608 -127.077)"/><path d="M33.936 127.996V1" style="fill:none;stroke:#000;stroke-width:.79701;stroke-linecap:butt;stroke-linejoin:miter;stroke-miterlimit:10;stroke-opacity:1"/><path d="M36.201 107.586a2.268 2.268 0 1 0-4.536-.003 2.268 2.268 0 0 0 4.536.003zm0 0" style="fill:#000;fill-opacity:1;fill-rule:nonzero;stroke:#000;stroke-width:.3985;stroke-linecap:butt;stroke-linejoin:miter;stroke-miterlimit:10;stroke-opacity:1"/><use xlink:href="#q" width="100%" height="100%" x="217.591" y="234.274" style="fill:#000;fill-opacity:1" transform="matrix(.97092 0 0 .97092 -209.722 -117.554)"/><use xlink:href="#a" width="100%" height="100%" x="221.457" y="234.274" style="fill:#000;fill-opacity:1" transform="matrix(.97092 0 0 .97092 -209.722 -117.554)"/><use xlink:href="#b" width="100%" height="100%" x="225.88" y="235.779" style="fill:#000;fill-opacity:1" transform="matrix(.97092 0 0 .97092 -209.722 -117.554)"/><use xlink:href="#r" width="100%" height="100%" x="230.064" y="234.274" style="fill:#000;fill-opacity:1" transform="matrix(.97092 0 0 .97092 -209.722 -117.554)"/><use xlink:href="#s" width="100%" height="100%" x="233.931" y="234.274" style="fill:#000;fill-opacity:1" transform="matrix(.97092 0 0 .97092 -209.722 -117.554)"/><use xlink:href="#b" width="100%" height="100%" x="238.354" y="235.779" style="fill:#000;fill-opacity:1" transform="matrix(.97092 0 0 .97092 -209.722 -117.554)"/><use xlink:href="#t" width="100%" height="100%" x="242.538" y="234.274" style="fill:#000;fill-opacity:1" transform="matrix(.97092 0 0 .97092 -209.722 -117.554)"/><path d="M36.201 23.68a2.268 2.268 0 1 0-4.536-.003 2.268 2.268 0 0 0 4.536.003zm0 0" style="fill:#000;fill-opacity:1;fill-rule:nonzero;stroke:#000;stroke-width:.3985;stroke-linecap:butt;stroke-linejoin:miter;stroke-miterlimit:10;stroke-opacity:1"/><use xlink:href="#q" width="100%" height="100%" x="217.591" y="150.368" style="fill:#000;fill-opacity:1" transform="matrix(.97092 0 0 .97092 -209.802 -120.169)"/><use xlink:href="#a" width="100%" height="100%" x="221.457" y="150.368" style="fill:#000;fill-opacity:1" transform="matrix(.97092 0 0 .97092 -209.802 -120.169)"/><use xlink:href="#c" width="100%" height="100%" x="225.88" y="151.873" style="fill:#000;fill-opacity:1" transform="matrix(.97092 0 0 .97092 -209.802 -120.169)"/><use xlink:href="#r" width="100%" height="100%" x="230.064" y="150.368" style="fill:#000;fill-opacity:1" transform="matrix(.97092 0 0 .97092 -209.802 -120.169)"/><use xlink:href="#s" width="100%" height="100%" x="233.931" y="150.368" style="fill:#000;fill-opacity:1" transform="matrix(.97092 0 0 .97092 -209.802 -120.169)"/><use xlink:href="#c" width="100%" height="100%" x="238.354" y="151.873" style="fill:#000;fill-opacity:1" transform="matrix(.97092 0 0 .97092 -209.802 -120.169)"/><use xlink:href="#t" width="100%" height="100%" x="242.538" y="150.368" style="fill:#000;fill-opacity:1" transform="matrix(.97092 0 0 .97092 -209.802 -120.169)"/></g><g style="display:inline"><use xlink:href="#w" width="100%" height="100%" x="292.68" y="146.76" style="display:inline;fill:#000;fill-opacity:1" transform="translate(-906.831 -418.995) scale(3.35787)"/></g></svg>