<svg width="300" height="291" viewBox="0 0 300 291" fill="none" xmlns="http://www.w3.org/2000/svg">
<path d="M0.51123 212.862L237.402 3.00561" stroke="black" stroke-width="1.06268" stroke-miterlimit="10"/>
<path d="M24.2009 191.87V275.815M213.706 275.815V191.87H284.777M213.706 24.0006H284.777" stroke="#7F7F7F" stroke-width="0.265667" stroke-miterlimit="10"/>
<path d="M218.445 24.0006C218.446 22.5168 217.947 21.0934 217.06 20.0435C216.172 18.9936 214.967 18.4033 213.711 18.4024C212.455 18.4014 211.25 18.99 210.361 20.0386C209.472 21.0871 208.972 22.5098 208.971 23.9936C208.971 25.4775 209.469 26.9009 210.357 27.9508C211.244 29.0007 212.449 29.591 213.705 29.5919C214.962 29.5928 216.167 29.0043 217.055 27.9557C217.944 26.9071 218.444 25.4845 218.445 24.0006Z" fill="black" stroke="black" stroke-width="0.531334" stroke-miterlimit="10"/>
<path d="M194.081 14.0071C193.896 14.9128 193.835 15.0963 192.297 15.0963C191.961 15.0963 191.776 15.0963 191.776 15.5678C191.776 15.8209 191.961 15.8209 192.299 15.8209H199.303C202.406 15.8209 204.711 13.099 204.711 10.8137C204.711 9.14387 203.574 7.80149 201.669 7.54834C203.696 7.11172 205.755 5.40704 205.755 3.19142C205.755 1.48674 204.465 -0.00195312 202.131 -0.00195312H195.524C195.156 -0.00195312 194.972 -0.00195312 194.972 0.471827C194.972 0.724974 195.156 0.724975 195.524 0.724975C195.556 0.724975 195.923 0.724974 196.261 0.762134C196.6 0.831807 196.784 0.831807 196.784 1.15927C196.784 1.23359 196.753 1.30559 196.724 1.59589L194.081 14.0071ZM197.03 7.33003L198.259 1.59589C198.444 0.796971 198.475 0.724975 199.303 0.724975H201.854C203.574 0.724975 203.973 2.10451 203.973 3.11942C203.973 5.15157 202.282 7.33003 199.917 7.33003H197.03ZM196.169 15.0963H195.738C195.524 15.0592 195.463 15.022 195.463 14.8408C195.463 14.7688 195.463 14.7317 195.585 14.3322L196.938 7.87581H200.625C202.498 7.87581 202.898 9.57816 202.898 10.5582C202.898 12.8459 201.148 15.0963 198.812 15.0963H196.169Z" fill="black"/>
<path d="M24.2009 191.87H213.12" stroke="black" stroke-width="0.531334" stroke-miterlimit="10" stroke-dasharray="3.99 2.66"/>
<path d="M213.317 197.894V185.855" stroke="black" stroke-width="0.531334" stroke-miterlimit="10" stroke-linecap="square"/>
<path d="M213.706 191.18V29.5884" stroke="black" stroke-width="0.531334" stroke-miterlimit="10" stroke-dasharray="3.99 2.66"/>
<path d="M208.614 191.408H218.807" stroke="black" stroke-width="0.531334" stroke-miterlimit="10" stroke-linecap="square"/>
<path d="M24.2009 247.836H213.706" stroke="black" stroke-width="1.06268" stroke-miterlimit="10"/>
<path d="M208.975 247.836H210.849" stroke="black" stroke-width="2.65674" stroke-miterlimit="10"/>
<path d="M205.68 239.687C206.112 242.745 210.851 247.328 212.143 247.834C210.851 248.342 206.111 252.922 205.68 255.981" stroke="black" stroke-width="2.12539" stroke-miterlimit="10" stroke-linecap="round" stroke-linejoin="round"/>
<path d="M261.089 191.87V24.0006" stroke="black" stroke-width="1.06268" stroke-miterlimit="10"/>
<path d="M261.089 29.5884V27.3751" stroke="black" stroke-width="2.65674" stroke-miterlimit="10"/>
<path d="M254.192 33.4808C256.781 32.9699 260.661 27.3728 261.089 25.8469C261.52 27.3728 265.398 32.9699 267.987 33.4808" stroke="black" stroke-width="2.12539" stroke-miterlimit="10" stroke-linecap="round" stroke-linejoin="round"/>
<path d="M261.089 189.447V191.317" stroke="black" stroke-width="1.85971" stroke-miterlimit="10"/>
<path d="M253.055 190.253H269.116" stroke="black" stroke-width="1.85971" stroke-miterlimit="10" stroke-linecap="square"/>
<path d="M99.8237 275.281C100.259 273.937 100.963 272.811 101.935 271.904C102.921 270.996 103.881 270.543 104.816 270.543C105.66 270.543 106.325 270.853 106.812 271.472C107.299 272.091 107.543 272.726 107.543 273.376C107.543 273.816 107.415 274.195 107.158 274.512C106.915 274.829 106.615 274.988 106.255 274.988C105.616 274.988 105.129 274.428 104.796 273.309C104.566 272.553 104.22 272.176 103.76 272.176C103.21 272.176 102.55 272.621 101.782 273.513C101.014 274.39 100.521 275.305 100.303 276.258C100.086 277.211 99.9771 278.519 99.9771 280.183V283.493C99.9771 285.475 99.9967 286.722 100.036 287.234C100.086 287.748 100.271 288.142 100.591 288.414C100.912 288.687 101.482 288.823 102.301 288.823H102.838V289.866H94.4853V288.821H94.8883C95.6565 288.821 96.2005 288.701 96.5204 288.461C96.8533 288.204 97.0519 287.847 97.1161 287.392C97.1804 286.94 97.2125 285.64 97.2125 283.491V278.253C97.2125 276.258 97.1863 275.01 97.1338 274.512C97.0958 273.998 96.9169 273.605 96.597 273.332C96.2772 273.044 95.7076 272.9 94.8883 272.9H94.4853V271.878C95.6886 271.713 97.2629 271.267 99.2082 270.543C99.5792 271.737 99.7844 273.316 99.8237 275.281ZM124.728 271.291V283.47C124.728 285.496 124.754 286.766 124.805 287.278C124.856 287.794 125.042 288.18 125.362 288.437C125.695 288.694 126.283 288.823 127.127 288.823V289.866C125.182 289.897 123.761 290.139 122.864 290.593H122.634C122.225 289.76 122.008 288.323 121.982 286.282C121.202 287.719 120.306 288.8 119.294 289.527C118.295 290.251 117.187 290.613 115.971 290.613C114.922 290.613 113.995 290.334 113.188 289.775C112.381 289.201 111.824 288.505 111.517 287.69C111.222 286.872 111.075 285.64 111.075 283.992V277.663C111.075 275.516 111.043 274.208 110.98 273.739C110.915 273.255 110.71 272.901 110.365 272.675C110.032 272.447 109.411 272.333 108.503 272.333V271.291H113.841V284.173C113.841 285.443 113.905 286.365 114.032 286.939C114.16 287.514 114.487 288.021 115.011 288.461C115.536 288.883 116.144 289.095 116.836 289.095C117.822 289.095 118.763 288.717 119.659 287.961C120.555 287.19 121.162 286.381 121.482 285.534C121.815 284.672 121.982 283.447 121.982 281.86V277.663C121.982 275.638 121.963 274.406 121.925 273.966C121.885 273.528 121.719 273.15 121.425 272.833C121.143 272.5 120.548 272.333 119.64 272.333H119.237V271.291H124.728ZM133.561 270.543H134.08C134.374 271.48 134.54 272.757 134.58 274.375C135.501 273.09 136.467 272.13 137.478 271.495C138.49 270.86 139.546 270.543 140.645 270.543C141.9 270.543 142.924 270.853 143.719 271.472C144.525 272.091 145.043 272.854 145.274 273.762C145.505 274.655 145.62 275.963 145.62 277.687V283.493C145.62 285.64 145.652 286.949 145.716 287.418C145.779 287.885 145.977 288.24 146.31 288.481C146.656 288.709 147.284 288.823 148.192 288.823V289.866H140.148V288.821H140.512C141.433 288.821 142.035 288.663 142.317 288.347C142.599 288.029 142.759 287.659 142.797 287.234C142.836 286.812 142.856 285.564 142.856 283.493V277.506C142.856 276.038 142.791 274.994 142.663 274.375C142.547 273.74 142.221 273.18 141.684 272.696C141.159 272.213 140.487 271.971 139.666 271.971C138.733 271.971 137.837 272.304 136.978 272.97C136.134 273.62 135.335 274.603 134.58 275.919V283.491C134.58 285.64 134.611 286.948 134.674 287.415C134.751 287.885 134.956 288.241 135.289 288.484C135.635 288.71 136.269 288.823 137.191 288.823V289.866H129.241V288.821C130.125 288.821 130.739 288.715 131.083 288.505C131.43 288.293 131.641 287.975 131.717 287.552C131.807 287.114 131.852 285.761 131.852 283.493V277.958C131.852 275.797 131.814 274.489 131.736 274.033C131.672 273.566 131.468 273.218 131.123 272.991C130.79 272.749 130.163 272.628 129.241 272.628V271.583C130.649 271.404 132.089 271.057 133.561 270.543Z" fill="black"/>
<path d="M287.115 136.045C285.976 135.531 285.022 134.7 284.254 133.551C283.486 132.386 283.102 131.252 283.102 130.148C283.102 129.151 283.364 128.365 283.888 127.791C284.413 127.217 284.95 126.929 285.501 126.929C285.873 126.929 286.194 127.08 286.464 127.382C286.732 127.669 286.865 128.024 286.865 128.448C286.865 129.204 286.392 129.778 285.446 130.172C284.805 130.444 284.484 130.852 284.484 131.395C284.484 132.046 284.862 132.825 285.617 133.732C286.36 134.639 287.135 135.221 287.941 135.478C288.747 135.735 289.855 135.864 291.264 135.864H294.066C295.744 135.864 296.8 135.841 297.235 135.794C297.671 135.735 298.003 135.517 298.232 135.139C298.463 134.761 298.578 134.088 298.578 133.119V132.485H299.463V142.35H298.578V141.874C298.578 140.967 298.476 140.325 298.272 139.947C298.054 139.553 297.753 139.319 297.369 139.243C296.985 139.167 295.884 139.129 294.066 139.129H289.632C287.942 139.129 286.887 139.16 286.466 139.222C286.03 139.267 285.696 139.478 285.465 139.856C285.223 140.234 285.102 140.907 285.102 141.877V142.35H284.236C284.096 140.929 283.719 139.07 283.104 136.772C284.116 136.334 285.452 136.091 287.115 136.045ZM275.076 123.708C274.525 123.708 274.051 123.481 273.654 123.028C273.258 122.559 273.06 121.999 273.06 121.349C273.06 120.698 273.258 120.146 273.654 119.693C274.051 119.239 274.525 119.012 275.076 119.012C275.639 119.012 276.12 119.239 276.517 119.693C276.913 120.146 277.111 120.698 277.111 121.349C277.111 121.999 276.913 122.559 276.517 123.028C276.12 123.481 275.639 123.708 275.076 123.708ZM283.102 119.33H294.066C295.744 119.33 296.8 119.3 297.235 119.24C297.671 119.179 298.003 118.96 298.232 118.582C298.463 118.205 298.578 117.531 298.578 116.562V116.088H299.463V126.089H298.578V125.318C298.578 124.245 298.451 123.549 298.195 123.232C297.926 122.899 297.612 122.71 297.253 122.665C296.882 122.603 295.82 122.572 294.068 122.572H289.303C287.46 122.572 286.334 122.679 285.925 122.891C285.515 123.087 285.259 123.36 285.159 123.708C285.055 124.041 285.003 124.631 285.003 125.478V126.089H284.118C283.889 123.398 283.55 121.311 283.102 119.83V119.33ZM299.961 113.32H294.795V112.437C297.779 111.408 299.27 109.57 299.27 106.924C299.27 105.775 298.976 104.921 298.386 104.362C297.797 103.788 297.151 103.5 296.447 103.5C295.628 103.5 294.956 103.802 294.432 104.406C293.907 105.026 293.273 106.228 292.53 108.013C291.749 109.888 290.981 111.233 290.226 112.049C289.484 112.867 288.569 113.276 287.481 113.276C286.444 113.276 285.458 112.837 284.523 111.959C283.576 111.083 283.102 109.85 283.102 108.262C283.102 106.645 283.659 105.307 284.773 104.248C284.58 104.021 284.113 103.727 283.371 103.366V102.525H288.228V103.363C287.064 103.665 286.066 104.255 285.233 105.133C284.389 105.994 283.967 107.014 283.967 108.194C283.967 109.101 284.203 109.835 284.675 110.394C285.149 110.954 285.7 111.234 286.327 111.234C287.019 111.234 287.614 110.925 288.114 110.305C288.625 109.7 289.208 108.543 289.862 106.833C290.848 104.263 291.807 102.691 292.741 102.116C293.688 101.542 294.597 101.255 295.468 101.255C296.838 101.255 297.952 101.791 298.81 102.864C299.668 103.923 300.096 105.262 300.096 106.88C300.096 108.587 299.501 110.107 298.311 111.439C298.694 111.846 299.244 112.179 299.963 112.437L299.961 113.32ZM289.054 81.1376V94.0876C289.81 94.148 290.374 94.1782 290.745 94.1782C293.511 94.1782 295.591 93.6719 296.986 92.6593C298.367 91.6312 299.058 90.1038 299.058 88.0771C299.058 85.3257 298.015 83.3749 295.93 82.2245V81.1376C297.235 81.6207 298.259 82.5806 299.001 84.0174C299.731 85.4542 300.096 87.0196 300.096 88.7134C300.096 90.285 299.763 91.7736 299.097 93.1795C298.418 94.5714 297.465 95.7133 296.237 96.6051C295.007 97.4969 293.515 97.9429 291.761 97.9429C289.279 97.9429 287.218 97.0812 285.579 95.358C283.928 93.6347 283.102 91.4802 283.102 88.8946C283.102 86.4591 283.729 84.5764 284.984 83.2464C286.238 81.9148 287.595 81.2119 289.054 81.1376ZM288.287 85.1067C287.992 85.0602 287.73 85.037 287.5 85.037C286.373 85.037 285.502 85.4303 284.887 86.2168C284.261 86.9878 283.947 87.94 283.947 89.0734C283.947 91.8263 285.394 93.4675 288.287 93.997V85.1067Z" fill="black"/>
<path d="M264.147 24H265.471V80.6102H266.794V24H268.118V79.1949H269.441V86.2712H270.765V89.1017H272.088V90.517H273.412V89.1017H274.735V87.6864H280.029V89.1017H281.353V90.517H282.676V97.5932H281.353V100.424H280.029V106.085H278.706V108.915H277.382V111.746H276.059V114.576H274.735V115.992H273.412V117.407H272.088V118.822H268.118V124.483H269.441V130.144H268.118V131.559H266.794V132.975H268.118V191H266.794V132.975H264.147V134.39H265.471V191H264.147V134.39H262.824V135.805H260.176V134.39H258.853V128.729H260.176V125.898H261.5V124.483H260.176V121.653H257.529V118.822H256.206V113.161H258.853V111.746H262.824V110.331H264.147V86.2712H262.824V83.4407H261.5V79.1949H262.824V77.7797H264.147V24ZM270.765 24H272.088V25.4153H270.765V24ZM274.735 24H276.059V25.4153H274.735V24ZM277.382 24.7076H278.044V25.4153H277.382V24.7076ZM273.412 28.2458H274.735V29.661H273.412V28.2458ZM278.044 29.661H278.706V30.3686H278.044V31.0763H277.382V30.3686H278.044V29.661ZM279.368 32.4915H280.029V33.9068H278.706V33.1992H279.368V32.4915ZM272.088 35.322H274.735V36.7373H272.088V35.322ZM280.691 35.322H282.676V36.7373H282.015V36.0297H280.691V35.322ZM284.662 36.7373H285.324V37.4449H284.662V38.8602H284V37.4449H284.662V36.7373ZM273.412 38.1525H274.735V40.9831H273.412V42.3983H270.765V40.9831H273.412V38.1525ZM258.853 40.9831H260.176V41.6907H259.515V42.3983H258.853V40.9831ZM276.059 40.9831H277.382V42.3983H276.059V40.9831ZM280.029 40.9831H280.691V42.3983H280.029V40.9831ZM286.647 40.9831H287.309V41.6907H287.971V42.3983H286.647V40.9831ZM284 41.6907H284.662V42.3983H284V41.6907ZM285.324 41.6907H285.985V42.3983H285.324V41.6907ZM278.706 43.8136H280.029V45.2288H279.368V45.9364H278.706V43.8136ZM258.191 46.6441H260.176V48.0593H258.853V47.3517H258.191V46.6441ZM272.088 46.6441H273.412V48.0593H274.735V46.6441H278.706V48.0593H274.735V49.4746H273.412V48.0593H272.088V46.6441ZM282.015 46.6441H283.338V47.3517H282.676V48.0593H283.338V49.4746H282.676V48.0593H282.015V46.6441ZM284 48.0593H284.662V48.7669H284V48.0593ZM284 49.4746H285.324V50.1822H284V49.4746ZM252.897 51.5975H253.559V52.3051H252.897V51.5975ZM254.882 52.3051H256.868V53.0127H255.544V53.7203H254.882V52.3051ZM257.529 52.3051H258.191V53.0127H258.853V52.3051H262.824V53.7203H257.529V52.3051ZM272.088 52.3051H274.735V53.7203H272.088V52.3051ZM276.059 52.3051H278.706V53.7203H276.059V52.3051ZM281.353 52.3051H282.015V53.7203H281.353V52.3051ZM285.985 52.3051H286.647V53.0127H285.985V52.3051ZM290.618 52.3051H291.279V53.0127H290.618V52.3051ZM305.838 52.3051H306.5V53.0127H305.838V52.3051ZM282.676 53.0127H283.338V53.7203H282.676V53.0127ZM291.941 53.0127H292.603V53.7203H291.941V53.0127ZM278.706 55.1356H279.368V55.8432H280.029V57.9661H278.706V59.3814H277.382V57.9661H278.706V55.1356ZM258.191 56.5508H258.853V57.2585H258.191V57.9661H258.853V59.3814H257.529V57.2585H258.191V56.5508ZM289.294 56.5508H290.618V57.2585H289.956V57.9661H289.294V56.5508ZM261.5 57.9661H262.824V59.3814H261.5V57.9661ZM269.441 57.9661H270.765V59.3814H269.441V57.9661ZM272.088 57.9661H276.059V59.3814H272.088V57.9661ZM287.971 57.9661H288.632V58.6737H289.294V59.3814H287.971V57.9661ZM250.912 58.6737H251.574V59.3814H250.912V58.6737ZM282.015 58.6737H282.676V59.3814H282.015V58.6737ZM295.25 60.7966H295.912V61.5042H295.25V60.7966ZM252.235 62.2119H253.559V62.9195H252.235V62.2119ZM273.412 62.2119H274.735V63.6271H277.382V65.0424H274.735V63.6271H273.412V62.2119ZM246.941 63.6271H248.265V65.0424H247.603V64.3347H246.941V63.6271ZM253.559 63.6271H254.221V64.3347H253.559V63.6271ZM257.529 63.6271H258.191V65.0424H258.853V63.6271H260.176V65.0424H258.853V66.4576H257.529V63.6271ZM270.765 63.6271H272.088V65.0424H270.765V63.6271ZM284 63.6271H284.662V64.3347H284V63.6271ZM285.324 63.6271H286.647V64.3347H285.985V65.0424H285.324V63.6271ZM294.588 63.6271H295.25V64.3347H294.588V63.6271ZM246.941 67.1653H247.603V67.8729H248.265V68.5805H247.603V69.2881H246.941V68.5805H247.603V67.8729H246.941V67.1653ZM257.529 67.8729H258.853V69.2881H260.176V70.7034H258.853V69.2881H257.529V67.8729ZM248.926 69.2881H249.588V69.9958H248.926V70.7034H248.265V69.9958H248.926V69.2881ZM252.235 69.2881H252.897V69.9958H252.235V69.2881ZM256.206 69.2881H256.868V69.9958H257.529V70.7034H256.206V69.2881ZM261.5 69.2881H262.824V70.7034H261.5V69.2881ZM289.294 69.2881H289.956V69.9958H289.294V69.2881ZM245.618 69.9958H246.279V70.7034H245.618V69.9958ZM252.897 70.7034H253.559V71.411H252.897V72.1186H252.235V71.411H252.897V70.7034ZM273.412 72.1186H274.735V73.5339H273.412V72.1186ZM248.265 74.9492H248.926V76.3644H248.265V74.9492ZM252.897 74.9492H253.559V75.6568H252.897V76.3644H252.235V75.6568H252.897V74.9492ZM257.529 79.1949H258.853V80.6102H258.191V79.9025H257.529V79.1949ZM264.147 79.1949H262.824V83.4407H264.147V84.8559H266.794V83.4407H268.118V80.6102H266.794V82.0254H265.471V80.6102H264.147V79.1949ZM254.882 80.6102H256.206V81.3178H255.544V82.0254H254.882V80.6102ZM242.309 82.7331H242.971V83.4407H242.309V82.7331ZM268.118 84.8559H266.794V86.2712H265.471V89.1017H266.794V91.9322H268.118V94.7627H269.441V96.178H270.765V99.0085H272.088V100.424H273.412V101.839H274.735V100.424H276.059V97.5932H274.735V96.178H273.412V93.3475H272.088V91.9322H270.765V89.1017H269.441V87.6864H268.118V84.8559ZM277.382 90.517H274.735V91.9322H276.059V93.3475H274.735V96.178H277.382V94.7627H278.706V91.9322H277.382V90.517ZM274.735 91.9322H273.412V93.3475H274.735V91.9322ZM240.324 92.6398H240.985V93.3475H240.324V92.6398ZM266.794 93.3475H265.471V110.331H266.794V93.3475ZM246.279 97.5932H246.941V98.3008H246.279V97.5932ZM253.559 97.5932H254.882V99.0085H253.559V97.5932ZM239 98.3008H239.662V99.0085H239V98.3008ZM278.706 100.424H276.059V101.839H274.735V104.669H273.412V106.085H272.088V108.915H273.412V110.331H274.735V111.746H276.059V108.915H277.382V106.085H278.706V100.424ZM254.882 103.254H257.529V104.669H254.882V103.254ZM258.853 103.254H260.176V104.669H258.853V103.254ZM248.926 103.962H249.588V104.669H248.926V103.962ZM252.235 104.669H253.559V106.085H252.235V104.669ZM269.441 104.669H268.118V107.5H269.441V104.669ZM250.912 108.915H253.559V110.331H250.912V108.915ZM256.206 108.915H257.529V110.331H256.206V108.915ZM258.853 108.915H260.176V110.331H258.853V108.915ZM248.926 109.623H249.588V110.331H248.926V109.623ZM272.088 110.331H269.441V111.746H265.471V113.161H266.794V117.407H272.088V115.992H273.412V114.576H274.735V113.161H273.412V111.746H272.088V110.331ZM246.941 113.161H247.603V114.576H246.941V113.161ZM244.956 114.576H245.618V115.992H244.294V115.284H244.956V114.576ZM241.647 115.284H242.309V115.992H241.647V115.284ZM252.235 115.992H253.559V117.407H252.235V115.992ZM264.147 117.407H262.824V118.822H264.147V117.407ZM266.794 118.822H264.147V120.237H265.471V123.068H266.794V118.822ZM250.25 120.237H250.912V121.653H249.588V120.945H250.25V120.237ZM265.471 123.068H264.147V124.483H265.471V123.068ZM246.941 124.483H248.265V125.898H247.603V125.191H246.941V124.483ZM264.147 124.483H262.824V125.898H264.147V124.483ZM250.912 125.898H252.235V127.314H250.912V125.898ZM262.824 125.898H261.5V128.729H262.824V125.898ZM261.5 128.729H260.176V130.144H261.5V128.729ZM252.235 130.144H253.559V131.559H252.235V132.975H250.912V131.559H252.235V130.144ZM248.265 131.559H248.926V132.267H249.588V132.975H248.265V131.559ZM272.088 131.559H273.412V132.975H272.088V131.559ZM280.029 131.559H281.353V132.975H280.029V131.559ZM291.941 131.559H292.603V132.267H293.265V132.975H292.603V132.267H291.941V131.559ZM289.294 132.975H289.956V133.682H290.618V134.39H289.956V133.682H289.294V132.975ZM257.529 135.805H258.853V137.22H257.529V135.805ZM278.706 135.805H280.029V137.22H278.706V135.805ZM251.574 137.22H253.559V138.636H251.574V137.22ZM260.176 137.22H262.824V138.636H260.176V137.22ZM269.441 137.22H270.765V138.636H269.441V137.22ZM273.412 137.22H276.059V138.636H273.412V137.22ZM281.353 137.22H282.676V138.636H281.353V137.22ZM284 137.22H285.324V138.636H284V137.22ZM286.647 137.22H287.971V138.636H286.647V137.22ZM289.294 137.22H290.618V138.636H289.956V137.928H289.294V137.22ZM241.647 140.051H242.971V141.466H242.309V140.758H241.647V140.051ZM252.897 141.466H253.559V142.881H252.897V141.466ZM273.412 141.466H274.735V142.881H276.059V144.297H274.735V142.881H273.412V144.297H272.088V142.881H273.412V141.466ZM284.662 141.466H285.324V142.174H284.662V141.466ZM241.647 142.881H242.971V143.589H241.647V142.881ZM247.603 142.881H248.265V144.297H246.941V143.589H247.603V142.881ZM256.206 142.881H258.853V144.297H256.206V142.881ZM261.5 142.881H262.824V144.297H261.5V142.881ZM277.382 142.881H278.706V144.297H277.382V142.881ZM282.676 142.881H283.338V144.297H282.676V142.881ZM285.985 142.881H286.647V143.589H287.971V144.297H286.647V143.589H285.985V144.297H285.324V143.589H285.985V142.881ZM289.294 142.881H291.279V144.297H290.618V143.589H289.294V142.881ZM293.265 142.881H293.926V143.589H293.265V142.881ZM257.529 145.712H258.853V147.127H257.529V145.712ZM278.706 145.712H280.029V147.127H278.706V145.712ZM247.603 147.127H248.265V147.835H247.603V147.127ZM240.324 148.542H240.985V149.25H240.324V148.542ZM253.559 148.542H254.882V149.958H253.559V148.542ZM260.176 148.542H261.5V149.958H260.176V148.542ZM273.412 148.542H276.059V149.958H274.735V154.203H280.691V154.911H281.353V155.619H279.368V156.326H280.029V159.157H279.368V161.28H274.735V164.11H273.412V161.28H272.088V159.864H273.412V161.28H274.735V159.864H278.706V155.619H274.735V154.203H273.412V155.619H272.088V154.203H273.412V148.542ZM277.382 148.542H280.029V149.958H277.382V148.542ZM282.676 148.542H284V149.25H282.676V148.542ZM288.632 148.542H289.294V149.25H288.632V148.542ZM284.662 149.25H285.324V149.958H284.662V149.25ZM292.603 149.25H293.265V149.958H292.603V149.25ZM242.309 151.373H242.971V152.788H242.309V151.373ZM291.941 153.496H293.265V154.203H291.941V153.496ZM253.559 154.203H254.882V155.619H253.559V154.203ZM261.5 154.203H262.824V155.619H261.5V154.203ZM269.441 154.203H270.765V155.619H269.441V154.203ZM282.676 154.203H284V155.619H282.676V154.203ZM242.309 154.911H242.971V155.619H242.309V154.911ZM257.529 159.864H258.853V161.28H257.529V159.864ZM269.441 159.864H270.765V161.28H269.441V159.864ZM283.338 159.864H284V160.572H285.324V161.987H284V160.572H283.338V161.28H282.676V160.572H283.338V159.864ZM254.882 165.525H256.206V166.941H254.882V165.525ZM270.765 165.525H274.735V166.941H270.765V165.525ZM276.059 165.525H279.368V166.233H280.029V166.941H276.059V165.525ZM284 166.233H285.324V166.941H284V166.233ZM278.706 168.356H280.029V169.064H279.368V169.771H280.029V171.186H280.691V171.894H280.029V172.602H279.368V171.186H278.706V168.356ZM252.897 171.186H253.559V173.309H252.897V174.017H252.235V172.602H252.897V171.186ZM257.529 171.186H258.853V172.602H257.529V171.186ZM261.5 171.186H262.824V172.602H261.5V171.186ZM269.441 171.186H270.765V172.602H269.441V171.186ZM272.088 171.186H277.382V172.602H276.721V171.894H276.059V172.602H274.735V175.432H273.412V172.602H272.088V171.186ZM285.324 171.894H285.985V172.602H285.324V171.894ZM251.574 176.847H252.897V177.555H253.559V176.847H254.221V177.555H254.882V178.263H252.235V177.555H251.574V176.847ZM258.853 176.847H261.5V178.263H258.853V181.093H257.529V178.263H258.853V176.847ZM270.765 176.847H273.412V178.263H270.765V176.847ZM274.735 176.847H276.059V178.263H274.735V176.847ZM279.368 178.263H280.029V179.678H278.706V178.97H279.368V178.263ZM254.221 182.508H254.882V183.924H254.221V182.508ZM256.206 182.508H257.529V183.924H256.868V183.216H256.206V182.508ZM258.853 182.508H260.176V183.924H258.853V182.508ZM261.5 182.508H262.824V183.924H261.5V182.508ZM272.088 182.508H273.412V183.924H272.088V182.508ZM274.735 182.508H276.059V183.924H275.397V183.216H274.735V182.508ZM254.882 188.169H256.206V189.585H255.544V188.877H254.882V188.169ZM261.5 188.169H262.824V189.585H261.5V188.169ZM276.721 188.169H277.382V188.877H276.721V188.169Z" fill="black"/>
<path d="M121.025 201H122.069V204.525H121.025V205.7H119.981V204.525H121.025V201ZM104.321 203.35H105.365V204.525H107.453V205.7H105.365V204.525H104.321V203.35ZM129.377 203.35H130.421V204.525H129.377V203.35ZM98.0566 204.525H99.1006V205.7H98.0566V204.525ZM108.497 204.525H109.541V205.7H108.497V204.525ZM110.585 204.525H111.629V205.7H110.585V204.525ZM116.849 204.525H118.937V205.7H117.893V206.875H116.849V204.525ZM126.245 204.525H128.333V205.7H126.245V204.525ZM145.038 204.525H146.082V205.7H145.038V204.525ZM150.258 204.525H156.522V205.7H157.566V208.05H156.522V212.75H155.478V213.925H154.434V215.1H155.478V218.625H157.566V217.45H158.61V216.275H160.698V217.45H161.742V219.8H160.698V220.975H158.61V222.15H157.566V223.325H154.434V225.675H155.478V228.025H156.522V229.2H155.478V230.375H156.522V232.725H157.566V236.25H158.61V239.775H159.654V242.125H160.698V243.3H161.742V242.125H164.874V245.65H163.83V246.825H161.742V248H157.566V246.825H156.522V242.125H155.478V239.775H154.434V236.25H153.39V233.9H152.346V232.725H151.302V235.075H150.258V237.425H149.214V238.6H147.126V239.775H143.994V240.95H140.862V242.125H141.906V244.475H140.862V245.65H138.774V244.475H137.73V242.125H136.686V238.6H137.73V237.425H140.862V236.25H146.082V235.075H147.126V231.55H148.17V230.375H149.214V229.2H148.17V226.85H147.126V225.675H146.082V222.15H145.038V220.975H143.994V219.8H142.95V216.275H143.994V215.1H145.038V213.925H146.082V212.75H147.126V211.575H148.17V209.225H149.214V205.7H150.258V204.525ZM141.906 205.7H142.95V206.875H141.906V205.7ZM91.7925 206.875H92.8365V208.05H91.7925V206.875ZM100.145 206.875H101.189V208.05H100.145V206.875ZM155.478 206.875H153.39V208.05H155.478V206.875ZM116.849 208.05H117.893V209.225H116.849V208.05ZM125.201 208.05H126.245V210.4H125.201V208.05ZM133.553 208.05H134.597V210.4H132.509V209.225H133.553V208.05ZM73 209.225H74.044V210.4H73V209.225ZM84.4843 209.225H86.5723V210.4H84.4843V209.225ZM87.6164 209.225H88.6604V210.4H87.6164V209.225ZM91.7925 209.225H92.8365V210.4H91.7925V209.225ZM94.9245 209.225H98.0566V210.4H94.9245V209.225ZM100.145 209.225H101.189V210.4H100.145V209.225ZM114.761 209.225H115.805V210.4H114.761V209.225ZM118.937 209.225H119.981V210.4H118.937V209.225ZM128.333 209.225H129.377V210.4H130.421V212.75H129.377V210.4H128.333V209.225ZM136.686 209.225H138.774V210.4H136.686V209.225ZM142.95 209.225H143.994V210.4H142.95V209.225ZM155.478 209.225H152.346V211.575H153.39V212.75H155.478V209.225ZM121.025 210.4H122.069V212.75H121.025V210.4ZM137.73 211.575H138.774V212.75H137.73V211.575ZM151.302 211.575H148.17V212.75H147.126V213.925H146.082V215.1H145.038V216.275H143.994V219.8H145.038V220.975H146.082V222.15H147.126V220.975H148.17V219.8H147.126V218.625H146.082V217.45H148.17V216.275H150.258V215.1H151.302V211.575ZM162.786 211.575H163.83V212.75H162.786V211.575ZM90.7484 213.925H91.7925V215.1H90.7484V213.925ZM94.9245 213.925H95.9686V215.1H94.9245V213.925ZM98.0566 213.925H99.1006V215.1H98.0566V213.925ZM118.937 213.925H119.981V215.1H118.937V213.925ZM124.157 213.925H126.245V216.275H125.201V215.1H124.157V213.925ZM128.333 213.925H129.377V215.1H128.333V213.925ZM130.421 213.925H134.597V215.1H130.421V213.925ZM135.642 213.925H137.73V215.1H135.642V213.925ZM140.862 213.925H141.906V215.1H140.862V213.925ZM153.39 213.925H152.346V215.1H151.302V218.625H150.258V219.8H149.214V220.975H150.258V223.325H153.39V222.15H154.434V219.8H153.39V218.625H154.434V215.1H153.39V213.925ZM157.566 213.925H158.61V215.1H157.566V213.925ZM159.654 213.925H161.742V215.1H159.654V213.925ZM198.283 213.925H199.327V215.1H198.283V213.925ZM203.503 213.925H204.547V215.1H203.503V213.925ZM206.635 213.925H207.679V215.1H206.635V213.925ZM91.7925 216.275H92.8365V217.45H91.7925V216.275ZM100.145 216.275H101.189V217.45H100.145V216.275ZM133.553 216.275H134.597V218.625H136.686V219.8H134.597V218.625H133.553V219.8H130.421V220.975H129.377V219.8H125.201V217.45H126.245V218.625H133.553V216.275ZM183.667 216.275H184.711V217.45H183.667V216.275ZM192.019 216.275H193.063V217.45H192.019V216.275ZM150.258 217.45H149.214V218.625H150.258V217.45ZM160.698 217.45H158.61V219.8H160.698V217.45ZM166.962 217.45H168.006V218.625H166.962V217.45ZM88.6604 218.625H89.7044V219.8H88.6604V218.625ZM92.8365 218.625H93.8805V219.8H92.8365V218.625ZM95.9686 218.625H97.0126V219.8H95.9686V218.625ZM118.937 218.625H121.025V219.8H122.069V218.625H124.157V219.8H122.069V222.15H121.025V219.8H118.937V218.625ZM137.73 218.625H139.818V219.8H138.774V220.975H137.73V218.625ZM140.862 218.625H141.906V219.8H140.862V218.625ZM162.786 218.625H164.874V219.8H162.786V218.625ZM170.094 218.625H171.138V219.8H170.094V218.625ZM176.358 218.625H177.403V219.8H176.358V218.625ZM178.447 218.625H179.491V219.8H178.447V218.625ZM184.711 218.625H186.799V219.8H184.711V218.625ZM190.975 218.625H192.019V219.8H190.975V218.625ZM194.107 218.625H195.151V219.8H194.107V218.625ZM196.195 218.625H197.239V220.975H196.195V218.625ZM200.371 218.625H202.459V219.8H200.371V218.625ZM205.591 218.625H207.679V219.8H205.591V218.625ZM209.767 218.625H211.855V219.8H209.767V218.625ZM213.943 218.625H214.987V219.8H213.943V218.625ZM158.61 219.8H155.478V222.15H156.522V220.975H158.61V219.8ZM87.6164 220.975H88.6604V223.325H87.6164V220.975ZM162.786 220.975H163.83V222.15H162.786V220.975ZM171.138 220.975H172.182V224.5H170.094V223.325H171.138V220.975ZM187.843 220.975H188.887V222.15H187.843V220.975ZM129.377 222.15H130.421V224.5H126.245V226.85H125.201V223.325H129.377V222.15ZM137.73 222.15H138.774V224.5H135.642V223.325H137.73V222.15ZM149.214 222.15H147.126V225.675H149.214V224.5H150.258V223.325H149.214V222.15ZM204.547 222.15H205.591V223.325H207.679V224.5H204.547V222.15ZM212.899 222.15H213.943V223.325H214.987V224.5H212.899V222.15ZM74.044 223.325H75.0881V224.5H74.044V223.325ZM90.7484 223.325H92.8365V226.85H91.7925V224.5H90.7484V223.325ZM95.9686 223.325H97.0126V224.5H95.9686V223.325ZM100.145 223.325H101.189V226.85H100.145V223.325ZM105.365 223.325H106.409V224.5H105.365V223.325ZM108.497 223.325H109.541V224.5H108.497V223.325ZM114.761 223.325H115.805V224.5H114.761V223.325ZM116.849 223.325H117.893V224.5H116.849V223.325ZM118.937 223.325H119.981V224.5H118.937V223.325ZM122.069 223.325H124.157V224.5H122.069V223.325ZM131.465 223.325H134.597V224.5H131.465V223.325ZM140.862 223.325H145.038V224.5H142.95V225.675H141.906V224.5H140.862V223.325ZM158.61 223.325H162.786V224.5H158.61V223.325ZM164.874 223.325H168.006V224.5H164.874V223.325ZM174.27 223.325H175.314V224.5H174.27V223.325ZM178.447 223.325H180.535V224.5H178.447V223.325ZM182.623 223.325H183.667V224.5H184.711V226.85H183.667V224.5H182.623V223.325ZM185.755 223.325H189.931V224.5H185.755V223.325ZM193.063 223.325H194.107V224.5H193.063V225.675H192.019V224.5H193.063V223.325ZM196.195 223.325H197.239V224.5H196.195V223.325ZM198.283 223.325H199.327V224.5H198.283V223.325ZM200.371 223.325H203.503V224.5H201.415V228.025H208.723V229.2H205.591V232.725H207.679V233.9H205.591V232.725H204.547V233.9H202.459V232.725H204.547V229.2H197.239V232.725H198.283V233.9H196.195V229.2H195.151V228.025H196.195V229.2H197.239V228.025H200.371V223.325ZM208.723 223.325H209.767V226.85H208.723V223.325ZM210.811 223.325H211.855V224.5H210.811V223.325ZM220.208 223.325H221.252V224.5H220.208V223.325ZM153.39 224.5H150.258V226.85H149.214V228.025H150.258V230.375H153.39V229.2H155.478V228.025H154.434V225.675H153.39V224.5ZM217.075 224.5H218.12V225.675H217.075V224.5ZM158.61 225.675H159.654V226.85H158.61V225.675ZM166.962 225.675H168.006V226.85H166.962V225.675ZM133.553 226.85H134.597V229.2H132.509V228.025H133.553V226.85ZM141.906 226.85H142.95V228.025H143.994V229.2H142.95V228.025H141.906V229.2H139.818V228.025H141.906V226.85ZM192.019 226.85H193.063V229.2H189.931V228.025H192.019V226.85ZM217.075 226.85H218.12V229.2H213.943V232.725H219.164V233.9H218.12V237.425H225.428V233.9H220.208V232.725H221.252V230.375H222.296V232.725H229.604V229.2H228.56V228.025H230.648V232.725H234.824V237.425H236.39V238.6H222.296V242.125H224.384V243.3H221.252V238.6H213.943V243.3H212.899V238.6H205.591V239.775H204.547V238.6H201.415V237.425H200.371V238.6H199.327V237.425H200.371V236.25H201.415V237.425H204.547V238.6H205.591V237.425H208.723V232.725H212.899V229.2H213.943V228.025H217.075V226.85ZM225.428 226.85H226.472V228.025H227.516V229.2H223.34V228.025H225.428V226.85ZM107.453 228.025H109.541V229.2H107.453V228.025ZM111.629 228.025H112.673V229.2H111.629V228.025ZM115.805 228.025H117.893V229.2H115.805V228.025ZM119.981 228.025H122.069V229.2H119.981V228.025ZM124.157 228.025H125.201V229.2H124.157V228.025ZM126.245 228.025H131.465V229.2H126.245V228.025ZM136.686 228.025H137.73V229.2H138.774V232.725H137.73V229.2H136.686V228.025ZM145.038 228.025H146.082V229.2H147.126V230.375H146.082V229.2H145.038V228.025ZM157.566 228.025H160.698V229.2H157.566V228.025ZM161.742 228.025H163.83V229.2H161.742V228.025ZM168.006 228.025H169.05V229.2H168.006V228.025ZM172.182 228.025H173.226V229.2H172.182V228.025ZM175.314 228.025H177.403V229.2H175.314V228.025ZM182.623 228.025H183.667V229.2H182.623V228.025ZM184.711 228.025H187.843V229.2H188.887V230.375H187.843V229.2H184.711V228.025ZM209.767 228.025H211.855V229.2H209.767V228.025ZM219.164 228.025H220.208V229.2H219.164V228.025ZM221.252 228.025H222.296V229.2H221.252V228.025ZM232.214 228.025H233.78V229.2H232.214V228.025ZM237.956 229.787H239V233.9H235.868V232.725H237.956V229.787ZM112.673 230.375H113.717V231.55H112.673V230.375ZM121.025 230.375H122.069V231.55H121.025V230.375ZM129.377 230.375H130.421V231.55H129.377V230.375ZM150.258 230.375H149.214V231.55H150.258V230.375ZM162.786 230.375H163.83V233.9H162.786V230.375ZM151.302 231.55H150.258V232.725H151.302V231.55ZM104.321 232.725H105.365V233.9H104.321V232.725ZM112.673 232.725H113.717V233.9H112.673V232.725ZM115.805 232.725H116.849V233.9H115.805V232.725ZM118.937 232.725H121.025V233.9H118.937V232.725ZM122.069 232.725H123.113V233.9H122.069V232.725ZM124.157 232.725H127.289V233.9H126.245V236.25H125.201V233.9H124.157V232.725ZM129.377 232.725H131.465V233.9H129.377V232.725ZM133.553 232.725H135.642V233.9H133.553V232.725ZM140.862 232.725H141.906V233.9H140.862V232.725ZM143.994 232.725H146.082V233.9H143.994V232.725ZM159.654 232.725H160.698V233.9H159.654V232.725ZM165.918 232.725H168.006V233.9H165.918V232.725ZM179.491 232.725H181.579V233.9H179.491V232.725ZM188.887 232.725H189.931V233.9H188.887V232.725ZM190.975 232.725H192.019V233.9H190.975V232.725ZM194.107 232.725H195.151V233.9H194.107V232.725ZM199.327 232.725H201.415V235.075H200.371V233.9H199.327V232.725ZM217.075 233.9H209.767V237.425H217.075V233.9ZM233.78 233.9H226.472V237.425H233.78V233.9ZM116.849 235.075H117.893V236.25H116.849V235.075ZM141.906 237.425H140.862V238.6H141.906V237.425ZM190.975 237.425H192.019V238.6H190.975V237.425ZM194.107 237.425H195.151V238.6H194.107V237.425ZM197.239 237.425H198.283V238.6H197.239V239.775H196.195V238.6H197.239V237.425ZM237.956 237.425H238.478V238.6H237.956V237.425ZM106.409 238.6H107.453V239.775H106.409V238.6ZM142.95 238.6H141.906V239.775H142.95V238.6ZM204.547 240.95H205.591V243.3H203.503V242.125H204.547V240.95ZM159.654 242.125H158.61V243.3H159.654V242.125ZM197.239 242.125H198.283V243.3H197.239V242.125ZM200.371 242.125H202.459V243.3H200.371V242.125ZM206.635 242.125H208.723V243.3H206.635V242.125ZM209.767 242.125H211.855V243.3H209.767V242.125ZM216.031 242.125H218.12V245.65H217.075V243.3H216.031V242.125ZM219.164 242.125H220.208V243.3H219.164V242.125ZM158.61 243.3H157.566V244.475H158.61V243.3ZM200.371 244.475H201.415V245.65H200.371V244.475ZM208.723 245.65H209.767V246.825H208.723V245.65ZM228.56 245.65H229.604V246.825H230.648V248H229.604V246.825H228.56V245.65ZM211.855 246.825H212.899V248H211.855V246.825ZM214.987 246.825H216.031V248H214.987V246.825ZM220.208 246.825H221.252V248H220.208V246.825ZM223.34 246.825H224.384V248H223.34V246.825ZM226.472 246.825H227.516V248H226.472V246.825ZM232.736 246.825H233.78V248H232.736V246.825ZM235.868 246.825H237.956V248H235.868V246.825Z" fill="black"/>
</svg>
