<svg xmlns="http://www.w3.org/2000/svg" xmlns:xlink="http://www.w3.org/1999/xlink" width="300" height="245.258"><defs><symbol id="a" overflow="visible" style="overflow:visible"><path d="M1.781-1.14C1.391-.485 1-.345.563-.314c-.125.016-.22.016-.22.204 0 .062.063.109.141.109.266 0 .579-.031.844-.031.344 0 .688.031 1 .031.063 0 .188 0 .188-.188 0-.109-.079-.124-.157-.124-.218-.016-.468-.094-.468-.344 0-.125.062-.235.14-.375l.766-1.266h2.5c.016.203.156 1.563.156 1.656 0 .297-.516.329-.719.329-.14 0-.234 0-.234.203C4.5 0 4.61 0 4.64 0c.407 0 .829-.031 1.235-.031.25 0 .89.031 1.14.031.048 0 .173 0 .173-.203 0-.11-.094-.11-.235-.11-.61 0-.61-.062-.64-.359l-.61-6.219c-.016-.203-.016-.25-.187-.25-.157 0-.204.079-.266.172zm1.203-1.47 1.954-3.296.328 3.297Zm0 0" style="stroke:none"/></symbol><symbol id="b" overflow="visible" style="overflow:visible"><path d="M1.594-.781c-.094.39-.125.469-.907.469-.171 0-.265 0-.265.203C.422 0 .516 0 .688 0H4.25C5.828 0 7-1.172 7-2.156c0-.719-.578-1.297-1.547-1.406 1.031-.188 2.078-.922 2.078-1.876 0-.734-.656-1.375-1.843-1.375h-3.36c-.187 0-.281 0-.281.204 0 .109.094.109.281.109.016 0 .203 0 .375.016.172.03.266.03.266.171 0 .032-.016.063-.031.188zm1.5-2.875.625-2.469c.094-.344.11-.375.531-.375h1.297c.875 0 1.078.594 1.078 1.031 0 .875-.86 1.813-2.063 1.813zM2.656-.312h-.219c-.109-.016-.14-.032-.14-.11 0-.031 0-.047.062-.219l.688-2.78h1.875c.953 0 1.156.733 1.156 1.155 0 .985-.89 1.954-2.078 1.954Zm0 0" style="stroke:none"/></symbol></defs><text xml:space="preserve" x="156.221" y="234.93" style="font-style:normal;font-weight:400;line-height:0%;font-family:sans-serif;letter-spacing:0;word-spacing:0;fill:#000;fill-opacity:1;stroke:none;stroke-width:1px;stroke-linecap:butt;stroke-linejoin:miter;stroke-opacity:1"><tspan x="156.221" y="234.93" style="font-size:32px;line-height:1.25"> </tspan></text><path d="M1.569 179.58 236.49 3.385" style="fill:none;stroke:#000;stroke-width:1.55417;stroke-linecap:butt;stroke-linejoin:miter;stroke-miterlimit:10;stroke-opacity:1"/><path d="M25.06 161.96v70.475M212.999 161.96v70.475M212.999 161.96h70.482M212.999 21.005h70.482" style="fill:none;stroke:#7f7f7f;stroke-width:.388537;stroke-linecap:butt;stroke-linejoin:miter;stroke-miterlimit:10;stroke-opacity:1"/><path d="M29.76 161.96c0-2.597-2.102-4.7-4.7-4.7a4.697 4.697 0 0 0-4.7 4.7c0 2.598 2.103 4.7 4.7 4.7 2.598 0 4.7-2.102 4.7-4.7zm0 0" style="fill:#000;fill-opacity:1;fill-rule:nonzero;stroke:#000;stroke-width:.777075;stroke-linecap:butt;stroke-linejoin:miter;stroke-miterlimit:10;stroke-opacity:1"/><use xlink:href="#a" width="100%" height="100%" x="7.938" y="91.917" style="fill:#000;fill-opacity:1" transform="matrix(1.95 0 0 1.95 -15.09 -24.142)"/><path d="M217.699 21.005c0-2.598-2.103-4.7-4.7-4.7-2.59 0-4.7 2.102-4.7 4.7 0 2.597 2.11 4.7 4.7 4.7 2.597 0 4.7-2.103 4.7-4.7zm0 0" style="fill:#000;fill-opacity:1;fill-rule:nonzero;stroke:#000;stroke-width:.777075;stroke-linecap:butt;stroke-linejoin:miter;stroke-miterlimit:10;stroke-opacity:1"/><use xlink:href="#b" width="100%" height="100%" x="105.392" y="19.633" style="fill:#000;fill-opacity:1" transform="matrix(1.95 0 0 1.95 -15.09 -24.142)"/><path d="M25.06 161.96h187.36M212.999 161.374V25.704" style="fill:none;stroke:#000;stroke-width:.777075;stroke-linecap:butt;stroke-linejoin:miter;stroke-miterlimit:10;stroke-dasharray:5.82822,3.88547;stroke-opacity:1"/><path d="M27.707 208.943h185.292" style="fill:none;stroke:#000;stroke-width:1.55417;stroke-linecap:butt;stroke-linejoin:miter;stroke-miterlimit:10;stroke-opacity:1"/><path d="M210.965 208.943h1.57" style="fill:none;stroke:#000;stroke-width:2.71982;stroke-linecap:butt;stroke-linejoin:miter;stroke-miterlimit:10;stroke-opacity:1"/><path d="M211.643 216.911v-15.928" style="fill:none;stroke:#000;stroke-width:2.71982;stroke-linecap:square;stroke-linejoin:miter;stroke-miterlimit:10;stroke-opacity:1"/><path d="M29.76 208.943h-1.866" style="fill:none;stroke:#000;stroke-width:3.88547;stroke-linecap:butt;stroke-linejoin:miter;stroke-miterlimit:10;stroke-opacity:1"/><path d="M33.028 215.784c-.427-2.567-5.134-6.414-6.414-6.84 1.28-.427 5.987-4.274 6.414-6.84" style="fill:none;stroke:#000;stroke-width:3.10838;stroke-linecap:round;stroke-linejoin:round;stroke-miterlimit:10;stroke-opacity:1"/><path d="M259.99 159.976V21.005" style="fill:none;stroke:#000;stroke-width:1.55417;stroke-linecap:butt;stroke-linejoin:miter;stroke-miterlimit:10;stroke-opacity:1"/><path d="M259.99 23.046v-1.57" style="fill:none;stroke:#000;stroke-width:2.71982;stroke-linecap:butt;stroke-linejoin:miter;stroke-miterlimit:10;stroke-opacity:1"/><path d="M267.95 22.368h-15.928" style="fill:none;stroke:#000;stroke-width:2.71982;stroke-linecap:square;stroke-linejoin:miter;stroke-miterlimit:10;stroke-opacity:1"/><path d="M259.99 157.26v1.867" style="fill:none;stroke:#000;stroke-width:3.88547;stroke-linecap:butt;stroke-linejoin:miter;stroke-miterlimit:10;stroke-opacity:1"/><path d="M266.822 153.993c-2.56.427-6.406 5.134-6.833 6.414-.426-1.28-4.273-5.987-6.84-6.414" style="fill:none;stroke:#000;stroke-width:3.10838;stroke-linecap:round;stroke-linejoin:round;stroke-miterlimit:10;stroke-opacity:1"/><g aria-label="run" style="font-style:normal;font-weight:400;line-height:0%;font-family:sans-serif;letter-spacing:0;word-spacing:0;fill:#000;fill-opacity:1;stroke:none;stroke-width:1px;stroke-linecap:butt;stroke-linejoin:miter;stroke-opacity:1"><path d="M53.185 118.292q.332-.87 1.075-1.455.752-.586 1.464-.586.645 0 1.016.4t.371.82q0 .284-.195.489-.186.205-.46.205-.487 0-.741-.723-.176-.488-.528-.488-.42 0-1.006.576-.585.567-.752 1.182-.166.615-.166 1.69v1.425q0 1.28.03 1.612.039.332.283.507.244.176.87.176h.273v.45H50.47v-.45h.205q.586 0 .83-.156.254-.166.302-.46.05-.292.05-1.679v-2.256q0-1.289-.04-1.611-.03-.332-.273-.508-.244-.185-.87-.185h-.204v-.44q.917-.107 2.402-.576.283.772.312 2.041zM65.851 116.573v5.244q0 1.31.04 1.641.038.332.283.498.254.166.898.166v.45q-1.484.019-2.168.312h-.117q-.313-.537-.332-1.856-.596.928-1.367 1.397-.762.469-1.69.469-.8 0-1.416-.362-.615-.37-.85-.898-.224-.527-.224-1.592v-2.725q0-1.386-.049-1.689-.049-.312-.312-.459-.254-.146-.948-.146v-.45h2.715v5.547q0 .82.098 1.192.098.37.498.654.4.273.928.273.752 0 1.435-.488.684-.498.928-1.045.254-.556.254-1.582v-1.807q0-1.308-.03-1.591-.029-.284-.253-.489-.215-.214-.909-.214h-.205v-.45zM70.344 116.251h.263q.225.606.254 1.65.703-.83 1.475-1.24.771-.41 1.611-.41.957 0 1.563.4.615.4.79.987.176.576.176 1.69v2.5q0 1.386.05 1.689.048.302.302.459.264.146.957.146v.45h-4.092v-.45h.186q.703 0 .918-.205.215-.205.244-.478.03-.274.03-1.612v-2.578q0-.947-.099-1.348-.087-.41-.498-.722-.4-.313-1.025-.313-.713 0-1.367.43-.645.42-1.22 1.27v3.261q0 1.387.048 1.69.059.302.312.459.264.146.967.146v.45h-4.043v-.45q.674 0 .938-.137.263-.136.322-.41.068-.283.068-1.748v-2.383q0-1.396-.058-1.689-.049-.303-.313-.45-.254-.156-.957-.156v-.449q1.075-.117 2.198-.449z" style="font-style:normal;font-variant:normal;font-weight:400;font-stretch:normal;font-size:20px;line-height:1.25;font-family:Baskerville;-inkscape-font-specification:Baskerville" transform="matrix(1.95 0 0 1.95 -2.225 .858)"/></g><g aria-label="rise" style="font-style:normal;font-weight:400;line-height:0%;font-family:sans-serif;letter-spacing:0;word-spacing:0;fill:#000;fill-opacity:1;stroke:none;stroke-width:1px;stroke-linecap:butt;stroke-linejoin:miter;stroke-opacity:1"><path d="M-56.82 146.158q.332-.87 1.075-1.455.751-.586 1.464-.586.645 0 1.016.4t.371.82q0 .284-.195.489-.186.205-.46.205-.488 0-.741-.723-.176-.488-.528-.488-.42 0-1.006.576-.586.566-.752 1.182-.166.615-.166 1.69v1.425q0 1.28.03 1.611.039.332.283.508.244.176.87.176h.272v.449h-4.248v-.45h.206q.585 0 .83-.155.254-.166.302-.46.05-.292.05-1.68v-2.255q0-1.289-.04-1.611-.03-.332-.273-.508-.244-.186-.87-.186h-.205v-.44q.918-.107 2.403-.575.283.771.312 2.04zM-51.507 140.035q0-.42.293-.723.302-.303.722-.303t.713.303q.293.303.293.723 0 .43-.293.732-.293.303-.713.303t-.722-.303q-.293-.303-.293-.732zm1.885 4.082v5.576q0 1.28.039 1.611.039.332.283.508.244.176.869.176h.205v.449h-4.307v-.45h.332q.694 0 .899-.194.215-.206.244-.479.04-.283.04-1.621v-2.422q0-1.406-.138-1.719-.127-.312-.351-.39-.215-.078-.762-.078h-.264v-.45q1.739-.175 2.696-.517zM-47.035 152.69v-2.626h.381q.664 2.275 2.373 2.275.743 0 1.104-.449.371-.45.371-.986 0-.625-.39-1.026-.401-.4-1.553-.966-1.211-.596-1.739-1.172-.527-.567-.527-1.397 0-.79.566-1.504.567-.722 1.592-.722 1.045 0 1.729.85.146-.147.38-.714h.362v2.471h-.361q-.196-.889-.762-1.523-.557-.645-1.319-.645-.585 0-.947.362-.361.36-.361.84 0 .527.4.908.39.39 1.494.888 1.66.752 2.032 1.465.37.723.37 1.387 0 1.045-.693 1.699-.683.654-1.728.654-1.104 0-1.963-.908-.264.293-.43.84zM-33.177 147.144h-5.576q-.04.576-.04.86 0 2.109.655 3.173.664 1.055 1.973 1.055 1.777 0 2.52-1.592h.468q-.313.996-1.24 1.563-.928.556-2.022.556-1.015 0-1.924-.508-.898-.517-1.474-1.455-.576-.937-.576-2.275 0-1.895 1.113-3.145 1.113-1.26 2.783-1.26 1.572 0 2.432.958.859.957.908 2.07zm-1.71-.39q.03-.225.03-.401 0-.86-.508-1.328-.498-.479-1.23-.479-1.777 0-2.12 2.207z" style="font-style:normal;font-variant:normal;font-weight:400;font-stretch:normal;font-size:20px;line-height:1.25;font-family:Baskerville;-inkscape-font-specification:Baskerville" transform="matrix(0 -1.95 1.95 0 1.06 -.237)"/></g><path d="M212.999 167.015v-10.108M207.987 161.957h10.108" style="fill:none;stroke:#000;stroke-width:.777075;stroke-linecap:square;stroke-linejoin:miter;stroke-miterlimit:10;stroke-opacity:1"/><path d="M249.84 21.187h1.181v1.181h-1.181zm-18.903 1.181h1.181v1.182h-1.181zm9.451 1.182h1.182v2.363h-1.182zm18.903 0h.591v1.181h-.59zM216.76 24.73h1.182v1.182h-1.182zm4.726 0h1.182v1.182h-1.182zm3.544 0h1.182v1.182h1.181v1.181h-1.181v-1.181h-1.182zm3.545 0h1.181v1.182h-1.181zm3.544 0h1.182v1.182h-1.182zm5.907 0h1.182v1.182h-1.182zm8.27 0h2.363v1.182h-2.363v1.181h-1.181v-1.181h1.181zm4.726 0h1.182v1.182h-1.182zm2.363 0h4.726v1.182h-2.363v3.544h1.181v1.181h-1.181v-1.181h-1.181v1.181h-1.182v-1.181h1.182v-3.544h-1.182zm-17.722 1.182h1.182v1.181h-1.182zm9.452 2.362h1.181v1.182h-1.181v1.181h-1.181v-1.181h1.181zm-28.355 1.182h2.363v1.181h-2.363zm8.27 0h1.182v1.181h-1.182zm7.09 0h1.18v1.181h-1.18v1.182h-1.182v-1.182h1.181zm2.362 0h2.363v1.181h-2.363zm12.996 0h3.544v1.181h-3.544zm11.814 0h.591v2.363h-.59zm-9.451 2.363h1.181V33h-1.181zM221.485 33h1.182v1.182h-1.182zm9.452 0h1.181v1.182h-1.181v1.181h-2.363v-1.181h2.363zm-11.815 1.182h1.182v1.181h-1.182zm5.907 0h1.182v1.181h-1.182zm14.178 0h3.544v1.181h-3.544zm7.088 0h1.182v1.181h-1.182zm3.545 0h1.181v1.181h-1.181zm2.363 0h1.181v1.181h-1.181zm4.725 0h1.182v1.181h-1.182zm2.363 0h.591v1.181h-.59zm-42.532 1.181h1.182v1.182h-1.182zm28.355 1.182h1.181v1.181h-1.181zm9.452 0h1.181v1.181h-1.181zm-28.355 1.181h1.181v1.181h-1.181zm-10.633 1.181h1.181v1.182h-1.181zm15.359 0h1.181v2.363h-1.181zm9.451 0h1.182v2.363h-1.182zm2.363 0h1.182v1.182h-1.182zm3.544 0h1.182v1.182h-1.182zm4.726 0h1.182v1.182h-1.182v1.181h-1.181V40.09h1.181zm-38.397 1.182h.591v1.181h-.59zm8.861 0h1.182v1.181h-1.182zm-8.86 2.363h.59v1.181h2.363v1.182h-2.363v-1.182h-.59zm4.134 1.181h2.363v1.182h-2.363zm3.545 0h1.181v1.182h-1.181zm4.725 0h1.182v1.182h-1.182zm2.363 0h1.182v1.182h-1.182zm3.545 0h1.181v1.182h-1.181zm4.725 0h2.363v1.182h-1.181v1.181h-1.182zm5.908 0h1.181v1.182h-1.181zm7.088 0h1.182v1.182h-1.182zm2.363 0h2.363v1.182h-2.363zm8.27 0h.591v1.182h-.59zm-42.532 2.363h1.182v1.182h-1.182zm28.355 0h1.181v1.182h-1.181zm-18.903 1.182h1.181v2.362h-1.181zm9.451 0h1.182v1.181h1.181v1.181h-1.181V48.36h-1.182zm-21.266 1.181h2.363v1.181h-2.363zm3.545 0h2.363v1.181h-2.363zm3.544 0h1.182v2.363h-1.182zm7.089 0h1.181v1.181h-1.181zm2.363 0h2.363v1.181h-2.363zm9.451 0h1.182v1.181h-1.182zm3.545 0h1.181v1.181h-1.181zm2.362 0h1.182v1.181h-1.182zm7.09 0h1.18v1.181h-1.18zm-40.76 2.363h.59v1.181h-.59zm18.312 0h1.181v1.181h-1.181zm9.451 0h1.182v2.363h2.363v1.181h1.181v1.182h-1.181v-1.182h-5.908v-1.181h2.363zm9.452 1.181h1.181v1.182h1.182v1.181h-1.182v-1.181h-1.181v1.181h-1.182v-1.181h1.182zm-37.216 1.182h.591v1.181h-.59zm2.954 0h1.181v1.181h-1.181zm2.363 0h1.181v1.181h-1.181zm2.363 0h1.181v1.181h-1.181zm4.725 0h1.182v1.181h-1.182zm2.363 0h3.545v1.181h-3.545zm4.726 0h1.182v1.181h-1.182zm2.363 0h2.363v2.363h-1.182v-1.182h-1.181zm20.085 0h1.181v3.544h-1.181zm2.362 0h2.363v1.181h-2.363zm-40.169 2.363h1.182v1.181h-1.182zm9.452 0h1.181v2.363h1.182v1.181h-2.363zm9.451 1.181h1.182v1.182h7.089V56.63h1.181v1.182h2.363v1.181h-5.907v1.181h-1.182v-1.181H233.3v-1.181h2.362zm-18.903 1.182h1.182v1.181h-1.182zm3.545 0h3.544v1.181h-3.544zm9.451 0h2.363v2.362h-1.181v-1.181h-1.182zm18.903 0h2.363v2.362h-1.181v-1.181h-1.182zm3.545 0h1.181v1.181h-1.181zm2.363 0h1.181v1.181h-1.181zm3.544 0h1.772v3.544h-.59v-2.363h-1.182zm-17.722 3.544h1.182v2.363h-8.27v-1.182h7.088zm-27.764 1.181h4.135v1.182h-4.135zm5.317 0h1.181v1.182h-1.181zm2.363 0h2.363v1.182h-2.363zm8.27 0h2.363v1.182h1.181v3.544h1.182v2.363h1.181v1.181h2.363v-1.181h1.181v1.181h1.182v-1.181h1.181v-1.181h1.182V64.9h1.181V63.72h2.363V64.9h1.181v2.363h1.182v4.726h1.181v5.907h-1.181v2.363h-1.182v2.363h-1.181v1.181h-1.181v1.182h-1.182v3.544h.59v-.59h.592v-.591h1.181v.59h3.544v2.954h1.182v-1.181h1.181v1.181h5.907v1.181h-1.181v3.545h4.135v5.907h-4.135v3.544h4.135v5.908h-4.135v3.544h1.181v-1.182h1.182v1.182h1.772v5.907h-4.135v3.544h4.135v5.908h-4.135v3.544h4.135v5.907h-4.135v3.545h2.363v1.181h-5.907v-1.181h2.363v-3.545h-1.182v-1.181h5.907v-3.545h-8.27v1.182h1.182v1.181h-1.182v1.182h1.182v1.181h-5.908v3.545h3.545v1.181h1.181v5.907h-1.181v-5.907h-3.545v-1.181h-1.181v1.181h-1.181v-1.181h1.181v-3.545h-1.181v-1.181h1.181v1.181h1.181v-1.181h3.545v-3.545h-8.27v2.363h-1.182v-2.363h-4.726v-4.725h-4.725v-5.908h1.181v4.726h17.722v-3.544h-8.27v2.363h-1.182v-2.363h-5.907v-1.182h5.907v1.182h1.182v-1.182h3.544v-3.544h-5.907v-1.181h-1.182v1.181h-1.181v-1.181h-2.363v1.181H233.3v-1.181h-1.182v-1.182h-2.363v-1.181h-1.181v-3.545h3.544V99.162h-1.181v-1.181h-1.182v-1.182h1.182v-2.363h1.181V88.53h-1.181v-3.544h-1.182v-1.182h-1.181V81.44h-1.182V80.26h-1.181v-2.363h-1.182v-2.363h-1.181V73.17h1.181v-2.363h1.182v-4.725h1.181v-2.363h1.182zm20.084 0h5.908v1.182h-3.545V64.9h-1.181V63.72h-1.182zm7.089 0h1.181v1.182h-1.181zm-24.81 1.182h-2.363v2.363h-1.182v2.363h4.726v-1.182h-2.363v-1.181h1.182zM216.759 64.9h1.182v1.182h-1.182v2.363h-2.363v-1.182h1.182v-1.181h1.181zm18.903 0h1.182v1.182h-1.182zm9.452 0h-2.363v2.363h1.182v1.182h-2.363v1.181h4.725v-2.363h-1.181zm9.452 1.182h1.181v2.363h-3.544v-1.182h2.363zm-35.444 1.181h3.545v1.182h-3.545zm16.54 0h3.545v1.182h-3.545zm12.996 0h2.363v1.182h-2.363zm8.27 0h1.182v1.182h-1.182zm2.363 0h.591v2.363h-.59zm-46.667 2.363h.591v1.181h-.59zm8.861 0h1.182v1.181h-1.182zm8.27 0h-2.363v1.181h-1.181v2.363h-1.182v2.363h1.182v2.363h1.181v2.363h1.182v1.181h1.181v2.363h1.182V81.44h1.181V80.26h-1.181v-3.544h-1.182v-2.363h-1.181v1.181h-1.182v-1.181h1.182v-2.363h1.181zm2.363 0h-1.181v2.363h-1.182v2.363h1.182v2.363h1.181zm17.722 0h1.181v2.363h1.182v1.181h-2.363zm-7.089 1.181h-1.181v5.908h1.181v-1.182h1.182V73.17h-1.182zm3.544 0h-2.362v2.363h1.181v2.363h1.181v1.182h-1.181v-1.182h-1.181v1.182h-1.182v2.363h-1.181v2.362h1.181v2.363h1.182v-1.181h1.181v-2.363h1.181v-2.363h1.182V71.99h-1.182zm-33.67 1.182h1.771v1.181h-1.772zm2.953 0h2.363v3.544h-1.182v-1.181h-1.181zm4.726 0h2.363v1.181h-2.363zm33.08 0h3.544v1.181h-1.181v3.545h2.363v1.181h-7.089v1.182h-1.181v-2.363h4.726V73.17h-1.182zm4.726 0h1.181v1.181h-1.181zm-17.722 2.363h-5.907v4.726h1.181v2.362h3.545v-2.362h1.181zm-4.726 1.181h1.182v1.182h-1.182zm2.363 0h1.182v1.182h-1.182zm-25.4 1.182h1.771v1.181h-1.772zm4.134 0h2.363v1.181h-2.363zm3.545 0h2.363v4.725h1.181v1.182h-1.181V81.44h-1.182v1.182h-2.363V81.44h2.363v-3.544h-1.181zm38.987 0h.591v1.181h-.59zM233.3 77.896h-1.182v1.182h1.182zm-20.676 1.182h.591v1.181h-.59zm24.22 0h1.181v1.181h-1.181zm22.447 0h.591v3.544h-7.68V81.44h7.09zm-24.81 1.181H233.3v1.181h-1.182v4.726h1.182v1.182h-1.182v1.181h1.182v2.363h2.362v1.181h1.182v-9.451h-1.182V81.44h-1.181zm-21.857 1.181h.591v2.363h-.59zm28.946 0h-2.363v1.182h-1.182v9.451h2.363V88.53h1.182zm5.907 0h2.363v1.182h-2.363zm-31.9 1.182h1.182v1.181h-1.181zm10.634 1.181h1.181v1.182h-1.181zm-10.633 1.182h1.181v1.181h-1.181zm29.536 0h1.181v1.181h2.363v1.182h-2.363v-1.182h-1.181zm9.452 0h1.181v1.181h-1.181v1.182h-3.545v1.181h-1.181v-2.363h4.726zm-41.351 1.181h1.181v1.182h-1.181zm4.726 0h1.181v1.182h-1.181zm7.088 0h1.182v1.182h-1.182zm31.9 0h2.953v3.545h-.59v-2.363h-2.364zm-35.444 1.182h1.182v1.181h-1.182zm-8.86 1.181h.59v2.363h-.59zm30.126 0h-1.181v5.907h1.181V96.8h1.182v1.182h-1.182v15.358h3.544v3.545h-2.362v1.181h-2.363v1.182h3.544v1.181h1.181v-1.181h3.545v-5.317h.59v.59h4.136v-3.543h-8.27v1.181h-1.182v-1.181h-1.181v-1.182h1.181v-.59h1.772v.59h1.182v-.59h1.772v-2.954h-5.907v-1.772h1.181v-2.954h-1.181v-1.772h1.772v.59h1.181v-.59h1.772v.59h1.182V96.8h-3.545v.591h-1.772v-1.772h.591v-2.363h-1.772v-1.182h-.59zm-24.81 2.363h2.363v1.181h-2.363zm3.544 0h1.182v1.181h-1.182zm36.625 0h1.772v1.181h-1.772zm-9.452.59h-.59v.591h-.591v1.182h-.59v.59h-.592v1.773h8.27v-3.545h-5.907zm-12.996 1.773H233.3v1.181h-1.182V96.8h-1.181v1.182h11.814v-1.182h-1.181v-2.363h-5.908zm-9.451 1.181h1.181v1.182h-1.181zm-13.587 1.182h.591v1.181h-.59zm4.135 0h1.182v1.181h-1.182zm42.532 1.181h-8.27v3.545h8.27zm-46.667 1.182h.591v2.363h1.181v1.181h-1.181v-1.181h-.59zm2.954 2.363h1.181v1.181h-1.181zm22.447 0h-1.181v18.903h1.181zm16.54 1.181h-7.679v1.772h-.59v1.182h.59v.59h2.954v-.59h.59v.59h2.363v-.59h.591v.59h1.182zm-37.806 2.363h1.182v1.181h-1.182zm-3.544 1.181h1.181v1.182h-1.181zm46.076 1.182h-8.27v3.544h8.27zm-37.806 2.363h1.182v1.181h-1.182zm-8.86 1.181h.59v2.363h-.59zm2.953 0h1.181v1.182h-1.181zm9.451 0h1.182v1.182h-1.182zm10.633 3.544H233.3v1.182h2.362zm5.908 0h-2.363v1.182h2.363zm-28.946 1.182h.591v1.181h-.59zm2.954 0h1.181v1.181h-1.181zm43.713 1.181h-8.27v3.545h7.089v-1.182h1.181zm-46.667 1.182h.591v2.363h-.59zm2.954 2.363h2.363v1.181h-2.363zm7.089 0h2.362v1.181h-2.362zm7.088 0h1.182v1.181h-1.182zm-17.13 1.181h.59v1.182h-.59zm13.586 0h1.181v1.182h-1.181zm28.355 0h-8.27v3.544h8.27zm-18.904 1.182h1.182v1.181h-1.182zm-20.084 1.181h1.181v1.181h1.182v1.182h-1.182v-1.182h-1.181zm-2.954 1.181h1.772v1.182h-1.772zm6.498 0h2.363v1.182h-2.363zm4.726 0h1.181v1.182h-1.181zm35.443 1.182h-8.27v3.544h2.363v1.182h-1.181v1.181h-1.182v-1.181h-4.726v1.181h-1.181v-1.181h-8.27v3.544h3.544v1.181h1.182v-1.181h3.544v-1.181h1.181v1.181h4.726v-1.181h1.182v1.181h2.363v-4.726h4.725zm-46.667 1.181h.591v1.182h-.59zm8.861 0h1.182v1.182h-1.182zm-8.86 2.363h1.771v1.182h-1.181v1.181h-.59zm5.316 0h1.181v1.182h-1.181zm3.544 0h3.544v1.182h-3.544zm4.726 0h3.544v1.182h-3.544zm0 2.363h1.181v1.182h-1.181zm21.266 0h1.181v1.182h-1.181zm-34.262 2.363h1.181v1.181h-1.181zm2.363 0h2.363v1.181h-2.363zm4.726 0h2.363v1.181h-2.363zm4.725 0h1.182v1.181h-1.182zm3.545 0h2.363v1.181h-2.363zm3.544 0h2.363v1.181h-2.363zm-19.494 2.363h.591v1.181h-.59zm8.861 0h1.182v3.544h-1.182zm-8.27 2.363h1.181v1.181h-1.181v1.182h-.59v-1.182h.59zm2.363 0h1.181v1.181h-1.181zm8.27 0h1.181v1.181h-1.181zm4.726 0h1.181v1.181h-1.181zm2.363 0h1.181v1.181h-1.181zm2.363 0h2.362v1.181H233.3zm3.544 0h5.907v1.181h-5.907zm-10.633 1.181h1.181v1.182h-1.181zm9.451 1.182h1.182v1.181h-1.182zm-20.084 2.363h1.181v1.181h-1.181zm5.907 0h1.182v1.181h-1.182zm4.726 0h1.181v1.181h-1.181zm2.363 0h1.181v1.181h-1.181zm3.544 0h2.363v1.181h-2.363v2.363h-1.181v-2.363h1.181zm5.907 0h3.545v1.181h-3.545zm21.266 0h.591v2.362h-.59zm-37.806 2.362h1.182v1.182h-1.182zm37.806 1.182h.591v1.181h-.59v1.182h-2.364V147.6h2.363zm-46.076 1.181h1.181v1.182h-1.181zm9.452 0h1.181v1.182h-1.181zm7.088 0h1.182v1.182h-1.182zm2.363 0h1.182v1.182h-1.182zm8.27 0h4.726v1.182h1.181V147.6h1.182v1.182h-1.182v1.181h-1.181v-1.181h-4.726zm11.815 0h1.181v1.182h-1.181zm2.363 0h1.181v1.182h-1.181zm-28.355 1.182h1.181v1.181h-1.181zm9.451 0h1.182v2.363h-1.182zm8.27 2.363h1.182v2.363h-1.181zm10.634 0h1.181v1.181h1.181v1.182h-3.544v-1.182h1.182zm-38.988 1.181h1.181v1.182h-1.181zm3.544 0h1.182v1.182h-1.182zm4.726 0h3.544v1.182h-3.544zm4.726 0h1.181v1.182h-1.181zm2.363 0h1.181v1.182h-1.181zm3.544 0h2.363v1.182h-2.363zm5.907 0h2.363v1.182h-2.363zm5.907 0h2.363v1.182h-2.363zm-15.358 2.363h1.181v1.181h-1.181zm9.451 0h1.182v1.181h-1.182zm9.452 0h1.181v1.181h-1.181zm-37.216 2.363h.591v1.181h-.59zm6.498 0h1.182v1.181h-1.182zm2.363 0h1.182v1.181h-1.182zm5.907 0h1.182v1.181h-1.182zm3.545 0h1.181v2.363h-1.181zm3.544 0h3.544v1.181h-3.544zm9.452 0h1.181v1.181h-1.181zm5.907 0h1.181v1.181h-1.181zm5.907 0h1.181v1.181h-1.181zm3.544 0h.591v1.181h-.59zm-5.907 1.181h1.182v1.182h-1.182zm-28.355 2.363h1.182v1.182h-1.182zm9.452 0h1.181v1.182h-1.181zm18.903 0h1.182v1.182h-1.182z" style="stroke-width:.590722"/><path d="M41.628 161.435h1.169v1.168h-1.169zm28.043 0h1.169v3.505h-2.337v1.168h-1.169v-1.168h1.169v-1.168h1.168zm9.348 0h1.168v3.505H79.02v1.168h-1.168v-1.168h1.168zm-18.695 2.337h1.168v1.168h2.337v1.168h-2.337v-1.168h-1.168zm28.043 0h1.168v1.168h-1.168zm-50.244 1.168h1.169v1.168h-1.169zm5.842 0h2.337v1.168h-2.337zm3.506 0h3.505v1.168h-3.505zm5.842 0h1.168v1.168h-1.168zm4.674 0h1.168v1.168h-1.168zm7.01 0h1.169v1.168h-1.168zm9.348 0h2.337v1.168h-1.168v1.169h-1.169zm10.516 0h2.337v1.168h-2.337zm21.032 0h1.169v1.168h-1.169zm-3.505 1.168h1.169v1.169h-1.169zm-56.086 1.169h1.169v1.168h-1.169zm9.348 0h1.168v1.168H55.65zm18.695 1.168h1.169v1.169h-1.169zm9.348 0h1.168v2.337h-1.168zm9.347 0h1.169v2.337h-2.337v-1.168h1.168zm-67.77 1.169h1.169v1.168H25.27zm12.853 0h2.337v1.168h-2.337zm3.505 0h1.169v1.168h-1.169zm4.674 0h1.169v1.168h-1.169zm3.506 0h3.505v1.168h-3.505zm5.842 0h1.168v1.168H55.65zm16.358 0h1.169v1.168h-1.169zm4.674 0h1.169v1.168h-1.169zm10.516 0h1.169v1.168h1.168v2.337h-1.168v-2.337h-1.169zm9.348 0h2.337v1.168h-2.337zm7.01 0h1.169v1.168h-1.168zm7.011 0h2.337v1.168h-2.337zm8.18 0h1.168v1.168h-1.169zm-39.728 1.168h1.168v2.337H79.02zm28.043 0h1.168v1.169h-1.168zm9.348 0h1.168v1.169h-1.168zm-18.696 1.169h1.169v1.168h-1.169Zm28.043 0h1.169v1.168h-1.169zm-9.347 1.168h1.168v1.169h-1.168zm-71.276 1.169h1.168v1.168h-1.168zm4.674 0h1.168v1.168h-1.168zm3.505 0h1.168v1.168h-1.168zm23.37 0h1.168v1.168h-1.169zm5.841 0h2.337v2.337h-1.168v-1.169h-1.169zm4.674 0h1.169v1.168h-1.169zm2.337 0h4.674v1.168h-4.674zm5.842 0h2.337v1.168h-2.337zm5.843 0h1.168v1.168h1.169v1.169h-1.169v-1.169h-1.168zm4.673 0h2.337v1.168h-2.337zm5.843 0h2.337v1.168h-2.337zm8.179 0h1.168v1.168h1.169v-1.168h2.337v1.168h-2.337v1.169h-1.169v-1.169h-1.168zm45.57 0h1.168v1.168h-1.168zm5.842 0h1.168v1.168h-1.168zm3.505 0h1.169v1.168h-1.169zm-128.53 2.337h1.169v1.168h-1.169zm9.348 0h1.168v1.168H55.65zm37.39 0h1.169v2.336h2.337v1.169h-2.337v-1.169H93.04v1.169h-3.505v1.168h-1.168v-1.168h-4.674v-2.337h1.168v1.168h8.18zm56.086 0h1.169v1.168h-1.169zm9.348 0h1.168v1.168h-1.168zm-56.086 1.168h1.169v1.168h1.168v1.169h-3.505v-1.169h1.168zm9.348 0h1.168v2.337h-4.674v4.674h-1.168v-4.674h-1.169v-1.169h1.169v1.169h1.168v-1.169h3.506zm9.347 0h1.169v1.168h1.168v1.169h-2.337zm9.348 0h1.168v1.168h-1.168zm-87.634 1.168h1.168v1.169h-1.168zm4.674 0h1.168v1.169h-1.168zm3.505 0h1.169v1.169h-1.169zm25.706 0h2.337v1.169h1.168v-1.169h2.337v1.169h-2.337v2.337H79.02v-2.337h-2.337zm21.032 0h2.337v1.169h-1.168v1.168h-1.169Zm17.527 0h4.674v1.169h-2.337v4.674h-5.842v-1.169h4.674v-3.505h-1.169zm10.516 0h2.337v1.169h-2.337zm8.18 0h1.168v1.169h-1.169zm7.01 0h1.169v1.169h-1.169zm2.337 0h1.168v1.169h-1.168zm7.01 0h2.338v1.169h-2.337zm7.011 0h1.169v1.169h-1.169zm3.506 0h1.168v1.169h-1.168zm2.337 0h1.168v2.337h-1.168zm4.674 0h2.336v1.169h-2.336zm5.842 0H176v1.169h-2.337zm4.674 0h2.337v1.169h-2.337zm4.673 0h1.169v1.169h-1.169zm-141.383 2.337h1.169v2.337h-1.169zm84.13 0h1.168v1.169h-1.169zm9.347 0h1.168v3.506h-2.337v-1.169h1.169zm18.695 0h1.169v1.169H153.8zm-65.433 1.169h1.168v2.337h-4.674v2.337h-1.168v-3.506h4.674zm9.347 0h1.169v2.337h-3.506v-1.169h2.337zm74.781 0h1.169v1.168H176v1.169h-3.506zm9.348 0h1.168v1.168h1.169v1.169h-2.337zm-155.404 1.168h1.168v1.169h-1.168zm18.695 0h2.337v3.506h-1.169v-2.337h-1.168zm5.842 0h1.169v1.169h-1.169zm4.674 0h1.168v3.506H55.65zm5.842 0h1.169v1.169h-1.169zm3.506 0h1.168v1.169h-1.168zm7.01 0h1.169v1.169h-1.169zm2.337 0h1.169v1.169h-1.169zm2.337 0h1.169v1.169h-1.169zm3.505 0h2.337v1.169h-2.337Zm10.517 0h3.505v1.169h-3.505zm10.516 0h4.673v1.169h-2.336v1.168h-1.169v-1.168h-1.168zm8.179 0h1.168v1.169H109.4zm9.347 0h7.011v1.169h-7.01zm9.348 0h3.505v1.169h-3.505zm10.516 0h1.169v1.169h-1.169zm4.674 0h2.337v1.169h-2.337zm4.674 0h1.168v1.169h1.169v2.337h-1.169v-2.337h-1.168zm3.505 0h4.674v1.169h-4.674zm8.18 0h1.168v1.169h-1.169v1.168h-1.168v-1.168h1.168zm3.505 0h1.168v1.169h-1.168zm2.337 0h1.168v1.169h-1.168zm2.337 0h3.505v1.169h-2.337v3.505h8.18v1.169h-3.506v3.505H176v1.168h-2.337v-1.168h-1.169v1.168h-2.337v-1.168h2.337v-3.505h-8.179v3.505h1.169v1.168h-2.337v-4.673h-1.169v-1.169h1.169v1.169h1.168v-1.169h3.506zm9.347 0h1.169v3.506h-1.169zm2.337 0h1.169v1.169h-1.169zm10.516 0h1.169v1.169h-1.169zm-3.505 1.169h1.168v1.168h-1.168zm-74.781 1.168h1.168v2.337h1.169v1.169h-1.169v-1.169h-1.168zm9.347 0h1.169v1.169h-1.169zm9.348 0h1.168v1.169h-1.168zm-37.39 1.169h1.168v2.337h-2.337v-1.169h1.168zm9.347 0h1.169v1.168h1.168v1.169h-1.168v-1.169h-1.169v1.169h-2.337v-1.169h2.337zm56.086 0h1.168v2.337h-3.505v-1.169h2.337zm28.043 0h1.168v2.337h-4.674v3.505h5.843v1.168h-1.169v3.506h8.18v-3.506h-5.843v-1.168h1.169v-2.337h1.168v2.337h8.18v-3.505h-1.17v-1.169h2.338v4.674h4.674v4.674h3.505v1.168h-17.527v3.506h2.337v1.168h-3.505v-4.674h-8.18v4.674h-1.168v-4.674h-8.18v1.169h-1.168v-1.169h-3.505v-1.168h-1.168v1.168h-1.169v-1.168h1.169v-1.169h1.168v1.169h3.505v1.168h1.169v-1.168h3.505v-4.674h4.674v-3.505h1.168v-1.169h3.506zm9.347 0h1.169v1.168h1.168v1.169h-4.673v-1.169h2.336zM63.83 188.309h2.337v1.169h-2.337Zm4.674 0h1.168v1.169h-1.168zm4.674 0h2.337v1.169h-2.337zm4.674 0h2.336v1.169h-2.336zm4.673 0h1.169v1.169h-1.169zm2.337 0h5.843v1.169H84.86zm11.685 0h1.168v1.169h1.169v3.505h-1.169v-3.505h-1.168zm9.347 0h1.169v1.169h1.168v-1.169h1.169v1.169h-1.169v2.336h-1.168v-2.336h-1.169zm9.348 0h3.505v1.169h-3.505zm4.674 0h3.505v1.169h-3.505zm4.674 0h2.337v1.169h-2.337zm7.01 0h1.169v1.169h-1.169zm4.674 0h1.169v1.169h-1.169zm3.506 0h2.337v1.169h-2.337zm8.179 0h1.168v1.169h-1.168zm2.337 0h3.505v1.169h1.169v1.168H153.8v-1.168h-3.505zm28.043 0h2.337v1.169h-2.337zm10.516 0h1.168v1.169h-1.168zm2.337 0h1.168v1.169h-1.168zm12.268 0h2.922v1.169h-2.922zm-133.788 2.337h1.169v1.168H69.67zm9.348 0h1.168v1.168H79.02zm9.348 0h1.168v1.168h-1.168zm28.043 0h1.168v2.337h-1.168zm9.347 0h1.169v3.505h-1.169zm84.129 0h1.168v2.337h1.753v1.168h-5.258v-1.168h2.337zm-149.562 2.337h1.168v1.168h-1.168zm9.347 0h1.169v1.168H69.67zm3.506 0h1.168v1.168h-1.168zm3.505 0h2.337v1.168h-2.337zm3.505 0h1.169v1.168h-1.169Zm2.337 0h3.506v1.168H84.86v2.337h-1.168v-2.337h-1.169zm5.843 0h2.337v1.168h-2.337zm4.673 0h2.337v1.168H93.04zm8.18 0h1.168v1.168h-1.168zm3.505 0h2.337v1.168h-2.337zm5.842 0h1.169v1.168h-1.169zm2.337 0h2.337v1.168h-2.337zm9.348 0h1.168v1.168h-1.168zm7.01 0h2.337v1.168h-2.336zm15.19 0h2.337v1.168h-2.337zm10.517 0h1.168v1.168h-1.168zm2.336 0h1.169v1.168h-1.169zm3.506 0h1.168v1.168h-1.168zm5.842 0h2.337v2.337h-1.168v-1.169h-1.169zm19.864 1.168h-8.18v3.506h8.18zm18.695 0h-8.18v3.506h8.18zM74.345 195.32h1.169v1.168h-1.169zm28.043 0h1.169v1.168h2.336v1.169h1.169v1.168h2.337v1.169h1.168v-1.169h1.169v-1.168h3.505v1.168h1.169v4.674h1.168v1.168h2.337v3.506h-5.842v-1.169h-1.169v1.169h-4.674v-1.169h-1.168v1.169h-8.18v-1.169h-1.168v1.169H93.04v-1.169h-1.168v1.169H86.03v-3.506h2.337V203.5h1.168v-4.674h1.169v-1.168h3.505v1.168h1.168v1.169h1.169v-1.169h1.168v-1.168h2.337v-1.169h2.337zm1.169 1.168h-1.169v1.169h-2.337v1.168h4.674v-1.168h-1.168zm53.748 1.169h1.169v1.168h-1.169zm3.506 0h1.168v1.168h-1.168zm3.505 0h1.169v1.168h-1.169v1.169h-1.168v-1.169h1.168zm47.323 0h1.168v1.168h-1.168zM62.66 198.825h1.168v1.169h-1.168zm29.211 0h-1.168v1.169h1.168Zm21.032 0h-1.168v1.169h1.168zm-12.853 1.169h-2.337v1.168h-1.168v1.169h1.168v1.168h1.169v2.337h2.337v-1.169h1.168v-2.336h-1.168v-1.169h-1.169zm4.674 0h-3.505v1.168h1.168v1.169h1.169v-1.169h1.168zm4.674 1.168h-4.674v1.169h-1.168v2.336h1.168v1.169h2.337v-2.337h1.168v-1.168h1.169zm36.222 0h1.168v1.169h1.169v-1.169h2.337v2.337h1.168v1.168h1.169v1.169h-2.337v1.168h-1.169v1.169h-2.337v-2.337h-2.337v1.168h1.169v1.169h-1.169v-1.169h-2.336v1.169h-1.169v-1.169h1.169v-1.168h-1.169v-1.169h-2.337v1.169h-1.168v1.168h-1.169v1.169h-1.168v-1.169h1.168v-1.168h1.169v-1.169h1.168V203.5h3.506v-1.168h3.505zm21.032 0h2.337v1.169h1.168v-1.169h1.169v1.169h3.505v1.168h3.506v1.168h1.168v1.169h2.337v1.168h-2.337v-1.168h-1.168v-1.169H176v2.337h-1.169v1.169h-2.337v-1.169h-1.168v1.169h-1.169v-1.169h-1.168v-1.168h-1.168v1.168h-1.169v1.169h-1.168v-1.169h1.168v-1.168h-1.168v-1.169h-1.169V203.5h2.337zm12.853 1.169h1.169v1.168h-1.169zm5.842 0h2.337v3.505h-1.168v-2.337h-1.169zm3.506 0h1.168v1.168h-1.168zm-98.15 1.168h-1.169v1.168h-1.168v1.169h-1.169v1.168h4.674v-2.337h-1.168zm25.706 0h-1.169v1.168h-1.168v2.337h4.673v-1.168h-1.168v-1.169h-1.168zm32.716 0h-1.168v1.168h1.168zm19.864 0h-1.168v1.168h1.168Zm31.548 1.753h1.169v.584h-1.169v1.168h1.169v1.169h-1.169v-1.169h-1.168v-1.168h1.168zm-51.412.584h-1.168v1.168h1.168zm22.2 0h-1.168v1.168h1.169zm3.506 0h-2.337v1.168h2.337zm9.348 1.168h1.168v1.169h-1.168zm5.842 0h1.169v1.169h-1.169zm3.506 0h1.168v1.169h-1.168zm3.505 0h1.168v1.169h-1.168zm7.01 0h1.17v1.169h-1.17zm3.506 0h2.337v1.169h-2.337zm3.505 0h1.169v1.169h-1.169z" style="stroke-width:.584227"/></svg>