<svg xmlns="http://www.w3.org/2000/svg" xmlns:xlink="http://www.w3.org/1999/xlink" id="svg237" width="340" preserveAspectRatio="xMinYMin" version="1.1" viewBox="0 0 340 415"><style id="style1" type="text/css">.run_slope_flower1_1,.run_slope_flower2_1{fill:#fadede;stroke:#000;stroke-width:1.2}.run_slope_flower2_1{fill:#f7fca8}.run_slope_flower5_1,.run_slope_flower6_1{fill:#fff;stroke:#000;stroke-width:1.2}.run_slope_flower9_1{color:#000;stroke-miterlimit:8.5}.run_slope_flower10_1,.run_slope_flower11_1{color:#000;fill-opacity:.889952;stroke-miterlimit:8.5}.run_slope_flower11_1{stroke-miterlimit:6.25}.run_slope_flower12_1{fill:#fff;stroke:#000;stroke-width:1.2}.run_slope_flower13_1{color:#000;fill-opacity:.889952;stroke-miterlimit:6.25}</style><defs id="defs137"><g id="run_slope_flower1"><g id="g13" transform="translate(.223 -58.932)"><g id="g5" class="run_slope_flower1_1"><path id="path1" d="M-6.71 55.17c-1.05-1.39-2.14-2.91-2.79-4.53-.9-2.16-1.75-4.42-1.75-6.79.03-.71.07-1.6.84-1.86.92-.23 1.7.42 2.33.99 1.16 1.01 2.08 2.25 2.93 3.52.74.92 1.25 2.09 1.83 3.11.79 1.36 1.31 2.6 1.71 3.93" class="run_slope_flower1_1"/><path id="path2" d="M3.36 54.5c2.4-2.12 4.95-4.15 7.94-5.37 1.09-.45 2.25-.87 3.45-.91.68-.02 1.41.42 1.43 1.15.01 1.16-.67 2.2-1.53 2.92-2.02 2.02-4.31 3.84-6.94 4.99-.86.4-1.74.77-2.61 1.13" class="run_slope_flower1_1"/><path id="path3" d="M2.55 62.32c1.2.9 2.26 1.99 3.08 3.25.78 1.14 1.61 2.28 2.07 3.6.59 1.45.99 2.99 1.1 4.56.06.6-.14 1.46-.88 1.47-.73.03-1.34-.47-1.96-.79-1.39-.97-2.49-2.33-3.35-3.78-1.19-2-1.95-4.2-2.66-6.4" class="run_slope_flower1_1"/><path id="path4" d="M-3.96 62.22c-1.31 1.36-2.56 2.79-3.49 4.43-1.13 1.89-2.01 4-2.09 6.23.04.66-.01 1.51.64 1.9.63.26 1.26-.18 1.78-.49.86-.64 1.55-1.46 2.27-2.24 1.44-1.66 2.43-3.67 3.18-5.72.34-.96.54-1.97.74-2.97" class="run_slope_flower1_1"/><path id="path5" d="M-5.55 61.28c-2.75.8-5.63 1.12-8.48.85-1.28-.07-2.58-.18-3.81-.61-.57-.2-1.35-.3-1.55-.98-.08-.66.54-1.14 1.04-1.47 1.25-.82 2.71-1.27 4.15-1.63 1.84-.41 3.74-.53 5.62-.55.95.01 1.89.09 2.84.17" class="run_slope_flower1_1"/></g><circle id="circle5" cx=".019" cy="58.234" r="8.525" style="fill:#fadede"/><g id="g12" class="run_slope_flower1_1"><path id="path6" d="M4.94 61.06c2.1.94 4.19 2.01 5.99 3.45 1.34 1.08 2.55 2.32 3.31 3.87.3.6.42 1.46-.18 1.92-.57.45-1.35.34-2.03.19-2.02-.47-3.76-1.64-5.36-2.86a26.7 26.7 0 0 1-3.37-3.05c-.22-.23-.45-.45-.68-.67" class="run_slope_flower1_1"/><path id="path7" d="M-2.97 52.81c-.6-2.03-1.21-4.08-1.4-6.2-.07-1.56-.14-3.12-.01-4.67.1-.75.15-1.62.74-2.16.49-.43 1.2-.06 1.52.39 1.05 1.16 1.53 2.68 2.05 4.12.53 1.61 1.01 3.24 1.24 4.91.07.45.15.9.22 1.35" class="run_slope_flower1_1"/><path id="path8" d="M.66 52.49c.63-1.98 1.31-3.95 2.31-5.77.78-1.3 1.43-2.77 2.71-3.67.69-.49 1.75-.85 2.47-.21.51.46.49 1.21.52 1.84-.07 2.34-1.07 4.52-2.15 6.55-.62 1.18-1.4 2.31-2.52 3.07" class="run_slope_flower1_1"/><path id="path9" d="M5.63 57.86c3.09-.64 6.29-.93 9.43-.54 1.29.19 2.6.44 3.8.96.63.27 1.21.96.76 1.65-.33.57-1.02.75-1.56 1.07-1.01.47-2.13.67-3.2.96-1.65.41-3.35.58-5.04.52-1.52-.01-3.04-.08-4.51-.46" class="run_slope_flower1_1"/><path id="path10" d="M1.58 64.33c.19 2.18.46 4.37.28 6.56-.04 1.61-.23 3.25-.85 4.76-.33.68-.73 1.52-1.55 1.66-.76.1-1.3-.57-1.58-1.2-.62-1.46-.72-3.08-.88-4.64-.16-1.61.02-3.24.21-4.84.14-.82.31-1.64.5-2.46" class="run_slope_flower1_1"/><path id="path11" d="M-6.68 60.22c-1.43.36-2.84.82-4.14 1.52-1.78.84-3.4 2.01-4.78 3.41-.58.62-1.05 1.47-.94 2.35.18.64.87.93 1.49.93 1.72.19 3.44-.29 5.03-.9 2.08-.84 3.89-2.18 5.55-3.66" class="run_slope_flower1_1"/><path id="path12" d="M-6.7 58.53a19.14 19.14 0 0 1-7.56-2.74c-1.43-.89-2.72-1.98-4.03-3.04-.54-.44-.97-1.3-.6-1.93.31-.52 1.06-.48 1.6-.52 1.9-.1 3.77.42 5.6.89 1.7.43 3.33 1.17 4.82 2.09.58.37 1.12.81 1.67 1.22" class="run_slope_flower1_1"/></g><ellipse id="ellipse12" cx="35.205" cy="47.582" rx="6.166" ry="5.418" style="fill:#fafafa;stroke-miterlimit:6.25" transform="matrix(.80916 .5876 -.60034 .79974 0 0)"/><path id="path13" d="M5.43 61.1c-.42 1.12-1.02 2.24-2.08 2.88-1.13.8-2.61.83-3.94.63-1.42-.24-2.88-.69-3.94-1.71-1.35-1.24-1.8-3.17-1.62-4.93.13-1.45.9-2.79 1.94-3.77.86-.77 2.04-1.28 3.21-1.11.4.07.77.26 1.1.49" style="fill:none;stroke:#000;stroke-width:1.1"/></g></g><g id="run_slope_flower2"><g id="g27" transform="translate(-656.521 -62.672)"><g id="g18" class="run_slope_flower2_1"><path id="path14" d="M649.99 58.82c-1.05-1.38-2.14-2.9-2.79-4.53-.9-2.15-1.74-4.42-1.75-6.78.03-.71.08-1.6.85-1.87.92-.22 1.69.43 2.32.99 1.16 1.02 2.08 2.26 2.94 3.53.74.92 1.24 2.09 1.82 3.1.79 1.36 1.31 2.61 1.71 3.94" class="run_slope_flower2_1"/><path id="path15" d="M660.06 58.16c2.4-2.12 4.95-4.15 7.94-5.37 1.1-.46 2.25-.87 3.45-.91.68-.03 1.41.41 1.44 1.15.01 1.15-.68 2.19-1.53 2.92-2.03 2.02-4.31 3.83-6.95 4.99-.86.39-1.73.76-2.61 1.13" class="run_slope_flower2_1"/><path id="path16" d="M659.25 65.98c1.21.9 2.26 1.99 3.09 3.25.77 1.14 1.6 2.27 2.06 3.59.59 1.46.99 3 1.11 4.56.05.61-.14 1.47-.89 1.48-.73.02-1.34-.47-1.95-.8-1.4-.97-2.5-2.32-3.36-3.77-1.19-2-1.95-4.2-2.66-6.41" class="run_slope_flower2_1"/><path id="path17" d="M652.74 65.88c-1.31 1.36-2.56 2.78-3.49 4.43-1.13 1.89-2.01 4-2.08 6.23.03.66-.02 1.5.63 1.9.63.26 1.26-.19 1.79-.5.85-.63 1.54-1.46 2.26-2.23 1.44-1.67 2.43-3.67 3.18-5.73.34-.96.54-1.96.74-2.96" class="run_slope_flower2_1"/><path id="path18" d="M651.15 64.94c-2.74.8-5.63 1.12-8.47.85-1.29-.07-2.59-.19-3.82-.61-.57-.2-1.35-.3-1.55-.98-.08-.67.54-1.15 1.04-1.48 1.26-.81 2.71-1.26 4.16-1.63 1.83-.41 3.73-.52 5.61-.54.95.01 1.9.09 2.84.17" class="run_slope_flower2_1"/></g><circle id="circle18" cx="656.721" cy="61.89" r="8.525" style="fill:#f7fca8"/><g id="g25" class="run_slope_flower2_1"><path id="path19" d="M661.64 64.71c2.1.94 4.19 2.01 5.99 3.46 1.34 1.07 2.55 2.31 3.32 3.86.3.61.41 1.47-.18 1.93-.58.45-1.36.34-2.04.18-2.02-.47-3.76-1.63-5.36-2.85a26.7 26.7 0 0 1-3.37-3.05c-.22-.24-.45-.45-.68-.68" class="run_slope_flower2_1"/><path id="path20" d="M653.73 56.47c-.59-2.03-1.2-4.08-1.4-6.2-.07-1.56-.14-3.12 0-4.68.09-.74.14-1.61.73-2.15.49-.43 1.2-.06 1.52.39 1.05 1.16 1.53 2.68 2.05 4.12.54 1.6 1.01 3.23 1.24 4.91.07.45.16.9.23 1.35" class="run_slope_flower2_1"/><path id="path21" d="M657.36 56.14c.63-1.97 1.31-3.95 2.31-5.77.78-1.3 1.43-2.76 2.71-3.66.7-.49 1.76-.86 2.48-.22.5.46.48 1.22.51 1.85-.07 2.33-1.07 4.52-2.15 6.54-.62 1.18-1.4 2.32-2.52 3.08" class="run_slope_flower2_1"/><path id="path22" d="M662.34 61.52c3.08-.64 6.28-.93 9.42-.54 1.29.19 2.6.43 3.8.96.63.27 1.22.96.76 1.64-.33.58-1.02.76-1.56 1.07-1.01.48-2.12.67-3.2.97-1.64.41-3.34.57-5.04.52-1.52-.01-3.04-.09-4.51-.46" class="run_slope_flower2_1"/><path id="path23" d="M658.28 67.99c.19 2.18.46 4.37.29 6.56-.05 1.61-.24 3.25-.86 4.75-.33.68-.73 1.52-1.55 1.67-.76.1-1.3-.58-1.57-1.2-.63-1.46-.73-3.08-.88-4.65-.17-1.61.01-3.23.2-4.83.14-.83.32-1.64.5-2.46" class="run_slope_flower2_1"/><path id="path24" d="M650.02 63.88c-1.43.36-2.84.82-4.14 1.51-1.78.85-3.4 2.02-4.78 3.41-.58.63-1.05 1.48-.94 2.35.19.64.87.94 1.49.93 1.72.2 3.44-.28 5.03-.9 2.08-.83 3.89-2.18 5.55-3.65" class="run_slope_flower2_1"/><path id="path25" d="M650 62.18c-2.67-.37-5.27-1.29-7.56-2.73-1.43-.9-2.72-1.98-4.02-3.04-.55-.44-.98-1.3-.6-1.94.3-.51 1.05-.48 1.6-.51 1.9-.11 3.76.42 5.59.89 1.7.43 3.33 1.16 4.82 2.09.58.37 1.12.8 1.67 1.22" class="run_slope_flower2_1"/></g><path id="path26" d="M568.83-335.38c0 2.99-3.31 6.06-6.72 6.06-3.4 0-5.62-3.07-5.62-6.06 0-2.99 2.76-5.42 6.17-5.42 3.4 0 6.17 2.43 6.17 5.42Z" style="fill:#ff8080;stroke-miterlimit:6.25" transform="matrix(.80916 .5876 -.60034 .79974 0 0)"/><path id="path27" d="M662.13 64.76c-.42 1.12-1.02 2.24-2.08 2.87-1.13.8-2.61.83-3.94.64-1.42-.24-2.88-.69-3.94-1.72-1.34-1.23-1.8-3.16-1.62-4.93.13-1.44.9-2.78 1.94-3.77.86-.76 2.04-1.27 3.21-1.1.4.07.77.26 1.1.49" style="fill:none;stroke:#000;stroke-width:1.1"/></g></g><g id="run_slope_flower3"><g id="g29" transform="translate(-16.817 19.444)"><path id="path28" d="M24.13-21.5c.87-.08 1.74-.28 2.49-.75.98-.53 1.82-1.33 2.34-2.33.4-.64.7-1.38.61-2.15-.09-1.24-1.21-2.18-2.39-2.38a5.65 5.65 0 0 0-3.42.38c-.91.33-1.72.86-2.42 1.52-.49.43-.8.81-1.07 1.18-.11.16-.34.6-.39.79l.16-1.75c.29-.54.59-1.08.81-1.65.34-.89.48-1.87.42-2.82-.07-.99-.65-1.84-1.18-2.65-.45-.69-1.24-.98-1.99-1.21-1.12-.35-2.34-.06-3.3.59-1.18.8-2.11 1.97-2.54 3.34-.31.99-.28 2.21-.15 3.22l-.06.67c-.92-.52-1.82-1.07-2.76-1.55-1.63-.62-3.5-.08-4.85.92-.98.72-1.9 1.77-1.89 3.05-.06.81.34 1.57.93 2.1.9.91 2.07 1.53 3.32 1.79.88.18 1.98.37 2.62.35.29 0 .84.05 1.13.01l-1.17.35c-1.1.06-2.23.17-3.22.7-1.33.65-2.5 1.68-3.2 2.98-.59 1.1-.52 2.53.19 3.6.51.78 1.27 1.38 2.18 1.58 1 .22 2.32.21 3.06-.03 1.01-.33 2.03-.95 2.77-1.76.21-.28.34-.62.47-.95l1.75-.92c-.51.94-.96 1.92-1.11 2.99-.19 1.12-.08 2.46.28 3.37.32.82 1.01 1.45 1.69 2 1.13.76 2.76.87 3.88.02 1.09-.77 1.53-2.14 1.69-3.45.1-.8-.05-1.87-.14-2.67-.05-.4-.23-.77-.36-1.15l.29-.7c.55.68 1.14 1.41 2.02 1.69 1.22.48 2.55.8 3.88.63.93-.11 1.87-.36 2.68-.84.78-.55 1.41-1.43 1.44-2.4-.07-1.18-.68-2.32-1.64-3.01-.94-.73-2.07-1.17-3.24-1.32-.3-.05-.59-.1-.89-.14Z" style="fill:#f2f080"/><ellipse id="ellipse28" cx="7.155" cy="-25.635" rx="4.822" ry="4.058" style="fill:#ff7b36;stroke-miterlimit:8.5" transform="rotate(23.772)"/><path id="path29" d="M12.11-28.17c-.13-1.01-.2-2.23.15-3.22.49-1.35 1.36-2.54 2.54-3.34.96-.65 2.13-.89 3.3-.59.76.2 1.76.74 2.22 1.43.53.82.88 1.44.95 2.43.06.95-.1 1.92-.42 2.82-.23.57-.52 1.11-.81 1.65m4.09 5.49c.87-.08 1.72-.31 2.49-.75.97-.56 1.87-1.26 2.43-2.24.37-.66.59-1.46.52-2.24-.11-1.24-1.22-2.17-2.39-2.38-1.15-.22-2.34-.07-3.42.38-.89.37-1.72.86-2.42 1.52-.49.43-.8.81-1.07 1.18-.11.16-.34.6-.39.79m-.28 10.37c.55.68 1.18 1.3 2.02 1.69 1.06.49 2.55.79 3.88.63.93-.12 1.89-.33 2.68-.84.8-.52 1.46-1.43 1.44-2.4-.02-1.18-.7-2.3-1.64-3.01a6.895 6.895 0 0 0-3.24-1.32c-.3-.05-.59-.1-.89-.14m-10-3.4c-.5.27-.84.78-1.14 1.28-.77 1.31-.65 2.62-.02 3.79.45.83 1.15 1.56 2.05 1.98.63.3 1.77.65 2.69.53.7-.09 1.61-.43 1.99-.67.78-.48 1.44-1.12 1.85-1.89.42-.8.4-1.85.16-2.72-.05-.22-.12-.43-.18-.65m-7.78 6.57c-.5.94-1.04 2.09-1.2 3.15-.17 1.12-.08 2.46.28 3.37.32.82.94 1.49 1.69 2 1.13.77 2.74.85 3.88.02 1.08-.79 1.53-2.14 1.69-3.45.1-.8-.05-1.87-.14-2.67-.05-.4-.23-.77-.36-1.15m-9.93-6.31c-1.1.06-2.22.19-3.22.7-1.32.67-2.54 1.63-3.2 2.98-.55 1.12-.55 2.56.19 3.6a3.32 3.32 0 0 0 2.18 1.58c1 .23 2.09.31 3.1-.03 1.1-.38 2.01-.93 2.73-1.76.23-.27.81-.96.94-1.28m-.05-12.81c-.92-.52-1.79-1.14-2.76-1.55-1.61-.69-3.54-.12-4.9.88-.97.71-1.81 1.81-1.84 3.09-.02.81.36 1.55.93 2.1.92.89 2.07 1.53 3.32 1.79.88.18 1.99.37 2.62.35.29 0 .84.05 1.13.01" style="fill:none;stroke:#000;stroke-width:1.1"/></g></g><g id="run_slope_flower4"><g id="g34" transform="translate(-743.589 -180.341)"><path id="path30" d="M729.07 177.92c-.43.75-1.1 1.32-1.84 1.77-.19.11-.41.12-.61.19l1.29 1c.87-.35 1.75.16 2.32.81 1.18 1.32 2.81 2.43 4.63 2.65-1.06.75-2.3 1.72-2.33 3.15.08 1.67 1.23 3.05 2.37 4.17.67.57 1.14 1.69.41 2.39-.21.37-.28.79-.39 1.19l1.53-.48c.17-.23.24-.51.41-.74.36-.49 1.06-.54 1.64-.52 1.16.06 2.35.17 3.48-.14 1.01-.28 2-.81 2.61-1.68.4-.57.52-1.3.62-1.99.57.75 1.26 1.49 2.21 1.71.71.17 1.44-.06 2.07-.36.86-.4 1.74-.89 2.71-.83.71.06 1.29.54 1.8 1 .26.22.58.3.88.43l.1-1.65c.03-.11-.16-.27-.3-.33-.43-.36-.68-.91-.75-1.46-.04-.68.41-1.25.66-1.85.33-.7.65-1.43.65-2.22.01-.62-.11-1.26-.39-1.82-.47-.67-1.22-.99-1.93-1.34 1.01-.14 1.96-.42 2.73-.75.67-.29 1.1-1.04 1.38-1.52.14-.25.2-.5.28-.7v-.03c.22-.87.14-1.73.02-2.54v-.02c-.17-.82-.47-1.55-.6-2.29-.07-.57.04-.89.37-1.35.36-.14.7-.35 1.01-.69l.4-.45-1.56-.33c-.26.16-.63.38-.97.57-.74.13-1.4-.32-2.01-.67-.97-.6-2.03-1.13-3.19-1.24-.84-.09-1.73-.04-2.49.39-.33.19-.61.47-.88.74-.05-.7-.3-1.37-.7-1.95-.48-.69-1.14-1.37-1.99-1.64-.9-.28-1.9-.29-2.69-.85-.48-.35-.78-.89-1.05-1.41-.13-.32-.19-.55-.31-.82-.28.54-.53.94-.89 1.47-.01.26.15.81-.55 1.56-.73.79-1.61 1.45-2.15 2.39-.54.93-.68 2.05-.46 3.09.09.6.32 1.16.67 1.66-2.05-.76-3.41-.85-4.9.3-1.07.84-2.19 2.19-3.32 4.03Z" style="color:#000;fill-opacity:.889952;stroke-miterlimit:6.25"/><path id="path31" d="M743.89 187.48c.06.97.01 2.73-.46 3.59-.23.42-.66.67-1.11.84-1.15.45-2.41.31-3.61.25-.6-.02-1.22.05-1.76.32-.11-.67-.5-1.25-.97-1.72-.58-.62-1.21-1.2-1.61-1.96-.29-.56-.62-1.23-.37-1.86.5-1.1 1.64-1.65 2.59-2.3.41-.29.86-.55 1.28-.81l-.81-1.09c-.84.62-1.75.6-2.71.32-1.16-.36-2.12-1.14-2.94-2.02-.54-.6-1.21-1.19-2.05-1.29.89-.89 1.42-2.05 2.09-3.11.55-.87 1.17-1.79 2.17-2.15a3.88 3.88 0 0 1 1.85-.16c2.13.32 2.78 1.09 2.86 1.02l.45-1.72c-.36-.56-.71-1.13-.95-1.76-.1-.24-.19-.44-.18-.71.02-.98.59-1.85 1.26-2.52.63-.61 1.36-1.15 1.75-1.96.06-.12.13-.25.16-.39.28.33.6.67 1 .81.91.31 2.06.44 2.91.89.49.26.84.75 1.11 1.24.22.49.39 1 .41 1.55.03 1.01-.38 1.9-.74 2.83l1.43.1c.35-.96.73-1.92 1.43-2.68.23-.27.48-.52.81-.66.22-.18.5-.22.78-.21.97-.02 1.91.36 2.74.85.86.49 1.71 1.12 2.75 1.13-.17.55-.18 1.14-.01 1.69.2.85.57 1.68.59 2.57.05.69.06 1.45-.39 2.02-.28.37-.64.78-1.12.91-1.02.38-2.11.53-3.2.45l-.56 1.63c.96.42 1.94.83 2.8 1.44.24.19.44.46.43.77.07.83-.31 1.6-.69 2.31-.37.66-.69 1.4-.6 2.17.03.29.1.58.19.86-.83-.24-1.72-.15-2.51.16-.73.24-1.39.68-2.13.89-.46.13-.93-.05-1.29-.34-.51-.4-.92-.92-1.27-1.47-.25-.41-.46-.85-.68-1.28l-1.12.56Z" style="color:#000;fill:#fdf4db;stroke-miterlimit:6.25"/><path id="path32" d="m737.56 182.93-.59-3.17 1.19-3.09 2.53-2.22 2.72-.67 3.02 1.12 2.2 3.07.82 2.49-.1 3.4-2.84 2.66-4.24.06Z" style="fill:#ac9d93;stroke-opacity:.889952"/><path id="path33" d="m734.44 180.27-.02.19c-.01-.04-.03-.02-.04-.08 0-.03.03-.07.04-.11h.02Z" style="color:#000;fill-opacity:.889952;stroke-miterlimit:6.25"/><path id="path34" d="M749.03 177.54c.76 1.39 1.42 3.16 1.34 4.54-.08 1.27-.45 2.58-1.25 3.56-.81.99-1.99 1.76-3.27 1.94-2.08.29-4.21-.29-5.95-1.44-1.01-.66-1.89-1.46-2.59-2.44-.83-1.15-1.19-2.69-1-4.14.25-1.93 1.33-3.57 2.82-4.8.79-.65 1.83-1.11 2.66-1.43.88-.34 1.8-.5 2.74-.45l-.54 1.17c-1.49.06-3.18.67-4.13 1.54-.98.91-1.9 2-2.2 3.36-.28 1.25-.19 2.64.57 3.71.93 1.34 2.25 2.4 3.73 3.06 1.49.67 3.29 1.02 4.83.3 1.02-.47 1.78-1.3 2.06-2.43.45-1.83-.02-3.69-.83-5.32"/></g></g><g id="run_slope_flower5"><g id="g47" transform="translate(-659.372 -235.765)"><path id="path35" d="M652.98 232.04c-1.05-1.39-2.14-2.9-2.79-4.53-.9-2.16-1.75-4.42-1.75-6.79.03-.71.07-1.6.84-1.86.92-.23 1.7.42 2.33.99 1.16 1.01 2.08 2.25 2.93 3.52.74.92 1.25 2.09 1.83 3.11.79 1.36 1.31 2.6 1.71 3.93" class="run_slope_flower5_1"/><path id="path36" d="M663.05 231.37c2.4-2.11 4.95-4.15 7.94-5.37 1.09-.45 2.25-.87 3.45-.91.68-.02 1.41.42 1.43 1.16.01 1.15-.67 2.19-1.53 2.91-2.02 2.02-4.31 3.84-6.94 4.99-.86.4-1.74.77-2.61 1.13" class="run_slope_flower5_1"/><path id="path37" d="M663.9 238.52c1.49.2 2.75.5 3.9 1.09 1.23.63 2.14 1.13 3.2 2.04 1.2 1.01 1.87 1.88 2.74 3.18.34.51.85 1.76.17 2.39-.4.37-1.76.23-2.44.1-1.22-.24-2.24-.92-3.69-1.79-1.63-.97-3.4-2.72-5.1-4.3" style="fill:#fff;opacity:1;stroke:#1a1a1a;stroke-width:1.2"/><path id="path38" d="M657.75 239.79c-1.22 1.43-2.38 2.93-3.22 4.63-1.01 1.95-1.76 4.12-1.7 6.34.07.66.08 1.51.74 1.86.64.22 1.25-.26 1.76-.6.82-.68 1.45-1.55 2.13-2.37 1.33-1.74 2.2-3.81 2.82-5.9.29-.98.43-1.99.57-3" class="run_slope_flower5_1"/><path id="path39" d="M654.8 238.86c-2.66 1.04-5.51 1.61-8.37 1.59-1.29.05-2.59.05-3.85-.26-.59-.15-1.37-.18-1.63-.84-.14-.66.44-1.19.9-1.57 1.18-.92 2.59-1.49 4-1.99 1.8-.57 3.67-.85 5.54-1.03.95-.08 1.9-.08 2.85-.09" class="run_slope_flower5_1"/><circle id="circle39" cx="659.582" cy="235.104" r="8.525" style="fill:#fff"/><g id="g42" class="run_slope_flower5_1"><path id="path40" d="M656.72 229.68c-.6-2.03-1.21-4.08-1.4-6.2-.07-1.55-.14-3.12-.01-4.67.1-.75.15-1.62.74-2.16.49-.42 1.2-.06 1.52.39 1.05 1.16 1.53 2.68 2.05 4.13.53 1.6 1.01 3.23 1.24 4.9.07.45.15.9.22 1.35" class="run_slope_flower5_1"/><path id="path41" d="M660.35 229.36c.63-1.98 1.3-3.95 2.31-5.77.78-1.3 1.43-2.77 2.71-3.66.69-.5 1.75-.86 2.47-.22.51.46.49 1.21.52 1.84-.07 2.34-1.07 4.52-2.15 6.55-.62 1.18-1.4 2.31-2.52 3.07" class="run_slope_flower5_1"/><path id="path42" d="M665.32 234.61c3.09-.64 6.29-.94 9.43-.54 1.29.19 2.6.43 3.8.95.63.27 1.21.97.76 1.65-.33.58-1.02.75-1.56 1.07-1.01.48-2.13.67-3.2.97-1.65.41-3.35.57-5.04.51-1.52 0-3.04-.08-4.51-.45" class="run_slope_flower5_1"/></g><path id="path43" d="M663.26 240.94c.9 2 1.94 3.83 2.54 5.94.44 1.56.99 3.04.87 4.66-.06.75-.07 1.67-.8 2.06-.68.36-1.58-.24-2.04-.74-1.08-1.18-1.74-2.56-2.41-3.99-.68-1.47-1.09-2.9-1.41-4.48-.17-.82-.45-1.56-.55-2.39" style="fill:#fff;opacity:1;stroke:#1a1a1a;stroke-width:1.2"/><path id="path44" d="M654.02 238.93c-1.36.55-2.69 1.2-3.89 2.06a17.052 17.052 0 0 0-4.27 4.03c-.49.7-.84 1.61-.61 2.46.27.61.99.8 1.6.72 1.73-.04 3.37-.75 4.86-1.58 1.94-1.11 4.1-3.05 5.23-4.56" class="run_slope_flower5_1"/><path id="path45" d="M652.99 235.4a19.14 19.14 0 0 1-7.56-2.74c-1.43-.89-2.72-1.97-4.03-3.04-.54-.44-.98-1.3-.6-1.93.31-.52 1.06-.48 1.6-.51 1.9-.11 3.77.41 5.59.88 1.71.43 3.34 1.17 4.82 2.09.59.37 1.13.81 1.68 1.22" class="run_slope_flower5_1"/><path id="path46" d="M664.6 239.23c-1.8 2.4-6.31 2.9-9.07.9-2.75-2-2.7-5.75-.91-8.14 1.8-2.4 5.49-2.71 8.24-.71 2.76 2 3.54 5.56 1.74 7.95Z" style="fill:#d38d5f;stroke-miterlimit:6.25"/><path id="path47" d="M664.99 237.97c-.42 1.12-1.02 2.24-2.08 2.88-1.13.8-2.61.83-3.94.64-1.42-.25-2.88-.7-3.94-1.72-1.34-1.24-1.8-3.17-1.62-4.93.13-1.45.9-2.79 1.94-3.77.86-.77 2.05-1.28 3.21-1.1.4.06.77.25 1.1.48" style="fill:none;stroke:#000;stroke-width:1.1"/></g></g><g id="run_slope_flower6"><g id="g60" class="run_slope_flower6_1"><path id="path48" d="M-2.63 8.41c-.15 1.63-.08 3.37.26 5.13.19.94.46 1.98.88 2.84.34.7 1.09 1.43 1.89 1.2.58-.15 1.01-.63 1.22-1.17.34-.74.58-1.53.89-2.28.39-1.04.51-4.6.57-5.71" class="run_slope_flower6_1"/><path id="path49" d="M-5.94 5.53c-1.09 1.1-2.31 2.54-3.19 3.99-.54.88-1.48 2.9-1.66 4.35-.07.6.09 1.25.78 1.52.75.28 1.86-.2 2.42-.61 1.21-.89 4.35-3.11 5.51-4.51" class="run_slope_flower6_1"/><path id="path50" d="M2.19-4.82a32.72 32.72 0 0 1 3.13-4.69c1.63-2.02 3.39-3.61 5.38-4.8.47-.28 1.04-.46 1.59-.4.59.26.86 1.01.62 1.61-.15.93-.46 1.83-.92 2.65-.71 1.52-1.51 3.01-2.57 4.33-.88 1.04-1.78 2.07-2.76 3.02-.52.46-.98.86-1.54 1.25" class="run_slope_flower6_1"/><path id="path51" d="M.33-7.09c.7-2.3 1.54-4.58 2.79-6.66.75-1.26 1.58-2.69 3.05-3.21.68-.28 1.58-.13 1.92.58.35.89.26 1.89.12 2.83-.43 2.28-1.5 4.4-2.71 6.36-.48.75-1.1 1.4-1.83 1.92" class="run_slope_flower6_1"/><path id="path52" d="M-4.8-5.33c-.78-1.56-1.57-3.25-1.9-4.96-.49-2.29-.91-4.67-.47-7 .16-.69.36-1.56 1.17-1.67.94-.06 1.58.73 2.11 1.4.95 1.21 1.62 2.6 2.23 4 .55 1.04.83 2.28 1.22 3.39.52 1.48.81 2.8.96 4.18" class="run_slope_flower6_1"/><path id="path53" d="M-2.57-6.67c.02-2.12.02-4.26.45-6.34.38-1.51.76-3.03 1.34-4.48.3-.69.6-1.51 1.33-1.85.58-.27 1.16.28 1.34.81.67 1.41.79 3 .85 4.54.07 1.68.08 3.38-.17 5.05-.07.45-.24 1.59-.54 2.31" class="run_slope_flower6_1"/><path id="path54" d="M4.03-2.27c1.46-.94 3.06-1.9 4.74-2.42 2.22-.72 4.54-1.38 6.9-1.19.7.08 1.59.2 1.79.98.15.94-.56 1.66-1.17 2.25-1.11 1.07-2.42 1.88-3.75 2.63-.98.67-2.18 1.07-3.25 1.58-1.41.67-2.7 1.09-4.06 1.38" class="run_slope_flower6_1"/><path id="path55" d="M5.48-.82c1.72.32 3.54.7 5.11 1.47 2.12.99 4.28 2.09 5.87 3.84.46.54 1.03 1.23.63 1.94-.52.79-1.54.83-2.38.84-1.54.03-3.06-.27-4.54-.63C9 6.46 7.84 5.93 6.72 5.58 5.23 5.1 4 4.53 2.81 3.82" class="run_slope_flower6_1"/><path id="path56" d="M6.36 6.05c1.21.97 2.4 2.1 3.1 3.31.78 1.36 1.48 2.26 2.08 3.91.2.57.13 1.47-.61 1.59-.71.15-1.45-.12-2.06-.46-1.3-.75-2.61-1.93-3.92-3.19" class="run_slope_flower6_1"/><path id="path57" d="M-5.38 2.17c-1.72.23-3.57.43-5.31.2-2.32-.28-4.66-.52-6.73-1.68-.6-.37-1.36-.9-1.18-1.69.23-1.05 1.13-1.4 1.94-1.68 1.45-.51 2.98-.65 4.51-.77 1.16-.2 2.42-.06 3.6-.07 1.57-.02 2.91.14 4.27.45" class="run_slope_flower6_1"/><path id="path58" d="M-1.56 3.92c-1.2 1.45-2.11 3.08-3 4.75-.96 1.78-1.8 4.22-1.75 6.15.02.66.06 1.67.76 1.96.63.26 1.31-.21 1.79-.59.83-.67 1.47-1.61 2.1-2.45 1.33-1.76 2.21-3.62 2.79-5.73.27-.99.29-2.18.42-3.19" class="run_slope_flower6_1"/><path id="path59" d="M3.86-4.56c2.4-2.11 4.96-4.14 7.94-5.37 1.1-.45 2.25-.87 3.45-.9.68-.03 1.41.41 1.44 1.15.01 1.15-.68 2.19-1.53 2.92-2.03 2.02-4.31 3.83-6.95 4.99-.86.39-1.73.76-2.61 1.13" class="run_slope_flower6_1"/><path id="path60" d="M6.14-1.19c1.84-.4 3.7-.63 5.59-.7 2.6-.1 4.95.18 7.16.91.51.17 1.02.49 1.34.94.19.61-.21 1.31-.81 1.52-.81.5-1.68.85-2.61 1.05-1.61.46-3.27.83-4.95.89-1.37.02-2.74.01-4.1-.11-.68-.09-1.28-.18-1.95-.34" class="run_slope_flower6_1"/></g><path id="path61" d="M-7.4-2.99c.51-1.45 1.64-2.71 2.92-3.55C-3.04-7.49-.8-7.5.59-7.07c.78.24 2.16.65 3.28 1.47 1.2.88 1.74 1.54 2.29 2.91.3.77.53 2.25.46 3.33-.08 1.22-.31 2.86-.96 3.9-.51.8-1.53 1.94-2.52 2.38-1.31.59-2.63.71-4.06.56-1.41-.15-2.37-.73-3.49-1.59-1.27-.96-2.52-2.01-2.92-3.55-.45-1.72-.66-3.65-.07-5.33Z" style="fill:#fff"/><g id="g67" class="run_slope_flower6_1"><path id="path62" d="M-6.4-3.28c-1.34-1.12-2.73-2.35-3.73-3.79-1.36-1.9-2.69-3.92-3.22-6.23-.13-.69-.29-1.57.4-2 .85-.43 1.75.04 2.49.44 1.35.73 2.53 1.74 3.65 2.78.92.73 1.67 1.76 2.47 2.62a18.34 18.34 0 0 1 2.55 3.45" class="run_slope_flower6_1"/><path id="path63" d="M-6.17-.41c-2.67.35-4.34 1.2-6.47 2.08-1.56.65-2.85 1.69-4.19 2.72-.52.45-.91 1.24-.62 1.93.38.46 1.06.44 1.6.52 1.9.08 3.76-.39 5.6-.82 1.7-.44 3.33-1.15 4.84-2.04.58-.38 1.13-.79 1.69-1.2" class="run_slope_flower6_1"/><path id="path64" d="M-6.17-.72c-2.65-.32-5.25-1.14-7.52-2.54-1.5-.85-2.8-1.99-4.17-3.02-.53-.45-.92-1.24-.63-1.93.37-.47 1.05-.45 1.59-.54 1.9-.09 3.76.37 5.61.79 1.7.42 3.33 1.12 4.85 2 .58.38 1.14.79 1.7 1.19" class="run_slope_flower6_1"/><path id="path65" d="M-4.82 2.64c-1.37.55-2.69 1.21-3.88 2.08a17.087 17.087 0 0 0-4.25 4.06c-.48.7-.83 1.61-.59 2.46.27.61.99.8 1.6.71 1.74-.05 3.37-.77 4.86-1.61 1.93-1.12 3.54-2.71 4.97-4.41" class="run_slope_flower6_1"/><path id="path66" d="M5.44 2.09c2.1.94 4.2 2.01 5.99 3.46 1.34 1.07 2.55 2.31 3.32 3.86.3.6.42 1.47-.18 1.93-.58.45-1.36.34-2.04.18-2.01-.47-3.75-1.63-5.36-2.85-1.1-.83-2.29-1.89-3.37-3.06-.21-.23-.45-.44-.67-.67" class="run_slope_flower6_1"/><path id="path67" d="M4.08 5.15c1.21 1.96 2 3.87 2.67 6.08.5 1.64 1 3.48.77 5.19-.1.67-.46 1.47-1.22 1.52-.73.04-1.36-.65-1.83-1.16-1.4-1.52-2.13-3.31-2.78-5.22-.43-1.3-.82-2.85-1.06-4.42-.05-.31-.12-.62-.18-.94" class="run_slope_flower6_1"/></g><g id="g69" transform="translate(-889.402 -203.884)"><path id="path68" d="M839.94-357.98c0 2.99-3.2 5.98-6.61 5.98-3.4 0-5.72-2.99-5.72-5.98s2.76-5.42 6.17-5.42c3.4 0 6.16 2.43 6.16 5.42Z" style="fill:#d38d5f;stroke-miterlimit:6.25" transform="matrix(.80916 .5876 -.60034 .79974 0 0)"/><path id="path69" d="M895.08 206c-.42 1.11-1.03 2.23-2.08 2.87-1.14.8-2.62.83-3.94.64-1.43-.25-2.88-.7-3.95-1.72-1.34-1.24-1.8-3.16-1.62-4.93.13-1.45.9-2.79 1.95-3.77.85-.77 2.04-1.27 3.2-1.1.41.06.77.26 1.11.48" style="fill:none;stroke:#000;stroke-width:1.1"/></g></g><g id="run_slope_flower7"><path id="path70" d="m.64 14.86-4.44-2.7-1.59-5.07-4 .16-5.42-1.75 1.46-5.49 3.8-3.04 1.3-.29-1.68-5.96.86-3.97 4.63-.06 3.21 1.49 2.28 1.71 2.92-2.06 3.9-.6 4.22.66.29 3.56-.8 3.71-1.42 1.9 1.9 1.4 2.13 3.36-.64 2.89-2.98 1.74-3.4.95-1.11-.41-.31 2.03-1.59 3.17Z" style="fill:#b6fabd"/><path id="path71" d="M-15.31 6.31s-.25-.97-.25-1.46c-.01-.84.1-1.69.32-2.51.21-.81.51-1.63.95-2.34.55-.9 1.29-1.64 2.11-2.31.65-.53 1.4-.94 2.18-1.25.45-.17 1.21-.41 2.37-.55.6-.06 1.66-.03 1.66-.03l-1.07 1.12s-.71.12-1.05.22c-.49.15-.99.32-1.46.54-.57.27-1.13.56-1.63.94-.58.45-1.1.97-1.53 1.55-.35.49-.64 1.04-.84 1.6-.27.75-.44 1.54-.49 2.34-.05.63.13 1.88.13 1.88"/><path id="path72" d="M12.42-12.85c-1.18-.29-2.39-.54-3.61-.61-2.22-.23-4.76.37-6.41 1.52-.88.62-1.62 1.37-2.15 2.3-.22.37-.73.97-.52 1.55.05.13.29.1.43.07.34-.06.87-.57.87-.57l.83-1.11c.56-.61 1.17-1.21 1.93-1.59 1.29-.72 2.82-.85 4.27-.83.91.04 1.82.07 2.69.35.16.04.32.09.48.14"/><path id="path73" d="M12.38-12.87c.18.41.34.83.48 1.25.43 1.12.31 2.33.24 3.5-.07 1.33-.61 2.59-1.29 3.72-.57 1-1.38 1.84-2.21 2.63l-1.43-.25s1.23-1.29 1.75-2c.36-.48.7-.95.94-1.41.29-.54.46-1.2.6-1.79.11-.5.16-1.06.18-1.57.03-.52.01-1.04-.06-1.56-.06-.45-.28-1.35-.28-1.35"/><path id="path74" d="M13.49 2.92c-.12-.18-.02-.38.06-.58-.22-.88-.74-1.69-1.28-2.42-.41-.57-1.11-1.42-1.83-1.96-.63-.47-1.4-.7-2.14-.97-.12-.05-.24-.09-.36-.12-.15-.45-.59-1.06-.46-1.34 1.37-.2 2.73.65 3.84 1.5.87.65 1.57 1.51 2.19 2.4.38.54.63 1.16.96 1.73.29.5.57 1.01.85 1.52"/><path id="path75" d="M13.49 2.92c-.19.51-.56.91-.91 1.31a10.2 10.2 0 0 1-1.84 1.43c-.53.33-1.14.46-1.75.52-.56.07-1.13.08-1.69.02-.22-.01-.44-.02-.66-.02l-.13-.21-.13-.49c-.72.09-.99.51-2.09.43l-.77.44c1.34.76 2.83 1.39 4.4 1.33 1.43-.01 2.9-.29 4.12-1.07.67-.42 1.22-1.01 1.78-1.57.42-.47.81-.98 1.13-1.53.16-.29.07-.62-.01-.92"/><path id="path76" d="M4.82 5.97c.31.94.59 1.96.32 2.95-.19.79-.57 1.53-1.1 2.15-.66.83-1.29 1.73-2.2 2.31-.42.3-.86.57-1.3.85l-.05 1.64c1.24-.58 2.41-1.34 3.36-2.34 1.12-1.17 1.87-2.39 2.4-3.53.46-1.01.43-2.14.44-3.21v-.37"/><path id="path77" d="M-.66-6.75c1.06-.15 2.07-.24 3.47.39 1.32.6 2.18 1.82 2.72 3.09.53 1.45.6 3.07.2 4.56-.28 1.07-1.04 1.91-1.92 2.54C2.18 5.05-.01 5.77-2.01 5.12c-1.37-.47-2.59-1.46-3.26-2.75C-5.91 1-6.15-.67-5.6-2.04c.62-1.51 2.41-4.21 4.94-4.71Z" style="fill:#f9fcd4"/><path id="path78" d="M-1.79-4.82a8.7 8.7 0 0 0-1.97 1.81c-.63.8-1.31 2.1-1.26 3.32.1.77.36 1.53.76 2.2.85 1.23 2.3 2.06 3.81 2.07 1.28.08 2.56-.38 3.59-1.12.65-.53 1.22-1.48 1.2-2.33.04-.94-.12-2.03-.48-2.67-.37-.65-.91-1.14-1.5-1.57l1.36-1.01c.81.81 1.59 1.67 1.82 2.72.29 1.41.38 2.94-.27 4.28C4.35 4.78 1.7 6.03-.6 5.96c-2.56-.08-4.99-1.88-5.67-4.38-.44-1.63.06-3.31.92-4.72.46-.76 1.16-1.42 1.71-1.9.35-.3.72-.49 1.14-.87l1.55-.51Z"/><path id="path79" d="M.53 15.74c-.16-.05-.46-.14-.61-.2a7.57 7.57 0 0 1-2.23-1.22c-.73-.51-1.43-1.09-1.92-1.85-.57-.87-1.2-1.76-1.47-2.78-.24-1.07-.3-2.02-.47-3.1l1.24-.95c.14 1.02.28 2.04.45 3.07.26 1.23.92 2.36 1.75 3.3.66.78 1.51 1.39 2.43 1.82.24.12.61.28.85.39"/><path id="path80" d="M-14.07 5.12c.78.33 1.59.59 2.4.81 1.24.39 2.49.81 3.8.83.73 0 1.47-.04 2.17-.28.46-.16.94-.32 1.36-.59l1.25.64s-.87.55-1.39.78c-.58.25-1.19.52-1.91.65-.36.06-.72.1-1.08.13-.31.01-.62.02-.92 0-.53-.04-1.07-.11-1.59-.23-.56-.12-1.1-.34-1.65-.5-.71-.21-1.45-.37-2.15-.61-.48-.15-1.4-.54-1.4-.54"/><path id="path81" d="M1.68-7.76c-.24-.38-.5-.75-.76-1.12-.69-1.03-1.69-1.82-2.74-2.46-1.45-.82-3.07-1.44-4.75-1.51-.68-.05-1.37.02-2.01.28-.24.91-.42 1.83-.48 2.77-.12 1.2-.01 2.41.3 3.56.23.94.73 1.78 1.29 2.56l-.59 1.41s-.68-.93-1.05-1.48c-.28-.42-.66-1.37-.77-1.68-.24-.69-.43-1.4-.53-2.13-.08-.62-.07-1.26-.06-1.9.01-.47.01-.94.08-1.41.12-.8.59-2.36.59-2.36l-.19-.26c1.2-.66 2.59-1.04 3.96-.82 1.83.23 3.58.91 5.13 1.9 1.02.56 1.88 1.51 2.51 2.37.17.24.31.5.45.76"/></g><g id="run_slope_flower8"><g id="g86" transform="translate(-739.847 -418.8)"><path id="path82" d="M736.46 403.6c-1.36.6-2.7 1.54-3.27 2.96-.26.63-.4 1.3-.4 1.98-.82-.41-1.72-.66-2.64-.61-.92.07-1.82.42-2.52 1-.97.84-1.6 2.15-1.39 3.45.08.47.28.92.51 1.33.25.44.58.81.96 1.13-.81.05-1.61.27-2.3.7-.73.42-1.38 1.03-1.65 1.85-.47 1.07-.35 2.36.24 3.36.46.8 1.19 1.43 2.04 1.78.85.38 1.82.51 2.74.33-.12.13-.22.26-.32.4-.74 1.01-1.03 2.38-.55 3.56.48 1.19 1.66 1.94 2.87 2.21.81.24 1.67.28 2.5.2.95-.1 1.89-.42 2.69-.96.04.25.12.49.24.73.15.39.41.74.68 1.06 1.14 1.24 2.85 1.81 4.5 1.8.46 0 .93-.05 1.38-.15.84-.21 1.68-.64 2.2-1.35.37-.59.51-1.3.46-2 1.45.59 3.16.49 4.54-.22.62-.33 1.23-.72 1.6-1.33.76-1.14 1.11-2.61.72-3.94-.15-.5-.4-.96-.75-1.35-.12-.15-.24-.29-.37-.41l.27-.03c.82-.11 1.62-.36 2.37-.71.98-.5 1.76-1.4 2.03-2.47.34-1.26-.01-2.6-.59-3.74-.44-.91-1.27-1.68-2.31-1.82a5.42 5.42 0 0 0-1.84.09c.67-.79 1.13-1.77 1.09-2.83.01-1.48-.98-2.89-2.29-3.55-1.27-.64-2.78-.81-4.13-.34-.68.24-1.36.6-1.87 1.11-.49.46-.82 1.02-1.09 1.64-.06-.68-.24-1.35-.56-1.95-.61-1.22-1.62-2.32-2.86-2.94-1.09-.54-2.22-.28-2.93.03Z" style="color:#000;fill-opacity:.889952"/><path id="path83" d="M737.86 404.41c.23 0 .46.04.68.14 1.29.56 2.29 1.76 2.79 3.05.35.92.31 1.97-.07 2.87-.02.06-.03.11-.05.16l1.21-.09v.14c0 .1-.06.21-.06.31l1.27-.19c-.02-.7.02-1.42.35-2.05.41-.85 1.12-1.56 2-1.9.41-.24.91-.23 1.37-.24 1.26.05 2.59.63 3.22 1.77.5.87.44 2.01-.1 2.85-.44.71-1.08 1.33-1.85 1.67-.25.16-.57.18-.86.26l-.66 1.22c.29-.04.58-.09.87-.15l1.26.37c.44-.38.95-.68 1.47-.94.63-.21 1.31-.27 1.96-.18.77.1 1.25.81 1.55 1.46.42.95.7 2.08.27 3.07-.33.88-1.19 1.42-2.02 1.74-.6.21-1.24.15-1.87.16-.28-.02-.59-.03-.84-.19l-1.04 1.62c.44.09.91.14 1.28.45.68.51 1.2 1.3 1.2 2.18.02.89-.28 1.79-.84 2.48-.3.37-.62.72-1.1.84-1.22.45-2.67.4-3.78-.31-.16-.12-.31-.26-.41-.43-.12-.21-.27-.36-.39-.53l-1.14.6c.32.68.7 1.37.64 2.15.04.53-.26 1-.58 1.4-.14.24-.51.3-.79.38-1.09.23-2.24.18-3.28-.22-1.01-.37-1.96-1.12-2.27-2.18-.17-.63-.03-1.29.14-1.9.15.03 0-.24.02-.32l-1.23-.17c-.03.12-.06.25-.09.38-.12.24-.12.74-.81 1.24-.25.31-.65.4-1.02.51-.88.23-1.83.27-2.72.08-.91-.17-1.89-.57-2.35-1.43-.47-.88-.23-1.99.35-2.76.25-.36.57-.67.91-.94.16-.16.46-.23.69-.34l.68-1.02c-.13-.07.05-.21.09-.39l-1.37-.31c-.47.39-.98.76-1.6.89-1.15.27-2.44-.05-3.3-.87-.83-.78-1.18-2.1-.67-3.15.21-.45.54-.85.92-1.16.93-.55 2.1-.58 3.13-.32.33.1.66.17.97.32.77-.14.95-.5 1.5-1.11-1.2-.42-2.49-.85-3.32-1.86-.47-.58-.81-1.32-.67-2.07.12-.7.52-1.33 1.05-1.79.21-.14.6-.47.96-.49 1.15-.28 2.33.2 3.28.82.09.06.17.11.25.17 0 .01 0 .02.01.03.22.67.68 1.22 1.15 1.73l1.05-.76c-.07-.07-.14-.14-.2-.21l.22-.09a3.07 3.07 0 0 0-1.11-1.43c-.04-.04-.56-2.47 1.22-3.91.32-.32.56-.5 1-.69.46-.28.97-.33 1.48-.42Z" style="color:#000;fill:#ffecb3"/><path id="path84" d="M744.01 421.52a5.18 4.7 36.9 0 1-6.97.65 5.18 4.7 36.9 0 1-1.31-6.87 5.18 4.7 36.9 0 1 6.96-.65 5.18 4.7 36.9 0 1 1.32 6.87Z" style="fill:#fdacac;stroke-opacity:.889952"/><path id="path85" d="M744.18 432.34c-.03.04-.07.08-.1.12.03-.03.06-.08.09-.11 0-.01.01-.01.01-.01Z" style="color:#000;fill-opacity:.889952"/><path id="path86" d="M744.53 418.07c-.24 1.52-.82 3.06-2 4.1-.42.44-.92.82-1.54.94-1.45.39-3.06-.14-4.07-1.25-.97-.86-1.57-2.14-1.53-3.45-.01-1.33.73-2.59 1.82-3.32.82-.62 1.86-.96 2.89-.97.74.01 1.36.42 1.94.84l.7-1.07c-.85-.65-1.93-1.07-3.02-.92-1.51.17-2.94.92-4.06 1.93-1.13 1.07-1.67 2.67-1.5 4.21.09 1.11.56 2.17 1.27 3.03.72.78 1.52 1.54 2.54 1.9 1.45.57 3.19.47 4.47-.45.44-.31.94-.54 1.27-.98 1.28-1.25 1.86-3.02 2.12-4.75" style="color:#000;fill-opacity:.889952"/></g></g><g id="run_slope_flower9"><g id="g93" transform="translate(-733.143 -472.268)"><path id="path87" d="m740.08 457.62-1.09.28c-.89 1.02-1.47 1.29-2.11 1.36-.9.1-1.82.1-2.69.35-.86.24-1.61.74-2.23 1.38-.29.3-.56.62-.73 1.01-.11.28-.2.56-.25.84-.36-.49-.76-.96-1.2-1.37-.59-.57-1.44-.98-2.28-.77-.9.22-1.61 1.01-2.58.95-1.16-.14-2.01-.88-2.84-1.63-.05.31-.15.78-.25 1.16.26.21 1.22 1.11 1.19 2.46.02.96-.34 1.89-.3 2.86.09 1.95.99 3.31 1.29 3.64-.89.18-1.75.5-2.55.94-.89.5-1.65 1.3-1.94 2.29-.44 1.4-.27 2.89-.33 4.33.08 1.09-.53 2.37-.89 3.11.48-.12.82.04 1.26.16.37-.43.9-.66 1.46-.64.89.03 1.71.43 2.58.53 1.3.22 2.65.05 3.87-.47-.2.61-.31 1.25-.34 1.89-.03.83.2 1.71.86 2.27.76.63 1.74.98 2.35 1.78.39.52.5 1.17.58 1.8.07.16.13.33.19.5l.47-.57.48.03c.18-.41.3-.9.69-1.19.7-.54 1.58-.75 2.35-1.18 1.03-.54 1.92-1.44 2.23-2.59.21-.73.31-1.51.16-2.27-.13-.77-.32-1.52-.58-2.26.27.23.56.43.86.62 1.07.74 2.5.74 3.68.27 1.54-.59 2.9-1.71 4.58-1.91.52.08 1.11.17 1.52.01-.22-.4-.49-.77-.75-1.14-.18-.01-.36-.01-.55 0-.43-.15-.81-.41-1.01-.84-.46-1-.59-2.12-1.05-3.13-.4-.97-1.02-1.89-1.91-2.47-.72-.55-1.53-.79-2.39-.94.49-.39.96-.81 1.37-1.29.59-.75.95-1.8.55-2.73-.44-1.17-1.53-1.92-2.11-3-.71-1.2-.41-2.38.06-3.57.16-.16.33-.34.32-.56Z" class="run_slope_flower9_1"/><path id="path88" d="M738.14 459.89c-.06.35-.09.69-.04 1.05.09 1.27.86 2.35 1.67 3.28.46.57 1.08 1.19 1.01 1.98-.07.65-.47 1.2-.91 1.65-.39.33-.82.65-1.31.81l-.27.62c-.26.07-.51.17-.76.28l.86.94c.83-.34 1.8-.44 2.64-.06.43.07.79.39 1.1.71.98 1.08 1.3 2.55 1.69 3.92.17.59.43 1.21.93 1.6-.31.09-.62.2-.92.33-1.22.5-2.32 1.33-3.62 1.62-.63.13-1.3.07-1.87-.23-.36-.23-.74-.44-1.03-.8-.33-.23-.29-.75-.66-.89l-.68-.8c-.24.67-.23 1.19-.57 1.8.31 1 .76 1.96.95 3 .14.5.16 1.02.16 1.54.07.4-.18.79-.37 1.13-.6.91-1.62 1.4-2.6 1.77-.77.28-1.39.55-1.86 1.33-.23-.63-.61-1.21-1.14-1.64-.67-.55-1.57-.84-2.09-1.55-.37-.51-.3-1.22-.22-1.82.1-.73.36-1.43.75-2.05.3-.47.68-.99 1.15-1.44-.02-.91-.32-1.06-1.14-.92-.32.71-.6 1.49-1.2 2.02-.21.19-.5.37-.82.48-1.31.46-2.74.41-4.05.01-.89-.27-1.89-.51-2.76-.08 0 0-.01.01-.02.01.12-.36.2-.73.22-1.12.14-1.52-.08-3.07.27-4.57.2-.84.77-1.55 1.53-1.95.9-.59 1.94-.73 2.98-.81.15.09.31.18.46.25.34.18.66.39.98.59l-.06-1.03.48-.47c-.44-.2-.91-.35-1.39-.4-.44-.27-.87-.58-1.19-1.01-.3-.39-.43-.87-.54-1.38-.12-.55-.13-1.14-.03-1.7.04-.24.13-.62.18-.92.13-.77.15-1.6-.11-2.35.41.15.84.23 1.29.23.83.01 1.54-.43 2.24-.82.45-.24.99-.18 1.4.11.77.54 1.35 1.31 1.85 2.1.11.17.21.35.28.53-.12.61.36 1.03.43 1.16l.66.61c.07-.34.13-.7.11-1.04l.15-.08c-.24-1.09-.45-2.3.07-3.34.19-.22.27-.56.46-.71.77-.54 1.69-.82 2.62-.86.96.01 1.82-.16 2.66-.62Z" style="color:#000;fill:#fdf4db;stroke-miterlimit:8.5"/><path id="path89" d="M738.37 474.46c-.39 1.12-4.48 3.4-5.68 3.35-1.21-.05-4.93-3.19-5.13-4.38-.21-1.2 1.35-5.38 2.35-5.99.99-.61 5.52-.17 6.49.54.97.72 2.36 5.35 1.97 6.48Z" style="fill:#ffb99d;stroke-miterlimit:10"/><g id="g92" class="run_slope_flower9_1"><path id="path90" d="M733.63 467.17c-.2-.16-.44-.28-.56-.53-.12-.22-.32-.42-.59-.43-.09-.06-.17 0-.25.05-.27.18-.37.52-.58.75-.32.42-.78.83-1.35.81-.37-.01-.7-.2-1.04-.35-.26-.13-.51.05-.6.3-.19.29-.13.66.03.94.4.76.57 1.6.73 2.43l.94-1.01c-.07-.45-.26-.87-.42-1.3.48.07 1.02.17 1.45-.13.43-.24.72-.65 1-1.04.18.22.38.42.62.58.02.01.04.03.06.04" class="run_slope_flower9_1"/><path id="path91" d="M727.81 473.54c.24.47.58.89.78 1.38.08.16.15.47.15.55.03.24-.21.31-.33.47-.15.27-.03.64.26.75.21.15.39-.08.6-.08.38-.02.75.08 1.1.2.4.16.82.39.99.81.09.21.14.42.21.63l.89-1.01c-.16-.5-.5-.93-.93-1.23-.26-.18-.55-.32-.86-.41-.29-.07-.6-.04-.89-.07.12-.3.01-.62-.07-.92-.17-.53-.5-1-.78-1.48-.12-.2-.24-.39-.36-.59" class="run_slope_flower9_1"/><path id="path92" d="M738.14 474c.04-.21.07-.42.2-.59.19-.41.5-.74.8-1.07.24-.3.24-.73.11-1.07-.14-.22-.42-.14-.64-.11-.06-.02-.39.12-.45.03.06-.17.15-.33.27-.47.14-.17.08-.39.06-.58.07-.21.04-.53-.22-.58-.2-.02-.35.16-.55.01-.34-.13-.7-.4-.74-.8-.06-.31-.01-.62-.01-.93l-1.09 1.09c.05.26.1.53.22.77.15.32.4.58.72.72.16.12.47.14.54.27-.23.36-.32.82-.18 1.23.08.19.22.39.44.42.12.01.23.02.09.13-.18.22-.26.5-.37.76-.17.43-.26.89-.29 1.35-.02.12-.03.24-.04.36" class="run_slope_flower9_1"/></g><path id="path93" d="M734.86 475.94c.38.2 1.09.44 1.22.59.11-.29 0-.08.14-.72l.56-.42c-.05.12-.08.26-.15.71.09.7-.1.76-.44 1.06-.47-.18-1.1-.4-1.58-.56.08-.22.17-.44.25-.66Z" style="stroke-miterlimit:10"/></g></g><g id="run_slope_flower10"><g id="g101" transform="translate(-20.81 -11.594)"><path id="path94" d="M17.72-5c-.15.3-.31.6-.47.89-.54.09-.17.78-.35 1.14-.29.87-1.12 1.37-1.71 2.02-.93.9-1.59 2.16-1.47 3.49.04.8.25 1.6.67 2.29.06.09.11.18.16.27-.98-.36-2.04-.55-3.09-.54-1.02.02-2.04.4-2.75 1.13C7.4 6.98 6.8 8.78 5.62 10.17c-.44.52-1.08.8-1.62 1.21l.16.09-.01.01.9.7c.65-.23 1.37-.05 1.88.4.7.6 1.28 1.34 2.06 1.86.88.63 1.9 1.04 2.97 1.21-.34.28-.66.57-.97.87-.63.62-1.36 1.52-1.25 2.53.1 1.09.7 2.06 1.37 2.9.53.66 1.26 1.17 1.64 1.94.13.33.18.72.09 1.07-.22.26-.4.56-.51.89l.04.04c-.05.11-.09.22-.13.32l.39-.04.16.17.65-.18c.01-.03.02-.06.03-.08l.08-.01c.17-.22.31-.46.41-.71.3-.31.7-.51 1.15-.53 1.15-.07 2.3.18 3.44-.05 1.23-.2 2.44-.81 3.17-1.84.34-.63.5-1.31.57-2.01.17.23.36.46.56.68.63.71 1.57 1.29 2.55 1.13 1.19-.18 2.16-1.05 3.37-1.2.69-.14 1.38.14 1.91.57.34.27.65.61 1.08.73.07.03.13.05.2.08l.11-1.27c-.1-.06-.19-.13-.28-.2l.06-.32c-.49-.39-.79-1.01-.85-1.63.01-.74.5-1.35.76-2.01.37-.74.64-1.56.55-2.4-.08-.65-.22-1.39-.77-1.82-.65-.59-1.46-.92-2.27-1.24.9-.11 1.78-.29 2.64-.58.9-.28 1.89-.68 2.29-1.6.45-1.03.37-2.21.15-3.29-.17-.8-.54-1.56-.56-2.38 0-.39.14-.8.41-1.09.31-.14.61-.31.86-.56l.27.06-.05-.32c.01-.01.02-.01.02-.02l-.02-.01-.11-.69c-.13.1-.21.36-.38.32-.2-.02-.41-.11-.6-.1l-.04.04-.08-.03c-.25.11-.48.26-.68.44-.43.14-.9.14-1.32-.07-1.09-.51-2.06-1.3-3.26-1.59-1.12-.32-2.38-.29-3.43.25-.58.4-1.04.92-1.41 1.51.02-.8-.07-1.59-.3-2.36-.25-.81-.73-1.66-1.59-1.95-.84-.34-1.78-.35-2.61-.74-.67-.33-1.08-.99-1.4-1.63l-.05-.05-.13.15Z" class="run_slope_flower10_1"/><path id="path95" d="M17.92-2.46c.34.41.77.75 1.26.97.88.42 1.9.39 2.77.83.51.34.72.97.87 1.54.06.34.14.67.12 1.02-.06 2.01-.14 2.73-.46 3.53-.08.14-.17.27-.26.41.53.12.82.14 1.34.21.46-.8.68-1.71 1.13-2.51.35-.66.77-1.31 1.38-1.76.43-.28.93-.38 1.45-.3 1.22.1 2.26.79 3.29 1.4.54.33 1.18.58 1.81.59-.19.65-.12 1.36.09 2 .22.8.52 1.59.52 2.43.02.63 0 1.34-.44 1.84-.61.56-1.45.74-2.23.96-1.04.27-2.13.31-3.2.39-.02-.03-.05-.06-.07-.09-.07-.08-.15-.15-.22-.23l-.22.97-.4.54.39-.03c.71.53 1.59.75 2.38 1.11.65.29 1.38.54 1.82 1.13.23.4.16.91.08 1.34-.28 1.2-1.26 2.15-1.26 3.42.02.38.09.77.21 1.14-.84-.25-1.78-.16-2.59.17-.74.25-1.4.71-2.17.9-.74.14-1.38-.41-1.83-.93-.5-.58-.94-1.24-1.24-1.95-.1-.52-.06-1.04-.03-1.56-.3.08-.53.18-.85.28-.24-.15-.49-.3-.74-.45.08.49.19.98.34 1.45.04.62.14 1.23.12 1.84-.01.77-.08 1.56-.42 2.25-.26.41-.59.74-1.07.9-1.1.48-2.33.39-3.49.31-.68-.05-1.42-.01-2.04.3-.12-.66-.51-1.26-.99-1.74-.57-.6-1.19-1.17-1.58-1.91-.31-.57-.64-1.25-.43-1.91.34-.79 1.01-1.36 1.65-1.92.3-.27.63-.51.97-.74 1.02-.23 1.87-.96 2.72-1.56l-.71-.5-.18-.38c-.71.43-1.41.86-2.09 1.33-.1.03-.21.06-.31.08-.45.01-.9.11-1.33-.07-1.34-.33-2.46-1.22-3.36-2.23-.55-.59-1.24-1.1-2.05-1.2.24-.22.46-.45.64-.72.91-1.25 1.51-2.72 2.56-3.86.58-.62 1.43-.97 2.28-.95.94-.05 1.85.24 2.69.63.29.12.46.24.66.34.31.15.98.69 1.02.73.28.32.51.69.75 1.04l.46-1.38c-.63-.84-1.39-1.59-1.92-2.51-.3-.42-.5-.9-.68-1.38-.2-.33-.09-.8-.03-1.18.24-1.06 1.06-1.83 1.82-2.53.76-.76 1.06-1.2 1.3-1.84Z" style="color:#000;fill:#fdf4db;stroke-miterlimit:8.5"/><path id="path96" d="M27.26 10.67c.16-.22.26-.47.5-.61.37-.22.54-.65.33-.89-.19-.27-.54-.34-.79-.54-.43-.29-.86-.72-.88-1.27-.01-.3.09-.58.2-.85.08-.18.19-.49 0-.66-.29-.24-.73-.35-1.07-.15-.65.37-1.35.67-2.08.86-.14.05-.29.1-.44.16l1.06.86c.37-.07.71-.23 1.05-.4.09-.03.26-.17.2.01-.02.4-.07.84.15 1.2.1.16.21.31.33.44.25.24.55.42.84.6-.17.17-.34.33-.46.54-.04.06-.08.13-.12.19" class="run_slope_flower10_1"/><path id="path97" d="M22.97 15.35c-.77.56-4.19.25-4.96-.3-.78-.54-1.81-4.38-1.4-5.23.41-.84 3.48-2.55 4.44-2.57.96-.03 3.7 2.59 4 3.46.3.87-1.31 4.07-2.08 4.64Z" style="fill:#faa;stroke-miterlimit:10"/><path id="path98" d="M18.03 17.06c-.13.08-.26.15-.38.24-.13-.36-.17-.76-.38-1.09-.03-.04-.05-.08-.07-.12l-1.18.47c.13.28.25.57.32.87.09.3.16.61.28.9.08.11.17.21.3.26.34.15.73.01 1.02-.2.26-.19.52-.39.8-.54.3-.16.59-.33.88-.49" class="run_slope_flower10_1"/><path id="path99" d="M23.74 17.95c.22-.15.48-.25.75-.28.41-.09.84-.04 1.26-.07.35-.06.64-.31.8-.61.08-.32-.26-.5-.45-.68-.14-.06-.29-.26-.03-.25.29-.04.63-.04.79-.34.21-.11.54-.39.31-.65a.755.755 0 0 1-.4-.59c-.08-.33.01-.71.26-.94.18-.19.37-.37.55-.56l-1.49-.1c-.35.4-.67.91-.58 1.47.04.27.14.53.23.79-.48.08-.97.36-1.14.84-.11.2.02.4.08.59-.2.02-.41.05-.6.12-.38.15-.76.29-1.1.52-.16.14-.27.34-.38.53" class="run_slope_flower10_1"/><path id="path100" d="M17.07 8.31c-.47.05-.94.12-1.42.07-.23.17-.49.33-.69.56-.11.16-.07.37-.09.55 0 .24.02.49-.08.71-.21.07-.31.3-.43.49-.12.15-.27.32-.31.49.08.05.24.08.29.16.16.07.23.29.3.44.03.17-.16.36.02.51.07.06-.03.14-.04.21-.08.17-.15.33-.23.5l.57-.12c.15-.12.3-.24.49-.3.22-.12.46-.3.47-.58.05-.34-.07-.67-.21-.98-.06-.11.21-.18.23-.32.12-.32.21-.66.19-1.01-.05-.18.19-.13.28-.12" style="color:#000;fill-opacity:.889952"/><path id="path101" d="M22.57 5.98c-.19-.18-.39-.35-.56-.54a.552.552 0 0 0-.68-.12c-.18.1-.34.24-.52.34-.13-.08-.18-.24-.28-.35-.04-.15-.22-.31-.4-.29-.27.03-.59.06-.75.3-.14.24-.24.49-.35.74l-1.25 1.23c.21.07.43.15.65.22.45.11.9-.11 1.24-.39.16-.12.32-.25.4-.44.09-.28.22.12.37.15.35.09.62-.05.94-.2l.16.16" style="color:#000;fill-opacity:.889952"/></g></g><g id="run_slope_flower11"><g id="g109" transform="translate(-.125 -.207)"><path id="path102" d="M1.31-12.42c-2.28-.13-4.64 1.18-5.54 3.3-1.86-1.47-4.64-1.27-6.4.26-1.34.94-1.86 2.93-.84 4.3 1.32 1.12-1.24.94-1.79 1.83-1.35.97-2.31 3.08-1.02 4.49.54.98 2.72 1.02 2.8 1.53-1.34 1.32-1.16 3.86.55 4.79 1.63.9 3.75 1.21 5.47.35.35 2.66 3.44 4.15 5.87 3.37 1.26-.12 2.19-1.83 2.79-2.1 1.43 1.05 3.41 1.02 5.06.61 1.46-.48 3.18-1.48 3.12-3.24.15-.89-1.1-2.07-.89-2.47 1.44-.23 3.1-.97 3.34-2.59.35-1.83-.85-3.69-2.56-4.33 1.18-.84 1.94-2.53 1.08-3.86-1.22-2.01-3.9-2.47-6.03-1.88-.7.2-1.32.64-.93-.41.26-1.67-.9-3.3-2.52-3.7-.51-.16-1.04-.24-1.56-.25Z" class="run_slope_flower11_1"/><path id="path103" d="M1.06-11.2c1.67-.14 3.54 1.21 3.02 3.04-.09 1.23-1.52 2.41-1.79 3.11.46-.04 1.08.3 1.44-.01.74-1.27 2.11-1.72 3.55-1.96 1.58-.26 3.63.35 4.15 2.01.15 1.3-1.56 2.07-2.57 2.19-1.02-.02-3.66.16-3.12 1.47 1.51.09 3.22-.74 4.78.07 1.54.46 2.69 2.42 1.75 3.87-.85 1.02-2.35.94-3.55.76-1.28-.05-2.44-1.57-3.46-.18.94 1.15 2.72.84 3.67 1.9 1.15.92 1.83 3.08-.04 3.64-1.56.77-3.76 1.12-5.08-.26-.82-.7-.6-2.3-1.26-2.78-1.35.17-.9 1.07-.6 2.03.2 1.09-.32 2.49-1.41 2.87-1.84.7-4.38-.24-4.71-2.35-.24-1.46.4-3.09 1.65-3.9-1.24-1.24-2.48.59-2.79 1.89.11 1.33-1.38 1.58-2.41 1.51-1.28-.12-3.03-.44-3.32-1.93-.25-1.59 1.33-2.85 2.79-2.9.83.23 1.89-1.36 1.48-1.48-2.06.38-4.45 1.04-6.32-.3-1.33-1.21.32-3.14 1.6-3.61 1.27-.6 2.8-.15 3.84.16 1.87-.37-.33-1.72-1.31-1.74-1.44-.49-2.46-2.53-1.14-3.71 1.37-1.48 3.85-1.45 5.32-.12.57.77.7 2.06 1.75 2.58.5.57.83-.36 1.23-.63-1.03-.57-2.11-2.52-.73-3.71.84-1.13 2.22-1.58 3.59-1.53Z" style="color:#000;fill:#fff;stroke-miterlimit:6.25"/><path id="path104" d="M4.17 1.65C1.95 5.92-6.48 1.49-3.28-2.57c2.73-2.38 8.58.42 7.45 4.22Z" style="fill:#f9fe6e;stroke-miterlimit:6.25;stroke-opacity:.889952"/><g id="g108" class="run_slope_flower11_1"><path id="path105" d="M.79 3.71c-.1.04-.42-.03 0 0Z" class="run_slope_flower11_1"/><path id="path106" d="M-.75 3.56c.56.12.75.16 0 0Z" class="run_slope_flower11_1"/><path id="path107" d="M-2.19-3.34c-.27.1-.03-.05 0 0Z" class="run_slope_flower11_1"/><path id="path108" d="M-.47-4c-1.37-.36-2.74.45-3.71 1.36-1.51 1.42-1.08 3.96.4 5.24 2.04 1.86 5.59 2.54 7.8.56.55-.5.87-1.64.78-2.21-.39.15-1.07 0-1.28.35-.08 1.05-.97 1.82-2.01 1.83-1.97.17-4.29-.67-5.15-2.57-.61-1.26.21-2.74 1.42-3.24.71.08 1.38-.5 1.39-.47.18.39.54-.54.8-.72-.15-.04-.29-.09-.44-.13Z" class="run_slope_flower11_1"/></g></g></g><g id="run_slope_flower12"><g id="g121" class="run_slope_flower12_1"><path id="path109" d="M-2.69 8.42c-.15 1.63-.09 3.36.26 5.12.19.95.46 1.98.88 2.85.34.7 1.08 1.42 1.89 1.2.58-.15 1.01-.63 1.22-1.18.34-.73.58-1.52.89-2.28.39-1.03.51-4.6.57-5.71" class="run_slope_flower12_1"/><path id="path110" d="M-6 5.53c-1.09 1.11-2.31 2.55-3.2 4-.53.88-1.47 2.89-1.65 4.35-.08.6.09 1.24.78 1.51.75.29 1.86-.19 2.42-.61 1.21-.89 4.35-3.1 5.51-4.51" class="run_slope_flower12_1"/><path id="path111" d="M2.13-4.81c.91-1.66 1.95-3.22 3.13-4.69 1.63-2.03 3.39-3.62 5.38-4.81.47-.27 1.04-.45 1.59-.4.59.27.86 1.02.62 1.62-.15.93-.46 1.82-.92 2.65-.71 1.52-1.51 3.01-2.57 4.32-.88 1.05-1.78 2.08-2.76 3.03-.52.46-.98.85-1.55 1.25" class="run_slope_flower12_1"/><path id="path112" d="M.27-7.08c.65-2.1 1.25-3.7 2.08-5.37.48-.85.97-1.7 1.48-2.53.71-1 1.68-2.02 2.98-2.1.62-.01 1.24.4 1.34 1.04.23.93.1 1.91-.07 2.84-.43 1.89-1.27 3.65-2.22 5.33-.54.93-1.17 1.82-2.06 2.45-.06.05-.13.1-.19.15" class="run_slope_flower12_1"/><path id="path113" d="M-4.86-5.32c-.78-1.56-1.57-3.25-1.9-4.97-.49-2.28-.91-4.66-.47-6.99.15-.69.36-1.56 1.17-1.68.94-.05 1.58.73 2.1 1.4.95 1.21 1.63 2.6 2.24 4.01.55 1.04.83 2.28 1.22 3.39.52 1.48.81 2.8.95 4.18" class="run_slope_flower12_1"/><path id="path114" d="M3.96-2.27c1.47-.93 3.07-1.9 4.74-2.41 2.22-.72 4.55-1.39 6.91-1.2.7.09 1.59.2 1.79.99.15.94-.56 1.66-1.17 2.24-1.11 1.07-2.42 1.89-3.75 2.64-.98.66-2.19 1.07-3.25 1.57-1.42.68-2.7 1.1-4.06 1.39" class="run_slope_flower12_1"/><path id="path115" d="M5.42-.81c1.71.31 3.54.7 5.11 1.47 2.12.98 4.27 2.08 5.87 3.83.45.55 1.02 1.23.63 1.95-.53.78-1.54.82-2.38.84-1.54.03-3.06-.27-4.55-.63-1.16-.18-2.32-.71-3.44-1.07-1.5-.47-2.72-1.04-3.91-1.76" class="run_slope_flower12_1"/><path id="path116" d="M6.3 6.05c1.21.98 2.4 2.1 3.1 3.32.78 1.36 1.48 2.26 2.07 3.91.21.57.13 1.46-.6 1.59-.72.14-1.45-.12-2.06-.47-1.3-.74-2.61-1.92-3.92-3.18" class="run_slope_flower12_1"/><path id="path117" d="M-5.44 2.17c-1.72.24-3.58.44-5.31.2-2.32-.27-4.67-.51-6.73-1.67-.6-.37-1.36-.9-1.18-1.69.23-1.05 1.13-1.4 1.93-1.68 1.45-.51 2.99-.66 4.51-.78 1.17-.19 2.43-.05 3.61-.06 1.57-.02 2.91.14 4.26.44" class="run_slope_flower12_1"/><path id="path118" d="M-1.63 3.93c-1.19 1.45-2.1 3.08-3 4.75-.95 1.78-1.8 4.22-1.74 6.15.02.66.06 1.66.76 1.96.62.26 1.31-.21 1.78-.59.83-.67 1.47-1.61 2.11-2.46 1.33-1.75 2.2-3.62 2.79-5.73.27-.98.29-2.18.41-3.19" class="run_slope_flower12_1"/><path id="path119" d="M-2.63-6.67c.02-2.11.02-4.25.45-6.34.38-1.51.76-3.03 1.34-4.48.3-.68.6-1.5 1.32-1.85.59-.27 1.16.29 1.34.81.68 1.41.7 3.01.78 4.54.05 1.69.03 3.39-.23 5.06-.06.45-.06 1.31-.35 2.03" class="run_slope_flower12_1"/><path id="path120" d="M3.8-4.55c2.4-2.11 4.95-4.15 7.94-5.37 1.1-.45 2.25-.87 3.45-.91.68-.02 1.41.42 1.44 1.16 0 1.15-.68 2.19-1.53 2.91-2.03 2.02-4.31 3.84-6.95 4.99-.86.4-1.73.77-2.61 1.13" class="run_slope_flower12_1"/><path id="path121" d="M6.08-1.18c1.84-.4 3.7-.63 5.59-.71 2.59-.1 4.95.19 7.15.92.52.17 1.03.48 1.34.93.19.62-.2 1.32-.8 1.53-.81.49-1.69.85-2.61 1.04-1.62.46-3.27.83-4.95.89-1.37.03-2.74.02-4.1-.1-.68-.09-1.29-.18-1.95-.34" class="run_slope_flower12_1"/></g><path id="path122" d="M-7.46-2.98c.51-1.45 1.64-2.71 2.92-3.56C-3.11-7.49-.91-7.7.79-7.46c1.3.19 1.77.89 3.02 1.87 1.17.91 1.74 1.53 2.29 2.91.3.77.53 2.25.46 3.33-.08 1.22-.31 2.86-.96 3.89-.51.81-1.53 1.94-2.52 2.39-1.31.59-2.64.71-4.07.56-1.4-.15-2.36-.74-3.49-1.59-1.26-.96-2.51-2.02-2.92-3.55-.45-1.72-.65-3.66-.06-5.33Z" style="fill:#fff"/><g id="g128" class="run_slope_flower12_1"><path id="path123" d="M-6.46-3.28C-7.8-4.39-9.2-5.62-10.19-7.07c-1.36-1.9-2.7-3.91-3.23-6.22-.13-.7-.28-1.57.41-2 .84-.43 1.74.03 2.49.44 1.35.73 2.53 1.73 3.64 2.78.93.73 1.68 1.76 2.48 2.62C-3.33-8.3-2.54-7.21-1.85-6" class="run_slope_flower12_1"/><path id="path124" d="M-6.23-.4C-8.9-.06-10.57.8-12.7 1.68c-1.56.64-2.85 1.69-4.19 2.71-.52.46-.91 1.25-.62 1.93.38.47 1.06.44 1.6.53 1.9.08 3.76-.4 5.6-.82 1.7-.44 3.33-1.16 4.84-2.05.57-.38 1.13-.79 1.69-1.19" class="run_slope_flower12_1"/><path id="path125" d="M-6.23-.71c-2.65-.32-5.25-1.14-7.52-2.55-1.5-.85-2.8-1.98-4.17-3.02-.53-.45-.92-1.24-.63-1.92.37-.47 1.05-.45 1.59-.54 1.9-.09 3.76.37 5.6.78 1.71.43 3.34 1.13 4.86 2.01.58.38 1.14.78 1.7 1.18" class="run_slope_flower12_1"/><path id="path126" d="M-4.89 2.64c-1.36.56-2.69 1.22-3.88 2.09a17.046 17.046 0 0 0-4.24 4.06c-.49.7-.83 1.61-.6 2.46.28.61 1 .8 1.61.71 1.74-.05 3.37-.77 4.85-1.61 1.94-1.12 3.54-2.71 4.97-4.41" class="run_slope_flower12_1"/><path id="path127" d="M5.38 2.1c2.1.94 4.19 2.01 5.99 3.45 1.34 1.08 2.55 2.32 3.32 3.87.29.6.41 1.46-.18 1.93-.58.44-1.36.33-2.04.18-2.02-.47-3.76-1.64-5.36-2.86a26.7 26.7 0 0 1-3.37-3.05c-.22-.23-.45-.45-.68-.67" class="run_slope_flower12_1"/><path id="path128" d="M4.02 5.16c1.2 1.96 2 3.87 2.67 6.07.5 1.64 1 3.48.76 5.2-.09.66-.45 1.47-1.21 1.51-.73.04-1.36-.64-1.83-1.15-1.4-1.53-2.14-3.31-2.78-5.22A27.01 27.01 0 0 1 .57 7.15c-.05-.32-.12-.63-.18-.94" class="run_slope_flower12_1"/></g><g id="g130" style="fill:#ffcb83" transform="translate(-889.464 -203.878)"><path id="path129" d="M839.94-357.98c0 2.99-3.2 5.98-6.61 5.98-3.4 0-5.72-2.99-5.72-5.98s2.76-5.42 6.17-5.42c3.4 0 6.16 2.43 6.16 5.42Z" style="fill:#ffcb83;stroke-miterlimit:6.25" transform="matrix(.80916 .5876 -.60034 .79974 0 0)"/><path id="path130" d="M895.08 206c-.42 1.11-1.03 2.23-2.08 2.87-1.14.8-2.62.83-3.94.64-1.43-.25-2.88-.7-3.95-1.72-1.34-1.24-1.8-3.16-1.62-4.93.13-1.45.9-2.79 1.95-3.77.85-.77 2.04-1.27 3.2-1.1.41.06.77.26 1.11.48" style="fill:#ffcb83;stroke:#000;stroke-width:1.1"/></g></g><g id="run_slope_flower13"><path id="path131" d="M1.31-12.42c-2.28-.13-4.64 1.18-5.54 3.3-1.86-1.47-4.64-1.27-6.4.26-1.34.94-1.86 2.93-.84 4.3 1.32 1.12-1.24.94-1.79 1.83-1.35.97-2.31 3.08-1.02 4.49.54.98 2.72 1.02 2.8 1.53-1.34 1.32-1.16 3.86.55 4.79 1.63.9 3.75 1.21 5.47.35.35 2.66 3.44 4.15 5.87 3.37 1.26-.12 2.19-1.83 2.79-2.1 1.43 1.05 3.41 1.02 5.06.61 1.46-.48 3.18-1.48 3.12-3.24.15-.89-1.1-2.07-.89-2.47 1.44-.23 3.1-.97 3.34-2.59.35-1.83-.85-3.69-2.56-4.33 1.18-.84 1.94-2.53 1.08-3.86-1.22-2.01-3.9-2.47-6.03-1.88-.7.2-1.32.64-.93-.41.26-1.67-.9-3.3-2.52-3.7-.51-.16-1.04-.24-1.56-.25Z" class="run_slope_flower13_1"/><path id="path132" d="M1.06-11.2c1.67-.14 3.54 1.21 3.02 3.04-.09 1.23-1.52 2.41-1.79 3.11.46-.04 1.08.3 1.44-.01.74-1.27 2.11-1.72 3.55-1.96 1.58-.26 3.63.35 4.15 2.01.15 1.3-1.56 2.07-2.57 2.19-1.02-.02-3.66.16-3.12 1.47 1.51.09 3.22-.74 4.78.07 1.54.46 2.69 2.42 1.75 3.87-.85 1.02-2.35.94-3.55.76-1.28-.05-2.44-1.57-3.46-.18.94 1.15 2.72.84 3.67 1.9 1.15.92 1.83 3.08-.04 3.64-1.56.77-3.76 1.12-5.08-.26-.82-.7-.6-2.3-1.26-2.78-1.35.17-.9 1.07-.6 2.03.2 1.09-.32 2.49-1.41 2.87-1.84.7-4.38-.24-4.71-2.35-.24-1.46.4-3.09 1.65-3.9-1.24-1.24-2.48.59-2.79 1.89.11 1.33-1.38 1.58-2.41 1.51-1.28-.12-3.03-.44-3.32-1.93-.25-1.59 1.33-2.85 2.79-2.9.83.23 1.89-1.36 1.48-1.48-2.06.38-4.45 1.04-6.32-.3-1.33-1.21.32-3.14 1.6-3.61 1.27-.6 2.8-.15 3.84.16 1.87-.37-.33-1.72-1.31-1.74-1.44-.49-2.46-2.53-1.14-3.71 1.37-1.48 3.85-1.45 5.32-.12.57.77.7 2.06 1.75 2.58.5.57.83-.36 1.23-.63-1.03-.57-2.11-2.52-.73-3.71.84-1.13 2.22-1.58 3.59-1.53Z" style="color:#000;fill:#fff;stroke-miterlimit:6.25"/><path id="path133" d="M4.17 1.65C1.95 5.92-6.48 1.49-3.28-2.57c2.73-2.38 8.58.42 7.45 4.22Z" style="fill:#fae;stroke-miterlimit:6.25;stroke-opacity:.889952"/><g id="g137" class="run_slope_flower13_1"><path id="path134" d="M.79 3.71c-.1.04-.42-.03 0 0Z" class="run_slope_flower13_1"/><path id="path135" d="M-.75 3.56c.56.12.75.16 0 0Z" class="run_slope_flower13_1"/><path id="path136" d="M-2.19-3.34c-.27.1-.03-.05 0 0Z" class="run_slope_flower13_1"/><path id="path137" d="M-.47-4c-1.37-.36-2.74.45-3.71 1.36-1.51 1.42-1.08 3.96.4 5.24 2.04 1.86 5.59 2.54 7.8.56.55-.5.87-1.64.78-2.21-.39.15-1.07 0-1.28.35-.08 1.05-.97 1.82-2.01 1.83-1.97.17-4.29-.67-5.15-2.57-.61-1.26.21-2.74 1.42-3.24.71.08 1.38-.5 1.39-.47.18.39.54-.54.8-.72-.15-.04-.29-.09-.44-.13Z" class="run_slope_flower13_1"/></g></g></defs><use xlink:href="#run_slope_flower12" id="use137" x="65.105" y="388.448"/><use xlink:href="#run_slope_flower12" id="use138" x="28.772" y="29.72"/><use xlink:href="#run_slope_flower12" id="use139" x="311.165" y="343.918"/><use xlink:href="#run_slope_flower12" id="use140" x="217.062" y="388.264"/><use xlink:href="#run_slope_flower11" id="use141" x="161.13" y="389.596"/><use xlink:href="#run_slope_flower11" id="use142" x="40.22" y="354.007"/><use xlink:href="#run_slope_flower11" id="use143" x="22.947" y="342.472"/><use xlink:href="#run_slope_flower11" id="use144" x="28.628" y="323.46"/><use xlink:href="#run_slope_flower11" id="use145" x="28.054" y="191.691"/><use xlink:href="#run_slope_flower11" id="use146" x="44.53" y="179.067"/><use xlink:href="#run_slope_flower11" id="use147" x="26.578" y="50.945"/><use xlink:href="#run_slope_flower11" id="use148" x="164.537" y="35.78"/><use xlink:href="#run_slope_flower11" id="use149" x="279.133" y="35.862"/><use xlink:href="#run_slope_flower11" id="use150" x="294.79" y="46.929"/><use xlink:href="#run_slope_flower11" id="use151" x="292.085" y="138.163"/><use xlink:href="#run_slope_flower11" id="use152" x="311.758" y="134.147"/><use xlink:href="#run_slope_flower11" id="use153" x="306.922" y="272.351"/><use xlink:href="#run_slope_flower11" id="use154" x="223.18" y="265.338"/><use xlink:href="#run_slope_flower11" id="use155" x="233.671" y="277.684"/><use xlink:href="#run_slope_flower11" id="use156" x="146.169" y="277.097"/><use xlink:href="#run_slope_flower11" id="use157" x="109.072" y="162.671"/><use xlink:href="#run_slope_flower11" id="use158" x="209.324" y="162.343"/><use xlink:href="#run_slope_flower11" id="use159" x="295.573" y="260.88"/><use xlink:href="#run_slope_flower10" id="use160" x="177.32" y="278.022"/><use xlink:href="#run_slope_flower10" id="use161" x="52.484" y="162.682"/><use xlink:href="#run_slope_flower4" id="use162" x="315.195" y="392.485"/><use xlink:href="#run_slope_flower4" id="use163" x="25.449" y="359.532"/><use xlink:href="#run_slope_flower4" id="use164" x="35.613" y="70.336"/><use xlink:href="#run_slope_flower4" id="use165" x="268.741" y="24.923"/><use xlink:href="#run_slope_flower4" id="use166" x="314.789" y="88.216"/><use xlink:href="#run_slope_flower4" id="use167" x="310.363" y="201.542"/><use xlink:href="#run_slope_flower4" id="use168" x="250.976" y="271.781"/><use xlink:href="#run_slope_flower4" id="use169" x="94.741" y="272.737"/><use xlink:href="#run_slope_flower9" id="use170" x="297.224" y="383.446"/><use xlink:href="#run_slope_flower9" id="use171" x="177.849" y="393.278"/><use xlink:href="#run_slope_flower9" id="use172" x="53.136" y="265.577"/><use xlink:href="#run_slope_flower9" id="use173" x="92.974" y="149.795"/><use xlink:href="#run_slope_flower9" id="use174" x="23.984" y="118.22"/><use xlink:href="#run_slope_flower9" id="use175" x="169.633" y="21.33"/><use xlink:href="#run_slope_flower9" id="use176" x="300.46" y="36.781"/><use xlink:href="#run_slope_flower9" id="use177" x="308.494" y="321.297"/><use xlink:href="#run_slope_flower9" id="use178" x="191.423" y="270.753"/><use xlink:href="#run_slope_flower8" id="use179" x="261.531" y="385.682"/><use xlink:href="#run_slope_flower8" id="use180" x="110.744" y="278.094"/><use xlink:href="#run_slope_flower8" id="use181" x="35.464" y="253.677"/><use xlink:href="#run_slope_flower8" id="use182" x="35.29" y="226.492"/><use xlink:href="#run_slope_flower8" id="use183" x="32.856" y="131.259"/><use xlink:href="#run_slope_flower8" id="use184" x="106.237" y="34.172"/><use xlink:href="#run_slope_flower8" id="use185" x="151.448" y="29.94"/><use xlink:href="#run_slope_flower8" id="use186" x="314.033" y="151.488"/><use xlink:href="#run_slope_flower8" id="use187" x="311.715" y="250.141"/><use xlink:href="#run_slope_flower8" id="use188" x="268.649" y="159.951"/><use xlink:href="#run_slope_flower7" id="use189" x="281.655" y="392.117"/><use xlink:href="#run_slope_flower7" id="use190" x="93.858" y="388.838"/><use xlink:href="#run_slope_flower7" id="use191" x="38.199" y="295.308"/><use xlink:href="#run_slope_flower7" id="use192" x="25.166" y="307.194"/><use xlink:href="#run_slope_flower7" id="use193" x="33.971" y="208.992"/><use xlink:href="#run_slope_flower7" id="use194" x="74.95" y="158.333"/><use xlink:href="#run_slope_flower7" id="use195" x="34.492" y="103.674"/><use xlink:href="#run_slope_flower7" id="use196" x="93.209" y="25.424"/><use xlink:href="#run_slope_flower7" id="use197" x="247.158" y="29.887"/><use xlink:href="#run_slope_flower7" id="use198" x="304.367" y="74.982"/><use xlink:href="#run_slope_flower7" id="use199" x="297.585" y="169.404"/><use xlink:href="#run_slope_flower7" id="use200" x="312.772" y="301.617"/><use xlink:href="#run_slope_flower7" id="use201" x="129.493" y="270.607"/><use xlink:href="#run_slope_flower7" id="use202" x="184.906" y="157.811"/><use xlink:href="#run_slope_flower6" id="use203" x="31.713" y="277.292"/><use xlink:href="#run_slope_flower6" id="use204" x="208.281" y="32.033"/><use xlink:href="#run_slope_flower6" id="use205" x="144.367" y="155.516"/><use xlink:href="#run_slope_flower3" id="use206" x="316.245" y="366.763"/><use xlink:href="#run_slope_flower3" id="use207" x="114.789" y="393.67"/><use xlink:href="#run_slope_flower3" id="use208" x="25.768" y="392.686"/><use xlink:href="#run_slope_flower3" id="use209" x="162.734" y="267.255"/><use xlink:href="#run_slope_flower3" id="use210" x="212.655" y="277.706"/><use xlink:href="#run_slope_flower3" id="use211" x="26.647" y="239.479"/><use xlink:href="#run_slope_flower3" id="use212" x="51.741" y="146.712"/><use xlink:href="#run_slope_flower3" id="use213" x="26.387" y="86.539"/><use xlink:href="#run_slope_flower3" id="use214" x="54.701" y="27.771"/><use xlink:href="#run_slope_flower3" id="use215" x="313.905" y="24.444"/><use xlink:href="#run_slope_flower3" id="use216" x="304.627" y="97.245"/><use xlink:href="#run_slope_flower3" id="use217" x="316.278" y="181.32"/><use xlink:href="#run_slope_flower3" id="use218" x="229.234" y="158.83"/><use xlink:href="#run_slope_flower2" id="use219" x="312.746" y="54.701"/><use xlink:href="#run_slope_flower2" id="use220" x="249.9" y="152.235"/><use xlink:href="#run_slope_flower2" id="use221" x="311.167" y="225.442"/><use xlink:href="#run_slope_flower1" id="use222" x="74.459" y="29.266"/><use xlink:href="#run_slope_flower1" id="use223" x="129.697" y="28.223"/><use xlink:href="#run_slope_flower1" id="use224" x="226.578" y="28.125"/><use xlink:href="#run_slope_flower1" id="use225" x="244.978" y="392.234"/><use xlink:href="#run_slope_flower1" id="use226" x="137.978" y="389.915"/><use xlink:href="#run_slope_flower1" id="use227" x="37.935" y="381.221"/><use xlink:href="#run_slope_flower1" id="use228" x="76.48" y="276.076"/><use xlink:href="#run_slope_flower1" id="use229" x="27.627" y="161.651"/><use xlink:href="#run_slope_flower3" id="use230" x="168.361" y="146.95"/><use xlink:href="#run_slope_flower10" id="use231" x="121.668" y="153.666"/><use xlink:href="#run_slope_flower10" id="use232" x="194.951" y="392.695"/><use xlink:href="#run_slope_flower10" id="use233" x="297.087" y="293.018"/><use xlink:href="#run_slope_flower10" id="use234" x="310.531" y="114.155"/><use xlink:href="#run_slope_flower10" id="use235" x="185.278" y="32.183"/><use xlink:href="#run_slope_flower10" id="use236" x="51.336" y="43.823"/><use xlink:href="#run_slope_flower1" id="use237" x="278.54" y="275.589"/><g id="g4" style="display:inline;stroke:#000;stroke-width:.103056;stroke-dasharray:none;stroke-opacity:1" transform="matrix(.97035 0 0 .97035 4.268 2.465)"><g id="text53310" aria-label="slope" style="font-style:normal;font-variant:normal;font-weight:400;font-stretch:normal;line-height:0%;font-family:Baskerville;-inkscape-font-specification:Baskerville;letter-spacing:0;word-spacing:0;fill:#000;fill-opacity:1;stroke:#000;stroke-width:.438091;stroke-linecap:butt;stroke-linejoin:miter;stroke-miterlimit:4;stroke-dasharray:none;stroke-opacity:1" transform="matrix(.23524 0 0 .23524 -60.326 42.446)"><path id="path53472" d="M735.174 235.25v-11.822h1.714q2.988 10.24 10.679 10.24 3.34 0 4.966-2.022 1.67-2.021 1.67-4.438 0-2.813-1.758-4.615-1.802-1.801-6.988-4.35-5.449-2.68-7.822-5.274-2.373-2.549-2.373-6.284 0-3.56 2.549-6.767 2.549-3.252 7.163-3.252 4.702 0 7.778 3.823.66-.66 1.714-3.208h1.626v11.118h-1.626q-.879-4-3.427-6.856-2.505-2.9-5.933-2.9-2.637 0-4.263 1.626t-1.626 3.78q0 2.372 1.802 4.086 1.758 1.758 6.724 4 7.47 3.383 9.14 6.591 1.67 3.252 1.67 6.24 0 4.702-3.12 7.647-3.076 2.944-7.778 2.944-4.966 0-8.833-4.087-1.187 1.319-1.934 3.78z" style="font-size:90px;line-height:1.25;stroke:#000;stroke-width:.438091;stroke-miterlimit:4;stroke-dasharray:none;stroke-opacity:1"/><path id="path53474" d="M775.384 173.682v48.076q0 5.757.132 7.251.176 1.494 1.274 2.285 1.1.791 3.912.791h1.054v2.022h-19.248v-2.022h1.23q2.637 0 3.736-.703 1.143-.747 1.362-2.065.22-1.318.22-7.559v-35.595q0-5.67-1.01-7.12-1.011-1.494-4.923-1.494v-2.021q2.681 0 6.285-.615 3.647-.616 5.01-1.23z" style="font-size:90px;line-height:1.25;stroke:#000;stroke-width:.438091;stroke-miterlimit:4;stroke-dasharray:none;stroke-opacity:1"/><path id="path53476" d="M786.546 216.045q0-8.261 5.537-13.798 5.538-5.581 13.623-5.581 8.13 0 13.667 5.58 5.538 5.582 5.538 13.8 0 9.096-5.625 14.326-5.625 5.185-13.58 5.185-7.954 0-13.579-5.273-5.58-5.318-5.58-14.239zm7.295.22q0 9.58 3.12 13.447 3.12 3.824 8.745 3.824 5.757 0 8.79-3.824 3.076-3.867 3.076-13.447 0-9.492-3.033-13.535-3.032-4.043-8.833-4.043-5.756 0-8.833 4.043-3.032 4-3.032 13.535z" style="font-size:90px;line-height:1.25;stroke:#000;stroke-width:.438091;stroke-miterlimit:4;stroke-dasharray:none;stroke-opacity:1"/><path id="path53478" d="M839.325 196.666h1.186q.747 2.46.747 5.932 2.813-2.988 6.02-4.438 3.253-1.494 6.856-1.494 7.47 0 12.437 5.273 4.966 5.23 4.966 13.843 0 8.437-5.01 14.106-4.966 5.67-13.096 5.67-3.34 0-6.416-1.363-3.032-1.318-5.757-3.955v13.667q0 6.24.22 7.602.264 1.363 1.406 2.022 1.143.703 4.263.703v2.021h-18.809v-2.021h1.319q3.12 0 4.043-.923.966-.879 1.098-2.153.176-1.23.176-7.251V211.21q0-5.756-.176-7.25-.132-1.495-1.23-2.286-1.099-.79-3.911-.79h-1.319v-2.022q4.35-.44 10.987-2.197zm1.933 30.673q2.373 2.9 5.01 4.395 2.68 1.45 5.625 1.45 4.966 0 8.657-4.263 3.692-4.262 3.692-13.579 0-8.086-3.56-12.085-3.56-3.999-8.481-3.999-3.033 0-5.757 1.538-2.725 1.539-5.186 4.659z" style="font-size:90px;line-height:1.25;stroke:#000;stroke-width:.438091;stroke-miterlimit:4;stroke-dasharray:none;stroke-opacity:1"/><path id="path53480" d="M911.087 210.289h-25.092q-.176 2.592-.176 3.867 0 9.492 2.944 14.282 2.988 4.746 8.877 4.746 7.998 0 11.338-7.163h2.11q-1.407 4.482-5.582 7.031-4.175 2.505-9.096 2.505-4.57 0-8.658-2.285-4.043-2.33-6.635-6.548-2.593-4.219-2.593-10.24 0-8.524 5.01-14.15 5.01-5.668 12.524-5.668 7.075 0 10.942 4.306 3.868 4.307 4.087 9.317zm-7.69-1.758q.132-1.01.132-1.802 0-3.867-2.285-5.977-2.242-2.153-5.538-2.153-7.998 0-9.536 9.932z" style="font-size:90px;line-height:1.25;stroke:#000;stroke-width:.438091;stroke-miterlimit:4;stroke-dasharray:none;stroke-opacity:1"/></g><g id="text53314" aria-label="=" style="font-style:normal;font-variant:normal;font-weight:400;font-stretch:normal;line-height:0%;font-family:STIXGeneral;-inkscape-font-specification:STIXGeneral;letter-spacing:0;word-spacing:0;fill:#000;fill-opacity:1;stroke:#000;stroke-width:.438091;stroke-linecap:butt;stroke-linejoin:miter;stroke-dasharray:none;stroke-opacity:1" transform="matrix(.23524 0 0 .23524 -60.326 42.446)"><path id="path53484" d="M1018.357 209.807v-5.94h-53.01v5.94zm0 18v-5.94h-53.01v5.94z" style="font-size:90px;line-height:1.25;stroke:#000;stroke-width:.438091;stroke-dasharray:none;stroke-opacity:1"/></g><g id="text53318" aria-label="rise" style="font-style:normal;font-variant:normal;font-weight:400;font-stretch:normal;line-height:0%;font-family:Baskerville;-inkscape-font-specification:Baskerville;letter-spacing:0;word-spacing:0;fill:#000;fill-opacity:1;stroke:#000;stroke-width:.438091;stroke-linecap:butt;stroke-linejoin:miter;stroke-miterlimit:4;stroke-dasharray:none;stroke-opacity:1" transform="matrix(.23524 0 0 .23524 -60.326 43.264)"><path id="path53488" d="M1123.613 129.077q1.494-3.911 4.834-6.548 3.384-2.636 6.592-2.636 2.9 0 4.57 1.801 1.67 1.802 1.67 3.692 0 1.274-.879 2.197-.835.923-2.065.923-2.197 0-3.34-3.252-.791-2.197-2.373-2.197-1.89 0-4.526 2.592-2.637 2.55-3.384 5.318-.747 2.768-.747 7.602v6.416q0 5.757.131 7.251.176 1.494 1.275 2.285 1.099.791 3.911.791h1.23v2.022h-19.116v-2.022h.923q2.637 0 3.735-.703 1.143-.747 1.363-2.065.22-1.318.22-7.559v-10.151q0-5.8-.176-7.251-.132-1.494-1.23-2.285-1.1-.835-3.912-.835h-.923v-1.978q4.131-.483 10.81-2.592 1.275 3.471 1.407 9.184z" style="font-size:90px;line-height:1.25;stroke:#000;stroke-width:.438091;stroke-miterlimit:4;stroke-dasharray:none;stroke-opacity:1"/><path id="path53490" d="M1147.52 101.523q0-1.89 1.318-3.252 1.362-1.362 3.252-1.362 1.89 0 3.208 1.362 1.318 1.363 1.318 3.252 0 1.934-1.318 3.296-1.319 1.363-3.208 1.363-1.89 0-3.252-1.363-1.319-1.362-1.319-3.296zm8.48 18.37v25.092q0 5.757.176 7.251.176 1.494 1.275 2.285 1.099.791 3.911.791h.923v2.022h-19.38v-2.022h1.494q3.12 0 4.043-.878.967-.923 1.099-2.154.176-1.274.176-7.295v-10.898q0-6.328-.616-7.734-.571-1.407-1.582-1.758-.967-.352-3.427-.352h-1.187v-2.021q7.822-.791 12.129-2.33z" style="font-size:90px;line-height:1.25;stroke:#000;stroke-width:.438091;stroke-miterlimit:4;stroke-dasharray:none;stroke-opacity:1"/><path id="path53492" d="M1167.646 158.477v-11.822h1.714q2.988 10.24 10.679 10.24 3.34 0 4.966-2.022 1.67-2.021 1.67-4.438 0-2.813-1.758-4.615-1.802-1.801-6.988-4.35-5.449-2.681-7.822-5.274-2.373-2.549-2.373-6.284 0-3.56 2.549-6.767 2.549-3.252 7.163-3.252 4.702 0 7.778 3.823.66-.66 1.714-3.208h1.626v11.118h-1.626q-.879-4-3.428-6.856-2.504-2.9-5.932-2.9-2.637 0-4.263 1.626t-1.626 3.78q0 2.372 1.802 4.086 1.758 1.758 6.724 4 7.47 3.383 9.14 6.591 1.67 3.252 1.67 6.24 0 4.702-3.12 7.647-3.076 2.944-7.778 2.944-4.966 0-8.833-4.087-1.187 1.319-1.934 3.78z" style="font-size:90px;line-height:1.25;stroke:#000;stroke-width:.438091;stroke-miterlimit:4;stroke-dasharray:none;stroke-opacity:1"/><path id="path53494" d="M1230.005 133.516h-25.093q-.176 2.592-.176 3.867 0 9.492 2.944 14.282 2.989 4.746 8.877 4.746 7.998 0 11.338-7.163h2.11q-1.407 4.482-5.581 7.031-4.175 2.505-9.097 2.505-4.57 0-8.657-2.285-4.043-2.33-6.636-6.548-2.593-4.219-2.593-10.24 0-8.524 5.01-14.15 5.01-5.668 12.524-5.668 7.076 0 10.943 4.306 3.867 4.307 4.087 9.317zm-7.69-1.758q.131-1.01.131-1.802 0-3.867-2.285-5.977-2.241-2.153-5.537-2.153-7.998 0-9.536 9.932z" style="font-size:90px;line-height:1.25;stroke:#000;stroke-width:.438091;stroke-miterlimit:4;stroke-dasharray:none;stroke-opacity:1"/></g><g id="text53322" aria-label="run" style="font-style:normal;font-weight:400;line-height:0%;font-family:sans-serif;letter-spacing:0;word-spacing:0;fill:#000;fill-opacity:1;stroke:#000;stroke-width:.438091;stroke-linecap:butt;stroke-linejoin:miter;stroke-miterlimit:4;stroke-dasharray:none;stroke-opacity:1" transform="matrix(.23524 0 0 .23524 -60.326 43.264)"><path id="path53497" d="M1123.613 268.85q1.494-3.911 4.834-6.548 3.384-2.636 6.592-2.636 2.9 0 4.57 1.801 1.67 1.802 1.67 3.692 0 1.274-.879 2.197-.835.923-2.065.923-2.197 0-3.34-3.252-.791-2.197-2.373-2.197-1.89 0-4.526 2.592-2.637 2.55-3.384 5.318-.747 2.768-.747 7.602v6.416q0 5.757.131 7.251.176 1.494 1.275 2.285 1.099.792 3.911.792h1.23v2.021h-19.116v-2.021h.923q2.637 0 3.735-.704 1.143-.747 1.363-2.065.22-1.318.22-7.559v-10.151q0-5.8-.176-7.251-.132-1.494-1.23-2.285-1.1-.835-3.912-.835h-.923v-1.978q4.131-.483 10.81-2.592 1.275 3.471 1.407 9.184z" style="font-style:normal;font-variant:normal;font-weight:400;font-stretch:normal;font-size:90px;line-height:1.25;font-family:Baskerville;-inkscape-font-specification:Baskerville;stroke:#000;stroke-width:.438091;stroke-miterlimit:4;stroke-dasharray:none;stroke-opacity:1"/><path id="path53500" d="M1180.61 261.116v23.598q0 5.89.176 7.383.176 1.494 1.274 2.241 1.143.748 4.043.748v2.021q-6.68.088-9.756 1.406h-.527q-1.406-2.417-1.494-8.35-2.68 4.175-6.152 6.285-3.428 2.11-7.603 2.11-3.603 0-6.372-1.627-2.769-1.67-3.823-4.043-1.011-2.373-1.011-7.163v-12.26q0-6.24-.22-7.603-.22-1.406-1.406-2.066-1.143-.659-4.263-.659v-2.021h12.217v24.96q0 3.692.44 5.362.439 1.67 2.24 2.944 1.802 1.23 4.176 1.23 3.383 0 6.46-2.196 3.076-2.242 4.174-4.703 1.143-2.504 1.143-7.119v-8.13q0-5.888-.132-7.163-.132-1.274-1.143-2.197-.966-.967-4.086-.967h-.923v-2.021z" style="font-style:normal;font-variant:normal;font-weight:400;font-stretch:normal;font-size:90px;line-height:1.25;font-family:Baskerville;-inkscape-font-specification:Baskerville;stroke:#000;stroke-width:.438091;stroke-miterlimit:4;stroke-dasharray:none;stroke-opacity:1"/><path id="path53502" d="M1200.825 259.666h1.187q1.01 2.724 1.142 7.426 3.164-3.735 6.636-5.58 3.472-1.846 7.25-1.846 4.307 0 7.032 1.801 2.769 1.802 3.56 4.439.79 2.593.79 7.602v11.25q0 6.24.22 7.603.22 1.362 1.363 2.065 1.186.66 4.306.66v2.021h-18.413v-2.021h.835q3.164 0 4.131-.923.967-.923 1.099-2.154.132-1.23.132-7.25v-11.602q0-4.263-.44-6.065-.395-1.845-2.241-3.252-1.802-1.406-4.614-1.406-3.208 0-6.153 1.934-2.9 1.89-5.493 5.713v14.677q0 6.24.22 7.603.264 1.362 1.406 2.065 1.187.66 4.35.66v2.021h-18.193v-2.021q3.033 0 4.219-.616 1.187-.615 1.45-1.845.308-1.275.308-7.867v-10.722q0-6.284-.264-7.603-.22-1.362-1.406-2.021-1.143-.703-4.307-.703v-2.022q4.834-.527 9.888-2.021z" style="font-style:normal;font-variant:normal;font-weight:400;font-stretch:normal;font-size:90px;line-height:1.25;font-family:Baskerville;-inkscape-font-specification:Baskerville;stroke:#000;stroke-width:.438091;stroke-miterlimit:4;stroke-dasharray:none;stroke-opacity:1"/></g><path id="path53324" d="M200.295 93.042h28.923" style="fill:none;stroke:#000;stroke-width:1.13361;stroke-linecap:butt;stroke-linejoin:miter;stroke-miterlimit:4;stroke-dasharray:none;stroke-opacity:1"/></g><g id="g3" style="display:inline;stroke:#000;stroke-width:.103056;stroke-dasharray:none;stroke-opacity:1" transform="matrix(.97035 0 0 .97035 4.254 4.783)"><g id="text53330" aria-label="rise" style="font-style:normal;font-variant:normal;font-weight:400;font-stretch:normal;line-height:0%;font-family:Baskerville;-inkscape-font-specification:Baskerville;letter-spacing:0;word-spacing:0;fill:#000;fill-opacity:1;stroke:#000;stroke-width:.438091;stroke-linecap:butt;stroke-linejoin:miter;stroke-miterlimit:4;stroke-dasharray:none;stroke-opacity:1" transform="matrix(.23524 0 0 .23524 -57.503 47.97)"><path id="path53437" d="M1218.95 700.37q1.494-3.912 4.834-6.549 3.384-2.636 6.592-2.636 2.9 0 4.57 1.801 1.67 1.802 1.67 3.692 0 1.274-.879 2.197-.835.923-2.065.923-2.197 0-3.34-3.252-.791-2.197-2.373-2.197-1.89 0-4.526 2.593-2.637 2.548-3.384 5.317-.747 2.768-.747 7.602v6.416q0 5.757.132 7.251.175 1.495 1.274 2.286 1.099.79 3.911.79h1.23v2.022h-19.116v-2.021h.923q2.637 0 3.736-.704 1.142-.747 1.362-2.065.22-1.318.22-7.559v-10.15q0-5.802-.176-7.252-.132-1.494-1.23-2.285-1.1-.835-3.912-.835h-.923v-1.978q4.131-.483 10.81-2.592 1.275 3.471 1.407 9.184z" style="font-size:90px;line-height:1.25;stroke:#000;stroke-width:.438091;stroke-miterlimit:4;stroke-dasharray:none;stroke-opacity:1"/><path id="path53440" d="M1242.856 672.816q0-1.89 1.319-3.252 1.362-1.363 3.252-1.363 1.89 0 3.208 1.363 1.318 1.362 1.318 3.252 0 1.933-1.318 3.295-1.319 1.363-3.208 1.363-1.89 0-3.252-1.363-1.319-1.362-1.319-3.295zm8.482 18.369v25.092q0 5.757.176 7.251.176 1.495 1.274 2.286 1.099.79 3.911.79h.923v2.022h-19.38v-2.021h1.494q3.12 0 4.043-.88.967-.922 1.099-2.153.176-1.274.176-7.295V705.38q0-6.328-.616-7.734-.57-1.407-1.582-1.758-.966-.352-3.427-.352h-1.187v-2.021q7.822-.791 12.13-2.33z" style="font-size:90px;line-height:1.25;stroke:#000;stroke-width:.438091;stroke-miterlimit:4;stroke-dasharray:none;stroke-opacity:1"/><path id="path53442" d="M1262.983 729.769v-11.822h1.714q2.989 10.24 10.679 10.24 3.34 0 4.966-2.022 1.67-2.021 1.67-4.438 0-2.813-1.758-4.615-1.802-1.801-6.987-4.35-5.45-2.68-7.823-5.274-2.373-2.548-2.373-6.284 0-3.56 2.55-6.767 2.548-3.252 7.162-3.252 4.702 0 7.778 3.823.66-.66 1.714-3.208h1.626v11.118h-1.626q-.879-3.999-3.427-6.855-2.505-2.9-5.933-2.9-2.637 0-4.263 1.625-1.626 1.626-1.626 3.78 0 2.373 1.802 4.086 1.758 1.758 6.724 4 7.47 3.383 9.14 6.591 1.67 3.252 1.67 6.24 0 4.703-3.12 7.647-3.076 2.944-7.778 2.944-4.966 0-8.833-4.087-1.187 1.319-1.934 3.78z" style="font-size:90px;line-height:1.25;stroke:#000;stroke-width:.438091;stroke-miterlimit:4;stroke-dasharray:none;stroke-opacity:1"/><path id="path53444" d="M1325.342 704.808h-25.093q-.176 2.593-.176 3.867 0 9.492 2.945 14.282 2.988 4.746 8.877 4.746 7.998 0 11.337-7.163h2.11q-1.406 4.483-5.581 7.031-4.175 2.505-9.097 2.505-4.57 0-8.657-2.285-4.043-2.329-6.636-6.548-2.593-4.218-2.593-10.239 0-8.525 5.01-14.15 5.01-5.67 12.524-5.67 7.076 0 10.943 4.307t4.087 9.317zm-7.69-1.758q.131-1.01.131-1.802 0-3.867-2.285-5.976-2.241-2.154-5.537-2.154-7.998 0-9.536 9.932z" style="font-size:90px;line-height:1.25;stroke:#000;stroke-width:.438091;stroke-miterlimit:4;stroke-dasharray:none;stroke-opacity:1"/></g><g id="text53334" aria-label="=" style="font-style:normal;font-variant:normal;font-weight:400;font-stretch:normal;line-height:0%;font-family:STIXGeneral;-inkscape-font-specification:STIXGeneral;letter-spacing:0;word-spacing:0;fill:#000;fill-opacity:1;stroke:#000;stroke-width:.438091;stroke-linecap:butt;stroke-linejoin:miter;stroke-dasharray:none;stroke-opacity:1" transform="matrix(.23524 0 0 .23524 -57.503 47.97)"><path id="path53448" d="M1147.018 704.327v-5.94h-53.01v5.94zm0 18v-5.94h-53.01v5.94z" style="font-size:90px;line-height:1.25;stroke:#000;stroke-width:.438091;stroke-dasharray:none;stroke-opacity:1"/></g><g id="text53338" aria-label="slope" style="font-style:normal;font-variant:normal;font-weight:400;font-stretch:normal;line-height:0%;font-family:Baskerville;-inkscape-font-specification:Baskerville;letter-spacing:0;word-spacing:0;fill:#000;fill-opacity:1;stroke:#000;stroke-width:.438091;stroke-linecap:butt;stroke-linejoin:miter;stroke-miterlimit:4;stroke-dasharray:none;stroke-opacity:1" transform="matrix(.23524 0 0 .23524 -57.503 47.97)"><path id="path53452" d="M615.93 729.77v-11.822h1.714q2.988 10.24 10.678 10.24 3.34 0 4.966-2.022 1.67-2.022 1.67-4.439 0-2.812-1.758-4.614-1.802-1.802-6.987-4.35-5.45-2.681-7.822-5.274-2.373-2.549-2.373-6.284 0-3.56 2.548-6.768 2.55-3.252 7.163-3.252 4.703 0 7.779 3.823.659-.659 1.714-3.208h1.626v11.119h-1.626q-.88-4-3.428-6.856-2.505-2.9-5.933-2.9-2.636 0-4.262 1.626-1.626 1.626-1.626 3.779 0 2.373 1.801 4.087 1.758 1.758 6.724 3.999 7.47 3.384 9.14 6.592 1.67 3.252 1.67 6.24 0 4.702-3.12 7.646-3.076 2.945-7.778 2.945-4.966 0-8.833-4.087-1.186 1.318-1.933 3.78z" style="font-size:90px;line-height:1.25;stroke:#000;stroke-width:.438091;stroke-miterlimit:4;stroke-dasharray:none;stroke-opacity:1"/><path id="path53454" d="M656.14 668.202v48.076q0 5.757.131 7.25.176 1.495 1.275 2.286 1.099.791 3.911.791h1.055v2.022h-19.248v-2.022h1.23q2.637 0 3.735-.703 1.143-.747 1.363-2.065.22-1.319.22-7.559v-35.596q0-5.669-1.011-7.119-1.011-1.494-4.922-1.494v-2.022q2.68 0 6.284-.615 3.648-.615 5.01-1.23z" style="font-size:90px;line-height:1.25;stroke:#000;stroke-width:.438091;stroke-miterlimit:4;stroke-dasharray:none;stroke-opacity:1"/><path id="path53456" d="M667.302 710.565q0-8.262 5.537-13.799 5.537-5.58 13.623-5.58 8.13 0 13.667 5.58 5.537 5.581 5.537 13.8 0 9.096-5.625 14.325-5.625 5.186-13.58 5.186-7.953 0-13.578-5.274-5.581-5.317-5.581-14.238zm7.295.22q0 9.58 3.12 13.447 3.12 3.823 8.745 3.823 5.757 0 8.789-3.823 3.076-3.867 3.076-13.447 0-9.492-3.032-13.535-3.032-4.043-8.833-4.043-5.757 0-8.833 4.043-3.032 3.999-3.032 13.535z" style="font-size:90px;line-height:1.25;stroke:#000;stroke-width:.438091;stroke-miterlimit:4;stroke-dasharray:none;stroke-opacity:1"/><path id="path53458" d="M720.08 691.185h1.187q.747 2.461.747 5.933 2.812-2.988 6.02-4.439 3.252-1.494 6.856-1.494 7.47 0 12.436 5.274 4.966 5.23 4.966 13.842 0 8.438-5.01 14.107-4.966 5.669-13.095 5.669-3.34 0-6.416-1.363-3.033-1.318-5.757-3.955v13.667q0 6.24.22 7.603.263 1.362 1.406 2.021 1.142.704 4.262.704v2.021h-18.808v-2.021h1.318q3.12 0 4.043-.923.967-.88 1.099-2.154.175-1.23.175-7.25V705.73q0-5.757-.175-7.25-.132-1.495-1.23-2.286-1.1-.791-3.912-.791h-1.318v-2.022q4.35-.439 10.986-2.197zm1.934 30.674q2.373 2.9 5.01 4.395 2.68 1.45 5.624 1.45 4.966 0 8.658-4.263 3.691-4.263 3.691-13.58 0-8.085-3.56-12.084-3.56-4-8.481-4-3.032 0-5.757 1.539-2.724 1.538-5.185 4.658z" style="font-size:90px;line-height:1.25;stroke:#000;stroke-width:.438091;stroke-miterlimit:4;stroke-dasharray:none;stroke-opacity:1"/><path id="path53460" d="M791.843 704.808H766.75q-.176 2.593-.176 3.867 0 9.493 2.945 14.283 2.988 4.746 8.877 4.746 7.998 0 11.337-7.163h2.11q-1.406 4.482-5.581 7.03-4.175 2.506-9.097 2.506-4.57 0-8.657-2.285-4.043-2.33-6.636-6.548-2.593-4.219-2.593-10.24 0-8.525 5.01-14.15 5.01-5.669 12.524-5.669 7.076 0 10.943 4.307 3.867 4.306 4.087 9.316zm-7.69-1.758q.131-1.01.131-1.801 0-3.868-2.285-5.977-2.241-2.153-5.537-2.153-7.998 0-9.536 9.931z" style="font-size:90px;line-height:1.25;stroke:#000;stroke-width:.438091;stroke-miterlimit:4;stroke-dasharray:none;stroke-opacity:1"/></g><g id="text53342" aria-label="run" style="font-style:normal;font-weight:400;line-height:0%;font-family:sans-serif;letter-spacing:0;word-spacing:0;fill:#000;fill-opacity:1;stroke:#000;stroke-width:.438091;stroke-linecap:butt;stroke-linejoin:miter;stroke-miterlimit:4;stroke-dasharray:none;stroke-opacity:1" transform="matrix(.23524 0 0 .23524 -57.503 47.97)"><path id="path53464" d="M909.486 700.37q1.494-3.911 4.834-6.548 3.384-2.637 6.592-2.637 2.9 0 4.57 1.802 1.67 1.802 1.67 3.691 0 1.275-.879 2.198-.835.922-2.065.922-2.198 0-3.34-3.251-.791-2.198-2.373-2.198-1.89 0-4.527 2.593-2.636 2.549-3.383 5.317-.747 2.769-.747 7.603v6.416q0 5.757.131 7.25.176 1.495 1.275 2.286 1.098.791 3.911.791h1.23v2.022H897.27v-2.022h.923q2.637 0 3.735-.703 1.143-.747 1.363-2.065.22-1.319.22-7.56v-10.15q0-5.801-.176-7.251-.132-1.495-1.23-2.286-1.1-.835-3.912-.835h-.923v-1.977q4.131-.483 10.81-2.593 1.275 3.472 1.407 9.185z" style="font-style:normal;font-variant:normal;font-weight:400;font-stretch:normal;font-size:90px;line-height:1.25;font-family:Baskerville;-inkscape-font-specification:Baskerville;stroke:#000;stroke-width:.438091;stroke-miterlimit:4;stroke-dasharray:none;stroke-opacity:1"/><path id="path53466" d="M966.483 692.635v23.599q0 5.889.176 7.383.176 1.494 1.274 2.241 1.143.747 4.043.747v2.022q-6.68.087-9.756 1.406h-.527q-1.406-2.417-1.494-8.35-2.68 4.175-6.152 6.284-3.428 2.11-7.603 2.11-3.603 0-6.372-1.626-2.769-1.67-3.823-4.043-1.011-2.373-1.011-7.163v-12.261q0-6.24-.22-7.603-.22-1.406-1.406-2.065-1.143-.66-4.263-.66v-2.02h12.217v24.96q0 3.692.44 5.362.439 1.67 2.24 2.944 1.803 1.23 4.176 1.23 3.383 0 6.46-2.197 3.076-2.241 4.174-4.702 1.143-2.505 1.143-7.12v-8.129q0-5.889-.132-7.163t-1.143-2.197q-.966-.967-4.086-.967h-.923v-2.022z" style="font-style:normal;font-variant:normal;font-weight:400;font-stretch:normal;font-size:90px;line-height:1.25;font-family:Baskerville;-inkscape-font-specification:Baskerville;stroke:#000;stroke-width:.438091;stroke-miterlimit:4;stroke-dasharray:none;stroke-opacity:1"/><path id="path53468" d="M986.698 691.185h1.186q1.011 2.725 1.143 7.427 3.164-3.735 6.636-5.581 3.471-1.846 7.25-1.846 4.307 0 7.032 1.802 2.769 1.802 3.56 4.438.79 2.593.79 7.603v11.25q0 6.24.22 7.602.22 1.363 1.363 2.066 1.186.66 4.306.66v2.02h-18.413v-2.02h.835q3.164 0 4.131-.924.967-.923 1.099-2.153t.132-7.251v-11.602q0-4.262-.44-6.064-.395-1.846-2.241-3.252-1.802-1.406-4.614-1.406-3.208 0-6.153 1.933-2.9 1.89-5.493 5.713v14.678q0 6.24.22 7.602.263 1.363 1.406 2.066 1.187.66 4.35.66v2.02H976.81v-2.02q3.032 0 4.219-.616 1.187-.615 1.45-1.846.308-1.274.308-7.866v-10.723q0-6.284-.264-7.602-.22-1.363-1.406-2.022-1.143-.703-4.307-.703v-2.021q4.834-.528 9.888-2.022z" style="font-style:normal;font-variant:normal;font-weight:400;font-stretch:normal;font-size:90px;line-height:1.25;font-family:Baskerville;-inkscape-font-specification:Baskerville;stroke:#000;stroke-width:.438091;stroke-miterlimit:4;stroke-dasharray:none;stroke-opacity:1"/></g><g id="g53348" style="stroke:#000;stroke-width:.217412;stroke-miterlimit:4;stroke-dasharray:none;stroke-opacity:1" transform="translate(-270.303 80.725) scale(.47401)"><path id="path53344" d="m858.01 272.35 19.89 19.89" style="fill:none;stroke:#000;stroke-width:2.39153;stroke-linecap:butt;stroke-linejoin:miter;stroke-miterlimit:4;stroke-dasharray:none;stroke-opacity:1"/><path id="path53346" d="m877.9 272.35-19.89 19.89" style="fill:none;stroke:#000;stroke-width:2.39153;stroke-linecap:butt;stroke-linejoin:miter;stroke-miterlimit:4;stroke-dasharray:none;stroke-opacity:1"/></g></g><g id="g2" style="display:inline;stroke:#000;stroke-width:.103056;stroke-dasharray:none;stroke-opacity:1" transform="matrix(.97035 0 0 .97035 4.339 5.641)"><g id="text53354" aria-label="slope" style="font-style:normal;font-variant:normal;font-weight:400;font-stretch:normal;line-height:0%;font-family:Baskerville;-inkscape-font-specification:Baskerville;letter-spacing:0;word-spacing:0;fill:#000;fill-opacity:1;stroke:#000;stroke-width:.438091;stroke-linecap:butt;stroke-linejoin:miter;stroke-miterlimit:4;stroke-dasharray:none;stroke-opacity:1" transform="matrix(.23524 0 0 .23524 -67.606 51.118)"><path id="path53404" d="M1112.736 1286.69v-11.821h1.714q2.988 10.24 10.679 10.24 3.34 0 4.966-2.022 1.67-2.022 1.67-4.439 0-2.812-1.758-4.614-1.802-1.802-6.988-4.35-5.449-2.681-7.822-5.274-2.373-2.549-2.373-6.284 0-3.56 2.549-6.768 2.549-3.252 7.163-3.252 4.702 0 7.778 3.823.66-.659 1.714-3.208h1.626v11.119h-1.626q-.879-4-3.428-6.856-2.505-2.9-5.932-2.9-2.637 0-4.263 1.626t-1.626 3.779q0 2.373 1.802 4.087 1.758 1.758 6.723 3.999 7.471 3.384 9.141 6.592 1.67 3.252 1.67 6.24 0 4.702-3.12 7.646-3.076 2.945-7.778 2.945-4.966 0-8.834-4.087-1.186 1.318-1.933 3.78z" style="font-size:90px;line-height:1.25;stroke:#000;stroke-width:.438091;stroke-miterlimit:4;stroke-dasharray:none;stroke-opacity:1"/><path id="path53406" d="M1152.946 1225.123v48.076q0 5.757.132 7.251.176 1.494 1.274 2.285 1.099.791 3.911.791h1.055v2.022h-19.248v-2.022h1.23q2.637 0 3.736-.703 1.142-.747 1.362-2.065.22-1.319.22-7.559v-35.596q0-5.669-1.01-7.119-1.012-1.494-4.923-1.494v-2.022q2.681 0 6.284-.615 3.648-.615 5.01-1.23z" style="font-size:90px;line-height:1.25;stroke:#000;stroke-width:.438091;stroke-miterlimit:4;stroke-dasharray:none;stroke-opacity:1"/><path id="path53408" d="M1164.108 1267.486q0-8.262 5.537-13.799 5.537-5.58 13.623-5.58 8.13 0 13.667 5.58 5.537 5.581 5.537 13.8 0 9.096-5.625 14.325-5.625 5.186-13.579 5.186-7.954 0-13.579-5.274-5.58-5.317-5.58-14.238zm7.295.22q0 9.58 3.12 13.447 3.12 3.823 8.745 3.823 5.757 0 8.79-3.823 3.076-3.867 3.076-13.447 0-9.492-3.033-13.535-3.032-4.043-8.833-4.043-5.757 0-8.833 4.043-3.032 3.999-3.032 13.535z" style="font-size:90px;line-height:1.25;stroke:#000;stroke-width:.438091;stroke-miterlimit:4;stroke-dasharray:none;stroke-opacity:1"/><path id="path53410" d="M1216.887 1248.106h1.186q.747 2.461.747 5.933 2.813-2.988 6.02-4.439 3.253-1.494 6.856-1.494 7.47 0 12.437 5.274 4.965 5.23 4.965 13.842 0 8.438-5.01 14.107-4.965 5.669-13.095 5.669-3.34 0-6.416-1.362-3.032-1.319-5.757-3.956v13.667q0 6.24.22 7.603.264 1.362 1.406 2.021 1.143.704 4.263.704v2.021H1205.9v-2.021h1.318q3.12 0 4.043-.923.967-.88 1.1-2.154.175-1.23.175-7.25v-32.696q0-5.757-.176-7.25-.132-1.495-1.23-2.286-1.099-.791-3.912-.791h-1.318v-2.022q4.35-.439 10.986-2.197zm1.933 30.674q2.373 2.9 5.01 4.395 2.68 1.45 5.625 1.45 4.966 0 8.657-4.263 3.692-4.263 3.692-13.579 0-8.086-3.56-12.085-3.56-3.999-8.481-3.999-3.033 0-5.757 1.538-2.725 1.538-5.186 4.658z" style="font-size:90px;line-height:1.25;stroke:#000;stroke-width:.438091;stroke-miterlimit:4;stroke-dasharray:none;stroke-opacity:1"/><path id="path53412" d="M1288.65 1261.73h-25.094q-.175 2.592-.175 3.866 0 9.493 2.944 14.283 2.988 4.746 8.877 4.746 7.998 0 11.338-7.163h2.11q-1.407 4.482-5.582 7.03-4.175 2.506-9.097 2.506-4.57 0-8.657-2.285-4.043-2.33-6.636-6.548-2.592-4.219-2.592-10.24 0-8.525 5.01-14.15 5.01-5.669 12.524-5.669 7.075 0 10.942 4.307 3.867 4.306 4.087 9.316zm-7.691-1.759q.132-1.01.132-1.801 0-3.868-2.286-5.977-2.24-2.153-5.537-2.153-7.998 0-9.536 9.931z" style="font-size:90px;line-height:1.25;stroke:#000;stroke-width:.438091;stroke-miterlimit:4;stroke-dasharray:none;stroke-opacity:1"/></g><g id="text53358" aria-label="rise" style="font-style:normal;font-variant:normal;font-weight:400;font-stretch:normal;line-height:0%;font-family:Baskerville;-inkscape-font-specification:Baskerville;letter-spacing:0;word-spacing:0;fill:#000;fill-opacity:1;stroke:#000;stroke-width:.438091;stroke-linecap:butt;stroke-linejoin:miter;stroke-miterlimit:4;stroke-dasharray:none;stroke-opacity:1" transform="matrix(.23524 0 0 .23524 -67.606 51.118)"><path id="path53416" d="M1153.354 1119.144q1.494-3.911 4.834-6.548 3.384-2.637 6.592-2.637 2.9 0 4.57 1.802 1.67 1.802 1.67 3.692 0 1.274-.879 2.197-.835.923-2.065.923-2.197 0-3.34-3.252-.79-2.197-2.373-2.197-1.89 0-4.526 2.592-2.637 2.55-3.384 5.318-.747 2.768-.747 7.602v6.416q0 5.757.132 7.251.175 1.494 1.274 2.285 1.099.791 3.911.791h1.23v2.022h-19.115v-2.022h.922q2.637 0 3.736-.703 1.142-.747 1.362-2.065.22-1.319.22-7.559v-10.151q0-5.8-.176-7.251-.132-1.494-1.23-2.285-1.1-.835-3.912-.835h-.922v-1.978q4.13-.483 10.81-2.593 1.274 3.472 1.406 9.185z" style="font-size:90px;line-height:1.25;stroke:#000;stroke-width:.438091;stroke-miterlimit:4;stroke-dasharray:none;stroke-opacity:1"/><path id="path53418" d="M1177.26 1091.59q0-1.89 1.319-3.252 1.362-1.362 3.252-1.362 1.89 0 3.208 1.362 1.318 1.363 1.318 3.252 0 1.934-1.318 3.296-1.318 1.363-3.208 1.363-1.89 0-3.252-1.363-1.318-1.362-1.318-3.296zm8.482 18.37v25.092q0 5.757.176 7.251.176 1.494 1.274 2.285 1.099.791 3.911.791h.923v2.022h-19.38v-2.022h1.494q3.12 0 4.043-.878.967-.923 1.099-2.154.176-1.274.176-7.295v-10.898q0-6.328-.615-7.735-.572-1.406-1.582-1.757-.967-.352-3.428-.352h-1.187v-2.021q7.823-.791 12.13-2.33z" style="font-size:90px;line-height:1.25;stroke:#000;stroke-width:.438091;stroke-miterlimit:4;stroke-dasharray:none;stroke-opacity:1"/><path id="path53420" d="M1197.388 1148.543v-11.82h1.713q2.989 10.238 10.679 10.238 3.34 0 4.966-2.021 1.67-2.022 1.67-4.439 0-2.812-1.758-4.614-1.802-1.802-6.987-4.35-5.45-2.681-7.823-5.274-2.373-2.549-2.373-6.284 0-3.56 2.55-6.768 2.548-3.252 7.162-3.252 4.702 0 7.779 3.824.659-.66 1.713-3.208h1.626v11.118h-1.626q-.879-4-3.427-6.856-2.505-2.9-5.933-2.9-2.637 0-4.263 1.626t-1.626 3.78q0 2.372 1.802 4.086 1.758 1.758 6.724 4 7.47 3.383 9.14 6.591 1.67 3.252 1.67 6.24 0 4.702-3.12 7.647-3.076 2.944-7.778 2.944-4.966 0-8.833-4.087-1.187 1.318-1.934 3.78z" style="font-size:90px;line-height:1.25;stroke:#000;stroke-width:.438091;stroke-miterlimit:4;stroke-dasharray:none;stroke-opacity:1"/><path id="path53422" d="M1259.746 1123.582h-25.093q-.176 2.593-.176 3.868 0 9.492 2.945 14.282 2.988 4.746 8.877 4.746 7.998 0 11.338-7.163h2.109q-1.406 4.482-5.581 7.031-4.175 2.505-9.097 2.505-4.57 0-8.657-2.285-4.043-2.33-6.636-6.548-2.593-4.219-2.593-10.24 0-8.525 5.01-14.15 5.01-5.668 12.525-5.668 7.075 0 10.942 4.306 3.867 4.307 4.087 9.316zm-7.69-1.757q.131-1.011.131-1.802 0-3.867-2.285-5.977-2.241-2.153-5.537-2.153-7.998 0-9.536 9.932z" style="font-size:90px;line-height:1.25;stroke:#000;stroke-width:.438091;stroke-miterlimit:4;stroke-dasharray:none;stroke-opacity:1"/></g><g id="text53362" aria-label="run" style="font-style:normal;font-weight:400;line-height:0%;font-family:sans-serif;letter-spacing:0;word-spacing:0;fill:#000;fill-opacity:1;stroke:#000;stroke-width:.438091;stroke-linecap:butt;stroke-linejoin:miter;stroke-miterlimit:4;stroke-dasharray:none;stroke-opacity:1" transform="matrix(.23524 0 0 .23524 -67.606 50.3)"><path id="path53425" d="M775.226 1196.073q1.494-3.911 4.834-6.548 3.384-2.637 6.592-2.637 2.9 0 4.57 1.802 1.67 1.802 1.67 3.691 0 1.275-.879 2.198-.835.923-2.065.923-2.197 0-3.34-3.252-.791-2.198-2.373-2.198-1.89 0-4.526 2.593-2.637 2.549-3.384 5.317-.747 2.77-.747 7.603v6.416q0 5.757.132 7.251.175 1.494 1.274 2.285 1.099.791 3.911.791h1.23v2.022H763.01v-2.022h.923q2.637 0 3.736-.703 1.142-.747 1.362-2.065.22-1.319.22-7.559v-10.151q0-5.801-.176-7.251-.132-1.494-1.23-2.285-1.1-.835-3.912-.835h-.923v-1.978q4.131-.483 10.81-2.593 1.275 3.472 1.407 9.185z" style="font-style:normal;font-variant:normal;font-weight:400;font-stretch:normal;font-size:90px;line-height:1.25;font-family:Baskerville;-inkscape-font-specification:Baskerville;stroke:#000;stroke-width:.438091;stroke-miterlimit:4;stroke-dasharray:none;stroke-opacity:1"/><path id="path53428" d="M832.223 1188.339v23.598q0 5.889.176 7.383.176 1.494 1.274 2.241 1.143.747 4.043.747v2.022q-6.68.088-9.755 1.406h-.528q-1.406-2.417-1.494-8.35-2.68 4.175-6.152 6.285-3.428 2.109-7.603 2.109-3.603 0-6.372-1.626-2.768-1.67-3.823-4.043-1.01-2.373-1.01-7.163v-12.26q0-6.241-.22-7.603-.22-1.407-1.407-2.066-1.142-.659-4.263-.659v-2.021h12.217v24.96q0 3.692.44 5.362t2.24 2.944q1.803 1.23 4.176 1.23 3.383 0 6.46-2.197 3.076-2.24 4.174-4.702 1.143-2.505 1.143-7.119v-8.13q0-5.888-.132-7.163-.132-1.274-1.142-2.197-.967-.967-4.087-.967h-.923v-2.021z" style="font-style:normal;font-variant:normal;font-weight:400;font-stretch:normal;font-size:90px;line-height:1.25;font-family:Baskerville;-inkscape-font-specification:Baskerville;stroke:#000;stroke-width:.438091;stroke-miterlimit:4;stroke-dasharray:none;stroke-opacity:1"/><path id="path53430" d="M852.438 1186.888h1.187q1.01 2.725 1.142 7.427 3.164-3.735 6.636-5.581 3.472-1.846 7.25-1.846 4.308 0 7.032 1.802 2.769 1.802 3.56 4.438.79 2.593.79 7.603v11.25q0 6.24.22 7.603.22 1.362 1.363 2.065 1.186.66 4.306.66v2.02h-18.413v-2.02h.835q3.164 0 4.131-.924.967-.923 1.099-2.153t.132-7.25v-11.603q0-4.262-.44-6.064-.395-1.846-2.241-3.252-1.802-1.406-4.614-1.406-3.208 0-6.153 1.934-2.9 1.89-5.493 5.712v14.678q0 6.24.22 7.603.264 1.362 1.406 2.065 1.187.66 4.35.66v2.02H842.55v-2.02q3.033 0 4.22-.616 1.186-.615 1.45-1.846.307-1.274.307-7.866v-10.723q0-6.284-.264-7.602-.22-1.362-1.406-2.022-1.143-.703-4.307-.703v-2.021q4.834-.528 9.888-2.022z" style="font-style:normal;font-variant:normal;font-weight:400;font-stretch:normal;font-size:90px;line-height:1.25;font-family:Baskerville;-inkscape-font-specification:Baskerville;stroke:#000;stroke-width:.438091;stroke-miterlimit:4;stroke-dasharray:none;stroke-opacity:1"/></g><g id="text53366" aria-label="=" style="font-style:normal;font-variant:normal;font-weight:400;font-stretch:normal;line-height:0%;font-family:STIXGeneral;-inkscape-font-specification:STIXGeneral;letter-spacing:0;word-spacing:0;fill:#000;fill-opacity:1;stroke:#000;stroke-width:.438091;stroke-linecap:butt;stroke-linejoin:miter;stroke-dasharray:none;stroke-opacity:1" transform="matrix(.23524 0 0 .23524 -67.606 50.3)"><path id="path53434" d="M1017.649 1199.874v-5.94h-53.01v5.94zm0 18v-5.94h-53.01v5.94z" style="font-size:90px;line-height:1.25;stroke:#000;stroke-width:.438091;stroke-dasharray:none;stroke-opacity:1"/></g><path id="path53368" d="M192.681 333.798h43.948" style="fill:none;stroke:#000;stroke-width:1.13361;stroke-linecap:butt;stroke-linejoin:miter;stroke-miterlimit:4;stroke-dasharray:none;stroke-opacity:1"/></g></svg>