<svg xmlns="http://www.w3.org/2000/svg" xmlns:xlink="http://www.w3.org/1999/xlink" width="300" height="150" aria-hidden="true" viewBox="0 -14.035 300 150"><defs><path id="a" stroke-width="1" d="m61 510-16 4c29 95 92 162 196 162 93 0 156-55 156-137 0-48-26-98-93-138 44-19 62-31 83-53 28-31 44-77 44-129 0-53-17-102-46-140-48-64-143-93-232-93C80-14 41 7 41 43c0 21 18 36 41 36 17 0 33-6 61-26 37-26 58-31 86-31 74 0 130 68 130 153 0 76-35 125-104 145-22 7-45 10-102 10v14c38 13 64 24 84 36 49 28 81 73 81 134 0 68-42 102-108 102-62 0-108-32-149-106z"/><path id="b" stroke-width="1" d="M621 220H64v66h557z"/><path id="c" stroke-width="1" d="m305 288 45 69c26 40 61 84 111 84 32 0 49-12 49-33 0-19-13-42-39-42-22 0-27 9-44 9-30 0-41-16-55-38l-55-85c30-62 53-197 98-197 16 0 40 14 61 57l14-10C478 87 433-9 375-9c-41 0-60 41-73 77l-40 113-63-98C167 34 138-9 82-9 46-9 30 16 30 38c0 16 13 37 38 37 26 0 22-20 47-20 12 0 38 10 70 59l65 101-33 92c-17 48-43 89-98 89-13 0-28-2-38-6l-3 18 132 33c44-24 63-65 75-98z"/><path id="d" stroke-width="1" d="M637 320H48v66h589zm0-200H48v66h589z"/><path id="e" stroke-width="1" d="M636 220H375V-41h-66v261H48v66h261v261h66V286h261z"/><path id="f" stroke-width="1" d="m304-161-12-16C134-87 48 82 48 252c0 185 87 329 247 424l9-16C165 541 134 448 134 255c0-186 30-299 170-416Z"/><path id="g" stroke-width="1" d="M394 0H118v15c74 4 95 25 95 80v449c0 34-9 49-30 49-10 0-27-5-45-12l-27-10v14l179 91 9-3V76c0-43 20-61 95-61z"/><path id="h" stroke-width="1" d="m29 660 12 16c153-92 244-259 244-429 0-185-88-327-247-424l-9 16C171-44 199 50 199 244c0 187-25 302-170 416Z"/></defs><path d="M115.098 42.543c.56-1.995.192-4.205-1.194-5.816-2.404-2.794-6.014-4.115-9.423-5.155-6.814-2.077-14.123-2.09-21.098-.882-4.63.803-9.484 2.458-12.594 6.163-2.058 2.452-1.526 6.345.776 8.456.964.85 2.13 1.859 3.465 1.886-.37-1.283-2.518-1.345-3.747-1.318-8.252.18-16.22 4.738-20.943 11.471-1.879 2.678-2.655 6.143-1.744 9.33 1.004 3.512 4.253 5.77 7.347 7.303 5.944 2.945 12.639 4.17 19.23 4.404 3.738.132 7.613.04 11.166-1.235 1.712-.615.787-1.79-.284-2.699-1.629-1.382-5.687-2.271-6.716.193-.923 2.209 1.773 4.267 3.334 5.718 5.848 5.434 13.742 8.03 21.456 9.514 8.611 1.655 17.704 2.55 26.245.164 1.967-.55 4.378-1.218 5.333-3.182.839-1.726-1.612-3.186-2.688-3.453-1.582-.393-4.194-.049-2.818 2.078 2.105 3.255 5.492 5.373 8.846 7.093 6.164 3.163 13.16 4.289 19.995 4.875 7.791.669 16.06.9 23.333-2.429 2.434-1.114 4.98-3.388 4.575-6.32-.327-2.375-2.235-4.752-4.686-4.924-2.5-.176-.569 2.603.562 3.373 3.1 2.113 6.515 3.787 10.133 4.722 6.802 1.657 14.114 1.427 20.727-.913 3.412-1.258 6.767-3.754 7.665-7.45.671-2.557-.218-5.582-2.467-7.07-.26-.144-.67-.157-.804.13-.802 1.709.876 3.475 2.204 4.419 4.003 2.377 9.022 1.86 13.307.574 5.637-1.692 11.14-5.196 13.596-10.737 2.872-6.182 1.189-13.632-2.751-18.945-4.584-6.283-11.993-9.795-19.397-11.53-1.97-.36-4.182-.928-6.055.046-.496.265-.566.915-.23 1.33 1.68 2.061 5.656 1.054 5.914-1.716.299-3.213-2.446-5.556-4.872-7.116-7.109-4.572-15.386-7.012-23.659-8.44-7.176-1.24-14.801-.743-21.52 2.126-2.845 1.215-5.94 2.836-7.377 5.762-1.364 2.774 1.957 6.72 4.404 5.816.24-.086.488-.179.664-.359.998-1.018.122-2.565-.748-3.39-2.736-2.595-6.533-3.595-10.149-4.255-3.398-.62-6.91-.633-10.285.13-3.512.796-7.076 2.232-9.533 4.95-.933 1.032-1.977 2.554-1.279 3.984.187.381.57.635.975.75 1.718.486 3.055-1.553 2.298-3.132-1.402-2.923-4.207-4.966-7.019-6.293-4.085-1.927-8.65-2.813-13.17-2.405a15.91 15.91 0 0 0-7.864 2.964c-1.76 1.272-3.03 3.054-3.863 5.076l-.107.258" style="fill:#e5f6ff;fill-opacity:1;stroke:#000;stroke-width:1.1;stroke-dasharray:none"/><use xlink:href="#a" transform="matrix(.01904 0 0 -.01904 75.13 65.756)"/><use xlink:href="#b" x="722" transform="matrix(.01904 0 0 -.01904 75.463 65.756)"/><use xlink:href="#c" x="1630" transform="matrix(.01904 0 0 -.01904 75.795 65.756)"/><use xlink:href="#d" x="2458" transform="matrix(.01904 0 0 -.01904 76.127 65.756)"/><use xlink:href="#a" x="3422" transform="matrix(.01904 0 0 -.01904 76.459 65.756)"/><use xlink:href="#e" x="4144" transform="matrix(.01904 0 0 -.01904 76.791 65.756)"/><use xlink:href="#f" x="5052" transform="matrix(.01904 0 0 -.01904 77.123 65.756)"/><use xlink:href="#b" x="5385" transform="matrix(.01904 0 0 -.01904 77.123 65.756)"/><use xlink:href="#g" x="6071" transform="matrix(.01904 0 0 -.01904 77.123 65.756)"/><use xlink:href="#h" x="6571" transform="matrix(.01904 0 0 -.01904 77.123 65.756)"/><use xlink:href="#c" x="6905" transform="matrix(.01904 0 0 -.01904 77.123 65.756)"/><path d="M122.675-104.799c.259-.699.581-1.38.835-1.95 1.03-1.7 1.766-2.347 3.404-3.446 1.984-1.33 2.457-1.537 4.788-2.141 3.332-.864 6.775-.52 10.08.267.788.238 1.586.44 2.362.713 2.631.926 5.328 2.24 7.35 4.202.393.38.72.823 1.081 1.235.232.394.506.767.697 1.182.492 1.073.525 2.427-.644 3.06-.203.11-.44.137-.66.206-.222-.015-.451.014-.665-.045-1.163-.32-1.299-1.542-.915-2.523.156-.397.404-.752.606-1.127.34-.398.643-.829 1.018-1.193 2.178-2.119 5.148-3.42 8.056-4.161.916-.233 1.855-.362 2.783-.543.948-.064 1.894-.186 2.844-.191 3.005-.016 6.932.664 9.774 1.66.67.235 1.31.545 1.965.817.536.317 1.095.599 1.608.95 1.06.727 2.74 2.131 2.399 3.656-.047.21-.21.377-.315.566-.201.112-.384.268-.604.335-1.248.377-2.617-.402-3.438-1.29-.25-.27-.43-.595-.644-.893-.313-.936-.544-1.26-.361-2.298.492-2.791 3.32-4.371 5.517-5.664.983-.434 1.94-.932 2.949-1.3 5.163-1.885 10.845-2.491 16.308-2.048 1.356.11 2.694.382 4.04.572 1.32.268 2.646.5 3.957.803 5.581 1.294 11.066 3.19 16.085 5.971 2.469 1.532 5.85 3.44 6.589 6.528.094.392.068.803.103 1.204-.078.354-.097.725-.232 1.06-.507 1.262-1.871 1.913-3.174 1.848-.31-.016-.61-.112-.914-.168-.473-.233-.931-.372-1.252-.822-.741-1.04.815-1.578 1.548-1.629.465-.008.93-.052 1.395-.025 1.34.078 2.692.351 3.987.68a40.893 40.893 0 0 1 7.944 2.91c.868.485 1.76.928 2.604 1.455 4.18 2.608 7.342 5.931 9.421 10.419.312.822.682 1.625.936 2.467.947 3.149 1.1 6.644.162 9.811-.226.765-.57 1.489-.855 2.233-1.11 1.923-1.193 2.307-2.706 3.963-2.31 2.527-5.265 4.242-8.438 5.456-.803.265-1.596.566-2.41.795-3.445.966-7.109 1.257-10.539.098-.461-.226-.945-.411-1.384-.68-1.174-.717-2.323-1.98-2.528-3.398-.024-.169.024-.34.036-.51.047-.113.068-.241.14-.34.591-.799 1.884 1.027 2.146 1.339.162.289.35.565.486.867.937 2.08.685 4.31-.347 6.3-.894 1.298-1.057 1.713-2.321 2.765-2.751 2.289-6.27 3.238-9.717 3.864-1.06.126-2.115.298-3.18.378-4.6.347-9.212-.163-13.605-1.575-3.09-1.182-6.243-2.533-8.602-4.93-.722-1.04-1.175-1.936.527-2.045 1.967.382 3.108 1.501 4.044 3.24.28.917.51 1.354.412 2.35-.157 1.602-1.206 2.963-2.452 3.908-.594.451-1.274.777-1.911 1.165-.845.34-1.668.744-2.535 1.02-6.66 2.126-14.03 1.805-20.894 1.25-1.669-.222-3.346-.389-5.006-.666-2.785-.465-6.25-1.232-8.956-2.137-2.964-.99-5.764-2.465-8.365-4.18-1.53-1.164-4.883-3.565-4.834-5.846.004-.184.111-.352.167-.527.15-.1.28-.244.452-.297 1.34-.413 3.39.773 4.376 1.58.376.511.776.82.648 1.533-.368 2.046-3.95 3.045-5.5 3.562-.974.208-1.94.46-2.923.623-6.689 1.104-13.518.587-20.168-.514-1.423-.285-2.855-.525-4.268-.855-5.848-1.364-11.555-3.489-16.411-7.086-1.646-1.386-3.311-2.73-4.462-4.586-.33-.534-.733-1.355-.68-2.038.019-.24.17-.452.254-.677.197-.16.364-.365.59-.478 1.68-.845 4.034-.078 5.603.648.386.274 1.065.615 1.212 1.162.407 1.519-3.469 1.951-4.139 2.088-.865.098-1.728.232-2.597.294-6.16.432-12.35-.386-18.267-2.102-1.183-.433-2.394-.796-3.549-1.299-2.814-1.225-5.845-2.96-7.649-5.542-.978-1.401-1.036-2.447-1.375-4.048.063-1.872-.062-2.335.568-4.139 1.066-3.047 3.345-5.457 5.674-7.59.663-.513 1.302-1.056 1.988-1.537 3.151-2.21 6.743-3.78 10.525-4.493 2.184-.3 5.083-.8 7.01.602.007.05.065.128.02.15-.29.14-.976-.194-1.1-.255a8.195 8.195 0 0 1-3.195-2.749c-.561-1.247-.91-1.696-.939-3.121-.065-3.21 2.196-4.982 4.636-6.593.877-.438 1.724-.945 2.632-1.314 4.666-1.899 10.242-2.452 15.237-2.443 1.355.002 2.708.115 4.062.173 1.166.186 2.34.327 3.498.558 3.588.718 8.01 2.053 11.008 4.238.493.36.89.834 1.336 1.25.308.423.664.814.925 1.267.905 1.57.796 2.898.449 4.57" style="fill:#fff5ed;stroke:#000"/><path d="M29.862 57.032c1.64.875 2.94 1.932 3.705 3.157.25.414.372.894.558 1.34.008.462.105.931.024 1.386-.385 2.169-2.571 3.482-4.508 4.04-.651.188-1.33.262-1.995.393-.73.045-1.458.142-2.189.136-2.757-.02-5.67-.741-7.808-2.57-.44-.376-.787-.85-1.18-1.275-.574-1.06-.99-1.48-.966-2.722.049-2.411 2.5-3.455 4.397-4.186.734-.178 1.457-.412 2.203-.535 2.627-.432 5.775-.369 8.297.57.27.102.51.272.767.407" style="fill:#e5f6ff;fill-opacity:1;stroke:#000;stroke-width:1.1;stroke-dasharray:none"/><path d="M-18.597 57.092c-.259-.137-.502-.308-.776-.41-2.541-.944-5.704-1.01-8.35-.575-.75.124-1.478.357-2.216.536-1.936.742-4.403 1.805-4.468 4.254-.033 1.27.393 1.7.976 2.786.398.432.748.913 1.194 1.294 2.153 1.846 5.09 2.575 7.87 2.597.734.006 1.467-.09 2.2-.136.67-.131 1.352-.205 2.008-.393 1.968-.566 4.177-1.897 4.578-4.096.085-.466-.012-.947-.018-1.421-.188-.458-.311-.95-.566-1.375-.902-1.51-2.284-2.337-3.744-3.201" style="fill:#fff5ed;stroke:#000"/><circle cx="-5.314" cy="-28.648" r=".044" style="fill:#fff5ed;stroke:#000"/><path d="M153.806 51.334c-.167-.26-.305-.54-.5-.78-1.154-1.417-2.796-2.534-4.552-3.041-.52-.15-1.062-.207-1.593-.311-2.936-.232-5.91.479-8.278 2.291-.494.379-.922.838-1.383 1.258-2.104 2.354-3.454 5.309-3.76 8.468-.062.65-.032 1.306-.049 1.959.19 2.59.969 5.12 2.697 7.116 1.096 1.265 1.56 1.429 2.942 2.327.544.244 1.069.537 1.632.732 2.228.771 4.756.811 6.972-.027.529-.2 1.014-.498 1.52-.747 2.395-1.618 3.885-4.011 4.537-6.806.122-.524.182-1.062.273-1.593.326-3.46-.691-5.864-2.496-8.715l-3.177 2.057c1.263 1.892 2.143 3.716 1.965 6.054-.35 2.319-.93 4.154-2.84 5.66-.282.16-.548.351-.846.483-1.807.797-3.816.559-5.56-.264-.343-.2-.705-.372-1.027-.604-1.843-1.323-2.669-3.425-2.885-5.618 0-.47-.036-.943 0-1.412.186-2.34 1.135-4.567 2.65-6.346.293-.286.562-.6.88-.859 1.56-1.275 3.567-1.8 5.553-1.703.324.053.653.084.973.16 1.06.248 2.09.929 2.723 1.816l3.628-1.555zM207.155 49.17c-1.593-1.483-3.547-2.352-5.563-3.091-3.68-1.173-7.541-1.48-11.378-1.62-2.908-.034-5.84.17-8.67.874-1.774.441-2.202.668-3.884 1.322-2.363 1.09-4.598 2.456-6.423 4.332-1.143 1.175-1.437 1.696-2.38 3.022-1.689 2.836-2.617 6.076-2.354 9.393.05.634.186 1.258.28 1.887.657 2.67 1.983 5.109 4.01 6.992 1.387 1.287 2.105 1.599 3.722 2.563 4.474 2.238 9.346 2.775 14.269 3.034 3.4.061 6.813-.298 10.089-1.233 1.939-.553 2.48-.838 4.314-1.598 2.324-1.187 4.761-2.593 6.302-4.782.983-1.395 1.184-2.218 1.775-3.78.688-2.338.914-4.774.55-7.191-.084-.563-.17-1.132-.35-1.673-.213-.642-.55-1.238-.825-1.857-.852-1.614-2.072-2.944-3.308-4.263l-2.701 2.584c.98.999 1.949 2.005 2.636 3.24.182.367.407.715.544 1.1.745 2.085.5 4.685-.01 6.784-.327.916-.573 1.799-1.116 2.618-1.17 1.766-3.098 2.899-4.913 3.872-1.578.682-2.095.96-3.767 1.459-2.925.873-5.985 1.204-9.03 1.153-4.31-.233-8.665-.687-12.6-2.6-.523-.309-1.065-.587-1.57-.924-2.173-1.452-3.688-3.553-4.355-6.08-.08-.46-.192-.917-.24-1.382-.256-2.528.414-5.001 1.67-7.185.738-1.058.994-1.51 1.88-2.45 1.48-1.568 3.325-2.688 5.255-3.617 1.395-.565 1.806-.783 3.28-1.17 2.536-.664 5.172-.834 7.783-.806 3.441.135 6.902.436 10.199 1.503 1.485.568 2.967 1.186 4.079 2.37l2.8-2.8z" style="fill:#ffa1a1;fill-opacity:.595855;stroke:none"/><path d="m39.425 197.056.183-.207c-1.014-.8-2.69-.49-3.97-.342-3.123.358-6.644 1.764-8.806 4.473-1.523 1.938-.842 4.802.754 6.441 2.548 2.842 6.587 3.703 10.184 3.288.252.002 2.031-.32 1.543-.508-.108-.147-.05-.704-.326-.26-.011 1.36 1.855 2.556 3.413 3.256 4.423 1.985 9.748 2.612 14.374.829 1.57-.57 4.58-2.56 2.873-4.428-.134-.146-.287-.18-.437-.245-.144-.063-.397.004-.35.191.419 1.65 3.399 1.316 4.806 1.135 2.28-.293 5.206-1.59 6.068-4.454.843-2.938-.967-5.92-3.111-7.35-2.147-1.433-5.293-1.925-7.585-.834-1.104.526-.654.957.2.694 1.394-.43 1.277-2.143 1.231-2.415-.306-1.81-2.266-3.632-3.599-4.41-2.71-1.585-6.528-2.427-9.566-2.637-3.256-.226-7.33-.316-9.646 2.21-1.526 1.666-.944 5.015.748 5.943" style="fill:#e5f6ff;fill-opacity:1;stroke:#000;stroke-width:.999999;stroke-dasharray:none"/><circle cx="70.077" cy="93.738" r=".002" style="fill:#e5f6ff;stroke:#000"/><path d="M138.721 65.285c-.625 2.59-1.542 5.096-2.417 7.609-.036.193-.385.903-.272.815.348.094.283-.68.597-.88.69-.937 1.867-1.46 3.016-1.477 1.037-.004 1.865.842 2.19 1.77.31.798.193 1.789-.457 2.387-.768.775-2.033.742-2.961.301a2.784 2.784 0 0 1-1.37-2.03c-.41-.046-.176.354-.124.595a2.893 2.893 0 0 0 2.506 1.978c.928.128 1.94-.24 2.448-1.054.69-1.005.359-2.395-.382-3.278-.497-.615-1.283-.986-2.078-.915-1.475.11-2.989 1.007-3.455 2.47-.202.393.36.533.353.071.933-2.753 1.953-5.483 2.666-8.305l-.26-.057zM211.061 75.442c-.975.482-2.122.407-3.148.14-.918-.253-1.885-.728-2.33-1.614.014-.186-.18-.305-.19-.237.439.758.46 1.69.35 2.54-.19.912-.598 1.919-1.492 2.34-.662.316-1.525-.068-1.738-.772-.243-.809-.003-1.68.346-2.42.47-.992 1.17-1.92 2.135-2.472-.046-.477-.437.004-.653.129-1.037.85-1.768 2.058-2.105 3.35-.189.816-.067 1.847.705 2.326.555.332 1.292.27 1.795-.137.857-.684 1.25-1.811 1.31-2.878.032-.73-.068-1.492-.417-2.142-.408-.41-.47.464-.172.67.646 1.02 1.865 1.486 3.007 1.689.854.122 1.783.186 2.584-.195.057-.031.113-.065.167-.102" style="fill:#000;fill-opacity:1;stroke:#000;stroke-width:.999998;stroke-dasharray:none;stroke-opacity:1"/></svg>