<svg xmlns="http://www.w3.org/2000/svg" xmlns:xlink="http://www.w3.org/1999/xlink" width="2077.428" height="586.361" viewBox="0 0 1947.589 549.714"><defs><path id="a" d="M667-346v-48C383-127 182 295 182 836c0 538 201 1002 485 1230v-44c-178-184-375-580-375-1186 0-613 197-962 375-1182Z"/><path id="b" d="M83 2018v48c284-267 485-685 485-1230C568 302 367-166 83-394v44C261-166 458 230 458 836c0 614-197 965-375 1182Z"/></defs><g style="display:inline"><path d="M959.304 721.184c-3.382 7.468-12.01 17.845-15.03 20.634-14.495 13.39-31.17 24.459-50.388 29.403-7.537 1.94-14.896 2.973-22.662 3.476-28.122 1.824-62.48-6.388-87.213-19.878-5.173-2.821-10.265-5.912-14.776-9.703-14.624-12.29-17.77-17.943-25.235-35.549-2.416.272-8.625 4.564-10.917 5.376-8.646 4.312-15.948 8.143-25.108 11.74-33.845 13.294-69.822 20.227-106.067 22.243-11.4-.115-22.82.31-34.201-.347-40.746-2.349-86.773-11.672-123.92-29.05-7.534-3.524-14.549-8.064-21.823-12.096-5.69-4.356-11.766-8.248-17.068-13.068-15.294-13.903-23.878-30.285-22.967-50.962" style="opacity:1;fill:none;fill-opacity:1;fill-rule:nonzero;stroke:#000;stroke-width:2.4375;stroke-linecap:butt;stroke-linejoin:round;stroke-miterlimit:100;stroke-dasharray:none;stroke-dashoffset:0;stroke-opacity:1"/><path d="M1249.563-273.685c27.117-11.035 54.825-20.866 83.68-26.248 9.398-1.753 18.9-2.9 28.35-4.35 9.896-.492 19.78-1.55 29.687-1.477 32.774.238 67.597 6.273 95.795 23.914 4.536 2.838 8.47 6.54 12.706 9.81 2.65 3.222 5.703 6.152 7.95 9.668 6.058 9.472 5.795 18.162 2.602 23.426 2.453-.29-2.316.92.01-.041 6.242-4.139 27.456-10.31 32.438-11.522 19.545-4.756 39.012-8.138 59.228-8.434 11.77-.173 23.507 1.28 35.261 1.921 12.032 2.667 24.316 4.383 36.097 8 33.735 10.359 65.23 28.399 90.337 53.297 6.82 6.763 12.336 14.724 18.504 22.086M1814.698-133.748c.669 2.024 1.688 3.921 2.1 5.68 2.099 9.376-.138 18.863-5.422 26.85-2.612 3.95-6.096 7.245-9.144 10.867-12.7 10.31-15.729 13.958-31.313 21.224-30.43 14.187-64.386 17.666-97.542 16.595-8.205-.876-16.452-1.416-24.614-2.629-24.198-3.594-49.293-9.763-69.828-23.552" style="opacity:1;fill:none;fill-opacity:1;fill-rule:nonzero;stroke:#000;stroke-width:2.8125;stroke-linecap:butt;stroke-linejoin:round;stroke-miterlimit:100;stroke-dasharray:none;stroke-dashoffset:0;stroke-opacity:1"/><path d="M1513.138 689.986c-5.795 1.327-11.546 3.132-16.535 4.07-18.342 3.364-21.573 2.513-40.618 2.631-7.215-.759-14.469-1.216-21.647-2.276-6.869-1.014-13.667-2.473-20.454-3.942-19.818-4.287-39.551-9.766-57.89-18.548-7.71-4.324-5.86-2.954-11.93-7.366-.795-.578-1.62-1.127-2.342-1.795-.217-.2-.17-.909-.434-.773-1.894.977-1.295 4.952-3.414 5.405-15.326 21.619-38.23 36.153-62.498 46.027-18.736 5.748-22.434 7.858-42.302 9.907-29.63 3.056-59.096-1.648-87.054-11.533-5.93-2.308-11.96-4.374-17.79-6.924-17.67-7.727-34.74-17.97-47.44-32.699" style="opacity:1;fill:none;fill-opacity:1;fill-rule:nonzero;stroke:#000;stroke-width:2.4375;stroke-linecap:butt;stroke-linejoin:round;stroke-miterlimit:100;stroke-dasharray:none;stroke-dashoffset:0;stroke-opacity:1"/><path d="M242.787-130.927c-3.383 3.426-6.508 7.176-9.517 9.976-14.506 13.378-30.98 23.444-50.021 29.036-7.677 1.281-15.263 3.34-23.03 3.844-28.121 1.823-62.479-6.388-87.213-19.878-5.173-2.822-9.85-6.47-14.775-9.704-10.321-9.799-10.347-8.74-17.894-19.58-1.824-2.618-6.343-13.597-11.384-13.029-2.416.273-4.583 1.624-6.874 2.436-8.647 4.313-15.949 8.143-25.109 11.741-33.845 13.293-69.822 20.226-106.067 22.242-11.4-.115-22.819.31-34.2-.346-40.747-2.35-86.774-11.672-123.92-29.05-7.534-3.524-14.55-8.065-21.824-12.097-5.69-4.356-11.766-8.248-17.068-13.068-15.293-13.903-23.877-30.285-22.967-50.961M520.033-155.226c.426 1.51 1.133 2.926 1.37 4.231 2.923 17.215-12.598 34.077-23.445 45.04-13.783 10.118-17.551 14.418-34.417 20.148-32.503 11.044-66.688 6.521-98.482-4.352-7.195-3.11-14.585-5.804-21.586-9.33-21.237-10.693-40.69-26.304-53.711-46.333M1038.263-207.866c-8.249 17.891-3.852 9.305-10.851 20.579-3.256 3.86-6.248 7.959-9.766 11.582-17.666 18.19-40.125 30.88-65.67 33.293-5.994.566-12.04-.082-18.06-.123-13.047-2.122-16.35-2.13-28.372-5.909-1.176-.37-12.592-4.446-13.834-6.179-.632-.882.09-5.832 2.043-2.535 7.553 12.074-12.646 22.747-19.96 27.996-4.77 2.53-9.399 5.347-14.31 7.588-43.389 19.8-91.854 23.985-138.938 21.122-37.648-4.706-75.703-9.616-109.822-27.42" style="opacity:1;fill:none;fill-opacity:1;fill-rule:nonzero;stroke:#000;stroke-width:2.8125;stroke-linecap:butt;stroke-linejoin:round;stroke-miterlimit:100;stroke-dasharray:none;stroke-dashoffset:0;stroke-opacity:1"/><path d="M-7.711-131.695c-23.261-.392-46.701 1.178-69.817-2.287-7.515-1.127-14.887-3.052-22.331-4.578-26.052-7.292-52.099-17.557-72.435-36.016-10.84-9.84-11.92-13.174-19.633-25.14-9.234-18.466-13.735-38.411-10.964-59.052 2.092-15.582 4.422-18.964 10.12-33.78 14.146-28.4 33.046-51.469 59.812-69.001 24.374-15.966 35.21-19.027 62.259-30.404 32.653-11.661 66.596-19.04 101.446-17.389 22.364 1.06 30.29 4.26 50.992 9.797M78.997-402.145c17.837-21.148 42.851-35.197 68.036-45.843 8.571-3.624 17.428-6.533 26.142-9.799 9.512-2.246 18.895-5.133 28.536-6.739 34.923-5.816 74.815-4.91 106.292 13.34 6.13 3.555 11.229 8.644 16.843 12.965 11.11 11.966 18.25 25.12 19.74 41.457.393 4.305.116 11.782-1.533 16.236-.362.978-1.297 1.634-1.945 2.45-.632-1.295-2.38-2.527-1.896-3.885 1.87-5.243 16.426-16.972 18.492-18.495 14.609-10.768 29.63-18.934 46.258-26.341 9.91-4.415 20.191-7.947 30.287-11.92 10.665-2.914 21.163-6.532 31.997-8.74 33.442-6.813 73.056-7.852 104.345 7.97 4.599 2.325 8.527 5.789 12.79 8.683M600.51-400.88c22.477-11.034 45.443-20.865 69.36-26.247 7.79-1.754 15.667-2.9 23.5-4.35 8.202-.492 16.394-1.55 24.606-1.477 27.166.238 56.031 6.272 79.404 23.914 3.76 2.838 7.021 6.54 10.532 9.81 2.196 3.222 4.727 6.152 6.59 9.667 5.02 9.473 5.335 20.643-1.271 28.756 1.044-1.852 1.584-4.317 3.13-5.554 5.175-4.14 23.063-10.126 27.193-11.338 16.2-4.756 32.336-8.138 49.093-8.435 9.756-.172 19.485 1.281 29.227 1.922 9.974 2.667 20.155 4.383 29.92 8 27.963 10.358 54.068 28.399 74.88 53.297 5.653 6.762 10.225 14.724 15.338 22.086M559.348-818.373c27.117-11.035 54.825-20.865 83.68-26.248 9.398-1.753 18.9-2.9 28.35-4.349 9.896-.493 19.78-1.55 29.687-1.478 32.774.238 67.597 6.273 95.795 23.915 4.536 2.838 8.471 6.54 12.706 9.809 2.65 3.223 5.703 6.153 7.95 9.668 6.058 9.472 5.795 18.162 2.602 23.426 2.453-.29-2.315.92.01-.041 6.243-4.139 27.456-10.309 32.438-11.521 19.545-4.757 39.012-8.139 59.228-8.435 11.77-.173 23.507 1.281 35.261 1.922 12.032 2.666 24.316 4.383 36.097 8 33.735 10.358 65.23 28.398 90.337 53.296 6.82 6.763 12.336 14.724 18.504 22.087M1124.483-678.435c.669 2.023 1.689 3.92 2.1 5.678 2.099 9.377-.138 18.865-5.422 26.852-2.612 3.948-6.096 7.244-9.144 10.866-12.7 10.31-15.728 13.958-31.313 21.224-30.43 14.187-64.386 17.666-97.542 16.595-8.205-.876-16.452-1.416-24.614-2.628-24.198-3.594-49.293-9.764-69.828-23.553M1003.792-62.598c-5.794 1.328-11.546 3.133-16.535 4.07-18.342 3.364-21.572 2.514-40.617 2.631-7.216-.758-14.47-1.216-21.647-2.276-6.869-1.014-13.668-2.473-20.454-3.941-19.819-4.288-39.551-9.766-57.89-18.55-7.71-4.323-5.86-2.953-11.93-7.364-.796-.579-1.62-1.127-2.342-1.795-.217-.201-.171-.91-.434-.774-1.894.977-1.295 4.953-3.414 5.405-15.327 21.619-38.23 36.153-62.499 46.027-18.736 5.749-22.434 7.859-42.301 9.908-29.63 3.055-59.097-1.65-87.054-11.533-5.93-2.309-11.96-4.375-17.79-6.925-17.67-7.726-34.74-17.97-47.44-32.699" style="opacity:1;fill:none;fill-opacity:1;fill-rule:nonzero;stroke:#000;stroke-width:2.8125;stroke-linecap:butt;stroke-linejoin:round;stroke-miterlimit:100;stroke-dasharray:none;stroke-dashoffset:0;stroke-opacity:1"/><path d="M40.308-410.262c-.322-3.658-.791-6.068.298-9.893 4.555-15.984 20.807-24.863 33.726-33.082 6.118-2.915 12.079-6.187 18.354-8.747 32.326-13.184 68.832-20 103.675-20.56 9.386-.151 18.76.69 28.141 1.034 31.674 3.225 63.132 11.12 87.568 32.66 11.742 10.35 12.62 13.684 20.484 26.33l5.003 12.271M782.716-142.417c-.133 2.673.402 5.313 0 7.522-1.534 7.77-4.792 10.027-9.782 16.161-3.516 2.78-6.833 5.832-10.55 8.338-21.28 14.354-46.778 22.651-71.805 27.417-7.437 1.416-14.989 2.146-22.483 3.219-7.557.362-15.106 1.063-22.672 1.087-25.271.083-54.88-4.06-78.827-12.459-4.895-1.716-9.56-4.027-14.339-6.041-3.87-2.265-7.907-4.267-11.612-6.794-10.544-7.19-19.821-17.436-21.94-30.36M-50.274 332.817c-22.699-.104-45.554 1.536-68.14-1.3-7.342-.921-14.554-2.554-21.831-3.831-25.487-6.204-50.998-15.048-71.016-31.231-10.671-8.627-11.756-11.577-19.396-22.124-9.186-16.306-13.768-33.975-11.262-52.338 1.892-13.863 3.254-17.287 9.55-30.112 12.674-25.815 32.133-43.917 58.064-61.205 23.04-15.36 37.595-21.546 60.079-29.091 35.31-11.849 64.8-16.894 98.818-15.794 3.606.117 6.828.29 9.82.49" style="opacity:1;fill:none;fill-opacity:1;fill-rule:nonzero;stroke:#000;stroke-width:2.8125;stroke-linecap:butt;stroke-linejoin:round;stroke-miterlimit:100;stroke-dasharray:none;stroke-dashoffset:0;stroke-opacity:1"/><path d="M-660.886 588.875c-22.698-.104-45.553 1.536-68.139-1.299a222.631 222.631 0 0 1-21.831-3.832c-25.573-5.839-50.999-15.047-71.016-31.23-8.44-6.823-13.68-13.002-19.396-22.125-9.937-15.859-12.306-36.06-9.792-52.338 1.595-10.326 3.258-16.538 8.106-26.692 10.465-21.921 30.596-41.963 55.473-56.293 20.634-11.886 39.87-19.12 62.396-25.227 30.447-8.255 68.963-11.323 99.37-9.425 3.606.226 6.841.57 9.464-.053-.975-4.453-1.65-6.816-.866-10.719 3.276-16.312 18.625-26.994 31.333-35.806 5.633-3.905 11.692-7.182 17.82-10.26 31.57-15.86 67.892-25.723 103.052-29.213 9.47-.94 19.014-.892 28.52-1.338 32.273.549 64.715 5.77 91.193 25.179 10.424 7.64 16.983 14.966 22.884 24.516 2.326 3.765 4.535 7.661 6.104 11.708a62.514 62.514 0 0 1 3.306 11.79c.748 4.257 1.093 11.732-.181 16.306-.28 1.005-1.027 3.036-2.335 3.178-.841-.59-2.199-1.693-1.715-3.05 1.87-5.244 16.426-16.973 18.492-18.496 14.608-10.768 29.63-18.934 46.257-26.341 9.911-4.415 19.99-8.505 30.287-11.92 10.494-3.481 21.164-6.532 31.997-8.74 33.443-6.813 73.057-7.852 104.346 7.97 7.751 3.92 19.651 13.086 23.907 20.995M-661.489 921.162c-22.698-.103-45.553 1.537-68.14-1.299a222.631 222.631 0 0 1-21.83-3.831c-25.574-5.84-50.999-15.048-71.017-31.231-8.439-6.823-13.68-13.002-19.395-22.124-9.938-15.86-12.306-36.06-9.792-52.338 1.595-10.326 3.257-16.539 8.105-26.693 10.465-21.92 30.596-41.962 55.474-56.292 20.634-11.886 39.87-19.12 62.396-25.228 27.386-7.425 61.173-9.76 89.703-8.768.256.009 5.059.294 4.394 1.727-.593 1.274-3.887-2.28-4-2.575-1.262-3.291-1.224-6.998-.505-10.58 3.276-16.312 18.626-26.995 31.333-35.806 5.633-3.906 11.692-7.182 17.82-10.261 31.57-15.859 67.892-25.723 103.052-29.213 9.47-.94 19.014-.891 28.52-1.337 32.273.548 64.715 5.77 91.193 25.178 10.424 7.641 16.984 14.967 22.884 24.516 2.326 3.766 4.535 7.662 6.105 11.708a62.514 62.514 0 0 1 3.305 11.79c.748 4.257 1.093 11.732-.181 16.307-.28 1.005-1.027 3.035-2.335 3.178-.84-.59-2.199-1.694-1.715-3.051 1.87-5.243 16.426-16.973 18.492-18.495 14.609-10.768 29.63-18.934 46.258-26.342 9.91-4.414 19.989-8.504 30.287-11.92 10.494-3.48 21.163-6.532 31.997-8.739 33.442-6.814 73.056-7.852 104.345 7.97 7.752 3.92 19.651 13.085 23.908 20.994M-662.354 1293.323c-16.887 1.74-36.103 2.17-54.004-.478-5.82-.861-12.697-1.676-18.406-3.213-20.268-5.455-39.836-14.058-55.701-29.178-6.689-6.374-11.577-12.882-16.107-21.405-7.876-14.816-9.386-34.056-7.394-49.265 1.264-9.647 2.582-16.921 6.425-26.408 9.037-22.314 24.637-40.718 44.118-53.632 16.476-10.922 28.722-16.457 49.148-22.53 21.842-6.494 51.991-7.518 72.135-4.902.2.026 4.009.274 3.482 1.613" style="opacity:1;fill:#d5f6ff;fill-opacity:1;fill-rule:nonzero;stroke:#000;stroke-width:2.8125;stroke-linecap:butt;stroke-linejoin:round;stroke-miterlimit:100;stroke-dasharray:none;stroke-dashoffset:0;stroke-opacity:1"/><path d="M-638.658 1083.925c-.47 1.19-3.08-2.13-3.17-2.405-1-3.075-.97-8.358-.4-11.704 2.596-15.24 14.761-25.22 24.833-33.453 4.464-3.649 9.266-6.71 14.123-9.586 25.02-14.817 53.808-24.032 81.675-27.293 7.506-.878 15.07-.833 22.604-1.25 25.578.513 51.29 5.391 72.275 23.524 8.262 7.139 13.46 13.983 18.137 22.905 1.844 3.518 3.595 7.158 4.838 10.938a66.7 66.7 0 0 1 2.62 11.014c.593 3.979.866 10.962-.144 15.236-.221.939-.813 2.836-1.85 2.969-.667-.552-1.743-1.582-1.359-2.85 1.482-4.899 13.018-15.857 14.656-17.28 11.578-10.06 23.483-17.69 36.662-24.61 7.854-4.124 15.842-7.945 24.004-11.137 8.317-3.252 16.773-6.102 25.36-8.164 26.504-6.366 57.9-7.337 82.7 7.446 6.143 3.662 15.574 12.225 18.947 19.614M-628.505 1544.328c-16.888 1.74-36.104 2.17-54.005-.479-5.819-.86-12.696-1.676-18.405-3.212-20.268-5.455-39.836-14.058-55.701-29.178-6.689-6.374-11.577-12.882-16.108-21.405-7.875-14.816-9.385-34.057-7.393-49.265 1.264-9.648 2.703-17.025 6.792-26.408 9.404-21.58 25.168-38.663 42.28-51.795 13.992-10.737 30.193-18.294 50.618-24.367 21.842-6.494 51.992-7.518 72.135-4.903.201.026 4.01.275 3.487 1.659-.431 1.146-2.852-1.926-2.935-2.181-.928-2.846-.9-7.734-.37-10.831 2.406-14.103 13.687-23.338 23.026-30.956 4.14-3.377 8.592-6.21 13.096-8.871 23.201-13.712 49.895-22.24 75.735-25.257 6.96-.812 13.973-.77 20.96-1.156 23.718.474 47.56 4.989 67.019 21.769 7.66 6.605 12.481 12.939 16.818 21.195 1.71 3.255 3.333 6.624 4.486 10.122a61.618 61.618 0 0 1 2.43 10.193c.55 3.68.802 10.143-.134 14.098-.206.869-.755 2.624-1.716 2.748-.618-.51-1.616-1.464-1.26-2.638 1.374-4.533 12.072-14.674 13.59-15.99 10.736-9.31 21.775-16.37 33.995-22.774 7.284-3.817 14.69-7.352 22.259-10.306 7.712-3.009 15.553-5.646 23.515-7.555 24.577-5.89 53.69-6.789 76.685 6.89 5.697 3.389 14.442 11.314 17.57 18.151M-614.538 1879.59c-16.887 1.74-36.103 2.17-54.004-.478-5.82-.861-12.697-1.676-18.405-3.213-20.269-5.455-39.837-14.058-55.702-29.178-6.689-6.374-11.577-12.882-16.107-21.405-7.876-14.816-9.386-34.056-7.393-49.265 1.264-9.647 2.957-16.918 6.791-26.408 19.534-41.458 52.86-64.32 92.899-76.162 21.868-6.407 51.991-7.518 72.135-4.902.2.026 4.009.274 3.487 1.658-.432 1.146-2.852-1.926-2.936-2.18-.927-2.847-.9-7.735-.37-10.832 2.407-14.103 13.687-23.338 23.026-30.956 4.14-3.377 8.593-6.21 13.097-8.871 23.2-13.711 49.894-22.239 75.734-25.256 6.96-.813 13.974-.771 20.96-1.157 23.718.475 47.56 4.989 67.02 21.769 7.66 6.606 12.48 12.939 16.817 21.195 1.71 3.256 3.333 6.624 4.486 10.123a61.618 61.618 0 0 1 2.43 10.192c.55 3.681.803 10.143-.134 14.099-.205.868-.754 2.624-1.715 2.747-.619-.51-1.616-1.464-1.26-2.638 1.373-4.533 12.071-14.674 13.589-15.99 10.736-9.31 21.776-16.37 33.996-22.773 7.283-3.817 14.69-7.353 22.258-10.306 7.712-3.01 15.553-5.647 23.515-7.556 24.578-5.89 53.69-6.789 76.685 6.89 4.73 2.814 11.54 8.772 15.536 14.606 7.049 10.29 9.452 25.588 5.413 33.412l1.533-1.116c.597-1.53.896-2.986 1.526-4.3 8.467-17.312 32.396-34.89 48.526-43.932 14.506-8.131 25.514-12.7 43.547-17.261 34.753-8.79 61.03-1.99 81.224 10.964 4.157 3.577 8.744 6.754 12.47 10.731 11.305 12.063 17.956 28.895 16.31 49.686-2.705 1.896-1.209-.41-.407-2.022 9.827-19.008 31.042-34.846 54.218-44.371 15.681-6.445 24.984-8.6 32.907-10.295 7.917-1.694 19.785-2.743 27.743-2.616 26.325.421 54.991 6.793 78.364 24.434 3.76 2.838 7.021 6.54 10.532 9.81 2.196 3.222 4.727 6.152 6.59 9.667 5.02 9.473 5.335 20.643-1.271 28.756 1.044-1.851 1.584-4.317 3.13-5.554 5.175-4.139 23.063-10.125 27.193-11.338 16.2-4.756 32.336-8.138 49.093-8.434 9.756-.173 19.485 1.28 29.227 1.921 9.974 2.667 20.155 4.383 29.92 8 27.963 10.359 54.068 28.399 74.88 53.297 5.653 6.763 10.225 14.724 15.338 22.086" style="opacity:1;fill:#d5f6ff;fill-opacity:1;fill-rule:nonzero;stroke:#000;stroke-width:2.8125;stroke-linecap:butt;stroke-linejoin:round;stroke-miterlimit:100;stroke-dasharray:none;stroke-dashoffset:0;stroke-opacity:1"/><path d="M-606.455 2346.667c-16.887 1.808-36.103 2.255-54.004-.497-5.82-.895-12.696-1.742-18.405-3.338-20.268-5.667-39.836-14.605-55.702-30.313-6.688-6.622-11.577-13.383-16.107-22.238-7.876-15.393-9.386-35.381-7.393-51.181 1.264-10.023 2.957-17.577 6.792-27.436 19.533-43.071 52.86-66.822 92.898-79.125 9.316-2.836 20.131-4.673 31.034-5.638 1.94-.17.707-.723 1.034-.279-.5 1.262-3.145-.204-3.924-2.304-1.075-3.133-1.043-8.515-.43-11.924 2.792-15.526 15.874-25.693 26.704-34.08 4.8-3.718 9.964-6.837 15.187-9.767 26.906-15.095 57.862-24.483 87.828-27.805 8.072-.895 16.205-.85 24.307-1.273 27.505.522 55.154 5.492 77.72 23.965 8.884 7.273 14.474 14.245 19.503 23.335 1.983 3.584 3.865 7.292 5.203 11.144a64.988 64.988 0 0 1 2.817 11.221c.638 4.053.932 11.167-.154 15.522-.239.956-.876 2.889-1.937 3.408-.74-.187-2.037-1.254-1.79-2.566.954-5.07 11.962-16.41 13.541-17.882 11.171-10.411 23.015-18.305 36.326-25.466 7.934-4.268 16.052-8.221 24.44-11.523 8.548-3.364 17.299-6.313 26.294-8.446 27.767-6.585 61.523-7.585 90.233 7.718 5.906 3.148 14.68 9.812 20.16 16.337 9.668 11.51 15.098 27.776 11.465 36.572l-.248-.631c.693-1.684 1.039-3.287 1.77-4.733 9.818-19.06 38.9-38.932 57.607-48.887 16.821-8.952 29.587-13.982 50.5-19.003 40.302-9.677 70.775-2.19 94.193 12.07 4.82 3.939 10.14 7.436 14.462 11.815 13.109 13.28 20.823 31.811 18.913 54.701-3.137 2.087-1.401-.452-.472-2.226 11.396-20.927 36-38.363 62.876-48.85 18.185-7.096 28.973-9.468 38.162-11.334 9.18-1.865 22.944-3.02 32.172-2.88 30.528.464 63.772 7.478 90.877 26.9 4.36 3.125 8.142 7.2 12.214 10.8 2.547 3.548 5.481 6.774 7.642 10.643 5.822 10.429 6.187 22.727-1.474 31.658 1.21-2.038 1.837-4.752 3.63-6.114 6.001-4.557 22.622-11.374 27.308-13.034 18.42-6.522 41.727-8.408 61.159-8.734 11.313-.19 22.715.335 33.894 2.115a198.71 198.71 0 0 1 34.698 8.808c32.428 11.404 62.701 31.265 86.836 58.676 6.555 7.445 11.858 16.21 17.787 24.315M-600.574 2787.681c-16.888 1.808-36.104 2.255-54.005-.497-5.82-.895-12.696-1.741-18.405-3.338-20.268-5.667-39.836-14.605-55.702-30.313-6.688-6.622-11.576-13.383-16.107-22.237-7.876-15.393-9.385-35.382-7.393-51.182 1.264-10.023 2.957-17.577 6.792-27.436 19.533-43.071 52.86-66.822 92.898-79.125 9.317-2.836 20.131-4.673 31.034-5.638 1.94-.17.707-.723 1.034-.279-.5 1.262-3.145-.204-3.924-2.303-1.075-3.133-1.043-8.515-.43-11.925 2.792-15.526 15.874-25.693 26.704-34.08 4.8-3.718 9.964-6.837 15.188-9.767 26.905-15.095 57.861-24.483 87.827-27.805 8.072-.895 16.205-.849 24.307-1.273 27.505.522 55.154 5.492 77.72 23.965 8.884 7.273 14.475 14.246 19.503 23.335 1.983 3.584 3.866 7.292 5.203 11.144a64.984 64.984 0 0 1 2.817 11.221c.638 4.053.932 11.167-.154 15.522-.239.956-.875 2.889-1.937 3.408-.74-.187-2.037-1.254-1.79-2.566.954-5.07 11.962-16.41 13.541-17.882 11.171-10.41 23.015-18.305 36.327-25.466 7.934-4.268 16.051-8.221 24.44-11.523 8.547-3.364 17.298-6.313 26.293-8.446 27.767-6.585 61.524-7.585 90.234 7.718 5.905 3.148 14.679 9.812 20.16 16.338 9.668 11.51 15.097 27.775 11.464 36.571l-.248-.631c.693-1.684 1.039-3.287 1.77-4.733 9.819-19.06 38.9-38.931 57.607-48.887 16.822-8.952 29.587-13.982 50.5-19.003 40.302-9.677 70.775-2.19 94.193 12.07 4.82 3.939 10.14 7.436 14.462 11.815 13.11 13.28 20.823 31.812 18.914 54.701-3.137 2.087-1.402-.452-.473-2.226 11.396-20.927 36-38.363 62.877-48.85 18.184-7.095 28.973-9.468 38.16-11.334 9.182-1.865 22.945-3.02 32.173-2.88 30.528.464 63.772 7.478 90.877 26.9 4.36 3.125 8.143 7.2 12.214 10.8 2.547 3.548 5.481 6.774 7.642 10.644 5.822 10.428 6.188 22.726-1.474 31.657 1.21-2.038 1.837-3.65 3.63-5.012 4.94-4.081 10.359-6.95 19.59-9.551 27.227-7.672 61.234-5.758 86.65 12.063 23.3 16.339 36.76 34.634 44.227 58.112 4.837 15.212 6.579 32.783 5.702 47.073-.763 12.444-3.512 24.479-7.93 35.135-6.451 15.554-15.079 28.415-29.913 41.164-17.41 14.963-41.143 25.599-66.71 27.58-16.273 1.262-34.907-.808-46.43-4.088-1.178-.335-12.594-4.063-13.835-5.647-.632-.806.089-5.331 2.042-2.317 7.554 11.035-12.645 20.791-19.96 25.588-4.77 2.312-9.398 4.888-14.31 6.936-43.388 18.098-91.853 21.923-138.937 19.306-37.648-4.301-75.703-8.79-109.822-25.062" style="opacity:1;fill:#d5f6ff;fill-opacity:1;fill-rule:nonzero;stroke:#000;stroke-width:2.81250024;stroke-linecap:butt;stroke-linejoin:round;stroke-miterlimit:100;stroke-dasharray:none;stroke-dashoffset:0;stroke-opacity:1"/><path d="M-606.455 3243.396c-16.887 1.808-36.103 2.255-54.004-.498-5.82-.894-12.696-1.74-18.405-3.337-20.268-5.667-39.836-14.605-55.702-30.313-6.688-6.622-11.577-13.383-16.107-22.238-7.876-15.393-9.386-35.382-7.393-51.182 1.264-10.023 2.957-17.576 6.792-27.435 19.533-43.072 52.86-66.822 92.898-79.125 9.316-2.836 20.131-4.673 31.034-5.638 1.94-.17.707-.724 1.034-.28-.5 1.263-3.145-.203-3.924-2.303-1.075-3.133-1.043-8.515-.43-11.924 2.792-15.526 15.874-25.694 26.704-34.08 4.8-3.718 9.964-6.837 15.187-9.767 26.906-15.095 57.862-24.484 87.828-27.806 8.072-.894 16.205-.848 24.307-1.273 27.505.523 55.154 5.492 77.72 23.966 8.884 7.273 14.474 14.245 19.503 23.334 1.983 3.585 3.865 7.293 5.203 11.145a64.984 64.984 0 0 1 2.817 11.22c.638 4.054.932 11.168-.154 15.523-.239.956-.876 2.888-1.937 3.408-.74-.188-2.037-1.254-1.79-2.566.954-5.07 11.962-16.41 13.541-17.883 11.171-10.41 23.015-18.305 36.326-25.465 7.934-4.268 16.052-8.221 24.44-11.523 8.548-3.365 17.299-6.313 26.294-8.447 27.767-6.584 61.523-7.584 90.233 7.719 5.906 3.148 14.68 9.812 20.16 16.337 9.668 11.51 15.098 27.776 11.465 36.572l-.248-.632c.693-1.683 1.039-3.286 1.77-4.732 9.818-19.06 38.9-38.932 57.607-48.887 16.821-8.952 29.587-13.982 50.5-19.004 40.302-9.676 70.775-2.19 94.193 12.072 4.82 3.938 10.14 7.435 14.462 11.813 13.109 13.281 20.823 31.812 18.913 54.702-3.137 2.086-1.401-.452-.472-2.226 11.396-20.927 36-38.364 62.876-48.85 18.185-7.096 28.973-9.468 38.162-11.335 9.18-1.864 22.944-3.02 32.172-2.88 30.528.465 63.772 7.479 90.877 26.901 4.36 3.125 8.142 7.2 12.214 10.8 2.547 3.547 5.481 6.773 7.642 10.643 5.822 10.429 6.187 22.727-1.474 31.658 1.21-2.038 1.837-3.65 3.63-5.012 4.94-4.081 10.359-6.95 19.59-9.552 27.227-7.671 61.234-5.757 86.649 12.064 23.302 16.338 36.762 34.634 44.227 58.111 4.838 15.213 6.58 32.783 5.703 47.074-.763 12.444-3.512 24.478-7.931 35.134-6.45 15.554-15.078 28.415-29.912 41.164-17.41 14.964-41.143 25.6-66.71 27.581-16.273 1.262-34.907-.809-46.431-4.088-1.177-.335-12.593-4.064-13.834-5.648-.632-.806.089-5.33 2.042-2.317-2.425 10.756-10.9 19.191-21.04 25.542-21.322 13.356-60.078 21.647-106.228 11.956-23.434-4.922-42.627-20.55-42.935-29.473l1.686-2.312c-.182 2.668.196 5.324-.2 7.52-1.491 7.716-3.89 10.288-8.62 15.841-2.67 3.134-5.877 5.612-9.055 7.999-18.2 13.67-39.77 21.153-60.853 25.121-6.265 1.18-12.607 1.669-18.91 2.503-6.338.122-12.677.583-19.013.367-21.162-.72-45.843-5.801-65.67-14.957-4.053-1.871-7.897-4.33-11.846-6.494-3.18-2.386-6.506-4.516-9.541-7.159-8.637-7.522-16.133-18.058-17.48-31.258-2.923 14.103-15.19 26.33-25.599 34.059-35.662 26.481-100.976 43.23-159.894 25.714-31.936-9.494-50.52-32.042-51.213-44.176-.053-3.02.46-5.615 3.322-6.45-.441 1.156-.447 2.27-1.006 3.257-7.608 13.007-37.062 25.34-58.989 31.589-19.717 5.619-35.177 8.644-61.412 11.336-50.56 5.188-92.962-1.298-127.945-12.263-7.485-2.962-15.504-5.634-22.453-8.885-21.077-9.863-36.501-23.2-40.43-39.217M-585.874 3799.073c-16.887 1.809-36.103 2.255-54.004-.497-5.82-.894-12.697-1.741-18.405-3.337-20.269-5.667-39.837-14.605-55.702-30.313-6.689-6.622-11.577-13.384-16.107-22.238-7.876-15.393-9.386-35.382-7.393-51.182 1.264-10.023 2.957-17.576 6.791-27.436 19.534-43.07 52.86-66.822 92.899-79.124 9.316-2.836 20.13-4.673 31.034-5.638 1.94-.17.706-.724 1.034-.28-.501 1.263-3.145-.203-3.924-2.303-1.076-3.133-1.043-8.515-.43-11.924 2.792-15.526 15.873-25.694 26.704-34.08 4.8-3.718 9.964-6.837 15.187-9.768 26.906-15.094 57.862-24.483 87.828-27.805 8.071-.895 16.204-.849 24.307-1.273 27.505.523 55.154 5.492 77.72 23.966 8.884 7.272 14.474 14.245 19.503 23.334 1.982 3.585 3.865 7.293 5.203 11.145a64.988 64.988 0 0 1 2.817 11.22c.638 4.053.931 11.168-.155 15.522-.238.957-.875 2.89-1.937 3.409-.74-.188-2.036-1.254-1.79-2.567.955-5.07 11.962-16.41 13.542-17.882 11.17-10.41 23.015-18.305 36.326-25.465 7.934-4.268 16.052-8.222 24.44-11.523 8.548-3.365 17.298-6.314 26.294-8.447 27.767-6.584 61.523-7.584 90.233 7.718 5.906 3.148 14.679 9.812 20.16 16.338 9.668 11.51 15.098 27.775 11.465 36.572l-.248-.632c.692-1.683 1.038-3.286 1.77-4.732 9.818-19.06 38.9-38.932 57.606-48.887 16.822-8.952 29.587-13.983 50.5-19.004 40.303-9.676 70.776-2.19 94.193 12.071 4.821 3.938 10.14 7.436 14.463 11.814 13.109 13.281 20.823 31.812 18.913 54.702-3.137 2.086-1.402-.452-.472-2.226 11.396-20.927 36-38.364 62.876-48.85 18.185-7.096 28.973-9.468 38.161-11.335 9.181-1.865 22.944-3.02 32.173-2.88 30.528.465 63.772 7.479 90.876 26.9 4.36 3.125 8.143 7.2 12.214 10.8 2.548 3.548 5.482 6.774 7.642 10.644 5.823 10.429 6.188 22.726-1.473 31.658 1.21-2.038 1.837-3.65 3.63-5.012 4.94-4.082 10.358-6.95 19.59-9.552 27.226-7.671 61.234-5.757 86.649 12.063 23.301 16.339 36.761 34.635 44.227 58.112 4.837 15.213 6.58 32.783 5.703 47.074-.763 12.444-3.512 24.478-7.931 35.134-6.45 15.554-15.078 28.415-29.912 41.164-17.41 14.963-41.143 25.6-66.71 27.581-16.274 1.261-34.908-.809-46.431-4.088-1.178-.335-12.593-4.064-13.835-5.648-.632-.806.09-5.33 2.043-2.317-2.425 10.756-10.9 19.19-21.04 25.542-21.323 13.356-60.079 21.647-106.229 11.956-23.434-4.922-42.627-20.55-42.934-29.473l1.686-2.312c-.183 2.668.195 5.324-.2 7.519-1.492 7.717-3.89 10.29-8.62 15.842-2.67 3.134-5.878 5.611-9.056 7.998-18.2 13.67-39.77 21.154-60.853 25.122-6.264 1.18-12.607 1.669-18.91 2.503-6.337.122-12.676.583-19.012.367-21.162-.72-45.844-5.802-65.67-14.957-4.053-1.872-7.898-4.33-11.846-6.494-3.18-2.387-6.507-4.516-9.541-7.16-8.638-7.521-16.133-18.057-17.48-31.257-.392-3.59 3.622-3.525 2.583 0-2.81 14.103-14.602 26.33-24.608 34.059-34.281 26.48-97.065 43.23-153.702 25.714-30.7-9.494-48.564-32.042-49.23-44.176-.496-2.071 2.714-2.68 1.443.036-.229.947-.199 1.854-.502 2.666-4.155 10.707-21.387 21.195-34.304 26.617-11.615 4.875-20.764 7.573-36.364 10.163-30.062 4.992-55.6.355-76.841-8.041-4.563-2.298-9.437-4.352-13.688-6.894-12.895-7.71-22.517-18.337-25.349-31.318" style="opacity:1;fill:#d5f6ff;fill-opacity:1;fill-rule:nonzero;stroke:#000;stroke-width:2.4375;stroke-linecap:butt;stroke-linejoin:round;stroke-miterlimit:100;stroke-dasharray:none;stroke-dashoffset:0;stroke-opacity:1"/><path d="M281.986 289.135c-7.98-.935-10.945-8.238-11.82-11.782-1.422-5.76 1.096-11.545 3.851-15.503 1.955-2.809 4.778-4.844 7.779-6.346 7.872-3.94 17.838-1.965 24.335 3.875 4.493 4.038 7.584 8.964 8.783 15.543.511 2.806-.673 8.513-2.269 10.96-3.147 4.826-8.884 9.882-16.541 9.749-4.083-.072-10.436-.837-13.408-4.448M378.997 303.35c-7.41-3.135-11.028-7.554-14.039-12.369-3.18-5.085-4.6-9.899-5.049-15.302-.615-7.407 1.531-16.21 6.232-22.703 4.596-6.348 7.2-7.483 13.52-12.145 3.064-1.458 5.998-3.23 9.194-4.374 14.2-5.077 30.156-3.872 43.082 4.138 3.196 1.98 5.858 4.713 8.787 7.07 2.243 2.836 4.814 5.441 6.73 8.508 5.335 8.539 7.354 18.45 4.923 28.302-1.988 8.054-4.393 10.174-9.054 16.859-8.862 9.415-19.94 16.793-33.294 17.195-7.872.237-12.304-1.4-16.91-3.103-4.28-1.581-11.043-6.872-9.405-11.971" style="opacity:1;fill:#e5f6ff;fill-opacity:1;stroke:#000;stroke-width:2.34375;stroke-linecap:butt;stroke-linejoin:miter;stroke-miterlimit:4;stroke-dasharray:none;stroke-dashoffset:0;stroke-opacity:1"/><path d="M-597.634 4241.558c-16.888 1.808-36.104 2.255-54.005-.497-5.819-.895-12.696-1.742-18.405-3.338-20.268-5.667-39.836-14.605-55.701-30.313-6.689-6.622-11.577-13.383-16.108-22.238-7.875-15.393-9.385-35.382-7.393-51.182 1.264-10.023 2.957-17.576 6.792-27.435 19.533-43.072 52.86-66.823 92.898-79.125 9.317-2.836 20.131-4.673 31.035-5.638 1.94-.17.706-.724 1.033-.28-.5 1.263-3.145-.203-3.923-2.303-1.076-3.133-1.044-8.515-.43-11.924 2.791-15.526 15.873-25.694 26.703-34.08 4.8-3.718 9.965-6.837 15.188-9.767 26.905-15.095 57.861-24.484 87.827-27.806 8.072-.894 16.205-.848 24.307-1.273 27.505.523 55.154 5.492 77.72 23.966 8.884 7.273 14.475 14.245 19.503 23.335 1.983 3.584 3.866 7.292 5.203 11.144a64.988 64.988 0 0 1 2.817 11.22c.638 4.054.932 11.168-.154 15.523-.239.956-.875 2.888-1.937 3.408-.74-.188-2.037-1.254-1.79-2.566.954-5.07 11.962-16.41 13.541-17.882 11.171-10.411 23.015-18.306 36.327-25.466 7.934-4.268 16.051-8.221 24.44-11.523 8.547-3.365 17.298-6.313 26.293-8.446 27.767-6.585 61.524-7.585 90.234 7.718 5.905 3.148 14.679 9.812 20.16 16.337 9.668 11.51 15.097 27.776 11.464 36.572l-.248-.632c.693-1.683 1.04-3.286 1.77-4.732 9.819-19.06 38.9-38.932 57.607-48.887 16.822-8.952 29.587-13.982 50.5-19.004 40.302-9.676 70.775-2.19 94.193 12.072 4.82 3.938 10.14 7.435 14.462 11.813 13.11 13.281 20.823 31.812 18.914 54.702-3.137 2.087-1.402-.452-.472-2.226 11.395-20.927 35.999-38.363 62.876-48.85 18.184-7.096 28.973-9.468 38.16-11.335 9.182-1.864 22.945-3.02 32.173-2.88 30.528.465 63.772 7.479 90.877 26.901 4.36 3.125 8.143 7.2 12.214 10.8 2.547 3.547 5.481 6.773 7.642 10.643 5.822 10.429 6.188 22.727-1.474 31.658 1.21-2.038 1.837-3.65 3.631-5.012 4.939-4.081 10.358-6.95 19.59-9.551 27.226-7.672 61.233-5.758 86.648 12.063 23.302 16.338 36.762 34.634 44.228 58.111 4.837 15.213 6.579 32.783 5.702 47.074-.763 12.444-3.512 24.478-7.93 35.134-6.45 15.554-15.079 28.415-29.913 41.165-17.41 14.963-41.143 25.599-66.71 27.58-16.273 1.262-34.907-.809-46.43-4.088-1.178-.335-12.594-4.064-13.835-5.647-.632-.807.089-5.331 2.042-2.318-2.425 10.756-10.9 19.191-21.04 25.542-21.322 13.356-60.078 21.647-106.228 11.956-23.434-4.921-42.627-20.55-42.935-29.473l1.686-2.311c-.182 2.668.196 5.323-.2 7.518-1.49 7.717-3.89 10.29-8.62 15.843-2.67 3.133-5.877 5.61-9.055 7.998-18.2 13.67-39.77 21.153-60.853 25.121-6.265 1.18-12.607 1.669-18.91 2.503-6.337.123-12.677.583-19.012.367-21.162-.72-45.844-5.801-65.671-14.957-4.052-1.871-7.897-4.33-11.845-6.494-3.18-2.386-6.507-4.516-9.542-7.159-8.637-7.522-16.132-18.057-17.479-31.258-.158-2.07 3.293-2.418 3.004-.113-2.989 14.066-14.935 26.141-25.038 33.743-34.614 26.045-97.605 41.996-154.015 23.764-30.577-9.883-48.154-32.655-48.665-44.797-.16-.979 1.242-1.117 1.036-.097-.207.952-.157 1.858-.442 2.677-3.914 10.797-20.906 21.67-33.698 27.38-11.503 5.134-20.59 8.036-36.127 10.976-29.942 5.665-55.579 1.602-77.002-6.316-4.614-2.195-9.532-4.14-13.84-6.585-13.065-7.42-22.922-17.827-26.238-30.588-.416 1.879-.272 3.618-.617 5.027-1.28 4.951-2.955 6.527-6.278 9.945-1.875 1.93-4.078 3.412-6.258 4.836-12.485 8.158-26.942 12.166-40.942 13.912-4.16.519-8.345.587-12.517.88-4.166-.17-8.347-.121-12.5-.51-13.87-1.302-29.88-5.573-42.545-12.298-2.589-1.374-5.018-3.121-7.526-4.682-1.996-1.675-4.098-3.188-5.988-5.024-5.38-5.223-9.891-12.358-10.262-20.98M-612.194 4709.621c-13.888.888-28.722.695-42.749-1.461-5.819-.895-12.696-1.742-18.405-3.338-20.268-5.667-39.836-14.605-55.701-30.313-6.689-6.622-11.577-13.383-16.108-22.238-7.875-15.393-9.385-35.381-7.393-51.181 1.264-10.023 2.957-17.577 6.792-27.436 19.533-43.071 52.86-66.822 92.898-79.125 9.317-2.836 20.132-4.673 31.035-5.638 1.94-.17 20.598-1.367 19.976.467-.541 1.64-3.977 1.214-4.7-.886-.877-2.743-.602-6.176-.033-9.586 2.594-15.526 14.746-25.694 24.807-34.08 4.46-3.718 9.257-6.837 14.109-9.767 24.994-15.095 53.75-24.483 81.587-27.805 7.499-.895 15.054-.85 22.58-1.273 25.552.522 51.236 5.492 72.2 23.965 8.252 7.273 13.445 14.245 18.117 23.335 1.842 3.584 3.59 7.292 4.833 11.144a69.087 69.087 0 0 1 2.617 11.221c.592 4.053.865 11.167-.17 15.522-.262.956-.89 3.21-1.955 3.408-.759-.187-2.056-1.254-1.809-2.566.954-5.07 11.962-16.41 13.541-17.882 11.171-10.411 23.015-18.305 36.327-25.466 7.934-4.268 16.051-8.221 24.44-11.523 8.547-3.364 17.298-6.313 26.293-8.446 27.767-6.585 61.524-7.585 90.234 7.718 5.905 3.148 14.679 9.812 20.16 16.337 9.668 11.51 15.097 27.776 11.464 36.572l-.248-.631c.693-1.684 1.04-3.287 1.77-4.733 9.819-19.06 38.9-38.932 57.607-48.887 16.822-8.952 29.587-13.982 50.5-19.004 40.302-9.676 70.775-2.189 94.193 12.072 4.82 3.938 10.14 7.435 14.462 11.814 13.11 13.28 20.823 31.811 18.914 54.701-3.137 2.087-1.402-.452-.473-2.226 11.396-20.927 36-38.363 62.877-48.85 18.184-7.096 28.973-9.468 38.16-11.334 9.182-1.865 22.945-3.02 32.173-2.88 30.528.464 63.772 7.478 90.877 26.9 4.36 3.125 8.143 7.2 12.214 10.8 2.547 3.548 5.481 6.774 7.642 10.643 5.822 10.429 6.188 22.727-1.474 31.658 1.21-2.038 1.837-3.65 3.631-5.012 4.939-4.081 10.358-6.95 19.59-9.551 27.226-7.672 61.233-5.758 86.648 12.063 23.302 16.338 36.762 34.634 44.228 58.111 4.837 15.213 6.579 32.784 5.702 47.074-.763 12.444-3.512 24.478-7.93 35.135-6.45 15.553-15.079 28.415-29.913 41.164-17.41 14.963-41.143 25.599-66.71 27.58-16.273 1.262-34.907-.808-46.43-4.088-1.178-.335-12.594-4.064-13.835-5.647-.632-.807.089-5.331 2.044-2.317-2.38 10.755-10.704 19.19-20.665 25.541-20.944 13.356-59.014 21.648-104.346 11.956-23.019-4.921-41.872-20.55-42.174-29.472l1.656-2.312c-.179 2.668.192 5.323-.196 7.518-1.465 7.718-3.82 10.29-8.468 15.843-2.622 3.133-5.773 5.61-8.894 7.998-17.878 13.67-39.066 21.153-59.775 25.122-6.154 1.179-12.384 1.668-18.575 2.503-6.225.122-12.452.582-18.676.366-20.787-.72-45.03-5.801-64.507-14.957-3.98-1.871-7.756-4.33-11.635-6.494-3.124-2.386-6.392-4.516-9.372-7.159-8.485-7.522-15.847-18.057-17.17-31.258-.155-2.07 3.235-2.418 2.951-.113-2.936 14.066-14.67 26.142-24.594 33.744-34 26.044-95.876 41.995-151.287 23.763-30.034-9.882-47.3-32.655-47.802-44.797-.157-.979 1.22-1.116 1.018-.097-.204.952-.155 1.858-.435 2.677-3.844 10.797-20.535 21.67-33.1 27.38-11.3 5.134-20.225 8.036-35.487 10.976-29.412 5.665-54.73 1.952-75.639-6.316-4.682-1.851-10.022-4.879-14.145-7.504-11.363-7.235-21.23-18.194-24.224-27.28-.611-3.611 3.84-4.798 3.57-1.51-.226 2.043-1.24 3.1-2.426 4.95-1.942 3.028-4.835 5.513-8.896 8.988-2.291 1.96-5.465 3.797-8.057 5.206-14.843 8.07-29.716 10.892-45.711 12.065-4.753.348-9.494.463-14.24.324a138.52 138.52 0 0 1-14.1-1.155c-15.58-2.063-33.322-7.39-47.061-15.165a71.896 71.896 0 0 1-8.105-5.35 55.843 55.843 0 0 1-6.334-5.637c-5.629-5.821-10.108-13.633-9.77-22.825M-638.382 5271.463c-13.889.888-28.723.695-42.75-1.461-5.819-.895-12.696-1.742-18.405-3.338-20.268-5.667-39.836-14.605-55.701-30.313-6.689-6.622-11.577-13.383-16.107-22.238-7.876-15.393-9.386-35.382-7.394-51.181 1.264-10.023 2.957-17.577 6.792-27.436 19.533-43.071 52.86-66.822 92.899-79.125 9.316-2.836 20.13-4.673 31.034-5.638 1.94-.17 20.598-1.367 20.032.88-.496 2.086-4 1.65-4.739-.492-.894-2.799-.615-6.302-.032-9.791 2.523-15.118 14.354-25.01 24.147-33.17 4.341-3.618 9.01-6.652 13.734-9.503 24.33-14.687 52.322-23.822 79.419-27.054 7.299-.87 14.653-.826 21.98-1.238 24.871.508 49.873 5.343 70.28 23.317 8.032 7.076 13.867 14.12 17.895 20.885 2.006 3.37 3.235 5.796 4.445 9.543a67.191 67.191 0 0 1 2.547 10.918c.577 3.943 1.124 11.6-1.891 11.242-.864-.328-1.826-1.626.62-7.099 3.32-7.432 10.64-14.727 14.542-18.784 11.265-11.71 26.315-22.216 40.783-30.907 8.624-5.18 17.447-9.978 26.564-13.985 9.29-4.084 18.802-7.663 28.578-10.252 30.181-7.992 66.87-9.205 98.076 9.368 6.419 3.82 15.954 11.908 21.912 19.828 10.508 13.97 16.41 33.711 12.461 44.744-2.446 7.833-6.015 6.588-2.448 1.515 12.263-17.572 38.043-34.935 55.233-44.086 17.158-9.134 30.179-14.267 51.51-19.39 41.11-9.874 72.192-2.234 96.078 12.317 4.917 4.018 10.343 7.586 14.751 12.054 13.372 13.55 21.24 32.459 19.244 55.347-3.009 1.62-1.37-.918-.493-2.692 10.759-20.927 33.987-38.363 59.361-48.85 17.168-7.096 27.353-9.468 36.028-11.334 8.668-1.865 21.662-3.02 30.374-2.88 28.822.464 60.207 7.478 85.796 26.9 4.117 3.125 7.688 7.2 11.532 10.8 2.405 3.548 5.175 6.774 7.214 10.644 5.497 10.428 5.842 22.726-1.556 31.657 1.046-2.038 1.672-3.65 3.466-5.012 4.939-4.081 10.358-6.95 19.59-9.551 27.226-7.672 61.233-5.758 86.648 12.063 23.302 16.338 36.762 34.634 44.228 58.112 4.837 15.212 6.58 32.783 5.703 47.073-.764 12.444-3.512 24.478-7.932 35.135-6.45 15.553-15.078 28.415-29.912 41.164-17.41 14.963-41.143 25.599-66.71 27.58-16.273 1.262-34.907-.808-46.43-4.088-1.178-.335-12.594-4.064-13.835-5.647-.632-.806.089-5.331 2.044-2.317-2.38 10.755-10.704 19.19-20.665 25.542-20.944 13.355-59.014 21.647-104.346 11.955-23.019-4.921-41.871-20.55-42.174-29.472l1.656-2.312c-.179 2.668.193 5.323-.196 7.518-1.465 7.718-3.82 10.29-8.468 15.843-2.622 3.133-5.773 5.61-8.894 7.998-17.878 13.67-39.066 21.153-59.775 25.122-6.154 1.179-12.383 1.668-18.575 2.502-6.225.123-12.452.583-18.675.367-20.787-.72-45.032-5.801-64.508-14.957-3.98-1.871-7.756-4.33-11.635-6.494-3.124-2.386-6.391-4.516-9.372-7.159-8.485-7.522-15.847-18.057-17.17-31.258-.155-2.07 3.235-2.418 2.951-.113-2.936 14.066-14.67 26.142-24.594 33.744-34 26.044-95.876 41.995-151.287 23.763-30.034-9.882-47.3-32.655-47.802-44.797-.157-.979 1.22-1.117 1.018-.14-.204 1.074-.155 2.137-.435 3.098-3.844 12.667-20.535 25.423-33.1 32.122-11.3 6.024-20.225 9.429-35.487 12.878-29.412 6.646-54.73 2.29-75.639-7.41-4.682-2.172-10.022-5.724-14.145-8.804-11.363-8.489-21.23-21.346-24.224-31.956-.611-3.563 3.84-4.75 3.57-1.463-.226 2.044-1.24 3.1-2.426 4.951-1.942 3.028-4.835 5.513-8.896 8.988-2.29 1.96-5.465 3.798-8.057 5.207-14.843 8.069-29.716 10.891-45.711 12.064-4.753.348-9.494.463-14.24.324a138.578 138.578 0 0 1-14.1-1.155c-15.58-2.063-33.321-7.39-47.061-15.165a71.883 71.883 0 0 1-8.105-5.35 55.842 55.842 0 0 1-6.334-5.637c-5.629-5.821-10.108-13.633-9.77-22.825M-636.942 5757.64c-1.293.061-2.592.114-3.897.155-11.536.37-23.482-.085-34.893-1.84-5.82-.894-12.697-1.74-18.405-3.337-20.268-5.667-39.837-14.605-55.702-30.313-6.689-6.622-11.577-13.383-16.107-22.237-7.876-15.393-9.386-35.382-7.393-51.182 1.264-10.023 2.957-17.577 6.791-27.436 19.534-43.071 52.86-66.822 92.899-79.125 9.316-2.836 20.13-4.673 31.034-5.637 1.94-.17 20.598-1.367 20.032.879-.496 2.086-4 1.651-4.738-.492-.895-2.799-.615-6.302-.033-9.791 2.523-15.118 14.354-25.01 24.147-33.17 4.341-3.617 9.01-6.652 13.734-9.503 24.33-14.687 52.322-23.821 79.419-27.054 7.299-.87 14.653-.825 21.98-1.238 24.872.508 49.874 5.343 70.28 23.318 8.033 7.076 13.868 14.12 17.895 20.884 2.006 3.37 3.236 5.796 4.445 9.544a67.191 67.191 0 0 1 2.547 10.918c.577 3.943 1.124 11.598-1.89 11.241-.864-.328-1.827-1.626.618-7.099 3.321-7.432 10.642-14.727 14.544-18.783 11.264-11.711 26.314-22.217 40.782-30.908 8.624-5.18 17.447-9.978 26.564-13.985 9.29-4.084 18.802-7.663 28.579-10.252 30.18-7.991 66.87-9.205 98.075 9.368 6.419 3.82 15.955 11.909 21.912 19.829 10.508 13.97 16.41 33.71 12.461 44.743-2.446 7.834-6.015 6.589-2.448 1.515 12.264-17.572 38.043-34.935 55.233-44.086 17.158-9.134 30.18-14.267 51.51-19.39 41.11-9.873 72.192-2.234 96.078 12.317 4.917 4.018 10.343 7.587 14.752 12.054 13.371 13.55 21.24 32.459 19.244 55.348-3.01 1.62-1.372-.919-.494-2.693 10.76-20.927 33.987-38.363 59.361-48.85 17.168-7.095 27.354-9.468 36.028-11.334 8.668-1.865 21.662-3.02 30.374-2.88 28.822.464 60.207 7.478 85.797 26.9 4.116 3.125 7.687 7.2 11.53 10.8 2.406 3.548 5.176 6.774 7.216 10.644 5.497 10.428 5.842 22.726-1.556 31.658 1.045-2.039 1.672-3.65 3.465-5.013 4.94-4.08 10.358-6.95 19.59-9.551 27.226-7.671 61.234-5.758 86.649 12.063 23.301 16.339 36.761 34.634 44.227 58.112 4.837 15.212 6.58 32.783 5.703 47.074-.763 12.444-3.512 24.478-7.931 35.134-6.45 15.554-15.078 28.415-29.912 41.164-17.41 14.963-41.143 25.599-66.71 27.58-16.274 1.262-34.908-.808-46.431-4.088-1.178-.334-12.593-4.063-13.835-5.647-.632-.806.09-5.33 2.045-2.317-2.38 10.756-10.705 19.19-20.665 25.542-20.945 13.355-59.014 21.647-104.346 11.955-23.02-4.921-41.872-20.55-42.174-29.472l1.656-2.312c-.18 2.668.192 5.323-.197 7.519-1.464 7.717-3.82 10.289-8.467 15.842-2.623 3.133-5.773 5.611-8.895 7.998-17.878 13.67-39.066 21.154-59.775 25.122-6.153 1.179-12.383 1.668-18.575 2.503-6.225.122-12.452.582-18.675.367-20.787-.72-45.032-5.802-64.507-14.958-3.98-1.87-7.757-4.329-11.636-6.494-3.124-2.386-6.391-4.515-9.372-7.158-8.484-7.523-15.847-18.058-17.17-31.258-.155-2.07 3.235-2.418 2.952-.114-2.937 14.066-14.67 26.142-24.595 33.744-34 26.044-95.876 41.995-151.286 23.763-30.035-9.882-47.301-32.655-47.803-44.797-.157-.978 1.22-1.116 1.018-.14-.204 1.074-.154 2.137-.435 3.098-3.844 12.667-20.535 25.423-33.1 32.122-11.3 6.024-20.225 9.43-35.487 12.878-29.412 6.647-54.73 2.29-75.638-7.41-4.682-2.172-10.023-5.724-14.145-8.803-11.364-8.49-21.23-21.346-24.225-31.957-.611-3.563 3.84-4.75 3.565-1.462-.24 2.043-1.29 3.1-2.518 4.95-2.011 3.028-5.006 5.514-9.21 8.988-2.373 1.961-5.659 3.798-8.342 5.207-15.368 8.069-30.767 10.891-47.327 12.064-4.921.348-9.83.463-14.744.324-4.88-.138-9.768-.537-14.598-1.155-16.13-2.062-34.5-7.39-48.725-15.164a74.723 74.723 0 0 1-8.392-5.35 57.206 57.206 0 0 1-6.558-5.638c-5.827-5.82-10.465-13.633-10.115-22.825" style="opacity:1;fill:#d5f6ff;fill-opacity:1;fill-rule:nonzero;stroke:#000;stroke-width:2.34375;stroke-linecap:butt;stroke-linejoin:round;stroke-miterlimit:100;stroke-dasharray:none;stroke-dashoffset:0;stroke-opacity:1"/><path d="M644.336 379.669c-13.888.887-28.722.695-42.749-1.462-5.82-.894-12.696-1.741-18.405-3.337-20.268-5.668-39.836-14.606-55.702-30.313-6.688-6.623-11.576-13.384-16.107-22.238-7.876-15.393-9.385-35.382-7.393-51.182 1.264-10.023 2.957-17.577 6.792-27.436 19.533-43.07 52.86-66.822 92.898-79.125 9.317-2.835 20.131-4.672 31.034-5.637 1.94-.17 20.599-1.367 20.033.879-.496 2.086-4.001 1.651-4.739-.491-.894-2.8-.615-6.302-.033-9.792 2.524-15.117 14.355-25.01 24.148-33.17 4.34-3.617 9.01-6.651 13.733-9.503 24.33-14.687 52.322-23.821 79.42-27.053 7.298-.87 14.653-.826 21.98-1.239 24.871.508 49.873 5.344 70.279 23.318 8.033 7.076 13.868 14.12 17.896 20.885 2.005 3.369 3.235 5.796 4.444 9.543a67.191 67.191 0 0 1 2.548 10.918c.577 3.943 1.123 11.599-2.25 11.467-1.247-.109-2.236-1.442.275-7.065 3.41-7.637 10.929-15.132 14.936-19.3 11.568-12.032 27.023-22.826 41.882-31.755 8.856-5.322 17.917-10.252 27.28-14.369 9.54-4.195 19.308-7.872 29.349-10.533 30.994-8.21 68.673-9.458 100.719 9.625 6.592 3.926 16.385 12.235 22.503 20.373 8.371 11.134 14.158 26.098 14.351 37.354-.547 16.394-5.696 11.037.692 3.683 13.088-15.056 34.291-29.221 49.038-37.151 16.801-9.035 29.55-14.111 50.438-19.179 40.253-9.766 70.688-2.21 94.077 12.183 4.815 3.974 10.128 7.503 14.445 11.922 13.092 13.403 21.706 35.23 18.562 54.7-3.293 1.577-1.655-.962-.777-2.736 10.759-20.926 33.986-38.363 59.36-48.85 17.169-7.095 27.354-9.468 36.029-11.334 8.667-1.865 21.661-3.02 30.374-2.88 28.821.464 60.207 7.479 85.796 26.9 4.117 3.125 7.688 7.2 11.531 10.8 2.405 3.548 5.175 6.774 7.215 10.644 5.497 10.428 5.842 22.726-1.556 31.658 1.045-2.038 1.672-3.65 3.466-5.012 4.939-4.082 10.358-6.95 19.59-9.552 27.226-7.671 61.233-5.757 86.648 12.063 23.302 16.339 36.762 34.635 44.227 58.112 4.838 15.213 6.58 32.783 5.703 47.074-.763 12.444-3.512 24.478-7.93 35.134-6.451 15.554-15.079 28.415-29.913 41.164-17.41 14.963-41.143 25.6-66.71 27.581-16.273 1.261-34.907-.809-46.431-4.088-1.177-.335-12.593-4.064-13.834-5.648-.632-.806.089-5.33 2.044-2.317-2.38 10.756-10.704 19.19-20.665 25.542-20.944 13.356-59.014 21.647-104.346 11.956-23.019-4.922-41.872-20.55-42.174-29.473l1.656-2.312c-.179 2.668.192 5.324-.197 7.519-1.464 7.717-3.82 9.836-8.467 15.842-2.622 3.39-5.773 6.07-8.895 8.652-17.877 14.787-39.065 22.881-59.774 27.174-6.154 1.275-12.384 1.805-18.575 2.707-6.225.132-12.452.63-18.676.397-20.787-.779-45.031-6.275-64.507-16.18-3.98-2.023-7.757-4.682-11.635-7.024-3.124-2.58-6.392-4.884-9.372-7.743-8.485-8.137-15.847-18.66-17.17-31.861-.155-2.07 3.235-2.418 2.951-.114-2.936 14.066-14.67 26.142-24.594 33.744-34 26.045-90.679 44.074-146.09 25.843-30.034-9.883-47.3-32.656-47.802-44.798-.157-.978 1.22-1.116 1.018-.14-.204 1.075-.154 2.137-.435 3.098-3.844 12.668-16.897 25.943-29.463 32.642-11.299 6.024-23.7 9.73-39.124 12.358-26.814 4.568-57.848-.523-78.757-10.223-4.682-2.173-12.102-5.725-16.224-8.804-11.363-8.49-21.23-21.346-24.225-31.957-.61-3.563 3.84-4.75 3.571-1.462-.226 2.043-1.24 3.1-2.426 4.95-1.943 3.028-4.836 5.514-8.896 8.989-2.291 1.96-5.465 3.797-8.057 5.206-14.843 8.07-29.716 11.627-45.711 12.8-4.753.348-9.494.462-14.24.323a138.578 138.578 0 0 1-14.1-1.154c-15.58-2.063-33.322-7.39-47.062-15.165a71.883 71.883 0 0 1-8.105-5.35 55.842 55.842 0 0 1-6.334-5.638c-5.628-5.82-10.107-13.632-9.769-22.825" style="opacity:1;fill:#e5f6ff;fill-opacity:1;fill-rule:nonzero;stroke:#000;stroke-width:2.34375;stroke-linecap:butt;stroke-linejoin:round;stroke-miterlimit:100;stroke-dasharray:none;stroke-dashoffset:0;stroke-opacity:1"/><path d="M-625.909 6229.864c-13.888.887-28.722.695-42.749-1.461-5.819-.895-12.696-1.742-18.405-3.338-20.268-5.667-39.836-14.605-55.701-30.313-6.69-6.622-11.577-13.384-16.108-22.238-7.876-15.393-9.385-35.382-7.393-51.182 1.264-10.023 2.957-17.576 6.792-27.436 19.533-43.07 52.86-66.822 92.898-79.124 9.317-2.836 20.131-4.673 31.035-5.638 1.94-.17 20.598-1.367 20.032.88-.496 2.085-4.001 1.65-4.739-.492-.894-2.8-.615-6.302-.033-9.791 2.524-15.118 14.355-25.01 24.148-33.17 4.34-3.618 9.01-6.652 13.733-9.503 24.33-14.687 52.322-23.822 79.42-27.054 7.298-.87 14.653-.826 21.98-1.239 24.871.509 49.873 5.344 70.279 23.318 8.033 7.076 13.868 14.12 17.896 20.885 2.005 3.37 3.235 5.796 4.444 9.543a67.191 67.191 0 0 1 2.548 10.918c.577 3.943 1.123 11.599-2.175 11.426-1.161-.15-2.14-1.47.346-7.035 3.377-7.559 10.82-14.978 14.787-19.103 11.452-11.91 26.754-22.594 41.463-31.433 8.768-5.267 17.739-10.148 27.008-14.223 9.446-4.153 19.116-7.792 29.056-10.425 30.685-8.128 67.988-9.362 99.714 9.526 6.527 3.886 16.221 12.111 22.279 20.166 10.683 14.207 16.683 34.283 12.73 45.356-2.357 7.601-6.434 6.697-2.906 1.68 12.132-17.38 37.634-34.555 54.64-43.606 16.973-9.034 29.853-14.111 50.955-19.179 40.667-9.765 71.415-2.21 95.044 12.183 4.864 3.974 10.232 7.504 14.593 11.923 13.227 13.403 21.93 35.228 18.758 54.7-3.288 1.576-1.65-.962-.772-2.736 10.759-20.927 33.986-38.364 59.36-48.85 17.169-7.096 27.354-9.468 36.029-11.335 8.667-1.864 21.661-3.02 30.374-2.88 28.821.465 60.207 7.479 85.796 26.901 4.117 3.125 7.688 7.2 11.531 10.8 2.405 3.547 5.175 6.773 7.215 10.643 5.497 10.429 5.842 22.727-1.556 31.658 1.045-2.038 1.672-3.65 3.466-5.012 4.939-4.081 10.358-6.95 19.59-9.551 27.226-7.672 61.233-5.758 86.648 12.063 23.302 16.338 36.762 34.634 44.227 58.111 4.838 15.213 6.58 32.783 5.703 47.074-.763 12.444-3.512 24.478-7.93 35.134-6.451 15.554-15.079 28.415-29.913 41.164-17.41 14.964-41.143 25.6-66.71 27.581-16.273 1.262-34.907-.809-46.431-4.088-1.177-.335-12.593-4.064-13.834-5.647-.632-.807.089-5.331 2.044-2.318-2.38 10.756-10.704 19.191-20.665 25.542-20.944 13.356-59.014 21.648-104.346 11.956-23.019-4.921-41.872-20.55-42.174-29.473l1.656-2.311c-.179 2.668.192 5.323-.197 7.518-1.464 7.717-3.82 10.29-8.467 15.843-2.622 3.133-5.773 5.61-8.895 7.998-17.877 13.67-39.065 21.153-59.774 25.121-6.154 1.18-12.384 1.669-18.575 2.503-6.225.123-12.452.583-18.676.367-20.787-.72-45.031-5.801-64.507-14.957-3.98-1.871-7.757-4.33-11.635-6.494-3.124-2.386-6.392-4.516-9.372-7.159-8.485-7.522-15.847-18.057-17.17-31.258-.155-2.07 3.235-2.418 2.951-.113-2.936 14.066-14.67 26.141-24.594 33.743-34 26.045-95.876 41.996-151.287 23.764-30.035-9.883-47.3-32.655-47.803-44.797-.157-.979 1.22-1.117 1.018-.14-.203 1.074-.154 2.137-.434 3.098-3.845 12.667-20.536 25.423-33.101 32.122-11.3 6.024-20.224 9.429-35.486 12.878-29.413 6.646-54.73 2.29-75.639-7.41-4.682-2.172-10.023-5.724-14.145-8.804-11.363-8.489-21.23-21.346-24.225-31.957-.61-3.562 3.84-4.75 3.571-1.462-.226 2.044-1.24 3.1-2.426 4.95-1.943 3.029-4.835 5.514-8.896 8.989-2.291 1.96-5.465 3.797-8.057 5.206-14.843 8.07-29.716 10.892-45.711 12.065-4.753.348-9.494.463-14.24.324a138.578 138.578 0 0 1-14.1-1.155c-15.58-2.063-33.322-7.39-47.062-15.165a71.883 71.883 0 0 1-8.105-5.35 55.842 55.842 0 0 1-6.333-5.637c-5.629-5.821-10.108-13.633-9.77-22.825" style="opacity:1;fill:#d5f6ff;fill-opacity:1;fill-rule:nonzero;stroke:#000;stroke-width:2.34375;stroke-linecap:butt;stroke-linejoin:round;stroke-miterlimit:100;stroke-dasharray:none;stroke-dashoffset:0;stroke-opacity:1"/><path d="M978.666 631.835c6.254 7.748 10.503 18.227 8.353 27.847-1.787 7.991-7.54 15.586-13.796 18.566-6.546 3.215-13.704 5.144-20.818 4.094-7.832-.913-15.894-3.947-21.313-10.98-5.574-6.647-7.52-17.252-4.833-25.668 3.344-10.476 9.88-15.71 17.404-19.284 11.608-5.44 25.975-4.904 35.868 4.834" style="fill:#e5f6ff;fill-opacity:1;stroke:#000;stroke-width:1.03125;stroke-linejoin:round;stroke-miterlimit:2;stroke-dasharray:none;stroke-opacity:1"/></g><g style="display:inline;fill:#000;stroke-width:5.53009892;stroke-miterlimit:100;stroke-dasharray:none"><g style="font-style:italic;font-variant:normal;font-weight:400;font-stretch:normal;line-height:0%;font-family:Baskerville;-inkscape-font-specification:&quot;Baskerville, Italic&quot;;text-align:start;letter-spacing:0;word-spacing:0;writing-mode:lr-tb;text-anchor:start;fill:#000;fill-opacity:1;stroke:none;stroke-width:5.53009892;stroke-linecap:butt;stroke-linejoin:miter;stroke-miterlimit:100;stroke-dasharray:none;stroke-opacity:1"><path d="M614.1 2079.113q-3.954-8.525-3.954-15.908 0-8.35 4.922-15.469 4.922-7.207 12.48-11.602 7.647-4.394 15.82-4.394 9.141 0 15.206 5.098 6.152 5.01 6.152 12.04 0 5.274-2.988 9.757-2.9 4.482-6.153 4.482-1.582 0-1.582-1.67 0-.615.88-2.725 1.405-3.427 1.405-6.943 0-5.273-4.306-8.525-4.307-3.34-10.371-3.34-9.756 0-18.282 8.086-8.437 7.998-8.437 18.369 0 4.658 1.23 7.91 1.23 3.164 2.198 4.13 1.054.968 2.9.968 12.129 0 12.129 7.031 0 1.758-1.318 3.34-1.23 1.582-3.692 1.582-2.724 0-6.943-3.604-4.483-3.867-8.79-3.867-5.536 0-10.546 5.537-4.922 5.45-4.922 13.008 0 14.678 14.59 27.774 14.59 13.007 36.299 13.007 20.566 0 35.156-10.195 14.678-10.283 14.678-24.521 0-9.493-7.207-16.436-7.207-7.031-19.512-7.031-9.932 0-17.754 5.449-7.734 5.45-7.734 13.623 0 4.922 2.812 8.086 2.813 3.164 5.8 3.164 3.429 0 3.429-3.691l-.088-1.055q-.088-1.143-.088-1.582 0-3.867 2.11-6.328 2.109-2.55 5.36-2.55 3.077 0 5.362 2.198 2.285 2.11 2.285 5.977 0 5.537-3.867 9.228-3.78 3.692-9.756 3.692-7.12 0-12.305-5.01-5.097-5.098-5.097-12.48 0-10.811 9.052-19.688 9.053-8.877 32.871-8.877 21.358 0 31.026-5.889 9.668-5.8 9.668-17.666 0-7.031-4.307-11.513-4.306-4.57-10.898-4.57-3.252 0-4.922.966-1.582.879-1.582 2.813 0 1.23 1.582 3.515 2.021 2.9 2.021 5.625 0 3.252-2.548 5.713-2.461 2.461-6.153 2.461-4.394 0-6.68-2.813-2.285-2.812-2.285-6.591 0-5.977 5.801-10.723 5.889-4.746 14.942-4.746 9.316 0 15.468 6.855 6.24 6.768 6.24 16.348 0 9.053-5.36 16.524-5.274 7.47-13.448 10.546-8.086 3.077-22.764 3.604 14.063 9.932 14.063 25.488 0 11.69-8.614 22.588-8.613 10.899-20.918 16.172-12.216 5.273-29.882 5.273-14.326 0-23.203-3.076-8.877-3.164-16.963-9.14-7.998-5.977-12.657-14.59-4.57-8.701-4.57-18.633 0-12.129 6.943-20.39 6.944-8.262 20.567-10.196z" aria-label="&amp;" style="font-size:180px;line-height:1.25;stroke-width:5.53009892;stroke-miterlimit:100;stroke-dasharray:none" transform="matrix(.44077 0 0 .44077 652.026 -648.762)"/></g><path d="M726.304 2041.399c.723.355 1.19 1.06 1.627 1.712.592.822 1.09 1.704 1.534 2.613.496.94.687 1.968.798 3.012.076 1.127.126 2.256.157 3.386.028 1.225.035 2.45.038 3.675.033 1.034-.044 2.064-.126 3.093-.078 1.068-.309 2.11-.63 3.13-.29.984-.739 1.904-1.25 2.79-.49.878-1.085 1.691-1.702 2.484-.517.62-1.047 1.228-1.563 1.85-.51.638-1.121 1.184-1.712 1.745-.621.589-1.252 1.168-1.877 1.753-.652.638-1.383 1.185-2.095 1.752l-.322.264-5.333-2.712.33-.28c.679-.56 1.397-1.067 2.048-1.659.618-.59 1.249-1.164 1.875-1.744.548-.528 1.12-1.033 1.636-1.593a51.484 51.484 0 0 1 1.563-1.839c.599-.722 1.156-1.485 1.623-2.3.472-.788.883-1.61 1.138-2.497.287-.922.476-1.868.536-2.834.075-.994.12-1.989.097-2.987-.004-1.212-.008-2.424-.045-3.636-.038-1.086-.081-2.173-.198-3.253-.062-.375-.074-.516-.177-.881-.163-.583-.433-1.127-.715-1.66-.463-.824-.961-1.63-1.57-2.358-.203-.21-.334-.366-.568-.54-.339-.252-.737-.384-1.11-.571l5.993.085z" style="opacity:1;fill:#000;fill-opacity:1;stroke:none;stroke-width:5.53009892;stroke-linecap:square;stroke-linejoin:miter;stroke-miterlimit:100;stroke-dasharray:none;stroke-opacity:1" transform="matrix(.44077 0 0 .44077 652.026 -648.762)"/><path d="M716.937 2072.41c.583-.508 1.097-1.093 1.596-1.682.845-1.042 1.526-2.202 2.183-3.368a35.537 35.537 0 0 0 1.874-4.066c.466-1.246.827-2.527 1.149-3.816.369-1.345.623-2.716.872-4.087.159-.858.084-.438.224-1.261l5.694 1.813c-.148.836-.072.412-.231 1.271-.256 1.4-.528 2.798-.901 4.173-.34 1.343-.716 2.68-1.206 3.977a38.915 38.915 0 0 1-1.945 4.243c-.687 1.24-1.405 2.47-2.27 3.596-.527.66-1.09 1.288-1.682 1.893l-5.357-2.687zM722.897 2042.837c-.113-.195-.233-.404-.382-.576-.345-.399.042.154-.327-.336-.067-.09-.123-.185-.185-.277-.367-.635-.738-1.267-1.099-1.906l5.918.882c.354.596.684 1.21 1.124 1.75.128.15.252.29.36.456.19.294.338.614.515.916l-5.924-.909z" style="opacity:1;fill:#000;fill-opacity:1;stroke:none;stroke-width:5.53009892;stroke-linecap:square;stroke-linejoin:miter;stroke-miterlimit:100;stroke-dasharray:none;stroke-opacity:1" transform="matrix(.44077 0 0 .44077 652.026 -648.762)"/></g><g style="display:inline"><path d="M1428.217 273.522h20.857M1428.217 281.265h20.857" style="fill:#000;fill-opacity:1;stroke:#000;stroke-width:2;stroke-linecap:butt;stroke-linejoin:miter;stroke-miterlimit:4;stroke-dasharray:none;stroke-opacity:1" transform="translate(-215.82 -35.813) scale(1.12211)"/><path d="M1642.104 283.797v-5.895h.855q1.49 5.106 5.325 5.106 1.666 0 2.477-1.008.833-1.008.833-2.213 0-1.403-.877-2.302-.899-.898-3.485-2.17-2.717-1.336-3.9-2.63-1.184-1.27-1.184-3.133 0-1.776 1.27-3.375 1.272-1.622 3.573-1.622 2.345 0 3.88 1.906.328-.328.854-1.6h.811v5.545h-.81q-.44-1.994-1.71-3.419-1.25-1.446-2.959-1.446-1.315 0-2.126.81-.81.812-.81 1.886 0 1.183.898 2.038.876.877 3.353 1.994 3.726 1.688 4.559 3.288.832 1.622.832 3.112 0 2.345-1.556 3.813-1.534 1.469-3.879 1.469-2.476 0-4.405-2.039-.592.658-.964 1.885z" style="font-style:normal;font-variant:normal;font-weight:400;font-stretch:normal;font-size:medium;line-height:125%;font-family:Baskerville;-inkscape-font-specification:Baskerville;letter-spacing:0;word-spacing:0;fill:#000;fill-opacity:1;stroke:#000;stroke-width:.1875;stroke-linecap:butt;stroke-linejoin:miter;stroke-miterlimit:4;stroke-dasharray:none;stroke-opacity:1"/><path d="M1036.524 276.445h66.173" style="fill:#000;fill-opacity:1;stroke:#000;stroke-width:2.22200012;stroke-linecap:butt;stroke-linejoin:miter;stroke-miterlimit:4;stroke-dasharray:none;stroke-opacity:1" transform="matrix(1.01 0 0 1.01 -13.436 -3.736)"/><path d="M1044.48 301.185h.217q.63 1.453.63 3.732 1.453-1.866 3.124-2.8 1.693-.932 3.624-.932 2.192 0 3.559.998t1.91 2.994q1.648-1.996 3.384-2.994 1.736-.998 3.537-.998 2.062 0 3.494.954 1.432.955 1.736 2.17.304 1.215.304 3.928v5.338q0 3.103.108 3.775.13.673.695.999.586.325 2.148.325v.998h-8.875v-.998q1.41 0 1.974-.304.587-.325.717-.954.13-.651.13-3.841v-5.924q0-1.801-.217-2.713-.195-.91-1.063-1.562-.868-.65-2.257-.65-1.41 0-2.843.954-1.41.955-2.842 2.886v7.009q0 2.842.066 3.58.087.716.607 1.128.543.391 1.91.391v.998h-8.593v-.998q1.454 0 2.018-.304.586-.304.716-.933.152-.63.152-3.862v-4.926q0-2.343-.195-3.385-.174-1.063-1.107-1.801-.933-.76-2.322-.76-1.345 0-2.756.868-1.388.868-2.842 2.604v7.4q0 2.93.087 3.645.087.716.65 1.085.565.37 2.019.37v.997h-8.702v-.998q1.433 0 1.997-.304.586-.325.716-.954.13-.63.13-3.841v-5.317q0-3.037-.109-3.71-.087-.694-.673-1.042-.564-.347-2.061-.347v-.998q3.081-.304 5.1-.976z" style="font-style:normal;font-variant:normal;font-weight:400;font-stretch:normal;font-size:medium;line-height:125%;font-family:Baskerville;-inkscape-font-specification:Baskerville;letter-spacing:0;word-spacing:0;fill:#000;fill-opacity:1;stroke:#000;stroke-width:.02840625;stroke-linecap:butt;stroke-linejoin:miter;stroke-miterlimit:4;stroke-dasharray:none;stroke-opacity:1" transform="matrix(1.01 0 0 1.01 -13.436 -3.736)"/><path d="M1088.988 290.53h2.626l-14.8 29.858h-2.625z" style="font-style:normal;font-variant:normal;font-weight:400;font-stretch:normal;font-size:medium;line-height:125%;font-family:Baskerville;-inkscape-font-specification:Baskerville;letter-spacing:0;word-spacing:0;fill:#000;fill-opacity:1;stroke:#000;stroke-width:0;stroke-linecap:butt;stroke-linejoin:miter;stroke-miterlimit:4;stroke-dasharray:none;stroke-opacity:1" transform="matrix(1.01 0 0 1.01 -13.436 -3.736)"/><path d="M1090.236 320.236V314.4h.846q1.476 5.056 5.273 5.056 1.65 0 2.452-.998.825-.998.825-2.192 0-1.388-.868-2.278-.89-.89-3.45-2.148-2.691-1.324-3.863-2.604-1.172-1.259-1.172-3.103 0-1.758 1.259-3.342 1.259-1.605 3.537-1.605 2.322 0 3.84 1.887.326-.325.847-1.584h.803v5.49h-.803q-.434-1.974-1.693-3.385-1.236-1.432-2.929-1.432-1.302 0-2.105.803-.803.803-.803 1.866 0 1.172.89 2.018.868.868 3.32 1.975 3.689 1.67 4.513 3.255.825 1.605.825 3.08 0 2.323-1.54 3.776-1.52 1.454-3.841 1.454-2.452 0-4.362-2.018-.586.651-.955 1.866z" style="font-style:normal;font-variant:normal;font-weight:400;font-stretch:normal;font-size:medium;line-height:125%;font-family:Baskerville;-inkscape-font-specification:Baskerville;letter-spacing:0;word-spacing:0;fill:#000;fill-opacity:1;stroke:#000;stroke-width:.18564357;stroke-linecap:butt;stroke-linejoin:miter;stroke-miterlimit:4;stroke-dasharray:none;stroke-opacity:1" transform="matrix(1.01 0 0 1.01 -13.436 -3.736)"/><path d="M1059.844 238.28h.217q.63 1.455.63 3.733 1.453-1.866 3.124-2.8 1.692-.932 3.624-.932 2.191 0 3.558.998t1.91 2.995q1.649-1.997 3.385-2.995 1.736-.998 3.537-.998 2.061 0 3.493.955 1.432.954 1.736 2.17.304 1.215.304 3.927v5.338q0 3.103.109 3.776.13.672.694.998.586.325 2.149.325v.999h-8.875v-.999q1.41 0 1.974-.303.586-.326.716-.955.13-.651.13-3.84v-5.925q0-1.8-.216-2.712-.196-.912-1.064-1.563-.868-.65-2.256-.65-1.41 0-2.843.954-1.41.955-2.843 2.886v7.01q0 2.842.066 3.58.087.716.608 1.128.542.39 1.91.39v.999h-8.594v-.999q1.454 0 2.018-.303.586-.304.717-.933.152-.63.152-3.863v-4.926q0-2.343-.196-3.385-.173-1.063-1.106-1.8-.933-.76-2.322-.76-1.346 0-2.756.868-1.389.868-2.843 2.604v7.4q0 2.929.087 3.645.087.716.651 1.085.565.368 2.018.368v.999h-8.701v-.999q1.432 0 1.996-.303.586-.326.716-.955.13-.63.13-3.84v-5.317q0-3.038-.108-3.71-.087-.695-.673-1.042-.564-.348-2.061-.348v-.998q3.08-.303 5.099-.976z" style="font-style:normal;font-variant:normal;font-weight:400;font-stretch:normal;font-size:medium;line-height:125%;font-family:Baskerville;-inkscape-font-specification:Baskerville;letter-spacing:0;word-spacing:0;fill:#000;fill-opacity:1;stroke:#000;stroke-width:.02840625;stroke-linecap:butt;stroke-linejoin:miter;stroke-miterlimit:4;stroke-dasharray:none;stroke-opacity:1" transform="matrix(1.01 0 0 1.01 -13.436 -3.736)"/><g style="fill:#000;fill-opacity:1;stroke:#000"><path d="m462.383 281.058 16.677-16.677M462.38 264.38l16.677 16.678" style="fill:#000;fill-opacity:1;stroke:#000;stroke-width:2;stroke-linecap:butt;stroke-linejoin:miter;stroke-miterlimit:4;stroke-dasharray:none;stroke-opacity:1" transform="translate(972.558 -31.94) scale(1.122)"/></g><path d="M1476.008 265.705h.217q.63 1.454.63 3.732 1.453-1.866 3.124-2.799 1.693-.933 3.624-.933 2.191 0 3.558.998 1.368.998 1.91 2.995 1.65-1.997 3.385-2.995 1.736-.998 3.537-.998 2.061 0 3.494.955 1.432.955 1.736 2.17.303 1.215.303 3.927v5.338q0 3.103.11 3.776.13.673.694.998.585.326 2.148.326v.998h-8.875v-.998q1.41 0 1.975-.304.585-.326.716-.955.13-.65.13-3.84v-5.925q0-1.8-.217-2.712-.196-.911-1.063-1.562-.868-.651-2.257-.651-1.41 0-2.843.955-1.41.954-2.842 2.886v7.008q0 2.843.066 3.58.087.717.607 1.13.543.39 1.91.39v.998h-8.593v-.998q1.454 0 2.018-.304.586-.304.716-.933.152-.63.152-3.863v-4.925q0-2.344-.195-3.385-.174-1.064-1.107-1.801-.933-.76-2.322-.76-1.345 0-2.756.868-1.389.868-2.842 2.604v7.4q0 2.929.087 3.645.087.716.65 1.085.565.369 2.019.369v.998h-8.702v-.998q1.432 0 1.997-.304.585-.326.716-.955.13-.63.13-3.84v-5.317q0-3.038-.109-3.71-.087-.695-.673-1.042-.564-.347-2.061-.347v-.998q3.081-.304 5.1-.977z" style="font-style:normal;font-variant:normal;font-weight:400;font-stretch:normal;font-size:medium;line-height:125%;font-family:Baskerville;-inkscape-font-specification:Baskerville;letter-spacing:0;word-spacing:0;fill:#000;fill-opacity:1;stroke:#000;stroke-width:.02840625;stroke-linecap:butt;stroke-linejoin:miter;stroke-miterlimit:4;stroke-dasharray:none;stroke-opacity:1" transform="matrix(1.01 0 0 1.01 -49.567 -3.736)"/><path d="M1568.361 276.13h36.145" style="fill:#000;fill-opacity:1;stroke:#000;stroke-width:2.22200012;stroke-linecap:butt;stroke-linejoin:miter;stroke-miterlimit:4;stroke-dasharray:none;stroke-opacity:1" transform="matrix(1.01 0 0 1.01 -53.279 -3.736)"/><path d="M1575.432 300.252h.217q.63 1.453.63 3.732 1.454-1.866 3.124-2.8 1.693-.932 3.624-.932 2.192 0 3.559.998t1.91 2.994q1.648-1.996 3.384-2.994 1.736-.998 3.537-.998 2.062 0 3.494.954 1.432.955 1.736 2.17.304 1.215.304 3.928v5.338q0 3.103.109 3.775.13.673.694.999.586.325 2.148.325v.998h-8.875v-.998q1.41 0 1.975-.304.586-.325.716-.954.13-.651.13-3.841v-5.924q0-1.801-.217-2.712-.195-.912-1.063-1.563-.868-.65-2.257-.65-1.41 0-2.843.954-1.41.955-2.842 2.886v7.009q0 2.842.066 3.58.087.716.608 1.129.542.39 1.91.39v.998h-8.594v-.998q1.454 0 2.018-.304.586-.303.716-.933.152-.629.152-3.862v-4.926q0-2.343-.195-3.385-.174-1.063-1.107-1.801-.933-.76-2.322-.76-1.345 0-2.755.868-1.39.868-2.843 2.604v7.4q0 2.93.087 3.645.087.716.65 1.085.565.37 2.019.37v.997h-8.701v-.998q1.432 0 1.996-.304.586-.325.716-.954.13-.63.13-3.841v-5.316q0-3.038-.109-3.711-.087-.694-.672-1.042-.564-.347-2.062-.347v-.998q3.082-.304 5.1-.976z" style="font-style:normal;font-variant:normal;font-weight:400;font-stretch:normal;font-size:medium;line-height:125%;font-family:Baskerville;-inkscape-font-specification:Baskerville;letter-spacing:0;word-spacing:0;fill:#000;fill-opacity:1;stroke:#000;stroke-width:.02840625;stroke-linecap:butt;stroke-linejoin:miter;stroke-miterlimit:4;stroke-dasharray:none;stroke-opacity:1" transform="matrix(1.01 0 0 1.01 -53.279 -3.736)"/><path d="M1581.322 257.023v-5.837h.846q1.476 5.056 5.273 5.056 1.65 0 2.452-.998.825-.998.825-2.192 0-1.389-.868-2.278-.89-.89-3.45-2.149-2.691-1.323-3.863-2.604-1.172-1.258-1.172-3.102 0-1.758 1.259-3.342 1.259-1.606 3.537-1.606 2.322 0 3.84 1.888.326-.326.847-1.584h.803v5.49h-.803q-.434-1.975-1.693-3.385-1.236-1.432-2.929-1.432-1.302 0-2.105.802-.803.803-.803 1.867 0 1.171.89 2.018.868.868 3.32 1.974 3.689 1.671 4.513 3.255.825 1.606.825 3.081 0 2.322-1.54 3.776-1.52 1.454-3.842 1.454-2.452 0-4.361-2.018-.586.65-.955 1.866h-.846z" style="font-style:normal;font-variant:normal;font-weight:400;font-stretch:normal;font-size:medium;line-height:125%;font-family:Baskerville;-inkscape-font-specification:Baskerville;letter-spacing:0;word-spacing:0;fill:#000;fill-opacity:1;stroke:#000;stroke-width:.27846536;stroke-linecap:butt;stroke-linejoin:miter;stroke-miterlimit:4;stroke-dasharray:none;stroke-opacity:1" transform="matrix(1.01 0 0 1.01 -53.279 -3.736)"/><path d="M1153.035 273.522h20.857M1153.035 281.265h20.857" style="fill:#000;fill-opacity:1;stroke:#000;stroke-width:2;stroke-linecap:butt;stroke-linejoin:miter;stroke-miterlimit:4;stroke-dasharray:none;stroke-opacity:1" transform="translate(-167.707 -35.813) scale(1.12211)"/><path d="M1678.95 273.522h20.858M1678.95 281.265h20.858" style="fill:#000;fill-opacity:1;stroke:#000;stroke-width:2;stroke-linecap:butt;stroke-linejoin:miter;stroke-miterlimit:4;stroke-dasharray:none;stroke-opacity:1" transform="translate(-291.118 -35.813) scale(1.12211)"/><path d="m1230.993 283.718 18.714-18.714M1230.99 265.004l18.713 18.714" style="fill:#000;fill-opacity:1;stroke:#000;stroke-width:2.24422002;stroke-linecap:butt;stroke-linejoin:miter;stroke-miterlimit:4;stroke-dasharray:none;stroke-opacity:1"/><path d="M1180.529 264.906h.219q.635 1.468.635 3.77 1.469-1.885 3.156-2.828 1.71-.942 3.66-.942 2.214 0 3.595 1.008 1.38 1.008 1.928 3.024 1.666-2.016 3.419-3.024 1.753-1.008 3.572-1.008 2.083 0 3.529.964 1.446.964 1.753 2.192.307 1.227.307 3.966v5.392q0 3.134.11 3.813.132.68.701 1.008.592.33 2.17.33v1.007h-8.964v-1.008q1.425 0 1.995-.307.591-.328.723-.964.132-.657.132-3.88v-5.982q0-1.82-.22-2.74-.197-.92-1.074-1.578-.876-.657-2.279-.657-1.424 0-2.87.964-1.426.964-2.872 2.915v7.079q0 2.87.067 3.616.088.723.614 1.14.548.394 1.929.394v1.008h-8.68v-1.008q1.469 0 2.039-.307.592-.306.723-.942.153-.636.153-3.901v-4.975q0-2.367-.197-3.419-.175-1.074-1.118-1.82-.942-.766-2.345-.766-1.358 0-2.783.877-1.403.876-2.87 2.63v7.473q0 2.959.087 3.682.088.723.658 1.096.57.372 2.038.372v1.008h-8.789v-1.008q1.447 0 2.017-.307.591-.328.723-.964.131-.636.131-3.88v-5.369q0-3.068-.11-3.747-.088-.702-.679-1.052-.57-.35-2.082-.35v-1.009q3.112-.307 5.15-.986z" style="font-style:normal;font-variant:normal;font-weight:400;font-stretch:normal;font-size:medium;line-height:125%;font-family:Baskerville;-inkscape-font-specification:Baskerville;letter-spacing:0;word-spacing:0;fill:#000;fill-opacity:1;stroke:#000;stroke-width:.02869031;stroke-linecap:butt;stroke-linejoin:miter;stroke-miterlimit:4;stroke-dasharray:none;stroke-opacity:1"/><path d="M1271.399 275.964h89.562" style="fill:#000;fill-opacity:1;stroke:#000;stroke-width:2.24422002;stroke-linecap:butt;stroke-linejoin:miter;stroke-miterlimit:4;stroke-dasharray:none;stroke-opacity:1"/><path d="M1321.73 255.943v-.674c-3.367 0-4.265-.807-4.265-2.738v-26.795l-.404-.135-8.034 4.084v.629l1.212-.45c.808-.313 1.57-.538 2.02-.538.942 0 1.346.674 1.346 2.2v20.153c0 2.468-.942 3.41-4.264 3.59v.674z" style="font-style:normal;font-variant:normal;font-weight:400;font-stretch:normal;font-size:40px;line-height:1.25;font-family:STIXGeneral;-inkscape-font-specification:STIXGeneral;letter-spacing:0;word-spacing:0;fill:#000;fill-opacity:1;stroke:#000;stroke-width:0;stroke-linecap:butt;stroke-linejoin:miter;stroke-miterlimit:4;stroke-dasharray:none;stroke-opacity:1"/><path d="M1298.398 332.923h35.467" style="fill:#000;fill-opacity:1;stroke:#000;stroke-width:2.24422002;stroke-linecap:butt;stroke-linejoin:miter;stroke-miterlimit:4;stroke-dasharray:none;stroke-opacity:1"/><path d="M1304.76 299.222h.22q.635 1.468.635 3.77 1.468-1.885 3.156-2.828 1.71-.942 3.66-.942 2.213 0 3.594 1.008 1.38 1.008 1.929 3.024 1.665-2.016 3.419-3.024 1.753-1.008 3.572-1.008 2.082 0 3.528.964 1.447.965 1.754 2.192.306 1.227.306 3.967v5.391q0 3.134.11 3.813.132.68.702 1.009.591.328 2.17.328v1.009h-8.964v-1.009q1.424 0 1.994-.306.592-.33.723-.965.132-.657.132-3.879v-5.983q0-1.82-.22-2.74-.196-.92-1.073-1.578-.877-.657-2.28-.657-1.424 0-2.87.964-1.425.965-2.871 2.915v7.08q0 2.87.067 3.615.088.723.613 1.14.548.394 1.929.394v1.009h-8.679v-1.009q1.468 0 2.038-.306.592-.307.723-.943.154-.635.154-3.9v-4.976q0-2.367-.197-3.419-.176-1.074-1.118-1.819-.943-.767-2.345-.767-1.359 0-2.783.877-1.403.876-2.872 2.63v7.473q0 2.959.088 3.682.088.723.658 1.096.57.372 2.038.372v1.009h-8.788v-1.009q1.446 0 2.016-.306.592-.33.723-.965.132-.635.132-3.879v-5.37q0-3.068-.11-3.747-.088-.701-.68-1.052-.57-.35-2.082-.35v-1.009q3.112-.307 5.15-.986z" style="font-style:normal;font-variant:normal;font-weight:400;font-stretch:normal;font-size:medium;line-height:125%;font-family:Baskerville;-inkscape-font-specification:Baskerville;letter-spacing:0;word-spacing:0;fill:#000;fill-opacity:1;stroke:#000;stroke-width:.02869031;stroke-linecap:butt;stroke-linejoin:miter;stroke-miterlimit:4;stroke-dasharray:none;stroke-opacity:1"/><path d="M1310.708 366.354v-5.895h.855q1.49 5.106 5.326 5.106 1.666 0 2.477-1.008.832-1.008.832-2.213 0-1.403-.876-2.301-.899-.899-3.485-2.17-2.718-1.337-3.901-2.63-1.184-1.271-1.184-3.134 0-1.775 1.272-3.375 1.27-1.622 3.572-1.622 2.345 0 3.879 1.907.329-.33.855-1.6h.81v5.545h-.81q-.439-1.995-1.71-3.42-1.249-1.446-2.958-1.446-1.315 0-2.126.811-.811.811-.811 1.885 0 1.183.899 2.038.876.877 3.353 1.994 3.725 1.688 4.558 3.288.833 1.622.833 3.112 0 2.345-1.556 3.813-1.534 1.469-3.88 1.469-2.476 0-4.405-2.038-.591.657-.964 1.884z" style="font-style:normal;font-variant:normal;font-weight:400;font-stretch:normal;font-size:medium;line-height:125%;font-family:Baskerville;-inkscape-font-specification:Baskerville;letter-spacing:0;word-spacing:0;fill:#000;fill-opacity:1;stroke:#000;stroke-width:.1875;stroke-linecap:butt;stroke-linejoin:miter;stroke-miterlimit:4;stroke-dasharray:none;stroke-opacity:1"/><use xlink:href="#a" width="100%" height="100%" y="-586" style="fill:#000;stroke-width:.54963088" transform="matrix(.03328 0 0 -.03328 1270.814 341.013)"/><use xlink:href="#b" width="100%" height="100%" x="1802" y="-586" style="fill:#000;stroke-width:.54963088" transform="matrix(.03328 0 0 -.03328 1275.883 341.013)"/></g></svg>