<svg xmlns="http://www.w3.org/2000/svg" xmlns:xlink="http://www.w3.org/1999/xlink" width="1282.385" height="583.82" viewBox="0 0 1202.236 547.331"><defs><symbol id="b" overflow="visible" style="overflow:visible"><path d="m4.734-1.36-.125-.062c-.375.578-.5.672-.953.672H1.281l1.672-1.766c.89-.921 1.281-1.687 1.281-2.453 0-1-.812-1.765-1.859-1.765-.547 0-1.063.218-1.422.609-.328.344-.469.656-.64 1.375l.203.047C.922-5.687 1.28-6 1.969-6c.828 0 1.406.563 1.406 1.406 0 .782-.469 1.703-1.297 2.594L.297-.125V0h3.89zm0 0" style="stroke:none"/></symbol><symbol id="c" overflow="visible" style="overflow:visible"><path d="M6.563-2.297c.171 0 .359 0 .359-.203 0-.188-.188-.188-.36-.188h-5.39c-.172 0-.344 0-.344.188 0 .203.172.203.344.203zm0 0" style="stroke:none"/></symbol><clipPath id="a"><path d="M163.695 272.895h272.13v272.128h-272.13zm0 0"/></clipPath></defs><g style="display:inline"><path d="M-1153.756-1249.71c6.143-2.486 15.767-2.97 22.785-2.47 5.019.356 13.131 2.334 18.843 7.336 15.439 13.525 13.252 33.878 12.005 42.77-1.097 7.816-4.774 17.104-9.39 23.716-5.835 8.356-16.882 13.768-27.198 14.561-3.524.271-8.315.085-11.75-.75-3.445-.838-6.748-2.35-9.773-4.2-13.512-8.266-21.951-23.957-23.13-39.54-.326-4.314-.381-8.737.52-12.968 1.882-8.827 2.806-12.176 8.216-19.499 7.175-9.712 17.866-14.787 29.585-16.292" style="opacity:1;fill:#f4f4f4;fill-opacity:1;stroke:#000;stroke-width:3.4000001;stroke-linecap:butt;stroke-linejoin:miter;stroke-miterlimit:4;stroke-dasharray:none;stroke-dashoffset:0;stroke-opacity:1" transform="translate(1372.38 1433.575)"/><path d="M-1258.402-1198.295c5.057-.251 12.349 2.572 17.596 8.709 2.317 2.709 4.727 7.216 5.475 10.697 2.627 12.22-2.918 23.085-15.7 26.201-7.168 1.748-14.48-.948-18.836-4.755-4.642-4.056-8.607-10.033-9.01-18.517-.607-12.804 8.205-23.476 18.191-30.113" style="opacity:1;fill:#f4f4f4;fill-opacity:1;stroke:#000;stroke-width:3.7;stroke-linecap:butt;stroke-linejoin:miter;stroke-miterlimit:4;stroke-dasharray:none;stroke-dashoffset:0;stroke-opacity:1" transform="translate(1372.38 1433.575)"/><path d="M-1003.718-1099.4c-9.76-6.426-17.712-14.906-25.147-23.816-7.582-9.663-13.217-20.65-15.366-32.828-1.426-8.078-1.002-11.573-.91-19.753 1.402-14.49 6.347-28.662 16.401-39.507 6.387-6.89 10.036-8.392 17.975-13.306 3.693-1.501 7.281-3.295 11.08-4.505 14.408-4.588 30.05-5.486 44.794-2.088 2.52.581 4.95 1.505 7.426 2.258 2.062.813 12.808 5.172 9.771 9.643-.503.742-1.591.967-2.486 1.028-1.002.068-1.96-.44-2.94-.661-.968-.559-2.039-.97-2.906-1.677-5.286-4.305-5.229-11.52-2.822-17.39.775-1.89 2.072-3.522 3.109-5.282 9.628-11.751 22.15-20.846 35.811-27.392 3.594-1.722 7.315-3.164 10.972-4.746 15.412-5.568 31.845-9.408 48.35-8.121 9.775.762 12.814 2.137 22.062 4.81 10.34 4.312 23.288 9.014 28.19 20.2 2.305 5.264 1.433 7.206.866 12.531-.73 1.812-1.17 3.77-2.192 5.435-.649 1.059-1.536 2.147-2.708 2.56-5.104 1.796-7.665-6.1-8.393-9.3-.469-2.059-.473-4.196-.71-6.295.28-2.16.22-4.392.84-6.48 4.633-15.645 21.173-20.023 34.962-24.105 4.04-.736 8.053-1.642 12.12-2.207 17.655-2.45 37.466-2.825 55.17-.807 4.434.505 8.815 1.393 13.223 2.09 3.893 1.11 7.872 1.955 11.68 3.33 10.888 3.932 21.37 10.848 28.056 20.46 1.063 1.53 1.817 3.253 2.726 4.879 1.163 3.71 2.07 7.59.233 11.29-.287.576-.766 1.157-1.38 1.352-.75.237-1.696.26-2.355-.17-.873-.57-1.208-1.7-1.812-2.55-.235-1.213-.688-2.404-.705-3.64-.125-9.277 5.199-16.866 12.098-22.515 2.3-1.882 4.83-3.462 7.245-5.193 13.541-8.483 28.261-15.081 43.598-19.588 11.607-3.411 16.693-4.037 28.627-6.256 25.72-3.467 52.206-1.554 76.63 7.657 4.708 1.775 9.176 4.13 13.763 6.196 3.87 2.477 7.907 4.712 11.61 7.432 9.939 7.3 19.889 17.677 25.513 28.793.73 1.443 1.214 3 1.822 4.499.444 1.395 1.71 7.184-1.117 7.526-3.585.433-3.713-3.228-3.833-5.552.429-1.256.659-2.6 1.287-3.769 4.28-7.975 19.575-12.406 27.338-15.02 20.19-5.585 41.296-8.303 62.257-7.42 4.753.2 9.485.75 14.228 1.125 18.395 2.009 37.02 4.811 54.386 11.512 10.077 3.889 12.244 5.672 21.38 11.083 10.01 6.977 20.57 15.066 24 27.444 1.666 6.008.84 7.812.04 13.695-.83 2.04-1.39 4.215-2.494 6.121-2.821 4.87-8.37 7.37-13.829 6.676-.86-.11-1.682-.424-2.523-.637-.547-.397-1.406-.557-1.642-1.19-2.353-6.313 9.361-4.626 11.942-4.07 1.995.43 3.909 1.173 5.863 1.76 12.409 5.184 23.286 13.902 31.018 24.953 1.815 2.594 3.277 5.418 4.916 8.127 5.812 12.126 8.864 25.518 7.964 39.013-.637 9.543-1.971 12.115-4.702 21.451-6.446 14.821-15.86 26.204-30.125 34.087-9.63 5.322-12.63 5.545-23.11 8.553-10.11 1.954-20.356 2.464-30.593 1.428-1.183-.12-7.62-.91-9.554-1.882-.513-.257-.75-.867-1.125-1.301 1.073-.728 1.953-1.908 3.22-2.183 1.174-.255 2.39.345 3.531.716 4.482 1.459 8.188 4.147 10.55 8.29.762 1.334 1.179 2.837 1.768 4.256.057 1.668.545 3.378.171 5.004-1.191 5.185-4.03 8.241-8.097 11.484-9.022 7.195-20.027 10.841-30.66 14.826-4.767 1.32-9.488 2.817-14.3 3.96-21.167 5.023-44.676 7.802-66.418 7.198-5.998-.166-11.972-.828-17.958-1.243-16.398-1.693-32.421-5.455-48.137-10.324-7.098-2.198-13.781-4.39-20.454-7.61-1.854-.894-3.568-2.055-5.351-3.082-.856-.865-1.962-1.54-2.568-2.594-1.196-2.083.046-4.062 2.285-4.77 3.173-1.002 6.728 2.686 8.537 4.593.548 1.1 1.334 2.112 1.644 3.302 2.948 11.33-13.81 15.513-21.193 17.755-22.35 4.427-45.46 3.454-67.943.46-5.419-.722-10.792-1.753-16.187-2.629-14.293-2.765-28.534-6.35-41.752-12.602-6.183-2.925-12.28-6.522-17.315-11.224-1.821-1.701-3.227-3.799-4.841-5.698-2.625-4.602-6.163-12.198-.011-16.057.741-.465 1.655-.759 2.529-.705.874.054 1.617.674 2.425 1.01.535.773 1.258 1.444 1.605 2.318 3.446 8.688-6.777 17.62-12.188 22.664-13.189 10.471-29.008 16.779-45.321 20.532-4.103.945-8.268 1.6-12.401 2.4-17.187 2.287-34.934 2.112-51.802-2.32-9.46-2.486-11.18-3.863-19.513-8.07-4.287-3.074-15.644-9.606-11.871-16.812 1.442-2.755 4.727-3.14 7.247-3.912 1.554.129 3.16-.03 4.74.512 13.372 3.965 7.154 19.7-3.216 23.275-20.778 7.161-42.912 8.385-64.756 7.655-43.564-1.455-87.835-8.84-124.236-29.284-25.161-14.132-38.408-28.962-41.278-41.079-2.29-9.668-1.926-17.727 6.833-25.411 3.833-3.363 7.993-4.128 9.285-4.559" style="opacity:1;fill:#f4f4f4;fill-opacity:1;stroke:#000;stroke-width:3.4000001;stroke-linecap:butt;stroke-linejoin:miter;stroke-miterlimit:4;stroke-dasharray:none;stroke-dashoffset:0;stroke-opacity:1" transform="translate(1372.38 1433.575)"/><path d="M-1017.355-1052.692c-4.293-3.571-9.826-1.658-14.417.242-.77.465-2.687 1.236-2.967 2.475-.04.182.388-.025.559.05.457.202.844.54 1.29.765 2.404 1.207 3.868 1.698 6.484 2.723 4.477 1.793 13.458 5.415 15.15 10.514.24.723.117 1.52.176 2.28-.568.907-.93 1.984-1.704 2.722-3.354 3.197-11.823 3.401-16.026 2.779-1.522-.226-2.996-.703-4.493-1.054-1.789-.692-4.545-1.477-6.035-2.954-.47-.466-.622-1.17-.934-1.754l1.656-1.102c.077.373-.026.839.232 1.12 1.259 1.378 3.996 2.171 5.512 2.77 1.413.339 2.803.798 4.24 1.016 5.453.826 11.056.196 15.638-3.009.07-.517.325-1.042.209-1.55-.342-1.504-2.099-3.21-3.128-4.055-3.27-2.687-7.226-4.368-11.137-5.86-1.643-.64-7.976-2.64-8.916-4.471-1.441-2.806 1.909-4.346 3.658-5.308 5.493-2.208 11.314-3.958 16.35.24l-1.397 1.421zM-1007.836-1084.981c1.287 5.36 1.339 10.911 1.824 16.376.448 5.06.683 6.72 1.286 11.842 1.227 9.548 2.691 19.075 3.65 28.657.04.491.077.983.116 1.474l-1.877.659-.096-1.442c-.898-9.578-2.388-19.095-3.614-28.634-.606-5.073-.86-6.883-1.313-11.898-.482-5.342-.547-10.756-1.687-16.016l1.712-1.018zM-981.463-1048.618c-3.639-2.14-7.606-.734-10.783 1.662-.84.633-1.541 1.433-2.312 2.15-.552.848-1.246 1.62-1.657 2.546-1.908 4.297.267 8.497 4.114 10.831 1.3.79 2.788 1.212 4.183 1.818 1.633.177 3.257.573 4.9.532 6.782-.17 12.671-4.283 14.09-11.124.273-1.317.023-2.689.035-4.033-.51-1.3-.782-2.721-1.527-3.903-3.057-4.845-9.236-6.597-14.601-6.619l.087-1.983c6.006.104 12.746 2.11 16.16 7.525.862 1.366 1.192 3.003 1.788 4.505-.326 4.738.194 6.546-2.539 10.625-3.094 4.617-8.31 6.89-13.74 6.954-1.799.021-3.57-.429-5.356-.643-3.565-1.574-5.419-1.862-7.95-4.911-2.673-3.22-2.816-7.37-.983-11.029.507-1.01 1.304-1.848 1.957-2.772.866-.766 1.66-1.62 2.598-2.297 3.858-2.781 8.534-4.006 12.763-1.403l-1.227 1.57zM-955.78-1044.508c1.123 18.421 2.18 36.938 1.138 55.386 1.453-.479-.773 6.492-2.809 5.803-1.21-.41-1.824-1.789-2.737-2.683l1.43-1.369c.21.727.178 1.574.63 2.181.762 1.024 5.125-6.212 1.586-3.484 1.15-18.335.039-36.746-1.061-55.06l1.824-.774z" style="opacity:1;fill:#000;fill-opacity:1;stroke:#000;stroke-width:1.35000002;stroke-linecap:butt;stroke-linejoin:miter;stroke-miterlimit:4;stroke-dasharray:none;stroke-dashoffset:0;stroke-opacity:1" transform="translate(1464.304 1330.337)"/><path d="M-968.524-1043.77c7.268-6.602 15.349-5.19 24.199-3.209 3.564 1.402 8.099 3.377 7.353 8.184-.238 1.536-.891 3.047-1.817 4.297-2.471 3.332-5.076 3.63-8.763 4.985-1.996.1-3.99.372-5.986.299-5.375-.196-11.119-1.504-15.65-4.47l.97-1.732c4.123 2.903 9.713 4.034 14.674 4.243 1.838.078 3.676-.163 5.514-.245 1.523-.554 3.157-.867 4.569-1.663 2.206-1.246 5.957-4.708 4.661-7.826-1.018-2.453-3.871-3.19-5.939-4.152-8.191-1.856-15.878-3.361-22.575 2.865l-1.21-1.576z" style="opacity:1;fill:#000;fill-opacity:1;stroke:#000;stroke-width:1.35000002;stroke-linecap:butt;stroke-linejoin:miter;stroke-miterlimit:4;stroke-dasharray:none;stroke-dashoffset:0;stroke-opacity:1" transform="translate(1464.304 1330.337)"/><path d="M-931.054-1045.003c4.669.823 10.522.088 12.653-4.87.301-.699.283-1.496.424-2.244-.166-.355-.239-.77-.498-1.063-2.402-2.716-7.37-.756-9.867.68-1.163.669-2.166 1.583-3.249 2.374-2.907 2.736-7.741 7.844-5.663 12.383 1.307 2.855 2.762 2.89 5.514 4.233 1.676.242 3.334.697 5.027.726 7.227.125 14.722-2.981 20.012-7.844.9-.827 1.621-1.832 2.432-2.748 1.158-2.497 1.164-1.43.917-3.068l1.934-.458c-.442 3.54.089 1.824-1.684 5.116-.892.964-1.692 2.021-2.675 2.892-5.68 5.038-13.59 8.269-21.237 8.05-1.857-.054-3.67-.573-5.505-.858-2.84-1.456-5.443-1.992-6.59-5.362-.461-1.354-.385-2.868-.205-4.287.561-4.41 3.727-7.72 6.846-10.539 1.194-.835 2.304-1.805 3.582-2.506 2.886-1.583 10.08-3.8 12.193.34.454.889.274 1.977.411 2.965-.27.9-.37 1.868-.807 2.7-2.81 5.355-9.16 6.275-14.537 5.291l.572-1.903zM-882.921-1051.415c9.124.093 18.25-.08 27.374-.176 2.688-.024 2.914-.028 5.338-.043.444 0 .888 0 1.332-.01.213 0 .637-.213.637 0 0 .7-.423 1.334-.634 2.001l.052-1.995c.17.663.55 1.305.51 1.988-.013.21-.42 0-.63 0-2.22 0-4.439.016-6.659.03-9.233.078-18.47.285-27.702.162l.382-1.956zM-880.804-1042.815c10.818-.799 21.684-.794 32.527-.86 1.794.208 3.661-.397 5.347.324l-.948 1.758c1.278-1.089-7.282 1.461-4.46-.117-10.77.045-21.567.037-32.31.879l-.156-1.984zM-611.597-1065.816c7.265-.605 14.516-1.36 21.791-1.843 1.417-.076.826-.055 1.775-.081l-.03 1.996c-.9.018-.33 0-1.712.07-7.245.457-14.465 1.207-21.696 1.843l-.128-1.985zM-574.295-1091.081c-.833 9.9-.766 19.86.565 29.716-.623.74 1.792 6.497 1.472 7.602-.12.416-.175 1.018-.623 1.16-.492.157-.976-.331-1.465-.497l-.33-.819 1.753-.862.071.48c-1.62.207-.688-.201-1.323 1.04-.072.141.088-.308.064-.461-.07-.462-.24-.906-.343-1.363-.525-2.302-.641-3.113-1.103-5.623-1.38-9.96-1.442-20.02-.69-30.032l1.952-.341zM-615.234-1043.812c10.755-1.072 21.626-.82 32.426-.851 10.748.175 21.522-.22 32.164-1.79.218 0 .436.01.654.01l-.121 1.993c-.125-.01-.25-.016-.375-.023-10.723 1.51-21.563 1.939-32.385 1.752-10.697.035-21.469-.21-32.119.887l-.244-1.978z" style="opacity:1;fill:#000;fill-opacity:1;stroke:#000;stroke-width:1.35000002;stroke-linecap:butt;stroke-linejoin:miter;stroke-miterlimit:4;stroke-dasharray:none;stroke-dashoffset:0;stroke-opacity:1" transform="translate(1464.304 1330.337)"/><path d="M-592.24-1023.913c4.235-2.738 8.92-4.813 13.847-5.932.967-.22 1.957-.318 2.935-.477 1.368.11 2.675-.2 3.49 1.245 1.324 2.353-2.509 8.466-3.555 10.49-2.94 5.169-5.668 10.478-8.795 15.538-.693 1.122-2.57 3.842-3.422 5.087.327-.311-2.786 3.585-3.087 2.338-.386-1.597.185-1.582 1.114-2.004 6.346-2.546 13.076-3.75 19.818-4.663 2.54.034 6.528-.757 8.983.376l-.66 1.404c-.353-.353-2.212-.392-2.374-.4-2.54-.118-3.09-.01-5.839.14-6.62.897-13.234 2.08-19.454 4.616-1.38.652-.218.392-1.057-.928-.078-.121-.295.125-.427.067-.087-.038.17-.085.242-.147a7.16 7.16 0 0 0 .646-.633c.37-.419.707-.866 1.06-1.298 4.5-6.562 8.322-13.519 12.115-20.51 1.14-2.228 2.67-4.848 3.516-7.23.178-.501.529-1.46-.296-1.782-.585-.229-1.25-.12-1.875-.18-.933.151-1.876.243-2.797.453-4.779 1.09-9.33 3.11-13.415 5.803l-.714-1.373z" style="opacity:1;fill:#000;fill-opacity:1;stroke:#000;stroke-width:1.60000002;stroke-linecap:butt;stroke-linejoin:miter;stroke-miterlimit:4;stroke-dasharray:none;stroke-dashoffset:0;stroke-opacity:1" transform="translate(1464.304 1330.337)"/><path d="M-681.305-1048.623a684.582 684.582 0 0 0 28.092-1.71c2.94-.248 1.634-.25 3.917-.133l-.159 1.984c-2.063-.128-.83-.11-3.7.122a789.61 789.61 0 0 1-28.22 1.723l.07-1.987zM-685.112-1039.623c11.17-.525 22.321-1.36 33.492-1.883 2.327.064 4.636-.457 6.934-.02l-.404 1.952c-2.128-.539-4.371.305-6.526.03-11.197.51-22.372 1.352-33.565 1.906l.069-1.985zM-808.8-1080.569c4.511 6.56 8.408 13.554 12.06 20.625.027.061 2.031 3.616.88 4.223-2.703 1.423-6.72-4.77-7.527-6.154-.772-1.326-1.305-2.777-1.958-4.165-.132-1.47-.64-2.954-.397-4.41 1.385-8.311 11.123-10.91 18.126-12.16 1.748-.313 3.532-.367 5.298-.55l3.77.418-.25 1.958-3.427-.416c-5.628.577-11.387 1.32-16.394 4.237-1.837 1.07-4.74 3.446-5.26 5.874-.271 1.271.088 2.599.131 3.898 1.548 3.438 1.693 4.39 4.08 7.286.609.74 1.556 1.18 2.082 1.98.219.334-.063.805.003 1.2.018.108.274.333.237.23-.272-.765-.635-1.494-.953-2.241-3.583-7.007-7.447-13.918-11.898-20.411l1.397-1.422zM-776.4-1077.181c.902 5.956.358 12.03-.4 17.973l-1.957.342c.582-4.17 1.05-8.441.961-12.657-.025-1.202-.217-2.396-.28-3.596-.053-1.01-.044-2.02-.066-3.03l1.743.968zM-780.78-1093.184c.641.042 1.366.196 1.975-.161.339-.199.744-1.1.352-1.125-.206-.013-.232.358-.407.467-.147.091-.339.068-.508.102-.295.258-1.314.943-.792 1.426l-1.972.288c.582-2.255.695-3.003 3.084-3.68.525.145 1.198.042 1.576.434 2.624 2.727-1.667 5-3.972 4.128l.664-1.879zM-753.234-1077.845c-3.377-.523-7.31-1.242-10.1 1.204-.026.235-.164.485-.079.706.073.187.36.198.49.35.416.487.718 1.063 1.134 1.55 2.141 2.498 4.667 4.644 7.148 6.787 2.255 1.967 8.644 6.119 5.707 9.9-.457.588-1.281.76-1.922 1.14-4.836 1.453-9.888.408-13.644-3.07-.579-.536-.997-1.224-1.496-1.835l-.605-1.621 1.73-.982.247 1.168c.386.528.692 1.125 1.16 1.582 3.195 3.13 7.638 4.15 11.874 2.911.388-.203.764-.43 1.163-.61.147-.066.425.031.467-.124.605-2.225-4.57-5.66-5.801-6.834-2.042-1.754-7.94-6.573-8.908-9.01-.313-.787-.408-1.678-.32-2.52.05-.475.476-.828.714-1.242.431-.306.822-.679 1.294-.918 3.127-1.581 6.83-.989 10.13-.488l-.383 1.956z" style="opacity:1;fill:#000;fill-opacity:1;stroke:#000;stroke-width:1.35000002;stroke-linecap:butt;stroke-linejoin:miter;stroke-miterlimit:4;stroke-dasharray:none;stroke-dashoffset:0;stroke-opacity:1" transform="translate(1464.304 1330.337)"/><path d="M-746.579-1069.421c3.3-.181 8.031-.638 9.596-4.188.137-.31.02-.677.031-1.015-1.08.461-2.164-.024-3.374.323-2.736.783-4.226 2.801-5.863 4.949-.423.91-1.147 1.732-1.27 2.728-.249 1.996 2.14 4.15 3.415 4.923 4.647 2.817 10.183 2.638 15.366 2.564 3.933-.428 7.741-1.254 10.687-4.002l1.023 1.704c-3.471 2.888-7.286 3.82-11.76 4.26-1.823.015-3.65.185-5.468.048-4.573-.343-12.145-1.67-14.435-6.477-.62-1.302-.557-2.89-.324-4.313.179-1.095 1.009-1.977 1.513-2.965.685-.839 1.283-1.758 2.056-2.516 1.91-1.87 4.574-3.36 7.347-3.024.711.086 1.533.165 2.043.668.534.526.519 1.406.778 2.109-.17.525-.23 1.1-.511 1.576-2.253 3.815-7.157 4.504-11.144 4.616l.294-1.968zM-813.921-1045.415c9.06.317 18.092-.582 27.094-1.481 16.967-1.54 33.96-2.787 50.981-3.54 9.352-.057 18.727.081 28.057.787l.464.06-.283 1.976-.376-.054c-9.26-.763-18.576-.866-27.861-.827-16.992.747-33.957 1.99-50.894 3.545-9.155.92-18.35 1.86-27.564 1.49l.382-1.956zM-802.8-1027.569c.343.625.733 1.227 1.03 1.875.966 2.112 1.735 4.31 2.596 6.467 1.257 3.147 2.543 6.258 3.94 9.344.148.406 1.306 2.695.235 3.204-2.617 1.24-4.999-4.172-5.493-5.479-.503-1.332-.738-2.75-1.108-4.125-.023-1.49-.316-3-.07-4.47 1.216-7.27 6.764-10.69 13.502-12.131 1.328-.284 2.7-.296 4.051-.444 3.704.142 2.039-.074 5.012.496l-.378 1.95c-2.65-.542-1.145-.33-4.533-.477-1.251.134-2.523.14-3.754.402-5.06 1.077-10.917 4.016-12.007 9.662-.26 1.343-.05 2.735-.074 4.102.78 3.217.675 3.971 2.312 6.684.365.606 1.048 1.004 1.333 1.65.114.26-.224.53-.248.813-.024.266.24 1.025.107.794-.26-.453-.334-.988-.5-1.481-2.34-5.173-4.217-10.527-6.479-15.726-.252-.58-.58-1.126-.87-1.688l1.396-1.422zM-778.297-1022.897c.093.983.017 1.996.278 2.948 1.136 4.147 5.163 8.116 9.795 7.018 1.003-.238 1.839-.932 2.758-1.397.685-.849 1.5-1.606 2.053-2.546 1.635-2.78 2.794-8.134-.36-10.35l.02.556-.716-1.86 1.741-.391c.425.334.944.575 1.275 1.003 2.746 3.554 1.542 9.192-.766 12.615-.725 1.074-1.76 1.902-2.64 2.853-1.157.496-2.232 1.262-3.47 1.49-5.44 1-10.102-3.396-11.539-8.288-.308-1.049-.25-2.171-.376-3.257l1.947-.394zM-753.957-1024.25c.308 3.657.486 7.322.674 10.987.041.799.078 1.598.121 2.397.018.327.36.837.065.979-.568.272-1.257-.07-1.885-.106-.135-6.92 2.139-14.684 8.734-18.132 1.321-.69 2.848-.883 4.272-1.324 1.328.102 2.709-.08 3.984.306 3.96 1.197 6.016 4.757 6.454 8.642.363 3.228-.33 5.69-.888 8.864-1.162 4.587-.656 2.445-1.544 6.42l-1.71-.997c.911-3.969.408-1.847 1.52-6.361.975-4.88 2.184-12.495-4.039-14.605-1.072-.364-2.253-.227-3.38-.34-1.247.377-2.587.526-3.74 1.13-5.754 3.018-7.948 9.839-7.73 15.903-.644.415-1.172 1.154-1.933 1.246-.333.04-.046-.67-.063-1.004-.041-.8-.073-1.598-.112-2.397-.178-3.634-.357-7.268-.655-10.893l1.855-.715zM-529.884-1047.626c8.723.13 17.375-1.252 25.983-2.498 1.497-.14 2.98-.34 4.443.051l-.552 1.919c-1.056-.475-2.739.09-3.735 0-8.686 1.235-17.41 2.62-26.209 2.521l.07-1.99zM-530.269-1037.002c10.965-1.901 21.991-3.07 33.12-3.072 1.374.03 2.529-.101 3.681.606l-1.439 1.387c.168.062.675.14.503.186-.908.246-1.924-1.286-2.815-.206-11.026-.026-21.952 1.137-32.806 3.07l-.244-1.97zM-465.921-1044.415c7.932.9 16.011.466 23.952-.188.671-.38 5.136-.225 5.85-.987l.66 1.886c-2.033.8-4.34.678-6.451 1.07-8.09.645-16.314 1.096-24.393.175l.382-1.956zM-401.12-1085.553c-.013 7.81-.013 15.62-.011 23.43l.006 6.257.003 1.72c0 .302.16.649.003.906-.093.154-.182-.308-.273-.462l-.984 1.739c-.22-.242-.537-.423-.66-.727-.112-.28.003-.605.004-.908.006-2.66.007-5.321.009-7.982.002-7.808.002-15.616-.01-23.425l1.913-.548zM-420.691-1044.625c11.499-.748 23.015-1.241 34.508-2.071 2.806-.08 5.547-.696 8.35-.706l-.073 1.99c-2.763-.02-5.466.64-8.234.672-11.532.815-23.086 1.323-34.62 2.104l.069-1.989zM-417.194-1028.365c3.625-1.397 7.36-2.488 11.147-3.346 2.208-.5 3.682-.919 5.912-.648.708.086 1.375.378 2.063.567.499.413 1.123.709 1.496 1.237 2.994 4.236-3.343 11.698-5.73 14.755-3.625 4.657-7.817 8.822-11.595 13.346l.337-.685c-.26-.318-.85-.55-.78-.955.063-.354.674-.255 1.012-.379 2.557-.932 5.066-1.893 7.653-2.75 9.356-2.216 18.963-3.266 28.56-3.654 1.817-.01 1.049-.04 2.306.043l-.184 1.987c-1.12-.087-.41-.048-2.13-.048-9.45.355-18.91 1.389-28.116 3.597-1.157.389-2.324.75-3.472 1.166-.17.062-4.712 2-5.112 1.968-.598-.048-1.356-.104-1.7-.597-.252-.364.27-.845.403-1.267 3.819-4.459 7.94-8.65 11.558-13.283 2.938-3.829 2.266-2.661 4.505-6.64.709-1.26 2.027-3.4 1.31-5-.17-.377-.556-.614-.834-.92-.543-.17-1.065-.431-1.629-.506-2.043-.274-3.482.15-5.518.613-3.734.848-7.412 1.936-10.982 3.325l-.48-1.925z" style="opacity:1;fill:#000;fill-opacity:1;stroke:#000;stroke-width:1.35000002;stroke-linecap:butt;stroke-linejoin:miter;stroke-miterlimit:4;stroke-dasharray:none;stroke-dashoffset:0;stroke-opacity:1" transform="translate(1464.304 1330.337)"/></g><path d="M187.737 187.504v71.064h141.775" style="display:inline;fill:#fde1e8;fill-opacity:1;stroke:none;stroke-width:1px;stroke-linecap:butt;stroke-linejoin:miter;stroke-opacity:1" transform="translate(1372.38 1433.575)"/><path d="M187.642 187.603h71.064V45.828M447.857 646.516h71.065V504.74" style="display:inline;fill:#cfeff7;fill-opacity:1;stroke:none;stroke-width:1px;stroke-linecap:butt;stroke-linejoin:miter;stroke-opacity:1" transform="translate(1372.38 1433.575)"/><g style="display:inline" transform="translate(1110.122 667.638)"><rect width="534.286" height="188.571" x="899.928" y="837.789" ry="71.609" style="opacity:1;fill:#ffe4ef;fill-opacity:1;stroke:#000;stroke-width:1.20000005;stroke-linecap:round;stroke-linejoin:miter;stroke-miterlimit:4;stroke-dasharray:none;stroke-dashoffset:0;stroke-opacity:1"/><g style="font-style:normal;font-weight:400;font-size:40px;line-height:125%;font-family:sans-serif;letter-spacing:0;word-spacing:0;fill:#000;fill-opacity:1;stroke:none;stroke-width:1px;stroke-linecap:butt;stroke-linejoin:miter;stroke-opacity:1"><path d="M166.639 355.727v-5.254h.762q1.328 4.551 4.746 4.551 1.484 0 2.207-.898.742-.899.742-1.973 0-1.25-.781-2.05-.801-.802-3.106-1.934-2.422-1.192-3.476-2.344-1.055-1.133-1.055-2.793 0-1.582 1.133-3.008 1.132-1.445 3.183-1.445 2.09 0 3.457 1.699.293-.293.762-1.426h.723v4.942h-.723q-.39-1.778-1.523-3.047-1.114-1.29-2.637-1.29-1.172 0-1.895.723-.722.723-.722 1.68 0 1.055.8 1.816.782.782 2.989 1.778 3.32 1.504 4.062 2.93.742 1.445.742 2.773 0 2.09-1.386 3.398-1.367 1.309-3.457 1.309-2.207 0-3.926-1.817-.527.586-.86 1.68h-.761zM184.51 328.364v21.367q0 2.559.058 3.223.079.664.567 1.015.488.352 1.738.352h.469v.898h-8.555v-.898h.547q1.172 0 1.66-.313.508-.332.606-.918.097-.585.097-3.359v-15.82q0-2.52-.449-3.164-.449-.664-2.187-.664v-.899q1.191 0 2.793-.273 1.62-.274 2.226-.547h.43zM189.47 347.192q0-3.672 2.462-6.133 2.46-2.48 6.054-2.48 3.614 0 6.075 2.48 2.46 2.48 2.46 6.133 0 4.043-2.5 6.367-2.5 2.305-6.035 2.305t-6.035-2.344q-2.48-2.363-2.48-6.328zm3.243.098q0 4.257 1.387 5.976 1.386 1.7 3.886 1.7 2.559 0 3.907-1.7 1.367-1.719 1.367-5.976 0-4.22-1.348-6.016-1.347-1.797-3.926-1.797-2.558 0-3.925 1.797-1.348 1.777-1.348 6.016zM212.928 338.579h.527q.332 1.093.332 2.636 1.25-1.328 2.676-1.972 1.445-.664 3.047-.664 3.32 0 5.527 2.343 2.207 2.325 2.207 6.153 0 3.75-2.226 6.27-2.207 2.519-5.82 2.519-1.485 0-2.852-.606-1.348-.586-2.559-1.757v6.074q0 2.773.098 3.379.117.605.625.898.508.313 1.894.313v.898h-8.359v-.898h.586q1.387 0 1.797-.41.43-.391.488-.958.078-.546.078-3.222v-14.531q0-2.559-.078-3.223-.058-.664-.547-1.016-.488-.351-1.738-.351h-.586v-.899q1.934-.195 4.883-.976zm.86 13.633q1.054 1.289 2.226 1.953 1.191.644 2.5.644 2.207 0 3.847-1.894 1.641-1.895 1.641-6.035 0-3.594-1.582-5.372-1.582-1.777-3.77-1.777-1.347 0-2.558.684-1.211.683-2.305 2.07v9.727zM244.822 344.633H233.67q-.078 1.153-.078 1.72 0 4.218 1.309 6.347 1.328 2.11 3.945 2.11 3.555 0 5.039-3.184h.937q-.625 1.992-2.48 3.125-1.856 1.113-4.043 1.113-2.031 0-3.848-1.016-1.797-1.035-2.949-2.91-1.152-1.875-1.152-4.55 0-3.79 2.226-6.29 2.227-2.52 5.567-2.52 3.144 0 4.863 1.915 1.719 1.914 1.816 4.14zm-3.418-.78q.059-.45.059-.802 0-1.718-1.016-2.656-.996-.957-2.46-.957-3.555 0-4.239 4.414h7.656z" style="font-style:normal;font-variant:normal;font-weight:400;font-stretch:normal;font-family:Baskerville;-inkscape-font-specification:Baskerville" transform="translate(791.356 285.671)"/></g><g style="font-style:normal;font-weight:400;font-size:40px;line-height:125%;font-family:sans-serif;letter-spacing:0;word-spacing:0;fill:#000;fill-opacity:1;stroke:none;stroke-width:1px;stroke-linecap:butt;stroke-linejoin:miter;stroke-opacity:1"><path d="M326.879 319.565q.664-1.738 2.148-2.91 1.504-1.172 2.93-1.172 1.289 0 2.03.8.743.801.743 1.641 0 .567-.39.977-.372.41-.918.41-.977 0-1.485-1.445-.351-.977-1.055-.977-.84 0-2.011 1.152-1.172 1.133-1.504 2.364-.332 1.23-.332 3.379v2.851q0 2.559.058 3.223.078.664.567 1.015.488.352 1.738.352h.547v.898h-8.496v-.898h.41q1.172 0 1.66-.313.508-.332.606-.917.097-.586.097-3.36v-4.512q0-2.578-.078-3.222-.058-.664-.547-1.016-.488-.371-1.738-.371h-.41v-.879q1.836-.215 4.805-1.152.566 1.543.625 4.082zM337.504 307.319q0-.84.585-1.446.606-.605 1.446-.605t1.426.605q.586.606.586 1.446 0 .86-.586 1.465-.586.605-1.426.605t-1.446-.605q-.585-.606-.585-1.465zm3.77 8.164v11.152q0 2.559.077 3.223.078.664.567 1.015.488.352 1.738.352h.41v.898h-8.613v-.898h.664q1.387 0 1.797-.39.43-.41.488-.958.078-.566.078-3.242v-4.844q0-2.812-.273-3.437-.254-.625-.704-.781-.43-.157-1.523-.157h-.527v-.898q3.476-.352 5.39-1.035h.43zM346.449 332.631v-5.254h.762q1.328 4.551 4.746 4.551 1.484 0 2.207-.898.742-.899.742-1.973 0-1.25-.781-2.05-.801-.802-3.106-1.934-2.422-1.192-3.476-2.344-1.055-1.133-1.055-2.793 0-1.582 1.133-3.008 1.133-1.445 3.183-1.445 2.09 0 3.457 1.699.293-.293.762-1.426h.723v4.942h-.723q-.39-1.778-1.523-3.047-1.114-1.29-2.637-1.29-1.172 0-1.895.723-.722.723-.722 1.68 0 1.055.8 1.816.782.782 2.989 1.778 3.32 1.504 4.062 2.93.742 1.445.742 2.773 0 2.09-1.386 3.398-1.367 1.309-3.457 1.309-2.207 0-3.926-1.816-.527.585-.86 1.68h-.761zM374.164 321.537H363.01q-.078 1.153-.078 1.72 0 4.218 1.309 6.347 1.328 2.11 3.945 2.11 3.555 0 5.04-3.184h.937q-.625 1.992-2.48 3.125-1.856 1.113-4.044 1.113-2.031 0-3.847-1.016-1.797-1.035-2.95-2.91-1.152-1.875-1.152-4.55 0-3.79 2.227-6.29 2.226-2.52 5.566-2.52 3.145 0 4.863 1.915 1.72 1.914 1.817 4.14zm-3.418-.78q.058-.45.058-.802 0-1.718-1.015-2.656-.996-.957-2.461-.957-3.555 0-4.239 4.414h7.657z" style="font-style:normal;font-variant:normal;font-weight:400;font-stretch:normal;font-family:Baskerville;-inkscape-font-specification:Baskerville" transform="translate(791.356 283.528)"/></g><g style="font-style:normal;font-weight:400;font-size:40px;line-height:125%;font-family:sans-serif;letter-spacing:0;word-spacing:0;fill:#000;fill-opacity:1;stroke:none;stroke-width:1px;stroke-linecap:butt;stroke-linejoin:miter;stroke-opacity:1"><path d="M326.879 372.093q.664-1.739 2.148-2.91 1.504-1.172 2.93-1.172 1.289 0 2.03.8.743.801.743 1.641 0 .567-.39.977-.372.41-.919.41-.976 0-1.484-1.445-.351-.977-1.055-.977-.84 0-2.011 1.152-1.172 1.133-1.504 2.364-.332 1.23-.332 3.379v2.851q0 2.559.058 3.223.078.664.567 1.015.488.352 1.738.352h.547v.898h-8.496v-.898h.41q1.172 0 1.66-.313.508-.332.606-.918.097-.585.097-3.359v-4.512q0-2.578-.078-3.222-.058-.664-.547-1.016-.488-.371-1.738-.371h-.41v-.879q1.836-.215 4.805-1.152.566 1.543.625 4.082zM352.21 368.655v10.489q0 2.617.079 3.28.078.665.566.997.508.332 1.797.332v.898q-2.969.04-4.336.625h-.234q-.625-1.074-.664-3.71-1.192 1.855-2.735 2.792-1.523.938-3.379.938-1.601 0-2.832-.723-1.23-.742-1.699-1.797-.45-1.054-.45-3.183v-5.45q0-2.773-.097-3.378-.098-.625-.625-.918-.508-.293-1.894-.293v-.899h5.43v11.094q0 1.64.195 2.383.195.742.996 1.308.8.547 1.855.547 1.504 0 2.871-.976 1.367-.996 1.856-2.09.508-1.113.508-3.164v-3.613q0-2.618-.059-3.184-.059-.566-.508-.977-.43-.43-1.816-.43h-.41v-.898h5.586zM361.195 368.01h.527q.45 1.212.508 3.302 1.406-1.66 2.95-2.481 1.542-.82 3.222-.82 1.914 0 3.125.8 1.23.801 1.582 1.973.352 1.153.352 3.38v5q0 2.773.097 3.378.098.605.606.918.527.293 1.914.293v.898h-8.184v-.898h.371q1.407 0 1.836-.41.43-.41.488-.957.06-.547.06-3.223v-5.156q0-1.895-.196-2.695-.176-.82-.996-1.446-.801-.625-2.051-.625-1.426 0-2.734.86-1.29.84-2.442 2.539v6.523q0 2.774.098 3.379.117.605.625.918.527.293 1.933.293v.898H356.8v-.898q1.348 0 1.875-.274.528-.273.645-.82.137-.566.137-3.496v-4.766q0-2.793-.117-3.378-.098-.606-.625-.899-.508-.312-1.915-.312v-.899q2.149-.234 4.395-.898z" style="font-style:normal;font-variant:normal;font-weight:400;font-stretch:normal;font-family:Baskerville;-inkscape-font-specification:Baskerville" transform="translate(791.356 288.528)"/></g><path d="M319.086 348.286h55.68" style="fill:none;stroke:#000;stroke-width:1.89999998;stroke-linecap:butt;stroke-linejoin:miter;stroke-miterlimit:4;stroke-dasharray:none;stroke-opacity:1" transform="translate(791.356 285.671)"/><g style="font-style:normal;font-weight:400;font-size:40px;line-height:125%;font-family:sans-serif;letter-spacing:0;word-spacing:0;fill:#000;fill-opacity:1;stroke:none;stroke-width:1px;stroke-linecap:butt;stroke-linejoin:miter;stroke-opacity:1"><path d="M157.81 450.643v-2.64h-23.56v2.64h23.56zm0 8v-2.64h-23.56v2.64h23.56z" style="font-style:normal;font-variant:normal;font-weight:400;font-stretch:normal;font-family:STIXGeneral;-inkscape-font-specification:STIXGeneral" transform="translate(924.227 179.605)"/></g><g style="font-style:normal;font-weight:400;font-size:40px;line-height:125%;font-family:sans-serif;letter-spacing:0;word-spacing:0;fill:#000;fill-opacity:1;stroke:none;stroke-width:1px;stroke-linecap:butt;stroke-linejoin:miter;stroke-opacity:1"><path d="M157.81 450.643v-2.64h-23.56v2.64h23.56zm0 8v-2.64h-23.56v2.64h23.56z" style="font-style:normal;font-variant:normal;font-weight:400;font-stretch:normal;font-family:STIXGeneral;-inkscape-font-specification:STIXGeneral" transform="translate(1058.513 179.605)"/></g><g style="font-style:normal;font-weight:400;font-size:40px;line-height:125%;font-family:sans-serif;letter-spacing:0;word-spacing:0;fill:#000;fill-opacity:1;stroke:none;stroke-width:1px;stroke-linecap:butt;stroke-linejoin:miter;stroke-opacity:1"><path d="m477.531 325.454-.56-.24c-1.32 2.24-2.16 2.68-3.84 2.68h-9.36l6.6-7.04c3.56-3.76 5.12-6.76 5.12-9.92 0-3.96-2.88-7.04-7.4-7.04-4.92 0-7.48 3.28-8.32 7.96l.84.2c1.6-3.92 3-5.2 5.88-5.2 3.4 0 5.56 2 5.56 5.64 0 3.4-1.44 6.44-5.2 10.4l-7.12 7.56v.48h15.64l2.16-5.48z" style="font-style:normal;font-variant:normal;font-weight:400;font-stretch:normal;font-family:STIXGeneral;-inkscape-font-specification:STIXGeneral" transform="translate(791.356 285.671)"/></g><path d="M456.229 348.286h23.538" style="fill:none;stroke:#000;stroke-width:1.89999998;stroke-linecap:butt;stroke-linejoin:miter;stroke-miterlimit:4;stroke-dasharray:none;stroke-opacity:1" transform="translate(791.356 285.671)"/><g style="font-style:normal;font-weight:400;font-size:40px;line-height:125%;font-family:sans-serif;letter-spacing:0;word-spacing:0;fill:#000;fill-opacity:1;stroke:none;stroke-width:1px;stroke-linecap:butt;stroke-linejoin:miter;stroke-opacity:1"><path d="M335.046 485.934v-.6c-3 0-3.8-.72-3.8-2.44v-23.88l-.36-.12-7.16 3.64v.56l1.08-.4c.72-.28 1.4-.48 1.8-.48.84 0 1.2.6 1.2 1.96v17.96c0 2.2-.84 3.04-3.8 3.2v.6h11.04z" style="font-style:normal;font-variant:normal;font-weight:400;font-stretch:normal;font-family:STIXGeneral;-inkscape-font-specification:STIXGeneral" transform="translate(931.356 187.238)"/></g><g style="font-style:normal;font-weight:400;font-size:40px;line-height:125%;font-family:sans-serif;letter-spacing:0;word-spacing:0;fill:#000;fill-opacity:1;stroke:none;stroke-width:1px;stroke-linecap:butt;stroke-linejoin:miter;stroke-opacity:1"><path d="M157.81 450.643v-2.64h-23.56v2.64h23.56zm0 8v-2.64h-23.56v2.64h23.56z" style="font-style:normal;font-variant:normal;font-weight:400;font-stretch:normal;font-family:STIXGeneral;-inkscape-font-specification:STIXGeneral" transform="translate(1168.513 179.605)"/></g><g style="font-style:normal;font-weight:400;font-size:40px;line-height:125%;font-family:sans-serif;letter-spacing:0;word-spacing:0;fill:#000;fill-opacity:1;stroke:none;stroke-width:1px;stroke-linecap:butt;stroke-linejoin:miter;stroke-opacity:1"><path d="m580.389 350.454-.56-.24c-1.32 2.24-2.16 2.68-3.84 2.68h-9.36l6.6-7.04c3.56-3.76 5.12-6.76 5.12-9.92 0-3.96-2.88-7.04-7.4-7.04-4.92 0-7.48 3.28-8.32 7.96l.84.2c1.6-3.92 3-5.2 5.88-5.2 3.4 0 5.56 2 5.56 5.64 0 3.4-1.44 6.44-5.2 10.4l-7.12 7.56v.48h15.64l2.16-5.48z" style="font-style:normal;font-variant:normal;font-weight:400;font-stretch:normal;font-family:STIXGeneral;-inkscape-font-specification:STIXGeneral" transform="translate(791.356 285.671)"/></g><ellipse cx="1458.499" cy="1070.646" rx="50" ry="38.571" style="opacity:1;fill:#ffe4ef;fill-opacity:1;stroke:#000;stroke-width:1.20000005;stroke-linecap:round;stroke-linejoin:miter;stroke-miterlimit:4;stroke-dasharray:none;stroke-dashoffset:0;stroke-opacity:1"/><ellipse cx="1551.356" cy="1123.504" rx="22.857" ry="17.143" style="opacity:1;fill:#ffe4ef;fill-opacity:1;stroke:#000;stroke-width:1.20000005;stroke-linecap:round;stroke-linejoin:miter;stroke-miterlimit:4;stroke-dasharray:none;stroke-dashoffset:0;stroke-opacity:1"/><rect width="622.857" height="188.571" x="777.143" y="246.648" ry="71.609" style="opacity:1;fill:#ffe4ef;fill-opacity:1;stroke:#000;stroke-width:1;stroke-linecap:round;stroke-linejoin:miter;stroke-miterlimit:4;stroke-dasharray:none;stroke-dashoffset:0;stroke-opacity:1"/><ellipse cx="718.571" cy="479.505" rx="50" ry="38.571" style="opacity:1;fill:#ffe4ef;fill-opacity:1;stroke:#000;stroke-width:1.20000005;stroke-linecap:round;stroke-linejoin:miter;stroke-miterlimit:4;stroke-dasharray:none;stroke-dashoffset:0;stroke-opacity:1"/><ellipse cx="620" cy="532.362" rx="22.857" ry="17.143" style="opacity:1;fill:#ffe4ef;fill-opacity:1;stroke:#000;stroke-width:1.20000005;stroke-linecap:round;stroke-linejoin:miter;stroke-miterlimit:4;stroke-dasharray:none;stroke-dashoffset:0;stroke-opacity:1"/><path d="M591.79 961.953v-178.3M591.79 1123.814V987.99M520.922 1123.814V783.653M450.057 1123.814V783.653M379.188 1123.814V783.653M308.32 961.954V783.653M308.32 1123.814v-136M443.33 812.002h176.806M279.974 812.002h145.957M279.974 882.867h340.162M279.974 953.736h340.162M279.974 1024.6h340.162M443.153 1095.47h176.983M279.974 1095.47h132.749" style="fill:none;stroke:#9e9ed1;stroke-width:.24906249;stroke-linecap:butt;stroke-linejoin:miter;stroke-miterlimit:10;stroke-opacity:1"/><path d="M229.721 187.8h128.15M17.717 187.8h200.602M187.8 217.998v-200.1M187.8 357.613V230.107" style="fill:none;stroke:#000;stroke-width:.49812499;stroke-linecap:butt;stroke-linejoin:miter;stroke-miterlimit:10;stroke-opacity:1" transform="translate(262.258 765.936)"/><g clip-path="url(#a)" style="clip-rule:nonzero;stroke:red;stroke-width:1.08000004;stroke-miterlimit:4;stroke-dasharray:none;stroke-opacity:1" transform="matrix(1.25 0 0 1.25 75.355 442.535)"><path d="m-404.023 5531.21 6803.242-3401.6M1296.797 428.79 4698.398 7232.03" style="fill:none;stroke:red;stroke-width:10.80000019;stroke-linecap:butt;stroke-linejoin:miter;stroke-miterlimit:4;stroke-dasharray:none;stroke-opacity:1" transform="matrix(.1 0 0 -.1 0 792)"/></g><use xlink:href="#b" width="100%" height="100%" x="410.657" y="425.616" style="fill:#b0b0d9;fill-opacity:1" transform="translate(-161.186 204.394) scale(1.8225)"/><use xlink:href="#c" width="100%" height="100%" x="180.012" y="425.202" style="fill:#b0b0d9;fill-opacity:1" transform="matrix(1.823 0 0 1.823 -31.527 205.01)"/><use xlink:href="#b" width="100%" height="100%" x="187.812" y="425.202" style="fill:#b0b0d9;fill-opacity:1" transform="matrix(1.823 0 0 1.823 -31.527 205.01)"/><use xlink:href="#b" width="100%" height="100%" x="287.632" y="298.905" style="fill:#b0b0d9;fill-opacity:1" transform="translate(-93.578 273.34) scale(1.8225)"/><use xlink:href="#c" width="100%" height="100%" x="278.091" y="525.266" style="fill:#b0b0d9;fill-opacity:1" transform="matrix(1.823 0 0 1.823 -90.38 143.748)"/><use xlink:href="#b" width="100%" height="100%" x="285.891" y="525.266" style="fill:#b0b0d9;fill-opacity:1" transform="matrix(1.823 0 0 1.823 -90.38 143.748)"/></g><g style="display:inline" transform="translate(1372.38 1433.575)"><path d="M-2049.425-417.174c-9.76-6.426-17.712-14.906-25.147-23.817-7.582-9.662-13.217-20.65-15.367-32.828-1.426-8.078-1.001-11.572-.908-19.752 1.401-14.49 6.346-28.662 16.4-39.508 6.387-6.889 10.035-8.392 17.974-13.305 3.694-1.502 7.282-3.295 11.081-4.505 14.408-4.589 30.05-5.487 44.793-2.088 2.521.58 4.951 1.505 7.427 2.257 2.061.813 12.808 5.172 9.771 9.643-.504.742-1.591.968-2.486 1.028-1.002.068-1.96-.44-2.94-.66-.969-.56-2.04-.97-2.907-1.677-5.285-4.305-5.228-11.521-2.821-17.39.775-1.891 2.072-3.522 3.108-5.283 9.63-11.75 22.15-20.846 35.812-27.392 3.593-1.722 7.315-3.164 10.972-4.745 15.411-5.569 31.845-9.409 48.35-8.122 9.774.762 12.813 2.138 22.062 4.81 10.34 4.313 23.287 9.015 28.189 20.201 2.306 5.264 1.434 7.206.867 12.53-.73 1.812-1.171 3.77-2.192 5.435-.65 1.06-1.537 2.147-2.708 2.56-5.105 1.797-7.665-6.1-8.394-9.3-.468-2.058-.473-4.196-.71-6.294.28-2.16.221-4.392.84-6.481 4.634-15.645 21.173-20.022 34.962-24.104 4.04-.736 8.053-1.643 12.121-2.208 17.655-2.45 37.466-2.824 55.17-.807 4.433.505 8.815 1.394 13.223 2.09 3.893 1.11 7.872 1.955 11.68 3.33 10.887 3.933 21.37 10.848 28.055 20.46 1.064 1.53 1.818 3.253 2.727 4.88 1.163 3.71 2.07 7.59.233 11.289-.287.577-.767 1.158-1.381 1.352-.75.238-1.696.26-2.355-.17-.873-.569-1.207-1.699-1.81-2.549-.236-1.214-.69-2.405-.706-3.641-.126-9.277 5.198-16.866 12.098-22.514 2.299-1.883 4.83-3.463 7.245-5.194 13.54-8.483 28.26-15.08 43.598-19.588 11.607-3.411 16.692-4.037 28.627-6.256 25.72-3.466 52.206-1.554 76.63 7.657 4.708 1.776 9.175 4.131 13.763 6.197 3.87 2.477 7.907 4.711 11.61 7.431 9.939 7.3 19.888 17.678 25.513 28.793.73 1.444 1.214 3 1.821 4.5.445 1.394 1.71 7.184-1.117 7.525-3.584.433-3.713-3.228-3.833-5.551.43-1.257.66-2.6 1.288-3.77 4.28-7.974 19.574-12.406 27.338-15.02 20.19-5.585 41.295-8.302 62.256-7.42 4.754.2 9.486.75 14.229 1.126 18.395 2.008 37.02 4.81 54.386 11.512 10.077 3.888 12.243 5.671 21.38 11.082 10.01 6.978 20.57 15.066 24 27.444 1.665 6.008.84 7.812.041 13.696-.831 2.04-1.39 4.214-2.495 6.12-2.82 4.87-8.37 7.37-13.828 6.677-.86-.11-1.682-.425-2.523-.637-.548-.397-1.406-.558-1.642-1.192-2.353-6.312 9.361-4.625 11.942-4.069 1.995.43 3.908 1.174 5.862 1.76 12.41 5.184 23.286 13.902 31.018 24.953 1.816 2.594 3.278 5.418 4.916 8.127 5.813 12.126 8.865 25.519 7.964 39.014-.636 9.542-1.97 12.114-4.701 21.45-6.446 14.821-15.86 26.205-30.125 34.088-9.631 5.321-12.631 5.544-23.11 8.552-10.11 1.954-20.357 2.465-30.593 1.428-1.183-.12-7.62-.91-9.555-1.881-.512-.258-.75-.868-1.124-1.302 1.073-.728 1.953-1.908 3.22-2.183 1.174-.255 2.389.345 3.53.717 4.483 1.458 8.189 4.147 10.551 8.289.762 1.334 1.178 2.838 1.767 4.257.057 1.668.545 3.377.172 5.004-1.192 5.184-4.03 8.24-8.097 11.484-9.022 7.194-20.028 10.84-30.66 14.825-4.767 1.32-9.489 2.817-14.301 3.96-21.167 5.024-44.676 7.802-66.418 7.199-5.998-.167-11.971-.829-17.957-1.243-16.398-1.693-32.421-5.456-48.138-10.324-7.098-2.199-13.78-4.39-20.454-7.61-1.853-.895-3.567-2.055-5.35-3.083-.857-.864-1.963-1.539-2.568-2.594-1.196-2.083.046-4.062 2.285-4.769 3.173-1.002 6.728 2.685 8.536 4.593.548 1.1 1.335 2.111 1.644 3.301 2.948 11.33-13.81 15.513-21.193 17.756-22.35 4.426-45.46 3.453-67.943.459-5.418-.722-10.79-1.752-16.186-2.629-14.293-2.764-28.534-6.35-41.752-12.602-6.183-2.924-12.28-6.522-17.315-11.224-1.822-1.7-3.228-3.798-4.841-5.698-2.625-4.601-6.163-12.197-.01-16.057.74-.465 1.655-.758 2.528-.704.874.054 1.617.673 2.426 1.01.535.772 1.258 1.444 1.604 2.317 3.447 8.688-6.777 17.62-12.187 22.664-13.189 10.472-29.008 16.779-45.321 20.533-4.103.944-8.268 1.599-12.402 2.399-17.186 2.288-34.933 2.112-51.802-2.32-9.46-2.486-11.178-3.863-19.512-8.07-4.288-3.074-15.644-9.606-11.871-16.812 1.441-2.754 4.726-3.14 7.247-3.912 1.554.129 3.16-.03 4.662.386 4.122 1.141 8.482 5.071 8.196 9.76-.352 5.787-2.516 6.606-6.262 10.48-2.373 1.297-4.645 2.797-7.119 3.89-6.47 2.856-13.494 4.623-20.395 5.991-8.663 1.717-18.834 3.012-27.6 3.58-5.416.352-10.85.368-16.274.551-31.694-.533-63.823-1.663-94.863-8.748-6.133-1.4-12.132-3.333-18.199-5-5.668-2.236-11.488-4.12-17.005-6.707-17.888-8.392-37.897-21.594-43.401-41.935-1.065-3.933-.72-8.117-1.08-12.175.99-3.999 1.392-8.192 2.97-11.998 2.697-6.501 7.368-11.505 13.195-15.268 2.285-1.476 4.957-2.245 7.436-3.368" style="opacity:1;fill:#f4f4f4;fill-opacity:1;stroke:#000;stroke-width:2.20000005;stroke-linecap:butt;stroke-linejoin:miter;stroke-miterlimit:4;stroke-dasharray:none;stroke-dashoffset:0;stroke-opacity:1"/><path d="M187.842 233.086v37.266M187.842 174.283v38.342M232.253 187.747h27.772M174.351 187.747h40.799M258.657 130.346v70.636M258.657 46.835v55.712" style="display:inline;fill:none;stroke:#000;stroke-width:2.5;stroke-linecap:butt;stroke-linejoin:miter;stroke-miterlimit:4;stroke-dasharray:none;stroke-opacity:1"/><path d="m243.121 173.767 15.983 15.536M243.121 201.842l15.983-15.536M258.728 187.787h13.246" style="display:inline;fill:red;stroke:#000;stroke-width:2.5;stroke-linecap:butt;stroke-linejoin:miter;stroke-miterlimit:4;stroke-dasharray:none;stroke-opacity:1"/><path d="M245.42 46.087h26.43" style="fill:none;stroke:#000;stroke-width:2.5;stroke-linecap:butt;stroke-linejoin:miter;stroke-miterlimit:4;stroke-dasharray:none;stroke-opacity:1"/><path d="M244.635 61.623 260.17 45.64M272.71 61.623 257.172 45.64" style="fill:red;stroke:#000;stroke-width:2.5;stroke-linecap:butt;stroke-linejoin:miter;stroke-miterlimit:4;stroke-dasharray:none;stroke-opacity:1"/><path d="M246.744 258.505h-72.406M327.852 258.505h-55.653" style="display:inline;fill:none;stroke:#000;stroke-width:2.5;stroke-linecap:butt;stroke-linejoin:miter;stroke-miterlimit:4;stroke-dasharray:none;stroke-opacity:1"/><path d="m201.825 243.25-15.536 15.982M173.75 243.25l15.537 15.982" style="display:inline;fill:red;stroke:#000;stroke-width:2.5;stroke-linecap:butt;stroke-linejoin:miter;stroke-miterlimit:4;stroke-dasharray:none;stroke-opacity:1"/><path d="M329.554 245.328v26.428" style="fill:none;stroke:#000;stroke-width:2.5;stroke-linecap:butt;stroke-linejoin:miter;stroke-miterlimit:4;stroke-dasharray:none;stroke-opacity:1"/><path d="m314.018 244.542 15.983 15.536M314.018 272.616l15.983-15.535" style="fill:red;stroke:#000;stroke-width:2.5;stroke-linecap:butt;stroke-linejoin:miter;stroke-miterlimit:4;stroke-dasharray:none;stroke-opacity:1"/><path d="m264.234 121.35-.33-.141c-.78 1.323-1.276 1.582-2.268 1.582h-5.527l3.897-4.157c2.102-2.22 3.024-3.991 3.024-5.857 0-2.339-1.701-4.157-4.37-4.157-2.905 0-4.417 1.936-4.913 4.7l.496.118c.945-2.315 1.772-3.07 3.472-3.07 2.008 0 3.283 1.18 3.283 3.33 0 2.008-.85 3.803-3.07 6.141l-4.205 4.464v.283h9.236l1.275-3.235zM227.417 194.068v-.354c-1.771 0-2.243-.425-2.243-1.441v-14.101l-.213-.07-4.228 2.149v.33l.638-.236c.425-.165.827-.283 1.063-.283.496 0 .708.354.708 1.157v10.605c0 1.3-.496 1.795-2.244 1.89v.354h6.52z" style="font-style:normal;font-variant:normal;font-weight:400;font-stretch:normal;font-size:medium;line-height:125%;font-family:STIXGeneral;-inkscape-font-specification:STIXGeneral;letter-spacing:0;word-spacing:0;fill:#000;fill-opacity:1;stroke:none;stroke-width:1px;stroke-linecap:butt;stroke-linejoin:miter;stroke-opacity:1"/><rect width="13.395" height="1.595" x="176.207" y="223.743" ry=".683" style="opacity:1;fill:#000;fill-opacity:1;stroke:#000;stroke-width:0;stroke-linecap:butt;stroke-linejoin:miter;stroke-miterlimit:4;stroke-dasharray:none;stroke-dashoffset:0;stroke-opacity:1"/><path d="M199.517 231.15v-.355c-1.772 0-2.244-.425-2.244-1.44v-14.101l-.213-.071-4.228 2.15v.33l.638-.236c.425-.166.827-.284 1.063-.284.496 0 .708.354.708 1.158v10.605c0 1.299-.496 1.795-2.243 1.89v.354h6.519zM264.258 262.278l-.33-.142c-.78 1.323-1.276 1.583-2.268 1.583h-5.527l3.898-4.158c2.102-2.22 3.023-3.991 3.023-5.857 0-2.339-1.7-4.157-4.37-4.157-2.905 0-4.417 1.937-4.913 4.7l.496.118c.945-2.315 1.772-3.07 3.472-3.07 2.008 0 3.284 1.18 3.284 3.33 0 2.008-.85 3.803-3.071 6.141l-4.204 4.464v.284h9.235l1.275-3.236z" style="font-style:normal;font-variant:normal;font-weight:400;font-stretch:normal;font-size:medium;line-height:125%;font-family:STIXGeneral;-inkscape-font-specification:STIXGeneral;letter-spacing:0;word-spacing:0;fill:#000;fill-opacity:1;stroke:none;stroke-width:1px;stroke-linecap:butt;stroke-linejoin:miter;stroke-opacity:1"/><rect width="13.395" height="1.595" x="176.207" y="223.743" ry=".683" style="opacity:1;fill:#000;fill-opacity:1;stroke:#000;stroke-width:0;stroke-linecap:butt;stroke-linejoin:miter;stroke-miterlimit:4;stroke-dasharray:none;stroke-dashoffset:0;stroke-opacity:1"/><g transform="translate(-905.097 -183.848)"><path d="M1161.953 330.118v-.6c-3 0-3.8-.72-3.8-2.44v-23.88l-.36-.12-7.16 3.64v.56l1.08-.4c.72-.28 1.4-.48 1.8-.48.84 0 1.2.6 1.2 1.96v17.96c0 2.2-.84 3.04-3.8 3.2v.6z" style="font-style:normal;font-variant:normal;font-weight:400;font-stretch:normal;font-size:medium;line-height:125%;font-family:STIXGeneral;-inkscape-font-specification:STIXGeneral;letter-spacing:0;word-spacing:0;display:inline;fill:#000;fill-opacity:1;stroke:none;stroke-width:1px;stroke-linecap:butt;stroke-linejoin:miter;stroke-opacity:1" transform="translate(-262.258 -765.936)"/><g style="font-style:normal;font-weight:400;font-size:40px;line-height:125%;font-family:sans-serif;letter-spacing:0;word-spacing:0;display:inline;fill:#000;fill-opacity:1;stroke:none;stroke-width:1px;stroke-linecap:butt;stroke-linejoin:miter;stroke-opacity:1"><path d="m669.527 381.88-.56-.24c-1.32 2.24-2.16 2.68-3.84 2.68h-9.36l6.6-7.04c3.56-3.76 5.12-6.76 5.12-9.92 0-3.96-2.88-7.04-7.4-7.04-4.92 0-7.48 3.28-8.32 7.96l.84.2c1.6-3.92 3-5.2 5.88-5.2 3.4 0 5.56 2 5.56 5.64 0 3.4-1.44 6.44-5.2 10.4l-7.12 7.56v.48h15.64l2.16-5.48z" style="font-style:normal;font-variant:normal;font-weight:400;font-stretch:normal;font-family:STIXGeneral;-inkscape-font-specification:STIXGeneral" transform="translate(220.81 -766.036)"/></g><path d="M1122.13 348.184h41.313" style="display:inline;fill:none;stroke:#000;stroke-width:1.89999998;stroke-linecap:butt;stroke-linejoin:miter;stroke-miterlimit:4;stroke-dasharray:none;stroke-opacity:1" transform="translate(-262.258 -765.936)"/><g style="font-style:normal;font-weight:400;font-size:40px;line-height:125%;font-family:sans-serif;letter-spacing:0;word-spacing:0;display:inline;fill:#000;fill-opacity:1;stroke:none;stroke-width:1px;stroke-linecap:butt;stroke-linejoin:miter;stroke-opacity:1"><path d="M157.81 450.643v-2.64h-23.56v2.64h23.56zm0 8v-2.64h-23.56v2.64h23.56z" style="font-style:normal;font-variant:normal;font-weight:400;font-stretch:normal;font-family:STIXGeneral;-inkscape-font-specification:STIXGeneral" transform="translate(800.035 -872.102)"/></g><g style="font-style:normal;font-weight:400;font-size:40px;line-height:125%;font-family:sans-serif;letter-spacing:0;word-spacing:0;display:inline;fill:#000;fill-opacity:1;stroke:none;stroke-width:1px;stroke-linecap:butt;stroke-linejoin:miter;stroke-opacity:1"><path d="m477.531 325.454-.56-.24c-1.32 2.24-2.16 2.68-3.84 2.68h-9.36l6.6-7.04c3.56-3.76 5.12-6.76 5.12-9.92 0-3.96-2.88-7.04-7.4-7.04-4.92 0-7.48 3.28-8.32 7.96l.84.2c1.6-3.92 3-5.2 5.88-5.2 3.4 0 5.56 2 5.56 5.64 0 3.4-1.44 6.44-5.2 10.4l-7.12 7.56v.48h15.64l2.16-5.48z" style="font-style:normal;font-variant:normal;font-weight:400;font-stretch:normal;font-family:STIXGeneral;-inkscape-font-specification:STIXGeneral" transform="translate(567.33 -709.565)"/></g><path d="M1285.816 348.186h23.538" style="display:inline;fill:none;stroke:#000;stroke-width:1.89999998;stroke-linecap:butt;stroke-linejoin:miter;stroke-miterlimit:4;stroke-dasharray:none;stroke-opacity:1" transform="translate(-262.258 -765.936)"/><g style="font-style:normal;font-weight:400;font-size:40px;line-height:125%;font-family:sans-serif;letter-spacing:0;word-spacing:0;display:inline;fill:#000;fill-opacity:1;stroke:none;stroke-width:1px;stroke-linecap:butt;stroke-linejoin:miter;stroke-opacity:1"><path d="M335.046 485.934v-.6c-3 0-3.8-.72-3.8-2.44v-23.88l-.36-.12-7.16 3.64v.56l1.08-.4c.72-.28 1.4-.48 1.8-.48.84 0 1.2.6 1.2 1.96v17.96c0 2.2-.84 3.04-3.8 3.2v.6h11.04z" style="font-style:normal;font-variant:normal;font-weight:400;font-stretch:normal;font-family:STIXGeneral;-inkscape-font-specification:STIXGeneral" transform="translate(706.258 -921.612)"/></g><g style="font-style:normal;font-weight:400;font-size:40px;line-height:125%;font-family:sans-serif;letter-spacing:0;word-spacing:0;display:inline;fill:#000;fill-opacity:1;stroke:none;stroke-width:1px;stroke-linecap:butt;stroke-linejoin:miter;stroke-opacity:1"><path d="M166.639 355.727v-5.254h.762q1.328 4.551 4.746 4.551 1.484 0 2.207-.898.742-.899.742-1.973 0-1.25-.781-2.05-.801-.802-3.106-1.934-2.422-1.192-3.476-2.344-1.055-1.133-1.055-2.793 0-1.582 1.133-3.008 1.132-1.445 3.183-1.445 2.09 0 3.457 1.699.293-.293.762-1.426h.723v4.942h-.723q-.39-1.778-1.523-3.047-1.114-1.29-2.637-1.29-1.172 0-1.895.723-.722.723-.722 1.68 0 1.055.8 1.816.782.782 2.989 1.778 3.32 1.504 4.062 2.93.742 1.445.742 2.773 0 2.09-1.386 3.398-1.367 1.309-3.457 1.309-2.207 0-3.926-1.817-.527.586-.86 1.68h-.761zM184.51 328.364v21.367q0 2.559.058 3.223.079.664.567 1.015.488.352 1.738.352h.469v.898h-8.555v-.898h.547q1.172 0 1.66-.313.508-.332.606-.918.097-.585.097-3.359v-15.82q0-2.52-.449-3.164-.449-.664-2.187-.664v-.899q1.191 0 2.793-.273 1.62-.274 2.226-.547h.43zM189.47 347.192q0-3.672 2.462-6.133 2.46-2.48 6.054-2.48 3.614 0 6.075 2.48 2.46 2.48 2.46 6.133 0 4.043-2.5 6.367-2.5 2.305-6.035 2.305t-6.035-2.344q-2.48-2.363-2.48-6.328zm3.243.098q0 4.257 1.387 5.976 1.386 1.7 3.886 1.7 2.559 0 3.907-1.7 1.367-1.719 1.367-5.976 0-4.22-1.348-6.016-1.347-1.797-3.926-1.797-2.558 0-3.925 1.797-1.348 1.777-1.348 6.016zM212.928 338.579h.527q.332 1.093.332 2.636 1.25-1.328 2.676-1.972 1.445-.664 3.047-.664 3.32 0 5.527 2.343 2.207 2.325 2.207 6.153 0 3.75-2.226 6.27-2.207 2.519-5.82 2.519-1.485 0-2.852-.606-1.348-.586-2.559-1.757v6.074q0 2.773.098 3.379.117.605.625.898.508.313 1.894.313v.898h-8.359v-.898h.586q1.387 0 1.797-.41.43-.391.488-.958.078-.546.078-3.222v-14.531q0-2.559-.078-3.223-.058-.664-.547-1.016-.488-.351-1.738-.351h-.586v-.899q1.934-.195 4.883-.976zm.86 13.633q1.054 1.289 2.226 1.953 1.191.644 2.5.644 2.207 0 3.847-1.894 1.641-1.895 1.641-6.035 0-3.594-1.582-5.372-1.582-1.777-3.77-1.777-1.347 0-2.558.684-1.211.683-2.305 2.07v9.727zM244.822 344.633H233.67q-.078 1.153-.078 1.72 0 4.218 1.309 6.347 1.328 2.11 3.945 2.11 3.555 0 5.039-3.184h.937q-.625 1.992-2.48 3.125-1.856 1.113-4.043 1.113-2.031 0-3.848-1.016-1.797-1.035-2.949-2.91-1.152-1.875-1.152-4.55 0-3.79 2.226-6.29 2.227-2.52 5.567-2.52 3.144 0 4.863 1.915 1.719 1.914 1.816 4.14zm-3.418-.78q.059-.45.059-.802 0-1.718-1.016-2.656-.996-.957-2.46-.957-3.555 0-4.239 4.414h7.656z" style="font-style:normal;font-variant:normal;font-weight:400;font-stretch:normal;font-family:Baskerville;-inkscape-font-specification:Baskerville" transform="translate(409.746 -765.026)"/></g><g style="font-style:normal;font-weight:400;font-size:40px;line-height:125%;font-family:sans-serif;letter-spacing:0;word-spacing:0;display:inline;fill:#000;fill-opacity:1;stroke:none;stroke-width:1px;stroke-linecap:butt;stroke-linejoin:miter;stroke-opacity:1"><path d="M326.879 319.565q.664-1.738 2.148-2.91 1.504-1.172 2.93-1.172 1.289 0 2.03.8.743.801.743 1.641 0 .567-.39.977-.372.41-.918.41-.977 0-1.485-1.445-.351-.977-1.055-.977-.84 0-2.011 1.152-1.172 1.133-1.504 2.364-.332 1.23-.332 3.379v2.851q0 2.559.058 3.223.078.664.567 1.015.488.352 1.738.352h.547v.898h-8.496v-.898h.41q1.172 0 1.66-.313.508-.332.606-.917.097-.586.097-3.36v-4.512q0-2.578-.078-3.222-.058-.664-.547-1.016-.488-.371-1.738-.371h-.41v-.879q1.836-.215 4.805-1.152.566 1.543.625 4.082zM337.504 307.319q0-.84.585-1.446.606-.605 1.446-.605t1.426.605q.586.606.586 1.446 0 .86-.586 1.465-.586.605-1.426.605t-1.446-.605q-.585-.606-.585-1.465zm3.77 8.164v11.152q0 2.559.077 3.223.078.664.567 1.015.488.352 1.738.352h.41v.898h-8.613v-.898h.664q1.387 0 1.797-.39.43-.41.488-.958.078-.566.078-3.242v-4.844q0-2.812-.273-3.437-.254-.625-.704-.781-.43-.157-1.523-.157h-.527v-.898q3.476-.352 5.39-1.035h.43zM346.449 332.631v-5.254h.762q1.328 4.551 4.746 4.551 1.484 0 2.207-.898.742-.899.742-1.973 0-1.25-.781-2.05-.801-.802-3.106-1.934-2.422-1.192-3.476-2.344-1.055-1.133-1.055-2.793 0-1.582 1.133-3.008 1.133-1.445 3.183-1.445 2.09 0 3.457 1.699.293-.293.762-1.426h.723v4.942h-.723q-.39-1.778-1.523-3.047-1.114-1.29-2.637-1.29-1.172 0-1.895.723-.722.723-.722 1.68 0 1.055.8 1.816.782.782 2.989 1.778 3.32 1.504 4.062 2.93.742 1.445.742 2.773 0 2.09-1.386 3.398-1.367 1.309-3.457 1.309-2.207 0-3.926-1.816-.527.585-.86 1.68h-.761zM374.164 321.537H363.01q-.078 1.153-.078 1.72 0 4.218 1.309 6.347 1.328 2.11 3.945 2.11 3.555 0 5.04-3.184h.937q-.625 1.992-2.48 3.125-1.856 1.113-4.044 1.113-2.031 0-3.847-1.016-1.797-1.035-2.95-2.91-1.152-1.875-1.152-4.55 0-3.79 2.227-6.29 2.226-2.52 5.566-2.52 3.145 0 4.863 1.915 1.72 1.914 1.817 4.14zm-3.418-.78q.058-.45.058-.802 0-1.718-1.015-2.656-.996-.957-2.461-.957-3.555 0-4.239 4.414h7.657z" style="font-style:normal;font-variant:normal;font-weight:400;font-stretch:normal;font-family:Baskerville;-inkscape-font-specification:Baskerville" transform="translate(409.746 -767.169)"/></g><g style="font-style:normal;font-weight:400;font-size:40px;line-height:125%;font-family:sans-serif;letter-spacing:0;word-spacing:0;display:inline;fill:#000;fill-opacity:1;stroke:none;stroke-width:1px;stroke-linecap:butt;stroke-linejoin:miter;stroke-opacity:1"><path d="M326.879 372.093q.664-1.739 2.148-2.91 1.504-1.172 2.93-1.172 1.289 0 2.03.8.743.801.743 1.641 0 .567-.39.977-.372.41-.919.41-.976 0-1.484-1.445-.351-.977-1.055-.977-.84 0-2.011 1.152-1.172 1.133-1.504 2.364-.332 1.23-.332 3.379v2.851q0 2.559.058 3.223.078.664.567 1.015.488.352 1.738.352h.547v.898h-8.496v-.898h.41q1.172 0 1.66-.313.508-.332.606-.918.097-.585.097-3.359v-4.512q0-2.578-.078-3.222-.058-.664-.547-1.016-.488-.371-1.738-.371h-.41v-.879q1.836-.215 4.805-1.152.566 1.543.625 4.082zM352.21 368.655v10.489q0 2.617.079 3.28.078.665.566.997.508.332 1.797.332v.898q-2.969.04-4.336.625h-.234q-.625-1.074-.664-3.71-1.192 1.855-2.735 2.792-1.523.938-3.379.938-1.601 0-2.832-.723-1.23-.742-1.699-1.797-.45-1.054-.45-3.183v-5.45q0-2.773-.097-3.378-.098-.625-.625-.918-.508-.293-1.894-.293v-.899h5.43v11.094q0 1.64.195 2.383.195.742.996 1.308.8.547 1.855.547 1.504 0 2.871-.976 1.367-.996 1.856-2.09.508-1.113.508-3.164v-3.613q0-2.618-.059-3.184-.059-.566-.508-.977-.43-.43-1.816-.43h-.41v-.898h5.586zM361.195 368.01h.527q.45 1.212.508 3.302 1.406-1.66 2.95-2.481 1.542-.82 3.222-.82 1.914 0 3.125.8 1.23.801 1.582 1.973.352 1.153.352 3.38v5q0 2.773.097 3.378.098.605.606.918.527.293 1.914.293v.898h-8.184v-.898h.371q1.407 0 1.836-.41.43-.41.488-.957.06-.547.06-3.223v-5.156q0-1.895-.196-2.695-.176-.82-.996-1.446-.801-.625-2.051-.625-1.426 0-2.734.86-1.29.84-2.442 2.539v6.523q0 2.774.098 3.379.117.605.625.918.527.293 1.933.293v.898H356.8v-.898q1.348 0 1.875-.274.528-.273.645-.82.137-.566.137-3.496v-4.766q0-2.793-.117-3.378-.098-.606-.625-.899-.508-.312-1.915-.312v-.899q2.149-.234 4.395-.898z" style="font-style:normal;font-variant:normal;font-weight:400;font-stretch:normal;font-family:Baskerville;-inkscape-font-specification:Baskerville" transform="translate(409.746 -762.169)"/></g><path d="M991.09 349.196h55.68" style="display:inline;fill:none;stroke:#000;stroke-width:1.89999998;stroke-linecap:butt;stroke-linejoin:miter;stroke-miterlimit:4;stroke-dasharray:none;stroke-opacity:1" transform="translate(-262.258 -765.936)"/><g style="font-style:normal;font-weight:400;font-size:40px;line-height:125%;font-family:sans-serif;letter-spacing:0;word-spacing:0;display:inline;fill:#000;fill-opacity:1;stroke:none;stroke-width:1px;stroke-linecap:butt;stroke-linejoin:miter;stroke-opacity:1"><path d="M157.81 450.643v-2.64h-23.56v2.64h23.56zm0 8v-2.64h-23.56v2.64h23.56z" style="font-style:normal;font-variant:normal;font-weight:400;font-stretch:normal;font-family:STIXGeneral;-inkscape-font-specification:STIXGeneral" transform="translate(542.617 -871.092)"/></g><g style="font-style:normal;font-weight:400;font-size:40px;line-height:125%;font-family:sans-serif;letter-spacing:0;word-spacing:0;display:inline;fill:#000;fill-opacity:1;stroke:none;stroke-width:1px;stroke-linecap:butt;stroke-linejoin:miter;stroke-opacity:1"><path d="M157.81 450.643v-2.64h-23.56v2.64h23.56zm0 8v-2.64h-23.56v2.64h23.56z" style="font-style:normal;font-variant:normal;font-weight:400;font-stretch:normal;font-family:STIXGeneral;-inkscape-font-specification:STIXGeneral" transform="translate(676.903 -871.092)"/></g><rect width="21.713" height="2.701" x="860.517" y="-447.609" ry="1.157" style="opacity:1;fill:#000;fill-opacity:1;stroke:none;stroke-width:0;stroke-linecap:butt;stroke-linejoin:miter;stroke-miterlimit:4;stroke-dasharray:none;stroke-dashoffset:0;stroke-opacity:1"/><rect width="23.07" height="2.701" x="988.51" y="-419.234" ry="1.157" style="opacity:1;fill:#000;fill-opacity:1;stroke:none;stroke-width:0;stroke-linecap:butt;stroke-linejoin:miter;stroke-miterlimit:4;stroke-dasharray:none;stroke-dashoffset:0;stroke-opacity:1"/></g><path d="M-1072.105-540.717c-11.402-.482-22.585-4.086-31.873-10.813-2.309-1.673-4.375-3.657-6.563-5.485-8.554-8.461-16.251-17.934-20.873-29.158-3.44-8.353-3.49-10.803-5.335-19.761-1.91-15.382-.163-30.916 6.29-45.11 4.008-8.81 6.046-10.7 11.762-18.379 2.53-2.51 4.874-5.223 7.59-7.53 7.807-6.625 17.099-11.305 27.096-13.533 7.755-1.728 11.264-1.359 19.117-1.441 10.332 1.065 21.915 2.504 29.394 10.629 3.204 3.48 3.567 5.563 5.132 9.734.222 1.312.614 2.605.667 3.934.084 2.134-.747 6.365-3.89 5.857-2.338-.377-2.922-2.32-4.01-4.051-.28-1.343-.767-2.658-.842-4.028-.441-7.992 4.15-15.737 9.503-21.28 1.87-1.937 4.018-3.582 6.027-5.373a134.428 134.428 0 0 1 36.61-19.493c3.581-1.243 7.196-2.441 10.904-3.234 4.371-.935 8.847-1.29 13.27-1.935 4.668-.175 9.334-.646 14.003-.524 12.445.326 25.038 2.707 36.46 7.749 7.422 3.275 9.294 5.06 15.63 9.578 4.707 3.998 8.245 8.673 10.374 14.462.767 2.083 1.356 4.376 1.242 6.612-.437-.117-1.043.011-1.312-.353-.515-.696-.52-1.652-.78-2.478-.372-1.175-.785-2.337-1.12-3.523-.744-2.643-1.704-6.644-2-9.335-.19-1.743-.152-3.503-.229-5.255.243-1.856.276-3.752.728-5.569 2.4-9.663 9.547-16.705 17.58-22.089 2.678-1.796 5.55-3.285 8.325-4.928 3.2-1.404 6.316-3.02 9.6-4.213 15.443-5.61 32.973-7.537 49.317-7.444 4.61.026 9.209.43 13.813.644 17.025 1.441 33.83 5.307 49.136 13.063 8.42 4.268 10.248 5.996 17.75 11.375 8.034 6.824 17.029 14.644 18.756 25.684.138.885.081 1.79.122 2.684-.187.613-.183 1.32-.561 1.838-1.542 2.106-3.546-1.722-3.785-2.564-.784-2.767-.318-4.516-.048-7.368.591-1.51.972-3.122 1.772-4.533 6.391-11.274 22.608-16.085 33.948-19.82 3.955-.985 7.878-2.108 11.865-2.958 4.3-.917 8.638-1.66 12.983-2.338 12.826-2 25.833-3.37 38.828-2.5 3.683.246 7.328.896 10.992 1.345 10.369 2.433 22.364 5.263 28.929 14.573 3.082 4.372 2.877 6.324 3.805 11.392-.111 1.86 0 3.746-.334 5.578-.863 4.724-3.515 10.83-8.153 13.087-.429.21-.94.158-1.411.237-.188-.46-.688-.898-.563-1.379.505-1.946 2.742-3.17 4.331-3.878 2.664-1.188 5.965-1.93 8.854-2.037 1.88-.07 3.757.212 5.636.319 2.088.516 4.232.843 6.264 1.55 10.194 3.545 18.131 10.93 24.67 19.284 2.01 2.568 3.786 5.31 5.679 7.965 9.692 14.99 16.545 31.612 20.59 48.987.85 3.652 1.455 7.357 2.182 11.036 2.49 15.48 2.553 31.283-.968 46.617-2.41 10.496-3.571 12.217-7.591 22.046-6.111 12.443-13.885 24.531-25.94 31.995-7.227 4.475-10.687 4.986-18.736 7.488-16.565 3.88-33.688 3.445-50.197-.5-2.502-.597-4.947-1.412-7.42-2.118-3.672-1.303-6.466-2.082-9.794-3.928-.547-.303-3.103-1.777-3.133-3.026-.043-1.846 1.48-1.878 2.703-2.308 5.33-.465 10.702 1.953 13.54 6.641.606 1 .91 2.156 1.364 3.234.032 1.237.302 2.492.097 3.713-1.691 10.065-15.346 15.676-23.369 19.418-19.513 7.537-40.407 9.045-61.085 10.063-11.648.264-23.317.082-34.89-1.402-10.827-1.387-21.356-3.902-31.895-6.659-7.364-2.14-14.7-4.502-21.808-7.398-3.399-1.384-6.493-2.884-9.367-5.142-.185-.379-.588-.717-.554-1.137.108-1.376 1.218-1.317 2.147-1.012 2.304.755 2.966 2.728 3.701 4.78-.058 1.008.043 2.037-.175 3.022-1.594 7.22-8.171 12.135-14.367 15.351-2.457 1.275-5.074 2.214-7.612 3.321-16.612 5.865-34.388 8.315-51.982 7.091-3.639-.253-7.246-.844-10.87-1.266-12.998-2.62-28.707-5.58-37.724-16.394-1.044-1.253-1.743-2.757-2.615-4.135-.416-1.233-.983-2.425-1.246-3.7-.203-.979-.205-1.998-.136-2.995.128-1.846 1.09-4.76 2.224-4.077.38.229.405.789.608 1.183-.28.691-.407 1.465-.838 2.074-1.109 1.565-4.155 3.674-5.566 4.521-5.819 3.495-11.468 5.26-17.904 7.245-11.606 3.079-23.655 4.26-35.637 3.336-8.518-.657-11.886-1.606-20.279-3.297-3.347-.947-6.714-1.824-10.041-2.84-3.337-1.019-6.636-2.158-9.946-3.262-9.9-3.3-19.875-6.673-29.18-11.468-2.95-1.52-5.743-3.327-8.614-4.99-2.592-1.92-5.343-3.644-7.776-5.761-8.295-7.218-16.245-18.2-19.445-28.812-.693-2.301-.956-4.711-1.435-7.066-.03-5.117-.544-7.48 1.274-12.295.529-1.4 1.54-2.569 2.31-3.854l.7.692c-.722 1.22-1.649 2.341-2.167 3.662-1.719 4.385-1.221 6.6-1.234 11.382.455 2.316.696 4.684 1.366 6.947 3.101 10.48 10.967 21.388 19.132 28.518 2.408 2.103 5.133 3.813 7.699 5.72 2.848 1.654 5.618 3.45 8.545 4.961 9.277 4.788 19.227 8.15 29.1 11.441 3.299 1.1 6.588 2.237 9.914 3.253 3.308 1.011 6.656 1.885 9.984 2.827 8.334 1.68 11.693 2.626 20.15 3.278 11.897.918 23.86-.26 35.382-3.325 7.476-2.314 18.92-5.58 23.58-12.517.771-1.113-.071-.787-.525.462-1.006 2.769-.353 5.46.736 8.104.825 1.337 1.478 2.796 2.475 4.01 8.757 10.664 24.533 13.663 37.252 16.218 3.6.42 7.184 1.009 10.8 1.261 17.48 1.218 35.146-1.218 51.648-7.06 2.5-1.096 5.08-2.025 7.502-3.286 5.7-2.97 12.112-7.623 13.791-14.247.225-.885.194-1.816.29-2.723-.537-1.722-.458-2.312-1.77-3.55-1.33-1.256-.843-.429-2.038-.967-.146-.065-.333-.473-.36-.316-.054.295.175.572.263.858 2.781 2.237 5.825 3.694 9.14 5.05 7.08 2.893 14.39 5.252 21.726 7.388 10.498 2.75 20.987 5.26 31.773 6.643 11.536 1.48 23.168 1.658 34.78 1.395 20.577-1.017 41.374-2.513 60.789-10.027 7.22-3.378 20.978-9.16 22.722-18.216.217-1.127.02-2.295.029-3.443-.404-1.018-.658-2.11-1.21-3.055-2.598-4.443-7.643-6.8-12.653-6.4-.497.156-.997.304-1.492.467-.223.074-.65.01-.66.244-.055 1.209 2.265 2.48 2.733 2.743 3.272 1.833 6.057 2.61 9.67 3.899 2.453.703 4.878 1.514 7.359 2.109 16.38 3.927 33.376 4.36 49.813.506 7.94-2.472 11.362-2.979 18.484-7.398 11.93-7.404 19.595-19.406 25.632-31.729 3.773-9.27 5.142-11.568 7.4-21.325 3.527-15.242 3.517-30.949 1.046-46.346-.72-3.663-1.316-7.353-2.159-10.99-4.006-17.292-10.803-33.838-20.432-48.763-1.876-2.638-3.638-5.362-5.63-7.914-6.426-8.235-14.217-15.546-24.251-19.059-1.985-.695-4.081-1.016-6.121-1.524-1.826-.106-3.65-.384-5.478-.317-4.421.16-10.08 1.477-12.785 5.323.352-.044.74.026 1.056-.133 1.461-.736 3.272-2.567 4.124-3.806 2.793-4.061 3.957-8.684 3.908-13.572-.828-4.876-.612-6.813-3.533-11.038-6.376-9.22-18.267-11.96-28.434-14.374-3.637-.448-7.256-1.096-10.912-1.343-12.945-.872-25.903.497-38.678 2.494-4.328.676-8.65 1.419-12.933 2.334-3.968.848-7.873 1.968-11.809 2.953-11.503 3.8-26.726 8.26-33.378 19.482-.69 1.165-1.056 2.493-1.584 3.739-.345 3.115-.919 6.04.74 8.89.17.29.764 1.244 1.316.656.24-.255.284-.64.426-.96-.02-.848.057-1.705-.061-2.545-1.534-10.884-10.526-18.577-18.362-25.292-7.444-5.352-9.247-7.064-17.607-11.311-15.215-7.73-31.927-11.575-48.858-13.009-4.583-.213-9.162-.615-13.75-.64-16.245-.091-33.683 1.824-49.03 7.413-3.254 1.185-6.34 2.79-9.51 4.184-2.748 1.63-5.59 3.11-8.242 4.892-7.558 5.082-14.735 11.932-17.069 21.066-.453 1.772-.506 3.623-.759 5.435.064 1.718.012 3.445.192 5.155.276 2.617 1.233 6.667 1.957 9.24.335 1.19.762 2.35 1.127 3.53.24.773.627 1.522.685 2.33.03.422-.286.798-.429 1.197.276-2.037-.409-4.392-1.077-6.262-2.029-5.682-5.465-10.256-10.056-14.182-6.254-4.482-8.101-6.252-15.436-9.503-11.324-5.018-23.82-7.387-36.167-7.711-4.642-.122-9.28.349-13.92.523-4.387.643-8.826.997-13.162 1.927-3.684.79-7.276 1.982-10.836 3.218a133.091 133.091 0 0 0-36.357 19.397c-1.974 1.768-4.087 3.392-5.922 5.303-5.04 5.246-9.469 12.564-9.221 20.106.042 1.286.464 2.531.696 3.797.77 1.348 1.353 3.242 3.124 3.714.507.135 1.108.007 1.55-.275 2.552-1.624 1.322-5.85.98-8.01-1.455-4.017-1.8-6.084-4.844-9.446-7.289-8.05-18.746-9.41-28.877-10.474-7.756.08-11.24-.287-18.896 1.42-9.876 2.201-19.051 6.833-26.754 13.388-2.686 2.285-5 4.972-7.5 7.459-5.648 7.612-7.664 9.486-11.614 18.218-6.29 13.905-8.05 29.063-6.195 44.131 1.808 8.885 1.85 11.305 5.239 19.592 4.554 11.138 12.173 20.533 20.64 28.934 2.157 1.808 4.192 3.771 6.469 5.426 9.138 6.643 20.154 10.215 31.389 10.684l.037.992z" style="opacity:1;fill:#000;fill-opacity:1;stroke:#000;stroke-width:1.35000002;stroke-linecap:butt;stroke-linejoin:miter;stroke-miterlimit:4;stroke-dasharray:none;stroke-dashoffset:0;stroke-opacity:1"/><path d="M-1065.003-173.76c-7.057-3.498-14.381-6.64-19.973-12.285-1.477-1.492-2.687-3.211-4.031-4.817-4.061-5.874-7.194-12.306-9.156-19.121-2.15-7.468-2.81-15.166-3.47-22.851-.033-2.611-.214-5.224-.1-7.833.484-11.095 3.082-22.703 9.463-32.106 1.555-2.291 3.54-4.28 5.311-6.421 2.171-1.821 4.174-3.85 6.514-5.463 10.013-6.906 22.754-9.952 34.929-10.061 3.092-.028 6.172.378 9.259.567 10.548 1.68 22.36 5.042 27.489 15.076.448.879.649 1.856.973 2.784.059.65.302 1.31.177 1.951-.56 2.888-3.138.913-4.035-.404-1.542-2.264-1.487-3.536-2.048-6.24.021-1.465-.12-2.942.062-4.397 1.003-8 5.767-14.77 11.751-20.163 2.04-1.837 4.31-3.42 6.465-5.13 15.381-10.387 32.743-17.965 50.984-22.258 4.048-.953 8.167-1.598 12.25-2.398 4.165-.5 8.313-1.154 12.495-1.499 15.585-1.282 32.555-.894 47.563 3.786 3.154.984 6.132 2.432 9.197 3.648 2.547 1.418 5.193 2.681 7.64 4.255 5.356 3.446 12.649 9.43 13.986 15.994.16.788-.041 1.605-.062 2.408-.381.501-.546 1.271-1.143 1.503-1.654.64-3.082-1.677-3.554-2.501-2.223-3.882-2.14-7.405-2.086-11.675.376-1.61.57-3.27 1.13-4.83 2.728-7.604 9.58-13.464 16.305-17.782 2.141-1.374 4.423-2.534 6.634-3.8 12.68-6.756 26.897-10.036 41.333-10.348 3.004-.065 6.008.11 9.012.165 3.023.293 6.067.426 9.07.88 10.95 1.653 22.934 5.262 32.108 11.439 1.955 1.316 3.656 2.955 5.484 4.433 4.04 3.808 6.874 8.355 8.93 13.393.785 1.924 1.02 3.702 1.646 5.618-.196-.258-.568-.455-.587-.775-.031-.51 1.296-4.642 1.3-4.652 1.754-4.996 3.209-6.36 6.994-10.1 8.969-7.18 20.3-10.359 31.696-11.743 2.78-.337 5.583-.468 8.374-.703 13.464-.627 27.068 1.05 39.311 6.77 2.02.944 3.906 2.132 5.859 3.198 4.606 3.092 8.992 6.623 11.037 11.86 1.84 4.711 1.129 9.4.376 14.201-.482 1.38-.857 2.801-1.446 4.142-.532 1.21-3.78 7.194-6.185 5.337-.416-.32-.471-.922-.707-1.383.223-.763.268-1.598.67-2.29 1.05-1.805 3.58-3.566 5.3-4.492 5.888-3.167 12.493-4.183 19.006-5.412 12.226-1.942 24.69-1.883 36.619 1.661 6.626 1.97 9.91 3.884 16.048 6.88 9.573 5.26 18.19 12.2 23.881 21.45 3.61 5.869 3.897 8.139 5.99 14.65.423 2.77 1.03 5.52 1.272 8.31.99 11.412-.799 24.605-4.011 35.612-.732 2.505-1.763 4.92-2.645 7.38-1.094 2.026-1.995 4.16-3.281 6.077-3.514 5.236-8.841 8.999-15.298 9.793-.85.105-1.715.04-2.573.06-.427-.091-1.122.121-1.281-.272-.752-1.854 3.274-1.702 3.29-1.702 2.743-.107 7.034.276 9.581.826 1.898.41 3.718 1.104 5.576 1.655 1.73.796 3.545 1.44 5.19 2.389 4.65 2.684 9.082 6.876 10.753 12.01 1.652 5.075.538 7.024-.42 12.308-1.072 2.384-1.972 4.848-3.217 7.153-6.414 11.872-16.697 23.094-26.845 32.093-3.042 2.698-6.295 5.165-9.442 7.748-16.763 12.844-36.074 22.638-57.489 25.522-4.53.61-9.127.61-13.69.916-4.503-.245-9.029-.237-13.51-.735-8.28-.92-16.647-2.936-24.61-5.269-5.48-1.605-12.51-4.054-17.8-6.487-1.858-.854-3.6-1.927-5.4-2.89-1.793-1.362-5.78-4.304-2.913-6.921 1.905-1.74 5.403-.591 7.415.032.773.544 1.699.928 2.318 1.632 4.42 5.033-2.198 11.199-6.063 13.997-1.938 1.402-4.087 2.508-6.13 3.762-11.11 5.736-23.196 9.41-35.802 10.18-8.308.508-11.1-.042-19.348-.76a141.392 141.392 0 0 1-27.504-6.304c-5.029-1.698-9.568-3.417-14.02-6.257-1.67-1.065-3.114-2.43-4.67-3.645-1.002-1.236-2.19-2.35-3.004-3.708-2.365-3.944-2.257-8.926 1.61-11.893.608-.466 1.353-.736 2.03-1.104.604-.04 1.223-.256 1.813-.121 3.735.855 2.322 6.348 1.224 8.428-.64 1.21-1.589 2.242-2.383 3.363-1.192 1.106-2.274 2.334-3.575 3.319-7.696 5.826-17.632 9.16-27.043 11.242-2.739.606-5.528.971-8.292 1.457-2.888.147-5.772.49-8.663.443-12.012-.196-24.034-3.414-34.723-8.632-2.404-1.173-4.662-2.607-6.994-3.911-4.957-3.284-9.631-6.945-12.556-12.123-.934-1.653-1.767-3.74-1.61-5.697.06-.758.423-1.465.635-2.197.817-1.2 3.436-3.782 5.047-1.961.285.322.498.798.4 1.21-.176.734-.774 1.307-1.16 1.96-.837.659-1.621 1.386-2.51 1.976-2.433 1.613-7.415 4.21-9.803 5.35-4.904 2.34-10.616 4.775-15.808 6.359-3.23.985-6.555 1.657-9.832 2.485-24.664 4.856-49.856 2.122-74.614-.48-16.375-2.265-33.604-3.36-48.597-10.811-7.963-3.958-9.1-5.712-15.483-11.399-5.656-6.165-10.21-13.106-12.528-21.098-1.152-3.97-1.89-8.464-.788-12.57.477-1.776 1.612-3.324 2.418-4.987l3.449-3.37.574.812-3.255 3.2c-.731 1.381-1.774 2.646-2.195 4.143-2.37 8.42 2.711 19.559 7.45 26.368 1.645 2.365 3.644 4.48 5.466 6.722 6.273 5.622 7.39 7.36 15.234 11.275 14.912 7.444 32.079 8.507 48.374 10.77 24.662 2.59 49.759 5.317 74.326.474 3.25-.824 6.546-1.491 9.749-2.471 5.159-1.579 10.834-4.005 15.706-6.339 2.393-1.146 7.221-3.672 9.653-5.295.829-.553 1.554-1.238 2.331-1.857.298-.274.68-.484.895-.823.13-.204.176-.493.082-.715-.696-1.641-3.474.908-3.73 1.63-.174.434-.474.84-.522 1.303-.198 1.925.47 3.687 1.396 5.368 2.81 5.105 7.407 8.684 12.249 11.915 2.304 1.293 4.535 2.716 6.912 3.88 10.57 5.174 22.469 8.37 34.355 8.566 2.857.047 5.707-.292 8.56-.439 2.74-.482 5.505-.844 8.22-1.446 9.277-2.058 19.095-5.343 26.669-11.11 1.254-.955 2.293-2.148 3.44-3.221.746-1.07 1.598-2.08 2.24-3.212.78-1.377 2.21-6.11-.38-6.86-.463-.134-.965.033-1.447.05-.605.33-1.273.572-1.816.992-3.49 2.698-3.62 6.715-1.495 10.372.765 1.318 1.902 2.399 2.854 3.598 1.515 1.194 2.916 2.536 4.544 3.582 4.4 2.826 8.883 4.523 13.865 6.208a140.25 140.25 0 0 0 27.337 6.274c8.18.714 10.944 1.26 19.182.758 12.486-.762 24.455-4.41 35.45-10.107 2.002-1.235 4.109-2.324 6.006-3.704 3.207-2.331 9.767-7.815 6.065-12.318-.541-.658-1.384-1.019-2.076-1.528-.786-.255-1.543-.621-2.359-.764-1.943-.342-6.619.219-4.257 3.298.765.998 1.892 1.68 2.838 2.52 1.772.955 3.486 2.02 5.316 2.865 5.255 2.428 12.245 4.868 17.693 6.468 7.899 2.32 16.231 4.331 24.448 5.248 4.447.496 8.94.488 13.41.732 4.526-.302 9.086-.302 13.58-.908 21.284-2.871 40.467-12.63 57.12-25.404 3.13-2.572 6.364-5.03 9.388-7.717 10.062-8.939 20.285-20.102 26.613-31.905 1.21-2.257 2.075-4.672 3.113-7.008.946-4.779 1.963-6.542.503-11.248-1.549-4.994-5.843-9.09-10.333-11.7-1.608-.936-3.385-1.569-5.078-2.352-5.497-1.642-5.113-1.84-10.743-2.328-1.348-.117-2.706-.073-4.059-.11-.79.109-1.576.39-2.371.325-.328-.027-.996-.344-.78-.583.244-.27.72.169 1.078.253.81-.016 1.625.049 2.428-.048 6.216-.754 11.317-4.422 14.675-9.465 1.259-1.89 2.14-3.99 3.21-5.985.867-2.437 1.871-4.832 2.6-7.31 3.191-10.837 4.883-23.505 3.951-34.748-.228-2.753-.812-5.468-1.219-8.202-2.026-6.395-2.315-8.685-5.836-14.452-5.594-9.163-14.104-16.033-23.56-21.24-6.048-2.959-9.34-4.878-15.867-6.824-11.818-3.523-24.167-3.576-36.281-1.642-7.788 1.478-20.125 2.95-24.208 10.724.024.307-.104.666.073.923.555.81 1.624-.068 1.978-.386 2.351-2.106 3.416-5.127 4.394-7.976.77-4.615 1.542-9.183-.167-13.741-1.924-5.131-6.207-8.568-10.678-11.59-1.922-1.055-3.778-2.23-5.766-3.163-12.12-5.685-25.597-7.34-38.932-6.716-2.77.233-5.552.364-8.31.7-11.224 1.367-22.4 4.489-31.217 11.585-2.596 2.587-3.774 3.343-5.44 6.51-.735 1.396-1.668 4.53-2.118 6.127-.176.625-.131 1.334-.478 1.89-.233.37-.76.463-1.138.696-.648-1.867-.836-3.671-1.591-5.56-1.978-4.942-4.724-9.406-8.661-13.148-1.788-1.457-3.45-3.073-5.365-4.37-9.061-6.133-20.945-9.712-31.778-11.35-2.98-.45-6.003-.582-9.004-.873-2.982-.055-5.964-.229-8.946-.164-14.31.309-28.4 3.568-40.962 10.277-2.186 1.256-4.44 2.405-6.557 3.768-6.657 4.288-13.114 9.95-15.892 17.416-.49 1.314-.683 2.715-1.024 4.073-.11 4.29-.178 7.273 1.83 11.233.15.298 1.227 2.367 2.227 2.391.295.007.497-.308.745-.461.063-.709.311-1.424.189-2.125-.409-2.34-2.1-5.11-3.535-6.872-4.65-5.714-10.962-9.672-17.56-12.985-3.027-1.206-5.968-2.644-9.084-3.62-14.799-4.631-31.897-5.034-47.273-3.767-4.161.343-8.29.996-12.435 1.494-4.062.796-8.16 1.44-12.188 2.389-18.134 4.274-35.395 11.814-50.673 22.162-2.123 1.692-4.362 3.258-6.37 5.076-5.592 5.063-10.357 11.599-11.358 19.116-.187 1.403-.078 2.827-.118 4.24.523 2.767.384 3.58 1.787 5.898.606 1 2.17 2.567 2.397 1.485.122-.58-.059-1.183-.089-1.775-.286-.879-.449-1.804-.858-2.636-4.863-9.882-16.562-13.103-26.807-14.762-3.048-.188-6.09-.592-9.144-.565-12.003.106-24.58 3.103-34.444 9.928-2.298 1.59-4.262 3.589-6.394 5.383-1.734 2.107-3.68 4.066-5.202 6.322-6.163 9.135-8.743 20.41-9.242 31.176-.12 2.59.056 5.187.084 7.78.64 7.621 1.277 15.267 3.386 22.677 1.916 6.735 4.994 13.094 8.982 18.908 1.307 1.576 2.481 3.266 3.922 4.73 5.57 5.656 12.907 8.758 19.953 12.252l-.56.836z" style="opacity:1;fill:#000;fill-opacity:1;stroke:#000;stroke-width:1.35000014;stroke-linecap:butt;stroke-linejoin:miter;stroke-miterlimit:4;stroke-dasharray:none;stroke-dashoffset:0;stroke-opacity:1"/><path d="M-1061.131 166.678c-.671-.231-1.339-.475-2.014-.693-3.361-1.09-3.024-.798-6.571-2.343-4.788-2.084-9.182-4.744-13.626-7.464-9.88-6.153-18.33-14.366-24.316-24.4-1.356-2.272-2.447-4.694-3.67-7.042-2.205-5.91-3.787-9.175-4.681-15.488-1.217-8.584-.01-17.584 2.77-25.755.983-2.896 2.413-5.62 3.62-8.431 5.674-10.868 13.785-20.121 24.765-25.85 6.668-3.479 8.955-3.584 16.153-5.345 2.642-.19 5.278-.618 7.927-.57 8.676.156 16.81 3.574 23.168 9.426 1.121 1.031 2.064 2.24 3.096 3.36.67 1.08 5.206 6.468 2.093 7.85-.477.21-1.08.053-1.56-.153-.666-.287-1.174-.852-1.761-1.278-4.219-5.329-4.787-10.473-1.634-16.697.738-1.458 1.813-2.72 2.72-4.08 1.319-1.359 2.53-2.83 3.957-4.076 7.667-6.696 18.925-12.103 28.488-15.33 3.08-1.04 6.25-1.798 9.374-2.697 15.924-3.782 32.748-4.791 48.674-.347 2.773.773 5.428 1.922 8.142 2.883 8.788 4.136 16.852 10.018 22.841 17.723.067.19.392.508.2.567-1.798.554-2.279-.984-3.153-2.175-2.429-3.31-3.972-6.218-5.643-9.96-.386-1.296-.941-2.555-1.156-3.89-1.084-6.746 2.778-12.908 7.406-17.433 1.508-1.475 3.23-2.714 4.845-4.07 1.872-1.18 3.655-2.513 5.616-3.539 9.338-4.882 21.011-6.717 31.414-7.273 3.18-.17 6.367-.05 9.55-.075 12.027.514 23.566 3.734 33.84 10.073 5.563 3.433 6.884 5.04 11.6 9.362 5.692 6.143 10.066 13.32 12.798 21.226-.292.011-.723.282-.875.033-.284-.462-.063-1.082-.1-1.623-.22-3.156-.267-6.04 1.019-9.044.51-1.191 1.306-2.239 1.959-3.358 8.989-10.72 21.458-13.196 34.536-15.845 17.138-2.703 34.279-.214 50.842 4.433 3.252.913 6.452 2 9.678 3.001 9.49 3.386 19.579 7.473 24.456 16.981 2.006 3.912 1.7 5.233 1.966 9.35-.238 1.298-.286 2.646-.714 3.894-1.112 3.25-4.682 5.598-7.863 3.412-.607-.417-1.003-1.079-1.505-1.618-.193-.715-.627-1.405-.579-2.144.254-3.872 4.382-6.322 7.341-7.902 4.725-2.524 6.773-2.906 12.009-4.597 14.75-3.788 30.144-4.679 45.259-2.827 3.33.408 6.62 1.082 9.931 1.623 16.196 3.41 32.189 8.252 46.749 16.265 2.53 1.392 4.944 2.986 7.416 4.479 8.92 6.28 18.354 13.899 21.655 24.81.461 1.525.579 3.134.868 4.7.2 8.402-2.304 12.134-9.289 16.247.588-1.14-2.018 1.48-2.029.758-.03-2.056 6.462-1.995 7.506-2.046 6.002.381 11.793 2.073 16.647 5.73 3.435 2.587 5.21 4.816 8.131 7.985 7.09 8.955 12.347 19.798 14.212 31.147.43 2.613.482 5.275.723 7.912-.112 14.036-3.496 27.99-9.256 40.784-1.2 2.668-2.659 5.212-3.989 7.819-1.668 2.459-3.164 5.044-5.005 7.377-7.457 9.453-17.784 17.039-29.078 21.244-2.9 1.08-5.948 1.715-8.922 2.572-3.154.418-6.288 1.018-9.46 1.252-10.93.806-23.538-.374-34.245-2.82-1.615-.368-3.19-.895-4.785-1.343-.97-.439-2-.766-2.911-1.316-.942-.568-1.813-1.526-.553-2.57.876-.725 3.288-.532 4.145-.283.789.23 1.47.735 2.206 1.102.572.577 1.267 1.054 1.715 1.732 4.323 6.545-4.155 12.689-8.364 16.176-12.42 8.62-27.251 12.353-42.165 13.64-3.908.338-7.837.365-11.756.547-20.812.461-41.479-2.513-61.244-9.065-3.708-1.229-7.324-2.722-10.985-4.083-8.698-3.748-17.52-7.473-25.497-12.653-2.554-1.658-5.648-3.861-7.3-6.598-.476-.789-.546-1.76-.819-2.64.264-.821.299-1.756.79-2.466 1.551-2.236 6.138-3.066 8.101-.899.522.577.718 1.38 1.076 2.07.025.906.249 1.83.074 2.719-1.216 6.166-6.937 10.653-12.037 13.594-1.869 1.078-3.861 1.926-5.792 2.889-14.944 6.259-30.085 6.587-46.008 6.281-14.847-.923-29.788-4.018-43.42-10.137-2.5-1.123-4.873-2.513-7.31-3.77-8.107-5.005-15.624-11.273-19.278-20.28-.084-.764-.384-1.823.194-2.54.797-.991 1.307.515 1.286.97-.069 1.517-1.277 2.856-2.063 3.99-7.853 8.001-19.269 10.346-29.833 12.544-22.233 3.854-43.311-.571-64.932-5.507-18.88-5.07-38.014-10.454-55.383-19.656-2.921-1.548-5.704-3.346-8.556-5.018-7.684-5.467-17.549-11.695-19.466-21.825-.891-4.71.263-5.958 1.888-10.223 4.139-4.734 1.888-2.73 6.651-6.128l.44.882c-4.536 3.252-2.403 1.338-6.31 5.842-.578 1.374-1.438 2.66-1.732 4.12-2.415 11.978 10.763 20.704 18.957 26.467 2.832 1.665 5.595 3.454 8.497 4.994 17.311 9.188 36.394 14.555 55.218 19.61 21.51 4.91 42.484 9.326 64.603 5.479 10.351-2.164 21.61-4.44 29.289-12.313.425-.629.887-1.234 1.275-1.886.205-.343.334-.727.5-1.09.167-.166.364-.307.5-.498.271-.378-2.22 1.045-.194 1.241 3.46 8.884 10.945 15.004 18.841 19.937 2.411 1.247 4.758 2.628 7.234 3.741 13.544 6.093 28.397 9.17 43.153 10.087 15.694.297 30.925-.03 45.637-6.237 1.9-.95 3.86-1.788 5.697-2.853 4.49-2.6 10.203-7.038 11.5-12.435.188-.78.054-1.602.08-2.403-.25-.596-.357-1.277-.754-1.787-1.68-2.157-5.274-1.1-6.83.626-.35.388-.476.929-.714 1.393.203.794.199 1.672.609 2.382 1.55 2.683 4.62 4.861 7.07 6.46 7.93 5.172 16.715 8.877 25.37 12.614 3.643 1.357 7.241 2.845 10.932 4.07 19.683 6.531 40.266 9.496 60.993 9.03 3.897-.183 7.805-.211 11.692-.548 14.766-1.281 29.46-4.97 41.745-13.53 3.636-3.032 11.828-8.65 8.227-14.555-.379-.622-.995-1.065-1.492-1.597-.64-.34-1.228-.806-1.92-1.023-2.012-.63-1.708-.123-3.399.068-.183.02-.605-.25-.549-.074.393 1.213 3.159 2.022 3.629 2.238 1.572.445 3.125.97 4.718 1.336 10.623 2.442 23.148 3.614 33.995 2.814 3.134-.23 6.23-.825 9.346-1.237 2.936-.848 5.945-1.476 8.808-2.544 11.163-4.165 21.365-11.675 28.718-21.034 1.817-2.312 3.292-4.873 4.938-7.31 1.313-2.586 2.754-5.112 3.94-7.76 5.61-12.519 8.956-26.14 9.116-39.865-.226-2.602-.264-5.228-.678-7.806-1.797-11.186-7.002-22-13.972-30.836-2.851-3.107-4.615-5.323-7.962-7.868-4.71-3.581-10.342-5.232-16.184-5.609-.977.048-1.957.042-2.93.144-.749.079-1.487.244-2.225.396-.89.182-1.986.94-2.522-.466-.232-.606 2.942.564 1.817-.693 4.172-2.473 7.9-5.714 8.628-10.82.193-1.356.095-2.738.143-4.107-.262-1.518-.353-3.077-.786-4.556-3.157-10.784-12.52-18.294-21.28-24.492-2.453-1.485-4.848-3.07-7.36-4.456-14.485-7.987-30.404-12.804-46.523-16.2-3.29-.539-6.56-1.21-9.87-1.616-15.013-1.84-30.305-.954-44.954 2.821-5.425 1.76-11.122 3.368-15.668 7.02-.76.61-2.818 2.702-3 4.085-.082.616.225 1.222.337 1.833.402.48.71 1.059 1.205 1.44 2.76 2.125 5.662-.248 6.65-2.957.362-.994.43-2.07.646-3.106-.184-3.946.138-5.22-1.748-8.994-4.7-9.408-14.7-13.383-24.003-16.723-3.213-.997-6.4-2.082-9.638-2.992-16.45-4.62-33.477-7.102-50.498-4.408-12.822 2.607-25.165 5.018-33.949 15.57-1.937 3.38-2.91 4.954-2.936 8.922-.005.824.122 1.643.186 2.465.047.597.339 1.222.148 1.79-.122.366-.642.428-.964.642-2.612-7.814-6.953-14.878-12.517-20.951-4.638-4.271-5.953-5.875-11.43-9.267-10.154-6.29-21.565-9.482-33.464-9.99-3.16.025-6.324-.094-9.479.075-10.277.553-21.843 2.363-31.064 7.2-1.928 1.012-3.68 2.328-5.52 3.491-1.58 1.335-3.266 2.553-4.74 4.004-4.228 4.157-8.065 9.954-7.14 16.175.194 1.305.734 2.535 1.1 3.802 1.557 3.53 1.506 3.775 3.574 7.034.607.955 1.287 1.863 1.952 2.78.478.657 1.128 1.205 1.475 1.94.13.278.076 2.104.102 1.097-5.838-7.633-13.822-13.41-22.447-17.515-2.68-.953-5.302-2.093-8.042-2.86-15.8-4.425-32.5-3.41-48.298.348-3.101.894-6.246 1.648-9.304 2.682-9.455 3.198-20.614 8.558-28.182 15.202-1.387 1.218-2.562 2.658-3.843 3.987-.866 1.316-1.863 2.554-2.598 3.946-2.988 5.662-2.365 10.325 1.363 15.271.765.617 1.28 1.3 2.268 1.43.18.024.474.067.536-.104.75-2.065-2.037-4.678-2.732-6.147-.999-1.097-1.91-2.282-2.998-3.292-6.185-5.75-14.132-9.116-22.611-9.276-2.606-.05-5.198.37-7.797.556-7.092 1.737-9.348 1.84-15.914 5.273-10.837 5.666-18.82 14.826-24.4 25.566-3.109 7.295-4.256 8.857-5.708 16.59-2.179 11.599-.542 21.123 4.01 31.885 1.203 2.324 2.274 4.722 3.61 6.972 5.908 9.952 14.27 18.1 24.056 24.196 4.404 2.696 8.758 5.336 13.503 7.404 3.505 1.528 3.187 1.245 6.54 2.325.688.222 1.368.468 2.052.702l-.331.94zM94.409-171.196c5.16-4.711 11.248-8.514 17.928-10.668 1.373-.443 2.803-.682 4.205-1.023 3.172-.435 7.787-.32 7.337 4.29-.276 2.828-1.487 4.235-2.895 6.582-4.814 6.594-10.716 12.312-16.65 17.888l-1.048.947c-.046.098-.114.398-.138.293-.123-.551-.346-1.148-.174-1.685.079-.245.504-.108.76-.14 1.701-.217 2.888-.267 4.667-.39 9.566-.38 19.145-.345 28.717-.332 1.675.004 3.35.008 5.024.023l-.09 1.993c-1.669-.03-3.337-.037-5.006-.045-9.534-.028-19.075-.067-28.602.34-3.367.244-1.783.096-4.562.398-.399.043-.884.38-1.197.13-1.93-1.547-.444-2.255.583-3.203 5.833-5.466 11.634-11.084 16.306-17.6.864-1.493 2.943-4.05 2.519-6.092-.479-2.3-3.829-1.565-5.245-1.45-1.331.323-2.69.549-3.994.972-6.473 2.1-12.369 5.81-17.332 10.422l-1.113-1.65z" style="opacity:1;fill:#000;fill-opacity:1;stroke:#000;stroke-width:1.35000002;stroke-linecap:butt;stroke-linejoin:miter;stroke-miterlimit:4;stroke-dasharray:none;stroke-dashoffset:0;stroke-opacity:1"/><path d="M-287.297-297.852c-4.96-1.62-10.075-.06-14.536 2.262-.413.417-.934.749-1.238 1.25-.065.108.692 1.003 1.142 1.39 1.304 1.119 4.534 3.372 5.666 4.25 1.29 1 2.535 2.058 3.803 3.087 3.355 3.473 11.516 10.955 7.23 16.477-.585.753-1.6 1.034-2.401 1.551-1.103.12-2.203.44-3.31.358-5.997-.445-11.715-4.74-15.953-8.682l-.875-1.588 1.597-1.185.459 1.181c4.008 3.808 8.978 7.679 14.693 8.297.86.093 1.726-.13 2.59-.195.478-.291 2.362-1.17 2.53-2.08.814-4.375-5.046-9.735-7.638-12.491-6.203-5.045-1.24-1.116-7.14-5.527-.938-.7-3.835-2.563-4.126-4.124-.375-2.008 1.132-2.803 2.307-3.837 4.919-2.449 10.45-4.058 15.863-2.273l-.663 1.879zM-276.73-328.316c1.817 11.713 1.707 23.636 1.789 35.46.413 8.042-.574 16.443.085 24.456l-1.866.68c-.305-3.262-.188-1.268-.153-5.66.05-6.309.078-12.619.065-18.929-.076-11.703.015-23.492-1.688-35.097l1.768-.91zM-255.386-283.411c-4.121.51-10.756 3.482-10.176 8.662.09.815.71 1.479 1.066 2.218.882.802 1.618 1.804 2.648 2.407 5.209 3.05 13.234 2.718 17.131-2.399.857-1.125 1.103-2.604 1.655-3.906-.166-1.116-.03-2.32-.498-3.348-2.425-5.33-9.348-4.801-13.943-3.448-.943.278-1.82.748-2.729 1.122l-.526-1.907c1.003-.39 1.97-.883 3.007-1.17 4.214-1.165 9.485-1.682 13.243 1.177 1.205.916 2.326 2.135 2.805 3.571.557 1.667.097 3.514.146 5.27-.74 1.456-1.168 3.12-2.223 4.367-4.583 5.417-13.457 5.813-19.234 2.261-1.24-.762-2.122-1.994-3.183-2.991-.354-1.413-1.043-2.782-1.063-4.238-.016-1.145.415-2.29.958-3.299 2.155-4.001 6.749-5.814 10.985-6.338l-.07 1.989zM-233.043-282.329c.636 12.305 1.669 24.585 2.723 36.86.205 5.904 1.423 11.974.644 17.9-.07.522-.383 4.992-2.76 4.205-1.14-.377-1.812-1.573-2.717-2.36-.774-1.562-1.667-3.072-2.322-4.688-4.25-10.494-6.562-23.398-4.91-34.663.467-3.186 1.573-6.245 2.36-9.367 1.325-2.42 2.35-5.03 3.976-7.26 3.68-5.044 9.705-9.25 16.28-7.949 4.422.876 5.615 2.97 8.564 5.947.695 1.54 1.688 2.978 2.084 4.62 1.223 5.066-1.48 9.51-6.06 11.614-3.452 1.584-6.771 1.492-10.449 1.765-3.57.1-7.024-.2-10.45-1.15l.503-1.919c3.236.947 6.52 1.175 9.9 1.107 3.333-.244 6.5-.163 9.633-1.572 3.655-1.645 6.094-4.553 5.305-8.73-.281-1.486-1.132-2.804-1.698-4.206-2.456-2.635-3.593-4.67-7.373-5.514-5.997-1.338-11.515 2.723-14.815 7.307-1.539 2.138-2.501 4.638-3.752 6.956-.71 2.63-1.722 5.197-2.132 7.89-1.716 11.305.498 23.394 4.61 33.953.584 1.498 1.365 2.912 2.048 4.368.698 1.323 1.13 2.667 1.642 1.944.991-1.398.836-5.312.836-6.212.003-4.704-.405-8.587-.774-13.324-1.062-12.314-2.077-24.635-2.81-36.973l1.914-.549zM-203.707-284.676c4.375 2.19 9.666 3.953 14.632 3.217.94-.14 1.827-.53 2.741-.794 1.472-.99 3.208-2.529 1.733-4.311-.414-.5-.824-1.043-1.385-1.37-1.963-1.141-3.16-.818-5.377-.822-1.09.33-2.229.525-3.27.988-3.917 1.74-8.202 5.613-8.268 10.247-.01.746.381 1.443.572 2.165.555.843.944 1.82 1.664 2.528 4.863 4.78 13.799 4.62 19.99 3.787 2.078-.28 4.112-.828 6.167-1.243l.24 1.94c-2.124.419-4.224.977-6.37 1.257-6.928.901-16.11.977-21.48-4.402-.868-.869-1.35-2.052-2.024-3.078-.149-1.328-.543-2.651-.446-3.984.369-5.076 5.198-9.343 9.586-11.156 1.192-.493 2.488-.682 3.733-1.023 2.686.074 4.164-.276 6.521 1.247 2.596 1.678 3.221 5.126 1.13 7.491-.64.725-1.574 1.123-2.361 1.685-1.04.274-2.055.68-3.121.823-5.331.713-10.957-1.128-15.648-3.493l1.04-1.7z" style="opacity:1;fill:#000;fill-opacity:1;stroke:#000;stroke-width:1.35000002;stroke-linecap:butt;stroke-linejoin:miter;stroke-miterlimit:4;stroke-dasharray:none;stroke-dashoffset:0;stroke-opacity:1" transform="translate(243 114)"/><path d="M-142.688-182.869c5.458-3.524 11.496-6.196 17.846-7.636 1.246-.283 2.521-.41 3.782-.614 1.764.141 3.448-.259 4.497 1.602 1.708 3.03-3.232 10.9-4.581 13.507-3.787 6.653-7.304 13.488-11.334 20.003-.893 1.444-3.312 4.946-4.41 6.55.422-.401-3.59 4.615-3.978 3.009-.497-2.056.238-2.037 1.436-2.58 8.178-3.278 16.85-4.828 25.54-6.003 3.273.044 8.413-.975 11.576.484l-.85 1.807c-.456-.454-2.851-.504-3.06-.514-3.274-.153-3.983-.012-7.524.179-8.533 1.155-17.056 2.677-25.072 5.943-1.778.84-.28.505-1.362-1.194-.1-.157-.38.16-.55.086-.112-.048.22-.11.311-.19a9.22 9.22 0 0 0 .834-.815c.476-.538.91-1.114 1.365-1.671 5.799-8.448 10.725-17.404 15.613-26.404 1.469-2.869 3.44-6.243 4.531-9.31.23-.644.682-1.879-.38-2.293-.755-.295-1.612-.154-2.418-.231-1.201.194-2.418.312-3.604.582-6.158 1.403-12.024 4.003-17.288 7.471l-.92-1.768zM180.416-1366.273c-14.773-.53-29.262-4.482-41.296-11.862-2.991-1.834-5.668-4.011-8.502-6.017-11.084-9.281-21.056-19.672-27.045-31.984-4.456-9.163-4.522-11.85-6.912-21.677-2.474-16.873-.212-33.914 8.15-49.483 5.192-9.665 7.833-11.738 15.24-20.162 3.277-2.753 6.314-5.73 9.834-8.259 10.114-7.268 22.152-12.402 35.106-14.846 10.047-1.896 14.594-1.49 24.768-1.58 13.386 1.167 28.395 2.746 38.085 11.659 4.15 3.818 4.621 6.102 6.649 10.678.288 1.439.795 2.858.863 4.316.11 2.34-.968 6.981-5.04 6.425-3.03-.414-3.786-2.546-5.195-4.445-.364-1.473-.994-2.916-1.091-4.418-.572-8.767 5.378-17.263 12.313-23.345 2.422-2.123 5.206-3.928 7.809-5.892 14.36-9.14 30.446-16.393 47.432-21.383 4.64-1.364 9.324-2.679 14.128-3.548 5.664-1.025 11.463-1.415 17.194-2.122 6.048-.192 12.093-.71 18.142-.576 16.125.358 32.44 2.97 47.24 8.5 9.615 3.594 12.041 5.552 20.25 10.508 6.099 4.385 10.682 9.513 13.442 15.864.992 2.284 1.756 4.8 1.609 7.253-.567-.129-1.352.012-1.701-.388-.667-.763-.673-1.812-1.011-2.718-.482-1.288-1.017-2.563-1.45-3.864-.964-2.9-2.209-7.288-2.59-10.24-.249-1.913-.199-3.843-.298-5.765.314-2.036.357-4.115.942-6.108 3.111-10.6 12.37-18.325 22.777-24.231 3.471-1.97 7.192-3.604 10.788-5.406 4.146-1.54 8.182-3.313 12.438-4.622 20.008-6.154 42.721-8.268 63.896-8.166 5.972.03 11.932.472 17.897.707 22.058 1.581 43.832 5.821 63.663 14.33 10.91 4.68 13.278 6.577 22.996 12.477 10.41 7.486 22.064 16.064 24.302 28.174.18.97.105 1.963.158 2.945-.242.672-.237 1.449-.727 2.016-1.997 2.31-4.594-1.89-4.903-2.812-1.017-3.036-.413-4.954-.062-8.083.765-1.657 1.26-3.424 2.296-4.972 8.28-12.368 29.291-17.645 43.983-21.741 5.124-1.082 10.208-2.314 15.373-3.246 5.572-1.006 11.192-1.821 16.822-2.564 16.618-2.195 33.47-3.698 50.306-2.743 4.772.27 9.495.983 14.242 1.475 13.434 2.67 28.976 5.774 37.481 15.986 3.994 4.796 3.728 6.938 4.93 12.497-.144 2.04.001 4.109-.432 6.118-1.118 5.183-4.555 11.88-10.563 14.357-.556.23-1.22.173-1.829.26-.243-.505-.891-.986-.73-1.513.656-2.135 3.554-3.477 5.613-4.254 3.45-1.303 7.728-2.118 11.471-2.235 2.436-.076 4.868.233 7.302.35 2.705.566 5.484.925 8.116 1.7 13.208 3.89 23.491 11.99 31.963 21.154 2.604 2.817 4.906 5.825 7.358 8.737 12.557 16.444 21.437 34.677 26.678 53.737 1.102 4.006 1.884 8.07 2.826 12.106 3.228 16.98 3.308 34.316-1.253 51.137-3.123 11.514-4.628 13.401-9.836 24.183-7.917 13.65-17.989 26.91-33.608 35.097-9.364 4.909-13.848 5.47-24.276 8.214-21.461 4.255-43.647 3.78-65.037-.548-3.241-.656-6.409-1.549-9.614-2.323-4.757-1.43-8.377-2.284-12.69-4.31-.707-.331-4.02-1.948-4.058-3.319-.056-2.025 1.918-2.06 3.502-2.531 6.906-.51 13.865 2.142 17.543 7.284.785 1.098 1.178 2.365 1.767 3.547.042 1.358.391 2.734.126 4.073-2.191 11.041-19.883 17.196-30.278 21.3-25.282 8.269-52.353 9.924-79.145 11.04-15.091.29-30.21.09-45.203-1.537-14.029-1.523-27.671-4.28-41.326-7.305-9.54-2.347-19.045-4.939-28.255-8.115-4.403-1.519-8.412-3.164-12.136-5.641-.24-.416-.761-.786-.718-1.248.14-1.509 1.578-1.444 2.782-1.11 2.985.828 3.843 2.993 4.795 5.245-.075 1.104.056 2.233-.226 3.314-2.066 7.92-10.587 13.311-18.615 16.84-3.184 1.398-6.575 2.428-9.862 3.642-21.523 6.434-44.555 9.121-67.35 7.779-4.714-.278-9.389-.926-14.083-1.39-16.842-2.874-37.194-6.12-48.877-17.983-1.353-1.374-2.259-3.024-3.389-4.536-.538-1.353-1.274-2.66-1.614-4.058-.262-1.074-.266-2.192-.176-3.286.166-2.025 1.413-5.22 2.881-4.472.493.25.525.865.788 1.298-.362.758-.528 1.607-1.086 2.274-1.436 1.718-5.383 4.03-7.211 4.96-7.539 3.835-14.858 5.77-23.198 7.948-15.036 3.377-30.647 4.673-46.172 3.659-11.036-.721-15.4-1.761-26.274-3.616-4.336-1.039-8.7-2.002-13.01-3.116-4.323-1.117-8.597-2.367-12.886-3.578-12.826-3.62-25.75-7.32-37.806-12.58-3.822-1.668-7.441-3.65-11.162-5.475-3.358-2.106-6.921-3.996-10.074-6.319-10.748-7.917-21.048-19.963-25.193-31.605-.9-2.524-1.24-5.168-1.86-7.751-.039-5.612-.705-8.205 1.65-13.486.686-1.537 1.995-2.819 2.992-4.228l.908.758c-.935 1.34-2.136 2.569-2.807 4.017-2.227 4.81-1.583 7.24-1.6 12.486.59 2.54.903 5.138 1.77 7.62 4.019 11.498 14.21 23.463 24.789 31.284 3.12 2.307 6.65 4.183 9.975 6.274 3.69 1.814 7.28 3.785 11.072 5.442 12.02 5.252 24.91 8.94 37.701 12.55 4.275 1.208 8.536 2.454 12.846 3.57 4.286 1.108 8.624 2.066 12.936 3.1 10.797 1.843 15.15 2.88 26.106 3.596 15.416 1.007 30.916-.285 45.843-3.648 9.686-2.538 24.515-6.12 30.552-13.73.999-1.221-.093-.864-.68.506-1.304 3.038-.458 5.99.953 8.89 1.069 1.467 1.915 3.068 3.207 4.4 11.345 11.697 31.785 14.987 48.264 17.79 4.664.46 9.308 1.106 13.992 1.383 22.65 1.336 45.538-1.336 66.918-7.745 3.24-1.202 6.583-2.22 9.72-3.604 7.386-3.258 15.694-8.363 17.87-15.63.29-.97.25-1.99.375-2.986-.696-1.889-.594-2.536-2.295-3.895-1.722-1.376-1.091-.469-2.64-1.06-.188-.071-.43-.519-.467-.346-.069.323.228.627.341.941 3.605 2.454 7.548 4.052 11.843 5.539 9.173 3.175 18.643 5.762 28.15 8.105 13.601 3.017 27.19 5.769 41.166 7.287 14.946 1.623 30.017 1.819 45.06 1.53 26.662-1.116 53.608-2.756 78.762-11 9.355-3.705 27.18-10.048 29.44-19.981.281-1.236.025-2.518.037-3.777-.522-1.117-.852-2.314-1.568-3.351-3.366-4.874-9.902-7.458-16.393-7.02-.644.17-1.292.333-1.933.512-.288.081-.841.01-.855.267-.07 1.326 2.934 2.72 3.541 3.009 4.238 2.01 7.848 2.864 12.53 4.277 3.177.771 6.318 1.66 9.533 2.313 21.223 4.309 43.243 4.784 64.54.555 10.286-2.711 14.721-3.267 23.949-8.115 15.455-8.121 25.387-21.287 33.209-34.805 4.889-10.168 6.662-12.689 9.588-23.393 4.57-16.72 4.557-33.949 1.355-50.84-.932-4.018-1.705-8.065-2.797-12.054-5.19-18.969-13.997-37.12-26.473-53.491-2.43-2.894-4.713-5.882-7.293-8.682-8.327-9.033-18.421-17.053-31.422-20.906-2.571-.762-5.287-1.115-7.93-1.672-2.366-.116-4.73-.42-7.098-.348-5.728.177-13.059 1.62-16.564 5.84.456-.049.957.028 1.368-.147 1.893-.807 4.24-2.815 5.343-4.174 3.619-4.456 5.127-9.526 5.063-14.889-1.072-5.348-.793-7.473-4.577-12.108-8.262-10.114-23.667-13.12-36.84-15.767-4.713-.491-9.401-1.203-14.139-1.473-16.77-.957-33.56.545-50.112 2.735-5.608.742-11.206 1.556-16.757 2.56-5.14.93-10.2 2.16-15.3 3.24-14.904 4.168-34.627 9.061-43.245 21.371-.894 1.277-1.369 2.734-2.053 4.101-.446 3.417-1.19 6.627.96 9.753.219.318.989 1.364 1.705.72.31-.28.368-.703.551-1.053-.026-.931.074-1.871-.08-2.793-1.986-11.94-13.636-20.378-23.79-27.744-9.645-5.87-11.98-7.749-22.812-12.408-19.713-8.478-41.366-12.697-63.302-14.27-5.938-.234-11.87-.675-17.815-.703-21.048-.099-43.64 2.002-63.525 8.132-4.217 1.3-8.215 3.06-12.323 4.59-3.559 1.789-7.242 3.411-10.677 5.367-9.793 5.575-19.092 13.088-22.116 23.108-.586 1.944-.655 3.975-.983 5.962.083 1.885.015 3.779.249 5.654.357 2.871 1.597 7.314 2.535 10.137.434 1.305.988 2.578 1.46 3.872.31.848.812 1.67.888 2.555.04.464-.37.876-.556 1.313.357-2.234-.53-4.816-1.395-6.868-2.63-6.234-7.08-11.25-13.03-15.558-8.102-4.916-10.495-6.858-19.999-10.423-14.672-5.505-30.862-8.104-46.859-8.46-6.014-.133-12.024.384-18.036.575-5.684.704-11.435 1.094-17.052 2.113-4.774.867-9.428 2.174-14.04 3.53-16.873 4.965-32.855 12.178-47.106 21.278-2.558 1.939-5.295 3.72-7.673 5.817-6.529 5.755-12.268 13.782-11.947 22.056.054 1.41.602 2.776.902 4.164.998 1.479 1.753 3.556 4.047 4.074.658.149 1.436.011 2.01-.301 3.306-1.782 1.712-6.417 1.269-8.786-1.885-4.407-2.333-6.675-6.276-10.362-9.444-8.83-24.288-10.323-37.414-11.49-10.05.087-14.563-.315-24.483 1.557-12.796 2.416-24.683 7.496-34.664 14.686-3.48 2.507-6.478 5.455-9.717 8.183-7.317 8.35-9.93 10.406-15.047 19.985-8.15 15.253-10.43 31.88-8.027 48.41 2.343 9.746 2.398 12.4 6.788 21.49 5.9 12.219 15.772 22.525 26.743 31.74 2.793 1.983 5.43 4.137 8.38 5.952 11.84 7.287 26.113 11.206 40.669 11.72l.048 1.088z" style="opacity:1;fill:#000;fill-opacity:1;stroke:#000;stroke-width:1.35000002;stroke-linecap:butt;stroke-linejoin:miter;stroke-miterlimit:4;stroke-dasharray:none;stroke-dashoffset:0;stroke-opacity:1"/><path d="M-1916.915-705.219c13.568 3.459 7.221 19.372-3.363 23.243-21.207 7.757-43.797 9.614-66.091 9.51-44.464-.209-89.647-6.326-126.8-25.728-25.68-13.411-39.37-31.82-42.129-43.897-3.103-13.58-.613-24.345 10.546-30.707 2.381-1.358 7.436-3.268 7.436-3.268" style="opacity:1;fill:none;fill-opacity:1;stroke:#000;stroke-width:2.20000005;stroke-linecap:butt;stroke-linejoin:miter;stroke-miterlimit:4;stroke-dasharray:none;stroke-dashoffset:0;stroke-opacity:1"/></g></svg>