<svg xmlns="http://www.w3.org/2000/svg" width="340" height="154.789"><g style="display:inline"><path d="M61.828 51.998c1.738-.703 4.46-.84 6.444-.699 1.42.101 3.714.66 5.329 2.075 4.366 3.825 3.748 9.581 3.395 12.096-.31 2.21-1.35 4.837-2.656 6.707-1.65 2.363-4.774 3.894-7.691 4.118-.997.077-2.352.024-3.323-.212-.974-.237-1.909-.665-2.764-1.188-3.821-2.338-6.208-6.775-6.541-11.182-.093-1.22-.108-2.471.147-3.668.532-2.496.793-3.443 2.323-5.514 2.03-2.747 5.053-4.182 8.367-4.608" style="fill:#f4f4f4;fill-opacity:1;stroke:#000;stroke-width:.961542;stroke-linecap:butt;stroke-linejoin:miter;stroke-miterlimit:4;stroke-dasharray:none;stroke-dashoffset:0;stroke-opacity:1"/><path d="M32.234 66.539c1.43-.072 3.492.727 4.976 2.462.655.767 1.337 2.041 1.548 3.026.743 3.456-.825 6.528-4.44 7.41-2.027.494-4.095-.269-5.326-1.345-1.313-1.147-2.435-2.838-2.548-5.237-.172-3.621 2.32-6.64 5.144-8.516" style="fill:#f4f4f4;fill-opacity:1;stroke:#000;stroke-width:1.04638;stroke-linecap:butt;stroke-linejoin:miter;stroke-miterlimit:4;stroke-dasharray:none;stroke-dashoffset:0;stroke-opacity:1"/><path d="M104.26 94.507c-2.76-1.817-5.009-4.216-7.112-6.736-2.144-2.732-3.737-5.84-4.345-9.284-.404-2.284-.284-3.272-.257-5.586.396-4.098 1.794-8.106 4.638-11.173 1.806-1.948 2.838-2.373 5.083-3.763 1.045-.424 2.06-.931 3.134-1.274 4.074-1.297 8.498-1.551 12.668-.59.713.164 1.4.425 2.1.638.583.23 3.622 1.463 2.763 2.727-.142.21-.45.274-.703.291-.283.02-.554-.124-.831-.187-.274-.158-.577-.274-.822-.474-1.495-1.217-1.479-3.258-.798-4.918.219-.535.586-.996.879-1.494 2.723-3.323 6.264-5.895 10.128-7.747 1.016-.486 2.068-.894 3.103-1.342 4.358-1.574 9.005-2.66 13.673-2.296 2.764.215 3.624.604 6.24 1.36 2.924 1.22 6.585 2.55 7.971 5.713.653 1.488.406 2.038.246 3.544-.207.512-.332 1.066-.62 1.536-.184.3-.435.608-.766.724-1.444.509-2.168-1.724-2.374-2.63-.132-.582-.134-1.186-.2-1.78.079-.61.062-1.242.237-1.833 1.31-4.424 5.988-5.662 9.887-6.816 1.143-.208 2.278-.465 3.428-.625 4.993-.693 10.596-.798 15.603-.228 1.253.143 2.493.394 3.74.591 1.1.314 2.225.553 3.302.942 3.08 1.112 6.044 3.068 7.935 5.786.3.433.514.92.77 1.38.33 1.05.586 2.147.066 3.193-.08.163-.216.327-.39.382-.212.067-.48.074-.666-.048-.247-.16-.341-.48-.512-.72-.067-.344-.195-.681-.2-1.03-.035-2.624 1.47-4.77 3.422-6.368.65-.532 1.366-.979 2.049-1.468a49.594 49.594 0 0 1 12.33-5.54c3.282-.965 4.72-1.142 8.095-1.77 7.274-.98 14.765-.439 21.672 2.166 1.331.502 2.595 1.168 3.892 1.753 1.095.7 2.236 1.332 3.284 2.101 2.81 2.065 5.624 5 7.215 8.143.206.408.343.848.515 1.272.126.395.483 2.032-.316 2.129-1.014.122-1.05-.913-1.084-1.57.121-.356.186-.735.364-1.066 1.21-2.256 5.536-3.509 7.731-4.248 5.71-1.58 11.68-2.348 17.607-2.098 1.344.056 2.683.212 4.024.318 5.202.568 10.47 1.36 15.38 3.256 2.85 1.1 3.463 1.604 6.047 3.134 2.831 1.973 5.818 4.26 6.788 7.761.47 1.7.237 2.21.01 3.873-.234.577-.392 1.192-.705 1.731-.798 1.377-2.367 2.085-3.91 1.888-.244-.03-.476-.12-.714-.18-.155-.112-.398-.157-.464-.337-.666-1.785 2.647-1.308 3.377-1.15.564.121 1.105.331 1.658.497a20.309 20.309 0 0 1 8.772 7.057c.513.734.927 1.532 1.39 2.299 1.644 3.429 2.507 7.216 2.252 11.033-.18 2.699-.557 3.426-1.33 6.066-1.822 4.192-4.485 7.41-8.519 9.64-2.723 1.505-3.572 1.568-6.535 2.419-2.86.552-5.757.697-8.652.404-.335-.034-2.155-.257-2.702-.532-.145-.073-.212-.246-.318-.368.303-.206.552-.54.91-.618.332-.072.676.098.999.203 1.267.412 2.315 1.173 2.984 2.344.215.378.333.803.5 1.204.015.472.153.955.048 1.415-.337 1.466-1.14 2.33-2.29 3.248-2.551 2.034-5.664 3.066-8.67 4.193-1.349.373-2.684.796-4.045 1.12-5.986 1.42-12.635 2.206-18.784 2.035-1.696-.047-3.385-.234-5.078-.351-4.638-.479-9.169-1.543-13.614-2.92-2.007-.622-3.897-1.242-5.784-2.152-.524-.253-1.009-.581-1.513-.872-.243-.244-.555-.435-.727-.733-.338-.59.013-1.15.647-1.35.897-.283 1.902.76 2.414 1.3.155.31.377.597.465.933.833 3.205-3.906 4.388-5.994 5.022-6.32 1.252-12.856.976-19.214.13-1.533-.204-3.052-.496-4.578-.744-4.042-.782-8.07-1.796-11.808-3.564-1.748-.827-3.473-1.844-4.897-3.174-.515-.481-.912-1.074-1.369-1.611-.742-1.302-1.743-3.45-.003-4.541.21-.132.468-.215.715-.2.248.016.458.19.686.286.152.218.356.408.454.655.975 2.457-1.916 4.984-3.447 6.41-3.73 2.961-8.203 4.745-12.817 5.807-1.16.267-2.338.452-3.507.678-4.86.647-9.88.597-14.65-.656-2.675-.703-3.161-1.092-5.518-2.282-1.213-.87-4.424-2.717-3.357-4.755.407-.779 1.336-.888 2.05-1.106.439.036.893-.008 1.34.145 3.781 1.121 2.023 5.571-.91 6.582-5.876 2.025-12.136 2.371-18.313 2.165-12.32-.411-24.84-2.5-35.135-8.282-7.116-3.996-10.862-8.19-11.674-11.617-.647-2.734-.544-5.013 1.933-7.186 1.084-.952 2.26-1.168 2.626-1.29" style="fill:#f4f4f4;fill-opacity:1;stroke:#000;stroke-width:.961542;stroke-linecap:butt;stroke-linejoin:miter;stroke-miterlimit:4;stroke-dasharray:none;stroke-dashoffset:0;stroke-opacity:1"/><path d="M446.95 277.645c-4.294-3.571-9.827-1.658-14.418.242-.77.465-2.687 1.236-2.966 2.475-.041.182.387-.025.558.05.457.203.844.54 1.29.765 2.404 1.207 3.868 1.698 6.484 2.723 4.477 1.793 13.458 5.416 15.15 10.514.24.724.117 1.52.176 2.28-.568.907-.929 1.984-1.704 2.722-3.354 3.197-11.823 3.401-16.026 2.779-1.522-.226-2.995-.703-4.493-1.054-1.789-.692-4.545-1.477-6.035-2.953-.47-.467-.622-1.17-.934-1.755l1.656-1.102c.077.373-.026.839.232 1.12 1.259 1.379 3.996 2.171 5.512 2.77 1.413.339 2.803.798 4.24 1.016 5.453.826 11.056.196 15.639-3.009.07-.517.324-1.042.208-1.55-.342-1.504-2.099-3.21-3.128-4.055-3.27-2.687-7.226-4.367-11.136-5.86-1.644-.64-7.977-2.64-8.917-4.471-1.44-2.806 1.909-4.346 3.658-5.308 5.493-2.208 11.314-3.958 16.35.24l-1.397 1.421zM456.469 245.356c1.286 5.36 1.338 10.911 1.823 16.376.449 5.06.683 6.72 1.286 11.842 1.227 9.548 2.692 19.075 3.65 28.657.04.491.078.983.117 1.474l-1.878.659-.096-1.442c-.897-9.578-2.387-19.095-3.613-28.634-.606-5.073-.861-6.883-1.313-11.898-.482-5.342-.548-10.756-1.688-16.016l1.712-1.018zM482.841 281.72c-3.638-2.14-7.605-.735-10.783 1.661-.84.634-1.541 1.433-2.312 2.15-.552.848-1.246 1.62-1.657 2.546-1.908 4.297.267 8.497 4.114 10.832 1.3.788 2.789 1.211 4.183 1.817 1.633.177 3.257.573 4.9.532 6.782-.17 12.671-4.283 14.09-11.124.273-1.316.023-2.688.035-4.033-.509-1.3-.781-2.721-1.527-3.903-3.057-4.845-9.236-6.597-14.6-6.619l.086-1.983c6.006.104 12.746 2.11 16.16 7.525.862 1.366 1.192 3.003 1.788 4.505-.326 4.738.195 6.546-2.539 10.625-3.093 4.617-8.31 6.89-13.74 6.954-1.798.021-3.57-.428-5.355-.643-3.566-1.574-5.42-1.862-7.95-4.911-2.674-3.22-2.817-7.37-.984-11.029.507-1.01 1.305-1.848 1.957-2.772.866-.766 1.66-1.62 2.598-2.297 3.858-2.781 8.534-4.006 12.763-1.403l-1.227 1.57zM508.525 285.83c1.122 18.42 2.18 36.937 1.138 55.385 1.452-.478-.774 6.492-2.81 5.803-1.21-.41-1.824-1.789-2.737-2.683l1.43-1.369c.21.727.179 1.574.63 2.181.762 1.024 5.125-6.212 1.586-3.484 1.15-18.335.039-36.746-1.061-55.06l1.824-.774z" style="opacity:1;fill:#000;fill-opacity:1;stroke:#000;stroke-width:1.35;stroke-linecap:butt;stroke-linejoin:miter;stroke-miterlimit:4;stroke-dasharray:none;stroke-dashoffset:0;stroke-opacity:1" transform="matrix(.2828 0 0 .2828 -4 0)"/><path d="M495.78 286.567c7.268-6.602 15.35-5.19 24.199-3.209 3.564 1.402 8.099 3.377 7.353 8.184-.238 1.537-.89 3.048-1.817 4.297-2.471 3.332-5.076 3.63-8.763 4.985-1.995.1-3.99.372-5.986.299-5.375-.196-11.119-1.504-15.65-4.47l.97-1.732c4.123 2.904 9.713 4.034 14.674 4.243 1.838.078 3.676-.163 5.514-.245 1.523-.554 3.158-.867 4.57-1.663 2.205-1.245 5.956-4.708 4.66-7.826-1.018-2.452-3.871-3.19-5.939-4.152-8.191-1.855-15.878-3.361-22.575 2.866l-1.21-1.577z" style="opacity:1;fill:#000;fill-opacity:1;stroke:#000;stroke-width:1.35;stroke-linecap:butt;stroke-linejoin:miter;stroke-miterlimit:4;stroke-dasharray:none;stroke-dashoffset:0;stroke-opacity:1" transform="matrix(.2828 0 0 .2828 -4 0)"/><path d="M533.25 285.334c4.67.823 10.522.088 12.653-4.87.301-.699.283-1.496.424-2.244-.166-.355-.238-.77-.498-1.063-2.402-2.716-7.37-.756-9.867.68-1.163.669-2.166 1.583-3.249 2.374-2.907 2.736-7.74 7.844-5.663 12.383 1.307 2.855 2.762 2.89 5.514 4.233 1.676.242 3.334.697 5.027.727 7.227.124 14.722-2.982 20.012-7.844.901-.828 1.621-1.833 2.432-2.75 1.158-2.496 1.164-1.428.917-3.067l1.935-.458c-.443 3.54.088 1.824-1.685 5.116-.891.964-1.692 2.021-2.675 2.893-5.68 5.037-13.59 8.268-21.237 8.048-1.856-.053-3.67-.571-5.505-.857-2.84-1.456-5.443-1.992-6.59-5.362-.461-1.354-.385-2.868-.204-4.287.56-4.41 3.726-7.72 6.845-10.539 1.194-.835 2.305-1.805 3.582-2.506 2.887-1.583 10.08-3.8 12.193.34.454.889.274 1.977.411 2.965-.269.9-.37 1.869-.807 2.7-2.81 5.355-9.16 6.275-14.537 5.291l.573-1.902zM581.383 278.922c9.124.093 18.25-.08 27.374-.176 2.688-.024 2.915-.028 5.338-.043.444 0 .888 0 1.333-.01.212 0 .636-.213.636 0 .001.7-.423 1.334-.634 2.001l.052-1.995c.17.663.55 1.305.51 1.988-.013.21-.42 0-.63 0-2.219 0-4.439.016-6.659.03-9.233.078-18.47.285-27.702.162l.382-1.956zM583.5 287.522c10.818-.799 21.684-.794 32.528-.86 1.793.208 3.66-.397 5.346.324l-.948 1.758c1.278-1.089-7.282 1.461-4.459-.117-10.771.045-21.567.037-32.31.879l-.157-1.984zM852.707 264.521c7.265-.605 14.516-1.36 21.791-1.843 1.418-.077.826-.056 1.775-.082l-.03 1.997c-.9.018-.329 0-1.711.07-7.246.457-14.466 1.207-21.697 1.843l-.128-1.985zM890.01 239.256c-.834 9.9-.766 19.86.564 29.716-.623.74 1.792 6.497 1.472 7.602-.12.416-.175 1.018-.623 1.16-.492.157-.976-.331-1.464-.497l-.33-.819 1.752-.862.072.48c-1.62.207-.688-.201-1.324 1.04-.072.141.088-.308.064-.461-.07-.462-.239-.906-.343-1.363-.525-2.302-.641-3.113-1.103-5.623-1.38-9.96-1.442-20.02-.689-30.032l1.951-.341zM849.07 286.525c10.756-1.072 21.626-.82 32.427-.851 10.747.175 21.521-.22 32.164-1.79.218 0 .436.01.654.01l-.122 1.993c-.125-.01-.25-.016-.374-.023-10.724 1.51-21.564 1.939-32.385 1.752-10.698.035-21.47-.21-32.12.887l-.244-1.978zM782.999 281.714a684.582 684.582 0 0 0 28.093-1.71c2.94-.249 1.633-.25 3.916-.133l-.159 1.984c-2.063-.128-.829-.11-3.7.122a789.61 789.61 0 0 1-28.22 1.723l.07-1.986zM779.192 290.714c11.17-.525 22.321-1.36 33.492-1.883 2.327.064 4.636-.458 6.934-.02l-.404 1.952c-2.127-.539-4.371.305-6.526.03-11.197.51-22.371 1.352-33.565 1.906l.069-1.985zM655.505 249.768c4.51 6.56 8.407 13.554 12.06 20.625.026.061 2.03 3.616.879 4.223-2.703 1.423-6.72-4.77-7.526-6.154-.773-1.326-1.306-2.777-1.958-4.165-.133-1.47-.64-2.955-.398-4.41 1.385-8.311 11.123-10.91 18.126-12.16 1.748-.313 3.532-.367 5.298-.55l3.77.418-.25 1.958-3.427-.416c-5.627.577-11.387 1.32-16.394 4.237-1.837 1.07-4.74 3.446-5.26 5.874-.271 1.271.088 2.599.131 3.898 1.549 3.438 1.693 4.39 4.08 7.286.61.74 1.557 1.18 2.082 1.98.22.334-.063.805.003 1.2.018.108.274.333.237.23-.272-.765-.635-1.495-.953-2.242-3.583-7.007-7.447-13.917-11.898-20.41l1.397-1.422zM687.905 253.156c.901 5.956.357 12.03-.401 17.973l-1.957.342c.582-4.17 1.05-8.441.961-12.657-.025-1.202-.217-2.396-.28-3.596-.052-1.01-.043-2.02-.065-3.03l1.742.968zM683.524 237.153c.641.042 1.366.196 1.975-.161.339-.199.745-1.1.352-1.125-.206-.013-.232.358-.407.467-.147.091-.339.068-.508.102-.294.258-1.314.943-.792 1.426l-1.972.288c.583-2.255.695-3.003 3.084-3.68.525.145 1.198.042 1.576.434 2.625 2.727-1.666 5-3.971 4.128l.663-1.879zM711.07 252.492c-3.377-.523-7.31-1.242-10.099 1.204-.026.235-.165.485-.08.706.073.187.36.198.49.35.416.487.718 1.063 1.134 1.55 2.141 2.498 4.667 4.644 7.149 6.787 2.254 1.967 8.643 6.119 5.706 9.9-.457.588-1.281.76-1.922 1.14-4.836 1.453-9.888.408-13.643-3.07-.58-.536-.998-1.224-1.497-1.835l-.605-1.621 1.73-.982.247 1.168c.386.528.693 1.125 1.16 1.582 3.195 3.13 7.639 4.15 11.875 2.911.387-.203.763-.43 1.162-.61.147-.066.425.031.467-.124.605-2.225-4.569-5.66-5.8-6.834-2.043-1.754-7.94-6.573-8.909-9.01-.313-.787-.408-1.678-.32-2.52.05-.475.476-.828.714-1.242.432-.306.823-.679 1.295-.918 3.126-1.581 6.828-.989 10.129-.488l-.382 1.956z" style="opacity:1;fill:#000;fill-opacity:1;stroke:#000;stroke-width:1.35;stroke-linecap:butt;stroke-linejoin:miter;stroke-miterlimit:4;stroke-dasharray:none;stroke-dashoffset:0;stroke-opacity:1" transform="matrix(.2828 0 0 .2828 -4 0)"/><path d="M717.725 260.916c3.3-.181 8.031-.638 9.596-4.188.137-.31.021-.677.032-1.015-1.082.461-2.165-.024-3.375.323-2.736.783-4.226 2.802-5.862 4.949-.424.91-1.147 1.732-1.271 2.728-.249 1.996 2.14 4.15 3.415 4.923 4.647 2.817 10.183 2.638 15.366 2.564 3.933-.428 7.741-1.254 10.687-4.002l1.023 1.704c-3.471 2.888-7.286 3.82-11.76 4.26-1.823.015-3.65.185-5.468.048-4.573-.343-12.145-1.67-14.435-6.477-.62-1.302-.556-2.89-.324-4.313.179-1.095 1.009-1.977 1.513-2.965.686-.839 1.283-1.758 2.056-2.516 1.91-1.87 4.574-3.36 7.347-3.024.712.086 1.533.165 2.044.668.533.525.518 1.406.777 2.109-.17.525-.23 1.1-.511 1.576-2.253 3.815-7.157 4.504-11.144 4.616l.294-1.968zM650.383 284.922c9.06.317 18.092-.582 27.095-1.481 16.966-1.54 33.96-2.787 50.98-3.54 9.352-.057 18.727.081 28.057.787l.464.06-.283 1.976-.376-.054c-9.26-.763-18.576-.866-27.861-.826-16.992.746-33.957 1.99-50.894 3.544-9.155.92-18.35 1.86-27.564 1.49l.382-1.956zM661.505 302.768c.343.625.732 1.227 1.028 1.875.967 2.112 1.736 4.31 2.598 6.467 1.256 3.146 2.542 6.257 3.939 9.344.148.406 1.307 2.695.235 3.203-2.617 1.241-4.999-4.171-5.492-5.478-.504-1.332-.739-2.75-1.108-4.125-.024-1.49-.317-3-.07-4.47 1.215-7.27 6.763-10.69 13.501-12.131 1.329-.284 2.7-.296 4.051-.444 3.704.142 2.04-.074 5.012.496l-.377 1.95c-2.65-.542-1.146-.33-4.533-.477-1.252.134-2.524.14-3.755.402-5.06 1.077-10.916 4.016-12.007 9.662-.259 1.343-.05 2.735-.074 4.102.78 3.217.675 3.971 2.312 6.684.366.606 1.048 1.004 1.333 1.65.114.26-.223.53-.248.812-.023.267.24 1.026.107.795-.259-.453-.334-.988-.5-1.482-2.34-5.172-4.217-10.526-6.478-15.725-.253-.58-.581-1.126-.871-1.688l1.397-1.422zM686.007 307.44c.093.983.017 1.996.278 2.948 1.136 4.147 5.163 8.117 9.795 7.018 1.003-.238 1.84-.932 2.759-1.397.684-.849 1.5-1.606 2.052-2.546 1.636-2.78 2.794-8.134-.36-10.35l.021.556-.717-1.86 1.741-.391c.425.334.945.575 1.275 1.003 2.746 3.554 1.542 9.192-.766 12.615-.724 1.074-1.76 1.902-2.64 2.853-1.156.496-2.232 1.262-3.47 1.49-5.44 1-10.102-3.396-11.539-8.288-.308-1.049-.25-2.171-.376-3.257l1.947-.394zM710.347 306.087c.308 3.657.486 7.322.674 10.987.041.799.078 1.598.122 2.397.018.327.359.837.064.979-.567.272-1.256-.07-1.885-.106-.135-6.92 2.139-14.684 8.735-18.132 1.32-.69 2.847-.883 4.27-1.324 1.329.102 2.71-.08 3.985.306 3.96 1.197 6.017 4.756 6.454 8.642.363 3.228-.329 5.69-.887 8.863-1.162 4.588-.657 2.446-1.545 6.42l-1.71-.996c.911-3.969.409-1.847 1.521-6.361.974-4.88 2.183-12.495-4.04-14.605-1.072-.364-2.253-.227-3.38-.34-1.247.377-2.586.526-3.74 1.13-5.754 3.018-7.947 9.839-7.73 15.903-.644.416-1.172 1.154-1.933 1.246-.333.04-.045-.67-.063-1.004-.04-.8-.073-1.598-.112-2.397-.177-3.634-.357-7.268-.654-10.894l1.854-.714zM934.42 282.712c8.723.13 17.375-1.252 25.983-2.499 1.497-.14 2.98-.34 4.443.051l-.552 1.919c-1.056-.475-2.739.09-3.735 0-8.686 1.235-17.41 2.62-26.209 2.521l.07-1.99zM934.036 293.335c10.964-1.901 21.99-3.07 33.12-3.072 1.373.03 2.528-.101 3.68.606l-1.439 1.387c.168.062.676.14.503.186-.908.246-1.924-1.286-2.815-.206-11.026-.026-21.951 1.137-32.806 3.07l-.243-1.97zM998.383 285.922c7.932.9 16.011.466 23.952-.188.671-.38 5.136-.225 5.85-.987l.66 1.886c-2.033.8-4.34.678-6.451 1.07-8.09.645-16.313 1.096-24.393.175zM1063.184 244.784c-.012 7.81-.012 15.62-.01 23.43 0 2.178 0 4.103.01 6.257v1.72c0 .302.16.649 0 .907-.093.153-.183-.31-.274-.463l-.984 1.739c-.22-.242-.537-.423-.659-.727-.113-.28 0-.605 0-.908.01-2.66.01-5.321.01-7.982 0-7.808 0-15.616-.01-23.425l1.913-.548zM1043.613 285.712c11.499-.747 23.015-1.241 34.508-2.071 2.806-.08 5.547-.696 8.35-.706l-.072 1.99c-2.763-.02-5.467.64-8.234.672-11.533.815-23.086 1.323-34.621 2.104l.07-1.989z" style="opacity:1;fill:#000;fill-opacity:1;stroke:#000;stroke-width:1.35;stroke-linecap:butt;stroke-linejoin:miter;stroke-miterlimit:4;stroke-dasharray:none;stroke-dashoffset:0;stroke-opacity:1" transform="matrix(.2828 0 0 .2828 -4 0)"/><path d="M834.815 318.6c.676 9.337.653 18.708.688 28.064.102 4.316.263 8.633.638 12.935l-1.465.53c-.374-4.336-.53-8.69-.642-13.04-.03-9.311-.011-18.637-.674-27.929l1.455-.56z" style="opacity:1;fill:#f4f4f4;fill-opacity:1;stroke:#000;stroke-width:1.7;stroke-linecap:butt;stroke-linejoin:miter;stroke-miterlimit:10;stroke-dasharray:none;stroke-dashoffset:0;stroke-opacity:1" transform="matrix(.2828 0 0 .2828 8.399 -1.4)"/><path d="M813.71 318.618c.862-.536 1.66-1.186 2.583-1.606 8.392-3.821 18.685-5.251 27.752-3.435 2.121.425 4.13 1.288 6.195 1.933 1.537.92 3.236 1.617 4.612 2.764 3.334 2.778 4.677 7.05 1.387 10.529-2.106 2.227-5.582 2.774-8.299 3.55-4.26.447-8.643.153-12.639-1.521-.69-.29-1.278-.78-1.917-1.17l.727-1.372c.537.353 1.022.805 1.612 1.06 3.758 1.618 7.91 1.902 11.93 1.497 1.444-.412 2.948-.656 4.333-1.236 1.144-.48 4.295-2.22 4.74-3.898 1.177-4.43-3.965-7.099-6.906-8.742-1.986-.63-3.916-1.475-5.958-1.891-8.797-1.791-18.814-.4-26.945 3.345-.837.386-1.555.99-2.332 1.486l-.874-1.293z" style="opacity:1;fill:#f4f4f4;fill-opacity:1;stroke:#000;stroke-width:1.7;stroke-linecap:butt;stroke-linejoin:miter;stroke-miterlimit:10;stroke-dasharray:none;stroke-dashoffset:0;stroke-opacity:1" transform="matrix(.2828 0 0 .2828 8.399 -1.4)"/><path d="M1054.7 308.639c2.601 10.285 3.81 20.844 5.004 31.364.595 4.795 1.36 9.56 1.392 14.4l-1.495.426c.046-4.8-.734-9.522-1.32-14.277-1.178-10.457-2.363-20.955-4.953-31.18l1.371-.733z" style="opacity:1;fill:#f4f4f4;fill-opacity:1;stroke:#000;stroke-width:1.7;stroke-linecap:butt;stroke-linejoin:miter;stroke-miterlimit:10;stroke-dasharray:none;stroke-dashoffset:0;stroke-opacity:1" transform="matrix(.2828 0 0 .2828 -4 0)"/><path d="M1037.56 309.706c.672-.509 1.297-1.088 2.017-1.526 5.762-3.512 13.584-5.007 20.243-4.98 2.222.01 4.427.371 6.64.557 5.657 1.178 11.273 2.915 15.42 7.177 1.652 1.697 3.45 4.269 2.901 6.887-.285 1.363-1.32 2.453-1.979 3.68-1.262.81-2.433 1.782-3.787 2.428-4.398 2.1-9.981 3.238-14.857 2.761-1.131-.11-2.2-.568-3.3-.852l.372-1.497c.988.272 1.944.713 2.964.817 4.677.476 9.969-.636 14.192-2.63 1.194-.564 2.224-1.42 3.336-2.13.537-.68 1.367-1.208 1.61-2.038.703-2.392-.771-4.53-2.29-6.145-3.911-4.155-9.33-5.795-14.737-6.947-2.148-.183-4.288-.54-6.443-.55-6.403-.027-14.033 1.404-19.558 4.83-.67.415-1.248.965-1.872 1.448l-.872-1.29z" style="opacity:1;fill:#f4f4f4;fill-opacity:1;stroke:#000;stroke-width:1.7;stroke-linecap:butt;stroke-linejoin:miter;stroke-miterlimit:10;stroke-dasharray:none;stroke-dashoffset:0;stroke-opacity:1" transform="matrix(.2828 0 0 .2828 -4 0)"/></g></svg>