<svg xmlns="http://www.w3.org/2000/svg" width="340" height="154.789"><g style="display:inline"><g style="display:inline"><path d="M-1290.247-1031.638c-10.841-5.877-21.512-12.514-30.274-21.297-2.503-2.51-4.743-5.266-7.115-7.9-12.633-15.51-23.87-32.752-28.983-52.316-1.057-4.044-1.617-8.201-2.426-12.301-.154-4.162-.764-8.331-.462-12.484 1.357-18.68 10.553-36.493 23.79-49.565 3.74-3.693 8.092-6.71 12.137-10.066 4.865-2.748 9.56-5.824 14.595-8.245 20.405-9.811 44.102-14.932 66.764-13.67 5 .279 9.924 1.363 14.886 2.044 11.201 2.955 21.222 7.636 28.658 16.739 1.516 1.856 4.435 6.564 4.728 9.444.142 1.403-.34 2.8-.51 4.2-1.18.427-2.285 1.267-3.539 1.279-5.395.049-13.03-8.18-14.713-12.798-.644-1.766-.582-3.713-.873-5.57.816-2.46 1.15-5.136 2.447-7.38 4.8-8.3 16.92-14.463 24.96-18.605 13.135-6.766 16.081-7.51 30.41-13.226 30.152-11.681 62.15-18.154 94.547-17.838 6.55.064 13.083.685 19.625 1.027 24.689 3.253 51.614 8.467 70.15 26.631 2.036 1.995 3.606 4.414 5.409 6.621 2.561 4.433 7.136 15.584-.475 18.442a6.095 6.095 0 0 1-3.512.197c-1.183-.288-2.109-1.217-3.164-1.826-.756-1.228-1.743-2.34-2.268-3.684-3.36-8.607 1.986-17.416 8.045-23.19 2.217-2.114 4.74-3.881 7.11-5.821 21.59-14.743 47.178-21.054 72.433-26.189 26.807-5.116 54.22-6.887 81.222-2.125 5.368.947 10.638 2.381 15.957 3.572 20.265 6.64 44.762 14.599 54.643 35.59 1.26 2.677 1.708 5.665 2.562 8.497.179 2.374.54 4.742.537 7.123-.005 3.153-.605 6.966-2.422 9.671-1.227 1.827-3.677 2.17-5.34.505-.78-.781-.685-2.1-1.027-3.15.507-1.636.757-3.377 1.52-4.91 4.926-9.897 21.901-12.79 31.303-15.066 22.642-4.03 45.699-5.54 68.663-4.03 5.8.381 11.572 1.102 17.358 1.653 24.432 3.596 48.65 9.804 70.907 20.735 13.491 6.626 16.272 9.324 28.239 17.867 3.609 3.327 7.487 6.384 10.827 9.981 9.581 10.318 19.674 26.818 17.309 41.666-.551 3.458-2.212 6.644-3.318 9.966-1.958 2.3-3.61 4.903-5.874 6.902-8.11 7.159-20.41 10.722-31.025 11.456-1.653.115-3.312-.1-4.969-.15-.832-.25-2.043-.01-2.498-.748-4.551-7.42 10.097-5.712 12.993-4.986 1.867.468 3.598 1.366 5.398 2.05 1.746 1.198 3.635 2.21 5.238 3.595 10.29 8.887 12.874 22.46 14.652 35.201 1.014 17.318-3.137 34.697-12.236 49.543-1.83 2.986-4.066 5.702-6.1 8.552-14.565 16.338-34.509 25.843-55.513 31.102-5.27 1.32-10.66 2.108-15.99 3.161-18.96 2.13-38.306.771-56.498-5.2-6.092-2-9-3.639-14.42-6.329-1.984-1.474-8.221-5.84-1.237-7.789 3.29-.918 8.745 5.62 10.37 7.594.706 1.405 1.658 2.713 2.118 4.217 4.181 13.67-13.165 19.677-22.489 23.547-21.168 6.93-43.416 10.449-65.654 11.353-5.16.21-10.327.106-15.491.16-5.122-.373-10.278-.412-15.365-1.116-18.1-2.504-36.5-8.961-51.326-19.809-2.564-1.876-4.817-4.144-7.226-6.216-1.512-1.8-3.184-3.476-4.535-5.398-.964-1.372-1.86-2.838-2.376-4.433-1.248-3.852.988-8.487 5.541-7.613 1.1.21 2.01.987 3.015 1.48.722.962 1.649 1.798 2.166 2.883 1.892 3.97.607 8.39-2.242 11.538-2.113 2.334-7.402 4.493-9.89 5.697-19.63 8.47-40.666 12.523-61.732 15.397-20.664 2.582-41.847 3.85-62.392-.522-13.639-2.902-15.612-4.617-27.908-10.303-8.194-5.09-29.841-18.086-26.037-30.894.504-1.7 1.802-3.053 2.702-4.579 1.296-.323 2.556-1.081 3.886-.97 7.214.609 8.798 10.22 6.783 15.508-.67 1.759-2.145 3.093-3.217 4.64-1.884 1.316-3.627 2.861-5.652 3.95-4.634 2.492-12.57 4.859-17.39 6.16-12.796 3.458-25.846 5.413-38.923 7.437-22.842 2.616-45.928 3.96-68.93 3.607-14.918-.229-22.87-1.111-37.749-2.307-24.712-2.696-49.817-4.913-73.82-11.8-13.03-3.738-16.673-5.844-28.745-11.225-10.875-5.73-20.947-12.494-28.21-22.602-3.368-4.688-6.665-10.077-5.265-16.27.731-3.234 3.035-5.897 4.552-8.845l7.501-5.87M-440.947-1024.293l9.062-.473c8.16 1.35 11.568 1.206 19.002 5.332 8.656 4.803 15.583 13.329 17.001 23.37.548 3.874-.179 7.823-.269 11.734-1.264 3.632-1.945 7.524-3.793 10.897-8.263 15.085-26.075 22.572-42.717 21.784-4.205-.2-8.287-1.485-12.43-2.228-8.903-4.156-12.917-4.813-19.387-12.494-7.088-8.416-9.738-19.685-6.1-30.188 1.15-3.324 3.481-6.114 5.222-9.17 2.615-2.715 4.973-5.703 7.844-8.145 9.921-8.438 23.307-14.576 36.57-13.63 1.873.134 3.676.775 5.515 1.162M-336.608-987.898c1.495-.915 2.888-2.024 4.486-2.745 5.825-2.624 8.04-2.393 14.546-3.264 6.016.52 10.497.216 15.928 3.34 6.452 3.712 8.596 11.086 4.84 17.557-1.173 2.02-3.025 3.56-4.537 5.339-2.25 1.493-4.328 3.288-6.752 4.48-9.106 4.472-21.414 5.363-29.635-1.51-1.57-1.313-2.61-3.153-3.915-4.73-.516-1.74-1.449-3.406-1.549-5.217-.525-9.516 7.265-15.245 15.474-17.56" style="opacity:1;fill:#f4f4f4;fill-opacity:1;stroke:#000;stroke-width:3.4;stroke-linecap:butt;stroke-linejoin:miter;stroke-miterlimit:4;stroke-dasharray:none;stroke-dashoffset:0;stroke-opacity:1" transform="matrix(.2828 0 0 .2828 388.118 405.424)"/></g><path d="M39.828 94.088c.046-.134.113-.262.137-.402.125-.734-.786-1.181-1.36-1.249-.276-.032-.555.015-.833.022-.67.172-2.371.598-2.092 1.656.04.151.83.741.849.756 1.103.657 2.318 1.082 3.45 1.684.54.286 1.434.771 1.852 1.281.174.213.247.49.371.736-.038.323.026.675-.115.968-.287.595-1.19 1.002-1.745 1.17-.92.276-1.802.314-2.748.149-.473-.083-.92-.268-1.38-.402-.576-.308-1.99-.795-2.146-1.609-.041-.213.058-.43.087-.645l.466.315c-.183-.03-.37-.093.052.366.46.501 1.098.74 1.685 1.037.428.128.844.304 1.283.384 1.286.233 3.094.105 3.955-1.037.08-.106.1-.247.15-.371-.078-.2-.102-.43-.233-.601-.376-.493-1.256-.966-1.748-1.229-1.163-.62-2.414-1.05-3.545-1.73-.25-.208-.567-.356-.751-.625-1.1-1.602 1.1-2.611 2.317-2.812.324 0 .65-.05.97 0 .72.107 1.59.573 1.734 1.372.079.44-.078.775-.215 1.16l-.447-.342zM43.324 80.697c-.078 2.86.256 5.707.6 8.541.427 3.499.513 7.029.948 10.526.244 1.26.124.322.013.327-.134.006-.256.08-.385.12l.557-.091c-.579.626-.537.665-.704-.15-.434-3.499-.52-7.029-.941-10.53-.35-2.849-.696-5.711-.63-8.588l.542-.155zM51.664 93.78c-1.16-.607-2.38-.113-3.186.853-.21.252-.358.55-.536.826-.074.315-.204.62-.222.943-.08 1.467 1.328 2.541 2.59 2.904.419.12.864.113 1.296.17.856-.186 1.53-.183 2.164-.89.9-1.004.872-2.667.587-3.88-.106-.449-.33-.861-.495-1.292-.254-.306-.46-.66-.762-.917-.742-.631-1.953-.755-2.678-.047-.09.087-.146.204-.219.306l-.353-.438c.111-.126.203-.27.332-.376.954-.776 2.372-.644 3.292.143.338.29.57.685.854 1.027.182.464.427.909.545 1.393.37 1.504.284 3.418-.88 4.592-.756.762-1.486.74-2.467.928-.475-.067-.964-.067-1.423-.203-1.758-.521-3.052-1.791-2.856-3.716.037-.365.21-.704.315-1.056.208-.298.381-.623.623-.893.959-1.067 2.382-1.566 3.702-.895l-.223.517zM56.746 93.122c.092.304.199.604.275.912.302 1.21.484 2.347.676 3.588a153.5 153.5 0 0 1 .935 7.384c.089 1.106.259 2.752.226 3.91-.01.383.01.786-.129 1.143-.365.936-.937.755-1.51-.005-.374-.496-.533-1.122-.8-1.684-.221-.834-.517-1.651-.664-2.502-.65-3.747-.162-7.818 2.215-10.908.458-.595 1.068-1.056 1.601-1.584.563-.212 1.09-.576 1.687-.635 1.565-.154 2.887 1.183 2.983 2.682.093 1.466-.337 1.704-1.103 2.793-.393.306-.753.659-1.179.917-.863.524-2.11.953-3.12.562-.178-.07-.307-.23-.462-.344l.316-.465c.084.086.14.21.25.258 1.338.588 2.882-.54 3.823-1.34.49-.71 1.006-1.187.988-2.112-.025-1.24-.992-2.528-2.36-2.415-.536.045-1.01.37-1.516.555-.506.504-1.086.944-1.518 1.512-2.24 2.941-2.713 6.706-2.121 10.27.137.826.42 1.622.63 2.434.228.52.44 1.046.685 1.558.098.205.173.439.344.59.071.062.248.051.282-.037.131-.339.135-.716.15-1.08.045-1.13-.127-2.806-.21-3.878a150.32 150.32 0 0 0-.927-7.359c-.185-1.197-.372-2.36-.659-3.534-.073-.299-.175-.59-.262-.884l.474-.302zM66.326 96.436c1.335.387 2.906-.101 3.915-1.046.197-.184.333-.425.499-.638.044-.191.159-.38.132-.574-.008-.06-.53-.221-.719-.227-1.14-.037-1.82.439-2.735 1.034-.73.736-1.623 1.53-1.615 2.669.002.235.085.47.194.68.475.912.693.853 1.6 1.381 1.642.42 3.186.22 4.73-.453.429-.187.818-.454 1.226-.68l.199.518c-.434.234-.848.51-1.302.702-1.676.705-3.336.893-5.101.411-.845-.505-1.476-.672-1.86-1.647-.66-1.674.568-3.055 1.703-4.09.844-.526 1.136-.821 2.114-1.013.838-.164 2.03-.13 2.034 1.024 0 .249-.168.469-.252.703-.2.234-.37.498-.602.702-.993.875-2.498 1.402-3.82 1.215-.219-.03-.423-.127-.634-.19l.294-.481zM83.038 94.251c3.023.007 6.045.007 9.067.004-.03.094 1.682-.035 1.678-.004-.028.197-.132.376-.198.564l.02-.564c.053.188.145.37.158.564.004.057-1.71-.129-1.677-.004-3.022-.003-6.045-.003-9.067.003l.02-.562zM83.822 97.13c.007-.312-.582.344-.624.136-.145-.724 1.484-.504 1.6-.51.532-.031 1.063-.079 1.595-.118 1.789-.139 3.58-.252 5.372-.345.764-.04 1.549-.129 2.312-.04l.21.105-.27.496L94 96.81c-.725-.098-1.507 0-2.231.036-1.79.09-3.578.204-5.364.345-.426.032-2.144.183-2.724.159-.233-.01-.535.06-.69-.114-.12-.135.019-.379.12-.528.123-.181.537.06.64-.139l.07.56zM105.632 84.652c.498.857.993 1.716 1.416 2.614.326.693.61 1.206.597 1.968-.207.051-.432.25-.623.153-.216-.11-.252-.416-.34-.642-.412-1.062-.354-2.222.293-3.2.247-.373.636-.627.954-.941 1.092-.58 1.393-.842 2.616-1.087.393-.079.8-.065 1.2-.098l.015.557c-.367.029-.741.013-1.103.085-1.137.228-1.412.469-2.418 1.005-.55.55-1.018.845-1.228 1.613-.2.735-.067 1.06.13 1.742.046.16.169.309.16.476-.01.161-.14.291-.21.437.024-.074.083-.145.073-.222-.054-.413-.412-1.19-.56-1.509-.408-.876-.895-1.707-1.367-2.55l.395-.401zM112.574 80.135c.58-.348.866-.44 1.28-.962.067-.084.032-.36.12-.298.382.27.131.538-.002.76l-.34-.448c.205-.193.624-.837.761.063.066.428-1.38 1.292-1.65 1.42l-.169-.535zM113.743 83.242c.007 1.613-.063 3.226.117 4.832l.06.32-.511.237-.072-.354c-.191-1.621-.13-3.25-.135-4.88l.54-.155zM120.344 83.886c-.995-.287-2.023-.37-3.047-.187-.273.048-.552.102-.8.226-.519.26-.33.3-.114.44.99 1.309 2.733 2.216 3.355 3.787.092.233.091.492.137.738-.174.27-.262.62-.523.807-.535.382-1.661.302-2.22.24-1.03-.116-1.938-.433-2.85-.897l.226-.513c1.452.765 3.277 1.268 4.849.577-.017-.199.014-.407-.05-.596-.517-1.513-2.55-2.598-3.443-3.925.014-.27-.068-.564.042-.812.186-.421 1.067-.58 1.37-.63 1.098-.183 2.2-.091 3.266.218zM120.87 86.675c1.08.046 4.082-.19 4.348-1.561.021-.11-.1-.199-.149-.298-.126-.101-.224-.254-.377-.305-1.2-.397-2.707 1.141-3.252 2.02-.205.329-.31.71-.466 1.066.028.246-.036.521.084.738.362.654 1.292.79 1.908.868 1.656.207 3.197-.115 4.793-.5l1.118-.41.135.54-1.169.418c-1.655.39-3.293.742-5.008.491-.759-.11-1.965-.345-2.31-1.24-.152-.392.014-.84.02-1.261.185-.383.319-.795.553-1.15.71-1.077 2.48-2.7 3.92-2.036.24.11.38.366.57.55.006.304.104.622.016.915-.446 1.492-3.588 1.77-4.843 1.708l.108-.553zM103.462 94.087c3.792.301 7.609.201 11.41.199 1.204-.02 2.41-.029 3.613-.06 3.069-.08 4.333-.151 7.363-.33 2.373-.14 4.739-.327 7.115-.398 1.26.013.715-.015 1.635.051l-.053.56c-.886-.07-.356-.04-1.59-.058-2.371.065-4.733.247-7.102.385-3.05.177-4.29.248-7.38.33-1.206.032-2.413.041-3.62.062-3.842.008-7.702.123-11.534-.197l.143-.544zM105.93 101.975c.654.835 1.28 1.735 1.626 2.748.082.241.18.5.137.751-.039.226-.142.528-.364.584-.258.064-.489-.206-.733-.31-.174-.268-.398-.51-.52-.806-.775-1.884.406-3.44 1.954-4.413.424-.266.905-.428 1.358-.643.927-.223 1.409-.407 2.335-.404.242 0 .48.064.72.096l-.082.555c-.206-.03-.41-.091-.62-.092-.865-.006-1.312.165-2.179.373-.42.2-.867.35-1.26.6-1.255.795-2.328 2.003-1.802 3.562.083.248.253.459.38.687.132.282.27.62.296.43.143-1.06-1.077-2.551-1.672-3.35l.427-.368zM113.977 100.924c-.32.68-.53 1.005-.613 1.814-.109 1.075.302 2.374 1.325 2.906.323.168.715.141 1.073.212.364-.103.762-.124 1.093-.31 1.127-.629 1.656-1.875 1.806-3.09.06-.488-.033-.863-.11-1.334l-.053-.32.519-.221.046.314c.042.229.118.454.127.687.072 1.735-.573 3.689-2.243 4.514-.4.197-.867.203-1.3.305-.43-.104-.902-.098-1.29-.31-1.732-.946-1.764-3.205-1.142-4.81.113-.291.298-.55.447-.825zM121.661 101.059l.1.968c.129 1.23.256 2.459.376 3.69.066.669.172.843.03.582-.719-.508-.551-.196-.34-1.463.223-1.33.575-2.738 1.684-3.627.33-.264.738-.408 1.107-.612.814-.109 1.563-.376 2.325.166 1.498 1.066 1.374 3.642 1.352 5.24l-.036.992-.541.137.04-.985c.033-1.28.156-3.94-.968-4.847-.615-.497-1.296-.264-1.971-.184-.324.18-.684.305-.972.538-.915.74-1.283 1.959-1.473 3.07-.063.368-.006.757-.111 1.115-.094.32-.317.587-.475.88-.036-.051-.095-.092-.109-.154-.122-.566-.108-1.153-.165-1.73a162.532 162.532 0 0 0-.394-3.62l.541-.156zM142.788 94.482c3.655-.145 7.313-.213 10.97-.246.748.017.654-.218.447.57l.004-.565c.155.774.262.536-.467.553-3.65.019-7.302.089-10.95.246l-.004-.558zM143.868 97.025c2.959-.287 5.927-.426 8.897-.518l.886-.02-.01.56-.882.016c-2.956.086-5.911.225-8.854.524l-.037-.562zM163.246 95.382c4.172-.08 8.343-.21 12.516-.268 1.93-.016 2.145.003 3.947-.082.691-.032 1.387-.128 2.079-.057l-.07.56c-.657-.083-1.364.022-2.012.05-1.82.08-2.013.062-3.958.077-4.175.056-8.348.184-12.522.284l.02-.564zM172.566 100.66c.17 2.485.297 4.971.237 7.46-.111 1.153-.037 2.332-.267 3.474l-.49-.248-.01.082c.015-.104.03-.209.041-.314.095-.954.139-1.91.19-2.867.07-2.485-.053-4.97-.241-7.45l.54-.136zM189.94 94.251c2.548-.183 5.103-.247 7.658-.29.414.002.828-.017 1.243-.007l-.034.564c-.407-.017-.814.006-1.221 0-2.558.038-5.115.105-7.667.295l.02-.562zM192.42 96.847c-.703.097-1.37.332-2.06.487-.083.026-1.19.405.072-.512.154-.112.382.003.573.003l1.05-.003 3.177-.01c1.756-.008 3.511-.009 5.267-.018l-.02.564c-1.754-.007-3.51.003-5.265.006-2.305.01-1.054.004-3.177.016l-1.054.005c-.201 0-.439.113-.604-.003-.703-.486-.325-.545-.099-.607.693-.156 1.365-.39 2.07-.489l.07.56z" style="fill:#000;fill-opacity:1;stroke:#000;stroke-width:.381789;stroke-linecap:butt;stroke-linejoin:miter;stroke-miterlimit:4;stroke-dasharray:none;stroke-dashoffset:0;stroke-opacity:1"/><path d="M596.43 305.496c.57 10.336.72 20.68 1.458 31.01-.22 4.298 1.284 8.511 1.249 12.785l-2.137.337c.472-1.017.164-.227-.141-2.725-.853-6.961-.334-1.57-.98-9.721-.75-10.29-.949-20.596-1.46-30.898l2.01-.788z" style="opacity:1;fill:#000;fill-opacity:1;stroke:#000;stroke-width:1.3;stroke-linecap:butt;stroke-linejoin:miter;stroke-miterlimit:10;stroke-dasharray:none;stroke-dashoffset:0;stroke-opacity:1" transform="matrix(.2828 0 0 .2828 .566 0)"/><path d="M583.873 298.958c.81-.514 1.553-1.157 2.432-1.544 5.015-2.21 12.207-3.332 17.622-2.363 1.493.268 2.916.839 4.374 1.258 1.474.88 3.066 1.59 4.423 2.643 3.667 2.847 7.699 7.832 6.711 12.924-.998 5.143-3.29 5.857-7.045 8.843-4.908 2.566-10.02 4.293-15.606 4.11-1.034-.034-2.046-.302-3.07-.453l.36-2.117c.914.144 1.817.397 2.74.433 5.217.199 9.998-1.449 14.573-3.85 1.785-1.43 5.348-3.588 6.025-6.285 1.161-4.621-2.379-9.069-5.679-11.716-1.226-.983-2.674-1.65-4.01-2.475-1.338-.395-2.64-.936-4.012-1.186-5.075-.927-11.853.116-16.551 2.206-.741.33-1.358.888-2.037 1.331l-1.25-1.759z" style="opacity:1;fill:#000;fill-opacity:1;stroke:#000;stroke-width:1.3;stroke-linecap:butt;stroke-linejoin:miter;stroke-miterlimit:10;stroke-dasharray:none;stroke-dashoffset:0;stroke-opacity:1" transform="matrix(.2828 0 0 .2828 .566 0)"/><path d="M752.538 328.238c.185 1.597.434 3.188.555 4.79.328 4.339.396 10.187.428 14.457.058 7.812-.045 15.626-.121 23.438-.052 3.963-.079 7.927-.147 11.89l-2.092.546c.175-3.953.078-7.915.2-11.87.085-7.798.19-15.599.137-23.398-.027-3.952-.096-10.223-.392-14.288-.115-1.575-.358-3.137-.538-4.705l1.97-.86z" style="opacity:1;fill:#000;fill-opacity:1;stroke:#000;stroke-width:1.3;stroke-linecap:butt;stroke-linejoin:miter;stroke-miterlimit:10;stroke-dasharray:none;stroke-dashoffset:0;stroke-opacity:1" transform="scale(.2828) rotate(2.036 760.94 351.57)"/><path d="M743.43 320.872c1.892-.335 3.783-.881 5.674-1.003 9.422-.605 19.795 1.881 26.17 8.795 1.185 1.285 1.889 3.003 2.833 4.504.118 1.56.736 3.107.353 4.68-2.065 8.494-12.258 12.32-19.164 12.866-1.596.127-3.148-.197-4.722-.295-1.749-.904-3.702-1.37-4.478-3.5-.264-.726-.061-1.608-.092-2.411l2.244-.728c-.16.432-.545.863-.48 1.297.247 1.682 2.115 2.286 3.206 2.942 1.426.106 2.83.426 4.28.32 5.415-.396 10.656-2.6 14.89-6.722.835-.813 1.78-1.68 2.153-2.788.426-1.268.062-2.6.093-3.9-.803-1.389-1.366-2.984-2.41-4.165-5.96-6.734-15.91-9.042-24.863-8.514-1.711.101-3.424.592-5.136.888l-.55-2.266z" style="opacity:1;fill:#000;fill-opacity:1;stroke:#000;stroke-width:1.3;stroke-linecap:butt;stroke-linejoin:miter;stroke-miterlimit:10;stroke-dasharray:none;stroke-dashoffset:0;stroke-opacity:1" transform="scale(.2828) rotate(2.036 760.94 351.57)"/></g></svg>