<svg xmlns="http://www.w3.org/2000/svg" xmlns:xlink="http://www.w3.org/1999/xlink" width="800" height="431.233"><defs><symbol id="T" overflow="visible" style="overflow:visible"><path d="M.156-3.984c.125-.032.188-.047.297-.047.578 0 .719.25 1.188 1.968.156.641.406 1.813.406 1.985 0 .156-.063.312-.219.5-.297.406-.5.672-.61.781C1 1.422.892 1.5.75 1.5c-.047 0-.125-.031-.234-.11-.141-.109-.25-.171-.36-.171a.387.387 0 0 0-.39.39c0 .25.218.438.5.438.64 0 1.953-1.485 3.03-3.469.673-1.219.954-1.937.954-2.422a.554.554 0 0 0-.547-.547c-.234 0-.39.141-.39.36 0 .156.078.265.28.39.188.11.25.204.25.344 0 .39-.359 1.172-1.218 2.578l-.188-1.156c-.156-.875-.718-2.516-.859-2.516h-.125l-.984.172a1.759 1.759 0 0 1-.313.063zm0 0"/></symbol><symbol id="U" overflow="visible" style="overflow:visible"><path d="M4-1.11c-.078.094-.125.157-.219.266-.219.313-.344.406-.453.406-.14 0-.234-.124-.312-.406-.016-.078-.032-.14-.032-.172-.25-1.015-.359-1.468-.359-1.609.438-.781.797-1.219.969-1.219.062 0 .14.031.25.078.11.079.187.094.265.094.204 0 .344-.14.344-.36 0-.202-.172-.359-.406-.359-.438 0-.813.36-1.5 1.422l-.11-.547c-.14-.687-.25-.875-.53-.875-.22 0-.548.079-1.157.282l-.11.046.032.141c.39-.078.469-.11.562-.11.25 0 .313.095.454.688l.28 1.235-.812 1.156C.953-.641.75-.47.641-.47a.554.554 0 0 1-.25-.094.755.755 0 0 0-.329-.093c-.187 0-.328.14-.328.344 0 .265.204.421.5.421.297 0 .422-.093.922-.703.266-.312.485-.578.89-1.156L2.36-.562c.125.515.25.671.579.671.374 0 .624-.234 1.203-1.14zm0 0"/></symbol><symbol id="V" overflow="visible" style="overflow:visible"><path d="M4-1.11c-.078.094-.125.157-.219.266-.219.313-.344.406-.453.406-.14 0-.234-.124-.312-.406-.016-.078-.032-.14-.032-.172-.25-1.015-.359-1.468-.359-1.609.438-.781.797-1.219.969-1.219.062 0 .14.031.25.078.11.079.187.094.265.094.204 0 .344-.14.344-.36 0-.202-.172-.359-.406-.359-.438 0-.813.36-1.5 1.422l-.11-.547c-.14-.687-.25-.875-.53-.875-.22 0-.548.079-1.157.282l-.11.046.032.141c.39-.078.469-.11.562-.11.25 0 .313.095.454.688l.28 1.235-.812 1.156C.953-.641.75-.47.641-.47a.554.554 0 0 1-.25-.094.755.755 0 0 0-.329-.093c-.187 0-.328.14-.328.344 0 .265.204.421.5.421.297 0 .422-.093.922-.703.266-.312.485-.578.89-1.156L2.36-.562c.125.515.25.671.579.671.374 0 .624-.234 1.203-1.14zm0 0"/></symbol><symbol id="W" overflow="visible" style="overflow:visible"><path d="M1.875-4.984c-.406 0-.719.125-.984.375-.438.421-.72 1.265-.72 2.125 0 .812.25 1.671.595 2.093.28.313.656.5 1.078.5.375 0 .687-.125.953-.39.437-.406.719-1.266.719-2.156 0-1.516-.672-2.547-1.641-2.547zm-.031.187c.625 0 .953.844.953 2.375 0 1.547-.313 2.328-.953 2.328-.64 0-.953-.781-.953-2.312 0-1.563.328-2.39.953-2.39zm0 0"/></symbol><symbol id="X" overflow="visible" style="overflow:visible"><path d="M.156-3.984c.125-.032.188-.047.297-.047.578 0 .719.25 1.188 1.968.156.641.406 1.813.406 1.985 0 .156-.063.312-.219.5-.297.406-.5.672-.61.781C1 1.422.892 1.5.75 1.5c-.047 0-.125-.031-.234-.11-.141-.109-.25-.171-.36-.171a.387.387 0 0 0-.39.39c0 .25.218.438.5.438.64 0 1.953-1.485 3.03-3.469.673-1.219.954-1.937.954-2.422a.554.554 0 0 0-.547-.547c-.234 0-.39.141-.39.36 0 .156.078.265.28.39.188.11.25.204.25.344 0 .39-.359 1.172-1.218 2.578l-.188-1.156c-.156-.875-.718-2.516-.859-2.516h-.125l-.984.172a1.759 1.759 0 0 1-.313.063zm0 0"/></symbol><symbol id="Y" overflow="visible" style="overflow:visible"><path d="M1.875-4.984c-.406 0-.719.125-.984.375-.438.421-.72 1.265-.72 2.125 0 .812.25 1.671.595 2.093.28.313.656.5 1.078.5.375 0 .687-.125.953-.39.437-.406.719-1.266.719-2.156 0-1.516-.672-2.547-1.641-2.547zm-.031.187c.625 0 .953.844.953 2.375 0 1.547-.313 2.328-.953 2.328-.64 0-.953-.781-.953-2.312 0-1.563.328-2.39.953-2.39zm0 0"/></symbol><symbol id="Z" overflow="visible" style="overflow:visible"><path d="M4-1.11c-.078.094-.125.157-.219.266-.219.313-.344.406-.453.406-.14 0-.234-.124-.312-.406-.016-.078-.032-.14-.032-.172-.25-1.015-.359-1.468-.359-1.609.438-.781.797-1.219.969-1.219.062 0 .14.031.25.078.11.079.187.094.265.094.204 0 .344-.14.344-.36 0-.202-.172-.359-.406-.359-.438 0-.813.36-1.5 1.422l-.11-.547c-.14-.687-.25-.875-.53-.875-.22 0-.548.079-1.157.282l-.11.046.032.141c.39-.078.469-.11.562-.11.25 0 .313.095.454.688l.28 1.235-.812 1.156C.953-.641.75-.47.641-.47a.554.554 0 0 1-.25-.094.755.755 0 0 0-.329-.093c-.187 0-.328.14-.328.344 0 .265.204.421.5.421.297 0 .422-.093.922-.703.266-.312.485-.578.89-1.156L2.36-.562c.125.515.25.671.579.671.374 0 .624-.234 1.203-1.14zm0 0"/></symbol><symbol id="ac" overflow="visible" style="overflow:visible"><path d="M.156-3.984c.125-.032.188-.047.297-.047.578 0 .719.25 1.188 1.968.156.641.406 1.813.406 1.985 0 .156-.063.312-.219.5-.297.406-.5.672-.61.781C1 1.422.892 1.5.75 1.5c-.047 0-.125-.031-.234-.11-.141-.109-.25-.171-.36-.171a.387.387 0 0 0-.39.39c0 .25.218.438.5.438.64 0 1.953-1.485 3.03-3.469.673-1.219.954-1.937.954-2.422a.554.554 0 0 0-.547-.547c-.234 0-.39.141-.39.36 0 .156.078.265.28.39.188.11.25.204.25.344 0 .39-.359 1.172-1.218 2.578l-.188-1.156c-.156-.875-.718-2.516-.859-2.516h-.125l-.984.172a1.759 1.759 0 0 1-.313.063zm0 0"/></symbol><symbol id="aa" overflow="visible" style="overflow:visible"><path d="M6.563-2.297c.171 0 .359 0 .359-.203 0-.188-.188-.188-.36-.188h-5.39c-.172 0-.344 0-.344.188 0 .203.172.203.344.203zm0 0"/></symbol><symbol id="ab" overflow="visible" style="overflow:visible"><path d="M1.875-4.984c-.406 0-.719.125-.984.375-.438.421-.72 1.265-.72 2.125 0 .812.25 1.671.595 2.093.28.313.656.5 1.078.5.375 0 .687-.125.953-.39.437-.406.719-1.266.719-2.156 0-1.516-.672-2.547-1.641-2.547zm-.031.187c.625 0 .953.844.953 2.375 0 1.547-.313 2.328-.953 2.328-.64 0-.953-.781-.953-2.312 0-1.563.328-2.39.953-2.39zm0 0"/></symbol><symbol id="K" overflow="visible" style="overflow:visible"><path d="M.563-4.031h.249c.141-.063.391.125.391.265 0 .094-.36 1.516-.703 2.829C.234.063-.016 1-.078 1.296c-.11.453-.234.578-.672.594v.156h2.047V1.89c-.469 0-.64-.094-.64-.297 0-.14.171-.922.374-1.657.25.126.422.172.657.172 1.453 0 2.984-1.671 2.984-3.265 0-.766-.438-1.235-1.14-1.235-.657 0-1.126.313-1.704 1.125l.281-1 .032-.093-.016-.032h-.016c0-.015-.015-.015-.015-.015l-.016.015-1.547.22zm2.593.062c.438.016.625.281.625.86 0 .656-.297 1.515-.719 2.125-.421.593-.906.906-1.421.906-.282 0-.47-.156-.47-.375 0-.328.36-1.64.641-2.375.266-.688.844-1.172 1.344-1.14Zm0 0"/></symbol><symbol id="M" overflow="visible" style="overflow:visible"><path d="M4-1.11c-.078.094-.125.157-.219.266-.219.313-.344.406-.453.406-.14 0-.234-.124-.312-.406-.016-.078-.032-.14-.032-.172-.25-1.015-.359-1.468-.359-1.609.438-.781.797-1.219.969-1.219.062 0 .14.031.25.078.11.079.187.094.265.094.204 0 .344-.14.344-.36 0-.202-.172-.359-.406-.359-.438 0-.813.36-1.5 1.422l-.11-.547c-.14-.687-.25-.875-.53-.875-.22 0-.548.079-1.157.282l-.11.046.032.141c.39-.078.469-.11.562-.11.25 0 .313.095.454.688l.28 1.235-.812 1.156C.953-.641.75-.47.641-.47a.554.554 0 0 1-.25-.094.755.755 0 0 0-.329-.093c-.187 0-.328.14-.328.344 0 .265.204.421.5.421.297 0 .422-.093.922-.703.266-.312.485-.578.89-1.156L2.36-.562c.125.515.25.671.579.671.374 0 .624-.234 1.203-1.14zm0 0"/></symbol><symbol id="R" overflow="visible" style="overflow:visible"><path d="M.156-3.984c.125-.032.188-.047.297-.047.578 0 .719.25 1.188 1.968.156.641.406 1.813.406 1.985 0 .156-.063.312-.219.5-.297.406-.5.672-.61.781C1 1.422.892 1.5.75 1.5c-.047 0-.125-.031-.234-.11-.141-.109-.25-.171-.36-.171a.387.387 0 0 0-.39.39c0 .25.218.438.5.438.64 0 1.953-1.485 3.03-3.469.673-1.219.954-1.937.954-2.422a.554.554 0 0 0-.547-.547c-.234 0-.39.141-.39.36 0 .156.078.265.28.39.188.11.25.204.25.344 0 .39-.359 1.172-1.218 2.578l-.188-1.156c-.156-.875-.718-2.516-.859-2.516h-.125l-.984.172a1.759 1.759 0 0 1-.313.063zm0 0"/></symbol><symbol id="L" overflow="visible" style="overflow:visible"><path d="M3.297 2.39c0-.03 0-.046-.172-.218C1.891.922 1.562-.968 1.562-2.5c0-1.734.375-3.469 1.61-4.703.125-.125.125-.14.125-.172 0-.078-.031-.11-.094-.11-.11 0-1 .688-1.594 1.954C1.11-4.438.984-3.328.984-2.5c0 .781.11 1.984.657 3.125C2.25 1.844 3.094 2.5 3.203 2.5c.063 0 .094-.031.094-.11zm0 0"/></symbol><symbol id="P" overflow="visible" style="overflow:visible"><path d="M2.875-2.5c0-.766-.11-1.969-.656-3.11C1.625-6.827.766-7.483.672-7.483a.107.107 0 0 0-.11.109c0 .031 0 .047.188.234.984.985 1.547 2.563 1.547 4.641 0 1.719-.36 3.469-1.594 4.719-.14.125-.14.14-.14.172 0 .062.046.109.109.109.094 0 1-.688 1.578-1.953.516-1.094.625-2.203.625-3.047Zm0 0"/></symbol><symbol id="Q" overflow="visible" style="overflow:visible"><path d="M6.844-3.266c.156 0 .343 0 .343-.187 0-.203-.187-.203-.328-.203H.891c-.141 0-.329 0-.329.203 0 .187.188.187.329.187zm.015 1.938c.141 0 .329 0 .329-.203 0-.188-.188-.188-.344-.188H.89c-.141 0-.329 0-.329.188 0 .203.188.203.329.203zm0 0"/></symbol><symbol id="N" overflow="visible" style="overflow:visible"><path d="M6.563-2.297c.171 0 .359 0 .359-.203 0-.188-.188-.188-.36-.188h-5.39c-.172 0-.344 0-.344.188 0 .203.172.203.344.203zm0 0"/></symbol><symbol id="O" overflow="visible" style="overflow:visible"><path d="M1.875-4.984c-.406 0-.719.125-.984.375-.438.421-.72 1.265-.72 2.125 0 .812.25 1.671.595 2.093.28.313.656.5 1.078.5.375 0 .687-.125.953-.39.437-.406.719-1.266.719-2.156 0-1.516-.672-2.547-1.641-2.547zm-.031.187c.625 0 .953.844.953 2.375 0 1.547-.313 2.328-.953 2.328-.64 0-.953-.781-.953-2.312 0-1.563.328-2.39.953-2.39zm0 0"/></symbol></defs><g style="display:inline"><g clip-path="url(#a)" style="clip-rule:nonzero" transform="translate(-2914.594 3713.22)"><path d="M-88.897 68.034c0 1-.813 1.813-1.813 1.813a1.811 1.811 0 0 1-1.812-1.813 1.812 1.812 0 1 1 3.625 0zm0 0" style="fill:none;stroke:red;stroke-width:.79701;stroke-linecap:butt;stroke-linejoin:miter;stroke-miterlimit:10;stroke-opacity:1" transform="matrix(1 0 0 -1 305.624 333.831)"/></g><g clip-path="url(#b)" style="clip-rule:nonzero" transform="translate(-2914.594 3713.22)"><path d="M92.524-68.032a1.814 1.814 0 1 1-3.627-.003 1.814 1.814 0 0 1 3.627.003zm0 0" style="fill:none;stroke:red;stroke-width:.79701;stroke-linecap:butt;stroke-linejoin:miter;stroke-miterlimit:10;stroke-opacity:1" transform="matrix(1 0 0 -1 305.624 333.831)"/></g><g clip-path="url(#c)" style="clip-rule:nonzero" transform="translate(-2914.594 3713.22)"><path d="M92.524 68.034a1.814 1.814 0 1 1-3.627-.002 1.814 1.814 0 0 1 3.627.002zm0 0" style="fill:none;stroke:red;stroke-width:.79701;stroke-linecap:butt;stroke-linejoin:miter;stroke-miterlimit:10;stroke-opacity:1" transform="matrix(1 0 0 -1 305.624 333.831)"/></g><g clip-path="url(#a)" style="clip-rule:nonzero" transform="translate(-2703.397 3713.22)"><path d="M-88.897 68.034c0 1-.813 1.813-1.813 1.813a1.811 1.811 0 0 1-1.812-1.813 1.812 1.812 0 1 1 3.625 0zm0 0" style="fill:none;stroke:red;stroke-width:.79701;stroke-linecap:butt;stroke-linejoin:miter;stroke-miterlimit:10;stroke-opacity:1" transform="matrix(1 0 0 -1 305.624 333.831)"/></g><g clip-path="url(#b)" style="clip-rule:nonzero" transform="translate(-2703.397 3713.22)"><path d="M92.524-68.032a1.814 1.814 0 1 1-3.627-.003 1.814 1.814 0 0 1 3.627.003zm0 0" style="fill:none;stroke:red;stroke-width:.79701;stroke-linecap:butt;stroke-linejoin:miter;stroke-miterlimit:10;stroke-opacity:1" transform="matrix(1 0 0 -1 305.624 333.831)"/></g><g clip-path="url(#c)" style="clip-rule:nonzero" transform="translate(-2703.397 3713.22)"><path d="M92.524 68.034a1.814 1.814 0 1 1-3.627-.002 1.814 1.814 0 0 1 3.627.002zm0 0" style="fill:none;stroke:red;stroke-width:.79701;stroke-linecap:butt;stroke-linejoin:miter;stroke-miterlimit:10;stroke-opacity:1" transform="matrix(1 0 0 -1 305.624 333.831)"/></g><g clip-path="url(#d)" style="clip-rule:nonzero" transform="translate(-5302.387 3058.6)"><path d="M-88.897 68.034c0 1-.813 1.813-1.813 1.813a1.811 1.811 0 0 1-1.812-1.813 1.812 1.812 0 1 1 3.625 0zm0 0" style="fill:none;stroke:red;stroke-width:.79701;stroke-linecap:butt;stroke-linejoin:miter;stroke-miterlimit:10;stroke-opacity:1" transform="matrix(1 0 0 -1 305.624 333.831)"/></g><g clip-path="url(#e)" style="clip-rule:nonzero" transform="translate(-5302.387 3058.6)"><path d="M92.524-68.032a1.814 1.814 0 1 1-3.627-.003 1.814 1.814 0 0 1 3.627.003zm0 0" style="fill:none;stroke:red;stroke-width:.79701;stroke-linecap:butt;stroke-linejoin:miter;stroke-miterlimit:10;stroke-opacity:1" transform="matrix(1 0 0 -1 305.624 333.831)"/></g><g clip-path="url(#f)" style="clip-rule:nonzero" transform="translate(-5302.387 3058.6)"><path d="M92.524 68.034a1.814 1.814 0 1 1-3.627-.002 1.814 1.814 0 0 1 3.627.002zm0 0" style="fill:none;stroke:red;stroke-width:.79701;stroke-linecap:butt;stroke-linejoin:miter;stroke-miterlimit:10;stroke-opacity:1" transform="matrix(1 0 0 -1 305.624 333.831)"/></g><g clip-path="url(#d)" style="clip-rule:nonzero" transform="translate(-5091.19 3058.6)"><path d="M-88.897 68.034c0 1-.813 1.813-1.813 1.813a1.811 1.811 0 0 1-1.812-1.813 1.812 1.812 0 1 1 3.625 0zm0 0" style="fill:none;stroke:red;stroke-width:.79701;stroke-linecap:butt;stroke-linejoin:miter;stroke-miterlimit:10;stroke-opacity:1" transform="matrix(1 0 0 -1 305.624 333.831)"/></g><g clip-path="url(#e)" style="clip-rule:nonzero" transform="translate(-5091.19 3058.6)"><path d="M92.524-68.032a1.814 1.814 0 1 1-3.627-.003 1.814 1.814 0 0 1 3.627.003zm0 0" style="fill:none;stroke:red;stroke-width:.79701;stroke-linecap:butt;stroke-linejoin:miter;stroke-miterlimit:10;stroke-opacity:1" transform="matrix(1 0 0 -1 305.624 333.831)"/></g><g clip-path="url(#f)" style="clip-rule:nonzero" transform="translate(-5091.19 3058.6)"><path d="M92.524 68.034a1.814 1.814 0 1 1-3.627-.002 1.814 1.814 0 0 1 3.627.002zm0 0" style="fill:none;stroke:red;stroke-width:.79701;stroke-linecap:butt;stroke-linejoin:miter;stroke-miterlimit:10;stroke-opacity:1" transform="matrix(1 0 0 -1 305.624 333.831)"/></g><g clip-path="url(#g)" style="clip-rule:nonzero" transform="translate(-4657.042 4673.505)"><path d="M-88.897 68.034c0 1-.813 1.813-1.813 1.813a1.811 1.811 0 0 1-1.812-1.813 1.812 1.812 0 1 1 3.625 0zm0 0" style="fill:none;stroke:red;stroke-width:.79701;stroke-linecap:butt;stroke-linejoin:miter;stroke-miterlimit:10;stroke-opacity:1" transform="matrix(1 0 0 -1 305.624 333.831)"/></g><g clip-path="url(#h)" style="clip-rule:nonzero" transform="translate(-4657.042 4673.505)"><path d="M92.524-68.032a1.814 1.814 0 1 1-3.627-.003 1.814 1.814 0 0 1 3.627.003zm0 0" style="fill:none;stroke:red;stroke-width:.79701;stroke-linecap:butt;stroke-linejoin:miter;stroke-miterlimit:10;stroke-opacity:1" transform="matrix(1 0 0 -1 305.624 333.831)"/></g><g clip-path="url(#i)" style="clip-rule:nonzero" transform="translate(-4657.042 4673.505)"><path d="M92.524 68.034a1.814 1.814 0 1 1-3.627-.002 1.814 1.814 0 0 1 3.627.002zm0 0" style="fill:none;stroke:red;stroke-width:.79701;stroke-linecap:butt;stroke-linejoin:miter;stroke-miterlimit:10;stroke-opacity:1" transform="matrix(1 0 0 -1 305.624 333.831)"/></g><g clip-path="url(#g)" style="clip-rule:nonzero" transform="translate(-4445.844 4673.505)"><path d="M-88.897 68.034c0 1-.813 1.813-1.813 1.813a1.811 1.811 0 0 1-1.812-1.813 1.812 1.812 0 1 1 3.625 0zm0 0" style="fill:none;stroke:red;stroke-width:.79701;stroke-linecap:butt;stroke-linejoin:miter;stroke-miterlimit:10;stroke-opacity:1" transform="matrix(1 0 0 -1 305.624 333.831)"/></g><g clip-path="url(#h)" style="clip-rule:nonzero" transform="translate(-4445.844 4673.505)"><path d="M92.524-68.032a1.814 1.814 0 1 1-3.627-.003 1.814 1.814 0 0 1 3.627.003zm0 0" style="fill:none;stroke:red;stroke-width:.79701;stroke-linecap:butt;stroke-linejoin:miter;stroke-miterlimit:10;stroke-opacity:1" transform="matrix(1 0 0 -1 305.624 333.831)"/></g><g clip-path="url(#i)" style="clip-rule:nonzero" transform="translate(-4445.844 4673.505)"><path d="M92.524 68.034a1.814 1.814 0 1 1-3.627-.002 1.814 1.814 0 0 1 3.627.002zm0 0" style="fill:none;stroke:red;stroke-width:.79701;stroke-linecap:butt;stroke-linejoin:miter;stroke-miterlimit:10;stroke-opacity:1" transform="matrix(1 0 0 -1 305.624 333.831)"/></g><g clip-path="url(#j)" style="clip-rule:nonzero" transform="translate(-2915.26 3712.873)"><path d="M-88.897 68.034c0 1-.813 1.813-1.813 1.813a1.811 1.811 0 0 1-1.812-1.813 1.812 1.812 0 1 1 3.625 0zm0 0" style="fill:none;stroke:red;stroke-width:.79701;stroke-linecap:butt;stroke-linejoin:miter;stroke-miterlimit:10;stroke-opacity:1" transform="matrix(1 0 0 -1 305.624 333.831)"/></g><g clip-path="url(#k)" style="clip-rule:nonzero" transform="translate(-2915.26 3712.873)"><path d="M92.524-68.032a1.814 1.814 0 1 1-3.627-.003 1.814 1.814 0 0 1 3.627.003zm0 0" style="fill:none;stroke:red;stroke-width:.79701;stroke-linecap:butt;stroke-linejoin:miter;stroke-miterlimit:10;stroke-opacity:1" transform="matrix(1 0 0 -1 305.624 333.831)"/></g><g clip-path="url(#l)" style="clip-rule:nonzero" transform="translate(-2915.26 3712.873)"><path d="M92.524 68.034a1.814 1.814 0 1 1-3.627-.002 1.814 1.814 0 0 1 3.627.002zm0 0" style="fill:none;stroke:red;stroke-width:.79701;stroke-linecap:butt;stroke-linejoin:miter;stroke-miterlimit:10;stroke-opacity:1" transform="matrix(1 0 0 -1 305.624 333.831)"/></g><g clip-path="url(#j)" style="clip-rule:nonzero" transform="translate(-2704.063 3712.873)"><path d="M-88.897 68.034c0 1-.813 1.813-1.813 1.813a1.811 1.811 0 0 1-1.812-1.813 1.812 1.812 0 1 1 3.625 0zm0 0" style="fill:none;stroke:red;stroke-width:.79701;stroke-linecap:butt;stroke-linejoin:miter;stroke-miterlimit:10;stroke-opacity:1" transform="matrix(1 0 0 -1 305.624 333.831)"/></g><g clip-path="url(#k)" style="clip-rule:nonzero" transform="translate(-2704.063 3712.873)"><path d="M92.524-68.032a1.814 1.814 0 1 1-3.627-.003 1.814 1.814 0 0 1 3.627.003zm0 0" style="fill:none;stroke:red;stroke-width:.79701;stroke-linecap:butt;stroke-linejoin:miter;stroke-miterlimit:10;stroke-opacity:1" transform="matrix(1 0 0 -1 305.624 333.831)"/></g><g clip-path="url(#l)" style="clip-rule:nonzero" transform="translate(-2704.063 3712.873)"><path d="M92.524 68.034a1.814 1.814 0 1 1-3.627-.002 1.814 1.814 0 0 1 3.627.002zm0 0" style="fill:none;stroke:red;stroke-width:.79701;stroke-linecap:butt;stroke-linejoin:miter;stroke-miterlimit:10;stroke-opacity:1" transform="matrix(1 0 0 -1 305.624 333.831)"/></g><g clip-path="url(#m)" style="clip-rule:nonzero" transform="translate(-5303.054 3058.253)"><path d="M-88.897 68.034c0 1-.813 1.813-1.813 1.813a1.811 1.811 0 0 1-1.812-1.813 1.812 1.812 0 1 1 3.625 0zm0 0" style="fill:none;stroke:red;stroke-width:.79701;stroke-linecap:butt;stroke-linejoin:miter;stroke-miterlimit:10;stroke-opacity:1" transform="matrix(1 0 0 -1 305.624 333.831)"/></g><g clip-path="url(#n)" style="clip-rule:nonzero" transform="translate(-5303.054 3058.253)"><path d="M92.524-68.032a1.814 1.814 0 1 1-3.627-.003 1.814 1.814 0 0 1 3.627.003zm0 0" style="fill:none;stroke:red;stroke-width:.79701;stroke-linecap:butt;stroke-linejoin:miter;stroke-miterlimit:10;stroke-opacity:1" transform="matrix(1 0 0 -1 305.624 333.831)"/></g><g clip-path="url(#o)" style="clip-rule:nonzero" transform="translate(-5303.054 3058.253)"><path d="M92.524 68.034a1.814 1.814 0 1 1-3.627-.002 1.814 1.814 0 0 1 3.627.002zm0 0" style="fill:none;stroke:red;stroke-width:.79701;stroke-linecap:butt;stroke-linejoin:miter;stroke-miterlimit:10;stroke-opacity:1" transform="matrix(1 0 0 -1 305.624 333.831)"/></g><g clip-path="url(#m)" style="clip-rule:nonzero" transform="translate(-5091.857 3058.253)"><path d="M-88.897 68.034c0 1-.813 1.813-1.813 1.813a1.811 1.811 0 0 1-1.812-1.813 1.812 1.812 0 1 1 3.625 0zm0 0" style="fill:none;stroke:red;stroke-width:.79701;stroke-linecap:butt;stroke-linejoin:miter;stroke-miterlimit:10;stroke-opacity:1" transform="matrix(1 0 0 -1 305.624 333.831)"/></g><g clip-path="url(#n)" style="clip-rule:nonzero" transform="translate(-5091.857 3058.253)"><path d="M92.524-68.032a1.814 1.814 0 1 1-3.627-.003 1.814 1.814 0 0 1 3.627.003zm0 0" style="fill:none;stroke:red;stroke-width:.79701;stroke-linecap:butt;stroke-linejoin:miter;stroke-miterlimit:10;stroke-opacity:1" transform="matrix(1 0 0 -1 305.624 333.831)"/></g><g clip-path="url(#o)" style="clip-rule:nonzero" transform="translate(-5091.857 3058.253)"><path d="M92.524 68.034a1.814 1.814 0 1 1-3.627-.002 1.814 1.814 0 0 1 3.627.002zm0 0" style="fill:none;stroke:red;stroke-width:.79701;stroke-linecap:butt;stroke-linejoin:miter;stroke-miterlimit:10;stroke-opacity:1" transform="matrix(1 0 0 -1 305.624 333.831)"/></g><g clip-path="url(#p)" style="clip-rule:nonzero" transform="translate(-4657.708 4673.158)"><path d="M-88.897 68.034c0 1-.813 1.813-1.813 1.813a1.811 1.811 0 0 1-1.812-1.813 1.812 1.812 0 1 1 3.625 0zm0 0" style="fill:none;stroke:red;stroke-width:.79701;stroke-linecap:butt;stroke-linejoin:miter;stroke-miterlimit:10;stroke-opacity:1" transform="matrix(1 0 0 -1 305.624 333.831)"/></g><g clip-path="url(#q)" style="clip-rule:nonzero" transform="translate(-4657.708 4673.158)"><path d="M92.524-68.032a1.814 1.814 0 1 1-3.627-.003 1.814 1.814 0 0 1 3.627.003zm0 0" style="fill:none;stroke:red;stroke-width:.79701;stroke-linecap:butt;stroke-linejoin:miter;stroke-miterlimit:10;stroke-opacity:1" transform="matrix(1 0 0 -1 305.624 333.831)"/></g><g clip-path="url(#r)" style="clip-rule:nonzero" transform="translate(-4657.708 4673.158)"><path d="M92.524 68.034a1.814 1.814 0 1 1-3.627-.002 1.814 1.814 0 0 1 3.627.002zm0 0" style="fill:none;stroke:red;stroke-width:.79701;stroke-linecap:butt;stroke-linejoin:miter;stroke-miterlimit:10;stroke-opacity:1" transform="matrix(1 0 0 -1 305.624 333.831)"/></g><g clip-path="url(#p)" style="clip-rule:nonzero" transform="translate(-4446.51 4673.158)"><path d="M-88.897 68.034c0 1-.813 1.813-1.813 1.813a1.811 1.811 0 0 1-1.812-1.813 1.812 1.812 0 1 1 3.625 0zm0 0" style="fill:none;stroke:red;stroke-width:.79701;stroke-linecap:butt;stroke-linejoin:miter;stroke-miterlimit:10;stroke-opacity:1" transform="matrix(1 0 0 -1 305.624 333.831)"/></g><g clip-path="url(#q)" style="clip-rule:nonzero" transform="translate(-4446.51 4673.158)"><path d="M92.524-68.032a1.814 1.814 0 1 1-3.627-.003 1.814 1.814 0 0 1 3.627.003zm0 0" style="fill:none;stroke:red;stroke-width:.79701;stroke-linecap:butt;stroke-linejoin:miter;stroke-miterlimit:10;stroke-opacity:1" transform="matrix(1 0 0 -1 305.624 333.831)"/></g><g clip-path="url(#r)" style="clip-rule:nonzero" transform="translate(-4446.51 4673.158)"><path d="M92.524 68.034a1.814 1.814 0 1 1-3.627-.002 1.814 1.814 0 0 1 3.627.002zm0 0" style="fill:none;stroke:red;stroke-width:.79701;stroke-linecap:butt;stroke-linejoin:miter;stroke-miterlimit:10;stroke-opacity:1" transform="matrix(1 0 0 -1 305.624 333.831)"/></g><g clip-path="url(#s)" style="clip-rule:nonzero" transform="translate(-2950.511 3698.863)"><path d="M-88.897 68.034c0 1-.813 1.813-1.813 1.813a1.811 1.811 0 0 1-1.812-1.813 1.812 1.812 0 1 1 3.625 0zm0 0" style="fill:none;stroke:red;stroke-width:.79701;stroke-linecap:butt;stroke-linejoin:miter;stroke-miterlimit:10;stroke-opacity:1" transform="matrix(1 0 0 -1 305.624 333.831)"/></g><g clip-path="url(#t)" style="clip-rule:nonzero" transform="translate(-2950.511 3698.863)"><path d="M92.524-68.032a1.814 1.814 0 1 1-3.627-.003 1.814 1.814 0 0 1 3.627.003zm0 0" style="fill:none;stroke:red;stroke-width:.79701;stroke-linecap:butt;stroke-linejoin:miter;stroke-miterlimit:10;stroke-opacity:1" transform="matrix(1 0 0 -1 305.624 333.831)"/></g><g clip-path="url(#u)" style="clip-rule:nonzero" transform="translate(-2950.511 3698.863)"><path d="M92.524 68.034a1.814 1.814 0 1 1-3.627-.002 1.814 1.814 0 0 1 3.627.002zm0 0" style="fill:none;stroke:red;stroke-width:.79701;stroke-linecap:butt;stroke-linejoin:miter;stroke-miterlimit:10;stroke-opacity:1" transform="matrix(1 0 0 -1 305.624 333.831)"/></g><g clip-path="url(#s)" style="clip-rule:nonzero" transform="translate(-2739.314 3698.863)"><path d="M-88.897 68.034c0 1-.813 1.813-1.813 1.813a1.811 1.811 0 0 1-1.812-1.813 1.812 1.812 0 1 1 3.625 0zm0 0" style="fill:none;stroke:red;stroke-width:.79701;stroke-linecap:butt;stroke-linejoin:miter;stroke-miterlimit:10;stroke-opacity:1" transform="matrix(1 0 0 -1 305.624 333.831)"/></g><g clip-path="url(#t)" style="clip-rule:nonzero" transform="translate(-2739.314 3698.863)"><path d="M92.524-68.032a1.814 1.814 0 1 1-3.627-.003 1.814 1.814 0 0 1 3.627.003zm0 0" style="fill:none;stroke:red;stroke-width:.79701;stroke-linecap:butt;stroke-linejoin:miter;stroke-miterlimit:10;stroke-opacity:1" transform="matrix(1 0 0 -1 305.624 333.831)"/></g><g clip-path="url(#u)" style="clip-rule:nonzero" transform="translate(-2739.314 3698.863)"><path d="M92.524 68.034a1.814 1.814 0 1 1-3.627-.002 1.814 1.814 0 0 1 3.627.002zm0 0" style="fill:none;stroke:red;stroke-width:.79701;stroke-linecap:butt;stroke-linejoin:miter;stroke-miterlimit:10;stroke-opacity:1" transform="matrix(1 0 0 -1 305.624 333.831)"/></g><g clip-path="url(#v)" style="clip-rule:nonzero" transform="translate(-5338.305 3044.244)"><path d="M-88.897 68.034c0 1-.813 1.813-1.813 1.813a1.811 1.811 0 0 1-1.812-1.813 1.812 1.812 0 1 1 3.625 0zm0 0" style="fill:none;stroke:red;stroke-width:.79701;stroke-linecap:butt;stroke-linejoin:miter;stroke-miterlimit:10;stroke-opacity:1" transform="matrix(1 0 0 -1 305.624 333.831)"/></g><g clip-path="url(#w)" style="clip-rule:nonzero" transform="translate(-5338.305 3044.244)"><path d="M92.524-68.032a1.814 1.814 0 1 1-3.627-.003 1.814 1.814 0 0 1 3.627.003zm0 0" style="fill:none;stroke:red;stroke-width:.79701;stroke-linecap:butt;stroke-linejoin:miter;stroke-miterlimit:10;stroke-opacity:1" transform="matrix(1 0 0 -1 305.624 333.831)"/></g><g clip-path="url(#x)" style="clip-rule:nonzero" transform="translate(-5338.305 3044.244)"><path d="M92.524 68.034a1.814 1.814 0 1 1-3.627-.002 1.814 1.814 0 0 1 3.627.002zm0 0" style="fill:none;stroke:red;stroke-width:.79701;stroke-linecap:butt;stroke-linejoin:miter;stroke-miterlimit:10;stroke-opacity:1" transform="matrix(1 0 0 -1 305.624 333.831)"/></g><g clip-path="url(#v)" style="clip-rule:nonzero" transform="translate(-5127.108 3044.244)"><path d="M-88.897 68.034c0 1-.813 1.813-1.813 1.813a1.811 1.811 0 0 1-1.812-1.813 1.812 1.812 0 1 1 3.625 0zm0 0" style="fill:none;stroke:red;stroke-width:.79701;stroke-linecap:butt;stroke-linejoin:miter;stroke-miterlimit:10;stroke-opacity:1" transform="matrix(1 0 0 -1 305.624 333.831)"/></g><g clip-path="url(#w)" style="clip-rule:nonzero" transform="translate(-5127.108 3044.244)"><path d="M92.524-68.032a1.814 1.814 0 1 1-3.627-.003 1.814 1.814 0 0 1 3.627.003zm0 0" style="fill:none;stroke:red;stroke-width:.79701;stroke-linecap:butt;stroke-linejoin:miter;stroke-miterlimit:10;stroke-opacity:1" transform="matrix(1 0 0 -1 305.624 333.831)"/></g><g clip-path="url(#x)" style="clip-rule:nonzero" transform="translate(-5127.108 3044.244)"><path d="M92.524 68.034a1.814 1.814 0 1 1-3.627-.002 1.814 1.814 0 0 1 3.627.002zm0 0" style="fill:none;stroke:red;stroke-width:.79701;stroke-linecap:butt;stroke-linejoin:miter;stroke-miterlimit:10;stroke-opacity:1" transform="matrix(1 0 0 -1 305.624 333.831)"/></g><g clip-path="url(#y)" style="clip-rule:nonzero" transform="translate(-4692.959 4659.148)"><path d="M-88.897 68.034c0 1-.813 1.813-1.813 1.813a1.811 1.811 0 0 1-1.812-1.813 1.812 1.812 0 1 1 3.625 0zm0 0" style="fill:none;stroke:red;stroke-width:.79701;stroke-linecap:butt;stroke-linejoin:miter;stroke-miterlimit:10;stroke-opacity:1" transform="matrix(1 0 0 -1 305.624 333.831)"/></g><g clip-path="url(#z)" style="clip-rule:nonzero" transform="translate(-4692.959 4659.148)"><path d="M92.524-68.032a1.814 1.814 0 1 1-3.627-.003 1.814 1.814 0 0 1 3.627.003zm0 0" style="fill:none;stroke:red;stroke-width:.79701;stroke-linecap:butt;stroke-linejoin:miter;stroke-miterlimit:10;stroke-opacity:1" transform="matrix(1 0 0 -1 305.624 333.831)"/></g><g clip-path="url(#A)" style="clip-rule:nonzero" transform="translate(-4692.959 4659.148)"><path d="M92.524 68.034a1.814 1.814 0 1 1-3.627-.002 1.814 1.814 0 0 1 3.627.002zm0 0" style="fill:none;stroke:red;stroke-width:.79701;stroke-linecap:butt;stroke-linejoin:miter;stroke-miterlimit:10;stroke-opacity:1" transform="matrix(1 0 0 -1 305.624 333.831)"/></g><g clip-path="url(#y)" style="clip-rule:nonzero" transform="translate(-4481.762 4659.148)"><path d="M-88.897 68.034c0 1-.813 1.813-1.813 1.813a1.811 1.811 0 0 1-1.812-1.813 1.812 1.812 0 1 1 3.625 0zm0 0" style="fill:none;stroke:red;stroke-width:.79701;stroke-linecap:butt;stroke-linejoin:miter;stroke-miterlimit:10;stroke-opacity:1" transform="matrix(1 0 0 -1 305.624 333.831)"/></g><g clip-path="url(#z)" style="clip-rule:nonzero" transform="translate(-4481.762 4659.148)"><path d="M92.524-68.032a1.814 1.814 0 1 1-3.627-.003 1.814 1.814 0 0 1 3.627.003zm0 0" style="fill:none;stroke:red;stroke-width:.79701;stroke-linecap:butt;stroke-linejoin:miter;stroke-miterlimit:10;stroke-opacity:1" transform="matrix(1 0 0 -1 305.624 333.831)"/></g><g clip-path="url(#A)" style="clip-rule:nonzero" transform="translate(-4481.762 4659.148)"><path d="M92.524 68.034a1.814 1.814 0 1 1-3.627-.002 1.814 1.814 0 0 1 3.627.002zm0 0" style="fill:none;stroke:red;stroke-width:.79701;stroke-linecap:butt;stroke-linejoin:miter;stroke-miterlimit:10;stroke-opacity:1" transform="matrix(1 0 0 -1 305.624 333.831)"/></g><g clip-path="url(#B)" style="clip-rule:nonzero" transform="translate(-2951.178 3698.516)"><path d="M-88.897 68.034c0 1-.813 1.813-1.813 1.813a1.811 1.811 0 0 1-1.812-1.813 1.812 1.812 0 1 1 3.625 0zm0 0" style="fill:none;stroke:red;stroke-width:.79701;stroke-linecap:butt;stroke-linejoin:miter;stroke-miterlimit:10;stroke-opacity:1" transform="matrix(1 0 0 -1 305.624 333.831)"/></g><g clip-path="url(#C)" style="clip-rule:nonzero" transform="translate(-2951.178 3698.516)"><path d="M92.524-68.032a1.814 1.814 0 1 1-3.627-.003 1.814 1.814 0 0 1 3.627.003zm0 0" style="fill:none;stroke:red;stroke-width:.79701;stroke-linecap:butt;stroke-linejoin:miter;stroke-miterlimit:10;stroke-opacity:1" transform="matrix(1 0 0 -1 305.624 333.831)"/></g><g clip-path="url(#D)" style="clip-rule:nonzero" transform="translate(-2951.178 3698.516)"><path d="M92.524 68.034a1.814 1.814 0 1 1-3.627-.002 1.814 1.814 0 0 1 3.627.002zm0 0" style="fill:none;stroke:red;stroke-width:.79701;stroke-linecap:butt;stroke-linejoin:miter;stroke-miterlimit:10;stroke-opacity:1" transform="matrix(1 0 0 -1 305.624 333.831)"/></g><g clip-path="url(#B)" style="clip-rule:nonzero" transform="translate(-2739.98 3698.516)"><path d="M-88.897 68.034c0 1-.813 1.813-1.813 1.813a1.811 1.811 0 0 1-1.812-1.813 1.812 1.812 0 1 1 3.625 0zm0 0" style="fill:none;stroke:red;stroke-width:.79701;stroke-linecap:butt;stroke-linejoin:miter;stroke-miterlimit:10;stroke-opacity:1" transform="matrix(1 0 0 -1 305.624 333.831)"/></g><g clip-path="url(#C)" style="clip-rule:nonzero" transform="translate(-2739.98 3698.516)"><path d="M92.524-68.032a1.814 1.814 0 1 1-3.627-.003 1.814 1.814 0 0 1 3.627.003zm0 0" style="fill:none;stroke:red;stroke-width:.79701;stroke-linecap:butt;stroke-linejoin:miter;stroke-miterlimit:10;stroke-opacity:1" transform="matrix(1 0 0 -1 305.624 333.831)"/></g><g clip-path="url(#D)" style="clip-rule:nonzero" transform="translate(-2739.98 3698.516)"><path d="M92.524 68.034a1.814 1.814 0 1 1-3.627-.002 1.814 1.814 0 0 1 3.627.002zm0 0" style="fill:none;stroke:red;stroke-width:.79701;stroke-linecap:butt;stroke-linejoin:miter;stroke-miterlimit:10;stroke-opacity:1" transform="matrix(1 0 0 -1 305.624 333.831)"/></g><g clip-path="url(#E)" style="clip-rule:nonzero" transform="translate(-5338.971 3043.897)"><path d="M-88.897 68.034c0 1-.813 1.813-1.813 1.813a1.811 1.811 0 0 1-1.812-1.813 1.812 1.812 0 1 1 3.625 0zm0 0" style="fill:none;stroke:red;stroke-width:.79701;stroke-linecap:butt;stroke-linejoin:miter;stroke-miterlimit:10;stroke-opacity:1" transform="matrix(1 0 0 -1 305.624 333.831)"/></g><g clip-path="url(#F)" style="clip-rule:nonzero" transform="translate(-5338.971 3043.897)"><path d="M92.524-68.032a1.814 1.814 0 1 1-3.627-.003 1.814 1.814 0 0 1 3.627.003zm0 0" style="fill:none;stroke:red;stroke-width:.79701;stroke-linecap:butt;stroke-linejoin:miter;stroke-miterlimit:10;stroke-opacity:1" transform="matrix(1 0 0 -1 305.624 333.831)"/></g><g clip-path="url(#G)" style="clip-rule:nonzero" transform="translate(-5338.971 3043.897)"><path d="M92.524 68.034a1.814 1.814 0 1 1-3.627-.002 1.814 1.814 0 0 1 3.627.002zm0 0" style="fill:none;stroke:red;stroke-width:.79701;stroke-linecap:butt;stroke-linejoin:miter;stroke-miterlimit:10;stroke-opacity:1" transform="matrix(1 0 0 -1 305.624 333.831)"/></g><g clip-path="url(#E)" style="clip-rule:nonzero" transform="translate(-5127.774 3043.897)"><path d="M-88.897 68.034c0 1-.813 1.813-1.813 1.813a1.811 1.811 0 0 1-1.812-1.813 1.812 1.812 0 1 1 3.625 0zm0 0" style="fill:none;stroke:red;stroke-width:.79701;stroke-linecap:butt;stroke-linejoin:miter;stroke-miterlimit:10;stroke-opacity:1" transform="matrix(1 0 0 -1 305.624 333.831)"/></g><g clip-path="url(#F)" style="clip-rule:nonzero" transform="translate(-5127.774 3043.897)"><path d="M92.524-68.032a1.814 1.814 0 1 1-3.627-.003 1.814 1.814 0 0 1 3.627.003zm0 0" style="fill:none;stroke:red;stroke-width:.79701;stroke-linecap:butt;stroke-linejoin:miter;stroke-miterlimit:10;stroke-opacity:1" transform="matrix(1 0 0 -1 305.624 333.831)"/></g><g clip-path="url(#G)" style="clip-rule:nonzero" transform="translate(-5127.774 3043.897)"><path d="M92.524 68.034a1.814 1.814 0 1 1-3.627-.002 1.814 1.814 0 0 1 3.627.002zm0 0" style="fill:none;stroke:red;stroke-width:.79701;stroke-linecap:butt;stroke-linejoin:miter;stroke-miterlimit:10;stroke-opacity:1" transform="matrix(1 0 0 -1 305.624 333.831)"/></g><g clip-path="url(#H)" style="clip-rule:nonzero" transform="translate(-4693.625 4658.802)"><path d="M-88.897 68.034c0 1-.813 1.813-1.813 1.813a1.811 1.811 0 0 1-1.812-1.813 1.812 1.812 0 1 1 3.625 0zm0 0" style="fill:none;stroke:red;stroke-width:.79701;stroke-linecap:butt;stroke-linejoin:miter;stroke-miterlimit:10;stroke-opacity:1" transform="matrix(1 0 0 -1 305.624 333.831)"/></g><g clip-path="url(#I)" style="clip-rule:nonzero" transform="translate(-4693.625 4658.802)"><path d="M92.524-68.032a1.814 1.814 0 1 1-3.627-.003 1.814 1.814 0 0 1 3.627.003zm0 0" style="fill:none;stroke:red;stroke-width:.79701;stroke-linecap:butt;stroke-linejoin:miter;stroke-miterlimit:10;stroke-opacity:1" transform="matrix(1 0 0 -1 305.624 333.831)"/></g><g clip-path="url(#J)" style="clip-rule:nonzero" transform="translate(-4693.625 4658.802)"><path d="M92.524 68.034a1.814 1.814 0 1 1-3.627-.002 1.814 1.814 0 0 1 3.627.002zm0 0" style="fill:none;stroke:red;stroke-width:.79701;stroke-linecap:butt;stroke-linejoin:miter;stroke-miterlimit:10;stroke-opacity:1" transform="matrix(1 0 0 -1 305.624 333.831)"/></g><g clip-path="url(#H)" style="clip-rule:nonzero" transform="translate(-4482.428 4658.802)"><path d="M-88.897 68.034c0 1-.813 1.813-1.813 1.813a1.811 1.811 0 0 1-1.812-1.813 1.812 1.812 0 1 1 3.625 0zm0 0" style="fill:none;stroke:red;stroke-width:.79701;stroke-linecap:butt;stroke-linejoin:miter;stroke-miterlimit:10;stroke-opacity:1" transform="matrix(1 0 0 -1 305.624 333.831)"/></g><g clip-path="url(#I)" style="clip-rule:nonzero" transform="translate(-4482.428 4658.802)"><path d="M92.524-68.032a1.814 1.814 0 1 1-3.627-.003 1.814 1.814 0 0 1 3.627.003zm0 0" style="fill:none;stroke:red;stroke-width:.79701;stroke-linecap:butt;stroke-linejoin:miter;stroke-miterlimit:10;stroke-opacity:1" transform="matrix(1 0 0 -1 305.624 333.831)"/></g><g clip-path="url(#J)" style="clip-rule:nonzero" transform="translate(-4482.428 4658.802)"><path d="M92.524 68.034a1.814 1.814 0 1 1-3.627-.002 1.814 1.814 0 0 1 3.627.002zm0 0" style="fill:none;stroke:red;stroke-width:.79701;stroke-linecap:butt;stroke-linejoin:miter;stroke-miterlimit:10;stroke-opacity:1" transform="matrix(1 0 0 -1 305.624 333.831)"/></g><g transform="translate(-415.76 24.045)"><rect width="108.153" height="32.784" x="21.432" y="288.836" ry="16.392" style="opacity:1;fill:#f4f4f4;fill-opacity:1;stroke:#000;stroke-width:.4;stroke-linecap:butt;stroke-linejoin:miter;stroke-miterlimit:10;stroke-dasharray:none;stroke-dashoffset:0;stroke-opacity:1"/><g style="fill:#000;fill-opacity:1;stroke:#000;stroke-width:.04;stroke-miterlimit:4;stroke-dasharray:none" transform="translate(-230.272 107.1)"><use xlink:href="#K" width="100%" height="100%" x="270" y="200.52" style="stroke:#000;stroke-width:.04;stroke-miterlimit:4;stroke-dasharray:none"/></g><g style="fill:#000;fill-opacity:1;stroke:#000;stroke-width:.04;stroke-miterlimit:4;stroke-dasharray:none" transform="translate(-230.272 107.1)"><use xlink:href="#L" width="100%" height="100%" x="275.04" y="200.52" style="stroke:#000;stroke-width:.04;stroke-miterlimit:4;stroke-dasharray:none"/></g><g style="fill:#000;fill-opacity:1;stroke:#000;stroke-width:.04;stroke-miterlimit:4;stroke-dasharray:none" transform="translate(-230.272 107.1)"><use xlink:href="#M" width="100%" height="100%" x="278.88" y="200.52" style="stroke:#000;stroke-width:.04;stroke-miterlimit:4;stroke-dasharray:none"/></g><g style="fill:#000;fill-opacity:1;stroke:#000;stroke-width:.04;stroke-miterlimit:4;stroke-dasharray:none" transform="translate(-230.272 107.1)"><use xlink:href="#N" width="100%" height="100%" x="284.76" y="200.52" style="stroke:#000;stroke-width:.04;stroke-miterlimit:4;stroke-dasharray:none"/></g><g style="fill:#000;fill-opacity:1;stroke:#000;stroke-width:.04;stroke-miterlimit:4;stroke-dasharray:none" transform="translate(-230.272 107.1)"><use xlink:href="#M" width="100%" height="100%" x="294" y="200.52" style="stroke:#000;stroke-width:.04;stroke-miterlimit:4;stroke-dasharray:none"/></g><g style="fill:#000;fill-opacity:1;stroke:#000;stroke-width:.04;stroke-miterlimit:4;stroke-dasharray:none" transform="translate(-230.272 107.1)"><use xlink:href="#O" width="100%" height="100%" x="298.44" y="202.08" style="stroke:#000;stroke-width:.04;stroke-miterlimit:4;stroke-dasharray:none"/></g><g style="fill:#000;fill-opacity:1;stroke:#000;stroke-width:.04;stroke-miterlimit:4;stroke-dasharray:none" transform="translate(-230.272 107.1)"><use xlink:href="#P" width="100%" height="100%" x="302.4" y="200.52" style="stroke:#000;stroke-width:.04;stroke-miterlimit:4;stroke-dasharray:none"/></g><g style="fill:#000;fill-opacity:1;stroke:#000;stroke-width:.04;stroke-miterlimit:4;stroke-dasharray:none" transform="translate(-230.272 107.1)"><use xlink:href="#Q" width="100%" height="100%" x="308.52" y="200.52" style="stroke:#000;stroke-width:.04;stroke-miterlimit:4;stroke-dasharray:none"/></g><g style="fill:#000;fill-opacity:1;stroke:#000;stroke-width:.04;stroke-miterlimit:4;stroke-dasharray:none" transform="translate(-230.272 107.1)"><use xlink:href="#R" width="100%" height="100%" x="318.48" y="200.52" style="stroke:#000;stroke-width:.04;stroke-miterlimit:4;stroke-dasharray:none"/></g><g style="fill:#000;fill-opacity:1;stroke:#000;stroke-width:.04;stroke-miterlimit:4;stroke-dasharray:none" transform="translate(-230.272 107.1)"><use xlink:href="#N" width="100%" height="100%" x="324.36" y="200.52" style="stroke:#000;stroke-width:.04;stroke-miterlimit:4;stroke-dasharray:none"/></g><g style="fill:#000;fill-opacity:1;stroke:#000;stroke-width:.04;stroke-miterlimit:4;stroke-dasharray:none" transform="translate(-230.272 107.1)"><use xlink:href="#R" width="100%" height="100%" x="333.6" y="200.52" style="stroke:#000;stroke-width:.04;stroke-miterlimit:4;stroke-dasharray:none"/></g><g style="fill:#000;fill-opacity:1;stroke:#000;stroke-width:.04;stroke-miterlimit:4;stroke-dasharray:none" transform="translate(-230.272 107.1)"><use xlink:href="#O" width="100%" height="100%" x="338.04" y="202.08" style="stroke:#000;stroke-width:.04;stroke-miterlimit:4;stroke-dasharray:none"/></g><circle cx="3.181" cy="305.397" r="8.449" style="opacity:1;fill:#f4f4f4;fill-opacity:1;stroke:#000;stroke-width:.4;stroke-linecap:butt;stroke-linejoin:miter;stroke-miterlimit:4;stroke-dasharray:none;stroke-dashoffset:0;stroke-opacity:1"/><circle cx="-18.449" cy="305.059" r="4.394" style="opacity:1;fill:#f4f4f4;fill-opacity:1;stroke:#000;stroke-width:.4;stroke-linecap:butt;stroke-linejoin:miter;stroke-miterlimit:4;stroke-dasharray:none;stroke-dashoffset:0;stroke-opacity:1"/></g><path d="M462.383 320.536c-1.115.063-6.058.443-7.115.496-6.97.35-12.864.464-20.292.05-4.5-.25-8.986-.805-13.478-1.208-4.712-.823-9.457-1.408-14.135-2.47-18.976-4.305-38.322-12.042-53.926-26.107-3.668-3.306-6.833-7.346-10.25-11.019-2.626-4.29-5.684-8.245-7.877-12.871-6.69-14.109-8.518-30.22-6.024-46.08 2.219-14.103 4.005-17.39 9.929-29.577 2.07-4.26 4.955-8.19 7.687-12.011 7.72-10.8 17.766-20.264 28.992-24.458 1.32-.493 2.682-.846 4.06-.977.678-.065 1.59-.249 1.99.241 1.635 2-1.17 2.249-2.476 2.598-2.763.397-6.142-.174-8.783-1.26-1.941-.8-3.876-1.789-5.62-3.094-2.019-1.51-3.942-3.214-5.57-5.28-9.393-11.915-10.623-29.14-7.23-43.659 1.235-5.281 3.321-10.166 4.981-15.25 2.613-4.945 4.9-10.174 7.839-14.836 9.746-15.461 23.797-27.914 36.973-35.96 9.72-5.935 19.793-9.963 30.666-12.77 4.978-1.284 10.14-1.781 15.272-2.15 14.696-1.056 32.474.053 45.497 10.163 3.57 2.772 4.457 5.65 2.503 7.318-1.227 1.049-2.474.76-3.089-1.494-1.093-5.795-.047-9.007 1.677-14.026.712-2.072 3.489-7.382 4.687-9.212 8.309-12.679 24.119-24.764 39.078-31.54 3.862-1.749 7.326-3.154 11.341-4.507 15.575-5.25 30.491-7.585 48.574-6.837 12.162.503 23.638 3.243 30.544 5.82 13.445 5.019 25.259 13.091 34.651 24.696 3.363 4.155 4.631 6.581 5.322 8.012 6.462 13.377-6.007 7.76-4.202.017 1.657-7.7 10.295-14.813 18.038-18.967 13.094-7.026 34.639-6.486 48.995-3.542 3.397.726 6.7 1.855 10.049 2.783 14.258 5.158 27.703 13.145 36.684 25.851 1.293 1.83 2.288 3.858 3.432 5.787.658 1.797 1.49 3.539 1.974 5.392 1.176 4.497 1.169 10.88-2.16 14.522-.377.41-.841.768-1.363.958-.3.11-.768.144-1.015-.243-.924-1.45 1.125-3.008 1.632-3.336 3.09-2.002 8.601-1.9 11.85-1.683 9.134.608 17.826 4.479 25.903 9.604 2.308 1.464 4.599 2.986 6.733 4.718 2.322 1.883 3.412 2.516 5.61 4.548 9.413 10.526 13.302 15.198 19.757 28.689 4.538 9.486 7.117 18.9 8.093 26.804.526 4.258 1.674 17.849.47 26.961-2.033 15.375-9.85 31.898-14.205 37.237-2.078 2.548-5.631 7.309-7.812 9.176-4.517 3.867-12.552 8.484-14.894 7.132-2.98-1.72 1.119-5.184 4.24-5.184 2.547 0 5.332.425 9.725 2.192 2.209.888 6.028 3.167 7.712 4.672 3.345 2.99 7.505 7.886 9.79 12.35 2.212 4.322 4.87 11.87 5.336 20.918.31 6.05-.414 17.22-3.18 25.609-2.907 8.815-4.745 14.595-10.415 22.702-5.616 8.03-15.285 18.659-21.852 23.326-7.007 4.98-11.721 7.893-21.033 11.886-8.756 3.754-19.85 5.54-29.34 5.799l-2.822-.084c-9.34.217-18.396-1.806-26.258-6.06-1.149-.812-1.52-.703-2.273-1.821-.306-.455-.35-1.156-.166-1.54.512-1.072 1.36-.223 1.832.831 1.259 2.814.69 4.656.12 6.782a18.066 18.066 0 0 1-1.91 4.5c-6.288 10.632-18.756 17.734-30.706 21.783a92.946 92.946 0 0 1-12.765 3.315c-4.427.825-8.921 1.311-13.422 1.565-20.253 1.143-40.44-3.048-58.604-11.15-6.85-3.055-13.181-6.56-18.44-11.794-1.242-1.237-3.645-4.048-4.155-5.968-.216-.811-.26-1.709-.008-2.506.101-.322.609-.514 1.016-.38.872.287.398 2.438.06 3.474-1.694 5.174-5.986 8.864-10.08 12.271-2.733 1.77-5.328 3.758-8.198 5.31-16.525 8.94-35.74 12.764-54.463 13.853-5.168.3-10.354.15-15.53.225-4.93-.371-9.882-.515-14.787-1.113-14.456-1.762-30.65-5.95-43.138-13.516-2.118-1.283-3.997-2.905-5.995-4.358-1.35-1.515-2.879-2.894-4.048-4.544-2.314-3.266-3.345-6.995-3.45-10.795M974.686 47.889c1.899 1.633 3.723 3.28 4.876 5.932.193.918.558 1.775.578 2.754.094 4.673-3.938 8.22-6.913 9.753-.95.488-1.94.733-2.91 1.1-1.018.105-2.046.35-3.053.315a11.735 11.735 0 0 1-10.015-6.447c-.451-.89-.665-1.976-.997-2.965-.126-2.403-.463-3.648.452-6.063 1.221-3.225 3.586-5.425 6.114-6.405.907-.35 1.838-.43 2.758-.645.936.012 1.884-.069 2.807.037a14.747 14.747 0 0 1 9.319 4.837m-72.352-1.297c.854-.138 1.7-.324 2.56-.413 3.27-.341 6.507-.15 9.643.884 2.575 1.063 3.62 1.326 5.906 2.94 2.695 1.901 4.824 4.44 5.856 7.583.369 1.123.48 2.312.72 3.467-.061 3.667.17 4.605-.875 8.166-1.29 4.395-3.758 8.546-6.856 11.936-1.112 1.216-2.406 2.257-3.609 3.386-1.376.91-2.68 1.937-4.13 2.727-5.527 3.013-12.337 4.455-18.518 2.655-1.448-.422-2.769-1.19-4.154-1.785-3.061-2.411-4.224-2.851-6.192-6.32-2.46-4.339-2.865-9.297-1.747-14.086.385-1.65 1.124-3.2 1.687-4.8.9-1.545 1.679-3.164 2.7-4.634 3.387-4.88 9.292-10.373 14.657-13.135.461-.238.996-.3 1.494-.45" style="display:inline;fill:#f4f4f4;fill-opacity:1;stroke:none;stroke-width:2.04504;stroke-linecap:butt;stroke-linejoin:miter;stroke-miterlimit:10;stroke-dasharray:none;stroke-dashoffset:0;stroke-opacity:1" transform="translate(-254.668 56.767)"/><path d="M462.27 321.022c-1.093.062-6.03.442-7.118.496-6.976.351-12.888.466-20.329.051-4.516-.251-9.004-.807-13.49-1.21h-.013l-.014-.003c-4.701-.82-9.452-1.406-14.15-2.472-19.008-4.313-38.401-12.065-54.051-26.172-3.692-3.328-6.862-7.375-10.267-11.036l-.02-.02-.015-.026c-2.615-4.271-5.68-8.233-7.894-12.9-6.722-14.176-8.563-30.375-6.053-46.335 2.224-14.137 4.067-17.581 9.987-29.762 2.11-4.34 5.023-8.302 7.75-12.117 7.779-10.882 17.923-20.447 29.288-24.693 1.352-.505 2.751-.869 4.17-1.004.642-.061 1.695-.34 2.253.343 1.798 2.2-2.815 3.45-2.917 3.465-2.863.411-6.268-.173-8.955-1.28-1.956-.804-3.912-1.803-5.68-3.127-2.03-1.519-3.973-3.238-5.622-5.33-9.468-12.012-10.711-29.359-7.286-44.016 1.25-5.35 3.347-10.256 4.996-15.302l.018-.056.028-.054c2.596-4.913 4.888-10.159 7.866-14.885 9.822-15.582 23.95-28.095 37.199-36.185 9.774-5.968 19.898-10.015 30.807-12.83 5.023-1.297 10.206-1.794 15.344-2.163 14.737-1.059 32.595.044 45.705 10.221 3.626 2.815 4.702 6.113 2.377 8.099-1.448 1.237-3.052.788-3.699-1.585l-.005-.015-.003-.015c-1.107-5.868-.023-9.274 1.703-14.298.771-2.245 3.493-7.43 4.765-9.371 8.427-12.86 24.31-24.971 39.357-31.786 3.874-1.755 7.357-3.168 11.389-4.527 15.622-5.266 30.6-7.609 48.719-6.86 12.204.506 23.698 3.25 30.639 5.84 13.487 5.034 25.344 13.135 34.77 24.781 3.374 4.17 4.663 6.63 5.359 8.071 6.517 13.49-6.978 8.785-5.022.37 1.734-8.048 10.556-15.228 18.38-19.426 13.335-7.154 34.865-6.547 49.273-3.593 3.424.732 6.73 1.863 10.07 2.788l.01.003.01.004c14.293 5.17 27.79 13.18 36.817 25.952 1.311 1.855 2.31 3.892 3.445 5.807l.014.026.01.029c.65 1.776 1.488 3.525 1.985 5.425 1.199 4.583 1.282 11.12-2.332 15.074-.435.477-.985.9-1.605 1.126-.423.154-1.06.193-1.404-.348-1.086-1.704 1.275-3.696 1.892-4.096 3.38-2.188 8.86-1.982 12.126-1.765 9.215.614 17.943 4.509 26.043 9.649 2.31 1.466 4.61 2.993 6.758 4.736 2.312 1.876 3.413 2.516 5.624 4.56l.01.008.008.01c9.415 10.528 13.34 15.25 19.804 28.76 4.554 9.518 7.144 18.966 8.126 26.921.53 4.293 1.689 17.856.468 27.087-2.05 15.509-9.803 31.997-14.357 37.579-2.054 2.517-5.563 7.265-7.9 9.266-4.617 3.953-12.56 8.85-15.37 7.228-3.21-1.853 1.277-6.12 4.659-6.12 2.587 0 5.425.438 9.841 2.214 2.26.909 6.058 3.172 7.793 4.722 3.372 3.015 7.542 7.916 9.855 12.435 2.233 4.365 4.906 11.948 5.375 21.075.315 6.116-.4 17.292-3.21 25.815-2.905 8.812-4.786 14.707-10.508 22.888-5.669 8.105-15.322 18.736-22.021 23.497-7.022 4.99-11.803 7.943-21.14 11.947-8.848 3.794-19.972 5.576-29.5 5.835h-.02l-2.813-.083c-9.395.217-18.497-1.818-26.401-6.094l-.014-.008-.013-.011c-1.117-.79-1.56-.73-2.344-1.895-.378-.562-.51-1.286-.161-2.016.709-1.481 2.1-.499 2.606.63 1.297 2.898.7 4.982.133 7.095a18.768 18.768 0 0 1-1.983 4.673c-6.433 10.876-19.034 18.006-31.05 22.076a93.39 93.39 0 0 1-12.827 3.332c-4.447.829-8.958 1.316-13.471 1.57-20.318 1.147-40.55-3.056-58.75-11.175-6.864-3.06-13.228-6.58-18.521-11.85-1.265-1.258-3.674-3.994-4.237-6.112-.23-.866-.296-1.837.006-2.79.268-.85 1.104-1.01 1.657-.828 1.308.43.598 2.855.232 3.975-1.767 5.4-6.203 9.189-10.304 12.6l-.03.026-.032.02c-2.705 1.753-5.315 3.753-8.237 5.334-16.629 8.995-35.896 12.82-54.656 13.91-5.19.303-10.38.151-15.546.226h-.031c-4.919-.37-9.877-.515-14.802-1.115-14.487-1.766-30.713-5.958-43.253-13.555-2.144-1.299-4.028-2.927-6.014-4.37l-.024-.017-.02-.022c-1.335-1.5-2.873-2.884-4.067-4.57-2.352-3.318-3.407-7.121-3.514-11l.871-.326c.103 3.723 1.111 7.377 3.388 10.59 1.138 1.607 2.65 2.976 4.008 4.497 2.001 1.457 3.868 3.066 5.952 4.329 12.438 7.534 28.599 11.718 43.022 13.476 4.88.595 9.822.74 14.756 1.11 5.182-.075 10.358.075 15.5-.224 18.688-1.087 37.848-4.91 54.27-13.795 2.806-1.518 5.378-3.483 8.125-5.265 4.08-3.394 8.212-6.982 9.827-11.918.31-.952.548-2.828.114-2.971-.263-.087-.442.136-.377-.069-.202.64-.178 1.465.022 2.221.458 1.723 2.855 4.609 4.076 5.824 5.223 5.199 11.522 8.69 18.358 11.738 18.126 8.085 38.27 12.264 58.457 11.125 4.488-.253 8.967-.738 13.372-1.559a92.508 92.508 0 0 0 12.703-3.299c11.885-4.026 24.219-11.1 30.363-21.488a17.362 17.362 0 0 0 1.835-4.327c.575-2.14 1.115-3.74-.106-6.47-.438-.98-.741-1.694-1.057-1.034-.018.04-.064.717.17 1.065.72 1.07 1.02.916 2.19 1.74 7.813 4.224 16.813 6.232 26.09 6.016h.022l2.812.084c9.45-.258 20.51-2.048 29.17-5.762 9.286-3.981 13.933-6.855 20.926-11.825 6.435-4.574 16.12-15.2 21.683-23.154 5.618-8.032 7.413-13.698 10.321-22.516 2.722-8.255 3.458-19.42 3.15-25.403-.46-8.971-3.106-16.482-5.296-20.762-2.256-4.408-6.406-9.298-9.725-12.265-1.632-1.46-5.473-3.755-7.632-4.623-4.369-1.756-7.1-2.17-9.609-2.17-2.859 0-6.363 2.78-3.82 4.249 1.874 1.082 10.003-3.254 14.42-7.036 2.023-1.732 5.62-6.507 7.722-9.084 4.158-5.097 12.037-21.655 14.052-36.896 1.19-8.995.051-22.613-.47-26.835-.97-7.854-3.538-17.235-8.06-26.688-6.444-13.467-10.297-18.092-19.701-28.608-2.18-2.014-3.26-2.64-5.587-4.527-2.122-1.722-4.403-3.238-6.708-4.7-8.055-5.111-16.711-8.958-25.766-9.56-3.23-.216-8.77-.214-11.573 1.6-.396.258-2.133 1.381-1.371 2.576.15.235.448.204.626.139.423-.154.804-.445 1.12-.79 3.044-3.33 3.143-9.56 1.99-13.97-.47-1.797-1.29-3.522-1.953-5.33-1.146-1.935-2.134-3.945-3.404-5.74C769.04 5.15 755.65-2.813 741.431-7.96c-3.358-.93-6.651-2.056-10.021-2.776-14.302-2.933-35.861-3.405-48.715 3.491-7.66 4.11-16.112 11.154-17.693 18.505v.005l-.002.005c-1.647 7.066 9.1 12.164 3.383.33-.686-1.42-1.934-3.813-5.285-7.952-9.36-11.564-21.131-19.609-34.534-24.612-6.87-2.564-18.329-5.3-30.448-5.801-18.045-.747-32.9 1.58-48.428 6.815-4 1.348-7.443 2.744-11.295 4.489-14.87 6.735-30.608 18.794-38.798 31.292-1.125 1.718-3.956 7.155-4.608 9.053-1.721 5.01-2.73 8.027-1.654 13.738.582 2.123 1.47 2.248 2.475 1.39 1.581-1.352.885-3.809-2.631-6.538-12.936-10.042-30.633-11.158-45.289-10.104-5.126.368-10.266.864-15.199 2.138-10.838 2.797-20.86 6.807-30.525 12.709-13.103 8-27.078 20.393-36.748 35.735-2.887 4.58-5.164 9.772-7.782 14.734-1.67 5.1-3.734 9.946-4.948 15.14-3.361 14.382-2.144 31.484 7.172 43.302 1.607 2.04 3.512 3.73 5.518 5.23 1.72 1.287 3.634 2.266 5.56 3.06 2.595 1.067 5.948 1.624 8.612 1.242.046-.007 3.017-.53 2.036-1.732-.243-.297-1.015-.208-1.73-.14-1.336.128-2.66.47-3.947.952-11.088 4.142-21.037 13.503-28.699 24.222-2.735 3.826-5.592 7.725-7.623 11.905-5.926 12.191-7.657 15.324-9.87 29.394-2.478 15.756-.664 31.782 5.994 45.824 2.17 4.576 5.212 8.517 7.846 12.816 3.42 3.679 6.576 7.702 10.213 10.98 15.557 14.023 34.858 21.746 53.8 26.044 4.655 1.056 9.39 1.64 14.107 2.464 4.496.403 8.973.957 13.454 1.207 7.414.413 13.29.299 20.254-.051 1.027-.052 5.975-.432 7.113-.497zM975.012 47.47c1.902 1.635 3.77 3.315 4.954 6.039l.014.033.008.038c.182.867.564 1.743.587 2.835.1 4.957-4.174 8.747-7.28 10.346-1.022.527-2.03.772-2.964 1.126l-.056.02-.054.006c-.984.102-2.033.354-3.104.317a11.989 11.989 0 0 1-10.264-6.605c-.48-.948-.695-2.053-1.017-3.01l-.016-.051-.002-.059c-.124-2.367-.47-3.756.491-6.296 1.29-3.402 3.825-5.77 6.492-6.803.992-.384 1.942-.46 2.82-.665l.048-.011h.046c.913.013 1.875-.07 2.841.04a15.014 15.014 0 0 1 9.5 4.928l-.705.787a14.48 14.48 0 0 0-9.139-4.745c-.865-.1-1.784-.025-2.727-.035-.943.216-1.838.302-2.647.615-2.39.926-4.583 2.96-5.738 6.007-.86 2.272-.545 3.374-.415 5.771.333 1.005.546 2.05.961 2.87 2.026 4.001 5.998 6.159 9.764 6.288.928.032 1.917-.196 2.95-.307.986-.369 1.939-.613 2.798-1.055 2.846-1.466 6.637-4.769 6.547-9.16-.016-.853-.356-1.682-.56-2.635-1.123-2.56-2.897-4.168-4.784-5.79zm-69.588.843c.838-.135 1.693-.324 2.582-.416 3.31-.345 6.598-.152 9.78.898l.01.003.012.004c2.564 1.058 3.652 1.34 5.959 2.968 2.732 1.929 4.906 4.51 5.966 7.738.385 1.174.497 2.382.73 3.508l.011.047v.052c-.062 3.645.16 4.703-.9 8.318-1.32 4.503-3.848 8.751-7.016 12.217-1.162 1.271-2.47 2.321-3.647 3.425l-.042.04-.046.03c-1.348.89-2.666 1.932-4.173 2.753-5.634 3.071-12.546 4.53-18.823 2.703-1.494-.436-2.823-1.211-4.187-1.797l-.033-.014-.028-.023c-3.048-2.4-4.276-2.899-6.264-6.405-2.503-4.414-2.926-9.491-1.78-14.404.406-1.737 1.161-3.313 1.707-4.867l.022-.063.035-.059c.88-1.51 1.666-3.15 2.731-4.684 3.47-4.998 9.416-10.529 14.9-13.353.583-.3 1.137-.351 1.581-.485l-.034.938c-.552.166-1.067.24-1.407.415-5.245 2.7-11.108 8.154-14.414 12.916-.964 1.388-1.73 2.966-2.634 4.526-.575 1.621-1.285 3.126-1.645 4.669-1.089 4.665-.701 9.505 1.716 13.767 1.941 3.423 3.038 3.812 6.092 6.215 1.393.601 2.696 1.353 4.088 1.758 6.085 1.772 12.793.347 18.214-2.608 1.378-.75 2.652-1.75 4.04-2.67 1.216-1.138 2.479-2.16 3.528-3.308 3.029-3.314 5.438-7.367 6.696-11.654 1.024-3.49.791-4.317.85-7.962-.24-1.17-.352-2.322-.7-3.378-1.003-3.058-3.088-5.556-5.745-7.43-2.263-1.598-3.266-1.843-5.843-2.906-3.087-1.017-6.27-1.205-9.495-.869-.831.087-1.67.27-2.538.411z" style="display:inline;fill:#000;stroke:none;stroke-width:0" transform="translate(-254.668 56.767)"/><path d="M430.732 295.826V94.75" style="clip-rule:nonzero;fill:#717171;fill-opacity:1;stroke:#000;stroke-width:.818019;stroke-linecap:butt;stroke-linejoin:miter;stroke-miterlimit:10;stroke-dasharray:none;stroke-opacity:1" transform="translate(-254.668 56.767)"/><path d="M426.7 97.66c1.512-.262 3.784-3.082 4.032-3.857.256.775 2.519 3.595 4.03 3.857" style="fill:none;fill-opacity:1;stroke:#000;stroke-width:1.14523;stroke-linecap:round;stroke-linejoin:round;stroke-miterlimit:10;stroke-dasharray:none;stroke-opacity:1" transform="translate(-254.668 56.767)"/><g clip-path="url(#S)" style="clip-rule:nonzero;stroke:red;stroke-width:.995388" transform="matrix(2.09973 .08993 -.11967 2.047 136.199 130.353)"><path d="m-27.214 6.802 185.957 72.57" style="fill:none;stroke:red;stroke-width:.793334;stroke-linecap:butt;stroke-linejoin:miter;stroke-miterlimit:10;stroke-opacity:1" transform="matrix(1 0 0 -1 30.117 89.24)"/></g><path d="M689.595 201.715V142.97" style="fill:none;stroke:#000;stroke-width:.818019;stroke-linecap:butt;stroke-linejoin:miter;stroke-miterlimit:10;stroke-dasharray:none;stroke-dashoffset:0;stroke-opacity:1" transform="translate(-254.668 56.767)"/><path d="M689.595 212.43v-8.983" style="fill:none;stroke:#000;stroke-width:.818019;stroke-linecap:square;stroke-linejoin:miter;stroke-miterlimit:10;stroke-dasharray:none;stroke-opacity:1" transform="translate(-254.668 56.767)"/><path d="M684.399 203c.295 1.774 3.547 4.434 4.433 4.73-.886.295-4.138 2.955-4.433 4.729M684.918 148.118c1.773-.296 4.434-3.547 4.73-4.434.295.887 2.955 4.138 4.728 4.434" style="fill:none;stroke:#000;stroke-width:1.30883;stroke-linecap:round;stroke-linejoin:round;stroke-miterlimit:10;stroke-dasharray:none;stroke-opacity:1" transform="translate(-254.668 56.767)"/><path d="M385.943 267.649h418.381" style="fill:#717171;fill-opacity:1;stroke:#000;stroke-width:.818019;stroke-linecap:butt;stroke-linejoin:miter;stroke-miterlimit:10;stroke-dasharray:none;stroke-opacity:1" transform="translate(-254.668 56.767)"/><path d="M800.258 263.62c.259 1.51 3.167 3.782 3.954 4.029-.787.256-3.695 2.517-3.954 4.028" style="fill:none;fill-opacity:1;stroke:#000;stroke-width:1.14523;stroke-linecap:round;stroke-linejoin:round;stroke-miterlimit:10;stroke-dasharray:none;stroke-opacity:1" transform="translate(-254.668 56.767)"/><path d="M684.452 142.912h10.492M493.486 212.344v-9.122" style="fill:none;stroke:#000;stroke-width:.814951;stroke-linecap:square;stroke-linejoin:miter;stroke-miterlimit:10;stroke-opacity:1" transform="translate(-254.668 56.767)"/><path d="M684.92 207.918h9.33" style="fill:none;stroke:#000;stroke-width:.818019;stroke-linecap:square;stroke-linejoin:miter;stroke-miterlimit:10;stroke-dasharray:none;stroke-opacity:1" transform="translate(-254.668 56.767)"/><path d="M493.543 207.918h191.673" style="fill:none;stroke:#000;stroke-width:.818019;stroke-linecap:butt;stroke-linejoin:miter;stroke-miterlimit:10;stroke-dasharray:none;stroke-dashoffset:0;stroke-opacity:1" transform="translate(-254.668 56.767)"/><g style="fill:#000;fill-opacity:1;stroke:#000;stroke-width:.0520999;stroke-miterlimit:4;stroke-dasharray:none"><use xlink:href="#T" width="100%" height="100%" x="287.16" y="156.72" style="stroke:#000;stroke-width:.0520999;stroke-miterlimit:4;stroke-dasharray:none" transform="matrix(1.56946 0 0 1.57074 -293.042 -43.024)"/></g><g style="fill:#000;fill-opacity:1;stroke:#000;stroke-width:.0521174;stroke-miterlimit:4;stroke-dasharray:none"><use xlink:href="#U" width="100%" height="100%" x="315.84" y="156.72" style="stroke:#000;stroke-width:.0521174;stroke-miterlimit:4;stroke-dasharray:none" transform="matrix(1.56967 0 0 1.56948 -65.071 98.138)"/></g><g style="fill:#000;fill-opacity:1;stroke:#000;stroke-width:.0520712;stroke-miterlimit:4;stroke-dasharray:none" transform="matrix(1.57137 0 0 1.57055 -215.808 98.247)"><use xlink:href="#V" width="100%" height="100%" x="285.12" y="156.72" style="stroke:#000;stroke-width:.0520712;stroke-miterlimit:4;stroke-dasharray:none"/></g><g style="fill:#000;fill-opacity:1;stroke:#000;stroke-width:.0520712;stroke-miterlimit:4;stroke-dasharray:none" transform="matrix(1.57137 0 0 1.57055 -215.808 98.247)"><use xlink:href="#W" width="100%" height="100%" x="289.56" y="158.28" style="stroke:#000;stroke-width:.0520712;stroke-miterlimit:4;stroke-dasharray:none"/></g><path d="M436.775 207.918h54.712" style="fill:none;stroke:#000;stroke-width:.814951;stroke-linecap:butt;stroke-linejoin:miter;stroke-miterlimit:10;stroke-dasharray:.814951,1.62991;stroke-dashoffset:0;stroke-opacity:1" transform="translate(-254.668 56.767)"/><path d="M493.486 272.425v-9.12" style="fill:none;stroke:#000;stroke-width:.814951;stroke-linecap:square;stroke-linejoin:miter;stroke-miterlimit:10;stroke-opacity:1" transform="translate(-254.668 56.767)"/><path d="M493.486 266.742v-53.499" style="fill:none;stroke:#000;stroke-width:.814747;stroke-linecap:butt;stroke-linejoin:miter;stroke-miterlimit:10;stroke-dasharray:.814747,1.62949;stroke-dashoffset:0;stroke-opacity:1" transform="translate(-254.668 56.767)"/><path d="M689.567 272.425v-9.12" style="fill:none;stroke:#000;stroke-width:.814951;stroke-linecap:square;stroke-linejoin:miter;stroke-miterlimit:10;stroke-opacity:1" transform="translate(-254.668 56.767)"/><path d="M689.567 266.537v-52.885" style="fill:none;stroke:#000;stroke-width:.814747;stroke-linecap:butt;stroke-linejoin:miter;stroke-miterlimit:10;stroke-dasharray:.814747,1.62949;stroke-dashoffset:0;stroke-opacity:1" transform="translate(-254.668 56.767)"/><path d="M425.323 207.918h9.925" style="fill:none;stroke:#000;stroke-width:.814951;stroke-linecap:square;stroke-linejoin:miter;stroke-miterlimit:10;stroke-opacity:1" transform="translate(-254.668 56.767)"/><path d="M437.102 142.851h245.515" style="fill:none;stroke:#000;stroke-width:.814951;stroke-linecap:butt;stroke-linejoin:miter;stroke-miterlimit:10;stroke-dasharray:.814951,1.62991;stroke-dashoffset:0;stroke-opacity:1" transform="translate(-254.668 56.767)"/><path d="M425.323 142.851h9.925" style="fill:none;stroke:#000;stroke-width:.814951;stroke-linecap:square;stroke-linejoin:miter;stroke-miterlimit:10;stroke-opacity:1" transform="translate(-254.668 56.767)"/><g style="font-style:normal;font-weight:400;font-size:32px;line-height:125%;font-family:sans-serif;letter-spacing:0;word-spacing:0;fill:#000;fill-opacity:1;stroke:none;stroke-width:1px;stroke-linecap:butt;stroke-linejoin:miter;stroke-opacity:1"><path d="M527.869 8.147V6.965h.171q.299 1.024 1.068 1.024.334 0 .496-.202.167-.203.167-.444 0-.282-.175-.462-.18-.18-.7-.435-.544-.268-.781-.527-.238-.255-.238-.629 0-.356.255-.676.255-.326.717-.326.47 0 .777.383.066-.066.172-.321h.162v1.112h-.162q-.088-.4-.343-.686-.25-.29-.593-.29-.264 0-.427.163-.162.162-.162.378 0 .237.18.408.176.176.672.4.747.339.914.66.167.325.167.624 0 .47-.312.764-.307.295-.777.295-.497 0-.884-.409-.118.132-.193.378zM531.89 1.99v4.808q0 .575.013.725.017.15.127.228.11.08.391.08h.106v.202h-1.925V7.83h.123q.264 0 .374-.07.114-.075.136-.206.022-.132.022-.756v-3.56q0-.567-.101-.712-.101-.15-.492-.15v-.201q.268 0 .628-.062.365-.061.501-.123h.097zM533.006 6.226q0-.826.554-1.38.553-.558 1.362-.558.813 0 1.367.559.553.558.553 1.38 0 .91-.562 1.432-.563.519-1.358.519-.796 0-1.358-.528-.558-.531-.558-1.424zm.73.022q0 .958.311 1.345.312.382.875.382.576 0 .879-.382.307-.387.307-1.345 0-.949-.303-1.353t-.883-.404q-.576 0-.883.404-.304.4-.304 1.353zM538.284 4.288h.118q.075.247.075.594.281-.3.602-.444.325-.15.686-.15.747 0 1.243.528.497.523.497 1.384 0 .844-.501 1.41-.497.568-1.31.568-.334 0-.641-.137-.304-.131-.576-.395v1.367q0 .624.022.76.026.136.14.202.115.07.427.07v.202h-1.881v-.202h.132q.312 0 .404-.092.097-.088.11-.215.018-.123.018-.725v-3.27q0-.576-.018-.725-.013-.15-.123-.229-.11-.079-.391-.079h-.132v-.202q.435-.044 1.099-.22zm.193 3.068q.237.29.501.44.268.144.562.144.497 0 .866-.426.37-.426.37-1.358 0-.808-.357-1.208-.356-.4-.848-.4-.303 0-.575.154-.273.153-.519.465zM545.46 5.65h-2.51q-.017.26-.017.388 0 .949.294 1.428.3.474.888.474.8 0 1.134-.716h.21q-.14.448-.557.703-.418.25-.91.25-.457 0-.866-.228-.404-.233-.663-.655-.26-.422-.26-1.024 0-.852.502-1.415.5-.567 1.252-.567.707 0 1.094.431.387.43.409.932zm-.77-.175q.014-.101.014-.18 0-.387-.228-.598-.225-.215-.554-.215-.8 0-.954.993h1.723z" style="font-style:normal;font-variant:normal;font-weight:400;font-stretch:normal;font-size:9px;font-family:Baskerville;-inkscape-font-specification:Baskerville" transform="matrix(1.96406 0 0 1.96406 -551.943 135.852)"/></g><g style="font-style:normal;font-weight:400;font-size:32px;line-height:125%;font-family:sans-serif;letter-spacing:0;word-spacing:0;fill:#000;fill-opacity:1;stroke:none;stroke-width:1px;stroke-linecap:butt;stroke-linejoin:miter;stroke-opacity:1"><path d="M571.039 1.38c.009-.035.018-.08.018-.08 0-.018-.018-.036-.045-.036l-1.404.198.018.135h.198c.144 0 .396.027.396.243 0 .045-.045.279-.144.639l-1.035 3.888c-.108.423-.225.558-.612.567v.144h1.827v-.144c-.423 0-.558-.063-.558-.261 0-.126.207-.864.36-1.494.225.117.414.153.62.153 1.315 0 2.674-1.458 2.674-2.943 0-.702-.37-1.125-1.035-1.125-.54 0-1.053.288-1.54 1.017zm1.503 1.036c0 .63-.19 1.287-.621 1.89-.396.558-.828.855-1.305.855-.252 0-.432-.144-.432-.342 0-.306.324-1.467.585-2.142.207-.54.738-1.026 1.215-1.026.405 0 .558.252.558.765z" style="font-style:italic;font-variant:normal;font-weight:400;font-stretch:normal;font-size:9px;font-family:STIXGeneral;-inkscape-font-specification:&quot;STIXGeneral Italic&quot;" transform="matrix(1.92498 0 0 1.92498 -568.322 141.758)"/></g><path d="M53.52-726.76a25.663 25.663 0 0 1-22.269 3.208 25.663 25.663 0 0 1-16.238-15.573" style="fill:none;fill-opacity:1;stroke:#000;stroke-width:1.30883;stroke-linecap:butt;stroke-linejoin:miter;stroke-miterlimit:10;stroke-dasharray:none;stroke-dashoffset:0;stroke-opacity:1" transform="rotate(95.957 -152.91 -86.356)"/><path d="M720.779 124.152c-1.592.835-3.101 4.756-3.104 5.69-.559-.75-4.103-3.005-5.88-2.73" style="fill:none;stroke:#000;stroke-width:1.30883;stroke-linecap:round;stroke-linejoin:round;stroke-miterlimit:10;stroke-dasharray:none;stroke-opacity:1" transform="translate(-254.668 56.767)"/><g style="stroke:#000;stroke-width:.0494471;stroke-miterlimit:4;stroke-dasharray:none;stroke-opacity:1"><g style="fill:#000;fill-opacity:1;stroke:#000;stroke-width:.0494471;stroke-miterlimit:4;stroke-dasharray:none;stroke-opacity:1" transform="matrix(1.6546 0 0 1.65408 -348.574 7.506)"><use xlink:href="#X" width="100%" height="100%" x="301.32" y="156.72" style="stroke:#000;stroke-width:.0494471;stroke-miterlimit:4;stroke-dasharray:none;stroke-opacity:1"/></g><g style="fill:#000;fill-opacity:1;stroke:#000;stroke-width:.0494471;stroke-miterlimit:4;stroke-dasharray:none;stroke-opacity:1" transform="matrix(1.6546 0 0 1.65408 -348.574 7.506)"><use xlink:href="#Y" width="100%" height="100%" x="305.76" y="158.28" style="stroke:#000;stroke-width:.0494471;stroke-miterlimit:4;stroke-dasharray:none;stroke-opacity:1"/></g></g><path d="M688.896 215.801c-1.178 2.75-3.141 3.627-8.05 3.627H600.63c-5.431 0-7.787 2.72-9.03 5.71-1.31-2.99-3.665-5.71-9.097-5.71h-80.38c-4.907 0-6.87-.877-8.048-3.627l-.72-.982c.065 2.631.458 3.668 1.636 4.823 1.178 1.156 3.73 1.754 7.46 1.754h81.034c4.58 0 6.74 2.681 8.049 5.352 1.374-2.671 3.6-5.352 8.115-5.352h80.805c3.665 0 6.348-.637 7.526-1.754 1.178-1.116 1.57-2.152 1.636-4.823zM699.146 143.343c2.75 1.168 3.627 3.114 3.627 7.979v15.879c0 5.384.758 7.07 3.747 8.303-2.99 1.297-3.747 2.984-3.747 8.368v15.547c0 4.865-.877 6.811-3.627 7.979l-.981.713c2.63-.065 3.667-.454 4.823-1.622 1.155-1.167 1.753-3.697 1.753-7.395V182.9c0-4.54.718-6.033 3.388-7.33-2.67-1.362-3.388-2.92-3.388-7.395V151.71c0-3.632-.637-6.292-1.753-7.46-1.117-1.167-2.153-1.557-4.823-1.621z" style="font-style:normal;font-variant:normal;font-weight:400;font-stretch:normal;font-size:medium;line-height:125%;font-family:STIXGeneral;-inkscape-font-specification:STIXGeneral;letter-spacing:0;word-spacing:0;fill:#000;fill-opacity:1;stroke:none;stroke-width:2.04504px;stroke-linecap:butt;stroke-linejoin:miter;stroke-opacity:1" transform="translate(-254.668 56.767)"/><g transform="matrix(1.65582 0 0 1.65393 -167.763 41.108)"><use xlink:href="#Z" width="100%" height="100%" x="293.88" y="156.72" style="fill:#000;fill-opacity:1;stroke:#000;stroke-width:.0494309;stroke-miterlimit:4;stroke-dasharray:none"/><use xlink:href="#aa" width="100%" height="100%" x="299.76" y="156.72" style="fill:#000;fill-opacity:1;stroke:#000;stroke-width:.0494309;stroke-miterlimit:4;stroke-dasharray:none"/><g style="fill:#000;fill-opacity:1;stroke:#000;stroke-width:.0494309;stroke-miterlimit:4;stroke-dasharray:none"><use xlink:href="#Z" width="100%" height="100%" x="309" y="156.72" style="stroke:#000;stroke-width:.0494309;stroke-miterlimit:4;stroke-dasharray:none"/></g><g style="fill:#000;fill-opacity:1;stroke:#000;stroke-width:.0494309;stroke-miterlimit:4;stroke-dasharray:none"><use xlink:href="#ab" width="100%" height="100%" x="313.44" y="158.28" style="stroke:#000;stroke-width:.0494309;stroke-miterlimit:4;stroke-dasharray:none"/></g></g><g transform="matrix(1.65582 0 0 1.65408 -24.12 -96.643)"><use xlink:href="#ac" width="100%" height="100%" x="293.88" y="200.52" style="fill:#000;fill-opacity:1;stroke:#000;stroke-width:.0494287;stroke-miterlimit:4;stroke-dasharray:none"/><use xlink:href="#aa" width="100%" height="100%" x="299.76" y="200.52" style="fill:#000;fill-opacity:1;stroke:#000;stroke-width:.0494287;stroke-miterlimit:4;stroke-dasharray:none"/><g style="fill:#000;fill-opacity:1;stroke:#000;stroke-width:.0494287;stroke-miterlimit:4;stroke-dasharray:none"><use xlink:href="#ac" width="100%" height="100%" x="309" y="200.52" style="stroke:#000;stroke-width:.0494287;stroke-miterlimit:4;stroke-dasharray:none"/></g><g style="fill:#000;fill-opacity:1;stroke:#000;stroke-width:.0494287;stroke-miterlimit:4;stroke-dasharray:none"><use xlink:href="#ab" width="100%" height="100%" x="313.44" y="202.08" style="stroke:#000;stroke-width:.0494287;stroke-miterlimit:4;stroke-dasharray:none"/></g></g></g></svg>