<svg xmlns="http://www.w3.org/2000/svg" xmlns:xlink="http://www.w3.org/1999/xlink" width="800" height="300" aria-hidden="true" viewBox="0 -18.033 800 300"><defs><path id="a" stroke-width="1" d="m304-161-12-16C134-87 48 82 48 252c0 185 87 329 247 424l9-16C165 541 134 448 134 255c0-186 30-299 170-416Z"/><path id="b" stroke-width="1" d="M394 0H118v15c74 4 95 25 95 80v449c0 34-9 49-30 49-10 0-27-5-45-12l-27-10v14l179 91 9-3V76c0-43 20-61 95-61z"/><path id="c" stroke-width="1" d="M476 330c0-172-63-344-226-344C79-14 24 172 24 336c0 177 69 340 230 340 131 0 222-141 222-346Zm-96-5c0 208-44 325-132 325-83 0-128-118-128-321S164 12 250 12c85 0 130 115 130 313z"/><path id="d" stroke-width="1" d="M621 220H64v66h557z"/><path id="e" stroke-width="1" d="m438 681-36-85c-3-7-11-13-27-13H181l-40-85c143-27 193-49 250-128 26-36 35-74 35-127 0-96-30-158-98-208-47-34-102-49-170-49C83-14 31 10 31 48c0 25 17 38 45 38 23 0 42-5 74-31 28-23 51-32 71-32 70 0 135 83 135 169 0 64-22 114-67 150-47 38-117 70-213 70-9 0-12 2-12 8 0 2 1 5 1 5l109 237h207c23 0 32 5 48 26z"/><path id="f" stroke-width="1" d="m29 660 12 16c153-92 244-259 244-429 0-185-88-327-247-424l-9 16C171-44 199 50 199 244c0 187-25 302-170 416Z"/><path id="g" stroke-width="1" d="M474 137 420 0H29v12l178 189c94 99 130 175 130 260 0 91-54 141-139 141-72 0-107-32-147-130l-21 5c21 117 85 199 208 199 113 0 185-77 185-176 0-79-39-154-128-248L130 76h234c42 0 63 11 96 67z"/><path id="h" stroke-width="1" d="M637 320H48v66h589zm0-200H48v66h589z"/><path id="i" stroke-width="1" d="m597 22-46-47-231 230L89-25 43 21l230 231L43 483l47 46 230-230 231 230 46-45-230-232Z"/></defs><path d="M129.2 92.331a19.035 19.035 0 0 1-.394-2.446c-.932-9.827 5.997-18.805 14.225-23.57 18.448-10.687 40.254-13.175 61.17-14.261 27.924-1.45 57.267 1.79 82.47 12.39 7.548 3.176 15.247 8.827 18.782 14.589 1.386 2.258 3.334 5.525 3.923 7.543-.077-.683-.284-1.31-.302-2.007-.047-1.821.388-3.548 1.115-5.215.503-.84.934-1.728 1.51-2.522 5.794-7.991 15.417-11.535 24.668-13.674 2.868-.495 5.721-1.09 8.605-1.485 15.481-2.123 31.33-1.94 46.803.053 2.564.44 5.141.804 7.69 1.318 10.086 2.033 21.319 5.715 29.583 9.52 6.248 2.875 11.357 6.008 17.07 9.842 2.652 1.78 5.88 4.528 7.75 7.212.188.328 1.217 1.956.447 2.02-2.064-1.017-2.619-4.107-3.013-6.07.043-.835-.027-1.684.128-2.506 1.6-8.52 10.569-12.458 17.656-15.447 2.627-.772 5.213-1.702 7.881-2.317 15.784-3.638 32.26-2.74 48.132-.282 10.536 2.378 22.14 4.92 29.837 13.173.946 1.014 1.694 2.195 2.542 3.293 2.041 3.93 4.234 8.33 1.256 12.409-.67.57-1.074.628-.99.497 6.503-3.54 14.278-4.497 21.535-5.828 26.725-4.903 55.274-6.227 81.093 3.386 10.36 3.857 20.603 11.598 23.006 23.115 2.863 13.719-3.763 27.57-13.312 37.12-16.24 16.241-38.391 25.11-60.348 30.557-25.32 6.28-52.228 3.688-76.792-4.33-3.92-1.28-8.142-2.585-11.3-5.333-.134-.243.582-.083.836.03.36.16.687.39 1.03.584 2.517 2.063 5.622 5.155 4.302 8.807-.35.966-1.071 1.755-1.607 2.632-1.09.87-2.075 1.892-3.272 2.608-3.45 2.064-8.112 3.548-11.905 4.524-9.03 2.325-18.324 3.316-27.641 3.227-3.402-.157-6.811-.193-10.205-.472-15.266-1.256-30.36-4.943-44.365-11.154-5.736-2.987-14.513-7.317-17.576-13.523-.206-.416-.253-.893-.379-1.34.075-.262.04-.586.224-.788 1.377-1.523 4.811 2.367 5.315 3.289.262.668.61 1.31.785 2.006 1.54 6.165-3.062 11.15-7.442 14.749-1.619 1.055-3.163 2.234-4.856 3.167-9.331 5.146-20.315 7.837-30.882 8.622-3.087.23-6.19.123-9.286.184-3.057-.3-6.135-.43-9.17-.899-13.318-2.057-26.182-7.029-38.01-13.351-1.717-1.098-3.478-2.13-5.153-3.293-4.774-3.315-8.956-7.382-13.194-11.333-.303-.296-2.27-1.686-.691-1.378 1.765.158 3.605.454 4.784 1.912.11.328.31.64.33.986.262 4.477-8.392 7.708-11.204 9.326-2.032.854-4.033 1.787-6.097 2.56-14.553 5.46-29.996 8.11-45.496 8.686-3.225-.011-6.452.084-9.674-.033-13.784-.501-27.58-2.705-40.876-6.31-8.312-2.705-17.352-5.427-23.654-11.811-.252-.481-.643-.912-.758-1.443-.66-3.044 5.73-3.148 7.372-3.161 1.512.123 7.422.414 4.302 3.407-.607.582-1.353 1-2.03 1.5-1.157.552-2.284 1.173-3.473 1.655-13.018 5.286-27.482 5.967-41.338 6.074-3.93-.223-7.874-.272-11.79-.669-19.724-1.998-38.99-7.949-56.01-18.16-5.64-4.2-10.08-6.705-14.084-12.573-4.03-5.902-4.931-13.856-3.376-20.693.564-2.48 1.696-4.795 2.544-7.193 4.065-6.463 4.583-8.138 10.244-13.563 4.337-4.157 9.623-7.94 15.06-10.521 5.567-2.643 10.21-3.409 16.145-4.81 2.803-.424 5.588-.996 8.41-1.27 4.904-.478 10.972-.472 15.903.018 4.046.402 8.547.98 11.888 3.514" style="fill:#baffeb;fill-opacity:1;stroke:#000;stroke-width:1;stroke-dasharray:none"/><use xlink:href="#a" style="stroke-width:.740741" transform="matrix(.0257 0 0 -.0257 68.588 140.132)"/><g style="stroke-width:.740741" transform="matrix(.0257 0 0 -.0257 77.147 140.132)"><use xlink:href="#b" style="stroke-width:.740741"/><use xlink:href="#c" x="500" style="stroke-width:.740741"/></g><use xlink:href="#d" x="1556" style="stroke-width:.740741" transform="matrix(.0257 0 0 -.0257 68.588 140.132)"/><g style="stroke-width:.740741" transform="matrix(.0257 0 0 -.0257 131.922 140.132)"><use xlink:href="#b" style="stroke-width:.740741"/><use xlink:href="#e" x="500" style="stroke-width:.740741"/></g><g style="stroke-width:.740741" transform="matrix(.0257 0 0 -.0257 157.652 140.132)"><use xlink:href="#f" style="stroke-width:.740741"/><use xlink:href="#g" x="471" y="583" style="stroke-width:.740741" transform="scale(.707)"/></g><use xlink:href="#h" x="4530" style="stroke-width:.740741" transform="matrix(.0257 0 0 -.0257 68.588 140.132)"/><use xlink:href="#a" x="5493" style="stroke-width:.740741" transform="matrix(.0257 0 0 -.0257 68.588 140.132)"/><g style="stroke-width:.740741" transform="matrix(.0257 0 0 -.0257 218.365 140.132)"><use xlink:href="#b" style="stroke-width:.740741"/><use xlink:href="#c" x="500" style="stroke-width:.740741"/></g><use xlink:href="#d" x="7050" style="stroke-width:.740741" transform="matrix(.0257 0 0 -.0257 68.588 140.132)"/><g style="stroke-width:.740741" transform="matrix(.0257 0 0 -.0257 273.14 140.132)"><use xlink:href="#b" style="stroke-width:.740741"/><use xlink:href="#e" x="500" style="stroke-width:.740741"/></g><use xlink:href="#f" x="8959" style="stroke-width:.740741" transform="matrix(.0257 0 0 -.0257 68.588 140.132)"/><use xlink:href="#i" x="9515" style="stroke-width:.740741" transform="matrix(.0257 0 0 -.0257 68.588 140.132)"/><use xlink:href="#a" x="10377" style="stroke-width:.740741" transform="matrix(.0257 0 0 -.0257 68.588 140.132)"/><g style="stroke-width:.740741" transform="matrix(.0257 0 0 -.0257 343.903 140.132)"><use xlink:href="#b" style="stroke-width:.740741"/><use xlink:href="#c" x="500" style="stroke-width:.740741"/></g><use xlink:href="#d" x="11934" style="stroke-width:.740741" transform="matrix(.0257 0 0 -.0257 68.588 140.132)"/><g style="stroke-width:.740741" transform="matrix(.0257 0 0 -.0257 398.678 140.132)"><use xlink:href="#b" style="stroke-width:.740741"/><use xlink:href="#e" x="500" style="stroke-width:.740741"/></g><use xlink:href="#f" x="13843" style="stroke-width:.740741" transform="matrix(.0257 0 0 -.0257 68.588 140.132)"/><use xlink:href="#h" x="14454" style="stroke-width:.740741" transform="matrix(.0257 0 0 -.0257 68.588 140.132)"/><use xlink:href="#a" x="15417" style="stroke-width:.740741" transform="matrix(.0257 0 0 -.0257 68.588 140.132)"/><use xlink:href="#d" x="15751" style="stroke-width:.740741" transform="matrix(.0257 0 0 -.0257 68.588 140.132)"/><use xlink:href="#e" x="16436" style="stroke-width:.740741" transform="matrix(.0257 0 0 -.0257 68.588 140.132)"/><use xlink:href="#f" x="16937" style="stroke-width:.740741" transform="matrix(.0257 0 0 -.0257 68.588 140.132)"/><use xlink:href="#i" x="17493" style="stroke-width:.740741" transform="matrix(.0257 0 0 -.0257 68.588 140.132)"/><use xlink:href="#a" x="18355" style="stroke-width:.740741" transform="matrix(.0257 0 0 -.0257 68.588 140.132)"/><use xlink:href="#d" x="18689" style="stroke-width:.740741" transform="matrix(.0257 0 0 -.0257 68.588 140.132)"/><use xlink:href="#e" x="19374" style="stroke-width:.740741" transform="matrix(.0257 0 0 -.0257 68.588 140.132)"/><use xlink:href="#f" x="19875" style="stroke-width:.740741" transform="matrix(.0257 0 0 -.0257 68.588 140.132)"/><g transform="matrix(.01904 0 0 -.01904 122.821 -107.25)"><use xlink:href="#a"/><g transform="translate(333)"><use xlink:href="#b"/><use xlink:href="#c" x="500"/></g><use xlink:href="#d" x="1556"/><g transform="translate(2464)"><use xlink:href="#b"/><use xlink:href="#e" x="500"/></g><g transform="translate(3465)"><use xlink:href="#f"/><use xlink:href="#g" x="471" y="583" transform="scale(.707)"/></g><use xlink:href="#h" x="4530"/><use xlink:href="#a" x="5493"/><g transform="translate(5827)"><use xlink:href="#b"/><use xlink:href="#c" x="500"/></g><use xlink:href="#d" x="7050"/><g transform="translate(7958)"><use xlink:href="#b"/><use xlink:href="#e" x="500"/></g><use xlink:href="#f" x="8959"/><use xlink:href="#i" x="9515"/><use xlink:href="#a" x="10377"/><g transform="translate(10711)"><use xlink:href="#b"/><use xlink:href="#c" x="500"/></g><use xlink:href="#d" x="11934"/><g transform="translate(12842)"><use xlink:href="#b"/><use xlink:href="#e" x="500"/></g><use xlink:href="#f" x="13843"/><use xlink:href="#h" x="14454"/><use xlink:href="#a" x="15417"/><use xlink:href="#d" x="15751"/><use xlink:href="#e" x="16436"/><use xlink:href="#f" x="16937"/><use xlink:href="#i" x="17493"/><use xlink:href="#a" x="18355"/><use xlink:href="#d" x="18689"/><use xlink:href="#e" x="19374"/><use xlink:href="#f" x="19875"/><use xlink:href="#h" x="20486"/><g transform="translate(21449)"><use xlink:href="#g"/><use xlink:href="#e" x="500"/></g></g><circle cx="23.001" cy="-297.05" r=".01" style="fill:#000;stroke:#000"/><circle cx="22.001" cy="-193.044" r=".01" style="fill:#000;stroke:#000"/><path d="M42.247-231.474c-.506-.517-1.048-.876-1.706-1.199-7.001-3.44-18.607-3.108-26.174-2.37-2.825.274-5.612.847-8.418 1.27-5.94 1.403-10.59 2.17-16.162 4.815-5.446 2.586-10.742 6.374-15.086 10.537-5.67 5.433-6.19 7.11-10.263 13.583-.851 2.403-1.987 4.724-2.554 7.21-1.562 6.858-.661 14.838 3.378 20.76 4.016 5.887 8.46 8.392 14.116 12.605C-3.59-154.046 15.69-148.09 35.426-146.09c3.919.397 7.865.447 11.798.67 13.868-.106 28.342-.787 41.374-6.07 1.191-.483 2.321-1.104 3.482-1.656.685-.548 3.887-2.176 2.679-3.78-1.014-1.344-3.569-1.194-4.983-1.31-1.717.016-8.1.117-7.478 3.242.11.552.513 1.002.77 1.504 6.307 6.414 15.377 9.141 23.71 11.852 13.306 3.605 27.108 5.81 40.9 6.31 3.224.117 6.452.022 9.679.032 15.51-.575 30.961-3.228 45.525-8.686 2.066-.775 4.07-1.708 6.104-2.562 2.867-1.644 11.502-4.858 11.266-9.394-.02-.361-.223-.688-.334-1.032-1.19-1.508-3.063-1.817-4.869-1.98-1.709-.293.297 1.238.614 1.548 4.243 3.951 8.428 8.019 13.207 11.335 1.677 1.164 3.44 2.198 5.16 3.297 11.837 6.326 24.712 11.3 38.04 13.36 3.039.468 6.12.599 9.18.899 3.099-.061 6.205.046 9.296-.183 10.58-.785 21.576-3.479 30.92-8.628 1.695-.934 3.244-2.114 4.866-3.172 4.414-3.62 9.028-8.633 7.488-14.838-.175-.704-.527-1.352-.79-2.029-.543-.973-3.973-4.883-5.438-3.347-.207.217-.19.569-.286.853.126.465.168.961.378 1.395 3.012 6.202 11.927 10.609 17.63 13.577 14.016 6.214 29.12 9.901 44.396 11.158 3.396.28 6.808.316 10.211.473 9.325.09 18.626-.902 27.664-3.226 3.799-.977 8.47-2.462 11.926-4.527 1.203-.72 2.194-1.745 3.291-2.618.543-.885 1.275-1.68 1.63-2.656 1.349-3.703-1.765-6.834-4.321-8.932-.348-.198-.679-.43-1.044-.593-.288-.13-1.03-.327-.946-.022.254.924 2.793 2.023 3.328 2.333 10.476 4.747 21.765 7.102 33.034 9.054 9.21 1.354 18.515 2.203 27.83 1.789 6.822-.303 8.436-.683 15.309-1.61 15.431-2.884 30.672-7.699 44.672-14.882 2.893-1.484 5.662-3.2 8.493-4.801 9.555-6.22 18.55-13.702 24.331-23.708 3.188-5.518 3.192-6.884 4.889-12.85 1.323-8.442.406-17.021-5.052-23.954-3.696-4.695-6.324-5.904-11.254-9.269-2.576-1.206-5.054-2.647-7.728-3.618-14.359-5.211-32.055-6.799-47.232-6.511-3.919.074-7.828.418-11.742.627-13.275 1.488-26.71 3.254-39.552 7.092-.779.523-2.655.638-3.216 1.626-.38.668.902-.166 1.123-.35 3.025-4.12.83-8.549-1.236-12.528-.85-1.102-1.602-2.288-2.551-3.306-7.711-8.271-19.334-10.82-29.892-13.201-15.884-2.459-32.37-3.356-48.167.281-2.671.615-5.26 1.546-7.89 2.318-7.122 2.998-16.105 6.955-17.723 15.504-.157.83-.088 1.686-.132 2.53.392 2.03.97 5.092 3.063 6.163 1.01-.014-.093-1.77-.316-2.159-1.875-2.701-5.08-4.102-7.784-5.83a194.051 194.051 0 0 0-17.607-10.727c-9.224-4.557-18.983-8.02-29.077-10.054-2.55-.514-5.13-.88-7.695-1.319-15.481-1.99-31.338-2.174-46.827-.051-2.886.395-5.741.99-8.612 1.485-9.273 2.141-18.913 5.694-24.726 13.7-.579.796-1.013 1.688-1.519 2.533-.735 1.68-1.176 3.423-1.13 5.26.017.704.225 1.334.3 2.022-.004.043-.014.17-.013.128.028-1.253-.325-2.428-.733-3.605-.478-1.451-1.226-2.774-1.929-4.123-.406-1.073-.91-2.097-1.397-3.142-3.617-5.792-10.298-8.252-16.296-10.803-11.702-4.718-24.095-7.322-36.41-9.862-13.868-2.545-27.992-3.602-42.086-3.408-3.315.046-6.627.228-9.94.342-16.522 1.265-33.383 3.33-48.818 9.745-2.518 1.047-4.906 2.38-7.36 3.57-7.027 4.214-13.136 9.895-15.123 18.14-.854 3.542-.595 5.015-.064 8.773" style="fill:#e5f6ff;fill-opacity:1;stroke:#000;stroke-width:1;stroke-dasharray:none"/><path d="M751.822 113.289c.633 1.058 1.38 2.062 1.874 2.99 3.787 7.207 3.829 15.33 1.858 23.082-1.326 3.663-1.716 5.633-4.095 8.765-4.34 5.712-11.078 7.671-17.943 8.098-5.363-.359-7.018-.11-12.183-1.924-5.875-2.065-11.294-5.786-14.593-11.18-1.033-1.687-1.58-3.628-2.369-5.441-.652-5.089-1.415-6.439.266-11.44 1.92-5.711 6.392-10.067 11.653-12.775 1.837-.946 3.851-1.497 5.777-2.246 2.018-.4 4.013-.946 6.055-1.201 6.3-.786 13.729-.43 18.52 4.227" style="fill:#baffeb;fill-opacity:1;stroke:#000;stroke-width:1;stroke-dasharray:none"/><path d="m511.922 305.736.183-.206c-1.013-.8-2.69-.49-3.97-.343-3.123.359-6.644 1.765-8.806 4.474-1.523 1.937-.842 4.801.755 6.441 2.547 2.841 6.587 3.702 10.183 3.287.253.002 2.031-.32 1.543-.507-.108-.147-.05-.705-.326-.26-.65 1.499 1.855 3.185 3.413 3.884 4.423 1.985 9.74 1.96 14.374.2 1.56-.592 4.58-2.56 2.873-4.427-.134-.146-.287-.18-.437-.246-.144-.062-.397.004-.35.192.419 1.65 3.399 1.315 4.806 1.134 2.28-.293 5.206-1.589 6.068-4.453.843-2.938-.967-5.92-3.111-7.35-2.147-1.433-5.293-1.926-7.585-.834-1.104.526-.654.957.2.693 1.394-.43 1.277-2.142 1.231-2.414-.306-1.811-2.266-3.632-3.599-4.411-2.71-1.585-6.528-2.74-9.566-2.95-3.256-.226-7.33-.002-9.646 2.524-1.526 1.665-.944 5.015.748 5.943" style="fill:#e5f6ff;fill-opacity:1;stroke:#000;stroke-width:.999999;stroke-dasharray:none"/><path d="M679.268-89.857h-11.215v-1.256h11.215zm0 3.808h-11.215v-1.256h11.215zM702.401-84.582c0 .552-.495 1.028-1.066 1.028-.59 0-1.047-.457-1.047-1.047 0-.59.476-1.067 1.066-1.067.552 0 1.047.514 1.047 1.086zm-6.34 0c0 .552-.495 1.028-1.066 1.028-.59 0-1.048-.457-1.048-1.047 0-.59.476-1.067 1.067-1.067.552 0 1.047.514 1.047 1.086zm-6.34 0c0 .552-.495 1.028-1.067 1.028-.59 0-1.047-.457-1.047-1.047 0-.59.476-1.067 1.066-1.067.553 0 1.048.514 1.048 1.086z"/><use xlink:href="#a" style="stroke-width:.740741" transform="matrix(.0257 0 0 -.0257 736.136 -206.371)"/><g style="stroke-width:.740741" transform="matrix(.0257 0 0 -.0257 744.696 -206.371)"><use xlink:href="#b" style="stroke-width:.740741"/><use xlink:href="#c" x="500" style="stroke-width:.740741"/></g><use xlink:href="#d" x="1556" style="stroke-width:.740741" transform="matrix(.0257 0 0 -.0257 736.136 -206.371)"/><g style="stroke-width:.740741" transform="matrix(.0257 0 0 -.0257 799.47 -206.371)"><use xlink:href="#b" style="stroke-width:.740741"/><use xlink:href="#e" x="500" style="stroke-width:.740741"/></g><g style="stroke-width:.740741" transform="matrix(.0257 0 0 -.0257 825.2 -206.371)"><use xlink:href="#f" style="stroke-width:.740741"/><use xlink:href="#g" x="471" y="583" style="stroke-width:.740741" transform="scale(.707)"/></g><use xlink:href="#h" x="4530" style="stroke-width:.740741" transform="matrix(.0257 0 0 -.0257 736.136 -206.371)"/><use xlink:href="#a" x="5493" style="stroke-width:.740741" transform="matrix(.0257 0 0 -.0257 736.136 -206.371)"/><g style="stroke-width:.740741" transform="matrix(.0257 0 0 -.0257 885.913 -206.371)"><use xlink:href="#b" style="stroke-width:.740741"/><use xlink:href="#c" x="500" style="stroke-width:.740741"/></g><use xlink:href="#d" x="7050" style="stroke-width:.740741" transform="matrix(.0257 0 0 -.0257 736.136 -206.371)"/><g style="stroke-width:.740741" transform="matrix(.0257 0 0 -.0257 940.689 -206.371)"><use xlink:href="#b" style="stroke-width:.740741"/><use xlink:href="#e" x="500" style="stroke-width:.740741"/></g><use xlink:href="#f" x="8959" style="stroke-width:.740741" transform="matrix(.0257 0 0 -.0257 736.136 -206.371)"/><use xlink:href="#i" x="9515" style="stroke-width:.740741" transform="matrix(.0257 0 0 -.0257 736.136 -206.371)"/><use xlink:href="#a" x="10377" style="stroke-width:.740741" transform="matrix(.0257 0 0 -.0257 736.136 -206.371)"/><g style="stroke-width:.740741" transform="matrix(.0257 0 0 -.0257 1011.452 -206.371)"><use xlink:href="#b" style="stroke-width:.740741"/><use xlink:href="#c" x="500" style="stroke-width:.740741"/></g><use xlink:href="#d" x="11934" style="stroke-width:.740741" transform="matrix(.0257 0 0 -.0257 736.136 -206.371)"/><g style="stroke-width:.740741" transform="matrix(.0257 0 0 -.0257 1066.227 -206.371)"><use xlink:href="#b" style="stroke-width:.740741"/><use xlink:href="#e" x="500" style="stroke-width:.740741"/></g><use xlink:href="#f" x="13843" style="stroke-width:.740741" transform="matrix(.0257 0 0 -.0257 736.136 -206.371)"/><use xlink:href="#h" x="14454" style="stroke-width:.740741" transform="matrix(.0257 0 0 -.0257 736.136 -206.371)"/><use xlink:href="#a" x="15417" style="stroke-width:.740741" transform="matrix(.0257 0 0 -.0257 736.136 -206.371)"/><use xlink:href="#d" x="15751" style="stroke-width:.740741" transform="matrix(.0257 0 0 -.0257 736.136 -206.371)"/><use xlink:href="#e" x="16436" style="stroke-width:.740741" transform="matrix(.0257 0 0 -.0257 736.136 -206.371)"/><use xlink:href="#f" x="16937" style="stroke-width:.740741" transform="matrix(.0257 0 0 -.0257 736.136 -206.371)"/><use xlink:href="#i" x="17493" style="stroke-width:.740741" transform="matrix(.0257 0 0 -.0257 736.136 -206.371)"/><use xlink:href="#a" x="18355" style="stroke-width:.740741" transform="matrix(.0257 0 0 -.0257 736.136 -206.371)"/><use xlink:href="#d" x="18689" style="stroke-width:.740741" transform="matrix(.0257 0 0 -.0257 736.136 -206.371)"/><use xlink:href="#e" x="19374" style="stroke-width:.740741" transform="matrix(.0257 0 0 -.0257 736.136 -206.371)"/><use xlink:href="#f" x="19875" style="stroke-width:.740741" transform="matrix(.0257 0 0 -.0257 736.136 -206.371)"/><use xlink:href="#h" x="20486" style="stroke-width:.740741" transform="matrix(.0257 0 0 -.0257 736.136 -206.371)"/><g style="stroke-width:.740741" transform="matrix(.0257 0 0 -.0257 1287.461 -206.371)"><use xlink:href="#g" style="stroke-width:.740741"/><use xlink:href="#e" x="500" style="stroke-width:.740741"/></g><use xlink:href="#h" x="20486" style="stroke-width:.740741" transform="matrix(.0257 0 0 -.0257 68.588 140.132)"/><path d="M642.794 139.026c0 .746-.668 1.388-1.44 1.388a1.394 1.394 0 0 1-1.413-1.413c0-.797.643-1.44 1.44-1.44.745 0 1.413.694 1.413 1.465zm-8.56 0c0 .746-.667 1.388-1.439 1.388a1.394 1.394 0 0 1-1.413-1.413c0-.797.642-1.44 1.44-1.44.745 0 1.413.694 1.413 1.465zm-8.559 0c0 .746-.668 1.388-1.439 1.388a1.394 1.394 0 0 1-1.414-1.413c0-.797.643-1.44 1.44-1.44.745 0 1.413.694 1.413 1.465z" style="fill:#000"/><path d="M342.045-57.13v-4.194h3.446l-7.474-7.264-7.324 7.264h3.242v4.193h-8.379v20.552h24.922V-57.13z" style="fill:#b1ffe8;fill-opacity:1;stroke:#000;stroke-width:.999999;stroke-miterlimit:4;stroke-dasharray:none"/></svg>