<svg xmlns="http://www.w3.org/2000/svg" xmlns:xlink="http://www.w3.org/1999/xlink" width="429.906" height="464.345" viewBox="0 0 403.037 435.324"><defs><symbol id="c" overflow="visible" style="overflow:visible"><path d="M6.563-2.297c.171 0 .359 0 .359-.203 0-.188-.188-.188-.36-.188h-5.39c-.172 0-.344 0-.344.188 0 .203.172.203.344.203zm0 0" style="stroke:none"/></symbol><symbol id="j" overflow="visible" style="overflow:visible"><path d="M6.844-3.266c.156 0 .343 0 .343-.187 0-.203-.187-.203-.328-.203H.891c-.141 0-.329 0-.329.203 0 .187.188.187.329.187zm.015 1.938c.141 0 .329 0 .329-.203 0-.188-.188-.188-.344-.188H.89c-.141 0-.329 0-.329.188 0 .203.188.203.329.203zm0 0"/></symbol><symbol id="p" overflow="visible" style="overflow:visible"><path d="M3.297 2.39c0-.03 0-.046-.172-.218C1.891.922 1.562-.968 1.562-2.5c0-1.734.375-3.469 1.61-4.703.125-.125.125-.14.125-.172 0-.078-.031-.11-.094-.11-.11 0-1 .688-1.594 1.954C1.11-4.438.984-3.328.984-2.5c0 .781.11 1.984.657 3.125C2.25 1.844 3.094 2.5 3.203 2.5c.063 0 .094-.031.094-.11zm0 0"/></symbol><symbol id="s" overflow="visible" style="overflow:visible"><path d="M2.875-2.5c0-.766-.11-1.969-.656-3.11C1.625-6.827.766-7.483.672-7.483a.107.107 0 0 0-.11.109c0 .031 0 .047.188.234.984.985 1.547 2.563 1.547 4.641 0 1.719-.36 3.469-1.594 4.719-.14.125-.14.14-.14.172 0 .062.046.109.109.109.094 0 1-.688 1.578-1.953.516-1.094.625-2.203.625-3.047Zm0 0"/></symbol><symbol id="v" overflow="visible" style="overflow:visible"><path d="M4.078-2.297H6.86c.141 0 .329 0 .329-.203 0-.188-.188-.188-.329-.188H4.08v-2.796c0-.141 0-.329-.204-.329-.203 0-.203.188-.203.329v2.796H.89c-.141 0-.329 0-.329.188 0 .203.188.203.329.203h2.78V.5c0 .14 0 .328.204.328.203 0 .203-.187.203-.328zm0 0"/></symbol><symbol id="n" overflow="visible" style="overflow:visible"><path d="M.156-3.984c.125-.032.188-.047.297-.047.578 0 .719.25 1.188 1.968.156.641.406 1.813.406 1.985 0 .156-.063.312-.219.5-.297.406-.5.672-.61.781C1 1.422.892 1.5.75 1.5c-.047 0-.125-.031-.234-.11-.141-.109-.25-.171-.36-.171a.387.387 0 0 0-.39.39c0 .25.218.438.5.438.64 0 1.953-1.485 3.03-3.469.673-1.219.954-1.937.954-2.422a.554.554 0 0 0-.547-.547c-.234 0-.39.141-.39.36 0 .156.078.265.28.39.188.11.25.204.25.344 0 .39-.359 1.172-1.218 2.578l-.188-1.156c-.156-.875-.718-2.516-.859-2.516h-.125l-.984.172a1.759 1.759 0 0 1-.313.063zm0 0"/></symbol><symbol id="o" overflow="visible" style="overflow:visible"><path d="M4-1.11c-.078.094-.125.157-.219.266-.219.313-.344.406-.453.406-.14 0-.234-.124-.312-.406-.016-.078-.032-.14-.032-.172-.25-1.015-.359-1.468-.359-1.609.438-.781.797-1.219.969-1.219.062 0 .14.031.25.078.11.079.187.094.265.094.204 0 .344-.14.344-.36 0-.202-.172-.359-.406-.359-.438 0-.813.36-1.5 1.422l-.11-.547c-.14-.687-.25-.875-.53-.875-.22 0-.548.079-1.157.282l-.11.046.032.141c.39-.078.469-.11.562-.11.25 0 .313.095.454.688l.28 1.235-.812 1.156C.953-.641.75-.47.641-.47a.554.554 0 0 1-.25-.094.755.755 0 0 0-.329-.093c-.187 0-.328.14-.328.344 0 .265.204.421.5.421.297 0 .422-.093.922-.703.266-.312.485-.578.89-1.156L2.36-.562c.125.515.25.671.579.671.374 0 .624-.234 1.203-1.14zm0 0"/></symbol><symbol id="q" overflow="visible" style="overflow:visible"><path d="M4.625-1.094c-.156.14-.203.203-.281.282-.297.296-.422.406-.516.406-.078 0-.14-.063-.14-.125 0-.203.421-1.906.89-3.625.031-.094.031-.125.063-.203l-.079-.032-.609.063-.031.031-.11.484c-.078-.374-.359-.578-.796-.578C1.703-4.39.172-2.578.172-1 .172-.297.547.11 1.188.11c.703 0 1.125-.329 2-1.563-.204.781-.235.906-.235 1.14 0 .297.125.407.406.407C3.766.094 4-.094 4.75-1ZM3.078-4.172c.344.016.563.25.563.61 0 .828-.5 2-1.188 2.75-.234.265-.578.437-.875.437-.344 0-.578-.297-.578-.75 0-.547.39-1.563.813-2.188.406-.578.875-.89 1.265-.859Zm0 0"/></symbol><symbol id="r" overflow="visible" style="overflow:visible"><path d="M1.094-6.406c.593.015.656.047.656.265 0 .094-.031.204-.094.422-.015.078-.047.14-.047.203l-.03.063-1.345 5v.031c0 .234.766.531 1.329.531 1.5 0 3.156-1.75 3.156-3.312 0-.688-.485-1.188-1.157-1.188-.703 0-1.218.407-1.921 1.5.515-1.89.578-2.156 1.03-3.875l-.046-.046c-.5.093-.86.156-1.531.234zm2.078 2.5c.422 0 .703.328.703.86 0 .655-.516 1.718-1.11 2.343-.359.375-.796.578-1.218.578-.313 0-.453-.11-.453-.328 0-.61.297-1.578.703-2.313.453-.765.89-1.14 1.375-1.14Zm0 0"/></symbol><symbol id="k" overflow="visible" style="overflow:visible"><path d="m2.906-6.734-1.797.906v.14c.11-.046.22-.093.266-.109a1.24 1.24 0 0 1 .453-.11c.203 0 .297.141.297.47v4.515c0 .328-.078.547-.234.64-.157.094-.297.126-.72.126V0h2.75v-.156c-.78 0-.937-.11-.937-.578V-6.72zm0 0" style="stroke:none"/></symbol><symbol id="m" overflow="visible" style="overflow:visible"><path d="M2.531-6.734c-.547 0-.969.171-1.328.515-.578.563-.969 1.703-.969 2.875 0 1.078.329 2.25.797 2.813A1.87 1.87 0 0 0 2.5.14c.5 0 .922-.172 1.281-.516.578-.547.969-1.703.969-2.922 0-2.031-.906-3.437-2.219-3.437zm-.031.25c.844 0 1.281 1.125 1.281 3.218 0 2.079-.437 3.141-1.281 3.141-.86 0-1.297-1.063-1.297-3.14 0-2.11.438-3.22 1.297-3.22zm0 0" style="stroke:none"/></symbol><symbol id="a" overflow="visible" style="overflow:visible"><path d="M1.531-3.297c.578 0 .813.031 1.047.11.625.234 1.016.796 1.016 1.484 0 .828-.578 1.484-1.313 1.484-.265 0-.469-.078-.828-.312-.312-.172-.469-.25-.64-.25-.235 0-.391.14-.391.36 0 .343.437.562 1.14.562.766 0 1.547-.266 2.016-.672.469-.406.735-.985.735-1.656 0-.5-.172-.97-.454-1.282-.203-.219-.39-.344-.828-.531.688-.469.938-.828.938-1.375 0-.813-.64-1.36-1.563-1.36-.5 0-.937.173-1.297.485-.296.266-.437.531-.656 1.125l.14.047c.407-.734.86-1.063 1.485-1.063.656 0 1.11.438 1.11 1.063a1.4 1.4 0 0 1-.407.969c-.297.296-.578.453-1.25.687zm0 0" style="stroke:none"/></symbol><symbol id="l" overflow="visible" style="overflow:visible"><path d="M2.031-.016c0-.656-.25-1.046-.64-1.046a.517.517 0 0 0-.532.53c0 .266.204.532.532.532a.58.58 0 0 0 .343-.125c.032-.031.047-.031.047-.031.016 0 .016 0 .016.14 0 .75-.344 1.344-.672 1.672-.11.11-.11.125-.11.157 0 .078.048.109.094.109.11 0 .922-.766.922-1.938zm0 0" style="stroke:none"/></symbol><symbol id="t" overflow="visible" style="overflow:visible"><path d="m2.14-4.984-1.328.671v.094c.094-.031.172-.062.204-.078.14-.047.265-.078.328-.078.156 0 .234.11.234.344v3.343c0 .25-.062.422-.187.485-.11.062-.204.078-.516.094V0h2.031v-.11c-.578-.015-.703-.077-.703-.437v-4.422zm0 0" style="stroke:none"/></symbol><symbol id="u" overflow="visible" style="overflow:visible"><path d="m3.5-1.016-.094-.03c-.265.421-.375.484-.703.484H.938l1.25-1.297c.656-.688.937-1.25.937-1.829 0-.734-.594-1.296-1.36-1.296-.406 0-.796.156-1.062.453-.234.25-.344.484-.469 1.015l.157.032c.28-.72.546-.954 1.062-.954.625 0 1.047.422 1.047 1.032 0 .578-.344 1.265-.969 1.922L.22-.094V0h2.875zm0 0" style="stroke:none"/></symbol><clipPath id="b"><path d="M145.621 250H151v2h-5.379zm0 0"/></clipPath><clipPath id="d"><path d="M145.621 176.543h132.434v132.434H145.62zm0 0"/></clipPath><clipPath id="e"><path d="M437 245h10.738v11H437Zm0 0"/></clipPath><clipPath id="f"><path d="M437 245h10.738v12H437Zm0 0"/></clipPath><clipPath id="g"><path d="M315.305 245H326v12h-10.695zm0 0"/></clipPath><clipPath id="h"><path d="M315.305 250H320v2h-4.695zm0 0"/></clipPath><clipPath id="i"><path d="M315.305 190h132.433v106H315.305zm0 0"/></clipPath><clipPath id="w"><path d="M230.46 424H236v2h-5.54zm0 0"/></clipPath><clipPath id="x"><path d="M230.46 350.363h132.438V449H230.461zm0 0"/></clipPath></defs><g transform="translate(392.947 -483.942)"><path d="M163.914 109.255V23.117M163.914 188.659V121.23M138.045 188.659V23.117M112.181 188.659V23.117M86.317 188.659V23.117M60.448 188.659V23.117M34.583 188.659V23.117M8.714 109.252V23.117M8.714 188.659v-67.443M83.035 28.288h86.05M3.543 28.288h69.76M3.543 54.157h165.542M3.543 80.021h165.542M3.543 105.89h165.542M3.543 131.754h165.542M3.543 157.619h165.542M82.867 183.488h86.218M3.543 183.488h61.64" style="fill:none;stroke:#9e9ed1;stroke-width:.24906249;stroke-linecap:butt;stroke-linejoin:miter;stroke-miterlimit:10;stroke-opacity:1" transform="translate(-392.947 483.942)"/><path d="M-389.404 589.832h170.142M-306.63 672.601V501.883" style="fill:none;stroke:#000;stroke-width:.49812499;stroke-linecap:butt;stroke-linejoin:miter;stroke-miterlimit:10;stroke-opacity:1"/><path d="M-221.894 586.942c.18 1.084 2.168 2.71 2.71 2.89-.542.176-2.53 1.802-2.71 2.886M-309.52 504.891c1.083-.18 2.704-2.168 2.89-2.71.176.542 1.802 2.53 2.886 2.71" style="fill:none;stroke:#000;stroke-width:.75000002;stroke-linecap:round;stroke-linejoin:round;stroke-miterlimit:10;stroke-opacity:1;stroke-dasharray:none"/><use xlink:href="#a" width="100%" height="100%" x="271.426" y="253.938" style="fill:#b0b0d9;fill-opacity:1" transform="translate(-537.206 317.01) scale(1.125)"/><g clip-path="url(#b)" style="clip-rule:nonzero" transform="matrix(1.13 0 0 1.13 -553.591 317.311)"><use xlink:href="#c" width="100%" height="100%" x="143.397" y="253.602" style="fill:#b0b0d9;fill-opacity:1"/></g><use xlink:href="#a" width="100%" height="100%" x="151.197" y="253.602" style="fill:#b0b0d9;fill-opacity:1" transform="matrix(1.13 0 0 1.13 -553.591 317.311)"/><use xlink:href="#a" width="100%" height="100%" x="203.669" y="183.936" style="fill:#b0b0d9;fill-opacity:1" transform="translate(-546.122 308.76) scale(1.125)"/><use xlink:href="#c" width="100%" height="100%" x="195.929" y="307.758" style="fill:#b0b0d9;fill-opacity:1" transform="matrix(1.13 0 0 1.13 -546.13 324.438)"/><use xlink:href="#a" width="100%" height="100%" x="203.729" y="307.758" style="fill:#b0b0d9;fill-opacity:1" transform="matrix(1.13 0 0 1.13 -546.13 324.438)"/><g clip-path="url(#d)" style="clip-rule:nonzero" transform="matrix(1.25 0 0 1.25 -571.43 286.38)"><path d="m1290.664 4664.688 1655.43 1655.43" style="fill:none;stroke:red;stroke-width:7.97009993;stroke-linecap:butt;stroke-linejoin:miter;stroke-miterlimit:10;stroke-opacity:1" transform="matrix(.1 0 0 -.1 0 792)"/></g><path d="M376.019 188.659V23.117M350.15 188.659V23.117M324.286 188.659V23.117M298.416 188.659V23.117M272.552 188.659V23.117M246.688 188.659V23.117M220.819 109.318V23.117M220.819 188.659v-67.366M295.019 28.288h86.17M215.648 28.288h70.684M215.648 54.157H381.19M215.648 80.021H381.19M215.648 105.89H381.19M215.648 131.754H381.19M215.648 157.619H381.19M294.842 183.488h86.348M215.648 183.488h61.82" style="fill:none;stroke:#9e9ed1;stroke-width:.24906249;stroke-linecap:butt;stroke-linejoin:miter;stroke-miterlimit:10;stroke-opacity:1" transform="translate(-392.947 483.942)"/><path d="M-177.3 589.832H-6.58M-94.53 672.601V501.883" style="fill:none;stroke:#000;stroke-width:.49812499;stroke-linecap:butt;stroke-linejoin:miter;stroke-miterlimit:10;stroke-opacity:1"/><path d="M-9.59 586.942c.181 1.084 2.169 2.71 2.71 2.89-.541.176-2.529 1.802-2.71 2.886M-97.416 504.891c1.079-.18 2.705-2.168 2.885-2.71.181.542 1.807 2.53 2.891 2.71" style="fill:none;stroke:#000;stroke-width:.75000002;stroke-linecap:round;stroke-linejoin:round;stroke-miterlimit:10;stroke-opacity:1;stroke-dasharray:none"/><g clip-path="url(#e)" style="clip-rule:nonzero" transform="matrix(1.25 0 0 1.25 -571.43 286.38)"><path d="M437.39 255.945h12.419v-10.527H437.39zm0 0" style="fill:#fdfdfd;fill-opacity:1;fill-rule:nonzero;stroke:none"/></g><g clip-path="url(#f)" style="clip-rule:nonzero" transform="matrix(1.25 0 0 1.25 -571.43 286.38)"><path d="M4373.906 5360.547h124.18v105.273h-124.18zm0 0" style="fill:none;stroke:#fdfdfd;stroke-width:3.9849999;stroke-linecap:butt;stroke-linejoin:miter;stroke-miterlimit:10;stroke-opacity:1" transform="matrix(.1 0 0 -.1 0 792)"/></g><use xlink:href="#a" width="100%" height="100%" x="441.109" y="253.938" style="fill:#b0b0d9;fill-opacity:1" transform="translate(-515.5 316.966) scale(1.125)"/><g clip-path="url(#h)" style="clip-rule:nonzero" transform="matrix(1.13 0 0 1.13 -532.454 317.42)"><use xlink:href="#c" width="100%" height="100%" x="313.08" y="253.602" style="fill:#b0b0d9;fill-opacity:1"/></g><use xlink:href="#a" width="100%" height="100%" x="320.88" y="253.602" style="fill:#b0b0d9;fill-opacity:1" transform="matrix(1.13 0 0 1.13 -532.454 317.42)"/><use xlink:href="#a" width="100%" height="100%" x="373.352" y="183.936" style="fill:#b0b0d9;fill-opacity:1" transform="translate(-524.465 308.96) scale(1.125)"/><use xlink:href="#c" width="100%" height="100%" x="365.612" y="307.758" style="fill:#b0b0d9;fill-opacity:1" transform="matrix(1.13 0 0 1.13 -524.92 324.438)"/><use xlink:href="#a" width="100%" height="100%" x="373.412" y="307.758" style="fill:#b0b0d9;fill-opacity:1" transform="matrix(1.13 0 0 1.13 -524.92 324.438)"/><g clip-path="url(#i)" style="clip-rule:nonzero" transform="matrix(1.25 0 0 1.25 -571.43 286.38)"><path d="m2987.46 5078.555 1655.47 827.695" style="fill:none;stroke:red;stroke-width:7.97009993;stroke-linecap:butt;stroke-linejoin:miter;stroke-miterlimit:10;stroke-opacity:1" transform="matrix(.1 0 0 -.1 0 792)"/></g><path d="M269.964 326.688v-86.296M269.964 405.939v-66.176M244.1 405.939V240.392M218.23 405.939V240.392M192.367 405.939V240.392M166.497 405.939V240.392M140.633 405.939V240.392M114.769 326.073v-85.681M114.769 405.939v-66.352M189.278 245.568h85.862M109.593 245.568h70.734M109.593 271.432H275.14M109.593 297.296H275.14M109.593 323.165H275.14M109.593 349.03H275.14M109.593 374.899H275.14M189.365 400.763h85.775M109.593 400.763h61.608" style="fill:none;stroke:#9e9ed1;stroke-width:.24906249;stroke-linecap:butt;stroke-linejoin:miter;stroke-miterlimit:10;stroke-opacity:1" transform="translate(-392.947 483.942)"/><path d="M-283.354 807.108h169.67M-200.58 889.881V719.534" style="fill:none;stroke:#000;stroke-width:.49812499;stroke-linecap:butt;stroke-linejoin:miter;stroke-miterlimit:10;stroke-opacity:1"/><path d="M-115.844 804.217c.18 1.084 2.168 2.71 2.71 2.89-.542.182-2.53 1.807-2.71 2.891M-203.471 722.367c1.084-.181 2.71-2.163 2.89-2.705.181.542 1.807 2.524 2.891 2.705" style="fill:none;stroke:#000;stroke-width:.75000002;stroke-linecap:round;stroke-linejoin:round;stroke-miterlimit:10;stroke-opacity:1;stroke-dasharray:none"/><g style="fill:#000;fill-opacity:1;stroke:#000;stroke-width:.03;stroke-miterlimit:4;stroke-dasharray:none;stroke-opacity:1" transform="matrix(1.25 0 0 1.25 -571.43 286.38)"><use xlink:href="#j" width="100%" height="100%" x="177.199" y="325.954" style="stroke:#000;stroke-width:.03;stroke-miterlimit:4;stroke-dasharray:none;stroke-opacity:1"/></g><g style="fill:#000;fill-opacity:1;stroke:#000;stroke-width:.03;stroke-miterlimit:4;stroke-dasharray:none;stroke-opacity:1" transform="matrix(1.25 0 0 1.25 -571.43 286.38)"><use xlink:href="#j" width="100%" height="100%" x="207.319" y="325.954" style="stroke:#000;stroke-width:.03;stroke-miterlimit:4;stroke-dasharray:none;stroke-opacity:1"/></g><g style="fill:#000;fill-opacity:1;stroke:#000;stroke-width:.03;stroke-miterlimit:4;stroke-dasharray:none;stroke-opacity:1" transform="matrix(1.25 0 0 1.25 -571.43 286.38)"><use xlink:href="#k" width="100%" height="100%" x="217.279" y="325.954" style="stroke:#000;stroke-width:.03;stroke-miterlimit:4;stroke-dasharray:none;stroke-opacity:1"/></g><g style="fill:#000;fill-opacity:1;stroke:#000;stroke-width:.03;stroke-miterlimit:4;stroke-dasharray:none;stroke-opacity:1" transform="matrix(1.25 0 0 1.25 -571.43 286.38)"><use xlink:href="#l" width="100%" height="100%" x="222.319" y="325.954" style="stroke:#000;stroke-width:.03;stroke-miterlimit:4;stroke-dasharray:none;stroke-opacity:1"/></g><g style="fill:#000;fill-opacity:1;stroke:#000;stroke-width:.03;stroke-miterlimit:4;stroke-dasharray:none;stroke-opacity:1" transform="matrix(1.25 0 0 1.25 -571.43 286.38)"><use xlink:href="#j" width="100%" height="100%" x="234.439" y="325.954" style="stroke:#000;stroke-width:.03;stroke-miterlimit:4;stroke-dasharray:none;stroke-opacity:1"/></g><g style="fill:#000;fill-opacity:1;stroke:#000;stroke-width:.03;stroke-miterlimit:4;stroke-dasharray:none;stroke-opacity:1" transform="matrix(1.25 0 0 1.25 -571.43 286.38)"><use xlink:href="#m" width="100%" height="100%" x="244.399" y="325.954" style="stroke:#000;stroke-width:.03;stroke-miterlimit:4;stroke-dasharray:none;stroke-opacity:1"/></g><g style="fill:#000;fill-opacity:1;stroke:#000;stroke-width:.03;stroke-miterlimit:4;stroke-dasharray:none;stroke-opacity:1" transform="matrix(1.25 0 0 1.25 -571.43 286.38)"><use xlink:href="#n" width="100%" height="100%" x="170.479" y="325.954" style="stroke:#000;stroke-width:.03;stroke-miterlimit:4;stroke-dasharray:none;stroke-opacity:1"/></g><g style="fill:#000;fill-opacity:1;stroke:#000;stroke-width:.03;stroke-miterlimit:4;stroke-dasharray:none;stroke-opacity:1" transform="matrix(1.25 0 0 1.25 -571.43 286.38)"><use xlink:href="#o" width="100%" height="100%" x="187.159" y="325.954" style="stroke:#000;stroke-width:.03;stroke-miterlimit:4;stroke-dasharray:none;stroke-opacity:1"/></g><g style="fill:#000;fill-opacity:1;stroke:#000;stroke-width:.03;stroke-miterlimit:4;stroke-dasharray:none;stroke-opacity:1" transform="matrix(1.25 0 0 1.25 -571.43 286.38)"><use xlink:href="#p" width="100%" height="100%" x="196.279" y="325.954" style="stroke:#000;stroke-width:.03;stroke-miterlimit:4;stroke-dasharray:none;stroke-opacity:1"/></g><g style="fill:#000;fill-opacity:1;stroke:#000;stroke-width:.03;stroke-miterlimit:4;stroke-dasharray:none;stroke-opacity:1" transform="matrix(1.25 0 0 1.25 -571.43 286.38)"><use xlink:href="#q" width="100%" height="100%" x="200.119" y="325.954" style="stroke:#000;stroke-width:.03;stroke-miterlimit:4;stroke-dasharray:none;stroke-opacity:1"/></g><g style="fill:#000;fill-opacity:1;stroke:#000;stroke-width:.03;stroke-miterlimit:4;stroke-dasharray:none;stroke-opacity:1" transform="matrix(1.25 0 0 1.25 -571.43 286.38)"><use xlink:href="#r" width="100%" height="100%" x="227.239" y="325.954" style="stroke:#000;stroke-width:.03;stroke-miterlimit:4;stroke-dasharray:none;stroke-opacity:1"/></g><g style="fill:#000;fill-opacity:1;stroke:#000;stroke-width:.03;stroke-miterlimit:4;stroke-dasharray:none;stroke-opacity:1" transform="matrix(1.25 0 0 1.25 -571.43 286.38)"><use xlink:href="#s" width="100%" height="100%" x="249.439" y="325.954" style="stroke:#000;stroke-width:.03;stroke-miterlimit:4;stroke-dasharray:none;stroke-opacity:1"/></g><use xlink:href="#j" width="100%" height="100%" x="343.295" y="326.173" style="fill:#000;fill-opacity:1;stroke:#000;stroke-width:.03;stroke-miterlimit:4;stroke-dasharray:none;stroke-opacity:1" transform="matrix(1.25 0 0 1.25 -571.43 286.38)"/><use xlink:href="#t" width="100%" height="100%" x="354.455" y="322.333" style="fill:#000;fill-opacity:1;stroke:#000;stroke-width:.03;stroke-miterlimit:4;stroke-dasharray:none;stroke-opacity:1" transform="matrix(1.25 0 0 1.25 -571.43 286.38)"/><path d="M-128.378 690.814h4.648v.6h-4.648zm0 0" style="fill:#000;fill-opacity:1;fill-rule:nonzero;stroke:#000;stroke-width:.0375;stroke-miterlimit:4;stroke-dasharray:none;stroke-opacity:1"/><use xlink:href="#u" width="100%" height="100%" x="354.455" y="329.653" style="fill:#000;fill-opacity:1;stroke:#000;stroke-width:.03;stroke-miterlimit:4;stroke-dasharray:none;stroke-opacity:1" transform="matrix(1.25 0 0 1.25 -571.43 286.38)"/><use xlink:href="#j" width="100%" height="100%" x="379.535" y="326.173" style="fill:#000;fill-opacity:1;stroke:#000;stroke-width:.03;stroke-miterlimit:4;stroke-dasharray:none;stroke-opacity:1" transform="matrix(1.25 0 0 1.25 -571.43 286.38)"/><use xlink:href="#t" width="100%" height="100%" x="390.695" y="322.333" style="fill:#000;fill-opacity:1;stroke:#000;stroke-width:.03;stroke-miterlimit:4;stroke-dasharray:none;stroke-opacity:1" transform="matrix(1.25 0 0 1.25 -571.43 286.38)"/><path d="M-83.075 690.814h4.648v.6h-4.648zm0 0" style="fill:#000;fill-opacity:1;fill-rule:nonzero;stroke:#000;stroke-width:.0375;stroke-miterlimit:4;stroke-dasharray:none;stroke-opacity:1"/><use xlink:href="#u" width="100%" height="100%" x="390.696" y="329.653" style="fill:#000;fill-opacity:1;stroke:#000;stroke-width:.03;stroke-miterlimit:4;stroke-dasharray:none;stroke-opacity:1" transform="matrix(1.25 0 0 1.25 -571.43 286.98)"/><use xlink:href="#l" width="100%" height="100%" x="395.496" y="326.173" style="fill:#000;fill-opacity:1;stroke:#000;stroke-width:.03;stroke-miterlimit:4;stroke-dasharray:none;stroke-opacity:1" transform="matrix(1.25 0 0 1.25 -571.43 286.38)"/><use xlink:href="#j" width="100%" height="100%" x="407.736" y="326.173" style="fill:#000;fill-opacity:1;stroke:#000;stroke-width:.03;stroke-miterlimit:4;stroke-dasharray:none;stroke-opacity:1" transform="matrix(1.25 0 0 1.25 -571.43 286.38)"/><use xlink:href="#m" width="100%" height="100%" x="417.696" y="326.173" style="fill:#000;fill-opacity:1;stroke:#000;stroke-width:.03;stroke-miterlimit:4;stroke-dasharray:none;stroke-opacity:1" transform="matrix(1.25 0 0 1.25 -571.43 286.38)"/><use xlink:href="#n" width="100%" height="100%" x="336.575" y="326.173" style="fill:#000;fill-opacity:1;stroke:#000;stroke-width:.03;stroke-miterlimit:4;stroke-dasharray:none;stroke-opacity:1" transform="matrix(1.25 0 0 1.25 -571.43 286.38)"/><use xlink:href="#o" width="100%" height="100%" x="359.255" y="326.173" style="fill:#000;fill-opacity:1;stroke:#000;stroke-width:.03;stroke-miterlimit:4;stroke-dasharray:none;stroke-opacity:1" transform="matrix(1.25 0 0 1.25 -571.43 286.38)"/><use xlink:href="#p" width="100%" height="100%" x="368.495" y="326.173" style="fill:#000;fill-opacity:1;stroke:#000;stroke-width:.03;stroke-miterlimit:4;stroke-dasharray:none;stroke-opacity:1" transform="matrix(1.25 0 0 1.25 -571.43 286.38)"/><use xlink:href="#q" width="100%" height="100%" x="372.335" y="326.173" style="fill:#000;fill-opacity:1;stroke:#000;stroke-width:.03;stroke-miterlimit:4;stroke-dasharray:none;stroke-opacity:1" transform="matrix(1.25 0 0 1.25 -571.43 286.38)"/><use xlink:href="#r" width="100%" height="100%" x="400.536" y="326.173" style="fill:#000;fill-opacity:1;stroke:#000;stroke-width:.03;stroke-miterlimit:4;stroke-dasharray:none;stroke-opacity:1" transform="matrix(1.25 0 0 1.25 -571.43 286.38)"/><use xlink:href="#s" width="100%" height="100%" x="422.736" y="326.173" style="fill:#000;fill-opacity:1;stroke:#000;stroke-width:.03;stroke-miterlimit:4;stroke-dasharray:none;stroke-opacity:1" transform="matrix(1.25 0 0 1.25 -571.43 286.38)"/><g style="fill:#000;fill-opacity:1;stroke:#000;stroke-width:.03;stroke-miterlimit:4;stroke-dasharray:none;stroke-opacity:1" transform="matrix(1.25 0 0 1.25 -571.43 286.38)"><use xlink:href="#j" width="100%" height="100%" x="250.709" y="499.995" style="stroke:#000;stroke-width:.03;stroke-miterlimit:4;stroke-dasharray:none;stroke-opacity:1"/></g><g style="fill:#000;fill-opacity:1;stroke:#000;stroke-width:.03;stroke-miterlimit:4;stroke-dasharray:none;stroke-opacity:1" transform="matrix(1.25 0 0 1.25 -571.43 286.38)"><use xlink:href="#t" width="100%" height="100%" x="261.869" y="496.155" style="stroke:#000;stroke-width:.03;stroke-miterlimit:4;stroke-dasharray:none;stroke-opacity:1"/></g><path d="M-244.11 908.09h4.648v.6h-4.649zm0 0" style="fill:#000;fill-opacity:1;fill-rule:nonzero;stroke:#000;stroke-width:.0375;stroke-miterlimit:4;stroke-dasharray:none;stroke-opacity:1"/><g style="fill:#000;fill-opacity:1;stroke:#000;stroke-width:.03;stroke-miterlimit:4;stroke-dasharray:none;stroke-opacity:1" transform="matrix(1.25 0 0 1.25 -571.43 286.98)"><use xlink:href="#u" width="100%" height="100%" x="261.869" y="503.474" style="stroke:#000;stroke-width:.03;stroke-miterlimit:4;stroke-dasharray:none;stroke-opacity:1"/></g><g style="fill:#000;fill-opacity:1;stroke:#000;stroke-width:.03;stroke-miterlimit:4;stroke-dasharray:none;stroke-opacity:1" transform="matrix(1.25 0 0 1.25 -571.43 286.38)"><use xlink:href="#v" width="100%" height="100%" x="272.549" y="499.994" style="stroke:#000;stroke-width:.03;stroke-miterlimit:4;stroke-dasharray:none;stroke-opacity:1"/></g><g style="fill:#000;fill-opacity:1;stroke:#000;stroke-width:.03;stroke-miterlimit:4;stroke-dasharray:none;stroke-opacity:1" transform="matrix(1.25 0 0 1.25 -571.43 286.38)"><use xlink:href="#k" width="100%" height="100%" x="281.789" y="499.994" style="stroke:#000;stroke-width:.03;stroke-miterlimit:4;stroke-dasharray:none;stroke-opacity:1"/></g><g style="fill:#000;fill-opacity:1;stroke:#000;stroke-width:.03;stroke-miterlimit:4;stroke-dasharray:none;stroke-opacity:1" transform="matrix(1.25 0 0 1.25 -571.43 286.38)"><use xlink:href="#j" width="100%" height="100%" x="302.429" y="499.994" style="stroke:#000;stroke-width:.03;stroke-miterlimit:4;stroke-dasharray:none;stroke-opacity:1"/></g><g style="fill:#000;fill-opacity:1;stroke:#000;stroke-width:.03;stroke-miterlimit:4;stroke-dasharray:none;stroke-opacity:1" transform="matrix(1.25 0 0 1.25 -571.43 286.38)"><use xlink:href="#t" width="100%" height="100%" x="313.589" y="496.154" style="stroke:#000;stroke-width:.03;stroke-miterlimit:4;stroke-dasharray:none;stroke-opacity:1"/></g><path d="M-179.457 908.09h4.648v.6h-4.648zm0 0" style="fill:#000;fill-opacity:1;fill-rule:nonzero;stroke:#000;stroke-width:.0375;stroke-miterlimit:4;stroke-dasharray:none;stroke-opacity:1"/><g style="fill:#000;fill-opacity:1;stroke:#000;stroke-width:.03;stroke-miterlimit:4;stroke-dasharray:none;stroke-opacity:1" transform="matrix(1.25 0 0 1.25 -571.43 286.98)"><use xlink:href="#u" width="100%" height="100%" x="313.589" y="503.474" style="stroke:#000;stroke-width:.03;stroke-miterlimit:4;stroke-dasharray:none;stroke-opacity:1"/></g><g style="fill:#000;fill-opacity:1;stroke:#000;stroke-width:.03;stroke-miterlimit:4;stroke-dasharray:none;stroke-opacity:1" transform="matrix(1.25 0 0 1.25 -571.43 286.38)"><use xlink:href="#l" width="100%" height="100%" x="318.509" y="499.994" style="stroke:#000;stroke-width:.03;stroke-miterlimit:4;stroke-dasharray:none;stroke-opacity:1"/></g><g style="fill:#000;fill-opacity:1;stroke:#000;stroke-width:.03;stroke-miterlimit:4;stroke-dasharray:none;stroke-opacity:1" transform="matrix(1.25 0 0 1.25 -571.43 286.38)"><use xlink:href="#j" width="100%" height="100%" x="330.629" y="499.994" style="stroke:#000;stroke-width:.03;stroke-miterlimit:4;stroke-dasharray:none;stroke-opacity:1"/></g><g style="fill:#000;fill-opacity:1;stroke:#000;stroke-width:.03;stroke-miterlimit:4;stroke-dasharray:none;stroke-opacity:1" transform="matrix(1.25 0 0 1.25 -571.43 286.38)"><use xlink:href="#k" width="100%" height="100%" x="340.589" y="499.994" style="stroke:#000;stroke-width:.03;stroke-miterlimit:4;stroke-dasharray:none;stroke-opacity:1"/></g><g style="fill:#000;fill-opacity:1;stroke:#000;stroke-width:.03;stroke-miterlimit:4;stroke-dasharray:none;stroke-opacity:1" transform="matrix(1.25 0 0 1.25 -571.43 286.38)"><use xlink:href="#n" width="100%" height="100%" x="243.989" y="499.995" style="stroke:#000;stroke-width:.03;stroke-miterlimit:4;stroke-dasharray:none;stroke-opacity:1"/></g><g style="fill:#000;fill-opacity:1;stroke:#000;stroke-width:.03;stroke-miterlimit:4;stroke-dasharray:none;stroke-opacity:1" transform="matrix(1.25 0 0 1.25 -571.43 286.38)"><use xlink:href="#o" width="100%" height="100%" x="266.669" y="499.994" style="stroke:#000;stroke-width:.03;stroke-miterlimit:4;stroke-dasharray:none;stroke-opacity:1"/></g><g style="fill:#000;fill-opacity:1;stroke:#000;stroke-width:.03;stroke-miterlimit:4;stroke-dasharray:none;stroke-opacity:1" transform="matrix(1.25 0 0 1.25 -571.43 286.38)"><use xlink:href="#p" width="100%" height="100%" x="291.389" y="499.994" style="stroke:#000;stroke-width:.03;stroke-miterlimit:4;stroke-dasharray:none;stroke-opacity:1"/></g><g style="fill:#000;fill-opacity:1;stroke:#000;stroke-width:.03;stroke-miterlimit:4;stroke-dasharray:none;stroke-opacity:1" transform="matrix(1.25 0 0 1.25 -571.43 286.38)"><use xlink:href="#q" width="100%" height="100%" x="295.229" y="499.994" style="stroke:#000;stroke-width:.03;stroke-miterlimit:4;stroke-dasharray:none;stroke-opacity:1"/></g><g style="fill:#000;fill-opacity:1;stroke:#000;stroke-width:.03;stroke-miterlimit:4;stroke-dasharray:none;stroke-opacity:1" transform="matrix(1.25 0 0 1.25 -571.43 286.38)"><use xlink:href="#r" width="100%" height="100%" x="323.429" y="499.994" style="stroke:#000;stroke-width:.03;stroke-miterlimit:4;stroke-dasharray:none;stroke-opacity:1"/></g><g style="fill:#000;fill-opacity:1;stroke:#000;stroke-width:.03;stroke-miterlimit:4;stroke-dasharray:none;stroke-opacity:1" transform="matrix(1.25 0 0 1.25 -571.43 286.38)"><use xlink:href="#s" width="100%" height="100%" x="345.629" y="499.994" style="stroke:#000;stroke-width:.03;stroke-miterlimit:4;stroke-dasharray:none;stroke-opacity:1"/></g><g style="stroke:#000;stroke-opacity:1;stroke-width:.046875;stroke-miterlimit:4;stroke-dasharray:none"><g style="fill:#000;fill-opacity:1;stroke:#000;stroke-opacity:1;stroke-width:.0375;stroke-miterlimit:4;stroke-dasharray:none" transform="matrix(1.25 0 0 1.25 -571.43 286.38)"><use xlink:href="#n" width="100%" height="100%" x="209.626" y="165.275" style="stroke:#000;stroke-opacity:1;stroke-width:.0375;stroke-miterlimit:4;stroke-dasharray:none"/></g><g style="fill:#000;fill-opacity:1;stroke:#000;stroke-opacity:1;stroke-width:.0375;stroke-miterlimit:4;stroke-dasharray:none" transform="matrix(1.25 0 0 1.25 -571.43 286.38)"><use xlink:href="#o" width="100%" height="100%" x="288.245" y="244.87" style="stroke:#000;stroke-opacity:1;stroke-width:.0375;stroke-miterlimit:4;stroke-dasharray:none"/></g><g style="fill:#000;fill-opacity:1;stroke:#000;stroke-opacity:1;stroke-width:.0375;stroke-miterlimit:4;stroke-dasharray:none" transform="matrix(1.25 0 0 1.25 -571.43 286.38)"><use xlink:href="#n" width="100%" height="100%" x="379.309" y="165.275" style="stroke:#000;stroke-opacity:1;stroke-width:.0375;stroke-miterlimit:4;stroke-dasharray:none"/></g><g style="fill:#000;fill-opacity:1;stroke:#000;stroke-opacity:1;stroke-width:.0375;stroke-miterlimit:4;stroke-dasharray:none" transform="matrix(1.25 0 0 1.25 -571.43 286.38)"><use xlink:href="#o" width="100%" height="100%" x="457.928" y="244.87" style="stroke:#000;stroke-opacity:1;stroke-width:.0375;stroke-miterlimit:4;stroke-dasharray:none"/></g><g style="fill:#000;fill-opacity:1;stroke:#000;stroke-opacity:1;stroke-width:.0375;stroke-miterlimit:4;stroke-dasharray:none" transform="matrix(1.25 0 0 1.25 -571.43 286.38)"><use xlink:href="#n" width="100%" height="100%" x="294.467" y="339.096" style="stroke:#000;stroke-opacity:1;stroke-width:.0375;stroke-miterlimit:4;stroke-dasharray:none"/></g><g style="fill:#000;fill-opacity:1;stroke:#000;stroke-opacity:1;stroke-width:.0375;stroke-miterlimit:4;stroke-dasharray:none" transform="matrix(1.25 0 0 1.25 -571.43 286.38)"><use xlink:href="#o" width="100%" height="100%" x="373.086" y="418.691" style="stroke:#000;stroke-opacity:1;stroke-width:.0375;stroke-miterlimit:4;stroke-dasharray:none"/></g></g><use xlink:href="#a" width="100%" height="100%" x="356.268" y="427.76" style="fill:#b0b0d9;fill-opacity:1" transform="translate(-526.6 339.438) scale(1.125)"/><g clip-path="url(#w)" style="clip-rule:nonzero" transform="matrix(1.13 0 0 1.13 -543.145 339.396)"><use xlink:href="#c" width="100%" height="100%" x="228.239" y="427.424" style="fill:#b0b0d9;fill-opacity:1"/></g><use xlink:href="#a" width="100%" height="100%" x="236.039" y="427.424" style="fill:#b0b0d9;fill-opacity:1" transform="matrix(1.13 0 0 1.13 -543.145 339.396)"/><use xlink:href="#a" width="100%" height="100%" x="288.511" y="357.758" style="fill:#b0b0d9;fill-opacity:1" transform="translate(-535.07 330.688) scale(1.125)"/><use xlink:href="#c" width="100%" height="100%" x="280.771" y="481.58" style="fill:#b0b0d9;fill-opacity:1" transform="matrix(1.13 0 0 1.13 -535.525 346.166)"/><use xlink:href="#a" width="100%" height="100%" x="288.571" y="481.58" style="fill:#b0b0d9;fill-opacity:1" transform="matrix(1.13 0 0 1.13 -535.525 346.166)"/><g clip-path="url(#x)" style="clip-rule:nonzero" transform="matrix(1.25 0 0 1.25 -571.43 286.38)"><path d="M2139.063 3547.266 3794.53 4374.96" style="fill:none;stroke:red;stroke-width:7.97009993;stroke-linecap:butt;stroke-linejoin:miter;stroke-miterlimit:10;stroke-opacity:1" transform="matrix(.1 0 0 -.1 0 792)"/></g></g></svg>