<svg width="20" height="16" viewBox="0 0 20 16" fill="none" xmlns="http://www.w3.org/2000/svg">
<path d="M10.8021 1.48267C12.4746 1.78773 18.2505 1.48279 18.2505 4.761C19.1763 5.7306 18.0629 6.27768 18.2506 7.72301C18.5258 9.84246 17.1285 11.8062 15.4698 12.9401C14.8021 13.3955 14.0234 13.6611 13.3002 14.0216C12.4682 14.1923 11.6469 14.443 10.8021 14.5358C9.21066 14.7107 7.31092 14.6051 5.75574 14.1945C4.77549 13.9363 3.0891 13.3347 2.5803 12.2403C2.36057 11.7678 2.53123 11.2003 2.50563 10.6809C-0.534146 10.6809 2.1298 5.19181 2.50526 4.76088C4.89349 2.01423 5.96571 1.7184 9.46646 1.48267" fill="#E5F6FF"/>
<path d="M10.8021 1.48267C12.4746 1.78773 18.2505 1.48279 18.2505 4.761C19.1763 5.7306 18.0629 6.27768 18.2506 7.72301C18.5258 9.84246 17.1285 11.8062 15.4698 12.9401C14.8021 13.3955 14.0234 13.6611 13.3002 14.0216C12.4682 14.1923 11.6469 14.443 10.8021 14.5358C9.21066 14.7107 7.31092 14.6051 5.75574 14.1945C4.77549 13.9363 3.0891 13.3347 2.5803 12.2403C2.36057 11.7678 2.53123 11.2003 2.50563 10.6809C-0.534146 10.6809 2.1298 5.19181 2.50526 4.76088C4.89349 2.01423 5.96571 1.7184 9.46646 1.48267" stroke="black" stroke-opacity="0.826471" stroke-width="1.06666"/>
</svg>
