<svg width="21" height="15" viewBox="0 0 21 15" fill="none" xmlns="http://www.w3.org/2000/svg">
<path d="M14.0456 12.6514C12.0944 13.2797 10.1657 13.826 8.03723 13.8105C6.33549 13.6343 5.58761 13.7071 4.12419 12.9834C2.54847 12.2046 1.56846 10.8062 1.48301 9.33735C1.45109 8.79176 1.62137 8.2447 1.69056 7.69836C2.36815 6.24384 2.37345 5.82049 3.75811 4.60088C6.17534 2.47207 9.63231 1.64709 13.0967 1.4756C14.9731 1.59693 15.9833 1.50571 17.6536 2.19659C19.5225 2.96956 20.4598 4.34377 20.2202 6.01593C20.1429 6.55091 19.8422 7.05692 19.653 7.57767C19.2937 8.06912 18.9902 8.58771 18.5752 9.05298C17.0078 10.8081 14.6619 12.3857 11.956 12.8272" fill="#E5F6FF"/>
<path d="M14.0456 12.6514C12.0944 13.2797 10.1657 13.826 8.03723 13.8105C6.33549 13.6343 5.58761 13.7071 4.12419 12.9834C2.54847 12.2046 1.56846 10.8062 1.48301 9.33735C1.45109 8.79176 1.62137 8.2447 1.69056 7.69836C2.36815 6.24384 2.37345 5.82049 3.75811 4.60088C6.17534 2.47207 9.63231 1.64709 13.0967 1.4756C14.9731 1.59693 15.9833 1.50571 17.6536 2.19659C19.5225 2.96956 20.4598 4.34377 20.2202 6.01593C20.1429 6.55091 19.8422 7.05692 19.653 7.57767C19.2937 8.06912 18.9902 8.58771 18.5752 9.05298C17.0078 10.8081 14.6619 12.3857 11.956 12.8272" stroke="black" stroke-opacity="0.826471" stroke-width="1.06666"/>
</svg>
