<svg width="19" height="15" viewBox="0 0 19 15" fill="none" xmlns="http://www.w3.org/2000/svg">
<path d="M17.1782 11.2207C10.3083 15.0011 8.70856 13.6065 6.79739 13.5744C5.2681 13.3831 4.59718 13.4508 3.27762 12.7081C1.85679 11.9087 0.966016 10.4878 0.877871 9.00272C0.844973 8.45108 0.993611 7.89952 1.05149 7.34792C1.64856 5.88321 1.65002 5.45541 2.88376 4.23359C5.03754 2.10096 8.13499 1.29409 11.2442 1.1477C12.9299 1.28491 13.8362 1.20057 15.3412 1.91178C17.0253 2.7075 17.8775 4.10359 17.6754 5.79166C17.6101 6.33173 17.3441 6.84077 17.1782 7.36559C16.8595 7.85947 20.3741 7.83037 15.3412 10.2207C10.3083 12.611 23.4994 10.2207 10.3083 12.611" fill="#E5F6FF"/>
<path d="M17.1782 11.2207C10.3083 15.0011 8.70856 13.6065 6.79739 13.5744C5.2681 13.3831 4.59718 13.4508 3.27762 12.7081C1.85679 11.9087 0.966016 10.4878 0.877871 9.00272C0.844973 8.45108 0.993611 7.89952 1.05149 7.34792C1.64856 5.88321 1.65002 5.45541 2.88376 4.23359C5.03754 2.10096 8.13499 1.29409 11.2442 1.1477C12.9299 1.28491 13.8362 1.20057 15.3412 1.91178C17.0253 2.7075 17.8775 4.10359 17.6754 5.79166C17.6101 6.33173 17.3441 6.84077 17.1782 7.36559C16.8595 7.85947 20.3741 7.83037 15.3412 10.2207C10.3083 12.611 23.4994 10.2207 10.3083 12.611" stroke="black" stroke-opacity="0.826471" stroke-width="1.06666"/>
</svg>
