<svg style="overflow:visible" width="600" viewBox="-22.9133 -24.74744 610 28">
  <style type="text/css">
                    .seperator {
                        fill: #E9967A;
                        stroke: #000;
                        stroke-width: 1.5px;
                    }
               
  </style>
  <g id="main" >
    <path class="seperator" d="M -3.31647 -7.34854 26.54768 -4.49674 27.30816 -12.46051 -2.55598 -15.31231 Z"></path>
    <path class="seperator" d="M 42.5004 -7.66499 71.87885 -1.58987 73.49888 -9.42412 44.12043 -15.49924 Z"></path>
    <path class="seperator" d="M 86.57496 -7.29857 116.4781 -4.8898 117.12044 -12.86397 87.2173 -15.27274 Z"></path>
    <path class="seperator" d="M 129.84754 -6.20098 159.39372 -11.39941 158.00747 -19.27839 128.4613 -14.07996 Z"></path>
    <path class="seperator" d="M 174.73988 -6.10992 204.19062 -11.82429 202.66679 -19.67782 173.21605 -13.96346 Z"></path>
    <path class="seperator" d="M 221.26534 -7.14509 251.24424 -6.01998 251.54427 -14.01435 221.56537 -15.13946 Z"></path>
    <path class="seperator" d="M 266.06515 -7.03683 296.06386 -6.75836 296.13812 -14.75801 266.13941 -15.03648 Z"></path>
    <path class="seperator" d="M 310.3823 -6.60884 340.25893 -9.32664 339.53419 -17.29374 309.65755 -14.57595 Z"></path>
    <path class="seperator" d="M 354.72112 -6.09372 384.15414 -11.89863 382.60616 -19.74744 353.17314 -13.94252 Z"></path>
    <path class="seperator" d="M 399.88656 -6.23319 429.46477 -11.24612 428.12799 -19.13364 398.54978 -14.12072 Z"></path>
    <path class="seperator" d="M 446.67857 -7.3463 476.54464 -4.51467 477.29974 -12.47895 447.43367 -15.31058 Z"></path>
    <path class="seperator" d="M 490.21565 -6.48922 520.01348 -9.96624 519.08627 -17.91233 489.28845 -14.43531 Z"></path>
    <path class="seperator" d="M 536.79282 -7.39689 566.61142 -4.10274 567.48986 -12.05437 537.67126 -15.34852 Z"></path>
  </g>
</svg>