<?xml version="1.0" encoding="UTF-8" standalone="no"?>
<svg
   width="61"
   height="62"
   viewBox="0 0 57.1875 58.125001"
   version="1.1"
   id="svg4"
   sodipodi:docname="rise-run.svg"
   inkscape:version="1.3.2 (091e20e, 2023-11-25)"
   xmlns:inkscape="http://www.inkscape.org/namespaces/inkscape"
   xmlns:sodipodi="http://sodipodi.sourceforge.net/DTD/sodipodi-0.dtd"
   xmlns="http://www.w3.org/2000/svg"
   xmlns:svg="http://www.w3.org/2000/svg">
  <defs
     id="defs4" />
  <sodipodi:namedview
     id="namedview4"
     pagecolor="#ffffff"
     bordercolor="#000000"
     borderopacity="0.25"
     inkscape:showpageshadow="2"
     inkscape:pageopacity="0.0"
     inkscape:pagecheckerboard="0"
     inkscape:deskcolor="#d1d1d1"
     inkscape:zoom="3.881579"
     inkscape:cx="29.755932"
     inkscape:cy="30.4"
     inkscape:window-width="1728"
     inkscape:window-height="1051"
     inkscape:window-x="0"
     inkscape:window-y="38"
     inkscape:window-maximized="0"
     inkscape:current-layer="svg4" />
  <text
     xml:space="preserve"
     x="-1322.6281"
     y="347.85602"
     style="font-style:normal;font-weight:400;line-height:0%;font-family:sans-serif;letter-spacing:0;word-spacing:0;fill:#000000;fill-opacity:1;stroke:none;stroke-width:1px;stroke-linecap:butt;stroke-linejoin:miter;stroke-opacity:1"
     id="text1"><tspan
       x="-1322.6281"
       y="347.85602"
       style="font-size:40px;line-height:1.25"
       id="tspan1"> </tspan></text>
  <text
     xml:space="preserve"
     x="169.15799"
     y="10.712995"
     style="font-style:normal;font-weight:400;line-height:0%;font-family:sans-serif;letter-spacing:0;word-spacing:0;fill:#000000;fill-opacity:1;stroke:none;stroke-width:1px;stroke-linecap:butt;stroke-linejoin:miter;stroke-opacity:1"
     id="text2"><tspan
       x="169.15799"
       y="10.712995"
       style="font-size:40px;line-height:1.25"
       id="tspan2"> </tspan></text>
  <path
     d="M 0.53905084,33.835575 H 56.22905 v 1.371 H 0.53905084 Z"
     style="opacity:1;fill:#000000;fill-opacity:1;stroke:#000000;stroke-width:0.110201;stroke-linecap:square;stroke-linejoin:miter;stroke-miterlimit:4;stroke-dasharray:none;stroke-opacity:1"
     id="path2" />
  <g
     aria-label="rise"
     style="font-style:normal;font-variant:normal;font-weight:400;font-stretch:normal;line-height:0%;font-family:Baskerville;-inkscape-font-specification:Baskerville;letter-spacing:0;word-spacing:0;display:inline;fill:#000000;fill-opacity:1;stroke:none;stroke-width:1px;stroke-linecap:butt;stroke-linejoin:miter;stroke-opacity:1"
     id="g3"
     transform="translate(0.48305084,0.72457626)">
    <path
       d="m 186.66,210.232 q 0.664,-1.738 2.149,-2.91 1.503,-1.172 2.93,-1.172 1.288,0 2.03,0.8 0.743,0.802 0.743,1.642 0,0.566 -0.39,0.976 -0.372,0.41 -0.919,0.41 -0.976,0 -1.484,-1.445 -0.352,-0.977 -1.055,-0.977 -0.84,0 -2.012,1.153 -1.172,1.133 -1.504,2.363 -0.332,1.23 -0.332,3.379 v 2.852 q 0,2.558 0.059,3.222 0.078,0.664 0.566,1.016 0.489,0.351 1.739,0.351 h 0.547 v 0.899 h -8.497 v -0.899 h 0.41 q 1.173,0 1.66,-0.312 0.509,-0.332 0.606,-0.918 0.098,-0.586 0.098,-3.36 v -4.511 q 0,-2.578 -0.078,-3.223 -0.059,-0.664 -0.547,-1.015 -0.488,-0.372 -1.738,-0.372 h -0.41 v -0.878 q 1.835,-0.215 4.804,-1.153 0.567,1.543 0.625,4.082 z m 10.625,-12.246 q 0,-0.84 0.586,-1.445 0.606,-0.606 1.445,-0.606 0.84,0 1.426,0.606 0.586,0.605 0.586,1.445 0,0.86 -0.586,1.465 -0.586,0.605 -1.426,0.605 -0.84,0 -1.445,-0.605 -0.586,-0.606 -0.586,-1.465 z m 3.77,8.164 v 11.153 q 0,2.558 0.078,3.222 0.078,0.664 0.566,1.016 0.488,0.351 1.738,0.351 h 0.41 v 0.899 h -8.613 v -0.899 h 0.664 q 1.387,0 1.797,-0.39 0.43,-0.41 0.489,-0.957 0.078,-0.567 0.078,-3.242 v -4.844 q 0,-2.813 -0.274,-3.438 -0.254,-0.625 -0.703,-0.781 -0.43,-0.156 -1.523,-0.156 h -0.528 v -0.899 q 3.477,-0.351 5.39,-1.035 z m 5.175,17.149 v -5.254 h 0.762 q 1.328,4.55 4.746,4.55 1.485,0 2.207,-0.898 0.743,-0.898 0.743,-1.973 0,-1.25 -0.782,-2.05 -0.8,-0.801 -3.105,-1.934 -2.422,-1.191 -3.477,-2.344 -1.054,-1.133 -1.054,-2.793 0,-1.582 1.132,-3.008 1.133,-1.445 3.184,-1.445 2.09,0 3.457,1.7 0.293,-0.294 0.762,-1.426 h 0.722 v 4.941 h -0.722 q -0.39,-1.777 -1.524,-3.047 -1.113,-1.289 -2.636,-1.289 -1.172,0 -1.895,0.723 -0.723,0.722 -0.723,1.68 0,1.054 0.801,1.816 0.781,0.781 2.988,1.777 3.32,1.504 4.063,2.93 0.742,1.445 0.742,2.773 0,2.09 -1.387,3.399 -1.367,1.308 -3.457,1.308 -2.207,0 -3.925,-1.816 -0.528,0.586 -0.86,1.68 z m 27.715,-11.094 h -11.152 q -0.078,1.152 -0.078,1.719 0,4.218 1.308,6.347 1.329,2.11 3.946,2.11 3.554,0 5.039,-3.184 h 0.937 q -0.625,1.992 -2.48,3.125 -1.856,1.113 -4.043,1.113 -2.031,0 -3.848,-1.015 -1.797,-1.035 -2.949,-2.91 -1.152,-1.875 -1.152,-4.551 0,-3.79 2.226,-6.29 2.227,-2.519 5.567,-2.519 3.144,0 4.863,1.914 1.719,1.914 1.816,4.14 z m -3.418,-0.781 q 0.059,-0.45 0.059,-0.801 0,-1.719 -1.016,-2.656 -0.996,-0.957 -2.46,-0.957 -3.555,0 -4.239,4.414 z"
       style="font-size:40px;line-height:1.25"
       transform="translate(-179.771,-195.935)"
       id="path3" />
  </g>
  <g
     aria-label="run"
     style="font-style:normal;font-weight:400;line-height:0%;font-family:sans-serif;letter-spacing:0;word-spacing:0;display:inline;fill:#000000;fill-opacity:1;stroke:none;stroke-width:1px;stroke-linecap:butt;stroke-linejoin:miter;stroke-opacity:1"
     id="g4"
     transform="translate(0.48305084,0.72457626)">
    <path
       d="m 185.946,239.732 q 0.664,-1.738 2.148,-2.91 1.504,-1.172 2.93,-1.172 1.289,0 2.031,0.8 0.742,0.802 0.742,1.642 0,0.566 -0.39,0.976 -0.371,0.41 -0.918,0.41 -0.977,0 -1.485,-1.445 -0.351,-0.977 -1.054,-0.977 -0.84,0 -2.012,1.153 -1.172,1.133 -1.504,2.363 -0.332,1.23 -0.332,3.379 v 2.852 q 0,2.558 0.059,3.222 0.078,0.664 0.566,1.016 0.488,0.351 1.738,0.351 h 0.547 v 0.899 h -8.496 v -0.899 h 0.41 q 1.172,0 1.66,-0.312 0.508,-0.332 0.606,-0.918 0.098,-0.586 0.098,-3.36 v -4.511 q 0,-2.578 -0.078,-3.223 -0.059,-0.664 -0.547,-1.015 -0.489,-0.372 -1.739,-0.372 h -0.41 v -0.878 q 1.836,-0.215 4.805,-1.153 0.566,1.543 0.625,4.082 z m 25.332,-3.437 v 10.488 q 0,2.617 0.078,3.281 0.078,0.664 0.566,0.996 0.508,0.332 1.797,0.332 v 0.899 q -2.968,0.039 -4.336,0.625 h -0.234 q -0.625,-1.074 -0.664,-3.711 -1.192,1.855 -2.734,2.793 -1.524,0.937 -3.38,0.937 -1.601,0 -2.831,-0.722 -1.23,-0.743 -1.7,-1.797 -0.449,-1.055 -0.449,-3.184 v -5.449 q 0,-2.773 -0.097,-3.379 -0.098,-0.625 -0.625,-0.918 -0.508,-0.293 -1.895,-0.293 v -0.898 h 5.43 v 11.093 q 0,1.641 0.195,2.383 0.195,0.742 0.996,1.309 0.8,0.547 1.856,0.547 1.503,0 2.87,-0.977 1.368,-0.996 1.856,-2.09 0.508,-1.113 0.508,-3.164 v -3.613 q 0,-2.617 -0.059,-3.184 -0.058,-0.566 -0.507,-0.976 -0.43,-0.43 -1.817,-0.43 h -0.41 v -0.898 z m 8.984,-0.645 h 0.528 q 0.449,1.211 0.507,3.3 1.407,-1.66 2.95,-2.48 1.543,-0.82 3.222,-0.82 1.914,0 3.125,0.8 1.23,0.802 1.582,1.974 0.352,1.152 0.352,3.379 v 5 q 0,2.773 0.098,3.378 0.097,0.606 0.605,0.918 0.527,0.293 1.914,0.293 v 0.899 h -8.183 v -0.899 h 0.37 q 1.407,0 1.837,-0.41 0.43,-0.41 0.488,-0.957 0.058,-0.547 0.058,-3.222 v -5.157 q 0,-1.894 -0.195,-2.695 -0.176,-0.82 -0.996,-1.445 -0.8,-0.625 -2.05,-0.625 -1.427,0 -2.735,0.859 -1.29,0.84 -2.442,2.54 v 6.523 q 0,2.773 0.098,3.378 0.117,0.606 0.625,0.918 0.528,0.293 1.934,0.293 v 0.899 h -8.086 v -0.899 q 1.347,0 1.875,-0.273 0.527,-0.274 0.644,-0.82 0.137,-0.567 0.137,-3.496 v -4.766 q 0,-2.793 -0.117,-3.379 -0.098,-0.605 -0.625,-0.898 -0.508,-0.313 -1.914,-0.313 v -0.898 q 2.148,-0.235 4.394,-0.899 z"
       style="font-style:normal;font-variant:normal;font-weight:400;font-stretch:normal;font-size:40px;line-height:1.25;font-family:Baskerville;-inkscape-font-specification:Baskerville"
       transform="translate(-179.771,-195.935)"
       id="path4" />
  </g>
</svg>
