<svg xmlns="http://www.w3.org/2000/svg" width="59.52" height="60.8" viewBox="0 0 55.8 57"><text xml:space="preserve" x="-1142.857" y="543.791" style="font-style:normal;font-weight:400;line-height:0%;font-family:sans-serif;letter-spacing:0;word-spacing:0;fill:#000;fill-opacity:1;stroke:none;stroke-width:1px;stroke-linecap:butt;stroke-linejoin:miter;stroke-opacity:1" transform="translate(-179.771 -195.935)"><tspan x="-1142.857" y="543.791" style="font-size:40px;line-height:1.25"> </tspan></text><text xml:space="preserve" x="348.929" y="206.648" style="font-style:normal;font-weight:400;line-height:0%;font-family:sans-serif;letter-spacing:0;word-spacing:0;fill:#000;fill-opacity:1;stroke:none;stroke-width:1px;stroke-linecap:butt;stroke-linejoin:miter;stroke-opacity:1" transform="translate(-179.771 -195.935)"><tspan x="348.929" y="206.648" style="font-size:40px;line-height:1.25"> </tspan></text><path d="M179.827 229.046h55.69v1.371h-55.69z" style="opacity:1;fill:#000;fill-opacity:1;stroke:#000;stroke-width:.11020096;stroke-linecap:square;stroke-linejoin:miter;stroke-miterlimit:4;stroke-dasharray:none;stroke-opacity:1" transform="translate(-179.771 -195.935)"/><g aria-label="rise" style="font-style:normal;font-variant:normal;font-weight:400;font-stretch:normal;line-height:0%;font-family:Baskerville;-inkscape-font-specification:Baskerville;letter-spacing:0;word-spacing:0;display:inline;fill:#000;fill-opacity:1;stroke:none;stroke-width:1px;stroke-linecap:butt;stroke-linejoin:miter;stroke-opacity:1"><path d="M186.66 210.232q.664-1.738 2.149-2.91 1.503-1.172 2.93-1.172 1.288 0 2.03.8.743.802.743 1.642 0 .566-.39.976-.372.41-.919.41-.976 0-1.484-1.445-.352-.977-1.055-.977-.84 0-2.012 1.153-1.172 1.133-1.504 2.363-.332 1.23-.332 3.379v2.852q0 2.558.059 3.222.078.664.566 1.016.489.351 1.739.351h.547v.899h-8.497v-.899h.41q1.173 0 1.66-.312.509-.332.606-.918.098-.586.098-3.36v-4.511q0-2.578-.078-3.223-.059-.664-.547-1.015-.488-.372-1.738-.372h-.41v-.878q1.835-.215 4.804-1.153.567 1.543.625 4.082zM197.285 197.986q0-.84.586-1.445.606-.606 1.445-.606.84 0 1.426.606.586.605.586 1.445 0 .86-.586 1.465-.586.605-1.426.605t-1.445-.605q-.586-.606-.586-1.465zm3.77 8.164v11.153q0 2.558.078 3.222.078.664.566 1.016.488.351 1.738.351h.41v.899h-8.613v-.899h.664q1.387 0 1.797-.39.43-.41.489-.957.078-.567.078-3.242v-4.844q0-2.813-.274-3.438-.254-.625-.703-.781-.43-.156-1.523-.156h-.528v-.899q3.477-.351 5.39-1.035zM206.23 223.299v-5.254h.762q1.328 4.55 4.746 4.55 1.485 0 2.207-.898.743-.898.743-1.973 0-1.25-.782-2.05-.8-.801-3.105-1.934-2.422-1.191-3.477-2.344-1.054-1.133-1.054-2.793 0-1.582 1.132-3.008 1.133-1.445 3.184-1.445 2.09 0 3.457 1.7.293-.294.762-1.426h.722v4.941h-.722q-.39-1.777-1.524-3.047-1.113-1.289-2.636-1.289-1.172 0-1.895.723-.723.722-.723 1.68 0 1.054.801 1.816.781.781 2.988 1.777 3.32 1.504 4.063 2.93.742 1.445.742 2.773 0 2.09-1.387 3.399-1.367 1.308-3.457 1.308-2.207 0-3.925-1.816-.528.586-.86 1.68zM233.945 212.205h-11.152q-.078 1.152-.078 1.719 0 4.218 1.308 6.347 1.329 2.11 3.946 2.11 3.554 0 5.039-3.184h.937q-.625 1.992-2.48 3.125-1.856 1.113-4.043 1.113-2.031 0-3.848-1.015-1.797-1.035-2.949-2.91-1.152-1.875-1.152-4.551 0-3.79 2.226-6.29 2.227-2.519 5.567-2.519 3.144 0 4.863 1.914 1.719 1.914 1.816 4.14zm-3.418-.781q.059-.45.059-.801 0-1.719-1.016-2.656-.996-.957-2.46-.957-3.555 0-4.239 4.414z" style="font-size:40px;line-height:1.25" transform="translate(-179.771 -195.935)"/></g><g aria-label="run" style="font-style:normal;font-weight:400;line-height:0%;font-family:sans-serif;letter-spacing:0;word-spacing:0;display:inline;fill:#000;fill-opacity:1;stroke:none;stroke-width:1px;stroke-linecap:butt;stroke-linejoin:miter;stroke-opacity:1"><path d="M185.946 239.732q.664-1.738 2.148-2.91 1.504-1.172 2.93-1.172 1.289 0 2.031.8.742.802.742 1.642 0 .566-.39.976-.371.41-.918.41-.977 0-1.485-1.445-.351-.977-1.054-.977-.84 0-2.012 1.153-1.172 1.133-1.504 2.363-.332 1.23-.332 3.379v2.852q0 2.558.059 3.222.078.664.566 1.016.488.351 1.738.351h.547v.899h-8.496v-.899h.41q1.172 0 1.66-.312.508-.332.606-.918.098-.586.098-3.36v-4.511q0-2.578-.078-3.223-.059-.664-.547-1.015-.489-.372-1.739-.372h-.41v-.878q1.836-.215 4.805-1.153.566 1.543.625 4.082zM211.278 236.295v10.488q0 2.617.078 3.281.078.664.566.996.508.332 1.797.332v.899q-2.968.039-4.336.625h-.234q-.625-1.074-.664-3.711-1.192 1.855-2.734 2.793-1.524.937-3.38.937-1.601 0-2.831-.722-1.23-.743-1.7-1.797-.449-1.055-.449-3.184v-5.449q0-2.773-.097-3.379-.098-.625-.625-.918-.508-.293-1.895-.293v-.898h5.43v11.093q0 1.641.195 2.383t.996 1.309q.8.547 1.856.547 1.503 0 2.87-.977 1.368-.996 1.856-2.09.508-1.113.508-3.164v-3.613q0-2.617-.059-3.184-.058-.566-.507-.976-.43-.43-1.817-.43h-.41v-.898zM220.262 235.65h.528q.449 1.211.507 3.3 1.407-1.66 2.95-2.48 1.543-.82 3.222-.82 1.914 0 3.125.8 1.23.802 1.582 1.974.352 1.152.352 3.379v5q0 2.773.098 3.378.097.606.605.918.527.293 1.914.293v.899h-8.183v-.899h.37q1.407 0 1.837-.41.43-.41.488-.957.058-.547.058-3.222v-5.157q0-1.894-.195-2.695-.176-.82-.996-1.445-.8-.625-2.05-.625-1.427 0-2.735.859-1.29.84-2.442 2.54v6.523q0 2.773.098 3.378.117.606.625.918.528.293 1.934.293v.899h-8.086v-.899q1.347 0 1.875-.273.527-.274.644-.82.137-.567.137-3.496v-4.766q0-2.793-.117-3.379-.098-.605-.625-.898-.508-.313-1.914-.313v-.898q2.148-.235 4.394-.899z" style="font-style:normal;font-variant:normal;font-weight:400;font-stretch:normal;font-size:40px;line-height:1.25;font-family:Baskerville;-inkscape-font-specification:Baskerville" transform="translate(-179.771 -195.935)"/></g></svg>