<?xml version="1.0" encoding="UTF-8" standalone="no"?>
<!-- Created with Inkscape (http://www.inkscape.org/) -->

<svg
   width="350.052"
   height="32.404709"
   viewBox="0 0 350.05201 32.40471"
   version="1.1"
   id="svg1"
   inkscape:version="1.3.2 (091e20e, 2023-11-25)"
   sodipodi:docname="svg_chaker_divider_icon.svg"
   xmlns:inkscape="http://www.inkscape.org/namespaces/inkscape"
   xmlns:sodipodi="http://sodipodi.sourceforge.net/DTD/sodipodi-0.dtd"
   xmlns="http://www.w3.org/2000/svg"
   xmlns:svg="http://www.w3.org/2000/svg">
  <sodipodi:namedview
     id="namedview1"
     pagecolor="#ffffff"
     bordercolor="#000000"
     borderopacity="0.25"
     inkscape:showpageshadow="2"
     inkscape:pageopacity="0.0"
     inkscape:pagecheckerboard="0"
     inkscape:deskcolor="#d1d1d1"
     inkscape:document-units="px"
     showguides="true"
     inkscape:zoom="1.5032206"
     inkscape:cx="271.74987"
     inkscape:cy="115.75147"
     inkscape:window-width="1728"
     inkscape:window-height="1051"
     inkscape:window-x="0"
     inkscape:window-y="38"
     inkscape:window-maximized="0"
     inkscape:current-layer="layer1">
    <sodipodi:guide
       position="185.82243,-116.42176"
       orientation="0,-1"
       id="guide1"
       inkscape:locked="false" />
    <sodipodi:guide
       position="782.13546,-116.8471"
       orientation="0,-1"
       id="guide10"
       inkscape:locked="false" />
  </sodipodi:namedview>
  <defs
     id="defs1" />
  <g
     inkscape:label="Layer 1"
     inkscape:groupmode="layer"
     id="layer1"
     transform="translate(-4.7657141e-4)">
    <g
       id="g15"
       transform="matrix(0.92286104,0,0,0.92305225,-24.224766,-108.13857)"
       style="fill:#000000;stroke:#000000;stroke-width:1.08348">
      <path
         style="fill:#000000;fill-opacity:1;stroke:#000000;stroke-width:0.114667"
         d="m 175.52802,134.70496 -19.46604,-2.68811 -129.810641,2.68811 129.810641,2.68811 19.46604,-2.68812"
         id="path11"
         sodipodi:nodetypes="ccccc" />
      <path
         style="fill:#000000;fill-opacity:1;stroke:#000000;stroke-width:0.114667"
         d="m 256.28426,134.70496 19.46604,-2.68811 129.81064,2.68811 -129.81064,2.68811 -19.46604,-2.68812"
         id="path12"
         sodipodi:nodetypes="ccccc" />
      <path
         style="fill:#000000;fill-opacity:1;stroke:#000000;stroke-width:0.114667"
         d="m 191.23396,141.68809 c -2.12048,-3.83455 -10.27567,-7.03498 -15.70591,-6.98182 5.43024,0.0532 13.58543,-3.14726 15.70591,-6.98182 2.12049,3.83456 10.27568,7.03498 15.70592,6.98182 -5.43024,-0.0532 -13.58543,3.14727 -15.70592,6.98182 z"
         id="path13"
         sodipodi:nodetypes="ccccc" />
      <path
         style="fill:#000000;fill-opacity:1;stroke:#000000;stroke-width:0.114667"
         d="m 240.58788,141.68809 c -2.12048,-3.83455 -10.27567,-7.03498 -15.70591,-6.98182 5.43024,0.0532 13.58543,-3.14726 15.70591,-6.98182 2.12049,3.83456 10.27568,7.03498 15.70592,6.98182 -5.43024,-0.0532 -13.58543,3.14727 -15.70592,6.98182 z"
         id="path14"
         sodipodi:nodetypes="ccccc" />
      <path
         id="path15"
         style="fill:#000000;fill-opacity:1;stroke:#000000;stroke-width:0.114667"
         d="m 215.91106,146.26448 c -1.4997,-5.1168 -4.54563,-9.74339 -6.26186,-11.55821 1.71623,-1.81482 4.76216,-6.44142 6.26186,-11.55822 1.4997,5.1168 4.54563,9.7434 6.26186,11.55822 -1.71623,1.81482 -4.76216,6.44141 -6.26186,11.55821 z m -1e-5,5.98316 c 1.75412,-8.45192 6.39952,-15.38395 8.97091,-17.54137 -2.57139,-2.15742 -7.21679,-9.08945 -8.97091,-17.54137 -1.75412,8.45192 -6.39953,15.38395 -8.97092,17.54137 2.57139,2.15742 7.2168,9.08945 8.97092,17.54137 z" />
    </g>
  </g>
</svg>
