<svg xmlns="http://www.w3.org/2000/svg" xmlns:xlink="http://www.w3.org/1999/xlink" width="340" height="329"><defs><clipPath id="a"><path d="M253 143h3v10.262h-3zm0 0"/></clipPath><clipPath id="b"><path d="M356 37h13.402v3H356Zm0 0"/></clipPath><clipPath id="c"><path d="M241.844 25.703h127.558v127.559H241.844Zm0 0"/></clipPath><symbol id="d" overflow="visible" style="overflow:visible"><path d="M6.563-2.297c.171 0 .359 0 .359-.203 0-.188-.188-.188-.36-.188h-5.39c-.172 0-.344 0-.344.188 0 .203.172.203.344.203zm0 0" style="stroke:none"/></symbol><symbol id="e" overflow="visible" style="overflow:visible"><path d="m4.734-1.36-.125-.062c-.375.578-.5.672-.953.672H1.281l1.672-1.766c.89-.921 1.281-1.687 1.281-2.453 0-1-.812-1.765-1.859-1.765-.547 0-1.063.218-1.422.609-.328.344-.469.656-.64 1.375l.203.047C.922-5.687 1.28-6 1.969-6c.828 0 1.406.563 1.406 1.406 0 .782-.469 1.703-1.297 2.594L.297-.125V0h3.89Zm0 0" style="stroke:none"/></symbol></defs><g style="display:inline"><path d="M609.206 428.693h127.562M609.206 377.67h127.562m-127.562-51.024h127.562M621.963 441.447V313.89m51.024 127.558V313.89m51.023 127.558V313.89" style="fill:none;stroke:#9e9ed1;stroke-width:.19925;stroke-linecap:butt;stroke-linejoin:miter;stroke-miterlimit:10;stroke-opacity:1" transform="translate(240.324 -307.639)"/><path d="M647.475 441.447V313.89M698.499 441.447V313.89M609.206 403.178h127.562M609.206 352.158h127.562" style="fill:none;stroke:#9e9ed1;stroke-width:.3985;stroke-linecap:round;stroke-linejoin:miter;stroke-miterlimit:10;stroke-dasharray:0,1.41731;stroke-opacity:1" transform="translate(240.324 -307.639)"/><path d="M609.206 377.67h127.562M672.987 441.447V313.89" style="fill:none;stroke:#000;stroke-width:.3985;stroke-linecap:butt;stroke-linejoin:miter;stroke-miterlimit:10;stroke-opacity:1" transform="translate(240.324 -307.639)"/><text xml:space="preserve" x="670.705" y="455.855" style="font-style:italic;font-variant:normal;font-weight:400;font-stretch:normal;line-height:0%;font-family:Baskerville;-inkscape-font-specification:&quot;Baskerville, Italic&quot;;text-align:start;letter-spacing:0;word-spacing:0;writing-mode:lr-tb;text-anchor:start;display:inline;fill:#aeaed6;fill-opacity:1;stroke:none;stroke-width:1px;stroke-linecap:butt;stroke-linejoin:miter;stroke-opacity:1" transform="translate(240.324 -307.639)"><tspan x="670.705" y="455.855" style="font-style:normal;font-variant:normal;font-weight:400;font-stretch:normal;font-size:10.6269px;line-height:1.25;font-family:Times;-inkscape-font-specification:Times;fill:#aeaed6;fill-opacity:1">0</tspan></text><text xml:space="preserve" x="722.251" y="455.713" style="font-style:italic;font-variant:normal;font-weight:400;font-stretch:normal;line-height:0%;font-family:Baskerville;-inkscape-font-specification:&quot;Baskerville, Italic&quot;;text-align:start;letter-spacing:0;word-spacing:0;writing-mode:lr-tb;text-anchor:start;display:inline;fill:#aeaed6;fill-opacity:1;stroke:none;stroke-width:1px;stroke-linecap:butt;stroke-linejoin:miter;stroke-opacity:1" transform="translate(240.324 -307.639)"><tspan x="722.251" y="455.713" style="font-style:normal;font-variant:normal;font-weight:400;font-stretch:normal;font-size:10.6269px;line-height:1.25;font-family:Times;-inkscape-font-specification:Times;fill:#aeaed6;fill-opacity:1">1</tspan></text><text xml:space="preserve" x="620.754" y="455.848" style="font-style:italic;font-variant:normal;font-weight:400;font-stretch:normal;font-size:11.2908px;line-height:0%;font-family:Baskerville;-inkscape-font-specification:&quot;Baskerville, Italic&quot;;text-align:start;letter-spacing:0;word-spacing:0;writing-mode:lr-tb;text-anchor:start;fill:#aeaed6;fill-opacity:1;stroke:none;stroke-width:.9409px;stroke-linecap:butt;stroke-linejoin:miter;stroke-opacity:1" transform="translate(240.324 -307.639)"><tspan x="620.754" y="455.848" style="font-style:normal;font-variant:normal;font-weight:400;font-stretch:normal;font-size:10.6269px;line-height:1.25;font-family:Times;-inkscape-font-specification:Times;fill:#aeaed6;fill-opacity:1;stroke-width:.9409px">1</tspan></text><path d="M615.895 452.682h4.472v.664h-4.472z" style="font-style:normal;font-variant:normal;font-weight:400;font-stretch:normal;font-size:11.2944px;line-height:125%;font-family:Times;-inkscape-font-specification:Times;text-align:start;letter-spacing:0;word-spacing:0;writing-mode:lr-tb;text-anchor:start;fill:#aeaed6;fill-opacity:1;stroke:none;stroke-width:.9409px;stroke-linecap:butt;stroke-linejoin:miter;stroke-opacity:1" transform="translate(240.324 -307.639)"/><text xml:space="preserve" x="597.731" y="328.849" style="font-style:italic;font-variant:normal;font-weight:400;font-stretch:normal;line-height:0%;font-family:Baskerville;-inkscape-font-specification:&quot;Baskerville, Italic&quot;;text-align:start;letter-spacing:0;word-spacing:0;writing-mode:lr-tb;text-anchor:start;display:inline;fill:#aeaed6;fill-opacity:1;stroke:none;stroke-width:1px;stroke-linecap:butt;stroke-linejoin:miter;stroke-opacity:1" transform="translate(240.324 -307.639)"><tspan x="597.731" y="328.849" style="font-style:normal;font-variant:normal;font-weight:400;font-stretch:normal;font-size:10.6269px;line-height:1.25;font-family:Times;-inkscape-font-specification:Times;fill:#aeaed6;fill-opacity:1">1</tspan></text><text xml:space="preserve" x="597.303" y="380.834" style="font-style:italic;font-variant:normal;font-weight:400;font-stretch:normal;line-height:0%;font-family:Baskerville;-inkscape-font-specification:&quot;Baskerville, Italic&quot;;text-align:start;letter-spacing:0;word-spacing:0;writing-mode:lr-tb;text-anchor:start;display:inline;fill:#aeaed6;fill-opacity:1;stroke:none;stroke-width:1px;stroke-linecap:butt;stroke-linejoin:miter;stroke-opacity:1" transform="translate(240.324 -307.639)"><tspan x="597.303" y="380.834" style="font-style:normal;font-variant:normal;font-weight:400;font-stretch:normal;font-size:10.6269px;line-height:1.25;font-family:Times;-inkscape-font-specification:Times;fill:#aeaed6;fill-opacity:1">0</tspan></text><text xml:space="preserve" x="597.572" y="431.742" style="font-style:italic;font-variant:normal;font-weight:400;font-stretch:normal;font-size:11.2908px;line-height:0%;font-family:Baskerville;-inkscape-font-specification:&quot;Baskerville, Italic&quot;;text-align:start;letter-spacing:0;word-spacing:0;writing-mode:lr-tb;text-anchor:start;fill:#aeaed6;fill-opacity:1;stroke:none;stroke-width:.9409px;stroke-linecap:butt;stroke-linejoin:miter;stroke-opacity:1" transform="translate(240.324 -307.639)"><tspan x="597.572" y="431.742" style="font-style:normal;font-variant:normal;font-weight:400;font-stretch:normal;font-size:10.6269px;line-height:1.25;font-family:Times;-inkscape-font-specification:Times;fill:#aeaed6;fill-opacity:1;stroke-width:.9409px">1</tspan></text><path d="M592.712 428.575h4.473v.665h-4.473z" style="font-style:normal;font-variant:normal;font-weight:400;font-stretch:normal;font-size:11.2944px;line-height:125%;font-family:Times;-inkscape-font-specification:Times;text-align:start;letter-spacing:0;word-spacing:0;writing-mode:lr-tb;text-anchor:start;fill:#aeaed6;fill-opacity:1;stroke:none;stroke-width:.9409px;stroke-linecap:butt;stroke-linejoin:miter;stroke-opacity:1" transform="translate(240.324 -307.639)"/></g><g style="display:inline"><path d="M690.28 277.606V229.92" style="clip-rule:nonzero;fill:none;stroke:#7f7f7f;stroke-width:1.29515;stroke-linecap:butt;stroke-linejoin:miter;stroke-miterlimit:10;stroke-opacity:1" transform="translate(172.007 -105.529)"/><path d="M860.67 123.586h3v10.222h-3zm0 0"/><path d="m690.28 226.583-2.671 5.34 2.672-2.004 2.668 2.004" style="fill:#7f7f7f;fill-opacity:1;fill-rule:nonzero;stroke:none" transform="translate(172.007 -105.529)"/><path d="M690.28 226.583h47.684" style="fill:none;stroke:#7f7f7f;stroke-width:1.29515;stroke-linecap:butt;stroke-linejoin:miter;stroke-miterlimit:10;stroke-opacity:1" transform="translate(172.007 -105.529)"/><path d="m741.304 226.583-5.34-2.672 2 2.672-2 2.668" style="fill:#7f7f7f;fill-opacity:1;fill-rule:nonzero;stroke:none" transform="translate(172.007 -105.529)"/><path d="M741.304 226.583v-47.687" style="fill:none;stroke:#7f7f7f;stroke-width:1.29515;stroke-linecap:butt;stroke-linejoin:miter;stroke-miterlimit:10;stroke-opacity:1" transform="translate(172.007 -105.529)"/><path d="m741.304 175.56-2.672 5.34 2.672-2.004 2.668 2.003" style="fill:#7f7f7f;fill-opacity:1;fill-rule:nonzero;stroke:none" transform="translate(172.007 -105.529)"/><path d="M741.304 175.56h47.688" style="fill:none;stroke:#7f7f7f;stroke-width:1.29515;stroke-linecap:butt;stroke-linejoin:miter;stroke-miterlimit:10;stroke-opacity:1" transform="translate(172.007 -105.529)"/><path d="m792.328 175.56-5.34-2.672 2.004 2.672-2.004 2.668" style="fill:#7f7f7f;fill-opacity:1;fill-rule:nonzero;stroke:none" transform="translate(172.007 -105.529)"/><path d="M792.328 175.56v-47.688" style="fill:none;stroke:#7f7f7f;stroke-width:1.29515;stroke-linecap:butt;stroke-linejoin:miter;stroke-miterlimit:10;stroke-opacity:1" transform="translate(172.007 -105.529)"/><path d="m792.328 124.536-2.672 5.34 2.672-2.004 2.672 2.004" style="fill:#7f7f7f;fill-opacity:1;fill-rule:nonzero;stroke:none" transform="translate(172.007 -105.529)"/><path d="M792.328 124.536h47.687" style="clip-rule:nonzero;fill:none;stroke:#7f7f7f;stroke-width:1.29515;stroke-linecap:butt;stroke-linejoin:miter;stroke-miterlimit:10;stroke-opacity:1" transform="translate(172.007 -105.529)"/><path d="M963.67 17.586h13.422v3h-13.421zm0 0"/><path d="M639.257 277.606 843.351 73.51" style="clip-rule:nonzero;fill:none;stroke:red;stroke-width:.79701;stroke-linecap:butt;stroke-linejoin:miter;stroke-miterlimit:10;stroke-opacity:1" transform="translate(172.007 -105.529)"/><path d="M849.53 6.25h127.562v127.558H849.53zm0 0"/></g><g style="display:inline"><path d="M741.5 351.604c.33-.016.495-.02.84-.056.235-.025.46-.066.697-.086 1.032-.089 2.11-.095 3.187-.1 1.028.007 2.083.064 3.135.117l-.228 1.204c-1.061-.111-2.11-.2-3.104-.184-1.648.044-3.28.128-4.705.57l.178-1.465z" style="fill:#aeaed6;fill-opacity:1;stroke:none;stroke-width:5.6;stroke-miterlimit:4;stroke-dasharray:none;stroke-opacity:1" transform="translate(240.324 -307.639)"/><path d="M746.112 348.558a35.581 35.581 0 0 0-.092 4.852c.032.58.106 1.158.158 1.737l-1.236.204c-.037-.587-.08-1.173-.11-1.76-.081-1.58-.093-3.168-.268-4.743l1.548-.29zM754.16 343.576c-.057.533-.049.548-.06 1.045.001.888.029 1.594.07 2.631.052 1.24.146 4.862.221 6.111.09 1.165.11 2.22.147 3.013.02.212.059.81.128 1.357l-1.457.185c-.067-.308-.029-1.398-.013-1.708-.05-1.507-.06-1.568-.085-2.743-.037-2.059-.092-4.116-.259-6.172-.09-1.591-.113-2.534-.23-3.593l1.464-.126zM724.729 326.414c1.394-.034 3.016.091 4.39.885.87.503 1.889 1.396 2.5 2.238.306.423.497.91.745 1.365.111.48.282.96.334 1.438.175 1.614-.303 3.167-.731 4.577-.16.525-.34 1.04-.505 1.563-.167.529-.327 1.061-.49 1.592-.508 1.852-.786 3.821-.43 5.897.192 1.116.313 1.303.707 2.37.549 1.207 1.274 2.383 2.423 3.104.563.353.887.425 1.477.626.765.173.47.127 1.15.214.113.014.225.009.338.04.057.016.155.04.158.098.042.628-.125.565-.541.779-.503.32-.752.443-1.19.886-.72.726-1.26 1.654-1.63 2.65-.134.363-.223.75-.335 1.125-.07.394-.16.782-.211 1.183-.108.846-.124 1.737-.112 2.612.021 1.503.153 3.024.272 4.54.14 1.906.34 3.865-.12 5.628-.27 1.04-.432 1.167-.95 2.045-.255.284-.489.59-.764.853-1.055 1.009-2.497 1.872-3.954 2.251-.27.07-.557.092-.835.138l-1.967-.08 1.263-.527-.693.056c.289-.022.586-.013.866-.066 1.465-.277 2.91-1.132 3.963-2.095.269-.247.5-.534.751-.8.513-.807.693-.961.974-1.929.499-1.718.315-3.655.183-5.531-.126-1.527-.278-3.058-.313-4.573-.021-.914-.02-1.787.085-2.671.05-.414.139-.813.208-1.22.11-.388.197-.787.329-1.165.359-1.03.88-2.003 1.57-2.791.387-.442.672-.633 1.117-.978.38-.227.344-.41.622.117.012.024-.047 0-.07-.004-.105-.017-.21-.038-.314-.06-.624-.13-.442-.093-1.14-.3-.625-.259-.93-.344-1.517-.762-1.162-.83-1.888-2.075-2.435-3.35-.388-1.112-.51-1.307-.688-2.463-.329-2.123-.019-4.127.496-6.024.162-.532.32-1.066.485-1.597.161-.52.34-1.03.495-1.553.41-1.372.859-2.843.69-4.41-.048-.441-.203-.885-.305-1.328-.232-.42-.408-.874-.696-1.263-.634-.857-1.543-1.59-2.45-2.059-.434-.224-.922-.236-1.347-.485-.093-.055.134-.126.2-.19l-.561.009-1.497-.605zM672.47 378.22c1.387-.072 3.005.01 4.39.771.877.482 1.912 1.354 2.539 2.186.314.417.516.902.774 1.353.121.48.302.96.364 1.44.211 1.62-.229 3.199-.622 4.63-.147.534-.315 1.057-.467 1.588-.154.538-.3 1.079-.451 1.618-.463 1.88-.694 3.87-.292 5.951.216 1.12.341 1.304.758 2.368.573 1.2 1.322 2.365 2.482 3.06.568.34.892.403 1.485.59.765.153.47.115 1.148.183.113.012.225.003.338.032.057.014.155.035.16.094.056.632-.112.573-.522.8-.492.335-.737.467-1.164.925-.7.75-1.216 1.7-1.56 2.715-.126.369-.206.76-.308 1.14-.061.4-.142.793-.183 1.199-.088.855-.084 1.753-.052 2.633.056 1.514.221 3.042.374 4.566.184 1.916.429 3.884.011 5.672-.246 1.055-.403 1.188-.9 2.086-.246.293-.472.608-.74.88-1.027 1.045-2.442 1.955-3.884 2.377-.266.078-.551.107-.827.161l-1.96-.026 1.245-.566-.689.076c.287-.03.584-.03.861-.09 1.452-.32 2.871-1.221 3.896-2.22.262-.256.486-.551.73-.827.491-.826.667-.987.925-1.969.457-1.744.23-3.69.055-5.577-.161-1.534-.347-3.072-.417-4.596-.042-.92-.06-1.8.024-2.694.04-.418.12-.822.18-1.234.1-.394.177-.799.3-1.182.333-1.047.83-2.042 1.498-2.855.375-.456.654-.656 1.09-1.016.373-.24.333-.422.621.101.013.024-.047.001-.07 0a8.36 8.36 0 0 1-.314-.052c-.624-.114-.441-.082-1.141-.272-.628-.243-.934-.32-1.527-.725-1.176-.804-1.927-2.038-2.5-3.307-.412-1.11-.538-1.303-.742-2.463-.376-2.13-.113-4.157.356-6.08.149-.541.294-1.084.446-1.623.148-.528.314-1.048.457-1.578.376-1.393.79-2.887.586-4.46-.058-.444-.223-.887-.334-1.33-.24-.418-.426-.87-.722-1.253-.651-.846-1.572-1.56-2.485-2.006-.437-.214-.924-.213-1.352-.453-.094-.052.13-.13.195-.195l-.559.023-1.503-.568zM688.249 403.245c2.154-.052 4.15-.235 6.136-.424l1.14-.13-.054 1.03-1.138.09c-1.874.181-.942.084-2.794.292-1.108.11-2.312.143-3.324.33l.034-1.188z" style="fill:#aeaed6;fill-opacity:1;stroke:none;stroke-width:5.6;stroke-miterlimit:4;stroke-dasharray:none;stroke-opacity:1" transform="translate(240.324 -307.639)"/><path d="M692.434 399.865c.01.159.024.317.033.476.049.947.028.962.087 2.024.069 1.236.183 2.464.316 3.694l.15.92-1.39.252-.114-.942c-.174-2.043-.285-4.098-.611-6.125l1.529-.299zM701.625 395.096c-.061.793-.058 1.957-.072 2.083-.015.592.044 1.409.012 2.335.028 1.24.021 3.675.074 4.924.074 2.632.127 3.407.177 5.037l-1.537-.037c-.065-.308-.016-.619.008-.93-.02-.913.006-2.347.006-3.52.006-2.06-.041-3.166-.064-4.445a65.082 65.082 0 0 0-.112-3.137c-.013-.127-.147-2.057-.146-2.184l1.654-.126z" style="fill:#aeaed6;fill-opacity:1;stroke:none;stroke-width:5.6;stroke-miterlimit:4;stroke-dasharray:none;stroke-opacity:1" transform="translate(240.324 -307.639)"/><path d="M624.669 428.455c-.934-.021-1.892.146-2.758.355l1.503.268.56-.128c-.066.076-.29.195-.196.228.428.153.914.06 1.351.185.913.262 1.835.786 2.486 1.487.296.32.482.726.722 1.088.112.411.276.812.333 1.234.204 1.498-.208 3.035-.584 4.466-.144.545-.31 1.085-.458 1.628-.152.555-.297 1.111-.445 1.667-.038.157-.064.317-.099.475h1.236c.04-.19.072-.384.117-.573.15-.555.296-1.11.45-1.664.152-.548.32-1.09.468-1.64.393-1.472.834-3.096.623-4.638-.063-.458-.244-.89-.366-1.336-.258-.392-.459-.827-.773-1.175-.627-.694-1.662-1.347-2.54-1.652a5.337 5.337 0 0 0-1.63-.275z" style="display:inline;fill:#aeaed6;fill-opacity:1;stroke:none;stroke-width:5.6;stroke-miterlimit:4;stroke-dasharray:none;stroke-opacity:1" transform="translate(240.324 -307.639)"/></g><g style="display:inline" transform="translate(172.007 -105.529)"><path d="m588.23 99.033 306.145 153.07" style="clip-rule:nonzero;fill:none;stroke:red;stroke-width:.79701;stroke-linecap:butt;stroke-linejoin:miter;stroke-miterlimit:10;stroke-opacity:1"/><path d="M677.524 111.79h127.558v127.56H677.524Zm0 0"/><path d="M724.534 132.667c.227-.013.455-.03.683-.037.468-.016.936-.02 1.404-.035 1.33-.046 2.657-.129 3.986-.172l-1.094.802c-2.053-.01-4.109.09-6.15.349l1.17-.907z" style="fill:#aeaed6;fill-opacity:1;stroke:none;stroke-width:2;stroke-linecap:square;stroke-linejoin:miter;stroke-miterlimit:100;stroke-dasharray:none;stroke-opacity:1"/><path d="M724.925 132.881c-.367 1.236-.527 2.533-.567 3.82l.005.144-1.412.183.024-.158c.123-.842.24-1.685.346-2.53.037-.29.06-.582.107-.871.026-.16.073-.315.11-.472l1.387-.116z" style="fill:#aeaed6;fill-opacity:1;stroke:none;stroke-width:2;stroke-linecap:square;stroke-linejoin:miter;stroke-miterlimit:100;stroke-dasharray:none;stroke-opacity:1"/><path d="M703.213 136.804c1.999.088 3.868.019 5.687-.111l-.368.955c-1.874.089-3.793.124-5.727.14l.408-.985zM717.653 132.508c-.398.206-.818.375-1.196.617-1.554.998-3.661 2.956-3.281 5.046.08.439.382.807.573 1.21.396.297.742.676 1.188.89 1.007.483 2.177.574 3.261.358.129-.026.16-.21.252-.303 1.296-1.314.817-.41 1.303-2.19-.088-.452-.096-.928-.263-1.357-.578-1.489-2.15-2.882-3.63-3.45l1.286-.589c1.49.8 3.036 2.174 3.64 3.787.18.477.192 1.001.288 1.501-.114.48-.111 1.004-.342 1.44-.746 1.408-2.17 1.577-3.646 1.83-1.085.187-2.406-.025-3.372-.553-.474-.26-.832-.69-1.247-1.035-.2-.458-.517-.88-.601-1.373-.378-2.209 1.65-4.236 3.27-5.376.363-.256.768-.445 1.152-.668l1.365.215z" style="fill:#aeaed6;fill-opacity:1;stroke:none;stroke-width:5.6;stroke-miterlimit:4;stroke-dasharray:none;stroke-opacity:1"/><path d="M45.915 34.342c-.052.05-.943.146-1.006.112-.064-.034-.303-.805-.279-.874.024-.07.643-.603.716-.603.072 0 .74.383.778.448.037.065-.157.868-.209.917z" style="fill:#aeaed6;fill-opacity:1;stroke:none;stroke-width:5.6;stroke-miterlimit:4;stroke-dasharray:none;stroke-opacity:1" transform="translate(676.74 106.923)"/><path d="M723.015 136.5c1.506-.665 3.228-.533 4.782-.156 1.129.274 1.873.55 2.821 1.193.292.197.535.46.802.69.204.394.612.864.284 1.361-.379.576-1.36.876-1.943 1.004-1.96.432-2.25.407-3.929.52-.552.003-1.193.03-1.756-.033-.104-.011-.205-.046-.307-.07l1.244-.646c.604.146 1.229.12 1.845.113.449-.034.897-.075 1.346-.101.113-.006.229.028.34.005a8.61 8.61 0 0 0 1.11-.32c.389-.142.916-.255.847-.8-.027-.215-.18-.394-.27-.59-.24-.218-.453-.47-.719-.654-.87-.604-1.668-.905-2.716-1.125-.568-.119-1.158-.1-1.726-.216-.082-.016-.1-.175-.185-.171-.178.006-.33.131-.496.197l-1.374-.201z" style="fill:#aeaed6;fill-opacity:1;stroke:none;stroke-width:2;stroke-linecap:square;stroke-linejoin:miter;stroke-miterlimit:100;stroke-dasharray:none;stroke-opacity:1"/><path d="M692.526 124.283c.385.127.8.183 1.155.38 1.293.72 2.384 2.007 2.753 3.452.274 1.073.088 1.527-.086 2.584-.228 1.175-1.338 2.763-1.083 3.968.126.592.483.77.908 1.14.273.143.536.307.82.428.925.395 2.06.676 3.074.562-2.287.78-.845.546-1.94.468-.165-.011-.658.023-.496-.008.25-.048.542-.171.762-.043.171.1-.388.085-.574.152-.182.066-.35.164-.525.246-1.623 1.155-1.333 2.633-1.06 4.405.367 1.64.955 3.38.535 5.074-.095.387-.185.811-.453 1.105-.363.396-.904.58-1.356.871-1.265.554-2.609.788-3.963.983l-1.309-.38c1.356-.14 2.7-.334 3.98-.84.434-.222.947-.33 1.3-.665.268-.254.365-.65.464-1.005.461-1.663-.19-3.374-.537-4.984-.196-1.258-.497-2.724.182-3.896.27-.465.457-.583.845-.937 1.145-.646 1.415-.61 2.969-.71.174-.01.349.02.522.046.147.021.528-.023.436.094-.258.328-.699.456-1.049.683-1.401-.07-2.776-.484-3.948-1.266-.5-.51-.822-.678-.957-1.42-.251-1.37.821-2.739 1.116-4.022.174-.964.363-1.414.115-2.397-.348-1.375-1.407-2.562-2.68-3.163-.366-.172-.783-.199-1.175-.298l1.255-.608z" style="fill:#aeaed6;fill-opacity:1;stroke:none;stroke-width:5.6;stroke-miterlimit:4;stroke-dasharray:none;stroke-opacity:1"/><path d="M774.927 158.096c.228-.012.455-.028.683-.035.468-.016.936-.019 1.404-.034 1.33-.044 2.657-.123 3.986-.164l-1.094.765a49.522 49.522 0 0 0-6.15.333l1.17-.865z" style="fill:#aeaed6;fill-opacity:1;stroke:none;stroke-width:2;stroke-linecap:square;stroke-linejoin:miter;stroke-miterlimit:100;stroke-dasharray:none;stroke-opacity:1"/><path d="M775.318 158.321c-.367 1.236-.527 2.533-.567 3.82l.005.144-1.412.183.024-.158c.123-.842.24-1.685.347-2.53.036-.29.06-.582.106-.871.026-.16.073-.315.11-.472l1.387-.116z" style="fill:#aeaed6;fill-opacity:1;stroke:none;stroke-width:2;stroke-linecap:square;stroke-linejoin:miter;stroke-miterlimit:100;stroke-dasharray:none;stroke-opacity:1"/><path d="M753.606 162.244c1.999.088 3.868.019 5.687-.111l-.368.955c-1.874.089-3.792.124-5.726.14l.407-.985zM768.046 157.948c-.398.206-.818.375-1.196.617-1.554.998-3.661 2.956-3.281 5.046.08.439.382.807.573 1.21.396.297.742.676 1.188.89 1.007.482 2.177.574 3.261.358.129-.026.16-.21.252-.303 1.296-1.314.817-.41 1.303-2.19-.088-.452-.096-.928-.263-1.357-.578-1.489-2.15-2.882-3.63-3.45l1.286-.589c1.49.8 3.036 2.174 3.64 3.787.18.477.192 1.001.288 1.501-.114.48-.111 1.004-.342 1.44-.746 1.408-2.17 1.577-3.646 1.83-1.085.187-2.406-.025-3.372-.553-.474-.26-.831-.69-1.247-1.035-.2-.458-.517-.88-.601-1.373-.378-2.209 1.65-4.236 3.27-5.376.363-.256.768-.445 1.152-.668l1.365.215z" style="fill:#aeaed6;fill-opacity:1;stroke:none;stroke-width:5.6;stroke-miterlimit:4;stroke-dasharray:none;stroke-opacity:1"/><path d="M45.915 34.342c-.052.05-.943.146-1.006.112-.064-.034-.303-.805-.279-.874.024-.07.643-.603.716-.603.072 0 .74.383.778.448.037.065-.157.868-.209.917z" style="fill:#aeaed6;fill-opacity:1;stroke:none;stroke-width:5.6;stroke-miterlimit:4;stroke-dasharray:none;stroke-opacity:1" transform="translate(727.133 132.363)"/><path d="M773.408 161.94c1.506-.665 3.228-.533 4.783-.156 1.128.274 1.872.55 2.82 1.193.292.197.535.46.802.69.204.394.612.864.284 1.361-.378.576-1.36.876-1.943 1.004-1.96.432-2.25.407-3.929.52-.552.003-1.193.03-1.756-.033-.104-.011-.205-.046-.307-.07l1.244-.646c.604.146 1.229.12 1.845.113.449-.034.897-.075 1.346-.101.113-.006.229.028.34.005a8.61 8.61 0 0 0 1.11-.32c.389-.142.916-.255.847-.8-.027-.215-.18-.394-.27-.59-.24-.218-.453-.47-.718-.654-.871-.604-1.669-.905-2.717-1.125-.568-.119-1.158-.1-1.726-.216-.082-.016-.1-.175-.185-.171-.178.006-.33.131-.496.197l-1.374-.201z" style="fill:#aeaed6;fill-opacity:1;stroke:none;stroke-width:2;stroke-linecap:square;stroke-linejoin:miter;stroke-miterlimit:100;stroke-dasharray:none;stroke-opacity:1"/><path d="M743.489 149.803c.385.127.8.183 1.155.38 1.293.72 2.383 2.007 2.753 3.452.274 1.073.088 1.527-.086 2.584-.228 1.175-1.338 2.763-1.083 3.968.126.592.483.77.908 1.14.273.143.536.307.82.428.925.395 2.06.676 3.074.562-2.288.78-.845.546-1.94.468-.165-.011-.658.023-.496-.008.25-.048.542-.171.762-.043.171.1-.388.085-.574.152-.182.066-.35.164-.526.246-1.622 1.155-1.332 2.633-1.059 4.405.367 1.64.955 3.38.535 5.074-.095.387-.185.811-.453 1.105-.363.396-.904.58-1.356.871-1.265.554-2.609.788-3.963.983l-1.309-.38c1.356-.14 2.7-.334 3.98-.84.434-.222.947-.33 1.3-.665.268-.254.365-.65.464-1.005.461-1.663-.19-3.374-.537-4.984-.196-1.258-.497-2.724.182-3.896.27-.465.457-.583.845-.937 1.145-.646 1.415-.61 2.969-.71.174-.01.349.02.522.046.147.021.528-.023.436.094-.258.328-.7.456-1.049.683-1.401-.07-2.776-.484-3.948-1.266-.5-.51-.822-.678-.957-1.42-.251-1.37.82-2.739 1.116-4.022.174-.964.363-1.414.115-2.397-.348-1.375-1.407-2.562-2.68-3.163-.366-.172-.783-.199-1.175-.298l1.255-.608z" style="fill:#aeaed6;fill-opacity:1;stroke:none;stroke-width:5.6;stroke-miterlimit:4;stroke-dasharray:none;stroke-opacity:1"/><path d="M639.258 124.545h47.684" style="clip-rule:nonzero;fill:none;stroke:#7f7f7f;stroke-width:1.29515;stroke-linecap:butt;stroke-linejoin:miter;stroke-miterlimit:10;stroke-opacity:1"/><path d="M677.524 123.209h10.156v2h-10.156zm0 0"/><path d="m690.281 124.545-5.34-2.668 2 2.668-2 2.671" style="fill:#7f7f7f;fill-opacity:1;fill-rule:nonzero;stroke:none"/><path d="M690.281 150.056h47.684" style="fill:none;stroke:#7f7f7f;stroke-width:1.29515;stroke-linecap:butt;stroke-linejoin:miter;stroke-miterlimit:10;stroke-opacity:1"/><path d="m741.305 150.056-5.34-2.668 2 2.668-2 2.672" style="fill:#7f7f7f;fill-opacity:1;fill-rule:nonzero;stroke:none"/><path d="M741.305 175.568h47.683" style="fill:none;stroke:#7f7f7f;stroke-width:1.29515;stroke-linecap:butt;stroke-linejoin:miter;stroke-miterlimit:10;stroke-opacity:1"/><path d="m792.328 175.568-5.34-2.668 2 2.668-2 2.672" style="fill:#7f7f7f;fill-opacity:1;fill-rule:nonzero;stroke:none"/><path d="M792.328 201.08h47.688" style="clip-rule:nonzero;fill:none;stroke:#7f7f7f;stroke-width:1.29515;stroke-linecap:butt;stroke-linejoin:miter;stroke-miterlimit:10;stroke-opacity:1"/><path d="M791.68 200.209h13.402v2H791.68zm0 0"/><path d="M690.281 124.545v22.175" style="fill:none;stroke:#7f7f7f;stroke-width:1.29515;stroke-linecap:butt;stroke-linejoin:miter;stroke-miterlimit:10;stroke-opacity:1"/><path d="m690.281 150.056 2.668-5.34-2.668 2.004-2.671-2.004" style="fill:#7f7f7f;fill-opacity:1;fill-rule:nonzero;stroke:none"/><path d="M741.305 150.056v22.176" style="fill:none;stroke:#7f7f7f;stroke-width:1.29515;stroke-linecap:butt;stroke-linejoin:miter;stroke-miterlimit:10;stroke-opacity:1"/><path d="m741.305 175.568 2.668-5.34-2.668 2.004-2.672-2.004M792.328 201.08l2.668-5.34-2.668 2.004-2.672-2.004" style="fill:#7f7f7f;fill-opacity:1;fill-rule:nonzero;stroke:none"/><path d="M792.328 175.568v22.176" style="fill:none;stroke:#7f7f7f;stroke-width:1.29515;stroke-linecap:butt;stroke-linejoin:miter;stroke-miterlimit:10;stroke-opacity:1"/><path d="M825.887 183.638c.228-.013.455-.03.683-.039.468-.017.936-.02 1.404-.037 1.33-.048 2.657-.134 3.986-.179l-1.094.838a45.204 45.204 0 0 0-6.15.365l1.17-.948z" style="fill:#aeaed6;fill-opacity:1;stroke:none;stroke-width:2;stroke-linecap:square;stroke-linejoin:miter;stroke-miterlimit:100;stroke-dasharray:none;stroke-opacity:1"/><path d="M826.278 183.841c-.367 1.236-.527 2.533-.567 3.82l.005.144-1.412.183.024-.158c.123-.842.24-1.685.347-2.53.036-.29.06-.582.106-.871.026-.16.073-.315.11-.472l1.387-.116z" style="fill:#aeaed6;fill-opacity:1;stroke:none;stroke-width:2;stroke-linecap:square;stroke-linejoin:miter;stroke-miterlimit:100;stroke-dasharray:none;stroke-opacity:1"/><path d="M804.566 187.763c1.999.089 3.868.02 5.687-.11l-.368.955c-1.874.089-3.792.124-5.726.14l.407-.985zM819.006 183.468c-.398.206-.818.375-1.196.617-1.554.998-3.661 2.956-3.281 5.046.08.439.382.807.573 1.21.396.297.742.676 1.188.89 1.007.483 2.177.574 3.261.358.129-.026.16-.21.252-.303 1.296-1.314.817-.41 1.303-2.19-.088-.452-.096-.928-.263-1.357-.578-1.489-2.15-2.882-3.63-3.45l1.286-.589c1.49.8 3.036 2.174 3.64 3.787.18.477.192 1.001.288 1.501-.114.48-.111 1.004-.342 1.44-.746 1.408-2.17 1.577-3.646 1.83-1.085.187-2.406-.025-3.372-.553-.474-.26-.831-.69-1.247-1.035-.2-.458-.517-.88-.601-1.373-.378-2.209 1.65-4.236 3.27-5.376.363-.256.768-.445 1.152-.668l1.365.215z" style="fill:#aeaed6;fill-opacity:1;stroke:none;stroke-width:5.6;stroke-miterlimit:4;stroke-dasharray:none;stroke-opacity:1"/><path d="M45.915 34.342c-.052.05-.943.146-1.006.112-.064-.034-.303-.805-.279-.874.024-.07.643-.603.716-.603.072 0 .74.383.778.448.037.065-.157.868-.209.917z" style="fill:#aeaed6;fill-opacity:1;stroke:none;stroke-width:5.6;stroke-miterlimit:4;stroke-dasharray:none;stroke-opacity:1" transform="translate(778.093 157.883)"/><path d="M824.368 187.46c1.506-.665 3.228-.533 4.783-.156 1.128.274 1.872.55 2.82 1.193.292.197.535.46.802.69.204.394.612.864.284 1.361-.378.576-1.36.876-1.943 1.004-1.96.432-2.25.407-3.929.52-.552.003-1.193.03-1.756-.033-.104-.011-.205-.046-.307-.07l1.244-.646c.604.146 1.229.12 1.845.113.449-.034.897-.075 1.346-.101.113-.006.229.028.34.005a8.61 8.61 0 0 0 1.11-.32c.389-.142.916-.255.847-.8-.027-.215-.18-.394-.27-.59-.24-.218-.453-.47-.718-.654-.871-.604-1.669-.905-2.717-1.125-.568-.119-1.158-.1-1.726-.216-.082-.016-.1-.175-.185-.171-.178.006-.33.131-.496.197l-1.374-.201z" style="fill:#aeaed6;fill-opacity:1;stroke:none;stroke-width:2;stroke-linecap:square;stroke-linejoin:miter;stroke-miterlimit:100;stroke-dasharray:none;stroke-opacity:1"/><path d="M794.849 175.323c.385.127.8.183 1.155.38 1.293.72 2.383 2.007 2.753 3.452.274 1.073.088 1.527-.086 2.584-.228 1.175-1.338 2.763-1.083 3.968.126.592.483.77.908 1.14.273.143.536.307.82.428.925.395 2.06.676 3.074.562-2.288.78-.845.546-1.94.468-.165-.011-.658.023-.496-.008.25-.048.542-.171.762-.043.171.1-.388.085-.574.152-.182.066-.35.164-.526.246-1.622 1.155-1.332 2.633-1.059 4.405.367 1.64.955 3.38.535 5.074-.095.387-.185.811-.453 1.105-.363.396-.904.58-1.356.871-1.265.554-2.609.788-3.963.983l-1.309-.38c1.356-.14 2.7-.334 3.98-.84.434-.222.947-.33 1.3-.665.268-.254.365-.65.464-1.005.461-1.663-.19-3.374-.537-4.984-.196-1.258-.497-2.724.182-3.896.27-.465.457-.583.845-.937 1.145-.646 1.415-.61 2.969-.71.174-.01.349.02.522.046.147.021.528-.023.436.094-.258.328-.7.456-1.049.683-1.401-.07-2.776-.484-3.948-1.266-.5-.51-.822-.678-.957-1.42-.251-1.37.82-2.739 1.116-4.022.174-.964.363-1.414.115-2.397-.348-1.375-1.407-2.562-2.68-3.163-.366-.172-.783-.199-1.175-.298l1.255-.608z" style="fill:#aeaed6;fill-opacity:1;stroke:none;stroke-width:5.6;stroke-miterlimit:4;stroke-dasharray:none;stroke-opacity:1"/><path d="M597.408 180.9c.265.01.894.09 1.077.188.668.358 1.23.997 1.422 1.714.142.532.045.758-.044 1.282-.118.584-.692 1.372-.56 1.97.065.294.25.382.469.566.141.07.277.152.423.212.478.197 1.065.336 1.588.28-1.181.387-.436.27-1.002.232-.085-.006-.34.011-.256-.004.13-.024.28-.086.394-.022.088.05-.2.042-.297.076-.094.033-.18.081-.271.122-.838.573-.688 1.307-.547 2.186.189.814.493 1.678.276 2.52-.05.191-.096.402-.234.547-.188.197-.467.289-.7.433-.654.275-1.348.391-2.047.488l-.677-.188c.7-.07 1.395-.166 2.056-.418.224-.11.489-.164.672-.33.138-.126.188-.322.24-.499.238-.825-.099-1.675-.278-2.474-.101-.624-.257-1.352.094-1.934.139-.23.236-.289.436-.465.592-.32.731-.303 1.534-.352.09-.006.18.01.27.023.075.01.272-.011.225.047-.134.162-.361.226-.542.339a4.15 4.15 0 0 1-2.04-.629c-.258-.253-.424-.336-.494-.704-.13-.68.424-1.36.577-1.997.09-.478.187-.702.059-1.19-.18-.683-.727-1.272-1.385-1.57-.188-.086-.818-.164-1.086-.148l.648-.302z" style="fill:#000;fill-opacity:1;stroke:none;stroke-width:5.6;stroke-miterlimit:4;stroke-dasharray:none;stroke-opacity:1"/><path d="M-156.007 388.312h103.182m33.068 0h158.228m-294.478-58.894h294.478m-294.478-58.894h294.478m-294.478-58.894h294.478m-294.478-58.893h119.023m17.227 0h158.228m-265.026 265.026V301.901m0-23.87V123.294m58.893 294.47v-294.47m58.894 294.47v-294.47m58.894 294.47v-294.47m58.894 294.47V301.9m0-23.87V123.294" style="display:inline;fill:none;stroke:#9e9ed1;stroke-width:.459969;stroke-linecap:butt;stroke-linejoin:miter;stroke-miterlimit:10;stroke-opacity:1"/><path d="M-156.007 270.524h294.478M-8.768 417.763V123.294" style="display:inline;fill:none;stroke:#000;stroke-width:.919937;stroke-linecap:butt;stroke-linejoin:miter;stroke-miterlimit:10;stroke-opacity:1"/><use xlink:href="#d" width="100%" height="100%" x="248.255" y="393.058" style="display:inline;fill:#b0b0d9;fill-opacity:1" transform="matrix(2.036 0 0 2.03426 -648.283 -503.683)"/><use xlink:href="#e" width="100%" height="100%" x="256.055" y="393.058" style="display:inline;fill:#b0b0d9;fill-opacity:1" transform="matrix(2.036 0 0 2.03426 -648.283 -503.683)"/><use xlink:href="#e" width="100%" height="100%" x="354.173" y="393.471" style="display:inline;fill:#b0b0d9;fill-opacity:1" transform="matrix(2.036 0 0 2.03426 -617.151 -503.683)"/><use xlink:href="#e" width="100%" height="100%" x="295.496" y="334.029" style="display:inline;fill:#b0b0d9;fill-opacity:1" transform="matrix(2.03191 0 0 2.03314 -632.096 -519.612)"/><use xlink:href="#d" width="100%" height="100%" x="286.523" y="435.663" style="display:inline;fill:#b0b0d9;fill-opacity:1" transform="matrix(2.03627 0 0 2.03601 -632.06 -492.756)"/><use xlink:href="#e" width="100%" height="100%" x="294.323" y="435.663" style="display:inline;fill:#b0b0d9;fill-opacity:1" transform="matrix(2.03627 0 0 2.03601 -632.06 -492.756)"/><path d="M-156.007 254.775 138.47 402.003v2.07l-294.478-147.241" style="color:#000;display:inline;fill:red;stroke-width:.23085;stroke-miterlimit:10;-inkscape-stroke:none"/><path d="m2418.582 4171.037 1275.635-637.826" style="display:inline;color:#000;fill:red;stroke-miterlimit:10;-inkscape-stroke:none" transform="matrix(.23085 0 0 -.23085 -714.34 1217.658)"/><g style="clip-rule:nonzero;display:inline"><path d="M2418.594 4230.352h100.195" style="fill:none;stroke:#000;stroke-width:8.9664;stroke-linecap:butt;stroke-linejoin:miter;stroke-miterlimit:10;stroke-opacity:1" transform="matrix(.2308 0 0 -.2308 -714.34 1217.658)"/></g><path d="m-126.555 241.082-10.127-5.06 3.805 5.06-3.805 5.059" style="display:inline;fill:#000;fill-opacity:1;fill-rule:nonzero;stroke:none;stroke-width:2.3085"/><path d="M-126.555 241.082v23.12" style="display:inline;fill:none;stroke:#000;stroke-width:2.0699;stroke-linecap:butt;stroke-linejoin:miter;stroke-miterlimit:10;stroke-opacity:1"/><path d="m-126.555 270.524 5.058-10.118-5.058 3.797-5.06-3.797" style="display:inline;fill:#000;fill-opacity:1;fill-rule:nonzero;stroke:none;stroke-width:2.3085"/><path d="M-126.555 270.524h52.563" style="display:inline;fill:none;stroke:#000;stroke-width:2.0699;stroke-linecap:butt;stroke-linejoin:miter;stroke-miterlimit:10;stroke-opacity:1"/><path d="m-67.662 270.524-10.117-5.059 3.787 5.06-3.787 5.058" style="display:inline;fill:#000;fill-opacity:1;fill-rule:nonzero;stroke:none;stroke-width:2.3085"/><path d="M-67.662 270.524v23.121" style="display:inline;fill:none;stroke:#000;stroke-width:2.0699;stroke-linecap:butt;stroke-linejoin:miter;stroke-miterlimit:10;stroke-opacity:1"/><path d="m-67.662 299.976 5.06-10.118-5.06 3.787-5.058-3.787" style="display:inline;fill:#000;fill-opacity:1;fill-rule:nonzero;stroke:none;stroke-width:2.3085"/><path d="M-67.662 299.976h52.564" style="display:inline;fill:none;stroke:#000;stroke-width:2.0699;stroke-linecap:butt;stroke-linejoin:miter;stroke-miterlimit:10;stroke-opacity:1"/><path d="m-8.768 299.976-10.118-5.06 3.788 5.06-3.788 5.058" style="display:inline;fill:#000;fill-opacity:1;fill-rule:nonzero;stroke:none;stroke-width:2.3085"/><path d="M-8.768 299.976v23.12" style="display:inline;fill:none;stroke:#000;stroke-width:2.0699;stroke-linecap:butt;stroke-linejoin:miter;stroke-miterlimit:10;stroke-opacity:1"/><path d="m-8.768 329.418 5.059-10.118-5.059 3.797-5.059-3.797" style="display:inline;fill:#000;fill-opacity:1;fill-rule:nonzero;stroke:none;stroke-width:2.3085"/><path d="M-8.768 329.418h52.564" style="display:inline;fill:none;stroke:#000;stroke-width:2.0699;stroke-linecap:butt;stroke-linejoin:miter;stroke-miterlimit:10;stroke-opacity:1"/><path d="m50.126 329.418-10.118-5.059 3.788 5.059-3.788 5.068" style="display:inline;fill:#000;fill-opacity:1;fill-rule:nonzero;stroke:none;stroke-width:2.3085"/><path d="M50.126 329.418v23.121" style="display:inline;fill:none;stroke:#000;stroke-width:2.0699;stroke-linecap:butt;stroke-linejoin:miter;stroke-miterlimit:10;stroke-opacity:1"/><path d="m50.126 358.87 5.059-10.118-5.059 3.787-5.059-3.787" style="display:inline;fill:#000;fill-opacity:1;fill-rule:nonzero;stroke:none;stroke-width:2.3085"/><path d="M50.126 358.87h52.572" style="display:inline;fill:none;stroke:#000;stroke-width:2.0699;stroke-linecap:butt;stroke-linejoin:miter;stroke-miterlimit:10;stroke-opacity:1"/><path d="m109.02 358.87-10.118-5.06 3.796 5.06-3.796 5.058" style="display:inline;fill:#000;fill-opacity:1;fill-rule:nonzero;stroke:none;stroke-width:2.3085"/><path d="M109.02 358.87v23.12" style="display:inline;fill:none;stroke:#000;stroke-width:2.0699;stroke-linecap:butt;stroke-linejoin:miter;stroke-miterlimit:10;stroke-opacity:1"/><path d="m109.02 388.312 5.059-10.118-5.06 3.796-5.058-3.796" style="display:inline;fill:#000;fill-opacity:1;fill-rule:nonzero;stroke:none;stroke-width:2.3085"/><g style="clip-rule:nonzero;display:inline"><path d="M3566.64 3592.578h127.579" style="fill:none;stroke:#000;stroke-width:8.9664;stroke-linecap:butt;stroke-linejoin:miter;stroke-miterlimit:10;stroke-opacity:1" transform="matrix(.2308 0 0 -.2308 -714.34 1217.658)"/></g><path d="M-84.865 249.236c.272-.014.543-.035.815-.044.558-.018 1.116-.023 1.674-.042 1.585-.055 3.168-.153 4.753-.204l-1.305.956c-2.447-.012-4.899.108-7.334.416l1.397-1.082z" style="fill:#000;fill-opacity:1;stroke:none;stroke-width:4.617;stroke-linecap:square;stroke-linejoin:miter;stroke-miterlimit:100;stroke-dasharray:none;stroke-opacity:1"/><path d="M-84.398 249.492c-.437 1.474-.628 3.02-.676 4.554l.006.172-1.683.218.028-.188c.147-1.004.286-2.01.413-3.016.044-.346.072-.695.128-1.04.03-.19.087-.375.13-.563l1.655-.137z" style="fill:#000;fill-opacity:1;stroke:none;stroke-width:4.617;stroke-linecap:square;stroke-linejoin:miter;stroke-miterlimit:100;stroke-dasharray:none;stroke-opacity:1"/><path d="M-110.288 254.169c2.384.105 4.612.023 6.781-.132l-.438 1.138a176.59 176.59 0 0 1-6.829.168l.486-1.174zM-93.07 249.047c-.474.245-.975.447-1.425.735-1.854 1.19-4.366 3.525-3.913 6.017.095.524.456.963.684 1.444.472.353.884.806 1.416 1.06 1.2.576 2.596.684 3.888.427.154-.03.19-.25.3-.36 1.546-1.568.975-.489 1.554-2.611-.104-.54-.114-1.107-.313-1.62-.69-1.774-2.563-3.435-4.33-4.113l1.535-.702c1.777.953 3.62 2.591 4.341 4.516.213.568.229 1.193.343 1.79-.136.572-.133 1.197-.408 1.716-.89 1.68-2.587 1.88-4.348 2.183-1.293.222-2.868-.03-4.02-.66-.566-.31-.992-.823-1.487-1.235-.24-.545-.617-1.05-.717-1.637-.451-2.633 1.967-5.05 3.9-6.41.432-.305.915-.53 1.373-.796l1.628.256z" style="fill:#000;fill-opacity:1;stroke:none;stroke-width:12.9276;stroke-miterlimit:4;stroke-dasharray:none;stroke-opacity:1"/><path d="M23.707 17.74c-.029.024-.424.081-.458.065-.035-.016-.22-.424-.215-.46.004-.038.32-.273.357-.275.037-.002.384.182.398.216.015.033-.053.43-.082.454z" style="fill:#000;fill-opacity:1;stroke:none;stroke-width:5.6;stroke-miterlimit:4;stroke-dasharray:none;stroke-opacity:1" transform="translate(-141.853 218.54) scale(2.3085)"/><path d="M-86.676 253.807c1.796-.793 3.849-.636 5.703-.186 1.345.326 2.232.656 3.363 1.422.348.236.638.549.957.823.243.47.728 1.03.338 1.623-.452.686-1.62 1.044-2.317 1.198-2.338.515-2.683.484-4.685.62-.658.004-1.422.035-2.094-.04-.124-.013-.244-.055-.366-.082l1.484-.772c.72.174 1.465.143 2.2.135.535-.04 1.069-.09 1.604-.12.135-.008.273.034.405.006a10.24 10.24 0 0 0 1.325-.381c.463-.169 1.091-.304 1.01-.955-.033-.256-.215-.469-.323-.703-.285-.26-.54-.559-.856-.779-1.039-.72-1.99-1.08-3.24-1.341-.676-.142-1.38-.12-2.057-.258-.099-.02-.12-.208-.22-.205-.213.007-.395.158-.592.236l-1.639-.24zM-26.277 279.256c.272-.014.543-.034.815-.044.558-.018 1.116-.023 1.674-.042 1.585-.055 3.168-.153 4.753-.204l-1.305.956c-2.447-.012-4.899.108-7.334.416l1.397-1.082z" style="fill:#000;fill-opacity:1;stroke:none;stroke-width:4.617;stroke-linecap:square;stroke-linejoin:miter;stroke-miterlimit:100;stroke-dasharray:none;stroke-opacity:1"/><path d="M-25.81 279.512c-.438 1.474-.628 3.02-.676 4.555l.006.171-1.683.218.028-.188c.147-1.004.286-2.009.413-3.016.044-.346.072-.694.128-1.039.03-.19.087-.376.13-.563l1.654-.137z" style="fill:#000;fill-opacity:1;stroke:none;stroke-width:4.617;stroke-linecap:square;stroke-linejoin:miter;stroke-miterlimit:100;stroke-dasharray:none;stroke-opacity:1"/><path d="M-51.7 284.19c2.383.104 4.612.022 6.781-.133l-.438 1.139c-2.235.106-4.523.147-6.829.167l.486-1.174zM-34.481 279.067c-.476.245-.976.447-1.426.736-1.854 1.19-4.366 3.524-3.913 6.016.095.524.456.963.684 1.444.472.354.884.806 1.416 1.06 1.2.576 2.596.685 3.888.427.154-.03.19-.25.3-.36 1.546-1.568.975-.489 1.554-2.611-.104-.54-.114-1.107-.313-1.62-.69-1.774-2.563-3.435-4.33-4.113l1.535-.702c1.777.953 3.62 2.592 4.341 4.516.213.569.229 1.193.343 1.79-.136.572-.133 1.197-.408 1.717-.89 1.678-2.587 1.88-4.348 2.182-1.293.222-2.868-.03-4.02-.66-.566-.31-.992-.823-1.487-1.234-.24-.546-.617-1.05-.717-1.638-.451-2.633 1.967-5.05 3.9-6.41.432-.304.915-.53 1.373-.796l1.628.256z" style="fill:#000;fill-opacity:1;stroke:none;stroke-width:12.9276;stroke-miterlimit:4;stroke-dasharray:none;stroke-opacity:1"/><path d="M23.707 17.74c-.029.024-.424.081-.458.065-.035-.016-.22-.424-.215-.46.004-.038.32-.273.357-.275.037-.002.384.182.398.216.015.033-.053.43-.082.454z" style="fill:#000;fill-opacity:1;stroke:none;stroke-width:5.6;stroke-miterlimit:4;stroke-dasharray:none;stroke-opacity:1" transform="translate(-83.265 248.56) scale(2.3085)"/><path d="M-28.088 283.827c1.796-.793 3.849-.636 5.703-.186 1.345.327 2.232.656 3.363 1.422.348.236.638.55.957.824.243.47.728 1.03.338 1.622-.452.687-1.62 1.044-2.317 1.198-2.338.515-2.684.485-4.685.62-.658.005-1.422.035-2.094-.04-.124-.013-.244-.054-.366-.082l1.484-.771c.72.174 1.465.142 2.2.135.535-.04 1.069-.09 1.604-.121.135-.007.273.034.405.007.45-.098.893-.225 1.325-.382.463-.168 1.091-.304 1.01-.955-.033-.255-.216-.468-.323-.703-.286-.26-.54-.559-.856-.779-1.039-.72-1.99-1.079-3.24-1.341-.676-.142-1.38-.12-2.057-.257-.099-.021-.12-.21-.22-.205-.213.007-.395.157-.592.236l-1.639-.24zM32.795 308.066c.272-.014.543-.035.815-.044.558-.018 1.116-.023 1.674-.042 1.585-.055 3.168-.153 4.753-.204l-1.305.956c-2.447-.012-4.899.108-7.334.416l1.397-1.082z" style="fill:#000;fill-opacity:1;stroke:none;stroke-width:4.617;stroke-linecap:square;stroke-linejoin:miter;stroke-miterlimit:100;stroke-dasharray:none;stroke-opacity:1"/><path d="M33.262 308.322c-.437 1.474-.628 3.02-.676 4.555l.007.17-1.684.219.028-.188c.147-1.004.286-2.01.414-3.016.044-.346.071-.695.127-1.04.03-.19.087-.375.13-.563l1.655-.137z" style="fill:#000;fill-opacity:1;stroke:none;stroke-width:4.617;stroke-linecap:square;stroke-linejoin:miter;stroke-miterlimit:100;stroke-dasharray:none;stroke-opacity:1"/><path d="M7.372 312.999c2.384.105 4.612.023 6.781-.132l-.438 1.138c-2.235.107-4.522.148-6.828.168L7.372 313zM24.591 307.877c-.475.245-.976.447-1.426.735-1.854 1.19-4.366 3.525-3.913 6.017.095.524.456.963.684 1.444.472.353.884.806 1.416 1.06 1.201.576 2.596.684 3.889.427.153-.03.19-.25.3-.36 1.545-1.568.974-.489 1.553-2.611-.104-.54-.114-1.107-.313-1.62-.69-1.774-2.563-3.435-4.329-4.113l1.534-.702c1.777.953 3.62 2.591 4.341 4.516.213.569.229 1.193.343 1.79-.136.572-.133 1.197-.408 1.716-.89 1.68-2.587 1.88-4.348 2.183-1.293.222-2.868-.03-4.02-.66-.566-.31-.992-.823-1.487-1.235-.24-.545-.617-1.05-.717-1.637-.451-2.633 1.967-5.05 3.9-6.41.432-.305.915-.53 1.373-.796l1.628.256z" style="fill:#000;fill-opacity:1;stroke:none;stroke-width:12.9276;stroke-miterlimit:4;stroke-dasharray:none;stroke-opacity:1"/><path d="M23.707 17.74c-.029.024-.424.081-.458.065-.035-.016-.22-.424-.215-.46.004-.038.32-.273.357-.275.037-.002.384.182.398.216.015.033-.053.43-.082.454z" style="fill:#000;fill-opacity:1;stroke:none;stroke-width:5.6;stroke-miterlimit:4;stroke-dasharray:none;stroke-opacity:1" transform="translate(-24.193 277.37) scale(2.3085)"/><path d="M30.985 312.637c1.795-.793 3.848-.636 5.702-.186 1.345.326 2.233.656 3.363 1.422.348.236.638.549.957.823.243.47.728 1.03.338 1.623-.451.686-1.62 1.044-2.317 1.198-2.338.515-2.683.484-4.685.62-.658.004-1.422.035-2.094-.04-.124-.013-.244-.055-.366-.082l1.484-.772c.72.174 1.465.143 2.2.135.535-.04 1.069-.09 1.604-.12.135-.008.273.034.405.006.45-.097.893-.224 1.325-.381.463-.169 1.091-.304 1.01-.955-.033-.256-.215-.469-.323-.703-.285-.26-.54-.559-.856-.779-1.039-.72-1.99-1.079-3.24-1.341-.676-.142-1.38-.12-2.057-.258-.099-.02-.12-.208-.22-.205-.213.007-.395.158-.592.236l-1.638-.24zM91.867 337.602c.272-.014.543-.034.815-.044.558-.018 1.116-.023 1.674-.042 1.585-.055 3.169-.153 4.754-.204l-1.305.956c-2.448-.012-4.9.108-7.335.416l1.397-1.082z" style="fill:#000;fill-opacity:1;stroke:none;stroke-width:4.617;stroke-linecap:square;stroke-linejoin:miter;stroke-miterlimit:100;stroke-dasharray:none;stroke-opacity:1"/><path d="M92.334 337.858c-.437 1.474-.628 3.02-.676 4.555l.007.17-1.684.22.028-.189c.147-1.004.286-2.01.414-3.016.043-.346.071-.695.127-1.04.03-.19.087-.375.13-.562l1.655-.138z" style="fill:#000;fill-opacity:1;stroke:none;stroke-width:4.617;stroke-linecap:square;stroke-linejoin:miter;stroke-miterlimit:100;stroke-dasharray:none;stroke-opacity:1"/><path d="M66.444 342.535c2.384.105 4.612.023 6.782-.132l-.439 1.138a176.57 176.57 0 0 1-6.828.168l.485-1.174zM83.663 337.413c-.475.245-.976.447-1.426.736-1.854 1.19-4.366 3.524-3.913 6.016.095.524.456.963.684 1.444.472.354.885.806 1.416 1.06 1.201.576 2.596.685 3.889.427.153-.03.19-.25.3-.36 1.545-1.568.974-.489 1.553-2.611-.104-.54-.113-1.107-.313-1.62-.69-1.774-2.563-3.435-4.329-4.113l1.534-.702c1.777.953 3.62 2.592 4.341 4.516.213.569.229 1.193.343 1.79-.136.572-.133 1.197-.408 1.717-.89 1.678-2.587 1.88-4.348 2.182-1.293.222-2.868-.03-4.02-.66-.566-.31-.992-.823-1.487-1.234-.24-.546-.617-1.05-.717-1.638-.45-2.633 1.967-5.05 3.9-6.41.433-.304.915-.53 1.373-.796l1.628.256z" style="fill:#000;fill-opacity:1;stroke:none;stroke-width:12.9276;stroke-miterlimit:4;stroke-dasharray:none;stroke-opacity:1"/><path d="M23.707 17.74c-.029.024-.424.081-.458.065-.035-.016-.22-.424-.215-.46.004-.038.32-.273.357-.275.037-.002.384.182.398.216.015.033-.053.43-.082.454z" style="fill:#000;fill-opacity:1;stroke:none;stroke-width:5.6;stroke-miterlimit:4;stroke-dasharray:none;stroke-opacity:1" transform="translate(34.879 306.906) scale(2.3085)"/><path d="M90.057 342.173c1.795-.793 3.848-.636 5.702-.186 1.345.326 2.233.656 3.363 1.422.349.236.638.549.957.823.243.47.729 1.03.338 1.623-.451.687-1.62 1.044-2.317 1.198-2.337.515-2.683.485-4.684.62-.659.004-1.423.035-2.094-.04-.125-.013-.245-.055-.367-.082l1.484-.772c.72.174 1.465.143 2.2.135.535-.04 1.07-.09 1.605-.12.134-.007.273.034.405.007.449-.098.892-.225 1.324-.382.463-.169 1.091-.304 1.01-.955-.032-.256-.215-.469-.323-.703-.285-.26-.54-.559-.856-.779-1.038-.72-1.99-1.079-3.24-1.341-.676-.142-1.38-.12-2.057-.258-.098-.02-.12-.208-.22-.205-.213.007-.395.158-.592.236l-1.638-.24zM150.697 366.896c.272-.014.543-.034.815-.044.558-.018 1.116-.023 1.674-.042 1.585-.055 3.169-.153 4.754-.204l-1.305.956c-2.448-.012-4.9.108-7.334.416l1.396-1.082z" style="fill:#000;fill-opacity:1;stroke:none;stroke-width:4.617;stroke-linecap:square;stroke-linejoin:miter;stroke-miterlimit:100;stroke-dasharray:none;stroke-opacity:1"/><path d="M151.164 367.152c-.437 1.474-.628 3.02-.676 4.555l.007.17-1.684.219.028-.188c.147-1.004.286-2.01.414-3.016.044-.346.072-.695.127-1.04.03-.19.087-.375.13-.562l1.655-.138z" style="fill:#000;fill-opacity:1;stroke:none;stroke-width:4.617;stroke-linecap:square;stroke-linejoin:miter;stroke-miterlimit:100;stroke-dasharray:none;stroke-opacity:1"/><path d="M125.274 371.829c2.384.105 4.612.023 6.782-.132l-.439 1.138a176.59 176.59 0 0 1-6.828.168l.485-1.174zM142.493 366.707c-.475.245-.976.447-1.426.736-1.854 1.19-4.366 3.524-3.913 6.016.095.524.456.963.684 1.444.472.354.885.806 1.416 1.06 1.201.576 2.596.685 3.889.427.153-.03.19-.25.3-.36 1.545-1.568.974-.489 1.553-2.611-.104-.54-.113-1.107-.312-1.62-.69-1.774-2.564-3.435-4.33-4.113l1.534-.702c1.777.953 3.62 2.591 4.341 4.516.214.569.229 1.193.343 1.79-.136.572-.132 1.197-.408 1.717-.89 1.678-2.587 1.88-4.348 2.182-1.293.222-2.868-.03-4.02-.66-.566-.31-.992-.823-1.487-1.234-.24-.546-.617-1.05-.717-1.638-.45-2.633 1.967-5.05 3.9-6.41.433-.305.915-.53 1.373-.796z" style="fill:#000;fill-opacity:1;stroke:none;stroke-width:12.9276;stroke-miterlimit:4;stroke-dasharray:none;stroke-opacity:1"/><path d="M23.707 17.74c-.029.024-.424.081-.458.065-.035-.016-.22-.424-.215-.46.004-.038.32-.273.357-.275.037-.002.384.182.398.216.015.033-.053.43-.082.454z" style="fill:#000;fill-opacity:1;stroke:none;stroke-width:5.6;stroke-miterlimit:4;stroke-dasharray:none;stroke-opacity:1" transform="translate(93.709 336.2) scale(2.3085)"/><path d="M148.887 371.467c1.795-.793 3.848-.636 5.702-.186 1.345.326 2.233.656 3.363 1.422.349.236.638.549.957.823.243.47.729 1.03.338 1.623-.451.687-1.62 1.044-2.317 1.198-2.337.515-2.683.485-4.684.62-.659.004-1.423.035-2.094-.04-.125-.013-.244-.055-.366-.082l1.483-.772c.72.174 1.465.143 2.2.135.535-.04 1.07-.09 1.605-.12.135-.007.273.034.405.007a10.24 10.24 0 0 0 1.324-.382c.464-.169 1.091-.304 1.01-.955-.032-.256-.215-.469-.323-.703-.285-.26-.54-.559-.856-.779-1.038-.72-1.989-1.079-3.24-1.341-.676-.142-1.38-.12-2.057-.258-.098-.02-.12-.208-.22-.205-.213.007-.395.158-.592.236l-1.638-.24zM-143.453 221.06c.272-.014.543-.035.815-.044.558-.018 1.116-.023 1.674-.042 1.585-.055 3.168-.153 4.753-.204l-1.305.955c-2.562.047-5.16.148-7.334.417l1.397-1.082z" style="fill:#000;fill-opacity:1;stroke:none;stroke-width:4.617;stroke-linecap:square;stroke-linejoin:miter;stroke-miterlimit:100;stroke-dasharray:none;stroke-opacity:1"/><path d="M-142.986 221.316c-.437 1.474-.628 3.02-.676 4.554l.007.172-1.684.218.028-.188c.147-1.004.286-2.01.414-3.016.044-.346.071-.695.127-1.04.03-.19.087-.375.13-.563l1.654-.137z" style="fill:#000;fill-opacity:1;stroke:none;stroke-width:4.617;stroke-linecap:square;stroke-linejoin:miter;stroke-miterlimit:100;stroke-dasharray:none;stroke-opacity:1"/><path d="M-156.006 229.312c.354.299.696.617 1.11.815 1.201.576 2.596.684 3.888.427.154-.03.19-.25.3-.361 1.546-1.567.975-.488 1.554-2.61-.104-.54-.114-1.107-.313-1.62-.69-1.774-2.563-3.436-4.33-4.113l1.535-.702c1.777.953 3.62 2.591 4.341 4.516.213.568.229 1.193.343 1.79-.136.572-.133 1.197-.408 1.716-.89 1.68-2.587 1.88-4.348 2.183-1.168.2-2.565.014-3.674-.488" style="fill:#000;fill-opacity:1;stroke:none;stroke-width:12.9276;stroke-miterlimit:4;stroke-dasharray:none;stroke-opacity:1"/><path d="M23.707 17.74c-.029.024-.424.081-.458.065-.035-.016-.22-.424-.215-.46.004-.038.32-.273.357-.275.037-.002.384.182.398.216.015.033-.053.43-.082.454z" style="fill:#000;fill-opacity:1;stroke:none;stroke-width:5.6;stroke-miterlimit:4;stroke-dasharray:none;stroke-opacity:1" transform="translate(-200.441 190.364) scale(2.3085)"/><path d="M-145.264 225.63c1.796-.792 3.849-.635 5.703-.185 1.345.326 2.232.656 3.363 1.422.348.236.638.549.957.823.243.47.728 1.03.338 1.623-.452.686-1.62 1.044-2.317 1.198-2.338.515-2.683.484-4.685.62-.658.004-1.422.035-2.094-.04-.124-.013-.244-.055-.366-.083l1.484-.77c.72.173 1.465.142 2.2.134.535-.04 1.069-.09 1.604-.12.135-.008.273.034.405.006.45-.097.893-.224 1.325-.381.463-.169 1.091-.304 1.01-.955-.033-.256-.215-.469-.323-.703-.285-.26-.54-.559-.856-.779-1.039-.72-1.99-1.08-3.24-1.341-.676-.142-1.38-.12-2.057-.258-.099-.02-.12-.208-.22-.205-.213.007-.395.158-.592.236l-1.639-.24z" style="fill:#000;fill-opacity:1;stroke:none;stroke-width:4.617;stroke-linecap:square;stroke-linejoin:miter;stroke-miterlimit:100;stroke-dasharray:none;stroke-opacity:1"/><path d="M-123.747 240.385c.61.025 2.063.211 2.486.437 1.542.824 2.63 1.876 3.07 3.532.328 1.229.276 2.024.05 3.232-.253 1.35-1.173 3.035-.99 4.355.096.688.301 1.38.84 1.76.299.21.64.353.978.491 1.104.453 2.457.775 3.666.644-2.727.895-1.007.626-2.313.536-.196-.013-.785.027-.591-.01.298-.055.646-.196.908-.05.205.115-.462.099-.684.176-.217.075-.418.187-.627.281-1.935 1.324-1.588 2.907-1.263 4.937.437 1.88 1.138 3.873.638 5.815-.114.443-.22.93-.541 1.266-.432.454-1.077.665-1.616.998-1.509.634-3.111.903-4.725 1.127l-1.562-.435c1.617-.162 3.22-.384 4.747-.964.516-.254 1.128-.378 1.55-.762.319-.29.435-.744.553-1.152.55-1.905-.227-3.866-.641-5.711-.234-1.44-.593-3.01.217-4.353.321-.533.545-.668 1.008-1.074 1.365-.74 1.687-.7 3.54-.813.207-.013.416.021.622.052.176.025.63-.025.52.109-.307.375-.833.522-1.25.782-1.671-.08-3.224-.492-4.557-1.48-.67-.499-.907-1.198-1.05-2.051-.24-1.419.707-2.94 1.028-4.418.238-1.098.281-1.893-.014-3.018-.415-1.577-1.466-2.513-2.985-3.202-.435-.197-1.89-.379-2.507-.341l1.496-.696zM-65.028 270.172c.61.025 2.062.211 2.485.437 1.542.824 2.63 1.876 3.07 3.532.328 1.23.276 2.025.05 3.232-.253 1.35-1.173 3.036-.99 4.355.096.688.301 1.38.84 1.76.299.21.64.353.979.491 1.103.454 2.456.775 3.665.644-2.727.895-1.007.626-2.312.537-.197-.014-.786.027-.592-.01.298-.056.646-.197.909-.05.204.114-.463.098-.685.175-.217.076-.418.187-.627.281-1.935 1.324-1.588 2.907-1.263 4.937.437 1.88 1.138 3.873.638 5.815-.114.443-.22.93-.54 1.266-.433.454-1.078.665-1.617.998-1.508.635-3.111.903-4.725 1.127l-1.561-.435c1.616-.162 3.22-.384 4.746-.964.516-.254 1.128-.378 1.55-.762.319-.29.435-.744.553-1.151.55-1.906-.227-3.867-.641-5.712-.234-1.44-.593-3.01.217-4.353.321-.533.545-.668 1.008-1.074 1.365-.74 1.687-.7 3.54-.813.208-.013.416.021.622.052.176.025.63-.025.52.109-.307.375-.833.522-1.25.782-1.671-.08-3.224-.491-4.557-1.48-.67-.498-.907-1.198-1.05-2.051-.24-1.419.707-2.94 1.028-4.418.238-1.098.282-1.893-.014-3.018-.415-1.577-1.466-2.513-2.985-3.202-.435-.197-1.89-.379-2.507-.341l1.496-.696zM-5.968 299.446c.61.025 2.063.21 2.485.436 1.542.825 2.63 1.876 3.071 3.532.327 1.23.275 2.025.05 3.233-.254 1.35-1.173 3.035-.99 4.355.096.688.3 1.38.84 1.76.298.21.64.352.978.491 1.103.453 2.457.774 3.666.644-2.728.894-1.007.626-2.313.536-.197-.014-.785.027-.592-.01.298-.055.647-.196.91-.05.203.115-.464.098-.686.176-.216.075-.417.187-.626.28-1.935 1.325-1.589 2.907-1.264 4.937C0 321.646.7 323.64.2 325.581c-.114.443-.221.93-.541 1.266-.433.454-1.078.666-1.616.999-1.509.634-3.111.902-4.726 1.126l-1.561-.435c1.617-.161 3.22-.383 4.746-.963.517-.254 1.128-.379 1.55-.762.32-.291.436-.745.553-1.152.55-1.906-.227-3.866-.64-5.711-.234-1.441-.593-3.01.217-4.354.32-.533.545-.668 1.008-1.074 1.364-.74 1.687-.7 3.54-.812.207-.014.416.02.622.051.175.025.63-.025.52.11-.308.375-.834.521-1.25.782-1.672-.081-3.225-.492-4.557-1.481-.67-.498-.907-1.198-1.051-2.05-.239-1.419.707-2.94 1.028-4.418.239-1.098.282-1.893-.014-3.019-.414-1.576-1.465-2.512-2.984-3.201-.435-.198-1.89-.38-2.508-.342l1.497-.696zM52.921 328.72c.61.024 2.063.21 2.486.436 1.541.824 2.63 1.876 3.07 3.532.328 1.229.276 2.024.05 3.232-.253 1.35-1.173 3.035-.99 4.355.096.688.301 1.38.84 1.76.299.21.64.353.978.491 1.104.453 2.457.775 3.666.644-2.727.895-1.007.626-2.313.536-.197-.013-.785.027-.591-.01.298-.055.646-.196.908-.05.204.115-.462.099-.684.176-.217.076-.418.188-.627.281-1.935 1.325-1.588 2.907-1.263 4.937.437 1.88 1.138 3.873.638 5.815-.114.443-.22.93-.541 1.266-.432.454-1.077.666-1.616.998-1.509.635-3.111.903-4.725 1.127l-1.562-.435c1.617-.162 3.22-.384 4.746-.964.517-.254 1.129-.378 1.55-.762.32-.29.436-.744.554-1.151.55-1.906-.227-3.867-.641-5.712-.234-1.44-.593-3.01.217-4.353.321-.533.545-.668 1.008-1.074 1.365-.74 1.687-.7 3.54-.812.207-.014.416.02.622.051.176.025.63-.025.52.109-.307.375-.833.522-1.25.783-1.671-.082-3.224-.492-4.557-1.481-.67-.498-.907-1.198-1.05-2.051-.24-1.418.707-2.94 1.028-4.418.238-1.098.281-1.893-.014-3.018-.415-1.577-1.466-2.513-2.985-3.202-.435-.197-1.89-.379-2.507-.341l1.496-.696zM111.896 358.25c.61.024 2.063.21 2.485.436 1.542.824 2.63 1.876 3.071 3.532.328 1.23.276 2.025.05 3.232-.254 1.351-1.173 3.036-.99 4.356.096.688.3 1.38.84 1.76.299.21.64.352.978.49 1.104.454 2.457.775 3.666.645-2.728.894-1.007.626-2.313.536-.197-.014-.785.027-.591-.01.297-.056.646-.197.908-.05.204.114-.462.098-.684.175-.217.076-.418.188-.627.281-1.935 1.325-1.589 2.907-1.263 4.937.437 1.88 1.138 3.873.638 5.815-.114.443-.22.93-.541 1.266-.433.454-1.077.666-1.616.999-1.509.634-3.111.902-4.725 1.126l-1.562-.435c1.617-.161 3.22-.383 4.746-.963.517-.254 1.129-.379 1.55-.762.32-.291.436-.745.553-1.152.55-1.906-.227-3.866-.64-5.712-.234-1.44-.593-3.01.217-4.353.321-.533.545-.668 1.008-1.074 1.364-.74 1.687-.7 3.54-.812.207-.014.416.02.622.051.176.025.63-.025.52.109-.308.376-.834.522-1.25.783-1.672-.081-3.224-.492-4.557-1.481-.67-.498-.907-1.198-1.05-2.05-.24-1.42.706-2.94 1.028-4.418.238-1.098.281-1.893-.014-3.02-.415-1.576-1.466-2.511-2.985-3.2-.435-.198-1.89-.38-2.508-.342l1.497-.696zM-156.01 222.49a14.1 14.1 0 0 1 1.352-1.08c.432-.304.915-.53 1.373-.795l1.628.256c-.475.245-.976.446-1.426.735-.968.622-2.116 1.555-2.927 2.66" style="fill:#000;fill-opacity:1;stroke:none;stroke-width:12.9276;stroke-miterlimit:4;stroke-dasharray:none;stroke-opacity:1"/><rect width="16" height="74.147" x="253.939" y="101.411" rx="0" ry="0" style="fill:#000;stroke-width:1.3"/><path d="m-156.01 254.774 501.016 250.512-.822 1.645-500.193-250.1" style="color:#000;fill:none;stroke-width:.23085;stroke-miterlimit:10;-inkscape-stroke:none"/><path d="M-156.009 256.832-362.55 153.559l.823-1.645 205.719 102.86" style="color:#000;fill:none;stroke-width:.23085;stroke-miterlimit:10;-inkscape-stroke:none"/><path d="m-361.73-278.714-.82 1.646L344.185 76.304l.82-1.646z" style="color:#000;fill:red;stroke-width:2.3085;stroke-miterlimit:10;-inkscape-stroke:none"/></g></svg>