<svg xmlns="http://www.w3.org/2000/svg" xmlns:xlink="http://www.w3.org/1999/xlink" width="327" height="321"><defs><symbol id="a" overflow="visible" style="overflow:visible"><path d="M6.563-2.297c.171 0 .359 0 .359-.203 0-.188-.188-.188-.36-.188h-5.39c-.172 0-.344 0-.344.188 0 .203.172.203.344.203zm0 0" style="stroke:none"/></symbol><symbol id="b" overflow="visible" style="overflow:visible"><path d="m4.734-1.36-.125-.062c-.375.578-.5.672-.953.672H1.281l1.672-1.766c.89-.921 1.281-1.687 1.281-2.453 0-1-.812-1.765-1.859-1.765-.547 0-1.063.218-1.422.609-.328.344-.469.656-.64 1.375l.203.047C.922-5.687 1.28-6 1.969-6c.828 0 1.406.563 1.406 1.406 0 .782-.469 1.703-1.297 2.594L.297-.125V0h3.89Zm0 0" style="stroke:none"/></symbol></defs><g style="display:inline"><path d="M-99.177-118.992c1.672-.04 3.62.11 5.268 1.062 1.043.603 2.255 1.683 3 2.686a8.73 8.73 0 0 1 1.528 3.363c.356 1.671.418 3.537.3 5.301a42.35 42.35 0 0 1-.43 3.914c-.3 1.978-.666 4.521-.748 7.076-.044 1.358-.056 2.206.02 2.89.115 1.049.117 2.675 1.677 3.788.648.463 1.142.582 1.889.818.725.23 1.284.45 1.952.633.05.755-.128.588-.627.845-.648.226-1.01.444-1.586.92-.864.713-1.354 1.895-1.798 3.091-.161.435-.267.9-.401 1.349-.085.473-.193.938-.254 1.42-.13 1.015-.148 2.084-.134 3.134.025 1.803.183 3.628.325 5.448.17 2.288.41 4.638-.142 6.754-.326 1.247-.519 1.4-1.142 2.453-.305.342-.586.709-.916 1.024-1.266 1.21-2.996 2.247-4.745 2.702-.323.084-.667.11-1.001.165l-2.36-.096 1.515-.632-.832.068c.346-.027.704-.017 1.04-.08 1.758-.333 3.492-1.359 4.755-2.515.323-.295.6-.64.901-.96.615-.967.832-1.153 1.17-2.314.597-2.061.377-4.386.219-6.638-.152-1.831-.334-3.669-.376-5.486-.026-1.097-.025-2.145.102-3.206.059-.496.166-.976.25-1.463.131-.466.236-.946.394-1.398.43-1.236.989-2.494 1.885-3.35.509-.487.72-.664 1.321-.971.742-.379.466-.248.635.046-.772-.123-1.327-.328-1.676-.456-.763-.278-1.174-.456-1.843-1.003-1.327-1.086-1.569-2.385-1.714-4.016-.1-1.128-.164-1.845-.138-3.25.052-2.801.453-4.994.759-7.002.205-1.353.267-2.673.41-3.908.188-1.625.013-3.358-.349-5.1-.241-1.166-.73-2.216-1.318-3.11-.703-1.069-1.85-1.909-2.939-2.47a10.787 10.787 0 0 0-1.55-.673c.497-.353-.272-.013-.5-.127l-1.797-.726z" style="fill:#000;fill-opacity:1;stroke:none;stroke-width:13.608;stroke-miterlimit:4;stroke-dasharray:none;stroke-opacity:1" transform="translate(240.324 -15.362)"/><path d="M-77.981-120.031c1.69.063 3.424.324 5.012.925.318.12.622.271.933.407 1.095.577 2.081 1.355 2.63 2.493.36.743.34.99.477 1.804 0 .354.017.708-.003 1.061-.072 1.234-.358 2.452-.619 3.656-.51 2.363-.085.331-.587 2.757-.431 2.42-.796 4.883-.708 7.35.017.472.07.943.106 1.414.21 1.78.694 3.538 1.608 5.093.535.911.786 1.14 1.458 1.936 1.091 1.234 2.506 2.078 3.805 3.059.056.086.143.159.167.259.192.816-1.198.966-1.682 1.087-.737.237-1.735.382-2.29.983-.07.076-.113.172-.17.259-.025.108-.067.213-.075.324-.04.518.159 1.07.31 1.553.164.52.341 1.037.507 1.557.78 2.127 1.089 4.28 1.29 6.523.123 2.128.07 4.276-.284 6.381-.07.421-.166.838-.25 1.256-.394 1.621-.989 3.19-1.85 4.623-.518.859-.75 1.104-1.364 1.88-1.173 1.324-2.473 2.12-4.194 2.486l-1.204-.767c1.684-.208 2.904-.953 4.065-2.183.595-.733.842-.99 1.341-1.804.852-1.386 1.435-2.913 1.822-4.489.082-.41.176-.817.245-1.23.348-2.071.398-4.186.271-6.279-.092-.987-.117-1.423-.271-2.397-.218-1.373-.587-2.713-1.035-4.027-.3-.926-.907-2.381-.804-3.356.017-.158.073-.308.11-.463.071-.128.125-.269.215-.386.56-.729 1.579-.915 2.396-1.184 1.946-.46-.663.158 1.003-.241.106-.026.209-.07.317-.074.061-.002.2.14.152.102-.053-.04-.097-.092-.145-.138-1.335-.973-2.71-1.91-3.8-3.17-.679-.845-.924-1.079-1.462-2.039-.907-1.62-1.394-3.432-1.599-5.268-.033-.483-.085-.964-.1-1.448-.08-2.496.284-4.989.72-7.438.51-2.473.069-.36.585-2.761.252-1.172.532-2.36.596-3.562.017-.327-.005-.655-.007-.982-.141-.74-.124-.964-.479-1.628-.558-1.046-1.542-1.717-2.582-2.221-.307-.122-.608-.258-.92-.365-.316-.109-.652-.155-.962-.28-.089-.035.38.031.286.007a7.958 7.958 0 0 0-1.812-.22l-1.17-.837zM-57.804-120.197c1.614.299 3.305.475 4.782 1.25.213.112.41.25.614.376 1.275.995 1.473 2.158 1.65 3.68.076 2.167-.36 4.31-.7 6.441-.282 1.697-.531 3.406-.554 5.13-.015 1.143.035 1.432.128 2.569.223 2.064.886 4.027 2.138 5.696.228.304.488.582.731.872a12.46 12.46 0 0 0 3.224 2.398c.168.087 1.085.512 1.3.612.311.156.816.314.658.786a.844.844 0 0 1-.247.352c-.18.158-.665.3-.864.37-1.052.341-2.196.627-3.085 1.327-.178.14-.327.316-.49.474-1.107 1.411-.937 3.031-.772 4.71.392 2.635.93 5.243 1.302 7.882.237 2.039.441 4.094.394 6.15-.028 1.226-.101 1.589-.246 2.79-.278 1.631-.811 3.21-1.816 4.543-.617.819-.832.929-1.603 1.582-1.42 1.04-2.996 1.552-4.732 1.696l-1.175-.81c1.72-.048 3.162-.468 4.607-1.438.747-.594.959-.691 1.558-1.454.99-1.26 1.503-2.776 1.773-4.339.143-1.178.215-1.53.242-2.732.045-2.036-.16-4.072-.399-6.09-.38-2.646-.93-5.26-1.314-7.904-.172-1.821-.297-3.545.853-5.096.176-.188.333-.395.528-.564.856-.74 2.078-1.11 3.137-1.44l.464-.135c.107-.032.21-.087.322-.096.059-.005.194.13.14.108-.219-.083-.357-.327-.617-.33-1.721-.83-3.26-1.758-4.545-3.21-.245-.307-.506-.6-.734-.92-1.252-1.75-1.909-3.792-2.133-5.921-.09-1.167-.14-1.453-.121-2.626.027-1.74.276-3.465.56-5.178.33-2.09.76-4.194.671-6.32-.18-1.416-.366-2.415-1.623-3.26-.675-.363-1.298-.636-2.043-.836-.257-.07-.518-.124-.778-.178-.242-.05-.494-.059-.727-.138-.212-.072.442.078.663.116l-1.12-.895zM-132.463-104.183a12.274 12.274 0 0 1 4.21-.087c.846.135 1.686.31 2.528.466 1.497.438 3.258.989 4.009 2.507.132.267.187.566.28.849.033.318.09.636.098.956.028 1.146-.216 2.293-.42 3.413-.158.868-.323 1.735-.482 2.603-.404 2.274-.669 4.6-.23 6.892.079.406.203.802.304 1.203.42 1.32 1.092 2.516 2.167 3.41.421.35.757.52 1.22.786.148.149.908.316 1.005.517.107.223-.046.492-.207.628-.087.074-.212.085-.318.127-.985.267-1.965.6-2.847 1.122-.193.114-.372.248-.558.372-.601.486-1.139 1.123-1.123 1.946.01.488.221 1.17.338 1.619.601 1.806 1.3 3.594 1.616 5.481.067.397.099.8.148 1.199.125 1.6-.079 3.188-.65 4.69-.334.882-.549 1.205-.998 2.018-.892 1.347-2.011 2.358-3.626 2.708-.258.056-.524.069-.786.103-1.102.08-2.11-.176-3.203-.369l1.554-.413c-2.34-.37-.12.02.278-.04.25-.014.503-.003.75-.038 1.557-.216 2.63-1.112 3.5-2.372.44-.775.654-1.091.98-1.932.56-1.439.75-2.963.622-4.498-.05-.387-.084-.776-.15-1.16-.328-1.882-1.047-3.657-1.626-5.467-.146-.596-.33-1.174-.327-1.796.005-.938.55-1.706 1.226-2.296.192-.139.377-.288.577-.415.88-.561 1.877-.937 2.878-1.213.092-.017.188-.08.276-.05.06.022.063.113.08.174.012.041.043.12 0 .128-.08.014-.96-.54-.99-.517-.499-.322-.775-.474-1.227-.893-1.071-.99-1.743-2.266-2.16-3.651-.1-.417-.222-.83-.298-1.251-.423-2.34-.162-4.71.248-7.029.158-.867.321-1.733.478-2.6.193-1.077.435-2.188.394-3.289-.01-.286-.071-.569-.107-.853-.093-.24-.152-.495-.28-.718-.79-1.378-2.546-1.793-3.948-2.185.107.007.425.038.32.022-1.358-.211-2.743-.263-4.102-.037l-1.421-.77z" style="fill:#000;fill-opacity:1;stroke:none;stroke-width:9.72;stroke-miterlimit:4;stroke-dasharray:none;stroke-opacity:1" transform="translate(240.324 -15.362)"/><path d="M-84.4-196.478c1.672-.04 3.619.11 5.267 1.062 1.043.603 2.255 1.683 3 2.686a8.73 8.73 0 0 1 1.528 3.363c.356 1.671.386 2.212.268 3.976a61.586 61.586 0 0 1-.398 4.072c-.236 1.82-.315 2.973-.589 5.464-.148 1.35-.332 3.002-.256 3.686.088.794.234 2.675 1.794 3.788.648.463 1.358.872 2.048 1.242.68.364 1.035.463 1.569.692.05.754.115.96-.403 1.178-.632.266-1.315.446-1.928.876-1.53 1.073-1.589 2.401-1.889 4.038-.087.473-.16 1.385-.222 1.867-.13 1.015-.148 2.084-.134 3.133.025 1.804.183 3.629.326 5.449.168 2.287.41 5.804-.143 7.92-.326 1.247-.519 1.4-1.142 2.453-.305.342-.585.709-.915 1.024-1.266 1.21-2.997 2.247-4.746 2.702-.323.084-.667.11-1 .165l-2.362-.096 1.516-.632-.832.068c.347-.027.704-.017 1.04-.08 1.758-.333 3.493-1.359 4.755-2.515.323-.295.601-.64.902-.96.615-.967.831-1.152 1.168-2.314.599-2.061.379-5.552.22-7.804-.152-1.832-.334-3.669-.376-5.487-.025-1.096-.024-2.144.102-3.206.06-.496.16-1.417.218-1.909.215-1.829 1.152-3.527 2.194-4.302.566-.42.859-.667 1.393-.903.423-.186 1.03-.563 1.199-.269-.773-.123-1.704-.548-2.036-.718a10.185 10.185 0 0 1-2.001-1.31c-1.328-1.086-1.633-2.671-1.842-4.112-.099-.68.012-2.552.15-3.95.243-2.451.389-3.54.598-5.39.155-1.359.264-2.829.38-4.067.124-1.338.043-2.032-.318-3.774-.241-1.166-.73-2.216-1.318-3.11-.703-1.069-1.851-1.909-2.939-2.47a10.787 10.787 0 0 0-1.55-.673c.497-.353-.272-.013-.5-.127l-1.797-.725zM-37-225.275c1.672-.04 3.619.11 5.267 1.062 1.044.603 2.256 1.683 3 2.686a8.73 8.73 0 0 1 1.528 3.363c.356 1.671.387 2.212.269 3.976a61.587 61.587 0 0 1-.398 4.072c-.236 1.82-.316 2.973-.59 5.464-.147 1.35-.331 3.002-.256 3.686.088.794.235 2.919 1.795 4.032.648.463 1.358.872 2.048 1.115.728.255 1.035.346 1.568.575.05.754.116.873-.434.987-.664.139-1.38.318-1.992.748-1.53 1.074-1.97 3.07-2.176 4.357-.575 3.61.03 7.405.416 10.704.249 2.127.346 5.55-.207 7.665-.325 1.247-.518 1.4-1.141 2.453-.305.342-.586.709-.916 1.024-1.266 1.21-2.996 2.247-4.745 2.702-.323.084-.668.11-1.001.165l-2.361-.096 1.516-.632-.833.068c.347-.027.705-.017 1.04-.08 1.758-.333 3.493-1.359 4.755-2.515.323-.295.601-.64.902-.96.615-.967.832-1.152 1.169-2.314.598-2.061.55-5.308.284-7.55-.472-3.97-1.01-7.152-.375-10.824.314-1.814 1.31-3.782 2.353-4.557.566-.42.731-.508 1.266-.743.423-.187 1.252-.5 1.421-.206-.772-.123-1.704-.432-2.035-.601a10.185 10.185 0 0 1-2.002-1.31c-1.327-1.086-1.633-2.789-1.842-4.229-.098-.68.013-2.552.15-3.95.243-2.451.39-3.541.599-5.39.154-1.359.264-2.829.379-4.067.124-1.338.044-2.032-.317-3.774-.242-1.166-.73-2.216-1.318-3.11-.704-1.069-1.852-1.909-2.94-2.47a10.786 10.786 0 0 0-1.549-.673c.497-.353-.273-.013-.501-.127l-1.796-.726z" style="fill:#000;fill-opacity:1;stroke:none;stroke-width:13.608;stroke-miterlimit:4;stroke-dasharray:none;stroke-opacity:1" transform="translate(240.324 -15.362)"/><path d="M-224.324 293.545h155.283m32.315 0h106.88m-294.478-58.893H70.154m-294.478-58.894H70.154m-294.478-58.894H70.154M-224.324 57.97h120.788m18.595 0H70.154m-265.027 265.027V205.365m0-24.772V28.523m58.894 294.474V28.527m58.894 294.47V28.527m58.893 294.47V28.527m58.894 294.465V205.365m0-24.772V28.523" style="display:inline;fill:none;stroke:#9e9ed1;stroke-width:.459969;stroke-linecap:butt;stroke-linejoin:miter;stroke-miterlimit:10;stroke-opacity:1" transform="translate(240.324 -15.362)"/><path d="M-224.324 175.762H70.154M-77.085 322.992V28.523" style="display:inline;fill:none;stroke:#000;stroke-width:.919937;stroke-linecap:butt;stroke-linejoin:miter;stroke-miterlimit:10;stroke-opacity:1" transform="translate(240.324 -15.362)"/><g style="display:inline"><use xlink:href="#a" width="100%" height="100%" x="248.255" y="100.782" style="fill:#b0b0d9;fill-opacity:1" transform="matrix(2.036 0 0 2.03426 -472.951 -21.462)"/><use xlink:href="#b" width="100%" height="100%" x="256.055" y="100.782" style="fill:#b0b0d9;fill-opacity:1" transform="matrix(2.036 0 0 2.03426 -472.951 -21.462)"/></g><use xlink:href="#b" width="100%" height="100%" x="354.173" y="101.195" style="display:inline;fill:#b0b0d9;fill-opacity:1" transform="matrix(2.036 0 0 2.03426 -445.145 -21.462)"/><use xlink:href="#b" width="100%" height="100%" x="295.496" y="41.752" style="display:inline;fill:#b0b0d9;fill-opacity:1" transform="matrix(2.03191 0 0 2.03314 -457.873 -35.504)"/><path d="m70.154 29.817-293.174 293.18-1.304-.005V321.7L68.844 28.523h1.309Z" style="color:#000;clip-rule:nonzero;fill:red;stroke-width:.23085;stroke-miterlimit:10;-inkscape-stroke:none" transform="translate(240.324 -15.362)"/><path d="m-194.873 293.55-5.059 10.118 5.06-3.797 5.058 3.797" style="display:inline;fill:#000;fill-opacity:1;fill-rule:nonzero;stroke:none;stroke-width:2.3085" transform="translate(240.324 -15.362)"/><path d="M-194.873 293.55h52.564" style="display:inline;fill:none;stroke:#000;stroke-width:2.0699;stroke-linecap:butt;stroke-linejoin:miter;stroke-miterlimit:10;stroke-opacity:1" transform="translate(240.324 -15.362)"/><path d="m-135.98 293.55-10.117-5.059 3.788 5.059-3.788 5.059" style="display:inline;fill:#000;fill-opacity:1;fill-rule:nonzero;stroke:none;stroke-width:2.3085" transform="translate(240.324 -15.362)"/><path d="M-135.98 293.55v-52.573" style="display:inline;fill:none;stroke:#000;stroke-width:2.0699;stroke-linecap:butt;stroke-linejoin:miter;stroke-miterlimit:10;stroke-opacity:1" transform="translate(240.324 -15.362)"/><path d="m-135.98 234.647-5.058 10.127 5.059-3.797 5.059 3.797" style="display:inline;fill:#000;fill-opacity:1;fill-rule:nonzero;stroke:none;stroke-width:2.3085" transform="translate(240.324 -15.362)"/><path d="M-135.98 234.647h52.564" style="display:inline;fill:none;stroke:#000;stroke-width:2.0699;stroke-linecap:butt;stroke-linejoin:miter;stroke-miterlimit:10;stroke-opacity:1" transform="translate(240.324 -15.362)"/><path d="m-77.085 234.647-10.118-5.05 3.787 5.05-3.787 5.068" style="display:inline;fill:#000;fill-opacity:1;fill-rule:nonzero;stroke:none;stroke-width:2.3085" transform="translate(240.324 -15.362)"/><path d="M-77.085 234.647v-52.563" style="display:inline;fill:none;stroke:#000;stroke-width:2.0699;stroke-linecap:butt;stroke-linejoin:miter;stroke-miterlimit:10;stroke-opacity:1" transform="translate(240.324 -15.362)"/><path d="m-77.085 175.762-5.06 10.118 5.06-3.796 5.059 3.796" style="display:inline;fill:#000;fill-opacity:1;fill-rule:nonzero;stroke:none;stroke-width:2.3085" transform="translate(240.324 -15.362)"/><path d="M-77.085 175.762h52.563" style="display:inline;fill:none;stroke:#000;stroke-width:2.0699;stroke-linecap:butt;stroke-linejoin:miter;stroke-miterlimit:10;stroke-opacity:1" transform="translate(240.324 -15.362)"/><path d="m-18.192 175.762-10.117-5.059 3.787 5.06-3.787 5.058" style="display:inline;fill:#000;fill-opacity:1;fill-rule:nonzero;stroke:none;stroke-width:2.3085" transform="translate(240.324 -15.362)"/><path d="M-18.192 175.762V123.19" style="display:inline;fill:none;stroke:#000;stroke-width:2.0699;stroke-linecap:butt;stroke-linejoin:miter;stroke-miterlimit:10;stroke-opacity:1" transform="translate(240.324 -15.362)"/><path d="m-18.192 116.869-5.058 10.117 5.058-3.796 5.06 3.796" style="display:inline;fill:#000;fill-opacity:1;fill-rule:nonzero;stroke:none;stroke-width:2.3085" transform="translate(240.324 -15.362)"/><path d="M-18.192 116.869h52.573" style="display:inline;fill:none;stroke:#000;stroke-width:2.0699;stroke-linecap:butt;stroke-linejoin:miter;stroke-miterlimit:10;stroke-opacity:1" transform="translate(240.324 -15.362)"/><path d="M40.702 116.869 30.585 111.8l3.796 5.068-3.796 5.05" style="display:inline;fill:#000;fill-opacity:1;fill-rule:nonzero;stroke:none;stroke-width:2.3085" transform="translate(240.324 -15.362)"/><path d="M40.702 116.869V64.296" style="display:inline;fill:none;stroke:#000;stroke-width:2.0699;stroke-linecap:butt;stroke-linejoin:miter;stroke-miterlimit:10;stroke-opacity:1" transform="translate(240.324 -15.362)"/><path d="m40.702 57.975-5.059 10.117 5.06-3.796 5.058 3.796" style="display:inline;fill:#000;fill-opacity:1;fill-rule:nonzero;stroke:none;stroke-width:2.3085" transform="translate(240.324 -15.362)"/><g style="clip-rule:nonzero;display:inline"><path d="M3566.64 7535.781h127.579" style="fill:none;stroke:#000;stroke-width:8.9664;stroke-linecap:butt;stroke-linejoin:miter;stroke-miterlimit:10;stroke-opacity:1" transform="matrix(.2308 0 0 -.2308 -542.332 1782.248)"/></g><use xlink:href="#a" width="100%" height="100%" x="286.523" y="143.387" style="display:inline;fill:#b0b0d9;fill-opacity:1" transform="matrix(2.03621 0 0 2.03601 -408.7 -7.808)"/><use xlink:href="#b" width="100%" height="100%" x="294.323" y="143.387" style="display:inline;fill:#b0b0d9;fill-opacity:1" transform="matrix(2.03621 0 0 2.03601 -408.7 -7.808)"/><path d="M-192.832 294.254c1.589-.039 3.439.104 5.005 1.009.99.573 2.142 1.599 2.85 2.551a8.294 8.294 0 0 1 1.451 3.195c.338 1.588.367 2.101.255 3.777a58.476 58.476 0 0 1-.378 3.87c-.224 1.727-.3 2.823-.56 5.19-.14 1.283-.315 2.851-.243 3.501.084.755.223 2.773 1.705 3.83.615.44 1.29.829 1.945 1.06.692.243 1.49.546 1.49.546l.025.21h-1.828s-.949-.309-1.136-.405a9.678 9.678 0 0 1-1.902-1.245c-1.26-1.031-1.55-2.648-1.75-4.016-.094-.647.012-2.425.143-3.753.23-2.329.37-3.364.568-5.12.147-1.292.251-2.688.36-3.864.119-1.271.042-1.93-.3-3.586a8.561 8.561 0 0 0-1.253-2.954c-.668-1.015-1.759-1.814-2.792-2.347a10.247 10.247 0 0 0-1.472-.64c.472-.334-.26-.01-.476-.12l-1.707-.689zM-115.792 264.447c.376-.019.564-.023.958-.064.267-.028.523-.075.793-.098 1.177-.1 2.405-.108 3.634-.114 1.172.007 2.374.073 3.574.134l-.26 1.373c-1.21-.127-2.406-.229-3.538-.21-1.88.05-3.74.145-5.365.65l.203-1.671z" style="fill:#000;fill-opacity:1;stroke:none;stroke-width:12.9276;stroke-miterlimit:4;stroke-dasharray:none;stroke-opacity:1" transform="translate(240.324 -15.362)"/><path d="M-110.534 260.974c-.152 1.84-.205 3.688-.105 5.532.036.662.12 1.32.18 1.98l-1.41.233c-.042-.669-.092-1.337-.126-2.006-.091-1.802-.106-3.612-.304-5.408l1.765-.33zM-101.36 255.295c-.064.609-.056.625-.068 1.191.001 1.013.033 1.818.078 3 .06 1.414.168 5.543.253 6.967.103 1.327.126 2.53.168 3.435.023.24.067.922.146 1.546l-1.662.212c-.075-.352-.032-1.594-.014-1.947-.058-1.719-.068-1.789-.097-3.128-.043-2.347-.104-4.692-.295-7.036-.103-1.814-.13-2.889-.263-4.096l1.67-.144zM-174.696 322.992s.587-.096.857-.119c1.177-.1 2.405-.108 3.634-.114 1.171.007 2.374.073 3.573.134l-.083.12z" style="fill:#000;fill-opacity:1;stroke:none;stroke-width:12.9276;stroke-miterlimit:4;stroke-dasharray:none;stroke-opacity:1" transform="translate(240.324 -15.362)"/><path d="M-170.333 319.562c-.098 1.182-.162 3.452-.162 3.452h-1.4s-.087-2.073-.203-3.12zM-161.158 313.883c-.065.609-.056.625-.068 1.191 0 1.013.032 1.818.078 3 .044 1.031.126 4.94.126 4.94h-1.38s-.114-3.26-.247-4.891c-.103-1.814-.13-2.889-.264-4.096l1.67-.144zM-56.478 205.375c.377-.018.564-.023.958-.064.267-.028.524-.075.793-.098 1.177-.1 2.406-.108 3.634-.114 1.172.008 2.374.073 3.574.133l-.26 1.373c-1.21-.126-2.406-.228-3.538-.21-1.88.051-3.74.146-5.364.651l.203-1.671z" style="fill:#000;fill-opacity:1;stroke:none;stroke-width:12.9276;stroke-miterlimit:4;stroke-dasharray:none;stroke-opacity:1" transform="translate(240.324 -15.362)"/><path d="M-51.22 201.902c-.152 1.84-.205 3.688-.105 5.532.036.662.12 1.32.18 1.98l-1.409.232c-.042-.668-.092-1.336-.127-2.005-.091-1.802-.105-3.612-.304-5.408zM-42.045 196.223c-.065.608-.057.624-.068 1.191 0 1.013.032 1.817.078 3 .06 1.414.167 5.542.253 6.967.102 1.327.126 2.53.168 3.435.023.24.066.922.146 1.546l-1.662.212c-.076-.352-.032-1.594-.014-1.948-.058-1.718-.069-1.788-.098-3.127-.042-2.347-.104-4.692-.294-7.037-.103-1.813-.13-2.888-.264-4.095l1.67-.144zM1.868 146.545c.377-.018.564-.023.958-.064.267-.028.524-.075.793-.098 1.177-.1 2.406-.108 3.634-.114 1.172.009 2.374.073 3.574.133l-.26 1.373c-1.21-.127-2.406-.228-3.538-.21-1.88.05-3.74.146-5.365.651l.204-1.671z" style="fill:#000;fill-opacity:1;stroke:none;stroke-width:12.9276;stroke-miterlimit:4;stroke-dasharray:none;stroke-opacity:1" transform="translate(240.324 -15.362)"/><path d="M7.126 143.072c-.152 1.84-.205 3.688-.105 5.532.036.662.12 1.32.18 1.98l-1.41.232c-.041-.668-.092-1.336-.126-2.005-.091-1.803-.105-3.612-.304-5.408zM16.3 137.393c-.064.608-.056.624-.067 1.191 0 1.013.032 1.817.078 3 .06 1.414.167 5.542.253 6.967.102 1.327.126 2.53.167 3.435.023.24.067.922.147 1.546l-1.662.212c-.076-.352-.032-1.594-.014-1.948-.058-1.718-.069-1.788-.098-3.127-.042-2.347-.104-4.692-.295-7.037-.102-1.813-.13-2.888-.263-4.095l1.67-.144zM60.94 87.472c.377-.017.564-.022.958-.063.267-.028.524-.075.793-.098 1.177-.101 2.406-.109 3.634-.115 1.172.008 2.374.074 3.574.134l-.26 1.373c-1.21-.127-2.406-.228-3.538-.21-1.88.05-3.74.146-5.364.651l.203-1.672z" style="fill:#000;fill-opacity:1;stroke:none;stroke-width:12.9276;stroke-miterlimit:4;stroke-dasharray:none;stroke-opacity:1" transform="translate(240.324 -15.362)"/><path d="M66.198 84c-.152 1.84-.205 3.687-.105 5.532.036.662.12 1.32.18 1.98l-1.409.232c-.042-.668-.092-1.336-.127-2.005-.091-1.803-.105-3.612-.304-5.408L66.198 84zM75.373 78.32c-.065.61-.057.625-.068 1.192 0 1.013.032 1.817.078 3 .06 1.414.167 5.542.253 6.967.102 1.327.126 2.53.168 3.435.023.24.066.922.146 1.546l-1.662.211c-.076-.351-.032-1.593-.014-1.947-.058-1.718-.069-1.788-.097-3.127-.043-2.347-.105-4.692-.295-7.037-.103-1.813-.13-2.888-.264-4.095l1.67-.144zM-134.244 235.666c1.589-.039 3.439.104 5.005 1.009.99.573 2.142 1.599 2.85 2.551a8.294 8.294 0 0 1 1.451 3.195c.338 1.588.367 2.101.255 3.777a58.482 58.482 0 0 1-.378 3.87c-.224 1.727-.3 2.823-.56 5.19-.14 1.283-.315 2.851-.243 3.501.084.755.223 2.773 1.705 3.83.615.44 1.29.829 1.945 1.06.692.243.984.33 1.49.546.048.717.11.83-.412.938-.631.132-1.31.302-1.892.71-1.455 1.02-1.873 2.918-2.067 4.14-.547 3.43.028 7.035.394 10.168.237 2.02.329 5.272-.196 7.282-.31 1.185-.493 1.33-1.084 2.331-.29.324-.557.673-.87.973-1.203 1.15-2.847 2.134-4.508 2.566-.307.08-.634.105-.951.157l-2.243-.091 1.44-.6c-.264.02-.527.042-.79.064.329-.026.668-.017.987-.076 1.67-.316 3.318-1.291 4.517-2.389.307-.28.571-.608.857-.912.584-.92.79-1.095 1.11-2.198.569-1.959.523-5.043.27-7.172-.448-3.773-.959-6.795-.356-10.284.298-1.724 1.245-3.593 2.236-4.329.537-.399.694-.483 1.202-.706.402-.177 1.19-.475 1.35-.196-.733-.116-1.618-.41-1.933-.57a9.675 9.675 0 0 1-1.902-1.246c-1.26-1.031-1.551-2.648-1.75-4.016-.093-.647.012-2.425.143-3.753.23-2.329.37-3.364.568-5.12.147-1.292.251-2.688.36-3.864.119-1.271.042-1.93-.3-3.586a8.561 8.561 0 0 0-1.253-2.954c-.668-1.015-1.759-1.814-2.792-2.347a10.247 10.247 0 0 0-1.472-.64c.472-.334-.26-.01-.476-.12l-1.707-.689zM-75.414 176.836c1.59-.039 3.439.104 5.005 1.009.99.573 2.142 1.599 2.85 2.551a8.294 8.294 0 0 1 1.451 3.195c.339 1.588.367 2.101.255 3.777a58.507 58.507 0 0 1-.378 3.87c-.224 1.727-.3 2.823-.56 5.19-.14 1.283-.315 2.851-.243 3.501.084.755.223 2.773 1.705 3.83.616.44 1.29.829 1.946 1.06.69.243.983.329 1.49.546.047.717.109.83-.413.938-.631.132-1.31.302-1.892.71-1.454 1.02-1.873 2.918-2.067 4.14-.547 3.429.028 7.035.394 10.168.237 2.02.329 5.272-.196 7.282-.31 1.185-.492 1.33-1.084 2.33-.29.325-.556.674-.87.974-1.203 1.15-2.847 2.134-4.508 2.566-.307.08-.634.105-.951.157l-2.243-.091 1.44-.6c-.264.02-.527.042-.79.064.329-.026.668-.017.987-.076 1.67-.316 3.318-1.291 4.518-2.389.306-.281.57-.608.856-.912.584-.92.79-1.095 1.11-2.198.569-1.959.523-5.043.27-7.172-.448-3.773-.959-6.795-.356-10.284.298-1.724 1.245-3.593 2.236-4.329.537-.399.694-.483 1.202-.706.402-.177 1.19-.475 1.35-.196-.733-.116-1.618-.41-1.933-.57a9.676 9.676 0 0 1-1.902-1.246c-1.26-1.031-1.55-2.648-1.75-4.016-.093-.647.012-2.425.143-3.753.23-2.329.37-3.364.569-5.12.146-1.292.25-2.688.36-3.864.118-1.271.041-1.93-.302-3.586a8.561 8.561 0 0 0-1.252-2.954c-.668-1.015-1.758-1.814-2.792-2.347a10.247 10.247 0 0 0-1.472-.64c.472-.334-.26-.011-.476-.12l-1.706-.689zM-16.1 117.522c1.59-.04 3.439.104 5.005 1.009.991.572 2.143 1.598 2.85 2.551a8.294 8.294 0 0 1 1.452 3.195c.338 1.588.367 2.101.254 3.777a58.508 58.508 0 0 1-.378 3.869c-.224 1.728-.3 2.824-.559 5.19-.14 1.284-.315 2.852-.244 3.502.084.754.223 2.773 1.705 3.83.616.44 1.29.829 1.946 1.06.691.242.983.329 1.49.546.047.717.11.829-.413.938-.631.131-1.31.302-1.892.71-1.454 1.02-1.872 2.917-2.067 4.14-.546 3.429.028 7.034.395 10.168.236 2.02.328 5.272-.197 7.282-.309 1.185-.492 1.33-1.084 2.33-.29.325-.556.674-.87.973-1.203 1.15-2.847 2.135-4.508 2.567-.307.08-.634.105-.951.157l-2.243-.092 1.44-.6c-.263.02-.527.043-.79.064.329-.025.669-.016.987-.075 1.67-.317 3.319-1.291 4.518-2.39.307-.28.57-.607.856-.911.585-.92.79-1.095 1.11-2.199.57-1.958.523-5.042.27-7.172-.447-3.772-.959-6.794-.356-10.283.298-1.724 1.246-3.594 2.236-4.33.537-.398.694-.482 1.202-.706.402-.176 1.19-.474 1.35-.195-.733-.117-1.618-.41-1.933-.571a9.675 9.675 0 0 1-1.902-1.245c-1.26-1.031-1.55-2.648-1.75-4.017-.093-.647.012-2.425.143-3.752.231-2.33.37-3.364.569-5.12.146-1.292.25-2.688.36-3.864.118-1.271.042-1.93-.302-3.586a8.561 8.561 0 0 0-1.252-2.955c-.668-1.015-1.758-1.813-2.792-2.346a10.247 10.247 0 0 0-1.472-.64c.472-.334-.26-.011-.476-.12l-1.706-.69zM42.004 58.934c1.59-.04 3.439.104 5.005 1.009.99.572 2.142 1.598 2.85 2.551a8.294 8.294 0 0 1 1.451 3.195c.339 1.588.367 2.101.255 3.777a58.504 58.504 0 0 1-.378 3.869c-.224 1.728-.3 2.824-.56 5.19-.14 1.284-.315 2.852-.243 3.502.084.754.223 2.773 1.705 3.83.616.44 1.29.829 1.946 1.06.69.242.983.329 1.49.546.047.717.109.829-.413.938-.631.131-1.31.302-1.892.71-1.454 1.02-1.873 2.917-2.067 4.14-.547 3.429.028 7.034.394 10.168.237 2.02.329 5.272-.196 7.282-.31 1.185-.492 1.33-1.084 2.33-.29.325-.556.674-.87.973-1.203 1.15-2.847 2.135-4.508 2.567-.307.08-.634.105-.951.157l-2.243-.092 1.44-.6c-.264.02-.527.043-.79.064.329-.025.668-.016.987-.075 1.67-.317 3.318-1.291 4.518-2.39.306-.28.57-.607.856-.911.584-.92.79-1.095 1.11-2.199.569-1.958.523-5.042.27-7.172-.448-3.772-.959-6.794-.356-10.283.298-1.724 1.245-3.594 2.236-4.33.537-.398.694-.482 1.202-.706.402-.176 1.19-.474 1.35-.195-.733-.116-1.618-.41-1.933-.571a9.675 9.675 0 0 1-1.902-1.245c-1.26-1.031-1.55-2.648-1.75-4.017-.093-.647.012-2.425.143-3.752.23-2.33.37-3.364.569-5.12.146-1.292.25-2.688.36-3.864.118-1.271.041-1.93-.302-3.586a8.561 8.561 0 0 0-1.252-2.955c-.668-1.015-1.758-1.813-2.792-2.346a10.248 10.248 0 0 0-1.472-.64c.472-.334-.26-.011-.476-.12l-1.706-.69z" style="fill:#000;fill-opacity:1;stroke:none;stroke-width:12.9276;stroke-miterlimit:4;stroke-dasharray:none;stroke-opacity:1" transform="translate(240.324 -15.362)"/><path d="M-194.873 322.992v-24.545" style="display:inline;fill:none;stroke:#000;stroke-width:2.0699;stroke-linecap:butt;stroke-linejoin:miter;stroke-miterlimit:10;stroke-opacity:1" transform="translate(240.324 -15.362)"/><g style="clip-rule:nonzero;display:inline"><path d="m2035.938 6005.078 2040.937 2040.977" style="fill:none;stroke:red;stroke-width:7.9701;stroke-linecap:butt;stroke-linejoin:miter;stroke-miterlimit:10;stroke-opacity:1" transform="matrix(.2308 0 0 -.2308 -214.726 1869.864)"/></g></g></svg>