<svg width="45" height="11" viewBox="0 0 45 11" fill="none" xmlns="http://www.w3.org/2000/svg">
<path d="M1.924 5.356C1.924 5.092 1.972 4.848 2.068 4.624C2.172 4.4 2.312 4.208 2.488 4.048C2.664 3.88 2.872 3.752 3.112 3.664C3.36 3.568 3.628 3.52 3.916 3.52C4.3 3.52 4.62 3.616 4.876 3.808C5.132 4 5.26 4.248 5.26 4.552C5.26 4.72 5.212 4.852 5.116 4.948C5.028 5.044 4.904 5.092 4.744 5.092C4.56 5.092 4.428 5.04 4.348 4.936C4.268 4.824 4.2 4.704 4.144 4.576C4.088 4.44 4.028 4.316 3.964 4.204C3.9 4.092 3.792 4.036 3.64 4.036C3.464 4.036 3.316 4.112 3.196 4.264C3.076 4.416 3.016 4.604 3.016 4.828C3.016 5.092 3.092 5.34 3.244 5.572C3.404 5.796 3.58 6.032 3.772 6.28C3.964 6.528 4.136 6.8 4.288 7.096C4.448 7.392 4.528 7.74 4.528 8.14C4.528 8.412 4.468 8.668 4.348 8.908C4.236 9.148 4.08 9.36 3.88 9.544C3.688 9.72 3.464 9.86 3.208 9.964C2.952 10.068 2.688 10.12 2.416 10.12C1.936 10.12 1.552 10.016 1.264 9.808C0.984 9.6 0.844 9.328 0.844 8.992C0.844 8.76 0.896 8.58 1 8.452C1.112 8.316 1.26 8.248 1.444 8.248C1.788 8.248 1.984 8.484 2.032 8.956C2.056 9.212 2.096 9.384 2.152 9.472C2.216 9.552 2.34 9.592 2.524 9.592C2.812 9.592 3.04 9.508 3.208 9.34C3.376 9.164 3.46 8.924 3.46 8.62C3.46 8.3 3.38 8.016 3.22 7.768C3.06 7.52 2.884 7.28 2.692 7.048C2.5 6.808 2.324 6.556 2.164 6.292C2.004 6.028 1.924 5.716 1.924 5.356ZM7.81431 10.12C7.54231 10.12 7.28631 10.068 7.04631 9.964C6.81431 9.852 6.61031 9.692 6.43431 9.484C6.25831 9.276 6.11831 9.024 6.01431 8.728C5.91031 8.424 5.85831 8.084 5.85831 7.708C5.85831 7.188 5.95431 6.676 6.14631 6.172C6.34631 5.668 6.60631 5.22 6.92631 4.828C7.24631 4.436 7.61031 4.12 8.01831 3.88C8.43431 3.64 8.86231 3.52 9.30231 3.52C9.59031 3.52 9.85431 3.576 10.0943 3.688C10.3423 3.792 10.5503 3.948 10.7183 4.156C10.8943 4.356 11.0303 4.6 11.1263 4.888C11.2303 5.168 11.2823 5.48 11.2823 5.824C11.2823 6.328 11.1823 6.836 10.9823 7.348C10.7823 7.86 10.5183 8.32 10.1903 8.728C9.87031 9.136 9.50231 9.472 9.08631 9.736C8.67031 9.992 8.24631 10.12 7.81431 10.12ZM7.88631 9.52C8.15831 9.52 8.42631 9.38 8.69031 9.1C8.96231 8.82 9.20231 8.468 9.41031 8.044C9.62631 7.612 9.79831 7.144 9.92631 6.64C10.0623 6.136 10.1303 5.656 10.1303 5.2C10.1303 4.776 10.0543 4.484 9.90231 4.324C9.75831 4.164 9.55831 4.084 9.30231 4.084C9.12631 4.084 8.94631 4.148 8.76231 4.276C8.58631 4.396 8.41831 4.564 8.25831 4.78C8.09831 4.996 7.94631 5.244 7.80231 5.524C7.66631 5.804 7.54631 6.1 7.44231 6.412C7.33831 6.724 7.25831 7.044 7.20231 7.372C7.14631 7.692 7.11831 8 7.11831 8.296C7.11831 8.744 7.19031 9.06 7.33431 9.244C7.47831 9.428 7.66231 9.52 7.88631 9.52ZM14.0476 1.708C14.0876 1.564 14.1276 1.42 14.1676 1.276C14.2076 1.124 14.2276 1.012 14.2276 0.939999C14.2276 0.66 13.9236 0.52 13.3156 0.52L13.4116 0.159999L15.6076 0.0519993L13.4596 7.936C13.3956 8.152 13.3476 8.344 13.3156 8.512C13.2836 8.672 13.2676 8.808 13.2676 8.92C13.2676 8.992 13.2876 9.056 13.3276 9.112C13.3676 9.168 13.4316 9.196 13.5196 9.196C13.6476 9.196 13.7836 9.144 13.9276 9.04C14.0716 8.928 14.2076 8.8 14.3356 8.656C14.4716 8.504 14.5916 8.352 14.6956 8.2C14.7996 8.04 14.8756 7.916 14.9236 7.828L15.2836 8.032C15.1636 8.304 15.0076 8.568 14.8156 8.824C14.6236 9.072 14.4196 9.292 14.2036 9.484C13.9876 9.676 13.7676 9.832 13.5436 9.952C13.3276 10.064 13.1276 10.12 12.9436 10.12C12.6636 10.12 12.4556 10.06 12.3196 9.94C12.1916 9.82 12.1276 9.62 12.1276 9.34C12.1276 9.18 12.1516 8.964 12.1996 8.692C12.2476 8.42 12.3316 8.048 12.4516 7.576L14.0476 1.708ZM17.6413 9.256C17.7693 9.256 17.9373 9.168 18.1453 8.992C18.3533 8.808 18.5733 8.568 18.8053 8.272C19.0373 7.968 19.2613 7.624 19.4773 7.24C19.7013 6.856 19.8893 6.456 20.0413 6.04L20.9293 3.64H22.0453L21.1573 6.388C21.0293 6.788 20.9213 7.132 20.8333 7.42C20.7453 7.7 20.6733 7.94 20.6173 8.14C20.5613 8.332 20.5213 8.492 20.4973 8.62C20.4733 8.74 20.4613 8.836 20.4613 8.908C20.4613 9.116 20.5333 9.22 20.6773 9.22C20.7573 9.22 20.8533 9.184 20.9653 9.112C21.0773 9.032 21.1893 8.928 21.3013 8.8C21.4213 8.664 21.5333 8.516 21.6373 8.356C21.7493 8.188 21.8453 8.012 21.9253 7.828L22.2853 8.008C22.1813 8.272 22.0453 8.532 21.8773 8.788C21.7093 9.036 21.5253 9.26 21.3253 9.46C21.1333 9.66 20.9293 9.82 20.7133 9.94C20.4973 10.06 20.2853 10.12 20.0773 10.12C19.8293 10.12 19.6613 10.032 19.5733 9.856C19.4853 9.68 19.4413 9.428 19.4413 9.1C19.4413 8.964 19.4453 8.82 19.4533 8.668C19.4693 8.508 19.4933 8.352 19.5253 8.2L19.4893 8.164C19.2733 8.548 19.0613 8.864 18.8533 9.112C18.6533 9.36 18.4573 9.56 18.2653 9.712C18.0733 9.864 17.8853 9.968 17.7013 10.024C17.5173 10.088 17.3373 10.12 17.1613 10.12C16.7853 10.12 16.5213 10.016 16.3693 9.808C16.2253 9.6 16.1533 9.344 16.1533 9.04C16.1533 8.704 16.2173 8.336 16.3453 7.936C16.4733 7.528 16.6093 7.144 16.7533 6.784C16.8973 6.424 17.0173 6.12 17.1133 5.872C17.2173 5.624 17.2973 5.416 17.3533 5.248C17.4173 5.08 17.4613 4.944 17.4853 4.84C17.5173 4.736 17.5333 4.652 17.5333 4.588C17.5333 4.556 17.5253 4.528 17.5093 4.504C17.5013 4.472 17.4733 4.456 17.4253 4.456C17.3213 4.456 17.1693 4.548 16.9693 4.732C16.7773 4.916 16.5133 5.212 16.1773 5.62L15.8653 5.452C15.9853 5.22 16.1373 4.988 16.3213 4.756C16.5053 4.524 16.7013 4.316 16.9093 4.132C17.1173 3.948 17.3333 3.8 17.5573 3.688C17.7813 3.576 17.9893 3.52 18.1813 3.52C18.5813 3.52 18.7813 3.752 18.7813 4.216C18.7813 4.496 18.7013 4.86 18.5413 5.308C18.3893 5.748 18.1893 6.276 17.9413 6.892C17.7813 7.284 17.6493 7.636 17.5453 7.948C17.4413 8.26 17.3893 8.544 17.3893 8.8C17.3893 8.968 17.4133 9.088 17.4613 9.16C17.5093 9.224 17.5693 9.256 17.6413 9.256ZM25.5466 4.636L24.5506 7.936C24.4146 8.368 24.3426 8.696 24.3346 8.92C24.3346 8.992 24.3506 9.056 24.3826 9.112C24.4226 9.168 24.4866 9.196 24.5746 9.196C24.7186 9.196 24.8706 9.144 25.0306 9.04C25.1906 8.928 25.3426 8.8 25.4866 8.656C25.6386 8.504 25.7706 8.352 25.8826 8.2C26.0026 8.04 26.0906 7.916 26.1466 7.828L26.4946 8.032C26.3586 8.304 26.1866 8.568 25.9786 8.824C25.7706 9.072 25.5506 9.292 25.3186 9.484C25.0866 9.676 24.8506 9.832 24.6106 9.952C24.3786 10.064 24.1666 10.12 23.9746 10.12C23.6946 10.12 23.4906 10.06 23.3626 9.94C23.2426 9.82 23.1826 9.62 23.1826 9.34C23.1826 9.18 23.2106 8.964 23.2666 8.692C23.3226 8.42 23.4186 8.048 23.5546 7.576L24.4426 4.636H23.4106L23.5666 4.084H24.6106L25.2346 2.02H26.3386L25.7146 4.084H27.0226L26.8546 4.636H25.5466ZM28.6814 6.04C28.7934 5.728 28.8734 5.476 28.9214 5.284C28.9694 5.092 28.9934 4.94 28.9934 4.828C28.9934 4.716 28.9734 4.644 28.9334 4.612C28.9014 4.572 28.8654 4.552 28.8254 4.552C28.7374 4.552 28.6414 4.596 28.5374 4.684C28.4334 4.764 28.3294 4.86 28.2254 4.972C28.1214 5.084 28.0294 5.196 27.9494 5.308C27.8694 5.42 27.8134 5.508 27.7814 5.572L27.4334 5.356C27.5294 5.18 27.6614 4.984 27.8294 4.768C28.0054 4.552 28.2014 4.352 28.4174 4.168C28.6334 3.984 28.8574 3.832 29.0894 3.712C29.3214 3.584 29.5414 3.52 29.7494 3.52C29.9494 3.52 30.0974 3.58 30.1934 3.7C30.2974 3.812 30.3494 4.02 30.3494 4.324C30.3494 4.556 30.2774 4.868 30.1334 5.26C29.9974 5.652 29.8174 6.156 29.5934 6.772L29.1494 7.984C29.1334 8.024 29.1094 8.088 29.0774 8.176C29.0534 8.256 29.0254 8.344 28.9934 8.44C28.9694 8.528 28.9454 8.616 28.9214 8.704C28.9054 8.792 28.8974 8.864 28.8974 8.92C28.8974 8.992 28.9174 9.056 28.9574 9.112C28.9974 9.168 29.0614 9.196 29.1494 9.196C29.2694 9.196 29.3934 9.148 29.5214 9.052C29.6494 8.948 29.7734 8.828 29.8934 8.692C30.0134 8.556 30.1214 8.42 30.2174 8.284C30.3134 8.14 30.3854 8.028 30.4334 7.948L30.7934 8.152C30.6974 8.344 30.5654 8.556 30.3974 8.788C30.2374 9.02 30.0534 9.236 29.8454 9.436C29.6374 9.628 29.4094 9.792 29.1614 9.928C28.9134 10.056 28.6574 10.12 28.3934 10.12C28.1614 10.12 27.9854 10.06 27.8654 9.94C27.7534 9.82 27.6974 9.62 27.6974 9.34C27.6974 9.108 27.7334 8.86 27.8054 8.596C27.8854 8.324 27.9974 7.984 28.1414 7.576L28.6814 6.04ZM30.4454 1.552C30.2454 1.552 30.0694 1.484 29.9174 1.348C29.7734 1.212 29.7014 1.036 29.7014 0.819999C29.7014 0.603999 29.7734 0.419999 29.9174 0.267999C30.0614 0.115999 30.2374 0.0399995 30.4454 0.0399995C30.6694 0.0399995 30.8534 0.115999 30.9974 0.267999C31.1414 0.419999 31.2134 0.599999 31.2134 0.808C31.2134 1.016 31.1374 1.192 30.9854 1.336C30.8334 1.48 30.6534 1.552 30.4454 1.552ZM33.4784 10.12C33.2064 10.12 32.9504 10.068 32.7104 9.964C32.4784 9.852 32.2744 9.692 32.0984 9.484C31.9224 9.276 31.7824 9.024 31.6784 8.728C31.5744 8.424 31.5224 8.084 31.5224 7.708C31.5224 7.188 31.6184 6.676 31.8104 6.172C32.0104 5.668 32.2704 5.22 32.5904 4.828C32.9104 4.436 33.2744 4.12 33.6824 3.88C34.0984 3.64 34.5264 3.52 34.9664 3.52C35.2544 3.52 35.5184 3.576 35.7584 3.688C36.0064 3.792 36.2144 3.948 36.3824 4.156C36.5584 4.356 36.6944 4.6 36.7904 4.888C36.8944 5.168 36.9464 5.48 36.9464 5.824C36.9464 6.328 36.8464 6.836 36.6464 7.348C36.4464 7.86 36.1824 8.32 35.8544 8.728C35.5344 9.136 35.1664 9.472 34.7504 9.736C34.3344 9.992 33.9104 10.12 33.4784 10.12ZM33.5504 9.52C33.8224 9.52 34.0904 9.38 34.3544 9.1C34.6264 8.82 34.8664 8.468 35.0744 8.044C35.2904 7.612 35.4624 7.144 35.5904 6.64C35.7264 6.136 35.7944 5.656 35.7944 5.2C35.7944 4.776 35.7184 4.484 35.5664 4.324C35.4224 4.164 35.2224 4.084 34.9664 4.084C34.7904 4.084 34.6104 4.148 34.4264 4.276C34.2504 4.396 34.0824 4.564 33.9224 4.78C33.7624 4.996 33.6104 5.244 33.4664 5.524C33.3304 5.804 33.2104 6.1 33.1064 6.412C33.0024 6.724 32.9224 7.044 32.8664 7.372C32.8104 7.692 32.7824 8 32.7824 8.296C32.7824 8.744 32.8544 9.06 32.9984 9.244C33.1424 9.428 33.3264 9.52 33.5504 9.52ZM42.6156 4.144C42.4236 4.144 42.2036 4.244 41.9556 4.444C41.7156 4.636 41.4676 4.896 41.2116 5.224C40.9636 5.544 40.7236 5.912 40.4916 6.328C40.2596 6.744 40.0636 7.168 39.9036 7.6L39.0156 10H37.9596L38.8476 7.252C38.9916 6.812 39.1116 6.436 39.2076 6.124C39.3036 5.812 39.3796 5.552 39.4356 5.344C39.4996 5.128 39.5436 4.956 39.5676 4.828C39.5916 4.692 39.6036 4.584 39.6036 4.504C39.6036 4.288 39.5356 4.18 39.3996 4.18C39.3116 4.18 39.2076 4.236 39.0876 4.348C38.9676 4.46 38.8436 4.608 38.7156 4.792C38.5956 4.968 38.4796 5.172 38.3676 5.404C38.2556 5.636 38.1596 5.872 38.0796 6.112L37.7196 5.932C37.9996 5.108 38.3116 4.5 38.6556 4.108C39.0076 3.716 39.4076 3.52 39.8556 3.52C40.1116 3.52 40.2916 3.592 40.3956 3.736C40.5076 3.88 40.5636 4.124 40.5636 4.468C40.5636 4.876 40.4956 5.24 40.3596 5.56L40.3956 5.596C40.8036 4.876 41.2156 4.352 41.6316 4.024C42.0556 3.688 42.5156 3.52 43.0116 3.52C43.3636 3.52 43.6316 3.604 43.8156 3.772C43.9996 3.94 44.0916 4.18 44.0916 4.492C44.0916 4.596 44.0796 4.712 44.0556 4.84C44.0396 4.968 44.0076 5.124 43.9596 5.308C43.9116 5.484 43.8436 5.696 43.7556 5.944C43.6756 6.192 43.5756 6.496 43.4556 6.856C43.2716 7.4 43.1196 7.856 42.9996 8.224C42.8796 8.592 42.8196 8.852 42.8196 9.004C42.8196 9.124 42.8596 9.184 42.9396 9.184C43.0516 9.184 43.2156 9.092 43.4316 8.908C43.6476 8.724 43.9396 8.428 44.3076 8.02L44.6196 8.188C44.4916 8.428 44.3236 8.664 44.1156 8.896C43.9156 9.12 43.7036 9.324 43.4796 9.508C43.2636 9.692 43.0476 9.84 42.8316 9.952C42.6156 10.064 42.4276 10.12 42.2676 10.12C42.0676 10.12 41.9076 10.032 41.7876 9.856C41.6756 9.68 41.6196 9.448 41.6196 9.16C41.6196 9.048 41.6276 8.936 41.6436 8.824C41.6676 8.704 41.7116 8.536 41.7756 8.32C41.8396 8.104 41.9316 7.816 42.0516 7.456C42.1796 7.088 42.3516 6.604 42.5676 6.004C42.6396 5.796 42.6996 5.62 42.7476 5.476C42.7956 5.332 42.8316 5.208 42.8556 5.104C42.8876 4.992 42.9076 4.896 42.9156 4.816C42.9316 4.736 42.9396 4.66 42.9396 4.588C42.9396 4.292 42.8316 4.144 42.6156 4.144Z" fill="black"/>
</svg>
