<svg xmlns="http://www.w3.org/2000/svg" xmlns:xlink="http://www.w3.org/1999/xlink" width="400" height="200" aria-hidden="true" viewBox="0 -14.585 400 200"><defs><path id="a" stroke-width="1" d="m304-161-12-16C134-87 48 82 48 252c0 185 87 329 247 424l9-16C165 541 134 448 134 255c0-186 30-299 170-416Z"/><path id="b" stroke-width="1" d="m175 267 5-1c9 18 21 38 32 56 34 54 82 119 137 119 29 0 44-21 44-48 0-38-24-82-65-82-39 0-29 38-47 38-61 0-148-256-153-273L107 0H30l92 364c3 11 4 18 4 23 0 13-11 19-33 19-7 0-21-2-27-3l-2 15 157 23z"/><path id="c" stroke-width="1" d="M310 252c0-75-60-135-135-135-76 0-135 60-135 137 0 75 60 133 137 133 73 0 133-61 133-135zm-66 0c0 39-31 69-67 69-42 0-71-30-71-67 0-42 30-71 69-71s69 30 69 69z"/><path id="d" stroke-width="1" d="m390 441-24-146h-15c0 64-36 120-92 120-25 0-51-17-51-58 0-55 134-147 134-242 0-62-48-125-135-125-34 0-98 20-110 20-9 0-18-4-30-21H50l25 156h16c0-63 41-130 104-130 59 0 73 50 73 89 0 82-130 132-130 230 0 79 59 107 114 107 43 0 63-20 92-20 11 0 22 10 30 20z"/><path id="e" stroke-width="1" d="m29 660 12 16c153-92 244-259 244-429 0-185-88-327-247-424l-9 16C171-44 199 50 199 244c0 187-25 302-170 416Z"/><path id="f" stroke-width="1" d="m305 288 45 69c26 40 61 84 111 84 32 0 49-12 49-33 0-19-13-42-39-42-22 0-27 9-44 9-30 0-41-16-55-38l-55-85c30-62 53-197 98-197 16 0 40 14 61 57l14-10C478 87 433-9 375-9c-41 0-60 41-73 77l-40 113-63-98C167 34 138-9 82-9 46-9 30 16 30 38c0 16 13 37 38 37 26 0 22-20 47-20 12 0 38 10 70 59l65 101-33 92c-17 48-43 89-98 89-13 0-28-2-38-6l-3 18 132 33c44-24 63-65 75-98z"/><path id="g" stroke-width="1" d="M637 320H48v66h589zm0-200H48v66h589z"/></defs><path d="M490.445 388.796c.573-2.123-1.471-3.144-3.045-3.995-5.343-2.29-10.973-2.38-16.682-2.232-5.776.363-11.63 1.178-16.95 3.592-1.013.46-1.972 1.032-2.959 1.548-3.527 2.205-6.737 4.977-8.956 8.537-1.228 1.97-1.395 2.703-2.209 4.83-.931 3.29-.977 6.771.649 9.859.222.422.518.8.776 1.201.516.648 2.137 2.567 3.071 2.625-1.643-.898-3.815-.694-5.606-.607-5.073.41-9.767 2.276-14.331 4.402-4.73 2.38-8.883 5.744-11.941 10.093-.7.994-1.288 2.062-1.932 3.092-2.258 4.384-4.214 9.147-4.07 14.18.087 3.023.494 3.458 1.506 6.208.57.839 1.04 1.754 1.708 2.518 2.751 3.15 6.98 4.61 11.006 5.171.977.136 1.967.15 2.95.224 2.89-.104 7.255.043 9.623-1.96.021-.12.101-.243.063-.358-.28-.843-2.891-.4-3.456-.292-2.438.812-4.022 2.893-4.962 5.216-.28.692-.468 1.418-.702 2.127-1.01 4.51-.51 9.146.938 13.508.315.946.716 1.86 1.074 2.792 1.614 3.578 3.773 6.973 6.809 9.523 1.98 1.664 2.549 1.773 4.832 2.89.869.25 1.719.578 2.606.75 3.238.624 6.58.019 9.57-1.287.553-.24 1.073-.55 1.609-.824.202-.145 2.572-1.539 2.613-1.871.005-.042-.074.03-.385.288a4.4 4.4 0 0 0-1.336 3.705c.058.49.226.962.339 1.443.268.538.482 1.107.804 1.615 1.97 3.098 5.277 5.376 8.431 7.11 1.125.619 2.3 1.14 3.45 1.709 7.258 3.215 15.071 4.887 22.986 5.28 1.762.086 3.529.059 5.293.088 6.787-.13 13.604-1.048 19.996-3.42 3.586-1.33 4.424-1.954 7.66-3.764 2.15-1.455 4.517-2.834 6.134-4.932.361-.468.84-1.265.731-1.936-.035-.223-.22-.394-.331-.59-1.066-.644-2.654-.845-3.778-.171-.18.107-.308.285-.461.428-.04.205-.145.408-.122.616.13 1.171 1.364 2.262 2.16 2.961 1.462 1.283 2.046 1.577 3.732 2.689 6.09 3.741 12.998 5.686 19.85 7.49 7.313 1.678 14.817 2.613 22.33 2.472 1.44-.027 2.877-.148 4.315-.221 3.488-.326 7.063-.736 10.338-2.077 1.098-.45 2.431-1.186 3.202-2.165.229-.291.31-.673.464-1.01-.038-.32-.011-.653-.113-.959-.484-1.46-2.343-2.593-3.589-3.348.034.06-.983-.56-.97-.505.07.337 1.155.859 1.323.96 4.348 2.235 9.402 2.032 14.147 1.862 6.91-.589 13.637-2.596 19.84-5.684 1.238-.617 2.43-1.323 3.645-1.985 3.97-2.52 7.82-5.53 10.153-9.713 1.153-2.068 1.156-2.707 1.685-4.913.236-2.453-.135-4.896-1.506-6.986-.532-.811-.987-1.19-1.663-1.851-.04-.252-2.855-2.134-1.64-.538 2.123 1.596 4.99 1.786 7.547 1.503.84-.093 1.666-.284 2.5-.425 3.558-.897 6.978-2.42 9.653-4.994 1.893-1.823 2.011-2.337 3.38-4.569 1.886-3.93 2.575-8.248 2.303-12.586-.176-2.814-.603-4.399-1.168-7.167-1.322-5.132-3.413-10.082-6.534-14.393-2.12-2.927-2.937-3.494-5.53-5.994-4.114-3.482-8.911-5.888-14.056-7.43-2.478-.742-3.92-.974-6.396-1.468-2.219-.345-2.286-.384-4.338-.61-.444-.049-.889-.087-1.334-.126-.113-.01-1.003-.039-1.045-.132-.032-.069.096-.118.144-.177 1.337-.914 2.62-1.912 3.352-3.405.222-.452.357-.941.536-1.412 1.03-4.833-.98-8.687-3.26-12.805-.608-.934-1.164-1.904-1.825-2.802-3.145-4.27-7.034-8.12-11.38-11.156-1.163-.812-2.395-1.521-3.592-2.282-7.057-3.918-14.908-6.4-22.965-7.105-1.699-.148-3.408-.128-5.112-.192-1.673.082-3.35.092-5.019.245-5.176.473-10.77 1.605-15.475 3.905-.705.345-1.353.797-2.03 1.195-.422.35-.886.656-1.267 1.051-.53.549-1.203 2.018.235 1.872.197-.02.378-.122.567-.183.172-.131.379-.228.518-.395 1.436-1.725-1.523-4.009-2.533-4.96-5.049-3.83-10.983-6.301-16.818-8.67-6.114-2.152-12.625-3.713-19.154-3.003-1.288.14-2.55.455-3.826.682-4.923 1.402-9.349 3.965-12.763 7.812-.675.76-1.23 1.619-1.846 2.428h.001c.615-.809 1.171-1.667 1.846-2.427 3.414-3.847 7.84-6.41 12.762-7.812 1.276-.227 2.538-.542 3.826-.682 6.528-.71 13.04.85 19.154 3.002 5.835 2.37 11.769 4.84 16.817 8.671 1.01.95 3.968 3.234 2.533 4.958-.14.167-.345.263-.518.395-.189.06-.369.162-.566.183-1.437.146-.762-1.322-.234-1.87.38-.394.844-.7 1.266-1.05.677-.399 1.325-.85 2.03-1.195 4.705-2.301 10.3-3.433 15.475-3.906 1.668-.153 3.346-.163 5.018-.245 1.705.064 3.414.044 5.113.192 8.056.705 15.908 3.187 22.964 7.105 1.197.76 2.429 1.47 3.592 2.282 4.346 3.037 8.235 6.886 11.38 11.156.66.897 1.217 1.867 1.826 2.801 2.278 4.118 4.288 7.972 3.258 12.805-.178.47-.313.96-.535 1.411-.731 1.494-2.015 2.491-3.353 3.405-.047.06-.175.11-.143.18.043.093.932.122 1.046.132.445.038.89.077 1.333.125 2.053.226 2.12.265 4.339.61 2.477.494 3.917.726 6.395 1.468 5.145 1.541 9.942 3.948 14.057 7.43 2.592 2.5 3.41 3.067 5.529 5.994 3.12 4.31 5.212 9.26 6.533 14.392.566 2.768.992 4.353 1.169 7.167.272 4.338-.417 8.657-2.303 12.586-1.369 2.232-1.487 2.745-3.38 4.568-2.674 2.575-6.094 4.097-9.653 4.993-.833.142-1.66.333-2.5.426-2.556.282-5.423.092-7.544-1.503-1.213-1.592 1.596.29 1.637.54.675.66 1.131 1.04 1.663 1.85 1.37 2.09 1.742 4.533 1.506 6.986-.529 2.206-.532 2.844-1.685 4.912-2.333 4.183-6.183 7.194-10.152 9.713-1.215.662-2.407 1.368-3.646 1.985-6.202 3.088-12.93 5.096-19.84 5.684-4.744.17-9.798.373-14.145-1.861-.17-.104-1.248-.623-1.325-.958-.013-.054 1.005.564.97.505 1.246.754 3.104 1.886 3.589 3.346.101.306.075.64.113.959-.155.336-.235.718-.464 1.01-.77.978-2.103 1.715-3.201 2.164-3.276 1.341-6.85 1.75-10.338 2.077-1.439.074-2.875.194-4.315.221-7.513.141-15.017-.794-22.33-2.472-6.852-1.804-13.76-3.749-19.849-7.49-1.686-1.113-2.27-1.406-3.731-2.689-.797-.699-2.03-1.79-2.16-2.96-.023-.207.08-.41.12-.615.154-.143.282-.32.461-.428 1.124-.673 2.711-.472 3.776.17.11.197.296.367.332.59.108.67-.37 1.468-.73 1.936-1.618 2.097-3.985 3.476-6.134 4.931-3.236 1.81-4.075 2.434-7.66 3.765-6.393 2.372-13.21 3.29-19.996 3.42-1.764-.03-3.53-.002-5.294-.09-7.914-.392-15.727-2.064-22.985-5.28-1.15-.569-2.325-1.09-3.45-1.708-3.153-1.735-6.46-4.012-8.43-7.11-.322-.507-.536-1.076-.804-1.615-.113-.48-.28-.951-.339-1.442a4.398 4.398 0 0 1 1.336-3.704c.311-.258.388-.327.383-.29-.051.351-2.4 1.71-2.613 1.87-.536.276-1.056.584-1.608.825-2.991 1.306-6.332 1.91-9.57 1.286-.887-.171-1.737-.499-2.606-.748-2.283-1.118-2.851-1.227-4.832-2.891-3.035-2.55-5.194-5.944-6.807-9.523-.359-.93-.76-1.846-1.075-2.792-1.448-4.36-1.947-8.997-.938-13.506.234-.71.422-1.435.702-2.127.94-2.323 2.523-4.404 4.961-5.216.564-.107 3.174-.55 3.454.29.038.115-.041.239-.062.358-2.368 2.003-6.733 1.856-9.622 1.96-.983-.075-1.973-.088-2.95-.224-4.025-.562-8.254-2.02-11.006-5.171-.667-.764-1.138-1.679-1.707-2.518-1.012-2.749-1.419-3.184-1.506-6.207-.144-5.033 1.812-9.796 4.07-14.179.644-1.03 1.232-2.098 1.931-3.092 3.059-4.349 7.212-7.713 11.94-10.093 4.565-2.126 9.259-3.992 14.332-4.402 1.796-.087 3.954-.284 5.606.604-.931-.056-2.556-1.978-3.07-2.623-.259-.4-.554-.78-.776-1.201-1.626-3.088-1.58-6.57-.649-9.858.814-2.128.98-2.861 2.209-4.83 2.218-3.56 5.429-6.333 8.956-8.538.986-.515 1.945-1.087 2.959-1.547 5.319-2.414 11.173-3.23 16.949-3.592 5.709-.15 11.34-.058 16.682 2.232 1.573.85 3.617 1.872 3.044 3.993z" style="opacity:1;fill:#000;fill-opacity:1;stroke:#000;stroke-width:.8;stroke-linejoin:round;stroke-miterlimit:2;stroke-dasharray:none;stroke-dashoffset:0"/><path d="M382.461-76.808c-4.77-2.347-12.081-1.71-15.38-.817-5.025 1.359-9.928 3.799-12.776 8.275-5.92 9.307-3.412 22.92 5.642 29.255 7.422 5.194 17.084 5.878 25.788 4.25 5.042-.943 11.46-3.977 14.083-9.384 2.162-4.46 2.107-9.828-.226-14.233-2.946-5.561-7.652-10.242-13.603-12.431-2.027-.746-4.452-1.417-6.398-1.74" style="opacity:1;fill:none;fill-opacity:1;stroke:#000;stroke-width:1;stroke-linejoin:round;stroke-miterlimit:2;stroke-dasharray:none;stroke-dashoffset:0"/><path d="M344.142-116.705c3.418.61 6.795 1.548 9.775 3.39 1.423.99 2.266 1.492 3.521 2.694 2.155 2.062 3.881 4.559 5.158 7.244.233.65.51 1.286.698 1.95.98 3.445.62 6.931-1.068 10.088-.399.602-.739 1.247-1.195 1.806-2.996 3.675-7.648 5.32-12.122 6.292-1.157.15-2.309.357-3.472.449-4.772.373-9.767-.079-14.27-1.782-1.04-.394-2.015-.94-3.022-1.41-2.27-1.527-3.013-1.847-4.904-3.822-2.808-2.934-4.51-6.618-5.219-10.592-.208-2.502-.4-3.297-.108-5.797.424-3.622 1.899-6.969 4.158-9.812 1.628-1.658 1.924-2.156 3.914-3.397 3.14-1.96 6.78-3.005 10.431-3.153 3.764-.153 6.702-.288 9.573 1.675" style="opacity:1;fill:#000;fill-opacity:1;stroke:#000;stroke-width:.1;stroke-linejoin:round;stroke-miterlimit:2;stroke-dasharray:none;stroke-dashoffset:0"/><path d="M174.037 156.314c-.63.883-2.025 2.242-2.61 2.786-7.348 6.838-19.689 9.186-29.597 10.064-20.001 1.77-42.699-.237-57.354-15.062-8.37-8.468-12.225-22.197-8.204-33.652.784-1.177 2.53-.43 3.512-1.455l-.12-.682c-13.74 8.557-34.613 3.437-40.617-12.613-8.28-22.133 9.19-47.43 32.073-50.406 2.48-.323 7.9-.017 7.124 3.37l-.046-.306c-10.247-.664-15.164-13.454-12.08-23.927C72.03 14.357 93.955 2.798 114.216.291c14.152-1.752 31.817-.3 43.411 9.616 3.32 2.839 6.004 6.722 6.738 9.552.472 1.823.014 5.493-2.005 4.887-1.254-.376-.617-2.444.074-3.734 2.397-4.466 12.424-9.057 19.182-10.298 22.932-4.209 41.28-.079 56.99 10.993 5.936 4.184 12.091 11.504 13.813 17.587.716 2.531.945 4.022-.097 3.508-.656-.349-.968-1.123.597-1.84 4.713-2.16 12.005-1.924 17.173-.232 20.947 6.862 34.842 28.715 34.136 55.76-.521 19.972-18.077 36.36-37.068 34.694-3.212-.281-8.53-2.037-6.15-5.072 7.998.418 13.532 7.129 9.824 16.089-7.462 18.033-32.27 25.29-51.816 26.448-15.68.929-35.544.822-48.01-10.89a32.343 32.343 0 0 1-2.711-2.877" style="opacity:1;fill:#e5f6ff;fill-opacity:1;stroke:#000;stroke-width:.9;stroke-linejoin:round;stroke-miterlimit:2;stroke-dasharray:none;stroke-dashoffset:0"/><path d="M195.767 420.749c.61-2.769-1.386-4.531-4.01-5.01-.881-.161-1.788-.202-2.682-.15a18.539 18.539 0 0 0-3.38.507c-6.967 1.734-13.701 6.178-18.827 11.087-1.623 1.554-3.036 3.314-4.554 4.97-1.238 1.849-2.637 3.6-3.714 5.546-4.169 7.535-5.81 16.727-3.79 25.167.487 2.036 1.396 3.947 2.094 5.92 1.037 1.7 1.907 3.514 3.11 5.1 3.395 4.482 8.071 7.587 13.436 9.2 4.16 1.25 5.686 1.016 9.93 1.13 3.849-.176 7.574-1.014 11.153-2.41 1.228-.479 2.464-1.039 3.515-1.846-.128-.223-.158-.546-.384-.669-.156-.084-.332.125-.497.19-.596.237-1.154.476-1.784.606-.194.101-.42.003-.62.062-1.611.476-1.92 2.823-2.274 4.111-1.256 6.891-.52 14.017 2.31 20.456.699 1.59 1.623 3.073 2.435 4.61 1.042 1.445 1.983 2.97 3.127 4.337 3.733 4.462 8.464 7.947 13.712 10.434 5.005 2.371 7.581 3.058 13.018 4.361 13.199 3.164 26.884 3.285 40.25.854 2.493-.453 4.941-1.123 7.412-1.684 4.945-1.435 9.917-3.068 14.362-5.73.853-.51 2.292-1.39 2.673-2.506.113-.331-.025-.7-.038-1.051-.255-.278-.464-.607-.766-.834-.443-.332-1.613-.754-2.124-.958a24.1 24.1 0 0 1-2.315-1.053c-.498-.31-1.23-.722-.988.409.03.139.708 1.026.73 1.054.246.29.472.6.738.873.776.798 1.945 1.756 2.778 2.437 1.435 1.17 2.683 2.192 4.279 3.166.91.557 1.846 1.076 2.811 1.53 4.602 2.162 9.546 3.585 14.56 4.433 3.845.65 5.472.744 9.415.959 9.529.52 19.149-.273 28.537-2.002 2.037-.375 4.064-.814 6.076-1.306 8.223-2.014 16.09-5.424 22.832-10.615 3.89-2.995 5.272-4.568 7.997-7.989.992-1.246 1.807-2.634 2.536-4.051 1.614-3.138 2.82-7.027 1.33-10.473-1.012-2.344-2.273-3.244-4.28-4.64-3.156-2.193-6.892-3.466-10.734-3.8" style="opacity:1;fill:none;fill-opacity:1;stroke:#000;stroke-width:.9;stroke-linejoin:round;stroke-miterlimit:2;stroke-dasharray:none;stroke-dashoffset:0"/><path d="M469.776-66.653c.007.44.013.891.111 1.32.671 2.922 3.563 4.596 6.259 5.227 1.027.241 2.08.41 3.136.44 2.974.081 4.555.092 7.528-.581 5.252-1.19 10.324-3.523 14.763-6.555 1.457-.995 2.772-2.182 4.158-3.274 1.162-1.248 2.436-2.4 3.487-3.743 3.129-4.002 5.006-8.746 5.908-13.718.819-4.518.704-5.708.419-10.306-.113-1.825-.435-3.637-.818-5.425-.484-2.265-1.108-4.5-1.78-6.715-2.19-7.218-4.978-14.272-9.087-20.633a60.157 60.157 0 0 0-4.242-5.787 55.57 55.57 0 0 0-4.678-4.957c-4.282-4.029-9.38-7.521-14.726-9.986-3.922-1.81-4.836-2.104-8.958-2.807-3.573-.61-6.973-.458-9.927 2.046-1.475 1.25-2.559 3.194-3.066 5.035-.252.914-.448 1.875-.374 2.82.147 1.864.544 2.924 1.285 4.454" style="opacity:1;fill:#000;fill-opacity:1;stroke:#000;stroke-width:.1;stroke-linejoin:round;stroke-miterlimit:2;stroke-dasharray:none;stroke-dashoffset:0"/><path d="M223.347-139.26c.082-.25.097-.59.11-.833.14-2.66-.586-5.259-1.48-7.748a93.31 93.31 0 0 0-2.721-6.759c-.758-1.687-1.276-2.91-2.252-4.484a19.485 19.485 0 0 0-1.368-1.958c-1.467-1.824-3.02-3.614-4.872-5.068-2.04-1.602-4.405-2.712-6.795-3.668a44.747 44.747 0 0 0-2.742-.986c-5.268-1.72-10.715-2.862-16.158-3.846-1.21-.219-2.431-.364-3.653-.497-6.739-.734-13.53-.55-20.269.067-7.901.722-15.877 1.46-23.439 4.03-.99.412-2.009.763-2.971 1.237-2.327 1.147-5.251 3.309-6.668 5.527a5.945 5.945 0 0 0-.692 1.433 3.63 3.63 0 0 0-.136 1.256c.02.362.14.714.26 1.056.421 1.202 1.236 2.07 2.435 2.483.227.078.468.123.709.138 1.678.104 2.925-1.256 3.566-2.623a5.29 5.29 0 0 0 .442-1.52c.534-3.89-2.135-7.291-4.708-9.815a23.066 23.066 0 0 0-2.332-2c-5.221-3.903-11.543-6.022-17.859-7.258-3.794-.742-5.308-.967-9.227-1.134-6.908-.296-13.817.538-20.587 1.819a74.64 74.64 0 0 0-5.145 1.173c-7.86 2.072-15.468 5.268-22.153 9.92-1.206.922-2.443 1.805-3.617 2.767-5.036 4.127-9.475 9.024-12.278 14.937a23.744 23.744 0 0 0-1.163 2.95c-1.214 3.804-1.586 8.194-.378 12.054.287.917.678 1.805 1.143 2.646.468.848 1.01 1.664 1.643 2.398 3.038 3.523 7.652 5.181 12.13 5.806" style="opacity:1;fill:none;fill-opacity:1;stroke:#000;stroke-width:.1;stroke-linejoin:round;stroke-miterlimit:2;stroke-dasharray:none;stroke-dashoffset:0"/><path d="M-119.048 500.646c-.96.763-2.177 1.289-3.301 1.729-3.492 1.367-7.126 2.189-10.882 2.367-4.13-.102-5.618.129-9.667-1.076-5.216-1.552-9.764-4.548-13.074-8.891-1.176-1.543-2.028-3.306-3.043-4.96-1.864-5.228-2.692-6.29-2.889-11.951-.222-6.397 1.418-12.872 4.5-18.463 1.057-1.915 2.43-3.637 3.645-5.455 1.494-1.634 2.884-3.37 4.481-4.902 5.029-4.824 11.623-9.188 18.455-10.919a18.258 18.258 0 0 1 3.23-.498 10.657 10.657 0 0 1 2.47.108c2.18.362 4.04 1.693 3.542 4.057" style="opacity:1;fill:none;fill-opacity:1;stroke:#000;stroke-width:.9;stroke-linejoin:round;stroke-miterlimit:2;stroke-dasharray:none;stroke-dashoffset:0"/><path d="M-25.63 539.715c.052.18.21.362.156.543-.306 1.031-1.651 1.808-2.395 2.255-4.386 2.631-9.296 4.241-14.176 5.66-2.45.557-4.878 1.222-7.35 1.673-13.262 2.416-26.842 2.299-39.94-.833-5.358-1.281-7.923-1.964-12.852-4.293-5.153-2.434-9.801-5.844-13.47-10.217-1.124-1.34-2.048-2.833-3.072-4.249-.797-1.503-1.704-2.952-2.39-4.509-2.778-6.293-3.509-13.262-2.293-20.005.13-.488.67-3.293 1.589-3.555.236-.067.5.035.732-.076a9.443 9.443 0 0 0 1.929-.653c.08-.036.221-.04.233-.128" style="opacity:1;fill:none;fill-opacity:1;stroke:#000;stroke-width:.9;stroke-linejoin:round;stroke-miterlimit:2;stroke-dasharray:none;stroke-dashoffset:0"/><path d="M58.467 507.515c3.927.515 7.619 1.796 10.32 3.635 1.82 1.238 3.078 2.131 4.022 4.22 1.462 3.239.278 6.948-1.235 9.905-.708 1.384-1.493 2.745-2.466 3.957-2.873 3.576-4.157 5.01-7.85 7.859-6.662 5.137-14.439 8.509-22.566 10.5-1.998.49-4.01.926-6.033 1.299-9.331 1.72-18.895 2.509-28.368 1.995-3.891-.212-5.52-.305-9.314-.945-4.942-.834-9.816-2.234-14.354-4.358a28.442 28.442 0 0 1-2.743-1.487c-1.58-.963-2.802-1.966-4.223-3.124-.751-.614-1.968-1.611-2.686-2.346-.255-.26-.472-.556-.708-.834-.145-.195-.296-.385-.434-.584-.088-.127-.093-.368-.245-.392-.13-.02-.118.262-.238.317-.11.05-.257-.104-.36-.042-.195.115 1.054.282.577.357" style="opacity:1;fill:none;fill-opacity:1;stroke:#000;stroke-width:.9;stroke-linejoin:round;stroke-miterlimit:2;stroke-dasharray:none;stroke-dashoffset:0"/><path d="M50.42 433.528c-.796-1.471-1.076-2.469-1.213-4.023-.077-.878.096-1.772.321-2.624.442-1.672 1.432-3.524 2.754-4.677 2.721-2.373 6.04-2.534 9.368-1.96 4.027.694 4.937.97 8.775 2.737 5.274 2.428 10.307 5.87 14.533 9.84a54.757 54.757 0 0 1 4.618 4.884 59.385 59.385 0 0 1 4.195 5.714c4.078 6.304 6.84 13.297 9.014 20.453.665 2.19 1.282 4.397 1.763 6.634.378 1.758.646 3.542.81 5.333.156 1.718.214 3.449.147 5.172-.256 6.516-2.232 13.129-6.273 18.316-1.024 1.315-2.267 2.443-3.401 3.665-1.359 1.072-2.647 2.24-4.075 3.217-4.352 2.98-9.33 5.28-14.48 6.456-2.886.659-4.44.65-7.323.581-1.007-.024-2.011-.184-2.994-.405-2.839-.639-5.424-2.24-5.918-5.38" style="opacity:1;fill:none;fill-opacity:1;stroke:#000;stroke-width:.9;stroke-linejoin:round;stroke-miterlimit:2;stroke-dasharray:none;stroke-dashoffset:0"/><path d="M-39.08 409.501c-1.233-.395-2.074-1.637-2.119-2.977-.011-.33.041-.67.152-.981.149-.423.368-.822.618-1.194 1.407-2.098 4.142-4.117 6.38-5.215.93-.456 1.915-.792 2.873-1.188 7.493-2.533 15.393-3.26 23.219-3.975 6.694-.612 13.442-.797 20.136-.066 1.209.132 2.417.276 3.613.493 5.406.98 10.815 2.113 16.047 3.821.909.297 1.811.617 2.7.973 2.33.934 4.637 2.014 6.623 3.58 1.795 1.415 3.3 3.162 4.722 4.931.484.603.919 1.246 1.325 1.904.94 1.52 1.453 2.736 2.185 4.366a91.212 91.212 0 0 1 2.697 6.7c.856 2.396 1.554 4.899 1.436 7.462-.007.155-.03.31-.077.458" style="opacity:1;fill:none;fill-opacity:1;stroke:#000;stroke-width:.9;stroke-linejoin:round;stroke-miterlimit:2;stroke-dasharray:none;stroke-dashoffset:0"/><path d="M-119.145 441.749c-4.252-.671-8.643-2.233-11.52-5.608a13.283 13.283 0 0 1-1.536-2.272 13.715 13.715 0 0 1-1.073-2.518c-1.139-3.707-.754-7.932.418-11.575a23.01 23.01 0 0 1 1.131-2.853c2.764-5.8 7.129-10.599 12.074-14.647 1.161-.951 2.385-1.823 3.577-2.735 6.614-4.595 14.14-7.75 21.911-9.796a73.879 73.879 0 0 1 5.097-1.16c6.714-1.269 13.567-2.096 20.418-1.801 3.855.166 5.374.392 9.107 1.125 6.211 1.219 12.433 3.298 17.564 7.144a21.933 21.933 0 0 1 2.254 1.941c2.393 2.364 5.001 5.58 4.446 9.232-.07.453-.2.905-.41 1.312-.722 1.398-1.78 2.48-3.393 1.963" style="opacity:1;fill:none;fill-opacity:1;stroke:#000;stroke-width:.9;stroke-linejoin:round;stroke-miterlimit:2;stroke-dasharray:none;stroke-dashoffset:0"/><path d="M348.988 70.016c-4.166-2.05-10.554-1.493-13.437-.714-4.389 1.187-8.672 3.318-11.16 7.226-5.173 8.127-2.981 20.014 4.929 25.546 6.484 4.535 14.925 5.133 22.529 3.711 4.404-.823 10.011-3.473 12.302-8.194 1.89-3.894 1.84-8.582-.197-12.428-2.573-4.856-6.685-8.944-11.883-10.855-1.771-.651-3.89-1.238-5.59-1.52" style="opacity:1;fill:#e5f6ff;fill-opacity:1;stroke:#000;stroke-width:1;stroke-linejoin:round;stroke-miterlimit:2;stroke-dasharray:none;stroke-dashoffset:0"/><path d="M393.921 82.463c-1.02-.932-2.445-.723-3.655-.567-2.862.425-5.754 1.667-7.807 4.07-1.511 1.813-2.62 4.42-2.06 6.97.53 2.21 2.226 3.768 3.99 4.652 3.578 1.798 8.054 1.636 11.246-1.104 2.269-1.98 3.322-5.594 2.641-8.758-.517-2.33-2.118-4.252-4.083-5.04-.756-.374-1.585-.509-2.402-.54" style="fill:#e5f6ff;fill-opacity:1;stroke:#000;stroke-width:1.1;stroke-linejoin:round;stroke-miterlimit:2"/><path d="M-277.273 118.313c-13.74 8.557-34.613 3.437-40.617-12.613-8.28-22.133 9.19-47.43 32.073-50.406 2.48-.323 7.9-.017 7.124 3.37" style="opacity:1;fill:none;fill-opacity:1;stroke:#000;stroke-width:.9;stroke-linejoin:round;stroke-miterlimit:2;stroke-dasharray:none;stroke-dashoffset:0"/><path d="M-183.855 157.382c-7.025 8.174-20.556 10.834-31.253 11.782-20 1.77-42.698-.237-57.353-15.062-8.37-8.468-12.225-22.198-8.204-33.652.784-1.177 2.53-.43 3.512-1.455" style="opacity:1;fill:none;fill-opacity:1;stroke:#000;stroke-width:.9;stroke-linejoin:round;stroke-miterlimit:2;stroke-dasharray:none;stroke-dashoffset:0"/><path d="M-96.103 125.818c8.174.312 13.708 7.023 10 15.983-7.462 18.033-32.27 25.29-51.816 26.448-15.68.929-35.544.822-48.01-10.89a32.343 32.343 0 0 1-2.711-2.877" style="opacity:1;fill:none;fill-opacity:1;stroke:#000;stroke-width:.9;stroke-linejoin:round;stroke-miterlimit:2;stroke-dasharray:none;stroke-dashoffset:0"/><path d="M-104.557 42.415c-.714-.362-1.027-1.136.54-1.854 4.712-2.159 12.004-1.923 17.172-.23 20.947 6.861 34.841 28.714 34.136 55.76-.521 19.971-18.078 36.358-37.068 34.693-3.212-.281-8.53-2.037-5.977-5.179" style="fill:none;fill-opacity:1;stroke:#000;stroke-width:.9;stroke-linejoin:round;stroke-miterlimit:2;stroke-dasharray:none;stroke-dashoffset:0"/><path d="M-194.278 22.9c-.698-.211-.917-.998-.225-2.288 2.397-4.466 12.424-9.057 19.182-10.298 22.932-4.209 41.28-.079 56.99 10.993 5.936 4.184 12.091 11.504 13.813 17.587.716 2.531.945 4.022-.154 3.495" style="fill:none;fill-opacity:1;stroke:#000;stroke-width:.9;stroke-linejoin:round;stroke-miterlimit:2;stroke-dasharray:none;stroke-dashoffset:0"/><path d="M-278.812 58.358c-10.19-.644-15.08-13.042-12.012-23.194 5.879-19.46 27.681-30.665 47.828-33.095 14.074-1.698 31.64-.29 43.169 9.322 3.3 2.752 5.97 6.516 6.7 9.26.47 1.767-.166 2.771-1.264 2.21" style="fill:none;fill-opacity:1;stroke:#000;stroke-width:.9;stroke-linejoin:round;stroke-miterlimit:2;stroke-dasharray:none;stroke-dashoffset:0"/><g style="display:inline"><path d="M131.601-147.442v-28.284h-6.98v-21.02h18.91v21.02h-6.663v28.284" style="fill:#f1d8d8;fill-opacity:1;stroke:#000;stroke-width:1.3;stroke-linejoin:round;stroke-miterlimit:2;stroke-dasharray:none;stroke-dashoffset:0"/><path d="m175.58-165.141-.229.304c-3.008-1.713-4.646-4.931-4.646-8.168 0-3.522 1.657-6.264 4.703-8.073l.172.305c-2.647 2.266-3.237 4.036-3.237 7.711 0 3.542.571 5.693 3.237 7.92zM185.518-176.07l-.247.857h-1.542c.247.285.323.533.323.952 0 1.428-1.009 2.608-2.684 2.817-1.124.153-1.676.629-1.676 1.105 0 1.2 4.437.438 4.437 2.818 0 1.352-1.257 2.875-4.094 2.875-2.551 0-3.503-1.086-3.503-2.19 0-1.104 1.047-1.675 2.227-2.056-.323-.21-.457-.571-.457-.895 0-.724.705-1.657 1.619-1.657v-.076c-1.276-.285-1.79-1.18-1.79-2.075 0-1.504 1.295-3.008 3.313-3.008.8 0 1.39.247 1.675.533zm-2.97 1.218c0-.704-.19-1.18-1.028-1.18-1.028 0-1.866 1.352-1.866 2.646 0 .876.229 1.543 1.066 1.543 1.352 0 1.828-1.942 1.828-3.009zm.248 7.959c0-1.485-2.514-1.39-3.656-1.809-.152.095-.343.19-.495.305-.495.362-.914.857-.914 1.37 0 .896.838 1.848 2.647 1.848 1.732 0 2.418-.876 2.418-1.714zM195.667-173.005a2.56 2.56 0 0 1-2.57 2.57c-1.448 0-2.571-1.142-2.571-2.608 0-1.428 1.142-2.532 2.608-2.532 1.39 0 2.533 1.161 2.533 2.57zm-1.257 0c0-.742-.59-1.314-1.276-1.314-.8 0-1.351.572-1.351 1.276 0 .8.57 1.352 1.313 1.352s1.314-.571 1.314-1.314zM209.585-170.225l.267.21c-.553.647-1.486 2.018-2.533 2.018-.342 0-.78-.19-.78-.8 0-.228.019-.495 1.218-5.084.038-.133.133-.552.133-.837 0-.362-.133-.667-.457-.667-.685 0-1.942 1.619-2.55 2.533-.648.97-1.181 1.942-1.277 2.322l-.609 2.323h-1.485l2.894-11.424c.02-.076.038-.133.038-.19 0-.248-.19-.419-.59-.419-.19 0-.4.019-.552.038l-.038-.266 3.027-.457-2.075 7.92h.076c1.009-1.104 2.38-3.598 4.113-3.598.8 0 1.085.647 1.085 1.332 0 .42-.114.82-.21 1.219l-1.104 4.38c-.019.094-.038.132-.038.19 0 .114.057.266.247.266.42 0 .933-.666 1.2-1.009zM210.994-180.773l.228-.305c2.914 1.752 4.646 4.932 4.646 8.168 0 3.523-1.675 6.226-4.703 8.073l-.171-.304c2.704-2.228 3.237-4.018 3.237-7.711 0-3.561-.476-5.75-3.237-7.921z"/><g style="stroke-width:1.25441"><path d="m243.92-157.664-.257.162c-1.754-2.132-2.063-4.999-1.15-7.416.995-2.63 3.002-4.208 5.778-4.695l.042.276c-2.609.942-3.548 2.096-4.585 4.84-1 2.645-1.183 4.414.171 6.833zM254.399-163.009l-.427.57-1.147-.437c.104.283.09.49-.028.803-.403 1.066-1.487 1.661-2.792 1.343-.88-.205-1.424-.006-1.559.35-.338.895 3.177 1.584 2.505 3.361-.382 1.01-1.747 1.791-3.857.987-1.898-.723-2.3-1.803-1.988-2.628.312-.825 1.252-.954 2.238-.904-.182-.248-.179-.556-.088-.798.205-.54.992-1.037 1.672-.778l.022-.057c-.869-.575-.999-1.389-.746-2.057.425-1.123 1.813-1.88 3.314-1.308.595.227.964.58 1.096.873zm-2.554.068c.199-.526.192-.935-.432-1.172-.764-.292-1.77.48-2.135 1.447-.247.654-.265 1.216.358 1.454 1.005.383 1.908-.932 2.209-1.729zm-2.063 6.014c.42-1.11-1.477-1.75-2.209-2.387-.14.028-.308.045-.454.087-.47.13-.922.38-1.067.765-.253.668.102 1.616 1.447 2.129 1.29.491 2.046.031 2.283-.594zM261.082-157.843a2.034 2.034 0 0 1-2.638 1.19c-1.076-.41-1.59-1.581-1.175-2.676.403-1.066 1.565-1.567 2.655-1.151 1.034.394 1.556 1.585 1.158 2.637zm-.935-.356c.21-.555-.068-1.149-.578-1.343-.594-.227-1.167.043-1.365.57-.226.597.043 1.17.595 1.381a1.027 1.027 0 0 0 1.348-.608zM270.651-151.823l.14.232c-.594.327-1.675 1.086-2.454.79-.255-.098-.527-.364-.355-.819.064-.17.154-.364 2.341-3.45.066-.09.255-.375.336-.588.102-.27.09-.536-.152-.628-.51-.194-1.901.659-2.613 1.168-.755.542-1.426 1.116-1.604 1.373l-1.11 1.562-1.104-.42 5.378-7.711c.036-.052.066-.089.082-.132.07-.184-.023-.366-.32-.48a3.742 3.742 0 0 0-.422-.128l.047-.21 2.38.517-3.78 5.327.057.021c1.063-.538 2.787-2.012 4.076-1.521.595.226.624.79.43 1.303-.118.312-.315.579-.5.85l-2.057 2.957c-.041.066-.066.089-.082.132-.032.085-.033.215.109.269.311.119.882-.233 1.177-.414zM274.677-159.3l.256-.163c1.673 2.134 2.064 5 1.15 7.416-.995 2.63-3.004 4.175-5.778 4.696l-.041-.276c2.64-.897 3.542-2.083 4.585-4.841 1.005-2.659 1.27-4.429-.172-6.832z"/></g><path d="m115.56 32.962-3.768 9.967 17.604 6.708-2.736 7.238M157.996 49.13l-3.768 9.967-17.604-6.707-2.737 7.238" style="fill:none;stroke:#000;stroke-width:1;stroke-linejoin:round;stroke-miterlimit:2;stroke-dasharray:none" transform="translate(123.119 -200.576)"/><path d="m-33.271-99.016.506-.237c.862-.404.302-1.43.482-2.585.124-.844.438-1.71 1.478-2.198.684-.32 1.234-.177 1.458.304.178.385-.032.685-.306.813-.383.18-.55.073-.639-.12-.089-.192-.062-.455-.113-.565-.032-.07-.092-.091-.256-.014-.684.32-.873 1.312-.663 2.519l.187 1.083 1.095-.512.079.599-1.04.487.872 4.71c.077.417.21.99.24 1.595.08 1.352-.053 3.003-1.258 3.567-.656.308-1.138.132-1.33-.28-.153-.33-.12-.763.276-.95.37-.172.621.01.717.217.121.261-.091.377-.015.542.039.083.14.086.263.028.89-.417.291-2.78.133-3.66l-.993-5.256-1.054.493z"/><path d="m78.851 46.857 4.476 9.632 8.443-3.955 3.25 6.995M102.72 35.676l4.475 9.632-8.443 3.955 3.25 6.995" style="fill:none;stroke:#000;stroke-width:1;stroke-linejoin:round;stroke-miterlimit:2;stroke-dasharray:none" transform="translate(-122.67 -140.297)"/><path d="M-3.515-174.855h.704c1.2 0 1.104-1.467 1.923-2.685.59-.895 1.409-1.714 2.856-1.714.952 0 1.504.457 1.504 1.124 0 .533-.4.761-.78.761-.534 0-.667-.21-.667-.476s.172-.552.172-.704c0-.095-.058-.153-.286-.153-.952 0-1.695 1.029-2.094 2.514l-.362 1.333H.978l-.229.723H-.698l-1.504 5.826c-.133.514-.285 1.238-.57 1.942-.63 1.58-1.657 3.39-3.333 3.39-.914 0-1.37-.457-1.37-1.029 0-.457.266-.933.818-.933.514 0 .704.343.704.629 0 .361-.304.38-.304.609 0 .114.114.171.285.171 1.238 0 1.81-3.008 2.095-4.093l1.656-6.512h-1.466zM47.824-164.823l-.229.304c-3.008-1.713-4.646-4.931-4.646-8.168 0-3.522 1.657-6.264 4.703-8.073l.172.305c-2.647 2.265-3.237 4.036-3.237 7.71 0 3.542.571 5.694 3.237 7.922zM57.763-175.752l-.248.856h-1.542c.247.286.323.533.323.952 0 1.428-1.009 2.609-2.684 2.818-1.124.153-1.676.629-1.676 1.105 0 1.2 4.437.438 4.437 2.818 0 1.351-1.257 2.875-4.094 2.875-2.551 0-3.503-1.086-3.503-2.19 0-1.104 1.047-1.676 2.227-2.056-.323-.21-.457-.572-.457-.895 0-.724.705-1.657 1.619-1.657v-.076c-1.276-.285-1.79-1.18-1.79-2.075 0-1.504 1.295-3.009 3.313-3.009.8 0 1.39.248 1.675.534zm-2.97 1.218c0-.704-.191-1.18-1.029-1.18-1.028 0-1.866 1.351-1.866 2.646 0 .876.229 1.542 1.066 1.542 1.352 0 1.828-1.942 1.828-3.008zm.247 7.959c0-1.485-2.513-1.39-3.656-1.809-.152.095-.343.19-.495.305-.495.361-.914.856-.914 1.37 0 .895.838 1.847 2.647 1.847 1.732 0 2.418-.875 2.418-1.713zM67.91-172.687a2.56 2.56 0 0 1-2.57 2.57c-1.447 0-2.57-1.142-2.57-2.608 0-1.428 1.142-2.532 2.609-2.532 1.39 0 2.532 1.161 2.532 2.57zm-1.256 0c0-.743-.59-1.314-1.275-1.314-.8 0-1.352.571-1.352 1.276 0 .8.57 1.352 1.313 1.352s1.314-.571 1.314-1.314zM81.83-169.907l.266.21c-.553.647-1.485 2.018-2.533 2.018-.342 0-.78-.19-.78-.8 0-.229.019-.495 1.218-5.084.038-.133.134-.552.134-.838 0-.361-.134-.666-.457-.666-.686 0-1.943 1.618-2.552 2.532-.647.971-1.18 1.942-1.275 2.323l-.61 2.323h-1.485l2.894-11.424c.02-.076.038-.133.038-.19 0-.248-.19-.42-.59-.42-.19 0-.4.02-.552.039l-.038-.267 3.027-.457-2.075 7.921h.076c1.01-1.104 2.38-3.599 4.113-3.599.8 0 1.085.648 1.085 1.333 0 .42-.114.819-.21 1.219l-1.104 4.379c-.019.095-.038.133-.038.19 0 .115.057.267.248.267.418 0 .933-.666 1.2-1.01zM83.238-180.455l.229-.305c2.913 1.752 4.645 4.931 4.645 8.168 0 3.523-1.675 6.226-4.703 8.073l-.171-.304c2.704-2.228 3.237-4.018 3.237-7.712 0-3.56-.476-5.75-3.237-7.92z"/><path d="M37.247-174.133v13.347H60.91v9.693M94.292-174.133v13.347H70.627v9.693M-18.527-174.133v13.347H-6.78v9.693M14.683-174.133v13.347H2.935v9.693" style="fill:none;stroke:#000;stroke-width:1.3;stroke-linejoin:round;stroke-miterlimit:2;stroke-dasharray:none"/><g style="stroke-width:.857099" transform="matrix(.0222 0 0 -.02224 93.375 96.367)"><use xlink:href="#a" style="stroke-width:.857099"/><use xlink:href="#b" x="333" style="stroke-width:.857099"/><use xlink:href="#c" x="964" style="stroke-width:.857099"/><use xlink:href="#d" x="1536" style="stroke-width:.857099"/><use xlink:href="#e" x="1977" style="stroke-width:.857099"/><use xlink:href="#a" x="2310" style="stroke-width:.857099"/><use xlink:href="#f" x="2644" style="stroke-width:.857099"/><use xlink:href="#e" x="3194" style="stroke-width:.857099"/><use xlink:href="#g" x="3806" style="stroke-width:.857099"/><use xlink:href="#b" x="4769" style="stroke-width:.857099"/><use xlink:href="#a" x="5178" style="stroke-width:.857099"/><use xlink:href="#d" x="5511" style="stroke-width:.857099"/><use xlink:href="#a" x="5952" style="stroke-width:.857099"/><use xlink:href="#f" x="6285" style="stroke-width:.857099"/><use xlink:href="#e" x="6836" style="stroke-width:.857099"/><use xlink:href="#e" x="7169" style="stroke-width:.857099"/></g><path d="M114.363 66.55c1.322-.322 2.628-.704 3.944-1.053 1.134-.279 2.26-.592 3.405-.825-.235-.167.634.033.514-.093-.127-.132-.34-.142-.49-.247-.052-.037-.038-.19-.097-.166-.178.074-.283.26-.429.386-.227.196-.46.385-.69.577a88.884 88.884 0 0 1-6.143 4.562c-.795.596-1.676 1.073-2.434 1.718-.049.075-.159.136-.146.225.031.218.11.45.266.605.251.25 1.727-.197 1.999-.272 1.484-.402 2.91-.986 4.357-1.5.732-.269 1.46-.56 2.231-.696.268-.039.54-.052.81-.044-.104-.25-.16-.526-.313-.748-.033-.046-.101.052-.15.078-.125.066-.25.13-.371.2a34.72 34.72 0 0 0-1.654 1.026c-1.039.64-1.983 1.414-2.946 2.158-.342.325-.737.592-1.084.91-.045.106-.147.205-.136.32.078.792 1.095.579 1.617.532.89-.053 1.744-.306 2.601-.53.28-.08.556-.175.83-.273l-.3-.81a9 9 0 0 1-.748.26c-.807.22-1.613.464-2.454.505-.116.01-.232.022-.348.027-.097.005-.195.003-.292.002-.06 0-.128-.034-.178-.003-.028.017.05.045.06.076.125.356.122.26-.038.516.077-.102.224-.192.319-.272.229-.193.442-.403.672-.594.932-.744 1.85-1.509 2.87-2.132.641-.411 1.286-.809 1.968-1.148.091-.045.264-.035.273-.137.025-.286-.125-.56-.188-.84a6.377 6.377 0 0 0-.978.074c-.813.16-1.581.468-2.351.767-1.421.518-2.825 1.095-4.292 1.475-.412.106-.638.178-1.044.24-.102.015-.209.003-.31.028-.05.013.26.521.023.625.701-.657 1.558-1.12 2.306-1.716a149.754 149.754 0 0 0 6.202-4.588c.252-.199 1.649-1.147 1.564-1.61-.117-.638-.73-.366-1.055-.303-1.153.259-2.293.571-3.437.87-1.287.344-2.571.716-3.878.98l.143.859zM143.064 65.807c1.8-.356 3.612-.687 5.438-.882.17-.012.341-.032.512-.038.112-.004.225-.004.336.008.042.004.16.037.118.041-.359.037-.038-.516-.414-.25-1.248 1.041-2.587 1.974-3.916 2.907-1.465 1-2.976 1.928-4.463 2.892-.252.201-.562.331-.813.534-.055.045-.177.082-.153.15.318.895.313.75.964.707 1.443-.198 2.872-.478 4.317-.668a24.524 24.524 0 0 1 2.265-.178c.084.01.17-.012.255-.002.016.002-.036.017-.048.007-.111-.096-.24-.184-.309-.314-.037-.07.09-.212.016-.238-.084-.028-.134.117-.2.175-1.05.916-2.174 1.747-3.298 2.569-.618.468-.328.245-.872.667l.522.661c.52-.423.242-.2.837-.666 1.133-.844 2.27-1.684 3.364-2.579.188-.157.542-.381.501-.697-.065-.496-.475-.464-.803-.448-.783.039-1.563.127-2.341.226-1.422.202-2.833.477-4.26.638-.57.035-.322-.09-.249.71.001.006-.023-.003-.018-.008.053-.045.113-.082.17-.122l.253-.18.36-.249c1.47-1.001 2.985-1.935 4.457-2.935 1.378-.964 2.77-1.915 4.081-2.968.103-.121.265-.211.308-.364.314-1.095-.974-.878-1.576-.806-1.843.241-3.668.61-5.512.844l.17.856zM213.596 65.377c.892-.348 1.823-.555 2.765-.712.561-.077 1.128-.162 1.693-.085.11.019.219.042.325.074.015.005.057.022.044.015-.175-.092-.087-.014-.19-.122-.423.347.033-.306-.065-.29-.036.006-.051.052-.08.075-.061.05-.125.097-.189.144-.27.2-.542.397-.812.596a118.413 118.413 0 0 0-3.723 2.66 16.59 16.59 0 0 0-1.82 1.548c-.377.368-.335.923.324.942.006 0 .685-.16.693-.161 1.01-.223 2.003-.507 3.015-.716a8.673 8.673 0 0 1 1.193-.17c.14-.029.523.073.057-.065-.112-.09-.143-.173-.116-.317-.328.34-.68.653-1.034.964-.564.453-1.129.904-1.672 1.382-.4.294-.731.662-1.066 1.025-.197.243-.393.488-.54.765-.05.109-.067.206-.148.289.001.01-.008.006-.011.009l-.122.197.82.312c-.196.267-.08.107-.025.059.116-.14.21-.292.262-.466.104-.213.264-.39.404-.581.31-.344.617-.69.992-.967.538-.48 1.099-.932 1.663-1.38.411-.354.827-.707 1.194-1.109.195-.352.209-.59-.069-.881-.242-.096-.393-.14-.647-.107-.442.035-.879.12-1.312.213-1.01.223-2.004.512-3.02.712-.126.026-.254.05-.38.078-.05.011-.16-.008-.146.041.02.068.16.037.186.102.21.525-.045.68.114.445a14.2 14.2 0 0 1 1.708-1.506 71.843 71.843 0 0 1 3.71-2.64c.332-.232 1.398-.842 1.465-1.296.017-.116-.03-.232-.045-.348-.212-.287-.495-.343-.833-.383-.65-.073-1.297.006-1.94.111-.973.173-1.936.39-2.87.717l.248.827zM231.773 66.708c1.252-.166 2.515-.235 3.777-.288.254.014.512-.052.764-.003.022.004.083.03.063.02-.321-.17-.181.01-.3-.436-.904.749-1.97 1.277-2.995 1.836-1.502.787-3.027 1.53-4.54 2.296-.563.266-1.216.678-.355 1.278.121.084.996.114 1.091.12 1.459.003 2.92-.08 4.37-.241.36-.033.712-.121 1.074-.138.177-.008.217.009.216.008-.104-.227-.24-.438-.36-.657-.001-.016.01-.054-.005-.049-.256.084-.482.24-.725.357-.636.303-1.283.577-1.934.845-.99.406-2.024.686-3.015 1.085-.093.054-.636.22-.599.404.147.73.148.638.605.646.573-.071 1.144-.155 1.716-.232.391-.051.785-.084 1.179-.104l-.053-.867c-.415.029-.829.068-1.24.124-.563.077-1.124.158-1.689.211.958.48-.388.995.412.61.976-.427 2.008-.713 2.992-1.12.666-.271 1.33-.544 1.985-.84.253-.115.516-.21.759-.346.115-.065.22-.147.331-.22-.105-.24-.178-.498-.316-.72a2.718 2.718 0 0 0-.342.008c-.368.033-.725.122-1.091.166-1.395.18-2.807.262-4.213.235-.173-.014-.346-.026-.519-.041-.087-.008-.22-.106-.26-.029-.062.119.087.262.07.394-.008.067-.105.088-.14.145-.095.15.783-.885.444-.288 1.495-.808 3.019-1.558 4.53-2.336.77-.41 1.55-.807 2.293-1.267.214-.133.662-.42.862-.605.091-.083.162-.187.243-.28.007-.187.083-.384.019-.56-.174-.471-1.048-.241-1.372-.25-1.285.08-2.57.166-3.853.281l.12.848z" style="opacity:.8;fill:red;stroke:red;stroke-width:.3;stroke-linejoin:round;stroke-miterlimit:2;stroke-dasharray:none" transform="translate(-12.122 22.472)"/><path d="M132.641-189.796h.705c1.2 0 1.104-1.466 1.923-2.685.59-.894 1.409-1.713 2.856-1.713.952 0 1.504.457 1.504 1.123 0 .533-.4.762-.78.762-.534 0-.667-.21-.667-.476 0-.267.171-.552.171-.705 0-.095-.057-.152-.285-.152-.952 0-1.695 1.028-2.095 2.513l-.361 1.333h1.523l-.229.724h-1.447l-1.504 5.826c-.133.514-.286 1.237-.571 1.942-.628 1.58-1.657 3.389-3.332 3.389-.914 0-1.371-.457-1.371-1.028 0-.457.267-.933.819-.933.514 0 .704.343.704.628 0 .362-.304.381-.304.61 0 .114.114.17.285.17 1.238 0 1.809-3.007 2.095-4.093l1.656-6.511h-1.466z"/><g style="stroke-width:1.17647"><path d="m100.932-63.603-.194.26c-2.557-1.457-3.949-4.192-3.949-6.944 0-2.994 1.408-5.324 3.998-6.862l.145.26c-2.25 1.925-2.751 3.43-2.751 6.554 0 3.01.485 4.839 2.751 6.732zM109.38-72.892l-.21.728h-1.311c.21.243.275.453.275.81 0 1.213-.858 2.216-2.282 2.394-.955.13-1.424.534-1.424.939 0 1.02 3.77.372 3.77 2.395 0 1.15-1.067 2.444-3.479 2.444-2.168 0-2.978-.922-2.978-1.861s.89-1.424 1.894-1.748c-.275-.178-.388-.486-.388-.76 0-.616.598-1.409 1.375-1.409v-.064c-1.084-.243-1.521-1.004-1.521-1.764 0-1.279 1.1-2.558 2.816-2.558.68 0 1.181.21 1.424.454zm-2.524 1.035c0-.598-.162-1.003-.874-1.003-.874 0-1.586 1.149-1.586 2.25 0 .744.194 1.31.906 1.31 1.149 0 1.554-1.65 1.554-2.557zm.21 6.765c0-1.262-2.136-1.181-3.107-1.537-.13.08-.292.162-.421.259-.42.307-.777.728-.777 1.165 0 .76.712 1.57 2.25 1.57 1.472 0 2.055-.745 2.055-1.457zM118.006-70.287a2.176 2.176 0 0 1-2.184 2.185c-1.23 0-2.185-.971-2.185-2.217 0-1.214.97-2.153 2.217-2.153 1.181 0 2.152.988 2.152 2.185zm-1.068 0c0-.63-.501-1.116-1.084-1.116-.68 0-1.15.485-1.15 1.084 0 .68.486 1.149 1.118 1.149.63 0 1.116-.486 1.116-1.117zM129.837-67.924l.226.178c-.469.55-1.262 1.716-2.152 1.716-.291 0-.664-.162-.664-.68 0-.194.017-.42 1.036-4.321a3.27 3.27 0 0 0 .113-.712c0-.308-.113-.567-.388-.567-.583 0-1.65 1.376-2.169 2.153-.55.825-1.003 1.65-1.084 1.974l-.518 1.975h-1.262l2.46-9.71c.016-.066.032-.114.032-.163 0-.21-.162-.356-.502-.356-.161 0-.34.016-.469.033l-.032-.227 2.573-.388-1.764 6.732h.065c.857-.938 2.023-3.059 3.495-3.059.68 0 .923.55.923 1.133 0 .356-.097.696-.178 1.036l-.939 3.722c-.016.081-.032.114-.032.162 0 .097.048.227.21.227.356 0 .793-.567 1.02-.858zM131.034-76.89l.195-.259c2.476 1.49 3.949 4.192 3.949 6.943 0 2.994-1.425 5.292-3.998 6.862l-.146-.259c2.299-1.893 2.752-3.415 2.752-6.554 0-3.027-.405-4.888-2.752-6.733z"/></g><path d="M128.49-161.572c-3.207-.612-6.715-.229-9.945.038a43.975 43.975 0 0 0-10.844 2.626c-2.192.84-2.797 1.207-4.877 2.25-3.923 2.149-7.325 5.099-9.933 8.737-.527.734-.986 1.514-1.48 2.272-1.462 2.614-2.756 5.418-2.991 8.447-.086 1.1.024 1.54.167 2.567.252.914.088.527.43 1.185l.305-.165c-.321-.569-.16-.223-.41-1.067-.156-.985-.273-1.422-.203-2.48.197-2.995 1.475-5.767 2.911-8.352.487-.753.94-1.528 1.46-2.258 2.581-3.614 5.96-6.546 9.842-8.693 2.08-1.052 2.65-1.405 4.845-2.254a43.52 43.52 0 0 1 10.792-2.636c3.259-.265 6.632-.626 9.867.007l.064-.224z" style="opacity:.8;fill:#000;fill-opacity:1;stroke:#000;stroke-width:.3;stroke-linejoin:round;stroke-miterlimit:2;stroke-dasharray:none;stroke-dashoffset:0"/><path d="M247.32 605.326c-3.057-1.522-6.199-2.41-9.564-2.862-.822-.11-1.799-.087-2.628-.074-4.697.076-8.241 1.357-11.811 2.928-.921.405-1.817.868-2.702 1.346-3.75 2.025-7.078 4.835-9.567 8.317-.515.72-.975 1.477-1.437 2.231-1.756 2.867-3.086 5.974-4.198 9.141-.179.508-.099.282-.217.687l.338.095c.053-.193.106-.399.196-.672 1.036-3.171 2.343-6.27 4.075-9.127.454-.75.911-1.5 1.42-2.214 2.464-3.461 5.763-6.26 9.477-8.283.879-.479 1.768-.94 2.683-1.345 3.593-1.592 7.177-2.82 11.737-2.913.82-.017 1.733-.031 2.547.079 3.339.453 6.51 1.34 9.539 2.863l.113-.197z" style="fill:#000;fill-opacity:1;stroke:#000;stroke-width:.9;stroke-linejoin:round;stroke-miterlimit:2;stroke-dasharray:none;stroke-dashoffset:0"/><path d="M202.609 619.919c.687 2.654 1.222 5.343 1.765 8.03.216.974.357 1.964.584 2.935.025.106.09.614.39.517.182-.06.278-.262.417-.393 1.52-2.468 3.73-4.42 5.81-6.404l-.256-.27c-2.249 2.149-4.452 4.262-5.885 6.432-.016.117.05.466.018.353-.305-1.065-.47-2.165-.714-3.245-.564-2.68-1.097-5.367-1.846-8.003l-.283.047zM267.339 610.073c3.023-1.58 6.297-2.572 9.617-3.265 3.785-.79 7.901-1.422 11.69-.21.634.203 1.26.451 1.843.773 2.92 1.614 5.209 4.148 6.682 7.15.302.617.551 1.26.788 1.904 1.195 3.242 1.7 6.674 1.99 10.103.054.637.072 1.5.089 2.139.064.413.259.353.585.285-.194-.81-.186-1.655-.259-2.462-.312-3.463-.883-6.921-2.1-10.192a20.1 20.1 0 0 0-.814-1.938c-1.516-3.052-3.864-5.63-6.848-7.259-.6-.327-1.241-.58-1.893-.786-3.833-1.21-7.991-.577-11.815.232-3.337.705-6.621 1.73-9.655 3.326l.1.2z" style="fill:#000;fill-opacity:1;stroke:#000;stroke-width:.9;stroke-linejoin:round;stroke-miterlimit:2;stroke-dasharray:none;stroke-dashoffset:0"/><path d="M294.455 622.961c1.391 2.333 3.033 4.493 4.651 6.67.29.256 1.142 2.132 1.854 1.55.328-.267.527-1.272.605-1.552.99-3.262 2.007-6.53 3.374-9.656.124-.285.479-.887.479-.887l-.145-.526c-.282.252-.519.668-.759 1.236-1.335 3.158-2.332 6.448-3.372 9.712-.087.3-.178.598-.26.898-.078.283-.1.508-.141.501-.476-.074-1.022-1.267-1.33-1.505-1.629-2.165-3.268-4.323-4.664-6.65zM299.199 671.379c4.095-.062 8.23.215 12.296-.424a25.247 25.247 0 0 0 2.768-.589c3.285-.902 6.344-2.637 8.176-5.626.906-1.478 1.193-2.39 1.439-4.305.392-3.064-.683-5.989-2.306-8.572-.4-.47-.203-.293-.557-.567l-.225.274c.27.24.109.082.453.502 1.601 2.502 2.727 5.307 2.36 8.304-.19 1.541-.414 2.692-1.372 4.202-1.846 2.91-4.79 4.665-8.017 5.56-.901.25-1.82.442-2.743.588-4.06.644-8.183.34-12.272.41z" style="fill:#000;fill-opacity:1;stroke:#000;stroke-width:.9;stroke-linejoin:round;stroke-miterlimit:2;stroke-dasharray:none;stroke-dashoffset:0"/><path d="M319.29 659.722c.602-2.067.835-4.19.936-6.332.033-1.303.05-2.607 0-3.91.122-.041-.101.125-.07.182.072.13.235.182.355.268.218.156.44.305.659.458 1.271.88.666.469 2.1 1.415 1.96 1.288 3.831 2.705 5.69 4.133l.348.267.24-.308-.346-.273a113.278 113.278 0 0 0-5.724-4.133c-1.55-1.03-.721-.464-2.084-1.422-.215-.151-.432-.3-.645-.453-.137-.098-.246-.246-.404-.302-.466-.165-.429-.072-.505.188.085 1.29.09 2.584.065 3.876-.081 2.132-.29 4.243-.886 6.3l.271.046zM247.372 672.084a40.816 40.816 0 0 1-9.59-1.39c-.939-.256-1.85-.609-2.775-.913-2.217-.932-4.489-1.88-5.93-3.92-.831-1.178-1.308-2.621-1.489-4.04-.091-.72-.028-1.452-.043-2.179.207-2.516 1.056-4.885 2.172-7.127l-.314-.155c-1.18 2.542-1.929 5.035-2.13 7.288.018.746-.044 1.497.053 2.236.192 1.459.694 2.953 1.558 4.16 1.48 2.065 3.797 3.01 6.057 3.942.934.296 1.855.638 2.802.889 3.123.827 6.397 1.34 9.629 1.355v-.146z" style="fill:#000;fill-opacity:1;stroke:#000;stroke-width:.9;stroke-linejoin:round;stroke-miterlimit:2;stroke-dasharray:none;stroke-dashoffset:0"/><path d="M222.304 658.998c1.707-1.506 3.44-2.977 5.094-4.541.834-.851 1.643-1.733 2.352-2.692.102-.022-.112.017-.121.061-.014.066.065.117.096.176.067.124.14.245.2.373.277.603.345.88.571 1.557.563 2.069.96 4.176 1.444 6.263l-.07.43.723-.175-.257-.345c-.464-2.105-.914-4.213-1.477-6.294-.083-.246-.744-2.819-1.42-2.263-.637.982-1.46 1.83-2.265 2.674-1.66 1.582-3.415 3.053-5.11 4.596l.24.18z" style="fill:#000;fill-opacity:1;stroke:#000;stroke-width:.9;stroke-linejoin:round;stroke-miterlimit:2;stroke-dasharray:none;stroke-dashoffset:0"/><path d="M230.14-189.188c-.355-2.753-.461-5.552-1.1-8.269-.9-4.42-2.752-8.86-6.315-11.79-2.514-2.286-5.93-3.322-9.286-3.252-4.18.095-8.308 1.058-12.271 2.338a31.718 31.718 0 0 0-4.412 1.894" style="fill:none;fill-opacity:1;stroke:#000;stroke-width:.9;stroke-linejoin:round;stroke-miterlimit:2;stroke-dasharray:none;stroke-dashoffset:0"/><path d="M359.408-168.901h.599c1.02 0 .939-1.246 1.635-2.282.501-.76 1.197-1.457 2.427-1.457.81 0 1.279.389 1.279.955 0 .453-.34.648-.664.648-.453 0-.566-.178-.566-.405 0-.226.145-.47.145-.599 0-.08-.048-.13-.242-.13-.81 0-1.44.875-1.78 2.137l-.308 1.133h1.295l-.195.615h-1.23l-1.278 4.952c-.113.437-.243 1.052-.486 1.651-.534 1.343-1.408 2.88-2.832 2.88-.777 0-1.165-.388-1.165-.873 0-.389.227-.793.696-.793.437 0 .599.291.599.534 0 .307-.26.324-.26.518 0 .097.098.145.243.145 1.052 0 1.538-2.557 1.78-3.48l1.409-5.534h-1.246z"/><path d="M348.89-166.36c-5.357-1.123-11.095-1.437-15.495-.95-5.004.554-10.182 1.467-14.374 4.29-4.07 2.74-7.322 6.628-9.174 10.964-1.077 2.52-1.7 4.786-2.295 8.534" style="fill:none;fill-opacity:1;stroke:#000;stroke-width:.9;stroke-linejoin:round;stroke-miterlimit:2;stroke-dasharray:none;stroke-dashoffset:0"/><path d="M304.182-151.767c.687 2.655 1.222 5.344 1.765 8.03.216.974.357 1.965.584 2.936.025.106.09.614.39.516.182-.059.278-.262.417-.393 1.52-2.467 3.73-4.42 5.81-6.403l-.256-.27c-2.249 2.149-4.452 4.262-5.885 6.432-.016.116.05.466.018.352-.305-1.065-.47-2.164-.714-3.245-.564-2.679-1.097-5.367-1.846-8.002l-.283.047z" style="fill:#000;fill-opacity:1;stroke:#000;stroke-width:.9;stroke-linejoin:round;stroke-miterlimit:2;stroke-dasharray:none;stroke-dashoffset:0"/><path d="M402.037-142.098c-.197-2.992-.353-6.573-.941-9.301-.951-4.41-1.599-6.73-4.727-10.123-2.26-2.451-5.775-4.061-10.796-4.204-5.647-.161-12.252.669-16.364.974" style="fill:none;fill-opacity:1;stroke:#000;stroke-width:.9;stroke-linejoin:round;stroke-miterlimit:2;stroke-dasharray:none;stroke-dashoffset:0"/><path d="M396.028-148.724c1.391 2.333 3.033 4.492 4.651 6.669.29.256 1.142 2.133 1.854 1.551.328-.267.527-1.273.605-1.552.99-3.263 2.007-6.53 3.374-9.656.125-.286.479-.888.479-.888l-.145-.525c-.282.252-.519.668-.759 1.235-1.335 3.159-2.332 6.448-3.372 9.713-.087.3-.178.597-.26.898-.078.283-.1.507-.14.5-.477-.074-1.023-1.267-1.33-1.504-1.63-2.166-3.269-4.323-4.665-6.65z" style="fill:#000;fill-opacity:1;stroke:#000;stroke-width:.9;stroke-linejoin:round;stroke-miterlimit:2;stroke-dasharray:none;stroke-dashoffset:0"/><g style="stroke-width:1.17647"><path d="m218.236 600.892-.195.259c-2.557-1.457-3.948-4.192-3.948-6.943 0-2.994 1.408-5.325 3.997-6.862l.146.259c-2.25 1.925-2.752 3.43-2.752 6.554 0 3.01.486 4.84 2.752 6.733zM226.684 591.602l-.21.728h-1.312c.21.243.275.453.275.81 0 1.213-.857 2.217-2.281 2.395-.955.13-1.425.534-1.425.938 0 1.02 3.771.373 3.771 2.396 0 1.149-1.068 2.443-3.48 2.443-2.168 0-2.977-.922-2.977-1.86 0-.94.89-1.425 1.893-1.749-.275-.178-.388-.485-.388-.76 0-.615.599-1.408 1.376-1.408v-.065c-1.085-.243-1.522-1.003-1.522-1.764 0-1.279 1.1-2.557 2.816-2.557.68 0 1.182.21 1.424.453zm-2.525 1.036c0-.6-.162-1.004-.874-1.004-.874 0-1.586 1.15-1.586 2.25 0 .744.194 1.31.906 1.31 1.15 0 1.554-1.65 1.554-2.556zm.21 6.765c0-1.263-2.136-1.182-3.107-1.538-.13.081-.291.162-.42.26-.422.307-.778.727-.778 1.164 0 .761.712 1.57 2.25 1.57 1.473 0 2.055-.744 2.055-1.456zM235.31 594.208a2.176 2.176 0 0 1-2.185 2.184c-1.23 0-2.185-.97-2.185-2.217 0-1.214.971-2.152 2.217-2.152 1.182 0 2.153.987 2.153 2.185zm-1.068 0c0-.632-.502-1.117-1.085-1.117-.68 0-1.149.485-1.149 1.084 0 .68.486 1.15 1.117 1.15s1.117-.486 1.117-1.117zM247.14 596.57l.227.178c-.47.55-1.263 1.716-2.153 1.716-.291 0-.663-.162-.663-.68 0-.194.016-.42 1.036-4.32a3.27 3.27 0 0 0 .113-.713c0-.307-.113-.566-.389-.566-.582 0-1.65 1.375-2.168 2.152-.55.825-1.004 1.65-1.085 1.975l-.517 1.974h-1.263l2.46-9.71c.016-.065.033-.114.033-.162 0-.21-.162-.356-.502-.356-.162 0-.34.016-.47.032l-.032-.227 2.573-.388-1.764 6.733h.065c.858-.94 2.023-3.06 3.496-3.06.68 0 .922.551.922 1.134 0 .356-.097.696-.178 1.035l-.938 3.723c-.017.08-.033.113-.033.162 0 .097.049.226.21.226.357 0 .794-.566 1.02-.858zM248.338 587.605l.194-.26c2.476 1.49 3.949 4.192 3.949 6.944 0 2.994-1.424 5.292-3.997 6.862l-.146-.26c2.298-1.893 2.751-3.414 2.751-6.554 0-3.026-.404-4.887-2.751-6.732z"/></g><path d="M279.191 574.517c1.083 1.183 1.769 2.695 2.311 4.193.879 2.585.74 5.521-.404 7.999-1.682 3.324-4.989 5.554-8.53 6.492-4.877 1.34-10 1.14-15.004.996a181.41 181.41 0 0 1-1.633-.073" style="fill:none;fill-opacity:1;stroke:#000;stroke-width:.9;stroke-linejoin:round;stroke-miterlimit:2;stroke-dasharray:none;stroke-dashoffset:0"/><path d="m287.949 579.398-.346-.272a113.278 113.278 0 0 0-5.725-4.133c-1.548-1.03-.72-.464-2.083-1.423-.215-.15-.432-.299-.645-.452-.137-.098-.246-.246-.404-.303-.466-.165-.429-.07-.505.189.085 1.29.09 2.584.065 3.876-.081 2.132-.29 4.242-.886 6.3M187.606 575.506c-1.18 2.542-1.93 5.036-2.131 7.288.018.746-.044 1.497.053 2.237.193 1.458.694 2.952 1.559 4.159 1.48 2.065 3.774 3.122 6.056 3.998.915.352 3.5.913 4.471 1.038 4.478.577 8.502.682 11.926.572" style="fill:none;fill-opacity:1;stroke:#000;stroke-width:.9;stroke-linejoin:round;stroke-miterlimit:2;stroke-dasharray:none;stroke-dashoffset:0"/><path d="M180.506 582.144c1.707-1.506 3.44-2.976 5.094-4.541.834-.851 1.643-1.733 2.352-2.692.102-.022-.112.017-.121.061-.014.066.065.117.097.176.066.124.14.245.199.373.277.603.345.88.571 1.558.563 2.068.96 4.175 1.444 6.262l-.07.43.723-.175-.257-.345c-.463-2.105-.914-4.213-1.477-6.294-.082-.246-.744-2.818-1.42-2.263-.637.982-1.46 1.83-2.264 2.674-1.661 1.582-3.416 3.053-5.111 4.596l.24.18z" style="fill:#000;fill-opacity:1;stroke:#000;stroke-width:.9;stroke-linejoin:round;stroke-miterlimit:2;stroke-dasharray:none;stroke-dashoffset:0"/><g style="stroke-width:1.17647"><path d="m190.37-63.603-.194.26c-2.557-1.457-3.949-4.192-3.949-6.944 0-2.994 1.408-5.324 3.998-6.862l.145.26c-2.25 1.925-2.75 3.43-2.75 6.554 0 3.01.485 4.839 2.75 6.732zM198.818-72.892l-.21.728h-1.31c.21.243.274.453.274.81 0 1.213-.857 2.216-2.282 2.394-.954.13-1.424.534-1.424.939 0 1.02 3.771.372 3.771 2.395 0 1.15-1.068 2.444-3.48 2.444-2.168 0-2.977-.922-2.977-1.861s.89-1.424 1.893-1.748c-.275-.178-.388-.486-.388-.76 0-.616.599-1.409 1.375-1.409v-.064c-1.084-.243-1.52-1.004-1.52-1.764 0-1.279 1.1-2.558 2.815-2.558.68 0 1.182.21 1.424.454zm-2.524 1.035c0-.598-.162-1.003-.874-1.003-.874 0-1.586 1.149-1.586 2.25 0 .744.194 1.31.906 1.31 1.15 0 1.554-1.65 1.554-2.557zm.21 6.765c0-1.262-2.136-1.181-3.107-1.537-.13.08-.291.162-.42.259-.422.307-.778.728-.778 1.165 0 .76.712 1.57 2.25 1.57 1.473 0 2.055-.745 2.055-1.457zM207.445-70.287a2.176 2.176 0 0 1-2.185 2.185c-1.23 0-2.185-.971-2.185-2.217 0-1.214.97-2.153 2.217-2.153 1.182 0 2.153.988 2.153 2.185zm-1.069 0c0-.63-.501-1.116-1.084-1.116-.68 0-1.149.485-1.149 1.084 0 .68.486 1.149 1.117 1.149.63 0 1.116-.486 1.116-1.117zM219.275-67.924l.227.178c-.47.55-1.263 1.716-2.153 1.716-.291 0-.663-.162-.663-.68 0-.194.016-.42 1.035-4.321a3.27 3.27 0 0 0 .114-.712c0-.308-.114-.567-.389-.567-.582 0-1.65 1.376-2.168 2.153-.55.825-1.004 1.65-1.085 1.974l-.518 1.975h-1.262l2.46-9.71c.016-.066.032-.114.032-.163 0-.21-.161-.356-.501-.356-.162 0-.34.016-.47.033l-.032-.227 2.573-.388-1.764 6.732h.065c.858-.938 2.023-3.059 3.496-3.059.68 0 .922.55.922 1.133 0 .356-.097.696-.178 1.036l-.939 3.722c-.016.081-.032.114-.032.162 0 .097.049.227.21.227.357 0 .793-.567 1.02-.858zM220.473-76.89l.194-.259c2.476 1.49 3.949 4.192 3.949 6.943 0 2.994-1.424 5.292-3.998 6.862l-.145-.259c2.298-1.893 2.751-3.415 2.751-6.554 0-3.027-.405-4.888-2.751-6.733z"/></g><path d="M131.422 102.023c-.07.74-.493 1.461-.303 2.21.203.8.244 1.637.19 2.469-.036.826-.095 1.598-.071 2.419.054.748.338 1.48.139 2.253-.178.797-.053 1.649-.259 2.445-.007.897-.16 1.827.11 2.689.199.777.127 1.597.066 2.392-.023.378-.335.543-.1.065a8.257 8.257 0 0 0 .05-1.975c-.123-.678-.359-1.358-.232-2.063-.049-.78.124-1.529.173-2.292-.053-.791.264-1.544.17-2.327-.196-.788-.209-1.603-.18-2.42.08-1.213.192-2.463-.117-3.646-.249-.733.264-1.327.24-2.047l.047-.103.077-.068zM219.766 102.024c.096.647.306 1.27.376 1.906-.124.683-.291 1.353-.29 2.062.058.78-.028 1.573.145 2.336-.184.594.107 1.281-.18 1.842-.128.681-.056 1.387.086 2.047.012.683.025 1.367.167 2.032.02.702.067 1.411.036 2.115-.151.712-.35 1.435-.259 2.185.001.388 0 1.435.264 1.371-.278-.586-.147-1.27-.209-1.917.012-.842.423-1.627.279-2.482-.033-.661.03-1.35-.159-1.977-.034-.697-.016-1.393-.166-2.073-.154-.682.083-1.286.16-1.94-.008-.775.033-1.521-.06-2.281-.03-.785-.08-1.572.066-2.341.092-.627.335-1.249-.002-1.847-.168-.28 0-.907-.254-1.038zM104.71 68.661c.069.57.493 1.124.303 1.7-.203.617-.244 1.26-.191 1.9.036.636.096 1.23.072 1.861-.054.576-.338 1.139-.139 1.734.177.613.053 1.268.259 1.881.007.69.16 1.405-.11 2.069-.199.598-.127 1.229-.066 1.84.023.29.335.418.1.05a4.903 4.903 0 0 1-.05-1.52c.123-.52.359-1.044.232-1.586.049-.6-.124-1.177-.173-1.764.053-.609-.264-1.188-.17-1.79.196-.607.209-1.234.18-1.863-.081-.933-.192-1.894.117-2.805.248-.564-.264-1.02-.24-1.575l-.047-.08-.077-.052z" style="fill:#000;fill-opacity:1;stroke:#000;stroke-width:.900002;stroke-linejoin:round;stroke-miterlimit:2;stroke-dasharray:none;stroke-dashoffset:0"/><path d="M128.397 105.487c.262-.413.553-.806.836-1.204.313-.445.656-.866.98-1.302.192-.252.376-.51.545-.778a3.38 3.38 0 0 1 .262-.349c.051-.073.105.02.144.065.315.382.608.78.904 1.177.372.475.695.985 1.038 1.48.26.377.491.772.728 1.164.102.166.204.333.309.497l.01.017.002-.001-.01-.017a30.512 30.512 0 0 1-.31-.497c-.236-.392-.468-.786-.727-1.164-.343-.495-.666-1.005-1.038-1.48-.296-.396-.59-.795-.904-1.177-.04-.046-.095-.14-.147-.065a3.403 3.403 0 0 0-.262.35c-.168.268-.353.525-.544.777-.324.436-.668.858-.98 1.302-.284.398-.575.792-.836 1.205zM101.83 78.195c.218.31.441.615.67.916.377.477.768.943 1.138 1.426.297.372.564.765.838 1.154.148.231.336.43.516.636a.28.28 0 0 1 .08.145c.012.055.096-.104.102-.114.302-.46.675-.868 1.048-1.272.456-.48.885-.985 1.297-1.503.209-.272.409-.55.622-.82.028-.031.05-.067.08-.097v-.002c-.03.03-.053.067-.082.098-.212.27-.412.548-.621.82-.412.518-.84 1.023-1.297 1.503-.372.404-.746.812-1.049 1.272-.006.009-.087.163-.097.115a.28.28 0 0 0-.081-.147c-.18-.206-.368-.404-.517-.635-.273-.389-.54-.782-.838-1.154-.37-.483-.76-.949-1.137-1.426-.23-.301-.453-.606-.67-.916l-.001.001zM204.155 82.535c.155-1.035.253-2.074.211-3.117.008-2.815-.016-5.632.012-8.447.207-.625.01-1.25-.012-1.877-.015-.592.032-1.196-.022-1.78-.117-.276.114.463.02.631.007.701-.043 1.408.106 2.1-.008.66-.164 1.31-.105 1.971-.012 2.976.024 5.952-.019 8.927-.033.532-.148 1.063-.191 1.592zM216.835 106.38c.472-.393.91-.825 1.336-1.267.33-.359.616-.757.903-1.15.202-.271.354-.573.513-.869.109-.223.224-.442.313-.674.051-.111.092-.226.155-.331.009-.03.08-.096.047-.116-.026-.01-.05-.013-.076.002-.09.143.037.35.09.483.218.496.434.993.676 1.478.231.503.52.973.817 1.438.204.334.427.653.694.939a6.252 6.252 0 0 1 .276.256l.002-.002-.01-.01a6.489 6.489 0 0 0-.267-.246 5.797 5.797 0 0 1-.693-.938c-.298-.465-.586-.936-.817-1.438-.243-.485-.459-.982-.675-1.478-.054-.132-.18-.338-.092-.481.025-.015.049-.012.075-.002.03.016-.04.088-.048.114-.063.105-.104.22-.155.331-.089.232-.204.451-.313.674-.16.296-.31.598-.513.868-.287.394-.572.792-.903 1.15-.426.443-.864.875-1.336 1.268h.001z" style="fill:#000;fill-opacity:1;stroke:#000;stroke-width:.9;stroke-linejoin:round;stroke-miterlimit:2;stroke-dasharray:none;stroke-dashoffset:0"/><path d="M201.56 79.294c.224.35.442.704.66 1.056.276.478.644.889 1.005 1.302.25.302.5.608.695.95.098.173.193.349.277.53l.039.09c.077-.041.136-.105.196-.168.283-.3.524-.636.766-.968.312-.409.604-.832.895-1.256.212-.314.435-.62.646-.935.133-.227.259-.458.391-.686.057-.09.118-.18.186-.263.005-.008.011-.013.018-.019l-.003-.002a2.76 2.76 0 0 0-.202.284c-.133.227-.259.459-.392.686-.21.315-.434.62-.646.934-.29.424-.582.847-.894 1.256-.243.332-.484.668-.766.968a.961.961 0 0 1-.194.169 1.2 1.2 0 0 0-.039-.09 7.815 7.815 0 0 0-.277-.531c-.195-.342-.445-.648-.695-.95-.36-.413-.73-.824-1.005-1.301-.219-.353-.436-.707-.66-1.057z" style="fill:#000;fill-opacity:1;stroke:#000;stroke-width:.9;stroke-linejoin:round;stroke-miterlimit:2;stroke-dasharray:none;stroke-dashoffset:0"/><path d="M105.413 53.384h.634c1.08 0 .994-1.32 1.73-2.416.532-.806 1.269-1.543 2.571-1.543.857 0 1.354.412 1.354 1.011 0 .48-.36.686-.703.686-.48 0-.6-.189-.6-.429s.155-.496.155-.634c0-.085-.051-.137-.257-.137-.857 0-1.525.926-1.885 2.262l-.326 1.2h1.371l-.205.651h-1.303l-1.353 5.244c-.12.462-.258 1.113-.515 1.748-.565 1.422-1.49 3.05-2.998 3.05-.823 0-1.234-.412-1.234-.926 0-.41.24-.84.737-.84.462 0 .634.31.634.566 0 .326-.274.343-.274.549 0 .102.102.154.257.154 1.113 0 1.628-2.708 1.885-3.684l1.49-5.861h-1.32zM152.759-151.448h.599c1.02 0 .938-1.246 1.634-2.282.502-.76 1.198-1.457 2.428-1.457.81 0 1.278.389 1.278.955 0 .453-.34.648-.663.648-.453 0-.567-.178-.567-.405 0-.227.146-.47.146-.599 0-.08-.048-.13-.243-.13-.809 0-1.44.875-1.78 2.137l-.307 1.133h1.294l-.194.615h-1.23l-1.278 4.952c-.114.437-.243 1.052-.486 1.651-.534 1.343-1.408 2.88-2.832 2.88-.777 0-1.165-.388-1.165-.873 0-.389.226-.793.696-.793.437 0 .598.291.598.534 0 .307-.259.324-.259.518 0 .097.098.145.243.145 1.052 0 1.538-2.557 1.78-3.48l1.408-5.534h-1.246zM231.072-144.786h.599c1.02 0 .939-1.246 1.635-2.282.501-.76 1.197-1.456 2.427-1.456.81 0 1.279.388 1.279.954 0 .454-.34.648-.664.648-.453 0-.566-.178-.566-.405 0-.226.145-.47.145-.599 0-.08-.048-.13-.242-.13-.81 0-1.44.875-1.78 2.137l-.308 1.133h1.295l-.195.615h-1.23l-1.278 4.952c-.113.437-.243 1.052-.486 1.651-.534 1.343-1.408 2.88-2.832 2.88-.777 0-1.165-.388-1.165-.873 0-.388.226-.793.696-.793.437 0 .599.291.599.534 0 .307-.26.324-.26.518 0 .097.098.146.243.146 1.052 0 1.538-2.558 1.78-3.48l1.409-5.535h-1.247zM203.84 53.384h.634c1.08 0 .994-1.32 1.73-2.416.532-.806 1.269-1.543 2.571-1.543.857 0 1.354.412 1.354 1.011 0 .48-.36.686-.703.686-.48 0-.6-.189-.6-.429s.155-.496.155-.634c0-.085-.051-.137-.257-.137-.857 0-1.525.926-1.885 2.262l-.326 1.2h1.371l-.205.651h-1.303l-1.353 5.244c-.12.462-.258 1.113-.515 1.748-.565 1.422-1.49 3.05-2.998 3.05-.823 0-1.234-.412-1.234-.926 0-.41.24-.84.737-.84.462 0 .634.31.634.566 0 .326-.274.343-.274.549 0 .102.102.154.257.154 1.113 0 1.627-2.708 1.885-3.684l1.49-5.861h-1.32z"/><g style="stroke-width:1.11111"><path d="m116.574 134.18-.206.274c-2.707-1.542-4.18-4.438-4.18-7.351 0-3.17 1.49-5.638 4.232-7.266l.154.274c-2.382 2.04-2.913 3.633-2.913 6.94 0 3.187.514 5.124 2.913 7.129zM125.519 124.344l-.223.77h-1.388c.223.258.291.48.291.858 0 1.285-.908 2.347-2.416 2.536-1.01.137-1.508.565-1.508.994 0 1.08 3.993.394 3.993 2.536 0 1.216-1.131 2.587-3.684 2.587-2.297 0-3.153-.977-3.153-1.97 0-.994.942-1.508 2.005-1.851-.292-.189-.412-.514-.412-.805 0-.652.634-1.491 1.457-1.491v-.069c-1.148-.257-1.61-1.062-1.61-1.868 0-1.353 1.164-2.707 2.98-2.707.72 0 1.252.223 1.509.48zm-2.673 1.096c0-.634-.172-1.062-.926-1.062-.925 0-1.679 1.217-1.679 2.382 0 .788.206 1.388.96 1.388 1.216 0 1.645-1.748 1.645-2.708zm.222 7.163c0-1.336-2.262-1.25-3.29-1.628-.137.086-.308.172-.445.274-.446.326-.823.772-.823 1.234 0 .806.754 1.662 2.382 1.662 1.56 0 2.176-.788 2.176-1.542zM134.652 127.103a2.304 2.304 0 0 1-2.313 2.313c-1.302 0-2.313-1.028-2.313-2.348 0-1.285 1.028-2.279 2.347-2.279 1.251 0 2.28 1.045 2.28 2.314zm-1.13 0c0-.669-.532-1.183-1.149-1.183-.72 0-1.216.514-1.216 1.148 0 .72.514 1.217 1.182 1.217.668 0 1.182-.514 1.182-1.182zM147.179 129.604l.24.189c-.497.583-1.337 1.816-2.28 1.816-.308 0-.702-.171-.702-.72 0-.205.017-.445 1.097-4.575.034-.12.12-.497.12-.754 0-.325-.12-.6-.412-.6-.616 0-1.747 1.457-2.296 2.28-.582.874-1.062 1.748-1.148 2.09l-.548 2.09h-1.337l2.605-10.28c.017-.07.034-.12.034-.172 0-.223-.171-.377-.531-.377-.172 0-.36.017-.497.034l-.034-.24 2.724-.411-1.868 7.129h.069c.908-.994 2.142-3.24 3.701-3.24.72 0 .977.583.977 1.2 0 .377-.103.737-.188 1.097l-.994 3.941c-.017.086-.035.12-.035.172 0 .103.052.24.223.24.377 0 .84-.6 1.08-.909zM148.447 120.111l.205-.274c2.622 1.576 4.182 4.438 4.182 7.351 0 3.17-1.508 5.604-4.233 7.266l-.154-.274c2.433-2.005 2.913-3.616 2.913-6.94 0-3.205-.428-5.175-2.913-7.129z"/></g><g style="stroke-width:1.11111"><path d="m204.214 134.18-.205.274c-2.708-1.542-4.181-4.438-4.181-7.351 0-3.17 1.49-5.638 4.232-7.266l.154.274c-2.382 2.04-2.913 3.633-2.913 6.94 0 3.187.514 5.124 2.913 7.129zM213.16 124.344l-.223.77h-1.388c.222.258.29.48.29.858 0 1.285-.907 2.347-2.415 2.536-1.011.137-1.508.565-1.508.994 0 1.08 3.992.394 3.992 2.536 0 1.216-1.13 2.587-3.684 2.587-2.296 0-3.153-.977-3.153-1.97 0-.994.943-1.508 2.005-1.851-.291-.189-.411-.514-.411-.805 0-.652.634-1.491 1.456-1.491v-.069c-1.148-.257-1.61-1.062-1.61-1.868 0-1.353 1.165-2.707 2.981-2.707.72 0 1.251.223 1.508.48zm-2.674 1.096c0-.634-.171-1.062-.925-1.062-.926 0-1.68 1.217-1.68 2.382 0 .788.206 1.388.96 1.388 1.217 0 1.645-1.748 1.645-2.708zm.223 7.163c0-1.336-2.262-1.25-3.29-1.628-.137.086-.309.172-.446.274-.445.326-.822.772-.822 1.234 0 .806.754 1.662 2.382 1.662 1.559 0 2.176-.788 2.176-1.542zM222.293 127.103a2.304 2.304 0 0 1-2.314 2.313c-1.302 0-2.313-1.028-2.313-2.348 0-1.285 1.028-2.279 2.348-2.279 1.25 0 2.279 1.045 2.279 2.314zm-1.131 0c0-.669-.531-1.183-1.148-1.183-.72 0-1.217.514-1.217 1.148 0 .72.514 1.217 1.182 1.217.669 0 1.183-.514 1.183-1.182zM234.82 129.604l.24.189c-.498.583-1.337 1.816-2.28 1.816-.308 0-.703-.171-.703-.72 0-.205.018-.445 1.097-4.575.034-.12.12-.497.12-.754 0-.325-.12-.6-.411-.6-.617 0-1.748 1.457-2.296 2.28-.583.874-1.063 1.748-1.148 2.09l-.549 2.09h-1.336l2.604-10.28c.017-.07.035-.12.035-.172 0-.223-.172-.377-.532-.377-.171 0-.36.017-.497.034l-.034-.24 2.725-.411-1.868 7.129h.068c.909-.994 2.142-3.24 3.702-3.24.72 0 .977.583.977 1.2 0 .377-.103.737-.189 1.097l-.994 3.941c-.017.086-.034.12-.034.172 0 .103.051.24.223.24.377 0 .84-.6 1.08-.909zM236.087 120.111l.206-.274c2.622 1.576 4.181 4.438 4.181 7.351 0 3.17-1.508 5.604-4.232 7.266l-.155-.274c2.434-2.005 2.913-3.616 2.913-6.94 0-3.205-.428-5.175-2.913-7.129z"/></g></g></svg>