<svg xmlns="http://www.w3.org/2000/svg" id="svg1119" width="800" height="360" preserveAspectRatio="none" version="1.1" viewBox="-75.2 -68.829 800 360"><style id="style996" type="text/css">.arrows,.axes{stroke:#000;stroke-width:.9}.arrows{stroke-width:1.1;fill:none;stroke-linecap:round;stroke-linejoin:round}.graph{stroke:red;stroke-width:1.7;fill:none}</style><defs id="defs1005"><path id="STIXWEBMAINI-78" stroke-width="1" d="m243 355 12-57c70 107 107 143 151 143 24 0 41-15 41-37 0-21-14-36-34-36-19 0-28 17-52 17-18 0-54-44-98-121 0-7 2-21 8-45l32-134c7-28 16-41 30-41 13 0 24 10 47 40 9 12 13 18 21 28l15-9C358 13 332-11 294-11c-32 0-47 18-59 68l-29 119-88-119C74-2 54-11 23-11S-27 5-27 31c0 20 14 36 34 36 9 0 19-4 32-11 10-6 20-9 26-9 11 0 30 19 51 49l82 116-28 124c-14 60-21 68-46 68-8 0-20-2-39-7l-18-5-3 16 11 4c61 22 94 29 117 29 25 0 37-18 51-86z"/><path id="STIXWEBMAIN-32" stroke-width="1" d="M474 137 420 0H29v12l178 189c94 99 130 175 130 260 0 91-54 141-139 141-72 0-107-32-147-130l-21 5c21 117 85 199 208 199 113 0 185-77 185-176 0-79-39-154-128-248L130 76h234c42 0 63 11 96 67z"/><path id="STIXWEBMAIN-2212" stroke-width="1" d="M621 220H64v66h557z"/><path id="STIXWEBMAIN-31" stroke-width="1" d="M394 0H118v15c74 4 95 25 95 80v449c0 34-9 49-30 49-10 0-27-5-45-12l-27-10v14l179 91 9-3V76c0-43 20-61 95-61z"/><path id="STIXWEBMAIN-30" stroke-width="1" d="M476 330c0-172-63-344-226-344C79-14 24 172 24 336c0 177 69 340 230 340 131 0 222-141 222-346Zm-96-5c0 208-44 325-132 325-83 0-128-118-128-321S164 12 250 12c85 0 130 115 130 313z"/><path id="STIXWEBMAIN-2E" stroke-width="1" d="M181 43c0-29-26-54-56-54-31 0-55 24-55 55s25 56 56 56c29 0 55-27 55-57z"/><path id="STIXWEBMAIN-35" stroke-width="1" d="m438 681-36-85c-3-7-11-13-27-13H181l-40-85c143-27 193-49 250-128 26-36 35-74 35-127 0-96-30-158-98-208-47-34-102-49-170-49C83-14 31 10 31 48c0 25 17 38 45 38 23 0 42-5 74-31 28-23 51-32 71-32 70 0 135 83 135 169 0 64-22 114-67 150-47 38-117 70-213 70-9 0-12 2-12 8 0 2 1 5 1 5l109 237h207c23 0 32 5 48 26z"/></defs><g id="layer1"><g id="text146923" aria-label="STEP 3" style="font-size:32px;font-family:Palatino;-inkscape-font-specification:Palatino;opacity:1;fill:#f6ffd5;stroke-width:1.3;stroke-linejoin:round;stroke-miterlimit:2"><path id="path146925" d="m-229.324 244.66 1.408.544q1.088.384 2.112.928 1.024.512 1.792 1.248.8.704 1.28 1.696.48.96.48 2.24 0 1.568-.704 2.72-.672 1.152-1.792 1.92-1.088.736-2.464 1.088-1.376.384-2.752.384-1.568 0-3.04-.352t-2.624-.928q-.512-.288-.512-.96l.096-2.976q.064-.8.832-.8h.704q.704 0 .864.736l.416 2.304q.064.448.416.736.384.256.864.416.512.128 1.024.16.544.032.896.032 2.08 0 3.264-.896 1.184-.928 1.184-2.624 0-.768-.32-1.312-.288-.544-.8-.928-.48-.416-1.12-.672-.608-.288-1.248-.512l-1.344-.48q-2.592-1.024-4.096-2.528-1.472-1.504-1.472-3.808 0-1.504.608-2.592.64-1.12 1.632-1.856 1.024-.736 2.304-1.088 1.312-.352 2.656-.352 1.44 0 2.656.352 1.216.352 2.24.928.576.32.512.992l-.16 2.72q-.032.768-.8.768h-.704q-.704 0-.864-.736l-.416-2.24q-.096-.64-.672-.832-.864-.32-1.856-.32-.768 0-1.472.224-.704.192-1.248.608-.544.384-.864 1.024-.32.608-.32 1.472 0 1.408.864 2.176.864.736 2.56 1.376z" style="font-family:&quot;Song Myung&quot;;-inkscape-font-specification:&quot;Song Myung&quot;;fill:#000"/><path id="path146927" d="M-205.228 238.996q-.096-.736-.864-.736h-3.648l-.064 1.92V252.916q.032.768.032 1.568.064.8.768.832l1.44.16q.768.096.768.768 0 .704-.8.704h-8.128q-.8 0-.8-.704t.768-.768l1.44-.16q.736-.096.768-.832v-1.536q.032-.8.032-1.568v-9.152q0-1.024-.032-1.984 0-.992-.032-1.984h-3.648q-.768 0-.864.736l-.384 2.496q-.096.736-.864.736h-.512q-.8 0-.768-.8l.128-4q.064-.8.832-.8h16q.768 0 .832.8l.128 4q.032.8-.768.8h-.512q-.768 0-.864-.736z" style="font-family:&quot;Song Myung&quot;;-inkscape-font-specification:&quot;Song Myung&quot;;fill:#000"/><path id="path146929" d="M-186.668 252.276q.16-.736.864-.736h.448q.864 0 .8.832l-.16 3.808q-.032.768-.8.768h-14.592q-.8 0-.8-.704t.768-.768l1.152-.128q.736-.096.768-.832v-1.536q.032-.8.032-1.6v-9.152q0-.8-.032-1.568v-1.6q-.064-.736-.768-.832l-1.152-.128q-.768-.096-.768-.768 0-.704.8-.704h13.984q.768 0 .8.768l.16 3.808q.064.832-.8.832h-.448q-.736 0-.864-.704l-.448-2.368q-.128-.704-.864-.704h-5.824l-.064 1.856v5.6h3.52q.736 0 .832-.736l.192-1.344q.096-.736.832-.736.8 0 .8.8v5.568q0 .8-.768.8t-.864-.736l-.16-1.312q-.096-.736-.864-.736h-3.52v6.144l.064 1.92h6.464q.704 0 .864-.736z" style="font-family:&quot;Song Myung&quot;;-inkscape-font-specification:&quot;Song Myung&quot;;fill:#000"/><path id="path146931" d="M-175.276 249.012h-.736v4.288q.032.576.032 1.216.032.704.768.8l1.312.128q.768.096.768.8 0 .704-.8.704h-7.712q-.8 0-.8-.704t.768-.768l1.152-.128q.736-.096.768-.832v-1.536q.032-.8.032-1.6v-9.152q0-.8-.032-1.568v-1.6q-.064-.736-.768-.832l-1.152-.128q-.768-.096-.768-.768 0-.704.8-.704h7.488q1.504 0 2.976.288 1.472.256 2.624.96 1.184.672 1.888 1.856.736 1.152.736 2.944 0 1.952-.864 3.2-.864 1.216-2.24 1.92-1.344.704-3.008.96-1.632.256-3.232.256zm.704-10.816h-1.376l-.064 1.952v7.296h1.216q2.752 0 4-1.312 1.248-1.312 1.248-3.392 0-2.208-1.216-3.36-1.184-1.184-3.808-1.184z" style="font-family:&quot;Song Myung&quot;;-inkscape-font-specification:&quot;Song Myung&quot;;fill:#000"/><path id="path146933" d="M-151.596 238.292q-.608.032-.736.736l-.256 1.216q-.256 1.12-.704 1.568-.416.448-1.152.448-1.12 0-1.696-1.088.096-1.152.64-1.984.544-.832 1.344-1.344.832-.544 1.824-.8 1.024-.256 2.048-.256 1.12 0 2.24.288 1.12.256 1.984.864.864.576 1.408 1.504.544.928.544 2.208 0 1.792-1.12 3.04-1.088 1.216-3.04 1.856 4.864.864 4.864 5.056 0 1.536-.64 2.624-.608 1.088-1.632 1.792t-2.336 1.024q-1.312.352-2.656.352-1.152 0-2.208-.256-1.056-.256-1.92-.8-.832-.576-1.376-1.44-.544-.896-.64-2.144.288-.64.704-.864.416-.256.96-.256.768 0 1.216.48.48.48.768 1.824l.224 1.184q.16.736.8.768.192.032.384.032h.352q2.208 0 3.296-1.12 1.12-1.152 1.12-3.296 0-1.888-1.056-3.008t-3.264-1.12h-.704q-.8 0-.8-.8t.8-.8h.448q4.032 0 4.032-3.904 0-1.728-.896-2.656-.896-.96-2.56-.96h-.32q-.128 0-.288.032z" style="font-family:&quot;Song Myung&quot;;-inkscape-font-specification:&quot;Song Myung&quot;;fill:#000"/></g><path id="path72986" fill="#fed341" stroke="#000" stroke-width=".317" d="M-137.492 414.234v39.397h13.52l-25.237 23.564-25.236-23.564h13.52v-39.397z" style="display:inline;fill:#ffd5d5;fill-opacity:1;stroke-width:1.3;stroke-dasharray:none"/><path id="path63059" d="M-37.812-337.485c100.73 162.645 201.462 162.645 302.193 0" class="graph" style="display:inline;stroke:#0ff;stroke-width:.700001;stroke-dasharray:none"/><g id="text146919" aria-label="STEP 2" style="font-size:32px;font-family:Palatino;-inkscape-font-specification:Palatino;opacity:1;fill:#f6ffd5;stroke-width:1.3;stroke-linejoin:round;stroke-miterlimit:2"><path id="path146947" d="m-236.971 328.781 1.408.544q1.088.384 2.112.928 1.024.512 1.792 1.248.8.704 1.28 1.696.48.96.48 2.24 0 1.568-.704 2.72-.672 1.152-1.792 1.92-1.088.736-2.464 1.088-1.376.384-2.752.384-1.568 0-3.04-.352t-2.624-.928q-.512-.288-.512-.96l.096-2.976q.064-.8.832-.8h.704q.704 0 .864.736l.416 2.304q.064.448.416.736.384.256.864.416.512.128 1.024.16.544.032.896.032 2.08 0 3.264-.896 1.184-.928 1.184-2.624 0-.768-.32-1.312-.288-.544-.8-.928-.48-.416-1.12-.672-.608-.288-1.248-.512l-1.344-.48q-2.592-1.024-4.096-2.528-1.472-1.504-1.472-3.808 0-1.504.608-2.592.64-1.12 1.632-1.856 1.024-.736 2.304-1.088 1.312-.352 2.656-.352 1.44 0 2.656.352 1.216.352 2.24.928.576.32.512.992l-.16 2.72q-.032.768-.8.768h-.704q-.704 0-.864-.736l-.416-2.24q-.096-.64-.672-.832-.864-.32-1.856-.32-.768 0-1.472.224-.704.192-1.248.608-.544.384-.864 1.024-.32.608-.32 1.472 0 1.408.864 2.176.864.736 2.56 1.376z" style="font-family:&quot;Song Myung&quot;;-inkscape-font-specification:&quot;Song Myung&quot;;fill:#000"/><path id="path146949" d="M-212.875 323.117q-.096-.736-.864-.736h-3.648l-.064 1.92V337.037q.032.768.032 1.568.064.8.768.832l1.44.16q.768.096.768.768 0 .704-.8.704h-8.128q-.8 0-.8-.704t.768-.768l1.44-.16q.736-.096.768-.832v-1.536q.032-.8.032-1.568v-9.152q0-1.024-.032-1.984 0-.992-.032-1.984h-3.648q-.768 0-.864.736l-.384 2.496q-.096.736-.864.736h-.512q-.8 0-.768-.8l.128-4q.064-.8.832-.8h16q.768 0 .832.8l.128 4q.032.8-.768.8h-.512q-.768 0-.864-.736z" style="font-family:&quot;Song Myung&quot;;-inkscape-font-specification:&quot;Song Myung&quot;;fill:#000"/><path id="path146951" d="M-194.315 336.397q.16-.736.864-.736h.448q.864 0 .8.832l-.16 3.808q-.032.768-.8.768h-14.592q-.8 0-.8-.704t.768-.768l1.152-.128q.736-.096.768-.832v-1.536q.032-.8.032-1.6v-9.152q0-.8-.032-1.568v-1.6q-.064-.736-.768-.832l-1.152-.128q-.768-.096-.768-.768 0-.704.8-.704h13.984q.768 0 .8.768l.16 3.808q.064.832-.8.832h-.448q-.736 0-.864-.704l-.448-2.368q-.128-.704-.864-.704h-5.824l-.064 1.856v5.6h3.52q.736 0 .832-.736l.192-1.344q.096-.736.832-.736.8 0 .8.8v5.568q0 .8-.768.8t-.864-.736l-.16-1.312q-.096-.736-.864-.736h-3.52v6.144l.064 1.92h6.464q.704 0 .864-.736z" style="font-family:&quot;Song Myung&quot;;-inkscape-font-specification:&quot;Song Myung&quot;;fill:#000"/><path id="path146953" d="M-182.923 333.133h-.736v4.288q.032.576.032 1.216.032.704.768.8l1.312.128q.768.096.768.8 0 .704-.8.704h-7.712q-.8 0-.8-.704t.768-.768l1.152-.128q.736-.096.768-.832v-1.536q.032-.8.032-1.6v-9.152q0-.8-.032-1.568v-1.6q-.064-.736-.768-.832l-1.152-.128q-.768-.096-.768-.768 0-.704.8-.704h7.488q1.504 0 2.976.288 1.472.256 2.624.96 1.184.672 1.888 1.856.736 1.152.736 2.944 0 1.952-.864 3.2-.864 1.216-2.24 1.92-1.344.704-3.008.96-1.632.256-3.232.256zm.704-10.816h-1.376l-.064 1.952v7.296h1.216q2.752 0 4-1.312 1.248-1.312 1.248-3.392 0-2.208-1.216-3.36-1.184-1.184-3.808-1.184z" style="font-family:&quot;Song Myung&quot;;-inkscape-font-specification:&quot;Song Myung&quot;;fill:#000"/><path id="path146955" d="M-161.1 337.933h9.088q.8 0 .8.8v1.536q0 .8-.8.8h-11.296q-.8 0-.8-.8v-.896q0-.608.384-.992l4.064-4.192q2.112-2.208 3.136-4.032 1.056-1.824 1.056-3.744 0-1.888-.96-2.944-.928-1.088-2.624-1.088-.256 0-.416.032-.672.064-.832.736l-.352 1.408q-.288 1.376-.768 1.856-.48.48-1.152.48-1.216 0-1.728-1.088.064-1.312.64-2.24.608-.928 1.504-1.504.896-.608 2.016-.864 1.152-.288 2.304-.288 1.248 0 2.304.288 1.088.288 1.888.928.8.608 1.248 1.568.448.96.448 2.304 0 1.184-.384 2.176-.352.992-1.12 2.016-.768 1.024-1.952 2.24-1.184 1.184-2.816 2.752z" style="font-family:&quot;Song Myung&quot;;-inkscape-font-specification:&quot;Song Myung&quot;;fill:#000"/></g></g><g id="layer3" style="display:inline"><g id="g214584" transform="translate(0 -740.265)"><path id="path164583" fill="#fed341" stroke="#000" stroke-width=".317" d="M4.339 847.475h86.994l15.073 16.144-15.078 16.144H4.338z" style="display:inline;fill:#ffd5d5;fill-opacity:1;stroke-width:1.3;stroke-dasharray:none"/><g id="g164575" aria-label="STEP 2" style="font-size:32px;font-family:Palatino;-inkscape-font-specification:Palatino;opacity:1;fill:#f6ffd5;stroke-width:1.69201;stroke-linejoin:round;stroke-miterlimit:2" transform="matrix(.8 0 0 .7379 208.085 619.443)"><path id="path164565" d="m-236.971 328.781 1.408.544q1.088.384 2.112.928 1.024.512 1.792 1.248.8.704 1.28 1.696.48.96.48 2.24 0 1.568-.704 2.72-.672 1.152-1.792 1.92-1.088.736-2.464 1.088-1.376.384-2.752.384-1.568 0-3.04-.352t-2.624-.928q-.512-.288-.512-.96l.096-2.976q.064-.8.832-.8h.704q.704 0 .864.736l.416 2.304q.064.448.416.736.384.256.864.416.512.128 1.024.16.544.032.896.032 2.08 0 3.264-.896 1.184-.928 1.184-2.624 0-.768-.32-1.312-.288-.544-.8-.928-.48-.416-1.12-.672-.608-.288-1.248-.512l-1.344-.48q-2.592-1.024-4.096-2.528-1.472-1.504-1.472-3.808 0-1.504.608-2.592.64-1.12 1.632-1.856 1.024-.736 2.304-1.088 1.312-.352 2.656-.352 1.44 0 2.656.352 1.216.352 2.24.928.576.32.512.992l-.16 2.72q-.032.768-.8.768h-.704q-.704 0-.864-.736l-.416-2.24q-.096-.64-.672-.832-.864-.32-1.856-.32-.768 0-1.472.224-.704.192-1.248.608-.544.384-.864 1.024-.32.608-.32 1.472 0 1.408.864 2.176.864.736 2.56 1.376z" style="font-family:&quot;Song Myung&quot;;-inkscape-font-specification:&quot;Song Myung&quot;;fill:#000;stroke-width:1.69201"/><path id="path164567" d="M-212.875 323.117q-.096-.736-.864-.736h-3.648l-.064 1.92V337.037q.032.768.032 1.568.064.8.768.832l1.44.16q.768.096.768.768 0 .704-.8.704h-8.128q-.8 0-.8-.704t.768-.768l1.44-.16q.736-.096.768-.832v-1.536q.032-.8.032-1.568v-9.152q0-1.024-.032-1.984 0-.992-.032-1.984h-3.648q-.768 0-.864.736l-.384 2.496q-.096.736-.864.736h-.512q-.8 0-.768-.8l.128-4q.064-.8.832-.8h16q.768 0 .832.8l.128 4q.032.8-.768.8h-.512q-.768 0-.864-.736z" style="font-family:&quot;Song Myung&quot;;-inkscape-font-specification:&quot;Song Myung&quot;;fill:#000;stroke-width:1.69201"/><path id="path164569" d="M-194.315 336.397q.16-.736.864-.736h.448q.864 0 .8.832l-.16 3.808q-.032.768-.8.768h-14.592q-.8 0-.8-.704t.768-.768l1.152-.128q.736-.096.768-.832v-1.536q.032-.8.032-1.6v-9.152q0-.8-.032-1.568v-1.6q-.064-.736-.768-.832l-1.152-.128q-.768-.096-.768-.768 0-.704.8-.704h13.984q.768 0 .8.768l.16 3.808q.064.832-.8.832h-.448q-.736 0-.864-.704l-.448-2.368q-.128-.704-.864-.704h-5.824l-.064 1.856v5.6h3.52q.736 0 .832-.736l.192-1.344q.096-.736.832-.736.8 0 .8.8v5.568q0 .8-.768.8t-.864-.736l-.16-1.312q-.096-.736-.864-.736h-3.52v6.144l.064 1.92h6.464q.704 0 .864-.736z" style="font-family:&quot;Song Myung&quot;;-inkscape-font-specification:&quot;Song Myung&quot;;fill:#000;stroke-width:1.69201"/><path id="path164571" d="M-182.923 333.133h-.736v4.288q.032.576.032 1.216.032.704.768.8l1.312.128q.768.096.768.8 0 .704-.8.704h-7.712q-.8 0-.8-.704t.768-.768l1.152-.128q.736-.096.768-.832v-1.536q.032-.8.032-1.6v-9.152q0-.8-.032-1.568v-1.6q-.064-.736-.768-.832l-1.152-.128q-.768-.096-.768-.768 0-.704.8-.704h7.488q1.504 0 2.976.288 1.472.256 2.624.96 1.184.672 1.888 1.856.736 1.152.736 2.944 0 1.952-.864 3.2-.864 1.216-2.24 1.92-1.344.704-3.008.96-1.632.256-3.232.256zm.704-10.816h-1.376l-.064 1.952v7.296h1.216q2.752 0 4-1.312 1.248-1.312 1.248-3.392 0-2.208-1.216-3.36-1.184-1.184-3.808-1.184z" style="font-family:&quot;Song Myung&quot;;-inkscape-font-specification:&quot;Song Myung&quot;;fill:#000;stroke-width:1.69201"/><path id="path164573" d="M-161.1 337.933h9.088q.8 0 .8.8v1.536q0 .8-.8.8h-11.296q-.8 0-.8-.8v-.896q0-.608.384-.992l4.064-4.192q2.112-2.208 3.136-4.032 1.056-1.824 1.056-3.744 0-1.888-.96-2.944-.928-1.088-2.624-1.088-.256 0-.416.032-.672.064-.832.736l-.352 1.408q-.288 1.376-.768 1.856-.48.48-1.152.48-1.216 0-1.728-1.088.064-1.312.64-2.24.608-.928 1.504-1.504.896-.608 2.016-.864 1.152-.288 2.304-.288 1.248 0 2.304.288 1.088.288 1.888.928.8.608 1.248 1.568.448.96.448 2.304 0 1.184-.384 2.176-.352.992-1.12 2.016-.768 1.024-1.952 2.24-1.184 1.184-2.816 2.752z" style="font-family:&quot;Song Myung&quot;;-inkscape-font-specification:&quot;Song Myung&quot;;fill:#000;stroke-width:1.69201"/></g><path id="path165296" d="M308.922 945.591c1.32-.018 2.618.126 3.817.056 1.35-.078 2.477.022 3.826.06.958.028 1.917.012 2.875-.008.754-.016 1.508-.102 2.262-.058.977.059 1.955.028 2.932.023a66.478 66.478 0 0 0 2.141-.052c.104-.004.219.019.312-.013l.091-.747c-.107.006-.32.008-.412.012-.71.027-1.315.052-2.024.057-.972.007-1.944.048-2.915-.02-.763-.052-1.525.035-2.288.052-.952.022-1.903.04-2.854.014-1.358-.037-2.495-.146-3.853-.067-1.199.07-2.617-.104-3.817-.056.006.297-.062.498-.093.747z" style="opacity:1;fill:#000;stroke:#000;stroke-width:.6;stroke-linejoin:round;stroke-miterlimit:2;stroke-dasharray:none;stroke-opacity:1"/><path id="path165298" d="M146.478 864.003c8.144.071 16.286.014 24.43-.137 11.734-.216 23.468.185 35.203.187 13.506.002 27.01.447 40.516.478l43.032.096c14.716.043 29.285-.307 44.147-.188 15.358.124 30.862.074 46.071.106 12.992.027 25.979-.399 38.967-.234 11.21.142 22.416.356 33.623.123 9.34-.195 18.679-.083 28.019-.135 1.995-.011 36.89.185 40.048-.02l.108-.742-12.312.136s-25.742-.128-27.738-.117c-9.341.052-18.683-.061-28.024.133-11.204.234-22.406.022-33.612-.12-12.988-.165-25.974.151-38.964.235-15.654.101-30.72.016-46.081-.109-14.714-.12-29.428.23-44.143.19l-43.032-.097c-13.505-.03-27.01-.476-40.516-.478-11.737-.002-23.474-.404-35.21-.188-8.142.15-16.281.208-24.423.139l-.109.742z" style="display:inline;opacity:1;fill:#000;stroke:#000;stroke-width:.600001;stroke-linejoin:round;stroke-miterlimit:2;stroke-dasharray:none;stroke-opacity:1"/><g id="g204834" transform="translate(1.53)"><path id="path165300" d="M509.86 857.587c4.358 1.655 7.75 2.83 11.519 3.816 3.585.938 5.838 1.477 9.445 2.33.114.035.226.132.343.106.073-.016-.158-.072-.17-.145-.021-.15.2-.352.083-.447-.142-.114-.361.05-.542.076-1.288.187-.702.096-2.323.41-4.49.952-9.194 3.23-12.94 5.703l.076.752c4.027-2.663 7.475-4.7 12.836-5.7.474-.094.947-.197 1.424-.282.285-.052.574-.09.861-.13.555-.077.901.01 1.237-.64.127-.246-.594-.402-.6-.404-3.608-.86-5.875-1.365-9.455-2.334-3.994-1.08-7.21-2.09-11.479-3.798l-.315.687z" style="display:inline;opacity:1;fill:#000;stroke:#000;stroke-width:.6;stroke-linejoin:round;stroke-miterlimit:2;stroke-dasharray:none;stroke-opacity:1"/><g id="g204828"><path id="path165302" d="M543.99 869.366c2.918-2.901 5.778-5.958 8.597-8.955.697-.74 1.395-1.48 2.095-2.217l-.655-.378c-.7.739-1.399 1.478-2.096 2.22-2.818 2.996-5.681 6.047-8.595 8.951z" style="display:inline;fill:#000;stroke:#000;stroke-width:.6;stroke-linejoin:round;stroke-miterlimit:2;stroke-dasharray:none;stroke-opacity:1"/><path id="path165304" d="M543.512 858.362c1.445 1.478 3.158 3.079 4.658 4.504 1.923 1.81 2.682 2.494 4.447 4.461.505.6 1.16 1.182 1.559 1.781l.019.055-.001.01-.013-.04.75-.099s-.036-.176-.077-.259c-.487-.888-1.105-1.291-1.658-1.933-1.775-1.981-2.543-2.679-4.48-4.499-1.483-1.41-3.175-2.997-4.612-4.452l-.592.47z" style="display:inline;fill:#000;stroke:#000;stroke-width:.6;stroke-linejoin:round;stroke-miterlimit:2;stroke-dasharray:none;stroke-opacity:1"/></g></g><path id="path165306" d="M318.882 1022.64c-.272-7.247-.288-14.179-.21-21.277.18-16.376-.009-32.753-.186-49.127a3878.126 3878.126 0 0 1-.167-64.374c.132-22.753.13-45.505-.197-68.254-.38-24.479.288-48.96-.19-73.437-.167-8.62.203-17.244.032-25.864l-.75.098s-.2 17.244-.032 25.865c.478 24.475-.191 48.955.189 73.432.327 22.745.327 45.492.196 68.24a3870.24 3870.24 0 0 0 .168 64.39c.178 16.366.365 32.734.184 49.1a482.178 482.178 0 0 0 .212 21.305l.751-.098z" style="opacity:1;fill:#000;stroke:#000;stroke-width:.6;stroke-linejoin:round;stroke-miterlimit:2;stroke-dasharray:none;stroke-opacity:1"/><path id="path165308" d="M309.228 732.66c2-2.429 3.786-5.043 5.012-7.814 1.17-2.645 2.127-4.958 3.05-8.328.334-1.225.6-2.476.731-3.742.032-.27.096-.626-.684.198-.024.025.974 3.21.977 3.22 1.198 3.56 1.892 5.62 2.619 7.631.643 1.779 1.262 3.303 2.054 5.335l.708-.265c-.865-2.125-1.39-3.576-2.06-5.35-1.004-2.658-1.708-4.882-2.61-7.607-.484-1.464-.334-1.026-.696-2.28-.03-.106-.252-.907-.273-.915-.78-.314-.756-.277-.79.038-.14 1.23-.412 2.441-.726 3.636-.851 3.238-1.806 5.684-3.028 8.222-1.359 2.825-2.643 4.92-4.899 7.644.257.083.474.484.615.378z" style="opacity:1;fill:#000;stroke:#000;stroke-width:.6;stroke-linejoin:round;stroke-miterlimit:2;stroke-dasharray:none;stroke-opacity:1"/><path id="path165310" d="M314.315 682.128c-1.319 2.185-1.821 4.064-1.845 6.236-.017 1.56.55 3.208 2.14 3.859.883.361 1.388.372 2.306.22 2.98-.494 4.27-2.337 5.429-4.719.288-.592.63-1.184.812-1.823.066-.234.085-.59.05-.59-.281-.007-.545.14-.818.21-.34 2.126-.068 4.27.303 6.367.45 2.546 1.077 4.364.827 6.815-.037.37-.149.728-.223 1.091-.172.32-.3.667-.516.957-.975 1.306-2.637 2.047-4.221 2.185-.411.036-.824-.044-1.237-.066-.982-.207-1.69-.733-2.402-1.395l-.543.526s1.638 1.364 2.768 1.604c.467.029.933.121 1.399.087 1.905-.14 3.865-1.106 4.96-2.723.233-.346.364-.751.546-1.127.074-.402.185-.798.222-1.205.224-2.487-.525-4.712-.842-6.91-.29-2.013-.622-4.053-.295-6.084-.226-.077-.443-.182-.676-.232-.03-.006.008.06.005.089-.01.083-.022.167-.047.247-.19.603-.5 1.167-.785 1.727-.941 1.848-2.14 3.756-4.603 4.222-.751.142-1.238.167-1.974-.085-1.413-.482-1.825-1.968-1.83-3.285-.008-1.976.478-3.61 1.8-5.94l-.71-.258z" style="opacity:1;fill:#000;stroke:#000;stroke-width:.6;stroke-linejoin:round;stroke-miterlimit:2;stroke-dasharray:none;stroke-opacity:1"/><g id="g165316" transform="translate(155.253 832.94)"><path id="path165312" d="M137.332-58.26c-.568 1.203-1.1 2.432-1.529 3.693-.124.365-.228.735-.342 1.103-.285 1.023-.534 2.067-.591 3.133-.027.499-.015 1.131.137 1.62.068.218.197.413.295.62.156.153.287.337.468.458.962.645 2.462.324 3.463-.04.346-.127.672-.3 1.009-.45.38-.241.779-.457 1.141-.725 1.14-.84 2.088-2.035 2.757-3.276.133-.247.238-.509.357-.763.216-.52.378-1.06.487-1.61.045-.232.081-.453.058-.686-.252 0-.521-.09-.757.002-.097.037-.034.205-.045.308-.014.13-.02.262-.027.393-.04.759-.017 1.506.017 2.266.125 2.344.675 4.636.948 6.961.054.46.083.922.124 1.383.016 1.503 0 2.88-1.33 3.852-.572.419-1.296.57-1.952.775a8.339 8.339 0 0 1-3.571-.014c-.302-.067-.593-.175-.89-.263l-.312.688c.32.097.636.217.962.292a9.083 9.083 0 0 0 3.851.052c1.189-.351 1.551-.338 2.564-1.146 1.371-1.094 1.463-2.753 1.423-4.363-.043-.471-.074-.944-.13-1.414-.273-2.305-.815-4.578-.938-6.901-.035-.82-.052-.879-.035-1.646.004-.183.014-.365.024-.548.007-.117.017-.235.028-.352.003-.034.044-.092.012-.1-.23-.064-.473-.06-.71-.091.016.108-.05.401-.067.485-.105.506-.26 1-.463 1.476-.112.233-.211.474-.336.7a9.719 9.719 0 0 1-3.315 3.52c-.307.146-.605.314-.921.44a6.006 6.006 0 0 1-1.751.416c-.407.035-.77.043-1.136-.15-.126-.068-.222-.18-.333-.27-.078-.153-.182-.294-.234-.457-.138-.434-.142-1.006-.116-1.446.06-1.025.305-2.029.582-3.014.112-.356.215-.715.336-1.069.43-1.251.964-2.467 1.523-3.665l-.735-.178z" style="opacity:1;fill:#000;stroke:#000;stroke-width:.6;stroke-linejoin:round;stroke-miterlimit:2;stroke-dasharray:none;stroke-opacity:1"/><path id="path165314" d="M149.694-50.004c-.9-.04-1.709.56-2.376 1.093-.558.521-1.135 1.235-1.012 2.059.02.133.079.257.118.385.075.111.134.235.224.334.552.604 1.406.593 2.153.551.753-.095 1.461-.364 2.055-.842.087-.07.156-.16.234-.241.32-.42.528-.932.468-1.47-.011-.106-.044-.21-.067-.314-.287-.797-.837-1.063-1.614-1.25-.365-.074-.734-.056-1.102-.04l-.107.749c.314-.022.63-.052.943-.002.474.08.98.25 1.152.746.102.438-.016.844-.315 1.182-.062.057-.126.112-.185.171-.015.015-.019.04-.036.052-.4.27-.855.429-1.328.51-.512.046-1.204.141-1.63-.233-.054-.047-.091-.111-.137-.167-.024-.064-.062-.125-.074-.193-.105-.623.457-1.154.861-1.53.467-.353.935-.7 1.515-.84l.26-.71z" style="opacity:1;fill:#000;stroke:#000;stroke-width:.6;stroke-linejoin:round;stroke-miterlimit:2;stroke-dasharray:none;stroke-opacity:1"/></g><path id="path165318" d="M309.103 782.462c1.027-.002 2.054-.053 3.08-.08a88.46 88.46 0 0 0 4.309-.187 68.517 68.517 0 0 1 3.493-.13 68.404 68.404 0 0 0 3.123-.121c.825-.062 1.65-.108 2.477-.14.272 0 .541-.033.8-.115l.05-.017-.162-.738c0 .003.002.005.003.008-.145.125-.403.097-.573.115-.832.031-1.663.074-2.493.138a65.7 65.7 0 0 1-3.093.127c-1.175.016-2.35.048-3.524.125a85.26 85.26 0 0 1-4.284.19c-1.021.026-2.043.076-3.065.083l-.141.742z" style="opacity:1;fill:#000;stroke:#000;stroke-width:.6;stroke-linejoin:round;stroke-miterlimit:2;stroke-dasharray:none;stroke-opacity:1"/><path id="path165320" d="M306.021 873.858c-.913-1.104-2.226-1.585-3.589-1.855-2.258-.072-3.686.902-5.001 2.658-1.014 1.774-.962 3.084-.117 4.898 1.18 1.786 3.111 2.439 5.108 2.85 1.739.364 3.395.086 5.006-.595 1.258-.6 2.354-1.35 3.12-2.52.64-1.041.49-2.05.063-3.133-.537-1.359-1.5-2.34-2.697-3.134-1.131-.652-2.406-1.196-3.743-1.106-.263.018-.52.087-.78.13l-.669.246.091.75.554-.24c1.601-.357 2.681.027 4.082.816 1.103.708 1.978 1.595 2.467 2.835.358.9.49 1.692-.067 2.55-.64.929-1.536 1.547-2.534 2.058-1.48.678-3.013.96-4.633.633-1.803-.352-3.589-.885-4.689-2.472-.74-1.55-.784-2.74.122-4.244 1.026-1.324 2.31-2.313 4.065-2.268 1.217.211 2.4.616 3.227 1.583l.614-.44z" style="opacity:1;fill:#000;stroke:#000;stroke-width:.6;stroke-linejoin:round;stroke-miterlimit:2;stroke-dasharray:none;stroke-opacity:1"/><path id="path165322" d="M218.527 818.468c2.607 4.002 5.722 10.381 8.277 14.422 3.195 5.129 6.766 9.43 9.744 14.696 1.948 3.659 5.249 7.977 7.625 11.336a125.935 125.935 0 0 0 6.573 8.597c1.732 2.167 3.492 4.307 5.32 6.386 1.397 1.861 3.477 3.625 4.916 5.45 2.187 2.437 3.921 4.942 6.077 7.41 2.096 2.627 4.055 5.16 6.487 7.431 2.425 2.198 4.86 5.298 7.317 7.456 2.696 2.367 4.492 4.279 6.942 6.93 1.19 1.205 3.305 3.001 4.55 4.2 1.107 1.066 2.876 1.746 4.198 3.346 2.018 2.145 3.72 2.615 5.794 4.7 1.807 1.814 3.356 2.597 5.375 4.144 1.973 1.51 4.066 2.785 6.204 4.03 2.121 1.237 4.328 2.356 6.474 3.554 2.526 1.41 4.88 1.946 7.28 3.571 1.813 1.228 3.944 1.78 5.949 2.513 1.817.664 3.625 1.113 5.438 1.778 1.795.614 3.646 1.413 5.487 1.856 1.74.42 3.526 1.04 5.304 1.022 2.122-.022 4.212.695 6.316.904 2.098.209 4.162.532 6.257.777 1.904.223 3.797.611 5.696.363 2.139-.272 4.199.455 6.29-.06 2.04-.475 4.056-.806 6.131-1.082 1.879-.124 3.749-.357 5.578-.835 1.649-.464 3.28-.384 4.914-.904 2.3-.63 4.65-1.216 6.978-1.725 2.811-.615 5.298-1.814 7.787-2.695 2.556-.904 4.09-1.619 6.08-2.413 2.604-1.039 5.566-2.695 8.296-4.1 2.716-1.398 5.67-3.437 8.683-5.202 1.934-1.133 3.961-2.67 5.808-3.965 1.897-1.33 3.684-2.619 5.457-4.123 2.046-1.735 4.565-3.827 6.4-5.122 2.423-1.71 4.257-3.71 6.451-5.732 2.005-1.848 4.596-3.808 6.91-6.112 2.333-2.187 4.714-4.323 7.044-6.52 1.458-1.375 3.025-3.227 4.592-5.151 1.693-2.08 3.904-4.962 5.949-7.297 1.58-1.804 3.999-4.683 6.095-7.007 1.89-2.095 3.534-4.33 5.323-6.547 1.763-2.186 3.79-4.383 5.299-6.767 1.421-2.247 3.155-4.099 4.552-6.357 1.352-2.185 2.969-4.157 4.336-6.333 1.315-2.094 2.89-3.874 4.128-6.02 1.291-2.238 2.7-4.39 4.04-6.594 1.338-2.2 2.428-4.44 3.704-6.793 1.087-2.005 2.366-3.872 3.588-5.702 1.417-2.122 2.329-4.577 3.814-6.648 1.174-1.638 2.185-3.771 3.42-5.582.876-1.288 1.87-2.976 2.44-4.42.428-1.472 1.38-3.025 1.78-4.508.137-.478.291-.858.181-1.343l-.698.306s-.153.621-.233.93c-.394 1.459-1.333 2.988-1.766 4.432-.548 1.363-1.493 2.98-2.348 4.183-1.4 1.97-2.284 4-3.466 5.675-1.486 2.106-2.535 4.5-3.844 6.731-.948 1.618-2.54 3.674-3.588 5.702-1.058 2.05-2.351 4.55-3.681 6.728-1.348 2.208-2.75 4.373-4.048 6.616-1.239 2.14-2.811 3.918-4.124 6.008-1.366 2.174-2.98 4.147-4.334 6.33-1.4 2.254-3.13 4.106-4.55 6.35-1.495 2.362-3.512 4.535-5.265 6.694-1.773 2.182-3.414 4.433-5.263 6.448-2.155 2.348-4.573 5.102-6.185 7.169-1.911 2.45-4.106 5.213-5.942 7.28-1.601 1.802-2.953 3.355-4.491 4.982-2.227 2.355-4.754 4.368-7.093 6.593-2.314 2.31-4.693 4.069-6.915 6.119-2.161 1.993-4.009 3.894-6.369 5.618-1.988 1.453-4.38 3.43-6.443 5.177-1.764 1.493-3.536 2.778-5.43 4.087-1.724 1.19-3.61 2.659-5.41 3.709-3.017 1.759-6.265 3.898-8.685 5.202-2.37 1.278-5.816 3.134-8.19 4.082-1.962.783-3.799 1.65-5.989 2.41-2.483.861-5.192 2.125-7.75 2.696a163.104 163.104 0 0 0-7.076 1.724c-1.622.53-3.25.426-4.886.903-1.796.503-3.647.716-5.498.838-2.099.267-4.137.595-6.196 1.079-2.074.504-4.112-.22-6.228.064-1.852.255-3.694-.121-5.554-.337-2.096-.242-4.16-.567-6.257-.777-2.121-.211-4.227-.943-6.366-.917-1.737.021-3.483-.581-5.185-.984-1.82-.43-3.647-1.234-5.424-1.827-1.818-.673-3.633-1.118-5.458-1.787-1.96-.72-4.05-1.234-5.825-2.437-2.405-1.63-4.765-2.172-7.297-3.584-2.145-1.196-4.346-2.32-6.468-3.549-2.115-1.224-4.18-2.484-6.13-3.97-2.01-1.529-3.542-2.302-5.334-4.102-2.071-2.079-3.768-2.543-5.78-4.684-1.343-1.618-3.335-2.516-4.566-3.699-1.122-1.078-3.106-2.757-4.178-3.84-2.463-2.67-4.274-4.598-6.987-6.98-2.454-2.152-4.881-5.25-7.303-7.441-2.417-2.256-4.364-4.77-6.444-7.383-2.15-2.46-3.875-4.958-6.057-7.385-1.446-1.834-3.534-3.606-4.938-5.477a175.271 175.271 0 0 1-5.31-6.374c-2.28-2.714-4.5-5.64-6.542-8.554-2.364-3.34-5.653-7.64-7.59-11.279-2.984-5.275-6.559-9.587-9.76-14.724-2.561-4.051-5.683-10.44-8.297-14.452l-.614.465z" style="opacity:1;fill:red;stroke:red;stroke-width:1.3;stroke-linejoin:round;stroke-miterlimit:2;stroke-dasharray:none;stroke-opacity:1"/><path id="path165324" d="M437.74 876.137c-.511 1.507-.961 3.136-.74 4.745.054.397.2.777.3 1.166.157.313.268.653.47.94.6.85 1.457 1.206 2.48 1.169.845-.031 1.109-.224 1.871-.545.328-.28.69-.526.983-.843.243-.263.428-.577.614-.883.55-.9.886-1.893 1.157-2.905.081-.391.09-.399.14-.758.05-.345.121-.724-.72.05-.105.095-.004.282-.003.423.002.212.01.425.013.638.065 1.364.391 2.696.673 4.027.259 1.225.206.985.425 2.204.186 1.39.658 3.227.074 4.578-.098.227-.254.425-.38.637-.191.188-.361.399-.572.563-.72.556-1.686.908-2.58 1.033-.905.126-1.382.024-2.277-.066-1.21-.287-.65-.103-1.684-.523l-.368.66c1.143.473.53.268 1.847.59.978.107 1.489.22 2.485.094 1.151-.144 2.348-.64 3.229-1.406.238-.208.424-.47.636-.704.138-.263.309-.51.415-.787.575-1.5.121-3.321-.091-4.848-.225-1.248-.166-.977-.43-2.226-.274-1.292-.59-2.585-.65-3.91-.005-.208-.01-.416-.012-.625-.002-.147.113-.348 0-.441-.202-.165-.5-.184-.76-.18-.065 0-.015.127-.025.19-.05.33-.058.333-.136.695-.405 1.472-1.007 2.893-2.123 3.977-.255.124-.497.278-.764.373-.45.159-1.105.262-1.586.173a1.955 1.955 0 0 1-1.21-.773c-.181-.247-.28-.545-.42-.818-.09-.342-.223-.676-.271-1.026-.213-1.561.269-3.113.742-4.578l-.752-.08z" style="fill:#000;stroke:#000;stroke-width:.6;stroke-linejoin:round;stroke-miterlimit:2;stroke-dasharray:none;stroke-opacity:1"/><path id="path165326" d="M450.276 882.504c-.057-.037-.109-.087-.173-.113-.61-.25-1.217.275-1.613.67-.408.526-.714 1.17-.708 1.852.001.126.026.252.04.378.206.704.654 1.31 1.36 1.575.134.05.277.073.416.11.61.08 1.31.105 1.866-.212.17-.096.322-.22.482-.331.51-.533.612-1.16.576-1.869-.08-.731-.44-1.22-1.006-1.658-.634-.414-1.273-.41-1.99-.276l-.305.09.057.754.234-.088c.514-.125 1.032-.192 1.51.091.414.292.704.666.75 1.187.02.485-.046.968-.426 1.31-.009.13.008.066-.247.172-.387.162-.816.17-1.226.126-.1-.018-.203-.026-.302-.054-.514-.148-.843-.571-1.006-1.062-.009-.086-.027-.173-.027-.26 0-.53.256-1.031.589-1.428.204-.185.336-.34.59-.455l.56-.509z" style="fill:#000;stroke:#000;stroke-width:.6;stroke-linejoin:round;stroke-miterlimit:2;stroke-dasharray:none;stroke-opacity:1"/><path id="path165328" d="M429.729 881.005a14.332 14.332 0 0 1 2.004-.203c.149.016.307.005.43.11.27.23.433 1.193.505 1.505.21 1.06.3 2.14.36 3.217l.01.266.007.172c.003.094.002.13.009.129.817-.195.746.026.744-.445-.001-1.675-.064-3.35-.07-5.025.043-1.835.225-3.665.47-5.483.056-.18.174-1.354.42-1.367-.038.032-.094.05-.114.095-.014.03.058-.03.089-.038.054-.016.109-.027.164-.034.432-.055.877-.043 1.31-.05 1.933-.013 3.865-.008 5.798-.006 2.31.002 4.62.002 6.931.003H452.423c.003-.002.005 0 .007 0-.1-.17-.144-.392-.303-.511-.062-.046-.069.139-.102.209-.15.314-.135.293-.29.659-.309.75-.565 1.521-.854 2.28l-.053.133.74.157.053-.139c.283-.75.54-1.511.848-2.253.054-.124.106-.248.161-.371.037-.082.076-.163.117-.244.01-.019.04-.033.035-.054-.055-.207-.141-.406-.212-.608-.002 0 .044.008-.005 0h-.531a16817.255 16817.255 0 0 1-10.027-.003c-1.936-.001-3.871-.006-5.806.005-.348.004-.709.006-1.057.02-.238.01-.584-.003-.808.109-.123.062-.231.149-.347.223-.044.054-.093.103-.13.162-.3.468-.273 1.096-.417 1.613-.243 1.846-.43 3.704-.466 5.567.007 1.676.069 3.35.07 5.026 0 .075-.072.204 0 .225.24.067.498-.02.746-.014.01 0 .005.04.005.03.003-.09-.006-.18-.01-.27l-.012-.272c-.063-1.114-.16-2.228-.382-3.323-.152-.647-.26-1.505-.837-1.94-.236-.177-.419-.17-.693-.209-.693.006-1.387.072-2.07.194l-.065.753z" style="fill:#000;stroke:#000;stroke-width:.6;stroke-linejoin:round;stroke-miterlimit:2;stroke-dasharray:none;stroke-opacity:1"/><path id="path165332" d="M442.35 869.685c-.011-1.29 0-2.58.056-3.87.108-1.384.217-2.766.28-4.152.04-1.057.046-2.115.05-3.173 0-.446 0-.893-.002-1.34l-.752.065c0 .446.002.891 0 1.337a86.9 86.9 0 0 1-.05 3.152c-.065 1.386-.177 2.769-.28 4.153a76.985 76.985 0 0 0-.054 3.892l.753-.064z" style="opacity:1;fill:#000;stroke:#000;stroke-width:.6;stroke-linejoin:round;stroke-miterlimit:2;stroke-dasharray:none;stroke-opacity:1"/><path id="path165334" d="M198.553 869.662c-.056-.73-.009-1.468.007-2.201.024-1.197.027-2.395.03-3.592.032-1.418-.045-2.835-.116-4.25a54.721 54.721 0 0 1-.072-1.993l-.004-.433-.752.074c0 .147.002.293.004.44.011.672.04 1.342.075 2.013.07 1.405.143 2.81.111 4.219-.003 1.193-.005 2.386-.03 3.58-.017.786-.08 1.582.023 2.363l.724-.22z" style="opacity:1;fill:#000;stroke:#000;stroke-width:.6;stroke-linejoin:round;stroke-miterlimit:2;stroke-dasharray:none;stroke-opacity:1"/><path id="path165336" d="M198.406 876.802a13.376 13.376 0 0 0-1.023 3.474c-.19 1.278-.11 2.552.633 3.662.148.222.28.459.46.655.17.184.366.35.584.475.999.574 2.297.367 3.243-.138.336-.179.664-.377.97-.602 1.37-1.005 1.7-2.395 2.32-3.941.045-.13.096-.258.134-.389.008-.027.168-.65.076-.68-.778-.257-.67-.22-.893.249-.037.134-.085.266-.112.403-.27 1.37.004 2.916.192 4.28.244 1.772.65 3.532.712 5.325.01.288-.003.577-.004.865-.034.249-.038.504-.103.746-.2.745-.714 1.234-1.401 1.547-.524.239-1.261.333-1.798.435-1.03.08-2.045.02-2.965-.496-.746-.42-1.15-.991-1.61-1.676l-.631.416s.548.87 1.057 1.322c1.223 1.09 2.533 1.28 4.118 1.19.392-.07.794-.095 1.177-.206.714-.207 1.472-.534 2.018-1.064.636-.617.836-1.435.89-2.284 0-.304.011-.608-.001-.91-.072-1.807-.474-3.581-.72-5.366-.172-1.25-.445-2.768-.183-4.02.022-.105.062-.205.093-.307.013-.028.067-.07.039-.084-.192-.09-.41-.114-.61-.184-.009-.003.004-.039.002-.03-.035.189-.017.17-.086.392-.039.121-.086.24-.129.36-.585 1.42-.877 2.682-2.147 3.605-.172.125-.344.254-.53.359-.693.394-1.82.71-2.614.32a1.708 1.708 0 0 1-.466-.341 4.208 4.208 0 0 1-.433-.547c-.776-1.133-.593-2.13-.527-3.303.033-.601.35-1.948 1.04-3.348-.246-.055-.529-.11-.772-.164z" style="fill:#000;stroke:#000;stroke-width:.6;stroke-linejoin:round;stroke-miterlimit:2;stroke-dasharray:none;stroke-opacity:1"/><path id="path165338" d="M208.697 882.185c-1.013.289-1.05 1.463-.98 2.548.013.197.063.39.095.584.094.173.16.364.28.52.47.603 1.242.726 1.95.59.169-.032.33-.093.496-.14.757-.357 1.538-.866 1.782-1.717.032-.113.04-.231.06-.347-.003-.707-.433-1.187-.962-1.594a2.766 2.766 0 0 0-1.453-.515c-.526.03-1.08.14-1.538.418-.16.097-.307.212-.461.318l-.225.256.657.374.162-.163c.134-.254.952-.42 1.24-.465.407-.009.785.119 1.121.347.34.248.684.533.704.986-.014.072-.02.146-.042.216-.165.518-.653.86-1.092 1.132-.546.195-1.275.43-1.744-.075-.084-.09-.132-.207-.199-.311-.025-.156-.067-.31-.077-.468-.051-.847.21-1.432.808-2.011l-.582-.483z" style="fill:#000;stroke:#000;stroke-width:.6;stroke-linejoin:round;stroke-miterlimit:2;stroke-dasharray:none;stroke-opacity:1"/><path id="path165340" d="M187.63 882.143c.91-.025 1.599.163 2.323.753.191.156.355.343.533.515.792 1.003 1.376 2.151 1.973 3.276.226.401.334.775.99.185.13-.117.063-.344.08-.518.062-.624.071-1.252.105-1.879.135-2.583.388-4.5.64-6.785.121-1.096.393-2.183.498-3.281-.375.053.103-.198.073-.15-.042.065-.131.102-.152.177-.01.037.073-.023.111-.028.109-.012.218-.018.328-.022.193-.007.386-.006.58-.01 2.752-.015 4.298.056 6.91.093 2.268.032 4.723.032 6.99.087.465.011.93.05 1.39-.017l.06-.01.041-.007c.243-.04-.392-.438-.405-.422-.059.068-.098.15-.147.225-.526.908-.822 1.963-1.07 2.882-.116.434-.076.231-.2.583l.743.137s.113-.146.2-.58c.162-.804.513-1.88 1.027-2.736.01-.015.25-.346.232-.386-.307-.709-.21-.498-.44-.441-.42.08-.848.04-1.273.032-2.263-.045-4.713-.053-6.975-.083-2.76-.038-4.184-.111-6.949-.1-.201.001-.402 0-.604.004-.618.013-1.141.024-1.226.782-.107 1.087-.374 2.163-.497 3.248-.255 2.237-.507 4.242-.64 6.845-.01.175-.076 1.47-.105 1.823-.008.095-.119.235-.037.282.17.099.394.057.59.036.126-.013-.65-.406-.202-.325-.628-1.183-1.243-2.39-2.088-3.435-.204-.196-.392-.41-.611-.588-.798-.647-1.64-.934-2.655-.905l-.142.743z" style="fill:#000;stroke:#000;stroke-width:.6;stroke-linejoin:round;stroke-miterlimit:2;stroke-dasharray:none;stroke-opacity:1"/><path id="path165342" d="M175.37 880.883c.993.055 1.989.06 2.983.073a109.49 109.49 0 0 0 3.74-.036 212.44 212.44 0 0 0 1.971-.061c.177.005.347-.022.513-.078l-.15-.74c-.026.088-.192.068-.246.07-.655.024-1.31.045-1.965.063-1.24.03-2.479.051-3.718.04-.975-.012-1.95-.026-2.925-.06l-.203.729z" style="fill:#000;stroke:#000;stroke-width:.6;stroke-linejoin:round;stroke-miterlimit:2;stroke-dasharray:none;stroke-opacity:1"/><g id="g166569" transform="translate(-67.149 -.574)"><g id="g165350" transform="translate(307.036 427.62)"><path id="path165346" d="M45.779 512.984c-.236 1.947-.262 4.007.434 5.873.132.352.328.676.492 1.014.571.803 1.148 1.315 2.173 1.382.922.06 1.718-.336 2.517-.723 1.964-1.119 2.754-2.577 3.567-4.597.187-.475.343-.961.493-1.449.02-.07.04-.14.064-.208.01-.027.061-.079.034-.077-.233.02-.459.088-.688.132-.091.384.088 1.109.16 1.483.13.693.228 1.078.391 1.783.651 2.322 1.272 4.649 1.745 7.014.135 1.172.378 2.486-.143 3.61-.322.697-.589.825-1.158 1.336-.325.183-.634.395-.973.55-1.354.62-3.13.857-4.586.53-.321-.072-.624-.212-.936-.317-.586-.342-.81-.405-1.25-.897-.127-.14-.215-.31-.322-.466l-.625.425c.136.19.251.4.41.573.519.571.771.644 1.452 1.043.35.12.69.277 1.05.362 1.793.419 3.725.07 5.359-.736.372-.184.705-.44 1.057-.66.663-.664.912-.777 1.272-1.644.512-1.233.286-2.628.125-3.9-.478-2.371-1.099-4.705-1.75-7.033-.26-1.123-.51-2.246-.603-3.396-.243.017-.49 0-.727.053-.007.002-.08.246-.106.327-.146.47-.301.937-.483 1.395-.69 1.686-1.381 3.016-2.975 4.022-.973.515-2.322 1.208-3.34.36-.209-.174-.353-.411-.53-.617-.15-.304-.33-.595-.449-.913-.666-1.775-.626-3.742-.396-5.594l-.755-.04z" style="opacity:1;fill:#000;stroke:#000;stroke-width:.6;stroke-linejoin:round;stroke-miterlimit:2;stroke-dasharray:none;stroke-opacity:1"/><path id="path165348" d="M61.549 519.263c-.83-.113-1.746.688-2.112 1.382-.092.175-.13.374-.196.562-.008.181-.045.364-.025.544.127 1.125 1.046 1.535 1.98 1.886a4.2 4.2 0 0 0 3.014-.535c.208-.129.396-.285.594-.428.693-.835.864-1.35.277-2.295-.655-.817-1.581-1.237-2.58-1.46-1.163-.151-2.073.271-2.91 1.06l.629.419c.146-.128.276-.278.44-.381a2.443 2.443 0 0 1 1.579-.389c.842.156 1.63.493 2.202 1.154.078.116.191.26.228.4.102.396-.226.767-.464 1.032-.513.495-1.448.783-2.152.793-.172.002-.342-.029-.513-.043-.845-.293-1.649-.566-1.556-1.618.047-.128.072-.267.14-.385.154-.27.775-.959 1.138-1l.287-.698z" style="opacity:1;fill:#000;stroke:#000;stroke-width:.6;stroke-linejoin:round;stroke-miterlimit:2;stroke-dasharray:none;stroke-opacity:1"/></g><path id="path165352" d="m337.964 945.835 3.01-.124a50.61 50.61 0 0 1 3.652-.068c.806.012 1.612.016 2.418.001.423-.008.845-.025 1.266-.043l.447-.019.126-.749-.445.02a66.61 66.61 0 0 1-1.248.045 62.59 62.59 0 0 1-2.393.003c-1.233-.015-2.464-.018-3.696.061l-3.01.124-.127.748z" style="opacity:1;fill:#000;stroke:#000;stroke-width:.6;stroke-linejoin:round;stroke-miterlimit:2;stroke-dasharray:none;stroke-opacity:1"/></g><path id="path165354" fill="#fed341" stroke="#000" stroke-width=".317" d="M323.138 896.633h19.739v-13.52l23.563 25.236-23.563 25.236v-13.519h-19.739z" style="display:inline;fill:#f6ffd5;fill-opacity:1;stroke-width:1.3;stroke-dasharray:none"/><g id="g204824" transform="translate(1.53)"><path id="path173012" d="M490.89 870.499v-3.153c-.01-1.061.087-2.12.14-3.179.016-.717.132-1.427.19-2.142.046-.67.05-1.34.053-2.011.002-.56 0-1.12 0-1.679v-1.021l-.753.071v1.022c.001.558.002 1.116 0 1.675-.004.654-.007 1.31-.055 1.962-.062.722-.176 1.439-.19 2.164-.054 1.07-.15 2.138-.138 3.21v3.152l.753-.07z" style="fill:#000;stroke:#000;stroke-width:.6;stroke-linejoin:round;stroke-miterlimit:2;stroke-dasharray:none"/><path id="path173014" d="M492.58 906.623v-2.106c-.018-1.285.06-2.568.122-3.85.017-.361.036-.722.055-1.083l-4.53.235-.054 1.1c-.062 1.34-.129 2.682-.108 4.025v2.106l4.515-.427z" style="fill:#000;stroke:#000;stroke-width:.6;stroke-linejoin:round;stroke-miterlimit:2;stroke-dasharray:none"/><path id="path173016" d="M492.47 893.966c-.046-.806-.026-1.61-.001-2.417a174.082 174.082 0 0 0 .112-5.136l-4.518.392c-.004.382-.008.765-.015 1.147-.022 1.31-.059 2.62-.103 3.93-.023 1.133-.059 2.289.185 3.404l4.34-1.32z" style="fill:#000;stroke:#000;stroke-width:.6;stroke-linejoin:round;stroke-miterlimit:2;stroke-dasharray:none"/><path id="path173018" d="M492.66 880.715a41.616 41.616 0 0 1-.066-1.635c.014-.56-.044-1.126-.015-1.685.007-.141.045-.278.064-.417.01-.088.015-.177.032-.264.01-.048.03-.092.046-.138.017-.086.038-.17.052-.257.063-.372.099-.75.134-1.128.021-.24.037-.481.052-.722l-4.534.124c-.016.177-.032.354-.053.53-.084.62-.227 1.228-.264 1.858-.065.923-.037 1.849-.014 2.774.03.854.06 1.716.227 2.55l4.34-1.59z" style="fill:#000;stroke:#000;stroke-width:.6;stroke-linejoin:round;stroke-miterlimit:2;stroke-dasharray:none"/></g><path id="path173020" d="M333.186 947.452c1.255-.182 2.535-.14 3.797-.053 1.568.176 3.14.257 4.718.266.637 0 .335 0 .908-.01l.795-4.465c-.542.01-.256.01-.858.015-1.476.012-2.952 0-4.419-.198-.725-.067-1.139-.116-1.858-.144-.949-.037-1.894.04-2.842.056l-.241 4.53z" style="fill:#000;stroke:#000;stroke-width:.6;stroke-linejoin:round;stroke-miterlimit:2;stroke-dasharray:none"/><path id="path173022" d="M349.978 947.636a66.515 66.515 0 0 1 4.569-.286c1.227-.016 2.454.022 3.68.055.603.016 1.205.024 1.807.04l.473-4.517c.027.02.112.046.08.057-.184.062-1.017-.058-1.24-.013-1.292-.03-2.584-.082-3.878-.088-1.663 0-3.32.097-4.974.239l-.517 4.514z" style="fill:#000;stroke:#000;stroke-width:.6;stroke-linejoin:round;stroke-miterlimit:2;stroke-dasharray:none"/><path id="path173024" d="M367.33 947.685c.637-.06 1.857-.06 2.508-.093 1.265-.066 2.85-.167 4.503-.142 1.08.017 2.445.077 3.524.124l.86-4.418c-1.162-.047-2.342-.042-3.337-.076-1.8-.061-3.602-.022-5.401.042-1.167.042-2.148.026-3.13.13.218 1.567.438 2.955.473 4.433z" style="fill:#000;stroke:#000;stroke-width:.6;stroke-linejoin:round;stroke-miterlimit:2;stroke-dasharray:none"/><path id="path166857" d="M372.154 857.277c.018.91-.126 1.804-.056 2.63.078.93-.022 1.706-.06 2.636-.028.66-.012 1.32.008 1.98.016.52.103 1.04.058 1.56-.059.673-.028 1.346-.023 2.02.003.491.026.983.052 1.475.004.071-.019.15.013.215l.747.062c-.006-.074-.008-.22-.012-.284-.027-.488-.052-.906-.057-1.394-.007-.67-.048-1.34.02-2.009.052-.525-.035-1.05-.052-1.576-.022-.656-.04-1.311-.014-1.967.037-.935.146-1.718.067-2.654-.07-.826.104-1.804.056-2.63-.297.004-.498-.043-.747-.064z" style="fill:#000;stroke:#000;stroke-width:.6;stroke-linejoin:round;stroke-miterlimit:2;stroke-dasharray:none;stroke-opacity:1"/><g id="g204804" transform="translate(0 -.765)"><path id="path170964" d="M366.977 877.688c.823 1.016 1.96 1.73 3.004 2.5 1.043.796 2.164 1.482 3.202 2.284.983.734 1.937 1.512 2.978 2.164.363.218.738.412 1.121.59l.39-.647a11.019 11.019 0 0 1-1.057-.547c-1.029-.632-1.96-1.406-2.929-2.124-1.04-.807-2.164-1.497-3.213-2.293-.977-.72-2.029-1.39-2.84-2.302l-.656.375z" style="fill:#000;stroke:#000;stroke-width:.6;stroke-linejoin:round;stroke-miterlimit:2;stroke-dasharray:none"/><path id="path171987" d="M368.178 885.69c.513-.49.98-1.025 1.457-1.549.693-.763 1.38-1.53 2.11-2.258.558-.5 1.134-.98 1.686-1.486.668-.59 1.31-1.21 1.965-1.816.417-.412.791-.865 1.19-1.296l.023.011-.583-.48-.099.097c-.384.42-.748.86-1.162 1.253-.655.604-1.294 1.224-1.963 1.812-.562.51-1.15.99-1.703 1.511-.73.739-1.423 1.514-2.123 2.282-.47.518-.937 1.04-1.443 1.524l.645.395z" style="fill:#000;stroke:#000;stroke-width:.6;stroke-linejoin:round;stroke-miterlimit:2;stroke-dasharray:none"/><path id="path171989" d="M383.796 882.706c-.684-.514-1.49-.474-2.277-.27-.975.401-1.455 1.088-1.745 2.057-.147.69.099 1.282.499 1.83.411.485.93.83 1.511 1.073.674.244 1.244.225 1.91-.016.696-.248 1.037-.635 1.366-1.256.186-.379.265-.793.3-1.21-.003-.481-.2-.87-.505-1.23-.376-.423-.889-.654-1.42-.818l-.228-.058-.283.7.202.047c.421.116.84.277 1.142.606.202.224.338.456.336.767-.034.334-.103.664-.263.962-.18.321-.392.61-.745.74-.482.227-.937.279-1.45.101a3.142 3.142 0 0 1-1.257-.845c-.289-.384-.485-.786-.368-1.278.186-.574.494-1.118 1.036-1.416.576-.203 1.197-.292 1.729.071l.51-.557z" style="fill:#000;stroke:#000;stroke-width:.6;stroke-linejoin:round;stroke-miterlimit:2;stroke-dasharray:none"/></g><path id="path173026" d="M374.723 950.123c-.09-1.891-.105-3.785-.127-5.678-.014-1.575.173-3.138.371-4.697l.14-1.14-4.536-.021-.139 1.126c-.212 1.726-.373 3.46-.347 5.202.025 1.99.033 3.983.167 5.969l4.471-.761z" style="fill:#000;stroke:#000;stroke-width:.6;stroke-linejoin:round;stroke-miterlimit:2;stroke-dasharray:none"/><path id="path173028" d="M374.712 931.78c.041-2.551.098-5.103.143-7.653.016-.938.033-1.875.046-2.812l-4.523.525c-.014.928-.03 1.856-.047 2.785-.046 2.601-.113 5.203-.134 7.805l4.515-.65z" style="fill:#000;stroke:#000;stroke-width:.6;stroke-linejoin:round;stroke-miterlimit:2;stroke-dasharray:none"/><path id="path173030" d="M374.793 913.618c.039-2.18.04-4.364.058-6.545.01-1.066.018-2.131.025-3.197l-4.519.527-.025 3.188c-.011 1.397-.024 2.795-.028 4.192-.002.596-.008 1.862.023 2.492.015.296.053.589.08.883l4.387-1.54z" style="fill:#000;stroke:#000;stroke-width:.6;stroke-linejoin:round;stroke-miterlimit:2;stroke-dasharray:none"/><path id="path173032" d="M374.577 897.389c-.111-1.172-.063-2.35.003-3.522.073-1.253.162-2.505.222-3.758.016-.36.01-.193.02-.5l-4.527.276-.022.462c-.068 1.258-.155 2.514-.222 3.772-.056 1.39-.094 2.789.078 4.174l4.448-.904z" style="fill:#000;stroke:#000;stroke-width:.6;stroke-linejoin:round;stroke-miterlimit:2;stroke-dasharray:none"/><g id="g204863"><path id="path173010" d="M246.939 871.05c-.009-.765.074-1.528.116-2.291.109-1.067.183-2.137.23-3.209 0-.845.093-1.686.155-2.528.102-.702.184-1.405.229-2.113.032-.617.035-1.236.037-1.854l-.001-1.093v-.291l-.753.071v.292c0 .363.002.727.001 1.09a34.809 34.809 0 0 1-.04 1.817 33.77 33.77 0 0 1-.228 2.106c-.064.849-.151 1.695-.154 2.547a62.79 62.79 0 0 1-.23 3.201c-.045.775-.126 1.55-.114 2.326l.752-.071z" style="fill:#000;stroke:#000;stroke-width:.6;stroke-linejoin:round;stroke-miterlimit:2;stroke-dasharray:none"/><path id="path173038" d="M249.14 908.825c-.1-1.279-.094-2.563-.11-3.844-.026-1.032-.069-2.063-.11-3.095l-4.5.575c.04.998.08 1.995.1 2.993.02 1.44.01 2.887.185 4.32l4.435-.949z" style="fill:#000;stroke:#000;stroke-width:.6;stroke-linejoin:round;stroke-miterlimit:2;stroke-dasharray:none"/><path id="path173040" d="M249.012 896.759v-7.469l-4.516.428v7.468l4.516-.427z" style="fill:#000;stroke:#000;stroke-width:.6;stroke-linejoin:round;stroke-miterlimit:2;stroke-dasharray:none"/><path id="path173042" d="M249.012 884.163v-4.551c.016-.931.02-1.856-.13-2.777l-.045-.22-4.397 1.113.012.08c.09.74.022 1.488.044 2.23v4.552l4.516-.427z" style="fill:#000;stroke:#000;stroke-width:.6;stroke-linejoin:round;stroke-miterlimit:2;stroke-dasharray:none"/></g><g id="g204818" transform="translate(1.53)"><g id="g175398"><path id="path173693" d="M465.644 915.955c1.02.388 1.772 1.28 2.521 2.037 1.092 1.144 2.31 2.155 3.412 3.289.538.548 1.086 1.087 1.634 1.625.175.229.39.41.634.556l.436-.617a1.503 1.503 0 0 1-.514-.451c-.545-.536-1.09-1.07-1.625-1.616-1.102-1.135-2.32-2.149-3.415-3.292-.84-.849-1.678-1.814-2.823-2.24l-.26.71z" style="fill:#000;stroke:#000;stroke-width:.6;stroke-linejoin:round;stroke-miterlimit:2;stroke-dasharray:none"/><path id="path173695" d="M472.725 916.595c-1.015 1.237-2.146 2.365-3.293 3.478-1.009.927-1.953 1.93-3.018 2.796-.14.101-.273.222-.431.298l.554.514a7.1 7.1 0 0 0 .489-.368c1.064-.892 2.03-1.894 3.046-2.838 1.147-1.117 2.266-2.26 3.297-3.485l-.644-.395z" style="fill:#000;stroke:#000;stroke-width:.6;stroke-linejoin:round;stroke-miterlimit:2;stroke-dasharray:none"/><path id="path173697" d="M478.373 921.914c-.669.176-1.276.507-1.83.913-.59.53-.837 1.108-.814 1.894.158.766.715 1.22 1.374 1.57.691.33 1.374.238 2.056-.05.64-.32 1.099-.833 1.398-1.474.199-.477.127-.962-.075-1.421-.233-.44-.617-.72-1.07-.9-.318-.104-.651-.13-.983-.154l-.18.734c.276.015.553.027.822.095.305.088.566.268.727.547.136.29.172.593.032.891a2.799 2.799 0 0 1-.801.937c-.486.262-.986.389-1.515.16-.458-.223-.894-.502-1.035-1.023-.013-.545.22-.987.648-1.327.39-.268.794-.503 1.255-.637l-.009-.755z" style="fill:#000;stroke:#000;stroke-width:.6;stroke-linejoin:round;stroke-miterlimit:2;stroke-dasharray:none"/></g><g id="g175402"><path id="path173699" d="M481.763 919.58c.915.001 1.83.009 2.746-.02 1.222-.028 2.439-.13 3.654-.26.352-.038.193-.02.477-.055l.06-.753c-.27.038-.116.017-.461.057-1.2.13-2.402.238-3.61.265-.908.035-1.816.024-2.725.024l-.141.743z" style="fill:#000;stroke:#000;stroke-width:.6;stroke-linejoin:round;stroke-miterlimit:2;stroke-dasharray:none"/><path id="path173701" d="M485.395 915.779c.2 1.057.244 2.136.29 3.208.037 1.04.017 2.079.15 3.111-.08-.09.163.62.1.5-.006.135-.002.271-.002.406l.752-.07c0-.172.005-.344-.015-.513a2.999 2.999 0 0 1-.094-.47c-.126-1.017-.1-2.04-.141-3.062-.05-1.113-.096-2.235-.316-3.33l-.724.22z" style="fill:#000;stroke:#000;stroke-width:.6;stroke-linejoin:round;stroke-miterlimit:2;stroke-dasharray:none"/></g><g id="g175412"><path id="path173709" d="M491.582 919.963c1.18.473 1.939 1.607 2.546 2.668.294.62.24.478.476 1.067.045.113.17.5.287.612.084.08.187.209.299.178.22-.06.366-.273.549-.41.274-1.439.255-2.922.285-4.382.056-1.568-.002-3.156.248-4.71.144-.692.476-1.324 1.042-1.754.89-.416 1.918-.47 2.88-.582 2.086-.284 4.175-.492 6.28-.553 1.856-.027 3.712-.006 5.569.01.548-.033 1.12.095 1.655-.064.167-.062.348-.125.46-.27.009-.014.042-.04.025-.044-.243-.056-.49-.132-.74-.121-.054.002-.033.104-.052.154-.136.356-.254.714-.374 1.074-.127.407-.29.8-.374 1.218l.753.06c.092-.392.25-.765.366-1.15.04-.12.212-.64.261-.778.255-.713.34-.357-.52-.785-.013-.006.013-.025.02-.037.042-.073.274-.171.102-.074-.438.211-.969.015-1.435.076-1.864-.017-3.728-.038-5.592-.014-.805.02-1.356.026-2.162.084-1.396.1-2.78.309-4.17.461-1.217.14-2.529.179-3.57.899a3.804 3.804 0 0 0-1.18 2.166c-.234 1.584-.197 3.196-.246 4.793-.029 1.375-.01 2.774-.262 4.13l.415-.116c.038.05.053.14.115.15.057.01-.07-.094-.095-.147-.23-.5-.372-1.042-.66-1.518-.63-1.091-1.397-2.218-2.54-2.835-.163-.088-.346-.132-.52-.198l-.141.742z" style="fill:#000;stroke:#000;stroke-width:.6;stroke-linejoin:round;stroke-miterlimit:2;stroke-dasharray:none"/><g id="g175406"><path id="path173711" d="M501 916.466c-.704 1.18-1.054 2.512-1.26 3.857-.069 1.095.09 2.12 1.16 2.677.18.093.383.137.574.206 1.326.232 2.616-.213 3.828-.712 1.374-.633 2.335-1.439 3.174-2.68.363-.623.574-1.31.444-2.027-.137-.41-.262-.694-.86-.366-.123.067-.087.563-.086.648.166 1.628.515 3.233.81 4.841.354 1.89.777 3.767.838 5.694-.027.214-.025.433-.08.642-.295 1.14-1.432 1.488-2.419 1.8-.289.03-.576.09-.866.09-1.187 0-2.347-.493-3.309-1.16-.199-.138-.379-.302-.568-.453l-.373-.417-.58.484.442.49c.21.168.409.35.629.503 1.069.746 2.355 1.285 3.674 1.304.332 0 .662-.057.992-.085.302-.09.614-.147.904-.267 1.05-.435 1.974-1.133 2.23-2.292.054-.24.05-.488.074-.732-.074-1.955-.49-3.864-.854-5.782-.289-1.574-.632-3.144-.792-4.737 0-.066.013-.135 0-.2-.005-.017-.016.043-.034.045-.187.017-.374.019-.561.01-.013 0-.019-.044-.011-.034.028.035.054.122.067.157.107.549-.14 1.086-.407 1.55-.668.95-1.528 1.72-2.582 2.226-1.069.463-2.215.89-3.399.778-.143-.039-.293-.058-.43-.116-.884-.382-.926-1.213-.873-2.06.198-1.241.52-2.485 1.19-3.564l-.686-.318z" style="fill:#000;stroke:#000;stroke-width:.6;stroke-linejoin:round;stroke-miterlimit:2;stroke-dasharray:none"/><path id="path173713" d="M512.587 921.722c-.936.201-1.277.948-1.507 1.784-.081.75.11 1.533.802 1.94.122.072.26.112.389.167.599.158 1.265.159 1.825-.143.166-.09.32-.2.479-.3.545-.514.849-1.093.976-1.825.054-.633-.215-1.14-.658-1.566-.37-.297-.835-.404-1.285-.517-.339-.069-.671-.02-1.005.047l-.008.756c.242-.058.478-.121.73-.102.349.081.717.156 1.026.342.304.263.486.584.446.999a2.356 2.356 0 0 1-.8 1.378c-.057.114-.02.06-.251.16a1.82 1.82 0 0 1-1.124.102c-.706-.208-.85-.63-.792-1.338.095-.322.09-.38.261-.671.052-.088.128-.16.177-.25.008-.015-.025-.038-.013-.05.085-.088.202-.118.312-.157l.02-.755z" style="fill:#000;stroke:#000;stroke-width:.6;stroke-linejoin:round;stroke-miterlimit:2;stroke-dasharray:none"/></g></g></g><g id="g204857"><g id="g175417"><path id="path173721" d="M220.262 915.76c1.037.958 1.946 2.04 2.861 3.111.916 1.077 1.848 2.139 2.775 3.205.489.55.938 1.132 1.42 1.688.175.214.364.411.582.583l.5-.568a2.76 2.76 0 0 1-.495-.491c-.483-.555-.93-1.138-1.42-1.688-.926-1.065-1.856-2.126-2.77-3.2-.96-1.122-1.91-2.259-3.007-3.25l-.446.61z" style="fill:#000;stroke:#000;stroke-width:.6;stroke-linejoin:round;stroke-miterlimit:2;stroke-dasharray:none"/><path id="path173723" d="M229.438 915.468c-1.502 1.119-2.931 2.327-4.342 3.558a71.43 71.43 0 0 1-3.385 2.778c-.336.276-.698.52-1.008.824l.633.413c.313-.274.652-.517.975-.777a74.811 74.811 0 0 0 3.407-2.808c1.391-1.212 2.802-2.404 4.292-3.495l-.572-.493z" style="fill:#000;stroke:#000;stroke-width:.6;stroke-linejoin:round;stroke-miterlimit:2;stroke-dasharray:none"/><path id="path173725" d="M233.04 921.514c-.68-.175-1.173.058-1.759.384-.623.52-.837 1.108-.827 1.904.03.758.43 1.342.982 1.826.542.402.981.58 1.656.491.527-.131 1.005-.419 1.44-.738.335-.264.617-.57.791-.96.132-.395.165-.816.122-1.228-.11-.524-.444-.928-.822-1.287-.366-.332-.814-.477-1.292-.55a4.197 4.197 0 0 0-.825-.022l-.064.754c.22-.05.444-.02.668-.008.353.038.69.11.967.35.271.25.535.525.624.896.028.3-.002.611-.106.894-.148.28-.397.49-.646.68a4.69 4.69 0 0 1-.82.465c-.529.12-.708.024-1.168-.28-.43-.354-.74-.783-.755-1.36-.003-.536.174-.991.626-1.309.166-.215.673-.25.922-.203l.287-.699z" style="fill:#000;stroke:#000;stroke-width:.6;stroke-linejoin:round;stroke-miterlimit:2;stroke-dasharray:none"/></g><path id="path173727" d="M239.173 919.963h5.576l.142-.742h-5.576l-.142.742z" style="fill:#000;stroke:#000;stroke-width:.6;stroke-linejoin:round;stroke-miterlimit:2;stroke-dasharray:none"/><g id="g175427"><path id="path173729" d="M250.1 920.138c.535-.01.834.44 1.082.852.365.607.577 1.08.89 1.722.357.76.716 1.52 1.105 2.265.183.35.33.637.63.89.219-.077.485-.075.658-.23.092-.083.064-.82.061-.887-.033-.798-.133-1.595-.205-2.39-.164-1.81-.469-3.607-.56-5.425.001-1.072.15-2.135.137-3.207-.008-.077-.077-.779.177-.684-.043.028-.113.036-.129.086-.01.036.073-.02.11-.026.062-.01.124-.012.186-.019.36-.035.719-.074 1.078-.119 1.581-.2 3.162-.384 4.753-.492 2.182-.122 4.367-.142 6.55-.157a57.9 57.9 0 0 0 4.259-.116c.529-.034 1.059-.057 1.589-.072.431-.012.224.065.167-.722-.105.079-.222.144-.316.236-.323.315-.662 1.299-.824 1.722-.19.533-.336 1.08-.44 1.635-.015.051-.012.06-.015.025l.74.154.03-.131c.103-.519.242-1.03.425-1.527.149-.381.296-.763.49-1.125.04-.076.084-.151.132-.223.027-.04.132-.088.09-.11-.049-.025-.096.054-.144.081.035-.825.252-.769-.21-.76-.536.012-1.073.034-1.609.069-1.407.084-2.815.146-4.226.12-2.196.014-4.393.034-6.587.152-1.603.103-3.197.286-4.791.488-.347.046-.695.092-1.044.123-.083.007-.375.012-.462.04-.13.045-.25.116-.375.174-.353.343-.4.778-.356 1.255.008 1.08-.15 2.153-.133 3.233.098 1.825.395 3.63.562 5.449.071.777.17 1.557.2 2.337.004.133-.004.266 0 .398 0 .028-.018.081.01.084.165.02.332-.017.498-.026-.142 0-.425-.632-.435-.65-.387-.743-.745-1.5-1.1-2.259-.286-.583-.595-1.255-.942-1.807-.432-.688-.87-1.163-1.715-1.182l.009.756z" style="fill:#000;stroke:#000;stroke-width:.6;stroke-linejoin:round;stroke-miterlimit:2;stroke-dasharray:none"/><g id="g175421"><path id="path173731" d="M257.452 916.213c-.058.1-.126.194-.173.3-.167.368-.305.856-.407 1.236a20.065 20.065 0 0 0-.524 2.647c-.061 1.016.049 2.07.742 2.873.444.514.627.53 1.23.832 1.269.463 2.598.386 3.837-.14.265-.112.515-.26.772-.39 1.277-.781 2.159-1.715 2.442-3.219.044-.234.054-.474.081-.71.035-.546.02-1.093-.02-1.638-.012-.16-.023-.425-.094-.585-.033-.072-.09-.13-.136-.195-.224.05-.477.03-.671.151-.093.058-.061.21-.08.318-.111.623-.053 1.27-.008 1.894.226 1.82.71 3.593 1.144 5.37.311 1.44.592 2.91.583 4.389-.002.267-.029.535-.043.802-.077.623-.186 1.242-.715 1.649-.611.47-1.464.554-2.186.71-1.099.157-2.262.149-3.27-.378-.139-.072-.258-.177-.386-.265l-.477.586c.164.113.316.244.491.338 1.115.593 2.403.638 3.627.475 1.005-.203 2.1-.376 2.874-1.123.566-.547.715-1.286.797-2.033.012-.286.037-.571.038-.857 0-1.52-.285-3.03-.609-4.51-.427-1.743-.901-3.482-1.121-5.267-.031-.457-.055-.625-.044-1.065a5.89 5.89 0 0 1 .026-.387c.016-.181.043-.313.038-.313-.19-.011-.38.014-.57.022l-.023-.083c.065.261.039.062.067.464.021.304.037.64.034.942-.002.196-.014.391-.021.587-.026.207-.036.417-.076.621-.228 1.153-.903 1.913-1.848 2.571-.23.126-.45.267-.688.377-1.074.497-2.24.624-3.369.247-.187-.08-.386-.137-.56-.243-.978-.596-1.12-1.766-1.052-2.806.117-.867.286-1.706.517-2.551.095-.349.21-.749.367-1.083.029-.06.072-.11.108-.165l-.644-.395z" style="fill:#000;stroke:#000;stroke-width:.6;stroke-linejoin:round;stroke-miterlimit:2;stroke-dasharray:none"/><path id="path173733" d="M270.513 921.514c-.618-.17-1.052.057-1.57.374-.457.422-.685.985-.834 1.575-.143.565-.047 1.097.212 1.608.312.548.843.84 1.423 1.03.632.19 1.267.062 1.874-.15.723-.287 1.116-.64 1.381-1.358.18-.512.087-.99-.112-1.477-.242-.43-.586-.782-.934-1.125-.345-.303-.781-.384-1.21-.496-.238-.058-.124-.032-.342-.081l-.272.705c.205.045.099.02.318.072.326.087.667.124.953.315.292.28.574.574.795.914.143.344.206.657.064 1.017a1.37 1.37 0 0 1-.724.763c-.464.197-.974.337-1.476.215-.425-.116-.835-.303-1.07-.697a1.53 1.53 0 0 1-.13-1.167c.121-.44.292-.877.659-1.171-.013 0-.049.009-.039.002.217-.152.487-.235.747-.169l.287-.699z" style="fill:#000;stroke:#000;stroke-width:.6;stroke-linejoin:round;stroke-miterlimit:2;stroke-dasharray:none"/></g></g></g><path id="path165356" d="M332.98 783.996c.042-.007.083-.02.126-.022.169-.012.645-.01.768-.01.566-.004 1.132-.016 1.698-.027 1.016-.028 2.032 0 3.048.028.825.018 1.65-.005 2.474-.025.584-.005 1.168 0 1.751-.026.159-.004.316-.018.474-.024l.778-3.698c-.207-.008-.415-.018-.623-.004-.558.02-1.114.072-1.673.039-.801.005-1.6.057-2.402.04-1.043.015-2.086-.084-3.13-.045-.945.015-1.89.059-2.835.022l-.454 3.752z" style="fill:#000;stroke:#000;stroke-width:.6;stroke-linejoin:round;stroke-miterlimit:2;stroke-dasharray:none;stroke-opacity:1"/><path id="path165358" d="m349.613 783.883 1.757.072a56.11 56.11 0 0 0 3.132.08c.649-.014 1.298-.014 1.948 0 .548.016 1.094.049 1.643.019.343-.014.685-.033 1.026-.068l.333-3.765c-.261.044-.521.107-.787.097-.14.007-.3.012-.439.031-.046.006-.09.026-.136.028-.273.012-.549-.042-.822-.032a34.758 34.758 0 0 0-2.072-.025c-.99.02-1.978.02-2.967-.046l-1.757-.072-.859 3.681z" style="fill:#000;stroke:#000;stroke-width:.6;stroke-linejoin:round;stroke-miterlimit:2;stroke-dasharray:none;stroke-opacity:1"/><path id="path165360" d="M364.967 783.887c.935-.076 1.88-.028 2.817-.004a46.39 46.39 0 0 0 2.813.035c.647-.01 1.293.003 1.94.023.448.028.897-.005 1.345-.024l.623-3.728c-.375.012-.751.017-1.124.068a49.158 49.158 0 0 0-2.074-.051c-.9.005-1.801.05-2.701-.012a108.44 108.44 0 0 0-3.2-.06l-.439 3.753z" style="fill:#000;stroke:#000;stroke-width:.6;stroke-linejoin:round;stroke-miterlimit:2;stroke-dasharray:none;stroke-opacity:1"/><path id="path165362" d="M380.02 783.881c1.009-.049 2.018-.009 3.027-.018a72.463 72.463 0 0 1 2.786.008c.698.012 1.396.062 2.094.057.34-.007.679-.022 1.018-.035l.64-3.725c-.335.01-.67.02-1.004.038-.176.009-.353.031-.53.032-.467.003-.934-.06-1.401-.056a64.733 64.733 0 0 0-2.906-.033c-1.053.018-2.104.003-3.156-.004l-.567 3.736z" style="fill:#000;stroke:#000;stroke-width:.6;stroke-linejoin:round;stroke-miterlimit:2;stroke-dasharray:none;stroke-opacity:1"/><path id="path165364" d="M395.1 783.937c.603-.122 1.244-.072 1.857-.064 1.034.018 2.067.055 3.1.09.897.026 1.795.005 2.692-.007.33-.012.657-.044.984-.075l.386-3.76c-.269.037-.54.062-.808.097-.797.1-1.613.002-2.414.06-1.05-.037-2.101-.076-3.152-.102-.803-.019-1.606-.04-2.408-.011l-.237 3.772z" style="fill:#000;stroke:#000;stroke-width:.6;stroke-linejoin:round;stroke-miterlimit:2;stroke-dasharray:none;stroke-opacity:1"/><path id="path165366" d="M409.634 783.947h4.684c.948-.01 1.896-.063 2.844-.108.45-.029.9-.085 1.349-.128l.08-.008.475-3.75-.096.006c-.445.03-.89.072-1.331.13-.867.099-1.744.068-2.613.145h-4.684l-.708 3.713z" style="fill:#000;stroke:#000;stroke-width:.6;stroke-linejoin:round;stroke-miterlimit:2;stroke-dasharray:none;stroke-opacity:1"/><path id="path165368" d="M424.582 783.677c.732.02 1.464.075 2.198.1.87.008 1.738.052 2.607.1.79.051 1.585.042 2.373-.039.208-.026.415-.055.623-.084l.235-3.773-.57.087c-.141.025-.28.065-.424.083-.422.054-.86.061-1.284.048-.895-.04-1.786-.122-2.682-.114-.769-.017-1.54-.034-2.303-.12l-.773 3.712z" style="fill:#000;stroke:#000;stroke-width:.6;stroke-linejoin:round;stroke-miterlimit:2;stroke-dasharray:none;stroke-opacity:1"/><path id="path165370" d="M438.134 784.217c.576.001 1.134-.082 1.714-.079 1.013.011 2.024.081 3.035.136 1.031.065 2.064.026 3.095-.01l.693-.028.609-3.73c-.237.006-.473.015-.71.025-.942.038-1.885.093-2.827.062-1.04-.048-2.076-.135-3.117-.153-.42-.016-.835-.04-1.255-.017-.01 0-.484.033-.523.043-.013.003-.004.026-.006.039l-.708 3.712z" style="fill:#000;stroke:#000;stroke-width:.6;stroke-linejoin:round;stroke-miterlimit:2;stroke-dasharray:none;stroke-opacity:1"/><path id="path165372" d="M452.795 784.37c.665-.15 1.354-.194 2.031-.265a47.962 47.962 0 0 1 2.608-.257c.785-.031 1.57-.038 2.355-.085l1.057-.064.541-3.74c-.359.017-.718.037-1.076.061-.772.049-1.54.103-2.314.09a30.94 30.94 0 0 0-2.817.232c-.76.098-1.525.146-2.284.25l-.1 3.777z" style="fill:#000;stroke:#000;stroke-width:.6;stroke-linejoin:round;stroke-miterlimit:2;stroke-dasharray:none;stroke-opacity:1"/><path id="path165374" d="M444.334 851.148c.161-1.198.112-2.417.127-3.624.004-1.214.09-2.427.203-3.636.023-.203.04-.408.054-.612l-3.778.104c-.018.198-.038.395-.055.593-.108 1.289-.189 2.58-.19 3.875-.01 1.22-.027 2.438-.123 3.655l3.762-.355z" style="fill:#000;stroke:#000;stroke-width:.6;stroke-linejoin:round;stroke-miterlimit:2;stroke-dasharray:none;stroke-opacity:1"/><path id="path165376" d="M444.37 836.828c.013.016.029.064.037.046.045-.102.027-.89.03-1.045.048-.966.114-1.932.153-2.899a89.004 89.004 0 0 0 .049-3.728l-3.763.362a81.762 81.762 0 0 1-.059 3.59c-.044.99-.122 1.979-.148 2.97-.013.553-.05 1.113.046 1.662l3.656-.958z" style="fill:#000;stroke:#000;stroke-width:.6;stroke-linejoin:round;stroke-miterlimit:2;stroke-dasharray:none;stroke-opacity:1"/><path id="path165378" d="M444.48 822.851c.01-.038.026-.076.029-.115.019-.345.005-.692.008-1.037l.016-1.8a309.693 309.693 0 0 0 .012-3.418l-3.763.356-.001 1.11c-.002.76-.007 1.52-.014 2.281-.01 1.16-.059 2.326.033 3.484l3.68-.86z" style="fill:#000;stroke:#000;stroke-width:.6;stroke-linejoin:round;stroke-miterlimit:2;stroke-dasharray:none;stroke-opacity:1"/><path id="path165380" d="M444.432 810.635v-5.383c0-.066-.01-.133 0-.199.002-.011.026-.005.031-.015.017-.039.02-.082.03-.123.036-.15.059-.3.084-.452.032-.24.042-.484.049-.727l-3.774.211c-.01.116-.025.231-.05.344-.08.436-.159.871-.133 1.317v5.383l3.763-.356z" style="fill:#000;stroke:#000;stroke-width:.6;stroke-linejoin:round;stroke-miterlimit:2;stroke-dasharray:none;stroke-opacity:1"/><path id="path165382" d="M444.526 797.979v-6.709l-3.762.267v6.709l3.762-.267z" style="fill:#000;stroke:#000;stroke-width:.6;stroke-linejoin:round;stroke-miterlimit:2;stroke-dasharray:none;stroke-opacity:1"/><path id="path165384" d="M444.526 785.484v-8.719l-3.762.487v8.719l3.762-.487z" style="fill:#000;stroke:#000;stroke-width:.600001;stroke-linejoin:round;stroke-miterlimit:2;stroke-dasharray:none;stroke-opacity:1"/><path id="path165386" d="M444.48 770.414c.01-.032.026-.062.028-.095.02-.35.006-.699.009-1.048l.016-1.788c.007-.761.01-1.523.011-2.284v-2.268l-3.762.356v2.26c-.003.755-.008 1.51-.014 2.265-.01 1.154-.06 2.312.032 3.463l3.68-.86z" style="fill:#000;stroke:#000;stroke-width:.6;stroke-linejoin:round;stroke-miterlimit:2;stroke-dasharray:none;stroke-opacity:1"/><path id="path165388" d="M444.526 757.085v-8.036l-3.762.356v8.036l3.762-.356z" style="fill:#000;stroke:#000;stroke-width:.6;stroke-linejoin:round;stroke-miterlimit:2;stroke-dasharray:none;stroke-opacity:1"/><g id="g165422" transform="translate(0 373.167)"><path id="path165390" d="M200 477.8v-7.053c-.007-.7.036-1.4-.066-2.094a4.258 4.258 0 0 0-.35-1.04l-3.375 1.702.028.122v8.719l3.762-.356z" style="opacity:1;fill:#000;stroke:#000;stroke-width:.6;stroke-linejoin:round;stroke-miterlimit:2;stroke-dasharray:none;stroke-opacity:1"/><path id="path165392" d="M199.729 462.394a166.481 166.481 0 0 1-.228-4.538 93.353 93.353 0 0 1-.044-2.86v-1.583c.04-.494-.066-.782-.22-1.292l-3.385 1.68c-.312-1.188-.105-.378-.157-.037-.001.534-.002 1.068 0 1.602.006.987.02 1.973.056 2.958.056 1.476.142 2.95.215 4.426l3.763-.356z" style="opacity:1;fill:#000;stroke:#000;stroke-width:.6;stroke-linejoin:round;stroke-miterlimit:2;stroke-dasharray:none;stroke-opacity:1"/><path id="path165394" d="M199.482 446.016c-.014-1.368-.08-2.736-.103-4.104a95.491 95.491 0 0 1 .012-3.256c.011-.544.026-1.089.04-1.633l.012-.45-3.77.257-.012.451c-.015.554-.029 1.107-.038 1.661a101.745 101.745 0 0 0-.003 3.365c.026 1.324.097 2.648.09 3.972l3.771-.263z" style="opacity:1;fill:#000;stroke:#000;stroke-width:.6;stroke-linejoin:round;stroke-miterlimit:2;stroke-dasharray:none;stroke-opacity:1"/><path id="path165396" d="M199.661 430.375v-7.611l-3.762.355v7.612l3.762-.356z" style="opacity:1;fill:#000;stroke:#000;stroke-width:.6;stroke-linejoin:round;stroke-miterlimit:2;stroke-dasharray:none;stroke-opacity:1"/><path id="path165398" d="M199.729 416.502V406.13l-3.763.419v10.372l3.763-.419z" style="opacity:1;fill:#000;stroke:#000;stroke-width:.6;stroke-linejoin:round;stroke-miterlimit:2;stroke-dasharray:none;stroke-opacity:1"/><path id="path165400" d="M199.729 400.337v-8.65l-3.763.355v8.651l3.763-.356z" style="opacity:1;fill:#000;stroke:#000;stroke-width:.6;stroke-linejoin:round;stroke-miterlimit:2;stroke-dasharray:none;stroke-opacity:1"/><path id="path165402" d="M199.729 386.18v-4.94c-.018-.946-.162-1.882-.24-2.822a11.027 11.027 0 0 1-.035-.833l-3.756.424c.013.347.032.694.065 1.039.081.848.193 1.694.203 2.547v4.942l3.763-.356z" style="opacity:1;fill:#000;stroke:#000;stroke-width:.6;stroke-linejoin:round;stroke-miterlimit:2;stroke-dasharray:none;stroke-opacity:1"/><path id="path165404" d="M168.15 410.993c.06-.014.118-.036.18-.043.963-.102 1.954-.059 2.92-.052.886.006 1.734.017 2.619.027 1.235.017.664.01 1.712.025l.759-3.703c-1.057-.018-.482-.009-1.725-.027-2.12-.028-4.244-.088-6.364-.005l-.1 3.778z" style="opacity:1;fill:#000;stroke:#000;stroke-width:.6;stroke-linejoin:round;stroke-miterlimit:2;stroke-dasharray:none;stroke-opacity:1"/><path id="path165406" d="M181.37 411.162a145.04 145.04 0 0 1 4.43-.151 38.047 38.047 0 0 0 3.378-.156c.466-.038.255-.007.634-.08l-.249-3.771c-.036.058-.034.027.011.092-1.037.114-2.077.207-3.122.192-.974.016-1.949.033-2.923.064-.009 0-1.2.041-1.329.054-.043.004-.082.03-.123.044l-.708 3.712z" style="opacity:1;fill:#000;stroke:#000;stroke-width:.6;stroke-linejoin:round;stroke-miterlimit:2;stroke-dasharray:none;stroke-opacity:1"/><path id="path165408" d="M194.707 411.04c.021-.011.04-.032.065-.034.439-.035.882-.004 1.322-.006 1.226-.006 2.45-.035 3.676-.062 1.455-.034 2.91-.066 4.365-.088l.77-3.722c-1.468.019-2.934.048-4.4.083-1.893.043-3.787.116-5.68.051l-.118 3.778z" style="opacity:1;fill:#000;stroke:#000;stroke-width:.6;stroke-linejoin:round;stroke-miterlimit:2;stroke-dasharray:none;stroke-opacity:1"/><path id="path165410" d="M209.934 411.186c1.698.01 3.392-.131 5.084-.26.803-.063 1.606-.127 2.41-.194l.45-3.752c-.796.069-1.592.133-2.388.195-1.614.127-3.23.277-4.848.299l-.708 3.712z" style="opacity:1;fill:#000;stroke:#000;stroke-width:.6;stroke-linejoin:round;stroke-miterlimit:2;stroke-dasharray:none;stroke-opacity:1"/><path id="path165412" d="M222.907 411.033a107.45 107.45 0 0 0 4.098-.045l3.51-.123.585-3.734c-1.164.054-2.329.075-3.493.125-1.33.05-2.66.084-3.992.064l-.708 3.713z" style="opacity:1;fill:#000;stroke:#000;stroke-width:.6;stroke-linejoin:round;stroke-miterlimit:2;stroke-dasharray:none;stroke-opacity:1"/><path id="path165414" d="M236.13 411.135a84.692 84.692 0 0 1 3.193-.275c1.09-.064 2.18-.09 3.27-.108l.3-.003.686-3.717h-.312c-1.14.009-2.28.036-3.42.085-1.15.06-2.294.188-3.445.249l-.273 3.77z" style="opacity:1;fill:#000;stroke:#000;stroke-width:.6;stroke-linejoin:round;stroke-miterlimit:2;stroke-dasharray:none;stroke-opacity:1"/><path id="path165416" d="M248.609 411.041c1.937-.095 3.878-.076 5.817-.116.98-.036.521-.016 1.376-.057l.578-3.743c-.79.05-.366.026-1.272.072-1.977.073-3.956.029-5.933.1l-.566 3.744z" style="opacity:1;fill:#000;stroke:#000;stroke-width:.600001;stroke-linejoin:round;stroke-miterlimit:2;stroke-dasharray:none;stroke-opacity:1"/><path id="path165418" d="M261.41 410.937c.141.006.282.019.424.019.3 0 .6-.027.901-.032.763-.012 1.528.002 2.291.003 1.362-.014 2.724-.019 4.085-.01l.502.005.879-3.696c-.316-.006-.142-.003-.52-.008-1.38-.016-2.759-.02-4.138 0-.778.01-1.554-.01-2.332-.01-.038 0-.91.001-1.02.013-.032.004-.056.028-.083.042l-.99 3.674z" style="opacity:1;fill:#000;stroke:#000;stroke-width:.6;stroke-linejoin:round;stroke-miterlimit:2;stroke-dasharray:none;stroke-opacity:1"/><path id="path165420" d="M275.521 410.893c1.123-.054 2.247-.055 3.37-.068 1.14-.013 2.28.022 3.42.07l.541.025 1.084-3.646a14.97 14.97 0 0 0-.621-.045 74.476 74.476 0 0 0-3.623-.112c-1.17.01-2.34.019-3.508.045l-.663 3.73z" style="opacity:1;fill:#000;stroke:#000;stroke-width:.6;stroke-linejoin:round;stroke-miterlimit:2;stroke-dasharray:none;stroke-opacity:1"/></g></g></g></svg>