<?xml version="1.0" encoding="UTF-8" standalone="no"?>
<!-- Created with Inkscape (http://www.inkscape.org/) -->

<svg
   width="299.53693"
   height="19.091553"
   viewBox="0 0 299.53693 19.091552"
   version="1.1"
   id="svg1"
   xml:space="preserve"
   xmlns="http://www.w3.org/2000/svg"
   xmlns:svg="http://www.w3.org/2000/svg"><defs
     id="defs1" /><g
     id="layer1"
     transform="translate(72.138354,-824.32368)"><path
       style="font-size:40px;font-family:'Bowlby One';-inkscape-font-specification:'Bowlby One';letter-spacing:1.5px;stroke-width:0.999997;stroke-dasharray:1.5, 0.999997"
       d="m 224.38049,824.41564 0.57444,-0.009 q 0.11853,0 0.25529,0.2006 v -0.0184 l 0.5015,1.37682 q 0.53798,1.48626 0.82063,2.36158 0.29177,0.86623 0.57442,2.22481 0.29179,1.35858 0.29179,2.48922 -0.0455,1.47712 -0.40118,2.78101 -0.3465,1.30388 -1.01211,3.29162 -0.66562,1.98773 -0.92093,2.23392 -0.96652,0.0547 -1.54095,0.0547 h -0.29178 l -0.27354,-0.009 h -0.55621 q -0.64738,0 -0.93004,0.0273 l 0.0912,-0.25531 q 0,-0.009 0.009,-0.0184 l 0.0455,-0.10021 q 1.42241,-4.80522 1.42241,-7.9783 0,-2.28863 -1.15799,-6.39175 l -0.58356,-2.06068 q 0.0821,-0.12765 0.18237,-0.20061 z"
       id="path36" /><path
       id="path5"
       style="font-size:40px;font-family:'Bowlby One';-inkscape-font-specification:'Bowlby One';letter-spacing:1.5px;stroke-width:0.999997;stroke-dasharray:1.5, 0.999997"
       d="m -62.90766,841.39257 0.03322,-0.0497 -0.02489,0.0829 z m 7.40054,-6.66447 -0.0082,0.12434 q 0,0.29012 0.01656,0.43103 0.02489,0.13263 0.174072,0.32327 0.14921,0.18237 0.969833,0.18237 l 0.223806,0.008 q 0.124338,0 0.223808,-0.0248 l 0.0083,3.09185 h -4.534164 l -0.28182,0.0167 h -0.09114 q -0.306701,0 -0.671426,-0.19893 -0.364716,-0.19894 -0.547078,-0.34815 -0.174063,-0.15749 -0.298402,-0.39787 -0.232096,-0.44762 -0.281839,-0.87865 -0.04145,-0.43933 -0.04145,-1.08588 v -4.59218 h -0.978118 l -0.0082,-1.16048 v -1.18534 h 0.953256 v -2.74372 h 2.561339 l 2.561348,-0.008 0.0082,2.73541 h 1.384285 l 0.0083,1.18534 v 1.17706 h -1.351133 z m 7.408833,-1.376 0.0829,0.008 h 0.198939 q 0.28183,0 0.439323,-0.0414 l 0.447615,-0.058 q 1.1439,-0.0829 1.375996,-0.6134 0.116049,-0.26525 0.116049,-0.67142 -0.04973,-0.0829 -0.04973,-0.31498 0,-0.23209 -0.240385,-0.48906 -0.232096,-0.25697 -0.555372,-0.25697 h -0.04145 q -0.795756,0 -0.795756,1.35113 -0.04145,0.0662 -0.140916,0.0497 -0.09118,-0.0167 -0.455903,-0.0167 h -4.277193 q 0.04145,-0.57195 0.298409,-1.23508 0.489059,-1.27654 1.889923,-1.83191 1.409154,-0.56366 2.79344,-0.61339 l 0.497349,-0.0249 0.265252,-0.0248 q 0.04973,0 0.09947,0.0248 h 0.107759 l 0.373012,-0.0167 q 0.116047,0 0.522215,0.058 l 0.240385,0.0331 q 0.05802,0.008 0.182361,0.008 0.124337,0 0.522215,0.058 0.39788,0.0497 0.994697,0.28183 2.022549,0.79575 2.453584,3.0504 0.182362,0.95325 0.182362,2.11373 0.05802,0.19065 0.05802,0.34814 l -0.04145,0.57195 v 0.96155 q 0.0083,0.0166 0.0083,0.14091 l -0.01658,0.56366 v 0.0746 q 0.02486,0.0415 0.02486,0.11604 l -0.0083,0.0746 v 0.17406 q 0,0.78748 0.240385,1.49205 l 0.0829,0.18237 h -3.746691 l -0.298409,-0.008 q -0.331565,0 -0.505637,0.008 -0.265252,-0.49735 -0.505637,-1.35942 -0.107759,0.2238 -0.373011,0.51393 -0.256963,0.28182 -0.381301,0.28182 -1.226792,0.59682 -1.865056,0.67971 -0.944962,0.1575 -1.019564,0.1575 -0.06631,0 -0.06631,0 -1.981104,0 -2.992379,-1.376 -0.505637,-0.70458 -0.505637,-1.63296 0,-2.01426 1.873345,-2.47016 0.48077,-0.11605 1.856767,-0.24039 l 0.273541,-0.0249 z m 2.718838,1.92309 0.0083,-0.26526 q 0,-0.41445 -0.06632,-0.79576 -0.182361,0.0995 -0.530504,0.22381 -0.348145,0.12433 -0.555372,0.21553 -0.207229,0.0829 -0.381301,0.30669 -0.165782,0.21551 -0.165782,0.59681 0,0.38131 0.240384,0.6963 0.248674,0.31498 0.538794,0.31498 0.621685,0 0.886938,-0.44762 l 0.01657,-0.0829 0.0083,-0.51392 z m 6.579918,-6.33291 2.138597,-0.008 h 2.163466 q 0.157493,0.32327 0.28183,0.54708 l 0.314987,0.58024 q 0.878648,-0.80405 1.616382,-1.13562 0.746022,-0.33985 1.624671,-0.33985 0.878648,0 1.574936,0.32327 1.226792,0.57196 1.815321,1.93967 0.596818,1.3677 0.596818,2.91777 0,0.19893 -0.03315,0.36473 -0.132626,1.44231 -0.505637,2.39555 -0.364722,0.94496 -1.293106,1.79875 v -0.008 q -0.828914,0.71286 -1.574936,0.71286 -0.215518,0.0995 -0.439323,0.0995 -0.215518,0 -0.613397,-0.058 -0.38959,-0.0497 -0.513927,-0.11603 -1.15219,-0.24868 -1.865056,-0.97812 l -0.314987,0.008 q 0.0746,0.47249 0.0746,0.81234 l -0.0083,0.14921 v 2.53648 l -2.519898,0.008 h -2.511608 l -0.0083,-6.27488 z m 6.938007,5.74437 0.04145,-0.52221 q -0.0083,-0.008 -0.0083,-0.0332 0,-0.0248 0.0083,-0.0414 v -0.14091 q 0,-0.40617 -0.03316,-0.67141 l -0.04973,-0.34815 q -0.01657,-0.0829 -0.09118,-0.50564 -0.19894,-1.0693 -0.837204,-1.0693 -1.027852,0 -1.027852,2.70227 0,1.48374 0.455902,2.16346 0.215517,0.31498 0.530505,0.38959 0.86207,-0.0746 1.011275,-1.92309 z m 17.528212,-1.33455 0.08289,0.008 h 0.198939 q 0.28183,0 0.439325,-0.0414 l 0.447613,-0.058 q 1.143901,-0.0829 1.375996,-0.6134 0.116049,-0.26525 0.116049,-0.67142 -0.04973,-0.0829 -0.04973,-0.31498 0,-0.23209 -0.240385,-0.48906 -0.232096,-0.25697 -0.555373,-0.25697 h -0.04144 q -0.795757,0 -0.795757,1.35113 -0.04145,0.0662 -0.140916,0.0497 -0.09118,-0.0167 -0.455903,-0.0167 h -4.277193 q 0.04145,-0.57195 0.298408,-1.23508 0.48906,-1.27654 1.889924,-1.83191 1.409153,-0.56366 2.79344,-0.61339 l 0.497348,-0.0249 0.265252,-0.0248 q 0.04973,0 0.09947,0.0248 h 0.107759 l 0.373011,-0.0167 q 0.116048,0 0.522216,0.058 l 0.240386,0.0331 q 0.05802,0.008 0.182359,0.008 0.124338,0 0.522217,0.058 0.397879,0.0497 0.9946961,0.28183 2.02255,0.79575 2.4535851,3.0504 0.1823607,0.95325 0.1823607,2.11373 0.058024,0.19065 0.058024,0.34814 l -0.041452,0.57195 v 0.96155 q 0.00833,0.0166 0.00833,0.14091 l -0.016572,0.56366 v 0.0746 q 0.024862,0.0415 0.024862,0.11604 l -0.00833,0.0746 v 0.17406 q 0,0.78748 0.2403848,1.49205 l 0.082895,0.18237 h -3.7466907 l -0.298409,-0.008 q -0.331565,0 -0.505637,0.008 -0.265252,-0.49735 -0.505638,-1.35942 -0.107759,0.2238 -0.373011,0.51393 -0.256963,0.28182 -0.381301,0.28182 -1.226791,0.59682 -1.865056,0.67971 -0.944961,0.1575 -1.019563,0.1575 -0.06631,0 -0.06631,0 -1.981105,0 -2.99238,-1.376 -0.505637,-0.70458 -0.505637,-1.63296 0,-2.01426 1.873344,-2.47016 0.480771,-0.11605 1.856768,-0.24039 l 0.273542,-0.0249 z m 2.718838,1.92309 0.0083,-0.26526 q 0,-0.41445 -0.06631,-0.79576 -0.18236,0.0995 -0.530505,0.22381 -0.348144,0.12433 -0.555372,0.21553 -0.207228,0.0829 -0.381301,0.30669 -0.165782,0.21551 -0.165782,0.59681 0,0.38131 0.240385,0.6963 0.248675,0.31498 0.538794,0.31498 0.621685,0 0.886938,-0.44762 l 0.01657,-0.0829 0.0083,-0.51392 z m 8.9174535,-6.33291 2.22148879,-0.008 q 0.0414523,0.17407 0.14920441,0.54708 0.10775945,0.37301 0.20722936,0.74602 l 0.15749304,0.62169 q 0.33156606,-0.83721 0.40616735,-0.92839 l 0.13262716,-0.16578 q 0.83720239,-1.17706 2.56963219,-1.17706 0.8206242,0 1.5583577,0.49735 0.7460229,0.48906 1.1604789,1.28481 0.414456,0.78748 0.414456,1.66612 0,0.0995 -0.024871,0.15749 v 5.09783 l 0.00824,1.58323 H 1.4143499 l -0.016572,-4.14457 0.033153,-0.8455 q 0,-1.26824 -0.67142072,-1.26824 -0.72115433,0 -0.72115433,1.20193 0,0.26525 0.0083271,0.36473 v 0.12433 l 0.0083271,0.14092 v 4.4181 l -2.47016315,0.008 H -4.893606 l -0.00833,-4.97349 v -4.95689 z m 12.0921958,11.066 q 0.7708867,-0.26525 0.7708867,-1.50034 0,-0.46418 -0.314983,-1.46718 l -0.1326272,-0.41445 q -0.9698305,-3.10842 -2.4287182,-7.67574 h 2.5281863 l 2.4950321,-0.008 0.373009,2.14689 q 0.04146,0.35643 0.132625,1.01127 0.09119,0.65485 0.132627,0.98641 l 0.80405,-4.14457 h 4.898877 v -0.0166 l 0.165784,0.0166 -0.04146,0.16578 h -0.0166 l -2.188334,6.06766 q -0.339853,0.85378 -0.505639,1.43401 -0.16578,0.57195 -0.373008,1.07759 -0.207228,0.50564 -0.729444,1.98111 -0.513928,1.48375 -0.986409,2.32924 -0.746021,1.26824 -2.378982,1.376 l -0.77918,0.008 -0.67142,0.0332 q -0.1906508,0 -0.3232761,-0.0249 -0.058024,0.0167 -0.1740694,0.0167 l -0.50564,-0.0249 -0.3232765,0.0249 q -0.041461,0 -0.2072285,-0.0167 -0.3481424,0 -0.6962848,0 l -0.1574966,-0.42275 q -0.016599,-0.0497 -0.016599,-0.13263 0,-0.0746 0.00824,-0.10775 v -0.058 l 0.00824,-0.0829 v -0.94497 q 0,-0.97812 -0.00824,-1.4506 0.1160481,-0.0166 0.2486752,-0.0166 0.1409149,0 0.2238048,0.0248 0.116049,-0.0248 0.3067002,-0.0248 h 0.066315 q 0.066314,-0.0414 0.298407,-0.0746 0.232098,-0.0331 0.3564356,-0.0662 0.1243376,-0.0331 0.1409148,-0.0331 z m 19.7513557,-10.98311 0.613396,3.96222 h 0.0166 q 0.116045,-0.62998 0.298407,-1.80705 l 0.132626,-0.86207 0.11605,-0.61339 q 0.05802,-0.56366 0.116048,-0.77917 h 5.429382 q -0.480769,2.24634 -1.773872,8.11505 l -0.464192,1.82362 h -5.271894 l -0.182362,-1.38429 q -0.140915,-0.9118 -0.298407,-2.18004 -0.149203,-1.27653 -0.165785,-1.27653 l -0.729457,4.84086 h -5.611743 q -0.28183,-1.30968 -0.571952,-3.17474 -0.290119,-1.87334 -0.348143,-2.23807 l -0.174074,-1.10245 q 0,-0.008 -0.580236,-3.4317 h 2.776857 l 2.760284,-0.008 q 0.0166,0.22382 0.04146,0.33157 l 0.04973,0.35643 q 0.298412,2.61108 0.364724,3.48144 h 0.03314 q 0.03314,-0.19893 0.09947,-0.66314 0.06631,-0.47248 0.10776,-0.72944 l 0.406167,-2.42872 0.0166,-0.21551 q 0.903517,-0.0166 2.793438,-0.0166 z m 18.856133,4.31864 0.0082,2.57792 v 1.51692 l 0.0082,1.42573 h -4.708149 l -0.0082,-4.24405 0.02487,-0.92009 q 0,-0.7543 -0.223805,-1.11903 -0.215517,-0.373 -0.538793,-0.373 -0.613396,0 -0.762603,0.61339 -0.107756,0.43104 -0.107756,1.12732 v 1.06101 l 0.0082,0.34814 v 3.49802 l -2.378983,0.008 h -2.362404 l -0.0082,-6.49868 v -6.50697 q 1.666117,-0.0167 4.799414,-0.0167 l 0.0082,4.17773 q 0.580237,-0.65484 1.409154,-1.04443 0.837204,-0.38959 1.525201,-0.38959 0.687996,0 1.351128,0.33157 0.66313,0.33157 1.094168,0.87865 0.36472,0.57195 0.621684,1.38429 0.256964,0.80404 0.256964,1.34284 z m 5.759292,-4.6502 q 0.373013,-0.10777 0.795758,-0.10777 0.422744,0 0.804045,0.0332 l 0.348143,0.0331 q 0.820627,0.0746 1.259949,0.19065 v -0.008 l 0.174073,0.0746 q 1.740718,0.5388 2.710549,1.64125 v -0.008 q 0.223809,0.26525 0.547083,0.80404 0.331567,0.53051 0.331567,0.73774 l 0.06629,0.22381 0.04145,0.24039 q 0.157488,0.55537 0.157488,0.92838 0,0.37301 0.0082,0.57195 H 54.1763 v 0.27353 q 0.04974,0.19066 0.04974,0.39789 0,0.20722 0,0.33156 0.0082,0.11605 0.02487,0.2321 0.0166,0.10776 0.0166,0.18236 0.0082,0.0662 0.04142,0.16578 0.03314,0.0911 0.03314,0.12434 0.0082,0.0331 0.04974,0.13262 0.04973,0.0995 0.0746,0.19065 0.03314,0.0829 0.116045,0.16579 v -0.008 l 0.09119,0.17407 q 0.157492,0.17407 0.431032,0.24867 0.455904,-0.0995 0.613401,-0.47248 0.165779,-0.37301 0.27354,-0.92838 0.298407,-0.0829 0.845489,-0.0829 l 1.06101,0.0249 h 3.058697 q -0.09947,1.01128 -0.596819,1.85677 h 0.0082 q -0.431039,0.6797 -1.342846,1.16877 -2.577918,0.90351 -3.307362,0.90351 -0.132626,0 -0.215521,-0.0167 h -0.19065 l -0.0746,0.008 h -0.0746 q -0.06632,0 -0.165781,-0.0167 -0.0829,0.0497 -0.198939,0.0497 l -0.721156,-0.0829 q -0.05802,0.0249 -0.240386,0.0249 -0.174069,0 -0.928384,-0.22381 v 0.008 l -0.198939,-0.058 -0.198939,-0.0662 q -1.243372,-0.36472 -2.130308,-1.27652 -0.886937,-0.9201 -1.135612,-2.1386 -0.02486,-0.1492 -0.09118,-0.44762 -0.06631,-0.30669 -0.06631,-0.41445 v -0.39788 q 0,-0.14092 0.0082,-0.21552 v -0.12434 q 0,-1.75729 1.044429,-3.03382 1.044433,-1.28482 2.801732,-1.80703 l 0.198939,-0.058 q 0.439322,-0.0746 0.629973,-0.15749 z m 2.47845,4.26061 0.174074,-0.10776 q -0.140915,-0.89522 -0.265252,-1.1439 -0.124338,-0.25696 -0.240387,-0.43931 -0.215516,-0.34815 -0.571948,-0.34815 -0.348142,0 -0.596817,0.34815 -0.439327,0.61339 -0.555375,1.72414 0.530504,-0.0332 0.978119,-0.0332 z m 6.165462,-4.02022 2.204911,-0.008 h 2.204911 l 0.182362,1.11075 q 0.190653,1.16877 0.223803,1.32626 h 0.290126 q 0.306693,-1.41744 1.177053,-2.01426 l 0.331567,-0.19065 q 0.0249,-0.0497 0.298409,-0.18237 l -0.03311,0.008 0.190646,-0.0746 q 0.812338,-0.32327 1.400864,-0.33156 0.124332,0 0.16578,0.0167 h 0.3067 v 4.62534 q -0.17407,-0.0415 -0.547085,-0.0415 -0.373008,0 -0.770889,0.10776 -0.38959,0.10776 -0.663126,0.28183 -0.265252,0.16578 -0.464196,0.43104 -0.613393,0.82062 -0.613393,2.46187 l 0.01663,0.87036 v 1.5252 l -2.950941,0.008 h -2.942643 l -0.0082,-4.94861 z m 14.686699,-0.24039 q 0.373008,-0.10777 0.795755,-0.10777 0.422748,0 0.804046,0.0332 l 0.348142,0.0331 q 0.820621,0.0746 1.259951,0.19065 v -0.008 l 0.174071,0.0746 q 1.740722,0.5388 2.710548,1.64125 v -0.008 q 0.223811,0.26525 0.547086,0.80404 0.331567,0.53051 0.331567,0.73774 l 0.06629,0.22381 0.04145,0.24039 q 0.157496,0.55537 0.157496,0.92838 0,0.37301 0.0082,0.57195 H 77.50695 v 0.27353 q 0.04973,0.19066 0.04973,0.39789 0,0.20722 0,0.33156 0.0082,0.11605 0.0249,0.2321 0.01655,0.10776 0.01655,0.18236 0.0082,0.0662 0.04145,0.16578 0.03311,0.0911 0.03311,0.12434 0.0082,0.0331 0.04973,0.13262 0.04973,0.0995 0.0746,0.19065 0.03311,0.0829 0.116047,0.16579 v -0.008 l 0.09118,0.17407 q 0.157495,0.17407 0.431038,0.24867 0.455898,-0.0995 0.613393,-0.47248 0.165788,-0.37301 0.273543,-0.92838 0.298409,-0.0829 0.845488,-0.0829 l 1.061014,0.0249 h 3.05869 q -0.09946,1.01128 -0.596818,1.85677 h 0.0082 q -0.431032,0.6797 -1.342841,1.16877 -2.577919,0.90351 -3.307367,0.90351 -0.132622,0 -0.215511,-0.0167 H 78.64246 l -0.0746,0.008 h -0.07461 q -0.06629,0 -0.165786,-0.0167 -0.08289,0.0497 -0.198937,0.0497 l -0.721157,-0.0829 q -0.05801,0.0249 -0.240379,0.0249 -0.174077,0 -0.928384,-0.22381 v 0.008 l -0.198937,-0.058 -0.198944,-0.0662 q -1.243369,-0.36472 -2.130305,-1.27652 -0.886944,-0.9201 -1.135613,-2.1386 -0.0249,-0.1492 -0.09118,-0.44762 -0.06629,-0.30669 -0.06629,-0.41445 v -0.39788 q 0,-0.14092 0.0082,-0.21552 v -0.12434 q 0,-1.75729 1.044432,-3.03382 1.044432,-1.28482 2.801729,-1.80703 l 0.198936,-0.058 q 0.439323,-0.0746 0.629976,-0.15749 z m 2.478446,4.26061 0.174078,-0.10776 q -0.140913,-0.89522 -0.265251,-1.1439 -0.124339,-0.25696 -0.240393,-0.43931 -0.215513,-0.34815 -0.571952,-0.34815 -0.348141,0 -0.596811,0.34815 -0.439323,0.61339 -0.555377,1.72414 0.530511,-0.0332 0.978124,-0.0332 z m 18.912497,1.77388 -0.0082,0.12434 q 0,0.29012 0.01665,0.43103 0.02489,0.13263 0.174072,0.32327 0.149201,0.18237 0.969828,0.18237 l 0.223805,0.008 q 0.124339,0 0.223815,-0.0248 l 0.008,3.09185 h -4.534158 l -0.281827,0.0167 h -0.09119 q -0.306692,0 -0.671416,-0.19893 -0.364717,-0.19894 -0.547078,-0.34815 -0.174079,-0.15749 -0.298417,-0.39787 -0.232095,-0.44762 -0.281826,-0.87865 -0.04145,-0.43933 -0.04145,-1.08588 v -4.59218 h -0.978124 l -0.0082,-1.16048 v -1.18534 h 0.953244 v -2.74372 h 2.561351 l 2.561334,-0.008 0.0082,2.73541 h 1.384296 l 0.0082,1.18534 v 1.17706 H 98.48352 Z m 15.27522,-0.88694 q -0.0166,0.0829 -0.0166,0.0995 v 0.0663 q -0.0249,1.3677 -0.62998,2.46187 h 0.008 q -0.84549,1.29311 -2.36241,1.9894 -1.50861,0.69629 -2.9758,0.69629 -1.46718,0 -2.437,-0.29012 -0.96154,-0.28183 -1.78217,-0.82892 -0.82063,-0.54708 -1.21849,-1.05273 -0.94498,-1.19363 -0.94498,-3.37367 0,-0.0746 0.0249,-0.12434 v -0.13263 q -0.0249,-0.0331 -0.0249,-0.0662 l 0.0166,-0.0911 h -0.008 q 0.15749,-1.4506 0.61339,-1.9065 0,-0.0911 0.11605,-0.20723 v 0.008 l 0.12433,-0.19894 q 0.97813,-1.25165 2.23807,-1.71585 l 0.29013,-0.10775 q 0.54708,-0.26525 1.53348,-0.39788 l 0.26526,-0.0249 q 0.058,-0.008 0.23209,-0.0166 0.18237,-0.008 0.25696,-0.0332 l 0.35644,0.008 q 0.0248,-0.008 0.058,-0.008 0.0331,0 0.0746,0.008 l -0.008,-0.008 q 0.0497,0.0249 0.14921,0.0249 0.0332,-0.0331 0.11604,-0.0331 1.79875,0 3.0587,0.73774 l 0.16578,0.0746 q 2.71055,1.30139 2.71055,4.44297 z m -5.15584,0.0497 q -0.0331,-1.64954 -0.47248,-2.22978 -0.18237,-0.24039 -0.44761,-0.24039 -0.25696,0 -0.45591,0.30671 -0.19894,0.29841 -0.32328,0.94496 -0.11605,0.64656 -0.11605,1.15218 0,0.49736 0.0415,0.86207 0.0497,0.35645 0.14092,0.76261 0.0911,0.39788 0.28183,0.67141 0.19065,0.26526 0.43103,0.26526 0.92009,0 0.92009,-2.49503 z m 13.193,-4.9569 2.2049,-0.008 h 2.20491 l 0.18237,1.11074 q 0.19065,1.16877 0.2238,1.32626 h 0.29012 q 0.3067,-1.41743 1.17706,-2.01426 l 0.33158,-0.19065 q 0.0248,-0.0497 0.2984,-0.18236 l -0.0331,0.008 0.19065,-0.0746 q 0.81233,-0.32328 1.40086,-0.33157 0.12434,0 0.16579,0.0167 h 0.3067 v 4.62533 q -0.17408,-0.0414 -0.5471,-0.0414 -0.37301,0 -0.77087,0.10776 -0.3896,0.10775 -0.66314,0.28183 -0.26525,0.16578 -0.46419,0.43104 -0.6134,0.82061 -0.6134,2.46187 l 0.0166,0.87036 v 1.52519 l -2.95093,0.008 h -2.94264 l -0.008,-4.94861 z m 14.68669,-0.24039 q 0.37301,-0.10776 0.79576,-0.10776 0.42274,0 0.80405,0.0332 l 0.34814,0.0331 q 0.82063,0.0746 1.25995,0.19065 v -0.008 l 0.17407,0.0746 q 1.74072,0.5388 2.71055,1.64126 v -0.008 q 0.22381,0.26525 0.54708,0.80405 0.33157,0.53051 0.33157,0.73773 l 0.0662,0.22382 0.0414,0.24038 q 0.15749,0.55537 0.15749,0.92839 0,0.373 0.008,0.57195 h -6.83026 v 0.27353 q 0.0497,0.19065 0.0497,0.39788 0,0.20723 0,0.33157 0.008,0.11605 0.0249,0.23209 0.0167,0.10776 0.0167,0.18237 0.008,0.0662 0.0414,0.16578 0.0331,0.0911 0.0331,0.12434 0.008,0.0331 0.0497,0.13262 0.0497,0.0995 0.0746,0.19065 0.0332,0.0829 0.11606,0.16578 v -0.008 l 0.0911,0.17408 q 0.1575,0.17407 0.43104,0.24866 0.45591,-0.0995 0.61339,-0.47248 0.16579,-0.373 0.27355,-0.92837 0.2984,-0.0829 0.84549,-0.0829 l 1.06101,0.0249 h 3.05868 q -0.0995,1.01128 -0.59681,1.85677 h 0.008 q -0.43103,0.67971 -1.34284,1.16877 -2.57793,0.90352 -3.30737,0.90352 -0.13263,0 -0.21551,-0.0167 h -0.19066 l -0.0746,0.008 h -0.0746 q -0.0662,0 -0.16578,-0.0167 -0.0829,0.0497 -0.19895,0.0497 l -0.72115,-0.0829 q -0.058,0.0249 -0.24038,0.0249 -0.17407,0 -0.92839,-0.22382 v 0.008 l -0.19893,-0.058 -0.19894,-0.0662 q -1.24338,-0.36471 -2.13031,-1.27652 -0.88694,-0.92009 -1.13561,-2.1386 -0.0248,-0.1492 -0.0911,-0.44762 -0.0662,-0.30669 -0.0662,-0.41445 v -0.39788 q 0,-0.14091 0.008,-0.21552 v -0.12434 q 0,-1.75728 1.04443,-3.03382 1.04444,-1.28482 2.80173,-1.80703 l 0.19893,-0.058 q 0.43933,-0.0746 0.62999,-0.15749 z m 2.47846,4.26061 0.17407,-0.10776 q -0.14092,-0.89522 -0.26526,-1.1439 -0.12434,-0.25695 -0.24039,-0.43931 -0.21551,-0.34815 -0.57194,-0.34815 -0.34814,0 -0.59682,0.34815 -0.43933,0.6134 -0.55538,1.72414 0.53051,-0.0332 0.97812,-0.0332 z m 12.316,6.15884 -0.66314,0.0414 q -0.50563,0 -0.9947,-0.11605 -0.33156,0 -0.89522,-0.17407 -1.88992,-0.44761 -2.8183,-1.55007 l -0.14921,-0.17407 q -0.72115,-0.92838 -0.93667,-2.49503 l -0.0249,-0.17407 q -0.0331,-0.26525 -0.0331,-0.62998 0,-0.373 0.14092,-1.00298 0.5222,-2.32925 2.19662,-3.21618 l 1.11904,-0.59682 q 1.24336,-0.44761 3.10013,-0.44761 0.70457,0 1.30139,0.18236 l 0.16578,0.0497 q -0.008,0 -0.008,-0.008 h 0.0166 q 2.81002,0.74602 3.7384,2.47016 l 0.0167,0.058 q 0.41446,0.8372 0.55537,1.87334 l -0.19066,-0.0662 h -5.18899 l -0.0414,-0.3067 q -0.13263,-0.95325 -0.44761,-1.26824 l -0.16578,-0.0995 q -0.72944,0.0497 -0.82063,1.98939 -0.008,0.26526 -0.0248,0.31499 l 0.008,0.26525 0.0249,0.48077 q 0,0.058 0.008,0.12434 l 0.0829,0.0829 h -0.0911 q 0.0414,0.62168 0.25696,0.95324 0.22381,0.33158 0.44762,0.33158 0.42274,0 0.58024,-0.51394 0.15749,-0.51392 0.15749,-0.93666 0.63826,-0.0332 1.92308,-0.0332 h 0.31498 l 0.79577,0.008 h 0.79575 l 1.59981,0.008 q -0.25697,2.66082 -2.51161,3.76327 -0.16579,0.058 -0.45591,0.19065 l -0.31498,0.14921 q -1.31798,0.50564 -2.41214,0.50564 -0.11605,0 -0.15749,-0.0332 z m 11.30472,-10.41945 q 0.37301,-0.10776 0.79576,-0.10776 0.42275,0 0.80404,0.0332 l 0.34815,0.0331 q 0.82063,0.0746 1.25995,0.19065 v -0.008 l 0.17407,0.0746 q 1.74072,0.5388 2.71055,1.64126 v -0.008 q 0.2238,0.26525 0.54708,0.80405 0.33157,0.53051 0.33157,0.73773 l 0.0662,0.22382 0.0414,0.24038 q 0.1575,0.55537 0.1575,0.92839 0,0.373 0.008,0.57195 h -6.83025 v 0.27353 q 0.0497,0.19065 0.0497,0.39788 0,0.20723 0,0.33157 0.008,0.11605 0.0248,0.23209 0.0166,0.10776 0.0166,0.18237 0.008,0.0662 0.0415,0.16578 0.0332,0.0911 0.0332,0.12434 0.008,0.0331 0.0497,0.13262 0.0497,0.0995 0.0746,0.19065 0.0332,0.0829 0.11604,0.16578 v -0.008 l 0.0912,0.17408 q 0.15748,0.17407 0.43103,0.24866 0.4559,-0.0995 0.61339,-0.47248 0.16578,-0.373 0.27354,-0.92837 0.29841,-0.0829 0.8455,-0.0829 l 1.061,0.0249 h 3.05869 q -0.0995,1.01128 -0.59681,1.85677 h 0.008 q -0.43104,0.67971 -1.34285,1.16877 -2.57792,0.90352 -3.30736,0.90352 -0.13263,0 -0.21552,-0.0167 h -0.19065 l -0.0746,0.008 h -0.0746 q -0.0662,0 -0.16578,-0.0167 -0.0829,0.0497 -0.19894,0.0497 l -0.72116,-0.0829 q -0.058,0.0249 -0.24038,0.0249 -0.17407,0 -0.92839,-0.22382 v 0.008 l -0.19893,-0.058 -0.19894,-0.0662 q -1.24337,-0.36471 -2.13031,-1.27652 -0.88693,-0.92009 -1.13561,-2.1386 -0.0248,-0.1492 -0.0911,-0.44762 -0.0662,-0.30669 -0.0662,-0.41445 v -0.39788 q 0,-0.14091 0.008,-0.21552 v -0.12434 q 0,-1.75728 1.04444,-3.03382 1.04443,-1.28482 2.80172,-1.80703 l 0.19895,-0.058 q 0.43932,-0.0746 0.62997,-0.15749 z m 2.47845,4.26061 0.17408,-0.10776 q -0.14092,-0.89522 -0.26525,-1.1439 -0.12434,-0.25695 -0.2404,-0.43931 -0.21551,-0.34815 -0.57194,-0.34815 -0.34814,0 -0.59682,0.34815 -0.43932,0.6134 -0.55538,1.72414 0.53051,-0.0332 0.97813,-0.0332 z m 8.42012,-4.01194 2.22148,-0.008 q 0.0414,0.17406 0.1492,0.54708 0.10776,0.373 0.20724,0.74602 l 0.15749,0.62168 q 0.33156,-0.83721 0.40617,-0.92838 l 0.13261,-0.16579 q 0.83721,-1.17706 2.56964,-1.17706 0.82062,0 1.55836,0.49736 0.74602,0.48905 1.16048,1.28481 0.41445,0.78747 0.41445,1.66611 0,0.0995 -0.0249,0.15749 v 5.09783 l 0.008,1.58323 h -4.84914 l -0.0166,-4.14457 0.0331,-0.8455 q 0,-1.26824 -0.67141,-1.26824 -0.72116,0 -0.72116,1.20194 0,0.26525 0.008,0.36472 v 0.12433 l 0.008,0.14092 v 4.41811 l -2.47017,0.008 h -2.47845 l -0.008,-4.97348 v -4.9569 z m 16.65949,5.78583 -0.008,0.12433 q 0,0.29012 0.0166,0.43103 0.0249,0.13263 0.17407,0.32328 0.1492,0.18236 0.96982,0.18236 l 0.22382,0.008 q 0.12433,0 0.22381,-0.0248 l 0.008,3.09184 h -4.53417 l -0.28183,0.0167 h -0.0911 q -0.3067,0 -0.67142,-0.19894 -0.36472,-0.19893 -0.54708,-0.34814 -0.17408,-0.15749 -0.29841,-0.39788 -0.2321,-0.44761 -0.28183,-0.87865 -0.0415,-0.43932 -0.0415,-1.08588 v -4.59218 h -0.97812 l -0.008,-1.16048 v -1.18534 h 0.95325 v -2.74371 h 2.56135 l 2.56134,-0.008 0.008,2.73541 h 1.38429 l 0.008,1.18535 v 1.17706 h -1.35113 z m 7.31766,-6.0345 q 0.37301,-0.10776 0.79576,-0.10776 0.42275,0 0.80405,0.0332 l 0.34814,0.0331 q 0.82063,0.0746 1.25995,0.19065 v -0.008 l 0.17407,0.0746 q 1.74071,0.5388 2.71055,1.64126 v -0.008 q 0.2238,0.26525 0.54708,0.80405 0.33156,0.53051 0.33156,0.73773 l 0.0662,0.22382 0.0414,0.24038 q 0.15751,0.55537 0.15751,0.92839 0,0.373 0.008,0.57195 h -6.83025 v 0.27353 q 0.0497,0.19065 0.0497,0.39788 0,0.20723 0,0.33157 0.008,0.11605 0.0249,0.23209 0.0167,0.10776 0.0167,0.18237 0.008,0.0662 0.0414,0.16578 0.0332,0.0911 0.0332,0.12434 0.008,0.0331 0.0497,0.13262 0.0497,0.0995 0.0746,0.19065 0.0331,0.0829 0.11605,0.16578 v -0.008 l 0.0912,0.17408 q 0.15748,0.17407 0.43103,0.24866 0.4559,-0.0995 0.6134,-0.47248 0.16577,-0.373 0.27353,-0.92837 0.29841,-0.0829 0.8455,-0.0829 l 1.06101,0.0249 h 3.0587 q -0.0995,1.01128 -0.59682,1.85677 h 0.008 q -0.43104,0.67971 -1.34283,1.16877 -2.57793,0.90352 -3.30737,0.90352 -0.13263,0 -0.21552,-0.0167 h -0.19065 l -0.0746,0.008 h -0.0746 q -0.0662,0 -0.16578,-0.0167 -0.0829,0.0497 -0.19893,0.0497 l -0.72116,-0.0829 q -0.058,0.0249 -0.24038,0.0249 -0.17407,0 -0.92838,-0.22382 v 0.008 l -0.19895,-0.058 -0.19894,-0.0662 q -1.24336,-0.36471 -2.1303,-1.27652 -0.88694,-0.92009 -1.13562,-2.1386 -0.0249,-0.1492 -0.0911,-0.44762 -0.0662,-0.30669 -0.0662,-0.41445 v -0.39788 q 0,-0.14091 0.008,-0.21552 v -0.12434 q 0,-1.75728 1.04443,-3.03382 1.04442,-1.28482 2.80172,-1.80703 l 0.19895,-0.058 q 0.43932,-0.0746 0.62996,-0.15749 z m 2.47846,4.26061 0.17406,-0.10776 q -0.14091,-0.89522 -0.26525,-1.1439 -0.12434,-0.25695 -0.24038,-0.43931 -0.21553,-0.34815 -0.57195,-0.34815 -0.34815,0 -0.59682,0.34815 -0.43933,0.6134 -0.55537,1.72414 0.5305,-0.0332 0.97811,-0.0332 z m 6.16545,-4.02022 2.20492,-0.008 h 2.20491 l 0.18236,1.11074 q 0.19065,1.16877 0.2238,1.32626 h 0.29012 q 0.3067,-1.41743 1.17706,-2.01426 l 0.33156,-0.19065 q 0.0248,-0.0497 0.29841,-0.18236 l -0.0332,0.008 0.19065,-0.0746 q 0.81234,-0.32328 1.40087,-0.33157 0.12434,0 0.16578,0.0167 h 0.3067 v 4.62533 q -0.17408,-0.0414 -0.54709,-0.0414 -0.373,0 -0.77089,0.10776 -0.38959,0.10775 -0.66313,0.28183 -0.26526,0.16578 -0.46419,0.43104 -0.61339,0.82061 -0.61339,2.46187 l 0.0166,0.87036 v 1.52519 l -2.95093,0.008 h -2.94264 l -0.008,-4.94861 z m 10.59186,12.66587 -0.0911,-0.0829 q 0.0415,0 0.0911,0.008 h 0.008 q -0.008,0.0249 -0.008,0.0746 z" /><path
       style="font-size:40px;font-family:'Bowlby One';-inkscape-font-specification:'Bowlby One';letter-spacing:1.5px;stroke-width:0.999997;stroke-dasharray:1.5, 0.999997"
       d="m -66.074844,841.08259 -0.209719,0.27353 h -0.455895 q 0,0 -3.063668,-0.0729 -0.310013,-0.17323 -1.066811,-2.65335 l -0.173251,-0.4559 q -0.911799,-2.40716 -1.094159,-5.49818 0.145882,-1.3039 0.601787,-3.26427 0.455905,-1.9695 0.930048,-3.44662 0.474134,-1.47711 0.683852,-1.52272 0.237067,-0.11852 3.674576,-0.11852 0.07288,0.0547 0.09119,0.11852 l -0.492373,1.8692 q -1.157995,4.06665 -1.157995,6.45559 0.118544,2.84483 1.212702,6.49205 z"
       id="text5" /></g></svg>
