<svg xmlns="http://www.w3.org/2000/svg" xmlns:xlink="http://www.w3.org/1999/xlink" width="380" height="194.762" viewBox="0 0 285 146.072"><defs><symbol id="a" overflow="visible" style="overflow:visible"><path d="M.344-3.953h.906L.375.234C.156 1.313-.172 1.86-.594 1.86c-.125 0-.203-.078-.203-.171 0-.016.016-.047.047-.11a.264.264 0 0 0 .047-.156c0-.203-.188-.375-.39-.375-.22 0-.376.172-.376.406 0 .344.36.61.797.61.875 0 1.578-.985 1.985-2.813l.718-3.203h1.094l.063-.313H2.109c.282-1.562.657-2.28 1.204-2.28.14 0 .218.062.218.124 0 .031 0 .047-.031.11a.344.344 0 0 0-.063.203c0 .234.157.39.376.39.218 0 .421-.172.421-.39 0-.375-.375-.657-.859-.657-.5 0-.875.22-1.234.688-.313.39-.5.86-.813 1.812H.422zm0 0" style="stroke:none"/></symbol></defs><path d="M109.49 71.72v24.683l-12.133-.223c-.08.212-.038.1-.119.33-.23.676-.445 1.356-.546 2.044-.047.392-.091.696-.102 1.094-.03.871.086 1.742.295 2.603.388 1.357.9 2.7 1.644 4.002.594 1.083 1.242 2.167 1.473 3.307.069.48.108.624.084 1.111-.048.914-.295 1.824-.638 2.711-.107.237-.202.477-.318.712-.525 1.06-1.266 2.08-2.213 3.024-.587.539-3.201 2.45-3.975 2.896 5.507.447 10.278.642 16.413.846v23.354h65.665v-21.996l8.984-1.753.249-.598 2.848.418c.08-.212.038-.102.119-.332.23-.676.446-1.355.547-2.043.046-.393.092-.696.103-1.094.029-.871-.088-1.741-.297-2.603-.388-1.356-.9-2.7-1.644-4.002-.594-1.083-1.24-2.167-1.472-3.307-.069-.48-.108-.624-.084-1.111.048-.914.296-1.824.639-2.711.106-.238.2-.477.317-.712.525-1.06 1.267-2.08 2.213-3.024.587-.539 1.201-1.068 1.976-1.514l-2.809-2.161c-.423.261-.972.62-1.512.994l.33-.623H175.02V71.72Z" style="opacity:1;fill:#d5ffe6;fill-opacity:1;stroke:none;stroke-width:.060107;stroke-linecap:square;stroke-linejoin:miter;stroke-miterlimit:4;stroke-dasharray:none;stroke-opacity:1"/><path d="M155.006 199.899h31.186v38.966h110.199V199.9h30.934M155.006 158.526h31.186V118.12h110.199v40.406h30.934" style="fill:none;fill-rule:evenodd;stroke:#000;stroke-width:3.67329px;stroke-linecap:butt;stroke-linejoin:miter;stroke-opacity:1" transform="translate(-2.87 .515) scale(.60107)"/><use xlink:href="#a" width="100%" height="100%" x="217.415" y="156.682" style="fill:#000;fill-opacity:1" transform="translate(-1085.012 -757.672) scale(5.6114)"/><path d="M199.26 77.875c-.745 3.499-1.587 6.97-2.081 10.516.075.082-.266 1.639-.114 1.833.032.04.163-.07.12-.1-.334-.225-.905-.183-1.08-.547-.11-.227.389-.323.583-.485 3.388-2.912 7.143-5.3 10.967-7.585 1.334-.872 2.789-1.47 4.266-2.036l1.205.789a21.924 21.924 0 0 0-4.245 1.972c-3.783 2.314-7.558 4.628-10.924 7.535-.89.77-.574.75-2.213.35-.187-.046.047-2.081.064-2.14.509-3.554 1.352-7.034 2.085-10.545zM231.98 39.264c-.068.31-.309 1.413-.339 1.657-.15 1.24-.14 2.546.318 3.728.157.403.403.766.604 1.149.68.702.923 1.145 1.917 1.414.084.022-.125-.228-.044-.259.376-.144.81-.063 1.195-.182 1.07-.33 1.27-.67 2.093-1.402.257-.382.558-.739.772-1.147.52-.993 1.002-2.53.559-3.645-.337-.846-.791-.939-1.526-1.37.007.05.07.144.021.147-.425.025-.85-.088-1.277-.073-1.099.04-2.279.362-3.305.75-.215.081-.422.184-.633.277l-.315.196-1.244-.714.354-.246c.219-.1.433-.214.657-.303 1.034-.412 2.285-.765 3.393-.856.444-.036.901-.09 1.336.004.835.179 1.62.537 2.43.806.788.597 1.176.696 1.492 1.69.392 1.231-.084 2.812-.65 3.904-.226.436-.54.821-.811 1.232-.877.82-1.062 1.161-2.202 1.583-1.458.538-2.078.254-3.71-.348-.39-.144-.747-.385-1.062-.657-.327-.282-.561-.656-.842-.983-.196-.411-.438-.803-.59-1.232-.438-1.245-.441-2.597-.285-3.892.03-.242.281-1.422.344-1.719l1.349.491zM237.497 34.713c.7 1.49 1.568 2.928 2.887 3.956.3.234.64.413.96.62.327.129.631.354.981.386.139.013-.373-.23-.268-.32.233-.203.62-.092.898-.226.603-.293 1.087-.867 1.383-1.452.166-.331.242-.7.363-1.05.023-.377.103-.756.069-1.132-.108-1.2-.765-2.265-1.699-3.002-.845-.667-1.164-.68-2.155-1.009.085.09.365.21.256.27-.214.118-.489-.024-.733-.007-.158.01-.314.048-.468.087-.066.017-.12.081-.187.08-.034-.002.04-.056.06-.084l-1.376-.425c.028-.078.031-.17.085-.232.151-.18.606-.292.772-.316 1.171-.17 1.619.174 3.003.523.988.404 1.334.45 2.156 1.186.951.852 1.572 2.027 1.65 3.312.024.41-.067.819-.1 1.228-.133.382-.22.783-.4 1.145-.326.656-.86 1.308-1.506 1.68-.303.173-.641.364-.99.345-1.467-.078-2.065-.44-3.21-.975-.32-.228-.658-.43-.958-.683-1.306-1.102-2.183-2.582-2.892-4.113l1.419.208zM234.869 19.036c1.824 1.26 3.267 2.973 4.738 4.61 1.854 2.055 3.607 4.197 5.41 6.294.608.707 1.543 1.767 2.174 2.485 1.075 1.072 2.01 2.262 2.957 3.443.48.479.282.234-.897-.291l1.058.976c-1.49-.602-1.071-.183-1.59-.79-.932-1.18-1.89-2.337-2.934-3.423-2.54-2.911-5.004-5.89-7.577-8.772-1.472-1.616-2.919-3.315-4.776-4.505l1.437-.027z" style="opacity:1;fill:#000;fill-opacity:1;stroke:none;stroke-width:.0601072;stroke-linecap:square;stroke-linejoin:miter;stroke-miterlimit:4;stroke-dasharray:none;stroke-opacity:1"/><path d="M234.3 26.596c1.176-2.245 2.85-4.178 4.447-6.129 1.013-1.205 1.976-2.452 3.013-3.638.273-.466.014-.067 1.253.681l-1.302-.617c1.339.62 1.147 1.067 1.342.566-1.077 1.144-2.002 2.424-3.031 3.608-1.573 1.919-3.228 3.818-4.377 6.032l-1.346-.503zM246.286 26.78c1.914.958 3.203 2.496 4.59 4.082 2.467 3.076 4.69 6.337 7.1 9.458l1.013 1.244-1.425-.102c-.588-.737-.256-.32-.996-1.252-2.38-3.132-4.6-6.387-7.094-9.431-1.348-1.507-2.712-3.096-4.622-3.895l1.434-.104z" style="opacity:1;fill:#000;fill-opacity:1;stroke:none;stroke-width:.0601072;stroke-linecap:square;stroke-linejoin:miter;stroke-miterlimit:4;stroke-dasharray:none;stroke-opacity:1"/><path d="M244.925 28.82c-.34-1.142-.4-2.194-.057-3.355.226-.767.56-1.378.91-2.088.209-.3.393-.62.627-.9.768-.92 1.653-1.566 2.888-1.646 1.276-.083 2.283.507 3.477.941.298.244.636.446.894.732.617.685.797 1.254.934 2.156.057.374.083.757.053 1.134-.08.996-.374 1.61-.71 2.544-.436.824-.654 1.408-1.327 2.059-.213.205-.488.335-.732.502l-1.231-.716c.226-.13.485-.216.68-.39.644-.571.88-1.187 1.283-1.936.313-.878.597-1.465.66-2.4a4.303 4.303 0 0 0-.07-1.054c-.148-.811-.357-1.329-.957-1.908-.262-.252-.594-.418-.891-.627.555-.015.242.006-.92-.2-1.198-.032-1.981.515-2.736 1.388-.226.262-.403.564-.605.845-.336.677-.66 1.258-.873 1.991-.311 1.07-.236 2.11.12 3.151l-1.417-.222zM253.467 17.93c.933 1.634 2.174 3.522 3.904 4.392.376.19.795.278 1.193.417-.023-.089-.152-.228-.07-.266.322-.15.72-.054 1.047-.192 1.11-.465 1.61-1.704 1.604-2.836-.002-.48-.145-.95-.218-1.425-.205-.471-.358-.97-.616-1.414-.746-1.285-1.937-2.567-3.437-2.937-.102-.025.232.221.146.282-.196.136-.472.073-.707.109l-1.158-.831c1.428-.375.946-.385 3.129.373 1.502.522 2.686 1.848 3.419 3.212.256.477.4 1.007.6 1.51.064.514.201 1.023.191 1.54-.024 1.276-.605 2.642-1.798 3.24-.348.175-.742.324-1.13.295-.823-.063-1.609-.375-2.413-.562-.399-.17-.82-.294-1.195-.51-1.749-1.004-2.915-2.865-3.915-4.552l1.424.156zM252.17 3.775c3.01 1.89 5.406 4.56 7.803 7.142 1.491 1.648 2.924 3.347 4.374 5.03.625.725 1.228 1.432 1.938 2.072l-1.43-.05c-.678-.67-1.286-1.386-1.905-2.111-1.44-1.684-2.87-3.375-4.36-5.013-2.4-2.563-4.807-5.216-7.853-7.028l1.433-.042z" style="opacity:1;fill:#000;fill-opacity:1;stroke:none;stroke-width:.0601072;stroke-linecap:square;stroke-linejoin:miter;stroke-miterlimit:4;stroke-dasharray:none;stroke-opacity:1"/><path d="M250.74 10.208c2.034-3.363 4.308-6.57 6.688-9.693l1.282.59c-2.394 3.09-4.667 6.28-6.655 9.649zM244.042 48.353c.584.567.727.692 1.35 1.377.8.881 1.573 1.788 2.364 2.678 1.755 1.974 1.05 1.193 2.836 3.12 1.134 1.186 2.264 2.374 3.405 3.553.761.786.435.48 1.1 1.06l-1.428-.042c-1.636-1.542-3.12-3.277-4.47-4.645-1.85-2.005-1.015-1.083-2.84-3.128l-1.3-1.46c-.689-.769-1.187-1.355-1.92-2.047-.169-.16-.355-.3-.533-.451l1.436-.015z" style="opacity:1;fill:#000;fill-opacity:1;stroke:none;stroke-width:.0601072;stroke-linecap:square;stroke-linejoin:miter;stroke-miterlimit:4;stroke-dasharray:none;stroke-opacity:1"/><path d="M243.845 57.616c.08-.162.156-.325.241-.484.345-.648.812-1.447 1.16-2.065.971-1.722 1.944-3.441 2.894-5.175l1.045-1.926 1.29.529-1.047 1.926c-.945 1.738-1.915 3.46-2.878 5.188-.337.604-.801 1.412-1.134 2.051-.081.155-.153.315-.23.472zM251.195 52.511c.987.956 2.034 1.862 3.193 2.606.426.274.872.518 1.32.754.02.01.036-.03.057-.03.354.024.706.07 1.06.105.27-.15.598-.222.809-.447.909-.97.66-2.565.164-3.644-.215-.467-.513-.896-.834-1.298-.298-.373-.675-.676-1.012-1.014.063-.308-3.143-1.604-1.036-.726l-1.035-.988c.576.208 1.163.387 1.729.623.708.296 1.128.69 1.75 1.16.845.922 1.328 1.294 1.823 2.5.526 1.28.65 2.976-.324 4.104-.248.288-.63.425-.945.638-.379-.01-.77.067-1.135-.03-.852-.222-1.675-.555-2.478-.916-.468-.21-.894-.507-1.32-.791-1.162-.775-2.213-1.7-3.215-2.667l1.43.061zM248.096 38.976c.14.003.284-.016.423.01.222.04.444.097.65.19 1.954.877 1.895.818 3.297 1.971 1.383 1.137 1.472 1.267 2.81 2.532.483.473.971.94 1.45 1.418.465.464.927.931 1.38 1.407 1.195 1.254 2.315 2.574 3.566 3.774.108.054.44.191.323.163-.455-.112-.935-.183-1.343-.413-.142-.08-.133-.297-.188-.45a15.404 15.404 0 0 1-.529-1.794c-.072-.348-.106-.702-.16-1.053.01-.365-.02-.734.029-1.096.177-1.311.97-2.976 2.01-3.831.247-.204.54-.344.811-.516.832-.326 1.702-.579 2.607-.463.842.107 2.12.728 2.667 1.067.217.135.323.396.484.594.1.2.234.386.302.598.074.23.102.475.12.717.098 1.298-.661 2.404-1.315 3.45-.926 1.193-2.313 2.956-3.954 3.125-.159.016-.318-.023-.478-.035l-1.061-.962c.129.05.25.138.388.151.464.044.941-.155 1.325-.384 1.012-.605 1.775-1.532 2.48-2.453.683-1.088 1.623-2.424 1.077-3.779-.075-.183-.205-.34-.308-.509l-.485-.482c.19.024.691.225.572.073-.157-.2-.47-.204-.72-.26-.844-.191-1.672.023-2.476.275-.255.143-.532.253-.766.43-.998.754-1.757 2.343-1.909 3.56-.043.34-.008.686-.012 1.029.056.337.095.678.169 1.013.272 1.232.228.666.54 1.788.06.217.344.564.14.662-.95.459-1.241.133-1.763-.272-1.222-1.221-2.345-2.533-3.54-3.78a76.612 76.612 0 0 0-1.38-1.399c-.478-.475-.967-.94-1.451-1.41-1.254-1.165-1.513-1.453-2.821-2.495-.382-.304-.846-.513-1.172-.876-.07-.08.373-.006.306-.089-.151-.188-.694-.277-.947-.33l-1.148-.866zM268.693 38.836c.77-.916 1.336-2.023 1.584-3.2.056-.267.068-.54.103-.812-.064-.46-.04-.85-.373-1.22-.123-.136-.639-.355-.467-.291 1.388.512.524.282.119.473-.202.095-.355.272-.532.408-.155.228-.344.437-.467.685-.586 1.178-.788 2.927-.104 4.11.19.327.49.576.736.864.353.206.68.467 1.06.618.057.023.014-.156.074-.167.473-.085.97.01 1.437-.105 1.149-.281 2.058-.917 2.917-1.704.471-.431.864-.94 1.296-1.41l1.098-1.57 1.278.57-1.118 1.614c-1.011 1.121-1.514 1.841-2.809 2.648-.745.465-2.116 1.04-3.056.91-2.094-.29-2.227-.55-3.59-1.511-.24-.333-.537-.631-.72-.999-.657-1.32-.43-3.154.198-4.44.138-.281.342-.524.513-.786.257-.229.828-.867 1.287-.8.738.107 1.803.354 2.264 1.083.313.497.272.862.323 1.429-.041.288-.06.58-.122.866-.27 1.239-.861 2.396-1.646 3.384l-1.283-.647zM195.939 88.281c.12-.257.227-.521.363-.77 1.555-2.874 3.751-5.464 5.777-8.008 3.341-4.065 6.725-8.096 10.213-12.036 2.022-2.285 4.072-4.524 6.125-6.78 3.08-3.342 6.143-6.701 9.271-9.998.275-.285.167-.175.321-.332l1.278.665c-.321.29-.004-.01-.318.303-3.166 3.264-6.223 6.633-9.318 9.964-2.25 2.467-3.897 4.255-6.124 6.772-3.481 3.936-6.852 7.967-10.178 12.033-2.018 2.543-4.163 5.07-5.716 7.938-.123.227-.22.468-.33.703zM21.433 23.988c-.487.187-.639.16-.941.65-.108.176-.39.683-.211.58.2-.114.062-.621.292-.626.23-.005.161.445.318.614.197.214.476.335.713.502.296.1.58.247.887.298.985.165 1.624-.126 1.875-1.12.041-.161-.098.528-.239.439-.212-.134-.14-.481-.209-.722l-.336-.45.514-1.338.457.507c.112.265.334.507.337.795.01.84-.021 2.258-.833 2.914-.865.698-1.94.398-2.858.046-.358-.229-1.29-.665-1.354-1.252-.127-1.178.021-2.467 1.128-3.07.188-.103.409-.13.613-.195l-.153 1.428zM19.22 29.05c-1.367 1.795-2.818 3.523-4.195 5.311-.499.646-1.009 1.289-1.579 1.874-.069.071-.14.14-.215.204-.034.028-.118.024-.113.068.004.04.08.003.12.005l-.316-1.407c.193-.055.238-.136.389-.298a24.95 24.95 0 0 0 1.547-1.86c1.383-1.781 2.84-3.505 4.177-5.323l.185 1.425zM29.733 39.248c-1.312 1.948-2.597 3.914-4.033 5.774-.939 1.217-1.58 1.945-2.578 3.12-1.666 1.89-3.367 3.763-5.223 5.469l-.089-1.24c1.842-1.699 3.536-3.555 5.184-5.44 1.045-1.24 1.575-1.838 2.556-3.12 1.426-1.86 2.722-3.817 3.986-5.791l.197 1.228z" style="opacity:1;fill:#000;fill-opacity:1;stroke:none;stroke-width:.0601072;stroke-linecap:square;stroke-linejoin:miter;stroke-miterlimit:4;stroke-dasharray:none;stroke-opacity:1"/><path d="M27.905 36.946c2.422.356 5.094 1.149 6.62 3.225.29.396.463.867.695 1.3.1.449.253.889.298 1.346.041.41.034.832-.04 1.238-.193 1.068-.282 2.43-1.317 3.092-.808.518-1.525.432-2.432.481-1.813-.186-3.404-.984-4.78-2.152-.21-.178-.398-.38-.596-.57l.475-1.35c.185.188.359.388.556.563 1.28 1.139 2.783 1.916 4.504 2.095.8-.055 1.442.031 2.122-.486.252-.19.316-.574.577-.752.084-.057.095.373.122.276.268-.997.078-1.487-.078-2.489-.197-.42-.332-.875-.592-1.26-1.38-2.043-4.029-2.82-6.333-3.136l.2-1.42zM38.594 44.762c-.901.723-1.767 1.562-2.297 2.61-.177.349-.262.738-.397 1.105-.035.096.067-.388.097-.29.088.291.06.606.09.91.403.77.472 1.144 1.276 1.635 1.07.652 2.623.82 3.826.532.383-.092.734-.291 1.1-.437.268-.241.579-.442.804-.724.503-.629.559-1.09.737-1.839.038-.16-.02.604-.128.479-.121-.142.023-.374.062-.556.114-.532.265-1.056.398-1.584l.25 1.416s.16 1.958-1.236 3.507c-.27.285-.622.482-.933.724-.4.142-.785.339-1.2.428-1.318.281-2.958.083-4.135-.597-.885-.511-1.015-.929-1.52-1.74-.065-.325-.22-.645-.195-.975.206-2.82 1.215-4.33 3.34-6.035l.061 1.43zM55.014 39.576c-2.98 4.338-6.155 8.538-9.24 12.8-.384.54-1.59 2.225-2.02 2.857-.222.324-.459.64-.648.983-.143.262-.23.55-.344.825l-.256-1.405c.134-.294.284-.585.406-.83.2-.34.434-.656.658-.98.48-.694 1.584-2.225 2.028-2.844 3.098-4.255 6.278-8.456 9.219-12.823l.197 1.417z" style="opacity:1;fill:#000;fill-opacity:1;stroke:none;stroke-width:.0601072;stroke-linecap:square;stroke-linejoin:miter;stroke-miterlimit:4;stroke-dasharray:none;stroke-opacity:1"/><path d="M46.44 39.923c1.394.563 2.809 1.08 4.196 1.66 1.348.564 2.068.925 3.39 1.552a78.6 78.6 0 0 1 3.8 2.046l-.38 1.373a72.636 72.636 0 0 0-3.769-2.05c-1.316-.626-2.02-.982-3.363-1.54-1.383-.574-2.795-1.082-4.184-1.64zM29.572 51.244c-2.393 3.228-4.866 6.396-7.317 9.58-1.4 1.887-2.872 3.746-4.046 5.786l-.23-1.517c1.238-2.008 2.674-3.89 4.098-5.768 2.454-3.185 4.932-6.352 7.296-9.605l.199 1.524z" style="opacity:1;fill:#000;fill-opacity:1;stroke:none;stroke-width:.0601072;stroke-linecap:square;stroke-linejoin:miter;stroke-miterlimit:4;stroke-dasharray:none;stroke-opacity:1"/><path d="M20.423 52.868c2.856 1.378 5.818 2.518 8.716 3.802l-.34 1.375c-2.896-1.295-5.86-2.434-8.732-3.784zM26.461 61.569c-.24.182-.488.353-.72.545-.972.81-2.044 1.833-2.646 2.96-.5 1.318-.708 1.66-.402 1.132.175.749.14 1.247.831 1.738.978.696 2.401.463 3.387-.052.4-.209.735-.523 1.103-.784.865-.78 1.53-1.7 1.895-2.809.065-.195.171-.805.131-.603-.064.323-.135.644-.203.965l.784-1.204c-.087.545-.152 1.094-.261 1.636-.178.881-.725 1.786-1.3 2.454-.304.354-.667.654-1 .98-.404.262-.776.58-1.211.785-1.157.546-2.702.7-3.829-.033-.807-.526-.833-1.056-1.127-1.895.151-.813.234-1.64.453-2.437.545-1.975 2.495-3.637 4.08-4.813l.035 1.435zM41.498 76.85c1.42.348 2.979.772 4.447.824.468.016 1.438.018 1.823-.453.134-.164.083-.414.125-.621-.143.195-.188.61-.428.584-.311-.034-.373-.515-.625-.7a4.627 4.627 0 0 0-1.112-.575c-.853-.322-2.033-.539-2.943-.524-.468.008-.928.125-1.392.187-.974.5-1.164.382-1.619 1.41-.03.07.185-.124.217-.056.212.454.216.987.43 1.44.67 1.418 1.33 1.916 2.41 3.052l1.831 1.353-.415 1.343-1.893-1.37c-1.169-1.19-1.793-1.642-2.57-3.112-.786-1.488-.765-2.305-.18-4.064.123-.37.448-.657.763-.887.342-.25.774-.348 1.161-.522.492-.058.98-.17 1.474-.175 1.39-.011 3.154.364 4.322 1.158.304.206.687.415.79.768.196.671.031 1.398.046 2.096-.135.215-.207.485-.404.644-.535.432-1.422.45-2.039.424-1.516-.063-3.06-.486-4.531-.828l.312-1.396zM21.211 30.43c-1.012 1.895-1.815 3.892-2.612 5.885l-.243.625c-.051.132-.1.264-.15.397-.024.067-.043.137-.072.204-.017.04-.024.137-.064.117-1.424-.701-1.428-.354-1.088-1.138.099-.175.184-.358.296-.525.15-.224.308-.444.488-.645a7.863 7.863 0 0 1 2.647-1.897c.348-.154.718-.256 1.077-.383.964-.168 1.251-.287 2.222-.196.948.088 2.096.568 2.834 1.031.462.29.528.956.64 1.405-.021.297-.01.597-.064.889-.25 1.348-1.181 2.626-2.072 3.628-.23.259-.48.5-.72.75-.508.501-1.05.966-1.616 1.4-.159.12-.323.231-.484.348l-1.215-.773c.015 0 .031.006.045 0 .105-.045.355-.221.41-.26a14.607 14.607 0 0 0 1.61-1.339c.237-.24.484-.473.711-.723.51-.562.904-1.055 1.292-1.707.325-.548.577-1.068.684-1.7.043-.25.021-.509.032-.763-.071-.209-.1-.437-.213-.626-.112-.19-.49-.272-.447-.488.034-.175.689.144.532.06-.269-.145-.58-.2-.88-.247-.915-.146-1.227-.035-2.144.086-.349.112-.708.196-1.046.335-.339.139-.665.31-.98.496-.813.483-1.506 1.074-2.034 1.862-.104.154-.182.325-.273.488-.047.115-.017.35-.141.345-.475-.02-.904-.297-1.367-.405-.027-.007-.03.104-.016.08.034-.065.054-.137.082-.205l.16-.394.254-.624c.824-2.002 1.65-4.004 2.602-5.949l1.323.555zM38.557 56.042c.012.14.047.281.036.422-.018.225-.05.451-.12.666-.666 2.037-.614 1.97-1.612 3.488-.984 1.495-1.104 1.597-2.22 3.06-.42.532-.833 1.067-1.257 1.593-.413.512-.828 1.021-1.253 1.522-1.121 1.32-2.314 2.574-3.375 3.945-.043.113-.144.457-.128.338.062-.464.083-.95.268-1.38.064-.148.281-.162.427-.233.486-.237 1.23-.556 1.729-.716.338-.108.686-.18 1.03-.27.364-.03.727-.099 1.092-.088 1.323.038 3.062.65 4.023 1.593.228.224.399.502.598.753.413.792.756 1.63.737 2.542-.017.849-.5 2.186-.78 2.766-.11.23-.359.363-.538.544-.188.121-.36.273-.563.363a3.1 3.1 0 0 1-.7.196c-1.281.234-2.461-.404-3.57-.943-1.284-.795-3.185-1.988-3.526-3.601-.033-.156-.01-.32-.016-.48l.844-1.157c-.036.134-.11.264-.109.403.006.466.254.92.523 1.277.708.942 1.71 1.602 2.702 2.206 1.154.565 2.581 1.358 3.87.67.175-.092.316-.239.474-.359l.429-.533c-.005.192-.15.711-.013.577.182-.178.153-.49.183-.743.1-.86-.2-1.662-.536-2.434-.17-.239-.308-.503-.508-.716-.856-.913-2.516-1.5-3.742-1.522-.343-.007-.683.064-1.025.097-.33.091-.664.166-.989.275-1.197.401-.639.298-1.72.726-.21.083-.525.402-.644.21-.557-.897-.265-1.22.084-1.783 1.085-1.344 2.27-2.6 3.384-3.92.422-.5.835-1.008 1.244-1.519.422-.527.833-1.062 1.25-1.593 1.026-1.37 1.285-1.658 2.182-3.07.261-.41.42-.895.747-1.257.071-.079.046.37.12.295.171-.17.203-.72.23-.976l.738-1.234zM50.568 54.337c3.149 2.004 6.092 4.298 9.023 6.602 6.115 4.968 11.944 10.275 17.761 15.585 3.18 2.827 6.124 5.9 9.171 8.866.55.564 1.188 1.038 1.67 1.665l-1.286.646c-.494-.557-1.077-1.025-1.592-1.562-3.015-2.976-5.968-6.019-9.122-8.851-5.788-5.303-11.6-10.59-17.719-15.512-2.894-2.256-5.797-4.52-8.933-6.437z" style="opacity:1;fill:#000;fill-opacity:1;stroke:none;stroke-width:.0601072;stroke-linecap:square;stroke-linejoin:miter;stroke-miterlimit:4;stroke-dasharray:none;stroke-opacity:1"/><path d="M82.646 74.323c1.657 2.98 2.98 6.124 4.32 9.255.967 2.187 1.922 4.379 2.97 6.528.32.398-1.246.557-1.63.324-.103-.063-.199-.137-.299-.206-.15-.102-.296-.208-.448-.305-.275-.176-.554-.343-.831-.515-.405-.257-.81-.512-1.214-.772a328.83 328.83 0 0 1-5.616-3.715c-.788-.532-2.505-1.689-3.344-2.253-.532-.358-1.386-.952-1.987-1.294-.163-.092-.338-.164-.506-.246l1.012-1.009c.886.501 1.713 1.076 2.555 1.648 1.559 1.06 1.69 1.148 3.333 2.259 1.83 1.227 2.072 1.4 3.91 2.59 1.253.81 2.526 1.584 3.782 2.386.153.097.3.2.45.3.259.17.51.319.696.57.044.059.176.153.112.19-.412.234-.88.355-1.33.502-.02.007-.017-.04-.026-.06-1.014-2.179-1.97-4.384-2.942-6.581-1.333-3.105-2.657-6.22-4.33-9.16l1.363-.436z" style="opacity:1;fill:#000;fill-opacity:1;stroke:none;stroke-width:.0601072;stroke-linecap:square;stroke-linejoin:miter;stroke-miterlimit:4;stroke-dasharray:none;stroke-opacity:1"/></svg>