<svg xmlns="http://www.w3.org/2000/svg" width="480" height="415" viewBox="0 0 127 109.802"><g style="display:inline"><path d="M109.409 57.278c.53.057 1.063.11 1.593.174.575.085 1.151.171 1.716.313-.03-.058.255.097.25.08-.063-.178-.06-.131-.234-.079-.627.199-1.238.442-1.857.662-.313.102-.31.105-.61.192-.227.065-.15.06-.262.063" style="display:inline;fill:none;stroke:#000;stroke-width:.270926;stroke-dasharray:none"/><path d="M61.753 8.313a23.492 23.492 0 0 0-.328-1.375c-.213-.777-.455-1.546-.616-2.342-.017-.14-.026-.179-.026-.312 0-.06-.022-.21-.026-.213-.062-.277.087-.235.014-.06-.064.435-.202.985-.302 1.483-.133.682-.295 1.356-.417 2.04" style="display:inline;fill:none;stroke:#000;stroke-width:.264583;stroke-dasharray:none"/><path d="m26.467 56.181-.01.072c-.032.283-.026.57-.044.853-.02.414-.032.828-.025 1.243l-.001.862M35.036 56.192c0 .013-.037.248-.037.553-.012.488-.035.976-.018 1.464.012.286.035.571.032.857M43.426 59.097c.074-.435.106-.876.142-1.316.038-.474.04-.95.068-1.423M52.107 56.23a5.835 5.835 0 0 0-.042.494c-.025.462-.026.925-.044 1.388-.014.318-.032.636-.027.954M69.072 56.447l.003.116c.028.44.029.881.025 1.323 0 .383 0 .767-.002 1.15M77.608 56.508c-.015.471-.033.942-.058 1.413-.016.389-.034.781.005 1.17M86.162 56.62c-.013.334-.026.668-.041 1.001-.019.438-.043.88-.011 1.317M94.7 56.635a7.51 7.51 0 0 0-.068.58c-.033.337-.04.672.022 1.006.038.287.074.575.108.863M59.106 66.247c.124 0 .248-.005.372-.01.25-.011.499-.018.748-.026.273-.01.545-.03.817-.043.247-.012.494-.018.741-.026l.133-.004M61.952 74.67h-.032c-.033.004-.066.011-.1.016-.05.007-.101.009-.152.016a2.979 2.979 0 0 1-.378.001c-.125-.007-.25-.013-.376-.026a2.083 2.083 0 0 0-.332-.002c-.1.01-.199.032-.3.038a4.922 4.922 0 0 1-.443.029c-.153-.003-.306-.008-.46-.008-.05 0-.1 0-.15.002-.023 0-.046 0-.068.002l-.012.003M59.106 83.291h.02c.013 0 .027.002.04.001.035 0 .069-.004.103-.006.066-.004.081-.004.15-.006.21 0 .42.004.63.006a97.464 97.464 0 0 0 1.3-.002c.148-.002.296-.007.445-.014.084-.003.168-.011.25-.023l.007-.006M59.22 91.804a.693.693 0 0 1 .214-.019c.142.004.284.008.426.006.143-.004.285-.01.428-.011.149 0 .297-.002.446-.007a15.39 15.39 0 0 1 .839-.008c.12.01.24.017.36.028l.165.013M59.201 49.201c.09.004.217-.006.331-.002.053-.009.109-.006.161-.005.181.008.362 0 .542-.014.173-.015.347-.023.521-.027.161-.003.322-.01.483-.013.153-.002.306-.003.46-.011l.157-.01M59.29 40.662c.104 0 .236-.005.355-.018l.516.004c.18.006.362.01.543.008.17-.002.34-.009.511-.014.13-.003.258-.008.387-.017.046 0 .094-.012.14-.01.022 0 .108 0 .13.002M59.255 32.116c.094-.022.193-.008.288-.004.18.007.361.008.541.01.178 0 .356 0 .534.005.146.002.291.014.437.016.14 0 .282-.003.423-.004.102-.004.203.005.305.01h.082M59.284 23.573c.073-.003.146-.002.219.001.156.006.313.008.47.01.163-.006.326-.006.49-.005.176-.002.352-.007.528 0 .148.008.297.01.445.018.11.006.222.014.333.014a10.924 10.924 0 0 0 .268-.01" style="display:inline;fill:none;fill-opacity:1;stroke:#000;stroke-width:.264583;stroke-dasharray:none;stroke-opacity:1"/><g style="display:inline;stroke-width:.906252"><path d="M55.189 53.13a2.21 2.21 0 0 0-.458.381c-.042.047-.08.097-.119.146-.132.189-.234.406-.191.642.022.122.054.16.112.264a.978.978 0 0 0 .392.334c.034.014.018.008.047.018l.045-.065v0c-.025-.007-.011-.003-.041-.014a.896.896 0 0 1-.372-.306c-.054-.095-.084-.13-.105-.24-.042-.223.06-.426.185-.602.04-.047.076-.096.117-.14a2.01 2.01 0 0 1 .449-.366zM55.976 53.627c-.143-.053-.302.007-.435.063a.555.555 0 0 0-.3.35c-.007.029-.007.058-.011.087.003.029.004.058.01.086.031.127.126.215.24.27.033.015.068.025.101.038.173.053.356.06.532.021.042-.01.083-.022.124-.034.18-.074.242-.16.281-.346a.48.48 0 0 0-.1-.355c-.017-.02-.036-.037-.054-.056a.793.793 0 0 0-.38-.162c-.085.004-.037-.003-.142.028l.056.056v0c.014-.019.002-.006.05-.013a.723.723 0 0 1 .351.137c.017.016.034.031.05.049a.406.406 0 0 1 .09.31c-.036.165-.095.235-.255.294a.96.96 0 0 1-.556.008c-.137-.049-.27-.103-.31-.258-.006-.024-.006-.048-.01-.072.004-.025.004-.05.01-.075.036-.144.153-.246.281-.309.101-.04.215-.087.325-.057zM57.023 54.485a1.492 1.492 0 0 1-.296.352c-.063.054-.033.03-.09.07l.065.044v0c.06-.045.029-.02.094-.076.117-.11.227-.23.304-.371zM58.302 53.548a1 1 0 0 0-.409.146c-.027.018-.052.039-.078.058-.095.091-.193.202-.212.338-.004.025-.002.05-.003.075a.445.445 0 0 0 .212.35c.03.018.063.03.094.045.162.051.341.092.512.06.043-.008.084-.022.126-.033a.613.613 0 0 0 .315-.312c.01-.026.014-.053.02-.08a.54.54 0 0 0-.082-.37c-.016-.024-.037-.045-.056-.067-.136-.12-.303-.2-.473-.263l-.046.064v0c.162.056.32.134.453.243.017.019.036.036.05.056.07.095.088.215.076.33-.006.022-.01.045-.018.066a.538.538 0 0 1-.292.275c-.174.057-.363.021-.535-.03-.028-.012-.059-.022-.086-.037a.373.373 0 0 1-.19-.302c0-.02-.002-.042.001-.062.019-.124.113-.222.2-.303a.873.873 0 0 1 .397-.172zM59.091 53.082c.177.117.3.293.412.47.102.184.21.382.222.597.003.036-.002.071-.003.107-.025.175-.135.3-.263.411l-.038.035.069.039v0l.038-.035c.14-.128.247-.26.273-.455 0-.039.004-.077.002-.116-.015-.223-.124-.428-.23-.62-.117-.182-.243-.364-.425-.488z" style="fill:#fff6d5;fill-opacity:1;stroke:#000;stroke-width:.191824;stroke-linecap:square;stroke-dasharray:none;stroke-opacity:1" transform="matrix(1.09976 0 0 1.10714 -6.194 -3.94)"/></g><path d="M111.114 57.821c-.414.006-1.679.024-1.992.027-.68-.017-1.36-.026-2.04-.024-.821 0-1.642 0-2.463.009-.973.011-2.07-.02-2.92-.006-1.046.018-2.091.02-3.137.013h-2.98a260.124 260.124 0 0 1-3.696-.008c-1.14-.01-2.28.028-3.42-.001a137.53 137.53 0 0 0-3.655-.044c-1.398-.012-2.796.023-4.193-.007-1.498-.034-2.996-.041-4.494-.05l-4.345-.029c-1.48-.009-2.96-.018-4.44-.02-1.851-.002-3.702.004-5.553.01-1.633-.005-3.266-.05-4.898-.002-1.325.013-2.65-.004-3.975.023-1.217.026-2.433.003-3.65.01-1.3.005-2.6-.043-3.9-.052a306.424 306.424 0 0 0-4.657.018c-1.634.02-3.268.024-4.903.011a186.903 186.903 0 0 0-4.907.022c-1.646.03-3.29-.101-4.936-.088-1.319 0-2.637.005-3.954.05-1.504.05-3.009-.04-4.516-.048-1.452.01-2.904.035-4.355.067-.986.008-1.97-.078-2.954-.038" style="fill:none;fill-opacity:1;stroke:#000;stroke-width:.265168;stroke-linecap:square;stroke-dasharray:none;stroke-opacity:1"/><path d="M60.52 106.518c.044-.511.051-1.029.046-1.545-.018-.915-.037-1.83-.047-2.745.008-.737.036-1.473.05-2.21.012-.655.013-1.31.014-1.967v-5.158c0-1.045-.034-2.09-.052-3.134-.01-.614-.017-1.228-.02-1.905 0-.305.006-.545.008-.786.016-1.552.03-3.105.051-4.656.035-2.486.066-4.973.068-7.461.005-2.27.018-4.543-.023-6.812a551.43 551.43 0 0 1-.065-5.56l-.025-3.52a82.032 82.032 0 0 1 .034-4.057c.037-1.271.044-2.543.044-3.814-.002-1.168-.01-2.336-.02-3.505a45.644 45.644 0 0 1 .04-3.11c.042-.862.05-1.725.053-2.589 0-.95-.007-1.899-.014-2.848l-.02-2.655c-.007-.793-.093-1.582-.1-2.376.016-.995.037-1.99.047-2.985.006-.973 0-1.945-.005-2.917-.03-.87.03-1.738.064-2.607.031-.852.036-1.704.036-2.556-.002-.693-.007-1.386-.013-2.08a2757.149 2757.149 0 0 1-.028-3.898l-.019-2.667-.018-2.545a46.11 46.11 0 0 1 .02-2.652c.075-.805.044-1.61.083-2.416.012-.27.018-.54.023-.811" style="display:inline;fill:none;fill-opacity:1;stroke:#000;stroke-width:.263645;stroke-linecap:square;stroke-dasharray:none;stroke-opacity:1"/><path d="M62.34 100.521c-.145-.008-.288-.038-.433-.041-.354-.016-.572-.046-.926-.037-.233 0-.848.043-1.08.032-.404-.043-.559-.012-.964-.032l-.249.028" style="display:inline;fill:none;fill-opacity:1;stroke:#000;stroke-width:.264583;stroke-dasharray:none;stroke-opacity:1"/><path d="M59.338 14.991c.224.02.45.02.675.017.336-.007.672-.012 1.008-.015.194-.002.387-.018.578-.044l.023-.075a4.53 4.53 0 0 1-.571.046c-.336.003-.672.008-1.009.015a5.88 5.88 0 0 1-.674-.017z" style="opacity:1;fill:none;fill-opacity:.754348;stroke:#000;stroke-width:.264583;stroke-linecap:butt;stroke-dasharray:none;stroke-opacity:1"/><path d="m130.86 62.246-.299.008c-.197.006-.393.016-.59.023" style="opacity:1;fill:none;fill-opacity:.754348;stroke:#000;stroke-width:.396875;stroke-linecap:square;stroke-dasharray:none;stroke-opacity:1"/><path d="M56.008 100.586a13.082 13.082 0 0 0-.85.022c-.037.002-.127.005-.169.013-.024.004-.047.013-.071.019" style="opacity:1;fill:none;fill-opacity:.754348;stroke:#3f3f3f;stroke-width:.396875;stroke-linecap:butt;stroke-dasharray:none;stroke-opacity:1"/><path d="m57.74 99.695-.242.007c-.272.008-.543.021-.815.02" style="opacity:1;fill:none;fill-opacity:.754348;stroke:#404040;stroke-width:.396875;stroke-linecap:butt;stroke-dasharray:none;stroke-opacity:1"/><path d="M56.873 99.644a20.87 20.87 0 0 1-.419.49c-.097.121-.059.16.067.136.191-.04.346.041.487.108.237.14.486.293.612.54.018.036.028.076.041.113 0 .034.007.066-.002.101-.037.147-.242.22-.363.23-.057.004-.113.001-.17.001-.055-.012-.114-.02-.167-.038a1.006 1.006 0 0 1-.459-.334" style="opacity:1;fill:none;fill-opacity:.754348;stroke:#3f3f3f;stroke-width:.370417;stroke-linecap:butt;stroke-dasharray:none;stroke-opacity:1"/><g style="display:inline"><path d="M54.982 91.826c.154-.019.308-.027.463-.036.188-.007.376-.016.563-.035l.06-.006M57.061 90.494c-.015.18-.019.36-.023.54-.003.155.001.31-.016.464-.006.05-.019.122-.027.172-.013.072-.026.143-.044.214.004.026.125.035.237.016l.068-.011c.27-.032.402-.032.673-.038l.296-.004" style="fill:none;fill-opacity:1;stroke:#000;stroke-width:.396875;stroke-linecap:square;stroke-dasharray:none;stroke-opacity:1"/><path d="M58.043 92.559c0-.055-.005-.109-.008-.163a9.146 9.146 0 0 0-.084-.734 8.042 8.042 0 0 0-.133-.661" style="fill:none;fill-opacity:1;stroke:#000;stroke-width:.396875;stroke-linecap:square;stroke-dasharray:none;stroke-opacity:1"/></g><g style="display:inline"><path d="M16.857 61.358c-.063 0-.193.005-.278.01-.175.002-.35.004-.526.019" style="opacity:1;fill:none;fill-opacity:.754348;stroke:#000;stroke-width:.396875;stroke-linecap:square;stroke-dasharray:none;stroke-opacity:1"/><path d="M17.59 60.436a9.71 9.71 0 0 1 .707-.044c.145-.007.297 0 .436-.042M17.55 61.929a.744.744 0 0 0 .053.18c.013.023.024.048.04.069.03.042.084.09.13.115.102.053.218.048.328.044.05-.011.102-.02.151-.035a.62.62 0 0 0 .367-.275c.016-.03.026-.063.04-.094.006-.032.016-.064.02-.097a.756.756 0 0 0-.1-.51c-.053-.067-.066-.092-.135-.142-.108-.08-.24-.1-.368-.116-.034-.002-.067-.005-.101-.005a1.09 1.09 0 0 0-.388.074c.001.002.017.017 0 .018-.004 0-.003-.008-.003-.011.005-.055.036-.105.047-.158l.052-.171c.022-.074.051-.147.067-.223l.006-.039" style="opacity:1;fill:none;fill-opacity:.754348;stroke:#000;stroke-width:.396875;stroke-linecap:butt;stroke-dasharray:none;stroke-opacity:1"/></g><g style="display:inline"><path d="M56.892 14.214c.235-.035.471-.063.707-.099.084-.012.168-.026.252-.04l.02-.076c-.083.014-.166.028-.25.04-.235.037-.47.065-.706.1z" style="opacity:1;fill:none;fill-opacity:.754348;stroke:#000;stroke-width:.264583;stroke-linecap:butt;stroke-dasharray:none;stroke-opacity:1"/><path d="M56.923 14.165c-.048.173-.097.345-.143.518-.038.154.037.148.158.13.272-.033.509.053.751.165.153.091.341.204.372.397.005.03.002.061.002.091-.007.03-.01.061-.022.09-.064.155-.229.234-.385.265-.04.008-.08.006-.121.008-.057-.004-.114-.004-.17-.013a1.11 1.11 0 0 1-.502-.215c-.012-.01-.02-.025-.03-.037v-.018l-.077.014.01.045c.013.016.023.035.039.05.132.118.355.2.526.232.06.01.12.011.18.017.066-.009.134-.012.2-.027.174-.039.345-.14.41-.315.011-.033.014-.069.02-.104-.003-.096.005-.116-.036-.206-.071-.155-.225-.25-.365-.334-.048-.023-.095-.048-.144-.068a1.343 1.343 0 0 0-.635-.114c-.044.007-.054.007-.09.018a.067.067 0 0 0-.014.006c-.003.001-.006.01-.007.006-.014-.021.02-.06.009-.075.046-.172.094-.343.142-.515z" style="opacity:1;fill:none;fill-opacity:.754348;stroke:#000;stroke-width:.264583;stroke-linecap:butt;stroke-dasharray:none;stroke-opacity:1"/></g><g style="display:inline;stroke-width:.656937"><path d="M39.503 59.859a369 369 0 0 1 0 .888c0 .042-.007.04.017.075l.012.003c.029.003.066-.005.094-.008l.166-.015c.214-.02.429-.033.643-.043.053-.003.105-.009.157-.018" style="fill:none;fill-opacity:1;stroke:#000;stroke-width:.260722;stroke-dasharray:none;stroke-opacity:1" transform="matrix(1.37432 0 0 1.37328 2.147 -59.674)"/><path d="M40.206 60.073c.009.212.02.424.034.637.013.185.022.37.029.555l.002.085" style="fill:none;fill-opacity:1;stroke:#000;stroke-width:.260722;stroke-dasharray:none;stroke-opacity:1" transform="matrix(1.37432 0 0 1.37328 2.147 -59.674)"/></g><g style="display:inline"><path d="M104.2 57.527h-.143c-.348.01-.697.019-1.042.05" style="opacity:1;fill:none;fill-opacity:.754348;stroke:#000;stroke-width:.396876;stroke-linecap:butt;stroke-dasharray:none;stroke-opacity:1" transform="translate(-.386 2.514)"/><path d="M103.163 57.567c-.053.08-.099.162-.142.246-.027.052-.058.109-.074.166-.006.02-.006.043-.01.064.004.017.002.035.011.05.043.08.164.06.237.062a1.32 1.32 0 0 1 .621.185c.034.02.065.044.097.066.14.123.267.28.281.473.002.033-.002.066-.003.099-.008.029-.01.06-.023.087-.09.193-.354.126-.514.101a2.79 2.79 0 0 1-.5-.157.515.515 0 0 1-.22-.145" style="opacity:1;fill:none;fill-opacity:.754348;stroke:#000;stroke-width:.396875;stroke-linecap:butt;stroke-dasharray:none;stroke-opacity:1" transform="translate(-.386 2.514)"/></g><path d="M103.296 58.932c.015-.127.015-.254.017-.382 0-.189-.013-.378-.026-.566-.005-.161 0-.322.003-.482.006-.163-.004-.325-.01-.487a6.986 6.986 0 0 0-.02-.41l-.007-.074-.078.012.007.073c.01.136.016.271.019.407.007.161.016.322.01.484-.003.162-.008.324-.002.487.013.187.026.374.026.562-.002.124-.003.25-.018.373zM18.05 59.112V57.986c.002-.201-.004-.402.004-.603.011-.172.02-.344.025-.516.006-.103.02-.206.03-.308h-.079c-.01.104-.024.208-.03.313a14.29 14.29 0 0 1-.025.515c-.008.202-.002.403-.004.605V59.118z" style="display:inline;opacity:1;fill:none;fill-opacity:.754348;stroke:#000;stroke-width:.264583;stroke-linecap:butt;stroke-dasharray:none;stroke-opacity:1"/><g style="display:inline"><path d="M42.864 60.628c.225-.025.453-.024.68-.027.188 0 .375-.009.562-.027l.043-.005" style="fill:none;fill-opacity:1;stroke:#000;stroke-width:.396875;stroke-dasharray:none;stroke-opacity:1" transform="translate(-14.493 6.832) scale(.9025)"/><path d="M44.895 59.454c.003.01.006.056.008.067.013.103.026.195.023.297l-.007.317c-.004.181-.01.363-.032.543-.013.052-.004.08.06.073.242-.057.487-.095.734-.127a7.65 7.65 0 0 1 .608-.052l.016-.002" style="fill:none;fill-opacity:1;stroke:#000;stroke-width:.396875;stroke-linecap:square;stroke-dasharray:none;stroke-opacity:1" transform="translate(-14.493 6.832) scale(.9025)"/><path d="m45.894 61.396-.01-.077a8.6 8.6 0 0 1-.053-.626c-.013-.279-.01-.56-.042-.837" style="fill:none;fill-opacity:1;stroke:#000;stroke-width:.396875;stroke-linecap:square;stroke-dasharray:none;stroke-opacity:1" transform="translate(-14.493 6.832) scale(.9025)"/></g><g style="display:inline"><path d="M48.987 59.324c.003.178-.005.356-.016.534-.017.203-.036.406-.059.609-.008.072-.024.053.023.11.132-.021.265-.03.398-.04.246-.008.492-.005.738 0l.05-.002" style="fill:none;fill-opacity:1;stroke:#000;stroke-width:.396875;stroke-linecap:square;stroke-dasharray:none;stroke-opacity:1" transform="matrix(.95 0 0 .95 47.61 3.955)"/><path d="M49.932 61.182c-.006-.025-.009-.05-.013-.075a6.095 6.095 0 0 1-.057-.596 7.076 7.076 0 0 0-.06-.687" style="fill:none;fill-opacity:1;stroke:#000;stroke-width:.396875;stroke-linecap:square;stroke-dasharray:none;stroke-opacity:1" transform="matrix(.95 0 0 .95 47.61 3.955)"/></g></g><g style="display:inline"><path d="M86.173 59.302c.553-2.394.267-4.95-.355-7.303-.673-2.79-1.298-5.996-3.08-8.273-2.046-3.149-5.71-6.651-9.047-8.348-3.826-1.946-7.341-2.802-11.713-3.242-2.51-.247-5.55.126-8.218.842-4.278 1.147-8.375 3.51-11.446 6.803-2.436 2.613-3.956 5.334-5.403 8.606-1.29 2.913-1.642 4.709-1.933 7.317-.027.238.004 1.24.01 1.887.074 2.52.29 6.024.845 8.204.889 3.49 2.494 6.248 4.98 9.054 1.967 2.22 4.786 4.307 7.44 5.58 3.292 1.58 6.575 2.464 10.2 2.777 2.99.258 6.414.045 9.274-.859 3.486-1.101 6.912-3.096 9.677-5.465 3.02-2.587 5.74-5.555 7.398-9.375.926-2.132 1.639-5.867 1.198-8.875-.434-2.958-.06-.171-.094-.256-.031-.08-.099-.235-.099-.235" style="fill:none;fill-opacity:1;stroke:red;stroke-width:.396875;stroke-dasharray:none;stroke-opacity:1"/></g><g style="display:inline"><path d="M81.26 75.609c-.244.326-.697.81-.99 1.09-.68.637-1.376 1.354-2.057 1.826-.21.17-.405.237-.614.408" style="display:inline;fill:none;fill-opacity:1;stroke:red;stroke-width:.396875;stroke-dasharray:none;stroke-opacity:1"/><path d="M78.326 77.665a3.87 3.87 0 0 1-.318.462c-.222.275-.45.546-.69.806-.04.045-.141.133-.117.199.029.077.106.013.237-.01.258-.038.41-.076.73-.15.251-.057.429-.103.7-.199.055-.02.21-.087.268-.113" style="display:inline;fill:none;fill-opacity:1;stroke:red;stroke-width:.396875;stroke-dasharray:none;stroke-opacity:1"/><path d="M73.18 72.845c1.072.719 2.212 1.323 3.362 1.906.649.352.528.275 1.092.619.102.062.203.125.303.19.066.041.117.128.195.129.543.002.042.085-.013-.179-.435-.714-.907-1.406-1.294-2.15a172.1 172.1 0 0 1-1.539-2.78" style="display:inline;fill:none;stroke:red;stroke-width:.608542;stroke-dasharray:none"/><path d="M60.612 57.767c.906.846 1.793 1.86 2.673 2.735 1.42 1.41 3.18 3.331 4.879 4.993 1.872 1.814 3.68 3.685 5.48 5.565 1.126 1.175 2.269 2.335 3.405 3.5.179.184.351.372.535.551" style="display:inline;fill:none;stroke:red;stroke-width:.608542;stroke-dasharray:none"/><path d="M17.884-59.212s.207-.447.33-.66c.081-.142.167-.283.27-.41.097-.121.19-.254.299-.363.07-.07.145-.146.24-.175a.18.18 0 0 1 .152.027c.066.05.113.125.131.206.045.198.028.398.02.601-.013.33-.073.719-.115 1.014-.035.25-.127.516-.051.756.004.013.011.03.024.03.021.003.034-.024.049-.039.119-.116.211-.258.323-.382.11-.123.225-.242.342-.358.165-.164.334-.324.505-.48.048-.044.147-.13.147-.13" style="display:inline;fill:none;stroke:#00f;stroke-width:.396875;stroke-dasharray:none;stroke-opacity:1"/></g><g style="display:inline"><path d="M49.31 74.331c.056-.151.245-.186.357-.135.088.047-.033.188-.073.215-.057.05-.194.06-.22-.026-.002-.035-.004-.018.01-.051" style="display:inline;fill:#f0f;fill-opacity:1;stroke:#f0f;stroke-width:.198933;stroke-linecap:square;stroke-dasharray:none;stroke-opacity:1" transform="translate(-31.903 -21.782)"/><path d="M47.671 72.347c-.01.256-.07.508-.11.76-.023.333.168.328.44.342a6.205 6.205 0 0 0 1.056-.059" style="display:inline;fill:none;fill-opacity:1;stroke:#f0f;stroke-width:.449792;stroke-linecap:square;stroke-dasharray:none;stroke-opacity:1" transform="translate(-31.903 -21.782)"/><path d="M48.604 74.26v0-.031c-.003-.19-.008-.38-.014-.57-.01-.325-.016-.65.003-.975M50.413 72.632c.291-.023.584-.024.876-.025h.102" style="display:inline;fill:#f0f;fill-opacity:1;stroke:#f0f;stroke-width:.449792;stroke-linecap:square;stroke-dasharray:none;stroke-opacity:1" transform="translate(-31.903 -21.782)"/><path d="M50.486 72.604c-.028.23-.06.457-.107.684-.05.192-.044.205.166.172.288-.041.517-.022.71.196.086.098.17.306.079.443-.156.233-.43.279-.713.24-.14-.018-.39-.073-.483-.235" style="display:inline;fill:none;fill-opacity:1;stroke:#f0f;stroke-width:.449792;stroke-linecap:square;stroke-dasharray:none;stroke-opacity:1" transform="translate(-31.903 -21.782)"/><path d="m76.185 74.439 2.27-2.088.606.696-1.256 1.346-1.198 1.119-1.506 1.403-1.119-.228z" style="opacity:1;fill:#fdfdfd;fill-opacity:.754348;stroke:none;stroke-width:.264583;stroke-linecap:square;stroke-dasharray:none;stroke-opacity:1" transform="translate(-18.228 -15.063)"/><path d="m59.638 90.724.091 1.483 3.743-3.31-.913-.98z" style="fill:#fdfdfd;fill-opacity:.754348;stroke:none;stroke-width:.264583;stroke-linecap:square;stroke-dasharray:none;stroke-opacity:1" transform="translate(-18.228 -15.063)"/><path d="M53.582 95.458c-.056.153-.116.303-.176.454a16.16 16.16 0 0 1-.977 1.96c-.282.461-.582.909-.893 1.35-.034.05-.253.305-.085.31a.361.361 0 0 0 .217-.096c.25-.177.506-.346.777-.486.397-.204.964-.505 1.51-.712.393-.149.754-.365 1.236-.487" style="display:inline;fill:none;fill-opacity:1;stroke:#f0f;stroke-width:.72371;stroke-linecap:square;stroke-dasharray:none;stroke-opacity:1" transform="translate(-18.228 -15.063)"/><path d="M76.257 75.176c-.478.414-.925.902-1.385 1.336-.36.34-.718.682-1.076 1.024-.4.406-.785.827-1.2 1.218-.448.404-.897.873-1.34 1.283-.44.407-.873.914-1.307 1.327-.41.39-.789.745-1.19 1.142-.366.362-.728.67-1.061 1.062-.359.423-.746.74-1.14 1.13-.36.357-.73.733-1.097 1.084-.365.347-.731.693-1.095 1.041-.384.37-.51.596-.884.975-.396.4-.765.825-1.148 1.237-.366.389-.935.8-1.318 1.171-.356.346-.726.754-1.1 1.08-.281.248-.59.657-.882.893-.262.212-.583.499-.83.725-.245.224-.51.534-.75.763-.32.305-.466.53-.798.822-.368.324-.684.688-1.04 1.026-.347.332-.518.503-.88.82a35.1 35.1 0 0 0-.85.782c-.196.185-.392.372-.587.56-.154.138-.275.308-.41.464-.148.17-.318.32-.469.488-.127.153-.256.305-.39.453" style="display:inline;fill:none;fill-opacity:1;stroke:#f0f;stroke-width:.608542;stroke-linecap:square;stroke-dasharray:none;stroke-opacity:1" transform="translate(-18.228 -15.063)"/><path d="M78.417 73.08c-.237.238-.512.555-.837.874-.455.446-.84.806-1.323 1.222" style="display:inline;fill:none;fill-opacity:1;stroke:#f0f;stroke-width:.635;stroke-linecap:square;stroke-dasharray:none;stroke-opacity:1" transform="translate(-18.228 -15.063)"/><path d="M76.875 95.165h20.786v3.018H76.875z" style="opacity:1;fill:#fff6d5;fill-opacity:1;stroke:#000;stroke-width:.206819;stroke-linecap:square;stroke-dasharray:none;stroke-opacity:1" transform="translate(-104.14 -19.272)"/><g style="display:inline;stroke-width:6.64887;stroke-dasharray:none"><path d="M4523.862 338.493c-.448.934-.86 1.887-1.345 2.803-2.9 5.475-6.36 10.685-9.721 15.878-14.808 22.87 5.14-8.169-10.626 16.407-6.08 9.93-11.95 19.996-17.318 30.33l-6.875.838c5.481-10.385 11.406-20.531 17.472-30.584 12.25-19.235-1.003 1.504 10.568-16.402 3.297-5.104 6.693-10.23 9.636-15.554.479-.867.884-1.773 1.326-2.66l6.883-1.056z" style="opacity:1;fill:#000;fill-opacity:1;stroke:#000;stroke-width:6.64887;stroke-linecap:butt;stroke-linejoin:miter;stroke-miterlimit:4;stroke-dasharray:none;stroke-dashoffset:0;stroke-opacity:1" transform="matrix(.01814 0 0 .0178 -107.113 70.876)"/><path d="M4520.973 332.783c.777.924 1.613 1.801 2.33 2.773 4.581 6.224 8.26 13.122 12.004 19.856 5.36 9.643 5.544 10.049 10.84 19.831 3.928 7.952 8.383 15.635 12.369 23.554l-6.098 3.298c-3.77-7.983-8.245-15.626-12.123-23.557-5.28-9.74-5.477-10.187-10.855-19.77-3.68-6.555-7.298-13.31-11.854-19.324-.686-.907-1.495-1.714-2.243-2.57l5.63-4.091z" style="opacity:1;fill:#000;fill-opacity:1;stroke:#000;stroke-width:6.64887;stroke-linecap:butt;stroke-linejoin:miter;stroke-miterlimit:4;stroke-dasharray:none;stroke-dashoffset:0;stroke-opacity:1" transform="matrix(.01814 0 0 .0178 -107.113 70.876)"/><path d="M4498.655 373.575c13.382-.838 26.793-.67 40.185-.254 4.087.285 8.215.155 12.29.627l-4.325 5.478c-4.006-.333-8.025-.469-12.039-.64-13.31-.407-26.666-.562-39.947.592l3.836-5.803z" style="opacity:1;fill:#000;fill-opacity:1;stroke:#000;stroke-width:6.64887;stroke-linecap:butt;stroke-linejoin:miter;stroke-miterlimit:4;stroke-dasharray:none;stroke-dashoffset:0;stroke-opacity:1" transform="matrix(.01814 0 0 .0178 -107.113 70.876)"/></g><path d="M80.974 96.304c-.05-.058-.148-.088-.242-.07a.364.364 0 0 0-.083.03c-.034.016-.07.05-.09.067a.735.735 0 0 0-.224.388.439.439 0 0 0-.007.145.309.309 0 0 0 .044.126c.079.123.252.183.431.198.153.012.223-.005.37-.025l-.078.089c-.136.027-.281.025-.39.013-.198-.023-.38-.098-.467-.233a.353.353 0 0 1-.049-.137.479.479 0 0 1 .004-.153.82.82 0 0 1 .117-.295.917.917 0 0 1 .194-.195.685.685 0 0 1 .314-.104.347.347 0 0 1 .288.105zM82.324 96.27c-.008-.008-.015-.016-.024-.022-.052-.031-.12-.055-.18-.04a.45.45 0 0 0-.192.1c-.075.07-.099.088-.142.184a.562.562 0 0 0-.043.238.447.447 0 0 0 .078.237c.086.139.238.229.404.248a.377.377 0 0 0 .117-.006.415.415 0 0 0 .107-.042c.044-.023.05-.035.07-.054l.108.011a.734.734 0 0 1-.348.173.426.426 0 0 1-.127-.002.613.613 0 0 1-.489-.405.507.507 0 0 1-.024-.129.659.659 0 0 1 .04-.258.527.527 0 0 1 .061-.107.646.646 0 0 1 .246-.218.495.495 0 0 1 .2-.057.316.316 0 0 1 .228.083z" style="display:inline;fill:#000;fill-opacity:1;stroke:#000;stroke-width:.149369;stroke-miterlimit:4;stroke-dasharray:none;stroke-opacity:1" transform="translate(-104.14 -19.272)"/><g style="display:inline;stroke:#000;stroke-width:9.47899;stroke-dasharray:none;stroke-opacity:1"><path d="M-878.055-3483.851c14.933-1.802 29.987-2.26 45.01-2.716 5.094.138 2.956-.097 6.439.422l-4.364 5.413c-5.41-.377-1.238-.17-6.024-.267-14.952.404-29.96.868-44.778 3.046z" style="fill:#000;fill-opacity:1;stroke:#000;stroke-width:9.47899;stroke-miterlimit:4;stroke-dasharray:none;stroke-opacity:1" transform="matrix(.01575 0 0 .01576 -7.12 131.79)"/><path d="M-876.475-3480.11c.053 2.146.195 4.293.157 6.44-.071 4.052-.823 15.253-1.05 19.014-.546 9.03-1.03 18.024-1.166 27.068.105 4.246.068 8.515.357 12.755l-6.55.47c-.147-.863-.145-2.935-.228-5.098l-.067-6.062c.14-9.09.64-18.128 1.18-27.203.226-3.798.93-14.665 1.026-18.778.046-1.98-.054-3.962-.08-5.943l6.421-2.663z" style="fill:#000;fill-opacity:1;stroke:#000;stroke-width:9.47899;stroke-miterlimit:4;stroke-dasharray:none;stroke-opacity:1" transform="matrix(.01575 0 0 .01576 -7.12 131.79)"/><path d="M-879.583-3451.197c13.18-1.463 26.4-2.559 39.631-3.433l-3.903 5.668c-13.767 1.01-27.738 2.055-39.447 3.583zM-880.878-3419.968c17.085-1.412 35.549-2.005 52.69-1.95.83.363 1.333.098 1.69.028.517-.022 1.36-.435 1.114.058-2.846 5.723-3.72 5.347-8.196 5.415a499.386 499.386 0 0 0-51.22 2.161z" style="fill:#000;fill-opacity:1;stroke:#000;stroke-width:9.47899;stroke-miterlimit:4;stroke-dasharray:none;stroke-opacity:1" transform="matrix(.01575 0 0 .01576 -7.12 131.79)"/></g><path d="M84.687 96.1c-.023.163-.062.323-.092.486-.027.146-.027.16-.046.303a1.75 1.75 0 0 0-.008.27c.001.027.005.051.003.078-.028.015-.023.04-.095.042-.03.001-.02-.049-.018-.073.004-.035.044-.013.08-.026.01-.003.02.001.03.001l.057-.003.094-.004c.308-.009-.056.004.288-.009l.407-.014a.795.795 0 0 0 .116-.013c-.026.054-.04.069-.057.1-.042.004-.083.005-.126.006l-.406.014c-.127.005-.255.005-.382.015-.038.003-.044.005-.072.006-.008-.027-.026-.053-.029-.083-.006-.092 0-.185.008-.278.019-.142.02-.16.046-.306.03-.16.069-.32.089-.483l.113-.03z" style="display:inline;fill:#000;fill-opacity:1;stroke:#000;stroke-width:.149369;stroke-miterlimit:4;stroke-dasharray:none;stroke-opacity:1" transform="translate(-104.14 -19.272)"/><g style="display:inline;stroke:#000;stroke-width:9.08958;stroke-miterlimit:4;stroke-dasharray:none;stroke-opacity:1"><path d="M-820.578 436.377c1.886 12.563 2.328 25.297 2.745 37.978.193 7.707.296 15.417.223 23.126l-6.638 2.09c.237-8.02.088-16.167-.022-23.033-.389-12.547-.81-25.159-2.782-37.574l6.474-2.587z" style="fill:#000;fill-opacity:1;stroke:#000;stroke-width:9.08958;stroke-miterlimit:4;stroke-dasharray:none;stroke-opacity:1" transform="matrix(.01636 .00043 -.00043 .0165 -4.484 70.039)"/><path d="M-828.56 434.604c16.285-1.589 32.603-2.762 48.942-3.62l5.05-.223-3.951 5.63-4.992.188c-16.32.808-32.622 1.982-48.856 3.854zM-815.746 464.044a728.189 728.189 0 0 1 30.799-1.79l-3.899 5.55c-10.736.554-21.633 1.138-30.792 1.99zM-824.268 495.707c16.792 1.16 33.616.223 50.405-.47 4.745-.246 9.498-.36 14.24-.675l-3.996 5.721c-4.93.13-9.928.366-14.145.507-16.853.64-33.719 1.418-50.58.527z" style="fill:#000;fill-opacity:1;stroke:#000;stroke-width:9.08958;stroke-miterlimit:4;stroke-dasharray:none;stroke-opacity:1" transform="matrix(.01636 .00043 -.00043 .0165 -4.484 70.039)"/></g><g style="display:inline;stroke:#000;stroke-width:10.1936;stroke-dasharray:none;stroke-opacity:1"><path d="M170.17-3340.33c.59 19.17.731 38.35.836 57.526.13 3.853-.14 7.702.198 11.543l-6.529 2.394c-.397-4.12-.051-8.309-.133-11.828-.01-19.104-.1-38.216-.903-57.305z" style="fill:#000;fill-opacity:1;stroke:#000;stroke-width:10.1936;stroke-miterlimit:4;stroke-dasharray:none;stroke-opacity:1" transform="matrix(.01465 0 0 .01465 -18.904 125.83)"/><path d="M150.363-3341.595c11.89-3.427 25.38-4.202 37.578-2.14 2.677.452 5.272 1.3 7.908 1.95 3.833 1.976 7.113 2.618 8.756 7.04 1.386 3.732 0 7.448-2.03 10.563-2.664 4.077-6.762 7.104-10.384 10.2-6.397 4.575-13.074 8.908-20.383 11.884-.295-1.179-.04-3.097.657-4.224 11.237 2.417 21.648 7.777 31.878 12.853 5.86 3.254 11.823 6.326 17.476 9.936 2.086 1.332 3.428 1.929 4.45 4.085l-5.5 4.398c-.01-.867-.593-1.322-.593-1.322-1.034-1.052-2.394-1.894-3.52-2.618-5.567-3.576-11.438-6.632-17.24-9.802-10.031-4.907-20.275-10.187-31.37-12.136.955-1.959 1.675-4.052 2.867-5.877.24-.367.836-.264 1.245-.419.896-.34 1.797-.671 2.67-1.065 4.667-2.104 5.82-2.783 10.55-5.948 3.379-2.705 7.548-5.738 10.38-9.114 1.434-1.71 3.782-5.012 3.038-7.687-.978-3.512-4.7-4.306-7.444-5.639-2.532-.58-5.029-1.349-7.598-1.738-11.15-1.69-22.993-1.034-33.848 2.073-.877.251-1.686.695-2.53 1.043z" style="fill:#000;fill-opacity:1;stroke:#000;stroke-width:10.1936;stroke-miterlimit:4;stroke-dasharray:none;stroke-opacity:1" transform="matrix(.01465 0 0 .01465 -18.904 125.83)"/></g><g style="display:inline;stroke:#000;stroke-width:9.22414;stroke-dasharray:none;stroke-opacity:1"><path d="M-1185.94-3414.064c3.96-10.215 7.115-16.332 11.766-26.248 6.15-13.033 13.16-25.715 17.962-39.335.806-2.783.648-2.006 1.1-4.158.054-.258-.1-.697.153-.776 7.952-2.49 5.837-3.327 7.103-.527 1.919 3.037 2.396 7.38 3.247 10.775.575 2.295 1.181 4.582 1.772 6.873 4.436 16.285 9.057 29.753 14.656 45.663.936 3.082 2.166 6.363 2.516 8.956-1.829 1.423-3.91 2.489-5.865 3.733l-.889-3.119c-.572-2.527-1.104-3.964-1.937-6.602-5.506-16.02-10.175-29.541-14.723-45.867-.613-2.297-1.238-4.59-1.837-6.891-.42-1.614-.823-3.232-1.22-4.85-.71-5.171 2.181-6.013 2.704-4.448-4.69 13.77-11.816 26.517-18.021 39.633-3.185 6.803-4.65 9.856-7.715 16.712-.862 1.93-2.407 5.136-3.216 7.252-.262.686-.448 1.4-.672 2.1z" style="fill:#000;fill-opacity:1;stroke:#000;stroke-width:9.2241;stroke-miterlimit:4;stroke-dasharray:none;stroke-opacity:1" transform="matrix(.01859 0 0 .0141 6.87 126.094)"/><path d="M-1179.978-3434.788c-1.476-.66-2.99-2.354-4.747-2.145 1.99-2.65.04-1.552 5.294-5.365.609-.442 1.504.026 2.256.036 1.26.018 2.52.033 3.779.044 4.48.036 7.584.04 12.18.055 6.86.01 13.72.01 20.58-.013 2.952-.01 5.782-.203 8.643.568l.859 1.047-5.969 3.645.552.583c-2.695-.375-5.392-.296-8.11-.3-6.859-.012-13.717 0-20.575 0-5.358 0-10.72.052-16.077-.05-.787-.014-2.454.702-2.359-.078.818-6.705 1.218-6.393 3.46-5.508 2.033.717 3.857 1.869 5.637 3.07-1.8 1.47-3.602 2.944-5.403 4.413z" style="fill:#000;fill-opacity:1;stroke:#000;stroke-width:9.2241;stroke-miterlimit:4;stroke-dasharray:none;stroke-opacity:1" transform="matrix(.01859 0 0 .0141 6.87 126.094)"/></g><g style="display:inline;stroke:#000;stroke-width:9.23277;stroke-dasharray:none;stroke-opacity:1"><path d="M301.954-3342.888c15.026.075 30.037-.623 45.065-.58 6.788.112 7.867.103 14.153.292 2.13.064 4.614-.014 6.762.379l-4.39 5.433c-7.139-.34-14.39-.576-20.506-.632-15.067 0-30.116.69-45.182.748z" style="fill:#000;fill-opacity:1;stroke:#000;stroke-width:9.23277;stroke-miterlimit:4;stroke-dasharray:none;stroke-opacity:1" transform="matrix(.01618 0 0 .01618 -18.486 130.953)"/><path d="M336.334-3338.69c.12 1.267.282 2.531.358 3.802.425 7.037.502 14.106.809 21.15.243 5.587.564 11.171.846 16.757.112 2.532.233 5.064.337 7.596.174 4.215.27 7.132.38 11.241.028 1.072.017 2.145.073 3.216.062 1.21.23 1.795.23 1.795L333.44-3270c-.265-.344-.46-.74-.643-1.036-.362-1.14-.245-4.161-.257-4.916-.099-6.27-.327-12.536-.615-18.8-.685-13.738-1.237-27.486-1.994-41.218l6.402-2.72z" style="fill:#000;fill-opacity:1;stroke:#000;stroke-width:9.23277;stroke-miterlimit:4;stroke-dasharray:none;stroke-opacity:1" transform="matrix(.01618 0 0 .01618 -18.486 130.953)"/></g><g style="display:inline;stroke:#000;stroke-width:9.24615;stroke-miterlimit:4;stroke-dasharray:none;stroke-opacity:1"><path d="M-573.414-1041.59c21.88-3.62 44.272-5.263 66.375-2.86l-4.251 5.38c-21.97-2.331-44.193-.442-65.893 3.34l3.769-5.86z" style="fill:#000;fill-opacity:1;stroke:#000;stroke-width:9.24615;stroke-miterlimit:4;stroke-dasharray:none;stroke-opacity:1" transform="matrix(.01608 -.00062 .00061 .0162 -2.166 93.524)"/><path d="M-538.928-1040.22c2.454 14.806.057 29.836-1.18 44.649-.38 5.84-1.357 11.684-1.007 17.543-2.69 1.074-7.222 6.052-6.698.232.656-19.807 5.223-39.602 2.6-59.443l6.285-2.98z" style="fill:#000;fill-opacity:1;stroke:#000;stroke-width:9.24615;stroke-miterlimit:4;stroke-dasharray:none;stroke-opacity:1" transform="matrix(.01608 -.00062 .00061 .0162 -2.166 93.524)"/><path d="M-571.086-983.704c18.393-.908 36.822-1.613 55.239-1.29 7.607.374 15.35.574 22.719 2.676 3.32.868-.963 2.736-1.878 4.144-2.17 3.12-5.938-.722-9.055-.215-19.002-2.38-38.213-.928-57.285-.426-3.939-.294-11.422 1.536-13.118.101l3.378-4.99z" style="fill:#000;fill-opacity:1;stroke:#000;stroke-width:9.24615;stroke-miterlimit:4;stroke-dasharray:none;stroke-opacity:1" transform="matrix(.01608 -.00062 .00061 .0162 -2.166 93.524)"/></g><path d="M94.111 96.325a.475.475 0 0 0-.197.2.662.662 0 0 0-.067.467.289.289 0 0 0 .225.214.627.627 0 0 0 .468-.122c.081-.05.092-.155.092-.242a.715.715 0 0 0-.186-.437c-.07-.077-.169-.15-.279-.129-.04.004-.107.06-.118-.008.028-.067.109-.09.175-.093.138-.006.254.09.334.194.112.149.195.336.168.526a.493.493 0 0 1-.145.239.652.652 0 0 1-.522.175.353.353 0 0 1-.281-.199c-.075-.158-.05-.344.01-.503a.875.875 0 0 1 .239-.328c.03-.02.08-.075.08-.01.008.016.033.044.004.056z" style="display:inline;fill:#000;fill-opacity:1;stroke:#000;stroke-width:.149369;stroke-miterlimit:4;stroke-dasharray:none;stroke-opacity:1" transform="translate(-104.14 -19.272)"/><g style="display:inline;stroke:#000;stroke-width:9.42133;stroke-dasharray:none;stroke-opacity:1"><path d="M-151.569-3340.979c1.165 15.385.48 30.844.166 46.25-.147 6.794-.249 13.589-.328 20.383l-6.56 2.084c.152-7.117.31-14.341.444-20.432.33-15.244.971-30.538-.215-45.76z" style="fill:#000;fill-opacity:1;stroke:#000;stroke-width:9.42133;stroke-miterlimit:4;stroke-dasharray:none;stroke-opacity:1" transform="matrix(.01586 0 0 .01585 -6.581 129.854)"/><path d="M-148.907-3340.04c6.664 6.403 12.15 13.892 17.92 21.075 2.195 2.73 4.403 5.45 6.605 8.174l6.818 8.507c5.4 6.968 10.87 13.896 16.553 20.638 1.988 6.954-2.354 7.641-1.704-.127.024-1.973.072-3.947.071-5.921 0-10.237-.212-7.489-.028-18.481.15-8.976.582-17.95.96-26.918.076-1.749.15-3.497.227-5.245.072-1.654.137-3.126.202-4.646.01-.136-.12-.366.01-.408 6.873-2.251 6.64-3.909 6.59-1.078-1.515.482-4.576 1.468-6.59 1.916.157-2.813-.106-.775 6.717-2.775-.132 1.66-.27 3.505-.353 4.994-.098 1.75-.186 3.501-.28 5.252-.433 8.937-.904 17.882-1.053 26.83-.15 8.992.012 9.882.12 18.449.025 2.028.024 4.056.036 6.085-.059 1.005-.007 3.528.122 4.53.214 1.657.532 2.762 1.277 4.038-4.534 5.544-3.627 5.923-5.968 3.986-3.857-3.71-7.116-8.034-10.468-12.184-1.899-2.35-3.82-4.683-5.696-7.051-2.143-2.705-4.24-5.445-6.36-8.167-14.206-17.69.484.572-13.45-16.664-5.687-7.035-11.109-14.388-17.777-20.548l5.499-4.26z" style="fill:#000;fill-opacity:1;stroke:#000;stroke-width:9.42133;stroke-miterlimit:4;stroke-dasharray:none;stroke-opacity:1" transform="matrix(.01586 0 0 .01585 -6.581 129.854)"/></g><path d="M106.593 117.11h21.431v3.015h-21.431z" style="fill:#fff6d5;fill-opacity:1;stroke:#000;stroke-width:.209895;stroke-linecap:square;stroke-dasharray:none;stroke-opacity:1" transform="translate(-134.437 -24.987)"/><g style="display:inline;stroke-width:6.64887;stroke-dasharray:none"><path d="M4523.862 338.493c-.448.934-.86 1.887-1.345 2.803-2.9 5.475-6.36 10.685-9.721 15.878-14.808 22.87 5.14-8.169-10.626 16.407-6.08 9.93-11.95 19.996-17.318 30.33l-6.875.838c5.481-10.385 11.406-20.531 17.472-30.584 12.25-19.235-1.003 1.504 10.568-16.402 3.297-5.104 6.693-10.23 9.636-15.554.479-.867.884-1.773 1.326-2.66l6.883-1.056z" style="opacity:1;fill:#000;fill-opacity:1;stroke:#000;stroke-width:6.64887;stroke-linecap:butt;stroke-linejoin:miter;stroke-miterlimit:4;stroke-dasharray:none;stroke-dashoffset:0;stroke-opacity:1" transform="matrix(.01814 0 0 .0178 -107.694 87.105)"/><path d="M4520.973 332.783c.777.924 1.613 1.801 2.33 2.773 4.581 6.224 8.26 13.122 12.004 19.856 5.36 9.643 5.544 10.049 10.84 19.831 3.928 7.952 8.383 15.635 12.369 23.554l-6.098 3.298c-3.77-7.983-8.245-15.626-12.123-23.557-5.28-9.74-5.477-10.187-10.855-19.77-3.68-6.555-7.298-13.31-11.854-19.324-.686-.907-1.495-1.714-2.243-2.57l5.63-4.091z" style="opacity:1;fill:#000;fill-opacity:1;stroke:#000;stroke-width:6.64887;stroke-linecap:butt;stroke-linejoin:miter;stroke-miterlimit:4;stroke-dasharray:none;stroke-dashoffset:0;stroke-opacity:1" transform="matrix(.01814 0 0 .0178 -107.694 87.105)"/><path d="M4498.655 373.575c13.382-.838 26.793-.67 40.185-.254 4.087.285 8.215.155 12.29.627l-4.325 5.478c-4.006-.333-8.025-.469-12.039-.64-13.31-.407-26.666-.562-39.947.592l3.836-5.803z" style="opacity:1;fill:#000;fill-opacity:1;stroke:#000;stroke-width:6.64887;stroke-linecap:butt;stroke-linejoin:miter;stroke-miterlimit:4;stroke-dasharray:none;stroke-dashoffset:0;stroke-opacity:1" transform="matrix(.01814 0 0 .0178 -107.694 87.105)"/></g><path d="M110.69 118.248c-.05-.059-.147-.088-.241-.07a.389.389 0 0 0-.083.029c-.034.016-.07.05-.09.068a.735.735 0 0 0-.224.387.454.454 0 0 0-.007.145.31.31 0 0 0 .044.127c.079.123.252.183.431.197.153.013.223-.005.37-.024l-.079.088c-.135.027-.28.026-.388.014-.199-.023-.381-.098-.468-.233a.352.352 0 0 1-.049-.137.493.493 0 0 1 .004-.154.819.819 0 0 1 .116-.294.918.918 0 0 1 .195-.195.687.687 0 0 1 .314-.105.347.347 0 0 1 .287.106zM112.041 118.213c-.008-.007-.015-.016-.024-.021-.052-.031-.121-.055-.18-.04a.45.45 0 0 0-.192.1c-.075.07-.099.087-.142.184a.562.562 0 0 0-.043.238.453.453 0 0 0 .078.236c.086.14.238.23.404.248a.383.383 0 0 0 .117-.006.43.43 0 0 0 .107-.042c.044-.023.05-.035.069-.054l.109.011a.734.734 0 0 1-.348.174.416.416 0 0 1-.127-.002.612.612 0 0 1-.489-.405.504.504 0 0 1-.024-.129.665.665 0 0 1 .04-.258.53.53 0 0 1 .06-.107.646.646 0 0 1 .246-.218.495.495 0 0 1 .2-.057.316.316 0 0 1 .228.083z" style="display:inline;fill:#000;fill-opacity:1;stroke:#000;stroke-width:.149369;stroke-miterlimit:4;stroke-dasharray:none;stroke-opacity:1" transform="translate(-134.437 -24.987)"/><g style="display:inline;stroke:#000;stroke-width:9.47899;stroke-dasharray:none;stroke-opacity:1"><path d="M-878.055-3483.851c14.933-1.802 29.987-2.26 45.01-2.716 5.094.138 2.956-.097 6.439.422l-4.364 5.413c-5.41-.377-1.238-.17-6.024-.267-14.952.404-29.96.868-44.778 3.046z" style="fill:#000;fill-opacity:1;stroke:#000;stroke-width:9.47899;stroke-miterlimit:4;stroke-dasharray:none;stroke-opacity:1" transform="matrix(.01575 0 0 .01576 -7.537 148.02)"/><path d="M-876.475-3480.11c.053 2.146.195 4.293.157 6.44-.071 4.052-.823 15.253-1.05 19.014-.546 9.03-1.03 18.024-1.166 27.068.105 4.246.068 8.515.357 12.755l-6.55.47c-.147-.863-.145-2.935-.228-5.098l-.067-6.062c.14-9.09.64-18.128 1.18-27.203.226-3.798.93-14.665 1.026-18.778.046-1.98-.054-3.962-.08-5.943l6.421-2.663z" style="fill:#000;fill-opacity:1;stroke:#000;stroke-width:9.47899;stroke-miterlimit:4;stroke-dasharray:none;stroke-opacity:1" transform="matrix(.01575 0 0 .01576 -7.537 148.02)"/><path d="M-879.583-3451.197c13.18-1.463 26.4-2.559 39.631-3.433l-3.903 5.668c-13.767 1.01-27.738 2.055-39.447 3.583zM-880.878-3419.968c17.085-1.412 35.549-2.005 52.69-1.95.83.363 1.333.098 1.69.028.517-.022 1.36-.435 1.114.058-2.846 5.723-3.72 5.347-8.196 5.415a499.386 499.386 0 0 0-51.22 2.161z" style="fill:#000;fill-opacity:1;stroke:#000;stroke-width:9.47899;stroke-miterlimit:4;stroke-dasharray:none;stroke-opacity:1" transform="matrix(.01575 0 0 .01576 -7.537 148.02)"/></g><path d="M114.568 118.043c-.022.163-.061.324-.091.486-.027.146-.027.16-.047.303-.008.09-.013.18-.008.27.002.028.005.052.003.079-.027.014-.023.04-.095.041-.029.001-.02-.048-.017-.072.004-.036.044-.014.079-.027.01-.004.02.001.03.001.02 0 .039-.002.058-.003.031 0 .062-.003.094-.004.308-.009-.057.004.287-.009l.407-.014a.712.712 0 0 0 .117-.013c-.027.054-.04.069-.057.1a1.76 1.76 0 0 1-.126.006c-.135.004-.27.008-.406.014-.127.005-.255.005-.382.015l-.072.007c-.008-.027-.026-.053-.03-.083-.005-.093 0-.186.009-.278.019-.143.02-.16.046-.306.03-.161.068-.32.089-.483l.112-.03z" style="display:inline;fill:#000;fill-opacity:1;stroke:#000;stroke-width:.149369;stroke-miterlimit:4;stroke-dasharray:none;stroke-opacity:1" transform="translate(-134.437 -24.987)"/><g style="display:inline;stroke:#000;stroke-width:9.08958;stroke-miterlimit:4;stroke-dasharray:none;stroke-opacity:1"><path d="M-820.578 436.377c1.886 12.563 2.328 25.297 2.745 37.978.193 7.707.296 15.417.223 23.126l-6.638 2.09c.237-8.02.088-16.167-.022-23.033-.389-12.547-.81-25.159-2.782-37.574l6.474-2.587z" style="fill:#000;fill-opacity:1;stroke:#000;stroke-width:9.08958;stroke-miterlimit:4;stroke-dasharray:none;stroke-opacity:1" transform="matrix(.01636 .00043 -.00043 .0165 -4.9 86.267)"/><path d="M-828.56 434.604c16.285-1.589 32.603-2.762 48.942-3.62l5.05-.223-3.951 5.63-4.992.188c-16.32.808-32.622 1.982-48.856 3.854zM-815.746 464.044a728.189 728.189 0 0 1 30.799-1.79l-3.899 5.55c-10.736.554-21.633 1.138-30.792 1.99zM-824.268 495.707c16.792 1.16 33.616.223 50.405-.47 4.745-.246 9.498-.36 14.24-.675l-3.996 5.721c-4.93.13-9.928.366-14.145.507-16.853.64-33.719 1.418-50.58.527z" style="fill:#000;fill-opacity:1;stroke:#000;stroke-width:9.08958;stroke-miterlimit:4;stroke-dasharray:none;stroke-opacity:1" transform="matrix(.01636 .00043 -.00043 .0165 -4.9 86.267)"/></g><g style="display:inline;stroke:#000;stroke-width:10.1936;stroke-dasharray:none;stroke-opacity:1"><path d="M170.17-3340.33c.59 19.17.731 38.35.836 57.526.13 3.853-.14 7.702.198 11.543l-6.529 2.394c-.397-4.12-.051-8.309-.133-11.828-.01-19.104-.1-38.216-.903-57.305z" style="fill:#000;fill-opacity:1;stroke:#000;stroke-width:10.1936;stroke-miterlimit:4;stroke-dasharray:none;stroke-opacity:1" transform="matrix(.01465 0 0 .01465 -19.364 142.058)"/><path d="M150.363-3341.595c11.89-3.427 25.38-4.202 37.578-2.14 2.677.452 5.272 1.3 7.908 1.95 3.833 1.976 7.113 2.618 8.756 7.04 1.386 3.732 0 7.448-2.03 10.563-2.664 4.077-6.762 7.104-10.384 10.2-6.397 4.575-13.074 8.908-20.383 11.884-.295-1.179-.04-3.097.657-4.224 11.237 2.417 21.648 7.777 31.878 12.853 5.86 3.254 11.823 6.326 17.476 9.936 2.086 1.332 3.428 1.929 4.45 4.085l-5.5 4.398c-.01-.867-.593-1.322-.593-1.322-1.034-1.052-2.394-1.894-3.52-2.618-5.567-3.576-11.438-6.632-17.24-9.802-10.031-4.907-20.275-10.187-31.37-12.136.955-1.959 1.675-4.052 2.867-5.877.24-.367.836-.264 1.245-.419.896-.34 1.797-.671 2.67-1.065 4.667-2.104 5.82-2.783 10.55-5.948 3.379-2.705 7.548-5.738 10.38-9.114 1.434-1.71 3.782-5.012 3.038-7.687-.978-3.512-4.7-4.306-7.444-5.639-2.532-.58-5.029-1.349-7.598-1.738-11.15-1.69-22.993-1.034-33.848 2.073-.877.251-1.686.695-2.53 1.043z" style="fill:#000;fill-opacity:1;stroke:#000;stroke-width:10.1936;stroke-miterlimit:4;stroke-dasharray:none;stroke-opacity:1" transform="matrix(.01465 0 0 .01465 -19.364 142.058)"/></g><g style="display:inline;stroke:#000;stroke-width:9.22414;stroke-dasharray:none;stroke-opacity:1"><path d="M-1185.94-3414.064c3.96-10.215 7.115-16.332 11.766-26.248 6.15-13.033 13.16-25.715 17.962-39.335.806-2.783.648-2.006 1.1-4.158.054-.258-.1-.697.153-.776 7.952-2.49 5.837-3.327 7.103-.527 1.919 3.037 2.396 7.38 3.247 10.775.575 2.295 1.181 4.582 1.772 6.873 4.436 16.285 9.057 29.753 14.656 45.663.936 3.082 2.166 6.363 2.516 8.956-1.829 1.423-3.91 2.489-5.865 3.733l-.889-3.119c-.572-2.527-1.104-3.964-1.937-6.602-5.506-16.02-10.175-29.541-14.723-45.867-.613-2.297-1.238-4.59-1.837-6.891-.42-1.614-.823-3.232-1.22-4.85-.71-5.171 2.181-6.013 2.704-4.448-4.69 13.77-11.816 26.517-18.021 39.633-3.185 6.803-4.65 9.856-7.715 16.712-.862 1.93-2.407 5.136-3.216 7.252-.262.686-.448 1.4-.672 2.1z" style="fill:#000;fill-opacity:1;stroke:#000;stroke-width:9.2241;stroke-miterlimit:4;stroke-dasharray:none;stroke-opacity:1" transform="matrix(.01859 0 0 .0141 6.49 142.323)"/><path d="M-1179.978-3434.788c-1.476-.66-2.99-2.354-4.747-2.145 1.99-2.65.04-1.552 5.294-5.365.609-.442 1.504.026 2.256.036 1.26.018 2.52.033 3.779.044 4.48.036 7.584.04 12.18.055 6.86.01 13.72.01 20.58-.013 2.952-.01 5.782-.203 8.643.568l.859 1.047-5.969 3.645.552.583c-2.695-.375-5.392-.296-8.11-.3-6.859-.012-13.717 0-20.575 0-5.358 0-10.72.052-16.077-.05-.787-.014-2.454.702-2.359-.078.818-6.705 1.218-6.393 3.46-5.508 2.033.717 3.857 1.869 5.637 3.07-1.8 1.47-3.602 2.944-5.403 4.413z" style="fill:#000;fill-opacity:1;stroke:#000;stroke-width:9.2241;stroke-miterlimit:4;stroke-dasharray:none;stroke-opacity:1" transform="matrix(.01859 0 0 .0141 6.49 142.323)"/></g><g style="display:inline;stroke:#000;stroke-width:9.23277;stroke-dasharray:none;stroke-opacity:1"><path d="M301.954-3342.888c15.026.075 30.037-.623 45.065-.58 6.788.112 7.867.103 14.153.292 2.13.064 4.614-.014 6.762.379l-4.39 5.433c-7.139-.34-14.39-.576-20.506-.632-15.067 0-30.116.69-45.182.748z" style="fill:#000;fill-opacity:1;stroke:#000;stroke-width:9.23277;stroke-miterlimit:4;stroke-dasharray:none;stroke-opacity:1" transform="matrix(.01618 0 0 .01618 -18.865 147.182)"/><path d="M336.334-3338.69c.12 1.267.282 2.531.358 3.802.425 7.037.502 14.106.809 21.15.243 5.587.564 11.171.846 16.757.112 2.532.233 5.064.337 7.596.174 4.215.27 7.132.38 11.241.028 1.072.017 2.145.073 3.216.062 1.21.23 1.795.23 1.795L333.44-3270c-.265-.344-.46-.74-.643-1.036-.362-1.14-.245-4.161-.257-4.916-.099-6.27-.327-12.536-.615-18.8-.685-13.738-1.237-27.486-1.994-41.218l6.402-2.72z" style="fill:#000;fill-opacity:1;stroke:#000;stroke-width:9.23277;stroke-miterlimit:4;stroke-dasharray:none;stroke-opacity:1" transform="matrix(.01618 0 0 .01618 -18.865 147.182)"/></g><g style="display:inline;stroke:#000;stroke-width:9.24615;stroke-miterlimit:4;stroke-dasharray:none;stroke-opacity:1"><path d="M-573.414-1041.59c21.88-3.62 44.272-5.263 66.375-2.86l-4.251 5.38c-21.97-2.331-44.193-.442-65.893 3.34l3.769-5.86z" style="fill:#000;fill-opacity:1;stroke:#000;stroke-width:9.24615;stroke-miterlimit:4;stroke-dasharray:none;stroke-opacity:1" transform="matrix(.01608 -.00062 .00061 .0162 -2.464 109.753)"/><path d="M-538.928-1040.22c2.454 14.806.057 29.836-1.18 44.649-.38 5.84-1.357 11.684-1.007 17.543-2.69 1.074-7.222 6.052-6.698.232.656-19.807 5.223-39.602 2.6-59.443l6.285-2.98z" style="fill:#000;fill-opacity:1;stroke:#000;stroke-width:9.24615;stroke-miterlimit:4;stroke-dasharray:none;stroke-opacity:1" transform="matrix(.01608 -.00062 .00061 .0162 -2.464 109.753)"/><path d="M-571.086-983.704c18.393-.908 36.822-1.613 55.239-1.29 7.607.374 15.35.574 22.719 2.676 3.32.868-.963 2.736-1.878 4.144-2.17 3.12-5.938-.722-9.055-.215-19.002-2.38-38.213-.928-57.285-.426-3.939-.294-11.422 1.536-13.118.101l3.378-4.99z" style="fill:#000;fill-opacity:1;stroke:#000;stroke-width:9.24615;stroke-miterlimit:4;stroke-dasharray:none;stroke-opacity:1" transform="matrix(.01608 -.00062 .00061 .0162 -2.464 109.753)"/></g><path d="M124.152 118.268a.475.475 0 0 0-.197.201.662.662 0 0 0-.068.467.29.29 0 0 0 .225.214.627.627 0 0 0 .468-.122c.082-.05.092-.156.093-.243a.715.715 0 0 0-.186-.436c-.07-.077-.17-.15-.28-.13-.038.005-.106.06-.117-.007.028-.068.109-.09.175-.094.137-.006.254.091.334.195.112.148.195.335.167.525a.493.493 0 0 1-.145.24.652.652 0 0 1-.521.174.353.353 0 0 1-.282-.199c-.074-.158-.05-.344.01-.502a.875.875 0 0 1 .24-.329c.03-.02.08-.075.08-.01.007.016.033.044.004.056z" style="display:inline;fill:#000;fill-opacity:1;stroke:#000;stroke-width:.149369;stroke-miterlimit:4;stroke-dasharray:none;stroke-opacity:1" transform="translate(-134.437 -24.987)"/><g style="display:inline;stroke:#000;stroke-width:9.42133;stroke-dasharray:none;stroke-opacity:1"><path d="M-151.569-3340.979c1.165 15.385.48 30.844.166 46.25-.147 6.794-.249 13.589-.328 20.383l-6.56 2.084c.152-7.117.31-14.341.444-20.432.33-15.244.971-30.538-.215-45.76z" style="fill:#000;fill-opacity:1;stroke:#000;stroke-width:9.42133;stroke-miterlimit:4;stroke-dasharray:none;stroke-opacity:1" transform="matrix(.01586 0 0 .01585 -6.758 146.083)"/><path d="M-148.907-3340.04c6.664 6.403 12.15 13.892 17.92 21.075 2.195 2.73 4.403 5.45 6.605 8.174l6.818 8.507c5.4 6.968 10.87 13.896 16.553 20.638 1.988 6.954-2.354 7.641-1.704-.127.024-1.973.072-3.947.071-5.921 0-10.237-.212-7.489-.028-18.481.15-8.976.582-17.95.96-26.918.076-1.749.15-3.497.227-5.245.072-1.654.137-3.126.202-4.646.01-.136-.12-.366.01-.408 6.873-2.251 6.64-3.909 6.59-1.078-1.515.482-4.576 1.468-6.59 1.916.157-2.813-.106-.775 6.717-2.775-.132 1.66-.27 3.505-.353 4.994-.098 1.75-.186 3.501-.28 5.252-.433 8.937-.904 17.882-1.053 26.83-.15 8.992.012 9.882.12 18.449.025 2.028.024 4.056.036 6.085-.059 1.005-.007 3.528.122 4.53.214 1.657.532 2.762 1.277 4.038-4.534 5.544-3.627 5.923-5.968 3.986-3.857-3.71-7.116-8.034-10.468-12.184-1.899-2.35-3.82-4.683-5.696-7.051-2.143-2.705-4.24-5.445-6.36-8.167-14.206-17.69.484.572-13.45-16.664-5.687-7.035-11.109-14.388-17.777-20.548l5.499-4.26z" style="fill:#000;fill-opacity:1;stroke:#000;stroke-width:9.42133;stroke-miterlimit:4;stroke-dasharray:none;stroke-opacity:1" transform="matrix(.01586 0 0 .01585 -6.758 146.083)"/></g><path d="M32.532 83.763c.135.143.41.45.543.596.317.355.803.638 1.086 1.02.403.45.875.82 1.362 1.174.637.486 1.284 1.082 1.957 1.519.76.493 1.493 1.047 2.274 1.507.781.46 1.596 1.013 2.388 1.454.888.495 1.777.947 2.685 1.404 1.029.518 2.085.979 3.142 1.436 1.027.444 2.059.759 3.135 1.069.974.28 1.828.573 2.825.753.967.197 1.847.257 2.823.406.83.141 1.725.158 2.57.17.368-.006.898.055 1.29-.017.27.025.505.022.742.006.894-.063 1.772-.067 2.667-.091.936-.025 2.166-.262 3.096-.453.8-.164 1.686-.313 2.62-.614.834-.269 1.95-.595 2.994-.927 1.227-.39 2.103-.834 3.114-1.192.822-.29 2.072-1.059 2.945-1.53.78-.422 1.562-1.113 2.328-1.56.658-.384 1.501-1.023 2.136-1.446.781-.521 1.453-1.202 2.19-1.789.745-.593 1.358-1.373 2.052-2.03.698-.66 1.418-1.565 2.046-2.299.655-.765 1.393-1.497 2.033-2.277.559-.682 1.017-1.561 1.514-2.295.51-.753.89-1.499 1.364-2.28.479-.79.867-1.694 1.287-2.522.434-.867.85-2.092 1.227-2.987.352-.837.535-1.703.797-2.577.28-.934.382-1.654.49-2.35.124-.785.275-1.796.406-2.584.1-.606.065-1.215.14-1.825.066-.578.132-1.156.127-1.74.009-.326.004-.69.061-1.035.024-.491.014-.926.029-1.362.018-.546-.076-1.092-.096-1.639.007-.676-.089-1.351-.116-2.028a23.75 23.75 0 0 0-.182-2.348c-.1-.804-.215-1.605-.365-2.402-.145-.7-.35-1.402-.54-2.093a20.121 20.121 0 0 0-.835-2.396c-.287-.728-.46-1.453-.783-2.167-.294-.607-.52-1.206-.824-1.808-.339-.618-.674-1.29-1.019-1.905-.447-.747-.891-1.497-1.382-2.217-.58-.836-1.083-1.63-1.72-2.426a27.531 27.531 0 0 0-2.077-2.32c-.673-.666-1.276-1.297-2.015-1.891-.743-.608-1.48-1.224-2.265-1.778a71.68 71.68 0 0 0-2.441-1.67 38.508 38.508 0 0 0-2.441-1.401c-.727-.386-1.467-.748-2.204-1.113-.708-.34-1.415-.68-2.143-.976a20.953 20.953 0 0 0-2.592-.887 40.528 40.528 0 0 0-2.176-.57c-.606-.14-1.213-.28-1.817-.434l-2.07-.51c-.66-.136-1.244-.114-2-.2-.607-.07-1.161-.12-1.771-.1-.475.017-.91-.02-1.243-.01-.394.015-.743.05-1.218.037-.28-.007-.537-.008-.795-.009h-1.165c-.44.004-.88.028-1.318.068-.466.043-1.089.028-1.55.103-.625.1-1.297.1-1.766.181-.67.115-1.321.236-1.867.362-.579.134-1.154.255-1.712.46-.548.2-1.086.285-1.624.512-.606.255-1.192.372-1.798.63-.596.242-1.5.63-2.079.912-.527.25-1.045.52-1.562.79-.518.276-1.085.568-1.594.86a17.17 17.17 0 0 1-1.67 1.014c-.447.32-.834.53-1.292.836-.41.283-.866.579-1.267.874-.505.364-.903.835-1.392 1.222-.492.416-.985.89-1.478 1.305-.496.432-.888.914-1.331 1.404-.505.525-1.073 1.214-1.561 1.754a37.197 37.197 0 0 0-1.429 1.714 23.53 23.53 0 0 0-1.251 1.72c-.383.58-.83 1.27-1.206 1.853a57.583 57.583 0 0 0-1.277 2.05c-.415.704-.712 1.47-1.073 2.203-.357.724-.67 1.47-.953 2.227a38.9 38.9 0 0 0-.708 2.057c-.197.628-.412 1.25-.581 1.887a25.153 25.153 0 0 0-.434 1.932c-.128.673-.22 1.341-.35 2.014a49.588 49.588 0 0 0-.304 1.782c-.055.462-.057.923-.094 1.387-.043.479-.068.959-.098 1.438-.027.325-.067.648-.07 1.024.014.524.039.997.03 1.47-.001.572-.002 1.144.01 1.716.02.63.05 1.26.14 1.885.087.643.169 1.287.273 1.928.182.88.436 1.74.687 2.603.273.932.539 1.866.87 2.78.303.86.603 1.726.991 2.554.41.88.824 1.76 1.29 2.612.5.94 1.016 1.87 1.608 2.756.534.782 1.09 1.55 1.664 2.305.505.655 1.022 1.302 1.62 1.877.49.454.99.897 1.513 1.313.298.222.6.44.923.625" style="opacity:1;fill:none;fill-opacity:1;stroke:#f0f;stroke-width:.396875;stroke-linecap:square;stroke-dasharray:none;stroke-opacity:1"/><path d="M21.057 56.589s-.101-.152-.116-.166a4.565 4.565 0 0 0-.407-.418c-.204-.174-.409-.35-.644-.481-.197-.104-.4-.2-.626-.22-.203-.015-.408-.019-.604-.08-.07-.024-.113-.036-.181-.067a1.092 1.092 0 0 1-.33-.244c-.15-.175-.282-.364-.325-.596a2.179 2.179 0 0 1-.06-.583" style="opacity:1;fill:none;fill-opacity:1;stroke:#f0f;stroke-width:.449792;stroke-linecap:square;stroke-dasharray:none;stroke-opacity:1"/><path d="M20.115 56.35a13.796 13.796 0 0 0 1.068.582c.033.017.138.074.155.003.003-.012 0-.026.001-.04l-.012-.052c-.021-.076-.05-.15-.072-.226a7.149 7.149 0 0 1-.144-.607 5.54 5.54 0 0 1-.09-.832" style="opacity:1;fill:none;fill-opacity:1;stroke:#f0f;stroke-width:.449792;stroke-linecap:square;stroke-dasharray:none;stroke-opacity:1"/><path d="M14.099 51.67c.126-.006.249.002.372.012.143.017.29.016.437.017.027-.004.113.002.18.004" style="opacity:1;fill:#f0f;fill-opacity:1;stroke:#f0f;stroke-width:.449792;stroke-linecap:butt;stroke-dasharray:none;stroke-opacity:1"/><g style="display:inline"><path d="M29.805 84.078c.148.199.589.795.747.986.378.453.715.805 1.11 1.244.374.417.869.856 1.287 1.229.247.215.49.441.763.623" style="opacity:1;fill:none;fill-opacity:1;stroke:#f0f;stroke-width:.449792;stroke-linecap:butt;stroke-dasharray:none;stroke-opacity:1"/><path d="M31.043 84.848a4.312 4.312 0 0 0-.214-.218c-.31-.283-.63-.554-.954-.822-.2-.166-.394-.34-.594-.506-.023.014-.05.02-.067.04a.319.319 0 0 0 .027.087c.05.126.107.25.16.374.194.44.396.877.593 1.316.096.216.2.429.275.653" style="opacity:1;fill:none;fill-opacity:1;stroke:#f0f;stroke-width:.449792;stroke-linecap:butt;stroke-dasharray:none;stroke-opacity:1"/></g></g><g style="display:inline"><path d="M33.271 59.241h3.936v3.969h-3.936z" style="display:inline;fill:#fff6d5;fill-opacity:1;stroke:#000;stroke-width:.211667;stroke-dasharray:none;stroke-opacity:1"/><g style="display:inline"><path d="M41.336 56.893c.214.001.428 0 .642-.008a6.5 6.5 0 0 0 .56-.034l.053-.007M42.811 57.422a.66.66 0 0 0 .22.18c.036.015.072.032.11.044.248.08.511.065.757-.02.04-.017.08-.033.119-.054.11-.06.22-.158.233-.293.002-.026-.003-.053-.004-.08-.006-.03-.01-.06-.02-.089a.933.933 0 0 0-.358-.46 1.245 1.245 0 0 0-.307-.148.348.348 0 0 0-.167-.02c0 .017-.007.034-.002.05.001.006.01-.005.015-.008l.046-.022c.083-.039.165-.08.238-.137.028-.024.059-.047.085-.074.09-.096.15-.24.09-.368-.012-.028-.035-.05-.053-.075-.026-.02-.05-.042-.08-.058a.841.841 0 0 0-.48-.08c-.057.006-.112.02-.168.03-.165.046-.341.096-.465.222" style="fill:none;fill-opacity:1;stroke:#000;stroke-width:.396875;stroke-dasharray:none;stroke-opacity:1" transform="translate(-7.64 4.605)"/></g><path d="M84.204 59.241h3.936v3.969h-3.936z" style="display:inline;fill:#fff6d5;fill-opacity:1;stroke:#000;stroke-width:.211667;stroke-dasharray:none;stroke-opacity:1"/><path d="M85.47 61.837c.007.086.025.1.09.16.03.02.06.042.09.06.228.13.49.19.751.179.061-.014.124-.023.184-.04.158-.047.315-.143.393-.294.015-.03.023-.063.035-.095.002-.033.01-.066.008-.1a.618.618 0 0 0-.192-.383c-.029-.028-.063-.052-.094-.078-.035-.02-.069-.043-.105-.061a1.43 1.43 0 0 0-.472-.145c-.007.002-.015.001-.022.005-.004.002-.012.014-.008.011.059-.063.14-.102.208-.155.109-.079.268-.186.29-.332.004-.026-.002-.051-.003-.077-.013-.02-.022-.045-.04-.062-.093-.093-.291-.103-.413-.089-.058.007-.114.022-.171.032-.046.015-.092.027-.136.044a.852.852 0 0 0-.397.298" style="display:inline;fill:none;fill-opacity:1;stroke:#000;stroke-width:.396875;stroke-dasharray:none;stroke-opacity:1"/><path d="M55.232 81.135h3.936v3.969h-3.936z" style="display:inline;fill:#fff6d5;fill-opacity:1;stroke:#000;stroke-width:.211667;stroke-dasharray:none;stroke-opacity:1"/><path d="M56.88 83.196c-.048.011-.097.014-.145.021a5.12 5.12 0 0 1-.57.008c-.135-.003-.271-.007-.406.004" style="fill:none;fill-opacity:1;stroke:#000;stroke-width:.396876;stroke-dasharray:none;stroke-opacity:1"/><path d="M57.184 83.86c.03.05.01.024.063.072.024.015.046.032.07.045.222.117.474.144.72.117.186-.042.444-.084.487-.313.006-.031.003-.063.004-.094-.007-.033-.01-.067-.02-.099-.065-.207-.232-.37-.396-.504-.038-.024-.075-.05-.115-.073-.131-.072-.335-.099-.428-.123-.03 0-.034.035-.007.038.08-.013.187-.097.28-.146.122-.072.34-.194.302-.37-.005-.026-.023-.048-.034-.071-.023-.019-.042-.04-.067-.056-.167-.101-.41-.098-.594-.066-.17.03-.373.096-.483.222" style="fill:none;fill-opacity:1;stroke:#000;stroke-width:.396875;stroke-dasharray:none;stroke-opacity:1"/><path d="M55.232 30.071h3.936v3.969h-3.936z" style="display:inline;fill:#fff6d5;fill-opacity:1;stroke:#000;stroke-width:.211667;stroke-dasharray:none;stroke-opacity:1"/><path d="M56.549 31.497c.116-.133.29-.192.451-.248.146-.031.303-.078.448-.02.055.02.108.068.1.132a.6.6 0 0 1-.185.313c-.097.086-.211.15-.323.215l-.007.01-.005.011c.031.084.133.045.197.084.243.097.436.241.572.46.069.12.145.254.123.397-.02.107-.13.154-.224.187-.23.08-.611.118-.852.023-.1-.04-.218-.094-.264-.201" style="display:inline;fill:none;fill-opacity:1;stroke:#000;stroke-width:.396875;stroke-dasharray:none;stroke-opacity:1"/><path d="M87.82.06h14.129v3.016H87.82z" style="display:inline;fill:#fff6d5;fill-opacity:1;stroke:#000;stroke-width:.211667;stroke-dasharray:none;stroke-opacity:1" transform="rotate(45.693 1.89 .512)"/><g style="display:inline;stroke-width:1.29585"><path d="M76.68 30.061c-.058.259-.105.52-.16.779-.05.24-.099.48-.145.72l-.128-.032.147-.72c.054-.26.1-.521.155-.78z" style="display:inline;fill:#000;fill-opacity:1;stroke:#000;stroke-width:.171431;stroke-linecap:butt;stroke-linejoin:miter;stroke-miterlimit:4;stroke-dasharray:none;stroke-dashoffset:0;stroke-opacity:1" transform="matrix(.7631 .00996 -.01018 .78025 4.434 39.154)"/><path d="M76.153 31.533c.184-.056.372-.1.559-.149.265-.072.533-.136.8-.201.097-.023.054-.014.13-.029l.101.088c-.074.011-.032.004-.127.025-.268.064-.536.127-.8.2l-.122.032-.112.03c-.108.029-.218.05-.323.088l-.106-.084z" style="display:inline;fill:#000;fill-opacity:1;stroke:#000;stroke-width:.171431;stroke-linecap:butt;stroke-linejoin:miter;stroke-miterlimit:4;stroke-dasharray:none;stroke-dashoffset:0;stroke-opacity:1" transform="matrix(.7631 .00996 -.01018 .78025 4.434 39.154)"/></g><g style="display:inline;stroke-width:1.28831"><path d="M77.893 31.519c-.133.157-.287.295-.433.44-.12.118-.11.111-.219.23-.096.118-.052.062-.133.168l-.121-.055c.082-.108.037-.05.136-.171.109-.12.1-.114.22-.233.143-.142.294-.278.426-.432l.124.053z" style="display:inline;fill:#000;fill-opacity:1;stroke:#000;stroke-width:.170433;stroke-linecap:butt;stroke-linejoin:miter;stroke-miterlimit:4;stroke-dasharray:none;stroke-dashoffset:0;stroke-opacity:1" transform="matrix(.76852 .01003 -.01023 .78384 4.217 39.35)"/><path d="M77.8 31.382c.165.136.328.274.492.413.154.132.308.264.451.408l-.131.02a7.79 7.79 0 0 0-.448-.404c-.165-.14-.333-.276-.497-.417l.132-.02zM77.472 31.862c.168.163.346.316.523.471l.062.055-.13.023-.062-.055c-.176-.156-.355-.31-.525-.474l.132-.02zM77.04 32.283c.213.18.428.358.637.543.102.091.204.184.302.28l-.131.02a7.558 7.558 0 0 0-.299-.277 18.39 18.39 0 0 0-.639-.537z" style="display:inline;fill:#000;fill-opacity:1;stroke:#000;stroke-width:.170433;stroke-linecap:butt;stroke-linejoin:miter;stroke-miterlimit:4;stroke-dasharray:none;stroke-dashoffset:0;stroke-opacity:1" transform="matrix(.76852 .01003 -.01023 .78384 4.217 39.35)"/></g><path d="M66.025 67.626a.371.371 0 0 0-.162-.219c-.025-.017-.053-.031-.079-.046-.065-.03-.114-.056-.185-.069-.004 0-.006.01-.01.01-.033.003-.066-.002-.098 0-.087.009-.097.018-.177.046-.096.046-.18.117-.199.228-.011.075.001.102.016.176a.87.87 0 0 0 .256.391c.078.067.103.073.192.117.032.008.064.022.097.025.007 0 .006-.014.013-.017.032-.01.067-.01.1-.02a.62.62 0 0 0 .196-.115c.028-.025.05-.055.075-.083.016-.03.037-.059.05-.09a.446.446 0 0 0-.022-.36c-.012-.026-.029-.05-.043-.074-.049-.067-.024-.037-.073-.09l.11-.015c.049.06.024.027.073.1.037.07.054.092.074.172a.484.484 0 0 1-.017.304c-.014.035-.036.067-.054.1-.026.03-.05.064-.079.091a.713.713 0 0 1-.206.128c-.035.014-.07.03-.108.03-.135.004-.18-.019-.291-.056-.09-.05-.116-.058-.195-.13a.927.927 0 0 1-.257-.417c-.015-.084-.027-.113-.012-.197a.35.35 0 0 1 .138-.216c.024-.019.052-.032.078-.048.03-.011.058-.026.088-.035a.716.716 0 0 1 .2-.026.94.94 0 0 1 .376.112c.027.018.055.033.08.053a.451.451 0 0 1 .166.242l-.111-.002z" style="display:inline;fill:#000;fill-opacity:1;stroke:#000;stroke-width:.132292;stroke-linecap:butt;stroke-linejoin:miter;stroke-miterlimit:4;stroke-dasharray:none;stroke-dashoffset:0;stroke-opacity:1" transform="rotate(.745 92.706 71.448)"/><g style="display:inline;stroke-width:1.30121"><path d="M79.08 32.453c-.1.121-.211.231-.32.345l-.256.274c-.147.158-.227.231-.377.386-.037.04-.018.023-.13-.052.115-.1.158-.14.39-.392l.256-.275c.105-.112.215-.22.313-.34z" style="display:inline;fill:#000;fill-opacity:1;stroke:#000;stroke-width:.17214;stroke-miterlimit:4;stroke-dasharray:none;stroke-opacity:1" transform="matrix(.75487 .00985 -.0102 .78227 5.45 39.633)"/><path d="M78.779 33.961a17.17 17.17 0 0 0-.638-.583l-.132.028c.222.182.432.38.64.578.04.04.083.078.125.116l.135-.019c-.048-.04-.093-.084-.13-.12z" style="display:inline;fill:#000;fill-opacity:1;stroke:#000;stroke-width:.17214;stroke-miterlimit:4;stroke-dasharray:none;stroke-opacity:1" transform="matrix(.75487 .00985 -.0102 .78227 5.45 39.633)"/></g><path d="M67.158 68.806c.105-.018-.133-.155-.173-.17a.84.84 0 0 0-.142-.032.592.592 0 0 0-.354.07c-.032.02-.057.047-.086.07-.017.03-.04.059-.051.092-.054.165.04.346.136.475.026.035.065.079.096.11a.47.47 0 0 0 .147.106l.005.072c-.06-.012-.076-.024-.117-.05a.862.862 0 0 1-.137-.116c-.03-.034-.07-.076-.097-.113-.103-.147-.191-.336-.13-.52a.337.337 0 0 1 .15-.185.534.534 0 0 1 .117-.054c.186-.064.353-.035.532.037a.974.974 0 0 1 .211.176c.029.047-.009.087-.05.095z" style="display:inline;fill:#000;fill-opacity:1;stroke:#000;stroke-width:.132292;stroke-miterlimit:4;stroke-dasharray:none;stroke-opacity:1" transform="rotate(.745 92.706 71.448)"/><g style="display:inline;stroke-width:1.2871"><path d="M81.943 35.46c.266.25.53.502.783.765l.033.037-.133.019-.032-.036c-.25-.265-.516-.515-.784-.762z" style="display:inline;fill:#000;fill-opacity:1;stroke:#000;stroke-width:.170273;stroke-miterlimit:4;stroke-dasharray:none;stroke-opacity:1" transform="matrix(.76939 .01004 -.01023 .78443 5.07 40.23)"/><path d="M82.32 35.934c-.212.246-.422.493-.636.737a9.46 9.46 0 0 1-.228.249l-.12-.06c.083-.083.162-.172.23-.245.213-.243.423-.489.63-.737z" style="display:inline;fill:#000;fill-opacity:1;stroke:#000;stroke-width:.170273;stroke-miterlimit:4;stroke-dasharray:none;stroke-opacity:1" transform="matrix(.76939 .01004 -.01023 .78443 5.07 40.23)"/><path d="M81.116 36.337c.148.154.307.297.462.445.09.086.165.164.253.251.078.082.158.163.247.233l-.132.026a4.516 4.516 0 0 1-.245-.238c-.236-.236-.481-.461-.718-.695z" style="display:inline;fill:#000;fill-opacity:1;stroke:#000;stroke-width:.170273;stroke-miterlimit:4;stroke-dasharray:none;stroke-opacity:1" transform="matrix(.76939 .01004 -.01023 .78443 5.07 40.23)"/></g><g style="display:inline;stroke-width:1.29315"><path d="M83.01 36.51c.269.264.602.603.864.874l.087.09-.131.02-.086-.09a31.58 31.58 0 0 0-.868-.872z" style="display:inline;fill:#000;fill-opacity:1;stroke:#000;stroke-width:.171073;stroke-miterlimit:4;stroke-dasharray:none;stroke-opacity:1" transform="matrix(.7685 .01003 -.01015 .77802 5.454 40.66)"/><path d="m83.504 37.023-.037.045c-.087.095-.182.183-.274.273-.165.162-.095.092-.258.26a4.825 4.825 0 0 0-.214.238.652.652 0 0 0-.09.125l-.122-.064c.024-.042.06-.08.091-.118a5.25 5.25 0 0 1 .217-.239c.167-.173.09-.095.258-.262.09-.09.184-.176.27-.269l.035-.043z" style="display:inline;fill:#000;fill-opacity:1;stroke:#000;stroke-width:.171073;stroke-miterlimit:4;stroke-dasharray:none;stroke-opacity:1" transform="matrix(.7685 .01003 -.01015 .77802 5.454 40.66)"/></g><g style="display:inline;stroke-width:1.28665"><path d="M84.253 37.645a.961.961 0 0 0-.34.37c-.025.049-.039.102-.057.153-.005.053-.018.105-.015.158.01.174.079.255.226.345.019.012.06.02.079.023a.715.715 0 0 0 .331-.068c.1-.043.21-.118.263-.216.007-.01.008-.024.011-.037l.13.037c-.007.018-.01.038-.017.052a.628.628 0 0 1-.282.244.866.866 0 0 1-.174.063.674.674 0 0 1-.183.021.61.61 0 0 1-.398-.178.485.485 0 0 1-.115-.311c-.003-.057.011-.114.017-.17.02-.056.035-.113.06-.165.07-.14.193-.284.32-.376l.028-.015z" style="fill:#000;fill-opacity:1;stroke:#000;stroke-width:.170213;stroke-miterlimit:4;stroke-dasharray:none;stroke-opacity:1" transform="matrix(.77534 .01012 -.01016 .77896 5.103 40.858)"/><path d="M84.026 38.652c-.117.116-.237.233-.325.374-.007.014-.009.019-.009.026l-.134-.022a.158.158 0 0 1 .018-.054c.089-.145.211-.264.33-.385z" style="fill:#000;fill-opacity:1;stroke:#000;stroke-width:.170213;stroke-miterlimit:4;stroke-dasharray:none;stroke-opacity:1" transform="matrix(.77534 .01012 -.01016 .77896 5.103 40.858)"/></g><g style="display:inline"><path d="M106.593 117.11h21.431v3.015h-21.431z" style="fill:#fff6d5;fill-opacity:1;stroke:#000;stroke-width:.209895;stroke-linecap:square;stroke-dasharray:none;stroke-opacity:1" transform="rotate(-44.737 20.685 181.44)"/><g style="display:inline;stroke-width:6.64887;stroke-dasharray:none"><path d="M4523.862 338.493c-.448.934-.86 1.887-1.345 2.803-2.9 5.475-6.36 10.685-9.721 15.878-14.808 22.87 5.14-8.169-10.626 16.407-6.08 9.93-11.95 19.996-17.318 30.33l-6.875.838c5.481-10.385 11.406-20.531 17.472-30.584 12.25-19.235-1.003 1.504 10.568-16.402 3.297-5.104 6.693-10.23 9.636-15.554.479-.867.884-1.773 1.326-2.66l6.883-1.056z" style="opacity:1;fill:#000;fill-opacity:1;stroke:#000;stroke-width:6.64887;stroke-linecap:butt;stroke-linejoin:miter;stroke-miterlimit:4;stroke-dasharray:none;stroke-dashoffset:0;stroke-opacity:1" transform="matrix(.01289 -.01277 .01253 .01265 -23.823 127.914)"/><path d="M4520.973 332.783c.777.924 1.613 1.801 2.33 2.773 4.581 6.224 8.26 13.122 12.004 19.856 5.36 9.643 5.544 10.049 10.84 19.831 3.928 7.952 8.383 15.635 12.369 23.554l-6.098 3.298c-3.77-7.983-8.245-15.626-12.123-23.557-5.28-9.74-5.477-10.187-10.855-19.77-3.68-6.555-7.298-13.31-11.854-19.324-.686-.907-1.495-1.714-2.243-2.57l5.63-4.091z" style="opacity:1;fill:#000;fill-opacity:1;stroke:#000;stroke-width:6.64887;stroke-linecap:butt;stroke-linejoin:miter;stroke-miterlimit:4;stroke-dasharray:none;stroke-dashoffset:0;stroke-opacity:1" transform="matrix(.01289 -.01277 .01253 .01265 -23.823 127.914)"/><path d="M4498.655 373.575c13.382-.838 26.793-.67 40.185-.254 4.087.285 8.215.155 12.29.627l-4.325 5.478c-4.006-.333-8.025-.469-12.039-.64-13.31-.407-26.666-.562-39.947.592l3.836-5.803z" style="opacity:1;fill:#000;fill-opacity:1;stroke:#000;stroke-width:6.64887;stroke-linecap:butt;stroke-linejoin:miter;stroke-miterlimit:4;stroke-dasharray:none;stroke-dashoffset:0;stroke-opacity:1" transform="matrix(.01289 -.01277 .01253 .01265 -23.823 127.914)"/></g><path d="M110.69 118.248c-.05-.059-.147-.088-.241-.07a.389.389 0 0 0-.083.029c-.034.016-.07.05-.09.068a.735.735 0 0 0-.224.387.454.454 0 0 0-.007.145.31.31 0 0 0 .044.127c.079.123.252.183.431.197.153.013.223-.005.37-.024l-.079.088c-.135.027-.28.026-.388.014-.199-.023-.381-.098-.468-.233a.352.352 0 0 1-.049-.137.493.493 0 0 1 .004-.154.819.819 0 0 1 .116-.294.918.918 0 0 1 .195-.195.687.687 0 0 1 .314-.105.347.347 0 0 1 .287.106zM112.041 118.213c-.008-.007-.015-.016-.024-.021-.052-.031-.121-.055-.18-.04a.45.45 0 0 0-.192.1c-.075.07-.099.087-.142.184a.562.562 0 0 0-.043.238.453.453 0 0 0 .078.236c.086.14.238.23.404.248a.383.383 0 0 0 .117-.006.43.43 0 0 0 .107-.042c.044-.023.05-.035.069-.054l.109.011a.734.734 0 0 1-.348.174.416.416 0 0 1-.127-.002.612.612 0 0 1-.489-.405.504.504 0 0 1-.024-.129.665.665 0 0 1 .04-.258.53.53 0 0 1 .06-.107.646.646 0 0 1 .246-.218.495.495 0 0 1 .2-.057.316.316 0 0 1 .228.083z" style="display:inline;fill:#000;fill-opacity:1;stroke:#000;stroke-width:.149369;stroke-miterlimit:4;stroke-dasharray:none;stroke-opacity:1" transform="rotate(-44.737 20.685 181.44)"/><g style="display:inline;stroke:#000;stroke-width:9.47899;stroke-dasharray:none;stroke-opacity:1"><path d="M-878.055-3483.851c14.933-1.802 29.987-2.26 45.01-2.716 5.094.138 2.956-.097 6.439.422l-4.364 5.413c-5.41-.377-1.238-.17-6.024-.267-14.952.404-29.96.868-44.778 3.046z" style="fill:#000;fill-opacity:1;stroke:#000;stroke-width:9.47899;stroke-miterlimit:4;stroke-dasharray:none;stroke-opacity:1" transform="matrix(.0112 -.01109 .0111 .0112 90.198 100.69)"/><path d="M-876.475-3480.11c.053 2.146.195 4.293.157 6.44-.071 4.052-.823 15.253-1.05 19.014-.546 9.03-1.03 18.024-1.166 27.068.105 4.246.068 8.515.357 12.755l-6.55.47c-.147-.863-.145-2.935-.228-5.098l-.067-6.062c.14-9.09.64-18.128 1.18-27.203.226-3.798.93-14.665 1.026-18.778.046-1.98-.054-3.962-.08-5.943l6.421-2.663z" style="fill:#000;fill-opacity:1;stroke:#000;stroke-width:9.47899;stroke-miterlimit:4;stroke-dasharray:none;stroke-opacity:1" transform="matrix(.0112 -.01109 .0111 .0112 90.198 100.69)"/><path d="M-879.583-3451.197c13.18-1.463 26.4-2.559 39.631-3.433l-3.903 5.668c-13.767 1.01-27.738 2.055-39.447 3.583zM-880.878-3419.968c17.085-1.412 35.549-2.005 52.69-1.95.83.363 1.333.098 1.69.028.517-.022 1.36-.435 1.114.058-2.846 5.723-3.72 5.347-8.196 5.415a499.386 499.386 0 0 0-51.22 2.161z" style="fill:#000;fill-opacity:1;stroke:#000;stroke-width:9.47899;stroke-miterlimit:4;stroke-dasharray:none;stroke-opacity:1" transform="matrix(.0112 -.01109 .0111 .0112 90.198 100.69)"/></g><path d="M114.568 118.043c-.022.163-.061.324-.091.486-.027.146-.027.16-.047.303-.008.09-.013.18-.008.27.002.028.005.052.003.079-.027.014-.023.04-.095.041-.029.001-.02-.048-.017-.072.004-.036.044-.014.079-.027.01-.004.02.001.03.001.02 0 .039-.002.058-.003.031 0 .062-.003.094-.004.308-.009-.057.004.287-.009l.407-.014a.712.712 0 0 0 .117-.013c-.027.054-.04.069-.057.1a1.76 1.76 0 0 1-.126.006c-.135.004-.27.008-.406.014-.127.005-.255.005-.382.015l-.072.007c-.008-.027-.026-.053-.03-.083-.005-.093 0-.186.009-.278.019-.143.02-.16.046-.306.03-.161.068-.32.089-.483l.112-.03z" style="display:inline;fill:#000;fill-opacity:1;stroke:#000;stroke-width:.149369;stroke-miterlimit:4;stroke-dasharray:none;stroke-opacity:1" transform="rotate(-44.737 20.685 181.44)"/><g style="display:inline;stroke:#000;stroke-width:9.08958;stroke-miterlimit:4;stroke-dasharray:none;stroke-opacity:1"><path d="M-820.578 436.377c1.886 12.563 2.328 25.297 2.745 37.978.193 7.707.296 15.417.223 23.126l-6.638 2.09c.237-8.02.088-16.167-.022-23.033-.389-12.547-.81-25.159-2.782-37.574l6.474-2.587z" style="fill:#000;fill-opacity:1;stroke:#000;stroke-width:9.08958;stroke-miterlimit:4;stroke-dasharray:none;stroke-opacity:1" transform="matrix(.01193 -.0112 .0113 .01202 48.607 54.968)"/><path d="M-828.56 434.604c16.285-1.589 32.603-2.762 48.942-3.62l5.05-.223-3.951 5.63-4.992.188c-16.32.808-32.622 1.982-48.856 3.854zM-815.746 464.044a728.189 728.189 0 0 1 30.799-1.79l-3.899 5.55c-10.736.554-21.633 1.138-30.792 1.99zM-824.268 495.707c16.792 1.16 33.616.223 50.405-.47 4.745-.246 9.498-.36 14.24-.675l-3.996 5.721c-4.93.13-9.928.366-14.145.507-16.853.64-33.719 1.418-50.58.527z" style="fill:#000;fill-opacity:1;stroke:#000;stroke-width:9.08958;stroke-miterlimit:4;stroke-dasharray:none;stroke-opacity:1" transform="matrix(.01193 -.0112 .0113 .01202 48.607 54.968)"/></g><g style="display:inline;stroke:#000;stroke-width:10.1936;stroke-dasharray:none;stroke-opacity:1"><path d="M170.17-3340.33c.59 19.17.731 38.35.836 57.526.13 3.853-.14 7.702.198 11.543l-6.529 2.394c-.397-4.12-.051-8.309-.133-11.828-.01-19.104-.1-38.216-.903-57.305z" style="fill:#000;fill-opacity:1;stroke:#000;stroke-width:10.1936;stroke-miterlimit:4;stroke-dasharray:none;stroke-opacity:1" transform="matrix(.0104 -.01031 .01031 .0104 77.601 104.779)"/><path d="M150.363-3341.595c11.89-3.427 25.38-4.202 37.578-2.14 2.677.452 5.272 1.3 7.908 1.95 3.833 1.976 7.113 2.618 8.756 7.04 1.386 3.732 0 7.448-2.03 10.563-2.664 4.077-6.762 7.104-10.384 10.2-6.397 4.575-13.074 8.908-20.383 11.884-.295-1.179-.04-3.097.657-4.224 11.237 2.417 21.648 7.777 31.878 12.853 5.86 3.254 11.823 6.326 17.476 9.936 2.086 1.332 3.428 1.929 4.45 4.085l-5.5 4.398c-.01-.867-.593-1.322-.593-1.322-1.034-1.052-2.394-1.894-3.52-2.618-5.567-3.576-11.438-6.632-17.24-9.802-10.031-4.907-20.275-10.187-31.37-12.136.955-1.959 1.675-4.052 2.867-5.877.24-.367.836-.264 1.245-.419.896-.34 1.797-.671 2.67-1.065 4.667-2.104 5.82-2.783 10.55-5.948 3.379-2.705 7.548-5.738 10.38-9.114 1.434-1.71 3.782-5.012 3.038-7.687-.978-3.512-4.7-4.306-7.444-5.639-2.532-.58-5.029-1.349-7.598-1.738-11.15-1.69-22.993-1.034-33.848 2.073-.877.251-1.686.695-2.53 1.043z" style="fill:#000;fill-opacity:1;stroke:#000;stroke-width:10.1936;stroke-miterlimit:4;stroke-dasharray:none;stroke-opacity:1" transform="matrix(.0104 -.01031 .01031 .0104 77.601 104.779)"/></g><g style="display:inline;stroke:#000;stroke-width:9.22414;stroke-dasharray:none;stroke-opacity:1"><path d="M-1185.94-3414.064c3.96-10.215 7.115-16.332 11.766-26.248 6.15-13.033 13.16-25.715 17.962-39.335.806-2.783.648-2.006 1.1-4.158.054-.258-.1-.697.153-.776 7.952-2.49 5.837-3.327 7.103-.527 1.919 3.037 2.396 7.38 3.247 10.775.575 2.295 1.181 4.582 1.772 6.873 4.436 16.285 9.057 29.753 14.656 45.663.936 3.082 2.166 6.363 2.516 8.956-1.829 1.423-3.91 2.489-5.865 3.733l-.889-3.119c-.572-2.527-1.104-3.964-1.937-6.602-5.506-16.02-10.175-29.541-14.723-45.867-.613-2.297-1.238-4.59-1.837-6.891-.42-1.614-.823-3.232-1.22-4.85-.71-5.171 2.181-6.013 2.704-4.448-4.69 13.77-11.816 26.517-18.021 39.633-3.185 6.803-4.65 9.856-7.715 16.712-.862 1.93-2.407 5.136-3.216 7.252-.262.686-.448 1.4-.672 2.1z" style="fill:#000;fill-opacity:1;stroke:#000;stroke-width:9.2241;stroke-miterlimit:4;stroke-dasharray:none;stroke-opacity:1" transform="matrix(.0132 -.01308 .00993 .01002 96.153 86.769)"/><path d="M-1179.978-3434.788c-1.476-.66-2.99-2.354-4.747-2.145 1.99-2.65.04-1.552 5.294-5.365.609-.442 1.504.026 2.256.036 1.26.018 2.52.033 3.779.044 4.48.036 7.584.04 12.18.055 6.86.01 13.72.01 20.58-.013 2.952-.01 5.782-.203 8.643.568l.859 1.047-5.969 3.645.552.583c-2.695-.375-5.392-.296-8.11-.3-6.859-.012-13.717 0-20.575 0-5.358 0-10.72.052-16.077-.05-.787-.014-2.454.702-2.359-.078.818-6.705 1.218-6.393 3.46-5.508 2.033.717 3.857 1.869 5.637 3.07-1.8 1.47-3.602 2.944-5.403 4.413z" style="fill:#000;fill-opacity:1;stroke:#000;stroke-width:9.2241;stroke-miterlimit:4;stroke-dasharray:none;stroke-opacity:1" transform="matrix(.0132 -.01308 .00993 .01002 96.153 86.769)"/></g><g style="display:inline;stroke:#000;stroke-width:9.23277;stroke-dasharray:none;stroke-opacity:1"><path d="M301.954-3342.888c15.026.075 30.037-.623 45.065-.58 6.788.112 7.867.103 14.153.292 2.13.064 4.614-.014 6.762.379l-4.39 5.433c-7.139-.34-14.39-.576-20.506-.632-15.067 0-30.116.69-45.182.748z" style="fill:#000;fill-opacity:1;stroke:#000;stroke-width:9.23277;stroke-miterlimit:4;stroke-dasharray:none;stroke-opacity:1" transform="rotate(-44.744 172.096 -45.042) scale(.01618)"/><path d="M336.334-3338.69c.12 1.267.282 2.531.358 3.802.425 7.037.502 14.106.809 21.15.243 5.587.564 11.171.846 16.757.112 2.532.233 5.064.337 7.596.174 4.215.27 7.132.38 11.241.028 1.072.017 2.145.073 3.216.062 1.21.23 1.795.23 1.795L333.44-3270c-.265-.344-.46-.74-.643-1.036-.362-1.14-.245-4.161-.257-4.916-.099-6.27-.327-12.536-.615-18.8-.685-13.738-1.237-27.486-1.994-41.218l6.402-2.72z" style="fill:#000;fill-opacity:1;stroke:#000;stroke-width:9.23277;stroke-miterlimit:4;stroke-dasharray:none;stroke-opacity:1" transform="rotate(-44.744 172.096 -45.042) scale(.01618)"/></g><g style="display:inline;stroke:#000;stroke-width:9.24615;stroke-miterlimit:4;stroke-dasharray:none;stroke-opacity:1"><path d="M-573.414-1041.59c21.88-3.62 44.272-5.263 66.375-2.86l-4.251 5.38c-21.97-2.331-44.193-.442-65.893 3.34l3.769-5.86z" style="fill:#000;fill-opacity:1;stroke:#000;stroke-width:9.24615;stroke-miterlimit:4;stroke-dasharray:none;stroke-opacity:1" transform="matrix(.01099 -.01176 .01184 .01108 66.868 69.936)"/><path d="M-538.928-1040.22c2.454 14.806.057 29.836-1.18 44.649-.38 5.84-1.357 11.684-1.007 17.543-2.69 1.074-7.222 6.052-6.698.232.656-19.807 5.223-39.602 2.6-59.443l6.285-2.98z" style="fill:#000;fill-opacity:1;stroke:#000;stroke-width:9.24615;stroke-miterlimit:4;stroke-dasharray:none;stroke-opacity:1" transform="matrix(.01099 -.01176 .01184 .01108 66.868 69.936)"/><path d="M-571.086-983.704c18.393-.908 36.822-1.613 55.239-1.29 7.607.374 15.35.574 22.719 2.676 3.32.868-.963 2.736-1.878 4.144-2.17 3.12-5.938-.722-9.055-.215-19.002-2.38-38.213-.928-57.285-.426-3.939-.294-11.422 1.536-13.118.101l3.378-4.99z" style="fill:#000;fill-opacity:1;stroke:#000;stroke-width:9.24615;stroke-miterlimit:4;stroke-dasharray:none;stroke-opacity:1" transform="matrix(.01099 -.01176 .01184 .01108 66.868 69.936)"/></g><path d="M124.152 118.268a.475.475 0 0 0-.197.201.662.662 0 0 0-.068.467.29.29 0 0 0 .225.214.627.627 0 0 0 .468-.122c.082-.05.092-.156.093-.243a.715.715 0 0 0-.186-.436c-.07-.077-.17-.15-.28-.13-.038.005-.106.06-.117-.007.028-.068.109-.09.175-.094.137-.006.254.091.334.195.112.148.195.335.167.525a.493.493 0 0 1-.145.24.652.652 0 0 1-.521.174.353.353 0 0 1-.282-.199c-.074-.158-.05-.344.01-.502a.875.875 0 0 1 .24-.329c.03-.02.08-.075.08-.01.007.016.033.044.004.056z" style="display:inline;fill:#000;fill-opacity:1;stroke:#000;stroke-width:.149369;stroke-miterlimit:4;stroke-dasharray:none;stroke-opacity:1" transform="rotate(-44.737 20.685 181.44)"/><g style="display:inline;stroke:#000;stroke-width:9.42133;stroke-dasharray:none;stroke-opacity:1"><path d="M-151.569-3340.979c1.165 15.385.48 30.844.166 46.25-.147 6.794-.249 13.589-.328 20.383l-6.56 2.084c.152-7.117.31-14.341.444-20.432.33-15.244.971-30.538-.215-45.76z" style="fill:#000;fill-opacity:1;stroke:#000;stroke-width:9.42133;stroke-miterlimit:4;stroke-dasharray:none;stroke-opacity:1" transform="matrix(.01126 -.01116 .01116 .01126 89.389 98.764)"/><path d="M-148.907-3340.04c6.664 6.403 12.15 13.892 17.92 21.075 2.195 2.73 4.403 5.45 6.605 8.174l6.818 8.507c5.4 6.968 10.87 13.896 16.553 20.638 1.988 6.954-2.354 7.641-1.704-.127.024-1.973.072-3.947.071-5.921 0-10.237-.212-7.489-.028-18.481.15-8.976.582-17.95.96-26.918.076-1.749.15-3.497.227-5.245.072-1.654.137-3.126.202-4.646.01-.136-.12-.366.01-.408 6.873-2.251 6.64-3.909 6.59-1.078-1.515.482-4.576 1.468-6.59 1.916.157-2.813-.106-.775 6.717-2.775-.132 1.66-.27 3.505-.353 4.994-.098 1.75-.186 3.501-.28 5.252-.433 8.937-.904 17.882-1.053 26.83-.15 8.992.012 9.882.12 18.449.025 2.028.024 4.056.036 6.085-.059 1.005-.007 3.528.122 4.53.214 1.657.532 2.762 1.277 4.038-4.534 5.544-3.627 5.923-5.968 3.986-3.857-3.71-7.116-8.034-10.468-12.184-1.899-2.35-3.82-4.683-5.696-7.051-2.143-2.705-4.24-5.445-6.36-8.167-14.206-17.69.484.572-13.45-16.664-5.687-7.035-11.109-14.388-17.777-20.548l5.499-4.26z" style="fill:#000;fill-opacity:1;stroke:#000;stroke-width:9.42133;stroke-miterlimit:4;stroke-dasharray:none;stroke-opacity:1" transform="matrix(.01126 -.01116 .01116 .01126 89.389 98.764)"/></g></g><path d="m59.05 59.186 1.49 1.517 1.495-1.472" style="display:inline;opacity:1;fill:none;fill-opacity:.754348;stroke:#000;stroke-width:.529167;stroke-linecap:butt;stroke-dasharray:none;stroke-opacity:1"/></g></svg>