<svg xmlns="http://www.w3.org/2000/svg" xmlns:xlink="http://www.w3.org/1999/xlink" id="svg4817" width="420" height="537" preserveAspectRatio="none" version="1.1" viewBox="-57.8 -50.047 420 537"><style id="style4594" type="text/css">.grid{stroke:#9e9ed1;stroke-width:.4}.axes{stroke:#000;stroke-width:.9}.none{display:none}.pink-panther{stroke:red;fill:none;stroke-width:1.5}</style><defs id="defs4611"><path id="STIXWEBNORMALI-1D461" stroke-width="1" d="m283 438-10-38h-70L125 80c-1-3-2-8-2-11 0-6 3-12 16-12 0 0 23 2 60 52l13-11C188 67 138-9 79-9 48-9 40 16 40 43c0 13 2 26 5 37l81 320H49l5 29c75 14 136 51 177 138h13l-31-129Z"/><path id="STIXWEBMAIN-5B" stroke-width="1" d="M299-156H88v818h211v-25h-83c-34 0-52-12-52-48V-77c0-40 19-54 52-54h83z"/><path id="STIXWEBMAIN-5D" stroke-width="1" d="M245-156H34v25h88c35 0 47 15 47 46v668c0 35-13 54-51 54H34v25h211z"/><path id="STIXWEBNORMALI-1D465" stroke-width="1" d="m305 288 45 69c26 40 61 84 111 84 32 0 49-12 49-33 0-19-13-42-39-42-22 0-27 9-44 9-30 0-41-16-55-38l-55-85c30-62 53-197 98-197 16 0 40 14 61 57l14-10C478 87 433-9 375-9c-41 0-60 41-73 77l-40 113-63-98C167 34 138-9 82-9 46-9 30 16 30 38c0 16 13 37 38 37 26 0 22-20 47-20 12 0 38 10 70 59l65 101-33 92c-17 48-43 89-98 89-13 0-28-2-38-6l-3 18 132 33c44-24 63-65 75-98z"/><path id="STIXWEBVARIANTS-2032" stroke-width="1" d="M78 28 44 40c26 123 89 398 107 456 16 51 46 69 76 69 36 0 68-22 68-71 0-11-5-35-10-47-21-57-146-306-207-419Z"/><path id="STIXWEBMAIN-28" stroke-width="1" d="m304-161-12-16C134-87 48 82 48 252c0 185 87 329 247 424l9-16C165 541 134 448 134 255c0-186 30-299 170-416Z"/><path id="STIXWEBMAIN-29" stroke-width="1" d="m29 660 12 16c153-92 244-259 244-429 0-185-88-327-247-424l-9 16C171-44 199 50 199 244c0 187-25 302-170 416Z"/><path id="STIXWEBMAIN-2F" stroke-width="1" d="M287 676 59-14H-9l229 690z"/><path id="STIXWEBMAIN-34" stroke-width="1" d="M473 167H370V0h-78v167H12v64l314 445h44V231h103Zm-181 64v343L52 231Z"/><path id="STIXWEBMAIN-30" stroke-width="1" d="M476 330c0-172-63-344-226-344C79-14 24 172 24 336c0 177 69 340 230 340 131 0 222-141 222-346Zm-96-5c0 208-44 325-132 325-83 0-128-118-128-321S164 12 250 12c85 0 130 115 130 313z"/><path id="STIXWEBMAIN-35" stroke-width="1" d="m438 681-36-85c-3-7-11-13-27-13H181l-40-85c143-27 193-49 250-128 26-36 35-74 35-127 0-96-30-158-98-208-47-34-102-49-170-49C83-14 31 10 31 48c0 25 17 38 45 38 23 0 42-5 74-31 28-23 51-32 71-32 70 0 135 83 135 169 0 64-22 114-67 150-47 38-117 70-213 70-9 0-12 2-12 8 0 2 1 5 1 5l109 237h207c23 0 32 5 48 26z"/><path id="STIXWEBMAIN-36" stroke-width="1" d="m446 684 2-16c-157-26-269-134-296-285 49 38 83 45 127 45 117 0 189-80 189-209 0-64-18-120-51-160-37-46-93-73-159-73-79 0-142 37-177 101-28 51-47 122-47 192 0 108 38 203 109 276 86 90 165 114 303 129zm-68-496c0 128-42 194-135 194-57 0-116-24-116-116 0-152 48-252 142-252 72 0 109 72 109 174z"/><path id="STIXWEBMAIN-2212" stroke-width="1" d="M621 220H64v66h557z"/><path id="STIXWEBMAIN-38" stroke-width="1" d="M445 155c0-103-77-169-197-169C135-14 56 55 56 149c0 69 23 108 130 183C83 417 62 455 62 520c0 96 83 156 194 156 99 0 168-65 168-143 0-75-35-109-134-162 123-82 155-136 155-216Zm-90 378c0 69-41 115-109 115-67 0-110-37-110-99s37-108 125-160c68 40 94 82 94 144zm-84-261-59 40c-59-48-80-89-80-154 0-92 51-144 127-144 65 0 110 45 110 110 0 62-30 102-98 148z"/><path id="STIXWEBMAIN-37" stroke-width="1" d="M449 646 237-8h-65l198 596H155c-58 0-75-14-117-82l-18 9 60 147h369z"/></defs><g id="notch labels" style="stroke:none;fill:#b8b8de"><path id="path265071" d="m162.08 238 .08-203.143 2.912 16.517 1.964-6.24 1.968 3.012 1.968.347 1.964.86 1.968-1.86 1.968 3.142 1.964-4.76 1.968 4.802 1.964-4.9 1.968 4.536 1.968-5.034 1.968 4.256 1.964 1.1 1.968-4.956 1.964 4.872 2.912-1.271.08 188.72" class="pink-panther" style="fill:#d0f0f7;fill-opacity:1;stroke:none"/><path id="path264528" d="m233.32 238 .08 191.464 2.86-2.383 1.932 5.203 1.936-1.95 1.932 12.424 1.932-9.466 1.936 1.386 1.932-8.076 2.86 4.797L250.8 238" class="pink-panther" style="fill:#fde1e8;fill-opacity:1;stroke:none"/><path id="path263986" d="m107.416 238 .08 176.33 2.936 13.966 1.984-12 1.984 11.813 1.984.252 1.984-11.119 1.984 6.768 1.984 5.933 1.984-13.185 1.984 11.449 2.936-2.181.08-188.026" class="pink-panther" style="fill:#fde1e8;fill-opacity:1;stroke:none"/><path id="path4613" d="M20 476V0" class="grid"/><path id="path4615" d="M60 476V233.081m0-17.841V0" class="grid"/><path id="path4617" d="M100 476V0" class="grid"/><path id="path4619" d="M140 476V0" class="grid"/><path id="path4621" d="M180 476V0" class="grid"/><path id="path4623" d="M220 476V0" class="grid"/><path id="path4625" d="M260 476V233.081m0-18.693V0" class="grid"/><path id="path4627" d="M300 476V0" class="grid"/><path id="path4629" d="M340 476V0" class="grid"/><path id="path4631" d="M380 476V0" class="grid"/><g id="g337844" transform="translate(0 55.867)"><g id="g337840"><path id="path4661" d="M0 377.6h29.49m24.771 0H920" class="grid"/></g></g><path id="path4663" d="M0 406h29.487m24.774 0H920" class="grid"/><path id="path4665" d="M0 377.46h920" class="grid"/><path id="path4667" d="M0 350h920" class="grid"/><path id="path4669" d="M0 322h920" class="grid"/><path id="path4671" d="M0 294h920" class="grid"/><path id="path4673" d="M0 266h920" class="grid"/><path id="path4675" d="M0 238h920" class="grid"/><path id="path4677" d="M0 210h920" class="grid"/><path id="path4679" d="M0 182h920" class="grid"/><path id="path4681" d="M0 154h920" class="grid"/><path id="path4683" d="M0 126h920" class="grid"/><path id="path4685" d="M0 98h920" class="grid"/><path id="path4687" d="M0 70h40.59m13.671 0H920" class="grid"/><path id="path4689" d="M0 42h40.593m13.668 0H920" class="grid"/><path id="path4691" d="M0 14h40.593m13.668 0H920" class="grid"/><path id="path4694" d="M0 238h927.378" class="axes"/><path id="path4696" d="M60 476V233.081m0-17.841V-6.558" class="axes"/><path id="path4701" d="M55.081-2.623C57.05-2.623 60-5.575 60-6.558c0 .983 2.951 3.935 4.919 3.935" style="stroke-width:1.1;stroke:#000;fill:none;stroke-linecap:round;stroke-linejoin:round"/><g id="g4740" style="stroke:none;fill:#000" transform="matrix(.01904 0 0 -.01904 43.19 -24.594)"><use xlink:href="#STIXWEBNORMALI-1D465" id="use4716" x="0" y="0"/><use xlink:href="#STIXWEBVARIANTS-2032" id="use4718" x="778" y="583" transform="scale(.707)"/><use xlink:href="#STIXWEBMAIN-28" id="use4720" x="891" y="0"/><use xlink:href="#STIXWEBNORMALI-1D461" id="use4722" x="1224" y="0"/><use xlink:href="#STIXWEBMAIN-29" id="use4724" x="1538" y="0"/><use xlink:href="#STIXWEBMAIN-5B" id="use4726" x="2371" y="0"/><g id="g4730" transform="translate(2705)"><g id="text4728" aria-label="c" style="font-size:20.5px;font-family:baskerville" transform="scale(52.507 -52.507)"><path id="path6088" d="M7.838-2.002h.44Q7.598.33 4.875.33 3.123.33 1.922-.86.73-2.053.73-4.015q0-2.012 1.291-3.263t3.053-1.251q1.061 0 1.952.47.89.46.89 1.131 0 .25-.17.47-.16.22-.47.22-.66 0-.81-.77-.12-.58-.371-.81-.26-.23-1.011-.23-1.341 0-2.022.93-.67.931-.67 2.803 0 1.932.72 3.023.73 1.09 2.202 1.09 1.982 0 2.523-1.801z"/></g></g><use xlink:href="#STIXWEBMAIN-2F" id="use4732" x="3205" y="0"/><g id="g4736" transform="translate(3484)"><g id="text4734" aria-label="s" style="font-size:20.5px;font-family:baskerville" transform="scale(52.507 -52.507)"><path id="path6091" d="M.83.26v-2.692h.391Q1.901-.1 3.654-.1q.76 0 1.13-.46.381-.461.381-1.012 0-.64-.4-1.05-.41-.411-1.592-.992-1.241-.61-1.782-1.2-.54-.581-.54-1.432 0-.81.58-1.542.581-.74 1.632-.74 1.071 0 1.772.87.15-.15.39-.73h.37v2.532h-.37q-.2-.91-.78-1.561-.571-.66-1.352-.66-.6 0-.97.37-.371.37-.371.86 0 .54.41.931.4.4 1.532.911 1.701.77 2.082 1.502.38.74.38 1.421 0 1.071-.71 1.742-.701.67-1.772.67-1.132 0-2.012-.93-.27.3-.44.86z"/></g></g><use xlink:href="#STIXWEBMAIN-5D" id="use4738" x="3843" y="0"/></g><g id="g809002"><path id="path5781" d="M-24.92 280.699v.704q-4.236 3.41-9.687 3.41-5.155 0-9.279-3.297v-.705q1.787 1.623 4.216 2.501 2.43.868 4.992.868 3.174 0 5.726-1.01 2.562-1.022 4.032-2.471z" style="font-size:20.5px;font-family:baskerville;fill:#000;stroke:#000;stroke-width:.1;stroke-dasharray:none;stroke-opacity:1"/><path id="path5783" d="M-36.893 277.392q-.858-.613-1.287-1.368-.428-.766-.428-1.674 0-1.031.428-1.705.43-.684 1.062-.888.623-.204 2.031-.204h2.307q1.47 0 1.787-.051.316-.061.47-.337.142-.276.142-1.02h.47v4.317h-.47v-.194q0-.745-.214-.96-.215-.224-.5-.255-.296-.04-1.685-.04h-2.51q-1.042 0-1.542.122-.5.123-.827.582-.327.45-.327 1.133 0 .796.47 1.43.46.632 1.388 1.112h3.348q1.409 0 1.736-.041.326-.051.5-.317.163-.265.163-.97h.47v4.247h-.47v-.214q0-.735-.204-.95-.214-.224-.5-.255-.296-.04-1.695-.04h-8.33q-1.265 0-1.602.244-.337.235-.337 1.144h-.47q0-1.582-.428-2.634v-.214z" style="font-size:20.5px;font-family:baskerville;fill:#000;stroke:#000;stroke-width:.1;stroke-dasharray:none;stroke-opacity:1"/><path id="path5785" d="M-34.107 268.92q-1.919 0-3.205-1.287-1.296-1.286-1.296-3.164 0-1.889 1.296-3.175 1.296-1.286 3.205-1.286 2.113 0 3.328 1.307 1.205 1.306 1.205 3.154 0 1.847-1.225 3.154-1.236 1.296-3.308 1.296zm.051-1.695q2.226 0 3.124-.725.888-.725.888-2.031 0-1.337-.888-2.042-.898-.714-3.124-.714-2.205 0-3.144.704-.939.704-.939 2.052 0 1.337.94 2.052.928.704 3.143.704z" style="font-size:20.5px;font-family:baskerville;fill:#000;stroke:#000;stroke-width:.1;stroke-dasharray:none;stroke-opacity:1"/><path id="path5787" d="M-36.475 255.762q-.908-.347-1.52-1.123-.613-.786-.613-1.531 0-.674.418-1.062.419-.388.858-.388.296 0 .51.204.214.194.214.48 0 .51-.755.776-.51.184-.51.551 0 .439.602 1.051.592.613 1.235.786.643.174 1.766.174h1.49q1.338 0 1.685-.03.347-.041.53-.297.184-.255.184-.908v-.286h.47v4.44h-.47v-.214q0-.612-.163-.868-.174-.265-.48-.316-.306-.051-1.756-.051h-2.358q-1.347 0-1.684.04-.347.031-.53.287-.195.255-.195.908v.214h-.459q-.112-.96-.602-2.51.806-.297 2.133-.327z" style="font-size:20.5px;font-family:baskerville;fill:#000;stroke:#000;stroke-width:.1;stroke-dasharray:none;stroke-opacity:1"/><path id="path5789" d="M-42.875 250.219q-.439 0-.755-.306-.317-.317-.317-.756t.317-.745q.316-.306.755-.306.45 0 .766.306t.316.745q0 .44-.316.756-.317.306-.766.306zm4.267-1.97h5.828q1.338 0 1.685-.041.347-.04.53-.296.184-.255.184-.909v-.214h.47v4.502h-.47v-.347q0-.725-.204-.94-.214-.224-.5-.255-.296-.04-1.695-.04h-2.531q-1.47 0-1.797.142-.326.133-.408.368-.082.224-.082.796v.276h-.47q-.183-1.817-.54-2.818z" style="font-size:20.5px;font-family:baskerville;fill:#000;stroke:#000;stroke-width:.1;stroke-dasharray:none;stroke-opacity:1"/><path id="path5791" d="M-29.911 245.85h-.317l-7.574-5.543v3.042q0 .582.082.796.071.204.49.5.408.286 1.276.582v.378l-2.317-.133v-7.002h.367l7.523 5.512v-2.287q0-1.112-.122-1.49-.123-.378-.603-.745-.49-.368-1.47-.735v-.408l2.665.245z" style="font-size:20.5px;font-family:baskerville;fill:#000;stroke:#000;stroke-width:.1;stroke-dasharray:none;stroke-opacity:1"/><path id="path5793" d="M-34.107 236.888q-1.919 0-3.205-1.287-1.296-1.286-1.296-3.164 0-1.888 1.296-3.174 1.296-1.287 3.205-1.287 2.113 0 3.328 1.307 1.205 1.307 1.205 3.154 0 1.848-1.225 3.154-1.236 1.297-3.308 1.297zm.051-1.695q2.226 0 3.124-.725.888-.724.888-2.03 0-1.338-.888-2.042-.898-.715-3.124-.715-2.205 0-3.144.704-.939.705-.939 2.052 0 1.337.94 2.052.928.704 3.143.704z" style="font-size:20.5px;font-family:baskerville;fill:#000;stroke:#000;stroke-width:.1;stroke-dasharray:none;stroke-opacity:1"/><path id="path5795" d="M-38.608 224.332v-.275q.633-.235 1.725-.266-.868-.735-1.297-1.541-.428-.807-.428-1.684 0-1 .418-1.634.419-.643 1.031-.826.602-.184 1.766-.184h2.613q1.45 0 1.766-.051.317-.051.48-.317.153-.275.153-1h.47v4.277h-.47v-.194q0-.735-.214-.96-.215-.224-.5-.255-.286-.03-1.685-.03h-2.695q-.99 0-1.408.102-.429.092-.756.52-.326.419-.326 1.072 0 .745.449 1.43.439.673 1.327 1.275h3.41q1.449 0 1.765-.05.317-.062.48-.327.153-.276.153-1.01h.47v4.225h-.47q0-.704-.143-.98t-.429-.337q-.296-.071-1.827-.071h-2.49q-1.46 0-1.766.061-.317.051-.47.327-.163.265-.163 1h-.47q-.122-1.123-.47-2.297z" style="font-size:20.5px;font-family:baskerville;fill:#000;stroke:#000;stroke-width:.1;stroke-dasharray:none;stroke-opacity:1"/><path id="path5797" d="M-37.802 210.368v2.521h5.053q1.164 0 1.572-.102.398-.102.643-.428.245-.337.245-.715 0-.735-.837-1.276l.194-.327q.674.317 1.02.94.338.612.338 1.245 0 .735-.43 1.296-.438.551-1.02.694-.582.133-2.042.133h-4.736v1.215h-.47q-.02-.837-.704-1.5-.684-.664-1.919-.848v-.327h2.624v-2.52z" style="font-size:20.5px;font-family:baskerville;fill:#000;stroke:#000;stroke-width:.1;stroke-dasharray:none;stroke-opacity:1"/><path id="path5799" d="M-31.442 200.804v-.378q1.745.092 1.745 1.715 0 .694-.367 1.102-.368.398-1.093.52.725 1.022 1.093 1.869.367.837.367 1.5 0 .848-.49 1.46t-1.296.612q-1.052 0-1.838-1.02-.786-1.031-1.53-2.838l-.644-1.582h-.408q-.868 0-1.256.112t-.694.582q-.306.47-.306 1.235 0 1.531 1.02 1.705 1.042.163 1.042.857 0 .623-.592.623-.582 0-1.246-.827-.673-.827-.673-2.572 0-1.297.408-2.011.408-.715.929-.94.52-.234 1.592-.234h3.38q1.183 0 1.52-.123.337-.122.337-.53 0-.674-1-.837zm-3.573 2.96.449 1.112q1.072 2.634 2.695 2.634.643 0 1.041-.337.388-.337.388-.878 0-.48-.317-1.112-.316-.633-.949-1.42z" style="font-size:20.5px;font-family:baskerville;fill:#000;stroke:#000;stroke-width:.1;stroke-dasharray:none;stroke-opacity:1"/><path id="path5801" d="M-43.947 197.006h11.167q1.338 0 1.685-.03.347-.041.53-.296.184-.256.184-.909v-.245h.47v4.471h-.47v-.286q0-.612-.163-.867-.174-.266-.48-.317-.306-.05-1.756-.05h-8.268q-1.317 0-1.654.234-.347.235-.347 1.143h-.47q0-.622-.142-1.46-.143-.847-.286-1.163z" style="font-size:20.5px;font-family:baskerville;fill:#000;stroke:#000;stroke-width:.1;stroke-dasharray:none;stroke-opacity:1"/><path id="path5803" d="M-24.92 195.312q-1.47-1.44-4.032-2.45-2.552-1.02-5.726-1.02-2.44 0-4.88.826-2.44.827-4.328 2.542v-.715q4.124-3.297 9.28-3.297 5.45 0 9.686 3.41z" style="font-size:20.5px;font-family:baskerville;fill:#000;stroke:#000;stroke-width:.1;stroke-dasharray:none;stroke-opacity:1"/></g><path id="path4748" d="M0 238h107.416l.08 176.33 2.936 13.966 1.984-12 1.984 11.813 1.984.252 1.984-11.119 1.984 6.768 1.984 5.933 1.984-13.185 1.984 11.449 2.936-2.181.08-188.026h32.76l.08-203.143 2.912 16.517 1.964-6.24 1.968 3.012 1.968.347 1.964.86 1.968-1.86 1.968 3.142 1.964-4.76 1.968 4.802 1.964-4.9 1.968 4.536 1.968-5.034 1.968 4.256 1.964 1.1 1.968-4.956 1.964 4.872 2.912-1.271.08 188.72h35.76l.08 191.464 2.86-2.383 1.932 5.203 1.936-1.95 1.932 12.424 1.932-9.466 1.936 1.386 1.932-8.076 2.86 4.797L250.8 238h35.28l.08-187.34 2.956 1.89 1.996 1.465 2-6.127 1.996.678 2 .84 1.996 4.018 1.996-4.194 2 2.732 1.996-1.302 1.996-3.122 2 3.31 1.996-.378 2 .19 1.996 2.546 1.996-4.665 2 3.13 1.996.392 1.996 1.123 2-5.317 1.996 3.351 2-1.159 1.996-1.254 1.996 6.205 2-9.57 1.996 6.075 1.996 3.422 2-9.464 1.996 7.532 2-.095 1.996-5.133 1.996.137 2 7.432 1.996-9.54 1.996 7.258 2-.213 1.996-6.888 2 6.339 1.996 2.153 1.996-7.179 2 3.752" class="pink-panther"/><g id="g4759" transform="matrix(.01618 0 0 -.01618 51.9 229.257)"><use xlink:href="#STIXWEBMAIN-34" id="use4755"/><use xlink:href="#STIXWEBMAIN-30" id="use4757" x="500" y="0"/></g><g id="g4765" transform="matrix(.01618 0 0 -.01618 251.9 229.255)"><use xlink:href="#STIXWEBMAIN-34" id="use4761"/><use xlink:href="#STIXWEBMAIN-35" id="use4763" x="500" y="0"/></g><g id="g4789" transform="matrix(.01619 0 0 -.01619 32.277 467.467)"><use xlink:href="#STIXWEBMAIN-2212" id="use4785" x="0" y="0"/><use xlink:href="#STIXWEBMAIN-38" id="use4787" x="685" y="0"/></g><g id="g4795" transform="matrix(.01619 0 0 -.01619 32.277 439.467)"><use xlink:href="#STIXWEBMAIN-2212" id="use4791" x="0" y="0"/><use xlink:href="#STIXWEBMAIN-37" id="use4793" x="685" y="0"/></g><use xlink:href="#STIXWEBMAIN-2212" id="use4797" x="0" y="0" transform="matrix(.01619 0 0 -.01619 32.276 411.47)"/><use xlink:href="#STIXWEBMAIN-36" id="use4799" x="685" y="0" transform="matrix(.01619 0 0 -.01619 32.276 411.47)"/><g id="g4805" transform="matrix(.01618 0 0 -.01618 43.378 75.467)"><use xlink:href="#STIXWEBMAIN-36" id="use4803" x="0" y="0"/></g><g id="g4809" transform="matrix(.01618 0 0 -.01618 43.379 47.465)"><use xlink:href="#STIXWEBMAIN-37" id="use4807" x="0" y="0"/></g><g id="g4813" transform="matrix(.01618 0 0 -.01618 43.379 19.465)"><use xlink:href="#STIXWEBMAIN-38" id="use4811" x="0" y="0"/></g><g id="g20754" style="display:inline;fill:#fde1e8;fill-opacity:1;stroke:none;stroke-width:2;stroke-miterlimit:4;stroke-dasharray:none;stroke-opacity:1" transform="matrix(1.06667 0 0 1.06667 -1340.563 -491.71)"><path id="path20756" d="m400.569 674.255 7.481.025c48.744.172 69.756.293 118.486-.612 8.87-.165 22.416-.145 35.564-.065l-.644 149.859c-1.692-1.045-4.823-2.21-6.515-3.256-5.709-3.423-11.433-7.169-17.825-9.183-6.39-2.014-13.06-2.113-19.662-1.504-6.063.45-12.931 1.487-18.719-1.182-6.718-3.099-9.355-9.679-11.09-16.453-1.235-4.981-2.286-10.01-3.543-14.986-.702-2.78-2.338-10.426-5.698-11.846-.816-.344-1.766-.017-2.65-.026-1.12.718-2.35 1.281-3.359 2.153-3.001 2.597-5.932 6.666-8.136 9.843-4.53 6.53-8.318 13.553-12.997 19.981-2.42 2.824-4.863 6.733-8.811 7.792-8.628 2.314-13.8-12.999-16.42-18.26-1.267-3.506-2.64-6.976-3.8-10.52-7.554-23.068-11.983-47.044-16.078-70.94-1.674-10.71-3.773-22.4-5.584-30.82z" style="opacity:1;fill:#fde1e8;fill-opacity:1;stroke:none;stroke-width:2;stroke-linecap:butt;stroke-linejoin:miter;stroke-miterlimit:4;stroke-dasharray:none;stroke-dashoffset:0;stroke-opacity:1"/></g><g id="g20758" style="display:inline;fill:#d0f0f7;fill-opacity:1;stroke:none;stroke-width:2;stroke-miterlimit:4;stroke-dasharray:none;stroke-opacity:1" transform="matrix(1.06667 0 0 1.06667 -1340.596 -492.27)"><path id="path20760" d="M224.222 673.179c9.522-.037 19.138-.014 28.921.113 49.139.64 98.281.799 147.426.963-2.879-20.26-6.954-41.956-10.12-59.553-3.832-22.053-7.09-44.229-11.975-66.077-1.297-5.261-2.005-8.286-3.406-13.411-.984-3.602-2.018-8.552-4.056-11.778-.28-.442-.734-.74-1.1-1.11-.475.025-.999-.14-1.425.075-1.452.732-3.389 3.356-4.162 4.452-3.282 4.65-5.892 9.756-8.79 14.645-4.092 6.882-10.082 19.147-18.934 20.503-1.408.215-2.842-.196-4.263-.293-1.44-.746-2.998-1.296-4.322-2.238-3.391-2.413-6.264-5.992-8.675-9.322-4.742-6.552-8.468-13.783-12.63-20.707-5.26-8.55-11.525-19.993-21.794-23.105-1.553-.47-3.204-.494-4.805-.74-1.731.2-3.494.212-5.193.604-10.485 2.418-20.06 10.343-27.98 17.302-8.098 7.673-15.86 15.714-22.663 24.612z" style="opacity:1;fill:#d0f0f7;fill-opacity:1;stroke:none;stroke-width:2;stroke-linecap:butt;stroke-linejoin:miter;stroke-miterlimit:4;stroke-dasharray:none;stroke-dashoffset:0;stroke-opacity:1"/></g><path id="path461883" d="M-857.112 218.527c6.483 2.063 13.826 1.36 20.113-1.04 16.193-6.183 24.897-29.256 17.228-45.023-5.458-11-16.16-19.547-28.332-21.7-8.263-1.073-17.061.533-23.872 5.52-13.339 8.99-19.165 27.32-13.693 42.405 3.527 10.637 12.741 19.664 24.086 21.225a29.4 29.4 0 0 0 9.44.117" style="fill:#e5f6ff;fill-opacity:1;stroke:#000;stroke-width:.9;stroke-miterlimit:2;stroke-dasharray:none"/><path id="path9097" d="M-777.9 218.059c6.484 2.062 13.827 1.36 20.114-1.04 16.193-6.183 24.897-29.257 17.228-45.024-5.458-11-16.16-19.546-28.332-21.7-8.263-1.072-17.061.533-23.872 5.521-13.339 8.99-19.165 27.32-13.693 42.405 3.527 10.636 12.741 19.664 24.086 21.224a29.4 29.4 0 0 0 9.44.118" style="fill:#ffe3ea;fill-opacity:1;stroke:#000;stroke-width:.9;stroke-miterlimit:2;stroke-dasharray:none"/><path id="path7287" d="m143.368 237.967.08 175.692 2.692 12.303 1.824-7.148 1.824 10.2 1.82-3.5 1.824-9.248 1.82 13.065 1.824-2.179 1.824-2.847 2.692-3.075.08-183.263m53.536 0 .08-185.071 2.896-4.545 1.96-.238 1.956-2.184 1.96 5.424 1.956-10.074 1.96-4.419 1.96 11.62 2.896-3.573.08 193.06m17.32 0 .004-9.94m.002-4.404.074-177.159 2.908 3.058h1.964l1.964-3.59 1.964 5.592 1.964-.395 1.964-8.459 1.964 8.26 1.964-.47 1.968-3.996 1.964 3.091 1.964-.856 1.964-1.958 1.964-11.734 1.964 10.343 1.964 6.188 1.964-6.98 2.908 4.222.568 1.88" class="pink-panther" style="fill:none;stroke:#000;stroke-width:1.5;stroke-opacity:.2"/><g id="g280991" transform="translate(384.622 15.039)"><ellipse id="path280089" cx="-300.686" cy="599.473" rx="18.244" ry="17.766" style="fill:#80b3ff;fill-opacity:1;stroke:#000;stroke-width:2;stroke-dasharray:none;stroke-opacity:1"/><path id="path280018" d="M-296.495 608.605q0 .226-.628.226H-298.549q-1.084-.028-2.197-.028-1.968 0-2.51.028-.542.029-.856.029-.685 0-.685-.255 0-.256.4-.256.627 0 1.34-.028.885-.028.942-.425.085-.425.085-1.786v-13.326q0-.907-.057-1.077-.057-.17-.399-.17-.143 0-1.854.142-.343.028-.457.028-.342 0-.342-.199 0-.226.342-.255 1.341-.141 2.71-.794 1.37-.68 2.197-1.587.314-.255.428-.255.228 0 .228.283v.539q-.028.227-.028.51v16.954q0 1.021.085 1.191.114.17.714.199l.656.028.485.028h.428q.4 0 .4.255z" style="font-size:36.4174px;font-family:&quot;Bodoni 72&quot;;-inkscape-font-specification:&quot;Bodoni 72, &quot;;fill:#fff;stroke-width:.1"/></g><g id="g305419" transform="translate(457.205 -70.679)"><ellipse id="ellipse281005" cx="-167.646" cy="686.083" rx="18.244" ry="17.766" style="fill:#80b3ff;fill-opacity:1;stroke:#000;stroke-width:2;stroke-dasharray:none;stroke-opacity:1"/><path id="path280026" d="M-161.656 689.378q0 3.629-2.796 5.557-1.683 1.162-4.365 1.162-2.682 0-3.937-1.39-.685-.765-.685-1.814 0-.879.571-1.417.57-.567 1.484-.567.741 0 1.226.425.514.425.514 1.049 0 1.049-1.398 1.588-.628.226-.628.51 0 .454.828.822.855.34 1.882.34 1.997 0 2.996-1.36 1.37-1.872 1.37-5.047 0-2.325-1.085-3.6-1.084-1.277-3.08-1.277-1.541 0-3.396 1.163.171-6.38.257-8.052.029-.964.428-1.163.4-.226 2.168-.226h.97q.685.028 1.084.028h.97q1.969 0 2.282-.057.343-.085.428-.482.115-.652.4-.652.285 0 .285.312 0 .198-.028.312l-.057.652q-.143 1.588-.6 1.985-.427.368-2.14.368l-5.448-.028q-.114.964-.2 5.812 1.626-.737 3.395-.737 2.939 0 4.622 1.56 1.683 1.53 1.683 4.224z" style="font-size:36.4174px;font-family:&quot;Bodoni 72&quot;;-inkscape-font-specification:&quot;Bodoni 72, &quot;;fill:#fff;stroke-width:.1"/></g><g id="g305401" transform="translate(81.3 2.538)"><ellipse id="ellipse305397" cx="53.79" cy="611.974" rx="18.244" ry="17.766" style="fill:#80b3ff;fill-opacity:1;stroke:#000;stroke-width:2;stroke-dasharray:none;stroke-opacity:1"/><path id="path305399" d="M60.238 616.317q0 .085-.057.454-.143.935-.457 4.621l-.028.34q-2.939-.142-6.704-.142-2.026 0-3.795.057-1.769.057-1.54.057-.77 0-.77-.284 0-.227 1.483-1.417 3.566-2.892 5.078-4.707 2.625-3.147 2.625-7.4 0-2.863-1.199-4.337-.912-1.134-2.567-1.134-1.626 0-2.568.992-.741.765-.741 1.53 0 .483.77.511 1.997.085 1.997 1.73 0 1.56-1.655 1.56-1.055 0-1.683-.653-.628-.652-.628-1.786 0-2.098 1.484-3.374 1.483-1.276 3.908-1.276t4.023 1.531q1.854 1.786 1.854 4.65 0 3.147-2.11 5.812-2.112 2.637-7.105 5.755 1.883-.056 4.736-.056 2.368 0 2.996-.057.627-.085 1.112-.369.4-.255.685-1.9.2-1.133.57-1.133.286 0 .286.425z" style="font-size:36.4174px;font-family:&quot;Bodoni 72&quot;;-inkscape-font-specification:&quot;Bodoni 72, &quot;;fill:#fff;stroke-width:.1"/></g><g id="g305409" transform="translate(239.34 -51.928)"><ellipse id="ellipse305403" cx="-53.357" cy="666.44" rx="18.244" ry="17.766" style="fill:#80b3ff;fill-opacity:1;stroke:#000;stroke-width:2;stroke-dasharray:none;stroke-opacity:1"/><path id="path305405" d="M-47.306 671.477q0 2.354-1.911 4.026-2.112 1.843-5.392 1.843-2.682 0-3.937-1.247-.8-.794-.8-1.815 0-.879.543-1.389.57-.539 1.512-.539.742 0 1.227.426.485.425.485 1.077 0 .992-1.341 1.56-.542.226-.542.453 0 .369.742.68.741.284 1.626.284 2.168 0 3.509-1.474 1.37-1.475 1.37-3.856 0-4.792-4.337-4.792-.428 0-.628.029h-.2q-.37 0-.37-.255 0-.199.684-.312 1.997-.284 3.081-1.446 1.084-1.191 1.084-3.034 0-1.814-.941-2.892-.941-1.106-2.54-1.106-1.169 0-2.053.51-.856.483-.856 1.135 0 .255.4.34 1.882.454 1.882 1.56 0 1.445-1.512 1.445-.97 0-1.569-.567-.57-.567-.57-1.502 0-1.531 1.312-2.552 1.34-1.049 3.709-1.049 2.71 0 4.136 1.39 1.427 1.389 1.427 3.231 0 2.552-2.425 3.771-.856.425-2.767.709v.198q2.367.086 3.822 1.05 2.14 1.417 2.14 4.11z" style="font-size:36.4174px;font-family:&quot;Bodoni 72&quot;;-inkscape-font-specification:&quot;Bodoni 72, &quot;;fill:#fff;stroke-width:.1"/></g><g id="g305415" transform="translate(350.058 -71.571)"><ellipse id="ellipse305411" cx="-110.501" cy="686.083" rx="18.244" ry="17.766" style="fill:#80b3ff;fill-opacity:1;stroke:#000;stroke-width:2;stroke-dasharray:none;stroke-opacity:1"/><path id="path305413" d="M-104.49 691.745q0 .284-.285.284-.257 0-.342-.312-.057-.34-.2-1.786-.057-.227-.228-.34-.342-.2-1.512-.2-.314 0-.6.03l.03 4.45q.142.34.456.426.342.085 1.626.085.627 0 .742.113.028.057.028.17 0 .199-1.141.199t-6.39.056q-.286.029-.628.029-.57 0-.57-.284 0-.283.827-.255.97.028 1.768-.113.343-.057.428-.284.086-.255.086-1.077v-3.43q-.57-.029-1.312-.029h-1.17q-.4 0-.884.028h-.542l-3.624-.085q-.399-.028-.399-.227 0-.141 4.194-5.868 1.312-1.843 5.791-8.11.2-.283.4-.283.285 0 .285.54v13.324h.285q.97 0 1.512-.113.57-.113.57-.567-.028-1.786-.028-1.22.029-1.02.314-1.02.4 0 .4.794v1.276l.028 2.041q.028 1.05.057 1.333.028.255.028.425zm-5.734-12.645q-.285.454-1.198 1.73-1.255 1.73-3.794 5.16l-2.026 2.75q1.056.085 4.536.085 1.227 0 2.311-.028v-2.013q0-1.418.086-3.828.085-2.835.085-3.856z" style="font-size:36.4174px;font-family:&quot;Bodoni 72&quot;;-inkscape-font-specification:&quot;Bodoni 72, &quot;;fill:#fff;stroke-width:.1"/></g><g id="g305425" transform="translate(562.565 -68.893)"><ellipse id="ellipse305421" cx="-225.684" cy="684.297" rx="18.244" ry="17.766" style="fill:#80b3ff;fill-opacity:1;stroke:#000;stroke-width:2;stroke-dasharray:none;stroke-opacity:1"/><path id="path305423" d="M-220.075 687.648q0 2.75-1.683 4.707-1.683 1.956-4.023 1.956-2.938 0-4.764-2.41t-1.826-6.265q0-3.544 1.54-6.465 1.57-2.92 4.166-4.252 2.168-1.106 4.736-1.106.599 0 .599.227 0 .198-.4.226-2.567.227-4.536 1.843-2.567 2.098-3.024 7.145 1.57-1.474 3.538-1.474 1.597 0 2.995.85 2.682 1.616 2.682 5.018zm-2.938.086q0-5.274-3.281-5.274-1.484 0-2.283 1.276-.798 1.247-.798 3.516 0 3.26 1.17 5.273.741 1.276 2.168 1.276 3.024 0 3.024-6.067z" style="font-size:36.4174px;font-family:&quot;Bodoni 72&quot;;-inkscape-font-specification:&quot;Bodoni 72, &quot;;fill:#fff;stroke-width:.1"/></g><g id="g2078" style="fill:#e6e6e6;fill-opacity:1;stroke:gray;stroke-opacity:1" transform="matrix(.49342 0 0 .49342 39.68 233.603)"><ellipse id="ellipse2074" cx="53.79" cy="611.974" rx="18.244" ry="17.766" style="fill:#e6e6e6;fill-opacity:1;stroke:gray;stroke-width:2;stroke-dasharray:none;stroke-opacity:1"/><path id="path2076" d="M60.238 616.317q0 .085-.057.454-.143.935-.457 4.621l-.028.34q-2.939-.142-6.704-.142-2.026 0-3.795.057-1.769.057-1.54.057-.77 0-.77-.284 0-.227 1.483-1.417 3.566-2.892 5.078-4.707 2.625-3.147 2.625-7.4 0-2.863-1.199-4.337-.912-1.134-2.567-1.134-1.626 0-2.568.992-.741.765-.741 1.53 0 .483.77.511 1.997.085 1.997 1.73 0 1.56-1.655 1.56-1.055 0-1.683-.653-.628-.652-.628-1.786 0-2.098 1.484-3.374 1.483-1.276 3.908-1.276t4.023 1.531q1.854 1.786 1.854 4.65 0 3.147-2.11 5.812-2.112 2.637-7.105 5.755 1.883-.056 4.736-.056 2.368 0 2.996-.057.627-.085 1.112-.369.4-.255.685-1.9.2-1.133.57-1.133.286 0 .286.425z" style="font-size:36.4174px;font-family:&quot;Bodoni 72&quot;;-inkscape-font-specification:&quot;Bodoni 72, &quot;;fill:#666;fill-opacity:1;stroke:none;stroke-width:.1;stroke-opacity:1"/></g><g id="g5457" transform="matrix(.49342 0 0 .49342 180.184 234.014)"><ellipse id="ellipse5453" cx="-300.686" cy="599.473" rx="18.244" ry="17.766" style="fill:#80b3ff;fill-opacity:1;stroke:#000;stroke-width:2;stroke-dasharray:none;stroke-opacity:1"/><path id="path5455" d="M-296.495 608.605q0 .226-.628.226H-298.549q-1.084-.028-2.197-.028-1.968 0-2.51.028-.542.029-.856.029-.685 0-.685-.255 0-.256.4-.256.627 0 1.34-.028.885-.028.942-.425.085-.425.085-1.786v-13.326q0-.907-.057-1.077-.057-.17-.399-.17-.143 0-1.854.142-.343.028-.457.028-.342 0-.342-.199 0-.226.342-.255 1.341-.141 2.71-.794 1.37-.68 2.197-1.587.314-.255.428-.255.228 0 .228.283v.539q-.028.227-.028.51v16.954q0 1.021.085 1.191.114.17.714.199l.656.028.485.028h.428q.4 0 .4.255z" style="font-size:36.4174px;font-family:&quot;Bodoni 72&quot;;-inkscape-font-specification:&quot;Bodoni 72, &quot;;fill:#fff;stroke-width:.1"/></g><g id="g25836" transform="translate(-.135 10.534)"><ellipse id="ellipse25832" cx="118.462" cy="466.74" rx="9.002" ry="8.766" style="fill:#fcff80;fill-opacity:1;stroke:#000;stroke-width:.986833;stroke-dasharray:none;stroke-opacity:1"/><path id="path25834" d="M120.53 471.246q0 .112-.31.112H119.516q-.534-.014-1.083-.014-.972 0-1.24.014-.267.014-.421.014-.338 0-.338-.126t.197-.126q.31 0 .661-.014.437-.014.465-.21.042-.21.042-.881v-6.575q0-.448-.028-.532-.028-.083-.197-.083-.07 0-.915.07-.169.013-.225.013-.17 0-.17-.097 0-.112.17-.126.661-.07 1.337-.392.676-.336 1.084-.783.155-.126.211-.126.113 0 .113.14v.265q-.014.112-.014.252v8.366q0 .503.042.587.056.084.352.098l.323.014.24.014h.21q.198 0 .198.126z" style="font-size:36.4174px;font-family:&quot;Bodoni 72&quot;;-inkscape-font-specification:&quot;Bodoni 72, &quot;;fill:#000;fill-opacity:1;stroke:#000;stroke-width:.2;stroke-dasharray:none"/></g><g id="g25842" transform="translate(-.54 10.534)"><ellipse id="ellipse25838" cx="152.862" cy="466.74" rx="9.002" ry="8.766" style="fill:#8dff80;fill-opacity:1;stroke:#000;stroke-width:.986833;stroke-dasharray:none;stroke-opacity:1"/><path id="path25840" d="M156.044 468.749q0 .042-.028.223-.07.462-.225 2.28l-.014.169q-1.45-.07-3.308-.07-1 0-1.873.028-.872.028-.76.028-.38 0-.38-.14 0-.112.732-.7 1.76-1.427 2.506-2.322 1.295-1.553 1.295-3.651 0-1.413-.591-2.14-.45-.56-1.267-.56-.803 0-1.267.49-.366.377-.366.755 0 .238.38.252.985.042.985.853 0 .77-.816.77-.521 0-.83-.322-.31-.322-.31-.882 0-1.035.732-1.664.732-.63 1.928-.63 1.197 0 1.985.756.915.88.915 2.294 0 1.553-1.042 2.868-1.041 1.3-3.505 2.84.93-.029 2.337-.029 1.168 0 1.478-.028.31-.042.549-.181.197-.126.338-.938.098-.56.281-.56.141 0 .141.21z" style="font-size:36.4174px;font-family:&quot;Bodoni 72&quot;;-inkscape-font-specification:&quot;Bodoni 72, &quot;;fill:#000;fill-opacity:1;stroke:#000;stroke-width:.2;stroke-dasharray:none;stroke-opacity:1"/></g><g id="g25848" transform="translate(0 10.534)"><ellipse id="ellipse25844" cx="179.883" cy="466.74" rx="9.002" ry="8.766" style="fill:#80edff;fill-opacity:1;stroke:#000;stroke-width:.986833;stroke-dasharray:none;stroke-opacity:1"/><path id="path25846" d="M183.273 468.956q0 1.161-.943 1.987-1.042.91-2.66.91-1.324 0-1.943-.616-.394-.392-.394-.896 0-.433.267-.685.282-.266.746-.266.366 0 .606.21t.24.531q0 .49-.663.77-.267.112-.267.224 0 .181.366.335.366.14.802.14 1.07 0 1.732-.727.675-.728.675-1.903 0-2.364-2.14-2.364-.21 0-.309.014h-.098q-.183 0-.183-.126 0-.098.338-.154.985-.14 1.52-.713.535-.588.535-1.497 0-.895-.465-1.427-.464-.545-1.253-.545-.577 0-1.013.251-.422.238-.422.56 0 .126.197.168.929.224.929.77 0 .713-.746.713-.479 0-.775-.28-.281-.28-.281-.742 0-.755.647-1.259.662-.517 1.83-.517 1.338 0 2.041.685.704.686.704 1.595 0 1.26-1.196 1.86-.423.21-1.366.35v.098q1.169.042 1.887.518 1.055.7 1.055 2.028z" style="font-size:36.4174px;font-family:&quot;Bodoni 72&quot;;-inkscape-font-specification:&quot;Bodoni 72, &quot;;fill:#000;stroke:#000;stroke-width:.2;stroke-dasharray:none"/></g><g id="g25854" transform="translate(-1.384 10.534)"><ellipse id="ellipse25850" cx="225.783" cy="466.74" rx="9.002" ry="8.766" style="fill:#80beff;fill-opacity:1;stroke:#000;stroke-width:.986833;stroke-dasharray:none;stroke-opacity:1"/><path id="path25852" d="M228.749 469.725q0 .14-.14.14-.128 0-.17-.154-.028-.168-.098-.881-.028-.112-.113-.168-.169-.098-.746-.098-.155 0-.296.014l.014 2.196q.07.168.226.21.169.042.802.042.31 0 .366.056.014.028.014.084 0 .098-.563.098t-3.153.028q-.14.014-.31.014-.281 0-.281-.14t.408-.126q.479.014.873-.056.169-.028.21-.14.043-.126.043-.532v-1.692q-.281-.014-.647-.014h-.578q-.197 0-.436.014h-.267l-1.788-.042q-.197-.014-.197-.112 0-.07 2.069-2.896.648-.91 2.858-4 .098-.14.197-.14.14 0 .14.265v6.575h.141q.479 0 .746-.056.282-.056.282-.28-.014-.881-.014-.601.014-.504.154-.504.198 0 .198.392v.63l.014 1.007q.014.517.028.657.014.126.014.21zm-2.83-6.24q-.14.225-.59.854-.62.853-1.873 2.546l-1 1.357q.521.042 2.239.042.605 0 1.14-.014v-.993q0-.7.042-1.889.042-1.399.042-1.902z" style="font-size:36.4174px;font-family:&quot;Bodoni 72&quot;;-inkscape-font-specification:&quot;Bodoni 72, &quot;;fill:#000;fill-opacity:1;stroke:#000;stroke-width:.2;stroke-dasharray:none;stroke-opacity:1"/></g><g id="g25860" transform="translate(0 10.534)"><ellipse id="ellipse25856" cx="242.439" cy="466.74" rx="9.002" ry="8.766" style="fill:#b580ff;fill-opacity:1;stroke:#000;stroke-width:.986833;stroke-dasharray:none;stroke-opacity:1"/><path id="path25858" d="M245.394 468.366q0 1.79-1.38 2.742-.83.573-2.153.573t-1.942-.685q-.338-.378-.338-.895 0-.434.281-.7.282-.28.732-.28.366 0 .606.21.253.21.253.518 0 .517-.69.783-.31.112-.31.252 0 .224.409.406.422.168.929.168.985 0 1.478-.672.675-.923.675-2.49 0-1.147-.534-1.777-.535-.63-1.52-.63-.76 0-1.676.574.085-3.147.127-3.973.014-.475.211-.573.197-.112 1.07-.112h.478q.338.014.535.014h.479q.971 0 1.126-.028.169-.042.211-.238.057-.322.197-.322.141 0 .141.154 0 .098-.014.154l-.028.322q-.07.783-.296.98-.21.181-1.055.181l-2.69-.014q-.055.476-.098 2.868.803-.364 1.676-.364 1.45 0 2.28.77.83.755.83 2.084z" style="font-size:36.4174px;font-family:&quot;Bodoni 72&quot;;-inkscape-font-specification:&quot;Bodoni 72, &quot;;fill:#000;stroke:#000;stroke-width:.2;stroke-dasharray:none"/></g><g id="g25866" transform="translate(-4.97 10.534)"><ellipse id="ellipse25862" cx="273.804" cy="466.74" rx="9.002" ry="8.766" style="fill:#ec80ff;fill-opacity:1;stroke:#000;stroke-width:.986833;stroke-dasharray:none;stroke-opacity:1"/><path id="path25864" d="M276.571 468.394q0 1.357-.83 2.322-.83.965-1.985.965-1.45 0-2.35-1.189-.901-1.189-.901-3.091 0-1.749.76-3.19.774-1.44 2.055-2.098 1.07-.546 2.337-.546.295 0 .295.112 0 .098-.197.112-1.267.112-2.238.91-1.267 1.035-1.492 3.525.774-.728 1.745-.728.789 0 1.478.42 1.323.797 1.323 2.476zm-1.45.042q0-2.602-1.618-2.602-.732 0-1.126.63-.394.615-.394 1.734 0 1.609.577 2.602.366.63 1.07.63 1.492 0 1.492-2.994z" style="font-size:36.4174px;font-family:&quot;Bodoni 72&quot;;-inkscape-font-specification:&quot;Bodoni 72, &quot;;fill:#000;fill-opacity:1;stroke:#000;stroke-width:.2;stroke-dasharray:none;stroke-opacity:1"/></g><g id="g30300" style="fill:#ffd9ff;fill-opacity:1;stroke-width:1.4102" transform="matrix(.50285 0 0 1 169.953 111.346)"><path id="path30298" d="M159.449 452.77v7.126h70.319v-7.127z" style="color:#000;fill:#ffd9ff;fill-opacity:1;stroke-width:1.4102;-inkscape-stroke:none"/></g><g id="g30306" style="fill:#d9ebff;fill-opacity:1;stroke-width:1.4102" transform="matrix(.50285 0 0 1 133.97 111.346)"><path id="path30302" d="M161.592 454.896h36.173" style="color:#000;fill:#d9ebff;fill-opacity:1;stroke-width:14.102;-inkscape-stroke:none"/><path id="path30304" d="M161.592 452.77v7.126h36.174v-7.127z" style="color:#000;fill:#d9ebff;fill-opacity:1;stroke-width:1.4102;-inkscape-stroke:none"/></g><g id="g30312" transform="translate(0 111.346)"><path id="path30308" d="M161.592 454.896h36.173" style="color:#000;fill:#80edff;stroke-width:10;-inkscape-stroke:none"/><path id="path30310" d="M161.592 452.77v7.126h36.174v-7.127z" style="color:#000;fill:#80edff;-inkscape-stroke:none"/></g><g id="g30318" transform="translate(0 111.346)"><path id="path30314" d="M107.459 454.896h21.781" style="color:#000;fill:#000;stroke-width:10;-inkscape-stroke:none"/><path id="path30316" d="M107.459 452.77v7.126h21.781v-7.127z" style="color:#000;fill:#fcff80;-inkscape-stroke:none"/></g><g id="g30324" style="fill:#ddffd9;fill-opacity:1" transform="translate(0 111.346)"><path id="path30320" d="M143.448 454.896h18.144" style="color:#000;fill:#ddffd9;fill-opacity:1;stroke-width:10;-inkscape-stroke:none"/><path id="path30322" d="M143.447 452.77v7.126h18.145v-7.127z" style="color:#000;fill:#ddffd9;fill-opacity:1;-inkscape-stroke:none"/></g><g id="g30330" style="fill:#80beff;fill-opacity:1;stroke-width:1.4102" transform="matrix(.50285 0 0 1 152.352 111.346)"><path id="path30326" d="M161.178 452.77v7.126h34.444v-7.127z" style="color:#000;fill:#b580ff;fill-opacity:1;stroke-width:1.4102;-inkscape-stroke:none"/><path id="path30328" d="M161.592 454.896h36.173" style="color:#000;fill:#80beff;fill-opacity:1;stroke-width:14.102;-inkscape-stroke:none"/></g><g id="g30336" transform="translate(-.135 115.176)"><ellipse id="ellipse30332" cx="118.462" cy="466.74" rx="9.002" ry="8.766" style="fill:#fcff80;fill-opacity:1;stroke:#000;stroke-width:.986833;stroke-dasharray:none;stroke-opacity:1"/><path id="path30334" d="M120.53 471.246q0 .112-.31.112H119.516q-.534-.014-1.083-.014-.972 0-1.24.014-.267.014-.421.014-.338 0-.338-.126t.197-.126q.31 0 .661-.014.437-.014.465-.21.042-.21.042-.881v-6.575q0-.448-.028-.532-.028-.083-.197-.083-.07 0-.915.07-.169.013-.225.013-.17 0-.17-.097 0-.112.17-.126.661-.07 1.337-.392.676-.336 1.084-.783.155-.126.211-.126.113 0 .113.14v.265q-.014.112-.014.252v8.366q0 .503.042.587.056.084.352.098l.323.014.24.014h.21q.198 0 .198.126z" style="font-size:36.4174px;font-family:&quot;Bodoni 72&quot;;-inkscape-font-specification:&quot;Bodoni 72, &quot;;fill:#000;fill-opacity:1;stroke:#000;stroke-width:.2;stroke-dasharray:none"/></g><ellipse id="ellipse30338" cx="152.323" cy="581.917" rx="9.002" ry="8.766" style="fill:#ddffd9;fill-opacity:1;stroke:gray;stroke-width:.986833;stroke-dasharray:none;stroke-opacity:1"/><path id="path30340" d="M155.504 583.925q0 .042-.028.224-.07.462-.225 2.28l-.014.168q-1.45-.07-3.308-.07-1 0-1.872.028-.873.028-.76.028-.38 0-.38-.14 0-.112.731-.7 1.76-1.426 2.506-2.322 1.295-1.552 1.295-3.65 0-1.414-.591-2.141-.45-.56-1.267-.56-.802 0-1.267.49-.366.378-.366.755 0 .238.38.252.985.042.985.854 0 .769-.816.769-.52 0-.83-.322-.31-.322-.31-.881 0-1.035.732-1.665.732-.63 1.928-.63 1.197 0 1.985.756.915.881.915 2.294 0 1.553-1.042 2.868-1.041 1.301-3.505 2.84.93-.028 2.337-.028 1.168 0 1.478-.028.31-.042.55-.182.196-.126.337-.937.098-.56.281-.56.141 0 .141.21z" style="font-size:36.4174px;font-family:&quot;Bodoni 72&quot;;-inkscape-font-specification:&quot;Bodoni 72, &quot;;fill:gray;fill-opacity:1;stroke:gray;stroke-width:.2;stroke-dasharray:none;stroke-opacity:1"/><g id="g30346" transform="translate(0 115.176)"><ellipse id="ellipse30342" cx="179.883" cy="466.74" rx="9.002" ry="8.766" style="fill:#80edff;fill-opacity:1;stroke:#000;stroke-width:.986833;stroke-dasharray:none;stroke-opacity:1"/><path id="path30344" d="M183.273 468.956q0 1.161-.943 1.987-1.042.91-2.66.91-1.324 0-1.943-.616-.394-.392-.394-.896 0-.433.267-.685.282-.266.746-.266.366 0 .606.21t.24.531q0 .49-.663.77-.267.112-.267.224 0 .181.366.335.366.14.802.14 1.07 0 1.732-.727.675-.728.675-1.903 0-2.364-2.14-2.364-.21 0-.309.014h-.098q-.183 0-.183-.126 0-.098.338-.154.985-.14 1.52-.713.535-.588.535-1.497 0-.895-.465-1.427-.464-.545-1.253-.545-.577 0-1.013.251-.422.238-.422.56 0 .126.197.168.929.224.929.77 0 .713-.746.713-.479 0-.775-.28-.281-.28-.281-.742 0-.755.647-1.259.662-.517 1.83-.517 1.338 0 2.041.685.704.686.704 1.595 0 1.26-1.196 1.86-.423.21-1.366.35v.098q1.169.042 1.887.518 1.055.7 1.055 2.028z" style="font-size:36.4174px;font-family:&quot;Bodoni 72&quot;;-inkscape-font-specification:&quot;Bodoni 72, &quot;;fill:#000;stroke:#000;stroke-width:.2;stroke-dasharray:none"/></g><ellipse id="ellipse30348" cx="224.398" cy="581.917" rx="9.002" ry="8.766" style="fill:#d9ebff;fill-opacity:1;stroke:gray;stroke-width:.986833;stroke-dasharray:none;stroke-opacity:1"/><path id="path30350" d="M227.364 584.901q0 .14-.14.14-.127 0-.17-.154-.027-.167-.098-.88-.028-.113-.112-.169-.17-.098-.746-.098-.155 0-.296.014l.014 2.197q.07.168.225.21.17.041.803.041.31 0 .366.056.014.028.014.084 0 .098-.563.098t-3.153.028q-.141.014-.31.014-.282 0-.282-.14t.409-.126q.478.014.872-.056.17-.028.211-.14.043-.125.043-.531v-1.693q-.282-.014-.648-.014h-.577q-.197 0-.436.014h-.268l-1.788-.042q-.197-.014-.197-.112 0-.07 2.07-2.895.647-.91 2.857-4.001.099-.14.197-.14.141 0 .141.266v6.574h.14q.48 0 .747-.055.281-.056.281-.28-.014-.882-.014-.602.014-.503.155-.503.197 0 .197.391v.63l.014 1.007q.014.518.028.658.014.125.014.21zm-2.829-6.239q-.14.224-.591.854-.62.853-1.872 2.546l-1 1.357q.521.042 2.238.042.606 0 1.14-.014v-.994q0-.7.043-1.888.042-1.4.042-1.903z" style="font-size:36.4174px;font-family:&quot;Bodoni 72&quot;;-inkscape-font-specification:&quot;Bodoni 72, &quot;;fill:gray;fill-opacity:1;stroke:gray;stroke-width:.2;stroke-dasharray:none;stroke-opacity:1"/><g id="g30356" transform="translate(0 115.176)"><ellipse id="ellipse30352" cx="242.439" cy="466.74" rx="9.002" ry="8.766" style="fill:#b580ff;fill-opacity:1;stroke:#000;stroke-width:.986833;stroke-dasharray:none;stroke-opacity:1"/><path id="path30354" d="M245.394 468.366q0 1.79-1.38 2.742-.83.573-2.153.573t-1.942-.685q-.338-.378-.338-.895 0-.434.281-.7.282-.28.732-.28.366 0 .606.21.253.21.253.518 0 .517-.69.783-.31.112-.31.252 0 .224.409.406.422.168.929.168.985 0 1.478-.672.675-.923.675-2.49 0-1.147-.534-1.777-.535-.63-1.52-.63-.76 0-1.676.574.085-3.147.127-3.973.014-.475.211-.573.197-.112 1.07-.112h.478q.338.014.535.014h.479q.971 0 1.126-.028.169-.042.211-.238.057-.322.197-.322.141 0 .141.154 0 .098-.014.154l-.028.322q-.07.783-.296.98-.21.181-1.055.181l-2.69-.014q-.055.476-.098 2.868.803-.364 1.676-.364 1.45 0 2.28.77.83.755.83 2.084z" style="font-size:36.4174px;font-family:&quot;Bodoni 72&quot;;-inkscape-font-specification:&quot;Bodoni 72, &quot;;fill:#000;stroke:#000;stroke-width:.2;stroke-dasharray:none"/></g><ellipse id="ellipse30358" cx="268.833" cy="581.917" rx="9.002" ry="8.766" style="fill:#ffd9ff;fill-opacity:1;stroke:gray;stroke-width:.986833;stroke-dasharray:none;stroke-opacity:1"/><path id="path30360" d="M271.6 583.57q0 1.357-.83 2.323-.83.965-1.984.965-1.45 0-2.351-1.19-.901-1.188-.901-3.09 0-1.75.76-3.19.774-1.441 2.055-2.099 1.07-.545 2.337-.545.295 0 .295.112 0 .097-.197.111-1.266.112-2.238.91-1.267 1.035-1.492 3.525.774-.727 1.746-.727.788 0 1.478.42 1.323.797 1.323 2.475zm-1.45.042q0-2.602-1.618-2.602-.732 0-1.126.63-.394.615-.394 1.735 0 1.608.577 2.602.366.63 1.07.63 1.492 0 1.492-2.995z" style="font-size:36.4174px;font-family:&quot;Bodoni 72&quot;;-inkscape-font-specification:&quot;Bodoni 72, &quot;;fill:gray;fill-opacity:1;stroke:gray;stroke-width:.2;stroke-dasharray:none;stroke-opacity:1"/><path id="path4659" d="M0 462h29.49m24.771 0H920" class="grid"/><g id="g25800" style="fill:#80beff;fill-opacity:1;stroke-width:1.4102" transform="matrix(.50285 0 0 1 169.953 6.704)"><path id="path25798" d="M160.619 452.77v5.772h70.528v-5.773z" style="color:#000;fill:#ec80ff;fill-opacity:1;stroke-width:1.4102;-inkscape-stroke:none"/></g><g id="g25830" style="fill:#80beff;fill-opacity:1;stroke-width:1.4102" transform="matrix(.50285 0 0 1 152.352 6.704)"><path id="path25826" d="M161.178 452.77v5.772h34.444v-5.773z" style="color:#000;fill:#b580ff;fill-opacity:1;stroke-width:1.4102;-inkscape-stroke:none"/></g><g id="g25806" style="fill:#80beff;fill-opacity:1;stroke-width:1.4102" transform="matrix(.50285 0 0 1 133.97 6.704)"><path id="path25802" d="M161.592 454.896h36.173" style="color:#000;fill:#80beff;fill-opacity:1;stroke-width:14.102;-inkscape-stroke:none"/><path id="path25804" d="M161.592 452.77v5.772h36.174v-5.773z" style="color:#000;fill:#80beff;fill-opacity:1;stroke-width:1.4102;-inkscape-stroke:none"/></g><g id="g25812" transform="translate(0 6.704)"><path id="path25808" d="M161.592 454.896h36.173" style="color:#000;fill:#80edff;stroke-width:10;-inkscape-stroke:none"/><path id="path25810" d="M161.592 452.77v5.772h36.174v-5.773z" style="color:#000;fill:#80edff;-inkscape-stroke:none"/></g><g id="g25818" transform="translate(0 6.704)"><path id="path25814" d="M107.459 454.896h21.781" style="color:#000;fill:#000;stroke-width:10;-inkscape-stroke:none"/><path id="path25816" d="M107.459 452.77v5.772h21.781v-5.773z" style="color:#000;fill:#fcff80;-inkscape-stroke:none"/></g><g id="g25824" transform="translate(0 6.704)"><path id="path25820" d="M143.448 454.896h18.144" style="color:#000;fill:#8dff80;stroke-width:10;-inkscape-stroke:none"/><path id="path25822" d="M143.447 452.77v5.772h18.145v-5.773z" style="color:#000;fill:#8dff80;-inkscape-stroke:none"/></g></g><g id="layer1"><g id="g178788" style="stroke-width:.745637;stroke-dasharray:none" transform="matrix(1.3267 0 0 1.35573 -868.447 -273.37)"><path id="path178784" d="M109.497 214.722c.681-.17 1.262-.175 1.902-.024.497.117.678.154 1.136.438.72.446 1.265 1.19 1.674 2.02.107.217.206.439.27.657.267.926.337 2.171-.084 3.043a2.16 2.16 0 0 1-.392.535c-.45.475-.577.564-1.158.852-.99.491-2.07.586-3.12.39-.253-.048-.496-.148-.744-.244-.827-.318-1.614-.924-2.026-1.874-.084-.194-.136-.409-.186-.609a3.199 3.199 0 0 1-.103-.657c-.034-.973.343-1.979.847-2.726.137-.202.284-.371.455-.56.16-.177.314-.333.496-.486.542-.456 1.219-.773 1.901-.73a1.8 1.8 0 0 1 .31.048" style="display:inline;fill:none;stroke:#fdfdfd;stroke-width:.745637;stroke-dasharray:none;stroke-opacity:1"/><path id="path178786" d="M109.497 214.722c.681-.17 1.262-.175 1.902-.024.497.117.678.154 1.136.438.72.446 1.265 1.19 1.674 2.02.107.217.206.439.27.657.267.926.337 2.171-.084 3.043a2.16 2.16 0 0 1-.392.535c-.45.475-.577.564-1.158.852-.99.491-2.07.586-3.12.39-.253-.048-.496-.148-.744-.244-.827-.318-1.614-.924-2.026-1.874-.084-.194-.136-.409-.186-.609a3.199 3.199 0 0 1-.103-.657c-.034-.973.343-1.979.847-2.726.137-.202.284-.371.455-.56.16-.177.314-.333.496-.486.542-.456 1.219-.773 1.901-.73a1.8 1.8 0 0 1 .31.048" style="display:inline;fill:none;stroke:#000;stroke-width:.745637;stroke-dasharray:none;stroke-opacity:1"/></g><g id="g178794" style="stroke-width:1.04458;stroke-dasharray:none" transform="matrix(.9739 0 0 .94104 -828.223 -181.1)"><path id="path178792" d="M116.525 221.683c.222-.056.476-.08.646.081.23.219.32.294.09.544a.939.939 0 0 1-.708.292c-.247-.002-.707-.043-.748-.406-.056-.503.372-.56.806-.706" style="display:inline;fill:none;stroke:#000;stroke-width:1.04458;stroke-dasharray:none;stroke-opacity:1"/></g><g id="g178808" style="stroke-width:.777407;stroke-dasharray:none" transform="matrix(1.23671 0 0 1.33793 -858.784 -269.657)"><g id="g178800" style="display:inline;stroke:#fdfdfd;stroke-width:8.2059;stroke-dasharray:none;stroke-opacity:1" transform="matrix(.0938 .00875 -.0086 .09488 -98.603 251.414)"><path id="path178796" d="M2323.396-596.126c-6.2.517-12.14 1.292-18.34 2.067-13.432 1.808-26.606 4.39-39.78 7.232l-2.358.473" style="fill:#000;stroke:#fdfdfd;stroke-width:8.2059;stroke-dasharray:none;stroke-opacity:1"/></g><g id="g178806" style="display:inline;stroke-width:8.2059;stroke-dasharray:none" transform="matrix(.0938 .00875 -.0086 .09488 -98.603 251.414)"><path id="path178802" d="M2323.396-596.126c-6.2.517-12.14 1.292-18.34 2.067-13.432 1.808-26.606 4.39-39.78 7.232l-2.358.473" style="fill:#000;stroke:#000;stroke-width:8.2059;stroke-dasharray:none;stroke-opacity:1"/><path id="path178804" d="M2265.183-521.459c2.98 2.36 8.174 4.502 11.687 5.6 3.229 1.009 6.514 1.26 9.588 1.617 15.744 1.834 29.777-2.134 41.777-10.491 2.472-1.722 4.37-4.047 6.268-6.299 2.895-3.435 4.423-7.881 4.262-11.203-.351-7.224-3.14-10.53-8.411-14.53-2.226-1.688-5.249-3.78-7.795-4.945-5.004-2.29-12.297-4.094-18.807-3.822-8.231.344-20.826 1.556-29.448 7.233-1.988 1.31-3.134 3.007-5.682 4.908-.255.258-.518.775-.775 1.033-.518.517.243-3.126.517-5.683 1.082-10.069 3.113-25.686 4.405-35.76l.063-1.474" style="fill:none;stroke:#000;stroke-width:8.2059;stroke-dasharray:none;stroke-opacity:1"/></g></g><g id="g178814" style="stroke-width:.650978;stroke-dasharray:none" transform="matrix(1.61907 0 0 1.45748 -908.612 -296.032)"><path id="path178810" d="M126.343 222.107c.144.049.312.122.457.17.505.146.89.22 1.396.292.697.098 1.395.17 2.07.122.288-.049.529-.049.745-.219.385-.268.265-.706.097-1.047-.217-.34-.265-.438-.554-.73-.481-.462-1.083-.803-1.637-1.168-.168-.122-.385-.268-.505-.463-.192-.316-.05-.752.242-.9.191-.095.522-.179.62-.193.461-.067 1.225.022 1.755.192" style="display:inline;fill:none;stroke:#fdfdfd;stroke-width:.650978;stroke-dasharray:none;stroke-opacity:1"/><path id="path178812" d="M126.343 222.107c.144.049.312.122.457.17.505.146.89.22 1.396.292.697.098 1.395.17 2.07.122.288-.049.529-.049.745-.219.385-.268.265-.706.097-1.047-.217-.34-.265-.438-.554-.73-.481-.462-1.083-.803-1.637-1.168-.168-.122-.385-.268-.505-.463-.192-.316-.05-.752.242-.9.191-.095.522-.179.62-.193.461-.067 1.225.022 1.755.192" style="display:inline;fill:none;stroke:#000;stroke-width:.650978;stroke-dasharray:none;stroke-opacity:1"/></g><path id="path85082-6" d="M-742.059 21.469c.844-.664 1.742-1.397 2.845-1.53.718-.094 1.378.335 1.804.882.737.826 1.331 1.857 2.354 2.366.58.292 1.275.101 1.747-.309 1.093-.832 1.79-2.058 2.421-3.251" style="display:inline;fill:none;stroke:#000;stroke-width:1;stroke-linecap:butt;stroke-linejoin:round;stroke-miterlimit:2;stroke-dasharray:none;stroke-opacity:1"/><path id="path85084-1" d="M-742.059 26.092c1.084-.764 2.162-1.68 3.511-1.898a2.185 2.185 0 0 1 1.916.626c.854.784 1.35 1.946 2.4 2.51.543.301 1.232.131 1.643-.308.66-.687.906-1.655 1.223-2.525" style="display:inline;fill:none;stroke:#000;stroke-width:1;stroke-linecap:butt;stroke-linejoin:round;stroke-miterlimit:2;stroke-dasharray:none;stroke-opacity:1"/><path id="path370663" d="m197.656 459.895.114-221.897" style="fill:none;fill-opacity:1;stroke:#000;stroke-width:1.5;stroke-dasharray:1.5,2.25;stroke-dashoffset:0;stroke-opacity:1"/><path id="path370667" d="m286.08 459.896.21-222.85" style="fill:none;fill-opacity:1;stroke:#000;stroke-width:1.5;stroke-dasharray:1.5,2.25;stroke-dashoffset:0;stroke-opacity:1"/><path id="path375277" d="m250.684 459.891.116-23.374" style="fill:none;fill-opacity:1;stroke:#000;stroke-width:1.5;stroke-linejoin:round;stroke-dasharray:1.5,2.25;stroke-dashoffset:0;stroke-opacity:1"/><path id="path375281" d="m233.4 459.896.116-26.135" style="fill:none;fill-opacity:1;stroke:#000;stroke-width:1.5;stroke-linejoin:round;stroke-dasharray:1.5,2.25;stroke-dashoffset:0;stroke-opacity:1"/><path id="path924" d="m143.41 459.896-.17-36.397" style="fill:none;fill-opacity:1;stroke:#000;stroke-width:1.5;stroke-linejoin:round;stroke-dasharray:1.5,2.25;stroke-dashoffset:0;stroke-opacity:1"/><path id="path1083" d="m161.63 459.896.02-34.117" style="fill:none;fill-opacity:1;stroke:#000;stroke-width:1.5;stroke-linejoin:round;stroke-dasharray:1.5,2.25;stroke-dashoffset:0;stroke-opacity:1"/><path id="path1412" d="m107.512 459.896-.053-35.29" style="fill:none;fill-opacity:1;stroke:#000;stroke-width:1.5;stroke-linejoin:round;stroke-dasharray:1.5,2.25;stroke-dashoffset:0;stroke-opacity:1"/><path id="path1414" d="m129.336 459.896-.038-29.16" style="fill:none;fill-opacity:1;stroke:#000;stroke-width:1.5;stroke-linejoin:round;stroke-dasharray:1.5,2.25;stroke-dashoffset:0;stroke-opacity:1"/><path id="path20351" d="M215.18 459.897 215.293 238" style="fill:none;fill-opacity:1;stroke:#000;stroke-width:1.5;stroke-dasharray:1.5,2.25;stroke-dashoffset:0;stroke-opacity:1"/></g></svg>