<svg xmlns="http://www.w3.org/2000/svg" xmlns:xlink="http://www.w3.org/1999/xlink" width="328.153" height="43.071" aria-hidden="true" viewBox="0 -18.033 328.153 43.071"><defs><path id="a" stroke-width="1" d="m304-161-12-16C134-87 48 82 48 252c0 185 87 329 247 424l9-16C165 541 134 448 134 255c0-186 30-299 170-416Z"/><path id="b" stroke-width="1" d="m305 288 45 69c26 40 61 84 111 84 32 0 49-12 49-33 0-19-13-42-39-42-22 0-27 9-44 9-30 0-41-16-55-38l-55-85c30-62 53-197 98-197 16 0 40 14 61 57l14-10C478 87 433-9 375-9c-41 0-60 41-73 77l-40 113-63-98C167 34 138-9 82-9 46-9 30 16 30 38c0 16 13 37 38 37 26 0 22-20 47-20 12 0 38 10 70 59l65 101-33 92c-17 48-43 89-98 89-13 0-28-2-38-6l-3 18 132 33c44-24 63-65 75-98z"/><path id="c" stroke-width="1" d="M856 258v-10c-96-41-172-115-238-191l-20 19c23 33 52 65 82 96 9 9 14 20 14 28 0 10-8 20-26 20H70v66h599c10 0 26 12 26 22 0 9-4 15-14 25-29 28-60 63-82 96l20 19c65-75 141-150 237-190Z"/><path id="d" stroke-width="1" d="m270 307 28-235c61 83 96 143 118 184 20 37 28 57 28 75 0 21-52 31-52 69 0 22 18 40 47 40 32 0 57-23 57-62 0-78-162-318-204-371-73-92-138-190-206-190-37 0-56 31-56 55 0 30 27 41 40 41 43 0 41-31 57-31 17 0 74 62 100 102l-38 314c-5 45-14 105-70 105-11 0-27-3-36-4l-2 16 150 25c23-33 30-59 39-133z"/><path id="e" stroke-width="1" d="m61 510-16 4c29 95 92 162 196 162 93 0 156-55 156-137 0-48-26-98-93-138 44-19 62-31 83-53 28-31 44-77 44-129 0-53-17-102-46-140-48-64-143-93-232-93C80-14 41 7 41 43c0 21 18 36 41 36 17 0 33-6 61-26 37-26 58-31 86-31 74 0 130 68 130 153 0 76-35 125-104 145-22 7-45 10-102 10v14c38 13 64 24 84 36 49 28 81 73 81 134 0 68-42 102-108 102-62 0-108-32-149-106z"/><path id="f" stroke-width="1" d="m29 660 12 16c153-92 244-259 244-429 0-185-88-327-247-424l-9 16C171-44 199 50 199 244c0 187-25 302-170 416Z"/><path id="g" stroke-width="1" d="m446 684 2-16c-157-26-269-134-296-285 49 38 83 45 127 45 117 0 189-80 189-209 0-64-18-120-51-160-37-46-93-73-159-73-79 0-142 37-177 101-28 51-47 122-47 192 0 108 38 203 109 276 86 90 165 114 303 129zm-68-496c0 128-42 194-135 194-57 0-116-24-116-116 0-152 48-252 142-252 72 0 109 72 109 174z"/><path id="h" stroke-width="1" d="M637 320H48v66h589zm0-200H48v66h589z"/><path id="i" stroke-width="1" d="M474 137 420 0H29v12l178 189c94 99 130 175 130 260 0 91-54 141-139 141-72 0-107-32-147-130l-21 5c21 117 85 199 208 199 113 0 185-77 185-176 0-79-39-154-128-248L130 76h234c42 0 63 11 96 67z"/><path id="j" stroke-width="1" d="M394 0H118v15c74 4 95 25 95 80v449c0 34-9 49-30 49-10 0-27-5-45-12l-27-10v14l179 91 9-3V76c0-43 20-61 95-61z"/></defs><rect width="11.89" height="14.102" x="5.463" y="-11.662" ry="4.36" style="fill:#faa;stroke:none;stroke-width:.600001;stroke-linejoin:round;stroke-miterlimit:2"/><rect width="11.89" height="14.102" x="123.245" y="-11.777" ry="4.36" style="fill:#faa;stroke:none;stroke-width:.600001;stroke-linejoin:round;stroke-miterlimit:2"/><path d="M8.64.92c1.725 2.834 1.664 5.855 1.293 8.768-.294 4.876 5.576 6.401 9.389 6.182 4.582-1.308 9.741-2.19 12.982 2.2 4.979 3.285 11.484 3.093 17.093 1.922 4.798-1.514 9.993-2.128 14.971-1.38 4.79 1.504 10.118.569 14.765-1.037 4.5-1.555 9.38-2.343 14.067-1.83 5.655.62 10.713 3.644 16.406 4.225 4.246.434 8.656.672 12.805-.397 2.221-.572 4.035-2.605 4.665-3.445 2.26-3.013 3.54-6.053 4.731-10.402.41-1.494.168-3.069.18-4.005-1.344-.033-3.136.097-4.675.164.069 2.176-.109 3.715-.706 5.359-.645 1.775-1.33 3.79-2.576 5.344-.992 1.237-2.445 2.6-3.864 2.938-5.8 1.379-10.979.485-16.575-1.494-5.519-1.951-11.283-3.153-17.233-2.557-5.44.545-10.253 3.28-15.717 3.328-5.058-.098-10.06-1.75-15.223-.64-4.998.525-9.804 2.962-14.93 1.985-5.047.517-7.517-4.826-11.95-5.797-4.68-.988-9.404 2.646-13.872.134-.969-2.23.778-6.641-1.542-9.404C11.949.9 10.107 1.006 8.639.92z" style="fill:#faa;stroke-width:.6;stroke-linejoin:round;stroke-miterlimit:2"/><circle cx="26.565" cy="16.562" r=".021" style="fill:#faa;stroke:#000"/><circle cx="49.272" cy="16.118" r=".03" style="fill:#faa;stroke:#000"/><g transform="scale(.01904 -.01904)"><use xlink:href="#a"/><use xlink:href="#b" x="333"/><use xlink:href="#c" x="1161"/><use xlink:href="#d" x="2366"/><use xlink:href="#c" x="3140"/><g transform="translate(4344)"><use xlink:href="#b"/><use xlink:href="#e" x="778" y="583" transform="scale(.707)"/></g><use xlink:href="#d" x="5349"/><use xlink:href="#f" x="5845"/><use xlink:href="#a" x="6179"/><use xlink:href="#g" x="6512"/><use xlink:href="#f" x="7013"/><use xlink:href="#h" x="7624"/><use xlink:href="#d" x="8587"/><use xlink:href="#c" x="9361"/><g transform="translate(10566)"><use xlink:href="#g"/><use xlink:href="#e" x="707" y="583" transform="scale(.707)"/></g><use xlink:href="#d" x="11520"/><use xlink:href="#h" x="12294"/><use xlink:href="#d" x="13258"/><use xlink:href="#c" x="14032"/><g transform="translate(15236)"><use xlink:href="#i"/><use xlink:href="#j" x="500"/><use xlink:href="#g" x="1001"/></g><use xlink:href="#d" x="16738"/></g></svg>