<svg xmlns="http://www.w3.org/2000/svg" width="500" height="300"><path fill="#d37c91" d="M-501.406 707.658c-53.638-12.113-117.423-5.765-144.769 1.718-174.596 47.763-325.09 195.507-283.075 397.034 96.01 276.937 457.342 283.422 631.533 89.334 36.42-47.41 68.506-109.271 64.937-206.921-3.07-83.982-62.419-178.938-162.884-230.755" style="clip-rule:evenodd;display:inline;fill:#e5f6ff;fill-opacity:1;fill-rule:nonzero;stroke:none;stroke-width:1.09606;stroke-linecap:round;stroke-linejoin:round;stroke-miterlimit:4;stroke-dasharray:none;stroke-opacity:1" transform="translate(38.443 46.267)"/><path d="M313.224-365.282c-1.087-3.194-4.113-5.677-7.195-7.635-5.814-3.694-13.379-5.184-20.599-5.003-8.496.214-17.232 2.835-21.808 9.898-1.978 3.053-2.853 6.229-1.778 9.566 1.293 4.017 3.58 7.59 7.075 10.397 2.978 2.392 6.457 4.624 10.345 5.797 7.048 2.126 14.344 2.481 20.894.668 5.333-1.476 9.985-4.17 12.26-8.645 1.79-3.52 2.24-7.56.863-11.144-.204-.532-.503-1.04-.844-1.521M742.504 156.321c-.75-1.32-3.08-3.042-4.158-3.665-1.573-.911-3.398-1.178-5.126-1.279-2.272-.133-4.813.44-6.645 1.326-1.21.585-2.4 1.45-3.49 2.425-.592.53-.78.751-1.313 1.376-.874 1.027-1.606 2.317-1.928 3.907a8.591 8.591 0 0 0-.125.84c-.118 1.154-.03 2.345.338 3.4.259.739.502 1.135.88 1.769 1.133 1.897 2.639 3.142 4.263 3.97.404.206.815.373 1.228.542 2.202.902 4.511 1.267 6.8 1.26.45 0 .9-.04 1.351-.058 1.663-.158 3.314-.565 4.89-1.367.897-.458 1.087-.636 1.926-1.232 1.231-.972 2.372-2.244 3.059-4.059.108-.285.187-.592.281-.889.411-1.684.33-3.148-.037-4.816-.287-1.159-1.196-3.069-1.255-3.178-.182-.332-.571-.863-.746-1.017" style="display:inline;fill:#fff9f3;fill-opacity:1;stroke:#000;stroke-width:.999999;stroke-linecap:butt;stroke-linejoin:miter;stroke-miterlimit:6;stroke-dasharray:none;stroke-dashoffset:0;stroke-opacity:1" transform="translate(38.443 46.267)"/><path d="M249.186 37.004c1.602-1.926 2.359-9.652-1.24-16.262-8.95-16.444-35.805-32.534-71.868-31.668-22.858.548-45.413 7.33-57.972 18.018-8.001 6.81-13.467 14.778-13.082 23.4.157 3.526 2.678 8.039 5.427 6.322 1.317-2.456-8.405-5.338-14.623-5.183-9.097.228-18.642 2.395-25.916 6.503-10.504 5.933-25.15 18.238-33.525 37.425-8.698 19.925-10.216 43.903-3.717 66.062 7.417 25.29 25.234 38.84 44.187 44.08 9.787 2.704 28.025 1.078 22.492-2.961-5.87 2.524-5.076 7.627-4.204 11.151 2.393 9.675 11.378 17.859 23.13 22.971 37.257 16.206 93.343 14.076 123.6-8.21 9.328-6.87 15.616-14.953 12.94-23.239-1.06-3.285-5.606-5.566-7.54-5.139 1.876 1.619 4.847 2.844 9.393 2.632 15.13-.706 28.596-4.02 40.528-13.205 14.9-11.472 25.032-30.783 25.33-51.83.358-25.197-10.254-47.888-21.876-60.324-18.781-20.096-41.148-27.49-54.288-22.587" style="display:inline;fill:#fff9f3;fill-opacity:1;stroke:#000;stroke-width:.999999;stroke-linejoin:round;stroke-miterlimit:2;stroke-dasharray:none" transform="translate(43.112 41.287)"/><path d="M-135.088-245.925c.848-3.046.498-9.411-2.86-14.725-9.835-15.565-37.102-29.326-72.203-25.543-22.249 2.398-40.813 10.837-52.337 22.445-7.341 7.395-11.139 16.193-10.182 24.705.39 3.479 2.263 4.796 4.863 5.111 1.15-1.88-6.923-5.414-14.987-4.793-8.91.687-18.216 3.74-25.28 8.062-10.2 6.24-23.598 17.55-32.297 35.685-8.733 18.203-10.42 47.025-1.732 65.486 9.57 20.333 25.827 30.571 42.88 34.534 9.534 2.216 27.623 2.385 21.97-2.38-5.715 2.669-4.868 7.717-3.965 11.195 2.476 9.548 11.382 17.44 22.953 22.207 36.683 15.112 91.535 11.51 120.834-11.432 9.032-7.073 15.073-15.27 12.34-23.43-1.084-3.236-5.564-5.38-7.497-4.906 1.834 1.558 4.79 2.697 9.285 2.365 14.957-1.105 28.232-4.755 39.907-14.199 14.58-11.792 24.33-31.247 24.33-52.163 0-25.04-10.816-47.3-22.488-59.344-18.862-19.464-43.566-25.149-59.217-20.349" style="display:inline;fill:#fff9f3;fill-opacity:1;stroke:#000;stroke-width:.9;stroke-linejoin:round;stroke-miterlimit:2;stroke-dasharray:none" transform="translate(43.112 41.287)"/><path d="M-395.774 139.405c-8.247-.246-18.754 3.173-25.555 12.06-6.043 7.895-8.067 20.067-4.48 30.647 4.442 13.1 15.3 25.645 24.612 31.334 13.134 8.025 27.989 9.507 38.605 9.676 7.81.124 17.205-2.239 22.329-8.724.594-.752 2.177-2.55.976-3.383" style="display:inline;fill:none;fill-opacity:1;stroke:#000;stroke-width:.717245;stroke-linejoin:round;stroke-miterlimit:2" transform="translate(43.112 41.287)"/><path d="M-361.962 41.446c2.356-.45 1.517-3.865-.391-6.772-3.017-4.595-11.314-8.643-17.885-10.184-11.72-2.747-27.227-2.367-42.506 6.038-13.278 7.303-24.052 20.103-28.041 34.93-4.67 17.359-.075 34.702 12.857 44.74 5.256 4.08 17.277 6.575 17.3 3.123" style="display:inline;fill:none;fill-opacity:1;stroke:#000;stroke-width:.772056;stroke-linejoin:round;stroke-miterlimit:2" transform="translate(43.112 41.287)"/><path d="M148.026-501.251c22.341-30.135-133.63-54.725-110.732-2.058-33.146-42.016-111.73 56.536-55.152 67.637-49.779 55.644 15.292 100.599 33.957 81.89 20.536 50.783 122.376 41.857 127.674 4.294 34.465 42.7 107.146-.514 80.81-28.884 39.927-2.182 37.646-104.228-7.004-91.858 16.27-59.585-76.164-74.916-69.553-31.021z" style="fill:#fff9f3;fill-opacity:1;stroke:#000;stroke-width:.999999;stroke-linejoin:round;stroke-miterlimit:2;stroke-dasharray:none" transform="translate(43.112 41.287)"/><g style="stroke-width:.9619"><g style="display:inline;stroke-width:4.64012"><path d="M-323.62-1187.44c.73 8.028.606 16.104.757 24.155.094 4.965.373 14.34.515 19.302.3 11.124.047 16.682.133 27.81.062 2.753.19 1.486-6.615 2.746.592-7.767.704-10.824.073-28.392-.028-.777-.535-18.559-.552-19.333-.175-7.92-.095-15.864-.804-23.763z" style="fill:#000;fill-opacity:1;stroke:none;stroke-width:.464012;stroke-miterlimit:4;stroke-dasharray:none;stroke-opacity:1" transform="matrix(.22779 -.03177 .03174 .22756 646.438 1063.115)"/><path d="M1084.867 194.701c-14.834.277-29.666.673-44.47 1.697l-3.807 5.829c14.732-1.37 29.529-1.737 44.314-1.989a227.22 227.22 0 0 0 8.813-.29l4.256-5.544c-3.218.278-6.44.27-9.106.297z" style="fill:#000;fill-opacity:1;stroke:none;stroke-width:.464012;stroke-miterlimit:4;stroke-dasharray:none;stroke-opacity:1" transform="matrix(.22779 -.03177 .03174 .22756 293.735 807.006)"/></g><g style="display:inline;stroke-width:4.64012"><path d="M848.102 133.527c-4.793.026-9.585.061-14.377.098-15.18.125-30.362.655-45.54.428l-4.2 5.556c8.862.503 17.752-.015 26.617-.195 6.935-.14 12.397-.158 19.283-.205 4.755-.026 9.509-.023 14.263.018l3.954-5.7z" style="fill:#000;fill-opacity:1;stroke:none;stroke-width:.464012;stroke-miterlimit:4;stroke-dasharray:none;stroke-opacity:1" transform="matrix(.22779 -.03177 .03174 .22756 366.29 796.604)"/><path d="m818.717 134.57-6.635 2.157c-.77 16.007-.269 32.043-.08 48.06.027 6.69.19 13.383.111 20.074l6.633-2.162c-.112-6.679-.22-13.357-.309-20.037.044-16.773-.535-33.778.28-48.092z" style="fill:#000;fill-opacity:1;stroke:none;stroke-width:.464012;stroke-miterlimit:4;stroke-dasharray:none;stroke-opacity:1" transform="matrix(.22779 -.03177 .03174 .22756 366.29 796.604)"/><path d="M848.05 193.611c-20.966.396-41.96.905-62.855 2.787l-3.806 5.829c20.813-2.315 41.789-2.79 62.713-3.102 3.212.007 6.428-.077 9.64.023l4.229-5.556c-3.012.03-7.057-.024-9.92.02z" style="fill:#000;fill-opacity:1;stroke:none;stroke-width:.464012;stroke-miterlimit:4;stroke-dasharray:none;stroke-opacity:1" transform="matrix(.22779 -.03177 .03174 .22756 366.29 796.604)"/></g><g style="display:inline;stroke-width:4.64012"><path d="m1214.164 131.135-6.445 2.672c-.01 3.135.022 4.327-.211 7.982-.41 6.432-1.03 12.848-1.444 19.28-.832 12.915-.642 10.204-.998 22.923-.106 11.132-.108 6.008-.039 15.375l6.502-2.144c-.136-9.276-.105-4.197-.04-15.237.359-12.276.183-10.332 1.038-22.81.57-8.312 1.67-16.659 1.76-24.998.01-1.062-.085-2.136-.123-3.043z" style="fill:#000;fill-opacity:1;stroke:none;stroke-width:.464012;stroke-miterlimit:4;stroke-dasharray:none;stroke-opacity:1" transform="matrix(.22779 -.03177 .03174 .22756 288.931 808.512)"/><path d="m1212.342 130.229-5.643 4.1c.519.568 1.073 1.106 1.555 1.706 1.302 1.62 4.435 6.122 5.346 7.453 4.667 6.824 9.105 13.803 13.6 20.74 6.85 10.795 14.567 21 21.624 31.653 3.094 4.629 4.195 7.626 10.494 1.996-.871-2.01-3.056-4.002-4.607-5.6-7.106-10.608-14.862-20.768-21.717-31.548-4.49-6.976-8.927-13.993-13.566-20.872-.899-1.332-4.208-6.157-5.465-7.773-.504-.648-1.08-1.237-1.621-1.855z" style="fill:#000;fill-opacity:1;stroke:none;stroke-width:.464012;stroke-miterlimit:4;stroke-dasharray:none;stroke-opacity:1" transform="matrix(.22779 -.03177 .03174 .22756 288.931 808.512)"/><path d="m1259.334 135.809-6.758 1.71c-.87 12.436-.691 24.93-.719 37.39.156 7.205.251 14.41.9 21.593.211 2.328.36 4.904 1.136 7.148l6.296-3.015c-.648-1.905-.8-4.561-.976-6.45-.663-7.104-.759-14.237-.898-21.367.04-12.33-.185-24.728 1.019-37.01z" style="fill:#000;fill-opacity:1;stroke:none;stroke-width:.464012;stroke-miterlimit:4;stroke-dasharray:none;stroke-opacity:1" transform="matrix(.22779 -.03177 .03174 .22756 288.931 808.512)"/></g><g style="display:inline;stroke-width:4.64012"><path d="M4235.299 339.107c-.163 13.958-.081 27.907.368 41.857.25 6.723.458 13.447.656 20.171l-6.57 2.2c-.101-6.73-.295-13.458-.53-20.185-.447-13.965-.553-27.927-.522-41.899l6.598-2.144z" style="opacity:1;fill:#000;fill-opacity:1;stroke:#000;stroke-width:1.07809;stroke-linecap:butt;stroke-linejoin:miter;stroke-miterlimit:4;stroke-dasharray:none;stroke-dashoffset:0;stroke-opacity:1" transform="matrix(.22779 -.03177 .0311 .223 -388.977 857.135)"/><path d="M4227.97 335.143c17.345-.435 31.27-1.03 48.617-1.294 3.763-.052 2.217-.033 4.637-.06l-4.095 5.637c-2.36-.026-.844-.014-4.549-.01-17.374.123-31.323.762-48.687 1.34zM4230.78 365.377c11.459-1.438 22.991-3.273 34.574-3.215 1.423.007 2.84.176 4.26.263l1.975.522-4.566 5.245-1.579-.273c-12.881-.54-25.707 1.526-38.433 3.27l3.77-5.812zM4228.654 396.491c.769.061 1.536.165 2.307.184 6.446.16 12.912-.447 19.334-.867 9.568-.625 5.15-.83 14.488-1.376 5.244.368 10.861-1.604 16.03-.11l-4.558 5.277c-5.098-.518-10.234.442-15.331.413-11.775.686-2.276.59-14.473 1.393-6.562.432-13.211 1.102-19.798.71-.85-.051-1.688-.214-2.532-.321z" style="opacity:1;fill:#000;fill-opacity:1;stroke:#000;stroke-width:1.07809;stroke-linecap:butt;stroke-linejoin:miter;stroke-miterlimit:4;stroke-dasharray:none;stroke-dashoffset:0;stroke-opacity:1" transform="matrix(.22779 -.03177 .0311 .223 -388.977 857.135)"/></g><g style="stroke-width:4.64012"><path d="m-1150.728-3344.783-6.89.892c-9.238 19.857-17.391 40.187-26.047 60.295-1.434 3.378-2.848 6.762-5.15 9.639l6.937-.506c1.943-3.24 3.533-6.66 4.933-10.172 8.471-20.163 16.626-40.478 26.217-60.148z" style="fill:#000;fill-opacity:1;stroke:none;stroke-width:.464012;stroke-miterlimit:4;stroke-dasharray:none;stroke-opacity:1" transform="matrix(.22779 -.03177 .03174 .22756 975.141 1517.394)"/><path d="m-1148.706-3347.871-6.23 3.137c5.058 13.81 8.467 28.166 12.161 42.384 2.786 11.723 5.173 23.579 9.647 34.803l6.172-3.12c-4.553-11.058-6.838-22.825-9.647-34.407-3.709-14.347-7.163-28.812-12.103-42.797z" style="fill:#000;fill-opacity:1;stroke:none;stroke-width:.464012;stroke-miterlimit:4;stroke-dasharray:none;stroke-opacity:1" transform="matrix(.22779 -.03177 .03174 .22756 975.141 1517.394)"/><path d="M-1164.642-3309.588c-1.677-.01-3.352 0-5.025.041-7.499.168-1.547.209-7.5.467-.675.03-1.35-.01-2.026-.01l-4.101 5.644c.68 0 1.363.01 2.043-.012 8.89-.28-3.644-.016 7.66-.423 6.659-.24 13.339-.03 19.998.06 7.242.2 14.491.09 21.732.289 2.39.065 5.254.057 7.643.632 1.283-2.028 2.445-3.288 3.57-5.617-1.171-.281-6.752-.528-7.164-.539-7.243-.199-14.499 0-21.742-.252-5.02-.084-10.058-.261-15.088-.28z" style="fill:#000;fill-opacity:1;stroke:none;stroke-width:.464012;stroke-miterlimit:4;stroke-dasharray:none;stroke-opacity:1" transform="matrix(.22779 -.03177 .03174 .22756 975.141 1517.394)"/></g><g style="display:inline;stroke-width:4.64012"><path d="M171.657-1067.442c-.085 12.226-.145 22.65.087 34.876.226 8.686-.015 12.66.456 21.338.235 4.341.518 8.552 1.309 12.82l.26.658-6.245 3.11-.441-1.15c-.803-4.404-1.089-8.732-1.32-13.21-.448-8.706-.21-12.707-.441-21.42-.271-12.222-.236-22.643-.3-34.866l6.636-2.156z" style="fill:#000;fill-opacity:1;stroke:none;stroke-width:.464012;stroke-miterlimit:4;stroke-dasharray:none;stroke-opacity:1" transform="matrix(.22779 -.03177 .03174 .22756 612.968 1040.631)"/><path d="M156.626-1071.688c12.906-2.103 26.282-2.14 38.97 1.337 2.615.717 5.216 1.548 7.68 2.68 1.99.913 3.942 2.002 5.609 3.423 4.674 3.986 5.084 9.04 1.236 13.838-3.877 4.835-11.75 8.538-16.553 10.939-6.528 3.263-13.654 5.022-20.646 7.03-2.962.85-7.919 2.676-8.803 2.295-.785-.338-1.12-3.87-.605-4.748.958-1.639 6.863-3.497 7.637-3.443 4.315 2.352 9.48 5.04 13.594 7.653 7.473 4.75 6.793 4.426 14.584 9.467 7.043 4.557 14.055 9.164 20.896 14.02 2.081 1.476 4.68 3.03 6.28 5.126l-6.101 3.973c-1.704-1.883-2.777-2.62-5.417-4.711-6.784-4.877-13.766-9.469-20.793-13.988-6.76-4.349-7.903-5.141-14.421-9.365-5.04-3.265-6.236-3.859-9.36-5.77-.905-1.5-1.234-3.251-.721-4.695 9.283-2.772 18.71-5.341 27.793-9.918 5.073-2.556 10.094-5.954 8.852-9.835-1.089-3.402-4.961-5.063-7.749-6.357-2.358-1.096-4.883-1.817-7.401-2.465-12.445-3.204-25.57-2.977-38.114-.527z" style="fill:#000;fill-opacity:1;stroke:none;stroke-width:.464012;stroke-miterlimit:4;stroke-dasharray:none;stroke-opacity:1" transform="matrix(.22779 -.03177 .03174 .22756 612.968 1040.631)"/></g></g><path d="M720.597 59.161c.236-.179.47-.362.71-.535 1.655-1.19 3.283-2.34 4.974-3.48 3.384-2.28 1.679-1.224 5.228-3.682 6.272-4.344 11.913-8.41 18.221-12.702 6.868-4.672 13.686-9.418 20.41-14.295 3.618-2.623 6.446-4.518 10.003-7.225l-.034-.223c-3.726 2.815-6.83 4.943-10.064 7.29-6.723 4.877-13.54 9.622-20.408 14.294-6.309 4.291-11.95 8.358-18.222 12.7-3.528 2.444-1.862 1.414-5.227 3.681a206.12 206.12 0 0 0-4.981 3.48c-.243.175-.407.302-.646.481z" style="fill:red;stroke:red;stroke-width:.366962;stroke-linecap:square;stroke-miterlimit:4;stroke-dasharray:none" transform="translate(43.112 41.287)"/><g style="stroke-width:.94359"><path d="M104.48 89.704c-.013-.007-.025-.016-.04-.02a.474.474 0 0 0-.285-.01.783.783 0 0 0-.28.163c-.103.101-.137.129-.186.255a.566.566 0 0 0-.027.3c.01.048.026.096.052.14a.65.65 0 0 0 .11.131c.156.15.407.228.667.215a.735.735 0 0 0 .18-.033.752.752 0 0 0 .158-.075c.063-.037.071-.053.097-.08l.17-.01c-.13.12-.318.236-.508.286a.83.83 0 0 1-.196.025c-.277.002-.538-.082-.706-.245a.745.745 0 0 1-.12-.143.508.508 0 0 1-.059-.15.655.655 0 0 1 .017-.325.974.974 0 0 1 .418-.463.933.933 0 0 1 .3-.111.577.577 0 0 1 .366.05z" style="display:inline;fill:#000;fill-opacity:1;stroke:#000;stroke-width:.0647303;stroke-miterlimit:4;stroke-dasharray:none;stroke-opacity:1" transform="matrix(4.00535 0 0 4.0056 150.308 464.385)"/><path d="M91.284 91.8c.011-.089-.04-.167-.146-.194-.027-.007-.055-.008-.082-.011a.73.73 0 0 0-.352.07c.002-.053-.106.03-.015.016-.014.016-.031.03-.043.048-.062.096.008.185.097.244.036.024.078.043.117.065.264.13.552.165.778.298.04.023.077.044.106.076.044.05.074.088.068.163-.004.06-.048.121-.107.16-.206.132-.2.118-.405.172a1.684 1.684 0 0 1-.585.012c-.082-.013-.195-.038-.246-.099a.147.147 0 0 1-.03-.086c-.002-.028.012-.056.018-.083l.164-.045a.198.198 0 0 0-.03.06c-.004.02-.007.042.005.058.04.052.156.073.218.082a1.563 1.563 0 0 0 .685-.06c.008 0 .002.029.01.026a.479.479 0 0 0 .11-.059c.1-.092.043-.156-.007-.21-.027-.03-.062-.049-.098-.07-.209-.124-.519-.166-.778-.297-.042-.024-.087-.045-.127-.073-.107-.074-.187-.184-.131-.304a.202.202 0 0 1 .04-.062.873.873 0 0 1 .54-.219c.035 0 .07.003.104.005.032.007.065.01.095.02.123.04.195.135.188.242z" style="fill:#000;fill-opacity:1;stroke:#000;stroke-width:.0647303;stroke-miterlimit:4;stroke-dasharray:none;stroke-opacity:1" transform="matrix(4.00535 0 0 4.0056 150.308 464.385)"/><g style="stroke:#000;stroke-width:2.93995;stroke-miterlimit:4;stroke-dasharray:none;stroke-opacity:1"><path d="M12.915-3340.53c-.039 16.703.36 33.402.63 50.102.085 5.742.161 11.485.239 17.227l-6.562 1.976c-.004-6.009-.022-12.108-.09-17.25-.23-16.637-.691-33.272-.748-49.91l6.531-2.145z" style="fill:#000;fill-opacity:1;stroke:#000;stroke-width:2.93995;stroke-miterlimit:4;stroke-dasharray:none;stroke-opacity:1" transform="matrix(.0981 -.0138 .01099 .07773 554.775 1090.42)"/><path d="M-.715-3343.513c9.919-2.411 20.526-1.955 30.392.581 3.14.807 6.152 2.045 9.229 3.067 2.782 1.463 5.711 2.674 8.346 4.388 6.112 3.978 11.976 9.941 13.928 17.227 1.088 4.058.276 8.108-.988 11.39-.749 1.942-2.189 3.6-3.706 5.025-1.79 1.68-4.095 3.3-6.26 4.46-3.372 1.808-7.425 3.75-12.782 5.186-4.138 1.109-10.132 2.11-16.571 2.364a28.243 28.243 0 0 1-5.818-.4c-1.766-.301-3.93-1.065-5.421-1.99l5.152-4.615c2.85.85 1.187.756 4.338 1.14 5.137.591 9.048.092 13.15-.341 2.85-.301 5.75-.852 8.383-1.485.958-.23 3.667-1.233 4.578-1.61 4.97-2.053 5.912-2.98 8.213-6.42 1.896-2.833 2.466-5.845 1.636-9.575-1.498-6.739-7.211-12.202-12.783-15.73-2.535-1.605-5.35-2.718-8.024-4.077-2.982-.934-5.905-2.08-8.945-2.8-9.58-2.271-19.922-2.542-29.387.333z" style="fill:#000;fill-opacity:1;stroke:#000;stroke-width:2.93995;stroke-miterlimit:4;stroke-dasharray:none;stroke-opacity:1" transform="matrix(.0981 -.0138 .01099 .07773 554.775 1090.42)"/></g><g style="display:inline;stroke:#000;stroke-width:2.9699;stroke-miterlimit:4;stroke-dasharray:none;stroke-opacity:1"><path d="M4235.299 339.107c-.163 13.958-.081 27.907.368 41.857.25 6.723.458 13.447.656 20.171l-6.57 2.2c-.101-6.73-.295-13.458-.53-20.185-.447-13.965-.553-27.927-.522-41.899l6.598-2.144z" style="opacity:1;fill:#000;fill-opacity:1;stroke:#000;stroke-width:2.9699;stroke-linecap:butt;stroke-linejoin:miter;stroke-miterlimit:4;stroke-dasharray:none;stroke-dashoffset:0;stroke-opacity:1" transform="matrix(.0981 -.0138 .01077 .07617 106.463 862.718)"/><path d="M4224.548 334.863c17.345-.435 34.691-.75 52.039-1.014 3.763-.052 2.217-.033 4.637-.06l-4.095 5.637c-2.36-.026-.844-.014-4.549-.01-17.374.123-34.745.482-52.11 1.06l4.078-5.613zM4230.78 365.377c11.459-1.438 22.991-3.273 34.574-3.215 1.423.007 2.84.176 4.26.263l1.975.522-4.566 5.245-1.579-.273c-12.881-.54-25.707 1.526-38.433 3.27l3.77-5.812zM4225.231 396.212c.77.06 1.537.164 2.308.183 6.446.16 12.912-.447 19.333-.866 9.569-.626 8.573-.552 17.91-1.097 5.245.368 10.862-1.604 16.032-.11l-4.559 5.277c-5.098-.518-10.234.442-15.331.413-11.775.686-5.698.31-17.895 1.113-6.563.432-13.212 1.102-19.798.71-.85-.05-1.688-.214-2.532-.321l4.532-5.302z" style="opacity:1;fill:#000;fill-opacity:1;stroke:#000;stroke-width:2.9699;stroke-linecap:butt;stroke-linejoin:miter;stroke-miterlimit:4;stroke-dasharray:none;stroke-dashoffset:0;stroke-opacity:1" transform="matrix(.0981 -.0138 .01077 .07617 106.463 862.718)"/></g><path d="M96.051 90.935c-.013-.007-.026-.016-.04-.02a.474.474 0 0 0-.286-.01.782.782 0 0 0-.279.163c-.104.102-.137.129-.187.255a.565.565 0 0 0-.027.3c.01.049.026.097.052.14a.65.65 0 0 0 .11.131c.157.151.408.228.667.215a.736.736 0 0 0 .18-.033.753.753 0 0 0 .158-.075c.063-.037.071-.053.097-.08l.17-.01c-.13.12-.318.236-.507.286a.83.83 0 0 1-.197.025c-.277.002-.538-.081-.705-.244a.748.748 0 0 1-.12-.143.508.508 0 0 1-.06-.152.657.657 0 0 1 .018-.323.974.974 0 0 1 .418-.463.932.932 0 0 1 .3-.112.577.577 0 0 1 .365.051z" style="display:inline;fill:#000;fill-opacity:1;stroke:#000;stroke-width:.0647303;stroke-miterlimit:4;stroke-dasharray:none;stroke-opacity:1" transform="matrix(4.00535 0 0 4.0056 150.308 464.385)"/><g style="display:inline;stroke:#000;stroke-width:2.93995;stroke-miterlimit:4;stroke-dasharray:none;stroke-opacity:1"><path d="M-583.614-3479.832c13.714-2.376 27.658-3.669 41.575-3.96 3.474-.073 6.95.015 10.424.023 10.458.583 5.67.185 14.376 1.076l-4.251 5.381c-12.63-1.095-5.055-.542-14.091-.998-3.437.01-6.875-.065-10.31.026-13.911.37-27.799 1.846-41.492 4.311l3.769-5.859z" style="fill:#000;fill-opacity:1;stroke:#000;stroke-width:2.93995;stroke-miterlimit:4;stroke-dasharray:none;stroke-opacity:1" transform="matrix(.0981 -.0138 .01099 .07773 633.05 1090.416)"/><path d="M-549.128-3478.462c.211 1.281.519 2.55.635 3.844 1.19 13.244-.481 26.564-1.72 39.732-.182 2.089-.971 10.879-1.123 13.547a58.59 58.59 0 0 0-.082 3.57c.002.5.003.82.103 1.498-2.343 1.164-4.242 2.343-5.679 3.626-.36-.42-.63-.912-.872-1.276-.293-.878-.058-5.465-.055-5.51.106-1.753 1.098-12.706 1.178-13.602 1.34-14.066 3.26-28.351 1.33-42.448z" style="fill:#000;fill-opacity:1;stroke:#000;stroke-width:2.93995;stroke-miterlimit:4;stroke-dasharray:none;stroke-opacity:1" transform="matrix(.0981 -.0138 .01099 .07773 633.05 1090.416)"/><path d="M-581.286-3421.947c11.158-.668 22.335-.966 33.509-1.198 10.288-.213 15.215-.4 25.286.048 3.068.137 6.127.442 9.19.663 3.012.453 6.938.832 9.973 1.874.572.196 1.059.585 1.588.877l-5.068 4.776c-3.532-1.415-7.418-1.665-10.631-2.159-3.015-.212-6.026-.507-9.045-.635-9.662-.408-15.317-.233-25.158 0-11.175.262-22.356.612-33.505 1.46 1.345-1.988 2.711-4.004 3.86-5.706z" style="fill:#000;fill-opacity:1;stroke:#000;stroke-width:2.93995;stroke-miterlimit:4;stroke-dasharray:none;stroke-opacity:1" transform="matrix(.0981 -.0138 .01099 .07773 633.05 1090.416)"/></g><g style="stroke:#000;stroke-width:2.93995;stroke-miterlimit:4;stroke-dasharray:none;stroke-opacity:1"><path d="m-1150.728-3344.783-6.89.892c-9.238 19.857-17.391 40.187-26.047 60.295-1.434 3.378-2.848 6.762-5.15 9.639l6.937-.506c1.943-3.24 3.533-6.66 4.933-10.172 8.471-20.163 16.626-40.478 26.217-60.148z" style="fill:#000;fill-opacity:1;stroke:#000;stroke-width:2.93995;stroke-miterlimit:4;stroke-dasharray:none;stroke-opacity:1" transform="matrix(.0981 -.0138 .01099 .07773 699.518 1069.84)"/><path d="m-1148.706-3347.871-6.23 3.137c5.058 13.81 8.467 28.166 12.161 42.384 2.786 11.723 5.173 23.579 9.647 34.803l6.172-3.12c-4.553-11.058-6.838-22.825-9.647-34.407-3.709-14.347-7.163-28.812-12.103-42.797z" style="fill:#000;fill-opacity:1;stroke:#000;stroke-width:2.93995;stroke-miterlimit:4;stroke-dasharray:none;stroke-opacity:1" transform="matrix(.0981 -.0138 .01099 .07773 699.518 1069.84)"/><path d="M-1164.642-3309.588c-1.677-.01-3.352 0-5.025.041-7.499.168-1.547.209-7.5.467-.675.03-1.35-.01-2.026-.01l-4.101 5.644c.68 0 1.363.01 2.043-.012 8.89-.28-3.644-.016 7.66-.423 6.659-.24 13.339-.03 19.998.06 7.242.2 14.491.09 21.732.289 2.39.065 5.254.057 7.643.632 1.283-2.028 2.445-3.288 3.57-5.617-1.171-.281-6.752-.528-7.164-.539-7.243-.199-14.499 0-21.742-.252-5.02-.084-10.058-.261-15.088-.28z" style="fill:#000;fill-opacity:1;stroke:#000;stroke-width:2.93995;stroke-miterlimit:4;stroke-dasharray:none;stroke-opacity:1" transform="matrix(.0981 -.0138 .01099 .07773 699.518 1069.84)"/></g><g style="display:inline;stroke:#000;stroke-width:2.93995;stroke-miterlimit:4;stroke-dasharray:none;stroke-opacity:1"><path d="M-323.62-1187.44c.73 8.028.606 16.104.757 24.155.094 4.965.373 14.34.515 19.302.3 11.124.047 16.682.133 27.81.062 2.753.19 1.486-6.615 2.746.592-7.767.704-10.824.073-28.392-.028-.777-.535-18.559-.552-19.333-.175-7.92-.095-15.864-.804-23.763z" style="fill:#000;fill-opacity:1;stroke:#000;stroke-width:2.93995;stroke-miterlimit:4;stroke-dasharray:none;stroke-opacity:1" transform="matrix(.0981 -.0138 .01099 .07773 598.702 912.816)"/><path d="M1084.867 194.701c-14.834.277-29.666.673-44.47 1.697l-3.807 5.829c14.732-1.37 29.529-1.737 44.314-1.989a227.22 227.22 0 0 0 8.813-.29l4.256-5.544c-3.218.278-6.44.27-9.106.297z" style="fill:#000;fill-opacity:1;stroke:#000;stroke-width:2.93995;stroke-miterlimit:4;stroke-dasharray:none;stroke-opacity:1" transform="matrix(.0981 -.0138 .01099 .07773 450.321 829.366)"/></g><g style="display:inline;stroke:#000;stroke-width:3.06336;stroke-miterlimit:4;stroke-dasharray:none;stroke-opacity:1"><path d="M4523.862 338.493c-.448.934-.86 1.887-1.345 2.803-2.9 5.475-6.36 10.685-9.721 15.878-14.808 22.87 5.14-8.169-10.626 16.407-6.08 9.93-11.95 19.996-17.318 30.33l-6.875.838c5.481-10.385 11.406-20.531 17.472-30.584 12.25-19.235-1.003 1.504 10.568-16.402 3.297-5.104 6.693-10.23 9.636-15.554.479-.867.884-1.773 1.326-2.66l6.883-1.056z" style="opacity:1;fill:#000;fill-opacity:1;stroke:#000;stroke-width:3.06336;stroke-linecap:butt;stroke-linejoin:miter;stroke-miterlimit:4;stroke-dasharray:none;stroke-dashoffset:0;stroke-opacity:1" transform="matrix(.09221 -.01298 .01077 .07617 153.79 855.553)"/><path d="M4520.973 332.783c.777.924 1.613 1.801 2.33 2.773 4.581 6.224 8.26 13.122 12.004 19.856 5.36 9.643 5.544 10.049 10.84 19.831 3.928 7.952 8.383 15.635 12.369 23.554l-6.098 3.298c-3.77-7.983-8.245-15.626-12.123-23.557-5.28-9.74-5.477-10.187-10.855-19.77-3.68-6.555-7.298-13.31-11.854-19.324-.686-.907-1.495-1.714-2.243-2.57l5.63-4.091z" style="opacity:1;fill:#000;fill-opacity:1;stroke:#000;stroke-width:3.06336;stroke-linecap:butt;stroke-linejoin:miter;stroke-miterlimit:4;stroke-dasharray:none;stroke-dashoffset:0;stroke-opacity:1" transform="matrix(.09221 -.01298 .01077 .07617 153.79 855.553)"/><path d="M4498.655 373.575c13.382-.838 26.793-.67 40.185-.254 4.087.285 8.215.155 12.29.627l-4.325 5.478c-4.006-.333-8.025-.469-12.039-.64-13.31-.407-26.666-.562-39.947.592l3.836-5.803z" style="opacity:1;fill:#000;fill-opacity:1;stroke:#000;stroke-width:3.06336;stroke-linecap:butt;stroke-linejoin:miter;stroke-miterlimit:4;stroke-dasharray:none;stroke-dashoffset:0;stroke-opacity:1" transform="matrix(.09221 -.01298 .01077 .07617 153.79 855.553)"/></g><path d="M107.831 89.35c-.028-.064-.09-.11-.188-.107a.536.536 0 0 0-.201.051.543.543 0 0 0-.106.058c-.027.019-.051.047-.064.061-.031.034-.056.076-.037.115a.094.094 0 0 0 .044.043c.251.123.57.175.814.306.055.03.103.057.146.097.088.08.166.19.11.312-.045.1-.199.179-.321.213a2.735 2.735 0 0 1-.3.049 1.492 1.492 0 0 1-.481-.025.915.915 0 0 1-.254-.087.117.117 0 0 1-.046-.05c-.005-.015-.01-.039.001-.054l.146-.047a.04.04 0 0 0-.008.022c.002.013.015.025.028.034a.874.874 0 0 0 .24.079c.186.04.35.023.458.014.066-.005.195-.028.238-.042.063-.02.113-.037.136-.067.078-.098-.009-.202-.077-.265a.669.669 0 0 0-.14-.091c-.17-.094-.38-.136-.565-.204-.05-.018-.102-.035-.15-.056-.04-.017-.08-.033-.114-.056a.188.188 0 0 1-.062-.065c-.091-.176.266-.348.436-.41a.477.477 0 0 1 .236-.04.266.266 0 0 1 .233.143z" style="display:inline;fill:#000;fill-opacity:1;stroke:#000;stroke-width:.0647303;stroke-miterlimit:4;stroke-dasharray:none;stroke-opacity:1" transform="matrix(4.00535 0 0 4.0056 150.308 464.385)"/><g style="stroke:#000;stroke-width:2.93995;stroke-miterlimit:4;stroke-dasharray:none;stroke-opacity:1"><path d="M-874.779-3340.203c1.887 12.563 2.329 25.297 2.746 37.978.193 7.707.296 15.417.223 23.126l-6.638 2.091c.237-8.02.088-16.167-.022-23.034-.389-12.547-.81-25.159-2.782-37.574l6.474-2.587z" style="fill:#000;fill-opacity:1;stroke:#000;stroke-width:2.93995;stroke-miterlimit:4;stroke-dasharray:none;stroke-opacity:1" transform="matrix(.0981 -.0138 .0043 .07867 685.73 1071.961)"/><path d="M-882.76-3341.975c16.285-1.59 32.603-2.763 48.942-3.621l5.05-.222-3.951 5.629-4.992.188c-16.32.809-32.622 1.983-48.856 3.855zM-869.946-3312.536a728.189 728.189 0 0 1 30.799-1.79l-3.899 5.55c-10.736.554-21.633 1.139-30.792 1.99zM-878.468-3280.873c16.792 1.16 33.616.223 50.405-.469 4.745-.247 9.498-.362 14.24-.676l-3.996 5.721c-4.93.131-9.928.367-14.145.507-16.853.64-33.719 1.418-50.58.527z" style="fill:#000;fill-opacity:1;stroke:#000;stroke-width:2.93995;stroke-miterlimit:4;stroke-dasharray:none;stroke-opacity:1" transform="matrix(.0981 -.0138 .0043 .07867 685.73 1071.961)"/></g><path d="M112.618 88.457c-.094.035-.31.18-.359.228-.07.07-.138.16-.183.241a.863.863 0 0 0-.063.14.643.643 0 0 0-.032.145c-.012.133.025.268.153.355.11.075.248.1.346.12.07.012.144.018.218.018.219 0 .45-.065.612-.194a.37.37 0 0 0 .134-.19.553.553 0 0 0-.211-.602 1.062 1.062 0 0 0-.368-.194 1.005 1.005 0 0 0-.505-.032c-.02.004-.033.01-.049.017.022-.042.046-.082.066-.124a.577.577 0 0 1 .071-.013 1.225 1.225 0 0 1 .918.26c.16.125.257.297.26.483a.497.497 0 0 1-.128.34c-.193.201-.399.304-.665.347a1.323 1.323 0 0 1-.462-.006.945.945 0 0 1-.372-.143.428.428 0 0 1-.178-.393.683.683 0 0 1 .03-.152 1.117 1.117 0 0 1 .337-.496 2.26 2.26 0 0 1 .351-.223z" style="fill:#000;fill-opacity:1;stroke:#000;stroke-width:.0647303;stroke-miterlimit:4;stroke-dasharray:none;stroke-opacity:1" transform="matrix(4.00535 0 0 4.0056 150.308 464.385)"/><g style="display:inline;stroke:#000;stroke-width:2.93995;stroke-miterlimit:4;stroke-dasharray:none;stroke-opacity:1"><path d="M-803.218-3485.62c1.283 14.362-.31 28.833-1.139 43.184-.26 11.467-.917 23.107.61 34.525l-6.49 2.481c-1.289-12.161-.787-24.6-.56-35.073.782-14.156 2.309-28.426 1.086-42.592z" style="fill:#000;fill-opacity:1;stroke:#000;stroke-width:2.93995;stroke-miterlimit:4;stroke-dasharray:none;stroke-opacity:1" transform="matrix(.0981 -.0138 .01099 .07773 723.7 1077.84)"/><path d="M-813.491-3485.367c19.398-2.56 38.837-4.674 58.379-5.698l-3.888 5.584c-20.204 1.027-40.694 3.183-57.735 6.272zM-809.797-3452.794c12.667-2.134 25.543-2.352 38.356-2.142l3.326.13-4.155 5.535-3.249-.128c-12.758-.202-25.53.25-38.138 2.388z" style="fill:#000;fill-opacity:1;stroke:#000;stroke-width:2.93995;stroke-miterlimit:4;stroke-dasharray:none;stroke-opacity:1" transform="matrix(.0981 -.0138 .01099 .07773 723.7 1077.84)"/></g><g style="display:inline;stroke:#000;stroke-width:2.93995;stroke-miterlimit:4;stroke-dasharray:none;stroke-opacity:1"><path d="M-1138.412-1186.01c-.67 1.71-1.309 3.431-2.008 5.128-2.538 6.155-7.863 18.509-10.293 24.182-4.456 10.402-8.856 20.82-13.531 31.126l-3.145 7.036c-3.671.01-4.778.887-7.957 1.342 11.73-22.258 22.005-47.573 30.094-67.606z" style="fill:#000;fill-opacity:1;stroke:#000;stroke-width:2.93995;stroke-miterlimit:4;stroke-dasharray:none;stroke-opacity:1" transform="matrix(.0981 -.0138 .01099 .07773 747.306 892.085)"/><path d="M-1138.64-1185.5c3.462 10.994 6.664 22.077 10.832 32.837 1.275 3.291 2.692 6.526 4.038 9.79 3.425 7.847 6.892 15.696 11.425 22.978l-5.825 3.766c-4.453-7.933-8.404-16.287-11.471-23.433-1.368-3.296-2.803-6.564-4.102-9.887-4.16-10.643-7.48-21.584-10.889-32.482z" style="fill:#000;fill-opacity:1;stroke:#000;stroke-width:2.93995;stroke-miterlimit:4;stroke-dasharray:none;stroke-opacity:1" transform="matrix(.0981 -.0138 .01099 .07773 747.306 892.085)"/><path d="M-1165.294-1143.88c14.148-1.302 28.378-1.298 42.565-2.032 4.66-.31 2.653-.144 6.023-.452l-4.143 5.753c-5.297.299-1.7.105-6.034.326-14.09.624-28.268.535-42.262 2.334z" style="fill:#000;fill-opacity:1;stroke:#000;stroke-width:2.93995;stroke-miterlimit:4;stroke-dasharray:none;stroke-opacity:1" transform="matrix(.0981 -.0138 .01099 .07773 747.306 892.085)"/></g><g style="display:inline;stroke:#000;stroke-width:2.93995;stroke-miterlimit:4;stroke-dasharray:none;stroke-opacity:1"><path d="M-786.539-1184.282c.92 3.715 1.574 6.036 2.122 10.054 1.803 13.206 2.248 24.98 2.811 38.278.321 7.594.613 15.396.36 24.436-2.377 1.028-4.891 1.752-7.21 2.911.202-9.542.481-15.837.188-23.564-.5-13.153-.668-26.405-2.487-39.463-.538-3.861-1.176-6.112-2.068-9.671z" style="fill:#000;fill-opacity:1;stroke:#000;stroke-width:2.93995;stroke-miterlimit:4;stroke-dasharray:none;stroke-opacity:1" transform="matrix(.0981 -.0138 .01099 .07773 717.433 896.09)"/><path d="M600.273 132.594c-13.043.073-26.087.65-39.078 1.804l-3.181 6.204c17.216-1.897 33.952-2.78 51.261-2.446l5.293.29 4.157-5.471c-1.804-.097-3.607-.192-5.41-.29a517.426 517.426 0 0 0-13.042-.091zM614.727 166.443c-14.41-.053-28.873.164-43.192 1.895l-3.642 5.95c14.121-2.234 28.499-2.402 42.77-2.28z" style="fill:#000;fill-opacity:1;stroke:#000;stroke-width:2.93995;stroke-miterlimit:4;stroke-dasharray:none;stroke-opacity:1" transform="matrix(.0981 -.0138 .01099 .07773 569.053 812.64)"/></g><g style="stroke:#000;stroke-width:2.93995;stroke-miterlimit:4;stroke-dasharray:none;stroke-opacity:1"><path d="M-800.93-3339.499c2.495 19.316 4.294 38.711 6.355 58.076l.321 2.767-6.497 2.415-.263-2.802c-1.806-19.297-3.621-38.605-6.315-57.802z" style="fill:#000;fill-opacity:1;stroke:#000;stroke-width:2.93995;stroke-miterlimit:4;stroke-dasharray:none;stroke-opacity:1" transform="matrix(.0981 -.0138 .01099 .07773 747.678 1063.425)"/><path d="M-805.18-3340.436c1.399-.285 2.786-.637 4.197-.857 13.736-2.146 27.762-2.417 41.633-2.752l5.234.164-4.103 5.516-5.087-.124c-15.192.357-30.567.709-45.456 4.017zM-798.848-3311.152c12.598-1.955 25.384-2.45 38.112-2.86 1.021-.02 2.043-.038 3.064-.057l-4.034 5.63-3.006.042c-12.703.373-25.428 1.035-37.995 3.028l3.859-5.783z" style="fill:#000;fill-opacity:1;stroke:#000;stroke-width:2.93995;stroke-miterlimit:4;stroke-dasharray:none;stroke-opacity:1" transform="matrix(.0981 -.0138 .01099 .07773 747.678 1063.425)"/></g><path d="M121.753 87.28c.322-.07.647-.127.972-.182l.625-.11c.033-.006.134-.026.18-.026.008 0 .015.004.023.006l-.098.11c-.025.01.008-.001-.067.01l-.113.019-.624.108c-.323.056-.648.112-.967.19l.07-.125z" style="fill:#000;fill-opacity:1;stroke:#000;stroke-width:.0647303;stroke-linecap:butt;stroke-linejoin:miter;stroke-miterlimit:4;stroke-dasharray:none;stroke-dashoffset:0;stroke-opacity:1" transform="matrix(4.00535 0 0 4.0056 150.308 464.385)"/><path d="M122.611 87.183c.023.187.075.369.114.553.054.228.09.458.155.684l-.153.068c-.061-.227-.1-.459-.153-.687-.04-.185-.093-.367-.12-.554l.157-.064z" style="fill:#000;fill-opacity:1;stroke:#000;stroke-width:.0647303;stroke-linecap:butt;stroke-linejoin:miter;stroke-miterlimit:4;stroke-dasharray:none;stroke-dashoffset:0;stroke-opacity:1" transform="matrix(4.00535 0 0 4.0056 150.308 464.385)"/><path d="M121.712 88.436c.26-.035.52-.072.779-.108.39-.06.783-.104 1.176-.15.027.013.083-.02.115-.006.014.006.02.018.03.028l-.152.07c.009.006.028.009.027.018-.004.028-.152-.064-.107.01a28.44 28.44 0 0 0-1.172.148l-.782.111.086-.121z" style="fill:#000;fill-opacity:1;stroke:#000;stroke-width:.0647303;stroke-linecap:butt;stroke-linejoin:miter;stroke-miterlimit:4;stroke-dasharray:none;stroke-dashoffset:0;stroke-opacity:1" transform="matrix(4.00535 0 0 4.0056 150.308 464.385)"/><g style="display:inline;stroke:#000;stroke-width:2.93995;stroke-miterlimit:4;stroke-dasharray:none;stroke-opacity:1"><path d="m-160.435-3483.844-6.472 2.586c1.601 13.42 2.3 26.896 2.736 40.397.21 10.115.24 20.247 1.076 30.334l6.47-2.348c-.868-10.027-.944-20.1-1.146-30.158-.442-13.634-1.123-27.25-2.664-40.81z" style="fill:#000;fill-opacity:1;stroke:#000;stroke-width:2.93995;stroke-miterlimit:4;stroke-dasharray:none;stroke-opacity:1" transform="matrix(.0981 -.0138 .01099 .07773 701.012 1080.783)"/><path d="M-163.45-3485.08c.566.767 1.07 1.584 1.697 2.303 4.585 5.262 9.423 10.061 14.382 14.988 8.92 8.861 18.098 17.455 27.16 26.17 6.16 5.927 11.798 12.345 17.364 18.82 1.024 1.337 2.639 3.021 3.257 3.486-1.69 1.12-5.174 4.13-6.149 3.64-3.613-3.07-4.67-8.208-5.298-11.73-.26-2.519-.636-5.028-.78-7.556-.42-7.39-.235-14.394.007-21.795.25-7.648.63-15.28 1.425-22.89 1.114-3.908.868-5.288 6.644-7.033.865-.261 1.347 1.205 2.02 1.808-1.164 1.036-1.78 2.087-2.033 3.404-.96 7.536-1.364 15.1-1.638 22.693-.262 7.228-.452 14.216-.034 21.438.142 2.461.52 4.904.78 7.356.45 2.696.56 5.745 2.349 7.988.728.913 2.32 2.082 2.223 2.246-1.18 1.994-3.386 3.164-4.977 4.848-1.106-1.425-2.339-2.718-3.464-4.057-5.432-6.467-11.018-12.805-17.093-18.683-9.062-8.742-18.238-17.363-27.195-26.214-3.515-3.474-11.275-11.114-14.807-15.248-.87-1.02-1.522-2.207-2.283-3.31l6.444-2.672z" style="fill:#000;fill-opacity:1;stroke:#000;stroke-width:2.93995;stroke-miterlimit:4;stroke-dasharray:none;stroke-opacity:1" transform="matrix(.0981 -.0138 .01099 .07773 701.012 1080.783)"/></g><g style="display:inline;stroke:#000;stroke-width:2.93995;stroke-miterlimit:4;stroke-dasharray:none;stroke-opacity:1"><path d="M-882.894-3483.851c14.934-1.802 34.826-2.26 49.848-2.716 5.095.138 2.957-.097 6.44.422l-4.364 5.413c-5.41-.377-1.238-.17-6.024-.267-14.952.404-34.799.868-49.616 3.046z" style="fill:#000;fill-opacity:1;stroke:#000;stroke-width:2.93995;stroke-miterlimit:4;stroke-dasharray:none;stroke-opacity:1" transform="matrix(.0981 -.0138 .01537 .07711 794.381 1067.836)"/><path d="M-876.475-3480.11c.053 2.146.195 4.293.157 6.44-.071 4.052-.823 15.253-1.05 19.014-.546 9.03-1.03 18.024-1.166 27.068.105 4.246.068 8.515.357 12.755l-6.55.47c-.147-.863-.145-2.935-.228-5.098l-.067-6.062c.14-9.09.64-18.128 1.18-27.203.226-3.798.93-14.665 1.026-18.778.046-1.98-.054-3.962-.08-5.943l6.421-2.663z" style="fill:#000;fill-opacity:1;stroke:#000;stroke-width:2.93995;stroke-miterlimit:4;stroke-dasharray:none;stroke-opacity:1" transform="matrix(.0981 -.0138 .01537 .07711 794.381 1067.836)"/><path d="M-879.583-3451.197c13.18-1.463 26.4-2.559 39.631-3.433l-3.903 5.668c-13.767 1.01-27.738 2.055-39.447 3.583zM-880.878-3419.968c17.085-1.412 35.549-2.005 52.69-1.95-2.602 4.342-1.204 4.076 1.69.028.517-.022 1.36-.435 1.114.058-2.846 5.723-3.72 5.347-8.196 5.415a499.386 499.386 0 0 0-51.22 2.161z" style="fill:#000;fill-opacity:1;stroke:#000;stroke-width:2.93995;stroke-miterlimit:4;stroke-dasharray:none;stroke-opacity:1" transform="matrix(.0981 -.0138 .01537 .07711 794.381 1067.836)"/></g><path d="M89.221 91.536c-.166.144-.218.181-.315.374a.957.957 0 0 0-.11.448.77.77 0 0 0 .162.456c.139.202.363.344.621.41v.164c-.327-.064-.611-.23-.783-.48a1.139 1.139 0 0 1-.133-.247.877.877 0 0 1-.048-.25 1.21 1.21 0 0 1 .096-.51c.034-.077.084-.148.136-.216.095-.121.233-.234.324-.306z" style="display:inline;fill:#000;fill-opacity:1;stroke:#000;stroke-width:.056271;stroke-miterlimit:4;stroke-dasharray:none;stroke-opacity:1" transform="matrix(4.00535 0 0 4.0056 150.308 464.385)"/><path d="M128.496 87.716c.16-.076.268-.227.335-.361.04-.08.046-.16.054-.249.026-.284-.073-.52-.259-.736a1.497 1.497 0 0 0-.47-.388l.166-.149c.232.132.357.254.494.417.2.235.31.539.293.847a.97.97 0 0 1-.057.285.795.795 0 0 1-.154.259c-.104.111-.209.2-.318.268z" style="display:inline;fill:#000;fill-opacity:1;stroke:#000;stroke-width:.0651078;stroke-miterlimit:4;stroke-dasharray:none;stroke-opacity:1" transform="matrix(4.00535 0 0 4.0056 150.308 464.385)"/></g><g style="stroke-width:.9619"><g style="display:inline;stroke-width:4.64012"><path d="M-1185.94-3414.064c3.96-10.215 7.115-16.332 11.766-26.248 6.15-13.033 13.16-25.715 17.962-39.335.806-2.783.648-2.006 1.1-4.158.054-.258-.1-.697.153-.776 7.952-2.49 5.837-3.327 7.103-.527 1.919 3.037 2.396 7.38 3.247 10.775.575 2.295 1.181 4.582 1.772 6.873 4.436 16.285 9.057 29.753 14.656 45.663.936 3.082 2.166 6.363 2.516 8.956-1.829 1.423-3.91 2.489-5.865 3.733l-.889-3.119c-.572-2.527-1.104-3.964-1.937-6.602-5.506-16.02-10.175-29.541-14.723-45.867-.613-2.297-1.238-4.59-1.837-6.891-.42-1.614-.823-3.232-1.22-4.85-.71-5.171 2.181-6.013 2.704-4.448-4.69 13.77-11.816 26.517-18.021 39.633-3.185 6.803-4.65 9.856-7.715 16.712-.862 1.93-2.407 5.136-3.216 7.252-.262.686-.448 1.4-.672 2.1z" style="fill:#000;fill-opacity:1;stroke:none;stroke-width:.464012;stroke-miterlimit:4;stroke-dasharray:none;stroke-opacity:1" transform="matrix(.22984 .0085 -.0085 .2296 459.945 1621.08)"/><path d="M-1179.978-3434.788c-1.476-.66-2.99-2.354-4.747-2.145 1.99-2.65.04-1.552 5.294-5.365.609-.442 1.504.026 2.256.036 1.26.018 2.52.033 3.779.044 4.48.036 7.584.04 12.18.055 6.86.01 13.72.01 20.58-.013 2.952-.01 5.782-.203 8.643.568l.859 1.047-5.969 3.645.552.583c-2.695-.375-5.392-.296-8.11-.3-6.859-.012-13.717 0-20.575 0-5.358 0-10.72.052-16.077-.05-.787-.014-2.454.702-2.359-.078.818-6.705 1.218-6.393 3.46-5.508 2.033.717 3.857 1.869 5.637 3.07-1.8 1.47-3.602 2.944-5.403 4.413z" style="fill:#000;fill-opacity:1;stroke:none;stroke-width:.464012;stroke-miterlimit:4;stroke-dasharray:none;stroke-opacity:1" transform="matrix(.22984 .0085 -.0085 .2296 459.945 1621.08)"/></g><g style="display:inline;stroke-width:4.64012"><path d="M-786.539-1184.282c.92 3.715 1.574 6.036 2.122 10.054 1.803 13.206 2.248 24.98 2.811 38.278.321 7.594.613 15.396.36 24.436-2.377 1.028-4.891 1.752-7.21 2.911.202-9.542.481-15.837.188-23.564-.5-13.153-.668-26.405-2.487-39.463-.538-3.861-1.176-6.112-2.068-9.671z" style="fill:#000;fill-opacity:1;stroke:none;stroke-width:.464012;stroke-miterlimit:4;stroke-dasharray:none;stroke-opacity:1" transform="matrix(.22984 .0085 -.0085 .2296 406.755 1090.008)"/><path d="M600.273 132.594c-13.043.073-26.087.65-39.078 1.804l-3.181 6.204c17.216-1.897 33.952-2.78 51.261-2.446l5.293.29 4.157-5.471c-1.804-.097-3.607-.192-5.41-.29a517.426 517.426 0 0 0-13.042-.091zM614.727 166.443c-14.41-.053-28.873.164-43.192 1.895l-3.642 5.95c14.121-2.234 28.499-2.402 42.77-2.28z" style="fill:#000;fill-opacity:1;stroke:none;stroke-width:.464012;stroke-miterlimit:4;stroke-dasharray:none;stroke-opacity:1" transform="matrix(.22984 .0085 -.0085 .2296 104.202 776.23)"/></g><g style="display:inline;stroke-width:4.09234"><path d="M-802.142 437.93c1.043 0 .219 2.462.258 3.697.123 3.916.006 10.89-.037 14.468-.123 10.319-.254 20.622-.16 30.941.477 11.088.182 5.882.835 15.62l-5.385 2.454c-.633-9.866-.343-4.59-.828-15.827-.108-10.336.012-20.657.103-30.993.017-2.007.111-11.373.03-14.174-.035-1.185-.165-2.365-.247-3.547l5.43-2.64z" style="fill:#000;fill-opacity:1;stroke:none;stroke-width:.409235;stroke-miterlimit:4;stroke-dasharray:none;stroke-opacity:1" transform="matrix(.28376 .0105 -.00884 .2391 482.028 716.032)"/><path d="M-810.341 437.704c15.264-1.74 30.635-1.83 45.976-1.847l-4.26 5.47s-30.55.214-45.715 2.122zM-800.568 471.652c11.018-1.18 22.068-1.905 33.135-2.418l-4.146 5.043s-21.95 1.24-32.85 2.675z" style="fill:#000;fill-opacity:1;stroke:none;stroke-width:.409235;stroke-miterlimit:4;stroke-dasharray:none;stroke-opacity:1" transform="matrix(.28376 .0105 -.00884 .2391 482.028 716.032)"/></g><g style="stroke-width:4.64012"><path d="M-582.844-3340.874c18.77-.46 37.538-.84 56.309-.306l2.546.152-4.216 5.511-2.44-.157c-18.76-.67-37.522-.201-56.277.413z" style="fill:#000;fill-opacity:1;stroke:none;stroke-width:.464012;stroke-miterlimit:4;stroke-dasharray:none;stroke-opacity:1" transform="matrix(.22984 .0085 -.0085 .2296 368.95 1584.584)"/><path d="M-551.937-3337.137c1.167 16.64 2.38 33.284 3.384 49.936.3 5.785.558 11.573.652 17.365l-6.625 2.142c.106-6.014-.241-12.114-.435-17.258-.94-16.612-2.133-33.22-3.502-49.8z" style="fill:#000;fill-opacity:1;stroke:none;stroke-width:.464012;stroke-miterlimit:4;stroke-dasharray:none;stroke-opacity:1" transform="matrix(.22984 .0085 -.0085 .2296 368.95 1584.584)"/><path d="M-581.46-3278.87c11.006.278 22.005-.24 33.007-.394 6.413-.089 11.989-.01 18.367.044 5.819.162 11.666.224 17.459-.433l-3.889 5.764c-6.12.29-12.341.31-17.58.15-17.153-.15-34.286.47-51.438.474z" style="fill:#000;fill-opacity:1;stroke:none;stroke-width:.464012;stroke-miterlimit:4;stroke-dasharray:none;stroke-opacity:1" transform="matrix(.22984 .0085 -.0085 .2296 368.95 1584.584)"/></g><g style="stroke-width:4.64012"><path d="M-151.569-3340.979c1.165 15.385.48 30.844.166 46.25-.147 6.794-.249 13.589-.328 20.383l-6.56 2.084c.152-7.117.31-14.341.444-20.432.33-15.244.971-30.538-.215-45.76z" style="fill:#000;fill-opacity:1;stroke:none;stroke-width:.464012;stroke-miterlimit:4;stroke-dasharray:none;stroke-opacity:1" transform="matrix(.22984 .0085 -.0085 .2296 289.568 1581.234)"/><path d="M-148.907-3340.04c6.664 6.403 12.15 13.892 17.92 21.075 2.195 2.73 4.403 5.45 6.605 8.174l6.818 8.507c5.4 6.968 10.87 13.896 16.553 20.638 1.988 6.954-2.354 7.641-1.704-.127.024-1.973.072-3.947.071-5.921 0-10.237-.212-7.489-.028-18.481.15-8.976.582-17.95.96-26.918.076-1.749.15-3.497.227-5.245.072-1.654.137-3.126.202-4.646.01-.136-.12-.366.01-.408 6.873-2.251 6.64-3.909 6.59-1.078-1.515.482-4.576 1.468-6.59 1.916.157-2.813-.106-.775 6.717-2.775-.132 1.66-.27 3.505-.353 4.994-.098 1.75-.186 3.501-.28 5.252-.433 8.937-.904 17.882-1.053 26.83-.15 8.992.012 9.882.12 18.449.025 2.028.024 4.056.036 6.085-.059 1.005-.007 3.528.122 4.53.214 1.657.532 2.762 1.277 4.038-4.534 5.544-3.627 5.923-5.968 3.986-3.857-3.71-7.116-8.034-10.468-12.184-1.899-2.35-3.82-4.683-5.696-7.051-2.143-2.705-4.24-5.445-6.36-8.167-14.206-17.69.484.572-13.45-16.664-5.687-7.035-11.109-14.388-17.777-20.548l5.499-4.26z" style="fill:#000;fill-opacity:1;stroke:none;stroke-width:.464012;stroke-miterlimit:4;stroke-dasharray:none;stroke-opacity:1" transform="matrix(.22984 .0085 -.0085 .2296 289.568 1581.234)"/></g><g style="display:inline;stroke-width:4.64012"><path d="M-865.085-1184.38c.236 1.282.557 2.551.706 3.846.884 7.697.93 13.537 1.085 21.557.241 12.458.19 24.92.15 37.38-.03 4.379-.052 8.758-.13 13.136l-6.656 2.04c.288-4.56.272-9.2.363-13.107.118-12.435.214-24.871-.06-37.305-.166-7.592-.274-13.737-1.147-21.09-.146-1.236-.46-2.445-.69-3.668l6.38-2.788z" style="fill:#000;fill-opacity:1;stroke:none;stroke-width:.464012;stroke-miterlimit:4;stroke-dasharray:none;stroke-opacity:1" transform="matrix(.22984 .0085 -.0085 .2296 491.348 1092.132)"/><path d="M-880.628-1182.139c17.14-3.885 34.857-4.953 52.391-5.198l5.46.37-4.174 5.456-5.251-.296c-17.363.296-34.97 1.328-51.83 5.729zM-873.024-1148.652c1.035-.142 2.064-.34 3.105-.427 9.492-.795 19.062-.956 28.579-1.259l-3.962 5.594c-11 .572-22.17.673-31.491 1.951zM-873.871-1119.215c14.721 1.027 29.499.943 44.23.345 9.768-.397 4.56-.19 12.33-.966.69-.07 2.43-.792 2.073-.197-1.369 2.277-2.321 3.751-4.138 5.69-2.051.41-10.237.882-14.191.988-14.908.398-29.89.742-44.765-.503z" style="fill:#000;fill-opacity:1;stroke:none;stroke-width:.464012;stroke-miterlimit:4;stroke-dasharray:none;stroke-opacity:1" transform="matrix(.22984 .0085 -.0085 .2296 491.348 1092.132)"/></g></g><path d="M716.945 74.94c1.65.01 3.301-.008 4.952.005 3.487.027 6.972 0 10.46-.012 3.475-.011 7.4-.003 11.1.011 3.796.015 7.573.027 11.385.017 4.056-.01 8.111.016 12.167-.048 3.361-.034 7.022.061 10.13.003 1.265-.024 2.527-.002 3.792-.019v.113c-1.264.016-2.525-.008-3.789.016-2.992.058-6.77-.037-10.133-.005-4.055.064-8.11.038-12.167.048-3.83.01-7.59 0-11.388-.016-3.699-.014-7.576-.026-11.097-.01-3.488.014-6.975.04-10.464.014-1.647-.012-3.294.006-4.941-.003l-.008-.114z" style="fill:#000;fill-opacity:1;stroke:#000;stroke-width:.244642;stroke-linecap:butt;stroke-linejoin:round;stroke-miterlimit:4;stroke-dasharray:none;stroke-dashoffset:0;stroke-opacity:1" transform="translate(43.112 41.287)"/><path d="M388.484 82.65c4.277.19 9.83 2.56 11.293 3.269 9.274 4.497 16.248 11.506 18.678 19.799.503 1.717.382 4.613.223 6.396-.165 1.847-.69 3.678-1.438 5.375-3.48 7.893-11.836 13.551-19.824 16.045a40.539 40.539 0 0 1-14.046 1.793c-8.934-.423-18.408-3.68-24.814-10.118-1.406-1.414-2.758-2.947-3.68-4.714-2.286-4.38-3.018-5.617-2.888-10.685.155-6.016 3.126-11.529 7.122-15.87 1.457-1.583 3.087-3.012 4.797-4.318 1.73-1.323 3.578-2.331 5.492-3.373 7.787-4.24 17.497-6.07 25.526-5.04" style="display:inline;fill:#fff9f3;fill-opacity:1;stroke:#000;stroke-width:.95;stroke-linecap:butt;stroke-linejoin:miter;stroke-miterlimit:10;stroke-dasharray:none;stroke-dashoffset:0;stroke-opacity:1" transform="translate(43.112 41.287)"/><path d="M741.638-74.766c-.575-.358-1.237-.611-1.925-.583a2.467 2.467 0 0 0-.523.07 2.09 2.09 0 0 0-.493.192c-.46.257-.794.713-.92 1.222-.095.376-.09.6-.016.945.03.142.079.283.146.413.17.33.505.626.87.72.295.077.56.036.756-.039.242-.093.379-.212.604-.468.347-.395.545-.895.69-1.41.044-.16.08-.323.15-.474.004-.01.026-.03.019-.023-.058.049-.034.035 0 .114.225.491.518.95.902 1.329.334.33.706.486 1.114.58.045.01.106.025.156.03l.015-.077a2.197 2.197 0 0 1-1.229-.585 4.347 4.347 0 0 1-.89-1.313c-.014-.033-.022-.074-.049-.098-.022-.019-.06-.022-.09-.016-.044.01-.164.481-.175.514-.144.472-.336.99-.674 1.38-.203.234-.326.35-.552.44a1.104 1.104 0 0 1-.714.046c-.346-.086-.668-.365-.83-.678a1.571 1.571 0 0 1-.143-.398c-.07-.324-.078-.55.012-.911.12-.484.43-.92.865-1.168.148-.085.311-.146.476-.19.166-.044.338-.063.51-.071.673-.031 1.32.217 1.884.565zM743.803-75.856c.822.492 1.547 1.127 2.3 1.717.47.373.946.737 1.412 1.115l.051-.059c-.488-.395-.993-.782-1.414-1.116-.756-.592-1.485-1.23-2.311-1.725z" style="fill:#000;stroke:#000;stroke-width:.569889;stroke-linecap:square;stroke-miterlimit:4;stroke-dasharray:none;stroke-opacity:1" transform="translate(43.112 41.287)"/><path d="M744.172-72.355c.62-.666 1.525-1.762 2.098-2.468.26-.328.53-.649.794-.974l-.067-.04c-.274.34-.56.68-.794.974-.57.704-1.475 1.799-2.094 2.463z" style="fill:#000;stroke:#000;stroke-width:.569889;stroke-linecap:square;stroke-miterlimit:4;stroke-dasharray:none;stroke-opacity:1" transform="translate(43.112 41.287)"/><path d="M631.334-51.717a.359.359 0 0 0-.124-.098c-.407-.2-1.007-.044-1.39.135-.152.07-.29.167-.434.251-.134.118-.282.221-.404.352-.473.507-.762 1.243-.553 1.933.043.142.132.266.198.4.104.096.191.214.311.289.372.231.836.188 1.198-.037.356-.22.405-.377.63-.72.209-.456.262-.934.247-1.43-.008-.256-.057-.503-.069-.757.001.024-.008.052.004.073.03.055.079.1.12.148.063.075.125.15.19.224.15.169.317.354.493.496a2.326 2.326 0 0 0 1.119.503l.019-.07a1.87 1.87 0 0 1-.8-.286c-.1-.062-.199-.128-.29-.202a4.216 4.216 0 0 1-.488-.49c-.064-.073-.126-.15-.19-.224-.045-.054-.076-.124-.136-.162-.03-.02-.077 0-.115 0 .015.253.062.5.07.753.014.483-.039.95-.242 1.395-.209.324-.25.465-.584.68-.338.215-.775.266-1.128.052-.114-.07-.197-.18-.296-.271-.064-.127-.15-.244-.191-.38-.201-.66.073-1.368.523-1.856.118-.128.262-.23.393-.345.14-.083.274-.179.421-.248.362-.17.94-.327 1.328-.148a.287.287 0 0 1 .109.083zM616.63-52.523a335.79 335.79 0 0 1 1.662 3.34c.498 1.017.976 2.044 1.492 3.052.089.173.183.346.296.505.034.047.059.071.067.063.022-.022.026-.056.038-.085-.13-.308-.282-.605-.417-.91-.2-.454-.196-.952-.042-1.42.034-.105.075-.207.126-.304.184-.349.47-.622.876-.69.264-.044.381-.015.638.049.113.028.22.078.324.132.39.201.714.55.834.978a1.2 1.2 0 0 1 .045.28c.004.09-.003.18-.022.267-.103.464-.526.74-.907.96a2.72 2.72 0 0 1-.98.318l.003.074a2.971 2.971 0 0 0 1.006-.324c.41-.236.846-.531.95-1.03.019-.092.03-.189.019-.282-.03-.267-.038-.35-.172-.594a1.768 1.768 0 0 0-1.087-.85c-.269-.076-.39-.097-.67-.05-.433.074-.736.37-.931.744-.052.1-.093.206-.128.313-.156.483-.157.996.049 1.462.134.302.285.597.413.901.019-.002.072.012.059-.003-.143-.155-.23-.357-.327-.54-.528-1.002-.994-2.035-1.492-3.052a362.798 362.798 0 0 0-1.66-3.34zM637.424-48.221c-.002-.817-.019-1.22 0-2.053.012-.483.03-1.238.035-1.957 0-.194-.003-.33-.004-.491a.356.356 0 0 0-.056-.18c-.03.01-.049.039-.073.058.015.293-.02-.18.06.616.004.663-.022 1.412-.034 1.956-.015.706.001 1.18 0 2.052z" style="fill:#000;stroke:#000;stroke-width:.537215;stroke-linecap:square;stroke-miterlimit:4;stroke-dasharray:none;stroke-opacity:1" transform="translate(43.112 41.287)"/><path d="M649.439-44.03c-.001-1.181-.015-1.762 0-2.968.009-.698.023-1.79.027-2.828 0-.282-.003-.48-.003-.711a.942.942 0 0 0-.042-.26c-.023.015-.038.056-.056.084.012.423-.015-.261.046.89.004.96-.015 2.042-.026 2.828-.012 1.02 0 1.707-.001 2.967z" style="fill:#000;stroke:#000;stroke-width:.561925;stroke-linecap:square;stroke-miterlimit:4;stroke-dasharray:none;stroke-opacity:1" transform="translate(43.112 41.287)"/><path d="M671.151-72.406c0-1.181-.015-1.762 0-2.968.009-.698.023-1.789.027-2.828.001-.282-.003-.48-.003-.711a.943.943 0 0 0-.042-.26c-.022.015-.038.056-.055.084.011.423-.015-.261.045.89.004.96-.015 2.042-.026 2.828-.011 1.02 0 1.707-.001 2.967z" style="fill:none;stroke:#000;stroke-width:.0999999;stroke-linecap:square;stroke-miterlimit:4;stroke-dasharray:none;stroke-opacity:1" transform="translate(43.112 41.287)"/><path d="M675.796-81.108v8.11c.008-.077-.003.838.001.594.003.244-.009-.671 0-.594v-8.11z" style="fill:none;fill-opacity:1;stroke:#000;stroke-width:.0999999;stroke-linejoin:round;stroke-miterlimit:2;stroke-dasharray:none;stroke-opacity:1" transform="translate(43.112 41.287)"/><path d="M674.377-80.565c1.052-.743 2.33-.976 3.583-1.121.743-.035 1.795-.188 2.4.382.082.078.131.183.198.274.022.096.069.19.067.288-.015.696-1.066 1.333-1.552 1.677-.7.467-1.47.871-2.31.996-.012.017-.417.012-.273-.07.456-.061.914-.114 1.375-.144 1.284-.046 2.389.565 3.416 1.267.66.506 1.146 1.188 1.167 2.044.003.13-.02.26-.03.39-.148.64-.49 1.238-1.005 1.656-.109.089-.233.157-.35.236-1.074.604-2.247.325-3.377.062-.911-.294-1.933-.66-2.505-1.478a2.51 2.51 0 0 0 0 0c.572.819 1.593 1.185 2.505 1.479 1.13.263 2.303.542 3.378-.062.117-.079.24-.148.35-.236.516-.419.858-1.017 1.005-1.658.011-.13.034-.26.03-.39-.022-.856-.507-1.538-1.167-2.044-1.028-.702-2.132-1.313-3.417-1.267-.461.03-.919.083-1.375.144-.146.084.262.09.273.072.841-.125 1.611-.53 2.311-.996.487-.345 1.538-.982 1.553-1.679.002-.098-.045-.191-.068-.287-.066-.092-.116-.197-.198-.275-.605-.57-1.657-.417-2.4-.382-1.254.145-2.531.378-3.584 1.121v.001zM690.859-82.358v8.11c.008-.077-.003.838 0 .594" style="fill:none;fill-opacity:1;stroke:#000;stroke-width:.0999999;stroke-linejoin:round;stroke-miterlimit:2;stroke-dasharray:none;stroke-opacity:1" transform="translate(43.112 41.287)"/><path d="M690.195-75.473c.015.04.034.082.048.117.572.819 1.534 1.336 2.458 1.588 1.12.306 2.35.433 3.425-.171.117-.079.241-.147.35-.236.515-.419.858-1.017 1.005-1.658.011-.13.034-.26.03-.39-.023-.856-.514-1.529-1.167-2.044-.918-.724-2.132-1.313-3.417-1.267-.461.03-.92.083-1.375.144-.146.084.262.09.273.072.841-.125 1.867-.412 2.561-.887.492-.336 1.288-1.091 1.302-1.788.002-.098-.045-.191-.067-.287-.066-.092-.116-.197-.198-.275-.605-.57-1.613-.59-2.354-.523-1.256.113-2.578.52-3.63 1.262" style="fill:none;fill-opacity:1;stroke:#000;stroke-width:.0999999;stroke-linejoin:round;stroke-miterlimit:2;stroke-dasharray:none;stroke-opacity:1" transform="translate(43.112 41.287)"/><path d="M705.314-83.65v8.109c.008-.076-.003.839.001.594" style="fill:none;fill-opacity:1;stroke:#000;stroke-width:.399999;stroke-linejoin:round;stroke-miterlimit:2;stroke-dasharray:none;stroke-opacity:1" transform="translate(43.112 41.287)"/><path d="M705.058-75.996c.66.579 1.456.883 2.065 1.046 1.121.3 2.372.3 3.458-.281.982-.526 1.299-1.37 1.308-2.262.008-.732-.437-1.55-1.09-2.066-.918-.724-2.132-1.313-3.416-1.267-.462.03-.92.083-1.375.144-.146.084.261.09.273.071.84-.124 1.893-.411 2.616-.842.603-.358 1.196-1.036 1.225-1.732.011-.238-.127-.523-.255-.662-.564-.61-1.601-.59-2.342-.523-1.257.113-2.578.52-3.63 1.262" style="fill:none;fill-opacity:1;stroke:#000;stroke-width:.399999;stroke-linejoin:round;stroke-miterlimit:2;stroke-dasharray:none;stroke-opacity:1" transform="translate(43.112 41.287)"/><path d="M15.72-5.631c.185.192.437.432.623.607.131.126.269.245.405.367l.014-.015c-.14-.128-.287-.254-.405-.367-.18-.177-.431-.405-.624-.608z" style="fill:#000;stroke:#000;stroke-width:.150658;stroke-linecap:square;stroke-miterlimit:4;stroke-dasharray:none;stroke-opacity:1" transform="matrix(3.77953 0 0 3.77953 123.372 -13.732)"/><path d="M16.688-5.547c-.226.164-.588.442-.82.598-.047.031-.127.087-.197.136l.014.015c.072-.05.15-.105.197-.136.232-.154.594-.434.82-.598zM17.202-5.171c.223.011.473-.006.697-.005.123 0 .212-.005.328-.005l.002-.02c-.128 0-.223.005-.327.005-.224 0-.473.016-.697.004z" style="fill:#000;stroke:#000;stroke-width:.150658;stroke-linecap:square;stroke-miterlimit:4;stroke-dasharray:none;stroke-opacity:1" transform="matrix(3.77953 0 0 3.77953 123.372 -13.732)"/><path d="M17.704-5.75c.01.211.01.773.02.976l.004.094.02-.002c0-.032-.002-.066-.003-.094-.01-.203-.013-.772-.021-.978zM13.906-4.802c.13-.299.314-.753.43-1.075.109-.299.252-.579.373-.86.041-.095.167-.218.116-.22.006.054.08.26.116.432.005.136.152.702.17.81.028.175.237.956.25 1.01.006.014.03.006.028-.012-.014-.049-.223-.823-.253-1.005-.014-.086-.175-.705-.176-.815 0-.093-.059-.312-.081-.41-.004-.003-.099-.018-.12-.004-.004.059-.052.14-.077.194-.126.275-.257.575-.365.874a25.4 25.4 0 0 1-.43 1.075z" style="fill:#000;stroke:#000;stroke-width:.150658;stroke-linecap:square;stroke-miterlimit:4;stroke-dasharray:none;stroke-opacity:1" transform="matrix(3.77953 0 0 3.77953 123.372 -13.732)"/><path d="M14.261-5.468c.202.009.301.009.506.024.12.01.305.024.482.034l.122.004a.078.078 0 0 0 .045-.015c-.002-.01-.01-.016-.013-.024-.073.002.044-.003-.153.012-.164-.007-.348-.023-.482-.033-.174-.014-.291-.014-.506-.025z" style="fill:#000;stroke:#000;stroke-width:.148578;stroke-linecap:square;stroke-miterlimit:4;stroke-dasharray:none;stroke-opacity:1" transform="matrix(3.77953 0 0 3.77953 123.372 -13.732)"/><path d="M43.12-4.024c.058-.32.117-.745.154-1.085.035-.316.112-.71.141-1.027.005-.054.03-.159.027-.213-.001-.016-.003-.026-.006-.025-.009.002-.015.01-.022.014-.016.092.153.328.18.418.037.13.313.646.355.747.069.163.468.91.493.958.009.013.03 0 .024-.017a22.786 22.786 0 0 1-.494-.953c-.034-.08-.336-.645-.363-.752-.022-.09-.19-.305-.175-.396-.005-.003-.016-.014-.015-.008.01.058-.02.168-.024.226-.026.317-.106.711-.141 1.027-.038.34-.103.776-.154 1.085z" style="fill:#000;stroke:#000;stroke-width:.150658;stroke-linecap:square;stroke-miterlimit:4;stroke-dasharray:none;stroke-opacity:1" transform="matrix(3.77953 0 0 3.77953 122.228 -25.44)"/><path d="M43.181-4.755c.198-.039.295-.063.498-.096.118-.019.302-.048.476-.08l.12-.025a.078.078 0 0 0 .04-.025c-.005-.009-.013-.013-.019-.02-.07.018.043-.014-.145.047-.161.032-.344.06-.477.081-.172.028-.286.055-.497.095z" style="fill:#000;stroke:#000;stroke-width:.148578;stroke-linecap:square;stroke-miterlimit:4;stroke-dasharray:none;stroke-opacity:1" transform="matrix(3.77953 0 0 3.77953 122.228 -25.44)"/><path d="M887.135-125.766c2.928-1.217.486-5.715-3.412-9.678-6.191-6.294-20.013-11.263-29.871-12.75-19.784-2.987-40.746 1.537-57.448 16.29-16.185 14.296-23.906 39.626-20.91 61.349 3.507 25.43 19.969 50.845 43.12 61.664 9.41 4.397 23.789 7.093 21.624.447-12.378 1.067-27.48 8.217-36.059 23.2-7.622 13.312-8.467 32.554-1.205 48.34 8.992 19.546 28.066 33.973 43.013 41.165 21.081 10.144 42.978 14.216 58.886 12.614 11.704-1.18 25.331-6.496 31.831-17.46.753-1.27 2.799-4.338.853-5.42-3.145 4.454.19 10.358 2.773 14.353 7.088 10.966 19 17.34 31.615 21.01 23.34 6.789 43.531 4.846 65.785-6.027 16.856-8.236 29.033-16.68 36.536-35.198 4.329-10.687 5.69-22.892-1.738-32.843-2.685-3.597-6.924-3.54-8.572-2.852 1.83 1.308 4.817 2.492 9.36 2.215 15.118-.92 28.536-4.425 40.336-13.78 14.736-11.68 24.592-31.135 24.592-52.183 0-25.2-10.933-47.738-22.73-60.008-19.065-19.827-41.534-26.902-54.603-21.814-1.834.76-2.54 1.271-3.226 2.876" style="display:inline;fill:none;fill-opacity:1;stroke:#000;stroke-width:1.1;stroke-linejoin:round;stroke-miterlimit:2" transform="translate(43.112 41.287)"/><path d="M138.79-296.408c8.218-2.185 9.84-11.894 7.347-19.59-5.988-18.487-35.587-37.872-67.408-38.82-17.83-.532-46.044 3.62-59.178 15.805-8.53 7.914-15.744 16.919-17.35 29.182-.524 4.004-.006 9.202 2.564 7.572" style="display:inline;fill:none;fill-opacity:1;stroke:#000;stroke-width:.849887;stroke-linejoin:round;stroke-miterlimit:2" transform="translate(43.112 41.287)"/><path d="M824.135-227.766c2.928-1.217.486-5.715-3.412-9.678-6.191-6.294-20.013-11.263-29.871-12.75-19.784-2.987-40.746 1.537-57.448 16.29-16.185 14.296-23.906 39.626-20.91 61.349 3.507 25.43 19.969 50.845 43.12 61.664 9.41 4.397 23.789 7.093 21.624.447-12.378 1.067-27.48 8.217-36.059 23.2-7.622 13.312-8.467 32.554-1.205 48.34 8.992 19.546 28.066 33.973 43.013 41.165 21.081 10.144 42.978 14.216 58.886 12.614 11.704-1.18 25.331-6.496 31.831-17.46.753-1.27 2.799-4.338.853-5.42-3.145 4.454.19 10.358 2.773 14.353 7.088 10.966 19 17.34 31.615 21.01 23.34 6.789 43.532 4.846 65.785-6.027 16.856-8.236 29.033-16.68 36.536-35.198 4.329-10.687 5.69-22.892-1.738-32.843-2.685-3.597-6.924-3.54-8.572-2.852 1.83 1.308 4.817 2.492 9.36 2.215 15.118-.92 28.536-4.425 40.336-13.78 14.736-11.68 24.592-31.135 24.592-52.183 0-25.2-10.933-47.738-22.73-60.008-19.065-19.827-41.534-26.902-54.603-21.814-1.834.76-2.54 1.271-3.226 2.876" style="display:inline;fill:none;fill-opacity:1;stroke:#000;stroke-width:1.1;stroke-linejoin:round;stroke-miterlimit:2" transform="translate(43.112 41.287)"/><path d="M945.393 492.453c8.077-2.628 8.287-12.362 4.59-19.867-8.881-18.028-37.22-36.369-74.218-34.805-23.451.991-47.942 10.94-59.596 21.774-8.257 7.675-13.242 16.622-12.722 26.408.212 4 2.866 9.085 5.25 7.323" style="display:inline;fill:none;fill-opacity:1;stroke:#000;stroke-width:.859967;stroke-linejoin:round;stroke-miterlimit:2" transform="translate(43.112 41.287)"/><path d="M951.736 634.942c1.83 1.309 4.817 2.492 9.36 2.215 15.119-.92 28.536-4.424 40.336-13.779 14.736-11.681 24.592-31.135 24.592-52.184 0-25.199-10.933-47.738-22.73-60.007-19.064-19.828-41.534-26.903-54.603-21.814-1.834.759-2.54 1.27-3.226 2.875" style="display:inline;fill:none;fill-opacity:1;stroke:#000;stroke-width:1.1;stroke-linejoin:round;stroke-miterlimit:2" transform="translate(43.112 41.287)"/><path d="M839.924 650.767c-3.345 3.382-1.468 9.05.077 12.935 4.238 10.667 13.033 18.58 23.29 23.283 32.514 14.907 74.964 8.007 92.542-19.75 5.418-8.556 8.383-19.035 3.7-28.871-1.694-3.556-5.268-4.175-6.762-3.836" style="display:inline;fill:none;fill-opacity:1;stroke:#000;stroke-width:.957184;stroke-linejoin:round;stroke-miterlimit:2" transform="translate(43.112 41.287)"/><path d="M753.037 572.023c-10.573.853-23.472 6.563-30.8 18.531-6.51 10.633-7.233 26.002-1.03 38.611 7.68 15.613 23.473 29.636 36.24 35.38 18.007 8.103 37.21 7.856 50.798 6.576 9.998-.942 21.638-5.189 27.19-13.945.643-1.015 2.39-3.466.728-4.33" style="display:inline;fill:none;fill-opacity:1;stroke:#000;stroke-width:.908587;stroke-linejoin:round;stroke-miterlimit:2" transform="translate(43.112 41.287)"/><path d="M808.073 493.651c2.355-.45 1.517-3.865-.392-6.772-3.016-4.595-11.313-8.643-17.885-10.183-11.719-2.748-27.226-2.368-42.505 6.037-13.278 7.304-24.053 20.103-28.041 34.93-4.67 17.359-.075 34.702 12.856 44.74 5.256 4.08 17.277 6.575 17.3 3.123" style="display:inline;fill:none;fill-opacity:1;stroke:#000;stroke-width:.772056;stroke-linejoin:round;stroke-miterlimit:2" transform="translate(43.112 41.287)"/><path d="M622.952 673.472c8.078-2.628 8.287-12.361 4.59-19.866-8.88-18.028-37.22-36.37-74.218-34.806-23.45.992-47.941 10.941-59.596 21.774-8.256 7.675-13.242 16.622-12.722 26.408.213 4 2.866 9.085 5.25 7.323" style="display:inline;fill:none;fill-opacity:1;stroke:#000;stroke-width:.859967;stroke-linejoin:round;stroke-miterlimit:2" transform="translate(43.112 41.287)"/><path d="M629.296 815.961c1.829 1.31 4.816 2.492 9.36 2.216 15.118-.921 28.535-4.425 40.336-13.78 14.736-11.681 24.592-31.135 24.592-52.183 0-25.2-10.933-47.739-22.73-60.008-19.065-19.828-41.534-26.902-54.604-21.814-1.833.759-2.54 1.271-3.226 2.876" style="display:inline;fill:none;fill-opacity:1;stroke:#000;stroke-width:1.1;stroke-linejoin:round;stroke-miterlimit:2" transform="translate(43.112 41.287)"/><path d="M495.288 818.47c-4.768 2.938-4.082 8.796-3.314 12.845 2.11 11.113 10.227 20.062 20.884 26.007 33.782 18.846 84.824 17.291 112.51-8.06 8.534-7.816 14.728-17.844 11.884-28.19-1.028-3.739-5.01-4.798-6.831-4.649" style="display:inline;fill:none;fill-opacity:1;stroke:#000;stroke-width:1.04131;stroke-linejoin:round;stroke-miterlimit:2" transform="translate(43.112 41.287)"/><path d="M438.82 747.63c-8.247-.246-18.754 3.172-25.555 12.059-6.043 7.895-8.068 20.068-4.48 30.647 4.442 13.1 15.3 25.645 24.612 31.335 13.134 8.024 27.988 9.507 38.604 9.676 7.812.124 17.206-2.24 22.33-8.725.593-.752 2.177-2.55.976-3.383" style="display:inline;fill:none;fill-opacity:1;stroke:#000;stroke-width:.717245;stroke-linejoin:round;stroke-miterlimit:2" transform="translate(43.112 41.287)"/><path d="M485.632 674.67c2.356-.45 1.517-3.865-.391-6.772-3.017-4.595-11.314-8.642-17.885-10.183-11.72-2.748-27.227-2.367-42.506 6.037-13.278 7.304-24.052 20.104-28.041 34.931-4.67 17.358-.075 34.701 12.857 44.74 5.256 4.08 17.277 6.574 17.3 3.122" style="display:inline;fill:none;fill-opacity:1;stroke:#000;stroke-width:.772056;stroke-linejoin:round;stroke-miterlimit:2" transform="translate(43.112 41.287)"/><g style="stroke-width:.94359"><path d="m18.766 111.456.044-73.6 62.4.036-.043 73.601zm0 0" style="fill:#fff;fill-opacity:1;fill-rule:nonzero;stroke:#fff;stroke-width:.0399453;stroke-linecap:butt;stroke-linejoin:miter;stroke-miterlimit:10;stroke-opacity:1" transform="matrix(1.52303 .12015 -.12015 1.52312 95.305 32.255)"/><path d="m21.975 97.058.033-56.001 56 .033-.033 56.001zm0 0" style="fill:#f5f5f5;fill-opacity:1;fill-rule:nonzero;stroke:#fafafa;stroke-width:.0399453;stroke-linecap:butt;stroke-linejoin:miter;stroke-miterlimit:10;stroke-opacity:1" transform="matrix(1.52303 .12015 -.12015 1.52312 95.305 32.255)"/><path d="m21.975 97.058.033-56.001 56 .033-.033 56.001zm0 0" style="fill:none;stroke:#000;stroke-width:.0165773;stroke-linecap:butt;stroke-linejoin:miter;stroke-miterlimit:10;stroke-opacity:1" transform="matrix(1.52303 .12015 -.12015 1.52312 95.305 32.255)"/><path d="m18.766 111.456.044-73.6 62.4.036-.043 73.601zm0 0" style="fill:none;stroke:#000;stroke-width:.327266;stroke-linecap:butt;stroke-linejoin:miter;stroke-miterlimit:10;stroke-dasharray:none;stroke-opacity:1" transform="matrix(1.52303 .12015 -.12015 1.52312 95.305 32.255)"/></g><g style="stroke-width:.554252;stroke-miterlimit:4;stroke-dasharray:none"><path d="M-33.862 76.605c3.645.023 7.289-.023 10.934.003 7.7.055 15.394-.016 23.092-.05 7.674-.035 16.34-.024 24.509.001 8.382.026 16.72.046 25.136.015 8.955-.032 17.909.018 26.863-.139 7.421-.085 15.504.129 22.365-.015 2.793-.058 5.58-.009 8.373-.05l-.001.262c-2.79.039-5.575-.014-8.365.046-6.606.14-14.948-.073-22.372.011-8.953.156-17.907.105-26.862.138-8.455.03-16.759.014-25.143-.013-8.167-.026-16.727-.046-24.501-.003-7.702.043-15.4.108-23.103.057-3.637-.024-7.273.022-10.91.003l-.015-.266z" style="fill:#000;fill-opacity:1;stroke:#000;stroke-width:.554252;stroke-linecap:butt;stroke-linejoin:round;stroke-miterlimit:4;stroke-dasharray:none;stroke-dashoffset:0;stroke-opacity:1" transform="matrix(.53215 .04198 -.03987 .50538 145.633 104.521)"/><path d="M99.243 71.994c1.663.942 4.493 1.96 5.967 2.394 1.29.38 4.349 1.396 5.624 1.824.195.083.507.18.246.47-.064.072-.175.078-.265.111-.23.085-.699.226-.905.29-1.784.516-5.209 1.702-6.597 2.202-.54.194-1.895.862-2.47 1.157l-.051-.257c.564-.279 2.002-.967 2.484-1.156 1.399-.547 4.796-1.68 6.57-2.199.487-.142.705-.233 1.067-.352.046.01.104.068.068.04-.68-.531-4.035-1.377-5.84-1.882-1.476-.413-4.34-1.493-5.96-2.386l.062-.256z" style="fill:#000;fill-opacity:1;stroke:#000;stroke-width:.554252;stroke-linecap:butt;stroke-linejoin:round;stroke-miterlimit:4;stroke-dasharray:none;stroke-dashoffset:0;stroke-opacity:1" transform="matrix(.53215 .04198 -.03987 .50538 145.633 104.521)"/></g><path d="M9.989 10.385c.016-.267.034-.535.059-.801.04-.426.065-.853.096-1.28.004-.068.05-.558.107-1.297.07-.904.182-2.178.284-3.51.212-2.766.429-5.772.466-6.171.05-.534.11-1.375.152-1.91l.118-1.472c.04-.469.072-.937.104-1.406.03-.447.059-.893.098-1.34.04-.445.075-.891.107-1.338.013-.28.05-.558.067-.837l.002-.063.029-.001-.003.062c-.017.28-.054.558-.067.838-.032.446-.067.893-.107 1.339-.04.446-.069.892-.098 1.338-.032.47-.065.938-.104 1.406-.025.294-.424 5.569-.745 9.644-.063.807-.137 1.567-.19 2.232-.109 1.39-.185 2.364-.192 2.485-.031.427-.055.854-.096 1.28-.025.266-.043.533-.058.8l-.029.002z" style="fill:#000;fill-opacity:1;stroke:#000;stroke-width:.0776434;stroke-linecap:butt;stroke-linejoin:round;stroke-miterlimit:4;stroke-dasharray:none;stroke-dashoffset:0;stroke-opacity:1" transform="matrix(3.77953 0 0 3.77953 122.153 145.435)"/><path d="M11.035-9.672c.167-.256.344-.742.408-.91.055-.147.116-.342.176-.487.01-.029.036-.068.068-.036.014.014.024.046.03.063.05.163.085.428.11.596a7.133 7.133 0 0 0 .237.967l-.031.018a7.191 7.191 0 0 1-.24-.974c-.023-.167-.06-.43-.107-.59l-.019-.05c0-.003.004-.011.001-.009-.009.008-.014.025-.019.034-.06.145-.12.34-.176.485-.064.17-.24.656-.408.913l-.03-.02z" style="fill:#000;fill-opacity:1;stroke:#000;stroke-width:.076286;stroke-linecap:butt;stroke-linejoin:round;stroke-miterlimit:4;stroke-dasharray:none;stroke-dashoffset:0;stroke-opacity:1" transform="matrix(3.77953 0 0 3.77953 122.153 145.435)"/><path d="M1.03-4.883c1.004.11 2.105.188 3.113.25 2.164.133 4.397.368 6.602.48 1.766.088 3.645.316 5.311.419 1.293.08 2.594.21 3.884.263l.024-.065c-1.295-.095-2.607-.17-3.9-.255-1.678-.112-3.546-.331-5.312-.42-2.205-.11-4.433-.343-6.602-.479a68.18 68.18 0 0 1-3.095-.251Z" style="fill:red;stroke:red;stroke-width:.15875;stroke-linecap:square;stroke-miterlimit:4;stroke-dasharray:none" transform="matrix(3.77953 0 0 3.77953 122.153 145.435)"/><g style="display:inline;stroke-width:1.01;stroke-dasharray:none"><path d="M-525.986 1594.18c.356 2.446.594 4.91.89 7.364.154 1.005.29 2.016.513 3.01.023.101.051.201.082.3.005.016.045.038.028.045-.425.162-.862.29-1.292.436l1.328-.528c-.433.26-.848.555-1.3.779-.037.018-.028-.077-.036-.118-.023-.11-.039-.221-.055-.332-.156-1.022-.292-2.047-.434-3.07-.285-2.43-.526-4.876-1.009-7.276l1.285-.61z" style="fill:#000;fill-opacity:1;stroke:none;stroke-width:1.01;stroke-miterlimit:4;stroke-dasharray:none;stroke-opacity:1" transform="rotate(8.865 7298.926 4501.021) scale(.84382)"/><path d="M-528.35 1594.48c1.184-.403 2.763-.723 4.006-.861.872-.096 1.965-.124 2.848-.014.362.045.71.167 1.065.25.668.277 1.362.61 1.19 1.491-.174.885-1.079 1.521-1.7 2.07-1.078.811-.816.647-2.373 1.572-.15.088-.314.148-.467.23-.069.037-.248.182-.197.123 1.037-1.21.569-1.061 1.513-1.147 1.764.06 3.825.505 5.06 1.882.221.247.355.56.533.839.05.295.172.586.153.884-.047.728-.488 1.289-1.105 1.657-.826.493-1.697.924-2.603 1.248-1.077.385-3.33.61-4.44.753-1.43.046-2.214.154-3.58-.073-.309-.052-.644-.088-.9-.269-.147-.104-.272-.222-.336-.39l1.436-.686c.219.402.488.371.853.505 1.34.241 1.86.024 3.276-.024 1.864-.042 3.128-.284 4.351-.655.188-.04.45-.199.624-.278.51-.233 1.068-.629 1.186-1.227.048-.242-.042-.492-.062-.738-.149-.247-.254-.525-.446-.74-1.181-1.324-3.214-1.666-4.892-1.619-.187.01-.583.206-.56.02.13-1.043.39-.981.892-1.237 1.908-1.041-4.038 2.202.752-.462.576-.473.88-.683 1.373-1.235.143-.16.524-.576.445-.882-.103-.4-.63-.53-.915-.665-.33-.073-.654-.183-.99-.22-2.107-.237-4.447.28-6.396 1.062.161-.607.193-.746.406-1.165zM-515.043 1592.5c.062.268.136.535.186.806.183 1.006.266 1.902.366 2.93.17 1.75.282 3.503.393 5.258.062 1.12.126 2.242.203 3.362l-1.242.543a68.992 68.992 0 0 0-.102-3.397c-.145-2.645-.254-5.489-.816-8.08-.054-.249-.135-.492-.202-.739l1.214-.683z" style="fill:#000;fill-opacity:1;stroke:none;stroke-width:1.01;stroke-miterlimit:4;stroke-dasharray:none;stroke-opacity:1" transform="rotate(8.865 7298.926 4501.021) scale(.84382)"/><path d="M-515.993 1593.106c2.647-.35 5.294-.697 7.942-1.041.95-.125.53-.07 1.257-.164l-.857 1.088c-.692.053-.29.019-1.204.107-2.658.299-5.325.604-7.945 1.147l.807-1.137zM-515.154 1596.864c2.147-.163 4.295-.316 6.44-.493l-.82 1.02c-2.17.129-4.34.296-6.5.555l.88-1.082zM-514.13 1603.72c2.425-.278 4.858-.48 7.291-.686l.797-.068-.846 1.05c-.256.017-.512.025-.768.037-2.445.16-4.896.356-7.308.802l.833-1.135zM-504.63 1593.797c-.187 2.813.135 5.632.427 8.427.119 1.037.233 2.074.358 3.11l-1.232.565c-.073-1.051-.163-2.1-.268-3.149-.28-2.809-.567-5.623-.598-8.448l1.314-.505z" style="fill:#000;fill-opacity:1;stroke:none;stroke-width:1.01;stroke-miterlimit:4;stroke-dasharray:none;stroke-opacity:1" transform="rotate(8.865 7298.926 4501.021) scale(.84382)"/><path d="M-506.01 1594.27c2.853-.395 5.738-.754 8.623-.753l.446.047-.93 1.031a50.17 50.17 0 0 1-.382-.053c-2.875-.077-5.758.289-8.578.818l.82-1.09zM-505.375 1598.377c2.563-.225 5.133-.35 7.7-.528l-.832 1.025c-2.577.103-5.157.25-7.713.601l.845-1.098zM-492.992 1593.799c-.288.198-.467.413-.768.66-.348.45-.788.826-1.124 1.284-.533.727-1.292 2.054-1.503 2.966-.105.455-.05.932-.076 1.398.063.353.182.85.429 1.194.61.854 1.628 1.169 2.617 1.26 1.494.14 2.464-.131 3.82-.768.277-.13.69-.414 1.047-.789.4-.452.583-.708.872-1.279.505-.998.647-2.387.241-3.451-.4-1.049-1.428-1.998-2.306-2.629-.421-.302-.9-.514-1.35-.772-.766-.523-2.268-.411-2.425-.416.373-.348.7-.75 1.118-1.043.807-.035 2.038.517 2.262.635.458.28.947.517 1.376.84.928.7 2.011 1.736 2.446 2.853.437 1.124.323 2.652-.169 3.731-.277.61-.783 1.087-1.174 1.63-.907.796-1.692 1.221-2.62 1.685-1.978.989-5.442 1.2-6.882-.864-.27-.387-.392-.807-.481-1.334.016-.507-.054-1.025.049-1.521.112-.535.31-1.158.58-1.633 1.488-2.618 2.585-3.627 4.733-4.815zM-483.939 1591.796c.236 3.293.534 6.579.908 9.86l-1.124.516c-.272-3.27-.595-6.535-1.002-9.79l1.218-.586z" style="fill:#000;fill-opacity:1;stroke:none;stroke-width:1.01;stroke-miterlimit:4;stroke-dasharray:none;stroke-opacity:1" transform="rotate(8.865 7298.926 4501.021) scale(.84382)"/><path d="M-487.075 1593.406c.53-.313 1.039-.668 1.592-.94.577-.284 1.51-.364 2.099-.395.904-.046 1.82 0 2.713.151.379.066.747.183 1.12.274.253.142.554.22.757.427.161.163.262.4.28.628.08.978-1.099 1.656-1.763 2.074-.688.433-1.396.833-2.093 1.25-.973.5-1.739.962-2.657 1.356.274-.444.592-.86.888-1.29.077-.03.148-.08.23-.088.53-.044 1.128.266 1.566.504.41.224 1.932 1.164 2.227 1.344 1.866 1.264 3.854 2.358 5.644 3.732l.114.11-1.151.83-.061-.08c-1.648-1.498-3.672-2.526-5.51-3.76-.425-.245-.848-.496-1.277-.735-.554-.308-1.344-.838-2.037-.824-.844.453-.047-.563.158-.926.014-.024.05-.024.076-.036.082-.037.165-.072.246-.11a38.98 38.98 0 0 0 2.214-1.137c.607-.341.802-.444 1.079-.606.228-.163 1.283-.863.815-1.351-.174-.181-.385-.27-.657-.37-.304-.125-.707-.196-1.068-.254a10.512 10.512 0 0 0-2.644-.086c-1.077.074 0 0-1.508.136l-1.392.17z" style="fill:#000;fill-opacity:1;stroke:none;stroke-width:1.01;stroke-miterlimit:4;stroke-dasharray:none;stroke-opacity:1" transform="rotate(8.865 7298.926 4501.021) scale(.84382)"/><path d="M-474.32 1591.813c.316 2.865.602 5.733.92 8.598a24.3 24.3 0 0 1 .1 2.273l-1.28.527c.06-.753.065-1.507.01-2.261-.254-2.855-.532-5.714-1-8.542l1.251-.595zM-475.254 1590.761c2.905-.074 5.808-.215 8.708-.4l.83-.06-.85 1.044c-.266.01-.532.018-.798.018-2.926.107-5.85.26-8.77.477l.88-1.082z" style="fill:#000;fill-opacity:1;stroke:none;stroke-width:1.01;stroke-miterlimit:4;stroke-dasharray:none;stroke-opacity:1" transform="rotate(8.865 7298.926 4501.021) scale(.84382)"/><path d="M-473.703 1595.525a140.74 140.74 0 0 1 6.347-.733l-.797 1c-2.136.16-4.266.413-6.37.817zM-474.24 1601.515c3.227-.435 6.47-.798 9.728-.845.015 0 .908 0 1.103.09.068.03.102.106.153.16l-1.173.81c-.474-.035-.584-.047-.92-.061-3.261-.028-6.53.323-9.725.98z" style="fill:#000;fill-opacity:1;stroke:none;stroke-width:1.01;stroke-miterlimit:4;stroke-dasharray:none;stroke-opacity:1" transform="rotate(8.865 7298.926 4501.021) scale(.84382)"/></g><path d="M11.931-5.823c.258.006.516.023.773.04.16.01.264.013.4.023l.004-.02c-.182-.013-.269-.015-.4-.024-.259-.016-.517-.034-.775-.04zM11.918-5.278c.236.032.474.05.711.07.165.013.267.016.413.027l.003-.02c-.188-.015-.278-.017-.412-.027-.237-.02-.474-.038-.71-.07z" style="fill:#000;stroke:#000;stroke-width:.150658;stroke-linecap:square;stroke-miterlimit:4;stroke-dasharray:none;stroke-opacity:1" transform="matrix(3.77953 0 0 3.77953 138.994 147.203)"/><path d="M14.264-5.524c-.077.192-.096.433.004.621a.445.445 0 0 0 .19.185.607.607 0 0 0 .578-.063c.145-.104.215-.249.257-.417a.436.436 0 0 0 .013-.132c-.005-.023.008-.04-.02 0 .078.218.145.441.17.672a2.461 2.461 0 0 1 .01.486c-.03.325-.13.67-.369.905a.769.769 0 0 1-.17.13c-.166.09-.312.13-.5.07a.491.491 0 0 1-.24-.184l-.016.013a.488.488 0 0 0 .25.19c.112.036.22.036.334.004a.784.784 0 0 0 .187-.08.88.88 0 0 0 .172-.132c.242-.24.343-.588.372-.917a2.385 2.385 0 0 0-.01-.488 3.061 3.061 0 0 0-.169-.673c-.036-.03-.022-.019-.022.006a.423.423 0 0 1-.013.126.663.663 0 0 1-.248.405.596.596 0 0 1-.554.062.423.423 0 0 1-.183-.176c-.098-.182-.079-.418-.004-.604z" style="fill:#000;stroke:#000;stroke-width:.150658;stroke-linecap:square;stroke-miterlimit:4;stroke-dasharray:none;stroke-opacity:1" transform="matrix(3.77953 0 0 3.77953 122.153 145.435)"/><path d="m18.945-6.294-.063.818-.067.857c.003-.016-.014.173-.009.122" style="fill:none;fill-opacity:1;stroke:#000;stroke-width:.162657;stroke-linejoin:round;stroke-miterlimit:2;stroke-dasharray:none;stroke-opacity:1" transform="matrix(3.77953 0 0 3.77953 121.623 145.435)"/><path d="M18.628-4.87c.159.163.355.32.551.402.214.088.485.1.719-.003.21-.093.29-.262.306-.446a.575.575 0 0 0-.192-.444c-.178-.165-.42-.305-.685-.317a4.235 4.235 0 0 0-.286.008c-.032.015.052.023.055.02.176-.013.397-.055.554-.133.13-.064.263-.195.28-.338a.217.217 0 0 0-.042-.14c-.106-.136-.32-.148-.475-.146-.261.003-.54.066-.77.202" style="fill:none;fill-opacity:1;stroke:#000;stroke-width:.162657;stroke-linejoin:round;stroke-miterlimit:2;stroke-dasharray:none;stroke-opacity:1" transform="matrix(3.77953 0 0 3.77953 121.623 145.435)"/><path d="M9.57.26a.834.834 0 0 0-.404.238c-.092.094-.153.315-.057.455.029.043.076.094.15.122a.882.882 0 0 0 .804-.12.42.42 0 0 0 .085-.085c.092-.13.052-.294-.037-.411a.514.514 0 0 0-.476-.192L9.632.228a.556.556 0 0 1 .51.208c.102.135.137.319.03.463a.458.458 0 0 1-.092.09.784.784 0 0 1-.12.072.849.849 0 0 1-.593.084c-.042-.011-.087-.017-.127-.036a.406.406 0 0 1-.168-.143c-.1-.143-.032-.4.072-.505a.87.87 0 0 1 .437-.24Z" style="fill:#000;fill-opacity:1;stroke:#000;stroke-width:.0906687;stroke-linecap:butt;stroke-linejoin:round;stroke-miterlimit:4;stroke-dasharray:none;stroke-dashoffset:0;stroke-opacity:1" transform="matrix(3.77953 0 0 3.77953 122.153 145.435)"/><path d="M-470.397 250.306c.873-3.04.576-9.407-2.737-14.748-9.706-15.646-36.858-29.633-71.99-26.141-22.267 2.213-40.9 10.498-52.52 22.01-7.403 7.334-11.273 16.1-10.388 24.619.362 3.482 2.224 4.815 5.106 5.109 1.434-1.959-6.638-5.553-14.701-4.921-8.91.698-18.214 3.803-25.277 8.198-10.2 6.347-23.597 17.85-32.295 36.291-8.732 18.512-10.42 47.823-1.731 66.598 9.569 20.678 25.824 31.09 42.874 35.12 9.534 2.254 27.621 2.426 21.97-2.384-5.713 2.702-4.865 7.75-3.963 11.229 2.476 9.548 11.382 17.44 22.953 22.207 36.683 15.112 91.535 11.51 120.834-11.433 9.032-7.072 15.073-15.269 12.34-23.43-1.083-3.235-5.564-5.38-7.497-4.905 1.834 1.558 4.79 2.696 9.285 2.364 14.957-1.104 28.232-4.754 39.907-14.198 14.58-11.793 24.33-31.247 24.33-52.163 0-25.04-10.816-47.3-22.488-59.345-18.862-19.463-43.566-25.148-59.217-20.348" style="display:inline;fill:#fff9f3;fill-opacity:1;stroke:#000;stroke-width:.9;stroke-linejoin:round;stroke-miterlimit:2;stroke-dasharray:none" transform="translate(43.112 41.287)"/><path d="M25.547 16.695 21.35-12.761l24.971-3.558 4.197 29.455zm0 0" style="fill:#fff;fill-opacity:1;fill-rule:nonzero;stroke:#fff;stroke-width:.0190716;stroke-linecap:butt;stroke-linejoin:miter;stroke-miterlimit:10;stroke-opacity:1" transform="rotate(3.416 -2307.767 2182.986) scale(3.77953)"/><path d="m26.006 10.749-3.193-22.412 22.41-3.193 3.193 22.412zm0 0" style="fill:#f5f5f5;fill-opacity:1;fill-rule:nonzero;stroke:#fafafa;stroke-width:.0161472;stroke-linecap:butt;stroke-linejoin:miter;stroke-miterlimit:10;stroke-opacity:1" transform="rotate(3.416 -2307.767 2182.986) scale(3.77953)"/><path d="m26.006 10.749-3.193-22.412 22.41-3.193 3.193 22.412zm0 0" style="fill:none;stroke:#000;stroke-width:.00670109;stroke-linecap:butt;stroke-linejoin:miter;stroke-miterlimit:10;stroke-opacity:1" transform="rotate(3.416 -2307.767 2182.986) scale(3.77953)"/><path d="M25.547 16.695 21.35-12.761l24.971-3.558 4.197 29.455zm0 0" style="fill:none;stroke:#000;stroke-width:.132292;stroke-linecap:butt;stroke-linejoin:miter;stroke-miterlimit:10;stroke-dasharray:none;stroke-opacity:1" transform="rotate(3.416 -2307.767 2182.986) scale(3.77953)"/><path d="M25.556-.4c.51-.07 1.02-.147 1.53-.216 1.077-.145 2.152-.306 3.228-.463 1.072-.156 2.284-.326 3.427-.484 1.173-.162 2.34-.324 3.516-.494 1.252-.182 2.505-.352 3.754-.55 1.036-.157 2.17-.289 3.127-.443.39-.063.78-.112 1.17-.173l.005.035c-.39.06-.78.109-1.169.172-.92.149-2.092.285-3.128.443-1.25.198-2.502.368-3.754.55-1.182.17-2.344.332-3.517.494-1.142.158-2.34.325-3.426.484-1.076.158-2.152.318-3.23.464-.509.068-1.017.146-1.526.216L25.556-.4z" style="fill:#000;fill-opacity:1;stroke:#000;stroke-width:.0762861;stroke-linecap:butt;stroke-linejoin:round;stroke-miterlimit:4;stroke-dasharray:none;stroke-dashoffset:0;stroke-opacity:1" transform="rotate(3.416 -2307.767 2182.986) scale(3.77953)"/><path d="M44.314-3.634c.22.061.68.164.896.208.185.038.388.083.574.115.029.007.075.014.043.057-.007.011-.023.014-.034.02-.031.016-.149.07-.176.082-.24.105-.762.36-.976.486-.07.041-.29.164-.372.22l-.012-.034c.079-.05.31-.184.374-.22a17.498 17.498 0 0 1 1.145-.565c.009-.004.015-.013.024-.012.007 0 .009.01.012.015.007.01-.064-.079-.034-.014-.186-.032-.388-.078-.573-.116a28.111 28.111 0 0 1-.895-.207l.004-.035z" style="fill:#000;fill-opacity:1;stroke:#000;stroke-width:.0762861;stroke-linecap:butt;stroke-linejoin:round;stroke-miterlimit:4;stroke-dasharray:none;stroke-dashoffset:0;stroke-opacity:1" transform="rotate(3.416 -2307.767 2182.986) scale(3.77953)"/><path d="M37.1 8.283c-.041-.25-.08-.501-.11-.753-.05-.402-.116-.802-.176-1.203-.01-.064-.069-.527-.168-1.222-.122-.85-.28-2.052-.46-3.304-.373-2.602-.793-5.426-.84-5.803-.063-.504-.182-1.293-.253-1.796L34.9-7.185c-.06-.44-.126-.88-.193-1.321a52.66 52.66 0 0 1-.187-1.258 66.4 66.4 0 0 0-.176-1.26c-.047-.261-.117-.911-.159-1.173l-.01-.058.028-.008.01.058c.042.262.112.912.159 1.174.062.42.122.84.176 1.26.055.42.12.84.186 1.258.067.44.134.88.194 1.321.037.277.755 5.237 1.298 9.07.107.76.194 1.479.283 2.105.185 1.307.315 2.223.334 2.337.06.4.125.8.175 1.203.032.251.07.502.111.752l-.028.008z" style="fill:#000;fill-opacity:1;stroke:#000;stroke-width:.0762859;stroke-linecap:butt;stroke-linejoin:round;stroke-miterlimit:4;stroke-dasharray:none;stroke-dashoffset:0;stroke-opacity:1" transform="rotate(3.416 -2307.767 2182.986) scale(3.77953)"/><path d="M33.85-11.23c.048-.192.077-.468.103-.646.023-.155.09-.598.117-.752.004-.03.02-.074.059-.05.017.01.033.04.043.055.083.148.23.484.287.623.067.16.264.514.365.664.026.04.018.023.04.056.022.032-.027.024-.027.024-.026-.026-.027-.034-.044-.06a4.719 4.719 0 0 1-.364-.667 7.91 7.91 0 0 0-.284-.617l-.03-.044c0-.003.002-.012 0-.01-.008.01-.01.028-.012.038-.026.154-.094.596-.117.75-.026.18-.059.456-.103.65-.012-.005-.023-.01-.034-.013z" style="fill:#000;fill-opacity:1;stroke:#000;stroke-width:.0762859;stroke-linecap:butt;stroke-linejoin:round;stroke-miterlimit:4;stroke-dasharray:none;stroke-dashoffset:0;stroke-opacity:1" transform="rotate(3.416 -2307.767 2182.986) scale(3.77953)"/><path d="M25.544-.31c.081-.017.162-.035.243-.049.56-.09 1.106-.17 1.664-.232 1.119-.123.57-.098 1.753-.254 2.091-.275 3.997-.586 6.088-.832.858-.1 2.042-.313 2.9-.427 1.42-.19 2.412-.324 3.83-.563 1.225-.205 1.76-.3 2.44-.386l.028-.097c-.71.12-1.37.213-2.464.398-1.422.24-2.418.375-3.84.564-.855.114-2.036.325-2.89.426-2.091.245-3.997.557-6.088.831-1.176.155-.64.132-1.752.254-.56.06-1.106.142-1.666.23-.081.013-.138.026-.22.042z" style="fill:red;stroke:red;stroke-width:.15875;stroke-linecap:square;stroke-miterlimit:4;stroke-dasharray:none" transform="rotate(3.416 -2307.767 2182.986) scale(3.77953)"/><g style="display:inline;stroke-width:1.01;stroke-dasharray:none"><path d="M-773.582 3148.227c.837 1.202 1.351 2.585 1.938 3.915.298.674 1.354 2.992 1.638 3.618.922 2.122 1.931 4.234 2.479 6.492l-1.549.625c-.391-2.263-1.407-4.357-2.311-6.448l-.868-1.874c-.27-.577-.543-1.153-.811-1.73-.59-1.271-1.116-2.606-1.974-3.727l1.458-.87z" style="fill:#000;fill-opacity:1;stroke:none;stroke-width:1.01;stroke-miterlimit:4;stroke-dasharray:none;stroke-opacity:1" transform="rotate(-7.298 -15605.768 -4935.188) scale(.68699)"/><path d="M-779.789 3155.54c3.049.437 6.115.779 9.197.778l-1.142 1.148c-3.1-.106-6.176-.477-9.264-.744l1.21-1.182zM-763.989 3149.531c-.398 2.998-.791 6.009-.88 9.035-.02.623 0 1.247 0 1.87.066 1.788.016.977.129 2.435l-1.543.543c-.055-1.496-.031-.667-.06-2.489.041-3.643.37-7.269.744-10.891l1.61-.503z" style="fill:#000;fill-opacity:1;stroke:none;stroke-width:1.01;stroke-miterlimit:4;stroke-dasharray:none;stroke-opacity:1" transform="rotate(-7.298 -15605.768 -4935.188) scale(.68699)"/><path d="M-766.647 3149.173c3.837.106 7.673.303 11.51.463l1.058.045-1.276 1.142c-.341-.025-.682-.05-1.022-.073-3.854-.243-7.713-.408-11.574-.415l1.304-1.16zM-764.693 3155.328c2.895.118 5.79.252 8.686.365l-1.232 1.093c-2.908-.158-5.818-.299-8.73-.3zM-755.365 3151.74c4.076.095 8.145.44 12.216.703 2.223.132 1.221.075 3.003.172l-1.028 1.243c-1.721-.177-.75-.083-2.915-.275-4.11-.309-8.223-.583-12.341-.556l1.065-1.287z" style="fill:#000;fill-opacity:1;stroke:none;stroke-width:1.01;stroke-miterlimit:4;stroke-dasharray:none;stroke-opacity:1" transform="rotate(-7.298 -15605.768 -4935.188) scale(.68699)"/><path d="M-747.639 3152.082a405.231 405.231 0 0 0-.211 10.07c-.01.846-.005 1.693-.015 2.54l-1.612.435c.063-.851.102-1.704.122-2.557.073-3.342.17-6.687.109-10.03l1.607-.458zM-737.71 3151.595c-.568 3.113-.602 6.28-.542 9.434a31.14 31.14 0 0 1-.065 2.376l-1.612.43c.13-.78.182-1.567.19-2.357-.024-3.165.027-6.334.418-9.478l1.61-.404z" style="fill:#000;fill-opacity:1;stroke:none;stroke-width:1.01;stroke-miterlimit:4;stroke-dasharray:none;stroke-opacity:1" transform="rotate(-7.298 -15605.768 -4935.188) scale(.68699)"/><path d="M-738.623 3150.842c3.579-.14 7.161-.091 10.74-.048.406.01.81.012 1.216.018l-1.085 1.14-1.175-.053c-3.598-.101-7.207-.127-10.8.17l1.104-1.227zM-737.936 3156.104c2.489.113 4.979.2 7.469.286l-1.122 1.11c-2.499-.128-5-.241-7.504-.22l1.157-1.177zM-738.661 3162.92c4.168.088 8.325.5 12.477.865l-1.081 1.077c-4.14-.48-8.312-.935-12.485-.747l1.089-1.195zM-722.196 3151.436c.028 4.032-.006 8.065-.026 12.097l-1.49.485c.166-4.015.22-8.038-.018-12.052l1.534-.53z" style="fill:#000;fill-opacity:1;stroke:none;stroke-width:1.01;stroke-miterlimit:4;stroke-dasharray:none;stroke-opacity:1" transform="rotate(-7.298 -15605.768 -4935.188) scale(.68699)"/><path d="M-724.508 3151.187c2.065.207 4.197.174 6.204.782.672.203 2.024.712 2.373 1.52.147.337.005.736.008 1.104-.259.382-.458.811-.776 1.145-.682.715-1.854 1.394-2.721 1.83-1.647.827-2.864 1.379-4.563 1.818-.57.106-.98.186-.984-.563 0-.052.032-.11.078-.133.507-.258 1.037-.465 1.556-.697.153.067.515.224.64.293.625.343 1.22.739 1.839 1.092.71.406 3.433 1.904 4.016 2.225 2.568 1.326 5.103 2.717 7.688 4.008l-1.386 1.092 1.247-1.186-1.236 1.108c-.517-.353-1.08-.661-1.622-.967a176.942 176.942 0 0 0-5.884-3.159c-5.756-3.066.93.488-4.104-2.169-.278-.147-1.685-1.008-2.196-1.073-.04-.01-.077.027-.115.04.425-.21.862-.397 1.276-.628.027-.015-.068-.01-.086-.035-.072-.095-.111-.21-.173-.31-.023-.037-.106-.067-.081-.103.032-.046.11-.01.166-.02.142-.023.284-.051.427-.078 2.891-.784-2.134.599 1.835-.589.03-.01.059.047.087.034 1.315-.616 2.593-1.335 3.5-2.5.061-.242.265-.49.182-.726-.254-.722-1.629-1.195-2.132-1.343-2.002-.588-4.132-.577-6.195-.62l1.133-1.191zM-773.318 3147.805c-2.038 3.24-4.117 6.454-6.173 9.683-.905 1.442-1.899 2.852-2.492 4.457l-1.517.326c.648-1.644 1.68-3.09 2.631-4.572 1.544-2.43 3.135-4.83 4.617-7.297.273-.455.523-.923.796-1.378.2-.333.415-.656.622-.984l1.516-.235z" style="fill:#000;fill-opacity:1;stroke:none;stroke-width:1.01;stroke-miterlimit:4;stroke-dasharray:none;stroke-opacity:1" transform="rotate(-7.298 -15605.768 -4935.188) scale(.68699)"/></g><path d="M38.372-4.282c-.039.216-.007.47.138.645a.473.473 0 0 0 .236.151.646.646 0 0 0 .589-.189c.128-.139.17-.305.177-.489a.46.46 0 0 0-.015-.14c-.01-.022 0-.044-.02.004.127.21.245.428.322.663a2.609 2.609 0 0 1 .113.502c.04.345.01.724-.188 1.02a.816.816 0 0 1-.149.171c-.154.13-.297.203-.506.18a.523.523 0 0 1-.29-.139l-.013.017c.02.019.048.04.07.055.067.046.148.08.231.089a.6.6 0 0 0 .349-.067.832.832 0 0 0 .177-.123.932.932 0 0 0 .151-.175c.2-.3.23-.684.19-1.032a2.525 2.525 0 0 0-.115-.506 3.25 3.25 0 0 0-.321-.663c-.044-.024-.028-.015-.022.011a.445.445 0 0 1 .014.134c-.007.178-.048.339-.172.474a.633.633 0 0 1-.562.183.45.45 0 0 1-.228-.143c-.141-.169-.172-.418-.135-.628z" style="fill:#000;stroke:#000;stroke-width:.159821;stroke-linecap:square;stroke-miterlimit:4;stroke-dasharray:none;stroke-opacity:1" transform="rotate(3.416 -2307.767 2182.986) scale(3.77953)"/><path d="M40.845-4.539c.24-.045.58-.09.82-.139.126-.026.352-.047.476-.076l-.003-.022c-.13.03-.363.053-.474.076-.24.05-.581.095-.822.14zM40.898-4.01c.216-.042.532-.078.749-.113.143-.024.398-.054.542-.076l.023-.004-.001-.022a1.267 1.267 0 0 1-.023.004c-.144.021-.399.052-.543.076-.216.035-.532.071-.747.113z" style="fill:#000;stroke:#000;stroke-width:.159821;stroke-linecap:square;stroke-miterlimit:4;stroke-dasharray:none;stroke-opacity:1" transform="rotate(3.416 -2307.117 2161.152) scale(3.77953)"/><path d="M34.578-1.086a.834.834 0 0 0-.355.307c-.074.109-.094.337.024.458.037.036.093.079.17.093a.882.882 0 0 0 .77-.262.421.421 0 0 0 .068-.098c.068-.144 0-.299-.11-.398a.514.514 0 0 0-.503-.104l-.008-.038a.556.556 0 0 1 .539.114c.124.115.192.29.112.45a.46.46 0 0 1-.075.105.784.784 0 0 1-.105.092.849.849 0 0 1-.569.188c-.044-.003-.089-.001-.131-.013a.406.406 0 0 1-.19-.11c-.126-.124-.104-.388-.02-.51a.87.87 0 0 1 .388-.315z" style="fill:#000;fill-opacity:1;stroke:#000;stroke-width:.0906682;stroke-linecap:butt;stroke-linejoin:round;stroke-miterlimit:4;stroke-dasharray:none;stroke-dashoffset:0;stroke-opacity:1" transform="rotate(3.416 -2307.767 2182.986) scale(3.77953)"/><path d="M43.258-6.051c-.22.111-.371.303-.495.58-.099.222-.106.728.083 1.035a.669.669 0 0 0 .26.26.839.839 0 0 0 .975-.182c.05-.051.098-.104.139-.17a.785.785 0 0 0 .092-.2c.085-.301-.032-.67-.203-.926a1.212 1.212 0 0 0-.142-.179c-.198-.2-.41-.262-.613-.209l-.018-.087c.22-.053.446.012.659.23.054.055.105.12.151.19.196.296.313.708.211 1.046a.842.842 0 0 1-.1.211 1.035 1.035 0 0 1-.146.176c-.216.215-.495.347-.824.248-.065-.02-.131-.03-.195-.069a.878.878 0 0 1-.294-.306c-.198-.315-.191-.902-.08-1.15.135-.297.3-.468.543-.589z" style="fill:#000;fill-opacity:1;stroke:#000;stroke-width:.0906686;stroke-linecap:butt;stroke-linejoin:round;stroke-miterlimit:4;stroke-dasharray:none;stroke-dashoffset:0;stroke-opacity:1" transform="rotate(3.416 -2307.767 2182.986) scale(3.77953)"/></svg>