<svg xmlns="http://www.w3.org/2000/svg" xmlns:xlink="http://www.w3.org/1999/xlink" id="svg61879" width="450" height="250" preserveAspectRatio="none" version="1.1" viewBox="-10 -45 450 250"><style id="style61793" type="text/css">.grid{stroke:#9e9ed1;stroke-width:.4}.axes{stroke:#000;stroke-width:.9}.axes-arrows{stroke-width:1.2100000000000002;stroke:#000;fill:none;stroke-linecap:round;stroke-linejoin:round}</style><defs id="defs61801"><path id="STIXWEBNORMALI-1D465" stroke-width="1" d="m305 288 45 69c26 40 61 84 111 84 32 0 49-12 49-33 0-19-13-42-39-42-22 0-27 9-44 9-30 0-41-16-55-38l-55-85c30-62 53-197 98-197 16 0 40 14 61 57l14-10C478 87 433-9 375-9c-41 0-60 41-73 77l-40 113-63-98C167 34 138-9 82-9 46-9 30 16 30 38c0 16 13 37 38 37 26 0 22-20 47-20 12 0 38 10 70 59l65 101-33 92c-17 48-43 89-98 89-13 0-28-2-38-6l-3 18 132 33c44-24 63-65 75-98z"/><path id="STIXWEBMAIN-2192" stroke-width="1" d="M856 258v-10c-96-41-172-115-238-191l-20 19c23 33 52 65 82 96 9 9 14 20 14 28 0 10-8 20-26 20H70v66h599c10 0 26 12 26 22 0 9-4 15-14 25-29 28-60 63-82 96l20 19c65-75 141-150 237-190Z"/><path id="STIXWEBMAIN-2026" stroke-width="1" d="M888 43c0-29-26-54-56-54-31 0-55 24-55 55s25 56 56 56c29 0 55-27 55-57zm-333 0c0-29-26-54-56-54-31 0-55 24-55 55s25 56 56 56c29 0 55-27 55-57zm-333 0c0-29-26-54-56-54-31 0-55 24-55 55s25 56 56 56c29 0 55-27 55-57z"/><path id="STIXWEBMAIN-30" stroke-width="1" d="M476 330c0-172-63-344-226-344C79-14 24 172 24 336c0 177 69 340 230 340 131 0 222-141 222-346Zm-96-5c0 208-44 325-132 325-83 0-128-118-128-321S164 12 250 12c85 0 130 115 130 313z"/><path id="STIXWEBMAIN-34" stroke-width="1" d="M473 167H370V0h-78v167H12v64l314 445h44V231h103Zm-181 64v343L52 231Z"/><path id="STIXWEBMAIN-38" stroke-width="1" d="M445 155c0-103-77-169-197-169C135-14 56 55 56 149c0 69 23 108 130 183C83 417 62 455 62 520c0 96 83 156 194 156 99 0 168-65 168-143 0-75-35-109-134-162 123-82 155-136 155-216Zm-90 378c0 69-41 115-109 115-67 0-110-37-110-99s37-108 125-160c68 40 94 82 94 144zm-84-261-59 40c-59-48-80-89-80-154 0-92 51-144 127-144 65 0 110 45 110 110 0 62-30 102-98 148z"/><clipPath id="clipPath103167" clipPathUnits="userSpaceOnUse"/><clipPath id="clipPath103173" clipPathUnits="userSpaceOnUse"/><clipPath id="clipPath103179" clipPathUnits="userSpaceOnUse"/><clipPath id="clipPath103185" clipPathUnits="userSpaceOnUse"/></defs><g id="g168656"><g id="grid-2" transform="translate(17.686 -21.415)"><path id="path68667" d="M32 216V0" class="grid" style="stroke:#9e9ed1;stroke-width:.4"/><path id="path68669" d="M72 216V0" class="grid" style="stroke:#9e9ed1;stroke-width:.4"/><path id="path68671" d="M112 216V0" class="grid" style="stroke:#9e9ed1;stroke-width:.4"/><path id="path68673" d="M152 216V0" class="grid" style="stroke:#9e9ed1;stroke-width:.4"/><path id="path68675" d="M192 198.247V0" class="grid" style="stroke:#9e9ed1;stroke-width:.4"/><path id="path68677" d="M232 216V0" class="grid" style="stroke:#9e9ed1;stroke-width:.4"/><path id="path68679" d="M272 216V0" class="grid" style="stroke:#9e9ed1;stroke-width:.4"/><path id="path68681" d="M312 216V0" class="grid" style="stroke:#9e9ed1;stroke-width:.4"/><path id="path68683" d="M352 198.247V0" class="grid" style="stroke:#9e9ed1;stroke-width:.4"/><path id="path68685" d="M0 188h380" class="grid" style="stroke:#9e9ed1;stroke-width:.4"/><path id="path68687" d="M0 148h380" class="grid" style="stroke:#9e9ed1;stroke-width:.4"/><path id="path68689" d="M0 108h380" class="grid" style="stroke:#9e9ed1;stroke-width:.4"/><path id="path68691" d="M0 68h380" class="grid" style="stroke:#9e9ed1;stroke-width:.4"/><path id="path68693" d="M0 28h11.68m12.942 0H380" class="grid" style="stroke:#9e9ed1;stroke-width:.4"/></g><g id="axes-2" transform="translate(17.686 -21.415)"><path id="path68696" d="M0 188h390.657" class="axes" style="stroke:#000;stroke-width:.9"/><path id="path68698" d="M32 216V-9.837" class="axes" style="stroke:#000;stroke-width:.9"/></g><g id="axes arrows-0" transform="translate(17.686 -21.415)"><path id="path68701" d="M385.247 180.786c0 2.886 4.058 7.214 5.41 7.214-1.352 0-5.41 4.328-5.41 7.214" class="axes-arrows" style="fill:none;stroke:#000;stroke-width:1.21;stroke-linecap:round;stroke-linejoin:round"/><path id="path68703" d="M24.786-4.427c2.886 0 7.214-4.058 7.214-5.41 0 1.352 4.328 5.41 7.214 5.41" class="axes-arrows" style="fill:none;stroke:#000;stroke-width:1.21;stroke-linecap:round;stroke-linejoin:round"/></g><g id="notch labels-2" style="fill:#b8b8de;stroke:none" transform="translate(17.686 -21.415)"><g id="g68721" transform="matrix(.01808 0 0 -.01808 15.266 213.128)"><use xlink:href="#STIXWEBMAIN-30" id="use68719" x="0" y="0"/></g><g id="g68725" transform="matrix(.01808 0 0 -.01808 187.475 213.128)"><use xlink:href="#STIXWEBMAIN-34" id="use68723" x="0" y="0"/></g><g id="g68729" transform="matrix(.01808 0 0 -.01808 347.475 213.128)"><use xlink:href="#STIXWEBMAIN-38" id="use68727" x="0" y="0"/></g><g id="g68733" transform="matrix(.01808 0 0 -.01808 13.626 34.107)"><use xlink:href="#STIXWEBMAIN-34" id="use68731" x="0" y="0"/></g></g></g><g id="layer5"><path id="path103556-1" d="M397.686 18.194 353.9 133.312c-.584 1.557-1.632 4.244-2.695 6.547-1.67 3.62-4.034 7.982-6.132 10.665-4.97 6.356-11.238 7.682-17.293 4.051-4.477-2.685-8.775-8.206-13.385-16.12a220.3 220.3 0 0 1-2.193-3.899l-51.98-98.007c-2.603-4.334-5.47-8.432-8.572-11.06-2.47-2.091-5.556-3.87-9.816-3.697-3.568.144-7.435 2.112-10.953 5.3-2.582 2.34-4.983 5.261-8.135 9.441l-79.675 113.592s-1.38 1.772-2.245 2.938c-4.614 6.228-7.955 2.973-9.993 1.048-1.175-1.11-3.994-4.205-3.994-4.205L17.686 30.718" style="fill:none;stroke:red;stroke-width:1.3;stroke-dasharray:none"/><path id="path108827" d="m195.839-56.4 127.534-181.376" style="fill:#f0f;stroke:#f0f;stroke-width:1.3;stroke-miterlimit:2"/><path id="path69835" d="m9.105-286.59 109.153 119.188s2.316 2.709 3.908 4.119c2.03 1.798 4.864 5.18 10.079-.962.94-1.107 2.245-2.938 2.245-2.938l79.675-113.592c14.817-20.214 27.452-19.024 38.472 1.995.533 1.017 1.244 2.227 1.836 3.34l42.219 79.62c9.843 18.63 19.697 35.589 29.55 35.588 9.191-.001 18.381-21.956 27.606-46.188l35.257-92.695" style="fill:none;stroke:#f0f;stroke-width:1.3;stroke-dasharray:none"/><path id="path105257" d="m389.105-252.263-43.786 115.118c-.584 1.557-1.955 4.637-2.738 6.462-1.757 4.092-4.163 7.98-6.26 10.664-8.645 11.056-19.662 6.635-30.507-11.984a220.3 220.3 0 0 1-2.193-3.898l-49.148-92.687c-.592-1.114-1.303-2.324-1.836-3.341-11.02-21.019-23.655-22.21-38.472-1.995L134.49-120.332s-1.306 1.832-2.245 2.938c-5.215 6.142-8.048 2.76-10.08.962-1.591-1.41-3.907-4.119-3.907-4.119L9.105-239.739" style="fill:none;stroke:red;stroke-width:1.3;stroke-dasharray:none"/><path id="path19504" d="M397.622-212.474 353.836-97.356c-.584 1.557-1.632 4.244-2.695 6.548-1.671 3.62-4.034 7.98-6.132 10.664-4.97 6.356-11.238 7.683-17.293 4.051-4.477-2.685-8.775-8.206-13.385-16.12a220.3 220.3 0 0 1-2.193-3.899l-49.147-92.687c-.592-1.113-1.303-2.323-1.837-3.34-5.857-11.173-12.485-16.743-19.94-16.474-6.043.217-11.59 5.009-18.532 14.478L143.007-80.543s-1.38 1.772-2.245 2.938c-4.614 6.228-7.955 2.974-9.993 1.048-1.175-1.11-3.994-4.205-3.994-4.205L17.622-199.95" style="fill:none;stroke:#0ff;stroke-width:1.3;stroke-dasharray:none"/><path id="path19560" d="m234.55-195.553 76.39 144.066" style="fill:#e5f6ff;stroke:#f0f;stroke-width:2.5;stroke-miterlimit:2"/><path id="path335911" d="m390.89-322.583-43.786 115.118c-.584 1.557-1.632 4.244-2.695 6.548-1.671 3.62-4.034 7.981-6.132 10.664-4.97 6.356-11.238 7.683-17.293 4.051-4.477-2.685-8.775-8.205-13.385-16.12a220.3 220.3 0 0 1-2.193-3.898l-51.98-98.008c-2.362-4.298-5.15-8.427-8.252-11.054-2.47-2.092-5.826-3.545-9.786-3.501-3.57.04-7.743 1.846-11.26 5.034-2.582 2.34-5.24 5.497-8.178 9.505L136.275-190.65s-1.38 1.771-2.245 2.937c-4.614 6.228-7.955 2.974-9.993 1.048-1.175-1.11-3.994-4.204-3.994-4.204L10.89-310.058" style="fill:none;stroke:#0ff;stroke-width:1.3;stroke-dasharray:none"/><circle id="path336139" cx="283.331" cy="-70.782" r="12.257" style="opacity:.5;fill:#e5f6ff;stroke:#0ff;stroke-width:1;stroke-miterlimit:2"/><path id="path103556-1-1-6" d="m397.502-225.202-43.786 115.118c-.584 1.557-1.632 4.244-2.695 6.547-1.671 3.62-4.034 7.982-6.132 10.665-4.97 6.356-11.238 7.682-17.293 4.051-4.477-2.685-8.775-8.206-13.385-16.121a220.3 220.3 0 0 1-2.193-3.898l-49.147-92.687c-.592-1.114-1.56-2.924-2.094-3.942-5.858-11.172-12.228-16.141-19.684-15.873-6.043.218-11.59 5.01-18.531 14.479L142.887-93.271s-1.381 1.772-2.245 2.938c-4.614 6.228-7.955 2.973-9.993 1.048-1.175-1.11-3.994-4.205-3.994-4.205L17.502-212.678" style="fill:none;stroke:#f0f;stroke-width:1.3;stroke-dasharray:none"/><path id="path362085" d="M8.8 500.567h109.156c3.259-.176 3.78-2.141 4.212-6.05l9.343-91.611c.273-2.975 2.612-3.04 2.612-3.04h79.736c1.196.01 3.22 1.49 3.577 2.916l31.025 125.113c.77 2.743 1.554 4.443 2.875 4.426h51.98c1.137 0 3.537-3.621 3.537-3.621l35.112-171.873c.578-2.726 1.463-5.027 3.048-5.07H388.8" style="fill:none;stroke:#f0f;stroke-width:1.30001;stroke-dasharray:none"/><path id="path369129" d="M580.625 113.374h109.157c3.26-.175 3.78-2.14 4.212-6.05l9.343-91.61c.273-2.976 2.613-3.04 2.613-3.04h79.735c1.197.01 3.22 1.489 3.577 2.915l31.025 125.114c.77 2.742 1.554 4.443 2.875 4.425h51.98c1.137 0 3.537-3.62 3.537-3.62l35.112-171.873c.578-2.726 1.463-5.028 3.048-5.071h43.788" style="fill:none;stroke:red;stroke-width:1.30001;stroke-dasharray:none"/><rect id="rect372188" width="28" height="8.876" x="-163.472" y="228.423" ry="2.121" style="opacity:.5;fill:#e5f6ff;stroke:none;stroke-width:1.3;stroke-miterlimit:2;stroke-dasharray:none"/></g></svg>