<svg xmlns="http://www.w3.org/2000/svg" width="700" height="200" aria-hidden="true" viewBox="0 -19.033 700 200"><path d="M-625.91-350.145c-1.637-2.826-4.187-5.006-6.583-6.291-.901-.471-1.863-.817-2.795-1.226-6.02-2.13-12.472-2.52-18.724-1.212-1.453.304-2.868.766-4.302 1.15-8.212 2.871-15.777 7.374-22.544 12.819-1.414 1.138-2.747 2.372-4.121 3.559-4.52 4.607-9.497 9.595-10.526 16.282-.632 4.1.014 5.245.905 9.192.728 1.426 1.234 2.99 2.184 4.28 4.954 6.725 15.135 11.729 22.804 14.439 2.354.832 4.784 1.434 7.176 2.151 10.137 2.314 20.876 3.004 30.928-.153 1.217-.382 2.374-.936 3.56-1.404 1.381-.884 4.215-1.874 4.487-3.93.182-1.377-1.327-1.933-2.268-2.373" style="opacity:1;fill:none;fill-opacity:.979275;stroke:#000;stroke-width:1.4;stroke-linejoin:round;stroke-miterlimit:2" transform="translate(-195.843 231.45)"/><path d="M-271.983-350.978c4.805-1.818 9.974-2.133 15.07-1.843 1.668.159 3.344.25 5.004.475 10.36 1.405 20.497 4.458 29.86 9.107 1.758 1.009 3.568 1.933 5.276 3.026 5.628 3.603 11.007 8.21 13.826 14.415.606 1.332.96 2.764 1.44 4.146.658 3.572 1.06 4.562.874 8.186-.28 5.457-2.409 10.49-5.598 14.866-2.576 2.784-3.095 3.666-6.289 5.818-5.614 3.782-12.22 5.384-18.868 6.068-9.278.496-18.665.513-27.797-1.437-1.932-.57-4.365-1.019-5.487-2.917.387-.513 1.73 2.105 1.75 2.407.426 3.957-2.061 6.148-5.136 8.205-2.222 1.064-2.76 1.456-5.243 2.061-4.766 1.162-9.737.941-14.58.574-6.967-.857-13.882-2.138-20.37-4.93-3.507-1.542-7.02-3.153-10.175-5.351-.513-.452-.617-.501-1.013-.983-.095-.115-.23-.569-.349-.624-.103-.048-.217-.07-.326-.106.28.85.337 1.8.438 2.695.151 3.515-.697 6.045-3.367 8.512-.76.555-1.479 1.173-2.28 1.666-6.16 3.786-13.596 4.738-20.668 5.055-1.74-.02-3.481.022-5.22-.06-8.444-.397-16.827-2.047-24.892-4.531-1.317-.49-2.659-.916-3.95-1.468-4.193-1.794-8.003-4.442-10.535-8.287-.55-1.039-1.974-3.13-1.086-4.316 2.03.05 3.846 3.143 5.044 4.457 2.43 3.85 4.073 7.982 2.584 12.54-.447.87-.794 1.8-1.343 2.61-4.327 6.384-12.136 8.411-19.325 9.374-1.946.144-3.888.374-5.839.431-10.773.318-21.468-1.724-31.82-4.525-9.432-2.906-18.956-6.166-27.027-12.013-1.97-1.696-4.002-3.42-5.076-5.82 1.72 1.416 2.897 4.582 3.703 6.547.41 1.896.753 2.694.466 4.68-.598 4.141-3.66 7.2-6.847 9.582-3.307 1.934-3.827 2.476-7.595 3.664-6.426 2.027-13.31 1.858-19.952 1.497-1.827-.236-3.665-.406-5.483-.707-8.454-1.401-16.695-4.146-24.077-8.528-4.36-2.852-9.336-6.138-10.108-11.737.014-1.112.053-3.043.772-.704.595 3.06.917 6.16-.193 9.158-.317.628-.577 1.288-.952 1.884-3.037 4.816-8.488 6.331-13.879 6.659-1.59-.017-3.183.05-4.77-.052-9.512-.608-18.788-3.35-27.693-6.584-1.787-.772-3.6-1.484-5.36-2.316a98.148 98.148 0 0 1-21.932-14.224c-4.743-4.509-9.738-9.343-11.997-15.64-.044-.475-.22-.957-.132-1.427.065-.35.314-.654.565-.906 1.285-1.29 3.298-.969 4.875-.615" style="opacity:1;fill:none;fill-opacity:.979275;stroke:#000;stroke-width:1.4;stroke-linejoin:round;stroke-miterlimit:2" transform="translate(-195.843 231.45)"/><path d="M69.547 73.385c-1.11-2.495-3.56-4.186-5.996-5.44-4.595-2.364-10.241-2.72-15.469-1.745-6.151 1.148-12.234 4.299-14.848 10.617-1.13 2.73-1.446 5.436-.33 8.05 1.345 3.147 3.365 5.816 6.188 7.719 2.404 1.62 5.156 3.054 8.1 3.57 5.333.938 10.67.394 15.246-1.844 3.727-1.821 6.835-4.564 8.037-8.495.947-3.093.867-6.458-.494-9.24a5.816 5.816 0 0 0-.766-1.152" style="display:inline;fill:#e5f6ff;fill-opacity:1;stroke:#000;stroke-width:1.1;stroke-linecap:butt;stroke-linejoin:miter;stroke-miterlimit:6;stroke-dasharray:none;stroke-dashoffset:0;stroke-opacity:1"/><path d="M157.41 49.838c-2.505-6.626-2.453-13.852 1.56-20.142 3.532-5.538 12.351-9.802 18.288-10.217 19.296-1.348 37.736 6.927 50.054 15.457 6.134 4.247 11.896 8.809 16.77 13.273 1.071.982 1.64 1.651.842 1.453-6.653-2.035-10.41-11.014-7.205-17.77 3.012-6.35 10.44-9.811 17.16-11.357 18.044-4.148 40.339.914 54.506 12.216 4.994 3.983 9.322 8.102 11.825 12.016.57.893.434 1.464-.3 1.039-3.762-2.323-4.86-7.049-5.992-11.022-1.844-6.469-.927-14.181 4.181-19.016 7.471-7.07 19.577-8.7 29.438-8.277 14.918.641 30.227 4.933 42.237 11.29 7.932 4.199 15.258 9.87 20.54 17.06 2.562 3.486 4.51 7.402 5.854 11.528.944 3.161-1.916-.133-2.35-3.06-1.285-8.684 4.605-16.478 11.68-21.234 8.794-5.91 20.721-9.778 37.365-8.578 26.232 1.892 45.876 20.695 45.276 35.754-.034.722-1.013-.264-.31-.632 3.551-1.718 7.421-2.656 11.277-3.26 12.428-1.948 25.286-1.371 38.53 4.394 8.952 3.897 19.494 12.393 23.423 22.3 3.197 8.063 2.73 18.121-1.221 25.728-4.684 9.016-13.958 14.147-23.07 16.76-9.048 2.594-20.882 3.308-29.652 1.339-2.544-.571-6.7-2.511-7.119-3.921 1.146-.137 1.871 1.965 2.148 2.91.116.396.127.822.112 1.235-.127 3.485-2.841 6.074-5.582 7.655-2.236 1.29-2.855 1.517-5.443 2.15-4.895 1.195-10.006 1.106-14.968.595-7.157-.737-14.232-2.2-20.881-5.11-3.628-1.586-7.229-3.311-10.499-5.59-1.822-1.27-.182-3.694.222-2.32.915 3.108.779 6.869-1.024 9.64-2.72 4.177-7.568 6.26-12.119 7.563-11.3 3.238-23.366 2.973-34.717.48-7.683-1.687-16.395-5.121-21.845-9.91-1.699-1.492-3.97-3.745-3.56-6.18.344-.291.865.062 1.1.304 2.874 3.304 5.258 7.696 4.811 12.265-.742 7.587-7.782 12.518-14.4 14.281-13.348 3.557-27.993 2.579-41.13-1.082-10.902-3.039-21.64-7.491-30.419-15.102-1.53-1.326-4.567-3.77-3.612-5.763 1.946 1.785 2.855 4.643 3.825 7.018.418 2.036.772 2.887.462 5.02-.637 4.373-3.673 7.79-7.088 10.107-3.256 2.208-3.922 2.585-7.755 3.822-6.527 2.105-13.523 2.032-20.26 1.546-1.864-.135-3.717-.422-5.56-.735-8.58-1.456-17.016-4.186-24.44-8.868-4.63-2.922-9.62-6.442-10.386-12.435-.18-1.406.811-2.711 1.167-1.592.64 2.01.759 4.188.777 6.293.054 6.285-5.178 11.24-10.9 12.445-8.805 1.853-18.596.262-26.415-2.03-12.736-3.733-25-9.68-35.414-18.11-5.871-4.752-9.99-9.365-14.104-15.87-1.544-2.442-.294-4.119 1.78-2.997 3.113 1.755.31 3.685-2.363 4.682-10.892 4.062-22.768 4.593-33.863 2.019-10.818-2.511-19.77-6.878-26.782-15.434-3.955-4.827-5.616-12.226-5.258-17.781.563-8.722 5.983-16.563 11.93-21.893 8.631-7.736 20.11-11.805 30.417-13.067 10.619-1.3 23.96 1 28.966 5.204" style="opacity:1;fill:#e5f6ff;fill-opacity:1;stroke:#000;stroke-width:1.1;stroke-linejoin:round;stroke-miterlimit:2;stroke-dasharray:none"/><path d="M-658.702 129.338c-1.813-4.706-2.963-10.021-2.235-15.08.191-1.333.662-2.61.993-3.915.692-1.108 1.197-2.357 2.076-3.324 5.253-5.781 14.51-6.15 21.682-5.727 2.674.157 5.35.442 7.984.93 13.45 2.486 26.111 8.138 37.872 15.044 1.86 1.093 3.708 2.21 5.485 3.431 3.269 2.246 6.645 4.455 9.534 7.203.515.49 1.337 1.318 1.022 1.662-.105.114-.307-.05-.46-.074-3.296-1.378-5.946-4.107-7.193-7.477-.374-1.013-.665-2.07-.79-3.142-.13-1.107-.12-2.24.035-3.344.51-3.648 2.568-6.724 5.468-8.934 2.995-2.282 4.68-2.81 8.258-4.058 1.695-.591 3.452-1.004 5.214-1.339 8.649-1.644 17.988-1.25 26.466 1.11 2.267.63 4.489 1.438 6.658 2.353 9.532 4.018 16.945 11.19 23.888 18.652.427.347 3.056 3.7.51 2.16-2.348-1.257-3.262-3.683-4.29-6.002-1.77-4.81-2.975-10.102-1.707-15.21.9-3.63 1.556-4.468 3.875-7.311.952-1.167 2.192-2.088 3.453-2.91 6.831-4.453 16.063-5.255 23.978-4.965 2.683.099 5.367.307 8.028.669 11.774 1.6 23.493 4.67 34.025 10.337 6.118 3.292 7.109 4.124 12.108 8.583 5.513 4.917 9.688 11.216 12.001 18.267.867 3.006-.488.452-.985-.552-.146-.523-.369-1.031-.44-1.57-.636-4.862 1.418-10.129 4.004-14.14.901-1.398 1.901-2.743 3.02-3.975a32.927 32.927 0 0 1 3.975-3.72c4.873-3.84 10.756-6.473 16.84-7.656 6.141-1.194 10.452-1.346 16.852-1.202 13.31.3 28.128 3.577 40.999 10.366 10.785 5.69 21.209 15.051 25.27 24.957M-575.68-271.05c1.546 2.709 4.109 3.512 6.575 4.238 8.5 2.5 20.228 2.733 29.35 1.001 9.186-1.743 18.724-5.82 24.03-13.868 4.477-6.788 5.703-16.126 3.163-23.883-3.12-9.529-12.873-18.247-21.406-22.557-12.625-6.378-25.264-7.89-37.67-7.018-3.85.27-7.738.85-11.372 2.182" style="opacity:1;fill:none;fill-opacity:.979275;stroke:#000;stroke-width:1.4;stroke-linejoin:round;stroke-miterlimit:2"/><path d="M-935.834-283.124c-1.672-.396-3.772-.715-5.15.628-.284.277-.568.607-.651.994-.112.524.063 1.07.095 1.604.246.669.435 1.362.74 2.007 2.532 5.36 7.142 9.78 11.367 13.79a98.213 98.213 0 0 0 21.992 14.256c1.765.834 3.584 1.548 5.376 2.322 8.929 3.24 18.225 5.991 27.76 6.606 1.595.102 3.196.038 4.794.057 5.467-.333 11.001-1.866 14.105-6.733.387-.608.655-1.283.983-1.924 1.148-3.053.83-6.22.259-9.348-.087-.258-.154-.524-.262-.774-.472-1.096-1.048-.32-1.134.5-.035.342-.013.689-.02 1.034.81 5.765 5.773 9.039 10.278 11.977 7.42 4.384 15.692 7.14 24.18 8.543 1.825.302 3.668.472 5.502.708 6.673.361 13.589.539 20.047-1.49 3.793-1.19 4.336-1.744 7.673-3.68 3.253-2.415 6.383-5.524 7.013-9.737.307-2.054-.043-2.873-.457-4.835-.96-2.287-1.859-5.04-3.778-6.76-.132.064-.33.062-.397.193-.23.45.373 1.294.513 1.511 1.206 1.868 2.828 3.215 4.502 4.649 8.12 5.853 17.685 9.116 27.163 12.024 10.378 2.8 21.099 4.845 31.898 4.527 1.958-.057 3.907-.288 5.861-.432 6.29-.78 12.543-2.382 17.3-6.83 2.176-2.032 2.314-2.777 3.62-5.278 1.574-4.666-.086-8.903-2.561-12.865-1.426-1.6-2.918-4.44-5.315-4.65-.143.089-.323.137-.43.267-.87 1.047.71 3.712 1.179 4.593 2.578 3.9 6.443 6.594 10.706 8.409 1.303.554 2.656.981 3.984 1.472 8.096 2.483 16.506 4.13 24.978 4.525 1.745.08 3.493.041 5.24.062 7.123-.313 14.6-1.281 20.813-5.072.816-.498 1.55-1.121 2.324-1.682 2.771-2.522 3.676-5.155 3.571-8.782-.183-.918-.038-2.033-.466-2.9-.144.06-.34.055-.431.18-.325.446 1.302 1.893 1.488 2.057 3.192 2.218 6.747 3.835 10.296 5.385 6.53 2.78 13.473 4.08 20.477 4.921 4.877.36 9.878.578 14.679-.574 2.537-.609 3.062-.993 5.337-2.07 2.595-1.682 5.35-4.016 5.474-7.373.015-.398-.073-.794-.11-1.19-.345-.884-.982-2.936-2.25-2.748" style="opacity:1;fill:none;fill-opacity:.979275;stroke:#000;stroke-width:1.4;stroke-linejoin:round;stroke-miterlimit:2"/><path d="M-936.22-283.001c5.15 1.907-1.286 5.654-3.93 6.588-10.778 3.806-22.528 4.303-33.507 1.891-10.704-2.352-19.951-5.884-26.499-14.203-3.258-4.14-5.558-11.709-5.203-16.912.557-8.172 5.92-15.517 11.804-20.51 8.54-7.247 19.897-11.059 30.097-12.24 10.506-1.219 23.707.935 28.66 4.874M-690.032-334.318c.677 3.61-1.487-.581-1.393-3.962.3-10.789 9.254-20.156 18.768-24.575 11.222-5.213 25.035-5.532 36.817-4.01 18.62 2.403 36.543 11.19 47.754 26.458 1.935 2.637 3.617 5.496 4.774 8.597" style="opacity:1;fill:none;fill-opacity:.979275;stroke:#000;stroke-width:1.4;stroke-linejoin:round;stroke-miterlimit:2"/><path d="M-778.777-335.775c-3.517-2.254-4.534-6.806-5.583-10.633-1.709-6.231-.86-13.66 3.874-18.318 6.923-6.81 18.141-8.38 27.278-7.972 13.824.617 28.01 4.751 39.139 10.875 7.35 4.044 14.138 9.506 19.033 16.432 2.374 3.358 4.178 7.13 5.438 11.073" style="opacity:1;fill:none;fill-opacity:.979275;stroke:#000;stroke-width:1.4;stroke-linejoin:round;stroke-miterlimit:2"/><path d="M-851.327-331.683c-7.252-2.125-11.055-10.774-7.964-17.28 2.907-6.118 10.567-9.682 17.05-11.17 17.407-3.996 38.915.88 52.582 11.766 4.818 3.837 8.727 7.557 11.154 11.673.804.868.894 1.87-.541.919" style="opacity:1;fill:none;fill-opacity:.979275;stroke:#000;stroke-width:1.4;stroke-linejoin:round;stroke-miterlimit:2"/><path d="M-936.27-331.907c-2.416-6.383-2.365-13.343 1.506-19.403 3.407-5.334 11.915-9.277 17.642-9.677 18.615-1.299 36.404 6.673 48.287 14.889 5.918 4.091 10.654 7.862 15.956 12.753.408.376 1.298 1 1.023 1.662M-549.522-172.077c.598 3.358-1.312-.54-1.23-3.684.265-10.036 8.167-18.748 16.563-22.858 9.904-4.849 22.093-5.146 32.491-3.73 16.431 2.235 32.249 10.408 42.142 24.61 1.708 2.452 3.192 5.11 4.213 7.995M-717.091-198.783c.635 3.358-1.394-.54-1.306-3.684.281-10.035 8.674-18.748 17.591-22.858 10.518-4.848 23.464-5.145 34.507-3.73 17.451 2.235 34.25 10.408 44.757 24.61 1.815 2.452 3.391 5.111 4.475 7.996M466.249-125.763c1.779 2.66 4.428 3.283 6.971 3.833 8.77 1.897 20.605 1.21 29.653-1.29 9.112-2.517 18.385-7.459 23.07-16.144 3.951-7.327 4.418-17.016 1.22-24.784-3.928-9.542-14.47-17.726-23.422-21.48-13.244-5.553-26.102-6.108-38.53-4.232-3.856.582-7.726 1.485-11.277 3.14" style="opacity:1;fill:none;fill-opacity:.979275;stroke:#000;stroke-width:1.4;stroke-linejoin:round;stroke-miterlimit:2"/><path d="M409.91-124.239c-.146.06-.345.054-.439.18-.331.445 1.328 1.893 1.518 2.056 3.254 2.218 6.88 3.836 10.498 5.385 6.659 2.781 13.74 4.08 20.882 4.922 4.973.36 10.072.578 14.968-.574 2.588-.609 3.123-.993 5.443-2.07 2.646-1.682 5.455-4.017 5.582-7.374.015-.398-.075-.793-.112-1.19-.353-.883-1.002-2.935-2.295-2.747" style="opacity:1;fill:none;fill-opacity:.979275;stroke:#000;stroke-width:1.4;stroke-linejoin:round;stroke-miterlimit:2"/><path d="M337.946-122.703c-.41 2.345 1.861 4.515 3.56 5.953 5.45 4.613 14.161 7.92 21.845 9.546 11.35 2.4 23.416 2.656 34.717-.463 4.551-1.256 9.399-3.262 12.118-7.286 1.804-2.668 1.845-6.264 1.025-9.286" style="opacity:1;fill:none;fill-opacity:.979275;stroke:#000;stroke-width:1.4;stroke-linejoin:round;stroke-miterlimit:2"/><path d="M254.29-117.98c-.95 1.918 2.088 4.273 3.618 5.55 8.778 7.332 19.517 11.62 30.418 14.547 13.138 3.527 27.783 4.47 41.131 1.043 6.618-1.698 13.658-6.448 14.4-13.756.447-4.402-1.938-8.632-4.812-11.815-.234-.232-.756-.573-1.1-.292" style="opacity:1;fill:none;fill-opacity:.979275;stroke:#000;stroke-width:1.4;stroke-linejoin:round;stroke-miterlimit:2"/><path d="M184.26-114.24c-.477-1.096-1.06-.321-1.146.499-.036.343-.013.69-.02 1.034.819 5.765 5.834 9.039 10.386 11.978 7.5 4.384 15.86 7.14 24.439 8.543 1.843.301 3.707.472 5.56.707 6.744.362 13.734.54 20.26-1.489 3.834-1.191 4.383-1.744 7.755-3.681 3.289-2.415 6.452-5.524 7.088-9.736.31-2.054-.043-2.874-.462-4.835-.97-2.288-1.878-5.041-3.818-6.76" style="opacity:1;fill:none;fill-opacity:.979275;stroke:#000;stroke-width:1.4;stroke-linejoin:round;stroke-miterlimit:2"/><path d="M100.063-133.726c-2.153-1.12-3.403.496-1.858 2.848 4.114 6.266 8.233 10.71 14.103 15.288 10.415 8.12 22.679 13.848 35.414 17.444 7.82 2.207 17.61 3.74 26.415 1.955 5.722-1.16 10.955-5.933 10.9-11.987-.017-2.028-.136-4.127-.777-6.062" style="opacity:1;fill:none;fill-opacity:.979275;stroke:#000;stroke-width:1.4;stroke-linejoin:round;stroke-miterlimit:2"/><path d="M99.908-133.803c3.19 1.729.386 3.588-2.286 4.548-10.892 3.913-22.768 4.425-33.863 1.945-10.818-2.419-19.77-6.625-26.782-14.867-3.956-4.65-5.617-11.777-5.258-17.128.563-8.401 5.983-15.954 11.93-21.089 8.63-7.451 20.109-11.37 30.417-12.586 10.618-1.252 23.96.963 28.966 5.013M361.537-188.527c.959 3.013-1.18-.489-1.614-3.308-1.286-8.365 4.604-15.872 11.68-20.454 8.794-5.693 20.72-9.418 37.364-8.262 26.233 1.822 45.877 19.934 45.276 34.44" style="opacity:1;fill:none;fill-opacity:.979275;stroke:#000;stroke-width:1.4;stroke-linejoin:round;stroke-miterlimit:2"/><path d="M266.048-190.377c-3.795-2.253-4.893-6.806-6.026-10.633-1.844-6.23-.927-13.66 4.182-18.317 7.47-6.81 19.577-8.38 29.437-7.973 14.919.617 30.228 4.752 42.238 10.875 7.932 4.045 15.258 9.507 20.54 16.433 2.562 3.358 4.509 7.13 5.869 11.072" style="opacity:1;fill:none;fill-opacity:.979275;stroke:#000;stroke-width:1.4;stroke-linejoin:round;stroke-miterlimit:2"/><path d="M190.565-186.285c-7.517-2.124-11.46-10.773-8.255-17.28 3.013-6.118 10.953-9.682 17.674-11.17 18.044-3.996 40.339.88 54.506 11.767 4.993 3.837 9.046 7.556 11.562 11.673.833.868.927 1.87-.562.918" style="opacity:1;fill:none;fill-opacity:.979275;stroke:#000;stroke-width:1.4;stroke-linejoin:round;stroke-miterlimit:2"/><path d="M102.514-186.509c-2.505-6.383-2.452-13.343 1.56-19.402 3.533-5.334 12.352-9.278 18.288-9.677 19.297-1.3 37.737 6.672 50.055 14.888 6.134 4.092 11.043 7.863 16.54 12.753.422.376 1.344 1 1.06 1.662" style="opacity:1;fill:none;fill-opacity:.979275;stroke:#000;stroke-width:1.4;stroke-linejoin:round;stroke-miterlimit:2"/><g style="display:inline"><path d="M407.71 65.73h67.115v29.204H407.71z" style="display:inline;fill:#fff6d5;fill-opacity:1;stroke-width:1.67522;stroke-linecap:square;stroke-miterlimit:4;stroke-dasharray:none" transform="matrix(.99998 -.00587 .00075 1 0 0)"/><path d="M405.916 63.64a48.394 48.394 0 0 0 2.587-.098c1.049-.075 2.099.008 3.147.05.975.047 1.951.02 2.926.069 1.021.116 2.042.11 3.065.066a87.588 87.588 0 0 1 3.048-.098c.892-.024 1.785.013 2.677-.042.794-.088 1.592-.04 2.387-.02.87.024 1.74.024 2.61.028 1.01 0 2.018-.003 3.026-.008.976.008 1.95-.109 2.925-.168 1.004-.054 2.01.028 3.015.02 1.133-.007 2.266-.007 3.4-.011.967-.002 1.935.087 2.903.084l3.079-.008c.827-.002 1.655-.004 2.482-.008.977-.04 1.952.045 2.927.063a49.74 49.74 0 0 0 3.408-.09c1.015-.05 2.026.109 3.039.164.934.074 1.856.088 2.78-.06.883-.165 1.773.047 2.659.09 1.047.044 2.091-.087 3.138-.024 1 .06 2 .086 3 .032a60.225 60.225 0 0 1 2.437-.068c.457.016.91.108 1.364.169.258.032.518.04.777.044h.1l.066-.874v0h-.095a7.138 7.138 0 0 1-.732-.036c-.473-.06-.944-.158-1.419-.18-.818.009-1.636.025-2.454.067-.985.053-1.97.028-2.956-.024-1.048-.061-2.093.07-3.141.024-.914-.044-1.832-.262-2.742-.097-.897.14-1.79.131-2.697.068-1.029-.048-2.055-.22-3.086-.17-1.125.076-2.248.087-3.374.095-.978-.012-1.955-.108-2.934-.066-.828.002-1.656.004-2.483.008l-3.079.008c-.968.003-1.936-.087-2.904-.084-1.133.003-2.267.004-3.4.012-1.013.008-2.025-.078-3.037-.024-.967.056-1.933.174-2.902.17-1.008.003-2.016.008-3.023.008-.867-.001-1.734-.003-2.6-.025-.808-.02-1.619-.074-2.425.012-.885.062-1.772.02-2.657.045-1.02.016-2.04.044-3.06.096-1.01.046-2.017.06-3.025-.06-.977-.054-1.955-.024-2.932-.07-1.061-.043-2.124-.127-3.186-.054-.881.05-1.762.103-2.645.094l.014.879z" style="display:inline;fill:red;stroke:red;stroke-width:1.2;stroke-linecap:square;stroke-miterlimit:4;stroke-dasharray:none;stroke-opacity:1"/><path d="M475.302 92.267c-.003-1.992-.003-3.984-.007-5.977-.007-2.829-.01-5.654.044-8.48.07-2.545.007-5.096-.018-7.64-.039-1.791.01-3.591-.096-5.37-.048-.607-.098-1.21-.116-1.828-.007-.352-.003-.179-.007-.52l-.71.142v0l.007.583c.022.653.072 1.29.123 1.933.103 1.718.045 3.464.087 5.193.027 2.506.088 5.018.02 7.523a372.027 372.027 0 0 0-.044 8.557l.007 5.977.712-.093z" style="display:inline;fill:red;stroke:red;stroke-width:1.2;stroke-linecap:square;stroke-miterlimit:4;stroke-dasharray:none;stroke-opacity:1"/><path d="M405.34 93.185c1.014.012 2.028-.042 3.042-.047.984.043 2.164.072 3.145 0 .89-.062 1.78-.02 2.67-.031 1.048-.02 2.096.012 3.142-.04.985-.072 1.97-.169 2.957-.152.882.05 1.765.108 2.648.134.885-.024 1.765.109 2.648.127.981-.036 1.96-.075 2.941-.032 1.137.062 2.275-.126 3.413-.108.963.004 1.926.032 2.889-.016.967-.06 1.932.1 2.896.189 1.067.028 2.134-.028 3.2-.058.97-.012 1.936.18 2.904.114a56.738 56.738 0 0 1 2.863-.071c.849.036 1.693-.063 2.539-.139.89-.072 1.783.052 2.675.04.696-.007 1.391-.007 2.087-.012.79-.024 1.574.091 2.358-.032.802-.147 1.61-.081 2.413-.032.809.048 1.444.077 2.253.04.916-.084 1.832-.008 2.75-.041 1.07.032 2.138.104 3.207.142 1.005.032 2.185-.081 3.19-.081.958.02 1.904-.041 2.842.205.651.176 1.547-.147 2.208-.08.252-.007.134.005.354-.035l-.032-.879v0s-.059.024-.216.049c-.64-.06-1.514.269-2.143.1-.974-.256-1.954-.207-2.947-.232-1 0-2.175.113-3.175.083-1.08-.036-2.157-.109-3.235-.146-.92.028-1.84-.05-2.759.04-.793.046-1.413.012-2.206-.032-.833-.05-1.67-.124-2.5.024-.765.117-1.527.004-2.297.036-.697.001-1.394.002-2.091.012-.903.012-1.806-.113-2.707-.043-.834.073-1.668.18-2.505.143-.963.008-1.925.016-2.887.068-.963.064-1.924-.126-2.887-.112-1.05.028-2.102.08-3.153.066-.984-.09-1.968-.258-2.955-.199-.953.056-1.908.02-2.861.02-1.134-.015-2.268.174-3.4.111-.986-.045-1.969-.016-2.954.028-.881-.008-1.759-.156-2.641-.125-.885-.025-1.77-.081-2.653-.136-.997-.024-1.991.072-2.986.149-1.041.057-2.083.02-3.125.04-.899.012-1.797-.032-2.695.028-.972.07-2.143.05-3.117.004-1.015.003-2.028.06-3.042.045l-.065.874z" style="display:inline;fill:red;stroke:red;stroke-width:1.2;stroke-linecap:square;stroke-miterlimit:4;stroke-dasharray:none;stroke-opacity:1"/><path d="M407.815 92.593c.075-2.264.123-4.532.197-6.796.146-2.998.106-5.991.007-8.99-.112-2.582-.088-5.181-.072-7.772.007-1.641.019-3.282.023-4.923.002-.424.002-.847.002-1.27l-.734.095v0c0 .42 0 .839-.002 1.258-.003 1.636-.01 3.273-.018 4.91-.015 2.643-.039 5.293.078 7.926.094 2.913.128 5.819-.012 8.73-.075 2.309-.127 4.62-.197 6.93l.733-.099z" style="display:inline;fill:red;stroke:red;stroke-width:1.2;stroke-linecap:square;stroke-miterlimit:4;stroke-dasharray:none;stroke-opacity:1"/><path d="M62.927-523.423h29.755v32.309H62.927z" style="display:inline;fill:#fff6d5;fill-opacity:1;stroke-width:1.67529;stroke-linecap:square;stroke-miterlimit:4;stroke-dasharray:none" transform="matrix(.01465 .9999 -1 .0003 0 0)"/><path d="M524.346 62.494c.004.389.048.777.098 1.166.075.473-.008.946-.05 1.419-.047.44-.02.88-.069 1.32-.116.46-.11.92-.065 1.38.052.459.08.917.097 1.375.024.402-.013.805.042 1.207.088.358.04.717.02 1.076-.024.392-.024.785-.027 1.177 0 .455.003.91.008 1.364-.008.44.108.879.167 1.318.054.453-.028.907-.02 1.36.008.51.008 1.021.011 1.532.002.437-.087.873-.084 1.31l.008 1.387c.002.373.004.746.008 1.12.04.44-.045.88-.063 1.32 0 .512.012 1.023.09 1.535.05.458-.108.914-.164 1.37-.074.421-.088.837.06 1.254.165.398-.047.799-.09 1.199-.044.472.088.942.025 1.414-.06.451-.087.902-.032 1.353.042.366.058.732.067 1.098-.016.206-.108.41-.169.615-.032.117-.04.234-.044.35v.046l.874.03v0-.043c.003-.11.008-.22.036-.33.06-.214.158-.426.18-.64a12.032 12.032 0 0 0-.067-1.106 5.675 5.675 0 0 1 .024-1.333c.061-.472-.07-.944-.024-1.416.044-.412.263-.826.097-1.236-.14-.405-.131-.808-.068-1.216.048-.464.22-.926.17-1.392-.076-.507-.087-1.013-.095-1.52.012-.442.108-.882.066-1.324-.002-.373-.004-.746-.008-1.119l-.008-1.388c-.003-.436.087-.872.084-1.309-.003-.51-.004-1.022-.012-1.533-.008-.456.078-.913.024-1.369-.056-.436-.174-.872-.17-1.308-.002-.455-.007-.909-.007-1.363 0-.391.003-.782.024-1.173.02-.364.074-.73-.012-1.093-.062-.399-.02-.798-.045-1.198-.016-.46-.044-.92-.096-1.379-.046-.455-.06-.91.06-1.364.054-.44.024-.881.07-1.321.043-.479.127-.958.054-1.437-.05-.397-.103-.794-.094-1.192l-.879.006z" style="display:inline;fill:red;stroke:red;stroke-width:1.2;stroke-linecap:square;stroke-miterlimit:4;stroke-dasharray:none;stroke-opacity:1"/><path d="M492.46 93.201c2.175-.003 4.35-.003 6.524-.007 3.089-.007 6.173-.011 9.258.044 2.777.07 5.562.007 8.34-.019 1.954-.038 3.92.011 5.86-.095.664-.048 1.322-.098 1.996-.116.385-.007.196-.003.567-.007l-.154-.71v0l-.636.007c-.712.022-1.41.072-2.11.123-1.876.103-3.781.045-5.669.087-2.736.026-5.477.088-8.212.019a443.301 443.301 0 0 0-9.34-.043l-6.525.007.101.711z" style="display:inline;fill:red;stroke:red;stroke-width:1.2;stroke-linecap:square;stroke-miterlimit:4;stroke-dasharray:none;stroke-opacity:1"/><path d="M491.522 62.44c-.012.445.042.889.047 1.333-.042.43-.071.947 0 1.377.062.39.02.78.032 1.17.02.459-.012.917.04 1.376.071.431.169.862.152 1.295-.05.386-.108.773-.135 1.16.024.387-.108.773-.126 1.16.036.429.074.858.032 1.287-.063.498.126.997.108 1.495-.004.422-.032.844.016 1.265.06.424-.1.846-.19 1.269-.027.467.029.934.06 1.402.011.424-.181.847-.115 1.271.055.418.063.836.07 1.254-.035.372.063.742.14 1.112.072.39-.052.781-.041 1.172.008.304.008.61.012.914.025.346-.09.69.032 1.033.147.35.082.704.032 1.057-.047.354-.076.632-.04.986.085.401.008.803.042 1.205-.032.468-.104.936-.142 1.404-.032.44.081.957.08 1.397-.02.42.042.834-.204 1.245-.176.285.147.677.079.967.008.11-.004.059.036.155l.878-.014v0s-.024-.026-.048-.094c.06-.28-.27-.663-.1-.939.256-.426.207-.856.232-1.29 0-.439-.114-.953-.083-1.392.036-.472.108-.944.146-1.416-.028-.403.05-.806-.04-1.208-.046-.348-.013-.62.032-.967.05-.365.123-.731-.025-1.095-.116-.335-.004-.668-.036-1.006 0-.305-.002-.61-.012-.916-.011-.395.114-.79.044-1.185-.074-.365-.18-.73-.143-1.097-.008-.422-.016-.844-.068-1.265-.064-.421.126-.842.112-1.264-.028-.46-.08-.92-.066-1.38.09-.432.257-.863.198-1.295-.056-.418-.02-.836-.02-1.253.016-.497-.173-.993-.11-1.49.045-.431.016-.862-.028-1.293.008-.386.156-.77.125-1.157.024-.388.08-.775.135-1.162.025-.436-.072-.872-.148-1.308-.058-.456-.02-.912-.04-1.368-.013-.394.031-.788-.029-1.18-.07-.427-.049-.94-.004-1.366-.003-.444-.06-.888-.044-1.332l-.875-.029z" style="display:inline;fill:red;stroke:red;stroke-width:1.2;stroke-linecap:square;stroke-miterlimit:4;stroke-dasharray:none;stroke-opacity:1"/><path d="M492.125 63.088c2.443.075 4.89.123 7.333.197 3.234.146 6.463.106 9.7.007 2.785-.112 5.589-.088 8.384-.072 1.77.007 3.54.019 5.311.023.458.002.914.002 1.37.002l-.102-.734v0c-.452 0-.904 0-1.357-.002-1.766-.003-3.532-.01-5.297-.018-2.852-.015-5.711-.039-8.552.078-3.143.094-6.278.128-9.418-.012-2.492-.075-4.986-.127-7.478-.197l.107.733z" style="display:inline;fill:red;stroke:red;stroke-width:1.2;stroke-linecap:square;stroke-miterlimit:4;stroke-dasharray:none;stroke-opacity:1"/><path d="M-563.795-103.785h20.841v29.788h-20.841z" style="display:inline;fill:#fff6d5;fill-opacity:1;stroke-width:1.67537;stroke-linecap:square;stroke-miterlimit:4;stroke-dasharray:none" transform="matrix(-.99981 .01928 -.00023 -1 0 0)"/><path d="M564.524 92.475a4.99 4.99 0 0 0-.822.099c-.333.075-.667-.008-1-.05-.31-.047-.62-.02-.93-.069-.325-.116-.65-.11-.974-.066-.323.053-.646.08-.969.097-.283.025-.567-.012-.85.043-.253.088-.507.04-.76.02-.276-.024-.552-.024-.829-.028-.32 0-.641.003-.961.008-.31-.008-.62.108-.93.167-.32.055-.639-.028-.958-.02-.36.008-.72.008-1.08.012-.308.002-.616-.087-.923-.084l-.979.008c-.263.002-.526.004-.789.008-.31.04-.62-.045-.93-.064-.362 0-.722.013-1.083.09-.323.051-.644-.108-.966-.163-.297-.075-.59-.089-.883.06-.28.164-.564-.047-.845-.09-.333-.044-.665.087-.998.024a2.68 2.68 0 0 0-.953-.032 6.15 6.15 0 0 1-.775.068c-.145-.016-.289-.109-.433-.169a.78.78 0 0 0-.247-.045h-.032l-.02.875v0h.03a.748.748 0 0 1 .232.036c.15.06.3.158.451.179.26-.008.52-.024.78-.066.313-.053.626-.028.94.024.332.06.665-.07.998-.024.29.044.582.262.871.097.285-.14.57-.132.857-.069.327.049.653.22.98.17.358-.076.715-.086 1.073-.094.311.012.622.108.933.066.263-.002.526-.004.789-.008l.978-.008c.308-.003.615.087.923.084.36-.003.72-.004 1.08-.012.322-.008.644.077.966.024.307-.056.614-.174.922-.17.32-.003.64-.008.961-.008.275.001.551.003.826.024.257.02.515.075.77-.011.282-.063.564-.02.845-.045a8.74 8.74 0 0 0 .973-.096c.32-.046.64-.061.961.06.31.054.621.024.932.07.337.043.675.127 1.012.054.28-.051.56-.103.841-.094l-.004-.88z" style="display:inline;fill:red;stroke:red;stroke-width:1.2;stroke-linecap:square;stroke-miterlimit:4;stroke-dasharray:none;stroke-opacity:1"/><path d="M563.003 62.65c.003 2.076.003 4.152.007 6.229.007 2.948.01 5.893-.044 8.838-.07 2.651-.007 5.31.018 7.962.039 1.866-.01 3.742.096 5.595.048.633.098 1.262.116 1.905.007.368.003.187.007.542l.71-.148v0l-.007-.607a46.341 46.341 0 0 0-.123-2.014c-.103-1.79-.045-3.61-.088-5.412-.026-2.612-.087-5.23-.018-7.84.055-2.972.053-5.943.043-8.918l-.007-6.229-.71.097z" style="display:inline;fill:red;stroke:red;stroke-width:1.2;stroke-linecap:square;stroke-miterlimit:4;stroke-dasharray:none;stroke-opacity:1"/><path d="M563.685 62.957c-.303-.02-.607.028-.91.025-.293-.05-.645-.087-.94-.023-.268.056-.533.007-.8.013-.313.012-.626-.027-.94.017-.296.064-.593.154-.887.13-.263-.056-.526-.12-.789-.153-.265.018-.525-.121-.789-.146-.294.03-.587.06-.88.01-.338-.07-.683.11-1.022.085-.288-.011-.576-.046-.865-.005-.29.053-.575-.115-.86-.21-.32-.036-.64.012-.959.035-.29.005-.574-.195-.865-.136a5.13 5.13 0 0 1-.858.05c-.253-.042-.508.051-.762.12-.268.067-.532-.063-.8-.059-.207.003-.415-.002-.623-.002-.237.018-.469-.103-.706.014-.243.142-.483.07-.722.015-.24-.053-.43-.087-.673-.056-.276.078-.548-.006-.823.021-.319-.04-.637-.12-.955-.165-.3-.039-.655.066-.956.058-.286-.027-.57.027-.845-.226-.19-.18-.466.137-.662.064-.075.006-.04-.005-.106.033l-.013.879v0s.019-.024.066-.047c.19.065.46-.259.643-.085.285.263.58.221.876.254.299.007.653-.098.951-.06.322.043.642.123.964.169.276-.022.549.062.825-.02.239-.04.423-.003.66.047.247.057.495.136.747-.006.232-.11.457.007.688-.02.208.005.417.009.625.004.27-.005.537.126.808.063.252-.068.503-.167.753-.125.288 0 .576-.002.865-.047.289-.057.572.14.86.133.315-.02.63-.065.944-.044.292.098.582.272.879.22.286-.049.57-.006.856 0 .338.025.682-.156 1.02-.085.293.052.587.03.883-.007.263.015.522.17.786.145.264.03.527.093.79.154.297.032.597-.057.896-.127.313-.05.624-.005.936-.018.269-.005.536.045.806-.008.292-.063.642-.033.932.019.303.004.608-.046.91-.023l.041-.874z" style="display:inline;fill:red;stroke:red;stroke-width:1.2;stroke-linecap:square;stroke-miterlimit:4;stroke-dasharray:none;stroke-opacity:1"/><path d="M542.558 62.573c-.075 2.373-.122 4.75-.196 7.122-.146 3.142-.106 6.278-.007 9.421.112 2.705.087 5.43.071 8.144-.007 1.72-.018 3.439-.022 5.158-.002.445-.002.888-.002 1.332l.733-.1v0c0-.44 0-.879.002-1.318.003-1.715.011-3.43.019-5.145.015-2.77.038-5.547-.078-8.306-.095-3.053-.129-6.098.011-9.148.075-2.42.128-4.842.197-7.263l-.728.103z" style="display:inline;fill:red;stroke:red;stroke-width:1.2;stroke-linecap:square;stroke-miterlimit:4;stroke-dasharray:none;stroke-opacity:1"/><path d="M442.256 114.695c-.003-1.442-.003-2.883-.007-4.325-.007-2.046-.012-4.09.043-6.136.07-1.84.007-3.686-.018-5.527-.039-1.296.011-2.598-.095-3.884-.048-.44-.099-.876-.117-1.323-.007-.255-.003-.13-.007-.376l-.71.102v0l.007.422c.022.472.072.934.123 1.398.104 1.244.046 2.506.088 3.758.026 1.813.088 3.63.018 5.442a194.753 194.753 0 0 0-.043 6.191l.007 4.325.712-.068zM554.381 93.325c-.075 1.794-.122 3.591-.196 5.386-.146 2.376-.106 4.748-.007 7.125.112 2.045.087 4.105.071 6.159-.007 1.3-.018 2.6-.022 3.9-.002.336-.002.672-.002 1.007l.733-.075v0c0-.332 0-.665.002-.997.003-1.297.011-2.594.019-3.891.015-2.094.038-4.195-.078-6.281-.095-2.309-.129-4.612.011-6.919.075-1.83.128-3.661.198-5.492l-.729.078z" style="display:inline;fill:red;stroke:red;stroke-width:1.4;stroke-linecap:square;stroke-miterlimit:4;stroke-dasharray:none;stroke-opacity:1"/><path d="M559.248 124.815h129.04v29.935h-129.04z" style="display:inline;fill:#fff6d5;fill-opacity:1;stroke-width:1.67521;stroke-linecap:square;stroke-miterlimit:4;stroke-dasharray:none" transform="rotate(-.179) skewX(-.099)"/><path d="M460.684 125.091h91.809v29.935h-91.809z" style="display:inline;fill:#fff6d5;fill-opacity:1;stroke-width:1.67522;stroke-linecap:square;stroke-miterlimit:4;stroke-dasharray:none" transform="matrix(.99999 -.0044 .001 1 0 0)"/><path d="M315.054 123.975h139.79v29.935h-139.79z" style="display:inline;fill:#fff6d5;fill-opacity:1;stroke-width:1.67521;stroke-linecap:square;stroke-miterlimit:4;stroke-dasharray:none" transform="rotate(-.165) skewX(-.079)"/><g style="stroke-width:1.0101"><path d="M338.702 107.373c1.682 2.38-7.126 1.66-6.477-2.192-2.607-1.927-6.92-5.373-5.533-9.975.438-5.09 6.998-8.195 11.03-4.865 4.824 3.653 3.373 13.043-3.01 13.97-.14 2.238 1.9 3.692 3.99 3.062zm-9.185-10.67c-.536 3.311 2.362 8.389 6.1 5.868 2.772-2.949 2.768-8.218.374-11.391-3.037-3.03-6.838 1.168-6.434 4.507zM356.796 89.326c1.02 1.095-2.595 1.645-1.369 4.102-.16 3.613.91 8.524-3.015 10.488-3.52 1.685-8.416-.57-8.213-4.802-.154-2.804.208-5.69-.208-8.443-3.249-.669-.111-1.837 1.712-1.345 1.581-.54 4.84.719 1.745 1.183-1.153 1.297-.327 3.634-.58 5.377-.403 3.094.548 7.78 4.668 6.673 3.648-1.27 2.412-5.749 2.639-8.774.159-1.73.23-3.618-1.955-3.549.088-1.743 3.117-.566 4.523-.91zM370.006 102.455c2.84.94.785 2.039-1.388 1.6-1.408.462-4.782-.535-1.86-1.16.798-.714-.093-3.953-1.575-3.525-1.35.356-3.817-.874-4.127.96-1.586 2.076.625 2.313.965 3.598-1.536.01-3.807.64-4.912-.383 1.553-.634 2.688-1.897 3.025-3.862 1.324-3.394 2.36-6.943 3.864-10.241 2.003-.54 1.832 2.484 2.613 3.699l3.395 9.314zm-8.212-4.222c1.102-.355 4.306.787 3.786-.722l-1.721-4.961-2.065 5.683zM372.72 89.836c1.127-1.066 3.33-.258 4.91-.51 3.6-.402 7.916 1.029 8.72 5.007 1.628 4.776-2.25 10.25-7.413 9.723-2.018-.087-4.085.172-6.072-.128.622-1.143 2.694-1.77 1.827-4.21-.104-3.006.217-6.092-.186-9.047-.482-.478-1.699.092-1.786-.835zm4.709 13.083c2.909.504 5.941-1.372 6.143-4.481.96-3.632-1.154-8.627-5.539-7.976-1.379.498-.315 3.404-.65 4.892.017 2.521-.043 5.044.046 7.565zM399.953 102.362c2.05.538 2.629 2.333-.47 1.905-3.54-.185-1.886-4.698-3.891-6.498-2.689-1.66-2.96.529-2.645 2.598-1.43 2.392 3.925 3.13.651 3.689-1.71-.082-3.466.165-5.145-.128.6-1.14 2.679-1.752 1.827-4.163-.103-3.022.215-6.123-.186-9.094-3.109-.453-.65-1.9 1.342-1.345 3.063.114 7.48-.763 8.731 2.91 1.979 3.415-5.469 4.38-1.792 5.672 1.066 1.24 1.131 2.952 1.578 4.454zm-7.006-6.147c3.23 1.04 6.604-3.023 3.458-5.361-2.18-1.04-4.184-.556-3.458 2.02v3.341zM415.216 102.455c2.84.94.785 2.039-1.388 1.6-1.408.462-4.782-.535-1.86-1.16.798-.714-.092-3.953-1.575-3.525-1.35.356-3.817-.874-4.127.96-1.586 2.076.626 2.313.965 3.598-1.535.01-3.807.64-4.912-.383 1.553-.634 2.688-1.897 3.025-3.862 1.324-3.394 2.36-6.943 3.864-10.241 2.004-.54 1.832 2.484 2.613 3.699l3.395 9.314zm-8.212-4.222c1.102-.355 4.306.787 3.786-.722l-1.721-4.961-2.064 5.683zM428.717 91.042c-.763-.77-4.07-1.236-3.318.858.098 3.598-.212 7.26.186 10.81 3.002.186 1.364 1.948-.878 1.346-1.159-.179-5.06.63-3.622-1.068 2.431.262 1.41-2.722 1.624-4.242-.008-2.746.026-5.492-.047-8.237-1.678-.142-3.823-.267-3.503 2.044-1.41 2.435-1.916-1.212-1.51-2.549.843-1.36 3.182-.382 4.682-.678 2.643.095 5.348-.192 7.951.145.416 1.206.664 5.227-1.287 3.38l-.278-1.809zM438.482 89.836c-2.042.505-2.162 2.463-1.971 4.545.084 2.772-.186 5.6.174 8.33 3.118.442.67 1.902-1.33 1.345-1.387.39-5.23-.384-2.19-1.152 1.302-1.087.39-3.503.655-5.178-.1-2.341.211-4.765-.186-7.055-3.109-.453-.65-1.9 1.342-1.345 1.085.225 2.89-.516 3.506.51zM450.753 100.576c2.156-2.26 2.52 4.211-.26 3.48-4.522 1.536-10.242-1.382-10.306-6.503-.904-5.307 4.54-9.815 9.615-8.39 2.664-.74 3.509 4.796.934 4.089.215-3.031-3.152-4.083-5.377-2.198-3.138 2.87-3.154 9.006.36 11.587 2.076 1.094 5.336.931 5.034-2.065z" style="font-size:32px;font-family:&quot;Song Myung&quot;;-inkscape-font-specification:&quot;Song Myung&quot;;stroke-width:2.0202;stroke-linejoin:round;stroke-miterlimit:2" transform="matrix(.99 0 0 .99 -1.08 42.314)"/></g><g aria-label="LINEAR" style="font-size:32px;font-family:&quot;Song Myung&quot;;-inkscape-font-specification:&quot;Song Myung&quot;;stroke-width:2.78689;stroke-linejoin:round;stroke-miterlimit:2"><path d="M457.55 107.955c1.542-2.062 2.858.48 2.151 2.145.022 1.473.038 3.617-2.057 3.007-4.424-.03-8.856.059-13.275-.044-1.653-1.984 3.458-.933 2.238-3.51.06-4.778.036-9.557 0-14.334-.56-.784-4.565-1.836-1.44-2.432 2.58.108 5.248-.223 7.768.176.519 2.111-4.113.859-2.584 4.08.03 4.821-.07 9.645.064 14.464 2.086-.106 4.236.219 6.28-.176.553-1.019.555-2.264.856-3.376zM471.119 93.49c-1.459 1.015-3.558 1.47-2.72 4.195.016 4.33-.036 8.66.032 12.99.54.78 4.573 1.834 1.438 2.432-2.556-.111-5.205.226-7.702-.176-.613-1.936 3.612-.928 2.488-3.603.062-4.703.033-9.407 0-14.11-.56-.783-4.565-1.835-1.44-2.431 2.557.11 5.206-.226 7.704.176l.15.22zM493.487 92.787c2.615 1.634-3.18 1.287-1.92 3.683v16.157c-.892 2.19-2.652-1.093-3.445-1.993L477.71 97.107c.031 4.593-.064 9.195.048 13.782.71.792 4.993.715 2.544 2.218-2.27-.108-4.63.221-6.84-.176-.685-2.074 3.648-.786 2.552-3.475-.032-4.822.064-9.65-.048-14.47-1.421-.333-3.863-2.344-.782-2.2 1.681.097 3.877-.538 4.743 1.373l9.943 13.028c-.031-4.049.061-8.106-.046-12.15-.83-.645-5.159-1.134-2.322-2.25h5.984zM510.67 108.435c1.877-2.284 2.478 1.005 2.009 2.564.51 2.036-1.272 2.38-2.878 2.108-4.306-.03-8.619.058-12.92-.044-1.653-1.984 3.458-.933 2.238-3.51.06-4.778.035-9.557 0-14.334-.56-.784-4.565-1.836-1.44-2.432 4.624.032 9.256-.065 13.874.048.939 1.091.346 2.911.612 4.31-.583 2.609-2.872-.17-2.52-1.86-.748-1.57-3.01-.594-4.487-.866-1.603-.248-2.736-.01-2.295 1.856v5.6c1.446-.285 3.81.754 4.383-.958-.144-2.616 2.613-1.794 1.793.514-.108 1.521.227 3.143-.192 4.596-2.36 1.114-.661-3.436-3.138-2.584-1.237.16-3.48-.684-2.846 1.347.012 2.24-.041 4.48.064 6.717 2.336-.109 4.743.227 7.032-.184.529-.85.468-1.936.712-2.888zM531.694 110.899c1.423.424 3.772 2.325.702 2.208-2.258-.11-4.606.224-6.806-.176-.49-1.81 3.76-1.135 1.785-3.655-.562-1.156-.467-3.24-2.276-2.633h-5.277c-.4 1.509-1.355 2.963-1.376 4.512 2.01-.053 3.424 2.386.51 1.952-1.61-.099-3.303.209-4.854-.176-.372-1.954 3.384-1.149 3.187-3.7l5.765-15.804c1.736-2.023 2.812 1.075 3.195 2.532l5.445 14.94zm-11.328-5.824h5.568l-2.72-7.84-2.848 7.84zM551.502 110.77c.725.861 4.73 1.376 1.576 2.553-2.932.858-5.773-.817-5.737-3.923-.54-2.149-.616-5.479-3.57-5.505-2.318-.848-2.015 1.05-1.933 2.659.31 1.672-.968 4.896 1.47 4.991 2.916.818-.224 2.105-1.763 1.562-1.959-.107-4.007.22-5.907-.176-.612-1.936 3.613-.928 2.488-3.603.063-4.703.034-9.407 0-14.11-.56-.783-4.564-1.835-1.438-2.431 4.084.194 8.314-.544 12.25.774 3.991 1.36 3.865 7.512.084 9.042-3.727.518 2.774 2.95 1.988 6.143l.492 2.025zm-9.664-8.48c2.816.306 6.742-.535 6.432-4.16.28-3.626-3.697-4.005-6.368-3.775-.115 2.644-.044 5.29-.064 7.936z" style="stroke-width:2.78689" transform="matrix(.71765 0 0 .71765 148.945 64.137)"/></g><g aria-label="CONSTANT" style="font-size:32px;font-family:&quot;Song Myung&quot;;-inkscape-font-specification:&quot;Song Myung&quot;;display:inline;stroke-width:2.78689;stroke-linejoin:round;stroke-miterlimit:2"><path d="M588.71 108.307c2.498-2.939 3.346 3.899.984 4.384-6.025 2.59-14.568-.267-15.416-7.432-1.813-7.042 4.647-14.18 11.848-12.888 3.738-.779 6.048 3.718 3.8 6.016-2.722-.354-1.097-6.284-5.758-4.398-6.302 1.111-7.207 9.576-4.856 14.426 1.069 3.622 8.732 5.515 9.224.952l.174-1.06zM603.078 92.307c8.555-.29 12.314 11.103 7.628 17.316-3.854 6.166-14.16 4.737-16.492-2.052-2.72-6.405 1.125-15.492 8.864-15.264zm-5.632 10.656c-.519 4.324 2.595 10.97 7.834 8.488 4.212-3.244 4.035-9.762 2.31-14.312-1.913-5.408-9.672-3.135-9.77 2.142-.266 1.207-.36 2.448-.374 3.682zM635.174 92.787c1.587 1.612-3.595 2.139-1.92 5.47-.106 4.983.213 10.022-.16 14.97-2.189.38-2.988-2.857-4.462-4.123l-9.234-11.997c.126 4.67-.254 9.42.192 14.04 3.622.026 3.46 2.683-.187 1.96-1.848.554-6.656-.575-2.755-1.624 2.034-.927.645-4.123 1.054-6.077-.117-3.57.241-7.198-.192-10.731-4.026-.618-.96-2.642 1.697-1.888 2.499-.052 3.256 3.102 4.866 4.592l7.485 9.808c-.121-4.127.243-8.327-.184-12.408-3.618-.064-3.487-2.71.179-1.992h3.62zM644.966 100.819c4.716.73 9.632 6.12 5.584 10.432-3.197 3.056-8.73 3.006-12.272.672-.853-1.89.614-6.444 2.425-3.298-.55 4.536 7.096 4.405 7.933.61.303-5.352-7.595-3.877-9.498-8.034-3.47-5.609 3.918-10.625 9.028-8.542 3.49-.733 3.83 6.474.52 5.224.249-3.917-4.637-5.503-6.824-2.088-1.242 2.44.872 4.437 3.104 5.024zM669.062 95.155c-.88-.954-5.423-1.747-4.566.88.105 5.064-.288 10.217.246 15.216 3.906.204 2.153 2.652-.958 1.856-1.926-.354-4.723.779-6.018-.704 2.609-.735 3.66-2.69 3.008-5.834-.013-4.05.04-8.1-.064-12.15-1.997.017-5.121-.67-4.758 2.334-1.017 3.843-3.142-.212-2.179-2.398-.028-2.684 3.614-1.176 5.383-1.568 4.012.132 8.11-.265 12.066.2.195 1.667 1.434 6.127-1.512 5.216-.498-.924-.418-2.04-.648-3.048zM690.182 110.899c3.7 1.202 1.38 2.81-1.633 2.208-1.826.5-6.942-.51-2.972-1.585 1.494-.73-.16-4.51-1.29-4.88h-5.977c-.358 1.706-2.835 5.014.32 4.96 1.914 2.346-3.318 1.273-4.914 1.505-3.426-1.243 2.912-1.642 2.297-4.526 2.008-5.186 3.627-10.58 5.88-15.634 2.651-.789 2.479 3.131 3.47 4.733l4.819 13.219zm-11.328-5.824c1.65-.223 4.537.434 5.462-.306l-2.614-7.534-2.848 7.84zM713.99 92.787c1.587 1.612-3.596 2.139-1.92 5.47-.107 4.983.213 10.022-.16 14.97-2.189.38-2.988-2.857-4.462-4.123l-9.234-11.997c.126 4.67-.254 9.42.192 14.04 3.621.026 3.46 2.683-.187 1.96-1.848.554-6.657-.575-2.755-1.624 2.034-.927.645-4.123 1.054-6.077-.117-3.57.24-7.198-.192-10.731-4.026-.618-.96-2.642 1.697-1.888 2.499-.052 3.255 3.102 4.865 4.592l7.486 9.808c-.121-4.127.243-8.327-.184-12.408-3.618-.064-3.487-2.71.178-1.992h3.622zM731.814 95.155c-.88-.954-5.423-1.747-4.566.88.105 5.064-.288 10.217.246 15.216 3.906.204 2.153 2.652-.958 1.856-1.926-.354-4.723.779-6.018-.704 2.608-.735 3.66-2.69 3.008-5.834-.013-4.05.04-8.1-.064-12.15-1.997.017-5.122-.67-4.758 2.334-1.017 3.843-3.142-.212-2.179-2.398-.028-2.684 3.614-1.176 5.383-1.568 4.011.132 8.11-.265 12.066.2.195 1.667 1.434 6.127-1.512 5.216-.498-.924-.418-2.04-.648-3.048z" style="stroke-width:2.78689" transform="matrix(.71765 0 0 .71765 153.741 64.136)"/></g><path d="M386.104 123.729a48.394 48.394 0 0 0 2.587-.099c1.049-.075 2.099.008 3.147.05.975.047 1.951.02 2.926.069 1.021.116 2.042.11 3.065.066a87.588 87.588 0 0 1 3.048-.098c.892-.024 1.785.013 2.677-.042.794-.088 1.592-.04 2.387-.02.87.024 1.74.024 2.61.028 1.01 0 2.018-.003 3.026-.008.976.008 1.95-.108 2.925-.167 1.004-.055 2.01.028 3.015.02 1.133-.008 2.266-.008 3.4-.012.967-.002 1.935.087 2.903.084l3.079-.008c.827-.002 1.655-.004 2.482-.008.977-.04 1.952.045 2.927.064a49.74 49.74 0 0 0 3.408-.09c1.015-.051 2.026.108 3.039.163.934.074 1.856.088 2.78-.06.883-.164 1.773.047 2.659.09 1.047.044 2.091-.087 3.138-.024 1 .06 2 .086 3 .032a60.225 60.225 0 0 1 2.437-.068c.457.016.91.109 1.364.169.258.032.518.04.777.045h.1l.066-.875v0h-.095a7.138 7.138 0 0 1-.732-.036c-.473-.06-.944-.158-1.419-.179-.818.008-1.636.024-2.454.066-.985.053-1.97.028-2.956-.024-1.048-.06-2.093.07-3.141.024-.914-.044-1.832-.262-2.742-.097-.897.14-1.79.132-2.697.068-1.029-.048-2.055-.22-3.086-.17-1.125.076-2.248.087-3.374.095-.978-.012-1.955-.108-2.934-.066-.828.002-1.656.004-2.483.008l-3.079.008c-.968.003-1.936-.087-2.904-.084-1.133.003-2.267.004-3.4.012-1.013.008-2.025-.078-3.037-.024-.967.056-1.933.174-2.902.17-1.008.003-2.016.008-3.023.008-.867-.001-1.734-.003-2.6-.025-.808-.02-1.619-.074-2.425.012-.885.063-1.772.02-2.657.045-1.02.016-2.04.044-3.06.096-1.01.046-2.017.061-3.025-.06-.977-.054-1.955-.024-2.932-.07-1.061-.043-2.124-.127-3.186-.054-.881.051-1.762.103-2.645.094l-1.486.183c-.28.007-.566-.023-.827-.036-.473-.06-.943-.158-1.419-.179-.818.008-1.636.024-2.454.066-.984.053-1.97.028-2.955-.024-1.048-.06-2.094.07-3.142.024-.914-.044-1.831-.262-2.742-.097-.896.14-1.79.131-2.696.068-1.03-.048-2.055-.22-3.087-.17-1.125.076-2.248.087-3.374.095-.978-.012-1.955-.108-2.934-.066-.828.002-1.655.004-2.483.008l-3.078.008c-.968.003-1.936-.087-2.904-.084-1.134.003-2.268.004-3.401.012-1.012.008-2.025-.078-3.037-.024-.967.056-1.933.174-2.902.17-1.008.003-2.015.008-3.023.008-.867-.001-1.734-.003-2.6-.025-.808-.02-1.618-.074-2.425.012-.885.063-1.771.02-2.657.045-1.02.016-2.04.044-3.06.096-1.01.046-2.017.061-3.025-.06-.977-.054-1.955-.024-2.931-.07-1.062-.043-2.125-.127-3.186-.054-.882.051-1.763.103-2.646.094l.014.88.002.001a48.394 48.394 0 0 0 2.588-.098c1.048-.075 2.098.008 3.146.049.976.048 1.952.02 2.927.07 1.02.116 2.042.11 3.064.065a87.588 87.588 0 0 1 3.049-.097c.892-.024 1.785.012 2.676-.043.795-.088 1.592-.04 2.388-.02.87.025 1.74.025 2.61.028 1.009 0 2.017-.003 3.026-.008.976.008 1.95-.108 2.924-.167 1.005-.054 2.01.028 3.016.02 1.133-.008 2.266-.008 3.399-.012.968-.002 1.936.087 2.904.084l3.078-.008c.828-.002 1.655-.004 2.483-.008.976-.04 1.951.046 2.927.064a49.74 49.74 0 0 0 3.407-.09c1.016-.05 2.026.108 3.04.164.933.074 1.856.088 2.78-.06.882-.165 1.772.046 2.659.09 1.047.044 2.09-.088 3.137-.025 1 .06 2.001.087 3 .032a60.225 60.225 0 0 1 2.438-.067c.456.016.91.108 1.363.168.286.042.68.037.878.046zM386.269 153.274c.988.011 1.974-.043 2.962-.047.958.042 2.106.071 3.062 0 .866-.063 1.733-.02 2.6-.032 1.02-.02 2.04.012 3.059-.04.959-.072 1.917-.169 2.878-.152.86.05 1.719.108 2.579.135.86-.025 1.718.108 2.578.126.955-.036 1.908-.075 2.863-.032 1.107.062 2.215-.126 3.322-.108.938.004 1.876.032 2.813-.016.942-.06 1.881.1 2.82.189 1.039.028 2.078-.028 3.116-.058.944-.012 1.885.18 2.827.114a53.786 53.786 0 0 1 2.788-.07c.826.035 1.648-.064 2.471-.14.867-.072 1.736.052 2.605.04.677-.007 1.354-.007 2.032-.012.77-.024 1.532.091 2.296-.032.78-.147 1.566-.081 2.35-.032.786.048 1.404.077 2.192.04.892-.084 1.784-.007 2.678-.04 1.041.031 2.081.103 3.123.14.978.033 2.126-.08 3.105-.08.932.02 1.853-.041 2.767.205.634.176 1.506-.147 2.15-.079.245-.008.13.004.344-.036l-.03-.879v0s-.058.025-.211.049c-.623-.06-1.474.27-2.087.1-.948-.256-1.902-.207-2.869-.232-.974 0-2.118.113-3.092.083-1.05-.036-2.099-.109-3.149-.146-.896.028-1.791-.05-2.686.04-.772.046-1.376.012-2.148-.032-.81-.05-1.625-.124-2.434.024-.744.117-1.486.004-2.236.036-.679.001-1.357.002-2.036.012-.879.012-1.758-.113-2.635-.043-.813.073-1.624.18-2.44.143-.936.008-1.874.016-2.81.068-.937.064-1.873-.126-2.811-.112-1.023.028-2.046.08-3.07.066-.958-.09-1.916-.257-2.877-.198-.928.055-1.857.02-2.785.02-1.104-.016-2.208.173-3.311.11-.96-.045-1.916-.016-2.875.028-.858-.008-1.713-.156-2.572-.125-.862-.024-1.722-.08-2.583-.136-.97-.024-1.938.072-2.907.149-1.013.057-2.028.02-3.042.04-.875.012-1.75-.031-2.624.028-.947.07-2.087.05-3.035.004-.988.003-1.974.061-2.962.045l-1.076-.02c-.791.096-1.604.118-2.359.148-.973-.256-1.953-.207-2.947-.232-1 0-2.175.113-3.175.083-1.079-.036-2.157-.109-3.235-.146-.92.028-1.84-.05-2.759.04-.793.046-1.413.012-2.206-.032-.833-.05-1.67-.124-2.5.024-.764.117-1.527.004-2.297.036-.697.001-1.394.002-2.091.012-.902.012-1.805-.113-2.706-.043-.835.073-1.668.18-2.506.143-.962.008-1.925.016-2.887.068-.963.064-1.923-.126-2.887-.112-1.05.028-2.101.08-3.152.066-.985-.09-1.969-.257-2.956-.198-.953.055-1.907.02-2.861.02-1.134-.016-2.267.173-3.4.11-.986-.045-1.969-.016-2.954.028-.88-.008-1.759-.156-2.641-.125-.885-.024-1.769-.08-2.653-.136-.997-.024-1.991.072-2.986.149-1.04.057-2.083.02-3.125.04-.898.012-1.797-.031-2.695.028-.972.07-2.143.05-3.117.004-1.014.003-2.028.061-3.042.045l-.065.875h0c1.015.011 2.028-.043 3.043-.047.983.042 2.163.071 3.145 0 .889-.063 1.78-.02 2.67-.032 1.047-.02 2.095.012 3.142-.04.985-.072 1.97-.169 2.956-.152.883.05 1.765.108 2.649.135.884-.025 1.764.108 2.647.126.981-.036 1.96-.075 2.941-.032 1.138.062 2.275-.126 3.413-.108.963.004 1.926.032 2.89-.016.966-.06 1.93.1 2.895.189 1.067.028 2.134-.028 3.2-.058.97-.012 1.937.18 2.904.114a56.738 56.738 0 0 1 2.864-.07c.848.035 1.693-.064 2.538-.14.89-.072 1.783.052 2.675.04.696-.007 1.391-.007 2.087-.012.79-.024 1.574.091 2.359-.032.801-.147 1.608-.081 2.413-.032.808.048 1.443.077 2.252.04.916-.084 1.833-.008 2.75-.04 1.07.031 2.138.103 3.208.14 1.005.033 2.184-.08 3.19-.08.957.02 1.903-.041 2.842.205.82.14 2.017-.12 2.561-.115z" style="display:inline;fill:red;stroke:red;stroke-width:1.2;stroke-linecap:square;stroke-miterlimit:4;stroke-dasharray:none;stroke-opacity:1"/><path d="M315.239 122.658c-.075 2.264-.123 4.532-.197 6.796-.146 2.998-.105 5.99-.007 8.99.112 2.582.088 5.181.072 7.772-.007 1.64-.019 3.282-.023 4.922-.002.424-.002.847-.002 1.27l.734-.095v0c0-.419 0-.838.002-1.257.003-1.637.01-3.274.018-4.91.015-2.643.039-5.293-.077-7.926-.095-2.913-.129-5.819.01-8.73.076-2.309.128-4.62.198-6.93l-.733.098zM454.748 152.726c-.003-1.992-.003-3.984-.007-5.976-.007-2.83-.01-5.655.044-8.482.07-2.544.007-5.095-.018-7.64-.039-1.79.011-3.59-.096-5.368-.048-.608-.098-1.21-.116-1.829-.007-.352-.003-.179-.007-.519l-.71.142v0l.007.582c.022.653.072 1.29.123 1.933.104 1.718.046 3.464.088 5.193.026 2.506.088 5.018.018 7.523a372.026 372.026 0 0 0-.043 8.557l.007 5.977.71-.093zM460.54 122.658c-.075 2.264-.122 4.532-.197 6.796-.146 2.998-.105 5.99-.007 8.99.112 2.582.088 5.181.072 7.772-.007 1.64-.019 3.282-.023 4.922-.002.424-.002.847-.002 1.27l.734-.095v0c0-.419 0-.838.002-1.257.003-1.637.01-3.274.018-4.91.015-2.643.039-5.293-.077-7.926-.095-2.913-.129-5.819.01-8.73.076-2.309.128-4.62.198-6.93l-.728.098zM553.364 152.726c-.003-1.992-.003-3.984-.007-5.976-.007-2.83-.01-5.655.044-8.482.07-2.544.007-5.095-.018-7.64-.039-1.79.01-3.59-.096-5.368-.048-.608-.098-1.21-.116-1.829-.007-.352-.003-.179-.007-.519l-.71.142v0l.007.582c.022.653.072 1.29.123 1.933.103 1.718.045 3.464.087 5.193.027 2.506.088 5.018.02 7.523a372.026 372.026 0 0 0-.044 8.557l.007 5.977.71-.093z" style="display:inline;fill:red;stroke:red;stroke-width:1.4;stroke-linecap:square;stroke-miterlimit:4;stroke-dasharray:none;stroke-opacity:1"/><path d="M461.23 123.588c6.15-.003 12.3-.003 18.45-.007 8.732-.007 17.454-.012 26.177.044 7.853.069 15.727.007 23.582-.019 5.527-.038 11.083.011 16.571-.095 1.876-.048 3.737-.099 5.644-.117 1.089-.007.553-.003 1.603-.007l-.436-.71v0l-1.8.007c-2.013.023-3.983.073-5.964.124-5.305.103-10.692.045-16.03.087-7.736.026-15.489.088-23.22.018-8.803-.055-17.603-.052-26.413-.042l-18.45.007c.097.234.195.481.287.71zM552.971 152.383c-6.149.003-12.298.003-18.448.007-8.733.007-17.454.011-26.178-.044-7.852-.07-15.726-.007-23.582.019-5.526.038-11.083-.011-16.57.095-1.877.048-3.738.098-5.645.116-1.089.007-.553.003-1.603.007l.437.71v0l1.798-.007c2.014-.022 3.984-.072 5.966-.123 5.304-.103 10.691-.045 16.03-.087 7.735-.026 15.488-.088 23.22-.019 8.802.056 17.602.053 26.413.043l18.448-.007-.285-.71zM619.544 123.594c.715-.114 1.541-.098 2.306-.146.947.257 1.905.21 2.875.236.977 0 2.126-.111 3.102-.08 1.053.038 2.104.111 3.157.15.9-.027 1.796.052 2.694-.037.776-.045 1.38-.01 2.155.035.813.051 1.628.125 2.442-.021.748-.116 1.49-.002 2.243-.034.68 0 1.362 0 2.042-.01.882-.01 1.762.115 2.643.047.816-.073 1.631-.178 2.448-.14.94-.007 1.88-.014 2.82-.065.942-.063 1.877.128 2.819.115 1.026-.026 2.053-.077 3.079-.062.96.092 1.92.26 2.884.202.931-.055 1.863-.018 2.794-.017 1.107.017 2.216-.17 3.322-.106.962.046 1.922.018 2.885-.025.86.01 1.715.159 2.577.129.864.025 1.727.082 2.59.138.972.026 1.945-.07 2.917-.145 1.017-.056 2.035-.018 3.052-.037.878-.01 1.755.034 2.633-.025.95-.068 2.093-.046 3.044 0 .99-.002 1.98-.058 2.971-.04l.075-.875h0c-.991-.013-1.981.04-2.972.043-.96-.044-2.112-.074-3.071-.004-.87.062-1.74.018-2.609.029-1.023.019-2.045-.014-3.068.036-.963.07-1.926.167-2.89.15-.86-.053-1.722-.11-2.584-.139-.864.023-1.722-.11-2.584-.13-.959.035-1.915.073-2.873.029-1.11-.063-2.223.123-3.334.104-.94-.005-1.88-.034-2.821.013-.946.059-1.886-.103-2.826-.193-1.042-.029-2.085.026-3.126.055-.947.01-1.889-.183-2.834-.118-.933.055-1.865.061-2.798.068-.827-.037-1.654.06-2.48.135-.871.072-1.741-.053-2.612-.043-.68.007-1.359.006-2.038.01-.773.023-1.536-.093-2.304.03-.785.145-1.572.079-2.357.028-.789-.048-1.409-.078-2.199-.042-.896.083-1.79.006-2.687.038-1.044-.033-2.086-.107-3.13-.146-.98-.033-2.134.079-3.116.077-.935-.02-1.86.04-2.773-.208-.91-.096-1.973.077-2.503.112l-1.548-.18c-.854-.01-1.71.047-2.564.054-.826-.04-1.818-.066-2.648.007-.753.065-1.5.024-2.25.038-.884.023-1.764-.007-2.648.048-.833.074-1.668.173-2.498.16-.74-.05-1.48-.105-2.222-.13-.746.027-1.48-.104-2.223-.12-.828.039-1.654.08-2.478.039-.954-.06-1.922.132-2.879.117-.81-.002-1.62-.028-2.434.022-.817.062-1.62-.096-2.428-.182-.896-.025-1.798.033-2.698.066-.816.014-1.62-.176-2.438-.108-.806.058-1.61.068-2.415.078-.712-.034-1.429.067-2.145.145-.754.074-1.498-.048-2.25-.034-.586.01-1.172.011-1.758.017-.667.026-1.32-.087-1.988.037-.683.15-1.358.086-2.033.038-.678-.045-1.211-.073-1.894-.035-.776.087-1.544.013-2.318.048-.899-.03-1.795-.099-2.693-.134-.844-.03-1.844.086-2.69.088-.805-.017-1.605.046-2.382-.198-.538-.174-1.31.151-1.863.084-.213.01-.113-.004-.3.037l-.023.88v0s.051-.025.185-.05c.535.059 1.29-.273 1.81-.106.805.255 1.633.203 2.468.226.843-.003 1.838-.119 2.679-.09.906.033 1.81.103 2.715.138.777-.03 1.547.045 2.325-.047.67-.047 1.19-.015 1.856.027.699.049 1.399.12 2.106-.03.65-.118 1.286-.008 1.936-.042.587-.003 1.174-.005 1.762-.016.76-.015 1.513.109 2.276.037.707-.076 1.414-.184 2.117-.15.811-.01 1.622-.02 2.435-.075.814-.066 1.613.122 2.425.106.886-.03 1.774-.085 2.658-.074.823.088 1.643.253 2.477.192.806-.058 1.607-.025 2.41-.027.954.013 1.919-.179 2.87-.119.827.043 1.656.012 2.488-.034.741.006 1.472.152 2.217.119.743.022 1.484.076 2.226.129.838.022 1.68-.077 2.522-.156.88-.06 1.755-.025 2.634-.048.757-.014 1.511.028 2.27-.034.823-.072 1.807-.054 2.625-.011.854-.005 1.71-.066 2.564-.052z" style="display:inline;fill:red;stroke:red;stroke-width:1.2;stroke-linecap:square;stroke-miterlimit:4;stroke-dasharray:none;stroke-opacity:1"/><path d="M559.638 152.726c-.003-1.992-.003-3.984-.007-5.976-.007-2.83-.011-5.655.044-8.482.07-2.544.007-5.095-.019-7.64-.038-1.79.012-3.59-.095-5.368-.048-.608-.098-1.21-.116-1.829-.007-.352-.003-.179-.007-.519l-.71.142v0l.007.582c.022.653.072 1.29.123 1.933.103 1.718.045 3.464.087 5.193.026 2.506.088 5.018.019 7.523a372.026 372.026 0 0 0-.043 8.557l.007 5.977.71-.093zM688.95 153.386c-.003-2.076-.003-4.153-.007-6.229-.007-2.948-.011-5.893.044-8.838.07-2.651.007-5.31-.019-7.962-.038-1.866.012-3.742-.095-5.595-.048-.633-.098-1.262-.116-1.906-.007-.367-.003-.186-.007-.541l-.71.148v0l.007.607c.022.68.072 1.345.123 2.014.103 1.79.045 3.61.087 5.412.026 2.612.088 5.23.019 7.84a404.044 404.044 0 0 0-.043 8.918l.007 6.228.71-.096z" style="display:inline;fill:red;stroke:red;stroke-width:1.4;stroke-linecap:square;stroke-miterlimit:4;stroke-dasharray:none;stroke-opacity:1"/><path d="M628.171 151.947c-.715.116-1.54.102-2.305.152-.949-.255-1.906-.204-2.876-.228-.977.002-2.125.117-3.102.088-1.053-.035-2.105-.106-3.157-.142-.9.03-1.797-.047-2.695.044-.775.047-1.38.015-2.154-.029-.813-.05-1.63-.121-2.442.028-.748.118-1.49.006-2.243.04-.68.001-1.362.003-2.043.015-.88.013-1.761-.11-2.642-.04-.816.075-1.63.182-2.448.147-.94.009-1.88.018-2.82.072-.941.065-1.877-.123-2.819-.108-1.026.03-2.053.083-3.079.07-.96-.089-1.92-.254-2.884-.194-.932.057-1.863.023-2.794.024-1.107-.014-2.216.177-3.322.116-.962-.044-1.922-.014-2.884.032-.86-.007-1.717-.154-2.579-.122-.864-.023-1.726-.078-2.59-.132-.972-.022-1.944.075-2.916.153-1.018.06-2.035.023-3.053.045-.877.013-1.755-.03-2.632.032-.95.071-2.093.052-3.044.008-.99.005-1.98.063-2.971.049l-.073.874c1.036.013 2.087-.044 2.973-.05.96.04 2.112.068 3.07-.005.87-.064 1.74-.022 2.609-.036 1.023-.021 2.046.01 3.068-.044.963-.073 1.925-.172 2.889-.157.861.05 1.723.106 2.585.131.864-.025 1.722.106 2.585.123.958-.037 1.914-.077 2.872-.036 1.11.06 2.223-.13 3.334-.113.94.003 1.88.029 2.821-.02.945-.062 1.886.098 2.827.185 1.041.026 2.084-.031 3.126-.063.946-.013 1.888.178 2.834.11a54.048 54.048 0 0 1 2.797-.075c.828.035 1.654-.065 2.48-.142.87-.073 1.741.049 2.612.036.68-.008 1.36-.01 2.039-.015.772-.025 1.536.089 2.303-.035.784-.148 1.572-.084 2.357-.036.789.047 1.409.075 2.199.037.895-.086 1.79-.01 2.687-.045 1.044.03 2.086.101 3.13.137.981.03 2.134-.084 3.116-.085.935.019 1.86-.044 2.773.2.91.094 1.973-.081 2.503-.118l1.549.176c.853.008 1.71-.051 2.564-.06.826.038 1.818.061 2.648-.015.752-.066 1.5-.028 2.25-.044.883-.025 1.763.002 2.647-.054.834-.077 1.668-.178 2.498-.166.74.047 1.48.1 2.223.123.746-.029 1.48.1 2.222.114.828-.04 1.654-.084 2.478-.045.954.057 1.922-.137 2.88-.125.81 0 1.62.024 2.433-.029.817-.064 1.62.092 2.428.176.897.023 1.798-.038 2.698-.073.817-.016 1.62.172 2.439.101.806-.06 1.61-.072 2.414-.084.712.032 1.429-.07 2.145-.15.754-.077 1.499.043 2.25.028.586-.012 1.172-.015 1.758-.022.667-.028 1.32.084 1.988-.043.682-.15 1.358-.089 2.033-.043.678.044 1.211.07 1.894.03.776-.09 1.544-.017 2.318-.054.899.027 1.795.094 2.693.127.845.027 1.844-.091 2.69-.095.805.015 1.605-.05 2.382.192.539.173 1.31-.155 1.863-.09.213-.01.113.004.3-.038l.021-.878v0s-.051.024-.185.049c-.535-.057-1.288.276-1.81.11-.806-.252-1.633-.198-2.469-.219-.842.005-1.837.124-2.678.098-.906-.031-1.81-.099-2.716-.131-.776.032-1.546-.041-2.324.053-.67.049-1.19.018-1.856-.022-.699-.047-1.4-.117-2.107.035-.65.12-1.285.012-1.935.047-.587.004-1.174.008-1.762.021-.76.017-1.514-.105-2.276-.03-.707.077-1.414.187-2.117.154-.811.012-1.622.025-2.435.082-.813.068-1.612-.118-2.425-.1-.886.033-1.773.09-2.657.081-.824-.086-1.644-.248-2.479-.185-.805.06-1.606.03-2.41.034-.953-.011-1.918.184-2.868.126-.827-.04-1.657-.007-2.488.041-.742-.004-1.473-.148-2.218-.113-.743-.02-1.485-.073-2.226-.123-.838-.02-1.68.08-2.522.162-.88.062-1.755.03-2.633.055-.757.016-1.512-.024-2.27.04-.823.075-1.808.06-2.626.019-.854.007-1.71.07-2.563.058z" style="display:inline;fill:red;stroke:red;stroke-width:1.2;stroke-linecap:square;stroke-miterlimit:4;stroke-dasharray:none;stroke-opacity:1"/><path d="M386.975 115.966c.802.012 1.604-.042 2.406-.047.778.043 1.711.072 2.488 0 .703-.062 1.408-.02 2.112-.031.828-.02 1.657.012 2.485-.04.779-.072 1.557-.17 2.338-.153.698.051 1.396.108 2.095.135.7-.024 1.396.109 2.094.127.776-.036 1.55-.075 2.326-.032.9.062 1.8-.126 2.7-.109.761.004 1.523.032 2.284-.016.765-.06 1.528.101 2.291.19.844.027 1.688-.028 2.532-.059.766-.012 1.53.18 2.296.115.754-.056 1.51-.064 2.265-.071.67.036 1.339-.063 2.007-.139.705-.072 1.41.052 2.116.04.55-.008 1.1-.008 1.65-.012.626-.024 1.246.09 1.866-.032.634-.147 1.273-.081 1.909-.032.64.047 1.141.077 1.781.04.725-.085 1.45-.008 2.176-.041.846.032 1.69.104 2.536.141.795.032 1.728-.08 2.523-.08.758.02 1.506-.042 2.248.205.515.176 1.223-.148 1.746-.08.2-.007.107.005.28-.036l-.025-.878v0s-.047.024-.17.049c-.507-.06-1.198.269-1.696.1-.77-.256-1.545-.207-2.33-.233-.792 0-1.721.114-2.512.083-.853-.036-1.706-.108-2.559-.145-.728.028-1.455-.05-2.181.04-.628.046-1.118.012-1.746-.032-.659-.051-1.32-.124-1.977.024-.605.116-1.208.004-1.817.036-.55.001-1.102.002-1.654.012-.713.012-1.427-.113-2.14-.043-.66.073-1.32.18-1.982.143-.761.008-1.523.016-2.284.068-.76.064-1.52-.126-2.283-.112-.83.028-1.662.08-2.493.066-.779-.09-1.557-.258-2.338-.199-.754.056-1.508.02-2.263.02-.897-.016-1.793.174-2.69.11-.778-.044-1.556-.015-2.335.029-.697-.008-1.391-.157-2.09-.126-.7-.024-1.398-.08-2.098-.135-.788-.024-1.574.072-2.36.149-.824.057-1.649.02-2.473.04-.71.012-1.421-.032-2.131.028-.77.07-1.695.049-2.466.004-.802.003-1.603.06-2.406.045l-.051.874z" style="display:inline;fill:red;stroke:red;stroke-width:1.4;stroke-linecap:square;stroke-miterlimit:4;stroke-dasharray:none;stroke-opacity:1"/><path d="M387.358 124.127c.075-.677.122-1.355.196-2.031.146-.896.106-1.79.007-2.687-.112-.771-.087-1.548-.071-2.322.007-.49.018-.98.022-1.47.002-.127.002-.254.002-.38l-.733.028v0c0 .125 0 .25-.002.376-.003.489-.011.978-.019 1.467-.015.79-.038 1.582.078 2.368.095.87.129 1.74-.011 2.609-.075.69-.128 1.38-.198 2.07l.733-.029zM507.783 92.597c-.012.433.043.865.047 1.298-.042.42-.071.922 0 1.34.063.38.02.76.032 1.14.02.446-.012.893.04 1.34.071.42.169.839.152 1.26-.05.376-.108.753-.135 1.13.024.376-.108.752-.126 1.128.036.419.074.836.032 1.254-.062.485.126.97.108 1.456-.004.41-.032.821.016 1.232.06.412-.1.823-.189 1.235-.028.455.028.91.058 1.364.012.414-.18.826-.114 1.238.055.407.063.814.07 1.221-.035.362.063.722.14 1.083.072.38-.052.76-.04 1.14.007.297.007.594.011.89.025.338-.09.672.032 1.006.148.342.082.686.032 1.03-.047.344-.076.615-.04.96.085.39.008.781.042 1.172-.032.456-.104.912-.142 1.368-.032.429.081.932.08 1.36-.02.409.042.812-.204 1.212-.176.278.147.66.079.941.008.108-.004.058.036.151l.879-.013c-.104-.328-.114-.67-.15-1.006.257-.415.208-.833.233-1.257 0-.426-.114-.927-.083-1.354.036-.46.108-.92.146-1.38-.028-.392.05-.784-.04-1.175-.046-.339-.013-.603.032-.941.05-.355.123-.712-.024-1.066-.117-.326-.004-.651-.037-.98 0-.297-.002-.594-.011-.891-.012-.385.113-.77.043-1.154-.074-.356-.18-.712-.143-1.069-.008-.41-.016-.82-.068-1.231-.064-.41.126-.82.112-1.231-.028-.448-.08-.896-.066-1.344.09-.42.257-.84.198-1.26-.056-.407-.02-.814-.02-1.22.016-.484-.173-.967-.11-1.45.045-.42.016-.84-.028-1.26.008-.376.156-.75.125-1.126.024-.378.08-.755.136-1.132.024-.424-.072-.849-.15-1.273-.057-.444-.02-.888-.04-1.332-.012-.383.032-.767-.028-1.15-.07-.414-.049-.913-.004-1.329-.003-.432-.06-.864-.044-1.297l-.875-.028z" style="display:inline;fill:red;stroke:red;stroke-width:1.4;stroke-linecap:square;stroke-miterlimit:4;stroke-dasharray:none;stroke-opacity:1"/><path d="M624.014 114.823c-.915.004-1.829.048-2.744.098-1.111.075-2.224-.008-3.336-.049-1.034-.048-2.07-.02-3.103-.07-1.083-.116-2.165-.11-3.25-.065-1.076.052-2.154.08-3.232.097-.946.024-1.892-.012-2.838.043-.842.088-1.688.04-2.532.02-.922-.025-1.845-.025-2.768-.028-1.069 0-2.138.003-3.208.008-1.035-.008-2.067.108-3.1.167-1.066.054-2.132-.028-3.198-.02-1.202.008-2.403.008-3.604.012-1.027.002-2.053-.087-3.08-.084l-3.264.008c-.877.002-1.755.004-2.632.008-1.036.04-2.07-.046-3.104-.064-1.206 0-2.409.012-3.613.09-1.077.05-2.148-.108-3.222-.164-.99-.074-1.969-.088-2.948.06-.936.165-1.88-.046-2.82-.09-1.11-.044-2.217.088-3.327.025a29.575 29.575 0 0 0-3.181-.032c-.861.042-1.723.058-2.584.067-.485-.016-.965-.108-1.446-.168a8.266 8.266 0 0 0-.825-.045h-.106l-.07.875v0h.1c.26.003.519.008.777.036.502.059 1 .157 1.505.178a66.241 66.241 0 0 0 2.602-.066 31.293 31.293 0 0 1 3.134.024c1.111.061 2.22-.07 3.331-.024.969.044 1.942.263 2.907.098.951-.141 1.9-.132 2.86-.069 1.09.049 2.179.22 3.272.17 1.193-.076 2.384-.087 3.578-.094 1.037.011 2.073.108 3.112.065.877-.002 1.755-.004 2.632-.008l3.264-.008c1.027-.003 2.053.087 3.08.084 1.201-.003 2.404-.004 3.606-.011 1.073-.008 2.147.077 3.22.024 1.025-.057 2.05-.175 3.076-.17 1.07-.003 2.138-.008 3.207-.008.919 0 1.838.003 2.757.024.856.02 1.715.075 2.57-.012.939-.062 1.879-.02 2.818-.045a95.94 95.94 0 0 0 3.244-.096c1.07-.045 2.14-.06 3.208.06 1.036.054 2.073.024 3.108.07 1.126.043 2.253.128 3.379.055.935-.051 1.869-.103 2.804-.094l-.013-.88z" style="display:inline;fill:red;stroke:red;stroke-width:1.2;stroke-linecap:square;stroke-miterlimit:4;stroke-dasharray:none;stroke-opacity:1"/><path d="M625.217 123.19c-.003-.57-.003-1.142-.007-1.713-.007-.811-.011-1.622.044-2.432.07-.73.007-1.461-.019-2.19-.038-.514.012-1.03-.095-1.54-.048-.175-.098-.347-.116-.525-.007-.1-.003-.051-.007-.149l-.71.041v0l.007.167c.022.187.072.37.123.554.103.493.045.994.087 1.49.026.718.088 1.438.019 2.157a30.614 30.614 0 0 0-.043 2.453l.007 1.714.71-.026z" style="display:inline;fill:red;stroke:red;stroke-width:1.4;stroke-linecap:square;stroke-miterlimit:4;stroke-dasharray:none;stroke-opacity:1"/></g><path d="m124.348 75.476-1.733 6.568s-.02.038-.02.21c0 .21.115.323.267.323.19 0 .476-.038 1.219-1.028l.228.229c-.59.895-1.618 2.037-2.532 2.037-.628 0-.8-.438-.8-1.047 0-.248.115-.647.21-.952h-.076c-1.371 1.752-2.552 2-3.294 2-1.2 0-1.695-1.048-1.695-2.267 0-2.513 2.514-6.321 5.255-6.321.819 0 1.219.457 1.257.876h.019l.171-.628zm-2 1.656c0-.78-.228-1.352-.952-1.352-1.294 0-2.437 1.657-3.084 3.256-.343.857-.533 1.695-.533 2.361 0 1.01.59 1.257 1.104 1.257 1.314 0 2.647-1.81 3.18-3.618a7.148 7.148 0 0 0 .285-1.904zM130.962 77.796l-2.854 8.804h-.875l2.666-8.023h-2.894c-.781 0-1.01.188-1.575 1.104l-.243-.122.808-1.978h4.967zM139.37 78.141l.857-1.314c.495-.761 1.161-1.599 2.113-1.599.61 0 .933.229.933.628 0 .362-.247.8-.742.8-.42 0-.514-.171-.838-.171-.571 0-.78.304-1.047.723l-1.047 1.619c.57 1.18 1.009 3.75 1.865 3.75.305 0 .762-.266 1.162-1.085l.266.19c-.228.286-1.085 2.114-2.19 2.114-.78 0-1.142-.78-1.389-1.466l-.762-2.152-1.2 1.866c-.608.933-1.16 1.752-2.227 1.752-.685 0-.99-.476-.99-.895 0-.304.248-.704.724-.704.495 0 .418.38.894.38.229 0 .724-.19 1.333-1.123l1.238-1.923-.628-1.752c-.324-.914-.82-1.694-1.866-1.694-.248 0-.533.038-.724.114l-.057-.343 2.513-.628c.838.457 1.2 1.238 1.428 1.866zM150.08 67.08l-2.854 8.804h-.875l2.665-8.022h-2.894c-.78 0-1.01.188-1.575 1.103l-.242-.12.808-1.98h4.967zM169.034 79.436h-4.969v4.97h-1.257v-4.97h-4.97v-1.257h4.97v-4.97h1.257v4.97h4.97zM183.181 75.476l-1.733 6.568s-.019.038-.019.21c0 .21.115.323.267.323.19 0 .476-.038 1.219-1.028l.228.229c-.59.895-1.618 2.037-2.532 2.037-.629 0-.8-.438-.8-1.047 0-.248.114-.647.21-.952h-.077c-1.37 1.752-2.551 2-3.294 2-1.2 0-1.694-1.048-1.694-2.267 0-2.513 2.513-6.321 5.255-6.321.819 0 1.218.457 1.257.876h.019l.17-.628zm-2 1.656c0-.78-.228-1.352-.951-1.352-1.295 0-2.437 1.657-3.085 3.256-.342.857-.533 1.695-.533 2.361 0 1.01.59 1.257 1.105 1.257 1.313 0 2.646-1.81 3.18-3.618a7.148 7.148 0 0 0 .285-1.904zM189.755 77.284l.027.216c-2.113.35-3.62 1.804-3.984 3.836.66-.511 1.117-.605 1.71-.605 1.574 0 2.544 1.076 2.544 2.813 0 .861-.243 1.615-.687 2.154-.498.619-1.252.982-2.14.982-1.064 0-1.912-.498-2.383-1.36-.377-.686-.633-1.641-.633-2.584 0-1.454.512-2.732 1.468-3.715 1.157-1.212 2.22-1.535 4.078-1.737zm-.915 6.677c0-1.723-.565-2.611-1.817-2.611-.767 0-1.562.323-1.562 1.561 0 2.046.646 3.392 1.912 3.392.969 0 1.467-.969 1.467-2.342zM198.223 78.141l.857-1.314c.495-.761 1.16-1.599 2.113-1.599.61 0 .933.229.933.628 0 .362-.248.8-.743.8-.419 0-.514-.171-.837-.171-.572 0-.781.304-1.048.723l-1.047 1.619c.571 1.18 1.01 3.75 1.866 3.75.305 0 .762-.266 1.162-1.085l.266.19c-.228.286-1.085 2.114-2.19 2.114-.78 0-1.142-.78-1.39-1.466l-.761-2.152-1.2 1.866c-.609.933-1.161 1.752-2.227 1.752-.686 0-.99-.476-.99-.895 0-.304.247-.704.723-.704.495 0 .42.38.895.38.229 0 .724-.19 1.333-1.123l1.238-1.923-.629-1.752c-.323-.914-.819-1.694-1.866-1.694-.247 0-.533.038-.723.114l-.057-.343 2.513-.628c.838.457 1.2 1.238 1.428 1.866zM208.892 66.57l.027.215c-2.113.35-3.621 1.803-3.984 3.836.66-.511 1.117-.606 1.71-.606 1.574 0 2.543 1.077 2.543 2.814 0 .861-.242 1.615-.686 2.154-.498.619-1.252.982-2.14.982-1.064 0-1.912-.498-2.383-1.36-.377-.686-.633-1.642-.633-2.584 0-1.454.512-2.733 1.467-3.715 1.158-1.212 2.221-1.535 4.08-1.737zm-.915 6.676c0-1.723-.566-2.611-1.818-2.611-.767 0-1.561.323-1.561 1.561 0 2.046.646 3.392 1.911 3.392.97 0 1.468-.969 1.468-2.342zM227.868 79.436h-4.97v4.97h-1.256v-4.97h-4.97v-1.257h4.97v-4.97h1.257v4.97h4.969zM242.034 75.476l-1.733 6.568s-.019.038-.019.21c0 .21.114.323.267.323.19 0 .476-.038 1.218-1.028l.229.229c-.59.895-1.619 2.037-2.533 2.037-.628 0-.8-.438-.8-1.047 0-.248.115-.647.21-.952h-.076c-1.37 1.752-2.551 2-3.294 2-1.2 0-1.695-1.048-1.695-2.267 0-2.513 2.514-6.321 5.256-6.321.818 0 1.218.457 1.256.876h.02l.17-.628zm-2 1.656c0-.78-.228-1.352-.951-1.352-1.295 0-2.438 1.657-3.085 3.256-.343.857-.533 1.695-.533 2.361 0 1.01.59 1.257 1.104 1.257 1.314 0 2.647-1.81 3.18-3.618a7.148 7.148 0 0 0 .286-1.904zM248.5 77.325l-.484 1.144c-.04.094-.148.175-.364.175h-2.611l-.539 1.144c1.925.364 2.598.66 3.366 1.723.35.485.47.996.47 1.71 0 1.292-.403 2.127-1.318 2.8-.633.457-1.373.66-2.289.66-1.01 0-1.71-.324-1.71-.835 0-.337.23-.512.606-.512.31 0 .566.068.997.418.376.31.686.43.955.43.943 0 1.818-1.117 1.818-2.275 0-.861-.297-1.534-.902-2.019-.633-.511-1.575-.942-2.868-.942-.12 0-.161-.027-.161-.108 0-.027.013-.067.013-.067l1.468-3.19h2.786c.31 0 .43-.068.646-.35zM257.056 78.141l.857-1.314c.495-.761 1.162-1.599 2.114-1.599.609 0 .933.229.933.628 0 .362-.248.8-.743.8-.419 0-.514-.171-.838-.171-.571 0-.78.304-1.047.723l-1.047 1.619c.571 1.18 1.009 3.75 1.866 3.75.304 0 .761-.266 1.161-1.085l.267.19c-.229.286-1.086 2.114-2.19 2.114-.78 0-1.142-.78-1.39-1.466l-.761-2.152-1.2 1.866c-.61.933-1.161 1.752-2.228 1.752-.685 0-.99-.476-.99-.895 0-.304.248-.704.724-.704.495 0 .419.38.895.38.228 0 .723-.19 1.333-1.123l1.237-1.923-.628-1.752c-.324-.914-.819-1.694-1.866-1.694-.248 0-.533.038-.724.114l-.057-.343 2.514-.628c.837.457 1.199 1.238 1.428 1.866zM267.618 66.61l-.485 1.144c-.04.094-.148.175-.363.175h-2.612l-.538 1.144c1.925.364 2.598.66 3.365 1.723.35.485.471.996.471 1.71 0 1.292-.403 2.127-1.319 2.8-.632.457-1.373.66-2.288.66-1.01 0-1.71-.324-1.71-.835 0-.337.23-.512.606-.512.31 0 .565.067.996.417.377.31.687.431.956.431.942 0 1.817-1.117 1.817-2.275 0-.861-.296-1.534-.902-2.019-.632-.512-1.575-.942-2.867-.942-.121 0-.161-.027-.161-.108 0-.027.013-.067.013-.067l1.467-3.19h2.787c.31 0 .43-.068.646-.35zM286.72 79.436h-4.969v4.97h-1.256v-4.97h-4.97v-1.257h4.97v-4.97h1.256v4.97h4.97zM300.886 75.476l-1.732 6.568s-.02.038-.02.21c0 .21.115.323.267.323.19 0 .476-.038 1.219-1.028l.228.229c-.59.895-1.618 2.037-2.532 2.037-.628 0-.8-.438-.8-1.047 0-.248.115-.647.21-.952h-.076c-1.371 1.752-2.552 2-3.294 2-1.2 0-1.695-1.048-1.695-2.267 0-2.513 2.513-6.321 5.255-6.321.819 0 1.219.457 1.257.876h.019l.171-.628zm-1.999 1.656c0-.78-.228-1.352-.952-1.352-1.295 0-2.437 1.657-3.084 3.256-.343.857-.533 1.695-.533 2.361 0 1.01.59 1.257 1.104 1.257 1.314 0 2.646-1.81 3.18-3.618a7.148 7.148 0 0 0 .285-1.904zM307.824 84.244h-1.386v2.248h-1.05v-2.248h-3.77v-.862l4.227-5.99h.593v5.99h1.386zm-2.436-.862v-4.617l-3.231 4.617ZM315.909 78.141l.857-1.314c.495-.761 1.161-1.599 2.113-1.599.61 0 .933.229.933.628 0 .362-.247.8-.742.8-.42 0-.514-.171-.838-.171-.571 0-.78.304-1.047.723l-1.048 1.619c.572 1.18 1.01 3.75 1.866 3.75.305 0 .762-.266 1.162-1.085l.266.19c-.228.286-1.085 2.114-2.19 2.114-.78 0-1.142-.78-1.39-1.466l-.76-2.152-1.2 1.866c-.61.933-1.162 1.752-2.228 1.752-.685 0-.99-.476-.99-.895 0-.304.247-.704.723-.704.496 0 .42.38.895.38.229 0 .724-.19 1.333-1.123l1.238-1.923-.629-1.752c-.323-.914-.818-1.694-1.865-1.694-.248 0-.534.038-.724.114l-.057-.343 2.513-.628c.838.457 1.2 1.238 1.428 1.866zM326.942 73.529h-1.387v2.248h-1.05v-2.248h-3.769v-.862l4.227-5.99h.592v5.99h1.387zm-2.437-.862V68.05l-3.23 4.617ZM345.573 79.436h-4.97v4.97h-1.256v-4.97h-4.97v-1.257h4.97v-4.97h1.257v4.97h4.97zM359.739 75.476l-1.733 6.568s-.019.038-.019.21c0 .21.115.323.267.323.19 0 .476-.038 1.218-1.028l.229.229c-.59.895-1.618 2.037-2.532 2.037-.629 0-.8-.438-.8-1.047 0-.248.114-.647.21-.952h-.077c-1.37 1.752-2.551 2-3.294 2-1.2 0-1.694-1.048-1.694-2.267 0-2.513 2.513-6.321 5.255-6.321.819 0 1.218.457 1.256.876h.02l.17-.628zm-2 1.656c0-.78-.228-1.352-.951-1.352-1.295 0-2.437 1.657-3.085 3.256-.342.857-.533 1.695-.533 2.361 0 1.01.59 1.257 1.105 1.257 1.313 0 2.646-1.81 3.18-3.618a7.148 7.148 0 0 0 .285-1.904zM361.13 79.627l-.215-.054c.39-1.279 1.239-2.18 2.639-2.18 1.252 0 2.1.74 2.1 1.843 0 .646-.35 1.32-1.252 1.858.592.256.834.417 1.117.713.377.418.592 1.037.592 1.737 0 .713-.228 1.373-.619 1.885-.646.861-1.925 1.251-3.123 1.251-.982 0-1.507-.282-1.507-.767 0-.283.242-.484.551-.484.23 0 .445.08.822.35.498.35.78.417 1.157.417.996 0 1.75-.916 1.75-2.06 0-1.023-.47-1.682-1.4-1.952-.296-.094-.605-.134-1.373-.134v-.189c.512-.175.862-.323 1.131-.484.66-.377 1.09-.983 1.09-1.804 0-.916-.565-1.373-1.453-1.373-.835 0-1.454.43-2.006 1.427zM374.762 78.141l.856-1.314c.495-.761 1.162-1.599 2.114-1.599.61 0 .933.229.933.628 0 .362-.248.8-.743.8-.419 0-.514-.171-.838-.171-.57 0-.78.304-1.047.723l-1.047 1.619c.571 1.18 1.01 3.75 1.866 3.75.305 0 .762-.266 1.161-1.085l.267.19c-.228.286-1.085 2.114-2.19 2.114-.78 0-1.142-.78-1.39-1.466l-.761-2.152-1.2 1.866c-.609.933-1.161 1.752-2.227 1.752-.686 0-.99-.476-.99-.895 0-.304.247-.704.723-.704.495 0 .419.38.895.38.228 0 .724-.19 1.333-1.123l1.237-1.923-.628-1.752c-.324-.914-.819-1.694-1.866-1.694-.247 0-.533.038-.723.114l-.057-.343 2.513-.628c.838.457 1.2 1.238 1.428 1.866zM380.248 68.912l-.215-.054c.39-1.28 1.238-2.181 2.638-2.181 1.252 0 2.1.74 2.1 1.844 0 .646-.35 1.32-1.252 1.858.593.256.835.417 1.118.713.377.418.592 1.037.592 1.737 0 .713-.229 1.373-.62 1.884-.645.862-1.924 1.252-3.122 1.252-.983 0-1.508-.282-1.508-.767 0-.283.242-.485.552-.485.229 0 .444.081.821.35.498.35.781.418 1.158.418.996 0 1.75-.916 1.75-2.06 0-1.023-.471-1.683-1.4-1.952-.296-.094-.606-.134-1.373-.134v-.189c.511-.175.861-.323 1.13-.485.66-.376 1.091-.982 1.091-1.803 0-.916-.565-1.373-1.454-1.373-.834 0-1.454.43-2.006 1.427zM404.426 79.436h-4.97v4.97H398.2v-4.97h-4.97v-1.257h4.97v-4.97h1.256v4.97h4.97zM415.374 86.69l-.229.305c-3.008-1.714-4.645-4.932-4.645-8.168 0-3.523 1.656-6.265 4.703-8.073l.17.304c-2.646 2.266-3.236 4.037-3.236 7.711 0 3.542.571 5.693 3.237 7.921zM427.769 79.436h-10.605v-1.257h10.605zM437.974 75.476l-1.732 6.568s-.02.038-.02.21c0 .21.115.323.267.323.19 0 .476-.038 1.219-1.028l.228.229c-.59.895-1.618 2.037-2.532 2.037-.628 0-.8-.438-.8-1.047 0-.248.115-.647.21-.952h-.076c-1.371 1.752-2.552 2-3.294 2-1.2 0-1.695-1.048-1.695-2.267 0-2.513 2.513-6.321 5.255-6.321.819 0 1.219.457 1.257.876h.019l.171-.628zm-1.999 1.656c0-.78-.228-1.352-.952-1.352-1.295 0-2.437 1.657-3.084 3.256-.343.857-.533 1.695-.533 2.361 0 1.01.59 1.257 1.104 1.257 1.314 0 2.646-1.81 3.18-3.618a7.148 7.148 0 0 0 .285-1.904zM444.926 84.648l-.727 1.844h-5.264v-.162l2.397-2.544c1.265-1.332 1.75-2.355 1.75-3.5 0-1.225-.727-1.898-1.872-1.898-.969 0-1.44.431-1.978 1.75l-.283-.067c.283-1.575 1.144-2.679 2.8-2.679 1.52 0 2.49 1.037 2.49 2.37 0 1.063-.525 2.072-1.723 3.338l-2.221 2.369h3.15c.565 0 .848-.148 1.292-.902zM447.761 71.058l.228-.304c2.914 1.751 4.646 4.931 4.646 8.168 0 3.522-1.675 6.226-4.703 8.073l-.171-.305c2.704-2.228 3.237-4.017 3.237-7.711 0-3.56-.476-5.75-3.237-7.92zM459.356 78.141l.857-1.314c.495-.761 1.162-1.599 2.114-1.599.609 0 .933.229.933.628 0 .362-.248.8-.743.8-.419 0-.514-.171-.838-.171-.571 0-.78.304-1.047.723l-1.047 1.619c.571 1.18 1.009 3.75 1.866 3.75.304 0 .761-.266 1.161-1.085l.267.19c-.229.286-1.086 2.114-2.19 2.114-.78 0-1.142-.78-1.39-1.466l-.761-2.152-1.2 1.866c-.61.933-1.161 1.752-2.228 1.752-.685 0-.99-.476-.99-.895 0-.304.248-.704.724-.704.495 0 .419.38.895.38.228 0 .723-.19 1.333-1.123l1.237-1.923-.628-1.752c-.324-.914-.819-1.694-1.866-1.694-.248 0-.533.038-.724.114l-.057-.343 2.514-.628c.837.457 1.199 1.238 1.428 1.866zM470.403 73.933l-.727 1.844h-5.264v-.162l2.396-2.544c1.266-1.333 1.75-2.356 1.75-3.5 0-1.225-.726-1.898-1.87-1.898-.97 0-1.441.43-1.98 1.75l-.282-.067c.283-1.575 1.144-2.68 2.8-2.68 1.52 0 2.49 1.037 2.49 2.37 0 1.064-.525 2.073-1.723 3.339l-2.221 2.369h3.15c.565 0 .848-.148 1.292-.902zM489.02 79.436h-4.969v4.97h-1.256v-4.97h-4.97v-1.257h4.97v-4.97h1.256v4.97h4.97zM503.186 75.476l-1.732 6.568s-.02.038-.02.21c0 .21.115.323.267.323.19 0 .476-.038 1.219-1.028l.228.229c-.59.895-1.618 2.037-2.532 2.037-.628 0-.8-.438-.8-1.047 0-.248.115-.647.21-.952h-.076c-1.371 1.752-2.552 2-3.294 2-1.2 0-1.695-1.048-1.695-2.267 0-2.513 2.513-6.321 5.255-6.321.819 0 1.219.457 1.257.876h.019l.171-.628zm-1.999 1.656c0-.78-.228-1.352-.952-1.352-1.295 0-2.437 1.657-3.084 3.256-.343.857-.533 1.695-.533 2.361 0 1.01.59 1.257 1.104 1.257 1.314 0 2.646-1.81 3.18-3.618a7.148 7.148 0 0 0 .285-1.904zM509.06 86.492h-3.715v-.202c.997-.054 1.28-.337 1.28-1.077V79.17c0-.458-.122-.66-.405-.66-.134 0-.363.068-.605.162l-.364.135v-.189l2.41-1.225.12.04v8.037c0 .579.27.821 1.28.821zM518.209 78.141l.857-1.314c.495-.761 1.161-1.599 2.113-1.599.61 0 .933.229.933.628 0 .362-.247.8-.742.8-.42 0-.514-.171-.838-.171-.571 0-.78.304-1.047.723l-1.048 1.619c.572 1.18 1.01 3.75 1.866 3.75.305 0 .762-.266 1.162-1.085l.266.19c-.228.286-1.085 2.114-2.19 2.114-.78 0-1.142-.78-1.39-1.466l-.76-2.152-1.2 1.866c-.61.933-1.162 1.752-2.228 1.752-.685 0-.99-.476-.99-.895 0-.304.247-.704.723-.704.496 0 .42.38.895.38.229 0 .724-.19 1.333-1.123l1.238-1.923-.629-1.752c-.323-.914-.818-1.694-1.865-1.694-.248 0-.534.038-.724.114l-.057-.343 2.513-.628c.838.457 1.2 1.238 1.428 1.866zM539.23 79.436h-4.97v4.97h-1.257v-4.97h-4.97v-1.257h4.97v-4.97h1.257v4.97h4.97zM553.376 75.476l-1.733 6.568s-.019.038-.019.21c0 .21.114.323.267.323.19 0 .476-.038 1.218-1.028l.229.229c-.59.895-1.619 2.037-2.533 2.037-.628 0-.8-.438-.8-1.047 0-.248.115-.647.21-.952h-.076c-1.37 1.752-2.551 2-3.294 2-1.2 0-1.694-1.048-1.694-2.267 0-2.513 2.513-6.321 5.255-6.321.818 0 1.218.457 1.256.876h.02l.17-.628zm-2 1.656c0-.78-.228-1.352-.951-1.352-1.295 0-2.437 1.657-3.085 3.256-.343.857-.533 1.695-.533 2.361 0 1.01.59 1.257 1.104 1.257 1.314 0 2.647-1.81 3.18-3.618a7.148 7.148 0 0 0 .286-1.904zM560.354 82.05c0 2.315-.848 4.63-3.042 4.63-2.302 0-3.042-2.503-3.042-4.711 0-2.383.928-4.577 3.096-4.577 1.763 0 2.988 1.898 2.988 4.658zm-1.292.067c0-2.8-.593-4.375-1.777-4.375-1.117 0-1.723 1.589-1.723 4.321 0 2.733.592 4.267 1.75 4.267 1.144 0 1.75-1.548 1.75-4.213z"/></svg>