<?xml version="1.0" encoding="UTF-8" standalone="no"?>
<!-- Created with Inkscape (http://www.inkscape.org/) -->

<svg
   width="214.03574"
   height="16.181763"
   viewBox="0 0 214.03574 16.181762"
   version="1.1"
   id="svg1"
   xml:space="preserve"
   xmlns="http://www.w3.org/2000/svg"
   xmlns:svg="http://www.w3.org/2000/svg"><defs
     id="defs1" /><g
     id="layer1"
     transform="translate(38.58916,-909.88509)"><path
       style="font-size:40px;font-family:'Bowlby One';-inkscape-font-specification:'Bowlby One';letter-spacing:1.5px;fill:#000000;stroke-width:0.999999;stroke-dasharray:1.5, 0.999999"
       d="m -25.169519,914.058 q 0,0.33022 -0.07005,0.33022 0,0 -3.622601,-0.03 -0.02001,0.9707 -0.02001,3.03217 0,2.06148 0.01001,2.86206 l 0.04003,5.3038 q -0.05004,0.14011 -0.200145,0.15012 l -2.111516,-0.03 -0.01001,0.01 -0.660474,-0.01 h -1.831314 q -0.740531,0 -1.110798,0.01 l -0.170122,-0.1501 q -0.01,-0.01 -0.130095,-0.16012 0,-0.88063 0.07005,-3.91281 l 0.110082,-5.32383 -0.02003,-0.25018 q -0.07005,-0.99071 -0.140097,-1.17084 -0.06004,-0.19013 -0.250184,-0.20013 -0.190135,-0.02 -0.280199,-0.02 l -0.400287,0.02 -2.481783,-0.04 q -0.130095,-0.26018 -0.130095,-1.17084 l 0.02003,-0.88063 v -0.27019 q -0.01,-1.60115 -0.03003,-1.71124 0.02003,0 0.08006,0.02 l 12.739149,-0.11006 q 0.39028,0 0.490352,0.06 0.100072,0.05 0.100072,0.20014 v 2.6419 z m 16.4298022,11.46823 q -0.010006,0.1301 -0.5503953,0.1301 h -0.9206609 l -0.620446,0.01 h -0.610439 l -0.970697,0.01 q -1.451042,0 -2.411732,-0.07 -0.03003,-0.01 -0.07005,-0.12009 l -0.05004,-0.21015 q -0.09006,-1.03074 -0.470338,-1.99144 l -4.283076,0.04 q -0.04003,0.17011 -0.260187,1.01072 -0.220158,0.84061 -0.330238,1.27092 -0.100071,0.10007 -0.950682,0.10007 l -0.25018,-0.01 h -0.580417 l -2.601869,0.06 h -0.300215 l -0.280201,0.01 h -0.700504 q -0.07005,-0.07 -0.150107,-0.18012 1.000719,-3.46249 2.711948,-8.58618 l 0.230165,-0.71051 h -0.01001 l 0.270194,-0.83059 q 0.130094,-0.4003 0.740532,-2.2216 0.620446,-1.82131 0.770553,-2.3517 0.160115,-0.53037 0.190136,-0.55038 h 1.661194 l 3.552552,-0.0501 0.960689,0.0501 0.790568,-0.0501 q 0.600431,0 0.600431,0.24017 1.000719,2.792 2.671921,8.03577 1.671199,5.24377 1.8813498,5.89423 l 0.1401013,0.50036 q 0.07005,0.27019 0.2001432,0.57042 z m -9.9071162,-5.46393 0.410295,0.01 2.391717,-0.01 q -0.150108,-1.19085 -0.230165,-1.75125 l -0.380273,-1.71123 q -0.600431,-2.65192 -0.620446,-2.70194 -0.02001,-0.05 -0.04003,-0.0901 -0.01001,-0.05 -0.02001,-0.06 -0.01001,-0.02 -0.03003,-0.06 -0.01001,-0.04 -0.03003,-0.05 -0.01001,-0.02 -0.03002,-0.05 -0.07005,-0.12009 -0.290209,-0.21016 -0.270194,0.06 -1.611158,6.02434 l -0.110078,0.66047 z m 11.2660919,-1.2609 0.020011,-4.11295 v -4.173 q 0.020011,-0.01 0.1901356,-0.01 h 0.3702665 q 0.2101511,0 0.32023,-0.02 l 1.2408912,-0.05 q 0.4803452,-0.02 0.7405319,-0.02 h 1.5911427 l 2.94211211,-0.07 q 0.6004315,0 1.32094849,0.05 h 0.070052 q 0.3402448,-0.02 0.4303095,-0.02 2.0014373,0 3.4224583,1.27091 0.6904962,0.61045 1.0907834,1.57113 0.4002879,0.96069 0.4002879,1.99143 0,1.02073 -0.2101518,1.74125 -0.2101503,0.72052 -0.5403875,1.22088 -1.3209489,2.02145 -5.11367319,2.3617 l -2.16155191,0.0901 q -0.1000713,2.40172 -0.1000713,3.73267 l 0.010005,0.31023 v 0.81057 q -0.040029,0.1401 -0.1501079,0.19015 l -5.7141044,0.09 q -0.1701223,-0.48035 -0.1701223,-1.54111 z m 8.7562888,-4.29309 q -0.40028719,-1.05075 -2.12152284,-1.12079 -0.25017932,-0.01 -0.69049626,-0.01 -0.1200855,0 -0.1501078,2.95212 l -0.020011,0.75055 0.030023,0.60042 q 1.23088461,-0.02 2.16155191,-0.52037 0.94067539,-0.50035 0.94067539,-1.8213 0,-0.56041 -0.1501079,-0.83061 z M 28.050707,914.058 q 0,0.33022 -0.07005,0.33022 0,0 -3.622602,-0.03 -0.02001,0.9707 -0.02001,3.03217 0,2.06148 0.01001,2.86206 l 0.04003,5.3038 q -0.05003,0.14011 -0.200143,0.15012 l -2.111516,-0.03 -0.01001,0.01 -0.660475,-0.01 h -1.831319 q -0.740532,0 -1.110798,0.01 l -0.170122,-0.1501 q -0.01,-0.01 -0.130093,-0.16012 0,-0.88063 0.07005,-3.91281 l 0.11008,-5.32383 -0.02002,-0.25018 q -0.07005,-0.99071 -0.140101,-1.17084 -0.06004,-0.19013 -0.250179,-0.20013 -0.190137,-0.02 -0.280202,-0.02 l -0.400287,0.02 -2.481784,-0.04 q -0.130092,-0.26018 -0.130092,-1.17084 l 0.02001,-0.88063 v -0.27019 q -0.01,-1.60115 -0.03003,-1.71124 0.02002,0 0.08005,0.02 l 12.739151,-0.11006 q 0.390281,0 0.490352,0.06 0.100073,0.05 0.100073,0.20014 v 2.6419 z m 6.312534,3.75269 q 0,0.01 -0.01001,0.05 v 0.03 q -0.04003,0.4203 -0.04003,0.94068 0,0.52037 0.08005,1.10078 0.09006,0.58042 0.280203,1.16084 0.200143,0.58041 0.610438,0.94068 0.440316,0.38026 0.980704,0.38026 0.550395,0 0.920662,-0.1501 0.380273,-0.16011 0.630453,-0.40029 0.260185,-0.24017 0.450323,-0.65047 0.480344,-1.09078 0.480344,-3.38243 0,-2.33167 -0.540387,-3.26234 -0.530381,-0.94068 -1.611157,-0.94068 -0.540389,0 -0.950683,0.2602 -0.400288,0.26018 -0.610439,0.54038 -0.200144,0.2802 -0.420302,1.19085 -0.210151,0.91066 -0.210151,1.68121 z m -5.754132,0.0801 0.02001,-0.22016 q 0.120086,-1.25091 0.32023,-2.21159 0.200144,-0.9707 0.650467,-1.8113 1.070769,-1.85132 2.982143,-2.80202 1.92138,-0.96068 4.132968,-0.96068 2.221596,0 4.032897,0.89063 1.080776,0.53038 1.691214,1.34097 1.170841,1.46105 1.541107,2.69193 0.370267,1.23089 0.370267,2.84204 0,3.58258 -1.481065,5.46393 l -0.46033,0.61043 q -0.930668,1.08078 -2.63189,1.67121 -1.701223,0.58042 -3.372423,0.60043 -2.862056,0 -4.693372,-1.20087 -3.102227,-2.01144 -3.102227,-6.90495 z m 30.40784,-7.5254 3.212307,-0.03 q 1.020733,0 1.85133,0.04 2.231602,0.06 3.392437,1.05076 1.17084,0.99071 1.17084,2.792 0,1.2509 -0.730524,2.14154 -0.730525,0.88064 -2.131532,1.55112 2.221597,0.7005 2.691934,3.40243 0.11008,0.59042 0.170122,1.35097 0.07005,0.76055 0.11008,1.02074 l 0.100072,0.51036 q 0.160114,0.90065 0.280201,1.30095 l -0.04003,0.03 q -1.701223,0.11009 -3.112236,0.11009 -1.401006,0 -2.481782,-0.05 h -0.06004 q -0.310223,0 -0.660474,-2.95213 l -0.05004,-0.43031 q -0.04003,-1.10079 -0.390281,-1.48106 -0.340245,-0.38028 -1.190855,-0.38028 l -0.130094,0.01 h -0.530381 v 3.04218 l 0.01001,0.32024 v 1.83131 q -0.03003,0.10008 -0.150108,0.12008 -1.100791,0.04 -3.112236,0.04 -2.001437,0 -2.641897,0.01 l -0.06004,-0.02 -0.02001,0.01 q -0.02001,0 -0.06004,-0.03 l 0.02001,-0.90065 -0.01001,-0.30022 0.04003,-4.15299 v -0.73051 l 0.01001,-0.75055 0.01001,-2.59186 0.01001,-0.34025 -0.03003,-2.27162 q 0,0 0.04003,-3.1923 0,-0.08 0.570408,-0.08 l 0.640461,0.01 h 0.61044 l 1.270911,0.01 z m 10.17731,15.10084 -0.05004,0.0301 v -0.02 q 0,-0.01 0.05004,-0.01 z m -0.05004,0.0301 v 0.01 q -0.01001,0 -0.01001,-0.01 z M 62.719607,913.6278 q -0.600432,-0.26019 -1.60115,-0.26019 h -0.580415 q -0.11008,0.16011 -0.11008,1.69122 0,1.52109 0.05004,2.04147 3.132251,-0.07 3.132251,-2.16156 0,-0.89063 -0.890641,-1.31094 z m 8.233916,-0.60043 -0.05006,-2.63189 q 0.01,0 0.07005,0.0301 7.605463,-0.13009 11.458235,-0.1401 0.04,0.02 0.06004,0.06 v 2.82203 q 0,0.4103 -0.02004,0.67048 -0.05003,0.16012 -0.590427,0.16012 h -0.07007 q -2.421736,0 -5.043621,-0.08 0,0.0901 -0.03006,0.32022 -0.02004,0.23017 -0.02998,0.33023 l -0.05003,0.38028 q -0.0501,0.38027 -0.07007,1.32095 l 3.102224,-0.07 q 0.80058,-0.02 1.160835,-0.02 h 0.160113 q 0.610444,0 0.800573,0.04 0.190144,0.0301 0.190144,0.20014 l -0.01002,0.0801 v 0.24017 l 0.05003,2.57185 -0.01002,0.01 v -0.01 q -3.042185,0.1501 -4.863498,0.1501 h -0.470342 v 2.42175 l 5.433906,-0.17012 q 0.450324,0 0.570409,0.13008 -0.01002,0.26019 -0.01002,0.74054 l 0.07007,2.72195 q 0,0.25018 -0.22016,0.29021 l -3.322383,-0.03 q -0.980704,0 -3.902805,0.07 l -1.641181,0.04 q -1.741249,0.06 -2.581857,0.06 l -0.03003,-0.02 h 0.01 q -0.100071,-0.10007 -0.190136,-0.19013 v -0.35025 l 0.06004,-10.69769 z m 13.187473,4.41317 q 0.240169,-2.28164 0.800572,-3.43247 1.070774,-2.22159 3.192296,-3.15226 1.891356,-0.8306 4.112959,-0.8306 3.722669,0 5.433892,2.04148 1.030747,1.21086 1.190857,3.01216 l 0.09,0.94067 q -0.17012,0.16011 -2.151537,0.16011 l -1.591149,-0.02 h -0.13009 l -0.870624,-0.02 -0.240169,0.01 h -0.200149 q -0.280198,0 -0.430306,-0.82058 -0.140103,-0.82059 -0.440319,-1.08078 -0.290202,-0.27018 -0.680484,-0.27018 -0.390277,0 -0.690493,0.14009 -0.290211,0.1401 -0.480346,0.34024 -0.190137,0.19014 -0.320234,0.5504 -0.24017,0.62044 -0.290203,1.32095 -0.05003,0.69049 -0.05003,1.55111 v 0.24018 l -0.04,1.01072 q 0,2.76198 1.561124,2.82203 0.400291,0 0.5604,-0.1401 0.430305,-0.38028 0.750539,-1.5311 0.07007,-0.24017 0.170118,-0.39028 h 0.380273 l 0.460337,0.01 h 1.621163 l 0.490352,-0.01 0.950675,0.01 h 0.580418 l 0.590434,0.01 h 0.40029 q 0.12007,0.01 0.17012,0.21016 l -0.0301,0.33024 q -0.0901,1.18085 -0.550391,2.14153 -0.850611,1.76127 -2.681932,2.62188 -1.821312,0.85061 -4.002867,0.85061 -3.812736,0 -5.724111,-2.25161 -1.911374,-2.25161 -1.911374,-6.37458 z m 16.990194,-4.41317 -0.05,-2.63189 q 0.01,0 0.07,0.0301 7.60546,-0.13009 11.45823,-0.1401 0.04,0.02 0.06,0.06 v 2.82203 q 0,0.4103 -0.02,0.67048 -0.05,0.16012 -0.59042,0.16012 h -0.07 q -2.42174,0 -5.04363,-0.08 0,0.0901 -0.03,0.32022 -0.02,0.23017 -0.03,0.33023 l -0.05,0.38028 q -0.05,0.38027 -0.07,1.32095 l 3.10224,-0.07 q 0.80057,-0.02 1.16082,-0.02 h 0.16012 q 0.61044,0 0.80058,0.04 0.19013,0.0301 0.19013,0.20014 l -0.01,0.0801 v 0.24017 l 0.0501,2.57185 -0.01,0.01 v -0.01 q -3.04219,0.1501 -4.86349,0.1501 h -0.47034 v 2.42175 l 5.4339,-0.17012 q 0.45033,0 0.57041,0.13008 -0.01,0.26019 -0.01,0.74054 l 0.07,2.72195 q 0,0.25018 -0.22016,0.29021 l -3.32239,-0.03 q -0.9807,0 -3.90279,0.07 l -1.64119,0.04 q -1.74125,0.06 -2.58185,0.06 l -0.03,-0.02 h 0.01 q -0.10007,-0.10007 -0.19014,-0.19013 v -0.35025 l 0.06,-10.69769 z m 28.97882,5.38386 -0.01,0.67049 v 3.70266 l 0.02,1.76126 v 0.50037 l 0.01,0.47032 q -0.06,0.0801 -0.49035,0.0801 h -0.26019 l -3.14225,0.04 q -2.00145,0 -2.98215,-0.01 -0.15011,-0.16012 -1.09078,-2.91209 l -1.91137,-5.07365 -0.36026,0.05 -0.01,1.02073 v 2.71195 l 0.04,2.71194 v 1.12081 q 0,0.45032 -0.20013,0.47034 -0.99072,-0.0301 -1.89137,-0.0301 h -0.31021 l -1.51109,0.04 h -0.20015 l -0.72052,0.02 -0.03,-0.02 q -0.33023,-0.31022 -0.33023,-0.45032 v -0.18013 l 0.01,-0.20015 0.05,-3.90279 q 0,-6.42463 0.12009,-9.71699 l 0.02,-0.8306 q 0,-0.0901 6.89495,-0.16011 0.06,0.04 0.18012,0.44032 v -0.0301 l 0.06,0.20014 q 0.74054,2.12153 1.8013,4.87351 1.06076,2.74197 1.08077,2.80201 l 0.34025,-0.02 0.04,-8.15586 q 0,-0.0801 1.46105,-0.0801 l 2.51181,0.05 h 0.74054 q 0.07,3.31238 0.07,8.03578 z m 15.14887,-4.35312 q 0,0.33024 -0.07,0.33024 0,0 -3.6226,-0.03 -0.02,0.9707 -0.02,3.03218 0,2.06147 0.01,2.86206 l 0.04,5.3038 q -0.05,0.1401 -0.20015,0.15012 l -2.11151,-0.0301 -0.01,0.01 -0.66047,-0.01 h -1.83132 q -0.74053,0 -1.1108,0.01 l -0.17011,-0.1501 q -0.01,-0.01 -0.13011,-0.16012 0,-0.88063 0.07,-3.91281 l 0.11009,-5.32383 -0.02,-0.25018 q -0.07,-0.9907 -0.1401,-1.17083 -0.06,-0.19014 -0.25019,-0.20014 -0.19012,-0.02 -0.2802,-0.02 l -0.40027,0.02 -2.48179,-0.04 q -0.13009,-0.26017 -0.13009,-1.17084 l 0.02,-0.88063 v -0.27019 q -0.01,-1.60115 -0.03,-1.71124 0.02,0 0.08,0.02 l 12.73915,-0.11007 q 0.39028,0 0.49034,0.06 0.10008,0.05 0.10008,0.20014 v 2.6419 z m 1.71924,-1.03074 -0.05,-2.63189 q 0.01,0 0.07,0.0301 7.60546,-0.13009 11.45823,-0.1401 0.04,0.02 0.06,0.06 v 2.82203 q 0,0.4103 -0.02,0.67048 -0.05,0.16012 -0.59043,0.16012 h -0.07 q -2.42173,0 -5.04361,-0.08 0,0.0901 -0.03,0.32022 -0.02,0.23017 -0.03,0.33023 l -0.05,0.38028 q -0.05,0.38027 -0.07,1.32095 l 3.10223,-0.07 q 0.80057,-0.02 1.16083,-0.02 h 0.16011 q 0.61045,0 0.80059,0.04 0.19013,0.0301 0.19013,0.20014 l -0.01,0.0801 v 0.24017 l 0.05,2.57185 -0.01,0.01 v -0.01 q -3.04218,0.1501 -4.86349,0.1501 h -0.47034 v 2.42175 l 5.43391,-0.17012 q 0.45032,0 0.57041,0.13008 -0.01,0.26019 -0.01,0.74054 l 0.07,2.72195 q 0,0.25018 -0.22016,0.29021 l -3.32238,-0.03 q -0.9807,0 -3.90281,0.07 l -1.64118,0.04 q -1.74124,0.06 -2.58185,0.06 l -0.03,-0.02 h 0.01 q -0.10006,-0.10007 -0.19013,-0.19013 v -0.35025 l 0.06,-10.69769 z m 18.29113,-2.66191 3.21232,-0.03 q 1.02073,0 1.85133,0.04 2.2316,0.06 3.39243,1.05075 1.17084,0.99071 1.17084,2.79201 0,1.25089 -0.73052,2.14153 -0.73052,0.88064 -2.13152,1.55112 2.22158,0.70051 2.69192,3.40244 0.11008,0.59043 0.17012,1.35097 0.07,0.76055 0.11009,1.02074 l 0.10007,0.51037 q 0.16011,0.90064 0.2802,1.30093 l -0.04,0.03 q -1.70122,0.11007 -3.11223,0.11007 -1.401,0 -2.48178,-0.05 h -0.06 q -0.31022,0 -0.66048,-2.95213 l -0.05,-0.4303 q -0.04,-1.10078 -0.39028,-1.48107 -0.34024,-0.38027 -1.19085,-0.38027 l -0.1301,0.01 h -0.53038 v 3.04218 l 0.01,0.32024 v 1.83132 q -0.03,0.10008 -0.15012,0.12009 -1.10078,0.04 -3.11223,0.04 -2.00144,0 -2.6419,0.01 l -0.06,-0.02 -0.02,0.01 q -0.02,0 -0.06,-0.03 l 0.02,-0.90065 -0.01,-0.30022 0.04,-4.15297 v -0.73053 l 0.01,-0.75054 0.01,-2.59186 0.01,-0.34025 -0.03,-2.27163 q 0,0 0.04,-3.19229 0,-0.0801 0.57041,-0.0801 l 0.64046,0.01 h 0.61044 l 1.27091,0.01 z m 10.17732,15.10084 -0.05,0.03 v -0.02 q 0,-0.01 0.05,-0.01 z m -0.05,0.03 v 0.01 q -0.01,0 -0.01,-0.01 z m -6.42462,-11.86853 q -0.60042,-0.26019 -1.60115,-0.26019 h -0.58041 q -0.11008,0.16012 -0.11008,1.69122 0,1.52109 0.05,2.04147 3.13225,-0.07 3.13225,-2.16156 0,-0.89063 -0.89065,-1.31094 z"
       id="text2"
       aria-label="TAP TO RECENTER" /></g></svg>