<svg xmlns="http://www.w3.org/2000/svg" xmlns:xlink="http://www.w3.org/1999/xlink" id="svg482" width="500" height="388" preserveAspectRatio="none" version="1.1" viewBox="-150 -60 500 388"><style id="style419" type="text/css">.grid{stroke:#9e9ed1;stroke-width:.4}.axes{stroke:#000;stroke-width:.9}</style><defs id="defs424"><path id="STIXWEBMAIN-2212" stroke-width="1" d="M621 220H64v66h557z"/><path id="STIXWEBMAIN-31" stroke-width="1" d="M394 0H118v15c74 4 95 25 95 80v449c0 34-9 49-30 49-10 0-27-5-45-12l-27-10v14l179 91 9-3V76c0-43 20-61 95-61z"/><path id="STIXWEBMAIN-30" stroke-width="1" d="M476 330c0-172-63-344-226-344C79-14 24 172 24 336c0 177 69 340 230 340 131 0 222-141 222-346Zm-96-5c0 208-44 325-132 325-83 0-128-118-128-321S164 12 250 12c85 0 130 115 130 313z"/><clipPath id="trbl_clip_0_950_150_0"><path id="path171313" d="M0 0h950v150H0Z"/></clipPath><clipPath id="trbl_clip_0_950_150_0-1"><path id="path171313-4" d="M0 0h950v150H0Z"/></clipPath></defs><g id="layer17"><circle id="path143" cx="356.44" cy="185.131" r=".002" style="fill:#000;stroke:none;stroke-width:.806451"/><circle id="path144" cx="356.44" cy="185.131" r=".002" style="fill:#000;stroke:none;stroke-width:.806451"/><path id="path152" d="M93.814 278.8c1.135 2.966 4.121 5.633 6.54 7.447 13.573 10.186 30.558 14.384 47.124 14.848 16.743.468 34.057-1.416 49.285-9.062 5.449-2.735 11.369-6.847 13.014-13.277.324-1.263.444-3.898-1.341-4.278.46 3.876 6.279 4.397 9.581 4.713 12.835 1.228 24.585-.642 36.418-5.335 12.274-4.867 25.087-14.78 31.86-26.42 5.751-9.884 7.395-22.753 2.496-33.315-1.798-3.876-5.276-9.536-9.525-8.184l-.294-.017c1.63.689 3.621.408 5.345.267 7.308-.598 13.982-4.352 19.3-9.215 5.182-4.738 7.951-11.61 8.335-18.804.32-5.999-1.686-14.54-6.77-20.877-2.67-3.33-7.412-7.267-10.761-7.258-.93.002-2.065.604-1.534.769 6.41-.607 12.212-3.733 16.578-8.353 5.574-5.899 8.931-16.025 8.99-24.988.086-12.967-5.781-28.937-16.497-39.934-4.873-5.002-15.749-9.595-19.474-6.932-1.283 1.03-.298 1.167.246.86 5.132-4.22 5.627-10.718 5.709-16.75.125-9.202-4.584-21.219-9.875-30.028-10.91-18.165-33.355-29.523-54.41-28.665-6 .244-15.674 3.433-16.683 6.315l.48.394c.392-7.86-4.809-14.818-10.416-19.947-10.386-9.5-26.311-12.433-40.022-11.822-14.988.669-28.562 3.393-41.723 10.573-5.087 2.775-10.24 6.74-13.072 11.928-.82 1.501.525 1.982 1.286 1.28 1.253-1.155-1.064-2.769-2.352-3.47-7.196-3.915-17.796-4.323-25.361-2.896-10.246 1.932-21.729 8.495-29.032 17.7-3.535 4.456-6.905 14.846-3.83 17.535.446.293.765.266 1.066.195-.071-.419-2.246-1.377-2.56-1.478-4.133-1.338-14.724.975-21.03 5.481C11.936 34.21 4.007 43.01-.147 53.99c-3.37 8.91-4.922 20.186-1.67 29.35.893 2.516 2.537 6.56 5.472 5.51l.126-.596c-.688-1.372-4.008-.153-5.588.701-7.54 4.074-12.192 11.42-15.105 18.391-6.427 15.383-8.212 35.608-3.492 49.898 3.484 10.546 12.201 21.422 23.72 20.606.932-.004.63-1.413-.59-.525-3.925 2.927-6.355 9.946-7.152 15.76-.95 6.924.386 17.546 5.576 26.216 5.143 8.591 13.056 15.21 20.717 17.92 6.563 2.32 14.498 3.753 17.625 2.903.795-.249.089-1.428-.909-.505-1.254 1.802-2.2 6.374-2.139 9.398.142 7.005 3.04 13.319 7.716 19.16 6.171 7.711 16.586 12.218 24.475 13.882 7.673 1.619 16.037 1.402 20.604.342 2.045-.475 5.526-1.757 6.492-2.637" style="opacity:1;fill:#f2f2f2;fill-opacity:1;stroke:#000;stroke-width:.806445;stroke-dasharray:none;stroke-dashoffset:0"/><path id="path150" d="M-70.22 113.675c7.553-2.06 16.449-.9 22.219 4.768 2.706 2.66 4.912 5.92 5.7 9.678 1.335 6.379.127 13.388-3.568 18.791-5.069 7.415-15.006 11.333-23.671 8.68-3.95-1.208-7.508-3.772-10.037-7.02-3.874-4.975-3.72-11.98-1.823-17.68 2.836-8.513 7.79-13.81 14.515-19.706" style="opacity:1;fill:#f2f2f2;fill-opacity:1;stroke:#000;stroke-width:.806451;stroke-dasharray:none;stroke-dashoffset:0"/><path id="path160" d="M152.378 573.394c-3.046.551-5.132-3.188-6.025-5.703-3.252-9.165-1.7-20.442 1.67-29.351 4.154-10.98 12.083-19.78 21.052-26.19 6.306-4.506 16.897-6.819 21.03-5.481.314.102 2.489 1.06 2.56 1.478" style="opacity:1;fill:#f2f2f2;fill-opacity:1;stroke:#000;stroke-width:.806451;stroke-dasharray:none;stroke-dashoffset:0"/><path id="path161" d="M151.487 662.2c-11.52.816-20.237-10.06-23.72-20.606-4.722-14.29-2.936-34.515 3.491-49.898 2.913-6.972 7.565-14.317 15.105-18.39 1.58-.855 4.375-2.018 5.588-.702" style="opacity:1;fill:#f2f2f2;fill-opacity:1;stroke:#000;stroke-width:.806451;stroke-dasharray:none;stroke-dashoffset:0"/><path id="path162" d="M254.677 479.75c1.637-1.76-1.97-3.436-3.292-4.137-7.385-3.915-18.264-4.323-26.028-2.896-10.515 1.932-22.3 8.495-29.795 17.7-3.628 4.456-7.087 14.846-3.932 17.535" style="opacity:1;fill:#f2f2f2;fill-opacity:1;stroke:#000;stroke-width:.806451;stroke-dasharray:none;stroke-dashoffset:0"/><path id="path163" d="M357.094 480.241c-.082-7.869-5.606-14.51-11.421-19.301-10.77-8.874-26.593-10.87-40.028-9.457-14.687 1.545-27.862 5.06-40.367 12.998-4.833 3.069-9.66 7.328-12.135 12.672-.716 1.547.024 3.102 1.455 2.634" style="opacity:1;fill:#f2f2f2;fill-opacity:1;stroke:#000;stroke-width:.806449;stroke-dasharray:none;stroke-dashoffset:0"/><path id="path164" d="M432.151 550.798c5.133-4.22 5.627-10.717 5.71-16.749.125-9.202-4.584-21.219-9.876-30.028-10.91-18.165-33.355-29.523-54.41-28.665-6 .244-16.78 2.272-17.789 5.153" style="opacity:1;fill:#f2f2f2;fill-opacity:1;stroke:#000;stroke-width:.806451;stroke-dasharray:none;stroke-dashoffset:0"/><path id="path165" d="M427.28 690.115c1.493.844 3.483.563 5.207.422 7.308-.598 13.982-4.352 19.3-9.215 5.182-4.738 7.951-11.61 8.335-18.804.32-5.999-1.686-14.54-6.77-20.877-2.67-3.329-7.475-6.718-10.761-7.368-.267-.053-.433-.448-.403-.757" style="opacity:1;fill:#f2f2f2;fill-opacity:1;stroke:#000;stroke-width:.806451;stroke-dasharray:none;stroke-dashoffset:0"/><path id="path166" d="M356.524 758.773c.542 3.931 6.36 4.452 9.663 4.768 12.835 1.228 24.585-.642 36.418-5.335 12.274-4.867 25.087-14.78 31.86-26.42 5.751-9.884 7.395-22.753 2.496-33.315-1.798-3.876-5.276-9.536-9.525-8.184l-.432.137" style="opacity:1;fill:#f2f2f2;fill-opacity:1;stroke:#000;stroke-width:.806451;stroke-dasharray:none;stroke-dashoffset:0"/><path id="path167" d="M241.57 761.562c.483 3.59 4.11 6.68 6.953 8.814 13.574 10.186 30.559 14.605 47.125 15.069 16.743.468 34.057-1.416 49.285-9.062 5.449-2.735 11.369-6.847 13.014-13.277.323-1.263.444-3.898-1.26-4.222" style="opacity:1;fill:#f2f2f2;fill-opacity:1;stroke:#000;stroke-width:.806445;stroke-dasharray:none;stroke-dashoffset:0"/><path id="path168" d="M188.317 723.187c-2.192 2.115-2.96 7.396-3.155 10.414-.484 7.475 2.414 15.04 7.09 20.882 6.17 7.71 16.774 13.445 25.726 14.545 8.048.99 13.992.657 21.554-1.606.829-.248 4.217-2.805 4.59-3.68" style="opacity:1;fill:#f2f2f2;fill-opacity:1;stroke:#000;stroke-width:.806451;stroke-dasharray:none;stroke-dashoffset:0"/><path id="path169" d="M150.897 661.675c-3.926 2.927-6.356 9.947-7.153 15.76-.95 6.924.386 17.546 5.576 26.216 5.143 8.591 13.056 15.21 20.717 17.92 6.563 2.32 15.28 3.44 19.19 2.12" style="opacity:1;fill:#f2f2f2;fill-opacity:1;stroke:#000;stroke-width:.806449;stroke-dasharray:none;stroke-dashoffset:0"/><path id="path170" d="M441.74 635.126c6.352-.65 12.155-3.939 16.52-8.843 5.575-6.264 8.932-17.016 8.99-26.533.086-13.767-5.78-30.724-16.496-42.4-4.874-5.311-15.749-10.187-19.475-7.36" style="opacity:1;fill:#f2f2f2;fill-opacity:1;stroke:#000;stroke-width:.80645;stroke-dasharray:none;stroke-dashoffset:0"/><path id="path171" d="M557.763 494.365c-3.046.55-5.132-3.188-6.025-5.704-3.252-9.164-1.7-20.441 1.67-29.35 4.154-10.981 12.083-19.781 21.052-26.19 6.306-4.506 16.897-6.819 21.03-5.481.314.101 2.489 1.059 2.56 1.478" style="opacity:1;fill:#f2f2f2;fill-opacity:1;stroke:#000;stroke-width:.806451;stroke-dasharray:none;stroke-dashoffset:0"/><path id="path172" d="M556.872 583.17c-11.52.816-20.237-10.06-23.721-20.605-4.72-14.29-2.935-34.515 3.492-49.898 2.913-6.972 7.565-14.317 15.105-18.391 1.58-.854 4.375-2.018 5.588-.701" style="opacity:1;fill:#f2f2f2;fill-opacity:1;stroke:#000;stroke-width:.806451;stroke-dasharray:none;stroke-dashoffset:0"/><path id="path173" d="M658.414 400.721c1.595-1.76-1.919-3.436-3.208-4.137-7.196-3.915-17.795-4.323-25.36-2.897-10.246 1.933-21.729 8.496-29.032 17.7-3.535 4.456-6.905 14.847-3.831 17.536" style="opacity:1;fill:#f2f2f2;fill-opacity:1;stroke:#000;stroke-width:.806451;stroke-dasharray:none;stroke-dashoffset:0"/><path id="path174" d="M761.505 408.042c.393-7.86-4.808-14.819-10.415-19.947-10.386-9.5-26.311-12.434-40.022-11.822-14.988.669-28.562 3.393-41.723 10.573-5.087 2.775-10.24 6.74-13.072 11.928-.82 1.5-.164 3.097 1.316 2.715" style="opacity:1;fill:#f2f2f2;fill-opacity:1;stroke:#000;stroke-width:.806451;stroke-dasharray:none;stroke-dashoffset:0"/><path id="path175" d="M836.285 476.775c5.132-4.22 5.627-10.717 5.709-16.749.125-9.202-4.584-21.219-9.875-30.028-10.91-18.165-33.355-29.523-54.41-28.665-6 .244-16.78 2.272-17.79 5.153" style="opacity:1;fill:#f2f2f2;fill-opacity:1;stroke:#000;stroke-width:.806451;stroke-dasharray:none;stroke-dashoffset:0"/><path id="path176" d="M832.665 611.086c1.493.844 3.483.563 5.207.422 7.308-.599 13.982-4.352 19.3-9.215 5.182-4.738 7.951-11.61 8.335-18.804.32-6-1.686-14.54-6.77-20.878-2.67-3.328-7.476-6.718-10.761-7.368-.267-.052-.433-.447-.403-.756" style="opacity:1;fill:#f2f2f2;fill-opacity:1;stroke:#000;stroke-width:.806451;stroke-dasharray:none;stroke-dashoffset:0"/><path id="path177" d="M761.91 679.744c.541 3.93 6.36 4.452 9.662 4.768 12.835 1.228 24.585-.642 36.418-5.335 12.274-4.868 25.087-14.78 31.86-26.42 5.751-9.884 7.395-22.753 2.496-33.315-1.798-3.877-5.276-9.537-9.525-8.184l-.432.137" style="opacity:1;fill:#f2f2f2;fill-opacity:1;stroke:#000;stroke-width:.806451;stroke-dasharray:none;stroke-dashoffset:0"/><path id="path178" d="M646.955 682.533c.483 3.59 4.11 6.68 6.953 8.814 13.574 10.185 30.559 14.605 47.125 15.069 16.743.468 34.057-1.416 49.285-9.062 5.449-2.735 11.369-6.847 13.014-13.277.323-1.264.444-3.899-1.26-4.223" style="opacity:1;fill:#f2f2f2;fill-opacity:1;stroke:#000;stroke-width:.806445;stroke-dasharray:none;stroke-dashoffset:0"/><path id="path179" d="M593.702 644.158c-2.192 2.115-2.96 7.396-3.155 10.414-.484 7.475 2.414 15.04 7.09 20.882 6.17 7.71 16.852 12.27 25.726 13.881 7.273 1.322 14.081.933 20.448-.831 2.022-.561 5.213-2.695 5.475-4.123" style="opacity:1;fill:#f2f2f2;fill-opacity:1;stroke:#000;stroke-width:.806451;stroke-dasharray:none;stroke-dashoffset:0"/><path id="path180" d="M556.282 582.646c-3.926 2.927-6.356 9.946-7.154 15.759-.949 6.925.387 17.547 5.577 26.217 5.143 8.591 13.056 15.21 20.717 17.919 6.563 2.321 15.28 3.44 19.19 2.121" style="opacity:1;fill:#f2f2f2;fill-opacity:1;stroke:#000;stroke-width:.806449;stroke-dasharray:none;stroke-dashoffset:0"/><path id="path181" d="M846.5 556.1c6.352-.612 12.154-3.71 16.52-8.33 5.574-5.899 8.93-16.026 8.99-24.989.085-12.966-5.781-28.936-16.497-39.934-4.874-5.001-15.749-9.594-19.474-6.931" style="opacity:1;fill:#f2f2f2;fill-opacity:1;stroke:#000;stroke-width:.806449;stroke-dasharray:none;stroke-dashoffset:0"/><path id="path185" d="M-215.876 124.389c4.641-1.991 10.094-.541 13.653 2.936 3.368 3.29 3.66 10.213.794 14.844-3.115 4.565-9.221 6.977-14.546 5.344-2.427-.744-4.614-2.323-6.167-4.322-2.381-3.063-2.154-8.333-1.12-10.885 1.72-4.248 5.2-8.09 8.403-8.52" style="opacity:1;fill:#f2f2f2;fill-opacity:1;stroke:#000;stroke-width:.806449;stroke-dasharray:none;stroke-dashoffset:0"/><path id="path186" d="M-254.868 804.478c1.135 2.966 4.121 5.633 6.54 7.447 13.573 10.186 30.558 14.384 47.124 14.848 16.743.468 34.057-1.416 49.285-9.062 5.449-2.735 11.369-6.847 13.014-13.277.323-1.263.444-3.898-1.341-4.278.46 3.876 6.279 4.397 9.581 4.713 12.835 1.228 24.585-.642 36.418-5.335 12.274-4.868 25.087-14.78 31.86-26.42 5.751-9.884 7.395-22.753 2.496-33.315-1.798-3.876-5.276-9.536-9.525-8.184l-.294-.017c1.63.689 3.621.408 5.345.267 7.308-.598 13.982-4.352 19.3-9.215 5.182-4.738 7.951-11.61 8.335-18.804.32-6-1.686-14.54-6.77-20.877-2.67-3.33-7.412-7.267-10.761-7.258-.93.002-2.065.604-1.534.769 6.41-.607 12.212-3.733 16.577-8.353 5.575-5.899 8.932-16.025 8.991-24.988.085-12.967-5.781-28.937-16.497-39.934-4.873-5.002-15.749-9.595-19.474-6.932-1.283 1.03-.298 1.167.246.86 5.132-4.22 5.627-10.718 5.709-16.75.125-9.202-4.584-21.219-9.875-30.028-10.91-18.165-33.355-29.523-54.41-28.665-6 .244-15.674 3.433-16.683 6.315l.48.394c.392-7.86-4.809-14.818-10.416-19.947-10.386-9.5-26.311-12.433-40.022-11.822-14.988.669-28.562 3.393-41.723 10.573-5.087 2.775-10.24 6.74-13.072 11.928-.82 1.501.525 1.982 1.286 1.28 1.252-1.155-1.064-2.769-2.353-3.47-7.196-3.915-17.795-4.323-25.36-2.896-10.246 1.932-21.729 8.495-29.032 17.7-3.535 4.455-6.905 14.846-3.83 17.535.446.293.765.266 1.066.195-.071-.419-2.246-1.377-2.56-1.478-4.133-1.338-14.724.975-21.03 5.481-8.969 6.41-16.898 15.209-21.052 26.19-3.37 8.91-4.922 20.186-1.67 29.35.893 2.516 2.536 6.56 5.472 5.51l.126-.596c-.688-1.372-4.008-.153-5.588.701-7.54 4.074-12.192 11.42-15.105 18.39-6.427 15.384-8.212 35.61-3.492 49.899 3.484 10.546 12.201 21.422 23.72 20.606.932-.004.63-1.413-.59-.525-3.925 2.927-6.355 9.946-7.152 15.76-.95 6.924.386 17.546 5.576 26.216 5.143 8.591 13.056 15.21 20.717 17.92 6.563 2.32 15.28 3.44 19.19 2.12.795-.248.088-1.427-.91-.504-2.192 2.115-2.96 7.396-3.155 10.414-.484 7.475 2.414 15.04 7.09 20.882 6.171 7.71 16.852 12.27 25.726 13.882 7.273 1.32 14.082.933 20.448-.832 2.023-.56 5.213-2.695 5.475-4.123" style="opacity:1;fill:#f2f2f2;fill-opacity:1;stroke:#000;stroke-width:.806445;stroke-dasharray:none;stroke-dashoffset:0"/></g><g id="layer4" style="display:inline"><path id="path2917" d="M51.939 273.075V142.49m0 0V6.87" class="grid"/><path id="path2921" d="M245.487 272.807V142.49m0 0V4.142" class="grid"/><path id="path2923" d="M18.154 232.653h123.948m0 0h143.81" class="grid"/><path id="path2927" d="M13.95 39.105h128.152m0 0h137.462" class="grid"/><g id="g2951" style="display:inline;fill:#b8b8de;fill-opacity:1" transform="matrix(.01535 0 0 -.01535 131.777 -350.408)"><use xlink:href="#STIXWEBMAIN-31" id="use2949" x="0" y="0" style="fill:#b8b8de;fill-opacity:1" transform="translate(0 582.933)"/></g><path id="rect54029-5" d="M-383.408 130.336h10.877v5.543h-10.877z" style="fill:#f0f;fill-opacity:1;stroke:none;stroke-width:.806451;stroke-miterlimit:2;stroke-dasharray:none;stroke-dashoffset:0;stroke-opacity:1"/></g><g id="layer13"><path id="use301254" stroke-width=".015" d="m254.271 146.944-.2.077q-.214.076-.613.153-.4.077-.891.108h-.292v-.707h.292q.722-.03 1.336-.23.614-.2.86-.369.245-.168.43-.337.03-.046.184-.046.138 0 .26.092v4.59l.016 4.607q.108.108.185.138.076.031.368.062.292.03.952.03h.4v.707h-.17q-.322-.046-2.441-.046-2.088 0-2.41.046h-.185v-.706h.983q.245 0 .384-.016.138-.015.245-.046.108-.03.123-.03t.092-.077q.077-.077.092-.062z" style="fill:#b8b8de;fill-opacity:1"/><g id="g301397" style="fill:#b8b8de;fill-opacity:1" transform="translate(-30.926 155.819) scale(.80645)"><path id="use301258" stroke-width=".019" d="M73.78-4.512v-.248q0-.248.267-.38h11.062q.285.152.285.38t-.285.38H74.047q-.267-.132-.267-.38Z" style="fill:#b8b8de;fill-opacity:1"/><path id="use301260" stroke-width=".019" d="m91.05-11.005-.248.095q-.267.095-.762.19-.495.096-1.104.134h-.362v-.876h.362q.895-.038 1.656-.286.762-.247 1.067-.457.304-.21.533-.419.038-.057.228-.057.172 0 .324.115v5.693l.019 5.712q.133.133.228.17.096.039.457.077.362.038 1.18.038h.496V0h-.21q-.4-.057-3.027-.057-2.59 0-2.99.057h-.228v-.876H89.888q.304 0 .476-.019.171-.019.304-.057.134-.038.153-.038.019 0 .114-.095t.114-.076z" style="fill:#b8b8de;fill-opacity:1"/></g><path id="path303393" stroke-width=".015" d="m134.632 24.117-.2.077q-.214.076-.613.153-.4.077-.89.108h-.293v-.707h.292q.722-.03 1.336-.23.614-.2.86-.369.245-.169.43-.337.03-.046.184-.046.138 0 .261.092v4.59l.015 4.607q.108.108.185.138.076.031.368.062.292.03.952.03h.4v.707h-.17q-.322-.046-2.441-.046-2.088 0-2.41.046h-.185v-.706h.983q.245 0 .384-.016.138-.015.245-.046.108-.03.123-.03t.092-.077q.077-.077.092-.062z" style="fill:#b8b8de;fill-opacity:1"/><g id="g303401" style="fill:#b8b8de;fill-opacity:1" transform="translate(61.184 248.681) scale(.80645)"><path id="path303397" stroke-width=".019" d="M73.78-4.512v-.248q0-.248.267-.38h11.062q.285.152.285.38t-.285.38H74.047q-.267-.132-.267-.38Z" style="fill:#b8b8de;fill-opacity:1"/><path id="path303399" stroke-width=".019" d="m91.05-11.005-.248.095q-.267.095-.762.19-.495.096-1.104.134h-.362v-.876h.362q.895-.038 1.656-.286.762-.247 1.067-.457.304-.21.533-.419.038-.057.228-.057.172 0 .324.115v5.693l.019 5.712q.133.133.228.17.096.039.457.077.362.038 1.18.038h.496V0h-.21q-.4-.057-3.027-.057-2.59 0-2.99.057h-.228v-.876H89.888q.304 0 .476-.019.171-.019.304-.057.134-.038.153-.038.019 0 .114-.095t.114-.076z" style="fill:#b8b8de;fill-opacity:1"/></g></g><g id="axes"><path id="path439" d="M12.401 135.879h272.623" class="axes"/><path id="path441" d="M148.713 272.19V-.433" class="axes"/></g><g id="layer2" style="display:inline"><path id="path14649" d="m-4.044 581.503 173.216 86.355" style="fill:#000;fill-opacity:1;stroke:#000;stroke-width:1.45161;stroke-miterlimit:2;stroke-dasharray:1.45161,1.45161;stroke-dashoffset:0"/><path id="path283207" d="m149.408 604.03 96.158 10.898" style="fill:#000;fill-opacity:1;stroke:#000;stroke-width:1.45161;stroke-miterlimit:2;stroke-dasharray:1.45161,1.45161;stroke-dashoffset:0"/><path id="path14524" d="m107.718 718.131 43.177-86.608" style="fill:#000;fill-opacity:1;stroke:#000;stroke-width:1.45161;stroke-miterlimit:2;stroke-dasharray:1.45161,1.45161;stroke-dashoffset:0"/><path id="path10324" d="M245.487 135.879a96.774 96.774 0 0 1-96.774 96.774 96.774 96.774 0 0 1-96.774-96.774 96.774 96.774 0 0 1 96.774-96.774 96.774 96.774 0 0 1 96.774 96.774Z" style="fill:none;stroke:#000;stroke-width:1.45161;stroke-miterlimit:2"/><path id="path640" d="M62.105 92.701a96.774 96.774 0 0 1 86.608-53.596 96.774 96.774 0 0 1 43.176 10.165 96.774 96.774 0 0 1 53.598 86.609 96.774 96.774 0 0 1-10.166 43.178 96.774 96.774 0 0 1-86.608 53.596 96.774 96.774 0 0 1-43.178-10.166 96.774 96.774 0 0 1-53.596-86.608A96.774 96.774 0 0 1 62.105 92.7" style="fill:none;stroke:#000;stroke-width:1.45161;stroke-miterlimit:2"/><path id="path10455" d="M-427.655-33.807a96.774 96.774 0 0 1-96.775 96.774 96.774 96.774 0 0 1-96.774-96.774 96.774 96.774 0 0 1 96.774-96.774 96.774 96.774 0 0 1 96.775 96.774z" style="fill:none;stroke:#000;stroke-width:1.45161;stroke-miterlimit:2"/><circle id="circle12878" cx="-450.363" cy="222.487" r="10.166" style="fill:#dd0;fill-opacity:1;stroke:none;stroke-width:1.45161;stroke-miterlimit:2;stroke-dasharray:none"/><circle id="circle12880" cx="-474.405" cy="91.703" r="10.166" style="fill:#0c0;fill-opacity:1;stroke:none;stroke-width:1.45161;stroke-miterlimit:2;stroke-dasharray:none"/><path id="path15451" d="m358.68 1122.418-173.215-86.355 86.356-173.216 173.215 86.355Z" style="fill:none;fill-opacity:1;stroke:#000;stroke-width:1.45161;stroke-miterlimit:2;stroke-dasharray:none;stroke-dashoffset:0"/><path id="path15455" d="m-617.92 147.75-15.989-7.97 7.97-15.989 15.989 7.971z" style="fill:none;fill-opacity:1;stroke:#000;stroke-width:.564516;stroke-miterlimit:2;stroke-dasharray:none;stroke-dashoffset:0"/><path id="path17844" d="M889.969 222.487 976.323 49.27M846.539 92.701l173.215 86.356" style="fill:#000;fill-opacity:1;stroke:#000;stroke-width:2.41935;stroke-miterlimit:2;stroke-dasharray:none;stroke-dashoffset:0"/><path id="path17846" d="m936.993 147.75-15.988-7.97 7.97-15.989 15.989 7.971z" style="fill:none;fill-opacity:1;stroke:#000;stroke-width:.564516;stroke-miterlimit:2;stroke-dasharray:none;stroke-dashoffset:0"/><ellipse id="ellipse25418" cx="108.05" cy="-598.574" rx="113.752" ry="114.251" style="fill:none;fill-opacity:1;stroke:#000;stroke-width:1.04839;stroke-miterlimit:2;stroke-dasharray:none;stroke-dashoffset:0"/><path id="path25420" d="m142.266-727.734-34.217 129.16 85.738-109.333" style="fill:none;fill-opacity:1;stroke:#000;stroke-width:1.04839;stroke-miterlimit:2;stroke-dasharray:none;stroke-dashoffset:0"/><path id="path26292" d="m222.765-460.205 1.222 6.687-6.679.588" style="fill:none;fill-opacity:1;stroke:#000;stroke-width:1.04839;stroke-miterlimit:2;stroke-dasharray:none;stroke-dashoffset:0;stroke-opacity:1"/><g id="g31216" transform="translate(727.649 -98.022) scale(.80645)"><path id="path31210" d="M216.268 43.091a141.053 141.672 0 0 1 51.009 25.613" style="fill:none;fill-opacity:1;stroke:#000;stroke-width:1.3;stroke-miterlimit:2;stroke-dasharray:none;stroke-dashoffset:0"/><path id="path31212" d="M222.428 19.841 180 180 286.315 44.426" style="fill:none;fill-opacity:1;stroke:#000;stroke-width:1.3;stroke-miterlimit:2;stroke-dasharray:none;stroke-dashoffset:0"/><path id="path31214" stroke-linejoin="round" d="M266.281 60.252c-1.465 1.96-.081 7.611 1.113 8.515-1.194-.904-6.976-.675-8.442 1.285" class="difference-arrows-tips" style="display:inline;fill:none;stroke:#000;stroke-width:1.5;stroke-linecap:round;stroke-linejoin:round;stroke-dasharray:none"/></g><g id="g44298" transform="translate(44.61 -407.158) scale(.80645)"><path id="path25424" d="M216.268 43.091a141.053 141.672 0 0 1 51.009 25.613" style="fill:none;fill-opacity:1;stroke:#000;stroke-width:1.3;stroke-miterlimit:2;stroke-dasharray:none;stroke-dashoffset:0"/><path id="path117967" stroke-linejoin="round" d="M266.281 60.252c-1.465 1.96-.081 7.611 1.113 8.515-1.194-.904-6.976-.675-8.442 1.285" class="difference-arrows-tips" style="display:inline;fill:none;stroke:#000;stroke-width:1.5;stroke-linecap:round;stroke-linejoin:round;stroke-dasharray:none"/><path id="path36489" d="m228.7 25.752-1.273 3.979q-.318.992-.369 1.254-.05.261.094.446.152.188.641.344l-.109.341q-1.13-.345-1.72-.289l-.09-.028q-.106-.484.2-1.489-.678.56-1.377.728-.692.17-1.395-.055-.608-.194-.987-.617-.377-.431-.426-.888-.043-.455.216-1.262l.66-2.067q.338-1.052.374-1.294.039-.249-.126-.424-.157-.173-.683-.34l.11-.342 2.059.66-1.347 4.207q-.199.623-.215.928-.016.305.22.617.237.305.637.433.57.182 1.207-.022.64-.212.958-.568.328-.36.576-1.138l.439-1.37q.318-.994.364-1.216.047-.222-.074-.432-.111-.215-.637-.383l-.156-.05.11-.34z" style="font-size:25px;font-family:Baskerville;-inkscape-font-specification:Baskerville;text-align:center;text-anchor:middle;stroke:#000;stroke-width:0;stroke-miterlimit:2;stroke-dasharray:none"/><path id="path36491" d="m232.295 26.797.195.078q-.012.514-.298 1.296.765-.407 1.457-.483.691-.076 1.313.171.708.282 1.038.757.337.477.295.963-.04.478-.368 1.302l-.737 1.85q-.408 1.026-.461 1.264-.053.239.088.43.152.185.665.39l-.132.332-3.028-1.206.132-.332.138.055q.52.207.74.118.219-.088.321-.282.102-.194.497-1.184l.76-1.907q.278-.701.324-1.026.056-.33-.155-.682-.205-.35-.667-.533-.528-.21-1.139-.085-.6.12-1.277.58l-.961 2.413q-.409 1.026-.462 1.265-.046.241.096.431.152.187.672.394l-.132.332-2.992-1.191.133-.333q.498.199.734.175.235-.023.359-.208.134-.19.566-1.274l.702-1.763q.411-1.033.454-1.267.053-.239-.099-.425-.142-.19-.662-.397l.133-.333q.829.23 1.758.315z" style="font-size:25px;font-family:Baskerville;-inkscape-font-specification:Baskerville;text-align:center;text-anchor:middle;stroke:#000;stroke-width:0;stroke-miterlimit:2;stroke-dasharray:none"/><path id="path36493" d="M240.64 26.658q.134-.306.444-.434.318-.124.624.01t.424.449q.117.314-.018.62-.137.314-.447.441-.31.128-.617-.006t-.43-.452q-.118-.315.019-.628zm.071 3.58-1.781 4.07q-.409.933-.486 1.188-.078.254.044.46.122.207.578.406l.15.066-.144.328-3.142-1.376.143-.328.243.106q.506.222.718.145.222-.081.33-.271.12-.194.547-1.17l.773-1.768q.45-1.026.45-1.298.007-.268-.132-.397-.132-.126-.531-.3l-.192-.085.143-.327q1.325.427 2.132.483z" style="font-size:25px;font-family:Baskerville;-inkscape-font-specification:Baskerville;text-align:center;text-anchor:middle;stroke:#000;stroke-width:0;stroke-miterlimit:2;stroke-dasharray:none"/><path id="path36495" d="M245.318 32.784 243.563 32l-1.568 3.517q-.36.81-.416 1.126-.053.309.098.58.159.275.422.393.511.228 1.147-.187l.168.236q-.43.371-.97.42-.532.044-.972-.153-.512-.228-.77-.7-.247-.477-.166-.926.089-.446.542-1.462l1.47-3.297-.846-.377.146-.326q.588.245 1.262-.025.675-.27 1.186-1.073l.227.102-.814 1.826 1.755.782z" style="font-size:25px;font-family:Baskerville;-inkscape-font-specification:Baskerville;text-align:center;text-anchor:middle;stroke:#000;stroke-width:0;stroke-miterlimit:2;stroke-dasharray:none"/><path id="path36497" d="m246.452 40.222.89-1.893.275.13q-.293 1.864.94 2.444.534.251.947.05.42-.198.602-.585.212-.45.066-.871-.153-.425-.791-1.224-.671-.84-.856-1.434-.188-.587.093-1.185.269-.57.918-.892.654-.329 1.393.019.753.354.958 1.198.155-.056.516-.384l.26.122-.837 1.78-.26-.122q.16-.706-.034-1.356-.182-.653-.731-.911-.423-.2-.806-.061-.382.138-.545.483-.178.38-.02.79.15.414.777 1.147.941 1.105.967 1.745.022.646-.203 1.125-.354.753-1.076.99-.714.24-1.467-.115-.796-.374-1.107-1.32-.29.122-.595.46z" style="font-size:25px;font-family:Baskerville;-inkscape-font-specification:Baskerville;text-align:center;text-anchor:middle;stroke:#000;stroke-width:0;stroke-miterlimit:2;stroke-dasharray:none"/><path id="path36499" d="m255.238 37.154.184.1q-.093.446-.388.985.69-.225 1.312-.178.632.044 1.192.35 1.16.633 1.484 1.874.328 1.234-.403 2.572-.716 1.31-1.975 1.766-1.253.459-2.515-.231-.52-.283-.881-.756-.36-.462-.56-1.103l-1.159 2.123q-.53.97-.61 1.2-.076.234.046.433.118.206.602.471l-.171.314-2.922-1.596.172-.314.205.112q.484.265.706.2.225-.055.353-.242.132-.176.643-1.111l2.774-5.079q.489-.894.588-1.141.106-.244.003-.46-.103-.216-.54-.454l-.205-.112.172-.314q.713.3 1.893.59zm-2.303 4.929q.122.651.405 1.107.294.453.751.703.771.421 1.707.072.935-.349 1.725-1.796.686-1.256.473-2.179-.214-.923-.978-1.34-.471-.258-1.025-.25-.554.007-1.2.283z" style="font-size:25px;font-family:Baskerville;-inkscape-font-specification:Baskerville;text-align:center;text-anchor:middle;stroke:#000;stroke-width:0;stroke-miterlimit:2;stroke-dasharray:none"/><path id="path36501" d="m264.622 45.413-3.78-2.332q-.268.375-.387.567-.881 1.43-.883 2.425.01.993.897 1.54 1.205.743 2.373-.026l.318.196q-.628.545-1.494.54-.862-.01-1.603-.467-.689-.425-1.092-1.149-.393-.726-.392-1.603.001-.876.561-1.783.792-1.285 2.07-1.667 1.28-.388 2.413.31 1.066.657 1.249 1.665.182 1.008-.25 1.784zm-.996-.98q.114-.14.188-.259.359-.583.21-1.113-.137-.532-.634-.839-1.205-.743-2.359.61z" style="font-size:25px;font-family:Baskerville;-inkscape-font-specification:Baskerville;text-align:center;text-anchor:middle;stroke:#000;stroke-width:0;stroke-miterlimit:2;stroke-dasharray:none"/><path id="path36503" d="m270.032 48.921-3.724-2.42q-.276.369-.4.558-.915 1.409-.94 2.404-.013.992.86 1.56 1.188.771 2.374.03l.313.204q-.64.53-1.506.505-.861-.03-1.592-.505-.678-.44-1.064-1.174-.376-.736-.354-1.612.022-.876.602-1.77.822-1.265 2.108-1.617 1.29-.359 2.406.366 1.05.682 1.21 1.694.158 1.013-.293 1.777zm-.972-1.002q.117-.137.194-.255.373-.574.237-1.107-.125-.536-.615-.854-1.187-.771-2.373.555z" style="font-size:25px;font-family:Baskerville;-inkscape-font-specification:Baskerville;text-align:center;text-anchor:middle;stroke:#000;stroke-width:0;stroke-miterlimit:2;stroke-dasharray:none"/><path id="path36505" d="m275.973 51.373 1.368-2.079q.56-.851.68-1.089.126-.234.04-.458-.085-.223-.5-.497l-.137-.09.196-.299q.8.498 1.902.86l.136.09-4.708 7.154q-.612.93-.712 1.152-.1.223.004.431.111.213.58.521l-.197.3q-.955-.601-1.788-.935.123-.357.555-1.013-.797.164-1.469.067-.665-.093-1.21-.453-1.034-.68-1.24-2.007-.2-1.324.578-2.506.856-1.3 2.149-1.594 1.296-.302 2.356.396.539.355.891.866.353.511.525 1.183zm-.248.377q-.185-.652-.501-1.12-.305-.472-.74-.758-.734-.483-1.6-.243-.86.244-1.702 1.524-.855 1.3-.761 2.247.1.95.84 1.438.495.325 1.071.369.576.044 1.242-.189z" style="font-size:25px;font-family:Baskerville;-inkscape-font-specification:Baskerville;text-align:center;text-anchor:middle;stroke:#000;stroke-width:0;stroke-miterlimit:2;stroke-dasharray:none"/></g><g id="g37358" aria-label="unit speed" style="font-size:25px;font-family:Baskerville;-inkscape-font-specification:Baskerville;text-align:center;text-anchor:middle;stroke-width:2.04012;stroke-miterlimit:2" transform="matrix(.46045 .22818 -.22818 .46045 73.033 -526.081)"><path id="path37340" d="M183.234 14.397v6.555q0 1.636.049 2.05.048.416.354.623.317.208 1.123.208v.561q-1.856.025-2.71.39h-.147q-.39-.67-.415-2.319-.745 1.16-1.709 1.746-.952.586-2.112.586-1 0-1.77-.452-.769-.464-1.062-1.123-.28-.659-.28-1.99v-3.405q0-1.734-.061-2.112-.061-.39-.391-.574-.318-.183-1.184-.183v-.561h3.393v6.933q0 1.026.122 1.49.122.463.623.817.5.342 1.16.342.94 0 1.794-.61.855-.623 1.16-1.306.317-.696.317-1.978v-2.258q0-1.636-.036-1.99-.037-.354-.318-.61-.268-.269-1.135-.269h-.256v-.561z" style="stroke-width:2.04012"/><path id="path37342" d="M188.837 13.994h.33q.28.757.317 2.063.879-1.038 1.843-1.55.964-.513 2.014-.513 1.196 0 1.953.5.77.5.989 1.233.22.72.22 2.112v3.125q0 1.733.06 2.112.062.378.38.574.329.183 1.195.183v.561h-5.114v-.561h.232q.879 0 1.147-.257.269-.256.305-.598.037-.342.037-2.014v-3.223q0-1.184-.122-1.684-.11-.513-.623-.904-.5-.39-1.281-.39-.892 0-1.71.537-.805.525-1.525 1.587v4.077q0 1.733.06 2.112.074.378.391.574.33.183 1.209.183v.561h-5.054v-.561q.842 0 1.172-.171.33-.171.403-.513.085-.354.085-2.185v-2.979q0-1.745-.073-2.111-.061-.379-.39-.562-.318-.195-1.197-.195v-.562q1.343-.146 2.747-.561z" style="stroke-width:2.04012"/><path id="path37344" d="M200.348 8.891q0-.525.366-.903.379-.379.904-.379.524 0 .89.379.367.378.367.903 0 .537-.366.916-.367.378-.891.378-.525 0-.904-.378-.366-.379-.366-.916zm2.356 5.103v6.97q0 1.6.049 2.014.049.415.354.635.305.22 1.086.22h.257v.561h-5.384v-.561h.415q.867 0 1.123-.245.269-.256.305-.598.05-.354.05-2.026v-3.027q0-1.758-.172-2.149-.158-.39-.44-.488-.268-.098-.951-.098h-.33v-.561q2.173-.22 3.37-.647z" style="stroke-width:2.04012"/><path id="path37346" d="M211.786 14.958h-3.015v6.043q0 1.391.122 1.88.122.476.513.769.402.293.854.293.879 0 1.526-1.001l.39.231q-.378.806-1.122 1.221-.733.403-1.49.403-.879 0-1.55-.513-.66-.525-.83-1.22-.159-.696-.159-2.442v-5.664h-1.452v-.561q1-.025 1.794-.843.793-.818 1.013-2.295h.39v3.138h3.016z" style="stroke-width:2.04012"/><path id="path37348" d="M219.476 24.712v-3.284h.476q.83 2.844 2.967 2.844.928 0 1.38-.561.463-.562.463-1.233 0-.782-.488-1.282-.5-.5-1.941-1.209-1.514-.744-2.173-1.464-.66-.708-.66-1.746 0-.989.709-1.88.708-.903 1.99-.903 1.306 0 2.16 1.062.183-.183.476-.891h.452v3.088h-.452q-.244-1.11-.952-1.904-.696-.806-1.648-.806-.732 0-1.184.452-.452.451-.452 1.05 0 .659.5 1.135.49.488 1.869 1.11 2.075.94 2.539 1.832.464.903.464 1.733 0 1.306-.867 2.124-.855.818-2.16.818-1.38 0-2.454-1.135-.33.366-.538 1.05z" style="stroke-width:2.04012"/><path id="path37350" d="M229.889 13.994h.33q.207.683.207 1.648.781-.83 1.672-1.233.904-.415 1.905-.415 2.075 0 3.454 1.465 1.38 1.452 1.38 3.845 0 2.344-1.392 3.918-1.38 1.575-3.638 1.575-.927 0-1.782-.378-.842-.367-1.599-1.1v3.797q0 1.734.061 2.112.073.379.39.562.318.195 1.185.195v.562h-5.225v-.562h.366q.867 0 1.123-.256.269-.245.306-.599.048-.341.048-2.014v-9.082q0-1.599-.048-2.014-.037-.415-.342-.635-.305-.22-1.087-.22h-.366v-.56q1.209-.123 3.052-.611zm.537 8.52q.66.806 1.392 1.221.744.403 1.562.403 1.38 0 2.405-1.184t1.025-3.772q0-2.246-.988-3.357-.99-1.111-2.356-1.111-.843 0-1.6.427-.756.427-1.44 1.294z" style="stroke-width:2.04012"/><path id="path37352" d="M249.81 17.778h-6.97q-.048.72-.048 1.074 0 2.637.818 3.967.83 1.319 2.466 1.319 2.221 0 3.149-1.99h.586q-.39 1.245-1.55 1.953-1.16.696-2.527.696-1.27 0-2.405-.635-1.123-.647-1.843-1.819-.72-1.171-.72-2.844 0-2.368 1.391-3.93 1.392-1.575 3.48-1.575 1.964 0 3.039 1.196 1.074 1.196 1.135 2.588zm-2.135-.488q.036-.281.036-.5 0-1.075-.635-1.661-.622-.598-1.538-.598-2.221 0-2.649 2.759z" style="stroke-width:2.04012"/><path id="path37354" d="M260.748 17.778h-6.97q-.049.72-.049 1.074 0 2.637.818 3.967.83 1.319 2.466 1.319 2.222 0 3.15-1.99h.585q-.39 1.245-1.55 1.953-1.16.696-2.527.696-1.27 0-2.405-.635-1.123-.647-1.843-1.819-.72-1.171-.72-2.844 0-2.368 1.392-3.93 1.391-1.575 3.479-1.575 1.965 0 3.04 1.196 1.073 1.196 1.134 2.588zm-2.136-.488q.037-.281.037-.5 0-1.075-.635-1.661-.623-.598-1.538-.598-2.222 0-2.649 2.759z" style="stroke-width:2.04012"/><path id="path37356" d="M271.088 15.459v-3.907q0-1.599-.05-2.014-.036-.415-.34-.635-.306-.22-1.087-.22h-.257v-.56q1.477-.037 3.235-.514h.257v13.44q0 1.746.06 2.124.062.379.379.562.33.183 1.208.183v.562q-1.77.036-3.149.317-.146-.574-.146-1.807-.904.904-1.868 1.355-.952.452-1.978.452-1.94 0-3.357-1.563-1.403-1.562-1.403-3.784 0-2.441 1.44-3.943 1.44-1.513 3.43-1.513 1.013 0 1.917.366.903.366 1.709 1.099zm0 .708q-.806-.696-1.624-1.038-.805-.354-1.623-.354-1.38 0-2.307 1.062-.916 1.062-.916 3.467 0 2.441.94 3.6.952 1.16 2.344 1.16.927 0 1.72-.439.794-.44 1.466-1.318z" style="stroke-width:2.04012"/></g><text xml:space="preserve" id="text45873" x="337.828" y="-407.08" style="font-style:normal;font-variant:normal;font-weight:400;font-stretch:normal;font-size:17.3387px;font-family:Baskerville;-inkscape-font-specification:Baskerville;text-align:center;text-anchor:middle;fill:#000;fill-opacity:1;stroke:#f0f;stroke-width:0;stroke-miterlimit:2;stroke-dasharray:none;stroke-dashoffset:0;stroke-opacity:1"><tspan id="tspan45871" x="337.828" y="-407.08" style="font-style:normal;font-variant:normal;font-weight:400;font-stretch:normal;font-size:17.3387px;font-family:&quot;Song Myung&quot;;-inkscape-font-specification:&quot;Song Myung&quot;;fill:#000;stroke-width:0">PARTICLE 2</tspan></text><text xml:space="preserve" id="text45927" x="337.828" y="-382.936" style="font-style:normal;font-variant:normal;font-weight:400;font-stretch:normal;font-size:17.3387px;font-family:Baskerville;-inkscape-font-specification:Baskerville;text-align:center;text-anchor:middle;fill:#000;fill-opacity:1;stroke:#f0f;stroke-width:0;stroke-miterlimit:2;stroke-dasharray:none;stroke-dashoffset:0;stroke-opacity:1"><tspan id="tspan45929" x="337.828" y="-382.936" style="font-style:normal;font-variant:normal;font-weight:400;font-stretch:normal;font-size:17.3387px;font-family:&quot;Song Myung&quot;;-inkscape-font-specification:&quot;Song Myung&quot;;fill:#000;stroke-width:0">PARTICLE 3</tspan></text><text xml:space="preserve" id="text45935" x="337.828" y="-358.792" style="font-style:normal;font-variant:normal;font-weight:400;font-stretch:normal;font-size:17.3387px;font-family:Baskerville;-inkscape-font-specification:Baskerville;text-align:center;text-anchor:middle;fill:#000;fill-opacity:1;stroke:#f0f;stroke-width:0;stroke-miterlimit:2;stroke-dasharray:none;stroke-dashoffset:0;stroke-opacity:1"><tspan id="tspan45933" x="337.828" y="-358.792" style="font-style:normal;font-variant:normal;font-weight:400;font-stretch:normal;font-size:17.3387px;font-family:&quot;Song Myung&quot;;-inkscape-font-specification:&quot;Song Myung&quot;;fill:#000;stroke-width:0">PARTICLE 4</tspan></text><path id="rect52016" d="M-538.193 264.807h87.427v15.829h-87.427z" style="fill:#fea;fill-opacity:1;stroke:#2b2200;stroke-width:.806451;stroke-miterlimit:2;stroke-dasharray:none;stroke-dashoffset:0;stroke-opacity:1"/><path id="rect46365" d="M-17.307-450.656H83.51v7.172l35.8 1.827-1.152 41.99 11.295 3.31-14.299 1.6-2.751-41.057-28.893 1.097v7.557H-17.307Z" style="fill:#fea;stroke:#2b2200;stroke-width:.806451;stroke-miterlimit:2"/><path id="path52905" d="M175.16-343.718h-22.502v-40.366h-9.343v6.621H55.888v-15.83h87.427v6.687h11.865v40.366h19.98v-2.472l3.721 3.722-3.721 3.721z" style="fill:#fea;fill-opacity:1;stroke:#2b2200;stroke-width:.806451;stroke-miterlimit:2;stroke-dasharray:none;stroke-dashoffset:0;stroke-opacity:1"/><g id="g52004" transform="translate(-54.646 -447.815) scale(.80645)"><g id="g46085" style="stroke-width:1.16635" transform="matrix(.85737 0 0 .85737 -337.793 62.994)"><path id="path46010" d="M564.14 18.417c-1.13.328-.24 2.991-.333 4.07 2.898.329.933 1.793-1.045 1.262-1.111.179-4.93-.009-2.468-1.04 1.61-.566.567-3.067.858-4.526-.094-2.27.199-4.617-.172-6.84-2.823-.396-.69-1.758 1.163-1.246 2.917.028 7-.494 8.152 2.967 1.084 3.862-3.018 5.58-6.155 5.353zm.473-7.267c-1.94-.284-.565 2.794-.967 4.014-1.073 2.954 2.529 2.786 3.871.845 1.345-2.173-.136-5.275-2.904-4.859z" style="font-size:21.5px;font-family:&quot;Song Myung&quot;;-inkscape-font-specification:&quot;Song Myung&quot;;text-align:center;text-anchor:middle;stroke:#f0f;stroke-width:0;stroke-miterlimit:2"/><path id="path46012" d="M582.931 22.266c2.572.845.813 1.89-1.206 1.483-1.303.403-4.54-.485-1.804-1.075.737-.587-.062-3.404-1.2-3.268-1.22.268-3.201-.548-3.92.43-1.012 1.727-.775 2.81.863 3.44-1.04.911-3.119.391-4.552.355.379-1.147 2.577-1.568 2.56-3.638 1.265-3.244 2.26-6.633 3.69-9.789 1.826-.513 1.685 2.22 2.384 3.324l3.185 8.738zm-7.61-3.913c1.016-.272 3.579.556 3.59-.431l-1.677-4.837-1.914 5.268z" style="font-size:21.5px;font-family:&quot;Song Myung&quot;;-inkscape-font-specification:&quot;Song Myung&quot;;text-align:center;text-anchor:middle;stroke:#f0f;stroke-width:0;stroke-miterlimit:2"/><path id="path46014" d="M596.24 22.18c1.362.438 2.918 1.87.086 1.784-2.803.422-2.814-2.655-3.29-4.558-.348-2.445-4.448-2.706-3.29.183-.318 1.892.285 3.129 1.85 3.687-1.003.982-2.993.244-4.417.473-2.978.068-.383-.91.074-2.09-.06-3.428.217-6.933-.15-10.315-2.823-.397-.69-1.759 1.163-1.247 2.863.115 6.99-.733 8.173 2.698 1.833 3.164-5.07 4.059-1.661 5.257.987 1.149 1.048 2.735 1.462 4.128zm-6.493-5.698c2.996.968 6.12-2.804 3.204-4.969-1.985-.935-3.88-.542-3.204 1.84v3.13z" style="font-size:21.5px;font-family:&quot;Song Myung&quot;;-inkscape-font-specification:&quot;Song Myung&quot;;text-align:center;text-anchor:middle;stroke:#f0f;stroke-width:0;stroke-miterlimit:2"/><path id="path46016" d="M609.097 11.688c-.718-.724-3.753-1.124-3.075.795.09 3.334-.195 6.729.172 10.02 2.716.156 1.342 1.795-.742 1.246-1.094-.16-4.746.57-3.429-.989 2.237.24 1.32-2.486 1.505-3.893-.007-2.558.024-5.116-.043-7.674-1.522-.107-3.527-.268-3.24 1.848-1.21 2.32-1.83-.966-1.41-2.228.612-1.399 2.867-.428 4.216-.716 2.491.09 5.042-.182 7.497.134.386 1.12.6 4.846-1.193 3.134l-.258-1.677z" style="font-size:21.5px;font-family:&quot;Song Myung&quot;;-inkscape-font-specification:&quot;Song Myung&quot;;text-align:center;text-anchor:middle;stroke:#f0f;stroke-width:0;stroke-miterlimit:2"/><path id="path46018" d="M618.148 10.57c-1.87.478-2.013 2.252-1.827 4.18.078 2.58-.173 5.212.16 7.752 2.831.388.71 1.762-1.152 1.247-1.104.195-4.805-.026-2.36-1.04 1.61-.566.567-3.067.858-4.526-.094-2.27.199-4.617-.172-6.84-2.823-.396-.69-1.758 1.163-1.246 1.033.216 2.733-.49 3.33.473z" style="font-size:21.5px;font-family:&quot;Song Myung&quot;;-inkscape-font-specification:&quot;Song Myung&quot;;text-align:center;text-anchor:middle;stroke:#f0f;stroke-width:0;stroke-miterlimit:2"/><path id="path46020" d="M629.522 20.524c1.67-1.973 2.263 2.614.66 2.946-4.047 1.74-9.787-.18-10.357-4.994-1.218-4.73 3.122-9.527 7.96-8.659 2.5-.532 4.08 2.512 2.554 4.042-1.674-.542-1.155-4.457-4.424-2.854-4.058 1.432-4.363 7.321-2.168 10.445 1.429 2.02 6.146 2.47 5.775-.926z" style="font-size:21.5px;font-family:&quot;Song Myung&quot;;-inkscape-font-specification:&quot;Song Myung&quot;;text-align:center;text-anchor:middle;stroke:#f0f;stroke-width:0;stroke-miterlimit:2"/><path id="path46022" d="M641.798 20.288c1.9-1.668 1.51 1.736 1.355 2.945-.959 1.063-2.996.272-4.417.516-1.982-.078-4.009.157-5.963-.118.683-1.043 2.478-1.802 1.694-4.1-.095-2.72.2-5.515-.172-8.187-2.823-.397-.69-1.759 1.163-1.247 1.106-.185 4.842.007 2.425 1.057-1.735.461-.596 3.097-.922 4.53.016 2.33-.04 4.661.043 6.99 1.425-.23 3.352.511 4.407-.473l.387-1.913z" style="font-size:21.5px;font-family:&quot;Song Myung&quot;;-inkscape-font-specification:&quot;Song Myung&quot;;text-align:center;text-anchor:middle;stroke:#f0f;stroke-width:0;stroke-miterlimit:2"/><path id="path46024" d="M654.333 20.61c1.753-1.688 1.542 1.907 1.166 3.01-3.358.298-6.804.046-10.196.13-.912-.998 2.534-1.582 1.29-3.97-.095-2.803.2-5.68-.172-8.436-2.823-.397-.69-1.759 1.163-1.247 2.495.087 5.046-.174 7.506.129.366 1.097.618 4.666-1.166 3.031.192-1.926-1.318-2.353-2.935-2.064-1.835-.523-2.164.563-1.902 2.16.241 1.088-.767 3.426 1.14 2.85 1.971 1.044 2.38-3.794 3.009-.67.01 1.086.324 4.835-1.124 2.873.401-1.497-3.265-1.721-3.025-.465.01 1.578-.03 3.156.043 4.733 1.568-.084 3.189.168 4.724-.123.362-.57.311-1.302.479-1.94z" style="font-size:21.5px;font-family:&quot;Song Myung&quot;;-inkscape-font-specification:&quot;Song Myung&quot;;text-align:center;text-anchor:middle;stroke:#f0f;stroke-width:0;stroke-miterlimit:2"/><path id="path46026" d="M670.786 21.922c.8.725 4.483 1.52 1.324 1.827-2.091-.064-4.215.132-6.285-.102-.074-1.555 3.629-.424 2.682-2.866-.085-2.824.172-5.703-.129-8.491-2.247.375-2.465-1.25-.107-1.403 1.536-.698 3.16-.74 2.545 1.395-.066 3.212-.012 6.427-.03 9.64z" style="font-size:21.5px;font-family:&quot;Song Myung&quot;;-inkscape-font-specification:&quot;Song Myung&quot;;text-align:center;text-anchor:middle;stroke:#f0f;stroke-width:0;stroke-miterlimit:2"/></g></g><path id="rect51379" d="M-548.157 130.419h87.427v15.829h-87.427z" style="fill:#fea;fill-opacity:1;stroke:#2b2200;stroke-width:.806451;stroke-miterlimit:2;stroke-dasharray:none;stroke-dashoffset:0;stroke-opacity:1"/><path id="rect52855" d="M55.888-370.521h87.427v15.829H55.888z" style="fill:#fea;fill-opacity:1;stroke:#2b2200;stroke-width:.806451;stroke-miterlimit:2;stroke-dasharray:none;stroke-dashoffset:0;stroke-opacity:1"/><g id="g52875" style="stroke-width:1.16635" transform="translate(-327.059 -374.242) scale(.69143)"><path id="path52857" d="M564.14 18.417c-1.13.328-.24 2.991-.333 4.07 2.898.329.933 1.793-1.045 1.262-1.111.179-4.93-.009-2.468-1.04 1.61-.566.567-3.067.858-4.526-.094-2.27.199-4.617-.172-6.84-2.823-.396-.69-1.758 1.163-1.246 2.917.028 7-.494 8.152 2.967 1.084 3.862-3.018 5.58-6.155 5.353zm.473-7.267c-1.94-.284-.565 2.794-.967 4.014-1.073 2.954 2.529 2.786 3.871.845 1.345-2.173-.136-5.275-2.904-4.859z" style="font-size:21.5px;font-family:&quot;Song Myung&quot;;-inkscape-font-specification:&quot;Song Myung&quot;;text-align:center;text-anchor:middle;stroke:#f0f;stroke-width:0;stroke-miterlimit:2"/><path id="path52859" d="M582.931 22.266c2.572.845.813 1.89-1.206 1.483-1.303.403-4.54-.485-1.804-1.075.737-.587-.062-3.404-1.2-3.268-1.22.268-3.201-.548-3.92.43-1.012 1.727-.775 2.81.863 3.44-1.04.911-3.119.391-4.552.355.379-1.147 2.577-1.568 2.56-3.638 1.265-3.244 2.26-6.633 3.69-9.789 1.826-.513 1.685 2.22 2.384 3.324l3.185 8.738zm-7.61-3.913c1.016-.272 3.579.556 3.59-.431l-1.677-4.837-1.914 5.268z" style="font-size:21.5px;font-family:&quot;Song Myung&quot;;-inkscape-font-specification:&quot;Song Myung&quot;;text-align:center;text-anchor:middle;stroke:#f0f;stroke-width:0;stroke-miterlimit:2"/><path id="path52861" d="M596.24 22.18c1.362.438 2.918 1.87.086 1.784-2.803.422-2.814-2.655-3.29-4.558-.348-2.445-4.448-2.706-3.29.183-.318 1.892.285 3.129 1.85 3.687-1.003.982-2.993.244-4.417.473-2.978.068-.383-.91.074-2.09-.06-3.428.217-6.933-.15-10.315-2.823-.397-.69-1.759 1.163-1.247 2.863.115 6.99-.733 8.173 2.698 1.833 3.164-5.07 4.059-1.661 5.257.987 1.149 1.048 2.735 1.462 4.128zm-6.493-5.698c2.996.968 6.12-2.804 3.204-4.969-1.985-.935-3.88-.542-3.204 1.84v3.13z" style="font-size:21.5px;font-family:&quot;Song Myung&quot;;-inkscape-font-specification:&quot;Song Myung&quot;;text-align:center;text-anchor:middle;stroke:#f0f;stroke-width:0;stroke-miterlimit:2"/><path id="path52863" d="M609.097 11.688c-.718-.724-3.753-1.124-3.075.795.09 3.334-.195 6.729.172 10.02 2.716.156 1.342 1.795-.742 1.246-1.094-.16-4.746.57-3.429-.989 2.237.24 1.32-2.486 1.505-3.893-.007-2.558.024-5.116-.043-7.674-1.522-.107-3.527-.268-3.24 1.848-1.21 2.32-1.83-.966-1.41-2.228.612-1.399 2.867-.428 4.216-.716 2.491.09 5.042-.182 7.497.134.386 1.12.6 4.846-1.193 3.134l-.258-1.677z" style="font-size:21.5px;font-family:&quot;Song Myung&quot;;-inkscape-font-specification:&quot;Song Myung&quot;;text-align:center;text-anchor:middle;stroke:#f0f;stroke-width:0;stroke-miterlimit:2"/><path id="path52865" d="M618.148 10.57c-1.87.478-2.013 2.252-1.827 4.18.078 2.58-.173 5.212.16 7.752 2.831.388.71 1.762-1.152 1.247-1.104.195-4.805-.026-2.36-1.04 1.61-.566.567-3.067.858-4.526-.094-2.27.199-4.617-.172-6.84-2.823-.396-.69-1.758 1.163-1.246 1.033.216 2.733-.49 3.33.473z" style="font-size:21.5px;font-family:&quot;Song Myung&quot;;-inkscape-font-specification:&quot;Song Myung&quot;;text-align:center;text-anchor:middle;stroke:#f0f;stroke-width:0;stroke-miterlimit:2"/><path id="path52867" d="M629.522 20.524c1.67-1.973 2.263 2.614.66 2.946-4.047 1.74-9.787-.18-10.357-4.994-1.218-4.73 3.122-9.527 7.96-8.659 2.5-.532 4.08 2.512 2.554 4.042-1.674-.542-1.155-4.457-4.424-2.854-4.058 1.432-4.363 7.321-2.168 10.445 1.429 2.02 6.146 2.47 5.775-.926z" style="font-size:21.5px;font-family:&quot;Song Myung&quot;;-inkscape-font-specification:&quot;Song Myung&quot;;text-align:center;text-anchor:middle;stroke:#f0f;stroke-width:0;stroke-miterlimit:2"/><path id="path52869" d="M641.798 20.288c1.9-1.668 1.51 1.736 1.355 2.945-.959 1.063-2.996.272-4.417.516-1.982-.078-4.009.157-5.963-.118.683-1.043 2.478-1.802 1.694-4.1-.095-2.72.2-5.515-.172-8.187-2.823-.397-.69-1.759 1.163-1.247 1.106-.185 4.842.007 2.425 1.057-1.735.461-.596 3.097-.922 4.53.016 2.33-.04 4.661.043 6.99 1.425-.23 3.352.511 4.407-.473l.387-1.913z" style="font-size:21.5px;font-family:&quot;Song Myung&quot;;-inkscape-font-specification:&quot;Song Myung&quot;;text-align:center;text-anchor:middle;stroke:#f0f;stroke-width:0;stroke-miterlimit:2"/><path id="path52871" d="M654.333 20.61c1.753-1.688 1.542 1.907 1.166 3.01-3.358.298-6.804.046-10.196.13-.912-.998 2.534-1.582 1.29-3.97-.095-2.803.2-5.68-.172-8.436-2.823-.397-.69-1.759 1.163-1.247 2.495.087 5.046-.174 7.506.129.366 1.097.618 4.666-1.166 3.031.192-1.926-1.318-2.353-2.935-2.064-1.835-.523-2.164.563-1.902 2.16.241 1.088-.767 3.426 1.14 2.85 1.971 1.044 2.38-3.794 3.009-.67.01 1.086.324 4.835-1.124 2.873.401-1.497-3.265-1.721-3.025-.465.01 1.578-.03 3.156.043 4.733 1.568-.084 3.189.168 4.724-.123.362-.57.311-1.302.479-1.94z" style="font-size:21.5px;font-family:&quot;Song Myung&quot;;-inkscape-font-specification:&quot;Song Myung&quot;;text-align:center;text-anchor:middle;stroke:#f0f;stroke-width:0;stroke-miterlimit:2"/><path id="path52873" d="M670.786 21.922c.8.725 4.483 1.52 1.324 1.827-2.091-.064-4.215.132-6.285-.102-.074-1.555 3.629-.424 2.682-2.866-.085-2.824.172-5.703-.129-8.491-2.247.375-2.465-1.25-.107-1.403 1.536-.698 3.16-.74 2.545 1.395-.066 3.212-.012 6.427-.03 9.64z" style="font-size:21.5px;font-family:&quot;Song Myung&quot;;-inkscape-font-specification:&quot;Song Myung&quot;;text-align:center;text-anchor:middle;stroke:#f0f;stroke-width:0;stroke-miterlimit:2"/></g><path id="rect54029" d="M146.037-342.412h12.238v7.093h-12.238z" style="fill:#f0f;fill-opacity:1;stroke:none;stroke-width:.806451;stroke-miterlimit:2;stroke-dasharray:none;stroke-dashoffset:0;stroke-opacity:1"/><text xml:space="preserve" id="text1" x="-414.461" y="-49.605" style="font-size:16.129px;font-family:sans-serif;-inkscape-font-specification:sans-serif;text-align:center;text-anchor:middle;fill:none;stroke:red;stroke-width:.806451;stroke-dashoffset:1.02"><tspan id="tspan1" x="-414.461" y="-49.605" style="stroke-width:.806451">21.1764705882</tspan></text></g><g id="layer5"><g id="g54" style="display:inline" transform="translate(-222.471 43.47) scale(.80645)"><circle id="circle54" cx="342.313" cy="136.629" r="12.17" style="fill:#d4ffcc;fill-opacity:1;stroke:#000;stroke-width:1;stroke-dashoffset:1.02"/><path id="text54" d="M344.49 136.95q-.536.65-1.143.975-.606.325-1.274.325-1.424 0-2.46-1.072-1.03-1.08-1.03-2.69 0-1.529 1.003-2.654 1.002-1.133 2.557-1.133 1.319 0 2.224.835.905.834 1.266 2.091.369 1.248.369 2.602 0 2.786-1.23 4.676-1.222 1.89-3.279 1.89-.967 0-1.705-.423-.738-.421-.738-.94 0-.492.51-.492.43 0 .738.589.422.826 1.432.826 1.389 0 2.083-1.23.695-1.24.695-3.7 0-.203-.018-.475zm.044-2.338q0-.853-.237-1.688-.238-.844-.8-1.327-.563-.483-1.257-.483-1.099 0-1.652.879-.545.87-.545 2.628 0 1.107.21 1.73.212.616.757 1.03.553.412 1.23.412.914 0 1.6-.685.694-.695.694-2.496z" aria-label="9" style="font-size:18px;font-family:Baskerville;-inkscape-font-specification:Baskerville;text-align:center;text-anchor:middle;stroke-dashoffset:1.02"/></g><g id="g62" style="display:inline" transform="translate(-30.572 25.694) scale(.80645)"><circle id="circle62" cx="342.313" cy="136.629" r="12.17" style="fill:#ccdbff;fill-opacity:1;stroke:#000;stroke-width:1;stroke-dashoffset:1.02"/><path id="text62" d="M342.706 130.7h.387v9.335q0 1.15.026 1.45.035.299.255.457.22.158.782.158h.343v.404h-3.955v-.404h.29q.633 0 .817-.176.194-.184.22-.43.035-.255.035-1.46v-6.257q0-1.187-.026-1.433-.026-.255-.229-.44-.193-.193-.817-.193h-.378v-.404q1.52-.026 2.25-.606z" aria-label="1" style="font-size:18px;font-family:Baskerville;-inkscape-font-specification:Baskerville;text-align:center;text-anchor:middle;stroke-dashoffset:1.02"/></g><g id="g61" style="display:inline" transform="translate(-37.107 60.623) scale(.80645)"><circle id="circle61" cx="342.313" cy="136.629" r="12.17" style="fill:#cce7ff;fill-opacity:1;stroke:#000;stroke-width:1;stroke-dashoffset:1.02"/><path id="text61" d="M338.91 142.504v-.545q1.001-.782 2.53-2.47 1.539-1.696 2.215-2.926.677-1.23.677-2.487 0-1.503-.685-2.206-.686-.712-1.706-.712-1.001 0-1.555.65-.545.65-.545 1.389 0 .843.712 1.336.263.184.263.28 0 .16-.298.432-.3.272-.493.272-.263 0-.641-.527-.37-.536-.37-1.371 0-1.345 1.047-2.127 1.046-.791 2.294-.791 1.318 0 2.373.817 1.063.817 1.063 2.426 0 1.01-.475 1.925-.474.905-2.311 2.777-1.828 1.863-2.944 2.804h5.59l-.502 1.968h-.413q0-.158.053-.316.026-.088.026-.237 0-.264-.114-.317-.114-.044-.615-.044z" aria-label="2" style="font-size:18px;font-family:Baskerville;-inkscape-font-specification:Baskerville;text-align:center;text-anchor:middle;stroke-dashoffset:1.02"/></g><g id="g60" style="display:inline" transform="translate(-55.828 90.89) scale(.80645)"><circle id="circle60" cx="342.313" cy="136.629" r="12.17" style="fill:#ccf3ff;fill-opacity:1;stroke:#000;stroke-width:1;stroke-dashoffset:1.02"/><path id="text60" d="M342.355 136.106q.272-.08.544-.08 1.292 0 2.03.888.748.88.748 2.215 0 1.609-1.099 2.637-1.098 1.028-2.83 1.028-1.16 0-1.995-.527-.835-.527-.835-1.134 0-.255.158-.43.158-.185.413-.185.457 0 .65.624.247.8.704 1.028.448.238.888.238 1.107 0 1.793-.809.694-.809.694-2.505 0-1.362-.519-2.03-.51-.668-1.213-.668-.606 0-1.336.738-.123.132-.254.132-.264 0-.264-.281 0-.123.132-.255.14-.14.773-.571 1.389-.94 1.837-1.565.448-.624.448-1.573 0-.905-.465-1.398-.466-.5-1.24-.5-.79 0-1.406.51-.606.5-.606 1.282 0 .624.536 1.17.061.06.061.105 0 .114-.29.246t-.422.132q-.272 0-.51-.413-.237-.413-.237-.897 0-.975.844-1.766t2.259-.791q1.45 0 2.188.668.747.659.747 1.476 0 .72-.51 1.345-.5.615-1.705 1.424z" aria-label="3" style="font-size:18px;font-family:Baskerville;-inkscape-font-specification:Baskerville;text-align:center;text-anchor:middle;stroke-dashoffset:1.02"/></g><g id="g59" style="display:inline" transform="translate(-84.13 112.322) scale(.80645)"><circle id="circle59" cx="342.313" cy="136.629" r="12.17" style="fill:#cff;fill-opacity:1;stroke:#000;stroke-width:1;stroke-dashoffset:1.02"/><path id="text59" d="M342.115 138.54h-4.324v-.527l5.018-7.312h.563v7.312h.809q.747 0 .887-.088t.387-.747h.387l-.202 1.362h-2.268v1.495q0 1.274.044 1.546.053.264.29.396.237.123.879.123v.404h-3.841v-.404h.308q.527 0 .747-.14.228-.15.272-.414.044-.263.044-1.511zm0-.527v-5.581l-3.832 5.581z" aria-label="4" style="font-size:18px;font-family:Baskerville;-inkscape-font-specification:Baskerville;text-align:center;text-anchor:middle;stroke-dashoffset:1.02"/></g><g id="g58" style="display:inline" transform="translate(-118.427 122.136) scale(.80645)"><circle id="circle58" cx="342.313" cy="136.629" r="12.17" style="fill:#ccfff3;fill-opacity:1;stroke:#000;stroke-width:1;stroke-dashoffset:1.02"/><path id="text58" d="M340.183 136.457h-.457l.264-5.466h4.562q-.378.887-.554 1.028-.167.14-.589.14h-3.085l-.14 3.64q.887-1.135 2.18-1.135 1.37 0 2.337 1.1.976 1.098.976 2.724 0 1.872-1.099 3.093-1.09 1.213-3.059 1.213-1.37 0-2.135-.632-.765-.642-.765-1.16 0-.23.15-.396.158-.167.421-.167.29 0 .44.176.15.167.351.703.396 1.09 1.574 1.09 1.125 0 1.89-.906.773-.905.773-2.944 0-1.837-.633-2.61-.633-.774-1.494-.774-1.213 0-1.908 1.283z" aria-label="5" style="font-size:18px;font-family:Baskerville;-inkscape-font-specification:Baskerville;text-align:center;text-anchor:middle;stroke-dashoffset:1.02"/></g><g id="g57" style="display:inline" transform="translate(-153.845 118.775) scale(.80645)"><circle id="circle57" cx="342.313" cy="136.629" r="12.17" style="fill:#ccffe8;fill-opacity:1;stroke:#000;stroke-width:1;stroke-dashoffset:1.02"/><path id="text57" d="M340.201 136.545q.545-.65 1.143-.975.606-.325 1.265-.325 1.424 0 2.461 1.072t1.037 2.69q0 1.52-1.002 2.654-1.002 1.133-2.557 1.133-1.319 0-2.224-.835-.905-.835-1.274-2.083-.36-1.256-.36-2.61 0-2.795 1.221-4.676 1.23-1.89 3.287-1.89.967 0 1.705.422.738.414.738.94 0 .493-.5.493-.431 0-.686-.483-.264-.501-.571-.721-.308-.211-.923-.211-1.389 0-2.083 1.23-.695 1.231-.695 3.7 0 .22.018.475zm-.053 2.338q0 .853.238 1.696.246.835.808 1.319.563.483 1.257.483 1.099 0 1.644-.879.545-.879.545-2.628 0-1.107-.211-1.722-.203-.624-.756-1.037-.545-.413-1.222-.413-.914 0-1.608.694-.695.685-.695 2.487z" aria-label="6" style="font-size:18px;font-family:Baskerville;-inkscape-font-specification:Baskerville;text-align:center;text-anchor:middle;stroke-dashoffset:1.02"/></g><g id="g56" style="display:inline" transform="translate(-185.662 102.924) scale(.80645)"><circle id="circle56" cx="342.313" cy="136.629" r="12.17" style="fill:#ccffdc;fill-opacity:1;stroke:#000;stroke-width:1;stroke-dashoffset:1.02"/><path id="text56" d="m339.173 133.118.738-2.417h.308q.017.175.14.237.132.053.695.053h4.552l-3.155 9.615q-.519 1.582-.791 1.89-.264.298-.545.298-.527 0-.527-.545 0-.325.492-1.38.132-.272.22-.492l3.542-8.226h-3.753q-.756 0-.906.035-.149.026-.28.193-.133.158-.335.739z" aria-label="7" style="font-size:18px;font-family:Baskerville;-inkscape-font-specification:Baskerville;text-align:center;text-anchor:middle;stroke-dashoffset:1.02"/></g><g id="g55" style="display:inline" transform="translate(-209.622 76.789) scale(.80645)"><circle id="circle55" cx="342.313" cy="136.629" r="12.17" style="fill:#ccffd0;fill-opacity:1;stroke:#000;stroke-width:1;stroke-dashoffset:1.02"/><path id="text55" d="M343.075 136.51q1.16.097 2.048.932.888.826.888 2.136 0 1.511-1.081 2.364-1.082.852-2.628.852-1.582 0-2.637-.905-1.055-.914-1.055-2.276 0-1.178.756-2.013t2.092-1.09q-1.081-.272-1.776-1.055-.685-.782-.685-1.836 0-1.292.94-2.101.94-.817 2.365-.817 1.318 0 2.329.8 1.02.79 1.02 2.118 0 1.054-.651 1.819-.642.765-1.925 1.072zm-2.698-3.067q0 1.432.457 2.153.466.712 1.388.712 1.011 0 1.512-.677.501-.685.501-2.039 0-1.23-.527-1.872-.519-.641-1.442-.641-.817 0-1.353.588-.536.58-.536 1.776zm-.308 6.055q0 .994.185 1.574.184.571.703.949.527.378 1.3.378.985 0 1.635-.563.65-.562.65-2.232 0-1.679-.65-2.276-.65-.598-1.67-.598-1.08 0-1.617.747-.536.738-.536 2.021z" aria-label="8" style="font-size:18px;font-family:Baskerville;-inkscape-font-specification:Baskerville;text-align:center;text-anchor:middle;stroke-dashoffset:1.02"/></g><g id="g52" style="display:inline" transform="translate(-222.142 7.919) scale(.80645)"><circle id="circle52" cx="342.313" cy="136.629" r="12.17" style="fill:#e0ffcc;fill-opacity:1;stroke:#000;stroke-width:1;stroke-dashoffset:1.02"/><path id="text52" d="M338.144 130.7h.387v9.335q0 1.15.027 1.45.035.299.254.457.22.158.783.158h.342v.404h-3.955v-.404h.29q.633 0 .818-.176.193-.184.22-.43.035-.255.035-1.46v-6.257q0-1.187-.027-1.433-.026-.255-.228-.44-.194-.193-.818-.193h-.378v-.404q1.52-.026 2.25-.606zm4.931 6.047q0-2.75 1.037-4.394 1.046-1.652 2.734-1.652 1.687 0 2.724 1.66 1.046 1.653 1.046 4.386 0 2.716-1.037 4.386-1.037 1.661-2.733 1.661-1.688 0-2.734-1.652-1.037-1.661-1.037-4.395zm1.459 0q0 3.648.606 4.641.616.984 1.706.984 1.283 0 1.793-1.177.51-1.187.51-4.448 0-3.656-.616-4.64-.606-.985-1.687-.985t-1.697.985q-.615.975-.615 4.64z" aria-label="10" style="font-size:18px;font-family:Baskerville;-inkscape-font-specification:Baskerville;text-align:center;text-anchor:middle;stroke-dashoffset:1.02"/></g><g id="g50" style="display:inline" transform="translate(-209.63 -25.244) scale(.80645)"><circle id="circle50" cx="342.313" cy="136.629" r="12.17" style="fill:#ebffcc;fill-opacity:1;stroke:#000;stroke-width:1;stroke-dashoffset:1.02"/><path id="text50" d="M338.144 130.7h.387v9.335q0 1.15.027 1.45.035.299.254.457.22.158.783.158h.342v.404h-3.955v-.404h.29q.633 0 .818-.176.193-.184.22-.43.035-.255.035-1.46v-6.257q0-1.187-.027-1.433-.026-.255-.228-.44-.194-.193-.818-.193h-.378v-.404q1.52-.026 2.25-.606zm9 0h.387v9.335q0 1.15.027 1.45.035.299.254.457.22.158.783.158h.342v.404h-3.955v-.404h.29q.633 0 .818-.176.193-.184.22-.43.035-.255.035-1.46v-6.257q0-1.187-.027-1.433-.026-.255-.228-.44-.194-.193-.818-.193h-.378v-.404q1.52-.026 2.25-.606z" aria-label="11" style="font-size:18px;font-family:Baskerville;-inkscape-font-specification:Baskerville;text-align:center;text-anchor:middle;stroke-dashoffset:1.02"/></g><g id="g48" style="display:inline" transform="translate(-185.673 -51.528) scale(.80645)"><circle id="circle48" cx="342.313" cy="136.629" r="12.17" style="fill:#f7ffcc;fill-opacity:1;stroke:#000;stroke-width:1;stroke-dashoffset:1.02"/><path id="text48" d="M337.353 130.525h.386v9.334q0 1.151.027 1.45.035.299.255.457.22.158.782.158h.343v.404h-3.956v-.404h.29q.633 0 .818-.176.193-.184.22-.43.035-.255.035-1.46v-6.257q0-1.187-.027-1.433-.026-.255-.228-.44-.194-.193-.818-.193h-.378v-.404q1.521-.026 2.25-.606zm5.203 11.803v-.545q1.002-.782 2.53-2.47 1.539-1.696 2.216-2.926.676-1.23.676-2.487 0-1.503-.685-2.206-.686-.712-1.705-.712-1.002 0-1.556.65-.545.65-.545 1.389 0 .843.712 1.336.264.184.264.28 0 .16-.299.432t-.492.272q-.264 0-.642-.527-.369-.536-.369-1.371 0-1.345 1.046-2.127 1.046-.791 2.294-.791 1.318 0 2.373.817 1.063.817 1.063 2.426 0 1.01-.474 1.925-.475.905-2.312 2.777-1.828 1.863-2.944 2.804h5.59l-.501 1.968h-.413q0-.158.052-.316.027-.088.027-.237 0-.264-.114-.317-.115-.044-.616-.044z" aria-label="12" style="font-size:18px;font-family:Baskerville;-inkscape-font-specification:Baskerville;text-align:center;text-anchor:middle;stroke-dashoffset:1.02"/></g><g id="g47" style="display:inline" transform="translate(-153.839 -67.383) scale(.80645)"><circle id="circle47" cx="342.313" cy="136.629" r="12.17" style="fill:#fffbcc;fill-opacity:1;stroke:#000;stroke-width:1;stroke-dashoffset:1.02"/><path id="text47" d="M337.353 130.525h.386v9.334q0 1.151.027 1.45.035.299.255.457.22.158.782.158h.343v.404h-3.956v-.404h.29q.633 0 .818-.176.193-.184.22-.43.035-.255.035-1.46v-6.257q0-1.187-.027-1.433-.026-.255-.228-.44-.194-.193-.818-.193h-.378v-.404q1.521-.026 2.25-.606zM346 135.93q.272-.08.545-.08 1.292 0 2.03.888.747.88.747 2.215 0 1.609-1.098 2.637-1.1 1.028-2.83 1.028-1.16 0-1.996-.527-.835-.527-.835-1.134 0-.255.159-.43.158-.185.413-.185.457 0 .65.624.246.8.703 1.028.448.238.888.238 1.107 0 1.793-.809.694-.809.694-2.505 0-1.362-.518-2.03-.51-.668-1.213-.668-.607 0-1.336.738-.123.132-.255.132-.264 0-.264-.281 0-.123.132-.255.14-.14.774-.571 1.388-.94 1.836-1.565.449-.624.449-1.573 0-.905-.466-1.398-.466-.5-1.24-.5-.79 0-1.406.51-.606.5-.606 1.282 0 .624.536 1.17.062.06.062.105 0 .114-.29.246t-.422.132q-.273 0-.51-.413t-.237-.897q0-.975.843-1.766.844-.791 2.26-.791 1.45 0 2.188.668.747.659.747 1.476 0 .72-.51 1.345-.501.615-1.705 1.424z" aria-label="13" style="font-size:18px;font-family:Baskerville;-inkscape-font-specification:Baskerville;text-align:center;text-anchor:middle;stroke-dashoffset:1.02"/></g><g id="g46" style="display:inline" transform="translate(-118.414 -70.729) scale(.80645)"><circle id="circle46" cx="342.313" cy="136.629" r="12.17" style="fill:#fff0cc;fill-opacity:1;stroke:#000;stroke-width:1;stroke-dashoffset:1.02"/><path id="text46" d="M337.353 130.525h.386v9.334q0 1.151.027 1.45.035.299.255.457.22.158.782.158h.343v.404h-3.956v-.404h.29q.633 0 .818-.176.193-.184.22-.43.035-.255.035-1.46v-6.257q0-1.187-.027-1.433-.026-.255-.228-.44-.194-.193-.818-.193h-.378v-.404q1.521-.026 2.25-.606zm9.087 7.84h-4.324v-.528l5.019-7.312h.562v7.312h.809q.747 0 .888-.088.14-.088.386-.747h.387l-.202 1.362h-2.268v1.495q0 1.274.044 1.546.053.264.29.396.237.123.88.123v.404h-3.842v-.404h.308q.527 0 .747-.14.228-.15.272-.414.044-.263.044-1.511zm0-.528v-5.58l-3.832 5.58z" aria-label="14" style="font-size:18px;font-family:Baskerville;-inkscape-font-specification:Baskerville;text-align:center;text-anchor:middle;stroke-dashoffset:1.02"/></g><g id="g44" style="display:inline" transform="translate(-55.837 -39.511) scale(.80645)"><circle id="circle43" cx="342.313" cy="136.629" r="12.17" style="fill:#ffd8cc;fill-opacity:1;stroke:#000;stroke-width:1;stroke-dashoffset:1.02"/><path id="text44" d="M337.353 130.525h.386v9.334q0 1.151.027 1.45.035.299.255.457.22.158.782.158h.343v.404h-3.956v-.404h.29q.633 0 .818-.176.193-.184.22-.43.035-.255.035-1.46v-6.257q0-1.187-.027-1.433-.026-.255-.228-.44-.194-.193-.818-.193h-.378v-.404q1.521-.026 2.25-.606zm6.556 5.844q.545-.65 1.143-.975.606-.325 1.265-.325 1.424 0 2.461 1.072t1.037 2.69q0 1.52-1.002 2.654-1.002 1.133-2.557 1.133-1.319 0-2.224-.835-.905-.835-1.274-2.083-.36-1.256-.36-2.61 0-2.795 1.221-4.676 1.23-1.89 3.287-1.89.967 0 1.705.422.739.414.739.94 0 .493-.501.493-.431 0-.686-.483-.264-.501-.571-.721-.308-.21-.923-.21-1.389 0-2.083 1.23-.694 1.23-.694 3.7 0 .22.017.474zm-.053 2.338q0 .853.238 1.697.246.834.808 1.318.563.483 1.257.483 1.099 0 1.644-.879.545-.879.545-2.628 0-1.107-.211-1.722-.202-.624-.756-1.037-.545-.413-1.222-.413-.914 0-1.608.694-.695.685-.695 2.487z" aria-label="16" style="font-size:18px;font-family:Baskerville;-inkscape-font-specification:Baskerville;text-align:center;text-anchor:middle;stroke-dashoffset:1.02"/></g><g id="g43" style="display:inline" transform="translate(-37.112 -9.282) scale(.80645)"><circle id="path42" cx="342.313" cy="136.629" r="12.17" style="fill:#fcc;fill-opacity:1;stroke:#000;stroke-width:1;stroke-dashoffset:1.02"/><path id="text43" d="M337.528 131.053h.387v9.333q0 1.152.027 1.45.035.3.254.458.22.158.783.158h.342v.404h-3.955v-.404h.29q.633 0 .818-.176.193-.184.22-.43.035-.255.035-1.46v-6.257q0-1.187-.027-1.433-.026-.255-.228-.44-.194-.193-.818-.193h-.377v-.404q1.52-.026 2.25-.606zm5.529 2.417.738-2.417h.308q.017.175.14.237.132.053.695.053h4.552l-3.155 9.615q-.518 1.582-.79 1.89-.265.298-.546.298-.527 0-.527-.545 0-.325.492-1.38.132-.272.22-.492l3.542-8.226h-3.753q-.756 0-.905.035-.15.026-.282.193-.132.158-.334.739z" aria-label="17" style="font-size:18px;font-family:Baskerville;-inkscape-font-specification:Baskerville;text-align:center;text-anchor:middle;stroke-dashoffset:1.02"/></g><g id="g45" style="display:inline" transform="translate(-84.208 -61.263) scale(.80645)"><circle id="circle45" cx="342.313" cy="136.629" r="12.17" style="fill:#ffe4cc;fill-opacity:1;stroke:#000;stroke-width:1;stroke-dashoffset:1.02"/><path id="text45" d="M337.353 130.525h.386v9.334q0 1.151.027 1.45.035.299.255.457.22.158.782.158h.343v.404h-3.956v-.404h.29q.633 0 .818-.176.193-.184.22-.43.035-.255.035-1.46v-6.257q0-1.187-.027-1.433-.026-.255-.228-.44-.194-.193-.818-.193h-.378v-.404q1.521-.026 2.25-.606zm6.539 5.756h-.457l.263-5.466h4.562q-.378.887-.554 1.028-.167.14-.589.14h-3.085l-.14 3.64q.887-1.135 2.18-1.135 1.37 0 2.337 1.1.976 1.098.976 2.724 0 1.872-1.099 3.093-1.09 1.213-3.058 1.213-1.372 0-2.136-.632-.765-.642-.765-1.16 0-.23.15-.396.158-.167.421-.167.29 0 .44.176.15.167.351.703.396 1.09 1.574 1.09 1.125 0 1.89-.906.773-.905.773-2.944 0-1.837-.633-2.61-.633-.774-1.494-.774-1.213 0-1.907 1.283z" aria-label="15" style="font-size:18px;font-family:Baskerville;-inkscape-font-specification:Baskerville;text-align:center;text-anchor:middle;stroke-dashoffset:1.02"/></g></g><g id="layer6" style="display:inline"><circle id="circle12" cx="18.824" cy="-200.56" r="1.559" style="display:inline;fill:#87de87;fill-opacity:1;stroke:none;stroke-width:.806451;stroke-miterlimit:2;stroke-dasharray:none;stroke-dashoffset:0;stroke-opacity:1" transform="rotate(127.056)"/></g><g id="layer7" style="display:inline"><path id="path70" d="m254.42 232.24 8.15-16.043-5.782.536-7.527-81.204-7.548.7 7.527 81.204-5.782.536z" class="fat-vector-arrows" style="opacity:.7;fill:#ac9393;stroke:none;stroke-width:.806451"/></g><g id="layer15" style="display:inline"><path id="path71" d="m245.487 135.879 8.932 96.36" style="display:inline;fill:none;stroke:#000;stroke-width:1.45161;stroke-miterlimit:2;stroke-dasharray:1.45161,1.45161;stroke-dashoffset:0"/></g><g id="layer9" style="display:inline"><g id="g123" style="display:inline" transform="translate(-37.112 -9.282) scale(.80645)"><path id="path102" d="m241.499 299.488 10.107-19.893-7.17.665-9.334-100.694-9.36.868 9.334 100.693-7.169.665z" class="fat-vector-arrows" style="opacity:.7;fill:#ac9393;stroke:none"/><path id="path103" d="M230.422 180 241.5 299.488" style="fill:none;stroke:#000;stroke-width:1.8;stroke-miterlimit:2;stroke-dasharray:1.8,1.8;stroke-dashoffset:0"/></g></g><g id="layer18"><g id="g192" style="stroke-width:1.43458" transform="matrix(.05227 .56247 -.557 .0521 385.318 58.776)"><path id="rect192" d="M146.805 224.778h86.52v26.771h-86.52z" style="opacity:1;fill:#ffe680;fill-opacity:1;stroke:#000;stroke-width:1.79322;stroke-dasharray:none;stroke-dashoffset:0"/><path id="text189" d="M164.617 234.053c1.272.723-1.45 1.22-1.25 2.572-.934 2.208-1.657 4.532-2.725 6.668-1.322.425-1.346-1.448-1.86-2.254-.867-1.958-1.543-4.023-2.535-5.911-2.045-.585-.102-1.404 1.057-1.075.943.1 2.04-.228 2.862.225-.493.804-1.94 1.035-.89 2.422l1.541 4.133c.637-1.818 1.365-3.611 1.945-5.445-1.112-.432-1.662-1.586.11-1.335h1.745zm10.22 3.88c-.65.83-2.002.282-2.98.44h-3.38c-.277 2.223 1.876 4.37 4.095 3.502.729-.502 2.729-2.062 1.697-.042-2.097 2.874-7.46 1.768-7.983-1.87-.906-3.029 1.241-6.834 4.631-6.69 2.53-.122 4.343 2.24 3.92 4.66zm-6.32-.48c1.313-.12 2.76.285 3.96-.3 1.56-3.505-4.186-3.795-3.895-.23zm11.24 4.28c.608.493 2.141 1.545.231 1.46-1.206-.053-2.439.112-3.626-.095.004-.925 1.934-1.061 1.235-2.645.042-2.973.01-5.947.02-8.92-1.08-.543-2.097-1.504-.114-1.749.718.01 2.145-1.063 2.294.049-.108 3.965-.057 7.934-.04 11.9zm7.1-8.02c3.626-.158 5.727 4.288 4.123 7.286-1.485 3.515-7.316 3.235-8.443-.426-1.18-3.058.771-6.972 4.32-6.86zm0 .9c-2.937.494-2.526 4.547-1.86 6.707 2.193 3.442 5.154-1.077 4.125-3.645-.073-1.318-.615-3.127-2.265-3.062zm13.52 6.44c1.937-.456-1.146 3.096-2.59 2.431-3.189.45-5.428-2.942-4.705-5.841.328-3.347 4.855-5.233 7.335-2.905 2.387 1.913-1.69 3.638-1.523.595-1.154-2.015-3.846.643-3.602 2.41-.418 2.016.833 4.734 3.217 4.373.742-.064 1.425-.472 1.868-1.063zm5.58.7c.866.51 1.851 1.637.029 1.44-1.134-.104-2.415.23-3.437-.214.684-.73 1.683-1.362 1.288-2.792-.076-1.425.175-2.914-.18-4.294-1.875-.17-.927-1.455.46-1.604.82-.397 2.272-.956 1.885.573-.08 2.296-.031 4.594-.045 6.89zm-1.08-9.88c-3.706-.495.85-4.978 1.44-1.38.043.774-.684 1.42-1.44 1.38zm8.38 10c2.118.185-1.575 2.41-2.605 1.385-1.967-.67-1.22-3.009-1.355-4.591-.079-1.114.162-2.302-.125-3.37-1.743.083-1.265-1.355.2-1.354.569-.838.03-2.735 1.493-2.57 1.22.137.215 1.803.697 2.555.723.35 2.753-.357 2.13 1.12-.757.398-2.544-.42-2.275 1.052.04 1.755-.082 3.521.07 5.268.15.81 1.205.93 1.77.505zm10.2-7.82c1.268.733-1.477 1.22-1.24 2.603-1.235 3.144-2.14 6.438-3.7 9.437-.455 2.612-6.133 1.503-3.455-.515 1.385-.032 2.636 1.432 3.2-.785.926-.99-.126-2.044-.404-3.07-.942-2.176-1.699-4.455-2.76-6.565-1.914-.464-.364-1.484.883-1.105.983.103 2.123-.234 2.985.225-.499.795-1.906 1.05-.874 2.423l1.605 4.352c.632-1.891 1.344-3.76 1.925-5.665-.954-.346-1.926-1.52-.093-1.335h1.928z" aria-label="velocity" style="font-size:20px;font-family:&quot;Song Myung&quot;;-inkscape-font-specification:&quot;Song Myung&quot;;text-align:center;text-anchor:middle;stroke-width:1.43458"/></g><path id="path190" d="M407.906 179.47c1.026.583-1.169.983-1.008 2.074-.753 1.781-1.337 3.655-2.198 5.377-1.066.343-1.086-1.167-1.5-1.817-.7-1.579-1.245-3.245-2.044-4.767-1.65-.472-.082-1.132.852-.867.76.08 1.645-.184 2.308.181-.398.649-1.564.835-.718 1.954l1.244 3.333c.513-1.467 1.1-2.912 1.568-4.392-.897-.348-1.34-1.279.088-1.076h1.408zm8.242 3.129c-.525.669-1.615.227-2.404.355h-2.725c-.224 1.793 1.512 3.524 3.302 2.824.588-.405 2.2-1.663 1.368-.034-1.69 2.318-6.015 1.426-6.437-1.508-.73-2.442 1-5.511 3.735-5.395 2.04-.098 3.502 1.806 3.161 3.758zm-5.097-.387c1.059-.097 2.225.23 3.194-.242 1.257-2.827-3.376-3.06-3.141-.186zm9.065 3.451c.49.398 1.726 1.246.186 1.178-.973-.043-1.967.09-2.924-.077.003-.746 1.56-.856.996-2.133.034-2.397.008-4.796.016-7.193-.872-.439-1.692-1.213-.093-1.41.58.007 1.73-.858 1.85.039-.086 3.197-.045 6.398-.031 9.596zm5.726-6.467c2.924-.127 4.617 3.458 3.324 5.876-1.198 2.835-5.9 2.608-6.808-.344-.952-2.466.621-5.623 3.484-5.532zm0 .725c-2.37.399-2.038 3.668-1.5 5.41 1.767 2.775 4.155-.87 3.325-2.94-.058-1.063-.495-2.522-1.825-2.47zm10.903 5.194c1.561-.368-.925 2.497-2.09 1.961-2.57.362-4.377-2.373-3.793-4.711.264-2.699 3.915-4.22 5.915-2.343 1.925 1.543-1.364 2.935-1.228.48-.931-1.625-3.103.519-2.905 1.944-.338 1.625.671 3.818 2.594 3.526a2.142 2.142 0 0 0 1.507-.857zm4.5.565c.698.41 1.492 1.32.022 1.16-.913-.083-1.947.187-2.771-.172.551-.588 1.357-1.098 1.04-2.251-.063-1.15.14-2.35-.146-3.463-1.513-.137-.748-1.173.37-1.294.662-.32 1.833-.77 1.521.463-.065 1.851-.026 3.704-.036 5.557zm-.871-7.968c-2.99-.4.685-4.015 1.161-1.113.034.624-.552 1.145-1.161 1.113zm6.758 8.064c1.708.15-1.27 1.944-2.101 1.117-1.587-.54-.984-2.426-1.093-3.702-.064-.899.13-1.857-.1-2.717-1.406.066-1.02-1.093.16-1.093.46-.675.024-2.205 1.204-2.072.984.11.174 1.453.563 2.06.583.283 2.22-.288 1.718.903-.611.321-2.052-.339-1.835.849.031 1.415-.067 2.84.056 4.248.12.653.972.75 1.428.407zm8.226-6.306c1.022.591-1.192.984-1 2.1-.997 2.535-1.727 5.191-2.984 7.61-.368 2.106-4.947 1.211-2.787-.416 1.117-.025 2.126 1.155 2.581-.633.746-.799-.101-1.648-.326-2.476-.76-1.754-1.37-3.593-2.226-5.294-1.543-.374-.293-1.197.712-.891.793.083 1.712-.189 2.408.181-.403.641-1.537.848-.706 1.955l1.295 3.509c.51-1.525 1.084-3.033 1.553-4.569-.77-.278-1.554-1.226-.075-1.076h1.555z" aria-label="velocity" style="font-size:20px;font-family:&quot;Song Myung&quot;;-inkscape-font-specification:&quot;Song Myung&quot;;text-align:center;text-anchor:middle;stroke-width:.806451"/><path id="path191" d="M574.955 176.773c.01 2.198 1.84-1.09 3.262.008 2.548.894 2.814 4.542 1.464 6.54-.855 2.06-3.955.83-4.484.724.033.968-.088 1.963.12 2.91 1.419.168 1.256 1.23-.156.931-.889-.084-1.898.186-2.697-.172.533-.648 1.47-1.118 1.079-2.388.005-2.195.037-4.392-.024-6.585-.65-.425-1.718-1.055-.275-1.424.566-.17 1.12-.56 1.71-.544zm.29 1.63v4.5c2.154 1.997 4.077-1.208 3.32-3.233-.111-1.906-1.962-2.51-3.32-1.268zm10.162-1.71c2.924-.127 4.617 3.458 3.324 5.876-1.198 2.835-5.9 2.608-6.808-.344-.952-2.466.621-5.623 3.484-5.532zm0 .725c-2.37.399-2.038 3.668-1.5 5.41 1.768 2.775 4.155-.87 3.325-2.94-.058-1.063-.495-2.522-1.825-2.47zm8.129 2.307c1.618.305 3.332 1.888 2.29 3.597-1.171 1.603-3.751 1.588-5.282.544-.385-.775.1-2.504.992-1.335-.209 1.885 3.582 1.709 2.951-.221-1.046-1.3-3.581-1.015-3.937-2.99-.4-2.03 2.052-2.969 3.681-2.555 1.27-.19 2.04 1.592 1.014 2.17-1.013-.133-.793-2.23-2.427-1.432-1.575.553-.457 2.119.718 2.222zm6.516 3.451c.712.414 1.483 1.326.01 1.162-.908-.09-1.942.195-2.759-.173.57-.586 1.354-1.12 1.04-2.28-.065-1.139.143-2.332-.146-3.434-1.534-.141-.723-1.183.395-1.303.747-.422 1.836-.64 1.493.6-.06 1.808-.022 3.619-.033 5.428zm-.871-7.967c-2.556-.132-.166-3.782 1.076-1.565.334.735-.266 1.624-1.076 1.565zm6.758 8.064c1.733.375-1.62 1.988-2.429.981-1.247-.864-.62-2.545-.765-3.83-.06-.811.126-1.68-.1-2.453-1.407.066-1.02-1.091.16-1.093.46-.677.022-2.214 1.212-2.073.973.122.166 1.453.555 2.061.583.282 2.22-.29 1.718.903-.614.319-2.058-.339-1.835.856.03 1.413-.066 2.835.056 4.241.12.653.972.75 1.428.407zm4.097-.097c.712.414 1.483 1.326.01 1.162-.908-.09-1.942.195-2.76-.173.57-.586 1.355-1.12 1.04-2.28-.064-1.139.144-2.332-.145-3.434-1.534-.141-.723-1.183.395-1.303.746-.422 1.836-.64 1.493.6-.06 1.808-.022 3.619-.033 5.428zm-.871-7.967c-2.556-.132-.166-3.782 1.076-1.565.334.735-.266 1.624-1.076 1.565zm6.548 1.484c2.924-.127 4.618 3.458 3.325 5.876-1.198 2.835-5.9 2.608-6.809-.344-.952-2.466.622-5.623 3.484-5.532zm0 .725c-2.369.399-2.037 3.668-1.5 5.41 1.768 2.775 4.156-.87 3.326-2.94-.059-1.063-.496-2.522-1.826-2.47zm12.452 5.758c.712.414 1.483 1.326.01 1.162-.908-.09-1.942.195-2.76-.173.549-.594 1.341-1.122 1.024-2.28-.1-1.255.275-2.65-.379-3.78-1.065-.67-3.012.31-2.637 1.672.06 1.22-.124 2.483.1 3.674 1.597.4.411 1.171-.661.887-.716-.126-1.778.295-2.23-.307.916-.403 1.28-1.171 1.081-2.264-.065-1.099.147-2.254-.145-3.316-1.535-.137-.726-1.199.385-1.344.867-.614 1.594-.22 1.41.856.832-1.253 4.494-2.178 4.727.525.145 1.555.045 3.127.075 4.688z" aria-label="position" style="font-size:20px;font-family:&quot;Song Myung&quot;;-inkscape-font-specification:&quot;Song Myung&quot;;text-align:center;text-anchor:middle;stroke-width:.806451"/><g id="g193" style="stroke-width:1.4345" transform="matrix(.05037 .56271 -.55716 .0502 215.665 -69.201)"><path id="rect191" d="M381.922 160.761h88.46v26.771h-88.46z" style="opacity:1;fill:#ffe680;fill-opacity:1;stroke:#000;stroke-width:1.79312;stroke-dasharray:none;stroke-dashoffset:0"/><path id="text190" d="M393.873 169.408c.013 2.726 2.281-1.352 4.045.01 3.16 1.108 3.49 5.632 1.815 8.11-1.06 2.555-4.904 1.029-5.56.897.04 1.2-.109 2.434.15 3.608 1.759.208 1.556 1.526-.195 1.155-1.102-.104-2.353.231-3.344-.214.661-.803 1.824-1.386 1.338-2.96.006-2.722.046-5.446-.029-8.166-.807-.527-2.131-1.308-.342-1.765.703-.21 1.39-.695 2.122-.675zm.36 2.02v5.58c2.671 2.477 5.055-1.497 4.116-4.008-.137-2.364-2.432-3.113-4.116-1.572zm12.6-2.12c3.626-.157 5.726 4.288 4.123 7.286-1.486 3.516-7.316 3.235-8.443-.426-1.18-3.058.771-6.972 4.32-6.86zm0 .9c-2.937.494-2.526 4.548-1.86 6.707 2.192 3.442 5.153-1.077 4.124-3.644-.072-1.319-.614-3.128-2.264-3.063zm10.08 2.86c2.007.378 4.132 2.341 2.84 4.46-1.452 1.988-4.651 1.97-6.55.675-.477-.961.124-3.105 1.23-1.655-.258 2.337 4.442 2.119 3.66-.275-1.297-1.612-4.44-1.258-4.882-3.707-.495-2.516 2.545-3.681 4.565-3.168 1.575-.235 2.528 1.973 1.257 2.69-1.257-.164-.984-2.765-3.01-1.775-1.952.686-.567 2.627.89 2.755zm8.08 4.28c.884.512 1.84 1.644.012 1.44-1.125-.111-2.408.242-3.42-.214.705-.727 1.679-1.389 1.288-2.828-.079-1.412.178-2.891-.18-4.258-1.902-.175-.896-1.466.49-1.615.925-.523 2.276-.793 1.851.743-.075 2.243-.028 4.488-.04 6.732zm-1.08-9.88c-3.17-.164-.205-4.69 1.335-1.94.414.91-.33 2.013-1.335 1.94zm8.38 10c2.149.465-2.008 2.465-3.011 1.216-1.547-1.07-.77-3.156-.949-4.749-.075-1.006.156-2.083-.125-3.042-1.744.082-1.264-1.353.2-1.355.57-.84.027-2.745 1.502-2.57 1.207.151.206 1.801.688 2.555.723.35 2.752-.36 2.13 1.12-.761.395-2.551-.42-2.275 1.062.038 1.751-.081 3.515.07 5.258.149.81 1.205.93 1.77.505zm5.08-.12c.884.512 1.84 1.644.012 1.44-1.125-.111-2.408.242-3.42-.214.705-.727 1.679-1.389 1.288-2.828-.079-1.412.178-2.891-.18-4.258-1.902-.175-.896-1.466.49-1.615.925-.523 2.276-.793 1.851.743-.075 2.243-.028 4.488-.04 6.732zm-1.08-9.88c-3.17-.164-.205-4.69 1.335-1.94.414.91-.33 2.013-1.335 1.94zm8.12 1.84c3.626-.157 5.726 4.288 4.123 7.286-1.486 3.516-7.316 3.235-8.443-.426-1.18-3.058.77-6.972 4.32-6.86zm0 .9c-2.937.494-2.526 4.548-1.86 6.707 2.192 3.442 5.153-1.077 4.124-3.644-.072-1.319-.614-3.128-2.264-3.063zm15.44 7.14c.884.512 1.84 1.644.012 1.44-1.125-.111-2.408.242-3.42-.214.679-.736 1.661-1.391 1.268-2.828-.124-1.555.34-3.285-.47-4.685-1.32-.833-3.735.383-3.27 2.072.074 1.513-.154 3.079.125 4.555 1.98.496.51 1.453-.82 1.1-.889-.156-2.206.366-2.765-.38 1.135-.5 1.586-1.453 1.34-2.807-.08-1.363.183-2.796-.18-4.113-1.903-.169-.9-1.486.478-1.667 1.074-.76 1.975-.27 1.748 1.063 1.031-1.554 5.572-2.7 5.861.65.18 1.929.057 3.878.093 5.814z" aria-label="position" style="font-size:20px;font-family:&quot;Song Myung&quot;;-inkscape-font-specification:&quot;Song Myung&quot;;text-align:center;text-anchor:middle;fill:#000;stroke:none;stroke-width:1.4345"/></g></g><g id="layer16" style="display:inline"><path id="path127" d="M436.751 162.473a68.986 68.986 0 0 1 4.04-.06c1.773.021 3.545.04 5.317.052.622.01 1.242.04 1.863.074l.034-.073a47.978 47.978 0 0 0-1.866-.074c-1.772-.012-3.545-.031-5.317-.052-1.347-.011-2.694-.01-4.04.059z" style="opacity:1;fill:#000;fill-opacity:1;stroke:none;stroke-width:.887096;stroke-dasharray:2.66129,1.77419;stroke-dashoffset:0"/><path id="path128" d="M436.8 166.886c1.064-.079 2.135-.076 3.202-.086 1.792-.01 3.583-.006 5.375-.045.933-.023 1.867-.05 2.8-.046l.031-.074c-.934-.005-1.868.023-2.802.046-1.791.04-3.582.036-5.374.045-1.07.01-2.142.008-3.21.083z" style="opacity:1;fill:#000;fill-opacity:1;stroke:none;stroke-width:.887096;stroke-dasharray:2.66129,1.77419;stroke-dashoffset:0"/><path id="path131" d="M431.036 158.536c-.01 1.295.01 2.59.046 3.884.065 2.308.268 4.609.362 6.916.018.527.007 1.054-.01 1.58l.08-.005c.018-.528.027-1.056.01-1.585-.096-2.306-.298-4.606-.363-6.914a106.035 106.035 0 0 1-.044-3.883z" style="opacity:1;fill:#000;fill-opacity:1;stroke:none;stroke-width:.887096;stroke-dasharray:2.66129,1.77419;stroke-dashoffset:0"/><path id="path132" d="M431.362 157.938c1.074-.027 2.148-.073 3.221-.112 2.417-.118 4.836-.163 7.255-.193 1.672.002 3.344-.068 5.016-.064.727.002 1.412.02 2.138.036 1.494.028 2.986.076 4.478.15.526.065 1.07-.001 1.593.08.103.1.023.324.01.443-.036.35-.035.408-.058.794-.14 1.73-.428 3.445-.636 5.169a174.348 174.348 0 0 0-.531 5.876c-.1 1.05-.065 2.108-.148 3.158l.08-.002c.081-1.05.048-2.109.147-3.159.137-1.961.328-3.918.531-5.873.21-1.724.498-3.44.637-5.172.024-.39.022-.438.059-.79.017-.167.101-.39-.052-.514-.156-.028-.312-.026-.47-.033-.376-.015-.752-.032-1.129-.05a147.249 147.249 0 0 0-4.48-.15c-.718-.016-1.421-.035-2.14-.037-1.672-.004-3.343.067-5.015.064-2.42.03-4.839.074-7.256.193-1.073.038-2.146.084-3.22.111z" style="opacity:1;fill:#000;fill-opacity:1;stroke:none;stroke-width:.887096;stroke-dasharray:2.66129,1.77419;stroke-dashoffset:0"/><path id="path133" d="M432.247 170.66c1.158.06 2.317.08 3.476.134 1.954.082 3.908.193 5.865.23 1.814-.005 3.624-.148 5.435-.24 1.69-.078 3.38-.154 5.071-.201l.601-.014.03-.075-.602.014c-1.691.047-3.382.124-5.072.2-1.81.093-3.619.236-5.432.244-1.956-.037-3.91-.148-5.863-.231-1.16-.055-2.32-.074-3.478-.136z" style="opacity:1;fill:#000;fill-opacity:1;stroke:none;stroke-width:.887096;stroke-dasharray:2.66129,1.77419;stroke-dashoffset:0"/><path id="path134" d="M396.653 151.3c1.335.027 2.665-.102 3.994-.21 2.708-.204 5.401-.562 8.098-.875 3.578-.408 7.155-.822 10.74-1.16 4.193-.368 8.395-.63 12.601-.773 3.558-.07 7.125-.015 10.673.27.703.056 1.404.133 2.106.2 3.413.352 6.804.944 10.118 1.835.644.173 1.28.37 1.92.555 2.39.743 4.741 1.634 6.962 2.795 1.182.618 1.601.908 2.705 1.598 1.214.808 2.4 1.712 3.277 2.894.441.596.49.78.798 1.433.306.873.416 1.791.128 2.685-.161.501-.259.582-.546 1.008-.119.134-.228.278-.358.401-.853.81-2.056 1.079-3.162 1.335-2.279.43-4.601.474-6.912.427a28.79 28.79 0 0 1-4.539-.476l-.308-.06-.04.068.308.061c1.502.275 3.02.446 4.548.48 2.314.048 4.641.005 6.924-.422 1.14-.268 2.378-.54 3.254-1.38.131-.125.24-.272.361-.408.289-.434.388-.518.55-1.028.288-.906.176-1.837-.134-2.721-.31-.658-.36-.845-.805-1.445-.88-1.188-2.069-2.097-3.289-2.907-1.104-.692-1.526-.984-2.71-1.603-2.222-1.163-4.576-2.055-6.968-2.8-.64-.185-1.278-.383-1.922-.556-3.317-.892-6.71-1.486-10.126-1.84-.702-.066-1.404-.143-2.107-.2-3.55-.286-7.118-.34-10.678-.272-4.207.143-8.41.404-12.604.771-3.585.338-7.163.752-10.741 1.16-2.696.313-5.388.671-8.096.874-1.327.109-2.656.24-3.99.212z" style="opacity:1;fill:#000;fill-opacity:1;stroke:none;stroke-width:.887096;stroke-dasharray:2.66129,1.77419;stroke-dashoffset:0"/><path id="path135" d="M459.932 163.27c-.068.044-.133.094-.205.133-.253.137-.61.28-.866.383-.68.272-1.37.515-2.056.767-.573.212-1.155.407-1.711.66-.17.078-.418.194-.563.331-.043.041-.069.098-.103.147-.002.049-.015.098-.005.145.06.275.68.452.879.531l.527.208a116.74 116.74 0 0 0 4.62 1.697l.632.231.048-.064-.633-.231c-1.55-.54-3.094-1.092-4.619-1.696-.307-.122-.619-.234-.922-.365-.124-.053-.406-.15-.451-.316-.01-.036 0-.074 0-.112.18-.25.364-.322.648-.451.557-.252 1.138-.447 1.71-.66.687-.251 1.378-.495 2.057-.768.269-.108.612-.246.873-.391.073-.04.14-.093.21-.14z" style="opacity:1;fill:#000;fill-opacity:1;stroke:none;stroke-width:.887096;stroke-dasharray:2.66129,1.77419;stroke-dashoffset:0"/><path id="path138" d="M175.966 148.274c4.049 1.893 6.327 2.918 10.288 4.947.343.175-.526.204-.73.279-2.455.894-4.826 1.99-7.257 2.937-.425.166-1.552.647-1.98.807" style="opacity:1;fill:none;fill-opacity:1;stroke:#000;stroke-width:1.00806;stroke-dasharray:none;stroke-dashoffset:0"/><path id="path137" d="M431.341 164.577c-.986-.329-2.05-.257-3.072-.206a15.97 15.97 0 0 0-4.187.984c-.298.115-.588.249-.882.373-1.53.71-2.891 1.722-4.137 2.85-.266.24-.519.495-.778.743-.95.971-1.814 2.054-2.301 3.337-.288.757-.285 1.007-.407 1.798-.002.307-.026.615-.007.922.086 1.335.589 2.608 1.28 3.742.195.318.42.617.63.925.996 1.328 2.26 2.405 3.645 3.308.885.577 1.345.798 2.274 1.297a25.08 25.08 0 0 0 4.546 1.745c.94.26 1.244.298 2.207.483 2.548.397 5.13.514 7.704.612 2.842.058 5.684.022 8.527.007 2.896-.02 5.792-.008 8.687-.036 2.964-.05 5.928-.024 8.89.025 1.849.052 3.698.082 5.544.185.97.054 1.588.11 2.554.187 2.471.214 4.925.576 7.355 1.066 2.102.435 4.18.977 6.249 1.55.986.282 1.975.563 2.932.933.347.134.689.286 1.03.434a26.88 26.88 0 0 1 1.561.706l.053-.06a26.366 26.366 0 0 0-1.564-.709c-.338-.146-.69-.303-1.032-.435-.959-.372-1.95-.653-2.936-.936-2.07-.573-4.15-1.115-6.253-1.551a66.072 66.072 0 0 0-7.36-1.069c-.961-.077-1.592-.134-2.556-.188-1.847-.104-3.697-.133-5.545-.185-2.964-.05-5.928-.076-8.892-.026-2.896.028-5.792.015-8.687.036-2.842.015-5.684.05-8.525-.006-2.572-.098-5.15-.214-7.696-.609-.959-.183-1.267-.222-2.202-.48a25.013 25.013 0 0 1-4.538-1.737c-.927-.497-1.387-.719-2.27-1.293-1.38-.898-2.64-1.97-3.633-3.291-.209-.307-.433-.604-.626-.921-.687-1.125-1.188-2.39-1.273-3.715-.02-.304.005-.609.007-.914.121-.784.118-1.032.404-1.782.486-1.276 1.349-2.352 2.293-3.318.26-.246.512-.5.777-.74 1.243-1.123 2.601-2.132 4.128-2.836.293-.124.582-.256.879-.37a15.792 15.792 0 0 1 4.103-.966c1.014-.053 2.07-.125 3.05.194z" style="opacity:1;fill:#000;fill-opacity:1;stroke:none;stroke-width:.887096;stroke-dasharray:2.66129,1.77419;stroke-dashoffset:0"/><path id="path131-0" d="M186.729 158.992a33.41 33.41 0 0 0 .008-1.774c-.095-2.588-.292-5.168-.355-7.765a133.342 133.342 0 0 1-.04-4.353l-.052.304c3.567-.124 6.793-.038 10.363-.075 4.263-.043 8.82-.127 12.438-.034.14 1.042.093 1.892.046 2.974-.158 3.646-.392 5.988-.519 10.715l-.372.014c-.216 0-.433.005-.65.005-1.812.026-3.633.07-5.453.11-1.942.052-3.884-.048-5.835-.043-2.107-.018-4.205.095-6.303.051-1.249-.03-2.497-.04-3.746-.074" style="display:inline;fill:#ffe680;fill-opacity:1;stroke:#000;stroke-width:1.00806;stroke-dasharray:none;stroke-dashoffset:0"/><path id="path127-7" d="M201.755 150.545a25.48 25.48 0 0 0-1.44-.082c-1.36-.009-2.727-.036-4.094-.054-1.037-.018-2.074-.018-3.111.064" style="display:inline;fill:none;fill-opacity:1;stroke:#000;stroke-width:1.00806;stroke-dasharray:none;stroke-dashoffset:0"/><path id="path128-1" d="M201.85 154.102c-.72-.009-1.44.01-2.16.028-1.38.028-2.759.002-4.137-.006-.827.008-1.652-.011-2.473.07" style="display:inline;fill:none;fill-opacity:1;stroke:#000;stroke-width:1.00806;stroke-dasharray:none;stroke-dashoffset:0"/><path id="path134-3" d="M185.048 153.01c-4.593-.114-22.06-.24-32.317-.213" style="display:inline;fill:none;fill-opacity:1;stroke:#000;stroke-width:1.00806;stroke-dasharray:none;stroke-dashoffset:0"/><path id="path135-3" d="M219.392 156.797c-2.371-.879-4.77-1.684-7.124-2.611-.964-.397-1.957-.726-2.898-1.175-.628-.281-.095-.874.334-1.02 1.695-.811 3.503-1.342 5.248-2.032.906-.368 1.866-.665 2.68-1.222" style="display:inline;fill:none;fill-opacity:1;stroke:#000;stroke-width:1.00806;stroke-dasharray:none;stroke-dashoffset:0"/><path id="path137-0" d="M243.964 152.516c-10.191.065-23.724-.053-34.591.06" style="display:inline;fill:none;fill-opacity:1;stroke:#000;stroke-width:1.00806;stroke-dasharray:none;stroke-dashoffset:0"/><path id="path139" d="M447.827 119.366a41.875 41.875 0 0 1 7.826 3.043c.217.11-.332.128-.46.174-1.55.56-3.046 1.244-4.58 1.837-.269.103-.536.208-.806.308" style="opacity:1;fill:none;fill-opacity:1;stroke:#000;stroke-width:.806451;stroke-dasharray:none;stroke-dashoffset:0"/><path id="path140" d="M476.563 122.874c4.349.666 9.031 1.123 13.197-.418 2.927-1.083 2.865-4.32 1.497-6.51-2.752-4.404-8.269-7.005-13.371-8.364-12.481-3.326-25.08-2.815-39.52-1-6.02.756-13.088 2.064-19.161 2.203" style="display:inline;fill:none;fill-opacity:1;stroke:#000;stroke-width:.806451;stroke-dasharray:none;stroke-dashoffset:0"/><path id="path141" d="M482.71 125.534c-1.522-.56-3.06-1.072-4.57-1.662-.62-.252-1.256-.462-1.86-.748-.403-.178-.06-.555.214-.648 1.088-.517 2.248-.855 3.367-1.294.581-.234 1.197-.423 1.72-.777" style="display:inline;fill:none;fill-opacity:1;stroke:#000;stroke-width:.806451;stroke-dasharray:none;stroke-dashoffset:0"/><path id="path142" d="M514.752 147.955c-5.287-2.279-11.081-3.477-16.843-4.115-10.876-1.203-21.87-.468-32.8-.54-6.848-.046-14.114-.131-20.126-3.644-3.524-2.06-6.327-5.781-5.2-10 1.406-5.263 8.467-8.59 14.251-7.58 0 0 .252.039.376.066.125.027.37.095.37.095" style="display:inline;fill:none;fill-opacity:1;stroke:#000;stroke-width:.775143;stroke-dasharray:none;stroke-dashoffset:0"/></g></svg>