<svg xmlns="http://www.w3.org/2000/svg" xmlns:xlink="http://www.w3.org/1999/xlink" width="800" height="320"><defs><clipPath id="d" clipPathUnits="userSpaceOnUse"/><clipPath id="c" clipPathUnits="userSpaceOnUse"/><symbol id="a" overflow="visible" style="overflow:visible"><path d="M1.531-3.297c.578 0 .813.031 1.047.11.625.234 1.016.796 1.016 1.484 0 .828-.578 1.484-1.313 1.484-.265 0-.469-.078-.828-.312-.312-.172-.469-.25-.64-.25-.235 0-.391.14-.391.36 0 .343.437.562 1.14.562.766 0 1.547-.266 2.016-.672.469-.406.735-.985.735-1.656 0-.5-.172-.97-.454-1.282-.203-.219-.39-.344-.828-.531.688-.469.938-.828.938-1.375 0-.813-.64-1.36-1.563-1.36-.5 0-.937.173-1.297.485-.296.266-.437.531-.656 1.125l.14.047c.407-.734.86-1.063 1.485-1.063.656 0 1.11.438 1.11 1.063a1.4 1.4 0 0 1-.407.969c-.297.296-.578.453-1.25.687zm0 0" style="stroke:none"/></symbol><symbol id="b" overflow="visible" style="overflow:visible"><path d="M6.563-2.297c.171 0 .359 0 .359-.203 0-.188-.188-.188-.36-.188h-5.39c-.172 0-.344 0-.344.188 0 .203.172.203.344.203zm0 0" style="stroke:none"/></symbol></defs><g style="display:inline" transform="translate(.243 -303.755)"><path d="m181.37 601.62-10.943-265.313 224.937-9.278 10.944 265.313zm0 0" style="fill:#fff;fill-opacity:1;fill-rule:nonzero;stroke:#fff;stroke-width:.152731;stroke-linecap:butt;stroke-linejoin:miter;stroke-miterlimit:10;stroke-opacity:1"/><path d="m190.764 549.235-8.327-201.869 201.868-8.327 8.327 201.869zm0 0" style="fill:#fafafa;fill-opacity:1;fill-rule:nonzero;stroke:#fafafa;stroke-width:.152731;stroke-linecap:butt;stroke-linejoin:miter;stroke-miterlimit:10;stroke-opacity:1"/><path d="m190.169 534.814 201.868-8.327m-203.058-20.51 201.869-8.326M187.79 477.137l201.868-8.327M186.6 448.3l201.869-8.326M185.41 419.459l201.868-8.327M184.22 390.623l201.868-8.327m-203.058-20.514 201.869-8.327M205.18 548.64l-8.328-201.869m37.168 200.68-8.326-201.87m37.163 200.68-8.327-201.869m37.168 200.68-8.327-201.87m37.163 200.68-8.327-201.869m37.168 200.679-8.327-201.868m37.163 200.679-8.326-201.869" style="fill:none;stroke:#9e9ed1;stroke-width:.253597;stroke-linecap:butt;stroke-linejoin:miter;stroke-miterlimit:10;stroke-opacity:1"/><path d="m186.6 448.3 201.869-8.326M291.698 545.071l-8.327-201.868" style="fill:none;stroke:#000;stroke-width:.507193;stroke-linecap:butt;stroke-linejoin:miter;stroke-miterlimit:10;stroke-opacity:1"/><path d="m271.223 363.921-.475-11.534 9.517-.393.476 11.534zm0 0" style="fill:#fafafa;fill-opacity:1;fill-rule:nonzero;stroke:#fafafa;stroke-width:.507193;stroke-linecap:butt;stroke-linejoin:miter;stroke-miterlimit:10;stroke-opacity:1"/><use xlink:href="#a" width="100%" height="100%" x="297.01" y="269.055" style="fill:#b0b0d9;fill-opacity:1" transform="scale(1.27276) rotate(-2.362 632.602 2274.66)"/><path d="m268.579 537.934-.476-11.535 19.612-.809.475 11.535zm0 0" style="fill:#fafafa;fill-opacity:1;fill-rule:nonzero;stroke:#fafafa;stroke-width:.507193;stroke-linecap:butt;stroke-linejoin:miter;stroke-miterlimit:10;stroke-opacity:1"/><use xlink:href="#b" width="100%" height="100%" x="289.285" y="405.236" style="fill:#b0b0d9;fill-opacity:1" transform="scale(1.27276) rotate(-2.362 632.602 2274.66)"/><use xlink:href="#a" width="100%" height="100%" x="297.026" y="405.236" style="fill:#b0b0d9;fill-opacity:1" transform="scale(1.27276) rotate(-2.362 632.602 2274.66)"/><path d="m193.14 466.805-.57-13.84 17.301-.713.571 13.839zm0 0" style="fill:#fafafa;fill-opacity:1;fill-rule:nonzero;stroke:#fafafa;stroke-width:.507193;stroke-linecap:butt;stroke-linejoin:miter;stroke-miterlimit:10;stroke-opacity:1"/><use xlink:href="#b" width="100%" height="100%" x="231.231" y="345.821" style="fill:#b0b0d9;fill-opacity:1" transform="scale(1.27276) rotate(-2.362 632.602 2274.66)"/><use xlink:href="#a" width="100%" height="100%" x="238.972" y="345.821" style="fill:#b0b0d9;fill-opacity:1" transform="scale(1.27276) rotate(-2.362 632.602 2274.66)"/><path d="m366.168 459.668-.571-13.84 17.307-.714.57 13.84zm0 0" style="fill:#fafafa;fill-opacity:1;fill-rule:nonzero;stroke:#fafafa;stroke-width:.507193;stroke-linecap:butt;stroke-linejoin:miter;stroke-miterlimit:10;stroke-opacity:1"/><use xlink:href="#a" width="100%" height="100%" x="371.165" y="346.157" style="fill:#b0b0d9;fill-opacity:1" transform="scale(1.27276) rotate(-2.362 632.602 2274.66)"/><path d="m203.395 505.383 12.116-.5 3.454-.202 1.733-.1 1.726-.127 1.727-.13 1.73-.156 1.725-.16 1.723-.216 1.726-.245 1.72-.3 1.716-.36 1.72-.419 1.71-.503 1.708-.588 1.706-.737 1.695-.881 1.69-.99 1.688-1.2 1.674-1.397 1.664-1.626 1.66-1.86 1.645-2.118 1.633-2.381 1.626-2.695 1.608-2.982 1.597-3.275 1.582-3.618 1.575-3.907 1.56-4.194 1.55-4.513 1.535-4.745 1.526-5 1.517-5.207 1.514-5.377 1.504-5.52 1.5-5.64 1.502-5.665 1.497-5.695 1.498-5.664 1.506-5.58 1.507-5.467 1.512-5.317 1.525-5.118 1.532-4.86 1.54-4.627 1.559-4.313 1.567-3.991 1.581-3.648 1.602-3.275 1.612-2.893 1.629-2.496 1.649-2.118 1.663-1.66 1.679-1.279 1.703-.822 1.714-.419 1.731-.011 1.754.415 1.764.793 1.781 1.2 1.802 1.573 1.81 1.891 1.824 2.264 1.841 2.521 1.848 2.815 1.857 3.043 1.87 3.242 1.87 3.361 1.875 3.476 1.883 3.535 1.875 3.475 1.87 3.361 1.87 3.217 1.854 2.984 1.844 2.725 1.834 2.353 1.814 2.005 1.8 1.657 1.788 1.255 1.772.967 1.758.649 1.75.42 1.746.247 1.737.132 1.734.043 1.735-.016 1.73-.072 1.729-.042 8.653-.357" style="fill:none;stroke:red;stroke-width:1.0144;stroke-linecap:butt;stroke-linejoin:miter;stroke-miterlimit:10;stroke-opacity:1"/><path d="m190.764 549.235-8.327-201.869 201.868-8.327 8.327 201.869zm0 0" style="fill:none;stroke:#000;stroke-width:.0633833;stroke-linecap:butt;stroke-linejoin:miter;stroke-miterlimit:10;stroke-opacity:1"/><path d="m181.37 601.62-10.943-265.313 224.937-9.278 10.944 265.313zm0 0" style="fill:none;stroke:#000;stroke-width:.507193;stroke-linecap:butt;stroke-linejoin:miter;stroke-miterlimit:10;stroke-opacity:1"/><path d="m-317.444 392.343 308.3 199.826" style="fill:none;stroke:#23de8f;stroke-width:1.81127;stroke-miterlimit:10"/><path d="M258.093 567.096c.349 3.002.55 6.02.824 9.03.152 1.235.283 2.476.52 3.698.024.125.055.248.09.37.006.02.052.048.032.056-.525.182-1.064.324-1.595.486l1.642-.598c-.539.302-1.056.648-1.617.905-.046.021-.031-.095-.04-.144-.023-.136-.039-.272-.055-.409-.154-1.254-.283-2.511-.42-3.767-.262-2.98-.469-5.977-.973-8.928l1.592-.699z" style="fill:#000;fill-opacity:1;stroke:none;stroke-width:.58685;stroke-miterlimit:4;stroke-dasharray:none;stroke-opacity:1"/><path d="M255.194 567.377c1.46-.45 3.403-.784 4.927-.908 1.068-.086 2.405-.081 3.48.085.441.068.862.23 1.293.344.807.362 1.642.794 1.4 1.865-.244 1.074-1.372 1.82-2.152 2.468-1.346.953-1.019.761-2.955 1.836-.186.103-.39.17-.58.264-.084.043-.308.214-.245.144 1.311-1.441.733-1.276 1.89-1.347 2.154.136 4.657.753 6.117 2.48.262.31.414.697.621 1.045.052.362.19.722.156 1.086-.084.888-.643 1.557-1.41 1.985a18.208 18.208 0 0 1-3.226 1.432c-1.33.432-4.092.627-5.454.761-1.748.005-2.71.109-4.371-.217-.376-.075-.785-.13-1.09-.36-.176-.134-.324-.283-.397-.49l1.78-.787c.252.5.582.472 1.024.647 1.629.344 2.272.096 4.004.088 2.28.016 3.833-.234 5.34-.644.232-.042.557-.226.773-.317.632-.267 1.328-.73 1.493-1.457.068-.294-.033-.603-.05-.905-.172-.306-.29-.65-.517-.92-1.396-1.66-3.869-2.151-5.921-2.153-.228.006-.72.23-.685.003.196-1.27.513-1.185 1.134-1.478 2.37-1.205-5.013 2.546.936-.538.722-.558 1.1-.804 1.723-1.461.18-.19.66-.685.575-1.061-.112-.492-.751-.67-1.095-.847-.4-.1-.792-.246-1.201-.304-2.566-.364-5.445.183-7.855 1.07.219-.736.263-.906.537-1.41zM271.527 565.434c.066.33.147.659.198.993.188 1.235.258 2.333.343 3.593.146 2.145.219 4.291.291 6.44.037 1.372.074 2.744.128 4.115l-1.537.62c.032-1.385.033-2.77-.003-4.155-.083-3.237-.113-6.717-.707-9.903-.058-.307-.147-.607-.22-.91l1.507-.793z" style="fill:#000;fill-opacity:1;stroke:none;stroke-width:.58685;stroke-miterlimit:4;stroke-dasharray:none;stroke-opacity:1"/><path d="M270.344 566.14c3.247-.333 6.495-.66 9.743-.987 1.165-.118.65-.067 1.542-.155l-1.086 1.299c-.847.04-.356.013-1.475.088-3.259.27-6.53.548-9.75 1.117l1.026-1.36zM271.235 570.764c2.63-.122 5.26-.232 7.888-.372l-1.038 1.217c-2.658.08-5.315.207-7.965.446l1.115-1.291zM272.24 579.18c2.974-.253 5.955-.413 8.936-.578l.976-.055-1.071 1.254c-.314.011-.627.012-.94.017-2.994.107-5.996.26-8.96.718l1.06-1.357zM284.207 567.392c-.33 3.432-.037 6.888.219 10.314.108 1.271.21 2.543.326 3.813l-1.526.647a129.229 129.229 0 0 0-.214-3.857c-.242-3.443-.492-6.893-.429-10.346l1.624-.57z" style="fill:#000;fill-opacity:1;stroke:none;stroke-width:.58685;stroke-miterlimit:4;stroke-dasharray:none;stroke-opacity:1"/><path d="M282.502 567.921c3.502-.38 7.04-.716 10.566-.61l.543.073-1.174 1.226-.465-.078c-3.51-.197-7.047.146-10.512.692l1.042-1.303zM283.132 572.962c3.14-.182 6.285-.243 9.428-.369l-1.053 1.223c-3.153.034-6.311.121-9.448.46l1.073-1.313zM298.429 567.812c-.36.231-.586.488-.962.78-.442.537-.993.98-1.42 1.528-.678.87-1.653 2.463-1.943 3.571-.145.552-.095 1.137-.143 1.705.064.434.192 1.046.48 1.475.717 1.066 1.949 1.486 3.154 1.634 1.822.224 3.017-.072 4.695-.802.344-.15.858-.481 1.31-.927.504-.537.737-.844 1.11-1.532.653-1.201.877-2.894.419-4.209-.452-1.296-1.674-2.492-2.725-3.295-.504-.384-1.08-.66-1.621-.992-.918-.666-2.757-.583-2.95-.595.469-.412.884-.892 1.404-1.235.988-.014 2.473.705 2.742.857.55.36 1.138.666 1.651 1.077 1.11.888 2.396 2.193 2.887 3.573.495 1.39.3 3.253-.34 4.554-.36.735-.995 1.3-1.493 1.95-1.137.94-2.111 1.432-3.263 1.966-2.451 1.137-6.692 1.272-8.378-1.303-.317-.483-.45-1-.54-1.648.038-.619-.03-1.254.114-1.857.156-.65.42-1.403.767-1.974 1.913-3.147 3.289-4.34 5.957-5.715zM309.564 565.688c.17 4.033.416 8.06.756 12.082l-1.392.591a290.395 290.395 0 0 0-.874-12.001z" style="fill:#000;fill-opacity:1;stroke:none;stroke-width:.58685;stroke-miterlimit:4;stroke-dasharray:none;stroke-opacity:1"/><path d="M305.673 567.543c.66-.363 1.294-.778 1.98-1.091.715-.327 1.859-.391 2.579-.407a15.301 15.301 0 0 1 3.31.281c.461.094.906.25 1.36.375.303.183.669.29.91.549.19.205.304.498.32.778.061 1.198-1.403 1.984-2.23 2.471-.856.504-1.735.968-2.603 1.451-1.207.578-2.159 1.115-3.296 1.563.352-.533.755-1.03 1.132-1.545.095-.033.184-.093.284-.098.65-.035 1.37.365 1.896.672.494.288 2.32 1.49 2.674 1.722 2.235 1.611 4.625 3.02 6.764 4.762l.135.138-1.437.975-.072-.1c-1.96-1.89-4.397-3.22-6.598-4.793-.512-.315-1.018-.637-1.535-.944-.666-.396-1.612-1.072-2.46-1.08-1.047.523-.036-.69.226-1.127.019-.028.063-.027.095-.04.101-.043.203-.083.304-.126a47.663 47.663 0 0 0 2.747-1.31c.754-.395.995-.514 1.34-.702.285-.191 1.6-1.009 1.044-1.622-.206-.228-.46-.343-.789-.476-.368-.164-.857-.264-1.297-.348a12.851 12.851 0 0 0-3.227-.2c-1.32.052 0 0-1.848.112l-1.708.158z" style="fill:#000;fill-opacity:1;stroke:none;stroke-width:.58685;stroke-miterlimit:4;stroke-dasharray:none;stroke-opacity:1"/><path d="M321.32 566.054c.282 3.512.53 7.027.815 10.54a29.7 29.7 0 0 1 .04 2.782l-1.583.597c.1-.918.134-1.839.093-2.762-.207-3.498-.445-7.002-.917-10.475l1.552-.682zM320.214 564.735a281.01 281.01 0 0 0 10.656-.177l1.016-.043-1.074 1.245c-.326.003-.651.003-.977-.007-3.58.026-7.159.109-10.736.268l1.115-1.29z" style="fill:#000;fill-opacity:1;stroke:none;stroke-width:.58685;stroke-miterlimit:4;stroke-dasharray:none;stroke-opacity:1"/><path d="M321.94 570.612c2.59-.272 5.183-.515 7.783-.669l-1.011 1.193c-2.616.12-5.227.353-7.814.772zM321.068 577.913c3.96-.416 7.936-.743 11.92-.684.017 0 1.108.033 1.344.149.082.039.12.134.181.2l-1.463.95c-.578-.06-.71-.08-1.12-.109-3.986-.15-7.994.162-11.921.85z" style="fill:#000;fill-opacity:1;stroke:none;stroke-width:.58685;stroke-miterlimit:4;stroke-dasharray:none;stroke-opacity:1"/><g style="display:inline"><path d="M201.065 2830.423V2621.79h176.883v208.633zm0 0" style="fill:#fff;fill-opacity:1;fill-rule:nonzero;stroke:#fff;stroke-width:.12;stroke-linecap:butt;stroke-linejoin:miter;stroke-miterlimit:10;stroke-opacity:1" transform="scale(1.27276) rotate(2.143 63562.75 4638.78)"/><path d="M210.135 2789.602V2630.86h158.742v158.742zm0 0" style="fill:#fafafa;fill-opacity:1;fill-rule:nonzero;stroke:#fafafa;stroke-width:.12;stroke-linecap:butt;stroke-linejoin:miter;stroke-miterlimit:10;stroke-opacity:1" transform="scale(1.27276) rotate(2.143 63562.75 4638.78)"/><path d="M210.135 2778.262h158.742m-158.742-22.675h158.742m-158.742-22.68h158.742m-158.742-22.676h158.742m-158.742-22.68h158.742m-158.742-22.675h158.742m-158.742-22.68h158.742m-147.406 147.406V2630.86m22.68 158.742V2630.86m22.676 158.742V2630.86m22.68 158.742V2630.86m22.675 158.742V2630.86m22.68 158.742V2630.86m22.676 158.742V2630.86" style="fill:none;stroke:#9e9ed1;stroke-width:.19925;stroke-linecap:butt;stroke-linejoin:miter;stroke-miterlimit:10;stroke-opacity:1" transform="scale(1.27276) rotate(2.143 63562.75 4638.78)"/><path d="M210.135 2710.231h158.742M289.506 2789.602V2630.86" style="fill:none;stroke:#000;stroke-width:.3985;stroke-linecap:butt;stroke-linejoin:miter;stroke-miterlimit:10;stroke-opacity:1" transform="scale(1.27276) rotate(2.143 63562.75 4638.78)"/><path d="M279.3 2646.731v-9.07h7.484v9.07zm0 0" style="fill:#fafafa;fill-opacity:1;fill-rule:nonzero;stroke:#fafafa;stroke-width:.3985;stroke-linecap:butt;stroke-linejoin:miter;stroke-miterlimit:10;stroke-opacity:1" transform="scale(1.27276) rotate(2.143 63562.75 4638.78)"/><use xlink:href="#a" width="100%" height="100%" x="297.01" y="269.055" style="fill:#b0b0d9;fill-opacity:1" transform="matrix(1.27187 .0476 -.0476 1.27187 143.778 .342)"/><path d="M271.588 2783.25v-9.07h15.422v9.07zm0 0" style="fill:#fafafa;fill-opacity:1;fill-rule:nonzero;stroke:#fafafa;stroke-width:.3985;stroke-linecap:butt;stroke-linejoin:miter;stroke-miterlimit:10;stroke-opacity:1" transform="scale(1.27276) rotate(2.143 63562.75 4638.78)"/><use xlink:href="#b" width="100%" height="100%" x="289.285" y="405.236" style="fill:#b0b0d9;fill-opacity:1" transform="matrix(1.27187 .0476 -.0476 1.27187 143.778 .342)"/><use xlink:href="#a" width="100%" height="100%" x="297.026" y="405.236" style="fill:#b0b0d9;fill-opacity:1" transform="matrix(1.27187 .0476 -.0476 1.27187 143.778 .342)"/><path d="M214.67 2724.97v-10.883h13.606v10.882zm0 0" style="fill:#fafafa;fill-opacity:1;fill-rule:nonzero;stroke:#fafafa;stroke-width:.3985;stroke-linecap:butt;stroke-linejoin:miter;stroke-miterlimit:10;stroke-opacity:1" transform="scale(1.27276) rotate(2.143 63562.75 4638.78)"/><use xlink:href="#b" width="100%" height="100%" x="231.231" y="345.821" style="fill:#b0b0d9;fill-opacity:1" transform="matrix(1.27187 .0476 -.0476 1.27187 143.778 .342)"/><use xlink:href="#a" width="100%" height="100%" x="238.972" y="345.821" style="fill:#b0b0d9;fill-opacity:1" transform="matrix(1.27187 .0476 -.0476 1.27187 143.778 .342)"/><path d="M350.733 2724.97v-10.883h13.61v10.882zm0 0" style="fill:#fafafa;fill-opacity:1;fill-rule:nonzero;stroke:#fafafa;stroke-width:.3985;stroke-linecap:butt;stroke-linejoin:miter;stroke-miterlimit:10;stroke-opacity:1" transform="scale(1.27276) rotate(2.143 63562.75 4638.78)"/><use xlink:href="#a" width="100%" height="100%" x="371.165" y="346.157" style="fill:#b0b0d9;fill-opacity:1" transform="matrix(1.27187 .0476 -.0476 1.27187 143.778 .342)"/><path d="m223.665 2710.193 1.888-.033 1.363-.02 1.36-.023 1.36-.047 1.362-.047 2.72-.18 1.362-.136 1.36-.18 1.36-.203 1.363-.297 1.359-.363 1.36-.453 1.363-.543 1.359-.703 1.36-.84 1.363-1.02 1.359-1.203 1.36-1.406 1.363-1.676 1.359-1.906 1.36-2.2 1.363-2.449 1.359-2.746 1.36-3.039 1.363-3.265 1.36-3.535 1.358-3.72 1.364-3.902 1.36-4.015 2.718-8.117 1.363-3.993 1.36-3.832 1.363-3.629 1.36-3.308 1.359-2.973 1.359-2.562 1.363-2.086 1.36-1.563 1.359-1.023 1.363-.453 1.36.113 1.359.703 1.363 1.27 1.36 1.816 1.359 2.336 1.363 2.832 1.36 3.29 1.359 3.718 1.363 4.058 1.36 4.403 1.359 4.691 1.363 4.899 1.36 5.125 1.36 5.261 1.362 5.399 1.36 5.441 1.36 5.512 1.362 5.535 1.36 5.488 1.36 5.465 1.362 5.328 1.36 5.149 1.36 4.965 1.362 4.718 1.36 4.422 1.36 4.125 1.362 3.742 1.36 3.336 1.36 2.809 1.363 2.246 1.359 1.59 1.36.836 1.363.047 1.359-.817 1.36-1.722 1.363-2.61 1.359-3.421 1.36-4.082 1.363-4.606 1.359-4.851 1.36-4.856 1.363-4.578 1.359-4.082 1.36-3.45 1.359-2.718 1.363-1.977 1.36-1.359 1.359-.86 1.363-.5 1.36-.25 1.359-.136 1.363-.043 1.36-.024h1.987" style="fill:none;stroke:red;stroke-width:.79701;stroke-linecap:butt;stroke-linejoin:miter;stroke-miterlimit:10;stroke-opacity:1" transform="scale(1.27276) rotate(2.143 63562.75 4638.78)"/><path d="M210.135 2789.602V2630.86h158.742v158.742zm0 0" style="fill:none;stroke:#000;stroke-width:.0498;stroke-linecap:butt;stroke-linejoin:miter;stroke-miterlimit:10;stroke-opacity:1" transform="scale(1.27276) rotate(2.143 63562.75 4638.78)"/><path d="M201.065 2830.423V2621.79h176.883v208.633zm0 0" style="fill:none;stroke:#000;stroke-width:.3985;stroke-linecap:butt;stroke-linejoin:miter;stroke-miterlimit:10;stroke-opacity:1" transform="scale(1.27276) rotate(2.143 63562.75 4638.78)"/></g><g style="display:inline"><path d="M-773.582 3148.227c.837 1.202 1.351 2.585 1.938 3.915.298.674 1.354 2.992 1.638 3.618.922 2.122 1.931 4.234 2.479 6.492l-1.549.625c-.391-2.263-1.407-4.357-2.311-6.448l-.868-1.874c-.27-.577-.543-1.153-.811-1.73-.59-1.271-1.116-2.606-1.974-3.727l1.458-.87z" style="fill:#000;fill-opacity:1;stroke:none;stroke-width:.5;stroke-miterlimit:4;stroke-dasharray:none;stroke-opacity:1" transform="matrix(.99514 -.02153 .02153 .99514 1188.14 -2590.092)"/><path d="M-779.789 3155.54c3.049.437 6.115.779 9.197.778l-1.142 1.148c-3.1-.106-6.176-.477-9.264-.744l1.21-1.182zM-763.989 3149.531c-.398 2.998-.791 6.009-.88 9.035-.02.623 0 1.247 0 1.87.066 1.788.016.977.129 2.435l-1.543.543c-.055-1.496-.031-.667-.06-2.489.041-3.643.37-7.269.744-10.891l1.61-.503z" style="fill:#000;fill-opacity:1;stroke:none;stroke-width:.5;stroke-miterlimit:4;stroke-dasharray:none;stroke-opacity:1" transform="matrix(.99514 -.02153 .02153 .99514 1188.14 -2590.092)"/><path d="M-766.647 3149.173c3.837.106 7.673.303 11.51.463l1.058.045-1.276 1.142c-.341-.025-.682-.05-1.022-.073-3.854-.243-7.713-.408-11.574-.415l1.304-1.16zM-764.693 3155.328c2.895.118 5.79.252 8.686.365l-1.232 1.093c-2.908-.158-5.818-.299-8.73-.3zM-755.365 3151.74c4.076.095 8.145.44 12.216.703 2.223.132 1.221.075 3.003.172l-1.028 1.243c-1.721-.177-.75-.083-2.915-.275-4.11-.309-8.223-.583-12.341-.556l1.065-1.287z" style="fill:#000;fill-opacity:1;stroke:none;stroke-width:.5;stroke-miterlimit:4;stroke-dasharray:none;stroke-opacity:1" transform="matrix(.99514 -.02153 .02153 .99514 1188.14 -2590.092)"/><path d="M-747.639 3152.082a405.231 405.231 0 0 0-.211 10.07c-.01.846-.005 1.693-.015 2.54l-1.612.435c.063-.851.102-1.704.122-2.557.073-3.342.17-6.687.109-10.03l1.607-.458zM-737.71 3151.595c-.568 3.113-.602 6.28-.542 9.434a31.14 31.14 0 0 1-.065 2.376l-1.612.43c.13-.78.182-1.567.19-2.357-.024-3.165.027-6.334.418-9.478l1.61-.404z" style="fill:#000;fill-opacity:1;stroke:none;stroke-width:.5;stroke-miterlimit:4;stroke-dasharray:none;stroke-opacity:1" transform="matrix(.99514 -.02153 .02153 .99514 1188.14 -2590.092)"/><path d="M-738.623 3150.842c3.579-.14 7.161-.091 10.74-.048.406.01.81.012 1.216.018l-1.085 1.14-1.175-.053c-3.598-.101-7.207-.127-10.8.17l1.104-1.227zM-737.936 3156.104c2.489.113 4.979.2 7.469.286l-1.122 1.11c-2.499-.128-5-.241-7.504-.22l1.157-1.177zM-738.661 3162.92c4.168.088 8.325.5 12.477.865l-1.081 1.077c-4.14-.48-8.312-.935-12.485-.747l1.089-1.195zM-722.196 3151.436c.028 4.032-.006 8.065-.026 12.097l-1.49.485c.166-4.015.22-8.038-.018-12.052l1.534-.53z" style="fill:#000;fill-opacity:1;stroke:none;stroke-width:.5;stroke-miterlimit:4;stroke-dasharray:none;stroke-opacity:1" transform="matrix(.99514 -.02153 .02153 .99514 1188.14 -2590.092)"/><path d="M-724.508 3151.187c2.065.207 4.197.174 6.204.782.672.203 2.024.712 2.373 1.52.147.337.005.736.008 1.104-.259.382-.458.811-.776 1.145-.682.715-1.854 1.394-2.721 1.83-1.647.827-2.864 1.379-4.563 1.818-.57.106-.98.186-.984-.563 0-.052.032-.11.078-.133.507-.258 1.037-.465 1.556-.697.153.067.515.224.64.293.625.343 1.22.739 1.839 1.092.71.406 3.433 1.904 4.016 2.225 2.568 1.326 5.103 2.717 7.688 4.008l-1.386 1.092 1.247-1.186-1.236 1.108c-.517-.353-1.08-.661-1.622-.967a176.942 176.942 0 0 0-5.884-3.159c-5.756-3.066.93.488-4.104-2.169-.278-.147-1.685-1.008-2.196-1.073-.04-.01-.077.027-.115.04.425-.21.862-.397 1.276-.628.027-.015-.068-.01-.086-.035-.072-.095-.111-.21-.173-.31-.023-.037-.106-.067-.081-.103.032-.046.11-.01.166-.02.142-.023.284-.051.427-.078 2.891-.784-2.134.599 1.835-.589.03-.01.059.047.087.034 1.315-.616 2.593-1.335 3.5-2.5.061-.242.265-.49.182-.726-.254-.722-1.629-1.195-2.132-1.343-2.002-.588-4.132-.577-6.195-.62l1.133-1.191zM-773.318 3147.805c-2.038 3.24-4.117 6.454-6.173 9.683-.905 1.442-1.899 2.852-2.492 4.457l-1.517.326c.648-1.644 1.68-3.09 2.631-4.572 1.544-2.43 3.135-4.83 4.617-7.297.273-.455.523-.923.796-1.378.2-.333.415-.656.622-.984l1.516-.235z" style="fill:#000;fill-opacity:1;stroke:none;stroke-width:.5;stroke-miterlimit:4;stroke-dasharray:none;stroke-opacity:1" transform="matrix(.99514 -.02153 .02153 .99514 1188.14 -2590.092)"/></g><circle cx="418.719" cy="447.145" r="2.742" style="display:inline;fill:none;stroke:red;stroke-width:1.014;stroke-miterlimit:2;stroke-dasharray:none" transform="rotate(-1.482)"/><circle cx="591.552" cy="458.095" r="2.742" style="display:inline;fill:none;stroke:red;stroke-width:1.014;stroke-miterlimit:2;stroke-dasharray:none" transform="rotate(-1.482)"/><path d="m125.724 509.713 155.017-5.976" style="fill:none;stroke:#23de8f;stroke-width:1.811;stroke-linecap:butt;stroke-linejoin:miter;stroke-miterlimit:10;stroke-dasharray:none;stroke-opacity:1"/><circle cx="190.332" cy="510.404" r="2.742" style="display:inline;fill:red;stroke:red;stroke-width:1.014;stroke-miterlimit:2;stroke-dasharray:none" transform="rotate(-1.482)"/><path d="M362.461 136.137c-1.674 2.66-3.432 5.266-5.064 7.953-.817 1.476-.452.787-1.104 2.06l-.721.298c.645-1.287.285-.59 1.097-2.079 1.624-2.692 3.38-5.298 5.066-7.95l.728-.28z" style="stroke-width:1.42552;stroke-linecap:square" transform="rotate(-37.457 779.936 641.542)"/><path d="M357.583 138.91c1.892.619 3.733 1.384 5.584 2.113l-.471.621c-1.85-.728-3.688-1.489-5.578-2.107zM360.89 145.76c-.939-.332-1.996-.263-2.857.265-.743.456-.805.363-.49.57 0 .174-.044.354 0 .522.214.845 1.351.803 1.993.595.218-.071.415-.193.623-.29.737-.543.434-.283 1.066-.887.032-.043-.146.154-.117.11.057-.077.107-.28.19-.213.424.342-.234.64.337.29-.055.18-.137.356-.163.544-.15 1.078.282 2.217.684 3.198l-.61.486c-.434-1.03-.871-2.209-.776-3.347 0-.21.088-.408.135-.61.045-.06.612-1.362 1.138-.797.062.08-.119.161-.175.241-.591.667-1.179 1.29-1.964 1.725-.229.086-.45.204-.687.264-.84.212-2.017.069-2.327-.892-.067-.213-.045-.445-.067-.667.267-.369.504-.764.824-1.09.777-.817 2.13-1.025 3.186-.807.201.04.39.14.584.212l-.508.59z" style="stroke-width:1.42552;stroke-linecap:square" transform="rotate(-37.457 779.936 641.542)"/><path d="M364.806 146.851c-.654 1.215-1.415 2.369-2.188 3.51-.089-.52-.141.42-.217.32-.079-.104-.202-.235-.159-.359.053-.145.248-.186.38-.27.558-.359.831-.494 1.422-.817.405-.182 2.085-1.13 2.52-.605.089.108.092.261.137.394-.041.165-.061.339-.125.496-.163.406-.482.86-.711 1.223-.318.52-.638 1.027-.909 1.572-.156.387-.088.206-.208.54l-.705.335c.112-.35.048-.16.193-.571.504-1.113 1.285-2.061 1.818-3.157.021-.07.088-.133.067-.19-.063-.132-.517-.038-.531-.034-.63.137-1.197.47-1.77.745-.247.138-.495.27-.738.414-.221.133-.44.268-.651.413-.39.265-.313.412-.77.126-.103-.071.747-.295.237-.299.77-1.135 1.54-2.273 2.2-3.477l.721-.298zM369.97 152.33c-.714-.436-1.506-.482-2.32-.317-.326.067-.661.147-.957.305-.888.472-.831.437-.467.625.032.178 0 .386.098.534.13.186.343.317.552.408 1.131.465 2.34.041 3.38-.42.087-.042.56-.42.597.03.026.32-.489.842-.605 1.003-.642.897-.688 1.07-1.27 2.124-.732 1.41-1.402 2.853-2.181 4.239-.463.823-.885 1.551-1.64 2.169-.173.141-.421.143-.631.213-.252-.07-.523-.087-.756-.204-1.216-.621-2.229-2.263-2.759-3.476-.125-.289-.22-.59-.33-.886l-.13-.681.638-.45.1.642c.104.287.19.583.311.864.479 1.126 1.446 2.755 2.578 3.323.184.09.401.088.602.132.863-.407.688-.29 1.294-1.353.787-1.381 1.455-2.828 2.18-4.241.471-.876.706-1.387 1.255-2.167.133-.196.29-.378.446-.554a.945.945 0 0 1 .292-.206c.05-.021.189 0 .15.037-.107.099-.262.121-.391.183-.61.245-.945.418-1.63.504-.88.111-2.105.053-2.683-.764-.138-.196-.125-.46-.186-.69.255-.377.433-.81.733-1.152.808-.917 2.607-1.022 3.685-.653.202.07.374.202.561.303l-.52.581zM371.95 155.405c.711.371 2.272 1.112 2.972.352.087-.08-.2.12-.3.178-.021-.115 0-.237-.045-.343-.444-.915-1.792-.77-2.563-.503-.292.1-.55.275-.825.412-.049.304-.111.625.021.927.615 1.401 2.518 2.269 3.743 2.978l-.471.62c-1.34-.779-3.22-1.658-3.919-3.162-.137-.297-.263-.667-.14-.969.191-.468.67-.757 1.004-1.136.298-.13.58-.298.891-.388.971-.282 2.34-.261 2.888.761.082.155.09.336.134.503-.226.283-.386.62-.645.87-.12.116-.297.163-.46.198-.971.206-1.947-.242-2.776-.69l.49-.606zM376.95 157.959c-.157.158-.313.316-.466.476-.475.496-.935 1.005-1.396 1.514-.083.071-.277.333-.22.24.125-.187.275-.356.4-.542.062-.088.08-.213.181-.265.227-.155.494-.24.743-.353.858-.388 1.76-.793 2.695-.96.202-.037.409-.028.612-.041.137.058.304.071.41.176.748.727-.57 2.43-.963 3.017-.144.21-.309.405-.452.616l-.735.258c.14-.209.306-.403.448-.613.419-.618.89-1.228 1.17-1.927.03-.093.227-.553.085-.711-.07-.08-.2-.074-.3-.111-.845.088-1.496.305-2.29.627-.313.125-.62.27-.927.408-.253.113-.487.274-.754.349-.171.048-.354 0-.531.021.115-.236.213-.483.348-.708.061-.091.145-.158.22-.24.128-.136.25-.278.377-.415.488-.532.985-1.055 1.485-1.574l-.134.768zM387.325 151.912c-1.943 2.806-4.017 5.517-6.032 8.271-1.265 1.817-.693.953-1.702 2.602l-.729.279c.999-1.669.443-.789 1.694-2.625 2.013-2.754 4.09-5.462 6.034-8.266l.734-.262z" style="stroke-width:1.42552;stroke-linecap:square" transform="rotate(-37.457 779.936 641.542)"/><path d="M382.518 154.08c1.515.582 3.045 1.12 4.58 1.647l-.403.668a139.056 139.056 0 0 1-4.586-1.65l.402-.668z" style="stroke-width:1.42552;stroke-linecap:square" transform="rotate(-37.457 779.936 641.542)"/><path d="m162.046 496.271-5.633 6.118-6.117-5.632-2.225 2.417 6.116 5.632-5.632 6.118 2.418 2.227 5.634-6.118 6.116 5.632 2.226-2.417-6.117-5.632 5.632-6.118z" style="color:#000;fill:red;stroke:#000;stroke-width:.8;stroke-miterlimit:10;stroke-dasharray:none"/><path d="m102.45 688.58 201.869-8.326" style="fill:none;stroke:#23de8f;stroke-width:1.811;stroke-linecap:butt;stroke-linejoin:miter;stroke-miterlimit:10;stroke-dasharray:none;stroke-opacity:1"/><path d="M156.008 543.926q0-3.18 1.396-4.953 1.397-1.772 3.89-1.772 2.556 0 3.94 1.746 1.382 1.736 1.382 4.873 0 2.277-.608 3.739-.6 1.453-1.746 2.268-1.138.806-2.842.806-1.732 0-2.87-.7-1.132-.7-1.837-2.215-.705-1.515-.705-3.792zm3.163.018q0 1.967.573 2.826.58.86 1.571.86 1.02 0 1.579-.842.558-.842.558-3.021 0-1.834-.586-2.676-.58-.85-1.579-.85-.956 0-1.536.859-.58.86-.58 2.844zM144.824 537.423h2.954l3.855 7.185v-7.185h2.982v12.989h-2.982l-3.834-7.133v7.133h-2.975z" style="font-size:20px;font-family:&quot;Arial Black&quot;;-inkscape-font-specification:&quot;Arial Black, &quot;;letter-spacing:1.5px;opacity:1;stroke-width:.799998"/><path fill="#fed341" stroke="#000" stroke-width="1.2" d="m157.349 531.71-.01-6.952 2.22-.006-4.151-4.213-4.137 4.229 2.22-.006.01 6.951z" style="display:inline;fill:#000;fill-opacity:1"/><use xlink:href="#b" width="100%" height="100%" x="231.231" y="345.821" style="fill:#b0b0d9;fill-opacity:1" transform="matrix(1.27167 -.05245 .05245 1.27167 179.902 -16.126)"/><use xlink:href="#a" width="100%" height="100%" x="238.972" y="345.821" style="fill:#b0b0d9;fill-opacity:1" transform="matrix(1.27167 -.05245 .05245 1.27167 179.902 -16.126)"/></g><circle cx="160.522" cy="150.93" r="2.742" style="display:inline;fill:red;stroke:red;stroke-width:1.014;stroke-miterlimit:2;stroke-dasharray:none" transform="rotate(-1.482)"/><g style="display:inline;stroke-width:1.08742;stroke-dasharray:none"><path d="M50.773 42.81s-1.47.096-2.196.216c-1.15.19-2.34.288-3.326.333-.882.04-1.553.097-2.223.219-.944.172-2.48.24-2.48.24-.837.082-1.622-.446-1.062-1.542 0 0 .705-1.23.853-1.91.149-.689.701-1.393.95-2.129.296-.88.88-1.757 1.176-2.638.286-.85 1.096-2.456 1.096-2.456.469-1.156 1.433-1.044 2.04-.156 0 0 .745.922 1.384 1.93.37.585.489.479.92 1.314.494.954 1.883 2.432 2.242 3.032.468.78 1.3 1.904 1.3 1.904.532.74.234 1.535-.674 1.643z" style="fill:#fd5;stroke:#000;stroke-width:1.08742;stroke-miterlimit:4;stroke-dasharray:none" transform="matrix(1.8428 0 0 1.83564 78.757 71.536)"/><path d="M44.863 39.664s-.007-.604-.16-1.164c-.114-.411-.187-1.124-.233-1.443-.1-.51-.323-1.195-.323-1.195-.072-.282.009-.678.517-.732.625-.066.771.27.793.584.071.62.052 1.323.087 1.727.064.733.018 1.879.018 1.879a4.757 4.757 0 0 1-.7.344z" style="fill:#000;stroke:none;stroke-width:1.08742;stroke-linecap:butt;stroke-linejoin:miter;stroke-miterlimit:4;stroke-dasharray:none;stroke-opacity:1" transform="matrix(1.8428 0 0 1.83564 78.757 71.536)"/><path d="M46.175 41.028c-.006.414-.313.745-.686.74-.372-.006-.717-.349-.71-.763.006-.414.36-.742.733-.737.372.006.67.346.663.76z" style="fill:#000;stroke:none;stroke-width:1.08742;stroke-miterlimit:4;stroke-dasharray:none" transform="matrix(1.8428 0 0 1.83564 78.757 71.536)"/></g><g style="display:inline;stroke-width:1.08742;stroke-dasharray:none"><path d="M50.773 42.81s-1.47.096-2.196.216c-1.15.19-2.34.288-3.326.333-.882.04-1.553.097-2.223.219-.944.172-2.48.24-2.48.24-.837.082-1.622-.446-1.062-1.542 0 0 .705-1.23.853-1.91.149-.689.701-1.393.95-2.129.296-.88.88-1.757 1.176-2.638.286-.85 1.096-2.456 1.096-2.456.469-1.156 1.433-1.044 2.04-.156 0 0 .745.922 1.384 1.93.37.585.489.479.92 1.314.494.954 1.883 2.432 2.242 3.032.468.78 1.3 1.904 1.3 1.904.532.74.234 1.535-.674 1.643z" style="fill:#fd5;stroke:#000;stroke-width:1.08742;stroke-miterlimit:4;stroke-dasharray:none" transform="matrix(1.8428 0 0 1.83564 95.81 71.536)"/><path d="M44.863 39.664s-.007-.604-.16-1.164c-.114-.411-.187-1.124-.233-1.443-.1-.51-.323-1.195-.323-1.195-.072-.282.009-.678.517-.732.625-.066.771.27.793.584.071.62.052 1.323.087 1.727.064.733.018 1.879.018 1.879a4.757 4.757 0 0 1-.7.344z" style="fill:#000;stroke:none;stroke-width:1.08742;stroke-linecap:butt;stroke-linejoin:miter;stroke-miterlimit:4;stroke-dasharray:none;stroke-opacity:1" transform="matrix(1.8428 0 0 1.83564 95.81 71.536)"/><path d="M46.175 41.028c-.006.414-.313.745-.686.74-.372-.006-.717-.349-.71-.763.006-.414.36-.742.733-.737.372.006.67.346.663.76z" style="fill:#000;stroke:none;stroke-width:1.08742;stroke-miterlimit:4;stroke-dasharray:none" transform="matrix(1.8428 0 0 1.83564 95.81 71.536)"/></g><circle cx="460.295" cy="106.897" r="2.742" style="display:inline;fill:red;stroke:red;stroke-width:1.014;stroke-miterlimit:2;stroke-dasharray:none" transform="rotate(-1.482)"/><path d="M470.855 98.351s-2.71.178-4.047.398c-2.118.348-4.31.528-6.128.61-1.626.072-2.862.178-4.097.402-1.739.315-4.572.441-4.572.441-1.54.151-2.987-.818-1.955-2.83 0 0 1.3-2.257 1.571-3.508.275-1.263 1.293-2.556 1.75-3.907.547-1.616 1.622-3.225 2.168-4.842.528-1.56 2.02-4.509 2.02-4.509.864-2.122 2.641-1.915 3.761-.287 0 0 1.37 1.693 2.548 3.544.683 1.074.901.879 1.697 2.412.91 1.752 3.47 4.464 4.131 5.565.862 1.433 2.397 3.496 2.397 3.496.98 1.358.43 2.817-1.244 3.015z" style="fill:#faa;stroke:#000;stroke-width:2;stroke-miterlimit:4;stroke-dasharray:none"/><path d="M459.964 92.576s-.013-1.11-.296-2.136c-.208-.755-.344-2.064-.427-2.65-.184-.935-.596-2.193-.596-2.193-.133-.518.016-1.244.953-1.343 1.151-.12 1.42.496 1.46 1.072.132 1.138.097 2.428.162 3.17.117 1.345.033 3.449.033 3.449-.433.246-.857.473-1.289.63z" style="fill:#000;stroke:none;stroke-width:2;stroke-linecap:butt;stroke-linejoin:miter;stroke-miterlimit:4;stroke-dasharray:none;stroke-opacity:1"/><path d="M462.382 95.08c-.011.76-.577 1.368-1.264 1.358-.686-.01-1.32-.64-1.31-1.399.012-.76.665-1.363 1.352-1.353.686.01 1.233.635 1.222 1.394z" style="fill:#000;stroke:none;stroke-width:2;stroke-miterlimit:4;stroke-dasharray:none"/><path d="M487.908 98.351s-2.71.178-4.047.398c-2.118.348-4.31.528-6.128.61-1.626.072-2.862.178-4.097.402-1.74.315-4.572.441-4.572.441-1.541.151-2.987-.818-1.955-2.83 0 0 1.3-2.257 1.571-3.508.274-1.263 1.292-2.556 1.75-3.907.546-1.616 1.621-3.225 2.168-4.842.527-1.56 2.02-4.509 2.02-4.509.863-2.122 2.64-1.915 3.76-.287 0 0 1.371 1.693 2.549 3.544.683 1.074.901.879 1.697 2.412.91 1.752 3.469 4.464 4.13 5.565.863 1.433 2.397 3.496 2.397 3.496.98 1.358.43 2.817-1.243 3.015z" style="fill:#faa;stroke:#000;stroke-width:2;stroke-miterlimit:4;stroke-dasharray:none"/><path d="M477.017 92.576s-.013-1.11-.296-2.136c-.209-.755-.344-2.064-.428-2.65-.184-.935-.596-2.193-.596-2.193-.132-.518.017-1.244.953-1.343 1.152-.12 1.421.496 1.461 1.072.132 1.138.097 2.428.161 3.17.118 1.345.034 3.449.034 3.449-.434.246-.858.473-1.29.63z" style="fill:#000;stroke:none;stroke-width:2;stroke-linecap:butt;stroke-linejoin:miter;stroke-miterlimit:4;stroke-dasharray:none;stroke-opacity:1"/><path d="M479.435 95.08c-.012.76-.578 1.368-1.264 1.358-.687-.01-1.32-.64-1.31-1.399.012-.76.665-1.363 1.351-1.353.687.01 1.234.635 1.223 1.394z" style="fill:#000;stroke:none;stroke-width:2;stroke-miterlimit:4;stroke-dasharray:none"/></svg>