<svg xmlns="http://www.w3.org/2000/svg" xmlns:xlink="http://www.w3.org/1999/xlink" width="540" height="250"><defs><clipPath id="a"><path d="M174.5 198H193v61h-18.5zm0 0"/></clipPath><clipPath id="b"><path d="M174.5 196H194v24h-19.5zm0 0"/></clipPath><clipPath id="c"><path d="M174.5 198H232v61h-57.5zm0 0"/></clipPath><clipPath id="d"><path d="M174.5 239H191v17h-16.5zm0 0"/></clipPath><clipPath id="e"><path d="M369 198h59.488v61H369Zm0 0"/></clipPath><clipPath id="f"><path d="M409 196h19.488v24H409Zm0 0"/></clipPath><clipPath id="g"><path d="M409 198h19.488v61H409Zm0 0"/></clipPath><clipPath id="h"><path d="M412 239h16.488v17H412Zm0 0"/></clipPath><symbol id="i" overflow="visible"><path d="M6.563-2.297c.171 0 .359 0 .359-.203 0-.188-.188-.188-.36-.188h-5.39c-.172 0-.344 0-.344.188 0 .203.172.203.344.203zm0 0" style="stroke:none"/></symbol><symbol id="j" overflow="visible"><path d="M1.531-3.297c.578 0 .813.031 1.047.11.625.234 1.016.796 1.016 1.484 0 .828-.578 1.484-1.313 1.484-.265 0-.469-.078-.828-.312-.312-.172-.469-.25-.64-.25-.235 0-.391.14-.391.36 0 .343.437.562 1.14.562.766 0 1.547-.266 2.016-.672.469-.406.735-.985.735-1.656 0-.5-.172-.97-.454-1.282-.203-.219-.39-.344-.828-.531.688-.469.938-.828.938-1.375 0-.813-.64-1.36-1.563-1.36-.5 0-.937.173-1.297.485-.296.266-.437.531-.656 1.125l.14.047c.407-.734.86-1.063 1.485-1.063.656 0 1.11.438 1.11 1.063a1.4 1.4 0 0 1-.407.969c-.297.296-.578.453-1.25.687zm0 0" style="stroke:none"/></symbol><symbol id="k" overflow="visible"><path d="M2.531-6.734c-.547 0-.969.171-1.328.515-.578.563-.969 1.703-.969 2.875 0 1.078.329 2.25.797 2.813A1.87 1.87 0 0 0 2.5.14c.5 0 .922-.172 1.281-.516.578-.547.969-1.703.969-2.922 0-2.031-.906-3.437-2.219-3.437zm-.031.25c.844 0 1.281 1.125 1.281 3.218 0 2.079-.437 3.141-1.281 3.141-.86 0-1.297-1.063-1.297-3.14 0-2.11.438-3.22 1.297-3.22zm0 0" style="stroke:none"/></symbol><symbol id="l" overflow="visible"><path d="m4.734-1.36-.125-.062c-.375.578-.5.672-.953.672H1.281l1.672-1.766c.89-.921 1.281-1.687 1.281-2.453 0-1-.812-1.765-1.859-1.765-.547 0-1.063.218-1.422.609-.328.344-.469.656-.64 1.375l.203.047C.922-5.687 1.28-6 1.969-6c.828 0 1.406.563 1.406 1.406 0 .782-.469 1.703-1.297 2.594L.297-.125V0h3.89Zm0 0" style="stroke:none"/></symbol><symbol id="m" overflow="visible" style="overflow:visible"><path d="M4-1.11c-.078.094-.125.157-.219.266-.219.313-.344.406-.453.406-.14 0-.234-.124-.312-.406-.016-.078-.032-.14-.032-.172-.25-1.015-.359-1.468-.359-1.609.438-.781.797-1.219.969-1.219.062 0 .14.031.25.078.11.079.187.094.265.094.204 0 .344-.14.344-.36 0-.202-.172-.359-.406-.359-.438 0-.813.36-1.5 1.422l-.11-.547c-.14-.687-.25-.875-.53-.875-.22 0-.548.079-1.157.282l-.11.046.032.141c.39-.078.469-.11.562-.11.25 0 .313.095.454.688l.28 1.235-.812 1.156C.953-.641.75-.47.641-.47a.554.554 0 0 1-.25-.094.755.755 0 0 0-.329-.093c-.187 0-.328.14-.328.344 0 .265.204.421.5.421.297 0 .422-.093.922-.703.266-.312.485-.578.89-1.156L2.36-.562c.125.515.25.671.579.671.374 0 .624-.234 1.203-1.14zm0 0"/></symbol><symbol id="n" overflow="visible" style="overflow:visible"><path d="M.156-3.984c.125-.032.188-.047.297-.047.578 0 .719.25 1.188 1.968.156.641.406 1.813.406 1.985 0 .156-.063.312-.219.5-.297.406-.5.672-.61.781C1 1.422.892 1.5.75 1.5c-.047 0-.125-.031-.234-.11-.141-.109-.25-.171-.36-.171a.387.387 0 0 0-.39.39c0 .25.218.438.5.438.64 0 1.953-1.485 3.03-3.469.673-1.219.954-1.937.954-2.422a.554.554 0 0 0-.547-.547c-.234 0-.39.141-.39.36 0 .156.078.265.28.39.188.11.25.204.25.344 0 .39-.359 1.172-1.218 2.578l-.188-1.156c-.156-.875-.718-2.516-.859-2.516h-.125l-.984.172a1.759 1.759 0 0 1-.313.063zm0 0"/></symbol></defs><path d="M266.073 129.55V28.95M226.385 136.102V28.949M186.702 136.102V28.949M107.33 136.102V28.949M67.647 136.102V28.949M27.96 129.55V28.95M20.022 44.824h114.89m8.337 0H274.01M20.022 84.512H274.01M20.022 124.195H274.01" style="fill:none;stroke:#9e9ed1;stroke-width:.19925;stroke-miterlimit:10" transform="matrix(1.7 0 0 1.7 20.556 4.548)"/><path d="M20.022 124.195h265.264M147.014 129.55V21.017" style="fill:none;stroke:#000;stroke-width:.3985;stroke-miterlimit:10" transform="matrix(1.7 0 0 1.7 20.556 4.548)"/><path d="M283.272 121.824c.149.89 1.781 2.223 2.223 2.371-.442.149-2.074 1.48-2.223 2.371M144.643 23.496c.89-.148 2.227-1.777 2.371-2.222.149.445 1.485 2.074 2.371 2.222" style="fill:none;stroke:#000;stroke-width:.83687;stroke-linecap:round;stroke-linejoin:round;stroke-miterlimit:10" transform="matrix(1.7 0 0 1.7 20.556 4.548)"/><g clip-path="url(#a)" style="clip-rule:nonzero" transform="matrix(1.7 0 0 1.7 -242.057 -205.03)"><path d="m-158.74 0 38.098 38.098" style="fill:none;stroke:red;stroke-width:.79701;stroke-miterlimit:10" transform="matrix(1 0 0 -1 301.494 247.477)"/></g><g clip-path="url(#b)" style="clip-rule:nonzero" transform="matrix(1.7 0 0 1.7 -242.057 -205.03)"><path d="M-116.674 39.684a2.382 2.382 0 0 1-2.382 2.383 2.379 2.379 0 0 1-2.38-2.383 2.381 2.381 0 0 1 4.762 0zm0 0" style="fill:none;stroke:red;stroke-width:.64705882;stroke-miterlimit:10;stroke-dasharray:none" transform="matrix(1 0 0 -1 301.494 247.477)"/></g><g clip-path="url(#c)" style="clip-rule:nonzero" transform="matrix(1.7 0 0 1.7 -242.057 -205.03)"><path d="m-119.056 0 38.097 38.098" style="fill:none;stroke:red;stroke-width:.79701;stroke-miterlimit:10" transform="matrix(1 0 0 -1 301.494 247.477)"/></g><path d="M30.342 124.195a2.379 2.379 0 0 0-2.382-2.379 2.376 2.376 0 0 0-2.38 2.38 2.379 2.379 0 0 0 2.38 2.382 2.382 2.382 0 0 0 2.382-2.383zm0 0" style="fill:red;fill-opacity:1;fill-rule:nonzero;stroke:none" transform="matrix(1.7 0 0 1.7 20.556 4.548)"/><g clip-path="url(#d)" style="clip-rule:nonzero" transform="matrix(1.7 0 0 1.7 -242.057 -205.03)"><path d="M-116.674 0a2.379 2.379 0 0 1-2.382 2.38 2.376 2.376 0 0 1-2.38-2.38 2.379 2.379 0 0 1 2.38-2.382A2.382 2.382 0 0 1-116.674 0zm0 0" style="fill:none;stroke:red;stroke-width:.3985;stroke-miterlimit:10" transform="matrix(1 0 0 -1 301.494 247.477)"/></g><path d="M70.026 84.512a2.381 2.381 0 1 0-4.763-.003 2.381 2.381 0 0 0 4.763.003zm0 0" style="fill:none;stroke:red;stroke-width:.64705882;stroke-miterlimit:10;stroke-dasharray:none" transform="matrix(1.7 0 0 1.7 20.556 4.548)"/><path d="m67.647 124.195 38.098-38.097" style="fill:none;stroke:red;stroke-width:.79701;stroke-miterlimit:10" transform="matrix(1.7 0 0 1.7 20.556 4.548)"/><path d="M70.026 124.195a2.378 2.378 0 0 0-2.379-2.379 2.379 2.379 0 0 0-2.383 2.38 2.381 2.381 0 1 0 4.762 0zm0 0" style="fill:red;fill-opacity:1;fill-rule:nonzero;stroke:red;stroke-width:.3985;stroke-miterlimit:10" transform="matrix(1.7 0 0 1.7 20.556 4.548)"/><path d="M109.714 84.512a2.382 2.382 0 1 0-4.766 0 2.381 2.381 0 0 0 2.383 2.379 2.381 2.381 0 0 0 2.383-2.38zm0 0" style="fill:none;stroke:red;stroke-width:.64705882;stroke-miterlimit:10;stroke-dasharray:none" transform="matrix(1.7 0 0 1.7 20.556 4.548)"/><path d="m107.33 124.195 38.098-38.097" style="fill:none;stroke:red;stroke-width:.79701;stroke-miterlimit:10" transform="matrix(1.7 0 0 1.7 20.556 4.548)"/><path d="M109.714 124.195a2.379 2.379 0 0 0-2.383-2.379 2.379 2.379 0 0 0-2.383 2.38 2.382 2.382 0 1 0 4.766 0zm0 0" style="fill:red;fill-opacity:1;fill-rule:nonzero;stroke:red;stroke-width:.3985;stroke-miterlimit:10" transform="matrix(1.7 0 0 1.7 20.556 4.548)"/><path d="M149.397 84.512a2.381 2.381 0 1 0-4.76-.003 2.381 2.381 0 0 0 4.76.003zm0 0" style="fill:none;stroke:red;stroke-width:.64705882;stroke-miterlimit:10;stroke-dasharray:none" transform="matrix(1.7 0 0 1.7 20.556 4.548)"/><path d="m147.014 124.195 38.102-38.097" style="fill:none;stroke:red;stroke-width:.79701;stroke-miterlimit:10" transform="matrix(1.7 0 0 1.7 20.556 4.548)"/><path d="M149.397 124.195a2.379 2.379 0 0 0-2.383-2.379 2.381 2.381 0 1 0 2.383 2.379zm0 0" style="fill:red;fill-opacity:1;fill-rule:nonzero;stroke:red;stroke-width:.3985;stroke-miterlimit:10" transform="matrix(1.7 0 0 1.7 20.556 4.548)"/><path d="M189.08 84.512a2.379 2.379 0 0 0-2.378-2.383 2.381 2.381 0 1 0 2.379 2.383zm0 0" style="fill:none;stroke:red;stroke-width:.64705882;stroke-miterlimit:10;stroke-dasharray:none" transform="matrix(1.7 0 0 1.7 20.556 4.548)"/><path d="m186.702 124.195 38.097-38.097" style="fill:none;stroke:red;stroke-width:.79701;stroke-miterlimit:10" transform="matrix(1.7 0 0 1.7 20.556 4.548)"/><path d="M189.08 124.195a2.376 2.376 0 0 0-2.378-2.379 2.379 2.379 0 0 0-2.383 2.38 2.382 2.382 0 0 0 2.383 2.382 2.379 2.379 0 0 0 2.379-2.383zm0 0" style="fill:red;fill-opacity:1;fill-rule:nonzero;stroke:red;stroke-width:.3985;stroke-miterlimit:10" transform="matrix(1.7 0 0 1.7 20.556 4.548)"/><path d="M228.768 84.512a2.381 2.381 0 1 0-4.76-.003 2.381 2.381 0 0 0 4.76.003zm0 0" style="fill:none;stroke:red;stroke-width:.64705882;stroke-miterlimit:10;stroke-dasharray:none" transform="matrix(1.7 0 0 1.7 20.556 4.548)"/><g clip-path="url(#e)" style="clip-rule:nonzero" transform="matrix(1.7 0 0 1.7 -242.057 -205.03)"><path d="m79.37 0 38.1 38.098" style="fill:none;stroke:red;stroke-width:.79701;stroke-miterlimit:10" transform="matrix(1 0 0 -1 301.494 247.477)"/></g><path d="M228.768 124.195a2.379 2.379 0 0 0-2.383-2.379 2.381 2.381 0 1 0 2.383 2.379zm0 0" style="fill:red;fill-opacity:1;fill-rule:nonzero;stroke:red;stroke-width:.3985;stroke-miterlimit:10" transform="matrix(1.7 0 0 1.7 20.556 4.548)"/><g clip-path="url(#f)" style="clip-rule:nonzero" transform="matrix(1.7 0 0 1.7 -242.057 -205.03)"><path d="M121.436 39.684a2.381 2.381 0 1 1-4.763.003 2.381 2.381 0 0 1 4.763-.003zm0 0" style="fill:none;stroke:red;stroke-width:.64705882;stroke-miterlimit:10;stroke-dasharray:none" transform="matrix(1 0 0 -1 301.494 247.477)"/></g><g clip-path="url(#g)" style="clip-rule:nonzero" transform="matrix(1.7 0 0 1.7 -242.057 -205.03)"><path d="m119.057 0 38.097 38.098" style="fill:none;stroke:red;stroke-width:.79701;stroke-miterlimit:10" transform="matrix(1 0 0 -1 301.494 247.477)"/></g><path d="M268.452 124.195a2.378 2.378 0 0 0-2.38-2.379 2.379 2.379 0 0 0-2.382 2.38 2.381 2.381 0 1 0 4.762 0zm0 0" style="fill:red;fill-opacity:1;fill-rule:nonzero;stroke:none" transform="matrix(1.7 0 0 1.7 20.556 4.548)"/><g clip-path="url(#h)" style="clip-rule:nonzero" transform="matrix(1.7 0 0 1.7 -242.057 -205.03)"><path d="M121.436 0a2.378 2.378 0 0 1-2.38 2.38A2.379 2.379 0 0 1 116.675 0a2.381 2.381 0 1 1 4.762 0zm0 0" style="fill:none;stroke:red;stroke-width:.3985;stroke-miterlimit:10" transform="matrix(1 0 0 -1 301.494 247.477)"/></g><use xlink:href="#i" width="100%" height="100%" x="176.078" y="262.302" style="fill:#b0b0d9;fill-opacity:1" transform="matrix(1.7 0 0 1.7 -242.057 -205.03)"/><use xlink:href="#j" width="100%" height="100%" x="183.819" y="262.302" style="fill:#b0b0d9;fill-opacity:1" transform="matrix(1.7 0 0 1.7 -242.057 -205.03)"/><use xlink:href="#k" width="100%" height="100%" x="299.003" y="262.638" style="fill:#b0b0d9;fill-opacity:1" transform="matrix(1.7 0 0 1.7 -242.057 -205.03)"/><use xlink:href="#j" width="100%" height="100%" x="418.058" y="262.638" style="fill:#b0b0d9;fill-opacity:1" transform="matrix(1.7 0 0 1.7 -242.057 -205.03)"/><use xlink:href="#l" width="100%" height="100%" x="291.066" y="171.44" style="fill:#b0b0d9;fill-opacity:1" transform="matrix(1.7 0 0 1.7 -242.057 -205.03)"/><g style="fill:#000;fill-opacity:1;stroke:#000;stroke-width:.029486;stroke-miterlimit:4" transform="matrix(1.3566 0 0 1.35656 6.952 -242.695)"><use xlink:href="#m" width="100%" height="100%" x="217.773" y="156.682" style="fill:#000;stroke:#000;stroke-width:.029486;stroke-miterlimit:4"/></g><g style="fill:#000;fill-opacity:1;stroke:#000;stroke-width:.0294842;stroke-miterlimit:4" transform="matrix(1.35656 0 0 1.35675 -160.88 -239.94)"><use xlink:href="#n" width="100%" height="100%" x="242.152" y="156.682" style="fill:#000;stroke:#000;stroke-width:.0294842;stroke-miterlimit:4"/></g><path d="M521.56 213.802q.146-.88 1.13-2.031.985-1.152 2.43-1.173.733 0 1.34.377.608.377.901.942.88-1.32 2.115-1.32.775 0 1.34.461.566.461.587 1.236 0 .608-.293.985t-.565.46q-.273.084-.482.084-.398 0-.65-.23-.25-.23-.25-.608 0-.963 1.046-1.32-.23-.271-.837-.271-.273 0-.398.042-.796.335-1.173 1.382-1.257 4.628-1.257 5.403 0 .587.335.838t.733.251q.775 0 1.53-.69.753-.692 1.026-1.697.062-.21.125-.23.063-.021.335-.042h.084q.314 0 .314.167 0 .021-.042.23-.335 1.194-1.298 2.116-.964.921-2.241.921-1.466 0-2.22-1.32-.859 1.3-1.969 1.3h-.126q-1.026 0-1.466-.545-.44-.545-.46-1.152 0-.67.398-1.09.397-.418.942-.418.9 0 .9.88 0 .419-.25.733-.252.314-.482.419-.23.104-.273.104l-.063.021q0 .021.126.084t.335.147q.21.083.398.062.754 0 1.299-.942.188-.335.481-1.424.294-1.09.587-2.262.293-1.173.335-1.383.105-.565.105-.816 0-.587-.314-.838-.315-.251-.713-.251-.837 0-1.57.67-.733.67-1.027 1.717-.042.189-.104.21-.063.02-.335.042h-.294q-.125-.126-.125-.23zM264.942 13.928q0-.293.314-1.005t1.005-1.487q.691-.775 1.55-.754.859 0 1.382.481.524.482.545 1.34-.042.399-.063.44 0 .064-.335.964-.335.9-.691 2.032-.356 1.13-.335 1.8 0 .901.293 1.258.293.356.88.377.481 0 .9-.23.419-.231.65-.483.23-.25.565-.69 0-.022.105-.42.104-.398.293-1.235.188-.838.398-1.55.796-3.142.88-3.288.272-.566.9-.566.272 0 .44.147.167.146.23.251.063.105.042.189 0 .272-1.026 4.398-1.027 4.126-1.173 4.524-.587 1.738-2.032 2.764-1.445 1.027-2.89 1.048-.942 0-1.655-.461-.712-.461-.712-1.383 0-.46.147-.774.147-.315.398-.461.251-.147.419-.21.167-.063.356-.063.921 0 .921.88 0 .419-.25.733-.252.314-.483.419-.23.105-.272.105l-.063.02q.042.105.398.252.356.147.712.147h.168q.356 0 .544-.042.692-.189 1.278-.796.586-.607.9-1.299.315-.69.482-1.173.168-.481.168-.628l-.126.084q-.125.084-.398.23-.272.147-.544.252-.42.104-.817.104-.964 0-1.697-.46-.733-.461-.963-1.487-.02-.147-.02-.65 0-1.193.732-3.12.733-1.927.733-2.45v-.294q0-.063-.084-.147-.083-.083-.23-.083h-.084q-.482 0-.88.398-.397.397-.628.858-.23.461-.356.88-.125.419-.167.46-.042.043-.335.043h-.294q-.125-.126-.125-.189zM559.202 213.942q.134-.8 1.028-1.847.895-1.047 2.21-1.066.666 0 1.218.343.552.342.818.857.8-1.2 1.923-1.2.705 0 1.219.419.514.419.533 1.123 0 .552-.266.895-.267.343-.515.419-.247.076-.437.076-.362 0-.59-.21-.23-.209-.23-.551 0-.876.953-1.2-.21-.247-.762-.247-.247 0-.362.038-.723.304-1.066 1.256-1.142 4.208-1.142 4.913 0 .533.304.761.305.229.667.229.704 0 1.39-.629.685-.628.933-1.542.057-.19.114-.21.057-.018.305-.037h.076q.285 0 .285.152 0 .019-.038.21-.304 1.085-1.18 1.922-.876.838-2.037.838-1.333 0-2.019-1.2-.78 1.181-1.79 1.181h-.114q-.933 0-1.332-.495-.4-.495-.42-1.047 0-.61.362-.99.362-.381.857-.381.819 0 .819.8 0 .38-.229.666-.228.286-.437.38-.21.096-.248.096l-.057.02q0 .018.114.075.114.057.305.134.19.076.362.057.685 0 1.18-.857.171-.305.438-1.295t.533-2.056q.267-1.066.305-1.257.095-.514.095-.742 0-.534-.286-.762-.285-.228-.647-.228-.762 0-1.428.609-.666.61-.933 1.561-.038.171-.095.19-.057.02-.305.039h-.266q-.115-.115-.115-.21zM265.394-21.07q0-.267.286-.914.285-.648.914-1.352.628-.705 1.408-.686.781 0 1.257.438.476.438.495 1.219-.038.362-.057.4 0 .057-.305.875-.304.82-.628 1.847-.324 1.029-.305 1.638 0 .819.267 1.142.267.324.8.343.438 0 .818-.21.381-.209.59-.437.21-.229.515-.629 0-.019.095-.38.095-.362.267-1.124.17-.762.361-1.409.724-2.856.8-2.99.247-.513.819-.513.247 0 .4.133.152.133.209.229.057.095.038.17 0 .248-.933 4-.933 3.75-1.066 4.112-.533 1.58-1.847 2.513-1.314.933-2.628.952-.856 0-1.504-.419-.647-.419-.647-1.256 0-.42.133-.705t.362-.419q.228-.133.38-.19.153-.057.324-.057.838 0 .838.8 0 .38-.228.666-.229.285-.438.38-.21.096-.248.096l-.057.019q.038.095.362.228.324.134.647.134h.153q.323 0 .495-.038.628-.172 1.161-.724t.819-1.18q.285-.629.438-1.067.152-.438.152-.57l-.114.075q-.114.076-.362.21-.247.133-.495.228-.38.095-.743.095-.875 0-1.542-.418-.666-.42-.876-1.352-.019-.134-.019-.59 0-1.086.667-2.837.666-1.752.666-2.228v-.267q0-.057-.076-.133-.076-.076-.21-.076h-.076q-.438 0-.8.362-.361.361-.57.78-.21.42-.324.8-.114.38-.153.419-.038.038-.304.038h-.267q-.114-.114-.114-.171z"/></svg>