<svg xmlns="http://www.w3.org/2000/svg" xmlns:xlink="http://www.w3.org/1999/xlink" id="svg482" width="480" height="380" preserveAspectRatio="none" version="1.1" viewBox="-10 -10 480 380"><style id="style419" type="text/css">.grid{stroke:#9e9ed1;stroke-width:.4}.axes{stroke:#000;stroke-width:.9}</style><defs id="defs424"><path id="STIXWEBMAIN-2212" stroke-width="1" d="M621 220H64v66h557z"/><path id="STIXWEBMAIN-31" stroke-width="1" d="M394 0H118v15c74 4 95 25 95 80v449c0 34-9 49-30 49-10 0-27-5-45-12l-27-10v14l179 91 9-3V76c0-43 20-61 95-61z"/><path id="STIXWEBMAIN-30" stroke-width="1" d="M476 330c0-172-63-344-226-344C79-14 24 172 24 336c0 177 69 340 230 340 131 0 222-141 222-346Zm-96-5c0 208-44 325-132 325-83 0-128-118-128-321S164 12 250 12c85 0 130 115 130 313z"/><clipPath id="trbl_clip_0_950_150_0"><path id="path171313" d="M0 0h950v150H0Z"/></clipPath><clipPath id="trbl_clip_0_950_150_0-1"><path id="path171313-4" d="M0 0h950v150H0Z"/></clipPath></defs><g id="layer4"><path id="path2917" d="M110.422 360V188.198m0 0V0" class="grid"/><path id="path2921" d="M350.422 360V188.198m0 0V0" class="grid"/><path id="path2923" d="M50.422 300h171.803m0 0h188.197" class="grid"/><path id="path2927" d="M50.422 60h171.803m0 0h188.197" class="grid"/><g id="g2951" style="display:inline;fill:#b8b8de;fill-opacity:1" transform="matrix(.01903 0 0 -.01903 209.422 -37.817)"><use xlink:href="#STIXWEBMAIN-31" id="use2949" x="0" y="0" style="fill:#b8b8de;fill-opacity:1" transform="translate(0 582.933)"/></g><path id="rect54029-5" d="M-51.911 173.127h13.487V180h-13.487z" style="fill:#f0f;fill-opacity:1;stroke:none;stroke-width:1;stroke-miterlimit:2;stroke-dasharray:none;stroke-dashoffset:0;stroke-opacity:1"/></g><g id="layer13"><path id="use301254" stroke-width=".019" d="m361.315 193.72-.247.096q-.267.095-.762.19t-1.104.133h-.362v-.875h.362q.895-.039 1.656-.286.762-.248 1.067-.457.304-.21.533-.419.038-.057.228-.057.171 0 .324.114v5.693l.019 5.712q.133.134.228.172.095.038.457.076t1.18.038h.496v.876h-.21q-.4-.057-3.027-.057-2.59 0-2.99.057h-.228v-.876H360.154q.304 0 .476-.02.171-.018.304-.056.134-.038.153-.038.019 0 .114-.096.095-.095.114-.076z" style="fill:#b8b8de;fill-opacity:1"/><g id="g301397" style="fill:#b8b8de;fill-opacity:1" transform="translate(7.67 204.726)"><path id="use301258" stroke-width=".019" d="M73.78-4.512v-.248q0-.248.267-.38h11.062q.285.152.285.38t-.285.38H74.047q-.267-.132-.267-.38Z" style="fill:#b8b8de;fill-opacity:1"/><path id="use301260" stroke-width=".019" d="m91.05-11.005-.248.095q-.267.095-.762.19-.495.096-1.104.134h-.362v-.876h.362q.895-.038 1.656-.286.762-.247 1.067-.457.304-.21.533-.419.038-.057.228-.057.172 0 .324.115v5.693l.019 5.712q.133.133.228.17.096.039.457.077.362.038 1.18.038h.496V0h-.21q-.4-.057-3.027-.057-2.59 0-2.99.057h-.228v-.876H89.888q.304 0 .476-.019.171-.019.304-.057.134-.038.153-.038.019 0 .114-.095t.114-.076z" style="fill:#b8b8de;fill-opacity:1"/></g><path id="path303393" stroke-width=".019" d="m212.963 41.415-.248.095q-.266.095-.761.19-.495.096-1.105.134h-.361v-.876h.361q.895-.038 1.657-.286.762-.247 1.066-.457.305-.21.533-.419.038-.057.229-.057.171 0 .323.115v5.693l.02 5.712q.133.133.228.17.095.039.457.077t1.18.038h.495v.876h-.209q-.4-.057-3.027-.057-2.59 0-2.99.057h-.228v-.876h1.218q.305 0 .476-.019.172-.019.305-.057.133-.038.152-.038.02 0 .115-.095t.114-.076z" style="fill:#b8b8de;fill-opacity:1"/><g id="g303401" style="fill:#b8b8de;fill-opacity:1" transform="translate(121.887 319.875)"><path id="path303397" stroke-width=".019" d="M73.78-4.512v-.248q0-.248.267-.38h11.062q.285.152.285.38t-.285.38H74.047q-.267-.132-.267-.38Z" style="fill:#b8b8de;fill-opacity:1"/><path id="path303399" stroke-width=".019" d="m91.05-11.005-.248.095q-.267.095-.762.19-.495.096-1.104.134h-.362v-.876h.362q.895-.038 1.656-.286.762-.247 1.067-.457.304-.21.533-.419.038-.057.228-.057.172 0 .324.115v5.693l.019 5.712q.133.133.228.17.096.039.457.077.362.038 1.18.038h.496V0h-.21q-.4-.057-3.027-.057-2.59 0-2.99.057h-.228v-.876H89.888q.304 0 .476-.019.171-.019.304-.057.134-.038.153-.038.019 0 .114-.095t.114-.076z" style="fill:#b8b8de;fill-opacity:1"/></g></g><g id="axes"><path id="path439" d="M50.422 180h360" class="axes"/><path id="path441" d="M230.422 360V0" class="axes"/></g><g id="layer2" style="display:inline"><path id="path14649" d="m41.004 432.99 214.788 107.081" style="fill:#000;fill-opacity:1;stroke:#000;stroke-width:1.8;stroke-miterlimit:2;stroke-dasharray:1.8,1.8;stroke-dashoffset:0"/><path id="path283207" d="m231.285 460.923 119.236 13.515" style="fill:#000;fill-opacity:1;stroke:#000;stroke-width:1.8;stroke-miterlimit:2;stroke-dasharray:1.8,1.8;stroke-dashoffset:0"/><path id="path14524" d="m179.59 602.41 53.54-107.394" style="fill:#000;fill-opacity:1;stroke:#000;stroke-width:1.8;stroke-miterlimit:2;stroke-dasharray:1.8,1.8;stroke-dashoffset:0"/><path id="path10324" d="M350.422 180a120 120 0 0 1-120 120 120 120 0 0 1-120-120 120 120 0 0 1 120-120 120 120 0 0 1 120 120z" style="fill:none;stroke:#000;stroke-width:1.8;stroke-miterlimit:2"/><path id="path640" d="M123.029 126.46A120 120 0 0 1 230.422 60a120 120 0 0 1 53.54 12.605A120 120 0 0 1 350.421 180a120 120 0 0 1-12.606 53.54A120 120 0 0 1 230.422 300a120 120 0 0 1-53.54-12.606A120 120 0 0 1 110.422 180a120 120 0 0 1 12.607-53.54" style="fill:none;stroke:#000;stroke-width:1.8;stroke-miterlimit:2"/><path id="path10455" d="M-106.777-30.41a120 120 0 0 1-120 120 120 120 0 0 1-120-120 120 120 0 0 1 120-120 120 120 0 0 1 120 120z" style="fill:none;stroke:#000;stroke-width:1.8;stroke-miterlimit:2"/><circle id="circle12878" cx="-134.935" cy="287.394" r="12.605" style="fill:#dd0;fill-opacity:1;stroke:none;stroke-width:1.8;stroke-miterlimit:2;stroke-dasharray:none"/><circle id="circle12880" cx="-164.747" cy="125.222" r="12.605" style="fill:#0c0;fill-opacity:1;stroke:none;stroke-width:1.8;stroke-miterlimit:2;stroke-dasharray:none"/><path id="path15451" d="m490.783 1403.31-214.788-107.081 107.081-214.788 214.788 107.08Z" style="fill:none;fill-opacity:1;stroke:#000;stroke-width:1.8;stroke-miterlimit:2;stroke-dasharray:none;stroke-dashoffset:0"/><path id="path15455" d="m-342.707 194.72-19.825-9.883 9.884-19.825 19.825 9.883z" style="fill:none;fill-opacity:1;stroke:#000;stroke-width:.7;stroke-miterlimit:2;stroke-dasharray:none;stroke-dashoffset:0"/><path id="path17844" d="m1149.58 287.394 107.08-214.789m-160.933 53.855 214.788 107.08" style="fill:#000;fill-opacity:1;stroke:#000;stroke-width:3;stroke-miterlimit:2;stroke-dasharray:none;stroke-dashoffset:0"/><path id="path17846" d="m1207.89 194.72-19.825-9.883 9.884-19.825 19.826 9.883z" style="fill:none;fill-opacity:1;stroke:#000;stroke-width:.7;stroke-miterlimit:2;stroke-dasharray:none;stroke-dashoffset:0"/><ellipse id="ellipse25418" cx="180" cy="-345.543" rx="141.053" ry="141.672" style="fill:none;fill-opacity:1;stroke:#000;stroke-width:1.3;stroke-miterlimit:2;stroke-dasharray:none;stroke-dashoffset:0"/><path id="path25420" d="M222.428-505.701 180-345.543l106.316-135.573" style="fill:none;fill-opacity:1;stroke:#000;stroke-width:1.3;stroke-miterlimit:2;stroke-dasharray:none;stroke-dashoffset:0"/><path id="path26292" d="m322.247-173.966 1.516 8.293-8.282.729" style="fill:none;fill-opacity:1;stroke:#000;stroke-width:1.3;stroke-miterlimit:2;stroke-dasharray:none;stroke-dashoffset:0;stroke-opacity:1"/><g id="g31216" transform="translate(948.304 -110.038)"><path id="path31210" d="M216.268 43.091a141.053 141.672 0 0 1 51.009 25.613" style="fill:none;fill-opacity:1;stroke:#000;stroke-width:1.3;stroke-miterlimit:2;stroke-dasharray:none;stroke-dashoffset:0"/><path id="path31212" d="M222.428 19.841 180 180 286.315 44.426" style="fill:none;fill-opacity:1;stroke:#000;stroke-width:1.3;stroke-miterlimit:2;stroke-dasharray:none;stroke-dashoffset:0"/><path id="path31214" stroke-linejoin="round" d="M266.281 60.252c-1.465 1.96-.081 7.611 1.113 8.515-1.194-.904-6.976-.675-8.442 1.285" class="difference-arrows-tips" style="display:inline;fill:none;stroke:#000;stroke-width:1.5;stroke-linecap:round;stroke-linejoin:round;stroke-dasharray:none"/></g><g id="g44298" transform="translate(101.334 -108.187)"><path id="path25424" d="M216.268 43.091a141.053 141.672 0 0 1 51.009 25.613" style="fill:none;fill-opacity:1;stroke:#000;stroke-width:1.3;stroke-miterlimit:2;stroke-dasharray:none;stroke-dashoffset:0"/><path id="path117967" stroke-linejoin="round" d="M266.281 60.252c-1.465 1.96-.081 7.611 1.113 8.515-1.194-.904-6.976-.675-8.442 1.285" class="difference-arrows-tips" style="display:inline;fill:none;stroke:#000;stroke-width:1.5;stroke-linecap:round;stroke-linejoin:round;stroke-dasharray:none"/><path id="path36489" d="m228.7 25.752-1.273 3.979q-.318.992-.369 1.254-.05.261.094.446.152.188.641.344l-.109.341q-1.13-.345-1.72-.289l-.09-.028q-.106-.484.2-1.489-.678.56-1.377.728-.692.17-1.395-.055-.608-.194-.987-.617-.377-.431-.426-.888-.043-.455.216-1.262l.66-2.067q.338-1.052.374-1.294.039-.249-.126-.424-.157-.173-.683-.34l.11-.342 2.059.66-1.347 4.207q-.199.623-.215.928-.016.305.22.617.237.305.637.433.57.182 1.207-.022.64-.212.958-.568.328-.36.576-1.138l.439-1.37q.318-.994.364-1.216.047-.222-.074-.432-.111-.215-.637-.383l-.156-.05.11-.34z" style="font-size:25px;font-family:Baskerville;-inkscape-font-specification:Baskerville;text-align:center;text-anchor:middle;stroke:#000;stroke-width:0;stroke-miterlimit:2;stroke-dasharray:none"/><path id="path36491" d="m232.295 26.797.195.078q-.012.514-.298 1.296.765-.407 1.457-.483.691-.076 1.313.171.708.282 1.038.757.337.477.295.963-.04.478-.368 1.302l-.737 1.85q-.408 1.026-.461 1.264-.053.239.088.43.152.185.665.39l-.132.332-3.028-1.206.132-.332.138.055q.52.207.74.118.219-.088.321-.282.102-.194.497-1.184l.76-1.907q.278-.701.324-1.026.056-.33-.155-.682-.205-.35-.667-.533-.528-.21-1.139-.085-.6.12-1.277.58l-.961 2.413q-.409 1.026-.462 1.265-.046.241.096.431.152.187.672.394l-.132.332-2.992-1.191.133-.333q.498.199.734.175.235-.023.359-.208.134-.19.566-1.274l.702-1.763q.411-1.033.454-1.267.053-.239-.099-.425-.142-.19-.662-.397l.133-.333q.829.23 1.758.315z" style="font-size:25px;font-family:Baskerville;-inkscape-font-specification:Baskerville;text-align:center;text-anchor:middle;stroke:#000;stroke-width:0;stroke-miterlimit:2;stroke-dasharray:none"/><path id="path36493" d="M240.64 26.658q.134-.306.444-.434.318-.124.624.01t.424.449q.117.314-.018.62-.137.314-.447.441-.31.128-.617-.006t-.43-.452q-.118-.315.019-.628zm.071 3.58-1.781 4.07q-.409.933-.486 1.188-.078.254.044.46.122.207.578.406l.15.066-.144.328-3.142-1.376.143-.328.243.106q.506.222.718.145.222-.081.33-.271.12-.194.547-1.17l.773-1.768q.45-1.026.45-1.298.007-.268-.132-.397-.132-.126-.531-.3l-.192-.085.143-.327q1.325.427 2.132.483z" style="font-size:25px;font-family:Baskerville;-inkscape-font-specification:Baskerville;text-align:center;text-anchor:middle;stroke:#000;stroke-width:0;stroke-miterlimit:2;stroke-dasharray:none"/><path id="path36495" d="M245.318 32.784 243.563 32l-1.568 3.517q-.36.81-.416 1.126-.053.309.098.58.159.275.422.393.511.228 1.147-.187l.168.236q-.43.371-.97.42-.532.044-.972-.153-.512-.228-.77-.7-.247-.477-.166-.926.089-.446.542-1.462l1.47-3.297-.846-.377.146-.326q.588.245 1.262-.025.675-.27 1.186-1.073l.227.102-.814 1.826 1.755.782z" style="font-size:25px;font-family:Baskerville;-inkscape-font-specification:Baskerville;text-align:center;text-anchor:middle;stroke:#000;stroke-width:0;stroke-miterlimit:2;stroke-dasharray:none"/><path id="path36497" d="m246.452 40.222.89-1.893.275.13q-.293 1.864.94 2.444.534.251.947.05.42-.198.602-.585.212-.45.066-.871-.153-.425-.791-1.224-.671-.84-.856-1.434-.188-.587.093-1.185.269-.57.918-.892.654-.329 1.393.019.753.354.958 1.198.155-.056.516-.384l.26.122-.837 1.78-.26-.122q.16-.706-.034-1.356-.182-.653-.731-.911-.423-.2-.806-.061-.382.138-.545.483-.178.38-.02.79.15.414.777 1.147.941 1.105.967 1.745.022.646-.203 1.125-.354.753-1.076.99-.714.24-1.467-.115-.796-.374-1.107-1.32-.29.122-.595.46z" style="font-size:25px;font-family:Baskerville;-inkscape-font-specification:Baskerville;text-align:center;text-anchor:middle;stroke:#000;stroke-width:0;stroke-miterlimit:2;stroke-dasharray:none"/><path id="path36499" d="m255.238 37.154.184.1q-.093.446-.388.985.69-.225 1.312-.178.632.044 1.192.35 1.16.633 1.484 1.874.328 1.234-.403 2.572-.716 1.31-1.975 1.766-1.253.459-2.515-.231-.52-.283-.881-.756-.36-.462-.56-1.103l-1.159 2.123q-.53.97-.61 1.2-.076.234.046.433.118.206.602.471l-.171.314-2.922-1.596.172-.314.205.112q.484.265.706.2.225-.055.353-.242.132-.176.643-1.111l2.774-5.079q.489-.894.588-1.141.106-.244.003-.46-.103-.216-.54-.454l-.205-.112.172-.314q.713.3 1.893.59zm-2.303 4.929q.122.651.405 1.107.294.453.751.703.771.421 1.707.072.935-.349 1.725-1.796.686-1.256.473-2.179-.214-.923-.978-1.34-.471-.258-1.025-.25-.554.007-1.2.283z" style="font-size:25px;font-family:Baskerville;-inkscape-font-specification:Baskerville;text-align:center;text-anchor:middle;stroke:#000;stroke-width:0;stroke-miterlimit:2;stroke-dasharray:none"/><path id="path36501" d="m264.622 45.413-3.78-2.332q-.268.375-.387.567-.881 1.43-.883 2.425.01.993.897 1.54 1.205.743 2.373-.026l.318.196q-.628.545-1.494.54-.862-.01-1.603-.467-.689-.425-1.092-1.149-.393-.726-.392-1.603.001-.876.561-1.783.792-1.285 2.07-1.667 1.28-.388 2.413.31 1.066.657 1.249 1.665.182 1.008-.25 1.784zm-.996-.98q.114-.14.188-.259.359-.583.21-1.113-.137-.532-.634-.839-1.205-.743-2.359.61z" style="font-size:25px;font-family:Baskerville;-inkscape-font-specification:Baskerville;text-align:center;text-anchor:middle;stroke:#000;stroke-width:0;stroke-miterlimit:2;stroke-dasharray:none"/><path id="path36503" d="m270.032 48.921-3.724-2.42q-.276.369-.4.558-.915 1.409-.94 2.404-.013.992.86 1.56 1.188.771 2.374.03l.313.204q-.64.53-1.506.505-.861-.03-1.592-.505-.678-.44-1.064-1.174-.376-.736-.354-1.612.022-.876.602-1.77.822-1.265 2.108-1.617 1.29-.359 2.406.366 1.05.682 1.21 1.694.158 1.013-.293 1.777zm-.972-1.002q.117-.137.194-.255.373-.574.237-1.107-.125-.536-.615-.854-1.187-.771-2.373.555z" style="font-size:25px;font-family:Baskerville;-inkscape-font-specification:Baskerville;text-align:center;text-anchor:middle;stroke:#000;stroke-width:0;stroke-miterlimit:2;stroke-dasharray:none"/><path id="path36505" d="m275.973 51.373 1.368-2.079q.56-.851.68-1.089.126-.234.04-.458-.085-.223-.5-.497l-.137-.09.196-.299q.8.498 1.902.86l.136.09-4.708 7.154q-.612.93-.712 1.152-.1.223.004.431.111.213.58.521l-.197.3q-.955-.601-1.788-.935.123-.357.555-1.013-.797.164-1.469.067-.665-.093-1.21-.453-1.034-.68-1.24-2.007-.2-1.324.578-2.506.856-1.3 2.149-1.594 1.296-.302 2.356.396.539.355.891.866.353.511.525 1.183zm-.248.377q-.185-.652-.501-1.12-.305-.472-.74-.758-.734-.483-1.6-.243-.86.244-1.702 1.524-.855 1.3-.761 2.247.1.95.84 1.438.495.325 1.071.369.576.044 1.242-.189z" style="font-size:25px;font-family:Baskerville;-inkscape-font-specification:Baskerville;text-align:center;text-anchor:middle;stroke:#000;stroke-width:0;stroke-miterlimit:2;stroke-dasharray:none"/></g><g id="g37358" aria-label="unit speed" style="font-size:25px;font-family:Baskerville;-inkscape-font-specification:Baskerville;text-align:center;text-anchor:middle;stroke-width:2.04012;stroke-miterlimit:2" transform="scale(.63722) rotate(26.362 963.726 257.005)"><path id="path37340" d="M183.234 14.397v6.555q0 1.636.049 2.05.048.416.354.623.317.208 1.123.208v.561q-1.856.025-2.71.39h-.147q-.39-.67-.415-2.319-.745 1.16-1.709 1.746-.952.586-2.112.586-1 0-1.77-.452-.769-.464-1.062-1.123-.28-.659-.28-1.99v-3.405q0-1.734-.061-2.112-.061-.39-.391-.574-.318-.183-1.184-.183v-.561h3.393v6.933q0 1.026.122 1.49.122.463.623.817.5.342 1.16.342.94 0 1.794-.61.855-.623 1.16-1.306.317-.696.317-1.978v-2.258q0-1.636-.036-1.99-.037-.354-.318-.61-.268-.269-1.135-.269h-.256v-.561z" style="stroke-width:2.04012"/><path id="path37342" d="M188.837 13.994h.33q.28.757.317 2.063.879-1.038 1.843-1.55.964-.513 2.014-.513 1.196 0 1.953.5.77.5.989 1.233.22.72.22 2.112v3.125q0 1.733.06 2.112.062.378.38.574.329.183 1.195.183v.561h-5.114v-.561h.232q.879 0 1.147-.257.269-.256.305-.598.037-.342.037-2.014v-3.223q0-1.184-.122-1.684-.11-.513-.623-.904-.5-.39-1.281-.39-.892 0-1.71.537-.805.525-1.525 1.587v4.077q0 1.733.06 2.112.074.378.391.574.33.183 1.209.183v.561h-5.054v-.561q.842 0 1.172-.171.33-.171.403-.513.085-.354.085-2.185v-2.979q0-1.745-.073-2.111-.061-.379-.39-.562-.318-.195-1.197-.195v-.562q1.343-.146 2.747-.561z" style="stroke-width:2.04012"/><path id="path37344" d="M200.348 8.891q0-.525.366-.903.379-.379.904-.379.524 0 .89.379.367.378.367.903 0 .537-.366.916-.367.378-.891.378-.525 0-.904-.378-.366-.379-.366-.916zm2.356 5.103v6.97q0 1.6.049 2.014.049.415.354.635.305.22 1.086.22h.257v.561h-5.384v-.561h.415q.867 0 1.123-.245.269-.256.305-.598.05-.354.05-2.026v-3.027q0-1.758-.172-2.149-.158-.39-.44-.488-.268-.098-.951-.098h-.33v-.561q2.173-.22 3.37-.647z" style="stroke-width:2.04012"/><path id="path37346" d="M211.786 14.958h-3.015v6.043q0 1.391.122 1.88.122.476.513.769.402.293.854.293.879 0 1.526-1.001l.39.231q-.378.806-1.122 1.221-.733.403-1.49.403-.879 0-1.55-.513-.66-.525-.83-1.22-.159-.696-.159-2.442v-5.664h-1.452v-.561q1-.025 1.794-.843.793-.818 1.013-2.295h.39v3.138h3.016z" style="stroke-width:2.04012"/><path id="path37348" d="M219.476 24.712v-3.284h.476q.83 2.844 2.967 2.844.928 0 1.38-.561.463-.562.463-1.233 0-.782-.488-1.282-.5-.5-1.941-1.209-1.514-.744-2.173-1.464-.66-.708-.66-1.746 0-.989.709-1.88.708-.903 1.99-.903 1.306 0 2.16 1.062.183-.183.476-.891h.452v3.088h-.452q-.244-1.11-.952-1.904-.696-.806-1.648-.806-.732 0-1.184.452-.452.451-.452 1.05 0 .659.5 1.135.49.488 1.869 1.11 2.075.94 2.539 1.832.464.903.464 1.733 0 1.306-.867 2.124-.855.818-2.16.818-1.38 0-2.454-1.135-.33.366-.538 1.05z" style="stroke-width:2.04012"/><path id="path37350" d="M229.889 13.994h.33q.207.683.207 1.648.781-.83 1.672-1.233.904-.415 1.905-.415 2.075 0 3.454 1.465 1.38 1.452 1.38 3.845 0 2.344-1.392 3.918-1.38 1.575-3.638 1.575-.927 0-1.782-.378-.842-.367-1.599-1.1v3.797q0 1.734.061 2.112.073.379.39.562.318.195 1.185.195v.562h-5.225v-.562h.366q.867 0 1.123-.256.269-.245.306-.599.048-.341.048-2.014v-9.082q0-1.599-.048-2.014-.037-.415-.342-.635-.305-.22-1.087-.22h-.366v-.56q1.209-.123 3.052-.611zm.537 8.52q.66.806 1.392 1.221.744.403 1.562.403 1.38 0 2.405-1.184t1.025-3.772q0-2.246-.988-3.357-.99-1.111-2.356-1.111-.843 0-1.6.427-.756.427-1.44 1.294z" style="stroke-width:2.04012"/><path id="path37352" d="M249.81 17.778h-6.97q-.048.72-.048 1.074 0 2.637.818 3.967.83 1.319 2.466 1.319 2.221 0 3.149-1.99h.586q-.39 1.245-1.55 1.953-1.16.696-2.527.696-1.27 0-2.405-.635-1.123-.647-1.843-1.819-.72-1.171-.72-2.844 0-2.368 1.391-3.93 1.392-1.575 3.48-1.575 1.964 0 3.039 1.196 1.074 1.196 1.135 2.588zm-2.135-.488q.036-.281.036-.5 0-1.075-.635-1.661-.622-.598-1.538-.598-2.221 0-2.649 2.759z" style="stroke-width:2.04012"/><path id="path37354" d="M260.748 17.778h-6.97q-.049.72-.049 1.074 0 2.637.818 3.967.83 1.319 2.466 1.319 2.222 0 3.15-1.99h.585q-.39 1.245-1.55 1.953-1.16.696-2.527.696-1.27 0-2.405-.635-1.123-.647-1.843-1.819-.72-1.171-.72-2.844 0-2.368 1.392-3.93 1.391-1.575 3.479-1.575 1.965 0 3.04 1.196 1.073 1.196 1.134 2.588zm-2.136-.488q.037-.281.037-.5 0-1.075-.635-1.661-.623-.598-1.538-.598-2.222 0-2.649 2.759z" style="stroke-width:2.04012"/><path id="path37356" d="M271.088 15.459v-3.907q0-1.599-.05-2.014-.036-.415-.34-.635-.306-.22-1.087-.22h-.257v-.56q1.477-.037 3.235-.514h.257v13.44q0 1.746.06 2.124.062.379.379.562.33.183 1.208.183v.562q-1.77.036-3.149.317-.146-.574-.146-1.807-.904.904-1.868 1.355-.952.452-1.978.452-1.94 0-3.357-1.563-1.403-1.562-1.403-3.784 0-2.441 1.44-3.943 1.44-1.513 3.43-1.513 1.013 0 1.917.366.903.366 1.709 1.099zm0 .708q-.806-.696-1.624-1.038-.805-.354-1.623-.354-1.38 0-2.307 1.062-.916 1.062-.916 3.467 0 2.441.94 3.6.952 1.16 2.344 1.16.927 0 1.72-.439.794-.44 1.466-1.318z" style="stroke-width:2.04012"/></g><text xml:space="preserve" id="text45873" x="464.926" y="-108.09" style="font-style:normal;font-variant:normal;font-weight:400;font-stretch:normal;font-size:21.5px;font-family:Baskerville;-inkscape-font-specification:Baskerville;text-align:center;text-anchor:middle;fill:#000;fill-opacity:1;stroke:#f0f;stroke-width:0;stroke-miterlimit:2;stroke-dasharray:none;stroke-dashoffset:0;stroke-opacity:1"><tspan id="tspan45871" x="464.926" y="-108.09" style="font-style:normal;font-variant:normal;font-weight:400;font-stretch:normal;font-size:21.5px;font-family:&quot;Song Myung&quot;;-inkscape-font-specification:&quot;Song Myung&quot;;fill:#000">PARTICLE 2</tspan></text><text xml:space="preserve" id="text45927" x="464.926" y="-78.152" style="font-style:normal;font-variant:normal;font-weight:400;font-stretch:normal;font-size:21.5px;font-family:Baskerville;-inkscape-font-specification:Baskerville;text-align:center;text-anchor:middle;fill:#000;fill-opacity:1;stroke:#f0f;stroke-width:0;stroke-miterlimit:2;stroke-dasharray:none;stroke-dashoffset:0;stroke-opacity:1"><tspan id="tspan45929" x="464.926" y="-78.152" style="font-style:normal;font-variant:normal;font-weight:400;font-stretch:normal;font-size:21.5px;font-family:&quot;Song Myung&quot;;-inkscape-font-specification:&quot;Song Myung&quot;;fill:#000">PARTICLE 3</tspan></text><text xml:space="preserve" id="text45935" x="464.926" y="-48.214" style="font-style:normal;font-variant:normal;font-weight:400;font-stretch:normal;font-size:21.5px;font-family:Baskerville;-inkscape-font-specification:Baskerville;text-align:center;text-anchor:middle;fill:#000;fill-opacity:1;stroke:#f0f;stroke-width:0;stroke-miterlimit:2;stroke-dasharray:none;stroke-dashoffset:0;stroke-opacity:1"><tspan id="tspan45933" x="464.926" y="-48.214" style="font-style:normal;font-variant:normal;font-weight:400;font-stretch:normal;font-size:21.5px;font-family:&quot;Song Myung&quot;;-inkscape-font-specification:&quot;Song Myung&quot;;fill:#000">PARTICLE 4</tspan></text><path id="rect52016" d="M-243.844 339.872h108.41V359.5h-108.41z" style="fill:#fea;fill-opacity:1;stroke:#2b2200;stroke-width:1;stroke-miterlimit:2;stroke-dasharray:none;stroke-dashoffset:0;stroke-opacity:1"/><path id="rect46365" d="M24.558-162.125H149.57v8.894l44.39 2.264-1.427 52.068 14.006 4.106-17.73 1.984-3.412-50.912-35.827 1.36v9.372H24.558Z" style="fill:#fea;stroke:#2b2200;stroke-miterlimit:2"/><path id="path52905" d="M263.217-29.522h-27.902v-50.054H223.73v8.21H115.32v-19.628h108.41v8.291h14.712v50.055h24.775v-3.066l4.615 4.615-4.615 4.614z" style="fill:#fea;fill-opacity:1;stroke:#2b2200;stroke-width:1;stroke-miterlimit:2;stroke-dasharray:none;stroke-dashoffset:0;stroke-opacity:1"/><g id="g52004" transform="translate(-21.742 -158.602)"><g id="g46085" style="stroke-width:1.16635" transform="matrix(.85737 0 0 .85737 -337.793 62.994)"><path id="path46010" d="M564.14 18.417c-1.13.328-.24 2.991-.333 4.07 2.898.329.933 1.793-1.045 1.262-1.111.179-4.93-.009-2.468-1.04 1.61-.566.567-3.067.858-4.526-.094-2.27.199-4.617-.172-6.84-2.823-.396-.69-1.758 1.163-1.246 2.917.028 7-.494 8.152 2.967 1.084 3.862-3.018 5.58-6.155 5.353zm.473-7.267c-1.94-.284-.565 2.794-.967 4.014-1.073 2.954 2.529 2.786 3.871.845 1.345-2.173-.136-5.275-2.904-4.859z" style="font-size:21.5px;font-family:&quot;Song Myung&quot;;-inkscape-font-specification:&quot;Song Myung&quot;;text-align:center;text-anchor:middle;stroke:#f0f;stroke-width:0;stroke-miterlimit:2"/><path id="path46012" d="M582.931 22.266c2.572.845.813 1.89-1.206 1.483-1.303.403-4.54-.485-1.804-1.075.737-.587-.062-3.404-1.2-3.268-1.22.268-3.201-.548-3.92.43-1.012 1.727-.775 2.81.863 3.44-1.04.911-3.119.391-4.552.355.379-1.147 2.577-1.568 2.56-3.638 1.265-3.244 2.26-6.633 3.69-9.789 1.826-.513 1.685 2.22 2.384 3.324l3.185 8.738zm-7.61-3.913c1.016-.272 3.579.556 3.59-.431l-1.677-4.837-1.914 5.268z" style="font-size:21.5px;font-family:&quot;Song Myung&quot;;-inkscape-font-specification:&quot;Song Myung&quot;;text-align:center;text-anchor:middle;stroke:#f0f;stroke-width:0;stroke-miterlimit:2"/><path id="path46014" d="M596.24 22.18c1.362.438 2.918 1.87.086 1.784-2.803.422-2.814-2.655-3.29-4.558-.348-2.445-4.448-2.706-3.29.183-.318 1.892.285 3.129 1.85 3.687-1.003.982-2.993.244-4.417.473-2.978.068-.383-.91.074-2.09-.06-3.428.217-6.933-.15-10.315-2.823-.397-.69-1.759 1.163-1.247 2.863.115 6.99-.733 8.173 2.698 1.833 3.164-5.07 4.059-1.661 5.257.987 1.149 1.048 2.735 1.462 4.128zm-6.493-5.698c2.996.968 6.12-2.804 3.204-4.969-1.985-.935-3.88-.542-3.204 1.84v3.13z" style="font-size:21.5px;font-family:&quot;Song Myung&quot;;-inkscape-font-specification:&quot;Song Myung&quot;;text-align:center;text-anchor:middle;stroke:#f0f;stroke-width:0;stroke-miterlimit:2"/><path id="path46016" d="M609.097 11.688c-.718-.724-3.753-1.124-3.075.795.09 3.334-.195 6.729.172 10.02 2.716.156 1.342 1.795-.742 1.246-1.094-.16-4.746.57-3.429-.989 2.237.24 1.32-2.486 1.505-3.893-.007-2.558.024-5.116-.043-7.674-1.522-.107-3.527-.268-3.24 1.848-1.21 2.32-1.83-.966-1.41-2.228.612-1.399 2.867-.428 4.216-.716 2.491.09 5.042-.182 7.497.134.386 1.12.6 4.846-1.193 3.134l-.258-1.677z" style="font-size:21.5px;font-family:&quot;Song Myung&quot;;-inkscape-font-specification:&quot;Song Myung&quot;;text-align:center;text-anchor:middle;stroke:#f0f;stroke-width:0;stroke-miterlimit:2"/><path id="path46018" d="M618.148 10.57c-1.87.478-2.013 2.252-1.827 4.18.078 2.58-.173 5.212.16 7.752 2.831.388.71 1.762-1.152 1.247-1.104.195-4.805-.026-2.36-1.04 1.61-.566.567-3.067.858-4.526-.094-2.27.199-4.617-.172-6.84-2.823-.396-.69-1.758 1.163-1.246 1.033.216 2.733-.49 3.33.473z" style="font-size:21.5px;font-family:&quot;Song Myung&quot;;-inkscape-font-specification:&quot;Song Myung&quot;;text-align:center;text-anchor:middle;stroke:#f0f;stroke-width:0;stroke-miterlimit:2"/><path id="path46020" d="M629.522 20.524c1.67-1.973 2.263 2.614.66 2.946-4.047 1.74-9.787-.18-10.357-4.994-1.218-4.73 3.122-9.527 7.96-8.659 2.5-.532 4.08 2.512 2.554 4.042-1.674-.542-1.155-4.457-4.424-2.854-4.058 1.432-4.363 7.321-2.168 10.445 1.429 2.02 6.146 2.47 5.775-.926z" style="font-size:21.5px;font-family:&quot;Song Myung&quot;;-inkscape-font-specification:&quot;Song Myung&quot;;text-align:center;text-anchor:middle;stroke:#f0f;stroke-width:0;stroke-miterlimit:2"/><path id="path46022" d="M641.798 20.288c1.9-1.668 1.51 1.736 1.355 2.945-.959 1.063-2.996.272-4.417.516-1.982-.078-4.009.157-5.963-.118.683-1.043 2.478-1.802 1.694-4.1-.095-2.72.2-5.515-.172-8.187-2.823-.397-.69-1.759 1.163-1.247 1.106-.185 4.842.007 2.425 1.057-1.735.461-.596 3.097-.922 4.53.016 2.33-.04 4.661.043 6.99 1.425-.23 3.352.511 4.407-.473l.387-1.913z" style="font-size:21.5px;font-family:&quot;Song Myung&quot;;-inkscape-font-specification:&quot;Song Myung&quot;;text-align:center;text-anchor:middle;stroke:#f0f;stroke-width:0;stroke-miterlimit:2"/><path id="path46024" d="M654.333 20.61c1.753-1.688 1.542 1.907 1.166 3.01-3.358.298-6.804.046-10.196.13-.912-.998 2.534-1.582 1.29-3.97-.095-2.803.2-5.68-.172-8.436-2.823-.397-.69-1.759 1.163-1.247 2.495.087 5.046-.174 7.506.129.366 1.097.618 4.666-1.166 3.031.192-1.926-1.318-2.353-2.935-2.064-1.835-.523-2.164.563-1.902 2.16.241 1.088-.767 3.426 1.14 2.85 1.971 1.044 2.38-3.794 3.009-.67.01 1.086.324 4.835-1.124 2.873.401-1.497-3.265-1.721-3.025-.465.01 1.578-.03 3.156.043 4.733 1.568-.084 3.189.168 4.724-.123.362-.57.311-1.302.479-1.94z" style="font-size:21.5px;font-family:&quot;Song Myung&quot;;-inkscape-font-specification:&quot;Song Myung&quot;;text-align:center;text-anchor:middle;stroke:#f0f;stroke-width:0;stroke-miterlimit:2"/><path id="path46026" d="M670.786 21.922c.8.725 4.483 1.52 1.324 1.827-2.091-.064-4.215.132-6.285-.102-.074-1.555 3.629-.424 2.682-2.866-.085-2.824.172-5.703-.129-8.491-2.247.375-2.465-1.25-.107-1.403 1.536-.698 3.16-.74 2.545 1.395-.066 3.212-.012 6.427-.03 9.64z" style="font-size:21.5px;font-family:&quot;Song Myung&quot;;-inkscape-font-specification:&quot;Song Myung&quot;;text-align:center;text-anchor:middle;stroke:#f0f;stroke-width:0;stroke-miterlimit:2"/></g></g><path id="rect51379" d="M-256.199 173.23h108.41v19.628h-108.41z" style="fill:#fea;fill-opacity:1;stroke:#2b2200;stroke-width:1;stroke-miterlimit:2;stroke-dasharray:none;stroke-dashoffset:0;stroke-opacity:1"/><path id="rect52855" d="M115.32-62.758h108.41v19.628H115.32z" style="fill:#fea;fill-opacity:1;stroke:#2b2200;stroke-width:1;stroke-miterlimit:2;stroke-dasharray:none;stroke-dashoffset:0;stroke-opacity:1"/><g id="g52875" style="stroke-width:1.16635" transform="matrix(.85737 0 0 .85737 -359.535 -67.372)"><path id="path52857" d="M564.14 18.417c-1.13.328-.24 2.991-.333 4.07 2.898.329.933 1.793-1.045 1.262-1.111.179-4.93-.009-2.468-1.04 1.61-.566.567-3.067.858-4.526-.094-2.27.199-4.617-.172-6.84-2.823-.396-.69-1.758 1.163-1.246 2.917.028 7-.494 8.152 2.967 1.084 3.862-3.018 5.58-6.155 5.353zm.473-7.267c-1.94-.284-.565 2.794-.967 4.014-1.073 2.954 2.529 2.786 3.871.845 1.345-2.173-.136-5.275-2.904-4.859z" style="font-size:21.5px;font-family:&quot;Song Myung&quot;;-inkscape-font-specification:&quot;Song Myung&quot;;text-align:center;text-anchor:middle;stroke:#f0f;stroke-width:0;stroke-miterlimit:2"/><path id="path52859" d="M582.931 22.266c2.572.845.813 1.89-1.206 1.483-1.303.403-4.54-.485-1.804-1.075.737-.587-.062-3.404-1.2-3.268-1.22.268-3.201-.548-3.92.43-1.012 1.727-.775 2.81.863 3.44-1.04.911-3.119.391-4.552.355.379-1.147 2.577-1.568 2.56-3.638 1.265-3.244 2.26-6.633 3.69-9.789 1.826-.513 1.685 2.22 2.384 3.324l3.185 8.738zm-7.61-3.913c1.016-.272 3.579.556 3.59-.431l-1.677-4.837-1.914 5.268z" style="font-size:21.5px;font-family:&quot;Song Myung&quot;;-inkscape-font-specification:&quot;Song Myung&quot;;text-align:center;text-anchor:middle;stroke:#f0f;stroke-width:0;stroke-miterlimit:2"/><path id="path52861" d="M596.24 22.18c1.362.438 2.918 1.87.086 1.784-2.803.422-2.814-2.655-3.29-4.558-.348-2.445-4.448-2.706-3.29.183-.318 1.892.285 3.129 1.85 3.687-1.003.982-2.993.244-4.417.473-2.978.068-.383-.91.074-2.09-.06-3.428.217-6.933-.15-10.315-2.823-.397-.69-1.759 1.163-1.247 2.863.115 6.99-.733 8.173 2.698 1.833 3.164-5.07 4.059-1.661 5.257.987 1.149 1.048 2.735 1.462 4.128zm-6.493-5.698c2.996.968 6.12-2.804 3.204-4.969-1.985-.935-3.88-.542-3.204 1.84v3.13z" style="font-size:21.5px;font-family:&quot;Song Myung&quot;;-inkscape-font-specification:&quot;Song Myung&quot;;text-align:center;text-anchor:middle;stroke:#f0f;stroke-width:0;stroke-miterlimit:2"/><path id="path52863" d="M609.097 11.688c-.718-.724-3.753-1.124-3.075.795.09 3.334-.195 6.729.172 10.02 2.716.156 1.342 1.795-.742 1.246-1.094-.16-4.746.57-3.429-.989 2.237.24 1.32-2.486 1.505-3.893-.007-2.558.024-5.116-.043-7.674-1.522-.107-3.527-.268-3.24 1.848-1.21 2.32-1.83-.966-1.41-2.228.612-1.399 2.867-.428 4.216-.716 2.491.09 5.042-.182 7.497.134.386 1.12.6 4.846-1.193 3.134l-.258-1.677z" style="font-size:21.5px;font-family:&quot;Song Myung&quot;;-inkscape-font-specification:&quot;Song Myung&quot;;text-align:center;text-anchor:middle;stroke:#f0f;stroke-width:0;stroke-miterlimit:2"/><path id="path52865" d="M618.148 10.57c-1.87.478-2.013 2.252-1.827 4.18.078 2.58-.173 5.212.16 7.752 2.831.388.71 1.762-1.152 1.247-1.104.195-4.805-.026-2.36-1.04 1.61-.566.567-3.067.858-4.526-.094-2.27.199-4.617-.172-6.84-2.823-.396-.69-1.758 1.163-1.246 1.033.216 2.733-.49 3.33.473z" style="font-size:21.5px;font-family:&quot;Song Myung&quot;;-inkscape-font-specification:&quot;Song Myung&quot;;text-align:center;text-anchor:middle;stroke:#f0f;stroke-width:0;stroke-miterlimit:2"/><path id="path52867" d="M629.522 20.524c1.67-1.973 2.263 2.614.66 2.946-4.047 1.74-9.787-.18-10.357-4.994-1.218-4.73 3.122-9.527 7.96-8.659 2.5-.532 4.08 2.512 2.554 4.042-1.674-.542-1.155-4.457-4.424-2.854-4.058 1.432-4.363 7.321-2.168 10.445 1.429 2.02 6.146 2.47 5.775-.926z" style="font-size:21.5px;font-family:&quot;Song Myung&quot;;-inkscape-font-specification:&quot;Song Myung&quot;;text-align:center;text-anchor:middle;stroke:#f0f;stroke-width:0;stroke-miterlimit:2"/><path id="path52869" d="M641.798 20.288c1.9-1.668 1.51 1.736 1.355 2.945-.959 1.063-2.996.272-4.417.516-1.982-.078-4.009.157-5.963-.118.683-1.043 2.478-1.802 1.694-4.1-.095-2.72.2-5.515-.172-8.187-2.823-.397-.69-1.759 1.163-1.247 1.106-.185 4.842.007 2.425 1.057-1.735.461-.596 3.097-.922 4.53.016 2.33-.04 4.661.043 6.99 1.425-.23 3.352.511 4.407-.473l.387-1.913z" style="font-size:21.5px;font-family:&quot;Song Myung&quot;;-inkscape-font-specification:&quot;Song Myung&quot;;text-align:center;text-anchor:middle;stroke:#f0f;stroke-width:0;stroke-miterlimit:2"/><path id="path52871" d="M654.333 20.61c1.753-1.688 1.542 1.907 1.166 3.01-3.358.298-6.804.046-10.196.13-.912-.998 2.534-1.582 1.29-3.97-.095-2.803.2-5.68-.172-8.436-2.823-.397-.69-1.759 1.163-1.247 2.495.087 5.046-.174 7.506.129.366 1.097.618 4.666-1.166 3.031.192-1.926-1.318-2.353-2.935-2.064-1.835-.523-2.164.563-1.902 2.16.241 1.088-.767 3.426 1.14 2.85 1.971 1.044 2.38-3.794 3.009-.67.01 1.086.324 4.835-1.124 2.873.401-1.497-3.265-1.721-3.025-.465.01 1.578-.03 3.156.043 4.733 1.568-.084 3.189.168 4.724-.123.362-.57.311-1.302.479-1.94z" style="font-size:21.5px;font-family:&quot;Song Myung&quot;;-inkscape-font-specification:&quot;Song Myung&quot;;text-align:center;text-anchor:middle;stroke:#f0f;stroke-width:0;stroke-miterlimit:2"/><path id="path52873" d="M670.786 21.922c.8.725 4.483 1.52 1.324 1.827-2.091-.064-4.215.132-6.285-.102-.074-1.555 3.629-.424 2.682-2.866-.085-2.824.172-5.703-.129-8.491-2.247.375-2.465-1.25-.107-1.403 1.536-.698 3.16-.74 2.545 1.395-.066 3.212-.012 6.427-.03 9.64z" style="font-size:21.5px;font-family:&quot;Song Myung&quot;;-inkscape-font-specification:&quot;Song Myung&quot;;text-align:center;text-anchor:middle;stroke:#f0f;stroke-width:0;stroke-miterlimit:2"/></g><path id="rect54029" d="M227.104-27.903h15.175v8.795h-15.175z" style="fill:#f0f;fill-opacity:1;stroke:none;stroke-width:1;stroke-miterlimit:2;stroke-dasharray:none;stroke-dashoffset:0;stroke-opacity:1"/><text xml:space="preserve" id="text1" x="-90.416" y="-50" style="font-size:20px;font-family:sans-serif;-inkscape-font-specification:sans-serif;text-align:center;text-anchor:middle;fill:none;stroke:red;stroke-dashoffset:1.02"><tspan id="tspan1" x="-90.416" y="-50">21.1764705882</tspan></text></g><g id="layer5" style="display:inline"><g id="g54" style="display:inline" transform="translate(-229.846 65.412)"><circle id="circle54" cx="342.313" cy="136.629" r="12.17" style="fill:#d4ffcc;fill-opacity:1;stroke:#000;stroke-width:1;stroke-dashoffset:1.02"/><path id="text54" d="M344.49 136.95q-.536.65-1.143.975-.606.325-1.274.325-1.424 0-2.46-1.072-1.03-1.08-1.03-2.69 0-1.529 1.003-2.654 1.002-1.133 2.557-1.133 1.319 0 2.224.835.905.834 1.266 2.091.369 1.248.369 2.602 0 2.786-1.23 4.676-1.222 1.89-3.279 1.89-.967 0-1.705-.423-.738-.421-.738-.94 0-.492.51-.492.43 0 .738.589.422.826 1.432.826 1.389 0 2.083-1.23.695-1.24.695-3.7 0-.203-.018-.475zm.044-2.338q0-.853-.237-1.688-.238-.844-.8-1.327-.563-.483-1.257-.483-1.099 0-1.652.879-.545.87-.545 2.628 0 1.107.21 1.73.212.616.757 1.03.553.412 1.23.412.914 0 1.6-.685.694-.695.694-2.496z" aria-label="9" style="font-size:18px;font-family:Baskerville;-inkscape-font-specification:Baskerville;text-align:center;text-anchor:middle;stroke-dashoffset:1.02"/></g><g id="g62" style="display:inline" transform="translate(8.109 43.37)"><circle id="circle62" cx="342.313" cy="136.629" r="12.17" style="fill:#ccdbff;fill-opacity:1;stroke:#000;stroke-width:1;stroke-dashoffset:1.02"/><path id="text62" d="M342.706 130.7h.387v9.335q0 1.15.026 1.45.035.299.255.457.22.158.782.158h.343v.404h-3.955v-.404h.29q.633 0 .817-.176.194-.184.22-.43.035-.255.035-1.46v-6.257q0-1.187-.026-1.433-.026-.255-.229-.44-.193-.193-.817-.193h-.378v-.404q1.52-.026 2.25-.606z" aria-label="1" style="font-size:18px;font-family:Baskerville;-inkscape-font-specification:Baskerville;text-align:center;text-anchor:middle;stroke-dashoffset:1.02"/></g><g id="g61" style="display:inline" transform="translate(.006 86.683)"><circle id="circle61" cx="342.313" cy="136.629" r="12.17" style="fill:#cce7ff;fill-opacity:1;stroke:#000;stroke-width:1;stroke-dashoffset:1.02"/><path id="text61" d="M338.91 142.504v-.545q1.001-.782 2.53-2.47 1.539-1.696 2.215-2.926.677-1.23.677-2.487 0-1.503-.685-2.206-.686-.712-1.706-.712-1.001 0-1.555.65-.545.65-.545 1.389 0 .843.712 1.336.263.184.263.28 0 .16-.298.432-.3.272-.493.272-.263 0-.641-.527-.37-.536-.37-1.371 0-1.345 1.047-2.127 1.046-.791 2.294-.791 1.318 0 2.373.817 1.063.817 1.063 2.426 0 1.01-.475 1.925-.474.905-2.311 2.777-1.828 1.863-2.944 2.804h5.59l-.502 1.968h-.413q0-.158.053-.316.026-.088.026-.237 0-.264-.114-.317-.114-.044-.615-.044z" aria-label="2" style="font-size:18px;font-family:Baskerville;-inkscape-font-specification:Baskerville;text-align:center;text-anchor:middle;stroke-dashoffset:1.02"/></g><g id="g60" style="display:inline" transform="translate(-23.209 124.213)"><circle id="circle60" cx="342.313" cy="136.629" r="12.17" style="fill:#ccf3ff;fill-opacity:1;stroke:#000;stroke-width:1;stroke-dashoffset:1.02"/><path id="text60" d="M342.355 136.106q.272-.08.544-.08 1.292 0 2.03.888.748.88.748 2.215 0 1.609-1.099 2.637-1.098 1.028-2.83 1.028-1.16 0-1.995-.527-.835-.527-.835-1.134 0-.255.158-.43.158-.185.413-.185.457 0 .65.624.247.8.704 1.028.448.238.888.238 1.107 0 1.793-.809.694-.809.694-2.505 0-1.362-.519-2.03-.51-.668-1.213-.668-.606 0-1.336.738-.123.132-.254.132-.264 0-.264-.281 0-.123.132-.255.14-.14.773-.571 1.389-.94 1.837-1.565.448-.624.448-1.573 0-.905-.465-1.398-.466-.5-1.24-.5-.79 0-1.406.51-.606.5-.606 1.282 0 .624.536 1.17.061.06.061.105 0 .114-.29.246t-.422.132q-.272 0-.51-.413-.237-.413-.237-.897 0-.975.844-1.766t2.259-.791q1.45 0 2.188.668.747.659.747 1.476 0 .72-.51 1.345-.5.615-1.705 1.424z" aria-label="3" style="font-size:18px;font-family:Baskerville;-inkscape-font-specification:Baskerville;text-align:center;text-anchor:middle;stroke-dashoffset:1.02"/></g><g id="g59" style="display:inline" transform="translate(-58.303 150.789)"><circle id="circle59" cx="342.313" cy="136.629" r="12.17" style="fill:#cff;fill-opacity:1;stroke:#000;stroke-width:1;stroke-dashoffset:1.02"/><path id="text59" d="M342.115 138.54h-4.324v-.527l5.018-7.312h.563v7.312h.809q.747 0 .887-.088t.387-.747h.387l-.202 1.362h-2.268v1.495q0 1.274.044 1.546.053.264.29.396.237.123.879.123v.404h-3.841v-.404h.308q.527 0 .747-.14.228-.15.272-.414.044-.263.044-1.511zm0-.527v-5.581l-3.832 5.581z" aria-label="4" style="font-size:18px;font-family:Baskerville;-inkscape-font-specification:Baskerville;text-align:center;text-anchor:middle;stroke-dashoffset:1.02"/></g><g id="g58" style="display:inline" transform="translate(-100.832 162.959)"><circle id="circle58" cx="342.313" cy="136.629" r="12.17" style="fill:#ccfff3;fill-opacity:1;stroke:#000;stroke-width:1;stroke-dashoffset:1.02"/><path id="text58" d="M340.183 136.457h-.457l.264-5.466h4.562q-.378.887-.554 1.028-.167.14-.589.14h-3.085l-.14 3.64q.887-1.135 2.18-1.135 1.37 0 2.337 1.1.976 1.098.976 2.724 0 1.872-1.099 3.093-1.09 1.213-3.059 1.213-1.37 0-2.135-.632-.765-.642-.765-1.16 0-.23.15-.396.158-.167.421-.167.29 0 .44.176.15.167.351.703.396 1.09 1.574 1.09 1.125 0 1.89-.906.773-.905.773-2.944 0-1.837-.633-2.61-.633-.774-1.494-.774-1.213 0-1.908 1.283z" aria-label="5" style="font-size:18px;font-family:Baskerville;-inkscape-font-specification:Baskerville;text-align:center;text-anchor:middle;stroke-dashoffset:1.02"/></g><g id="g57" style="display:inline" transform="translate(-144.75 158.791)"><circle id="circle57" cx="342.313" cy="136.629" r="12.17" style="fill:#ccffe8;fill-opacity:1;stroke:#000;stroke-width:1;stroke-dashoffset:1.02"/><path id="text57" d="M340.201 136.545q.545-.65 1.143-.975.606-.325 1.265-.325 1.424 0 2.461 1.072t1.037 2.69q0 1.52-1.002 2.654-1.002 1.133-2.557 1.133-1.319 0-2.224-.835-.905-.835-1.274-2.083-.36-1.256-.36-2.61 0-2.795 1.221-4.676 1.23-1.89 3.287-1.89.967 0 1.705.422.738.414.738.94 0 .493-.5.493-.431 0-.686-.483-.264-.501-.571-.721-.308-.211-.923-.211-1.389 0-2.083 1.23-.695 1.231-.695 3.7 0 .22.018.475zm-.053 2.338q0 .853.238 1.696.246.835.808 1.319.563.483 1.257.483 1.099 0 1.644-.879.545-.879.545-2.628 0-1.107-.211-1.722-.203-.624-.756-1.037-.545-.413-1.222-.413-.914 0-1.608.694-.695.685-.695 2.487z" aria-label="6" style="font-size:18px;font-family:Baskerville;-inkscape-font-specification:Baskerville;text-align:center;text-anchor:middle;stroke-dashoffset:1.02"/></g><g id="g56" style="display:inline" transform="translate(-184.202 139.136)"><circle id="circle56" cx="342.313" cy="136.629" r="12.17" style="fill:#ccffdc;fill-opacity:1;stroke:#000;stroke-width:1;stroke-dashoffset:1.02"/><path id="text56" d="m339.173 133.118.738-2.417h.308q.017.175.14.237.132.053.695.053h4.552l-3.155 9.615q-.519 1.582-.791 1.89-.264.298-.545.298-.527 0-.527-.545 0-.325.492-1.38.132-.272.22-.492l3.542-8.226h-3.753q-.756 0-.906.035-.149.026-.28.193-.133.158-.335.739z" aria-label="7" style="font-size:18px;font-family:Baskerville;-inkscape-font-specification:Baskerville;text-align:center;text-anchor:middle;stroke-dashoffset:1.02"/></g><g id="g55" style="display:inline" transform="translate(-213.913 106.728)"><circle id="circle55" cx="342.313" cy="136.629" r="12.17" style="fill:#ccffd0;fill-opacity:1;stroke:#000;stroke-width:1;stroke-dashoffset:1.02"/><path id="text55" d="M343.075 136.51q1.16.097 2.048.932.888.826.888 2.136 0 1.511-1.081 2.364-1.082.852-2.628.852-1.582 0-2.637-.905-1.055-.914-1.055-2.276 0-1.178.756-2.013t2.092-1.09q-1.081-.272-1.776-1.055-.685-.782-.685-1.836 0-1.292.94-2.101.94-.817 2.365-.817 1.318 0 2.329.8 1.02.79 1.02 2.118 0 1.054-.651 1.819-.642.765-1.925 1.072zm-2.698-3.067q0 1.432.457 2.153.466.712 1.388.712 1.011 0 1.512-.677.501-.685.501-2.039 0-1.23-.527-1.872-.519-.641-1.442-.641-.817 0-1.353.588-.536.58-.536 1.776zm-.308 6.055q0 .994.185 1.574.184.571.703.949.527.378 1.3.378.985 0 1.635-.563.65-.562.65-2.232 0-1.679-.65-2.276-.65-.598-1.67-.598-1.08 0-1.617.747-.536.738-.536 2.021z" aria-label="8" style="font-size:18px;font-family:Baskerville;-inkscape-font-specification:Baskerville;text-align:center;text-anchor:middle;stroke-dashoffset:1.02"/></g><g id="g52" style="display:inline" transform="translate(-229.438 21.33)"><circle id="circle52" cx="342.313" cy="136.629" r="12.17" style="fill:#e0ffcc;fill-opacity:1;stroke:#000;stroke-width:1;stroke-dashoffset:1.02"/><path id="text52" d="M338.144 130.7h.387v9.335q0 1.15.027 1.45.035.299.254.457.22.158.783.158h.342v.404h-3.955v-.404h.29q.633 0 .818-.176.193-.184.22-.43.035-.255.035-1.46v-6.257q0-1.187-.027-1.433-.026-.255-.228-.44-.194-.193-.818-.193h-.378v-.404q1.52-.026 2.25-.606zm4.931 6.047q0-2.75 1.037-4.394 1.046-1.652 2.734-1.652 1.687 0 2.724 1.66 1.046 1.653 1.046 4.386 0 2.716-1.037 4.386-1.037 1.661-2.733 1.661-1.688 0-2.734-1.652-1.037-1.661-1.037-4.395zm1.459 0q0 3.648.606 4.641.616.984 1.706.984 1.283 0 1.793-1.177.51-1.187.51-4.448 0-3.656-.616-4.64-.606-.985-1.687-.985t-1.697.985q-.615.975-.615 4.64z" aria-label="10" style="font-size:18px;font-family:Baskerville;-inkscape-font-specification:Baskerville;text-align:center;text-anchor:middle;stroke-dashoffset:1.02"/></g><g id="g50" style="display:inline" transform="translate(-213.922 -19.793)"><circle id="circle50" cx="342.313" cy="136.629" r="12.17" style="fill:#ebffcc;fill-opacity:1;stroke:#000;stroke-width:1;stroke-dashoffset:1.02"/><path id="text50" d="M338.144 130.7h.387v9.335q0 1.15.027 1.45.035.299.254.457.22.158.783.158h.342v.404h-3.955v-.404h.29q.633 0 .818-.176.193-.184.22-.43.035-.255.035-1.46v-6.257q0-1.187-.027-1.433-.026-.255-.228-.44-.194-.193-.818-.193h-.378v-.404q1.52-.026 2.25-.606zm9 0h.387v9.335q0 1.15.027 1.45.035.299.254.457.22.158.783.158h.342v.404h-3.955v-.404h.29q.633 0 .818-.176.193-.184.22-.43.035-.255.035-1.46v-6.257q0-1.187-.027-1.433-.026-.255-.228-.44-.194-.193-.818-.193h-.378v-.404q1.52-.026 2.25-.606z" aria-label="11" style="font-size:18px;font-family:Baskerville;-inkscape-font-specification:Baskerville;text-align:center;text-anchor:middle;stroke-dashoffset:1.02"/></g><g id="g48" style="display:inline" transform="translate(-184.216 -52.385)"><circle id="circle48" cx="342.313" cy="136.629" r="12.17" style="fill:#f7ffcc;fill-opacity:1;stroke:#000;stroke-width:1;stroke-dashoffset:1.02"/><path id="text48" d="M337.353 130.525h.386v9.334q0 1.151.027 1.45.035.299.255.457.22.158.782.158h.343v.404h-3.956v-.404h.29q.633 0 .818-.176.193-.184.22-.43.035-.255.035-1.46v-6.257q0-1.187-.027-1.433-.026-.255-.228-.44-.194-.193-.818-.193h-.378v-.404q1.521-.026 2.25-.606zm5.203 11.803v-.545q1.002-.782 2.53-2.47 1.539-1.696 2.216-2.926.676-1.23.676-2.487 0-1.503-.685-2.206-.686-.712-1.705-.712-1.002 0-1.556.65-.545.65-.545 1.389 0 .843.712 1.336.264.184.264.28 0 .16-.299.432t-.492.272q-.264 0-.642-.527-.369-.536-.369-1.371 0-1.345 1.046-2.127 1.046-.791 2.294-.791 1.318 0 2.373.817 1.063.817 1.063 2.426 0 1.01-.474 1.925-.475.905-2.312 2.777-1.828 1.863-2.944 2.804h5.59l-.501 1.968h-.413q0-.158.052-.316.027-.088.027-.237 0-.264-.114-.317-.115-.044-.616-.044z" aria-label="12" style="font-size:18px;font-family:Baskerville;-inkscape-font-specification:Baskerville;text-align:center;text-anchor:middle;stroke-dashoffset:1.02"/></g><g id="g47" style="display:inline" transform="translate(-144.742 -72.045)"><circle id="circle47" cx="342.313" cy="136.629" r="12.17" style="fill:#fffbcc;fill-opacity:1;stroke:#000;stroke-width:1;stroke-dashoffset:1.02"/><path id="text47" d="M337.353 130.525h.386v9.334q0 1.151.027 1.45.035.299.255.457.22.158.782.158h.343v.404h-3.956v-.404h.29q.633 0 .818-.176.193-.184.22-.43.035-.255.035-1.46v-6.257q0-1.187-.027-1.433-.026-.255-.228-.44-.194-.193-.818-.193h-.378v-.404q1.521-.026 2.25-.606zM346 135.93q.272-.08.545-.08 1.292 0 2.03.888.747.88.747 2.215 0 1.609-1.098 2.637-1.1 1.028-2.83 1.028-1.16 0-1.996-.527-.835-.527-.835-1.134 0-.255.159-.43.158-.185.413-.185.457 0 .65.624.246.8.703 1.028.448.238.888.238 1.107 0 1.793-.809.694-.809.694-2.505 0-1.362-.518-2.03-.51-.668-1.213-.668-.607 0-1.336.738-.123.132-.255.132-.264 0-.264-.281 0-.123.132-.255.14-.14.774-.571 1.388-.94 1.836-1.565.449-.624.449-1.573 0-.905-.466-1.398-.466-.5-1.24-.5-.79 0-1.406.51-.606.5-.606 1.282 0 .624.536 1.17.062.06.062.105 0 .114-.29.246t-.422.132q-.273 0-.51-.413t-.237-.897q0-.975.843-1.766.844-.791 2.26-.791 1.45 0 2.188.668.747.659.747 1.476 0 .72-.51 1.345-.501.615-1.705 1.424z" aria-label="13" style="font-size:18px;font-family:Baskerville;-inkscape-font-specification:Baskerville;text-align:center;text-anchor:middle;stroke-dashoffset:1.02"/></g><g id="g46" style="display:inline" transform="translate(-100.815 -76.194)"><circle id="circle46" cx="342.313" cy="136.629" r="12.17" style="fill:#fff0cc;fill-opacity:1;stroke:#000;stroke-width:1;stroke-dashoffset:1.02"/><path id="text46" d="M337.353 130.525h.386v9.334q0 1.151.027 1.45.035.299.255.457.22.158.782.158h.343v.404h-3.956v-.404h.29q.633 0 .818-.176.193-.184.22-.43.035-.255.035-1.46v-6.257q0-1.187-.027-1.433-.026-.255-.228-.44-.194-.193-.818-.193h-.378v-.404q1.521-.026 2.25-.606zm9.087 7.84h-4.324v-.528l5.019-7.312h.562v7.312h.809q.747 0 .888-.088.14-.088.386-.747h.387l-.202 1.362h-2.268v1.495q0 1.274.044 1.546.053.264.29.396.237.123.88.123v.404h-3.842v-.404h.308q.527 0 .747-.14.228-.15.272-.414.044-.263.044-1.511zm0-.528v-5.58l-3.832 5.58z" aria-label="14" style="font-size:18px;font-family:Baskerville;-inkscape-font-specification:Baskerville;text-align:center;text-anchor:middle;stroke-dashoffset:1.02"/></g><g id="g44" style="display:inline" transform="translate(-23.22 -37.484)"><circle id="circle43" cx="342.313" cy="136.629" r="12.17" style="fill:#ffd8cc;fill-opacity:1;stroke:#000;stroke-width:1;stroke-dashoffset:1.02"/><path id="text44" d="M337.353 130.525h.386v9.334q0 1.151.027 1.45.035.299.255.457.22.158.782.158h.343v.404h-3.956v-.404h.29q.633 0 .818-.176.193-.184.22-.43.035-.255.035-1.46v-6.257q0-1.187-.027-1.433-.026-.255-.228-.44-.194-.193-.818-.193h-.378v-.404q1.521-.026 2.25-.606zm6.556 5.844q.545-.65 1.143-.975.606-.325 1.265-.325 1.424 0 2.461 1.072t1.037 2.69q0 1.52-1.002 2.654-1.002 1.133-2.557 1.133-1.319 0-2.224-.835-.905-.835-1.274-2.083-.36-1.256-.36-2.61 0-2.795 1.221-4.676 1.23-1.89 3.287-1.89.967 0 1.705.422.739.414.739.94 0 .493-.501.493-.431 0-.686-.483-.264-.501-.571-.721-.308-.21-.923-.21-1.389 0-2.083 1.23-.694 1.23-.694 3.7 0 .22.017.474zm-.053 2.338q0 .853.238 1.697.246.834.808 1.318.563.483 1.257.483 1.099 0 1.644-.879.545-.879.545-2.628 0-1.107-.211-1.722-.202-.624-.756-1.037-.545-.413-1.222-.413-.914 0-1.608.694-.695.685-.695 2.487z" aria-label="16" style="font-size:18px;font-family:Baskerville;-inkscape-font-specification:Baskerville;text-align:center;text-anchor:middle;stroke-dashoffset:1.02"/></g><g id="g43" style="display:inline"><circle id="path42" cx="342.313" cy="136.629" r="12.17" style="fill:#fcc;fill-opacity:1;stroke:#000;stroke-width:1;stroke-dashoffset:1.02"/><path id="text43" d="M337.528 131.053h.387v9.333q0 1.152.027 1.45.035.3.254.458.22.158.783.158h.342v.404h-3.955v-.404h.29q.633 0 .818-.176.193-.184.22-.43.035-.255.035-1.46v-6.257q0-1.187-.027-1.433-.026-.255-.228-.44-.194-.193-.818-.193h-.377v-.404q1.52-.026 2.25-.606zm5.529 2.417.738-2.417h.308q.017.175.14.237.132.053.695.053h4.552l-3.155 9.615q-.518 1.582-.79 1.89-.265.298-.546.298-.527 0-.527-.545 0-.325.492-1.38.132-.272.22-.492l3.542-8.226h-3.753q-.756 0-.905.035-.15.026-.282.193-.132.158-.334.739z" aria-label="17" style="font-size:18px;font-family:Baskerville;-inkscape-font-specification:Baskerville;text-align:center;text-anchor:middle;stroke-dashoffset:1.02"/></g><g id="g45" style="display:inline" transform="translate(-58.4 -64.456)"><circle id="circle45" cx="342.313" cy="136.629" r="12.17" style="fill:#ffe4cc;fill-opacity:1;stroke:#000;stroke-width:1;stroke-dashoffset:1.02"/><path id="text45" d="M337.353 130.525h.386v9.334q0 1.151.027 1.45.035.299.255.457.22.158.782.158h.343v.404h-3.956v-.404h.29q.633 0 .818-.176.193-.184.22-.43.035-.255.035-1.46v-6.257q0-1.187-.027-1.433-.026-.255-.228-.44-.194-.193-.818-.193h-.378v-.404q1.521-.026 2.25-.606zm6.539 5.756h-.457l.263-5.466h4.562q-.378.887-.554 1.028-.167.14-.589.14h-3.085l-.14 3.64q.887-1.135 2.18-1.135 1.37 0 2.337 1.1.976 1.098.976 2.724 0 1.872-1.099 3.093-1.09 1.213-3.058 1.213-1.372 0-2.136-.632-.765-.642-.765-1.16 0-.23.15-.396.158-.167.421-.167.29 0 .44.176.15.167.351.703.396 1.09 1.574 1.09 1.125 0 1.89-.906.773-.905.773-2.944 0-1.837-.633-2.61-.633-.774-1.494-.774-1.213 0-1.907 1.283z" aria-label="15" style="font-size:18px;font-family:Baskerville;-inkscape-font-specification:Baskerville;text-align:center;text-anchor:middle;stroke-dashoffset:1.02"/></g></g><g id="layer1" style="display:inline"><g id="g2" style="display:inline" transform="translate(-229.846 65.412)"><circle id="circle1" cx="342.313" cy="136.629" r="12.17" style="fill:#d4ffcc;fill-opacity:1;stroke:#000;stroke-width:1;stroke-dashoffset:1.02"/><text xml:space="preserve" id="text2" x="342.319" y="142.504" style="font-size:18px;font-family:sans-serif;-inkscape-font-specification:sans-serif;text-align:center;text-anchor:middle;fill:none;stroke:#000;stroke-dashoffset:1.02"><tspan id="tspan2" x="342.319" y="142.504" style="font-style:normal;font-variant:normal;font-weight:400;font-stretch:normal;font-size:18px;font-family:Baskerville;-inkscape-font-specification:Baskerville;fill:#000;stroke:none">9</tspan></text></g><path id="path21" d="m283.914 287.418 2.238-22.2-6.445 3.21-45.077-90.523-8.415 4.19 45.078 90.522-6.445 3.21z" class="fat-vector-arrows" style="display:inline;opacity:.7;fill:#ac9393;stroke:none"/><path id="path47" d="M241.482 60.51 227.893 78.21l7.17.663-9.32 100.695 9.36.866 9.32-100.695 7.169.664z" class="fat-vector-arrows" style="display:inline;opacity:.7;fill:#ac9393;stroke:none"/><path id="path52" d="m230.422 180 11.06-119.49" style="display:inline;fill:none;stroke:#000;stroke-width:1.8;stroke-miterlimit:2;stroke-dasharray:1.8,1.8;stroke-dashoffset:0"/><g id="g113"><path id="path46" d="m197.572 64.584-6.279 21.412 6.925-1.971 27.684 97.262 9.04-2.574-27.683-97.262 6.925-1.97z" class="fat-vector-arrows" style="display:inline;opacity:.7;fill:#ac9393;stroke:none"/><path id="path53" d="m230.422 180-32.85-115.416" style="display:inline;fill:none;stroke:#000;stroke-width:1.8;stroke-miterlimit:2;stroke-dasharray:1.8,1.8;stroke-dashoffset:0"/></g><g id="g111"><path id="path44" d="m128.391 116.837 9.785 20.053 3.79-6.122 85.983 53.228 4.947-7.992-85.982-53.229 3.79-6.122z" class="fat-vector-arrows" style="display:inline;opacity:.7;fill:#ac9393;stroke:none"/><path id="path55" d="m230.422 180-102.03-63.163" style="display:inline;fill:none;stroke:#000;stroke-width:1.8;stroke-miterlimit:2;stroke-dasharray:1.8,1.8;stroke-dashoffset:0"/></g><g id="g120"><path id="path43" d="m112.464 157.959 16.368 15.164 1.323-7.077 99.404 18.574 1.727-9.24-99.405-18.574 1.323-7.078z" class="fat-vector-arrows" style="display:inline;opacity:.7;fill:#ac9393;stroke:none"/><path id="path56" d="m230.422 180-117.958-22.041" style="display:inline;fill:none;stroke:#000;stroke-width:1.8;stroke-miterlimit:2;stroke-dasharray:1.8,1.8;stroke-dashoffset:0"/></g><g id="g109"><g id="g122"><path id="path41" d="m128.4 243.178 22.312.18-3.79-6.122 85.975-53.24-4.949-7.992-85.975 53.24-3.79-6.12z" class="fat-vector-arrows" style="display:inline;opacity:.7;fill:#ac9393;stroke:none"/><path id="path58" d="M230.422 180 128.4 243.178" style="display:inline;fill:none;stroke:#000;stroke-width:1.8;stroke-miterlimit:2;stroke-dasharray:1.8,1.8;stroke-dashoffset:0"/></g></g><g id="g106"><g id="g115"><path id="path40" d="m158.111 275.766 20.87-7.893-5.745-4.338 60.937-80.703-7.501-5.664-60.938 80.702-5.746-4.338z" class="fat-vector-arrows" style="display:inline;opacity:.7;fill:#ac9393;stroke:none"/><path id="path59" d="m230.422 180-72.311 95.766" style="display:inline;fill:none;stroke:#000;stroke-width:1.8;stroke-miterlimit:2;stroke-dasharray:1.8,1.8;stroke-dashoffset:0"/></g></g><g id="g108"><path id="path38" d="m241.499 299.488 10.107-19.893-7.17.665-9.334-100.694-9.36.868 9.334 100.693-7.169.665z" class="fat-vector-arrows" style="display:inline;opacity:.7;fill:#ac9393;stroke:none"/><g id="g117"><path id="path61" d="M230.422 180 241.5 299.488" style="display:inline;fill:none;stroke:#000;stroke-width:1.8;stroke-miterlimit:2;stroke-dasharray:1.8,1.8;stroke-dashoffset:0"/></g></g><path id="path96" d="m230.422 180 53.492 107.418" style="display:inline;fill:none;stroke:#000;stroke-width:1.8;stroke-miterlimit:2;stroke-dasharray:1.8,1.8;stroke-dashoffset:0"/><g id="g104"><path id="path19" d="m342.32 223.348-13.302-17.915-2.601 6.714-94.297-36.53-3.395 8.766 94.296 36.53-2.6 6.713z" class="fat-vector-arrows" style="display:inline;opacity:.7;fill:#ac9393;stroke:none"/><path id="path98" d="m230.422 180 111.897 43.348" style="display:inline;fill:none;stroke:#000;stroke-width:1.8;stroke-miterlimit:2;stroke-dasharray:1.8,1.8;stroke-dashoffset:0"/></g><g id="g105"><path id="path18" d="m350.422 180-18.875-11.9v7.2H230.423v9.4h101.126v7.2z" class="fat-vector-arrows" style="display:inline;opacity:.7;fill:#ac9393;stroke:none"/><path id="path99" d="M230.422 180h120" style="display:inline;fill:none;stroke:#000;stroke-width:1.8;stroke-miterlimit:2;stroke-dasharray:1.8,1.8;stroke-dashoffset:0"/></g><g id="g101"><g id="g114"><path id="path50" d="m283.899 72.574-19.065 11.594 6.446 3.209-45.065 90.529 8.415 4.188 45.065-90.528 6.445 3.208z" class="fat-vector-arrows" style="display:inline;opacity:.7;fill:#ac9393;stroke:none"/><path id="path51" d="M230.422 180 283.9 72.574" style="display:inline;fill:none;stroke:#000;stroke-width:1.8;stroke-miterlimit:2;stroke-dasharray:1.8,1.8;stroke-dashoffset:0"/></g></g><g id="g118"><path id="path48" d="m319.094 99.146-21.966 3.924 4.852 5.32-74.724 68.137 6.333 6.946 74.724-68.137 4.851 5.32z" class="fat-vector-arrows" style="display:inline;opacity:.7;fill:#ac9393;stroke:none"/><path id="path101" d="m230.422 180 88.672-80.854" style="display:inline;fill:none;stroke:#000;stroke-width:1.8;stroke-miterlimit:2;stroke-dasharray:1.8,1.8;stroke-dashoffset:0"/></g><g id="g102"><g id="g119"><path id="path49" d="m342.313 136.636-21.9-4.275 2.603 6.714-94.292 36.543 3.397 8.764 94.291-36.543 2.602 6.714z" class="fat-vector-arrows" style="display:inline;opacity:.7;fill:#ac9393;stroke:none"/><path id="path100" d="m230.422 180 111.891-43.364" style="display:inline;fill:none;stroke:#000;stroke-width:1.8;stroke-miterlimit:2;stroke-dasharray:1.8,1.8;stroke-dashoffset:0"/></g></g><g id="g112"><path id="path45" d="m158.098 84.244 1.88 22.234 5.745-4.34 60.949 80.695 7.5-5.666-60.948-80.694 5.745-4.34z" class="fat-vector-arrows" style="display:inline;opacity:.7;fill:#ac9393;stroke:none"/><path id="path54" d="m230.422 180-72.324-95.756" style="display:inline;fill:none;stroke:#000;stroke-width:1.8;stroke-miterlimit:2;stroke-dasharray:1.8,1.8;stroke-dashoffset:0"/></g><g id="g110"><g id="g121"><path id="path17" d="m112.467 202.058 20.74 8.227-1.323-7.077 99.402-18.588-1.727-9.24-99.402 18.588-1.324-7.077z" class="fat-vector-arrows" style="display:inline;opacity:.7;fill:#ac9393;stroke:none"/><path id="path57" d="m230.422 180-117.955 22.058" style="display:inline;fill:none;stroke:#000;stroke-width:1.8;stroke-miterlimit:2;stroke-dasharray:1.8,1.8;stroke-dashoffset:0"/></g></g><g id="g107"><g id="g116"><path id="path39" d="m197.588 295.42 16.61-14.898-6.925-1.97 27.67-97.266-9.041-2.572-27.67 97.266-6.926-1.97z" class="fat-vector-arrows" style="display:inline;opacity:.7;fill:#ac9393;stroke:none"/><path id="path60" d="m230.422 180-32.834 115.42" style="display:inline;fill:none;stroke:#000;stroke-width:1.8;stroke-miterlimit:2;stroke-dasharray:1.8,1.8;stroke-dashoffset:0"/></g></g><g id="g103"><path id="path20" d="m319.105 260.842-5.932-21.51-4.85 5.32-74.734-68.125-6.333 6.946L301.99 251.6l-4.85 5.32z" class="fat-vector-arrows" style="display:inline;opacity:.7;fill:#ac9393;stroke:none"/><path id="path97" d="m230.422 180 88.683 80.842" style="display:inline;fill:none;stroke:#000;stroke-width:1.8;stroke-miterlimit:2;stroke-dasharray:1.8,1.8;stroke-dashoffset:0"/></g></g><g id="layer6" style="display:inline"><circle id="circle12" cx="4.797" cy="-292.355" r="1.934" style="display:inline;fill:#87de87;fill-opacity:1;stroke:none;stroke-width:1;stroke-miterlimit:2;stroke-dasharray:none;stroke-dashoffset:0;stroke-opacity:1" transform="rotate(127.056)"/></g></svg>