<svg xmlns="http://www.w3.org/2000/svg" width="480" height="360" viewBox="0 0 127 95.25"><path d="M17.665 49.69c.993-.045 1.986.053 2.98.045 1.465-.037 2.93-.066 4.395-.077 1.521.009 3.039.112 4.557.055 1.329-.052 2.66-.058 3.99-.058 1.661-.014 3.32.136 4.98.101 1.65-.034 3.301-.04 4.952-.025 1.65.015 3.298.011 4.947-.013 1.566-.022 3.133-.025 4.7-.02 1.312.01 2.622.066 3.934.058 1.229-.006 2.456.02 3.684-.01 1.336-.03 2.674-.011 4.011-.027 1.647-.054 3.294-.003 4.942.004 1.868-.008 3.735-.015 5.603-.012 1.494.002 2.987.012 4.48.023 1.462.01 2.923.022 4.384.033 1.512.01 3.024.018 4.535.057 1.41.035 2.82-.006 4.23.007 1.231.002 2.46.012 3.69.05 1.15.034 2.3-.01 3.45.002l1.759.015" style="display:inline;fill:none;stroke:#000;stroke-width:.264583;stroke-dasharray:none"/><path d="M98.983 49.387c.532.054 1.065.104 1.596.165.575.082 1.153.164 1.718.298-.03-.055.255.093.25.077-.062-.17-.06-.125-.234-.075-.628.189-1.24.42-1.86.63-.313.097-.31.1-.61.182-.227.063-.15.058-.262.061M61.719 9.478a23.492 23.492 0 0 0-.328-1.375c-.213-.777-.455-1.546-.617-2.342-.016-.14-.025-.179-.025-.312 0-.06-.022-.21-.027-.213-.061-.277.087-.235.015-.06-.064.435-.203.985-.303 1.483-.132.682-.294 1.356-.416 2.04" style="display:inline;fill:none;stroke:#000;stroke-width:.264583;stroke-dasharray:none"/><path d="M60.496 89.884c0-.257.007-.513.01-.77.018-1.652.032-3.305.057-4.957.04-2.648.075-5.296.077-7.947.006-2.418.02-4.837-.026-7.253a550.262 550.262 0 0 1-.074-5.922l-.028-3.749c-.033-1.44-.004-2.88.038-4.32.042-1.354.05-2.708.05-4.062-.001-1.244-.012-2.488-.021-3.732a45.68 45.68 0 0 1 .044-3.312c.048-.919.058-1.838.06-2.757 0-1.012-.008-2.023-.016-3.034l-.022-2.827c-.008-.845-.106-1.685-.114-2.53.019-1.06.043-2.12.053-3.18.008-1.035.001-2.07-.005-3.106-.033-.926.033-1.851.073-2.777.035-.907.04-1.814.04-2.721-.002-.739-.008-1.477-.014-2.215a2689.304 2689.304 0 0 1-.032-4.151l-.021-2.841-.021-2.71a46.13 46.13 0 0 1 .023-2.825" style="display:inline;fill:none;stroke:#000;stroke-width:.264583;stroke-dasharray:none"/><path d="m26.467 48.219-.01.072c-.032.283-.026.569-.044.853-.02.414-.032.828-.025 1.243l-.001.862M35.036 48.23c0 .012-.037.248-.037.552-.012.488-.035.977-.018 1.465.012.286.035.57.032.857M43.426 51.135c.074-.435.106-.876.142-1.316.038-.474.04-.95.068-1.423M52.107 48.267a5.835 5.835 0 0 0-.042.495c-.025.462-.026.925-.044 1.388-.014.318-.032.635-.027.954M69.072 48.484c0 .04.002.078.003.117.028.44.029.881.025 1.323 0 .383 0 .767-.002 1.15M77.608 48.546c-.015.471-.033.942-.058 1.412-.016.39-.034.782.005 1.17M86.162 48.658c-.013.334-.026.667-.041 1-.019.439-.043.88-.011 1.318M94.7 48.673a7.51 7.51 0 0 0-.068.58c-.033.337-.04.672.022 1.006.038.287.074.575.108.863M59.106 58.285c.124 0 .248-.005.372-.01.25-.011.499-.018.748-.027.273-.01.545-.03.817-.042.247-.013.494-.018.741-.026l.133-.004M61.952 66.708h-.032c-.033.004-.066.011-.1.016-.05.006-.101.009-.152.016a2.979 2.979 0 0 1-.378.001c-.125-.007-.25-.013-.376-.026a2.083 2.083 0 0 0-.332-.002c-.1.01-.199.031-.3.037a4.922 4.922 0 0 1-.443.03c-.153-.003-.306-.008-.46-.009l-.15.002c-.023.001-.046 0-.068.003l-.012.003M59.106 75.33l.02-.001.04.001c.035 0 .069-.005.103-.006.066-.004.081-.004.15-.006.21 0 .42.004.63.005a97.464 97.464 0 0 0 1.3-.001c.148-.002.296-.008.445-.014.084-.003.168-.012.25-.023l.007-.006M59.22 83.842a.693.693 0 0 1 .214-.02c.142.005.284.009.426.007.143-.005.285-.01.428-.011.149-.001.297-.002.446-.007a15.39 15.39 0 0 1 .839-.008l.36.027.165.014M59.201 41.239c.09.004.217-.006.331-.002.053-.01.109-.006.161-.005.181.007.362 0 .542-.014.173-.015.347-.023.521-.027.161-.003.322-.01.483-.013.153-.002.306-.003.46-.011l.157-.01M59.29 32.7c.104 0 .236-.006.355-.018l.516.004c.18.006.362.01.543.007.17-.001.34-.008.511-.014.13-.002.258-.007.387-.017.046 0 .094-.011.14-.01l.13.003M59.255 24.154c.094-.022.193-.008.288-.004.18.007.361.008.541.01.178 0 .356 0 .534.005.146.002.291.014.437.015.14 0 .282-.002.423-.004.102-.004.203.006.305.01h.082M59.284 15.61c.073-.002.146-.001.219.002.156.006.313.008.47.009.163-.005.326-.006.49-.004.176-.002.352-.008.528-.001.148.009.297.012.445.019.11.006.222.014.333.013a10.924 10.924 0 0 0 .268-.008" style="display:inline;fill:none;fill-opacity:1;stroke:#000;stroke-width:.264583;stroke-dasharray:none;stroke-opacity:1"/><g style="display:inline"><path d="M31.347-32.078c.83 2.5.599 5.43-.086 7.861-1.048 3.724-4.276 6.692-7.548 8.44-4.024 2.151-9.1 2.21-13.537 1.17-4.36-1.023-7.743-3.387-10.22-7.255-2.178-3.4-2.943-8.35-2.3-12.05.812-4.685 3.997-9.238 8.808-11.532 6.246-2.979 12.375-2.768 17.505 1.09 2.803 2.109 6.01 5.418 7.114 9.722.178.696.526 1.766.489 2.482" style="fill:none;stroke:#00f;stroke-width:.396875;stroke-dasharray:none"/><path d="M110.049-52.753c.036-.814-.083-1.62-.415-2.37-.107-.24-.239-.47-.358-.705-.88-1.547-2.079-2.89-3.455-4.013-.322-.263-.661-.503-.992-.755-1.337-.899-2.73-1.733-4.25-2.285-.931-.337-1.38-.416-2.346-.647-1.735-.332-3.515-.444-5.272-.215-1.038.135-1.577.3-2.574.55-1.454.424-2.86 1.078-4.049 2.03-.67.537-.853.792-1.431 1.43a11.258 11.258 0 0 0-2.286 5.016c-.07.39-.103.788-.154 1.182-.113 1.444-.1 2.907.193 4.331.186.905.32 1.205.622 2.081.726 1.756 1.735 3.415 3.112 4.74.283.272.594.515.892.772 1.342 1.055 2.891 1.778 4.511 2.295 1.014.324 1.5.408 2.525.636 1.477.308 2.989.427 4.493.287.98-.09 1.25-.179 2.208-.385a15.488 15.488 0 0 0 4.283-1.757c.83-.496 1.022-.669 1.79-1.24 1.167-.944 2.255-2.038 2.955-3.383.105-.203.186-.417.28-.625.472-1.172.608-2.423.57-3.676-.091-1.127-.503-2.17-.994-3.175" style="fill:none;stroke:#00f;stroke-width:.264583;stroke-dasharray:none"/><path d="M126.678-21.423c.103 1.274.214 2.548.337 3.82.055 1.003.25 1.992.368 2.987.011-.437-.053.33.427-.263.056-.069-.095-.15-.144-.224a28.3 28.3 0 0 0-1.15-1.588c-.965-1.188-1.913-2.39-2.73-3.685" style="fill:red;stroke:red;stroke-width:.0105833"/><path d="M71.557 122.646c1.072.719 2.212 1.323 3.362 1.906.649.352.528.275 1.092.618.102.063.203.126.303.19.066.042.117.13.195.13.543.002.042.085-.013-.179-.435-.714-.907-1.407-1.294-2.15-.521-.922-1.035-1.849-1.539-2.78" style="fill:none;stroke:red;stroke-width:.608542;stroke-dasharray:none"/><circle cx="108.3" cy="-53.617" r="13.126" style="fill:none;stroke:#f0f;stroke-width:.264583;stroke-dasharray:none"/><path d="M75.55-15.437c.129-.02.307-.165.498-.25.183-.114.378-.207.562-.318.383-.204.77-.4 1.155-.602.216-.109.434-.214.645-.33.014-.012.027-.025.042-.036.004-.002.01 0 .012-.004.067-.152.09-.04-.025-.165-.062-.055-.133-.082-.207-.126-.2-.055-.398-.12-.592-.194-.407-.15-.805-.323-1.2-.5-.251-.105-.506-.2-.755-.31" style="fill:none;stroke:#00f;stroke-width:.608542;stroke-dasharray:none"/><path d="M70.947-14.02c.384-.199.794-.39 1.223-.467.23-.054.464-.111.703-.117.036-.001.072.004.108.007.004 0 .015.006.012.003-.015-.012-.032-.022-.048-.033-.015.006-.035.005-.045.017-.032.038-.052.085-.079.126a3.418 3.418 0 0 1-.112.16c-.161.214-.344.413-.518.617-.27.3-.513.621-.775.927-.12.137-.248.268-.377.398-.167.18-.04.358.157.444.02.008.196-.02.213-.022.488-.11.99-.143 1.487-.194.207-.027.416-.037.625-.041l.209-.513a4.5 4.5 0 0 0-.66.03c-.506.052-1.018.077-1.515.184l-.1.023c-.021.005-.069-.006-.062.013.016.052.086.073.105.123.062.16-.034.28.037.201.133-.137.265-.277.388-.424.258-.309.506-.626.773-.926.23-.271.643-.7.751-1.04.023-.073.026-.15.039-.224-.03-.074-.04-.158-.087-.223-.207-.292-.84-.1-1.112-.055-.613.166-1.23.335-1.778.668z" style="fill:none;stroke:#00f;stroke-width:.396875"/><path d="m31.636-46.698-.16.161c-.402.396-.82.775-1.236 1.157-.34.346-.722.724-.994 1.035M46.856-26.473c.276-.341.578-.66.885-.972.37-.42.818-.762 1.196-1.17l.059-.102" style="fill:none;stroke:red;stroke-width:.396875"/><path d="M30.3-45.517c.409.346.698.67 1.111 1.01.49.378.827.772 1.26 1.214.415.464 1.076.97 1.498 1.429.415.435.826.874 1.23 1.319.468.499.926 1.005 1.401 1.496.552.54 1.106 1.079 1.65 1.627.506.5 1.016.997 1.503 1.516.479.523.986 1.019 1.49 1.517.462.434.902.89 1.352 1.335.377.367.737.75 1.07 1.158.338.438.797.842 1.178 1.243.332.359.734.725 1.024 1.118.315.428.85.79 1.201 1.189.2.245.41.483.604.733" style="fill:none;stroke:red;stroke-width:.396875"/><path d="M126.28-26.357c.301.038.567.19.807.37.09.089.183.187.231.306.03.076.013.104-.05.065-.027-.06-.167.06-.174.002-.005-.037.14-.028.104-.037-.052-.015-.107.016-.16.021-.124.012-.174.007-.297.005-.166-.007-.426-.06-.56.052-.178.149-.06.34.018.474.15.268.21.43.095.726-.082.111-.176.223-.31.275-.04.016-.108.064-.13.026-.02-.037.124-.016.114-.057-.011-.042-.088-.009-.132-.013-.222-.073-.446-.21-.53-.443-.046-.13-.036-.287-.037-.421a3.12 3.12 0 0 1 .074-.549l-.553-.03c-.038.21-.07.42-.07.634.01.238-.001.376.088.605.13.334.43.547.747.68.078.02.154.065.235.062.522-.022.84-.243 1.053-.698.017-.068.04-.134.051-.203.045-.297-.052-.58-.196-.835-.104-.175.012.055-.133.168-.07.054-.175.024-.261.042-.068.013.4-.044.208.009.358.024.601.01.962-.09a.6.6 0 0 0 .16-.069c.054-.034.097-.082.145-.124.028-.059.067-.114.082-.177.075-.298-.177-.57-.356-.768-.282-.23-.603-.422-.963-.497z" style="fill:red;stroke:none;stroke-width:.396875"/><path d="M27.617-41.79c.112-.275.17-.464.056-.767-.146-.347-.462-.49-.816-.528-.39-.015-.821.054-.927.653-.013.077-.011.155-.017.232.049.592.209.779.523 1.053.29.175.48.17.826-.01.152-.08.358-.313.399-.513zM15.121-30.271c.074.014.025 0-.117.054-.016.006.037-.001.053-.01.004-.001-.003-.006-.022-.022-.023-.02-.073-.12-.048-.139.097-.07.236-.065.126-.066l-.018-.004-.237.238c0 .03.05.072.076.087.03.008.103.03.135.026a.451.451 0 0 0 .224-.072.204.204 0 0 0 .064-.088c.035-.087.003-.16-.046-.23-.02-.016-.038-.035-.06-.048-.133-.078-.39.014-.39.123z" style="fill:#00f;stroke:#00f;stroke-width:.396875"/><path d="M126.439-39.888v-.663l-.001-1.194c-.014-.433.022-.864.048-1.295.034-.334.004-.667-.019-1a5.913 5.913 0 0 1 .01-.988c.022-.34.032-.68.037-1.02.004-.404.003-.808.003-1.211v-2.607c.003-.433-.043-.864-.034-1.297.012-.278.024-.555.03-.833.005-.292.005-.584.005-.876v-.165l-.552.044v.164c0 .29 0 .579-.006.868-.006.278-.02.556-.03.834-.005.436.039.87.036 1.305a62898.655 62898.655 0 0 1 0 2.606c0 .402 0 .803-.004 1.205-.005.334-.016.667-.039 1a6.523 6.523 0 0 0-.005 1.041c.022.316.049.633.016.95-.027.439-.06.878-.047 1.318V-39.845z" style="fill:none;stroke:#00f;stroke-width:.396875"/><path d="M130.674-24.855c.301.038.567.19.806.37.09.088.184.186.232.306.03.076.012.104-.05.064-.027-.059-.167.06-.174.003-.005-.037.14-.028.104-.038-.052-.014-.107.017-.16.022-.125.011-.174.007-.298.004-.165-.006-.425-.06-.559.052-.178.15-.06.34.018.475.15.268.21.43.095.726-.082.111-.176.222-.31.275-.04.016-.108.064-.13.025-.02-.036.124-.015.113-.056-.01-.043-.087-.009-.131-.013-.222-.073-.446-.21-.53-.443-.047-.131-.036-.287-.037-.422.006-.185.036-.367.073-.548l-.553-.03c-.037.21-.069.42-.07.634.012.238 0 .375.09.605.13.334.428.546.745.68.079.02.155.065.236.061.522-.021.839-.242 1.053-.698.017-.067.04-.133.05-.202.045-.297-.051-.58-.195-.836-.105-.174.011.056-.134.169-.069.054-.174.024-.26.041-.068.014.4-.043.208.01.358.024.6.01.961-.09a.6.6 0 0 0 .161-.07c.054-.033.097-.082.145-.123.027-.06.066-.114.082-.177.075-.298-.177-.57-.356-.769-.282-.229-.603-.421-.963-.496z" style="fill:red;stroke:none;stroke-width:.396875"/><path d="M81.406 110.899a1.892 1.892 0 0 0-.065.378c-.01.139.011.365.076.519a.885.885 0 0 0 .283.346c.09.068.228.14.338.155a.93.93 0 0 0 .435-.035.594.594 0 0 0 .289-.235.72.72 0 0 0 .13-.345.717.717 0 0 0-.067-.327c-.052-.114-.14-.19-.213-.291-.023-.032-.086-.079-.07-.125.02-.058.11-.046.152-.043.143.013.26.022.402.01.12-.01.226-.025.34-.066a.388.388 0 0 0 .174-.126c.033-.048.049-.125.024-.176a1.028 1.028 0 0 0-.222-.31 1.321 1.321 0 0 0-.34-.225 2.123 2.123 0 0 0-.416-.137 1.525 1.525 0 0 0-.235-.026" style="fill:none;stroke:red;stroke-width:.396875;stroke-dasharray:none"/><path d="M58.99 107.568c.905.846 1.792 1.86 2.673 2.735 1.42 1.41 3.18 3.331 4.878 4.992 1.872 1.815 3.68 3.686 5.481 5.565 1.125 1.176 2.268 2.336 3.404 3.501.18.184.351.372.535.551" style="fill:none;stroke:red;stroke-width:.608542;stroke-dasharray:none"/><path d="m25.38-40.193 1.593 1.675 1.6-1.675" style="fill:none;stroke:#000;stroke-width:.396875;stroke-dasharray:none;stroke-opacity:1"/><path d="M143.996 84.807a9.15 9.15 0 0 1 .562-.656c.234-.282.52-.515.761-.791l.037-.068M143.324 85.319c-.175.23-.367.444-.562.655-.234.283-.52.516-.76.792l-.038.068M141.124 87.566c-.175.23-.367.444-.562.656-.234.282-.52.515-.76.791l-.038.068M137.57 91.233c.174-.229.366-.444.561-.655.234-.283.521-.515.762-.791l.036-.068M136.897 91.745a9.15 9.15 0 0 1-.561.656c-.234.282-.521.515-.761.791l-.037.068M134.697 93.993a9.15 9.15 0 0 1-.561.655c-.234.283-.521.516-.761.792l-.037.067" style="fill:none;stroke:red;stroke-width:.396875"/><path d="M-5.183-45.209H8.946v3.016H-5.183z" style="fill:#fff6d5;fill-opacity:1;stroke:#000;stroke-width:.211667;stroke-dasharray:none;stroke-opacity:1" transform="rotate(44.946 2.686 -1.111)"/><g style="stroke-width:1.29585"><path d="M76.68 30.061c-.058.259-.105.52-.16.779-.05.24-.099.48-.145.72l-.128-.032.147-.72c.054-.26.1-.521.155-.78z" style="display:inline;fill:#000;fill-opacity:1;stroke:#000;stroke-width:.171431;stroke-linecap:butt;stroke-linejoin:miter;stroke-miterlimit:4;stroke-dasharray:none;stroke-dashoffset:0;stroke-opacity:1" transform="matrix(.76316 0 0 .78031 -29.82 -59.66)"/><path d="M76.153 31.533c.184-.056.372-.1.559-.149.265-.072.533-.136.8-.201.097-.023.054-.014.13-.029l.101.088c-.074.011-.032.004-.127.025-.268.064-.536.127-.8.2l-.122.032-.112.03c-.108.029-.218.05-.323.088l-.106-.084z" style="display:inline;fill:#000;fill-opacity:1;stroke:#000;stroke-width:.171431;stroke-linecap:butt;stroke-linejoin:miter;stroke-miterlimit:4;stroke-dasharray:none;stroke-dashoffset:0;stroke-opacity:1" transform="matrix(.76316 0 0 .78031 -29.82 -59.66)"/></g><g style="stroke-width:1.28831"><path d="M77.893 31.519c-.133.157-.287.295-.433.44-.12.118-.11.111-.219.23-.096.118-.052.062-.133.168l-.121-.055c.082-.108.037-.05.136-.171.109-.12.1-.114.22-.233.143-.142.294-.278.426-.432l.124.053z" style="display:inline;fill:#000;fill-opacity:1;stroke:#000;stroke-width:.170433;stroke-linecap:butt;stroke-linejoin:miter;stroke-miterlimit:4;stroke-dasharray:none;stroke-dashoffset:0;stroke-opacity:1" transform="matrix(.76859 0 0 .78391 -30.034 -59.462)"/><path d="M77.8 31.382c.165.136.328.274.492.413.154.132.308.264.451.408l-.131.02a7.79 7.79 0 0 0-.448-.404c-.165-.14-.333-.276-.497-.417l.132-.02zM77.472 31.862c.168.163.346.316.523.471l.062.055-.13.023-.062-.055c-.176-.156-.355-.31-.525-.474l.132-.02zM77.04 32.283c.213.18.428.358.637.543.102.091.204.184.302.28l-.131.02a7.558 7.558 0 0 0-.299-.277 18.39 18.39 0 0 0-.639-.537z" style="display:inline;fill:#000;fill-opacity:1;stroke:#000;stroke-width:.170433;stroke-linecap:butt;stroke-linejoin:miter;stroke-miterlimit:4;stroke-dasharray:none;stroke-dashoffset:0;stroke-opacity:1" transform="matrix(.76859 0 0 .78391 -30.034 -59.462)"/></g><path d="M80.23 34.144a.371.371 0 0 0-.162-.219c-.026-.017-.053-.03-.08-.046-.064-.03-.113-.056-.184-.068-.005-.001-.006.008-.011.009-.032.003-.065-.002-.097.001-.087.008-.098.017-.178.045-.095.047-.18.117-.198.228-.012.075 0 .102.016.176a.87.87 0 0 0 .256.392c.078.066.103.072.191.117.033.008.064.022.098.024.007 0 .006-.014.012-.016.033-.011.068-.01.1-.021a.62.62 0 0 0 .197-.115c.028-.024.05-.055.074-.082.017-.03.037-.06.05-.091a.446.446 0 0 0-.022-.36c-.012-.026-.028-.05-.042-.074-.05-.067-.024-.037-.074-.09l.11-.015c.05.06.025.027.074.1.037.07.054.093.074.172a.484.484 0 0 1-.017.304c-.014.035-.036.067-.054.1-.026.03-.05.064-.08.091a.713.713 0 0 1-.205.129c-.035.013-.07.029-.108.03-.135.003-.18-.02-.292-.056-.09-.051-.115-.059-.194-.13a.927.927 0 0 1-.258-.418c-.014-.083-.026-.113-.012-.196a.35.35 0 0 1 .139-.217c.024-.018.051-.032.077-.047.03-.012.058-.027.089-.036a.716.716 0 0 1 .2-.026.94.94 0 0 1 .376.112c.027.018.055.034.08.053a.451.451 0 0 1 .166.242l-.112-.002z" style="display:inline;fill:#000;fill-opacity:1;stroke:#000;stroke-width:.132292;stroke-linecap:butt;stroke-linejoin:miter;stroke-miterlimit:4;stroke-dasharray:none;stroke-dashoffset:0;stroke-opacity:1" transform="translate(-48.044 -66.431)"/><g style="stroke-width:1.30121"><path d="M79.08 32.453c-.1.121-.211.231-.32.345l-.256.274c-.147.158-.227.231-.377.386-.037.04-.018.023-.13-.052.115-.1.158-.14.39-.392l.256-.275c.105-.112.215-.22.313-.34z" style="display:inline;fill:#000;fill-opacity:1;stroke:#000;stroke-width:.17214;stroke-miterlimit:4;stroke-dasharray:none;stroke-opacity:1" transform="matrix(.75493 0 0 .78234 -28.797 -59.194)"/><path d="M78.779 33.961a17.17 17.17 0 0 0-.638-.583l-.132.028c.222.182.432.38.64.578.04.04.083.078.125.116l.135-.019c-.048-.04-.093-.084-.13-.12z" style="display:inline;fill:#000;fill-opacity:1;stroke:#000;stroke-width:.17214;stroke-miterlimit:4;stroke-dasharray:none;stroke-opacity:1" transform="matrix(.75493 0 0 .78234 -28.797 -59.194)"/></g><path d="M81.363 35.27c.105-.018-.133-.155-.173-.17a.84.84 0 0 0-.142-.031.592.592 0 0 0-.354.07c-.032.018-.057.046-.086.07-.017.03-.04.058-.051.091-.054.166.04.346.135.475.026.035.065.079.097.11a.47.47 0 0 0 .146.106l.006.072c-.061-.012-.076-.023-.118-.05a.861.861 0 0 1-.136-.116c-.03-.034-.071-.076-.097-.113-.103-.147-.191-.336-.13-.52a.337.337 0 0 1 .15-.185.535.535 0 0 1 .116-.054c.187-.063.353-.035.533.037a.974.974 0 0 1 .21.176c.03.047-.008.087-.05.095z" style="display:inline;fill:#000;fill-opacity:1;stroke:#000;stroke-width:.132292;stroke-miterlimit:4;stroke-dasharray:none;stroke-opacity:1" transform="translate(-48.044 -66.431)"/><g style="stroke-width:1.2871"><path d="M81.943 35.46c.266.25.53.502.783.765l.033.037-.133.019-.032-.036c-.25-.265-.516-.515-.784-.762z" style="display:inline;fill:#000;fill-opacity:1;stroke:#000;stroke-width:.170273;stroke-miterlimit:4;stroke-dasharray:none;stroke-opacity:1" transform="matrix(.76945 0 0 .7845 -29.17 -58.592)"/><path d="M82.32 35.934c-.212.246-.422.493-.636.737a9.46 9.46 0 0 1-.228.249l-.12-.06c.083-.083.162-.172.23-.245.213-.243.423-.489.63-.737z" style="display:inline;fill:#000;fill-opacity:1;stroke:#000;stroke-width:.170273;stroke-miterlimit:4;stroke-dasharray:none;stroke-opacity:1" transform="matrix(.76945 0 0 .7845 -29.17 -58.592)"/><path d="M81.116 36.337c.148.154.307.297.462.445.09.086.165.164.253.251.078.082.158.163.247.233l-.132.026a4.516 4.516 0 0 1-.245-.238c-.236-.236-.481-.461-.718-.695z" style="display:inline;fill:#000;fill-opacity:1;stroke:#000;stroke-width:.170273;stroke-miterlimit:4;stroke-dasharray:none;stroke-opacity:1" transform="matrix(.76945 0 0 .7845 -29.17 -58.592)"/></g><g style="stroke-width:1.29315"><path d="M83.01 36.51c.269.264.602.603.864.874l.087.09-.131.02-.086-.09a31.58 31.58 0 0 0-.868-.872z" style="display:inline;fill:#000;fill-opacity:1;stroke:#000;stroke-width:.171073;stroke-miterlimit:4;stroke-dasharray:none;stroke-opacity:1" transform="matrix(.76856 0 0 .77808 -28.78 -58.168)"/><path d="m83.504 37.023-.037.045c-.087.095-.182.183-.274.273-.165.162-.095.092-.258.26a4.825 4.825 0 0 0-.214.238.652.652 0 0 0-.09.125l-.122-.064c.024-.042.06-.08.091-.118a5.25 5.25 0 0 1 .217-.239c.167-.173.09-.095.258-.262.09-.09.184-.176.27-.269l.035-.043z" style="display:inline;fill:#000;fill-opacity:1;stroke:#000;stroke-width:.171073;stroke-miterlimit:4;stroke-dasharray:none;stroke-opacity:1" transform="matrix(.76856 0 0 .77808 -28.78 -58.168)"/></g><g style="stroke-width:1.28665"><path d="M84.253 37.645a.961.961 0 0 0-.34.37c-.025.049-.039.102-.057.153-.005.053-.018.105-.015.158.01.174.079.255.226.345.019.012.06.02.079.023a.715.715 0 0 0 .331-.068c.1-.043.21-.118.263-.216.007-.01.008-.024.011-.037l.13.037c-.007.018-.01.038-.017.052a.628.628 0 0 1-.282.244.866.866 0 0 1-.174.063.674.674 0 0 1-.183.021.61.61 0 0 1-.398-.178.485.485 0 0 1-.115-.311c-.003-.057.011-.114.017-.17.02-.056.035-.113.06-.165.07-.14.193-.284.32-.376l.028-.015z" style="fill:#000;fill-opacity:1;stroke:#000;stroke-width:.170213;stroke-miterlimit:4;stroke-dasharray:none;stroke-opacity:1" transform="matrix(.7754 0 0 .77902 -29.129 -57.965)"/><path d="M84.026 38.652c-.117.116-.237.233-.325.374-.007.014-.009.019-.009.026l-.134-.022a.158.158 0 0 1 .018-.054c.089-.145.211-.264.33-.385z" style="fill:#000;fill-opacity:1;stroke:#000;stroke-width:.170213;stroke-miterlimit:4;stroke-dasharray:none;stroke-opacity:1" transform="matrix(.7754 0 0 .77902 -29.129 -57.965)"/></g><path d="M30.869-41.24a34.6 34.6 0 0 1-.49-.605 16.143 16.143 0 0 0-1.448-1.615c-.547-.533-1.405-1.219-1.934-1.611a7.496 7.496 0 0 0-.603-.398" style="fill:none;fill-opacity:1;stroke:#00f;stroke-width:.396875;stroke-dasharray:none;stroke-opacity:1"/><path d="M28.976-42.303c.071.077.08.086.1.098.314.261.639.514.991.723.154.09.308.177.469.253.016.008.175.086.202.075.11-.042.17-.048.18-.121.004-.036.012-.072.012-.109a.824.824 0 0 0-.047-.189c-.063-.183-.137-.363-.205-.544-.128-.314-.263-.625-.391-.94" style="fill:none;fill-opacity:1;stroke:#00f;stroke-width:.396875;stroke-dasharray:none;stroke-opacity:1"/><path d="M56.234 118.052v34.131" style="fill:none;fill-opacity:1;stroke:#000;stroke-width:.396876;stroke-dasharray:none;stroke-opacity:1"/><g style="stroke-width:.906252"><path d="M55.189 53.13a2.21 2.21 0 0 0-.458.381c-.042.047-.08.097-.119.146-.132.189-.234.406-.191.642.022.122.054.16.112.264a.978.978 0 0 0 .392.334c.034.014.018.008.047.018l.045-.065v0c-.025-.007-.011-.003-.041-.014a.896.896 0 0 1-.372-.306c-.054-.095-.084-.13-.105-.24-.042-.223.06-.426.185-.602.04-.047.076-.096.117-.14a2.01 2.01 0 0 1 .449-.366zM55.976 53.627c-.143-.053-.302.007-.435.063a.555.555 0 0 0-.3.35c-.007.029-.007.058-.011.087.003.029.004.058.01.086.031.127.126.215.24.27.033.015.068.025.101.038.173.053.356.06.532.021.042-.01.083-.022.124-.034.18-.074.242-.16.281-.346a.48.48 0 0 0-.1-.355c-.017-.02-.036-.037-.054-.056a.793.793 0 0 0-.38-.162c-.085.004-.037-.003-.142.028l.056.056v0c.014-.019.002-.006.05-.013a.723.723 0 0 1 .351.137c.017.016.034.031.05.049a.406.406 0 0 1 .09.31c-.036.165-.095.235-.255.294a.96.96 0 0 1-.556.008c-.137-.049-.27-.103-.31-.258-.006-.024-.006-.048-.01-.072.004-.025.004-.05.01-.075.036-.144.153-.246.281-.309.101-.04.215-.087.325-.057zM57.023 54.485a1.492 1.492 0 0 1-.296.352c-.063.054-.033.03-.09.07l.065.044v0c.06-.045.029-.02.094-.076.117-.11.227-.23.304-.371zM58.302 53.548a1 1 0 0 0-.409.146c-.027.018-.052.039-.078.058-.095.091-.193.202-.212.338-.004.025-.002.05-.003.075a.445.445 0 0 0 .212.35c.03.018.063.03.094.045.162.051.341.092.512.06.043-.008.084-.022.126-.033a.613.613 0 0 0 .315-.312c.01-.026.014-.053.02-.08a.54.54 0 0 0-.082-.37c-.016-.024-.037-.045-.056-.067-.136-.12-.303-.2-.473-.263l-.046.064v0c.162.056.32.134.453.243.017.019.036.036.05.056.07.095.088.215.076.33-.006.022-.01.045-.018.066a.538.538 0 0 1-.292.275c-.174.057-.363.021-.535-.03-.028-.012-.059-.022-.086-.037a.373.373 0 0 1-.19-.302c0-.02-.002-.042.001-.062.019-.124.113-.222.2-.303a.873.873 0 0 1 .397-.172zM59.091 53.082c.177.117.3.293.412.47.102.184.21.382.222.597.003.036-.002.071-.003.107-.025.175-.135.3-.263.411l-.038.035.069.039v0l.038-.035c.14-.128.247-.26.273-.455 0-.039.004-.077.002-.116-.015-.223-.124-.428-.23-.62-.117-.182-.243-.364-.425-.488z" style="fill:#fff6d5;fill-opacity:1;stroke:#000;stroke-width:.191824;stroke-linecap:square;stroke-dasharray:none;stroke-opacity:1" transform="matrix(1.09976 0 0 1.10714 -6.022 -8.038)"/></g><path d="M70.437 57.497c1.027.365 2.086.623 3.149.861.604.153.49.116 1.022.28.097.03.193.06.288.092.063.02.123.08.186.065.446-.11.052.06-.047-.143-.505-.493-1.035-.96-1.506-1.487a145.11 145.11 0 0 1-1.836-1.953" style="display:inline;fill:none;stroke:red;stroke-width:.608542;stroke-dasharray:none"/><path d="M63.24 51.437c1.093.679 2.395 1.576 3.647 2.313 1.516.88 2.988 1.827 4.454 2.783.916.598 1.845 1.178 2.769 1.764.145.092.286.191.434.278" style="display:inline;fill:none;stroke:red;stroke-width:.608542;stroke-dasharray:none"/><path d="M60.748 49.867c.731.4 1.459.943 2.173 1.374l.32.196M42.144 126.462c.4-.731.944-1.459 1.374-2.173l.196-.32c.68-1.092 1.576-2.394 2.314-3.646.88-1.517 1.826-2.988 2.782-4.454.598-.916 1.178-1.845 1.765-2.769.092-.145.191-.286.278-.435" style="display:inline;fill:none;stroke:red;stroke-width:.635;stroke-dasharray:none"/></g><g style="display:inline"><path d="M78.392 57.773c-.122.388-.393.993-.578 1.354-.434.824-.857 1.73-1.346 2.399-.142.23-.305.356-.447.586" style="fill:none;fill-opacity:1;stroke:red;stroke-width:.396875;stroke-dasharray:none;stroke-opacity:1"/><path d="M76.293 60.676c-.032.184-.09.363-.149.54-.12.333-.246.664-.388.988-.023.055-.09.171-.045.226.052.064.104-.022.22-.087.23-.12.327-.223.606-.397.219-.137.334-.238.559-.418.045-.036.212-.187.259-.231M77.627 50.797c.367-1.59.177-3.288-.236-4.852-.447-1.852-.862-3.982-2.046-5.495-1.359-2.092-3.793-4.418-6.01-5.545-2.541-1.293-4.876-1.862-7.78-2.154-1.668-.164-3.687.084-5.46.56-2.841.762-5.562 2.33-7.603 4.518-1.618 1.736-2.627 3.543-3.59 5.717-.855 1.935-1.09 3.128-1.283 4.86-.018.158.002.825.006 1.254.05 1.674.193 4.002.562 5.45.59 2.318 1.657 4.15 3.308 6.014 1.306 1.475 3.179 2.86 4.942 3.707a19.056 19.056 0 0 0 6.776 1.844c1.987.172 4.278.09 6.215-.379 2.392-.579 4.686-1.659 6.603-3.133 2.236-1.719 3.89-4.15 4.762-6.916.464-1.473 1.012-3.897.719-5.895-.288-1.965-.04-.114-.063-.17-.02-.053-.065-.157-.065-.157" style="fill:none;fill-opacity:1;stroke:red;stroke-width:.396875;stroke-dasharray:none;stroke-opacity:1"/><path d="M56.437 14.566a507.62 507.62 0 0 1 0 1.22c0 .058-.01.056.023.103l.017.004c.04.004.09-.007.128-.01.162-.016.044-.006.23-.021.294-.028.589-.046.883-.06.073-.003.144-.012.215-.024" style="fill:none;fill-opacity:1;stroke:#000;stroke-width:.35818;stroke-dasharray:none;stroke-opacity:1"/><path d="M57.403 14.86c.012.292.027.583.047.874.018.255.03.51.04.764 0 .039.003.077.002.116M24.191 53.587c.204-.022.41-.022.615-.025.169 0 .338-.008.506-.024l.04-.005" style="fill:none;fill-opacity:1;stroke:#000;stroke-width:.35818;stroke-dasharray:none;stroke-opacity:1"/><path d="m26.025 52.527.007.061c.012.092.023.175.021.268l-.007.285a4.667 4.667 0 0 1-.029.491c-.011.047-.003.072.054.066a6.907 6.907 0 0 1 1.212-.162l.014-.001" style="fill:none;fill-opacity:1;stroke:#000;stroke-width:.35818;stroke-linecap:square;stroke-dasharray:none;stroke-opacity:1"/><path d="m26.926 54.28-.01-.07a7.762 7.762 0 0 1-.046-.564c-.012-.252-.01-.505-.039-.756" style="fill:none;fill-opacity:1;stroke:#000;stroke-width:.35818;stroke-linecap:square;stroke-dasharray:none;stroke-opacity:1"/><path d="M94.149 52.35c.002.17-.005.339-.016.507a22.14 22.14 0 0 1-.056.58c-.007.068-.023.05.022.103.125-.019.252-.028.378-.037.234-.008.468-.005.701 0l.048-.002" style="fill:none;fill-opacity:1;stroke:#000;stroke-width:.377031;stroke-linecap:square;stroke-dasharray:none;stroke-opacity:1"/><path d="M95.047 54.115c-.007-.023-.009-.047-.013-.07a5.792 5.792 0 0 1-.054-.567 6.72 6.72 0 0 0-.058-.652" style="fill:none;fill-opacity:1;stroke:#000;stroke-width:.377031;stroke-linecap:square;stroke-dasharray:none;stroke-opacity:1"/><path d="M54.982 83.864c.154-.019.308-.027.463-.036.188-.007.376-.016.563-.035l.06-.007M57.061 82.531c-.015.18-.019.361-.023.542-.003.154.001.309-.016.462-.006.05-.019.123-.027.173-.013.071-.026.143-.044.214.004.026.125.035.237.016l.068-.011c.27-.032.402-.032.673-.038.099-.002.197-.004.296-.004" style="fill:none;fill-opacity:1;stroke:#000;stroke-width:.358179;stroke-linecap:square;stroke-dasharray:none;stroke-opacity:1"/><path d="M57.74 83.056c.053.218.1.437.133.659.038.242.066.485.083.729.002.053.008.106.007.158 0 .005 0 0 0 0l.08.003v-.008c0-.055-.005-.109-.008-.163a9.146 9.146 0 0 0-.084-.734 8.042 8.042 0 0 0-.133-.661z" style="fill:none;fill-opacity:1;stroke:#000;stroke-width:.358179;stroke-dasharray:none;stroke-opacity:1"/><path d="M41.534 51.279h3.936v3.969h-3.936z" style="fill:#fff6d5;fill-opacity:1;stroke:#000;stroke-width:.211667;stroke-dasharray:none;stroke-opacity:1"/><path d="M41.958 53.535c.214.002.428 0 .642-.008a6.5 6.5 0 0 0 .561-.034l.053-.007M-7.747 56.595a.66.66 0 0 0 .22.18c.036.015.071.032.109.044.249.08.512.065.758-.02.04-.017.08-.033.118-.053.111-.062.221-.16.234-.294.002-.026-.003-.053-.004-.08-.007-.03-.01-.06-.02-.089a.933.933 0 0 0-.358-.46 1.245 1.245 0 0 0-.308-.148.348.348 0 0 0-.166-.02c-.001.017-.008.034-.003.05.002.006.01-.005.015-.008l.047-.021c.083-.04.165-.08.237-.137.028-.025.06-.047.085-.075.09-.096.151-.239.091-.368-.013-.028-.035-.05-.053-.075-.027-.02-.051-.042-.08-.058a.841.841 0 0 0-.48-.08c-.057.006-.112.02-.168.03-.165.046-.342.097-.465.222" style="fill:none;fill-opacity:1;stroke:#000;stroke-width:.396875;stroke-dasharray:none;stroke-opacity:1"/><path d="M75.712 51.279h3.936v3.969h-3.936z" style="fill:#fff6d5;fill-opacity:1;stroke:#000;stroke-width:.211667;stroke-dasharray:none;stroke-opacity:1"/><path d="M128.733 56.406c.006.086.024.1.09.16.03.02.06.042.09.06.227.13.49.19.751.178.061-.013.124-.022.184-.04.158-.046.315-.143.393-.293.015-.03.023-.064.034-.095.003-.034.01-.067.008-.1a.617.617 0 0 0-.192-.383c-.028-.029-.062-.052-.093-.078-.035-.02-.07-.043-.105-.062a1.43 1.43 0 0 0-.472-.144c-.007.001-.015.001-.022.004-.004.003-.012.015-.01.012.06-.064.14-.102.21-.155.108-.08.268-.186.29-.333.003-.025-.003-.05-.004-.076-.013-.02-.021-.045-.039-.062-.094-.093-.292-.103-.414-.09-.057.007-.114.022-.17.033-.046.015-.093.026-.137.044a.852.852 0 0 0-.397.297" style="fill:none;fill-opacity:1;stroke:#000;stroke-width:.396875;stroke-dasharray:none;stroke-opacity:1"/><path d="M55.232 64.758h3.936v3.969h-3.936z" style="fill:#fff6d5;fill-opacity:1;stroke:#000;stroke-width:.211667;stroke-dasharray:none;stroke-opacity:1"/><path d="M56.725 66.819c-.048.01-.097.014-.145.02a5.12 5.12 0 0 1-.57.008c-.135-.003-.271-.007-.406.004" style="fill:none;fill-opacity:1;stroke:#000;stroke-width:.396876;stroke-dasharray:none;stroke-opacity:1"/><path d="M57.184 104.096c.03.05.01.024.063.072.024.015.046.032.07.045.222.117.474.143.72.116.186-.041.444-.084.487-.313.006-.03.003-.062.004-.094-.007-.032-.01-.066-.02-.098-.065-.208-.232-.371-.396-.504-.038-.024-.075-.05-.115-.073-.131-.072-.335-.1-.428-.124-.03 0-.034.036-.007.039.08-.013.187-.098.28-.146.122-.072.34-.194.302-.37-.005-.026-.023-.048-.034-.071-.023-.019-.042-.041-.067-.056-.167-.102-.41-.098-.594-.066-.17.03-.373.095-.483.222" style="fill:none;fill-opacity:1;stroke:#000;stroke-width:.396875;stroke-dasharray:none;stroke-opacity:1"/><path d="M55.232 30.677h3.936v3.969h-3.936z" style="fill:#fff6d5;fill-opacity:1;stroke:#000;stroke-width:.211667;stroke-dasharray:none;stroke-opacity:1"/><path d="M-6.72 34.634c.116-.133.29-.192.452-.248.145-.031.302-.078.447-.02.055.02.108.068.1.132a.6.6 0 0 1-.184.313c-.098.086-.212.15-.324.215l-.006.01-.005.011c.03.084.133.045.197.084.242.097.435.241.572.46.068.12.144.254.122.397-.02.107-.13.154-.223.187-.23.08-.612.118-.853.023-.1-.04-.218-.094-.264-.201" style="fill:none;fill-opacity:1;stroke:#000;stroke-width:.396875;stroke-dasharray:none;stroke-opacity:1"/><g style="display:inline"><path d="M83.983-3.784h14.129v3.016H83.983z" style="fill:#fff6d5;fill-opacity:1;stroke:#000;stroke-width:.211667;stroke-dasharray:none;stroke-opacity:1" transform="rotate(32.429 -22.52 -15.697)"/><g style="stroke-width:1.29585"><path d="M76.68 30.061c-.058.259-.105.52-.16.779-.05.24-.099.48-.145.72l-.128-.032.147-.72c.054-.26.1-.521.155-.78z" style="display:inline;fill:#000;fill-opacity:1;stroke:#000;stroke-width:.171431;stroke-linecap:butt;stroke-linejoin:miter;stroke-miterlimit:4;stroke-dasharray:none;stroke-dashoffset:0;stroke-opacity:1" transform="matrix(.74503 -.1654 .16911 .76177 -.444 42.8)"/><path d="M76.153 31.533c.184-.056.372-.1.559-.149.265-.072.533-.136.8-.201.097-.023.054-.014.13-.029l.101.088c-.074.011-.032.004-.127.025-.268.064-.536.127-.8.2l-.122.032-.112.03c-.108.029-.218.05-.323.088l-.106-.084z" style="display:inline;fill:#000;fill-opacity:1;stroke:#000;stroke-width:.171431;stroke-linecap:butt;stroke-linejoin:miter;stroke-miterlimit:4;stroke-dasharray:none;stroke-dashoffset:0;stroke-opacity:1" transform="matrix(.74503 -.1654 .16911 .76177 -.444 42.8)"/></g><g style="stroke-width:1.28831"><path d="M77.893 31.519c-.133.157-.287.295-.433.44-.12.118-.11.111-.219.23-.096.118-.052.062-.133.168l-.121-.055c.082-.108.037-.05.136-.171.109-.12.1-.114.22-.233.143-.142.294-.278.426-.432l.124.053z" style="display:inline;fill:#000;fill-opacity:1;stroke:#000;stroke-width:.170433;stroke-linecap:butt;stroke-linejoin:miter;stroke-miterlimit:4;stroke-dasharray:none;stroke-dashoffset:0;stroke-opacity:1" transform="matrix(.75032 -.16657 .1699 .76528 -.61 43.04)"/><path d="M77.8 31.382c.165.136.328.274.492.413.154.132.308.264.451.408l-.131.02a7.79 7.79 0 0 0-.448-.404c-.165-.14-.333-.276-.497-.417l.132-.02zM77.472 31.862c.168.163.346.316.523.471l.062.055-.13.023-.062-.055c-.176-.156-.355-.31-.525-.474l.132-.02zM77.04 32.283c.213.18.428.358.637.543.102.091.204.184.302.28l-.131.02a7.558 7.558 0 0 0-.299-.277 18.39 18.39 0 0 0-.639-.537z" style="display:inline;fill:#000;fill-opacity:1;stroke:#000;stroke-width:.170433;stroke-linecap:butt;stroke-linejoin:miter;stroke-miterlimit:4;stroke-dasharray:none;stroke-dashoffset:0;stroke-opacity:1" transform="matrix(.75032 -.16657 .1699 .76528 -.61 43.04)"/></g><path d="M66.025 62.194a.371.371 0 0 0-.162-.218c-.025-.018-.053-.031-.079-.047-.065-.029-.114-.056-.185-.068-.004-.001-.006.009-.01.01-.033.002-.066-.002-.098 0-.087.008-.097.017-.177.045-.096.047-.18.118-.199.229-.011.074.001.101.016.175a.87.87 0 0 0 .256.392c.078.066.103.072.192.117.032.008.064.022.097.025.007 0 .006-.015.013-.017.032-.01.067-.01.1-.021a.62.62 0 0 0 .196-.114c.028-.025.05-.055.075-.083.016-.03.037-.059.05-.091a.446.446 0 0 0-.022-.36c-.012-.026-.029-.049-.043-.073-.049-.067-.024-.038-.073-.09l.11-.015c.049.06.024.026.073.1.037.07.054.092.074.171a.484.484 0 0 1-.017.305c-.014.035-.036.066-.054.1-.026.03-.05.063-.079.09a.713.713 0 0 1-.206.129c-.035.014-.07.03-.108.03-.135.003-.18-.02-.291-.056-.09-.05-.116-.058-.195-.13a.927.927 0 0 1-.257-.417c-.015-.084-.027-.113-.012-.197a.35.35 0 0 1 .138-.217c.024-.018.052-.031.078-.047.03-.012.058-.026.088-.035a.716.716 0 0 1 .2-.027.94.94 0 0 1 .376.113c.027.017.055.033.08.052a.451.451 0 0 1 .166.243l-.111-.003z" style="display:inline;fill:#000;fill-opacity:1;stroke:#000;stroke-width:.132292;stroke-linecap:butt;stroke-linejoin:miter;stroke-miterlimit:4;stroke-dasharray:none;stroke-dashoffset:0;stroke-opacity:1" transform="rotate(-12.52 37.924 59.192)"/><g style="stroke-width:1.30121"><path d="M79.08 32.453c-.1.121-.211.231-.32.345l-.256.274c-.147.158-.227.231-.377.386-.037.04-.018.023-.13-.052.115-.1.158-.14.39-.392l.256-.275c.105-.112.215-.22.313-.34z" style="display:inline;fill:#000;fill-opacity:1;stroke:#000;stroke-width:.17214;stroke-miterlimit:4;stroke-dasharray:none;stroke-opacity:1" transform="matrix(.73699 -.16361 .16955 .76374 .656 43.033)"/><path d="M78.779 33.961a17.17 17.17 0 0 0-.638-.583l-.132.028c.222.182.432.38.64.578.04.04.083.078.125.116l.135-.019c-.048-.04-.093-.084-.13-.12z" style="display:inline;fill:#000;fill-opacity:1;stroke:#000;stroke-width:.17214;stroke-miterlimit:4;stroke-dasharray:none;stroke-opacity:1" transform="matrix(.73699 -.16361 .16955 .76374 .656 43.033)"/></g><path d="M67.158 63.375c.105-.018-.133-.156-.173-.17a.84.84 0 0 0-.142-.032.592.592 0 0 0-.354.07c-.032.019-.057.047-.086.07-.017.03-.04.058-.051.091-.054.166.04.347.136.475.026.036.065.08.096.11a.47.47 0 0 0 .147.106l.005.073c-.06-.012-.076-.024-.117-.05a.862.862 0 0 1-.137-.117c-.03-.033-.07-.076-.097-.112-.103-.147-.191-.337-.13-.52a.337.337 0 0 1 .15-.186.534.534 0 0 1 .117-.053c.186-.064.353-.036.532.037a.974.974 0 0 1 .211.176c.029.047-.009.086-.05.094z" style="display:inline;fill:#000;fill-opacity:1;stroke:#000;stroke-width:.132292;stroke-miterlimit:4;stroke-dasharray:none;stroke-opacity:1" transform="rotate(-12.52 37.924 59.192)"/><g style="stroke-width:1.2871"><path d="M81.943 35.46c.266.25.53.502.783.765l.033.037-.133.019-.032-.036c-.25-.265-.516-.515-.784-.762z" style="display:inline;fill:#000;fill-opacity:1;stroke:#000;stroke-width:.170273;stroke-miterlimit:4;stroke-dasharray:none;stroke-opacity:1" transform="matrix(.75117 -.16676 .17002 .76585 .423 43.702)"/><path d="M82.32 35.934c-.212.246-.422.493-.636.737a9.46 9.46 0 0 1-.228.249l-.12-.06c.083-.083.162-.172.23-.245.213-.243.423-.489.63-.737z" style="display:inline;fill:#000;fill-opacity:1;stroke:#000;stroke-width:.170273;stroke-miterlimit:4;stroke-dasharray:none;stroke-opacity:1" transform="matrix(.75117 -.16676 .17002 .76585 .423 43.702)"/><path d="M81.116 36.337c.148.154.307.297.462.445.09.086.165.164.253.251.078.082.158.163.247.233l-.132.026a4.516 4.516 0 0 1-.245-.238c-.236-.236-.481-.461-.718-.695z" style="display:inline;fill:#000;fill-opacity:1;stroke:#000;stroke-width:.170273;stroke-miterlimit:4;stroke-dasharray:none;stroke-opacity:1" transform="matrix(.75117 -.16676 .17002 .76585 .423 43.702)"/></g><g style="stroke-width:1.29315"><path d="M83.01 36.51c.269.264.602.603.864.874l.087.09-.131.02-.086-.09a31.58 31.58 0 0 0-.868-.872z" style="display:inline;fill:#000;fill-opacity:1;stroke:#000;stroke-width:.171073;stroke-miterlimit:4;stroke-dasharray:none;stroke-opacity:1" transform="matrix(.7503 -.16657 .16863 .75959 .894 44.031)"/><path d="m83.504 37.023-.037.045c-.087.095-.182.183-.274.273-.165.162-.095.092-.258.26a4.825 4.825 0 0 0-.214.238.652.652 0 0 0-.09.125l-.122-.064c.024-.042.06-.08.091-.118a5.25 5.25 0 0 1 .217-.239c.167-.173.09-.095.258-.262.09-.09.184-.176.27-.269l.035-.043z" style="display:inline;fill:#000;fill-opacity:1;stroke:#000;stroke-width:.171073;stroke-miterlimit:4;stroke-dasharray:none;stroke-opacity:1" transform="matrix(.7503 -.16657 .16863 .75959 .894 44.031)"/></g><g style="stroke-width:1.28665"><path d="M84.253 37.645a.961.961 0 0 0-.34.37c-.025.049-.039.102-.057.153-.005.053-.018.105-.015.158.01.174.079.255.226.345.019.012.06.02.079.023a.715.715 0 0 0 .331-.068c.1-.043.21-.118.263-.216.007-.01.008-.024.011-.037l.13.037c-.007.018-.01.038-.017.052a.628.628 0 0 1-.282.244.866.866 0 0 1-.174.063.674.674 0 0 1-.183.021.61.61 0 0 1-.398-.178.485.485 0 0 1-.115-.311c-.003-.057.011-.114.017-.17.02-.056.035-.113.06-.165.07-.14.193-.284.32-.376l.028-.015z" style="fill:#000;fill-opacity:1;stroke:#000;stroke-width:.170213;stroke-miterlimit:4;stroke-dasharray:none;stroke-opacity:1" transform="matrix(.75698 -.16805 .16883 .7605 .598 44.305)"/><path d="M84.026 38.652c-.117.116-.237.233-.325.374-.007.014-.009.019-.009.026l-.134-.022a.158.158 0 0 1 .018-.054c.089-.145.211-.264.33-.385z" style="fill:#000;fill-opacity:1;stroke:#000;stroke-width:.170213;stroke-miterlimit:4;stroke-dasharray:none;stroke-opacity:1" transform="matrix(.75698 -.16805 .16883 .7605 .598 44.305)"/></g></g><path d="M43.252 52.93s.322-.148.488-.206c.111-.04.224-.076.34-.098.108-.02.221-.05.332-.058.07-.005.147-.012.212.017a.13.13 0 0 1 .07.087.258.258 0 0 1-.024.173c-.069.13-.171.23-.27.338-.162.174-.376.359-.537.5-.137.12-.31.222-.382.39-.004.008-.007.02-.001.027.01.011.03.003.045.002.12-.008.236-.042.355-.058.117-.015.236-.026.354-.035.166-.012.333-.02.5-.025.046-.002.14-.002.14-.002" style="display:inline;fill:none;stroke:#000;stroke-width:.370417;stroke-dasharray:none;stroke-opacity:1"/><path d="M56.35 32.255s.353-.143.535-.198a2.48 2.48 0 0 1 .37-.09c.118-.016.241-.043.36-.046.077-.003.16-.006.229.028a.14.14 0 0 1 .072.096.278.278 0 0 1-.035.185c-.08.136-.195.24-.307.35-.182.18-.42.369-.601.514-.152.122-.345.223-.43.4-.003.01-.008.022-.001.03.01.012.032.004.048.004.13-.004.256-.035.385-.046.127-.011.255-.017.383-.021.18-.006.36-.007.54-.005.05 0 .15.005.15.005" style="display:inline;fill:none;stroke:#000;stroke-width:.396876;stroke-dasharray:none;stroke-opacity:1"/><path d="M76.983 52.945c.194-.162.408-.302.644-.405.045-.02.091-.036.137-.054.046-.014.351-.122.378 0 .004.02-.002.04-.003.06-.01.03-.019.061-.031.09-.113.26-.298.495-.466.718-.163.214-.35.408-.549.59l-.093.082c-.005.004-.02.008-.014.012.005.003.012.004.018.006.223-.054.46-.064.696-.073.344-.007.692.007 1.042.043l.088.011" style="display:inline;fill:none;stroke:#000;stroke-width:.370417;stroke-dasharray:none"/><path d="M58.762 67.536a6.292 6.292 0 0 0-.753-.09c-.297-.01-.598-.014-.89.05-.028.007-.083.011-.1.04-.002.003.005-.002.008-.003l.04-.027c.152-.112.293-.238.429-.369.235-.224.483-.487.689-.777.05-.071.2-.29.133-.388-.03-.043-.076-.051-.123-.06a1.448 1.448 0 0 0-.794.135c-.19.09-.363.197-.504.358" style="display:inline;fill:none;stroke:#000;stroke-width:.370416;stroke-dasharray:none"/></g></svg>