<svg xmlns="http://www.w3.org/2000/svg" width="500" height="230" viewBox="0 0 132.292 60.854"><path d="M99.322 24.093c.006.12.03.257.025.41M99.332 31.014a2.617 2.617 0 0 1-.033-.508M99.301 24.918c-.006.11.002.346.033.508M99.322 29.547c.033.143-.03.32.033.508M99.337 29.08a2.617 2.617 0 0 1-.033-.508M99.307 23.148c-.006.11.002.346.033.507M99.342 28.135c-.032-.142.03-.32-.033-.507M99.348 25.863c.006.12-.028.296-.033.448M99.3 31.457c.007.12.03.295.026.448M99.333 26.726c.006.12-.028.296-.033.448M89.274 25.13c-.12-.006-.257-.03-.409-.024M90.22 25.146a2.56 2.56 0 0 1-.508-.033M91.083 25.134c-.12-.006-.296-.03-.448-.025M93.265 25.13c.12-.006.257-.03.41-.024M100.186 25.12a2.612 2.612 0 0 1-.508.033M94.09 25.151c.11.007.346-.002.508-.033M98.72 25.13c.142-.032.32.03.507-.033M98.252 25.116a2.612 2.612 0 0 1-.508.033M92.32 25.146c.11.006.346-.003.507-.033M91.456 25.134c.12-.006.296-.03.448-.025M97.307 25.11c-.142.033-.32-.03-.507.033M95.035 25.105c.12-.007.296.028.448.033M100.629 25.152c.12-.007.295-.03.448-.026M95.898 25.12c.12-.007.296.028.448.032M60.385 44.9c-.143.032-.32-.03-.508.032M63.114 44.913c-.119.006-.295-.028-.447-.033M58.558 44.88c-.12.006-.296.03-.448.025M62.251 44.93c-.119.007-.295-.027-.447-.032M59.42 44.91c-.119.007-.295-.028-.447-.032M61.389 44.894c-.12.006-.257.03-.41.025M63.487 44.929c.142-.033.379-.035.508-.033" style="display:inline;fill:none;stroke:#000;stroke-width:.291042;stroke-miterlimit:2;stroke-dasharray:none"/><path d="M62.033 44.63c.006.12-.029.296-.033.448M61.99 47.408c.032.143-.03.32.033.508M62.018 46.941a2.612 2.612 0 0 1-.033-.508M61.999 45.494c-.006.11.002.346.033.507M61.989 43.767c.006.12.03.296.025.448M80.638 40.086c.033.143-.03.32.033.508M80.649 45.679c.006.12-.029.295-.033.448M80.618 37.452c.006.12.03.257.025.41M80.628 44.373a2.612 2.612 0 0 1-.032-.508M80.648 47.088c-.032-.143.03-.32-.033-.508M80.619 42.906c.032.143-.03.321.033.508M80.606 48.477c.007.12.03.257.025.409M80.633 42.44a2.612 2.612 0 0 1-.033-.509M80.67 38.375c.006.12-.028.296-.033.448M59.997 38.299c-.12.006-.296.03-.448.025M58.27 38.305a2.56 2.56 0 0 0-.507.033M59.134 38.316c-.12.007-.296.03-.448.025M80.65 49.3c.007.12-.028.297-.033.449M80.597 44.816c.006.12.03.295.025.448M80.65 41.051c.006.12-.029.296-.033.448M80.633 39.238c.006.12.03.257.025.409M80.617 47.531c-.006.11.003.347.033.508M47.66 44.932c-.12.006-.296-.029-.448-.033M55.886 44.901c-.12.006-.257.03-.41.025M48.965 44.912c.143-.033.379-.035.508-.033M55.061 44.88a2.56 2.56 0 0 0-.508.033M46.25 44.931c.143-.032.32.03.508-.033M50.432 44.902c-.143.032-.321-.03-.508.033M42.466 44.924c-.119.006-.295-.028-.447-.033M45.016 44.89c-.12.006-.257.03-.409.024M50.899 44.916c.142-.032.378-.035.508-.033M56.831 44.886a2.56 2.56 0 0 0-.508.033M57.695 44.897c-.12.007-.296.03-.448.025M51.843 44.921c.143-.032.321.03.508-.033M39.688 44.88c-.142.033-.32-.029-.508.034M44.192 44.933c-.12.007-.295-.028-.448-.033M37.734 44.898c-.119.007-.256.03-.409.025M40.155 44.909c.143-.032.38-.035.508-.033M41.603 44.89a2.56 2.56 0 0 0-.508.033M54.115 44.927c-.119.007-.295-.028-.447-.033M48.522 44.88c-.12.006-.295.03-.448.025M38.177 44.91c.143-.033.32.03.508-.034M36.408 44.929c.143-.033.38-.035.508-.033M45.962 44.9a2.56 2.56 0 0 0-.508.033M53.253 44.912c-.12.007-.296-.028-.448-.033M43.33 44.88c-.12.007-.296.03-.448.025" style="display:inline;fill:none;stroke:#000;stroke-width:.291042;stroke-miterlimit:2;stroke-dasharray:none"/><path d="M83.044 70.275c-.143.032-.32-.03-.508.033M77.451 70.285c-.119.007-.295-.028-.447-.033M85.678 70.255c-.12.006-.257.03-.41.025M78.757 70.265c.143-.032.379-.035.508-.033M88.35 70.233c-.12.006-.296.03-.448.025M76.042 70.285c.143-.033.32.03.508-.033M80.224 70.255c-.143.033-.32-.03-.508.033M72.104 70.278c-.12.006-.296-.029-.448-.033M74.653 70.243c-.12.006-.257.03-.409.025M80.69 70.27c.143-.033.38-.035.509-.033M86.623 70.24a2.56 2.56 0 0 0-.507.033M84.755 70.307c-.12.006-.296-.029-.448-.033M87.487 70.25c-.12.007-.296.03-.448.026M69.325 70.234c-.142.033-.32-.03-.507.033M73.83 70.287c-.12.006-.296-.028-.449-.033M67.372 70.252c-.12.006-.257.03-.41.025M69.792 70.263c.143-.033.38-.035.508-.033M71.24 70.244a2.56 2.56 0 0 0-.508.033M78.314 70.234c-.12.006-.295.03-.448.025M67.814 70.263c.143-.032.32.03.508-.033M82.079 70.286c-.12.007-.296-.028-.448-.033M83.892 70.27c-.12.006-.257.03-.409.024M75.599 70.254a2.56 2.56 0 0 0-.508.033M72.966 70.234c-.119.006-.295.03-.447.025" style="display:inline;fill:none;stroke:#000;stroke-width:.291042;stroke-miterlimit:2;stroke-dasharray:none" transform="translate(-31.013 -31.933)"/><path d="M16.476 53.059c-.032-.323.03-.724-.033-1.147-.022-.67.023-1.154.038-1.729M25.754 50.232c-.03.384-.004.774-.019 1.078.022.636.03 1.108.014 1.654" style="display:inline;fill:none;stroke:#000;stroke-width:.291042;stroke-miterlimit:2;stroke-dasharray:none"/><path d="M108.06 50.512c.69.129 1.364.34 2.042.523.615.161 1.243.268 1.874.342.093.024.443.013.23.154-.683.263-1.37.514-2.06.756-.568.214-1.156.384-1.704.645" style="fill:none;stroke:#000;stroke-width:.291042;stroke-dasharray:none"/><path d="M111.26 51.558c-.424.009-2.97.056-3.498.051-.659-.005-1.359-.062-1.997-.039-1.04.038-2.078-.013-3.118.017-1.627.047-2.955.064-4.432.055-.57-.004-1.507-.022-2.28.013-.846.037-2.467-.068-3.703-.032-.66.007-1.32-.008-1.982-.007-2.279.004-5.241.007-7.416.012-2.25.006-4.5-.041-6.748.01-3.68-.155-7.367-.082-11.048.004-2.33-.108-4.66-.046-6.99-.088a405.85 405.85 0 0 0-11.52-.028c-2.184.023-4.36.068-6.54.048-4.261-.04-8.799-.015-12.781-.047-2.665-.006-5.328-.061-7.991-.01a196.15 196.15 0 0 1-7.357.036 38.292 38.292 0 0 0-2.947.056" style="fill:#fef7dc;stroke:#000;stroke-width:.291042;stroke-dasharray:none"/><path d="M35.403 13.477c-.064-.264-.134-.527-.2-.79-.176-.657-.333-1.319-.502-1.977a46.046 46.046 0 0 0-.363-1.269c-.002-.005-.051-.194-.071-.202-.028-.012-.068.183-.078.177-.16.496-.3.998-.434 1.5-.176.662-.347 1.325-.548 1.979-.09.274-.188.545-.277.82" style="fill:none;stroke:#000;stroke-width:.291043;stroke-dasharray:none"/><g style="stroke-width:1.1285"><path d="M119.2 58.965c-.247-.257-.497-.51-.747-.765-.325-.326-.655-.648-.974-.978-.116-.125-.164-.177-.277-.304-.028-.03-.078-.083-.1-.11" style="fill:none;stroke:#000;stroke-width:.328441;stroke-dasharray:none" transform="matrix(.88625 0 0 .88602 12.86 73.26)"/><path d="m116.948 58.996.392-.385c.302-.304.595-.616.883-.931.24-.263.483-.525.755-.761.045-.04.094-.076.14-.116" style="fill:none;stroke:#000;stroke-width:.328441;stroke-dasharray:none" transform="matrix(.88625 0 0 .88602 12.86 73.26)"/></g><g style="display:inline;stroke-width:1.64501;stroke-dasharray:none"><path d="M-1220.575-3141.811c-1.343.068-2.687.171-4.02.274-2.622.217-5.233.515-7.864.549" style="fill:none;stroke:#000;stroke-width:1.64501;stroke-dasharray:none" transform="matrix(.17627 0 0 .17758 333.357 608.193)"/><path d="M-1219.182-3130.928c-.16.81-.684 1.474-1.354 1.963a5.134 5.134 0 0 1-4.398.796c-1.512-.41-2.877-1.573-3.127-3.39-.354-2.566.643-6.728 1.01-9.509.29-2.198.655-4.386 1.081-6.562" style="fill:none;stroke:#000;stroke-width:1.64501;stroke-dasharray:none" transform="matrix(.17627 0 0 .17758 333.357 608.193)"/></g><path d="M120.838 49.83c.343-.034.693-.025 1.04-.027.204.005.407-.007.61.005" style="fill:none;stroke:#000;stroke-width:.291042;stroke-dasharray:none"/><path d="M120.773 49.664v1.181c.018.65.03 1.301.048 1.952.007.268.005.652.025.92.005.063.008.063.06.079.043.025.083.015.154.014l.766-.02c.156-.003.307-.008.462-.01.058 0 .141-.004.222.002" style="fill:none;stroke:#000;stroke-width:.291042;stroke-dasharray:none"/><path d="M138.16 76.387c.061.254.111.51.173.765.031.052.019.12.04.176.006.019-.002-.041-.002-.061 0-.029.002-.057.004-.086.057-.38.328-.679.619-.908.07-.055.146-.101.219-.152.193-.094.478-.264.69-.11.09.065.11.146.154.243.087.309.103.631.148.948.021.042.028.281-.02.092a.823.823 0 0 1 .089-.604c.04-.07.094-.13.141-.195.066-.06.127-.127.197-.183.2-.158.567-.373.83-.38.05 0 .098.015.146.022.038.024.082.04.114.07.192.18.205.564.225.807.01.204.017.41.01.613" style="fill:none;stroke:#000;stroke-width:.291042;stroke-linecap:round;stroke-dasharray:none"/><path d="M125.631 53.756c.31-.064.631-.043.945-.045.195.008.405.018.595.015.006-.014-.158-.005-.026.013 0-.187-.021-.515-.02-.703 0-.599.001-1.198-.003-1.796a19.49 19.49 0 0 0-.011-.579c-.007-.179-.007-.371-.054-.546-.008-.031-.023-.06-.034-.09-.015-.02-.027-.041-.044-.058-.122-.123-.335-.104-.49-.123a5.491 5.491 0 0 0-1.003.065" style="fill:none;stroke:#000;stroke-width:.291042;stroke-dasharray:none"/><g style="display:inline;stroke-width:1.10019;stroke-dasharray:none"><path d="M-26.507 186.231c.07-1.34.014-2.682-.059-4.02-.203-3.762-.371-6.73-.551-10.74-.01-1.81-.04-3.61.33-5.39.14-.65.32-1.35.78-1.87.16-.18.39-.29.59-.43.25-.06.48-.16.73-.18 1.33-.08 2.59.65 3.27 1.76" style="fill:none;stroke:#000;stroke-width:1.10019;stroke-dasharray:none" transform="matrix(.2981 0 0 .23476 42.7 -71.369)"/><path d="m-23.37 175.977-.895.03c-2.332.1-4.68.15-6.994.55" style="fill:none;stroke:#000;stroke-width:1.10018;stroke-dasharray:none" transform="matrix(.2981 0 0 .23476 42.7 -71.369)"/></g><path d="M29.654 5.723c-.375-.003-.699-.202-.919-.434a1.432 1.432 0 0 1-.327-.555c-.088-.302-.005-.616.117-.903.13-.278.334-.524.57-.752.105-.096.23-.19.362-.26" style="display:inline;fill:none;stroke:#000;stroke-width:.291043;stroke-miterlimit:2;stroke-dasharray:none"/><path d="M32.84 5.464c.572-.237.864-.586.844-.95-.02-.364-.222-.615-.566-.898a1.933 1.933 0 0 0-.5-.26" style="display:inline;fill:none;stroke:#000;stroke-width:.291042;stroke-linecap:butt;stroke-miterlimit:2;stroke-dasharray:none"/><g style="display:inline;stroke-width:5.54365;stroke-dasharray:none"><path d="M6779.195 202.554c-1.047.985-2.014 1.891-2.902 2.746-.416.402-5.218 4.834-5.302 4.912-7.027 6.486-13.991 13.043-21.216 19.311-4.41 3.849-8.778 7.747-12.834 11.973" style="fill:none;stroke:#000;stroke-width:5.54365;stroke-miterlimit:2;stroke-dasharray:none" transform="matrix(.0526 0 0 .0524 -314.411 -45.402)"/><path d="M6778.08 240.633c-6.05-4.443-11.673-9.409-17.066-14.634-6.56-6.355-3.475-3.254-9.87-9.753-3.52-3.578-6.975-7.253-10.615-10.713-.459-.436-.949-.838-1.423-1.257" style="fill:none;stroke:#000;stroke-width:5.54365;stroke-miterlimit:2;stroke-dasharray:none" transform="matrix(.0526 0 0 .0524 -314.411 -45.402)"/></g><g style="stroke-width:.504066;stroke-dasharray:none"><path d="M43.553-7.226c-.385.013-.766.036-1.15.058-.902.06-1.803.128-2.697.264" style="display:inline;fill:none;stroke:#000;stroke-width:.504066;stroke-dasharray:none" transform="matrix(.57603 0 0 .57874 7.036 7.206)"/><path d="M43.792-4.252c.02.225-.072.407-.226.573a1.761 1.761 0 0 1-1.315.516c-.512-.059-.823-.18-.925-.727-.049-.773.086-1.543.16-2.312.093-.842.234-1.673.349-2.511" style="display:inline;fill:none;stroke:#000;stroke-width:.504066;stroke-dasharray:none" transform="matrix(.57603 0 0 .57874 7.036 7.206)"/></g><g style="display:inline;stroke-width:.410176;stroke-dasharray:none"><path d="M1266.634 185.582c-.05-.71-.126-1.42-.08-2.13.058-.882.088-1.764.08-2.647-.01-.2.022-.4-.01-.599-.187-.084-.468-.011-.694-.031-.619.004-1.237.022-1.855.041" style="display:inline;fill:none;stroke:#000;stroke-width:.410176;stroke-miterlimit:2;stroke-dasharray:none" transform="matrix(.7037 0 0 .71545 -847.354 -126.604)"/><path d="M1266.835 185.368c-.446.01-.213.008-.706.01-.732.008-1.463.009-2.19.035" style="display:inline;fill:none;stroke:#000;stroke-width:.410176;stroke-miterlimit:2;stroke-dasharray:none" transform="matrix(.7037 0 0 .71545 -847.354 -126.604)"/></g><g style="display:inline;stroke-width:.491409;stroke-dasharray:none"><path d="M1073.025 190.33a.57.57 0 0 1-.256.017 22.918 22.918 0 0 0-1.528-.052c-.501 0-.997 0-1.493-.005" style="display:inline;fill:none;stroke:#000;stroke-width:.491409;stroke-miterlimit:2;stroke-dasharray:none" transform="matrix(.65605 0 0 .53467 -665.64 -99.422)"/><path d="M1073.155 197.143c-.262.08-.568.052-.85.049-.582-.008-1.29-.005-1.872-.009-.063.016-.02-.209-.03-.3 0-1.16.053-2.254.015-3.41-.026-.783 0-1.478-.023-2.067-.014-.368-.016-.994-.048-1.36" style="display:inline;fill:none;stroke:#000;stroke-width:.491409;stroke-miterlimit:2;stroke-dasharray:none" transform="matrix(.65605 0 0 .53467 -665.64 -99.422)"/></g><path d="M48.619-30.377c.433.41 1.146.607 1.8.51.217-.03.464-.136.489-.333.047-.263-.165-.5-.38-.68-.405-.337-.967-.497-1.437-.762-.146-.079-.273-.232-.188-.375.117-.156.445-.216.651-.238.327-.035.701.072.96.238" style="fill:none;stroke:#000;stroke-width:.291042;stroke-linecap:square;stroke-dasharray:none"/><path d="M49.406-29.393c0-.12.001-.24.008-.36.022-.343.073-.686.089-1.03.015-.382.01-.765.01-1.148v-.7M50.184-29.439l-.002-.048c.003-.23.031-.46.039-.69.011-.348.02-.696-.02-1.044-.03-.313-.028-.626-.033-.941-.003-.183-.009-.366.012-.548" style="fill:none;stroke:#000;stroke-width:.291042;stroke-linecap:square;stroke-dasharray:none"/><path d="M41.96 5.205c.02-.093.045-.234.05-.343.012-.355-.02-.685-.196-1.069-.04-.087-.153-.242-.268-.29-.262-.106-.613.228-.71.343-.078.092-.171.238-.222.34a2.464 2.464 0 0 0-.207.566c-.016.064-.023.13-.03.195-.005.037-.022.077-.006.112.008.017-.006.016.016.024a2.596 2.596 0 0 0-.17-.976c-.06-.166-.208-.528-.53-.47a.45.45 0 0 0-.138.05.825.825 0 0 0-.158.116c-.335.313-.492.715-.584 1.107-.024.106-.041.12.01.162.004.003-.007-.01-.008-.014l-.012-.075c-.023-.133-.017-.179-.039-.324a6.54 6.54 0 0 0-.323-1.253" style="display:inline;fill:none;stroke:#000;stroke-width:.264583;stroke-linecap:butt;stroke-linejoin:round;stroke-miterlimit:2;stroke-dasharray:none;stroke-opacity:1"/><path d="M30.538 53.265c.38-.086.784-.047 1.148.086.44.184.762.577.941 1.006.118.362.15.795-.068 1.127-.17.209-.4.365-.656.455-.45.174-.958.203-1.426.085-.422-.113-.85-.35-1.03-.764a1.113 1.113 0 0 1-.046-.781c.14-.478.509-.876.956-1.093.209-.095.447-.143.675-.095" style="display:inline;fill:none;stroke:#000;stroke-width:.291042;stroke-dasharray:none;stroke-opacity:1"/><path d="M80.612 53.059c-.032-.323.03-.724-.033-1.147-.022-.67.022-1.154.038-1.729M68.396 124.996c.006.119-.029.295-.033.447M68.364 124.025c.032.143-.03.32.033.508" style="display:inline;fill:none;stroke:#000;stroke-width:.291042;stroke-miterlimit:2;stroke-dasharray:none"/><path d="M68.412 74.422c-.032-.143.03-.321-.033-.508M68.389 72.944c.032.142-.03.32.033.507M68.412 72.07c.006.12-.028.296-.033.448M68.367 71.27c.006.118.03.256.025.408M68.412 70.824a2.612 2.612 0 0 1-.033-.508M68.37 63.063c-.006.11.003.346.034.508M68.396 61.325c.006.12-.029.296-.033.448M68.39 64.965c.006.12.03.295.025.448M68.411 69.899c-.032-.143.03-.32-.033-.508M68.364 60.355c.032.142-.03.32.033.508M68.421 68.484c.007.12-.028.295-.033.447M68.383 67.654c.006.12.03.257.025.409M68.403 64.516a2.612 2.612 0 0 1-.033-.508M68.377 65.834c-.006.11.003.346.033.508M68.41 66.785c.007.12-.028.296-.033.448M68.391 62.064c.007.12.03.295.026.448M68.412 59.842c-.032-.143.03-.32-.033-.508M68.389 58.364c.032.142-.03.32.033.508M68.412 57.49c.006.12-.028.296-.033.448M68.367 56.69c.006.119.03.256.025.408M68.412 56.244a2.612 2.612 0 0 1-.033-.508M68.37 48.483c-.006.11.003.347.034.508M68.39 50.385c.006.12.03.296.025.448M68.411 55.319c-.032-.143.03-.32-.033-.508M68.421 53.904c.007.12-.028.296-.033.448M68.383 53.074c.006.12.03.257.025.41M68.403 49.937a2.612 2.612 0 0 1-.033-.508M68.377 51.254c-.006.11.003.347.033.508M68.41 52.206c.007.119-.028.295-.033.447M68.391 47.614c.007.12.03.296.026.448" style="display:inline;fill:none;stroke:#000;stroke-width:.291042;stroke-miterlimit:2;stroke-dasharray:none" transform="translate(4.119 91.212)"/><path d="M140.89 27.945c-.12.007-.296-.028-.448-.033" style="display:inline;fill:none;stroke:#000;stroke-width:.291042;stroke-miterlimit:2;stroke-dasharray:none"/><path d="M46.073 48.731c-.142.032-.32-.03-.507.033M46.947 48.754c-.12.006-.296-.028-.448-.033M47.748 48.709c-.12.006-.257.03-.41.025M48.193 48.754c.143-.032.38-.035.508-.033M55.954 48.713a2.56 2.56 0 0 0-.508.033M57.692 48.738c-.12.006-.296-.029-.448-.033M54.052 48.732c-.12.006-.295.03-.448.025M49.118 48.753c.143-.032.321.03.508-.033M58.662 48.706c-.142.032-.32-.03-.508.033M50.533 48.764c-.119.006-.295-.029-.447-.033M51.363 48.725c-.12.006-.257.03-.409.025M54.5 48.745c.143-.033.38-.035.509-.033M53.183 48.72a2.56 2.56 0 0 0-.508.032M52.232 48.753c-.12.006-.296-.029-.448-.033M56.823 48.734c-.12.006-.295.03-.448.025M59.175 48.754c.143-.032.32.03.508-.033M60.653 48.731c-.142.032-.32-.03-.508.033M61.527 48.754c-.12.006-.296-.028-.448-.033M62.328 48.709c-.12.006-.257.03-.41.025M62.773 48.754c.143-.032.379-.035.508-.033M68.632 48.732c-.12.006-.296.03-.448.025M63.698 48.753c.143-.032.32.03.508-.033M65.113 48.764c-.12.006-.296-.029-.448-.033M65.943 48.725c-.12.006-.257.03-.41.025M68.639 48.745c.142-.033.378-.035.508-.033M67.763 48.72a2.56 2.56 0 0 0-.508.032M66.811 48.753c-.119.006-.295-.029-.447-.033" style="display:inline;fill:none;stroke:#000;stroke-width:.291042;stroke-miterlimit:2;stroke-dasharray:none" transform="translate(0 -67.955)"/><path d="M140.021 27.94c-.12.007-.295.03-.447.026" style="display:inline;fill:none;stroke:#000;stroke-width:.291042;stroke-miterlimit:2;stroke-dasharray:none"/><g style="display:inline;stroke-width:3.03546;stroke-dasharray:none"><path d="M-868.11-3402.88h-1.222c-4.597.233-9.537.64-14.134 1.047" style="fill:none;stroke:#000;stroke-width:3.03546;stroke-dasharray:none;stroke-opacity:1" transform="matrix(.09483 .00696 -.00708 .09642 126.225 450.781)"/><path d="M-883.182-3385.757c.757.583.291.291 1.339.874 3.782 1.514 7.099 1.514 10.882.058 1.047-.583 1.862-.932 2.618-1.922 1.28-1.806.656-4.198-.701-5.644-.454-.484-.952-.983-1.512-1.339-2.718-1.723-6.139-1.834-9.309-.589-1.43.562-1.818.709-3.04 1.64-.407.292-.872.758-1.047.525-.117-.175-.058-.35-.058-.524.699-3.378 1.12-6.067 1.934-9.445" style="fill:none;stroke:#000;stroke-width:3.03546;stroke-dasharray:none;stroke-opacity:1" transform="matrix(.09483 .00696 -.00708 .09642 126.225 450.781)"/></g><path d="M69.475 116.832a.773.773 0 0 1 .333-.012c.042.01.087.019.127.033.21.075.376.247.483.463.017.05.037.098.05.148a.767.767 0 0 1-.1.63c-.034.048-.078.085-.117.126-.052.033-.1.073-.156.1a1.119 1.119 0 0 1-.904.012c-.071-.03-.133-.078-.198-.118-.114-.119-.166-.147-.23-.31a.735.735 0 0 1 .01-.546c.025-.053.065-.093.097-.138.043-.04.084-.085.129-.12.124-.097.388-.243.544-.205.016.003.028.02.042.03" style="display:inline;fill:none;stroke:#000;stroke-width:.291042;stroke-miterlimit:2;stroke-dasharray:none"/><path d="M-29.11 55.706c.21-.127.443-.235.693-.257.057-.005.141-.006.199 0 .126.013.29.044.314.211.024.172-.092.308-.201.416a1.375 1.375 0 0 1-.285.213c.084.014.243.043.33.081.167.073.31.168.399.316.104.175.057.328-.09.45a.978.978 0 0 1-.341.162 2.162 2.162 0 0 1-.732.075 1.189 1.189 0 0 1-.33-.073.738.738 0 0 1-.158-.092" style="display:inline;fill:none;fill-opacity:1;stroke:#000;stroke-width:.264583;stroke-linecap:butt;stroke-linejoin:miter;stroke-miterlimit:4;stroke-dasharray:none;stroke-opacity:1"/><path d="M-5.664 56.199c.258.166.506.372.608.675.087.259.034.591-.153.762-.161.147-.324.233-.533.244-.28.014-.568-.102-.691-.35-.147-.293-.11-.545.004-.816.122-.291.385-.604.75-.669" style="display:inline;fill:none;fill-opacity:1;stroke:#000;stroke-width:.291042;stroke-linecap:butt;stroke-linejoin:miter;stroke-miterlimit:4;stroke-dasharray:none;stroke-opacity:1"/><path d="M43.873 147.127h24.392M68.471 145.421h24.392" style="fill:none;stroke:#1a1a1a;stroke-width:.291042;stroke-linecap:square;stroke-dasharray:none"/><path d="M94.879 116.853a.728.728 0 0 1 .66.118c.273.187.468.513.433.849a.845.845 0 0 1-.538.675c-.28.107-.624.075-.856-.123a.783.783 0 0 1-.305-.428.82.82 0 0 1 .193-.779c.161-.178.393-.309.639-.308" style="display:inline;fill:none;fill-opacity:1;stroke:#000;stroke-width:.291042;stroke-linecap:butt;stroke-linejoin:miter;stroke-miterlimit:4;stroke-dasharray:none;stroke-opacity:1"/><path d="M92.251 117.028a.492.492 0 0 1 .185-.2c.193-.11.472-.048.703.062.333.143.555.51.535.817.004.29-.19.502-.412.643a1.027 1.027 0 0 1-.553.174c-.26.009-.563-.044-.792-.243a.676.676 0 0 1-.198-.692c.112-.38.467-.617.866-.7" style="display:inline;fill:none;stroke:#000;stroke-width:.291042;stroke-dasharray:none;stroke-opacity:1"/><g style="display:inline;stroke-width:2.68372;stroke-dasharray:none"><path d="M-1068.518-3395.844c.845-.636 1.665-1.305 2.488-1.97 1.13-.9 2.23-1.836 3.342-2.757l.37-.297m-.058-.074-.37.299c-1.11.924-2.209 1.86-3.34 2.758-.82.662-1.64 1.33-2.487 1.957" style="fill:none;stroke:#000;stroke-width:2.68372;stroke-dasharray:none" transform="matrix(.10695 0 0 .10996 204.464 490.48)"/><path d="M-1063.331-3383.522c-.051-.646-.06-1.295-.071-1.943-.028-1.284 0-2.567.02-3.85.041-1.568.1-3.135.147-4.702.05-1.632.045-3.266.072-4.899.013-.766.03-1.531.053-2.297M-1058.795-3383.322h-.597c-1.1 0-2.2-.015-3.3-.031-1.13-.014-2.26-.02-3.389.048-.614.027-1.228.05-1.842.067" style="fill:none;stroke:#000;stroke-width:2.68372;stroke-dasharray:none" transform="matrix(.10695 0 0 .10996 204.464 490.48)"/></g><path d="M19.191 147.127h24.391" style="fill:none;stroke:#1a1a1a;stroke-width:.291042;stroke-linecap:square;stroke-dasharray:none"/><path d="M18.673 58.843h-.116c-.437.022-.906.062-1.343.101" style="fill:#000;stroke:#000;stroke-width:.291042;stroke-dasharray:none;stroke-opacity:1" transform="translate(0 58.172)"/><path d="M17.241 60.5c.072.056.028.028.127.084.36.147.675.147 1.034.006.1-.057.177-.09.249-.186.121-.175.062-.407-.067-.546a.784.784 0 0 0-.144-.13c-.258-.167-.583-.177-.884-.057-.136.054-.172.069-.289.159-.038.028-.082.073-.1.05-.01-.016-.005-.033-.005-.05.067-.327.107-.587.184-.914" style="fill:none;stroke:#000;stroke-width:.291042;stroke-dasharray:none;stroke-opacity:1" transform="translate(0 58.172)"/><path d="m16.517 118.106-.12-.006c-.455-.001-.943.014-1.398.03" style="fill:#000;stroke:#000;stroke-width:.291042;stroke-dasharray:none;stroke-opacity:1"/><path d="M20.138 117.356c.22-.05.454-.027.665.049.254.105.44.331.545.577.068.208.087.456-.04.646a.853.853 0 0 1-.38.26c-.26.1-.555.117-.826.05-.244-.065-.492-.201-.596-.439a.631.631 0 0 1-.027-.447c.082-.274.295-.502.554-.627a.647.647 0 0 1 .39-.054" style="display:inline;fill:none;stroke:#000;stroke-width:.291042;stroke-dasharray:none;stroke-opacity:1"/><path d="M33.062 38.325c.251.023.762-.027 1.095-.003.521.038.787-.003 1.15-.001M35.072 31.719c-.219.032-.663-.037-.952-.004-.453.052-.684-.004-1-.002" style="display:inline;fill:none;stroke:#1a1a1a;stroke-width:.291042;stroke-miterlimit:2;stroke-dasharray:none"/><path d="M35.803 44.921c-.347.032-1.163.015-1.512.022-.722.015-1.087-.03-1.588-.027" style="display:inline;fill:none;stroke:#000;stroke-width:.291042;stroke-miterlimit:2;stroke-dasharray:none"/><path d="M51.269 105.74c.143-.032.32.03.508-.033M53.527 105.746c-.12.006-.296-.029-.448-.033M47.07 105.736c-.119.006-.295-.028-.447-.033M55.297 105.705c-.12.006-.257.03-.41.025M48.376 105.716c.143-.033.379-.035.508-.033M54.472 105.699a2.56 2.56 0 0 0-.508.033M57.969 105.684c-.12.006-.296.03-.448.025M45.661 105.735c.143-.032.32.03.508-.033M49.843 105.706c-.143.032-.32-.03-.508.033M50.31 105.72c.143-.032.379-.035.508-.033M56.242 105.69a2.56 2.56 0 0 0-.507.033M57.106 105.701c-.12.006-.296.03-.448.026M47.933 105.684c-.12.006-.295.03-.448.025M58.832 105.715c-.12.006-.296-.029-.448-.033M52.664 105.745c-.12.006-.296-.028-.448-.033" style="display:inline;fill:none;stroke:#000;stroke-width:.291042;stroke-miterlimit:2;stroke-dasharray:none" transform="translate(0 30.51)"/><path d="M56.068 68.592c.007.119-.028.295-.033.447M56.034 66.184c.006.12.03.257.025.41M56.025 71.227c.033.143-.03.32.033.508M56.078 66.961c.006.12-.028.296-.033.448M56.043 73.086c.006.12.03.257.025.41M56.053 70.808a2.612 2.612 0 0 1-.033-.508M56.035 69.408c-.007.11.002.346.033.507M56.054 72.69c-.033-.142.03-.32-.033-.507M56.073 74.365a2.612 2.612 0 0 1-.033-.508M56.045 65.286c-.007.11.002.347.033.508M56.025 67.776c.006.12.03.296.025.448" style="display:inline;fill:none;stroke:#000;stroke-width:.291042;stroke-miterlimit:2;stroke-dasharray:none" transform="translate(0 57.552)"/><path d="M71.3 52.955c.033-.322-.004-.814-.018-1.134.022-.67.029-1.166.013-1.741M99.261 53.058c.033-.299-.004-.755-.018-1.051.022-.62.029-1.081.013-1.614" style="display:inline;fill:none;stroke:#000;stroke-width:.291042;stroke-miterlimit:2;stroke-dasharray:none"/><path d="M51.922 126.898a7.271 7.271 0 0 1-.148.14c-.135.12-.306.228-.437.35-.16.137-.337.266-.493.403-.174.141-.341.286-.534.42a5.904 5.904 0 0 0-.575.453c-.197.163-.411.319-.614.48-.192.141-.37.29-.575.425-.259.185-.495.38-.73.575-.27.213-.547.422-.841.625-.259.187-.522.372-.761.567-.25.189-.497.38-.754.565-.237.168-.465.34-.689.513-.231.17-.459.342-.702.507-.276.19-.575.368-.839.563-.275.204-.548.408-.825.61-.25.184-.517.36-.764.544-.216.172-.424.346-.662.508-.222.155-.429.316-.654.47-.166.126-.33.254-.486.385" style="fill:none;stroke:red;stroke-width:.47625;stroke-linecap:square;stroke-dasharray:none"/><g style="display:inline;stroke-width:2.60042;stroke-dasharray:none"><path d="M-1077.1-3401.469c-.057.27-.095.105-.332.369-.565.46-1.134.916-1.675 1.403-.79.687-1.575 1.378-2.344 2.088-.45.425-.9.866-1.242 1.386" style="fill:none;stroke:#000;stroke-width:2.60042;stroke-dasharray:none" transform="matrix(.11017 0 0 .1137 162.164 440.402)"/><path d="M-1076.599-3383.055c-.094-.782-.135-1.582-.173-2.255-.058-1.35-.063-2.701-.069-4.052-.03-1.533-.045-3.066-.08-4.599a355.577 355.577 0 0 0-.148-4.117c-.045-.919-.059-1.84-.141-2.757-.02-.21-.048-.418-.078-.627" style="fill:none;stroke:#000;stroke-width:2.60042;stroke-dasharray:none" transform="matrix(.11017 0 0 .1137 162.164 440.402)"/><path d="M-1081.773-3383.306c1.623 0 3.246.03 4.87.045 1.373.012 2.747.02 4.12.024h.412" style="fill:none;stroke:#000;stroke-width:2.60042;stroke-dasharray:none" transform="matrix(.11017 0 0 .1137 162.164 440.402)"/></g><path d="M51.851 54.394c.243-.207.504-.386.783-.52.053-.024.108-.045.161-.068.053-.018.409-.156.415 0 0 .027-.01.052-.015.078-.017.038-.032.077-.051.114-.173.334-.42.635-.647.921-.22.275-.46.524-.714.756-.04.035-.078.072-.118.106-.006.005-.024.01-.018.016.006.004.013.004.019.007.255-.069.518-.081.778-.093a7.8 7.8 0 0 1 1.135.055l.095.014" style="display:inline;fill:none;stroke:#000;stroke-width:.291042;stroke-dasharray:none"/><path d="M68.06 38.32c-.142.032-.32-.03-.507.033M92.973-23.173c.006.12-.028.296-.033.448M63.528 38.321c-.12.007-.257.03-.409.025M92.953-24.478a2.612 2.612 0 0 1-.033-.508M62.703 38.3a2.56 2.56 0 0 0-.507.034M70.519 38.333c-.12.007-.296-.028-.448-.033M66.117 38.3c-.12.006-.296.03-.448.025M92.972-21.764c-.032-.142.03-.32-.033-.508M92.943-25.945c.032.142-.03.32.033.508M92.957-26.412a2.612 2.612 0 0 1-.033-.508M64.474 38.306a2.56 2.56 0 0 0-.508.033M69.656 38.351c-.12.007-.296-.028-.448-.033M65.337 38.317c-.12.007-.295.03-.448.026M92.963-27.357c-.032-.143.03-.32-.033-.508M61.758 38.347c-.12.007-.296-.028-.448-.033M92.921-24.036c.007.12.03.296.026.448M66.98 38.33c-.12.007-.296-.027-.448-.032M68.793 38.314c-.12.006-.257.03-.41.025M60.895 38.332c-.12.007-.296-.028-.448-.033" style="display:inline;fill:none;stroke:#000;stroke-width:.291042;stroke-miterlimit:2;stroke-dasharray:none"/><path d="M92.94 50.705c.033.143-.03.32.034.508M92.973 63.32c.006.12-.028.296-.033.448M92.942 55.094c.007.12.03.257.026.409M92.953 62.015a2.612 2.612 0 0 1-.033-.508M92.922 55.919c-.007.11.002.346.033.508M92.954 47.865c.007.12-.028.296-.033.448M92.92 52.422c.007.12.03.296.026.448M92.972 64.73c-.032-.143.03-.32-.033-.508M92.943 60.548c.032.143-.03.32.033.508M92.965 68.513c.007.12-.028.296-.033.448M92.93 65.964c.007.119.03.256.026.409M92.957 60.081a2.612 2.612 0 0 1-.033-.508M92.927 54.148c-.006.11.003.347.033.508M92.972 48.728c.007.12-.028.296-.033.448M92.939 53.285c.006.12.03.296.025.448M92.963 59.136c-.032-.142.03-.32-.033-.508M92.922 71.291c.033.143-.03.321.033.508M92.975 66.788c.006.119-.029.295-.033.447M92.94 73.245c.006.12.03.257.025.41M92.95 70.824a2.612 2.612 0 0 1-.033-.507M92.932 69.377c-.007.11.002.346.033.508M92.968 56.864c.007.12-.028.296-.032.448M92.921 62.458c.007.119.03.295.026.447M92.95 72.803c-.032-.143.03-.321-.032-.508M92.952 51.56c.006.119-.028.295-.033.447M92.935 49.812c.006.12.03.257.025.409M92.97 74.571a2.612 2.612 0 0 1-.033-.507M92.942 65.018c-.007.11.002.346.033.508M92.954 57.727c.006.12-.029.296-.033.448M92.922 67.65c.006.12.03.296.025.448M92.965 41.435c.007.12-.028.295-.033.448M92.93 38.885c.007.12.03.257.026.41M92.922 44.213c.033.143-.03.32.033.508M92.975 39.71c.006.119-.029.295-.033.447M92.94 46.167c.006.12.03.257.025.409M92.95 43.746a2.612 2.612 0 0 1-.033-.508M92.932 42.298c-.007.11.002.347.033.508M92.95 45.724c-.032-.143.03-.32-.032-.508M92.97 47.493a2.612 2.612 0 0 1-.033-.508M92.942 37.94c-.007.11.002.346.033.507M92.922 40.572c.006.12.03.296.025.448" style="display:inline;fill:none;stroke:#000;stroke-width:.291042;stroke-miterlimit:2;stroke-dasharray:none" transform="translate(45.673 -1.937)"/><path d="M139.683 19.2c-.12.006-.296-.029-.448-.034" style="display:inline;fill:none;stroke:#000;stroke-width:.291042;stroke-miterlimit:2;stroke-dasharray:none"/><path d="M-8.674 62.685c.04-.024.08-.05.124-.068a1.71 1.71 0 0 1 .466-.132.924.924 0 0 1 .161-.007c.15.008.337.033.43.172.048.073.035.103.036.189-.013.043-.021.087-.037.128-.039.1-.117.238-.17.327-.123.206-.261.4-.401.593-.12.161-.243.321-.367.48-.046.06-.096.116-.142.175.014.019.004.011.043-.003.08-.026.101-.037.167-.055.11-.029.174-.048.32-.07.297-.042.598-.043.897-.025.06.004.121.01.182.016" style="display:inline;fill:none;stroke:#000;stroke-width:.291042;stroke-linecap:square;stroke-linejoin:round;stroke-miterlimit:2;stroke-dasharray:none"/><path d="M-9.07 69.721c.148-.068.294-.141.44-.214.2-.098.398-.202.596-.304l.066-.032m-.006-.013-.066.032c-.198.103-.395.207-.596.305-.146.072-.291.146-.44.212" style="fill:none;stroke:#000;stroke-width:.291042;stroke-dasharray:none"/><path d="M-8.092 71.178c-.006-.075-.007-.151-.008-.227-.003-.15 0-.3.002-.45l.017-.548c.006-.19.005-.381.008-.572l.006-.268M-7.225 71.201h-.114c-.21 0-.419-.002-.628-.003-.215-.002-.43-.003-.645.005l-.35.008" style="fill:none;stroke:#000;stroke-width:.291042;stroke-dasharray:none"/><g style="display:inline;stroke-width:1.30312;stroke-dasharray:none"><path d="M-1205.674-3754.945c-.32.01-.49.025-.74.017-1.665.024-3.338.058-5.002.15-.937.05-1.882.225-2.819.183-.451-.359.144-1.694.251-2.103.446-1.698.97-3.398 1.054-5.16" style="fill:none;stroke:#000;stroke-width:1.30312;stroke-dasharray:none" transform="matrix(.22288 .01057 -.0106 .2233 201.94 901.582)"/><path d="M-1208.447-3751.472a21.558 21.558 0 0 1-.525-1.937c-.375-1.745-.462-3.607-.612-5.377" style="fill:none;stroke:#000;stroke-width:1.30312;stroke-dasharray:none" transform="matrix(.22288 .01057 -.0106 .2233 201.94 901.582)"/></g><g style="display:inline;stroke-width:4.44466;stroke-dasharray:none"><path d="M-1004.27-3300.887a2.746 2.746 0 0 0-1.315-.266c-5.531.163-11.148.691-16.506 1.987-1.468.346-2.851.692-4.234 1.47-.26.172-.518.518-.778.432-.085-.086 0-.173 0-.26.346-1.9.951-3.715 1.383-5.617.864-3.283 1.556-6.654 2.16-9.937" style="fill:none;stroke:#000;stroke-width:4.44466;stroke-dasharray:none;stroke-opacity:1" transform="matrix(.06487 0 0 .0661 58.05 268.529)"/><path d="M-1007.145-3280.544c-.323-.873-.58-1.945-.687-2.406-.715-3.106-1.004-6.31-1.21-9.42-.572-8.643-.345-17.196-.432-25.837" style="fill:none;stroke:#000;stroke-width:4.44466;stroke-dasharray:none;stroke-opacity:1" transform="matrix(.06487 0 0 .0661 58.05 268.529)"/></g><g style="display:inline;stroke-width:2.04265;stroke-dasharray:none"><path d="M-1212.717-3725.95c2.599-.19 4.584-.296 6.617-.351l.621.011c.29.011 1.057.024 1.389.051M-1214.792-3715.364c.045.254.094.358.17.478.116.186.31.395.524.522.712.422 1.55.554 2.363.595 1.687.085 3.374-.203 4.982-.67.452-.132.897-.294 1.326-.486.947-.425 2.137-1.236 2.057-2.418a1.738 1.738 0 0 0-.178-.645 2.276 2.276 0 0 0-.437-.592c-1.322-1.312-3.462-1.44-5.207-1.445-.88 0-1.238.028-2.074.192-.49.095-1.107.254-1.471.628-.065.066-.109.153-.15.235-.102.199-.102.15-.096.327v-.055c.017-.11.043-.218.061-.328a88.17 88.17 0 0 0 .227-1.545c.226-1.653.446-3.313.395-4.985" style="fill:none;stroke:#000;stroke-width:2.04265;stroke-linecap:butt;stroke-linejoin:round;stroke-miterlimit:2;stroke-dasharray:none" transform="matrix(.14195 0 0 .14301 204.754 650.022)"/></g><path d="m29.515 118.106-.12-.006c-.454-.001-.943.014-1.398.03" style="fill:#000;stroke:#000;stroke-width:.291042;stroke-dasharray:none;stroke-opacity:1"/><path d="M30.178 117.719c.181-.172.41-.306.651-.42.222-.104.469-.186.728-.21.037-.005.075-.007.113-.007.095.002.213.017.256.096.023.043.013.074.01.12-.085.252-.301.461-.506.66-.288.281-.632.522-.978.757-.061.041-.126.079-.184.123 0 0-.032.022-.018.03.009.007.022.006.033.008a8.92 8.92 0 0 1 1.054-.095c.235-.008.472-.002.707.011l.048.004" style="display:inline;fill:none;stroke:#000;stroke-width:.291043;stroke-dasharray:none"/><path d="M55.759 119.32c-.293.003-.585.005-.877.004-.131-.001-.294-.001-.426-.005l-.145-.008c-.045-.003-.085-.02-.057-.062.157-.232.334-.447.506-.665.062-.076.252-.308.314-.387a5.3 5.3 0 0 0 .128-.17c.069-.094.14-.185.16-.307-.003-.017-.003-.036-.012-.05-.022-.039-.067-.047-.102-.051-.117-.013-.232.02-.344.04a3 3 0 0 0-.728.267" style="display:inline;fill:none;stroke:#000;stroke-width:.291042;stroke-dasharray:none"/><g style="display:inline;stroke-width:2.60553;stroke-dasharray:none"><path d="M-1184.929-3730.187a4.68 4.68 0 0 1-.787.153c-1.081.11-2.46.098-3.463.093-2.477-.014-2.608 0-4.96 0" style="fill:none;stroke:#000;stroke-width:2.60553;stroke-linecap:butt;stroke-linejoin:round;stroke-miterlimit:2;stroke-dasharray:none;stroke-opacity:1" transform="matrix(.10985 0 0 .11359 187.563 541.24)"/><path d="M-1196.598-3716.436c.299 1.065 1.238 1.702 2.122 2.211 2.03.823 4.428.848 6.585.591 1.336-.195 2.822-.969 3.18-2.352.305-1.177-.01-2.463-.692-3.466-.956-1.615-2.454-2.897-4.26-3.365-1.469-.38-3.352-.262-4.996-.076.262-.239.357-.646.42-.886.41-1.55.507-4.103.35-6.225" style="fill:none;stroke:#000;stroke-width:2.60553;stroke-linecap:butt;stroke-linejoin:round;stroke-miterlimit:2;stroke-dasharray:none;stroke-opacity:1" transform="matrix(.10985 0 0 .11359 187.563 541.24)"/></g><g style="display:inline;stroke-width:1.38823;stroke-dasharray:none"><path d="M-835.63-2688.198c.237-.371.108-.167.382-.61.89-1.476 1.681-3.008 2.602-4.468.574-.896 1.184-1.777 1.774-2.667.119-.183.258-.356-.093-.316-.88.051-1.759.076-2.638.086-1.304 0-2.602-.076-3.9-.107" style="display:inline;fill:none;stroke:#000;stroke-width:1.38823;stroke-miterlimit:2;stroke-dasharray:none" transform="matrix(.20513 0 0 .21427 250.612 694.416)"/><path d="M-831.545-2692.203c-.522.112-1.055.148-1.587.194-1.004.04-2.007.112-3.016.102" style="display:inline;fill:none;stroke:#000;stroke-width:1.38823;stroke-miterlimit:2;stroke-dasharray:none" transform="matrix(.20513 0 0 .21427 250.612 694.416)"/></g><g style="display:inline;stroke:#000;stroke-width:2.33445;stroke-dasharray:none"><path d="M329.163 2.885c2.016-.094 4.064-.148 5.791-.181a30.04 30.04 0 0 0 3.16-.169" style="fill:none;fill-opacity:1;fill-rule:nonzero;stroke:#000;stroke-width:2.33445;stroke-dasharray:none;stroke-dashoffset:0;stroke-opacity:1" transform="matrix(.124 0 0 .12535 40.19 116.148)"/><path d="M329.252 15.79c-.288.86.402 1.71 1.12 2.082 1.498.777 3.31.872 4.932.466 2.157-.542 3.749-1.75 4.285-3.88.415-1.644.25-3.565-1.005-4.818-1.147-1.145-2.774-1.628-4.36-1.66-1.7-.033-3.379.394-4.938 1.043-.325-.24-.138-1.087-.05-1.758.162-1.235.304-3.192.415-4.432" style="fill:none;fill-opacity:1;fill-rule:nonzero;stroke:#000;stroke-width:2.33445;stroke-dasharray:none;stroke-dashoffset:0;stroke-opacity:1" transform="matrix(.124 0 0 .12535 40.19 116.148)"/></g><path d="M21.9-36.861c-.33-.163-.864-.14-1.218.031-.37.18-.712.487-.781.894a.845.845 0 0 0 .384.853c.239.148.526.187.802.156.384-.042.741-.268.947-.59.187-.292.326-.628.388-.971.007-.04.011-.11-.002-.109-.04.004-.075.025-.113.038-.139.563-.02 1.142.09 1.7.084.428.205.851.282 1.28.032.183.079.477.06.669a.679.679 0 0 1-.063.24.491.491 0 0 1-.15.175c-.167.12-.438.164-.638.185a5.081 5.081 0 0 1-1.47-.072c-.38-.086-.768-.228-.965-.551-.042-.068-.05-.148-.075-.222M26.893 3.407c-.247-.08-.53-.042-.773.034-.077.025-.15.058-.226.086-.313.148-.57.36-.712.648a.903.903 0 0 0-.082.215.674.674 0 0 0 .058.436c.098.2.293.36.53.432.21.065.32.055.545.035a.887.887 0 0 0 .235-.063c.425-.163.63-.51.787-.864.07-.158.127-.323.155-.492.007-.036.01-.1-.002-.099-.036.003-.069.023-.103.034-.127.513-.018 1.04.082 1.55.077.39.188.774.257 1.166.03.166.072.433.054.608a.619.619 0 0 1-.056.22.448.448 0 0 1-.137.159c-.152.11-.4.149-.582.168a4.642 4.642 0 0 1-1.34-.065c-.349-.079-.702-.208-.882-.503-.038-.062-.046-.134-.068-.202" style="display:inline;fill:none;stroke:#000;stroke-width:.291043;stroke-linejoin:round;stroke-miterlimit:2;stroke-dasharray:none;stroke-opacity:1"/><path d="M34.01 58.582c.031-.42.033-.84.026-1.26-.028-.68-.005-1.36.02-2.04.015-.77.068-1.538.103-2.307.026-.634-.044-1.266.016-1.898.072-.54.096-1.08.116-1.622.023-.661-.064-.41-.095-1.07-.023-.656.067-2.224.026-2.88-.037-.675.084-1.351.048-2.027-.066-.7-.116-1.4-.142-2.1a59.778 59.778 0 0 1-.024-1.805v-1.567l.001-1.235c.007-.506.046-1.012.08-1.518.026-.388-.076-.71-.02-1.052.047-.455.046-.875.052-1.295.028-.68.061-1.36.036-2.04-.015-.77-.012-1.538-.046-2.307-.027-.633-.115-1.265-.175-1.898-.072-.54.062-1.08.042-1.622-.022-.66.064-1.322.095-1.983.023-.655-.067-1.31-.025-1.966.037-.676-.084-1.352-.048-2.028.066-.7.115-1.4.142-2.1.019-.601.022-1.203.023-1.805v-2.801c-.008-.507-.047-1.013-.08-1.519-.027-.388.047-.632-.013-1.018" style="fill:none;stroke:#000;stroke-width:.291042;stroke-dasharray:none"/><path d="M123.168 52.49c.268.203.577.322.897.311.22-.007.64-.141.72-.406a.376.376 0 0 0-.063-.346c-.117-.166-.272-.274-.43-.376-.177-.116-.511-.272-.674-.47a.353.353 0 0 1-.074-.247c.01-.18.256-.34.427-.349a.738.738 0 0 1 .625.341" style="display:inline;fill:none;stroke:#000;stroke-width:.291041;stroke-linecap:butt;stroke-linejoin:round;stroke-miterlimit:2;stroke-dasharray:none;stroke-opacity:1"/><path d="M-6.24 69.52a.847.847 0 0 1 .364-.012c.046.01.095.02.139.036.23.082.412.27.53.508.018.055.04.108.055.163.058.24.03.495-.11.69-.038.054-.085.094-.128.14-.057.036-.11.08-.171.11a1.225 1.225 0 0 1-.992.012c-.078-.032-.146-.086-.217-.13-.125-.13-.182-.16-.252-.34a.808.808 0 0 1 .011-.599c.027-.058.071-.102.106-.152.048-.043.092-.093.141-.131.137-.106.426-.267.598-.225.017.004.03.022.046.033M-6.138 62.692c.328.031.684.056.952.267.194.154.265.415.273.654.008.218-.039.455-.185.623-.177.202-.459.267-.716.284-.31.02-.65-.063-.866-.296a.715.715 0 0 1-.178-.64c.068-.287.282-.504.5-.687.149-.124.317-.228.502-.29M163.392 17.532c.36-.026.974-.004 1.402-.003.377 0 1.008-.005 1.473-.002M163.392 24.122c.36-.026.974-.004 1.402-.004.377 0 1.008-.004 1.473-.001M163.397 30.674c.267-.016.72.022 1.037.034.279.01.745.023 1.09.038M163.392 37.302c.36-.026.974-.004 1.402-.004.377 0 1.008-.004 1.473-.001M32.67 18.538c.36-.025.974-.003 1.401-.003.377 0 1.008-.004 1.474-.002" style="display:inline;fill:none;stroke:#000;stroke-width:.291042;stroke-miterlimit:2;stroke-dasharray:none"/><path d="M-7.677 18.42c.004.015.01.075.005.069-.03-.04-.037-.257-.045-.296-.097-.471-.122-.954-.227-1.416-.011-.047-.071-.229-.071-.28 0-.026.005-.052.025-.063.15-.084.13.306.086.369-.037.052-.054.12-.09.176-.18.271-.48.495-.798.56a.585.585 0 0 1-.192.01c-.118-.017-.19-.031-.272-.129-.16-.193.034-.457.161-.591.05-.053.107-.104.162-.146.247-.186.56-.29.857-.207" style="display:inline;fill:none;stroke:#000;stroke-width:.291042;stroke-dasharray:none;stroke-opacity:1"/><g style="display:inline;stroke-width:2.58455;stroke-dasharray:none"><path d="M-453.073-3382.97c.446-.738.956-1.452 1.367-2.063 2.15-3.2 4.227-6.449 6.31-9.693 1.174-1.827 2.395-3.628 3.738-5.337a.354.354 0 0 0 .076-.205c.006-.297-1.358-.2-1.542-.208-2.79-.114-5.583-.194-8.376-.188-2.88.01-5.762.04-8.638.205" style="fill:none;stroke:#000;stroke-width:2.58455;stroke-dasharray:none" transform="matrix(.11288 0 0 .11233 42.853 411.743)"/><path d="M-455.388-3391.216c2.724-.03 5.444.11 8.167.082.995-.014 2.228.023 2.815 0 .106 0 .767-.053 1.015-.086" style="fill:#000;stroke:#000;stroke-width:2.58455;stroke-dasharray:none" transform="matrix(.11288 0 0 .11233 42.853 411.743)"/></g><path d="M-6.483 30.148c.133-.264.342-.378.583-.374.272.005.48.188.587.426a1.126 1.126 0 0 1-.323 1.342c-.288.228-.597.295-.882.22a.782.782 0 0 1-.602-.76 1.013 1.013 0 0 1 .11-.49c.139-.298.385-.552.692-.678a.9.9 0 0 1 .123-.04" style="display:inline;fill:none;fill-opacity:1;stroke:#000;stroke-width:.291042;stroke-linecap:butt;stroke-linejoin:miter;stroke-miterlimit:4;stroke-dasharray:none;stroke-opacity:1"/><path d="M35.057 25.12c-.251.024-.762-.027-1.095-.003-.521.038-.787-.003-1.15 0" style="display:inline;fill:none;stroke:#1a1a1a;stroke-width:.291042;stroke-miterlimit:2;stroke-dasharray:none"/><g style="display:inline;stroke-width:2.86655;stroke-dasharray:none"><path d="M-485.593-3351.482c-.693-.155-1.583-.12-2.427-.152-3.76-.14-6.124-.125-9.918-.357" style="fill:none;stroke:#000;stroke-width:2.86655;stroke-dasharray:none;stroke-opacity:1" transform="matrix(.10115 0 0 .10192 41.736 384.57)"/><path d="M-498.307-3336.184c.06.924 1.152 1.131 1.874 1.318 3.184.821 6.591.797 9.787.05 1.682-.392 3.559-1.302 4.17-3.053.595-1.706-.223-3.467-1.202-4.812-1.844-2.533-5.238-3.907-8.337-3.647-.98.082-1.954.217-2.875.623-.895.396-1.757.825-2.479 1.474-.16-.129-.071-.842-.067-1.263l.067-6.926" style="fill:none;stroke:#000;stroke-width:2.86655;stroke-dasharray:none;stroke-opacity:1" transform="matrix(.10115 0 0 .10192 41.736 384.57)"/></g><path d="M-8.282 57.898c.033.016.065.035.1.049.16.06.333.086.505.093.259-.016.518-.03.681-.269.02-.03.033-.062.05-.093.019-.086.037-.118.014-.207-.043-.163-.204-.297-.326-.393a1.192 1.192 0 0 0-.356-.169c-.018-.004-.09-.016-.12-.004-.005.003-.005.01-.01.015a.898.898 0 0 0 .361-.238c.024-.032.05-.062.072-.096.068-.113.12-.266.063-.395-.012-.026-.03-.048-.046-.07-.023-.02-.041-.04-.066-.057-.147-.093-.333-.069-.491-.03-.17.06-.317.14-.445.27" style="display:inline;fill:none;stroke:#000;stroke-width:.291043;stroke-dasharray:none"/><path d="M-5.932 49.503c.242.055.449.222.605.417.167.22.234.511.22.788-.02.282-.16.567-.41.697a.789.789 0 0 1-.526.075.683.683 0 0 1-.483-.433c-.099-.263-.055-.558.03-.819.088-.246.225-.475.418-.646.09-.08.184-.161.291-.217" style="display:inline;fill:none;fill-opacity:1;stroke:#000;stroke-width:.291042;stroke-linecap:square;stroke-linejoin:miter;stroke-miterlimit:4;stroke-dasharray:none;stroke-opacity:1"/><path d="M-6.275 43.237a.326.326 0 0 1 .122-.07.829.829 0 0 1 .688.056.657.657 0 0 1 .248.263c.125.24.093.55-.024.785a.787.787 0 0 1-.234.287c-.182.141-.435.22-.66.154a.621.621 0 0 1-.15-.06.584.584 0 0 1-.126-.104.74.74 0 0 1-.178-.648.698.698 0 0 1 .057-.155.833.833 0 0 1 .716-.47" style="display:inline;fill:none;stroke:#000;stroke-width:.291041;stroke-dasharray:none;stroke-opacity:1"/><path d="M-8.594 37.217c.118-.097.272-.13.418-.148a.934.934 0 0 1 .626.129c.147.098.28.256.261.448-.024.232-.191.422-.383.523a.763.763 0 0 1-.695-.016.578.578 0 0 1-.304-.383c-.051-.225-.009-.463.064-.677.1-.298.262-.573.451-.82.064-.083.138-.16.22-.224" style="display:inline;fill:none;fill-opacity:1;stroke:#000;stroke-width:.291041;stroke-linecap:square;stroke-linejoin:miter;stroke-miterlimit:4;stroke-dasharray:none;stroke-opacity:1"/><path d="M-6.314 36.311c.122.032.06.011.186.062.195.101.373.228.484.453.12.274.162.51.112.816-.012.046-.023.092-.04.136a.775.775 0 0 1-.37.435c-.22.1-.45.16-.685.109-.034-.01-.067-.017-.101-.03a.88.88 0 0 1-.426-.402c-.123-.265-.15-.444-.077-.74.097-.278.233-.534.443-.708.133-.09.276-.18.434-.14M-8.565 24.237c-.17.11-.582.335-.667.53-.013.028-.013.061-.019.09.01.027.012.059.027.083.115.184.507.236.689.246.284-.015.594-.044.831-.235.017-.025.042-.046.053-.073.072-.183-.267-.404-.358-.497-.327-.277-.687-.516-.982-.836-.021-.034-.05-.065-.067-.102-.085-.188.09-.319.226-.379.24-.075.416-.062.62.11.137.14.222.314.154.52-.098.181-.248.315-.403.435" style="display:inline;fill:none;stroke:#000;stroke-width:.291042;stroke-miterlimit:2;stroke-dasharray:none"/><path d="M-6.51 23.206c.258-.058.53-.032.777.057.297.124.514.388.636.677.079.243.1.533-.047.756a.995.995 0 0 1-.443.306 1.615 1.615 0 0 1-.964.057c-.285-.076-.574-.235-.695-.514a.743.743 0 0 1-.032-.524c.095-.32.344-.588.646-.734a.752.752 0 0 1 .457-.064M-6.204 16.419c.17-.006.327.028.489.09.129.05.281.14.404.272.18.194.29.47.284.741-.001.085-.019.17-.035.253a.719.719 0 0 1-.079.211c-.158.29-.528.468-.843.518a1.14 1.14 0 0 1-.57-.048 1.117 1.117 0 0 1-.642-1.392c.126-.338.49-.551.824-.624" style="display:inline;fill:none;stroke:#000;stroke-width:.291042;stroke-dasharray:none;stroke-opacity:1"/><path d="M33.878 51.573a1.654 1.654 0 0 0-.332-.011 2.79 2.79 0 0 0-.323.034c-.166.021-.333.015-.5.014a13.493 13.493 0 0 1-.643-.014c-.18-.012-.361-.037-.543-.035a7.35 7.35 0 0 0-.535.025 2.264 2.264 0 0 1-.499.004c-.211-.017-.423-.04-.635-.031-.225 0-.45-.001-.674-.01-.233-.01-.466-.002-.698-.03-.168-.01-.335.043-.503.036-.205-.006-.41.009-.614-.017-.221-.028-.443.007-.665 0-.202.008-.404-.028-.606-.002-.205.023-.411.033-.617.047a9.564 9.564 0 0 1-.676-.027c-.251-.02-.503-.012-.754-.024-.263-.022-.525.046-.788.018-.19-.024-.38.005-.57-.012-.202-.018-.404-.041-.607-.028a9.028 9.028 0 0 0-.693.037c-.245.023-.491-.044-.737-.015-.28.031-.563.029-.846.028-.323.003-.544-.044-.866-.025-.314.017-.628-.047-.942-.053-.292.002-.585.056-.877.071-.277.017-.554-.01-.832-.011-.283.007-.566.023-.85.019-.274-.02-.548.024-.824.012a11.428 11.428 0 0 0-.814-.014l-.787.001-.813.009c-.214 0-.427-.017-.64-.046a3.517 3.517 0 0 0-.583.012 6.155 6.155 0 0 1-.703.023c-.205-.002-.41-.004-.614-.02-.135-.012-.574.068-.71.072" style="fill:none;stroke:red;stroke-width:.47625;stroke-linecap:square;stroke-dasharray:none"/><path d="M43.436 50.232c-.03.384-.004.774-.019 1.078.022.636.03 1.108.014 1.654M52.728 50.232c-.03.384-.004.774-.02 1.078.023.636.03 1.108.015 1.654M62.02 50.232c-.03.384-.005.774-.02 1.078.023.636.03 1.108.014 1.654M89.895 50.232c-.03.384-.004.774-.019 1.078.022.636.03 1.108.014 1.654" style="display:inline;fill:none;stroke:#000;stroke-width:.291042;stroke-miterlimit:2;stroke-dasharray:none"/><path d="M61.015 55.671c.308.1.634.146.961.109.245-.028.442-.084.639-.205.121-.074.173-.209.13-.325-.093-.243-.311-.41-.535-.52-.08-.039-.117-.05-.199-.08-.011.002-.018-.027 0-.029.091-.036.142-.06.235-.117.18-.112.374-.234.476-.425.048-.091.047-.231-.058-.29-.16-.092-.352-.098-.53-.083-.34.028-.68.101-.994.243-.08.037-.161.074-.24.113" style="display:inline;fill:none;stroke:#000;stroke-width:.291042;stroke-dasharray:none"/><g style="display:inline;stroke-width:2.52429;stroke-dasharray:none"><path d="M98.275 188.908a210.434 210.434 0 0 0-3.986 4.955c-1.582 2.01-3.178 4.01-4.77 6.014-.532.675-1.04 1.374-1.612 2.016" style="fill:#000;fill-opacity:1;stroke:#000;stroke-width:2.52429;stroke-miterlimit:4;stroke-dasharray:none;stroke-opacity:1" transform="matrix(.1151 0 0 .1155 60.345 31.84)"/><path d="M103.503 201.387c-1.39.034-2.8.072-3.988.11-2.727.085-5.454.16-8.18.26-1.232.052-2.464.09-3.694.182" style="fill:none;fill-opacity:1;stroke:#000;stroke-width:2.52429;stroke-miterlimit:4;stroke-dasharray:none;stroke-opacity:1" transform="matrix(.1151 0 0 .1155 60.345 31.84)"/><path d="M98.062 207.883c-.09-.918-.105-1.839-.112-2.76.032-2.266.07-4.53.117-6.795.063-2.555.075-5.111.054-7.667 0-.96-.001-.515.006-1.334" style="fill:none;fill-opacity:1;stroke:#000;stroke-width:2.52429;stroke-miterlimit:4;stroke-dasharray:none;stroke-opacity:1" transform="matrix(.1151 0 0 .1155 60.345 31.84)"/></g><g style="display:inline;stroke-width:1.57698;stroke-dasharray:none"><path d="M445.009 5.875c-1.168.087-2.35.025-3.525.056-1.319.012-2.638.012-3.95.105" style="fill:none;stroke:#000;stroke-width:1.57698;stroke-dasharray:none" transform="matrix(.1837 .00589 -.00584 .18524 -.565 50.14)"/><path d="M438.732 15.437c.83.697 2.09.9 3.018.861a6.239 6.239 0 0 0 2.54-.68c1.5-.76 2.348-2.619 1.914-4.257-.247-.934-1.034-1.59-1.917-1.926-.899-.343-2.181-.369-3.257-.276-1.083.093-2.153.307-3.14.787-.03.018-.646.34-.357.428.013.006.013-.019.019-.031.2-.559.213-1.173.358-1.738.15-.893.314-1.806.207-2.712" style="fill:none;stroke:#000;stroke-width:1.57698;stroke-dasharray:none" transform="matrix(.1837 .00589 -.00584 .18524 -.565 50.14)"/></g><path d="M89.341 54.9a.857.857 0 0 1 .565-.25c.04-.002.08-.007.123-.006.204.007.4.09.553.229.025.03.052.056.072.09a.429.429 0 0 1 .038.39c-.014.033-.037.061-.056.091-.03.03-.055.063-.088.09a.88.88 0 0 1-.665.217c-.047-.01-.092-.019-.137-.034-.162-.053-.374-.159-.44-.332-.017-.043-.017-.09-.025-.135 0-.056-.006-.112-.001-.167.024-.273.132-.576.267-.813.035-.063.079-.122.12-.182.045-.053.087-.106.135-.156a1.35 1.35 0 0 1 .598-.354" style="display:inline;fill:none;stroke:#000;stroke-width:.291042;stroke-dasharray:none"/><path d="M25.848 53.41c-.038.03-.075.063-.107.09-.144.125-.285.253-.428.38-.086.078-.171.158-.266.225" style="fill:none;stroke:#000;stroke-width:.291041;stroke-dasharray:none"/><path d="M25.83 55.787c-.015-.04-.015-.084-.016-.127-.002-.052-.002-.11-.002-.162.002-.237.013-.473.02-.71.01-.274.009-.548.003-.823-.004-.184-.014-.368-.022-.553" style="fill:none;stroke:#000;stroke-width:.291041;stroke-dasharray:none"/><path d="M26.425 55.81a7.706 7.706 0 0 0-.322-.016c-.195-.005-.39-.012-.585.001l-.283.023M24.957 54.875c-.049-.003-.098-.004-.14-.005-.19-.003-.381-.002-.572-.003-.116 0-.233.003-.348-.01" style="fill:none;stroke:#000;stroke-width:.291041;stroke-dasharray:none"/><g style="display:inline;stroke-width:1.1462;stroke-dasharray:none"><path d="M-857.525-2687.66c.318-.61.566-1.25.814-1.892.743-1.784 1.602-3.53 2.23-5.358.045-.239.179-.615.02-.867-.216-.345-1.503-.304-1.83-.303-1.47.01-2.944.21-4.393.449" style="display:inline;fill:none;stroke:#000;stroke-width:1.1462;stroke-miterlimit:2;stroke-dasharray:none" transform="matrix(.24995 0 0 .25796 313.506 749.223)"/><path d="M-853.286-2691.558c-.558.04-1.36.01-2.052.04h-3.21" style="display:inline;fill:none;stroke:#000;stroke-width:1.1462;stroke-miterlimit:2;stroke-dasharray:none" transform="matrix(.24995 0 0 .25796 313.506 749.223)"/></g><path d="M15.63 54.451c.275-.2.57-.373.884-.502.06-.024.121-.044.181-.066.06-.018.462-.152.468 0 .001.025-.01.05-.016.075-.02.037-.037.075-.058.11-.195.323-.475.615-.73.891-.247.266-.52.507-.806.731-.044.034-.088.07-.133.103-.007.005-.026.01-.02.015.006.004.014.004.021.007.288-.067.585-.079.878-.09.428-.008.855.008 1.28.054l.108.013" style="display:inline;fill:none;stroke:#000;stroke-width:.291042;stroke-dasharray:none"/><path d="M15.169 54.857c-.058.004-.116.004-.166.005-.227.003-.454.002-.682.003-.138 0-.277-.003-.415.01" style="fill:none;stroke:#000;stroke-width:.291041;stroke-dasharray:none"/><path d="M61.754 44.978c-.11.034-.222.068-.337.101-.306.088-.697.165-.994.254-.363.099-.767.167-1.121.266-.398.103-.777.232-1.216.328-.465.106-.917.238-1.308.353-.45.118-.937.206-1.398.323-.437.102-.842.184-1.308.283-.589.134-1.126.3-1.66.44-.615.154-1.247.306-1.915.453-.59.135-1.188.244-1.733.385-.567.137-1.129.324-1.715.458-.539.122-1.057.221-1.567.347-.526.123-1.045.272-1.598.391-.627.138-1.308.242-1.91.383-.624.147-1.245.295-1.877.441-.567.133-1.175.235-1.737.37-.492.123-.966.274-1.508.391-.504.112-.976.229-1.487.34-.379.092-.751.184-1.107.279" style="fill:none;stroke:red;stroke-width:.47625;stroke-linecap:square;stroke-dasharray:none"/><path d="M28.066 37.505c.149-.068.295-.142.441-.215.2-.098.398-.202.596-.304l.066-.032m-.006-.013-.066.033c-.198.102-.395.207-.596.304-.146.073-.291.146-.44.212" style="fill:none;stroke:#000;stroke-width:.291042;stroke-dasharray:none"/><path d="M29.045 38.961c-.006-.075-.007-.15-.008-.226-.003-.15 0-.3.002-.45l.017-.549c.006-.19.005-.38.008-.571l.006-.268M29.912 38.985h-.114c-.21 0-.419-.002-.628-.004-.215-.002-.43-.002-.645.006l-.35.007" style="fill:none;stroke:#000;stroke-width:.291042;stroke-dasharray:none"/><path d="M30.896 37.304a.847.847 0 0 1 .365-.013c.046.011.095.02.139.037.23.082.412.27.53.508.018.055.04.108.055.162.058.24.03.496-.11.691-.038.053-.085.094-.128.14-.057.036-.11.08-.171.109a1.225 1.225 0 0 1-.992.013c-.078-.033-.146-.086-.217-.13-.125-.13-.182-.16-.252-.34a.808.808 0 0 1 .011-.6c.027-.058.071-.102.106-.151.048-.044.092-.093.141-.132.137-.106.427-.267.598-.225.017.004.03.022.046.033" style="display:inline;fill:none;stroke:#000;stroke-width:.291042;stroke-miterlimit:2;stroke-dasharray:none"/><path d="M27.969 24.045c.04-.025.08-.05.124-.069a1.71 1.71 0 0 1 .466-.131.924.924 0 0 1 .161-.008c.15.009.337.034.43.173.048.073.035.103.036.188-.013.043-.021.087-.037.13-.039.099-.117.237-.17.326-.123.205-.261.4-.401.593-.121.16-.243.32-.367.48-.046.059-.096.116-.143.175.014.018.005.01.044-.003.08-.027.101-.038.167-.055.11-.03.174-.048.32-.07.297-.043.598-.043.897-.025l.182.015" style="display:inline;fill:none;stroke:#000;stroke-width:.291042;stroke-linecap:square;stroke-linejoin:round;stroke-miterlimit:2;stroke-dasharray:none"/><path d="M30.505 24.051c.328.032.684.057.952.268.194.153.265.415.273.654.008.218-.039.455-.185.623-.177.202-.459.267-.716.283-.31.02-.65-.062-.866-.295a.715.715 0 0 1-.178-.64c.068-.287.282-.504.5-.687.149-.124.317-.228.502-.29" style="display:inline;fill:none;stroke:#000;stroke-width:.291042;stroke-miterlimit:2;stroke-dasharray:none"/><path d="M161.537 36.433c.258.167.506.372.608.676.086.259.034.59-.153.761-.162.148-.324.234-.534.244-.28.014-.567-.101-.69-.349-.147-.293-.11-.545.003-.817.122-.29.386-.603.75-.668" style="display:inline;fill:none;fill-opacity:1;stroke:#000;stroke-width:.291042;stroke-linecap:butt;stroke-linejoin:miter;stroke-miterlimit:4;stroke-dasharray:none;stroke-opacity:1"/><path d="M158.919 38.132c.033.017.064.036.099.05.16.06.334.086.505.093.26-.016.518-.03.682-.269.02-.03.033-.063.049-.094.02-.085.038-.118.014-.206-.042-.163-.203-.298-.326-.394a1.192 1.192 0 0 0-.355-.168c-.019-.004-.091-.017-.12-.004-.005.002-.005.01-.01.015a.898.898 0 0 0 .361-.238c.024-.033.05-.063.071-.097.07-.112.12-.266.064-.395-.012-.025-.03-.047-.046-.07-.023-.02-.041-.04-.066-.056-.147-.094-.333-.07-.492-.031-.169.06-.317.14-.445.271" style="display:inline;fill:none;stroke:#000;stroke-width:.291043;stroke-dasharray:none"/><g style="display:inline;stroke-width:4.44466;stroke-dasharray:none"><path d="M-1004.27-3300.887a2.746 2.746 0 0 0-1.315-.266c-5.531.163-11.148.691-16.506 1.987-1.468.346-2.851.692-4.234 1.47-.26.172-.518.518-.778.432-.085-.086 0-.173 0-.26.346-1.9.951-3.715 1.383-5.617.864-3.283 1.556-6.654 2.16-9.937" style="fill:none;stroke:#000;stroke-width:4.44466;stroke-dasharray:none;stroke-opacity:1" transform="matrix(.06487 0 0 .0661 58.05 268.529)"/><path d="M-1007.145-3280.544c-.323-.873-.58-1.945-.687-2.406-.715-3.106-1.004-6.31-1.21-9.42-.572-8.643-.345-17.196-.432-25.837" style="fill:none;stroke:#000;stroke-width:4.44466;stroke-dasharray:none;stroke-opacity:1" transform="matrix(.06487 0 0 .0661 58.05 268.529)"/></g><path d="M-5.932 49.503c.242.055.449.222.605.417.167.22.234.511.22.788-.02.282-.16.567-.41.697a.789.789 0 0 1-.526.075.683.683 0 0 1-.483-.433c-.099-.263-.055-.558.03-.819.088-.246.225-.475.418-.646.09-.08.184-.161.291-.217" style="display:inline;fill:none;fill-opacity:1;stroke:#000;stroke-width:.291042;stroke-linecap:square;stroke-linejoin:miter;stroke-miterlimit:4;stroke-dasharray:none;stroke-opacity:1"/><g style="display:inline;stroke-width:4.44466;stroke-dasharray:none"><path d="M-1004.27-3300.887a2.746 2.746 0 0 0-1.315-.266c-5.531.163-11.148.691-16.506 1.987-1.468.346-2.851.692-4.234 1.47-.26.172-.518.518-.778.432-.085-.086 0-.173 0-.26.346-1.9.951-3.715 1.383-5.617.864-3.283 1.556-6.654 2.16-9.937" style="fill:none;stroke:#000;stroke-width:4.44466;stroke-dasharray:none;stroke-opacity:1" transform="matrix(.06487 0 0 .0661 225.25 242.065)"/><path d="M-1007.145-3280.544c-.323-.873-.58-1.945-.687-2.406-.715-3.106-1.004-6.31-1.21-9.42-.572-8.643-.345-17.196-.432-25.837" style="fill:none;stroke:#000;stroke-width:4.44466;stroke-dasharray:none;stroke-opacity:1" transform="matrix(.06487 0 0 .0661 225.25 242.065)"/></g><path d="M161.269 23.039c.241.056.448.222.605.417.167.22.233.511.22.788-.02.282-.161.568-.41.697a.789.789 0 0 1-.527.076.683.683 0 0 1-.483-.434c-.098-.263-.054-.558.03-.819.088-.245.225-.475.418-.645.091-.081.185-.162.292-.218" style="display:inline;fill:none;fill-opacity:1;stroke:#000;stroke-width:.291042;stroke-linecap:square;stroke-linejoin:miter;stroke-miterlimit:4;stroke-dasharray:none;stroke-opacity:1"/><g style="display:inline;stroke-width:4.44466;stroke-dasharray:none"><path d="M-1004.27-3300.887a2.746 2.746 0 0 0-1.315-.266c-5.531.163-11.148.691-16.506 1.987-1.468.346-2.851.692-4.234 1.47-.26.172-.518.518-.778.432-.085-.086 0-.173 0-.26.346-1.9.951-3.715 1.383-5.617.864-3.283 1.556-6.654 2.16-9.937" style="fill:none;stroke:#000;stroke-width:4.44466;stroke-dasharray:none;stroke-opacity:1" transform="matrix(.06487 0 0 .0661 225.25 242.065)"/><path d="M-1007.145-3280.544c-.323-.873-.58-1.945-.687-2.406-.715-3.106-1.004-6.31-1.21-9.42-.572-8.643-.345-17.196-.432-25.837" style="fill:none;stroke:#000;stroke-width:4.44466;stroke-dasharray:none;stroke-opacity:1" transform="matrix(.06487 0 0 .0661 225.25 242.065)"/></g><path d="M161.269 23.039c.241.056.448.222.605.417.167.22.233.511.22.788-.02.282-.161.568-.41.697a.789.789 0 0 1-.527.076.683.683 0 0 1-.483-.434c-.098-.263-.054-.558.03-.819.088-.245.225-.475.418-.645.091-.081.185-.162.292-.218" style="display:inline;fill:none;fill-opacity:1;stroke:#000;stroke-width:.291042;stroke-linecap:square;stroke-linejoin:miter;stroke-miterlimit:4;stroke-dasharray:none;stroke-opacity:1"/><g style="display:inline;stroke-width:1.217;stroke-dasharray:none"><path d="M-1205.674-3754.945c-.32.01-.49.025-.74.017-1.665.024-3.338.058-5.002.15-.937.05-1.882.225-2.819.183-.451-.359.144-1.694.251-2.103.446-1.698.97-3.398 1.054-5.16" style="fill:none;stroke:#000;stroke-width:1.217;stroke-dasharray:none" transform="matrix(.239 0 0 .2393 448.656 916.379)"/><path d="M-1208.447-3751.472a21.558 21.558 0 0 1-.525-1.937c-.375-1.745-.462-3.607-.612-5.377" style="fill:none;stroke:#000;stroke-width:1.217;stroke-dasharray:none" transform="matrix(.239 0 0 .2393 448.656 916.379)"/></g><g style="display:inline;stroke-width:5.213;stroke-dasharray:none"><path d="M-698.623-3366.226c-1.298-.16-2.924.066-4.477.16-6.92.424-11.25.877-18.25 1.137" style="fill:none;stroke:#000;stroke-width:5.213;stroke-dasharray:none;stroke-opacity:1" transform="matrix(.05534 0 0 .05633 200.68 206.247)"/><path d="M-722.041-3335.807c.11 1.695 2.122 2.077 3.452 2.418 5.868 1.509 12.145 1.464 18.033.094 3.1-.722 6.557-2.392 7.683-5.607 1.097-3.133-.41-6.367-2.215-8.837-3.398-4.65-9.65-7.173-15.36-6.694-1.805.15-3.6.397-5.298 1.144-1.65.725-3.238 1.513-4.567 2.705-.295-.236-.132-1.545-.124-2.32l.124-12.716" style="fill:none;stroke:#000;stroke-width:5.213;stroke-dasharray:none;stroke-opacity:1" transform="matrix(.05534 0 0 .05633 200.68 206.247)"/></g><g style="display:inline;stroke-width:12.4797;stroke-dasharray:none"><path d="M2375.058-797.866h-5.424c-20.407 1.034-42.333 2.837-62.74 4.646" style="fill:#000;stroke:#000;stroke-width:12.4797;stroke-dasharray:none;stroke-opacity:1" transform="matrix(.02313 0 0 .02351 107.408 48.365)"/><path d="M2308.156-721.923c3.357 2.583 1.291 1.292 5.941 3.875 16.79 6.716 31.514 6.716 48.304.258 4.649-2.583 8.266-4.133 11.623-8.524 5.684-8.008 2.911-18.618-3.112-25.03-2.017-2.147-4.224-4.36-6.712-5.937-12.064-7.643-27.248-8.135-41.32-2.613-6.349 2.49-8.07 3.143-13.494 7.276-1.808 1.291-3.874 3.358-4.65 2.325-.517-.775-.254-1.55-.254-2.325 3.1-14.982 4.968-26.908 8.584-41.89" style="fill:none;stroke:#000;stroke-width:12.4797;stroke-dasharray:none;stroke-opacity:1" transform="matrix(.02313 0 0 .02351 107.408 48.365)"/></g><path d="M158.801 29.935c.15-.068.306-.12.466-.153.047-.01.094-.015.14-.022.177-.013.41-.028.572.06.02.012.037.028.055.041.008.016.022.03.025.048.008.043-.016.091-.037.124a.97.97 0 0 1-.221.229 1.333 1.333 0 0 1-.414.207c-.004.001-.01-.002-.012.002-.008.015.012.005.029.004l.06.001c.087.005.098.01.19.024.183.04.33.12.449.27.02.026.036.055.055.082a.452.452 0 0 1 .05.349c-.025.077-.046.092-.093.156-.025.023-.048.047-.075.067a.927.927 0 0 1-.46.158c-.047.004-.093.004-.14.006a1.223 1.223 0 0 1-.592-.153.803.803 0 0 1-.068-.047.39.39 0 0 1-.082-.082" style="display:inline;fill:none;stroke:#000;stroke-width:.291042;stroke-dasharray:none"/><g style="display:inline;stroke-width:13.0118;stroke-dasharray:none"><path d="M2375.058-797.866h-5.424c-20.407 1.034-42.333 2.837-62.74 4.646" style="fill:#000;stroke:#000;stroke-width:13.0118;stroke-dasharray:none;stroke-opacity:1" transform="matrix(.02216 0 0 .02257 -21.234 35.501)"/><path d="M2308.156-721.923c3.357 2.583 1.291 1.292 5.941 3.875 16.79 6.716 31.514 6.716 48.304.258 4.649-2.583 8.266-4.133 11.623-8.524 5.684-8.008 2.911-18.618-3.112-25.03-2.017-2.147-4.224-4.36-6.712-5.937-12.064-7.643-27.248-8.135-41.32-2.613-6.349 2.49-8.07 3.143-13.494 7.276-1.808 1.291-3.874 3.358-4.65 2.325-.517-.775-.254-1.55-.254-2.325 3.1-14.982 4.968-26.908 8.584-41.89" style="fill:none;stroke:#000;stroke-width:13.0118;stroke-dasharray:none;stroke-opacity:1" transform="matrix(.02216 0 0 .02257 -21.234 35.501)"/></g><path d="M27.93 18.129c.152-.186.345-.33.548-.454.186-.113.394-.202.612-.228a.643.643 0 0 1 .095-.006c.08.001.18.017.216.104.019.046.01.08.008.128-.072.273-.253.5-.426.715-.242.304-.531.564-.823.818-.051.045-.106.086-.154.134 0 0-.027.023-.016.033.008.006.02.005.029.007.292-.057.589-.09.886-.102.198-.008.397-.002.595.012l.04.004" style="display:inline;fill:none;stroke:#000;stroke-width:.291042;stroke-dasharray:none"/><path d="m28.981 32.35.015-.538c.005-.186.013-.372.013-.559.001-.138.002-.363.005-.501.002-.075.003-.15-.012-.224-.004-.015-.008-.05-.027-.06h-.01c-.026.005-.047.02-.068.034-.05.031-.013.007-.067.043-.1.069-.192.11-.284.189-.06.05-.196.134-.255.185M29.616 32.352l-.105.002c-.274.006-.548.012-.822.01H28.2" style="fill:none;stroke:#000;stroke-width:.291042;stroke-dasharray:none"/><g style="display:inline;stroke-width:2.58422;stroke-dasharray:none"><path d="M-1184.929-3730.187a4.68 4.68 0 0 1-.787.153c-1.081.11-2.46.098-3.463.093-2.477-.014-2.608 0-4.96 0" style="fill:none;stroke:#000;stroke-width:2.58422;stroke-linecap:butt;stroke-linejoin:round;stroke-miterlimit:2;stroke-dasharray:none;stroke-opacity:1" transform="matrix(.11077 0 0 .1145 162.503 457.625)"/><path d="M-1196.598-3716.436c.299 1.065 1.238 1.702 2.122 2.211 2.03.823 4.428.848 6.585.591 1.336-.195 2.822-.969 3.18-2.352.305-1.177-.01-2.463-.692-3.466-.956-1.615-2.454-2.897-4.26-3.365-1.469-.38-3.352-.262-4.996-.076.262-.239.357-.646.42-.886.41-1.55.507-4.103.35-6.225" style="fill:none;stroke:#000;stroke-width:2.58422;stroke-linecap:butt;stroke-linejoin:round;stroke-miterlimit:2;stroke-dasharray:none;stroke-opacity:1" transform="matrix(.11077 0 0 .1145 162.503 457.625)"/></g><g style="display:inline;stroke-width:9.44712;stroke-miterlimit:4;stroke-dasharray:none"><path d="M5215.952 4392.586c-1.016-.06-3.679-.11-4.53-.1-10.06.131-23 .86-33.123 2.286" style="opacity:1;fill:none;fill-opacity:1;stroke:#000;stroke-width:9.44711;stroke-linecap:square;stroke-linejoin:miter;stroke-miterlimit:4;stroke-dasharray:none;stroke-opacity:1" transform="matrix(.03038 0 0 .03125 -126.893 -93.435)"/><path d="M5176.348 4449.704c.478 1.183 1.719 3.117 2.457 3.948 1.274 1.433 4.182 2.861 6.617 3.406 2.196.507 4.403.804 6.643.555 5.266-.586 10.397-2.537 14.815-5.197 3.593-2.163 7.706-5.422 10.154-8.957.881-1.273 1.565-3.201 1.8-4.557.171-.987.244-2.843-.11-4.169-.856-3.218-3.642-5.939-6.192-7.842-4.437-3.312-10.397-5.121-15.193-5.868-1.83-.286-4.736-.505-6.977-.487-5.898.046-11.937 1.095-17.296 4.122-.135.125-.864.112-.462.53.325.337.308.01.402-.588.902-5.684 1.985-11.238 3.253-17.583.511-2.46 1.348-6.095 1.803-8.723.155-.897.65-2.684.774-3.586" style="opacity:1;fill:none;fill-opacity:1;stroke:#000;stroke-width:9.44711;stroke-linecap:square;stroke-linejoin:round;stroke-miterlimit:4;stroke-dasharray:none;stroke-opacity:1" transform="matrix(.03038 0 0 .03125 -126.893 -93.435)"/></g><path d="M62.007 49.362c.006.12.03.257.025.409M62.018 48.92c-.032-.143.03-.321-.033-.509M99.31 45.264c-.032-.143.03-.321-.032-.508M81.184 38.353c-.12.006-.296-.029-.448-.033M99.306 43.319c-.006-.12-.03-.257-.025-.41M99.275 40.214c.032.143.035.379.033.508M99.273 47.01c-.007-.12-.03-.295-.026-.448M79.775 38.352c.142-.032.32.03.508-.033M99.308 49.837c-.032-.143.03-.32-.033-.508M75.713 38.345c-.12.006-.296-.028-.448-.033M78.386 38.31c-.12.007-.257.03-.41.025M99.242 43.78c.032.142.034.378.033.507M99.288 48.854a2.56 2.56 0 0 0-.033-.508M99.288 47.89c-.007-.119.028-.295.033-.447M99.277 41.596c-.006-.119-.03-.295-.025-.447M73.017 38.302c-.143.032-.32-.03-.508.033M77.562 38.354c-.12.007-.296-.028-.448-.033M71.104 38.32c-.12.006-.257.029-.409.024M73.402 38.33c.142-.032.378-.035.507-.033M74.85 38.311a2.56 2.56 0 0 0-.509.033M82.047 38.301c-.12.006-.296.03-.448.025M71.423 38.33c.143-.032.321.03.508-.033M99.259 42.477c-.007-.12.028-.296.033-.448M99.308 46.13c-.006-.12-.03-.257-.025-.41M79.331 38.321a2.56 2.56 0 0 0-.508.033M76.576 38.301c-.12.007-.296.03-.448.025M38.575 25.109c-.142.032-.32-.03-.507.033M99.352 32.32c.006.119-.028.295-.033.447M41.415 25.122c-.12.006-.296-.028-.448-.033M36.858 25.089c-.119.006-.295.03-.447.025M99.352 33.729c-.033-.143.03-.32-.033-.508M99.345 37.512c.006.12-.029.296-.033.448M99.31 34.963c.006.12.03.257.025.409M40.552 25.14c-.12.006-.295-.028-.448-.033M35.995 25.106c-.119.006-.295.03-.447.026M99.354 35.787c.006.12-.028.295-.033.448M99.33 39.824a2.617 2.617 0 0 1-.033-.508M99.311 38.376c-.006.11.002.346.033.508M37.721 25.12c-.12.006-.295-.028-.448-.033M39.468 25.103c-.119.006-.256.03-.409.025M99.321 34.017c-.006.11.002.347.033.508M99.3 36.65c.007.119.03.295.026.447M43.114 25.107c-.12.006-.257.03-.41.026M43.556 25.118c.143-.032.32.03.508-.033M41.787 25.138c.143-.032.38-.035.508-.033" style="display:inline;fill:none;stroke:#000;stroke-width:.291042;stroke-miterlimit:2;stroke-dasharray:none"/><path d="M99.312 25.08c-.12.096-.24.203-.36.3-.23.157-.46.312-.689.472-.243.17-.479.4-.723.555-.276.207-.556.363-.834.545-.256.181-.517.302-.775.471-.226.15-.448.346-.672.518-.273.204-.546.417-.823.587-.395.26-.795.483-1.191.737-.402.282-.803.564-1.207.824-.285.185-.573.336-.855.558-.283.2-.567.39-.85.597-.319.251-.643.456-.968.653-.359.22-.72.424-1.076.687-.378.258-.757.505-1.135.774-.342.25-.68.53-1.024.768-.365.284-.728.601-1.098.838-.383.252-.765.517-1.147.787-.337.22-.677.404-1.012.652-.278.2-.55.45-.828.646-.274.193-.547.4-.82.603-.212.155-.423.324-.635.477" style="fill:none;stroke:red;stroke-width:.476249;stroke-linecap:square;stroke-dasharray:none"/><path d="m103.449 21.219-.078.088-.147.138c-.052.05-.103.117-.155.163-.06.06-.12.107-.18.16-.054.053-.11.088-.165.138-.049.044-.096.101-.145.152-.058.06-.117.122-.176.172-.085.076-.17.141-.256.216-.086.082-.172.165-.259.241-.06.054-.122.099-.183.164-.06.059-.122.114-.182.175a2.11 2.11 0 0 1-.208.191c-.077.064-.154.125-.23.201-.082.076-.163.149-.244.227-.073.073-.146.156-.22.225-.078.084-.156.177-.235.246a8.958 8.958 0 0 0-.246.23c-.073.065-.146.12-.217.192-.06.058-.118.132-.178.19-.059.056-.117.116-.176.176-.045.045-.09.095-.136.14" style="fill:none;stroke:red;stroke-width:.476251;stroke-linecap:square;stroke-dasharray:none"/><path d="M69.146 24.911c.006.12.03.257.025.41M46.674 25.1c-.12.006-.295.03-.447.025M44.948 25.106a2.56 2.56 0 0 0-.508.033M45.811 25.117c-.119.007-.295.03-.447.025M54.738 25.12c-.142.033-.32-.03-.508.033M50.206 25.122c-.12.007-.257.03-.41.025M49.381 25.101a2.56 2.56 0 0 0-.508.033M57.073 25.134c-.12.007-.296-.028-.448-.033M52.794 25.1c-.119.007-.295.03-.447.026M51.151 25.107a2.56 2.56 0 0 0-.508.033M56.333 25.152c-.12.006-.295-.028-.447-.033M52.015 25.118c-.12.007-.296.03-.448.026M48.435 25.148c-.119.007-.295-.028-.447-.033M53.657 25.132c-.12.006-.295-.029-.447-.033M55.47 25.115c-.119.006-.256.03-.409.025M47.573 25.133c-.12.007-.296-.028-.448-.033M67.861 25.154c-.119.006-.295-.029-.447-.033M66.452 25.153c.143-.032.32.03.508-.033M62.39 25.146c-.12.006-.295-.028-.448-.033M65.063 25.111c-.119.007-.256.03-.409.025M59.694 25.103c-.142.032-.32-.03-.507.033M64.24 25.155c-.12.007-.296-.028-.448-.033M57.782 25.12c-.12.006-.257.03-.41.025M60.08 25.13c.142-.031.378-.034.507-.032M61.527 25.112a2.56 2.56 0 0 0-.508.033M68.724 25.102c-.119.006-.295.03-.447.025M58.101 25.131c.143-.032.32.03.508-.033M66.009 25.122a2.56 2.56 0 0 0-.508.033M63.253 25.102c-.12.006-.295.03-.448.025M81.048 25.1c-.12-.006-.296.028-.448.033M82.353 25.12c.143.032.379.035.508.033M88.45 25.151a2.56 2.56 0 0 1-.509-.033M79.638 25.1c.143.033.321-.03.508.034M83.82 25.13c-.143-.032-.32.03-.508-.033M75.855 25.108c-.12-.007-.296.028-.448.033M78.404 25.142c-.119-.006-.256-.03-.408-.025M84.287 25.116c.143.032.379.034.508.033M85.232 25.11c.142.033.32-.03.508.033M73.077 25.15c-.143-.031-.321.03-.508-.032M77.58 25.098c-.119-.006-.295.029-.447.033M71.123 25.134c-.12-.007-.257-.03-.41-.026M73.544 25.123c.142.032.378.034.508.033M74.991 25.141a2.56 2.56 0 0 1-.508-.033M87.504 25.105c-.12-.007-.296.028-.448.033M81.91 25.152c-.119-.007-.295-.03-.447-.026M71.565 25.122c.143.033.321-.03.508.033M69.797 25.103c.142.032.378.035.508.033M79.35 25.131a2.56 2.56 0 0 1-.508-.033M86.641 25.12c-.12-.007-.296.028-.448.032M76.718 25.152c-.12-.007-.296-.03-.448-.026" style="display:inline;fill:none;stroke:#000;stroke-width:.291042;stroke-miterlimit:2;stroke-dasharray:none"/><path d="M80.239 38.393c-.117.048-.232.1-.349.148l-.664.232c-.235.084-.463.197-.699.273-.266.102-.536.179-.805.268-.248.09-.5.149-.748.232-.22.074-.433.17-.65.255-.264.1-.527.206-.794.289-.383.128-.768.238-1.151.363-.388.138-.776.277-1.166.405-.275.09-.553.165-.825.275-.274.098-.548.19-.82.293a11.99 11.99 0 0 1-.936.321c-.347.108-.696.21-1.04.338-.365.127-.731.25-1.096.381-.33.123-.657.261-.989.378-.353.14-.703.296-1.06.412-.37.125-.74.255-1.108.388-.326.108-.654.199-.978.32-.268.098-.53.222-.8.318-.264.095-.527.197-.791.297-.205.076-.409.16-.614.235" style="fill:none;stroke:red;stroke-width:.47625;stroke-linecap:square;stroke-dasharray:none"/></svg>