<svg xmlns="http://www.w3.org/2000/svg" width="800" height="100"><path d="M-648.9 253.317q0 .457.875.534.343 0 .343.21 0 .018-.038.247-.058.266-.115.342-.057.076-.247.076h-.229q-.19 0-.647-.019t-1.219-.019q-1.351 0-1.732.038h-.153q-.133-.133-.133-.209.038-.514.248-.666h.266q1.333-.058 1.942-.952.115-.115 3.447-5.808t3.389-5.769q.133-.228.457-.228h.476q.114.171.114.19l.533 6.15q.533 6.15.571 6.207.095.21 1.238.21.476 0 .476.19 0 .038-.057.267-.057.285-.095.342-.039.057-.267.076h-.267q-.209 0-.742-.019t-1.39-.019q-1.79 0-2.342.038h-.228q-.115-.114-.115-.17 0-.058.038-.344.077-.247.115-.304l.076-.057h.38q1.029-.058 1.22-.324l-.23-2.856h-4.53l-.648 1.104q-.78 1.314-.78 1.542Zm5.863-3.54q0-.21-.228-2.971-.229-2.761-.267-2.78l-.514.819q-.304.514-1.2 2.037l-1.713 2.894 1.961.02q1.961 0 1.961-.02zM-635.712 249.813l-.175.067q-.188.068-.538.135-.35.067-.78.094h-.257v-.619h.256q.633-.027 1.171-.202.539-.175.754-.323.216-.148.377-.296.027-.04.162-.04.12 0 .229.08v4.025l.013 4.039q.094.094.162.12.067.028.323.055.255.026.834.026h.35v.62h-.148q-.283-.04-2.14-.04-1.831 0-2.114.04h-.161v-.62h.861q.216 0 .337-.013.121-.013.215-.04.094-.027.108-.027.013 0 .08-.068.068-.067.081-.053zM-628.147 249.966q0-1.313.19-2.494.19-1.18.438-2.037t.705-1.676q.456-.818.723-1.275.267-.457.8-.99.533-.533.628-.648.095-.114.476-.4h.324q.266 0 .266.172 0 .057-.323.4-.324.342-.781 1.009-.457.666-.933 1.637-.476.971-.8 2.628-.323 1.656-.323 3.674 0 2.019.323 3.656.324 1.638.781 2.647t.933 1.637q.476.628.8 1.01.323.38.323.4 0 .17-.285.17h-.305l-.533-.456q-1.79-1.619-2.609-4.037-.818-2.418-.818-5.027zM-622.035 247.396q-.134-.133-.134-.19 0-.076.057-.305.058-.228.096-.267.038-.095.171-.095t.971-.019h1.01l.36-1.523q.058-.21.134-.552.076-.343.133-.495.058-.152.115-.381.057-.228.152-.324.095-.095.19-.228.096-.133.267-.171.171-.039.343-.039.342.02.476.21.133.19.133.362 0 .133-.171.895-.172.761-.381 1.504l-.19.704q0 .038.951.038h.971q.134.134.134.21 0 .419-.248.666h-2.037l-.686 2.76q-.742 3.047-.742 3.276 0 .8.514.8.666 0 1.295-.648.628-.647 1.009-1.6.038-.114.095-.133.057-.019.286-.038h.076q.285 0 .285.153 0 .057-.057.228-.095.305-.342.724-.248.419-.648.895-.4.476-.97.8-.572.323-1.162.323-.571 0-1.086-.286-.514-.285-.742-.99-.038-.152-.038-.514v-.343l.666-2.665q.667-2.685.686-2.704 0-.038-.971-.038zM-614.36 249.719q.754-1.09 2.06-1.09.646 0 1.292.35.647.35 1.05 1.238.498 1.117.498 3.07 0 2.086-.578 3.19-.27.565-.74.901-.472.337-.822.418-.35.08-.686.094-.35 0-.7-.08-.35-.082-.822-.432-.47-.35-.74-.902-.579-1.103-.579-3.19 0-2.342.768-3.567zm3.03-.162q-.405-.43-.956-.43-.566 0-.97.43-.336.35-.444.97-.108.619-.108 2.584 0 2.127.108 2.8t.485 1.063q.377.404.929.404.538 0 .915-.404.39-.403.485-1.13.094-.727.107-2.733 0-1.952-.107-2.571-.108-.62-.445-.983zM-601.7 250.214v-.248q0-.247.266-.38h5.693v-2.856l.019-2.856q.19-.248.362-.248.247 0 .38.286v5.674h5.674q.286.152.286.38 0 .229-.286.381h-5.674v5.674q-.152.267-.342.267h-.076q-.229 0-.343-.267v-5.674h-5.693q-.267-.133-.267-.38zM-581.1 241.722q.02 0 1.371-.095 1.352-.095 1.39-.114.229 0 .229.171 0 .21-.686 2.875-.723 2.818-.723 2.875 0 .038.133-.095 1.162-1.028 2.475-1.028 1.029 0 1.657.514.628.514.647 1.504 0 .971-.723 3.008-.724 2.038-.724 2.437.02.267.095.362.077.095.286.095.533 0 .99-.57.457-.572.743-1.562.057-.21.114-.248.057-.038.304-.038.381 0 .381.153 0 .019-.076.285-.305 1.124-.97 1.847-.648.819-1.543.819h-.095q-.895 0-1.295-.514-.4-.514-.4-1.086 0-.304.686-2.246.685-1.942.704-2.913 0-1.124-.838-1.124h-.095q-1.58 0-2.742 1.866l-.133.248-.647 2.57q-.61 2.475-.705 2.704-.247.514-.838.514-.266 0-.457-.171-.19-.172-.209-.343 0-.267 1.39-5.788l1.409-5.636q0-.248-.133-.305-.134-.057-.743-.095h-.4q-.114-.114-.114-.152 0-.038.038-.362.095-.362.248-.362zM-571.598 240.465l.076-.019H-571.103l.533.457q1.79 1.619 2.608 4.037.819 2.418.819 5.026 0 1.295-.19 2.495-.19 1.2-.438 2.037-.248.838-.705 1.676-.457.837-.723 1.275-.267.438-.781.971-.514.533-.61.629-.095.095-.437.361l-.076.076h-.439q-.056 0-.095-.057-.038-.057-.057-.171.02-.02.21-.248 2.951-3.065 2.951-9.044 0-5.978-2.951-9.044-.19-.228-.21-.247 0-.152.096-.21zM-545.914 254.174q0 .381-.4.381-.095 0-.418-.305-.324-.304-1.79-1.77l-1.98-1.98-2 1.999q-2.018 1.98-2.075 2.018-.076.038-.133.038-.152 0-.267-.114-.114-.114-.133-.267 0-.133.267-.419.266-.285 1.79-1.808l1.98-1.98-1.98-1.98q-1.543-1.543-1.79-1.81-.248-.266-.267-.418 0-.172.114-.267.115-.095.286-.095.095 0 .133.019.057.038 2.076 2.018l1.999 2 1.98-1.98q1.466-1.467 1.79-1.772.323-.304.419-.304.4 0 .4.38 0 .134-.19.343-.191.21-1.867 1.866l-1.98 2 1.98 1.999q1.6 1.599 1.828 1.847.228.247.228.361zM-533.404 250.538h166.41v-1.143h-166.41zM-528.302 239.513q0 .457.876.534.343 0 .343.21 0 .018-.038.247-.057.266-.114.342-.057.076-.248.076h-.228q-.19 0-.648-.019-.457-.019-1.218-.019-1.352 0-1.733.038h-.152q-.133-.133-.133-.209.038-.514.247-.666h.267q1.332-.058 1.942-.952.114-.115 3.446-5.808 3.332-5.693 3.39-5.769.132-.228.456-.228h.476q.114.171.114.19l.533 6.15q.534 6.15.572 6.207.095.21 1.237.21.476 0 .476.19 0 .038-.057.267-.057.285-.095.342-.038.057-.267.076h-.266q-.21 0-.743-.019t-1.39-.019q-1.79 0-2.342.038h-.228q-.114-.114-.114-.17 0-.058.038-.344.076-.247.114-.304l.076-.057h.38q1.03-.058 1.22-.324l-.229-2.856h-4.532l-.647 1.104q-.78 1.314-.78 1.542Zm5.865-3.54q0-.21-.229-2.971-.228-2.761-.266-2.78l-.514.819q-.305.514-1.2 2.037l-1.713 2.894 1.96.02q1.962 0 1.962-.02zM-516.512 238.015q-.364 0-.579-.242-.215-.243-.215-.593 0-.956.713-1.656.714-.7 1.777-.7 1.225 0 2.046.754.821.754.835 1.952 0 .58-.27 1.104-.269.525-.646.915t-1.077.997q-.484.417-1.346 1.238l-.794.754 1.023.013q2.114 0 2.248-.067.094-.027.323-1.198v-.04h.539v.04q-.014.04-.175 1.225-.162 1.184-.202 1.238v.04h-4.994V243.373q0-.094.08-.202.081-.107.404-.47.39-.431.673-.754.121-.135.458-.499.337-.363.458-.498.12-.134.39-.444t.377-.458q.108-.148.31-.403.201-.256.282-.431.081-.175.202-.39.121-.216.175-.431.054-.216.094-.404.04-.189.04-.444 0-.848-.457-1.468-.458-.619-1.306-.619-.444 0-.78.229-.337.229-.472.444-.134.216-.134.256 0 .013.067.013.242 0 .498.189.256.188.256.62 0 .336-.215.565-.216.228-.606.242zM-507.548 236.162q0-1.313.19-2.494.19-1.18.438-2.037t.705-1.676q.457-.818.723-1.275.267-.457.8-.99.533-.533.628-.648.096-.114.476-.4h.324q.267 0 .267.172 0 .057-.324.4-.324.342-.78 1.009-.458.666-.934 1.637-.476.971-.8 2.628-.323 1.656-.323 3.674 0 2.019.324 3.656.323 1.638.78 2.647t.933 1.637q.476.628.8 1.01.324.38.324.4 0 .17-.286.17h-.305l-.533-.456q-1.79-1.619-2.608-4.037-.819-2.418-.819-5.027zM-501.436 233.592q-.133-.133-.133-.19 0-.076.057-.305.057-.228.095-.267.038-.095.171-.095.134 0 .971-.019h1.01l.361-1.523q.057-.21.134-.552.076-.343.133-.495.057-.152.114-.381.057-.228.152-.324.096-.095.19-.228.096-.133.267-.171.172-.039.343-.039.343.02.476.21.133.19.133.362 0 .133-.171.895-.171.761-.38 1.504l-.191.704q0 .038.952.038h.97q.134.134.134.21 0 .419-.247.666h-2.038l-.685 2.76q-.743 3.047-.743 3.276 0 .8.514.8.667 0 1.295-.648.628-.647 1.01-1.6.037-.114.094-.133.058-.019.286-.038h.076q.286 0 .286.153 0 .057-.057.228-.096.305-.343.724-.248.419-.647.895-.4.476-.971.8-.572.323-1.162.323-.571 0-1.085-.286-.514-.285-.743-.99-.038-.152-.038-.514V239l.667-2.665q.666-2.685.685-2.704 0-.038-.971-.038zM-493.76 235.915q.754-1.09 2.06-1.09.646 0 1.292.35t1.05 1.238q.498 1.117.498 3.07 0 2.086-.58 3.19-.268.565-.74.901-.47.337-.82.418-.35.08-.687.094-.35 0-.7-.08-.35-.082-.821-.432t-.74-.902q-.58-1.103-.58-3.19 0-2.342.768-3.567zm3.029-.162q-.404-.43-.956-.43-.565 0-.97.43-.336.35-.444.97-.107.619-.107 2.584 0 2.127.107 2.8.108.673.485 1.063.377.404.929.404.538 0 .915-.404.39-.403.485-1.13.094-.727.108-2.733 0-1.952-.108-2.571-.108-.62-.444-.983zM-481.101 236.41v-.248q0-.247.266-.38h5.693v-2.856l.02-2.856q.19-.248.36-.248.248 0 .382.286v5.674h5.674q.285.152.285.38 0 .229-.285.381h-5.674v5.674q-.153.267-.343.267h-.076q-.229 0-.343-.267v-5.674h-5.693q-.266-.133-.266-.38zM-460.5 227.918q.019 0 1.37-.095 1.353-.095 1.39-.114.23 0 .23.171 0 .21-.686 2.875-.724 2.818-.724 2.875 0 .038.134-.095 1.16-1.028 2.475-1.028 1.028 0 1.656.514.629.514.648 1.504 0 .971-.724 3.008-.723 2.038-.723 2.437.019.267.095.362.076.095.285.095.533 0 .99-.57.457-.572.743-1.562.057-.21.114-.248.057-.038.305-.038.38 0 .38.153 0 .019-.076.285-.304 1.124-.97 1.847-.648.819-1.543.819h-.095q-.895 0-1.295-.514-.4-.514-.4-1.086 0-.304.686-2.246.685-1.942.704-2.913 0-1.124-.837-1.124h-.096q-1.58 0-2.741 1.866l-.134.248-.647 2.57q-.61 2.475-.704 2.704-.248.514-.838.514-.267 0-.457-.171-.19-.172-.21-.343 0-.267 1.39-5.788l1.41-5.636q0-.248-.134-.305-.133-.057-.743-.095h-.4q-.114-.114-.114-.152 0-.038.038-.362.096-.362.248-.362zM-451 226.661l.077-.019H-450.504l.533.457q1.79 1.619 2.609 4.037.818 2.418.818 5.026 0 1.295-.19 2.495-.19 1.2-.438 2.037-.248.838-.705 1.676-.457.837-.723 1.275-.267.438-.78.971-.515.533-.61.629-.095.095-.438.361l-.076.076h-.438q-.057 0-.095-.057t-.057-.171q.019-.02.21-.248 2.95-3.065 2.95-9.044 0-5.978-2.95-9.044-.191-.228-.21-.247 0-.152.095-.21zM-438.89 236.41v-.248q0-.247.267-.38h11.062q.286.152.286.38 0 .229-.286.381h-11.062q-.267-.133-.267-.38zM-417.47 239.513q0 .457.876.534.343 0 .343.21 0 .018-.038.247-.057.266-.114.342-.058.076-.248.076h-.228q-.19 0-.648-.019-.457-.019-1.218-.019-1.352 0-1.733.038h-.152q-.134-.133-.134-.209.038-.514.248-.666h.266q1.333-.058 1.943-.952.114-.115 3.446-5.808 3.332-5.693 3.389-5.769.133-.228.457-.228h.476q.114.171.114.19l.533 6.15q.533 6.15.571 6.207.096.21 1.238.21.476 0 .476.19 0 .038-.057.267-.057.285-.095.342-.038.057-.267.076h-.266q-.21 0-.743-.019t-1.39-.019q-1.79 0-2.342.038h-.228q-.115-.114-.115-.17 0-.058.039-.344.076-.247.114-.304l.076-.057h.38q1.029-.058 1.22-.324l-.23-2.856h-4.53l-.648 1.104q-.78 1.314-.78 1.542Zm5.865-3.54q0-.21-.229-2.971-.228-2.761-.266-2.78l-.514.819q-.305.514-1.2 2.037l-1.714 2.894 1.962.02q1.96 0 1.96-.02zM-405.68 238.015q-.364 0-.58-.242-.215-.243-.215-.593 0-.956.714-1.656.713-.7 1.777-.7 1.225 0 2.046.754.821.754.835 1.952 0 .58-.27 1.104-.269.525-.646.915t-1.077.997q-.484.417-1.346 1.238l-.794.754 1.023.013q2.113 0 2.248-.067.094-.027.323-1.198v-.04h.539v.04q-.014.04-.175 1.225-.162 1.184-.202 1.238v.04h-4.995V243.373q0-.094.081-.202.081-.107.404-.47.39-.431.673-.754.121-.135.458-.499.336-.363.458-.498.12-.134.39-.444t.377-.458q.107-.148.31-.403.201-.256.282-.431.08-.175.202-.39.121-.216.175-.431.054-.216.094-.404.04-.189.04-.444 0-.848-.457-1.468-.458-.619-1.306-.619-.444 0-.78.229-.337.229-.472.444-.134.216-.134.256 0 .013.067.013.242 0 .498.189.256.188.256.62 0 .336-.216.565-.215.228-.605.242zM-396.716 236.162q0-1.313.19-2.494.19-1.18.438-2.037t.705-1.676q.457-.818.723-1.275.267-.457.8-.99.533-.533.628-.648.095-.114.476-.4h.324q.266 0 .266.172 0 .057-.323.4-.324.342-.78 1.009-.458.666-.934 1.637-.476.971-.8 2.628-.323 1.656-.323 3.674 0 2.019.324 3.656.323 1.638.78 2.647t.933 1.637q.476.628.8 1.01.323.38.323.4 0 .17-.285.17h-.305l-.533-.456q-1.79-1.619-2.608-4.037-.82-2.418-.82-5.027zM-390.585 233.592q-.133-.133-.133-.19 0-.076.057-.305.057-.228.095-.267.038-.095.171-.095t.971-.019h1.01l.361-1.523q.057-.21.133-.552.077-.343.134-.495.057-.152.114-.381.057-.228.152-.324.095-.095.19-.228.096-.133.267-.171.172-.039.343-.039.343.02.476.21.133.19.133.362 0 .133-.171.895-.172.761-.381 1.504l-.19.704q0 .038.952.038h.97q.134.134.134.21 0 .419-.248.666h-2.037l-.685 2.76q-.743 3.047-.743 3.276 0 .8.514.8.667 0 1.295-.648.628-.647 1.01-1.6.037-.114.094-.133.057-.019.286-.038h.076q.286 0 .286.153 0 .057-.057.228-.096.305-.343.724-.248.419-.648.895-.4.476-.97.8-.572.323-1.162.323-.571 0-1.085-.286-.514-.285-.743-.99-.038-.152-.038-.514V239l.666-2.665q.667-2.685.686-2.704 0-.038-.971-.038zM-382.91 235.915q.755-1.09 2.06-1.09.646 0 1.293.35.646.35 1.05 1.238.498 1.117.498 3.07 0 2.086-.58 3.19-.268.565-.74.901-.47.337-.82.418-.35.08-.687.094-.35 0-.7-.08-.35-.082-.821-.432t-.74-.902q-.58-1.103-.58-3.19 0-2.342.768-3.567zm3.03-.162q-.404-.43-.956-.43-.566 0-.97.43-.336.35-.444.97-.107.619-.107 2.584 0 2.127.107 2.8.108.673.485 1.063.377.404.929.404.538 0 .915-.404.39-.403.485-1.13.094-.727.107-2.733 0-1.952-.107-2.571-.108-.62-.444-.983zM-374.42 226.661l.076-.019H-373.925l.533.457q1.79 1.619 2.608 4.037.82 2.418.82 5.026 0 1.295-.191 2.495-.19 1.2-.438 2.037-.248.838-.705 1.676-.457.837-.723 1.275-.267.438-.78.971-.515.533-.61.629-.095.095-.438.361l-.076.076h-.439q-.056 0-.094-.057t-.057-.171q.019-.02.209-.248 2.951-3.065 2.951-9.044 0-5.978-2.951-9.044-.19-.228-.21-.247 0-.152.096-.21zM-453.094 254.784q.02 0 1.371-.096 1.352-.095 1.39-.114.229 0 .229.171 0 .21-.686 2.876-.723 2.817-.723 2.875 0 .038.133-.096 1.162-1.028 2.475-1.028 1.028 0 1.657.514.628.514.647 1.504 0 .972-.723 3.009-.724 2.037-.724 2.437.02.266.095.362.076.095.286.095.533 0 .99-.571.457-.572.743-1.562.057-.21.114-.247.057-.038.304-.038.381 0 .381.152 0 .02-.076.286-.305 1.123-.971 1.847-.647.818-1.542.818h-.095q-.895 0-1.295-.514-.4-.514-.4-1.085 0-.305.685-2.247.686-1.942.705-2.913 0-1.123-.838-1.123h-.095q-1.58 0-2.742 1.866l-.133.247-.647 2.57q-.61 2.476-.705 2.704-.247.514-.838.514-.266 0-.457-.171-.19-.171-.21-.343 0-.266 1.39-5.788l1.41-5.636q0-.247-.133-.304-.134-.057-.743-.096h-.4q-.114-.114-.114-.152 0-.038.038-.362.095-.361.247-.361zM-345.308 254.174q0 .381-.4.381-.095 0-.419-.305-.323-.304-1.79-1.77l-1.98-1.98-1.999 1.999q-2.018 1.98-2.075 2.018-.076.038-.134.038-.152 0-.266-.114-.114-.114-.133-.267 0-.133.266-.419.267-.285 1.79-1.808l1.98-1.98-1.98-1.98q-1.542-1.543-1.79-1.81-.247-.266-.266-.418 0-.172.114-.267.114-.095.285-.095.096 0 .134.019.057.038 2.075 2.018l2 2 1.98-1.98q1.466-1.467 1.79-1.772.323-.304.418-.304.4 0 .4.38 0 .134-.19.343-.19.21-1.866 1.866l-1.98 2 1.98 1.999q1.599 1.599 1.827 1.847.229.247.229.361zM-331.123 253.317q0 .457.876.534.342 0 .342.21 0 .018-.038.247-.057.266-.114.342-.057.076-.248.076h-.228q-.19 0-.647-.019t-1.219-.019q-1.352 0-1.733.038h-.152q-.133-.133-.133-.209.038-.514.247-.666h.267q1.333-.058 1.942-.952.114-.115 3.446-5.808 3.332-5.693 3.39-5.769.133-.228.456-.228h.476q.115.171.115.19l.533 6.15q.533 6.15.57 6.207.096.21 1.238.21.476 0 .476.19 0 .038-.057.267-.057.285-.095.342-.038.057-.266.076h-.267q-.21 0-.743-.019t-1.39-.019q-1.79 0-2.341.038h-.229q-.114-.114-.114-.17 0-.058.038-.344.076-.247.114-.304l.076-.057h.381q1.028-.058 1.219-.324l-.229-2.856h-4.531l-.648 1.104q-.78 1.314-.78 1.542Zm5.864-3.54q0-.21-.228-2.971-.229-2.761-.267-2.78l-.514.819q-.305.514-1.2 2.037l-1.713 2.894 1.96.02q1.962 0 1.962-.02zM-319.092 251.361q-.363 0-.565-.229-.202-.229-.215-.592 0-.74.646-1.32.646-.578 1.561-.578.471 0 .593.013.996.162 1.52.714.526.552.54 1.198 0 .7-.459 1.36-.457.66-1.265.955l-.04.027q0 .014.12.04.122.027.391.122.27.094.512.282 1.104.714 1.104 1.885 0 1.063-.835 1.858-.835.794-2.113.794-1.077 0-1.858-.579-.78-.579-.78-1.467 0-.377.241-.606.243-.229.606-.242.377 0 .62.242.242.242.242.606 0 .148-.04.269-.041.121-.095.215-.054.095-.148.162t-.161.108q-.068.04-.135.053-.067.014-.108.04l-.054.014q.687.606 1.67.606.74 0 1.117-.713.229-.445.229-1.36v-.27q0-1.278-.862-1.709-.202-.08-.82-.094l-.566-.014-.04-.026q-.028-.04-.028-.216 0-.242.108-.242.377 0 .78-.067.459-.068.835-.566.377-.498.377-1.507v-.108q0-.767-.47-1.064-.297-.188-.633-.188-.431 0-.795.148-.363.148-.511.31l-.148.161h.04q.04.014.108.027.067.014.134.067.068.054.162.095.094.04.135.148.04.107.107.202.068.094.04.269 0 .296-.188.525-.188.229-.606.242zM-310.35 249.966q0-1.313.19-2.494.19-1.18.438-2.037.247-.857.704-1.676.457-.818.724-1.275.266-.457.8-.99.532-.533.628-.648.095-.114.476-.4h.323q.267 0 .267.172 0 .057-.324.4-.323.342-.78 1.009-.457.666-.933 1.637-.476.971-.8 2.628-.324 1.656-.324 3.674 0 2.019.324 3.656.324 1.638.78 2.647.458 1.009.934 1.637.476.628.8 1.01.323.38.323.4 0 .17-.286.17h-.304l-.533-.456q-1.79-1.619-2.609-4.037t-.819-5.027zM-304.239 247.396q-.133-.133-.133-.19 0-.076.057-.305.057-.228.095-.267.038-.095.172-.095.133 0 .97-.019h1.01l.362-1.523q.057-.21.133-.552.076-.343.133-.495.057-.152.114-.381.057-.228.153-.324.095-.095.19-.228t.267-.171q.171-.039.342-.039.343.02.476.21.134.19.134.362 0 .133-.172.895-.171.761-.38 1.504l-.191.704q0 .038.952.038h.971q.133.134.133.21 0 .419-.247.666h-2.037l-.686 2.76q-.742 3.047-.742 3.276 0 .8.514.8.666 0 1.294-.648.629-.647 1.01-1.6.038-.114.095-.133.057-.019.285-.038h.076q.286 0 .286.153 0 .057-.057.228-.095.305-.343.724-.247.419-.647.895-.4.476-.971.8-.571.323-1.162.323-.57 0-1.085-.286-.514-.285-.742-.99-.039-.152-.039-.514v-.343l.667-2.665q.666-2.685.685-2.704 0-.038-.97-.038zM-296.563 249.719q.754-1.09 2.06-1.09.646 0 1.292.35t1.05 1.238q.498 1.117.498 3.07 0 2.086-.579 3.19-.269.565-.74.901-.471.337-.821.418-.35.08-.687.094-.35 0-.7-.08-.35-.082-.82-.432-.472-.35-.741-.902-.58-1.103-.58-3.19 0-2.342.768-3.567zm3.029-.162q-.404-.43-.956-.43-.565 0-.969.43-.337.35-.444.97-.108.619-.108 2.584 0 2.127.108 2.8.107.673.484 1.063.377.404.93.404.538 0 .915-.404.39-.403.484-1.13.094-.727.108-2.733 0-1.952-.108-2.571-.108-.62-.444-.983zM-288.055 240.465l.076-.019H-287.559l.532.457q1.79 1.619 2.609 4.037t.819 5.026q0 1.295-.19 2.495-.191 1.2-.439 2.037-.247.838-.704 1.676-.457.837-.724 1.275-.266.438-.78.971-.514.533-.61.629-.095.095-.438.361l-.076.076h-.438q-.057 0-.095-.057t-.057-.171q.019-.02.21-.248 2.95-3.065 2.95-9.044 0-5.978-2.95-9.044-.191-.228-.21-.247 0-.152.095-.21z"/><g style="stroke-width:1.02041"><path d="M48.769 66.744q0 .457.875.533.343 0 .343.21 0 .019-.038.247-.057.267-.114.343-.057.076-.248.076h-.228q-.19 0-.648-.02-.456-.018-1.218-.018-1.352 0-1.733.038h-.152q-.133-.133-.133-.21.038-.514.247-.666h.267q1.333-.057 1.942-.952.114-.114 3.446-5.807 3.332-5.693 3.39-5.77.132-.228.456-.228h.476q.114.172.114.19l.534 6.15q.533 6.15.57 6.208.096.21 1.238.21.476 0 .476.19 0 .038-.057.266-.057.286-.095.343-.038.057-.267.076h-.266q-.21 0-.743-.02-.533-.018-1.39-.018-1.79 0-2.342.038h-.228q-.114-.114-.114-.171 0-.058.038-.343.076-.248.114-.305l.076-.057h.381q1.028-.057 1.219-.324l-.229-2.856h-4.531l-.648 1.105q-.78 1.314-.78 1.542zm5.864-3.541q0-.21-.229-2.97-.228-2.761-.266-2.78l-.514.818q-.305.514-1.2 2.037l-1.713 2.895 1.96.019q1.962 0 1.962-.02zM61.958 63.24l-.175.067q-.188.067-.538.135-.35.067-.781.094h-.256v-.62h.256q.632-.026 1.17-.201.54-.175.755-.323.215-.149.377-.297.027-.04.161-.04.121 0 .229.08v4.026l.013 4.038q.095.094.162.121.067.027.323.054t.835.027h.35v.62h-.148q-.283-.041-2.14-.041-1.831 0-2.114.04h-.162v-.619h.862q.215 0 .336-.013.122-.014.216-.04.094-.028.107-.028.014 0 .081-.067.068-.067.081-.054zM69.522 63.393q0-1.314.19-2.494.191-1.18.439-2.038.247-.856.704-1.675.457-.819.724-1.276.266-.457.8-.99.532-.533.628-.647.095-.114.476-.4h.323q.267 0 .267.171 0 .057-.324.4t-.78 1.01q-.458.666-.934 1.637-.476.97-.8 2.627-.323 1.657-.323 3.675t.324 3.656q.323 1.637.78 2.646.457 1.01.933 1.638.476.628.8 1.009.324.38.324.4 0 .171-.286.171h-.304l-.534-.457q-1.79-1.618-2.608-4.036-.819-2.419-.819-5.027zM75.634 60.823q-.133-.134-.133-.19 0-.077.057-.305.057-.229.095-.267.038-.095.171-.095.134 0 .971-.02h1.01l.361-1.522q.057-.21.134-.553.076-.342.133-.495.057-.152.114-.38.057-.229.152-.324.096-.095.19-.229.096-.133.267-.171.172-.038.343-.038.343.019.476.21.133.19.133.361 0 .133-.17.895-.172.762-.382 1.504l-.19.705q0 .038.952.038h.97q.134.133.134.21 0 .418-.247.666h-2.038l-.685 2.76q-.743 3.047-.743 3.275 0 .8.514.8.667 0 1.295-.647.629-.648 1.01-1.6.037-.114.095-.133.057-.02.285-.038h.076q.286 0 .286.152 0 .057-.057.229-.095.304-.343.723-.247.419-.647.895-.4.476-.971.8-.572.323-1.162.323-.571 0-1.085-.285-.514-.286-.743-.99-.038-.153-.038-.514v-.343l.667-2.666q.666-2.684.685-2.703 0-.038-.97-.038zM83.31 63.145q.754-1.09 2.06-1.09.646 0 1.292.35t1.05 1.238q.498 1.118.498 3.07 0 2.086-.579 3.19-.27.565-.74.902-.471.336-.821.417-.35.08-.687.094-.35 0-.7-.08-.35-.081-.821-.431t-.74-.902q-.58-1.104-.58-3.19 0-2.343.768-3.568zm3.029-.161q-.404-.43-.956-.43-.565 0-.97.43-.336.35-.443.969-.108.62-.108 2.585 0 2.126.108 2.8.107.673.484 1.063.377.404.93.404.538 0 .914-.404.39-.404.485-1.13.094-.728.108-2.733 0-1.952-.108-2.571-.108-.62-.444-.983zM95.969 63.64v-.247q0-.248.266-.38h5.693v-2.857l.02-2.856q.19-.247.361-.247.248 0 .38.285v5.674h5.675q.285.152.285.381 0 .228-.285.38h-5.674v5.675q-.152.266-.343.266h-.076q-.229 0-.343-.266v-5.674h-5.693q-.266-.134-.266-.381zM116.57 55.149q.02 0 1.37-.096 1.353-.095 1.39-.114.23 0 .23.172 0 .209-.686 2.875-.724 2.818-.724 2.875 0 .038.134-.096 1.161-1.028 2.475-1.028 1.028 0 1.656.514.629.514.648 1.505 0 .97-.724 3.008-.723 2.037-.723 2.437.019.267.095.362.076.095.285.095.534 0 .99-.571.458-.571.743-1.562.057-.209.114-.247.057-.038.305-.038.38 0 .38.152 0 .02-.075.286-.305 1.123-.971 1.847-.648.818-1.543.818h-.095q-.895 0-1.295-.514-.4-.514-.4-1.085 0-.305.686-2.247.685-1.942.704-2.913 0-1.123-.837-1.123h-.095q-1.58 0-2.742 1.866l-.134.247-.647 2.57q-.61 2.476-.704 2.704-.248.514-.838.514-.267 0-.457-.171t-.21-.343q0-.266 1.39-5.788l1.41-5.636q0-.247-.134-.304-.133-.057-.742-.096h-.4q-.115-.114-.115-.152 0-.038.039-.362.095-.361.247-.361zM126.071 53.892l.076-.019H126.567l.532.457q1.79 1.618 2.609 4.036.818 2.418.818 5.027 0 1.295-.19 2.494-.19 1.2-.438 2.037-.247.838-.704 1.676-.457.838-.724 1.276-.266.438-.78.97-.515.534-.61.629-.095.095-.438.362l-.076.076h-.438q-.057 0-.095-.057t-.057-.172q.019-.019.21-.247 2.95-3.065 2.95-9.044 0-5.979-2.95-9.044-.191-.229-.21-.248 0-.152.095-.209zM151.756 67.6q0 .382-.4.382-.095 0-.419-.305-.323-.305-1.79-1.77l-1.98-1.98-1.999 1.998q-2.018 1.98-2.075 2.019-.076.038-.134.038-.152 0-.266-.115-.114-.114-.133-.266 0-.133.266-.42.267-.285 1.79-1.808l1.98-1.98-1.98-1.98q-1.542-1.542-1.79-1.809-.247-.267-.266-.419 0-.171.114-.266.114-.096.285-.096.096 0 .134.02.057.037 2.075 2.018l2 1.999 1.98-1.98q1.466-1.466 1.79-1.771.323-.305.418-.305.4 0 .4.381 0 .133-.19.343-.19.21-1.866 1.866l-1.98 1.999 1.98 2q1.599 1.599 1.827 1.846.229.248.229.362zM163.466 67.01q0-.456.323-.8.324-.342.819-.342.457 0 .8.305.342.304.361.819 0 .476-.323.818-.324.343-.819.343-.495 0-.819-.324-.323-.323-.342-.818zm8.51 0q0-.456.324-.8.324-.342.819-.342.457 0 .8.305.342.304.361.819 0 .476-.323.818-.324.343-.82.343-.494 0-.818-.324-.324-.323-.343-.818zm8.511 0q0-.456.324-.8.324-.342.819-.342.457 0 .8.305.342.304.361.819 0 .476-.324.818-.323.343-.818.343-.495 0-.819-.324-.324-.323-.343-.818zM203.697 67.6q0 .382-.4.382-.095 0-.419-.305-.323-.305-1.79-1.77l-1.98-1.98-1.999 1.998q-2.018 1.98-2.075 2.019-.076.038-.133.038-.153 0-.267-.115-.114-.114-.133-.266 0-.133.266-.42.267-.285 1.79-1.808l1.98-1.98-1.98-1.98q-1.542-1.542-1.79-1.809-.247-.267-.266-.419 0-.171.114-.266.114-.096.286-.096.095 0 .133.02.057.037 2.075 2.018l2 1.999 1.98-1.98q1.466-1.466 1.79-1.771.323-.305.418-.305.4 0 .4.381 0 .133-.19.343-.19.21-1.866 1.866l-1.98 1.999 1.98 2q1.6 1.599 1.828 1.846.228.248.228.362zM217.9 66.744q0 .457.877.533.343 0 .343.21 0 .019-.039.247-.057.267-.114.343-.057.076-.247.076h-.229q-.19 0-.647-.02-.457-.018-1.219-.018-1.352 0-1.732.038h-.153q-.133-.133-.133-.21.038-.514.248-.666h.266q1.333-.057 1.942-.952.114-.114 3.446-5.807 3.332-5.693 3.39-5.77.133-.228.456-.228h.476q.115.172.115.19l.533 6.15q.533 6.15.571 6.208.095.21 1.238.21.476 0 .476.19 0 .038-.057.266-.058.286-.096.343-.038.057-.266.076h-.267q-.21 0-.742-.02-.533-.018-1.39-.018-1.79 0-2.342.038h-.229q-.114-.114-.114-.171 0-.058.038-.343.076-.248.114-.305l.077-.057h.38q1.029-.057 1.219-.324l-.228-2.856h-4.532l-.647 1.105q-.781 1.314-.781 1.542zm5.865-3.541q0-.21-.228-2.97-.229-2.761-.267-2.78l-.514.818q-.305.514-1.2 2.037l-1.713 2.895 1.961.019q1.961 0 1.961-.02zM230.697 62.932q0-.323.256-.565.256-.242.593-.256.242 0 .403.162.162.161.175.403 0 .31-.269.566-.27.256-.592.269-.202 0-.377-.135-.175-.134-.188-.444zm-2.194 4.214q0-.108.121-.418.122-.31.324-.686.201-.377.592-.687.39-.31.808-.296.524 0 .874.31t.364.834q0 .23-.189.754-.188.525-.538 1.414-.35.888-.565 1.52-.068.297-.068.431 0 .337.23.337.12 0 .255-.04t.31-.189q.175-.148.363-.471.188-.323.337-.794.04-.162.067-.189.027-.027.229-.027.269 0 .269.135 0 .108-.121.417-.121.31-.337.687-.215.377-.606.673-.39.296-.834.296-.43 0-.794-.283-.364-.282-.377-.861 0-.229.067-.43.067-.203.579-1.536.511-1.36.592-1.628.081-.27.094-.525 0-.323-.228-.323h-.027q-.404 0-.74.444-.337.444-.512 1.13-.014.014-.027.041-.014.027-.014.04 0 .014-.027.027-.026.014-.04.014h-.35q-.08-.081-.08-.121zM233.996 67.819v-.175q0-.175.188-.27h7.821q.202.108.202.27 0 .161-.202.269h-7.821q-.188-.094-.188-.27zM246.218 63.228l-.175.068q-.188.067-.538.134-.35.068-.78.094h-.257v-.619h.256q.633-.027 1.171-.202.539-.175.754-.323.215-.148.377-.296.027-.04.162-.04.12 0 .228.08v4.025l.014 4.039q.094.094.161.121.068.027.324.054.255.027.834.027h.35v.619h-.148q-.283-.04-2.14-.04-1.831 0-2.114.04h-.161v-.62h.861q.216 0 .337-.013.12-.013.215-.04.094-.027.108-.027.013 0 .08-.067.068-.068.081-.054zM253.791 63.393q0-1.314.19-2.494.191-1.18.439-2.038.247-.856.704-1.675.457-.819.724-1.276.266-.457.8-.99.532-.533.628-.647.095-.114.476-.4h.323q.267 0 .267.171 0 .057-.324.4-.323.343-.78 1.01-.457.666-.933 1.637-.476.97-.8 2.627-.324 1.657-.324 3.675t.324 3.656q.324 1.637.78 2.646.458 1.01.934 1.638.476.628.8 1.009.323.38.323.4 0 .171-.286.171h-.304l-.533-.457q-1.79-1.618-2.609-4.036-.819-2.419-.819-5.027zM259.922 60.823q-.133-.134-.133-.19 0-.077.057-.305.057-.229.095-.267.038-.095.172-.095.133 0 .97-.02h1.01l.362-1.522q.057-.21.133-.553.076-.342.133-.495.057-.152.114-.38.057-.229.153-.324.095-.095.19-.229.095-.133.267-.171.171-.038.342-.038.343.019.476.21.134.19.134.361 0 .133-.172.895-.171.762-.38 1.504l-.191.705q0 .038.952.038h.971q.133.133.133.21 0 .418-.247.666h-2.037l-.686 2.76q-.742 3.047-.742 3.275 0 .8.514.8.666 0 1.294-.647.629-.648 1.01-1.6.038-.114.095-.133.057-.02.285-.038h.076q.286 0 .286.152 0 .057-.057.229-.095.304-.343.723-.247.419-.647.895-.4.476-.971.8-.571.323-1.162.323-.57 0-1.085-.285-.514-.286-.742-.99-.039-.153-.039-.514v-.343l.667-2.666q.666-2.684.685-2.703 0-.038-.97-.038zM267.598 63.145q.754-1.09 2.06-1.09.646 0 1.292.35t1.05 1.238q.498 1.118.498 3.07 0 2.086-.579 3.19-.269.565-.74.902-.471.336-.821.417-.35.08-.687.094-.35 0-.7-.08-.35-.081-.82-.431-.472-.35-.741-.902-.58-1.104-.58-3.19 0-2.343.768-3.568zm3.029-.161q-.404-.43-.956-.43-.565 0-.969.43-.337.35-.444.969-.108.62-.108 2.585 0 2.126.108 2.8.107.673.484 1.063.377.404.93.404.538 0 .915-.404.39-.404.484-1.13.094-.728.108-2.733 0-1.952-.108-2.571-.108-.62-.444-.983zM280.238 63.64v-.247q0-.248.266-.38h5.693v-2.857l.02-2.856q.19-.247.361-.247.248 0 .381.285v5.674h5.674q.286.152.286.381 0 .228-.286.38h-5.674v5.675q-.152.266-.343.266h-.076q-.228 0-.343-.266v-5.674h-5.693q-.266-.134-.266-.381zM300.84 55.149q.018 0 1.37-.096 1.352-.095 1.39-.114.228 0 .228.172 0 .209-.685 2.875-.723 2.818-.723 2.875 0 .038.133-.096 1.161-1.028 2.475-1.028 1.028 0 1.656.514.629.514.648 1.505 0 .97-.724 3.008-.723 2.037-.723 2.437.019.267.095.362.076.095.286.095.533 0 .99-.571.457-.571.742-1.562.057-.209.114-.247.058-.038.305-.038.38 0 .38.152 0 .02-.075.286-.305 1.123-.971 1.847-.648.818-1.543.818h-.095q-.895 0-1.295-.514-.4-.514-.4-1.085 0-.305.686-2.247t.705-2.913q0-1.123-.838-1.123h-.095q-1.58 0-2.742 1.866l-.133.247-.648 2.57q-.61 2.476-.704 2.704-.248.514-.838.514-.267 0-.457-.171t-.21-.343q0-.266 1.39-5.788l1.41-5.636q0-.247-.134-.304-.133-.057-.742-.096h-.4q-.114-.114-.114-.152 0-.038.038-.362.095-.361.247-.361zM310.34 53.892l.076-.019H310.836l.532.457q1.79 1.618 2.609 4.036.819 2.418.819 5.027 0 1.295-.19 2.494-.191 1.2-.439 2.037-.247.838-.704 1.676-.457.838-.724 1.276-.266.438-.78.97-.515.534-.61.629-.095.095-.438.362l-.076.076h-.438q-.057 0-.095-.057t-.057-.172q.019-.019.21-.247 2.95-3.065 2.95-9.044 0-5.979-2.95-9.044-.191-.229-.21-.248 0-.152.095-.209zM336.025 67.6q0 .382-.4.382-.095 0-.419-.305-.323-.305-1.79-1.77l-1.98-1.98-1.999 1.998q-2.018 1.98-2.075 2.019-.076.038-.133.038-.153 0-.267-.115-.114-.114-.133-.266 0-.133.266-.42.267-.285 1.79-1.808l1.98-1.98-1.98-1.98q-1.542-1.542-1.79-1.809-.247-.267-.266-.419 0-.171.114-.266.114-.096.286-.096.095 0 .133.02.057.037 2.075 2.018l2 1.999 1.98-1.98q1.466-1.466 1.79-1.771.323-.305.418-.305.4 0 .4.381 0 .133-.19.343-.19.21-1.866 1.866l-1.98 1.999 1.98 2q1.6 1.599 1.828 1.846.228.248.228.362z" style="stroke-width:0;stroke-dasharray:none" transform="matrix(.98 0 0 .98 10.288 -10.536)"/><path d="M348.534-63.964h162.221v1.142H348.534z" style="stroke-width:0;stroke-dasharray:none" transform="matrix(.98 0 0 -.98 10.288 -10.536)"/><path d="M353.637 52.94q0 .457.876.533.343 0 .343.21 0 .019-.038.247-.058.267-.115.343-.057.076-.247.076h-.229q-.19 0-.647-.02-.457-.018-1.219-.018-1.351 0-1.732.038h-.153q-.133-.133-.133-.21.038-.514.248-.666h.266q1.333-.057 1.942-.952.115-.114 3.447-5.807 3.332-5.693 3.389-5.77.133-.228.457-.228h.476q.114.172.114.19l.533 6.15q.533 6.15.571 6.208.095.21 1.238.21.476 0 .476.19 0 .038-.057.266-.057.286-.096.343-.038.057-.266.076h-.267q-.21 0-.742-.02-.533-.018-1.39-.018-1.79 0-2.342.038h-.229q-.114-.114-.114-.171 0-.058.038-.343.077-.248.115-.305l.076-.057h.38q1.029-.057 1.22-.324l-.23-2.856h-4.53l-.648 1.105q-.78 1.314-.78 1.542zm5.864-3.541q0-.21-.228-2.97-.229-2.761-.267-2.78l-.514.818q-.304.514-1.2 2.037L355.58 49.4l1.961.019q1.961 0 1.961-.02zM366.436 49.14q0-.324.256-.566.256-.242.592-.256.242 0 .404.162.162.161.175.404 0 .31-.27.565-.268.256-.592.27-.201 0-.376-.135t-.189-.445zm-2.194 4.213q0-.108.121-.417.121-.31.323-.687.202-.377.592-.687.39-.31.808-.296.525 0 .875.31t.364.835q0 .228-.189.753-.188.525-.538 1.414-.35.888-.566 1.52-.067.297-.067.432 0 .336.229.336.12 0 .256-.04.134-.04.31-.189.174-.148.363-.47.188-.324.336-.795.04-.162.067-.188.027-.027.23-.027.268 0 .268.134 0 .108-.12.418-.122.31-.337.686-.216.377-.606.673-.39.296-.835.296-.43 0-.794-.282-.363-.283-.377-.862 0-.229.068-.43.067-.203.578-1.535.512-1.36.593-1.63.08-.268.094-.524 0-.323-.229-.323h-.027q-.404 0-.74.444-.337.444-.512 1.13-.013.014-.027.041-.013.027-.013.04 0 .014-.027.028-.027.013-.04.013h-.35q-.081-.08-.081-.121zM372.296 49.589q0-1.314.19-2.494.191-1.18.439-2.038.247-.856.704-1.675.457-.819.724-1.276.266-.457.8-.99.532-.533.628-.647.095-.114.476-.4h.323q.267 0 .267.171 0 .057-.324.4-.323.343-.78 1.01-.457.666-.933 1.637-.476.97-.8 2.627-.324 1.657-.324 3.675t.324 3.656q.324 1.637.78 2.646.458 1.01.934 1.638.476.628.8 1.009.323.38.323.4 0 .171-.286.171h-.304l-.533-.457q-1.79-1.618-2.609-4.036-.819-2.419-.819-5.027zM378.427 47.019q-.133-.134-.133-.19 0-.077.057-.305.057-.229.095-.267.038-.095.172-.095.133 0 .97-.02h1.01l.361-1.522q.058-.21.134-.553.076-.342.133-.495.057-.152.114-.38.057-.229.153-.324.095-.095.19-.229.095-.133.267-.171.17-.038.342-.038.343.019.476.21.134.19.134.361 0 .133-.172.895-.171.762-.38 1.504l-.191.705q0 .038.952.038h.971q.133.133.133.21 0 .418-.247.666h-2.037l-.686 2.76q-.742 3.047-.742 3.275 0 .8.514.8.666 0 1.294-.647.629-.648 1.01-1.6.038-.114.095-.133.057-.02.285-.038h.076q.286 0 .286.152 0 .057-.057.229-.095.304-.343.723-.247.419-.647.895-.4.476-.971.8-.571.323-1.162.323-.57 0-1.085-.285-.514-.286-.742-.99-.039-.153-.039-.514v-.343l.667-2.666q.666-2.684.685-2.703 0-.038-.97-.038zM386.103 49.341q.754-1.09 2.06-1.09.646 0 1.292.35t1.05 1.238q.498 1.118.498 3.07 0 2.086-.579 3.19-.269.565-.74.902-.471.336-.821.417-.35.08-.687.094-.35 0-.7-.08-.35-.081-.82-.431-.472-.35-.741-.902-.58-1.104-.58-3.19 0-2.343.768-3.568zm3.029-.161q-.404-.43-.956-.43-.565 0-.969.43-.337.35-.444.969-.108.62-.108 2.585 0 2.126.108 2.8.107.673.484 1.063.377.404.93.404.538 0 .915-.404.39-.404.484-1.13.094-.728.108-2.733 0-1.952-.108-2.571-.108-.62-.444-.983zM398.743 49.836v-.247q0-.248.266-.38h5.693v-2.857l.02-2.856q.19-.247.361-.247.248 0 .38.285v5.674h5.675q.285.152.285.381 0 .228-.285.38h-5.674v5.675q-.152.266-.343.266h-.076q-.228 0-.343-.266V49.97h-5.693q-.266-.134-.266-.381zM419.344 41.345q.02 0 1.371-.096 1.352-.095 1.39-.114.228 0 .228.172 0 .209-.685 2.875-.724 2.818-.724 2.875 0 .038.134-.096 1.161-1.028 2.475-1.028 1.028 0 1.656.514.629.514.648 1.505 0 .97-.724 3.008-.723 2.037-.723 2.437.019.267.095.362.076.095.286.095.533 0 .99-.571.457-.571.742-1.562.057-.209.114-.247.058-.038.305-.038.38 0 .38.152 0 .02-.075.286-.305 1.123-.971 1.847-.648.818-1.543.818h-.095q-.895 0-1.295-.514-.4-.514-.4-1.085 0-.305.686-2.247t.705-2.913q0-1.123-.838-1.123h-.095q-1.58 0-2.742 1.866l-.133.247-.648 2.57q-.61 2.476-.704 2.704-.248.514-.838.514-.267 0-.457-.171t-.21-.343q0-.266 1.39-5.788l1.41-5.636q0-.247-.134-.304-.133-.057-.742-.096h-.4q-.114-.114-.114-.152 0-.038.038-.362.095-.361.247-.361zM428.864 40.088l.076-.019H429.36l.532.457q1.79 1.618 2.609 4.036.819 2.418.819 5.027 0 1.295-.19 2.494-.191 1.2-.439 2.037-.247.838-.704 1.676-.457.838-.724 1.276-.266.438-.78.97-.515.534-.61.629-.095.095-.438.362l-.076.076h-.438q-.057 0-.095-.057t-.057-.172q.019-.019.21-.247 2.95-3.065 2.95-9.044 0-5.979-2.95-9.044-.191-.229-.21-.248 0-.152.095-.209zM440.955 49.836v-.247q0-.248.266-.38h11.062q.286.151.286.38 0 .228-.286.38h-11.062q-.266-.133-.266-.38zM462.375 52.94q0 .457.875.533.343 0 .343.21 0 .019-.038.247-.057.267-.114.343-.057.076-.248.076h-.228q-.19 0-.648-.02-.457-.018-1.218-.018-1.352 0-1.733.038h-.152q-.133-.133-.133-.21.038-.514.247-.666h.267q1.332-.057 1.942-.952.114-.114 3.446-5.807 3.332-5.693 3.39-5.77.132-.228.456-.228h.476q.114.172.114.19l.533 6.15q.534 6.15.572 6.208.095.21 1.237.21.476 0 .476.19 0 .038-.057.266-.057.286-.095.343-.038.057-.267.076h-.266q-.21 0-.743-.02-.533-.018-1.39-.018-1.79 0-2.342.038h-.228q-.114-.114-.114-.171 0-.058.038-.343.076-.248.114-.305l.076-.057h.381q1.028-.057 1.219-.324l-.229-2.856h-4.531l-.648 1.105q-.78 1.314-.78 1.542zm5.864-3.541q0-.21-.229-2.97-.228-2.761-.266-2.78l-.514.818q-.305.514-1.2 2.037l-1.713 2.895 1.96.019q1.962 0 1.962-.02zM475.174 49.14q0-.324.255-.566.256-.242.593-.256.242 0 .403.162.162.161.175.404 0 .31-.269.565-.269.256-.592.27-.202 0-.377-.135t-.188-.445zm-2.195 4.213q0-.108.121-.417.122-.31.324-.687.201-.377.592-.687.39-.31.808-.296.525 0 .874.31.35.31.364.835 0 .228-.189.753-.188.525-.538 1.414-.35.888-.565 1.52-.068.297-.068.432 0 .336.23.336.12 0 .255-.04t.31-.189q.175-.148.363-.47.189-.324.337-.795.04-.162.067-.188.027-.027.229-.027.269 0 .269.134 0 .108-.121.418t-.337.686q-.215.377-.606.673-.39.296-.834.296-.43 0-.794-.282-.364-.283-.377-.862 0-.229.067-.43.067-.203.579-1.535.511-1.36.592-1.63.081-.268.094-.524 0-.323-.228-.323h-.027q-.404 0-.74.444-.337.444-.512 1.13-.014.014-.027.041-.014.027-.014.04 0 .014-.027.028-.026.013-.04.013h-.35q-.08-.08-.08-.121zM481.053 49.589q0-1.314.19-2.494.19-1.18.438-2.038.248-.856.705-1.675.457-.819.723-1.276.267-.457.8-.99.533-.533.628-.647.095-.114.476-.4h.324q.266 0 .266.171 0 .057-.323.4-.324.343-.78 1.01-.458.666-.934 1.637-.476.97-.8 2.627-.323 1.657-.323 3.675t.323 3.656q.324 1.637.781 2.646.457 1.01.933 1.638.476.628.8 1.009.323.38.323.4 0 .171-.285.171h-.305l-.533-.457q-1.79-1.618-2.608-4.036-.82-2.419-.82-5.027zM487.165 47.019q-.134-.134-.134-.19 0-.077.057-.305.058-.229.096-.267.038-.095.171-.095t.971-.02h1.01l.36-1.522q.058-.21.134-.553.076-.342.133-.495.058-.152.115-.38.057-.229.152-.324t.19-.229q.096-.133.267-.171.171-.038.343-.038.342.019.476.21.133.19.133.361 0 .133-.171.895-.172.762-.381 1.504l-.19.705q0 .038.951.038h.971q.134.133.134.21 0 .418-.248.666h-2.037l-.685 2.76q-.743 3.047-.743 3.275 0 .8.514.8.666 0 1.295-.647.628-.648 1.009-1.6.038-.114.095-.133.057-.02.286-.038h.076q.285 0 .285.152 0 .057-.057.229-.095.304-.342.723-.248.419-.648.895-.4.476-.97.8-.572.323-1.162.323-.571 0-1.085-.285-.515-.286-.743-.99-.038-.153-.038-.514v-.343l.666-2.666q.667-2.684.686-2.703 0-.038-.971-.038zM494.84 49.341q.754-1.09 2.06-1.09.646 0 1.292.35.647.35 1.05 1.238.498 1.118.498 3.07 0 2.086-.578 3.19-.27.565-.74.902-.472.336-.822.417-.35.08-.686.094-.35 0-.7-.08-.35-.081-.822-.431-.47-.35-.74-.902-.579-1.104-.579-3.19 0-2.343.768-3.568zm3.03-.161q-.404-.43-.956-.43-.566 0-.97.43-.336.35-.444.969-.108.62-.108 2.585 0 2.126.108 2.8.108.673.485 1.063.377.404.929.404.538 0 .915-.404.39-.404.485-1.13.094-.728.107-2.733 0-1.952-.107-2.571-.108-.62-.445-.983zM503.349 40.088l.076-.019H503.844l.533.457q1.79 1.618 2.608 4.036.819 2.418.819 5.027 0 1.295-.19 2.494-.19 1.2-.438 2.037-.248.838-.705 1.676-.457.838-.723 1.276-.267.438-.78.97-.515.534-.61.629-.095.095-.438.362l-.076.076h-.439q-.056 0-.094-.057-.039-.057-.058-.172.02-.019.21-.247 2.951-3.065 2.951-9.044 0-5.979-2.951-9.044-.19-.229-.21-.248 0-.152.096-.209zM426.77 68.21q.019 0 1.37-.095 1.352-.095 1.39-.114.229 0 .229.171 0 .21-.685 2.875-.724 2.818-.724 2.875 0 .038.133-.095 1.162-1.028 2.476-1.028 1.028 0 1.656.514.628.514.647 1.504 0 .971-.723 3.008-.724 2.038-.724 2.437.02.267.096.362.076.095.285.095.533 0 .99-.57.457-.572.743-1.562.057-.21.114-.248.057-.038.305-.038.38 0 .38.153 0 .019-.076.285-.304 1.124-.97 1.847-.648.819-1.543.819h-.095q-.895 0-1.295-.514-.4-.514-.4-1.086 0-.304.686-2.246.685-1.942.704-2.913 0-1.124-.838-1.124h-.095q-1.58 0-2.742 1.866l-.133.248-.647 2.57q-.61 2.475-.705 2.704-.247.514-.837.514-.267 0-.457-.172-.19-.17-.21-.342 0-.267 1.39-5.788l1.409-5.636q0-.248-.133-.305-.134-.057-.743-.095h-.4q-.114-.114-.114-.152 0-.038.038-.362.095-.362.248-.362zM532.46 67.6q0 .382-.4.382-.094 0-.418-.305-.324-.305-1.79-1.77l-1.98-1.98-2 1.998q-2.017 1.98-2.074 2.019-.077.038-.134.038-.152 0-.266-.115-.115-.114-.134-.266 0-.133.267-.42.267-.285 1.79-1.808l1.98-1.98-1.98-1.98q-1.542-1.542-1.79-1.809-.247-.267-.267-.419 0-.171.115-.266.114-.096.285-.096.096 0 .134.02.057.037 2.075 2.018l2 1.999 1.98-1.98q1.465-1.466 1.79-1.771.323-.305.418-.305.4 0 .4.381 0 .133-.19.343-.191.21-1.867 1.866l-1.98 1.999 1.98 2q1.6 1.599 1.828 1.846.229.248.229.362zM546.646 66.744q0 .457.875.533.343 0 .343.21 0 .019-.038.247-.057.267-.114.343-.057.076-.248.076h-.228q-.19 0-.648-.02-.457-.018-1.218-.018-1.352 0-1.733.038h-.152q-.133-.133-.133-.21.038-.514.247-.666h.267q1.333-.057 1.942-.952.114-.114 3.446-5.807 3.332-5.693 3.39-5.77.132-.228.456-.228h.476q.114.172.114.19l.533 6.15q.534 6.15.572 6.208.095.21 1.237.21.476 0 .476.19 0 .038-.057.266-.057.286-.095.343-.038.057-.267.076h-.266q-.21 0-.743-.02-.533-.018-1.39-.018-1.79 0-2.342.038h-.228q-.114-.114-.114-.171 0-.058.038-.343.076-.248.114-.305l.076-.057h.381q1.028-.057 1.219-.324l-.229-2.856h-4.531l-.648 1.105q-.78 1.314-.78 1.542zm5.864-3.541q0-.21-.229-2.97-.228-2.761-.266-2.78l-.514.818q-.305.514-1.2 2.037l-1.713 2.895 1.96.019q1.962 0 1.962-.02zM559.442 62.932q0-.323.256-.565.256-.242.592-.256.243 0 .404.162.162.161.175.403 0 .31-.27.566-.268.256-.591.269-.202 0-.377-.135-.175-.134-.189-.444zm-2.194 4.214q0-.108.121-.418t.323-.686q.202-.377.592-.687.39-.31.808-.296.525 0 .875.31t.364.834q0 .23-.189.754-.188.525-.538 1.414-.35.888-.566 1.52-.067.297-.067.431 0 .337.229.337.121 0 .256-.04.134-.04.31-.189.174-.148.363-.471.188-.323.336-.794.04-.162.067-.189.027-.027.23-.027.269 0 .269.135 0 .108-.122.417-.12.31-.336.687-.216.377-.606.673-.39.296-.834.296-.431 0-.795-.283-.363-.282-.377-.861 0-.229.068-.43.067-.203.579-1.536.511-1.36.592-1.628.08-.27.094-.525 0-.323-.229-.323h-.027q-.404 0-.74.444-.337.444-.512 1.13-.013.014-.027.041-.013.027-.013.04 0 .014-.027.027-.027.014-.04.014h-.35q-.081-.081-.081-.121zM562.363 67.819v-.175q0-.175.189-.27h4.025v-2.019l.013-2.019q.135-.175.256-.175.175 0 .27.202v4.011h4.01q.202.108.202.27 0 .161-.201.269h-4.012v4.011q-.108.189-.242.189h-.054q-.162 0-.242-.189v-4.011h-4.025q-.189-.094-.189-.27zM574.963 63.228l-.175.068q-.188.067-.538.134-.35.068-.781.094h-.256v-.619h.256q.632-.027 1.17-.202.54-.175.755-.323.215-.148.377-.296.027-.04.161-.04.121 0 .229.08v4.025l.014 4.039q.094.094.161.121.067.027.323.054t.835.027h.35v.619h-.148q-.283-.04-2.14-.04-1.831 0-2.114.04h-.162v-.62h.862q.215 0 .336-.013.122-.013.216-.04.094-.027.108-.027.013 0 .08-.067.068-.068.081-.054zM582.536 63.393q0-1.314.19-2.494.19-1.18.438-2.038.248-.856.705-1.675.457-.819.723-1.276.267-.457.8-.99.533-.533.628-.647.095-.114.476-.4h.324q.267 0 .267.171 0 .057-.324.4t-.78 1.01q-.458.666-.934 1.637-.476.97-.8 2.627-.323 1.657-.323 3.675t.324 3.656q.323 1.637.78 2.646.457 1.01.933 1.638.476.628.8 1.009.324.38.324.4 0 .171-.286.171h-.305l-.533-.457q-1.79-1.618-2.608-4.036-.819-2.419-.819-5.027zM588.667 60.823q-.133-.134-.133-.19 0-.077.057-.305.057-.229.095-.267.038-.095.171-.095.134 0 .971-.02h1.01l.361-1.522q.057-.21.133-.553.077-.342.134-.495.057-.152.114-.38.057-.229.152-.324t.19-.229q.096-.133.267-.171.172-.038.343-.038.343.019.476.21.133.19.133.361 0 .133-.171.895t-.38 1.504l-.191.705q0 .038.952.038h.97q.134.133.134.21 0 .418-.248.666h-2.037l-.685 2.76q-.743 3.047-.743 3.275 0 .8.514.8.667 0 1.295-.647.628-.648 1.01-1.6.037-.114.094-.133.057-.02.286-.038h.076q.286 0 .286.152 0 .057-.057.229-.096.304-.343.723-.248.419-.647.895-.4.476-.971.8-.572.323-1.162.323-.571 0-1.085-.285-.514-.286-.743-.99-.038-.153-.038-.514v-.343l.667-2.666q.666-2.684.685-2.703 0-.038-.971-.038zM596.343 63.145q.754-1.09 2.06-1.09.646 0 1.292.35t1.05 1.238q.498 1.118.498 3.07 0 2.086-.58 3.19-.268.565-.74.902-.47.336-.82.417-.35.08-.687.094-.35 0-.7-.08-.35-.081-.821-.431t-.74-.902q-.58-1.104-.58-3.19 0-2.343.768-3.568zm3.029-.161q-.404-.43-.956-.43-.566 0-.97.43-.336.35-.444.969-.107.62-.107 2.585 0 2.126.107 2.8.108.673.485 1.063.377.404.929.404.538 0 .915-.404.39-.404.485-1.13.094-.728.108-2.733 0-1.952-.108-2.571-.108-.62-.444-.983zM604.832 53.892l.076-.019H605.327l.533.457q1.79 1.618 2.608 4.036.82 2.418.82 5.027 0 1.295-.191 2.494-.19 1.2-.438 2.037-.248.838-.705 1.676-.457.838-.723 1.276-.267.438-.78.97-.515.534-.61.629-.095.095-.438.362l-.076.076h-.439q-.056 0-.094-.057t-.057-.172q.019-.019.21-.247 2.95-3.065 2.95-9.044 0-5.979-2.95-9.044-.191-.229-.21-.248 0-.152.095-.209zM630.517 67.6q0 .382-.4.382-.095 0-.419-.305-.324-.305-1.79-1.77l-1.98-1.98-2 1.998q-2.017 1.98-2.074 2.019-.077.038-.134.038-.152 0-.266-.115-.114-.114-.134-.266 0-.133.267-.42.267-.285 1.79-1.808l1.98-1.98-1.98-1.98q-1.542-1.542-1.79-1.809-.247-.267-.267-.419 0-.171.115-.266.114-.096.285-.096.096 0 .134.02.057.037 2.075 2.018l2 1.999 1.98-1.98q1.465-1.466 1.79-1.771.323-.305.418-.305.4 0 .4.381 0 .133-.19.343-.191.21-1.867 1.866l-1.98 1.999 1.98 2q1.6 1.599 1.828 1.846.229.248.229.362zM642.226 63.393q0-.457.324-.8.324-.342.819-.342.457 0 .8.304.342.305.361.819 0 .476-.323.819-.324.342-.82.342-.494 0-.818-.323-.324-.324-.343-.819zm8.511 0q0-.457.324-.8.324-.342.819-.342.457 0 .8.304.342.305.361.819 0 .476-.324.819-.323.342-.818.342-.495 0-.819-.323-.324-.324-.343-.819zm8.511 0q0-.457.324-.8.323-.342.819-.342.457 0 .8.304.342.305.361.819 0 .476-.324.819-.323.342-.818.342-.495 0-.82-.323-.323-.324-.342-.819zM682.458 67.6q0 .382-.4.382-.095 0-.419-.305-.323-.305-1.79-1.77l-1.98-1.98-1.999 1.998q-2.018 1.98-2.075 2.019-.076.038-.134.038-.152 0-.266-.115-.114-.114-.133-.266 0-.133.266-.42.267-.285 1.79-1.808l1.98-1.98-1.98-1.98q-1.542-1.542-1.79-1.809-.247-.267-.266-.419 0-.171.114-.266.114-.096.285-.096.096 0 .134.02.057.037 2.075 2.018l2 1.999 1.98-1.98q1.465-1.466 1.79-1.771.323-.305.418-.305.4 0 .4.381 0 .133-.19.343-.19.21-1.866 1.866l-1.98 1.999 1.98 2q1.599 1.599 1.827 1.846.229.248.229.362zM696.662 66.744q0 .457.876.533.342 0 .342.21 0 .019-.038.247-.057.267-.114.343-.057.076-.248.076h-.228q-.19 0-.647-.02-.457-.018-1.219-.018-1.352 0-1.733.038h-.152q-.133-.133-.133-.21.038-.514.247-.666h.267q1.333-.057 1.942-.952.114-.114 3.446-5.807 3.332-5.693 3.39-5.77.133-.228.456-.228h.476q.115.172.115.19l.533 6.15q.533 6.15.57 6.208.096.21 1.238.21.476 0 .476.19 0 .038-.057.266-.057.286-.095.343-.038.057-.266.076h-.267q-.21 0-.743-.02-.533-.018-1.39-.018-1.79 0-2.341.038h-.229q-.114-.114-.114-.171 0-.058.038-.343.076-.248.114-.305l.076-.057h.381q1.028-.057 1.219-.324l-.229-2.856h-4.531l-.648 1.105q-.78 1.314-.78 1.542zm5.864-3.541q0-.21-.228-2.97-.229-2.761-.267-2.78l-.514.818q-.305.514-1.2 2.037l-1.713 2.895 1.96.019q1.962 0 1.962-.02zM707.267 67.157q.013-.08.04-.216.027-.134.161-.511.135-.377.27-.633.134-.256.444-.498t.62-.229q.484 0 .807.243.323.242.404.457.08.216.08.283 0 .027.014.027l.148-.148q.821-.862 1.871-.862.727 0 1.171.364.444.363.458 1.063.013.7-.512 2.114-.525 1.413-.511 1.71 0 .35.229.35.08 0 .12-.014.391-.068.7-.512.31-.444.472-1.077.027-.107.27-.107.268 0 .268.107 0 .014-.053.202-.108.39-.296.768-.189.376-.62.753-.43.377-.929.364-.632 0-.915-.364-.283-.363-.283-.753 0-.256.485-1.616t.498-2.046q0-.794-.592-.794h-.068q-1.157 0-1.951 1.36l-.095.161-.444 1.804q-.444 1.763-.511 1.898-.175.363-.58.363-.174 0-.282-.08-.108-.081-.148-.162-.04-.08-.027-.135 0-.175.512-2.194.511-2.019.538-2.194.014-.067.014-.31 0-.525-.323-.525-.512 0-.849 1.347-.08.269-.08.282-.027.081-.256.081h-.189q-.08-.08-.08-.121zM718.767 63.393q0-1.314.19-2.494.191-1.18.439-2.038.247-.856.704-1.675.457-.819.723-1.276.267-.457.8-.99.533-.533.628-.647.096-.114.476-.4h.324q.267 0 .267.171 0 .057-.324.4t-.78 1.01q-.458.666-.934 1.637-.475.97-.8 2.627-.323 1.657-.323 3.675t.324 3.656q.324 1.637.78 2.646.457 1.01.933 1.638.476.628.8 1.009.324.38.324.4 0 .171-.286.171h-.304l-.534-.457q-1.79-1.618-2.608-4.036-.819-2.419-.819-5.027zM724.898 60.823q-.133-.134-.133-.19 0-.077.057-.305.057-.229.095-.267.038-.095.171-.095.134 0 .971-.02h1.01l.361-1.522q.057-.21.134-.553.076-.342.133-.495.057-.152.114-.38.057-.229.152-.324.096-.095.19-.229.096-.133.267-.171.172-.038.343-.038.343.019.476.21.133.19.133.361 0 .133-.17.895-.172.762-.382 1.504l-.19.705q0 .038.952.038h.97q.134.133.134.21 0 .418-.247.666H728.4l-.685 2.76q-.743 3.047-.743 3.275 0 .8.514.8.667 0 1.295-.647.629-.648 1.01-1.6.037-.114.095-.133.057-.02.285-.038h.076q.286 0 .286.152 0 .057-.057.229-.095.304-.343.723-.247.419-.647.895-.4.476-.971.8-.571.323-1.162.323-.57 0-1.085-.285-.514-.286-.743-.99-.038-.153-.038-.514v-.343l.667-2.666q.666-2.684.685-2.703 0-.038-.97-.038zM732.574 63.145q.754-1.09 2.06-1.09.646 0 1.292.35t1.05 1.238q.498 1.118.498 3.07 0 2.086-.579 3.19-.27.565-.74.902-.471.336-.821.417-.35.08-.687.094-.35 0-.7-.08-.35-.081-.821-.431t-.74-.902q-.58-1.104-.58-3.19 0-2.343.768-3.568zm3.029-.161q-.404-.43-.956-.43-.565 0-.97.43-.336.35-.443.969-.108.62-.108 2.585 0 2.126.108 2.8.107.673.484 1.063.377.404.93.404.538 0 .914-.404.39-.404.485-1.13.094-.728.108-2.733 0-1.952-.108-2.571-.108-.62-.444-.983zM741.063 53.892l.076-.019H741.56l.532.457q1.79 1.618 2.609 4.036.818 2.418.818 5.027 0 1.295-.19 2.494-.19 1.2-.438 2.037-.247.838-.704 1.676-.457.838-.724 1.276-.266.438-.78.97-.515.534-.61.629-.095.095-.438.362l-.076.076h-.438q-.057 0-.095-.057t-.057-.172q.019-.019.21-.247 2.95-3.065 2.95-9.044 0-5.979-2.95-9.044-.191-.229-.21-.248 0-.152.095-.209z" style="stroke-width:0;stroke-dasharray:none" transform="matrix(.98 0 0 .98 10.288 -10.536)"/></g><path d="M-1252.833-176.574h225.342V0h-225.342z" style="fill:#e5f6ff;fill-opacity:1;stroke:#000;stroke-dashoffset:1.02"/><path d="M522.764-94.662v-73.567H341.987v73.567zm-175.13-68.126h169.69v62.478h-169.69Z" style="fill:#ffd5d5;stroke:#000;stroke-width:1;stroke-dashoffset:1.02"/><path d="M48.769-304.258q0 .457.875.533.343 0 .343.21 0 .018-.038.247-.057.266-.114.343-.057.076-.248.076h-.228q-.19 0-.648-.02-.456-.018-1.218-.018-1.352 0-1.733.038h-.152q-.133-.133-.133-.21.038-.514.247-.666h.267q1.333-.057 1.942-.952.114-.114 3.446-5.807 3.332-5.693 3.39-5.77.132-.228.456-.228h.476q.114.172.114.19l.534 6.15q.533 6.15.57 6.208.096.209 1.238.209.476 0 .476.19 0 .038-.057.267-.057.286-.095.343-.038.057-.267.076h-.266q-.21 0-.743-.02-.533-.018-1.39-.018-1.79 0-2.342.038h-.228q-.114-.114-.114-.171 0-.057.038-.343.076-.248.114-.305l.076-.057h.381q1.028-.057 1.219-.324l-.229-2.856h-4.531l-.648 1.105q-.78 1.314-.78 1.542zm5.864-3.542q0-.21-.229-2.97-.228-2.76-.266-2.78l-.514.819q-.305.514-1.2 2.037l-1.713 2.894 1.96.02q1.962 0 1.962-.02zM61.958-307.763l-.175.068q-.188.067-.538.134-.35.068-.781.094h-.256v-.619h.256q.632-.027 1.17-.202.54-.175.755-.323.215-.148.377-.296.027-.04.161-.04.121 0 .229.08v4.025l.013 4.039q.095.094.162.12.067.028.323.055t.835.027h.35v.619h-.148q-.283-.04-2.14-.04-1.831 0-2.114.04h-.162v-.62h.862q.215 0 .336-.013.122-.013.216-.04.094-.027.107-.027.014 0 .081-.067.068-.068.081-.054zM69.522-307.61q0-1.313.19-2.494.191-1.18.439-2.037.247-.857.704-1.675.457-.82.724-1.276.266-.457.8-.99.532-.533.628-.647.095-.115.476-.4h.323q.267 0 .267.171 0 .057-.324.4t-.78 1.009q-.458.666-.934 1.637-.476.971-.8 2.628-.323 1.656-.323 3.675 0 2.018.324 3.655.323 1.638.78 2.647.457 1.01.933 1.637.476.629.8 1.01.324.38.324.4 0 .17-.286.17h-.304l-.534-.456q-1.79-1.619-2.608-4.037-.819-2.418-.819-5.026zM75.634-310.18q-.133-.133-.133-.19 0-.076.057-.305.057-.228.095-.266.038-.096.171-.096.134 0 .971-.019h1.01l.361-1.523q.057-.21.134-.552.076-.343.133-.495.057-.152.114-.38.057-.23.152-.324.096-.096.19-.229.096-.133.267-.171.172-.038.343-.038.343.019.476.21.133.19.133.36 0 .134-.17.896-.172.761-.382 1.504l-.19.704q0 .038.952.038h.97q.134.134.134.21 0 .419-.247.666h-2.038l-.685 2.761q-.743 3.047-.743 3.275 0 .8.514.8.667 0 1.295-.648.629-.647 1.01-1.599.037-.114.095-.133.057-.02.285-.038h.076q.286 0 .286.152 0 .057-.057.228-.095.305-.343.724-.247.419-.647.895-.4.476-.971.8-.572.323-1.162.323-.571 0-1.085-.285-.514-.286-.743-.99-.038-.153-.038-.515v-.342l.667-2.666q.666-2.685.685-2.704 0-.038-.97-.038zM83.31-307.857q.754-1.09 2.06-1.09.646 0 1.292.35t1.05 1.238q.498 1.117.498 3.07 0 2.086-.579 3.19-.27.565-.74.902-.471.336-.821.417-.35.08-.687.094-.35 0-.7-.08-.35-.082-.821-.431-.471-.35-.74-.902-.58-1.104-.58-3.19 0-2.343.768-3.568zm3.029-.161q-.404-.431-.956-.431-.565 0-.97.43-.336.35-.443.97-.108.619-.108 2.584 0 2.127.108 2.8.107.673.484 1.064.377.404.93.404.538 0 .914-.404.39-.404.485-1.131.094-.727.108-2.733 0-1.952-.108-2.57-.108-.62-.444-.983zM95.969-307.362v-.247q0-.248.266-.381h5.693v-2.856l.02-2.856q.19-.248.361-.248.248 0 .38.286v5.674h5.675q.285.152.285.38 0 .23-.285.381h-5.674v5.674q-.152.267-.343.267h-.076q-.229 0-.343-.267v-5.673h-5.693q-.266-.134-.266-.381zM116.57-315.854q.02 0 1.37-.095 1.353-.095 1.39-.114.23 0 .23.171 0 .21-.686 2.875-.724 2.818-.724 2.875 0 .038.134-.095 1.161-1.028 2.475-1.028 1.028 0 1.656.514.629.514.648 1.504 0 .971-.724 3.009-.723 2.037-.723 2.437.019.266.095.361.076.096.285.096.534 0 .99-.572.458-.57.743-1.56.057-.21.114-.248.057-.038.305-.038.38 0 .38.152 0 .019-.075.285-.305 1.124-.971 1.847-.648.82-1.543.82h-.095q-.895 0-1.295-.515-.4-.514-.4-1.085 0-.305.686-2.247.685-1.942.704-2.913 0-1.123-.837-1.123h-.095q-1.58 0-2.742 1.865l-.134.248-.647 2.57q-.61 2.476-.704 2.704-.248.514-.838.514-.267 0-.457-.171-.19-.172-.21-.343 0-.267 1.39-5.788l1.41-5.636q0-.247-.134-.305-.133-.057-.742-.095h-.4q-.115-.114-.115-.152 0-.038.039-.362.095-.362.247-.362zM126.071-317.11l.076-.02H126.567l.532.458q1.79 1.618 2.609 4.036.818 2.418.818 5.027 0 1.294-.19 2.494-.19 1.2-.438 2.037-.247.838-.704 1.676-.457.838-.724 1.275-.266.438-.78.972-.515.533-.61.628-.095.095-.438.362l-.076.076h-.438q-.057 0-.095-.057t-.057-.172q.019-.019.21-.247 2.95-3.066 2.95-9.044 0-5.979-2.95-9.044-.191-.229-.21-.248 0-.152.095-.21zM151.756-303.401q0 .38-.4.38-.095 0-.419-.304-.323-.305-1.79-1.771l-1.98-1.98-1.999 1.999q-2.018 1.98-2.075 2.018-.076.038-.134.038-.152 0-.266-.114-.114-.114-.133-.266 0-.134.266-.42.267-.285 1.79-1.808l1.98-1.98-1.98-1.98q-1.542-1.543-1.79-1.81-.247-.266-.266-.418 0-.171.114-.267.114-.095.285-.095.096 0 .134.02.057.037 2.075 2.017l2 2 1.98-1.98q1.466-1.467 1.79-1.771.323-.305.418-.305.4 0 .4.38 0 .134-.19.344-.19.209-1.866 1.865l-1.98 2 1.98 1.999q1.599 1.6 1.827 1.847.229.247.229.362zM163.466-303.992q0-.457.323-.8.324-.342.819-.342.457 0 .8.305.342.304.361.818 0 .476-.323.819-.324.343-.819.343-.495 0-.819-.324-.323-.324-.342-.819zm8.51 0q0-.457.324-.8.324-.342.819-.342.457 0 .8.305.342.304.361.818 0 .476-.323.819-.324.343-.82.343-.494 0-.818-.324-.324-.324-.343-.819zm8.511 0q0-.457.324-.8.324-.342.819-.342.457 0 .8.305.342.304.361.818 0 .476-.324.819-.323.343-.818.343-.495 0-.819-.324-.324-.324-.343-.819zM203.697-303.401q0 .38-.4.38-.095 0-.419-.304-.323-.305-1.79-1.771l-1.98-1.98-1.999 1.999q-2.018 1.98-2.075 2.018-.076.038-.133.038-.153 0-.267-.114-.114-.114-.133-.266 0-.134.266-.42.267-.285 1.79-1.808l1.98-1.98-1.98-1.98q-1.542-1.543-1.79-1.81-.247-.266-.266-.418 0-.171.114-.267.114-.095.286-.095.095 0 .133.02.057.037 2.075 2.017l2 2 1.98-1.98q1.466-1.467 1.79-1.771.323-.305.418-.305.4 0 .4.38 0 .134-.19.344-.19.209-1.866 1.865l-1.98 2 1.98 1.999q1.6 1.6 1.828 1.847.228.247.228.362zM217.9-304.258q0 .457.877.533.343 0 .343.21 0 .018-.039.247-.057.266-.114.343-.057.076-.247.076h-.229q-.19 0-.647-.02-.457-.018-1.219-.018-1.352 0-1.732.038h-.153q-.133-.133-.133-.21.038-.514.248-.666h.266q1.333-.057 1.942-.952.114-.114 3.446-5.807 3.332-5.693 3.39-5.77.133-.228.456-.228h.476q.115.172.115.19l.533 6.15q.533 6.15.571 6.208.095.209 1.238.209.476 0 .476.19 0 .038-.057.267-.058.286-.096.343-.038.057-.266.076h-.267q-.21 0-.742-.02-.533-.018-1.39-.018-1.79 0-2.342.038h-.229q-.114-.114-.114-.171 0-.057.038-.343.076-.248.114-.305l.077-.057h.38q1.029-.057 1.219-.324l-.228-2.856h-4.532l-.647 1.105q-.781 1.314-.781 1.542zm5.865-3.542q0-.21-.228-2.97-.229-2.76-.267-2.78l-.514.819q-.305.514-1.2 2.037l-1.713 2.894 1.961.02q1.961 0 1.961-.02zM230.697-308.07q0-.323.256-.565.256-.243.593-.256.242 0 .403.161.162.162.175.404 0 .31-.269.566-.27.255-.592.269-.202 0-.377-.135-.175-.134-.188-.444zm-2.194 4.213q0-.107.121-.417.122-.31.324-.687.201-.376.592-.686.39-.31.808-.296.524 0 .874.31.35.309.364.834 0 .229-.189.754-.188.525-.538 1.413-.35.889-.565 1.521-.068.297-.068.431 0 .337.23.337.12 0 .255-.04.135-.041.31-.19.175-.147.363-.47.188-.323.337-.795.04-.161.067-.188.027-.027.229-.027.269 0 .269.135 0 .107-.121.417t-.337.687q-.215.376-.606.673-.39.296-.834.296-.43 0-.794-.283-.364-.283-.377-.861 0-.23.067-.431.067-.202.579-1.535.511-1.36.592-1.629.081-.269.094-.525 0-.323-.228-.323h-.027q-.404 0-.74.445-.337.444-.512 1.13-.014.014-.027.04-.014.028-.014.041 0 .014-.027.027-.026.014-.04.014h-.35q-.08-.081-.08-.122zM233.996-303.184v-.175q0-.175.188-.269h7.821q.202.108.202.27 0 .16-.202.269h-7.821q-.188-.095-.188-.27zM246.218-307.774l-.175.067q-.188.068-.538.135-.35.067-.78.094h-.257v-.619h.256q.633-.027 1.171-.202.539-.175.754-.323.215-.148.377-.296.027-.04.162-.04.12 0 .228.08v4.025l.014 4.039q.094.094.161.12.068.028.324.055.255.026.834.026h.35v.62h-.148q-.283-.04-2.14-.04-1.831 0-2.114.04h-.161v-.62h.861q.216 0 .337-.013.12-.014.215-.04.094-.027.108-.027.013 0 .08-.068.068-.067.081-.054zM253.791-307.61q0-1.313.19-2.494.191-1.18.439-2.037.247-.857.704-1.675.457-.82.724-1.276.266-.457.8-.99.532-.533.628-.647.095-.115.476-.4h.323q.267 0 .267.171 0 .057-.324.4-.323.343-.78 1.009-.457.666-.933 1.637-.476.971-.8 2.628-.324 1.656-.324 3.675 0 2.018.324 3.655.324 1.638.78 2.647.458 1.01.934 1.637.476.629.8 1.01.323.38.323.4 0 .17-.286.17h-.304l-.533-.456q-1.79-1.619-2.609-4.037t-.819-5.026zM259.922-310.18q-.133-.133-.133-.19 0-.076.057-.305.057-.228.095-.266.038-.096.172-.096.133 0 .97-.019h1.01l.362-1.523q.057-.21.133-.552.076-.343.133-.495.057-.152.114-.38.057-.23.153-.324.095-.096.19-.229t.267-.171q.171-.038.342-.038.343.019.476.21.134.19.134.36 0 .134-.172.896-.171.761-.38 1.504l-.191.704q0 .038.952.038h.971q.133.134.133.21 0 .419-.247.666h-2.037l-.686 2.761q-.742 3.047-.742 3.275 0 .8.514.8.666 0 1.294-.648.629-.647 1.01-1.599.038-.114.095-.133.057-.02.285-.038h.076q.286 0 .286.152 0 .057-.057.228-.095.305-.343.724-.247.419-.647.895-.4.476-.971.8-.571.323-1.162.323-.57 0-1.085-.285-.514-.286-.742-.99-.039-.153-.039-.515v-.342l.667-2.666q.666-2.685.685-2.704 0-.038-.97-.038zM267.598-307.857q.754-1.09 2.06-1.09.646 0 1.292.35t1.05 1.238q.498 1.117.498 3.07 0 2.086-.579 3.19-.269.565-.74.902-.471.336-.821.417-.35.08-.687.094-.35 0-.7-.08-.35-.082-.82-.431-.472-.35-.741-.902-.58-1.104-.58-3.19 0-2.343.768-3.568zm3.029-.161q-.404-.431-.956-.431-.565 0-.969.43-.337.35-.444.97-.108.619-.108 2.584 0 2.127.108 2.8.107.673.484 1.064.377.404.93.404.538 0 .915-.404.39-.404.484-1.131.094-.727.108-2.733 0-1.952-.108-2.57-.108-.62-.444-.983zM280.238-307.362v-.247q0-.248.266-.381h5.693v-2.856l.02-2.856q.19-.248.361-.248.248 0 .381.286v5.674h5.674q.286.152.286.38 0 .23-.286.381h-5.674v5.674q-.152.267-.343.267h-.076q-.228 0-.343-.267v-5.673h-5.693q-.266-.134-.266-.381zM300.84-315.854q.018 0 1.37-.095t1.39-.114q.228 0 .228.171 0 .21-.685 2.875-.723 2.818-.723 2.875 0 .038.133-.095 1.161-1.028 2.475-1.028 1.028 0 1.656.514.629.514.648 1.504 0 .971-.724 3.009-.723 2.037-.723 2.437.019.266.095.361.076.096.286.096.533 0 .99-.572.457-.57.742-1.56.057-.21.114-.248.058-.038.305-.038.38 0 .38.152 0 .019-.075.285-.305 1.124-.971 1.847-.648.82-1.543.82h-.095q-.895 0-1.295-.515-.4-.514-.4-1.085 0-.305.686-2.247t.705-2.913q0-1.123-.838-1.123h-.095q-1.58 0-2.742 1.865l-.133.248-.648 2.57q-.61 2.476-.704 2.704-.248.514-.838.514-.267 0-.457-.171-.19-.172-.21-.343 0-.267 1.39-5.788l1.41-5.636q0-.247-.134-.305-.133-.057-.742-.095h-.4q-.114-.114-.114-.152 0-.038.038-.362.095-.362.247-.362zM310.34-317.11l.076-.02H310.836l.532.458q1.79 1.618 2.609 4.036.819 2.418.819 5.027 0 1.294-.19 2.494-.191 1.2-.439 2.037-.247.838-.704 1.676-.457.838-.724 1.275-.266.438-.78.972-.515.533-.61.628-.095.095-.438.362l-.076.076h-.438q-.057 0-.095-.057t-.057-.172q.019-.019.21-.247 2.95-3.066 2.95-9.044 0-5.979-2.95-9.044-.191-.229-.21-.248 0-.152.095-.21zM336.025-303.401q0 .38-.4.38-.095 0-.419-.304-.323-.305-1.79-1.771l-1.98-1.98-1.999 1.999q-2.018 1.98-2.075 2.018-.076.038-.133.038-.153 0-.267-.114-.114-.114-.133-.266 0-.134.266-.42.267-.285 1.79-1.808l1.98-1.98-1.98-1.98q-1.542-1.543-1.79-1.81-.247-.266-.266-.418 0-.171.114-.267.114-.095.286-.095.095 0 .133.02.057.037 2.075 2.017l2 2 1.98-1.98q1.466-1.467 1.79-1.771.323-.305.418-.305.4 0 .4.38 0 .134-.19.344-.19.209-1.866 1.865l-1.98 2 1.98 1.999q1.6 1.6 1.828 1.847.228.247.228.362z" style="stroke-width:0;stroke-dasharray:none"/><path d="M348.534 307.038h162.221v1.142H348.534z" style="stroke-width:0;stroke-dasharray:none" transform="scale(1 -1)"/><path d="M353.637-318.062q0 .457.876.533.343 0 .343.21 0 .018-.038.247-.058.266-.115.343-.057.076-.247.076h-.229q-.19 0-.647-.02-.457-.018-1.219-.018-1.351 0-1.732.038h-.153q-.133-.133-.133-.21.038-.514.248-.666h.266q1.333-.057 1.942-.952.115-.114 3.447-5.807 3.332-5.693 3.389-5.77.133-.228.457-.228h.476q.114.172.114.19l.533 6.15q.533 6.15.571 6.208.095.209 1.238.209.476 0 .476.19 0 .038-.057.267-.057.286-.096.343-.038.057-.266.076h-.267q-.21 0-.742-.02-.533-.018-1.39-.018-1.79 0-2.342.038h-.229q-.114-.114-.114-.171 0-.057.038-.343.077-.248.115-.305l.076-.057h.38q1.029-.057 1.22-.324l-.23-2.856h-4.53l-.648 1.105q-.78 1.314-.78 1.542zm5.864-3.542q0-.21-.228-2.97-.229-2.76-.267-2.78l-.514.819q-.304.514-1.2 2.037l-1.713 2.894 1.961.02q1.961 0 1.961-.02zM366.436-321.863q0-.323.256-.565.256-.242.592-.256.242 0 .404.162.162.161.175.403 0 .31-.27.566-.268.256-.592.269-.201 0-.376-.135-.175-.134-.189-.444zm-2.194 4.214q0-.108.121-.418t.323-.686q.202-.377.592-.687.39-.31.808-.296.525 0 .875.31t.364.834q0 .23-.189.754-.188.525-.538 1.414-.35.888-.566 1.52-.067.297-.067.431 0 .337.229.337.12 0 .256-.04.134-.04.31-.189.174-.148.363-.471.188-.323.336-.794.04-.162.067-.189.027-.027.23-.027.268 0 .268.135 0 .108-.12.417-.122.31-.337.687-.216.377-.606.673-.39.296-.835.296-.43 0-.794-.283-.363-.282-.377-.861 0-.229.068-.43.067-.203.578-1.536.512-1.36.593-1.628.08-.27.094-.525 0-.323-.229-.323h-.027q-.404 0-.74.444-.337.444-.512 1.13-.013.014-.027.041-.013.027-.013.04 0 .014-.027.027-.027.014-.04.014h-.35q-.081-.081-.081-.121zM372.296-321.413q0-1.314.19-2.495.191-1.18.439-2.037.247-.857.704-1.675.457-.82.724-1.276.266-.457.8-.99.532-.533.628-.647.095-.115.476-.4h.323q.267 0 .267.171 0 .057-.324.4-.323.343-.78 1.009-.457.666-.933 1.637-.476.972-.8 2.628-.324 1.656-.324 3.675 0 2.018.324 3.655.324 1.638.78 2.647.458 1.01.934 1.637.476.629.8 1.01.323.38.323.4 0 .17-.286.17h-.304l-.533-.456q-1.79-1.619-2.609-4.037t-.819-5.026zM378.427-323.984q-.133-.133-.133-.19 0-.076.057-.305.057-.228.095-.266.038-.096.172-.096.133 0 .97-.019h1.01l.361-1.523q.058-.21.134-.552.076-.343.133-.495.057-.152.114-.38.057-.23.153-.324.095-.096.19-.229t.267-.171q.17-.038.342-.038.343.019.476.21.134.19.134.36 0 .134-.172.896-.171.761-.38 1.504l-.191.704q0 .038.952.038h.971q.133.134.133.21 0 .419-.247.666h-2.037l-.686 2.761q-.742 3.047-.742 3.275 0 .8.514.8.666 0 1.294-.648.629-.647 1.01-1.599.038-.114.095-.133.057-.02.285-.038h.076q.286 0 .286.152 0 .057-.057.228-.095.305-.343.724-.247.419-.647.895-.4.476-.971.8-.571.323-1.162.323-.57 0-1.085-.285-.514-.286-.742-.99-.039-.153-.039-.515v-.342l.667-2.666q.666-2.685.685-2.704 0-.038-.97-.038zM386.103-321.66q.754-1.091 2.06-1.091.646 0 1.292.35t1.05 1.238q.498 1.117.498 3.07 0 2.086-.579 3.19-.269.565-.74.902-.471.336-.821.417-.35.08-.687.094-.35 0-.7-.08-.35-.082-.82-.431-.472-.35-.741-.902-.58-1.104-.58-3.19 0-2.343.768-3.568zm3.029-.162q-.404-.431-.956-.431-.565 0-.969.43-.337.35-.444.97-.108.619-.108 2.584 0 2.127.108 2.8.107.673.484 1.064.377.404.93.404.538 0 .915-.404.39-.404.484-1.131.094-.727.108-2.733 0-1.952-.108-2.57-.108-.62-.444-.983zM398.743-321.166v-.247q0-.248.266-.381h5.693v-2.856l.02-2.856q.19-.248.361-.248.248 0 .38.286v5.674h5.675q.285.152.285.38 0 .23-.285.381h-5.674v5.674q-.152.267-.343.267h-.076q-.228 0-.343-.267v-5.673h-5.693q-.266-.134-.266-.381zM419.344-329.658q.02 0 1.371-.095 1.352-.095 1.39-.114.228 0 .228.171 0 .21-.685 2.875-.724 2.818-.724 2.875 0 .038.134-.095 1.161-1.028 2.475-1.028 1.028 0 1.656.514.629.514.648 1.504 0 .971-.724 3.009-.723 2.037-.723 2.437.019.266.095.361.076.096.286.096.533 0 .99-.572.457-.57.742-1.56.057-.21.114-.248.058-.038.305-.038.38 0 .38.152 0 .019-.075.285-.305 1.124-.971 1.847-.648.82-1.543.82h-.095q-.895 0-1.295-.515-.4-.514-.4-1.085 0-.305.686-2.247t.705-2.913q0-1.123-.838-1.123h-.095q-1.58 0-2.742 1.865l-.133.248-.648 2.57q-.61 2.476-.704 2.704-.248.514-.838.514-.267 0-.457-.171-.19-.172-.21-.343 0-.267 1.39-5.788l1.41-5.636q0-.247-.134-.305-.133-.057-.742-.095h-.4q-.114-.114-.114-.152 0-.038.038-.362.095-.362.247-.362zM428.864-330.914l.076-.02H429.36l.532.458q1.79 1.618 2.609 4.036.819 2.418.819 5.027 0 1.294-.19 2.494-.191 1.2-.439 2.037-.247.838-.704 1.676-.457.838-.724 1.275-.266.438-.78.971-.515.534-.61.629-.095.095-.438.362l-.076.076h-.438q-.057 0-.095-.057t-.057-.172q.019-.019.21-.247 2.95-3.066 2.95-9.044 0-5.979-2.95-9.044-.191-.229-.21-.248 0-.152.095-.21zM440.955-321.166v-.247q0-.248.266-.381h11.062q.286.152.286.38 0 .23-.286.381h-11.062q-.266-.133-.266-.38zM462.375-318.062q0 .457.875.533.343 0 .343.21 0 .018-.038.247-.057.266-.114.343-.057.076-.248.076h-.228q-.19 0-.648-.02-.457-.018-1.218-.018-1.352 0-1.733.038h-.152q-.133-.133-.133-.21.038-.514.247-.666h.267q1.332-.057 1.942-.952.114-.114 3.446-5.807 3.332-5.693 3.39-5.77.132-.228.456-.228h.476q.114.172.114.19l.533 6.15q.534 6.15.572 6.208.095.209 1.237.209.476 0 .476.19 0 .038-.057.267-.057.286-.095.343-.038.057-.267.076h-.266q-.21 0-.743-.02-.533-.018-1.39-.018-1.79 0-2.342.038h-.228q-.114-.114-.114-.171 0-.057.038-.343.076-.248.114-.305l.076-.057h.381q1.028-.057 1.219-.324l-.229-2.856h-4.531l-.648 1.105q-.78 1.314-.78 1.542zm5.864-3.542q0-.21-.229-2.97-.228-2.76-.266-2.78l-.514.819q-.305.514-1.2 2.037l-1.713 2.894 1.96.02q1.962 0 1.962-.02zM475.174-321.863q0-.323.255-.565.256-.242.593-.256.242 0 .403.162.162.161.175.403 0 .31-.269.566-.269.256-.592.269-.202 0-.377-.135-.175-.134-.188-.444zm-2.195 4.214q0-.108.121-.418.122-.31.324-.686.201-.377.592-.687.39-.31.808-.296.525 0 .874.31.35.31.364.834 0 .23-.189.754-.188.525-.538 1.414-.35.888-.565 1.52-.068.297-.068.431 0 .337.23.337.12 0 .255-.04t.31-.189q.175-.148.363-.471.189-.323.337-.794.04-.162.067-.189.027-.027.229-.027.269 0 .269.135 0 .108-.121.417-.121.31-.337.687-.215.377-.606.673-.39.296-.834.296-.43 0-.794-.283-.364-.282-.377-.861 0-.229.067-.43.067-.203.579-1.536.511-1.36.592-1.628.081-.27.094-.525 0-.323-.228-.323h-.027q-.404 0-.74.444-.337.444-.512 1.13-.014.014-.027.041-.014.027-.014.04 0 .014-.027.027-.026.014-.04.014h-.35q-.08-.081-.08-.121zM481.053-321.413q0-1.314.19-2.495.19-1.18.438-2.037t.705-1.675q.457-.82.723-1.276.267-.457.8-.99.533-.533.628-.647.095-.115.476-.4h.324q.266 0 .266.171 0 .057-.323.4-.324.343-.78 1.009-.458.666-.934 1.637-.476.972-.8 2.628-.323 1.656-.323 3.675 0 2.018.323 3.655.324 1.638.781 2.647.457 1.01.933 1.637.476.629.8 1.01.323.38.323.4 0 .17-.285.17h-.305l-.533-.456q-1.79-1.619-2.608-4.037-.82-2.418-.82-5.026zM487.165-323.984q-.134-.133-.134-.19 0-.076.057-.305.058-.228.096-.266.038-.096.171-.096t.971-.019h1.01l.36-1.523q.058-.21.134-.552.076-.343.133-.495.058-.152.115-.38.057-.23.152-.324.095-.096.19-.229.096-.133.267-.171.171-.038.343-.038.342.019.476.21.133.19.133.36 0 .134-.171.896-.172.761-.381 1.504l-.19.704q0 .038.951.038h.971q.134.134.134.21 0 .419-.248.666h-2.037l-.685 2.761q-.743 3.047-.743 3.275 0 .8.514.8.666 0 1.295-.648.628-.647 1.009-1.599.038-.114.095-.133.057-.02.286-.038h.076q.285 0 .285.152 0 .057-.057.228-.095.305-.342.724-.248.419-.648.895-.4.476-.97.8-.572.323-1.162.323-.571 0-1.085-.285-.515-.286-.743-.99-.038-.153-.038-.515v-.342l.666-2.666q.667-2.685.686-2.704 0-.038-.971-.038zM494.84-321.66q.754-1.091 2.06-1.091.646 0 1.292.35.647.35 1.05 1.238.498 1.117.498 3.07 0 2.086-.578 3.19-.27.565-.74.902-.472.336-.822.417-.35.08-.686.094-.35 0-.7-.08-.35-.082-.822-.431-.47-.35-.74-.902-.579-1.104-.579-3.19 0-2.343.768-3.568zm3.03-.162q-.404-.431-.956-.431-.566 0-.97.43-.336.35-.444.97-.108.619-.108 2.584 0 2.127.108 2.8t.485 1.064q.377.404.929.404.538 0 .915-.404.39-.404.485-1.131.094-.727.107-2.733 0-1.952-.107-2.57-.108-.62-.445-.983zM503.349-330.914l.076-.02H503.844l.533.458q1.79 1.618 2.608 4.036.819 2.418.819 5.027 0 1.294-.19 2.494-.19 1.2-.438 2.037-.248.838-.705 1.676-.457.838-.723 1.275-.267.438-.78.971-.515.534-.61.629-.095.095-.438.362l-.076.076h-.439q-.056 0-.094-.057-.039-.057-.058-.172.02-.019.21-.247 2.951-3.066 2.951-9.044 0-5.979-2.951-9.044-.19-.229-.21-.248 0-.152.096-.21zM426.77-302.792q.019 0 1.37-.095 1.352-.096 1.39-.115.229 0 .229.172 0 .21-.685 2.875-.724 2.818-.724 2.875 0 .038.133-.095 1.162-1.029 2.476-1.029 1.028 0 1.656.515.628.514.647 1.504 0 .97-.723 3.008-.724 2.037-.724 2.437.02.267.096.362.076.095.285.095.533 0 .99-.571.457-.571.743-1.561.057-.21.114-.248.057-.038.305-.038.38 0 .38.152 0 .02-.076.286-.304 1.123-.97 1.847-.648.819-1.543.819h-.095q-.895 0-1.295-.515-.4-.514-.4-1.085 0-.304.686-2.247.685-1.942.704-2.913 0-1.123-.838-1.123h-.095q-1.58 0-2.742 1.866l-.133.247-.647 2.57q-.61 2.476-.705 2.704-.247.515-.837.515-.267 0-.457-.172-.19-.171-.21-.343 0-.266 1.39-5.788l1.409-5.636q0-.247-.133-.304-.134-.057-.743-.095h-.4q-.114-.115-.114-.153 0-.038.038-.361.095-.362.248-.362zM532.46-303.401q0 .38-.4.38-.094 0-.418-.304-.324-.305-1.79-1.771l-1.98-1.98-2 1.999q-2.017 1.98-2.074 2.018-.077.038-.134.038-.152 0-.266-.114-.115-.114-.134-.266 0-.134.267-.42.267-.285 1.79-1.808l1.98-1.98-1.98-1.98q-1.542-1.543-1.79-1.81-.247-.266-.267-.418 0-.171.115-.267.114-.095.285-.095.096 0 .134.02.057.037 2.075 2.017l2 2 1.98-1.98q1.465-1.467 1.79-1.771.323-.305.418-.305.4 0 .4.38 0 .134-.19.344-.191.209-1.867 1.865l-1.98 2 1.98 1.999q1.6 1.6 1.828 1.847.229.247.229.362zM546.646-304.258q0 .457.875.533.343 0 .343.21 0 .018-.038.247-.057.266-.114.343-.057.076-.248.076h-.228q-.19 0-.648-.02-.457-.018-1.218-.018-1.352 0-1.733.038h-.152q-.133-.133-.133-.21.038-.514.247-.666h.267q1.333-.057 1.942-.952.114-.114 3.446-5.807 3.332-5.693 3.39-5.77.132-.228.456-.228h.476q.114.172.114.19l.533 6.15q.534 6.15.572 6.208.095.209 1.237.209.476 0 .476.19 0 .038-.057.267-.057.286-.095.343-.038.057-.267.076h-.266q-.21 0-.743-.02-.533-.018-1.39-.018-1.79 0-2.342.038h-.228q-.114-.114-.114-.171 0-.057.038-.343.076-.248.114-.305l.076-.057h.381q1.028-.057 1.219-.324l-.229-2.856h-4.531l-.648 1.105q-.78 1.314-.78 1.542zm5.864-3.542q0-.21-.229-2.97-.228-2.76-.266-2.78l-.514.819q-.305.514-1.2 2.037l-1.713 2.894 1.96.02q1.962 0 1.962-.02zM559.442-308.07q0-.323.256-.565.256-.243.592-.256.243 0 .404.161.162.162.175.404 0 .31-.27.566-.268.255-.591.269-.202 0-.377-.135-.175-.134-.189-.444zm-2.194 4.213q0-.107.121-.417t.323-.687q.202-.376.592-.686.39-.31.808-.296.525 0 .875.31.35.309.364.834 0 .229-.189.754-.188.525-.538 1.413-.35.889-.566 1.521-.067.297-.067.431 0 .337.229.337.121 0 .256-.04.134-.041.31-.19.174-.147.363-.47.188-.323.336-.795.04-.161.067-.188.027-.027.23-.027.269 0 .269.135 0 .107-.122.417-.12.31-.336.687-.216.376-.606.673-.39.296-.834.296-.431 0-.795-.283-.363-.283-.377-.861 0-.23.068-.431.067-.202.579-1.535.511-1.36.592-1.629.08-.269.094-.525 0-.323-.229-.323h-.027q-.404 0-.74.445-.337.444-.512 1.13-.013.014-.027.04-.013.028-.013.041 0 .014-.027.027-.027.014-.04.014h-.35q-.081-.081-.081-.122zM562.363-303.184v-.175q0-.175.189-.269h4.025v-2.019l.013-2.02q.135-.174.256-.174.175 0 .27.202v4.011h4.01q.202.108.202.27 0 .16-.201.269h-4.012v4.011q-.108.189-.242.189h-.054q-.162 0-.242-.189v-4.011h-4.025q-.189-.095-.189-.27zM574.963-307.774l-.175.067q-.188.068-.538.135-.35.067-.781.094h-.256v-.619h.256q.632-.027 1.17-.202.54-.175.755-.323.215-.148.377-.296.027-.04.161-.04.121 0 .229.08v4.025l.014 4.039q.094.094.161.12.067.028.323.055.256.026.835.026h.35v.62h-.148q-.283-.04-2.14-.04-1.831 0-2.114.04h-.162v-.62h.862q.215 0 .336-.013.122-.014.216-.04.094-.027.108-.027.013 0 .08-.068.068-.067.081-.054zM582.536-307.61q0-1.313.19-2.494.19-1.18.438-2.037t.705-1.675q.457-.82.723-1.276.267-.457.8-.99.533-.533.628-.647.095-.115.476-.4h.324q.267 0 .267.171 0 .057-.324.4t-.78 1.009q-.458.666-.934 1.637-.476.971-.8 2.628-.323 1.656-.323 3.675 0 2.018.324 3.655.323 1.638.78 2.647.457 1.01.933 1.637.476.629.8 1.01.324.38.324.4 0 .17-.286.17h-.305l-.533-.456q-1.79-1.619-2.608-4.037-.819-2.418-.819-5.026zM588.667-310.18q-.133-.133-.133-.19 0-.076.057-.305.057-.228.095-.266.038-.096.171-.096.134 0 .971-.019h1.01l.361-1.523q.057-.21.133-.552.077-.343.134-.495.057-.152.114-.38.057-.23.152-.324.095-.096.19-.229.096-.133.267-.171.172-.038.343-.038.343.019.476.21.133.19.133.36 0 .134-.171.896-.171.761-.38 1.504l-.191.704q0 .038.952.038h.97q.134.134.134.21 0 .419-.248.666h-2.037l-.685 2.761q-.743 3.047-.743 3.275 0 .8.514.8.667 0 1.295-.648.628-.647 1.01-1.599.037-.114.094-.133.057-.02.286-.038h.076q.286 0 .286.152 0 .057-.057.228-.096.305-.343.724-.248.419-.647.895-.4.476-.971.8-.572.323-1.162.323-.571 0-1.085-.285-.514-.286-.743-.99-.038-.153-.038-.515v-.342l.667-2.666q.666-2.685.685-2.704 0-.038-.971-.038zM596.343-307.857q.754-1.09 2.06-1.09.646 0 1.292.35t1.05 1.238q.498 1.117.498 3.07 0 2.086-.58 3.19-.268.565-.74.902-.47.336-.82.417-.35.08-.687.094-.35 0-.7-.08-.35-.082-.821-.431-.471-.35-.74-.902-.58-1.104-.58-3.19 0-2.343.768-3.568zm3.029-.161q-.404-.431-.956-.431-.566 0-.97.43-.336.35-.444.97-.107.619-.107 2.584 0 2.127.107 2.8.108.673.485 1.064.377.404.929.404.538 0 .915-.404.39-.404.485-1.131.094-.727.108-2.733 0-1.952-.108-2.57-.108-.62-.444-.983zM604.832-317.11l.076-.02H605.327l.533.458q1.79 1.618 2.608 4.036.82 2.418.82 5.027 0 1.294-.191 2.494-.19 1.2-.438 2.037-.248.838-.705 1.676-.457.838-.723 1.275-.267.438-.78.972-.515.533-.61.628-.095.095-.438.362l-.076.076h-.439q-.056 0-.094-.057t-.057-.172q.019-.019.21-.247 2.95-3.066 2.95-9.044 0-5.979-2.95-9.044-.191-.229-.21-.248 0-.152.095-.21zM630.517-303.401q0 .38-.4.38-.095 0-.419-.304-.324-.305-1.79-1.771l-1.98-1.98-2 1.999q-2.017 1.98-2.074 2.018-.077.038-.134.038-.152 0-.266-.114-.114-.114-.134-.266 0-.134.267-.42.267-.285 1.79-1.808l1.98-1.98-1.98-1.98q-1.542-1.543-1.79-1.81-.247-.266-.267-.418 0-.171.115-.267.114-.095.285-.095.096 0 .134.02.057.037 2.075 2.017l2 2 1.98-1.98q1.465-1.467 1.79-1.771.323-.305.418-.305.4 0 .4.38 0 .134-.19.344-.191.209-1.867 1.865l-1.98 2 1.98 1.999q1.6 1.6 1.828 1.847.229.247.229.362zM642.226-307.61q0-.456.324-.799t.819-.343q.457 0 .8.305.342.305.361.819 0 .476-.323.818-.324.343-.82.343-.494 0-.818-.324-.324-.323-.343-.818zm8.511 0q0-.456.324-.799t.819-.343q.457 0 .8.305.342.305.361.819 0 .476-.324.818-.323.343-.818.343-.495 0-.819-.324-.324-.323-.343-.818zm8.511 0q0-.456.324-.799.323-.343.819-.343.457 0 .8.305.342.305.361.819 0 .476-.324.818-.323.343-.818.343-.495 0-.82-.324-.323-.323-.342-.818zM682.458-303.401q0 .38-.4.38-.095 0-.419-.304-.323-.305-1.79-1.771l-1.98-1.98-1.999 1.999q-2.018 1.98-2.075 2.018-.076.038-.134.038-.152 0-.266-.114-.114-.114-.133-.266 0-.134.266-.42.267-.285 1.79-1.808l1.98-1.98-1.98-1.98q-1.542-1.543-1.79-1.81-.247-.266-.266-.418 0-.171.114-.267.114-.095.285-.095.096 0 .134.02.057.037 2.075 2.017l2 2 1.98-1.98q1.465-1.467 1.79-1.771.323-.305.418-.305.4 0 .4.38 0 .134-.19.344-.19.209-1.866 1.865l-1.98 2 1.98 1.999q1.599 1.6 1.827 1.847.229.247.229.362zM696.662-304.258q0 .457.876.533.342 0 .342.21 0 .018-.038.247-.057.266-.114.343-.057.076-.248.076h-.228q-.19 0-.647-.02-.457-.018-1.219-.018-1.352 0-1.733.038h-.152q-.133-.133-.133-.21.038-.514.247-.666h.267q1.333-.057 1.942-.952.114-.114 3.446-5.807 3.332-5.693 3.39-5.77.133-.228.456-.228h.476q.115.172.115.19l.533 6.15q.533 6.15.57 6.208.096.209 1.238.209.476 0 .476.19 0 .038-.057.267-.057.286-.095.343-.038.057-.266.076h-.267q-.21 0-.743-.02-.533-.018-1.39-.018-1.79 0-2.341.038h-.229q-.114-.114-.114-.171 0-.057.038-.343.076-.248.114-.305l.076-.057h.381q1.028-.057 1.219-.324l-.229-2.856h-4.531l-.648 1.105q-.78 1.314-.78 1.542zm5.864-3.542q0-.21-.228-2.97-.229-2.76-.267-2.78l-.514.819q-.305.514-1.2 2.037l-1.713 2.894 1.96.02q1.962 0 1.962-.02zM707.267-303.845q.013-.081.04-.216.027-.134.161-.511.135-.377.27-.633.134-.256.444-.498t.62-.229q.484 0 .807.242.323.243.404.458.08.215.08.283 0 .027.014.027l.148-.148q.821-.862 1.871-.862.727 0 1.171.363.444.364.458 1.064.013.7-.512 2.113-.525 1.414-.511 1.71 0 .35.229.35.08 0 .12-.014.391-.067.7-.511.31-.444.472-1.077.027-.108.27-.108.268 0 .268.108 0 .013-.053.202-.108.39-.296.767-.189.377-.62.754-.43.377-.929.363-.632 0-.915-.363-.283-.363-.283-.754 0-.256.485-1.615.485-1.36.498-2.046 0-.794-.592-.794h-.068q-1.157 0-1.951 1.36l-.095.16-.444 1.804q-.444 1.764-.511 1.899-.175.363-.58.363-.174 0-.282-.08-.108-.082-.148-.162-.04-.081-.027-.135 0-.175.512-2.194.511-2.02.538-2.194.014-.068.014-.31 0-.525-.323-.525-.512 0-.849 1.346-.08.27-.08.283-.027.08-.256.08h-.189q-.08-.08-.08-.12zM718.767-307.61q0-1.313.19-2.494.191-1.18.439-2.037.247-.857.704-1.675.457-.82.723-1.276.267-.457.8-.99.533-.533.628-.647.096-.115.476-.4h.324q.267 0 .267.171 0 .057-.324.4t-.78 1.009q-.458.666-.934 1.637-.475.971-.8 2.628-.323 1.656-.323 3.675 0 2.018.324 3.655.324 1.638.78 2.647.457 1.01.933 1.637.476.629.8 1.01.324.38.324.4 0 .17-.286.17h-.304l-.534-.456q-1.79-1.619-2.608-4.037-.819-2.418-.819-5.026zM724.898-310.18q-.133-.133-.133-.19 0-.076.057-.305.057-.228.095-.266.038-.096.171-.096.134 0 .971-.019h1.01l.361-1.523q.057-.21.134-.552.076-.343.133-.495.057-.152.114-.38.057-.23.152-.324.096-.096.19-.229.096-.133.267-.171.172-.038.343-.038.343.019.476.21.133.19.133.36 0 .134-.17.896-.172.761-.382 1.504l-.19.704q0 .038.952.038h.97q.134.134.134.21 0 .419-.247.666H728.4l-.685 2.761q-.743 3.047-.743 3.275 0 .8.514.8.667 0 1.295-.648.629-.647 1.01-1.599.037-.114.095-.133.057-.02.285-.038h.076q.286 0 .286.152 0 .057-.057.228-.095.305-.343.724-.247.419-.647.895-.4.476-.971.8-.571.323-1.162.323-.57 0-1.085-.285-.514-.286-.743-.99-.038-.153-.038-.515v-.342l.667-2.666q.666-2.685.685-2.704 0-.038-.97-.038zM732.574-307.857q.754-1.09 2.06-1.09.646 0 1.292.35t1.05 1.238q.498 1.117.498 3.07 0 2.086-.579 3.19-.27.565-.74.902-.471.336-.821.417-.35.08-.687.094-.35 0-.7-.08-.35-.082-.821-.431-.471-.35-.74-.902-.58-1.104-.58-3.19 0-2.343.768-3.568zm3.029-.161q-.404-.431-.956-.431-.565 0-.97.43-.336.35-.443.97-.108.619-.108 2.584 0 2.127.108 2.8.107.673.484 1.064.377.404.93.404.538 0 .914-.404.39-.404.485-1.131.094-.727.108-2.733 0-1.952-.108-2.57-.108-.62-.444-.983zM741.063-317.11l.076-.02H741.56l.532.458q1.79 1.618 2.609 4.036.818 2.418.818 5.027 0 1.294-.19 2.494-.19 1.2-.438 2.037-.247.838-.704 1.676-.457.838-.724 1.275-.266.438-.78.972-.515.533-.61.628-.095.095-.438.362l-.076.076h-.438q-.057 0-.095-.057t-.057-.172q.019-.019.21-.247 2.95-3.066 2.95-9.044 0-5.979-2.95-9.044-.191-.229-.21-.248 0-.152.095-.21z" style="stroke-width:0;stroke-dasharray:none"/><g style="display:inline"><path d="M50.87 68.969h271.587" style="fill:#ff8080;fill-opacity:1;stroke:#ff8080;stroke-width:4;stroke-dasharray:none;stroke-dashoffset:1.02"/><path fill="#fed341" stroke="#000" stroke-width="1.2" d="m67.395 89.642.02-11.706-4.39-.009 8.208-8.178 8.18 8.21-4.39-.009-.02 11.705-3.804-.007zM144.751 89.642l.02-11.706-4.39-.009 8.208-8.178 8.18 8.21-4.39-.009-.02 11.705-3.803-.007zM222.108 89.642l.02-11.706-4.39-.009 8.207-8.178 8.18 8.21-4.39-.009-.019 11.705-3.804-.007zM299.464 89.642l.02-11.706-4.39-.009 8.208-8.178 8.18 8.21-4.39-.009-.02 11.705-3.804-.007z" style="display:inline"/></g></svg>