<svg xmlns="http://www.w3.org/2000/svg" width="500" height="270"><g transform="translate(99.504 -346.232)"><ellipse cx="118.462" cy="466.74" rx="9.002" ry="8.766" style="fill:#fcff80;fill-opacity:1;stroke:#000;stroke-width:.986833;stroke-dasharray:none;stroke-opacity:1"/><path d="M120.53 471.246q0 .112-.31.112H119.516q-.534-.014-1.083-.014-.972 0-1.24.014-.267.014-.421.014-.338 0-.338-.126t.197-.126q.31 0 .661-.014.437-.014.465-.21.042-.21.042-.881v-6.575q0-.448-.028-.532-.028-.083-.197-.083-.07 0-.915.07-.169.013-.225.013-.17 0-.17-.097 0-.112.17-.126.661-.07 1.337-.392.676-.336 1.084-.783.155-.126.211-.126.113 0 .113.14v.265q-.014.112-.014.252v8.366q0 .503.042.587.056.084.352.098l.323.014.24.014h.21q.198 0 .198.126z" style="font-size:36.4174px;font-family:&quot;Bodoni 72&quot;;-inkscape-font-specification:&quot;Bodoni 72, &quot;;fill:#000;fill-opacity:1;stroke:#000;stroke-width:.2;stroke-dasharray:none"/></g><g transform="translate(-12.8 -297.939)"><ellipse cx="152.862" cy="466.74" rx="9.002" ry="8.766" style="fill:#8dff80;fill-opacity:1;stroke:#000;stroke-width:.986833;stroke-dasharray:none;stroke-opacity:1"/><path d="M156.044 468.749q0 .042-.028.223-.07.462-.225 2.28l-.014.169q-1.45-.07-3.308-.07-1 0-1.873.028-.872.028-.76.028-.38 0-.38-.14 0-.112.732-.7 1.76-1.427 2.506-2.322 1.295-1.553 1.295-3.651 0-1.413-.591-2.14-.45-.56-1.267-.56-.803 0-1.267.49-.366.377-.366.755 0 .238.38.252.985.042.985.853 0 .77-.816.77-.521 0-.83-.322-.31-.322-.31-.882 0-1.035.732-1.664.732-.63 1.928-.63 1.197 0 1.985.756.915.88.915 2.294 0 1.553-1.042 2.868-1.041 1.3-3.505 2.84.93-.029 2.337-.029 1.168 0 1.478-.028.31-.042.549-.181.197-.126.338-.938.098-.56.281-.56.141 0 .141.21z" style="font-size:36.4174px;font-family:&quot;Bodoni 72&quot;;-inkscape-font-specification:&quot;Bodoni 72, &quot;;fill:#000;fill-opacity:1;stroke:#000;stroke-width:.2;stroke-dasharray:none;stroke-opacity:1"/></g><g transform="translate(71.067 -225.525)"><ellipse cx="179.883" cy="466.74" rx="9.002" ry="8.766" style="fill:#80edff;fill-opacity:1;stroke:#000;stroke-width:.986833;stroke-dasharray:none;stroke-opacity:1"/><path d="M183.273 468.956q0 1.161-.943 1.987-1.042.91-2.66.91-1.324 0-1.943-.616-.394-.392-.394-.896 0-.433.267-.685.282-.266.746-.266.366 0 .606.21t.24.531q0 .49-.663.77-.267.112-.267.224 0 .181.366.335.366.14.802.14 1.07 0 1.732-.727.675-.728.675-1.903 0-2.364-2.14-2.364-.21 0-.309.014h-.098q-.183 0-.183-.126 0-.098.338-.154.985-.14 1.52-.713.535-.588.535-1.497 0-.895-.465-1.427-.464-.545-1.253-.545-.577 0-1.013.251-.422.238-.422.56 0 .126.197.168.929.224.929.77 0 .713-.746.713-.479 0-.775-.28-.281-.28-.281-.742 0-.755.647-1.259.662-.517 1.83-.517 1.338 0 2.041.685.704.686.704 1.595 0 1.26-1.196 1.86-.423.21-1.366.35v.098q1.169.042 1.887.518 1.055.7 1.055 2.028z" style="font-size:36.4174px;font-family:&quot;Bodoni 72&quot;;-inkscape-font-specification:&quot;Bodoni 72, &quot;;fill:#000;stroke:#000;stroke-width:.2;stroke-dasharray:none"/></g><g transform="translate(134.408 -299.69)"><ellipse cx="225.783" cy="466.74" rx="9.002" ry="8.766" style="fill:#80beff;fill-opacity:1;stroke:#000;stroke-width:.986833;stroke-dasharray:none;stroke-opacity:1"/><path d="M228.749 469.725q0 .14-.14.14-.128 0-.17-.154-.028-.168-.098-.881-.028-.112-.113-.168-.169-.098-.746-.098-.155 0-.296.014l.014 2.196q.07.168.226.21.169.042.802.042.31 0 .366.056.014.028.014.084 0 .098-.563.098t-3.153.028q-.14.014-.31.014-.281 0-.281-.14t.408-.126q.479.014.873-.056.169-.028.21-.14.043-.126.043-.532v-1.692q-.281-.014-.647-.014h-.578q-.197 0-.436.014h-.267l-1.788-.042q-.197-.014-.197-.112 0-.07 2.069-2.896.648-.91 2.858-4 .098-.14.197-.14.14 0 .14.265v6.575h.141q.479 0 .746-.056.282-.056.282-.28-.014-.881-.014-.601.014-.504.154-.504.198 0 .198.392v.63l.014 1.007q.014.517.028.657.014.126.014.21zm-2.83-6.24q-.14.225-.59.854-.62.853-1.873 2.546l-1 1.357q.521.042 2.239.042.605 0 1.14-.014v-.993q0-.7.042-1.889.042-1.399.042-1.902z" style="font-size:36.4174px;font-family:&quot;Bodoni 72&quot;;-inkscape-font-specification:&quot;Bodoni 72, &quot;;fill:#000;fill-opacity:1;stroke:#000;stroke-width:.2;stroke-dasharray:none;stroke-opacity:1"/></g><g transform="translate(46.567 -345.482)"><ellipse cx="242.439" cy="466.74" rx="9.002" ry="8.766" style="fill:#b580ff;fill-opacity:1;stroke:#000;stroke-width:.986833;stroke-dasharray:none;stroke-opacity:1"/><path d="M245.394 468.366q0 1.79-1.38 2.742-.83.573-2.153.573t-1.942-.685q-.338-.378-.338-.895 0-.434.281-.7.282-.28.732-.28.366 0 .606.21.253.21.253.518 0 .517-.69.783-.31.112-.31.252 0 .224.409.406.422.168.929.168.985 0 1.478-.672.675-.923.675-2.49 0-1.147-.534-1.777-.535-.63-1.52-.63-.76 0-1.676.574.085-3.147.127-3.973.014-.475.211-.573.197-.112 1.07-.112h.478q.338.014.535.014h.479q.971 0 1.126-.028.169-.042.211-.238.057-.322.197-.322.141 0 .141.154 0 .098-.014.154l-.028.322q-.07.783-.296.98-.21.181-1.055.181l-2.69-.014q-.055.476-.098 2.868.803-.364 1.676-.364 1.45 0 2.28.77.83.755.83 2.084z" style="font-size:36.4174px;font-family:&quot;Bodoni 72&quot;;-inkscape-font-specification:&quot;Bodoni 72, &quot;;fill:#000;stroke:#000;stroke-width:.2;stroke-dasharray:none"/></g><g transform="translate(3.24 -428.752)"><ellipse cx="273.804" cy="466.74" rx="9.002" ry="8.766" style="fill:#ec80ff;fill-opacity:1;stroke:#000;stroke-width:.986833;stroke-dasharray:none;stroke-opacity:1"/><path d="M276.571 468.394q0 1.357-.83 2.322-.83.965-1.985.965-1.45 0-2.35-1.189-.901-1.189-.901-3.091 0-1.749.76-3.19.774-1.44 2.055-2.098 1.07-.546 2.337-.546.295 0 .295.112 0 .098-.197.112-1.267.112-2.238.91-1.267 1.035-1.492 3.525.774-.728 1.745-.728.789 0 1.478.42 1.323.797 1.323 2.476zm-1.45.042q0-2.602-1.618-2.602-.732 0-1.126.63-.394.615-.394 1.734 0 1.609.577 2.602.366.63 1.07.63 1.492 0 1.492-2.994z" style="font-size:36.4174px;font-family:&quot;Bodoni 72&quot;;-inkscape-font-specification:&quot;Bodoni 72, &quot;;fill:#000;fill-opacity:1;stroke:#000;stroke-width:.2;stroke-dasharray:none;stroke-opacity:1"/></g><circle cx="248.71" cy="125.468" r=".002" style="fill:#ffa1a1;stroke:#000;stroke-width:.999999"/><g style="stroke-width:.956817"><path d="M48.848 40.505c.86-.142 1.736-.097 2.603-.084 1.438.026 2.876.05 4.314.059 1.453.003 2.906.005 4.358.005l3.919.008c1.073.001 2.147-.002 3.22.017.308.006.617.01.925.02v-1.565c-.308.009-.617.014-.925.02-1.073.019-2.147.015-3.22.016-1.307.002-2.613.007-3.919.01-1.45 0-2.9.002-4.35-.009-1.43-.01-2.861-.019-4.292-.065-.946-.031-1.895-.084-2.84.015l.207 1.552z" style="fill:#fcff80;fill-opacity:1;stroke:#000;stroke-width:.278474" transform="matrix(3.9495 -.0171 .0171 3.95063 -14.843 4.903)"/><path d="M52.412 35.779c-.683.603-1.429 1.13-2.166 1.663-.54.396-1.088.77-1.723.99a1.519 1.519 0 0 0-.823.445c-.052.238-.157.47-.154.714.004.382.848.956 1.098 1.15.998.747 2.01 1.475 2.98 2.258.217.196.453.369.673.56l.967-1.225c-.238-.172-.483-.334-.707-.525-.985-.75-1.992-1.473-2.954-2.253-.446-.378-.156-.123-.52-.462l-.064-.056c-.005-.005-.016-.019-.014-.013.155.46.128.06-.086.861-.05.049-.064.069-.122.1-.023.012-.098.027-.074.018.115-.045.24-.063.352-.12.748-.301 1.42-.73 2.06-1.218.763-.558 1.529-1.11 2.28-1.684l-1.003-1.203z" style="fill:#fcff80;fill-opacity:1;stroke:#000;stroke-width:.278474" transform="matrix(3.9495 -.0171 .0171 3.95063 -14.843 4.903)"/></g><g style="stroke-width:.956817"><path d="M49.141 54.146c-.166-.863-.12-1.75-.103-2.624.008-1.344.051-2.806.07-4.15.013-1.461-.023-2.923-.06-4.384-.028-1.105-.083-2.209-.05-3.314l-1.522-.033c-.016 1.131.05 2.26.087 3.39.045 1.437.081 2.876.057 4.314-.03 1.341-.053 2.8-.075 4.141-.03.99-.079 1.988.057 2.973l1.54-.313z" style="fill:#8dff80;fill-opacity:1;stroke:#000;stroke-width:.278474" transform="matrix(3.9495 -.0171 .0171 3.95063 -14.843 3.45)"/><path d="M44.278 51.633c.745.815 1.383 1.721 2.016 2.625.409.625.81 1.256 1.184 1.902.23.416.441.465 1.096.418.235-.016.394-.377.513-.538.479-.721 1.091-1.34 1.684-1.967a46.425 46.425 0 0 0 1.566-1.665l-1.198-.988c-.439.58-.947 1.1-1.45 1.623-.648.675-1.321 1.333-1.878 2.088-.296.42-.008-.014.14-.007.293.016.576.116.856.205.033.01.09.09.056.088-.035-.003-.04-.059-.06-.088-.432-.641-.86-1.286-1.293-1.927-.67-.95-1.345-1.9-2.065-2.814l-1.167 1.044z" style="fill:#8dff80;fill-opacity:1;stroke:#000;stroke-width:.278474" transform="matrix(3.9495 -.0171 .0171 3.95063 -14.843 3.45)"/></g><g style="stroke-width:.956817"><path d="M48.506 56.943c1.464-.264 2.965-.275 4.448-.327 3.54-.054 7.082.014 10.623.053 3.77.061 7.54.037 11.311.036 2.484-.024 4.969.041 7.452.004.503-.01 1.005-.031 1.507-.053l-.12-1.535c-.476.055-.953.096-1.431.12-2.469.114-4.943.085-7.413.134-3.764.031-7.528.032-11.291.005-3.558-.044-7.115-.159-10.673-.177-1.587.023-3.185.014-4.762.218l.349 1.522z" style="fill:#80edff;fill-opacity:1;stroke:#000;stroke-width:.278474" transform="matrix(3.9495 -.0171 .0171 3.95063 -14.843 3.45)"/><path d="M79.931 53.652c.904.326 1.673.954 2.448 1.507.66.51 1.372.955 1.99 1.517l.077.076c.118.121-.04-.011-.03-.037.172-.414.391-.805.587-1.208-1.14.216-2.17.865-3.116 1.51-.502.373-1 .758-1.437 1.208l1.166 1.056c.318-.4.735-.712 1.126-1.034.693-.493 1.487-1.024 2.342-1.16.686-1.23.977-1.025.293-1.6-.685-.548-1.434-1.005-2.134-1.533-.92-.663-1.82-1.407-2.891-1.812l-.421 1.51z" style="fill:#80edff;fill-opacity:1;stroke:#000;stroke-width:.278474" transform="matrix(3.9495 -.0171 .0171 3.95063 -14.843 3.45)"/></g><g style="stroke-width:.956817"><path d="M85.43 55.976c-.04-1.402-.047-2.806-.056-4.209-.037-2.197.084-4.39.185-6.583.073-1.582.115-3.166.156-4.75.014-.512.006-.278.022-.701l-1.553-.017c.009.417.005.186.01.69a110.8 110.8 0 0 1-.093 4.688c-.093 2.223-.2 4.446-.185 6.673-.01 1.403-.015 2.807-.055 4.21h1.568z" style="fill:#80beff;fill-opacity:1;stroke:#000;stroke-width:.278474" transform="matrix(3.94844 -.09332 .09329 3.94957 -18.358 9.983)"/><path d="M82.677 44.057a43.984 43.984 0 0 0 2.169-3.568c.185-.361.39-.714.549-1.09.007-.02.045-.066.023-.062-.455.075-.9.206-1.353.284-.019.003-.045-.061-.037-.044.175.369.411.714.63 1.057.677 1.042 1.482 1.991 2.326 2.9-.046-.04.48.489.37.405l1.301-.893c-.168-.215-.37-.392-.572-.576-.805-.794-1.55-1.653-2.136-2.626-.172-.294-.33-.584-.478-.89-.045-.091-.035-.268-.137-.274-1.314-.075-1.629.625-1.417.164-.07.333-.298.626-.408.943-.571 1.14-1.204 2.265-2.016 3.253l1.186 1.017z" style="fill:#80beff;fill-opacity:1;stroke:#000;stroke-width:.278474" transform="matrix(3.94844 -.09332 .09329 3.94957 -18.358 9.983)"/></g><path d="M320.504 155.414c-3.355.52-6.757.556-10.138.651-5.29.29-10.582.22-15.878.352-5.268.133-10.536-.285-15.803-.4-4.94-.27-9.88-.024-14.824-.207-2.129-.078-4.258-.143-6.387-.233l-.012 6.206c2.091-.08 4.184-.067 6.276-.048 4.951.08 9.897-.116 14.845.115 5.347.124 10.694.565 16.042.422 5.285-.142 10.567-.098 15.85-.333 3.615-.056 7.238-.069 10.844-.395l-.815-6.13z" style="fill:#b580ff;fill-opacity:1;stroke:#000;stroke-width:1.1"/><path d="M274.048 170.57c-2.83-2.685-5.881-5.14-8.855-7.666-2.855-2.574-5.877-4.95-9.231-6.835-1.12-.434-1.695-1.433-.523.123.318 2.825.511 1.049-.749 3.473-.028.054.117-.035.174-.057.26-.1.517-.21.78-.304.996-.357 2-.69 2.999-1.042 3.762-1.47 7.41-3.268 10.764-5.526.958-.676 1.908-1.38 2.616-2.323l.331-.644-5.846-2.25.303-.571c.665-.825-.707.88-.919.804-2.777 2.08-5.916 3.643-9.175 4.816-2.284.738-6.2 1.326-7.111 3.958-.242.699.088 1.476.132 2.213.253.38.482.776.759 1.138.605.791 1.756 1.144 2.589 1.592 3.063 1.519 5.73 3.658 8.269 5.932 2.671 2.293 5.396 4.558 7.868 7.065l4.825-3.896z" style="fill:#b580ff;fill-opacity:1;stroke:#000;stroke-width:1.1"/><path d="M253.567 157.174c-.56-5.233-.426-10.534-.27-15.798.408-9.363.563-18.74.653-28.117.085-10.26.097-20.519.122-30.778.016-8.139.047-16.277.063-24.416-.19-7-.31-14.008-.583-21.005-.186-5.79-.594-11.59-.443-17.39.076-1.459.071-1.624.188-2.976.089-1.02-.024-1.224.147-.831l-5.938-2.349c-.335 1.983-.406 3.987-.427 6.02-.011 5.98.38 11.95.594 17.92.255 6.867.381 13.743.586 20.614.02 8.136.058 16.273.073 24.409.018 10.221.025 20.443-.081 30.664-.128 9.298-.324 18.595-.791 27.876-.231 5.72-.39 11.454-.028 17.173l6.135-1.016z" style="fill:#ec80ff;fill-opacity:1;stroke:#000;stroke-width:1.1"/><path d="M238.155 29.795c2.505-2.977 5.106-5.872 7.728-8.746 1.365-1.425 2.67-2.913 4.08-4.296.227-.223.92-.949 1.31-1.068-.143.096-.258.27-.428.288-.834.087-1.708-.206-2.515.02-.442.123.882.284 1.34.308.77.041 1.285-.204 1.916-.558.228-.128-.47.227-.706.34-.615-.004-1.23.016-1.846-.014-.12-.006-.415-.217-.336-.127.77.87 1.652 1.689 2.443 2.541 2.491 2.736 5.103 5.38 7.41 8.277.323.512 2.041 2.564 2.079 3.195.006.108-.11-.186-.165-.279l-.152-1.394 6.183.959-.125-1.57c-.765-1.748-1.945-3.28-3.14-4.756-2.442-2.901-5.127-5.588-7.609-8.457-.868-1-3.025-4.014-4.442-4.261-.689-.12-1.396-.07-2.095-.105-2.106.927-.005-.108.77-.047.4.03 1.566.246 1.168.303-.9.128-1.821-.169-2.726-.08-.274.026-.475.276-.713.414-2.259 1.885-4.002 4.294-6.053 6.388-2.564 2.801-5.12 5.61-7.766 8.333l4.39 4.392z" style="fill:#ec80ff;fill-opacity:1;stroke:#000;stroke-width:1.1"/><path d="M146.144-104.44a3.123 3.123 0 0 1 2.44.11c1.588.68 2.665 2.401 2.41 4.083-.168 1.279-1.18 2.37-2.313 2.937-1.143.562-2.557.816-3.81.388-1.035-.334-1.884-1.239-1.977-2.31-.16-1.507.687-3 1.922-3.882.164-.116.336-.222.515-.315" style="display:inline;fill:none;stroke:#000;stroke-width:1;stroke-dasharray:none;stroke-opacity:1"/><path d="M208.403 142.206c.553.302 1.077.33 1.689.165.116-.028.233-.055.32-.138.029-.027.087-.11.087-.164-.028-.495-1.048-.33-1.339-.247" style="display:inline;fill:none;stroke:#000;stroke-width:.999999;stroke-dasharray:none;stroke-opacity:1"/><path d="M199.489 134.782c1.024-.586 2.161-1.08 3.38-1.18.281-.024.692-.029.974 0 .615.06 1.42.2 1.534.968.116.79-.452 1.415-.985 1.91-.466.433-.863.684-1.389.982.409.064 1.184.195 1.614.373.811.334 1.513.769 1.945 1.45.51.806.17 1.618-.437 2.11-.468.38-1.173.706-1.669.872-1.024.343-2.035.408-3.288.24-.53-.07-1.024-.3-1.37-.445a4.24 4.24 0 0 1-.838-.51" style="display:inline;fill:none;fill-opacity:1;stroke:#000;stroke-width:.999999;stroke-linecap:butt;stroke-linejoin:miter;stroke-miterlimit:4;stroke-dasharray:none;stroke-opacity:1"/><path d="M198.363 139.157h-.425c-.781 0-1.563-.007-2.345-.015a46.448 46.448 0 0 0-2.407.025c-.436.013-.873.024-1.309.034M212.064 141.89c1.38.404 2.81.594 4.208.442 1.049-.113 1.873-.34 2.67-.833.492-.305.656-.853.412-1.326-.51-.99-1.532-1.67-2.551-2.118a7.807 7.807 0 0 0-.784-.281c-.261-.065-.304-.03.013-.12.244-.141.787-.368 1.032-.497.835-.44 1.393-.977 1.657-1.758.13-.382.07-.894-.382-1.183-.647-.413-1.643-.465-2.405-.405a12.297 12.297 0 0 0-4.115 1.062" style="display:inline;fill:none;stroke:#000;stroke-width:.999999;stroke-dasharray:none"/><g style="stroke-width:.192821;stroke-dasharray:none"><path d="M60.34 29.033c.044-.067.093-.132.133-.188.208-.294.41-.591.61-.888a6.29 6.29 0 0 1 .362-.489.03.03 0 0 0 .008-.019c0-.027-.132-.018-.15-.019a19.957 19.957 0 0 0-1.646.002" style="display:inline;fill:none;stroke:#000;stroke-width:.192821;stroke-dasharray:none" transform="matrix(5.12532 0 0 5.24772 -134.103 -178.425)"/><path d="M60.335 28.3c.208-.003.335.01.543.007.076-.001.17.002.215 0 .008 0 .139-.005.158-.008" style="display:inline;fill:#000;stroke:#000;stroke-width:.192821;stroke-dasharray:none" transform="matrix(5.12532 0 0 5.24772 -134.103 -178.425)"/></g><g style="display:inline;stroke-width:4.16869;stroke-dasharray:none"><path d="M-698.623-3366.226c-1.298-.16-2.924.066-4.477.16-6.92.424-11.25.877-18.25 1.137" style="fill:none;stroke:#000;stroke-width:4.16869;stroke-dasharray:none;stroke-opacity:1" transform="matrix(.25367 0 0 .22684 365.59 729.518)"/><path d="M-722.041-3336.057c.11 1.695 2.161 1.931 3.452 2.419 5.983 2.257 12.145 1.713 18.033.343 3.1-.722 6.557-2.392 7.683-5.607 1.097-3.133-.41-6.367-2.215-8.836-3.398-4.652-9.65-7.174-15.36-6.695-1.805.15-3.6.397-5.298 1.144-1.65.725-3.238 1.513-4.567 2.705-.295-.236-.132-1.545-.124-2.32l.124-12.716" style="fill:none;stroke:#000;stroke-width:4.16869;stroke-dasharray:none;stroke-opacity:1" transform="matrix(.25367 0 0 .22684 365.59 729.518)"/></g><path d="M127.31 189.02c1.109 0 2.217.02 3.326.032.938.009 1.876.014 2.815.018h.28" style="display:inline;fill:none;stroke:#000;stroke-width:.999999;stroke-dasharray:none"/><g transform="translate(-257.31 -27.591)"><ellipse cx="118.462" cy="466.74" rx="9.002" ry="8.766" style="fill:#fcff80;fill-opacity:1;stroke:#000;stroke-width:.986833;stroke-dasharray:none;stroke-opacity:1"/><path d="M120.53 471.246q0 .112-.31.112H119.516q-.534-.014-1.083-.014-.972 0-1.24.014-.267.014-.421.014-.338 0-.338-.126t.197-.126q.31 0 .661-.014.437-.014.465-.21.042-.21.042-.881v-6.575q0-.448-.028-.532-.028-.083-.197-.083-.07 0-.915.07-.169.013-.225.013-.17 0-.17-.097 0-.112.17-.126.661-.07 1.337-.392.676-.336 1.084-.783.155-.126.211-.126.113 0 .113.14v.265q-.014.112-.014.252v8.366q0 .503.042.587.056.084.352.098l.323.014.24.014h.21q.198 0 .198.126z" style="font-size:36.4174px;font-family:&quot;Bodoni 72&quot;;-inkscape-font-specification:&quot;Bodoni 72, &quot;;fill:#000;fill-opacity:1;stroke:#000;stroke-width:.2;stroke-dasharray:none"/></g><g transform="translate(-367.81 18.245)"><ellipse cx="152.862" cy="466.74" rx="9.002" ry="8.766" style="fill:#8dff80;fill-opacity:1;stroke:#000;stroke-width:.986833;stroke-dasharray:none;stroke-opacity:1"/><path d="M156.044 468.749q0 .042-.028.223-.07.462-.225 2.28l-.014.169q-1.45-.07-3.308-.07-1 0-1.873.028-.872.028-.76.028-.38 0-.38-.14 0-.112.732-.7 1.76-1.427 2.506-2.322 1.295-1.553 1.295-3.651 0-1.413-.591-2.14-.45-.56-1.267-.56-.803 0-1.267.49-.366.377-.366.755 0 .238.38.252.985.042.985.853 0 .77-.816.77-.521 0-.83-.322-.31-.322-.31-.882 0-1.035.732-1.664.732-.63 1.928-.63 1.197 0 1.985.756.915.88.915 2.294 0 1.553-1.042 2.868-1.041 1.3-3.505 2.84.93-.029 2.337-.029 1.168 0 1.478-.028.31-.042.549-.181.197-.126.338-.938.098-.56.281-.56.141 0 .141.21z" style="font-size:36.4174px;font-family:&quot;Bodoni 72&quot;;-inkscape-font-specification:&quot;Bodoni 72, &quot;;fill:#000;fill-opacity:1;stroke:#000;stroke-width:.2;stroke-dasharray:none;stroke-opacity:1"/></g><g transform="translate(-298.992 81.367)"><ellipse cx="179.883" cy="466.74" rx="9.002" ry="8.766" style="fill:#80edff;fill-opacity:1;stroke:#000;stroke-width:.986833;stroke-dasharray:none;stroke-opacity:1"/><path d="M183.273 468.956q0 1.161-.943 1.987-1.042.91-2.66.91-1.324 0-1.943-.616-.394-.392-.394-.896 0-.433.267-.685.282-.266.746-.266.366 0 .606.21t.24.531q0 .49-.663.77-.267.112-.267.224 0 .181.366.335.366.14.802.14 1.07 0 1.732-.727.675-.728.675-1.903 0-2.364-2.14-2.364-.21 0-.309.014h-.098q-.183 0-.183-.126 0-.098.338-.154.985-.14 1.52-.713.535-.588.535-1.497 0-.895-.465-1.427-.464-.545-1.253-.545-.577 0-1.013.251-.422.238-.422.56 0 .126.197.168.929.224.929.77 0 .713-.746.713-.479 0-.775-.28-.281-.28-.281-.742 0-.755.647-1.259.662-.517 1.83-.517 1.338 0 2.041.685.704.686.704 1.595 0 1.26-1.196 1.86-.423.21-1.366.35v.098q1.169.042 1.887.518 1.055.7 1.055 2.028z" style="font-size:36.4174px;font-family:&quot;Bodoni 72&quot;;-inkscape-font-specification:&quot;Bodoni 72, &quot;;fill:#000;stroke:#000;stroke-width:.2;stroke-dasharray:none"/></g><g transform="translate(-246.987 37.587)"><ellipse cx="225.783" cy="466.74" rx="9.002" ry="8.766" style="fill:#80beff;fill-opacity:1;stroke:#000;stroke-width:.986833;stroke-dasharray:none;stroke-opacity:1"/><path d="M228.749 469.725q0 .14-.14.14-.128 0-.17-.154-.028-.168-.098-.881-.028-.112-.113-.168-.169-.098-.746-.098-.155 0-.296.014l.014 2.196q.07.168.226.21.169.042.802.042.31 0 .366.056.014.028.014.084 0 .098-.563.098t-3.153.028q-.14.014-.31.014-.281 0-.281-.14t.408-.126q.479.014.873-.056.169-.028.21-.14.043-.126.043-.532v-1.692q-.281-.014-.647-.014h-.578q-.197 0-.436.014h-.267l-1.788-.042q-.197-.014-.197-.112 0-.07 2.069-2.896.648-.91 2.858-4 .098-.14.197-.14.14 0 .14.265v6.575h.141q.479 0 .746-.056.282-.056.282-.28-.014-.881-.014-.601.014-.504.154-.504.198 0 .198.392v.63l.014 1.007q.014.517.028.657.014.126.014.21zm-2.83-6.24q-.14.225-.59.854-.62.853-1.873 2.546l-1 1.357q.521.042 2.239.042.605 0 1.14-.014v-.993q0-.7.042-1.889.042-1.399.042-1.902z" style="font-size:36.4174px;font-family:&quot;Bodoni 72&quot;;-inkscape-font-specification:&quot;Bodoni 72, &quot;;fill:#000;fill-opacity:1;stroke:#000;stroke-width:.2;stroke-dasharray:none;stroke-opacity:1"/></g><g transform="translate(-309.087 -18.27)"><ellipse cx="242.439" cy="466.74" rx="9.002" ry="8.766" style="fill:#b580ff;fill-opacity:1;stroke:#000;stroke-width:.986833;stroke-dasharray:none;stroke-opacity:1"/><path d="M245.394 468.366q0 1.79-1.38 2.742-.83.573-2.153.573t-1.942-.685q-.338-.378-.338-.895 0-.434.281-.7.282-.28.732-.28.366 0 .606.21.253.21.253.518 0 .517-.69.783-.31.112-.31.252 0 .224.409.406.422.168.929.168.985 0 1.478-.672.675-.923.675-2.49 0-1.147-.534-1.777-.535-.63-1.52-.63-.76 0-1.676.574.085-3.147.127-3.973.014-.475.211-.573.197-.112 1.07-.112h.478q.338.014.535.014h.479q.971 0 1.126-.028.169-.042.211-.238.057-.322.197-.322.141 0 .141.154 0 .098-.014.154l-.028.322q-.07.783-.296.98-.21.181-1.055.181l-2.69-.014q-.055.476-.098 2.868.803-.364 1.676-.364 1.45 0 2.28.77.83.755.83 2.084z" style="font-size:36.4174px;font-family:&quot;Bodoni 72&quot;;-inkscape-font-specification:&quot;Bodoni 72, &quot;;fill:#000;stroke:#000;stroke-width:.2;stroke-dasharray:none"/></g><g transform="translate(-362.61 -95.627)"><ellipse cx="273.804" cy="466.74" rx="9.002" ry="8.766" style="fill:#ec80ff;fill-opacity:1;stroke:#000;stroke-width:.986833;stroke-dasharray:none;stroke-opacity:1"/><path d="M276.571 468.394q0 1.357-.83 2.322-.83.965-1.985.965-1.45 0-2.35-1.189-.901-1.189-.901-3.091 0-1.749.76-3.19.774-1.44 2.055-2.098 1.07-.546 2.337-.546.295 0 .295.112 0 .098-.197.112-1.267.112-2.238.91-1.267 1.035-1.492 3.525.774-.728 1.745-.728.789 0 1.478.42 1.323.797 1.323 2.476zm-1.45.042q0-2.602-1.618-2.602-.732 0-1.126.63-.394.615-.394 1.734 0 1.609.577 2.602.366.63 1.07.63 1.492 0 1.492-2.994z" style="font-size:36.4174px;font-family:&quot;Bodoni 72&quot;;-inkscape-font-specification:&quot;Bodoni 72, &quot;;fill:#000;fill-opacity:1;stroke:#000;stroke-width:.2;stroke-dasharray:none;stroke-opacity:1"/></g><circle cx="-111.775" cy="438.034" r=".002" style="fill:#ffa1a1;stroke:#000;stroke-width:.999999"/><path d="M48.848 40.505c.86-.142 1.736-.097 2.603-.084 1.438.026 2.876.05 4.314.059 1.453.003 2.906.005 4.358.005l3.919.008c1.073.001 2.147-.002 3.22.017.308.006.617.01.925.02v-1.565c-.308.009-.617.014-.925.02-1.073.019-2.147.015-3.22.016-1.307.002-2.613.007-3.919.01-1.45 0-2.9.002-4.35-.009-1.43-.01-2.861-.019-4.292-.065-.946-.031-1.895-.084-2.84.015l.207 1.552z" style="fill:#fcff80;fill-opacity:1;stroke:#000;stroke-width:.291042" transform="rotate(-.255 74025.74 85374.182) scale(3.77953)"/><path d="M52.412 35.779c-.683.603-1.429 1.13-2.166 1.663-.54.396-1.088.77-1.723.99a1.519 1.519 0 0 0-.823.445c-.052.238-.157.47-.154.714.004.382.848.956 1.098 1.15.998.747 2.01 1.475 2.98 2.258.217.196.453.369.673.56l.967-1.225c-.238-.172-.483-.334-.707-.525-.985-.75-1.992-1.473-2.954-2.253-.446-.378-.156-.123-.52-.462l-.064-.056c-.005-.005-.016-.019-.014-.013.155.46.128.06-.086.861-.05.049-.064.069-.122.1-.023.012-.098.027-.074.018.115-.045.24-.063.352-.12.748-.301 1.42-.73 2.06-1.218.763-.558 1.529-1.11 2.28-1.684l-1.003-1.203z" style="fill:#fcff80;fill-opacity:1;stroke:#000;stroke-width:.291042" transform="rotate(-.255 74025.74 85374.182) scale(3.77953)"/><path d="M49.141 54.146c-.166-.863-.12-1.75-.103-2.624.008-1.344.051-2.806.07-4.15.013-1.461-.023-2.923-.06-4.384-.028-1.105-.083-2.209-.05-3.314l-1.522-.033c-.016 1.131.05 2.26.087 3.39.045 1.437.081 2.876.057 4.314-.03 1.341-.053 2.8-.075 4.141-.03.99-.079 1.988.057 2.973l1.54-.313z" style="fill:#8dff80;fill-opacity:1;stroke:#000;stroke-width:.291042" transform="rotate(-.255 74025.74 85374.182) scale(3.77953)"/><path d="M44.278 51.633c.745.815 1.383 1.721 2.016 2.625.409.625.81 1.256 1.184 1.902.23.416.441.465 1.096.418.235-.016.394-.377.513-.538.479-.721 1.091-1.34 1.684-1.967a46.425 46.425 0 0 0 1.566-1.665l-1.198-.988c-.439.58-.947 1.1-1.45 1.623-.648.675-1.321 1.333-1.878 2.088-.296.42-.008-.014.14-.007.293.016.576.116.856.205.033.01.09.09.056.088-.035-.003-.04-.059-.06-.088-.432-.641-.86-1.286-1.293-1.927-.67-.95-1.345-1.9-2.065-2.814l-1.167 1.044z" style="fill:#8dff80;fill-opacity:1;stroke:#000;stroke-width:.291042" transform="rotate(-.255 74025.74 85374.182) scale(3.77953)"/><path d="M48.506 56.943c1.464-.264 2.965-.275 4.448-.327 3.54-.054 7.082.014 10.623.053 3.77.061 7.54.037 11.311.036 2.484-.024 4.969.041 7.452.004.503-.01 1.005-.031 1.507-.053l-.12-1.535c-.476.055-.953.096-1.431.12-2.469.114-4.943.085-7.413.134-3.764.031-7.528.032-11.291.005-3.558-.044-7.115-.159-10.673-.177-1.587.023-3.185.014-4.762.218l.349 1.522z" style="fill:#80edff;fill-opacity:1;stroke:#000;stroke-width:.291042" transform="rotate(-.255 74025.74 85374.182) scale(3.77953)"/><path d="M79.931 53.652c.904.326 1.673.954 2.448 1.507.66.51 1.372.955 1.99 1.517l.077.076c.118.121-.04-.011-.03-.037.172-.414.391-.805.587-1.208-1.14.216-2.17.865-3.116 1.51-.502.373-1 .758-1.437 1.208l1.166 1.056c.318-.4.735-.712 1.126-1.034.693-.493 1.487-1.024 2.342-1.16.686-1.23.977-1.025.293-1.6-.685-.548-1.434-1.005-2.134-1.533-.92-.663-1.82-1.407-2.891-1.812l-.421 1.51z" style="fill:#80edff;fill-opacity:1;stroke:#000;stroke-width:.291042" transform="rotate(-.255 74025.74 85374.182) scale(3.77953)"/><path d="M85.43 55.976c-.04-1.402-.047-2.806-.056-4.209-.037-2.197.084-4.39.185-6.583.073-1.582.115-3.166.156-4.75.014-.512.006-.278.022-.701l-1.553-.017c.009.417.005.186.01.69a110.8 110.8 0 0 1-.093 4.688c-.093 2.223-.2 4.446-.185 6.673-.01 1.403-.015 2.807-.055 4.21h1.568z" style="fill:#80beff;fill-opacity:1;stroke:#000;stroke-width:.291042" transform="rotate(-1.355 13679.083 15920.314) scale(3.77953)"/><path d="M82.677 44.057a43.984 43.984 0 0 0 2.169-3.568c.185-.361.39-.714.549-1.09.007-.02.045-.066.023-.062-.455.075-.9.206-1.353.284-.019.003-.045-.061-.037-.044.175.369.411.714.63 1.057.677 1.042 1.482 1.991 2.326 2.9-.046-.04.48.489.37.405l1.301-.893c-.168-.215-.37-.392-.572-.576-.805-.794-1.55-1.653-2.136-2.626-.172-.294-.33-.584-.478-.89-.045-.091-.035-.268-.137-.274-1.314-.075-1.629.625-1.417.164-.07.333-.298.626-.408.943-.571 1.14-1.204 2.265-2.016 3.253l1.186 1.017z" style="fill:#80beff;fill-opacity:1;stroke:#000;stroke-width:.291042" transform="rotate(-1.355 13679.083 15920.314) scale(3.77953)"/><path d="M84.736 38.833c-.87.127-1.75.133-2.626.153-1.37.067-2.741.044-4.112.071-1.365.028-2.729.031-4.093-.004a220.064 220.064 0 0 0-3.838-.184c-.55-.022-1.102-.04-1.653-.066l-.01 1.571a35.373 35.373 0 0 1 1.625-.005c1.282.026 2.562.097 3.843.16 1.385.038 2.77.04 4.154.01 1.37-.03 2.737-.012 4.105-.066.936-.01 1.875-.01 2.809-.088l-.204-1.552z" style="fill:#b580ff;fill-opacity:1;stroke:#000;stroke-width:.291042" transform="rotate(-.255 74025.74 85374.182) scale(3.77953)"/><path d="M74.25 42.624c-.714-.683-1.484-1.308-2.234-1.95-.72-.655-1.482-1.26-2.33-1.74-.283-.112-.427-.365-.132.03.077.715.128.266-.194.878-.007.014.03-.009.044-.014.067-.025.132-.053.198-.076.253-.09.508-.173.76-.26.955-.369 1.88-.82 2.732-1.388.243-.17.485-.347.665-.585l.085-.162-1.478-.576.077-.145c.17-.208-.18.223-.233.203-.706.523-1.502.915-2.329 1.209-.579.184-1.571.329-1.805.994-.062.177.021.374.031.56.064.097.122.197.191.29.153.2.444.29.654.405.774.388 1.447.932 2.087 1.51.674.584 1.361 1.16 1.985 1.797l1.226-.98z" style="fill:#b580ff;fill-opacity:1;stroke:#000;stroke-width:.291042" transform="rotate(-.255 74025.74 85374.182) scale(3.77953)"/><path d="M-107.127 468.366c-.536-5.006-.408-10.078-.26-15.113.391-8.958.54-17.929.626-26.9.082-9.814.093-19.63.117-29.444.015-7.786.045-15.572.06-23.358-.182-6.698-.297-13.402-.558-20.095-.178-5.54-.568-11.089-.424-16.638.073-1.394.068-1.553.18-2.846.085-.976-.022-1.171.14-.796l-5.682-2.246c-.32 1.896-.388 3.814-.408 5.758-.011 5.721.363 11.433.568 17.144.244 6.57.365 13.149.56 19.721.02 7.784.056 15.568.071 23.352.017 9.779.023 19.558-.078 29.336-.122 8.895-.31 17.79-.757 26.668-.22 5.473-.373 10.959-.026 16.43l5.87-.973z" style="fill:#ec80ff;fill-opacity:1;stroke:#000;stroke-width:1.1"/><path d="M-121.876 346.505c2.397-2.848 4.886-5.618 7.395-8.367 1.307-1.363 2.556-2.787 3.904-4.11.218-.213.882-.907 1.253-1.021-.136.091-.245.258-.409.275-.798.083-1.634-.197-2.406.019-.423.118.844.271 1.282.295.737.04 1.23-.196 1.834-.534.218-.122-.45.217-.675.326-.59-.004-1.179.015-1.767-.015-.114-.004-.398-.208-.322-.122.736.833 1.58 1.616 2.338 2.431 2.384 2.618 4.883 5.146 7.091 7.918.31.49 1.954 2.454 1.99 3.058.005.103-.106-.179-.158-.268l-.146-1.333 5.917.917-.12-1.502c-.731-1.672-1.861-3.138-3.004-4.55-2.337-2.775-4.907-5.346-7.281-8.09-.831-.956-2.896-3.84-4.251-4.077-.66-.115-1.337-.067-2.005-.1-2.015.886-.005-.104.736-.046.384.03 1.5.236 1.118.29-.861.123-1.743-.16-2.608-.077-.263.026-.455.265-.683.397-2.162 1.803-3.83 4.108-5.792 6.111-2.454 2.68-4.9 5.366-7.432 7.973l4.201 4.2z" style="fill:#ec80ff;fill-opacity:1;stroke:#000;stroke-width:1.1"/><path d="M-147.61 458.715c.52.286 1.015.312 1.592.156.11-.026.22-.052.302-.13.027-.026.082-.104.082-.155-.027-.467-.988-.312-1.263-.234" style="display:inline;fill:none;stroke:#000;stroke-width:.999999;stroke-dasharray:none;stroke-opacity:1"/><path d="M-154.99 451.702c.966-.554 2.039-1.021 3.188-1.115.265-.023.653-.027.919 0 .58.057 1.34.188 1.447.915.11.746-.426 1.336-.929 1.804-.44.408-.814.646-1.31.927.385.06 1.117.185 1.522.352.766.317 1.428.727 1.835 1.37.481.762.264 1.427-.412 1.954-.448.35-1.097.614-1.574.74-1.097.29-2.232.361-3.37.29-.504-.03-1.193-.182-1.519-.319a3.455 3.455 0 0 1-.73-.398" style="display:inline;fill:none;fill-opacity:1;stroke:#000;stroke-width:.999999;stroke-linecap:butt;stroke-linejoin:miter;stroke-miterlimit:4;stroke-dasharray:none;stroke-opacity:1"/><path d="M-156.765 455.962h-.385c-.71 0-1.421-.008-2.131-.016-.73-.008-1.46-.008-2.188.023-.397.011-.793.023-1.19.03M-144.157 458.417c1.301.381 2.65.561 3.968.418.99-.108 1.767-.322 2.52-.788.463-.287.617-.805.387-1.253-.48-.934-1.444-1.577-2.406-2a7.36 7.36 0 0 0-.74-.266c-.246-.06-.286-.03.013-.113.23-.133.743-.347.973-.47.788-.416 1.314-.922 1.563-1.66.122-.361.066-.845-.36-1.118-.61-.39-1.55-.44-2.269-.383a11.59 11.59 0 0 0-3.88 1.003" style="display:inline;fill:none;stroke:#000;stroke-width:.999999;stroke-dasharray:none"/><g style="stroke-width:.199627;stroke-dasharray:none"><path d="M60.34 29.033c.044-.067.093-.132.133-.188.208-.294.41-.591.61-.888a6.29 6.29 0 0 1 .362-.489.03.03 0 0 0 .008-.019c0-.027-.132-.018-.15-.019a19.957 19.957 0 0 0-1.646.002" style="display:inline;fill:none;stroke:#000;stroke-width:.199627;stroke-dasharray:none" transform="matrix(4.95057 0 0 5.06883 -432.407 312.07)"/><path d="M60.335 28.3c.208-.003.335.01.543.007.076-.001.17.002.215 0 .008 0 .139-.005.158-.008" style="display:inline;fill:#000;stroke:#000;stroke-width:.199627;stroke-dasharray:none" transform="matrix(4.95057 0 0 5.06883 -432.407 312.07)"/></g><g style="display:inline;stroke-width:3.99346;stroke-dasharray:none"><path d="M-698.623-3366.226c-1.298-.16-2.924.066-4.477.16-6.92.424-11.25.877-18.25 1.137" style="fill:none;stroke:#000;stroke-width:3.99346;stroke-dasharray:none;stroke-opacity:1" transform="matrix(.26487 0 0 .23674 63.79 1247.563)"/><path d="M-722.041-3336.057c.11 1.695 2.161 1.931 3.452 2.419 5.983 2.257 12.145 1.713 18.033.343 3.1-.722 6.557-2.392 7.683-5.607 1.097-3.133-.41-6.367-2.215-8.836-3.398-4.652-9.65-7.174-15.36-6.695-1.805.15-3.6.397-5.298 1.144-1.65.725-3.238 1.513-4.567 2.705-.295-.236-.132-1.545-.124-2.32l.124-12.716" style="fill:none;stroke:#000;stroke-width:3.99346;stroke-dasharray:none;stroke-opacity:1" transform="matrix(.26487 0 0 .23674 63.79 1247.563)"/></g><path d="M-212.526 505.875c.566-.16.727-.44.606-1-.04-.08-.121-.2-.202-.24-.242-.2-.687-.08-.808.2-.122.32-.081.8-.04 1.08" style="display:inline;fill:none;stroke:#000;stroke-width:.999999;stroke-dasharray:none;stroke-opacity:1"/><path d="m-209.525 505.58.026-.041c.184-.32.351-.648.517-.977.623-1.232 1.149-2.51 1.678-3.782.264-.637.524-1.276.777-1.917.064-.164.218-.552.279-.742.023-.074.044-.149.059-.225a.685.685 0 0 0 .016-.153c-.008-.255-.343-.245-.521-.245-.983.004-1.963.13-2.946.15-1.037.023-2.074.04-3.112.03" style="display:inline;fill:none;stroke:#000;stroke-width:.999999;stroke-dasharray:none"/><path d="M-205.452 501.483c-.646.1-1.31.04-1.866.064-1.032.011-2.065.015-3.094.083" style="display:inline;fill:#000;stroke:#000;stroke-width:.999999;stroke-dasharray:none"/><path d="M-229.39 503.026c.93 0 1.86.019 2.79.026.787.008 1.575.012 2.362.015h.236M-214.472 505.47a6.563 6.563 0 0 0-.114-.063c-.914-.276-1.878-.336-2.826-.399-1.319-.038-2.642 0-3.932.306-.368.085-.747.155-1.073.353v.063c0 .011.02-.015.03-.023.104-.067.214-.124.322-.185a11.828 11.828 0 0 0 2.413-1.91c.466-.482.65-.66 1.078-1.18a18.194 18.194 0 0 0 1.7-2.42c.287-.493.853-1.418.575-2.022a.607.607 0 0 0-.165-.212.88.88 0 0 0-.264-.14c-.768-.277-1.726-.114-2.516.07-.97.228-1.94.501-2.842.935M237.24 318.212a2.27 2.27 0 0 1 1.422-1.199c1.084-.297 2.262-.264 3.341.038 1.093.307 1.997 1.369 1.864 2.49-.108.91-1.003 1.505-1.848 1.752-1.277.373-2.745.362-3.923-.274a2.624 2.624 0 0 1-1.23-1.48c-.45-1.356-.075-2.83.54-4.079.758-1.54 1.9-2.95 3.408-3.856.272-.164.57-.283.878-.368" style="display:inline;fill:none;stroke:#000;stroke-width:.999999;stroke-dasharray:none"/><path d="M257.461 263.74c-.115.083-.231.168-.332.235-.537.325-1.121.544-1.73.578-.54.03-1.003-.007-1.518-.247-.683-.32-1.22-.88-1.447-1.61a3.037 3.037 0 0 1-.083-1.409 3.215 3.215 0 0 1 1.292-2.102c.155-.113.33-.224.502-.307.157-.075.356-.142.526-.176.652-.133 1.116.004 1.506.471M148.477 191.195c-.115.084-.231.169-.332.236-.537.325-1.121.544-1.73.578-.54.03-1.003-.007-1.518-.248-.683-.319-1.22-.879-1.447-1.61a3.037 3.037 0 0 1-.083-1.408 3.215 3.215 0 0 1 1.292-2.103c.155-.113.33-.223.502-.307.157-.075.356-.141.526-.176.652-.133 1.116.005 1.506.472M237.195 141.553c-.116.083-.231.168-.332.235-.538.325-1.122.544-1.73.578-.541.03-1.003-.007-1.518-.248-.684-.319-1.22-.879-1.448-1.61a3.037 3.037 0 0 1-.083-1.408 3.215 3.215 0 0 1 1.292-2.103c.156-.113.33-.223.503-.307.156-.075.356-.141.526-.176.652-.133 1.116.005 1.506.472" style="display:inline;fill:none;fill-opacity:1;stroke:#000;stroke-width:1.07053;stroke-linecap:butt;stroke-linejoin:miter;stroke-miterlimit:4;stroke-dasharray:none;stroke-opacity:1"/><path d="M367.847 190.03c-.115.082-.231.168-.332.235-.537.324-1.122.544-1.73.578-.54.03-1.003-.007-1.518-.248-.683-.319-1.22-.879-1.447-1.61a3.037 3.037 0 0 1-.084-1.409 3.215 3.215 0 0 1 1.292-2.102c.156-.113.33-.224.503-.307.156-.075.356-.141.526-.176.652-.133 1.116.004 1.506.472" style="display:inline;fill:none;fill-opacity:1;stroke:#000;stroke-width:.999999;stroke-linecap:butt;stroke-linejoin:miter;stroke-miterlimit:4;stroke-dasharray:none;stroke-opacity:1"/><path d="M285.778 63.168c-.41.065-.826.136-1.179.16-1.46.101-3.162-.115-4.244-.99-.362-.292-.698-.648-.803-1.045-.125-.468-.053-1.107.127-1.558.258-.64.747-1.185 1.363-1.6.962-.648 2.233-.97 3.215-.852" style="fill:none;fill-opacity:1;stroke:#000;stroke-width:.999999;stroke-linecap:butt;stroke-linejoin:round;stroke-miterlimit:4;stroke-dasharray:none;stroke-dashoffset:0;stroke-opacity:1"/><path d="M271.273 58.406c1.133-.444 2.436-.545 3.608-.19.852.259 1.571.88 1.995 1.63.424.749.405 1.762-.225 2.392-.85.85-2.21.976-3.377.79-1.35-.213-2.49-1.252-2.745-2.544-.268-1.36.174-2.75.87-3.925.511-.865 1.196-1.638 2.064-2.195.663-.425 1.378-.779 2.144-.991" style="display:inline;fill:none;stroke:#000;stroke-width:.999999;stroke-dasharray:none"/><path d="M274.745 139.184c1.504-.013 3.006.046 4.51.034.55-.006 1.23.009 1.554 0 .059 0 .424-.022.56-.036" style="display:inline;fill:#000;stroke:#000;stroke-width:.999999;stroke-dasharray:none"/><path d="M133.921 184.451c1.024-.585 2.162-1.08 3.38-1.18.281-.024.692-.028.974 0 .615.06 1.42.2 1.534.969.117.79-.452 1.415-.984 1.91-.467.432-.863.683-1.39.981.41.064 1.184.195 1.614.373.812.334 1.514.769 1.946 1.45.51.806.17 1.619-.437 2.11-.468.38-1.173.706-1.67.872-1.024.343-2.034.408-3.287.24-.53-.07-1.025-.3-1.37-.445a4.24 4.24 0 0 1-.839-.51" style="display:inline;fill:none;fill-opacity:1;stroke:#000;stroke-width:.999999;stroke-linecap:butt;stroke-linejoin:miter;stroke-miterlimit:4;stroke-dasharray:none;stroke-opacity:1"/><path d="M353.407 190.13c1.38.402 2.81.593 4.208.441 1.048-.114 1.873-.34 2.67-.834.492-.304.655-.852.412-1.326-.51-.989-1.532-1.67-2.551-2.117a7.806 7.806 0 0 0-.784-.282c-.261-.064-.304-.03.013-.119.243-.141.787-.368 1.032-.497.835-.441 1.393-.977 1.657-1.758.129-.382.07-.895-.382-1.183-.647-.414-1.643-.465-2.405-.406a12.297 12.297 0 0 0-4.115 1.062" style="display:inline;fill:none;stroke:#000;stroke-width:.999999;stroke-dasharray:none"/><g style="stroke-width:1.02168"><path d="M76.244 36.906c-.109.017-.219.036-.312.042-.385.027-.834-.03-1.12-.26-.095-.077-.183-.171-.21-.275a.714.714 0 0 1 .033-.41.944.944 0 0 1 .36-.422c.253-.17.588-.255.847-.224" style="fill:none;fill-opacity:1;stroke:#000;stroke-width:.27032;stroke-linecap:butt;stroke-linejoin:round;stroke-miterlimit:4;stroke-dasharray:none;stroke-dashoffset:0;stroke-opacity:1" transform="matrix(3.7025 0 0 3.69613 16.243 6.229)"/><path d="M72.183 34.836c.272-.155.574-.287.898-.314.075-.006.184-.007.259 0 .163.016.377.053.407.258.031.21-.12.377-.261.508-.124.115-.23.182-.37.261a2.3 2.3 0 0 1 .43.1c.215.089.402.204.516.386.136.214.046.43-.116.561a1.56 1.56 0 0 1-.443.232c-.272.091-.54.109-.874.064-.14-.019-.272-.08-.364-.119a1.126 1.126 0 0 1-.222-.135" style="display:inline;fill:none;fill-opacity:1;stroke:#000;stroke-width:.27032;stroke-linecap:butt;stroke-linejoin:miter;stroke-miterlimit:4;stroke-dasharray:none;stroke-opacity:1" transform="matrix(3.7025 0 0 3.69613 16.243 6.229)"/></g><path d="M141.89 217.306c-.541-.009-1.148 0-1.611 0-1.495-.004-2.27-.004-3.698.035-.043 0-.509.051-.759.091-.339.054-.653.24-.826.1-.172-.08.06-.85.051-1.005.335-1.597.67-2.865.9-4.48" style="display:inline;fill:none;fill-opacity:1;stroke:#000;stroke-width:1;stroke-linecap:butt;stroke-linejoin:miter;stroke-miterlimit:4;stroke-dasharray:none;stroke-opacity:1"/><path d="M140.149 213.098c-.05 2.077.148 6.227.148 6.227.043.65.112 1.299.234 1.941" style="display:inline;fill:none;fill-opacity:1;stroke:#000;stroke-width:1;stroke-linecap:butt;stroke-linejoin:miter;stroke-miterlimit:4;stroke-dasharray:none;stroke-opacity:1"/><path d="M148.232 220.17c-.254.265-.07.174-.449.397-1.243.73-2.407.734-3.648.026-.382-.218-.634-.417-.878-.87-.439-.814-.22-1.903.235-2.559.152-.219.319-.445.507-.606.911-.781 2.099-.818 3.1-.315.485.244.62.379 1.04.791" style="display:inline;fill:none;stroke:#000;stroke-width:1;stroke-dasharray:none;stroke-opacity:1"/><path d="M127.304 218.326c1.042 0 2.084-.02 3.126-.032.881-.01 1.763-.014 2.644-.018h.265" style="display:inline;fill:none;stroke:#000;stroke-width:.999999;stroke-dasharray:none"/><path d="M33.767 50.446c.06.384.161.762.246 1.141.017.082.028.128.037.205 0 .005.022.09-.012.081-.037-.01-.041-.094-.057-.16-.076-.311-.121-.683.079-.963a.95.95 0 0 1 .171-.183c.068-.055.145-.107.223-.147.231-.12.54-.21.803-.135.037.01.07.032.104.048M32.573 50.35c-.377.06-.747.26-.94.585-.064.128-.129.27-.088.415.049.24.287.391.517.45.337.084.702.034 1.017-.102.245-.107.47-.315.5-.583a.604.604 0 0 0-.347-.611c-.15-.077-.323-.091-.489-.11a1.015 1.015 0 0 0-.361.05" style="display:inline;fill:none;fill-opacity:1;stroke:#000;stroke-width:.264583;stroke-linecap:butt;stroke-linejoin:bevel;stroke-miterlimit:4;stroke-dasharray:none;stroke-opacity:1" transform="matrix(3.77953 0 0 3.77953 14.13 9.672)"/><path d="M124.795 202.792c.544.252 1.24 1.102 2.506 1.143.923.03 1.163-1.412 2.248-1.436.643-.015 1.58.453 2.148.748M146.642 202.337c.544.253 1.24 1.103 2.506 1.144.923.03 1.163-1.413 2.249-1.437.642-.014 1.58.453 2.147.749" style="display:inline;fill:none;stroke:#000;stroke-width:.999999;stroke-dasharray:none"/><path d="M220.364 142.135c.343.1.668.11 1.047.055a.623.623 0 0 0 .198-.046c.018-.009.054-.037.054-.055-.018-.165-.65-.11-.83-.082M224.218 142.135c.343.1.668.11 1.047.055a.623.623 0 0 0 .198-.046c.018-.009.054-.037.054-.055-.018-.165-.65-.11-.83-.082M228.072 142.135c.343.1.668.11 1.047.055a.623.623 0 0 0 .198-.046c.019-.009.055-.037.055-.055-.019-.165-.65-.11-.831-.082" style="display:inline;fill:none;stroke:#000;stroke-width:.999999;stroke-dasharray:none;stroke-opacity:1"/><path d="M362.393 197.114c.1 1.588.488 3.818.727 5.271.011.065.21.937-.339.695 0 0-.078-.123-.101-.22a4.982 4.982 0 0 1-.116-.947c0-.318.019-.566.074-.88.068-.386.18-.737.297-1.109.47-1.483 1.363-2.682 2.905-3.242a2.68 2.68 0 0 1 .735-.126c.542-.027 1.045.122 1.542.343" style="display:inline;fill:none;fill-opacity:1;stroke:#000;stroke-width:.999999;stroke-linecap:butt;stroke-linejoin:miter;stroke-miterlimit:4;stroke-dasharray:none;stroke-opacity:1"/><path d="M358.695 196.853c.23.06.475.094.662.174.26.112.51.245.738.416.92.69 1.865 2.08 1.641 3.341-.05.278-.21.518-.316.777-.205.199-.382.434-.614.596-.305.211-.64.375-.98.512-.941.379-1.986.454-2.955.14a3.374 3.374 0 0 1-.849-.398 2.455 2.455 0 0 1-.594-.582c-.467-.633-.561-1.477-.371-2.237.142-.567.364-.84.661-1.32.162-.182.306-.385.487-.546.41-.363 1.001-.749 1.563-.763.1 0 .201.022.297.052" style="display:inline;fill:none;fill-opacity:1;stroke:#000;stroke-width:.999999;stroke-linecap:butt;stroke-linejoin:bevel;stroke-miterlimit:4;stroke-dasharray:none;stroke-opacity:1"/><path d="M346.86 199.78s1.338 1.734 2.398 1.655c1.154-.085 1.155-2.018 2.297-2.2.715-.113 1.868 1.088 1.868 1.088M365.844 199.532s1.068 2.005 2.02 1.978c1.215-.036 1.391-2.54 2.6-2.67.998-.107 2.146 1.384 2.146 1.384" style="opacity:1;fill:none;fill-opacity:1;stroke:#000;stroke-width:.999999;stroke-linecap:butt;stroke-dasharray:none"/><g style="display:inline;stroke-width:2.99313;stroke-dasharray:none"><path d="M-1005.295-3307.382a2.746 2.746 0 0 0-1.315-.266c-5.531.162-11.148.691-16.506 1.987-1.468.346-2.851.692-4.234 1.47-.26.172-.518.518-.778.431-.085-.085 0-.172 0-.259.346-1.9.951-3.716 1.383-5.617.864-3.284 1.556-6.654 2.16-9.938" style="fill:none;stroke:#000;stroke-width:2.99313;stroke-dasharray:none;stroke-opacity:1" transform="matrix(.3325 0 0 .33571 695.36 1322.336)"/><path d="M-1008.17-3291.718c-.323-.712-.58-1.587-.687-1.963-.715-2.534-1.004-5.149-1.21-7.685-.572-7.052-.345-14.03-.432-21.08" style="fill:none;stroke:#000;stroke-width:2.99313;stroke-dasharray:none;stroke-opacity:1" transform="matrix(.3325 0 0 .33571 695.36 1322.336)"/></g><path d="M366.435 210.945c-1.448-.042-2.972.474-3.93 1.602-.336.45-.682.958-.639 1.55.007.964.781 1.725 1.594 2.122 1.195.564 2.59.631 3.863.327" style="display:inline;fill:none;fill-opacity:1;stroke:#000;stroke-width:.999999;stroke-linecap:butt;stroke-linejoin:bevel;stroke-miterlimit:4;stroke-dasharray:none;stroke-opacity:1"/><path d="M284.808 87.287c-.625.427-1.437.51-2.194.569-1.24.045-2.574-.216-3.479-1.024-.564-.496-.888-1.277-.674-1.98.257-.879 1.118-1.472 1.976-1.882a5.551 5.551 0 0 1 2.176-.537c.389-.022.959.059 1.155.173" style="display:inline;fill:none;stroke:#000;stroke-width:.999999;stroke-miterlimit:2;stroke-dasharray:none"/><g style="display:inline;stroke-width:1.92011;stroke-dasharray:none"><path d="M-406.725-3400.044c2.318-.268 4.646-.404 6.976-.5 1.865-.075 3.732-.122 5.598-.12.673 0 .918-.152.543.541-1.026 1.9-1.819 3.914-2.58 5.929-1.037 2.746-2.104 5.48-3.14 8.227-.377 1-.796 1.987-1.1 3.013-.042.145-.023.08-.05.195" style="fill:none;stroke:#000;stroke-width:1.92011;stroke-dasharray:none" transform="matrix(.51874 0 0 .52288 481.322 1857.019)"/><path d="m-394.23-3392.178-1.905.069c-1.808.072-3.618.141-5.42.317M-401.537-3391.69c1.796-.182 3.602-.251 5.406-.322.635-.024 1.27-.044 1.905-.064" style="fill:#000;stroke:#000;stroke-width:1.92011;stroke-dasharray:none" transform="matrix(.51874 0 0 .52288 481.322 1857.019)"/></g><g style="stroke-width:1.01096"><g style="stroke-width:1.06886"><path d="M69.764 17.216c-.275.073-.538.212-.718.43a.87.87 0 0 0-.114.172.688.688 0 0 0-.064.197.673.673 0 0 0 .23.598c.169.148.277.179.494.231.102.025.209.025.314.02.37-.017.844-.176 1.03-.513a.554.554 0 0 0 .047-.407c-.09-.316-.43-.552-.736-.645a.937.937 0 0 0-.481-.032M71.118 17.259c.08.306.145.604.22.912.06.243.12.494.16.733-.052-.439 0-.753.176-1.07.107-.193.359-.543.672-.588.121-.018.25.05.333.139.068.07.133.152.193.245" style="display:inline;fill:none;fill-opacity:1;stroke:#000;stroke-width:.282802;stroke-linecap:butt;stroke-linejoin:miter;stroke-miterlimit:4;stroke-dasharray:none;stroke-opacity:1" transform="matrix(3.54468 0 0 3.52742 27.17 7.801)"/></g><path d="M66.613 18.044s.379-.504.658-.465c.371.053.302.75.673.806.243.036.548-.403.548-.403M72.982 18.237s.353-.484.627-.465c.383.026.383.81.767.79.338-.017.516-.45.516-.45" style="opacity:1;fill:none;fill-opacity:1;stroke:#000;stroke-width:.267483;stroke-linecap:butt;stroke-dasharray:none" transform="matrix(3.7407 0 0 3.73641 13.28 4.027)"/></g><path d="M244.171 262.142c.177-.697.92-1.118 1.44-1.3 1.287-.45 3.579-.398 4.47.855.372.523.552 1.26.04 1.972-.392.544-1.028.886-1.644 1.068-1.305.385-2.869.114-3.948-.74-.273-.215-.545-.454-.724-.756-.414-.7-.554-1.16-.55-1.935.01-1.404.816-2.985 1.833-4.063 1.397-1.479 3.888-2.344 5.348-2.136" style="display:inline;fill:none;fill-opacity:1;stroke:#000;stroke-width:.999999;stroke-linecap:butt;stroke-linejoin:miter;stroke-miterlimit:4;stroke-dasharray:none;stroke-opacity:1"/></svg>