<svg xmlns="http://www.w3.org/2000/svg" xmlns:xlink="http://www.w3.org/1999/xlink" width="268.06" height="164.96" viewBox="0 0 201.045 123.72"><defs><clipPath id="d"><path d="M226.254 254.46H228V279h-1.746zm0 0"/></clipPath><clipPath id="e"><path d="M383 388h1.996v25.203H383zm0 0"/></clipPath><clipPath id="f"><path d="M383 254.46h1.996V279H383Zm0 0"/></clipPath><clipPath id="g"><path d="M226.254 254.46H228V279h-1.746zm0 0"/></clipPath><clipPath id="h"><path d="M383 388h1.996v25.203H383zm0 0"/></clipPath><clipPath id="i"><path d="M383 254.46h1.996V279H383Zm0 0"/></clipPath><clipPath id="a"><path d="M226.254 254.46H228V279h-1.746zm0 0"/></clipPath><clipPath id="b"><path d="M383 388h1.996v25.203H383zm0 0"/></clipPath><clipPath id="c"><path d="M383 254.46h1.996V279H383Zm0 0"/></clipPath><symbol id="j" overflow="visible" style="overflow:visible"><path d="M.156-3.984c.125-.032.188-.047.297-.047.578 0 .719.25 1.188 1.968.156.641.406 1.813.406 1.985 0 .156-.063.312-.219.5-.297.406-.5.672-.61.781C1 1.422.892 1.5.75 1.5c-.047 0-.125-.031-.234-.11-.141-.109-.25-.171-.36-.171a.387.387 0 0 0-.39.39c0 .25.218.438.5.438.64 0 1.953-1.485 3.03-3.469.673-1.219.954-1.937.954-2.422a.554.554 0 0 0-.547-.547c-.234 0-.39.141-.39.36 0 .156.078.265.28.39.188.11.25.204.25.344 0 .39-.359 1.172-1.218 2.578l-.188-1.156c-.156-.875-.718-2.516-.859-2.516h-.125l-.984.172a1.759 1.759 0 0 1-.313.063zm0 0" style="stroke:none"/></symbol><symbol id="l" overflow="visible" style="overflow:visible"><path d="M.344-3.953h.906L.375.234C.156 1.313-.172 1.86-.594 1.86c-.125 0-.203-.078-.203-.171 0-.016.016-.047.047-.11a.264.264 0 0 0 .047-.156c0-.203-.188-.375-.39-.375-.22 0-.376.172-.376.406 0 .344.36.61.797.61.875 0 1.578-.985 1.985-2.813l.718-3.203h1.094l.063-.313H2.109c.282-1.562.657-2.28 1.204-2.28.14 0 .218.062.218.124 0 .031 0 .047-.031.11a.344.344 0 0 0-.063.203c0 .234.157.39.376.39.218 0 .421-.172.421-.39 0-.375-.375-.657-.859-.657-.5 0-.875.22-1.234.688-.313.39-.5.86-.813 1.812H.422zm0 0" style="stroke:none"/></symbol><symbol id="o" overflow="visible" style="overflow:visible"><path d="M4-1.11c-.078.094-.125.157-.219.266-.219.313-.344.406-.453.406-.14 0-.234-.124-.312-.406-.016-.078-.032-.14-.032-.172-.25-1.015-.359-1.468-.359-1.609.438-.781.797-1.219.969-1.219.062 0 .14.031.25.078.11.079.187.094.265.094.204 0 .344-.14.344-.36 0-.202-.172-.359-.406-.359-.438 0-.813.36-1.5 1.422l-.11-.547c-.14-.687-.25-.875-.53-.875-.22 0-.548.079-1.157.282l-.11.046.032.141c.39-.078.469-.11.562-.11.25 0 .313.095.454.688l.28 1.235-.812 1.156C.953-.641.75-.47.641-.47a.554.554 0 0 1-.25-.094.755.755 0 0 0-.329-.093c-.187 0-.328.14-.328.344 0 .265.204.421.5.421.297 0 .422-.093.922-.703.266-.312.485-.578.89-1.156L2.36-.562c.125.515.25.671.579.671.374 0 .624-.234 1.203-1.14zm0 0" style="stroke:none"/></symbol><symbol id="k" overflow="visible" style="overflow:visible"><path d="M6.844-3.266c.156 0 .343 0 .343-.187 0-.203-.187-.203-.328-.203H.891c-.141 0-.329 0-.329.203 0 .187.188.187.329.187zm.015 1.938c.141 0 .329 0 .329-.203 0-.188-.188-.188-.344-.188H.89c-.141 0-.329 0-.329.188 0 .203.188.203.329.203zm0 0" style="stroke:none"/></symbol><symbol id="n" overflow="visible" style="overflow:visible"><path d="M3.297 2.39c0-.03 0-.046-.172-.218C1.891.922 1.562-.968 1.562-2.5c0-1.734.375-3.469 1.61-4.703.125-.125.125-.14.125-.172 0-.078-.031-.11-.094-.11-.11 0-1 .688-1.594 1.954C1.11-4.438.984-3.328.984-2.5c0 .781.11 1.984.657 3.125C2.25 1.844 3.094 2.5 3.203 2.5c.063 0 .094-.031.094-.11zm0 0" style="stroke:none"/></symbol><symbol id="p" overflow="visible" style="overflow:visible"><path d="M2.875-2.5c0-.766-.11-1.969-.656-3.11C1.625-6.827.766-7.483.672-7.483a.107.107 0 0 0-.11.109c0 .031 0 .047.188.234.984.985 1.547 2.563 1.547 4.641 0 1.719-.36 3.469-1.594 4.719-.14.125-.14.14-.14.172 0 .062.046.109.109.109.094 0 1-.688 1.578-1.953.516-1.094.625-2.203.625-3.047Zm0 0" style="stroke:none"/></symbol><symbol id="m" overflow="visible" style="overflow:visible"><path d="M1.86-3.5c.046-.094.077-.156.077-.234 0-.22-.203-.391-.421-.391-.204 0-.344.14-.391.328L.25-.562c0 .015-.031.093-.031.093 0 .078.187.14.25.14.047 0 .047-.03.094-.124zm0 0" style="stroke:none"/></symbol></defs><g style="display:inline"><g clip-path="url(#a)" style="clip-rule:nonzero" transform="translate(439.035 -1237.906)"><path d="M-88.897 68.034c0 1-.813 1.813-1.813 1.813a1.811 1.811 0 0 1-1.812-1.813 1.812 1.812 0 1 1 3.625 0zm0 0" style="fill:none;stroke:red;stroke-width:.79701;stroke-linecap:butt;stroke-linejoin:miter;stroke-miterlimit:10;stroke-opacity:1" transform="matrix(1 0 0 -1 305.624 333.831)"/></g><g clip-path="url(#b)" style="clip-rule:nonzero" transform="translate(439.035 -1237.906)"><path d="M92.524-68.032a1.814 1.814 0 1 1-3.627-.003 1.814 1.814 0 0 1 3.627.003zm0 0" style="fill:none;stroke:red;stroke-width:.79701;stroke-linecap:butt;stroke-linejoin:miter;stroke-miterlimit:10;stroke-opacity:1" transform="matrix(1 0 0 -1 305.624 333.831)"/></g><g clip-path="url(#c)" style="clip-rule:nonzero" transform="translate(439.035 -1237.906)"><path d="M92.524 68.034a1.814 1.814 0 1 1-3.627-.002 1.814 1.814 0 0 1 3.627.002zm0 0" style="fill:none;stroke:red;stroke-width:.79701;stroke-linecap:butt;stroke-linejoin:miter;stroke-miterlimit:10;stroke-opacity:1" transform="matrix(1 0 0 -1 305.624 333.831)"/></g><g clip-path="url(#a)" style="clip-rule:nonzero" transform="translate(650.232 -1237.906)"><path d="M-88.897 68.034c0 1-.813 1.813-1.813 1.813a1.811 1.811 0 0 1-1.812-1.813 1.812 1.812 0 1 1 3.625 0zm0 0" style="fill:none;stroke:red;stroke-width:.79701;stroke-linecap:butt;stroke-linejoin:miter;stroke-miterlimit:10;stroke-opacity:1" transform="matrix(1 0 0 -1 305.624 333.831)"/></g><g clip-path="url(#b)" style="clip-rule:nonzero" transform="translate(650.232 -1237.906)"><path d="M92.524-68.032a1.814 1.814 0 1 1-3.627-.003 1.814 1.814 0 0 1 3.627.003zm0 0" style="fill:none;stroke:red;stroke-width:.79701;stroke-linecap:butt;stroke-linejoin:miter;stroke-miterlimit:10;stroke-opacity:1" transform="matrix(1 0 0 -1 305.624 333.831)"/></g><g clip-path="url(#c)" style="clip-rule:nonzero" transform="translate(650.232 -1237.906)"><path d="M92.524 68.034a1.814 1.814 0 1 1-3.627-.002 1.814 1.814 0 0 1 3.627.002zm0 0" style="fill:none;stroke:red;stroke-width:.79701;stroke-linecap:butt;stroke-linejoin:miter;stroke-miterlimit:10;stroke-opacity:1" transform="matrix(1 0 0 -1 305.624 333.831)"/></g></g><g style="display:inline"><g clip-path="url(#d)" style="clip-rule:nonzero" transform="translate(33.308 487.55)"><path d="M-88.897 68.034c0 1-.813 1.813-1.813 1.813a1.811 1.811 0 0 1-1.812-1.813 1.812 1.812 0 1 1 3.625 0zm0 0" style="fill:none;stroke:red;stroke-width:.79701;stroke-linecap:butt;stroke-linejoin:miter;stroke-miterlimit:10;stroke-opacity:1" transform="matrix(1 0 0 -1 305.624 333.831)"/></g><g clip-path="url(#e)" style="clip-rule:nonzero" transform="translate(33.308 487.55)"><path d="M92.524-68.032a1.814 1.814 0 1 1-3.627-.003 1.814 1.814 0 0 1 3.627.003zm0 0" style="fill:none;stroke:red;stroke-width:.79701;stroke-linecap:butt;stroke-linejoin:miter;stroke-miterlimit:10;stroke-opacity:1" transform="matrix(1 0 0 -1 305.624 333.831)"/></g><g clip-path="url(#f)" style="clip-rule:nonzero" transform="translate(33.308 487.55)"><path d="M92.524 68.034a1.814 1.814 0 1 1-3.627-.002 1.814 1.814 0 0 1 3.627.002zm0 0" style="fill:none;stroke:red;stroke-width:.79701;stroke-linecap:butt;stroke-linejoin:miter;stroke-miterlimit:10;stroke-opacity:1" transform="matrix(1 0 0 -1 305.624 333.831)"/></g><g clip-path="url(#d)" style="clip-rule:nonzero" transform="translate(244.505 487.55)"><path d="M-88.897 68.034c0 1-.813 1.813-1.813 1.813a1.811 1.811 0 0 1-1.812-1.813 1.812 1.812 0 1 1 3.625 0zm0 0" style="fill:none;stroke:red;stroke-width:.79701;stroke-linecap:butt;stroke-linejoin:miter;stroke-miterlimit:10;stroke-opacity:1" transform="matrix(1 0 0 -1 305.624 333.831)"/></g><g clip-path="url(#e)" style="clip-rule:nonzero" transform="translate(244.505 487.55)"><path d="M92.524-68.032a1.814 1.814 0 1 1-3.627-.003 1.814 1.814 0 0 1 3.627.003zm0 0" style="fill:none;stroke:red;stroke-width:.79701;stroke-linecap:butt;stroke-linejoin:miter;stroke-miterlimit:10;stroke-opacity:1" transform="matrix(1 0 0 -1 305.624 333.831)"/></g><g clip-path="url(#f)" style="clip-rule:nonzero" transform="translate(244.505 487.55)"><path d="M92.524 68.034a1.814 1.814 0 1 1-3.627-.002 1.814 1.814 0 0 1 3.627.002zm0 0" style="fill:none;stroke:red;stroke-width:.79701;stroke-linecap:butt;stroke-linejoin:miter;stroke-miterlimit:10;stroke-opacity:1" transform="matrix(1 0 0 -1 305.624 333.831)"/></g><g clip-path="url(#g)" style="clip-rule:nonzero" transform="translate(-2354.486 -167.07)"><path d="M-88.897 68.034c0 1-.813 1.813-1.813 1.813a1.811 1.811 0 0 1-1.812-1.813 1.812 1.812 0 1 1 3.625 0zm0 0" style="fill:none;stroke:red;stroke-width:.79701;stroke-linecap:butt;stroke-linejoin:miter;stroke-miterlimit:10;stroke-opacity:1" transform="matrix(1 0 0 -1 305.624 333.831)"/></g><g clip-path="url(#h)" style="clip-rule:nonzero" transform="translate(-2354.486 -167.07)"><path d="M92.524-68.032a1.814 1.814 0 1 1-3.627-.003 1.814 1.814 0 0 1 3.627.003zm0 0" style="fill:none;stroke:red;stroke-width:.79701;stroke-linecap:butt;stroke-linejoin:miter;stroke-miterlimit:10;stroke-opacity:1" transform="matrix(1 0 0 -1 305.624 333.831)"/></g><g clip-path="url(#i)" style="clip-rule:nonzero" transform="translate(-2354.486 -167.07)"><path d="M92.524 68.034a1.814 1.814 0 1 1-3.627-.002 1.814 1.814 0 0 1 3.627.002zm0 0" style="fill:none;stroke:red;stroke-width:.79701;stroke-linecap:butt;stroke-linejoin:miter;stroke-miterlimit:10;stroke-opacity:1" transform="matrix(1 0 0 -1 305.624 333.831)"/></g><g clip-path="url(#g)" style="clip-rule:nonzero" transform="translate(-2143.289 -167.07)"><path d="M-88.897 68.034c0 1-.813 1.813-1.813 1.813a1.811 1.811 0 0 1-1.812-1.813 1.812 1.812 0 1 1 3.625 0zm0 0" style="fill:none;stroke:red;stroke-width:.79701;stroke-linecap:butt;stroke-linejoin:miter;stroke-miterlimit:10;stroke-opacity:1" transform="matrix(1 0 0 -1 305.624 333.831)"/></g><g clip-path="url(#h)" style="clip-rule:nonzero" transform="translate(-2143.289 -167.07)"><path d="M92.524-68.032a1.814 1.814 0 1 1-3.627-.003 1.814 1.814 0 0 1 3.627.003zm0 0" style="fill:none;stroke:red;stroke-width:.79701;stroke-linecap:butt;stroke-linejoin:miter;stroke-miterlimit:10;stroke-opacity:1" transform="matrix(1 0 0 -1 305.624 333.831)"/></g><g clip-path="url(#i)" style="clip-rule:nonzero" transform="translate(-2143.289 -167.07)"><path d="M92.524 68.034a1.814 1.814 0 1 1-3.627-.002 1.814 1.814 0 0 1 3.627.002zm0 0" style="fill:none;stroke:red;stroke-width:.79701;stroke-linecap:butt;stroke-linejoin:miter;stroke-miterlimit:10;stroke-opacity:1" transform="matrix(1 0 0 -1 305.624 333.831)"/></g></g><g style="display:inline"><path d="M663.928 75.247c-2.703 1.252-5.403 1.937-8.097 1.796-1.256-.063-2.062-.085-3.78-.447-4.256-1.177-7.633-2.998-10.366-6.71-.521-.708-1.102-2.093-1.533-2.859-.235-.885-.509-1.986-.625-2.895-.569-4.442 1.126-8.676 3.83-12.137.673-.863 1.5-1.593 2.251-2.39.851-.616 1.66-1.297 2.553-1.849 2.524-1.557 5.653-2.675 8.651-2.36.095.033.325.005.285.098-.355.83-.668.59-1.187.224-1.533-1.083-1.911-2.005-2.738-3.65-.17-.726-.422-1.437-.51-2.177-.52-4.361.59-9.008 2.69-12.702 1.594-2.935 2.973-4.632 5.215-7.16 5.441-5.623 8.71-7.239 13.983-9.531.925-.402 2.138-.604 3.087-.946 2.523-.683 5.2-.932 7.761-.432.747.146 1.494.324 2.205.594 1.828.694 2.137 1.124 3.626 2.309 1.115 1.094 1.973 2.379 2.638 3.784.115.244.194.505.305.75.04.09.25.259.151.255-.141-.005-.223-.174-.335-.261.834-1.422 1.646-2.791 2.594-4.104 1.665-1.902 2.55-3.096 4.424-4.485 5.565-4.158 9.98-5.37 14.333-6.064 3.548-.658 5.31-.815 8.921-.75 9.35.34 13.043 1.736 19.324 4.86 3.148 1.566 4.6 2.68 5.83 3.6 1.117.812 2.646 2.15 3.647 3.102 2.678 2.551 5.28 6.536 6.618 10.143 1.181 3.187 1.01 4.232 1.226 7.56-.137 1.179-.167 2.374-.411 3.534-.543 2.574-1.714 5.03-3.514 6.956-.716.766-1.141.996-1.946 1.53-.107.098-.187.238-.32.295-.102.043.11-.218.215-.25.141-.042.296.017.438.055.533.143 1.88.643 2.296.845.505.245.978.552 1.467.828 3.157 2.106 5.696 5.069 7.161 8.59.338.811.559 1.668.838 2.502.17.867.424 1.722.509 2.601.277 2.882-.318 5.76-1.585 8.35-1.17 2.395-1.867 3.019-3.522 5.055-1.879 1.57-2.503 2.401-4.6 3.566-1.727.959-3.802 2.008-5.664 2.646-2.677.918-3.617 1.063-6.372 1.862-2.696.613-5.486 1.22-8.292 1.14-.835-.022-1.934-.111-2.474-.914-.197-.294-.158-.69-.237-1.034.13-.315.204-.659.388-.945.372-.58 1.484-1.466 2.216-.805.253.23.415.587.436.928.028.464-.197.91-.296 1.364-.279.504-.492 1.05-.837 1.51-1.815 2.427-4.447 3.961-7.11 5.28-1.03.51-2.08.984-3.152 1.4-1.081.419-2.2.735-3.3 1.103-7.327 1.952-14.878 3.094-22.469 3.171-1.747.018-3.494-.083-5.24-.124-7.258-.54-14.48-1.875-21.288-4.501-4.196-1.619-4.746-2.1-8.547-4.238-2.403-1.785-3.78-2.622-5.784-4.745-1.115-1.181-2.002-2.305-2.406-3.887a7.689 7.689 0 0 1-.241-1.472l1.057-.03h.16c.01.408-.067.826.027 1.222.354 1.487.859 2.514 1.905 3.625 1.951 2.074 3.304 2.9 5.645 4.644 3.744 2.11 4.282 2.584 8.42 4.182 6.738 2.602 13.887 3.924 21.07 4.462 1.73.042 3.46.142 5.19.125 7.523-.075 15.006-1.205 22.268-3.134 1.078-.36 2.175-.668 3.234-1.078a38.167 38.167 0 0 0 3.098-1.372c2.546-1.256 5.058-2.704 6.821-4.995.312-.406.51-.888.766-1.332.01-.026.445-1.11.32-1.415-.31-.76-1.58.58-1.619.961-.01.186-.11.391-.028.558.353.714 1.337.73 1.966.75 2.75.086 5.485-.52 8.129-1.112 2.764-.802 3.64-.929 6.324-1.847 1.787-.612 3.854-1.654 5.515-2.573 2.008-1.108 2.633-1.924 4.43-3.412 1.602-1.962 2.267-2.552 3.406-4.856 1.215-2.456 1.803-5.202 1.548-7.942-.079-.848-.323-1.673-.484-2.51-.266-.8-.475-1.623-.797-2.403-1.4-3.39-3.835-6.246-6.866-8.28-1.466-.834-1.146-.736-2.637-1.285-.085-.031-1.686-.527-1.81-.669-.495-.565 0-.803.31-1.076.729-.477 1.127-.69 1.778-1.379 1.715-1.813 2.832-4.143 3.354-6.578.239-1.116.271-2.266.407-3.4-.196-3.194-.028-4.223-1.152-7.283-1.284-3.494-3.73-7.239-6.39-9.87-1.016-.892-2.48-2.258-3.572-3.055-1.208-.909-3.07-2.247-5.765-3.567-6.195-3.036-10.53-4.51-18.985-4.8-3.503-.237-6.14.203-8.948.732-4.948.955-8.496 1.916-14.053 5.982-3.783 2.807-4.856 5.16-6.879 8.547-.247.011-.505.113-.74.035-.104-.035-.41-.9-.473-1.035-.617-1.314-1.41-2.519-2.444-3.548-1.362-1.1-1.676-1.526-3.357-2.172-.68-.261-1.394-.432-2.109-.574-2.444-.488-5.004-.251-7.415.395-.923.33-2.109.521-3.008.911-5.176 2.244-9.023 4.272-13.732 9.327-2.125 2.06-3.415 3.935-5.136 7.038-2.019 3.54-3.091 8.015-2.63 12.203.075.683.302 1.342.452 2.013.63 1.281.681 1.653 1.617 2.65.242.257.526.474.813.68.173.125.464.116.56.306.587 1.152.163.89-.092.754-2.757-.329-5.828.813-8.138 2.226-.857.524-1.632 1.171-2.448 1.757-.724.762-1.521 1.46-2.171 2.286-2.589 3.289-4.239 7.308-3.734 11.548.101.848.345 1.895.557 2.722.395.718.944 2.05 1.426 2.713 2.62 3.601 5.865 5.345 9.967 6.49.752.146 2.507.423 3.696.436 3.122.035 5.11-.923 7.69-2.107l.352 1.047z" style="fill:#000;fill-opacity:1;stroke:none;stroke-width:1.2;stroke-linecap:square;stroke-linejoin:miter;stroke-miterlimit:4;stroke-dasharray:none;stroke-opacity:1" transform="translate(-576.66 8.865)"/><path d="M620.926 79.069c-.452.567-.982 1.08-1.356 1.702-2.246 3.735-3.744 9.113-1.746 13.276.45.936 1.243 1.664 1.864 2.496.872.529 1.668 1.212 2.616 1.586 4.103 1.62 8.786-.15 11.59-3.354.671-.766 1.08-1.728 1.62-2.592.099-.802.382-1.602.297-2.405-.491-4.69-4.564-7.748-8.288-9.97-.818-.488-1.683-.892-2.525-1.338-.893-.42-2.058-.874-2.88-1.512-.13-.102-.207-.26-.31-.389l.294-.508v0c.083.122.134.274.25.368.786.642 2.011 1.125 2.858 1.528 3.81 2.028 8.046 4.318 10.061 8.374.473.95.879 1.986.924 3.046.05 1.14-.433 2.239-.65 3.358-.557.863-.985 1.825-1.67 2.59-2.886 3.22-7.63 4.958-11.79 3.312-.968-.384-1.781-1.077-2.672-1.616-.638-.844-1.45-1.582-1.915-2.532-2.182-4.463-.356-10.31 2.058-14.282.381-.627.917-1.147 1.375-1.72v.582z" style="display:inline;opacity:1;fill:#000;fill-opacity:1;stroke:#000;stroke-width:.2;stroke-linecap:square;stroke-linejoin:miter;stroke-miterlimit:4;stroke-dasharray:none;stroke-opacity:1" transform="translate(-576.66 8.865)"/><path d="M624.458 98.598c-2.196-.293-4.11-1.352-5.49-3.038-.893-1.09-1.425-2.123-1.733-3.362-.305-1.224-.3-3.93.01-5.364.537-2.494 1.834-5.423 3.067-6.928.374-.456.68-.921.68-1.034 0-.239 1.478-1.491 1.687-1.43.077.022 1.148.544 2.38 1.159 6.416 3.205 9.751 6.499 10.574 10.442.292 1.4.055 2.68-.757 4.097-.829 1.445-1.321 2.027-2.547 3.007-2.3 1.84-5.342 2.788-7.87 2.451z" style="display:inline;opacity:1;fill:#e5f6ff;fill-opacity:1;stroke:#d4f6ff;stroke-width:.126579;stroke-linecap:square;stroke-linejoin:miter;stroke-miterlimit:4;stroke-dasharray:none;stroke-opacity:.862745" transform="translate(-576.66 8.865)"/><path d="M598.95 95.561c-2.16.287-4.225.965-5.103 3.165-.164.41-.17.868-.256 1.301.042.37 0 .76.126 1.113.608 1.733 2.795 2.321 4.419 2.322.48 0 .951-.115 1.427-.173.392-.187.833-.293 1.174-.56.193-.15.277-.408.36-.638.16-.446.34-.9.36-1.372.046-1.071-.396-2.264-.916-3.169-.273-.474-.65-.88-.975-1.32-1.31-1.17-.654-.685-1.934-1.5l.49-.435v0c1.298.859.631.352 1.964 1.565.855 1.163 1.282 1.54 1.707 2.966.266.89.463 2.243-.063 3.126-.752 1.265-1.38 1.354-2.551 1.854-.487.048-.972.153-1.46.144-1.73-.035-3.935-.703-4.586-2.519-.132-.37-.096-.779-.144-1.168.079-.456.078-.933.238-1.366.772-2.093 3.084-3.292 5.145-3.717.338-.069.685-.08 1.028-.12l-.45.501z" style="display:inline;opacity:1;fill:#000;fill-opacity:1;stroke:#000;stroke-width:.1;stroke-linecap:square;stroke-linejoin:miter;stroke-miterlimit:4;stroke-dasharray:none;stroke-opacity:1" transform="translate(-576.66 8.865)"/><path d="M596.752 103.287c-1.416-.302-2.435-.976-2.893-1.913-.354-.723-.242-2.14.242-3.07.707-1.358 2.004-2.176 4.103-2.587l.65-.127.56.59c1.077 1.134 1.715 2.361 1.94 3.73.115.705.114.747-.03 1.33a7.564 7.564 0 0 1-.338 1.024c-.183.412-.203.43-.79.702-.333.154-.82.316-1.083.36-.653.11-1.744.092-2.361-.04z" style="display:inline;opacity:1;fill:#e5f6ff;fill-opacity:1;stroke:none;stroke-width:.2;stroke-linecap:square;stroke-linejoin:miter;stroke-miterlimit:4;stroke-dasharray:none;stroke-opacity:1" transform="translate(-576.66 8.865)"/><path d="M696.672 90.701c-4.452-.198-10.334-1.055-14.587-2.125-7.269-1.829-13.2-4.464-17.828-7.922-1.779-1.33-3.927-3.238-4.183-3.718-.096-.18.03-.25.944-.527.897-.271 2.76-.973 2.91-1.096.077-.063-.251-1.13-.348-1.13-.05 0-.596.225-1.216.5-1.8.799-3.045 1.204-3.145 1.024-.273-.486-.702-2.078-.702-2.6v-.612h-.607c-.385 0-.628.057-.666.156-.106.276.302 1.908.665 2.664.193.403.328.755.3.783-.028.028-.716.075-1.529.106-5.654.21-11.604-2.672-14.486-7.014-2.215-3.338-2.579-7.75-.98-11.893 2.04-5.284 6.854-9.602 12.11-10.863 1.056-.253 2.936-.355 3.52-.191.303.085.315.07.304-.375-.011-.42-.057-.484-.483-.669-.685-.296-1.764-1.447-2.27-2.42-.772-1.483-.989-2.575-.995-5.003-.01-2.264.1-3.103.659-5.244.585-2.237 1.283-3.807 2.892-6.5 1.303-2.18 2.101-3.227 4.009-5.254 4.142-4.402 7.336-6.65 12.988-9.137 1.557-.685 4.304-1.491 6.027-1.769 1.473-.237 3.795-.237 5.08 0 2.089.387 3.416.96 4.841 2.093 1.453 1.155 2.607 2.7 3.41 4.563.28.651.366.753.64.752.173-.001.373-.042.443-.09.071-.05.58-.849 1.131-1.777 1.921-3.234 3.36-4.916 5.696-6.659 4.873-3.637 8.57-5.136 15.649-6.345 2.878-.492 4.813-.602 7.874-.447 7.098.36 10.961 1.268 16.743 3.93 4.524 2.084 7.594 4.154 10.988 7.41 2.118 2.031 4.073 4.737 5.443 7.532 1.423 2.906 1.914 4.716 2.103 7.757.283 4.563-.789 8.362-3.176 11.255-.377.456-1.097 1.11-1.664 1.513-.833.591-1.006.77-1.036 1.075-.02.2.034.42.12.486.087.067.673.298 1.303.514 1.472.505 2.189.847 3.277 1.562 3.269 2.147 5.935 5.635 7.155 9.361 1.385 4.227 1.163 7.764-.726 11.614-1.135 2.312-2.62 4.203-4.697 5.982-1.81 1.549-2.546 2.02-5.19 3.32-2.464 1.213-3.939 1.746-7.645 2.763-4.052 1.111-7.276 1.692-9.392 1.692-.8 0-.883-.021-.807-.21.504-1.257.542-2.041.124-2.539-.377-.447-.633-.515-1.204-.319-.956.329-1.714 1.451-1.562 2.315.101.579.349.97.721 1.14.163.074.295.2.295.28 0 .278-2.06 2.119-3.224 2.88-3.04 1.986-6.696 3.574-10.58 4.594-8.194 2.154-17.471 3.187-25.436 2.832z" style="fill:#e5f6ff;fill-opacity:1;stroke:#e5f6ff;stroke-width:.525;stroke-linecap:square;stroke-linejoin:miter;stroke-miterlimit:4;stroke-dasharray:none;stroke-opacity:1" transform="translate(-576.66 8.865)"/><path d="M-669.994 204.537c-.526-.535-.915-1.195-.831-1.412.133-.347.863.009 1.2.584.245.417.384 1.19.23 1.284-.05.032-.318-.172-.599-.456z" style="display:inline;opacity:1;fill:#d4f6ff;fill-opacity:.8627451;stroke:none;stroke-width:1.20000005;stroke-linecap:square;stroke-linejoin:miter;stroke-miterlimit:4;stroke-dasharray:none;stroke-opacity:1" transform="translate(816.847 -114.527)"/><g style="display:inline"><g style="fill:#000;fill-opacity:1"><use xlink:href="#j" width="100%" height="100%" x="314.324" y="156.682" style="fill:#000" transform="translate(-566.702 -264.055) scale(2.09898)"/></g><g style="fill:#000;fill-opacity:1"><use xlink:href="#k" width="100%" height="100%" x="320.961" y="156.682" style="fill:#000" transform="translate(-566.702 -264.055) scale(2.09898)"/></g><g style="fill:#000;fill-opacity:1"><use xlink:href="#l" width="100%" height="100%" x="332.41" y="156.682" style="fill:#000" transform="translate(-566.702 -264.055) scale(2.09898)"/></g><g style="fill:#000;fill-opacity:1"><use xlink:href="#m" width="100%" height="100%" x="336.634" y="152.568" style="fill:#000" transform="translate(-566.11 -264.055) scale(2.09898)"/></g><g style="fill:#000;fill-opacity:1"><use xlink:href="#n" width="100%" height="100%" x="339.16" y="156.682" style="fill:#000" transform="translate(-567.502 -264.055) scale(2.09898)"/></g><g style="fill:#000;fill-opacity:1"><use xlink:href="#o" width="100%" height="100%" x="343.025" y="156.682" style="fill:#000" transform="translate(-567.502 -264.055) scale(2.09898)"/></g><g style="fill:#000;fill-opacity:1"><use xlink:href="#p" width="100%" height="100%" x="347.478" y="156.682" style="fill:#000" transform="translate(-567.502 -264.055) scale(2.09898)"/></g></g></g></svg>