<svg xmlns="http://www.w3.org/2000/svg" xmlns:xlink="http://www.w3.org/1999/xlink" width="650" height="300"><defs><symbol id="c" overflow="visible" style="overflow:visible"><path d="M2.953-4.266h-.797l.281-1.03v-.048c0-.062-.03-.093-.078-.093-.062 0-.093 0-.14.078-.39.515-1.016 1.015-1.328 1.109-.25.078-.329.14-.329.25 0 0 0 .016.016.047h.735l-.72 2.75c-.015.094-.03.11-.062.203-.078.297-.156.656-.156.734 0 .22.203.375.469.375.469 0 .797-.28 1.422-1.203l-.125-.078c-.5.64-.657.797-.813.797-.094 0-.156-.078-.156-.203 0-.016 0-.016.016-.047l.875-3.328h.843zm0 0" style="stroke:none"/></symbol><symbol id="a" overflow="visible" style="overflow:visible"><path d="m4.734-1.36-.125-.062c-.375.578-.5.672-.953.672H1.281l1.672-1.766c.89-.921 1.281-1.687 1.281-2.453 0-1-.812-1.765-1.859-1.765-.547 0-1.063.218-1.422.609-.328.344-.469.656-.64 1.375l.203.047C.922-5.687 1.28-6 1.969-6c.828 0 1.406.563 1.406 1.406 0 .782-.469 1.703-1.297 2.594L.297-.125V0h3.89Zm0 0" style="stroke:none"/></symbol><symbol id="b" overflow="visible" style="overflow:visible"><path d="M6.563-2.297c.171 0 .359 0 .359-.203 0-.188-.188-.188-.36-.188h-5.39c-.172 0-.344 0-.344.188 0 .203.172.203.344.203zm0 0" style="stroke:none"/></symbol></defs><g transform="translate(-3.157 -434.366)"><path d="M428.059 610.375v-125.88M428.059 724.264v-93.913M378.105 724.264V484.495M328.157 724.264V484.495M278.203 724.264V484.495M228.25 610.375v-125.88M228.25 724.264v-93.913M322.658 504.471h125.384M208.266 504.471h100.907M208.266 554.426h239.776M208.266 604.38h239.776M208.266 654.334h239.776M320.166 704.281h127.876M208.266 704.281h88.42" style="fill:none;stroke:#9e9ed1;stroke-width:.35;stroke-linecap:butt;stroke-linejoin:miter;stroke-miterlimit:10;stroke-dasharray:none;stroke-opacity:1"/><path d="M208.266 604.38h239.776M328.157 724.264V484.495" style="fill:none;stroke:#000;stroke-width:.702236;stroke-linecap:butt;stroke-linejoin:miter;stroke-miterlimit:10;stroke-opacity:1"/><use xlink:href="#a" width="100%" height="100%" x="356.963" y="332.204" style="fill:#b0b0d9;fill-opacity:1" transform="matrix(1.7622 0 0 1.7622 -205.368 40.828)"/><use xlink:href="#b" width="100%" height="100%" x="239.705" y="331.79" style="fill:#b0b0d9;fill-opacity:1" transform="matrix(1.7622 0 0 1.7622 -205.368 40.828)"/><use xlink:href="#a" width="100%" height="100%" x="247.505" y="331.79" style="fill:#b0b0d9;fill-opacity:1" transform="matrix(1.7622 0 0 1.7622 -205.368 40.828)"/><use xlink:href="#a" width="100%" height="100%" x="293.75" y="266.439" style="fill:#b0b0d9;fill-opacity:1" transform="matrix(1.7622 0 0 1.7622 -205.368 40.828)"/><use xlink:href="#b" width="100%" height="100%" x="285.627" y="379.412" style="fill:#b0b0d9;fill-opacity:1" transform="matrix(1.7622 0 0 1.7622 -205.368 40.828)"/><use xlink:href="#a" width="100%" height="100%" x="293.427" y="379.412" style="fill:#b0b0d9;fill-opacity:1" transform="matrix(1.7622 0 0 1.7622 -205.368 40.828)"/><path d="M448.042 604.38h9.988M328.157 484.495v-8.722" style="fill:none;stroke:#000;stroke-width:.702236;stroke-linecap:butt;stroke-linejoin:miter;stroke-miterlimit:10;stroke-opacity:1"/><path d="M457.858 604.38h-.964" style="fill:none;stroke:#000;stroke-width:1.22894;stroke-linecap:butt;stroke-linejoin:miter;stroke-miterlimit:10;stroke-opacity:1"/><path d="M454.313 600.938c.213 1.287 2.581 3.228 3.228 3.442-.647.213-3.015 2.147-3.228 3.442M324.716 478.217c1.287-.213 3.221-2.58 3.441-3.221.214.64 2.148 3.008 3.442 3.221" style="fill:none;stroke:#000;stroke-width:.98313;stroke-linecap:round;stroke-linejoin:round;stroke-miterlimit:10;stroke-opacity:1"/><path d="M208.266 487.793c25.592 48.075 50.842 96.354 77.93 143.612 4.542 7.813 9.162 15.582 13.987 23.225 6.651 10.292 13.42 20.691 22.25 29.278 5.51 5.38 12.482 9.623 20.259 10.469 8.972 1.037 17.902-1.29 26.423-3.876 4.713-1.54 9.367-3.252 13.987-5.046 10.338-4.147 20.533-8.643 30.62-13.366 7.925-3.632 15.77-7.432 23.624-11.213 3.566-1.731 7.118-3.492 10.696-5.199" style="fill:none;stroke:red;stroke-width:1.40449;stroke-linecap:butt;stroke-linejoin:miter;stroke-miterlimit:10;stroke-opacity:1"/><use xlink:href="#c" width="100%" height="100%" x="148.44" y="134.76" style="fill:#000;fill-opacity:1" transform="matrix(1.94605 0 0 1.94605 179.503 346.11)"/><g style="fill:#000;fill-opacity:1;stroke:#000;stroke-width:.051386;stroke-dasharray:none"><path d="M2.547 2.5v-.406h-.969v-9.172h.969v-.406H1.172V2.5Zm0 0" style="stroke:#000;stroke-width:.051386;stroke-dasharray:none" transform="matrix(1.94605 0 0 1.94605 479.93 608.715)"/></g><g style="fill:#000;fill-opacity:1;stroke:#000;stroke-width:.051386;stroke-dasharray:none"><path d="M1.578-7.484H.218v.406h.97v9.172h-.97V2.5h1.36zm0 0" style="stroke:#000;stroke-width:.051386;stroke-dasharray:none" transform="matrix(1.94605 0 0 1.94605 492.774 608.715)"/></g><g style="font-size:13.252px;line-height:0%;letter-spacing:0;word-spacing:0;stroke:#000;stroke-width:.0709342;stroke-dasharray:none"><path d="M561.831 564.802v-2.03h.295q.513 1.758 1.834 1.758.574 0 .853-.347.287-.347.287-.762 0-.483-.302-.793-.31-.31-1.2-.747-.936-.46-1.344-.906-.408-.438-.408-1.08 0-.611.438-1.162.438-.559 1.23-.559.809 0 1.337.657.113-.113.294-.551h.28v1.91h-.28q-.15-.687-.588-1.178-.43-.498-1.02-.498-.452 0-.732.28-.28.278-.28.648 0 .408.31.702.302.302 1.155.687 1.284.582 1.57 1.133.288.558.288 1.072 0 .807-.536 1.313-.529.506-1.337.506-.853 0-1.517-.702-.204.226-.332.65z" aria-label="s" style="font-size:15.4607px;line-height:1.25;font-family:Baskerville;-inkscape-font-specification:Baskerville;stroke:#000;stroke-width:.0709342;stroke-dasharray:none" transform="matrix(1.40976 0 0 1.40976 -305.678 -187.335)"/></g><g style="fill:#000;fill-opacity:1;stroke:#000;stroke-width:.051386;stroke-dasharray:none;stroke-opacity:1"><g style="stroke:#000;stroke-width:.051386;stroke-dasharray:none;stroke-opacity:1"><path d="M2.547 2.5v-.406h-.969v-9.172h.969v-.406H1.172V2.5Zm0 0" style="stroke:#000;stroke-width:.051386;stroke-dasharray:none" transform="matrix(1.94605 0 0 1.94605 323.987 458.137)"/></g></g><g style="fill:#000;fill-opacity:1;stroke:#000;stroke-width:.051386;stroke-dasharray:none;stroke-opacity:1"><g style="stroke:#000;stroke-width:.051386;stroke-dasharray:none;stroke-opacity:1"><path d="M1.578-7.484H.218v.406h.97v9.172h-.97V2.5h1.36zm0 0" style="stroke:#000;stroke-width:.051386;stroke-dasharray:none" transform="matrix(1.94605 0 0 1.94605 347.987 458.137)"/></g></g><g style="font-size:13.252px;line-height:0%;letter-spacing:0;word-spacing:0;stroke:#000;stroke-width:.0709342;stroke-dasharray:none;stroke-opacity:1"><path d="M285.31 448.83h.075q.22.505.22 1.298.505-.65 1.086-.974.589-.325 1.26-.325.763 0 1.239.348.476.347.664 1.042.574-.695 1.178-1.042.604-.348 1.23-.348.718 0 1.216.333.498.332.604.755.106.422.106 1.366v1.857q0 1.08.037 1.314.046.234.242.347.204.113.747.113v.347h-3.087v-.347q.49 0 .687-.106.203-.113.249-.332.045-.226.045-1.336v-2.06q0-.627-.075-.944-.068-.318-.37-.544-.302-.227-.785-.227-.491 0-.99.333-.49.332-.988 1.004v2.438q0 .989.022 1.246.03.249.212.392.188.136.664.136v.347h-2.99v-.347q.506 0 .703-.106.203-.105.249-.324.052-.22.052-1.344v-1.714q0-.815-.067-1.177-.06-.37-.385-.627-.325-.264-.808-.264-.468 0-.959.302-.483.302-.989.906v2.574q0 1.02.03 1.268.03.25.227.378.196.128.702.128v.347h-3.027v-.347q.498 0 .694-.106.204-.113.25-.332.045-.219.045-1.336v-1.85q0-1.056-.038-1.29-.03-.242-.234-.363-.196-.12-.717-.12v-.348q1.072-.105 1.774-.34z" aria-label="m" style="font-size:15.4607px;line-height:1.25;font-family:Baskerville;-inkscape-font-specification:Baskerville;stroke:#000;stroke-width:.0709342;stroke-dasharray:none;stroke-opacity:1" transform="matrix(1.40976 0 0 1.40976 -69.009 -183.764)"/></g><g style="fill:#000;fill-opacity:1;stroke:#000;stroke-width:.051386;stroke-dasharray:none;stroke-opacity:1"><path d="M.156-3.984c.125-.032.188-.047.297-.047.578 0 .719.25 1.188 1.968.156.641.406 1.813.406 1.985 0 .156-.063.312-.219.5-.297.406-.5.672-.61.781C1 1.422.892 1.5.75 1.5c-.047 0-.125-.031-.234-.11-.141-.109-.25-.171-.36-.171a.387.387 0 0 0-.39.39c0 .25.218.438.5.438.64 0 1.953-1.485 3.03-3.469.673-1.219.954-1.937.954-2.422a.554.554 0 0 0-.547-.547c-.234 0-.39.141-.39.36 0 .156.078.265.28.39.188.11.25.204.25.344 0 .39-.359 1.172-1.218 2.578l-.188-1.156c-.156-.875-.718-2.516-.859-2.516h-.125l-.984.172a1.759 1.759 0 0 1-.313.063zm0 0" style="stroke:#000;stroke-width:.051386;stroke-dasharray:none;stroke-opacity:1" transform="matrix(1.94605 -.0022 .0022 1.94605 309.935 457.701)"/></g><g style="fill:#000;fill-opacity:1;stroke:#000;stroke-width:.0540451;stroke-dasharray:none"><path d="M.156-3.984c.125-.032.188-.047.297-.047.578 0 .719.25 1.188 1.968.156.641.406 1.813.406 1.985 0 .156-.063.312-.219.5-.297.406-.5.672-.61.781C1 1.422.892 1.5.75 1.5c-.047 0-.125-.031-.234-.11-.141-.109-.25-.171-.36-.171a.387.387 0 0 0-.39.39c0 .25.218.438.5.438.64 0 1.953-1.485 3.03-3.469.673-1.219.954-1.937.954-2.422a.554.554 0 0 0-.547-.547c-.234 0-.39.141-.39.36 0 .156.078.265.28.39.188.11.25.204.25.344 0 .39-.359 1.172-1.218 2.578l-.188-1.156c-.156-.875-.718-2.516-.859-2.516h-.125l-.984.172a1.759 1.759 0 0 1-.313.063zm0 0" style="stroke:#000;stroke-width:.0540451;stroke-dasharray:none" transform="scale(1.8503) rotate(61.404 -178.76 224.671)"/></g><g style="fill:#000;fill-opacity:1;stroke:#000;stroke-width:.0540451;stroke-dasharray:none"><path d="M6.844-3.266c.156 0 .343 0 .343-.187 0-.203-.187-.203-.328-.203H.891c-.141 0-.329 0-.329.203 0 .187.188.187.329.187zm.015 1.938c.141 0 .329 0 .329-.203 0-.188-.188-.188-.344-.188H.89c-.141 0-.329 0-.329.188 0 .203.188.203.329.203zm0 0" style="stroke:#000;stroke-width:.0540451;stroke-dasharray:none" transform="scale(1.8503) rotate(61.404 -182.06 230.228)"/></g><g style="fill:#000;fill-opacity:1;stroke:#000;stroke-width:.0540451;stroke-dasharray:none"><path d="M.344-3.953h.906L.375.234C.156 1.313-.172 1.86-.594 1.86c-.125 0-.203-.078-.203-.171 0-.016.016-.047.047-.11a.264.264 0 0 0 .047-.156c0-.203-.188-.375-.39-.375-.22 0-.376.172-.376.406 0 .344.36.61.797.61.875 0 1.578-.985 1.985-2.813l.718-3.203h1.094l.063-.313H2.109c.282-1.562.657-2.28 1.204-2.28.14 0 .218.062.218.124 0 .031 0 .047-.031.11a.344.344 0 0 0-.063.203c0 .234.157.39.376.39.218 0 .421-.172.421-.39 0-.375-.375-.657-.859-.657-.5 0-.875.22-1.234.688-.313.39-.5.86-.813 1.812H.422zm0 0" style="stroke:#000;stroke-width:.0540451;stroke-dasharray:none" transform="scale(1.8503) rotate(61.404 -187.76 239.828)"/></g><g style="fill:#000;fill-opacity:1;stroke:#000;stroke-width:.0540451;stroke-dasharray:none"><path d="M3.297 2.39c0-.03 0-.046-.172-.218C1.891.922 1.562-.968 1.562-2.5c0-1.734.375-3.469 1.61-4.703.125-.125.125-.14.125-.172 0-.078-.031-.11-.094-.11-.11 0-1 .688-1.594 1.954C1.11-4.438.984-3.328.984-2.5c0 .781.11 1.984.657 3.125C2.25 1.844 3.094 2.5 3.203 2.5c.063 0 .094-.031.094-.11zm0 0" style="stroke:#000;stroke-width:.0540451;stroke-dasharray:none" transform="scale(1.8503) rotate(61.404 -189.86 243.364)"/></g><g style="fill:#000;fill-opacity:1;stroke:#000;stroke-width:.0540451;stroke-dasharray:none"><path d="M2.953-4.266h-.797l.281-1.03v-.048c0-.062-.03-.093-.078-.093-.062 0-.093 0-.14.078-.39.515-1.016 1.015-1.328 1.109-.25.078-.329.14-.329.25 0 0 0 .016.016.047h.735l-.72 2.75c-.015.094-.03.11-.062.203-.078.297-.156.656-.156.734 0 .22.203.375.469.375.469 0 .797-.28 1.422-1.203l-.125-.078c-.5.64-.657.797-.813.797-.094 0-.156-.078-.156-.203 0-.016 0-.016.016-.047l.875-3.328h.843zm0 0" style="stroke:#000;stroke-width:.0540451;stroke-dasharray:none" transform="scale(1.8503) rotate(61.404 -191.66 246.396)"/></g><g style="fill:#000;fill-opacity:1;stroke:#000;stroke-width:.0540451;stroke-dasharray:none"><path d="M2.875-2.5c0-.766-.11-1.969-.656-3.11C1.625-6.827.766-7.483.672-7.483a.107.107 0 0 0-.11.109c0 .031 0 .047.188.234.984.985 1.547 2.563 1.547 4.641 0 1.719-.36 3.469-1.594 4.719-.14.125-.14.14-.14.172 0 .062.046.109.109.109.094 0 1-.688 1.578-1.953.516-1.094.625-2.203.625-3.047Zm0 0" style="stroke:#000;stroke-width:.0540451;stroke-dasharray:none" transform="scale(1.8503) rotate(61.404 -193.4 249.326)"/></g></g></svg>