<svg xmlns="http://www.w3.org/2000/svg" xmlns:xlink="http://www.w3.org/1999/xlink" id="svg2634" width="1030" height="535" preserveAspectRatio="none" version="1.1" viewBox="-65 -47.463 1030 535"><style id="style2422" type="text/css">.grid{stroke:#9e9ed1;stroke-width:.4}.axes{stroke:#000;stroke-width:.9}.axes-arrows{stroke-width:1.1;stroke:#000;fill:none;stroke-linecap:round;stroke-linejoin:round}.axes-labels{stroke:none;fill:#000}.none{display:none}.pink-panther{stroke:red;fill:none;stroke-width:1.5}</style><defs id="defs2437"><path id="STIXWEBNORMALI-1D461" stroke-width="1" d="m283 438-10-38h-70L125 80c-1-3-2-8-2-11 0-6 3-12 16-12 0 0 23 2 60 52l13-11C188 67 138-9 79-9 48-9 40 16 40 43c0 13 2 26 5 37l81 320H49l5 29c75 14 136 51 177 138h13l-31-129Z"/><path id="STIXWEBMAIN-5B" stroke-width="1" d="M299-156H88v818h211v-25h-83c-34 0-52-12-52-48V-77c0-40 19-54 52-54h83z"/><path id="STIXWEBMAIN-5D" stroke-width="1" d="M245-156H34v25h88c35 0 47 15 47 46v668c0 35-13 54-51 54H34v25h211z"/><path id="STIXWEBMAIN-2F" stroke-width="1" d="M287 676 59-14H-9l229 690z"/><path id="STIXWEBMAIN-32" stroke-width="1" d="M474 137 420 0H29v12l178 189c94 99 130 175 130 260 0 91-54 141-139 141-72 0-107-32-147-130l-21 5c21 117 85 199 208 199 113 0 185-77 185-176 0-79-39-154-128-248L130 76h234c42 0 63 11 96 67z"/><path id="STIXWEBMAIN-30" stroke-width="1" d="M476 330c0-172-63-344-226-344C79-14 24 172 24 336c0 177 69 340 230 340 131 0 222-141 222-346Zm-96-5c0 208-44 325-132 325-83 0-128-118-128-321S164 12 250 12c85 0 130 115 130 313z"/><path id="STIXWEBMAIN-35" stroke-width="1" d="m438 681-36-85c-3-7-11-13-27-13H181l-40-85c143-27 193-49 250-128 26-36 35-74 35-127 0-96-30-158-98-208-47-34-102-49-170-49C83-14 31 10 31 48c0 25 17 38 45 38 23 0 42-5 74-31 28-23 51-32 71-32 70 0 135 83 135 169 0 64-22 114-67 150-47 38-117 70-213 70-9 0-12 2-12 8 0 2 1 5 1 5l109 237h207c23 0 32 5 48 26z"/><path id="STIXWEBMAIN-33" stroke-width="1" d="m61 510-16 4c29 95 92 162 196 162 93 0 156-55 156-137 0-48-26-98-93-138 44-19 62-31 83-53 28-31 44-77 44-129 0-53-17-102-46-140-48-64-143-93-232-93C80-14 41 7 41 43c0 21 18 36 41 36 17 0 33-6 61-26 37-26 58-31 86-31 74 0 130 68 130 153 0 76-35 125-104 145-22 7-45 10-102 10v14c38 13 64 24 84 36 49 28 81 73 81 134 0 68-42 102-108 102-62 0-108-32-149-106z"/><path id="STIXWEBMAIN-34" stroke-width="1" d="M473 167H370V0h-78v167H12v64l314 445h44V231h103Zm-181 64v343L52 231Z"/><path id="STIXWEBMAIN-2212" stroke-width="1" d="M621 220H64v66h557z"/><path id="STIXWEBMAIN-38" stroke-width="1" d="M445 155c0-103-77-169-197-169C135-14 56 55 56 149c0 69 23 108 130 183C83 417 62 455 62 520c0 96 83 156 194 156 99 0 168-65 168-143 0-75-35-109-134-162 123-82 155-136 155-216Zm-90 378c0 69-41 115-109 115-67 0-110-37-110-99s37-108 125-160c68 40 94 82 94 144zm-84-261-59 40c-59-48-80-89-80-154 0-92 51-144 127-144 65 0 110 45 110 110 0 62-30 102-98 148z"/><path id="STIXWEBMAIN-37" stroke-width="1" d="M449 646 237-8h-65l198 596H155c-58 0-75-14-117-82l-18 9 60 147h369z"/><path id="STIXWEBMAIN-36" stroke-width="1" d="m446 684 2-16c-157-26-269-134-296-285 49 38 83 45 127 45 117 0 189-80 189-209 0-64-18-120-51-160-37-46-93-73-159-73-79 0-142 37-177 101-28 51-47 122-47 192 0 108 38 203 109 276 86 90 165 114 303 129zm-68-496c0 128-42 194-135 194-57 0-116-24-116-116 0-152 48-252 142-252 72 0 109 72 109 174z"/></defs><g id="grid"><path id="path2439" d="M-6.198 476V0" class="grid"/><path id="path2441" d="M33.802 476V260.76m0-17.841V0" class="grid"/><path id="path2443" d="M73.802 476V0" class="grid"/><path id="path2445" d="M113.802 476V0" class="grid"/><path id="path2447" d="M153.802 476V0" class="grid"/><path id="path2449" d="M193.802 476V0" class="grid"/><path id="path2451" d="M233.802 476V261.612m0-18.693V0" class="grid"/><path id="path2453" d="M273.802 476V0" class="grid"/><path id="path2455" d="M313.802 476V0" class="grid"/><path id="path2457" d="M353.802 476V0" class="grid"/><path id="path2459" d="M393.802 476V0" class="grid"/><path id="path2461" d="M433.802 476V260.76m0-17.841V0" class="grid"/><path id="path2463" d="M473.802 476V0" class="grid"/><path id="path2465" d="M513.802 476V0" class="grid"/><path id="path2467" d="M553.802 476V0" class="grid"/><path id="path2469" d="M593.802 476V0" class="grid"/><path id="path2471" d="M633.802 476V261.612m0-18.693V0" class="grid"/><path id="path2473" d="M673.802 476V0" class="grid"/><path id="path2475" d="M713.802 476V0" class="grid"/><path id="path2477" d="M753.802 476V0" class="grid"/><path id="path2479" d="M793.802 476V0" class="grid"/><path id="path2481" d="M833.802 476V260.76m0-17.841V0" class="grid"/><path id="path2483" d="M873.802 476V0" class="grid"/><path id="path2485" d="M-26.198 462h29.49m24.772 0h865.738" class="grid"/><path id="path2487" d="M-26.198 434h29.49m24.772 0h865.738" class="grid"/><path id="path2489" d="M-26.198 406H3.29m24.774 0h865.738" class="grid"/><path id="path2491" d="M-26.198 378h920" class="grid"/><path id="path2493" d="M-26.198 350h920" class="grid"/><path id="path2495" d="M-26.198 322h920" class="grid"/><path id="path2497" d="M-26.198 294h920" class="grid"/><path id="path2499" d="M-26.198 266h920" class="grid"/><path id="path2501" d="M-26.198 238h920" class="grid"/><path id="path2503" d="M-26.198 210h920" class="grid"/><path id="path2505" d="M-26.198 182h920" class="grid"/><path id="path2507" d="M-26.198 154h920" class="grid"/><path id="path2509" d="M-26.198 126h920" class="grid"/><path id="path2511" d="M-26.198 98h920" class="grid"/><path id="path2513" d="M-26.198 70h40.591m13.67 0h865.74" class="grid"/><path id="path2515" d="M-26.198 42h40.594m13.668 0h865.738" class="grid"/><path id="path2517" d="M-26.198 14h40.594m13.668 0h865.738" class="grid"/><path id="path523" d="M908.862 787.354H985.742l.68-190.621.64-5.175 1.756 9.414 2.196-.989 1.76 14.55 1.956 10.194 1.716 4.082 2.036 14.76 2 20.215 1.916 13.673 1.996 25.592 1.676 14.128 2.156 25.962 1.84 15.585 1.996 24.539.52 4.09h33.108l.916 3.282 1.72 20.802 1.996 22.478 1.996 25.264 1.72 14.264 2.156 22.475 1.636 12.539 2.196 23.564 1.916 6.065 1.76 19.245 1.916 6.952 1.996 6.65 1.996 5.776 1.68-.551 1.316 5.323.68-1.216 1.996-3.362 1.68 3.508 2.236-.546 1.796.784 1.956-4.841 1.92 9.005 1.756-5.626 2.116 1.165.2-192.998h22.16l.64 188.356.04-188.356h67.96l.436 191.299 1.304-2.795 1.94 1.77 1.94.487 1.976-.112 1.98 1.512 1.66-6.345 2.136 3.78 1.148-.131.2-189.465h5.04l.68-195.23.596 8 1.956-7.216 1.912.425 1.756 3.999 2.152-5.8 1.832 5.929 1.872-1.532 2.076 4.292 1.752-5.468 1.952 1.901 1.992-.753 1.716 4.474 2.072-2.088 1.716.313 1.872-5.897 2.232 6.312 1.276-4.83.436 4.93 2.116-2.052 1.912 8.002 1.752 8.3 1.996 2.19 1.872 15.4 1.752 8.67 1.956 21.748.796-2.273.2 128.254h1.56l1.04-116.301 1.144 11.998 1.928 13.4 1.656 20.488 2.128 23.985 1.656 20.14 2.168 22.67.2 3.62.356-190.985.916-5.225 1.668 7.87 1.984-3.55 1.944-2.565 1.988 5.78 1.664-3.192.08-.141" style="fill:none;stroke:red;stroke-width:1.5"/><path id="path533" d="m933.942 787.353.52 193.39.876-6.193 1.756 6.68 1.952.413 1.796-4.517 2.152 4.066 1.756-7.12 2.072 6.51 1.916 1.825 1.672-2.752 2.116-6.774 1.832 6.992 1.876-4.656 2.072 2.41 1.716-4.852 1.992 6.384 1.996-4.79 1.672 5.862 2.116-5.434 1.872 7.652 1.956-7.585 1.712 4.877 2.156 1.804 1.832-4.234 1.956-4.158 1.992 5.356 1.716-3.116 1.992-.67.2-187.37h.4l.12 187.774.04-187.774.68 6.468.64 8.353 1.756 19.815 2.196 24.618 1.76 14.437 1.956 18.715 1.716 21.815 2.036 18.659 2 8.095 1.916 20.815 1.996 5.102 1.676 11.342 2.156 1.899 1.84 10.39 1.996-.599.52 2.873 1.156-7.042 2.196 8.745 1.8-6.326 1.956 6.292 1.996-.297 1.76-8.884 1.916 8.4 1.996-8.325 1.756 6.3 1.92-2.242 1.996 1.688 1.996.062 1.716 3.584 2.156-9.37 1.8 4.7 1.956-4.064 1.876 7.502 1.16-2.417.916-5.202 1.72.507 1.996-6.384 1.996-.877 1.72-11.58 2.156-6.956 1.636-15.282 2.196-13.451 1.916-18.506 1.76-13.283 1.916-22 1.996-24.945 1.996-14.422 1.68-23.72 1.316-14.262.68-.74h38.496l.8-188.742.52 1 1.956-2.607 2.032 4.082 1.716-4.782 2.076 5.95 1.836-6.272 1.756 1.999 2.196.143 1.756 2.066 1.952-3.54 1.956 2.644 1.796-1.411 2.076 2.215 1.636-.543 2.196-1.834 1.716 2.61 2.072-6.536 1.676 8.03 2.236-8.22 1.916.238 1.716 5.278 1.956-3.822 1.992 8.156 1.716-8.985 2.196 4.443 1.756-2.92 1.996 4.264 1.756-6.403 2.156 6.826 1.756 2.358 2.032-2.092 1.956-4.197 1.636 3.744 2.156-6.183 1.836 5.471 1.276-4.65.2 192.222H1230.914l.436 6.306 2.116 23.486 1.912 19.782 1.752 18.545 1.996 25.553 1.872 13.93 1.752 23.083 1.956 7.683.796 9.881.2-148.249h1.56l1.04 147.468 1.144 8.546 1.928 18.855 1.656 9.002 2.128-1.77 1.656 12.208 2.168-1.296.2-193.013h10.6" style="fill:none;stroke:#00d070;stroke-width:1.5"/></g><g id="axes"><path id="path2520" d="M-26.198 238H901.18" class="axes"/><path id="path2522" d="M33.802 476V260.76m0-17.841V-6.558" class="axes"/></g><g id="axes arrows"><path id="path2525" d="M897.245 233.081c0 1.968 2.951 4.919 3.935 4.919-.984 0-3.935 2.951-3.935 4.919" class="axes-arrows"/><path id="path2527" d="M28.883-2.623c1.968 0 4.92-2.952 4.92-3.935 0 .983 2.95 3.935 4.918 3.935" class="axes-arrows"/></g><g id="axes labels"><g id="g2540" class="axes-labels" transform="matrix(.01904 0 0 -.01904 917.576 242.509)"><use xlink:href="#STIXWEBNORMALI-1D461" id="use2530" x="0" y="0"/><use xlink:href="#STIXWEBMAIN-5B" id="use2532" x="646" y="0"/><g id="g2536" transform="translate(980)"><text id="text2534" stroke="none" direction="ltr" style="font-size:20.5px;font-family:baskerville" transform="scale(52.507 -52.507)">s</text></g><use xlink:href="#STIXWEBMAIN-5D" id="use2538" x="1339" y="0"/></g><g id="g2556" class="axes-labels" transform="matrix(.01904 0 0 -.01904 17.196 -24.594)"><use xlink:href="#STIXWEBMAIN-5B" id="use2542" x="0" y="0"/><g id="g2546" transform="translate(333)"><text id="text2544" stroke="none" direction="ltr" style="font-size:20.5px;font-family:baskerville" transform="scale(52.507 -52.507)">c</text></g><use xlink:href="#STIXWEBMAIN-2F" id="use2548" x="833" y="0"/><g id="g2552" transform="translate(1112)"><text id="text2550" stroke="none" direction="ltr" style="font-size:20.5px;font-family:baskerville" transform="scale(52.507 -52.507)">s</text></g><use xlink:href="#STIXWEBMAIN-5D" id="use2554" x="1471" y="0"/></g></g><g id="graphs"><path id="path2559" d="m-945.23 238 1.08-192.245.277 6.793 2.18-8.162 1.98 4.043 1.58-2.694 2.22.031 1.66.04 2.14 5.148 1.544-6.028 1.94 5.278.2 187.796.96-1.128.28-3.013 2.276-4.934 1.52-7.165 1.92-11.749 1.956.748 2.2-13.97 1.756-3.049 2.12-6.126 1.6-12.22 2.116.827 1.88-14.7 1.716-2.344 2.08-12.015 1.88.703 2.196-11.821 1.52-3.033 1.916-7.733 2.28-2.59 1.56-10.31 2.116.098 1.72-10.735 2.036 1.232 2.12-12.676 1.6 3.321 1.916-9.26 2.24-5.843 1.676 4.432 2.2-12.14 2.12-1.129 1.916 1.341 1.64-8.831 2.036 4.343 1.56-8.882 1.88 2.019 2.956-6.787 1.52.675 1.956-3.044 1.96.196 2.12-3.065 1.836 2.908 2.04-4.738 1.956 4.69.32-4.062 1.24-1.609 2.56 5.622 2.276-5.916 1.84 6.79 1.756-.988 2.12-5.527 1.68 1.712 1.916 4.534 1.96-6.535 1.996 3.236 1.92 1.414 1.72-3.268 2.316 3.997 1.68-3.857 2.116 6.65 1.56-5.08 2.32-1.812.996 2.972.6-.734 2.16 4.312 1.596-3.956 2.32 4.3 1.64-2.612 2.156 2.473 1.92-1.663 1.716 2.984 1.88.457 2.08 10.259 1.956-2.792 1.96 6.488 1.676 2.442 2.16 1.747 1.6-.062 2.196 9.666 2-.728 1.68 9.671 1.756-.132 2 5.86 1.956 3.296 2.2 9.039 1.8 1.15 1.636 7.617 2 2.094 1.996 8.588 1.96 4.407 1.72 9.69 1.996 6.757 2-.666 2.076 14.414 1.64-.54 1.92 12.488 1.956 4.43 2.2 3.67 1.556 5.774 2.28 8.814 1.64 11.477 2.196.972 1.6 14.03 1.956 6.012 2.2 5.281.2 2.45.396-189.46.596-.56 2.1 1.952 1.588-3.186 2.852 2.178 1.748-1.545 2.1 2.346 1.944-2.68 1.624 3.733 2.18-3.9 1.112 5.684.2 1.126.16-1.998.12-2.505.04 188.815" style="fill:none;stroke:red;stroke-width:1.5;stroke-dasharray:none"/><g id="g992" transform="translate(-1128.643)"><path id="path986" d="M496.322 238h31.12l.52-185.71 1.344-6.678 2.052 5.653 2.096-.52 1.74-3.055 1.696-2.702 2.096 6.963 1.856-2.52.2 188.569h2.4l.52 184.06 2.144 8.35 1.588-.123 2.184-2.968 1.668-2.993 2.18 3.643 1.588-2.621.952 4.085.32-.627.596 4.455 1.984-6.113 2.184-.389 1.904 6.51 1.628-8.288.2-186.981h27l.56-186.424 2.076-5.986 1.84 5.7 1.644-4.664 1.96 2.486.2 188.888h.6l.2-185.08.04 185.08h61.12" style="fill:none;stroke:red;stroke-width:1.5;stroke-dasharray:none"/><path id="path833" d="m527.442 238 .52-1.568 1.344-4.556 2.052-2.769 2.096-6.832 1.74-8.834 1.696-5.222 2.096 1.31 1.856-9.413.2 37.884h2.4l.52 32.757 2.144-1.016 1.588-6.09 2.184-6.292 1.668-6.219 2.18-5.076 1.588-4.45.952-1.777.32-1.837" style="fill:none;stroke:#00d070;stroke-width:1.5;stroke-dasharray:none;stroke-opacity:1"/></g><path id="path2565" d="m-928.43 238 .96-187.942.28-4.18 2.277 5.457 1.52-2.069 1.92-4.724 1.956 7.404 2.2-4.584 1.756 9.475 2.12-1.562 1.6-2.42 2.116 7.398 1.88-1.229 1.716 8.324 2.08-.663 1.88 4.586 2.196 1.17 1.52 7.146 1.916 2.551 2.28 5.337 1.56 3.578 2.116 6.012 1.72-.907 2.036 10.612 2.12 4.39 1.6 10.528 1.916-.277 2.24 3.844 1.676 9.677 2.2 1.694 2.12 10.556 1.916 8.84 1.64 1.226 2.036 10.674 1.56 2.623 1.88 10.035 2.956 3.836 1.52 10.386 1.956 1.982 1.96 15.935 2.12-.787 1.836 12.81 2.04 5.345 1.956 7.451.32.462h33.972l.6 2.321 2.16 6.387 1.596 7.258 2.32 7.1 1.64 10.274 2.156 2.573 1.92 13.636 1.716 6.941 1.88 3.805 2.08 2.98 1.956 10.83 1.96 4.805 1.676 2.76 2.16 7.46 1.6 13.008 2.196.594 2 8.982 1.68 2.058 1.756 11.301 2-1.587 1.956 10.539 2.2 1.786 1.8 10.058 1.636-1.285 2 10.06 1.996-.54 1.96 9.81 1.72-3.118 1.996 3.36 2 9.917 2.076-.913 1.64 9.271 1.92-5.723 1.956 3.035 2.2 9.327 1.556-2.195 2.28 6.056 1.64-3.687 2.196 4.023 1.6-3.771 1.956-2.296 2.2 9.136.2-196.336h18.76" style="fill:none;stroke:#00d070;stroke-width:1.5;stroke-dasharray:none;stroke-opacity:1"/><path id="path1053382" d="M-26.428 237.844h152.6l.88-193.99.516 5.4 1.94-2.524 1.98 2.982 1.704-4.317 2.176 5.656 1.744-8.302 1.98 6.524 1.664-3.402 2.216-1.456.2 193.43.4-1.084.796-2.615 1.836-5.95 1.716-6.799 2.236-4.922 1.756-12.337 1.912-1.364 1.996-16.2 1.956-1.137 1.796-8.672 1.916-3.67 1.992-12.825 1.836 2.14 1.996-7.527 1.836-14.392 1.996-.201 1.756-7.726 1.992-10.645 1.916.19 1.916-9.136 1.996-1.423 1.756-10.404 2.112 2.982 1.916-13.365 1.796 3.229 2.076-13.166 1.676 1.238 2.036-.008L196 78.119l1.756-11.231 2.116 1.36 1.836-1.245 1.756-2.061 1.956-8.184 2.112 4.317.52-8.727.2 185.497h.64l.48-184.93 1.32 1.085 1.916-2.4 2.196-.902 1.72-5.378 1.996 5.101 2.036-6.77 1.92 4.121 1.2 2.232.556-7.092 1.96 7.246 2.036-4.334 1.916.246 1.68.602 2.036 2.878 1.76-4.958 1.916 2.654 2.116 2.674 1.84-5.662 1.956-.394 1.76 2.956 2.116 3.85 1.84-.28 1.996-7.336 1.876 6.233 1.8-6.468 2.156 5.15.52 1.363.64-2.408.676 2.906 1.8-6.406 1.876 3.254 2.12 4.062 1.836-3.057 1.76 6.885 1.956-5.622 2.116 10.886 1.84-2.92 1.716 3.707 2.236 1.62 1.72 6.259 2.116-2.993 1.68 7.756 1.916.397 2.076 9.025 1.88 1.002 1.956 6.995 1.92-1.792 1.796 9.634 1.956 2.868 2 6.571 1.716 1.669 2.2 11.88 1.756 3.313 1.956.462 1.76 11.245 2.196 4.342 1.72 11.007 1.996 1.17 2.036 11.338 1.68 1.671 2.116 13.32 1.64-1.613 2.236 13.07 1.916 2.378 1.64 12.818 2.036 1.588 1.76 11.22 2.236 7.067 1.836 4.13 1.24 5.72.2 2.089.556-187.52 1.308-5.803 1.98 3.362 1.704-4.57 2.1 5.262 1.824-3.592 1.744-.054 1.94 6.233 1.984-6.58 1.94 6.253.2 187.009 40.524.155.6 1.268.68 2.1 1.996 3.503 1.716 4.76 1.956 4.701 2 9.347 1.996 2.937 1.716 4.315 1.996 8.058 1.92 2.386 1.756 11.306 2.156-3.125 1.92 11.298 1.836 2.252 1.716 4.244 2.116 2.467 1.88 11.253 2.076.762 1.916 10.693 1.64 5.373 2.196-.436 1.796 1.31 1.996 10.573 1.68-1.638 2.196 8.66 1.796 1.23 1.96 11.082 1.996-3.38 1.716 7.227 1.956 1.193 1.96 3.483 1.756 6.709 1.996.588 2.076 9.125 1.68-2.21 1.876 8.527 1.996-4.088 2 8.585 1.956-1.235 1.796 7.414 1.956-1.845 2.08 4.43 1.836-3.825 1.996 8.59 1.72-.445 2.116 4.108 1.836-2.72 1.996 4.377 1.96-.84 1.716 5.421 1.956-5.216 2-.406 1.996 3.116 1.916 1.084 1.596.263 2.24 1.498 1.236-.448.4 3.094.2-192.853h22.997l.68-193.947 2.064 4.39 1.624-1.372 2.184 6.283 1.944-7.389 1.704 2.593 1.944 6.818 1.984-6.196 1.984-.342 1.704 1.854 1.944 5.54.2 181.768h1.8l.84 178.428 1.712 1.61 2.068 8.058 1.868-5.06 1.952 1.193 1.988.524 1.712 1.531 1.948 5.38 1.992-3.12 1.988 4.45 1.272-7.502.44 9.24 2.068-6.244 1.672-1.831 2.068 8.652 1.908-9.47 1.872 3.038 1.312 4.965.4-193.842.4-189.946 1.34 3.755 1.928-3.405 1.888-4.29 1.732 6.104 1.968-6.75 1.064 6.73.2 187.802h59.34l.756 189.403 1.12 1.092 1.952-4.376 1.716 4.555.581-.44 1.596 1.384 1.952-4.189 1.876 3.142 2.232 1.71 1.756-4.653 2.036 3.324 1.956-1.386 1.632-.216 1.956 5.236 2.116-5.695 1.596 3.956 2.232-3.259 1.756 3.954 1.316 1.013.916-8.156 1.796 6.412 1.596-4.995 2.196 3.67 1.912-7.512 1.756.717 2.156-6.023 1.516-.736 2.272-11.508 1.636.644 2.192-3.052 1.956-8.834 1.716-11.069 1.316 2.075.2-146.188h1.84l.48-147.664.988 1.132 1.62-11.716 2.176 2.22 1.58-11.826 1.86-2.142 1.976-2.7 1.976-5.558 1.384-4.7.2 182.954h1.4l1.2 180.32.28-1.803 2.272-.689 1.512-10.52 2.232-5.546 1.792.109 1.872-12.306 2.072.638 1.596-11.455 2.312-.602 1.592-14.095 2.152-6.636 1.596-13.963 1.952-1.857 2.312-14.87 1.552-5.783 2.152-10.096 1.632-11.032 1.956-7.504 2.188-9.543 1.876-15.355 1.632-9.363 1.912-11.657 1.356-6.244.2-.148.752-190.434 1.228 3.402 2.016-7.204 1.86 4.648 1.704-4.796 2.096 6.88 1.584-5.682 1.94 5.28 1.9-1.822.2 189.728h18.184l.72-191.61.28-2.67.2 194.28h35.59l.996-3.562.32-7.952 2.152-22.68 1.836-19.048 2.036-17.464 1.956-23.62 1.672-14.706 2.076-23.834 1.596-7.618 2.236-18.45 1.712-6.683 2.156-12.614 1.596-10.019 1.916-.044 2.152-.68.52-3.93.2 192.904h31.282" style="fill:none;stroke:red;stroke-width:1.5"/><path id="path1053388" d="M-26.198 238s143.297-.156 169.17-.156h.2l.4-191.489.796-3.402 1.836 3.436 1.716 1.38 2.236-.199 1.756-4.121 1.912 10.657 1.996-5.914 1.956 8.05 1.796-3.256 1.916 7.372 1.992-4.194 1.836 9.8 1.996 1.985 1.836 1.599 1.996 8.299 1.756 1.898 1.992-1.747 1.916 13.087 1.916-2.388 1.996 7.764 1.756-.554 2.112 11.477 1.916 2.904 1.796 7.207 2.076 1.907 1.676 13.176 2.036 2.268 1.912 7.96 1.756-1.12 2.116 13.827 1.836 7.434 1.756 5.116 1.956 2.318 2.112 13.804.52-2.45.2 56.11h.64l.48-55.508 1.32 9.657 1.916 3.24 2.196 11.001 1.72 1.854 1.996 10.97 2.036 4.318 1.92 9.69 1.2 4.318.556.46H257.512l.64 2.253.676 1.692 1.8 8.478 1.876 8.616 2.12 4.27 1.836 10.805 1.76.63 1.956 13.065 2.116.344 1.84 14.44 1.716-.9 2.236 12.298 1.72.863 2.116 11.497 1.68 3.438 1.916 13.89 2.076.11 1.88 11.805 1.956.47 1.92 9.324 1.796 1.955 1.956 10.043 2-1.137 1.716 11.122 2.2-2.024 1.756 4.155 1.956 9.063 1.76-2.438 2.196 10.402 1.72.274 1.996 5.337 2.036-1.428 1.68 10.654 2.116-3.01 1.64 5.54 2.236-.181 1.916 4.71 1.64-4.87 2.036 7.446 1.76-2.842 2.236-1.263 1.836 5.734 1.24-5.558.2-189.073H354.252" style="fill:none;stroke:#00d070;stroke-width:1.5"/><path id="path4479" d="m424.64 637.919.32.1 1.037 1.835 1.52 4.827 2.076 7.75 2.12 1.762 1.916 10.228 1.96.664 1.676 8.257 2.076 2.105 1.96 3.646 1.596 11.39 2.2-.128 1.596 8.103 2.36 1.99 1.516 3.251 2.32 13.821 1.676-1.683 2.08 10.38 1.956-2.136 1.916 9.343 1.72-.193 1.916 12.197 2-.406 1.716 6.731 2.24 2.962 1.596 7.252 2.2.196 1.636 8.538 2 2.494 2.076-1.038 1.6 4.116 1.916 6.442 2.276 7.728 1.56 2.254 1.916-.632 1.96 5.432 2.236 2.035 1.56 2.019 1.916 5.32 2 3.237 2.196-3.752 1.56 9.279 2.236-1.098 1.596 3.033 1.92.663 2.116.653 2.08-2.713 1.596 11.39 2.24-5.858 1.796 1.874 2.036 2.993 1.92-2.758 1.876.106 1.76 4.5 2.076-4.836 1.72 4.231 1.876 1.828 1-1.867.2-189.857" style="fill:none;stroke:red;stroke-width:1.5;stroke-dasharray:none"/><path id="path1536" d="m425.479 825.307.518 4.538 1.52-5.49 2.076 3.71 2.12-1.577 1.916 2.268 1.96-7.773 1.676 5.606 2.076-3.929 1.96-5.241 1.596 8.06 2.2-9.71 1.596 5.043 2.36-5.519 1.516-3.9 2.32 4.561 1.676-7.717 2.08 4.13 1.956-10.53 1.916 2.105 1.72-8.94 1.916 5.432 2-9.551 1.716 4.399 2.24-9.316 1.596 1.65 2.2-7.65 1.636.86 2-3.184 2.076-12.541 1.6-2.106 1.916-.627 2.276-2.54 1.56-3.645 1.916-8.255 1.96 1.484 2.236-5.3 1.56-9.159 1.916.588 2-7.274 2.196-8.244 1.56-1.607 2.236-2.192 1.596-8.224 1.92-4.127 2.116-11.802 2.08-1.79 1.596.824 2.24-14.322 1.796-5.074 2.036 2.025 1.92-9.937 1.876-4.195 1.76-2.75 2.076-8.349 1.72-5.14 1.876-4.954 1-.49" style="fill:none;stroke:#00d070;stroke-width:1.5;stroke-dasharray:none;stroke-opacity:1"/><path id="path1298" d="m414.906 637.919 1.143 184.755 2.08 2.803 2.036 6.588 1.756-9.433 2.04 9.229.68-5.177.838-1.377" style="fill:none;stroke:#00d070;stroke-width:1.5;stroke-dasharray:none;stroke-opacity:1"/><g id="g3267" transform="translate(546.782)"><path id="path3263" d="m645.498 238 .932 191.836.348-2.007 2.092.199 1.588-4.214.2-185.814h24.12l.68-191.601 1.612 3.192 2.268-9 .2 197.409h16.6l.32-194.583.872 1.786 1.908 8.42 1.872 1.159 1.708 11.701 2.188 9.613 1.868 3.808 1.548 12.224 2.268 23.016 1.672 18.455 1.868 17.346 2.184 15.154 1.632 24.612 2.148 15.307 1.588 25.2.916 5.973.2.809.796-193.59 1.436 8.255 1.948-1.145 1.992-4.922 1.912 3.922 1.792-.33 2.308-.235 1.636-.65 2.108-6.137 1.912 9.276 1.592-3.514 1.912-4.942 2.272 6.28 1.872-6.045 2.028 4.962 1.596-4.368 2.148-.345 1.592.58 1.912 4.928 1.236-4.343.2 192.363h14.88l.48 188.955.844 4.455.316-5.127.2-188.283.84.095 1.596 8.173 2.28 4.615 1.996 10.18 1.84 3.324 1.756 9.615 2.04 8.53 1.996 1.66 1.6 7.52 2.116 12.718 1.64-.095 1.916 8.403 2.36 13.568 1.636.3 2.12 9.321 1.676 3.542 2.2 10.352 1.676-.104 1.96 8.347 1.756 1.512 1.88 8.932 2.276 2.15 1.8 11.674 2.036-3.705 1.996 10.497 1.56-1.262 2.196 9.937 1.6 5.2 1.916-.594 2 3.209 2.116 6.498 1.6.756 1.956 2.47 2.28 3.556 1.876-3.17 1.88 6.754 1.636.482 2.28-1.246 1.676 6.456 2.16-3.292 1.796-1.552 2.08 9.145.28-4.751.916.75.44-5.382 2.16 7.56 1.876-5.474 1.64 6.743 2.196-6.367 1.88 6.52 1.956-9.077 1.96 6.101 1.556-4.247 2.24 6.367 2.036-3.8 1.88-3.626 1.556 4.998 2.24-4.695 1.556 8.604 1.88-6.126.636.436" style="fill:none;stroke:red;stroke-width:1.5"/><path id="path3259" d="m679.538 238 .2-192.766.988.515 1.624 1.367 2.14.266 1.544-4.38 2.3 4.786 1.66-2.462 2.024 3.142 1.664-6.149 2.256 5.883.2 189.798.32-3.665.872-8.35 1.908-17.886 1.872-26.474 1.708-15.414 2.188-20.913 1.868-22.862 1.548-16.803 2.268-10.948 1.672-12.617 1.868-11.41 2.184-11.743 1.632-2.643 2.148-10.226 1.588 2.136.916-6.487.2 196.305h52.92l.84 187.01 1.596 8.89 2.28-5.184 1.996 1.487 1.84-5.261 1.756 1.977 2.04 2.198 1.996-9.739 1.6-2.1 2.116 3.12 1.64-7.166 1.916-4.86 2.36 1.904 1.636-6.208 2.12 2.316 1.676-9.949 2.2 3.007 1.676-8.864 1.96.66 1.756-9.195 1.88-.834 2.276-11.57 1.8.266 2.036-12.3 1.996-1.297 1.56-9.027 2.196 1.353 1.6-8.84 1.916-10.45 2-7.59 2.116-1.826 1.6-9.229 1.956-7.868 2.28-1.176 1.876-13.639 1.88.42 1.636-13.272 2.28-6.65 1.676-.996 2.16-11.735 1.796-6.941 2.08-6.104.28-3.302.916-1.436h17.706" style="fill:none;stroke:#00d070;stroke-width:1.5;stroke-dasharray:none;stroke-opacity:1"/></g><path id="path1301" d="m355.002 238 1 188.513 1.04 4.205 2.156-7.282 1.68 6.442 2.196-6.118 1.64 1.272 2.156 4.99 1.716-6.136 2.2 1.773 1.836 6.63 1.6-1.123 2.316.762 1.68-8.036L378.49 238h1.554l.719 184.756 2.08 2.803 2.036 6.588 1.756-9.433 2.04 9.229.68-5.178.838-1.285.119-187.48h4.464l.6 192.058.68 1.458 1.996-7.392 1.716-1.355 1.956 1.588 2 2.072 1.996-2.848 1.716-4.933 1.996 6.056 1.92-4.766 1.756 3.626 2.156-6.02 1.92 4.122 1.836-6.768 1.716-5.451 2.116-1.882 1.88 2.159 2.076-6.443 1.916 4.197 1.64-2.102 2.196-9.1 1.796-2.57 1.996 3.804 1.68-12.429 2.196 1.565 1.796-4.244 1.96-1.574 1.996-6.927 1.716 2.75 1.956-10.35 1.96-5.622 1.756.415 1.996-9.484 2.076 2.01 1.68-6.011 1.876-2.005 1.996-9.876 2 2.532 1.956-9.025 1.796.443 1.956-11.783 2.08-2.145 1.836-8.05 1.996 1.244 1.72-12.393 2.116 2.231 1.836-10.354 1.996.367 1.96-10.996 1.716-1.131 1.956-9.758 2-3.091 1.996-7.871 1.916-3.744 1.596-4.684 2.24-4.85 1.236-3.477.4-1.193h23.197l.68-1.895 2.064-4.956 1.624-7.275 2.184-1.834 1.944-7.775 1.704-8.493 1.944 3.038 1.984-12.258 1.984-7.333 1.704-4.791 1.944-1.364.2 54.936h1.8l.84 52.579 1.712-3.915 2.068-3.1 1.868-12.532 1.952-.468 1.988-5.628 1.712-6.26 1.948-2.414 1.992-8.935 1.988-3.127 1.272-4.685.44-1.515h47.88l.64-188.521 2.148-8.851 1.752 6.852 1.752-6.953 1.912 1.68 2.268 7.535 1.712-6.731 2.028 3.897 1.672-5.126 2.228-.073 1.752 5.776 2.032-4.046 1.592 5.37 1.988-5.314 2.192 4.097 1.552-6.396 1.988 4.612 1.872-1.618.2 193.81" style="fill:none;stroke:#00d070;stroke-width:1.5;stroke-dasharray:none;stroke-opacity:1"/><g id="g3247" transform="translate(100.643 -539.16)"><path id="path3024" d="m1147.832 245.63.756 185.343 1.24 1.935 1.952 3.52 1.916-3.335 1.916 6.44 1.952-4.665 1.756 1.089 1.956-.476 1.952 2.584 1.836-3.631 1.996 5.376 1.872-4.211 2.036 2.486 1.756-6.353 1.992 8.949 1.956-5.25 1.916 5.149 1.712-7.885 1.356 4.628.76-4.258 1.716 2.2 2.072.33 1.796-5.812 1.996 1.336 1.952-4.763 1.916 2.875 1.796-8.822 2.072-2.554 1.876-7.118 1.996-9.657 1.672 3.422 2.036-13.535.2-145.337h1.12l.76-147.728 1.86-10.346 1.856.092 2.096-11.869 1.78 1.378 1.94-8.784 1.976-.1 1.7-9.081.712 7.081.2 179.357h1.84l.6 187.577 1.436-7.574 1.712-.033 2.112-10.072 1.952 1.47 1.836-10.777 1.952-4.194 1.792-3.825 2.036-12.261 1.872-.219 1.752-4.872 2.152-17.25 1.916-3.576 1.832-10.965 2.032-4.572 1.676-17.204 2.072-3.304 2.032-16.105 1.752-3.534 1.796-12.541 1.952-10.559 1.832-13.18 2.112-5.989 1.756-12.927.836-3.374.2-.14.436-194.835 2.06 8.937 1.824-4.22 1.94-2.438 1.744 4.681 2.02-3.777 1.944 6.614 1.86-8.064 1.744 7.887 1.348-6.686.2 191.9h2.48l.12-185.516.04 185.517.6-6.757 1.396-17.698 1.672-13.589 2.072-26.874 1.712-21.482 1.912-18.253 1.992-14.437 2.068-16.139 1.912-11.427 1.832-16.623 1.832-7.919 1.912-10.813 2.032-2.347 1.872-6.473 1.276 3.348.516-4.015 2.072 4.564 1.872-6.613 1.952 8.506 1.712-6.507 2.032 1.593 1.952 2.78.2 187.175h17.08l.84-193.41 1.696 5.051 2.004-2.62.54 1.452.2 189.527h16.72l.516 190.716 1.98 4.637 1.864-1.008 1.784.776 2.02-8.487 1.98 6.079 1.824-2.854 1.744-.1 1.94 2.797 1.388-2.417.2-190.14h.24l.12 188.214.04-188.213h16.8l.716 188.703 1.076 2.377 2.112-5.737 1.832 8.537 1.952.233 1.912-8.652 2.028 8.254 1.716-6.538 2.028 4.508 1.752-4.83 2.032 6.062 1.952-4.45 1.872 4.097 1.952-3.662 1.712 3.015 2.152-2.128 1.832 4.326 1.992-8.377 1.872 5.656 1.952-4.175.516 7.414.2-194.633h54.16" class="pink-panther" style="fill:none;stroke:red;stroke-width:1.5"/><path id="path3030" d="m1114.352 245.63 1-191.433.4 6.07 2.068-8.655 1.912 6.043 1.908.327 1.992-6.213 1.792 8.775 1.948-6.543 1.912 5.756 2.028-8.377 1.712-.613 2.032 5.633 1.868-3.785 1.992 3.362 1.752-4.92 1.948 7.572 1.792-3.483 1.912 3.001 1.312-3.248.2 190.73h33.824l.76-.386 1.716-10.01 2.072-13.907 1.796-4.01 1.996-15.1 1.952-8.66 1.916-14.073 1.796-6.18 2.072-13.801 1.876-4.657 1.996-10.368 1.672-14.904 2.036-3.262.2 119.319h1.12l.76 116.505 1.86-7.571 1.856-11.183 2.096-7.087 1.78-15.297 1.94-4.737 1.976-14.115 1.7-4.788.712-8.532.2-43.195h1.84l.6-50.568 1.436-3.9 1.712-15.398 2.112-7.554 1.952-10.713 1.836-7.048 1.952-10.712 1.792-9.266 2.036-6.056 1.872-12.886 1.752-9.783 2.152-1.655 1.916-9.349 1.832-3.234 2.032-7.666 1.676-2.15 2.072-9.176 2.032 2.024 1.752-7.66 1.796-1.501 1.952-3.251 1.832-1.683 2.112-3.965 1.756 4.508.836-2.598.2 191.24h19.76l.6 189.411 1.396 4.634 1.672-10.399 2.072 3.114 1.712-9.036 1.912-14.269 1.992-15.825 2.068-14.784 1.912-17.553 1.832-13.471 1.832-24.78 1.912-13.015 2.032-25.866 1.872-17.234 1.276-17.195.516-3.732h34.152l.672-188.429 1.904-8.935 1.704 8.297 2.136-4.548 1.784 3.498 1.98-5.024 1.904-1.268 1.744-1.915 1.94 6.67.752 1.394.2 190.26h17.64l.96-192.346 1.188-3.111 1.744 2.332 2.096-4.454 1.82 7.716 1.944-6.202 1.94 6.541 1.9-3.203 1.66 1.604 1.348-5.188.2 196.31h91.32" style="fill:none;stroke:#00d070;stroke-width:1.5"/></g><g id="g3946" transform="translate(817.128)"><path id="path3561" d="m1100.483 239.39.756 189.402 1.12 1.092 1.952-4.376 1.716 4.555 2.276-.44 1.596 1.384 1.952-4.189 1.876 3.142 2.232 1.71 1.756-4.653 2.036 3.324 1.956-1.386 1.632-.216 1.956 5.236 2.116-5.695 1.596 3.956 2.232-3.259 1.756 3.954 1.316 1.013.916-8.156 1.796 6.412 1.596-4.995 2.196 3.67 1.912-7.512 1.756.717 2.156-6.023 1.516-.736 2.272-11.508 1.636.644 2.192-3.052 1.956-8.834 1.716-11.069 1.316 2.075.2-146.188h1.84l.48-147.664.988 1.132 1.62-11.716 2.176 2.22 1.58-11.826 1.86-2.142 1.976-2.7 1.976-5.558 1.384-4.7.2 182.954h1.4l1.2 180.32.28-1.803 2.272-.689 1.512-10.52 2.232-5.546 1.792.109 1.872-12.306 2.072.638 1.596-11.455 2.312-.602 1.592-14.095 2.152-6.636 1.596-13.963 1.952-1.857 2.312-14.87 1.552-5.783 2.152-10.096 1.632-11.032 1.956-7.504 2.188-9.543 1.876-15.355 1.632-9.363 1.912-11.657 1.356-6.244.2-.148.752-190.434 1.228 3.402 2.016-7.204 1.86 4.648 1.704-4.796 2.096 6.88 1.584-5.682 1.94 5.28 1.9-1.822.2 189.728h18.68l.72-191.61.28-2.67.2 194.28h34.392l.996-3.562.32-7.952 2.152-22.68 1.836-19.048 2.036-17.464 1.956-23.62 1.672-14.706 2.076-23.834 1.596-7.618 2.236-18.45 1.712-6.683 2.156-12.614 1.596-10.019 1.916-.044 2.152-.68.52-3.93.2 192.904h70.28l.916-189.322 1.232-4.346 1.948 5.514 1.868-2.596 2.148 5.051 1.748-5.922 1.552 2.7 1.868-1.076L1402.59 45l1.748 1.173 2.068 5.872 1.948-5.376 1.908 2.82 1.632-.474 2.028 3.27.2 187.105h51.88" class="pink-panther" style="fill:none;stroke:red;stroke-width:1.5"/><path id="path3938" d="M1100.483 239.39h33.828l.916-.348 1.796-12.667 1.596-6.524 2.196-15.412 1.912-5.583 1.756-13.826 2.156-9.492 1.516-14.549 2.272-3.12 1.636-13.666 2.192-11.83 1.956-9.797 1.716-1.16 1.316-9.662.2 127.635h1.84l.48 127.459.988-8.288 1.62-6.813 2.176-10.612 1.58-5.468 1.86-16.28 1.976-7.484 1.976-12.835 1.384-1.08.2-58.599h1.4l1.2-57.817.28-1.787 2.272-17.007 1.512-7.28 2.232-6.409 1.792-13.362 1.872-4.214 2.072-14.29 1.596-6.038 2.312-12.152 1.592.628 2.152-15.162 1.596-1.162 1.952-10.91 2.312 2.325 1.552-12.64 2.152-.876 1.632.34 1.956-7.782 2.188-4.822 1.876 4.071 1.632-2.315 1.912 2.038 1.356-9.203.2 195.826h35.16l.796-193.234 1.996 3.601 1.836-5.006 1.796 8.341 2.112-9.17 1.916 8.977 1.596-6 2.236 2.948 1.872-1.09 1.636-1.873 2.156 2.932 1.756-3.52 2.712 1.608 1.676 2.713 2.272-4.37 1.676 5.568 2.036-7.588 1.716 4.752.6-3.31.996 5.676.32-4.027 2.152 2.92 1.836 9.826 2.036 5.564 1.956 5.096 1.672 17.046 2.076 10.108 1.596 18.59 2.236 12.073 1.712 24.914 2.156 18.491 1.596 15.484 1.916 25.338 2.152 20.025.52 6.306.2.291.82-188.185 1.484-6.617 1.872 6.121 2.264-7.465.2 196.146h28.68l.64-189.465 1.62-5.003 2.252 4.78 1.696-4.556 2.016 3.365 1.58-4.3 2.292 6.047 1.264-2.209.2 191.341h18.64l1.08 192.058.324-6.552 1.156 5.835.2-191.34h78.92" style="fill:none;stroke:#00d070;stroke-width:1.5"/></g><path id="path3567" d="m1067.003 239.39 1-190.768.436 3.735 2.032 1.638 1.672-5.149 1.948-2.047 2.152 4.592 1.832.149 1.908-4.085 1.712 2.48 2.188-4.513 1.752 8.207 2.072-4.419 1.948-2.15 1.632 2.85 2.188-2.388 1.632 3.052 2.152-3.878 1.672 5.051 1.352-2.755.2 190.397" style="fill:none;stroke:#00d070;stroke-width:1.5"/><path id="path7610" d="m995.26 238 .82-188.185 1.485-6.617 1.872 6.121 2.264-7.465.2 196.146h22.947" style="fill:none;stroke:#00d070;stroke-width:1.5"/><path id="path3942" d="M645.498 238h33.828l.916-.347 1.796-12.667 1.596-6.524 2.196-15.412 1.912-5.583 1.756-13.826 2.156-9.492 1.516-14.549 2.272-3.12 1.636-13.666 2.192-11.83 1.956-9.797 1.716-1.16 1.316-9.662.2 127.635h1.84l.48 127.459.988-8.288 1.62-6.813 2.176-10.612 1.58-5.468 1.86-16.28 1.976-7.484 1.976-12.835 1.384-1.08.2-58.599h1.4l1.2-57.817.28-1.787 2.272-17.007 1.512-7.28 2.232-6.409 1.792-13.362 1.872-4.214 2.072-14.29 1.596-6.038 2.312-12.152 1.592.628 2.152-15.162 1.596-1.162 1.952-10.91 2.312 2.325 1.552-12.64 2.152-.876 1.632.339 1.956-7.781 2.188-4.822 1.876 4.071 1.632-2.315 1.912 2.038 1.356-9.203.2 195.826h36.359l.796-193.234 1.996 3.601 1.836-5.006 1.796 8.341 2.112-9.17 1.916 8.977 1.596-6 2.236 2.948 1.872-1.09 1.636-1.873 2.156 2.932 1.756-3.52 2.712 1.608 1.676 2.713 2.272-4.371 1.676 5.57 2.036-7.589 1.036 2.87L834.8 238h1.598l.089-190.411.6-3.31.996 5.676.32-4.027 2.152 2.92 1.836 9.826 2.036 5.564 1.956 5.096 1.672 17.046 2.076 10.108 1.596 18.59 2.236 12.073 1.712 24.914 2.156 18.491 1.596 15.484 1.916 25.338 2.152 20.025.52 6.306.2.291 1-190.767.436 3.735L867.308 42l2.047 5.457 1.948-2.047 2.152 4.592 1.832.149 1.908-4.085 1.712 2.48 2.188-4.513 1.752 8.207 2.072-4.419 1.948-2.15 1.632 2.85 2.188-2.388 1.632 3.052 1.483-2.905" style="fill:none;stroke:#00d070;stroke-width:1.5"/><g id="g1067518" transform="translate(-105.768 -190.066)"><path id="path1067003" d="M365.796 540.597a23.735 23.735 0 0 1-23.735 23.735 23.735 23.735 0 0 1-23.734-23.735 23.735 23.735 0 0 1 23.734-23.735 23.735 23.735 0 0 1 23.735 23.735z" style="fill:#fdfdfd;stroke:#00d070;stroke-width:1.5;stroke-dasharray:4.5,1.5;stroke-dashoffset:0;stroke-opacity:1"/><g id="g1067010" transform="translate(47.002 -21.543)"><path id="use7255" stroke-width=".019" d="m283.858 561.655.533 4.475c1.161-1.58 1.828-2.723 2.247-3.504.38-.704.533-1.085.533-1.428 0-.4-.99-.59-.99-1.313 0-.42.342-.762.895-.762.609 0 1.085.438 1.085 1.18 0 1.486-3.085 6.055-3.884 7.065-1.39 1.751-2.628 3.617-3.923 3.617-.704 0-1.066-.59-1.066-1.047 0-.571.514-.78.762-.78.818 0 .78.59 1.085.59.324 0 1.409-1.18 1.904-1.942l-.724-5.98c-.095-.856-.266-1.999-1.332-1.999-.21 0-.515.058-.686.077l-.038-.305 2.856-.476c.438.628.571 1.123.743 2.532z" style="fill:#000;stroke:none"/><path id="use7257" stroke-width=".013" d="m289.217 559.276-.458-.162c.35-1.656 1.198-5.358 1.44-6.138.216-.687.62-.93 1.024-.93.484 0 .915.297.915.957 0 .148-.067.47-.135.632-.282.768-1.965 4.12-2.786 5.64z" style="fill:#000;stroke:none"/><path id="use7259" stroke-width=".019" d="m300.442 570.566-.228.305c-3.009-1.714-4.646-4.931-4.646-8.168 0-3.523 1.656-6.265 4.703-8.074l.171.305c-2.647 2.266-3.237 4.037-3.237 7.711 0 3.542.571 5.694 3.237 7.921z" style="fill:#000;stroke:none"/><use xlink:href="#STIXWEBNORMALI-1D461" id="use7261" x="1170" y="0" style="fill:#000;stroke:none" transform="matrix(.01904 0 0 -.01904 278.717 567.5)"/><path id="use7263" stroke-width=".019" d="m307.525 554.934.229-.305c2.913 1.752 4.646 4.932 4.646 8.169 0 3.522-1.676 6.226-4.703 8.073l-.172-.305c2.704-2.227 3.237-4.017 3.237-7.711 0-3.56-.476-5.75-3.237-7.921z" style="fill:#000;stroke:none"/></g></g><g id="g1069245" transform="translate(-9.382 33.343)"><path id="path1054646" d="M115.118 92.119a23.735 23.735 0 0 1-23.734 23.734A23.735 23.735 0 0 1 67.649 92.12a23.735 23.735 0 0 1 23.735-23.735 23.735 23.735 0 0 1 23.734 23.735Z" style="fill:#fdfdfd;stroke:red;stroke-width:1.5;stroke-dasharray:4.5,1.5;stroke-dashoffset:0"/><g id="g1054592" transform="translate(227.844 43.513)"><path id="use4716" stroke-width=".019" d="m-147.58 48.251.856-1.313c.495-.762 1.161-1.6 2.113-1.6.61 0 .933.229.933.628 0 .362-.247.8-.742.8-.42 0-.514-.171-.838-.171-.571 0-.78.304-1.047.723l-1.047 1.619c.57 1.18 1.009 3.75 1.865 3.75.305 0 .762-.266 1.162-1.085l.266.19c-.228.286-1.085 2.114-2.19 2.114-.78 0-1.142-.78-1.39-1.466l-.76-2.151-1.2 1.865c-.61.933-1.162 1.752-2.228 1.752-.685 0-.99-.476-.99-.895 0-.304.248-.704.724-.704.495 0 .418.38.894.38.229 0 .724-.19 1.333-1.123l1.238-1.923-.628-1.751c-.324-.914-.82-1.695-1.866-1.695-.248 0-.533.038-.724.114l-.057-.343 2.513-.628c.838.457 1.2 1.238 1.428 1.866z" style="fill:#000;stroke:none"/><path id="use4718" stroke-width=".013" d="m-141.865 45.51-.458-.162c.35-1.655 1.198-5.357 1.44-6.138.216-.686.62-.929 1.023-.929.485 0 .916.296.916.956 0 .148-.068.471-.135.633-.283.767-1.965 4.119-2.786 5.64z" style="fill:#000;stroke:none"/><path id="use4720" stroke-width=".019" d="m-130.635 56.8-.229.305c-3.008-1.714-4.646-4.931-4.646-8.168 0-3.523 1.657-6.264 4.703-8.073l.172.304c-2.647 2.266-3.237 4.037-3.237 7.712 0 3.541.571 5.693 3.237 7.92z" style="fill:#000;stroke:none"/><path id="use4722" stroke-width=".019" d="m-124.695 45.395-.19.724h-1.333l-1.485 6.093a.811.811 0 0 0-.038.209c0 .114.057.229.304.229 0 0 .438-.039 1.143-.99l.247.209c-.457.59-1.409 2.037-2.532 2.037-.59 0-.743-.476-.743-.99 0-.247.038-.495.096-.704l1.542-6.093h-1.466l.095-.552c1.428-.267 2.59-.971 3.37-2.628h.247l-.59 2.456z" style="fill:#000;stroke:none"/><path id="use4724" stroke-width=".019" d="m-123.553 41.168.229-.304c2.913 1.751 4.646 4.931 4.646 8.168 0 3.522-1.676 6.226-4.703 8.073l-.172-.305c2.704-2.227 3.237-4.017 3.237-7.711 0-3.56-.476-5.75-3.237-7.92z" style="fill:#000;stroke:none"/></g></g></g><g id="notch labels" style="stroke:none;fill:#b8b8de"><g id="g2576" transform="matrix(.01618 0 0 -.01618 25.702 256.936)"><use xlink:href="#STIXWEBMAIN-32" id="use2572"/><use xlink:href="#STIXWEBMAIN-30" id="use2574" x="500" y="0"/></g><g id="g2582" transform="matrix(.01618 0 0 -.01618 225.702 257.786)"><use xlink:href="#STIXWEBMAIN-32" id="use2578"/><use xlink:href="#STIXWEBMAIN-35" id="use2580" x="500" y="0"/></g><g id="g2588" transform="matrix(.01618 0 0 -.01618 425.702 256.936)"><use xlink:href="#STIXWEBMAIN-33" id="use2584"/><use xlink:href="#STIXWEBMAIN-30" id="use2586" x="500" y="0"/></g><g id="g2594" transform="matrix(.01618 0 0 -.01618 625.702 257.786)"><use xlink:href="#STIXWEBMAIN-33" id="use2590"/><use xlink:href="#STIXWEBMAIN-35" id="use2592" x="500" y="0"/></g><g id="g2600" transform="matrix(.01618 0 0 -.01618 825.702 256.936)"><use xlink:href="#STIXWEBMAIN-34" id="use2596"/><use xlink:href="#STIXWEBMAIN-30" id="use2598" x="500" y="0"/></g><g id="g2606" transform="matrix(.01619 0 0 -.01619 6.08 467.467)"><use xlink:href="#STIXWEBMAIN-2212" id="use2602" x="0" y="0"/><use xlink:href="#STIXWEBMAIN-38" id="use2604" x="685" y="0"/></g><g id="g2612" transform="matrix(.01619 0 0 -.01619 6.08 439.467)"><use xlink:href="#STIXWEBMAIN-2212" id="use2608" x="0" y="0"/><use xlink:href="#STIXWEBMAIN-37" id="use2610" x="685" y="0"/></g><g id="g2618" transform="matrix(.01619 0 0 -.01619 6.078 411.47)"><use xlink:href="#STIXWEBMAIN-2212" id="use2614" x="0" y="0"/><use xlink:href="#STIXWEBMAIN-36" id="use2616" x="685" y="0"/></g><g id="g2622" transform="matrix(.01618 0 0 -.01618 17.18 75.467)"><use xlink:href="#STIXWEBMAIN-36" id="use2620" x="0" y="0"/></g><g id="g2626" transform="matrix(.01618 0 0 -.01618 17.181 47.465)"><use xlink:href="#STIXWEBMAIN-37" id="use2624" x="0" y="0"/></g><g id="g2630" transform="matrix(.01618 0 0 -.01618 17.181 19.465)"><use xlink:href="#STIXWEBMAIN-38" id="use2628" x="0" y="0"/></g></g></svg>