<svg xmlns="http://www.w3.org/2000/svg" width="500" height="500"><defs><mask id="a" maskUnits="userSpaceOnUse"><path d="M349.265 242.55c-.973-1.297-1.636-3.18-1.935-4.76-.218-1.151-.473-3.036-.39-4.363.31-4.915 1.755-8.884 4.11-12.57 1.782-2.791 4.878-5.896 8.043-8.06 2.56-1.752 5.304-3.152 8.243-4.04 3.099-.937 6.375-1.365 9.693-1.382 3.186-.016 6.459.453 9.69 1.287 5.215 1.345 9.57 3.587 13.794 8.077.61.647 1.187 1.457 1.696 2.299.556 1.765-.686 1.177-.576.335.145-.987.14-1.1.521-1.888 1.788-3.697 5.996-5.702 10.968-5.2 6.798.685 13.19 5.59 16.522 11.362 3.06 5.3 4.164 10.492 3.314 13.863-.621 2.465-.973 2.879-2.488 3.811-.7.573-.29-1.561.077-1.099 2.17 1.809 3.693 4.76 4.495 6.693.836 2.017 1.273 4.685 1.429 6.794.159 2.151-.1 4.315-.493 6.437a30.417 30.417 0 0 1-6.343 13.664c-1.766 2.17-3.646 4.419-5.915 6.23-2.94 2.345-6.107 4.489-9.536 6.073-13.852 6.396-30.36 7.958-45.05 3.33a49.365 49.365 0 0 1-13.441-6.634c-3.654-2.564-6.812-5.857-9.444-9.425-4.1-5.553-6.374-12.345-6.22-19.19.051-2.232.618-4.486 1.533-6.53 1.443-3.224 4.149-5.861 6.555-7.067 1.758-.881 3.943-.834 5.547.076" style="fill:#fff;fill-opacity:1;stroke:none;stroke-width:1.32283;stroke-miterlimit:4;stroke-dasharray:none"/></mask></defs><path d="M396.053-164.175c3.608-3.64 8.806-5.543 13.632-4.958 6.37.772 11.725 4.67 15.19 9.676 5.164 7.462 7.779 17.287 6.222 26.904-1.03 6.357-4.386 12.832-10.003 16.647-4.956 3.367-11.607 4.984-16.561 2.043-.416-.247-.84-.48-1.244-.743l.85-.745c2.103 5.543-1.308 11.921-6.355 16.102-7.836 6.49-18.57 9.116-28.699 10.148-9.551.973-19.292-.085-27.412-3.863-5.688-2.647-11.093-6.704-12.387-12.434-.134-.59-.653-5.184.714-5.016 2.3.357.008 3.875-1.308 4.798-4.278 3-10.74 3.77-15.285 2.96-6.186-1.101-11.029-4.46-15.193-9.956-3.668-4.841-5.501-11.682-5.075-18.702.57-9.396 5.812-18.376 12.654-23.202 7.006-4.94 15.94-6.464 22.361-1.612.138.104.42.265-.058.699-.584.586-1.348-1.143-1.533-1.418-3.639-5.416-2.312-14.211 3.59-20.818 4.504-5.04 10.701-8.29 16.836-9.938 11.557-3.106 25.088-1.165 34.726 2.92 10.127 4.292 17.873 12.737 15.27 20.828" style="fill:#ffe5ff;fill-opacity:1;fill-rule:nonzero;stroke:#170b28;stroke-width:.999996;stroke-dasharray:none;stroke-opacity:1"/><path d="M433.34 250.096c-1.39-1.766.908-5.613 1.439-6.102 1.947-1.793 6.129-2.437 7.933-2.554 6.094-.394 11.402 3.341 13.36 8.136 2.413 5.907 1.17 12.001-4.28 16.2-1.718 1.324-4.174 2.173-6.324 2.401-6.568.697-11.325-2.4-13.998-6.23-2.436-3.49-3.07-8.149-1.797-11.97.43-1.293 1.877-3.57 3.608-4.83.21-.151 1.04-.782 1.625.024" style="fill:#fff6d5;fill-opacity:1;stroke:#000;stroke-width:.999997;stroke-miterlimit:4;stroke-dasharray:none"/><path d="M482.785 251.349c.565.763 1.142 1.536 1.385 2.591.224.97.358 2.146.145 3.271-.23 1.22-1.142 2.266-2.02 3.043-1.56 1.38-3.572 1.579-5.013 1.3-2.328-.45-4.376-2.081-5.588-4.188-.617-1.074-.91-2.436-.857-3.935.048-1.334.75-2.784 1.327-3.499 1.135-1.405 2.773-2.17 4.3-2.249 1.514-.078 3.17.508 4.113 1.644.116.14.76 1.117.359 2.253" style="fill:#fff6d5;fill-opacity:1;stroke:#000;stroke-width:.999996;stroke-miterlimit:4;stroke-dasharray:none;stroke-opacity:1"/><path d="M-83.74 59.542c4.318-3.61 11.065-6.35 16.86-6.041 7.346.392 13.593 6.809 16.998 14.538 3.5 7.942 4.446 17.187 2.305 25.613-2.258 8.882-8.79 15.886-16.672 19.123-8.502 3.49-18.764 2.274-25.908-4.215-3.568-3.24-6.641-7.268-8.196-12.077-2.835-8.769-1.492-18.66 2.486-26.591 3.397-6.774 8.725-12.877 15.684-15.226" style="display:inline;fill:#e5f6ff;fill-opacity:1;stroke:#000;stroke-width:1;stroke-miterlimit:10;stroke-dasharray:none;stroke-opacity:1"/><path d="M234.9-435.78c-1.646-1.265-3.686-1.674-5.7-1.904-2.221-.112-4.515.09-6.52 1.143-.327.172-.623.4-.934.6a6.28 6.28 0 0 0-2.427 4.565c-.027.387.015.775.022 1.163.477 2.991 2.51 5.24 4.607 7.275 2.324 2.23 5.063 3.826 7.975 5.146 2.086.898 4.208 1.703 6.42 2.227.557.104 1.117.247 1.687.269l.044-.001-.004-.1-.037.002c-.564-.017-1.118-.16-1.67-.26-2.207-.519-4.324-1.32-6.405-2.216-2.902-1.314-5.633-2.905-7.95-5.128-2.08-2.02-4.1-4.25-4.577-7.215-.008-.382-.049-.765-.022-1.146a6.196 6.196 0 0 1 2.385-4.505c.307-.197.599-.422.922-.592 1.989-1.048 4.268-1.25 6.474-1.138 1.989.227 4.002.631 5.63 1.875l.08-.058z" style="fill:#000;fill-opacity:1;stroke:#000;stroke-width:.9"/><path d="M233.945-435.882c1.178-2.185 3.103-3.646 5.23-4.832.455-.14.896-.338 1.365-.42 1.859-.322 4.159-.003 5.66 1.207.334.269.592.62.888.929 1.593 2.066 2 4.36 1.96 6.903-.214 2.662-.942 5.244-1.782 7.767a81.322 81.322 0 0 1-2.882 6.389 12.92 12.92 0 0 1-2.487 3.34l-.173.2.075.063.166-.194a13.093 13.093 0 0 0 2.501-3.369 81.835 81.835 0 0 0 2.884-6.4c.843-2.533 1.573-5.124 1.787-7.795.04-2.567-.373-4.882-1.984-6.966-.302-.314-.566-.67-.906-.942-1.524-1.221-3.85-1.544-5.733-1.216-.475.083-.922.285-1.382.427-2.157 1.205-4.071 2.66-5.275 4.871l.088.038zM304.567-346.987c-1.784-.979-3.067-2.67-4.365-4.192-2.345-2.708-3.885-5.931-5.39-9.146-1.082-2.605-1.884-5.318-2.214-8.124-.214-1.824-.165-2.36-.17-4.174.08-2.797.565-5.637 2.349-7.889.288-.364.64-.674.959-1.011 2.687-2.273 5.738-2.248 9.07-1.94 2.26.35 4.467 1.114 6.385 2.382.992.655 1.603 1.254 2.484 2.039a28.688 28.688 0 0 1 3.837 4.388c.108.153.208.31.298.474l.087-.048a5.366 5.366 0 0 0-.306-.482 29.31 29.31 0 0 0-3.858-4.397c-.888-.79-1.5-1.39-2.5-2.05-1.928-1.273-4.147-2.038-6.42-2.39-3.36-.31-6.432-.333-9.141 1.963-.323.341-.677.655-.968 1.024-1.792 2.267-2.281 5.123-2.36 7.937.007 1.823-.042 2.353.174 4.186.33 2.814 1.133 5.535 2.218 8.147 1.508 3.223 3.05 6.453 5.4 9.168 1.306 1.536 2.597 3.238 4.394 4.225l.037-.09z" style="fill:#000;fill-opacity:1;stroke:#000;stroke-width:.9"/><path d="M318.156-374.696c1.743-.86 3.58-1.45 5.472-1.87 2.71-.556 4.54-.004 6.9 1.314 2.42 1.571 3.825 3.963 5.018 6.509.782 2.01 1.498 4.177 1.114 6.361-.069.392-.201.77-.302 1.154-.916 2.466-2.801 4.325-4.73 6.033-2.227 1.924-4.765 3.425-7.256 4.975-2.25 1.392-4.726 2.331-7.189 3.27-2.191.776-4.282 1.257-6.601 1.393-1.468.05-2.937.028-4.403-.033l-.004.097c1.47.056 2.942.076 4.412.027 2.33-.137 4.427-.62 6.628-1.401 2.467-.941 4.949-1.882 7.203-3.28 2.495-1.551 5.037-3.055 7.269-4.982 1.941-1.72 3.839-3.592 4.758-6.077.101-.389.235-.771.304-1.167.384-2.2-.334-4.382-1.123-6.408-1.202-2.562-2.618-4.968-5.056-6.549-2.379-1.329-4.229-1.885-6.962-1.324-1.899.42-3.743 1.014-5.495 1.871l.043.087zM328.882-475.537c-2.186-.331-4.38-1.457-6.393-2.34-3.752-1.762-7.511-3.683-10.703-6.366-.64-.538-1.23-1.132-1.846-1.697-2.798-2.913-4.786-6.495-5.4-10.516-.112-.739-.136-1.488-.203-2.232.068-3.442.777-6.993 2.758-9.883.325-.474.733-.887 1.1-1.33 2.687-2.57 5.286-2.882 8.841-2.678 2.152.228 4.25.8 6.297 1.488.242.082.48.173.716.272l.038-.09a11.12 11.12 0 0 0-.724-.272c-2.056-.684-4.162-1.256-6.322-1.484-3.665-.21-6.125.087-8.912 2.71-.37.447-.78.864-1.107 1.343-1.987 2.905-2.7 6.473-2.766 9.931.068.747.092 1.5.205 2.241.618 4.038 2.615 7.634 5.426 10.558.617.567 1.21 1.162 1.852 1.7 3.197 2.687 6.96 4.612 10.716 6.382 2.039.897 4.212 2.021 6.427 2.36v-.097zM324.658-510.256c1.602-2.735 4.415-4.465 7.114-5.966 2.772-1.37 5.812-2.083 8.88-1.372.517.12 1.01.325 1.516.488.454.233.936.418 1.362.7 2.327 1.533 3.247 4.2 3.984 6.74.574 2.432.766 4.942.478 7.428-.188 1.62-.398 2.307-.77 3.901-1.171 4.421-3.565 8.326-5.875 12.22-2.169 3.658-4.641 7.12-7.132 10.563-.914 1.078-1.483 2.445-2.468 3.465l.07.068c.981-1.032 1.556-2.396 2.468-3.483 2.487-3.448 4.96-6.912 7.13-10.572 2.316-3.901 4.714-7.813 5.887-12.242.374-1.599.585-2.289.773-3.914.29-2.496.096-5.016-.48-7.458-.743-2.566-1.674-5.248-4.025-6.794-.43-.283-.918-.47-1.376-.704-.51-.164-1.008-.37-1.53-.49-3.086-.714-6.144.005-8.932 1.384-2.72 1.514-5.565 3.258-7.17 6.022l.096.016zM323.187-530.793c-1.195-1.25-2.953-1.804-4.52-2.43-4.306-1.517-8.496-3.316-12.634-5.237-3.365-1.734-6.708-3.635-9.577-6.131-.484-.421-.932-.882-1.398-1.323-2.01-1.992-3.554-4.4-4.355-7.126-.137-.467-.22-.949-.33-1.423-.391-2.502-.01-4.616 1.1-6.863 1.125-1.988 2.742-3.585 4.652-4.812 2.204-1.332 4.035-1.53 6.55-1.346 2.842.401 5.503 1.476 8.03 2.795 1.407.78 2.827 1.553 4.09 2.556.157.125.303.26.442.402l.07-.07a5.128 5.128 0 0 0-.451-.408c-1.272-1.002-2.696-1.778-4.11-2.558-2.538-1.324-5.211-2.403-8.064-2.806-2.536-.185-4.384.015-6.606 1.359-1.923 1.237-3.552 2.844-4.685 4.848-1.117 2.267-1.501 4.399-1.104 6.923.112.477.196.961.334 1.432.807 2.738 2.36 5.158 4.38 7.158.467.442.917.904 1.403 1.326 2.876 2.5 6.225 4.402 9.596 6.138 4.14 1.921 8.33 3.723 12.634 5.247 1.55.623 3.292 1.172 4.474 2.408l.079-.059z" style="fill:#000;fill-opacity:1;stroke:#000;stroke-width:.9"/><path d="M314.939-561.083c-.087-1.59.518-3.01 1.27-4.37 1.131-1.891 2.735-3.356 4.532-4.591 1.842-1.14 3.938-1.709 6.047-2.107 1.503-.216 3.184-.434 4.607.261.23.113.436.271.654.407 1.452 1.153 2.078 2.897 2.62 4.608.521 1.893.771 3.838.589 5.793-.196 2.072-1.129 3.953-2.027 5.796a162.392 162.392 0 0 0-3.52 7.351c-1.237 2.819-2.338 5.694-3.416 8.576-1.06 2.682-1.76 5.473-2.328 8.292-.321 1.428-.384 2.909-.875 4.294l.091.033c.487-1.392.552-2.876.871-4.309.568-2.815 1.263-5.602 2.322-8.28 1.077-2.88 2.178-5.753 3.415-8.57a161.622 161.622 0 0 1 3.52-7.347c.905-1.853 1.843-3.744 2.039-5.827.182-1.968-.069-3.925-.593-5.83-.55-1.732-1.185-3.495-2.66-4.66-.223-.138-.433-.3-.67-.414-1.44-.7-3.136-.483-4.656-.263-2.121.4-4.23.972-6.082 2.12-1.808 1.245-3.422 2.72-4.56 4.622-.76 1.374-1.37 2.808-1.288 4.415h.098zM235.993-538.324c-1.704-.719-3.51-1.14-5.324-1.464-2.52-.485-5.032-.34-7.534.132-1.501.409-3.02.998-4.184 2.07-.722.666-.957 1.108-1.51 1.914-.99 1.836-1.627 3.918-1.574 6.021.01.404.068.805.102 1.208.47 2.768 1.855 4.324 4 5.996 2.818 1.926 6.096 2.916 9.314 3.94 3.576.979 7.025 2.31 10.357 3.927 2.456 1.304 4.637 3.018 6.719 4.843.486.43.97.862 1.45 1.3l.066-.073c-.482-.436-.968-.867-1.456-1.296-2.09-1.827-4.278-3.544-6.742-4.85-3.336-1.618-6.789-2.95-10.368-3.932-3.208-1.022-6.477-2.008-9.286-3.928-2.122-1.656-3.496-3.194-3.965-5.935-.226-2.664.16-4.803 1.456-7.17.546-.795.78-1.236 1.492-1.893 1.152-1.064 2.658-1.647 4.145-2.054 2.492-.472 4.993-.615 7.502-.132 1.805.324 3.603.743 5.296 1.463l.044-.087z" style="fill:#000;fill-opacity:1;stroke:#000;stroke-width:.9"/><path d="M236.098-537.354c1.189-2.71 3.303-4.704 5.657-6.408 2.956-1.89 6.513-2.341 9.946-2.542 2.005-.006 4.183.19 5.838 1.452.242.185.45.41.676.615 1.42 1.874 1.683 3.314 1.433 5.618-.46 2.514-1.696 4.775-2.852 7.023-1.48 2.516-2.554 5.22-3.596 7.935-1.308 3.197-2.148 6.542-2.912 9.9-.603 2.811-1.34 5.62-1.652 8.483l.094.01c.297-2.862 1.039-5.667 1.64-8.474.765-3.354 1.604-6.695 2.911-9.887 1.042-2.713 2.115-5.414 3.594-7.927 1.161-2.257 2.402-4.528 2.863-7.053.252-2.337-.016-3.799-1.461-5.696-.23-.208-.442-.437-.689-.624-1.672-1.27-3.868-1.47-5.892-1.46-3.449.203-7.022.657-9.992 2.557-2.367 1.715-4.49 3.721-5.695 6.443l.089.035zM359.763-392.477c-1.25-1.402-2.524-2.754-3.968-3.956-1.669-1.101-3.652-1.929-5.695-1.607-.406.064-.795.21-1.193.316-2.195.867-4.293 2.227-5.528 4.3-.254.427-.424.899-.637 1.348-.894 2.686-.5 5.397 1.078 7.748.362.54.798 1.027 1.198 1.54.49.501.966 1.015 1.468 1.503 1.63 1.584 3.347 3.069 4.925 4.709 1.32 1.372 1.799 1.97 3.029 3.402 2.063 2.412 3.615 5.193 5.445 7.773.33.449.677.887 1.065 1.288l.07-.069a12.1 12.1 0 0 1-1.06-1.273c-1.838-2.577-3.393-5.359-5.459-7.772-1.227-1.428-1.717-2.038-3.033-3.406-1.578-1.64-3.293-3.125-4.923-4.71-.5-.485-.974-.997-1.461-1.496-.397-.51-.83-.994-1.19-1.531-1.562-2.327-1.956-5.009-1.073-7.668.21-.445.378-.912.629-1.334 1.222-2.057 3.304-3.405 5.48-4.265.391-.104.774-.25 1.175-.313 2.02-.321 3.981.498 5.632 1.587 1.439 1.197 2.709 2.544 3.947 3.945l.079-.059z" style="fill:#000;fill-opacity:1;stroke:#000;stroke-width:.9"/><path d="M359.223-393.259c1.433-1.575 3.264-2.685 5.174-3.58 2.596-1.04 4.122-.996 6.578.292 1.949 1.262 2.608 2.71 2.902 4.946.124 2.374-.853 4.547-1.82 6.656-1.574 3.376-3.377 6.632-5.224 9.864-1.61 2.765-3.087 5.652-3.89 8.767-.134.52-.22 1.05-.33 1.577l-.097 1.373.088.006.093-1.362c.109-.523.194-1.052.327-1.57.8-3.11 2.274-5.99 3.88-8.75 1.85-3.234 3.655-6.492 5.232-9.869.977-2.123 1.96-4.312 1.831-6.704-.3-2.269-.972-3.737-2.95-5.015-2.484-1.299-4.034-1.344-6.657-.291-1.924.901-3.767 2.02-5.215 3.601l.078.06z" style="fill:#000;fill-opacity:1;stroke:#000;stroke-width:.9"/><path d="M686.414 177.292c.322-2.31.715-4.108 1.771-7.014 2.235-6.147 5.708-12.28 9.266-18.8 1.921-3.52 3.012-8.243 1.82-12.234-1.2-4.022-6.004-6.432-10.183-6.12-5.978.444-10.794 4.368-12.667 9.72-.272.776.107.434-.268.617-2.969-2.824-7.209-4.715-11.561-4.813-4.986-.113-8.966 2.842-10.743 7.286-2.02 5.219.64 10.99 4.511 14.583 5.953 5.646 13.786 8.629 21.273 11.645 2.212.891 5.54 2.096 7.231 3.36" style="fill:#f55;fill-opacity:1;stroke:#000;stroke-width:1"/><g mask="url(#a)" transform="translate(275.782 -254.855)"><path d="M363.172 229.704a56.2 56.2 0 0 0 1.767-2.26c1.846-2.49 3.067-4.555 4.4-7.357 1.25-2.63 1.829-5.715.826-8.51-.449-1.251-1.606-2.533-2.83-2.82-2.114-.497-4.152-.004-5.967 1.35-.791.59-1.628 1.391-2.09 2.078l.095-.128c-1.201-.576-2.526-.897-3.85-1.027-1.354-.115-3.088.385-4.13 1.33-1.82 1.651-1.952 3.72-1.804 5.492.235 2.81 1.718 5.405 3.928 7.084 1.983 1.508 4.254 2.586 6.547 3.53.927.381 2.331.709 2.769.776" style="fill:#ddffc6;fill-opacity:1;stroke:#6cefb6;stroke-width:1.5;stroke-dasharray:none;stroke-opacity:1"/><path d="M364.155 300.868a56.2 56.2 0 0 0 2.819-.532c3.03-.651 5.31-1.396 8.162-2.621 2.674-1.15 5.145-3.085 6.238-5.848.488-1.235.465-2.962-.264-3.985-1.261-1.77-3.117-2.744-5.374-2.925-.984-.08-2.141-.03-2.941.181l.156-.034c-.523-1.225-1.306-2.34-2.214-3.312-.942-.98-2.574-1.75-3.98-1.728-2.458.04-3.923 1.506-4.982 2.934-1.678 2.267-2.277 5.195-1.726 7.915.495 2.442 1.489 4.75 2.588 6.973.444.898 1.283 2.071 1.568 2.41" style="fill:#ff8080;fill-opacity:1;stroke:red;stroke-width:1.5;stroke-dasharray:none;stroke-opacity:1"/><path d="M421.909 223.689a56.203 56.203 0 0 0 1.898-2.151c1.99-2.376 3.332-4.365 4.83-7.083 1.403-2.55 2.164-5.595 1.329-8.446-.374-1.275-1.453-2.624-2.657-2.983-2.082-.621-4.145-.25-6.037.994-.825.541-1.708 1.292-2.21 1.95l.103-.123c-1.166-.646-2.469-1.045-3.782-1.253-1.346-.195-3.106.2-4.202 1.082-1.915 1.54-2.17 3.598-2.127 5.375.067 2.82 1.394 5.498 3.5 7.305 1.89 1.623 4.093 2.835 6.326 3.913.902.435 2.285.846 2.718.939" style="fill:#e2ffd2;fill-opacity:1;stroke:#8ff0c8;stroke-width:1.5;stroke-dasharray:none;stroke-opacity:1"/><path d="M386.677 217.962a56.198 56.198 0 0 0 2.701-.968c2.89-1.119 5.026-2.212 7.65-3.87 2.46-1.555 4.597-3.854 5.242-6.754.289-1.296-.005-2.999-.886-3.895-1.523-1.549-3.508-2.22-5.766-2.045-.984.076-2.12.307-2.877.64l.15-.057c-.71-1.128-1.658-2.107-2.707-2.924-1.084-.82-2.817-1.324-4.202-1.081-2.42.424-3.638 2.103-4.459 3.68-1.302 2.501-1.434 5.487-.462 8.087.871 2.333 2.215 4.458 3.65 6.48.58.817 1.592 1.844 1.926 2.135" style="fill:#ff8080;fill-opacity:1;stroke:red;stroke-width:1.5;stroke-dasharray:none;stroke-opacity:1"/></g><path d="M532.78 195.508c.49.67.99 1.346 1.2 2.27.193.85.309 1.88.125 2.866-.2 1.068-.989 1.986-1.748 2.666-1.35 1.209-3.091 1.383-4.339 1.14-2.014-.395-3.787-1.824-4.836-3.67-.534-.941-.788-2.135-.741-3.448.041-1.169.648-2.439 1.148-3.065.982-1.23 2.4-1.902 3.722-1.97 1.31-.068 2.743.445 3.559 1.44.1.123.658.978.31 1.974" style="fill:#e5f6ff;fill-opacity:1;stroke:#000;stroke-width:1.32283;stroke-miterlimit:4;stroke-dasharray:none;stroke-opacity:1"/><path d="M794.934-43.63a56.2 56.2 0 0 0 1.767-2.26c1.846-2.49 3.067-4.554 4.4-7.357 1.25-2.629 1.829-5.714.826-8.51-.45-1.25-1.606-2.533-2.83-2.82-2.115-.496-4.152-.003-5.967 1.35-.791.59-1.628 1.392-2.09 2.079l.095-.129c-1.202-.575-2.526-.896-3.85-1.026-1.355-.115-3.088.384-4.13 1.33-1.82 1.65-1.953 3.72-1.804 5.492.235 2.81 1.718 5.404 3.928 7.084 1.983 1.507 4.254 2.586 6.547 3.53.926.38 2.33.708 2.768.775" style="fill:#ddffc6;fill-opacity:1;stroke:#6cefb6;stroke-width:1.5;stroke-dasharray:none;stroke-opacity:1"/><path d="M761.133 171.014a56.2 56.2 0 0 0 2.82-.531c3.03-.652 5.31-1.396 8.161-2.622 2.675-1.15 5.146-3.085 6.238-5.847.489-1.235.466-2.963-.263-3.986-1.261-1.769-3.117-2.743-5.374-2.925-.984-.079-2.141-.03-2.942.182l.156-.034c-.522-1.226-1.306-2.341-2.214-3.312-.942-.981-2.573-1.75-3.98-1.728-2.457.039-3.923 1.506-4.981 2.934-1.679 2.267-2.277 5.194-1.726 7.914.495 2.442 1.488 4.752 2.588 6.973.444.899 1.283 2.072 1.567 2.411" style="fill:#ff8080;fill-opacity:1;stroke:red;stroke-width:1.5;stroke-dasharray:none;stroke-opacity:1"/><path d="M853.67-49.644a56.203 56.203 0 0 0 1.898-2.152c1.991-2.376 3.333-4.364 4.83-7.082 1.404-2.55 2.165-5.596 1.33-8.446-.374-1.275-1.453-2.624-2.657-2.983-2.082-.622-4.145-.25-6.038.993-.824.542-1.707 1.292-2.209 1.95l.102-.122c-1.165-.646-2.468-1.045-3.781-1.253-1.346-.196-3.106.2-4.202 1.082-1.915 1.54-2.17 3.598-2.128 5.375.068 2.82 1.395 5.497 3.5 7.305 1.89 1.623 4.094 2.834 6.326 3.912.903.436 2.285.846 2.718.94" style="fill:#e2ffd2;fill-opacity:1;stroke:#8ff0c8;stroke-width:1.5;stroke-dasharray:none;stroke-opacity:1"/><path d="M818.439-55.372a56.198 56.198 0 0 0 2.7-.967c2.891-1.12 5.026-2.212 7.65-3.87 2.461-1.555 4.598-3.854 5.243-6.754.289-1.297-.005-2.999-.886-3.895-1.523-1.55-3.509-2.22-5.767-2.045-.983.076-2.119.307-2.876.64l.149-.057c-.709-1.129-1.657-2.107-2.707-2.924-1.084-.82-2.816-1.324-4.201-1.082-2.421.425-3.639 2.103-4.46 3.68-1.302 2.502-1.433 5.487-.462 8.087.872 2.334 2.216 4.459 3.65 6.48.58.818 1.593 1.845 1.927 2.135" style="fill:#ff8080;fill-opacity:1;stroke:red;stroke-width:1.5;stroke-dasharray:none;stroke-opacity:1"/><path d="M406.905 234.346c2.396-.778 4.787-.53 7.182.08.438.206.902.37 1.3.634 1.593 1.05 3.062 2.888 3.33 4.819.063.43.02.87.018 1.308-.256 2.618-1.542 4.594-3.335 6.422-1.991 1.805-4.3 3.189-6.646 4.453a83.489 83.489 0 0 1-6.494 2.673 12.9 12.9 0 0 1-4.13.737m.448-.364c-1.053-1.109-1.961-2.478-2.293-2.928-1.25-1.895-2.237-3.925-3.14-6-1.21-2.956-2.106-5.986-2.263-9.186-.128-2.896-.067-5.905 1.621-8.395.254-.283.485-.587.768-.843a6.182 6.182 0 0 1 4.826-1.648c.355.075.724.106 1.074.202 2.168.602 3.964 2.02 5.496 3.617 1.29 1.532 2.478 3.202 2.806 5.23" style="fill:#ff8080;fill-opacity:1;stroke:#f0f;stroke-width:1.5;stroke-dasharray:none" transform="translate(257.098 -131.815)"/><path d="M383.597 273.873c3.102-2.158 6.212-5.592 8.44-8.919 2.067-3.085 3.943-6.677 5.26-10.163 1.43-3.787 2.342-7.932 1.768-12.484-.364-2.89-2.532-6.6-4.925-8.05-3.393-2.056-6.455-2.637-10.457-1.524-2.963.824-5.284 2.334-7.577 5.298-.587.76-1.762 2.262-2.085 3.444-3.544-1.104-7.115-1.84-10.791-1.152-3.919.734-7.59 2.937-10.05 6.078-2.305 2.943-1.987 7.138-.236 10.288 3.294 5.92 9.045 10.739 15.162 13.499 3.764 1.698 8.522 3.04 12.633 3.372.603.049 2.102.14 2.699.04" style="fill:#fae;fill-opacity:1;stroke:#f0f;stroke-width:1.5;stroke-dasharray:none;stroke-opacity:1" transform="translate(257.098 -131.815)"/><path d="M406.502 276.886c-.035-.259-.172-.955-.212-1.213-.177-1.097-.572-1.997-.996-3.037-.61-1.357-1.25-2.753-2.102-3.98-.727-1.142-1.4-2.387-1.772-3.702-.23-1.053-.259-1.88.303-2.837.615-.875 1.284-1.428 2.288-1.815.375-.102.558-.177.947-.194.63-.024 1.24.187 1.805.448.887.501 1.693 1.106 2.343 1.902.476.567.979 1.318 1.188 2.036.068-.038.272-.12.481-.189 1.391-.407 2.97-.387 4.355.123a6.772 6.772 0 0 1 3.155 2.432c.686.987.61 2.344-.207 3.166-.928.984-2.3 1.48-3.517 1.992-1.614.678-3.013 1.385-4.544 2.233-.994.55-2.25 1.393-3.291 2.348" style="fill:#ffd5f6;fill-opacity:1;fill-rule:nonzero;stroke:red;stroke-width:1.5;stroke-dasharray:none;stroke-opacity:1" transform="translate(257.098 -131.815)"/><path d="M553.681 97.103c1.988-1.673 4.369-2.363 6.893-2.71.498.028 1.005.003 1.487.102 1.93.385 4.046 1.572 5.05 3.312.227.386.356.824.525 1.243.77 2.6.308 4.987-.696 7.428-1.202 2.498-2.87 4.714-4.622 6.832a86.077 86.077 0 0 1-5.167 5.072 13.3 13.3 0 0 1-3.66 2.306m.287-.522c-1.436-.65-2.835-1.607-3.326-1.908-1.93-1.325-3.659-2.882-5.325-4.513-2.304-2.356-4.334-4.903-5.726-7.899-1.245-2.718-2.353-5.615-1.706-8.649.132-.369.236-.749.406-1.103a6.373 6.373 0 0 1 3.971-3.446c.37-.067.734-.18 1.105-.223 2.304-.267 4.57.392 6.653 1.323 1.827.964 3.609 2.099 4.709 3.909" style="fill:#ff8080;fill-opacity:1;stroke:#f0f;stroke-width:1;stroke-dasharray:none"/><path d="M533.181 136.943c1.619-1.12 3.242-2.905 4.404-4.633a26.724 26.724 0 0 0 2.745-5.281c.746-1.968 1.221-4.121.922-6.486-.19-1.502-1.321-3.43-2.57-4.183-1.77-1.068-3.367-1.37-5.456-.792-1.546.429-2.757 1.213-3.953 2.753-.306.394-.92 1.175-1.087 1.79-1.85-.575-3.713-.957-5.63-.6-2.045.382-3.96 1.527-5.244 3.159-1.203 1.529-1.037 3.708-.123 5.345 1.718 3.077 4.719 5.58 7.91 7.014 1.964.882 4.447 1.58 6.591 1.752.315.025 1.097.072 1.408.02" style="fill:#fae;fill-opacity:1;stroke:#f0f;stroke-width:1;stroke-dasharray:none;stroke-opacity:1"/><path d="M569.618 136.218c-.035-.26-.173-.955-.213-1.213-.177-1.097-.572-1.997-.996-3.037-.61-1.357-1.25-2.753-2.102-3.98-.727-1.142-1.399-2.388-1.771-3.702-.23-1.053-.26-1.88.302-2.837.615-.875 1.285-1.428 2.288-1.815.375-.102.559-.177.947-.195.63-.023 1.24.188 1.805.449.888.5 1.694 1.105 2.344 1.902.475.566.978 1.318 1.187 2.036.068-.039.273-.12.482-.19 1.39-.406 2.969-.386 4.354.124a6.772 6.772 0 0 1 3.156 2.432c.686.987.61 2.344-.207 3.166-.929.984-2.3 1.48-3.518 1.992-1.614.678-3.013 1.385-4.544 2.232-.993.55-2.25 1.394-3.29 2.348" style="fill:#ffd5f6;fill-opacity:1;fill-rule:nonzero;stroke:red;stroke-width:1;stroke-dasharray:none;stroke-opacity:1"/><path d="M641.62 452c1.759-1.686 3.945-2.476 6.287-2.954.468-.004.941-.058 1.398.005 1.83.243 3.882 1.226 4.929 2.794.235.348.382.75.565 1.132.879 2.387.59 4.65-.201 6.995-.974 2.41-2.402 4.587-3.914 6.675a80.75 80.75 0 0 1-4.529 5.06c-.954.967-2.07 1.77-3.287 2.38m.237-.506c-1.382-.522-2.75-1.332-3.228-1.584-1.887-1.124-3.6-2.476-5.258-3.903-2.3-2.065-4.354-4.326-5.838-7.046-1.33-2.469-2.543-5.114-2.12-7.992.1-.354.175-.716.313-1.058a5.978 5.978 0 0 1 3.509-3.466c.34-.084.675-.212 1.02-.276 2.14-.388 4.302.091 6.308.836 1.768.792 3.505 1.746 4.644 3.374" style="fill:#f55;fill-opacity:1;stroke:#170b28;stroke-width:.99999;stroke-dasharray:none;stroke-opacity:1"/><path d="M598.905 492.172c1.686-1.169 3.378-3.028 4.59-4.83a27.855 27.855 0 0 0 2.859-5.503c.778-2.05 1.273-4.295.961-6.76-.198-1.565-1.377-3.574-2.678-4.36-1.845-1.113-3.51-1.427-5.685-.824-1.612.446-2.874 1.263-4.12 2.869-.32.41-.958 1.225-1.134 1.864-1.927-.598-3.868-.996-5.867-.623-2.131.397-4.127 1.59-5.464 3.29-1.254 1.594-1.081 3.866-.129 5.572 1.79 3.206 4.918 5.815 8.244 7.31 2.046.92 4.634 1.646 6.869 1.826.328.026 1.143.075 1.467.022" style="fill:#f55;fill-opacity:1;stroke:#170b28;stroke-width:.999992;stroke-dasharray:none;stroke-opacity:1"/><path d="M687.707 483.676c-.038-.279-.185-1.027-.228-1.304-.19-1.18-.614-2.148-1.07-3.266-.655-1.46-1.342-2.961-2.256-4.28-.78-1.23-1.502-2.569-1.902-3.982-.247-1.132-.279-2.023.325-3.051.66-.941 1.379-1.536 2.456-1.952.402-.11.6-.19 1.017-.21.676-.025 1.332.202 1.937.483.954.539 1.82 1.189 2.517 2.045.51.61 1.05 1.418 1.275 2.19.073-.041.292-.13.517-.203 1.493-.438 3.188-.416 4.675.132a7.272 7.272 0 0 1 3.388 2.616c.736 1.06.654 2.52-.222 3.405-.997 1.058-2.47 1.592-3.777 2.142-1.733.729-3.235 1.49-4.878 2.4-1.067.592-2.417 1.5-3.534 2.526" style="fill:#f55;fill-opacity:1;fill-rule:nonzero;stroke:#170b28;stroke-width:.999993;stroke-dasharray:none;stroke-opacity:1"/><path d="M646.24 509.357c-1.167-.506-2.42-1.43-3.374-2.375a17.205 17.205 0 0 1-2.402-2.99c-.72-1.148-1.291-2.448-1.397-3.978-.068-.97.408-2.328 1.106-2.959.99-.894 1.965-1.283 3.362-1.179 1.034.078 1.9.422 2.852 1.245.244.21.731.627.915.993 1.101-.592 2.235-1.065 3.496-1.079a5.712 5.712 0 0 1 3.722 1.34c.955.815 1.122 2.21.748 3.357-.705 2.155-2.295 4.108-4.14 5.41-1.136.802-2.623 1.551-3.962 1.927-.197.055-.687.182-.89.189" style="fill:#f55;fill-opacity:1;stroke:#170b28;stroke-width:1;stroke-dasharray:none;stroke-opacity:1"/><path d="M575.11 394.09c.664-2.236 1.322-3.956 2.8-6.67 3.129-5.744 7.48-11.289 11.973-17.204 2.425-3.193 4.21-7.7 3.629-11.825-.586-4.155-4.976-7.257-9.154-7.574-5.978-.453-11.326 2.706-13.979 7.717-.384.727.041.446-.357.57-2.513-3.235-6.422-5.738-10.711-6.486-4.913-.857-9.29 1.47-11.711 5.598-2.779 4.858-1.01 10.962 2.28 15.093 5.041 6.473 12.34 10.593 19.293 14.695 2.054 1.212 5.164 2.9 6.647 4.402" style="fill:#eaf;fill-opacity:1;stroke:#ab37c8;stroke-width:1"/><path d="M600.305 390.78a56.188 56.188 0 0 0 2.82-.532c3.03-.652 5.31-1.396 8.161-2.622 2.675-1.15 5.146-3.085 6.238-5.847.489-1.236.466-2.963-.263-3.986-1.261-1.77-3.117-2.743-5.374-2.925-.984-.08-2.141-.03-2.942.181l.156-.033c-.522-1.226-1.306-2.341-2.214-3.312-.942-.982-2.573-1.75-3.98-1.728-2.457.039-3.923 1.505-4.981 2.934-1.679 2.266-2.277 5.194-1.726 7.914.495 2.442 1.488 4.751 2.588 6.973.444.898 1.283 2.072 1.567 2.411" style="fill:#fae;fill-opacity:1;stroke:red;stroke-width:1;stroke-dasharray:none;stroke-opacity:1"/><path d="M536.465 394.195c.077-.36.344-1.322.429-1.68.365-1.522 1.016-2.744 1.723-4.158 1.002-1.841 2.05-3.733 3.376-5.364 1.143-1.527 2.22-3.204 2.884-5.01.435-1.454.566-2.614-.12-4.017-.768-1.296-1.649-2.144-3.015-2.796-.515-.183-.765-.308-1.307-.375-.881-.1-1.761.13-2.58.435-1.3.609-2.496 1.371-3.494 2.42-.728.745-1.514 1.746-1.885 2.732a5.07 5.07 0 0 0-.655-.317c-1.907-.721-4.124-.863-6.122-.296a9.528 9.528 0 0 0-4.689 3.077c-1.068 1.312-1.107 3.227-.05 4.47 1.198 1.482 3.068 2.326 4.722 3.175 2.192 1.126 4.078 2.27 6.135 3.625 1.335.879 3.008 2.2 4.365 3.652" style="fill:#fac;fill-opacity:1;fill-rule:nonzero;stroke:#f0f;stroke-width:1;stroke-dasharray:none;stroke-opacity:1"/><path d="M384.726 228.187c1.904-1.601 4.184-2.262 6.601-2.595.477.027.963.003 1.424.098 1.849.369 3.875 1.505 4.838 3.172.216.37.34.789.502 1.19.738 2.49.295 4.776-.666 7.115-1.152 2.391-2.75 4.514-4.428 6.543a82.444 82.444 0 0 1-4.948 4.857 12.738 12.738 0 0 1-3.506 2.208m.275-.5c-1.374-.623-2.714-1.538-3.185-1.827-1.848-1.269-3.504-2.76-5.1-4.322-2.207-2.256-4.151-4.695-5.483-7.565-1.193-2.603-2.255-5.378-1.635-8.283.127-.353.226-.717.39-1.056a6.104 6.104 0 0 1 3.803-3.3c.353-.065.702-.173 1.058-.215 2.207-.255 4.377.376 6.372 1.268 1.749.923 3.456 2.01 4.51 3.743" style="fill:#fae;fill-opacity:1;stroke:red;stroke-width:.999997;stroke-dasharray:none;stroke-opacity:1" transform="translate(272.086)"/><path d="M360.34 268.297c1.723-1.194 3.45-3.092 4.687-4.932a28.443 28.443 0 0 0 2.92-5.62c.794-2.093 1.3-4.385.982-6.902-.202-1.598-1.406-3.65-2.735-4.452-1.883-1.136-3.583-1.458-5.805-.842-1.646.456-2.934 1.29-4.207 2.93-.326.42-.978 1.25-1.157 1.903-1.968-.61-3.95-1.017-5.992-.636-2.175.405-4.213 1.624-5.58 3.36-1.279 1.627-1.103 3.947-.13 5.689 1.828 3.274 5.021 5.938 8.417 7.464 2.09.94 4.732 1.681 7.014 1.865.335.027 1.167.077 1.498.022" style="fill:#ffd5f6;fill-opacity:1;stroke:#f06;stroke-width:1;stroke-dasharray:none;stroke-opacity:1" transform="translate(272.086)"/><path d="M404.9 271.971c-.039-.284-.19-1.048-.234-1.331-.193-1.205-.626-2.193-1.092-3.335-.669-1.49-1.37-3.022-2.304-4.369-.798-1.255-1.535-2.622-1.943-4.065-.252-1.156-.284-2.065.332-3.115.674-.961 1.408-1.568 2.508-1.993.412-.112.613-.194 1.039-.214.69-.026 1.36.206 1.98.492.973.55 1.857 1.214 2.57 2.09.52.621 1.072 1.446 1.302 2.234.074-.042.298-.132.528-.207 1.525-.447 3.255-.425 4.774.135a7.427 7.427 0 0 1 3.461 2.67c.752 1.084.669 2.574-.227 3.477-1.018 1.08-2.522 1.625-3.857 2.187-1.77.744-3.304 1.52-4.983 2.45-1.09.604-2.468 1.531-3.609 2.579" style="fill:#fac;fill-opacity:1;fill-rule:nonzero;stroke:#f0f;stroke-width:1;stroke-dasharray:none;stroke-opacity:1" transform="translate(272.086)"/><path d="M381.819 284.688c-1.193-.517-2.472-1.46-3.447-2.427a17.578 17.578 0 0 1-2.454-3.055c-.735-1.174-1.319-2.502-1.427-4.064-.07-.992.417-2.38 1.13-3.024 1.01-.914 2.007-1.312 3.434-1.204 1.057.079 1.942.43 2.914 1.27.25.216.746.642.934 1.016 1.125-.605 2.283-1.089 3.572-1.102a5.835 5.835 0 0 1 3.802 1.368c.975.833 1.147 2.259.764 3.43-.72 2.202-2.345 4.198-4.23 5.529-1.16.819-2.679 1.584-4.047 1.968-.2.056-.701.186-.91.193" style="fill:#eaf;fill-opacity:1;stroke:#ab37c8;stroke-width:.999996;stroke-dasharray:none;stroke-opacity:1" transform="translate(272.086)"/><path d="M591.43 629.276c.72-.84 1.32-1.8 2.15-2.53 3.3-2.94 6.77-3.58 11.06-3.66 1.49.22 3.02.3 4.49.65 6.36 1.54 12.2 5.35 16.57 10.16 1.15 1.27 2.12 2.68 3.17 4.02 2.26 3.77 3.1 4.76 4.58 8.92 2.23 6.31 2.53 12.91.82 19.38-1.52 3.91-1.66 5.09-4.24 8.44-2.84 3.69-6.75 6.56-11.13 8.14-1.34.49-2.77.69-4.16 1.03-1.46.26-2.91.6-4.38.76-4.48.48-9.36.16-13.37-2.06-.16-.06-.32-.22-.49-.18-.1.03.09.19.15.27.19.28.41.54.6.82 1.13 1.69 2.03 3.45 2.39 5.47-.02 2.35.27 3.47-1.12 5.65-.74 1.14-1.74 2.09-2.74 3.02-4.69 4.36-10.35 7.1-16.43 9-2.65.56-5.26 1.33-7.95 1.7-2.8.38-5.65.51-8.48.55-2.95.03-5.92 0-8.85-.34-4.7-.55-11.01-2.29-15.37-4.15-2.2-.93-4.24-2.22-6.36-3.32-1.52-1.29-3.13-2.48-4.55-3.87-2.01-1.97-4.59-5.1-5.7-7.82-.48-1.18-.83-3.88-.3-5.25.16-.41.64-.6.96-.9.7-.34 1.81-.87 1.92-.52.17.53-2.18 1.37-2.24 1.35-6.8 1.77-13.11 1.64-19.87-.46-1.29-.57-2.63-1.04-3.87-1.71-2.19-1.2-4.96-3.23-6.52-5.22-2.57-3.28-3.29-7.41-3.51-11.44.35-3.71.2-4.68 1.51-8.22 1.96-5.31 5.78-9.37 10.57-12.27 1.27-.64 2.51-1.36 3.82-1.91 5.44-2.29 11.46-3.36 17.32-2.53 1.55.38 2.84.73 4.23 1.47.09.05.21.06.27.13.23.23-2.41-1.28-.78-.58-3.04-3.53-4.02-7.49-3.43-12.12.75-2.65.83-3.8 2.47-6.13 3.23-4.58 8.41-6.72 13.7-7.82 1.61-.18 3.21-.46 4.83-.55 7.19-.4 14.59.77 21.4 3.03 1.63.55 3.21 1.25 4.81 1.88 3.52 1.85 4.85 2.32 7.92 4.78 3.92 3.14 6.87 7.2 8.48 11.96.23.99.53 1.96.7 2.95.49 2.91.23 5.94-.35 8.81M322.365 574.611c-3.34-5.31-4.124-12.752-.413-18.078 2.996-4.3 7.898-6.933 12.85-8.312 9.326-2.597 19.496-1.429 28.333 2.324 7.534 3.2 13.966 9.3 17.226 16.857.584 1.356 1.001 2.782 1.294 4.23M328.115 612.771c2.295.119.238 3.246-1.035 4.019-4.134 2.508-10.722 3.153-15.48 2.475-6.475-.922-11.771-3.73-16.564-8.326-4.222-4.05-6.735-9.77-6.937-15.641-.27-7.859 4.312-15.369 10.923-19.405 6.768-4.132 15.835-5.406 22.895-1.348.15.087.337.204.448.066" style="fill:none;fill-opacity:1;fill-rule:nonzero;stroke:#000;stroke-width:1;stroke-dasharray:none;stroke-opacity:1"/><path d="M390.275 604.771c2.282 5.442-.014 11.702-3.891 15.806-6.018 6.371-14.835 8.95-23.285 9.962-7.97.955-16.284-.083-23.479-3.792-5.04-2.598-10.037-6.555-11.585-12.206-.154-.563-.253-1.23.08-1.77M377.475 559.111c3.002-4.525 8.588-7.006 13.999-6.366 6.23.736 11.579 4.665 15.385 9.44 5.675 7.12 9.283 16.286 8.657 25.462-.414 6.066-3.066 12.244-8.148 15.884-4.483 3.212-10.764 4.755-15.822 1.949-.424-.236-.855-.459-1.27-.709" style="fill:none;fill-opacity:1;fill-rule:nonzero;stroke:#000;stroke-width:1;stroke-dasharray:none;stroke-opacity:1"/><path d="M365.263-163.102c1.733-1.713 3.907-2.538 6.24-3.052.468-.012.94-.072 1.398-.016 1.834.214 3.901 1.165 4.972 2.716.24.344.394.743.583 1.123.917 2.373.664 4.64-.091 6.998-.936 2.425-2.33 4.623-3.808 6.735a80.752 80.752 0 0 1-4.45 5.13 12.476 12.476 0 0 1-3.25 2.432m.23-.51c-1.39-.5-2.77-1.289-3.252-1.534-1.904-1.093-3.638-2.419-5.32-3.819-2.33-2.029-4.42-4.258-5.947-6.954-1.368-2.448-2.623-5.073-2.246-7.958.096-.355.164-.718.297-1.062a5.978 5.978 0 0 1 3.454-3.52c.34-.09.672-.224 1.016-.293 2.135-.422 4.303.024 6.32.737 1.78.764 3.533 1.691 4.697 3.3M340.599-123.572c1.404-.677 2.893-1.872 4.015-3.08a21.131 21.131 0 0 0 2.796-3.791c.825-1.447 1.461-3.072 1.517-4.957.035-1.197-.614-2.844-1.499-3.586-1.255-1.053-2.468-1.485-4.174-1.29-1.262.145-2.307.61-3.432 1.666-.288.27-.864.806-1.07 1.265-1.378-.676-2.79-1.204-4.335-1.16a6.976 6.976 0 0 0-4.491 1.824c-1.13 1.047-1.267 2.771-.752 4.163.968 2.617 3.01 4.942 5.333 6.456 1.429.931 3.287 1.781 4.945 2.18.243.058.85.191 1.1.19" style="fill:#f55;fill-opacity:1;stroke:#170b28;stroke-width:.99999;stroke-dasharray:none;stroke-opacity:1"/><path d="M388.95-121.459c-.06-.274-.266-1.008-.332-1.281-.283-1.161-.784-2.092-1.328-3.17-.77-1.402-1.575-2.844-2.592-4.085-.876-1.162-1.703-2.44-2.215-3.816-.337-1.11-.44-1.994.079-3.068.582-.99 1.251-1.641 2.292-2.142.392-.142.583-.238.996-.29.672-.08 1.344.094 1.97.325.994.46 1.909 1.039 2.673 1.837.558.566 1.16 1.328 1.447 2.08a3.88 3.88 0 0 1 .498-.244c1.454-.556 3.145-.67 4.67-.243a7.272 7.272 0 0 1 3.588 2.336c.82.998.854 2.46.051 3.411-.909 1.135-2.333 1.785-3.592 2.438-1.67.866-3.105 1.745-4.67 2.785-1.016.675-2.289 1.688-3.32 2.8" style="fill:#f55;fill-opacity:1;fill-rule:nonzero;stroke:#170b28;stroke-width:.999993;stroke-dasharray:none;stroke-opacity:1"/><path d="M366.909-106.886c-1.204-.41-2.527-1.23-3.554-2.097a17.205 17.205 0 0 1-2.634-2.787c-.81-1.087-1.483-2.337-1.712-3.853-.145-.962.22-2.354.865-3.038.915-.971 1.856-1.438 3.257-1.445 1.037-.006 1.929.268 2.943 1.011.26.19.779.567.99.917 1.051-.678 2.144-1.24 3.4-1.355a5.712 5.712 0 0 1 3.817 1.036c1.017.736 1.296 2.114 1.014 3.287-.53 2.204-1.958 4.279-3.692 5.725-1.068.89-2.49 1.756-3.795 2.238-.191.07-.67.237-.873.26" style="fill:#f55;fill-opacity:1;stroke:#170b28;stroke-width:1;stroke-dasharray:none;stroke-opacity:1"/><path d="M314.673 241.585c-1.103-1.472-1.855-3.607-2.194-5.4-.247-1.306-.536-3.444-.442-4.949.35-5.575 1.99-10.077 4.66-14.258 2.022-3.166 5.533-6.688 9.123-9.143 2.903-1.986 6.014-3.574 9.347-4.582 3.515-1.062 7.23-1.548 10.993-1.566 3.613-.019 7.324.513 10.99 1.458 5.913 1.526 10.851 4.07 15.643 9.162.691.735 1.346 1.653 1.923 2.608.63 2.002-.779 1.335-.653.38.165-1.12.159-1.248.59-2.141 2.028-4.194 6.8-6.468 12.439-5.9 7.71.778 14.958 6.342 18.737 12.89 3.47 6.01 4.723 11.9 3.76 15.723-.706 2.796-1.105 3.266-2.822 4.323-.796.65-.329-1.77.086-1.246 2.461 2.051 4.189 5.398 5.098 7.591.948 2.288 1.444 5.314 1.62 7.706.18 2.44-.113 4.895-.558 7.301-1.038 5.612-3.49 10.948-7.194 15.499-2.003 2.46-4.135 5.012-6.708 7.066-3.333 2.66-6.925 5.092-10.815 6.889-15.71 7.255-34.43 9.026-51.09 3.777a55.98 55.98 0 0 1-15.243-7.525c-4.143-2.908-7.725-6.643-10.71-10.69-4.649-6.299-7.229-14.003-7.053-21.766.057-2.533.7-5.088 1.737-7.407 1.637-3.657 4.706-6.649 7.435-8.017 1.993-.999 4.471-.945 6.29.087" style="fill:#fff6d5;fill-opacity:1;stroke:#000;stroke-width:.999997;stroke-miterlimit:4;stroke-dasharray:none"/><path d="M364.608 228.803c1.827-1.537 4.015-2.172 6.335-2.49.458.025.924.003 1.367.093 1.774.354 3.719 1.445 4.643 3.044.208.356.326.757.481 1.143.709 2.39.284 4.583-.64 6.828-1.104 2.295-2.638 4.332-4.248 6.279a79.129 79.129 0 0 1-4.75 4.662c-.994.884-2.136 1.6-3.364 2.119m.264-.48c-1.32-.598-2.605-1.477-3.057-1.754-1.774-1.217-3.363-2.648-4.895-4.148-2.118-2.165-3.984-4.506-5.263-7.26-1.144-2.498-2.163-5.16-1.568-7.949.122-.34.217-.689.374-1.014a5.858 5.858 0 0 1 3.65-3.167c.339-.062.674-.165 1.015-.206 2.118-.244 4.2.361 6.115 1.217 1.68.886 3.318 1.929 4.329 3.592" style="fill:#d5fff6;fill-opacity:1;stroke:#f0f;stroke-width:.999988;stroke-dasharray:none;stroke-opacity:1"/><path d="M340.637 267.69c1.653-1.145 3.31-2.967 4.498-4.732a27.295 27.295 0 0 0 2.802-5.393c.762-2.01 1.248-4.209.942-6.624-.194-1.534-1.35-3.503-2.624-4.272-1.808-1.09-3.44-1.4-5.572-.808-1.579.437-2.815 1.238-4.037 2.81-.313.404-.939 1.201-1.11 1.828-1.89-.586-3.791-.976-5.75-.611-2.088.39-4.044 1.558-5.355 3.225-1.228 1.561-1.059 3.787-.125 5.459 1.754 3.142 4.818 5.698 8.078 7.163 2.005.901 4.54 1.613 6.73 1.79.322.025 1.12.073 1.439.02" style="fill:#d5ffd5;fill-opacity:1;stroke:#0cf;stroke-width:.999988;stroke-dasharray:none;stroke-opacity:1"/><path d="M384.473 271.34c-.037-.273-.182-1.007-.224-1.279-.186-1.156-.601-2.104-1.048-3.2-.642-1.43-1.315-2.901-2.211-4.194-.765-1.204-1.472-2.517-1.864-3.901-.242-1.11-.273-1.983.318-2.99.647-.923 1.352-1.505 2.407-1.913.395-.107.588-.186.997-.205.662-.025 1.305.198 1.899.472.934.528 1.782 1.166 2.465 2.005.5.597 1.03 1.389 1.25 2.145a3.79 3.79 0 0 1 .506-.199c1.464-.429 3.124-.407 4.581.13a7.126 7.126 0 0 1 3.32 2.563c.722 1.04.642 2.47-.217 3.336-.977 1.038-2.42 1.56-3.701 2.1-1.698.714-3.17 1.46-4.78 2.352-1.046.58-2.369 1.469-3.463 2.475" style="fill:#f6ffd5;fill-opacity:1;fill-rule:nonzero;stroke:red;stroke-width:.999988;stroke-dasharray:none;stroke-opacity:1"/><path d="M361.798 283.841c-1.144-.496-2.372-1.4-3.307-2.327a16.859 16.859 0 0 1-2.353-2.93c-.706-1.125-1.266-2.399-1.37-3.898-.066-.951.4-2.281 1.084-2.9.97-.876 1.926-1.257 3.295-1.155 1.014.076 1.863.414 2.795 1.22.239.206.716.614.896.973 1.08-.58 2.19-1.044 3.426-1.057a5.598 5.598 0 0 1 3.647 1.312c.936.799 1.1 2.167.733 3.29-.69 2.112-2.249 4.026-4.057 5.302-1.112.785-2.57 1.52-3.882 1.888-.193.054-.673.178-.873.185" style="fill:#ffbaf2;fill-opacity:1;stroke:red;stroke-width:.999997;stroke-dasharray:none;stroke-opacity:1"/><path d="M734.257 368.85c3.141-4.672 8.987-7.233 14.649-6.573 6.519.76 12.308 4.601 16.291 9.53 5.939 7.35 9.523 17.027 8.868 26.5-.433 6.261-3.209 12.638-8.526 16.396-4.691 3.316-11.265 4.909-16.558 2.012-.444-.243-.895-.473-1.33-.732l.51-.584c2.272 5.19-.015 11.16-3.877 15.074-5.995 6.075-14.778 8.534-23.196 9.5-7.939.91-16.221-.08-23.389-3.617-5.02-2.477-9.931-6.276-11.54-11.64-.166-.553-1.02-4.852.059-4.695 2.29.334.257 3.628-1.01 4.492-4.119 2.808-10.682 3.53-15.421 2.771-6.451-1.032-11.727-4.175-16.501-9.32-4.206-4.533-6.71-10.937-6.91-17.508-.27-8.796 4.295-17.202 10.88-21.72 6.743-4.626 15.775-6.051 22.807-1.51.15.098.455.248.302.654-.192.549-.992-1.07-1.172-1.326-3.55-5.07-3.235-13.304 1.125-19.49 3.326-4.718 8.24-7.76 13.245-9.303 9.43-2.907 19.85-1.577 28.1 2.924 7.712 4.206 13.798 11.163 16.259 18.546.506 1.52.85 3.114 1.064 4.734" style="fill:#ffe5ff;fill-opacity:1;fill-rule:nonzero;stroke:#000;stroke-width:1;stroke-dasharray:none;stroke-opacity:1"/><path d="M-167.379 241.417c-1.126-1.502-1.893-3.68-2.239-5.51-.252-1.333-.547-3.515-.45-5.05.357-5.69 2.03-10.285 4.755-14.552 2.063-3.23 5.646-6.824 9.309-9.33 2.963-2.026 6.137-3.648 9.539-4.676 3.586-1.084 7.378-1.58 11.219-1.598 3.686-.019 7.474.523 11.214 1.488 6.035 1.557 11.074 4.153 15.964 9.35.705.75 1.373 1.687 1.963 2.661.643 2.044-.795 1.363-.667.389.168-1.144.162-1.275.603-2.186 2.069-4.28 6.939-6.6 12.693-6.02 7.867.793 15.264 6.471 19.121 13.153 3.541 6.135 4.82 12.144 3.836 16.046-.72 2.853-1.127 3.333-2.88 4.412-.811.664-.335-1.807.089-1.272 2.511 2.093 4.274 5.509 5.202 7.748.967 2.334 1.473 5.422 1.654 7.863.183 2.49-.116 4.995-.57 7.452-1.059 5.727-3.563 11.172-7.341 15.816-2.044 2.511-4.22 5.115-6.845 7.21-3.402 2.716-7.068 5.198-11.038 7.031-16.03 7.404-35.134 9.212-52.136 3.855a57.126 57.126 0 0 1-15.556-7.68c-4.228-2.967-7.883-6.78-10.93-10.909-4.743-6.428-7.376-14.29-7.197-22.212.059-2.585.714-5.193 1.773-7.56 1.67-3.732 4.802-6.785 7.587-8.18 2.034-1.02 4.563-.966 6.42.088" style="fill:#ffe5ff;fill-opacity:1;stroke:#000;stroke-width:1;stroke-miterlimit:4;stroke-dasharray:none"/><path d="M716.824 181.406c.565.763 1.143 1.536 1.386 2.592.223.969.357 2.145.145 3.27-.23 1.22-1.143 2.266-2.02 3.043-1.56 1.38-3.572 1.579-5.014 1.3-2.327-.45-4.375-2.081-5.587-4.188-.618-1.074-.911-2.436-.857-3.935.048-1.334.749-2.784 1.327-3.498 1.135-1.406 2.773-2.171 4.3-2.25 1.514-.077 3.17.509 4.112 1.644.117.14.761 1.117.36 2.253" style="fill:#ffe5ff;fill-opacity:1;stroke:#000;stroke-width:.999996;stroke-miterlimit:4;stroke-dasharray:none;stroke-opacity:1"/><g style="stroke-width:1.0205"><path d="M313.767 241.417c-1.126-1.502-1.893-3.68-2.24-5.51-.252-1.333-.546-3.515-.45-5.05.357-5.69 2.03-10.285 4.755-14.552 2.063-3.23 5.647-6.824 9.31-9.33 2.962-2.026 6.137-3.648 9.539-4.676 3.586-1.084 7.378-1.58 11.218-1.598 3.687-.019 7.474.523 11.215 1.488 6.034 1.557 11.074 4.153 15.963 9.35.706.75 1.374 1.687 1.963 2.661.643 2.044-.795 1.363-.667.389.168-1.144.163-1.275.603-2.186 2.07-4.28 6.94-6.6 12.693-6.02 7.868.793 15.265 6.471 19.122 13.153 3.54 6.135 4.819 12.144 3.835 16.046-.719 2.853-1.126 3.333-2.879 4.412-.811.664-.335-1.807.089-1.272 2.51 2.093 4.274 5.509 5.202 7.748.967 2.334 1.473 5.422 1.653 7.863.184 2.49-.115 4.995-.57 7.452-1.058 5.727-3.562 11.172-7.34 15.816-2.045 2.511-4.22 5.115-6.846 7.21-3.402 2.716-7.068 5.198-11.037 7.031-16.03 7.404-35.135 9.212-52.136 3.855a57.126 57.126 0 0 1-15.556-7.68c-4.228-2.967-7.883-6.78-10.93-10.909-4.744-6.428-7.376-14.29-7.197-22.212.059-2.585.714-5.193 1.773-7.56 1.67-3.732 4.802-6.785 7.587-8.18 2.034-1.02 4.563-.966 6.42.088" style="fill:#ffe5ff;fill-opacity:1;stroke:#000;stroke-width:1.0205;stroke-miterlimit:4;stroke-dasharray:none" transform="matrix(.97992 0 0 .9799 244.32 -64.922)"/><g style="stroke-width:1.0205"><path d="M577.627 228.373c1.865-1.568 4.098-2.216 6.466-2.541.467.026.943.003 1.394.096 1.81.36 3.796 1.474 4.739 3.106.212.362.332.772.49 1.166.724 2.439.29 4.677-.651 6.968-1.128 2.342-2.693 4.421-4.337 6.408a80.748 80.748 0 0 1-4.846 4.757 12.475 12.475 0 0 1-3.434 2.163m.27-.49c-1.347-.61-2.659-1.507-3.12-1.79-1.81-1.242-3.432-2.702-4.995-4.233-2.161-2.209-4.066-4.598-5.37-7.408-1.168-2.55-2.209-5.267-1.601-8.113.124-.346.22-.703.381-1.035a5.978 5.978 0 0 1 3.725-3.232c.346-.062.688-.168 1.036-.21 2.162-.25 4.287.369 6.24 1.242 1.714.904 3.386 1.969 4.418 3.666M553.166 268.058c1.687-1.168 3.378-3.028 4.59-4.83a27.855 27.855 0 0 0 2.86-5.503c.777-2.05 1.273-4.295.96-6.76-.197-1.565-1.376-3.574-2.677-4.359-1.845-1.113-3.51-1.428-5.686-.825-1.611.446-2.873 1.264-4.12 2.869-.319.41-.958 1.225-1.133 1.864-1.928-.597-3.869-.996-5.868-.623-2.13.397-4.126 1.59-5.464 3.29-1.253 1.595-1.08 3.866-.128 5.572 1.79 3.206 4.917 5.815 8.243 7.31 2.047.92 4.634 1.646 6.87 1.826.327.026 1.142.076 1.467.022" style="fill:#f55;fill-opacity:1;stroke:#170b28;stroke-width:1.02049;stroke-dasharray:none;stroke-opacity:1" transform="matrix(.97992 0 0 .9799 35.692 -64.922)"/><path d="M597.9 271.782c-.038-.278-.185-1.026-.229-1.304-.19-1.18-.613-2.148-1.07-3.266-.654-1.46-1.341-2.96-2.255-4.28-.78-1.229-1.503-2.568-1.903-3.981-.246-1.133-.278-2.023.325-3.051.66-.942 1.38-1.536 2.457-1.952.402-.11.6-.19 1.016-.21.676-.025 1.332.202 1.938.482.953.54 1.819 1.19 2.517 2.046.51.61 1.05 1.417 1.275 2.19.073-.042.292-.13.516-.204 1.494-.437 3.188-.416 4.675.132A7.272 7.272 0 0 1 610.55 261c.737 1.061.655 2.521-.222 3.405-.997 1.059-2.469 1.592-3.776 2.142-1.733.73-3.235 1.49-4.879 2.401-1.067.591-2.416 1.499-3.533 2.525" style="fill:#f55;fill-opacity:1;fill-rule:nonzero;stroke:#170b28;stroke-width:1.02049;stroke-dasharray:none;stroke-opacity:1" transform="matrix(.97992 0 0 .9799 35.692 -64.922)"/><path d="M574.76 284.54c-1.167-.505-2.42-1.429-3.374-2.374a17.205 17.205 0 0 1-2.402-2.99c-.72-1.149-1.291-2.449-1.397-3.978-.068-.97.408-2.328 1.106-2.959.99-.895 1.965-1.284 3.362-1.18 1.034.079 1.9.423 2.852 1.245.244.211.73.627.914.994 1.102-.593 2.236-1.066 3.497-1.08a5.712 5.712 0 0 1 3.722 1.34c.954.815 1.122 2.211.747 3.357-.704 2.156-2.294 4.109-4.14 5.411-1.135.801-2.622 1.55-3.961 1.927-.197.055-.687.182-.891.188" style="fill:#f55;fill-opacity:1;stroke:#170b28;stroke-width:1.0205;stroke-dasharray:none;stroke-opacity:1" transform="matrix(.97992 0 0 .9799 35.692 -64.922)"/></g></g><path d="M552.797 287.096c-.037-.273-.181-1.006-.224-1.278-.186-1.157-.601-2.105-1.048-3.2-.642-1.43-1.315-2.902-2.21-4.194-.766-1.205-1.473-2.517-1.865-3.902-.241-1.11-.273-1.982.319-2.99.646-.922 1.35-1.505 2.407-1.913.394-.107.587-.186.996-.205.662-.024 1.305.198 1.899.473.934.528 1.782 1.165 2.466 2.004.5.597 1.029 1.389 1.25 2.146a3.79 3.79 0 0 1 .505-.2c1.464-.428 3.124-.407 4.581.13a7.126 7.126 0 0 1 3.32 2.563c.722 1.04.642 2.47-.217 3.337-.977 1.037-2.42 1.56-3.7 2.099-1.7.714-3.17 1.46-4.781 2.352-1.046.58-2.368 1.47-3.463 2.475" style="fill:#d5ffd5;fill-opacity:1;fill-rule:nonzero;stroke:#0cf;stroke-width:.999988;stroke-dasharray:none;stroke-opacity:1"/><path d="M540.115 324.757c-.037-.272-.181-1.006-.224-1.278-.186-1.156-.601-2.104-1.048-3.2-.642-1.43-1.315-2.901-2.21-4.194-.766-1.204-1.473-2.517-1.865-3.901-.241-1.11-.273-1.983.319-2.99.646-.923 1.35-1.505 2.407-1.913.394-.108.587-.186.996-.205.662-.025 1.305.198 1.899.472.934.528 1.782 1.165 2.466 2.005.5.597 1.029 1.388 1.25 2.145a3.79 3.79 0 0 1 .506-.199c1.463-.429 3.123-.407 4.58.13a7.126 7.126 0 0 1 3.32 2.563c.722 1.04.642 2.47-.217 3.336-.977 1.037-2.42 1.56-3.7 2.1-1.7.714-3.17 1.46-4.781 2.352-1.046.58-2.368 1.469-3.463 2.475" style="fill:#fae;fill-opacity:1;fill-rule:nonzero;stroke:red;stroke-width:.999988;stroke-dasharray:none;stroke-opacity:1"/></svg>