<svg xmlns="http://www.w3.org/2000/svg" xmlns:xlink="http://www.w3.org/1999/xlink" id="svg1633" width="450" height="230" preserveAspectRatio="none" version="1.1" viewBox="-10 -50 450 230"><style id="style1537" type="text/css">.grid{stroke:#9e9ed1;stroke-width:.4}.axes{stroke:#000;stroke-width:.9}.axes-arrows{stroke-width:1.2100000000000002;stroke:#000;fill:none;stroke-linecap:round;stroke-linejoin:round}.axes-labels{stroke:none;fill:#000}.none{display:none}</style><defs id="defs1550"><path id="STIXWEBNORMALI-1D465" stroke-width="1" d="m305 288 45 69c26 40 61 84 111 84 32 0 49-12 49-33 0-19-13-42-39-42-22 0-27 9-44 9-30 0-41-16-55-38l-55-85c30-62 53-197 98-197 16 0 40 14 61 57l14-10C478 87 433-9 375-9c-41 0-60 41-73 77l-40 113-63-98C167 34 138-9 82-9 46-9 30 16 30 38c0 16 13 37 38 37 26 0 22-20 47-20 12 0 38 10 70 59l65 101-33 92c-17 48-43 89-98 89-13 0-28-2-38-6l-3 18 132 33c44-24 63-65 75-98z"/><path id="STIXWEBNORMALI-1D453" stroke-width="1" d="M248 437h37c63 0 58 77 101 141 31 47 74 90 150 90 50 0 79-24 79-59 0-28-21-40-41-40-28 0-35 11-35 25s9 29 9 37c0 5-3 8-15 8-50 0-89-54-110-132l-19-70h80l-12-38h-76L317 93c-7-27-15-65-30-102-33-83-87-178-175-178-48 0-72 24-72 54 0 24 14 49 43 49 27 0 37-18 37-33 0-19-16-20-16-32 0-6 6-9 15-9 65 0 95 158 110 215l87 342h-77z"/><path id="STIXWEBMAIN-28" stroke-width="1" d="m304-161-12-16C134-87 48 82 48 252c0 185 87 329 247 424l9-16C165 541 134 448 134 255c0-186 30-299 170-416Z"/><path id="STIXWEBMAIN-29" stroke-width="1" d="m29 660 12 16c153-92 244-259 244-429 0-185-88-327-247-424l-9 16C171-44 199 50 199 244c0 187-25 302-170 416Z"/><path id="STIXWEBMAIN-30" stroke-width="1" d="M476 330c0-172-63-344-226-344C79-14 24 172 24 336c0 177 69 340 230 340 131 0 222-141 222-346Zm-96-5c0 208-44 325-132 325-83 0-128-118-128-321S164 12 250 12c85 0 130 115 130 313z"/><path id="STIXWEBMAIN-32" stroke-width="1" d="M474 137 420 0H29v12l178 189c94 99 130 175 130 260 0 91-54 141-139 141-72 0-107-32-147-130l-21 5c21 117 85 199 208 199 113 0 185-77 185-176 0-79-39-154-128-248L130 76h234c42 0 63 11 96 67z"/><path id="STIXWEBMAIN-34" stroke-width="1" d="M473 167H370V0h-78v167H12v64l314 445h44V231h103Zm-181 64v343L52 231Z"/><path id="STIXWEBMAIN-36" stroke-width="1" d="m446 684 2-16c-157-26-269-134-296-285 49 38 83 45 127 45 117 0 189-80 189-209 0-64-18-120-51-160-37-46-93-73-159-73-79 0-142 37-177 101-28 51-47 122-47 192 0 108 38 203 109 276 86 90 165 114 303 129zm-68-496c0 128-42 194-135 194-57 0-116-24-116-116 0-152 48-252 142-252 72 0 109 72 109 174z"/><clipPath id="trbl_clip_0_400_202.5_0"><path id="path1539" d="M0 0h400v202.5H0Z"/></clipPath></defs><g id="grid" transform="translate(5.222 -30.032)"><path id="path1552" d="M25 200.821V0" class="grid"/><path id="path1554" d="M75 200.821V0" class="grid"/><path id="path1556" d="M125 200.821v-202.5" class="grid"/><path id="path1558" d="M175 182.378V0" class="grid"/><path id="path1560" d="M225 200.821V0" class="grid"/><path id="path1562" d="M275 182.378V0" class="grid"/><path id="path1564" d="M325 200.821V0" class="grid"/><path id="path1566" d="M375 182.378V0" class="grid"/><path id="path1568" d="M0 175h400" class="grid"/><path id="path1570" d="M0 125h400" class="grid"/><path id="path1572" d="M0 75h54m13.622 0H400" class="grid"/><path id="path1574" d="M0 25h400" class="grid"/></g><g id="axes" transform="translate(5.222 -30.032)"><path id="path1577" d="M0 175h410.657" class="axes"/><path id="path1579" d="M75 200.821V-8.198" class="axes"/></g><g id="axes arrows" transform="translate(5.222 -30.032)"><path id="path1582" d="M405.739 168.852c0 2.459 3.689 6.148 4.918 6.148-1.23 0-4.918 3.689-4.918 6.148" class="axes-arrows"/><path id="path1584" d="M68.852-3.28C71.31-3.28 75-6.967 75-8.197c0 1.23 3.689 4.919 6.148 4.919" class="axes-arrows"/></g><g id="graphs" transform="translate(5.222 -30.032)"><g id="g1608" clip-path="url(#trbl_clip_0_400_202.5_0)"><path id="path1602" d="m-75 75 100 50 100-50 100 50 100-50 100 50" style="stroke:red;stroke-width:1.7;fill:none"/></g></g><g id="layer1"><g id="g1613" style="display:inline;fill:#b8b8de;stroke:none" transform="matrix(.01903 0 0 -.01903 61.073 170.468)"><use xlink:href="#STIXWEBMAIN-30" id="use1611" x="0" y="0"/></g><g id="g1617" style="fill:#b8b8de;stroke:none" transform="matrix(.01903 0 0 -.01903 175.46 170.885)"><use xlink:href="#STIXWEBMAIN-32" id="use1615" x="0" y="0"/></g><g id="g1621" style="fill:#b8b8de;stroke:none" transform="matrix(.01903 0 0 -.01903 275.46 170.885)"><use xlink:href="#STIXWEBMAIN-34" id="use1619" x="0" y="0"/></g><g id="g1625" style="fill:#b8b8de;stroke:none" transform="matrix(.01903 0 0 -.01903 375.46 170.634)"><use xlink:href="#STIXWEBMAIN-36" id="use1623" x="0" y="0"/></g><g id="g1629" style="fill:#b8b8de;stroke:none" transform="matrix(.01903 0 0 -.01903 61.27 51.397)"><use xlink:href="#STIXWEBMAIN-32" id="use1627" x="0" y="0"/></g></g></svg>