<svg xmlns="http://www.w3.org/2000/svg" width="330" height="105"><g style="display:inline"><path d="M31.56 10.98v2.56h2.08l-3.577 3.392-3.46-3.393h1.921v-2.56h-8.163V7.022h19.362v3.959z" style="fill:#41ffff;fill-opacity:1;stroke:#000;stroke-width:.27;stroke-miterlimit:4;stroke-dasharray:none" transform="translate(-70.568 -72.092) scale(3.76781)"/><g aria-label="FIRST VICTIM" style="font-size:5.33333px;font-family:Tomorrow;-inkscape-font-specification:Tomorrow;stroke:#000;stroke-width:.0779296;stroke-miterlimit:2;stroke-dasharray:none;stroke-opacity:1"><path d="M13.634 14.433v-3.931h2.533v.448H14.12v1.27h1.798v.442h-1.798v1.77zM16.578 14.433v-.448h.48V10.95h-.48v-.448h1.445v.448h-.48v3.035h.48v.448zM18.818 14.433v-3.931h2.15l.554.56v1.253l-.555.56h-.016l.71 1.558h-.54l-.698-1.558h-1.12v1.558zm.485-1.99h1.446l.288-.293v-.923l-.288-.293h-1.446zM22.375 14.433v-.448h1.936l.288-.294v-.784l-.288-.293h-1.52l-.555-.555v-.997l.555-.56h2.09v.448H23.01l-.294.293.006.651.288.293h1.52l.554.56v1.126l-.554.56zM26.535 14.433V10.95h-1.168v-.448h2.821v.448H27.02v3.483zM30.844 14.433l-1.333-3.931h.512l1.136 3.467h.117l1.136-3.467h.512l-1.333 3.93zM33.324 14.433v-.448h.48V10.95h-.48v-.448h1.446v.448h-.48v3.035h.48v.448zM36.023 14.433l-.56-.56v-2.811l.56-.56H37.8l.544.544-.31.315-.426-.427h-1.365l-.294.293v2.48l.294.294h1.408l.432-.432.31.314-.556.55zM39.788 14.433V10.95H38.62v-.448h2.822v.448h-1.168v3.483zM41.842 14.433v-.448h.48V10.95h-.48v-.448h1.445v.448h-.48v3.035h.48v.448zM44.082 14.433v-3.931h.661l1.237 3.141 1.243-3.141h.667v3.93h-.49v-3.189l-1.28 3.19h-.273l-1.28-3.184v3.184z" style="stroke:#000;stroke-width:.0779296;stroke-dasharray:none;stroke-opacity:1" transform="matrix(1.82768 0 0 1.82704 -13.444 -60.756)"/></g></g><path d="M7.242 162.111q0-1.314.19-2.494.19-1.18.438-2.037t.705-1.676q.456-.819.723-1.275.267-.457.8-.99.533-.534.628-.648.095-.114.476-.4h.324q.266 0 .266.172 0 .057-.323.4-.324.342-.781 1.009-.457.666-.933 1.637-.476.971-.8 2.628-.323 1.656-.323 3.674t.323 3.656q.324 1.637.781 2.646.457 1.01.933 1.638.476.628.8 1.01.323.38.323.399 0 .171-.285.171h-.305l-.533-.457q-1.79-1.618-2.609-4.036-.818-2.418-.818-5.027ZM14.648 162.111q0-1.314.19-2.494.191-1.18.439-2.037.247-.857.704-1.676.457-.819.724-1.275.266-.457.8-.99.532-.534.628-.648.095-.114.476-.4h.323q.267 0 .267.172 0 .057-.324.4-.324.342-.78 1.009-.457.666-.933 1.637-.476.971-.8 2.628-.324 1.656-.324 3.674t.324 3.656q.324 1.637.78 2.646.457 1.01.933 1.638.476.628.8 1.01.324.38.324.399 0 .171-.286.171h-.304l-.534-.457q-1.79-1.618-2.608-4.036-.819-2.418-.819-5.027zM22.53 169.956q.039 0 .115.038.076.038.21.057.133.019.228.019.248 0 .457-.248.21-.247.305-.552.19-.514.647-2.913t.876-4.57q.419-2.17.419-2.189v-.057h-.895q-.895 0-.952-.038-.076-.057-.076-.19l.133-.534q.038-.095.152-.095.114 0 .895-.019.914 0 .914-.019 0-.038.171-.952.172-.914.229-1.104.704-3.142 2.78-3.142.704.038 1.161.419.457.38.457 1.01 0 .684-.4.99-.4.304-.8.323-.837 0-.837-.8 0-.362.21-.628.209-.267.456-.4l.172-.095q-.305-.114-.572-.114-.228 0-.438.19-.209.19-.285.533-.133.552-.305 1.485-.171.933-.304 1.58-.134.648-.134.686 0 .038 1.048.038.856 0 .99.02.133.018.21.113.018.076-.039.324-.057.247-.095.305-.038.095-.172.095-.133 0-1.028.019h-1.066l-.438 2.323q-.914 4.722-1.276 5.902-.514 1.619-1.332 2.4-.705.608-1.39.608-.61 0-1.105-.361-.495-.362-.495-1.028 0-.705.4-1.029.4-.323.8-.323.838 0 .838.8 0 .361-.21.628-.21.266-.457.4zM36.03 162.092q0-1.466 1.085-2.57 1.086-1.105 2.609-1.105t2.608 1.067q1.086 1.066 1.105 2.646 0 1.485-1.066 2.59-1.067 1.104-2.628 1.104-1.523 0-2.608-1.085-1.086-1.086-1.105-2.647zm3.618-2.894q-1.085 0-1.961.8-.876.8-.876 2.113 0 1.276.857 2.095.856.818 2.075.837.647 0 1.2-.247.552-.248.78-.495.229-.248.4-.476.533-.705.533-1.714 0-1.2-.819-2.056-.818-.857-2.19-.857zM54.67 166.053q-.285.247-.837.533-.553.285-1.162.285-1.2 0-1.923-.857-.723-.856-.742-2.19 0-1.998 1.466-3.674 1.466-1.675 3.255-1.694.895 0 1.657.913l.057-.076q.038-.057.095-.114t.172-.152q.114-.095.247-.134.133-.038.305-.057.266 0 .438.172.171.171.19.361 0 .286-1.085 4.608t-1.143 4.417q-.342 1.029-1.466 1.695-1.123.666-2.57.685-2.685 0-2.685-1.294 0-.495.343-.876.343-.38.876-.38.285 0 .533.17.248.172.267.59 0 .191-.039.362-.038.172-.133.267-.095.095-.152.19-.057.096-.133.153l-.038.038h.019q.19.057 1.142.057.723 0 1.142-.229.438-.209.82-.628.38-.419.532-.895.114-.362.305-1.18.247-.914.247-1.066zm1.39-5.427-.076-.21q-.057-.209-.095-.285-.038-.076-.114-.266-.076-.19-.19-.267-.115-.076-.248-.21-.134-.133-.343-.17-.21-.039-.419-.058-.838 0-1.618 1.01-.571.742-.952 2.265-.381 1.523-.381 2.209 0 1.504 1.18 1.504 1.067 0 2.095-1.333l.152-.19zM59.03 152.61l.077-.019H59.526l.533.457q1.79 1.619 2.608 4.037.819 2.418.819 5.026 0 1.295-.19 2.494-.19 1.2-.438 2.038-.248.838-.705 1.675-.457.838-.723 1.276-.267.438-.781.971-.514.533-.61.628-.095.096-.437.362l-.076.076h-.439q-.056 0-.095-.057-.038-.057-.057-.171.02-.02.21-.248 2.951-3.065 2.951-9.044 0-5.978-2.951-9.044-.19-.228-.21-.247 0-.153.096-.21zM70.588 162.092q0-1.466 1.085-2.57 1.085-1.105 2.609-1.105 1.523 0 2.608 1.067 1.085 1.066 1.104 2.646 0 1.485-1.066 2.59-1.066 1.104-2.627 1.104-1.524 0-2.609-1.085-1.085-1.086-1.104-2.647zm3.617-2.894q-1.085 0-1.96.8-.877.8-.877 2.113 0 1.276.857 2.095.857.818 2.076.837.647 0 1.2-.247.551-.248.78-.495.228-.248.4-.476.533-.705.533-1.714 0-1.2-.819-2.056-.819-.857-2.19-.857zM85.915 153.867q.02 0 1.37-.095 1.353-.095 1.39-.115.23 0 .23.172 0 .21-.686 2.875-.724 2.818-.724 2.875 0 .038.134-.095 1.161-1.028 2.475-1.028 1.028 0 1.656.514.629.514.648 1.504 0 .97-.724 3.008-.723 2.037-.723 2.437.019.267.095.362.076.095.285.095.534 0 .99-.571.457-.571.743-1.561.057-.21.114-.248.057-.038.305-.038.38 0 .38.152 0 .02-.075.286-.305 1.123-.971 1.847-.648.819-1.543.819h-.095q-.895 0-1.295-.514-.4-.515-.4-1.086 0-.304.686-2.246.685-1.943.704-2.914 0-1.123-.837-1.123h-.096q-1.58 0-2.741 1.866l-.134.248-.647 2.57q-.61 2.475-.704 2.704-.248.514-.838.514-.267 0-.457-.172-.19-.171-.21-.342 0-.267 1.39-5.789l1.41-5.635q0-.248-.134-.305-.133-.057-.743-.095h-.4q-.114-.114-.114-.153 0-.038.038-.361.096-.362.248-.362zM95.416 152.61l.076-.019H95.911l.533.457q1.79 1.619 2.609 4.037.818 2.418.818 5.026 0 1.295-.19 2.494-.19 1.2-.438 2.038-.248.838-.704 1.675-.457.838-.724 1.276-.267.438-.78.971-.515.533-.61.628-.095.096-.438.362l-.076.076h-.438q-.057 0-.095-.057t-.057-.171q.019-.02.21-.248 2.95-3.065 2.95-9.044 0-5.978-2.95-9.044-.191-.228-.21-.247 0-.153.095-.21zM103.489 162.111q0-1.314.19-2.494.19-1.18.438-2.037t.705-1.676q.457-.819.723-1.275.267-.457.8-.99.533-.534.628-.648.095-.114.476-.4h.324q.266 0 .266.172 0 .057-.323.4-.324.342-.78 1.009-.458.666-.934 1.637-.476.971-.8 2.628-.323 1.656-.323 3.674t.324 3.656q.323 1.637.78 2.646.457 1.01.933 1.638.476.628.8 1.01.323.38.323.399 0 .171-.285.171h-.305l-.533-.457q-1.79-1.618-2.608-4.036-.82-2.418-.82-5.027zM110.096 161.369q.133-.8 1.028-1.847t2.209-1.066q.666 0 1.218.342.552.343.819.857.8-1.2 1.923-1.2.704 0 1.218.42.515.418.534 1.123 0 .552-.267.895-.267.342-.514.419-.248.076-.438.076-.362 0-.59-.21-.229-.21-.229-.552 0-.876.952-1.2-.21-.247-.761-.247-.248 0-.362.038-.724.305-1.066 1.257-1.143 4.208-1.143 4.912 0 .533.305.762.305.228.666.228.705 0 1.39-.628.686-.628.933-1.542.057-.19.114-.21.058-.019.305-.038h.076q.286 0 .286.152 0 .02-.038.21-.305 1.085-1.18 1.923-.877.838-2.038.838-1.333 0-2.018-1.2-.78 1.18-1.79 1.18h-.114q-.933 0-1.333-.494-.4-.495-.419-1.048 0-.609.362-.99.362-.38.857-.38.818 0 .818.8 0 .38-.228.666-.229.285-.438.38-.21.096-.248.096l-.057.019q0 .019.115.076.114.057.304.133.19.076.362.057.685 0 1.18-.857.172-.304.438-1.294.267-.99.534-2.057.266-1.066.304-1.256.095-.514.095-.743 0-.533-.285-.761-.286-.229-.648-.229-.761 0-1.428.61-.666.609-.933 1.56-.038.172-.095.191-.057.02-.304.038h-.267q-.114-.114-.114-.21zM121.158 152.61l.076-.019H121.654l.532.457q1.79 1.619 2.609 4.037.818 2.418.818 5.026 0 1.295-.19 2.494-.19 1.2-.438 2.038-.247.838-.704 1.675-.457.838-.724 1.276-.266.438-.78.971-.515.533-.61.628-.095.096-.438.362l-.076.076h-.438q-.057 0-.095-.057t-.057-.171q.019-.02.21-.248 2.95-3.065 2.95-9.044 0-5.978-2.95-9.044-.191-.228-.21-.247 0-.153.095-.21z"/><path d="M62.525 27.221v-2.56h-1.799l3.296-3.111 3.295 3.112h-1.756v2.56h4.678v3.958H57.698V27.22z" style="display:inline;fill:#7bffe5;fill-opacity:1;stroke:#000;stroke-width:.27;stroke-miterlimit:4;stroke-dasharray:none" transform="matrix(3.76781 0 0 3.76781 -67.372 -17.55)"/><path d="M60.004 30.241v-.22h.238v-1.498h-.238v-.22h.718v.22h-.239v1.497h.239v.221zM61.116 30.241v-1.939h.329l.871 1.56v-1.56h.241v1.94h-.286l-.855-1.532h-.059v1.531zM63.018 30.241v-1.939h.328l.872 1.56v-1.56h.24v1.94h-.285l-.856-1.532h-.058v1.531zM64.92 30.241v-1.939h1.287v.221h-1.046v.59h.935v.218h-.935v.69h1.046v.22zM66.575 30.241v-1.939h1.068l.275.276v.619l-.275.276h-.008l.352.768h-.268l-.347-.768h-.556v.768zm.241-.981h.718l.143-.145v-.455l-.143-.145h-.718z" style="font-size:5.33333px;font-family:Tomorrow;-inkscape-font-specification:Tomorrow;fill:#000;stroke:#000;stroke-width:.0377953;stroke-miterlimit:2" transform="matrix(3.76781 0 0 3.76781 -67.372 -17.55)"/><path d="m59.263 28.89.19-.611h.151l-.094.612zm-.424 0 .19-.611h.15l-.093.612zM68.783 28.89l.094-.611h.247l-.19.612zm-.424 0 .094-.611h.247l-.19.612z" style="font-size:5.33333px;font-family:Tomorrow;-inkscape-font-specification:Tomorrow;fill:#000;stroke:none;stroke-width:.0377953;stroke-miterlimit:2" transform="matrix(3.76781 0 0 3.76781 -67.372 -17.55)"/><path d="M71.599 11.342v2.56H69.8l3.296 3.112 3.295-3.112h-1.756v-2.56h4.755V7.384H66.845v3.958z" style="display:inline;fill:#41ffff;fill-opacity:1;stroke:#000;stroke-width:.27;stroke-miterlimit:4;stroke-dasharray:none" transform="matrix(3.76287 0 0 3.76287 -139.495 -23.398)"/><g aria-label="OUTER" style="font-size:5.33333px;font-family:Tomorrow;-inkscape-font-specification:Tomorrow;stroke:#000;stroke-width:.077137;stroke-miterlimit:2"><path d="m82.172 16.2-.56-.56v-2.81l.56-.56h1.856l.56.56v2.81l-.56.56zm.219-.432h1.418l.294-.293v-2.48l-.294-.294h-1.418l-.294.294v2.48zM85.9 16.2l-.56-.56v-3.37h.485v3.205l.294.293h1.413l.293-.293v-3.206h.486v3.371l-.56.56zM89.937 16.2v-3.483H88.77v-.448h2.822v.448h-1.168V16.2zM92.124 16.2v-3.93h2.592v.447H92.61v1.195h1.883v.443H92.61v1.397h2.107v.448zM95.457 16.2v-3.93h2.15l.554.56v1.253l-.554.56h-.016l.71 1.557h-.54l-.698-1.557h-1.12V16.2zm.486-1.99h1.445l.288-.293v-.922l-.288-.294h-1.445z" style="stroke-width:.077137" transform="matrix(1.85013 0 0 1.83733 -30.841 -14.276)"/></g><path d="m68.267 9.008.19-.612h.151l-.094.612zm-.424 0 .19-.612h.151l-.094.612zM77.949 9.008l.094-.612h.247l-.19.612zm-.424 0 .094-.612h.247l-.19.612z" style="font-size:5.33333px;font-family:Tomorrow;-inkscape-font-specification:Tomorrow;fill:#000;stroke:none;stroke-width:.0377953;stroke-miterlimit:2" transform="matrix(3.76287 0 0 3.76287 -139.495 -23.398)"/><path d="M99.896 52.123q0-1.445.209-2.744.21-1.298.482-2.24.272-.943.775-1.844.502-.9.796-1.403.293-.503.88-1.09.586-.586.69-.711.105-.126.524-.44H104.608q.293 0 .293.188 0 .063-.356.44t-.859 1.11q-.502.733-1.026 1.802-.523 1.068-.88 2.89-.355 1.822-.355 4.042 0 2.22.356 4.021.356 1.801.858 2.911.503 1.11 1.027 1.802.523.69.88 1.11.355.419.355.44 0 .188-.314.188h-.335l-.586-.503q-1.97-1.78-2.87-4.44-.9-2.66-.9-5.529zM108.043 52.123q0-1.445.21-2.744.209-1.298.48-2.24.273-.943.776-1.844.503-.9.796-1.403.293-.503.88-1.09.586-.586.69-.711.105-.126.524-.44H112.755q.293 0 .293.188 0 .063-.356.44t-.858 1.11q-.503.733-1.027 1.802-.523 1.068-.88 2.89-.355 1.822-.355 4.042 0 2.22.356 4.021.356 1.801.858 2.911.503 1.11 1.027 1.802.523.69.88 1.11.355.419.355.44 0 .188-.314.188h-.335l-.586-.503q-1.969-1.78-2.87-4.44-.9-2.66-.9-5.529zM116.714 60.752q.042 0 .125.042.084.042.23.063.147.02.252.02.272 0 .503-.272.23-.272.335-.607.21-.566.712-3.205.502-2.638.963-5.026.461-2.388.461-2.409v-.062h-.984q-.985 0-1.048-.042-.083-.063-.083-.21l.146-.586q.042-.105.168-.105.125 0 .984-.02 1.006 0 1.006-.022 0-.042.188-1.047t.251-1.215q.775-3.456 3.058-3.456.775.042 1.278.461.502.42.502 1.11 0 .754-.44 1.09-.44.334-.88.355-.92 0-.92-.88 0-.397.23-.69.23-.294.502-.44l.189-.105q-.335-.126-.628-.126-.252 0-.482.21-.23.21-.314.586-.147.608-.335 1.634-.189 1.026-.335 1.738-.147.712-.147.754 0 .042 1.152.042.942 0 1.089.021.147.021.23.126.021.084-.042.356-.062.272-.104.335-.042.105-.189.105-.146 0-1.13.02h-1.174l-.481 2.556q-1.006 5.194-1.404 6.492-.565 1.78-1.466 2.64-.775.67-1.529.67-.67 0-1.214-.398-.545-.398-.545-1.131 0-.775.44-1.131t.88-.356q.921 0 .921.88 0 .397-.23.69-.23.294-.503.44zM131.563 52.102q0-1.613 1.194-2.827 1.194-1.215 2.869-1.215 1.676 0 2.87 1.173 1.193 1.173 1.214 2.91 0 1.635-1.173 2.85-1.173 1.214-2.89 1.214-1.676 0-2.87-1.194-1.193-1.194-1.214-2.911zm3.98-3.183q-1.195 0-2.158.88-.963.879-.963 2.324 0 1.403.942 2.304.943.9 2.283.921.712 0 1.32-.272.607-.272.858-.544.251-.273.44-.524.586-.775.586-1.885 0-1.32-.9-2.262t-2.409-.942zM152.067 56.458q-.314.273-.921.587-.608.314-1.278.314-1.32 0-2.115-.942-.796-.943-.817-2.409 0-2.2 1.612-4.042 1.613-1.843 3.582-1.864.984 0 1.822 1.005l.063-.084q.042-.063.105-.125.062-.063.188-.168.126-.105.272-.147.147-.041.335-.062.294 0 .482.188.189.189.21.398 0 .314-1.194 5.069-1.194 4.754-1.257 4.859-.377 1.13-1.613 1.864-1.235.733-2.827.754-2.953 0-2.953-1.425 0-.544.377-.963.377-.419.963-.419.314 0 .587.189.272.188.293.649 0 .21-.042.398-.042.188-.147.293-.104.105-.167.21-.063.104-.147.167l-.042.042h.021q.21.063 1.257.063.796 0 1.257-.252.481-.23.9-.69.419-.462.587-.985.125-.398.335-1.299.272-1.005.272-1.173zm1.529-5.969-.084-.23q-.063-.23-.105-.314-.041-.084-.125-.293-.084-.21-.21-.294-.125-.083-.272-.23-.147-.147-.377-.188-.23-.042-.46-.063-.922 0-1.78 1.11-.63.817-1.048 2.492-.419 1.676-.419 2.43 0 1.654 1.299 1.654 1.172 0 2.303-1.466l.168-.21zM156.863 41.672l.084-.021H157.407l.587.503q1.969 1.78 2.87 4.44.9 2.66.9 5.529 0 1.424-.21 2.744-.209 1.32-.481 2.24-.272.922-.775 1.844-.503.921-.796 1.403-.293.482-.858 1.068-.566.587-.67.691-.105.105-.482.398l-.084.084h-.482q-.063 0-.105-.063-.042-.063-.062-.188.02-.021.23-.273 3.246-3.372 3.246-9.948 0-6.576-3.246-9.948-.21-.252-.23-.273 0-.167.104-.23zM169.576 52.102q0-1.613 1.194-2.827 1.194-1.215 2.87-1.215 1.675 0 2.869 1.173 1.194 1.173 1.214 2.91 0 1.635-1.172 2.85-1.173 1.214-2.89 1.214-1.676 0-2.87-1.194-1.194-1.194-1.215-2.911zm3.98-3.183q-1.194 0-2.158.88-.963.879-.963 2.324 0 1.403.942 2.304.943.9 2.283.921.712 0 1.32-.272.607-.272.859-.544.25-.273.44-.524.586-.775.586-1.885 0-1.32-.9-2.262-.901-.942-2.41-.942zM186.436 43.054q.021 0 1.508-.104 1.487-.105 1.53-.126.25 0 .25.188 0 .23-.754 3.163-.795 3.1-.795 3.162 0 .042.146-.104 1.278-1.131 2.723-1.131 1.13 0 1.822.565.691.566.712 1.655 0 1.068-.796 3.309t-.796 2.68q.021.294.105.399.084.104.314.104.587 0 1.09-.628.502-.628.816-1.717.063-.23.126-.273.063-.041.335-.041.419 0 .419.167 0 .021-.084.314-.335 1.236-1.068 2.032-.712.9-1.697.9h-.104q-.985 0-1.425-.565-.44-.566-.44-1.194 0-.335.755-2.471.754-2.137.775-3.205 0-1.235-.922-1.235h-.105q-1.738 0-3.016 2.052l-.146.272-.712 2.828q-.67 2.723-.775 2.974-.273.565-.922.565-.293 0-.502-.188-.21-.189-.23-.377 0-.293 1.528-6.367l1.55-6.2q0-.272-.147-.335-.146-.062-.817-.104h-.44q-.125-.126-.125-.168 0-.042.042-.398.105-.398.272-.398zM196.887 41.672l.084-.021H197.431l.587.503q1.969 1.78 2.87 4.44.9 2.66.9 5.529 0 1.424-.21 2.744-.209 1.32-.481 2.24-.272.922-.775 1.844-.503.921-.796 1.403-.293.482-.859 1.068-.565.587-.67.691-.104.105-.481.398l-.084.084h-.482q-.063 0-.105-.063-.042-.063-.062-.188.02-.021.23-.273 3.246-3.372 3.246-9.948 0-6.576-3.246-9.948-.21-.252-.23-.273 0-.167.104-.23zM205.767 52.123q0-1.445.21-2.744.21-1.298.482-2.24.272-.943.775-1.844.502-.9.795-1.403.294-.503.88-1.09.587-.586.691-.711.105-.126.524-.44H210.48q.293 0 .293.188 0 .063-.356.44t-.859 1.11q-.502.733-1.026 1.802-.523 1.068-.88 2.89-.356 1.822-.356 4.042 0 2.22.356 4.021.357 1.801.86 2.911.502 1.11 1.025 1.802.524.69.88 1.11.356.419.356.44 0 .188-.314.188h-.335l-.587-.503q-1.968-1.78-2.869-4.44-.9-2.66-.9-5.529zM213.035 51.306q.147-.88 1.131-2.031.984-1.152 2.43-1.173.733 0 1.34.377.607.377.9.942.88-1.32 2.116-1.32.775 0 1.34.462.566.46.587 1.235 0 .608-.293.985-.294.377-.566.46-.272.084-.482.084-.398 0-.649-.23t-.251-.608q0-.963 1.047-1.32-.23-.271-.838-.271-.272 0-.398.042-.796.335-1.173 1.382-1.256 4.628-1.256 5.403 0 .587.335.838t.733.251q.775 0 1.529-.69.754-.692 1.026-1.697.063-.21.126-.23.062-.021.335-.042h.084q.314 0 .314.167 0 .021-.042.23-.335 1.194-1.299 2.116-.963.921-2.24.921-1.467 0-2.22-1.32-.86 1.3-1.97 1.3h-.125q-1.026 0-1.466-.545-.44-.545-.461-1.152 0-.67.398-1.09.398-.418.942-.418.901 0 .901.88 0 .419-.251.733-.252.314-.482.419-.23.104-.272.104l-.063.021q0 .021.126.084.125.063.335.147.21.083.398.062.754 0 1.298-.942.189-.335.482-1.424.293-1.09.586-2.262.294-1.173.335-1.382.105-.566.105-.817 0-.587-.314-.838t-.712-.251q-.838 0-1.57.67-.734.67-1.027 1.717-.042.189-.105.21-.063.02-.335.042h-.293q-.126-.126-.126-.23zM225.204 41.672l.083-.021H225.748l.587.503q1.968 1.78 2.869 4.44.9 2.66.9 5.529 0 1.424-.209 2.744-.21 1.32-.482 2.24-.272.922-.775 1.844-.502.921-.796 1.403-.293.482-.858 1.068-.566.587-.67.691-.105.105-.482.398l-.084.084h-.481q-.063 0-.105-.063-.042-.063-.063-.188.02-.021.23-.273 3.247-3.372 3.247-9.948 0-6.576-3.247-9.948-.21-.252-.23-.273 0-.167.105-.23z" style="stroke:#000;stroke-width:.04;stroke-dasharray:none;stroke-opacity:1"/></svg>