<svg xmlns="http://www.w3.org/2000/svg" xmlns:xlink="http://www.w3.org/1999/xlink" id="svg171797" width="1200" height="160" preserveAspectRatio="none" version="1.1" viewBox="-10 -10 1200 160"><style id="style171643" type="text/css">.grid{stroke:#9e9ed1;stroke-width:.4}.axes{stroke:#000;stroke-width:.9}</style><defs id="defs171655"><path id="STIXWEBMAIN-2212" stroke-width="1" d="M621 220H64v66h557z"/><path id="STIXWEBMAIN-31" stroke-width="1" d="M394 0H118v15c74 4 95 25 95 80v449c0 34-9 49-30 49-10 0-27-5-45-12l-27-10v14l179 91 9-3V76c0-43 20-61 95-61z"/><path id="STIXWEBMAIN-32" stroke-width="1" d="M474 137 420 0H29v12l178 189c94 99 130 175 130 260 0 91-54 141-139 141-72 0-107-32-147-130l-21 5c21 117 85 199 208 199 113 0 185-77 185-176 0-79-39-154-128-248L130 76h234c42 0 63 11 96 67z"/><path id="STIXWEBMAIN-39" stroke-width="1" d="M59-22 56-2c152 27 264 132 304 296-43-42-91-57-150-57-108 0-180 81-180 203 0 135 89 236 208 236 64 0 118-28 157-76 40-50 64-122 64-206 0-115-40-224-120-297C254 20 189-4 59-22Zm303 377v39c0 168-45 254-132 254-30 0-56-12-73-34-20-27-35-86-35-140 0-119 48-194 123-194 44 0 117 22 117 75z"/><path id="STIXWEBMAIN-36" stroke-width="1" d="m446 684 2-16c-157-26-269-134-296-285 49 38 83 45 127 45 117 0 189-80 189-209 0-64-18-120-51-160-37-46-93-73-159-73-79 0-142 37-177 101-28 51-47 122-47 192 0 108 38 203 109 276 86 90 165 114 303 129zm-68-496c0 128-42 194-135 194-57 0-116-24-116-116 0-152 48-252 142-252 72 0 109 72 109 174z"/><path id="STIXWEBMAIN-33" stroke-width="1" d="m61 510-16 4c29 95 92 162 196 162 93 0 156-55 156-137 0-48-26-98-93-138 44-19 62-31 83-53 28-31 44-77 44-129 0-53-17-102-46-140-48-64-143-93-232-93C80-14 41 7 41 43c0 21 18 36 41 36 17 0 33-6 61-26 37-26 58-31 86-31 74 0 130 68 130 153 0 76-35 125-104 145-22 7-45 10-102 10v14c38 13 64 24 84 36 49 28 81 73 81 134 0 68-42 102-108 102-62 0-108-32-149-106z"/><path id="STIXWEBMAIN-30" stroke-width="1" d="M476 330c0-172-63-344-226-344C79-14 24 172 24 336c0 177 69 340 230 340 131 0 222-141 222-346Zm-96-5c0 208-44 325-132 325-83 0-128-118-128-321S164 12 250 12c85 0 130 115 130 313z"/><clipPath id="trbl_clip_0_1154.6_138_0"><path id="path171645" d="M0 0h1154.6v138H0Z"/></clipPath></defs><g id="grid"><path id="path171657" d="M39.04 139.87V90.59m0-13.982V1.87" class="grid"/><path id="path171659" d="M85.04 139.87v-138" class="grid"/><path id="path171661" d="M131.04 139.87v-138" class="grid"/><path id="path171663" d="M177.04 139.87V90.593m0-13.985V1.87" class="grid"/><path id="path171665" d="M223.04 139.87v-138" class="grid"/><path id="path171667" d="M269.04 139.87v-138" class="grid"/><path id="path171669" d="M315.04 139.87V91.463m0-14.855V1.87" class="grid"/><path id="path171671" d="M361.04 139.87v-138" class="grid"/><path id="path171673" d="M407.04 139.87v-138" class="grid"/><path id="path171675" d="M453.04 139.87V90.593m0-13.985V1.87" class="grid"/><path id="path171677" d="M499.04 139.87v-138" class="grid"/><path id="path171679" d="M545.04 139.87v-138" class="grid"/><path id="path171681" d="M591.04 139.87v-138" class="grid"/><path id="path171683" d="M637.04 139.87v-138" class="grid"/><path id="path171685" d="M683.04 139.87v-138" class="grid"/><path id="path171687" d="M729.04 139.87V90.586m0-13.978V1.87" class="grid"/><path id="path171689" d="M775.04 139.87v-138" class="grid"/><path id="path171691" d="M821.04 139.87v-138" class="grid"/><path id="path171693" d="M867.04 139.87V91.455m0-14.847V1.87" class="grid"/><path id="path171695" d="M913.04 139.87v-138" class="grid"/><path id="path171697" d="M959.04 139.87v-138" class="grid"/><path id="path171699" d="M1005.04 139.87V90.586m0-13.978V1.87" class="grid"/><path id="path171701" d="M1051.04 139.87v-138" class="grid"/><path id="path171703" d="M1097.04 139.87v-138" class="grid"/><path id="path171705" d="M1143.04 139.87V90.592m0-13.984V1.87" class="grid"/><path id="path171707" d="M13.74 116.87h551.306m21.075 0h582.219" class="grid"/><path id="path171709" d="M13.74 70.87h1154.6" class="grid"/><path id="path171711" d="M13.74 24.87h562.668m9.713 0h582.219" class="grid"/></g><g id="axes"><path id="path171714" d="M13.74 70.87h1154.6" class="axes"/><path id="path171716" d="M591.04 139.87v-138" class="axes"/></g><g id="notch labels" style="stroke:none;fill:#b8b8de"><g id="g171727" transform="matrix(.01656 0 0 -.01656 25.071 88.815)"><use xlink:href="#STIXWEBMAIN-2212" id="use171719" x="0" y="0"/><g id="g171725" transform="translate(685)"><use xlink:href="#STIXWEBMAIN-31" id="use171721"/><use xlink:href="#STIXWEBMAIN-32" id="use171723" x="500" y="0"/></g></g><g id="g171733" transform="matrix(.01657 0 0 -.01657 167.215 88.817)"><use xlink:href="#STIXWEBMAIN-2212" id="use171729" x="0" y="0"/><use xlink:href="#STIXWEBMAIN-39" id="use171731" x="685" y="0"/></g><g id="g171739" transform="matrix(.01657 0 0 -.01657 305.215 89.686)"><use xlink:href="#STIXWEBMAIN-2212" id="use171735" x="0" y="0"/><use xlink:href="#STIXWEBMAIN-36" id="use171737" x="685" y="0"/></g><g id="g171745" transform="matrix(.01657 0 0 -.01657 443.215 88.817)"><use xlink:href="#STIXWEBMAIN-2212" id="use171741" x="0" y="0"/><use xlink:href="#STIXWEBMAIN-33" id="use171743" x="685" y="0"/></g><g id="g171749" transform="matrix(.01656 0 0 -.01656 724.896 88.81)"><use xlink:href="#STIXWEBMAIN-33" id="use171747" x="0" y="0"/></g><g id="g171753" transform="matrix(.01656 0 0 -.01656 862.896 89.68)"><use xlink:href="#STIXWEBMAIN-36" id="use171751" x="0" y="0"/></g><g id="g171757" transform="matrix(.01656 0 0 -.01656 1000.896 88.81)"><use xlink:href="#STIXWEBMAIN-39" id="use171755" x="0" y="0"/></g><g id="g171763" transform="matrix(.01657 0 0 -.01657 1134.748 88.816)"><use xlink:href="#STIXWEBMAIN-31" id="use171759"/><use xlink:href="#STIXWEBMAIN-32" id="use171761" x="500" y="0"/></g><g id="g171767" transform="matrix(.01656 0 0 -.01656 576.3 88.81)"><use xlink:href="#STIXWEBMAIN-30" id="use171765" x="0" y="0"/></g><g id="g171773" transform="matrix(.01657 0 0 -.01657 565.759 122.466)"><use xlink:href="#STIXWEBMAIN-2212" id="use171769" x="0" y="0"/><use xlink:href="#STIXWEBMAIN-31" id="use171771" x="685" y="0"/></g><g id="g171777" transform="matrix(.01656 0 0 -.01656 577.12 30.463)"><use xlink:href="#STIXWEBMAIN-31" id="use171775" x="0" y="0"/></g></g><g id="graphs" style="display:inline"><g id="g171782" clip-path="url(#trbl_clip_0_1154.6_138_0)" transform="translate(13.74 1.87)"><path id="path171780" d="M-73.14 69.13C-49.067 45.057-24.993 23.088-.92 23c24.073-.087 48.147 21.723 72.22 45.796 24.227 24.227 48.453 46.32 72.68 46.203 24.073-.115 48.147-22.109 72.22-46.182S264.347 22.924 288.42 23c24.073.077 48.147 22.037 72.22 46.11s48.147 45.928 72.22 45.89c24.073-.038 48.147-21.963 72.22-46.037C529.153 44.89 553.227 23 577.3 23s48.147 21.89 72.22 45.963c24.073 24.074 48.147 45.999 72.22 46.037 24.073.038 48.147-21.817 72.22-45.89S842.107 23.077 866.18 23c24.073-.076 48.147 21.744 72.22 45.817s48.147 46.067 72.22 46.182c24.227.116 48.453-21.976 72.68-46.203 24.073-24.073 48.147-45.883 72.22-45.796 24.073.088 48.147 22.057 72.22 46.13" style="stroke:red;stroke-width:1.7;fill:none"/></g><g id="g171786" clip-path="url(#trbl_clip_0_1154.6_138_0)" transform="translate(13.74 1.87)"><path id="path171784" d="M-73.14 23c24.073-.068 48.147 21.76 72.22 45.833C23.153 92.906 47.227 114.893 71.3 115c24.227.107 48.453-21.993 72.68-46.22C168.053 44.707 192.127 22.905 216.2 23c24.073.096 48.147 22.073 72.22 46.147 24.073 24.073 48.147 45.91 72.22 45.853 24.073-.058 48.147-22 72.22-46.073C456.933 44.853 481.007 22.98 505.08 23c24.073.02 48.147 21.927 72.22 46s48.147 45.98 72.22 46c24.073.02 48.147-21.853 72.22-45.927C745.813 45 769.887 23.058 793.96 23c24.073-.057 48.147 21.78 72.22 45.853 24.073 24.074 48.147 46.05 72.22 46.147 24.073.095 48.147-21.707 72.22-45.78 24.227-24.227 48.453-46.327 72.68-46.22 24.073.107 48.147 22.094 72.22 46.167s48.147 45.901 72.22 45.833" style="stroke:#00f;stroke-width:1.7;fill:none"/></g><g id="g171790" clip-path="url(#trbl_clip_0_1154.6_138_0)" transform="translate(13.74 1.87)"><path id="path171788" d="M-73.14 68.87C-49.067 92.943-24.993 114.912-.92 115c24.073.087 48.147-21.723 72.22-45.796C95.527 44.977 119.753 22.884 143.98 23c24.073.115 48.147 22.109 72.22 46.182s48.147 45.893 72.22 45.817c24.073-.077 48.147-22.037 72.22-46.11S408.787 22.962 432.86 23c24.073.038 48.147 21.963 72.22 46.037C529.153 93.11 553.227 115 577.3 115s48.147-21.89 72.22-45.963C673.593 44.963 697.667 23.038 721.74 23c24.073-.038 48.147 21.817 72.22 45.89s48.147 46.033 72.22 46.11c24.073.076 48.147-21.744 72.22-45.817s48.147-46.067 72.22-46.182c24.227-.116 48.453 21.976 72.68 46.203 24.073 24.073 48.147 45.883 72.22 45.796 24.073-.088 48.147-22.057 72.22-46.13" style="stroke:#dd0;stroke-width:1.7;fill:none"/></g><g id="g171794" clip-path="url(#trbl_clip_0_1154.6_138_0)" transform="translate(13.74 1.87)"><path id="path171792" d="M-73.14 115c24.073.068 48.147-21.76 72.22-45.833C23.153 45.094 47.227 23.107 71.3 23c24.227-.107 48.453 21.993 72.68 46.22 24.073 24.073 48.147 45.875 72.22 45.78 24.073-.096 48.147-22.073 72.22-46.147C312.493 44.78 336.567 22.943 360.64 23c24.073.058 48.147 22 72.22 46.073 24.073 24.074 48.147 45.946 72.22 45.927 24.073-.02 48.147-21.927 72.22-46s48.147-45.98 72.22-46c24.073-.02 48.147 21.853 72.22 45.927C745.813 93 769.887 114.942 793.96 115c24.073.057 48.147-21.78 72.22-45.853C890.253 45.073 914.327 23.097 938.4 23c24.073-.095 48.147 21.707 72.22 45.78 24.227 24.227 48.453 46.327 72.68 46.22 24.073-.107 48.147-22.094 72.22-46.167s48.147-45.901 72.22-45.833" style="stroke:#0c0;stroke-width:1.7;fill:none"/></g></g></svg>