<svg xmlns="http://www.w3.org/2000/svg" xmlns:xlink="http://www.w3.org/1999/xlink" width="650" height="300"><defs><symbol id="a" overflow="visible" style="overflow:visible"><path d="m4.734-1.36-.125-.062c-.375.578-.5.672-.953.672H1.281l1.672-1.766c.89-.921 1.281-1.687 1.281-2.453 0-1-.812-1.765-1.859-1.765-.547 0-1.063.218-1.422.609-.328.344-.469.656-.64 1.375l.203.047C.922-5.687 1.28-6 1.969-6c.828 0 1.406.563 1.406 1.406 0 .782-.469 1.703-1.297 2.594L.297-.125V0h3.89Zm0 0" style="stroke:none"/></symbol><symbol id="b" overflow="visible" style="overflow:visible"><path d="M6.563-2.297c.171 0 .359 0 .359-.203 0-.188-.188-.188-.36-.188h-5.39c-.172 0-.344 0-.344.188 0 .203.172.203.344.203zm0 0" style="stroke:none"/></symbol></defs><g style="display:inline"><path d="M803.091 503.909V378.318M803.091 618.206v-93.96M753.112 618.206V378.318M703.14 618.206V378.318M653.161 618.206V378.318M603.182 503.909V378.318M603.182 618.206v-93.96M697.637 398.304h125.447M583.189 398.304h100.957M583.189 448.283h239.895M583.189 498.262h239.895M583.189 548.24h239.895M695.144 598.213h127.94M583.189 598.213h88.464" style="fill:none;stroke:#9e9ed1;stroke-width:.351292;stroke-linecap:butt;stroke-linejoin:miter;stroke-miterlimit:10;stroke-opacity:1" transform="translate(-378.491 -327.344)"/><path d="M583.189 498.262h239.895M703.14 618.206V368.814" style="fill:none;stroke:#000;stroke-width:.702585;stroke-linecap:butt;stroke-linejoin:miter;stroke-miterlimit:10;stroke-opacity:1" transform="translate(-378.491 -327.344)"/><use xlink:href="#a" width="100%" height="100%" x="356.963" y="332.204" style="fill:#b0b0d9;fill-opacity:1" transform="translate(-209.142 -392.915) scale(1.76307)"/><use xlink:href="#b" width="100%" height="100%" x="239.705" y="331.79" style="fill:#b0b0d9;fill-opacity:1" transform="translate(-209.142 -392.915) scale(1.76307)"/><use xlink:href="#a" width="100%" height="100%" x="247.505" y="331.79" style="fill:#b0b0d9;fill-opacity:1" transform="translate(-209.142 -392.915) scale(1.76307)"/><use xlink:href="#a" width="100%" height="100%" x="293.75" y="266.439" style="fill:#b0b0d9;fill-opacity:1" transform="translate(-209.142 -392.915) scale(1.76307)"/><use xlink:href="#b" width="100%" height="100%" x="285.627" y="379.412" style="fill:#b0b0d9;fill-opacity:1" transform="translate(-209.142 -392.915) scale(1.76307)"/><use xlink:href="#a" width="100%" height="100%" x="293.427" y="379.412" style="fill:#b0b0d9;fill-opacity:1" transform="translate(-209.142 -392.915) scale(1.76307)"/><path d="M823.084 498.262h9.993" style="fill:none;stroke:#000;stroke-width:.702585;stroke-linecap:butt;stroke-linejoin:miter;stroke-miterlimit:10;stroke-opacity:1" transform="translate(-378.491 -327.344)"/><path d="M832.905 498.262h-.964" style="fill:none;stroke:#000;stroke-width:.1;stroke-linecap:butt;stroke-linejoin:miter;stroke-miterlimit:10;stroke-dasharray:none;stroke-opacity:1" transform="translate(-378.491 -327.344)"/><path d="M829.358 494.818c.214 1.288 2.583 3.23 3.23 3.444-.647.213-3.016 2.148-3.23 3.443M699.696 372.037c1.288-.214 3.224-2.583 3.444-3.223.213.64 2.149 3.01 3.443 3.223" style="fill:none;stroke:#000;stroke-width:.983618;stroke-linecap:round;stroke-linejoin:round;stroke-miterlimit:10;stroke-opacity:1" transform="translate(-378.491 -327.344)"/><path d="M583.189 592.765c14.915-.397 29.848-.828 44.72-2.114 10.651-1.005 21.4-2.224 31.6-5.593 5.183-1.729 10.225-4.031 14.644-7.274 10.22-7.266 16.656-18.435 22.077-29.475 7.638-15.49 13.314-32.063 23.15-46.387 3.303-4.67 7.155-9 11.742-12.443 8.266-6.339 18.48-9.398 28.6-11.217 12.726-2.285 25.665-2.996 38.557-3.672 8.267-.323 16.533-.66 24.805-.796" style="fill:none;stroke:red;stroke-width:1.40519;stroke-linecap:butt;stroke-linejoin:miter;stroke-miterlimit:10;stroke-opacity:1" transform="translate(-378.491 -327.344)"/><g style="fill:#000;fill-opacity:1;stroke:#000;stroke-width:0;stroke-dasharray:none;stroke-opacity:1"><path stroke="none" d="M2.953-4.266h-.797l.281-1.03v-.048c0-.062-.03-.093-.078-.093-.062 0-.093 0-.14.078-.39.515-1.016 1.015-1.328 1.109-.25.078-.329.14-.329.25 0 0 0 .016.016.047h.735l-.72 2.75c-.015.094-.03.11-.062.203-.078.297-.156.656-.156.734 0 .22.203.375.469.375.469 0 .797-.28 1.422-1.203l-.125-.078c-.5.64-.657.797-.813.797-.094 0-.156-.078-.156-.203 0-.016 0-.016.016-.047l.875-3.328h.843zm0 0" style="fill:#000;stroke:#000;stroke-width:0;stroke-dasharray:none;stroke-opacity:1" transform="translate(465.228 174.828) scale(1.94702)"/></g><g style="fill:#000;fill-opacity:1;stroke:#000;stroke-width:.0513607;stroke-dasharray:none;stroke-opacity:1"><path d="M2.547 2.5v-.406h-.969v-9.172h.969v-.406H1.172V2.5Zm0 0" style="fill:#000;stroke:#000;stroke-width:.0513607;stroke-dasharray:none;stroke-opacity:1" transform="translate(476.787 175.184) scale(1.94702)"/></g><g style="fill:#000;fill-opacity:1;stroke:#000;stroke-width:.0513607;stroke-dasharray:none;stroke-opacity:1"><path d="M1.578-7.484H.218v.406h.97v9.172h-.97V2.5h1.36zm0 0" style="fill:#000;stroke:#000;stroke-width:.0513607;stroke-dasharray:none;stroke-opacity:1" transform="translate(489.638 175.184) scale(1.94702)"/></g><g style="font-size:15.4607px;line-height:125%;letter-spacing:0;word-spacing:0;fill:#000;stroke:#000;stroke-width:.0708992;stroke-dasharray:none;stroke-opacity:1"><path d="M777.647 475.404v-2.031h.294q.514 1.759 1.835 1.759.573 0 .853-.347.287-.348.287-.763 0-.483-.302-.792-.31-.31-1.2-.748-.937-.46-1.344-.906-.408-.438-.408-1.08 0-.61.438-1.162.438-.558 1.23-.558.808 0 1.336.656.114-.113.295-.55h.28v1.91h-.28q-.151-.688-.589-1.178-.43-.499-1.02-.499-.452 0-.731.28-.28.279-.28.649 0 .407.31.702.302.302 1.155.687 1.283.581 1.57 1.132.287.559.287 1.072 0 .808-.536 1.314-.528.506-1.336.506-.853 0-1.518-.702-.203.226-.332.649z" aria-label="s" style="font-family:Baskerville;-inkscape-font-specification:Baskerville;fill:#000;stroke:#000;stroke-width:.0708992;stroke-dasharray:none;stroke-opacity:1" transform="matrix(1.41046 0 0 1.41046 -613.433 -495.168)"/></g><g style="fill:#000;fill-opacity:1;stroke:#000;stroke-width:.0513607;stroke-dasharray:none;stroke-opacity:1"><g style="fill:#000;stroke:#000;stroke-width:.0513607;stroke-dasharray:none;stroke-opacity:1"><path d="M1.194-.913c-.125.031-.188.047-.297.047-.578 0-.719-.249-1.19-1.967C-.45-3.473-.7-4.645-.7-4.817c0-.156.062-.313.218-.5.296-.407.5-.673.608-.782.219-.22.328-.297.469-.298.047 0 .125.031.234.11.141.109.25.171.36.171.219 0 .39-.172.39-.391 0-.25-.22-.437-.5-.437-.641 0-1.952 1.487-3.028 3.472-.67 1.22-.95 1.939-.95 2.423 0 .297.25.547.547.546.235 0 .39-.14.39-.36 0-.156-.078-.265-.281-.39-.188-.109-.25-.203-.25-.343 0-.39.358-1.173 1.215-2.58l.19 1.156c.156.875.72 2.515.861 2.515h.125l.985-.173c.046-.016.171-.047.312-.063zM-21.619 1.308l2.127-6.435h.634l-2.136 6.435zM-11.49-.405h-.055q-.159-.367-.159-.94-.366.47-.787.705-.427.235-.914.235-.552 0-.896-.252-.345-.251-.482-.754-.415.503-.853.754-.437.252-.891.252-.52 0-.88-.24-.362-.241-.438-.548-.077-.306-.077-.99v-1.345q0-.782-.027-.951-.033-.17-.175-.252-.148-.082-.541-.082v-.252h2.236v.252q-.355 0-.497.077-.148.082-.18.24-.034.164-.034.968v1.493q0 .454.055.684.05.23.268.394.219.164.569.164.355 0 .716-.241.356-.24.717-.727v-1.767q0-.716-.017-.902-.022-.18-.153-.285-.137-.098-.481-.098v-.252h2.165v.252q-.366 0-.508.077-.148.076-.18.235-.039.158-.039.973v1.242q0 .59.05.853.043.268.278.454.235.191.585.191.34 0 .695-.219.35-.218.716-.656v-1.865q0-.738-.022-.919-.021-.18-.164-.273-.142-.093-.508-.093v-.252h2.193v.252q-.361 0-.503.077-.148.082-.18.24-.034.159-.034.968v1.34q0 .766.028.935.021.175.17.263.141.087.519.087v.252q-.777.076-1.285.246zM-22.241-5.114v1.471h-.214q-.372-1.274-1.329-1.274-.415 0-.618.252-.207.251-.207.552 0 .35.218.574.225.224.87.542.678.333.973.656.296.317.296.782 0 .443-.318.842-.317.405-.89.405-.586 0-.969-.476-.082.082-.213.4h-.203v-1.384h.203q.11.497.426.853.312.36.739.36.328 0 .53-.202t.202-.47q0-.295-.224-.509-.218-.218-.836-.497-.93-.421-1.138-.82-.208-.405-.208-.777 0-.585.389-.952.382-.366.967-.366.618 0 1.1.509.147-.165.24-.47zM-9.076-7.484v.406h.97v9.172h-.97V2.5H-7.7v-9.984zM-27.562 2.5h1.36v-.406h-.97v-9.172h.97v-.406h-1.36z" style="fill:#000;stroke:#000;stroke-width:.0513607;stroke-dasharray:none;stroke-opacity:1" transform="rotate(180 149.953 8.006) scale(1.94702)"/></g></g></g></svg>