<svg xmlns="http://www.w3.org/2000/svg" xmlns:xlink="http://www.w3.org/1999/xlink" width="672.44" height="613.41" viewBox="-29.44 -39.24 672.44 613.41"><style>.flower2_petal_fill{fill:#fadede}.flower2_contour_line{stroke:#000;stroke-width:1.4;stroke-miterlimit:6.25;fill:none}</style><defs><path id="E309-STIXWEBMAINI-78" stroke-width="1" d="m243 355 12-57c70 107 107 143 151 143 24 0 41-15 41-37 0-21-14-36-34-36-19 0-28 17-52 17-18 0-54-44-98-121 0-7 2-21 8-45l32-134c7-28 16-41 30-41 13 0 24 10 47 40 9 12 13 18 21 28l15-9C358 13 332-11 294-11c-32 0-47 18-59 68l-29 119-88-119C74-2 54-11 23-11S-27 5-27 31c0 20 14 36 34 36 9 0 19-4 32-11 10-6 20-9 26-9 11 0 30 19 51 49l82 116-28 124c-14 60-21 68-46 68-8 0-20-2-39-7l-18-5-3 16 11 4c61 22 94 29 117 29 25 0 37-18 51-86Z"/><path id="E309-STIXWEBMAINI-61" stroke-width="1" d="m463 111 13-11C401 9 377-10 337-10c-28 0-40 12-40 41 0 25 2 33 23 115C245 33 187-11 117-11 61-11 17 29 17 105c0 155 153 336 286 336 43 0 72-21 80-58l11 48 3 3 61 7 7-3c-2-9-3-11-6-21-47-171-89-343-89-363 0-7 6-13 14-13 9 0 22 8 52 41zm-98 250c0 35-21 58-56 58-45 0-89-31-131-92-42-63-77-152-77-215 0-55 24-74 60-74 50 0 97 55 127 98 47 68 77 154 77 225Z"/><path id="E309-STIXWEBMAINI-62" stroke-width="1" d="M163 290h1c68 113 123 151 193 151 67 0 116-43 116-120 0-158-165-332-320-332C96-11 23 12 23 42v6l142 523c6 24 9 38 9 47 0 22-5 23-64 25v17c67 8 103 14 153 23l5-5-21-82zm225 16c0 61-26 86-70 86-48 0-94-42-137-115-44-74-72-171-72-231 0-23 15-34 46-34 43 0 86 21 123 59 60 62 110 161 110 235Z"/><path id="E309-STIXWEBMAIN-3D" stroke-width="1" d="M637 320H48v66h589v-66zm0-200H48v66h589v-66Z"/><path id="E309-STIXWEBMAIN-2B" stroke-width="1" d="M636 220H375V-41h-66v261H48v66h261v261h66V286h261v-66Z"/><path id="E310-STIXWEBMAINI-78" stroke-width="1" d="m243 355 12-57c70 107 107 143 151 143 24 0 41-15 41-37 0-21-14-36-34-36-19 0-28 17-52 17-18 0-54-44-98-121 0-7 2-21 8-45l32-134c7-28 16-41 30-41 13 0 24 10 47 40 9 12 13 18 21 28l15-9C358 13 332-11 294-11c-32 0-47 18-59 68l-29 119-88-119C74-2 54-11 23-11S-27 5-27 31c0 20 14 36 34 36 9 0 19-4 32-11 10-6 20-9 26-9 11 0 30 19 51 49l82 116-28 124c-14 60-21 68-46 68-8 0-20-2-39-7l-18-5-3 16 11 4c61 22 94 29 117 29 25 0 37-18 51-86Z"/><path id="E310-STIXWEBMAINI-61" stroke-width="1" d="m463 111 13-11C401 9 377-10 337-10c-28 0-40 12-40 41 0 25 2 33 23 115C245 33 187-11 117-11 61-11 17 29 17 105c0 155 153 336 286 336 43 0 72-21 80-58l11 48 3 3 61 7 7-3c-2-9-3-11-6-21-47-171-89-343-89-363 0-7 6-13 14-13 9 0 22 8 52 41zm-98 250c0 35-21 58-56 58-45 0-89-31-131-92-42-63-77-152-77-215 0-55 24-74 60-74 50 0 97 55 127 98 47 68 77 154 77 225Z"/><path id="E310-STIXWEBMAINI-62" stroke-width="1" d="M163 290h1c68 113 123 151 193 151 67 0 116-43 116-120 0-158-165-332-320-332C96-11 23 12 23 42v6l142 523c6 24 9 38 9 47 0 22-5 23-64 25v17c67 8 103 14 153 23l5-5-21-82zm225 16c0 61-26 86-70 86-48 0-94-42-137-115-44-74-72-171-72-231 0-23 15-34 46-34 43 0 86 21 123 59 60 62 110 161 110 235Z"/><path id="E310-STIXWEBMAIN-3D" stroke-width="1" d="M637 320H48v66h589v-66zm0-200H48v66h589v-66Z"/><path id="E310-STIXWEBMAIN-2212" stroke-width="1" d="M621 220H64v66h557v-66Z"/><path id="E311-STIXWEBMAIN-28" stroke-width="1" d="m304-161-12-16C134-87 48 82 48 252c0 185 87 329 247 424l9-16C165 541 134 448 134 255c0-186 30-299 170-416Z"/><path id="E311-STIXWEBMAINI-78" stroke-width="1" d="m243 355 12-57c70 107 107 143 151 143 24 0 41-15 41-37 0-21-14-36-34-36-19 0-28 17-52 17-18 0-54-44-98-121 0-7 2-21 8-45l32-134c7-28 16-41 30-41 13 0 24 10 47 40 9 12 13 18 21 28l15-9C358 13 332-11 294-11c-32 0-47 18-59 68l-29 119-88-119C74-2 54-11 23-11S-27 5-27 31c0 20 14 36 34 36 9 0 19-4 32-11 10-6 20-9 26-9 11 0 30 19 51 49l82 116-28 124c-14 60-21 68-46 68-8 0-20-2-39-7l-18-5-3 16 11 4c61 22 94 29 117 29 25 0 37-18 51-86Z"/><path id="E311-STIXWEBMAINI-61" stroke-width="1" d="m463 111 13-11C401 9 377-10 337-10c-28 0-40 12-40 41 0 25 2 33 23 115C245 33 187-11 117-11 61-11 17 29 17 105c0 155 153 336 286 336 43 0 72-21 80-58l11 48 3 3 61 7 7-3c-2-9-3-11-6-21-47-171-89-343-89-363 0-7 6-13 14-13 9 0 22 8 52 41zm-98 250c0 35-21 58-56 58-45 0-89-31-131-92-42-63-77-152-77-215 0-55 24-74 60-74 50 0 97 55 127 98 47 68 77 154 77 225Z"/><path id="E311-STIXWEBMAIN-29" stroke-width="1" d="m29 660 12 16c153-92 244-259 244-429 0-185-88-327-247-424l-9 16C171-44 199 50 199 244c0 187-25 302-170 416Z"/><path id="E311-STIXWEBMAINI-62" stroke-width="1" d="M163 290h1c68 113 123 151 193 151 67 0 116-43 116-120 0-158-165-332-320-332C96-11 23 12 23 42v6l142 523c6 24 9 38 9 47 0 22-5 23-64 25v17c67 8 103 14 153 23l5-5-21-82zm225 16c0 61-26 86-70 86-48 0-94-42-137-115-44-74-72-171-72-231 0-23 15-34 46-34 43 0 86 21 123 59 60 62 110 161 110 235Z"/><path id="E311-STIXWEBMAIN-3D" stroke-width="1" d="M637 320H48v66h589v-66zm0-200H48v66h589v-66Z"/><path id="E312-STIXWEBMAIN-28" stroke-width="1" d="m304-161-12-16C134-87 48 82 48 252c0 185 87 329 247 424l9-16C165 541 134 448 134 255c0-186 30-299 170-416Z"/><path id="E312-STIXWEBMAINI-78" stroke-width="1" d="m243 355 12-57c70 107 107 143 151 143 24 0 41-15 41-37 0-21-14-36-34-36-19 0-28 17-52 17-18 0-54-44-98-121 0-7 2-21 8-45l32-134c7-28 16-41 30-41 13 0 24 10 47 40 9 12 13 18 21 28l15-9C358 13 332-11 294-11c-32 0-47 18-59 68l-29 119-88-119C74-2 54-11 23-11S-27 5-27 31c0 20 14 36 34 36 9 0 19-4 32-11 10-6 20-9 26-9 11 0 30 19 51 49l82 116-28 124c-14 60-21 68-46 68-8 0-20-2-39-7l-18-5-3 16 11 4c61 22 94 29 117 29 25 0 37-18 51-86Z"/><path id="E312-STIXWEBMAINI-79" stroke-width="1" d="m243 186 21-110c85 141 122 213 122 257 0 14-7 20-26 32-20 13-26 23-26 39 0 22 17 37 40 37 30 0 52-25 52-55 0-57-48-167-131-305C191-91 84-206 27-206c-30 0-51 17-51 43 0 22 17 40 39 40 35 0 35-28 61-28 13 0 25 8 48 33 18 19 63 78 71 91 6 12 10 24 10 35 0 40-55 264-82 332-19 49-37 64-77 64-11 0-20-1-31-4v17c11 2 22 4 32 6 20 4 53 10 107 18h4c15 0 68-166 85-255Z"/><path id="E312-STIXWEBMAIN-29" stroke-width="1" d="m29 660 12 16c153-92 244-259 244-429 0-185-88-327-247-424l-9 16C171-44 199 50 199 244c0 187-25 302-170 416Z"/><path id="E312-STIXWEBMAINI-61" stroke-width="1" d="m463 111 13-11C401 9 377-10 337-10c-28 0-40 12-40 41 0 25 2 33 23 115C245 33 187-11 117-11 61-11 17 29 17 105c0 155 153 336 286 336 43 0 72-21 80-58l11 48 3 3 61 7 7-3c-2-9-3-11-6-21-47-171-89-343-89-363 0-7 6-13 14-13 9 0 22 8 52 41zm-98 250c0 35-21 58-56 58-45 0-89-31-131-92-42-63-77-152-77-215 0-55 24-74 60-74 50 0 97 55 127 98 47 68 77 154 77 225Z"/><path id="E312-STIXWEBMAIN-3D" stroke-width="1" d="M637 320H48v66h589v-66zm0-200H48v66h589v-66Z"/><path id="E313-STIXWEBMAIN-28" stroke-width="1" d="m304-161-12-16C134-87 48 82 48 252c0 185 87 329 247 424l9-16C165 541 134 448 134 255c0-186 30-299 170-416Z"/><path id="E313-STIXWEBMAINI-78" stroke-width="1" d="m243 355 12-57c70 107 107 143 151 143 24 0 41-15 41-37 0-21-14-36-34-36-19 0-28 17-52 17-18 0-54-44-98-121 0-7 2-21 8-45l32-134c7-28 16-41 30-41 13 0 24 10 47 40 9 12 13 18 21 28l15-9C358 13 332-11 294-11c-32 0-47 18-59 68l-29 119-88-119C74-2 54-11 23-11S-27 5-27 31c0 20 14 36 34 36 9 0 19-4 32-11 10-6 20-9 26-9 11 0 30 19 51 49l82 116-28 124c-14 60-21 68-46 68-8 0-20-2-39-7l-18-5-3 16 11 4c61 22 94 29 117 29 25 0 37-18 51-86Z"/><path id="E313-STIXWEBMAINI-79" stroke-width="1" d="m243 186 21-110c85 141 122 213 122 257 0 14-7 20-26 32-20 13-26 23-26 39 0 22 17 37 40 37 30 0 52-25 52-55 0-57-48-167-131-305C191-91 84-206 27-206c-30 0-51 17-51 43 0 22 17 40 39 40 35 0 35-28 61-28 13 0 25 8 48 33 18 19 63 78 71 91 6 12 10 24 10 35 0 40-55 264-82 332-19 49-37 64-77 64-11 0-20-1-31-4v17c11 2 22 4 32 6 20 4 53 10 107 18h4c15 0 68-166 85-255Z"/><path id="E313-STIXWEBMAIN-29" stroke-width="1" d="m29 660 12 16c153-92 244-259 244-429 0-185-88-327-247-424l-9 16C171-44 199 50 199 244c0 187-25 302-170 416Z"/><path id="E313-STIXWEBSIZE3-28" stroke-width="1" d="M667-346v-48C383-127 182 295 182 836c0 538 201 1002 485 1230v-44c-178-184-375-580-375-1186 0-613 197-962 375-1182Z"/><path id="E313-STIXWEBSIZE3-29" stroke-width="1" d="M83 2018v48c284-267 485-685 485-1230C568 302 367-166 83-394v44C261-166 458 230 458 836c0 614-197 965-375 1182Z"/><path id="E313-STIXWEBMAINI-61" stroke-width="1" d="m463 111 13-11C401 9 377-10 337-10c-28 0-40 12-40 41 0 25 2 33 23 115C245 33 187-11 117-11 61-11 17 29 17 105c0 155 153 336 286 336 43 0 72-21 80-58l11 48 3 3 61 7 7-3c-2-9-3-11-6-21-47-171-89-343-89-363 0-7 6-13 14-13 9 0 22 8 52 41zm-98 250c0 35-21 58-56 58-45 0-89-31-131-92-42-63-77-152-77-215 0-55 24-74 60-74 50 0 97 55 127 98 47 68 77 154 77 225Z"/><path id="E313-STIXWEBMAIN-3D" stroke-width="1" d="M637 320H48v66h589v-66zm0-200H48v66h589v-66Z"/><path id="E314-STIXWEBMAINI-78" stroke-width="1" d="m243 355 12-57c70 107 107 143 151 143 24 0 41-15 41-37 0-21-14-36-34-36-19 0-28 17-52 17-18 0-54-44-98-121 0-7 2-21 8-45l32-134c7-28 16-41 30-41 13 0 24 10 47 40 9 12 13 18 21 28l15-9C358 13 332-11 294-11c-32 0-47 18-59 68l-29 119-88-119C74-2 54-11 23-11S-27 5-27 31c0 20 14 36 34 36 9 0 19-4 32-11 10-6 20-9 26-9 11 0 30 19 51 49l82 116-28 124c-14 60-21 68-46 68-8 0-20-2-39-7l-18-5-3 16 11 4c61 22 94 29 117 29 25 0 37-18 51-86Z"/><path id="E314-STIXWEBMAIN-2212" stroke-width="1" d="M621 220H64v66h557v-66Z"/><path id="E314-STIXWEBMAINI-61" stroke-width="1" d="m463 111 13-11C401 9 377-10 337-10c-28 0-40 12-40 41 0 25 2 33 23 115C245 33 187-11 117-11 61-11 17 29 17 105c0 155 153 336 286 336 43 0 72-21 80-58l11 48 3 3 61 7 7-3c-2-9-3-11-6-21-47-171-89-343-89-363 0-7 6-13 14-13 9 0 22 8 52 41zm-98 250c0 35-21 58-56 58-45 0-89-31-131-92-42-63-77-152-77-215 0-55 24-74 60-74 50 0 97 55 127 98 47 68 77 154 77 225Z"/><path id="E314-STIXWEBMAIN-3D" stroke-width="1" d="M637 320H48v66h589v-66zm0-200H48v66h589v-66Z"/><path id="E314-STIXWEBMAIN-31" stroke-width="1" d="M394 0H118v15c74 4 95 25 95 80v449c0 34-9 49-30 49-10 0-27-5-45-12l-27-10v14l179 91 9-3V76c0-43 20-61 95-61V0Z"/><path id="E315-STIXWEBMAINI-78" stroke-width="1" d="m243 355 12-57c70 107 107 143 151 143 24 0 41-15 41-37 0-21-14-36-34-36-19 0-28 17-52 17-18 0-54-44-98-121 0-7 2-21 8-45l32-134c7-28 16-41 30-41 13 0 24 10 47 40 9 12 13 18 21 28l15-9C358 13 332-11 294-11c-32 0-47 18-59 68l-29 119-88-119C74-2 54-11 23-11S-27 5-27 31c0 20 14 36 34 36 9 0 19-4 32-11 10-6 20-9 26-9 11 0 30 19 51 49l82 116-28 124c-14 60-21 68-46 68-8 0-20-2-39-7l-18-5-3 16 11 4c61 22 94 29 117 29 25 0 37-18 51-86Z"/><path id="E315-STIXWEBMAINI-61" stroke-width="1" d="m463 111 13-11C401 9 377-10 337-10c-28 0-40 12-40 41 0 25 2 33 23 115C245 33 187-11 117-11 61-11 17 29 17 105c0 155 153 336 286 336 43 0 72-21 80-58l11 48 3 3 61 7 7-3c-2-9-3-11-6-21-47-171-89-343-89-363 0-7 6-13 14-13 9 0 22 8 52 41zm-98 250c0 35-21 58-56 58-45 0-89-31-131-92-42-63-77-152-77-215 0-55 24-74 60-74 50 0 97 55 127 98 47 68 77 154 77 225Z"/><path id="E315-STIXWEBMAIN-3D" stroke-width="1" d="M637 320H48v66h589v-66zm0-200H48v66h589v-66Z"/><path id="E315-STIXWEBMAIN-31" stroke-width="1" d="M394 0H118v15c74 4 95 25 95 80v449c0 34-9 49-30 49-10 0-27-5-45-12l-27-10v14l179 91 9-3V76c0-43 20-61 95-61V0Z"/><path id="E315-STIXWEBMAIN-2212" stroke-width="1" d="M621 220H64v66h557v-66Z"/><path id="E316-STIXWEBMAIN-28" stroke-width="1" d="m304-161-12-16C134-87 48 82 48 252c0 185 87 329 247 424l9-16C165 541 134 448 134 255c0-186 30-299 170-416Z"/><path id="E316-STIXWEBMAINI-61" stroke-width="1" d="m463 111 13-11C401 9 377-10 337-10c-28 0-40 12-40 41 0 25 2 33 23 115C245 33 187-11 117-11 61-11 17 29 17 105c0 155 153 336 286 336 43 0 72-21 80-58l11 48 3 3 61 7 7-3c-2-9-3-11-6-21-47-171-89-343-89-363 0-7 6-13 14-13 9 0 22 8 52 41zm-98 250c0 35-21 58-56 58-45 0-89-31-131-92-42-63-77-152-77-215 0-55 24-74 60-74 50 0 97 55 127 98 47 68 77 154 77 225Z"/><path id="E316-STIXWEBMAINI-62" stroke-width="1" d="M163 290h1c68 113 123 151 193 151 67 0 116-43 116-120 0-158-165-332-320-332C96-11 23 12 23 42v6l142 523c6 24 9 38 9 47 0 22-5 23-64 25v17c67 8 103 14 153 23l5-5-21-82zm225 16c0 61-26 86-70 86-48 0-94-42-137-115-44-74-72-171-72-231 0-23 15-34 46-34 43 0 86 21 123 59 60 62 110 161 110 235Z"/><path id="E316-STIXWEBMAIN-29" stroke-width="1" d="m29 660 12 16c153-92 244-259 244-429 0-185-88-327-247-424l-9 16C171-44 199 50 199 244c0 187-25 302-170 416Z"/><path id="E316-STIXWEBSIZE2-28" stroke-width="1" d="M503-243v-36C290-79 139 234 139 643c0 400 151 752 364 923v-33c-134-138-269-432-269-890 0-456 135-721 269-886Z"/><path id="E316-STIXWEBSIZE2-29" stroke-width="1" d="M114 1530v36c213-200 364-514 364-923 0-400-151-751-364-922v33c134 138 269 435 269 889 0 460-135 722-269 887Z"/><path id="E316-STIXWEBMAIN-2212" stroke-width="1" d="M621 220H64v66h557v-66Z"/><path id="E316-STIXWEBMAIN-31" stroke-width="1" d="M394 0H118v15c74 4 95 25 95 80v449c0 34-9 49-30 49-10 0-27-5-45-12l-27-10v14l179 91 9-3V76c0-43 20-61 95-61V0Z"/><path id="E316-STIXWEBMAIN-3D" stroke-width="1" d="M637 320H48v66h589v-66zm0-200H48v66h589v-66Z"/><path id="E317-STIXWEBMAINI-78" stroke-width="1" d="m243 355 12-57c70 107 107 143 151 143 24 0 41-15 41-37 0-21-14-36-34-36-19 0-28 17-52 17-18 0-54-44-98-121 0-7 2-21 8-45l32-134c7-28 16-41 30-41 13 0 24 10 47 40 9 12 13 18 21 28l15-9C358 13 332-11 294-11c-32 0-47 18-59 68l-29 119-88-119C74-2 54-11 23-11S-27 5-27 31c0 20 14 36 34 36 9 0 19-4 32-11 10-6 20-9 26-9 11 0 30 19 51 49l82 116-28 124c-14 60-21 68-46 68-8 0-20-2-39-7l-18-5-3 16 11 4c61 22 94 29 117 29 25 0 37-18 51-86Z"/><path id="E317-STIXWEBMAIN-30" stroke-width="1" d="M476 330c0-172-63-344-226-344C79-14 24 172 24 336c0 177 69 340 230 340 131 0 222-141 222-346zm-96-5c0 208-44 325-132 325-83 0-128-118-128-321S164 12 250 12c85 0 130 115 130 313Z"/><path id="E317-STIXWEBMAIN-3D" stroke-width="1" d="M637 320H48v66h589v-66zm0-200H48v66h589v-66Z"/><path id="E317-STIXWEBMAIN-31" stroke-width="1" d="M394 0H118v15c74 4 95 25 95 80v449c0 34-9 49-30 49-10 0-27-5-45-12l-27-10v14l179 91 9-3V76c0-43 20-61 95-61V0Z"/><g id="flower2"><path d="m-6.526 4.025-2.59 5.939-2.156 5.263.628 3.722 3.592-1.827 3.326-4.03 3.449-5.757Z" class="flower2_petal_fill"/><path d="M-3.698 12.506c-.993 1.951-2.669 4.134-4.43 5.542-.564.452-1.177.893-1.875 1.07-.637.162-1.004-.415-1.127-1-.267-1.274-.099-2.98.433-4.495.58-1.705 1.567-3.762 2.725-5.259" class="flower2_contour_line"/><path d="m-6.614-2.145-8.533.893-6.704 2.391-.022 2.134 8.679 1.324 6.773-.165Z" class="flower2_petal_fill"/><path d="M-13.706-1.446c-2.891.332-5.967 1.036-8.16 2.71-.508.388-.96 1.253-.35 1.729.783.61 2.302 1.032 3.503 1.18 2.257.276 4.523.357 6.776.146" class="flower2_contour_line"/><path d="m-7.328 1.82-7.648 3.765-4.03 3.682.509 2.111 7.122-.744 6.94-4.292ZM.323 7.191l3.547 8.303 4.208 4.009 2.033-1.11-1.012-4.183-5.151-9.2Z" class="flower2_petal_fill"/><path d="M1.741 12.308c1.3 2.457 3.122 5.079 5.466 6.441.61.4 1.736 1.105 2.361.319.27-.395.302-.976.274-1.555-.12-2.418-1.492-5.76-3.057-8.289" class="flower2_contour_line"/><path d="m2.53 6.271 5.792 5.293 7.067 2.691.853-2.416-3.834-4.481-7.382-4.326Z" class="flower2_petal_fill"/><path d="M3.186 6.962c1.27 1.242 3.309 3.178 4.552 4.05 2.026 1.425 4.09 2.775 6.59 3.088 1.017.127 1.713-.152 1.927-.774.307-.893-.436-2.445-1.458-3.695-2.522-3.09-6.271-5.207-10.026-6.843" class="flower2_contour_line"/><path d="m-2.995 5.841-.686 6.561 1.329 8.656 2.36.18 1.809-8-.079-6.836Z" class="flower2_petal_fill"/><path d="M1.695 7.953c.36 2.69.3 5.6.015 8.294-.165 1.559-.579 3.198-1.462 4.503-.41.604-1.237 1.052-1.918.643-.921-.552-1.262-1.753-1.509-2.738-.512-2.042-.602-4.985-.47-7.072.091-1.463.34-2.839.614-4.27" class="flower2_contour_line"/><path d="m16.97-11.719-6.238 1.986-7.805 5.657 2.424 5.078 7.884-5.06 5.101-5.28Z" class="flower2_petal_fill"/><path d="M6.177-.401c1.706-.512 2.461-.771 4.009-1.694 2.433-1.449 4.472-3.016 6.462-5.027.78-.787 2.073-2.133 1.749-3.255-.716-2.481-3.841-.913-5.432-.303-3.609 1.386-5.868 3.292-8.617 5.993" class="flower2_contour_line"/><path d="m-12.971-17.391 1.736 7.46 4.088 7.535 4.778-3.668-3.409-6.578-4.894-5.856Z" class="flower2_petal_fill"/><path d="M-1.556-4.351c-1.214-2.823-2.25-5.37-3.784-8.047-1.165-2.031-3.862-5.332-5.656-5.954-.34-.143-.748-.165-1.058.023-.773.526-.803 1.77-.77 2.591.07 1.706.72 4.051 1.397 5.8 1.135 2.93 2.749 5.42 4.006 7.258" class="flower2_contour_line"/><path d="m-19.312-8.931-2.385.397 1.457 2.797 8.609 5.142 4.23 1.111 1.679-4.355-8.351-4.639-5.24-.453Z" class="flower2_petal_fill"/><path d="M-6.116-4.254c-2.116-1.645-4.557-3.186-7.176-3.842-2.865-.718-5.165-1.37-8.144-.88-1.726 1.325 1.017 3.25 2.306 4.318C-15.965-2.04-11.77-.327-7.713.235" class="flower2_contour_line"/><path d="m-3.678-21.511-1.272 1.226-.409 5.677 2.04 8.901 5.222.824-2.065-10.975-2.16-4.55Z" class="flower2_petal_fill"/><path d="M1.384-8.546C.918-12.569.127-15.711-1.413-19a7.542 7.542 0 0 0-1.775-2.357c-.544-.475-1.414-.034-1.608.67-.347 1.258-.422 2.444-.452 3.748-.101 4.439.67 7.956 1.929 11.314" class="flower2_contour_line"/><path d="m8.775-18.006-2.954.91L-.623-5.332l5.028 2.539 5.106-12.093Z" class="flower2_petal_fill"/><path d="M4.338-4.648c1.22-.905 1.834-2.047 2.598-3.23 1.184-1.835 2.378-4.9 2.663-7.434.116-1.034-.159-2.363-1.149-2.816-.677-.31-1.537.115-2.119.536C4.82-16.5 3.8-14.832 2.992-13.25 1.88-11.072 1.298-9.286.504-6.808" class="flower2_contour_line"/><path d="m4.379 4.133 8.617.536 6.207-1.539 3.15-1.543-1.38-1.747L13.1-1.38l-7.595.91Z" class="flower2_petal_fill"/><path d="M5.227 4.171c2.604.646 4.576.768 6.973.662 5.061-.107 9.24-1.248 10.257-3.632-.262-.818-1.117-1.253-1.834-1.504-2.473-.868-5.127-1.046-7.733-1.03-2.494.016-4.408.369-6.742.846" class="flower2_contour_line"/><ellipse cx=".125" cy="-.743" rx="7.094" ry="6.228" style="fill:#fafafa" transform="rotate(-147.08)"/><path d="M-7.649 2.265c-2.244.61-3.86 1.244-6.133 2.48-1.87 1.017-3.758 2.304-4.912 4.141-.492.785-.744 2.001.152 2.507 1.124.635 2.65.378 4.003.089 3.827-.821 6.575-2.621 9.561-5.127" class="flower2_contour_line"/><path d="M6.108 3.257c.037.376-.3 1.109-.696 1.652-.964 1.373-2.662 2.369-4.151 2.52-4.278.481-7.97-1.806-8.561-5.937-.484-4.14 1.966-7.368 5.564-7.457.744.053 1.361.306 1.655.65" class="flower2_contour_line"/></g><g id="laws_of_exp_1_formula" transform="scale(1 -1)"><use xlink:href="#E309-STIXWEBMAINI-78" transform="scale(1.44)"/><use xlink:href="#E309-STIXWEBMAINI-61" x="634" y="583" transform="scale(1.018)"/><g transform="translate(1300)"><use xlink:href="#E309-STIXWEBMAINI-78" transform="scale(1.44)"/><use xlink:href="#E309-STIXWEBMAINI-62" x="634" y="583" transform="scale(1.018)"/></g><use xlink:href="#E309-STIXWEBMAIN-3D" x="2083" transform="scale(1.44)"/><g transform="translate(4386)"><use xlink:href="#E309-STIXWEBMAINI-78" transform="scale(1.44)"/><g transform="translate(645 594)"><use xlink:href="#E309-STIXWEBMAINI-61" transform="scale(1.018)"/><use xlink:href="#E309-STIXWEBMAIN-2B" x="501" transform="scale(1.018)"/><use xlink:href="#E309-STIXWEBMAINI-62" x="1187" transform="scale(1.018)"/></g></g></g><g id="laws_of_exp_2_formula" transform="scale(1 -1)"><path d="M172 316h1473v86H172z"/><g transform="translate(258 974)"><use xlink:href="#E310-STIXWEBMAINI-78" transform="scale(1.44)"/><use xlink:href="#E310-STIXWEBMAINI-61" x="634" y="513" transform="scale(1.018)"/></g><g transform="translate(258 -1014)"><use xlink:href="#E310-STIXWEBMAINI-78" transform="scale(1.44)"/><use xlink:href="#E310-STIXWEBMAINI-62" x="634" y="408" transform="scale(1.018)"/></g><use xlink:href="#E310-STIXWEBMAIN-3D" x="1540" transform="scale(1.44)"/><g transform="translate(3605)"><use xlink:href="#E310-STIXWEBMAINI-78" transform="scale(1.44)"/><g transform="translate(645 594)"><use xlink:href="#E310-STIXWEBMAINI-61" transform="scale(1.018)"/><use xlink:href="#E310-STIXWEBMAIN-2212" x="501" transform="scale(1.018)"/><use xlink:href="#E310-STIXWEBMAINI-62" x="1187" transform="scale(1.018)"/></g></g></g><g id="laws_of_exp_3_formula" transform="scale(1 -1)"><use xlink:href="#E311-STIXWEBMAIN-28" transform="scale(1.44)"/><g transform="translate(480)"><use xlink:href="#E311-STIXWEBMAINI-78" transform="scale(1.44)"/><use xlink:href="#E311-STIXWEBMAINI-61" x="634" y="583" transform="scale(1.018)"/></g><g transform="translate(1780)"><use xlink:href="#E311-STIXWEBMAIN-29" transform="scale(1.44)"/><use xlink:href="#E311-STIXWEBMAINI-62" x="471" y="583" transform="scale(1.018)"/></g><use xlink:href="#E311-STIXWEBMAIN-3D" x="2301" transform="scale(1.44)"/><g transform="translate(4701)"><use xlink:href="#E311-STIXWEBMAINI-78" transform="scale(1.44)"/><g transform="translate(645 594)"><use xlink:href="#E311-STIXWEBMAINI-61" transform="scale(1.018)"/><use xlink:href="#E311-STIXWEBMAINI-62" x="501" transform="scale(1.018)"/></g></g></g><g id="laws_of_exp_4_formula" transform="scale(1 -1)"><use xlink:href="#E312-STIXWEBMAIN-28" transform="scale(1.44)"/><use xlink:href="#E312-STIXWEBMAINI-78" x="333" transform="scale(1.44)"/><use xlink:href="#E312-STIXWEBMAINI-79" x="780" transform="scale(1.44)"/><g transform="translate(1764)"><use xlink:href="#E312-STIXWEBMAIN-29" transform="scale(1.44)"/><use xlink:href="#E312-STIXWEBMAINI-61" x="471" y="583" transform="scale(1.018)"/></g><use xlink:href="#E312-STIXWEBMAIN-3D" x="2291" transform="scale(1.44)"/><g transform="translate(4686)"><use xlink:href="#E312-STIXWEBMAINI-78" transform="scale(1.44)"/><use xlink:href="#E312-STIXWEBMAINI-61" x="634" y="583" transform="scale(1.018)"/></g><g transform="translate(5987)"><use xlink:href="#E312-STIXWEBMAINI-79" transform="scale(1.44)"/><use xlink:href="#E312-STIXWEBMAINI-61" x="628" y="583" transform="scale(1.018)"/></g></g><g id="laws_of_exp_5_formula" transform="scale(1 -1)"><use xlink:href="#E313-STIXWEBSIZE3-28" y="-587" transform="scale(1.44)"/><g transform="translate(1252)"><path d="M0 316h817v86H0z"/><use xlink:href="#E313-STIXWEBMAINI-78" x="59" y="676" transform="scale(1.44)"/><use xlink:href="#E313-STIXWEBMAINI-79" x="61" y="-686" transform="scale(1.44)"/></g><use xlink:href="#E313-STIXWEBSIZE3-29" x="1558" y="-587" transform="scale(1.44)"/><use xlink:href="#E313-STIXWEBMAINI-61" x="-328" transform="translate(3324 1739) scale(1.018)"/><use xlink:href="#E313-STIXWEBMAIN-3D" x="2809" transform="scale(1.44)"/><path d="M5604 316h1639v86H5604z"/><g transform="translate(5690 974)"><use xlink:href="#E313-STIXWEBMAINI-78" transform="scale(1.44)"/><use xlink:href="#E313-STIXWEBMAINI-61" x="163" transform="translate(645 522) scale(1.018)"/></g><g transform="translate(5693 -988)"><use xlink:href="#E313-STIXWEBMAINI-79" transform="scale(1.44)"/><use xlink:href="#E313-STIXWEBMAINI-61" x="163" transform="translate(640 415) scale(1.018)"/></g></g><g id="laws_of_exp_6_formula" transform="scale(1 -1)"><use xlink:href="#E314-STIXWEBMAINI-78" transform="scale(1.44)"/><g transform="translate(645 594)"><use xlink:href="#E314-STIXWEBMAIN-2212" transform="scale(1.018)"/><use xlink:href="#E314-STIXWEBMAINI-61" x="685" transform="scale(1.018)"/></g><use xlink:href="#E314-STIXWEBMAIN-3D" x="1665" transform="scale(1.44)"/><g transform="translate(3957)"><path d="M0 316h1559v86H0z"/><use xlink:href="#E314-STIXWEBMAIN-31" x="291" y="676" transform="scale(1.44)"/><g transform="translate(86 -988)"><use xlink:href="#E314-STIXWEBMAINI-78" transform="scale(1.44)"/><use xlink:href="#E314-STIXWEBMAINI-61" x="84" transform="translate(645 415) scale(1.018)"/></g></g></g><g id="laws_of_exp_7_formula" transform="scale(1 -1)"><use xlink:href="#E315-STIXWEBMAINI-78" transform="scale(1.44)"/><use xlink:href="#E315-STIXWEBMAINI-61" x="84" transform="translate(645 594) scale(1.018)"/><use xlink:href="#E315-STIXWEBMAIN-3D" x="1240" transform="scale(1.44)"/><g transform="translate(3345)"><path d="M0 316h2171v86H0z"/><use xlink:href="#E315-STIXWEBMAIN-31" x="503" y="676" transform="scale(1.44)"/><g transform="translate(86 -988)"><use xlink:href="#E315-STIXWEBMAINI-78" transform="scale(1.44)"/><g transform="translate(645 415)"><use xlink:href="#E315-STIXWEBMAIN-2212" transform="scale(1.018)"/><use xlink:href="#E315-STIXWEBMAINI-61" x="685" transform="scale(1.018)"/></g></g></g></g><g id="laws_of_exp_8_formula" transform="scale(1 -1)"><use xlink:href="#E316-STIXWEBSIZE2-28" y="-394" transform="scale(1.44)"/><g transform="translate(1020)"><path d="M0 316h894v86H0z"/><use xlink:href="#E316-STIXWEBMAINI-61" x="59" y="676" transform="scale(1.44)"/><use xlink:href="#E316-STIXWEBMAINI-62" x="60" y="-686" transform="scale(1.44)"/></g><use xlink:href="#E316-STIXWEBSIZE2-29" x="1451" y="-394" transform="scale(1.44)"/><g transform="translate(2965 1296)"><use xlink:href="#E316-STIXWEBMAIN-2212" x="-164" transform="scale(1.018)"/><use xlink:href="#E316-STIXWEBMAIN-31" x="521" transform="scale(1.018)"/></g><use xlink:href="#E316-STIXWEBMAIN-3D" x="3044" transform="scale(1.44)"/><g transform="translate(5943)"><path d="M0 316h894v86H0z"/><use xlink:href="#E316-STIXWEBMAINI-62" x="60" y="676" transform="scale(1.44)"/><use xlink:href="#E316-STIXWEBMAINI-61" x="59" y="-686" transform="scale(1.44)"/></g></g><g id="laws_of_exp_9_formula" transform="scale(1 -1)"><use xlink:href="#E317-STIXWEBMAINI-78" transform="scale(1.44)"/><use xlink:href="#E317-STIXWEBMAIN-30" x="634" y="583" transform="scale(1.018)"/><use xlink:href="#E317-STIXWEBMAIN-3D" x="1180" transform="scale(1.44)"/><use xlink:href="#E317-STIXWEBMAIN-31" x="2143" transform="scale(1.44)"/></g><g id="1st_law_yellow_sign"><path d="M-7.759-5.756H7.759V5.756H-7.759Z" style="fill:#fff6d5;stroke:#000;stroke-miterlimit:5.8;stroke-width:.7"/><path d="M-4.144-.87h-.279l1.897-2.286v5.478h.817v.175h-2.396v-.175h.762V-1.83ZM.15 2.575a2.06 2.06 0 0 1-1.008-.262c-.317-.18-.476-.429-.476-.746 0-.085.021-.164.063-.238.043-.074.095-.111.159-.111.069 0 .122.02.159.063a.194.194 0 0 1 .055.127c0 .043-.026.103-.079.183-.053.074-.08.135-.08.182 0 .164.14.182.421.314.28.133.548.147.802.147.26 0 .508-.033.746-.202.244-.17.365-.253.365-.513 0-.238-.132-.404-.397-.5C.711.95.423.884.015.821-.392.752-.71.641-.937.487c-.228-.153-.342-.391-.342-.714a.86.86 0 0 1 .151-.508c.1-.143.23-.251.39-.325.311-.143.618-.215.92-.215.307 0 .577.053.81.16.238.105.394.237.468.396a.5.5 0 0 1 .047.19c0 .127-.066.191-.198.191-.143 0-.217-.087-.222-.262-.01-.196-.088-.213-.23-.287C.677-.962.449-.972.174-.972c-.27 0-.519.04-.746.172-.228.127-.329.213-.342.375-.02.242.22.38.66.412.438.027.846.104 1.222.23.19.064.346.186.468.366.127.174.19.389.19.643 0 .248-.045.46-.134.635a1.09 1.09 0 0 1-.358.412 1.715 1.715 0 0 1-.984.302Zm1.727-3.596v-.157h.73v-1.09h.794v1.09h.833v.158h-.833v2.452q0 .984.428.984.167 0 .31-.103.143-.111.222-.214.08-.111.111-.111.032 0 .032.04 0 .031-.024.079-.238.468-.873.468-.508 0-.754-.389t-.246-1.04v-2.167Z" style="fill:#000;stroke:#000;stroke-miterlimit:4;stroke-width:.05"/></g><g id="2nd_law_yellow_sign"><path d="M-10.504-5.755h21.01V5.757h-21.01Z" style="fill:#fff6d5;fill-opacity:1;stroke:#000;stroke-miterlimit:5.80000019;stroke-width:.69999995"/><path d="M-6.266 2.098q.342-.444.873-.444.254 0 .802.143.556.143.897.143.341 0 .572-.167.238-.175.238-.437 0-.27-.143-.405-.135-.142-.35-.142-.206 0-.325.103-.111.095-.111.222 0 .12.032.175.04.055.04.063 0 .048-.056.048t-.111-.072q-.049-.079-.049-.23 0-.159.159-.301.167-.151.444-.151.278 0 .445.182.167.183.167.492 0 .5-.381.874-.381.365-.929.365-.206 0-.786-.135-.571-.135-.929-.135-.357 0-.619.198-.031-.15-.031-.365 0-.214.15-.492.151-.278.39-.508.245-.238.531-.476.294-.246.587-.5.294-.262.532-.54.548-.611.548-1.357 0-.485-.262-.85t-.833-.365q-.564 0-.93.381-.356.381-.356.897 0 .341.166.548.175.198.437.198t.389-.127q.127-.135.127-.293 0-.16-.111-.278-.111-.127-.111-.151 0-.056.087-.056.095 0 .198.151.104.143.104.341 0 .191-.183.366-.175.174-.5.174-.318 0-.54-.23-.214-.238-.214-.65 0-.612.46-1.017.469-.413 1.19-.413.731 0 1.192.39.46.388.46.952 0 .405-.254.817-.246.405-.62.73-.372.318-.809.652-.428.333-.802.603-.373.262-.627.555-.246.286-.246.524ZM-.924-.013q0 .19.095.373.103.175.278.175.182 0 .278-.04.103-.048.119-.048.047 0 .047.064 0 .063-.095.127-.087.055-.326.055-.23 0-.38-.19-.151-.19-.175-.42v2.396h-.786v-3.674h.786v1.16q.032-.501.492-.866.46-.373.96-.373.524 0 .77.365.254.357.254 1.532V2.48H.6V.83Q.6-.107.496-.568q-.095-.46-.373-.46-.349 0-.698.325-.35.326-.35.69Zm5.748 2.492v-.452q-.69.532-1.238.532-.453 0-.913-.381-.238-.199-.389-.604-.15-.404-.15-.944 0-.905.42-1.405.429-.5 1.15-.5.406 0 .723.182.318.183.397.508v-2.889h.794v5.953ZM2.927.733q0 .699.278 1.151.286.444.643.444.357 0 .976-.5V-.188q-.056.238-.23.381-.167.143-.254.143-.064 0-.064-.08 0-.039.143-.134.27-.19.27-.484 0-.302-.294-.524-.285-.23-.595-.23-.873 0-.873 1.85Z" style="stroke:#000;stroke-miterlimit:4;stroke-width:.05"/></g><g id="3rd_law_yellow_sign"><path d="M-9.797-5.756H9.799V5.756H-9.797Z" style="fill:#fff6d5;stroke:#000;stroke-miterlimit:5.80000019;stroke-width:.69999995"/><path d="M-4.581-.49q.366-.023.708-.357.349-.333.349-.92 0-.596-.269-.834-.27-.246-.661-.246-.38 0-.673.23-.294.23-.294.548 0 .206.102.333.112.127.279.127.167 0 .269-.063.112-.064.16-.127.047-.072.063-.072.048 0 .048.064 0 .143-.19.238-.183.087-.39.087-.198 0-.357-.166-.15-.167-.15-.413 0-.437.364-.69.374-.255.93-.255.563 0 1.031.342.476.333.476.905 0 .42-.349.777-.341.35-.945.524.778.048 1.199.477.42.428.42 1.055 0 .62-.5 1.112-.491.492-1.34.492-.675 0-1.08-.31t-.405-.825q0-.373.214-.604.215-.23.548-.23.333 0 .54.167.206.167.206.38 0 .215-.087.342-.08.127-.175.127-.095 0-.095-.055 0-.016.095-.096.103-.079.103-.27 0-.19-.15-.317-.151-.127-.43-.127-.269 0-.444.19-.174.183-.174.564 0 .373.317.635.318.262.865.262.548 0 .858-.397.317-.397.317-.984 0-.595-.341-1.04-.341-.444-.945-.444 0 .015-.15.04-.151.015-.23.015-.191 0-.191-.119 0-.127.198-.127.103 0 .222.032.12.024.135.024Zm5.604-.285q0 .087-.071.135-.064.047-.167.047-.103 0-.167-.055Q.555-.712.531-.783.515-.855.436-.91.356-.974.214-.974q-.35 0-.651.508-.302.508-.35 1.151v1.913h-.793v-3.675h.793v.937q.19-.46.493-.762.31-.31.619-.31.31 0 .5.111.198.104.198.326Zm2.849 3.373v-.452q-.691.532-1.238.532-.453 0-.913-.381-.238-.199-.389-.604-.15-.404-.15-.944 0-.905.42-1.405.428-.5 1.151-.5.405 0 .723.182.317.183.396.508v-2.889h.794v5.953ZM1.975.852q0 .699.278 1.151.286.444.643.444.357 0 .976-.5V-.069q-.055.238-.23.381-.166.143-.255.143-.062 0-.062-.08 0-.039.143-.134.27-.19.27-.484 0-.302-.294-.524-.287-.23-.596-.23-.874 0-.874 1.849Z" style="stroke:#000;stroke-miterlimit:6.25;stroke-width:.05"/></g><g id="4th_law_yellow_sign"><path d="M-9.027-5.755H9.027V5.757H-9.027Z" style="fill:#fff6d5;fill-opacity:1;stroke:#000;stroke-miterlimit:5.80000019;stroke-width:.69999995"/><path d="M-2.593 2.23h.809v.174H-4.18V2.23h.762V.658h-2.159V.499L-2.6-3.255V.499h.73v.16h-.723ZM-3.418.5v-2.43L-5.355.5Zm1.831-1.612v-.159h.73v-1.087h.795v1.087h.833v.16h-.833v2.452q0 .984.429.984.167 0 .31-.103.143-.111.222-.214.08-.112.111-.112.032 0 .032.04 0 .032-.024.08-.238.468-.873.468-.508 0-.755-.39-.245-.388-.245-1.039v-2.167ZM2.534-.088q0 .19.094.373.104.175.278.175.182 0 .277-.04.104-.048.12-.048.048 0 .048.064 0 .063-.095.127-.088.055-.326.055-.23 0-.38-.19-.151-.19-.175-.42v2.396h-.787v-5.953h.787v3.437q.03-.5.492-.865.46-.373.96-.373.524 0 .77.365.254.357.254 1.532v1.857h-.794V.754q0-.937-.103-1.398-.095-.46-.373-.46-.349 0-.698.325-.351.326-.351.691Z" style="fill:#000;stroke:#000;stroke-miterlimit:5.8;stroke-width:.05"/></g><g id="5th_law_yellow_sign"><path d="M-9.377-5.877H9.377V5.879H-9.377Z" style="fill:#fff6d5;fill-opacity:1;stroke:#000;stroke-miterlimit:5.8;stroke-width:.700087"/><path d="m-5.003.189-.087-.18v-2.867c.152.176.327.265.524.265.199 0 .47-.056.81-.166.343-.115.597-.173.761-.173.259 0 .46.08.604.24.148.16.222.33.222.512a.666.666 0 0 1-.159.454c-.106.121-.22.182-.341.182a.47.47 0 0 1-.294-.091c-.074-.06-.111-.121-.111-.182 0-.06.013-.09.04-.09.026 0 .045.019.055.057.032.116.126.174.286.174.09 0 .177-.036.262-.108a.342.342 0 0 0 .127-.256c0-.237-.143-.355-.429-.355-.18 0-.444.058-.794.173-.35.11-.6.166-.754.166-.28 0-.479-.1-.632-.375v2.228c.333-.402.762-.565 1.322-.565.561 0 .992.163 1.295.488.306.325.459.721.459 1.19 0 .5-.177.966-.532 1.395a1.8 1.8 0 0 1-.649.496c-.266.121-.54.182-.827.182-.285 0-.536-.033-.753-.1a1.312 1.312 0 0 1-.572-.371c-.165-.182-.247-.419-.247-.71 0-.292.085-.524.255-.694.17-.177.354-.265.556-.265.201 0 .364.058.492.174.132.11.199.24.199.388 0 .149-.027.27-.08.363-.053.094-.114.14-.183.14-.064 0-.096-.024-.096-.073 0-.011.032-.039.096-.083.069-.05.103-.14.103-.273 0-.137-.05-.14-.151-.227a.568.568 0 0 0-.388-.132c-.154 0-.303.077-.445.23-.143.15-.215.234-.215.476 0 .237.074.232.223.392.25.258.597.388 1.048.388.449 0 .835-.193 1.083-.578.249-.386.337-.6.337-1.053 0-.451-.105-.711-.317-1.008a.996.996 0 0 0-.874-.455c-.538.099-.957.339-1.23.677Zm3.47-.918v-.159h.73v-1.087h.793v1.087h.834v.16H-.01v2.452q0 .984.43.984.167 0 .309-.103.143-.111.223-.214.08-.111.11-.111.033 0 .033.04 0 .031-.024.079-.238.468-.874.468-.508 0-.754-.389t-.246-1.04V-.729ZM2.587.295q0 .19.094.373.103.175.278.175.182 0 .277-.04.104-.047.12-.047.047 0 .047.063 0 .064-.095.127-.088.056-.326.056-.23 0-.38-.19Q2.451.621 2.427.39v2.398h-.786v-5.955h.786V.27q.031-.5.492-.865.46-.373.96-.373.524 0 .77.365.254.357.254 1.532v1.858h-.794V1.136q0-.937-.103-1.397-.095-.46-.373-.46-.349 0-.698.325-.35.325-.35.69Z" style="fill:#000;stroke:#000;stroke-miterlimit:5.5;stroke-width:.05"/></g><g id="laws_of_reciprocality_yellow_sign"><path d="M-65.998-5.755H65.998V5.757H-65.998Z" style="fill:#fff6d5;stroke:#000;stroke-miterlimit:5.80000019;stroke-width:.69999997"/><path d="M-37.088-1.227q.103 0 .12-.151.007-.15.023-.373.016-.23.119-.341.095-.12.135-.175.103-.127.103-.286 0-.166-.135-.341-.143-.183-.365-.183-.571 0-.571.691 0 .373.214.77.206.389.357.389Zm-1.746 0q.103 0 .119-.151.008-.15.024-.373.016-.23.119-.341.095-.12.135-.175.103-.127.103-.286 0-.166-.135-.341-.143-.183-.365-.183-.572 0-.572.691 0 .373.215.77.206.389.357.389Z" style="stroke-miterlimit:6.25;stroke-width:.5"/><path d="M-35.098 2.226v-5.27h.794v5.722q0 .659.595.683.04 0 .064.031.032.032.032.08 0 .047-.032.047-.27 0-.492-.11-.222-.112-.342-.23-.119-.112-.31-.35-.19-.238-.325-.381-.134-.143-.285-.19-.143-.056-.326-.064-.182-.016-.182-.08 0-.087.238-.087.246 0 .571.199Z" style="stroke:#000;stroke-miterlimit:6.01316;stroke-width:.05"/><path d="M-31.969 2.56c-.38 0-.72-.106-1.016-.318-.29-.217-.436-.516-.436-.897 0-.222.053-.415.158-.58.112-.163.252-.285.421-.364.312-.16.617-.239.913-.239.296 0 .632.08 1.008.239-.005-.614-.082-.911-.23-1.112-.143-.207-.365-.31-.667-.31-.302 0-.563.056-.786.167-.217.111-.325.149-.325.334 0 .063-.03.095-.087.095-.053 0-.08-.03-.08-.087 0-.223.122-.405.365-.548.249-.148.614-.222 1.096-.222 1.005 0 1.508.592 1.508 1.778V2.48h-.794v-.627a.76.76 0 0 1-.357.508 1.228 1.228 0 0 1-.69.198Zm.699-1.485a.82.82 0 0 1 .35.548V.636c-.382-.154-.694-.23-.938-.23-.238 0-.426.1-.563.301a.995.995 0 0 0-.207.646c0 .291.056.54.167.746.117.201.289.228.516.228.233 0 .437-.058.611-.175.175-.121.262-.19.262-.354 0-.286-.095-.482-.286-.588-.079-.047-.119-.092-.119-.135 0-.042.019-.063.056-.063.037 0 .087.02.15.063Zm6.311-1.81.024.239c0 .042-.019.063-.056.063-.09 0-.135-.114-.135-.341a.48.48 0 0 1 .151-.334c.1-.105.23-.158.389-.158.391 0 .587.338.587 1.016 0 .598-.09 1.188-.27 1.77-.095.307-.24.558-.436.754a.888.888 0 0 1-.643.286.974.974 0 0 1-.953-.722 7.74 7.74 0 0 1-.325.42c-.185.201-.392.302-.62.302-.221 0-.407-.037-.555-.112a.743.743 0 0 1-.317-.333c-.122-.26-.183-.598-.183-1.016l.04-1.15c0-.308-.04-.543-.12-.707-.073-.17-.216-.254-.428-.254-.249 0-.413.116-.492.349a1.64 1.64 0 0 0-.103.54c0 .164.034.304.103.42.069.117.188.175.357.175a.46.46 0 0 0 .222-.056.87.87 0 0 1 .112-.055c.037 0 .055.031.055.095 0 .058-.053.103-.159.135-.1.026-.195.04-.285.04a.486.486 0 0 1-.413-.223.845.845 0 0 1-.15-.484c0-.333.094-.619.285-.857.19-.244.484-.365.88-.365.234 0 .416.071.549.214a.984.984 0 0 1 .262.516c.042.196.063.44.063.73l-.048 1.358c0 .285.03.505.088.658.058.149.172.223.341.223.175 0 .341-.133.5-.397a1.83 1.83 0 0 0 .254-.881c.016-.556.024-.86.024-.913V.09h.746l-.024 1.128c0 .37.024.661.072.873.053.206.153.31.301.31.223 0 .134-.143.309-.429.174-.291.304-.63.389-1.016a5.48 5.48 0 0 0 .127-1.15c0-.61.128-.914-.19-.914a.331.331 0 0 0-.23.096c-.063.063-.095.156-.095.277Z" style="fill:#000;stroke:#000;stroke-miterlimit:6.01316;stroke-width:.05"/><path d="M-21.891 2.559q-.532 0-1.008-.262-.476-.27-.476-.746 0-.127.063-.238.064-.111.159-.111.103 0 .159.063.055.064.055.127 0 .064-.08.183-.079.11-.079.182 0 .246.421.445.42.198.802.198.389 0 .746-.254.365-.254.365-.643 0-.357-.397-.5-.254-.103-.865-.198-.611-.103-.952-.334-.342-.23-.342-.714 0-.294.151-.508.15-.214.389-.325.468-.215.92-.215.461 0 .81.16.358.158.469.396.047.111.047.19 0 .19-.198.19-.215 0-.222-.261-.016-.294-.23-.405-.27-.11-.683-.11-.405 0-.746.198-.342.19-.342.492 0 .365.66.412.658.04 1.222.23.285.096.468.366.19.262.19.643 0 .373-.135.635t-.357.412q-.444.302-.984.302Z" style="stroke:#000;stroke-miterlimit:6.01316;stroke-width:.05"/><path d="M-18.309.646c0-.54.185-.992.555-1.357.376-.365.855-.548 1.437-.548.587 0 1.064.172 1.429.516.365.344.548.796.548 1.357a2 2 0 0 1-.191.89 1.577 1.577 0 0 1-.492.595c-.413.28-.844.42-1.294.42-.44 0-.868-.145-1.286-.436a1.627 1.627 0 0 1-.508-.588 1.81 1.81 0 0 1-.198-.849Zm2.262-.508-.23-.048c-.1 0-.188.045-.262.135a.475.475 0 0 0-.103.31c0 .116.053.14.158.257.106.116.254.175.445.175.196 0 .386-.093.571-.278.19-.19.286-.366.286-.71s-.111-.608-.333-.793c-.217-.19-.492-.286-.826-.286-.211 0-.394.042-.547.127a.925.925 0 0 0-.35.294c-.08.116-.14.264-.182.444a3.972 3.972 0 0 0-.095.92c0 1.117.407 1.676 1.222 1.676.482 0 .799-.183.952-.548.133-.312.199-.717.199-1.215-.048.138-.159.276-.333.413a.872.872 0 0 1-.564.207.783.783 0 0 1-.54-.207.65.65 0 0 1-.222-.476c0-.175.048-.318.143-.429a.493.493 0 0 1 .405-.174c.18 0 .27.05.27.15 0 .038-.022.056-.064.056Z" style="fill:#000;stroke:#000;stroke-miterlimit:6.01316;stroke-width:.05"/><path d="M-12.483-.703V2.48h-.794V-.703h-.801v-.159h.801v-.77c0-.582.172-1.035.516-1.357.35-.323.71-.484 1.08-.484a.97.97 0 0 1 .635.222.7.7 0 0 1 .278.571c0 .233-.072.413-.215.54a.688.688 0 0 1-.468.183.714.714 0 0 1-.437-.135c-.116-.096-.174-.204-.174-.326a.79.79 0 0 1 .055-.317c.043-.085.09-.127.143-.127.053 0 .08.018.08.055 0 .016-.022.05-.064.103a.3.3 0 0 0-.07.21c0 .112.116.204.165.235a.618.618 0 0 0 .334.095.509.509 0 0 0 .369-.15c.1-.11.123-.207.123-.382 0-.18-.08-.295-.238-.412a.86.86 0 0 0-.548-.164c-.296 0-.5.148-.611.445-.106.29-.159.724-.159 1.401v.564h.794v.159Zm5.755-.191q0 .087-.072.135-.063.048-.166.048-.103 0-.167-.056-.063-.063-.087-.135-.016-.071-.095-.127-.08-.063-.223-.063-.349 0-.65.508-.302.508-.35 1.15V2.48h-.794v-3.675h.794v.936q.19-.46.492-.762.31-.31.62-.31.309 0 .5.112.198.103.198.325Zm1.335 3.096q.11.08.278.135.174.055.42.055t.524-.11q.278-.12.39-.35h.23q-.31.627-1.302.627-.762 0-1.294-.54-.524-.547-.524-1.365 0-.825.556-1.373.555-.556 1.206-.556.659 0 1.032.365.38.358.38.85t-.404.873q-.405.38-1.064.38-.658 0-.92-.563.008.056.016.238l.023.286q.008.103.04.286.04.182.08.294.047.11.134.254.088.134.199.214ZM-4.179-.1q0-1.024-.778-1.024-.38 0-.627.373-.238.365-.27.89.096-.223.286-.358.199-.135.405-.135.214 0 .214.08 0 .07-.095.07-.365.025-.54.183-.166.16-.166.429 0 .27.19.46.199.183.46.183.43 0 .675-.341.246-.35.246-.81ZM-.12 1.693h.23a1.646 1.646 0 0 1-.524.612c-.227.17-.513.254-.857.254-.545 0-.966-.193-1.262-.58-.296-.386-.444-.849-.444-1.388 0-.54.185-.985.555-1.334.37-.355.789-.532 1.254-.532.328 0 .622.098.881.294.26.196.39.481.39.783A.75.75 0 0 1-.08.318a.599.599 0 0 1-.46.198.853.853 0 0 1-.485-.143c-.137-.1-.206-.222-.206-.365 0-.148.026-.264.08-.349.073-.116.142-.175.206-.175.068 0 .103.022.103.064 0 .026-.013.048-.04.063-.127.085-.19.19-.19.318 0 .127.05.23.15.31A.558.558 0 0 0-.223.231c.111-.085.167-.233.167-.445 0-.217-.106-.36-.318-.54a1.058 1.058 0 0 0-.73-.278c-.36 0-.63.117-.81.424-.18.301-.27.664-.27 1.199 0 .529.085.963.254 1.301.17.334.429.5.778.5.212 0 .416-.071.611-.214.196-.143.336-.304.421-.484Zm1.783-2.88v3.675H.869v-3.675Zm-.698-.747q-.12-.127-.12-.301 0-.175.12-.294.127-.127.301-.127.175 0 .294.127.127.12.127.294t-.127.301q-.12.12-.294.12t-.301-.12Zm2.512.739v.452q.706-.524 1.238-.524.468 0 .913.381.238.199.389.603.15.397.15.937 0 .905-.428 1.405-.42.5-1.143.5-.444 0-.762-.175-.31-.182-.357-.531v2.611h-.794v-5.66ZM5.374.551q0-.699-.286-1.16-.278-.467-.635-.467t-.976.516v2.174q.024-.198.135-.349.19-.262.365-.262.063 0 .063.08 0 .04-.142.135-.27.19-.27.492 0 .293.277.492.286.198.596.198.873 0 .873-1.85ZM9.55-.894q0 .087-.071.135-.064.048-.167.048-.103 0-.167-.056-.063-.063-.087-.135-.016-.071-.095-.127-.08-.063-.223-.063-.349 0-.65.508-.302.508-.35 1.15V2.48h-.793v-3.675h.793v.936q.19-.46.492-.762.31-.31.62-.31t.5.112q.198.103.198.325Zm.057 1.54c0-.54.185-.992.556-1.357.375-.365.854-.548 1.436-.548.588 0 1.064.172 1.429.516.365.344.548.796.548 1.357 0 .334-.064.63-.19.89a1.577 1.577 0 0 1-.493.595c-.413.28-.844.42-1.294.42-.439 0-.868-.145-1.286-.436a1.627 1.627 0 0 1-.508-.588 1.81 1.81 0 0 1-.198-.849Zm2.262-.508-.23-.048c-.1 0-.188.045-.262.135a.475.475 0 0 0-.103.31c0 .116.053.14.159.257.105.116.254.175.444.175.196 0 .386-.093.572-.278.19-.19.285-.366.285-.71s-.11-.608-.333-.793c-.217-.19-.492-.286-.826-.286-.211 0-.394.042-.547.127a.925.925 0 0 0-.35.294c-.079.116-.14.264-.182.444a3.972 3.972 0 0 0-.095.92c0 1.117.407 1.676 1.222 1.676.482 0 .8-.183.953-.548.132-.312.198-.717.198-1.215-.048.138-.159.276-.333.413a.872.872 0 0 1-.564.207.783.783 0 0 1-.54-.207.65.65 0 0 1-.222-.476c0-.175.048-.318.143-.429a.493.493 0 0 1 .405-.174c.18 0 .27.05.27.15 0 .038-.022.056-.064.056Zm5.076 1.555h.23a1.646 1.646 0 0 1-.524.612c-.227.17-.513.254-.857.254-.545 0-.966-.193-1.262-.58-.297-.386-.445-.849-.445-1.388 0-.54.186-.985.556-1.334.37-.355.788-.532 1.254-.532.328 0 .622.098.881.294.26.196.39.481.39.783a.75.75 0 0 1-.184.516.599.599 0 0 1-.46.198.853.853 0 0 1-.484-.143c-.138-.1-.206-.222-.206-.365 0-.148.026-.264.079-.349.074-.116.143-.175.206-.175.07 0 .104.022.104.064 0 .026-.014.048-.04.063-.127.085-.19.19-.19.318 0 .127.05.23.15.31a.558.558 0 0 0 .699-.008c.11-.085.166-.233.166-.445 0-.217-.106-.36-.317-.54a1.058 1.058 0 0 0-.73-.278c-.36 0-.63.117-.81.424-.18.301-.27.664-.27 1.199 0 .529.085.963.254 1.301.17.334.429.482.778.482a1 1 0 0 0 .611-.196c.196-.143.336-.304.42-.484Z" style="stroke:#000;stroke-miterlimit:6.01316;stroke-width:.05"/><path d="M19.062 2.565c-.381 0-.72-.106-1.016-.317-.291-.217-.437-.516-.437-.897 0-.223.053-.416.16-.58.11-.164.25-.286.42-.365.312-.159.616-.238.913-.238.296 0 .632.08 1.008.238-.005-.614-.082-.91-.23-1.112-.143-.206-.366-.31-.667-.31-.302 0-.564.056-.786.168-.217.11-.326.148-.326.333 0 .064-.029.096-.087.096-.053 0-.08-.03-.08-.088 0-.222.123-.405.366-.547.249-.149.614-.223 1.095-.223 1.006 0 1.508.593 1.508 1.778v1.985h-.793v-.627c-.037.206-.156.375-.358.508a1.228 1.228 0 0 1-.69.198Zm.698-1.484a.82.82 0 0 1 .35.547V.641c-.381-.153-.694-.23-.937-.23-.238 0-.426.1-.564.302a.995.995 0 0 0-.206.646c0 .29.056.54.167.746.116.2.288.228.516.228.233 0 .436-.059.61-.175.176-.122.263-.19.263-.355 0-.286-.095-.481-.286-.587-.08-.048-.119-.093-.119-.135 0-.042.019-.064.056-.064.037 0 .087.022.15.064Z" style="fill:#000;stroke:#000;stroke-miterlimit:4;stroke-width:.05"/><path d="M22.201 2.226v-5.27h.794v5.722q0 .659.595.683.04 0 .064.031.032.032.032.08 0 .047-.032.047-.27 0-.492-.11-.223-.112-.342-.23-.119-.112-.31-.35-.19-.238-.325-.381-.135-.143-.285-.19-.143-.056-.326-.064-.182-.016-.182-.08 0-.087.238-.087.246 0 .571.199Zm2.794-3.413v3.675h-.794v-3.675Zm-.699-.747q-.119-.127-.119-.301 0-.175.12-.294.126-.127.301-.127t.294.127q.127.12.127.294t-.127.301q-.12.12-.294.12-.175 0-.302-.12Zm1.211.897v-.158h.73v-1.088h.794v1.088h.833v.158h-.833v2.453q0 .984.429.984.166 0 .31-.103.142-.111.221-.214.08-.111.112-.111.031 0 .031.04 0 .031-.024.079-.238.468-.873.468-.508 0-.754-.389t-.246-1.04v-2.167Zm4.231 2.977a1.44 1.44 0 0 1-.214-.564 8.356 8.356 0 0 1-.04-.952c0-.429-.023-.789-.071-1.08-.042-.296-.154-.444-.333-.444a.619.619 0 0 0-.524.254.833.833 0 0 0-.183.5c0 .402.154.603.46.603a.46.46 0 0 0 .223-.055.87.87 0 0 1 .11-.056c.038 0 .056.032.056.095 0 .058-.052.103-.158.135a1.1 1.1 0 0 1-.286.04.484.484 0 0 1-.405-.215.828.828 0 0 1-.159-.492.9.9 0 0 1 .302-.706c.201-.185.471-.278.81-.278.169 0 .312.048.428.143a.88.88 0 0 1 .27.341c.064.127.114.297.15.508.043.27.064.656.064 1.16 0 .502.04.872.12 1.11.079.239.261.32.547.32.476 0 .68-.185.983-.63.306-.449.408-.968.408-1.555 0-.36-.014-.656-.147-.889-.127-.233-.325-.284-.595-.284-.185 0-.125.027-.242.16a.58.58 0 0 0-.161.418c0 .164-.002.296.072.397a.37.37 0 0 0 .293.143.622.622 0 0 0 .175-.032.95.95 0 0 1 .127-.032c.042 0 .064.024.064.071 0 .09-.082.14-.247.151h-.087a.547.547 0 0 1-.444-.19c-.1-.133-.151-.31-.151-.532 0-.222.08-.405.238-.548a.808.808 0 0 1 .571-.222c.223 0 .397.05.524.15.127.101.22.247.278.437.1.328.15.75.15 1.262v2.533c0 .428-.16.796-.483 1.029-.323.238-.707.357-1.151.357-.445 0-.82-.103-1.127-.31a1.011 1.011 0 0 1-.453-.87c0-.196.032-.336.095-.42a.107.107 0 0 1 .096-.048c.042 0 .063.026.063.079a.418.418 0 0 1-.047.12.595.595 0 0 0-.048.261c0 .27.124.445.373.635.249.196.524.294.826.294a.956.956 0 0 0 .754-.35c.206-.232.31-.45.31-.762v-.96c-.287.222-.644.37-1.117.37-.474 0-.844-.224-1.067-.6Z" style="stroke:#000;stroke-miterlimit:6.01316;stroke-width:.05"/><path d="M34.042-1.227q-.104 0-.12-.151-.007-.15-.023-.373-.016-.23-.12-.341-.095-.12-.134-.175-.103-.127-.103-.286 0-.166.135-.341.142-.183.365-.183.571 0 .571.691 0 .373-.214.77-.207.389-.357.389Zm1.746 0q-.103 0-.12-.151-.007-.15-.023-.373-.016-.23-.119-.341-.095-.12-.135-.175-.103-.127-.103-.286 0-.166.135-.341.143-.183.365-.183.571 0 .571.691 0 .373-.214.77-.206.389-.357.389Z" style="stroke-miterlimit:6.25;stroke-width:.5"/><path d="M-59.918-3.109-63.152.127l3.235 3.235M-43.345.127h-19.807M57.745-3.109 60.979.127l-3.235 3.235M41.077.127h19.902" style="fill:none;stroke:#000;stroke-miterlimit:5.80000019;stroke-width:.59999998"/></g><g id="0th_law_yellow_sign"><path d="M-12.964-5.756h25.928V5.756h-25.928Z" style="fill:#fff6d5;stroke:#000;stroke-miterlimit:5.80000019;stroke-width:.69999997"/><path d="M-5.167-2.038q.238-.428.651-.682.413-.254.945-.254.54 0 .928.246.39.246.604.674.412.818.412 1.961 0 .762-.182 1.333-.175.564-.468.874-.58.595-1.39.595-.81 0-1.396-.69-.58-.7-.58-1.937 0-1.247.476-2.12Zm.318 2.167q0 .992.357 1.707.365.706.856.706.492 0 .85-.714.357-.722.357-1.762 0-.73-.095-1.167-.032.317-.246.516-.215.19-.485.19t-.484-.174q-.214-.183-.214-.429 0-.254.111-.38.119-.136.198-.136.08 0 .08.048 0 .024-.12.135-.118.103-.118.293 0 .183.158.334.167.15.421.15.262 0 .405-.261.15-.27.15-.723 0-.46-.27-.865-.261-.413-.634-.413t-.627.302q-.254.294-.39.754-.261.897-.261 1.89Zm3.646-1.016v-.159h.73v-1.087h.794v1.087h.833v.16H.321v2.452q0 .984.428.984.167 0 .31-.103.143-.111.222-.214.08-.111.111-.111.032 0 .032.04 0 .031-.024.079-.238.468-.873.468-.508 0-.754-.389t-.246-1.04V-.887ZM2.916.137q0 .19.095.373.103.175.278.175.183 0 .278-.04.103-.047.119-.047.047 0 .047.063 0 .064-.095.127-.087.056-.325.056-.23 0-.381-.19-.151-.191-.175-.422V2.63h-.786v-5.954h.786V.113q.032-.5.492-.865.46-.373.96-.373.525 0 .77.365.255.357.255 1.532V2.63H4.44V.979q0-.937-.103-1.397-.096-.46-.374-.46-.35 0-.699.325-.35.325-.35.69Z" style="fill:#000;stroke:#000;stroke-miterlimit:5.8;stroke-width:.05"/><path d="M-6.89-1.173q.104 0 .12-.15.007-.151.023-.373.016-.23.12-.342.095-.119.134-.174.103-.127.103-.286 0-.167-.134-.341-.143-.183-.366-.183-.571 0-.571.69 0 .374.214.77.207.39.357.39Zm-1.746 0q.103 0 .12-.15.007-.151.023-.373.016-.23.12-.342.094-.119.134-.174.103-.127.103-.286 0-.167-.135-.341-.143-.183-.365-.183-.571 0-.571.69 0 .374.214.77.206.39.357.39Zm15.131.029q-.104 0-.12-.15-.008-.151-.023-.373-.016-.23-.12-.342-.095-.119-.134-.174-.104-.127-.104-.286 0-.167.134-.341.143-.183.366-.183.572 0 .572.69 0 .374-.214.77-.207.39-.357.39Zm1.746 0q-.104 0-.121-.15-.007-.151-.022-.373-.016-.23-.121-.342-.094-.119-.134-.174-.103-.127-.103-.286 0-.167.135-.341.143-.183.365-.183.571 0 .571.69 0 .374-.213.77-.206.39-.357.39Z" style="stroke-miterlimit:6.25;stroke-width:.5"/></g><use xlink:href="#flower2" id="flower2_0_9" transform="scale(.9)"/></defs><use xlink:href="#flower2_0_9" x="19.436" y=".754"/><use xlink:href="#flower2_0_9" x="2.722" y="19.166"/><use xlink:href="#flower2_0_9" x="-3.86" y="-5.514"/><use xlink:href="#flower2_0_9" x="36.822" y="5.498"/><use xlink:href="#flower2_0_9" x="79.806" y="-2.663"/><use xlink:href="#flower2_0_9" x="57.039" y="-5.671"/><use xlink:href="#flower2_0_9" x="127.998" y="-6.468"/><use xlink:href="#flower2_0_9" x="106.88" y="-2.524"/><use xlink:href="#flower2_0_9" x="145.135" y="6.193"/><use xlink:href="#flower2_0_9" x="185.319" y="-4.975"/><use xlink:href="#flower2_0_9" x="166.582" y="5.536"/><use xlink:href="#flower2_0_9" x="205.367" y="19.444"/><use xlink:href="#flower2_0_9" x="194.239" y="1.554"/><use xlink:href="#flower2_0_9" x="228.04" y="12.795"/><use xlink:href="#flower2_0_9" x="216.887" y="-5.959"/><use xlink:href="#flower2_0_9" x="352.083" y="-5.032"/><use xlink:href="#flower2_0_9" x="286.263" y="5.909"/><use xlink:href="#flower2_0_9" x="382.436" y="-5.944"/><use xlink:href="#flower2_0_9" x="306.697" y="-5.922"/><use xlink:href="#flower2_0_9" x="328.383" y="4.968"/><use xlink:href="#flower2_0_9" x="262.666" y="5.522"/><use xlink:href="#flower2_0_9" x="240.201" y="-1.871"/><use xlink:href="#flower2_0_9" x="428.437" y="-4.824"/><use xlink:href="#flower2_0_9" x="405.444" y="-5.836"/><use xlink:href="#flower2_0_9" x="393.827" y="12.627"/><use xlink:href="#flower2_0_9" x="418.634" y="15.354"/><use xlink:href="#flower2_0_9" x="462.736" y=".815"/><use xlink:href="#flower2_0_9" x="437.77" y="5.796"/><use xlink:href="#flower2_0_9" x="489.092" y="-3.594"/><use xlink:href="#flower2_0_9" x="576.336" y="-5.723"/><use xlink:href="#flower2_0_9" x="511.59" y="6.046"/><use xlink:href="#flower2_0_9" x="531.998" y="-6.153"/><use xlink:href="#flower2_0_9" x="552.146" y="6.317"/><use xlink:href="#flower2_0_9" x="593.551" y="3.253"/><use xlink:href="#flower2_0_9" x="613.977" y="19.355"/><use xlink:href="#flower2_0_9" x="618.482" y="-5.578"/><use xlink:href="#flower2_0_9" x="83.073" y="129.449"/><use xlink:href="#flower2_0_9" x="69.959" y="147.655"/><use xlink:href="#flower2_0_9" x="105.449" y="128.719"/><use xlink:href="#flower2_0_9" x="93.21" y="151.214"/><use xlink:href="#flower2_0_9" x="114.842" y="135.962"/><use xlink:href="#flower2_0_9" x="162.581" y="141.371"/><use xlink:href="#flower2_0_9" x="141.16" y="129.071"/><use xlink:href="#flower2_0_9" x="185.376" y="130.528"/><use xlink:href="#flower2_0_9" x="219.785" y="119.596"/><use xlink:href="#flower2_0_9" x="194.868" y="124.314"/><use xlink:href="#flower2_0_9" x="209.449" y="141.314"/><use xlink:href="#flower2_0_9" x="231.336" y="139.544"/><use xlink:href="#flower2_0_9" x="239.354" y="141.26"/><use xlink:href="#flower2_0_9" x="257.185" y="129.983"/><use xlink:href="#flower2_0_9" x="277.978" y="137.706"/><use xlink:href="#flower2_0_9" x="299.655" y="154.362"/><use xlink:href="#flower2_0_9" x="307.955" y="128.723"/><use xlink:href="#flower2_0_9" x="323.824" y="144.982"/><use xlink:href="#flower2_0_9" x="285.95" y="135.778"/><use xlink:href="#flower2_0_9" x="360.773" y="141.095"/><use xlink:href="#flower2_0_9" x="381.594" y="135.347"/><use xlink:href="#flower2_0_9" x="342.589" y="129.13"/><use xlink:href="#flower2_0_9" x="391.144" y="123.64"/><use xlink:href="#flower2_0_9" x="405.865" y="141.326"/><use xlink:href="#flower2_0_9" x="412.899" y="115.6"/><use xlink:href="#flower2_0_9" x="427.581" y="133.052"/><use xlink:href="#flower2_0_9" x="492.611" y="129.831"/><use xlink:href="#flower2_0_9" x="470.295" y="139.914"/><use xlink:href="#flower2_0_9" x="454.042" y="129.794"/><use xlink:href="#flower2_0_9" x="436.255" y="136.363"/><use xlink:href="#flower2_0_9" x="515.464" y="152.96"/><use xlink:href="#flower2_0_9" x="529.59" y="130.914"/><use xlink:href="#flower2_0_9" x="537.072" y="153.723"/><use xlink:href="#flower2_0_9" x="507.528" y="132.673"/><use xlink:href="#flower2_0_9" x="20.597" y="289.286"/><use xlink:href="#flower2_0_9" x="29.997" y="265.135"/><use xlink:href="#flower2_0_9" x="5.675" y="271.224"/><use xlink:href="#flower2_0_9" x="59.481" y="276.262"/><use xlink:href="#flower2_0_9" x="37.659" y="264.557"/><use xlink:href="#flower2_0_9" x="83.676" y="250.501"/><use xlink:href="#flower2_0_9" x="89.658" y="276.345"/><use xlink:href="#flower2_0_9" x="103.305" y="259.871"/><use xlink:href="#flower2_0_9" x="68.627" y="271.826"/><use xlink:href="#flower2_0_9" x="172.378" y="263.502"/><use xlink:href="#flower2_0_9" x="143.395" y="274.893"/><use xlink:href="#flower2_0_9" x="113.144" y="265.054"/><use xlink:href="#flower2_0_9" x="208.724" y="289.266"/><use xlink:href="#flower2_0_9" x="194.926" y="263.854"/><use xlink:href="#flower2_0_9" x="186.189" y="285.476"/><use xlink:href="#flower2_0_9" x="218.308" y="266.758"/><use xlink:href="#flower2_0_9" x="228.759" y="275.475"/><use xlink:href="#flower2_0_9" x="253.467" y="263.685"/><use xlink:href="#flower2_0_9" x="278.142" y="274.924"/><use xlink:href="#flower2_0_9" x="289.805" y="258.54"/><use xlink:href="#flower2_0_9" x="324.268" y="274.184"/><use xlink:href="#flower2_0_9" x="303.08" y="275.19"/><use xlink:href="#flower2_0_9" x="312.535" y="256.011"/><use xlink:href="#flower2_0_9" x="361.765" y="264.22"/><use xlink:href="#flower2_0_9" x="333.612" y="273.35"/><use xlink:href="#flower2_0_9" x="386.92" y="289.14"/><use xlink:href="#flower2_0_9" x="404.247" y="270.34"/><use xlink:href="#flower2_0_9" x="384.754" y="264.199"/><use xlink:href="#flower2_0_9" x="369.688" y="277.84"/><use xlink:href="#flower2_0_9" x="538.809" y="252.476"/><use xlink:href="#flower2_0_9" x="544.457" y="276.011"/><use xlink:href="#flower2_0_9" x="508.954" y="274.517"/><use xlink:href="#flower2_0_9" x="515.739" y="252.214"/><use xlink:href="#flower2_0_9" x="575.926" y="276.419"/><use xlink:href="#flower2_0_9" x="553.648" y="263.789"/><use xlink:href="#flower2_0_9" x="584.368" y="272.343"/><use xlink:href="#flower2_0_9" x="608.775" y="263.827"/><use xlink:href="#flower2_0_9" x="607.914" y="289.257"/><use xlink:href="#flower2_0_9" x="435.563" y="275.903"/><use xlink:href="#flower2_0_9" x="455.419" y="264.169"/><use xlink:href="#flower2_0_9" x="415.187" y="263.875"/><use xlink:href="#flower2_0_9" x="476.206" y="275.771"/><use xlink:href="#flower2_0_9" x="500.403" y="275.547"/><use xlink:href="#flower2_0_9" x="190.112" y="392.172"/><use xlink:href="#flower2_0_9" x="183.188" y="410.643"/><use xlink:href="#flower2_0_9" x="229.464" y="399.645"/><use xlink:href="#flower2_0_9" x="208.163" y="392.657"/><use xlink:href="#flower2_0_9" x="212.713" y="416.548"/><use xlink:href="#flower2_0_9" x="243.016" y="414.808"/><use xlink:href="#flower2_0_9" x="200.518" y="407.183"/><use xlink:href="#flower2_0_9" x="194.483" y="420.763"/><use xlink:href="#flower2_0_9" x="228.98" y="420.791"/><use xlink:href="#flower2_0_9" x="262.192" y="404.502"/><use xlink:href="#flower2_0_9" x="308.547" y="415.127"/><use xlink:href="#flower2_0_9" x="287.078" y="404.782"/><use xlink:href="#flower2_0_9" x="331.814" y="409.748"/><use xlink:href="#flower2_0_9" x="355.15" y="403.726"/><use xlink:href="#flower2_0_9" x="393.557" y="397.737"/><use xlink:href="#flower2_0_9" x="406.101" y="411.283"/><use xlink:href="#flower2_0_9" x="396.427" y="427.603"/><use xlink:href="#flower2_0_9" x="364.285" y="418.541"/><use xlink:href="#flower2_0_9" x="383.057" y="414.915"/><use xlink:href="#flower2_0_9" x="372.264" y="395.835"/><use xlink:href="#flower2_0_9" x="26.819" y="128.601"/><use xlink:href="#flower2_0_9" x="59.254" y="140.536"/><use xlink:href="#flower2_0_9" x="19.116" y="130.1"/><use xlink:href="#flower2_0_9" x="-1.549" y="115.534"/><use xlink:href="#flower2_0_9" x="-5.046" y="140.053"/><use xlink:href="#flower2_0_9" x="601.925" y="137.493"/><use xlink:href="#flower2_0_9" x="600.635" y="118.643"/><use xlink:href="#flower2_0_9" x="619.272" y="115.576"/><use xlink:href="#flower2_0_9" x="554.043" y="141.475"/><use xlink:href="#flower2_0_9" x="586.491" y="130.039"/><use xlink:href="#flower2_0_9" x="69.202" y="415.985"/><use xlink:href="#flower2_0_9" x="43.142" y="404.176"/><use xlink:href="#flower2_0_9" x="91.088" y="403.963"/><use xlink:href="#flower2_0_9" x="154.719" y="416.339"/><use xlink:href="#flower2_0_9" x="171.462" y="404.233"/><use xlink:href="#flower2_0_9" x="118.669" y="413.263"/><use xlink:href="#flower2_0_9" x="138.086" y="404.617"/><use xlink:href="#flower2_0_9" x="5.776" y="416.329"/><use xlink:href="#flower2_0_9" x="6.795" y="390.77"/><use xlink:href="#flower2_0_9" x="28.751" y="404.805"/><use xlink:href="#flower2_0_9" x="583.058" y="401.719"/><use xlink:href="#flower2_0_9" x="607.188" y="390.738"/><use xlink:href="#flower2_0_9" x="605.6" y="416.444"/><use xlink:href="#flower2_0_9" x="546.217" y="406.166"/><use xlink:href="#flower2_0_9" x="568.492" y="413.215"/><use xlink:href="#flower2_0_9" x="415.458" y="405.02"/><use xlink:href="#flower2_0_9" x="500.605" y="416.089"/><use xlink:href="#flower2_0_9" x="437.075" y="412.044"/><use xlink:href="#flower2_0_9" x="480.626" y="403.741"/><use xlink:href="#flower2_0_9" x="523.895" y="411.532"/><use xlink:href="#flower2_0_9" x="459.747" y="415.588"/><use xlink:href="#flower2_0_9" x="363.842" y="545.361"/><use xlink:href="#flower2_0_9" x="389.46" y="551.334"/><use xlink:href="#flower2_0_9" x="383.864" y="525.964"/><use xlink:href="#flower2_0_9" x="355.042" y="547.421"/><use xlink:href="#flower2_0_9" x="328.942" y="551.149"/><use xlink:href="#flower2_0_9" x="305.797" y="538.531"/><use xlink:href="#flower2_0_9" x="282.542" y="551.388"/><use xlink:href="#flower2_0_9" x="259.668" y="538.733"/><use xlink:href="#flower2_0_9" x="231.843" y="525.534"/><use xlink:href="#flower2_0_9" x="223.542" y="550.895"/><use xlink:href="#flower2_0_9" x="249.253" y="546.081"/><use xlink:href="#flower2_0_9" x="-.728" y="103.847"/><use xlink:href="#flower2_0_9" x="5.756" y="77.28"/><use xlink:href="#flower2_0_9" x="4.533" y="28.888"/><use xlink:href="#flower2_0_9" x="-5.718" y="53.685"/><use xlink:href="#flower2_0_9" x="206.543" y="27.732"/><use xlink:href="#flower2_0_9" x="216.7" y="54.076"/><use xlink:href="#flower2_0_9" x="217.356" y="108.366"/><use xlink:href="#flower2_0_9" x="207.859" y="81.89"/><use xlink:href="#flower2_0_9" x="404.052" y="32.8"/><use xlink:href="#flower2_0_9" x="415.078" y="107.709"/><use xlink:href="#flower2_0_9" x="403.339" y="87.298"/><use xlink:href="#flower2_0_9" x="409.942" y="56.231"/><use xlink:href="#flower2_0_9" x="90.181" y="161.889"/><use xlink:href="#flower2_0_9" x="84.77" y="189.318"/><use xlink:href="#flower2_0_9" x="92.34" y="216.381"/><use xlink:href="#flower2_0_9" x="81.638" y="242.261"/><use xlink:href="#flower2_0_9" x="310.842" y="215.206"/><use xlink:href="#flower2_0_9" x="311.082" y="161.564"/><use xlink:href="#flower2_0_9" x="301.332" y="188.294"/><use xlink:href="#flower2_0_9" x="299.144" y="243.081"/><use xlink:href="#flower2_0_9" x="6.161" y="329.694"/><use xlink:href="#flower2_0_9" x="7.694" y="304.861"/><use xlink:href="#flower2_0_9" x="16.995" y="382.925"/><use xlink:href="#flower2_0_9" x="14.154" y="346.722"/><use xlink:href="#flower2_0_9" x="9.208" y="365.815"/><use xlink:href="#flower2_0_9" x="204.559" y="383.481"/><use xlink:href="#flower2_0_9" x="193.459" y="344.507"/><use xlink:href="#flower2_0_9" x="204.186" y="327.676"/><use xlink:href="#flower2_0_9" x="199.994" y="363.26"/><use xlink:href="#flower2_0_9" x="199.336" y="303.64"/><use xlink:href="#flower2_0_9" x="391.257" y="307.902"/><use xlink:href="#flower2_0_9" x="384.423" y="331.638"/><use xlink:href="#flower2_0_9" x="393.237" y="382.209"/><use xlink:href="#flower2_0_9" x="382.364" y="365.941"/><use xlink:href="#flower2_0_9" x="392.299" y="349.388"/><use xlink:href="#flower2_0_9" x="224.286" y="459.521"/><use xlink:href="#flower2_0_9" x="234.935" y="439.312"/><use xlink:href="#flower2_0_9" x="232.417" y="505.886"/><use xlink:href="#flower2_0_9" x="228.987" y="482.409"/><use xlink:href="#flower2_0_9" x="613.977" y="106.479"/><use xlink:href="#flower2_0_9" x="613.687" y="27.902"/><use xlink:href="#flower2_0_9" x="606.85" y="54.439"/><use xlink:href="#flower2_0_9" x="618.657" y="78.857"/><use xlink:href="#flower2_0_9" x="528.267" y="164.95"/><use xlink:href="#flower2_0_9" x="520.983" y="192.755"/><use xlink:href="#flower2_0_9" x="521.755" y="243.339"/><use xlink:href="#flower2_0_9" x="532.353" y="217.812"/><use xlink:href="#flower2_0_9" x="604.498" y="323.422"/><use xlink:href="#flower2_0_9" x="599.502" y="298.841"/><use xlink:href="#flower2_0_9" x="602.556" y="382.548"/><use xlink:href="#flower2_0_9" x="608.913" y="362.663"/><use xlink:href="#flower2_0_9" x="596.469" y="345.94"/><use xlink:href="#flower2_0_9" x="383.27" y="437.339"/><use xlink:href="#flower2_0_9" x="376.602" y="491.947"/><use xlink:href="#flower2_0_9" x="387.021" y="517.409"/><use xlink:href="#flower2_0_9" x="385.579" y="465.389"/><use xlink:href="#laws_of_exp_1_formula" transform="matrix(.019 0 0 .019 46.137 79.196)"/><use xlink:href="#laws_of_exp_2_formula" transform="matrix(.019 0 0 .019 254.193 77.204)"/><use xlink:href="#laws_of_exp_3_formula" transform="matrix(.019 0 0 .019 446.915 78.201)"/><use xlink:href="#laws_of_exp_4_formula" transform="matrix(.019 0 0 .019 130.098 212.207)"/><use xlink:href="#laws_of_exp_5_formula" transform="translate(349.142 210.352) scale(.0181)"/><use xlink:href="#laws_of_exp_6_formula" transform="matrix(.019 0 0 .019 53.58 349.704)"/><use xlink:href="#laws_of_exp_7_formula" transform="matrix(.019 0 0 .019 242.58 349.704)"/><use xlink:href="#laws_of_exp_8_formula" transform="matrix(.019 0 0 .019 428.664 349.704)"/><use xlink:href="#laws_of_exp_9_formula" transform="matrix(.019 0 0 .019 269.47 488.196)"/><use xlink:href="#1st_law_yellow_sign" transform="rotate(-40 44.168 -26.357) scale(2.06)"/><use xlink:href="#2nd_law_yellow_sign" transform="rotate(35 151.308 608.309) scale(2.06)"/><use xlink:href="#3rd_law_yellow_sign" transform="rotate(36 247.244 903.487) scale(2.06)"/><use xlink:href="#4th_law_yellow_sign" transform="rotate(-40 270.75 -76.125) scale(2.06)"/><use xlink:href="#5th_law_yellow_sign" transform="rotate(-40 383.997 -378.721) scale(2.06)"/><use xlink:href="#laws_of_reciprocality_yellow_sign" transform="translate(297.276 390.224) scale(2.1012)"/><use xlink:href="#0th_law_yellow_sign" transform="matrix(2.06 0 0 2.06 304.276 527.225)"/></svg>