<svg xmlns="http://www.w3.org/2000/svg" width="500" height="270"><g transform="translate(96.429 -347.685)"><ellipse cx="118.462" cy="466.74" rx="9.002" ry="8.766" style="fill:#fcff80;fill-opacity:1;stroke:#000;stroke-width:.986833;stroke-dasharray:none;stroke-opacity:1"/><path d="M120.53 471.246q0 .112-.31.112H119.516q-.534-.014-1.083-.014-.972 0-1.24.014-.267.014-.421.014-.338 0-.338-.126t.197-.126q.31 0 .661-.014.437-.014.465-.21.042-.21.042-.881v-6.575q0-.448-.028-.532-.028-.083-.197-.083-.07 0-.915.07-.169.013-.225.013-.17 0-.17-.097 0-.112.17-.126.661-.07 1.337-.392.676-.336 1.084-.783.155-.126.211-.126.113 0 .113.14v.265q-.014.112-.014.252v8.366q0 .503.042.587.056.084.352.098l.323.014.24.014h.21q.198 0 .198.126z" style="font-size:36.4174px;font-family:&quot;Bodoni 72&quot;;-inkscape-font-specification:&quot;Bodoni 72, &quot;;fill:#000;fill-opacity:1;stroke:#000;stroke-width:.2;stroke-dasharray:none"/></g><g transform="translate(-15.404 -292.753)"><ellipse cx="152.862" cy="466.74" rx="9.002" ry="8.766" style="fill:#8dff80;fill-opacity:1;stroke:#000;stroke-width:.986833;stroke-dasharray:none;stroke-opacity:1"/><path d="M156.044 468.749q0 .042-.028.223-.07.462-.225 2.28l-.014.169q-1.45-.07-3.308-.07-1 0-1.873.028-.872.028-.76.028-.38 0-.38-.14 0-.112.732-.7 1.76-1.427 2.506-2.322 1.295-1.553 1.295-3.651 0-1.413-.591-2.14-.45-.56-1.267-.56-.803 0-1.267.49-.366.377-.366.755 0 .238.38.252.985.042.985.853 0 .77-.816.77-.521 0-.83-.322-.31-.322-.31-.882 0-1.035.732-1.664.732-.63 1.928-.63 1.197 0 1.985.756.915.88.915 2.294 0 1.553-1.042 2.868-1.041 1.3-3.505 2.84.93-.029 2.337-.029 1.168 0 1.478-.028.31-.042.549-.181.197-.126.338-.938.098-.56.281-.56.141 0 .141.21z" style="font-size:36.4174px;font-family:&quot;Bodoni 72&quot;;-inkscape-font-specification:&quot;Bodoni 72, &quot;;fill:#000;fill-opacity:1;stroke:#000;stroke-width:.2;stroke-dasharray:none;stroke-opacity:1"/></g><g transform="translate(66.707 -226.978)"><ellipse cx="179.883" cy="466.74" rx="9.002" ry="8.766" style="fill:#80edff;fill-opacity:1;stroke:#000;stroke-width:.986833;stroke-dasharray:none;stroke-opacity:1"/><path d="M183.273 468.956q0 1.161-.943 1.987-1.042.91-2.66.91-1.324 0-1.943-.616-.394-.392-.394-.896 0-.433.267-.685.282-.266.746-.266.366 0 .606.21t.24.531q0 .49-.663.77-.267.112-.267.224 0 .181.366.335.366.14.802.14 1.07 0 1.732-.727.675-.728.675-1.903 0-2.364-2.14-2.364-.21 0-.309.014h-.098q-.183 0-.183-.126 0-.098.338-.154.985-.14 1.52-.713.535-.588.535-1.497 0-.895-.465-1.427-.464-.545-1.253-.545-.577 0-1.013.251-.422.238-.422.56 0 .126.197.168.929.224.929.77 0 .713-.746.713-.479 0-.775-.28-.281-.28-.281-.742 0-.755.647-1.259.662-.517 1.83-.517 1.338 0 2.041.685.704.686.704 1.595 0 1.26-1.196 1.86-.423.21-1.366.35v.098q1.169.042 1.887.518 1.055.7 1.055 2.028z" style="font-size:36.4174px;font-family:&quot;Bodoni 72&quot;;-inkscape-font-specification:&quot;Bodoni 72, &quot;;fill:#000;stroke:#000;stroke-width:.2;stroke-dasharray:none"/></g><g transform="translate(121.929 -286.883)"><ellipse cx="225.783" cy="466.74" rx="9.002" ry="8.766" style="fill:#80beff;fill-opacity:1;stroke:#000;stroke-width:.986833;stroke-dasharray:none;stroke-opacity:1"/><path d="M228.749 469.725q0 .14-.14.14-.128 0-.17-.154-.028-.168-.098-.881-.028-.112-.113-.168-.169-.098-.746-.098-.155 0-.296.014l.014 2.196q.07.168.226.21.169.042.802.042.31 0 .366.056.014.028.014.084 0 .098-.563.098t-3.153.028q-.14.014-.31.014-.281 0-.281-.14t.408-.126q.479.014.873-.056.169-.028.21-.14.043-.126.043-.532v-1.692q-.281-.014-.647-.014h-.578q-.197 0-.436.014h-.267l-1.788-.042q-.197-.014-.197-.112 0-.07 2.069-2.896.648-.91 2.858-4 .098-.14.197-.14.14 0 .14.265v6.575h.141q.479 0 .746-.056.282-.056.282-.28-.014-.881-.014-.601.014-.504.154-.504.198 0 .198.392v.63l.014 1.007q.014.517.028.657.014.126.014.21zm-2.83-6.24q-.14.225-.59.854-.62.853-1.873 2.546l-1 1.357q.521.042 2.239.042.605 0 1.14-.014v-.993q0-.7.042-1.889.042-1.399.042-1.902z" style="font-size:36.4174px;font-family:&quot;Bodoni 72&quot;;-inkscape-font-specification:&quot;Bodoni 72, &quot;;fill:#000;fill-opacity:1;stroke:#000;stroke-width:.2;stroke-dasharray:none;stroke-opacity:1"/></g><g transform="translate(56.741 -348.39)"><ellipse cx="242.439" cy="466.74" rx="9.002" ry="8.766" style="fill:#b580ff;fill-opacity:1;stroke:#000;stroke-width:.986833;stroke-dasharray:none;stroke-opacity:1"/><path d="M245.394 468.366q0 1.79-1.38 2.742-.83.573-2.153.573t-1.942-.685q-.338-.378-.338-.895 0-.434.281-.7.282-.28.732-.28.366 0 .606.21.253.21.253.518 0 .517-.69.783-.31.112-.31.252 0 .224.409.406.422.168.929.168.985 0 1.478-.672.675-.923.675-2.49 0-1.147-.534-1.777-.535-.63-1.52-.63-.76 0-1.676.574.085-3.147.127-3.973.014-.475.211-.573.197-.112 1.07-.112h.478q.338.014.535.014h.479q.971 0 1.126-.028.169-.042.211-.238.057-.322.197-.322.141 0 .141.154 0 .098-.014.154l-.028.322q-.07.783-.296.98-.21.181-1.055.181l-2.69-.014q-.055.476-.098 2.868.803-.364 1.676-.364 1.45 0 2.28.77.83.755.83 2.084z" style="font-size:36.4174px;font-family:&quot;Bodoni 72&quot;;-inkscape-font-specification:&quot;Bodoni 72, &quot;;fill:#000;stroke:#000;stroke-width:.2;stroke-dasharray:none"/></g><g transform="translate(17.411 -424.755)"><ellipse cx="273.804" cy="466.74" rx="9.002" ry="8.766" style="fill:#ec80ff;fill-opacity:1;stroke:#000;stroke-width:.986833;stroke-dasharray:none;stroke-opacity:1"/><path d="M276.571 468.394q0 1.357-.83 2.322-.83.965-1.985.965-1.45 0-2.35-1.189-.901-1.189-.901-3.091 0-1.749.76-3.19.774-1.44 2.055-2.098 1.07-.546 2.337-.546.295 0 .295.112 0 .098-.197.112-1.267.112-2.238.91-1.267 1.035-1.492 3.525.774-.728 1.745-.728.789 0 1.478.42 1.323.797 1.323 2.476zm-1.45.042q0-2.602-1.618-2.602-.732 0-1.126.63-.394.615-.394 1.734 0 1.609.577 2.602.366.63 1.07.63 1.492 0 1.492-2.994z" style="font-size:36.4174px;font-family:&quot;Bodoni 72&quot;;-inkscape-font-specification:&quot;Bodoni 72, &quot;;fill:#000;fill-opacity:1;stroke:#000;stroke-width:.2;stroke-dasharray:none;stroke-opacity:1"/></g><circle cx="249.437" cy="124.015" r=".002" style="fill:#ffa1a1;stroke:#000;stroke-width:.999999"/><g style="stroke-width:.956817"><path d="M48.848 40.505c.86-.142 1.736-.097 2.603-.084 1.438.026 2.876.05 4.314.059 1.453.003 2.906.005 4.358.005l3.919.008c1.073.001 2.147-.002 3.22.017.308.006.617.01.925.02v-1.565c-.308.009-.617.014-.925.02-1.073.019-2.147.015-3.22.016-1.307.002-2.613.007-3.919.01-1.45 0-2.9.002-4.35-.009-1.43-.01-2.861-.019-4.292-.065-.946-.031-1.895-.084-2.84.015l.207 1.552z" style="fill:#fcff80;fill-opacity:1;stroke:#000;stroke-width:.278474" transform="matrix(3.9495 -.0171 .0171 3.95063 -19.203 1.997)"/><path d="M52.412 35.779c-.683.603-1.429 1.13-2.166 1.663-.54.396-1.088.77-1.723.99a1.519 1.519 0 0 0-.823.445c-.052.238-.157.47-.154.714.004.382.848.956 1.098 1.15.998.747 2.01 1.475 2.98 2.258.217.196.453.369.673.56l.967-1.225c-.238-.172-.483-.334-.707-.525-.985-.75-1.992-1.473-2.954-2.253-.446-.378-.156-.123-.52-.462l-.064-.056c-.005-.005-.016-.019-.014-.013.155.46.128.06-.086.861-.05.049-.064.069-.122.1-.023.012-.098.027-.074.018.115-.045.24-.063.352-.12.748-.301 1.42-.73 2.06-1.218.763-.558 1.529-1.11 2.28-1.684l-1.003-1.203z" style="fill:#fcff80;fill-opacity:1;stroke:#000;stroke-width:.278474" transform="matrix(3.9495 -.0171 .0171 3.95063 -19.203 1.997)"/></g><g style="stroke-width:.956817"><path d="M49.141 54.146c-.166-.863-.12-1.75-.103-2.624.008-1.344.051-2.806.07-4.15.013-1.461-.023-2.923-.06-4.384-.028-1.105-.083-2.209-.05-3.314l-1.522-.033c-.016 1.131.05 2.26.087 3.39.045 1.437.081 2.876.057 4.314-.03 1.341-.053 2.8-.075 4.141-.03.99-.079 1.988.057 2.973l1.54-.313z" style="fill:#8dff80;fill-opacity:1;stroke:#000;stroke-width:.278474" transform="matrix(3.9495 -.0171 .0171 3.95063 -19.203 1.997)"/><path d="M44.278 51.633c.745.815 1.383 1.721 2.016 2.625.409.625.81 1.256 1.184 1.902.23.416.441.465 1.096.418.235-.016.394-.377.513-.538.479-.721 1.091-1.34 1.684-1.967a46.425 46.425 0 0 0 1.566-1.665l-1.198-.988c-.439.58-.947 1.1-1.45 1.623-.648.675-1.321 1.333-1.878 2.088-.296.42-.008-.014.14-.007.293.016.576.116.856.205.033.01.09.09.056.088-.035-.003-.04-.059-.06-.088-.432-.641-.86-1.286-1.293-1.927-.67-.95-1.345-1.9-2.065-2.814l-1.167 1.044z" style="fill:#8dff80;fill-opacity:1;stroke:#000;stroke-width:.278474" transform="matrix(3.9495 -.0171 .0171 3.95063 -19.203 1.997)"/></g><g style="stroke-width:.956817"><path d="M48.506 56.943c1.464-.264 2.965-.275 4.448-.327 3.54-.054 7.082.014 10.623.053 3.77.061 7.54.037 11.311.036 2.484-.024 4.969.041 7.452.004.503-.01 1.005-.031 1.507-.053l-.12-1.535c-.476.055-.953.096-1.431.12-2.469.114-4.943.085-7.413.134-3.764.031-7.528.032-11.291.005-3.558-.044-7.115-.159-10.673-.177-1.587.023-3.185.014-4.762.218l.349 1.522z" style="fill:#80edff;fill-opacity:1;stroke:#000;stroke-width:.278474" transform="matrix(3.9495 -.0171 .0171 3.95063 -19.203 1.997)"/><path d="M79.931 53.652c.904.326 1.673.954 2.448 1.507.66.51 1.372.955 1.99 1.517l.077.076c.118.121-.04-.011-.03-.037.172-.414.391-.805.587-1.208-1.14.216-2.17.865-3.116 1.51-.502.373-1 .758-1.437 1.208l1.166 1.056c.318-.4.735-.712 1.126-1.034.693-.493 1.487-1.024 2.342-1.16.686-1.23.977-1.025.293-1.6-.685-.548-1.434-1.005-2.134-1.533-.92-.663-1.82-1.407-2.891-1.812l-.421 1.51z" style="fill:#80edff;fill-opacity:1;stroke:#000;stroke-width:.278474" transform="matrix(3.9495 -.0171 .0171 3.95063 -19.203 1.997)"/></g><g style="stroke-width:.956817"><path d="M85.43 55.976c-.04-1.402-.047-2.806-.056-4.209-.037-2.197.084-4.39.185-6.583.073-1.582.115-3.166.156-4.75.014-.512.006-.278.022-.701l-1.553-.017c.009.417.005.186.01.69a110.8 110.8 0 0 1-.093 4.688c-.093 2.223-.2 4.446-.185 6.673-.01 1.403-.015 2.807-.055 4.21h1.568z" style="fill:#80beff;fill-opacity:1;stroke:#000;stroke-width:.278474" transform="matrix(3.94844 -.09332 .09329 3.94957 -22.719 8.53)"/><path d="M82.677 44.057a43.984 43.984 0 0 0 2.169-3.568c.185-.361.39-.714.549-1.09.007-.02.045-.066.023-.062-.455.075-.9.206-1.353.284-.019.003-.045-.061-.037-.044.175.369.411.714.63 1.057.677 1.042 1.482 1.991 2.326 2.9-.046-.04.48.489.37.405l1.301-.893c-.168-.215-.37-.392-.572-.576-.805-.794-1.55-1.653-2.136-2.626-.172-.294-.33-.584-.478-.89-.045-.091-.035-.268-.137-.274-1.314-.075-1.629.625-1.417.164-.07.333-.298.626-.408.943-.571 1.14-1.204 2.265-2.016 3.253l1.186 1.017z" style="fill:#80beff;fill-opacity:1;stroke:#000;stroke-width:.278474" transform="matrix(3.94844 -.09332 .09329 3.94957 -22.719 8.53)"/></g><g style="stroke-width:.956817"><path d="M84.736 38.833c-.87.127-1.75.133-2.626.153-1.37.067-2.741.044-4.112.071-1.365.028-2.729.031-4.093-.004a220.064 220.064 0 0 0-3.838-.184c-.55-.022-1.102-.04-1.653-.066l-.01 1.571a35.373 35.373 0 0 1 1.625-.005c1.282.026 2.562.097 3.843.16 1.385.038 2.77.04 4.154.01 1.37-.03 2.737-.012 4.105-.066.936-.01 1.875-.01 2.809-.088l-.204-1.552z" style="fill:#b580ff;fill-opacity:1;stroke:#000;stroke-width:.278474" transform="matrix(3.9495 -.0171 .0171 3.95063 -19.203 1.997)"/><path d="M74.25 42.624c-.714-.683-1.484-1.308-2.234-1.95-.72-.655-1.482-1.26-2.33-1.74-.283-.112-.427-.365-.132.03.077.715.128.266-.194.878-.007.014.03-.009.044-.014.067-.025.132-.053.198-.076.253-.09.508-.173.76-.26.955-.369 1.88-.82 2.732-1.388.243-.17.485-.347.665-.585l.085-.162-1.478-.576.077-.145c.17-.208-.18.223-.233.203-.706.523-1.502.915-2.329 1.209-.579.184-1.571.329-1.805.994-.062.177.021.374.031.56.064.097.122.197.191.29.153.2.444.29.654.405.774.388 1.447.932 2.087 1.51.674.584 1.361 1.16 1.985 1.797l1.226-.98z" style="fill:#b580ff;fill-opacity:1;stroke:#000;stroke-width:.278474" transform="matrix(3.9495 -.0171 .0171 3.95063 -19.203 1.997)"/></g><path d="M254.294 155.72c-.56-5.233-.426-10.534-.27-15.797.407-9.364.562-18.74.653-28.118.085-10.259.097-20.518.121-30.778.017-8.138.048-16.277.064-24.415-.19-7.001-.311-14.009-.584-21.005-.185-5.791-.593-11.591-.442-17.391.076-1.458.071-1.624.188-2.976.089-1.02-.024-1.223.147-.83l-5.938-2.35c-.335 1.983-.406 3.987-.427 6.02-.012 5.98.38 11.95.593 17.92.256 6.868.382 13.744.586 20.614.02 8.137.058 16.273.074 24.41.017 10.221.025 20.443-.081 30.664-.129 9.298-.324 18.595-.792 27.875-.23 5.72-.39 11.455-.027 17.174l6.135-1.017z" style="fill:#ec80ff;fill-opacity:1;stroke:#000;stroke-width:1.1"/><path d="M238.882 28.341c2.505-2.976 5.106-5.872 7.728-8.745 1.365-1.426 2.67-2.914 4.08-4.297.227-.222.92-.948 1.309-1.067-.143.095-.257.27-.428.287-.833.087-1.707-.205-2.515.02-.441.123.883.284 1.34.309.77.04 1.285-.205 1.917-.559.228-.127-.47.228-.706.341-.615-.005-1.231.015-1.846-.014-.12-.006-.416-.218-.336-.128.769.87 1.652 1.69 2.442 2.542 2.492 2.736 5.104 5.379 7.41 8.276.324.512 2.042 2.565 2.08 3.196.006.108-.11-.186-.165-.28l-.152-1.393 6.183.959-.125-1.571c-.765-1.747-1.946-3.28-3.14-4.755-2.442-2.902-5.127-5.589-7.609-8.457-.868-1-3.026-4.015-4.442-4.262-.689-.12-1.397-.07-2.095-.105-2.106.928-.005-.108.77-.047.4.031 1.566.247 1.168.303-.9.129-1.821-.168-2.726-.08-.274.026-.476.277-.713.415-2.26 1.884-4.002 4.294-6.053 6.388-2.564 2.801-5.12 5.609-7.766 8.333l4.39 4.391z" style="fill:#ec80ff;fill-opacity:1;stroke:#000;stroke-width:1.1"/><path d="M141.783-105.894a3.123 3.123 0 0 1 2.441.11c1.588.681 2.665 2.402 2.41 4.084-.168 1.278-1.18 2.37-2.314 2.937-1.143.561-2.556.815-3.81.387-1.035-.333-1.884-1.238-1.976-2.31-.16-1.507.687-3 1.922-3.881.164-.116.336-.222.514-.316" style="display:inline;fill:none;stroke:#000;stroke-width:1;stroke-dasharray:none;stroke-opacity:1"/><path d="M203.07 140.752c.553.302 1.077.33 1.688.165.117-.027.233-.055.32-.137.03-.027.088-.11.088-.165-.029-.494-1.048-.33-1.34-.247" style="display:inline;fill:none;stroke:#000;stroke-width:.999999;stroke-dasharray:none;stroke-opacity:1"/><path d="M194.155 133.329c1.025-.586 2.162-1.08 3.38-1.18.282-.024.693-.03.974 0 .615.06 1.42.199 1.534.968.117.79-.451 1.415-.984 1.91-.467.432-.863.683-1.39.981.41.064 1.185.196 1.615.373.811.335 1.513.77 1.945 1.45.51.806.17 1.619-.437 2.111-.468.38-1.173.706-1.669.872-1.024.342-2.035.408-3.288.24-.53-.07-1.024-.301-1.37-.446a4.24 4.24 0 0 1-.839-.509" style="display:inline;fill:none;fill-opacity:1;stroke:#000;stroke-width:.999999;stroke-linecap:butt;stroke-linejoin:miter;stroke-miterlimit:4;stroke-dasharray:none;stroke-opacity:1"/><path d="M193.03 137.704h-.425c-.782 0-1.563-.007-2.345-.016a46.448 46.448 0 0 0-2.407.025c-.437.014-.873.025-1.31.034M206.731 140.437c1.38.403 2.81.594 4.208.442 1.048-.114 1.873-.341 2.67-.834.492-.304.655-.852.411-1.326-.509-.989-1.531-1.67-2.55-2.117a7.81 7.81 0 0 0-.784-.282c-.262-.064-.305-.03.013-.119.243-.142.787-.368 1.032-.497.835-.441 1.393-.977 1.657-1.758.129-.383.07-.895-.382-1.183-.647-.414-1.643-.465-2.406-.406a12.297 12.297 0 0 0-4.114 1.062" style="display:inline;fill:none;stroke:#000;stroke-width:.999999;stroke-dasharray:none"/><g style="stroke-width:.192821;stroke-dasharray:none"><path d="M60.34 29.033c.044-.067.093-.132.133-.188.208-.294.41-.591.61-.888a6.29 6.29 0 0 1 .362-.489.03.03 0 0 0 .008-.019c0-.027-.132-.018-.15-.019a19.957 19.957 0 0 0-1.646.002" style="display:inline;fill:none;stroke:#000;stroke-width:.192821;stroke-dasharray:none" transform="matrix(5.12532 0 0 5.24772 -90.758 -11.327)"/><path d="M60.335 28.3c.208-.003.335.01.543.007.076-.001.17.002.215 0 .008 0 .139-.005.158-.008" style="display:inline;fill:#000;stroke:#000;stroke-width:.192821;stroke-dasharray:none" transform="matrix(5.12532 0 0 5.24772 -90.758 -11.327)"/></g><g style="display:inline;stroke-width:4.16869;stroke-dasharray:none"><path d="M-698.623-3366.226c-1.298-.16-2.924.066-4.477.16-6.92.424-11.25.877-18.25 1.137" style="fill:none;stroke:#000;stroke-width:4.16869;stroke-dasharray:none;stroke-opacity:1" transform="matrix(.25367 0 0 .22684 408.936 896.616)"/><path d="M-722.041-3336.057c.11 1.695 2.161 1.931 3.452 2.419 5.983 2.257 12.145 1.713 18.033.343 3.1-.722 6.557-2.392 7.683-5.607 1.097-3.133-.41-6.367-2.215-8.836-3.398-4.652-9.65-7.174-15.36-6.695-1.805.15-3.6.397-5.298 1.144-1.65.725-3.238 1.513-4.567 2.705-.295-.236-.132-1.545-.124-2.32l.124-12.716" style="fill:none;stroke:#000;stroke-width:4.16869;stroke-dasharray:none;stroke-opacity:1" transform="matrix(.25367 0 0 .22684 408.936 896.616)"/></g><path d="M138.333 198.255c.674-.19.867-.525.723-1.193-.048-.095-.145-.238-.241-.286-.29-.239-.82-.096-.964.238-.144.382-.096.955-.047 1.289" style="display:inline;fill:none;stroke:#000;stroke-width:.999999;stroke-dasharray:none;stroke-opacity:1"/><g style="stroke-width:1.03241"><path d="M36.01 52.368a6.61 6.61 0 0 0 .171-.322c.197-.389.363-.792.53-1.195.083-.2.165-.402.244-.605.02-.052.07-.174.089-.234a.661.661 0 0 0 .018-.071.218.218 0 0 0 .005-.048c-.002-.081-.108-.078-.164-.078-.31.002-.619.041-.929.048-.327.007-.654.012-.981.01" style="display:inline;fill:none;stroke:#000;stroke-width:.273159;stroke-dasharray:none" transform="matrix(3.66507 0 0 3.65666 9.945 6.346)"/><path d="M37.295 51.074c-.204.031-.413.013-.589.02-.325.004-.651.005-.976.026" style="display:inline;fill:#000;stroke:#000;stroke-width:.273159;stroke-dasharray:none" transform="matrix(3.66507 0 0 3.65666 9.945 6.346)"/></g><path d="M118.233 194.854c1.108 0 2.217.02 3.326.032.938.01 1.876.014 2.814.018h.281M136.014 197.772l-.136-.075c-1.09-.33-2.239-.402-3.368-.477-1.572-.043-3.15 0-4.687.365-.438.102-.89.185-1.279.421v.076c0 .014.023-.019.035-.027.124-.08.256-.148.384-.221a14.104 14.104 0 0 0 2.876-2.28c.556-.575.775-.788 1.286-1.408a21.717 21.717 0 0 0 2.025-2.889c.343-.589 1.018-1.693.686-2.413a.728.728 0 0 0-.196-.254 1.05 1.05 0 0 0-.315-.167c-.916-.33-2.058-.135-2.998.085-1.158.271-2.314.597-3.388 1.116" style="display:inline;fill:none;stroke:#000;stroke-width:.999999;stroke-dasharray:none"/><g transform="translate(-261.67 -29.045)"><ellipse cx="118.462" cy="466.74" rx="9.002" ry="8.766" style="fill:#fcff80;fill-opacity:1;stroke:#000;stroke-width:.986833;stroke-dasharray:none;stroke-opacity:1"/><path d="M120.53 471.246q0 .112-.31.112H119.516q-.534-.014-1.083-.014-.972 0-1.24.014-.267.014-.421.014-.338 0-.338-.126t.197-.126q.31 0 .661-.014.437-.014.465-.21.042-.21.042-.881v-6.575q0-.448-.028-.532-.028-.083-.197-.083-.07 0-.915.07-.169.013-.225.013-.17 0-.17-.097 0-.112.17-.126.661-.07 1.337-.392.676-.336 1.084-.783.155-.126.211-.126.113 0 .113.14v.265q-.014.112-.014.252v8.366q0 .503.042.587.056.084.352.098l.323.014.24.014h.21q.198 0 .198.126z" style="font-size:36.4174px;font-family:&quot;Bodoni 72&quot;;-inkscape-font-specification:&quot;Bodoni 72, &quot;;fill:#000;fill-opacity:1;stroke:#000;stroke-width:.2;stroke-dasharray:none"/></g><g transform="translate(-372.17 16.792)"><ellipse cx="152.862" cy="466.74" rx="9.002" ry="8.766" style="fill:#8dff80;fill-opacity:1;stroke:#000;stroke-width:.986833;stroke-dasharray:none;stroke-opacity:1"/><path d="M156.044 468.749q0 .042-.028.223-.07.462-.225 2.28l-.014.169q-1.45-.07-3.308-.07-1 0-1.873.028-.872.028-.76.028-.38 0-.38-.14 0-.112.732-.7 1.76-1.427 2.506-2.322 1.295-1.553 1.295-3.651 0-1.413-.591-2.14-.45-.56-1.267-.56-.803 0-1.267.49-.366.377-.366.755 0 .238.38.252.985.042.985.853 0 .77-.816.77-.521 0-.83-.322-.31-.322-.31-.882 0-1.035.732-1.664.732-.63 1.928-.63 1.197 0 1.985.756.915.88.915 2.294 0 1.553-1.042 2.868-1.041 1.3-3.505 2.84.93-.029 2.337-.029 1.168 0 1.478-.028.31-.042.549-.181.197-.126.338-.938.098-.56.281-.56.141 0 .141.21z" style="font-size:36.4174px;font-family:&quot;Bodoni 72&quot;;-inkscape-font-specification:&quot;Bodoni 72, &quot;;fill:#000;fill-opacity:1;stroke:#000;stroke-width:.2;stroke-dasharray:none;stroke-opacity:1"/></g><g transform="translate(-303.353 79.914)"><ellipse cx="179.883" cy="466.74" rx="9.002" ry="8.766" style="fill:#80edff;fill-opacity:1;stroke:#000;stroke-width:.986833;stroke-dasharray:none;stroke-opacity:1"/><path d="M183.273 468.956q0 1.161-.943 1.987-1.042.91-2.66.91-1.324 0-1.943-.616-.394-.392-.394-.896 0-.433.267-.685.282-.266.746-.266.366 0 .606.21t.24.531q0 .49-.663.77-.267.112-.267.224 0 .181.366.335.366.14.802.14 1.07 0 1.732-.727.675-.728.675-1.903 0-2.364-2.14-2.364-.21 0-.309.014h-.098q-.183 0-.183-.126 0-.098.338-.154.985-.14 1.52-.713.535-.588.535-1.497 0-.895-.465-1.427-.464-.545-1.253-.545-.577 0-1.013.251-.422.238-.422.56 0 .126.197.168.929.224.929.77 0 .713-.746.713-.479 0-.775-.28-.281-.28-.281-.742 0-.755.647-1.259.662-.517 1.83-.517 1.338 0 2.041.685.704.686.704 1.595 0 1.26-1.196 1.86-.423.21-1.366.35v.098q1.169.042 1.887.518 1.055.7 1.055 2.028z" style="font-size:36.4174px;font-family:&quot;Bodoni 72&quot;;-inkscape-font-specification:&quot;Bodoni 72, &quot;;fill:#000;stroke:#000;stroke-width:.2;stroke-dasharray:none"/></g><g transform="translate(-251.348 36.133)"><ellipse cx="225.783" cy="466.74" rx="9.002" ry="8.766" style="fill:#80beff;fill-opacity:1;stroke:#000;stroke-width:.986833;stroke-dasharray:none;stroke-opacity:1"/><path d="M228.749 469.725q0 .14-.14.14-.128 0-.17-.154-.028-.168-.098-.881-.028-.112-.113-.168-.169-.098-.746-.098-.155 0-.296.014l.014 2.196q.07.168.226.21.169.042.802.042.31 0 .366.056.014.028.014.084 0 .098-.563.098t-3.153.028q-.14.014-.31.014-.281 0-.281-.14t.408-.126q.479.014.873-.056.169-.028.21-.14.043-.126.043-.532v-1.692q-.281-.014-.647-.014h-.578q-.197 0-.436.014h-.267l-1.788-.042q-.197-.014-.197-.112 0-.07 2.069-2.896.648-.91 2.858-4 .098-.14.197-.14.14 0 .14.265v6.575h.141q.479 0 .746-.056.282-.056.282-.28-.014-.881-.014-.601.014-.504.154-.504.198 0 .198.392v.63l.014 1.007q.014.517.028.657.014.126.014.21zm-2.83-6.24q-.14.225-.59.854-.62.853-1.873 2.546l-1 1.357q.521.042 2.239.042.605 0 1.14-.014v-.993q0-.7.042-1.889.042-1.399.042-1.902z" style="font-size:36.4174px;font-family:&quot;Bodoni 72&quot;;-inkscape-font-specification:&quot;Bodoni 72, &quot;;fill:#000;fill-opacity:1;stroke:#000;stroke-width:.2;stroke-dasharray:none;stroke-opacity:1"/></g><g transform="translate(-313.447 -19.724)"><ellipse cx="242.439" cy="466.74" rx="9.002" ry="8.766" style="fill:#b580ff;fill-opacity:1;stroke:#000;stroke-width:.986833;stroke-dasharray:none;stroke-opacity:1"/><path d="M245.394 468.366q0 1.79-1.38 2.742-.83.573-2.153.573t-1.942-.685q-.338-.378-.338-.895 0-.434.281-.7.282-.28.732-.28.366 0 .606.21.253.21.253.518 0 .517-.69.783-.31.112-.31.252 0 .224.409.406.422.168.929.168.985 0 1.478-.672.675-.923.675-2.49 0-1.147-.534-1.777-.535-.63-1.52-.63-.76 0-1.676.574.085-3.147.127-3.973.014-.475.211-.573.197-.112 1.07-.112h.478q.338.014.535.014h.479q.971 0 1.126-.028.169-.042.211-.238.057-.322.197-.322.141 0 .141.154 0 .098-.014.154l-.028.322q-.07.783-.296.98-.21.181-1.055.181l-2.69-.014q-.055.476-.098 2.868.803-.364 1.676-.364 1.45 0 2.28.77.83.755.83 2.084z" style="font-size:36.4174px;font-family:&quot;Bodoni 72&quot;;-inkscape-font-specification:&quot;Bodoni 72, &quot;;fill:#000;stroke:#000;stroke-width:.2;stroke-dasharray:none"/></g><g transform="translate(-366.971 -97.08)"><ellipse cx="273.804" cy="466.74" rx="9.002" ry="8.766" style="fill:#ec80ff;fill-opacity:1;stroke:#000;stroke-width:.986833;stroke-dasharray:none;stroke-opacity:1"/><path d="M276.571 468.394q0 1.357-.83 2.322-.83.965-1.985.965-1.45 0-2.35-1.189-.901-1.189-.901-3.091 0-1.749.76-3.19.774-1.44 2.055-2.098 1.07-.546 2.337-.546.295 0 .295.112 0 .098-.197.112-1.267.112-2.238.91-1.267 1.035-1.492 3.525.774-.728 1.745-.728.789 0 1.478.42 1.323.797 1.323 2.476zm-1.45.042q0-2.602-1.618-2.602-.732 0-1.126.63-.394.615-.394 1.734 0 1.609.577 2.602.366.63 1.07.63 1.492 0 1.492-2.994z" style="font-size:36.4174px;font-family:&quot;Bodoni 72&quot;;-inkscape-font-specification:&quot;Bodoni 72, &quot;;fill:#000;fill-opacity:1;stroke:#000;stroke-width:.2;stroke-dasharray:none;stroke-opacity:1"/></g><circle cx="-116.136" cy="436.581" r=".002" style="fill:#ffa1a1;stroke:#000;stroke-width:.999999"/><path d="M48.848 40.505c.86-.142 1.736-.097 2.603-.084 1.438.026 2.876.05 4.314.059 1.453.003 2.906.005 4.358.005l3.919.008c1.073.001 2.147-.002 3.22.017.308.006.617.01.925.02v-1.565c-.308.009-.617.014-.925.02-1.073.019-2.147.015-3.22.016-1.307.002-2.613.007-3.919.01-1.45 0-2.9.002-4.35-.009-1.43-.01-2.861-.019-4.292-.065-.946-.031-1.895-.084-2.84.015l.207 1.552z" style="fill:#fcff80;fill-opacity:1;stroke:#000;stroke-width:.291042" transform="rotate(-.255 73687.692 86380.658) scale(3.77953)"/><path d="M52.412 35.779c-.683.603-1.429 1.13-2.166 1.663-.54.396-1.088.77-1.723.99a1.519 1.519 0 0 0-.823.445c-.052.238-.157.47-.154.714.004.382.848.956 1.098 1.15.998.747 2.01 1.475 2.98 2.258.217.196.453.369.673.56l.967-1.225c-.238-.172-.483-.334-.707-.525-.985-.75-1.992-1.473-2.954-2.253-.446-.378-.156-.123-.52-.462l-.064-.056c-.005-.005-.016-.019-.014-.013.155.46.128.06-.086.861-.05.049-.064.069-.122.1-.023.012-.098.027-.074.018.115-.045.24-.063.352-.12.748-.301 1.42-.73 2.06-1.218.763-.558 1.529-1.11 2.28-1.684l-1.003-1.203z" style="fill:#fcff80;fill-opacity:1;stroke:#000;stroke-width:.291042" transform="rotate(-.255 73687.692 86380.658) scale(3.77953)"/><path d="M49.141 54.146c-.166-.863-.12-1.75-.103-2.624.008-1.344.051-2.806.07-4.15.013-1.461-.023-2.923-.06-4.384-.028-1.105-.083-2.209-.05-3.314l-1.522-.033c-.016 1.131.05 2.26.087 3.39.045 1.437.081 2.876.057 4.314-.03 1.341-.053 2.8-.075 4.141-.03.99-.079 1.988.057 2.973l1.54-.313z" style="fill:#8dff80;fill-opacity:1;stroke:#000;stroke-width:.291042" transform="rotate(-.255 73687.692 86380.658) scale(3.77953)"/><path d="M44.278 51.633c.745.815 1.383 1.721 2.016 2.625.409.625.81 1.256 1.184 1.902.23.416.441.465 1.096.418.235-.016.394-.377.513-.538.479-.721 1.091-1.34 1.684-1.967a46.425 46.425 0 0 0 1.566-1.665l-1.198-.988c-.439.58-.947 1.1-1.45 1.623-.648.675-1.321 1.333-1.878 2.088-.296.42-.008-.014.14-.007.293.016.576.116.856.205.033.01.09.09.056.088-.035-.003-.04-.059-.06-.088-.432-.641-.86-1.286-1.293-1.927-.67-.95-1.345-1.9-2.065-2.814l-1.167 1.044z" style="fill:#8dff80;fill-opacity:1;stroke:#000;stroke-width:.291042" transform="rotate(-.255 73687.692 86380.658) scale(3.77953)"/><path d="M48.506 56.943c1.464-.264 2.965-.275 4.448-.327 3.54-.054 7.082.014 10.623.053 3.77.061 7.54.037 11.311.036 2.484-.024 4.969.041 7.452.004.503-.01 1.005-.031 1.507-.053l-.12-1.535c-.476.055-.953.096-1.431.12-2.469.114-4.943.085-7.413.134-3.764.031-7.528.032-11.291.005-3.558-.044-7.115-.159-10.673-.177-1.587.023-3.185.014-4.762.218l.349 1.522z" style="fill:#80edff;fill-opacity:1;stroke:#000;stroke-width:.291042" transform="rotate(-.255 73687.692 86380.658) scale(3.77953)"/><path d="M79.931 53.652c.904.326 1.673.954 2.448 1.507.66.51 1.372.955 1.99 1.517l.077.076c.118.121-.04-.011-.03-.037.172-.414.391-.805.587-1.208-1.14.216-2.17.865-3.116 1.51-.502.373-1 .758-1.437 1.208l1.166 1.056c.318-.4.735-.712 1.126-1.034.693-.493 1.487-1.024 2.342-1.16.686-1.23.977-1.025.293-1.6-.685-.548-1.434-1.005-2.134-1.533-.92-.663-1.82-1.407-2.891-1.812l-.421 1.51z" style="fill:#80edff;fill-opacity:1;stroke:#000;stroke-width:.291042" transform="rotate(-.255 73687.692 86380.658) scale(3.77953)"/><path d="M85.43 55.976c-.04-1.402-.047-2.806-.056-4.209-.037-2.197.084-4.39.185-6.583.073-1.582.115-3.166.156-4.75.014-.512.006-.278.022-.701l-1.553-.017c.009.417.005.186.01.69a110.8 110.8 0 0 1-.093 4.688c-.093 2.223-.2 4.446-.185 6.673-.01 1.403-.015 2.807-.055 4.21h1.568z" style="fill:#80beff;fill-opacity:1;stroke:#000;stroke-width:.291042" transform="rotate(-1.355 13615.373 16104.164) scale(3.77953)"/><path d="M82.677 44.057a43.984 43.984 0 0 0 2.169-3.568c.185-.361.39-.714.549-1.09.007-.02.045-.066.023-.062-.455.075-.9.206-1.353.284-.019.003-.045-.061-.037-.044.175.369.411.714.63 1.057.677 1.042 1.482 1.991 2.326 2.9-.046-.04.48.489.37.405l1.301-.893c-.168-.215-.37-.392-.572-.576-.805-.794-1.55-1.653-2.136-2.626-.172-.294-.33-.584-.478-.89-.045-.091-.035-.268-.137-.274-1.314-.075-1.629.625-1.417.164-.07.333-.298.626-.408.943-.571 1.14-1.204 2.265-2.016 3.253l1.186 1.017z" style="fill:#80beff;fill-opacity:1;stroke:#000;stroke-width:.291042" transform="rotate(-1.355 13615.373 16104.164) scale(3.77953)"/><path d="M84.736 38.833c-.87.127-1.75.133-2.626.153-1.37.067-2.741.044-4.112.071-1.365.028-2.729.031-4.093-.004a220.064 220.064 0 0 0-3.838-.184c-.55-.022-1.102-.04-1.653-.066l-.01 1.571a35.373 35.373 0 0 1 1.625-.005c1.282.026 2.562.097 3.843.16 1.385.038 2.77.04 4.154.01 1.37-.03 2.737-.012 4.105-.066.936-.01 1.875-.01 2.809-.088l-.204-1.552z" style="fill:#b580ff;fill-opacity:1;stroke:#000;stroke-width:.291042" transform="rotate(-.255 73687.692 86380.658) scale(3.77953)"/><path d="M74.25 42.624c-.714-.683-1.484-1.308-2.234-1.95-.72-.655-1.482-1.26-2.33-1.74-.283-.112-.427-.365-.132.03.077.715.128.266-.194.878-.007.014.03-.009.044-.014.067-.025.132-.053.198-.076.253-.09.508-.173.76-.26.955-.369 1.88-.82 2.732-1.388.243-.17.485-.347.665-.585l.085-.162-1.478-.576.077-.145c.17-.208-.18.223-.233.203-.706.523-1.502.915-2.329 1.209-.579.184-1.571.329-1.805.994-.062.177.021.374.031.56.064.097.122.197.191.29.153.2.444.29.654.405.774.388 1.447.932 2.087 1.51.674.584 1.361 1.16 1.985 1.797l1.226-.98z" style="fill:#b580ff;fill-opacity:1;stroke:#000;stroke-width:.291042" transform="rotate(-.255 73687.692 86380.658) scale(3.77953)"/><path d="M-111.488 466.913c-.535-5.007-.407-10.078-.259-15.113.39-8.959.54-17.93.626-26.9.081-9.815.092-19.63.116-29.445.016-7.786.046-15.572.061-23.357-.182-6.698-.298-13.402-.559-20.095-.177-5.54-.567-11.09-.423-16.638.073-1.395.068-1.553.18-2.847.085-.976-.023-1.17.14-.795l-5.682-2.247c-.32 1.897-.388 3.814-.408 5.759-.011 5.72.363 11.432.568 17.144.244 6.57.365 13.148.56 19.721.02 7.784.056 15.568.07 23.352.017 9.778.024 19.558-.077 29.336-.123 8.895-.31 17.789-.757 26.668-.221 5.472-.373 10.958-.027 16.429l5.871-.972z" style="fill:#ec80ff;fill-opacity:1;stroke:#000;stroke-width:1.1"/><path d="M-126.236 345.052c2.397-2.848 4.886-5.618 7.395-8.367 1.306-1.364 2.555-2.787 3.904-4.11.217-.213.881-.908 1.253-1.022-.136.092-.246.258-.409.275-.798.084-1.634-.197-2.407.02-.422.117.844.271 1.282.294.738.04 1.23-.195 1.835-.534.218-.122-.45.218-.676.327-.589-.004-1.178.015-1.766-.015-.115-.004-.398-.209-.322-.123.736.833 1.58 1.617 2.337 2.432 2.385 2.617 4.884 5.146 7.092 7.918.309.49 1.953 2.453 1.99 3.057.005.103-.106-.178-.158-.267l-.146-1.333 5.917.917-.12-1.503c-.732-1.672-1.862-3.138-3.004-4.549-2.337-2.776-4.907-5.347-7.282-8.09-.83-.957-2.895-3.841-4.25-4.077-.66-.115-1.337-.068-2.005-.101-2.016.887-.005-.103.736-.045.384.03 1.499.236 1.118.29-.861.123-1.743-.161-2.609-.077-.262.026-.455.264-.682.397-2.162 1.803-3.83 4.108-5.793 6.11-2.453 2.68-4.9 5.367-7.432 7.973l4.202 4.201z" style="fill:#ec80ff;fill-opacity:1;stroke:#000;stroke-width:1.1"/><path d="M-151.971 457.262c.522.285 1.016.311 1.592.156.11-.027.22-.052.302-.13.028-.027.083-.104.083-.156-.027-.467-.989-.311-1.263-.233" style="display:inline;fill:none;stroke:#000;stroke-width:.999999;stroke-dasharray:none;stroke-opacity:1"/><path d="M-159.35 450.248c.966-.553 2.039-1.02 3.187-1.115.266-.023.654-.026.92 0 .58.057 1.34.188 1.446.915.11.747-.426 1.337-.928 1.804-.44.409-.814.646-1.31.928.385.06 1.116.184 1.522.352.765.316 1.428.727 1.835 1.37.481.761.263 1.426-.412 1.953-.449.35-1.098.615-1.575.74-1.096.291-2.23.362-3.37.29-.503-.03-1.193-.181-1.518-.318a3.455 3.455 0 0 1-.73-.399" style="display:inline;fill:none;fill-opacity:1;stroke:#000;stroke-width:.999999;stroke-linecap:butt;stroke-linejoin:miter;stroke-miterlimit:4;stroke-dasharray:none;stroke-opacity:1"/><path d="M-161.125 454.508h-.386c-.71 0-1.42-.008-2.13-.015-.73-.008-1.46-.008-2.189.023-.396.011-.793.022-1.19.03M-148.518 456.964c1.302.38 2.651.561 3.969.417.99-.107 1.767-.322 2.52-.787.463-.288.617-.806.387-1.253-.48-.935-1.445-1.577-2.406-2a7.36 7.36 0 0 0-.74-.266c-.246-.061-.287-.03.013-.113.23-.134.742-.348.973-.47.788-.417 1.314-.923 1.563-1.66.122-.362.066-.846-.36-1.118-.61-.391-1.55-.44-2.269-.384a11.59 11.59 0 0 0-3.881 1.004" style="display:inline;fill:none;stroke:#000;stroke-width:.999999;stroke-dasharray:none"/><g style="stroke-width:.199627;stroke-dasharray:none"><path d="M60.34 29.033c.044-.067.093-.132.133-.188.208-.294.41-.591.61-.888a6.29 6.29 0 0 1 .362-.489.03.03 0 0 0 .008-.019c0-.027-.132-.018-.15-.019a19.957 19.957 0 0 0-1.646.002" style="display:inline;fill:none;stroke:#000;stroke-width:.199627;stroke-dasharray:none" transform="matrix(4.95057 0 0 5.06883 -436.768 310.617)"/><path d="M60.335 28.3c.208-.003.335.01.543.007.076-.001.17.002.215 0 .008 0 .139-.005.158-.008" style="display:inline;fill:#000;stroke:#000;stroke-width:.199627;stroke-dasharray:none" transform="matrix(4.95057 0 0 5.06883 -436.768 310.617)"/></g><g style="display:inline;stroke-width:3.99346;stroke-dasharray:none"><path d="M-698.623-3366.226c-1.298-.16-2.924.066-4.477.16-6.92.424-11.25.877-18.25 1.137" style="fill:none;stroke:#000;stroke-width:3.99346;stroke-dasharray:none;stroke-opacity:1" transform="matrix(.26487 0 0 .23674 59.429 1246.11)"/><path d="M-722.041-3336.057c.11 1.695 2.161 1.931 3.452 2.419 5.983 2.257 12.145 1.713 18.033.343 3.1-.722 6.557-2.392 7.683-5.607 1.097-3.133-.41-6.367-2.215-8.836-3.398-4.652-9.65-7.174-15.36-6.695-1.805.15-3.6.397-5.298 1.144-1.65.725-3.238 1.513-4.567 2.705-.295-.236-.132-1.545-.124-2.32l.124-12.716" style="fill:none;stroke:#000;stroke-width:3.99346;stroke-dasharray:none;stroke-opacity:1" transform="matrix(.26487 0 0 .23674 59.429 1246.11)"/></g><path d="M-216.887 504.422c.566-.16.728-.44.607-1-.04-.08-.122-.2-.202-.24-.243-.2-.687-.08-.809.2-.121.32-.08.8-.04 1.08" style="display:inline;fill:none;stroke:#000;stroke-width:.999999;stroke-dasharray:none;stroke-opacity:1"/><path d="m-213.885 504.127.026-.042c.183-.32.35-.648.517-.976.623-1.232 1.148-2.51 1.677-3.783.265-.637.525-1.275.777-1.917.065-.163.219-.551.28-.741.023-.074.044-.15.059-.226a.685.685 0 0 0 .016-.152c-.008-.255-.344-.246-.522-.245-.983.004-1.962.13-2.945.15-1.037.023-2.074.04-3.112.03" style="display:inline;fill:none;stroke:#000;stroke-width:.999999;stroke-dasharray:none"/><path d="M-209.812 500.03c-.646.1-1.31.04-1.866.064-1.032.01-2.066.015-3.095.083" style="display:inline;fill:#000;stroke:#000;stroke-width:.999999;stroke-dasharray:none"/><path d="M-233.75 501.572c.93 0 1.86.02 2.79.027.787.008 1.574.011 2.361.015h.236M-218.833 504.017a6.563 6.563 0 0 0-.114-.063c-.913-.276-1.877-.336-2.825-.4-1.319-.037-2.643 0-3.932.306-.368.085-.747.156-1.073.353v.064c0 .01.019-.015.029-.023.104-.067.215-.124.322-.186a11.828 11.828 0 0 0 2.413-1.91c.466-.481.65-.66 1.079-1.18a18.194 18.194 0 0 0 1.7-2.42c.286-.493.853-1.418.574-2.021a.607.607 0 0 0-.164-.212.88.88 0 0 0-.264-.14c-.769-.278-1.727-.114-2.516.07-.971.228-1.941.5-2.842.935" style="display:inline;fill:none;stroke:#000;stroke-width:.999999;stroke-dasharray:none"/><path d="M245.73 253.878c-.524.117-1.047.354-1.606.7-.924.57-1.927 1.651-2.358 2.522-.237.48-.445.982-.536 1.498-.181 1.035-.246 1.778.445 2.87.789 1.248 2.468 1.859 4.06 1.704.551-.053 1.127-.162 1.592-.42 1.865-1.03 2.62-2.579 1.906-4.493-.384-1.03-1.035-1.757-1.766-2.377a9.075 9.075 0 0 0-1.882-1.253" style="display:inline;fill:none;fill-opacity:1;stroke:#000;stroke-width:.999999;stroke-linecap:butt;stroke-linejoin:miter;stroke-miterlimit:4;stroke-dasharray:none;stroke-opacity:1"/><path d="M237.252 262.138c.64-.031 1.318-.062 1.996 0 .076 0 .15 0 .188.032.15.062-.037.218-.075.25-.264.28-.67.456-1.055.562-.52.144-1.451.277-1.356-.375.096-.647.716-.719 1.394-.906" style="display:inline;fill:none;stroke:#000;stroke-width:.999995;stroke-dasharray:none;stroke-opacity:1"/><path d="M267.56 254.523c-.391-.08-.893-.063-1.37-.079-2.12-.072-3.454-.064-5.595-.184" style="display:inline;fill:none;stroke:#000;stroke-width:1;stroke-dasharray:none;stroke-opacity:1"/><path d="M260.387 262.43c.034.478.65.585 1.057.681 1.797.425 3.719.412 5.522.027.949-.203 2.007-.673 2.352-1.579.336-.882-.125-1.792-.678-2.487-1.04-1.31-2.955-2.02-4.703-1.885-.553.043-1.103.112-1.622.322-.505.205-.992.426-1.399.762-.09-.067-.04-.435-.038-.653l.038-3.58" style="display:inline;fill:none;stroke:#000;stroke-width:1;stroke-dasharray:none;stroke-opacity:1"/><path d="M228.882 259.996a2.27 2.27 0 0 1 1.423-1.2c1.084-.296 2.261-.264 3.34.039 1.093.306 1.997 1.368 1.864 2.489-.108.91-1.002 1.505-1.847 1.752-1.277.373-2.745.362-3.923-.274a2.624 2.624 0 0 1-1.23-1.48c-.45-1.356-.076-2.83.54-4.078.758-1.54 1.9-2.95 3.407-3.857.272-.163.571-.282.879-.367M252.703 263.075c.251-.39.54-.766.77-1.087 1.214-1.687 2.385-3.399 3.56-5.108a36.225 36.225 0 0 1 2.11-2.813.18.18 0 0 0 .042-.108c.004-.156-.766-.105-.87-.11a117.92 117.92 0 0 0-4.725-.099c-1.625.005-3.25.022-4.873.109" style="display:inline;fill:none;stroke:#000;stroke-width:.999999;stroke-dasharray:none"/><path d="M252.8 258.73c1.212-.017 2.423.058 3.634.042.443-.008.992.012 1.253 0 .047 0 .341-.028.451-.045" style="display:inline;fill:#000;stroke:#000;stroke-width:.999999;stroke-dasharray:none"/><path d="M275.993 262.597c-.116.083-.232.168-.332.235-.538.325-1.122.544-1.73.578-.541.03-1.003-.007-1.518-.248-.684-.318-1.22-.878-1.448-1.61a3.037 3.037 0 0 1-.083-1.408 3.215 3.215 0 0 1 1.292-2.103c.156-.113.33-.223.503-.306.156-.076.356-.142.526-.177.652-.133 1.116.005 1.506.472M153.208 197.12c-.116.084-.232.17-.333.236-.537.325-1.12.544-1.729.578-.541.03-1.003-.007-1.519-.247-.683-.32-1.22-.88-1.447-1.61a3.037 3.037 0 0 1-.083-1.409 3.215 3.215 0 0 1 1.292-2.103c.155-.112.33-.223.503-.306.156-.075.356-.142.526-.176.651-.133 1.115.004 1.506.471M240.49 140.1c-.114.082-.23.167-.331.234-.537.325-1.122.545-1.73.578-.54.03-1.003-.007-1.518-.247-.683-.32-1.22-.879-1.447-1.61a3.037 3.037 0 0 1-.084-1.409 3.215 3.215 0 0 1 1.292-2.102c.156-.113.33-.224.503-.307.156-.075.356-.142.526-.176.652-.133 1.116.004 1.506.472" style="display:inline;fill:none;fill-opacity:1;stroke:#000;stroke-width:1.07053;stroke-linecap:butt;stroke-linejoin:miter;stroke-miterlimit:4;stroke-dasharray:none;stroke-opacity:1"/><path d="M347.432 194.471c1.34-.152 2.686-.23 4.032-.284a78.654 78.654 0 0 1 3.237-.069c.389 0 .53-.087.314.309-.594 1.083-1.052 2.23-1.492 3.379-.6 1.565-1.216 3.124-1.815 4.69-.218.57-.46 1.132-.636 1.717-.024.083-.013.046-.028.111" style="display:inline;fill:none;stroke:#000;stroke-width:.999999;stroke-dasharray:none"/><path d="m354.7 198.965-1.103.034c-1.047.035-2.095.07-3.138.156M350.47 199.216c1.04-.09 2.085-.124 3.13-.16.367-.012.735-.021 1.103-.031" style="display:inline;fill:#000;stroke:#000;stroke-width:.999999;stroke-dasharray:none"/><path d="M345.12 204.154a31.024 31.024 0 0 0-4.157-.56c-1.64-.066-3.303-.086-4.915.31-.152.044-.456.07-.55.254-.008.015.03-.013.043-.02.055-.037.181-.138.221-.168.84-.697 1.617-1.482 2.37-2.292 1.293-1.395 2.666-3.027 3.801-4.831.277-.441 1.101-1.798.733-2.408-.164-.271-.42-.321-.68-.38a2.598 2.598 0 0 0-.561-.048c-1.451-.008-2.525.19-3.818.886-1.048.564-2.006 1.232-2.784 2.23" style="display:inline;fill:none;stroke:#000;stroke-width:.999999;stroke-dasharray:none"/><path d="M346.922 202.58c.419-.053.863-.106 1.306 0 .05 0 .098 0 .123.052.099.105-.024.367-.05.42-.172.471-.437.765-.69.944-.34.241-.949.465-.886-.63.062-1.087.468-1.206.911-1.52" style="display:inline;fill:none;stroke:#000;stroke-width:.999995;stroke-dasharray:none;stroke-opacity:1"/><path d="M361.066 203.563c-.115.083-.231.168-.332.235-.537.325-1.121.544-1.73.578-.54.03-1.003-.007-1.518-.248-.683-.319-1.22-.878-1.447-1.61a3.037 3.037 0 0 1-.084-1.408 3.215 3.215 0 0 1 1.292-2.103c.156-.113.33-.223.503-.306.157-.076.356-.142.526-.177.652-.133 1.116.005 1.506.472" style="display:inline;fill:none;fill-opacity:1;stroke:#000;stroke-width:1.07053;stroke-linecap:butt;stroke-linejoin:miter;stroke-miterlimit:4;stroke-dasharray:none;stroke-opacity:1"/><path d="M319.585 65.15c-.43.07-.867.144-1.237.17-1.533.106-3.318-.122-4.454-1.04-.38-.307-.731-.68-.842-1.098-.131-.492-.056-1.163.134-1.636.27-.673.783-1.245 1.43-1.68 1.01-.682 2.342-1.02 3.373-.896" style="fill:none;fill-opacity:1;stroke:#000;stroke-width:.999999;stroke-linecap:butt;stroke-linejoin:round;stroke-miterlimit:4;stroke-dasharray:none;stroke-dashoffset:0;stroke-opacity:1"/><path d="M269.846 60.876c1.188-.467 2.556-.573 3.785-.2.895.272 1.65.926 2.094 1.713.444.786.424 1.85-.236 2.512-.891.893-2.319 1.025-3.544.831-1.416-.225-2.612-1.316-2.88-2.673-.282-1.43.183-2.889.912-4.123.537-.908 1.256-1.72 2.167-2.306.695-.446 1.446-.818 2.25-1.04" style="display:inline;fill:none;stroke:#000;stroke-width:.999999;stroke-dasharray:none"/><path d="M277.092 65.56c.612.332 1.192.363 1.87.181.128-.03.257-.06.354-.151.033-.03.097-.121.097-.182-.034-.544-1.16-.363-1.483-.272" style="display:inline;fill:none;stroke:#000;stroke-width:1;stroke-dasharray:none;stroke-opacity:1"/><path d="M282.247 56.627c.285-.248.501-.331.74-.417 1.331-.472 2.96-.378 4.192.334.307.178.604.409.855.668.24.247.478.56.656.89.763 1.423.57 3.256-.143 4.647-.17.334-.395.662-.627.946-.227.276-.51.533-.798.75-1.109.84-2.65 1.304-4.02.92a3.853 3.853 0 0 1-.913-.363 3.546 3.546 0 0 1-.77-.612c-.977-1.022-1.379-2.506-1.083-3.84.075-.336.199-.623.342-.917.143-.293.31-.56.513-.807.938-1.144 2.227-1.918 3.85-1.976" style="display:inline;fill:none;stroke:#000;stroke-width:.999999;stroke-dasharray:none;stroke-opacity:1"/><path d="M293.573 65.723c.253-.405.542-.797.774-1.133 1.217-1.757 2.392-3.54 3.571-5.322.664-1.003 1.356-1.992 2.115-2.93a.184.184 0 0 0 .043-.113c.004-.163-.768-.11-.872-.114a113.9 113.9 0 0 0-4.74-.104c-1.63.005-3.261.022-4.889.113" style="display:inline;fill:none;stroke:#000;stroke-width:.999999;stroke-dasharray:none"/><path d="M293.718 61.221c1.217-.007 2.433.025 3.65.018.444-.003.995.005 1.257 0 .047 0 .343-.012.454-.02" style="display:inline;fill:#000;stroke:#000;stroke-width:.999999;stroke-dasharray:none"/><path d="M308.711 55.99c-.788.06-1.867.171-2.653.276-1.56.207-3.065.48-4.74.813" style="display:inline;fill:none;stroke:#000;stroke-width:.999999;stroke-dasharray:none;stroke-opacity:1"/><path d="M301.405 65.324c.457.313 1.04.484 1.473.605.414.115.818.142 1.211.159 1.833.078 3.717-.302 5.238-1.332.314-.212.63-.423.87-.7.456-.528.72-.864.734-1.597.018-.89-.641-1.672-1.309-2.164a7.633 7.633 0 0 0-.95-.591c-.564-.294-1.362-.534-2.258-.619a5.924 5.924 0 0 0-3.732.891 3.574 3.574 0 0 0-.72.605c-.033.032-.066.096-.099.128-.066.063-.05-.57.029-.993.157-.86.3-2.355.463-3.596" style="display:inline;fill:none;stroke:#000;stroke-width:.999999;stroke-dasharray:none;stroke-opacity:1"/><path d="M289.86 135.4c1.195-.885 2.481-1.653 3.856-2.222.26-.108.528-.196.792-.294.26-.076 2.013-.67 2.04 0 .006.113-.046.221-.07.332-.085.163-.159.332-.253.49-.852 1.428-2.072 2.718-3.185 3.941-1.082 1.177-2.27 2.241-3.518 3.234-.195.15-.386.307-.583.454-.03.022-.115.045-.085.066.026.02.06.02.092.032 1.254-.295 2.55-.348 3.832-.4a44.102 44.102 0 0 1 5.588.24c.157.019.313.038.47.059" style="display:inline;fill:none;stroke:#000;stroke-width:.999999;stroke-dasharray:none"/><g style="stroke-width:1.04392"><path d="m78.508 36.942.022-.037c.175-.286.37-.561.552-.843.274-.422.562-.835.829-1.261.017-.027.123-.18.096-.232-.008-.017-.026-.023-.043-.026-.225-.03-.456.004-.683.004-.47 0-.94.023-1.411.02" style="display:inline;fill:none;stroke:#000;stroke-width:.276203;stroke-dasharray:none" transform="matrix(3.65897 0 0 3.58248 15.87 8.925)"/><path d="M78.568 35.816c.306-.017.612-.011.918-.006a2.6 2.6 0 0 0 .382-.01" style="display:inline;fill:none;stroke:#000;stroke-width:.276203;stroke-dasharray:none" transform="matrix(3.65897 0 0 3.58248 15.87 8.925)"/></g><path d="M280.889 137.544c1.519-.016 3.036.059 4.555.043.555-.008 1.243.012 1.57 0a9.5 9.5 0 0 0 .566-.045" style="display:inline;fill:#000;stroke:#000;stroke-width:.999999;stroke-dasharray:none"/><path d="M301.571 140.806c-.231-.6-.561-.75-1.18-.568-.087.05-.215.15-.252.24-.203.282-.028.754.298.86.372.104.908.017 1.22-.053" style="display:inline;fill:none;stroke:#000;stroke-width:.999999;stroke-dasharray:none;stroke-opacity:1"/><path d="M316.597 141.167c-.419.067-.842.14-1.202.164-1.488.103-3.222-.118-4.325-1.008-.369-.298-.71-.66-.818-1.064-.128-.478-.054-1.128.13-1.587.262-.653.761-1.208 1.388-1.63.981-.66 2.276-.987 3.276-.868" style="fill:none;fill-opacity:1;stroke:#000;stroke-width:.999999;stroke-linecap:butt;stroke-linejoin:round;stroke-miterlimit:4;stroke-dasharray:none;stroke-dashoffset:0;stroke-opacity:1"/></svg>