<svg xmlns="http://www.w3.org/2000/svg" xmlns:xlink="http://www.w3.org/1999/xlink" width="684" height="120.492" viewBox="0 10 684 120.492"><defs><symbol id="a" overflow="visible" style="overflow:visible"><path d="M.344-3.953h.906L.375.234C.156 1.313-.172 1.86-.594 1.86c-.125 0-.203-.078-.203-.171 0-.016.016-.047.047-.11a.264.264 0 0 0 .047-.156c0-.203-.188-.375-.39-.375-.22 0-.376.172-.376.406 0 .344.36.61.797.61.875 0 1.578-.985 1.985-2.813l.718-3.203h1.094l.063-.313H2.109c.282-1.562.657-2.28 1.204-2.28.14 0 .218.062.218.124 0 .031 0 .047-.031.11a.344.344 0 0 0-.063.203c0 .234.157.39.376.39.218 0 .421-.172.421-.39 0-.375-.375-.657-.859-.657-.5 0-.875.22-1.234.688-.313.39-.5.86-.813 1.812H.422zm0 0" style="stroke:none"/></symbol></defs><circle cx="541.849" cy="63.459" r=".002" style="display:inline;fill:#000;stroke:#000;stroke-width:.59898"/><circle cx="552.996" cy="65.174" r=".002" style="display:inline;fill:#000;stroke:#000;stroke-width:.59898"/><path d="M397.495 22.723V55.52l-16.12-.298c-.106.282-.051.135-.158.44-.306.898-.593 1.801-.727 2.716-.061.52-.12.925-.135 1.453-.04 1.157.114 2.314.393 3.459.515 1.803 1.196 3.587 2.184 5.317.79 1.44 1.65 2.88 1.957 4.394.09.639.144.83.111 1.477-.063 1.213-.392 2.422-.848 3.602-.141.315-.267.632-.422.945-.697 1.409-1.682 2.763-2.94 4.018-.78.716-4.254 3.256-5.282 3.849 7.318.593 13.657.853 21.808 1.123V119.047h87.248v-30.76l15.601-.404c2.286-1.239 4.094-4.568 4.271-5.963.688-5.439-6.212-9.998-6.09-14.827.1-3.945 2.918-9.174 7.738-12.292 0 0-15.758.29-21.52.239V22.723Z" style="fill:#d5ffe6;fill-opacity:1;stroke:none;stroke-width:.0798641;stroke-linecap:square;stroke-linejoin:miter;stroke-miterlimit:4;stroke-dasharray:none;stroke-opacity:1"/><path d="M155.006 199.899h31.186v38.966h110.199V199.9h30.934M155.006 158.526h31.186V118.12h110.199v40.406h30.934" style="fill:none;fill-rule:evenodd;stroke:#000;stroke-width:3.67329px;stroke-linecap:butt;stroke-linejoin:miter;stroke-opacity:1" transform="translate(248.202 -71.887) scale(.79864)"/><use xlink:href="#a" width="100%" height="100%" x="217.415" y="156.682" style="fill:#000;fill-opacity:1" transform="matrix(7.45583 0 0 7.45583 -1189.631 -1079.284)"/><path d="M537.043 22.723V55.52l-17.654-.298s-2.628 2.755-2.555 6.865c.126 7.078 7.163 8.99 6.36 14.314-.82 5.454-3.427 9.012-6.513 11.303l19.77.057.413 31.286h87.249l.638-30.76s10.302-1.786 15.414-1.035c.106-.282.051-.136.158-.442.306-.897.592-1.8.726-2.715.062-.521.123-.925.137-1.453.039-1.158-.116-2.313-.394-3.458-.515-1.803-1.197-3.588-2.184-5.318-.79-1.44-1.648-2.88-1.956-4.394-.091-.639-.144-.83-.112-1.477.064-1.213.393-2.422.849-3.602.14-.315.267-.633.422-.945.697-1.41 1.682-2.763 2.94-4.019.78-.715 1.596-1.418 2.625-2.01l-3.732-2.873a49.43 49.43 0 0 0-2.009 1.321l.438-.827h-13.96V22.723Z" style="fill:#e5d5ff;fill-opacity:1;stroke:none;stroke-width:.0798641;stroke-linecap:square;stroke-linejoin:miter;stroke-miterlimit:4;stroke-dasharray:none;stroke-opacity:1"/><g style="fill:#e3d7f4;fill-opacity:1"><path d="M155.006 199.899h31.186v38.966h110.199V199.9h30.934M155.006 158.526h31.186V118.12h110.199v40.406h30.934" style="fill:#e3d7f4;fill-opacity:1;fill-rule:evenodd;stroke:#000;stroke-width:3.67329px;stroke-linecap:butt;stroke-linejoin:miter;stroke-opacity:1" transform="translate(387.75 -71.887) scale(.79864)"/></g><path d="M598.416 61.705V58.8h-4.467c-.224 0-.596-.149-1.192-.595-2.01-1.415-4.467-2.085-7.296-2.085-7.519 0-14.964 5.137-14.964 12.73 0 3.872 1.713 6.552 5.882 8.041-4.02 1.862-5.733 4.095-5.733 6.254 0 .968.67 2.085 2.01 2.904-7.296 4.392-8.71 6.402-8.71 10.199 0 5.36 4.839 8.04 12.433 8.04 9.901 0 15.634-4.764 15.634-11.241 0-4.467-3.425-7.743-10.572-9.455-3.276-.82-5.286-1.787-5.286-3.127 0-1.564 1.415-3.052 2.68-3.052.15 0 .298 0 .522.074.67.149 1.489.223 2.308.223 6.923 0 13.773-5.956 13.773-12.21 0-1.265 0-2.456-.67-3.796zm-8.86 1.34c0 3.127-.968 6.18-2.457 8.71-1.786 3.053-3.797 4.393-6.328 4.393-2.829 0-4.467-2.085-4.467-5.584 0-7.37 4.467-12.805 9.083-12.805 2.755 0 4.17 1.34 4.17 5.286zm-2.01 32.608c0 3.797-4.02 6.999-10.05 6.999-5.956 0-9.456-2.383-9.456-7.594 0-1.712.373-2.904 1.49-4.318 1.042-1.34 4.169-3.871 4.839-3.871.819.297 1.563.52 2.53.818 7.967 2.457 10.647 4.542 10.647 7.966z" style="font-style:italic;font-variant:normal;font-weight:400;font-stretch:normal;font-size:22.5px;line-height:1.25;font-family:STIXGeneral;-inkscape-font-specification:&quot;STIXGeneral Italic&quot;;fill:#000;stroke-width:.598981"/><path d="M166.763 22.723H61.55V55.52l-16.12-.298c-.106.282-.05.135-.158.44-.306.898-.592 1.801-.726 2.716-.062.52-.121.925-.136 1.453-.04 1.157.115 2.314.393 3.459.515 1.803 1.197 3.587 2.184 5.317.79 1.44 1.65 2.88 1.958 4.394.09.639.143.83.11 1.477-.063 1.213-.392 2.422-.848 3.602-.14.315-.267.632-.422.945-.697 1.409-1.682 2.763-2.94 4.018-.78.716-4.253 3.256-5.282 3.849 7.318.593 13.657.853 21.808 1.123V119.047h66.773" style="fill:#d5ffe6;fill-opacity:1;stroke:none;stroke-width:.0796646;stroke-linecap:square;stroke-linejoin:miter;stroke-miterlimit:4;stroke-dasharray:none;stroke-opacity:1"/><path d="M128.144 119.047h107.462v-30.76l15.6-.404c2.286-1.239 4.095-4.568 4.271-5.963.689-5.439-6.212-9.998-6.09-14.827.1-3.945 2.919-9.174 7.739-12.292 0 0-15.759.29-21.52.239V22.723h-68.843" style="fill:#e5d5ff;fill-opacity:1;stroke:none;stroke-width:.0796646;stroke-linecap:square;stroke-linejoin:miter;stroke-miterlimit:4;stroke-dasharray:none;stroke-opacity:1"/><path d="M155.006 158.526h31.186V118.12H404.67v40.406h30.934M155.006 199.9h31.186v38.966H404.67V199.9h30.934" style="fill:none;fill-rule:evenodd;stroke:#000;stroke-width:3.67329px;stroke-linecap:butt;stroke-linejoin:miter;stroke-opacity:1" transform="translate(-87.742 -71.887) scale(.79864)"/><use xlink:href="#a" width="100%" height="100%" x="217.415" y="156.682" style="fill:#000;fill-opacity:1" transform="matrix(7.45583 0 0 7.45583 -1525.576 -1079.284)"/><path d="M207.54 61.705V58.8h-4.466c-.224 0-.596-.149-1.191-.595-2.01-1.415-4.467-2.085-7.296-2.085-7.52 0-14.965 5.137-14.965 12.73 0 3.872 1.713 6.552 5.882 8.041-4.02 1.862-5.733 4.095-5.733 6.254 0 .968.67 2.085 2.01 2.904-7.296 4.392-8.71 6.402-8.71 10.199 0 5.36 4.839 8.04 12.433 8.04 9.901 0 15.634-4.764 15.634-11.241 0-4.467-3.425-7.743-10.572-9.455-3.275-.82-5.286-1.787-5.286-3.127 0-1.564 1.415-3.052 2.68-3.052.15 0 .298 0 .522.074.67.149 1.489.223 2.308.223 6.923 0 13.773-5.956 13.773-12.21 0-1.265 0-2.456-.67-3.796zm-8.859 1.34c0 3.127-.968 6.18-2.457 8.71-1.786 3.053-3.796 4.393-6.328 4.393-2.829 0-4.467-2.085-4.467-5.584 0-7.37 4.467-12.805 9.083-12.805 2.755 0 4.17 1.34 4.17 5.286zm-2.01 32.608c0 3.797-4.02 6.999-10.05 6.999-5.956 0-9.455-2.383-9.455-7.594 0-1.712.372-2.904 1.489-4.318 1.042-1.34 4.169-3.871 4.839-3.871.819.297 1.563.52 2.53.818 7.967 2.457 10.647 4.542 10.647 7.966z" style="font-style:italic;font-variant:normal;font-weight:400;font-stretch:normal;font-size:22.5px;line-height:1.25;font-family:STIXGeneral;-inkscape-font-specification:&quot;STIXGeneral Italic&quot;;fill:#000;stroke-width:.598981"/><circle cx="147.279" cy="71.37" r="6.377" style="fill:none;fill-opacity:.995968;stroke:#000;stroke-width:2.99489;stroke-linecap:square;stroke-miterlimit:4;stroke-dasharray:none;stroke-opacity:1"/><g style="font-style:normal;font-variant:normal;font-weight:400;font-stretch:normal;font-size:22.5px;line-height:1.25;font-family:STIXGeneral;-inkscape-font-specification:STIXGeneral;stroke-width:.22064"><path d="M357.181-83.138v-1.485H343.93v1.485zm0 4.5v-1.485H343.93v1.485z" aria-label="=" style="font-style:normal;font-variant:normal;font-weight:400;font-stretch:normal;font-family:STIXGeneral;-inkscape-font-specification:STIXGeneral;stroke-width:.22064" transform="matrix(2.71474 0 0 2.71474 -635.714 292.9)"/></g><path d="M632.393 44.674c-.01 1.45.047 2.9.093 4.348-.007.305.03.61.032.914 0 .057-.066.174-.01.169.753-.071.532-.091.542-.46 0-.128.024-.256.037-.384.24-1.198.88-2.272 1.766-3.107a3.67 3.67 0 0 1 .514-.427c.197-.127.409-.257.663-.198.408.093.65 1.119.71 1.437.206 1.077.213 2.303.007 3.264a7.079 7.079 0 0 1-.267.936l.576.304c.14-.355.236-.865.303-1.23.186-1.019.21-2.308-.03-3.441-.12-.566-.31-1.257-.79-1.65-.57-.466-1.115-.173-1.62.177-.2.138-.378.306-.552.476-.958.934-1.643 2.125-1.881 3.448-.037.547-.248 1.052.626.845.069-.016.007-.14.007-.211-.007-.304-.035-.607-.034-.91-.046-1.444-.103-2.888-.089-4.332z" style="fill:#000;fill-opacity:1;stroke:#000;stroke-width:.419286;stroke-linecap:square;stroke-miterlimit:4;stroke-dasharray:none;stroke-opacity:1"/><g style="stroke-width:.442236;stroke-dasharray:none"><path d="M796.929 52.445c.156.04.209.198.27.255-.065.086-.167.25-.273.3-.263.128-.67.207-.954.09-.067-.028-.116-.088-.175-.133-.032-.037-.091-.063-.097-.112-.009-.071.03-.142.059-.208.14-.311.519-.404.826-.422l.067-.635c-.603.012-1.539.399-1.57 1.109-.009.17.056.397.119.494.084.13.181.26.31.348.585.402 1.462.247 1.984-.182a.85.85 0 0 0 .252-.323c.18-.441-.053-.886-.413-1.074zM797.047 59.589l-.07-1.281c-.079-1.272-.181-2.544-.226-3.818l-.637.033c.05 1.286.152 2.569.23 3.853.024.425.046.851.068 1.277z" style="fill:#000;fill-opacity:1;stroke:#000;stroke-width:.442236;stroke-linecap:square;stroke-miterlimit:4;stroke-dasharray:none;stroke-opacity:1" transform="matrix(.9514 0 0 .94482 -127.883 -5.363)"/></g><path d="M378.379 43.887c-.883.42-1.696 1.017-2.214 1.863-.12.195-.205.407-.308.611-.056.22-.137.434-.168.658-.124.886.215 1.805.829 2.446.151.159.336.282.504.423.168.103.324.229.504.31.813.365 1.702.254 2.495-.1.189-.083.363-.195.545-.292.826-.547 1.488-1.36 1.45-2.404-.006-.18-.055-.355-.083-.532-.24-.765-.673-1.477-1.318-1.969-.107-.081-.225-.147-.337-.22-.64-.331-1.275-.233-1.927-.013l.123.592v0c.482-.186.96-.309 1.455-.086a3.241 3.241 0 0 1 1.413 1.817c.024.133.065.264.071.399.04.785-.458 1.406-1.055 1.85-.768.443-1.6.832-2.495.457-.159-.066-.296-.175-.444-.262-.14-.111-.294-.207-.42-.334-.511-.509-.813-1.257-.716-1.98.025-.184.09-.361.136-.542.09-.177.165-.361.269-.53.432-.697 1.102-1.191 1.816-1.57l-.125-.592zM382.274 44.645c.006 1.11.045 2.236.308 3.32.064.26.153.514.229.77.294.729.63 1.632 1.42 1.963.159.066.333.118.505.109.203-.01.39-.11.586-.165.2-.172.425-.318.598-.517.79-.905.968-2.485 1.12-3.636.048-.467.054-.482.082-.91.01-.15.016-.282.019-.43 0-.018.016-.054 0-.053-.205.01-.406.055-.608.083-.038 1.248.224 2.475.548 3.672.233.72.437 1.49.895 2.107.091.099.043.055.141.134l.365-.485v0c.013.024.011.017-.02-.01-.43-.547-.577-1.279-.805-1.92-.309-1.14-.56-2.312-.52-3.502-.2-.013-.4-.035-.6-.038-.01 0 0 .019 0 .028 0 .052 0 .104-.005.155-.016.377-.05.754-.092 1.129-.125.931-.233 1.926-.658 2.78-.185.372-.341.53-.59.823-.101.056-.192.144-.305.17-.774.174-1.307-1.157-1.503-1.672-.072-.24-.155-.476-.214-.719-.256-1.05-.29-2.141-.292-3.218l-.603.032z" style="fill:#000;fill-opacity:1;stroke:#000;stroke-width:.419286;stroke-linecap:square;stroke-miterlimit:4;stroke-dasharray:none;stroke-opacity:1"/><g style="stroke-width:.525;stroke-dasharray:none"><path d="M486.457 50.441c.052 2.372.205 4.742.297 7.113.046 1.286.086 2.573.108 3.86v.268l.808-.046v0-.273a209.891 209.891 0 0 0-.114-3.873c-.093-2.363-.246-4.725-.29-7.088l-.808.04z" style="fill:#000;fill-opacity:1;stroke:#000;stroke-width:.525;stroke-linecap:square;stroke-miterlimit:4;stroke-dasharray:none;stroke-opacity:1" transform="translate(.922 2.004) scale(.79864)"/><path d="M483.797 54.067c1.952.088 3.907.037 5.86.012a393.84 393.84 0 0 0 1.718-.026l.067-.83v0c-.571.013-1.143.02-1.714.03-1.934.026-3.871.077-5.804-.007l-.128.821z" style="fill:#000;fill-opacity:1;stroke:#000;stroke-width:.525;stroke-linecap:square;stroke-miterlimit:4;stroke-dasharray:none;stroke-opacity:1" transform="translate(.922 2.004) scale(.79864)"/></g><g style="stroke-width:.525;stroke-dasharray:none"><path d="M301.869 53.712c.076 0 .153.013.216.018.055.014.336.14.344.167.012.036-.008.075-.015.113-.107.339-.683.423-.98.4-.175-.013-.396-.092-.57-.148-.503-.1.197-.483.661-.553l-.004-.782c-.507.073-1.684.5-1.511 1.356a.9.9 0 0 0 .226.428c.122.13.287.215.448.29.603.278 1.424.234 1.97-.163.148-.107.29-.23.393-.381a.813.813 0 0 0 .137-.396c.03-.454-.295-.82-.682-.989a1.46 1.46 0 0 0-.416-.111zM302.261 61.464l-.024-.483c-.088-1.715-.172-3.431-.325-5.143l-.808.108c.157 1.7.235 3.404.323 5.107l.023.482z" style="fill:#000;fill-opacity:1;stroke:#000;stroke-width:.525;stroke-linecap:square;stroke-miterlimit:4;stroke-dasharray:none;stroke-opacity:1" transform="translate(.539 2.004) scale(.79864)"/></g><path d="M249.15 51.19c.133-1.087.198-2.28.11-3.245-.05-.547-.122-1.041-.383-1.54-.3-.576-.873-.914-1.527-.771-.249.054-.497.14-.713.275-.468.294-.78.586-1.137 1.093-.668.948-.91 2.1-1.087 3.222-.024.196-.174.42-.072.588.1.164.57.391.541.201-.07-.463-.098-.933-.159-1.398-.173-1.634-.342-3.269-.524-4.902l-.598.091c.186 1.632.354 3.266.526 4.9l.07.64c.027.256.04.515.089.77.007.044 0 .147.044.13.227-.093.476-.2.616-.4.112-.162.047-.39.07-.586.17-1.049.388-2.136 1.034-3.012.318-.43.577-.675 1.016-.913.334-.181.786-.242 1.096.073.404.413.46 1.12.505 1.646.089 1.038.02 2.082-.121 3.117z" style="fill:#000;fill-opacity:1;stroke:#000;stroke-width:.419286;stroke-linecap:square;stroke-miterlimit:4;stroke-dasharray:none;stroke-opacity:1"/><path d="M691.637 30.7a5.2 5.2 0 0 0-1.621 2c-.093.205-.157.423-.235.635-.216.795-.324 1.635-.151 2.452.09.425.176.56.353.946.26.49.653.868 1.103 1.181l.307-.407c-.386-.26-.726-.578-.95-.992-.152-.326-.235-.456-.312-.815-.16-.743-.057-1.508.14-2.23.071-.193.13-.39.214-.577a4.71 4.71 0 0 1 1.506-1.825zM701.85 28.132a2.646 2.646 0 0 0-1.65.665c-.118.102-.213.226-.32.34-.531.68-.781 1.538-.648 2.399.025.16.08.313.12.47.073.14.129.292.22.421.406.578 1.116.879 1.798.963.186.023.375.015.563.023.873-.079 1.75-.378 2.374-1.02.101-.105.184-.226.276-.34.064-.124.145-.241.194-.373.195-.521.125-1.089-.115-1.58-.06-.126-.142-.24-.213-.36-.421-.553-1-1.055-1.682-1.255-.135-.04-.276-.053-.414-.079-.385-.046-.753.023-1.125.112l.062.506c.307-.086.612-.151.935-.125.108.015.219.02.325.047.58.149 1.102.596 1.463 1.055.381.623.527 1.11.14 1.78-.076.091-.144.19-.229.275-.514.518-1.21.773-1.925.853-.163-.003-.326.008-.489-.007-.542-.053-1.15-.266-1.49-.717-.074-.098-.12-.213-.18-.32-.034-.129-.081-.254-.103-.386a2.609 2.609 0 0 1 .553-2.042c.454-.472.829-.76 1.508-.797l.053-.508z" style="fill:#000;fill-opacity:1;stroke:none;stroke-width:.419286;stroke-linecap:square;stroke-miterlimit:4;stroke-dasharray:none;stroke-opacity:1"/><path d="M881.46 51.639a10.349 10.349 0 0 0-2.092 2.609c-.561 1.006-.904 2.181-.657 3.341.045.21.114.416.192.616.421 1.067 1.378 1.646 2.38 2.095.083.038.17.067.254.1l.271-.577-.228-.088c-.665-.293-1.4-.65-1.826-1.265a2.576 2.576 0 0 1-.248-.471 3.025 3.025 0 0 1-.166-.514c-.23-1.03.104-2.08.605-2.969.472-.837 1.2-1.79 2.021-2.488zM888.369 55.618c.319.144.492.295.657.47.153.164.274.364.348.575.34.959-.35 1.669-1.198 1.956a3.042 3.042 0 0 1-.843.176c-.542.022-1.051.043-1.708-.245-.727-.319-1.19-.95-1.254-1.743-.02-.252.003-.508.06-.754.057-.246.158-.482.28-.703a2.695 2.695 0 0 1 2.227-1.399l.118-.627c-1.194.025-2.306.65-2.896 1.71a3.35 3.35 0 0 0-.338.837c-.072.299-.105.612-.087.92a2.67 2.67 0 0 0 1.506 2.265c.764.382 2.002.367 2.002.367.33-.003.658-.076.974-.17.866-.258 1.7-.845 1.845-1.804.096-.642-.045-1.14-.482-1.672a2.676 2.676 0 0 0-.806-.648zM897.783 59.57l-.134-.22c-.61-1.095-1.114-2.253-1.294-3.504-.055-.443-.112-.838-.14-1.28-.008-.11.085-.27-.008-.33-.174-.117-.412-.078-.621-.091-.017-.001.007.034.008.052 0 .088.007.176.007.265-.02 1.319-.142 2.66-.753 3.858-.091.179-.413.562-.6.649-.456.21-.956-.046-1.253-.4a2.564 2.564 0 0 1-.358-.588 4.225 4.225 0 0 1-.262-.77c-.305-1.272-.202-2.641.046-3.911l-.629-.107c-.256 1.345-.36 2.791-.04 4.138.07.295.164.587.287.864.11.247.241.489.41.7.41.51 1.186.954 1.851.711.574-.21.805-.45 1.088-.946.684-1.203.83-2.774.851-4.223-.264.217.113-.417-.021-.404-.223.021-.481.03-.648.18-.098.089 0 .265.008.397.03.448.094.895.15 1.34.191 1.324.721 2.55 1.364 3.71l.143.239zM898.882 48.881c.007 2.105.167 4.206.288 6.306.07 1.275.14 2.55.184 3.826.007.152.007.305.01.458l.638-.042v0c0-.157-.007-.313-.011-.47-.047-1.28-.119-2.56-.19-3.838-.121-2.09-.283-4.18-.281-6.273z" style="fill:#000;fill-opacity:1;stroke:#000;stroke-width:.525;stroke-linecap:square;stroke-miterlimit:4;stroke-dasharray:none;stroke-opacity:1" transform="translate(-392.821 -48.315) scale(.79864)"/><path d="m902.293 51.74-1.199.002c-1.776 0-3.552 0-5.328-.002l-.067.635c1.776-.002 3.552-.002 5.328-.001h1.199zM902.997 60.793c.273-.11.131-.055.329-.14.796-.39 1.56-.869 2.064-1.617.099-.146.19-.298.265-.458.435-.934.328-1.965-.046-2.894a6.134 6.134 0 0 0-.305-.64c-.521-.958-1.264-1.785-2.205-2.344l-.338.543c.857.504 1.528 1.259 1.996 2.13.103.191.197.387.276.588.311.788.405 1.664.008 2.443a2.924 2.924 0 0 1-.23.364c-.42.59-1.045.957-1.68 1.278-.209.096-.112.054-.289.128z" style="fill:#000;fill-opacity:1;stroke:#000;stroke-width:.525;stroke-linecap:square;stroke-miterlimit:4;stroke-dasharray:none;stroke-opacity:1" transform="translate(-392.821 -48.315) scale(.79864)"/><path d="M42.497 45.988c.193.035.39.076.549.127.627.2 1.09.599 1.407 1.17.202.364.353.673.332 1.107-.044.863-.731 1.486-1.43 1.756-.562.217-1.056.266-1.811.16-.773-.109-1.547-.557-1.796-1.35a1.716 1.716 0 0 1-.057-.729c.035-.262.134-.516.252-.753.444-.885 1.363-1.67 2.344-1.857l.139-.588a1.4 1.4 0 0 0-.429.04c-1.087.278-2.081 1.124-2.583 2.125-.14.28-.26.579-.304.889-.044.31-.04.635.042.937.275 1.02 1.177 1.653 2.167 1.843.783.15 1.509.083 2.096-.12.956-.33 1.904-1.067 1.958-2.234.029-.626-.096-.938-.371-1.468-.362-.697-.926-1.17-1.665-1.454a3.395 3.395 0 0 0-.65-.172z" style="fill:#000;fill-opacity:1;stroke:#000;stroke-width:.419286;stroke-linecap:square;stroke-miterlimit:4;stroke-dasharray:none;stroke-opacity:1"/><path d="M52.26 50.235a1.66 1.66 0 0 1-.421-.273c-.707-.631-1.168-1.452-1.567-2.308-.225-.482-.29-.617-.43-1.11-.036-.127-.055-.257-.083-.385-.013-.045.013-.133-.033-.137-.609-.055.119.365-.452-.037-.01-.105.018.106.02.201.004.337-.007.675-.05 1.009-.153 1.21-.332 2.264-1.357 3.026-.27.201-.613.304-.972.263-.158-.019-.305-.096-.443-.173-.496-.275-.676-.724-.752-1.26a5.036 5.036 0 0 1-.04-.66c-.007-1.087.21-2.168.51-3.207l-.583-.155c-.31 1.096-.538 2.233-.528 3.378.002.238.01.478.043.714.097.688.352 1.255.956 1.646.175.114.366.218.571.258.603.119 1.018.001 1.383-.22.232-.14.445-.338.639-.529.82-.804 1.073-1.955 1.171-3.048.045-.498.18-1.087-.054-1.56-.102-.046-.197-.164-.305-.138a.517.517 0 0 0-.324.287c-.058.125-.014.277.003.414.07.59.321 1.146.566 1.676.428.926.942 1.796 1.692 2.489a2 2 0 0 0 .641.41zM54.006 51.02c-.007-.083-.01-.166-.014-.25-.07-1.221-.139-2.443-.206-3.665-.108-1.976-.232-3.953-.247-5.932l-.62.031c.022 1.989.146 3.975.254 5.961l.201 3.667c.008.083.01.167.014.25z" style="fill:#000;fill-opacity:1;stroke:#000;stroke-width:.419286;stroke-linecap:square;stroke-miterlimit:4;stroke-dasharray:none;stroke-opacity:1"/><path d="m56.16 44.022-.382.062c-1.446.238-2.889.494-4.335.73l.027.619c1.444-.241 2.886-.495 4.33-.732l.38-.06z" style="fill:#000;fill-opacity:1;stroke:#000;stroke-width:.419286;stroke-linecap:square;stroke-miterlimit:4;stroke-dasharray:none;stroke-opacity:1"/><path d="M61.189-100.095V-67.3l-16.12-.297c-.106.282-.051.134-.158.44-.306.898-.593 1.8-.726 2.715-.062.521-.122.925-.136 1.453-.04 1.158.114 2.315.393 3.46.515 1.802 1.196 3.586 2.184 5.317.79 1.439 1.65 2.88 1.957 4.394.091.638.144.829.111 1.476-.063 1.214-.392 2.423-.848 3.602-.141.315-.267.633-.422.945-.697 1.41-1.682 2.763-2.94 4.019-.78.715-4.254 3.255-5.282 3.848 7.318.594 13.657.853 21.808 1.124v31.031h174.234V-34.53l15.601-.404c2.286-1.24 4.094-4.568 4.27-5.963.69-5.439-6.211-9.998-6.089-14.828.1-3.945 2.918-9.174 7.738-12.292 0 0-15.758.29-21.52.24v-32.317z" style="fill:#f2f2f2;fill-opacity:1;stroke:none;stroke-width:.0796646;stroke-linecap:square;stroke-linejoin:miter;stroke-miterlimit:4;stroke-dasharray:none;stroke-opacity:1"/><path d="M115.772 133.531 181.877 4.572" style="fill:#e5d5ff;fill-opacity:1;stroke-width:2.26386;stroke-linejoin:round;stroke-miterlimit:2"/><path d="M793.27 60.175c-1.098-.425-2.072-1.09-2.567-1.852-.253-.39-.334-.734-.36-1.198-.05-.965.302-1.875.75-2.7.123-.226.268-.44.421-.646.588-.794 1.355-1.431 2.128-2.036l-.444-.46c-.806.642-1.605 1.314-2.218 2.152a6.227 6.227 0 0 0-.455.704c-.499.92-.896 1.933-.817 3.004.044.595.136.995.41 1.43.739 1.17 1.75 1.786 2.9 2.188zM796.929 52.445c.156.04.209.198.27.255-.065.086-.167.25-.273.3-.263.128-.67.207-.954.09-.067-.028-.116-.088-.175-.133-.032-.037-.091-.063-.097-.112-.009-.071.03-.142.059-.208.14-.311.519-.404.826-.422l.067-.635c-.603.012-1.539.399-1.57 1.109-.009.17.056.397.119.494.084.13.181.26.31.348.585.402 1.462.247 1.984-.182a.85.85 0 0 0 .252-.323c.18-.441-.053-.886-.413-1.074zM799.472 53.046c-.01 1.532.05 3.064.098 4.595-.008.322.032.644.034.966 0 .06-.07.184-.01.178.798-.075.564-.096.575-.485 0-.136.025-.27.039-.406.253-1.266.931-2.402 1.869-3.284.171-.161.345-.324.543-.451.209-.134.434-.271.703-.21.432.099.687 1.183.752 1.52.217 1.138.225 2.433.007 3.449-.065.3-.198.788-.283.989l.61.32c.147-.374.25-.914.32-1.298.197-1.078.222-2.44-.032-3.637-.127-.599-.329-1.328-.836-1.744-.602-.493-1.18-.183-1.715.187a4.65 4.65 0 0 0-.584.503c-1.015.987-1.74 2.246-1.992 3.644-.039.578-.262 1.112.663.893.073-.017.007-.149.007-.223-.007-.321-.038-.641-.035-.963-.05-1.525-.11-3.05-.095-4.576zM805.939 51.7c1.301.973 2.232 2.222 2.74 3.5.526 1.322.407 2.199-.217 3.433-.25.497-.645.95-1.084 1.298l.474.43c.508-.454.886-1.018 1.17-1.511.704-1.227.658-2.885.224-3.939-.631-1.533-1.665-2.76-2.914-3.713zM797.047 59.589l-.07-1.281c-.079-1.272-.181-2.544-.226-3.818l-.637.033c.05 1.286.152 2.569.23 3.853.024.425.046.851.068 1.277z" style="fill:#000;fill-opacity:1;stroke:#000;stroke-width:.525;stroke-linecap:square;stroke-miterlimit:4;stroke-dasharray:none;stroke-opacity:1" transform="translate(.539 -42.427) scale(.79864)"/><g style="stroke-width:.525;stroke-miterlimit:4;stroke-dasharray:none"><path d="M896.075 51.196a5.704 5.704 0 0 0-2.03 2.034c-.135.228-.242.472-.363.708-.437 1.048-.8 2.191-.662 3.343.023.188.073.371.11.557.35 1.086.992 1.634 1.991 2.104.307.128.628.214.954.275l.163-.619v0a3.947 3.947 0 0 1-.814-.218c-.805-.364-1.392-.81-1.674-1.686-.032-.158-.076-.314-.096-.474-.129-1.05.222-2.095.62-3.049.11-.214.209-.436.332-.643a5.159 5.159 0 0 1 1.695-1.735l-.226-.597zM900.523 52.142c-.932.443-1.792 1.074-2.34 1.966-.125.206-.216.43-.324.645-.06.232-.145.458-.178.695-.131.935.227 1.905.875 2.582.16.168.356.298.533.446.178.11.343.242.533.327.86.386 1.798.268 2.636-.104.2-.088.384-.206.576-.31.873-.577 1.572-1.434 1.532-2.537-.008-.19-.058-.374-.088-.561-.253-.808-.711-1.56-1.393-2.079-.112-.086-.237-.155-.356-.233-.675-.349-1.347-.245-2.036-.013l.13.625v0c.51-.197 1.014-.326 1.538-.09a3.422 3.422 0 0 1 1.493 1.917c.025.14.068.279.075.421.042.829-.485 1.485-1.115 1.953-.812.468-1.69.879-2.636.483-.168-.07-.313-.185-.469-.277-.148-.117-.311-.218-.445-.352-.54-.538-.858-1.327-.756-2.09.027-.195.096-.382.145-.573.094-.186.173-.38.283-.558.457-.737 1.165-1.259 1.92-1.659l-.133-.624zM905.438 52.924c.008 1.17.048 2.357.326 3.5.067.274.161.54.242.811.31.768.666 1.72 1.5 2.068.168.07.351.125.533.116.214-.011.413-.116.62-.174.21-.182.448-.336.631-.545.834-.954 1.023-2.619 1.184-3.832.05-.493.056-.508.086-.959.01-.158.017-.298.02-.454 0-.019.017-.057 0-.056-.216.01-.429.059-.643.088-.04 1.315.237 2.609.58 3.87.245.76.461 1.57.945 2.221.096.104.046.058.149.14l.385-.51v0c.014.026.012.018-.02-.01-.455-.577-.61-1.348-.85-2.023-.327-1.203-.593-2.438-.55-3.692-.211-.014-.423-.037-.635-.04-.01 0 0 .02 0 .03 0 .054 0 .109-.006.163-.018.397-.052.794-.098 1.19-.131.981-.246 2.03-.694 2.93-.196.391-.36.557-.623.867-.108.06-.203.151-.323.178-.818.185-1.38-1.219-1.588-1.761-.076-.253-.164-.502-.226-.757-.27-1.108-.306-2.258-.309-3.392l-.637.033zM913.434 49.72c.041 2.006.162 4.012.234 6.018.037 1.089.069 2.178.085 3.267v.227l.638-.039v0-.23c-.02-1.094-.051-2.186-.09-3.279-.073-2-.193-3.998-.229-5.998l-.637.033z" style="fill:#000;fill-opacity:1;stroke:#000;stroke-width:.525;stroke-linecap:square;stroke-miterlimit:4;stroke-dasharray:none;stroke-opacity:1" transform="translate(-345.056 -42.427) scale(.79864)"/><path d="M911.248 52.391c1.645.067 3.292.028 4.937.01l1.448-.02.056-.637v0c-.482.01-.963.016-1.444.023-1.63.02-3.261.06-4.89-.005l-.107.63zM918.677 51.476c.945.94 1.704 2.075 2.242 3.296.113.257.202.523.304.785.057.243.143.481.172.729.123 1.055-.422 1.89-1.062 2.66a4.894 4.894 0 0 1-.613.58l.476.427v0c.24-.208.472-.423.676-.668.763-.952 1.303-1.888 1.137-3.166-.036-.273-.132-.534-.198-.801-.108-.277-.204-.56-.324-.83a11.43 11.43 0 0 0-2.4-3.5l-.41.488z" style="fill:#000;fill-opacity:1;stroke:#000;stroke-width:.525;stroke-linecap:square;stroke-miterlimit:4;stroke-dasharray:none;stroke-opacity:1" transform="translate(-345.056 -42.427) scale(.79864)"/></g><path d="M832.49 52.078c.064 0 .127.01.18.015.045.012.278.115.285.136.01.03-.008.062-.013.093-.089.276-.566.345-.812.327-.145-.011-.33-.076-.473-.121-.417-.082.163-.395.548-.452l-.004-.639c-.42.06-1.397.41-1.253 1.108a.73.73 0 0 0 .187.349c.101.106.238.176.372.236.5.228 1.18.192 1.634-.132.122-.088.24-.188.326-.312a.656.656 0 0 0 .113-.323c.025-.37-.245-.67-.565-.807a1.226 1.226 0 0 0-.345-.09zM832.805 59.32c-.008-.142-.013-.285-.019-.406-.07-1.438-.134-2.877-.255-4.312l-.632.09c.123 1.425.184 2.855.253 4.283.007.134.012.27.018.404zM841.27 59.501c.139-1.148.208-2.409.115-3.427-.052-.577-.13-1.1-.404-1.626-.317-.608-.92-.965-1.61-.815a2.364 2.364 0 0 0-.752.292c-.494.31-.823.619-1.2 1.153-.704 1.002-.958 2.219-1.145 3.404-.025.206-.184.442-.076.62.105.174.6.413.57.213-.074-.49-.103-.986-.167-1.477-.183-1.726-.361-3.452-.552-5.177l-.631.097c.196 1.723.373 3.448.555 5.173l.072.676c.03.271.043.545.094.813.01.048 0 .157.048.138.239-.098.501-.21.649-.423.118-.17.05-.412.074-.618.179-1.108.408-2.255 1.09-3.18.336-.455.609-.714 1.072-.965.352-.191.828-.256 1.155.078.426.435.485 1.181.533 1.737.094 1.096.02 2.199-.128 3.292zM826.987 59.753c-1.527-1.014-1.865-2.382-1.64-4.073.214-1.62 1.176-2.814 2.494-3.792l-.474-.429c-1.503 1.154-2.406 2.466-2.643 4.089-.28 1.912.205 3.645 1.896 4.728zM844.587 52.088c.744.817 1.421 1.863 1.771 2.9.243.72.37 1.405.328 2.175a3.523 3.523 0 0 1-.131.818c-.217.775-.953 1.51-1.387 1.761l.46.443c.798-.478 1.371-1.334 1.56-2.13.084-.351.1-.531.132-.958.06-.799-.103-1.57-.37-2.344-.388-1.125-1.111-2.257-1.93-3.136z" style="fill:#000;fill-opacity:1;stroke:#000;stroke-width:.525;stroke-linecap:square;stroke-miterlimit:4;stroke-dasharray:none;stroke-opacity:1" transform="translate(-416.683 -42.698) scale(.79864)"/><path d="M914.405 51.776c-1.324 1.146-2.6 2.335-2.54 4.104.049 1.402.772 2.242 1.818 2.91.411.263.885.453 1.328.547l.22-.599a3.878 3.878 0 0 1-1.157-.45c-.866-.539-1.628-1.243-1.574-2.359.074-1.519 1.226-2.778 2.335-3.68zM920.644 53.379c.205.038.414.081.582.135.666.21 1.157.633 1.493 1.237.215.386.375.713.352 1.172-.046.913-.775 1.572-1.517 1.858-.595.23-1.12.281-1.921.17-.82-.116-1.641-.59-1.906-1.429a1.81 1.81 0 0 1-.06-.772 2.54 2.54 0 0 1 .268-.796c.471-.936 1.446-1.768 2.486-1.965l.148-.622a1.487 1.487 0 0 0-.455.042c-1.153.295-2.208 1.19-2.74 2.248-.149.296-.276.613-.323.94a2.48 2.48 0 0 0 .044.992c.292 1.08 1.25 1.75 2.3 1.95.83.158 1.6.088 2.223-.126 1.014-.349 2.02-1.13 2.077-2.365.031-.661-.101-.991-.393-1.553-.384-.737-.983-1.238-1.767-1.538a3.609 3.609 0 0 0-.688-.182zM932.27 58.667a1.76 1.76 0 0 1-.414-.333c-.675-.743-1.07-1.657-1.396-2.601-.183-.53-.237-.68-.33-1.215-.023-.136-.029-.275-.044-.413-.008-.05.029-.138-.02-.148-.636-.125.085.397-.472-.089 0-.11.007.114 0 .214a7.926 7.926 0 0 1-.166 1.054c-.296 1.255-.602 2.342-1.769 3.028-.308.182-.68.252-1.055.168-.164-.037-.31-.135-.448-.231-.492-.344-.632-.836-.652-1.408a5.322 5.322 0 0 1 .031-.697c.114-1.143.464-2.254.896-3.313l-.599-.228c-.448 1.117-.816 2.286-.933 3.49-.024.251-.042.504-.034.755.025.734.232 1.359.825 1.837.172.139.362.27.574.335.623.191 1.073.114 1.483-.077.26-.122.507-.307.732-.485.954-.754 1.35-1.935 1.576-3.072.102-.519.31-1.123.116-1.645-.102-.06-.189-.195-.306-.18a.548.548 0 0 0-.374.266c-.075.125-.045.29-.043.436.008.626.21 1.24.41 1.823.348 1.02.794 1.992 1.508 2.804.172.196.392.387.63.503zM934.702 59.26c-.007-.089-.01-.177-.015-.265-.072-1.296-.143-2.592-.212-3.887-.111-2.096-.238-4.193-.254-6.291l-.638.033c.023 2.109.15 4.215.262 6.321l.206 3.888c.008.089.01.178.015.266z" style="fill:#000;fill-opacity:1;stroke:#000;stroke-width:.525;stroke-linecap:square;stroke-miterlimit:4;stroke-dasharray:none;stroke-opacity:1" transform="translate(-696.91 -42.233) scale(.79864)"/><path d="m937.03 52.482-.403.064c-1.53.245-3.058.51-4.588.753l.028.638c1.528-.249 3.054-.51 4.584-.755l.402-.062zM938.492 52.43c.765.417 1.535.93 2.013 1.68a2.7 2.7 0 0 1 .4 1.073c.117.788-.08 1.639-.406 2.354-.079.174-.18.337-.27.506-.308.584-1.446 1.585-1.544 1.66l.584.34c.614-.496 1.154-1.08 1.55-1.764.108-.185.207-.376.292-.572.36-.83.56-1.8.404-2.703-.04-.226-.1-.45-.184-.664a3.494 3.494 0 0 0-.323-.618c-.53-.816-1.36-1.386-2.2-1.846z" style="fill:#000;fill-opacity:1;stroke:#000;stroke-width:.525;stroke-linecap:square;stroke-miterlimit:4;stroke-dasharray:none;stroke-opacity:1" transform="translate(-696.91 -42.233) scale(.79864)"/><path d="M492.936 44.674c-.009 1.45.047 2.9.093 4.348-.007.305.03.61.032.914 0 .057-.065.174-.01.169.754-.071.533-.091.544-.46 0-.128.024-.256.036-.384.24-1.198.88-2.272 1.766-3.107.162-.152.326-.306.514-.427.197-.127.409-.257.663-.198.408.093.65 1.119.71 1.437.206 1.077.213 2.303.006 3.264a7.079 7.079 0 0 1-.267.936l.576.304c.14-.355.236-.865.303-1.23.186-1.019.21-2.308-.03-3.441-.12-.566-.31-1.257-.79-1.65-.57-.466-1.115-.173-1.62.177-.2.138-.378.306-.552.476-.958.934-1.643 2.125-1.88 3.448-.038.547-.249 1.052.625.845.069-.016.006-.14.006-.211-.006-.304-.036-.607-.033-.91-.047-1.444-.103-2.888-.09-4.332z" style="fill:#000;fill-opacity:1;stroke:#000;stroke-width:.419286;stroke-linecap:square;stroke-miterlimit:4;stroke-dasharray:none;stroke-opacity:1"/><g style="stroke-width:.442236;stroke-dasharray:none"><path d="M796.929 52.445c.156.04.209.198.27.255-.065.086-.167.25-.273.3-.263.128-.67.207-.954.09-.067-.028-.116-.088-.175-.133-.032-.037-.091-.063-.097-.112-.009-.071.03-.142.059-.208.14-.311.519-.404.826-.422l.067-.635c-.603.012-1.539.399-1.57 1.109-.009.17.056.397.119.494.084.13.181.26.31.348.585.402 1.462.247 1.984-.182a.85.85 0 0 0 .252-.323c.18-.441-.053-.886-.413-1.074zM797.047 59.589l-.07-1.281c-.079-1.272-.181-2.544-.226-3.818l-.637.033c.05 1.286.152 2.569.23 3.853.024.425.046.851.068 1.277z" style="fill:#000;fill-opacity:1;stroke:#000;stroke-width:.442236;stroke-linecap:square;stroke-miterlimit:4;stroke-dasharray:none;stroke-opacity:1" transform="matrix(.9514 0 0 .94482 -267.213 -5.363)"/></g><path d="M518.567 44.398c-.882.42-1.695 1.017-2.214 1.863-.119.194-.205.407-.307.61-.056.22-.137.435-.168.659-.125.886.214 1.805.828 2.446.152.159.336.282.504.423.168.103.325.229.504.31.814.365 1.702.254 2.496-.1.188-.083.363-.195.545-.292.826-.547 1.487-1.36 1.45-2.405-.006-.179-.055-.354-.083-.53-.24-.766-.674-1.478-1.319-1.97-.106-.081-.224-.147-.337-.22-.639-.331-1.275-.233-1.927-.013l.123.592v0c.483-.186.96-.309 1.456-.086a3.241 3.241 0 0 1 1.413 1.817c.024.133.064.264.07.398.04.786-.458 1.407-1.054 1.85-.769.444-1.6.833-2.496.458-.158-.066-.295-.175-.443-.262-.14-.112-.295-.207-.421-.334-.51-.51-.812-1.257-.716-1.98.025-.184.091-.361.137-.543.09-.176.164-.36.268-.528.433-.698 1.102-1.192 1.817-1.571l-.126-.592zM522.462 44.645c.006 1.11.046 2.236.31 3.32.062.26.151.514.228.77.294.729.63 1.632 1.42 1.963.159.066.333.118.504.109.203-.01.391-.11.587-.165.2-.172.425-.318.598-.517.79-.905.968-2.485 1.12-3.636.047-.467.054-.482.082-.91.01-.15.016-.282.018-.43 0-.018.016-.054 0-.053-.204.01-.405.055-.608.083-.037 1.248.225 2.475.549 3.672.232.72.437 1.49.895 2.107.09.099.043.055.14.134l.366-.485v0c.012.024.011.017-.02-.01-.43-.547-.578-1.279-.805-1.92-.31-1.14-.561-2.312-.52-3.502-.2-.013-.4-.035-.601-.038-.01 0 0 .019 0 .028 0 .052 0 .104-.005.155-.016.377-.049.754-.091 1.129-.125.931-.234 1.926-.658 2.78-.185.372-.341.53-.59.823-.102.056-.192.144-.306.17-.773.174-1.306-1.157-1.503-1.672-.071-.24-.155-.476-.214-.719-.255-1.05-.29-2.141-.292-3.218l-.602.032z" style="fill:#000;fill-opacity:1;stroke:#000;stroke-width:.419286;stroke-linecap:square;stroke-miterlimit:4;stroke-dasharray:none;stroke-opacity:1"/><g style="stroke-width:.525;stroke-dasharray:none"><path d="M662.63 50.441c.053 2.372.205 4.742.297 7.113.047 1.286.087 2.573.108 3.86v.268l.808-.046v0-.273a209.891 209.891 0 0 0-.113-3.873c-.094-2.363-.246-4.725-.291-7.088l-.807.04z" style="fill:#000;fill-opacity:1;stroke:#000;stroke-width:.525;stroke-linecap:square;stroke-miterlimit:4;stroke-dasharray:none;stroke-opacity:1" transform="translate(.411 2.004) scale(.79864)"/><path d="M659.97 54.067c1.952.088 3.908.037 5.86.012a393.84 393.84 0 0 0 1.719-.026l.067-.83v0c-.572.013-1.143.02-1.715.03-1.934.026-3.87.077-5.803-.007l-.128.821z" style="fill:#000;fill-opacity:1;stroke:#000;stroke-width:.525;stroke-linecap:square;stroke-miterlimit:4;stroke-dasharray:none;stroke-opacity:1" transform="translate(.411 2.004) scale(.79864)"/></g></svg>