<svg xmlns="http://www.w3.org/2000/svg" xmlns:xlink="http://www.w3.org/1999/xlink" id="svg133258" width="450" height="260" preserveAspectRatio="none" version="1.1" viewBox="-88.5 -30 450 260"><style id="style133150" type="text/css">.grid{stroke:#9e9ed1;stroke-width:.4}.axes{stroke:#000;stroke-width:.9}.axes-arrows{stroke-width:1.2100000000000002;stroke:#000;fill:none;stroke-linecap:round;stroke-linejoin:round}.dots-open,.graph{stroke-width:1.5;stroke:red;fill:none}.graph{stroke-width:1.7}.none{display:none}</style><defs id="defs133158"><path id="STIXWEBMAIN-30" stroke-width="1" d="M476 330c0-172-63-344-226-344C79-14 24 172 24 336c0 177 69 340 230 340 131 0 222-141 222-346Zm-96-5c0 208-44 325-132 325-83 0-128-118-128-321S164 12 250 12c85 0 130 115 130 313z"/><path id="STIXWEBMAIN-32" stroke-width="1" d="M474 137 420 0H29v12l178 189c94 99 130 175 130 260 0 91-54 141-139 141-72 0-107-32-147-130l-21 5c21 117 85 199 208 199 113 0 185-77 185-176 0-79-39-154-128-248L130 76h234c42 0 63 11 96 67z"/><path id="STIXWEBMAIN-34" stroke-width="1" d="M473 167H370V0h-78v167H12v64l314 445h44V231h103Zm-181 64v343L52 231Z"/><path id="STIXWEBMAIN-36" stroke-width="1" d="m446 684 2-16c-157-26-269-134-296-285 49 38 83 45 127 45 117 0 189-80 189-209 0-64-18-120-51-160-37-46-93-73-159-73-79 0-142 37-177 101-28 51-47 122-47 192 0 108 38 203 109 276 86 90 165 114 303 129zm-68-496c0 128-42 194-135 194-57 0-116-24-116-116 0-152 48-252 142-252 72 0 109 72 109 174z"/><path id="STIXWEBMAIN-2212" stroke-width="1" d="M621 220H64v66h557z"/><path id="STIXWEBMAIN-31" stroke-width="1" d="M394 0H118v15c74 4 95 25 95 80v449c0 34-9 49-30 49-10 0-27-5-45-12l-27-10v14l179 91 9-3V76c0-43 20-61 95-61z"/></defs><g id="grid" transform="translate(-67.907)"><path id="path133160" d="M25 220V0" class="grid"/><path id="path133162" d="M75 220V0" class="grid"/><path id="path133164" d="M125 220V0" class="grid"/><path id="path133166" d="M175 220v-80.576m0-22.046V0" class="grid"/><path id="path133168" d="M225 220V0" class="grid"/><path id="path133170" d="M275 220v-80.576m0-22.046V0" class="grid"/><path id="path133172" d="M325 220V0" class="grid"/><path id="path133174" d="M375 220v-79.574m0-23.048V0" class="grid"/><path id="path133176" d="M0 210h40.938m26.684 0H400" class="grid"/><path id="path133178" d="M0 160h40.938m26.684 0H400" class="grid"/><path id="path133180" d="M0 110h400" class="grid"/><path id="path133182" d="M0 60h54m13.622 0H400" class="grid"/><path id="path133184" d="M0 10h54m13.622 0H400" class="grid"/></g><g id="axes" transform="translate(-67.907)"><path id="path133187" d="M0 110h410.657" class="axes"/><path id="path133189" d="M75 220V-16.396" class="axes"/></g><g id="axes arrows" transform="translate(-67.907)"><path id="path133192" d="M405.739 103.852c0 2.459 3.689 6.148 4.918 6.148-1.23 0-4.918 3.69-4.918 6.148" class="axes-arrows"/><path id="path133194" d="M68.852-11.477c2.459 0 6.148-3.69 6.148-4.919 0 1.23 3.689 4.919 6.148 4.919" class="axes-arrows"/></g><path id="path133197" d="M-67.907 110h21.5m107 0h93m107 0h71.5" class="graph"/><circle id="circle133201" cx="-42.907" cy="110" r="3.5" class="dots-open"/><circle id="circle133207" cx="57.093" cy="110" r="3.5" class="dots-open"/><circle id="circle133209" cx="157.093" cy="110" r="3.5" class="dots-open"/><circle id="circle133215" cx="257.093" cy="110" r="3.5" class="dots-open"/><g id="notch labels" style="stroke:none;fill:#b8b8de" transform="translate(-67.907)"><g id="g133222" transform="matrix(.01903 0 0 -.01903 56.048 135.5)"><use xlink:href="#STIXWEBMAIN-30" id="use133220" x="0" y="0"/></g><g id="g133226" transform="matrix(.01903 0 0 -.01903 170.237 135.5)"><use xlink:href="#STIXWEBMAIN-32" id="use133224" x="0" y="0"/></g><g id="g133230" transform="matrix(.01903 0 0 -.01903 270.237 135.5)"><use xlink:href="#STIXWEBMAIN-34" id="use133228" x="0" y="0"/></g><g id="g133234" transform="matrix(.01903 0 0 -.01903 370.237 136.5)"><use xlink:href="#STIXWEBMAIN-36" id="use133232" x="0" y="0"/></g><g id="g133240" transform="matrix(.01904 0 0 -.01904 42.987 216.432)"><use xlink:href="#STIXWEBMAIN-2212" id="use133236" x="0" y="0"/><use xlink:href="#STIXWEBMAIN-32" id="use133238" x="685" y="0"/></g><g id="g133246" transform="matrix(.01904 0 0 -.01904 42.987 166.432)"><use xlink:href="#STIXWEBMAIN-2212" id="use133242" x="0" y="0"/><use xlink:href="#STIXWEBMAIN-31" id="use133244" x="685" y="0"/></g><g id="g133250" transform="matrix(.01903 0 0 -.01903 56.048 66.429)"><use xlink:href="#STIXWEBMAIN-31" id="use133248" x="0" y="0"/></g><g id="g133254" transform="matrix(.01903 0 0 -.01903 56.048 16.429)"><use xlink:href="#STIXWEBMAIN-32" id="use133252" x="0" y="0"/></g></g><path id="path133476" d="M-39.407 110h93m107 0h93" class="graph"/></svg>