<svg xmlns="http://www.w3.org/2000/svg" xmlns:xlink="http://www.w3.org/1999/xlink" id="svg3232" width="450" height="260" preserveAspectRatio="none" version="1.1" viewBox="-10 -50 450 260"><style id="style3119" type="text/css">.grid{stroke:#9e9ed1;stroke-width:.4}.axes{stroke:#000;stroke-width:.9}.axes-arrows{stroke-width:1.2100000000000002;stroke:#000;fill:none;stroke-linecap:round;stroke-linejoin:round}.dots-open{stroke-width:1.5;stroke:red;fill:none}.none{display:none}</style><defs id="defs3130"><path id="STIXWEBMAIN-30" stroke-width="1" d="M476 330c0-172-63-344-226-344C79-14 24 172 24 336c0 177 69 340 230 340 131 0 222-141 222-346Zm-96-5c0 208-44 325-132 325-83 0-128-118-128-321S164 12 250 12c85 0 130 115 130 313z"/><path id="STIXWEBMAIN-32" stroke-width="1" d="M474 137 420 0H29v12l178 189c94 99 130 175 130 260 0 91-54 141-139 141-72 0-107-32-147-130l-21 5c21 117 85 199 208 199 113 0 185-77 185-176 0-79-39-154-128-248L130 76h234c42 0 63 11 96 67z"/><path id="STIXWEBMAIN-34" stroke-width="1" d="M473 167H370V0h-78v167H12v64l314 445h44V231h103Zm-181 64v343L52 231Z"/><path id="STIXWEBMAIN-36" stroke-width="1" d="m446 684 2-16c-157-26-269-134-296-285 49 38 83 45 127 45 117 0 189-80 189-209 0-64-18-120-51-160-37-46-93-73-159-73-79 0-142 37-177 101-28 51-47 122-47 192 0 108 38 203 109 276 86 90 165 114 303 129zm-68-496c0 128-42 194-135 194-57 0-116-24-116-116 0-152 48-252 142-252 72 0 109 72 109 174z"/><path id="STIXWEBMAIN-2212" stroke-width="1" d="M621 220H64v66h557z"/><path id="STIXWEBMAIN-31" stroke-width="1" d="M394 0H118v15c74 4 95 25 95 80v449c0 34-9 49-30 49-10 0-27-5-45-12l-27-10v14l179 91 9-3V76c0-43 20-61 95-61z"/><clipPath id="trbl_clip_0_400_220_0"><path id="path3121" d="M0 0h400v220H0Z"/></clipPath></defs><g id="grid" transform="translate(8.047 -22.543)"><path id="path3132" d="M25 220V0" class="grid"/><path id="path3134" d="M75 220V0" class="grid"/><path id="path3136" d="M125 220V0" class="grid"/><path id="path3138" d="M175 220V103.298m0-22.047V0" class="grid"/><path id="path3140" d="M225 220V0" class="grid"/><path id="path3142" d="M275 220v-80.576m0-22.046V0" class="grid"/><path id="path3144" d="M325 220V0" class="grid"/><path id="path3146" d="M375 220V103.298m0-23.049V0" class="grid"/><path id="path3148" d="M0 210h40.938m26.684 0H400" class="grid"/><path id="path3150" d="M0 160h40.938m26.684 0H400" class="grid"/><path id="path3152" d="M0 110h400" class="grid"/><path id="path3154" d="M0 60h54m13.622 0H400" class="grid"/><path id="path3156" d="M0 10h54m13.622 0H400" class="grid"/></g><g id="axes" transform="translate(8.047 -22.543)"><path id="path3159" d="M0 110h410.657" class="axes"/><path id="path3161" d="M75 220V-16.396" class="axes"/></g><g id="axes arrows" transform="translate(8.047 -22.543)"><path id="path3164" d="M405.739 103.852c0 2.459 3.689 6.148 4.918 6.148-1.23 0-4.918 3.69-4.918 6.148" class="axes-arrows"/><path id="path3166" d="M68.852-11.477c2.459 0 6.148-3.69 6.148-4.919 0 1.23 3.689 4.919 6.148 4.919" class="axes-arrows"/></g><g id="graphs" transform="translate(8.047 -22.543)"><g id="g3191" clip-path="url(#trbl_clip_0_400_220_0)"><path id="path3169" d="M-75 135h96.5m7-50h93m7 50h93m7-50h93m7 50H425" style="stroke:red;stroke-width:1.7;fill:none"/><circle id="circle3173" cx="25" cy="135" r="3.5" class="dots-open"/><circle id="circle3175" cx="25" cy="85" r="3.5" class="dots-open"/><circle id="circle3177" cx="125" cy="85" r="3.5" class="dots-open"/><circle id="circle3179" cx="125" cy="135" r="3.5" class="dots-open"/><circle id="circle3181" cx="225" cy="135" r="3.5" class="dots-open"/><circle id="circle3183" cx="225" cy="85" r="3.5" class="dots-open"/><circle id="circle3185" cx="325" cy="85" r="3.5" class="dots-open"/><circle id="circle3187" cx="325" cy="135" r="3.5" class="dots-open"/></g></g><g id="g3200" style="fill:#b8b8de;stroke:none" transform="matrix(.01903 0 0 -.01903 178.284 112.225)"><use xlink:href="#STIXWEBMAIN-32" id="use3198" x="0" y="0" transform="translate(0 1898.127)"/></g><g id="g3204" style="fill:#b8b8de;stroke:none" transform="matrix(.01903 0 0 -.01903 278.284 112.958)"><use xlink:href="#STIXWEBMAIN-34" id="use3202" x="0" y="0"/></g><g id="g3208" style="fill:#b8b8de;stroke:none" transform="matrix(.01903 0 0 -.01903 378.284 76.335)"><use xlink:href="#STIXWEBMAIN-36" id="use3206" x="0" y="0"/></g><g id="g3214" style="fill:#b8b8de;stroke:none" transform="matrix(.01904 0 0 -.01904 51.035 193.89)"><use xlink:href="#STIXWEBMAIN-2212" id="use3210" x="0" y="0"/><use xlink:href="#STIXWEBMAIN-32" id="use3212" x="685" y="0"/></g><g id="g3220" style="fill:#b8b8de;stroke:none" transform="matrix(.01904 0 0 -.01904 51.035 143.89)"><use xlink:href="#STIXWEBMAIN-2212" id="use3216" x="0" y="0"/><use xlink:href="#STIXWEBMAIN-31" id="use3218" x="685" y="0"/></g><g id="g3224" style="fill:#b8b8de;stroke:none" transform="matrix(.01903 0 0 -.01903 64.095 43.886)"><use xlink:href="#STIXWEBMAIN-31" id="use3222" x="0" y="0"/></g><g id="g3228" style="fill:#b8b8de;stroke:none" transform="matrix(.01903 0 0 -.01903 64.095 -6.114)"><use xlink:href="#STIXWEBMAIN-32" id="use3226" x="0" y="0"/></g></svg>