<svg xmlns="http://www.w3.org/2000/svg" xmlns:xlink="http://www.w3.org/1999/xlink" width="400" height="80" viewBox="0 -19.992 400 80"><defs><path id="a" stroke-width="1" d="M476 330c0-172-63-344-226-344C79-14 24 172 24 336c0 177 69 340 230 340 131 0 222-141 222-346Zm-96-5c0 208-44 325-132 325-83 0-128-118-128-321S164 12 250 12c85 0 130 115 130 313z"/><path id="b" stroke-width="1" d="M181 43c0-29-26-54-56-54-31 0-55 24-55 55s25 56 56 56c29 0 55-27 55-57z"/><path id="c" stroke-width="1" d="M394 0H118v15c74 4 95 25 95 80v449c0 34-9 49-30 49-10 0-27-5-45-12l-27-10v14l179 91 9-3V76c0-43 20-61 95-61z"/><path id="d" stroke-width="1" d="M474 137 420 0H29v12l178 189c94 99 130 175 130 260 0 91-54 141-139 141-72 0-107-32-147-130l-21 5c21 117 85 199 208 199 113 0 185-77 185-176 0-79-39-154-128-248L130 76h234c42 0 63 11 96 67z"/><path id="e" stroke-width="1" d="m438 681-36-85c-3-7-11-13-27-13H181l-40-85c143-27 193-49 250-128 26-36 35-74 35-127 0-96-30-158-98-208-47-34-102-49-170-49C83-14 31 10 31 48c0 25 17 38 45 38 23 0 42-5 74-31 28-23 51-32 71-32 70 0 135 83 135 169 0 64-22 114-67 150-47 38-117 70-213 70-9 0-12 2-12 8 0 2 1 5 1 5l109 237h207c23 0 32 5 48 26z"/><path id="f" stroke-width="1" d="m597 22-46-47-231 230L89-25 43 21l230 231L43 483l47 46 230-230 231 230 46-45-230-232Z"/><path id="g" stroke-width="1" d="M287 676 59-14H-9l229 690z"/></defs><g transform="matrix(.02742 0 0 -.02742 159.658 30.962)"><use xlink:href="#a" width="100%" height="100%"/><use xlink:href="#b" width="100%" height="100%" x="500"/><use xlink:href="#c" width="100%" height="100%" x="751"/><use xlink:href="#d" width="100%" height="100%" x="1251"/><use xlink:href="#e" width="100%" height="100%" x="1752"/></g><g style="stroke-width:1.47059" transform="matrix(.68 0 0 .68 224.585 -.964)"><g style="stroke-width:1.47059" transform="matrix(.02742 0 0 -.02742 61.747 0)"><use xlink:href="#c" width="100%" height="100%" style="stroke-width:1.47059"/><use xlink:href="#d" width="100%" height="100%" x="500" style="stroke-width:1.47059"/></g><use xlink:href="#f" width="100%" height="100%" x="3475" style="stroke-width:1.47059" transform="scale(.02742 -.02742)"/><use xlink:href="#c" width="100%" height="100%" x="4338" style="stroke-width:1.47059" transform="scale(.02742 -.02742)"/><use xlink:href="#g" width="100%" height="100%" x="4838" style="stroke-width:1.47059" transform="scale(.02742 -.02742)"/><g style="stroke-width:1.47059" transform="matrix(.02742 0 0 -.02742 140.306 0)"><use xlink:href="#c" width="100%" height="100%" style="stroke-width:1.47059"/><use xlink:href="#a" width="100%" height="100%" x="500" style="stroke-width:1.47059"/><use xlink:href="#a" width="100%" height="100%" x="1001" style="stroke-width:1.47059"/></g></g><g style="stroke-width:1.47059" transform="matrix(.68 0 0 .68 144.417 54.164)"><use xlink:href="#e" width="100%" height="100%" x="6618" style="stroke-width:1.47059" transform="scale(.02742 -.02742)"/><use xlink:href="#f" width="100%" height="100%" x="7341" style="stroke-width:1.47059" transform="scale(.02742 -.02742)"/><use xlink:href="#c" width="100%" height="100%" x="8204" style="stroke-width:1.47059" transform="scale(.02742 -.02742)"/><use xlink:href="#g" width="100%" height="100%" x="8704" style="stroke-width:1.47059" transform="scale(.02742 -.02742)"/><g style="stroke-width:1.47059" transform="matrix(.02742 0 0 -.02742 246.301 0)"><use xlink:href="#c" width="100%" height="100%" style="stroke-width:1.47059"/><use xlink:href="#a" width="100%" height="100%" x="500" style="stroke-width:1.47059"/><use xlink:href="#a" width="100%" height="100%" x="1001" style="stroke-width:1.47059"/><use xlink:href="#a" width="100%" height="100%" x="1501" style="stroke-width:1.47059"/></g></g><path d="M182.484 7.79h24.015v27.724h-24.015z" style="fill:none;fill-rule:evenodd;stroke:#f77;stroke-width:1.51181;stroke-miterlimit:4;stroke-dasharray:none;stroke-opacity:.866936"/><path d="M208.256 7.79h12.496v27.724h-12.496z" style="fill:none;fill-rule:evenodd;stroke:#4ae889;stroke-width:1.51181;stroke-miterlimit:4;stroke-dasharray:none;stroke-opacity:.87"/><path d="M195.189 6.985V-6.658h56.02" style="fill:none;stroke:#f77;stroke-width:1.512;stroke-linecap:butt;stroke-linejoin:miter;stroke-miterlimit:4;stroke-dasharray:none;stroke-opacity:.866936"/><circle cx="254.781" cy="-6.739" r="3.505" style="fill:#ff7676;fill-opacity:.87;fill-rule:evenodd;stroke:none;stroke-width:1.88976;stroke-miterlimit:4;stroke-dasharray:none;stroke-opacity:.65098"/><path d="M214.24 36.53v12.035h36.97" style="fill:none;stroke:#4ae889;stroke-width:1.51181;stroke-linecap:butt;stroke-linejoin:miter;stroke-miterlimit:4;stroke-dasharray:none;stroke-opacity:.87"/><circle cx="254.781" cy="48.484" r="3.505" style="fill:#49e788;fill-opacity:.87;fill-rule:evenodd;stroke:none;stroke-width:1.88976;stroke-miterlimit:4;stroke-dasharray:none;stroke-opacity:.65098"/></svg>