<svg xmlns="http://www.w3.org/2000/svg" xmlns:xlink="http://www.w3.org/1999/xlink" width="1174.6" height="250" preserveAspectRatio="none" viewBox="-10 -10 1174.6 250"><style>.grid{stroke:#9e9ed1;stroke-width:.4}.axes{stroke:#000;stroke-width:.9}</style><defs><path id="MJMAIN-2212" stroke-width="1" d="M84 237v13l14 20h581q15-8 15-20t-15-20H98q-14 7-14 20Z"/><path id="MJMAIN-31" stroke-width="1" d="m213 578-13-5q-14-5-40-10t-58-7H83v46h19q47 2 87 15t56 24 28 22q2 3 12 3 9 0 17-6V361l1-300q7-7 12-9t24-4 62-2h26V0h-11q-21 3-159 3-136 0-157-3H88v46h64q16 0 25 1t16 3 8 2 6 5 6 4v517Z"/><path id="MJMAIN-32" stroke-width="1" d="M109 429q-27 0-43 18t-16 44q0 71 53 123t132 52q91 0 152-56t62-145q0-43-20-82t-48-68-80-74q-36-31-100-92l-59-56 76-1q157 0 167 5 7 2 24 89v3h40v-3q-1-3-13-91T421 3V0H50v31q0 7 6 15t30 35q29 32 50 56 9 10 34 37t34 37 29 33 28 34 23 30 21 32 15 29 13 32 7 30 3 33q0 63-34 109t-97 46q-33 0-58-17t-35-33-10-19q0-1 5-1 18 0 37-14t19-46q0-25-16-42t-45-18Z"/><path id="MJMAIN-39" stroke-width="1" d="M352 287q-48-76-120-76-78 0-128 59T44 396q-2 16-2 40v8q0 93 69 162 60 60 132 60h6q4 0 8-1h4q12 0 25-2t37-12 47-32 43-59q43-88 43-226 0-140-60-237-35-56-84-87T208-22q-61 0-100 29T68 93t53 56q22 0 37-14t15-39q0-18-9-31t-16-16-13-5l-4-1q0-2 7-6t26-10 42-5h6q60 0 101 64 39 56 39 194v7Zm-108-39q48 0 77 49t30 133q0 78-8 112-2 10-6 20t-14 26-30 27-47 10q-38 0-65-27-21-22-27-52t-7-105q0-83 5-112t20-47q25-34 72-34Z"/><path id="MJMAIN-36" stroke-width="1" d="M42 313q0 163 81 258t180 95q69 0 99-36t30-80q0-25-14-40t-39-15q-23 0-38 14t-15 39q0 44 47 53-22 22-62 25-71 0-117-60-47-66-47-202l1-4q5 6 8 13 41 60 107 60h4q46 0 81-19 24-14 48-40t39-57q21-49 21-107v-18q0-23-5-43-11-59-64-115T253-22q-28 0-54 8t-56 30-51 59-36 97-14 141Zm215 84q-30 0-52-17t-34-45-17-57-6-62q0-83 12-119t38-58q24-18 53-18 51 0 78 38 13 18 18 45t5 105q0 80-5 107t-18 45q-27 36-72 36Z"/><path id="MJMAIN-33" stroke-width="1" d="M127 463q-27 0-42 17t-16 44q0 55 48 98t116 43q35 0 44-1 74-12 113-53t40-89q0-52-34-101t-94-71l-3-2q0-1 9-3t29-9 38-21q82-53 82-140 0-79-62-138T238-22q-80 0-138 43T42 130q0 28 18 45t45 18q28 0 46-18t18-45q0-11-3-20t-7-16-11-12-12-8-10-4-8-3l-4-1q51-45 124-45 55 0 83 53 17 33 17 101v20q0 95-64 127-15 6-61 7l-42 1-3 2q-2 3-2 16 0 18 8 18 28 0 58 5 34 5 62 42t28 112v8q0 57-35 79-22 14-47 14-32 0-59-11t-38-23-11-12h3q3-1 8-2t10-5 12-7 10-11 8-15 3-20q0-22-14-39t-45-18Z"/><path id="MJMAIN-30" stroke-width="1" d="M96 585q56 81 153 81 48 0 96-26t78-92q37-83 37-228 0-155-43-237-20-42-55-67t-61-31-51-7q-26 0-52 6t-61 32-55 67q-43 82-43 237 0 174 57 265Zm225 12q-30 32-71 32-42 0-72-32-25-26-33-72t-8-192q0-158 8-208t36-79q28-30 69-30 40 0 68 30 29 30 36 84t8 203q0 145-8 191t-33 73Z"/><clipPath id="trbl_clip_0_1154.6_230_0"><path d="M0 0h1154.6v230H0Z"/></clipPath></defs><g id="grid"><path d="M25.3 230v-94.552m0-14.85V0M71.3 230V0M117.3 230V0M163.3 230v-94.55m0-14.852V0M209.3 230V0M255.3 230V0M301.3 230v-94.55m0-14.852V0M347.3 230V0M393.3 230V0M439.3 230v-94.55m0-14.852V0M485.3 230V0M531.3 230V0M577.3 230V0M623.3 230V0M669.3 230V0M715.3 230v-95.426m0-13.976V0M761.3 230V0M807.3 230V0M853.3 230v-95.426m0-13.976V0M899.3 230V0M945.3 230V0M991.3 230v-95.426m0-13.976V0M1037.3 230V0M1083.3 230V0M1129.3 230v-95.42m0-13.982V0M0 207h550.437m22.064 0H1154.6M0 161h1154.6M0 115h1154.6M0 69h1154.6M0 23h563.025m9.476 0H1154.6" class="grid"/></g><g id="axes"><path d="M0 115h1154.6M577.3 230V0" class="axes"/></g><g id="notch labels" style="stroke:none;fill:#b8b8de"><g transform="matrix(.01616 0 0 -.01616 10.921 132.804)"><use xlink:href="#MJMAIN-2212"/><g transform="translate(778)"><use xlink:href="#MJMAIN-31"/><use xlink:href="#MJMAIN-32" x="500"/></g></g><g transform="matrix(.01616 0 0 -.01616 152.964 132.806)"><use xlink:href="#MJMAIN-2212"/><use xlink:href="#MJMAIN-39" x="778"/></g><g transform="matrix(.01616 0 0 -.01616 290.964 132.806)"><use xlink:href="#MJMAIN-2212"/><use xlink:href="#MJMAIN-36" x="778"/></g><g transform="matrix(.01616 0 0 -.01616 428.964 132.806)"><use xlink:href="#MJMAIN-2212"/><use xlink:href="#MJMAIN-33" x="778"/></g><use xlink:href="#MJMAIN-33" transform="matrix(.01615 0 0 -.01615 711.257 132.8)"/><use xlink:href="#MJMAIN-36" transform="matrix(.01615 0 0 -.01615 849.257 132.8)"/><use xlink:href="#MJMAIN-39" transform="matrix(.01615 0 0 -.01615 987.257 132.8)"/><g transform="matrix(.01616 0 0 -.01616 1121.211 132.805)"><use xlink:href="#MJMAIN-31"/><use xlink:href="#MJMAIN-32" x="500"/></g><use xlink:href="#MJMAIN-30" transform="matrix(.01615 0 0 -.01615 562.92 132.8)"/><g transform="matrix(.01616 0 0 -.01616 551.133 212.461)"><use xlink:href="#MJMAIN-2212"/><use xlink:href="#MJMAIN-32" x="778"/></g><use xlink:href="#MJMAIN-32" transform="matrix(.01615 0 0 -.01615 563.72 28.459)"/></g><g id="graphs"><g clip-path="url(#trbl_clip_0_1154.6_230_0)"><path d="M-73.14 115.26C-49.067 67.115-24.993 23.176-.92 23c24.073-.174 48.147 43.447 72.22 91.593 24.227 48.453 48.453 92.637 72.68 92.406 24.073-.23 48.147-44.219 72.22-92.365C240.273 66.487 264.347 22.847 288.42 23c24.073.154 48.147 44.073 72.22 92.22 24.073 48.146 48.147 91.857 72.22 91.78 24.073-.077 48.147-43.927 72.22-92.073C529.153 66.78 553.227 23 577.3 23s48.147 43.78 72.22 91.927c24.073 48.146 48.147 91.996 72.22 92.073 24.073.077 48.147-43.634 72.22-91.78 24.073-48.147 48.147-92.066 72.22-92.22 24.073-.153 48.147 43.487 72.22 91.634 24.073 48.146 48.147 92.135 72.22 92.365 24.227.231 48.453-43.953 72.68-92.406 24.073-48.146 48.147-91.767 72.22-91.592 24.073.174 48.147 44.113 72.22 92.26" style="stroke:red;stroke-width:1.7;fill:none"/></g><g clip-path="url(#trbl_clip_0_1154.6_230_0)"><path d="M-73.14 23c24.073-.136 48.147 43.52 72.22 91.666C23.153 162.812 47.227 206.786 71.3 207c24.227.215 48.453-43.986 72.68-92.439C168.053 66.414 192.127 22.81 216.2 23c24.073.192 48.147 44.147 72.22 92.293 24.073 48.146 48.147 91.822 72.22 91.707 24.073-.115 48.147-44 72.22-92.147C456.933 66.707 481.007 22.962 505.08 23c24.073.038 48.147 43.853 72.22 92s48.147 91.962 72.22 92c24.073.038 48.147-43.707 72.22-91.853C745.813 67 769.887 23.115 793.96 23c24.073-.115 48.147 43.56 72.22 91.707 24.073 48.146 48.147 92.1 72.22 92.292 24.073.192 48.147-43.413 72.22-91.56 24.227-48.452 48.453-92.653 72.68-92.438 24.073.213 48.147 44.187 72.22 92.333s48.147 91.802 72.22 91.666" style="stroke:#00f;stroke-width:1.7;fill:none"/></g><g clip-path="url(#trbl_clip_0_1154.6_230_0)"><path d="M-73.14 114.74C-49.067 162.885-24.993 206.824-.92 207c24.073.174 48.147-43.447 72.22-91.593 24.227-48.453 48.453-92.637 72.68-92.406 24.073.23 48.147 44.219 72.22 92.365 24.073 48.147 48.147 91.787 72.22 91.634 24.073-.154 48.147-44.073 72.22-92.22 24.073-48.146 48.147-91.857 72.22-91.78 24.073.077 48.147 43.927 72.22 92.073C529.153 163.22 553.227 207 577.3 207s48.147-43.78 72.22-91.927C673.593 66.927 697.667 23.077 721.74 23c24.073-.077 48.147 43.634 72.22 91.78 24.073 48.147 48.147 92.066 72.22 92.22 24.073.153 48.147-43.487 72.22-91.634 24.073-48.146 48.147-92.135 72.22-92.365 24.227-.231 48.453 43.953 72.68 92.406 24.073 48.146 48.147 91.767 72.22 91.592 24.073-.174 48.147-44.113 72.22-92.26" style="stroke:#dd0;stroke-width:1.7;fill:none"/></g><g clip-path="url(#trbl_clip_0_1154.6_230_0)"><path d="M-73.14 207c24.073.136 48.147-43.52 72.22-91.666C23.153 67.188 47.227 23.214 71.3 23c24.227-.215 48.453 43.986 72.68 92.439 24.073 48.146 48.147 91.751 72.22 91.56 24.073-.192 48.147-44.147 72.22-92.293C312.493 66.561 336.567 22.885 360.64 23c24.073.115 48.147 44 72.22 92.147 24.073 48.146 48.147 91.891 72.22 91.853 24.073-.038 48.147-43.853 72.22-92s48.147-91.962 72.22-92c24.073-.038 48.147 43.707 72.22 91.853C745.813 163 769.887 206.885 793.96 207c24.073.115 48.147-43.56 72.22-91.707 24.073-48.146 48.147-92.1 72.22-92.292 24.073-.192 48.147 43.413 72.22 91.56 24.227 48.452 48.453 92.653 72.68 92.438 24.073-.213 48.147-44.187 72.22-92.333s48.147-91.802 72.22-91.666" style="stroke:#0c0;stroke-width:1.7;fill:none"/></g></g></svg>