<svg xmlns="http://www.w3.org/2000/svg" xmlns:xlink="http://www.w3.org/1999/xlink" id="svg120997" width="560" height="560" preserveAspectRatio="none" version="1.1" viewBox="-10 -49.925 560 560"><style id="style120915" type="text/css">.axes,.hairlines{stroke:#000;stroke-width:.9}.hairlines{stroke:#999}.axes-arrows{stroke-width:1.1;stroke:#000;fill:none;stroke-linecap:round;stroke-linejoin:round}.axes-labels{stroke:none;fill:#000}.graph{stroke:red;stroke-width:1.7;fill:none}</style><defs id="defs120924"><path id="STIXWEBNORMALI-1D465" stroke-width="1" d="m305 288 45 69c26 40 61 84 111 84 32 0 49-12 49-33 0-19-13-42-39-42-22 0-27 9-44 9-30 0-41-16-55-38l-55-85c30-62 53-197 98-197 16 0 40 14 61 57l14-10C478 87 433-9 375-9c-41 0-60 41-73 77l-40 113-63-98C167 34 138-9 82-9 46-9 30 16 30 38c0 16 13 37 38 37 26 0 22-20 47-20 12 0 38 10 70 59l65 101-33 92c-17 48-43 89-98 89-13 0-28-2-38-6l-3 18 132 33c44-24 63-65 75-98z"/><path id="STIXWEBMAIN-31" stroke-width="1" d="M394 0H118v15c74 4 95 25 95 80v449c0 34-9 49-30 49-10 0-27-5-45-12l-27-10v14l179 91 9-3V76c0-43 20-61 95-61z"/><path id="STIXWEBMAIN-2F" stroke-width="1" d="M287 676 59-14H-9l229 690z"/><path id="STIXWEBMAIN-2212" stroke-width="1" d="M621 220H64v66h557z"/><clipPath id="trbl_clip_0_497_497_0"><path id="path120917" d="M0 0h497v497H0Z"/></clipPath></defs><g id="axes"><path id="path120926" d="M6.675 248.5h509.297" class="axes"/><path id="path120928" d="M255.175 497V-12.297" class="axes"/></g><g id="axes arrows"><path id="path120931" d="M511.668 242.761c0 2.296 3.228 5.739 4.304 5.739-1.076 0-4.304 3.443-4.304 5.739" class="axes-arrows"/><path id="path120933" d="M249.436-7.993c2.296 0 5.739-3.228 5.739-4.304 0 1.076 3.443 4.304 5.738 4.304" class="axes-arrows"/></g><g id="axes labels"><g id="g120938" class="axes-labels" transform="matrix(.01905 0 0 -.01905 529.088 252.6)"><use xlink:href="#STIXWEBNORMALI-1D465" id="use120936" x="0" y="0"/></g><g id="g120946" class="axes-labels" transform="matrix(.01904 0 0 -.01904 242.517 -27.053)"><use xlink:href="#STIXWEBMAIN-31" id="use120940" x="0" y="0"/><use xlink:href="#STIXWEBMAIN-2F" id="use120942" x="500" y="0"/><use xlink:href="#STIXWEBNORMALI-1D465" id="use120944" x="779" y="0"/></g></g><g id="notches" class="axes"><path id="path120949" d="M220.175 254.239V242.76"/><path id="path120951" d="M290.175 242.761v11.478"/><path id="path120953" d="M249.436 283.5h11.477"/><path id="path120955" d="M260.913 213.5h-11.477"/></g><g id="hairlines (attached to notches)"><path id="path120958" d="M290.175 238.663V213.5" class="hairlines"/><path id="path120960" d="M220.175 258.337V283.5" class="hairlines"/><path id="path120962" d="M265.012 213.5h25.163" class="hairlines"/><path id="path120964" d="M245.337 283.5h-25.162" class="hairlines"/></g><g id="graphs"><g id="g120969" clip-path="url(#trbl_clip_0_497_497_0)" transform="translate(6.675)"><path id="path120967" d="M-31.5 252.875c35 .547 70 1.225 105 2.625 11.667.467 23.333 1.02 35 1.75 11.667.73 23.333 1.62 35 2.917 11.667 1.296 23.333 2.916 35 5.833 5.833 1.458 11.667 3.24 17.5 5.833s11.667 5.834 17.5 11.667c3.889 3.889 7.778 8.75 11.667 17.5 1.944 4.375 3.889 9.723 5.833 17.5 1.167 4.667 2.333 10.208 3.5 17.5 1.167 7.292 2.333 16.204 3.5 29.167 1.167 12.963 2.333 29.166 3.5 58.333.875 21.875 1.75 49 2.625 105" class="graph"/></g><g id="g120973" clip-path="url(#trbl_clip_0_497_497_0)" transform="translate(6.675)"><path id="path120971" d="M252.875-31.5c.875 56 1.75 83.125 2.625 105 1.167 29.167 2.333 45.37 3.5 58.333 1.167 12.963 2.333 21.875 3.5 29.167 1.167 7.292 2.333 12.833 3.5 17.5 1.944 7.777 3.889 13.125 5.833 17.5 3.89 8.75 7.778 13.611 11.667 17.5 5.833 5.833 11.667 9.074 17.5 11.667 5.833 2.592 11.667 4.375 17.5 5.833 11.667 2.917 23.333 4.537 35 5.833 11.667 1.297 23.333 2.188 35 2.917 11.667.73 23.333 1.283 35 1.75 35 1.4 70 2.078 105 2.625" class="graph"/></g></g><g id="notch labels" style="stroke:none;fill:#000"><g id="g120980" style="stroke-width:1.11111" transform="matrix(.01714 0 0 -.01714 209.97 236.798)"><use xlink:href="#STIXWEBMAIN-2212" id="use120976" x="0" y="0" style="stroke-width:1.11111"/><use xlink:href="#STIXWEBMAIN-31" id="use120978" x="685" y="0" style="stroke-width:1.11111"/></g><g id="g120984" style="stroke-width:1.11111" transform="matrix(.01713 0 0 -.01713 285.892 270.898)"><use xlink:href="#STIXWEBMAIN-31" id="use120982" x="0" y="0" style="stroke-width:1.11111"/></g><g id="g120990" style="stroke-width:1.11111" transform="matrix(.01714 0 0 -.01714 265.28 289.289)"><use xlink:href="#STIXWEBMAIN-2212" id="use120986" x="0" y="0" style="stroke-width:1.11111"/><use xlink:href="#STIXWEBMAIN-31" id="use120988" x="685" y="0" style="stroke-width:1.11111"/></g><g id="g120994" style="stroke-width:1.11111" transform="matrix(.01713 0 0 -.01713 237.114 219.286)"><use xlink:href="#STIXWEBMAIN-31" id="use120992" x="0" y="0" style="stroke-width:1.11111"/></g></g></svg>