<svg xmlns="http://www.w3.org/2000/svg" xmlns:xlink="http://www.w3.org/1999/xlink" width="600" height="320"><defs><symbol id="a" overflow="visible" style="overflow:visible"><path d="m4.734-1.36-.125-.062c-.375.578-.5.672-.953.672H1.281l1.672-1.766c.89-.921 1.281-1.687 1.281-2.453 0-1-.812-1.765-1.859-1.765-.547 0-1.063.218-1.422.609-.328.344-.469.656-.64 1.375l.203.047C.922-5.687 1.28-6 1.969-6c.828 0 1.406.563 1.406 1.406 0 .782-.469 1.703-1.297 2.594L.297-.125V0h3.89Zm0 0" style="stroke:none"/></symbol><symbol id="b" overflow="visible" style="overflow:visible"><path d="M6.563-2.297c.171 0 .359 0 .359-.203 0-.188-.188-.188-.36-.188h-5.39c-.172 0-.344 0-.344.188 0 .203.172.203.344.203zm0 0" style="stroke:none"/></symbol><symbol id="c" overflow="visible" style="overflow:visible"><path d="M4-1.11c-.078.094-.125.157-.219.266-.219.313-.344.406-.453.406-.14 0-.234-.124-.312-.406-.016-.078-.032-.14-.032-.172-.25-1.015-.359-1.468-.359-1.609.438-.781.797-1.219.969-1.219.062 0 .14.031.25.078.11.079.187.094.265.094.204 0 .344-.14.344-.36 0-.202-.172-.359-.406-.359-.438 0-.813.36-1.5 1.422l-.11-.547c-.14-.687-.25-.875-.53-.875-.22 0-.548.079-1.157.282l-.11.046.032.141c.39-.078.469-.11.562-.11.25 0 .313.095.454.688l.28 1.235-.812 1.156C.953-.641.75-.47.641-.47a.554.554 0 0 1-.25-.094.755.755 0 0 0-.329-.093c-.187 0-.328.14-.328.344 0 .265.204.421.5.421.297 0 .422-.093.922-.703.266-.312.485-.578.89-1.156L2.36-.562c.125.515.25.671.579.671.374 0 .624-.234 1.203-1.14zm0 0" style="stroke:none"/></symbol><symbol id="d" overflow="visible"><path d="M4.64-1.172c-.546.688-.656.797-.827.797-.079 0-.157-.094-.157-.188 0-.093.156-.718.328-1.234.297-.953.485-1.687.485-1.937 0-.391-.266-.657-.657-.657-.656 0-1.359.657-2.28 2.094l1.187-4.469-.047-.046c-.578.14-.969.203-1.563.265v.156h.25c.016 0 .032 0 .032-.015.14-.047.39.11.39.25s-.062.39-.14.687c-.016 0-.047.14-.11.36L.188 0h.75c.39-1.531.53-1.875.921-2.484.516-.782 1.204-1.407 1.547-1.407.156 0 .281.125.281.25 0 .047-.03.172-.062.329L3.078-1.25c-.14.5-.203.797-.203.922 0 .266.172.422.438.422.5 0 .859-.266 1.453-1.14zm0 0" style="stroke:none"/></symbol><symbol id="g" overflow="visible"><path d="M4-1.11c-.078.094-.125.157-.219.266-.219.313-.344.406-.453.406-.14 0-.234-.124-.312-.406-.016-.078-.032-.14-.032-.172-.25-1.015-.359-1.468-.359-1.609.438-.781.797-1.219.969-1.219.062 0 .14.031.25.078.11.079.187.094.265.094.204 0 .344-.14.344-.36 0-.202-.172-.359-.406-.359-.438 0-.813.36-1.5 1.422l-.11-.547c-.14-.687-.25-.875-.53-.875-.22 0-.548.079-1.157.282l-.11.046.032.141c.39-.078.469-.11.562-.11.25 0 .313.095.454.688l.28 1.235-.812 1.156C.953-.641.75-.47.641-.47a.554.554 0 0 1-.25-.094.755.755 0 0 0-.329-.093c-.187 0-.328.14-.328.344 0 .265.204.421.5.421.297 0 .422-.093.922-.703.266-.312.485-.578.89-1.156L2.36-.562c.125.515.25.671.579.671.374 0 .624-.234 1.203-1.14zm0 0" style="stroke:none"/></symbol><symbol id="f" overflow="visible"><path d="M3.297 2.39c0-.03 0-.046-.172-.218C1.891.922 1.562-.968 1.562-2.5c0-1.734.375-3.469 1.61-4.703.125-.125.125-.14.125-.172 0-.078-.031-.11-.094-.11-.11 0-1 .688-1.594 1.954C1.11-4.438.984-3.328.984-2.5c0 .781.11 1.984.657 3.125C2.25 1.844 3.094 2.5 3.203 2.5c.063 0 .094-.031.094-.11zm0 0" style="stroke:none"/></symbol><symbol id="h" overflow="visible"><path d="M2.875-2.5c0-.766-.11-1.969-.656-3.11C1.625-6.827.766-7.483.672-7.483a.107.107 0 0 0-.11.109c0 .031 0 .047.188.234.984.985 1.547 2.563 1.547 4.641 0 1.719-.36 3.469-1.594 4.719-.14.125-.14.14-.14.172 0 .062.046.109.109.109.094 0 1-.688 1.578-1.953.516-1.094.625-2.203.625-3.047Zm0 0" style="stroke:none"/></symbol><symbol id="e" overflow="visible"><path d="M1.86-3.5c.046-.094.077-.156.077-.234 0-.22-.203-.391-.421-.391-.204 0-.344.14-.391.328L.25-.562c0 .015-.031.093-.031.093 0 .078.187.14.25.14.047 0 .047-.03.094-.124zm0 0" style="stroke:none"/></symbol></defs><path d="M-88.897 68.034c0 1-.813 1.813-1.813 1.813a1.811 1.811 0 0 1-1.812-1.813 1.812 1.812 0 1 1 3.625 0zM92.524-68.032a1.814 1.814 0 1 1-3.627-.003 1.814 1.814 0 0 1 3.627.003zM92.524 68.034a1.814 1.814 0 1 1-3.627-.002 1.814 1.814 0 0 1 3.627.002zm0 0" style="fill:none;stroke:red;stroke-width:.79701;stroke-linecap:butt;stroke-linejoin:miter;stroke-miterlimit:10;stroke-opacity:1" transform="matrix(1 0 0 -1 565.947 -571.907)"/><path d="M-88.897 68.034c0 1-.813 1.813-1.813 1.813a1.811 1.811 0 0 1-1.812-1.813 1.812 1.812 0 1 1 3.625 0zM92.524-68.032a1.814 1.814 0 1 1-3.627-.003 1.814 1.814 0 0 1 3.627.003zM92.524 68.034a1.814 1.814 0 1 1-3.627-.002 1.814 1.814 0 0 1 3.627.002zm0 0" style="fill:none;stroke:red;stroke-width:.79701;stroke-linecap:butt;stroke-linejoin:miter;stroke-miterlimit:10;stroke-opacity:1" transform="matrix(1 0 0 -1 777.145 -571.907)"/><path d="M-88.897 68.034c0 1-.813 1.813-1.813 1.813a1.811 1.811 0 0 1-1.812-1.813 1.812 1.812 0 1 1 3.625 0zM92.524-68.032a1.814 1.814 0 1 1-3.627-.003 1.814 1.814 0 0 1 3.627.003zM92.524 68.034a1.814 1.814 0 1 1-3.627-.002 1.814 1.814 0 0 1 3.627.002zm0 0" style="fill:none;stroke:red;stroke-width:.79701;stroke-linecap:butt;stroke-linejoin:miter;stroke-miterlimit:10;stroke-opacity:1" transform="matrix(1 0 0 -1 -1821.846 -1226.526)"/><path d="M-88.897 68.034c0 1-.813 1.813-1.813 1.813a1.811 1.811 0 0 1-1.812-1.813 1.812 1.812 0 1 1 3.625 0zM92.524-68.032a1.814 1.814 0 1 1-3.627-.003 1.814 1.814 0 0 1 3.627.003zM92.524 68.034a1.814 1.814 0 1 1-3.627-.002 1.814 1.814 0 0 1 3.627.002zm0 0" style="fill:none;stroke:red;stroke-width:.79701;stroke-linecap:butt;stroke-linejoin:miter;stroke-miterlimit:10;stroke-opacity:1" transform="matrix(1 0 0 -1 -1610.65 -1226.526)"/><path d="M92.524-68.032a1.814 1.814 0 1 1-3.627-.003 1.814 1.814 0 0 1 3.627.003zm0 0" style="fill:none;stroke:red;stroke-width:.79701;stroke-linecap:butt;stroke-linejoin:miter;stroke-miterlimit:10;stroke-opacity:1" transform="matrix(1 0 0 -1 -1176.5 388.379)"/><path d="M92.524-68.032a1.814 1.814 0 1 1-3.627-.003 1.814 1.814 0 0 1 3.627.003zm0 0" style="fill:none;stroke:red;stroke-width:.79701;stroke-linecap:butt;stroke-linejoin:miter;stroke-miterlimit:10;stroke-opacity:1" transform="matrix(1 0 0 -1 -965.303 388.379)"/><g style="display:inline"><path d="M401.221 191.87V63.248M401.221 306.167v-93.529M350.61 306.167V63.247M300 306.167V63.247M249.39 306.167V63.247M198.779 192V63.247M198.779 306.167v-93.4M294.81 83.493h126.65M178.54 83.493h101.823M178.54 134.097h242.92M178.54 184.707h242.92M178.54 235.318h242.92M294.675 285.928H421.46M178.54 285.928h89.249" style="fill:none;stroke:#9e9ed1;stroke-width:.355732;stroke-linecap:butt;stroke-linejoin:miter;stroke-miterlimit:10;stroke-opacity:1"/><path d="M178.54 184.75h252.092M300 306.167V54.72" style="fill:none;stroke:#000;stroke-width:.711464;stroke-linecap:butt;stroke-linejoin:miter;stroke-miterlimit:10;stroke-opacity:1"/><use xlink:href="#a" width="100%" height="100%" x="347.363" y="587.952" style="fill:#b0b0d9;fill-opacity:1" transform="matrix(1.78536 0 0 1.78536 -223.395 -841.135)"/><use xlink:href="#a" width="100%" height="100%" x="284.15" y="522.187" style="fill:#b0b0d9;fill-opacity:1" transform="matrix(1.78536 0 0 1.78536 -223.395 -843.405)"/><use xlink:href="#b" width="100%" height="100%" x="276.027" y="635.161" style="fill:#b0b0d9;fill-opacity:1" transform="matrix(1.78536 0 0 1.78536 -222.967 -842.85)"/><use xlink:href="#a" width="100%" height="100%" x="283.827" y="635.161" style="fill:#b0b0d9;fill-opacity:1" transform="matrix(1.78536 0 0 1.78536 -222.967 -842.85)"/><path d="M427.82 181.27c.217 1.304 2.609 3.263 3.264 3.48-.655.223-3.047 2.183-3.264 3.487M296.513 57.465c1.304-.216 3.27-2.615 3.487-3.27.216.655 2.176 3.054 3.487 3.27" style="fill:none;stroke:#000;stroke-width:.99605;stroke-linecap:round;stroke-linejoin:round;stroke-miterlimit:10;stroke-opacity:1"/><use xlink:href="#c" width="100%" height="100%" x="378.808" y="577.658" style="fill:#000;fill-opacity:1" transform="matrix(1.97505 0 0 1.97505 -295.65 -951.978)"/><path d="M182.42 120.874c-.689.284-1.067 1.632-1.057 1.641.01.01-.02.177-.019.19.01.286.006.479.127.738.16.341.388.44.72.556.112.004.225.024.336.012.529-.056 1.043-.393 1.38-.79.083-.099.159-.204.224-.316.095-.16.115-.435.102-.656a1.473 1.473 0 0 0-.08-.374 1.877 1.877 0 0 0-.383-.65c-.292-.325-.725-.581-1.187-.532-.16.016-.283.09-.422.159l-.07-.583c.822-.325 1.341-.122 1.98.455.109.097.196.217.276.339.48.721.434 1.66-.004 2.387-.09.11-.17.228-.269.33-.415.431-1.006.772-1.613.812-.139.01-.278-.017-.417-.026-.126-.044-.26-.07-.38-.132-.489-.254-.781-.836-.786-1.376-.002-.295.021-.722.1-1.006.207-.752.628-1.512 1.444-1.767-.002.196-.002.395-.002.589zM185.446 123.724c-.01.208-.06.18-.07.278.017-.034-.129.031-.122.069.008.05.023.038.062.039.055-.025.163-.09.182-.153.005-.017-.024-.065-.029-.047-.15-.117-.011-.01-.15-.117.1-.002.201 0 .299.027.053.027.147.022.16.08.108.531-.12.752-.58.787-.066-.019-.136-.023-.195-.055-.423-.229-.25-.84.123-1.064.243.117.258 0 .32.156zM188.68 120.732c-.447-.023-.814.276-1.13.557-.567.612-.717.85-.81 1.545a.94.94 0 0 0 .01.27c.065.402.284.58.617.77.597.214 1.19.048 1.677-.328.088-.067.056-.193.021-.289-.066-.106-.1-.197-.197-.26-.433-.284-1.005-.157-1.633.085-.049.018-.1.046-.15.06l-.026-.57c.06-.011.116-.057.161-.07.585-.234 1.226-.351 1.826-.064.181.086.483.301.499.56.029.479-.059.821-.374 1.12-.607.396-1.298.562-2 .309-.101-.055-.209-.099-.304-.164-.326-.223-.618-.663-.596-1.076.014-.247.015-.496.078-.736a3.546 3.546 0 0 1 1.049-1.728c.401-.323.852-.623 1.392-.57l-.11.58z" style="opacity:1;fill:#000;fill-opacity:1;stroke:#000;stroke-width:0;stroke-linecap:butt;stroke-linejoin:miter;stroke-miterlimit:4;stroke-dasharray:none;stroke-dashoffset:0;stroke-opacity:1" transform="matrix(1.78536 0 0 1.78536 313.774 2.195)"/><path d="M-89.964 416.637c-.554.356-.84.825-1.088 1.422-.041.136-.09.27-.123.408-.003.01.016.02.016.031.011.45-.02.77.194 1.19.054.106.133.198.2.297.314.299.145.174.502.38l-.187.525c-.433-.238-.228-.095-.612-.434-.084-.112-.182-.214-.252-.335-.461-.79-.313-1.742.002-2.554.305-.626.647-1.136 1.267-1.484l.08.554z" style="opacity:1;fill:#000;fill-opacity:1;stroke:#000;stroke-width:0;stroke-linecap:butt;stroke-linejoin:miter;stroke-miterlimit:4;stroke-dasharray:none;stroke-dashoffset:0;stroke-opacity:1" transform="matrix(1.96836 0 0 1.96836 834.617 -602.666)"/><g style="fill:#000;stroke:#000;stroke-width:.725623"><g stroke="none" style="stroke-width:.725623"><path d="M-89.764 417.128c.183-.204.39-.438.648-.552.047-.02.1-.027.15-.04.325-.007.572.226.853.356.31.105.475.042.67-.206.055-.09.094-.187.13-.286l.212.396a1.318 1.318 0 0 1-.2.315c-.292.272-.56.338-.945.208-.163-.073-.167-.068-.316-.16-.118-.073-.231-.178-.377-.176-.277.1-.484.343-.667.564l-.158-.42zM-89.592 418.143c.28-.18.568-.332.886-.43.309-.072.552.133.82.246.305.104.403.127.623-.12a6.25 6.25 0 0 0 .239-.26l.145.425c-.083.09-.167.18-.257.264-.312.252-.506.25-.874.12-.128-.05-.439-.246-.553-.247-.038 0-.075.012-.112.018-.296.1-.565.252-.825.423l-.092-.44z" style="opacity:1;fill:#000;fill-opacity:1;stroke:#000;stroke-width:0;stroke-linecap:butt;stroke-linejoin:miter;stroke-miterlimit:4;stroke-dasharray:none;stroke-dashoffset:0;stroke-opacity:1" transform="matrix(2.4421 .29985 -.29985 2.4421 1002.564 -771.662)"/></g></g><path d="M-85.572 416.432c.478.352.893.774 1.155 1.253.066.122.113.25.17.374.03.129.075.256.09.386.065.631-.238 1.297-.712 1.794-.093.099-.205.186-.308.278-.356.269-.18.152-.524.358l-.09-.44c.305-.2.147-.086.469-.346.517-.513.034-.006.508-.593.017-.02.055-.027.065-.05.162-.35.202-.709.108-1.075-.048-.118-.086-.239-.144-.354-.23-.457-.617-.859-1.062-1.195l.274-.39z" style="opacity:1;fill:#000;fill-opacity:1;stroke:#000;stroke-width:0;stroke-linecap:butt;stroke-linejoin:miter;stroke-miterlimit:4;stroke-dasharray:none;stroke-dashoffset:0;stroke-opacity:1" transform="matrix(1.96836 0 0 1.96836 834.617 -602.666)"/><path d="M-88.897 68.034c0 1-.813 1.813-1.813 1.813a1.811 1.811 0 0 1-1.812-1.813 1.812 1.812 0 1 1 3.625 0zM92.524-68.032a1.814 1.814 0 1 1-3.627-.003 1.814 1.814 0 0 1 3.627.003zM92.524 68.034a1.814 1.814 0 1 1-3.627-.002 1.814 1.814 0 0 1 3.627.002zm0 0" style="fill:none;stroke:red;stroke-width:.79701;stroke-linecap:butt;stroke-linejoin:miter;stroke-miterlimit:10;stroke-opacity:1" transform="matrix(1 0 0 -1 -2558.222 -862.968)"/><path d="M-88.897 68.034c0 1-.813 1.813-1.813 1.813a1.811 1.811 0 0 1-1.812-1.813 1.812 1.812 0 1 1 3.625 0zM92.524-68.032a1.814 1.814 0 1 1-3.627-.003 1.814 1.814 0 0 1 3.627.003zM92.524 68.034a1.814 1.814 0 1 1-3.627-.002 1.814 1.814 0 0 1 3.627.002zm0 0" style="fill:none;stroke:red;stroke-width:.79701;stroke-linecap:butt;stroke-linejoin:miter;stroke-miterlimit:10;stroke-opacity:1" transform="matrix(1 0 0 -1 -2347.024 -862.968)"/><path d="M-88.897 68.034c0 1-.813 1.813-1.813 1.813a1.811 1.811 0 0 1-1.812-1.813 1.812 1.812 0 1 1 3.625 0zM92.524-68.032a1.814 1.814 0 1 1-3.627-.003 1.814 1.814 0 0 1 3.627.003zM92.524 68.034a1.814 1.814 0 1 1-3.627-.002 1.814 1.814 0 0 1 3.627.002zm0 0" style="fill:none;stroke:red;stroke-width:.79701;stroke-linecap:butt;stroke-linejoin:miter;stroke-miterlimit:10;stroke-opacity:1" transform="matrix(1 0 0 -1 -1912.876 751.937)"/><path d="M-88.897 68.034c0 1-.813 1.813-1.813 1.813a1.811 1.811 0 0 1-1.812-1.813 1.812 1.812 0 1 1 3.625 0zM92.524-68.032a1.814 1.814 0 1 1-3.627-.003 1.814 1.814 0 0 1 3.627.003zM92.524 68.034a1.814 1.814 0 1 1-3.627-.002 1.814 1.814 0 0 1 3.627.002zm0 0" style="fill:none;stroke:red;stroke-width:.79701;stroke-linecap:butt;stroke-linejoin:miter;stroke-miterlimit:10;stroke-opacity:1" transform="matrix(1 0 0 -1 -1701.679 751.937)"/><path d="M687.293 149.31c-2.113 1.547-3.783 3.707-4.354 6.306-.06.272-.007.557-.011.835.076.46.082.939.228 1.382.432 1.31 1.47 2.076 2.808 2.29 1.231.198 1.686-.022 2.88-.284 1.816-.64 3.352-1.741 3.956-3.646.13-.408-.139-1.977-.143-2.01-.188-.466-.32-.96-.566-1.397-.944-1.677-2.713-2.798-4.554-3.239-.347-.083-.708-.093-1.062-.14l.167-1.07c.387.054.78.07 1.16.163 1.984.48 3.887 1.671 4.959 3.441.281.465.445.992.668 1.488.093.512.298 1.017.278 1.538-.09 2.366-1.282 4.268-3.366 5.353-.472.246-.986.398-1.48.597-1.308.26-1.81.485-3.155.255-1.515-.26-2.741-1.11-3.306-2.57-.185-.478-.22-1.001-.331-1.502.108-.804.144-1.62.325-2.41.609-2.659 2.55-4.913 4.719-6.456l.18 1.076z" style="opacity:1;fill:#000;fill-opacity:1;stroke:#000;stroke-width:0;stroke-linecap:butt;stroke-linejoin:miter;stroke-miterlimit:10;stroke-dasharray:none;stroke-dashoffset:0;stroke-opacity:1"/><path d="M765.813 65.767c-.743.208-1.125.266-1.824.704-1.212.76-2.23 1.94-2.862 3.217-.229.46-.364.962-.546 1.443-.085.484-.245.96-.254 1.45-.004.212.138.402.216.599.354.895.41 1.366 1.296 1.893.893.532 1.522.407 2.515.424 1.067-.18 2.126-.403 2.724-1.395.023-.039-.115.044-.136.003-.823-1.634.539.166-.888-1.513-1.065-.885-2.352-1.6-3.783-1.206-.771.212-.896.457-1.446.98l-.289-1.046c.705-.56.86-.809 1.778-1.018 1.61-.368 3.048.361 4.268 1.343.38.41 1.238 1.151 1.247 1.832.03 2.332-1.72 2.776-3.584 3.094-1.17-.04-1.825.084-2.885-.528-2.187-1.263-1.852-3.778-1.302-5.854.213-.497.38-1.016.64-1.49 1.113-2.044 2.874-3.527 5.155-4.023l-.04 1.091z" style="display:inline;opacity:1;fill:#000;fill-opacity:1;stroke:#000;stroke-width:0;stroke-linecap:butt;stroke-linejoin:miter;stroke-miterlimit:10;stroke-dasharray:none;stroke-dashoffset:0;stroke-opacity:1"/><path d="M191.717 94.911c-.082.176-.159.355-.247.527-.496.966-1.05 1.902-1.557 2.862-.448.846-.778 1.513-1.208 2.367-.538 1.016-.99 2.084-1.574 3.076l-.26-.556c.561-.998 1.046-2.036 1.566-3.055.464-.917.733-1.46 1.215-2.37.506-.957 1.055-1.893 1.537-2.862.086-.174.16-.352.24-.528z" style="opacity:1;fill:#000;fill-opacity:1;stroke:#000;stroke-width:0;stroke-linecap:butt;stroke-linejoin:miter;stroke-miterlimit:10;stroke-dasharray:none;stroke-dashoffset:0;stroke-opacity:1" transform="matrix(1.78536 0 0 1.78536 360.982 -43.839)"/><path d="M187.498 100c-.311 1.442-.57 2.895-.84 4.345-.073.356-.084.725-.35-.279-.011-.044.406-.653.414-.664 1.072-1.322 2.263-2.544 3.42-3.792l.192.57c-1.149 1.239-2.338 2.447-3.373 3.784-.195.307-.157.23-.301.509-.024.046-.03.172-.07.139-.417-.344-.35-.405-.279-.769.279-1.45.539-2.903.842-4.347l.345.504z" style="opacity:1;fill:#000;fill-opacity:1;stroke:#000;stroke-width:0;stroke-linecap:butt;stroke-linejoin:miter;stroke-miterlimit:10;stroke-dasharray:none;stroke-dashoffset:0;stroke-opacity:1" transform="matrix(1.78536 0 0 1.78536 360.982 -43.839)"/><path d="M660.34 148.976c-1.54.969-2.691 2.365-3.309 4.08-.143.4-.23.818-.344 1.226.079 1.77.347 3.334 1.953 4.384.315.205.68.32 1.02.48 1.145.278 2.417.354 3.508-.208.423-.217.792-.53 1.151-.84.346-.3.694-.608.955-.983.269-.384.41-.843.615-1.265.097-.458.25-.909.29-1.376.018-.205-.076-.404-.116-.606-.077-.398-.12-.805-.235-1.194-.35-1.177-.888-1.772-1.726-2.61-.91-.688-2.064-1.348-3.24-.883-.71.281-1.148.753-1.71 1.244l-.279-1.047c.709-.567 1.11-.992 1.998-1.283 1.358-.444 2.662.22 3.726 1.005.673.643.993.86 1.473 1.683 1.12 1.924 1.002 3.979.292 6.037-.255.442-.452.923-.765 1.326-.297.382-.668.705-1.048 1.005-1.248.985-2.364 1.39-3.96 1.272-.425-.032-.837-.163-1.255-.245-1.019-.47-1.328-.49-2.104-1.327-.829-.894-1.395-2.22-1.368-3.453.014-.684.173-1.358.259-2.037.137-.421.245-.853.411-1.263a8.55 8.55 0 0 1 3.682-4.208l.125 1.086zM701.906 142.99c-.919 2.728-2.05 5.382-2.83 8.157-.032.17.063.445-.097.513-.157.067.063-.336.081-.506.002-.02-.012.053-.032.048-.587-.172-.27-.22.08-.41 2.119-1.64 4.157-3.388 6.248-5.065a79.008 79.008 0 0 1 3.645-2.782l.27 1.057a75.143 75.143 0 0 0-3.619 2.757c-.846.68-2.01 1.609-2.845 2.3-1.013.84-1.983 1.75-3.053 2.52-.143.104-.297.192-.446.288-.396.204-.607.4-1.04.125-.244-.154.127-1.38.208-1.752.83-2.759 1.952-5.416 2.83-8.159l.6.908z" style="opacity:1;fill:#000;fill-opacity:1;stroke:#000;stroke-width:0;stroke-linecap:butt;stroke-linejoin:miter;stroke-miterlimit:10;stroke-dasharray:none;stroke-dashoffset:0;stroke-opacity:1"/><path d="M327.677 186.204c-.152-.108-.258-.247-.387-.37-.076-.137-.179-.266-.23-.41-.336-.953.146-2.083 1.006-2.803.152-.128.33-.236.494-.353.191-.09.37-.196.574-.266.831-.286 1.78-.24 2.548.133.188.092.345.214.518.321.726.608 1.22 1.44.98 2.278.004.485-.128.957-.518 1.435-.649.801-1.652 1.384-2.949 1.322-.22-.01-.433-.06-.65-.09-.634-.168-.904-.364-1.293-.752 1.223-1.654 3.663.462-.093-.445z" style="display:inline;opacity:1;fill:red;fill-opacity:1;stroke:red;stroke-width:.342788;stroke-linecap:butt;stroke-linejoin:miter;stroke-miterlimit:10;stroke-dasharray:none;stroke-dashoffset:0;stroke-opacity:1"/><path d="M182.581 414.613c1.067.288 2.101.678 3.156 1.005 1.033.353 2.083.639 3.136.921 1.179.338 2.352.649 3.492 1.099.811.402 1.646.742 2.528.995 1.383.395 2.718.928 4.074 1.397a76.654 76.654 0 0 0 4.812 1.627c1.153.39 2.34.653 3.503 1.004 1.332.442 2.695.781 4.038 1.193 1.485.515 2.982.988 4.494 1.417 1.066.272 2.122.57 3.175.892 1.637.542 3.297 1.01 4.949 1.505 2.129.605 4.266 1.176 6.4 1.76 1.472.432 2.936.887 4.414 1.295 1.539.362 3.066.78 4.59 1.213 2.017.57 4.001 1.247 6.018 1.82 1.609.439 3.177 1.009 4.766 1.513 1.238.43 2.466.881 3.697 1.325.685.259 1.385.473 2.078.706.618.185 1.191.468 1.783.71.508.189 1.025.365 1.528.568.47.156.957.252 1.43.403.215.066.38.15.556.268l-.338.48c-.016-.108-.23-.128-.337-.187-.484-.162-.988-.25-1.47-.414-.5-.208-1.02-.38-1.527-.569-.583-.234-1.143-.518-1.75-.7-.694-.239-1.402-.446-2.088-.71-1.225-.441-2.445-.893-3.676-1.32-1.583-.504-3.145-1.072-4.748-1.51-2.016-.574-4-1.25-6.018-1.822-1.522-.432-3.049-.846-4.586-1.208-1.478-.41-2.94-.864-4.412-1.3-2.138-.585-4.28-1.155-6.414-1.76-1.652-.498-3.314-.963-4.952-1.504a72.743 72.743 0 0 0-3.164-.89 81.586 81.586 0 0 1-4.506-1.42c-1.342-.413-2.704-.75-4.036-1.192-1.162-.352-2.35-.612-3.502-1.004a76.276 76.276 0 0 1-4.834-1.635c-1.346-.465-2.673-.991-4.044-1.386-.9-.256-1.761-.591-2.584-1.011-1.118-.447-2.27-.749-3.427-1.081-1.06-.286-2.117-.57-3.156-.927-1.063-.326-2.103-.724-3.179-1.008l.131-.558z" style="opacity:1;fill:red;fill-opacity:1;stroke:red;stroke-width:.428485;stroke-linecap:butt;stroke-linejoin:miter;stroke-miterlimit:10;stroke-dasharray:none;stroke-dashoffset:0;stroke-opacity:1"/><path d="m356.89 383.397 151.892 46.42" style="fill:#00f;stroke:#00f;stroke-width:.714142;stroke-linecap:butt;stroke-linejoin:miter;stroke-miterlimit:4;stroke-dasharray:none;stroke-opacity:1"/><path d="M256.891-47.485c1.229.185 2.834.958 4.031 1.28 1.125.346 3.453 1.196 4.58 1.538.906.314 1.83.578 2.757.829.798.15 1.544.471 2.341.626.82.154 1.589.476 2.378.734.84.315 1.727.454 2.582.715.667.246 1.332.484 2.014.693.573.124 1.076.435 1.636.604.52.066 1.024.19 1.511.385.676.174 1.302.475 1.95.72.463.13.91.294 1.39.346.473.055.966.157 1.414.324.67.255 1.368.433 2.065.6 1.076.27 2.138.607 3.177.993.674.23 1.356.428 2.025.674.677.253 1.384.393 2.069.621.987.352 1.969.706 2.97 1.02.743.279 1.477.582 2.23.834.684.258 1.3.672 1.99.916.571.077 1.13.227 1.702.305.66.038 1.275.307 1.904.487.888.286 1.756.607 2.653.868.888.255 1.75.547 2.676.62.665.09 1.273.356 1.879.627.528.119.944.489 1.448.654.673.147 1.345.295 2.01.472.664.243 1.298.55 1.955.812.527.146 1.061.221 1.59.368.512.069.99.246 1.469.436.584.179 1.18.17 1.754.38.764.321 1.554.579 2.322.89.556.209 1.063.512 1.625.707.493.089.972.21 1.46.326.585.274 1.207.454 1.806.693.454.197.958.22 1.446.215.455-.004.901.184 1.302.384.528.19 1.005.479 1.528.68.256.118.402.207.664.285.1.057.194.097.298.145.005.25-.016.616-.005.883-.161-.037-.236-.118-.398-.212-.327-.032-.496-.143-.777-.309-.538-.206-1.026-.5-1.567-.692-.346-.174-.719-.355-1.114-.345-.542-.001-1.1-.032-1.604-.245-.573-.244-1.189-.388-1.745-.678-.5-.118-.992-.243-1.498-.335-.572-.194-1.088-.493-1.648-.714-.762-.316-1.551-.564-2.31-.886-.57-.222-1.182-.18-1.762-.382-.466-.184-.927-.362-1.427-.424-.542-.15-1.09-.228-1.632-.38-.643-.254-1.264-.55-1.908-.8a44.797 44.797 0 0 0-2.031-.477c-.525-.168-.949-.53-1.49-.666-.565-.251-1.124-.514-1.744-.598-.953-.082-1.844-.369-2.757-.638-.896-.26-1.765-.574-2.651-.865-.612-.173-1.206-.438-1.848-.474-.598-.084-1.184-.236-1.782-.323-.69-.238-1.309-.64-1.983-.915-.752-.25-1.485-.548-2.224-.834a78.468 78.468 0 0 1-2.978-1.02c-.687-.233-1.4-.37-2.08-.624-.67-.246-1.351-.447-2.027-.676a28.69 28.69 0 0 0-3.127-.982c-.716-.17-1.433-.352-2.122-.61-.405-.173-.876-.244-1.308-.301-.514-.06-.994-.227-1.488-.368-.656-.243-1.281-.558-1.966-.724-.469-.205-.965-.3-1.469-.375-.563-.167-1.068-.47-1.64-.604a33.591 33.591 0 0 1-2.014-.694c-.855-.268-1.747-.398-2.588-.716-.774-.25-1.525-.572-2.329-.724-.806-.158-1.563-.473-2.37-.633-.93-.25-1.859-.515-2.77-.832-1.121-.34-3.447-1.186-4.565-1.535-1.189-.32-2.785-1.095-4.006-1.272l.152-.807z" style="opacity:1;fill:red;fill-opacity:1;stroke:red;stroke-width:.856971;stroke-linecap:butt;stroke-linejoin:miter;stroke-miterlimit:4;stroke-dasharray:none;stroke-dashoffset:0;stroke-opacity:1"/><g style="display:inline"><use xlink:href="#b" width="100%" height="100%" x="230.105" y="587.538" style="fill:#b0b0d9;fill-opacity:1" transform="matrix(1.78536 0 0 1.78536 -223.395 -840.564)"/><use xlink:href="#a" width="100%" height="100%" x="237.905" y="587.538" style="fill:#b0b0d9;fill-opacity:1" transform="matrix(1.78536 0 0 1.78536 -223.395 -840.564)"/></g></g><g style="display:inline"><path d="M335.539 189.742c.053-.944.004-2.39.004-3.585 0-.855.153-3.493.025-4.574l1.186-.064c.062 1.11-.032 3.722-.032 4.578 0 1.193.066 2.57.004 3.58l-1.185.065z" style="display:inline;opacity:1;fill:#000;fill-opacity:1;stroke:#000;stroke-width:0;stroke-linecap:butt;stroke-linejoin:miter;stroke-miterlimit:4;stroke-dasharray:none;stroke-dashoffset:0;stroke-opacity:1"/><g style="display:inline"><path d="M143.497 110.344c.002-.67.002-1.554.001-2.224v-1.847l.662.035v4.07l-.663-.034zM143.527 104.148a594.285 594.285 0 0 0 0-3.379l.663-.107v3.378l-.663.108zM143.523 98.537c.005-.534-.006-2.674.007-3.208.014-.265.006-.14.022-.375l.677-.09c-.022.228-.011.106-.03.364-.029.53-.006 2.666-.012 3.196l-.664.113z" style="opacity:1;fill:#000;fill-opacity:1;stroke:#000;stroke-width:0;stroke-linecap:butt;stroke-linejoin:miter;stroke-miterlimit:4;stroke-dasharray:none;stroke-dashoffset:0;stroke-opacity:1" transform="matrix(1.78536 0 0 1.9639 .008 -27.234)"/></g></g><g style="display:inline"><g style="display:inline"><path d="M210 122.822v-3.862l.662.038V122.86l-.663-.037zM210.029 116.777a809.602 809.602 0 0 0 0-3.95l.663-.126v3.95l-.663.126zM210.025 110.576c.005-.689-.006-3.446.007-4.134.013-.342.006-.18.022-.484l.677-.116c-.022.294-.011.137-.03.47-.029.682-.007 3.435-.013 4.118l-.663.146zM209.972 129.055c.002-.77.002-1.79.001-2.56v-1.487l.663-.04a1645 1645 0 0 0 0 4.046l-.664.04z" style="opacity:1;fill:#000;fill-opacity:1;stroke:#000;stroke-width:0;stroke-linecap:butt;stroke-linejoin:miter;stroke-miterlimit:4;stroke-dasharray:none;stroke-dashoffset:0;stroke-opacity:1" transform="matrix(1.78536 0 0 1.78536 .008 -8.137)"/></g><g style="display:inline"><path d="M124.222 110.752c.002-.784.002-.752.002-1.537 0-.757 0-1.87-.002-2.627v-.22l.664-.035v.22l-.002 2.63c0 .783 0 .75.002 1.533l-.664.036zM124.16 104.208c.03-.48.003-1.216.003-1.825 0-.435.086-1.08.014-1.63l.664-.032c.035.565-.017 1.196-.017 1.632 0 .607.036 1.308.002 1.822l-.664.033zM124.185 98.56V95.076l.664.036v3.484zM124.19 87.176c.002-.67.002-1.554 0-2.224v-1.287l.663.034v3.511l-.664-.034zM124.22 81.54a594.285 594.285 0 0 0 0-3.379l.663-.108-.001.993v2.386l-.663.108zM124.163 92.95c.002-.68.002-1.582 0-2.263v-1.316l.664-.036a1287.473 1287.473 0 0 0 0 3.58l-.664.036z" style="opacity:1;fill:#000;fill-opacity:1;stroke:#000;stroke-width:0;stroke-linecap:butt;stroke-linejoin:miter;stroke-miterlimit:4;stroke-dasharray:none;stroke-dashoffset:0;stroke-opacity:1" transform="matrix(1.78536 0 0 1.78536 .008 -8.137)"/></g></g><g style="display:inline"><use xlink:href="#glyph0-1-82" width="100%" height="100%" x="356.963" y="562.992" style="fill:#b0b0d9;fill-opacity:1" transform="translate(-134.729 -442.474)"/><use xlink:href="#glyph1-1-93" width="100%" height="100%" x="239.705" y="562.579" style="fill:#b0b0d9;fill-opacity:1" transform="translate(-134.729 -442.076)"/><use xlink:href="#glyph0-1-82" width="100%" height="100%" x="247.505" y="562.579" style="fill:#b0b0d9;fill-opacity:1" transform="translate(-134.729 -442.076)"/><use xlink:href="#glyph0-1-82" width="100%" height="100%" x="293.75" y="497.227" style="fill:#b0b0d9;fill-opacity:1" transform="translate(-134.729 -442.872)"/><use xlink:href="#glyph1-1-93" width="100%" height="100%" x="285.627" y="610.201" style="fill:#b0b0d9;fill-opacity:1" transform="translate(-134.43 -442.573)"/><use xlink:href="#glyph0-1-82" width="100%" height="100%" x="293.427" y="610.201" style="fill:#b0b0d9;fill-opacity:1" transform="translate(-134.43 -442.573)"/><path d="m178.54 118.917 1.018.356 1.011.3 2.023.711 1.01.3 2.023.711 1.012.3 1.01.356 1.02.355 1.01.307 1.012.349 1.01.356 1.012.3 2.022.71 1.019.308 1.01.355 1.012.35 1.011.306 1.012.356 1.01.348 1.012.307 1.018.356 1.012.356 1.01.3 1.012.355 1.011.307 1.011.349 1.012.355 1.018.307 1.011.349 1.011.356 1.012.306 1.01.356 1.012.349 1.011.307 1.012.355 1.018.356 1.011.3 2.023.711 1.01.3 2.023.712 1.018.355 1.005.349 1.018.356 1.011.404 1.011.453 1.012.558 1.01.614 1.012.753 1.018.914 1.012 1.011 1.01 1.214 1.012 1.269 1.011 1.367 1.011 1.415 1.012 1.465 1.018 1.416 1.011 1.471 1.011 1.367 1.012 1.262 1.01 1.165 1.012 1.06 1.018.865 1.012.76 1.01.656 1.012.509 2.023.906 3.033 1.067 1.018.35 1.012.306 2.022.711 1.011.3 2.023.712 1.011.3 1.018.355 1.012.356 1.01.3 2.023.711 1.011.307 1.019.349 1.01.307 1.012.355 1.011.349 1.012.307 2.022.711 1.011.3 1.019.356 1.01.355 1.012.3 2.023.712 1.01.3 1.012.355 1.018.356 1.011.307 1.012.348 1.01.356 1.012.307 1.011.356 1.012.348 1.018.307 1.004.349 1.018.356 1.012.306 2.022.712 1.011.3 1.012.355 1.018.356 1.011.3 2.022.711 1.012.3 2.022.711 1.018.307 1.012.349 1.01.356 1.012.307 1.011.348 1.012.356 1.01.307 1.012.355 1.018.35 1.011.306 1.012.356 1.01.348 1.012.307 1.011.356 1.012.3 1.018.356 1.011.355 1.011.307 1.012.349 1.01.355 1.012.307 1.011.349 1.011.356 1.019.307 1.01.355 1.012.349 1.011.307 1.012.355 1.01.35 1.02.306 2.022.711 1.01.35 2.023.71 1.012.454 1.01.46 1.012.502 1.018.607 1.011.711 1.012.858 1.01.962 1.012 1.165 1.011 1.262 1.019 1.423 1.01 1.513 1.012 1.57 1.011 1.618 2.023 3.347 1.011 1.618 1.018 1.57 1.011 1.513 1.012 1.422 1.01 1.263 1.012 1.164 1.011.963 1.012.858 1.01.71 1.02.608 1.01.502 1.012.46 1.01.453 2.023.712 1.012.348 1.01.356 1.019.356 1.011.3 2.023.711 1.01.307 1.012.349 1.011.355 1.019.307 1.01.356 1.012.349 1.011.306 1.012.356 1.01.349 1.019.307 1.004.355 1.018.356 1.012.3 2.022.711 1.011.3 1.012.356 1.01.307 1.02.348 1.01.356 1.012.307 1.01.356 1.012.348 1.011.307 2.023.711 1.018.3 2.022.712 1.012.3 2.022.71 1.011.3 1.019.357 1.01.355 1.012.3 2.023.711 1.01.307 1.012.356 1.018.349 1.011.307 1.012.348" style="fill:none;stroke:red;stroke-width:1.42295;stroke-linecap:butt;stroke-linejoin:miter;stroke-miterlimit:10;stroke-opacity:1"/><g style="display:inline"><g style="fill:#000;fill-opacity:1"><use xlink:href="#d" width="100%" height="100%" x="365.856" y="630.807" style="fill:#000" transform="translate(-445.227 -1226.473) scale(1.99088)"/></g><g style="fill:#000;fill-opacity:1"><use xlink:href="#e" width="100%" height="100%" x="370.896" y="627.207" style="fill:#000" transform="translate(-445.227 -1226.473) scale(1.99088)"/></g><g style="fill:#000;fill-opacity:1"><use xlink:href="#f" width="100%" height="100%" x="375.336" y="630.807" style="fill:#000" transform="translate(-450.907 -1226.473) scale(1.99088)"/></g><g style="fill:#000;fill-opacity:1"><use xlink:href="#g" width="100%" height="100%" x="379.176" y="630.807" style="fill:#000" transform="translate(-450.907 -1226.473) scale(1.99088)"/></g><g style="fill:#000;fill-opacity:1"><use xlink:href="#h" width="100%" height="100%" x="383.615" y="630.807" style="fill:#000" transform="translate(-450.907 -1226.473) scale(1.99088)"/></g></g></g><path d="M22.256 64.052c-.158.758-.33 1.517-.303 2.298.015.452.074.997.415 1.348.117.12.299.15.448.225.186-.02.381 0 .559-.06 1.005-.343 1.667-1.412 2.032-2.347.066-.17.097-.352.146-.528-.12.039.098.165.135.27.02.056-.01.12-.013.179-.016.242-.043.484-.047.726-.005.299.014.597.021.895.04 1.475.627 3.57-.147 4.925-.106.185-.317.286-.475.429-.23.054-.453.163-.69.161-.522-.005-1.092-.273-1.499-.578-.205-.154-.365-.36-.547-.54l.243-.428c.16.17.3.363.482.509.337.268.85.533 1.297.544.188.005.366-.09.549-.134.1-.102.504-.458.554-.666.29-1.201-.14-2.703-.159-3.927-.025-.658-.128-1.894.156-2.51a.521.521 0 0 1 .345-.26c.068-.016.149.07.156.139.023.223-.049.445-.073.668-.061.183-.107.372-.184.55-.435.998-1.182 2.114-2.301 2.416-.227.061-.469.022-.703.033-.195-.1-.426-.148-.584-.3-.4-.382-.489-.942-.52-1.46-.06-1.01.213-1.988.4-2.969l.307.392zM29.841 64.652c1.207.052 2.426-.078 3.63.034.238.053.138.015.306.094l-.179.466c-.068-.067-.015-.025-.191-.068-1.195-.116-2.407.017-3.605-.03l.04-.496zM29.911 66.318a615.09 615.09 0 0 0 4.113 0l-.04.497-.168-.001a611.635 611.635 0 0 0-3.944 0l.04-.496zM39.077 59.652c.36 1.827.422 3.691.468 5.547.015.937.02 1.874.006 2.81l-.405.287c.028-.934.018-1.87.008-2.805-.041-1.838-.099-3.683-.436-5.495l.36-.344zM40.762 67.363c.212-.318.534-.753.963-.768.067-.003.172-.008.192.055.06.189.009.396.014.594-.209.204-.855.678-1.154.676-.07 0-.13-.05-.196-.075l.229-.444c-.028.008-.109.035-.082.024.34-.135.698-.277.917-.59.038.097.072.195.115.289.005.01.014-.034.003-.033a.452.452 0 0 0-.17.054c-.25.146-.436.38-.56.636l-.271-.418zM42.452 62.002c.912-.76 1.984-1.287 3.104-1.66.225-.059.569-.21.712.094.13.277-.329 1.29-.43 1.561-.783 1.924-1.577 3.85-2.46 5.73-.063.123-.209.427-.305.574-.016.026-.053.098-.06.068-.131-.573-.091-.547.315-.732.975-.36 2.034-.45 3.066-.455.462.004.92.056 1.376.117l-.076.492c-.443-.061-.888-.113-1.337-.117-.992.008-2.014.092-2.947.454-.06.031-.124.06-.183.094-.054.03-.106.137-.156.1-.423-.304-.277-.37-.137-.642.064-.124.125-.25.188-.375.875-1.878 1.68-3.792 2.442-5.718.082-.22.148-.447.247-.66.008-.017.035.042.048.03.04-.04.038-.108.076-.15.024-.027.121-.016.1-.046-.084-.118-.433.233-.43.074-1.088.369-2.126.89-3.004 1.641l-.149-.475z" style="opacity:1;fill:#000;fill-opacity:1;stroke:#000;stroke-width:.04;stroke-linecap:butt;stroke-linejoin:miter;stroke-miterlimit:4;stroke-dasharray:none;stroke-dashoffset:0;stroke-opacity:1" transform="matrix(1.78536 0 0 1.78536 16.077 -147.633)"/><path d="M61.173 64.73c-.183.67-.614 2.12.311 2.484.164.064.352.044.528.066.202-.047.414-.067.606-.143.776-.307 1.494-1.081 1.848-1.781.05-.1.072-.212.108-.318-.017.045-.078.097-.049.136.053.07.187.056.245.123.044.051.02.13.03.195.08.458-.029-.394.047.804.019.288.052.575.077.862.06 1.368.581 3.581-.237 4.816-.127.191-.373.287-.56.43-.258.056-.51.155-.775.168a3.036 3.036 0 0 1-2.375-.977c-.16-.176-.257-.393-.385-.59l.3-.36c.106.183.18.385.317.55a2.612 2.612 0 0 0 2.119.921c.221-.009.431-.097.647-.146.193-.164.568-.412.647-.692.327-1.17-.04-2.644-.08-3.836-.076-.76-.209-1.55-.049-2.311.021-.101.043-.235.143-.28.097-.043.276-.016.311.078.06.157-.064.327-.096.49-.403.895-1.203 1.823-2.21 2.174-.226.079-.473.092-.71.138-.518-.083-.825-.03-1.162-.475-.566-.747-.1-2.128.134-2.911l.27.385zM67.25 64.588a37.27 37.27 0 0 1 2.386-.22c.32-.016.702-.042 1.02.05l-.129.482c-.204-.093-.748-.048-.909-.04-.79.038-1.58.127-2.365.223l-.003-.495zM67.392 66.285c1.146-.121 2.3-.13 3.452-.143.354 0 .2-.001.46.001l-.042.497c-.256-.005-.104-.003-.455-.004-1.14.009-2.282.018-3.415.147v-.498zM73.68 64.985c1.455 0 2.91.042 4.362-.073.447-.06.316-.188.213.403l.104-.488c.098.645.21.507-.335.579-1.46.107-2.92.066-4.383.075l.04-.496zM84.401 61.077c-1.272.6-2.218 1.779-2.655 3.114-.092.282-.118.583-.178.874.078.44.1.772.373 1.17.45.655 1.304.87 2.053.752.316-.05.612-.187.917-.28 1.226-.595 2.203-1.35 2.465-2.763.074-.4-.113-.934-.199-1.289-.133-.215-.24-.448-.4-.644-.476-.585-1.19-.937-1.933-1.025-.638-.076-.823.021-1.423.163-.616.293-.35.129-.813.467l-.125-.48c.53-.348.23-.18.917-.48.655-.14.856-.239 1.547-.151.81.102 1.586.483 2.119 1.108.181.213.309.466.463.7.08.276.222.542.24.83.091 1.498-.615 2.738-1.849 3.543-.306.2-.647.339-.97.508-.802.227-1.09.415-1.92.26-.801-.151-1.607-.746-1.763-1.595-.071-.387 0-.787 0-1.18.074-.303.118-.614.224-.907.504-1.385 1.51-2.587 2.862-3.19l.048.495zM86.71 67.037c.397-.3.953-.758 1.42-.308.062.06.1.14.15.21.18.46-.008.832-.42 1.058-.234.128-.464.203-.73.108-.124-.044-.218-.148-.327-.222-.253-.368-.365-.735-.133-1.178.045-.085.168-.095.253-.143l.113.485c-.027.023-.055.09-.082.067-.039-.034 0-.204-.018-.155-.066.174.024.32.082.476.254.255.356.303.7.086.078-.048.115-.176.206-.182.058-.004-.011.17.046.167.057-.003.007-.114.01-.17-.043-.1-.07-.208-.168-.271-.265-.169-.736.302-.93.44l-.173-.468zM93.161 61.412c-1.35-.002-2.73.55-3.601 1.614-.149.182-.24.404-.36.606.044.183.069.378.262.493.162.096.36.125.547.14.862.069 1.612-.26 2.378-.596.437-.307.959-.631 1.088-1.195.012-.052-.06.088-.091.13-.066.086.022-.352-.034.177-.446 1.332-.314 2.77-.185 4.146.05.423.14.838.271 1.243l-.342.361a5.905 5.905 0 0 1-.31-1.294c-.137-1.362-.21-2.465.02-3.833.037-.224.083-.447.159-.66.054-.155.151-.29.227-.435.115-.054.218-.158.346-.163.414-.015.22.645.193.754-.073.286-.44.658-.637.82-.198.163-.423.29-.634.436-.272.114-.536.25-.816.342-.685.226-1.781.458-2.455.039-.164-.103-.328-.266-.359-.457-.046-.296.098-.59.147-.886.141-.21.256-.442.424-.632.968-1.094 2.42-1.663 3.86-1.637l-.098.487z" style="opacity:1;fill:#000;fill-opacity:1;stroke:#000;stroke-width:.04;stroke-linecap:butt;stroke-linejoin:miter;stroke-miterlimit:4;stroke-dasharray:none;stroke-dashoffset:0;stroke-opacity:1" transform="matrix(1.78536 0 0 1.78536 536.18 311.955)"/><path d="M231.759 128.96c-1.088 1.067-2.261 2.044-3.358 3.1-.162.11-.296.341-.507.38-.11.019-.094-.014-.167.014-.163.093-.14.087.014-.507.01-.038.074-.027.113-.035.37-.076.758-.07 1.133-.083 1.78-.026 3.562-.015 5.343-.012h.567l-.041.497c-.296-.005-.107-.002-.565-.006-1.778-.009-3.556-.019-5.333.014-.313.013-.566.014-.87.051a1.97 1.97 0 0 0-.194.036c-.04.009-.1.072-.12.035-.248-.458-.265-.437-.075-.489.06-.01.076-.017.142-.015.007 0-.027.01-.021.006.14-.112.296-.214.416-.352 1.109-1.042 2.269-2.029 3.35-3.1l.173.467z" style="opacity:1;fill:#000;fill-opacity:1;stroke:#000;stroke-width:.04;stroke-linecap:butt;stroke-linejoin:miter;stroke-miterlimit:4;stroke-dasharray:none;stroke-dashoffset:0;stroke-opacity:1" transform="matrix(1.78536 0 0 1.78536 230.883 51.888)"/><path d="M228.69 131.557c1.537-.555 3.058-1.15 4.587-1.728 2.171-.807 4.301-1.72 6.498-2.456.493-.178 1-.313 1.501-.464.065-.02.377-.066.423-.153-.193-.028-.06-.029-.067.395l.201-.457c.091.508.206.367-.008.545-.163.078-.333.113-.508.165-.5.147-1.003.282-1.493.458-2.195.734-4.322 1.645-6.489 2.453-1.524.579-3.045 1.168-4.574 1.734l-.072-.492z" style="opacity:1;fill:#000;fill-opacity:1;stroke:#000;stroke-width:.04;stroke-linecap:butt;stroke-linejoin:miter;stroke-miterlimit:4;stroke-dasharray:none;stroke-dashoffset:0;stroke-opacity:1" transform="matrix(1.78536 0 0 1.78536 230.883 51.888)"/><path d="M231.874 140.417c-.94-1.109-1.989-2.118-3.074-3.084-.63-.589-1.373-1.115-1.847-1.85-.109-.217-.172-.26.328-.449.078-.03.148.08.224.115.357.168.72.327 1.084.48 1.864.702 3.752 1.336 5.682 1.83.51.138 1.021.229 1.548.208l-.032.496a5.649 5.649 0 0 1-1.621-.226c-1.942-.5-3.843-1.136-5.722-1.834-.371-.155-.743-.313-1.107-.486-.064-.03-.185-.03-.188-.101-.023-.465.336-.4.105-.43.37.697 1.22 1.272 1.772 1.81 1.097.972 2.154 1.99 3.112 3.1l-.264.421z" style="opacity:1;fill:#000;fill-opacity:1;stroke:#000;stroke-width:.04;stroke-linecap:butt;stroke-linejoin:miter;stroke-miterlimit:4;stroke-dasharray:none;stroke-dashoffset:0;stroke-opacity:1" transform="matrix(1.78536 0 0 1.78536 214.518 74.205)"/><path d="M228.028 135.367c2.308 1.497 4.666 2.916 7.013 4.35 2.819 1.736 5.661 3.437 8.427 5.257.251.166.505.33.755.5.153.103.304.212.454.32.033.025.114.042.096.078-.285.547-.27.434-.625.234l.177-.464c.359.208.35.1.217.672-.007.031-.042-.049-.067-.068-.404-.308-.761-.532-1.197-.823-2.758-1.826-5.598-3.525-8.416-5.258-2.354-1.437-4.716-2.863-7.042-4.347l.208-.45z" style="opacity:1;fill:#000;fill-opacity:1;stroke:#000;stroke-width:.04;stroke-linecap:butt;stroke-linejoin:miter;stroke-miterlimit:4;stroke-dasharray:none;stroke-dashoffset:0;stroke-opacity:1" transform="matrix(1.78536 0 0 1.78536 214.518 74.205)"/><path d="M230.025 141.176c-.921-1.602-1.927-3.15-2.946-4.69l-.218-.337c-.161-.252-.24-.284.173-.576.04-.029.057.082.087.121.038.048.08.094.12.14 1.043.873 2.258 1.52 3.414 2.23.991.637 2.01 1.227 3.066 1.75l-.162.468a33.325 33.325 0 0 1-3.086-1.764c-1.179-.723-2.41-1.384-3.489-2.256-.271-.287-.295-.287-.005-.744.05-.078.348.687.388.567 1.012 1.546 2.027 3.09 2.953 4.69l-.295.4z" style="opacity:1;fill:#000;fill-opacity:1;stroke:#000;stroke-width:.04;stroke-linecap:butt;stroke-linejoin:miter;stroke-miterlimit:4;stroke-dasharray:none;stroke-dashoffset:0;stroke-opacity:1" transform="matrix(1.78536 0 0 1.78536 192.796 165.258)"/><path d="M228.115 136.708c.213.218.421.442.64.654 1.273 1.237 2.618 2.396 3.902 3.622.242.23 2.413 2.357 2.707 2.644 1.411 1.548 3.042 2.874 4.516 4.356l.189.212-.26.424-.173-.205c-.481-.496-.996-.954-1.5-1.426a74.898 74.898 0 0 1-3.005-2.94c-.258-.252-2.496-2.448-2.7-2.643-1.286-1.228-2.635-2.386-3.918-3.616-.222-.214-.434-.438-.651-.657l.253-.425z" style="opacity:1;fill:#000;fill-opacity:1;stroke:#000;stroke-width:.04;stroke-linecap:butt;stroke-linejoin:miter;stroke-miterlimit:4;stroke-dasharray:none;stroke-dashoffset:0;stroke-opacity:1" transform="matrix(1.78536 0 0 1.78536 192.796 165.258)"/><path d="M28.263-25.852c1.148-1.351 2.551-2.512 4.15-3.295.34-.166.701-.287 1.051-.43.676-.192 2.192-.683 2.79.016.123.144.235.326.238.516.006.441-.143.872-.214 1.308-.517 1.587-1.327 3.051-2.052 4.548-1.616 3.339.264-.475-1.437 2.958-.919 1.774-1.493 3.788-2.767 5.36-.024.193-.325.086-.402.217-.019.031.107.023.108-.013.002-.296-.191-.601-.101-.884.042-.132.27-.06.408-.081.223-.034.449-.053.673-.08 2.168-.164 4.345-.15 6.518-.145l.482.003-.075.885-.478-.007c-2.152-.011-4.31-.024-6.456.15-.211.027-.423.047-.633.082-.12.02-.268.163-.358.08-.897-.827-.422-.683-.051-1.018 1.177-1.605 1.78-3.549 2.687-5.303 1.665-3.383-.162.342 1.435-2.96.712-1.47 1.502-2.917 1.959-4.494.326-.012.15-.413-.056-.497-.673-.275-1.458.06-2.096.231-.33.14-.67.258-.99.42-1.536.773-2.885 1.907-3.961 3.241l-.372-.808z" style="opacity:1;fill:#000;fill-opacity:1;stroke:#000;stroke-width:.0714142;stroke-linecap:butt;stroke-linejoin:miter;stroke-miterlimit:4;stroke-dasharray:none;stroke-dashoffset:0;stroke-opacity:1"/><path d="M-17.797 64.335c-.18.65-.327 1.31-.31 1.988.01.373-.015.898.255 1.224.082.098.225.12.338.18.141-.036.291-.047.424-.108 1.025-.47 1.508-1.46 1.82-2.474.057-.197.006-1.238.497-.616.067.085.016.215.028.322.018.175.042.35.063.525.16 1.554.59 3.08.68 4.641.02.343.004.687.005 1.031-.132.871-.128 1.258-.555 2.096-.339.664-1.077 1.31-1.879 1.206-.272-.036-.513-.196-.77-.294-.655-.566-.766-.568-1.21-1.32-.129-.216-.21-.457-.314-.685l.323-.372c.09.218.157.447.27.654.383.698.5.72 1.072 1.251.21.09.405.238.63.272.77.119 1.262-.575 1.612-1.125.097-.153.202-.306.255-.478.09-.298.113-.612.17-.918.004-.336.028-.672.013-1.008-.071-1.56-.518-3.083-.68-4.633-.024-.177-.05-.353-.072-.53-.013-.109-.1-.24-.033-.326.07-.091.223-.074.337-.069.029.002-.01.056-.016.084-.08.436-.025.16-.144.698-.062.175-.112.356-.187.527-.366.834-1 1.728-1.905 2.036-.193.065-.404.052-.605.078-.162-.09-.36-.132-.486-.268-.312-.335-.352-.916-.344-1.328.019-.91.178-1.816.452-2.681l.266.42zM-11.954 64.651a52.397 52.397 0 0 0 3.697-.408c.658-.099.484-.315.58.409l-.137-.48c.046.153.115.302.137.46.002.016-.575.105-.578.106-1.24.183-2.49.308-3.738.41l.039-.497zM-11.659 65.819c1.152.003 2.304.001 3.456 0 .25-.01.494-.044.733-.114l.032.497a3.78 3.78 0 0 1-.804.111c-1.152 0-2.304-.002-3.456.001l.04-.495zM-4.153 65.151c1.257.004 2.514.004 3.771.003.395-.016.791.031 1.183-.035.134-.022.21-.08.34-.078l-.059.496c.054-.006.112-.014-.088.037-.463.12-.943.058-1.415.072a975.605 975.605 0 0 0-3.771.002l.04-.497zM6.038 59.378c-.936.532-1.746 1.319-2.242 2.284-.133.258-.223.536-.334.804-.342 1.123-.494 2.351-.13 3.493.058.183.152.354.227.53.113.142.207.3.339.424.479.452 1.274.628 1.913.517.171-.03.332-.105.498-.157.733-.395 1.401-.96 1.793-1.709.265-.507.278-.758.4-1.318.13-1.24-.023-2.28-.524-3.414-.334-.69-.698-1.347-1.578-1.286-.14.01-.275.064-.412.096-.445.22-.246.098-.606.354l-.12-.482c.422-.269.188-.142.71-.367.164-.03.325-.085.492-.092.982-.037 1.45.602 1.835 1.4.077.163.165.32.23.487.462 1.182.513 2.457.273 3.694-.063.244-.106.493-.19.731-.383 1.086-1.248 1.901-2.264 2.398-.19.053-.374.13-.568.159-.725.11-1.595-.099-2.146-.593-.152-.137-.265-.312-.397-.467-.087-.189-.194-.37-.263-.565-.487-1.388-.214-2.89.227-4.249.124-.275.227-.562.372-.827.545-.994 1.406-1.807 2.4-2.34l.065.495zM9.107 66.893c.222-.103.66-.39.905-.16.055.052.122.123.112.199-.027.186-.143.348-.214.521-.48.372-.851.457-1.215-.096-.127-.287-.075-.09.06-.608l.194.46c.028-.393-.003-.47.053-.245.198.459.355.328.701.036.008.121-.053.31.13.198.186-.113-.862.129-.618.182l-.108-.487zM13.884 59.91c-.127-.027-.252-.073-.382-.082-.86-.058-1.707.367-2.342.916-.181.157-.334.343-.5.515-.254.4-.465.598-.472 1.09-.001.067.08.107.115.164.08.13.128.282.23.396.27.303.495.322.867.448.183.005.367.033.55.014.712-.073 1.436-.46 1.838-1.06.083-.124.135-.268.202-.402.118-.347.125-.702.056-1.064.418.314.314-.656.315-.047.007 1.263.005 2.526.005 3.79.024.962.082 1.923.158 2.883l-.39.309a67.291 67.291 0 0 1-.166-2.904c0-1.26.001-2.521-.008-3.782-.006-.291-.035-.905.407-.632.313.502.043 1.389-.136 1.88-.086.143-.157.296-.258.428-.485.629-1.283 1.03-2.072 1.093-.209.016-.418-.019-.628-.028-.191-.066-.394-.104-.575-.197-.28-.142-.689-.474-.772-.804-.21-.832.081-1.41.563-2.038.181-.176.348-.367.544-.527.824-.675 1.902-1.113 2.965-.842l-.114.484z" style="opacity:1;fill:#000;fill-opacity:1;stroke:#000;stroke-width:.04;stroke-linecap:butt;stroke-linejoin:miter;stroke-miterlimit:4;stroke-dasharray:none;stroke-dashoffset:0;stroke-opacity:1" transform="matrix(1.78536 0 0 1.78536 684.661 278.628)"/><path d="M233.596 139.863c-1.245-1.081-2.616-2.005-3.943-2.98-.368-.266-.736-.532-1.112-.788a7.396 7.396 0 0 0-.104-.07c-.006-.003-.02-.003-.019-.01.031-.168.075-.333.112-.5.746-.1 1.492.076 2.22.224a51.1 51.1 0 0 0 5.219.87l-.07.485a53.583 53.583 0 0 1-5.242-.871c-.676-.137-1.38-.312-2.075-.21.004-.156-.005-.312.013-.466 0-.006.076.045.145.093.377.259.746.528 1.117.796 1.332.982 2.71 1.909 3.968 2.986l-.229.44z" style="opacity:1;fill:#000;fill-opacity:1;stroke:#000;stroke-width:.04;stroke-linecap:butt;stroke-linejoin:miter;stroke-miterlimit:4;stroke-dasharray:none;stroke-dashoffset:0;stroke-opacity:1" transform="matrix(1.78536 0 0 1.78536 197.854 154.546)"/><path d="M229.398 136.059c2.125.636 4.155 1.534 6.172 2.448 2.639 1.265 5.386 2.277 8.095 3.376.376.2.832.31 1.15.611l-.36.348c.025.01.089.047.074.026-.16-.221-.852-.355-1.005-.515-2.708-1.111-5.46-2.12-8.103-3.385-2.013-.912-4.04-1.81-6.164-2.432l.141-.477z" style="opacity:1;fill:#000;fill-opacity:1;stroke:#000;stroke-width:.04;stroke-linecap:butt;stroke-linejoin:miter;stroke-miterlimit:4;stroke-dasharray:none;stroke-dashoffset:0;stroke-opacity:1" transform="matrix(1.78536 0 0 1.78536 197.854 154.546)"/><path d="M634.798 297.372c-.127-.095-.236-.22-.38-.284-1.51-.665-3.873 1.224-4.947 2.063-.821.867-1.888 1.93-1.789 3.26.01.135.19.193.286.287.856.832.352.54 1.66.784.439-.068.89-.085 1.317-.205 1.624-.456 3.303-1.576 4.18-3.044.145-.243.225-.52.337-.781.04-.217.104-.43.122-.65.004-.032-.062.093-.073.063-.038-.104-.014-.222-.026-.332-.004-.032-.052-.108-.022-.095.425.184.317.192.256.57-.257 2.343-.055 4.724.044 7.074.083 1.648.109 3.298.16 4.946l-.728.515c.028-.327.004-.68 0-1.003-.028-1.31-.075-2.618-.126-3.927-.119-2.768-.448-5.603.148-8.337.215-.432.168-.638.804-.533.084.014.112.132.14.212.173.485.043 1.093-.037 1.55-.042.24-.138.47-.206.705-.145.276-.259.57-.433.828-1.02 1.508-2.785 2.674-4.54 3.117-.483.122-.987.128-1.481.192-.75-.163-1.744-.152-2.131-1.038-.215-.49-.216-1.057-.193-1.591.062-1.407 1.175-2.493 2.088-3.41 1.394-1.05 3.668-2.83 5.555-2.03.169.073.3.212.45.318l-.434.776zM15.021-26.893c1.116-1.138 2.327-2.266 3.808-2.915.293-.128.608-.198.913-.296.266-.002.545-.084.8-.006.86.26 1.015.904 1.125 1.759.266 2.076-.485 4.334-1.064 6.295-.95 2.645-1.953 5.31-3.429 7.712-.052.06-.11.241-.157.177-.19-.259-.381-.57-.368-.892.007-.165.268-.196.415-.271.835-.428 1.768-.478 2.682-.583 1.614-.144 3.235-.095 4.852-.186l-.043.882c-1.607.082-3.217.037-4.821.184-.744.092-1.254.109-1.947.335-.17.055-.331.133-.484.224-.072.043-.116.222-.181.17-.647-.51-.586-.5-.36-.824 1.432-2.383 2.412-5.017 3.327-7.632.473-1.683.961-3.227.933-4.991-.007-.477.063-1.256-.547-1.477-.202-.073-.43.002-.647.002-.275.094-.56.162-.824.283-1.408.643-2.58 1.728-3.61 2.858l-.373-.808z" style="opacity:1;fill:#000;fill-opacity:1;stroke:#000;stroke-width:.0714142;stroke-linecap:butt;stroke-linejoin:miter;stroke-miterlimit:4;stroke-dasharray:none;stroke-dashoffset:0;stroke-opacity:1"/><path d="M133.513 101.181c-.74.284-1.265.986-1.493 1.733-.064.208-.082.426-.124.64.048.247.116.641.21.84.25.527.768.83 1.314.968.152.038.311.038.467.056l-.073.49c-.176-.024-.356-.026-.527-.07-.815-.21-1.637-.802-1.733-1.707-.034-.32.026-.644.038-.966.057-.224.091-.454.17-.671.296-.812.904-1.538 1.736-1.811l.015.498z" style="opacity:1;fill:#000;fill-opacity:1;stroke:#000;stroke-width:.04;stroke-linecap:butt;stroke-linejoin:miter;stroke-miterlimit:4;stroke-dasharray:none;stroke-dashoffset:0;stroke-opacity:1" transform="matrix(1.78536 0 0 1.78536 485.941 -63.199)"/><path d="M133.429 103.03c.25-.341.551-.982 1.07-.943.085.006.165.048.248.071.377.153.691.697 1.107.731.055.005.107-.028.16-.042.266-.192.484-.47.566-.79l.276.415c-.182.38-.44.707-.84.872-.098.008-.195.038-.292.026-.453-.057-.746-.502-1.106-.73-.038-.018-.073-.049-.115-.055-.314-.045-.676.646-.803.863l-.271-.418zM133.394 104.397c.416-.228.839-.527 1.324-.555.408.121.521.447.982.45.235-.119.414-.362.534-.595l.005-.031.258.427-.03.045c-.205.296-.443.588-.818.65-.428-.028-.642-.18-.953-.448-.425.03-.805.339-1.166.536l-.136-.48zM136.9 100.603c.616.678 1.402 1.523 1.624 2.436.044.183.037.374.056.562-.075.678-.24 1.484-.828 1.913-.062.046-.13.096-.206.105-.074.01-.145-.035-.218-.053l.168-.47c-.016.012-.066.045-.049.036.046-.027.096-.05.136-.085.264-.231.15-.207.381-.54.03-.043.098-.06.116-.11.06-.157.073-.329.11-.493-.001-.168.025-.339-.004-.504-.153-.876-.945-1.684-1.495-2.344l.209-.453z" style="opacity:1;fill:#000;fill-opacity:1;stroke:#000;stroke-width:.04;stroke-linecap:butt;stroke-linejoin:miter;stroke-miterlimit:4;stroke-dasharray:none;stroke-dashoffset:0;stroke-opacity:1" transform="matrix(1.78536 0 0 1.78536 485.941 -63.199)"/><path d="M219.06 101.406c-.647.437-1.202 1.028-1.425 1.794-.05.17-.063.35-.095.524.103.179.124.396.23.573.348.582.95.68 1.567.717l.355-.057v.496l-.412.053c-.74-.052-1.389-.169-1.838-.838-.099-.147-.195-.309-.223-.485-.043-.279.01-.565.015-.847.046-.185.075-.376.139-.555.284-.794.885-1.408 1.579-1.861l.108.486z" style="opacity:1;fill:#000;fill-opacity:1;stroke:#000;stroke-width:.04;stroke-linecap:butt;stroke-linejoin:miter;stroke-miterlimit:4;stroke-dasharray:none;stroke-dashoffset:0;stroke-opacity:1" transform="matrix(1.78536 0 0 1.78536 459.459 -61.315)"/><path d="M219.21 102.704c.433-.358.928-.713 1.51-.724.349.109.368.417.729.518.271-.032.433-.253.565-.47l.216.45c-.228.29-.502.528-.895.506a.999.999 0 0 1-.65-.507c-.502.01-.937.388-1.303.694l-.173-.467zM219.107 104.06c.385-.195.794-.478 1.24-.506.18-.012.263.033.423.09.347.079.621.394.974.452.048.008.096-.014.144-.021.26-.166.22-.535.405-.74l.224.445c-.062.348-.32.679-.652.792-.086.001-.173.017-.257.002-.356-.06-.631-.36-.976-.452-.486-.21-1 .213-1.417.424l-.108-.486zM222.904 101.144c.496.622.883 1.364 1.037 2.15.033.169.04.34.06.51-.029.623-.367 1.794-1.077 1.993-.07.02-.146.001-.219.001l.046-.496c.319.037.529-.48.672-.673.026-.034.085-.041.1-.081.052-.139.061-.29.091-.433-.01-.16-.005-.32-.028-.476-.117-.75-.483-1.454-.926-2.06l.244-.435z" style="opacity:1;fill:#000;fill-opacity:1;stroke:#000;stroke-width:.04;stroke-linecap:butt;stroke-linejoin:miter;stroke-miterlimit:4;stroke-dasharray:none;stroke-dashoffset:0;stroke-opacity:1" transform="matrix(1.78536 0 0 1.78536 459.459 -61.315)"/><path d="M88.916-21.97c-.202-1.194-1.429-.976-2.3-.72-.313.217-.83.61-.753 1.081.013.077.078-.224.145-.183.135.083.133.291.233.415.132.164.303.292.455.438 1.145.861 2.463 1.682 3.183 2.97.108.193.167.408.25.611.005.192.084.398.012.575-.151.372-.346.753-.654 1.01-.584.485-2.536.228-3.167.055-.398-.11-.775-.289-1.162-.433-.746-.428-1.634-.873-2.074-1.666-.08-.142-.097-.31-.146-.465l.674-.58c-.01.104-.064.214-.03.312.266.76 1.22 1.158 1.817 1.552.877.336 1.245.55 2.193.623.329.026.662.001.988-.048.22-.033.417-.226.637-.196.116.016.059.341.17.307.136-.04.09-.267.135-.4-.052-.179-.076-.368-.156-.536-.618-1.296-1.987-2.083-3.086-2.91-.226-.202-.89-.722-.963-1.076-.227-1.11.327-1.872 1.24-2.34 1.274-.32 2.577-.385 3.079 1.08l-.72.524zM91.123-33.533c-.084 3.632.41 7.237.856 10.832.215 1.88.568 3.738.914 5.597l-.663.59c-.337-1.87-.704-3.737-.922-5.627-.444-3.609-.963-7.225-.903-10.87l.718-.522zM97.37-21.879c-1.115 1-1.934 2.38-1.474 3.921.094.318.31.586.465.88.249.165.462.404.746.496.302.098.638.1.952.053 1.189-.178 1.98-1.05 2.263-2.188.056-.226-.02-.466-.03-.698-.101-.422-.129-.87-.305-1.265-.553-1.24-1.922-1.963-3.172-1.285-.175.095-.308.253-.461.38l-.235-.855c.206-.135.39-.308.616-.405 1.527-.658 3.148.086 3.88 1.55.218.435.276.932.413 1.397-.087.647-.077 1.313-.26 1.94-.473 1.623-2.356 2.752-4.003 2.19-.356-.122-.63-.41-.945-.614-.199-.335-.463-.639-.596-1.005-.722-1.984.447-4.105 1.931-5.354l.216.862zM104.308-21.427c.222 2.45.317 4.911.403 7.37.017.483.131 3.41.061 4.133-.053.552-.211 1.088-.317 1.632-.227.093-.445.347-.68.279-.933-.27-1.357-1.635-1.579-2.335-.455-1.434-.754-3.271-.785-4.763-.017-.814.1-1.625.15-2.437.5-2.261 1.019-4.142 2.934-5.593.773-.586 1.417-.857 2.365-.473.386.157.667.501 1 .752.233.378.519.73.698 1.136.736 1.679.429 4.165-1.395 5.04-.342.163-.74.164-1.11.247-1.385-.233-.748-.02-1.922-.598l.294-.833c.971.523.444.33 1.59.55 1.117-.262.79-.043 1.69-.884.147-.138.336-.26.404-.449.438-1.225-.006-2.37-.635-3.417-.25-.224-.449-.523-.749-.672-.761-.38-1.304-.074-1.923.422-1.352 1.083-2.043 2.674-2.519 4.29-.066.791-.2 1.58-.198 2.374.006 1.527.283 3.186.697 4.657.144.511.349 1.003.553 1.493.089.214.152.459.324.613.067.06.169-.063.253-.094.05-.142.137-.277.15-.427.08-.988-.01-3.275-.04-4.12-.081-2.441-.181-4.884-.387-7.32l.673-.573zM110.333-19.47c.253-.063.514-.1.76-.188.741-.265 1.664-.732 2.004-1.502.074-.167.134-.374.066-.543-.036-.09-.134.137-.202.206-.096-.08-.17-.197-.288-.237-1.053-.356-2.034 1.023-2.316 1.817-.126.356-.129.745-.193 1.118.3.419.604.896 1.06 1.164 1.208.712 2.812.63 4.127.369.374-.074.731-.216 1.097-.323l.065.878c-.392.107-.776.25-1.175.323-1.463.268-3.2.313-4.534-.472-.383-.226-.795-.503-.977-.908-.237-.528-.137-1.15-.206-1.724.11-.402.156-.827.328-1.206.494-1.087 1.784-2.356 3.105-1.838.202.08.346.264.52.396.04.382.148.762.121 1.145-.093 1.352-2.278 2.21-3.378 2.412l.016-.887zM124.115-20.305c1.975.006 3.95.005 5.926.003.462-.04.681-.04 1.103-.136.073-.016.145-.037.213-.07.016-.007.03-.062.028-.044-.034.273-.083.545-.125.817l.32-.833c-.002.296.043.595-.005.887-.018.109-1.52.284-1.604.26-1.975-.002-3.95-.003-5.926.003l.07-.887zM138.773-30.339c.272 2.46.122 4.936.024 7.402-.02.487-.04.973-.062 1.46l-.74.496c.042-.483.053-.97.077-1.454.102-2.445.271-4.899.016-7.34l.685-.564zM134.53-19.71c2.591-.189 5.186-.344 7.78-.506 1.19-.075.663-.041 1.578-.1l-.04.886c-.915.052-.389.022-1.577.092-2.605.158-5.21.319-7.811.515l.07-.887zM136.4-17.189c1.103-.66 2.474-1.11 3.76-.73.227.067.426.205.64.307.766.78.42 1.661-.27 2.334-1.09 1.063-.084-.057-1.099.775-.064.052-.084.142-.125.213.085-.195.064-.496.257-.586.163-.075.318.167.48.245.845.411 1.718.815 2.429 1.449.179.16.315.362.472.543.042.209.186.422.124.626-.122.405-.329.81-.642 1.095-.234.213-.59.233-.898.306a5.993 5.993 0 0 1-2.244.122c-.329-.047-.64-.173-.96-.26-.87-.48-.518-.186-1.097-.834l.485-.743c.356.557.111.292.81.717.284.08.558.2.85.243.694.104 1.381.046 2.06-.124.24-.06.449-.263.697-.263.116 0 .117.31.224.266.13-.053.077-.27.115-.404-.121-.162-.217-.347-.364-.487-.352-.335-1.148-.825-1.56-1.045-.257-.138-.529-.244-.792-.37-.208-.099-.503-.107-.622-.305-.177-.292-.114-.674-.171-1.01.379-.361.854-.578 1.205-.975.13-.148.167-.379.329-.493.057-.04.126.237.13.167.01-.128-.078-.244-.118-.366-.163-.09-.311-.213-.488-.27-1.155-.368-2.407.094-3.376.713l-.242-.856z" style="opacity:1;fill:#000;fill-opacity:1;stroke:#000;stroke-width:.0714142;stroke-linecap:butt;stroke-linejoin:miter;stroke-miterlimit:10;stroke-dasharray:none;stroke-dashoffset:0;stroke-opacity:1"/><path d="M95.894 63.23c.637-.46 1.291-.935 2.027-1.228.696-.278 1.034-.308 1.772-.454.335-.034.669-.09 1.006-.102 1.318-.05 2.895.144 4.014.898.276.186.504.435.756.653.183.253.393.487.547.758.698 1.224.558 2.5.112 3.776-.092.224-.185.433-.365.594l-.18-.465c.113-.165.192-.348.262-.535.079-.251.197-.494.233-.755.155-1.14-.122-2.035-.833-2.937-.232-.21-.44-.448-.696-.627-1.063-.741-2.6-.922-3.861-.87-.329.013-.654.068-.98.102-.716.146-1.028.172-1.7.448-.72.295-1.356.767-1.978 1.224l-.136-.48z" style="opacity:1;fill:#000;fill-opacity:1;stroke:#000;stroke-width:.04;stroke-linecap:butt;stroke-linejoin:miter;stroke-miterlimit:10;stroke-dasharray:none;stroke-dashoffset:0;stroke-opacity:1" transform="matrix(1.78536 0 0 1.78536 6.257 -133.648)"/><path d="M104.631 65.239c.43 1.14.681 2.34 1.129 3.473.022.046.06.088.065.14.002.02-.039-.02-.053-.035-.047-.048-.137-.088-.128-.154.024-.171.138-.318.213-.473.358-.733.35-.674.807-1.41.819-1.107 1.71-2.338 2.995-2.937l.084.49c-1.222.615-2.072 1.802-2.85 2.881-.439.727-.434.674-.774 1.396-.141.299-.145.56-.484.688-.111.042-.188-.18-.207-.217-.464-1.13-.704-2.337-1.135-3.48l.338-.362z" style="opacity:1;fill:#000;fill-opacity:1;stroke:#000;stroke-width:.04;stroke-linecap:butt;stroke-linejoin:miter;stroke-miterlimit:10;stroke-dasharray:none;stroke-dashoffset:0;stroke-opacity:1" transform="matrix(1.78536 0 0 1.78536 6.257 -133.648)"/><path d="M307.508 56.847c-.102 1.117-.092 2.237-.168 3.355-.038.547-.112 1.258-.166 1.811-.05.48-.095.959-.141 1.438l-.415.229c.05-.48.095-.961.147-1.442.049-.483.14-1.336.173-1.804.08-1.119.067-2.24.157-3.358l.413-.229zM304.873 64.486a1292.424 1292.424 0 0 0 6.089-.001l-.04.497-.84-.003c-1.75-.003-3.498-.003-5.247.002l.039-.495zM304.774 66.893c.891-.487 1.96-.78 2.984-.736.232.01.46.072.69.107.17.078.362.122.513.234.366.27.37.664.194 1.087-.173.417-1.169.778-1.544.94l-.505.183c-.123.038-.246.07-.367.113-.039.013-.111.094-.11.053.004-.54.032-.512.413-.453.153.024.304.062.456.093.793.297 1.478.816 1.925 1.544.091.148.18.302.23.47.044.148.031.308.047.463-.088.24-.111.516-.264.722-.11.15-.307.215-.48.283-.706.279-1.525.215-2.247.042-.249-.06-.486-.16-.728-.24-.244-.136-.62-.293-.802-.544-.056-.078-.065-.181-.097-.272l.384-.317c-.017.051-.071.105-.05.154.098.214.552.421.69.502.228.077.45.175.684.232.655.16 1.415.23 2.055-.04.128-.053.221-.17.345-.23.034-.017.075.003.113.004.01-.127.053-.257.029-.383-.03-.156-.11-.3-.188-.439-.386-.687-1.014-1.177-1.739-1.464-.141-.029-.282-.065-.424-.086-.104-.016-.249.057-.314-.025-.453-.57.06-.562.382-.673.165-.057.326-.12.489-.18.331-.148.756-.31 1.048-.54.104-.084.155-.223.263-.303.026-.019.091.077.085.045-.068-.355-.252-.332-.568-.488-.21-.034-.418-.094-.63-.103-.984-.04-2.006.25-2.854.732l-.108-.487z" style="opacity:1;fill:#000;fill-opacity:1;stroke:#000;stroke-width:.04;stroke-linecap:butt;stroke-linejoin:miter;stroke-miterlimit:10;stroke-dasharray:none;stroke-dashoffset:0;stroke-opacity:1" transform="matrix(1.78536 0 0 1.78536 10.69 -143.609)"/><path d="M88.954 57.95c.273 1.333.291 2.704.312 4.06-.05.052.103.843.087.863-.021.027-.053-.042-.08-.063l-.09.49c-.064-.028-.144-.035-.193-.085-.102-.103-.09-.823-.121-.913-.014-1.336-.033-2.683-.268-4.002l.353-.35zM86.426 64.151c.138 0 .275.006.413.002 1.134-.033.119-.037 1.448-.073.842-.023 1.686.003 2.528.025.617.022.342-.007.828.067l-.082.49c-.452-.073-.189-.042-.792-.066-.835-.023-1.672-.05-2.507-.025-.364.01-1.071.063-1.462.076-.138.004-.275 0-.413.001l.039-.497zM87.382 65.921c.762-.24 1.565-.56 2.37-.289.127.043.237.125.356.187.081.092.184.169.244.276.173.313.063.687-.088.985-.17.337-.795.577-1.116.719-.174.101-.382.117-.564.2-.007.003-.004.034-.002.025.035-.16-.012-.364.103-.481.08-.082.23.009.344.025.163.024.324.065.485.097.678.22 1.25.618 1.722 1.15.208.235.556.678.554 1.038-.002.27-.118.525-.177.788-.162.11-.304.256-.486.33-.984.398-2.327.039-3.172-.529-.19-.128-.344-.304-.516-.457l-.2-.424.336-.365.095.353c.15.144.282.31.453.43.742.524 1.996.89 2.875.514.13-.055.222-.173.333-.26.225-.075.22-.035.011-.489a2.28 2.28 0 0 0-.345-.498 3.505 3.505 0 0 0-1.574-1.095c-.151-.03-.3-.068-.452-.09-.112-.015-.257.057-.337-.022-.581-.576.085-.58.437-.73.244-.114.493-.208.7-.387.087-.074.128-.196.223-.259.026-.017.047.1.063.072.108-.193-.03-.305-.123-.451-.091-.055-.174-.129-.274-.165-.75-.271-1.518.082-2.23.297l-.048-.495z" style="opacity:1;fill:#000;fill-opacity:1;stroke:#000;stroke-width:.04;stroke-linecap:butt;stroke-linejoin:miter;stroke-miterlimit:10;stroke-dasharray:none;stroke-dashoffset:0;stroke-opacity:1" transform="matrix(1.78536 0 0 1.78536 -24.69 -157.75)"/></svg>