<svg xmlns="http://www.w3.org/2000/svg" width="400" height="200" viewBox="0 0 105.833 52.917"><path d="M-61.476 40.254c-.088.562.222 1 .63 1.358.157.138.333.253.5.38.212.125.415.268.638.373 1.282.606 2.91.875 4.317.836.438-.012.873-.079 1.31-.118 1.401-.235 2.824-.586 4.015-1.398.423-.288.504-.41.823-.759.059-.095.126-.185.176-.285.026-.052.12-.262.06-.35-.083-.12-.223-.038-.289.042-.054.065-.071.153-.107.229-.017.103-.048.205-.05.31-.006.257.057.577.183.8.203.361.557.693.889.925.229.16.483.281.724.422.303.117.599.257.91.351.354.108.716.186 1.08.254 1.17.22 2.373.275 3.555.117.419-.056.829-.162 1.243-.243.38-.12.765-.219 1.138-.358.822-.307 1.632-.72 2.282-1.318.322-.296.362-.392.586-.725.038-.067.281-.593.067-.642a.142.142 0 0 0-.112.026c-.038.03-.053.08-.079.121-.001.061-.012.122-.004.183.053.383.395.779.679 1.012.12.1.254.18.381.271.155.084.304.178.464.25.765.347 1.677.508 2.514.5.244-.002.487-.03.73-.045.246-.042.495-.07.738-.126.868-.202 1.735-.604 2.346-1.27.12-.132.214-.286.321-.43.066-.144.145-.282.197-.432.126-.366.162-.814-.006-1.174-.018-.04-.047-.074-.07-.11-.036-.006-.076-.035-.108-.017-.11.062-.108.213-.07.31.15.375.53.575.848.776.168.076.33.164.503.229.602.227 1.262.35 1.906.324.671-.026.861-.116 1.516-.29.664-.28.987-.374 1.588-.8a6.613 6.613 0 0 0 2.02-2.297c.158-.304.26-.634.39-.951.057-.353.151-.701.172-1.058a5.348 5.348 0 0 0-.776-3.108c-.504-.813-.787-.96-1.503-1.574-.323-.183-.63-.393-.967-.548a7.01 7.01 0 0 0-4.084-.522c-.268.047-.525.138-.788.207-.466.211-1.065.423-1.274.95a.49.49 0 0 0 .068.503c.038.048.102.068.153.102.045-.013.11 0 .136-.039.102-.161-.04-.354-.12-.469-.312-.441-.746-.773-1.158-1.112-1.014-.781-2.185-1.321-3.407-1.69a11.087 11.087 0 0 0-1.158-.294c-.435-.081-.878-.112-1.317-.167-.461-.015-.922-.05-1.383-.044-.95.011-1.832.098-2.765.278-.782.15-1.642.384-2.379.7-.314.135-.607.315-.91.472-.573.391-1.026.712-1.312 1.355-.034.075-.05.156-.068.236-.007.03-.039.083-.01.094.032.012.046-.048.069-.073-.448-.61-1.058-1.096-1.71-1.472-.232-.133-.475-.243-.712-.365-.275-.104-.545-.223-.826-.31-1.213-.38-2.58-.56-3.846-.435-.338.033-.67.106-1.005.159-.332.098-.672.174-.996.295-1.082.404-2.193 1.086-2.823 2.084-.099.155-.16.33-.24.497-.142-.066-.059.685-.175.65-.057-.016-.09-.076-.142-.104-.265-.143-.682-.3-.944-.405-.24-.068-.474-.155-.718-.206-.573-.12-1.267-.185-1.848-.122a7.377 7.377 0 0 0-2.308.674c-.394.188-.756.438-1.134.657-.783.65-1.227.926-1.809 1.777-.672.986-1.069 2.219-.941 3.42.038.36.177.702.265 1.053.518.711.437.752 1.634 1.543" style="fill:#ffd5d5;stroke:#000;stroke-width:.35;stroke-miterlimit:4;stroke-dasharray:none"/><path d="m-50.57 29.638-.11-.013" style="fill:#000;stroke-width:.396875"/><path d="M73.534 25.188c-.322-.14-.67-.209-1.015-.258-.325-.047-.684-.086-1.012-.037-.208.03-.407.104-.61.155-.677.286-1.147.604-1.512 1.26-.103.185-.206.378-.244.586-.102.557.051.947.179 1.479.142.234.255.49.427.702.178.22.393.411.616.587.213.169.435.335.685.442.428.184 1.09.257 1.551.177.25-.044.478-.164.717-.245.21-.129.437-.23.628-.385a3.021 3.021 0 0 0 1.02-1.677c.097-.444.05-.6.01-1.03-.062-.137-.107-.282-.185-.41-.278-.459-.772-.715-1.281-.827-.115-.025-.232-.034-.348-.052l-.313-.003M80.667 26.391c-.26-.112-.553-.125-.833-.13a2.65 2.65 0 0 0-1.63.531c-.282.211-.376.565-.39.893-.02.43.23.82.526 1.106.266.258.634.374.978.495.391.139.828.11 1.21-.057.365-.16.676-.453.8-.843.146-.46.098-.987-.168-1.389a.984.984 0 0 0-.747-.418l-.032-.003M32.525 60.805c-.206-.667-1.171-1.112-2.022-1.327-2.524-.639-5.652.238-7.617 1.956a9.92 9.92 0 0 0-1.438 1.537c-1.084 1.464-1.2 3.74.033 5.156.838.963 2.145 1.352 3.365 1.582.848.16 1.72.176 2.578.082" style="fill:#ffd5d5;stroke:#000;stroke-width:.35;stroke-miterlimit:4;stroke-dasharray:none"/><path d="M48.432 60.493c-.018-.143-.076-.281-.358-.564-.446-.446-1.322-1.116-2.088-1.42-2.243-.888-4.283-1.214-7.095-1.052-.547.031-1.092.1-1.63.199-1.303.24-2.471.622-3.537 1.423-.501.377-1.097.96-1.334 1.734" style="fill:#ffd5d5;stroke:#000;stroke-width:.35;stroke-miterlimit:4;stroke-dasharray:none"/><path d="M62.048 62.72c.281-.404-.212-.824-.456-1.125-1.256-1.275-2.93-2.015-4.577-2.645-2.029-.687-4.247-.894-6.354-.467-.836.212-1.759.488-2.286 1.223-.164.24-.284.594-.109.859" style="fill:#ffd5d5;stroke:#000;stroke-width:.35;stroke-miterlimit:4;stroke-dasharray:none"/><path d="M58.737 69.67c.608.577 1.447.877 2.26 1.057 1.842.383 3.821.473 5.617-.167a5.192 5.192 0 0 0 2.43-1.834c.945-1.445.901-3.49-.222-4.83-.347-.512-.833-.926-1.335-1.29-1.315-.87-2.925-1.307-4.506-1.25-.246.016-1.254.07-1.737.324M27.166 31.61c.538.818 1.032 1.3 1.785 1.79.987.64 2.249.922 3.447.939 1.103.016 2.236-.126 3.273-.635.33-.202.695-.45.851-.895.127-.406-.114-.906-.447-.904-.46.003-.697.734-.4 1.145.398.577 1.048.887 1.63 1.105 1.099.41 2.447.654 3.684.72 1.69.089 3.45.007 5.04-.655.736-.307 1.207-.77 1.431-1.375.092-.25.063-.363.005-.493-.19-.425-.73-.136-.65.276.026.134.186.317.41.49.689.536 1.403.708 2.219.943 1.366.272 2.782.305 4.13-.105.715-.217.826-.33 1.436-.694.582-.445 1.127-1.005 1.228-1.76.055-.412-1.08-.2-.77.132.56.598 1.342.89 2.092 1.064 1.698.37 3.52.432 5.159-.263a4.902 4.902 0 0 0 2.205-1.949c.847-1.519.775-3.737-.278-5.114-.326-.529-.779-.952-1.246-1.322-1.221-.887-2.705-1.227-4.159-1.232-.512-.002-1.527.12-2.002.325-.37.16.015-.046.015-.046-.05-.254-.063-.484-.247-.776-.84-1.33-2.25-2.04-3.659-2.565-1.73-.645-3.788-.69-5.871-.031-.848.268-1.781.668-2.456 1.52-.217.274-.38.644-.425.938-.11.709 1.092.562.704-.11-.069-.12-.074-.172-.316-.431-.383-.41-1.247-1.045-1.873-1.33-1.601-.73-3.547-1.164-5.832-.9a9.238 9.238 0 0 0-1.32.254c-1.051.28-1.988.692-2.822 1.5a3.83 3.83 0 0 0-1.013 1.713c-.071.261.716.298.254-.037-.615-.446-1.424-.737-2.173-.94-2.22-.604-4.74.071-6.323 1.703-.452.466-.85.992-1.204 1.556-.926 1.48-.96 3.92.142 5.32a4.565 4.565 0 0 0 2.974 1.693c.753.1 2.174-.006 2.97-.255" style="fill:#ffd5d5;stroke:#000;stroke-width:.35;stroke-miterlimit:4;stroke-dasharray:none"/><path d="M49.22 69.839c-.078.057-.121.15-.182.226-.003.103-.035.21-.01.31.074.294.32.547.545.724.696.548 1.423.734 2.252.984 1.39.297 2.835.356 4.216-.028.732-.204.847-.315 1.474-.667.6-.435 1.13-.99 1.278-1.737" style="fill:#ffd5d5;stroke:#000;stroke-width:.35;stroke-miterlimit:4;stroke-dasharray:none"/><path d="M37.407 69.779c-.527.054-.82.717-.483 1.132.452.584 1.197.817 1.872 1.036 1.377.422 2.825.548 4.256.653 1.957.097 3.953.033 5.848-.504.662-.23 1.445-.568 1.682-1.289.062-.26-.03-.531-.201-.73" style="fill:#ffd5d5;stroke:#000;stroke-width:.35;stroke-miterlimit:4;stroke-dasharray:none"/><path d="M26.094 69.321c.667.827 1.458 1.597 2.47 1.982 1.417.571 2.957.757 4.475.812 1.4.018 2.836-.055 4.16-.546.424-.196.89-.437 1.096-.879.169-.404-.137-.844-.547-.918" style="fill:#ffd5d5;stroke:#000;stroke-width:.35;stroke-miterlimit:4;stroke-dasharray:none"/><path d="M45.146-13.961c-.018-.143-.067-.28-.307-.56-.377-.439-1.116-1.096-1.757-1.39-1.879-.857-3.58-1.154-5.916-.953a9.207 9.207 0 0 0-1.352.221c-1.08.259-2.046.657-2.92 1.473-.41.384-.897.974-1.083 1.752-.041.173.249.073.12-.01-.59-.478-1.425-.737-2.174-.94-2.22-.604-4.739.071-6.322 1.703-.453.466-.85.992-1.204 1.557-.927 1.479-.96 3.756.142 5.154.75.952 1.9 1.322 2.973 1.536.745.148 1.51.152 2.26.046" style="fill:none;stroke:#000;stroke-width:.35;stroke-miterlimit:4;stroke-dasharray:none"/><path d="M56.719-12.916c.35-.401.003-.767-.146-1.036-.834-1.126-2.173-1.717-3.513-2.207-1.672-.518-3.63-.57-5.637-.027-.806.256-1.707.578-2.357 1.308-.205.239-.398.581-.302.82" style="fill:none;stroke:#000;stroke-width:.35;stroke-miterlimit:4;stroke-dasharray:none"/><path d="M55.02-4.89c.568.591 1.343.89 2.092 1.065 1.699.37 3.52.431 5.16-.263a4.902 4.902 0 0 0 2.205-1.949c.846-1.519.775-3.648-.278-5.025-.326-.528-.78-.951-1.246-1.322a6.49 6.49 0 0 0-4.16-1.232c-.226.02-1.561.148-2.001.42" style="fill:none;stroke:#000;stroke-width:.35;stroke-miterlimit:4;stroke-dasharray:none"/><path d="M46.414-4.659c-.076.059-.117.153-.176.23-.002.103-.031.21-.005.31.076.293.32.541.544.714.69.536 1.403.708 2.22.943 1.365.271 2.782.305 4.13-.105.714-.217.825-.33 1.435-.694.582-.445 1.094-1.01 1.228-1.76" style="fill:none;stroke:#000;stroke-width:.35;stroke-miterlimit:4;stroke-dasharray:none"/><path d="M35.625-4.523c-.453.062-.695.729-.398 1.14.399.576 1.046.8 1.631 1.009 1.196.402 2.447.508 3.684.593 1.69.07 3.412-.021 5.039-.585.568-.24 1.237-.588 1.431-1.312a.936.936 0 0 0-.185-.728" style="fill:none;stroke:#000;stroke-width:.35;stroke-miterlimit:4;stroke-dasharray:none"/><path d="M26.433-4.824c.538.819 1.173 1.577 1.976 1.948 1.126.552 2.344.716 3.541.75 1.104-.002 2.236-.095 3.273-.604.331-.202.696-.45.852-.894.127-.406-.12-.842-.445-.91" style="fill:none;stroke:#000;stroke-width:.35;stroke-miterlimit:4;stroke-dasharray:none"/><path d="M-11.506-7.151c.538.818 1.032 1.3 1.786 1.79.987.64 2.248.922 3.446.939 1.104.015 2.236-.126 3.273-.635.331-.202.696-.45.852-.895.127-.406-.115-.906-.447-.904-.46.003-.698.734-.401 1.145.399.577 1.046.8 1.631 1.01 1.196.402 2.447.508 3.684.593 1.69.07 3.412-.022 5.039-.586.567-.24 1.237-.588 1.431-1.312.05-.26-.044-.524-.185-.727-.13-.187-.291-.365-.413-.253a.56.56 0 0 0-.181.54c.044.299.32.54.544.714.69.535 1.403.707 2.22.943 1.365.27 2.782.304 4.13-.105.714-.218.825-.33 1.435-.694.582-.446 1.128-1.005 1.228-1.76.055-.413-1.08-.201-.77.131.56.598 1.343.89 2.092 1.065 1.699.37 3.52.431 5.16-.264a4.902 4.902 0 0 0 2.205-1.948c.846-1.52.775-3.648-.278-5.025-.326-.529-.78-.952-1.246-1.322a6.49 6.49 0 0 0-4.16-1.232c-.226.02-1.561.148-2.001.42-.599.204-.151.393-.073.28.35-.402.03-.785-.146-1.036-.807-1.146-2.16-1.755-3.513-2.207-1.66-.556-3.637-.595-5.637-.028-.813.231-1.71.576-2.357 1.309-.208.236-.373.572-.302.82.093.33.415.294.382.096-.025-.141-.068-.28-.307-.559-.377-.44-1.128-1.06-1.757-1.378-1.61-.813-3.58-1.33-5.916-1.13a9.207 9.207 0 0 0-1.352.222c-1.08.258-2.046.657-2.92 1.473-.41.383-.859.984-1.083 1.752-.1.345.706.447.12-.01-.6-.467-1.425-.737-2.174-.94-2.22-.604-4.739.071-6.322 1.702-.453.467-.85.993-1.204 1.557-.927 1.48-.96 3.92.142 5.319a4.565 4.565 0 0 0 2.973 1.694 6.31 6.31 0 0 0 2.26-.144" style="fill:#ffd5d5;stroke:#000;stroke-width:.35;stroke-miterlimit:4;stroke-dasharray:none"/></svg>