<svg xmlns="http://www.w3.org/2000/svg" xmlns:xlink="http://www.w3.org/1999/xlink" id="svg4817" width="569" height="537" preserveAspectRatio="none" version="1.1" viewBox="-57.8 -50.047 569 537"><style id="style4594" type="text/css">.grid{stroke:#9e9ed1;stroke-width:.4}.axes{stroke:#000;stroke-width:.9}.axes-arrows{stroke-width:1.1;stroke:#000;fill:none;stroke-linecap:round;stroke-linejoin:round}.none{display:none}.pink-panther{stroke:red;fill:none;stroke-width:1.5}</style><defs id="defs4611"><path id="STIXWEBNORMALI-1D461" stroke-width="1" d="m283 438-10-38h-70L125 80c-1-3-2-8-2-11 0-6 3-12 16-12 0 0 23 2 60 52l13-11C188 67 138-9 79-9 48-9 40 16 40 43c0 13 2 26 5 37l81 320H49l5 29c75 14 136 51 177 138h13l-31-129Z"/><path id="STIXWEBMAIN-5B" stroke-width="1" d="M299-156H88v818h211v-25h-83c-34 0-52-12-52-48V-77c0-40 19-54 52-54h83z"/><path id="STIXWEBMAIN-5D" stroke-width="1" d="M245-156H34v25h88c35 0 47 15 47 46v668c0 35-13 54-51 54H34v25h211z"/><path id="STIXWEBNORMALI-1D465" stroke-width="1" d="m305 288 45 69c26 40 61 84 111 84 32 0 49-12 49-33 0-19-13-42-39-42-22 0-27 9-44 9-30 0-41-16-55-38l-55-85c30-62 53-197 98-197 16 0 40 14 61 57l14-10C478 87 433-9 375-9c-41 0-60 41-73 77l-40 113-63-98C167 34 138-9 82-9 46-9 30 16 30 38c0 16 13 37 38 37 26 0 22-20 47-20 12 0 38 10 70 59l65 101-33 92c-17 48-43 89-98 89-13 0-28-2-38-6l-3 18 132 33c44-24 63-65 75-98z"/><path id="STIXWEBVARIANTS-2032" stroke-width="1" d="M78 28 44 40c26 123 89 398 107 456 16 51 46 69 76 69 36 0 68-22 68-71 0-11-5-35-10-47-21-57-146-306-207-419Z"/><path id="STIXWEBMAIN-28" stroke-width="1" d="m304-161-12-16C134-87 48 82 48 252c0 185 87 329 247 424l9-16C165 541 134 448 134 255c0-186 30-299 170-416Z"/><path id="STIXWEBMAIN-29" stroke-width="1" d="m29 660 12 16c153-92 244-259 244-429 0-185-88-327-247-424l-9 16C171-44 199 50 199 244c0 187-25 302-170 416Z"/><path id="STIXWEBMAIN-2F" stroke-width="1" d="M287 676 59-14H-9l229 690z"/><path id="STIXWEBMAIN-34" stroke-width="1" d="M473 167H370V0h-78v167H12v64l314 445h44V231h103Zm-181 64v343L52 231Z"/><path id="STIXWEBMAIN-30" stroke-width="1" d="M476 330c0-172-63-344-226-344C79-14 24 172 24 336c0 177 69 340 230 340 131 0 222-141 222-346Zm-96-5c0 208-44 325-132 325-83 0-128-118-128-321S164 12 250 12c85 0 130 115 130 313z"/><path id="STIXWEBMAIN-35" stroke-width="1" d="m438 681-36-85c-3-7-11-13-27-13H181l-40-85c143-27 193-49 250-128 26-36 35-74 35-127 0-96-30-158-98-208-47-34-102-49-170-49C83-14 31 10 31 48c0 25 17 38 45 38 23 0 42-5 74-31 28-23 51-32 71-32 70 0 135 83 135 169 0 64-22 114-67 150-47 38-117 70-213 70-9 0-12 2-12 8 0 2 1 5 1 5l109 237h207c23 0 32 5 48 26z"/><path id="STIXWEBMAIN-36" stroke-width="1" d="m446 684 2-16c-157-26-269-134-296-285 49 38 83 45 127 45 117 0 189-80 189-209 0-64-18-120-51-160-37-46-93-73-159-73-79 0-142 37-177 101-28 51-47 122-47 192 0 108 38 203 109 276 86 90 165 114 303 129zm-68-496c0 128-42 194-135 194-57 0-116-24-116-116 0-152 48-252 142-252 72 0 109 72 109 174z"/><path id="STIXWEBMAIN-2212" stroke-width="1" d="M621 220H64v66h557z"/><path id="STIXWEBMAIN-38" stroke-width="1" d="M445 155c0-103-77-169-197-169C135-14 56 55 56 149c0 69 23 108 130 183C83 417 62 455 62 520c0 96 83 156 194 156 99 0 168-65 168-143 0-75-35-109-134-162 123-82 155-136 155-216Zm-90 378c0 69-41 115-109 115-67 0-110-37-110-99s37-108 125-160c68 40 94 82 94 144zm-84-261-59 40c-59-48-80-89-80-154 0-92 51-144 127-144 65 0 110 45 110 110 0 62-30 102-98 148z"/><path id="STIXWEBMAIN-37" stroke-width="1" d="M449 646 237-8h-65l198 596H155c-58 0-75-14-117-82l-18 9 60 147h369z"/></defs><g id="graphs"><path id="path1032233" d="m494.76 257.474.08 175.406 2.912-8.78h1.972l1.968 8.088 1.968-9.206 1.968 3.968 1.968 4.86 1.972-8.604 2.912 15.257.08-200.463" style="fill:none;stroke:#000;stroke-width:1.5;stroke-opacity:.2"/><path id="path1032231" d="m423.92 237.852.08 192.222 2.86 1.053 1.932 1.56 1.936-3.674 1.932 1.308 1.932 12.997 1.936-12.588 1.932-2.109 2.86 3.408.08-174.555" style="fill:none;stroke:#000;stroke-width:1.5;stroke-opacity:.2"/><path id="path1032229" d="m250.728 221.455.073-174.958 2.908 3.057h1.964l1.964-3.59 1.964 5.592 1.964-.394 1.964-8.46 1.964 8.26 1.964-.47 1.968-3.995 1.964 3.091 1.964-.857 1.964-1.957 1.964-11.735 1.964 10.343 1.964 6.188 1.964-6.98 2.908 4.222L286.16 238" style="fill:none;stroke:#000;stroke-width:1.5;stroke-opacity:.2"/><path id="path7287" d="m143.856 238 .08 175.692 2.692 12.303 1.824-7.149 1.824 10.2 1.82-3.5 1.824-9.248 1.82 13.065 1.824-2.178 1.824-2.848 2.692-3.074.08-183.263h53.536l.08-185.072 2.896-4.544 1.96-.238 1.956-2.184 1.96 5.424 1.956-10.075 1.96-4.418 1.96 11.62 2.896-3.573.08 193.06h17.32l.004-9.022" style="fill:none;stroke:#000;stroke-width:1.5;stroke-opacity:.2"/><path id="path263986" d="m-275.562 253.829.08 176.33 2.936 13.966 1.984-12 1.984 11.812 1.984.252 1.984-11.118 1.984 6.767 1.984 5.933 1.984-13.185 1.984 11.45 2.936-2.182.08-188.025" class="pink-panther" style="fill:#fde1e8;fill-opacity:1;stroke:none;stroke-width:1.5"/><path id="path265071" d="m-289.138 227.371.08-203.142 2.912 16.517 1.964-6.241 1.968 3.012 1.968.348 1.964.86 1.968-1.86 1.968 3.142 1.964-4.76 1.968 4.802 1.964-4.9 1.968 4.536 1.968-5.035 1.968 4.256 1.964 1.1 1.968-4.955 1.964 4.872 2.912-1.272.08 188.72" class="pink-panther" style="fill:#d0f0f7;fill-opacity:1;stroke:none;stroke-width:1.5"/><path id="path7287-1" d="m-609.578 5.171.08 175.692 2.692 12.303 1.824-7.148 1.824 10.2 1.82-3.5 1.824-9.248 1.82 13.065 1.824-2.179 1.824-2.847 2.692-3.075.08-183.263m53.536 0 .08-185.071 2.896-4.545 1.96-.238 1.956-2.184 1.96 5.424 1.956-10.074 1.96-4.419 1.96 11.62 2.896-3.573.08 193.06m17.32 0 .004-9.94m.002-4.404.074-177.159 2.908 3.058h1.964l1.964-3.59 1.964 5.592 1.964-.395 1.964-8.459 1.964 8.26 1.964-.47 1.968-3.996 1.964 3.091 1.964-.856 1.964-1.958 1.964-11.734 1.964 10.343 1.964 6.188 1.964-6.98 2.908 4.222.568 1.88" class="pink-panther" style="fill:none;stroke:#000;stroke-width:1.5;stroke-opacity:.2"/></g><g id="notch labels" style="stroke:none;fill:#b8b8de"><path id="path813800" d="m162.03 237.637.08-203.142 2.912 16.517 1.964-6.241 1.968 3.012 1.968.348 1.964.86 1.968-1.86 1.968 3.142 1.964-4.76 1.968 4.802 1.964-4.9 1.968 4.536 1.968-5.035 1.968 4.256 1.964 1.1 1.968-4.955 1.964 4.872 2.912-1.272.08 188.72" style="fill:#d0f0f7;fill-opacity:1;stroke:none"/><path id="path815991" d="m633.104 237.637.08-200.25 2.908 11.09 1.964 2.375 1.964-6.515 1.964 4.922 1.964-.781 1.964-1.837 1.964.918 1.964 1.16 1.968-.97 1.964 3.478 1.964-3.712 1.964-2.03 1.964 2.993 1.964 3.505 1.964-5.779 1.964-1.005 1.964 7.258 1.727-8.574 1.24-.206L678.078 238" style="fill:#d0f0f7;fill-opacity:1;stroke:none"/><path id="path815989" d="m441.27 237.637.08-188.221 2.928 1.277 1.98.358 1.98-4.911 1.98 5.908 1.98-5.275 1.976 1.523 1.98 4.72 1.98-6.196 1.98.362 1.98 6.073 1.976-9.78 1.98 7.722 1.98.582 1.98-5.295 1.98-.344 1.976 8.783 1.98-10.813 1.98 5.306 1.98-3.17 1.98 7.157 1.98-7.728 1.976 6.812 1.98-2.842 1.98-4.468 1.98 7.31 2.928-14.249.08 199.4" style="fill:#d0f0f7;fill-opacity:1;stroke:none"/><path id="path815987" d="m286.03 237.637.08-187.34 2.956 1.89 1.996 1.465 2-6.126 1.996.677 2 .84 1.996 4.018 1.996-4.194 2 2.733 1.996-1.302 1.996-3.122 2 3.31 1.996-.379 2 .19 1.996 2.546 1.996-4.665 2 3.13 1.996.393 1.996 1.122 2-5.317 1.996 3.352 2-1.16 1.996-1.254 1.996 6.205 2-9.57 1.996 6.076 1.996 3.421 2-9.464 1.996 7.532 2-.095 1.996-5.132 1.996.137 2 7.431 1.996-9.54 1.996 7.258 2-.213 1.996-6.888 2 6.34 1.996 2.153 1.996-7.18 2 3.753 1.996 1.764 1.996-4.75 2-.268 1.996 7.084 2-6.521 1.996 2.32 1.996 2.073 2-6.68 1.996 6.397 1.996 1.246 2-5.443 1.996-.58 2 7.126 1.996-8.514 1.996 5.972 2 .608 1.996-5.94 1.996 6.365 2-5.045 1.996 4.57 2-3.408 1.996-9.316 2.956 8.45.08 189.46" style="fill:#d0f0f7;fill-opacity:1;stroke:none"/><path id="path813278" d="m107.416 238 .08 176.33 2.936 13.966 1.984-12 1.984 11.813 1.984.252 1.984-11.119 1.984 6.768 1.984 5.933 1.984-13.185 1.984 11.449 2.936-2.181.08-188.026m104 0 .08 191.464 2.86-2.383 1.932 5.203 1.936-1.95 1.932 12.424 1.932-9.466 1.936 1.386 1.932-8.076 2.86 4.797L250.8 238" class="pink-panther" style="fill:#fde1e8;fill-opacity:1;stroke:none"/><path id="path4613" d="M20 476V0" class="grid"/><path id="path4615" d="M60 476V233.081m0-17.841V0" class="grid"/><path id="path4617" d="M100 476V0" class="grid"/><path id="path4619" d="M140 476V0" class="grid"/><path id="path4621" d="M180 476V0" class="grid"/><path id="path4623" d="M220 476V0" class="grid"/><path id="path4625" d="M260 476V233.081m0-18.693V0" class="grid"/><path id="path4627" d="M300 476V0" class="grid"/><path id="path4629" d="M340 476V0" class="grid"/><path id="path4631" d="M380 476V0" class="grid"/><path id="path4633" d="M420 476V0" class="grid"/><path id="path4635" d="M460 476V233.081m0-18.693V0" class="grid"/><path id="path4637" d="M500 476V0" class="grid"/><path id="path4639" d="M540 476V0" class="grid"/><path id="path4659" d="M0 462h29.49m24.771 0H920" class="grid"/><path id="path4661" d="M0 434h29.49m24.771 0H920" class="grid"/><path id="path4663" d="M0 406h29.487m24.774 0H920" class="grid"/><path id="path4665" d="M0 378h920" class="grid"/><path id="path4667" d="M0 350h920" class="grid"/><path id="path4669" d="M0 322h920" class="grid"/><path id="path4671" d="M0 294h920" class="grid"/><path id="path4673" d="M0 266h920" class="grid"/><path id="path4675" d="M0 238h920" class="grid"/><path id="path4677" d="M0 210h920" class="grid"/><path id="path4679" d="M0 182h920" class="grid"/><path id="path4681" d="M0 154h920" class="grid"/><path id="path4683" d="M0 126h920" class="grid"/><path id="path4685" d="M0 98h920" class="grid"/><path id="path4687" d="M0 70h40.59m13.671 0H920" class="grid"/><path id="path4689" d="M0 42h40.593m13.668 0H920" class="grid"/><path id="path4691" d="M0 14h40.593m13.668 0H920" class="grid"/><path id="path4694" d="M0 238h927.378" class="axes"/><path id="path4696" d="M60 476V233.081m0-17.841V-6.558" class="axes"/><path id="path4701" d="M55.081-2.623C57.05-2.623 60-5.575 60-6.558c0 .983 2.951 3.935 4.919 3.935" class="axes-arrows"/><g id="g4740" style="stroke:none;fill:#000" transform="matrix(.01904 0 0 -.01904 43.19 -24.594)"><use xlink:href="#STIXWEBNORMALI-1D465" id="use4716" x="0" y="0"/><use xlink:href="#STIXWEBVARIANTS-2032" id="use4718" x="778" y="583" transform="scale(.707)"/><use xlink:href="#STIXWEBMAIN-28" id="use4720" x="891" y="0"/><use xlink:href="#STIXWEBNORMALI-1D461" id="use4722" x="1224" y="0"/><use xlink:href="#STIXWEBMAIN-29" id="use4724" x="1538" y="0"/><use xlink:href="#STIXWEBMAIN-5B" id="use4726" x="2371" y="0"/><g id="g4730" transform="translate(2705)"><g id="text4728" aria-label="c" style="font-size:20.5px;font-family:baskerville" transform="scale(52.507 -52.507)"><path id="path6088" d="M7.838-2.002h.44Q7.598.33 4.875.33 3.123.33 1.922-.86.73-2.053.73-4.015q0-2.012 1.291-3.263t3.053-1.251q1.061 0 1.952.47.89.46.89 1.131 0 .25-.17.47-.16.22-.47.22-.66 0-.81-.77-.12-.58-.371-.81-.26-.23-1.011-.23-1.341 0-2.022.93-.67.931-.67 2.803 0 1.932.72 3.023.73 1.09 2.202 1.09 1.982 0 2.523-1.801z"/></g></g><use xlink:href="#STIXWEBMAIN-2F" id="use4732" x="3205" y="0"/><g id="g4736" transform="translate(3484)"><g id="text4734" aria-label="s" style="font-size:20.5px;font-family:baskerville" transform="scale(52.507 -52.507)"><path id="path6091" d="M.83.26v-2.692h.391Q1.901-.1 3.654-.1q.76 0 1.13-.46.381-.461.381-1.012 0-.64-.4-1.05-.41-.411-1.592-.992-1.241-.61-1.782-1.2-.54-.581-.54-1.432 0-.81.58-1.542.581-.74 1.632-.74 1.071 0 1.772.87.15-.15.39-.73h.37v2.532h-.37q-.2-.91-.78-1.561-.571-.66-1.352-.66-.6 0-.97.37-.371.37-.371.86 0 .54.41.931.4.4 1.532.911 1.701.77 2.082 1.502.38.74.38 1.421 0 1.071-.71 1.742-.701.67-1.772.67-1.132 0-2.012-.93-.27.3-.44.86z"/></g></g><use xlink:href="#STIXWEBMAIN-5D" id="use4738" x="3843" y="0"/></g><g id="g809002"><path id="path5781-9" d="M-24.92 280.699v.704q-4.236 3.41-9.687 3.41-5.155 0-9.279-3.297v-.705q1.787 1.623 4.216 2.501 2.43.868 4.992.868 3.174 0 5.726-1.01 2.562-1.022 4.032-2.471z" style="font-size:20.5px;font-family:baskerville;fill:#000;stroke:#000;stroke-width:.1;stroke-dasharray:none;stroke-opacity:1"/><path id="path5783-4" d="M-36.893 277.392q-.858-.613-1.287-1.368-.428-.766-.428-1.674 0-1.031.428-1.705.43-.684 1.062-.888.623-.204 2.031-.204h2.307q1.47 0 1.787-.051.316-.061.47-.337.142-.276.142-1.02h.47v4.317h-.47v-.194q0-.745-.214-.96-.215-.224-.5-.255-.296-.04-1.685-.04h-2.51q-1.042 0-1.542.122-.5.123-.827.582-.327.45-.327 1.133 0 .796.47 1.43.46.632 1.388 1.112h3.348q1.409 0 1.736-.041.326-.051.5-.317.163-.265.163-.97h.47v4.247h-.47v-.214q0-.735-.204-.95-.214-.224-.5-.255-.296-.04-1.695-.04h-8.33q-1.265 0-1.602.244-.337.235-.337 1.144h-.47q0-1.582-.428-2.634v-.214z" style="font-size:20.5px;font-family:baskerville;fill:#000;stroke:#000;stroke-width:.1;stroke-dasharray:none;stroke-opacity:1"/><path id="path5785-2" d="M-34.107 268.92q-1.919 0-3.205-1.287-1.296-1.286-1.296-3.164 0-1.889 1.296-3.175 1.296-1.286 3.205-1.286 2.113 0 3.328 1.307 1.205 1.306 1.205 3.154 0 1.847-1.225 3.154-1.236 1.296-3.308 1.296zm.051-1.695q2.226 0 3.124-.725.888-.725.888-2.031 0-1.337-.888-2.042-.898-.714-3.124-.714-2.205 0-3.144.704-.939.704-.939 2.052 0 1.337.94 2.052.928.704 3.143.704z" style="font-size:20.5px;font-family:baskerville;fill:#000;stroke:#000;stroke-width:.1;stroke-dasharray:none;stroke-opacity:1"/><path id="path5787-7" d="M-36.475 255.762q-.908-.347-1.52-1.123-.613-.786-.613-1.531 0-.674.418-1.062.419-.388.858-.388.296 0 .51.204.214.194.214.48 0 .51-.755.776-.51.184-.51.551 0 .439.602 1.051.592.613 1.235.786.643.174 1.766.174h1.49q1.338 0 1.685-.03.347-.041.53-.297.184-.255.184-.908v-.286h.47v4.44h-.47v-.214q0-.612-.163-.868-.174-.265-.48-.316-.306-.051-1.756-.051h-2.358q-1.347 0-1.684.04-.347.031-.53.287-.195.255-.195.908v.214h-.459q-.112-.96-.602-2.51.806-.297 2.133-.327z" style="font-size:20.5px;font-family:baskerville;fill:#000;stroke:#000;stroke-width:.1;stroke-dasharray:none;stroke-opacity:1"/><path id="path5789-4" d="M-42.875 250.219q-.439 0-.755-.306-.317-.317-.317-.756t.317-.745q.316-.306.755-.306.45 0 .766.306t.316.745q0 .44-.316.756-.317.306-.766.306zm4.267-1.97h5.828q1.338 0 1.685-.041.347-.04.53-.296.184-.255.184-.909v-.214h.47v4.502h-.47v-.347q0-.725-.204-.94-.214-.224-.5-.255-.296-.04-1.695-.04h-2.531q-1.47 0-1.797.142-.326.133-.408.368-.082.224-.082.796v.276h-.47q-.183-1.817-.54-2.818z" style="font-size:20.5px;font-family:baskerville;fill:#000;stroke:#000;stroke-width:.1;stroke-dasharray:none;stroke-opacity:1"/><path id="path5791-4" d="M-29.911 245.85h-.317l-7.574-5.543v3.042q0 .582.082.796.071.204.49.5.408.286 1.276.582v.378l-2.317-.133v-7.002h.367l7.523 5.512v-2.287q0-1.112-.122-1.49-.123-.378-.603-.745-.49-.368-1.47-.735v-.408l2.665.245z" style="font-size:20.5px;font-family:baskerville;fill:#000;stroke:#000;stroke-width:.1;stroke-dasharray:none;stroke-opacity:1"/><path id="path5793-6" d="M-34.107 236.888q-1.919 0-3.205-1.287-1.296-1.286-1.296-3.164 0-1.888 1.296-3.174 1.296-1.287 3.205-1.287 2.113 0 3.328 1.307 1.205 1.307 1.205 3.154 0 1.848-1.225 3.154-1.236 1.297-3.308 1.297zm.051-1.695q2.226 0 3.124-.725.888-.724.888-2.03 0-1.338-.888-2.042-.898-.715-3.124-.715-2.205 0-3.144.704-.939.705-.939 2.052 0 1.337.94 2.052.928.704 3.143.704z" style="font-size:20.5px;font-family:baskerville;fill:#000;stroke:#000;stroke-width:.1;stroke-dasharray:none;stroke-opacity:1"/><path id="path5795-5" d="M-38.608 224.332v-.275q.633-.235 1.725-.266-.868-.735-1.297-1.541-.428-.807-.428-1.684 0-1 .418-1.634.419-.643 1.031-.826.602-.184 1.766-.184h2.613q1.45 0 1.766-.051.317-.051.48-.317.153-.275.153-1h.47v4.277h-.47v-.194q0-.735-.214-.96-.215-.224-.5-.255-.286-.03-1.685-.03h-2.695q-.99 0-1.408.102-.429.092-.756.52-.326.419-.326 1.072 0 .745.449 1.43.439.673 1.327 1.275h3.41q1.449 0 1.765-.05.317-.062.48-.327.153-.276.153-1.01h.47v4.225h-.47q0-.704-.143-.98t-.429-.337q-.296-.071-1.827-.071h-2.49q-1.46 0-1.766.061-.317.051-.47.327-.163.265-.163 1h-.47q-.122-1.123-.47-2.297z" style="font-size:20.5px;font-family:baskerville;fill:#000;stroke:#000;stroke-width:.1;stroke-dasharray:none;stroke-opacity:1"/><path id="path5797-5" d="M-37.802 210.368v2.521h5.053q1.164 0 1.572-.102.398-.102.643-.428.245-.337.245-.715 0-.735-.837-1.276l.194-.327q.674.317 1.02.94.338.612.338 1.245 0 .735-.43 1.296-.438.551-1.02.694-.582.133-2.042.133h-4.736v1.215h-.47q-.02-.837-.704-1.5-.684-.664-1.919-.848v-.327h2.624v-2.52z" style="font-size:20.5px;font-family:baskerville;fill:#000;stroke:#000;stroke-width:.1;stroke-dasharray:none;stroke-opacity:1"/><path id="path5799-5" d="M-31.442 200.804v-.378q1.745.092 1.745 1.715 0 .694-.367 1.102-.368.398-1.093.52.725 1.022 1.093 1.869.367.837.367 1.5 0 .848-.49 1.46t-1.296.612q-1.052 0-1.838-1.02-.786-1.031-1.53-2.838l-.644-1.582h-.408q-.868 0-1.256.112t-.694.582q-.306.47-.306 1.235 0 1.531 1.02 1.705 1.042.163 1.042.857 0 .623-.592.623-.582 0-1.246-.827-.673-.827-.673-2.572 0-1.297.408-2.011.408-.715.929-.94.52-.234 1.592-.234h3.38q1.183 0 1.52-.123.337-.122.337-.53 0-.674-1-.837zm-3.573 2.96.449 1.112q1.072 2.634 2.695 2.634.643 0 1.041-.337.388-.337.388-.878 0-.48-.317-1.112-.316-.633-.949-1.42z" style="font-size:20.5px;font-family:baskerville;fill:#000;stroke:#000;stroke-width:.1;stroke-dasharray:none;stroke-opacity:1"/><path id="path5801-7" d="M-43.947 197.006h11.167q1.338 0 1.685-.03.347-.041.53-.296.184-.256.184-.909v-.245h.47v4.471h-.47v-.286q0-.612-.163-.867-.174-.266-.48-.317-.306-.05-1.756-.05h-8.268q-1.317 0-1.654.234-.347.235-.347 1.143h-.47q0-.622-.142-1.46-.143-.847-.286-1.163z" style="font-size:20.5px;font-family:baskerville;fill:#000;stroke:#000;stroke-width:.1;stroke-dasharray:none;stroke-opacity:1"/><path id="path5803-8" d="M-24.92 195.312q-1.47-1.44-4.032-2.45-2.552-1.02-5.726-1.02-2.44 0-4.88.826-2.44.827-4.328 2.542v-.715q4.124-3.297 9.28-3.297 5.45 0 9.686 3.41z" style="font-size:20.5px;font-family:baskerville;fill:#000;stroke:#000;stroke-width:.1;stroke-dasharray:none;stroke-opacity:1"/></g><g id="g4759" transform="matrix(.01618 0 0 -.01618 51.9 229.257)"><use xlink:href="#STIXWEBMAIN-34" id="use4755"/><use xlink:href="#STIXWEBMAIN-30" id="use4757" x="500" y="0"/></g><g id="g4765" transform="matrix(.01618 0 0 -.01618 251.9 229.255)"><use xlink:href="#STIXWEBMAIN-34" id="use4761"/><use xlink:href="#STIXWEBMAIN-35" id="use4763" x="500" y="0"/></g><g id="g4771" transform="matrix(.01618 0 0 -.01618 451.9 229.255)"><use xlink:href="#STIXWEBMAIN-35" id="use4767"/><use xlink:href="#STIXWEBMAIN-30" id="use4769" x="500" y="0"/></g><g id="g4789" transform="matrix(.01619 0 0 -.01619 32.277 467.467)"><use xlink:href="#STIXWEBMAIN-2212" id="use4785" x="0" y="0"/><use xlink:href="#STIXWEBMAIN-38" id="use4787" x="685" y="0"/></g><g id="g4795" transform="matrix(.01619 0 0 -.01619 32.277 439.467)"><use xlink:href="#STIXWEBMAIN-2212" id="use4791" x="0" y="0"/><use xlink:href="#STIXWEBMAIN-37" id="use4793" x="685" y="0"/></g><g id="g4801" transform="matrix(.01619 0 0 -.01619 32.276 411.47)"><use xlink:href="#STIXWEBMAIN-2212" id="use4797" x="0" y="0"/><use xlink:href="#STIXWEBMAIN-36" id="use4799" x="685" y="0"/></g><g id="g4805" transform="matrix(.01618 0 0 -.01618 43.378 75.467)"><use xlink:href="#STIXWEBMAIN-36" id="use4803" x="0" y="0"/></g><g id="g4809" transform="matrix(.01618 0 0 -.01618 43.379 47.465)"><use xlink:href="#STIXWEBMAIN-37" id="use4807" x="0" y="0"/></g><g id="g4813" transform="matrix(.01618 0 0 -.01618 43.379 19.465)"><use xlink:href="#STIXWEBMAIN-38" id="use4811" x="0" y="0"/></g><g id="g25836" transform="translate(-.28 10.669)"><ellipse id="ellipse25832" cx="118.462" cy="466.74" rx="9.002" ry="8.766" style="fill:#fcff80;fill-opacity:1;stroke:#000;stroke-width:.986833;stroke-dasharray:none;stroke-opacity:1"/><path id="path25834" d="M120.53 471.246q0 .112-.31.112H119.516q-.534-.014-1.083-.014-.972 0-1.24.014-.267.014-.421.014-.338 0-.338-.126t.197-.126q.31 0 .661-.014.437-.014.465-.21.042-.21.042-.881v-6.575q0-.448-.028-.532-.028-.083-.197-.083-.07 0-.915.07-.169.013-.225.013-.17 0-.17-.097 0-.112.17-.126.661-.07 1.337-.392.676-.336 1.084-.783.155-.126.211-.126.113 0 .113.14v.265q-.014.112-.014.252v8.366q0 .503.042.587.056.084.352.098l.323.014.24.014h.21q.198 0 .198.126z" style="font-size:36.4174px;font-family:&quot;Bodoni 72&quot;;-inkscape-font-specification:&quot;Bodoni 72, &quot;;fill:#000;fill-opacity:1;stroke:#000;stroke-width:.2;stroke-dasharray:none"/></g><g id="g25842" transform="translate(-.684 10.669)"><ellipse id="ellipse25838" cx="152.862" cy="466.74" rx="9.002" ry="8.766" style="fill:#8dff80;fill-opacity:1;stroke:#000;stroke-width:.986833;stroke-dasharray:none;stroke-opacity:1"/><path id="path25840" d="M156.044 468.749q0 .042-.028.223-.07.462-.225 2.28l-.014.169q-1.45-.07-3.308-.07-1 0-1.873.028-.872.028-.76.028-.38 0-.38-.14 0-.112.732-.7 1.76-1.427 2.506-2.322 1.295-1.553 1.295-3.651 0-1.413-.591-2.14-.45-.56-1.267-.56-.803 0-1.267.49-.366.377-.366.755 0 .238.38.252.985.042.985.853 0 .77-.816.77-.521 0-.83-.322-.31-.322-.31-.882 0-1.035.732-1.664.732-.63 1.928-.63 1.197 0 1.985.756.915.88.915 2.294 0 1.553-1.042 2.868-1.041 1.3-3.505 2.84.93-.029 2.337-.029 1.168 0 1.478-.028.31-.042.549-.181.197-.126.338-.938.098-.56.281-.56.141 0 .141.21z" style="font-size:36.4174px;font-family:&quot;Bodoni 72&quot;;-inkscape-font-specification:&quot;Bodoni 72, &quot;;fill:#000;fill-opacity:1;stroke:#000;stroke-width:.2;stroke-dasharray:none;stroke-opacity:1"/></g><g id="g25848" transform="translate(-.144 10.669)"><ellipse id="ellipse25844" cx="179.883" cy="466.74" rx="9.002" ry="8.766" style="fill:#80edff;fill-opacity:1;stroke:#000;stroke-width:.986833;stroke-dasharray:none;stroke-opacity:1"/><path id="path25846" d="M183.273 468.956q0 1.161-.943 1.987-1.042.91-2.66.91-1.324 0-1.943-.616-.394-.392-.394-.896 0-.433.267-.685.282-.266.746-.266.366 0 .606.21t.24.531q0 .49-.663.77-.267.112-.267.224 0 .181.366.335.366.14.802.14 1.07 0 1.732-.727.675-.728.675-1.903 0-2.364-2.14-2.364-.21 0-.309.014h-.098q-.183 0-.183-.126 0-.098.338-.154.985-.14 1.52-.713.535-.588.535-1.497 0-.895-.465-1.427-.464-.545-1.253-.545-.577 0-1.013.251-.422.238-.422.56 0 .126.197.168.929.224.929.77 0 .713-.746.713-.479 0-.775-.28-.281-.28-.281-.742 0-.755.647-1.259.662-.517 1.83-.517 1.338 0 2.041.685.704.686.704 1.595 0 1.26-1.196 1.86-.423.21-1.366.35v.098q1.169.042 1.887.518 1.055.7 1.055 2.028z" style="font-size:36.4174px;font-family:&quot;Bodoni 72&quot;;-inkscape-font-specification:&quot;Bodoni 72, &quot;;fill:#000;stroke:#000;stroke-width:.2;stroke-dasharray:none"/></g><g id="g25854" transform="translate(-1.529 10.669)"><ellipse id="ellipse25850" cx="225.783" cy="466.74" rx="9.002" ry="8.766" style="fill:#80beff;fill-opacity:1;stroke:#000;stroke-width:.986833;stroke-dasharray:none;stroke-opacity:1"/><path id="path25852" d="M228.749 469.725q0 .14-.14.14-.128 0-.17-.154-.028-.168-.098-.881-.028-.112-.113-.168-.169-.098-.746-.098-.155 0-.296.014l.014 2.196q.07.168.226.21.169.042.802.042.31 0 .366.056.014.028.014.084 0 .098-.563.098t-3.153.028q-.14.014-.31.014-.281 0-.281-.14t.408-.126q.479.014.873-.056.169-.028.21-.14.043-.126.043-.532v-1.692q-.281-.014-.647-.014h-.578q-.197 0-.436.014h-.267l-1.788-.042q-.197-.014-.197-.112 0-.07 2.069-2.896.648-.91 2.858-4 .098-.14.197-.14.14 0 .14.265v6.575h.141q.479 0 .746-.056.282-.056.282-.28-.014-.881-.014-.601.014-.504.154-.504.198 0 .198.392v.63l.014 1.007q.014.517.028.657.014.126.014.21zm-2.83-6.24q-.14.225-.59.854-.62.853-1.873 2.546l-1 1.357q.521.042 2.239.042.605 0 1.14-.014v-.993q0-.7.042-1.889.042-1.399.042-1.902z" style="font-size:36.4174px;font-family:&quot;Bodoni 72&quot;;-inkscape-font-specification:&quot;Bodoni 72, &quot;;fill:#000;fill-opacity:1;stroke:#000;stroke-width:.2;stroke-dasharray:none;stroke-opacity:1"/></g><g id="g25860" transform="translate(-.144 10.669)"><ellipse id="ellipse25856" cx="242.439" cy="466.74" rx="9.002" ry="8.766" style="fill:#b580ff;fill-opacity:1;stroke:#000;stroke-width:.986833;stroke-dasharray:none;stroke-opacity:1"/><path id="path25858" d="M245.394 468.366q0 1.79-1.38 2.742-.83.573-2.153.573t-1.942-.685q-.338-.378-.338-.895 0-.434.281-.7.282-.28.732-.28.366 0 .606.21.253.21.253.518 0 .517-.69.783-.31.112-.31.252 0 .224.409.406.422.168.929.168.985 0 1.478-.672.675-.923.675-2.49 0-1.147-.534-1.777-.535-.63-1.52-.63-.76 0-1.676.574.085-3.147.127-3.973.014-.475.211-.573.197-.112 1.07-.112h.478q.338.014.535.014h.479q.971 0 1.126-.028.169-.042.211-.238.057-.322.197-.322.141 0 .141.154 0 .098-.014.154l-.028.322q-.07.783-.296.98-.21.181-1.055.181l-2.69-.014q-.055.476-.098 2.868.803-.364 1.676-.364 1.45 0 2.28.77.83.755.83 2.084z" style="font-size:36.4174px;font-family:&quot;Bodoni 72&quot;;-inkscape-font-specification:&quot;Bodoni 72, &quot;;fill:#000;stroke:#000;stroke-width:.2;stroke-dasharray:none"/></g><g id="g25866" transform="translate(-5.115 10.669)"><ellipse id="ellipse25862" cx="273.804" cy="466.74" rx="9.002" ry="8.766" style="fill:#ec80ff;fill-opacity:1;stroke:#000;stroke-width:.986833;stroke-dasharray:none;stroke-opacity:1"/><path id="path25864" d="M276.571 468.394q0 1.357-.83 2.322-.83.965-1.985.965-1.45 0-2.35-1.189-.901-1.189-.901-3.091 0-1.749.76-3.19.774-1.44 2.055-2.098 1.07-.546 2.337-.546.295 0 .295.112 0 .098-.197.112-1.267.112-2.238.91-1.267 1.035-1.492 3.525.774-.728 1.745-.728.789 0 1.478.42 1.323.797 1.323 2.476zm-1.45.042q0-2.602-1.618-2.602-.732 0-1.126.63-.394.615-.394 1.734 0 1.609.577 2.602.366.63 1.07.63 1.492 0 1.492-2.994z" style="font-size:36.4174px;font-family:&quot;Bodoni 72&quot;;-inkscape-font-specification:&quot;Bodoni 72, &quot;;fill:#000;fill-opacity:1;stroke:#000;stroke-width:.2;stroke-dasharray:none;stroke-opacity:1"/></g><g id="g25800" style="fill:#80beff;fill-opacity:1;stroke-width:1.4102" transform="matrix(.50285 0 0 1 169.809 6.839)"><path id="path25798" d="M160.619 452.77v5.772h70.528v-5.773z" style="color:#000;fill:#ec80ff;fill-opacity:1;stroke-width:1.4102;-inkscape-stroke:none"/></g><g id="g25830" style="fill:#80beff;fill-opacity:1;stroke-width:1.4102" transform="matrix(.50285 0 0 1 152.207 6.839)"><path id="path25826" d="M161.178 452.77v5.772h34.444v-5.773z" style="color:#000;fill:#b580ff;fill-opacity:1;stroke-width:1.4102;-inkscape-stroke:none"/></g><g id="g25806" style="fill:#80beff;fill-opacity:1;stroke-width:1.4102" transform="matrix(.50285 0 0 1 133.825 6.839)"><path id="path25802" d="M161.592 454.896h36.173" style="color:#000;fill:#80beff;fill-opacity:1;stroke-width:14.102;-inkscape-stroke:none"/><path id="path25804" d="M161.592 452.77v5.772h36.174v-5.773z" style="color:#000;fill:#80beff;fill-opacity:1;stroke-width:1.4102;-inkscape-stroke:none"/></g><g id="g25812" transform="translate(-.144 6.839)"><path id="path25808" d="M161.592 454.896h36.173" style="color:#000;fill:#80edff;stroke-width:10;-inkscape-stroke:none"/><path id="path25810" d="M161.592 452.77v5.772h36.174v-5.773z" style="color:#000;fill:#80edff;-inkscape-stroke:none"/></g><g id="g25818" transform="translate(-.144 6.839)"><path id="path25814" d="M107.459 454.896h21.781" style="color:#000;fill:#000;stroke-width:10;-inkscape-stroke:none"/><path id="path25816" d="M107.459 452.77v5.772h21.781v-5.773z" style="color:#000;fill:#fcff80;-inkscape-stroke:none"/></g><g id="g25824" transform="translate(-.144 6.839)"><path id="path25820" d="M143.448 454.896h18.144" style="color:#000;fill:#8dff80;stroke-width:10;-inkscape-stroke:none"/><path id="path25822" d="M143.447 452.77v5.772h18.145v-5.773z" style="color:#000;fill:#8dff80;-inkscape-stroke:none"/></g><path id="path370663" d="m197.511 460.03.115-221.897" style="fill:none;fill-opacity:1;stroke:#000;stroke-width:1.5;stroke-dasharray:1.5,2.25;stroke-dashoffset:0;stroke-opacity:1"/><path id="path375277" d="m250.539 460.026.117-23.374" style="fill:none;fill-opacity:1;stroke:#000;stroke-width:1.5;stroke-linejoin:round;stroke-dasharray:1.5,2.25;stroke-dashoffset:0;stroke-opacity:1"/><path id="path375281" d="m233.256 460.031.116-26.135" style="fill:none;fill-opacity:1;stroke:#000;stroke-width:1.5;stroke-linejoin:round;stroke-dasharray:1.5,2.25;stroke-dashoffset:0;stroke-opacity:1"/><path id="path924" d="m143.265 460.031-.17-36.398" style="fill:none;fill-opacity:1;stroke:#000;stroke-width:1.5;stroke-linejoin:round;stroke-dasharray:1.5,2.25;stroke-dashoffset:0;stroke-opacity:1"/><path id="path1083" d="m161.485 460.03.021-34.117" style="fill:none;fill-opacity:1;stroke:#000;stroke-width:1.5;stroke-linejoin:round;stroke-dasharray:1.5,2.25;stroke-dashoffset:0;stroke-opacity:1"/><path id="path1412" d="m107.367 460.031-.053-35.29" style="fill:none;fill-opacity:1;stroke:#000;stroke-width:1.5;stroke-linejoin:round;stroke-dasharray:1.5,2.25;stroke-dashoffset:0;stroke-opacity:1"/><path id="path1414" d="m129.191 460.031-.037-29.16" style="fill:none;fill-opacity:1;stroke:#000;stroke-width:1.5;stroke-linejoin:round;stroke-dasharray:1.5,2.25;stroke-dashoffset:0;stroke-opacity:1"/><path id="path20351" d="m215.035 460.032.114-221.897" style="fill:none;fill-opacity:1;stroke:#000;stroke-width:1.5;stroke-dasharray:1.5,2.25;stroke-dashoffset:0;stroke-opacity:1"/><g id="g816211" style="fill:#e5e2e2;fill-opacity:1;stroke-width:.742724" transform="matrix(1.81277 0 0 1 -5.125 6.839)"><path id="path816209" d="M160.619 452.77v5.772h70.528v-5.773z" style="color:#000;fill:#e5e2e2;fill-opacity:1;stroke-width:.742724;-inkscape-stroke:none"/></g><path id="path817101" d="M277.655 547.597q0 1.359-.826 2.325-.827.967-1.975.967-1.443 0-2.34-1.19-.897-1.192-.897-3.097 0-1.751.757-3.194.77-1.443 2.045-2.101 1.065-.547 2.326-.547.294 0 .294.112 0 .099-.196.112-1.261.113-2.228.911-1.26 1.037-1.485 3.53.77-.728 1.738-.728.784 0 1.47.42 1.317.799 1.317 2.48zm-1.443.042q0-2.606-1.61-2.606-.73 0-1.121.63-.393.617-.393 1.738 0 1.61.575 2.605.364.63 1.064.63 1.485 0 1.485-2.997z" style="font-size:20.5px;font-family:&quot;Bodoni 72&quot;;-inkscape-font-specification:&quot;Bodoni 72, &quot;;fill:#000;stroke:#000;stroke-width:.2;stroke-dasharray:none;stroke-opacity:1"/><g id="g819831" transform="translate(2.828 35.15)"><ellipse id="ellipse819286" cx="294.347" cy="510.888" rx="9.002" ry="8.766" style="fill:#e3dede;fill-opacity:1;stroke:#000;stroke-width:.986833;stroke-dasharray:none;stroke-opacity:1"/><path id="path817103" d="M297.894 505.974q0 .084-1.625 2.62-.91 1.428-1.247 2.24-.336.8-.336 1.598 0 .406.196 1.597.07.42.07.714 0 .995-.743.995-.882 0-.882-1.527 0-1.415 1.303-3.726.826-1.457 2.143-3.39h-2.13q-1.653 0-1.905.013-.308.014-.434.099-.112.084-.168.238-.042.14-.224.98-.056.168-.168.168-.14 0-.14-.168t.07-.546q.154-.855.196-1.457.028-.434.182-.602.098 0 .574.028 1.065.056 1.541.056l2.9-.028q.112 0 .238-.014h.14q.449 0 .449.112z" style="font-size:20.5px;font-family:&quot;Bodoni 72&quot;;-inkscape-font-specification:&quot;Bodoni 72, &quot;;fill:#000;stroke:#000;stroke-width:.2;stroke-dasharray:none;stroke-opacity:1"/></g><g id="g819835" transform="translate(2.828 35.15)"><ellipse id="ellipse819679" cx="330.585" cy="510.888" rx="9.002" ry="8.766" style="fill:#fca;fill-opacity:1;stroke:#000;stroke-width:.986833;stroke-dasharray:none;stroke-opacity:1"/><path id="path817105" d="M333.944 512.908q0 1.401-1.163 2.256-.784.574-1.947.574-1.247 0-2.101-.56-1.163-.757-1.163-2.13 0-2.087 2.255-2.647v-.07q-.854-.239-1.345-.799-.476-.574-.476-1.359 0-1.093.743-1.779.756-.7 1.947-.7 1.05 0 1.723.504.98.728.98 1.877 0 .827-.49 1.485-.49.645-1.218.785l.014.056q2.241.448 2.241 2.507zm-1.933-4.805q0-1.247-.449-1.835-.266-.35-.854-.35-1.317 0-1.317 2.2 0 2.143 1.415 2.143.63 0 .883-.463.322-.602.322-1.695zm.504 4.945q0-2.55-1.709-2.55-.855 0-1.33.66-.477.644-.477 1.792 0 1.191.49 1.878.504.686 1.373.686.743 0 1.093-.42.56-.673.56-2.046z" style="font-size:20.5px;font-family:&quot;Bodoni 72&quot;;-inkscape-font-specification:&quot;Bodoni 72, &quot;;fill:#000;stroke:#000;stroke-width:.2;stroke-dasharray:none;stroke-opacity:1"/></g><g id="g819839" transform="translate(2.828 35.15)"><ellipse id="ellipse819681" cx="365.182" cy="510.888" rx="9.002" ry="8.766" style="fill:#efa;fill-opacity:1;stroke:#000;stroke-width:.986833;stroke-dasharray:none;stroke-opacity:1"/><path id="path817107" d="M368.631 510.008q0 1.836-.854 3.335-.84 1.485-2.214 2.059-1.008.42-2.017.42-.364 0-.364-.098 0-.084.196-.112 2.367-.308 3.25-2.354.35-.826.49-2.1-.77.728-1.737.728-.925 0-1.681-.56-1.107-.813-1.107-2.396 0-1.345.813-2.284.826-.953 1.99-.953 1.428 0 2.325 1.205.91 1.205.91 3.11zm-1.47-.924q0-1.597-.59-2.522-.405-.63-1.106-.63-1.443 0-1.443 3.026 0 2.591 1.611 2.591.715 0 1.121-.644.406-.658.406-1.821z" style="font-size:20.5px;font-family:&quot;Bodoni 72&quot;;-inkscape-font-specification:&quot;Bodoni 72, &quot;;fill:#000;stroke:#000;stroke-width:.2;stroke-dasharray:none;stroke-opacity:1"/></g><ellipse id="ellipse817354" cx="467.76" cy="546.039" rx="9.002" ry="8.766" style="fill:#ec80ff;fill-opacity:1;stroke:#000;stroke-width:.986833;stroke-dasharray:none;stroke-opacity:1"/><path id="path817356" d="M470.528 547.692q0 1.357-.83 2.322-.831.966-1.985.966-1.45 0-2.351-1.19-.901-1.189-.901-3.091 0-1.749.76-3.19.774-1.44 2.055-2.098 1.07-.546 2.337-.546.296 0 .296.112 0 .098-.198.112-1.266.112-2.238.91-1.267 1.035-1.492 3.525.774-.728 1.746-.728.788 0 1.478.42 1.323.797 1.323 2.476zm-1.45.042q0-2.602-1.619-2.602-.732 0-1.126.63-.394.615-.394 1.734 0 1.609.577 2.602.366.63 1.07.63 1.492 0 1.492-2.994z" style="font-size:36.4174px;font-family:&quot;Bodoni 72&quot;;-inkscape-font-specification:&quot;Bodoni 72, &quot;;fill:#000;fill-opacity:1;stroke:#000;stroke-width:.2;stroke-dasharray:none;stroke-opacity:1"/><path id="path370667" d="m285.936 460.031.21-203.074" style="fill:none;fill-opacity:1;stroke:#000;stroke-width:1.5;stroke-dasharray:1.5,2.25;stroke-dashoffset:0;stroke-opacity:1"/><g id="g819685" style="fill:#fca;fill-opacity:1;stroke-width:1.99835" transform="matrix(.25041 0 0 1 383.298 6.839)"><path id="path819683" d="M160.619 452.77v5.772h70.528v-5.773z" style="color:#000;fill:#fca;fill-opacity:1;stroke-width:1.99835;-inkscape-stroke:none"/></g><path id="path816207" d="m423.839 460.031.116-26.135" style="fill:none;fill-opacity:1;stroke:#000;stroke-width:1.5;stroke-linejoin:round;stroke-dasharray:1.5,2.25;stroke-dashoffset:0;stroke-opacity:1"/><g id="g819758" style="fill:#ffc3fd;fill-opacity:1;stroke-width:1.14909" transform="matrix(.75735 0 0 1 319.525 6.839)"><path id="path819756" d="M160.619 452.77v5.772h70.528v-5.773z" style="color:#000;fill:#ffc3fd;fill-opacity:1;stroke-width:1.14909;-inkscape-stroke:none"/></g><path id="path818737" d="m494.525 460.026.117-23.374" style="fill:none;fill-opacity:1;stroke:#000;stroke-width:1.5;stroke-linejoin:round;stroke-dasharray:1.5,2.25;stroke-dashoffset:0;stroke-opacity:1"/><path id="path816205" d="m441.122 460.026.117-23.374" style="fill:none;fill-opacity:1;stroke:#000;stroke-width:1.5;stroke-linejoin:round;stroke-dasharray:1.5,2.25;stroke-dashoffset:0;stroke-opacity:1"/><ellipse id="ellipse819841" cx="350.706" cy="477.409" rx="9.002" ry="8.766" style="fill:#e8e4e4;fill-opacity:1;stroke:#000;stroke-width:.986833;stroke-dasharray:none;stroke-opacity:1"/><path id="path819843" d="M354.252 472.495q0 .084-1.625 2.62-.91 1.429-1.246 2.242-.337.798-.337 1.597 0 .406.197 1.597.07.42.07.714 0 .995-.743.995-.883 0-.883-1.527 0-1.415 1.303-3.727.827-1.457 2.144-3.39h-2.13q-1.653 0-1.905.014-.308.014-.434.098-.112.084-.168.238-.042.14-.224.981-.056.168-.169.168-.14 0-.14-.168t.07-.546q.154-.855.196-1.457.028-.435.183-.603.098 0 .574.028 1.065.056 1.541.056l2.9-.028q.112 0 .238-.014h.14q.448 0 .448.112z" style="font-size:20.5px;font-family:&quot;Bodoni 72&quot;;-inkscape-font-specification:&quot;Bodoni 72, &quot;;fill:#000;stroke:#000;stroke-width:.2;stroke-dasharray:none;stroke-opacity:1"/><g id="g819851" transform="translate(101.52 -33.532)"><ellipse id="ellipse819847" cx="330.585" cy="510.888" rx="9.002" ry="8.766" style="fill:#fca;fill-opacity:1;stroke:#000;stroke-width:.986833;stroke-dasharray:none;stroke-opacity:1"/><path id="path819849" d="M333.944 512.908q0 1.401-1.163 2.256-.784.574-1.947.574-1.247 0-2.101-.56-1.163-.757-1.163-2.13 0-2.087 2.255-2.647v-.07q-.854-.239-1.345-.799-.476-.574-.476-1.359 0-1.093.743-1.779.756-.7 1.947-.7 1.05 0 1.723.504.98.728.98 1.877 0 .827-.49 1.485-.49.645-1.218.785l.014.056q2.241.448 2.241 2.507zm-1.933-4.805q0-1.247-.449-1.835-.266-.35-.854-.35-1.317 0-1.317 2.2 0 2.143 1.415 2.143.63 0 .883-.463.322-.602.322-1.695zm.504 4.945q0-2.55-1.709-2.55-.855 0-1.33.66-.477.644-.477 1.792 0 1.191.49 1.878.504.686 1.373.686.743 0 1.093-.42.56-.673.56-2.046z" style="font-size:20.5px;font-family:&quot;Bodoni 72&quot;;-inkscape-font-specification:&quot;Bodoni 72, &quot;;fill:#000;stroke:#000;stroke-width:.2;stroke-dasharray:none;stroke-opacity:1"/></g><ellipse id="ellipse819853" cx="468.167" cy="477.356" rx="9.002" ry="8.766" style="fill:#ffc3fd;fill-opacity:1;stroke:#000;stroke-width:.986833;stroke-dasharray:none;stroke-opacity:1"/><path id="path819855" d="M471.717 476.476c0 1.224-.285 2.335-.855 3.334-.56.99-1.298 1.677-2.213 2.06a5.21 5.21 0 0 1-2.018.42c-.243 0-.364-.033-.364-.098 0-.056.065-.093.196-.112 1.579-.206 2.662-.99 3.25-2.354.234-.55.397-1.251.49-2.101-.513.486-1.092.728-1.736.728a2.758 2.758 0 0 1-1.682-.56c-.737-.542-1.106-1.34-1.106-2.395 0-.897.27-1.658.812-2.284.551-.635 1.214-.953 1.99-.953.952 0 1.727.402 2.325 1.205.607.803.91 1.84.91 3.11zm-1.471-.924c0-1.065-.196-1.906-.589-2.522-.27-.42-.64-.63-1.106-.63-.962 0-1.443 1.008-1.443 3.026 0 1.727.537 2.591 1.61 2.591.477 0 .85-.215 1.121-.644.271-.44.407-1.046.407-1.821z" style="font-size:20.5px;font-family:&quot;Bodoni 72&quot;;-inkscape-font-specification:&quot;Bodoni 72, &quot;;fill:#000;stroke:#000;stroke-width:.2;stroke-dasharray:none;stroke-opacity:1"/><path id="path82697" d="M470.819 267.098h8.218l-10.752-10.806-10.753 10.806h8.218v9.524h-20.733v21.54h45.696v-21.54h-19.894z" style="color:#000;display:inline;fill:#f4eed7;fill-opacity:1;stroke:#000;stroke-width:.999999;stroke-linecap:square;stroke-miterlimit:2;stroke-dasharray:none"/><path id="path258431" d="M470.364 291.967c1.504.856 3.318 1.157 5.017.884 1.114-.18 2.293-.665 2.938-1.64.497-.75.214-1.906-.304-2.574-.99-1.276-2.501-2.03-4.024-2.457-.196-.09-.73-.024-.294-.129 1.291-.353 2.86-1.015 3.326-2.03.294-.641.185-1.466-.498-1.765-1.063-.465-2.31-.404-3.393-.123-1.089.282-1.884.64-2.814 1.29" style="display:inline;fill:none;stroke:#000;stroke-width:1;stroke-dasharray:none"/><path id="path13208" d="M465.385 292.5c.05.22.157.326.4.365.667.108 1.498-.104 1.9-.631.03-.04.024-.096-.025-.146-.426-.436-1.8.729-2.1.996" style="display:inline;fill:none;stroke:#000;stroke-width:.999994;stroke-dasharray:none;stroke-opacity:1"/><path id="path13214" d="M479.661 292.378c1.076.461 2.185.807 3.339.834.926.022 1.914-.24 1.287-1.392-.075-.138-.179-.24-.3-.365-.704-.725-1.676-1.091-2.55-1.578-.651-.363-1.666-.8-.65-1.457.112-.073.272-.131.425-.17.897-.229 1.925-.146 2.75.242" style="display:inline;fill:none;stroke:#000;stroke-width:.999994;stroke-dasharray:none;stroke-opacity:1"/><path id="path1298" d="M450.762 287.068c.596-.447 1.241-1.087 2.068-.89.146.034.44.198.556.304.57.519.981 1.454 1.797 1.435.153-.003.413-.007.55-.085.726-.416 1.037-.968 1.305-1.74" style="fill:none;stroke:#000;stroke-width:.999997;stroke-linecap:butt;stroke-linejoin:round;stroke-miterlimit:2;stroke-dasharray:none;stroke-opacity:1"/><path id="path1300" d="M450.756 289.343c.712-.474 1.181-1.041 2.041-.987.137.009.274.036.403.09.713.304 1.033 1.205 1.483 1.49.113.072.466.202.594.226.11.021.227.019.337-.011.644-.175 1.303-.988 1.564-1.687" style="fill:none;stroke:#000;stroke-width:.999997;stroke-linecap:butt;stroke-linejoin:round;stroke-miterlimit:2;stroke-dasharray:none;stroke-opacity:1"/><path id="path118726" d="M441.54 254.138V242.26" style="fill:gray;fill-opacity:1;stroke:#000;stroke-width:.900004;stroke-dasharray:none;stroke-dashoffset:0;stroke-opacity:1"/><path id="path118728" d="M493.407 248.2h-51.773" style="fill:gray;fill-opacity:1;stroke:#000;stroke-width:.900004;stroke-dasharray:none;stroke-dashoffset:0;stroke-opacity:1"/><path id="path118730" d="M494.879 254.138V242.26" style="fill:gray;fill-opacity:1;stroke:#000;stroke-width:.900004;stroke-dasharray:none;stroke-dashoffset:0;stroke-opacity:1"/><path id="path118732" d="M488.964 243.28c0 1.968 4.065 4.92 5.42 4.92-1.355 0-5.42 2.95-5.42 4.918" class="axes-arrows" style="fill:none;stroke:#000;stroke-width:1.1;stroke-linecap:round;stroke-linejoin:round"/><path id="path83095" d="M353.31 265.492h8.218l-10.753-10.806-10.753 10.806h8.219v9.123h-22.837v21.54h50.395v-21.54h-22.49z" style="color:#000;display:inline;fill:#f4eed7;fill-opacity:1;stroke:#000;stroke-width:.999999;stroke-linecap:square;stroke-miterlimit:2;stroke-dasharray:none"/><path id="path59393-0" d="M286.13 242.261v11.877" style="fill:gray;fill-opacity:1;stroke:#000;stroke-width:.900004;stroke-dasharray:none;stroke-dashoffset:0;stroke-opacity:1"/><path id="path59395-6" d="M412.339 248.2H286.135" style="fill:gray;fill-opacity:1;stroke:#000;stroke-width:.900004;stroke-dasharray:none;stroke-dashoffset:0;stroke-opacity:1"/><path id="path59397-2" d="M413.927 242.261v11.877" style="fill:gray;fill-opacity:1;stroke:#000;stroke-width:.900004;stroke-dasharray:none;stroke-dashoffset:0;stroke-opacity:1"/><path id="path71258-1" d="M408.011 253.118c0-1.967 4.066-4.918 5.421-4.918-1.355 0-5.42-2.952-5.42-4.92" class="axes-arrows" style="fill:none;stroke:#000;stroke-width:1.1;stroke-linecap:round;stroke-linejoin:round"/><path id="path55906-8" d="M351.558 291.03c.429-.12.552-.331.46-.753a.44.44 0 0 0-.154-.18c-.183-.151-.52-.06-.612.15-.092.24-.062.602-.03.813" style="display:inline;fill:none;stroke:#000;stroke-width:1;stroke-dasharray:none;stroke-opacity:1"/><path id="path128255" d="M363.942 290.271c1.524.41 2.96.661 4.42.342 1.064-.233 1.415-.754.65-1.55-1.107-1.15-2.629-1.673-3.852-2.651-.85-.68-1.2-1.362.057-1.865.19-.075.425-.103.623-.13 1.276-.183 2.55.13 3.655.656" style="display:inline;fill:none;stroke:#000;stroke-width:.999996;stroke-dasharray:none;stroke-opacity:1"/><path id="path258449" d="M340.779 281.44a14.283 14.283 0 0 1 2.934-.896c.292-.056.59-.089.884-.133 1.11-.076 2.586-.162 3.604.36.124.064.228.159.342.238.053.094.139.177.161.281.054.252-.106.536-.236.73-.363.545-.873.94-1.394 1.341a8.648 8.648 0 0 1-2.604 1.218c-.027.006-.067-.01-.08.011-.052.087.077.028.184.025.126-.005.253 0 .38.006.55.028.62.055 1.192.143 1.159.236 2.083.698 2.831 1.585.129.152.233.321.349.482.354.635.55 1.34.31 2.047-.156.453-.282.544-.584.92-.157.13-.302.277-.471.393-.831.571-1.893.838-2.901.927-.29.026-.582.022-.873.034-1.295-.039-2.607-.27-3.737-.9-.148-.082-.287-.179-.426-.275a2.38 2.38 0 0 1-.517-.48" style="display:inline;fill:none;stroke:#000;stroke-width:.999997;stroke-dasharray:none"/><path id="path283279" d="M362.563 290.347c-.187-.02-.073-.006-.219-.02a34.172 34.172 0 0 0-3.144-.057c-1.566.085-3.126.232-4.668.53-.032.007-.116.025-.1 0 .032-.063.215-.218.236-.236.265-.235.353-.3.647-.553 1.544-1.33 3.226-2.75 4.441-4.228.927-1.127 1.842-2.394 2.17-3.85.062-.271.06-.452-.054-.714-.206-.471-.75-.563-1.197-.572-.17-.006-.34.012-.508.033-1.158.142-2.26.61-3.251 1.206-1.078.65-2.101 1.415-2.915 2.391" style="display:inline;fill:none;stroke:#000;stroke-width:1;stroke-dasharray:none"/><g id="g459716" style="display:inline;stroke-width:1.73859;stroke-dasharray:none" transform="matrix(.58906 0 0 .56162 626.767 1800.53)"><path id="path113394" d="M-489.464-2700.497c-.357.677-.709 1.308-1.103 1.76-1.16 1.326-2.205 1.672-3.97 1.032-.79-.286-1.427-.78-2.04-1.299-.477-.405-.657-.68-1.201-1.017a3.03 3.03 0 0 0-.702-.344 2.224 2.224 0 0 0-.732-.091c-1.464.062-3.08 1.45-4.066 2.272" style="fill:none;stroke:#000;stroke-width:1.73859;stroke-linecap:butt;stroke-linejoin:round;stroke-miterlimit:2;stroke-dasharray:none;stroke-opacity:1"/><path id="path113398" d="M-490.184-2696.048c-.137.44-.428.824-.695 1.11-.33.353-.671.616-1.168.81-1.08.42-2.29.244-3.334-.078-.475-.147-.954-.464-1.374-.706-.548-.317-.976-.781-1.54-1.077a2.25 2.25 0 0 0-.559-.219 2.066 2.066 0 0 0-.627-.043c-1.37.128-2.298 1.257-3.085 2.082" style="fill:none;stroke:#000;stroke-width:1.73859;stroke-linecap:butt;stroke-linejoin:round;stroke-miterlimit:2;stroke-dasharray:none;stroke-opacity:1"/></g><path id="path307480" d="M461.546 293.35c-.108-.639-.094-1.281-.098-1.922.026-1.33.071-2.662.069-3.993 0-1.229-.05-2.457-.034-3.686.023-.473.03-.948-.056-1.42-.022-.102-.03-.206-.04-.31m-.098 0c.01.11.029.22.041.314.091.469.087.941.065 1.413-.01 1.228.038 2.457.041 3.686 0 1.331-.045 2.662-.076 3.993.001.643-.014 1.287.087 1.928" style="display:inline;fill:none;stroke:#000;stroke-width:1;stroke-dasharray:none"/><path id="path813660" d="M0 238h107.416l.08 176.33 2.936 13.966 1.984-12 1.984 11.813 1.984.252 1.984-11.119 1.984 6.768 1.984 5.933 1.984-13.185 1.984 11.449 2.936-2.181.08-188.026h32.76l.08-203.143 2.912 16.517 1.964-6.24 1.968 3.012 1.968.347 1.964.86 1.968-1.86 1.968 3.142 1.964-4.76 1.968 4.802 1.964-4.9 1.968 4.536 1.968-5.034 1.968 4.256 1.964 1.1 1.968-4.956 1.964 4.872 2.912-1.271.08 188.72h35.76l.08 191.464 2.86-2.383 1.932 5.203 1.936-1.95 1.932 12.424 1.932-9.466 1.936 1.386 1.932-8.076 2.86 4.797L250.8 238m35.28 0 .08-187.34 2.956 1.89 1.996 1.465 2-6.127 1.996.678 2 .84 1.996 4.018 1.996-4.194 2 2.732 1.996-1.302 1.996-3.122 2 3.31 1.996-.378 2 .19 1.996 2.546 1.996-4.665 2 3.13 1.996.392 1.996 1.123 2-5.317 1.996 3.351 2-1.159 1.996-1.254 1.996 6.205 2-9.57 1.996 6.075 1.996 3.422 2-9.464 1.996 7.532 2-.095 1.996-5.133 1.996.137 2 7.432 1.996-9.54 1.996 7.258 2-.213 1.996-6.888 2 6.339 1.996 2.153 1.996-7.179 2 3.752 1.996 1.764 1.996-4.749 2-.269 1.996 7.084 2-6.52 1.996 2.32L381 52.732l2-6.68 1.996 6.398 1.996 1.246 2-5.444 1.996-.58 2 7.127 1.996-8.515 1.996 5.972 2 .608 1.996-5.939 1.996 6.365 2-5.046 1.996 4.57 2-3.408 1.996-9.316 2.956 8.45L414 238h27.32l.08-188.222 2.928 1.277 1.98.359 1.98-4.912 1.98 5.908 1.98-5.275 1.976 1.523 1.98 4.721 1.98-6.196 1.98.361 1.98 6.073 1.976-9.78 1.98 7.722 1.98.583 1.98-5.295 1.98-.345 1.976 8.784 1.98-10.814 1.98 5.306 1.98-3.17 1.98 7.158 1.98-7.728 1.976 6.812 1.98-2.842 1.98-4.469 1.98 7.311 2.928-14.25.08 199.4h17.64l.08-200.25 2.908 11.09 1.964 2.375 1.964-6.516 1.964 4.923 1.964-.782 1.964-1.836 1.964.918 1.964 1.16 1.968-.97 1.964 3.478 1.964-3.713 1.964-2.03 1.964 2.993 1.964 3.506 1.964-5.78 1.964-1.004 1.964 7.257 1.968-9.772" class="pink-panther"/><path id="path1032289" d="m413.763 460.031.116-203.442" style="fill:none;fill-opacity:1;stroke:#000;stroke-width:1.5;stroke-linejoin:round;stroke-dasharray:1.5,2.25;stroke-dashoffset:0;stroke-opacity:1"/></g></svg>