<svg xmlns="http://www.w3.org/2000/svg" xmlns:xlink="http://www.w3.org/1999/xlink" id="svg12655" width="800" height="670.662" preserveAspectRatio="none" version="1.1" viewBox="-104.248 -50.537 800 670.662"><style id="style12517" type="text/css">.grid-thin{stroke:#9e9ed1;stroke-width:.3}.axes{stroke:#000;stroke-width:.9}.axis-arrow{stroke-width:1.1;stroke:#000;fill:none;stroke-linecap:round;stroke-linejoin:round}.axes-labels,.notch-labels-out-grid{stroke:none;fill:#000}.dots-open-thin{stroke-width:1.3;stroke:red;fill:none}.dots-full-thin{stroke-width:1.1;stroke:red;fill:red}.graph-thin{stroke:red;stroke-width:1.2;fill:none}.none{display:none}</style><defs id="defs12529"><path id="STIXWEBMAINI-78" stroke-width="1" d="m243 355 12-57c70 107 107 143 151 143 24 0 41-15 41-37 0-21-14-36-34-36-19 0-28 17-52 17-18 0-54-44-98-121 0-7 2-21 8-45l32-134c7-28 16-41 30-41 13 0 24 10 47 40 9 12 13 18 21 28l15-9C358 13 332-11 294-11c-32 0-47 18-59 68l-29 119-88-119C74-2 54-11 23-11S-27 5-27 31c0 20 14 36 34 36 9 0 19-4 32-11 10-6 20-9 26-9 11 0 30 19 51 49l82 116-28 124c-14 60-21 68-46 68-8 0-20-2-39-7l-18-5-3 16 11 4c61 22 94 29 117 29 25 0 37-18 51-86z"/><path id="STIXWEBMAIN-2212" stroke-width="1" d="M621 220H64v66h557z"/><path id="STIXWEBMAIN-34" stroke-width="1" d="M473 167H370V0h-78v167H12v64l314 445h44V231h103Zm-181 64v343L52 231Z"/><path id="STIXWEBMAIN-33" stroke-width="1" d="m61 510-16 4c29 95 92 162 196 162 93 0 156-55 156-137 0-48-26-98-93-138 44-19 62-31 83-53 28-31 44-77 44-129 0-53-17-102-46-140-48-64-143-93-232-93C80-14 41 7 41 43c0 21 18 36 41 36 17 0 33-6 61-26 37-26 58-31 86-31 74 0 130 68 130 153 0 76-35 125-104 145-22 7-45 10-102 10v14c38 13 64 24 84 36 49 28 81 73 81 134 0 68-42 102-108 102-62 0-108-32-149-106z"/><path id="STIXWEBMAIN-32" stroke-width="1" d="M474 137 420 0H29v12l178 189c94 99 130 175 130 260 0 91-54 141-139 141-72 0-107-32-147-130l-21 5c21 117 85 199 208 199 113 0 185-77 185-176 0-79-39-154-128-248L130 76h234c42 0 63 11 96 67z"/><path id="STIXWEBMAIN-31" stroke-width="1" d="M394 0H118v15c74 4 95 25 95 80v449c0 34-9 49-30 49-10 0-27-5-45-12l-27-10v14l179 91 9-3V76c0-43 20-61 95-61z"/><path id="STIXWEBMAIN-30" stroke-width="1" d="M476 330c0-172-63-344-226-344C79-14 24 172 24 336c0 177 69 340 230 340 131 0 222-141 222-346Zm-96-5c0 208-44 325-132 325-83 0-128-118-128-321S164 12 250 12c85 0 130 115 130 313z"/><clipPath id="trbl_clip_0_562.5_168.75_0"><path id="path12519" d="M0 0h562.5v168.75H0Z"/></clipPath><clipPath id="trbl_clip_0_562.5_168.75_0-6"><path id="path13432" d="M0 0h562.5v168.75H0Z"/></clipPath><clipPath id="trbl_clip_0_562.5_168.75_0-4"><path id="path13432-6" d="M0 0h562.5v168.75H0Z"/></clipPath><clipPath id="trbl_clip_0_562.5_168.75_0-8"><path id="path13432-7" d="M0 0h562.5v168.75H0Z"/></clipPath></defs><g id="grid"><path id="path12533" d="M31.25 158.197V0" class="grid-thin"/><path id="path12535" d="M93.75 158.197V0" class="grid-thin"/><path id="path12537" d="M156.25 158.197V0" class="grid-thin"/><path id="path12539" d="M218.75 158.197V0" class="grid-thin"/><path id="path12541" d="M281.25 158.197V0" class="grid-thin"/><path id="path12543" d="M343.75 158.197V0" class="grid-thin"/><path id="path12545" d="M406.25 158.197V0" class="grid-thin"/><path id="path12547" d="M468.75 158.197V0" class="grid-thin"/><path id="path12549" d="M531.25 158.197V0" class="grid-thin"/><path id="path12551" d="M0 150h562.5" class="grid-thin"/><path id="path12553" d="M0 87.5h562.5" class="grid-thin"/><path id="path12555" d="M0 25h256.972m16.081 0H562.5" class="grid-thin"/></g><g id="axes"><path id="path12558" d="M0 150h570.697" class="axes"/><path id="path12560" d="M281.25 158.197V-8.197" class="axes"/></g><g id="axes arrows"><path id="path12563" d="M567.316 145.492c0 1.803 2.536 4.508 3.381 4.508-.845 0-3.381 2.705-3.381 4.508" class="axis-arrow"/><path id="path12565" d="M276.742-4.816c1.803 0 4.508-2.536 4.508-3.381 0 .845 2.705 3.381 4.508 3.381" class="axis-arrow"/></g><g id="axes labels"><g id="g12570" class="axes-labels" transform="matrix(.01904 0 0 -.01904 582.992 154.51)"><use xlink:href="#STIXWEBMAINI-78" id="use12568" width="100%" height="100%" x="0" y="0"/></g></g><g id="notches" class="axes"><path id="path12573" d="M312.5 141.803v16.394"/></g><g id="graphs"><g id="g12594" clip-path="url(#trbl_clip_0_562.5_168.75_0)"><path id="path12576" d="m-31.25 150 184.002-61.334m6.996 60.168 180.504-60.168m6.996 60.168 180.504-60.168m6.996 60.168L718.75 87.5" class="graph-thin"/><circle id="circle12580" cx="156.25" cy="87.5" r="3.688" class="dots-open-thin"/><circle id="circle12582" cx="156.25" cy="150" r="3.688" class="dots-full-thin"/><circle id="circle12584" cx="343.75" cy="87.5" r="3.688" class="dots-open-thin"/><circle id="circle12586" cx="343.75" cy="150" r="3.688" class="dots-full-thin"/><circle id="circle12588" cx="531.25" cy="87.5" r="3.688" class="dots-open-thin"/><circle id="circle12590" cx="531.25" cy="150" r="3.688" class="dots-full-thin"/></g></g><g id="notch labels"><path id="path16636" d="M408.486 316.434v223.527h-45.975v-19.503h10.45l-18.713-18.712-18.712 18.712h10.45v36.028h79.025V332.957h35.612v-73.783h-35.612v-35.458h-16.525V275.7H444.1v40.734z" style="fill:#afe9c6;fill-opacity:1;stroke:#000;stroke-width:1px;stroke-linecap:butt;stroke-linejoin:miter;stroke-opacity:1" transform="translate(-104.248 -50.537)"/><g id="g12601" class="notch-labels-out-grid" transform="matrix(.01904 0 0 -.01904 19.959 175.858)"><use xlink:href="#STIXWEBMAIN-2212" id="use12597" width="100%" height="100%" x="0" y="0"/><use xlink:href="#STIXWEBMAIN-34" id="use12599" width="100%" height="100%" x="685" y="0"/></g><g id="g12607" class="notch-labels-out-grid" transform="matrix(.01904 0 0 -.01904 82.459 175.858)"><use xlink:href="#STIXWEBMAIN-2212" id="use12603" width="100%" height="100%" x="0" y="0"/><use xlink:href="#STIXWEBMAIN-33" id="use12605" width="100%" height="100%" x="685" y="0"/></g><g id="g12613" class="notch-labels-out-grid" transform="matrix(.01904 0 0 -.01904 144.959 175.858)"><use xlink:href="#STIXWEBMAIN-2212" id="use12609" width="100%" height="100%" x="0" y="0"/><use xlink:href="#STIXWEBMAIN-32" id="use12611" width="100%" height="100%" x="685" y="0"/></g><g id="g12619" class="notch-labels-out-grid" transform="matrix(.01904 0 0 -.01904 207.459 175.858)"><use xlink:href="#STIXWEBMAIN-2212" id="use12615" width="100%" height="100%" x="0" y="0"/><use xlink:href="#STIXWEBMAIN-31" id="use12617" width="100%" height="100%" x="685" y="0"/></g><g id="g12623" class="notch-labels-out-grid" transform="matrix(.01903 0 0 -.01903 276.488 175.849)"><use xlink:href="#STIXWEBMAIN-30" id="use12621" width="100%" height="100%" x="0" y="0"/></g><g id="g12627" class="notch-labels-out-grid" transform="matrix(.01903 0 0 -.01903 338.988 175.849)"><use xlink:href="#STIXWEBMAIN-31" id="use12625" width="100%" height="100%" x="0" y="0"/></g><g id="g12631" class="notch-labels-out-grid" transform="matrix(.01903 0 0 -.01903 401.488 175.849)"><use xlink:href="#STIXWEBMAIN-32" id="use12629" width="100%" height="100%" x="0" y="0"/></g><g id="g12635" class="notch-labels-out-grid" transform="matrix(.01903 0 0 -.01903 463.988 175.849)"><use xlink:href="#STIXWEBMAIN-33" id="use12633" width="100%" height="100%" x="0" y="0"/></g><g id="g12639" class="notch-labels-out-grid" transform="matrix(.01903 0 0 -.01903 526.488 175.849)"><use xlink:href="#STIXWEBMAIN-34" id="use12637" width="100%" height="100%" x="0" y="0"/></g><g id="g12643" class="notch-labels-out-grid" transform="matrix(.01903 0 0 -.01903 260.25 31.428)"><use xlink:href="#STIXWEBMAIN-32" id="use12641" width="100%" height="100%" x="0" y="0"/></g><path id="path13449" d="M31.25 435.75V277.551" class="grid-thin"/><path id="path13451" d="M93.75 435.75V277.551" class="grid-thin"/><path id="path13453" d="M156.25 435.75V277.551" class="grid-thin"/><path id="path13455" d="M218.75 435.75V277.551" class="grid-thin"/><path id="path13457" d="M281.25 435.75V277.551" class="grid-thin"/><path id="path13459" d="M343.75 435.75V277.551" class="grid-thin"/><path id="path13461" d="M406.25 435.75V277.551" class="grid-thin"/><path id="path13463" d="M468.75 435.75V277.551" class="grid-thin"/><path id="path13465" d="M531.25 435.75V277.551" class="grid-thin"/><path id="path13467" d="M0 427.552h562.5" class="grid-thin"/><path id="path13469" d="M0 365.052h562.5" class="grid-thin"/><path id="path13471" d="M0 302.552h256.972m16.081 0H562.5" class="grid-thin"/><path id="path13474" d="M0 427.552h570.697" class="axes"/><path id="path13476" d="M281.25 435.75V269.354" class="axes"/><path id="path13479" d="M567.316 423.044c0 1.803 2.536 4.508 3.381 4.508-.845 0-3.381 2.705-3.381 4.509" class="axis-arrow"/><path id="path13481" d="M276.742 272.736c1.803 0 4.508-2.535 4.508-3.38 0 .845 2.705 3.38 4.508 3.38" class="axis-arrow"/><g id="g13486" class="axes-labels" transform="matrix(.01904 0 0 -.01904 582.992 432.062)"><use xlink:href="#STIXWEBMAINI-78" id="use13484" width="100%" height="100%" x="0" y="0"/></g><g id="g13506" class="axes-labels" transform="matrix(.01904 0 0 -.01904 242.052 250.277)"><use xlink:href="#STIXWEBMAINI-78" id="use13488" width="100%" height="100%" x="0" y="0"/><path id="use13490" stroke-width="1" d="M734 676 506-14h-68l229 690z"/><use xlink:href="#STIXWEBMAIN-33" id="use13492" width="100%" height="100%" x="726" y="0"/><use xlink:href="#STIXWEBMAIN-2212" id="use13494" width="100%" height="100%" x="1448" y="0"/><path id="use13496" stroke-width="1" d="M2803-213h-259v926h66V-85c0-64 19-95 84-95h109z"/><use xlink:href="#STIXWEBMAINI-78" id="use13498" width="100%" height="100%" x="2825" y="0"/><path id="use13500" stroke-width="1" d="M3560 676 3332-14h-68l229 690z"/><use xlink:href="#STIXWEBMAIN-33" id="use13502" width="100%" height="100%" x="3551" y="0"/><path id="use13504" stroke-width="1" d="M4338-213h-259v33h109c65 0 84 31 84 95v798h66z"/></g><g id="g13530" clip-path="url(#trbl_clip_0_562.5_168.75_0-8)" transform="translate(0 277.552)"><path id="path13512" d="M-93.75 150 90.252 88.666m6.996 60.168 180.504-60.168m6.996 60.168 180.504-60.168m6.996 60.168L656.25 87.5" class="graph-thin"/><circle id="circle13516" cx="93.75" cy="87.5" r="3.688" class="dots-open-thin"/><circle id="circle13518" cx="93.75" cy="150" r="3.688" class="dots-full-thin"/><circle id="circle13520" cx="281.25" cy="87.5" r="3.688" class="dots-open-thin"/><circle id="circle13522" cx="281.25" cy="150" r="3.688" class="dots-full-thin"/><circle id="circle13524" cx="468.75" cy="87.5" r="3.688" class="dots-open-thin"/><circle id="circle13526" cx="468.75" cy="150" r="3.688" class="dots-full-thin"/></g><path id="path13509" d="M250 419.355v16.394" style="stroke:#000;stroke-opacity:1"/><g id="g13537" class="notch-labels-out-grid" transform="matrix(.01904 0 0 -.01904 19.959 453.41)"><use xlink:href="#STIXWEBMAIN-2212" id="use13533" width="100%" height="100%" x="0" y="0"/><use xlink:href="#STIXWEBMAIN-34" id="use13535" width="100%" height="100%" x="685" y="0"/></g><g id="g13543" class="notch-labels-out-grid" transform="matrix(.01904 0 0 -.01904 82.459 453.41)"><use xlink:href="#STIXWEBMAIN-2212" id="use13539" width="100%" height="100%" x="0" y="0"/><use xlink:href="#STIXWEBMAIN-33" id="use13541" width="100%" height="100%" x="685" y="0"/></g><g id="g13549" class="notch-labels-out-grid" transform="matrix(.01904 0 0 -.01904 144.959 453.41)"><use xlink:href="#STIXWEBMAIN-2212" id="use13545" width="100%" height="100%" x="0" y="0"/><use xlink:href="#STIXWEBMAIN-32" id="use13547" width="100%" height="100%" x="685" y="0"/></g><g id="g13555" class="notch-labels-out-grid" transform="matrix(.01904 0 0 -.01904 207.459 453.41)"><use xlink:href="#STIXWEBMAIN-2212" id="use13551" width="100%" height="100%" x="0" y="0"/><use xlink:href="#STIXWEBMAIN-31" id="use13553" width="100%" height="100%" x="685" y="0"/></g><g id="g13559" class="notch-labels-out-grid" transform="matrix(.01903 0 0 -.01903 276.488 453.401)"><use xlink:href="#STIXWEBMAIN-30" id="use13557" width="100%" height="100%" x="0" y="0"/></g><g id="g13563" class="notch-labels-out-grid" transform="matrix(.01903 0 0 -.01903 338.988 453.401)"><use xlink:href="#STIXWEBMAIN-31" id="use13561" width="100%" height="100%" x="0" y="0"/></g><g id="g13567" class="notch-labels-out-grid" transform="matrix(.01903 0 0 -.01903 401.488 453.401)"><use xlink:href="#STIXWEBMAIN-32" id="use13565" width="100%" height="100%" x="0" y="0"/></g><g id="g13571" class="notch-labels-out-grid" transform="matrix(.01903 0 0 -.01903 463.988 453.401)"><use xlink:href="#STIXWEBMAIN-33" id="use13569" width="100%" height="100%" x="0" y="0"/></g><g id="g13575" class="notch-labels-out-grid" transform="matrix(.01903 0 0 -.01903 526.488 453.401)"><use xlink:href="#STIXWEBMAIN-34" id="use13573" width="100%" height="100%" x="0" y="0"/></g><g id="g13579" class="notch-labels-out-grid" transform="matrix(.01903 0 0 -.01903 260.25 308.98)"><use xlink:href="#STIXWEBMAIN-32" id="use13577" width="100%" height="100%" x="0" y="0"/></g><path id="path5446" d="M460.279 188.347v18.537h-45.57v-18.537h14.114l3.66-65.87-116.242-2.51-3.79 22.527-4.489-27.759 134.6-3.19 4.878 76.802z" style="font-size:18px;line-height:1.25;font-family:sans-serif;fill:#caf;fill-opacity:.459677;stroke:none;stroke-width:1px;stroke-linecap:butt;stroke-linejoin:miter;stroke-opacity:1"/><g id="g5444" transform="translate(-18.589 -2.347)"><path id="path5408" d="M444.574 202.86q.012.253.277.314l.205.036q.265.06.265.289 0 .229-.3.229h-2.218q-.301 0-.301-.23 0-.216.277-.276l.241-.048q.265-.06.277-.314V200.294q0-.193-.012-.362-.012-.096-.012-.192v-.193q-.024-.277-.29-.313l-.288-.036q-.278-.037-.278-.253 0-.193.241-.29l1.567-.566q.06-.024.108-.036.048-.012.097-.012.06 0 .096.036.084.072.084.29l-.036 1.373zm-.65-5.952q-.386 0-.639-.229-.24-.229-.24-.602 0-.374.24-.602.253-.23.639-.23.373 0 .614.23.253.228.253.602 0 .373-.253.602-.24.23-.614.23z" style="font-style:normal;font-variant:normal;font-weight:400;font-stretch:normal;font-size:18px;line-height:1.25;font-family:&quot;Song Myung&quot;;-inkscape-font-specification:&quot;Song Myung&quot;;stroke-width:.999998"/><path id="path5410" d="M451.67 202.81q.013.253.278.313l.205.036q.265.06.265.29 0 .228-.302.228H449.9q-.3 0-.3-.229 0-.228.264-.277l.241-.048q.265-.06.277-.313v-2.627q0-.723-.18-1.024-.169-.313-.627-.313-.373 0-.723.18-.337.181-.723.543v3.24q.012.254.277.314l.217.048q.265.049.265.277 0 .23-.3.23h-2.242q-.301 0-.301-.23 0-.216.277-.277l.253-.048q.265-.06.277-.313v-2.615q0-.192-.012-.337-.012-.096-.012-.18v-.181q-.024-.278-.29-.314l-.288-.036q-.278-.036-.278-.253 0-.205.241-.301l1.398-.542q.109-.048.217-.048.072 0 .096.024.097.06.109.277l.06.71q.458-.53.928-.783.47-.265 1.06-.265.795 0 1.193.494.397.482.397 1.59z" style="font-style:normal;font-variant:normal;font-weight:400;font-stretch:normal;font-size:18px;line-height:1.25;font-family:&quot;Song Myung&quot;;-inkscape-font-specification:&quot;Song Myung&quot;;stroke-width:.999998"/><path id="path5412" d="M455.018 198.038q.097.06.109.278l.036.47q.385-.41.795-.603.422-.205.94-.205.602 0 1.024.265.422.253.687.675.277.41.397.928.133.518.133 1.036 0 .554-.145 1.096-.144.53-.445.952-.302.422-.76.687-.457.253-1.072.253-.891 0-1.518-.663V204.617l.024.807q0 .277.265.326l.422.084q.265.048.265.277 0 .229-.301.229h-2.434q-.301 0-.301-.229t.265-.29l.277-.06q.265-.06.265-.325.012-.385.012-.807.012-.41.012-.771V200.207q0-.193-.012-.337-.012-.097-.012-.18v-.182q-.024-.277-.29-.313l-.288-.036q-.277-.036-.277-.253 0-.205.24-.301l1.386-.542q.109-.049.205-.049.048 0 .096.024zm.217 1.217v3.362q.578.47 1.12.47.603 0 1-.518.41-.518.41-1.615 0-1.108-.361-1.65-.35-.555-.94-.555-.542 0-1.229.506z" style="font-style:normal;font-variant:normal;font-weight:400;font-stretch:normal;font-size:18px;line-height:1.25;font-family:&quot;Song Myung&quot;;-inkscape-font-specification:&quot;Song Myung&quot;;stroke-width:.999998"/><path id="path5414" d="M465.407 203.12q0 .278.266.326l.192.036q.265.06.265.29 0 .228-.289.252l-1.289.085h-.024q-.265 0-.301-.277l-.073-.7q-.903 1.049-2 1.049-.35 0-.638-.12-.29-.109-.494-.362-.205-.24-.314-.626-.108-.398-.096-.976l.024-2.663q0-.265-.277-.325l-.169-.037q-.265-.048-.265-.277 0-.217.29-.24l1.397-.121h.085q.036-.012.06-.012.084 0 .132.024.048.048.048.277l-.048 1.422v1.783q0 .76.205 1.06.217.302.603.302.349 0 .71-.193.374-.205.711-.53l.036-3.133q0-.265-.277-.325l-.168-.036q-.265-.049-.265-.266 0-.216.289-.24l1.373-.133h.085q.036-.012.06-.012.084 0 .132.024.025.024.037.084.024.06.024.193l-.036 1.422z" style="font-style:normal;font-variant:normal;font-weight:400;font-stretch:normal;font-size:18px;line-height:1.25;font-family:&quot;Song Myung&quot;;-inkscape-font-specification:&quot;Song Myung&quot;;stroke-width:.999998"/><path id="path5416" d="M469.834 203.433c.338-.306.68.35.267.5-.555.475-1.393.531-2.051.252-.39-.19-.602-.62-.605-1.041-.024-.534.019-1.068.003-1.601-.004-.653.013-1.307-.01-1.96-.092-.282-.445-.146-.656-.199-.294-.1-.231-.574.082-.59.23-.052.54.026.681-.214.098-.21.1-.454.16-.68.054-.222.068-.46.159-.671.18-.189.494-.124.725-.103.315.166.117.579.158.856.007.259-.117.74.283.739.324.015.65-.024.972.02.301.135.202.722-.167.652-.318.038-.655-.055-.961.038-.266.166-.105.52-.147.774.005.936-.017 1.874.014 2.81.026.338.338.614.68.56a.849.849 0 0 0 .413-.142z" style="font-style:normal;font-variant:normal;font-weight:400;font-stretch:normal;font-size:18px;line-height:1.25;font-family:&quot;Song Myung&quot;;-inkscape-font-specification:&quot;Song Myung&quot;;stroke-width:.999998"/></g><path id="path16781" d="M302.2 160.655c-1.598 1.113-2.338 2.84-2.462 4.255-.19 2.159.705 3.768 2.03 4.592l.476-.48c-1.33-.765-2.008-2.257-1.84-4.006.158-1.667.963-2.892 2.252-3.86z" style="fill:#000;fill-opacity:1;stroke:#000;stroke-width:.2;stroke-linecap:square;stroke-miterlimit:4;stroke-dasharray:none;stroke-opacity:1"/><path id="path16785" d="M308.921 162.706c.233.122.468.254.639.392.877.71 1.232 1.911.92 2.998-.072.249-.19.484-.326.704-.107.172-.234.34-.396.462-1.112.845-2.619.472-3.713-.132-.472-.261-.719-.42-.972-.913-.46-.894.026-1.867.531-2.61.168-.179.323-.37.504-.535.665-.61 1.545-.833 2.43-.79l.137-.663c-1.11-.076-2.182.237-3.036.968-.217.185-.388.416-.582.625-.633.925-1.139 2.086-.631 3.198.312.682.594.84 1.196 1.245.254.171.544.285.83.396 1.09.423 2.48.552 3.5-.143.282-.192.54-.429.742-.704.193-.262.326-.57.42-.88.397-1.306-.027-2.745-1.034-3.656-.228-.206-.511-.34-.767-.511z" style="fill:#000;fill-opacity:1;stroke:#000;stroke-width:.2;stroke-linecap:square;stroke-miterlimit:4;stroke-dasharray:none;stroke-opacity:1"/><path id="path16793" d="M312.438 167.937c-.07-.3.075-.317.276-.278.265.051.077.071-.037.078-.099.031-.213.07-.326.079l-.039.676c.371.011.7-.173.883-.317a.713.713 0 0 0 .192-.228c.259-.5-.178-.935-.654-.965a.79.79 0 0 0-.31.032c-.578.199-.78.758-.551 1.295z" style="fill:#000;fill-opacity:1;stroke:#000;stroke-width:.2;stroke-linecap:square;stroke-miterlimit:4;stroke-dasharray:none;stroke-opacity:1"/><path id="path16807" d="M320.239 161.665c-.753.006-.35.003-.906.006-1.457.01-2.914.023-4.37.058l-.083.674c1.454-.037 2.91-.052 4.365-.06.658-.005.355-.002.907-.005z" style="fill:#000;fill-opacity:1;stroke:#000;stroke-width:.2;stroke-linecap:square;stroke-miterlimit:4;stroke-dasharray:none;stroke-opacity:1"/><path id="path16811" d="M314.935 162.113c-.074.788-.11 1.536-.13 2.327-.008.302-.025.613-.134.898-.147.208.629.152.613-.046.019.062-.035.088.01-.013.008-.014-.008.037.005.045.01.007.018-.019.028-.025.03-.018.06-.032.09-.048.836-.478 1.749-.819 2.603-.909 1.208-.127 1.96.405 2.347 1.178.26.518.324 1.318-.253 1.698-1.394.917-2.792.973-4.343.42-.241-.086-.448-.216-.684-.347l-.263.625c.194.112.441.255.643.327 1.817.651 3.664.558 5.134-.524.958-.706.687-1.927.333-2.569-.608-1.102-1.557-1.61-2.942-1.483-1.113.102-2.226.65-3.081 1.134-.173.172-.319.334-.302.555.037.412.635.511.72.145a3.83 3.83 0 0 0 .153-1.076c.016-.773.054-1.502.13-2.272z" style="fill:#000;fill-opacity:1;stroke:#000;stroke-width:.2;stroke-linecap:square;stroke-miterlimit:4;stroke-dasharray:none;stroke-opacity:1"/><path id="path16813" d="M323.524 169.343c1.006-.358 1.782-1.2 2.234-2.243.69-1.594-.049-3.398-.827-4.616-.488-.76-1.265-1.524-2.05-2.113l-.439.515c.866.61 1.43 1.23 1.928 1.957.729 1.065 1.264 2.399.895 3.622-.334 1.105-1.128 1.836-1.966 2.238z" style="fill:#000;fill-opacity:1;stroke:#000;stroke-width:.2;stroke-linecap:square;stroke-miterlimit:4;stroke-dasharray:none;stroke-opacity:1"/><path id="path16817" d="M237.696 447.31c-.122-.022-.048-.002-.141-.032a3.227 3.227 0 0 1-1.433-.926 3.584 3.584 0 0 1-.294-.369c-.617-.912-.76-2.008-.6-3.08.066-.254.112-.515.196-.764.36-1.071 1.021-1.99 1.96-2.623l-.456-.501c-1.027.714-1.752 1.739-2.148 2.922-.093.278-.144.568-.216.851-.186 1.228-.015 2.478.677 3.53.102.156.22.301.342.443a3.957 3.957 0 0 0 1.701 1.139c.15.052.08.027.212.059z" style="fill:#000;fill-opacity:1;stroke:#000;stroke-width:.2;stroke-linecap:square;stroke-miterlimit:4;stroke-dasharray:none;stroke-opacity:1"/><path id="path16821" d="M242.785 443.6c-.212-.01-.076-.004-.245-.01-.793-.03-1.586-.027-2.38-.037-1.034.008-2.065.08-3.1.052l-.074.673c1.038.028 2.072-.04 3.108-.052.784.007 1.567.004 2.35.034l.235.01z" style="fill:#000;fill-opacity:1;stroke:#000;stroke-width:.2;stroke-linecap:square;stroke-miterlimit:4;stroke-dasharray:none;stroke-opacity:1"/><path id="path16829" d="M247.64 440.295c-.14-.034-.276-.088-.42-.102-.932-.088-1.969.397-2.62 1.042-.201.2-.366.438-.511.682-.14.236-.256.488-.338.749-.351 1.12-.034 2.262.652 3.186.156.209.333.403.53.574.185.162.39.304.61.418.832.43 1.814.406 2.686.126a4.6 4.6 0 0 0 .569-.23c.882-.42 1.484-1.09 1.68-2.068a2.21 2.21 0 0 0 .05-.464c-.015-1.135-.554-2.04-1.341-2.814-.578-.569-1.198-.915-2.02-.952l-.075.673c.685.025 1.177.358 1.596.736.666.601 1.192 1.405 1.164 2.328-.026.894-.408 1.501-1.224 1.907-.842.42-1.776.643-2.686.213a2.422 2.422 0 0 1-.507-.324 2.907 2.907 0 0 1-.453-.471c-.578-.755-.88-1.688-.592-2.62.068-.22.166-.43.282-.628.118-.199.26-.385.417-.555.527-.57 1.438-.948 2.212-.819z" style="fill:#000;fill-opacity:1;stroke:#000;stroke-width:.2;stroke-linecap:square;stroke-miterlimit:4;stroke-dasharray:none;stroke-opacity:1"/><path id="path16833" d="M251.485 446.392c.23-.098.522-.168.743-.013.167.17-.027.105.037-.04.024-.054.077-.09.116-.136-.287.067-.594.079-.888.053-.143-.025-.087-.004-.176-.047l-.306.606v0c.233.095.115.06.352.105.405.043.823.025 1.22-.07.099-.075.22-.128.298-.225.216-.274-.07-.648-.275-.81-.539-.305-1.122-.244-1.623.122l.502.455z" style="fill:#000;fill-opacity:1;stroke:#000;stroke-width:.2;stroke-linecap:square;stroke-miterlimit:4;stroke-dasharray:none;stroke-opacity:1"/><path id="path16837" d="M253.88 440.942c1.18.044 2.362.035 3.543.05.709.008 1.419-.002 2.127-.041l.04-.676a32.78 32.78 0 0 1-2.145.063 172.973 172.973 0 0 1-3.44-.061z" style="fill:#000;fill-opacity:1;stroke:#000;stroke-width:.2;stroke-linecap:square;stroke-miterlimit:4;stroke-dasharray:none;stroke-opacity:1"/><path id="path16843" d="M253.653 446.103c1.165.82 2.439 1.112 3.376 1.094 1.29-.025 2.552-.566 2.94-1.497.129-.308.13-.668.114-.833-.078-.767-.64-1.455-1.32-1.807a2.63 2.63 0 0 0-.555-.212 3.19 3.19 0 0 0-.588-.082 6.352 6.352 0 0 0-2.673.429c-.23.089-.414.15-.714.28-.152.066-.325.183-.31.19.592.295.426-.086.508.115-.028-.168.059-.45.102-.64.155-.688.37-1.613.431-2.318l-.677-.024c-.063.677-.267 1.576-.423 2.236-.08.333-.18.667-.062 1 .19.344.994-.093 1.27-.174.798-.234 1.637-.47 2.479-.422.167.01.338.02.5.067.7.203 1.298.537 1.4 1.302.038.281-.038.531-.142.743-.36.743-1.494.975-2.217 1.003-.892.035-2.09-.313-3.123-1.05z" style="fill:#000;fill-opacity:1;stroke:#000;stroke-width:.2;stroke-linecap:square;stroke-miterlimit:4;stroke-dasharray:none;stroke-opacity:1"/><path id="path16847" d="M260.726 439.77c.84.697 1.476 1.667 1.897 2.667.416.988.692 2.554.234 3.59-.31.7-.76 1.013-1.45 1.349l.16.657c1.06-.352 1.66-1.081 1.956-1.89.465-1.273.176-2.863-.29-3.995-.455-1.105-1.171-2.155-2.098-2.92z" style="fill:#000;fill-opacity:1;stroke:#000;stroke-width:.2;stroke-linecap:square;stroke-miterlimit:4;stroke-dasharray:none;stroke-opacity:1"/><path id="path5204" d="M241.738 423.995v-25.048h-10.45L250 380.235l18.712 18.712h-10.45v25.048z" style="fill:#ffe680;fill-opacity:1;stroke:#000;stroke-width:1px;stroke-linecap:butt;stroke-linejoin:miter;stroke-opacity:1"/></g><g id="layer4"><path id="path18092" d="m310.111 496.777 69.083 11.633v23.9H600.74v-70.641H379.194v24.132Z" style="fill:#afe9c6;fill-opacity:.520161;stroke:none;stroke-width:1px;stroke-linecap:butt;stroke-linejoin:miter;stroke-opacity:1"/><path id="path18094" d="m321.287 494.919-14.054 1.914 14.067 1.889" style="fill:#93ac93;fill-opacity:.520161;stroke:none;stroke-width:1px;stroke-linecap:butt;stroke-linejoin:miter;stroke-opacity:1"/><g id="g18294" transform="translate(-77.508 8.052)"><path id="path18290" d="m269.942 395.478-7.014 179.924 66.123 5.317v22.339h232.214v-70.641H329.051v22.57l-47.062 3.785-3.953-154.162 50.305-4.417z" style="fill:#ffe680;fill-opacity:.52;stroke:none;stroke-width:1px;stroke-linecap:butt;stroke-linejoin:miter;stroke-opacity:1"/><path id="path18292" d="m328.34 400.193-10.137-.833.06 1.686" style="fill:#7d6500;fill-opacity:.290196;stroke:none;stroke-width:1px;stroke-linecap:butt;stroke-linejoin:miter;stroke-opacity:1"/></g><g id="g18554" transform="translate(0 21.213)"><g id="g18308" style="stroke-width:1.08416" transform="matrix(.92237 0 0 .92237 -86.552 -25.863)"><path id="path18296" d="m395.536 610.816 1.217.47q.94.332 1.826.803.885.442 1.549 1.078.691.609 1.106 1.466.415.83.415 1.936 0 1.356-.609 2.352-.58.995-1.549 1.66-.94.635-2.13.94-1.189.332-2.378.332-1.356 0-2.628-.305-1.272-.304-2.268-.802-.443-.249-.443-.83l.083-2.572q.056-.692.72-.692h.608q.609 0 .747.637l.36 1.991q.055.387.36.636.331.222.746.36.442.11.885.138.47.028.775.028 1.797 0 2.82-.775 1.024-.802 1.024-2.268 0-.664-.276-1.134-.25-.47-.692-.802-.415-.36-.968-.58-.525-.25-1.079-.443l-1.161-.415q-2.24-.885-3.54-2.185-1.273-1.3-1.273-3.292 0-1.3.525-2.24.553-.968 1.41-1.605.886-.636 1.992-.94 1.135-.304 2.296-.304 1.245 0 2.296.304 1.051.304 1.936.802.498.277.443.858l-.139 2.35q-.027.664-.691.664h-.609q-.608 0-.746-.636l-.36-1.936q-.083-.553-.58-.72-.748-.276-1.605-.276-.664 0-1.272.194-.609.166-1.08.525-.47.332-.746.886-.277.525-.277 1.272 0 1.217.747 1.88.747.637 2.213 1.19z" style="font-style:normal;font-variant:normal;font-weight:400;font-stretch:normal;font-size:30px;line-height:1.25;font-family:&quot;Song Myung&quot;;-inkscape-font-specification:&quot;Song Myung&quot;;stroke-width:1.08416"/><path id="path18298" d="M410.277 619.612q.305-.166.526-.166.221 0 .387.194.36.442-.055.885-.526.553-1.3.885-.747.304-1.798.304-1.521 0-2.406-.747-.858-.774-.858-2.406v-.636q0-.304.028-.581v-6.307q0-.691-.692-.691h-.58q-.692 0-.692-.664 0-.636.636-.719l.968-.11q.581-.084.692-.664l.498-2.49q.11-.608.746-.608h.775q.664 0 .664.691l-.055 2.324q0 .691.691.691h1.909q.691 0 .691.692v.165q0 .692-.691.692h-1.937q-.691 0-.691.691v6.998q0 1.024.387 1.466.415.443 1.051.443.221 0 .498-.055.304-.083.609-.277z" style="font-style:normal;font-variant:normal;font-weight:400;font-stretch:normal;font-size:30px;line-height:1.25;font-family:&quot;Song Myung&quot;;-inkscape-font-specification:&quot;Song Myung&quot;;stroke-width:1.08416"/><path id="path18300" d="M424.72 614.163q-.11.609-.774.609h-8.021q.055 2.517 1.217 3.789 1.162 1.272 3.015 1.272 1.079 0 1.825-.387.775-.415 1.411-1.134.304-.332.58-.332.14 0 .25.083.415.277.11.83-.719 1.41-2.074 2.157-1.355.747-3.18.747-1.55 0-2.767-.525-1.19-.526-2.02-1.439-.801-.94-1.216-2.212-.415-1.273-.415-2.766 0-1.439.47-2.739.47-1.3 1.328-2.268.885-.996 2.102-1.549 1.245-.58 2.738-.58 1.245 0 2.24.414 1.024.415 1.743 1.162.72.72 1.107 1.742.387 1.024.387 2.269v.442q0 .194-.055.415zm-8.74-.664h4.15q.995 0 1.327-.415.36-.415.36-1.161 0-1.245-.72-2.075-.691-.83-1.742-.83-.858 0-1.494.443-.608.415-1.023 1.079-.388.663-.609 1.466-.193.774-.249 1.493z" style="font-style:normal;font-variant:normal;font-weight:400;font-stretch:normal;font-size:30px;line-height:1.25;font-family:&quot;Song Myung&quot;;-inkscape-font-specification:&quot;Song Myung&quot;;stroke-width:1.08416"/><path id="path18302" d="M431.208 608.465q.221.138.249.636l.083 1.079q.885-.94 1.825-1.383.968-.47 2.158-.47 1.383 0 2.351.608.968.581 1.577 1.55.636.94.912 2.13.305 1.188.305 2.378 0 1.272-.332 2.517-.332 1.217-1.024 2.185-.691.968-1.742 1.577-1.051.58-2.462.58-2.047 0-3.485-1.52V623.566q.027.969.055 1.854 0 .636.609.746l.968.194q.608.11.608.636t-.691.526h-5.588q-.691 0-.691-.526 0-.525.608-.664l.637-.138q.608-.138.608-.747.028-.885.028-1.853.028-.94.028-1.77v-8.381q0-.443-.028-.775-.028-.22-.028-.414v-.415q-.055-.637-.664-.72l-.664-.083q-.636-.083-.636-.58 0-.47.553-.692l3.181-1.245q.25-.11.47-.11.111 0 .222.055zm.498 2.794v7.717q1.327 1.079 2.572 1.079 1.383 0 2.296-1.19.94-1.19.94-3.706 0-2.545-.83-3.79-.802-1.272-2.157-1.272-1.245 0-2.821 1.162z" style="font-style:normal;font-variant:normal;font-weight:400;font-stretch:normal;font-size:30px;line-height:1.25;font-family:&quot;Song Myung&quot;;-inkscape-font-specification:&quot;Song Myung&quot;;stroke-width:1.08416"/><path id="path18304" d="M451.948 618.727h7.856q.691 0 .691.691v1.328q0 .692-.691.692h-9.764q-.692 0-.692-.692v-.774q0-.526.332-.858l3.513-3.623q1.825-1.909 2.71-3.485.913-1.577.913-3.237 0-1.632-.83-2.544-.802-.94-2.268-.94-.22 0-.36.027-.58.055-.718.636l-.305 1.217q-.249 1.19-.663 1.604-.415.415-.996.415-1.051 0-1.494-.94.055-1.134.553-1.936.526-.802 1.3-1.3.775-.526 1.743-.747.996-.25 1.991-.25 1.08 0 1.992.25.94.249 1.632.802.691.526 1.079 1.355.387.83.387 1.992 0 1.023-.332 1.88-.304.858-.968 1.743-.664.885-1.687 1.936-1.024 1.024-2.435 2.38z" style="font-style:normal;font-variant:normal;font-weight:400;font-stretch:normal;font-size:30px;line-height:1.25;font-family:&quot;Song Myung&quot;;-inkscape-font-specification:&quot;Song Myung&quot;;stroke-width:1.08416"/><path id="path18306" d="M465.756 620.03q-.885 0-1.522-.636-.636-.636-.636-1.521 0-.885.636-1.521.637-.637 1.522-.637t1.52.637q.637.636.637 1.52 0 .886-.636 1.522t-1.521.636zm0-9.764q-.885 0-1.522-.636-.636-.636-.636-1.521 0-.885.636-1.521.637-.637 1.522-.637t1.52.637q.637.636.637 1.52 0 .886-.636 1.522t-1.521.636z" style="font-style:normal;font-variant:normal;font-weight:400;font-stretch:normal;font-size:30px;line-height:1.25;font-family:&quot;Song Myung&quot;;-inkscape-font-specification:&quot;Song Myung&quot;;stroke-width:1.08416"/></g><g id="g18326" style="stroke-width:1.02041" transform="matrix(.98 0 0 .98 -36.897 -68.324)"><path id="path18310" d="M413.04 627.16q.045-.044.29.178.266.266-.023.666-.355.51-.777.688-.422.2-.999.2-.91 0-1.443-.377-.51-.4-.71-1.044-.71.71-1.377 1.132-.666.4-1.71.4-1.22 0-2.064-.666-.821-.666-.821-1.954 0-.865.466-1.487.488-.622 1.199-1.066.732-.444 1.554-.732.821-.289 1.532-.489l1.132-.333v-.577q0-1.465-.444-1.998-.422-.555-1.465-.555h-.222q-.09 0-.2.022-.444.023-.555.533l-.2.91q-.266 1.332-1.332 1.332-.444 0-.755-.266-.31-.289-.355-.733.2-1.243 1.332-2.02 1.154-.777 3.02-.777 1.842 0 2.685.888.844.888.844 3.13v4.463q0 .999.622.999.266 0 .488-.156.155-.11.2-.177.044-.09.089-.134zm-3.751-.555v-3.44q-.533.133-1.155.332-.599.2-1.132.511-.533.31-.888.777-.355.444-.355 1.088 0 .755.444 1.176.466.422 1.221.422.444 0 .821-.177.4-.178 1.044-.689z" style="font-style:normal;font-variant:normal;font-weight:400;font-stretch:normal;font-size:30px;line-height:1.25;font-family:&quot;Song Myung&quot;;-inkscape-font-specification:&quot;Song Myung&quot;;stroke-width:1.02041"/><path id="path18312" d="M417.857 618.258q.178.111.2.51l.066.867q.71-.755 1.466-1.11.777-.378 1.731-.378 1.11 0 1.887.489.777.466 1.266 1.243.51.755.732 1.71.244.954.244 1.908 0 1.022-.266 2.02-.266.977-.821 1.754-.555.777-1.4 1.266-.843.466-1.975.466-1.643 0-2.797-1.221v2.597l.044 1.488q0 .51.489.6l.777.155q.488.088.488.51 0 .422-.555.422h-4.484q-.555 0-.555-.422t.488-.533l.51-.11q.49-.112.49-.6.021-.71.021-1.487.023-.755.023-1.421v-6.727q0-.355-.023-.621-.022-.178-.022-.333v-.333q-.044-.511-.533-.578l-.532-.066q-.511-.067-.511-.466 0-.378.444-.555l2.553-1q.2-.088.377-.088.09 0 .178.044zm.4 2.242v6.194q1.065.866 2.064.866 1.11 0 1.843-.955.755-.954.755-2.974 0-2.043-.666-3.042-.644-1.021-1.732-1.021-1 0-2.264.932z" style="font-style:normal;font-variant:normal;font-weight:400;font-stretch:normal;font-size:30px;line-height:1.25;font-family:&quot;Song Myung&quot;;-inkscape-font-specification:&quot;Song Myung&quot;;stroke-width:1.02041"/><path id="path18314" d="M430.561 618.258q.178.111.2.51l.067.867q.71-.755 1.465-1.11.777-.378 1.731-.378 1.11 0 1.887.489.777.466 1.266 1.243.51.755.732 1.71.245.954.245 1.908 0 1.022-.267 2.02-.266.977-.821 1.754-.555.777-1.399 1.266-.843.466-1.976.466-1.642 0-2.797-1.221v2.597q.022.777.045 1.488 0 .51.488.6l.777.155q.488.088.488.51 0 .422-.555.422h-4.484q-.555 0-.555-.422t.488-.533l.511-.11q.488-.112.488-.6.023-.71.023-1.487.022-.755.022-1.421v-6.727q0-.355-.022-.621-.023-.178-.023-.333v-.333q-.044-.511-.532-.578l-.533-.066q-.51-.067-.51-.466 0-.378.443-.555l2.553-1q.2-.088.378-.088.088 0 .177.044zm.4 2.242v6.194q1.065.866 2.064.866 1.11 0 1.843-.955.755-.954.755-2.974 0-2.043-.666-3.042-.644-1.021-1.732-1.021-.999 0-2.264.932z" style="font-style:normal;font-variant:normal;font-weight:400;font-stretch:normal;font-size:30px;line-height:1.25;font-family:&quot;Song Myung&quot;;-inkscape-font-specification:&quot;Song Myung&quot;;stroke-width:1.02041"/><path id="path18316" d="M443.532 627.05q0 .51.488.599l.467.089q.488.088.488.51 0 .422-.555.422h-4.24q-.555 0-.555-.422 0-.4.51-.51l.489-.09q.488-.088.488-.599.022-.71.022-1.42.023-.71.023-1.421v-8.48q0-.511-.511-.578l-.666-.089q-.51-.066-.51-.466t.488-.533l2.93-.754q.111-.045.178-.045h.177q.156 0 .2.045.133.088.133.532l-.066 2.576v9.212q.022.711.022 1.421z" style="font-style:normal;font-variant:normal;font-weight:400;font-stretch:normal;font-size:30px;line-height:1.25;font-family:&quot;Song Myung&quot;;-inkscape-font-specification:&quot;Song Myung&quot;;stroke-width:1.02041"/><path id="path18318" d="M455.764 618.525q.555 0 .555.444t-.51.555l-.333.066q-.444.067-.6.489l-3.174 8.68q-.244.688-.6 1.532-.333.865-.82 1.598-.49.755-1.155 1.265-.666.511-1.554.511-.844 0-1.466-.4-.599-.377-.599-1.065.155-.51.533-.733.377-.2.866-.2.4 0 .754.134.378.133.822.577.066.066.177.066.245 0 .533-.355.289-.333.555-.799.267-.444.466-.888.222-.444.29-.622l-3.797-9.324q-.156-.377-.577-.466l-.311-.066q-.489-.09-.489-.555 0-.444.555-.444h4.374q.555 0 .555.444 0 .488-.51.555l-.534.088q-.599.111-.4.666l2.22 6.017 2.088-6.039q.2-.555-.4-.666l-.488-.066q-.51-.067-.51-.555 0-.444.554-.444z" style="font-style:normal;font-variant:normal;font-weight:400;font-stretch:normal;font-size:30px;line-height:1.25;font-family:&quot;Song Myung&quot;;-inkscape-font-specification:&quot;Song Myung&quot;;stroke-width:1.02041"/><path id="path18320" d="M467.745 627.205q.244-.133.422-.133.177 0 .31.155.29.355-.044.71-.422.444-1.043.71-.6.245-1.443.245-1.221 0-1.932-.6-.688-.621-.688-1.93v-.511q0-.245.022-.467v-5.061q0-.555-.555-.555h-.466q-.555 0-.555-.533 0-.51.51-.577l.778-.089q.466-.067.555-.533l.4-1.998q.088-.488.599-.488h.621q.533 0 .533.555l-.044 1.865q0 .555.555.555h1.531q.555 0 .555.555v.133q0 .555-.555.555h-1.554q-.555 0-.555.555v5.616q0 .822.311 1.177.333.355.844.355.177 0 .4-.044.244-.067.488-.222z" style="font-style:normal;font-variant:normal;font-weight:400;font-stretch:normal;font-size:30px;line-height:1.25;font-family:&quot;Song Myung&quot;;-inkscape-font-specification:&quot;Song Myung&quot;;stroke-width:1.02041"/><path id="path18322" d="M479.825 627.072q.023.466.511.577l.377.066q.489.111.489.533 0 .422-.555.422h-4.107q-.555 0-.555-.422 0-.4.51-.51l.467-.09q.488-.11.51-.576v-4.84q0-1.332-.333-1.887-.333-.577-1.176-.577-.689 0-1.332.333-.644.31-1.355 1.021v5.927q0 .511.489.6l.377.066q.489.111.489.533 0 .422-.555.422h-4.085q-.555 0-.555-.422 0-.4.51-.51l.444-.09q.489-.11.511-.576v-11.345q0-.51-.51-.577l-.667-.089q-.51-.066-.51-.466t.466-.533l2.908-.754q.111-.045.178-.045h.177q.156 0 .2.045.133.088.133.532l-.066 2.576v3.64q.866-.976 1.731-1.443.866-.466 1.954-.466 1.465 0 2.198.91.732.888.732 2.93z" style="font-style:normal;font-variant:normal;font-weight:400;font-stretch:normal;font-size:30px;line-height:1.25;font-family:&quot;Song Myung&quot;;-inkscape-font-specification:&quot;Song Myung&quot;;stroke-width:1.02041"/><path id="path18324" d="M492.345 622.831q-.089.489-.622.489h-6.438q.045 2.02.977 3.041.932 1.021 2.42 1.021.866 0 1.465-.31.622-.333 1.132-.91.244-.267.466-.267.111 0 .2.067.333.222.09.666-.578 1.132-1.666 1.731-1.088.6-2.553.6-1.243 0-2.22-.422-.955-.422-1.62-1.155-.644-.754-.977-1.776-.333-1.02-.333-2.22 0-1.154.377-2.197.377-1.044 1.066-1.82.71-.8 1.687-1.244.999-.466 2.198-.466.999 0 1.798.333.821.333 1.398.932.578.577.888 1.399.311.821.311 1.82v.355q0 .156-.044.333zm-7.015-.532h3.33q.799 0 1.065-.333.289-.333.289-.933 0-.999-.577-1.665-.555-.666-1.399-.666-.688 0-1.199.355-.488.333-.821.866-.31.533-.489 1.177-.155.621-.2 1.199z" style="font-style:normal;font-variant:normal;font-weight:400;font-stretch:normal;font-size:30px;line-height:1.25;font-family:&quot;Song Myung&quot;;-inkscape-font-specification:&quot;Song Myung&quot;;stroke-width:1.02041"/></g><g id="g18362" style="stroke-width:1.02041" transform="matrix(.98 0 0 .98 -217.06 -40.752)"><path id="path18328" d="M499.007 619.235q0-.51.51-.577l.6-.089q.488-.067.555-.577.178-1.421.533-2.287.377-.888.999-1.532.755-.754 1.554-1.065.821-.311 1.643-.311.843 0 1.42.31.578.29.755.867 0 .51-.355.865-.355.333-.932.333-.844 0-1.688-1.02-.155-.2-.377-.2-.155 0-.289.133-.688.843-.865 1.82-.178.977-.178 2.042 0 .578.555.578h1.532q.555 0 .555.555v.133q0 .555-.555.555h-1.488q-.555 0-.555.555V625.606l.045 1.399q0 .51.488.6l.755.133q.51.11.51.51 0 .422-.554.422h-4.574q-.555 0-.555-.422 0-.4.511-.51l.488-.09q.489-.088.489-.599.022-.71.022-1.42.022-.71.022-1.421v-3.885q0-.555-.555-.555h-.466q-.555 0-.555-.533z" style="font-style:normal;font-variant:normal;font-weight:400;font-stretch:normal;font-size:30px;line-height:1.25;font-family:&quot;Song Myung&quot;;-inkscape-font-specification:&quot;Song Myung&quot;;stroke-width:1.02041"/><path id="path18330" d="M517.074 627.05q0 .51.488.599l.355.066q.489.111.489.533 0 .422-.533.466l-2.375.156h-.045q-.488 0-.555-.51l-.133-1.288q-1.665 1.931-3.685 1.931-.644 0-1.177-.222-.533-.2-.91-.666-.377-.444-.577-1.154-.2-.733-.178-1.799l.045-4.906q0-.488-.51-.6l-.312-.066q-.488-.089-.488-.51 0-.4.533-.444l2.575-.222h.155q.067-.023.111-.023.156 0 .244.045.09.089.09.51l-.09 2.62v3.286q0 1.398.378 1.953.4.555 1.11.555.644 0 1.31-.355.688-.377 1.31-.977l.066-5.772q0-.488-.51-.6l-.311-.066q-.489-.089-.489-.488 0-.4.533-.444l2.53-.244h.156q.067-.023.111-.023.156 0 .245.045.044.044.066.155.044.111.044.355l-.066 2.62z" style="font-style:normal;font-variant:normal;font-weight:400;font-stretch:normal;font-size:30px;line-height:1.25;font-family:&quot;Song Myung&quot;;-inkscape-font-specification:&quot;Song Myung&quot;;stroke-width:1.02041"/><path id="path18332" d="M529.67 627.072q.022.466.51.577l.378.066q.488.111.488.533 0 .422-.555.422h-4.085q-.555 0-.555-.422t.489-.51l.444-.09q.488-.11.51-.576v-4.84q0-1.332-.333-1.887-.31-.577-1.154-.577-.688 0-1.332.333-.622.333-1.332.999v5.972q.022.466.51.577l.4.089q.488.088.488.51 0 .422-.555.422h-4.129q-.555 0-.555-.422 0-.4.51-.51l.467-.09q.488-.11.51-.576V622.254q0-.355-.022-.621-.022-.178-.022-.333v-.333q-.044-.511-.533-.578l-.532-.066q-.51-.067-.51-.466 0-.378.443-.555l2.575-1q.2-.088.4-.088.133 0 .177.044.178.111.2.51l.111 1.31q.844-.976 1.71-1.442.865-.489 1.953-.489 1.465 0 2.198.91.733.888.733 2.93z" style="font-style:normal;font-variant:normal;font-weight:400;font-stretch:normal;font-size:30px;line-height:1.25;font-family:&quot;Song Myung&quot;;-inkscape-font-specification:&quot;Song Myung&quot;;stroke-width:1.02041"/><path id="path18334" d="M540.633 626.295q.244-.333.466-.333.067 0 .156.044.333.2.133.666-.51 1.132-1.554 1.732-1.021.599-2.42.599-1.199 0-2.131-.4-.933-.421-1.576-1.132-.622-.732-.955-1.71-.31-.998-.31-2.153 0-1.132.377-2.13.377-1 1.065-1.732.688-.755 1.643-1.177.955-.422 2.131-.422.666 0 1.31.178.666.177 1.199.555.555.355.932.91.378.533.444 1.243-.155.91-1.132.91-1.132 0-1.31-1.376l-.155-.844q-.089-.4-.378-.488-.266-.089-.599-.089-.821 0-1.399.4-.577.377-.932.999-.355.6-.533 1.354-.155.733-.155 1.42 0 2.088.91 3.131.91 1.043 2.331 1.043 1.51 0 2.442-1.198z" style="font-style:normal;font-variant:normal;font-weight:400;font-stretch:normal;font-size:30px;line-height:1.25;font-family:&quot;Song Myung&quot;;-inkscape-font-specification:&quot;Song Myung&quot;;stroke-width:1.02041"/><path id="path18336" d="M548.437 627.205q.244-.133.421-.133.178 0 .311.155.289.355-.044.71-.422.444-1.044.71-.599.245-1.443.245-1.22 0-1.931-.6-.688-.621-.688-1.93v-.511q0-.245.022-.467v-5.061q0-.555-.555-.555h-.466q-.555 0-.555-.533 0-.51.51-.577l.777-.089q.467-.067.555-.533l.4-1.998q.089-.488.6-.488h.621q.533 0 .533.555l-.045 1.865q0 .555.555.555h1.532q.555 0 .555.555v.133q0 .555-.555.555h-1.554q-.555 0-.555.555v5.616q0 .822.311 1.177.333.355.844.355.177 0 .4-.044.243-.067.488-.222z" style="font-style:normal;font-variant:normal;font-weight:400;font-stretch:normal;font-size:30px;line-height:1.25;font-family:&quot;Song Myung&quot;;-inkscape-font-specification:&quot;Song Myung&quot;;stroke-width:1.02041"/><path id="path18338" d="M554.057 627.072q.022.466.51.577l.378.066q.488.111.488.533 0 .422-.555.422h-4.084q-.555 0-.555-.422 0-.4.51-.51l.444-.09q.489-.11.51-.576v-4.729q0-.355-.021-.666-.023-.178-.023-.355v-.355q-.044-.511-.532-.578l-.533-.066q-.51-.067-.51-.466 0-.356.443-.533l2.886-1.044q.111-.044.2-.066.089-.022.178-.022.11 0 .177.066.156.133.156.533l-.067 2.53zm-1.199-10.967q-.71 0-1.176-.422-.444-.422-.444-1.11 0-.688.444-1.11.466-.422 1.176-.422.688 0 1.132.422.467.422.467 1.11 0 .688-.467 1.11-.444.422-1.132.422z" style="font-style:normal;font-variant:normal;font-weight:400;font-stretch:normal;font-size:30px;line-height:1.25;font-family:&quot;Song Myung&quot;;-inkscape-font-specification:&quot;Song Myung&quot;;stroke-width:1.02041"/><path id="path18340" d="M561.893 618.147q1.154 0 2.109.444.955.422 1.62 1.177.689.732 1.044 1.731.377.977.377 2.11 0 1.154-.377 2.153-.355.977-1.021 1.71-.666.71-1.62 1.131-.955.4-2.132.4t-2.131-.4q-.955-.421-1.62-1.132-.667-.732-1.044-1.71-.355-.998-.355-2.153 0-1.132.355-2.13.377-1 1.043-1.732.688-.733 1.62-1.155.955-.444 2.132-.444zm0 1q-2.553 0-2.553 4.44 0 4.395 2.553 4.395t2.553-4.396q0-4.44-2.553-4.44z" style="font-style:normal;font-variant:normal;font-weight:400;font-stretch:normal;font-size:30px;line-height:1.25;font-family:&quot;Song Myung&quot;;-inkscape-font-specification:&quot;Song Myung&quot;;stroke-width:1.02041"/><path id="path18342" d="M579.013 627.072q.022.466.51.577l.378.066q.488.111.488.533 0 .422-.555.422h-4.085q-.555 0-.555-.422t.489-.51l.444-.09q.488-.11.51-.576v-4.84q0-1.332-.333-1.887-.31-.577-1.154-.577-.688 0-1.332.333-.622.333-1.332.999v5.972q.022.466.51.577l.4.089q.488.088.488.51 0 .422-.555.422H569.2q-.555 0-.555-.422 0-.4.51-.51l.467-.09q.488-.11.51-.576V622.254q0-.355-.022-.621-.022-.178-.022-.333v-.333q-.044-.511-.533-.578l-.532-.066q-.511-.067-.511-.466 0-.378.444-.555l2.575-1q.2-.088.4-.088.133 0 .177.044.178.111.2.51l.111 1.31q.844-.976 1.71-1.442.865-.489 1.953-.489 1.465 0 2.198.91.733.888.733 2.93z" style="font-style:normal;font-variant:normal;font-weight:400;font-stretch:normal;font-size:30px;line-height:1.25;font-family:&quot;Song Myung&quot;;-inkscape-font-specification:&quot;Song Myung&quot;;stroke-width:1.02041"/><path id="path18344" d="M586.636 619.235q0-.51.51-.577l.6-.089q.489-.067.555-.577.178-1.421.533-2.287.377-.888 1-1.532.754-.754 1.553-1.065.821-.311 1.643-.311.843 0 1.42.31.578.29.755.867 0 .51-.355.865-.355.333-.932.333-.844 0-1.687-1.02-.156-.2-.378-.2-.155 0-.288.133-.689.843-.866 1.82-.178.977-.178 2.042 0 .578.555.578h1.532q.555 0 .555.555v.133q0 .555-.555.555h-1.487q-.555 0-.555.555V625.606l.044 1.399q0 .51.488.6l.755.133q.51.11.51.51 0 .422-.554.422h-4.573q-.555 0-.555-.422 0-.4.51-.51l.489-.09q.488-.088.488-.599.022-.71.022-1.42.022-.71.022-1.421v-3.885q0-.555-.555-.555h-.466q-.555 0-.555-.533z" style="font-style:normal;font-variant:normal;font-weight:400;font-stretch:normal;font-size:30px;line-height:1.25;font-family:&quot;Song Myung&quot;;-inkscape-font-specification:&quot;Song Myung&quot;;stroke-width:1.02041"/><path id="path18346" d="M597.777 618.258q.089.067.133.178.045.11.067.355l.155 1.843q.6-1.177 1.377-1.82.799-.667 1.62-.667.444 0 .91.267.467.266.6.91 0 .621-.377.999-.378.355-1.022.355-.754 0-1.42-.688l-.111-.111q-.489.444-.888.999-.378.533-.666 1.287v4.84q.022.51.51.6l.71.133q.511.11.511.51 0 .422-.555.422h-4.44q-.555 0-.555-.422 0-.4.51-.51l.445-.09q.488-.11.51-.576V622.254q0-.355-.022-.621-.022-.178-.022-.333v-.333q-.044-.511-.533-.578l-.533-.066q-.51-.067-.51-.466 0-.378.444-.555l2.575-1q.2-.088.377-.088.134 0 .2.044z" style="font-style:normal;font-variant:normal;font-weight:400;font-stretch:normal;font-size:30px;line-height:1.25;font-family:&quot;Song Myung&quot;;-inkscape-font-specification:&quot;Song Myung&quot;;stroke-width:1.02041"/><path id="path18348" d="M608.808 617.892q1.154 0 2.109.444.954.422 1.62 1.177.689.732 1.044 1.731.377.977.377 2.11 0 1.154-.377 2.153-.355.977-1.021 1.71-.666.71-1.621 1.131-.955.4-2.131.4-1.177 0-2.131-.4-.955-.421-1.621-1.132-.666-.732-1.043-1.71-.356-.998-.356-2.153 0-1.132.356-2.13.377-1 1.043-1.732.688-.733 1.62-1.155.955-.444 2.132-.444zm0 1q-2.553 0-2.553 4.44 0 4.395 2.553 4.395t2.553-4.396q0-4.44-2.553-4.44z" style="font-style:normal;font-variant:normal;font-weight:400;font-stretch:normal;font-size:30px;line-height:1.25;font-family:&quot;Song Myung&quot;;-inkscape-font-specification:&quot;Song Myung&quot;;stroke-width:1.02041"/><path id="path18350" d="M632.188 627.072q.022.466.51.577l.4.089q.488.088.488.51 0 .422-.555.422h-4.062q-.555 0-.555-.422 0-.4.51-.51l.467-.09q.488-.11.51-.576v-4.84q0-1.354-.4-1.91-.377-.554-1.154-.554-.621 0-1.287.377-.644.355-1.288.933.022.2.022.444.022.222.022.466v5.084q.023.466.511.577l.4.089q.488.088.488.51 0 .422-.555.422h-4.063q-.555 0-.555-.422 0-.4.511-.51l.444-.09q.488-.11.51-.576v-4.84q0-1.332-.377-1.887-.377-.577-1.154-.577-.644 0-1.288.355t-1.287.932v6.017q.022.466.51.577l.378.066q.488.111.488.533 0 .422-.555.422h-4.085q-.555 0-.555-.422 0-.4.51-.51l.467-.09q.488-.11.51-.576V622.254q0-.355-.022-.621-.022-.178-.022-.333v-.333q-.044-.511-.533-.578l-.555-.066q-.51-.067-.51-.466 0-.378.444-.555l2.575-1q.2-.088.4-.088.133 0 .177.044.178.111.2.51l.111 1.288q.777-.932 1.643-1.42.866-.489 1.91-.489 1.087 0 1.753.466.666.467.977 1.488.843-1.021 1.71-1.488.887-.466 2.02-.466 1.398 0 2.108.888.733.866.733 2.842z" style="font-style:normal;font-variant:normal;font-weight:400;font-stretch:normal;font-size:30px;line-height:1.25;font-family:&quot;Song Myung&quot;;-inkscape-font-specification:&quot;Song Myung&quot;;stroke-width:1.02041"/><path id="path18352" d="M643.412 618.258q.178.111.2.51l.067.867q.71-.755 1.465-1.11.777-.378 1.732-.378 1.11 0 1.887.489.777.466 1.265 1.243.51.755.733 1.71.244.954.244 1.908 0 1.022-.267 2.02-.266.977-.821 1.754-.555.777-1.399 1.266-.843.466-1.975.466-1.643 0-2.798-1.221v2.597l.045 1.488q0 .51.488.6l.777.155q.489.088.489.51 0 .422-.555.422h-4.485q-.555 0-.555-.422t.489-.533l.51-.11q.489-.112.489-.6.022-.71.022-1.487.022-.755.022-1.421v-6.727q0-.355-.022-.621-.022-.178-.022-.333v-.333q-.045-.511-.533-.578l-.533-.066q-.51-.067-.51-.466 0-.378.443-.555l2.553-1q.2-.088.378-.088.089 0 .177.044zm.4 2.242v6.194q1.066.866 2.065.866 1.11 0 1.842-.955.755-.954.755-2.974 0-2.043-.666-3.042-.644-1.021-1.732-1.021-.999 0-2.264.932z" style="font-style:normal;font-variant:normal;font-weight:400;font-stretch:normal;font-size:30px;line-height:1.25;font-family:&quot;Song Myung&quot;;-inkscape-font-specification:&quot;Song Myung&quot;;stroke-width:1.02041"/><path id="path18354" d="M662.444 627.16q.044-.044.288.178.267.266-.022.666-.355.51-.777.688-.422.2-.999.2-.91 0-1.443-.377-.51-.4-.71-1.044-.71.71-1.377 1.132-.666.4-1.71.4-1.22 0-2.064-.666-.821-.666-.821-1.954 0-.865.466-1.487.489-.622 1.199-1.066.733-.444 1.554-.732.821-.289 1.532-.489l1.132-.333v-.577q0-1.465-.444-1.998-.422-.555-1.465-.555h-.222q-.09 0-.2.022-.444.023-.555.533l-.2.91q-.266 1.332-1.332 1.332-.444 0-.755-.266-.31-.289-.355-.733.2-1.243 1.332-2.02 1.155-.777 3.02-.777 1.842 0 2.686.888.843.888.843 3.13v4.463q0 .999.622.999.266 0 .488-.156.156-.11.2-.177.044-.09.089-.134zm-3.752-.555v-3.44q-.533.133-1.154.332-.6.2-1.133.511-.532.31-.888.777-.355.444-.355 1.088 0 .755.444 1.176.466.422 1.221.422.444 0 .822-.177.4-.178 1.043-.689z" style="font-style:normal;font-variant:normal;font-weight:400;font-stretch:normal;font-size:30px;line-height:1.25;font-family:&quot;Song Myung&quot;;-inkscape-font-specification:&quot;Song Myung&quot;;stroke-width:1.02041"/><path id="path18356" d="M667.282 618.258q.09.067.133.178.045.11.067.355l.155 1.843q.6-1.177 1.377-1.82.8-.667 1.62-.667.444 0 .91.267.467.266.6.91 0 .621-.377.999-.378.355-1.022.355-.754 0-1.42-.688l-.111-.111q-.489.444-.888.999-.378.533-.666 1.287v4.84q.022.51.51.6l.71.133q.511.11.511.51 0 .422-.555.422h-4.44q-.555 0-.555-.422 0-.4.51-.51l.445-.09q.488-.11.51-.576V622.254q0-.355-.022-.621-.022-.178-.022-.333v-.333q-.044-.511-.533-.578l-.533-.066q-.51-.067-.51-.466 0-.378.444-.555l2.575-1q.2-.088.377-.088.134 0 .2.044z" style="font-style:normal;font-variant:normal;font-weight:400;font-stretch:normal;font-size:30px;line-height:1.25;font-family:&quot;Song Myung&quot;;-inkscape-font-specification:&quot;Song Myung&quot;;stroke-width:1.02041"/><path id="path18358" d="M678.601 627.205q.245-.133.422-.133.178 0 .311.155.289.355-.044.71-.422.444-1.044.71-.6.245-1.443.245-1.22 0-1.931-.6-.688-.621-.688-1.93v-.511q0-.245.022-.467v-5.061q0-.555-.555-.555h-.466q-.555 0-.555-.533 0-.51.51-.577l.777-.089q.466-.067.555-.533l.4-1.998q.089-.488.6-.488h.62q.534 0 .534.555l-.045 1.865q0 .555.555.555h1.532q.555 0 .555.555v.133q0 .555-.555.555h-1.554q-.555 0-.555.555v5.616q0 .822.31 1.177.334.355.844.355.178 0 .4-.044.244-.067.488-.222z" style="font-style:normal;font-variant:normal;font-weight:400;font-stretch:normal;font-size:30px;line-height:1.25;font-family:&quot;Song Myung&quot;;-inkscape-font-specification:&quot;Song Myung&quot;;stroke-width:1.02041"/><path id="path18360" d="M687.809 626.494h6.304q.555 0 .555.555v1.066q0 .555-.555.555h-7.836q-.555 0-.555-.555v-.622q0-.421.266-.688l2.82-2.908q1.465-1.532 2.175-2.797.733-1.266.733-2.598 0-1.31-.666-2.042-.644-.755-1.82-.755-.178 0-.29.022-.465.045-.576.511l-.245.977q-.2.954-.532 1.287-.333.333-.8.333-.843 0-1.198-.754.044-.91.444-1.554.421-.644 1.043-1.044.622-.422 1.399-.6.799-.199 1.598-.199.866 0 1.598.2.755.2 1.31.644.555.421.866 1.087.31.666.31 1.599 0 .821-.266 1.51-.244.688-.777 1.398-.532.71-1.354 1.554-.821.821-1.953 1.91z" style="font-style:normal;font-variant:normal;font-weight:400;font-stretch:normal;font-size:30px;line-height:1.25;font-family:&quot;Song Myung&quot;;-inkscape-font-specification:&quot;Song Myung&quot;;stroke-width:1.02041"/></g></g></g><g id="layer5"><g id="g18726" style="stroke-width:1.08416" transform="matrix(.92237 0 0 .92237 19.851 -1.656)"><path id="path18714" d="m416.758 523.369 1.217.47q.94.332 1.825.802.885.443 1.55 1.079.69.608 1.106 1.466.414.83.414 1.936 0 1.355-.608 2.351-.581.996-1.55 1.66-.94.636-2.129.94-1.19.332-2.379.332-1.355 0-2.627-.304-1.273-.304-2.268-.802-.443-.25-.443-.83l.083-2.573q.055-.691.72-.691h.608q.608 0 .746.636l.36 1.992q.055.387.36.636.332.221.746.36.443.11.886.138.47.027.774.027 1.798 0 2.821-.774 1.024-.802 1.024-2.268 0-.664-.277-1.134-.249-.47-.691-.802-.415-.36-.968-.581-.526-.25-1.08-.443l-1.16-.415q-2.241-.885-3.541-2.185-1.273-1.3-1.273-3.291 0-1.3.526-2.24.553-.969 1.41-1.605.886-.636 1.992-.94 1.134-.305 2.296-.305 1.244 0 2.296.304 1.05.305 1.936.803.498.276.442.857l-.138 2.351q-.028.664-.691.664h-.609q-.609 0-.747-.636l-.36-1.936q-.082-.554-.58-.72-.747-.276-1.605-.276-.663 0-1.272.194-.608.165-1.079.525-.47.332-.746.885-.277.526-.277 1.273 0 1.217.747 1.88.747.637 2.213 1.19z" style="font-style:normal;font-variant:normal;font-weight:400;font-stretch:normal;font-size:30px;line-height:1.25;font-family:&quot;Song Myung&quot;;-inkscape-font-specification:&quot;Song Myung&quot;;stroke-width:1.08416"/><path id="path18716" d="M431.499 532.165q.304-.166.526-.166.22 0 .387.193.36.443-.055.885-.526.554-1.3.886-.747.304-1.798.304-1.522 0-2.407-.747-.857-.775-.857-2.406v-.637q0-.304.027-.58v-6.307q0-.691-.691-.691h-.581q-.692 0-.692-.664 0-.636.637-.72l.968-.11q.58-.083.691-.664l.498-2.49q.11-.608.747-.608h.774q.664 0 .664.692l-.055 2.323q0 .692.691.692h1.909q.692 0 .692.691v.166q0 .692-.692.692h-1.936q-.692 0-.692.691v6.998q0 1.023.388 1.466.414.443 1.05.443.222 0 .499-.056.304-.083.608-.276z" style="font-style:normal;font-variant:normal;font-weight:400;font-stretch:normal;font-size:30px;line-height:1.25;font-family:&quot;Song Myung&quot;;-inkscape-font-specification:&quot;Song Myung&quot;;stroke-width:1.08416"/><path id="path18718" d="M445.942 526.716q-.11.608-.774.608h-8.022q.056 2.517 1.217 3.79 1.162 1.272 3.015 1.272 1.08 0 1.826-.387.774-.415 1.41-1.134.305-.332.581-.332.139 0 .25.083.414.276.11.83-.72 1.41-2.074 2.157-1.356.747-3.181.747-1.55 0-2.766-.526-1.19-.525-2.02-1.438-.802-.94-1.217-2.213-.414-1.272-.414-2.766 0-1.438.47-2.738t1.327-2.268q.886-.996 2.103-1.55 1.244-.58 2.738-.58 1.245 0 2.24.415 1.024.415 1.743 1.161.72.72 1.106 1.743.388 1.023.388 2.268v.443q0 .193-.056.415zm-8.74-.664h4.149q.996 0 1.327-.415.36-.415.36-1.162 0-1.245-.72-2.074-.69-.83-1.742-.83-.857 0-1.493.442-.609.415-1.024 1.08-.387.663-.608 1.465-.194.775-.25 1.494z" style="font-style:normal;font-variant:normal;font-weight:400;font-stretch:normal;font-size:30px;line-height:1.25;font-family:&quot;Song Myung&quot;;-inkscape-font-specification:&quot;Song Myung&quot;;stroke-width:1.08416"/><path id="path18720" d="M452.43 521.018q.22.138.248.636l.083 1.079q.885-.94 1.826-1.383.968-.47 2.157-.47 1.383 0 2.352.608.968.58 1.576 1.549.636.94.913 2.13.304 1.189.304 2.378 0 1.273-.332 2.517-.332 1.217-1.023 2.186-.692.968-1.743 1.576-1.05.581-2.461.581-2.047 0-3.486-1.521v3.236q.028.968.056 1.853 0 .636.608.747l.968.194q.609.11.609.636 0 .525-.692.525h-5.587q-.692 0-.692-.525 0-.526.609-.664l.636-.138q.609-.139.609-.747.027-.885.027-1.853.028-.94.028-1.77v-8.382q0-.442-.028-.774-.027-.221-.027-.415v-.415q-.056-.636-.664-.719l-.664-.083q-.636-.083-.636-.58 0-.471.553-.692l3.18-1.245q.25-.11.471-.11.11 0 .221.055zm.497 2.793v7.717q1.328 1.08 2.573 1.08 1.383 0 2.295-1.19.94-1.19.94-3.707 0-2.544-.829-3.79-.802-1.271-2.157-1.271-1.245 0-2.822 1.161z" style="font-style:normal;font-variant:normal;font-weight:400;font-stretch:normal;font-size:30px;line-height:1.25;font-family:&quot;Song Myung&quot;;-inkscape-font-specification:&quot;Song Myung&quot;;stroke-width:1.08416"/><path id="path18722" d="M477.65 531.64q.028.58.637.718l2.323.47q.609.111.609.637 0 .525-.692.525h-8.74q-.692 0-.692-.525 0-.498.636-.637l2.351-.442q.609-.138.637-.747v-11.894q0-.664-.664-.664h-.056l-1.466.139q-.304 0-.525-.083-.194-.11-.194-.47 0-.554.609-.72l4.48-1.134q.14-.055.222-.055h.221q.194 0 .25.055.138.139.138.664l-.083 3.264z" style="font-style:normal;font-variant:normal;font-weight:400;font-stretch:normal;font-size:30px;line-height:1.25;font-family:&quot;Song Myung&quot;;-inkscape-font-specification:&quot;Song Myung&quot;;stroke-width:1.08416"/><path id="path18724" d="M486.977 534.302q-.885 0-1.521-.637-.636-.636-.636-1.52 0-.886.636-1.522t1.521-.636q.885 0 1.521.636.637.636.637 1.521 0 .885-.637 1.521-.636.637-1.52.637zm0-9.764q-.885 0-1.521-.637-.636-.636-.636-1.52 0-.886.636-1.522t1.521-.636q.885 0 1.521.636.637.636.637 1.521 0 .885-.637 1.521-.636.637-1.52.637z" style="font-style:normal;font-variant:normal;font-weight:400;font-stretch:normal;font-size:30px;line-height:1.25;font-family:&quot;Song Myung&quot;;-inkscape-font-specification:&quot;Song Myung&quot;;stroke-width:1.08416"/></g><path id="path18560" d="m491.754 484.631.706.243q.815.308 1.345.661.55.33.904.706.308.397.44.86.133.44.133.948 0 .882-.397 1.5-.375.595-.992.992-.618.374-1.39.55-.749.177-1.499.177-.926 0-1.631-.198-.706-.177-1.412-.53-.397-.176-.397-.639l-.022-1.39q0-.55.53-.55h.352q.486 0 .596.507l.176.926q.066.44.463.573.662.265 1.367.265 1.125 0 1.632-.397.507-.397.507-1.103 0-.639-.44-.992-.442-.375-1.566-.816l-.97-.352q-1.235-.508-1.897-1.213-.661-.706-.661-1.808 0-.838.352-1.412.353-.573.927-.948.573-.375 1.278-.529.706-.176 1.434-.176.771 0 1.41.176.64.154 1.28.463.419.199.397.662l-.066 1.234q-.022.53-.552.53h-.33q-.508 0-.596-.485l-.154-.816q-.088-.463-.485-.574-.463-.176-.97-.176-.882 0-1.367.375-.464.375-.464 1.08 0 .53.42.904.22.177.617.375.419.199.992.397z" style="font-style:normal;font-variant:normal;font-weight:400;font-stretch:normal;font-size:30px;line-height:1.25;font-family:&quot;Song Myung&quot;;-inkscape-font-specification:&quot;Song Myung&quot;;fill:#000;stroke-width:.999997"/><path id="path18562" d="M506.696 489.328q0 .507.485.595l.353.066q.485.11.485.53 0 .418-.53.462l-2.359.155h-.044q-.485 0-.551-.507l-.132-1.28q-1.654 1.92-3.66 1.92-.64 0-1.17-.221-.528-.199-.903-.662-.375-.44-.574-1.146-.198-.728-.176-1.787l.044-4.873q0-.485-.507-.595l-.309-.066q-.485-.088-.485-.507 0-.397.53-.441l2.557-.22h.155q.066-.023.11-.023.154 0 .242.044.089.089.089.508l-.089 2.601v3.264q0 1.389.375 1.94.397.552 1.103.552.64 0 1.3-.353.684-.375 1.302-.97l.066-5.733q0-.486-.507-.596l-.31-.066q-.484-.088-.484-.485t.529-.441l2.514-.243h.154q.066-.022.11-.022.155 0 .243.045.044.044.066.154.044.11.044.353l-.066 2.602z" style="font-style:normal;font-variant:normal;font-weight:400;font-stretch:normal;font-size:30px;line-height:1.25;font-family:&quot;Song Myung&quot;;-inkscape-font-specification:&quot;Song Myung&quot;;fill:#000;stroke-width:.999997"/><path id="path18564" d="M513.032 478.766v3.13q.684-.705 1.433-1.057.75-.353 1.698-.353 1.103 0 1.875.485.771.463 1.256 1.235.508.75.728 1.697.243.949.243 1.897 0 1.014-.265 2.006-.265.97-.816 1.742-.551.772-1.389 1.257-.838.463-1.962.463-.838 0-1.522-.309-.683-.286-1.3-.97h-.133l-.066.684q-.066.507-.618.507l-2.381-.198q-.53-.045-.53-.464 0-.396.508-.507l.44-.088q.486-.11.508-.573v-11.268q0-.507-.507-.573l-.662-.088q-.507-.066-.507-.463t.463-.53l2.889-.75q.11-.043.176-.043h.177q.154 0 .198.044.132.088.132.529zm.066 4.08v6.107q1.08.882 2.117.882.75 0 1.235-.375.507-.397.794-.97.286-.595.397-1.279.132-.684.132-1.279 0-2.029-.662-3.02-.661-1.015-1.786-1.015-.97 0-2.227.948z" style="font-style:normal;font-variant:normal;font-weight:400;font-stretch:normal;font-size:30px;line-height:1.25;font-family:&quot;Song Myung&quot;;-inkscape-font-specification:&quot;Song Myung&quot;;fill:#000;stroke-width:.999997"/><path id="path18566" d="M527.242 489.482q.243-.132.42-.132.176 0 .308.154.287.353-.044.706-.419.44-1.036.705-.596.243-1.434.243-1.212 0-1.918-.595-.684-.618-.684-1.919v-.507q0-.242.023-.463v-5.027q0-.552-.552-.552h-.463q-.551 0-.551-.529 0-.507.507-.573l.772-.088q.463-.066.551-.53l.397-1.984q.088-.485.595-.485h.618q.529 0 .529.551l-.044 1.852q0 .552.551.552h1.522q.55 0 .55.55v.133q0 .551-.55.551h-1.544q-.551 0-.551.552v5.578q0 .816.309 1.169.33.353.837.353.177 0 .397-.044.243-.067.485-.22z" style="font-style:normal;font-variant:normal;font-weight:400;font-stretch:normal;font-size:30px;line-height:1.25;font-family:&quot;Song Myung&quot;;-inkscape-font-specification:&quot;Song Myung&quot;;fill:#000;stroke-width:.999997"/><path id="path18568" d="M532.494 480.596q.088.066.132.176.045.11.067.353l.154 1.83q.595-1.168 1.367-1.808.794-.661 1.61-.661.44 0 .904.264.463.265.595.904 0 .618-.375.993-.375.352-1.014.352-.75 0-1.411-.683l-.11-.11q-.486.44-.883.992-.374.53-.661 1.279v4.807q.022.507.507.595l.706.132q.507.11.507.507 0 .42-.551.42h-4.41q-.552 0-.552-.42 0-.396.507-.507l.441-.088q.486-.11.508-.573v-4.785q0-.353-.022-.617-.022-.177-.022-.331v-.33q-.045-.508-.53-.574l-.529-.066q-.507-.066-.507-.463 0-.375.441-.552l2.558-.992q.198-.088.375-.088.132 0 .198.044z" style="font-style:normal;font-variant:normal;font-weight:400;font-stretch:normal;font-size:30px;line-height:1.25;font-family:&quot;Song Myung&quot;;-inkscape-font-specification:&quot;Song Myung&quot;;fill:#000;stroke-width:.999997"/><path id="path18570" d="M548.059 489.438q.044-.044.286.176.265.265-.022.662-.353.507-.771.683-.42.199-.993.199-.904 0-1.433-.375-.507-.397-.706-1.036-.705.705-1.367 1.124-.661.397-1.698.397-1.212 0-2.05-.661-.816-.662-.816-1.94 0-.86.463-1.478.485-.617 1.19-1.058.728-.441 1.544-.728.816-.287 1.522-.485l1.124-.331v-.573q0-1.456-.44-1.985-.42-.551-1.456-.551h-.22q-.089 0-.199.022-.441.022-.551.53l-.199.903q-.264 1.323-1.323 1.323-.44 0-.75-.264-.308-.287-.352-.728.198-1.235 1.323-2.007 1.146-.771 2.999-.771 1.83 0 2.668.882.838.882.838 3.109v4.432q0 .992.617.992.265 0 .485-.154.154-.11.198-.177.045-.088.089-.132zm-3.727-.551v-3.418q-.529.132-1.146.33-.596.2-1.125.508-.53.309-.882.772-.353.44-.353 1.08 0 .75.441 1.169.463.419 1.213.419.441 0 .816-.177.397-.176 1.036-.683z" style="font-style:normal;font-variant:normal;font-weight:400;font-stretch:normal;font-size:30px;line-height:1.25;font-family:&quot;Song Myung&quot;;-inkscape-font-specification:&quot;Song Myung&quot;;fill:#000;stroke-width:.999997"/><path id="path18572" d="M557.605 488.578q.243-.33.463-.33.066 0 .155.043.33.199.132.662-.507 1.124-1.544 1.72-1.014.595-2.403.595-1.19 0-2.117-.397-.926-.419-1.565-1.124-.618-.728-.948-1.698-.31-.992-.31-2.139 0-1.125.376-2.117.375-.992 1.058-1.72.684-.75 1.632-1.168.948-.42 2.117-.42.661 0 1.3.177.662.177 1.191.551.551.353.926.904.375.53.441 1.235-.154.904-1.124.904-1.125 0-1.301-1.367l-.155-.838q-.088-.397-.374-.485-.265-.088-.596-.088-.816 0-1.389.397-.573.375-.926.992-.353.595-.53 1.345-.154.728-.154 1.411 0 2.073.905 3.11.904 1.036 2.315 1.036 1.5 0 2.425-1.19z" style="font-style:normal;font-variant:normal;font-weight:400;font-stretch:normal;font-size:30px;line-height:1.25;font-family:&quot;Song Myung&quot;;-inkscape-font-specification:&quot;Song Myung&quot;;fill:#000;stroke-width:.999997"/><path id="path18574" d="M565.356 489.482q.243-.132.42-.132.176 0 .308.154.286.353-.044.706-.42.44-1.037.705-.595.243-1.433.243-1.213 0-1.918-.595-.684-.618-.684-1.919v-.507q0-.242.022-.463v-5.027q0-.552-.551-.552h-.463q-.551 0-.551-.529 0-.507.507-.573l.772-.088q.463-.066.55-.53l.398-1.984q.088-.485.595-.485h.617q.53 0 .53.551l-.044 1.852q0 .552.55.552h1.522q.552 0 .552.55v.133q0 .551-.552.551h-1.543q-.551 0-.551.552v5.578q0 .816.308 1.169.331.353.838.353.177 0 .397-.044.243-.067.485-.22z" style="font-style:normal;font-variant:normal;font-weight:400;font-stretch:normal;font-size:30px;line-height:1.25;font-family:&quot;Song Myung&quot;;-inkscape-font-specification:&quot;Song Myung&quot;;fill:#000;stroke-width:.999997"/><path id="path18576" d="M581.573 489.063q.022.463.507.573l1.853.375q.485.089.485.507 0 .42-.552.42H576.9q-.552 0-.552-.42 0-.396.507-.507l1.875-.352q.485-.11.507-.596v-9.481q0-.53-.53-.53h-.043l-1.17.11q-.242 0-.418-.065-.154-.089-.154-.375 0-.441.485-.574l3.572-.904q.11-.044.176-.044h.177q.154 0 .198.044.11.11.11.53l-.066 2.602z" style="font-style:normal;font-variant:normal;font-weight:400;font-stretch:normal;font-size:30px;line-height:1.25;font-family:&quot;Song Myung&quot;;-inkscape-font-specification:&quot;Song Myung&quot;;fill:#000;stroke-width:.999997"/><g id="g18790" transform="translate(-167 27)"><path id="path18578" d="M587.88 481.566q0-.507.507-.573l.595-.088q.486-.066.552-.574.176-1.41.529-2.27.375-.883.992-1.522.75-.75 1.544-1.059.815-.308 1.631-.308.838 0 1.412.308.573.287.75.86 0 .507-.354.86-.352.331-.926.331-.838 0-1.675-1.014-.155-.199-.375-.199-.155 0-.287.133-.684.837-.86 1.808-.176.97-.176 2.028 0 .574.55.574h1.522q.552 0 .552.55v.133q0 .551-.552.551h-1.477q-.551 0-.551.552v5.248l.044 1.389q0 .507.485.595l.75.132q.507.11.507.507 0 .42-.551.42h-4.543q-.551 0-.551-.42 0-.396.507-.507l.485-.088q.485-.088.485-.595.022-.706.022-1.411.022-.706.022-1.412v-3.858q0-.552-.55-.552h-.464q-.551 0-.551-.529z" style="font-style:normal;font-variant:normal;font-weight:400;font-stretch:normal;font-size:30px;line-height:1.25;font-family:&quot;Song Myung&quot;;-inkscape-font-specification:&quot;Song Myung&quot;;fill:#000;stroke-width:.999997"/><path id="path18580" d="M598.946 480.596q.088.066.132.176.044.11.066.353l.154 1.83q.596-1.168 1.367-1.808.794-.661 1.61-.661.441 0 .904.264.463.265.595.904 0 .618-.374.993-.375.352-1.015.352-.75 0-1.41-.683l-.111-.11q-.485.44-.882.992-.375.53-.662 1.279v4.807q.022.507.508.595l.705.132q.507.11.507.507 0 .42-.551.42h-4.41q-.551 0-.551-.42 0-.396.507-.507l.44-.088q.486-.11.508-.573v-4.785q0-.353-.022-.617-.022-.177-.022-.331v-.33q-.044-.508-.53-.574l-.528-.066q-.508-.066-.508-.463 0-.375.441-.552l2.558-.992q.199-.088.375-.088.132 0 .199.044z" style="font-style:normal;font-variant:normal;font-weight:400;font-stretch:normal;font-size:30px;line-height:1.25;font-family:&quot;Song Myung&quot;;-inkscape-font-specification:&quot;Song Myung&quot;;fill:#000;stroke-width:.999997"/><path id="path18582" d="M609.902 480.486q1.146 0 2.094.44.949.42 1.61 1.17.684.727 1.036 1.72.375.97.375 2.094 0 1.147-.375 2.139-.352.97-1.014 1.698-.661.705-1.61 1.124-.948.397-2.116.397-1.169 0-2.117-.397-.948-.419-1.61-1.124-.661-.728-1.036-1.698-.353-.992-.353-2.139 0-1.125.353-2.117.375-.992 1.036-1.72.684-.727 1.61-1.146.948-.441 2.117-.441zm0 .992q-2.536 0-2.536 4.41 0 4.366 2.536 4.366 2.535 0 2.535-4.366 0-4.41-2.535-4.41z" style="font-style:normal;font-variant:normal;font-weight:400;font-stretch:normal;font-size:30px;line-height:1.25;font-family:&quot;Song Myung&quot;;-inkscape-font-specification:&quot;Song Myung&quot;;fill:#000;stroke-width:.999997"/><path id="path18584" d="M633.124 489.35q.022.463.507.573l.397.088q.485.089.485.507 0 .42-.551.42h-4.035q-.552 0-.552-.42 0-.396.507-.507l.463-.088q.486-.11.508-.573v-4.807q0-1.345-.397-1.896-.375-.552-1.147-.552-.617 0-1.279.375-.64.353-1.279.926.022.199.022.441.023.22.023.463v5.05q.022.463.507.573l.397.088q.485.089.485.507 0 .42-.552.42h-4.035q-.551 0-.551-.42 0-.396.507-.507l.441-.088q.485-.11.507-.573v-4.807q0-1.323-.375-1.874-.374-.574-1.146-.574-.64 0-1.279.353-.64.353-1.279.926v5.976q.022.463.507.573l.375.066q.485.11.485.53 0 .418-.551.418h-4.057q-.552 0-.552-.419 0-.396.508-.507l.463-.088q.485-.11.507-.573v-4.785q0-.353-.022-.617-.022-.177-.022-.331v-.331q-.044-.507-.53-.573l-.55-.066q-.508-.066-.508-.463 0-.375.441-.552l2.558-.992q.198-.088.397-.088.132 0 .176.044.177.11.199.507l.11 1.279q.772-.926 1.632-1.411.86-.485 1.896-.485 1.08 0 1.742.463.661.463.97 1.477.838-1.014 1.698-1.477.882-.463 2.006-.463 1.39 0 2.095.882.728.86.728 2.822z" style="font-style:normal;font-variant:normal;font-weight:400;font-stretch:normal;font-size:30px;line-height:1.25;font-family:&quot;Song Myung&quot;;-inkscape-font-specification:&quot;Song Myung&quot;;fill:#000;stroke-width:.999997"/><path id="path18586" d="M646.235 489.482q.242-.132.419-.132.176 0 .309.154.286.353-.045.706-.418.44-1.036.705-.595.243-1.433.243-1.213 0-1.918-.595-.684-.618-.684-1.919v-.507q0-.242.022-.463v-5.027q0-.552-.551-.552h-.463q-.551 0-.551-.529 0-.507.507-.573l.771-.088q.463-.066.552-.53l.397-1.984q.088-.485.595-.485h.617q.53 0 .53.551l-.045 1.852q0 .552.552.552h1.521q.551 0 .551.55v.133q0 .551-.55.551h-1.544q-.552 0-.552.552v5.578q0 .816.31 1.169.33.353.837.353.176 0 .397-.044.242-.067.485-.22z" style="font-style:normal;font-variant:normal;font-weight:400;font-stretch:normal;font-size:30px;line-height:1.25;font-family:&quot;Song Myung&quot;;-inkscape-font-specification:&quot;Song Myung&quot;;fill:#000;stroke-width:.999997"/><path id="path18588" d="M658.234 489.35q.022.463.507.573l.375.066q.485.11.485.53 0 .418-.551.418h-4.08q-.55 0-.55-.419 0-.396.506-.507l.463-.088q.486-.11.508-.573v-4.807q0-1.323-.331-1.874-.33-.574-1.169-.574-.683 0-1.323.331-.64.309-1.345 1.014v5.888q0 .507.485.595l.375.066q.485.11.485.53 0 .418-.551.418h-4.057q-.552 0-.552-.419 0-.397.508-.507l.44-.088q.486-.11.508-.573v-11.268q0-.507-.507-.573l-.662-.088q-.507-.066-.507-.463t.463-.53l2.889-.75q.11-.043.176-.043h.176q.155 0 .199.044.132.088.132.529l-.066 2.558v3.616q.86-.97 1.72-1.433.86-.463 1.94-.463 1.456 0 2.183.904.728.882.728 2.91z" style="font-style:normal;font-variant:normal;font-weight:400;font-stretch:normal;font-size:30px;line-height:1.25;font-family:&quot;Song Myung&quot;;-inkscape-font-specification:&quot;Song Myung&quot;;fill:#000;stroke-width:.999997"/><path id="path18590" d="M670.669 485.138q-.088.485-.618.485h-6.394q.044 2.007.97 3.021.926 1.015 2.403 1.015.86 0 1.456-.31.617-.33 1.124-.903.243-.265.463-.265.11 0 .199.066.33.22.088.662-.573 1.124-1.654 1.72-1.08.595-2.535.595-1.235 0-2.205-.419-.949-.419-1.61-1.147-.64-.75-.97-1.764-.331-1.014-.331-2.205 0-1.146.375-2.182.375-1.037 1.058-1.809.706-.793 1.676-1.234.992-.463 2.183-.463.992 0 1.786.33.816.331 1.39.926.572.574.881 1.39.309.815.309 1.808v.352q0 .155-.044.331zm-6.968-.529h3.307q.794 0 1.059-.33.286-.331.286-.927 0-.992-.573-1.654-.551-.661-1.389-.661-.684 0-1.19.353-.486.33-.817.86-.308.529-.485 1.168-.154.618-.198 1.191z" style="font-style:normal;font-variant:normal;font-weight:400;font-stretch:normal;font-size:30px;line-height:1.25;font-family:&quot;Song Myung&quot;;-inkscape-font-specification:&quot;Song Myung&quot;;fill:#000;stroke-width:.999997"/><path id="path18592" d="M681.189 489.35q.022.463.507.573l.375.066q.485.11.485.53 0 .418-.552.418h-4.057q-.551 0-.551-.419 0-.396.507-.507l.441-.088q.485-.11.507-.573v-4.697q0-.353-.022-.661-.022-.177-.022-.353v-.353q-.044-.507-.529-.573l-.53-.066q-.506-.066-.506-.463 0-.353.44-.53l2.867-1.036q.11-.044.199-.066.088-.022.176-.022.11 0 .176.066.155.132.155.53l-.066 2.513zm-1.191-10.893q-.706 0-1.169-.419-.44-.419-.44-1.102 0-.684.44-1.103.463-.419 1.169-.419.683 0 1.124.42.464.418.464 1.102 0 .683-.464 1.102-.44.42-1.124.42z" style="font-style:normal;font-variant:normal;font-weight:400;font-stretch:normal;font-size:30px;line-height:1.25;font-family:&quot;Song Myung&quot;;-inkscape-font-specification:&quot;Song Myung&quot;;fill:#000;stroke-width:.999997"/><path id="path18594" d="M694.175 489.35q.022.463.508.573l.374.066q.485.11.485.53 0 .418-.55.418h-4.058q-.551 0-.551-.419t.485-.507l.44-.088q.486-.11.508-.573v-4.807q0-1.323-.33-1.874-.31-.574-1.147-.574-.684 0-1.323.331-.618.33-1.323.992v5.932q.022.463.507.573l.397.088q.485.088.485.507 0 .42-.551.42h-4.102q-.55 0-.55-.42 0-.396.506-.507l.463-.088q.485-.11.507-.573v-4.785q0-.353-.022-.617-.022-.177-.022-.331v-.331q-.044-.507-.529-.573l-.53-.066q-.506-.066-.506-.463 0-.375.44-.552l2.558-.992q.199-.088.397-.088.133 0 .177.044.176.11.198.507l.11 1.301q.838-.97 1.698-1.433.86-.485 1.94-.485 1.456 0 2.184.904.727.882.727 2.91z" style="font-style:normal;font-variant:normal;font-weight:400;font-stretch:normal;font-size:30px;line-height:1.25;font-family:&quot;Song Myung&quot;;-inkscape-font-specification:&quot;Song Myung&quot;;fill:#000;stroke-width:.999997"/><path id="path18596" d="M700.302 480.596q.176.11.198.507l.066.86q.706-.75 1.456-1.102.771-.375 1.72-.375 1.102 0 1.874.485.772.463 1.257 1.235.507.75.727 1.697.243.949.243 1.897 0 1.014-.265 2.006-.264.97-.816 1.742-.55.772-1.389 1.257-.838.463-1.962.463-1.632 0-2.778-1.213v2.581l.044 1.477q0 .507.485.595l.771.154q.486.089.486.507 0 .42-.552.42h-4.454q-.551 0-.551-.42 0-.418.485-.529l.507-.11q.485-.11.485-.595.022-.706.022-1.478.022-.75.022-1.41v-6.682q0-.353-.022-.617-.022-.177-.022-.331v-.33q-.044-.508-.529-.574l-.53-.066q-.506-.066-.506-.463 0-.375.44-.552l2.537-.992q.198-.088.374-.088.089 0 .177.044zm.397 2.227v6.152q1.058.86 2.05.86 1.103 0 1.83-.948.75-.948.75-2.955 0-2.029-.661-3.02-.64-1.015-1.72-1.015-.992 0-2.25.926z" style="font-style:normal;font-variant:normal;font-weight:400;font-stretch:normal;font-size:30px;line-height:1.25;font-family:&quot;Song Myung&quot;;-inkscape-font-specification:&quot;Song Myung&quot;;fill:#000;stroke-width:.999997"/><path id="path18598" d="M719.315 489.328q0 .507.485.595l.353.066q.485.11.485.53 0 .418-.53.462l-2.359.155h-.044q-.485 0-.551-.507l-.132-1.28q-1.654 1.92-3.66 1.92-.64 0-1.17-.221-.529-.199-.903-.662-.375-.44-.574-1.146-.198-.728-.176-1.787l.044-4.873q0-.485-.507-.595l-.309-.066q-.485-.088-.485-.507 0-.397.53-.441l2.557-.22h.154q.067-.023.11-.023.155 0 .243.044.088.089.088.508l-.088 2.601v3.264q0 1.389.375 1.94.397.552 1.103.552.639 0 1.3-.353.684-.375 1.301-.97l.067-5.733q0-.486-.508-.596l-.308-.066q-.485-.088-.485-.485t.529-.441l2.513-.243h.155q.066-.022.11-.022.154 0 .243.045.044.044.066.154.044.11.044.353l-.066 2.602z" style="font-style:normal;font-variant:normal;font-weight:400;font-stretch:normal;font-size:30px;line-height:1.25;font-family:&quot;Song Myung&quot;;-inkscape-font-specification:&quot;Song Myung&quot;;fill:#000;stroke-width:.999997"/><path id="path18600" d="M727.415 489.482q.243-.132.419-.132t.309.154q.286.353-.044.706-.42.44-1.037.705-.595.243-1.433.243-1.213 0-1.918-.595-.684-.618-.684-1.919v-.507q0-.242.022-.463v-5.027q0-.552-.551-.552h-.463q-.551 0-.551-.529 0-.507.507-.573l.771-.088q.464-.066.552-.53l.397-1.984q.088-.485.595-.485h.617q.53 0 .53.551l-.045 1.852q0 .552.552.552h1.521q.551 0 .551.55v.133q0 .551-.55.551h-1.544q-.552 0-.552.552v5.578q0 .816.31 1.169.33.353.837.353.176 0 .397-.044.242-.067.485-.22z" style="font-style:normal;font-variant:normal;font-weight:400;font-stretch:normal;font-size:30px;line-height:1.25;font-family:&quot;Song Myung&quot;;-inkscape-font-specification:&quot;Song Myung&quot;;fill:#000;stroke-width:.999997"/></g></g><g id="ze_g" transform="translate(308.363 -7.353)"><path id="ze_path" d="M-33.636-17.956h-.711v-6.634h.71q.648 1.2 1.707 1.2 1.232 0 1.832-1.2.616-1.217.616-3.618 0-2.243-.98-3.254-.979-1.027-2.242-1.027-1.533 0-2.26 1.549-.363.805-1.01.805-.759 0-.759-.79 0-.869 1.248-1.564 1.248-.695 2.891-.695 2.622 0 4.076 1.722 1.469 1.722 1.469 4.17 0 2.101-1.248 3.476-1.232 1.358-3.017 1.358-1.39 0-2.322-.884zm-2.038 4.802q0-.695.49-1.184.505-.506 1.2-.506.71 0 1.2.506.506.49.506 1.184 0 .711-.505 1.201-.49.505-1.2.505-.712 0-1.201-.52-.49-.506-.49-1.186z" style="fill:#000"/></g><g id="g12653" transform="translate(322.113 -7.353)"><path id="path12649" d="M-33.636-17.956h-.711v-6.634h.71q.648 1.2 1.707 1.2 1.232 0 1.832-1.2.616-1.217.616-3.618 0-2.243-.98-3.254-.979-1.027-2.242-1.027-1.533 0-2.26 1.549-.363.805-1.01.805-.759 0-.759-.79 0-.869 1.248-1.564 1.248-.695 2.891-.695 2.622 0 4.076 1.722 1.469 1.722 1.469 4.17 0 2.101-1.248 3.476-1.232 1.358-3.017 1.358-1.39 0-2.322-.884zm-2.038 4.802q0-.695.49-1.184.505-.506 1.2-.506.71 0 1.2.506.506.49.506 1.184 0 .711-.505 1.201-.49.505-1.2.505-.712 0-1.201-.52-.49-.506-.49-1.186z" style="fill:#000"/></g></svg>