<svg xmlns="http://www.w3.org/2000/svg" width="400" height="200"><path d="M354.844 91.345c-3.155-2.6-7.37-3.287-11.306-3.734-4.672-.53-9.823 0-13.649 3.058-3.808 3.043-5.466 8.697-3.244 13.143 1.132 2.267 2.8 4.365 4.94 5.718 3.83 2.42 8.583 2.83 12.994 2.867 4.126.035 8.3-.787 12.19-2.201 3.435-1.25 6.842-3.916 7.4-7.727.537-3.681-2.047-7.058-5.048-8.911-3.287-2.03-7.011-3.325-10.811-3.972" style="fill:#e5f6ff;fill-opacity:1;stroke:#000;stroke-width:1;stroke-linecap:square;stroke-dasharray:none;stroke-opacity:1"/><path d="m295.968-154.007 2.758-2.905c1.092-.403 2.14-1.082 3.29-1.243 4.572-.663 11.07 3.224 14.718 6.301 1.13.954 2.153 2.107 3.215 3.173.934 1.185 1.93 2.274 2.766 3.552 2.97 4.499 4.76 10.176 3.67 15.972-.242 1.282-.752 2.455-1.125 3.695-.639 1.088-1.193 2.276-1.938 3.27-3.589 4.79-9.12 7.25-14.225 8.439-1.454.342-2.93.444-4.39.67-3.52-.104-5.043.102-8.442-1.095-3.702-1.31-7.173-3.953-9.66-7.545-.797-1.16-1.375-2.515-2.074-3.768-1.132-3.55-1.775-4.72-1.965-8.546-.194-4.144.731-8.424 2.652-11.863.602-1.088 1.417-1.99 2.118-2.969.863-.802 1.67-1.687 2.582-2.39 3.383-2.602 7.448-4.12 11.453-3.896" style="display:inline;fill:#e5f6ff;fill-opacity:1;stroke:#000;stroke-width:.9;stroke-linecap:butt;stroke-dasharray:none"/><path d="M51.502 354.721c-1.08.938-2.706.849-4.065.856-3.97.023-7.86-1.181-11.538-2.597-4.585-1.764-9.385-3.945-12.349-8.058-1.887-2.62-1.98-6.146-.755-9.062 1.501-3.579 4.02-6.647 6.742-9.36 4.192-4.18 9.022-7.778 14.306-10.46.203-.102.437-.126.653-.199" style="fill:#e5f6ff;fill-opacity:1;stroke:#000;stroke-width:1;stroke-linecap:square;stroke-dasharray:none;stroke-opacity:1"/><path d="M107.66 382.349c.185 1.737-2.57 2.472-4.012 2.926-8.42 2.65-17.428 2.776-26.096 2.087-9.854-.783-19.89-4.19-28.09-9.967-3.632-2.559-6.85-6.624-6.215-11.3.668-4.917 5.22-15.29 8.212-11.601 0 0 .05.042.059.072.015.05-.016.155-.016.155" style="fill:#e5f6ff;fill-opacity:1;stroke:#000;stroke-width:1;stroke-linecap:square;stroke-dasharray:none;stroke-opacity:1"/><path d="M149.47 385.272c1.656.284 1.39 3.05.573 4.227-1.539 2.218-4.21 3.256-6.696 3.917-7.913 2.104-18.477 1.43-25.965-1.6-3.603-1.458-5.404-2.694-8.412-5.194-1.289-1.07-2.452-3.28-1.31-4.273" style="fill:#e5f6ff;fill-opacity:1;stroke:#000;stroke-width:1;stroke-linecap:square;stroke-dasharray:none;stroke-opacity:1"/><path d="M192.42 377.658c1.54.768 2.53 2.638 2.6 4.32.1 2.458-2.737 4.882-4.903 6.494-4.55 3.388-12.762 4.855-19.376 5.168-5.056.24-10.5-.453-14.261-1.597-2.112-.641-4.305-2.136-6.17-3.886-.736-.691-1.175-1.847-.84-2.885" style="fill:#e5f6ff;fill-opacity:1;stroke:#000;stroke-width:1;stroke-linecap:square;stroke-dasharray:none;stroke-opacity:1"/><path d="M235.36 364.232c2.74 2.814 2.98 7.524 1.005 10.794-2.982 4.939-8.561 7.416-13.814 9.152-4.62 1.527-9.49 2.337-14.488 1.924-4.812-.398-9.229-1.397-12.93-4.158-1.35-1.008-2.557-2.55-2.712-4.286" style="fill:#e5f6ff;fill-opacity:1;stroke:#000;stroke-width:1;stroke-linecap:square;stroke-dasharray:none;stroke-opacity:1"/><path d="M266.372 301.494c4.234 1.273 8.754 2.053 13.02 3.448 8.3 2.714 17.132 5.828 23.067 12.53 4.085 4.613 4.064 11.315 2.13 16.936-4 11.626-13.157 20.709-23.616 26.668-8.377 4.774-17.564 8.522-27.15 9.703-4.086.503-8.262-.623-12.25-1.602-2.333-.572-6.776-2.653-6.213-4.945" style="fill:#e5f6ff;fill-opacity:1;stroke:#000;stroke-width:1;stroke-linecap:square;stroke-dasharray:none;stroke-opacity:1"/><path d="M222.077 283.86c-1.853-1.008-.242-3.594 1.196-4.506 3.768-2.389 8.368-2.836 12.697-2.787 7.68.088 15.406 1.673 22.408 4.853 4.925 2.236 9.739 5.3 12.849 9.85 1.2 1.755 1.33 4.09.112 5.875-1.263 1.853-3.248 2.99-4.967 4.35M78.79 83.425c-7.212-4.19.372-23.003 12.487-30.775 6.4-4.106 14.281-6.307 21.05-6.477 6.897-.174 13.867.367 20.374 2.892 2.531.837 5.033 2.5 6.146 4.513-1.133 1.464-3.471-1.4-4.23-2.445-2.234-3.078-1.046-7.133 1.132-9.937 2.938-3.782 7.453-6.454 12.25-7.498 7.316-1.594 14.921-.21 21.66 2.523 8.45 3.427 14.167 7.677 19.344 13.773.544.64 1.401 1.881 2.082 2.806l-.562.168c-1.357-3.033-.982-6.478 1.939-9.595 3.84-4.097 10.673-4.24 15.09-3.751 7.41.82 15.548 4.49 20.45 9.294 2.34 2.295 4.666 4.884 5.665 7.992.103.319.257 1.871-.427 1.156-1.872-1.116-.36-3.406.988-4.213 3.534-2.115 7.85-2.51 11.91-2.467 7.204.078 15.399 1.48 21.967 4.296 4.619 1.98 9.135 4.692 12.052 8.72 1.125 1.554 1.485 4.291.342 5.872-1.185 1.64-2.928 2.648-4.896 3.18l.112-.672c4.503.89 8.664 1.738 12.443 2.973 7.351 2.403 14.977 5.964 18.929 11.844 3.273 4.869 4.288 12.148 2.836 17.207-3.227 11.241-11.021 19.44-20.602 23.767-7.782 3.515-14.608 5.33-23.89 6.06-3.636.285-7.951-.393-11.484-1.26-2.066-.507-6.002-2.349-5.503-4.378 2.427 2.491 2.639 6.661.89 9.556-2.642 4.372-7.583 6.565-12.236 8.102-4.093 1.352-8.406 2.07-12.833 1.703-4.262-.352-8.174-1.236-11.452-3.68-1.197-.893-2.265-2.258-2.403-3.795 1.364.68 2.24 2.335 2.302 3.824.09 2.177-2.424 4.322-4.343 5.75-4.03 2.999-11.304 4.298-17.162 4.575-4.479.212-9.3-.402-12.633-1.414-1.87-.568-3.812-1.891-5.464-3.44-.653-.612-1.041-1.635-.744-2.554 1.466.25 1.23 2.7.507 3.742-1.363 1.963-3.73 2.883-5.931 3.468-7.01 1.862-16.366 1.265-22.999-1.417-3.191-1.29-4.786-2.385-7.451-4.598-1.141-.948-2.172-2.905-1.16-3.783.163 1.538-2.277 2.189-3.555 2.59-7.457 2.347-15.436 2.457-23.114 1.848-8.728-.693-18.725-3.552-24.88-8.665-3.028-2.515-5.317-5.985-5.338-10.163-.029-5.574 2.496-10.541 5.582-10.959.653-.088 1.453.312 1.566.85-.865.887-2.175.8-3.269.807-3.198.022-8.156-1.013-11.118-2.412-3.694-1.745-6.36-3.957-8.444-8.184-1.046-2.122-1.305-7.346-.32-10.23 1.21-3.538 2.717-6.572 5.306-9.256 3.709-3.846 7.82-7.065 11.681-9.014.173-.087.352-.126.526-.197" style="fill:#e5f6ff;fill-opacity:1;stroke:#000;stroke-width:1;stroke-linecap:square;stroke-dasharray:none;stroke-opacity:1"/><path d="M176.679 278.167c-1.224-3.783.563-7.897 3.55-10.368 3.796-3.14 9.012-3.745 13.72-3.192 7.9.928 15.819 3.809 21.675 9.3 2.625 2.46 4.975 5.39 6.04 8.9.11.36.4.661.413 1.053" style="fill:#e5f6ff;fill-opacity:1;stroke:#000;stroke-width:1;stroke-linecap:square;stroke-dasharray:none;stroke-opacity:1"/><path d="M120.478 279.046c-1.108 1.653-3.602-1.582-4.41-2.762-2.382-3.477-1.116-8.058 1.206-11.224 3.132-4.273 7.946-7.29 13.06-8.47 7.8-1.8 15.905.515 23.061 3.67 7.776 3.43 14.408 8.893 20.37 14.863.654.656 3.387 3.389 2.914 3.044" style="fill:#e5f6ff;fill-opacity:1;stroke:#000;stroke-width:1;stroke-linecap:square;stroke-dasharray:none;stroke-opacity:1"/><path d="M40.993 297.399c4.787-7.768 11.188-14.73 19.048-19.402 8.034-4.776 17.35-7.502 26.69-7.948 8.738-.416 17.584 1.047 25.835 3.899 2.823.975 6.588 1.808 7.742 4.677l.17.42M353.956 321.815c-3.453-2.847-8.067-3.6-12.374-4.09-5.114-.58-10.752.001-14.939 3.349-4.168 3.332-5.982 9.522-3.551 14.391 1.24 2.482 3.065 4.78 5.408 6.261 4.191 2.65 9.393 3.098 14.22 3.139 4.517.038 9.086-.862 13.342-2.41 3.76-1.368 7.49-4.288 8.1-8.46.588-4.031-2.24-7.729-5.525-9.758-3.598-2.223-7.673-3.64-11.832-4.349M60.606 506.788c-.983 1.06-2.46.96-3.696.968-3.61.025-7.78-1.336-11.124-2.936-4.17-1.995-8.534-4.082-11.229-8.73-1.717-2.962-1.295-7.327-.182-10.625 1.365-4.045 3.782-7.513 6.257-10.581 3.813-4.726 8.204-8.792 13.01-11.823.184-.117.397-.144.593-.226" style="fill:#e5f6ff;fill-opacity:1;stroke:#000;stroke-width:1;stroke-linecap:square;stroke-dasharray:none;stroke-opacity:1"/><path d="M116.754 534.516c.184 1.737-2.571 2.473-4.013 2.927-8.42 2.65-17.427 2.775-26.095 2.086-9.854-.783-19.89-4.19-28.09-9.966-3.633-2.56-6.002-6.581-6.026-11.301-.027-5.295 5.03-15.289 8.022-11.6 0 0 .05.042.06.072.014.05-.017.154-.017.154" style="fill:#e5f6ff;fill-opacity:1;stroke:#000;stroke-width:1;stroke-linecap:square;stroke-dasharray:none;stroke-opacity:1"/><path d="M158.564 537.44c1.656.283 1.389 3.05.572 4.227-1.538 2.217-4.21 3.256-6.696 3.917-7.913 2.103-18.477 1.429-25.964-1.601-3.603-1.458-5.404-2.694-8.413-5.194-1.288-1.07-2.452-3.28-1.309-4.273" style="fill:#e5f6ff;fill-opacity:1;stroke:#000;stroke-width:1;stroke-linecap:square;stroke-dasharray:none;stroke-opacity:1"/><path d="M201.514 529.825c1.54.768 2.53 2.638 2.6 4.32.1 2.459-2.738 4.882-4.904 6.495-4.55 3.387-12.762 4.854-19.375 5.168-5.056.24-10.5-.454-14.262-1.597-2.112-.642-4.304-2.137-6.17-3.887-.736-.691-1.175-1.847-.84-2.884" style="fill:#e5f6ff;fill-opacity:1;stroke:#000;stroke-width:1;stroke-linecap:square;stroke-dasharray:none;stroke-opacity:1"/><path d="M244.454 516.4c2.74 2.814 2.979 7.523 1.004 10.794-2.982 4.938-8.561 7.415-13.814 9.151-4.62 1.527-9.49 2.338-14.488 1.924-4.811-.398-9.228-1.397-12.93-4.158-1.35-1.008-2.556-2.55-2.712-4.286" style="fill:#e5f6ff;fill-opacity:1;stroke:#000;stroke-width:1;stroke-linecap:square;stroke-dasharray:none;stroke-opacity:1"/><path d="M275.242 452.903c5.083 1.004 9.781 1.963 14.047 3.358 8.3 2.714 16.195 6.32 22.263 13.378 4.017 4.673 4.065 11.315 2.13 16.936-4 11.627-13.156 20.71-23.616 26.669-8.376 4.773-17.564 8.522-27.15 9.702-4.086.503-8.261-.622-12.25-1.601-2.332-.573-6.775-2.653-6.212-4.945" style="fill:#e5f6ff;fill-opacity:1;stroke:#000;stroke-width:1;stroke-linecap:square;stroke-dasharray:none;stroke-opacity:1"/><path d="M230.16 436.027c-1.853-1.008-.242-3.594 1.196-4.505 3.768-2.39 8.368-2.837 12.697-2.787 7.68.087 16.416 1.672 23.418 4.852 4.925 2.236 9.74 5.3 12.85 9.85 1.198 1.756 1.583 4.847.364 6.634-1.263 1.852-3.122 2.99-5.22 3.59" style="fill:#e5f6ff;fill-opacity:1;stroke:#000;stroke-width:1;stroke-linecap:square;stroke-dasharray:none;stroke-opacity:1"/><path d="M184.762 430.524c-1.447-3.426-1.047-7.318 2.067-10.838 4.094-4.628 11.379-4.79 16.088-4.238 7.899.928 16.576 5.072 21.8 10.5 2.496 2.591 4.976 5.516 6.04 9.027.11.36.274 2.113-.313 1.558" style="fill:#e5f6ff;fill-opacity:1;stroke:#000;stroke-width:1;stroke-linecap:square;stroke-dasharray:none;stroke-opacity:1"/><path d="M129.571 431.213c-1.108 1.653-3.601-1.582-4.41-2.762-2.382-3.477-1.115-8.057 1.206-11.224 3.133-4.273 7.946-7.29 13.06-8.47 7.8-1.8 15.908-.238 23.093 2.85 9.008 3.871 15.102 8.672 20.622 15.558.58.723 1.493 2.125 2.22 3.17" style="fill:#e5f6ff;fill-opacity:1;stroke:#000;stroke-width:1;stroke-linecap:square;stroke-dasharray:none;stroke-opacity:1"/><path d="M53.302 464.927c-9.146-4.732.47-25.983 15.832-34.763 8.115-4.638 18.109-7.123 26.69-7.316 8.747-.196 17.585.416 25.836 3.267 2.822.975 6.587 1.808 7.742 4.677l.17.421M46.352 636.403c-9.146-4.732.47-25.983 15.832-34.763 8.115-4.638 18.109-7.123 26.69-7.316 8.746-.196 17.585.416 25.836 3.267 3.209.946 6.381 1.93 7.911 5.098-1.108 1.653-3.601-1.582-4.41-2.762-2.382-3.477-1.115-8.057 1.206-11.224 3.132-4.273 7.946-7.29 13.06-8.47 7.8-1.8 15.908-.238 23.093 2.85 9.008 3.872 15.102 8.672 20.622 15.558.58.723 1.493 2.125 2.22 3.17l-.6.189c-1.447-3.426-1.047-7.318 2.067-10.838 4.094-4.628 11.379-4.79 16.088-4.238 7.899.928 16.575 5.072 21.8 10.5 2.496 2.591 4.976 5.516 6.04 9.027.11.36.274 2.113-.455 1.305-1.995-1.26-.384-3.847 1.054-4.758 3.768-2.39 8.368-2.837 12.697-2.787 7.68.087 16.416 1.672 23.418 4.852 4.925 2.236 9.74 5.3 12.849 9.85 1.2 1.756 1.583 4.847.365 6.634-1.263 1.852-3.122 2.99-5.22 3.59l-.223-.758c5.083 1.004 9.781 1.963 14.047 3.358 8.3 2.714 16.909 6.737 21.37 13.378 3.695 5.5 4.842 13.723 3.202 19.437-3.643 12.698-12.442 21.96-23.259 26.847-8.786 3.97-16.492 6.021-26.971 6.845-4.105.322-8.976-.444-12.964-1.423-2.333-.573-6.777-2.653-6.213-4.945 2.74 2.814 2.979 7.524 1.004 10.794-2.982 4.938-8.561 7.415-13.814 9.151-4.62 1.527-9.49 2.338-14.488 1.924-4.812-.398-9.228-1.397-12.93-4.158-1.35-1.008-2.556-2.55-2.712-4.286 1.54.768 2.53 2.638 2.599 4.32.101 2.459-2.737 4.882-4.903 6.495-4.55 3.387-12.762 4.854-19.375 5.168-5.056.24-10.5-.454-14.262-1.597-2.112-.642-4.305-2.137-6.17-3.887-.736-.691-1.175-1.847-.84-2.884 1.657.283 1.39 3.05.573 4.227-1.539 2.218-4.21 3.256-6.696 3.917-7.913 2.103-18.477 1.429-25.964-1.6-3.603-1.459-5.404-2.695-8.413-5.195-1.288-1.07-2.452-3.28-1.31-4.273.185 1.737-2.57 2.473-4.012 2.927-8.42 2.65-17.427 2.775-26.095 2.086-9.854-.783-21.14-4.012-28.09-9.788-3.417-2.84-6.002-6.76-6.026-11.48-.032-6.295 2.818-11.906 6.302-12.378.737-.1 1.64.353 1.768.96-.977 1.002-2.455.903-3.69.912-3.611.024-9.209-1.144-12.553-2.725-4.17-1.971-7.18-4.47-9.532-9.244-1.18-2.396-1.474-8.298-.36-11.556 1.365-3.996 3.066-7.424 5.989-10.455 4.187-4.344 8.829-7.98 13.188-10.182.194-.098.397-.142.593-.223" style="fill:#e5f6ff;fill-opacity:1;stroke:#000;stroke-width:1;stroke-linecap:square;stroke-dasharray:none;stroke-opacity:1"/><path d="M-214.078-52.056h26.637v1.142h-26.637z" style="stroke-width:.01904" transform="scale(1 -1)"/><path d="M-211.107 32.236q1.066-1.543 2.913-1.543.914 0 1.828.495.913.496 1.485 1.752.704 1.58.704 4.341 0 2.951-.819 4.513-.38.8-1.047 1.275-.666.476-1.161.59-.495.115-.971.134-.495 0-.99-.114-.495-.115-1.162-.61-.666-.495-1.047-1.275-.819-1.562-.819-4.513 0-3.313 1.086-5.045zm4.284-.229q-.572-.61-1.352-.61-.8 0-1.371.61-.476.495-.628 1.371-.153.876-.153 3.656 0 3.008.153 3.96.152.952.685 1.504.533.571 1.314.571.761 0 1.294-.57.553-.572.686-1.6t.152-3.865q0-2.761-.152-3.637-.152-.876-.628-1.39zM-201.93 42.232q0-.457.324-.8.323-.343.818-.343.457 0 .8.305t.362.819q0 .476-.324.818-.324.343-.819.343-.495 0-.818-.324-.324-.323-.343-.818ZM-194.98 40.385q0 .457-.305.761-.305.305-.743.305h-.133q.876 1.504 2.323 1.504 1.333 0 1.942-1.142.362-.629.362-2.437 0-1.961-.514-2.647-.495-.628-1.105-.628h-.114q-1.485 0-2.247 1.295-.076.133-.133.152-.057.019-.286.038-.323 0-.361-.114-.038-.076-.038-3.332v-2.456q0-.952.095-.952.038-.039.076-.039.019 0 .4.153.38.152 1.047.304.666.153 1.428.153 1.352 0 2.59-.533.152-.077.247-.077.152 0 .152.343v.248q-1.561 1.847-3.903 1.847-.59 0-1.066-.115l-.19-.038v3.275l.57-.419q.21-.152.686-.304.476-.153.971-.153 1.542 0 2.609 1.238 1.066 1.237 1.066 2.932 0 1.752-1.219 2.99-1.218 1.237-2.97 1.256-1.542 0-2.475-1.028t-.933-2.323q0-.457.21-.724.209-.266.437-.342.229-.076.438-.076.476 0 .78.323.305.324.305.762zM-201.473 58.301l-.248.096q-.266.095-.761.19t-1.105.133h-.361v-.876h.361q.895-.038 1.657-.285.761-.248 1.066-.457.305-.21.533-.419.038-.057.229-.057.171 0 .323.114v5.693l.02 5.712q.133.133.228.171.095.039.457.077t1.18.038h.495v.876h-.21q-.399-.058-3.026-.058-2.59 0-2.99.058h-.228v-.876h1.218q.305 0 .476-.02.172-.018.305-.056.133-.039.152-.039.02 0 .115-.095t.114-.076zM-178.797 49.638q0-.247.267-.38h12.129q.285.152.285.38 0 .21-.266.362l-6.055.019h-6.055q-.305-.095-.305-.38zm0 3.694q0-.286.305-.38h12.11q.266.19.266.38 0 .248-.285.38h-12.129q-.267-.132-.267-.38zM-157.929 45.107q1.067-1.543 2.913-1.543.914 0 1.828.496.914.495 1.485 1.751.705 1.58.705 4.341 0 2.952-.819 4.513-.38.8-1.047 1.275-.666.476-1.162.59-.495.115-.97.134-.496 0-.99-.114-.496-.114-1.162-.61-.666-.495-1.047-1.275-.819-1.561-.819-4.513 0-3.313 1.085-5.045zm4.284-.229q-.57-.609-1.352-.609-.8 0-1.37.61-.476.494-.629 1.37-.152.876-.152 3.656 0 3.008.152 3.96.153.952.686 1.504.533.571 1.313.571.762 0 1.295-.57.552-.572.686-1.6.133-1.028.152-3.865 0-2.761-.152-3.637-.153-.876-.629-1.39zM-148.751 55.103q0-.457.323-.8.324-.343.819-.343.457 0 .8.305.342.305.361.819 0 .476-.323.818-.324.343-.819.343-.495 0-.819-.324-.323-.323-.342-.818ZM-141.802 53.256q0 .457-.304.761-.305.305-.743.305h-.133q.876 1.504 2.323 1.504 1.332 0 1.942-1.142.361-.628.361-2.437 0-1.961-.514-2.647-.495-.628-1.104-.628h-.114q-1.485 0-2.247 1.295-.076.133-.133.152-.057.019-.286.038-.324 0-.362-.114-.038-.076-.038-3.332v-2.456q0-.952.096-.952.038-.039.076-.039.019 0 .4.153.38.152 1.047.304.666.153 1.428.153 1.352 0 2.59-.533.151-.077.247-.077.152 0 .152.343v.248q-1.561 1.847-3.903 1.847-.59 0-1.066-.115l-.19-.038v3.275q.36-.266.57-.419.21-.152.686-.304.476-.153.97-.153 1.543 0 2.61 1.238 1.066 1.238 1.066 2.932 0 1.752-1.219 2.99-1.219 1.237-2.97 1.256-1.542 0-2.475-1.028t-.933-2.323q0-.457.21-.724.208-.266.437-.342.228-.076.438-.076.476 0 .78.323.305.324.305.762z"/><g style="stroke-width:1.0755"><path d="M89.73 106.246h67.145v21.425H89.73zM74.062 72.329h98.483v21.425H74.062z" style="fill:#fc0;stroke:#000;stroke-width:1.0755;stroke-linecap:square;stroke-dasharray:none" transform="matrix(.92992 0 0 .92968 30.3 6.552)"/><g style="stroke-width:1.14486"><path d="M140.114 40.873c.566-1.127 1.72-.067 1.285.889-.164.661.29 1.834-.565 2.031-3.112-.018-6.23.036-9.339-.028-1.118-1.234 1.541-.54 1.4-1.596.001-3.251.083-6.517-.046-9.761-.505-.331-2.63-.75-1.031-1.315 2.948.02 5.902-.04 8.847.03.542.501.225 1.419.359 2.107.484 1.001-.957 1.874-1.31.701-.237-.62.02-1.816-.904-1.818h-3.536c-.071 1.552-.028 3.107-.04 4.66.848-.063 1.752.135 2.56-.115.106-.682.622-2.515 1.3-1.145-.02 1.232.04 2.47-.03 3.699-1.296 1.13-.69-1.42-1.63-1.459h-2.2c.012 1.68-.032 3.36.04 5.04 1.412-.018 2.83.037 4.239-.029.56-.38.402-1.292.601-1.891zM128.314 40.793c.451-1.05 1.85-.243 1.405.766.132 1.044-.162 2.129-1.416 2.176-3.02.943-6.933.11-8.385-2.953-1.653-3.234-.578-7.934 2.971-9.383 2.045-.836 4.686-.936 6.535.384.166.823.122 1.691.1 2.529-.719.808-1.665-.081-1.53-.997.09-1.59-1.875-1.702-3.035-1.377-2.618.736-3.437 3.854-3.214 6.268.066 2.215 1.456 4.823 3.94 4.86 1.16.132 2.656-.208 2.524-1.631l.105-.642zM117.334 31.093c1.45.746-.714.99-1.171 1.395-.084 3.737.024 7.486-.054 11.224-.678.847-1.401-.587-1.837-1.087l-6.798-8.832c.02 2.87-.04 5.747.03 8.614.427.771 1.892-.046 2.09.946-.26.793-1.392.304-2.055.44-.902-.058-1.854.126-2.72-.11-.665-1.348 1.76-.394 1.595-1.574-.02-3.213.04-6.43-.03-9.641-.373-.363-2.492-.703-1.05-1.375.941.043 1.903-.09 2.83.075 1.31 1.426 2.387 3.077 3.604 4.593l3.306 4.332c-.02-2.53.039-5.066-.029-7.594-.42-.774-1.901.026-2.09-.966.26-.793 1.392-.304 2.054-.44h2.325zM102.454 42.413c.311.506 2.435.697 1 1.38-1.552-.018-3.11.036-4.659-.028-1.188-1.214 1.707-.548 1.205-1.67l-.826-2.342h-4.14c-.259.942-.835 1.853-.86 2.82.764.025 2.41.966.813 1.22-1.17-.064-2.394.134-3.528-.11-.595-1.332 1.781-.457 1.762-1.682 1.318-3.557 2.565-7.146 3.928-10.683.812-.726 1.534.252 1.645 1.052l3.66 10.043zm-7.08-3.64h3.48l-1.7-4.9-1.78 4.9zM89.254 32.573c-.236-.772-1.236-.352-1.848-.46-.535-.008-1.22-.17-.992.61-.035 3.176-.03 6.354 0 9.53.094 1.032 1.719.119 1.86 1.1-.194.755-1.217.327-1.808.44-1.33-.018-2.664.036-3.99-.028-.896-.865.69-.964 1.3-1.047.562-.614.126-1.634.298-2.405-.009-2.733.027-5.467-.04-8.2-.88.061-1.813-.132-2.655.115-.398.67-.17 1.58-.57 2.25-.885.508-1.385-.368-1.15-1.17.082-.692-.092-1.454.205-2.09.858-.262 1.821-.063 2.724-.125 2.62.02 5.244-.041 7.859.031.542.422.24 1.25.352 1.863-.043.579.335 1.712-.62 1.606-.893.091-.694-1.005-.857-1.58l-.068-.44zM74.194 36.113c1.79.653 4.015 1.45 4.378 3.588.414 2.054-1.327 3.892-3.273 4.208-1.73.395-3.638.143-5.185-.721-.359-.71-.067-1.575-.12-2.355.187-.906 1.76-.559 1.578.389 0 1.092.688 2.068 1.932 1.846 1.544.268 3.453-.892 2.98-2.64-.535-1.586-2.466-1.624-3.737-2.334-1.51-.673-2.917-2.069-2.707-3.852.049-2.168 2.306-3.48 4.284-3.446 1.224-.013 2.599.222 3.53 1.052.108.743-.014 1.524-.079 2.275-.543.64-1.658.176-1.536-.704.012-.999-.623-1.817-1.745-1.606-1.437-.127-2.87 1.205-2.364 2.684.247.93 1.275 1.278 2.064 1.616zM68.474 31.533c-.18.952-2.14.116-1.685 1.575a491.05 491.05 0 0 0 .005 9.165c.031.98 2.176.14 1.555 1.41-.986.234-2.056.053-3.078.11-.793-.056-1.635.123-2.392-.11-.63-1.275 1.518-.42 1.555-1.41.03-3.22.03-6.44 0-9.66-.046-.979-2.172-.143-1.555-1.41.986-.234 2.057-.053 3.078-.11.793.056 1.635-.123 2.392.11l.094.137zM49.314 31.533c.194-.755 1.217-.327 1.808-.44 1.988.07 4.009-.19 5.962.259 2.633.607 4.294 3.27 4.228 5.882.174 2.73-1.536 5.551-4.267 6.237-2.113.54-4.312.247-6.47.322-.843.35-1.937-.75-.608-.94.797.114 1.192-.53 1.027-1.258.037-2.993.023-5.988 0-8.982-.054-.997-1.6-.133-1.68-1.08zm4.06 11.28c1.496.06 3.195-.005 4.191-1.308 1.491-1.903 1.5-4.642.768-6.852-.62-1.753-2.487-2.79-4.302-2.58-1.114-.298-.583 1.127-.697 1.83.019 2.97-.042 5.941.04 8.91z" style="font-size:20px;font-family:&quot;Song Myung&quot;;-inkscape-font-specification:&quot;Song Myung&quot;;text-align:center;text-anchor:middle;stroke-width:1.14486;stroke-linecap:square" transform="matrix(.874 0 0 .87296 61.384 51.074)"/></g><g style="stroke-width:1.14486"><path d="M111.655 57.056c.312-.819 1.526-.287 2.244-.44 2.67.084 5.723-.476 7.87 1.521 3.081 2.903 2.384 9.08-1.77 10.643-2.407.875-5.009.424-7.516.536-1.553.012-.412-1.28.575-1.054.574-.739.136-1.908.297-2.814-.027-2.504.064-5.021-.065-7.517-.283-.682-1.569.005-1.635-.875zm4.06 11.28c1.64.093 3.527-.076 4.46-1.66 1.27-2.11 1.293-4.964.181-7.145-.894-1.718-2.89-2.059-4.64-1.935a299.706 299.706 0 0 0 0 10.74zM109.015 66.396c.636-1.175 1.722.024 1.281.99-.137.672.3 2.044-.793 1.93-3.035-.018-6.074.037-9.106-.027-1.121-1.242 1.557-.523 1.398-1.609.003-3.248.085-6.51-.045-9.749-.514-.306-2.634-.77-1.018-1.315 2.944.02 5.894-.04 8.835.03.558.563.22 1.556.367 2.308.505 1.149-1.428 1.503-1.363.26-.08-.809-.262-1.884-1.337-1.578h-3.059c-.07 1.553-.028 3.107-.04 4.66.849-.06 1.752.13 2.56-.115.029-.758.82-2.57 1.3-1.029-.068 1.24.145 2.542-.12 3.74-1.431.714-.445-1.77-1.656-1.616-.656.077-1.62-.154-2.084.116.012 1.642-.031 3.284.04 4.924 1.413-.019 2.83.038 4.24-.029.558-.359.403-1.312.6-1.89zM97.475 66.396c.636-1.175 1.722.024 1.281.99-.137.672.3 2.044-.793 1.93-3.035-.018-6.074.037-9.106-.027-1.121-1.242 1.557-.523 1.398-1.609.003-3.248.085-6.51-.045-9.749-.514-.306-2.634-.77-1.018-1.315 2.944.02 5.894-.04 8.835.03.558.563.22 1.556.367 2.308.505 1.149-1.428 1.503-1.363.26-.08-.809-.262-1.884-1.337-1.578h-3.059c-.07 1.553-.028 3.107-.04 4.66.849-.06 1.752.13 2.56-.115.029-.758.82-2.57 1.3-1.029-.068 1.24.145 2.542-.12 3.74-1.431.714-.445-1.77-1.656-1.616-.656.077-1.62-.154-2.084.116.012 1.642-.031 3.284.04 4.924 1.413-.019 2.83.038 4.24-.029.558-.359.403-1.312.6-1.89zM81.595 64.356c-.881-.147-.286 1.182-.46 1.743.063.85-.36 2.4.963 2.242 1.429.002.59 1.418-.476.975-1.408-.018-2.82.037-4.225-.027-1.121-1.242 1.557-.523 1.398-1.609.003-3.248.085-6.51-.045-9.749-.514-.306-2.634-.77-1.018-1.315 2.43.1 4.926-.283 7.293.41 2.856.737 3.298 5.143.68 6.455-1.235.726-2.707.851-4.11.875zm.44-6.76c-1.345-.398-.796 1.188-.9 2.034v3.746c1.558.133 3.557-.236 3.93-2.032.627-2.032-.84-4.024-3.03-3.748zM71.355 61.636c1.842.663 4.164 1.529 4.402 3.773.369 2.742-2.633 4.422-5.046 4.204-1.346-.145-3.951-.202-3.593-2.094-.013-.728-.103-1.938.997-1.663 1.008.266.405 1.734 1.06 2.36 1.564.849 4.55.432 4.52-1.82-.161-2.1-2.741-2.04-4.139-2.962-2.199-.856-3.215-3.891-1.526-5.698 1.764-1.83 5.026-1.874 6.985-.365-.005.807.206 1.89-.328 2.515-1.093.388-1.345-.738-1.404-1.572-.571-1.891-4.3-.917-4.068 1.102-.101 1.277 1.147 1.843 2.14 2.22z" style="font-size:20px;font-family:&quot;Song Myung&quot;;-inkscape-font-specification:&quot;Song Myung&quot;;text-align:center;text-anchor:middle;stroke-width:1.14486;stroke-linecap:square" transform="matrix(.874 0 0 .87296 61.6 60.556)"/></g><g style="stroke-width:1.14486"><path d="M192.014 38.91h62.349v22.817h-62.349z" style="fill:#fc0;stroke:#000;stroke-width:1.14484;stroke-linecap:square;stroke-dasharray:none" transform="matrix(.874 0 0 .87296 60.145 55.484)"/><path d="M209.215 45.444c-.278-.798-1.348-.336-2.005-.46-.822-.232-.935.269-.848.976.017 3.127-.076 6.265.058 9.384.362.659 2.239-.01 1.69 1.21-1.126.239-2.34.05-3.501.11-.772-.058-1.594.125-2.33-.11-.556-1.23 1.331-.533 1.698-1.225.108-3.441.059-6.899.018-10.345-.88.061-1.814-.132-2.655.115-.4.67-.17 1.58-.57 2.25-.951.537-1.375-.451-1.147-1.264.081-.66-.094-1.392.202-1.996.983-.268 2.076-.059 3.105-.125 2.492.02 4.99-.042 7.477.031.56.473.235 1.365.358 2.031.15.741.007 1.748-.984 1.41-.553-.39-.375-1.378-.566-1.992zm8.42-1.04c-.315.899-2.265.226-1.691 1.819.009 3.04-.068 6.09.048 9.126.439.382 2.578.585 1.143 1.315-1.646-.018-3.296.036-4.939-.027-1.079-1.188 1.358-.588 1.399-1.493.03-3.22.03-6.44 0-9.66-.049-.889-2.467-.314-1.399-1.492a97.037 97.037 0 0 1 5.158 0c.184.038.295.234.28.412zm17.44 0c-.314.89-2.243.237-1.671 1.819.013 3.046-.077 6.103.056 9.141.441.353 2.542.588 1.115 1.3-1.612-.018-3.23.037-4.839-.027-1.138-1.26 1.7-.487 1.328-1.722.024-2.637.005-5.274.01-7.911-1.446 3.22-2.892 6.44-4.34 9.66-.756.256-.91-.422-1.141-.98l-3.938-8.72c.02 2.774-.039 5.554.029 8.325.358.543 2.385.29 1.39 1.348a56.864 56.864 0 0 1-3.938 0c-1.003-1.097 1.102-.777 1.47-1.348.067-3.251.01-6.51.029-9.765.007-.92-2.475-.327-1.379-1.532 1.116-.063 2.24-.011 3.359-.028l4.42 9.64c1.45-3.138 2.836-6.31 4.325-9.426.712-.422 1.64-.125 2.449-.214.418.063 1.25-.22 1.266.44zm10.36 9.34c.532-1.102 1.716-.11 1.287.84-.083.649.069 1.362-.202 1.96-1.017.259-2.138.055-3.198.12-2.168-.018-4.34.037-6.506-.027-1.08-1.188 1.358-.588 1.399-1.493.03-3.22.03-6.44 0-9.66-.049-.889-2.467-.314-1.399-1.492 2.983-.064 5.973-.01 8.959-.028.839.175.407 1.307.561 1.944.22.797-.115 1.866-1.106 1.326-.477-.642-.12-1.726-.789-2.222-1.278-.063-2.565-.01-3.846-.028-.07 1.552-.029 3.107-.04 4.66.848-.06 1.751.131 2.56-.115.116-.682.622-2.515 1.3-1.145-.02 1.232.039 2.47-.03 3.699-1.15 1.027-.84-1.037-1.416-1.43-.801-.064-1.61-.012-2.414-.029.012 1.68-.032 3.361.04 5.04 1.412-.02 2.83.038 4.239-.029.559-.381.403-1.292.6-1.891z" aria-label="TIME" style="font-size:20px;font-family:&quot;Song Myung&quot;;-inkscape-font-specification:&quot;Song Myung&quot;;text-align:center;text-anchor:middle;stroke-width:1.14486;stroke-linecap:square" transform="matrix(.874 0 0 .87296 60.145 55.484)"/></g><path d="M70.268-101.509h106.07v1.064H70.268z" style="stroke:none;stroke-width:0;stroke-dasharray:none;stroke-opacity:1" transform="matrix(.92992 0 0 -.92968 30.3 6.552)"/><path d="M205.468 98.72q0-.23.247-.353h11.236q.265.141.265.352 0 .194-.247.335l-5.61.018h-5.609q-.282-.088-.282-.353zm0 3.417q0-.264.282-.352h11.219q.247.176.247.352 0 .23-.265.353h-11.236q-.247-.124-.247-.353z"/></g><path d="M55.36 76.652h71.442v22.817H55.36zM38.689 40.531h104.784v22.817H38.689z" style="fill:#fc0;stroke:#000;stroke-width:1;stroke-linecap:square;stroke-dasharray:none" transform="translate(428.612 30)"/><path d="M140.114 40.873c.566-1.127 1.72-.067 1.285.889-.164.661.29 1.834-.565 2.031-3.112-.018-6.23.036-9.339-.028-1.118-1.234 1.541-.54 1.4-1.596.001-3.251.083-6.517-.046-9.761-.505-.331-2.63-.75-1.031-1.315 2.948.02 5.902-.04 8.847.03.542.501.225 1.419.359 2.107.484 1.001-.957 1.874-1.31.701-.237-.62.02-1.816-.904-1.818h-3.536c-.071 1.552-.028 3.107-.04 4.66.848-.063 1.752.135 2.56-.115.106-.682.622-2.515 1.3-1.145-.02 1.232.04 2.47-.03 3.699-1.296 1.13-.69-1.42-1.63-1.459h-2.2c.012 1.68-.032 3.36.04 5.04 1.412-.018 2.83.037 4.239-.029.56-.38.402-1.292.601-1.891zM128.314 40.793c.451-1.05 1.85-.243 1.405.766.132 1.044-.162 2.129-1.416 2.176-3.02.943-6.933.11-8.385-2.953-1.653-3.234-.578-7.934 2.971-9.383 2.045-.836 4.686-.936 6.535.384.166.823.122 1.691.1 2.529-.719.808-1.665-.081-1.53-.997.09-1.59-1.875-1.702-3.035-1.377-2.618.736-3.437 3.854-3.214 6.268.066 2.215 1.456 4.823 3.94 4.86 1.16.132 2.656-.208 2.524-1.631l.105-.642zM117.334 31.093c1.45.746-.714.99-1.171 1.395-.084 3.737.024 7.486-.054 11.224-.678.847-1.401-.587-1.837-1.087l-6.798-8.832c.02 2.87-.04 5.747.03 8.614.427.771 1.892-.046 2.09.946-.26.793-1.392.304-2.055.44-.902-.058-1.854.126-2.72-.11-.665-1.348 1.76-.394 1.595-1.574-.02-3.213.04-6.43-.03-9.641-.373-.363-2.492-.703-1.05-1.375.941.043 1.903-.09 2.83.075 1.31 1.426 2.387 3.077 3.604 4.593l3.306 4.332c-.02-2.53.039-5.066-.029-7.594-.42-.774-1.901.026-2.09-.966.26-.793 1.392-.304 2.054-.44h2.325zM102.454 42.413c.311.506 2.435.697 1 1.38-1.552-.018-3.11.036-4.659-.028-1.188-1.214 1.707-.548 1.205-1.67l-.826-2.342h-4.14c-.259.942-.835 1.853-.86 2.82.764.025 2.41.966.813 1.22-1.17-.064-2.394.134-3.528-.11-.595-1.332 1.781-.457 1.762-1.682 1.318-3.557 2.565-7.146 3.928-10.683.812-.726 1.534.252 1.645 1.052l3.66 10.043zm-7.08-3.64h3.48l-1.7-4.9-1.78 4.9zM89.254 32.573c-.236-.772-1.236-.352-1.848-.46-.535-.008-1.22-.17-.992.61-.035 3.176-.03 6.354 0 9.53.094 1.032 1.719.119 1.86 1.1-.194.755-1.217.327-1.808.44-1.33-.018-2.664.036-3.99-.028-.896-.865.69-.964 1.3-1.047.562-.614.126-1.634.298-2.405-.009-2.733.027-5.467-.04-8.2-.88.061-1.813-.132-2.655.115-.398.67-.17 1.58-.57 2.25-.885.508-1.385-.368-1.15-1.17.082-.692-.092-1.454.205-2.09.858-.262 1.821-.063 2.724-.125 2.62.02 5.244-.041 7.859.031.542.422.24 1.25.352 1.863-.043.579.335 1.712-.62 1.606-.893.091-.694-1.005-.857-1.58l-.068-.44zM74.194 36.113c1.79.653 4.015 1.45 4.378 3.588.414 2.054-1.327 3.892-3.273 4.208-1.73.395-3.638.143-5.185-.721-.359-.71-.067-1.575-.12-2.355.187-.906 1.76-.559 1.578.389 0 1.092.688 2.068 1.932 1.846 1.544.268 3.453-.892 2.98-2.64-.535-1.586-2.466-1.624-3.737-2.334-1.51-.673-2.917-2.069-2.707-3.852.049-2.168 2.306-3.48 4.284-3.446 1.224-.013 2.599.222 3.53 1.052.108.743-.014 1.524-.079 2.275-.543.64-1.658.176-1.536-.704.012-.999-.623-1.817-1.745-1.606-1.437-.127-2.87 1.205-2.364 2.684.247.93 1.275 1.278 2.064 1.616zM68.474 31.533c-.18.952-2.14.116-1.685 1.575a491.05 491.05 0 0 0 .005 9.165c.031.98 2.176.14 1.555 1.41-.986.234-2.056.053-3.078.11-.793-.056-1.635.123-2.392-.11-.63-1.275 1.518-.42 1.555-1.41.03-3.22.03-6.44 0-9.66-.046-.979-2.172-.143-1.555-1.41.986-.234 2.057-.053 3.078-.11.793.056 1.635-.123 2.392.11l.094.137zM49.314 31.533c.194-.755 1.217-.327 1.808-.44 1.988.07 4.009-.19 5.962.259 2.633.607 4.294 3.27 4.228 5.882.174 2.73-1.536 5.551-4.267 6.237-2.113.54-4.312.247-6.47.322-.843.35-1.937-.75-.608-.94.797.114 1.192-.53 1.027-1.258.037-2.993.023-5.988 0-8.982-.054-.997-1.6-.133-1.68-1.08zm4.06 11.28c1.496.06 3.195-.005 4.191-1.308 1.491-1.903 1.5-4.642.768-6.852-.62-1.753-2.487-2.79-4.302-2.58-1.114-.298-.583 1.127-.697 1.83.019 2.97-.042 5.941.04 8.91z" style="font-size:20px;font-family:&quot;Song Myung&quot;;-inkscape-font-specification:&quot;Song Myung&quot;;text-align:center;text-anchor:middle;stroke-linecap:square" transform="translate(424.065 44.503)"/><path d="M111.655 57.056c.312-.819 1.526-.287 2.244-.44 2.67.084 5.723-.476 7.87 1.521 3.081 2.903 2.384 9.08-1.77 10.643-2.407.875-5.009.424-7.516.536-1.553.012-.412-1.28.575-1.054.574-.739.136-1.908.297-2.814-.027-2.504.064-5.021-.065-7.517-.283-.682-1.569.005-1.635-.875zm4.06 11.28c1.64.093 3.527-.076 4.46-1.66 1.27-2.11 1.293-4.964.181-7.145-.894-1.718-2.89-2.059-4.64-1.935a299.706 299.706 0 0 0 0 10.74zM109.015 66.396c.636-1.175 1.722.024 1.281.99-.137.672.3 2.044-.793 1.93-3.035-.018-6.074.037-9.106-.027-1.121-1.242 1.557-.523 1.398-1.609.003-3.248.085-6.51-.045-9.749-.514-.306-2.634-.77-1.018-1.315 2.944.02 5.894-.04 8.835.03.558.563.22 1.556.367 2.308.505 1.149-1.428 1.503-1.363.26-.08-.809-.262-1.884-1.337-1.578h-3.059c-.07 1.553-.028 3.107-.04 4.66.849-.06 1.752.13 2.56-.115.029-.758.82-2.57 1.3-1.029-.068 1.24.145 2.542-.12 3.74-1.431.714-.445-1.77-1.656-1.616-.656.077-1.62-.154-2.084.116.012 1.642-.031 3.284.04 4.924 1.413-.019 2.83.038 4.24-.029.558-.359.403-1.312.6-1.89zM97.475 66.396c.636-1.175 1.722.024 1.281.99-.137.672.3 2.044-.793 1.93-3.035-.018-6.074.037-9.106-.027-1.121-1.242 1.557-.523 1.398-1.609.003-3.248.085-6.51-.045-9.749-.514-.306-2.634-.77-1.018-1.315 2.944.02 5.894-.04 8.835.03.558.563.22 1.556.367 2.308.505 1.149-1.428 1.503-1.363.26-.08-.809-.262-1.884-1.337-1.578h-3.059c-.07 1.553-.028 3.107-.04 4.66.849-.06 1.752.13 2.56-.115.029-.758.82-2.57 1.3-1.029-.068 1.24.145 2.542-.12 3.74-1.431.714-.445-1.77-1.656-1.616-.656.077-1.62-.154-2.084.116.012 1.642-.031 3.284.04 4.924 1.413-.019 2.83.038 4.24-.029.558-.359.403-1.312.6-1.89zM81.595 64.356c-.881-.147-.286 1.182-.46 1.743.063.85-.36 2.4.963 2.242 1.429.002.59 1.418-.476.975-1.408-.018-2.82.037-4.225-.027-1.121-1.242 1.557-.523 1.398-1.609.003-3.248.085-6.51-.045-9.749-.514-.306-2.634-.77-1.018-1.315 2.43.1 4.926-.283 7.293.41 2.856.737 3.298 5.143.68 6.455-1.235.726-2.707.851-4.11.875zm.44-6.76c-1.345-.398-.796 1.188-.9 2.034v3.746c1.558.133 3.557-.236 3.93-2.032.627-2.032-.84-4.024-3.03-3.748zM71.355 61.636c1.842.663 4.164 1.529 4.402 3.773.369 2.742-2.633 4.422-5.046 4.204-1.346-.145-3.951-.202-3.593-2.094-.013-.728-.103-1.938.997-1.663 1.008.266.405 1.734 1.06 2.36 1.564.849 4.55.432 4.52-1.82-.161-2.1-2.741-2.04-4.139-2.962-2.199-.856-3.215-3.891-1.526-5.698 1.764-1.83 5.026-1.874 6.985-.365-.005.807.206 1.89-.328 2.515-1.093.388-1.345-.738-1.404-1.572-.571-1.891-4.3-.917-4.068 1.102-.101 1.277 1.147 1.843 2.14 2.22z" style="font-size:20px;font-family:&quot;Song Myung&quot;;-inkscape-font-specification:&quot;Song Myung&quot;;text-align:center;text-anchor:middle;stroke-linecap:square" transform="translate(424.313 55.365)"/><path d="M192.014 38.91h62.349v22.817h-62.349z" style="fill:#fc0;stroke:#000;stroke-width:.999997;stroke-linecap:square;stroke-dasharray:none" transform="translate(419.988 49.555)"/><path d="M209.215 45.444c-.278-.798-1.348-.336-2.005-.46-.822-.232-.935.269-.848.976.017 3.127-.076 6.265.058 9.384.362.659 2.239-.01 1.69 1.21-1.126.239-2.34.05-3.501.11-.772-.058-1.594.125-2.33-.11-.556-1.23 1.331-.533 1.698-1.225.108-3.441.059-6.899.018-10.345-.88.061-1.814-.132-2.655.115-.4.67-.17 1.58-.57 2.25-.951.537-1.375-.451-1.147-1.264.081-.66-.094-1.392.202-1.996.983-.268 2.076-.059 3.105-.125 2.492.02 4.99-.042 7.477.031.56.473.235 1.365.358 2.031.15.741.007 1.748-.984 1.41-.553-.39-.375-1.378-.566-1.992zm8.42-1.04c-.315.899-2.265.226-1.691 1.819.009 3.04-.068 6.09.048 9.126.439.382 2.578.585 1.143 1.315-1.646-.018-3.296.036-4.939-.027-1.079-1.188 1.358-.588 1.399-1.493.03-3.22.03-6.44 0-9.66-.049-.889-2.467-.314-1.399-1.492a97.037 97.037 0 0 1 5.158 0c.184.038.295.234.28.412zm17.44 0c-.314.89-2.243.237-1.671 1.819.013 3.046-.077 6.103.056 9.141.441.353 2.542.588 1.115 1.3-1.612-.018-3.23.037-4.839-.027-1.138-1.26 1.7-.487 1.328-1.722.024-2.637.005-5.274.01-7.911-1.446 3.22-2.892 6.44-4.34 9.66-.756.256-.91-.422-1.141-.98l-3.938-8.72c.02 2.774-.039 5.554.029 8.325.358.543 2.385.29 1.39 1.348a56.864 56.864 0 0 1-3.938 0c-1.003-1.097 1.102-.777 1.47-1.348.067-3.251.01-6.51.029-9.765.007-.92-2.475-.327-1.379-1.532 1.116-.063 2.24-.011 3.359-.028l4.42 9.64c1.45-3.138 2.836-6.31 4.325-9.426.712-.422 1.64-.125 2.449-.214.418.063 1.25-.22 1.266.44zm10.36 9.34c.532-1.102 1.716-.11 1.287.84-.083.649.069 1.362-.202 1.96-1.017.259-2.138.055-3.198.12-2.168-.018-4.34.037-6.506-.027-1.08-1.188 1.358-.588 1.399-1.493.03-3.22.03-6.44 0-9.66-.049-.889-2.467-.314-1.399-1.492 2.983-.064 5.973-.01 8.959-.028.839.175.407 1.307.561 1.944.22.797-.115 1.866-1.106 1.326-.477-.642-.12-1.726-.789-2.222-1.278-.063-2.565-.01-3.846-.028-.07 1.552-.029 3.107-.04 4.66.848-.06 1.751.131 2.56-.115.116-.682.622-2.515 1.3-1.145-.02 1.232.039 2.47-.03 3.699-1.15 1.027-.84-1.037-1.416-1.43-.801-.064-1.61-.012-2.414-.029.012 1.68-.032 3.361.04 5.04 1.412-.02 2.83.038 4.239-.029.559-.381.403-1.292.6-1.891z" aria-label="TIME" style="font-size:20px;font-family:&quot;Song Myung&quot;;-inkscape-font-specification:&quot;Song Myung&quot;;text-align:center;text-anchor:middle;stroke-linecap:square" transform="translate(419.988 49.555)"/><path d="M34.653-71.607H147.51v1.133H34.653z" style="stroke:none;stroke-width:0;stroke-dasharray:none;stroke-opacity:1" transform="matrix(1 0 0 -1 428.612 30)"/><path d="M588.163 99.193q0-.247.266-.38h12.129q.285.152.285.38 0 .21-.266.362l-6.055.02h-6.055q-.304-.096-.304-.382zm0 3.694q0-.285.304-.38h12.11q.266.19.266.38 0 .248-.285.381h-12.129q-.266-.133-.266-.38z"/></svg>