<svg xmlns="http://www.w3.org/2000/svg" xmlns:xlink="http://www.w3.org/1999/xlink" width="186.776" height="43.071" aria-hidden="true" viewBox="0 -18.033 186.776 43.071"><defs><path id="a" stroke-width="1" d="m304-161-12-16C134-87 48 82 48 252c0 185 87 329 247 424l9-16C165 541 134 448 134 255c0-186 30-299 170-416Z"/><path id="b" stroke-width="1" d="m305 288 45 69c26 40 61 84 111 84 32 0 49-12 49-33 0-19-13-42-39-42-22 0-27 9-44 9-30 0-41-16-55-38l-55-85c30-62 53-197 98-197 16 0 40 14 61 57l14-10C478 87 433-9 375-9c-41 0-60 41-73 77l-40 113-63-98C167 34 138-9 82-9 46-9 30 16 30 38c0 16 13 37 38 37 26 0 22-20 47-20 12 0 38 10 70 59l65 101-33 92c-17 48-43 89-98 89-13 0-28-2-38-6l-3 18 132 33c44-24 63-65 75-98z"/><path id="c" stroke-width="1" d="M856 258v-10c-96-41-172-115-238-191l-20 19c23 33 52 65 82 96 9 9 14 20 14 28 0 10-8 20-26 20H70v66h599c10 0 26 12 26 22 0 9-4 15-14 25-29 28-60 63-82 96l20 19c65-75 141-150 237-190Z"/><path id="d" stroke-width="1" d="m61 510-16 4c29 95 92 162 196 162 93 0 156-55 156-137 0-48-26-98-93-138 44-19 62-31 83-53 28-31 44-77 44-129 0-53-17-102-46-140-48-64-143-93-232-93C80-14 41 7 41 43c0 21 18 36 41 36 17 0 33-6 61-26 37-26 58-31 86-31 74 0 130 68 130 153 0 76-35 125-104 145-22 7-45 10-102 10v14c38 13 64 24 84 36 49 28 81 73 81 134 0 68-42 102-108 102-62 0-108-32-149-106z"/><path id="e" stroke-width="1" d="m29 660 12 16c153-92 244-259 244-429 0-185-88-327-247-424l-9 16C171-44 199 50 199 244c0 187-25 302-170 416Z"/><path id="f" stroke-width="1" d="m446 684 2-16c-157-26-269-134-296-285 49 38 83 45 127 45 117 0 189-80 189-209 0-64-18-120-51-160-37-46-93-73-159-73-79 0-142 37-177 101-28 51-47 122-47 192 0 108 38 203 109 276 86 90 165 114 303 129zm-68-496c0 128-42 194-135 194-57 0-116-24-116-116 0-152 48-252 142-252 72 0 109 72 109 174z"/><path id="g" stroke-width="1" d="M637 320H48v66h589zm0-200H48v66h589z"/><path id="h" stroke-width="1" d="M474 137 420 0H29v12l178 189c94 99 130 175 130 260 0 91-54 141-139 141-72 0-107-32-147-130l-21 5c21 117 85 199 208 199 113 0 185-77 185-176 0-79-39-154-128-248L130 76h234c42 0 63 11 96 67z"/><path id="i" stroke-width="1" d="M394 0H118v15c74 4 95 25 95 80v449c0 34-9 49-30 49-10 0-27-5-45-12l-27-10v14l179 91 9-3V76c0-43 20-61 95-61z"/></defs><rect width="11.89" height="14.102" x="5.578" y="-11.753" ry="4.36" style="fill:#faa;stroke:none;stroke-width:.600001;stroke-linejoin:round;stroke-miterlimit:2"/><rect width="11.89" height="14.102" x="75.534" y="-11.753" ry="4.36" style="fill:#faa;stroke:none;stroke-width:.600001;stroke-linejoin:round;stroke-miterlimit:2"/><path d="M9.633 1.993c.329 3.174-2.186 6.488-.38 9.48 1.971 2.51 4.514 5.34 8.038 5.012 2.987.17 6.577-.248 8.829 2.147 1.951 2.456 5.187 2.024 7.95 1.99 5.522.214 10.14-3.6 15.602-3.809 3.768-.778 7.178 1.365 10.122 3.421.76.659 4.471.615 6.58.485 3.612.006 6.782-2 9.375-4.325 1.844-1.104-1.862 1.058.564-.287 3.007-1.358 7.025.612 9.397-2.23 1.775-2.648 1.46-6.283-.265-8.883-1.432-1.311.103-4.723-2.534-3.7l-2.908.276c-.305 2.76 1.367 5.117 2.352 7.543.526 1.363-1.495 3.125.593 1.661-1.856.681-4.709-.045-6.88.79-2.422.51-4.155 2.4-6.106 3.756 2.183-1.272-2.304 1.513-3.346.93-1.724.041-4.7.179-4.488.12-3.612-2.617-7.97-4.845-12.571-4.014-4.506.139-8.477 2.395-12.72 3.584-1.923.494-5.238-.018-6.359.398-2.078-1.738-4.25-3.78-7.158-3.896-2.383-.488-4.832-.293-7.23-.514-2.434-1.352-3.673-3.588-2.326-6.213-.048-1.328 1.496-4.813-.902-4.027l-3.23.305z" style="fill:#faa;stroke:none;stroke-width:.6;stroke-linejoin:round;stroke-miterlimit:2"/><g transform="scale(.01904 -.01904)"><use xlink:href="#a"/><use xlink:href="#b" x="333"/><use xlink:href="#c" x="1161"/><g transform="translate(2366)"><use xlink:href="#b"/><use xlink:href="#d" x="778" y="583" transform="scale(.707)"/></g><use xlink:href="#e" x="3370"/><use xlink:href="#a" x="3703"/><use xlink:href="#f" x="4037"/><use xlink:href="#e" x="4537"/><use xlink:href="#g" x="5149"/><g transform="translate(6112)"><use xlink:href="#f"/><use xlink:href="#d" x="707" y="583" transform="scale(.707)"/></g><use xlink:href="#g" x="7344"/><g transform="translate(8307)"><use xlink:href="#h"/><use xlink:href="#i" x="500"/><use xlink:href="#f" x="1001"/></g></g></svg>