<svg xmlns="http://www.w3.org/2000/svg" xmlns:xlink="http://www.w3.org/1999/xlink" id="svg61879" width="450" height="250" preserveAspectRatio="none" version="1.1" viewBox="-10 -45 450 250"><style id="style61793" type="text/css">.grid{stroke:#9e9ed1;stroke-width:.4}.axes{stroke:#000;stroke-width:.9}.axes-arrows{stroke-width:1.2100000000000002;stroke:#000;fill:none;stroke-linecap:round;stroke-linejoin:round}</style><defs id="defs61801"><path id="STIXWEBNORMALI-1D465" stroke-width="1" d="m305 288 45 69c26 40 61 84 111 84 32 0 49-12 49-33 0-19-13-42-39-42-22 0-27 9-44 9-30 0-41-16-55-38l-55-85c30-62 53-197 98-197 16 0 40 14 61 57l14-10C478 87 433-9 375-9c-41 0-60 41-73 77l-40 113-63-98C167 34 138-9 82-9 46-9 30 16 30 38c0 16 13 37 38 37 26 0 22-20 47-20 12 0 38 10 70 59l65 101-33 92c-17 48-43 89-98 89-13 0-28-2-38-6l-3 18 132 33c44-24 63-65 75-98z"/><path id="STIXWEBMAIN-2192" stroke-width="1" d="M856 258v-10c-96-41-172-115-238-191l-20 19c23 33 52 65 82 96 9 9 14 20 14 28 0 10-8 20-26 20H70v66h599c10 0 26 12 26 22 0 9-4 15-14 25-29 28-60 63-82 96l20 19c65-75 141-150 237-190Z"/><path id="STIXWEBMAIN-2026" stroke-width="1" d="M888 43c0-29-26-54-56-54-31 0-55 24-55 55s25 56 56 56c29 0 55-27 55-57zm-333 0c0-29-26-54-56-54-31 0-55 24-55 55s25 56 56 56c29 0 55-27 55-57zm-333 0c0-29-26-54-56-54-31 0-55 24-55 55s25 56 56 56c29 0 55-27 55-57z"/><path id="STIXWEBMAIN-30" stroke-width="1" d="M476 330c0-172-63-344-226-344C79-14 24 172 24 336c0 177 69 340 230 340 131 0 222-141 222-346Zm-96-5c0 208-44 325-132 325-83 0-128-118-128-321S164 12 250 12c85 0 130 115 130 313z"/><path id="STIXWEBMAIN-34" stroke-width="1" d="M473 167H370V0h-78v167H12v64l314 445h44V231h103Zm-181 64v343L52 231Z"/><path id="STIXWEBMAIN-38" stroke-width="1" d="M445 155c0-103-77-169-197-169C135-14 56 55 56 149c0 69 23 108 130 183C83 417 62 455 62 520c0 96 83 156 194 156 99 0 168-65 168-143 0-75-35-109-134-162 123-82 155-136 155-216Zm-90 378c0 69-41 115-109 115-67 0-110-37-110-99s37-108 125-160c68 40 94 82 94 144zm-84-261-59 40c-59-48-80-89-80-154 0-92 51-144 127-144 65 0 110 45 110 110 0 62-30 102-98 148z"/></defs><g id="g168656"><g id="grid-2" transform="translate(17.686 -21.415)"><path id="path68667" d="M32 216V0" class="grid" style="stroke:#9e9ed1;stroke-width:.4"/><path id="path68669" d="M72 216V0" class="grid" style="stroke:#9e9ed1;stroke-width:.4"/><path id="path68671" d="M112 216V0" class="grid" style="stroke:#9e9ed1;stroke-width:.4"/><path id="path68673" d="M152 216V0" class="grid" style="stroke:#9e9ed1;stroke-width:.4"/><path id="path68675" d="M192 198.247V0" class="grid" style="stroke:#9e9ed1;stroke-width:.4"/><path id="path68677" d="M232 216V0" class="grid" style="stroke:#9e9ed1;stroke-width:.4"/><path id="path68679" d="M272 216V0" class="grid" style="stroke:#9e9ed1;stroke-width:.4"/><path id="path68681" d="M312 216V0" class="grid" style="stroke:#9e9ed1;stroke-width:.4"/><path id="path68683" d="M352 198.247V0" class="grid" style="stroke:#9e9ed1;stroke-width:.4"/><path id="path68685" d="M0 188h380" class="grid" style="stroke:#9e9ed1;stroke-width:.4"/><path id="path68687" d="M0 148h380" class="grid" style="stroke:#9e9ed1;stroke-width:.4"/><path id="path68689" d="M0 108h380" class="grid" style="stroke:#9e9ed1;stroke-width:.4"/><path id="path68691" d="M0 68h380" class="grid" style="stroke:#9e9ed1;stroke-width:.4"/><path id="path68693" d="M0 28h11.68m12.942 0H380" class="grid" style="stroke:#9e9ed1;stroke-width:.4"/></g><g id="axes-2" transform="translate(17.686 -21.415)"><path id="path68696" d="M0 188h390.657" class="axes" style="stroke:#000;stroke-width:.9"/><path id="path68698" d="M32 216V-9.837" class="axes" style="stroke:#000;stroke-width:.9"/></g><g id="axes arrows-0" transform="translate(17.686 -21.415)"><path id="path68701" d="M385.247 180.786c0 2.886 4.058 7.214 5.41 7.214-1.352 0-5.41 4.328-5.41 7.214" class="axes-arrows" style="fill:none;stroke:#000;stroke-width:1.21;stroke-linecap:round;stroke-linejoin:round"/><path id="path68703" d="M24.786-4.427c2.886 0 7.214-4.058 7.214-5.41 0 1.352 4.328 5.41 7.214 5.41" class="axes-arrows" style="fill:none;stroke:#000;stroke-width:1.21;stroke-linecap:round;stroke-linejoin:round"/></g><g id="notch labels-2" style="fill:#b8b8de;stroke:none" transform="translate(17.686 -21.415)"><g id="g68721" transform="matrix(.01808 0 0 -.01808 15.266 213.128)"><use xlink:href="#STIXWEBMAIN-30" id="use68719" x="0" y="0"/></g><g id="g68725" transform="matrix(.01808 0 0 -.01808 187.475 213.128)"><use xlink:href="#STIXWEBMAIN-34" id="use68723" x="0" y="0"/></g><g id="g68729" transform="matrix(.01808 0 0 -.01808 347.475 213.128)"><use xlink:href="#STIXWEBMAIN-38" id="use68727" x="0" y="0"/></g><g id="g68733" transform="matrix(.01808 0 0 -.01808 13.626 34.107)"><use xlink:href="#STIXWEBMAIN-34" id="use68731" x="0" y="0"/></g></g></g><g id="layer5"><path id="path103556-1" d="m397.622 18.194-43.786 115.118c-.584 1.557-1.632 4.244-2.695 6.547-1.671 3.62-4.034 7.982-6.132 10.665-4.97 6.356-11.238 7.682-17.293 4.051-4.477-2.685-8.775-8.206-13.385-16.12a220.3 220.3 0 0 1-2.193-3.899l-51.98-98.007c-2.362-4.298-5.141-8.518-8.243-11.145-2.47-2.092-5.6-3.742-9.86-3.57-3.567.145-7.678 2.027-11.195 5.215-2.582 2.34-5.026 5.304-8.178 9.484l-79.675 113.592s-1.38 1.772-2.245 2.938c-4.614 6.228-7.955 2.973-9.993 1.048-1.175-1.11-3.994-4.205-3.994-4.205L17.622 30.718" style="fill:none;stroke:red;stroke-width:1.3;stroke-dasharray:none"/></g><g id="layer3" style="display:inline"><g id="g168436"><path id="path145720" d="M375.627 48.355c-2.2-.884-4.307-2.057-6.518-2.924-3.421-1.682-6.833-3.382-10.32-4.93-5.321-2.363-10.743-5.012-15.947-7.63" style="fill:#000;stroke:#000;stroke-width:1;stroke-dasharray:none;stroke-opacity:1"/><path id="path146557" d="M367.537 50.643c2.263-.34 4.83-.618 7.22-.742.89-.046 1.732-.066 2.62-.002.506-.138-.25-.71-.327-1.014-.844-1.38-1.821-3.113-2.716-4.738a29.48 29.48 0 0 1-1.47-3.085" style="fill:none;stroke:#000;stroke-width:1;stroke-dasharray:none;stroke-opacity:1"/><path id="path156127" d="M370.82 60.029c-2.2-.885-4.306-2.057-6.517-2.924-3.422-1.682-6.834-3.382-10.321-4.93-5.321-2.363-10.743-5.013-15.947-7.63" style="fill:#000;stroke:#000;stroke-width:1;stroke-dasharray:none;stroke-opacity:1"/><path id="path156129" d="M362.73 62.316c2.263-.339 4.83-.618 7.22-.741.89-.046 1.733-.066 2.62-.003.506-.138-.25-.71-.327-1.013-.843-1.381-1.82-3.113-2.716-4.739a29.48 29.48 0 0 1-1.47-3.085" style="fill:none;stroke:#000;stroke-width:1;stroke-dasharray:none;stroke-opacity:1"/><path id="path156131" d="M381.463 37.368c-2.2-.884-4.306-2.056-6.517-2.924-3.422-1.682-6.833-3.381-10.32-4.93-5.322-2.363-10.744-5.012-15.947-7.63" style="fill:#000;stroke:#000;stroke-width:1;stroke-dasharray:none;stroke-opacity:1"/><path id="path156133" d="M373.374 39.656c2.263-.34 4.829-.618 7.219-.742.891-.046 1.733-.066 2.621-.002.505-.138-.25-.71-.327-1.013-.844-1.382-1.821-3.114-2.716-4.74a29.48 29.48 0 0 1-1.47-3.084" style="fill:none;stroke:#000;stroke-width:1;stroke-dasharray:none;stroke-opacity:1"/></g></g></svg>