<svg xmlns="http://www.w3.org/2000/svg" xmlns:xlink="http://www.w3.org/1999/xlink" id="svg22" width="387.198" height="387.198" preserveAspectRatio="none" version="1.1" viewBox="-10 -17.198 387.198 387.198"><style id="style1" type="text/css">.grid{stroke:#9e9ed1;stroke-width:.4}.axes{stroke:#000;stroke-width:.9}.axes-arrows{stroke-width:1.1;stroke:#000;fill:none;stroke-linecap:round;stroke-linejoin:round}</style><defs id="defs1"><path id="MJMAIN-30" stroke-width="1" d="M96 585q56 81 153 81 48 0 96-26t78-92q37-83 37-228 0-155-43-237-20-42-55-67t-61-31-51-7q-26 0-52 6t-61 32-55 67q-43 82-43 237 0 174 57 265Zm225 12q-30 32-71 32-42 0-72-32-25-26-33-72t-8-192q0-158 8-208t36-79q28-30 69-30 40 0 68 30 29 30 36 84t8 203q0 145-8 191t-33 73Z"/><path id="MJMAIN-35" stroke-width="1" d="M164 157q0-24-16-40t-39-16h-7q46-79 122-79 70 0 102 60 19 33 19 128 0 103-27 139-26 33-58 33h-6q-78 0-118-68-4-7-7-8t-15-2q-17 0-19 6-2 4-2 175v129q0 50 5 50 2 2 4 2 1 0 21-8t55-16 75-8q71 0 136 28 8 4 13 4 8 0 8-18v-13q-82-97-205-97-31 0-56 6l-10 2V374q19 14 30 22t36 16 51 8q81 0 137-65t56-154q0-92-64-157T229-22q-81 0-130 54T50 154q0 24 11 38t23 18 23 4q25 0 41-17t16-40Z"/></defs><g id="grid"><path id="path1" d="M22.5 360V0" class="grid"/><path id="path2" d="M67.5 360V0" class="grid"/><path id="path3" d="M112.5 360V0" class="grid"/><path id="path4" d="M157.5 360V0" class="grid"/><path id="path5" d="M202.5 360V0" class="grid"/><path id="path6" d="M247.5 360V0" class="grid"/><path id="path7" d="M292.5 360v-42.755m0-17.773V0" class="grid"/><path id="path8" d="M337.5 360V0" class="grid"/><path id="path9" d="M0 337.5h360" class="grid"/><path id="path10" d="M0 292.5h360" class="grid"/><path id="path11" d="M0 247.5h360" class="grid"/><path id="path12" d="M0 202.5h360" class="grid"/><path id="path13" d="M0 157.5h360" class="grid"/><path id="path14" d="M0 112.5h360" class="grid"/><path id="path15" d="M0 67.5h45.956m13.803 0H360" class="grid"/><path id="path16" d="M0 22.5h360" class="grid"/></g><g id="axes"><path id="path17" d="M0 292.5h360" class="axes"/><path id="path18" d="M67.5 360V0" class="axes"/></g><g id="axes arrows"><path id="path19" d="M429.826 288.501c0 1.6 2.249 3.999 2.999 3.999-.75 0-3 2.4-3 3.999" class="axes-arrows"/><path id="path20" d="M63.501-32.042c1.6 0 3.999-2.25 3.999-3 0 .75 2.4 3 3.999 3" class="axes-arrows"/></g><g id="notch labels" style="stroke:none;fill:#b8b8de"><g id="g20" style="stroke-width:.735294" transform="matrix(.01768 0 0 -.01768 51.99 314.06)"><use xlink:href="#MJMAIN-30" id="use20" x="0" y="0" style="stroke-width:.735294" transform="translate(-149.794)"/></g><g id="g21" style="stroke-width:.735294" transform="matrix(.01768 0 0 -.01768 288.08 314.06)"><use xlink:href="#MJMAIN-35" id="use21" x="0" y="0" style="stroke-width:.735294"/></g><g id="g22" style="stroke-width:.735294" transform="matrix(.01768 0 0 -.01768 49.59 73.399)"><use xlink:href="#MJMAIN-35" id="use22" x="0" y="0" style="stroke-width:.735294" transform="translate(-29.004)"/></g></g><g id="layer3"><circle id="path23" cx="157.3" cy="112.5" r="45" style="fill:none;stroke:#000;stroke-width:.8;stroke-dasharray:4.8,1.6;stroke-dashoffset:0"/><g id="g26" transform="translate(287.015)"><path id="path26" d="M157.5 112.5v-45" style="fill:red;stroke:#000;stroke-width:.8;stroke-dasharray:none;stroke-dashoffset:0"/><circle id="circle26" cx="157.3" cy="67.5" r="6.462" style="fill:#f0f;stroke:none;stroke-width:.8;stroke-dasharray:none;stroke-dashoffset:0"/></g><circle id="circle4" cx="140.817" cy="-27.33" r="7.812" style="display:inline;fill:#e5e500;fill-opacity:1;stroke:none;stroke-width:1.8;stroke-miterlimit:2;stroke-dasharray:none"/><circle id="circle10520" cx="-58.653" cy="129.493" r="12.605" style="display:inline;fill:#00b900;fill-opacity:1;stroke:none;stroke-width:1.8;stroke-miterlimit:2;stroke-dasharray:none" transform="rotate(-2)"/><g id="g34" transform="rotate(50.9 157.5 112.5)"><path id="path30" d="m137.07 152.595 40.86-80.19" style="fill:#00b900;fill-opacity:1;stroke:#000;stroke-width:.8;stroke-dasharray:4.8,1.6;stroke-dashoffset:2.24"/><circle id="path25" cx="191.207" cy="-16.265" r="6.462" style="fill:#f0f;stroke:none;stroke-width:.8;stroke-dasharray:none;stroke-dashoffset:0" transform="rotate(27)"/><path id="path27" d="m197.595 132.93-80.19-40.86" style="fill:red;stroke:#000;stroke-width:.8;stroke-dasharray:4.8,1.6;stroke-dashoffset:2.24"/><circle id="circle27" cx="28.535" cy="-236.407" r="6.462" style="fill:#e3e300;fill-opacity:1;stroke:none;stroke-width:.8;stroke-dasharray:none;stroke-dashoffset:0" transform="rotate(117)"/><circle id="circle29" cx="-28.935" cy="146.408" r="6.462" style="fill:#1a1aff;fill-opacity:1;stroke:none;stroke-width:.8;stroke-dasharray:none;stroke-dashoffset:0" transform="rotate(-63)"/><circle id="circle30" cx="-191.607" cy="-73.735" r="6.462" style="fill:#00b900;fill-opacity:1;stroke:none;stroke-width:.8;stroke-dasharray:none;stroke-dashoffset:0" transform="rotate(-153)"/><g id="g31" style="stroke-width:.60143" transform="matrix(1.48148 .75485 -.75485 1.48148 9.088 -173.056)"><path id="path31" d="M156.775 119.78h-6.556v-6.555m0-1.45v-6.556h6.556" style="fill:none;stroke:#000;stroke-width:.481144;stroke-dashoffset:2.24"/><path id="rect30" d="M158.225 105.22h6.556v6.555m0 1.45v6.556h-6.556" style="fill:none;stroke:#000;stroke-width:.481144;stroke-dashoffset:2.24"/></g></g><g id="g33" transform="translate(-191.204)"><path id="path32" d="M156.775 119.78h-6.556v-6.555m0-1.45v-6.556h6.556" style="fill:none;stroke:#000;stroke-width:.8;stroke-dashoffset:2.24"/><path id="path33" d="M158.225 105.22h6.556v6.555m0 1.45v6.556h-6.556" style="fill:none;stroke:#000;stroke-width:.8;stroke-dashoffset:2.24"/></g><g id="g39" transform="translate(0 -308.304)"><path id="path34" d="m137.07 152.595 40.86-80.19" style="fill:#00b900;fill-opacity:1;stroke:#000;stroke-width:.8;stroke-dasharray:4.8,1.6;stroke-dashoffset:2.24"/><circle id="circle34" cx="191.207" cy="-16.265" r="6.462" style="fill:#f0f;stroke:none;stroke-width:.8;stroke-dasharray:none;stroke-dashoffset:0" transform="rotate(27)"/><path id="path35" d="m197.595 132.93-80.19-40.86" style="fill:red;stroke:#000;stroke-width:.8;stroke-dasharray:4.8,1.6;stroke-dashoffset:2.24"/><circle id="circle35" cx="28.535" cy="-236.407" r="6.462" style="fill:#e3e300;fill-opacity:1;stroke:none;stroke-width:.8;stroke-dasharray:none;stroke-dashoffset:0" transform="rotate(117)"/><circle id="circle36" cx="-28.935" cy="146.408" r="6.462" style="fill:#1a1aff;fill-opacity:1;stroke:none;stroke-width:.8;stroke-dasharray:none;stroke-dashoffset:0" transform="rotate(-63)"/><circle id="circle37" cx="-191.607" cy="-73.735" r="6.462" style="fill:#00b900;fill-opacity:1;stroke:none;stroke-width:.8;stroke-dasharray:none;stroke-dashoffset:0" transform="rotate(-153)"/><g id="g38" style="stroke-width:.60143" transform="matrix(1.48148 .75485 -.75485 1.48148 9.088 -173.056)"><path id="path37" d="M156.775 119.78h-6.556v-6.555m0-1.45v-6.556h6.556" style="fill:none;stroke:#000;stroke-width:.481144;stroke-dashoffset:2.24"/><path id="path38" d="M158.225 105.22h6.556v6.555m0 1.45v6.556h-6.556" style="fill:none;stroke:#000;stroke-width:.481144;stroke-dashoffset:2.24"/></g></g></g></svg>