<svg xmlns="http://www.w3.org/2000/svg" width="800" height="800"><path d="M138.734 480.07c-1.508 14.148 3.974 27.958 12.401 38.732 10.377 13.268 28.873 22.759 49.51 25.012 10.785 1.178 24.6.703 35.03-2.618 12.431-3.958 22.883-12.576 29.012-23.275 4.61-8.046 6.512-17.839 7.525-27.165.177-1.626-.188-4.507-1.846-5.404-4.216 2.819-1.522 19.756 4.436 28.473 12.1 17.701 28.02 27.752 45.83 33.064 23.347 6.965 49.057 5.597 72.048-3.208 11.977-4.587 24.09-16.924 27.073-30.752 1.778-8.243-2.943-16.952-4.18-15.389.124 15.286 14.663 29.057 33.844 35.646 12.751 4.38 28.37 3.96 40.965-.331 10.184-3.47 17.297-9.777 23.324-17.313 6.881-8.604 10.764-19.619 11.64-29.806.621-7.21-.522-15.248-5.385-19.847-2.841-2.593-5.721-4.365-6.303-2.166 5.684 2.816 9.79 4.678 17.07 4.791 12.737.197 26.488-2.206 36.42-10.516 9.852-8.243 18.686-21.949 19.736-37.832 1.314-19.883-2.135-44.555-12.748-68.7-8.418-19.152-19.054-33.574-32.57-44.907-6.692-5.611-18.725-11.05-27.87-10.861-11.07.228-21.593 5.386-27.888 12.63 7.736-4.577 9.58-11.91 9.58-20.205 0-13.274-5.251-22.747-14.64-32.153-9.216-9.232-31.41-17.026-44.105-19.461-28.415-5.45-54.36-4.197-76.732 4.616-10.5 4.137-21.277 9.75-29.044 18.213-4.643 5.06-8.21 13.848-5.976 15.146 3.027 1.246 1.493-4.761 1.158-6.274-3.224-14.584-17.062-27.28-33.635-32.985-28.003-9.639-77.08-5.502-108.267 11.539-15.109 8.255-26.899 17.698-33.224 29.793-2.496 4.773-4.744 14.49-.464 20.876 1.41 2.103 2.16-1.407 2.412-1.449-3.302-1.586-9.014-2.114-14.384-1.937-6.417.212-16.886 2.49-24.916 6.802-17.256 9.266-28.182 24.64-37.055 40.9-14.338 26.27-19.69 56.417-16.185 85.74 2.213 18.51 7.237 36.024 21.501 49.586 9.038 8.594 18.681 12.508 30.099 12.961 11.574.46 22.768-.836 29.99-7.295" style="fill:#e5f6ff;fill-opacity:1;stroke:#000;stroke-width:.999998;stroke-miterlimit:2;stroke-dasharray:none"/><path d="M644.692 417.482c6.483 2.063 13.826 1.36 20.113-1.04 16.193-6.183 24.897-29.256 17.229-45.023-5.459-11-16.16-19.546-28.332-21.7-8.264-1.073-17.062.533-23.873 5.52-13.338 8.99-19.164 27.32-13.692 42.405 3.526 10.637 12.74 19.664 24.085 21.225a29.4 29.4 0 0 0 9.44.117" style="fill:#e5f6ff;fill-opacity:1;stroke:#000;stroke-width:.899999;stroke-miterlimit:2;stroke-dasharray:none"/><ellipse cx="108.79" cy="408.229" rx="28.38" ry="28.062" style="fill:#fff6d8;fill-opacity:1;stroke:none;stroke-width:.999998;stroke-dasharray:none;stroke-opacity:1"/><ellipse cx="212.377" cy="331.058" rx="28.38" ry="28.062" style="fill:#fff6d8;fill-opacity:1;stroke:none;stroke-width:.999998;stroke-dasharray:none;stroke-opacity:1"/><path d="M455.351 413.915c-.565-.195-1.154-.335-1.652-.713-1.083-.6-2.033-1.577-2.542-2.82-.384-.943-.366-2.243.405-2.937.39-.394 1.025-.17 1.23.342.335.787.019 1.692-.309 2.411-.595 1.176-1.51 2.164-2.592 2.763-1.104.538-2.388.92-3.57.484-.952-.354-1.67-1.491-1.472-2.63.262-1.462 1.334-2.614 2.387-3.407 1.284-.911 2.693-1.627 4.224-1.799.108.008.213.04.322.04M457.1 413.777c-.018-.324-.018-.65-.03-.944-.105-2.184-.19-4.367-.239-6.55-.04-1.77-.166-3.57-.209-5.37-.019-.737-.011-1.475-.03-2.242-.011-.532-.049-1.062-.06-1.593-.019-.885-.03-.826-.089-1.564" style="display:inline;fill:none;stroke:#000;stroke-width:.6;stroke-miterlimit:2;stroke-dasharray:none"/><path d="M451.745 402.075c2.703-.068 6.044-.189 7.836-.298.91-.055 1.5-.105 2.173-.03M478.238 412.804c.061-.417.026-.909.023-1.33a311.989 311.989 0 0 0-.092-5.647c-.11-4.209-.224-8.457-.121-12.658" style="display:inline;fill:none;stroke:#000;stroke-width:.6;stroke-miterlimit:2;stroke-dasharray:none"/><path d="M484.744 398.476c-4.31.337-8.618.779-12.882 1.253M481.973 401.605c.107.07.228.085.319.173.09.088.174.176.247.315.351.664-.1 1.374-.707 1.674a1.12 1.12 0 0 1-.496.104c-.145 0-.284 0-.424-.07-.71-.38.177-1.395.637-1.534M482.429 413.33c.019-.3-.076-.856-.097-1.06-.094-.873-.198-1.362-.269-2.309-.082-1.097-.215-2.217-.268-3.33 0-.12-.061-.473-.115-.64M500.14 413.368c0-.17-.012-.152.055-.558.236-1.384.537-3.132.077-4.546a2.99 2.99 0 0 0-.495-.931c-.216-.27-.5-.507-.798-.634-1.795-.767-3.875.86-4.907 2.124a6.594 6.594 0 0 0-.875 1.341c-.496 1.049-.517 1.195-.723 2.273-.022.116-.11.78 0 .857.155.108.157-.276.191-.559.195-1.639.22-3.76-.418-5.29-.124-.295-.252-.599-.495-.858-.184-.198-.417-.378-.685-.447-.606-.155-1.368.224-1.825.56-1.217.893-2.218 2.462-2.586 3.558-.303.901-.44 1.406-.495 2.328-.019.226 0 .419 0 .597 0 .074.04.22-.039.186-.265-.116-.103-.514-.151-.857-.284-2.015-.571-3.987-.951-5.962M511.539 411.669c-.146.42-.495.698-.868.899-1.22.663-2.628.86-3.994.871-.925-.03-1.876-.125-2.716-.557-.68-.268-1.3-.768-1.56-1.487-.41-.912-.067-1.97.497-2.726a5.05 5.05 0 0 1 3.168-1.976c.87-.154 1.468.019 1.851.357.277.244.404 1.47-.516 1.86-.955.404-1.977.577-2.993.573a14.45 14.45 0 0 1-1.258-.083M522.228 396.904c-.32 3.175-.346 6.38-.285 9.555.046 2.404.285 7.212.285 7.212" style="display:inline;fill:none;stroke:#000;stroke-width:.6;stroke-miterlimit:2;stroke-dasharray:none"/><path d="M526.247 403.137c-.746-.052-.295-.052-1.347-.064-2.434-.039-4.86-.141-7.26-.223M98.816 413.564c.049-.082.085-.147.148-.22 1.403-1.63 2.944-3.123 4.34-4.736.247-.286.51-.583.759-.867.51-.582 1.147-1.338 1.567-1.657" style="display:inline;fill:none;stroke:#000;stroke-width:.6;stroke-miterlimit:2;stroke-dasharray:none"/><path d="M106.775 413.76c-1.246-.962-2.37-2.093-3.506-3.188a132.45 132.45 0 0 1-4.44-4.504" style="display:inline;fill:none;stroke:#000;stroke-width:.6;stroke-miterlimit:2;stroke-dasharray:none"/><path d="M107.667 406.563c.134-.43.23-.683.462-1.252.321-.783.893-2.189 1.541-3.676" style="display:inline;fill:none;stroke:#000;stroke-width:.949999;stroke-miterlimit:2;stroke-dasharray:none"/><g style="display:inline;stroke-width:2.14735;stroke-dasharray:none"><path d="M7825.48 248.158c-5.279-.051-9.843-3.45-12.944-7.403-2.264-2.71-3.637-6.12-4.61-9.466-1.245-5.144-.075-10.5 1.648-15.393 1.845-4.75 4.7-8.934 8.027-12.824 1.482-1.639 3.241-3.257 5.098-4.44M7838.892 243.189c-.444-5.355-.493-10.706-1.006-16.174-.818-8.739-1.77-17.485-3.323-26.118" style="fill:none;stroke:#000;stroke-width:2.14736;stroke-miterlimit:2;stroke-dasharray:none" transform="matrix(.23416 0 0 .23154 -1717.656 358.075)"/><path d="M7850.274 214.233c-2.85.217-8.71.653-10.754.854-2.234.22-10.584.976-16.41 1.598M7858.524 250.73c1.979-.78 3.604-1.716 4.974-2.858 2.057-1.715 3.55-3.16 5.23-6.76 3.421-7.329 2.248-15.348-.444-22.62-.749-2.023-1.528-3.84-2.551-5.683-2.595-4.678-6.433-10.163-10.87-14.207" style="fill:none;stroke:#000;stroke-width:2.14736;stroke-miterlimit:2;stroke-dasharray:none" transform="matrix(.23416 0 0 .23154 -1717.656 358.075)"/></g><g style="display:inline;stroke-width:1.81325;stroke-dasharray:none"><path d="M7926.957 216.334c-2.008.052-5.544.11-8.208.11-8.208 0-16.304.436-24.4.655M7926.237 226.317c-1.094-.101-2.4-.2-3.815-.262-1.248-.053-3.658-.015-5.428-.006-6.69.037-15.001-.003-22.79.543" style="fill:none;stroke:#000;stroke-width:1.81324;stroke-miterlimit:2;stroke-dasharray:none" transform="matrix(.26977 0 0 .28186 -1993.772 347.941)"/></g><path d="M165.781 408.007c-.31-.331-.622-.379-.999-.396a7.392 7.392 0 0 0-1.123.03c-1.905.178-4.544.924-5.682 2.59-.236.345-.412.743-.437 1.128-.07 1.065-.08 1.011.218 1.981.077.25.256.487.313.762.006.03.03.089-.031-.03-.063-.122-.154-.215-.219-.336-1.09-2.013-2.092-4.053-3.09-6.125M174.741 412.975c-1.17-.78-2.397-1.6-3.092-2.856-.3-.446-.509-1.017-.35-1.55.378-.336.432.546.337.8-.17 1.117-.782 2.128-1.514 2.976-.823.907-1.968 1.635-3.228 1.676-.785.03-1.613-.485-1.75-1.287-.172-1.046.36-2.066 1.003-2.86.774-.936 1.798-1.649 2.88-2.195.594-.28 1.242-.48 1.906-.464M176.396 414.202c-.157-.336-.196-1.218-.219-1.463-.102-1.096-.136-2.163-.218-3.261-.262-3.504-.406-7.04-.656-10.545" style="display:inline;fill:none;stroke:#000;stroke-width:.6;stroke-miterlimit:2;stroke-dasharray:none"/><path d="M182.452 403.748c-.516-.038-1.146.053-1.655.061-3.218.05-6.462.366-9.677.488M185.623 413.087c-.086.084-.143.14-.23.196-.744.476-1.747.754-2.607.866-.43.056-.887.069-1.346.056a4.817 4.817 0 0 1-1.319-.195c-.629-.199-1.551-.724-1.89-1.313-.32-.556-.198-1.34 0-1.9a3.64 3.64 0 0 1 .486-.922c.199-.276.424-.537.66-.782.595-.62 1.604-1.313 2.521-1.313.143 0 .322.002.458.056.297.117.54.255.745.502.282.34.29.813.029 1.146a1.415 1.415 0 0 1-.373.335 2.64 2.64 0 0 1-.573.252c-1.15.382-2.407.252-3.581.056" style="display:inline;fill:none;stroke:#000;stroke-width:.6;stroke-miterlimit:2;stroke-dasharray:none"/><g style="display:inline;stroke-width:2.14735;stroke-dasharray:none"><path d="M8228.062 214.825c3.552 1.76 7.015 3.966 9.283 7.306 2.495 3.23 4.387 7.783 2.54 11.76-1.832 3.787-5.9 5.81-9.764 6.913-7.061 1.832-15.051.412-20.81-4.145-2.72-2.398-5.224-5.542-5.601-9.269-.129-4.24 2.575-7.877 5.506-10.646 5.134-4.116 10.817-6.318 17.407-7.065a23.788 23.788 0 0 1 2.836-.067M8249.807 258.73c.134-.948.038-1.898 0-2.847-.115-5.018-.203-10.038-.406-15.189-.745-18.852-1.96-37.855-.677-56.82.478-7.083.684-18.157 8.395-21.834.82-.392 1.59-.744 2.573-.814.955-.068 1.874.09 2.843.271 4.859.906 9.208 4.069 12.864 7.323" style="fill:none;stroke:#000;stroke-width:2.14736;stroke-miterlimit:2;stroke-dasharray:none" transform="matrix(.23416 0 0 .23154 -1722.716 358.601)"/><path d="M8232.71 216.75c11.195-1.53 22.555-1.87 34.079-1.53-11.524-.341-22.884 0-34.08 1.53z" style="fill:none;stroke:#000;stroke-width:2.14736;stroke-miterlimit:2;stroke-dasharray:none" transform="matrix(.23416 0 0 .23154 -1722.716 358.601)"/></g><path d="M300.098 406.233c.836-.402 1.74-.058 2.519.457.705.485 1.346 1.236 1.791 2.197.336.724.43 1.839-.04 2.49-.6 1.053-1.5 1.57-2.375 1.884-1.32.437-2.776.23-3.945-.838-.477-.477-.934-1.082-1.115-1.93-.271-.955.022-2.047.509-2.709a4.937 4.937 0 0 1 1.78-1.504 2.697 2.697 0 0 1 1.803-.183" style="display:inline;fill:none;stroke:#000;stroke-width:.6;stroke-miterlimit:2;stroke-dasharray:none"/><path d="M311.118 408.08c-2.675.433-5.511.377-7.845.529M337.522 415.406c-.29-.448-.719-.839-1.077-1.18-1.091-1.042-1.278-1.226-2.484-2.278-2.479-2.162-5.092-4.19-7.038-6.835" style="display:inline;fill:none;stroke:#000;stroke-width:.6;stroke-miterlimit:2;stroke-dasharray:none"/><path d="M328.026 413.02c.495-.462.98-.904 1.488-1.327 2.246-1.87 4.55-3.72 6.956-5.441M337.99 409.924c2.5-.066 5.28-.2 7.293-.302M307.248 418.807v.103c0 .24.01-.476 0-.713-.034-1.257-.065-2.513-.13-3.803-.237-4.72-.601-9.476-.215-14.226.104-1.287.255-3.081 1.146-4.387.201-.294.463-.546.722-.716.267-.175.563-.296.864-.34 1.6-.229 3.237 1.054 4.059 1.97.214.238.388.509.604.78M354.786 412.351c.132.417-.355.67-.657.858-.722.421-1.566.61-2.394.71-1.293.142-2.741-.213-3.567-1.246-.885-1.09-.831-2.66-.22-3.86.38-.787 1.05-1.424 1.79-1.912.826-.545 2.146-.92 3.297-.724M358.803 406.816c.53.058 1.06.12 1.56.318a5.83 5.83 0 0 1 1.581.967c.75.625 1.366 1.459 1.575 2.421.107.492-.204 1.166-.568 1.513-.665.637-1.396 1.016-2.293 1.237-.815.201-1.67.23-2.51.042-1.494-.335-2.748-1.533-2.866-3.035-.03-.344.069-.76.19-1.077.418-1.088 1.427-1.846 2.465-2.36M366.974 407.09c1.848-.027 3.989.788 4.625 2.717.235.713-.063 1.527-.55 2.022-.835.936-2.014 1.344-3.153 1.485-1.164.127-2.438-.212-3.248-1.23-.557-.657-.822-1.707-.435-2.55.448-1.065 1.34-1.86 2.29-2.202M380.299 407.671c-.069-.23-.448-.497-.812-.596-.985-.268-2.037.034-2.876.49-.483.261-.938.585-1.27.978-.449.532-.823 1.12-1.01 1.772-.296 1.025.13 4.154-.04 3.125-.24-1.49-.512-2.126-.763-3.385-.12-.607-.447-1.567-.585-2.17-.05-.17-.105-.34-.154-.512M389.992 414.579c.226.269.1.857-.154.28-.791-1.744-.992-3.674-1.353-5.535-.585-3.65-.65-7.356-.682-11.045-.123-.083.03-.957.311-.27.526 1.087.593 2.334.675 3.52.064 3.264-.782 6.934-2.425 9.392-1.078 1.612-2.465 2.576-4.28 2.718-1.183.093-2.232-.85-2.313-1.987-.11-1.016.518-2.075 1.336-2.746.897-.736 1.703-1.155 2.835-1.444 1.047-.266 2.531-.185 3.511.407M392.273 404.778c.16.039.285.148.398.261.115.135.12.35.019.492a.752.752 0 0 1-.605.297.82.82 0 0 1-.56-.228c-.07-.08-.13-.194-.095-.3a.5.5 0 0 1 .238-.28c.223-.135.492-.172.748-.192M392.659 413.495c-.023.097-.044.362-.07 0-.136-1.958-.325-3.913-.44-5.894M405.133 413.588c-.21-1.651-.242-3.37-.995-4.917-.436-.816-.997-1.713-1.999-2.042a2.276 2.276 0 0 0-1.822.17c-1.509.688-2.492 2.057-2.912 3.498-.209.583-.375 1.182-.375 1.798-.034.5-.117 1.003-.061 1.504-.202-.326-.16-.72-.212-1.098-.08-.568-.027-1.414-.16-2.123-.125-1.089-.236-2.203-.725-3.22M419.4 413.326a10.578 10.578 0 0 1-3.506-1.894c-1.072-.862-1.982-1.97-2.46-3.255a3.284 3.284 0 0 1-.177-1.4c.486-.083.595.778.745 1.144.298 1.077.045 2.22-.414 3.216-.778 1.38-2.304 2.419-3.955 2.34-.679-.014-1.331-.296-1.875-.678-.754-.653-.92-1.783-.5-2.66.444-1.056 1.4-1.882 2.404-2.404 1.176-.655 2.495-1.072 3.868-1.047M420.39 413.39c-.002.055.027.192.023.138-.05-1.727-.12-3.455-.168-5.182-.106-3.783-.275-7.569-.266-11.375" style="display:inline;fill:none;stroke:#000;stroke-width:.6;stroke-miterlimit:2;stroke-dasharray:none"/><path d="M425.56 402.426a8.282 8.282 0 0 0-.8-.046c-2.888-.027-5.803-.05-8.73.155M433.186 410.892c-.96 1.061-2.148 1.776-3.624 2.245-1.67.532-3.612.72-5.187-.182-1.295-.69-2.057-2.253-1.717-3.681.274-1.274 1.156-2.374 2.252-3.067.81-.428 1.784-.836 2.701-.51.512.178.77.797.516 1.275-.392.773-1.188 1.217-1.896 1.664-.755.43-1.59.743-2.413 1.022M232.332 412.368c-.11.38-.442.584-.78.768-.727.482-1.65.547-2.507.501-1.204-.086-2.373-.636-3.16-1.52-.37-.53-.789-1.097-.764-1.768-.052-1.184.718-2.242 1.635-2.962.745-.582 1.689-.978 2.659-.968.388.012.783.11 1.1.334M240.32 413.578c-.005-.111.05-.509.057-.604.036-.44.045-.645.103-1.146.114-.998.215-1.754.103-2.78-.059-.53-.185-1.286-.55-1.763a1.383 1.383 0 0 0-.582-.47c-.22-.087-.771-.126-1.044-.089-.791.11-1.61.564-2.125 1.005-1.166.999-1.652 2.015-2.045 3.363-.087.297-.172 1.602-.24 1.896-.103.44-.078 1.087-.069.059l.034-4.088c.025-2.98.036-6.008-.034-8.637M253.645 413.495c-.92-.171-1.837-.436-2.612-.937-1.16-.66-2.214-1.59-2.698-2.78-.263-.675-.233-1.498.252-2.082.523-.268.655.514.658.848.01 1.822-1.182 3.59-2.932 4.45-.963.489-2.193.83-3.24.357-.62-.27-1.043-.835-1.109-1.458-.14-1.19.605-2.298 1.47-3.128.878-.841 2.046-1.425 3.29-1.66a2.995 2.995 0 0 1 1.504.153M260.302 413.406c.258-.878.395-1.78.49-2.68.04-1-.068-2.006-.737-2.849-.245-.31-.565-.598-1-.678-.86-.194-1.909.166-2.548.642-1.146.835-1.714 2.007-2.05 3.274-.163.402-.184.827-.212 1.248-.073.192.055.704-.208.686-.264-.295.031-.679-.037-1.044-.203-1.097-.479-2.596-.453-4.015M281.829 411.302c.173.501-.383.875-.763 1.108-1.692.963-3.753 1.274-5.684.976-1.411-.26-2.84-1.08-3.36-2.424-.352-.866-.13-1.88.496-2.578a5.68 5.68 0 0 1 3.723-1.905c.564-.038 1.181.023 1.603.427.439.35.392.989.068 1.395-.697.836-1.85 1.146-2.914 1.273-.784.085-2.04.143-3.036-.047M259.532 418.301c-.28.71-.273 1.516.208 2.145 1.12 1.562 2.983 2.507 4.868 2.893 1.328.244 2.72.268 4.042-.023 1.127-.312 2.189-1.15 2.337-2.344.235-1.618-.255-3.219-.52-4.805-.494-2.565-1.153-5.122-1.24-7.74-.162-.604.558-1.557.935-.607.365 1.076-.058 2.267-.634 3.2-1.22 1.871-3.8 3.004-5.997 2.169-.836-.417-1.623-1.15-1.664-2.121-.173-1.52 1.008-2.825 2.24-3.592 1.3-.808 3.097-1.334 4.51-.482.1.061.196.13.287.203M205.696 435.005a14.33 14.33 0 0 1-1.118.143c-3.25.134-6.97.144-10.221-.071M194.42 438.573c3.033-.096 5.16-.122 8.145-.154.499-.008 1.984.008 1.984.008M222.807 440.54c-.073-1.518.045-3.07-.352-4.553-.187-.74-.894-1.112-1.698-1.248-1.199-.203-2.69.326-3.268 1.703-.553 1.355-.722 2.833-.735 4.285.148.145.008-.782.017-1.04-.253-3.435-.435-5.936-.729-9.368-.107-1.076-.193-3.15-.301-4.13M228.245 433.973c.507-.33 1.172-.361 1.79-.327.572.075 1.084.357 1.54.685 1.056.76 1.472 1.815 1.576 2.944.082.942-.605 1.81-1.397 2.284-1.256.765-2.701.988-4.155.912-.678-.097-1.388-.232-1.963-.622-.723-.49-1.253-1.297-1.237-2.182-.022-1.061.661-2.024 1.543-2.582.571-.363 1.374-.753 1.96-.578M242.495 434.624a4.67 4.67 0 0 0-1.73-.363c-1.409.012-2.833.483-3.916 1.38-.58.5-1.08 1.157-1.203 1.921-.04.876-.015 1.765.172 2.625.02.212.21.446.185.09-.087-.362-.121-.73-.16-1.098-.191-1.39-.689-2.717-1.269-3.99M245.822 431.317c.107.117.244.228.262.394.058.306-.153.594-.409.752-.385.234-.862.29-1.307.237-.274-.039-.511-.127-.674-.356-.1-.167-.043-.357.045-.51.233-.405 1.029-.78 1.566-.844M245.326 440.996c-.03-.506-.087-1.043-.121-1.549-.117-1.698-.302-3.395-.272-5.092M255.966 440.398c-1.33 0-2.66-.042-3.99-.042-1.36 0-2.695-.141-4.051-.03-.15.011-.318.527-.212.417 1.12-1.167 2.272-2.352 3.507-3.395 1.094-.924 1.16-.94 2.298-1.757.313-.225.6-.454.937-.685.358-.245.664-.537 1.118-.536.304 0 .274.066-.06.119-.422.066-.664.068-1.119.06-2.329-.05-4.655-.239-6.983-.358M261.262 434.281c.742.152 1.44.451 2.103.8 1.033.572 2.01 1.517 2.203 2.725.141.706-.196 1.447-.79 1.856-.894.654-2.025.865-3.122.931a6.845 6.845 0 0 1-3.375-.736c-.625-.366-1.202-1.155-1.34-1.65-.216-.77-.12-1.622.374-2.26.768-1.078 2.066-1.682 3.356-1.9a5.81 5.81 0 0 1 1.53-.045M273.89 440.981c.175-.222.339-.5.463-.849.416-1.175.427-2.555.127-3.677-.153-.568-.41-1.179-.835-1.611a1.917 1.917 0 0 0-1.982-.467c-.973.318-1.743 1.01-2.364 1.79-.76.955-1.167 2.168-1.408 3.346-.066.16-.023.795-.243.618-.619-1.94-.713-3.99-.923-6M276.465 440.138c.09.179.327.675.241.506-.115-.228-.095-.686-.12-.923a66.716 66.716 0 0 1-.333-4.407c-.03-.745-.054-1.49-.06-2.234-.025-2.889.09-5.807.272-8.696" style="display:inline;fill:none;stroke:#000;stroke-width:.6;stroke-miterlimit:2;stroke-dasharray:none"/><path d="M281.967 428.195h-1.633c-3.267 0-6.47.626-9.704 1.043M291.286 442.2c-1.524-.365-2.993-.97-4.282-1.86-1.407-.96-2.783-2.257-3.112-3.984-.129-.519.11-1.528.832-1.267.733.404.94 1.392.602 2.116-.616 1.489-2.134 2.463-3.687 2.79-1.19.243-2.643.01-3.37-1.043-.376-.525-.364-1.44-.11-2.031.468-1.092 1.682-2.04 2.877-2.574a9.71 9.71 0 0 1 1.708-.568" style="display:inline;fill:none;stroke:#000;stroke-width:.6;stroke-miterlimit:2;stroke-dasharray:none"/><path d="M289.353 441.409c.06-2.603.056-5.206.058-7.81.002-2.96-.022-7.546-.157-11.193M313.727 434.075c.383-.416-.032-.193-.197.008-1.47 1.797-2.736 3.75-3.883 5.718-.285.49-.687 1.013-.436 1.596.22.511.05.044.024.061-.026.015-.098-.108-.167-.222-.443-.733-.87-1.461-1.289-2.159-.71-1.18-1.333-2.383-1.99-3.551-.273-.484-.53-.964-.824-1.465a2.09 2.09 0 0 0-.22-.316M320.323 440.059c-1.084.25-2.192.434-3.31.418-1.24-.008-2.56-.12-3.615-.828-.537-.336-.9-.931-.888-1.564.041-.929.64-1.733 1.294-2.358.776-.725 1.782-1.242 2.875-1.303.632-.039 1.267.144 1.44.628.161.447-.118.836-.436 1.076-.681.51-1.342.672-2.156.859-.738.146-1.708.212-2.46.124M321.717 440.802c-.03-.565-.037-1.132-.06-1.697-.188-4.558-.514-9.083-.544-13.61M327.135 433.744a8.016 8.016 0 0 1 1.814.817c1.125.679 1.762 1.734 2.017 2.788.235.97-.186 2.068-1.02 2.572-.988.62-1.892.836-3.359.793-.783-.022-1.546-.341-2.157-.815-.875-.694-1.278-1.895-.997-2.967.298-1.344 1.409-2.354 2.621-2.943.406-.202.83-.37 1.262-.513M339.986 439.45a.824.824 0 0 1-.184.243c-.383.39-1.14.784-2.053.915-1.082.154-1.765.176-2.782-.03-1.216-.244-2.401-1-2.781-2.098a2.132 2.132 0 0 1-.12-.914c.03-.29.148-.588.29-.834.68-1.184 2.568-2.162 4.425-2.662M341.58 430.527c.086.015.213.06.305.136a.875.875 0 0 1 .375.506c.067.266-.019.568-.202.735-.242.226-.56.294-.86.284a.827.827 0 0 1-.64-.313.51.51 0 0 1-.05-.529c.127-.258.354-.412.571-.538.21-.12.43-.211.656-.276M342.047 440.236c.014.124.027.223.03.298.002.03.048.416-.03 0-.076-.405-.147-.83-.211-1.25-.274-1.787-.47-3.533-.393-5.391M345.772 440.713c.09-.447.059-.15 0-.864-.123-1.49-.283-3.007-.393-4.497-.283-3.811-.605-7.654-.333-11.466" style="display:inline;fill:none;stroke:#000;stroke-width:.6;stroke-miterlimit:2;stroke-dasharray:none"/><path d="m350.256 426.969-3.103.08c-2.445.061-1.208.046-3.68.15-1.15.047-2.269.045-3.419.098M348.563 449.217c.514.458.888.703 1.399.966.556.285 1.536.673 2.35.8 1.16.182 3.217.233 4.42-.464.386-.224.653-.497.846-.892.194-.398.24-.863.25-1.327.027-1.08-.424-2.873-.657-3.857-.52-2.194-1.291-4.307-1.693-6.542-.226-1.255-.286-1.667-.156-2.84.03-.246.081-.465.156-.709.023-.066.074-.27.157-.216.295.19.07 1.07-.815 2.314-.743 1.046-1.377 1.978-2.382 2.808-.75.62-1.693 1.212-2.727 1.235-.377.008-.73-.056-1.066-.247-.288-.165-.501-.463-.658-.772-.752-1.48-.073-3.492.627-4.844.115-.222.282-.432.408-.648M381.022 440.671c-.73-.261-1.458-.533-2.14-.906-1.509-.836-2.943-2.041-3.503-3.708-.126-.542-.452-1.472.192-1.785.525.088.662.76.74 1.2.194 1.128-.237 2.294-1.047 3.098-.791.906-1.938 1.435-3.092 1.736-1.244.314-2.737.049-3.544-1.005-.628-.792-.517-1.948.061-2.736.735-1.038 1.824-1.85 2.962-2.412 1.152-.57 1.943-.736 2.955-.71.51.014.683.23.851.6" style="display:inline;fill:none;stroke:#000;stroke-width:.6;stroke-miterlimit:2;stroke-dasharray:none"/><path d="M381.146 441.74c-.18-.417-.224-1.011-.272-1.43-.224-1.934-.3-3.9-.363-5.837-.119-3.662-.181-7.356.211-11.019" style="display:inline;fill:none;stroke:#000;stroke-width:.6;stroke-miterlimit:2;stroke-dasharray:none"/><path d="M385.57 428.736c-.453-.03-.907-.056-1.36-.06-2.903-.03-5.15.388-8.022.626" style="display:inline;fill:none;stroke:#000;stroke-width:.500001;stroke-miterlimit:2;stroke-dasharray:none"/><path d="M407.878 427.534c-.574 0-1.11.008-1.684.03-1.874.069-2.87.09-4.82.238-2.334.18-4.63.507-6.964.715" style="display:inline;fill:none;stroke:#000;stroke-width:.6;stroke-miterlimit:2;stroke-dasharray:none"/><path d="M399.37 440.767a22.645 22.645 0 0 0-.067-1.166 76.42 76.42 0 0 1-.279-5.746c-.03-3.571-.063-7.144.102-10.709M402.585 430.256c.658.22 1.22 1.313.533 1.848a1.173 1.173 0 0 1-.595.219 1.8 1.8 0 0 1-.72-.095c-1.167-.45-.864-1.834-.223-2.184M402.999 440.875c-.02-.127-.051-.273-.066-.387a19.62 19.62 0 0 1-.151-1.579c-.113-1.787-.242-3.544-.484-5.3M419.73 441.052c.066-.38.11-.974.12-1.365.022-.926-.024-1.817-.179-2.676-.136-.743-.38-1.562-1.014-2.043-.631-.48-1.51-.341-2.184-.023-1.676.798-2.8 2.539-2.907 4.358-.03.532-.058 1.662-.03 1.598.01-.026.038-.08.038-.08.182-.381.008-.827 0-1.232-.019-1.07 0-2.148-.17-3.208-.11-.69-.364-1.427-1-1.82-.831-.516-1.886-.293-2.712.107-1.096.531-2.02 1.417-2.518 2.527a6.814 6.814 0 0 0-.573 2.592c-.008.215.082.913-.027.768-.411-.558-.318-1.335-.457-2.007a45.986 45.986 0 0 1-.68-4.537M430.04 439.428c-.871.587-1.92.895-2.934 1.133-1.498.296-3.12.355-4.563-.231-.755-.297-1.425-1.001-1.377-1.845.056-1.036.707-1.935 1.424-2.65.771-.685 1.686-1.277 2.72-1.479.875-.171 1.842-.038 2.127.774a.757.757 0 0 1-.432.957c-.793.384-1.704.418-2.57.442-.746 0-1.49-.08-2.225-.198" style="display:inline;fill:none;stroke:#000;stroke-width:.6;stroke-miterlimit:2;stroke-dasharray:none"/><path d="M439.041 440.17c.03.085.051.198.084.31.027.086.101.338.116.255.023-.114.004-.197.008-.28.004-.225.019-.449.015-.645-.026-1.15-.03-1.572-.064-2.805-.104-3.872-.326-7.771-.217-11.64" style="display:inline;fill:none;stroke:#000;stroke-width:.500001;stroke-miterlimit:2;stroke-dasharray:none"/><path d="M442.366 429.656c-.095.015-.233.038-.381.05a9.11 9.11 0 0 1-.807.04c-1.834.06-3.725.09-5.36.016" style="display:inline;fill:none;stroke:#000;stroke-width:.500001;stroke-miterlimit:2;stroke-dasharray:none"/><g style="display:inline;stroke-width:2.8804;stroke-dasharray:none"><path d="M6526.203 204.502c-6.46 6.377-13.133 12.733-18.454 18.39-5.573 5.925-11.11 11.882-16.668 17.82" style="fill:none;stroke:#000;stroke-width:2.8804;stroke-miterlimit:2;stroke-dasharray:none" transform="matrix(.1746 0 0 .17257 -930.358 294.885)"/><path d="M6490.508 202.715c4.789 4.392 9.001 9.347 13.487 14.035 1.365 1.425 2.737 2.844 4.16 4.21 6.771 6.496 13.33 13.207 20.088 19.715a29.562 29.562 0 0 0 2.093 1.824" style="fill:none;stroke:#000;stroke-width:2.8804;stroke-miterlimit:2;stroke-dasharray:none" transform="matrix(.1746 0 0 .17257 -930.358 294.885)"/></g><path d="M223.464 337.218c1.482-1.342 2.092-3.107 1.795-4.812-.298-1.712-1.042-2.818-2.215-4.02a5.465 5.465 0 0 0-1.606-1.03" style="display:inline;fill:none;stroke:#000;stroke-width:.6;stroke-linecap:butt;stroke-miterlimit:2;stroke-dasharray:none"/><path d="M214.037 327.52c-1.416 1.539-2.757 3.5-2.826 5.415-.016.426.045.86.155 1.274.288 1.084 1.01 1.993 2.04 2.769M218.48 336.542c-.21-.769-.19-1.569-.254-2.24-.279-2.915-.375-5.848-.392-8.777" style="display:inline;fill:none;stroke:#000;stroke-width:.6;stroke-miterlimit:2;stroke-dasharray:none"/><path d="M221.438 329.4c-.541.09-.942.149-1.427.201-1.582.17-3.177.263-4.742.56M245.175 331.193c-.14.022-.348.037-.46.045-.636.046-1.93.04-2.715.066-1.914.065-3.599.019-5.245-.026M246.242 333.737c-.754.005-1.508.02-2.262.034-2.492.046-4.983.08-7.474.008" style="display:inline;fill:none;stroke:#000;stroke-width:.6;stroke-miterlimit:2;stroke-dasharray:none"/><g style="display:inline;stroke-width:2.54596;stroke-dasharray:none"><path d="M6779.195 202.554c-1.047.985-2.014 1.891-2.902 2.746-.416.402-5.218 4.834-5.302 4.912-7.027 6.486-13.991 13.043-21.216 19.311-4.41 3.849-8.778 7.747-12.834 11.973" style="fill:none;stroke:#000;stroke-width:2.54596;stroke-miterlimit:2;stroke-dasharray:none" transform="matrix(.1976 0 0 .1952 -1074.256 290.138)"/><path d="M6778.08 240.633c-6.05-4.443-11.673-9.409-17.066-14.634-6.56-6.355-3.475-3.254-9.87-9.753-3.52-3.578-6.975-7.253-10.615-10.713-.459-.436-.949-.838-1.423-1.257" style="fill:none;stroke:#000;stroke-width:2.54596;stroke-miterlimit:2;stroke-dasharray:none" transform="matrix(.1976 0 0 .1952 -1074.256 290.138)"/></g><path d="M271.864 332.779h-5.562M281.787 335.704c-.775.529-1.782.632-2.72.704-1.54.056-3.195-.267-4.316-1.268-.7-.614-1.102-1.581-.836-2.452.318-1.088 1.386-1.823 2.45-2.331 1.041-.497 1.949-.624 2.7-.665.482-.026 1.189.073 1.432.215M285.843 329.013c1.289-.092 2.697-.054 3.788.721 1.224.93 1.636 2.728.956 4.095-.573 1.141-1.77 1.877-2.999 2.157-1.688.352-3.69.245-5.03-.745-.658-.485-1.14-1.247-1.075-2.092.096-1.267 1.093-2.434 2.177-3.052.766-.437 1.579-.632 2.18-.588M295.512 330.1c1.083.15 2.247.462 2.993 1.303.572.712.924 1.63.72 2.525-.196.863-.855 1.436-1.587 1.778-.967.451-2.155.533-3.265.428-1.223-.125-2.492-.748-3.038-1.882-.497-1.035-.076-2.314.773-3.04.671-.572 1.514-.943 2.382-1.108a4.693 4.693 0 0 1 2.505.268M307.156 330.698c-.062-.063-.115-.134-.185-.188-.851-.662-1.988-1.164-3.095-1.021a3.5 3.5 0 0 0-1.02.295c-.669.331-1 .596-1.499 1.378-.767 1.204-.64 2.718-.475 4.057.025.204.062.408.1.611.02.1.058.196.072.297.001.009-.015.022-.019.015-.209-.356-.261-.799-.372-1.185-.432-1.512-.736-3.082-.75-4.66M317.103 335.5c.085.524-.474 1.414-.89.622-.73-1.159-1.19-2.446-1.693-3.701-.705-1.896-1.148-3.868-1.577-5.831-.333-1.525-.666-4.748-.442-6.456.086-.648.474-1.487.804-.617.528 1.228.723 2.853.906 4.301.27 2.132.56 5.173.267 7.312-.22 1.546-1.04 3.035-2.407 3.96-1.145.841-2.858 1.352-4.182.56-1.089-.611-1.587-2.008-.98-3.076.777-1.426 2.285-2.198 3.843-2.678a7.464 7.464 0 0 1 2.185-.251M319.309 327.265a.485.485 0 0 1 .183-.05.346.346 0 0 1 .262.09c.059.047.112.124.105.214-.006.093-.082.147-.147.179a.681.681 0 0 1-.37.055c-.104-.013-.218-.051-.282-.16a.225.225 0 0 1 0-.206.341.341 0 0 1 .274-.186M319.107 335.999c.015.093.114.272.02.269-.127-.004-.101-.346-.114-.44-.083-.632-.092-1.269-.112-1.905-.04-1.336-.031-2.688.19-4.01M327.178 336.342c.708-1.134 1.158-2.077 1.408-3.002.218-.81.343-1.792-.062-2.577-.33-.826-1.434-1.237-2.379-1.082-1.133.163-2.063.846-2.8 1.577-.907.94-1.522 2.16-1.396 3.407.05.437.042.9.254 1.307.355.238.193-.516.182-.698-.306-1.558-.873-3.07-1.454-4.562M340.267 335.87c-1.04-.215-1.969-.79-2.721-1.488-1.006-.942-1.443-2.363-1.653-3.594-.089-.517-.11-.843.228-.928.347.52.323 1.174.328 1.769-.022 1.293-.594 2.823-1.695 3.64a3.935 3.935 0 0 1-2.839.832c-.545-.052-.985-.35-1.336-.753-.465-.534-.553-1.274-.486-1.966.15-1.55 1.418-2.9 2.943-3.533a4.171 4.171 0 0 1 2.431-.324" style="display:inline;fill:none;stroke:#000;stroke-width:.6;stroke-miterlimit:2;stroke-dasharray:none"/><g style="display:inline;stroke-width:2.28287;stroke-dasharray:none"><path d="M7137.913 244.657c0 .014.084 2.571.062 1.765-.241-2.505-.362-5.023-.48-7.537-.358-7.753-.561-15.513-.514-23.275.088-14.68.223-29.394 1.56-44.021" style="fill:none;stroke:#000;stroke-width:2.28287;stroke-miterlimit:2;stroke-dasharray:none" transform="matrix(.22026 0 0 .21779 -1231.452 282.577)"/><path d="M7157.835 193.418c-.817.19-2.446.253-3.012.27-11.981.366-23.976-.032-35.96.108" style="fill:none;stroke:#000;stroke-width:2.28287;stroke-miterlimit:2;stroke-dasharray:none" transform="matrix(.22026 0 0 .21779 -1231.452 282.577)"/></g><path d="M351.875 334.327c-.474.564-1.627 1.065-2.33 1.28-1.5.46-2.721.563-4.306.31-.785-.186-1.572-.483-2.118-1.063-.907-.808-1.164-2.214-.458-3.207.292-.496.711-.931 1.187-1.28.836-.614 1.791-1.148 2.85-1.33.652-.112 1.314 0 1.644.584.24.426-.05 1.098-.375 1.354-1.234.973-2.527 1.223-3.961 1.362-.339.033-1.199.054-1.593.007M373.524 336.791c-1.053-.062-2.03-.51-2.905-1.061-.991-.666-1.86-1.555-2.389-2.624-.318-.678-.506-1.43-.387-2.178.074-.469.458-1.253.817-.585.512.998.34 2.266-.327 3.157-.742 1.07-1.9 1.817-3.125 2.245-1.02.354-2.32.28-3.052-.593-.797-.906-.673-2.258-.133-3.257.73-1.393 2.127-2.187 3.41-2.413.604-.105 1.605.001 2.01.456" style="display:inline;fill:none;stroke:#000;stroke-width:.6;stroke-miterlimit:2;stroke-dasharray:none"/><path d="M372.903 336.162c-.39-3.375-.429-6.782-.488-10.177a95.11 95.11 0 0 1 .118-6.88" style="display:inline;fill:none;stroke:#000;stroke-width:.6;stroke-miterlimit:2;stroke-dasharray:none"/><path d="M377.13 325.347a.819.819 0 0 0-.29-.044c-2.764-.013-5.561.096-8.334.257M396.99 323.864c-.156-.016-.289-.01-.42-.013-1.08-.028-2.156-.065-3.24-.058-.995.006-1.983.006-3.04.05-.822.035-1.67.052-2.492.103-.083.005-.186.01-.264.003" style="display:inline;fill:none;stroke:#000;stroke-width:.6;stroke-miterlimit:2;stroke-dasharray:none"/><path d="M391.89 336.204c.03-3.094-.03-6.158-.09-9.222-.06-3.002-.152-5.974-.181-8.977M395.658 325.871c.119-.162.454-.206.674-.193.563.033.86.217 1.098.632a.817.817 0 0 1-.064.884c-.12.172-.44.428-.753.515a1.973 1.973 0 0 1-1.84-.406c-.167-.123-.298-.383-.352-.58-.068-.245.106-.683.356-.99.066-.083.135-.164.204-.245M396.137 336.152c0-.73-.015-1.49-.034-2.219-.045-1.664-.13-3.327-.097-4.991M410.92 336.292c.162-.878.175-1.923.126-2.66-.068-1.022-.202-2.128-.893-2.999-.442-.568-1.377-.588-2.042-.35-1.475.527-2.33 1.854-2.712 3.265a5.94 5.94 0 0 0-.231 2.211c.172.526.269-.075.261-.354-.038-1.312-.14-2.394-.408-3.564-.162-.712-.427-1.415-1.007-1.916-.388-.336-1.132-.313-1.595-.06-.816.447-1.413 1.113-1.923 1.965-.632 1.136-.886 2.057-1.006 3.317-.011.293-.054.991.074 1.053-.234-1.17-.33-2.363-.41-3.549-.044-.894-.03-1.792.093-2.682M421.769 334.087c-.447.42-1.338.973-1.89 1.255-1.483.679-2.796 1.04-4.476.766-1.116-.176-2.145-.853-2.66-1.802-.562-1.098-.3-2.504.584-3.37.87-.853 1.844-1.272 2.981-1.365.617-.05 1.135.048 1.45.206.39.197.672.575.43.953-.284.443-.793.725-1.292.916-1.27.45-2.671.515-3.996.258M431.945 336.505c.019-.418 0-.832 0-1.268 0-1.577-.008-2.615-.034-3.842-.07-3.12-.137-7.49-.09-12.792" style="display:inline;fill:none;stroke:#000;stroke-width:.6;stroke-miterlimit:2;stroke-dasharray:none"/><path d="M436.423 325.208c-.191.033-.563.04-.774.048-.285.01-.673.015-1.124.02-1.976.025-4.675.112-7.189.004M327.13 377.184c.055-.395.092-.976.111-1.291.113-1.788.153-5.422.08-7.626-.17-5.132.047-8.806-.064-13.429M320.644 377.007c-.01-1.753-.05-3.505-.085-5.257-.11-5.787.052-9.609-.019-15.792M324.087 380.478a8.57 8.57 0 0 1 .376-.443c.534-.6 1.7-1.739 2.382-2.454 1.665-1.746 3.214-3.2 4.727-4.62M316.054 372.993c.622.605 1.254 1.2 1.883 1.798 2.08 1.975 4.15 3.958 6.133 6.027" style="display:inline;fill:none;stroke:#000;stroke-width:.6;stroke-miterlimit:2;stroke-dasharray:none"/><path d="M-573.8 443.703c-8.154 14.78-20.57 28.54-36.993 33.952-11.189 3.686-23.095-2.757-28.759-12.633-10.299-17.956-10.632-39.373-9.39-59.349 1.969-31.645 13.127-62.816 32.63-88.005 12.07-15.59 26.802-30.47 45.512-37.644 8.867-3.401 20.795-4.844 27.675-.782 3.15 1.86 6.207 9.441 3.796 13.382M-290.926 478.339s1.79-.004 2.672.127c3.512.528 3.803.666 6.984 2.55 1.32.782 2.477 1.87 3.414 3.084 5.895 7.632 3.22 18.288-1.901 25.55-1.977 2.802-4.314 5.391-6.947 7.589-3.033 2.531-6.404 4.683-9.917 6.489-17.015 8.746-39.551 11.482-58.44 11.018-5.249-.129-10.494-.553-15.706-1.187a162.526 162.526 0 0 1-15.006-2.55c-16.232-3.543-32.346-9.573-45.22-20.338-2.37-1.982-4.575-4.166-6.654-6.451a45.38 45.38 0 0 1-4.545-5.865c-2.852-4.41-4.396-9.386-.84-13.84.402-.502.874-.983 1.445-1.28.326-.17.769-.196 1.102-.04.979.457.43 2.25.304 2.73-1.421 5.407-4.174 10.445-7.086 15.134-4.07 6.554-6.317 9.928-12.178 15.287-5.603 5.123-11.965 9.233-19.209 11.667-10.631 3.574-13.978 3.214-25.169 2.322-4.828-.384-9.562-1.728-14.166-3.23-13.845-4.514-29.001-13.477-39.225-23.915-6.193-6.323-8.876-11.511-12.68-19.27-1.498-3.056-2.484-6.352-3.354-9.642-2.228-8.43-2.47-17.83-.125-26.281.208-.75.57-1.449.854-2.173" style="fill:none;stroke:#000;stroke-width:.999998;stroke-miterlimit:2;stroke-dasharray:none"/><path d="M-441.587 483.234c-5.416 3.763-3.46 11.315-.094 15.894 13.414 18.251 35.334 27.609 56.837 32.081 26.3 5.47 54.39 5.269 79.878-3.81 13.278-4.73 26.634-14.144 30.014-28.692 1.928-8.295-2.392-18.505-11.176-19.885-1.391-.218-3.83-1.558-4.799-.484" style="fill:none;stroke:#000;stroke-width:.999998;stroke-miterlimit:2;stroke-dasharray:none"/><path d="M-440.484 483.194c-.334-.156-.777-.13-1.103.04" style="fill:none;stroke:#000;stroke-width:.999998;stroke-miterlimit:2;stroke-dasharray:none"/><path d="M-572.52 445.823c-5.018 13.794-1.795 29.363 4.677 42.215 8.036 15.955 23.004 26.989 38.66 34.585 10.589 5.138 22.187 8.197 34.015 8.29 14.63.114 28.774-6.901 38.675-17.406 6.645-7.05 12.052-15.492 15.38-24.58.581-1.584 2.114-4.27.629-5.733M-183.803 443.58c3.934 6.49 11.305 10.414 17.59 14.521 10.333 6.752 25.01 12.2 36.044 4.683 11.468-7.812 12.586-23.333 13.736-36.078 2.453-27.199-1.967-54.502-7.395-81.148-4.501-22.094-9.495-44.99-22.185-63.886-5.02-7.474-11.837-15.214-21.026-17.337-11.785-2.723-21.535 7.7-26.705 17.119-1.528 2.782-3.89 5.365-4.345 8.582" style="fill:none;stroke:#000;stroke-width:.999998;stroke-miterlimit:2;stroke-dasharray:none"/><path d="M-261.697 512.833c11.565 4.707 24.22 8.241 36.797 8.267 3.246.008 6.514-.139 9.71-.7 3.203-.563 6.372-1.438 9.387-2.656 9.537-3.853 17.07-10.9 23.057-19.106 5.475-7.505 6.749-10.243 10.29-18.756 3.36-8.076 5.459-16.834 4.862-25.691-.214-3.18-.898-6.353-2.962-8.88-.696-.854-1.615-1.54-2.592-2.05-2.57-1.34-5.362-1.283-8.189-.87-.44.064-2.383.118-2.466 1.188M-376.604 282.574c-4.696-6.27-1.655-15.663 2.388-21.474 6.765-9.722 17.981-15.425 28.543-20.307 26.965-12.463 56.979-19.267 86.763-17.63 13.308.73 27.065 3.425 38.076 11.147 14.136 9.914 22.21 27.433 22.844 44.576.07 1.904-.75 3.71-.751 5.616" style="fill:none;stroke:#000;stroke-width:.999998;stroke-miterlimit:2;stroke-dasharray:none"/><path d="M-537.568 299.81c-.638-7.693 1.898-15.181 6.218-21.513 12.891-18.897 34.129-29.805 55.208-37.012 22.72-7.386 48.33-9.842 70.939-.766 14.849 6.312 24.63 20.815 29.74 35.64.238 1.576 2.336 7.51-1.14 6.415" style="fill:none;stroke:#000;stroke-width:.999998;stroke-miterlimit:2;stroke-dasharray:none"/><path d="M-216.826 122.73s.757-3.727.75-5.615a41.315 41.315 0 0 0-.793-7.995c-2.112-10.515-7.14-21.867-14.545-29.736-7.835-8.326-11.078-9.376-21.638-13.554-4.49-1.776-9.324-2.599-14.094-3.35-20.697-3.255-43.681-.359-63.832 4.838a197.345 197.345 0 0 0-15.141 4.587 190.71 190.71 0 0 0-13.916 5.451c-8.219 3.583-14.554 6.851-21.75 12.062-2.63 1.904-5.212 3.916-7.491 6.23-3.45 3.501-4.482 6.046-6.24 10.377-.572 1.41-.814 2.939-1.063 4.44-.413 2.483-.601 7.393 1.08 9.627.217.287.474.582.809.711 1.127.437 1.878.275 1.91-1.312.087-4.523-2.252-9.194-4.015-13.127a54.126 54.126 0 0 0-4.259-7.694c-3.919-5.928-8.71-11.702-14.624-15.778-6.291-4.334-14.084-6.842-21.486-8.267a94.787 94.787 0 0 0-13.442-1.61c-4.684-.22-9.393-.09-14.066.313-18.108 1.566-36.538 7.504-52.595 15.933-3.748 1.966-7.427 4.087-10.93 6.463-3.33 2.26-6.538 4.724-9.53 7.416-7.098 6.385-14.11 14.973-17.011 24.246-1.107 3.538-.908 7.048-.917 10.653" style="fill:#faa;stroke:#000;stroke-width:.999998;stroke-miterlimit:2;stroke-dasharray:none"/><path d="M-542.989 685.297c-6.947-8.715-18.251-16.74-29.864-12.94-14.323 6.134-23.737 19.6-31.372 32.616-13.225 24.444-20.333 52.22-20.948 79.975-.331 29.855 9.732 61.835 33.969 80.764 11.598 9.293 28.759 13.139 42.042 5.015 8.541-4.848 14.501-13.43 18.032-22.423" style="fill:none;stroke:#000;stroke-width:.999998;stroke-miterlimit:2;stroke-dasharray:none"/><path d="M-416.238 879.54c6.037 1.734 2.55 10.793 2.013 15.488-2.67 12.447-9.253 23.737-17.236 33.508-13.646 14.902-35.755 21.311-55.184 15.53-25.72-6.709-45.683-29.756-49.884-55.822-2.702-15.378 1.058-30.94 6.4-45.32" style="fill:none;stroke:#000;stroke-width:.999998;stroke-miterlimit:2;stroke-dasharray:none"/><path d="M-284.445 873.06c7.024-3.195 15.09 1.978 16.887 9.06 2.406 9.776-2.015 19.81-7.339 27.852-14.075 20.11-38.152 31.16-61.97 34.326-22.793 3.178-47.872-2.928-63.976-20.06-9.746-10.457-16.903-23.81-18.677-38.089-.159-2.5.305-6 3.282-6.608" style="fill:none;stroke:#000;stroke-width:.999998;stroke-miterlimit:2;stroke-dasharray:none"/><path d="M-172.693 818.278c9.399 4.647 12.275 16.194 11.843 25.903-1.086 19.832-14.488 37.114-30.713 47.585-15.753 10.307-35.784 14.258-54.071 9.205-14.5-3.918-28.13-11.293-39.328-21.299-2.603-2.003-3.456-5.578.517-6.611" style="fill:none;stroke:#000;stroke-width:.999998;stroke-miterlimit:2;stroke-dasharray:none"/><path d="M-165.461 841.76s6.594 1.09 10.277.2c11.135-2.688 23.483-11.176 30.29-20.261 3.434-4.584 6.178-9.692 8.549-14.906 2.555-5.62 4.564-11.5 6.17-17.46 4.577-17.003 5.323-34.899 2.076-52.204-2.457-13.095-3.786-15.72-9.513-27.219-1.799-3.61-4.238-6.902-6.85-9.975-6.195-7.288-14.654-12.666-24.376-13.3-7.047-.46-9.208.6-15.384 3.404-2.328 1.057-4.358 2.716-6.289 4.392-5.782 5.022-9.489 11.798-11.928 18.958-.645 1.893-3.427 5.3-1.494 5.81M-401.663 658.602c1.683.75 2.862-.537 3.53-1.932 2.653-5.545 1.854-12.404.585-18.024-1.81-8.015-2.918-11.811-8.155-18.712-8.315-10.957-21.101-17.485-34.396-20.13-5.314-1.058-10.763-1.538-16.18-1.531-5.628.008-11.274.56-16.81 1.57-19.799 3.606-40.422 13.667-53.971 28.794-2.885 3.22-5.477 6.74-7.638 10.485-1.994 3.458-3.543 7.189-4.751 10.994-3.71 11.69-3.054 24.311 1.052 35.769.499 1.39 1.234 2.685 1.85 4.027" style="fill:none;stroke:#000;stroke-width:.999998;stroke-miterlimit:2;stroke-dasharray:none"/><path d="M-286.116 687.346c3.447 1.178 6.54-5.69 7.049-6.581 6.1-10.691 10.544-22.354 12.394-34.478 1.489-9.753 2.576-16.062-1.115-25.577-5.062-13.051-17.875-18.68-30.676-21.205-5.42-1.068-10.958-1.603-16.48-1.724-5.768-.127-11.556.265-17.28.984-20.136 2.532-39.81 9.882-56.355 21.672-2.86 2.037-5.62 4.235-8.154 6.664-2.04 1.957-3.919 4.11-5.515 6.442-4.901 7.163-5.902 16.148-1.162 23.478.426.66 1.03 1.26 1.747 1.58" style="fill:none;stroke:#000;stroke-width:.999998;stroke-miterlimit:2;stroke-dasharray:none"/><path d="M-170.348 716.164s7.793-17.723 7.748-31.344c-.038-11.196-2.83-21.146-9.568-30.212-3.363-4.526-7.58-8.447-12.092-11.828-5.021-3.762-10.56-6.872-16.286-9.438-17.337-7.77-35.331-10.62-53.77-5.067-9.318 2.806-13.422 6.305-20.505 12.443-2.734 2.368-4.979 5.286-7.03 8.265-5.91 8.582-9.21 20.096-7.809 30.523.232 1.728.6 3.474 1.318 5.063.489 1.081 1.103 2.393 2.226 2.777M859.8 372.505c5.19 3.98 8.974 6.68 16.317 8.242 12.845 2.733 27.234 3.037 38.933-3.394 11.607-6.38 23.27-18.489 27.49-34.349 5.285-19.853 5.433-45.179 0-71.825-4.5-22.094-11.27-37.132-23.25-52.12-5.62-7.033-16.613-15.704-25.982-16.792-14.27-1.657-32.253 4.68-37.674 14.625-1.52 2.787-5.268 3.33-5.723 6.548M-30.244 1105.183c-7.446 6.938-14.957 9.92-27.511 9.704-11.78-.202-21.713-4.691-31.031-13.922-14.706-14.57-19.886-33.382-22.167-53.265-3.614-31.5 1.904-64.145 16.686-92.365 9.148-17.465 21.04-34.698 38.202-45.044 8.134-4.903 18.317-7.405 25.688-7.045 4.778.234 12.43 2.142 16.61 6.977M106.58 1108.967c-4.334 2.758-1.557 20.22 4.586 29.208 12.474 18.25 28.887 28.613 47.248 34.09 24.071 7.18 50.578 5.77 74.28-3.308 12.348-4.729 24.837-17.448 27.912-31.706 1.833-8.499-3.034-17.478-4.31-15.866" style="fill:none;stroke:#000;stroke-width:.999998;stroke-miterlimit:2;stroke-dasharray:none"/><path d="M-29.117 1103.373c-1.555 14.587 4.097 28.825 12.785 39.934 10.699 13.68 29.767 23.465 51.043 25.788 11.12 1.214 25.362.724 36.116-2.7 12.816-4.08 23.592-12.966 29.91-23.997 4.752-8.296 6.714-18.392 7.759-28.007.182-1.677-.195-4.647-1.893-5.72M256.296 1121.385c.129 15.76 15.118 29.958 34.893 36.751 13.146 4.516 29.25 4.083 42.234-.34 10.499-3.578 17.832-10.08 24.046-17.85 7.095-8.872 11.098-20.228 12.002-30.731.64-7.434-.54-15.722-5.553-20.463-2.93-2.674-5.898-4.5-6.498-2.233M163.718 896.752c-3.813-6.844.462-15.743 5.249-20.96 8.008-8.725 19.118-14.513 29.944-18.777 23.065-9.087 49.813-10.38 79.108-4.76 13.09 2.511 35.97 10.547 45.472 20.065 9.68 9.697 15.094 19.464 15.094 33.15 0 8.553-1.902 16.113-9.885 21.33" style="fill:none;stroke:#000;stroke-width:.999998;stroke-miterlimit:2;stroke-dasharray:none"/><path d="M-13.767 910.223c-.54-7.706 2.41-15.133 7.298-21.363 14.586-18.59 38.187-29 61.535-35.714 25.158-6.853 53.39-8.71 78.075.893 16.205 6.657 26.66 21.385 31.97 36.326.226 1.582 2.41 7.563-1.393 6.387" style="fill:none;stroke:#000;stroke-width:.999998;stroke-miterlimit:2;stroke-dasharray:none"/><path d="M357.42 1086.52c5.86 2.902 10.093 4.822 17.6 4.938 13.13.204 27.307-2.274 37.546-10.842 10.158-8.499 19.265-22.63 20.348-39.006 1.355-20.5-3.386-45.378-13.853-70.476-8.679-20.812-18.223-34.26-32.869-46.656-6.872-5.816-19.331-12.204-28.733-11.464-14.323 1.127-30.745 10.814-34.146 21.619-.953 3.028-4.526 4.284-4.352 7.529" style="fill:none;stroke:red;stroke-width:.999998;stroke-miterlimit:2;stroke-dasharray:none"/><path d="M-112.637 161.043c-7.446 6.46-14.957 9.235-27.511 9.034-11.779-.188-21.713-4.367-31.031-12.96-14.706-13.562-19.886-31.075-22.167-49.585-3.613-29.323 1.904-59.712 16.686-85.982 9.148-16.26 21.04-31.296 38.203-40.927 8.133-4.565 18.316-6.894 25.688-6.558 4.777.217 12.43.988 16.609 5.49M-96.16-20.445c.213-8.236 3.812-19.96 8.222-27.174 15.87-24.653 33.69-37.258 60.611-46.224 26.105-8.695 55.522-9.065 78.075 1.958 15.74 7.694 26.66 22.807 31.97 37.747.227 1.582 2.41 7.563-1.393 6.387M207.891-62.383c-7.446 6.938-14.957 9.92-27.511 9.705-11.779-.203-21.713-4.692-31.031-13.923-14.706-14.569-19.886-33.382-22.167-53.265-3.613-31.5 1.904-64.145 16.686-92.365 9.148-17.465 21.04-34.698 38.203-45.044 8.133-4.903 18.316-7.405 25.688-7.045 4.777.234 12.43 2.142 16.609 6.977" style="fill:none;stroke:#000;stroke-width:.999998;stroke-miterlimit:2;stroke-dasharray:none"/><path d="M224.368-257.343c-8.354-8.416-5.594-17.023-1.583-23.85 5.705-9.71 18.747-19.104 36.313-28.253 29.744-15.493 84.296-16.526 112.178-4.081 15.999 7.14 26.66 21.385 31.97 36.326.226 1.582 2.41 7.563-1.393 6.387M723.522-175.154c-4.335 2.758-1.558 20.22 4.585 29.207 12.474 18.251 28.887 28.613 47.248 34.09 24.071 7.181 50.578 5.771 74.28-3.307 12.348-4.73 24.837-17.449 27.912-31.706 1.833-8.5-3.034-17.478-4.31-15.866" style="fill:none;stroke:#000;stroke-width:.999998;stroke-miterlimit:2;stroke-dasharray:none"/><path d="M587.824-180.748c-1.555 14.587 4.097 28.825 12.785 39.933 10.698 13.68 29.767 23.465 51.043 25.788 11.119 1.214 25.362.725 36.116-2.699 12.815-4.08 23.592-12.967 29.91-23.997 4.752-8.296 6.714-18.393 7.759-28.008.182-1.677-.195-4.647-1.893-5.72M873.237-162.736c.129 15.76 15.118 29.958 34.893 36.751 13.146 4.516 29.25 4.083 42.234-.341 10.499-3.578 17.832-10.08 24.047-17.85 7.094-8.871 11.097-20.227 12-30.73.64-7.434-.538-15.722-5.552-20.463-2.93-2.674-5.898-4.501-6.498-2.233M780.659-387.37c-3.813-6.844.462-15.743 5.249-20.959 8.008-8.726 19.118-14.513 29.944-18.778 23.065-9.086 49.813-10.379 79.108-4.76 13.09 2.512 35.97 10.547 45.472 20.066 9.68 9.697 15.094 19.464 15.094 33.15 0 8.552-1.902 16.113-9.885 21.329" style="fill:none;stroke:#000;stroke-width:.999998;stroke-miterlimit:2;stroke-dasharray:none"/><path d="M974.36-197.602c5.86 2.903 10.094 4.823 17.6 4.939 13.131.203 27.308-2.274 37.547-10.842 10.158-8.5 19.265-22.63 20.348-39.006 1.355-20.5-3.386-45.379-13.853-70.477-8.679-20.811-18.223-34.26-32.869-46.655-6.872-5.817-19.331-12.204-28.733-11.464-14.323 1.127-30.745 10.814-34.146 21.618-.953 3.028-4.526 4.285-4.352 7.53M587.702-179.787c-7.446 6.659-14.957 9.521-27.512 9.314-11.778-.194-21.712-4.503-31.03-13.363-14.707-13.983-19.887-32.04-22.167-51.124-3.614-30.234 1.903-61.567 16.685-88.653 9.149-16.764 21.041-33.304 38.203-43.234 8.133-4.706 18.316-7.107 25.688-6.762 4.778.225 12.43 2.056 16.61 6.697" style="fill:none;stroke:#000;stroke-width:.999998;stroke-miterlimit:2;stroke-dasharray:none"/><path d="M603.633-366.894c-8.92-7.814-6.27-18.229-3.242-23.681 7.274-13.099 18.676-22.207 34.253-30.718 32.152-17.57 82.75-21.835 111.62-11.897 17.086 5.882 31.353 18.972 34.677 34.008.345 1.56 1.927 7.753-1.195 6.469" style="fill:none;stroke:#000;stroke-width:.999998;stroke-miterlimit:2;stroke-dasharray:none"/><path d="M-181.623 258.882c-.329.1-.666.176-.986.302-2.211.863-4.295 2.266-5.722 4.173-.752 1.005-1.314 2.108-1.632 3.23-.558 1.971-.322 4.249.792 5.993 1.242 1.945 3.686 3.008 5.514 3.493 2.298.61 5.164.29 6.854-.226 3.103-.947 5.141-2.391 6.393-4.508.861-1.456 1.111-2.972 1.006-4.484a6.478 6.478 0 0 0-1.374-3.53c-1.048-1.333-1.973-2.1-3.377-2.798-1.532-.761-3.235-1.203-4.937-1.368-1.748-.17-2.722-.178-4.314.21" style="fill:#e5f6ff;fill-opacity:1;stroke:#000;stroke-width:.899999;stroke-miterlimit:2;stroke-dasharray:none"/><path d="M1046.622 72.967c-1.554 14.587 4.098 28.825 12.785 39.933 10.699 13.68 29.767 23.465 51.044 25.788 11.119 1.214 25.362.725 36.115-2.7 12.816-4.08 23.592-12.966 29.91-23.996 4.753-8.296 6.714-18.393 7.76-28.008.181-1.677-.196-4.647-1.905-5.572-4.346 2.907-1.568 20.37 4.574 29.356 12.475 18.251 28.887 28.613 47.249 34.09 24.07 7.181 50.578 5.771 74.28-3.307 12.348-4.73 24.837-17.449 27.912-31.706 1.832-8.5-3.034-17.478-4.31-15.866.128 15.76 15.118 29.958 34.892 36.75 13.147 4.517 29.25 4.084 42.234-.34 10.5-3.578 17.833-10.08 24.047-17.85 7.094-8.871 11.097-20.227 12.001-30.73.64-7.434-.539-15.722-5.553-20.463-2.929-2.674-5.898-4.501-6.498-2.233 5.86 2.903 10.093 4.823 17.6 4.939 13.13.203 27.308-2.274 37.547-10.842 10.157-8.5 19.265-22.63 20.347-39.007 1.355-20.5-2.2-45.937-13.142-70.831-8.679-19.746-19.644-34.615-33.58-46.3-6.898-5.785-19.304-11.392-28.733-11.198-11.412.235-22.26 5.553-28.75 13.022 7.975-4.72 9.876-12.28 9.876-20.832 0-13.686-5.414-23.453-15.094-33.15-9.501-9.519-32.382-17.554-45.471-20.065-29.295-5.62-56.043-4.328-79.109 4.76-10.825 4.264-21.936 10.051-29.944 18.777-4.787 5.216-8.464 14.278-6.161 15.616 3.121 1.284 1.54-4.909 1.195-6.47-3.324-15.035-17.592-28.125-34.677-34.007-28.87-9.938-79.468-5.673-111.62 11.897-15.578 8.511-26.98 17.62-34.254 30.718-3.028 5.452-5.678 15.867 3.515 23.672-3.906-4.65-11.559-6.481-16.336-6.706-7.372-.345-17.555 2.056-25.688 6.762-17.162 9.93-29.055 26.47-38.203 43.234-14.782 27.086-20.3 58.419-16.686 88.652 2.28 19.085 7.46 37.141 22.167 51.125 9.318 8.86 19.252 13.169 31.031 13.363 12.554.207 20.898-3.083 28.344-9.742M1240.794 466.337c-1.554 14.586 4.098 28.825 12.786 39.933 10.698 13.68 29.766 23.465 51.043 25.788 11.119 1.214 25.362.725 36.115-2.7 12.816-4.08 23.592-12.966 29.91-23.996 4.753-8.296 6.714-18.393 7.76-28.008.181-1.677-.195-4.647-1.905-5.572-4.346 2.906-1.568 20.37 4.574 29.356 12.475 18.25 28.887 28.613 47.249 34.09 24.07 7.181 50.578 5.771 74.28-3.307 12.348-4.73 24.837-17.45 27.912-31.706 1.833-8.5-3.034-17.478-4.31-15.867.129 15.76 15.118 29.959 34.893 36.752 13.146 4.516 29.25 4.082 42.233-.342 10.5-3.577 17.833-10.08 24.047-17.85 7.095-8.87 11.097-20.227 12.001-30.73.64-7.433-.539-15.722-5.553-20.463-2.929-2.673-5.898-4.5-6.498-2.233 5.86 2.903 10.093 4.824 17.6 4.94 13.131.203 27.308-2.275 37.547-10.842 10.157-8.5 19.265-22.63 20.347-39.007 1.355-20.5-2.2-45.937-13.142-70.831-8.679-19.746-19.644-34.616-33.58-46.3-6.898-5.785-19.304-11.392-28.733-11.198-11.412.235-22.26 5.553-28.75 13.022 7.975-4.72 9.876-12.28 9.876-20.832 0-13.686-5.414-23.453-15.093-33.15-9.502-9.52-32.383-17.555-45.472-20.066-29.295-5.62-56.043-4.327-79.108 4.76-10.826 4.265-21.936 10.052-29.945 18.778-4.787 5.216-8.464 14.278-6.16 15.615 3.12 1.285 1.539-4.908 1.194-6.468-3.324-15.037-17.591-28.126-34.677-34.008-28.87-9.938-79.468-5.673-111.62 11.896-15.578 8.512-26.98 17.62-34.254 30.718-3.028 5.453-5.678 15.868 3.515 23.672-3.906-4.65-11.559-6.48-16.336-6.705-7.372-.346-17.555 2.056-25.688 6.762-17.162 9.93-29.055 26.47-38.203 43.234-14.782 27.085-20.3 58.418-16.686 88.652 2.281 19.085 7.46 37.141 22.167 51.124 9.318 8.86 19.26 12.896 31.031 13.364 11.933.473 23.474-.863 30.92-7.522" style="fill:#e5f6ff;fill-opacity:1;stroke:#000;stroke-width:.999998;stroke-miterlimit:2;stroke-dasharray:none"/></svg>