<svg xmlns="http://www.w3.org/2000/svg" id="svg1119" width="800" height="360" preserveAspectRatio="none" version="1.1" viewBox="-75.2 -68.829 800 360"><style id="style996" type="text/css">.arrows,.axes{stroke:#000;stroke-width:.9}.arrows{stroke-width:1.1;fill:none;stroke-linecap:round;stroke-linejoin:round}.graph{stroke:red;stroke-width:1.7;fill:none}</style><defs id="defs1005"><path id="STIXWEBMAINI-78" stroke-width="1" d="m243 355 12-57c70 107 107 143 151 143 24 0 41-15 41-37 0-21-14-36-34-36-19 0-28 17-52 17-18 0-54-44-98-121 0-7 2-21 8-45l32-134c7-28 16-41 30-41 13 0 24 10 47 40 9 12 13 18 21 28l15-9C358 13 332-11 294-11c-32 0-47 18-59 68l-29 119-88-119C74-2 54-11 23-11S-27 5-27 31c0 20 14 36 34 36 9 0 19-4 32-11 10-6 20-9 26-9 11 0 30 19 51 49l82 116-28 124c-14 60-21 68-46 68-8 0-20-2-39-7l-18-5-3 16 11 4c61 22 94 29 117 29 25 0 37-18 51-86z"/><path id="STIXWEBMAIN-32" stroke-width="1" d="M474 137 420 0H29v12l178 189c94 99 130 175 130 260 0 91-54 141-139 141-72 0-107-32-147-130l-21 5c21 117 85 199 208 199 113 0 185-77 185-176 0-79-39-154-128-248L130 76h234c42 0 63 11 96 67z"/><path id="STIXWEBMAIN-2212" stroke-width="1" d="M621 220H64v66h557z"/><path id="STIXWEBMAIN-31" stroke-width="1" d="M394 0H118v15c74 4 95 25 95 80v449c0 34-9 49-30 49-10 0-27-5-45-12l-27-10v14l179 91 9-3V76c0-43 20-61 95-61z"/><path id="STIXWEBMAIN-30" stroke-width="1" d="M476 330c0-172-63-344-226-344C79-14 24 172 24 336c0 177 69 340 230 340 131 0 222-141 222-346Zm-96-5c0 208-44 325-132 325-83 0-128-118-128-321S164 12 250 12c85 0 130 115 130 313z"/><path id="STIXWEBMAIN-2E" stroke-width="1" d="M181 43c0-29-26-54-56-54-31 0-55 24-55 55s25 56 56 56c29 0 55-27 55-57z"/><path id="STIXWEBMAIN-35" stroke-width="1" d="m438 681-36-85c-3-7-11-13-27-13H181l-40-85c143-27 193-49 250-128 26-36 35-74 35-127 0-96-30-158-98-208-47-34-102-49-170-49C83-14 31 10 31 48c0 25 17 38 45 38 23 0 42-5 74-31 28-23 51-32 71-32 70 0 135 83 135 169 0 64-22 114-67 150-47 38-117 70-213 70-9 0-12 2-12 8 0 2 1 5 1 5l109 237h207c23 0 32 5 48 26z"/></defs><g id="layer1"><g id="text146923" aria-label="STEP 3" style="font-size:32px;font-family:Palatino;-inkscape-font-specification:Palatino;opacity:1;fill:#f6ffd5;stroke-width:1.3;stroke-linejoin:round;stroke-miterlimit:2"><path id="path146925" d="m-229.324 244.66 1.408.544q1.088.384 2.112.928 1.024.512 1.792 1.248.8.704 1.28 1.696.48.96.48 2.24 0 1.568-.704 2.72-.672 1.152-1.792 1.92-1.088.736-2.464 1.088-1.376.384-2.752.384-1.568 0-3.04-.352t-2.624-.928q-.512-.288-.512-.96l.096-2.976q.064-.8.832-.8h.704q.704 0 .864.736l.416 2.304q.064.448.416.736.384.256.864.416.512.128 1.024.16.544.032.896.032 2.08 0 3.264-.896 1.184-.928 1.184-2.624 0-.768-.32-1.312-.288-.544-.8-.928-.48-.416-1.12-.672-.608-.288-1.248-.512l-1.344-.48q-2.592-1.024-4.096-2.528-1.472-1.504-1.472-3.808 0-1.504.608-2.592.64-1.12 1.632-1.856 1.024-.736 2.304-1.088 1.312-.352 2.656-.352 1.44 0 2.656.352 1.216.352 2.24.928.576.32.512.992l-.16 2.72q-.032.768-.8.768h-.704q-.704 0-.864-.736l-.416-2.24q-.096-.64-.672-.832-.864-.32-1.856-.32-.768 0-1.472.224-.704.192-1.248.608-.544.384-.864 1.024-.32.608-.32 1.472 0 1.408.864 2.176.864.736 2.56 1.376z" style="font-family:&quot;Song Myung&quot;;-inkscape-font-specification:&quot;Song Myung&quot;;fill:#000"/><path id="path146927" d="M-205.228 238.996q-.096-.736-.864-.736h-3.648l-.064 1.92V252.916q.032.768.032 1.568.064.8.768.832l1.44.16q.768.096.768.768 0 .704-.8.704h-8.128q-.8 0-.8-.704t.768-.768l1.44-.16q.736-.096.768-.832v-1.536q.032-.8.032-1.568v-9.152q0-1.024-.032-1.984 0-.992-.032-1.984h-3.648q-.768 0-.864.736l-.384 2.496q-.096.736-.864.736h-.512q-.8 0-.768-.8l.128-4q.064-.8.832-.8h16q.768 0 .832.8l.128 4q.032.8-.768.8h-.512q-.768 0-.864-.736z" style="font-family:&quot;Song Myung&quot;;-inkscape-font-specification:&quot;Song Myung&quot;;fill:#000"/><path id="path146929" d="M-186.668 252.276q.16-.736.864-.736h.448q.864 0 .8.832l-.16 3.808q-.032.768-.8.768h-14.592q-.8 0-.8-.704t.768-.768l1.152-.128q.736-.096.768-.832v-1.536q.032-.8.032-1.6v-9.152q0-.8-.032-1.568v-1.6q-.064-.736-.768-.832l-1.152-.128q-.768-.096-.768-.768 0-.704.8-.704h13.984q.768 0 .8.768l.16 3.808q.064.832-.8.832h-.448q-.736 0-.864-.704l-.448-2.368q-.128-.704-.864-.704h-5.824l-.064 1.856v5.6h3.52q.736 0 .832-.736l.192-1.344q.096-.736.832-.736.8 0 .8.8v5.568q0 .8-.768.8t-.864-.736l-.16-1.312q-.096-.736-.864-.736h-3.52v6.144l.064 1.92h6.464q.704 0 .864-.736z" style="font-family:&quot;Song Myung&quot;;-inkscape-font-specification:&quot;Song Myung&quot;;fill:#000"/><path id="path146931" d="M-175.276 249.012h-.736v4.288q.032.576.032 1.216.032.704.768.8l1.312.128q.768.096.768.8 0 .704-.8.704h-7.712q-.8 0-.8-.704t.768-.768l1.152-.128q.736-.096.768-.832v-1.536q.032-.8.032-1.6v-9.152q0-.8-.032-1.568v-1.6q-.064-.736-.768-.832l-1.152-.128q-.768-.096-.768-.768 0-.704.8-.704h7.488q1.504 0 2.976.288 1.472.256 2.624.96 1.184.672 1.888 1.856.736 1.152.736 2.944 0 1.952-.864 3.2-.864 1.216-2.24 1.92-1.344.704-3.008.96-1.632.256-3.232.256zm.704-10.816h-1.376l-.064 1.952v7.296h1.216q2.752 0 4-1.312 1.248-1.312 1.248-3.392 0-2.208-1.216-3.36-1.184-1.184-3.808-1.184z" style="font-family:&quot;Song Myung&quot;;-inkscape-font-specification:&quot;Song Myung&quot;;fill:#000"/><path id="path146933" d="M-151.596 238.292q-.608.032-.736.736l-.256 1.216q-.256 1.12-.704 1.568-.416.448-1.152.448-1.12 0-1.696-1.088.096-1.152.64-1.984.544-.832 1.344-1.344.832-.544 1.824-.8 1.024-.256 2.048-.256 1.12 0 2.24.288 1.12.256 1.984.864.864.576 1.408 1.504.544.928.544 2.208 0 1.792-1.12 3.04-1.088 1.216-3.04 1.856 4.864.864 4.864 5.056 0 1.536-.64 2.624-.608 1.088-1.632 1.792t-2.336 1.024q-1.312.352-2.656.352-1.152 0-2.208-.256-1.056-.256-1.92-.8-.832-.576-1.376-1.44-.544-.896-.64-2.144.288-.64.704-.864.416-.256.96-.256.768 0 1.216.48.48.48.768 1.824l.224 1.184q.16.736.8.768.192.032.384.032h.352q2.208 0 3.296-1.12 1.12-1.152 1.12-3.296 0-1.888-1.056-3.008t-3.264-1.12h-.704q-.8 0-.8-.8t.8-.8h.448q4.032 0 4.032-3.904 0-1.728-.896-2.656-.896-.96-2.56-.96h-.32q-.128 0-.288.032z" style="font-family:&quot;Song Myung&quot;;-inkscape-font-specification:&quot;Song Myung&quot;;fill:#000"/></g><path id="path72986" fill="#fed341" stroke="#000" stroke-width=".317" d="M-137.492 414.234v39.397h13.52l-25.237 23.564-25.236-23.564h13.52v-39.397z" style="display:inline;fill:#ffd5d5;fill-opacity:1;stroke-width:1.3;stroke-dasharray:none"/><circle id="path37631" cx="-114.202" cy="92.53" r=".012" style="fill:#000;stroke:#000"/><path id="path63059" d="M-37.812-337.485c100.73 162.645 201.462 162.645 302.193 0" class="graph" style="display:inline;stroke:#0ff;stroke-width:.700001;stroke-dasharray:none"/><g id="g128314" transform="translate(-299.32 190.753)"><path id="path128308" d="M45.779 512.984c-.236 1.947-.262 4.007.434 5.873.132.352.328.676.492 1.014.571.803 1.148 1.315 2.173 1.382.922.06 1.718-.336 2.517-.723 1.964-1.119 2.754-2.577 3.567-4.597.187-.475.343-.961.493-1.449.02-.07.04-.14.064-.208.01-.027.061-.079.034-.077-.233.02-.459.088-.688.132-.091.384.088 1.109.16 1.483.13.693.228 1.078.391 1.783.651 2.322 1.272 4.649 1.745 7.014.135 1.172.378 2.486-.143 3.61-.322.697-.589.825-1.158 1.336-.325.183-.634.395-.973.55-1.354.62-3.13.857-4.586.53-.321-.072-.624-.212-.936-.317-.586-.342-.81-.405-1.25-.897-.127-.14-.215-.31-.322-.466l-.625.425c.136.19.251.4.41.573.519.571.771.644 1.452 1.043.35.12.69.277 1.05.362 1.793.419 3.725.07 5.359-.736.372-.184.705-.44 1.057-.66.663-.664.912-.777 1.272-1.644.512-1.233.286-2.628.125-3.9-.478-2.371-1.099-4.705-1.75-7.033-.26-1.123-.51-2.246-.603-3.396-.243.017-.49 0-.727.053-.007.002-.08.246-.106.327-.146.47-.301.937-.483 1.395-.69 1.686-1.381 3.016-2.975 4.022-.973.515-2.322 1.208-3.34.36-.209-.174-.353-.411-.53-.617-.15-.304-.33-.595-.449-.913-.666-1.775-.626-3.742-.396-5.594l-.755-.04z" style="opacity:1;fill:#000;stroke:#000;stroke-width:.6;stroke-linejoin:round;stroke-miterlimit:2;stroke-dasharray:none;stroke-opacity:1"/><path id="path128310" d="M61.549 519.263c-.83-.113-1.746.688-2.112 1.382-.092.175-.13.374-.196.562-.008.181-.045.364-.025.544.127 1.125 1.046 1.535 1.98 1.886a4.2 4.2 0 0 0 3.014-.535c.208-.129.396-.285.594-.428.693-.835.864-1.35.277-2.295-.655-.817-1.581-1.237-2.58-1.46-1.163-.151-2.073.271-2.91 1.06l.629.419c.146-.128.276-.278.44-.381a2.443 2.443 0 0 1 1.579-.389c.842.156 1.63.493 2.202 1.154.078.116.191.26.228.4.102.396-.226.767-.464 1.032-.513.495-1.448.783-2.152.793-.172.002-.342-.029-.513-.043-.845-.293-1.649-.566-1.556-1.618.047-.128.072-.267.14-.385.154-.27.775-.959 1.138-1l.287-.698z" style="opacity:1;fill:#000;stroke:#000;stroke-width:.6;stroke-linejoin:round;stroke-miterlimit:2;stroke-dasharray:none;stroke-opacity:1"/></g><g id="text146919" aria-label="STEP 2" style="font-size:32px;font-family:Palatino;-inkscape-font-specification:Palatino;opacity:1;fill:#f6ffd5;stroke-width:1.3;stroke-linejoin:round;stroke-miterlimit:2"><path id="path146947" d="m-236.971 328.781 1.408.544q1.088.384 2.112.928 1.024.512 1.792 1.248.8.704 1.28 1.696.48.96.48 2.24 0 1.568-.704 2.72-.672 1.152-1.792 1.92-1.088.736-2.464 1.088-1.376.384-2.752.384-1.568 0-3.04-.352t-2.624-.928q-.512-.288-.512-.96l.096-2.976q.064-.8.832-.8h.704q.704 0 .864.736l.416 2.304q.064.448.416.736.384.256.864.416.512.128 1.024.16.544.032.896.032 2.08 0 3.264-.896 1.184-.928 1.184-2.624 0-.768-.32-1.312-.288-.544-.8-.928-.48-.416-1.12-.672-.608-.288-1.248-.512l-1.344-.48q-2.592-1.024-4.096-2.528-1.472-1.504-1.472-3.808 0-1.504.608-2.592.64-1.12 1.632-1.856 1.024-.736 2.304-1.088 1.312-.352 2.656-.352 1.44 0 2.656.352 1.216.352 2.24.928.576.32.512.992l-.16 2.72q-.032.768-.8.768h-.704q-.704 0-.864-.736l-.416-2.24q-.096-.64-.672-.832-.864-.32-1.856-.32-.768 0-1.472.224-.704.192-1.248.608-.544.384-.864 1.024-.32.608-.32 1.472 0 1.408.864 2.176.864.736 2.56 1.376z" style="font-family:&quot;Song Myung&quot;;-inkscape-font-specification:&quot;Song Myung&quot;;fill:#000"/><path id="path146949" d="M-212.875 323.117q-.096-.736-.864-.736h-3.648l-.064 1.92V337.037q.032.768.032 1.568.064.8.768.832l1.44.16q.768.096.768.768 0 .704-.8.704h-8.128q-.8 0-.8-.704t.768-.768l1.44-.16q.736-.096.768-.832v-1.536q.032-.8.032-1.568v-9.152q0-1.024-.032-1.984 0-.992-.032-1.984h-3.648q-.768 0-.864.736l-.384 2.496q-.096.736-.864.736h-.512q-.8 0-.768-.8l.128-4q.064-.8.832-.8h16q.768 0 .832.8l.128 4q.032.8-.768.8h-.512q-.768 0-.864-.736z" style="font-family:&quot;Song Myung&quot;;-inkscape-font-specification:&quot;Song Myung&quot;;fill:#000"/><path id="path146951" d="M-194.315 336.397q.16-.736.864-.736h.448q.864 0 .8.832l-.16 3.808q-.032.768-.8.768h-14.592q-.8 0-.8-.704t.768-.768l1.152-.128q.736-.096.768-.832v-1.536q.032-.8.032-1.6v-9.152q0-.8-.032-1.568v-1.6q-.064-.736-.768-.832l-1.152-.128q-.768-.096-.768-.768 0-.704.8-.704h13.984q.768 0 .8.768l.16 3.808q.064.832-.8.832h-.448q-.736 0-.864-.704l-.448-2.368q-.128-.704-.864-.704h-5.824l-.064 1.856v5.6h3.52q.736 0 .832-.736l.192-1.344q.096-.736.832-.736.8 0 .8.8v5.568q0 .8-.768.8t-.864-.736l-.16-1.312q-.096-.736-.864-.736h-3.52v6.144l.064 1.92h6.464q.704 0 .864-.736z" style="font-family:&quot;Song Myung&quot;;-inkscape-font-specification:&quot;Song Myung&quot;;fill:#000"/><path id="path146953" d="M-182.923 333.133h-.736v4.288q.032.576.032 1.216.032.704.768.8l1.312.128q.768.096.768.8 0 .704-.8.704h-7.712q-.8 0-.8-.704t.768-.768l1.152-.128q.736-.096.768-.832v-1.536q.032-.8.032-1.6v-9.152q0-.8-.032-1.568v-1.6q-.064-.736-.768-.832l-1.152-.128q-.768-.096-.768-.768 0-.704.8-.704h7.488q1.504 0 2.976.288 1.472.256 2.624.96 1.184.672 1.888 1.856.736 1.152.736 2.944 0 1.952-.864 3.2-.864 1.216-2.24 1.92-1.344.704-3.008.96-1.632.256-3.232.256zm.704-10.816h-1.376l-.064 1.952v7.296h1.216q2.752 0 4-1.312 1.248-1.312 1.248-3.392 0-2.208-1.216-3.36-1.184-1.184-3.808-1.184z" style="font-family:&quot;Song Myung&quot;;-inkscape-font-specification:&quot;Song Myung&quot;;fill:#000"/><path id="path146955" d="M-161.1 337.933h9.088q.8 0 .8.8v1.536q0 .8-.8.8h-11.296q-.8 0-.8-.8v-.896q0-.608.384-.992l4.064-4.192q2.112-2.208 3.136-4.032 1.056-1.824 1.056-3.744 0-1.888-.96-2.944-.928-1.088-2.624-1.088-.256 0-.416.032-.672.064-.832.736l-.352 1.408q-.288 1.376-.768 1.856-.48.48-1.152.48-1.216 0-1.728-1.088.064-1.312.64-2.24.608-.928 1.504-1.504.896-.608 2.016-.864 1.152-.288 2.304-.288 1.248 0 2.304.288 1.088.288 1.888.928.8.608 1.248 1.568.448.96.448 2.304 0 1.184-.384 2.176-.352.992-1.12 2.016-.768 1.024-1.952 2.24-1.184 1.184-2.816 2.752z" style="font-family:&quot;Song Myung&quot;;-inkscape-font-specification:&quot;Song Myung&quot;;fill:#000"/></g><rect id="rect164854" width="165.183" height="341.071" x="-403.116" y="879.596" ry="0" style="fill:#f0f;stroke:#000;stroke-width:1.3;stroke-linejoin:round;stroke-miterlimit:2"/></g><g id="layer3" style="display:inline"><g id="g210579" transform="translate(0 -367.71)"><path id="path149259" fill="#fed341" stroke="#000" stroke-width=".317" d="M4.339 474.117h86.994l15.073 16.144-15.078 16.144H4.338z" style="display:inline;fill:#ffd5d5;fill-opacity:1;stroke-width:1.3;stroke-dasharray:none"/><path id="path126758" d="M305.269 573.608c1.848.004 3.664.17 5.343.12 1.889-.055 3.466.064 5.354.126 1.34.043 2.683.043 4.024.04 1.057-.004 2.113-.078 3.168-.02 1.367.075 2.735.06 4.104.072.999.01 1.998-.003 2.997-.016.146-.002.306.023.437-.007l.136-.746c-.15.004-.448.003-.577.005-.993.016-1.84.03-2.834.023-1.36-.01-2.722.015-4.08-.068-1.067-.066-2.135.008-3.203.012-1.332.006-2.664.008-3.995-.034-1.9-.06-3.49-.188-5.392-.132-1.679.05-3.663-.149-5.343-.12.004.297-.093.497-.14.745z" style="opacity:1;fill:#000;stroke:#000;stroke-width:.6;stroke-linejoin:round;stroke-miterlimit:2;stroke-dasharray:none;stroke-opacity:1"/><path id="path126118" d="M146.478 490.836c8.049.071 16.095.013 24.143-.137 11.596-.216 23.193.184 34.79.186 13.347.002 26.692.448 40.04.478l42.525.097c14.544.042 28.941-.308 43.629-.188 15.177.123 30.499.074 45.53.105 12.838.028 25.672-.398 38.508-.234 11.078.142 22.152.357 33.228.123 9.23-.195 18.46-.082 27.69-.135 1.971-.01 3.943-.017 5.915-.019l.107-.742c-1.972 0-3.945.008-5.918.018-9.231.053-18.463-.06-27.694.134-11.072.234-22.143.022-33.217-.12-12.835-.165-25.669.15-38.506.235-15.47.1-30.359.016-45.54-.11-14.54-.119-29.082.231-43.624.19l-42.526-.096c-13.347-.031-26.693-.476-40.04-.479-11.6-.002-23.199-.403-34.797-.188-8.045.15-16.089.209-24.135.14l-.108.741z" style="display:inline;opacity:1;fill:#000;stroke:#000;stroke-width:.6;stroke-linejoin:round;stroke-miterlimit:2;stroke-dasharray:none;stroke-opacity:1"/><path id="path126120" d="M474.71 484.42c4.36 1.655 7.75 2.829 11.52 3.815 3.585.938 5.839 1.478 9.445 2.33.114.035.226.133.343.107.073-.016-.158-.072-.169-.146-.022-.15.2-.351.082-.446-.142-.115-.361.05-.541.076-1.289.187-.702.096-2.324.409-4.49.952-9.193 3.231-12.94 5.703l.076.752c4.027-2.663 7.475-4.7 12.836-5.7.474-.094.947-.196 1.424-.282.286-.051.574-.089.862-.129.554-.078.9.01 1.236-.64.128-.247-.594-.402-.6-.404-3.608-.86-5.874-1.365-9.455-2.334-3.994-1.08-7.21-2.09-11.479-3.799l-.315.687z" style="display:inline;opacity:1;fill:#000;stroke:#000;stroke-width:.6;stroke-linejoin:round;stroke-miterlimit:2;stroke-dasharray:none;stroke-opacity:1"/><path id="path126122" d="M508.841 496.199c2.918-2.902 5.778-5.958 8.597-8.955.697-.74 1.395-1.48 2.095-2.218l-.655-.377c-.7.738-1.399 1.478-2.096 2.219-2.818 2.996-5.68 6.048-8.595 8.952z" style="display:inline;fill:#000;stroke:#000;stroke-width:.6;stroke-linejoin:round;stroke-miterlimit:2;stroke-dasharray:none;stroke-opacity:1"/><path id="path126124" d="M508.363 485.194c1.446 1.479 3.158 3.079 4.658 4.504 1.923 1.81 2.682 2.494 4.447 4.462.505.6 1.16 1.182 1.559 1.78l.019.055-.001.01-.013-.039.75-.1s-.036-.176-.076-.258c-.488-.889-1.106-1.292-1.659-1.934-1.775-1.98-2.543-2.678-4.48-4.498-1.483-1.41-3.175-2.997-4.612-4.453l-.592.471z" style="display:inline;fill:#000;stroke:#000;stroke-width:.6;stroke-linejoin:round;stroke-miterlimit:2;stroke-dasharray:none;stroke-opacity:1"/><path id="path126126" d="M318.882 649.472c-.272-7.246-.288-14.178-.21-21.277.18-16.376-.009-32.752-.186-49.127a3878.126 3878.126 0 0 1-.167-64.373c.132-22.753.13-45.505-.197-68.255-.38-24.478.288-48.96-.19-73.436-.167-8.62.203-17.244.032-25.865l-.75.099s-.2 17.244-.032 25.864c.478 24.475-.191 48.955.189 73.432.327 22.745.327 45.493.196 68.24a3870.24 3870.24 0 0 0 .168 64.39c.178 16.366.365 32.734.184 49.101a482.19 482.19 0 0 0 .212 21.305l.751-.098z" style="opacity:1;fill:#000;stroke:#000;stroke-width:.6;stroke-linejoin:round;stroke-miterlimit:2;stroke-dasharray:none;stroke-opacity:1"/><path id="path126128" d="M309.228 359.493c2-2.43 3.786-5.044 5.012-7.815 1.17-2.645 2.127-4.958 3.05-8.328.334-1.224.6-2.476.731-3.741.032-.27.096-.626-.684.198-.024.025.974 3.21.977 3.219 1.198 3.56 1.892 5.62 2.619 7.632.643 1.778 1.262 3.303 2.054 5.335l.708-.266c-.865-2.125-1.39-3.576-2.06-5.35-1.004-2.657-1.708-4.882-2.61-7.607-.484-1.463-.334-1.025-.696-2.28-.03-.105-.252-.906-.273-.914-.78-.314-.756-.277-.79.037-.14 1.23-.412 2.442-.726 3.636-.851 3.238-1.806 5.684-3.028 8.223-1.359 2.824-2.643 4.92-4.899 7.644.257.082.474.484.615.377z" style="opacity:1;fill:#000;stroke:#000;stroke-width:.6;stroke-linejoin:round;stroke-miterlimit:2;stroke-dasharray:none;stroke-opacity:1"/><path id="path126130" d="M314.315 308.96c-1.319 2.185-1.821 4.065-1.845 6.237-.017 1.559.55 3.207 2.14 3.858.883.362 1.388.373 2.306.22 2.98-.493 4.27-2.337 5.429-4.718.288-.592.63-1.185.812-1.824.066-.233.085-.59.05-.59-.281-.006-.545.14-.818.21-.34 2.127-.068 4.27.303 6.367.45 2.547 1.077 4.365.827 6.816-.037.37-.149.727-.223 1.091-.172.319-.3.666-.516.956-.975 1.306-2.637 2.047-4.221 2.186-.411.036-.824-.045-1.237-.067-.982-.206-1.69-.733-2.402-1.394l-.543.525s1.638 1.364 2.768 1.604c.467.03.933.122 1.399.087 1.905-.14 3.865-1.105 4.96-2.722.233-.346.364-.752.546-1.127.074-.402.185-.799.222-1.206.224-2.486-.525-4.711-.842-6.91-.29-2.012-.622-4.053-.295-6.083-.226-.078-.443-.183-.676-.232-.03-.006.008.06.005.089-.01.083-.022.167-.047.247-.19.603-.5 1.167-.785 1.726-.941 1.848-2.14 3.756-4.603 4.222-.751.142-1.238.167-1.974-.084-1.413-.482-1.825-1.969-1.83-3.285-.008-1.977.478-3.61 1.8-5.94l-.71-.259z" style="opacity:1;fill:#000;stroke:#000;stroke-width:.6;stroke-linejoin:round;stroke-miterlimit:2;stroke-dasharray:none;stroke-opacity:1"/><g id="g126150" transform="translate(155.253 459.773)"><path id="path126146" d="M137.332-58.26c-.568 1.203-1.1 2.432-1.529 3.693-.124.365-.228.735-.342 1.103-.285 1.023-.534 2.067-.591 3.133-.027.499-.015 1.131.137 1.62.068.218.197.413.295.62.156.153.287.337.468.458.962.645 2.462.324 3.463-.04.346-.127.672-.3 1.009-.45.38-.241.779-.457 1.141-.725 1.14-.84 2.088-2.035 2.757-3.276.133-.247.238-.509.357-.763.216-.52.378-1.06.487-1.61.045-.232.081-.453.058-.686-.252 0-.521-.09-.757.002-.097.037-.034.205-.045.308-.014.13-.02.262-.027.393-.04.759-.017 1.506.017 2.266.125 2.344.675 4.636.948 6.961.054.46.083.922.124 1.383.016 1.503 0 2.88-1.33 3.852-.572.419-1.296.57-1.952.775a8.339 8.339 0 0 1-3.571-.014c-.302-.067-.593-.175-.89-.263l-.312.688c.32.097.636.217.962.292a9.083 9.083 0 0 0 3.851.052c1.189-.351 1.551-.338 2.564-1.146 1.371-1.094 1.463-2.753 1.423-4.363-.043-.471-.074-.944-.13-1.414-.273-2.305-.815-4.578-.938-6.901-.035-.82-.052-.879-.035-1.646.004-.183.014-.365.024-.548.007-.117.017-.235.028-.352.003-.034.044-.092.012-.1-.23-.064-.473-.06-.71-.091.016.108-.05.401-.067.485-.105.506-.26 1-.463 1.476-.112.233-.211.474-.336.7a9.719 9.719 0 0 1-3.315 3.52c-.307.146-.605.314-.921.44a6.006 6.006 0 0 1-1.751.416c-.407.035-.77.043-1.136-.15-.126-.068-.222-.18-.333-.27-.078-.153-.182-.294-.234-.457-.138-.434-.142-1.006-.116-1.446.06-1.025.305-2.029.582-3.014.112-.356.215-.715.336-1.069.43-1.251.964-2.467 1.523-3.665l-.735-.178z" style="opacity:1;fill:#000;stroke:#000;stroke-width:.6;stroke-linejoin:round;stroke-miterlimit:2;stroke-dasharray:none;stroke-opacity:1"/><path id="path126148" d="M149.694-50.004c-.9-.04-1.709.56-2.376 1.093-.558.521-1.135 1.235-1.012 2.059.02.133.079.257.118.385.075.111.134.235.224.334.552.604 1.406.593 2.153.551.753-.095 1.461-.364 2.055-.842.087-.07.156-.16.234-.241.32-.42.528-.932.468-1.47-.011-.106-.044-.21-.067-.314-.287-.797-.837-1.063-1.614-1.25-.365-.074-.734-.056-1.102-.04l-.107.749c.314-.022.63-.052.943-.002.474.08.98.25 1.152.746.102.438-.016.844-.315 1.182-.062.057-.126.112-.185.171-.015.015-.019.04-.036.052-.4.27-.855.429-1.328.51-.512.046-1.204.141-1.63-.233-.054-.047-.091-.111-.137-.167-.024-.064-.062-.125-.074-.193-.105-.623.457-1.154.861-1.53.467-.353.935-.7 1.515-.84l.26-.71z" style="opacity:1;fill:#000;stroke:#000;stroke-width:.6;stroke-linejoin:round;stroke-miterlimit:2;stroke-dasharray:none;stroke-opacity:1"/></g><path id="path126160" d="M309.103 409.295c1.027-.002 2.054-.053 3.08-.08a88.46 88.46 0 0 0 4.309-.187 68.517 68.517 0 0 1 3.493-.13 68.404 68.404 0 0 0 3.123-.121c.825-.062 1.65-.108 2.477-.141.272 0 .541-.032.8-.114l.05-.017-.162-.739c0 .003.002.005.003.008-.145.125-.403.098-.573.116-.832.03-1.663.074-2.493.138a65.7 65.7 0 0 1-3.093.126c-1.175.017-2.35.048-3.524.125a85.26 85.26 0 0 1-4.284.19c-1.021.026-2.043.077-3.065.083l-.141.743z" style="opacity:1;fill:#000;stroke:#000;stroke-width:.6;stroke-linejoin:round;stroke-miterlimit:2;stroke-dasharray:none;stroke-opacity:1"/><path id="path126200" d="M306.021 500.69c-.913-1.104-2.226-1.584-3.589-1.855-2.258-.072-3.686.902-5.001 2.659-1.014 1.774-.962 3.083-.117 4.898 1.18 1.786 3.111 2.438 5.108 2.85 1.739.364 3.395.086 5.006-.596 1.258-.599 2.354-1.35 3.12-2.519.64-1.042.49-2.05.063-3.133-.537-1.36-1.5-2.34-2.697-3.134-1.131-.652-2.406-1.196-3.743-1.106-.263.017-.52.087-.78.13l-.669.245.091.75.554-.24c1.601-.356 2.681.027 4.082.817 1.103.708 1.978 1.595 2.467 2.834.358.9.49 1.692-.067 2.55-.64.93-1.536 1.548-2.534 2.059-1.48.677-3.013.959-4.633.632-1.803-.351-3.589-.884-4.689-2.472-.74-1.55-.784-2.739.122-4.244 1.026-1.324 2.31-2.312 4.065-2.267 1.217.21 2.4.616 3.227 1.583l.614-.44z" style="opacity:1;fill:#000;stroke:#000;stroke-width:.6;stroke-linejoin:round;stroke-miterlimit:2;stroke-dasharray:none;stroke-opacity:1"/><path id="path126132" d="M168.245 445.3c2.607 4.002 5.723 10.382 8.278 14.422 3.195 5.13 6.765 9.431 9.744 14.697 1.948 3.658 5.248 7.976 7.624 11.335a125.935 125.935 0 0 0 6.574 8.597c1.732 2.167 3.492 4.308 5.32 6.386 1.397 1.862 3.477 3.626 4.916 5.45 2.186 2.438 3.92 4.943 6.077 7.41 2.096 2.627 4.054 5.161 6.487 7.432 2.425 2.198 4.859 5.297 7.317 7.455 2.696 2.368 4.492 4.28 6.942 6.93 1.19 1.206 3.305 3.002 4.55 4.2 1.107 1.067 2.875 1.747 4.198 3.347 2.018 2.145 3.72 2.615 5.794 4.699 1.806 1.814 3.355 2.598 5.375 4.145 1.972 1.51 4.066 2.784 6.204 4.03 2.12 1.236 4.328 2.355 6.474 3.553 2.526 1.41 4.88 1.946 7.28 3.572 1.813 1.227 3.943 1.78 5.948 2.512 1.818.665 3.625 1.113 5.438 1.778 1.796.614 3.647 1.414 5.487 1.857 1.741.419 3.526 1.04 5.304 1.021 2.123-.021 4.212.695 6.317.905 2.098.208 4.162.532 6.256.777 1.904.222 3.797.61 5.697.363 2.138-.272 4.199.454 6.29-.06 2.039-.476 4.056-.806 6.13-1.083 1.88-.124 3.75-.356 5.578-.834 1.65-.464 3.28-.385 4.914-.904 2.3-.631 4.651-1.217 6.98-1.726 2.81-.615 5.296-1.814 7.786-2.694 2.556-.905 4.09-1.62 6.08-2.413 2.604-1.04 5.566-2.695 8.296-4.1 2.716-1.399 5.67-3.437 8.683-5.202 1.934-1.134 3.96-2.67 5.807-3.965 1.898-1.33 3.685-2.619 5.458-4.123 2.046-1.736 4.565-3.827 6.4-5.123 2.422-1.709 4.257-3.71 6.45-5.731 2.006-1.848 4.596-3.808 6.911-6.112 2.332-2.187 4.714-4.323 7.044-6.52 1.458-1.375 3.024-3.227 4.591-5.151 1.694-2.08 3.905-4.962 5.95-7.297 1.579-1.805 3.998-4.683 6.095-7.008 1.889-2.095 3.534-4.33 5.323-6.547 1.763-2.185 3.79-4.382 5.298-6.766 1.422-2.247 3.155-4.1 4.553-6.358 1.352-2.184 2.968-4.157 4.335-6.333 1.315-2.093 2.891-3.873 4.129-6.02 1.29-2.238 2.7-4.39 4.04-6.594 1.337-2.2 2.428-4.44 3.704-6.793 1.087-2.005 2.366-3.872 3.588-5.702 1.416-2.121 2.329-4.577 3.813-6.648 1.175-1.637 2.186-3.77 3.42-5.582.877-1.287 1.87-2.976 2.44-4.419.429-1.473 1.38-3.025 1.78-4.509.138-.477.292-.857.182-1.342l-.698.306s-.154.62-.233.93c-.394 1.458-1.333 2.988-1.767 4.431-.547 1.363-1.493 2.981-2.347 4.184-1.4 1.97-2.285 4-3.466 5.674-1.486 2.107-2.535 4.5-3.844 6.732-.949 1.617-2.54 3.674-3.588 5.702-1.059 2.05-2.352 4.55-3.681 6.728-1.348 2.208-2.75 4.373-4.048 6.615-1.24 2.14-2.812 3.919-4.125 6.008-1.365 2.174-2.98 4.148-4.333 6.33-1.4 2.255-3.13 4.106-4.55 6.351-1.495 2.362-3.512 4.535-5.266 6.693-1.773 2.183-3.413 4.433-5.262 6.448-2.155 2.348-4.573 5.103-6.185 7.17-1.912 2.449-4.106 5.213-5.942 7.28-1.601 1.802-2.953 3.355-4.491 4.982-2.228 2.355-4.754 4.368-7.094 6.592-2.313 2.31-4.692 4.07-6.915 6.12-2.16 1.992-4.008 3.894-6.368 5.618-1.988 1.452-4.38 3.43-6.444 5.176-1.763 1.493-3.536 2.779-5.43 4.087-1.724 1.191-3.609 2.66-5.41 3.71-3.016 1.758-6.265 3.897-8.685 5.202-2.37 1.277-5.815 3.134-8.189 4.081-1.962.784-3.8 1.65-5.989 2.41-2.483.862-5.192 2.126-7.751 2.696a163.104 163.104 0 0 0-7.076 1.725c-1.621.53-3.25.426-4.886.903-1.796.503-3.647.716-5.498.838-2.098.267-4.137.594-6.196 1.079-2.073.503-4.111-.22-6.227.063-1.852.255-3.695-.12-5.555-.336-2.095-.242-4.159-.568-6.257-.777-2.12-.212-4.226-.943-6.365-.917-1.738.02-3.483-.582-5.186-.984-1.82-.43-3.646-1.234-5.423-1.827-1.818-.673-3.634-1.118-5.458-1.788-1.96-.719-4.05-1.234-5.825-2.436-2.406-1.63-4.765-2.172-7.298-3.585-2.144-1.196-4.345-2.32-6.467-3.548-2.115-1.224-4.18-2.485-6.131-3.97-2.009-1.53-3.541-2.303-5.334-4.103-2.07-2.078-3.767-2.542-5.78-4.683-1.342-1.619-3.335-2.516-4.566-3.7-1.121-1.077-3.105-2.756-4.177-3.84-2.464-2.669-4.274-4.598-6.987-6.98-2.454-2.152-4.882-5.25-7.303-7.44-2.418-2.257-4.365-4.771-6.445-7.383-2.149-2.46-3.874-4.958-6.057-7.385-1.445-1.834-3.534-3.606-4.937-5.477a175.271 175.271 0 0 1-5.31-6.375c-2.28-2.714-4.5-5.64-6.543-8.554-2.363-3.34-5.653-7.639-7.59-11.278-2.983-5.275-6.558-9.587-9.76-14.725-2.56-4.05-5.682-10.44-8.296-14.452l-.615.465z" style="opacity:1;fill:red;stroke:red;stroke-width:1.3;stroke-linejoin:round;stroke-miterlimit:2;stroke-dasharray:none;stroke-opacity:1"/><g id="g126158" transform="translate(199.73 362.87)"><path id="path126152" d="M238.011 139.829c-.512 1.507-.962 3.136-.741 4.745.054.397.2.777.301 1.165.157.313.268.654.47.94.599.851 1.457 1.207 2.479 1.17.845-.031 1.11-.224 1.872-.545.327-.281.69-.526.982-.843.244-.263.428-.577.615-.883.55-.9.886-1.893 1.156-2.905.081-.391.09-.399.141-.758.049-.345.12-.725-.721.05-.104.095-.003.281-.002.422.002.213.009.426.012.638.065 1.365.391 2.697.673 4.028.26 1.225.207.985.425 2.204.187 1.39.658 3.227.075 4.577-.098.228-.254.426-.381.638-.19.188-.36.399-.572.562-.72.557-1.686.909-2.58 1.033-.905.126-1.382.025-2.276-.066-1.21-.286-.651-.103-1.685-.522l-.367.66c1.143.473.53.268 1.847.59.977.107 1.488.22 2.484.094 1.152-.144 2.349-.641 3.229-1.406.239-.208.424-.47.636-.705.139-.262.309-.51.415-.786.576-1.501.121-3.322-.09-4.849-.226-1.247-.167-.976-.431-2.225-.273-1.292-.59-2.585-.65-3.91-.004-.208-.01-.416-.012-.625-.002-.147.114-.348 0-.442-.202-.165-.5-.184-.76-.18-.064 0-.015.128-.025.191-.05.33-.057.333-.136.694-.405 1.473-1.007 2.894-2.123 3.978-.254.124-.497.278-.764.372-.45.16-1.105.263-1.585.174a1.955 1.955 0 0 1-1.21-.773c-.182-.247-.28-.545-.42-.818-.09-.342-.224-.676-.272-1.027-.212-1.56.269-3.113.742-4.577l-.752-.08z" style="opacity:1;fill:#000;stroke:#000;stroke-width:.6;stroke-linejoin:round;stroke-miterlimit:2;stroke-dasharray:none;stroke-opacity:1"/><path id="path126154" d="M250.547 146.196c-.058-.038-.11-.087-.173-.113-.61-.251-1.218.275-1.614.67-.408.526-.714 1.17-.707 1.851 0 .127.026.252.039.378.206.705.655 1.31 1.36 1.576.135.05.278.073.416.11.61.08 1.31.105 1.867-.212.17-.097.321-.221.482-.332.508-.532.611-1.16.575-1.868-.08-.731-.44-1.22-1.005-1.658-.635-.414-1.274-.41-1.991-.276l-.304.09.056.754.234-.089c.514-.124 1.033-.19 1.51.092.414.292.705.666.75 1.187.021.485-.046.967-.426 1.31-.009.13.008.066-.246.172-.387.161-.816.17-1.226.125-.101-.018-.204-.025-.302-.053-.515-.148-.843-.571-1.007-1.062-.009-.087-.027-.173-.027-.26.001-.53.256-1.032.589-1.428.204-.185.336-.34.59-.455l.56-.509z" style="opacity:1;fill:#000;stroke:#000;stroke-width:.6;stroke-linejoin:round;stroke-miterlimit:2;stroke-dasharray:none;stroke-opacity:1"/><path id="path126156" d="M229.999 144.696a14.332 14.332 0 0 1 2.004-.202c.15.016.307.005.431.11.269.23.432 1.193.504 1.505.21 1.06.301 2.139.36 3.217l.011.265.006.173c.003.094.002.13.01.129.817-.195.745.026.743-.445 0-1.675-.064-3.35-.07-5.025.043-1.835.225-3.665.47-5.483.056-.181.175-1.354.42-1.367-.038.032-.094.05-.114.095-.013.03.058-.03.09-.039.053-.015.108-.026.164-.033.431-.055.877-.043 1.31-.05 1.932-.013 3.865-.008 5.797-.006 2.31.002 4.621.002 6.932.003H252.693c.004-.002.006 0 .008 0-.101-.17-.145-.393-.304-.511-.062-.047-.068.139-.102.209-.149.314-.135.293-.29.659-.309.75-.565 1.52-.854 2.279l-.052.133.739.158.054-.139c.282-.751.54-1.512.847-2.253.054-.124.106-.249.162-.372.037-.082.076-.163.117-.243.01-.019.04-.033.035-.054-.056-.208-.142-.406-.213-.609-.002 0 .044.008-.005 0h-.53a16817.255 16817.255 0 0 1-10.028-.003c-1.935 0-3.87-.006-5.806.005-.348.004-.708.006-1.057.02-.237.01-.584-.003-.807.11-.123.062-.232.149-.348.223-.043.054-.093.103-.13.161-.3.469-.273 1.097-.416 1.613-.244 1.847-.431 3.705-.467 5.568.007 1.676.07 3.35.07 5.025 0 .075-.071.205 0 .225.24.068.498-.019.747-.014.01 0 .005.04.005.03.003-.09-.006-.18-.01-.27l-.012-.272c-.063-1.113-.16-2.227-.382-3.322-.153-.647-.26-1.505-.838-1.94-.236-.178-.418-.17-.692-.209-.693.006-1.388.072-2.07.194l-.066.753z" style="opacity:1;fill:#000;stroke:#000;stroke-width:.6;stroke-linejoin:round;stroke-miterlimit:2;stroke-dasharray:none;stroke-opacity:1"/></g><path id="path126196" d="M442.35 496.518c-.011-1.291 0-2.58.056-3.871.108-1.383.217-2.766.28-4.151.04-1.057.046-2.115.05-3.173 0-.447 0-.894-.002-1.34l-.752.064c0 .446.002.892 0 1.338a86.9 86.9 0 0 1-.05 3.151c-.065 1.386-.177 2.77-.28 4.153a76.985 76.985 0 0 0-.054 3.892l.753-.063z" style="opacity:1;fill:#000;stroke:#000;stroke-width:.6;stroke-linejoin:round;stroke-miterlimit:2;stroke-dasharray:none;stroke-opacity:1"/><path id="path126198" d="M198.553 496.495c-.056-.731-.009-1.469.007-2.202.024-1.197.027-2.394.03-3.591.032-1.419-.045-2.835-.116-4.251a54.721 54.721 0 0 1-.072-1.993l-.004-.432-.752.074c0 .146.002.293.004.44.011.671.04 1.342.075 2.012.07 1.406.143 2.811.111 4.22-.003 1.193-.005 2.386-.03 3.58-.017.785-.08 1.581.023 2.363l.724-.22z" style="opacity:1;fill:#000;stroke:#000;stroke-width:.6;stroke-linejoin:round;stroke-miterlimit:2;stroke-dasharray:none;stroke-opacity:1"/><g id="g126210" transform="translate(200 363.635)"><path id="path126202" d="M-1.594 140a13.376 13.376 0 0 0-1.023 3.473c-.19 1.278-.11 2.553.633 3.663.148.222.28.458.46.654.17.184.366.35.584.476.999.574 2.297.367 3.243-.138.336-.18.664-.378.97-.603 1.37-1.005 1.7-2.395 2.32-3.94.045-.13.096-.258.134-.39.008-.027.168-.65.076-.68-.778-.257-.67-.22-.893.25-.037.134-.085.265-.112.402-.27 1.371.004 2.917.192 4.28.244 1.772.65 3.533.712 5.325.01.288-.003.577-.004.865-.034.25-.038.504-.103.747-.2.744-.714 1.234-1.401 1.547-.524.238-1.261.333-1.798.434-1.03.08-2.045.021-2.965-.496-.746-.419-1.15-.991-1.61-1.675l-.631.415s.548.87 1.056 1.323C-.53 157.02.78 157.21 2.365 157.12c.392-.068.794-.094 1.177-.205.714-.207 1.472-.534 2.018-1.064.636-.617.836-1.435.89-2.284 0-.303.011-.607-.001-.91-.072-1.806-.474-3.58-.72-5.366-.172-1.25-.445-2.768-.183-4.02.022-.105.062-.204.093-.306.013-.029.067-.072.039-.085-.192-.09-.41-.113-.61-.183-.009-.003.004-.04.002-.03-.035.188-.017.17-.086.391-.039.121-.086.24-.129.36-.585 1.421-.877 2.682-2.147 3.605-.172.125-.344.254-.53.36-.693.393-1.82.71-2.614.32a1.708 1.708 0 0 1-.466-.342 4.208 4.208 0 0 1-.433-.547c-.776-1.133-.593-2.13-.527-3.303.033-.601.35-1.947 1.04-3.348-.246-.054-.529-.11-.772-.163z" style="opacity:1;fill:#000;stroke:#000;stroke-width:.6;stroke-linejoin:round;stroke-miterlimit:2;stroke-dasharray:none;stroke-opacity:1"/><path id="path126204" d="M8.697 145.382c-1.013.289-1.05 1.463-.98 2.549.013.196.063.389.095.583.094.173.16.364.28.52.47.603 1.242.727 1.95.591.169-.032.33-.094.496-.14.757-.358 1.538-.867 1.782-1.718.032-.112.04-.23.06-.347-.003-.707-.433-1.186-.962-1.594a2.766 2.766 0 0 0-1.453-.514c-.526.029-1.08.14-1.538.417-.16.097-.307.213-.461.319l-.225.255.657.374.162-.162c.134-.255.952-.42 1.24-.465.407-.01.785.118 1.121.346.34.248.684.533.704.986-.014.072-.02.146-.042.216-.165.519-.653.86-1.092 1.132-.546.195-1.275.43-1.744-.075-.084-.09-.132-.207-.199-.31-.025-.157-.067-.311-.077-.469-.051-.846.21-1.432.808-2.011l-.582-.483z" style="opacity:1;fill:#000;stroke:#000;stroke-width:.6;stroke-linejoin:round;stroke-miterlimit:2;stroke-dasharray:none;stroke-opacity:1"/><path id="path126206" d="M-12.37 145.34c.91-.025 1.599.163 2.323.753.191.156.355.344.533.515.792 1.003 1.376 2.151 1.973 3.277.226.4.334.774.99.184.13-.117.063-.344.08-.518.062-.624.071-1.252.105-1.878.135-2.584.388-4.5.64-6.785.121-1.097.393-2.183.498-3.282-.375.053.103-.197.073-.15-.042.065-.131.103-.152.178-.01.037.073-.024.111-.028.109-.013.218-.019.328-.023.193-.007.386-.006.58-.009 2.752-.015 4.298.055 6.91.092 2.268.033 4.723.032 6.99.087.465.011.93.05 1.39-.017l.06-.01.041-.007c.243-.039-.392-.437-.405-.421-.059.067-.098.15-.147.224-.526.908-.822 1.964-1.07 2.882-.116.434-.076.232-.2.584l.743.136s.113-.146.2-.58c.162-.803.513-1.879 1.027-2.735.01-.015.25-.346.232-.387-.307-.709-.21-.497-.44-.441-.42.08-.848.04-1.273.032-2.263-.045-4.713-.053-6.975-.083-2.76-.037-4.184-.111-6.949-.1-.201.002-.402 0-.604.005-.618.012-1.141.023-1.226.782-.107 1.087-.374 2.163-.497 3.248-.255 2.236-.507 4.241-.64 6.845-.01.174-.076 1.469-.105 1.822-.008.095-.119.235-.037.283.17.098.394.056.59.036.126-.013-.65-.406-.202-.326-.628-1.182-1.243-2.39-2.088-3.434-.204-.196-.392-.41-.611-.589-.798-.646-1.64-.934-2.655-.904l-.142.742z" style="opacity:1;fill:#000;stroke:#000;stroke-width:.6;stroke-linejoin:round;stroke-miterlimit:2;stroke-dasharray:none;stroke-opacity:1"/><path id="path126208" d="M-24.63 144.08c.993.055 1.989.06 2.983.074a109.49 109.49 0 0 0 3.74-.037c.657-.017 1.315-.038 1.971-.06.177.004.347-.023.513-.079l-.15-.74c-.026.089-.192.069-.246.071-.655.023-1.31.044-1.965.062-1.24.03-2.479.052-3.718.04-.975-.011-1.95-.025-2.925-.06l-.203.73z" style="opacity:1;fill:#000;stroke:#000;stroke-width:.6;stroke-linejoin:round;stroke-miterlimit:2;stroke-dasharray:none;stroke-opacity:1"/></g><g id="g128320" transform="translate(307.036 55.217)"><path id="path128316" d="M45.779 512.984c-.236 1.947-.262 4.007.434 5.873.132.352.328.676.492 1.014.571.803 1.148 1.315 2.173 1.382.922.06 1.718-.336 2.517-.723 1.964-1.119 2.754-2.577 3.567-4.597.187-.475.343-.961.493-1.449.02-.07.04-.14.064-.208.01-.027.061-.079.034-.077-.233.02-.459.088-.688.132-.091.384.088 1.109.16 1.483.13.693.228 1.078.391 1.783.651 2.322 1.272 4.649 1.745 7.014.135 1.172.378 2.486-.143 3.61-.322.697-.589.825-1.158 1.336-.325.183-.634.395-.973.55-1.354.62-3.13.857-4.586.53-.321-.072-.624-.212-.936-.317-.586-.342-.81-.405-1.25-.897-.127-.14-.215-.31-.322-.466l-.625.425c.136.19.251.4.41.573.519.571.771.644 1.452 1.043.35.12.69.277 1.05.362 1.793.419 3.725.07 5.359-.736.372-.184.705-.44 1.057-.66.663-.664.912-.777 1.272-1.644.512-1.233.286-2.628.125-3.9-.478-2.371-1.099-4.705-1.75-7.033-.26-1.123-.51-2.246-.603-3.396-.243.017-.49 0-.727.053-.007.002-.08.246-.106.327-.146.47-.301.937-.483 1.395-.69 1.686-1.381 3.016-2.975 4.022-.973.515-2.322 1.208-3.34.36-.209-.174-.353-.411-.53-.617-.15-.304-.33-.595-.449-.913-.666-1.775-.626-3.742-.396-5.594l-.755-.04z" style="opacity:1;fill:#000;stroke:#000;stroke-width:.6;stroke-linejoin:round;stroke-miterlimit:2;stroke-dasharray:none;stroke-opacity:1"/><path id="path128318" d="M61.549 519.263c-.83-.113-1.746.688-2.112 1.382-.092.175-.13.374-.196.562-.008.181-.045.364-.025.544.127 1.125 1.046 1.535 1.98 1.886a4.2 4.2 0 0 0 3.014-.535c.208-.129.396-.285.594-.428.693-.835.864-1.35.277-2.295-.655-.817-1.581-1.237-2.58-1.46-1.163-.151-2.073.271-2.91 1.06l.629.419c.146-.128.276-.278.44-.381a2.443 2.443 0 0 1 1.579-.389c.842.156 1.63.493 2.202 1.154.078.116.191.26.228.4.102.396-.226.767-.464 1.032-.513.495-1.448.783-2.152.793-.172.002-.342-.029-.513-.043-.845-.293-1.649-.566-1.556-1.618.047-.128.072-.267.14-.385.154-.27.775-.959 1.138-1l.287-.698z" style="opacity:1;fill:#000;stroke:#000;stroke-width:.6;stroke-linejoin:round;stroke-miterlimit:2;stroke-dasharray:none;stroke-opacity:1"/></g><path id="path128322" d="m337.964 573.432 3.01-.124a50.61 50.61 0 0 1 3.652-.068c.806.013 1.612.017 2.418.001.423-.008.845-.025 1.266-.043l.447-.019.126-.748-.445.019a66.61 66.61 0 0 1-1.248.045 62.59 62.59 0 0 1-2.393.003c-1.233-.014-2.464-.017-3.696.061l-3.01.124-.127.749z" style="opacity:1;fill:#000;stroke:#000;stroke-width:.6;stroke-linejoin:round;stroke-miterlimit:2;stroke-dasharray:none;stroke-opacity:1"/><path id="path144015" fill="#fed341" stroke="#000" stroke-width=".317" d="M420.292 417.413v44.264h13.519l-25.236 23.563-25.236-23.563h13.52v-44.264z" style="display:inline;fill:#f6ffd5;fill-opacity:1;stroke-width:1.3;stroke-dasharray:none"/><g id="text146729" aria-label="STEP 1" style="font-size:32px;font-family:Palatino;-inkscape-font-specification:Palatino;opacity:1;fill:#f6ffd5;stroke-width:1.69201;stroke-linejoin:round;stroke-miterlimit:2" transform="matrix(.8 0 0 .7379 32.457 129.276)"><path id="path146958" d="m-17.492 487.082 1.408.544q1.088.384 2.112.928 1.024.512 1.792 1.248.8.704 1.28 1.696.48.96.48 2.24 0 1.568-.704 2.72-.672 1.152-1.792 1.92-1.088.736-2.464 1.088-1.376.384-2.752.384-1.568 0-3.04-.352t-2.624-.928q-.512-.288-.512-.96l.096-2.976q.064-.8.832-.8h.704q.704 0 .864.736l.416 2.304q.064.448.416.736.384.256.864.416.512.128 1.024.16.544.032.896.032 2.08 0 3.264-.896 1.184-.928 1.184-2.624 0-.768-.32-1.312-.288-.544-.8-.928-.48-.416-1.12-.672-.608-.288-1.248-.512l-1.344-.48q-2.592-1.024-4.096-2.528-1.472-1.504-1.472-3.808 0-1.504.608-2.592.64-1.12 1.632-1.856 1.024-.736 2.304-1.088 1.312-.352 2.656-.352 1.44 0 2.656.352 1.216.352 2.24.928.576.32.512.992l-.16 2.72q-.032.768-.8.768h-.704q-.704 0-.864-.736l-.416-2.24q-.096-.64-.672-.832-.864-.32-1.856-.32-.768 0-1.472.224-.704.192-1.248.608-.544.384-.864 1.024-.32.608-.32 1.472 0 1.408.864 2.176.864.736 2.56 1.376z" style="font-family:&quot;Song Myung&quot;;-inkscape-font-specification:&quot;Song Myung&quot;;fill:#000;stroke-width:1.69201"/><path id="path146960" d="M6.604 481.418q-.096-.736-.864-.736H2.092l-.064 1.92V495.338q.032.768.032 1.568.064.8.768.832l1.44.16q.768.096.768.768 0 .704-.8.704h-8.128q-.8 0-.8-.704t.768-.768l1.44-.16q.736-.096.768-.832v-1.536q.032-.8.032-1.568v-9.152q0-1.024-.032-1.984 0-.992-.032-1.984h-3.648q-.768 0-.864.736l-.384 2.496q-.096.736-.864.736h-.512q-.8 0-.768-.8l.128-4q.064-.8.832-.8h16q.768 0 .832.8l.128 4q.032.8-.768.8h-.512q-.768 0-.864-.736z" style="font-family:&quot;Song Myung&quot;;-inkscape-font-specification:&quot;Song Myung&quot;;fill:#000;stroke-width:1.69201"/><path id="path146962" d="M25.164 494.698q.16-.736.864-.736h.448q.864 0 .8.832l-.16 3.808q-.032.768-.8.768H11.724q-.8 0-.8-.704t.768-.768l1.152-.128q.736-.096.768-.832v-1.536q.032-.8.032-1.6v-9.152q0-.8-.032-1.568v-1.6q-.064-.736-.768-.832l-1.152-.128q-.768-.096-.768-.768 0-.704.8-.704h13.984q.768 0 .8.768l.16 3.808q.064.832-.8.832h-.448q-.736 0-.864-.704l-.448-2.368q-.128-.704-.864-.704H17.42l-.064 1.856v5.6h3.52q.736 0 .832-.736l.192-1.344q.096-.736.832-.736.8 0 .8.8v5.568q0 .8-.768.8t-.864-.736l-.16-1.312q-.096-.736-.864-.736h-3.52v6.144l.064 1.92h6.464q.704 0 .864-.736z" style="font-family:&quot;Song Myung&quot;;-inkscape-font-specification:&quot;Song Myung&quot;;fill:#000;stroke-width:1.69201"/><path id="path146964" d="M36.556 491.434h-.736v4.288q.032.576.032 1.216.032.704.768.8l1.312.128q.768.096.768.8 0 .704-.8.704h-7.712q-.8 0-.8-.704t.768-.768l1.152-.128q.736-.096.768-.832v-1.536q.032-.8.032-1.6v-9.152q0-.8-.032-1.568v-1.6q-.064-.736-.768-.832l-1.152-.128q-.768-.096-.768-.768 0-.704.8-.704h7.488q1.504 0 2.976.288 1.472.256 2.624.96 1.184.672 1.888 1.856.736 1.152.736 2.944 0 1.952-.864 3.2-.864 1.216-2.24 1.92-1.344.704-3.008.96-1.632.256-3.232.256zm.704-10.816h-1.376l-.064 1.952v7.296h1.216q2.752 0 4-1.312 1.248-1.312 1.248-3.392 0-2.208-1.216-3.36-1.184-1.184-3.808-1.184z" style="font-family:&quot;Song Myung&quot;;-inkscape-font-specification:&quot;Song Myung&quot;;fill:#000;stroke-width:1.69201"/><path id="path146966" d="M63.564 496.65q.032.672.736.832l2.688.544q.704.128.704.736t-.8.608H56.78q-.8 0-.8-.608 0-.576.736-.736l2.72-.512q.704-.16.736-.864v-13.76q0-.768-.768-.768h-.064l-1.696.16q-.352 0-.608-.096-.224-.128-.224-.544 0-.64.704-.832l5.184-1.312q.16-.064.256-.064h.256q.224 0 .288.064.16.16.16.768l-.096 3.776z" style="font-family:&quot;Song Myung&quot;;-inkscape-font-specification:&quot;Song Myung&quot;;fill:#000;stroke-width:1.69201"/></g><path id="path126162" d="M332.98 410.829c.042-.007.083-.02.126-.023.169-.012.645-.009.768-.01.566-.004 1.132-.015 1.698-.027 1.016-.028 2.032 0 3.048.028.825.018 1.65-.005 2.474-.025.584-.005 1.168.001 1.751-.025.159-.004.316-.018.474-.024l.778-3.699c-.207-.008-.415-.018-.623-.004-.558.021-1.114.073-1.673.04-.801.004-1.6.056-2.402.039-1.043.015-2.086-.084-3.13-.044-.945.014-1.89.058-2.835.021l-.454 3.752z" style="fill:#000;stroke:#000;stroke-width:.6;stroke-linejoin:round;stroke-miterlimit:2;stroke-dasharray:none;stroke-opacity:1"/><path id="path126164" d="m349.613 410.716 1.757.071a56.11 56.11 0 0 0 3.132.081c.649-.015 1.298-.015 1.948 0 .548.015 1.094.048 1.643.018.343-.013.685-.033 1.026-.068l.333-3.765c-.261.045-.521.107-.787.097-.14.007-.3.013-.439.032-.046.006-.09.025-.136.027-.273.012-.549-.041-.822-.031a34.758 34.758 0 0 0-2.072-.025c-.99.019-1.978.019-2.967-.046l-1.757-.072-.859 3.68z" style="fill:#000;stroke:#000;stroke-width:.6;stroke-linejoin:round;stroke-miterlimit:2;stroke-dasharray:none;stroke-opacity:1"/><path id="path126166" d="M364.967 410.72c.935-.076 1.88-.028 2.817-.004a46.39 46.39 0 0 0 2.813.035c.647-.01 1.293.003 1.94.022.448.029.897-.005 1.345-.024l.623-3.728c-.375.012-.751.017-1.124.068a49.158 49.158 0 0 0-2.074-.05c-.9.004-1.801.049-2.701-.012a108.44 108.44 0 0 0-3.2-.061l-.439 3.754z" style="fill:#000;stroke:#000;stroke-width:.6;stroke-linejoin:round;stroke-miterlimit:2;stroke-dasharray:none;stroke-opacity:1"/><path id="path126168" d="M380.02 410.714c1.009-.05 2.018-.01 3.027-.018a72.463 72.463 0 0 1 2.786.008c.698.012 1.396.062 2.094.057.34-.007.679-.023 1.018-.035l.64-3.725c-.335.009-.67.02-1.004.037-.176.01-.353.032-.53.033-.467.003-.934-.06-1.401-.057a64.733 64.733 0 0 0-2.906-.033c-1.053.019-2.104.003-3.156-.004l-.567 3.737z" style="fill:#000;stroke:#000;stroke-width:.6;stroke-linejoin:round;stroke-miterlimit:2;stroke-dasharray:none;stroke-opacity:1"/><path id="path126170" d="M395.1 410.77c.603-.122 1.244-.072 1.857-.065 1.034.019 2.067.055 3.1.091.897.026 1.795.004 2.692-.008.33-.012.657-.044.984-.075l.386-3.76c-.269.037-.54.063-.808.098-.797.099-1.613.002-2.414.06-1.05-.038-2.101-.076-3.152-.103-.803-.018-1.606-.039-2.408-.01l-.237 3.771z" style="fill:#000;stroke:#000;stroke-width:.6;stroke-linejoin:round;stroke-miterlimit:2;stroke-dasharray:none;stroke-opacity:1"/><path id="path126172" d="M409.634 410.78h4.684c.948-.01 1.896-.064 2.844-.109.45-.028.9-.084 1.349-.128l.08-.008.475-3.75-.096.007c-.445.03-.89.072-1.331.13-.867.098-1.744.068-2.613.145h-4.684l-.708 3.713z" style="fill:#000;stroke:#000;stroke-width:.6;stroke-linejoin:round;stroke-miterlimit:2;stroke-dasharray:none;stroke-opacity:1"/><path id="path126174" d="M424.582 410.51c.732.02 1.464.074 2.198.1.87.007 1.738.052 2.607.099.79.052 1.585.042 2.373-.038.208-.026.415-.055.623-.084l.235-3.774c-.19.03-.38.06-.57.087-.141.026-.28.065-.424.084-.422.054-.86.06-1.284.048-.895-.04-1.786-.122-2.682-.115-.769-.016-1.54-.033-2.303-.12l-.773 3.712z" style="fill:#000;stroke:#000;stroke-width:.6;stroke-linejoin:round;stroke-miterlimit:2;stroke-dasharray:none;stroke-opacity:1"/><path id="path126176" d="M438.134 411.05c.576.001 1.134-.083 1.714-.08 1.013.012 2.024.082 3.035.136 1.031.065 2.064.027 3.095-.01l.693-.027.609-3.73c-.237.006-.473.014-.71.024-.942.039-1.885.094-2.827.062-1.04-.047-2.076-.134-3.117-.153-.42-.016-.835-.04-1.255-.016-.01 0-.484.032-.523.042-.013.003-.004.026-.006.04l-.708 3.712z" style="fill:#000;stroke:#000;stroke-width:.6;stroke-linejoin:round;stroke-miterlimit:2;stroke-dasharray:none;stroke-opacity:1"/><path id="path126178" d="M452.795 411.202c.665-.15 1.354-.193 2.031-.264a47.962 47.962 0 0 1 2.608-.258c.785-.03 1.57-.038 2.355-.084l1.057-.065.541-3.74c-.359.018-.718.037-1.076.062-.772.048-1.54.102-2.314.09a30.94 30.94 0 0 0-2.817.232c-.76.098-1.525.146-2.284.249l-.1 3.778z" style="fill:#000;stroke:#000;stroke-width:.6;stroke-linejoin:round;stroke-miterlimit:2;stroke-dasharray:none;stroke-opacity:1"/><path id="path126180" d="M444.334 477.98c.161-1.197.112-2.417.127-3.623.004-1.214.09-2.427.203-3.636.023-.204.04-.408.054-.613l-3.778.105c-.018.197-.038.395-.055.592-.108 1.29-.189 2.581-.19 3.875-.01 1.22-.027 2.439-.123 3.656l3.762-.356z" style="fill:#000;stroke:#000;stroke-width:.6;stroke-linejoin:round;stroke-miterlimit:2;stroke-dasharray:none;stroke-opacity:1"/><path id="path126182" d="M444.37 463.66c.013.016.029.065.037.047.045-.103.027-.89.03-1.046.048-.965.114-1.931.153-2.898a89.004 89.004 0 0 0 .049-3.729l-3.763.363a81.762 81.762 0 0 1-.059 3.59c-.044.99-.122 1.978-.148 2.969-.013.554-.05 1.113.046 1.662l3.656-.957z" style="fill:#000;stroke:#000;stroke-width:.6;stroke-linejoin:round;stroke-miterlimit:2;stroke-dasharray:none;stroke-opacity:1"/><path id="path126184" d="M444.48 449.684c.01-.039.026-.076.029-.116.019-.345.005-.691.008-1.037l.016-1.8a309.693 309.693 0 0 0 .012-3.417l-3.763.356-.001 1.11c-.002.76-.007 1.52-.014 2.281-.01 1.16-.059 2.326.033 3.483l3.68-.86z" style="fill:#000;stroke:#000;stroke-width:.6;stroke-linejoin:round;stroke-miterlimit:2;stroke-dasharray:none;stroke-opacity:1"/><path id="path126186" d="M444.432 437.468V432.085c0-.067-.01-.134 0-.2.002-.01.026-.004.031-.015.017-.038.02-.082.03-.123.036-.149.059-.3.084-.451.032-.241.042-.484.049-.727l-3.774.21c-.01.117-.025.232-.05.345-.08.435-.159.871-.133 1.316v5.384l3.763-.356z" style="fill:#000;stroke:#000;stroke-width:.6;stroke-linejoin:round;stroke-miterlimit:2;stroke-dasharray:none;stroke-opacity:1"/><path id="path126188" d="M444.526 424.811V418.102l-3.762.268v6.709l3.762-.268z" style="fill:#000;stroke:#000;stroke-width:.6;stroke-linejoin:round;stroke-miterlimit:2;stroke-dasharray:none;stroke-opacity:1"/><path id="path126190" d="M444.526 412.316v-8.719l-3.762.487v8.719l3.762-.487z" style="fill:#000;stroke:#000;stroke-width:.600001;stroke-linejoin:round;stroke-miterlimit:2;stroke-dasharray:none;stroke-opacity:1"/><path id="path126192" d="M444.48 397.247c.01-.032.026-.063.028-.096.02-.349.006-.698.009-1.048l.016-1.787c.007-.762.01-1.523.011-2.285v-2.268l-3.762.357V392.379c-.003.756-.008 1.51-.014 2.266-.01 1.153-.06 2.312.032 3.462l3.68-.86z" style="fill:#000;stroke:#000;stroke-width:.6;stroke-linejoin:round;stroke-miterlimit:2;stroke-dasharray:none;stroke-opacity:1"/><path id="path126194" d="M444.526 383.918V375.882l-3.762.355v8.036l3.762-.355z" style="fill:#000;stroke:#000;stroke-width:.6;stroke-linejoin:round;stroke-miterlimit:2;stroke-dasharray:none;stroke-opacity:1"/><g id="g143570"><path id="path126212" d="M200 477.8v-7.053c-.007-.7.036-1.4-.066-2.094a4.258 4.258 0 0 0-.35-1.04l-3.375 1.702.028.122v8.719l3.762-.356z" style="opacity:1;fill:#000;stroke:#000;stroke-width:.6;stroke-linejoin:round;stroke-miterlimit:2;stroke-dasharray:none;stroke-opacity:1"/><path id="path126214" d="M199.729 462.394a166.481 166.481 0 0 1-.228-4.538 93.353 93.353 0 0 1-.044-2.86v-1.583c.04-.494-.066-.782-.22-1.292l-3.385 1.68c-.312-1.188-.105-.378-.157-.037-.001.534-.002 1.068 0 1.602.006.987.02 1.973.056 2.958.056 1.476.142 2.95.215 4.426l3.763-.356z" style="opacity:1;fill:#000;stroke:#000;stroke-width:.6;stroke-linejoin:round;stroke-miterlimit:2;stroke-dasharray:none;stroke-opacity:1"/><path id="path126216" d="M199.482 446.016c-.014-1.368-.08-2.736-.103-4.104a95.491 95.491 0 0 1 .012-3.256c.011-.544.026-1.089.04-1.633l.012-.45-3.77.257-.012.451c-.015.554-.029 1.107-.038 1.661a101.745 101.745 0 0 0-.003 3.365c.026 1.324.097 2.648.09 3.972l3.771-.263z" style="opacity:1;fill:#000;stroke:#000;stroke-width:.6;stroke-linejoin:round;stroke-miterlimit:2;stroke-dasharray:none;stroke-opacity:1"/><path id="path126218" d="M199.661 430.375v-7.611l-3.762.355v7.612l3.762-.356z" style="opacity:1;fill:#000;stroke:#000;stroke-width:.6;stroke-linejoin:round;stroke-miterlimit:2;stroke-dasharray:none;stroke-opacity:1"/><path id="path126220" d="M199.729 416.502V406.13l-3.763.419v10.372l3.763-.419z" style="opacity:1;fill:#000;stroke:#000;stroke-width:.6;stroke-linejoin:round;stroke-miterlimit:2;stroke-dasharray:none;stroke-opacity:1"/><path id="path126222" d="M199.729 400.337v-8.65l-3.763.355v8.651l3.763-.356z" style="opacity:1;fill:#000;stroke:#000;stroke-width:.6;stroke-linejoin:round;stroke-miterlimit:2;stroke-dasharray:none;stroke-opacity:1"/><path id="path126224" d="M199.729 386.18v-4.94c-.018-.946-.162-1.882-.24-2.822a11.027 11.027 0 0 1-.035-.833l-3.756.424c.013.347.032.694.065 1.039.081.848.193 1.694.203 2.547v4.942l3.763-.356z" style="opacity:1;fill:#000;stroke:#000;stroke-width:.6;stroke-linejoin:round;stroke-miterlimit:2;stroke-dasharray:none;stroke-opacity:1"/><path id="path126226" d="M168.15 410.993c.06-.014.118-.036.18-.043.963-.102 1.954-.059 2.92-.052.886.006 1.734.017 2.619.027 1.235.017.664.01 1.712.025l.759-3.703c-1.057-.018-.482-.009-1.725-.027-2.12-.028-4.244-.088-6.364-.005l-.1 3.778z" style="opacity:1;fill:#000;stroke:#000;stroke-width:.6;stroke-linejoin:round;stroke-miterlimit:2;stroke-dasharray:none;stroke-opacity:1"/><path id="path126228" d="M181.37 411.162a145.04 145.04 0 0 1 4.43-.151 38.047 38.047 0 0 0 3.378-.156c.466-.038.255-.007.634-.08l-.249-3.771c-.036.058-.034.027.011.092-1.037.114-2.077.207-3.122.192-.974.016-1.949.033-2.923.064-.009 0-1.2.041-1.329.054-.043.004-.082.03-.123.044l-.708 3.712z" style="opacity:1;fill:#000;stroke:#000;stroke-width:.6;stroke-linejoin:round;stroke-miterlimit:2;stroke-dasharray:none;stroke-opacity:1"/><path id="path126230" d="M194.707 411.04c.021-.011.04-.032.065-.034.439-.035.882-.004 1.322-.006 1.226-.006 2.45-.035 3.676-.062 1.455-.034 2.91-.066 4.365-.088l.77-3.722c-1.468.019-2.934.048-4.4.083-1.893.043-3.787.116-5.68.051l-.118 3.778z" style="opacity:1;fill:#000;stroke:#000;stroke-width:.6;stroke-linejoin:round;stroke-miterlimit:2;stroke-dasharray:none;stroke-opacity:1"/><path id="path126232" d="M209.934 411.186c1.698.01 3.392-.131 5.084-.26.803-.063 1.606-.127 2.41-.194l.45-3.752c-.796.069-1.592.133-2.388.195-1.614.127-3.23.277-4.848.299l-.708 3.712z" style="opacity:1;fill:#000;stroke:#000;stroke-width:.6;stroke-linejoin:round;stroke-miterlimit:2;stroke-dasharray:none;stroke-opacity:1"/><path id="path126234" d="M222.907 411.033a107.45 107.45 0 0 0 4.098-.045l3.51-.123.585-3.734c-1.164.054-2.329.075-3.493.125-1.33.05-2.66.084-3.992.064l-.708 3.713z" style="opacity:1;fill:#000;stroke:#000;stroke-width:.6;stroke-linejoin:round;stroke-miterlimit:2;stroke-dasharray:none;stroke-opacity:1"/><path id="path126236" d="M236.13 411.135a84.692 84.692 0 0 1 3.193-.275c1.09-.064 2.18-.09 3.27-.108l.3-.003.686-3.717h-.312c-1.14.009-2.28.036-3.42.085-1.15.06-2.294.188-3.445.249l-.273 3.77z" style="opacity:1;fill:#000;stroke:#000;stroke-width:.6;stroke-linejoin:round;stroke-miterlimit:2;stroke-dasharray:none;stroke-opacity:1"/><path id="path126238" d="M248.609 411.041c1.937-.095 3.878-.076 5.817-.116.98-.036.521-.016 1.376-.057l.578-3.743c-.79.05-.366.026-1.272.072-1.977.073-3.956.029-5.933.1l-.566 3.744z" style="opacity:1;fill:#000;stroke:#000;stroke-width:.600001;stroke-linejoin:round;stroke-miterlimit:2;stroke-dasharray:none;stroke-opacity:1"/><path id="path126240" d="M261.41 410.937c.141.006.282.019.424.019.3 0 .6-.027.901-.032.763-.012 1.528.002 2.291.003 1.362-.014 2.724-.019 4.085-.01l.502.005.879-3.696c-.316-.006-.142-.003-.52-.008-1.38-.016-2.759-.02-4.138 0-.778.01-1.554-.01-2.332-.01-.038 0-.91.001-1.02.013-.032.004-.056.028-.083.042l-.99 3.674z" style="opacity:1;fill:#000;stroke:#000;stroke-width:.6;stroke-linejoin:round;stroke-miterlimit:2;stroke-dasharray:none;stroke-opacity:1"/><path id="path126242" d="M275.521 410.893c1.123-.054 2.247-.055 3.37-.068 1.14-.013 2.28.022 3.42.07l.541.025 1.084-3.646a14.97 14.97 0 0 0-.621-.045 74.476 74.476 0 0 0-3.623-.112c-1.17.01-2.34.019-3.508.045l-.663 3.73z" style="opacity:1;fill:#000;stroke:#000;stroke-width:.6;stroke-linejoin:round;stroke-miterlimit:2;stroke-dasharray:none;stroke-opacity:1"/></g></g></g></svg>