<svg xmlns="http://www.w3.org/2000/svg" xmlns:xlink="http://www.w3.org/1999/xlink" width="350" height="120" aria-hidden="true" viewBox="0 -20.032 350 120"><defs><path id="a" stroke-width="1" d="M299-156H88v818h211v-25h-83c-34 0-52-12-52-48V-77c0-40 19-54 52-54h83z"/><path id="b" stroke-width="1" d="M287 676 59-14H-9l229 690z"/><path id="c" stroke-width="1" d="M245-156H34v25h88c35 0 47 15 47 46v668c0 35-13 54-51 54H34v25h211z"/><path id="d" stroke-width="1" d="m597 22-46-47-231 230L89-25 43 21l230 231L43 483l47 46 230-230 231 230 46-45-230-232Z"/><path id="e" stroke-width="1" d="M637 320H48v66h589zm0-200H48v66h589z"/><path id="f" stroke-width="1" d="m304-161-12-16C134-87 48 82 48 252c0 185 87 329 247 424l9-16C165 541 134 448 134 255c0-186 30-299 170-416Z"/><path id="g" stroke-width="1" d="m29 660 12 16c153-92 244-259 244-429 0-185-88-327-247-424l-9 16C171-44 199 50 199 244c0 187-25 302-170 416Z"/></defs><path d="M264.169 134.282c.352-.667.22-1.375.076-2.113-1.595-8.163-7.97-11.333-14.499-13.516-7.847-2.623-17.037-2.608-24.519-1.37-5.756.951-10.63 2.507-14.77 5.643-2.338 1.77-2.863 4.529-.605 6.49 2.914 2.533 6.823 3.138 7.397 2.893M113.306 61.653c-1.918 1.38-4.302 3.424-3.462 6.082 1.112 2.605 3.892 4.336 6.311 5.368 5.025 2.144 10.162 3.035 15.442 3.786 11.756 1.672 23.837 1.073 35.419-1.465 4.009-.878 8.206-2.102 11.366-4.851 2.223-2.032-.392-4.689-2.39-5.575-.57-.28-1.24-.446-1.874-.426-1.6 1.83 1.596 3.342 2.945 4.194 4.773 2.74 9.747 4.535 15.092 5.755 7.019 1.832 14.235 2.676 21.494 2.433 5.611.047 12.32-.966 16.583-4.126 1.942-1.44 1.016-3.491-.27-4.98-1.115-1.292-2.228-2.093-4.15-3.085-3.71-.397 1.12 4.145 2.757 4.996 12.744 6.624 27.602 8.43 41.882 7.57 15.336-.922 32.886-6.332 42.205-18.164 6.636-8.426 9.705-19.69 5.726-29.965-2.442-6.307-9.47-9.665-15.835-11.661-11.347-3.56-25.3-2.981-33.826-1.242-2.629.536-10.664 3.1-4.617 4.547 2.763.52.819-3.86.384-5.36-1.907-5.028-6.77-8.089-11.623-9.824-9.339-3.67-19.715-2.898-29.334-.856-4.544 1.221-9.537 2.258-12.969 5.726-1.668 1.542-1.204 4.277.577 5.596 1.543 1.142 3.1 2.61 6.022 2.745-1.387-2.354-4.987-4.801-7.973-6.66-8.071-5.026-19.742-9.752-31.433-12.397-10.321-2.335-21.303-3.479-31.929-1.957-4.538.65-9.868 2.833-11.095 7.756-.969 3.707 1.395 7.426 4.674 9.05 1.26.624 3.504 1.166 2.617-.204-3.451-4.626-10.67-8.215-17.014-8.766-5.757-.5-12.002.065-17.159 2.976-2.224 1.256-4.133 3.49-4.545 5.518-.327 1.61-.115 5.522 3.6 7.093l.498-.189c-1.876-1.777-3.39-2.313-5.361-2.802-1.637-.407-3.947-.48-4.48-.495-1.733-.047-5.147-.029-7.633.242-9.39 1.021-17.46 3.999-25.194 8.632-3.246 1.945-5.79 4.352-8.188 6.966-3.64 3.966-6.053 9.562-4.576 15.319.315 1.226.853 2.4 1.522 3.457.738 1.169 1.655 2.22 2.652 3.15 1.142 1.065 2.985 2.805 4.305 3.61 2.512 1.532 4.445 2.527 7.165 3.615 4.142 1.656 11.16 3.211 16.604 4.01 7.438 1.09 14.959.626 22.41-.1 1.906-.187 4.94-.818 7-1.288M28.557 37.985c-.635-1.418-5.33-3.232-10.824-1.5-3.337 1.051-6.143 3.244-6.403 6.928-.155 2.206.24 3.063 1.268 4.972.462.857 1.196 1.563 1.942 2.2.823.704 2.623 1.967 3.61 2.424 3.445 1.594 5.384 2.085 9.408 2.265 1.08.048 2.164-.17 3.219-.409.961-.216 1.907-.53 2.796-.948 2.373-1.113 4.407-2.986 4.99-5.58.477-2.126.186-3.17-.428-5.183a6.033 6.033 0 0 0-1.201-2.207c-1.882-2.146-6.534-4.792-9.381-4.83" style="fill:#e5f6ff;fill-opacity:1;stroke:#000;stroke-width:1;stroke-dasharray:none"/><use xlink:href="#a" transform="matrix(.01904 0 0 -.01904 79.88 46.868)"/><path d="M7.84-2.002h.44Q7.6.33 4.876.33 3.124.33 1.922-.86.731-2.053.731-4.015q0-2.012 1.292-3.264 1.291-1.252 3.053-1.252 1.062 0 1.953.471.89.46.89 1.131 0 .25-.17.471-.16.22-.47.22-.66 0-.811-.77-.12-.581-.37-.812-.26-.23-1.012-.23-1.341 0-2.022.931-.671.931-.671 2.804 0 1.932.72 3.023Q3.846-.2 5.318-.2q1.982 0 2.523-1.802z" aria-label="c" style="font-size:20.5055px;font-family:Baskerville;-inkscape-font-specification:Baskerville" transform="matrix(.99973 0 0 .99973 86.22 46.868)"/><use xlink:href="#b" x="793" transform="matrix(.01904 0 0 -.01904 79.88 46.868)"/><path d="M.831.26v-2.693h.39c.252.865.703 1.795 1.578 2.168.582.228 1.319.263 1.834-.14.683-.569.73-1.758.018-2.324-1.02-.826-2.397-1.129-3.293-2.124C.676-5.6.711-6.81 1.296-7.606a1.981 1.981 0 0 1 1.703-.924c.71-.036 1.409.308 1.837.87.242-.179.22-.67.494-.73.115.015.324-.064.267.124v2.409c-.12-.028-.335.062-.383-.057-.19-.787-.632-1.567-1.35-1.98-.632-.34-1.552-.23-1.937.428-.355.547-.143 1.314.379 1.676.92.71 2.114.966 3 1.732.528.424.765 1.109.842 1.761.084.815-.25 1.672-.93 2.15-.957.71-2.398.617-3.274-.185-.18-.224-.355-.338-.47-.007-.192.176-.106.674-.439.6H.831z" aria-label="s" style="font-size:20.5055px;font-family:Baskerville;-inkscape-font-specification:Baskerville" transform="matrix(.99973 0 0 .99973 100.272 46.868)"/><use xlink:href="#c" x="1431" transform="matrix(.01904 0 0 -.01904 79.88 46.868)"/><use xlink:href="#d" x="1986" transform="matrix(.01904 0 0 -.01904 79.88 46.868)"/><use xlink:href="#a" x="2849" transform="matrix(.01904 0 0 -.01904 79.88 46.868)"/><path d="M.831.26v-2.693h.39c.252.865.703 1.795 1.578 2.168.582.228 1.319.263 1.834-.14.683-.569.73-1.758.018-2.324-1.02-.826-2.397-1.129-3.293-2.124C.676-5.6.711-6.81 1.296-7.606a1.981 1.981 0 0 1 1.703-.924c.71-.036 1.409.308 1.837.87.242-.179.22-.67.494-.73.115.015.324-.064.267.124v2.409c-.12-.028-.335.062-.383-.057-.19-.787-.632-1.567-1.35-1.98-.632-.34-1.552-.23-1.937.428-.355.547-.143 1.314.379 1.676.92.71 2.114.966 3 1.732.528.424.765 1.109.842 1.761.084.815-.25 1.672-.93 2.15-.957.71-2.398.617-3.274-.185-.18-.224-.355-.338-.47-.007-.192.176-.106.674-.439.6H.831z" aria-label="s" style="font-size:20.5055px;font-family:Baskerville;-inkscape-font-specification:Baskerville" transform="matrix(.99973 0 0 .99973 140.466 46.868)"/><use xlink:href="#c" x="3542" transform="matrix(.01904 0 0 -.01904 79.88 46.868)"/><use xlink:href="#e" x="4153" transform="matrix(.01904 0 0 -.01904 79.88 46.868)"/><use xlink:href="#a" x="5116" transform="matrix(.01904 0 0 -.01904 79.88 46.868)"/><path d="M7.84-2.002h.44Q7.6.33 4.876.33 3.124.33 1.922-.86.731-2.053.731-4.015q0-2.012 1.292-3.264 1.291-1.252 3.053-1.252 1.062 0 1.953.471.89.46.89 1.131 0 .25-.17.471-.16.22-.47.22-.66 0-.811-.77-.12-.581-.37-.812-.26-.23-1.012-.23-1.341 0-2.022.931-.671.931-.671 2.804 0 1.932.72 3.023Q3.846-.2 5.318-.2q1.982 0 2.523-1.802z" aria-label="c" style="font-size:20.5055px;font-family:Baskerville;-inkscape-font-specification:Baskerville" transform="matrix(.99973 0 0 .99973 183.648 46.868)"/><use xlink:href="#c" x="5910" transform="matrix(.01904 0 0 -.01904 79.88 46.868)"/><use xlink:href="#f" x="6243" transform="matrix(.01904 0 0 -.01904 235.583 -81.375)"/><path d="M7.84-2.002h.44Q7.6.33 4.876.33 3.124.33 1.922-.86.731-2.053.731-4.015q0-2.012 1.292-3.264 1.291-1.252 3.053-1.252 1.062 0 1.953.471.89.46.89 1.131 0 .25-.17.471-.16.22-.47.22-.66 0-.811-.77-.12-.581-.37-.812-.26-.23-1.012-.23-1.341 0-2.022.931-.671.931-.671 2.804 0 1.932.72 3.023Q3.846-.2 5.318-.2q1.982 0 2.523-1.802z" aria-label="c" style="font-size:20.5055px;font-family:Baskerville;-inkscape-font-specification:Baskerville" transform="matrix(.99973 0 0 .99973 360.81 -81.375)"/><use xlink:href="#e" x="7314" transform="matrix(.01904 0 0 -.01904 235.583 -81.375)"/><g aria-label="cells" style="font-size:20.5055px;font-family:Baskerville;-inkscape-font-specification:Baskerville"><path d="M401.034-83.377h.44q-.68 2.333-3.403 2.333-1.752 0-2.953-1.192-1.19-1.19-1.19-3.153 0-2.012 1.29-3.263 1.292-1.251 3.053-1.251 1.061 0 1.952.47.891.46.891 1.131 0 .25-.17.47-.16.221-.47.221-.661 0-.811-.77-.12-.581-.37-.811-.26-.23-1.012-.23-1.341 0-2.022.93-.67.931-.67 2.803 0 1.932.72 3.023.731 1.091 2.203 1.091 1.982 0 2.522-1.802zM410.143-86.8h-5.716q-.04.59-.04.88 0 2.163.671 3.254.68 1.081 2.022 1.081 1.822 0 2.582-1.632h.48q-.32 1.021-1.27 1.602-.951.57-2.072.57-1.041 0-1.972-.52-.921-.53-1.512-1.491-.59-.961-.59-2.333 0-1.942 1.14-3.223 1.142-1.291 2.854-1.291 1.611 0 2.492.98.88.982.93 2.123zm-1.752-.4q.03-.23.03-.41 0-.882-.52-1.362-.51-.49-1.261-.49-1.822 0-2.173 2.261zM414.067-95.138v10.95q0 1.312.03 1.652.04.34.29.52.25.18.89.18h.241v.461h-4.384v-.46h.28q.6 0 .851-.16.26-.17.31-.47.05-.301.05-1.723v-8.107q0-1.292-.23-1.622-.23-.34-1.121-.34v-.46q.61 0 1.431-.141.831-.14 1.142-.28zM418.982-95.138v10.95q0 1.312.03 1.652.04.34.29.52.25.18.89.18h.241v.461h-4.384v-.46h.28q.6 0 .85-.16.261-.17.311-.47.05-.301.05-1.723v-8.107q0-1.292-.23-1.622-.23-.34-1.121-.34v-.46q.61 0 1.431-.141.831-.14 1.141-.28zM421.584-81.115v-2.692h.39q.681 2.332 2.433 2.332.76 0 1.131-.46.38-.46.38-1.011 0-.641-.4-1.051-.41-.41-1.592-.991-1.24-.61-1.781-1.202-.54-.58-.54-1.43 0-.812.58-1.542.58-.741 1.631-.741 1.071 0 1.772.87.15-.15.39-.73h.37v2.532h-.37q-.2-.91-.78-1.561-.57-.66-1.352-.66-.6 0-.97.37-.371.37-.371.86 0 .541.41.931.4.4 1.532.911 1.702.771 2.082 1.502.38.74.38 1.421 0 1.071-.71 1.742-.701.67-1.772.67-1.131 0-2.012-.93-.27.3-.44.86z"/></g><use xlink:href="#g" x="10083" transform="matrix(.01904 0 0 -.01904 235.583 -81.375)"/><text xml:space="preserve" x="135.035" y="-96.599" style="font-style:normal;font-variant:normal;font-weight:400;font-stretch:normal;font-size:20.5px;font-family:Baskerville;-inkscape-font-specification:Baskerville;fill:none;stroke:#000;stroke-width:0;stroke-dasharray:none"><tspan x="135.035" y="-96.599">=</tspan></text><path d="M229.379-22.595h-.553q-2.674-3.324-2.674-7.6 0-4.044 2.586-7.279h.553q-1.273 1.402-1.962 3.307-.68 1.906-.68 3.916 0 2.49.792 4.493.8 2.01 1.938 3.163zM282.67-22.595q1.13-1.153 1.922-3.163.801-2.002.801-4.493 0-1.914-.649-3.828-.648-1.913-1.994-3.395h.561q2.587 3.235 2.587 7.28 0 4.275-2.675 7.599z" style="font-size:20.5px;font-family:Baskerville;-inkscape-font-specification:Baskerville;stroke:#000;stroke-width:.3;stroke-dasharray:none"/><g style="stroke-width:1.25"><g style="font-size:20.5055px;font-family:Baskerville;-inkscape-font-specification:Baskerville;stroke-width:1.25"><path d="M7.84-2.002h.44Q7.6.33 4.876.33 3.124.33 1.922-.86.731-2.053.731-4.015q0-2.012 1.292-3.264 1.291-1.252 3.053-1.252 1.062 0 1.953.471.89.46.89 1.131 0 .25-.17.471-.16.22-.47.22-.66 0-.811-.77-.12-.581-.37-.812-.26-.23-1.012-.23-1.341 0-2.022.931-.671.931-.671 2.804 0 1.932.72 3.023Q3.846-.2 5.318-.2q1.982 0 2.523-1.802z" aria-label="c" style="stroke-width:1.25" transform="matrix(.79979 0 0 .79979 239.266 50.519)"/></g></g><use xlink:href="#e" x="7314" style="stroke-width:1.25" transform="matrix(.01523 0 0 -.01523 139.085 50.519)"/><g style="stroke-width:1.25"><g aria-label="cells" style="font-size:20.5055px;font-family:Baskerville;-inkscape-font-specification:Baskerville;stroke-width:1.25"><path d="M7.84-2.002h.44Q7.6.33 4.876.33 3.124.33 1.922-.86.731-2.053.731-4.015q0-2.012 1.292-3.264 1.291-1.252 3.053-1.252 1.062 0 1.953.471.89.46.89 1.131 0 .25-.17.471-.16.22-.47.22-.66 0-.811-.77-.12-.581-.37-.812-.26-.23-1.012-.23-1.341 0-2.022.931-.671.931-.671 2.804 0 1.932.72 3.023Q3.846-.2 5.318-.2q1.982 0 2.523-1.802zM16.951-5.427h-5.717q-.04.591-.04.881 0 2.163.67 3.254.682 1.082 2.023 1.082 1.823 0 2.583-1.632h.481Q16.631-.821 15.68-.24q-.95.57-2.072.57-1.041 0-1.973-.52-.92-.53-1.511-1.492-.591-.961-.591-2.333 0-1.942 1.141-3.224 1.142-1.292 2.854-1.292 1.612 0 2.493.982.881.98.931 2.122zm-1.752-.4q.03-.23.03-.41 0-.882-.52-1.362-.511-.491-1.262-.491-1.823 0-2.173 2.263zM20.876-13.767v10.954q0 1.311.03 1.652.04.34.29.52.25.18.891.18h.24V0h-4.385v-.46h.28q.601 0 .852-.16.26-.171.31-.471.05-.3.05-1.722v-8.11q0-1.292-.23-1.623-.23-.34-1.122-.34v-.46q.611 0 1.432-.14.831-.14 1.142-.281zM25.792-13.767v10.954q0 1.311.03 1.652.04.34.29.52.25.18.892.18h.24V0h-4.386v-.46h.28q.602 0 .852-.16.26-.171.31-.471.05-.3.05-1.722v-8.11q0-1.292-.23-1.623-.23-.34-1.121-.34v-.46q.61 0 1.431-.14.831-.14 1.142-.281zM28.395.26v-2.693h.39c.252.865.703 1.795 1.579 2.168.582.228 1.318.263 1.834-.14.682-.569.73-1.758.018-2.324-1.02-.826-2.397-1.129-3.293-2.124-.683-.748-.648-1.958-.063-2.753a1.981 1.981 0 0 1 1.703-.924c.71-.036 1.409.308 1.837.87.243-.179.221-.67.494-.73.115.015.325-.064.267.124v2.409c-.12-.028-.335.062-.383-.057-.19-.787-.632-1.567-1.35-1.98-.632-.34-1.552-.23-1.936.428-.355.547-.143 1.314.378 1.676.92.71 2.114.966 3 1.732.529.424.765 1.109.843 1.761.083.815-.251 1.672-.93 2.15-.957.71-2.399.617-3.275-.185-.18-.224-.354-.338-.47-.007-.192.176-.106.674-.438.6h-.205z" style="stroke-width:1.25" transform="matrix(.79979 0 0 .79979 265.176 50.519)"/></g></g><path d="M203.629-77.23h-.691q-3.343-4.154-3.343-9.5 0-5.054 3.233-9.098h.69q-1.591 1.752-2.452 4.134-.85 2.382-.85 4.895 0 3.113.99 5.615 1.001 2.513 2.423 3.954zM211.366-84.127h.44q-.68 2.333-3.403 2.333-1.751 0-2.953-1.191-1.19-1.192-1.19-3.154 0-2.012 1.29-3.263 1.292-1.251 3.054-1.251 1.06 0 1.951.47.891.46.891 1.132 0 .25-.17.47-.16.22-.47.22-.66 0-.811-.77-.12-.581-.37-.811-.26-.23-1.011-.23-1.342 0-2.022.93-.671.931-.671 2.803 0 1.932.72 3.023.731 1.091 2.203 1.091 1.982 0 2.522-1.802zM246.106-84.127h.44q-.68 2.333-3.403 2.333-1.752 0-2.953-1.191-1.191-1.192-1.191-3.154 0-2.012 1.291-3.263t3.053-1.251q1.061 0 1.952.47.89.46.89 1.132 0 .25-.17.47-.16.22-.47.22-.66 0-.81-.77-.12-.581-.371-.811-.26-.23-1.011-.23-1.341 0-2.022.93-.67.931-.67 2.803 0 1.932.72 3.023.73 1.091 2.202 1.091 1.982 0 2.523-1.802zM255.215-87.55h-5.716q-.04.59-.04.88 0 2.163.67 3.254.681 1.081 2.023 1.081 1.821 0 2.582-1.631h.48q-.32 1.02-1.27 1.601-.952.57-2.073.57-1.04 0-1.972-.52-.92-.53-1.511-1.491-.59-.961-.59-2.333 0-1.941 1.14-3.223 1.142-1.291 2.853-1.291 1.612 0 2.493.981.88.981.93 2.122zm-1.752-.4q.03-.23.03-.41 0-.882-.52-1.362-.511-.49-1.262-.49-1.822 0-2.172 2.262zM259.138-95.888v10.95q0 1.312.03 1.652.04.34.29.52.251.18.892.18h.24v.461h-4.384v-.46h.28q.6 0 .85-.16.26-.17.311-.47.05-.301.05-1.722v-8.108q0-1.292-.23-1.622-.23-.34-1.121-.34v-.46q.61 0 1.431-.14.83-.14 1.141-.281zM264.053-95.888v10.95q0 1.312.03 1.652.04.34.29.52.25.18.891.18h.24v.461h-4.384v-.46h.28q.601 0 .851-.16.26-.17.31-.47.05-.301.05-1.722v-8.108q0-1.292-.23-1.622-.23-.34-1.12-.34v-.46q.61 0 1.43-.14.832-.14 1.142-.281zM266.656-81.864v-2.693h.39q.68 2.332 2.433 2.332.76 0 1.13-.46.381-.46.381-1.011 0-.64-.4-1.051-.41-.41-1.592-.991-1.241-.61-1.782-1.201-.54-.58-.54-1.432 0-.81.58-1.541.58-.741 1.632-.741 1.071 0 1.772.87.15-.15.39-.73h.37v2.533h-.37q-.2-.911-.78-1.562-.571-.66-1.352-.66-.6 0-.971.37-.37.37-.37.86 0 .541.41.932.4.4 1.532.91 1.701.771 2.082 1.502.38.74.38 1.421 0 1.071-.71 1.742-.701.67-1.772.67-1.132 0-2.012-.93-.27.3-.44.86zM272.552-77.23q1.41-1.441 2.402-3.954 1-2.502 1-5.615 0-2.393-.81-4.785-.81-2.392-2.492-4.244h.7q3.233 4.044 3.233 9.099 0 5.345-3.343 9.5z" style="font-size:20.5px;font-family:Baskerville;-inkscape-font-specification:Baskerville;stroke:#000;stroke-width:0"/><use xlink:href="#e" x="7314" transform="matrix(.01904 0 0 -.01904 77.996 -81.814)"/><path d="M105.78 37.563c-2.307 2.55-4.4 5.28-5.807 7.855-.329.59-.304 1.499.454 1.728.744.383 1.576.536 2.357.823 1.5-1.591-.258-2.811-.76-2.072-.439.155-.904.278-1.373.226-.41.335.536.734.781.959.266.151.993.598.965.542-.375-.605.329-1.23.534-1.785 1.272-2.201 3.175-4.716 5.091-6.936l-2.243-1.34zM146.479 38.55a10.306 10.306 0 0 1 2.726-1.034c-.63-.19-1.636-.11-2.4-.19-.806.115-1.047 1.435-1.811 1.735-1.46 1.838-2.825 3.75-4.19 5.658-.641.958-1.235 1.987-1.447 3.134.687.298 2.385.709 3.646.367.342-2.474 2.025-4.427 3.35-6.444.943-1.436 2.096-2.73 2.946-4.229-.957-.218-1.89-.553-2.868-.671-.79.332-1.578 1.416-1.84 2.658z" style="fill:red;fill-opacity:.7;stroke:#000;stroke-width:0;stroke-dasharray:none"/><path d="M107.402 174.982c-1.876-1.69-3.39-2.199-5.361-2.664-1.637-.387-3.947-.456-4.48-.47-1.733-.045-5.165-.049-7.633.34-8.725 1.374-16.705 3.903-24.373 8.408-1.548.91-2.99 1.989-4.484 2.983-1.235 1.11-2.55 2.134-3.704 3.327-3.644 3.768-6.874 9.091-5.397 14.564.315 1.166.853 2.281 1.522 3.287.738 1.11 1.655 2.11 2.652 2.994a22.972 22.972 0 0 0 3.725 2.66c2.512 1.456 5.088 2.816 7.745 3.988 5.07 2.237 11.16 3.274 16.604 4.033 7.438 1.037 14.974.744 22.41-.095.84-.095 2.316.125 2.899-.65" style="fill:none;fill-opacity:1;stroke:#000;stroke-width:1;stroke-dasharray:none"/><path d="M142.022 168.52c-3.451-4.627-10.67-8.216-17.014-8.767-5.757-.5-12.002.066-17.159 2.977-2.224 1.255-4.133 3.49-4.545 5.518-.327 1.61-.115 5.521 3.6 7.093" style="fill:none;fill-opacity:1;stroke:#000;stroke-width:1;stroke-dasharray:none"/><path d="M217.972 173.704c-1.56-3.098-5.755-6.074-8.436-7.549-9.818-5.401-20.083-9.665-31.781-12.28-10.466-2.103-21.29-3.385-31.929-1.957-4.523.744-9.868 2.833-11.095 7.756-.969 3.707 1.401 7.414 4.674 9.05 1.028 1 5.215 2.21 2.617-.204" style="fill:none;fill-opacity:1;stroke:#000;stroke-width:1;stroke-dasharray:none"/><path d="M260.921 174.99c.566.172 1.032.263 1.407-.029.08-1.165.06-.665-.048-2.099-1.533-8.164-7.699-11.332-14.006-13.515-7.58-2.624-15.742-2.374-23.57-1.14-1.769.28-3.536.6-5.267 1.06-3.726.994-7.73 2.016-10.86 4.435-1.014.783-2.162 1.987-2.212 3.377-.045 1.26.551 2.284 1.39 3.031 2.83 2.516 6.048 4.383 9.73 4.303.236-.163.324-.473.487-.71" style="fill:none;fill-opacity:1;stroke:#000;stroke-width:1;stroke-dasharray:none"/><path d="M225.776 218.823c-3.487-.396.961 4.146 2.47 4.997 11.738 6.623 25.425 8.43 38.579 7.57 14.126-.923 28.98-6.333 37.563-18.165 6.112-8.425 10.252-19.689 6.587-29.965-2.25-6.307-8.723-9.664-14.586-11.66-10.452-3.56-23.305-2.981-31.158-1.243-2.421.537-10.087 2.915-4.31 4.633" style="fill:none;fill-opacity:1;stroke:#000;stroke-width:1;stroke-dasharray:none"/><path d="M174.118 218.633c-1.6 1.83 1.596 3.342 2.945 4.194 4.773 2.74 9.747 4.534 15.092 5.754 7.019 1.833 14.235 2.676 21.494 2.434 5.611.047 12.32-.966 16.583-4.127 1.942-1.44 1.016-3.49-.27-4.98-1.115-1.291-2.228-2.092-4.227-3.085" style="fill:none;fill-opacity:1;stroke:#000;stroke-width:1;stroke-dasharray:none"/><path d="M113.306 215.714c-1.918 1.38-4.302 3.423-3.462 6.082 1.112 2.604 4.09 3.466 6.311 4.876 4.765 2.511 10.178 3.423 15.442 4.277 11.77 1.57 23.804.918 35.419-1.464 3.972-1.033 8.206-2.103 11.366-4.852 2.223-2.031-.392-4.688-2.39-5.574-.57-.28-1.24-.447-1.874-.426M28.557 192.045c-.635-1.418-5.33-3.232-10.824-1.5-3.337 1.052-6.143 3.245-6.403 6.928-.155 2.207.24 3.064 1.268 4.972.462.858 1.196 1.564 1.942 2.201.823.704 2.623 1.967 3.61 2.424 3.445 1.594 5.384 2.084 9.408 2.264 1.08.048 2.164-.17 3.219-.408.961-.217 1.907-.53 2.796-.948 2.373-1.113 4.407-2.987 4.99-5.58.477-2.126.186-3.17-.428-5.183a6.033 6.033 0 0 0-1.201-2.208c-1.882-2.146-6.534-4.791-9.381-4.829" style="fill:none;fill-opacity:1;stroke:#000;stroke-width:1;stroke-dasharray:none"/><path d="M-86.915 115.646c6.484 2.062 13.826 1.36 20.113-1.04 16.194-6.183 24.898-29.257 17.229-45.024-5.458-11-16.16-19.546-28.332-21.7-8.263-1.072-17.061.533-23.872 5.521-13.339 8.99-19.165 27.32-13.693 42.405 3.527 10.636 12.74 19.664 24.086 21.225a29.4 29.4 0 0 0 9.44.117" style="fill:#e5f6ff;fill-opacity:1;stroke:#000;stroke-width:.9;stroke-miterlimit:2;stroke-dasharray:none"/><path d="M104.877 110.693c-1.897 2.222-3.824 4.46-5.232 7.035-.329.59-.304 1.5.453 1.729.745.382 1.577.535 2.358.822.95-.152 1.795-.654 2.678-1.01a114.43 114.43 0 0 1 4.674-1.9c.713-.088-.5-.395-.675-.601-.56-.314-1.136-.627-1.77-.76-.978 1.088-2.25 1.844-3.424 2.696-1.1.763-2.2 1.534-3.191 2.436l2.738 1.721c1.578-1.182 3.132-2.397 4.708-3.582.61-.472 1.154-1.03 1.779-1.476.177-.672-.825-1.003-1.228-1.42-.523-.308-.979-1.01-1.565-.44-1.785.853-3.637 1.56-5.485 2.264-.438.155-.903.278-1.372.226-.41.335.536.734.78.96.267.15.994.598.966.541-.375-.605.329-1.23.534-1.784 1.272-2.202 2.928-4.142 4.517-6.116l-2.243-1.34zM144.652 112.472c-2.012 1.153-4.01 2.34-5.896 3.691-.488.89.29 1.922 1.23 1.999 2.389.589 4.843-.019 7.249-.163a10.307 10.307 0 0 1 2.91.19c-.494-.434-1.443-.778-2.104-1.169-.783-.229-1.597.58-2.37.828-2.09 1.067-4.125 2.24-6.16 3.41-.98.606-1.946 1.295-2.615 2.251l-1.76-.415 6.675 3.413-1.75-1.151c1.337-2.11 3.695-3.164 5.72-4.474 1.47-.89 3.041-1.615 4.436-2.626-.78-.595-1.49-1.287-2.331-1.8-1.653-.205-3.316.03-4.97.092-1.242.09-2.541.308-3.746-.102.32.492 1.206 1.175 1.735 1.719.586.55.359-.828 1.006-.838 1.623-1.254 3.448-2.205 5.182-3.291l-2.441-1.564z" style="fill:red;fill-opacity:.7;stroke:#000;stroke-width:0;stroke-dasharray:none"/><g transform="translate(0 -87.937)"><path d="M222.717 51.452h-.69q-3.344-4.154-3.344-9.5 0-5.054 3.234-9.098h.69q-1.591 1.751-2.452 4.134-.85 2.382-.85 4.894 0 3.114.99 5.616 1.001 2.512 2.422 3.954zM289.332 51.452q1.411-1.442 2.402-3.954 1.001-2.502 1.001-5.616 0-2.392-.81-4.784-.811-2.393-2.493-4.244h.7q3.234 4.044 3.234 9.099 0 5.345-3.344 9.499z" style="font-size:20.5px;font-family:Baskerville;-inkscape-font-specification:Baskerville;stroke:#000;stroke-width:0"/><path d="M7.84-2.002h.44Q7.6.33 4.876.33 3.124.33 1.922-.86.731-2.053.731-4.015q0-2.012 1.292-3.264 1.291-1.252 3.053-1.252 1.062 0 1.953.471.89.46.89 1.131 0 .25-.17.471-.16.22-.47.22-.66 0-.811-.77-.12-.581-.37-.812-.26-.23-1.012-.23-1.341 0-2.022.931-.671.931-.671 2.804 0 1.932.72 3.023Q3.846-.2 5.318-.2q1.982 0 2.523-1.802z" aria-label="c" style="font-size:20.5055px;font-family:Baskerville;-inkscape-font-specification:Baskerville" transform="matrix(.99973 0 0 .99973 222.772 46.868)"/><use xlink:href="#e" x="7314" transform="matrix(.01904 0 0 -.01904 97.546 46.868)"/><g aria-label="cells" style="font-size:20.5055px;font-family:Baskerville;-inkscape-font-specification:Baskerville"><path d="M262.996 44.866h.44q-.68 2.332-3.402 2.332-1.752 0-2.953-1.191-1.191-1.191-1.191-3.153 0-2.012 1.29-3.263 1.292-1.252 3.054-1.252 1.06 0 1.952.47.89.461.89 1.132 0 .25-.17.47-.16.22-.47.22-.66 0-.81-.77-.121-.58-.371-.81-.26-.231-1.011-.231-1.342 0-2.022.93-.67.932-.67 2.804 0 1.931.72 3.023.73 1.09 2.202 1.09 1.982 0 2.522-1.801zM272.105 41.443h-5.715q-.04.59-.04.88 0 2.162.67 3.254.681 1.08 2.022 1.08 1.822 0 2.583-1.631h.48q-.32 1.021-1.27 1.602-.952.57-2.073.57-1.04 0-1.972-.52-.92-.53-1.511-1.492-.59-.96-.59-2.332 0-1.942 1.14-3.223 1.141-1.292 2.853-1.292 1.612 0 2.492.981.881.981.931 2.123zm-1.751-.4q.03-.231.03-.411 0-.881-.52-1.362-.511-.49-1.262-.49-1.822 0-2.172 2.262zM276.03 33.104v10.951q0 1.311.03 1.652.04.34.29.52.25.18.89.18h.24v.46h-4.384v-.46h.28q.601 0 .851-.16.26-.17.31-.47.05-.3.05-1.722v-8.108q0-1.291-.23-1.621-.23-.34-1.12-.34v-.461q.61 0 1.43-.14.832-.14 1.142-.28zM280.944 33.104v10.951q0 1.311.03 1.652.04.34.29.52.25.18.891.18h.24v.46h-4.384v-.46h.28q.601 0 .851-.16.26-.17.31-.47.05-.3.05-1.722v-8.108q0-1.291-.23-1.621-.23-.34-1.12-.34v-.461q.61 0 1.43-.14.831-.14 1.142-.28zM283.547 47.128v-2.693h.39c.251.865.702 1.795 1.577 2.168.582.228 1.318.262 1.834-.14.682-.569.73-1.758.018-2.323-1.02-.826-2.396-1.129-3.292-2.123-.682-.749-.648-1.958-.063-2.753a1.98 1.98 0 0 1 1.702-.924 2.205 2.205 0 0 1 1.837.87c.243-.179.221-.67.494-.73.115.015.325-.064.267.124v2.408c-.12-.028-.335.062-.383-.057-.19-.786-.632-1.566-1.349-1.979-.632-.34-1.552-.23-1.937.427-.354.547-.142 1.314.379 1.677.92.71 2.113.965 3 1.73.528.424.764 1.11.841 1.762.084.814-.25 1.67-.929 2.149-.957.709-2.398.616-3.274-.186-.18-.223-.354-.337-.47-.006-.192.176-.106.674-.438.6h-.204z"/></g></g></svg>