<svg xmlns="http://www.w3.org/2000/svg" xmlns:xlink="http://www.w3.org/1999/xlink" id="svg11916" width="800" height="236.662" preserveAspectRatio="none" version="1.1" viewBox="-104.248 -50.537 800 236.662"><style id="style11778" type="text/css">.grid-thin{stroke:#9e9ed1;stroke-width:.3}.axes{stroke:#000;stroke-width:.9}.axis-arrow{stroke-width:1.1;stroke:#000;fill:none;stroke-linecap:round;stroke-linejoin:round}.notch-labels-out-grid{stroke:none;fill:#000}.dots-open-thin{stroke-width:1.3;stroke:red;fill:none}.dots-full-thin{stroke-width:1.1;stroke:red;fill:red}.none{display:none}</style><defs id="defs11790"><path id="STIXWEBMAINI-78" stroke-width="1" d="m243 355 12-57c70 107 107 143 151 143 24 0 41-15 41-37 0-21-14-36-34-36-19 0-28 17-52 17-18 0-54-44-98-121 0-7 2-21 8-45l32-134c7-28 16-41 30-41 13 0 24 10 47 40 9 12 13 18 21 28l15-9C358 13 332-11 294-11c-32 0-47 18-59 68l-29 119-88-119C74-2 54-11 23-11S-27 5-27 31c0 20 14 36 34 36 9 0 19-4 32-11 10-6 20-9 26-9 11 0 30 19 51 49l82 116-28 124c-14 60-21 68-46 68-8 0-20-2-39-7l-18-5-3 16 11 4c61 22 94 29 117 29 25 0 37-18 51-86Z"/><path id="STIXWEBMAIN-2212" stroke-width="1" d="M621 220H64v66h557v-66Z"/><path id="STIXWEBMAIN-34" stroke-width="1" d="M473 167H370V0h-78v167H12v64l314 445h44V231h103v-64zm-181 64v343L52 231h240Z"/><path id="STIXWEBMAIN-33" stroke-width="1" d="m61 510-16 4c29 95 92 162 196 162 93 0 156-55 156-137 0-48-26-98-93-138 44-19 62-31 83-53 28-31 44-77 44-129 0-53-17-102-46-140-48-64-143-93-232-93C80-14 41 7 41 43c0 21 18 36 41 36 17 0 33-6 61-26 37-26 58-31 86-31 74 0 130 68 130 153 0 76-35 125-104 145-22 7-45 10-102 10v14c38 13 64 24 84 36 49 28 81 73 81 134 0 68-42 102-108 102-62 0-108-32-149-106Z"/><path id="STIXWEBMAIN-32" stroke-width="1" d="M474 137 420 0H29v12l178 189c94 99 130 175 130 260 0 91-54 141-139 141-72 0-107-32-147-130l-21 5c21 117 85 199 208 199 113 0 185-77 185-176 0-79-39-154-128-248L130 76h234c42 0 63 11 96 67Z"/><path id="STIXWEBMAIN-31" stroke-width="1" d="M394 0H118v15c74 4 95 25 95 80v449c0 34-9 49-30 49-10 0-27-5-45-12l-27-10v14l179 91 9-3V76c0-43 20-61 95-61V0Z"/><path id="STIXWEBMAIN-30" stroke-width="1" d="M476 330c0-172-63-344-226-344C79-14 24 172 24 336c0 177 69 340 230 340 131 0 222-141 222-346zm-96-5c0 208-44 325-132 325-83 0-128-118-128-321S164 12 250 12c85 0 130 115 130 313Z"/><clipPath id="trbl_clip_0_562.5_168.75_0"><path id="path11780" d="M0 0h562.5v168.75H0Z"/></clipPath></defs><g id="grid"><path id="path11794" d="M31.25 158.197V0" class="grid-thin"/><path id="path11796" d="M93.75 158.197V0" class="grid-thin"/><path id="path11798" d="M156.25 158.197V0" class="grid-thin"/><path id="path11800" d="M218.75 158.197V0" class="grid-thin"/><path id="path11802" d="M281.25 158.197V0" class="grid-thin"/><path id="path11804" d="M343.75 158.197V0" class="grid-thin"/><path id="path11806" d="M406.25 158.197V0" class="grid-thin"/><path id="path11808" d="M468.75 158.197V0" class="grid-thin"/><path id="path11810" d="M531.25 158.197V0" class="grid-thin"/><path id="path11812" d="M0 150h562.5" class="grid-thin"/><path id="path11814" d="M0 87.5h562.5" class="grid-thin"/><path id="path11816" d="M0 25h256.972m16.081 0H562.5" class="grid-thin"/></g><g id="axes"><path id="path11819" d="M0 150h570.697" class="axes"/><path id="path11821" d="M281.25 158.197V-8.197" class="axes"/></g><g id="axes arrows"><path id="path11824" d="M567.316 145.492c0 1.803 2.536 4.508 3.381 4.508-.845 0-3.381 2.705-3.381 4.508" class="axis-arrow"/><path id="path11826" d="M276.742-4.816c1.803 0 4.508-2.536 4.508-3.381 0 .845 2.705 3.381 4.508 3.381" class="axis-arrow"/></g><g id="axes labels"><g id="g11831" style="stroke:none;fill:#000" transform="matrix(.01904 0 0 -.01904 582.993 154.51)"><use xlink:href="#STIXWEBMAINI-78" id="use11829" x="0" y="0"/></g></g><g id="graphs"><g id="g11855" clip-path="url(#trbl_clip_0_562.5_168.75_0)"><path id="path11837" d="m-31.25 150 184.002-61.334m6.996 60.168 180.504-60.168m6.996 60.168 180.504-60.168m6.996 60.168L718.75 87.5" style="stroke:red;stroke-width:1.2;fill:none"/><circle id="circle11841" cx="156.25" cy="87.5" r="3.688" class="dots-open-thin"/><circle id="circle11843" cx="156.25" cy="150" r="3.688" class="dots-full-thin"/><circle id="circle11845" cx="343.75" cy="87.5" r="3.688" class="dots-open-thin"/><circle id="circle11847" cx="343.75" cy="150" r="3.688" class="dots-full-thin"/><circle id="circle11849" cx="531.25" cy="87.5" r="3.688" class="dots-open-thin"/><circle id="circle11851" cx="531.25" cy="150" r="3.688" class="dots-full-thin"/></g></g><g id="notch labels"><g id="g11862" class="notch-labels-out-grid" transform="matrix(.01904 0 0 -.01904 19.959 175.858)"><use xlink:href="#STIXWEBMAIN-2212" id="use11858" x="0" y="0"/><use xlink:href="#STIXWEBMAIN-34" id="use11860" x="685" y="0"/></g><g id="g11868" class="notch-labels-out-grid" transform="matrix(.01904 0 0 -.01904 82.459 175.858)"><use xlink:href="#STIXWEBMAIN-2212" id="use11864" x="0" y="0"/><use xlink:href="#STIXWEBMAIN-33" id="use11866" x="685" y="0"/></g><g id="g11874" class="notch-labels-out-grid" transform="matrix(.01904 0 0 -.01904 144.959 175.858)"><use xlink:href="#STIXWEBMAIN-2212" id="use11870" x="0" y="0"/><use xlink:href="#STIXWEBMAIN-32" id="use11872" x="685" y="0"/></g><g id="g11880" class="notch-labels-out-grid" transform="matrix(.01904 0 0 -.01904 207.459 175.858)"><use xlink:href="#STIXWEBMAIN-2212" id="use11876" x="0" y="0"/><use xlink:href="#STIXWEBMAIN-31" id="use11878" x="685" y="0"/></g><g id="g11884" class="notch-labels-out-grid" transform="matrix(.01903 0 0 -.01903 276.488 175.849)"><use xlink:href="#STIXWEBMAIN-30" id="use11882" x="0" y="0"/></g><g id="g11888" class="notch-labels-out-grid" transform="matrix(.01903 0 0 -.01903 338.988 175.849)"><use xlink:href="#STIXWEBMAIN-31" id="use11886" x="0" y="0"/></g><g id="g11892" class="notch-labels-out-grid" transform="matrix(.01903 0 0 -.01903 401.488 175.849)"><use xlink:href="#STIXWEBMAIN-32" id="use11890" x="0" y="0"/></g><g id="g11896" class="notch-labels-out-grid" transform="matrix(.01903 0 0 -.01903 463.988 175.849)"><use xlink:href="#STIXWEBMAIN-33" id="use11894" x="0" y="0"/></g><g id="g11900" class="notch-labels-out-grid" transform="matrix(.01903 0 0 -.01903 526.488 175.849)"><use xlink:href="#STIXWEBMAIN-34" id="use11898" x="0" y="0"/></g><g id="g11904" class="notch-labels-out-grid" transform="matrix(.01903 0 0 -.01903 260.25 31.428)"><use xlink:href="#STIXWEBMAIN-32" id="use11902" x="0" y="0"/></g></g><g id="ze_g" transform="translate(308.363 -7.353)"><path id="ze_path" d="M-33.636-17.956h-.711v-6.634h.71q.648 1.2 1.707 1.2 1.232 0 1.832-1.2.616-1.217.616-3.618 0-2.243-.98-3.254-.979-1.027-2.242-1.027-1.533 0-2.26 1.549-.363.805-1.01.805-.759 0-.759-.79 0-.869 1.248-1.564 1.248-.695 2.891-.695 2.622 0 4.076 1.722 1.469 1.722 1.469 4.17 0 2.101-1.248 3.476-1.232 1.358-3.017 1.358-1.39 0-2.322-.884Zm-2.038 4.802q0-.695.49-1.184.505-.506 1.2-.506.71 0 1.2.506.506.49.506 1.184 0 .711-.505 1.201-.49.505-1.2.505-.712 0-1.201-.52-.49-.506-.49-1.186Z" style="fill:#000"/></g><g id="g11914" transform="translate(322.113 -7.353)"><path id="path11910" d="M-33.636-17.956h-.711v-6.634h.71q.648 1.2 1.707 1.2 1.232 0 1.832-1.2.616-1.217.616-3.618 0-2.243-.98-3.254-.979-1.027-2.242-1.027-1.533 0-2.26 1.549-.363.805-1.01.805-.759 0-.759-.79 0-.869 1.248-1.564 1.248-.695 2.891-.695 2.622 0 4.076 1.722 1.469 1.722 1.469 4.17 0 2.101-1.248 3.476-1.232 1.358-3.017 1.358-1.39 0-2.322-.884Zm-2.038 4.802q0-.695.49-1.184.505-.506 1.2-.506.71 0 1.2.506.506.49.506 1.184 0 .711-.505 1.201-.49.505-1.2.505-.712 0-1.201-.52-.49-.506-.49-1.186Z" style="fill:#000"/></g></svg>