<svg xmlns="http://www.w3.org/2000/svg" xmlns:xlink="http://www.w3.org/1999/xlink" id="svg171797" width="1240" height="190" preserveAspectRatio="none" version="1.1" viewBox="-30 30 1240 190"><style id="style171643" type="text/css">.grid{stroke:#9e9ed1;stroke-width:.4}.axes{stroke:#000;stroke-width:.9}</style><defs id="defs171655"><path id="STIXWEBMAIN-2212" stroke-width="1" d="M621 220H64v66h557z"/><path id="STIXWEBMAIN-31" stroke-width="1" d="M394 0H118v15c74 4 95 25 95 80v449c0 34-9 49-30 49-10 0-27-5-45-12l-27-10v14l179 91 9-3V76c0-43 20-61 95-61z"/><path id="STIXWEBMAIN-32" stroke-width="1" d="M474 137 420 0H29v12l178 189c94 99 130 175 130 260 0 91-54 141-139 141-72 0-107-32-147-130l-21 5c21 117 85 199 208 199 113 0 185-77 185-176 0-79-39-154-128-248L130 76h234c42 0 63 11 96 67z"/><path id="STIXWEBMAIN-39" stroke-width="1" d="M59-22 56-2c152 27 264 132 304 296-43-42-91-57-150-57-108 0-180 81-180 203 0 135 89 236 208 236 64 0 118-28 157-76 40-50 64-122 64-206 0-115-40-224-120-297C254 20 189-4 59-22Zm303 377v39c0 168-45 254-132 254-30 0-56-12-73-34-20-27-35-86-35-140 0-119 48-194 123-194 44 0 117 22 117 75z"/><path id="STIXWEBMAIN-36" stroke-width="1" d="m446 684 2-16c-157-26-269-134-296-285 49 38 83 45 127 45 117 0 189-80 189-209 0-64-18-120-51-160-37-46-93-73-159-73-79 0-142 37-177 101-28 51-47 122-47 192 0 108 38 203 109 276 86 90 165 114 303 129zm-68-496c0 128-42 194-135 194-57 0-116-24-116-116 0-152 48-252 142-252 72 0 109 72 109 174z"/><path id="STIXWEBMAIN-33" stroke-width="1" d="m61 510-16 4c29 95 92 162 196 162 93 0 156-55 156-137 0-48-26-98-93-138 44-19 62-31 83-53 28-31 44-77 44-129 0-53-17-102-46-140-48-64-143-93-232-93C80-14 41 7 41 43c0 21 18 36 41 36 17 0 33-6 61-26 37-26 58-31 86-31 74 0 130 68 130 153 0 76-35 125-104 145-22 7-45 10-102 10v14c38 13 64 24 84 36 49 28 81 73 81 134 0 68-42 102-108 102-62 0-108-32-149-106z"/><path id="STIXWEBMAIN-30" stroke-width="1" d="M476 330c0-172-63-344-226-344C79-14 24 172 24 336c0 177 69 340 230 340 131 0 222-141 222-346Zm-96-5c0 208-44 325-132 325-83 0-128-118-128-321S164 12 250 12c85 0 130 115 130 313z"/><clipPath id="trbl_clip_0_1154.6_138_0"><path id="path171645" d="M0 0h1154.6v138H0Z"/></clipPath></defs><g id="layer1"><path id="rect51" d="M591.04 71.87h289.32v138H591.04z" style="display:inline;fill:#ffe680;fill-opacity:.998808;stroke:none;stroke-dashoffset:1.02"/><text xml:space="preserve" id="text57" x="489.34" y="-181.682" style="font-size:16.2909px;font-family:Baskerville;-inkscape-font-specification:Baskerville;text-align:center;text-anchor:middle;fill:#000;fill-opacity:.998808;stroke:none;stroke-width:1;stroke-dashoffset:1.02"><tspan id="tspan57" x="489.34" y="-181.682" style="font-style:normal;font-variant:normal;font-weight:400;font-stretch:normal;font-family:&quot;Princess Sofia&quot;;-inkscape-font-specification:&quot;Princess Sofia&quot;;stroke-width:1">particle @</tspan><tspan id="tspan1" x="489.34" y="-158.919" dx="0 0 0 0 0 0 0 0 0 0 0 0 0 0 0" style="font-style:normal;font-variant:normal;font-weight:400;font-stretch:normal;font-family:&quot;Princess Sofia&quot;;-inkscape-font-specification:&quot;Princess Sofia&quot;;stroke-width:1">(x, y) = (1, 0)</tspan></text><text xml:space="preserve" id="text3" x="963.102" y="-181.682" style="font-size:16.2909px;font-family:Baskerville;-inkscape-font-specification:Baskerville;text-align:center;text-anchor:middle;fill:#000;fill-opacity:.998808;stroke:none;stroke-width:1;stroke-dashoffset:1.02"><tspan id="tspan4" x="963.102" y="-181.682" dx="0 0 0 0 0 0 0 0 0 0.70710677" style="font-style:normal;font-variant:normal;font-weight:400;font-stretch:normal;font-family:&quot;Princess Sofia&quot;;-inkscape-font-specification:&quot;Princess Sofia&quot;;stroke-width:1">particle back @</tspan><tspan id="tspan3" x="963.102" y="-158.919" dx="0 0 0 0 0 0 0 0 0 0 0 0 0 0" style="font-style:normal;font-variant:normal;font-weight:400;font-stretch:normal;font-family:&quot;Princess Sofia&quot;;-inkscape-font-specification:&quot;Princess Sofia&quot;;stroke-width:1">(x, y) = (1, 0)</tspan></text><circle id="path5" cx="221.023" cy="71.116" r=".01" style="fill:#fff;stroke:#000"/><circle id="path6" cx="241.529" cy="43.539" r=".01" style="fill:#fff;stroke:#000"/></g><g id="grid"><path id="path171657" d="M39.04 209.87v-49.28m0-13.982V71.87" class="grid"/><path id="path171659" d="M85.04 209.87v-138" class="grid"/><path id="path171661" d="M131.04 209.87v-138" class="grid"/><path id="path171663" d="M177.04 209.87v-49.277m0-13.985V71.87" class="grid"/><path id="path171665" d="M223.04 209.87v-138" class="grid"/><path id="path171667" d="M269.04 209.87v-138" class="grid"/><path id="path171669" d="M315.04 209.87v-48.407m0-14.855V71.87" class="grid"/><path id="path171671" d="M361.04 209.87v-138" class="grid"/><path id="path171673" d="M407.04 209.87v-138" class="grid"/><path id="path171675" d="M453.04 209.87v-49.277m0-13.985V71.87" class="grid"/><path id="path171677" d="M499.04 209.87v-138" class="grid"/><path id="path171679" d="M545.04 209.87v-138" class="grid"/><path id="path171681" d="M591.04 209.87v-138" class="grid"/><path id="path171683" d="M637.04 209.87v-138" class="grid"/><path id="path171685" d="M683.04 209.87v-138" class="grid"/><path id="path171687" d="M729.04 209.87v-49.284m0-13.978V71.87" class="grid"/><path id="path171689" d="M775.04 209.87v-138" class="grid"/><path id="path171691" d="M821.04 209.87v-138" class="grid"/><path id="path171693" d="M867.04 209.87v-48.415m0-14.847V71.87" class="grid"/><path id="path171695" d="M913.04 209.87v-138" class="grid"/><path id="path171697" d="M959.04 209.87v-138" class="grid"/><path id="path171699" d="M1005.04 209.87v-49.284m0-13.978V71.87" class="grid"/><path id="path171701" d="M1051.04 209.87v-138" class="grid"/><path id="path171703" d="M1097.04 209.87v-138" class="grid"/><path id="path171705" d="M1143.04 209.87v-49.278m0-13.984V71.87" class="grid"/><path id="path171707" d="M13.74 186.87h551.306m21.075 0h582.219" class="grid"/><path id="path171709" d="M13.74 140.87h1154.6" class="grid"/><path id="path171711" d="M13.74 94.87h562.668m9.713 0h582.219" class="grid"/></g><g id="axes"><path id="path171714" d="M13.74 140.87h1161.28" class="axes"/><path id="path171716" d="M591.04 209.87V65.878" class="axes"/><path id="path34" d="M587.059 67.734c1.6 0 3.999-2.25 3.999-3 0 .75 2.399 3 3.998 3" class="axes-arrows" style="fill:none;stroke:#000;stroke-width:1.1;stroke-linecap:round;stroke-linejoin:round"/><g id="g35" class="axes-labels" style="fill:#000;stroke:none" transform="matrix(.01858 0 0 -.01858 585.74 54.263)"><path id="use35" stroke-width="1" d="M52 289q7 42 54 97t116 56q35 0 64-18t43-45q42 63 101 63 37 0 64-22t28-59q0-29-14-47t-27-22q-13-4-23-4-19 0-31 11t-12 29q0 46 50 63-11 13-40 13-13 0-19-2-38-16-56-66-60-221-60-258 0-28 16-40t35-12q37 0 73 33t49 81q3 10 6 11t16 2h4q15 0 15-8 0-1-2-11-16-57-62-101T333-11q-70 0-106 63-41-62-94-62h-6q-49 0-70 26T35 71q0 32 19 52t45 20q43 0 43-42 0-20-12-35t-23-20q-11-5-13-5l-3-1q0-1 6-4t16-7q10-4 19-3 36 0 62 45 9 16 23 68t28 108q14 56 16 66 5 27 5 39 0 28-15 40t-34 12q-40 0-75-32t-49-82q-2-9-5-10t-16-2H58q-6 6-6 11z"/></g><path id="path33" d="M1174.742 136.914c0 1.6 2.249 3.999 2.999 3.999-.75 0-3 2.4-3 3.999" class="axes-arrows" style="fill:none;stroke:#000;stroke-width:1.1;stroke-linecap:round;stroke-linejoin:round"/><g id="g34" class="axes-labels" style="fill:#000;stroke:none" transform="matrix(.01858 0 0 -.01858 1187.16 145.314)"><path id="use34" stroke-width="1" d="M153.225 385q-7 7-7 10 0 4 3 16t5 14q2 5 9 5t51 1h53l19 80q3 11 7 29t7 26q3 8 6 20t8 17q5 5 10 12t14 9q9 2 18 2 18-1 25-11t7-19q0-7-9-47t-20-79l-10-37q0-2 50-2h51q7-7 7-11 0-22-13-35h-107l-36-145q-39-160-39-172 0-42 27-42 35 0 68 34t53 84q2 6 5 7t15 2h4q15 0 15-8 0-3-3-12-5-16-18-38t-34-47q-21-25-51-42t-61-17q-30 0-57 15t-39 52q-2 8-2 27v18l35 140q35 141 36 142 0 2-51 2z"/></g></g><g id="notch labels" style="display:inline;stroke:none;fill:#b8b8de"><g id="g171727" transform="matrix(.01656 0 0 -.01656 25.071 158.815)"><use xlink:href="#STIXWEBMAIN-2212" id="use171719" x="0" y="0"/><g id="g171725" transform="translate(685)"><use xlink:href="#STIXWEBMAIN-31" id="use171721"/><use xlink:href="#STIXWEBMAIN-32" id="use171723" x="500" y="0"/></g></g><g id="g171733" transform="matrix(.01657 0 0 -.01657 167.215 158.817)"><use xlink:href="#STIXWEBMAIN-2212" id="use171729" x="0" y="0"/><use xlink:href="#STIXWEBMAIN-39" id="use171731" x="685" y="0"/></g><g id="g171739" transform="matrix(.01657 0 0 -.01657 305.215 159.686)"><use xlink:href="#STIXWEBMAIN-2212" id="use171735" x="0" y="0"/><use xlink:href="#STIXWEBMAIN-36" id="use171737" x="685" y="0"/></g><g id="g171745" transform="matrix(.01657 0 0 -.01657 443.215 158.817)"><use xlink:href="#STIXWEBMAIN-2212" id="use171741" x="0" y="0"/><use xlink:href="#STIXWEBMAIN-33" id="use171743" x="685" y="0"/></g><g id="g171749" transform="matrix(.01656 0 0 -.01656 724.896 158.81)"><use xlink:href="#STIXWEBMAIN-33" id="use171747" x="0" y="0"/></g><g id="g171753" transform="matrix(.01656 0 0 -.01656 862.896 159.68)"><use xlink:href="#STIXWEBMAIN-36" id="use171751" x="0" y="0"/></g><g id="g171757" transform="matrix(.01656 0 0 -.01656 1000.896 158.81)"><use xlink:href="#STIXWEBMAIN-39" id="use171755" x="0" y="0"/></g><g id="g171763" transform="matrix(.01657 0 0 -.01657 1134.748 158.816)"><use xlink:href="#STIXWEBMAIN-31" id="use171759"/><use xlink:href="#STIXWEBMAIN-32" id="use171761" x="500" y="0"/></g><g id="g171767" transform="matrix(.01656 0 0 -.01656 576.3 158.81)"><use xlink:href="#STIXWEBMAIN-30" id="use171765" x="0" y="0"/></g><g id="g171773" transform="matrix(.01657 0 0 -.01657 565.759 192.466)"><use xlink:href="#STIXWEBMAIN-2212" id="use171769" x="0" y="0"/><use xlink:href="#STIXWEBMAIN-31" id="use171771" x="685" y="0"/></g><g id="g171777" transform="matrix(.01656 0 0 -.01656 577.12 100.463)"><use xlink:href="#STIXWEBMAIN-31" id="use171775" x="0" y="0"/></g></g><g id="graphs" style="display:inline"><path id="path47" d="M13.74 94.877c23.766.462 47.533 22.023 71.3 45.79 24.226 24.226 48.453 46.318 72.68 46.202 24.073-.115 48.146-22.11 72.22-46.182 24.073-24.073 48.146-45.894 72.22-45.817 24.073.077 48.146 22.037 72.22 46.11 24.073 24.073 48.146 45.928 72.22 45.89 24.073-.039 48.146-21.964 72.22-46.037 24.073-24.073 48.146-45.963 72.22-45.963 24.073 0 48.146 21.89 72.22 45.963 24.073 24.073 48.146 45.998 72.22 46.037 24.073.038 48.146-21.817 72.22-45.89 24.073-24.073 48.146-46.033 72.22-46.11 24.073-.077 48.146 21.744 72.22 45.817 24.073 24.073 48.147 46.067 72.22 46.182 24.226.116 48.453-21.976 72.68-46.203 23.766-23.766 47.533-45.327 71.3-45.789" style="fill:none;stroke:red;stroke-width:1.7"/><path id="path56" d="M351.544-348.778v-4.756" style="fill:#3384ff;fill-opacity:.5;stroke:#000;stroke-width:1;stroke-dasharray:none;stroke-dashoffset:1.02"/><path id="path21" d="M351.517-356.124v-2.47c-.015-.894.028-1.79-.022-2.682" style="fill:#3384ff;fill-opacity:.5;stroke:#000;stroke-width:1;stroke-dasharray:none;stroke-dashoffset:1.02"/><path id="path25" d="M351.547-364.405a13113.136 13113.136 0 0 1 0-4.85l-.101-.002a10440.847 10440.847 0 0 1 0 4.85z" style="display:inline;fill:#000;fill-opacity:.998808;stroke:#000;stroke-width:1;stroke-dasharray:none;stroke-dashoffset:1.02;stroke-opacity:1"/></g><g id="layer13"><g id="g2" style="display:inline"><path id="path48" d="M880.264 210.672c-.027-1.145.044-2.29.089-3.434-.035-.682.088-1.529-.013-2.29" style="display:inline;fill:#3384ff;fill-opacity:.5;stroke:#000;stroke-width:1;stroke-dasharray:none;stroke-dashoffset:1.02"/><path id="path49" d="M880.2 202.49c.097-.928.138-2.08.18-3.013.012-.619.054-1.237.094-1.854" style="display:inline;fill:#3384ff;fill-opacity:.5;stroke:#000;stroke-width:1;stroke-dasharray:none;stroke-dashoffset:1.02"/><path id="path50" d="M880.237 194.9c.17-.82.194-1.66.222-2.493.014-.539.008-.284.017-.765" style="display:inline;fill:#3384ff;fill-opacity:.5;stroke:#000;stroke-width:1;stroke-dasharray:none;stroke-dashoffset:1.02"/><path id="path52" d="M880.49 184.537a31.98 31.98 0 0 0-.1 2.09c-.018.784-.033 1.573-.135 2.351" style="display:inline;fill:#3384ff;fill-opacity:.5;stroke:#000;stroke-width:1;stroke-dasharray:none;stroke-dashoffset:1.02"/><path id="path53" d="M880.49 181.85c-.091-.877-.114-1.762-.136-2.644-.01-.447-.015-.894-.02-1.34" style="display:inline;fill:#3384ff;fill-opacity:.5;stroke:#000;stroke-width:1;stroke-dasharray:none;stroke-dashoffset:1.02"/><path id="path54" d="M880.478 171.728c-.03.376-.068.753-.102 1.13-.081.802-.205 1.603-.209 2.41" style="display:inline;fill:#3384ff;fill-opacity:.5;stroke:#000;stroke-width:1;stroke-dasharray:none;stroke-dashoffset:1.02"/><path id="path55" d="M880.4 164.734a123.12 123.12 0 0 1-.032 1.902c-.024.803-.052 1.606-.145 2.404" style="display:inline;fill:#3384ff;fill-opacity:.5;stroke:#000;stroke-width:1;stroke-dasharray:none;stroke-dashoffset:1.02"/><path id="path10" d="M880.36 161.631v-3.782l-.101-.002v3.782z" style="display:inline;fill:#3384ff;fill-opacity:.5;stroke:#000;stroke-width:1;stroke-dasharray:none;stroke-dashoffset:1.02"/><path id="path11" d="M880.36 154.747v-4.02" style="display:inline;fill:#3384ff;fill-opacity:.5;stroke:#000;stroke-width:1;stroke-dasharray:none;stroke-dashoffset:1.02"/><path id="path12" d="M880.459 148.07c.09-.652.116-1.312.136-1.969.019-.965.003-1.929.071-2.892l.03-.306" style="display:inline;fill:#3384ff;fill-opacity:.5;stroke:#000;stroke-width:1;stroke-dasharray:none;stroke-dashoffset:1.02"/><path id="path13" d="M880.414 140.198c-.119-.88-.051-1.776-.03-2.662.02-.785.036-1.57.048-2.356" style="display:inline;fill:#3384ff;fill-opacity:.5;stroke:#000;stroke-width:1;stroke-dasharray:none;stroke-dashoffset:1.02"/><path id="path14" d="M880.41 132.52c.114-.907.117-1.825.135-2.739.038-.666.016-.35.065-.949" style="display:inline;fill:#3384ff;fill-opacity:.5;stroke:#000;stroke-width:1;stroke-dasharray:none;stroke-dashoffset:1.02"/><path id="path15" d="M880.461 126.2c.003-1.143-.013-2.287.021-3.43.026-.643.062-1.286.107-1.928" style="display:inline;fill:#3384ff;fill-opacity:.5;stroke:#000;stroke-width:1;stroke-dasharray:none;stroke-dashoffset:1.02"/><path id="path16" d="M880.36 118.217v-3.911" style="display:inline;fill:#3384ff;fill-opacity:.5;stroke:#000;stroke-width:1;stroke-dasharray:none;stroke-dashoffset:1.02"/><path id="path17" d="M880.329 111.66c.107-.974.125-1.956.187-2.935.038-.604.07-1.208.114-1.812" style="display:inline;fill:#3384ff;fill-opacity:.5;stroke:#000;stroke-width:1;stroke-dasharray:none;stroke-dashoffset:1.02"/><path id="path18" d="m880.36 104.287-.001-3.459a28.25 28.25 0 0 1 .106-1.863" style="display:inline;fill:#3384ff;fill-opacity:.5;stroke:#000;stroke-width:1;stroke-dasharray:none;stroke-dashoffset:1.02"/><path id="path19" d="M880.36 96.234c.163-.807.292-1.62.386-2.437.057-.515.089-1.033.118-1.55" style="display:inline;fill:#3384ff;fill-opacity:.5;stroke:#000;stroke-width:1;stroke-dasharray:none;stroke-dashoffset:1.02"/><path id="path56-9" d="M880.515 89.908v-4.756" style="display:inline;fill:#3384ff;fill-opacity:.5;stroke:#000;stroke-width:1;stroke-dasharray:none;stroke-dashoffset:1.02"/><path id="path21-5" d="M880.487 82.562v-2.47c-.015-.894.029-1.79-.021-2.682" style="display:inline;fill:#3384ff;fill-opacity:.5;stroke:#000;stroke-width:1;stroke-dasharray:none;stroke-dashoffset:1.02"/><path id="path25-3" d="M880.517 74.28a13113.058 13113.058 0 0 1 0-4.85l-.1-.002a10440.84 10440.84 0 0 1 0 4.85z" style="display:inline;fill:#000;fill-opacity:.998808;stroke:#000;stroke-width:1;stroke-dasharray:none;stroke-dashoffset:1.02;stroke-opacity:1"/></g></g><g id="layer18"><path id="path345" d="M409.486 56.106c-.845-1.263-1.46-2.606-1.611-4.143-.034-1.248-.15-1.763.235-2.986.674-2.147 2.37-3.571 4.302-4.57.607-.262 1.204-.551 1.821-.788 3.753-1.442 7.754-2.169 11.76-2.351 1.772-.003 2.58-.043 4.33.106 2.753.235 5.448.908 8.086 1.706 2.55.9 5.577 1.926 7.46 3.984.27.294.475.641.711.962.144.323.324.632.43.97.437 1.387.108 2.805-.932 3.81-.16.108-.304.24-.477.324-.719.35-1.206-.268-1.446-.87-.036-.176-.093-.349-.107-.528-.126-1.608 1.014-3.013 2.036-4.106.386-.35.754-.72 1.157-1.048 2.78-2.263 6.125-3.7 9.558-4.64.796-.161 1.586-.358 2.388-.484 4.106-.646 8.274-.375 12.316.548.809.205 1.623.387 2.426.615 3.715 1.054 7.313 2.538 10.757 4.275.525.315 1.068.601 1.575.944 1.105.745 2.755 2.073 3.028 3.495.034.18-.016.366-.024.549-.084.127-.138.28-.253.38-.634.555-1.742.297-2.345-.151-.209-.155-.365-.37-.547-.554-.114-.264-.28-.51-.342-.79-.17-.77-.027-1.48.276-2.2.754-1.79 2.208-3.048 3.718-4.196.693-.427 1.36-.896 2.078-1.28 3.885-2.077 8.206-3.03 12.596-3 .838.026 1.677.02 2.513.078 3.398.236 6.794.93 9.9 2.35 1.155.55 2.015.921 3.107 1.598a15.522 15.522 0 0 1 4.544 4.32c.23.404.49.793.688 1.213.691 1.464.92 3.15.36 4.688-.098.202-.23.51-.377.7-.188.241-.176-.04-.096-.163.055-.085.13-.156.195-.235 1.768-1.275 4.14-1.083 6.196-.91.643.111 1.292.196 1.93.333 3.513.755 6.866 2.177 9.656 4.467 1.25 1.268 1.614 1.471 2.503 3.012 1.293 2.24 1.67 4.769 1.552 7.32-.057.637-.085 1.278-.172 1.912-.463 3.39-1.71 6.612-3.006 9.754-.743 1.562-1.102 2.407-1.976 3.895-1.323 2.254-2.945 4.315-4.958 5.995-2.935 2.361-5.873 4.321-9.656 5-.595.067-1.187.165-1.785.201-2.94.179-5.886-.376-8.614-1.46-.464-.232-.945-.435-1.394-.696a9.073 9.073 0 0 1-3.502-3.726c-.104-.28-.667-1.672-.078-1.791.509.496.57 1.523.607 2.177-.043.23-.058.468-.13.691-.704 2.191-3.051 3.331-4.922 4.319-1.846.741-2.438 1.047-4.414 1.546-3.489.881-7.112 1.02-10.68.653-.894-.141-1.795-.24-2.681-.422-3.775-.776-7.381-2.295-10.47-4.606-.451-.377-.92-.735-1.354-1.132-1.34-1.23-2.492-2.691-3.335-4.303-.19-.445-.402-1.044.12-.312.709 1.147.942 2.452.752 3.79-.085.365-.138.74-.257 1.095-.767 2.288-2.5 3.987-4.61 5.072-.461.184-.911.4-1.384.554-2.741.896-5.719.73-8.532.361-.644-.133-1.295-.238-1.933-.4-2.924-.738-5.713-2.041-8.124-3.85-1.596-1.438-3.044-2.845-3.328-5.08.023-.262.1-1.33.47-.518.334 1.259-.202 2.554-.771 3.657-.638.941-.789 1.249-1.623 2.093-1.761 1.784-3.967 3.056-6.254 4.036-.652.226-1.293.486-1.956.678-3.124.903-6.375.908-9.567.405-.65-.125-1.305-.226-1.949-.376-2.679-.626-5.216-1.761-7.295-3.584-2.111-1.897-4.1-3.926-5.046-6.667-.207-.747-.699-2.347.04-2.995.067-.059.162-.076.242-.115.485.02 1.139.322.999.935-.037.16-.134.3-.201.45-.152.179-.286.374-.455.536-1.89 1.807-4.766 2.774-7.216 3.463-.763.15-1.52.341-2.29.45-4.232.603-8.537.068-12.664-.927-.803-.247-1.618-.459-2.41-.741a27.325 27.325 0 0 1-9.934-6.209c-.492-.54-1.005-1.059-1.474-1.618-2.18-2.599-3.916-5.58-4.958-8.812-.15-.6-.334-1.193-.447-1.8-.55-2.934-.142-5.863 1.16-8.545.282-.507.539-1.03.847-1.522 1.583-2.528 3.852-4.58 6.248-6.314.493-.31.984-.625 1.48-.932 7.537-4.67 18.862-3.925 27.052.454" style="fill:#ffd5d5;stroke:#000;stroke-linecap:round"/><path id="path344" d="M956.628 54.458c-4.48-2.165-12.59-3.682-19.843-1.229a18.091 18.091 0 0 0-7.021 4.39c-.49.493-.933 1.029-1.4 1.543-2.342 2.947-4.149 6.383-4.653 10.139-.1.748-.09 1.508-.134 2.262.157 3.2 1.306 6.137 3.299 8.663 1.41 1.788 2.045 2.19 3.778 3.686.766.514 1.504 1.07 2.297 1.543 2.87 1.71 6.082 3.036 9.37 3.704.733.149 1.478.231 2.217.347 3.257.31 6.233-.212 8.828-2.27.33-.262.615-.573.922-.859.43-.476 1.69-1.938 1.264-2.684-.604.016-.305 1.578-.233 1.84.086.313.22.612.33.919 1.139 2.613 3.32 4.155 5.6 5.743 2.578 1.646 5.346 3.108 8.332 3.887.592.155 1.196.259 1.794.388 2.567.443 5.22.591 7.78.008 1.683-.383 1.973-.615 3.509-1.33 2.328-1.38 4.187-3.347 5.293-5.807.17-.38.295-.779.442-1.168.437-1.524.669-3.118.09-4.628-.702-1.026-.678.366-.663.801.447 2.081 1.778 3.826 3.078 5.47 1.51 1.82 3.438 3.255 5.682 4.079.468.172.955.292 1.432.439 2.06.43 4.2.407 6.245-.106 1.267-.318 1.785-.593 2.979-1.1 2.098-1.03 3.899-2.522 5.066-4.546.18-.315.323-.65.484-.973.507-1.302.772-2.7.317-4.047-.32-.706-.577-.015-.61.373-.014.19 0 .38 0 .57.278 2.66 1.97 4.423 3.81 6.224 1.918 1.56 4.017 2.994 6.345 3.9 1.624.63 2.324.71 4.05 1.087 4.157.665 8.468.446 12.501-.796.764-.235 1.499-.552 2.248-.828 2.16-.96 4.26-2.135 5.612-4.117.645-.945.677-1.229 1.05-2.264.349-1.535.401-3.218-.57-4.559-.139-.191-.322-.348-.483-.522-.167-.1-.317-.235-.5-.3-.82-.296-1.46.577-1.667 1.238-.087.277-.105.57-.157.856.015.342-.016.69.045 1.027.343 1.878 1.767 3.384 3.307 4.428.517.351 1.08.63 1.621.945 2.919 1.48 6.062 2.393 9.358 2.429.752.008 1.503-.056 2.255-.084 2.415-.173 4.771-.713 7.082-1.403 1.059-.316 2.706-.86 3.742-1.332.493-.224.956-.507 1.434-.761 1.45-1.004 3.126-2.35 3.78-4.048.074-.196.107-.405.16-.607.11-.738.018-1.517-.407-2.146-.55-.269.19 1.324.207 1.356.787 1.382 1.732 2.672 2.76 3.888.71.816 1.521 1.578 2.484 2.102.565.307.89.38 1.508.582 2.065.552 4.19.717 6.32.747a21.3 21.3 0 0 0 5.31-.54c1.716-.407 3.395-.925 5.007-1.63 1.21-.705 2.53-1.254 3.678-2.056.453-.423.646-1.021.84-1.59.095-.297.172-.595.06-.894-.067-.162-.15-.227-.32-.257a.707.707 0 0 0-.172-.006c-.012-.1.012-.177-.092-.237-.119-.035-.182-.105-.156.056.259.442.704.549 1.18.633 1.892.227 3.633-.797 5.2-1.708 1.653-1.032 3.003-2.377 3.613-4.246.118-.363.189-.74.283-1.111.479-3-.089-6.02-.772-8.943-.806-3.197-2.112-6.301-4.034-9.01-.406-.572-.87-1.102-1.305-1.653-1.473-1.77-3.197-3.282-5.35-4.187-1.42-.596-1.843-.606-3.363-.922-3.164-.45-6.193-.016-9.2.961.226-.109-2.035.79-1.54.833.56-.333.015-1.11-.199-1.47a13.471 13.471 0 0 0-3.66-3.562c-.426-.278-.875-.516-1.312-.774-3.781-2.027-7.765-2.621-11.98-3.072-4.138-.28-8.358.024-12.34 1.23-.664.2-1.305.466-1.957.7-1.814.793-3.567 1.789-4.818 3.345-.453.564-.532.796-.839 1.409-.27.69-.51 1.495.037 2.1.341.32.438-.203.38-.463-.03-.138-.088-.268-.133-.403a9.832 9.832 0 0 0-3.004-3.495c-.373-.269-.777-.493-1.166-.74-3.147-1.668-6.678-2.247-10.19-2.589-2.323-.172-4.68-.204-6.978.232-1.52.288-2.003.506-3.456.996-1.808.74-3.47 1.79-4.69 3.32-.507.634-.618.918-.98 1.605-.28.73-.48 1.52-.338 2.302.01.014.021.057.027.041.07-.165-.753-1.342-.843-1.476-1.327-1.85-3.118-3.307-4.955-4.639-2.81-2.073-6.082-3.252-9.412-4.226-2.824-.73-5.788-1.045-8.682-.519-.57.104-1.124.276-1.686.415-1.968.686-4.218 1.735-5.01 3.815-.104.274-.13.57-.196.856-.029 1.16.353 2.283 1.4 2.89.832.22.545-.864.357-1.262-.116-.246-.276-.47-.414-.705-1.847-2.394-4.621-3.8-7.307-5.085-3.24-1.482-6.675-2.381-10.18-2.987a21.449 21.449 0 0 0-8.844.601c-.633.18-1.247.421-1.87.632-2.976 1.26-5.782 3.073-7.543 5.825-.285.445-.495.93-.742 1.396-.429 1.2-.592 2.394-.03 3.584.143.3.37.553.556.83" style="fill:#ffd5d5;stroke:#000;stroke-width:1;stroke-linecap:butt"/><path id="path288-2" d="M592.048-104.21c3.24-.562 6.711-.037 9.581 1.575 2.718 1.526 4.863 4.561 4.608 7.777-.136 1.724-1.059 3.364-2.344 4.49-2.672 2.34-6.513 2.731-9.904 2.21-3.269-.504-6.476-1.983-8.785-4.4-1.867-1.952-3.153-4.735-2.554-7.472.548-2.509 2.971-4.063 5.333-4.618 1.17-.275 2.375-.39 3.575-.362" style="display:inline;fill:#ffd5d5;stroke:#000;stroke-width:1;stroke-dasharray:none"/><path id="path289-0" d="M562.258 65.628c2.284.384 4.393 2.181 5.01 4.41.468 1.552.33 3.354-.518 4.781-1.636 2.413-6.456 3.265-9.962 2.663-4.652-.952-4.916-4.885-2.253-7.925 1.578-1.692 3.519-2.822 5.865-3.207" style="display:inline;fill:#ffd5d5;stroke:#000;stroke-width:1;stroke-dasharray:none"/><path id="path290-4" d="M579.577 75.24c2.345 2.431 1.74 4.45.492 5.027-1.01.466-2.984.286-4.35-.238-3.412-1.31-3.376-3.667-2.44-4.83 1.365-1.764 3.736-2.39 5.45-2.388" style="display:inline;fill:#ffd5d5;stroke:#000;stroke-width:.999999;stroke-dasharray:none"/><path id="path291-8" d="M586.77 83.667c.379.25.726.544 1.005.905.378.49.601 1.078.797 1.657.257.76.22 1.69-.353 2.307-.716.77-1.84 1.045-2.858.949-1.303-.123-2.63-.889-3.124-2.145a2.686 2.686 0 0 1 .458-2.69c.704-.82 1.714-1.304 2.734-1.593" style="display:inline;fill:#ffd5d5;stroke:#000;stroke-width:1;stroke-dasharray:none"/><path id="path184-7-2" d="M1017.712-70.909c3.832 1.017 8.176 3.185 9.644 6.195 1.042 2.137 1.222 5.655-.75 7.979-3.259 3.842-8.988 4.917-14.052 3.563-4.07-1.088-7.801-3.853-8.969-7.7-.865-2.85-.36-6.066 1.547-8.491 3.324-4.228 9.009-4.917 11.827-4.322" style="display:inline;fill:#ffd5d5;fill-opacity:1;stroke:#000;stroke-width:.9;stroke-dasharray:none"/><path id="path185-6-7" d="M916.746 68.314c1.047 1.095 1.842 2.873 1.086 5.673-1.153 4.275-6.812 7.16-11.754 4.304-3.585-2.073-3.76-6.754-1.106-9.873 2.589-3.043 7.913-3.072 10.431-1.801" style="display:inline;fill:#ffd5d5;stroke:#000;stroke-width:.999996;stroke-dasharray:none"/><path id="path186-9-8" d="M897.19 76.902c1.713 1.02 2.73 3.171 2.122 4.684-.8 1.992-4.718 2.213-6.926-.433-.93-1.115-1.063-2.607.042-3.671 1.295-1.248 3.528-1.817 4.585-1.879" style="display:inline;fill:#ffd5d5;fill-opacity:1;stroke:#000;stroke-width:.900003;stroke-dasharray:none"/><path id="path188-9-7" d="M887.104 85.162c2.582-.757 3.32.938 3.423 1.406.292 1.324-.185 3.185-2.071 3.782-2.322.734-4.405-.916-4.26-2.78.094-1.22 1.27-1.982 1.966-2.397" style="display:inline;fill:#ffd5d5;fill-opacity:1;stroke:#000;stroke-width:.900004;stroke-dasharray:none"/><path id="path187-5-9" d="M991.805-59.267c1.88.371 3.863.92 5.19 2.427 1.934 2.196 1.991 5.792.082 7.966-2.965 3.378-9.562 1.958-12.673-1.634-2.946-3.402-2.051-7.58.77-9.423 3.366-2.198 9.651-.994 10.76.334" style="display:inline;fill:#ffd5d5;fill-opacity:1;stroke:#000;stroke-width:.9;stroke-dasharray:none"/><path id="path346" d="M916.025 4.253c1.935.382 3.975.946 5.34 2.497 1.989 2.26 2.048 5.959.084 8.196-3.05 3.475-9.836 2.014-13.036-1.682-3.031-3.5-2.11-7.798.792-9.694 3.462-2.261 9.927-1.023 11.069.344" style="display:inline;fill:#ffd5d5;fill-opacity:1;stroke:#000;stroke-width:.9;stroke-dasharray:none"/></g><g id="layer19"><g id="g250" style="display:inline;stroke-width:.848393;stroke-dasharray:none" transform="matrix(1.09331 0 0 1.02931 -48.34 2.903)"><g id="g197" style="stroke-width:.988311;stroke-dasharray:none" transform="matrix(.85999 0 0 .85687 87.152 18.797)"><path id="path3" d="M365.192 54.894c-.954.892-.49 2.105-.39 2.26.412.642 1.036 1.247 2.014 1.476.952.222 1.586-.176 2.017-.718.874-1.097 1.037-2.305.604-3.808-.207-.718-.729-1.571-1.563-2.059-.922-.538-2.188-.28-3.103.105-1.117.47-1.885 1.243-2.164 2.118-.618 1.938-.148 3.943.397 5.87.451 1.593 1.049 3.37 1.372 4.976l.055.006c.122.001-.108-.895-.16-1.34-.392-3.443-.866-7.083-.898-10.533-.003-.376.017-.751.046-1.126" style="fill:none;stroke:#000;stroke-width:.988311;stroke-dasharray:none"/><path id="path189" d="M380.834 58.778a11.053 11.053 0 0 1-1.97-1.997c-.676-.908-1.403-2.224-1.608-3.415-.038-.218.012-.632.08-.664.04-.024.07-.004.09.02.143.245.07.52.037.78-.086.663-.34 1.501-.605 2.144-.409.99-.923 1.85-2.19 2.587-.382.223-1.028.4-1.483.16-.67-.352-.875-.912-.962-1.42-.188-1.11.193-2.504 1.117-3.605.473-.563 1.1-1.17 2.11-1.44.416-.11.997-.145 1.257.135.195.21.201.456.203.689" style="fill:none;stroke:#000;stroke-width:.988311;stroke-dasharray:none"/><path id="path190" d="M388.77 52.111c-.326-.13-.147-.065-.536-.185-1.346-.297-1.978-.066-2.948.722-.166.171-.35.332-.497.512-.881 1.07-1.302 2.36-1.48 3.61-.013.431 0 .853.038 1.28 0 .02.05.561.063.607.02.055.064.1.096.15-.294-.778-.287-1.641-.523-2.43-.294-1.44-.606-2.88-.568-4.341" style="fill:none;stroke:#000;stroke-width:.988311;stroke-dasharray:none"/><g id="g192" style="stroke-width:.878462;stroke-dasharray:none" transform="matrix(1.15692 0 0 1.09405 -92.191 2.134)"><path id="path191" d="M418.435 51.649c-.18-1.242-.152-2.806-.326-4.206a177.625 177.625 0 0 1-.547-6.675c-.078-1.23-.144-2.464-.12-3.703" style="fill:none;stroke:#000;stroke-width:.878462;stroke-dasharray:none"/><path id="path192" d="M420.908 40.277c-.814.04-1.622.19-2.434.25-1.431.152-2.88.222-4.304.427" style="fill:none;stroke:#000;stroke-width:.878462;stroke-dasharray:none"/></g><g id="g194" style="stroke-width:.880733;stroke-dasharray:none" transform="matrix(1.15692 0 0 1.08841 -91.867 2.727)"><path id="path193" d="M422.486 43.17c.048.25.042.115.018.404-.15.557-.535.874-1.286.744-.09-.043-.192-.067-.27-.12-.361-.26-.373-.72-.085-1.018.085-.091.201-.196.313-.258.58-.322.907-.231 1.255-.05" style="fill:none;stroke:#000;stroke-width:.880733;stroke-dasharray:none"/><path id="path194" d="M421.63 51.52c-.116-1.139-.115-2.196-.135-3.423-.012-.737.072-1.478-.045-2.212" style="fill:none;stroke:#000;stroke-width:.880733;stroke-dasharray:none"/></g><path id="path195" d="M403.234 57.85c-.222.39-.792.593-1.327.65-.423.047-1.083-.037-1.536-.265-.747-.375-1.345-1.203-1.512-1.948-.294-1.305.206-2.762 1.46-3.621.549-.376 1.33-.655 2.03-.552.067.01.404-.01.715.172" style="fill:none;stroke:#000;stroke-width:.988311;stroke-dasharray:none"/><path id="path196" d="M406.104 58.507c0-1.104-.021-2.212-.035-3.32a263.331 263.331 0 0 0-.292-7.583 99.06 99.06 0 0 1-.11-6.091" style="fill:none;stroke:#000;stroke-width:.988311;stroke-dasharray:none"/><path id="path197" d="M413.85 57.982c-.254.285-.786.498-1.367.563a3.91 3.91 0 0 1-.697.013c-1.786-.167-2.494-.969-2.905-1.625-.052-.195-.148-.387-.176-.584-.138-.987.49-2.01 1.598-2.925.212-.134.403-.27.636-.396.362-.199 1.452-.677 2.158-.632.1.007.173.043.254.062.065.045.148.085.183.132.322.479-.664 1.089-1.25 1.49-.982.553-2.127 1.075-3.653 1.371" style="fill:none;stroke:#000;stroke-width:.988311;stroke-dasharray:none"/></g><path id="path233" d="M469.657 69.76a5.78 5.78 0 0 1-.84-.533c-1.22-.998-1.94-2.077-1.935-3.393.022-.244.022-.489.066-.73.196-1.104.763-2.179 1.744-3.08.529-.447 1.052-.965 1.82-1.246" style="fill:none;stroke:#000;stroke-width:.848393;stroke-dasharray:none"/><g id="g240" style="stroke-width:.984781;stroke-dasharray:none" transform="matrix(.86998 0 0 .8531 49.538 24.738)"><path id="path234" d="M490.425 51.672c-1.065-1.201-2.073-2.434-3.212-3.578-.972-.976-1.982-1.926-2.916-2.933" style="fill:none;stroke:#000;stroke-width:.984781;stroke-dasharray:none"/><path id="path235" d="M484.312 51.529c.9-.985 1.79-1.984 2.679-2.982.981-1.12 1.932-2.267 2.962-3.353" style="fill:none;stroke:#000;stroke-width:.984781;stroke-dasharray:none"/></g><path id="path240" d="M478.23 69.293c-.501.532-1.029 1.056-1.487 1.613l.043.02c.463-.557.99-1.08 1.492-1.612z" style="fill:#1a1a1a;stroke:#1a1a1a;stroke-width:.848393;stroke-dasharray:none"/><path id="path241" d="M480.624 72.69c.849.316 2.928 1.155 3.853.929.428-.093.755-.406.85-.785.22-.79.018-1.605.05-2.406-.046-1.989-.086-3.985.124-5.97.01-.044.048-.388-.038-.408-.094.413-.54 1.867-1.182 2.789-.495.711-.925 1.584-1.835 1.904-.247.087-.691.003-.901-.17-.438-.343-.584-.877-.708-1.365-.147-.561-.106-1.143-.087-1.715.033-.571.174-1.35.348-1.903" style="fill:none;stroke:#000;stroke-width:.848393;stroke-dasharray:none"/><path id="path242" d="M486.937 69.85c1.048-.559 2.057-1.163 2.65-2.154.68-1.14.513-2.55.052-3.636-.427-1.006-1.284-1.817-2.103-2.585-.299-.28-1.008-.702-1.328-.961" style="fill:none;stroke:#000;stroke-width:.848393;stroke-dasharray:none"/><g id="g244" style="stroke-width:.93101;stroke-dasharray:none" transform="matrix(.91212 0 0 .9104 35.956 15.304)"><path id="path243" d="M510.044 53.493c-.754.004-1.532.001-2.289.003-1.7.001-3.4.003-5.103 0" style="fill:none;stroke:#000;stroke-width:.93101;stroke-dasharray:none"/><path id="path244" d="M510.105 56.34c-.969.015-1.934-.007-2.9-.022-1.65-.009-3.303.01-4.925.146" style="fill:none;stroke:#000;stroke-width:.93101;stroke-dasharray:none"/></g><path id="path245" d="M510.845 70.373c-.4-.121-.19-.05-.62-.218-1.445-.712-2.134-1.482-2.545-2.562-.062-.247-.148-.494-.185-.741-.19-1.285.222-2.559 1.082-3.743.184-.215.35-.437.56-.648a7.366 7.366 0 0 1 2.605-1.679" style="fill:none;stroke:#000;stroke-width:.848393;stroke-dasharray:none"/><path id="path246" d="M513.965 69.216a64.072 64.072 0 0 0-.256-2.607c-.162-1.332-.333-2.66-.508-3.991" style="fill:none;stroke:#000;stroke-width:.848393;stroke-dasharray:none"/><path id="path247" d="M513.854 72.34c.196-.347.45-.66.727-.97.693-.772 1.42-1.53 2.229-2.229" style="fill:none;stroke:#000;stroke-width:.848393;stroke-dasharray:none"/><path id="path248" d="M521.754 63.113c.499-.182 1.082-.064 1.54.142.712.362 1.037 1.027 1.284 1.647.299.783.327 1.681-.033 2.48-.29.645-1.004 1.16-1.875 1.423-.433.131-1.217.126-1.545-.186-.663-.557-.806-1.378-.747-2.12a5.656 5.656 0 0 1 .753-2.414c.21-.345.495-.667.878-.9" style="fill:none;stroke:#000;stroke-width:.848393;stroke-dasharray:none"/><path id="path249" d="M525.625 70.45c1.088-.462 2.032-.986 2.66-1.603.485-.554.679-.744.942-1.354.442-1.023-.034-2.853-.903-4.009-.9-1.198-2.17-2.132-3.57-3.055" style="fill:none;stroke:#000;stroke-width:.848393;stroke-dasharray:none"/><path id="path250" d="M460.015 69.266c-.792.142-1.577.007-2.339-.246-.494-.195-.742-.256-1.183-.567-.796-.567-1.232-1.426-1.474-2.353-.042-.246-.099-.487-.13-.733-.134-1.15.05-2.319.632-3.327.356-.46.413-.605.903-.95.778-.54 1.716-.763 2.646-.752.218.027.432.042.647.085 1.125.222 2.14.816 2.948 1.617.138.169.29.326.413.502.437.637.69 1.422.525 2.193-.039.172-.111.333-.169.502-.084.153-.16.31-.256.452-.353.518-.87 1-1.513 1.078-.06-.016-.126-.023-.183-.05-.372-.192-.563-.916-.728-1.258-.314-.831-.59-1.686-1.06-2.445-.364-.51-.52-.606-1.076-.25-.628.48-1.16 1.059-1.275 1.875-.008.134-.03.268-.019.403.05.785.59 1.291 1.321 1.502.145.027.295.065.444.085.49.06.995.026 1.482-.043" style="fill:none;stroke:#000;stroke-width:.848393;stroke-dasharray:none"/></g><g id="g342" style="display:inline" transform="translate(-41.362 -24.632)"><g id="g312" transform="translate(10.901)"><path id="path296" d="M983.834 97.429c-.626-.101-1.456-.772-1.82-1.16-.773-.825-1.342-2.031-1.498-3.033-.007-.05-.033-.3-.119-.292 0-.018-.038-.019-.062.003a5.415 5.415 0 0 1-.285 2.18c-.268.79-.743 1.619-1.688 2.12-1.085.575-2.292.229-2.624-.551-.375-.878-.12-1.796.427-2.591.612-.89 2.15-1.926 3.897-1.288" style="fill:none;stroke:#000;stroke-width:.9;stroke-dasharray:none"/><path id="path297" d="M990.11 92.096a4.086 4.086 0 0 0-1.113.16c-1.437.45-2.388 1.097-3.187 2.255-.15.217-.262.448-.353.683-.31.773-.193 1.733-.042 2.525.021.018.034.068.062.055.011-.003-.026-.186-.05-.315-.105-.508-.279-1.165-.366-1.677-.192-1.186-.406-2.378-.418-3.58" style="fill:none;stroke:#000;stroke-width:.9;stroke-dasharray:none"/><path id="path298" d="M991.872 98.11c0-.867-.007-1.734-.015-2.602a454.813 454.813 0 0 0-.12-7.565c-.03-1.127-.01-2.258-.122-3.381" style="fill:none;stroke:#000;stroke-width:.9;stroke-dasharray:none"/><path id="path300" d="M995.954 87.435c-.956.156-1.897.255-2.864.368-1.71.2-3.425.393-5.14.543" style="fill:none;stroke:#000;stroke-width:.9;stroke-dasharray:none"/><g id="g305" style="stroke-width:1.00025;stroke-dasharray:none" transform="matrix(.92905 0 0 .87143 356.924 46.5)"><path id="path301" d="M687.35 50.116c.251-.16.786.03.873.206.282.57.29 1.056-.339 1.22-.089 0-.182.01-.271-.006-.517-.095-.709-.528-.57-1.098.271-.57.547-.808 1.095-.893" style="fill:none;stroke:#000;stroke-width:1.00025;stroke-dasharray:none"/><path id="path303" d="M687.656 59.103c.023-.187.023-.378.036-.57.045-1.076.035-2.156.022-3.237-.009-.766.025-1.445.062-2.314" style="fill:none;stroke:#000;stroke-width:1.00025;stroke-dasharray:none"/></g><path id="path307" d="M1003.1 97.104c-.286.198-.788.455-1.147.532-.57.122-1.35.227-2.188-.225a2.099 2.099 0 0 1-.58-.51c-.447-.63-.42-1.37-.208-2.056.15-.487.384-.94.636-1.248.375-.458.938-.958 1.596-1.199.297-.109.845-.241 1.323-.097" style="fill:none;stroke:#000;stroke-width:.9;stroke-dasharray:none"/><path id="path308" d="M1005.457 98a8.292 8.292 0 0 1-.08-1.248c.066-2.342.035-4.852.012-6.768-.022-1.822-.122-3.639-.136-5.46" style="fill:none;stroke:#000;stroke-width:.9;stroke-dasharray:none"/><path id="path311" d="M1012.847 96.707c-.257.467-.838.67-1.342.803-.539.143-1.338.16-1.982.013-.646-.148-1.315-.566-1.5-1.204-.152-.529-.09-1.096.108-1.606.373-.963 1.138-1.814 2.132-2.24.504-.216 1.113-.28 1.635-.026.248.121.51.411.245.635-.326.276-.746.426-1.147.574-.917.34-1.92.41-2.9.407" style="fill:none;stroke:#000;stroke-width:.9;stroke-dasharray:none"/><path id="path312" d="M968.267 92.528c.092 1.573.076 3.145.055 4.717-.028 1.615-.127 3.755-.194 5.369-.03.237-.057.527-.113.657-.004.008-.02-.011-.024-.02-.314-.967-.355-2.492-.337-3.479.028-1.552.312-3.11.981-4.579a4.096 4.096 0 0 1 2.116-2.084c.612-.27 1.535-.317 2.186.18.688.526.949 1.291 1.025 2.018.106 1-.169 1.687-.807 2.267-.464.423-1.093.816-1.886.744-.822-.074-1.394-.615-1.707-1.12-.046-.074-.062-.155-.094-.232" style="fill:none;stroke:#1a1a1a;stroke-width:.9;stroke-dasharray:none"/></g><g id="g327" transform="translate(1.756)"><path id="path313" d="M1032.7 96.73c.351.398.839.756 1.451.792a2.696 2.696 0 0 0 1.543-.396 3.61 3.61 0 0 0 1.358-1.464c.517-1.054.423-2.276-.437-3.192-.542-.577-1.564-.765-2.335-.42-.88.395-1.405 1.003-1.74 1.767-.366.832-.518 1.717-.583 2.598-.014.192-.095.391-.059.583.015.052.054.077.087.065.062-.168.045-.348.045-.524 0-.532 0-1.064-.01-1.596-.012-1.94-.03-3.468-.074-5.408-.033-1.557-.078-2.279-.066-3.835" style="fill:none;stroke:#000;stroke-width:.9;stroke-dasharray:none"/><path id="path321" d="M1049.814 97.123c-.285.189-.99.372-1.832.357-.617-.012-1.263-.155-1.687-.453-.778-.544-1.044-1.309-.973-2.032.071-.71.419-1.429 1.127-1.99.461-.366 1.33-.685 1.928-.727.443-.031.875.018 1.253.152" style="fill:none;stroke:#000;stroke-width:.9;stroke-dasharray:none"/><path id="path324" d="M1051.486 97.89c.05-.633.075-1.266.112-1.9.102-2.335.097-4.667.11-7.004-.027-1.66-.064-3.325-.146-4.984" style="fill:none;stroke:#000;stroke-width:.9;stroke-dasharray:none"/><path id="path326" d="M1042.36 92.51c-.763-.136-1.561.17-2.066.54-.85.62-1.387 1.37-1.652 2.197-.163.507-.263 1.144-.044 1.589.156.317.404.629.926.768.322.085.782.057 1.11-.033 1.113-.308 1.64-1.152 1.887-1.925.185-.578.23-1.176.174-1.765-.018-.187-.025-.326-.08-.51-.042-.022-.065-.04-.117.006-.086.152.171.75.203.882.275 1.134.858 2.016 1.563 2.756.19.199.375.402.685.519" style="fill:none;stroke:#000;stroke-width:.9;stroke-dasharray:none"/><path id="path327" d="M1057.049 90.884c-.898.597-2.572 2.034-3.373 2.728-.412.37-.824.74-1.211 1.138-.06.09-.043.046.048.129a54.733 54.733 0 0 0 2.114 1.863c.462.379.928.756 1.41 1.116.033.027.07.052.105.076" style="fill:none;stroke:#1a1a1a;stroke-width:.9;stroke-dasharray:none"/></g><g id="g341"><g id="g333" transform="translate(-6.161)"><path id="path328" d="M1087.077 99.476c-1.606-.56-2.958-1.627-3.447-2.939-.72-1.936.045-4.095 1.734-5.62.838-.756 1.859-1.443 3.117-1.739" style="fill:none;stroke:#000;stroke-width:.9;stroke-dasharray:none"/><g id="g330" style="stroke-width:1.11866;stroke-dasharray:none" transform="matrix(.90058 0 0 .71874 369.044 55.184)"><path id="path329" d="M802.88 59.14a54.026 54.026 0 0 1-1.986-2.645c-.984-1.442-1.956-2.902-2.651-4.506" style="fill:none;stroke:#000;stroke-width:1.11866;stroke-dasharray:none"/><path id="path330" d="M798.307 58.875c.684-1.136 1.285-2.322 2.025-3.426.746-1.161 1.46-2.384 2.47-3.345" style="fill:none;stroke:#000;stroke-width:1.11866;stroke-dasharray:none"/></g><path id="path331" d="M1095.01 97.549c-.39.859-1.1 1.56-1.718 2.29h.011c.611-.73 1.322-1.431 1.712-2.29z" style="fill:#1a1a1a;stroke:#1a1a1a;stroke-width:.9;stroke-dasharray:none"/><path id="path332" d="M1097.815 102.878c.11.12.201.26.33.367.89.725 2.17 1.053 3.395 1.17.689-.035 1.042.019 1.634-.271.92-.454.78-1.377.7-2.102-.255-1.763-.682-3.507-1.03-5.256-.158-1.125-.286-2.246-.219-3.376 0-.02.097-.52.073-.52-.011 0-.11.573-.134.674a9.236 9.236 0 0 1-.354 1.193c-.56 1.276-1.582 2.702-2.848 2.758-.999.045-1.46-.604-1.382-1.946a8.266 8.266 0 0 1 .871-3.242" style="fill:none;stroke:#000;stroke-width:.9;stroke-dasharray:none"/><path id="path333" d="M1105.013 99.045c.806-.314 1.647-.93 2.159-1.675.517-.753.835-1.637.825-2.498-.01-.857-.38-2.322-.952-3.068-.871-1.136-1.865-1.939-3.084-2.643" style="fill:none;stroke:#000;stroke-width:.9;stroke-dasharray:none"/></g><g id="g335" transform="translate(-6.161)"><path id="path334" d="M1123.137 93.582c-.812.047-1.635.048-2.45.04a152.04 152.04 0 0 0-6.068-.02" style="fill:none;stroke:#000;stroke-width:.9;stroke-dasharray:none"/><path id="path335" d="M1122.674 95.993c-.798 0-1.597.005-2.396.015-2.042.026-4.076.05-6.11.142" style="fill:none;stroke:#000;stroke-width:.9;stroke-dasharray:none"/></g><g id="g340" style="stroke-width:1.07024" transform="matrix(.93553 0 0 .9332 66.615 6.603)"><path id="path336" d="M1133.082 99.503c-1.264-.254-2.334-.73-3.157-1.513-1.016-.967-1.173-2.248-.969-3.433.367-2.126 1.99-3.892 4.445-5.329" style="fill:none;stroke:#000;stroke-width:.963218;stroke-dasharray:none"/><path id="path337" d="M1135.26 97.802c-.043-.15-.048-.307-.074-.457-.152-1.056-.31-2.112-.386-3.172-.071-.857-.13-1.715-.114-2.573" style="fill:none;stroke:#000;stroke-width:.963218;stroke-dasharray:none"/><path id="path338" d="m1136.404 100.112.672-.594c.625-.627 1.26-1.294 1.5-2.142" style="fill:none;stroke:#000;stroke-width:.963218;stroke-dasharray:none"/><path id="path339" d="M1143.092 91.764c.468.08.906.277 1.302.511 1.128.666 1.75 2 1.437 3.2-.258.992-1.185 1.818-2.282 2.03-.553.105-1.187-.023-1.548-.443-.492-.573-.483-1.358-.339-2.04.186-.879.552-1.713.94-2.53.112-.233.238-.46.372-.684" style="fill:none;stroke:#000;stroke-width:.963218;stroke-dasharray:none"/><path id="path340" d="M1147.717 99.27c.67-.388 1.388-.811 1.845-1.273 1.465-1.48 1.746-3.116.957-5.057-.549-1.349-2.171-2.945-3.941-3.832" style="fill:none;stroke:#000;stroke-width:.963218;stroke-dasharray:none"/></g><path id="path341" d="M1071.505 97.464c-.114.036-.224.084-.342.107-1.012.223-1.987-.134-2.813-.67-.194-.154-.405-.293-.586-.46-.857-.785-1.283-1.827-1.224-2.95.034-.194.055-.396.106-.59.283-1.118.932-1.947 1.911-2.625.198-.107.384-.234.59-.325.929-.42 1.873-.452 2.818-.08.16.08.329.147.48.235.777.448 1.389 1.13 1.853 1.855.426.9.615 1.642.312 2.613-.283.52-.646 1.078-1.358.936a3.85 3.85 0 0 1-.663-.377c-.085-.055-.27-.186-.37-.23-.056-.024-.119-.032-.178-.047-.059 0-.122-.012-.181 0-.401.055-.772.352-1.173.436-.493.123-.873.099-1.261-.246-.359-.385-.548-.829-.451-1.344.106-.575.303-1.158.67-1.638.35-.396.67-.701 1.236-.436.574.42.725.857.544 1.527-.21.432-.502.805-.797 1.185" style="fill:none;stroke:#000;stroke-width:.9;stroke-dasharray:none"/></g></g></g></svg>