<?xml version="1.0" encoding="UTF-8" standalone="no"?>
<svg
   preserveAspectRatio="none"
   viewBox="-75.2 -68.82931 519.99998 299.06931"
   width="520"
   height="299.06931"
   version="1.1"
   id="svg1119"
   sodipodi:docname="svg_x_squared_1_worked.svg"
   inkscape:version="1.3.2 (091e20e, 2023-11-25)"
   xmlns:inkscape="http://www.inkscape.org/namespaces/inkscape"
   xmlns:sodipodi="http://sodipodi.sourceforge.net/DTD/sodipodi-0.dtd"
   xmlns:xlink="http://www.w3.org/1999/xlink"
   xmlns="http://www.w3.org/2000/svg"
   xmlns:svg="http://www.w3.org/2000/svg"
   xmlns:rdf="http://www.w3.org/1999/02/22-rdf-syntax-ns#"
   xmlns:cc="http://creativecommons.org/ns#"
   xmlns:dc="http://purl.org/dc/elements/1.1/">
  <metadata
     id="metadata1121">
    <rdf:RDF>
      <cc:Work
         rdf:about="">
        <dc:format>image/svg+xml</dc:format>
        <dc:type
           rdf:resource="http://purl.org/dc/dcmitype/StillImage" />
      </cc:Work>
    </rdf:RDF>
  </metadata>
  <style
     type="text/css"
     id="style996">
        .grid {
            stroke: #9e9ed1;
            stroke-width: 0.4;
            display: block;
        }
        .axes {
            stroke: #000000;
            stroke-width: 0.9;
        }
        .arrows {
            stroke-width: 1.1;
            stroke: #000000;
            fill: none;
            stroke-linecap: round;
            stroke-linejoin: round;
        }
        .axes-labels {
            stroke-width: 0;
            stroke: #000000;
            fill: #000000;
        }
        .notch-labels-in-grid {
            stroke-width: 0;
            stroke: #b8b8de;
            fill: #b1b1cc;
        }
        .dots-full {
            stroke-width: 1.5;
            stroke: #ff0000;
            fill: #ff0000;
        }
        .graph {
            stroke: #ff0000;
            stroke-width: 1.7;
            fill: none;
        }
        .viewbox {
            fill: none;
            stroke-width: 2;
            stroke: #ff000088;
            display: none;
        }
        .labelbox {
            fill: none;
            stroke-width: 2;
            stroke: #00ff0088;
            display: none;
        }
    </style>
  <defs
     id="defs1005">
    <path
       id="STIXWEBMAINI-78"
       stroke-width="1"
       d="m 243,355 12,-57 c 70,107 107,143 151,143 24,0 41,-15 41,-37 0,-21 -14,-36 -34,-36 -19,0 -28,17 -52,17 -18,0 -54,-44 -98,-121 0,-7 2,-21 8,-45 L 303,85 c 7,-28 16,-41 30,-41 13,0 24,10 47,40 9,12 13,18 21,28 l 15,-9 C 358,13 332,-11 294,-11 262,-11 247,7 235,57 L 206,176 118,57 C 74,-2 54,-11 23,-11 c -31,0 -50,16 -50,42 0,20 14,36 34,36 9,0 19,-4 32,-11 10,-6 20,-9 26,-9 11,0 30,19 51,49 l 82,116 -28,124 c -14,60 -21,68 -46,68 -8,0 -20,-2 -39,-7 l -18,-5 -3,16 11,4 c 61,22 94,29 117,29 25,0 37,-18 51,-86 z" />
    <path
       id="STIXWEBMAIN-32"
       stroke-width="1"
       d="M 474,137 420,0 H 29 v 12 l 178,189 c 94,99 130,175 130,260 0,91 -54,141 -139,141 C 126,602 91,570 51,472 l -21,5 c 21,117 85,199 208,199 113,0 185,-77 185,-176 0,-79 -39,-154 -128,-248 L 130,76 h 234 c 42,0 63,11 96,67 z" />
    <path
       id="STIXWEBMAIN-2212"
       stroke-width="1"
       d="M 621,220 H 64 v 66 h 557 z" />
    <path
       id="STIXWEBMAIN-31"
       stroke-width="1"
       d="M 394,0 H 118 v 15 c 74,4 95,25 95,80 v 449 c 0,34 -9,49 -30,49 -10,0 -27,-5 -45,-12 l -27,-10 v 14 l 179,91 9,-3 V 76 c 0,-43 20,-61 95,-61 z" />
    <path
       id="STIXWEBMAIN-30"
       stroke-width="1"
       d="M 476,330 C 476,158 413,-14 250,-14 79,-14 24,172 24,336 24,513 93,676 254,676 385,676 476,535 476,330 Z m -96,-5 C 380,533 336,650 248,650 165,650 120,532 120,329 120,126 164,12 250,12 c 85,0 130,115 130,313 z" />
    <path
       id="STIXWEBMAIN-2E"
       stroke-width="1"
       d="m 181,43 c 0,-29 -26,-54 -56,-54 -31,0 -55,24 -55,55 0,31 25,56 56,56 29,0 55,-27 55,-57 z" />
    <path
       id="STIXWEBMAIN-35"
       stroke-width="1"
       d="m 438,681 -36,-85 c -3,-7 -11,-13 -27,-13 H 181 L 141,498 C 284,471 334,449 391,370 417,334 426,296 426,243 426,147 396,85 328,35 281,1 226,-14 158,-14 83,-14 31,10 31,48 c 0,25 17,38 45,38 23,0 42,-5 74,-31 28,-23 51,-32 71,-32 70,0 135,83 135,169 0,64 -22,114 -67,150 -47,38 -117,70 -213,70 -9,0 -12,2 -12,8 0,2 1,5 1,5 l 109,237 h 207 c 23,0 32,5 48,26 z" />
  </defs>
  <sodipodi:namedview
     inkscape:window-width="1728"
     inkscape:window-height="1051"
     inkscape:zoom="1.0015185"
     id="namedview1007"
     inkscape:document-rotation="0"
     showgrid="false"
     inkscape:cx="268.0929"
     inkscape:cy="41.93632"
     inkscape:window-x="0"
     inkscape:window-y="38"
     inkscape:window-maximized="0"
     inkscape:current-layer="notch labels"
     pagecolor="#ffffff"
     bordercolor="#000000"
     borderopacity="0.25"
     inkscape:showpageshadow="2"
     inkscape:pageopacity="0.0"
     inkscape:pagecheckerboard="0"
     inkscape:deskcolor="#d1d1d1"
     showguides="true">
    <sodipodi:guide
       position="260,415.56502"
       orientation="-1,0"
       id="guide1"
       inkscape:locked="false"
       inkscape:label=""
       inkscape:color="rgb(0,134,229)" />
  </sodipodi:namedview>
  <g
     id="grid"
     inkscape:groupmode="layer"
     inkscape:label="grid">
    <path
       class="grid"
       d="M -15.195594,200.04 V 0"
       id="path1009" />
    <path
       class="grid"
       d="M 34.804407,200.04 V 0"
       id="path1011" />
    <path
       class="grid"
       d="M 84.804396,200.04 V 0"
       id="path1013" />
    <path
       class="grid"
       d="M 134.80438,200.04 V 0"
       id="path1015" />
    <path
       class="grid"
       d="M 184.80438,200.04 V 0"
       id="path1017" />
    <path
       class="grid"
       d="M 234.80438,200.04 V 0"
       id="path1019" />
    <path
       class="grid"
       d="M 284.80439,200.04 V 0"
       id="path1021" />
    <path
       class="grid"
       d="M 334.80439,200.04 V 0"
       id="path1023" />
    <path
       class="grid"
       d="M 384.80439,200.04 V 0"
       id="path1025" />
    <path
       class="grid"
       d="M -15.215594,200.02 H 384.82438"
       id="path1027" />
    <path
       class="grid"
       d="M -15.215594,150.02 H 384.82438"
       id="path1029" />
    <path
       class="grid"
       d="M -15.215594,100.02 H 153.25008 m 26.5143,0 h 205.06"
       id="path1031" />
    <path
       class="grid"
       d="M -15.215594,50.02 H 384.82438"
       id="path1033" />
    <path
       class="grid"
       d="M -15.215594,0.02 H 166.4466 m 13.31778,0 h 205.06"
       id="path1035" />
  </g>
  <g
     id="axes"
     inkscape:groupmode="layer"
     inkscape:label="axes">
    <path
       class="axes"
       d="M -40.415593,200.02 H 418.42439"
       id="path1038" />
    <path
       class="axes"
       d="M 184.80438,225.24 V -29.4"
       id="path1040" />
  </g>
  <g
     id="axes arrows"
     inkscape:groupmode="layer"
     inkscape:label="axes arrows">
    <path
       class="arrows"
       d="m 415.25037,195.62548 c 0.20984,1.64356 2.53791,4.11327 3.17402,4.39452 -0.63611,0.27248 -2.96418,2.74219 -3.17402,4.38575"
       id="path1043" />
    <path
       class="arrows"
       d="m 180.40986,-26.22599 c 1.64356,-0.20984 4.11327,-2.53791 4.39452,-3.17401 0.27248,0.6361 2.74219,2.96417 4.38575,3.17401"
       id="path1045" />
  </g>
  <g
     id="axes labels"
     inkscape:groupmode="layer"
     inkscape:label="axes labels">
    <g
       class="axes-labels"
       transform="matrix(0.019511,0,0,-0.019511,431.02438,204.64012)"
       id="g1050">
      <use
         xlink:href="#STIXWEBMAINI-78"
         x="0"
         y="0"
         id="use1048" />
    </g>
    <path
       class="labelbox"
       d="m 446.24,206.68132 h 9.2484 V 194.60181 H 446.24 Z"
       id="path1052" />
    <g
       class="axes-labels"
       transform="matrix(0.019506,0,0,-0.019506,178.26499,-45.36)"
       id="g1058">
      <use
         xlink:href="#STIXWEBMAINI-78"
         x="0"
         y="0"
         id="use1054" />
      <use
         transform="scale(0.707)"
         xlink:href="#STIXWEBMAIN-32"
         x="634"
         y="583"
         id="use1056" />
    </g>
    <path
       class="labelbox"
       d="m 193.4806,-43.2684 h 18.1188 v -20.56091 h -18.1188 z"
       id="path1060" />
  </g>
  <g
     id="graphs"
     inkscape:groupmode="layer"
     inkscape:label="graphs">
    <path
       class="graph"
       d="M -15.215594,-0.02 C 118.13105,266.7 251.47771,266.7 384.82438,-0.02"
       id="path1063" />
  </g>
  <g
     id="top dots"
     inkscape:groupmode="layer"
     inkscape:label="top dots"
     style="display:none">
    <circle
       class="dots-full"
       cx="-15.195595"
       cy="0.02"
       r="3.2"
       id="circle1066" />
    <circle
       class="dots-full"
       cx="384.80444"
       cy="0.02"
       r="3.2"
       id="circle1068" />
  </g>
  <g
     id="notch labels"
     inkscape:groupmode="layer"
     inkscape:label="notch labels">
    <g
       class="notch-labels-in-grid"
       transform="matrix(0.017561,0,0,-0.017561,-25.609494,221.19296)"
       id="g1075">
      <use
         xlink:href="#STIXWEBMAIN-2212"
         x="0"
         y="0"
         id="use1071" />
      <use
         xlink:href="#STIXWEBMAIN-31"
         x="685"
         y="0"
         id="use1073" />
    </g>
    <g
       class="notch-labels-in-grid"
       transform="matrix(0.017559,0,0,-0.017559,63.598187,222.11363)"
       id="g1087">
      <use
         xlink:href="#STIXWEBMAIN-2212"
         x="0"
         y="0"
         id="use1077" />
      <g
         transform="translate(685)"
         id="g1085">
        <use
           xlink:href="#STIXWEBMAIN-30"
           id="use1079" />
        <use
           xlink:href="#STIXWEBMAIN-2E"
           x="500"
           y="0"
           id="use1081" />
        <use
           xlink:href="#STIXWEBMAIN-35"
           x="751"
           y="0"
           id="use1083" />
      </g>
    </g>
    <g
       class="notch-labels-in-grid"
       transform="matrix(0.017552,0,0,-0.017552,168.71233,221.77939)"
       id="g1091">
      <use
         xlink:href="#STIXWEBMAIN-30"
         x="0"
         y="0"
         id="use1089" />
    </g>
    <g
       class="notch-labels-in-grid"
       transform="matrix(0.01756,0,0,-0.01756,273.81592,222.11473)"
       id="g1099">
      <use
         xlink:href="#STIXWEBMAIN-30"
         id="use1093" />
      <use
         xlink:href="#STIXWEBMAIN-2E"
         x="500"
         y="0"
         id="use1095" />
      <use
         xlink:href="#STIXWEBMAIN-35"
         x="751"
         y="0"
         id="use1097" />
    </g>
    <g
       class="notch-labels-in-grid"
       transform="matrix(0.017552,0,0,-0.017552,380.41203,221.18413)"
       id="g1103">
      <use
         xlink:href="#STIXWEBMAIN-31"
         x="0"
         y="0"
         id="use1101" />
    </g>
    <g
       class="notch-labels-in-grid"
       transform="matrix(0.01756,0,0,-0.01756,155.51877,105.6053)"
       id="g1111">
      <use
         xlink:href="#STIXWEBMAIN-30"
         id="use1105" />
      <use
         xlink:href="#STIXWEBMAIN-2E"
         x="500"
         y="0"
         id="use1107" />
      <use
         xlink:href="#STIXWEBMAIN-35"
         x="751"
         y="0"
         id="use1109" />
    </g>
    <g
       class="notch-labels-in-grid"
       transform="matrix(0.017552,0,0,-0.017552,168.71314,5.59998)"
       id="g1115">
      <use
         xlink:href="#STIXWEBMAIN-31"
         x="0"
         y="0"
         id="use1113" />
    </g>
  </g>
  <rect
     id="viewbox"
     class="viewbox"
     x="-75.199997"
     y="-68.829308"
     width="580.68842"
     height="299.06931" />
</svg>
