<svg xmlns="http://www.w3.org/2000/svg" xmlns:xlink="http://www.w3.org/1999/xlink" id="svg61879" width="450" height="250" preserveAspectRatio="none" version="1.1" viewBox="-10 -45 450 250"><style id="style61793" type="text/css">.grid{stroke:#9e9ed1;stroke-width:.4}.axes{stroke:#000;stroke-width:.9}.axes-arrows{stroke-width:1.2100000000000002;stroke:#000;fill:none;stroke-linecap:round;stroke-linejoin:round}</style><defs id="defs61801"><path id="STIXWEBNORMALI-1D465" stroke-width="1" d="m305 288 45 69c26 40 61 84 111 84 32 0 49-12 49-33 0-19-13-42-39-42-22 0-27 9-44 9-30 0-41-16-55-38l-55-85c30-62 53-197 98-197 16 0 40 14 61 57l14-10C478 87 433-9 375-9c-41 0-60 41-73 77l-40 113-63-98C167 34 138-9 82-9 46-9 30 16 30 38c0 16 13 37 38 37 26 0 22-20 47-20 12 0 38 10 70 59l65 101-33 92c-17 48-43 89-98 89-13 0-28-2-38-6l-3 18 132 33c44-24 63-65 75-98z"/><path id="STIXWEBMAIN-2192" stroke-width="1" d="M856 258v-10c-96-41-172-115-238-191l-20 19c23 33 52 65 82 96 9 9 14 20 14 28 0 10-8 20-26 20H70v66h599c10 0 26 12 26 22 0 9-4 15-14 25-29 28-60 63-82 96l20 19c65-75 141-150 237-190Z"/><path id="STIXWEBMAIN-2026" stroke-width="1" d="M888 43c0-29-26-54-56-54-31 0-55 24-55 55s25 56 56 56c29 0 55-27 55-57zm-333 0c0-29-26-54-56-54-31 0-55 24-55 55s25 56 56 56c29 0 55-27 55-57zm-333 0c0-29-26-54-56-54-31 0-55 24-55 55s25 56 56 56c29 0 55-27 55-57z"/><path id="STIXWEBMAIN-30" stroke-width="1" d="M476 330c0-172-63-344-226-344C79-14 24 172 24 336c0 177 69 340 230 340 131 0 222-141 222-346Zm-96-5c0 208-44 325-132 325-83 0-128-118-128-321S164 12 250 12c85 0 130 115 130 313z"/><path id="STIXWEBMAIN-34" stroke-width="1" d="M473 167H370V0h-78v167H12v64l314 445h44V231h103Zm-181 64v343L52 231Z"/><path id="STIXWEBMAIN-38" stroke-width="1" d="M445 155c0-103-77-169-197-169C135-14 56 55 56 149c0 69 23 108 130 183C83 417 62 455 62 520c0 96 83 156 194 156 99 0 168-65 168-143 0-75-35-109-134-162 123-82 155-136 155-216Zm-90 378c0 69-41 115-109 115-67 0-110-37-110-99s37-108 125-160c68 40 94 82 94 144zm-84-261-59 40c-59-48-80-89-80-154 0-92 51-144 127-144 65 0 110 45 110 110 0 62-30 102-98 148z"/></defs><g id="g168656"><g id="grid-2" transform="translate(17.686 -21.415)"><path id="path68667" d="M32 216V0" class="grid" style="stroke:#9e9ed1;stroke-width:.4"/><path id="path68669" d="M72 216V0" class="grid" style="stroke:#9e9ed1;stroke-width:.4"/><path id="path68671" d="M112 216V0" class="grid" style="stroke:#9e9ed1;stroke-width:.4"/><path id="path68673" d="M152 216V0" class="grid" style="stroke:#9e9ed1;stroke-width:.4"/><path id="path68675" d="M192 198.247V0" class="grid" style="stroke:#9e9ed1;stroke-width:.4"/><path id="path68677" d="M232 216V0" class="grid" style="stroke:#9e9ed1;stroke-width:.4"/><path id="path68679" d="M272 216V0" class="grid" style="stroke:#9e9ed1;stroke-width:.4"/><path id="path68681" d="M312 216V0" class="grid" style="stroke:#9e9ed1;stroke-width:.4"/><path id="path68683" d="M352 198.247V0" class="grid" style="stroke:#9e9ed1;stroke-width:.4"/><path id="path68685" d="M0 188h380" class="grid" style="stroke:#9e9ed1;stroke-width:.4"/><path id="path68687" d="M0 148h380" class="grid" style="stroke:#9e9ed1;stroke-width:.4"/><path id="path68689" d="M0 108h380" class="grid" style="stroke:#9e9ed1;stroke-width:.4"/><path id="path68691" d="M0 68h380" class="grid" style="stroke:#9e9ed1;stroke-width:.4"/><path id="path68693" d="M0 28h11.68m12.942 0H380" class="grid" style="stroke:#9e9ed1;stroke-width:.4"/></g><g id="axes-2" transform="translate(17.686 -21.415)"><path id="path68696" d="M0 188h390.657" class="axes" style="stroke:#000;stroke-width:.9"/><path id="path68698" d="M32 216V-9.837" class="axes" style="stroke:#000;stroke-width:.9"/></g><g id="axes arrows-0" transform="translate(17.686 -21.415)"><path id="path68701" d="M385.247 180.786c0 2.886 4.058 7.214 5.41 7.214-1.352 0-5.41 4.328-5.41 7.214" class="axes-arrows" style="fill:none;stroke:#000;stroke-width:1.21;stroke-linecap:round;stroke-linejoin:round"/><path id="path68703" d="M24.786-4.427c2.886 0 7.214-4.058 7.214-5.41 0 1.352 4.328 5.41 7.214 5.41" class="axes-arrows" style="fill:none;stroke:#000;stroke-width:1.21;stroke-linecap:round;stroke-linejoin:round"/></g><g id="notch labels-2" style="fill:#b8b8de;stroke:none" transform="translate(17.686 -21.415)"><g id="g68721" transform="matrix(.01808 0 0 -.01808 15.266 213.128)"><use xlink:href="#STIXWEBMAIN-30" id="use68719" x="0" y="0"/></g><g id="g68725" transform="matrix(.01808 0 0 -.01808 187.475 213.128)"><use xlink:href="#STIXWEBMAIN-34" id="use68723" x="0" y="0"/></g><g id="g68729" transform="matrix(.01808 0 0 -.01808 347.475 213.128)"><use xlink:href="#STIXWEBMAIN-38" id="use68727" x="0" y="0"/></g><g id="g68733" transform="matrix(.01808 0 0 -.01808 13.626 34.107)"><use xlink:href="#STIXWEBMAIN-34" id="use68731" x="0" y="0"/></g></g></g><g id="layer5"><path id="path103556-1" d="M397.686 18.194 353.9 133.312c-.584 1.557-1.632 4.244-2.695 6.547-1.67 3.62-4.034 7.982-6.132 10.665-4.97 6.356-11.238 7.682-17.293 4.051-4.476-2.685-8.775-8.206-13.385-16.12a220.3 220.3 0 0 1-2.193-3.899l-51.98-98.007c-2.362-4.298-5.141-8.518-8.243-11.145-2.47-2.092-5.6-3.742-9.859-3.57-3.568.145-7.678 2.027-11.196 5.215-2.582 2.34-5.025 5.304-8.178 9.484l-79.675 113.592s-1.38 1.772-2.245 2.938c-4.614 6.228-7.955 2.973-9.993 1.048-1.175-1.11-3.994-4.205-3.994-4.205L17.686 30.718" style="fill:none;stroke:red;stroke-width:1.3;stroke-dasharray:none"/></g><g id="layer4" style="display:inline"><g id="g168447"><g id="g166258" transform="translate(-.827 .102)"><path id="path145720-6" d="M131.229 162.393c-1.16 2.069-2.594 4.006-3.738 6.087-2.108 3.177-4.233 6.342-6.217 9.602-3.027 4.972-6.352 10.008-9.617 14.832" style="fill:#000;stroke:#000;stroke-width:1;stroke-dasharray:none;stroke-opacity:1"/><path id="path146557-2" d="M132.457 170.71a77.274 77.274 0 0 1 .193-7.255c.069-.89.157-1.727.335-2.6-.072-.518-.737.158-1.047.195-1.478.659-3.322 1.406-5.049 2.084a29.48 29.48 0 0 1-3.248 1.06" style="fill:none;stroke:#000;stroke-width:1;stroke-dasharray:none;stroke-opacity:1"/></g><g id="g166380" transform="translate(-.827 .102)"><path id="path156720" d="M140.107 162.779c1.031 2.135 1.8 4.42 2.85 6.55 1.399 3.547 2.777 7.1 4.313 10.593 2.344 5.33 4.57 10.939 6.656 16.377" style="fill:#000;stroke:#000;stroke-width:1;stroke-dasharray:none;stroke-opacity:1"/><path id="path156722" d="M147.629 166.533a77.276 77.276 0 0 1-5.838-4.311c-.69-.566-1.326-1.118-1.94-1.763-.466-.238-.292.694-.44.97-.306 1.589-.749 3.527-1.181 5.332a29.479 29.479 0 0 1-.99 3.27" style="fill:none;stroke:#000;stroke-width:1;stroke-dasharray:none;stroke-opacity:1"/></g><g id="g166376" transform="translate(-.827 .102)"><path id="path159737" d="M135.294 163.171c.132 1.501-.037 3.025.115 4.527-.072 2.416-.165 4.831-.089 7.249.116 3.689.015 7.513-.15 11.203" style="fill:#000;stroke:#000;stroke-width:.999998;stroke-dasharray:none;stroke-opacity:1"/><path id="path159739" d="M140.796 167.2a51.103 51.103 0 0 1-3.733-3.944c-.42-.5-.794-.977-1.113-1.504-.339-.253-.537.335-.778.46a94.66 94.66 0 0 1-3.14 2.832 23.963 23.963 0 0 1-2.172 1.672" style="fill:none;stroke:#000;stroke-width:.999998;stroke-dasharray:none;stroke-opacity:1"/></g></g></g></svg>