<svg xmlns="http://www.w3.org/2000/svg" width="480" height="360" viewBox="0 0 127 95.25"><path d="M17.665 49.69c.993-.045 1.986.053 2.98.045 1.465-.037 2.93-.066 4.395-.077 1.521.009 3.039.112 4.557.055 1.329-.052 2.66-.058 3.99-.058 1.661-.014 3.32.136 4.98.101 1.65-.034 3.301-.04 4.952-.025 1.65.015 3.298.011 4.947-.013 1.566-.022 3.133-.025 4.7-.02 1.312.01 2.622.066 3.934.058 1.229-.006 2.456.02 3.684-.01 1.336-.03 2.674-.011 4.011-.027 1.647-.054 3.294-.003 4.942.004 1.868-.008 3.735-.015 5.603-.012 1.494.002 2.987.012 4.48.023 1.462.01 2.923.022 4.384.033 1.512.01 3.024.018 4.535.057 1.41.035 2.82-.006 4.23.007 1.231.002 2.46.012 3.69.05 1.15.034 2.3-.01 3.45.002l1.759.015" style="display:inline;fill:none;stroke:#000;stroke-width:.264583;stroke-dasharray:none"/><path d="M98.983 49.387c.532.054 1.065.104 1.596.165.575.082 1.153.164 1.718.298-.03-.055.255.093.25.077-.062-.17-.06-.125-.234-.075-.628.189-1.24.42-1.86.63-.313.097-.31.1-.61.182-.227.063-.15.058-.262.061M61.564 9.23a23.492 23.492 0 0 0-.328-1.374c-.213-.778-.455-1.546-.616-2.343-.017-.14-.026-.178-.026-.311 0-.061-.022-.21-.026-.214-.062-.277.086-.235.014-.06-.064.435-.202.985-.302 1.484-.133.682-.295 1.355-.417 2.04" style="display:inline;fill:none;stroke:#000;stroke-width:.264583;stroke-dasharray:none"/><path d="M60.496 89.884c0-.257.007-.513.01-.77.018-1.652.032-3.305.057-4.957.04-2.648.075-5.296.077-7.947.006-2.418.02-4.837-.026-7.253a550.262 550.262 0 0 1-.074-5.922l-.028-3.749c-.033-1.44-.004-2.88.038-4.32.042-1.354.05-2.708.05-4.062-.001-1.244-.012-2.488-.021-3.732a45.68 45.68 0 0 1 .044-3.312c.048-.919.058-1.838.06-2.757 0-1.012-.008-2.023-.016-3.034l-.022-2.827c-.008-.845-.106-1.685-.114-2.53.019-1.06.043-2.12.053-3.18.008-1.035.001-2.07-.005-3.106-.033-.926.033-1.851.073-2.777.035-.907.04-1.814.04-2.721-.002-.739-.008-1.477-.014-2.215a2689.304 2689.304 0 0 1-.032-4.151l-.021-2.841-.021-2.71a46.13 46.13 0 0 1 .023-2.825" style="display:inline;fill:none;stroke:#000;stroke-width:.264583;stroke-dasharray:none"/><path d="m26.467 48.219-.01.072c-.032.283-.026.569-.044.853-.02.414-.032.828-.025 1.243l-.001.862M35.036 48.23c0 .012-.037.248-.037.552-.012.488-.035.977-.018 1.465.012.286.035.57.032.857M43.426 51.135c.074-.435.106-.876.142-1.316.038-.474.04-.95.068-1.423M52.107 48.267a5.835 5.835 0 0 0-.042.495c-.025.462-.026.925-.044 1.388-.014.318-.032.635-.027.954M69.072 48.484c0 .04.002.078.003.117.028.44.029.881.025 1.323 0 .383 0 .767-.002 1.15M77.608 48.546c-.015.471-.033.942-.058 1.412-.016.39-.034.782.005 1.17M86.162 48.658c-.013.334-.026.667-.041 1-.019.439-.043.88-.011 1.318M94.7 48.673a7.51 7.51 0 0 0-.068.58c-.033.337-.04.672.022 1.006.038.287.074.575.108.863M59.106 58.285c.124 0 .248-.005.372-.01.25-.011.499-.018.748-.027.273-.01.545-.03.817-.042.247-.013.494-.018.741-.026l.133-.004M61.952 66.708h-.032c-.033.004-.066.011-.1.016-.05.006-.101.009-.152.016a2.979 2.979 0 0 1-.378.001c-.125-.007-.25-.013-.376-.026a2.083 2.083 0 0 0-.332-.002c-.1.01-.199.031-.3.037a4.922 4.922 0 0 1-.443.03c-.153-.003-.306-.008-.46-.009l-.15.002c-.023.001-.046 0-.068.003l-.012.003M59.106 75.33l.02-.001.04.001c.035 0 .069-.005.103-.006.066-.004.081-.004.15-.006.21 0 .42.004.63.005a97.464 97.464 0 0 0 1.3-.001c.148-.002.296-.008.445-.014.084-.003.168-.012.25-.023l.007-.006M59.22 83.842a.693.693 0 0 1 .214-.02c.142.005.284.009.426.007.143-.005.285-.01.428-.011.149-.001.297-.002.446-.007a15.39 15.39 0 0 1 .839-.008l.36.027.165.014M59.201 41.239c.09.004.217-.006.331-.002.053-.01.109-.006.161-.005.181.007.362 0 .542-.014.173-.015.347-.023.521-.027.161-.003.322-.01.483-.013.153-.002.306-.003.46-.011l.157-.01M59.29 32.7c.104 0 .236-.006.355-.018l.516.004c.18.006.362.01.543.007.17-.001.34-.008.511-.014.13-.002.258-.007.387-.017.046 0 .094-.011.14-.01l.13.003M59.255 24.154c.094-.022.193-.008.288-.004.18.007.361.008.541.01.178 0 .356 0 .534.005.146.002.291.014.437.015.14 0 .282-.002.423-.004.102-.004.203.006.305.01h.082M59.284 15.61c.073-.002.146-.001.219.002.156.006.313.008.47.009.163-.005.326-.006.49-.004.176-.002.352-.008.528-.001.148.009.297.012.445.019.11.006.222.014.333.013a10.924 10.924 0 0 0 .268-.008" style="display:inline;fill:none;fill-opacity:1;stroke:#000;stroke-width:.264583;stroke-dasharray:none;stroke-opacity:1"/><g style="display:inline"><path d="M31.347-32.078c.83 2.5.599 5.43-.086 7.861-1.048 3.724-4.276 6.692-7.548 8.44-4.024 2.151-9.1 2.21-13.537 1.17-4.36-1.023-7.743-3.387-10.22-7.255-2.178-3.4-2.943-8.35-2.3-12.05.812-4.685 3.997-9.238 8.808-11.532 6.246-2.979 12.375-2.768 17.505 1.09 2.803 2.109 6.01 5.418 7.114 9.722.178.696.526 1.766.489 2.482" style="fill:none;stroke:#00f;stroke-width:.396875;stroke-dasharray:none"/><path d="M110.049-52.753c.036-.814-.083-1.62-.415-2.37-.107-.24-.239-.47-.358-.705-.88-1.547-2.079-2.89-3.455-4.013-.322-.263-.661-.503-.992-.755-1.337-.899-2.73-1.733-4.25-2.285-.931-.337-1.38-.416-2.346-.647-1.735-.332-3.515-.444-5.272-.215-1.038.135-1.577.3-2.574.55-1.454.424-2.86 1.078-4.049 2.03-.67.537-.853.792-1.431 1.43a11.258 11.258 0 0 0-2.286 5.016c-.07.39-.103.788-.154 1.182-.113 1.444-.1 2.907.193 4.331.186.905.32 1.205.622 2.081.726 1.756 1.735 3.415 3.112 4.74.283.272.594.515.892.772 1.342 1.055 2.891 1.778 4.511 2.295 1.014.324 1.5.408 2.525.636 1.477.308 2.989.427 4.493.287.98-.09 1.25-.179 2.208-.385a15.488 15.488 0 0 0 4.283-1.757c.83-.496 1.022-.669 1.79-1.24 1.167-.944 2.255-2.038 2.955-3.383.105-.203.186-.417.28-.625.472-1.172.608-2.423.57-3.676-.091-1.127-.503-2.17-.994-3.175" style="fill:none;stroke:#00f;stroke-width:.264583;stroke-dasharray:none"/><path d="M126.678-21.423c.103 1.274.214 2.548.337 3.82.055 1.003.25 1.992.368 2.987.011-.437-.053.33.427-.263.056-.069-.095-.15-.144-.224a28.3 28.3 0 0 0-1.15-1.588c-.965-1.188-1.913-2.39-2.73-3.685" style="fill:red;stroke:red;stroke-width:.0105833"/><path d="M71.557 122.646c1.072.719 2.212 1.323 3.362 1.906.649.352.528.275 1.092.618.102.063.203.126.303.19.066.042.117.13.195.13.543.002.042.085-.013-.179-.435-.714-.907-1.407-1.294-2.15-.521-.922-1.035-1.849-1.539-2.78" style="fill:none;stroke:red;stroke-width:.608542;stroke-dasharray:none"/><circle cx="108.3" cy="-53.617" r="13.126" style="fill:none;stroke:#f0f;stroke-width:.264583;stroke-dasharray:none"/><path d="M75.55-15.437c.129-.02.307-.165.498-.25.183-.114.378-.207.562-.318.383-.204.77-.4 1.155-.602.216-.109.434-.214.645-.33.014-.012.027-.025.042-.036.004-.002.01 0 .012-.004.067-.152.09-.04-.025-.165-.062-.055-.133-.082-.207-.126-.2-.055-.398-.12-.592-.194-.407-.15-.805-.323-1.2-.5-.251-.105-.506-.2-.755-.31" style="fill:none;stroke:#00f;stroke-width:.608542;stroke-dasharray:none"/><path d="M70.947-14.02c.384-.199.794-.39 1.223-.467.23-.054.464-.111.703-.117.036-.001.072.004.108.007.004 0 .015.006.012.003-.015-.012-.032-.022-.048-.033-.015.006-.035.005-.045.017-.032.038-.052.085-.079.126a3.418 3.418 0 0 1-.112.16c-.161.214-.344.413-.518.617-.27.3-.513.621-.775.927-.12.137-.248.268-.377.398-.167.18-.04.358.157.444.02.008.196-.02.213-.022.488-.11.99-.143 1.487-.194.207-.027.416-.037.625-.041l.209-.513a4.5 4.5 0 0 0-.66.03c-.506.052-1.018.077-1.515.184l-.1.023c-.021.005-.069-.006-.062.013.016.052.086.073.105.123.062.16-.034.28.037.201.133-.137.265-.277.388-.424.258-.309.506-.626.773-.926.23-.271.643-.7.751-1.04.023-.073.026-.15.039-.224-.03-.074-.04-.158-.087-.223-.207-.292-.84-.1-1.112-.055-.613.166-1.23.335-1.778.668z" style="fill:none;stroke:#00f;stroke-width:.396875"/><path d="m31.636-46.698-.16.161c-.402.396-.82.775-1.236 1.157-.34.346-.722.724-.994 1.035M46.856-26.473c.276-.341.578-.66.885-.972.37-.42.818-.762 1.196-1.17l.059-.102" style="fill:none;stroke:red;stroke-width:.396875"/><path d="M30.3-45.517c.409.346.698.67 1.111 1.01.49.378.827.772 1.26 1.214.415.464 1.076.97 1.498 1.429.415.435.826.874 1.23 1.319.468.499.926 1.005 1.401 1.496.552.54 1.106 1.079 1.65 1.627.506.5 1.016.997 1.503 1.516.479.523.986 1.019 1.49 1.517.462.434.902.89 1.352 1.335.377.367.737.75 1.07 1.158.338.438.797.842 1.178 1.243.332.359.734.725 1.024 1.118.315.428.85.79 1.201 1.189.2.245.41.483.604.733" style="fill:none;stroke:red;stroke-width:.396875"/><path d="M126.28-26.357c.301.038.567.19.807.37.09.089.183.187.231.306.03.076.013.104-.05.065-.027-.06-.167.06-.174.002-.005-.037.14-.028.104-.037-.052-.015-.107.016-.16.021-.124.012-.174.007-.297.005-.166-.007-.426-.06-.56.052-.178.149-.06.34.018.474.15.268.21.43.095.726-.082.111-.176.223-.31.275-.04.016-.108.064-.13.026-.02-.037.124-.016.114-.057-.011-.042-.088-.009-.132-.013-.222-.073-.446-.21-.53-.443-.046-.13-.036-.287-.037-.421a3.12 3.12 0 0 1 .074-.549l-.553-.03c-.038.21-.07.42-.07.634.01.238-.001.376.088.605.13.334.43.547.747.68.078.02.154.065.235.062.522-.022.84-.243 1.053-.698.017-.068.04-.134.051-.203.045-.297-.052-.58-.196-.835-.104-.175.012.055-.133.168-.07.054-.175.024-.261.042-.068.013.4-.044.208.009.358.024.601.01.962-.09a.6.6 0 0 0 .16-.069c.054-.034.097-.082.145-.124.028-.059.067-.114.082-.177.075-.298-.177-.57-.356-.768-.282-.23-.603-.422-.963-.497z" style="fill:red;stroke:none;stroke-width:.396875"/><path d="M27.617-41.79c.112-.275.17-.464.056-.767-.146-.347-.462-.49-.816-.528-.39-.015-.821.054-.927.653-.013.077-.011.155-.017.232.049.592.209.779.523 1.053.29.175.48.17.826-.01.152-.08.358-.313.399-.513zM15.121-30.271c.074.014.025 0-.117.054-.016.006.037-.001.053-.01.004-.001-.003-.006-.022-.022-.023-.02-.073-.12-.048-.139.097-.07.236-.065.126-.066l-.018-.004-.237.238c0 .03.05.072.076.087.03.008.103.03.135.026a.451.451 0 0 0 .224-.072.204.204 0 0 0 .064-.088c.035-.087.003-.16-.046-.23-.02-.016-.038-.035-.06-.048-.133-.078-.39.014-.39.123z" style="fill:#00f;stroke:#00f;stroke-width:.396875"/><path d="M126.439-39.888v-.663l-.001-1.194c-.014-.433.022-.864.048-1.295.034-.334.004-.667-.019-1a5.913 5.913 0 0 1 .01-.988c.022-.34.032-.68.037-1.02.004-.404.003-.808.003-1.211v-2.607c.003-.433-.043-.864-.034-1.297.012-.278.024-.555.03-.833.005-.292.005-.584.005-.876v-.165l-.552.044v.164c0 .29 0 .579-.006.868-.006.278-.02.556-.03.834-.005.436.039.87.036 1.305a62898.655 62898.655 0 0 1 0 2.606c0 .402 0 .803-.004 1.205-.005.334-.016.667-.039 1a6.523 6.523 0 0 0-.005 1.041c.022.316.049.633.016.95-.027.439-.06.878-.047 1.318V-39.845z" style="fill:none;stroke:#00f;stroke-width:.396875"/><path d="M130.674-24.855c.301.038.567.19.806.37.09.088.184.186.232.306.03.076.012.104-.05.064-.027-.059-.167.06-.174.003-.005-.037.14-.028.104-.038-.052-.014-.107.017-.16.022-.125.011-.174.007-.298.004-.165-.006-.425-.06-.559.052-.178.15-.06.34.018.475.15.268.21.43.095.726-.082.111-.176.222-.31.275-.04.016-.108.064-.13.025-.02-.036.124-.015.113-.056-.01-.043-.087-.009-.131-.013-.222-.073-.446-.21-.53-.443-.047-.131-.036-.287-.037-.422.006-.185.036-.367.073-.548l-.553-.03c-.037.21-.069.42-.07.634.012.238 0 .375.09.605.13.334.428.546.745.68.079.02.155.065.236.061.522-.021.839-.242 1.053-.698.017-.067.04-.133.05-.202.045-.297-.051-.58-.195-.836-.105-.174.011.056-.134.169-.069.054-.174.024-.26.041-.068.014.4-.043.208.01.358.024.6.01.961-.09a.6.6 0 0 0 .161-.07c.054-.033.097-.082.145-.123.027-.06.066-.114.082-.177.075-.298-.177-.57-.356-.769-.282-.229-.603-.421-.963-.496z" style="fill:red;stroke:none;stroke-width:.396875"/><path d="M81.406 110.899a1.892 1.892 0 0 0-.065.378c-.01.139.011.365.076.519a.885.885 0 0 0 .283.346c.09.068.228.14.338.155a.93.93 0 0 0 .435-.035.594.594 0 0 0 .289-.235.72.72 0 0 0 .13-.345.717.717 0 0 0-.067-.327c-.052-.114-.14-.19-.213-.291-.023-.032-.086-.079-.07-.125.02-.058.11-.046.152-.043.143.013.26.022.402.01.12-.01.226-.025.34-.066a.388.388 0 0 0 .174-.126c.033-.048.049-.125.024-.176a1.028 1.028 0 0 0-.222-.31 1.321 1.321 0 0 0-.34-.225 2.123 2.123 0 0 0-.416-.137 1.525 1.525 0 0 0-.235-.026" style="fill:none;stroke:red;stroke-width:.396875;stroke-dasharray:none"/><path d="M58.99 107.568c.905.846 1.792 1.86 2.673 2.735 1.42 1.41 3.18 3.331 4.878 4.992 1.872 1.815 3.68 3.686 5.481 5.565 1.125 1.176 2.268 2.336 3.404 3.501.18.184.351.372.535.551" style="fill:none;stroke:red;stroke-width:.608542;stroke-dasharray:none"/><path d="m25.38-40.193 1.593 1.675 1.6-1.675" style="fill:none;stroke:#000;stroke-width:.396875;stroke-dasharray:none;stroke-opacity:1"/><path d="M143.996 84.807a9.15 9.15 0 0 1 .562-.656c.234-.282.52-.515.761-.791l.037-.068M143.324 85.319c-.175.23-.367.444-.562.655-.234.283-.52.516-.76.792l-.038.068M141.124 87.566c-.175.23-.367.444-.562.656-.234.282-.52.515-.76.791l-.038.068M137.57 91.233c.174-.229.366-.444.561-.655.234-.283.521-.515.762-.791l.036-.068M136.897 91.745a9.15 9.15 0 0 1-.561.656c-.234.282-.521.515-.761.791l-.037.068M134.697 93.993a9.15 9.15 0 0 1-.561.655c-.234.283-.521.516-.761.792l-.037.067" style="fill:none;stroke:red;stroke-width:.396875"/><path d="M-5.183-45.209H8.946v3.016H-5.183z" style="fill:#fff6d5;fill-opacity:1;stroke:#000;stroke-width:.211667;stroke-dasharray:none;stroke-opacity:1" transform="rotate(44.946 2.686 -1.111)"/><g style="stroke-width:1.29585"><path d="M76.68 30.061c-.058.259-.105.52-.16.779-.05.24-.099.48-.145.72l-.128-.032.147-.72c.054-.26.1-.521.155-.78z" style="display:inline;fill:#000;fill-opacity:1;stroke:#000;stroke-width:.171431;stroke-linecap:butt;stroke-linejoin:miter;stroke-miterlimit:4;stroke-dasharray:none;stroke-dashoffset:0;stroke-opacity:1" transform="matrix(.76316 0 0 .78031 -29.82 -59.66)"/><path d="M76.153 31.533c.184-.056.372-.1.559-.149.265-.072.533-.136.8-.201.097-.023.054-.014.13-.029l.101.088c-.074.011-.032.004-.127.025-.268.064-.536.127-.8.2l-.122.032-.112.03c-.108.029-.218.05-.323.088l-.106-.084z" style="display:inline;fill:#000;fill-opacity:1;stroke:#000;stroke-width:.171431;stroke-linecap:butt;stroke-linejoin:miter;stroke-miterlimit:4;stroke-dasharray:none;stroke-dashoffset:0;stroke-opacity:1" transform="matrix(.76316 0 0 .78031 -29.82 -59.66)"/></g><g style="stroke-width:1.28831"><path d="M77.893 31.519c-.133.157-.287.295-.433.44-.12.118-.11.111-.219.23-.096.118-.052.062-.133.168l-.121-.055c.082-.108.037-.05.136-.171.109-.12.1-.114.22-.233.143-.142.294-.278.426-.432l.124.053z" style="display:inline;fill:#000;fill-opacity:1;stroke:#000;stroke-width:.170433;stroke-linecap:butt;stroke-linejoin:miter;stroke-miterlimit:4;stroke-dasharray:none;stroke-dashoffset:0;stroke-opacity:1" transform="matrix(.76859 0 0 .78391 -30.034 -59.462)"/><path d="M77.8 31.382c.165.136.328.274.492.413.154.132.308.264.451.408l-.131.02a7.79 7.79 0 0 0-.448-.404c-.165-.14-.333-.276-.497-.417l.132-.02zM77.472 31.862c.168.163.346.316.523.471l.062.055-.13.023-.062-.055c-.176-.156-.355-.31-.525-.474l.132-.02zM77.04 32.283c.213.18.428.358.637.543.102.091.204.184.302.28l-.131.02a7.558 7.558 0 0 0-.299-.277 18.39 18.39 0 0 0-.639-.537z" style="display:inline;fill:#000;fill-opacity:1;stroke:#000;stroke-width:.170433;stroke-linecap:butt;stroke-linejoin:miter;stroke-miterlimit:4;stroke-dasharray:none;stroke-dashoffset:0;stroke-opacity:1" transform="matrix(.76859 0 0 .78391 -30.034 -59.462)"/></g><path d="M80.23 34.144a.371.371 0 0 0-.162-.219c-.026-.017-.053-.03-.08-.046-.064-.03-.113-.056-.184-.068-.005-.001-.006.008-.011.009-.032.003-.065-.002-.097.001-.087.008-.098.017-.178.045-.095.047-.18.117-.198.228-.012.075 0 .102.016.176a.87.87 0 0 0 .256.392c.078.066.103.072.191.117.033.008.064.022.098.024.007 0 .006-.014.012-.016.033-.011.068-.01.1-.021a.62.62 0 0 0 .197-.115c.028-.024.05-.055.074-.082.017-.03.037-.06.05-.091a.446.446 0 0 0-.022-.36c-.012-.026-.028-.05-.042-.074-.05-.067-.024-.037-.074-.09l.11-.015c.05.06.025.027.074.1.037.07.054.093.074.172a.484.484 0 0 1-.017.304c-.014.035-.036.067-.054.1-.026.03-.05.064-.08.091a.713.713 0 0 1-.205.129c-.035.013-.07.029-.108.03-.135.003-.18-.02-.292-.056-.09-.051-.115-.059-.194-.13a.927.927 0 0 1-.258-.418c-.014-.083-.026-.113-.012-.196a.35.35 0 0 1 .139-.217c.024-.018.051-.032.077-.047.03-.012.058-.027.089-.036a.716.716 0 0 1 .2-.026.94.94 0 0 1 .376.112c.027.018.055.034.08.053a.451.451 0 0 1 .166.242l-.112-.002z" style="display:inline;fill:#000;fill-opacity:1;stroke:#000;stroke-width:.132292;stroke-linecap:butt;stroke-linejoin:miter;stroke-miterlimit:4;stroke-dasharray:none;stroke-dashoffset:0;stroke-opacity:1" transform="translate(-48.044 -66.431)"/><g style="stroke-width:1.30121"><path d="M79.08 32.453c-.1.121-.211.231-.32.345l-.256.274c-.147.158-.227.231-.377.386-.037.04-.018.023-.13-.052.115-.1.158-.14.39-.392l.256-.275c.105-.112.215-.22.313-.34z" style="display:inline;fill:#000;fill-opacity:1;stroke:#000;stroke-width:.17214;stroke-miterlimit:4;stroke-dasharray:none;stroke-opacity:1" transform="matrix(.75493 0 0 .78234 -28.797 -59.194)"/><path d="M78.779 33.961a17.17 17.17 0 0 0-.638-.583l-.132.028c.222.182.432.38.64.578.04.04.083.078.125.116l.135-.019c-.048-.04-.093-.084-.13-.12z" style="display:inline;fill:#000;fill-opacity:1;stroke:#000;stroke-width:.17214;stroke-miterlimit:4;stroke-dasharray:none;stroke-opacity:1" transform="matrix(.75493 0 0 .78234 -28.797 -59.194)"/></g><path d="M81.363 35.27c.105-.018-.133-.155-.173-.17a.84.84 0 0 0-.142-.031.592.592 0 0 0-.354.07c-.032.018-.057.046-.086.07-.017.03-.04.058-.051.091-.054.166.04.346.135.475.026.035.065.079.097.11a.47.47 0 0 0 .146.106l.006.072c-.061-.012-.076-.023-.118-.05a.861.861 0 0 1-.136-.116c-.03-.034-.071-.076-.097-.113-.103-.147-.191-.336-.13-.52a.337.337 0 0 1 .15-.185.535.535 0 0 1 .116-.054c.187-.063.353-.035.533.037a.974.974 0 0 1 .21.176c.03.047-.008.087-.05.095z" style="display:inline;fill:#000;fill-opacity:1;stroke:#000;stroke-width:.132292;stroke-miterlimit:4;stroke-dasharray:none;stroke-opacity:1" transform="translate(-48.044 -66.431)"/><g style="stroke-width:1.2871"><path d="M81.943 35.46c.266.25.53.502.783.765l.033.037-.133.019-.032-.036c-.25-.265-.516-.515-.784-.762z" style="display:inline;fill:#000;fill-opacity:1;stroke:#000;stroke-width:.170273;stroke-miterlimit:4;stroke-dasharray:none;stroke-opacity:1" transform="matrix(.76945 0 0 .7845 -29.17 -58.592)"/><path d="M82.32 35.934c-.212.246-.422.493-.636.737a9.46 9.46 0 0 1-.228.249l-.12-.06c.083-.083.162-.172.23-.245.213-.243.423-.489.63-.737z" style="display:inline;fill:#000;fill-opacity:1;stroke:#000;stroke-width:.170273;stroke-miterlimit:4;stroke-dasharray:none;stroke-opacity:1" transform="matrix(.76945 0 0 .7845 -29.17 -58.592)"/><path d="M81.116 36.337c.148.154.307.297.462.445.09.086.165.164.253.251.078.082.158.163.247.233l-.132.026a4.516 4.516 0 0 1-.245-.238c-.236-.236-.481-.461-.718-.695z" style="display:inline;fill:#000;fill-opacity:1;stroke:#000;stroke-width:.170273;stroke-miterlimit:4;stroke-dasharray:none;stroke-opacity:1" transform="matrix(.76945 0 0 .7845 -29.17 -58.592)"/></g><g style="stroke-width:1.29315"><path d="M83.01 36.51c.269.264.602.603.864.874l.087.09-.131.02-.086-.09a31.58 31.58 0 0 0-.868-.872z" style="display:inline;fill:#000;fill-opacity:1;stroke:#000;stroke-width:.171073;stroke-miterlimit:4;stroke-dasharray:none;stroke-opacity:1" transform="matrix(.76856 0 0 .77808 -28.78 -58.168)"/><path d="m83.504 37.023-.037.045c-.087.095-.182.183-.274.273-.165.162-.095.092-.258.26a4.825 4.825 0 0 0-.214.238.652.652 0 0 0-.09.125l-.122-.064c.024-.042.06-.08.091-.118a5.25 5.25 0 0 1 .217-.239c.167-.173.09-.095.258-.262.09-.09.184-.176.27-.269l.035-.043z" style="display:inline;fill:#000;fill-opacity:1;stroke:#000;stroke-width:.171073;stroke-miterlimit:4;stroke-dasharray:none;stroke-opacity:1" transform="matrix(.76856 0 0 .77808 -28.78 -58.168)"/></g><g style="stroke-width:1.28665"><path d="M84.253 37.645a.961.961 0 0 0-.34.37c-.025.049-.039.102-.057.153-.005.053-.018.105-.015.158.01.174.079.255.226.345.019.012.06.02.079.023a.715.715 0 0 0 .331-.068c.1-.043.21-.118.263-.216.007-.01.008-.024.011-.037l.13.037c-.007.018-.01.038-.017.052a.628.628 0 0 1-.282.244.866.866 0 0 1-.174.063.674.674 0 0 1-.183.021.61.61 0 0 1-.398-.178.485.485 0 0 1-.115-.311c-.003-.057.011-.114.017-.17.02-.056.035-.113.06-.165.07-.14.193-.284.32-.376l.028-.015z" style="fill:#000;fill-opacity:1;stroke:#000;stroke-width:.170213;stroke-miterlimit:4;stroke-dasharray:none;stroke-opacity:1" transform="matrix(.7754 0 0 .77902 -29.129 -57.965)"/><path d="M84.026 38.652c-.117.116-.237.233-.325.374-.007.014-.009.019-.009.026l-.134-.022a.158.158 0 0 1 .018-.054c.089-.145.211-.264.33-.385z" style="fill:#000;fill-opacity:1;stroke:#000;stroke-width:.170213;stroke-miterlimit:4;stroke-dasharray:none;stroke-opacity:1" transform="matrix(.7754 0 0 .77902 -29.129 -57.965)"/></g><path d="M30.869-41.24a34.6 34.6 0 0 1-.49-.605 16.143 16.143 0 0 0-1.448-1.615c-.547-.533-1.405-1.219-1.934-1.611a7.496 7.496 0 0 0-.603-.398" style="fill:none;fill-opacity:1;stroke:#00f;stroke-width:.396875;stroke-dasharray:none;stroke-opacity:1"/><path d="M28.976-42.303c.071.077.08.086.1.098.314.261.639.514.991.723.154.09.308.177.469.253.016.008.175.086.202.075.11-.042.17-.048.18-.121.004-.036.012-.072.012-.109a.824.824 0 0 0-.047-.189c-.063-.183-.137-.363-.205-.544-.128-.314-.263-.625-.391-.94" style="fill:none;fill-opacity:1;stroke:#00f;stroke-width:.396875;stroke-dasharray:none;stroke-opacity:1"/><path d="M56.234 118.052v34.131" style="fill:none;fill-opacity:1;stroke:#000;stroke-width:.396876;stroke-dasharray:none;stroke-opacity:1"/><g style="stroke-width:.906252"><path d="M55.189 53.13a2.21 2.21 0 0 0-.458.381c-.042.047-.08.097-.119.146-.132.189-.234.406-.191.642.022.122.054.16.112.264a.978.978 0 0 0 .392.334c.034.014.018.008.047.018l.045-.065v0c-.025-.007-.011-.003-.041-.014a.896.896 0 0 1-.372-.306c-.054-.095-.084-.13-.105-.24-.042-.223.06-.426.185-.602.04-.047.076-.096.117-.14a2.01 2.01 0 0 1 .449-.366zM55.976 53.627c-.143-.053-.302.007-.435.063a.555.555 0 0 0-.3.35c-.007.029-.007.058-.011.087.003.029.004.058.01.086.031.127.126.215.24.27.033.015.068.025.101.038.173.053.356.06.532.021.042-.01.083-.022.124-.034.18-.074.242-.16.281-.346a.48.48 0 0 0-.1-.355c-.017-.02-.036-.037-.054-.056a.793.793 0 0 0-.38-.162c-.085.004-.037-.003-.142.028l.056.056v0c.014-.019.002-.006.05-.013a.723.723 0 0 1 .351.137c.017.016.034.031.05.049a.406.406 0 0 1 .09.31c-.036.165-.095.235-.255.294a.96.96 0 0 1-.556.008c-.137-.049-.27-.103-.31-.258-.006-.024-.006-.048-.01-.072.004-.025.004-.05.01-.075.036-.144.153-.246.281-.309.101-.04.215-.087.325-.057zM57.023 54.485a1.492 1.492 0 0 1-.296.352c-.063.054-.033.03-.09.07l.065.044v0c.06-.045.029-.02.094-.076.117-.11.227-.23.304-.371zM58.302 53.548a1 1 0 0 0-.409.146c-.027.018-.052.039-.078.058-.095.091-.193.202-.212.338-.004.025-.002.05-.003.075a.445.445 0 0 0 .212.35c.03.018.063.03.094.045.162.051.341.092.512.06.043-.008.084-.022.126-.033a.613.613 0 0 0 .315-.312c.01-.026.014-.053.02-.08a.54.54 0 0 0-.082-.37c-.016-.024-.037-.045-.056-.067-.136-.12-.303-.2-.473-.263l-.046.064v0c.162.056.32.134.453.243.017.019.036.036.05.056.07.095.088.215.076.33-.006.022-.01.045-.018.066a.538.538 0 0 1-.292.275c-.174.057-.363.021-.535-.03-.028-.012-.059-.022-.086-.037a.373.373 0 0 1-.19-.302c0-.02-.002-.042.001-.062.019-.124.113-.222.2-.303a.873.873 0 0 1 .397-.172zM59.091 53.082c.177.117.3.293.412.47.102.184.21.382.222.597.003.036-.002.071-.003.107-.025.175-.135.3-.263.411l-.038.035.069.039v0l.038-.035c.14-.128.247-.26.273-.455 0-.039.004-.077.002-.116-.015-.223-.124-.428-.23-.62-.117-.182-.243-.364-.425-.488z" style="fill:#fff6d5;fill-opacity:1;stroke:#000;stroke-width:.191824;stroke-linecap:square;stroke-dasharray:none;stroke-opacity:1" transform="matrix(1.09976 0 0 1.10714 -6.022 -8.038)"/></g><path d="M63.24 51.437c1.093.679 2.395 1.576 3.647 2.313 1.516.88 2.988 1.827 4.454 2.783.916.598 1.845 1.178 2.769 1.764.145.092.286.191.434.278" style="display:inline;fill:none;stroke:red;stroke-width:.608542;stroke-dasharray:none"/><path d="M60.748 49.867c.731.4 1.459.943 2.173 1.374l.32.196" style="display:inline;fill:none;stroke:red;stroke-width:.635;stroke-dasharray:none"/><path d="M26.207-11.279h25.646" style="fill:none;fill-opacity:1;stroke:#f0f;stroke-width:.423333;stroke-linecap:square;stroke-dasharray:none"/><path d="M57.138-6.296h7.584M37.964-18.546l.828.462.829.461 2.484 1.385 2.485 1.384" style="fill:none;fill-opacity:1;stroke:#f0f;stroke-width:.423337;stroke-linecap:butt;stroke-dasharray:none"/></g><g style="display:inline"><path d="M78.392 57.773c-.122.388-.393.993-.578 1.354-.434.824-.857 1.73-1.346 2.399-.142.23-.305.356-.447.586" style="fill:none;fill-opacity:1;stroke:red;stroke-width:.396875;stroke-dasharray:none;stroke-opacity:1"/><path d="M76.293 60.676c-.032.184-.09.363-.149.54-.12.333-.246.664-.388.988-.023.055-.09.171-.045.226.052.064.104-.022.22-.087.23-.12.327-.223.606-.397.219-.137.334-.238.559-.418.045-.036.212-.187.259-.231M77.627 50.797c.367-1.59.177-3.288-.236-4.852-.447-1.852-.862-3.982-2.046-5.495-1.359-2.092-3.793-4.418-6.01-5.545-2.541-1.293-4.876-1.862-7.78-2.154-1.668-.164-3.687.084-5.46.56-2.841.762-5.562 2.33-7.603 4.518-1.618 1.736-2.627 3.543-3.59 5.717-.855 1.935-1.09 3.128-1.283 4.86-.018.158.002.825.006 1.254.05 1.674.193 4.002.562 5.45.59 2.318 1.657 4.15 3.308 6.014 1.306 1.475 3.179 2.86 4.942 3.707a19.056 19.056 0 0 0 6.776 1.844c1.987.172 4.278.09 6.215-.379 2.392-.579 4.686-1.659 6.603-3.133 2.236-1.719 3.89-4.15 4.762-6.916.464-1.473 1.012-3.897.719-5.895-.288-1.965-.04-.114-.063-.17-.02-.053-.065-.157-.065-.157" style="fill:none;fill-opacity:1;stroke:red;stroke-width:.396875;stroke-dasharray:none;stroke-opacity:1"/><g style="stroke:#f0f;stroke-width:.983722"><path d="M72.328 61.58c-.068.329-.317.963-.485 1.331-.341.747-.833 1.683-1.42 2.42-.168.213-.32.452-.466.588" style="fill:none;fill-opacity:1;stroke:#f0f;stroke-width:.390414;stroke-dasharray:none;stroke-opacity:1" transform="matrix(.01548 1.02018 -1.0127 .01536 118.41 -12.165)"/><path d="M70.23 64.482c-.033.185-.091.363-.15.541-.12.333-.247.664-.388.988-.023.055-.09.171-.046.226.053.063.105-.023.221-.087.23-.121.327-.223.606-.398.219-.136.334-.237.559-.417.045-.036.212-.187.259-.231" style="fill:none;fill-opacity:1;stroke:#f0f;stroke-width:.390414;stroke-dasharray:none;stroke-opacity:1" transform="matrix(.01548 1.02018 -1.0127 .01536 118.41 -12.165)"/></g><path d="M60.735 61.207c-.345-.01-.656-.037-1.158-.052-.325-.008-.836-.11-1.156-.177-.603-.107-1.184-.312-1.748-.548a10.118 10.118 0 0 1-1.475-.793c-.868-.572-1.616-1.165-2.308-1.722-.381-.326-.727-.741-1.125-1.233-.166-.205-.394-.501-.553-.697a9.796 9.796 0 0 1-.978-1.415c-.227-.392-.382-.768-.558-1.186-.04-.096-.247-.842-.282-.94-.195-.561-.135-.666-.238-1.253a6.409 6.409 0 0 1-.037-1.617M71.82 49.323c.027.13.055.261.066.395.041.363.052.728.046 1.093-.002.398-.003.798-.037 1.195-.046.429-.117.855-.21 1.275-.115.464-.23.928-.392 1.378-.141.467-.388.886-.622 1.314-.29.51-.522.88-.858 1.236-.315.437-.977 1.007-1.688 1.548-.617.374-1.28.812-1.836 1.047-.667.369-1.486.606-2.213.827a9.575 9.575 0 0 1-2.09.441c-.469.06-.938.11-1.25.133" style="fill:none;fill-opacity:1;stroke:#f0f;stroke-width:.396875;stroke-linecap:butt;stroke-dasharray:none"/><path d="M56.437 14.566a507.62 507.62 0 0 1 0 1.22c0 .058-.01.056.023.103l.017.004c.04.004.09-.007.128-.01.162-.016.044-.006.23-.021.294-.028.589-.046.883-.06.073-.003.144-.012.215-.024" style="fill:none;fill-opacity:1;stroke:#000;stroke-width:.35818;stroke-dasharray:none;stroke-opacity:1"/><path d="M57.403 14.86c.012.292.027.583.047.874.018.255.03.51.04.764 0 .039.003.077.002.116M24.191 53.587c.204-.022.41-.022.615-.025.169 0 .338-.008.506-.024l.04-.005" style="fill:none;fill-opacity:1;stroke:#000;stroke-width:.35818;stroke-dasharray:none;stroke-opacity:1"/><path d="m26.025 52.527.007.061c.012.092.023.175.021.268l-.007.285a4.667 4.667 0 0 1-.029.491c-.011.047-.003.072.054.066a6.907 6.907 0 0 1 1.212-.162l.014-.001" style="fill:none;fill-opacity:1;stroke:#000;stroke-width:.35818;stroke-linecap:square;stroke-dasharray:none;stroke-opacity:1"/><path d="m26.926 54.28-.01-.07a7.762 7.762 0 0 1-.046-.564c-.012-.252-.01-.505-.039-.756" style="fill:none;fill-opacity:1;stroke:#000;stroke-width:.35818;stroke-linecap:square;stroke-dasharray:none;stroke-opacity:1"/><path d="M94.149 52.35c.002.17-.005.339-.016.507a22.14 22.14 0 0 1-.056.58c-.007.068-.023.05.022.103.125-.019.252-.028.378-.037.234-.008.468-.005.701 0l.048-.002" style="fill:none;fill-opacity:1;stroke:#000;stroke-width:.377031;stroke-linecap:square;stroke-dasharray:none;stroke-opacity:1"/><path d="M95.047 54.115c-.007-.023-.009-.047-.013-.07a5.792 5.792 0 0 1-.054-.567 6.72 6.72 0 0 0-.058-.652" style="fill:none;fill-opacity:1;stroke:#000;stroke-width:.377031;stroke-linecap:square;stroke-dasharray:none;stroke-opacity:1"/><path d="M54.982 83.864c.154-.019.308-.027.463-.036.188-.007.376-.016.563-.035l.06-.007M57.061 82.531c-.015.18-.019.361-.023.542-.003.154.001.309-.016.462-.006.05-.019.123-.027.173-.013.071-.026.143-.044.214.004.026.125.035.237.016l.068-.011c.27-.032.402-.032.673-.038.099-.002.197-.004.296-.004" style="fill:none;fill-opacity:1;stroke:#000;stroke-width:.358179;stroke-linecap:square;stroke-dasharray:none;stroke-opacity:1"/><path d="M57.74 83.056c.053.218.1.437.133.659.038.242.066.485.083.729.002.053.008.106.007.158 0 .005 0 0 0 0l.08.003v-.008c0-.055-.005-.109-.008-.163a9.146 9.146 0 0 0-.084-.734 8.042 8.042 0 0 0-.133-.661z" style="fill:none;fill-opacity:1;stroke:#000;stroke-width:.358179;stroke-dasharray:none;stroke-opacity:1"/><path d="M41.534 51.279h3.936v3.969h-3.936z" style="fill:#fff6d5;fill-opacity:1;stroke:#000;stroke-width:.211667;stroke-dasharray:none;stroke-opacity:1"/><path d="M41.958 53.535c.214.002.428 0 .642-.008a6.5 6.5 0 0 0 .561-.034l.053-.007M-7.747 56.595a.66.66 0 0 0 .22.18c.036.015.071.032.109.044.249.08.512.065.758-.02.04-.017.08-.033.118-.053.111-.062.221-.16.234-.294.002-.026-.003-.053-.004-.08-.007-.03-.01-.06-.02-.089a.933.933 0 0 0-.358-.46 1.245 1.245 0 0 0-.308-.148.348.348 0 0 0-.166-.02c-.001.017-.008.034-.003.05.002.006.01-.005.015-.008l.047-.021c.083-.04.165-.08.237-.137.028-.025.06-.047.085-.075.09-.096.151-.239.091-.368-.013-.028-.035-.05-.053-.075-.027-.02-.051-.042-.08-.058a.841.841 0 0 0-.48-.08c-.057.006-.112.02-.168.03-.165.046-.342.097-.465.222" style="fill:none;fill-opacity:1;stroke:#000;stroke-width:.396875;stroke-dasharray:none;stroke-opacity:1"/><path d="M75.712 51.279h3.936v3.969h-3.936z" style="fill:#fff6d5;fill-opacity:1;stroke:#000;stroke-width:.211667;stroke-dasharray:none;stroke-opacity:1"/><path d="M128.733 56.406c.006.086.024.1.09.16.03.02.06.042.09.06.227.13.49.19.751.178.061-.013.124-.022.184-.04.158-.046.315-.143.393-.293.015-.03.023-.064.034-.095.003-.034.01-.067.008-.1a.617.617 0 0 0-.192-.383c-.028-.029-.062-.052-.093-.078-.035-.02-.07-.043-.105-.062a1.43 1.43 0 0 0-.472-.144c-.007.001-.015.001-.022.004-.004.003-.012.015-.01.012.06-.064.14-.102.21-.155.108-.08.268-.186.29-.333.003-.025-.003-.05-.004-.076-.013-.02-.021-.045-.039-.062-.094-.093-.292-.103-.414-.09-.057.007-.114.022-.17.033-.046.015-.093.026-.137.044a.852.852 0 0 0-.397.297" style="fill:none;fill-opacity:1;stroke:#000;stroke-width:.396875;stroke-dasharray:none;stroke-opacity:1"/><path d="M55.232 64.758h3.936v3.969h-3.936z" style="fill:#fff6d5;fill-opacity:1;stroke:#000;stroke-width:.211667;stroke-dasharray:none;stroke-opacity:1"/><path d="M56.725 66.819c-.048.01-.097.014-.145.02a5.12 5.12 0 0 1-.57.008c-.135-.003-.271-.007-.406.004" style="fill:none;fill-opacity:1;stroke:#000;stroke-width:.396876;stroke-dasharray:none;stroke-opacity:1"/><path d="M57.184 104.096c.03.05.01.024.063.072.024.015.046.032.07.045.222.117.474.143.72.116.186-.041.444-.084.487-.313.006-.03.003-.062.004-.094-.007-.032-.01-.066-.02-.098-.065-.208-.232-.371-.396-.504-.038-.024-.075-.05-.115-.073-.131-.072-.335-.1-.428-.124-.03 0-.034.036-.007.039.08-.013.187-.098.28-.146.122-.072.34-.194.302-.37-.005-.026-.023-.048-.034-.071-.023-.019-.042-.041-.067-.056-.167-.102-.41-.098-.594-.066-.17.03-.373.095-.483.222" style="fill:none;fill-opacity:1;stroke:#000;stroke-width:.396875;stroke-dasharray:none;stroke-opacity:1"/><path d="M55.232 30.677h3.936v3.969h-3.936z" style="fill:#fff6d5;fill-opacity:1;stroke:#000;stroke-width:.211667;stroke-dasharray:none;stroke-opacity:1"/><path d="M-6.72 34.634c.116-.133.29-.192.452-.248.145-.031.302-.078.447-.02.055.02.108.068.1.132a.6.6 0 0 1-.184.313c-.098.086-.212.15-.324.215l-.006.01-.005.011c.03.084.133.045.197.084.242.097.435.241.572.46.068.12.144.254.122.397-.02.107-.13.154-.223.187-.23.08-.612.118-.853.023-.1-.04-.218-.094-.264-.201" style="fill:none;fill-opacity:1;stroke:#000;stroke-width:.396875;stroke-dasharray:none;stroke-opacity:1"/><path d="M43.252 52.93s.322-.148.488-.206c.111-.04.224-.076.34-.098.108-.02.221-.05.332-.058.07-.005.147-.012.212.017a.13.13 0 0 1 .07.087.258.258 0 0 1-.024.173c-.069.13-.171.23-.27.338-.162.174-.376.359-.537.5-.137.12-.31.222-.382.39-.004.008-.007.02-.001.027.01.011.03.003.045.002.12-.008.236-.042.355-.058.117-.015.236-.026.354-.035.166-.012.333-.02.5-.025.046-.002.14-.002.14-.002" style="display:inline;fill:none;stroke:#000;stroke-width:.370417;stroke-dasharray:none;stroke-opacity:1"/><path d="M56.35 32.255s.353-.143.535-.198a2.48 2.48 0 0 1 .37-.09c.118-.016.241-.043.36-.046.077-.003.16-.006.229.028a.14.14 0 0 1 .072.096.278.278 0 0 1-.035.185c-.08.136-.195.24-.307.35-.182.18-.42.369-.601.514-.152.122-.345.223-.43.4-.003.01-.008.022-.001.03.01.012.032.004.048.004.13-.004.256-.035.385-.046.127-.011.255-.017.383-.021.18-.006.36-.007.54-.005.05 0 .15.005.15.005" style="display:inline;fill:none;stroke:#000;stroke-width:.396876;stroke-dasharray:none;stroke-opacity:1"/><path d="M76.983 52.945c.194-.162.408-.302.644-.405.045-.02.091-.036.137-.054.046-.014.351-.122.378 0 .004.02-.002.04-.003.06-.01.03-.019.061-.031.09-.113.26-.298.495-.466.718-.163.214-.35.408-.549.59l-.093.082c-.005.004-.02.008-.014.012.005.003.012.004.018.006.223-.054.46-.064.696-.073.344-.007.692.007 1.042.043l.088.011" style="display:inline;fill:none;stroke:#000;stroke-width:.370417;stroke-dasharray:none"/><path d="M58.762 67.536a6.292 6.292 0 0 0-.753-.09c-.297-.01-.598-.014-.89.05-.028.007-.083.011-.1.04-.002.003.005-.002.008-.003l.04-.027c.152-.112.293-.238.429-.369.235-.224.483-.487.689-.777.05-.071.2-.29.133-.388-.03-.043-.076-.051-.123-.06a1.448 1.448 0 0 0-.794.135c-.19.09-.363.197-.504.358" style="display:inline;fill:none;stroke:#000;stroke-width:.370416;stroke-dasharray:none"/><path d="m57.887 52.86.789 1.006 1.5-2.382-1.355-.8-1.209.43 1.015.634z" style="fill:#fff;fill-opacity:1;stroke:none;stroke-width:.396875;stroke-linecap:butt;stroke-dasharray:none"/><path d="M59.305 51.816c.41-.644.687-1.143 1.09-1.793.062-.102.13-.201.19-.306" style="display:inline;fill:none;stroke:#f0f;stroke-width:.687917;stroke-dasharray:none"/><path d="M54.6 59.437c.274-.514.647-1.026.942-1.528l.134-.225c.465-.768 1.08-1.683 1.585-2.563.602-1.066 1.392-2.276 2.047-3.307" style="display:inline;fill:none;stroke:#f0f;stroke-width:.661458;stroke-dasharray:none"/><path d="M142.061 65.147c-.034-.017-.063-.044-.095-.065a15.474 15.474 0 0 0-1.052-.685c-.175-.106-.347-.218-.526-.316" style="fill:#fff;fill-opacity:.674051;stroke:#f0f;stroke-width:.396876;stroke-linecap:square;stroke-dasharray:none"/><path d="M135.692 74.007c.057-.147.135-.282.213-.416.138-.237.277-.475.418-.71.186-.313.364-.632.55-.946.195-.321.386-.646.577-.97.183-.318.374-.63.564-.943.242-.397.473-.8.715-1.198.213-.345.424-.692.629-1.044.195-.344.396-.684.603-1.019.148-.238.297-.475.441-.716.133-.225.26-.456.382-.689.09-.164.176-.33.268-.493" style="fill:#fff;fill-opacity:.674051;stroke:#f0f;stroke-width:.396875;stroke-linecap:square;stroke-dasharray:none"/><path d="M134.352 73.558c.194.122.391.236.593.344.389.216.78.429 1.168.645.225.122.444.253.669.376l.056.033" style="fill:#fff;fill-opacity:.674051;stroke:#f0f;stroke-width:.396874;stroke-dasharray:none"/><path d="M78.84 66.568c-.033.18-.096.352-.158.522-.066.178-.14.353-.183.538-.002.016-.008.046 0 .063.03.071.158.037.213.03a44.628 44.628 0 0 1 1.256-.184c.046-.006.027-.006.056-.006" style="fill:none;fill-opacity:.674051;stroke:#f0f;stroke-width:.423333;stroke-linecap:square;stroke-dasharray:none" transform="translate(-42.284 -22.306)"/><path d="M79.69 68.291a20.272 20.272 0 0 1-.005-.206c-.004-.28-.004-.562-.019-.842-.009-.193-.014-.386-.037-.578" style="fill:none;fill-opacity:.674051;stroke:#f0f;stroke-width:.423333;stroke-linecap:square;stroke-dasharray:none" transform="translate(-42.284 -22.306)"/><path d="M39.543 43.977c-.031.04-.04.05-.073.097-.023.033-.137.209-.15.23l-.224.335c-.277.389-.532.792-.781 1.198-.102.156-.192.32-.289.479l-.01.015M40.034 45.915a.728.728 0 0 0 .778.186c.167-.056.325-.205.343-.383.014-.144-.01-.147-.09-.257-.105-.133-.277-.187-.436-.241-.032.004-.11.005-.12-.006l.002-.01c.132-.082.28-.143.39-.26a.277.277 0 0 0 .046-.374c-.072-.119-.23-.129-.367-.148-.15-.021-.301.033-.452.102a.6.6 0 0 0-.113.069" style="fill:none;fill-opacity:.674051;stroke:#f0f;stroke-width:.423333;stroke-linecap:square;stroke-dasharray:none"/><path d="m52.567 98.901.014 1.44 1.579-2.662-.897-.046z" style="fill:#fff6d5;fill-opacity:1;stroke:none;stroke-width:.396875;stroke-linecap:butt;stroke-dasharray:none"/><path d="m58.018 56.696-.293-.528-1.578 2.6.82-.294zM59.79 52.675l1.437.897.836-1.253-.82-.51h-.944z" style="fill:#fff6d5;fill-opacity:1;stroke:none;stroke-width:.396875;stroke-linecap:butt;stroke-dasharray:none" transform="translate(4.763 45.561)"/><path d="m60.234 51.763.006.963.654.425.03-.963z" style="fill:#fff;stroke:none;stroke-width:.132292;stroke-linecap:square;stroke-dasharray:none"/><path d="M60.65 38.3a10.89 10.89 0 0 0-.867.026c-.406.024-.875.072-1.338.112-.61.09-1.283.258-1.888.381-.64.16-1.258.458-1.86.733-.601.275-1.18.647-1.696 1.069-.537.44-1.1 1.014-1.432 1.391-.672.861-1.228 1.588-1.638 2.602a13.381 13.381 0 0 0-.663 2.492c-.064.522-.027 1.052-.151 1.568-.04.367-.043.736-.046 1.105" style="fill:none;fill-opacity:1;stroke:#f0f;stroke-width:.396875;stroke-linecap:butt;stroke-dasharray:none"/><path d="M71.98 49.757c-.002-.725-.093-1.022-.096-1.533-.078-.669-.308-2.132-.762-2.952-.546-1.11-1.104-2.068-2.168-3.21-.572-.514-1.236-1.198-1.88-1.627-.578-.384-1.114-.7-1.712-1.052-.542-.308-1.255-.458-1.852-.653a9.911 9.911 0 0 0-1.919-.368c-.368-.032-.739-.082-1.107-.03M42.216 45.27c.443.304.961.496 1.485.662.2.056.405.116.615.135.094.009.16.005.253.003.28-.014.557-.037.835-.007.342.047.651.179.948.33.216.113.414.228.604.366.189.136.377.268.5.416.314.38.358.431.401.603" style="fill:none;fill-opacity:1;stroke:#f0f;stroke-width:.396875;stroke-linecap:butt;stroke-dasharray:none"/><path d="M47.176 47.74c.07.066.62.56.686.622.062.056.124.111.187.165.021.019.04.045.066.052.03.008.061-.005.092-.007.032-.064.024-.131.025-.201.004-.185.007-.37.002-.553-.014-.359-.04-.716-.081-1.072" style="fill:none;fill-opacity:1;stroke:#f0f;stroke-width:.396875;stroke-linecap:square;stroke-dasharray:none"/><path d="M35.127 45.231c-.35.02-.702.042-1.05.092" style="fill:none;fill-opacity:1;stroke:#f0f;stroke-width:.423333;stroke-linecap:square;stroke-dasharray:none"/><path d="M55.197 55.473c.004.186-.005.372-.016.558-.036.382-.082.762-.122 1.143-.035.313-.067.626-.118.936-.022.135-.045.25-.07.384a8.311 8.311 0 0 1-.17.676c-.013.062-.006.085.084.06.014-.003.02-.02.03-.03.098-.106-.033.034.095-.103.214-.244.462-.455.712-.66.38-.315.78-.601 1.18-.888.237-.171.476-.338.716-.505" style="fill:none;fill-opacity:.674051;stroke:#f0f;stroke-width:.608542;stroke-linecap:square;stroke-dasharray:none"/><g style="stroke:#00b900;stroke-width:.94802;stroke-opacity:1"><path d="M44.504 63.574c.059-.092.135-.172.197-.262.071-.115.081-.224-.016-.33-.02-.022-.044-.039-.067-.058a.71.71 0 0 0-.451-.12c-.028.003-.056.01-.083.014-.087.025-.199.054-.224.154-.013.053.001.088.011.14.066.228.206.337.382.48.152.114.279.252.368.419.04.095.08.227-.001.316-.015.017-.036.028-.054.042a.8.8 0 0 1-.522.05c-.173-.059-.195-.1-.135-.266.083-.163.21-.297.34-.424M46.46 62.434c-.215.323-.407.66-.603.993-.25.416-.495.836-.747 1.25-.091.147-.05.079-.125.205" style="display:inline;fill:none;fill-opacity:1;stroke:#00b900;stroke-width:.376246;stroke-linecap:butt;stroke-dasharray:none;stroke-opacity:1" transform="matrix(1.05536 0 0 1.0543 16.536 -30.9)"/><path d="M47.709 62.827c-.039-.075-.17-.143-.288-.134-.033.003-.066.012-.098.018a1.164 1.164 0 0 0-.53.367c-.024.031-.044.066-.066.1-.055.115-.1.261-.017.377.049.067.08.066.155.094a.831.831 0 0 0 .62-.195c.03-.026.054-.058.08-.086.077-.087.116-.194.165-.297l.035-.006c.021.027 0 .05 0 .078.003.093.009.187.013.28.006.278.037.555.075.83.027.114.03.173.07.347" style="display:inline;fill:none;fill-opacity:1;stroke:#00b900;stroke-width:.376246;stroke-linecap:square;stroke-dasharray:none;stroke-opacity:1" transform="matrix(1.05536 0 0 1.0543 16.536 -30.9)"/></g><g style="stroke-width:.68791668;stroke-dasharray:none"><path d="M48.917 55.544c.308.177.612.413.913.602l.134.086c.46.299 1.005.69 1.532 1.015.638.388 1.256.803 1.871 1.222.385.261.775.516 1.163.773.061.04.12.084.183.122" style="display:inline;fill:none;stroke:#00b900;stroke-width:.68791668;stroke-dasharray:none;stroke-opacity:1" transform="translate(5.952 -9.577)"/><path d="M51.599 55.772a5.652 5.652 0 0 1-.776-.044c-.388-.06-.85-.108-1.277-.199-.28-.059-.555-.115-.823-.203a.193.193 0 0 1-.084-.042c-.003-.004-.004-.013-.01-.012-.028.009-.056.027-.083.04.122.086.194.242.3.348.312.395.619.797.89 1.234.172.269.443.723.558.915" style="fill:none;fill-opacity:1;stroke:#00b900;stroke-width:.687917;stroke-linecap:butt;stroke-dasharray:none;stroke-opacity:1" transform="translate(5.952 -9.577)"/></g><path d="m57.154 50.036 1.311.054.46-.709-1.347-.05z" style="fill:#fff;stroke:none;stroke-width:.142174;stroke-linecap:square;stroke-dasharray:none"/><path d="M58.822 48.596 57.55 50.5l3.614 2.342 1.214-1.887" style="fill:none;fill-opacity:1;stroke:#000;stroke-width:.396875;stroke-linecap:butt;stroke-dasharray:none"/><path d="M68.137 49.648c.03-.138.032-.394.015-.616-.01-.137-.034-.31-.05-.447a5.123 5.123 0 0 0-.208-.94c-.05-.16-.099-.32-.155-.478a7.53 7.53 0 0 0-.301-.722l-.116-.238c-.101-.195-.14-.273-.25-.463a6.654 6.654 0 0 0-.65-.924c-.063-.073-.124-.147-.188-.219a8.309 8.309 0 0 0-1.04-.991c-.406-.31-.822-.61-1.27-.856a9.14 9.14 0 0 0-1.104-.507 4.93 4.93 0 0 0-1.073-.227c-.26-.016-.472-.044-.62-.042-.167-.018-.49-.009-.597-.02-.447-.006-.881.002-1.32.095-.524.105-1.045.231-1.538.442-.488.213-.966.452-1.4.761-.074.054-.148.106-.22.162-.356.275-.684.587-1.001.906a9.529 9.529 0 0 0-.988 1.196c-.046.071-.094.141-.138.213-.213.343-.39.707-.549 1.078-.144.373-.275.75-.373 1.137a6.42 6.42 0 0 0-.196.99c-.008.098-.017.17-.016.267l-.046.544c0 .274-.002.134.006.422.015.215.014.28.05.496.065.385.182.76.322 1.125.104.251.138.344.257.59.198.408.435.795.692 1.169.176.247.211.303.4.54.285.358.599.693.925 1.014.438.421.893.827 1.4 1.164.195.129.261.177.46.296.28.17.572.321.869.461.376.164.763.304 1.16.411.29.073.516.098.818.11.183.007.388.019.581.014.158.003.293 0 .496-.017.39-.034.705-.11 1.085-.203.223-.058.406-.101.625-.169a7.83 7.83 0 0 0 1.128-.453c.21-.106.357-.178.562-.293a9.124 9.124 0 0 0 1.08-.719c.087-.07.175-.138.26-.209a8.871 8.871 0 0 0 1.169-1.175c.167-.217.23-.29.38-.518.217-.329.397-.68.54-1.045.03-.086.063-.171.092-.258.128-.385.214-.783.266-1.185.052-.382.103-.763.123-1.148.011-.219.029-.443-.02-.658" style="fill:none;fill-opacity:1;stroke:#00b900;stroke-width:.390941;stroke-linecap:square;stroke-dasharray:none;stroke-opacity:1"/><g style="stroke:#00b900;stroke-width:.983722;stroke-opacity:1"><path d="M72.328 61.58c-.068.329-.317.963-.485 1.331-.341.747-.833 1.683-1.42 2.42-.168.213-.32.452-.466.588" style="fill:none;fill-opacity:1;stroke:#00b900;stroke-width:.390414;stroke-dasharray:none;stroke-opacity:1" transform="matrix(-.83446 .01266 -.01257 -.82834 112.808 97.463)"/><path d="M70.23 64.482c-.033.185-.091.363-.15.541-.12.333-.247.664-.388.988-.023.055-.09.171-.046.226.053.063.105-.023.221-.087.23-.121.327-.223.606-.398.219-.136.334-.237.559-.417.045-.036.212-.187.259-.231" style="fill:none;fill-opacity:1;stroke:#00b900;stroke-width:.390414;stroke-dasharray:none;stroke-opacity:1" transform="matrix(-.83446 .01266 -.01257 -.82834 112.808 97.463)"/></g><path d="M49.15 104.641h9.322v3.05H49.15z" style="fill:#fff6d5;fill-opacity:1;stroke:#000;stroke-width:.178135;stroke-dasharray:none;stroke-opacity:1" transform="rotate(32.457 162.015 80.983) skewX(-.04)"/><g style="display:inline;stroke:#000;stroke-width:7.2317;stroke-dasharray:none;stroke-opacity:1"><path d="M4235.299 339.107c-.163 13.958-.081 27.907.368 41.857.25 6.723.458 13.447.656 20.171l-6.57 2.2c-.101-6.73-.295-13.458-.53-20.185-.447-13.965-.553-27.927-.522-41.899l6.598-2.144z" style="opacity:1;fill:#000;fill-opacity:1;stroke:#000;stroke-width:7.2317;stroke-linecap:butt;stroke-linejoin:miter;stroke-miterlimit:4;stroke-dasharray:none;stroke-dashoffset:0;stroke-opacity:1" transform="matrix(.0148 .00944 -.00926 .0145 -3.025 -1.722)"/><path d="M4224.548 334.863c17.345-.435 34.691-.75 52.039-1.014 3.763-.052 2.217-.033 4.637-.06l-4.095 5.637c-2.36-.026-.844-.014-4.549-.01-17.374.123-34.745.482-52.11 1.06l4.078-5.613zM4230.78 365.377c11.459-1.438 22.991-3.273 34.574-3.215a23.32 23.32 0 0 1 6.235.785l-4.566 5.245-1.579-.273c-12.881-.54-25.707 1.526-38.433 3.27zM4225.231 396.212c7.36.612 14.735-.296 22.082-.712 6.068-.361 12.138-.862 18.21-1.032 5.095.154 10.259-1.57 15.29-.146l-4.558 5.277c-5.464-.498-10.919.47-16.384.474-9.848.483-19.673 1.372-29.522 1.834-3.218.065-6.465.148-9.65-.393l4.532-5.302z" style="opacity:1;fill:#000;fill-opacity:1;stroke:#000;stroke-width:7.2317;stroke-linecap:butt;stroke-linejoin:miter;stroke-miterlimit:4;stroke-dasharray:none;stroke-dashoffset:0;stroke-opacity:1" transform="matrix(.0148 .00944 -.00926 .0145 -3.025 -1.722)"/></g><g style="display:inline;stroke:#000;stroke-width:7.90869;stroke-dasharray:none;stroke-opacity:1"><path d="M951.863 128.21c-4.345.88-8.591 1.01-13.031 1.144-9.605.29-19.211.232-28.818.443-14.443.437-28.902 1-43.194 3.295l-3.441 6.054c14.046-2.88 28.456-3.34 42.742-3.841 9.588-.256 19.178-.198 28.766-.42 4.465-.104 8.843-.24 13.27-.805z" style="fill:#000;fill-opacity:1;stroke:#000;stroke-width:7.90869;stroke-miterlimit:4;stroke-dasharray:none;stroke-opacity:1" transform="rotate(32.529 -34.222 92.132) scale(.01589)"/><path d="m925.207 131.244-6.531 2.317c.486 13.673 2.087 27.373 1.558 41.072-.11 2.86-.245 5.735-.734 8.554-1.095 6.313-3.499 12.659-9.744 14.354-6.853 1.86-9.658 2.333-16.567-.303-4.582-1.748-6.848-4.117-9.1-9.529-1.408-3.387-1.177-8.134-.407-11.625.327-1.486 1.036-2.862 1.554-4.293l-6.757 1.303c-.461 1.632-1.123 3.219-1.383 4.894-.66 4.255-.745 9.445 1.218 13.377 2.833 5.672 7.302 8.77 12.172 10.64 4.942 1.898 11.05 1.4 16.46.118 4.866-1.154 10.99-3.33 14.492-8.02 2.85-3.818 3.578-6.81 4.582-12.808.483-2.89.554-5.837.646-8.766.434-13.77-1.078-27.534-1.459-41.285z" style="fill:#000;fill-opacity:1;stroke:#000;stroke-width:7.90869;stroke-miterlimit:4;stroke-dasharray:none;stroke-opacity:1" transform="rotate(32.529 -34.222 92.132) scale(.01589)"/></g><g style="display:inline;stroke:#000;stroke-width:6.59759;stroke-dasharray:none;stroke-opacity:1"><path d="M829.816-3207.675c1.154 19.84 2.007 39.695 2.925 59.547l-7.21 2.764c-.2-19.802-.945-39.621-3.134-59.315l7.42-2.996z" style="fill:#000;fill-opacity:1;stroke:#000;stroke-width:6.59759;stroke-miterlimit:4;stroke-dasharray:none;stroke-opacity:1" transform="rotate(32.54 -143.22 63.629) scale(.01905)"/><path d="M818.373-3208.316c13.205.657 27.273-.78 39.398 5.596 4.508 2.398 4.67 8.575 1.846 12.47-4.962 6.846-12.596 10.865-19.734 14.935-6.046 3.05-14.233 6.334-18.822 7.734-4.018-.197-2.677-4.447.633-5.683 4.974-1.857 9.318-.036 13.111 2.445 19.37 9.96 36.87 18.046 56.828 26.75 1.777.776 3.821 1.436 5.241 2.182-2.518 1.868-5.156 5.016-6.057 5.374-1.635-.629-3.022-1.319-4.9-2.148-19.682-10.04-45.321-22.885-62.712-27.997-2.128-.805-3.784-.53-3.2-5.896 4.915-2.317 20.153-5.965 24.445-9.521 4.08-2.767 9.123-5.763 10.124-10.722 1.02-5.048-6.108-6.388-10.021-7.633-10.252-2.748-20.962-2.006-31.45-1.73 1.756-2.053 3.519-4.1 5.27-6.156z" style="fill:#000;fill-opacity:1;stroke:#000;stroke-width:6.59759;stroke-miterlimit:4;stroke-dasharray:none;stroke-opacity:1" transform="rotate(32.54 -143.22 63.629) scale(.01905)"/></g><g style="display:inline;stroke:#000;stroke-width:7.64836;stroke-dasharray:none;stroke-opacity:1"><path d="M-419.193 432.505c-.172 15.283-.052 30.559.363 45.836.495 9.673-.29 19.306-.747 28.952l-7.658 2.102c.28-6.643-.094 1.032.524-7.337.525-7.126.48-14.264.415-21.405-.418-15.295-.57-30.587-.527-45.888z" style="fill:#000;fill-opacity:1;stroke:#000;stroke-width:7.64836;stroke-miterlimit:4;stroke-dasharray:none;stroke-opacity:1" transform="rotate(32.525 -38.61 139.74) scale(.01643)"/><path d="M-381.99 436.768c-9.967 10.736-20.637 20.807-31.075 31.084-2.848 2.935-3.078 3.105-5.428 5.714-.309.343-.622.684-.908 1.047-.148.188-.156.558-.392.602-8.138 1.508-7.468 3.398-7.906-.438.965-3.5.37-2.73 7.304-4.336.714-.165 1.35.572 2.005.9 4.125 2.062 7.838 4.761 11.609 7.392 9.738 6.602 18.71 14.318 28.707 20.538 2.038 1.092 1.144.722 2.616 1.256l-5.533 5.749c-1.702-.885-.713-.347-2.943-1.66-9.892-6.448-18.978-14.045-28.753-20.667-3.42-2.323-5.188-3.67-8.666-5.562-.745-.405-1.51-.783-2.307-1.07-.304-.109-1.226.082-.962-.104 5.155-3.618 6.266-1.078 4.825-3.631-1.833-2.736-.123-.577-7.962 1.03-.136.028.293-.046.389-.145.36-.375.61-.844.945-1.24a64.405 64.405 0 0 1 2.05-2.3c1.139-1.223 2.311-2.415 3.467-3.623 10.392-10.165 20.895-20.233 30.95-30.732l7.968.196z" style="fill:#000;fill-opacity:1;stroke:#000;stroke-width:7.64836;stroke-miterlimit:4;stroke-dasharray:none;stroke-opacity:1" transform="rotate(32.525 -38.61 139.74) scale(.01643)"/></g><path d="M78.885 6.005h14.129v3.016H78.885z" style="fill:#fff6d5;fill-opacity:1;stroke:#000;stroke-width:.211667;stroke-dasharray:none;stroke-opacity:1" transform="rotate(32.281 1.14 .762)"/><g style="stroke-width:1.29585"><path d="M76.68 30.061c-.058.259-.105.52-.16.779-.05.24-.099.48-.145.72l-.128-.032.147-.72c.054-.26.1-.521.155-.78z" style="display:inline;fill:#000;fill-opacity:1;stroke:#000;stroke-width:.171431;stroke-linecap:butt;stroke-linejoin:miter;stroke-miterlimit:4;stroke-dasharray:none;stroke-dashoffset:0;stroke-opacity:1" transform="matrix(.7446 -.16732 .17108 .76133 2.616 38.204)"/><path d="M76.153 31.533c.184-.056.372-.1.559-.149.265-.072.533-.136.8-.201.097-.023.054-.014.13-.029l.101.088c-.074.011-.032.004-.127.025-.268.064-.536.127-.8.2l-.122.032-.112.03c-.108.029-.218.05-.323.088l-.106-.084z" style="display:inline;fill:#000;fill-opacity:1;stroke:#000;stroke-width:.171431;stroke-linecap:butt;stroke-linejoin:miter;stroke-miterlimit:4;stroke-dasharray:none;stroke-dashoffset:0;stroke-opacity:1" transform="matrix(.7446 -.16732 .17108 .76133 2.616 38.204)"/></g><g style="stroke-width:1.28831"><path d="M77.893 31.519c-.133.157-.287.295-.433.44-.12.118-.11.111-.219.23-.096.118-.052.062-.133.168l-.121-.055c.082-.108.037-.05.136-.171.109-.12.1-.114.22-.233.143-.142.294-.278.426-.432l.124.053z" style="display:inline;fill:#000;fill-opacity:1;stroke:#000;stroke-width:.170433;stroke-linecap:butt;stroke-linejoin:miter;stroke-miterlimit:4;stroke-dasharray:none;stroke-dashoffset:0;stroke-opacity:1" transform="matrix(.74989 -.1685 .17186 .76484 2.45 38.445)"/><path d="M77.8 31.382c.165.136.328.274.492.413.154.132.308.264.451.408l-.131.02a7.79 7.79 0 0 0-.448-.404c-.165-.14-.333-.276-.497-.417l.132-.02zM77.472 31.862c.168.163.346.316.523.471l.062.055-.13.023-.062-.055c-.176-.156-.355-.31-.525-.474l.132-.02zM77.04 32.283c.213.18.428.358.637.543.102.091.204.184.302.28l-.131.02a7.558 7.558 0 0 0-.299-.277 18.39 18.39 0 0 0-.639-.537z" style="display:inline;fill:#000;fill-opacity:1;stroke:#000;stroke-width:.170433;stroke-linecap:butt;stroke-linejoin:miter;stroke-miterlimit:4;stroke-dasharray:none;stroke-dashoffset:0;stroke-opacity:1" transform="matrix(.74989 -.1685 .17186 .76484 2.45 38.445)"/></g><path d="M69.02 51.083a.371.371 0 0 0-.207-.176c-.028-.01-.058-.018-.087-.027-.07-.013-.124-.028-.196-.024-.004 0-.004.01-.008.011-.031.01-.064.014-.095.024-.082.027-.09.039-.162.084-.082.068-.149.156-.14.268.005.075.023.098.054.167a.87.87 0 0 0 .34.323c.09.047.116.047.213.07.033 0 .067.007.1.002.007-.001.003-.016.009-.02.028-.017.063-.025.092-.043a.62.62 0 0 0 .165-.156c.022-.03.036-.065.054-.097.01-.034.022-.066.028-.1a.446.446 0 0 0-.104-.346c-.018-.022-.039-.041-.058-.062-.063-.054-.032-.03-.092-.07l.103-.04c.062.047.03.02.095.08.052.06.073.078.11.15.049.094.071.196.054.3-.006.038-.02.074-.03.11-.018.036-.033.074-.056.107a.713.713 0 0 1-.17.172c-.032.021-.063.045-.099.054-.13.034-.18.023-.297.012-.1-.028-.126-.03-.219-.082a.927.927 0 0 1-.346-.347c-.033-.078-.052-.104-.057-.189a.349.349 0 0 1 .085-.242c.02-.024.044-.043.065-.064.026-.018.05-.039.078-.055a.716.716 0 0 1 .19-.071.94.94 0 0 1 .39.023c.03.011.062.02.091.033a.451.451 0 0 1 .217.198l-.11.023z" style="display:inline;fill:#000;fill-opacity:1;stroke:#000;stroke-width:.132292;stroke-linecap:butt;stroke-linejoin:miter;stroke-miterlimit:4;stroke-dasharray:none;stroke-dashoffset:0;stroke-opacity:1" transform="rotate(.56 50.553 59.432)"/><g style="stroke-width:1.30121"><path d="M79.08 32.453c-.1.121-.211.231-.32.345l-.256.274c-.147.158-.227.231-.377.386-.037.04-.018.023-.13-.052.115-.1.158-.14.39-.392l.256-.275c.105-.112.215-.22.313-.34z" style="display:inline;fill:#000;fill-opacity:1;stroke:#000;stroke-width:.17214;stroke-miterlimit:4;stroke-dasharray:none;stroke-opacity:1" transform="matrix(.73657 -.16551 .17152 .7633 3.716 38.434)"/><path d="M78.779 33.961a17.17 17.17 0 0 0-.638-.583l-.132.028c.222.182.432.38.64.578.04.04.083.078.125.116l.135-.019c-.048-.04-.093-.084-.13-.12z" style="display:inline;fill:#000;fill-opacity:1;stroke:#000;stroke-width:.17214;stroke-miterlimit:4;stroke-dasharray:none;stroke-opacity:1" transform="matrix(.73657 -.16551 .17152 .7633 3.716 38.434)"/></g><path d="M70.394 51.973c.098-.041-.165-.121-.207-.125a.839.839 0 0 0-.146 0 .592.592 0 0 0-.329.149c-.026.026-.044.06-.067.089-.01.033-.026.065-.029.1-.015.174.119.328.24.432.034.028.082.061.12.084a.47.47 0 0 0 .167.07l.022.07c-.062.002-.08-.006-.126-.022a.861.861 0 0 1-.16-.082c-.037-.026-.086-.058-.12-.088-.134-.12-.263-.284-.245-.477a.337.337 0 0 1 .103-.214.534.534 0 0 1 .101-.079c.168-.105.336-.115.527-.086.031.005.21.087.246.123.039.04.011.087-.028.104z" style="display:inline;fill:#000;fill-opacity:1;stroke:#000;stroke-width:.132292;stroke-miterlimit:4;stroke-dasharray:none;stroke-opacity:1" transform="rotate(.56 50.553 59.432)"/><g style="stroke-width:1.2871"><path d="M81.943 35.46c.266.25.53.502.783.765l.033.037-.133.019-.032-.036c-.25-.265-.516-.515-.784-.762z" style="display:inline;fill:#000;fill-opacity:1;stroke:#000;stroke-width:.170273;stroke-miterlimit:4;stroke-dasharray:none;stroke-opacity:1" transform="matrix(.75073 -.1687 .172 .76541 3.485 39.103)"/><path d="M82.32 35.934c-.212.246-.422.493-.636.737a9.46 9.46 0 0 1-.228.249l-.12-.06c.083-.083.162-.172.23-.245.213-.243.423-.489.63-.737z" style="display:inline;fill:#000;fill-opacity:1;stroke:#000;stroke-width:.170273;stroke-miterlimit:4;stroke-dasharray:none;stroke-opacity:1" transform="matrix(.75073 -.1687 .172 .76541 3.485 39.103)"/><path d="M81.116 36.337c.148.154.307.297.462.445.09.086.165.164.253.251.078.082.158.163.247.233l-.132.026a4.516 4.516 0 0 1-.245-.238c-.236-.236-.481-.461-.718-.695z" style="display:inline;fill:#000;fill-opacity:1;stroke:#000;stroke-width:.170273;stroke-miterlimit:4;stroke-dasharray:none;stroke-opacity:1" transform="matrix(.75073 -.1687 .172 .76541 3.485 39.103)"/></g><g style="stroke-width:1.29315"><path d="M83.01 36.51c.269.264.602.603.864.874l.087.09-.131.02-.086-.09a31.58 31.58 0 0 0-.868-.872z" style="display:inline;fill:#000;fill-opacity:1;stroke:#000;stroke-width:.171073;stroke-miterlimit:4;stroke-dasharray:none;stroke-opacity:1" transform="matrix(.74986 -.1685 .17059 .75915 3.958 39.432)"/><path d="m83.504 37.023-.037.045c-.087.095-.182.183-.274.273-.165.162-.095.092-.258.26a4.825 4.825 0 0 0-.214.238.652.652 0 0 0-.09.125l-.122-.064c.024-.042.06-.08.091-.118a5.25 5.25 0 0 1 .217-.239c.167-.173.09-.095.258-.262.09-.09.184-.176.27-.269l.035-.043z" style="display:inline;fill:#000;fill-opacity:1;stroke:#000;stroke-width:.171073;stroke-miterlimit:4;stroke-dasharray:none;stroke-opacity:1" transform="matrix(.74986 -.1685 .17059 .75915 3.958 39.432)"/></g><g style="stroke-width:1.28665"><path d="M84.253 37.645a.961.961 0 0 0-.34.37c-.025.049-.039.102-.057.153-.005.053-.018.105-.015.158.01.174.079.255.226.345.019.012.06.02.079.023a.715.715 0 0 0 .331-.068c.1-.043.21-.118.263-.216.007-.01.008-.024.011-.037l.13.037c-.007.018-.01.038-.017.052a.628.628 0 0 1-.282.244.866.866 0 0 1-.174.063.674.674 0 0 1-.183.021.61.61 0 0 1-.398-.178.485.485 0 0 1-.115-.311c-.003-.057.011-.114.017-.17.02-.056.035-.113.06-.165.07-.14.193-.284.32-.376l.028-.015z" style="fill:#000;fill-opacity:1;stroke:#000;stroke-width:.170213;stroke-miterlimit:4;stroke-dasharray:none;stroke-opacity:1" transform="matrix(.75654 -.17 .1708 .76007 3.662 39.706)"/><path d="M84.026 38.652c-.117.116-.237.233-.325.374-.007.014-.009.019-.009.026l-.134-.022a.158.158 0 0 1 .018-.054c.089-.145.211-.264.33-.385z" style="fill:#000;fill-opacity:1;stroke:#000;stroke-width:.170213;stroke-miterlimit:4;stroke-dasharray:none;stroke-opacity:1" transform="matrix(.75654 -.17 .1708 .76007 3.662 39.706)"/></g><path d="M70.437 57.497c1.027.365 2.086.623 3.149.861.604.153.49.116 1.022.28.097.03.193.06.288.092.063.02.123.08.186.065.446-.11.052.06-.047-.143-.505-.493-1.035-.96-1.506-1.487a145.11 145.11 0 0 1-1.836-1.953" style="display:inline;fill:none;stroke:red;stroke-width:.608542;stroke-dasharray:none"/><path d="M63.337 40.316a1.99 1.99 0 0 1-.242.359 4.665 4.665 0 0 1-.514.511c-.057.052-.12.096-.179.145-.008.007-.042.035-.044.05-.002.014.005.027.007.04.014.007.027.017.042.02.032.006.165-.023.195-.028.109-.016.122-.016.236-.027.303-.025.607-.029.91-.033l.3-.001.03-.073v0c-.1 0-.2 0-.3.002-.305.003-.61.008-.915.03-.109.01-.217.023-.325.04l-.063.01c-.012.003-.025.001-.036.008-.005.003-.002.011-.003.017-.001.008-.007.016-.003.022.002.004.005-.008.009-.011a.47.47 0 0 1 .027-.024c.06-.05.122-.096.18-.148.185-.161.362-.332.52-.52.092-.12.187-.24.247-.38z" style="fill:none;fill-opacity:1;stroke:#00b900;stroke-width:.396875;stroke-linecap:square;stroke-dasharray:none;stroke-opacity:1"/><path d="M65.073 37.868c-.632.67.144 1.178.163 1.77.01.312-.271.691-.52.82-.253.131-.64.305-.858.362-.288.076-.65.285-.78.263-.05.048-.099.098-.142.153" style="fill:none;fill-opacity:1;stroke:#00b900;stroke-width:.403191;stroke-linecap:square;stroke-dasharray:none;stroke-opacity:1"/><g style="display:inline"><path d="M106.593 117.11h21.431v3.015h-21.431z" style="fill:#fff6d5;fill-opacity:1;stroke:#000;stroke-width:.209895;stroke-linecap:square;stroke-dasharray:none;stroke-opacity:1" transform="rotate(-57.725 31.238 150.177)"/><g style="display:inline;stroke-width:6.64887;stroke-dasharray:none"><path d="M4523.862 338.493c-.448.934-.86 1.887-1.345 2.803-2.9 5.475-6.36 10.685-9.721 15.878-14.808 22.87 5.14-8.169-10.626 16.407-6.08 9.93-11.95 19.996-17.318 30.33l-6.875.838c5.481-10.385 11.406-20.531 17.472-30.584 12.25-19.235-1.003 1.504 10.568-16.402 3.297-5.104 6.693-10.23 9.636-15.554.479-.867.884-1.773 1.326-2.66l6.883-1.056z" style="opacity:1;fill:#000;fill-opacity:1;stroke:#000;stroke-width:6.64887;stroke-linecap:butt;stroke-linejoin:miter;stroke-miterlimit:4;stroke-dasharray:none;stroke-dashoffset:0;stroke-opacity:1" transform="matrix(.00969 -.01534 .01505 .0095 -3.363 133.64)"/><path d="M4520.973 332.783c.777.924 1.613 1.801 2.33 2.773 4.581 6.224 8.26 13.122 12.004 19.856 5.36 9.643 5.544 10.049 10.84 19.831 3.928 7.952 8.383 15.635 12.369 23.554l-6.098 3.298c-3.77-7.983-8.245-15.626-12.123-23.557-5.28-9.74-5.477-10.187-10.855-19.77-3.68-6.555-7.298-13.31-11.854-19.324-.686-.907-1.495-1.714-2.243-2.57l5.63-4.091z" style="opacity:1;fill:#000;fill-opacity:1;stroke:#000;stroke-width:6.64887;stroke-linecap:butt;stroke-linejoin:miter;stroke-miterlimit:4;stroke-dasharray:none;stroke-dashoffset:0;stroke-opacity:1" transform="matrix(.00969 -.01534 .01505 .0095 -3.363 133.64)"/><path d="M4498.655 373.575c13.382-.838 26.793-.67 40.185-.254 4.087.285 8.215.155 12.29.627l-4.325 5.478c-4.006-.333-8.025-.469-12.039-.64-13.31-.407-26.666-.562-39.947.592l3.836-5.803z" style="opacity:1;fill:#000;fill-opacity:1;stroke:#000;stroke-width:6.64887;stroke-linecap:butt;stroke-linejoin:miter;stroke-miterlimit:4;stroke-dasharray:none;stroke-dashoffset:0;stroke-opacity:1" transform="matrix(.00969 -.01534 .01505 .0095 -3.363 133.64)"/></g><path d="M110.69 118.248c-.05-.059-.147-.088-.241-.07a.389.389 0 0 0-.083.029c-.034.016-.07.05-.09.068a.735.735 0 0 0-.224.387.454.454 0 0 0-.007.145.31.31 0 0 0 .044.127c.079.123.252.183.431.197.153.013.223-.005.37-.024l-.079.088c-.135.027-.28.026-.388.014-.199-.023-.381-.098-.468-.233a.352.352 0 0 1-.049-.137.493.493 0 0 1 .004-.154.819.819 0 0 1 .116-.294.918.918 0 0 1 .195-.195.687.687 0 0 1 .314-.105.347.347 0 0 1 .287.106zM112.041 118.213c-.008-.007-.015-.016-.024-.021-.052-.031-.121-.055-.18-.04a.45.45 0 0 0-.192.1c-.075.07-.099.087-.142.184a.562.562 0 0 0-.043.238.453.453 0 0 0 .078.236c.086.14.238.23.404.248a.383.383 0 0 0 .117-.006.43.43 0 0 0 .107-.042c.044-.023.05-.035.069-.054l.109.011a.734.734 0 0 1-.348.174.416.416 0 0 1-.127-.002.612.612 0 0 1-.489-.405.504.504 0 0 1-.024-.129.665.665 0 0 1 .04-.258.53.53 0 0 1 .06-.107.646.646 0 0 1 .246-.218.495.495 0 0 1 .2-.057.316.316 0 0 1 .228.083z" style="display:inline;fill:#000;fill-opacity:1;stroke:#000;stroke-width:.149369;stroke-miterlimit:4;stroke-dasharray:none;stroke-opacity:1" transform="rotate(-57.725 31.238 150.177)"/><g style="display:inline;stroke:#000;stroke-width:9.47899;stroke-dasharray:none;stroke-opacity:1"><path d="M-878.055-3483.851c14.933-1.802 29.987-2.26 45.01-2.716 5.094.138 2.956-.097 6.439.422l-4.364 5.413c-5.41-.377-1.238-.17-6.024-.267-14.952.404-29.96.868-44.778 3.046z" style="fill:#000;fill-opacity:1;stroke:#000;stroke-width:9.47899;stroke-miterlimit:4;stroke-dasharray:none;stroke-opacity:1" transform="matrix(.00841 -.01332 .01333 .00842 101.622 81.486)"/><path d="M-876.475-3480.11c.053 2.146.195 4.293.157 6.44-.071 4.052-.823 15.253-1.05 19.014-.546 9.03-1.03 18.024-1.166 27.068.105 4.246.068 8.515.357 12.755l-6.55.47c-.147-.863-.145-2.935-.228-5.098l-.067-6.062c.14-9.09.64-18.128 1.18-27.203.226-3.798.93-14.665 1.026-18.778.046-1.98-.054-3.962-.08-5.943l6.421-2.663z" style="fill:#000;fill-opacity:1;stroke:#000;stroke-width:9.47899;stroke-miterlimit:4;stroke-dasharray:none;stroke-opacity:1" transform="matrix(.00841 -.01332 .01333 .00842 101.622 81.486)"/><path d="M-879.583-3451.197c13.18-1.463 26.4-2.559 39.631-3.433l-3.903 5.668c-13.767 1.01-27.738 2.055-39.447 3.583zM-880.878-3419.968c17.085-1.412 35.549-2.005 52.69-1.95.83.363 1.333.098 1.69.028.517-.022 1.36-.435 1.114.058-2.846 5.723-3.72 5.347-8.196 5.415a499.386 499.386 0 0 0-51.22 2.161z" style="fill:#000;fill-opacity:1;stroke:#000;stroke-width:9.47899;stroke-miterlimit:4;stroke-dasharray:none;stroke-opacity:1" transform="matrix(.00841 -.01332 .01333 .00842 101.622 81.486)"/></g><path d="M114.568 118.043c-.022.163-.061.324-.091.486-.027.146-.027.16-.047.303-.008.09-.013.18-.008.27.002.028.005.052.003.079-.027.014-.023.04-.095.041-.029.001-.02-.048-.017-.072.004-.036.044-.014.079-.027.01-.004.02.001.03.001.02 0 .039-.002.058-.003.031 0 .062-.003.094-.004.308-.009-.057.004.287-.009l.407-.014a.712.712 0 0 0 .117-.013c-.027.054-.04.069-.057.1a1.76 1.76 0 0 1-.126.006c-.135.004-.27.008-.406.014-.127.005-.255.005-.382.015l-.072.007c-.008-.027-.026-.053-.03-.083-.005-.093 0-.186.009-.278.019-.143.02-.16.046-.306.03-.161.068-.32.089-.483l.112-.03z" style="display:inline;fill:#000;fill-opacity:1;stroke:#000;stroke-width:.149369;stroke-miterlimit:4;stroke-dasharray:none;stroke-opacity:1" transform="rotate(-57.725 31.238 150.177)"/><g style="display:inline;stroke:#000;stroke-width:9.08958;stroke-miterlimit:4;stroke-dasharray:none;stroke-opacity:1"><path d="M-820.578 436.377c1.886 12.563 2.328 25.297 2.745 37.978.193 7.707.296 15.417.223 23.126l-6.638 2.09c.237-8.02.088-16.167-.022-23.033-.389-12.547-.81-25.159-2.782-37.574l6.474-2.587z" style="fill:#000;fill-opacity:1;stroke:#000;stroke-width:9.08958;stroke-miterlimit:4;stroke-dasharray:none;stroke-opacity:1" transform="matrix(.0091 -.0136 .01371 .00917 50.819 46.281)"/><path d="M-828.56 434.604c16.285-1.589 32.603-2.762 48.942-3.62l5.05-.223-3.951 5.63-4.992.188c-16.32.808-32.622 1.982-48.856 3.854zM-815.746 464.044a728.189 728.189 0 0 1 30.799-1.79l-3.899 5.55c-10.736.554-21.633 1.138-30.792 1.99zM-824.268 495.707c16.792 1.16 33.616.223 50.405-.47 4.745-.246 9.498-.36 14.24-.675l-3.996 5.721c-4.93.13-9.928.366-14.145.507-16.853.64-33.719 1.418-50.58.527z" style="fill:#000;fill-opacity:1;stroke:#000;stroke-width:9.08958;stroke-miterlimit:4;stroke-dasharray:none;stroke-opacity:1" transform="matrix(.0091 -.0136 .01371 .00917 50.819 46.281)"/></g><g style="display:inline;stroke:#000;stroke-width:10.1936;stroke-dasharray:none;stroke-opacity:1"><path d="M170.17-3340.33c.59 19.17.731 38.35.836 57.526.13 3.853-.14 7.702.198 11.543l-6.529 2.394c-.397-4.12-.051-8.309-.133-11.828-.01-19.104-.1-38.216-.903-57.305z" style="fill:#000;fill-opacity:1;stroke:#000;stroke-width:10.1936;stroke-miterlimit:4;stroke-dasharray:none;stroke-opacity:1" transform="matrix(.00782 -.01239 .01239 .00782 90.266 88.302)"/><path d="M150.363-3341.595c11.89-3.427 25.38-4.202 37.578-2.14 2.677.452 5.272 1.3 7.908 1.95 3.833 1.976 7.113 2.618 8.756 7.04 1.386 3.732 0 7.448-2.03 10.563-2.664 4.077-6.762 7.104-10.384 10.2-6.397 4.575-13.074 8.908-20.383 11.884-.295-1.179-.04-3.097.657-4.224 11.237 2.417 21.648 7.777 31.878 12.853 5.86 3.254 11.823 6.326 17.476 9.936 2.086 1.332 3.428 1.929 4.45 4.085l-5.5 4.398c-.01-.867-.593-1.322-.593-1.322-1.034-1.052-2.394-1.894-3.52-2.618-5.567-3.576-11.438-6.632-17.24-9.802-10.031-4.907-20.275-10.187-31.37-12.136.955-1.959 1.675-4.052 2.867-5.877.24-.367.836-.264 1.245-.419.896-.34 1.797-.671 2.67-1.065 4.667-2.104 5.82-2.783 10.55-5.948 3.379-2.705 7.548-5.738 10.38-9.114 1.434-1.71 3.782-5.012 3.038-7.687-.978-3.512-4.7-4.306-7.444-5.639-2.532-.58-5.029-1.349-7.598-1.738-11.15-1.69-22.993-1.034-33.848 2.073-.877.251-1.686.695-2.53 1.043z" style="fill:#000;fill-opacity:1;stroke:#000;stroke-width:10.1936;stroke-miterlimit:4;stroke-dasharray:none;stroke-opacity:1" transform="matrix(.00782 -.01239 .01239 .00782 90.266 88.302)"/></g><g style="display:inline;stroke:#000;stroke-width:9.22414;stroke-dasharray:none;stroke-opacity:1"><path d="M-1185.94-3414.064c3.96-10.215 7.115-16.332 11.766-26.248 6.15-13.033 13.16-25.715 17.962-39.335.806-2.783.648-2.006 1.1-4.158.054-.258-.1-.697.153-.776 7.952-2.49 5.837-3.327 7.103-.527 1.919 3.037 2.396 7.38 3.247 10.775.575 2.295 1.181 4.582 1.772 6.873 4.436 16.285 9.057 29.753 14.656 45.663.936 3.082 2.166 6.363 2.516 8.956-1.829 1.423-3.91 2.489-5.865 3.733l-.889-3.119c-.572-2.527-1.104-3.964-1.937-6.602-5.506-16.02-10.175-29.541-14.723-45.867-.613-2.297-1.238-4.59-1.837-6.891-.42-1.614-.823-3.232-1.22-4.85-.71-5.171 2.181-6.013 2.704-4.448-4.69 13.77-11.816 26.517-18.021 39.633-3.185 6.803-4.65 9.856-7.715 16.712-.862 1.93-2.407 5.136-3.216 7.252-.262.686-.448 1.4-.672 2.1z" style="fill:#000;fill-opacity:1;stroke:#000;stroke-width:9.2241;stroke-miterlimit:4;stroke-dasharray:none;stroke-opacity:1" transform="matrix(.00993 -.01572 .01193 .00753 104.296 66.583)"/><path d="M-1179.978-3434.788c-1.476-.66-2.99-2.354-4.747-2.145 1.99-2.65.04-1.552 5.294-5.365.609-.442 1.504.026 2.256.036 1.26.018 2.52.033 3.779.044 4.48.036 7.584.04 12.18.055 6.86.01 13.72.01 20.58-.013 2.952-.01 5.782-.203 8.643.568l.859 1.047-5.969 3.645.552.583c-2.695-.375-5.392-.296-8.11-.3-6.859-.012-13.717 0-20.575 0-5.358 0-10.72.052-16.077-.05-.787-.014-2.454.702-2.359-.078.818-6.705 1.218-6.393 3.46-5.508 2.033.717 3.857 1.869 5.637 3.07-1.8 1.47-3.602 2.944-5.403 4.413z" style="fill:#000;fill-opacity:1;stroke:#000;stroke-width:9.2241;stroke-miterlimit:4;stroke-dasharray:none;stroke-opacity:1" transform="matrix(.00993 -.01572 .01193 .00753 104.296 66.583)"/></g><g style="display:inline;stroke:#000;stroke-width:9.23277;stroke-dasharray:none;stroke-opacity:1"><path d="M301.954-3342.888c15.026.075 30.037-.623 45.065-.58 6.788.112 7.867.103 14.153.292 2.13.064 4.614-.014 6.762.379l-4.39 5.433c-7.139-.34-14.39-.576-20.506-.632-15.067 0-30.116.69-45.182.748z" style="fill:#000;fill-opacity:1;stroke:#000;stroke-width:9.23277;stroke-miterlimit:4;stroke-dasharray:none;stroke-opacity:1" transform="rotate(-57.729 129.646 -40.738) scale(.01618)"/><path d="M336.334-3338.69c.12 1.267.282 2.531.358 3.802.425 7.037.502 14.106.809 21.15.243 5.587.564 11.171.846 16.757.112 2.532.233 5.064.337 7.596.174 4.215.27 7.132.38 11.241.028 1.072.017 2.145.073 3.216.062 1.21.23 1.795.23 1.795L333.44-3270c-.265-.344-.46-.74-.643-1.036-.362-1.14-.245-4.161-.257-4.916-.099-6.27-.327-12.536-.615-18.8-.685-13.738-1.237-27.486-1.994-41.218l6.402-2.72z" style="fill:#000;fill-opacity:1;stroke:#000;stroke-width:9.23277;stroke-miterlimit:4;stroke-dasharray:none;stroke-opacity:1" transform="rotate(-57.729 129.646 -40.738) scale(.01618)"/></g><g style="display:inline;stroke:#000;stroke-width:9.24615;stroke-miterlimit:4;stroke-dasharray:none;stroke-opacity:1"><path d="M-573.414-1041.59c21.88-3.62 44.272-5.263 66.375-2.86l-4.251 5.38c-21.97-2.331-44.193-.442-65.893 3.34l3.769-5.86z" style="fill:#000;fill-opacity:1;stroke:#000;stroke-width:9.24615;stroke-miterlimit:4;stroke-dasharray:none;stroke-opacity:1" transform="matrix(.00807 -.01393 .01403 .00813 71.977 56.762)"/><path d="M-538.928-1040.22c2.454 14.806.057 29.836-1.18 44.649-.38 5.84-1.357 11.684-1.007 17.543-2.69 1.074-7.222 6.052-6.698.232.656-19.807 5.223-39.602 2.6-59.443l6.285-2.98z" style="fill:#000;fill-opacity:1;stroke:#000;stroke-width:9.24615;stroke-miterlimit:4;stroke-dasharray:none;stroke-opacity:1" transform="matrix(.00807 -.01393 .01403 .00813 71.977 56.762)"/><path d="M-571.086-983.704c18.393-.908 36.822-1.613 55.239-1.29 7.607.374 15.35.574 22.719 2.676 3.32.868-.963 2.736-1.878 4.144-2.17 3.12-5.938-.722-9.055-.215-19.002-2.38-38.213-.928-57.285-.426-3.939-.294-11.422 1.536-13.118.101l3.378-4.99z" style="fill:#000;fill-opacity:1;stroke:#000;stroke-width:9.24615;stroke-miterlimit:4;stroke-dasharray:none;stroke-opacity:1" transform="matrix(.00807 -.01393 .01403 .00813 71.977 56.762)"/></g><path d="M124.152 118.268a.475.475 0 0 0-.197.201.662.662 0 0 0-.068.467.29.29 0 0 0 .225.214.627.627 0 0 0 .468-.122c.082-.05.092-.156.093-.243a.715.715 0 0 0-.186-.436c-.07-.077-.17-.15-.28-.13-.038.005-.106.06-.117-.007.028-.068.109-.09.175-.094.137-.006.254.091.334.195.112.148.195.335.167.525a.493.493 0 0 1-.145.24.652.652 0 0 1-.521.174.353.353 0 0 1-.282-.199c-.074-.158-.05-.344.01-.502a.875.875 0 0 1 .24-.329c.03-.02.08-.075.08-.01.007.016.033.044.004.056z" style="display:inline;fill:#000;fill-opacity:1;stroke:#000;stroke-width:.149369;stroke-miterlimit:4;stroke-dasharray:none;stroke-opacity:1" transform="rotate(-57.725 31.238 150.177)"/><g style="display:inline;stroke:#000;stroke-width:9.42133;stroke-dasharray:none;stroke-opacity:1"><path d="M-151.569-3340.979c1.165 15.385.48 30.844.166 46.25-.147 6.794-.249 13.589-.328 20.383l-6.56 2.084c.152-7.117.31-14.341.444-20.432.33-15.244.971-30.538-.215-45.76z" style="fill:#000;fill-opacity:1;stroke:#000;stroke-width:9.42133;stroke-miterlimit:4;stroke-dasharray:none;stroke-opacity:1" transform="matrix(.00847 -.0134 .0134 .00846 100.4 79.792)"/><path d="M-148.907-3340.04c6.664 6.403 12.15 13.892 17.92 21.075 2.195 2.73 4.403 5.45 6.605 8.174l6.818 8.507c5.4 6.968 10.87 13.896 16.553 20.638 1.988 6.954-2.354 7.641-1.704-.127.024-1.973.072-3.947.071-5.921 0-10.237-.212-7.489-.028-18.481.15-8.976.582-17.95.96-26.918.076-1.749.15-3.497.227-5.245.072-1.654.137-3.126.202-4.646.01-.136-.12-.366.01-.408 6.873-2.251 6.64-3.909 6.59-1.078-1.515.482-4.576 1.468-6.59 1.916.157-2.813-.106-.775 6.717-2.775-.132 1.66-.27 3.505-.353 4.994-.098 1.75-.186 3.501-.28 5.252-.433 8.937-.904 17.882-1.053 26.83-.15 8.992.012 9.882.12 18.449.025 2.028.024 4.056.036 6.085-.059 1.005-.007 3.528.122 4.53.214 1.657.532 2.762 1.277 4.038-4.534 5.544-3.627 5.923-5.968 3.986-3.857-3.71-7.116-8.034-10.468-12.184-1.899-2.35-3.82-4.683-5.696-7.051-2.143-2.705-4.24-5.445-6.36-8.167-14.206-17.69.484.572-13.45-16.664-5.687-7.035-11.109-14.388-17.777-20.548l5.499-4.26z" style="fill:#000;fill-opacity:1;stroke:#000;stroke-width:9.42133;stroke-miterlimit:4;stroke-dasharray:none;stroke-opacity:1" transform="matrix(.00847 -.0134 .0134 .00846 100.4 79.792)"/></g></g></g></svg>