<?xml version="1.0" encoding="UTF-8" standalone="no"?>
<svg
   viewBox="0 -20.032369 500.00001 499.99998"
   aria-hidden="true"
   width="500"
   height="500"
   version="1.1"
   id="svg443985"
   sodipodi:docname="svg_unit_cancellation_cloud.svg"
   inkscape:version="1.3.2 (091e20e, 2023-11-25)"
   xmlns:inkscape="http://www.inkscape.org/namespaces/inkscape"
   xmlns:sodipodi="http://sodipodi.sourceforge.net/DTD/sodipodi-0.dtd"
   xmlns="http://www.w3.org/2000/svg"
   xmlns:svg="http://www.w3.org/2000/svg">
  <sodipodi:namedview
     id="namedview443987"
     pagecolor="#ffffff"
     bordercolor="#000000"
     borderopacity="0.25"
     inkscape:showpageshadow="2"
     inkscape:pageopacity="0.0"
     inkscape:pagecheckerboard="0"
     inkscape:deskcolor="#d1d1d1"
     showgrid="false"
     inkscape:zoom="1.5493193"
     inkscape:cx="192.01982"
     inkscape:cy="229.13289"
     inkscape:window-width="1728"
     inkscape:window-height="1051"
     inkscape:window-x="0"
     inkscape:window-y="38"
     inkscape:window-maximized="0"
     inkscape:current-layer="layer7" />
  <defs
     id="defs443931">
    <path
       id="E132-STIXWEBMAIN-28"
       stroke-width="1"
       d="m 304,-161 -12,-16 C 134,-87 48,82 48,252 c 0,185 87,329 247,424 l 9,-16 C 165,541 134,448 134,255 134,69 164,-44 304,-161 Z" />
    <path
       id="E132-STIXWEBMAIN-32"
       stroke-width="1"
       d="M 474,137 420,0 H 29 v 12 l 178,189 c 94,99 130,175 130,260 0,91 -54,141 -139,141 C 126,602 91,570 51,472 l -21,5 c 21,117 85,199 208,199 113,0 185,-77 185,-176 0,-79 -39,-154 -128,-248 L 130,76 h 234 c 42,0 63,11 96,67 z" />
    <path
       id="E132-STIXWEBMAIN-2F"
       stroke-width="1"
       d="M 287,676 59,-14 H -9 l 229,690 z" />
    <path
       id="E132-STIXWEBMAIN-29"
       stroke-width="1"
       d="m 29,660 12,16 C 194,584 285,417 285,247 285,62 197,-80 38,-177 l -9,16 C 171,-44 199,50 199,244 199,431 174,546 29,660 Z" />
    <path
       id="E132-STIXWEBMAIN-D7"
       stroke-width="1"
       d="M 597,22 551,-25 320,205 89,-25 43,21 273,252 43,483 90,529 320,299 551,529 597,484 367,252 Z" />
    <path
       id="E132-STIXWEBMAIN-35"
       stroke-width="1"
       d="m 438,681 -36,-85 c -3,-7 -11,-13 -27,-13 H 181 L 141,498 C 284,471 334,449 391,370 417,334 426,296 426,243 426,147 396,85 328,35 281,1 226,-14 158,-14 83,-14 31,10 31,48 c 0,25 17,38 45,38 23,0 42,-5 74,-31 28,-23 51,-32 71,-32 70,0 135,83 135,169 0,64 -22,114 -67,150 -47,38 -117,70 -213,70 -9,0 -12,2 -12,8 0,2 1,5 1,5 l 109,237 h 207 c 23,0 32,5 48,26 z" />
    <path
       id="E132-STIXWEBMAIN-3D"
       stroke-width="1"
       d="M 637,320 H 48 v 66 h 589 z m 0,-200 H 48 v 66 h 589 z" />
    <path
       id="E132-STIXWEBMAIN-31"
       stroke-width="1"
       d="M 394,0 H 118 v 15 c 74,4 95,25 95,80 v 449 c 0,34 -9,49 -30,49 -10,0 -27,-5 -45,-12 l -27,-10 v 14 l 179,91 9,-3 V 76 c 0,-43 20,-61 95,-61 z" />
    <path
       id="E132-STIXWEBMAIN-30"
       stroke-width="1"
       d="M 476,330 C 476,158 413,-14 250,-14 79,-14 24,172 24,336 24,513 93,676 254,676 385,676 476,535 476,330 Z m -96,-5 C 380,533 336,650 248,650 165,650 120,532 120,329 120,126 164,12 250,12 c 85,0 130,115 130,313 z" />
  </defs>
  <g
     inkscape:groupmode="layer"
     id="layer7"
     inkscape:label="Cloud">
    <g
       id="g460604"
       transform="translate(0,-154.2613)">
      <path
         style="fill:none;stroke:#000000;stroke-width:0.9;stroke-miterlimit:2;stroke-dasharray:none"
         d="m 214.1514,117.56429 c 1.42079,0.91617 0.8157,0.0131 0.91284,-0.50879 0.63897,-3.43332 -1.40866,-7.00189 -4.07775,-9.0804 -7.78722,-6.06419 -17.85373,-7.70685 -27.36062,-9.09197 -12.07005,-1.758569 -24.90874,-2.389003 -36.408,2.31411 -2.87991,1.17786 -6.61861,2.63381 -7.40572,5.90136 -0.79506,3.30057 3.04276,5.34586 5.66285,6.48125 3.2607,1.41299 6.68216,2.36865 10.12621,3.21595"
         id="path460600"
         sodipodi:nodetypes="cssssssc" />
      <path
         style="fill:none;stroke:#000000;stroke-width:0.9;stroke-miterlimit:2;stroke-dasharray:none"
         d="m 248.1911,124.9126 c 1.20221,1.27677 3.35606,1.11806 4.89189,0.7095 3.16168,-0.84107 6.25359,-3.33862 6.78626,-6.78155 0.43778,-2.82957 -1.58165,-5.37324 -4.05512,-6.46785 -4.2645,-1.88721 -9.04409,-2.01136 -13.62598,-1.84537 -8.2436,0.29864 -16.21983,2.62292 -24.05968,4.98216 -1.31851,0.39678 -3.50128,0.70844 -3.97707,2.0548"
         id="path460598"
         sodipodi:nodetypes="csssssc" />
    </g>
    <path
       style="fill:#e5f6ff;fill-opacity:1;stroke:#000000;stroke-width:1;stroke-miterlimit:2;stroke-dasharray:none"
       d="m 187.65607,204.48558 c -8.87012,1.80886 -17.76396,6.4058 -23.78994,11.37066 -5.25778,4.33193 -9.66778,10.10572 -10.74856,16.55892 -0.73002,4.35882 1.64765,8.82602 5.49214,11.51565 8.84326,6.18677 19.71873,9.03012 30.41386,10.62262 11.7044,1.74277 23.95785,2.58408 35.49398,-0.44349 2.71412,-0.7123 5.84733,-2.03436 7.81397,-4.05778 1.35247,-1.39149 1.11756,-3.48038 -2.18559,-3.7652 -4.14129,-0.35708 -3.26967,2.95167 -1.57149,4.00782 1.23027,0.76513 2.50442,1.53176 3.77294,2.11676 6.99347,3.22513 14.94576,4.00316 22.63987,4.18697 8.8574,0.2116 18.13244,-0.48298 26.09641,-4.45834 1.52892,-0.76319 4.35278,-2.15982 3.37378,-4.12092 -0.39691,-0.79508 -1.6027,-1.37849 -2.99828,-1.00891 -2.51074,0.6649 0.2232,2.06988 3.23236,2.8894 16.06447,4.37505 33.48853,5.70266 49.79589,1.76387 7.78014,-1.87917 15.38602,-5.51157 20.51893,-11.49355 4.11471,-4.79533 4.38715,-11.67836 2.52623,-16.14819 -2.26371,-5.43733 -8.67788,-9.22326 -15.33364,-11.44288 -6.46886,-2.15727 -10.11776,-2.80683 -14.36441,-3.16773 -2.50817,-0.21316 -2.32032,0.27321 -2.93089,0.88461 -0.8333,0.83442 3.12739,0.81047 2.66736,-0.59609 -0.44362,-1.35638 -1.18481,-2.95265 -2.85631,-5.00098 -5.59183,-6.85247 -14.42254,-10.61919 -23.19744,-12.2783 -13.16409,-2.489 -26.96032,-0.59334 -39.43634,3.81659 -4.4276,1.56503 -13.41524,2.84952 -11.85343,7.20751 1.39188,3.88383 7.85124,-1.56656 10.77973,-3.84122 3.1379,-2.43732 1.81967,-5.86338 -1.82929,-8.34935 -8.014,-5.45979 -17.63084,-8.66124 -27.39727,-9.4927 -10.9857,-0.93524 -22.23883,0.73592 -32.42513,4.74151 -5.3251,2.09401 -10.81342,5.23386 -13.33272,10.42055 -1.48619,3.05975 -0.36345,6.25374 1.59715,8.79437"
       id="path452175"
       sodipodi:nodetypes="cssssssssssssssssssssssssssssssc" />
    <path
       style="fill:#e5f6ff;fill-opacity:1;stroke:#000000;stroke-width:0.9;stroke-miterlimit:2;stroke-dasharray:none"
       d="m -80.427087,242.65632 c -4.29907,-0.94362 -8.77387,-0.39948 -12.92682,0.87909 -3.92091,1.29598 -7.863573,3.14127 -10.635443,6.28778 -1.95364,2.26251 -2.63719,5.91936 -0.63946,8.37308 2.61865,3.79447 7.258653,5.4584 11.607543,6.29803 6.78681,1.18451 13.94339,0.63497 20.38011,-1.87035 3.53007,-1.43654 7.17511,-3.98068 7.96589,-7.95633 0.6436,-3.04491 -1.49987,-5.80949 -3.92876,-7.36681 -2.94069,-1.82667 -6.23205,-3.154 -9.63903,-3.79351 -1.87543,-0.32482 -3.78388,-0.45616 -5.68563,-0.36312"
       id="path432227"
       sodipodi:nodetypes="csssssssss" />
    <path
       style="fill:none;stroke:#000000;stroke-width:0.9;stroke-miterlimit:2;stroke-dasharray:none"
       d="m 668.34847,375.74972 c 1.09214,2.10002 4.67875,2.577 7.03826,3.29644 15.99553,4.87721 33.40401,6.52144 49.76575,2.60931 7.80609,-1.86645 15.40227,-5.60237 21.23129,-11.27125 3.49791,-3.40181 4.98952,-8.8518 2.66118,-13.36037 -3.09893,-6.00075 -9.52669,-9.90353 -15.7398,-11.62246 -9.65539,-2.67128 -17.3923,-3.35814 -24.76298,-3.12491"
       id="path461178"
       sodipodi:nodetypes="csssssc" />
    <path
       style="fill:none;stroke:#000000;stroke-width:0.9;stroke-miterlimit:2;stroke-dasharray:none"
       d="m 620.44623,372.32274 c -1.86225,-0.87416 -5.24137,-0.29136 -4.61842,2.37423 0.81735,3.49744 4.16291,5.65621 7.18434,7.18231 6.94689,3.5088 14.8873,4.44936 22.57801,4.75888 8.8535,0.35632 18.13748,-0.23746 26.1572,-4.31347 1.53962,-0.78251 4.49478,-2.27512 3.43206,-4.29855 -1.01311,-1.92898 -3.71745,-1.83998 -5.66496,-2.20638 -0.38286,-0.072 -0.77447,-0.11904 -1.16599,-0.07"
       id="path461180"
       sodipodi:nodetypes="cssssssc" />
    <path
       style="fill:none;stroke:#000000;stroke-width:0.9;stroke-miterlimit:2;stroke-dasharray:none"
       d="m 591.36528,333.72128 c -13.13022,-2.3318 -26.43876,3.36315 -36.3074,11.7765 -5.29969,4.51816 -9.91902,10.50258 -11.09885,17.52892 -0.80979,4.82256 1.81449,9.48467 5.74102,12.21517 9.03197,6.28081 19.99161,8.97753 30.73214,10.35956 11.75408,1.51245 24.02904,2.05854 35.46683,-1.45721 3.64377,-1.12002 8.31587,-3.17591 8.87601,-7.37462 0.32122,-2.40781 -2.24852,-3.88414 -4.3288,-4.44686"
       id="path461182"
       sodipodi:nodetypes="cssssssc" />
    <path
       style="fill:none;stroke:#000000;stroke-width:0.9;stroke-miterlimit:2;stroke-dasharray:none"
       d="m 641.25135,333.45882 c 3.20734,-3.59615 7.84105,-5.60705 12.29046,-7.1923 12.5375,-4.46689 26.3593,-6.26041 39.48665,-3.43585 8.75041,1.88279 17.52665,5.99078 23.02042,13.30683 2.35065,3.13036 4.24504,7.68237 1.6121,11.24917"
       id="path461184"
       sodipodi:nodetypes="csssc" />
    <path
       style="fill:none;stroke:#000000;stroke-width:0.9;stroke-miterlimit:2;stroke-dasharray:none"
       d="m 580.44287,336.95821 c -2.75563,-2.89679 -4.85374,-7.14155 -2.96123,-11.10945 2.59283,-5.4362 8.12526,-8.66758 13.47961,-10.79763 10.24226,-4.07454 21.51802,-5.66931 32.48931,-4.51729 9.75361,1.02416 19.32393,4.54738 27.25945,10.42998 3.61322,2.67848 4.88258,6.31413 1.71032,8.83936 -2.96055,2.3567 -6.70769,3.925 -10.49758,4.12866 -0.23737,0.0128 -0.78925,-0.0699 -0.6714,-0.47302"
       id="path461186"
       sodipodi:nodetypes="cssssssc" />
    <path
       style="fill:#e5f6ff;fill-opacity:1;stroke:#000000;stroke-width:1;stroke-miterlimit:2;stroke-dasharray:none"
       d="m 120.77445,215.50824 c -0.26195,-0.018 -0.5233,-0.056 -0.78586,-0.0539 -2.84523,0.0238 -5.8051,1.00181 -8.29192,2.3257 -1.87985,1.00077 -3.55971,2.26492 -4.91814,3.69883 -2.07142,2.18653 -3.54569,4.86542 -4.15479,7.81865 -0.36479,1.76874 -0.41914,3.53514 -0.0546,5.45745 0.70313,3.70746 3.31993,6.51327 6.33542,8.01934 3.15686,1.57667 5.56944,2.15258 8.79413,2.35991 3.26498,0.20991 6.55869,-0.22465 9.55123,-1.55083 3.75614,-1.66456 5.83202,-3.0816 8.23565,-5.97186 2.67973,-3.22221 4.35812,-7.52623 4.00729,-11.74196 -0.1708,-2.05228 -0.69691,-4.05321 -1.65428,-5.7159 -2.72535,-4.7332 -7.45829,-7.10048 -12.15585,-7.47755 -3.02028,-0.24244 -6.2009,0.49245 -8.77268,1.53843 -0.66549,0.27066 -1.28747,0.637 -1.93122,0.95549"
       id="path461883"
       sodipodi:nodetypes="csssssssssssssc" />
    <path
       style="fill:#e5f6ff;fill-opacity:1;stroke:#000000;stroke-width:1;stroke-miterlimit:2;stroke-dasharray:none"
       d="m 76.781365,218.05579 c -0.328763,0.10051 -0.666172,0.17645 -0.986286,0.30153 -2.211177,0.86396 -4.295249,2.26624 -5.722272,4.1735 -0.751812,1.00482 -1.313966,2.1079 -1.631524,3.22987 -0.557974,1.97139 -0.322211,4.24872 0.792012,5.99345 1.241863,1.94458 3.685593,3.00808 5.513933,3.49317 2.297561,0.60956 5.164346,0.2886 6.854033,-0.22695 3.103183,-0.94686 5.14093,-2.39057 6.392823,-4.5074 0.861149,-1.45611 1.111327,-2.97241 1.006515,-4.48456 -0.08878,-1.28091 -0.581795,-2.52234 -1.374545,-3.53025 -1.048213,-1.33269 -1.972923,-2.10023 -3.376611,-2.79756 -1.53238,-0.76126 -3.235667,-1.20287 -4.937213,-1.36766 -1.747848,-0.16926 -2.722383,-0.17818 -4.313665,0.20914"
       id="path461887"
       sodipodi:nodetypes="csssssssssssc" />
  </g>
  <g
     id="g460773"
     style="display:inline"
     transform="translate(-7.3023737)">
    <path
       id="use443953"
       stroke-width="0.01904"
       d="m 248.92126,233.38874 -0.87584,0.89488 -4.39824,-4.3792 -4.39824,4.3792 -0.87584,-0.87584 4.3792,-4.39824 -4.3792,-4.39824 0.89488,-0.87584 4.3792,4.3792 4.39824,-4.3792 0.87584,0.8568 -4.3792,4.41728 z" />
    <path
       id="use443965"
       stroke-width="0.01904"
       d="m 293.86235,227.71482 h -11.21456 v -1.25664 h 11.21456 z m 0,3.808 h -11.21456 v -1.25664 h 11.21456 z" />
    <g
       id="g451935"
       transform="translate(11.618005)">
      <g
         aria-label="m"
         transform="matrix(0.01904,0,0,0.01904,166.77983,-12.752284)"
         id="text443973"
         style="font-size:1076.68px;stroke-width:52.507">
        <path
           d="m 6873.5455,12501.659 c 32.7801,13.255 1.6962,128.526 43.0312,64.375 56.6827,-64.339 164.6707,-89.861 235.1583,-33.767 32.0009,20.071 30.5277,96.532 63.4728,38.258 55.4616,-61.531 153.1856,-93.896 227.1696,-45.734 55.71,30.497 48.0358,99.94 49.418,153.774 1.6502,74.082 -4.1771,148.938 4.8629,222.381 9.0402,36.262 86.3894,8.623 63.6126,48.629 -70.6659,0 -141.3319,0 -211.9978,0 -14.5182,-47.111 62.2724,-8.171 65.1896,-54.675 5.3373,-88.561 2.973,-177.551 2.415,-266.27 6.1341,-52.729 -40.769,-98.555 -93.5047,-89.283 -55.8034,6.391 -101.1705,50.774 -129.1881,95.715 1.2266,87.224 -2.9527,174.841 3.2858,261.744 4.1644,38.297 79.1768,14.847 56.2524,52.769 -68.3878,0 -136.7756,0 -205.1634,0 -14.5198,-47.456 62.8448,-7.762 66.2411,-54.149 6.1985,-86.997 3.6189,-174.6 2.4971,-261.81 4.8842,-46.861 -29.2453,-94.314 -78.3737,-94.869 -59.606,-3.13 -112.2826,41.504 -143.8755,86.852 1.3605,90.886 -3.3522,182.207 3.8772,272.718 6.2079,37.743 82.7861,12.306 59.8668,51.258 -69.264,0 -138.528,0 -207.792,0 -14.5084,-47.309 62.7635,-7.935 65.7153,-54.675 5.5712,-96.954 2.8384,-194.358 2.1275,-291.472 15.2904,-52.974 -54.3021,-45.705 -67.8428,-62.996 3.6126,-36.841 75.9674,-12.738 104.3046,-32.975 6.4637,-1.76 12.8847,-3.68 19.2402,-5.798 z"
           style="font-family:Baskerville;-inkscape-font-specification:Baskerville"
           id="path448539" />
      </g>
      <path
         id="use443975"
         stroke-width="0.01904"
         d="m 316.67535,220.93658 -4.34112,13.1376 h -1.29472 l 4.36016,-13.1376 z" />
      <g
         aria-label="s"
         transform="matrix(0.01904,0,0,0.01904,166.77983,-12.752284)"
         id="text443977"
         style="font-size:1076.68px;stroke-width:52.507">
        <path
           d="m 7908.2981,12963.244 c 0,-47.14 0,-94.279 0,-141.419 39.0678,-6.778 28.0527,55.375 55.2255,74.644 33.7936,54.571 134.6465,71.194 164.6087,4.863 24.9085,-48.133 -9.7294,-101.647 -55.9812,-119.931 -58.0291,-34.005 -136.1987,-57.572 -158.8094,-128.358 -21.6469,-72.946 40.3849,-160.562 119.1481,-151.205 43.369,-15.912 83.6236,73.782 100.5876,21.015 11.1898,-30.928 35.1658,-7.782 25.4647,16.395 0,34.259 0,68.519 0,102.779 -44.4854,1.976 -30.0269,-81.891 -76.1312,-97.192 -39.6328,-37.178 -120.0624,-20.115 -125.4424,38.804 -4.6491,57.793 58.7847,82.29 101.6863,103.075 55.5297,24.18 118.2024,59.49 126.5184,126.256 18.2451,70.148 -34.4595,146.994 -107.1591,152.716 -46.8659,7.308 -94.8788,-12.647 -126.081,-47.654 -20.1543,15.219 -11.8465,54.378 -43.635,45.212 z"
           style="font-family:Baskerville;-inkscape-font-specification:Baskerville"
           id="path448536" />
      </g>
    </g>
    <g
       id="g451922">
      <g
         aria-label="m"
         transform="matrix(0.01904,0,0,0.01904,210.13766,-12.752284)"
         id="text443937"
         style="font-size:1076.68px;stroke-width:52.507">
        <path
           d="m -835.4545,12501.659 c 32.78014,13.255 1.69616,128.526 43.03122,64.375 56.68273,-64.339 164.67063,-89.861 235.15821,-33.767 32.00099,20.071 30.52774,96.532 63.47281,38.258 55.4617,-61.531 153.18571,-93.896 227.1697,-45.734 55.70993,30.497 48.03566,99.94 49.41793,153.774 1.65019,74.082 -4.17717,148.938 4.86293,222.381 9.04018,36.262 86.3894,8.623 63.6126,48.629 -70.66594,0 -141.33188,0 -211.99782,0 -14.51823,-47.111 62.2724,-8.171 65.18961,-54.675 5.33742,-88.561 2.97306,-177.551 2.41504,-266.27 6.13405,-52.729 -40.769,-98.555 -93.50471,-89.283 -55.80338,6.391 -101.17058,50.774 -129.18813,95.715 1.22665,87.224 -2.95273,174.841 3.28576,261.744 4.1645,38.297 79.17684,14.847 56.25248,52.769 -68.38781,0 -136.77562,0 -205.16343,0 -14.51984,-47.456 62.84487,-7.762 66.24106,-54.149 6.1986,-86.997 3.61896,-174.6 2.49719,-261.81 4.88415,-46.861 -29.24533,-94.313 -78.37376,-94.869 -59.60603,-3.13 -112.28261,41.504 -143.87551,86.852 1.36052,90.886 -3.35221,182.207 3.8772,272.718 6.20791,37.743 82.78604,12.306 59.86682,51.258 -69.26401,0 -138.52802,0 -207.79203,0 -14.50839,-47.309 62.76351,-7.935 65.71533,-54.675 5.57125,-96.954 2.83844,-194.358 2.12754,-291.472 15.29038,-52.974 -54.30213,-45.705 -67.84287,-62.996 3.61256,-36.841 75.96743,-12.738 104.30461,-32.975 6.46374,-1.76 12.88468,-3.68 19.24022,-5.798 z"
           style="font-family:Baskerville;-inkscape-font-specification:Baskerville"
           id="path448548" />
      </g>
      <path
         id="use443939"
         stroke-width="0.01904"
         d="m 213.25382,220.93658 -4.34112,13.1376 h -1.29472 l 4.36016,-13.1376 z" />
      <g
         transform="matrix(0.01904,0,0,-0.01904,213.1015,233.80762)"
         id="g443943">
        <g
           aria-label="s"
           transform="scale(52.507,-52.507)"
           id="text443941"
           style="font-size:20.5055px">
          <path
             d="m 0.83103348,0.26032374 c 0,-0.89778315 0,-1.79556634 0,-2.69334944 C 1.5750858,-2.5621031 1.3652997,-1.378401 1.8828102,-1.011414 2.5264135,0.02790355 4.4471629,0.34447669 5.0178027,-0.9187989 5.4921861,-1.8354846 4.8325077,-2.8546698 3.951633,-3.2028894 2.8464555,-3.8505069 1.3577211,-4.2993685 0.92709044,-5.647492 0.51481964,-7.0367623 1.6962281,-8.7054144 3.1962796,-8.527206 c 0.8259718,-0.3030363 1.5926327,1.4051999 1.9157027,0.4002242 0.2131108,-0.5890372 0.6697364,-0.1482168 0.4849781,0.312234 0,0.6524879 0,1.3049757 0,1.9574636 -0.8472306,0.037621 -0.5718594,-1.5596391 -1.4499281,-1.8510519 -0.7548136,-0.70804 -2.2866026,-0.3830772 -2.3890649,0.739044 -0.088543,1.1006714 1.1195603,1.5672145 1.9366272,1.9630663 1.0575748,0.4605085 2.2511728,1.1329999 2.4095591,2.4045529 C 6.4516377,-1.2656926 5.4478651,0.19784674 4.0632953,0.30682688 3.1707276,0.44601309 2.2563169,0.06596225 1.662067,-0.60074709 1.2782242,-0.310904 1.4364517,0.4348847 0.83103348,0.26032374 Z"
             style="font-family:Baskerville;-inkscape-font-specification:Baskerville"
             id="path448545" />
        </g>
      </g>
      <g
         transform="matrix(0.01904,0,0,-0.01904,216.77622,233.80762)"
         id="g443947">
        <path
           id="use443945"
           stroke-width="0.707"
           d="M 501.263,509.04 463.085,412.181 H 186.648 v 8.484 l 125.846,133.623 c 66.458,69.993 91.91,123.725 91.91,183.82 0,64.337 -38.178,99.687 -98.273,99.687 -50.904,0 -75.649,-22.624 -103.929,-91.91 l -14.847,3.535 c 14.847,82.719 60.095,140.693 147.056,140.693 79.891,0 130.795,-54.439 130.795,-124.432 0,-55.853 -27.573,-108.878 -90.496,-175.336 L 258.055,465.913 h 165.438 c 29.694,0 44.541,7.777 67.872,47.369 z" />
      </g>
      <path
         style="fill:none;stroke:#ff0000;stroke-width:2;stroke-miterlimit:2;stroke-dasharray:none"
         d="m 226.79477,216.5979 -8.10106,9.47027"
         id="path449453" />
    </g>
    <g
       id="g451928"
       transform="translate(8.9832457)">
      <g
         transform="matrix(0.01904,0,0,-0.01904,253.80126,233.80762)"
         id="g443961">
        <g
           aria-label="s"
           transform="scale(52.507,-52.507)"
           id="text443959"
           style="font-size:20.5055px">
          <path
             d="m 0.83103348,0.26032374 c 0,-0.89778315 0,-1.79556634 0,-2.69334944 0.13016187,0 0.26032372,0 0.39048562,0 0.2511684,0.8650433 0.7020818,1.79513541 1.5777702,2.16829951 0.5821852,0.22811732 1.3184738,0.26233686 1.8340117,-0.13944832 C 5.3155166,-0.97398779 5.3633289,-2.1634878 4.651253,-2.7285495 3.6315825,-3.5552543 2.2543861,-3.857853 1.3584668,-4.8525483 0.67600843,-5.6011487 0.71054941,-6.8106697 1.2956738,-7.6057085 1.652111,-8.188794 2.3186906,-8.5388313 2.998563,-8.5298851 c 0.7099794,-0.036409 1.4090756,0.3075153 1.8374511,0.8703597 0.2422694,-0.1793484 0.2208822,-0.6702422 0.4938735,-0.730909 0.1148529,0.015527 0.3245948,-0.063836 0.2670728,0.1240655 0,0.8030282 0,1.6060565 0,2.4090847 -0.120411,-0.028133 -0.3353414,0.062152 -0.3833478,-0.056692 C 5.0245428,-6.7010601 4.5815093,-7.4810865 3.8642881,-7.8935469 3.2317428,-8.2344042 2.3122048,-8.1233218 1.9272796,-7.4663164 c -0.3550465,0.5469945 -0.142861,1.3140902 0.37841,1.676802 0.9209287,0.7101766 2.1140616,0.9653204 3.0002839,1.7313426 0.5284686,0.423691 0.7651982,1.1087395 0.8423953,1.7613506 0.083685,0.8145246 -0.2508325,1.67176501 -0.929662,2.14965576 -0.9573714,0.70932125 -2.3986349,0.61691211 -3.2751863,-0.18532813 -0.1788767,-0.22386041 -0.3542574,-0.33748759 -0.4701256,-0.006365 -0.1913701,0.17585594 -0.105276,0.67394013 -0.437974,0.59918265 -0.0681292,0 -0.13625829,0 -0.20438742,-3.4e-7 z"
             style="font-family:Baskerville;-inkscape-font-specification:Baskerville"
             id="path448542" />
        </g>
      </g>
      <path
         style="fill:none;stroke:#ff0000;stroke-width:2;stroke-miterlimit:2;stroke-dasharray:none"
         d="m 260.85181,225.42273 -8.10107,9.47027"
         id="path449455" />
    </g>
  </g>
</svg>
