<svg xmlns="http://www.w3.org/2000/svg" width="657.08" height="400"><path d="M-18.071 1292.943h159.197v71.08H-18.071z" style="fill:#ffd5d5;stroke:#000;stroke-width:.0257275" transform="translate(195.476 -632.155)"/><path d="M-301.368 959.311c-2.903-.934-5.915-1.634-8.36-2.534-5.997-2.242-13.177-5.485-17.804-9.99-5.054-4.921-8.087-10.979-8.262-18.006-.083-3.364.472-6.844 1.791-9.943 2.149-5.045 6-10.682 10.69-14.251 4.281-3.26 8.884-5.326 14.116-6.384 1.447-.293 2.941-.33 4.42-.367.675-.018 1.343.133 2.015.2M-220.271 874.424c-10.502-3.124-19.775-5.872-27.78-7.126-6.578-1.003-13.216-1.804-19.872-1.991-19.886-.56-24.008 1.152-43.348 4.528-15.138 5.142-19.483 5.532-32.75 14.208-4.23 2.767-8.617 6.668-10.202 11.628-.31.967-.058 2.042.143 3.036.107.526.508.953.762 1.43M-293.34 1039.567c3.645-.395 7.363-.45 10.456-.93 13.088-2.108 16.73-4.677 24.274-9.192 3.196-1.912 5.843-4.835 7.863-7.938 6.666-10.243 5.295-23.11-1.25-33.015-2.441-3.696-5.596-6.983-9.06-9.805-3.611-2.94-7.677-5.45-11.962-7.319-9.986-4.353-12.715-5.558-23.215-6.364-2.512-.192-5.097-.192-7.549.37-3.39.779-6.427 2.194-8.599 3.267M-153.56 1052.834l-.992 2.908c-.775 1.092-1.534 2.194-2.324 3.276-.46.628-.768 1.42-1.424 1.852-7.732 5.1-17.403 7.105-26.478 8.359-4.122.57-8.286.8-12.43 1.2-4.417.108-8.833.363-13.252.325-8.647-.075-18.595-.774-27.166-1.899-7.977-1.046-16.289-2.615-24.027-4.838-3.21-.923-6.317-2.156-9.476-3.234-5.591-2.638-8.352-3.48-12.983-7.21-2.68-2.16-5.5-5.149-5.014-8.82.06-.45.365-.835.548-1.253" style="fill:#000;stroke:#000;stroke-width:.0410726" transform="translate(54.236 -521.453)"/><path d="M-70.663 744.626c-1.453-.165-2.898-.533-4.36-.493-13.473.369-26.695 5.227-37.584 13.175-6.907 5.041-13.83 10.314-19.345 16.848-4.457 5.28-6.76 12.054-10.14 18.082-1.11 6.65-3.536 13.212-3.332 19.952.43 14.114 6.367 26.297 16.184 36.225 8.867 8.966 22.734 15.578 34.215 20.22 5.142 2.078 10.516 3.525 15.774 5.288l4.893-3.998c-5.306-1.657-10.73-2.975-15.917-4.972-11.421-4.396-25.092-10.757-33.903-19.593-9.625-9.653-15.4-21.533-15.732-35.315-.16-6.598 2.273-13.001 3.41-19.502 5.365-9.228 10.917-21.475 19.845-28.476 8.154-6.395 17.426-9.922 27.39-11.997 2.756-.575 5.601-.645 8.416-.72 1.285-.034 2.558.263 3.838.394l6.348-5.118z" style="fill:#000;stroke:#000;stroke-width:.079375" transform="matrix(.52516 0 0 .50986 235.494 -594.78)"/><path d="M-63.595 746.319c-.499-.793-1.29-1.465-1.495-2.38-1.228-5.497.856-9.436 4.733-13.886 18.075-20.747 42.231-26.611 67.152-35.784 36.882-7.108 44.98-10.774 82.908-9.607 12.536.386 25.032 2.054 37.395 4.165 21.577 3.684 31.785 8.044 51.443 14.93l4.27-3.475c-20.289-6.443-30.835-10.51-52.898-13.976-12.527-1.968-25.166-3.54-37.842-3.907-37.866-1.096-45.716 2.26-82.541 8.882-28.828 10.085-37.101 10.85-62.362 27.866-8.056 5.427-16.41 13.08-19.429 22.806-.589 1.898-.11 4.005.273 5.955.203 1.033.967 1.87 1.45 2.805l6.943-4.394zM199.76 739.036c1.067-1.122 1.851-2.092 3.699-2.437.589-.11.994.859 1.593.834 4.898-.206 9.73-1.683 14.629-1.513 20.205.699 25.104 4.27 44.82 11.197 7.587 4.69 15.91 8.356 22.761 14.068 6.53 5.443 12.419 11.858 16.958 19.045 12.178 19.281 14.246 44.225 1.332 63.783-3.918 5.933-10.063 10.046-15.094 15.07-16.957 8.15-16.233 9.093-36.725 12.595-6.46 1.103-13.054 1.169-19.58 1.753l-4.248 4.15c6.637-.608 13.336-.734 19.91-1.824 24.924-4.133 22.314-5.403 46.224-18.027 4.99-5.19 11.126-9.483 14.972-15.57 12.694-20.09 10.083-45.326-2.378-64.752-4.65-7.249-10.657-13.696-17.255-19.231-6.875-5.769-15.185-9.57-22.777-14.355-19.472-7.368-24.212-10.902-44.207-12.482-4.782-.377-9.705-.378-14.374.726-3.628.858-13.256 4.302-17.392 8.504-.345.35-.416.892-.624 1.337l7.756-2.87zM-52.882 871.15c-.212.992-.633 1.96-.637 2.974-.029 8.057 5.06 13.718 11.076 18.526 9.223 7.37 14.614 8.976 25.654 14.124 6.144 2.077 12.193 4.458 18.432 6.232 14.97 4.257 30.992 7.217 46.385 9.229 16.319 2.133 35.482 3.528 51.94 3.727 8.406.102 16.811-.345 25.217-.518 7.866-.723 15.767-1.134 23.598-2.168 17.188-2.269 35.063-5.897 50.01-15.21 4.866-3.031 9.675-6.257 13.89-10.143 2.043-1.885 3.088-4.625 4.632-6.937l1.954-6.214-7.132 2.522-1.889 5.704c-1.475 2.141-2.92 4.304-4.426 6.425-.875 1.232-1.462 2.784-2.712 3.633-14.723 10.002-33.139 13.934-50.42 16.394-7.848 1.117-15.778 1.569-23.667 2.353-8.411.213-16.82.713-25.235.638-16.466-.146-35.409-1.518-51.73-3.724-15.189-2.053-31.017-5.128-45.752-9.49-6.113-1.81-12.03-4.229-18.045-6.343-10.645-5.173-15.903-6.824-24.722-14.142-5.102-4.233-10.472-10.097-9.546-17.296.113-.883.694-1.64 1.042-2.46l-7.917 2.165z" style="fill:#000;stroke:#000;stroke-width:.079375" transform="matrix(.52516 0 0 .50986 235.494 -594.78)"/><path d="M129.008 623.095c-.763-.084-1.522-.272-2.29-.251-7.075.188-14.82 2.531-20.54 6.584-3.626 2.57-6.46 5.392-9.356 8.723-2.34 2.693-4.109 5.885-5.325 9.22-1.18 3.232-1.858 6.736-1.75 10.172.225 7.196 3.344 13.408 8.5 18.47 4.655 4.57 11.938 7.942 17.967 10.309 2.7 1.06 5.523 1.797 8.284 2.696" style="fill:none;stroke:#000;stroke-width:.529167;stroke-miterlimit:4;stroke-dasharray:none" transform="translate(194.203 -835.483)"/><path d="M128.94 623.77c-.262-.405-.678-.748-.785-1.214-.645-2.803.45-4.811 2.485-7.08 9.493-10.578 25.694-15.797 35.266-18.245 13.203-3.376 27.21-5.386 43.54-4.898 6.583.197 13.145 1.048 19.638 2.124 11.33 1.878 16.692 4.1 27.015 7.612M266.193 622.087c2.588-1.154 4.616-1.753 6.852-2.281a29.289 29.289 0 0 1 7.683-.772c10.61.357 13.426 1.533 23.537 5.71 4.295 1.773 8.356 4.26 11.954 7.172 3.428 2.775 6.521 6.046 8.905 9.71 6.395 9.83 7.481 22.548.7 32.52-2.058 3.025-4.479 5.299-7.66 7.149-5.5 3.2-12.26 5.746-19.554 6.956-3.392.563-6.855.596-10.283.894M138.346 687.605c-.112.505-.333.999-.334 1.516-.016 4.107 2.656 6.994 5.816 9.445 4.844 3.758 7.675 4.577 13.472 7.201 3.227 1.06 6.404 2.273 9.68 3.178 7.861 2.17 16.275 3.68 24.36 4.705 8.57 1.088 18.633 1.8 27.275 1.9 4.415.053 8.83-.175 13.244-.264 4.13-.368 8.28-.578 12.392-1.105 9.027-1.157 18.414-3.007 26.264-7.755 2.555-1.545 5.08-3.19 7.293-5.171 1.074-.961 1.622-2.358 2.433-3.537l1.026-3.168" style="fill:none;stroke:#000;stroke-width:.529167;stroke-miterlimit:4;stroke-dasharray:none" transform="translate(194.203 -835.483)"/><path d="M-49.631 580.905c-.262-.405-.678-.747-.785-1.213-.645-2.803.45-4.812 2.485-7.08 9.493-10.579 25.694-15.797 35.266-18.245 13.203-3.377 27.21-5.386 43.54-4.898 6.583.196 13.145 1.047 19.638 2.123 11.33 1.879 16.692 4.101 27.015 7.612" style="fill:none;stroke:#000;stroke-width:.529167;stroke-miterlimit:4;stroke-dasharray:none" transform="translate(195.476 -632.155)"/><path d="M5.782 785.503c-.763-.09-1.521-.295-2.289-.272-7.073.204-14.815 2.746-20.532 7.142-3.626 2.789-6.3 5.332-9.195 8.947-2.34 2.92-4.266 6.902-5.482 10.519-1.18 3.507-1.857 7.308-1.75 11.036.226 7.807 3.343 14.546 8.497 20.037 4.654 4.96 11.298 9.652 17.167 11.53 7.338 2.347 13.947 3.502 19.092 3.615" style="fill:none;stroke:#000;stroke-width:.551069;stroke-miterlimit:4;stroke-dasharray:none" transform="translate(-241.8 -749.122)"/><path d="M4.854 785.68c-.263-.408-.686-.758-.789-1.226-.616-2.813.55-4.801 2.695-7.034 9.997-10.41 26.83-15.345 36.763-17.627 13.702-3.146 28.21-4.912 45.073-4.142 6.799.31 13.564 1.275 20.253 2.463 10.094 1.793 17.293 3.365 23.726 6.97 2.495 1.4 6.184 3.946 8.188 6.097 1.52 1.632 3.257 5.617 1.323 9.018-.56.985-1.807 3.338-5.626 5.232" style="fill:none;stroke:#000;stroke-width:.537854;stroke-miterlimit:4;stroke-dasharray:none" transform="translate(-241.8 -749.122)"/><path d="M128.347 786.572c2.587-1.227 4.615-1.864 6.85-2.426a27.604 27.604 0 0 1 7.681-.82c10.609.379 13.424 1.63 23.533 6.07 4.294 1.886 8.354 4.53 11.95 7.626 3.429 2.95 6.52 6.428 8.904 10.324 6.394 10.453 7.48 23.975.7 34.577-2.058 3.216-4.478 5.634-7.658 7.6-5.5 3.403-12.257 6.11-19.55 7.397-3.391.598-6.854.634-10.28.95" style="fill:none;stroke:#000;stroke-width:.545583;stroke-miterlimit:4;stroke-dasharray:none" transform="translate(-241.8 -749.122)"/><path d="M9.338 854.42c-.082.512-.274 1.017-.246 1.534.224 4.101 3.06 6.827 6.356 9.091 5.054 3.47 7.928 4.123 13.868 6.406 3.283.87 6.525 1.897 9.848 2.61 7.974 1.71 16.462 2.727 24.592 3.282 8.618.588 18.706.713 27.34.312 4.41-.205 8.804-.69 13.206-1.034 4.102-.607 8.232-1.058 12.307-1.823 8.944-1.68 18.208-4.072 25.768-9.268 2.461-1.692 4.887-3.48 6.981-5.587 1.016-1.022 1.482-2.448 2.223-3.672l.84-3.223" style="fill:none;stroke:#000;stroke-width:.529167;stroke-miterlimit:4;stroke-dasharray:none" transform="translate(-241.8 -749.122)"/><path d="M-47.7 861.897c-.063.374-.206.744-.188 1.123.142 3.009 2.205 5.022 4.608 6.7 3.683 2.57 5.785 3.064 10.124 4.769 2.4.655 4.77 1.425 7.2 1.965 5.831 1.295 12.043 2.086 17.994 2.535 6.31.475 13.698.62 20.024.37 3.232-.127 6.452-.459 9.678-.688 3.008-.425 6.035-.734 9.024-1.274 6.56-1.185 13.357-2.89 18.922-6.662 1.811-1.227 3.597-2.526 5.142-4.06.75-.744 1.714-2.302 1.938-3.248.042-.225-.768.378-.64.35 2.266-.036 4.102-.227 6.586-.666 5.342-.943 10.728-2.929 14.757-5.423 2.329-1.443 4.102-3.216 5.608-5.574 4.967-7.775 4.171-17.69-.512-25.355-1.745-2.857-4.01-5.407-6.521-7.571-2.635-2.27-5.609-4.21-8.754-5.593-7.404-3.256-9.466-4.173-17.236-4.45a20.139 20.139 0 0 0-5.626.6c-1.299.328-.145 1.492.925.943 2.779-1.425 3.71-3.114 4.12-3.837 1.417-2.494.12-5.395-.969-6.612-1.934-2.161-4.113-3.554-5.997-4.471-4.712-2.294-9.985-3.797-17.379-5.112-4.9-.871-9.854-1.578-14.834-1.806-12.352-.565-22.978.73-33.014 3.038-7.276 1.673-19.605 5.292-26.928 12.925-1.57 1.638-2.425 3.096-1.973 5.159.075.343.661.768.972.943.41.23.974.004.285-.174a6.044 6.044 0 0 0-1.677-.2c-5.18.15-10.851 2.014-15.039 5.238-2.656 2.045-4.614 3.91-6.734 6.56-1.714 2.142-3.125 5.062-4.016 7.714-.863 2.572-1.36 5.36-1.281 8.093.165 5.725 2.448 10.666 6.223 14.693 3.41 3.637 8.275 7.078 12.574 8.455 4.253 1.362 8.17 2.176 11.488 2.498.875.085 2.583.136 3.37.153" style="fill:#ffe6d5;stroke:#000;stroke-width:1.15;stroke-miterlimit:4;stroke-dasharray:none" transform="translate(195.476 -632.155)"/><path d="M11.29 858.057c-5.145-.113-11.754-1.268-19.092-3.616-5.869-1.877-12.513-6.57-17.167-11.529-5.154-5.491-8.271-12.23-8.496-20.037-.108-3.728.57-7.53 1.749-11.036 1.216-3.617 3.142-7.599 5.482-10.52 2.896-3.614 5.569-6.157 9.195-8.946 5.717-4.396 13.459-6.938 20.532-7.142.768-.023 1.526.181 2.289.272.435.33-.027.383-.39.238-.45-.182-1.224-.82-1.327-1.287-.616-2.813.55-4.801 2.695-7.034 9.997-10.41 26.83-15.345 36.763-17.627 13.702-3.146 28.21-4.912 45.073-4.142 6.799.31 13.564 1.275 20.253 2.463 10.094 1.793 17.293 3.365 23.726 6.97 2.495 1.4 6.184 3.946 8.188 6.097 1.52 1.632 3.257 5.617 1.323 9.018-.56.985-1.807 3.338-5.626 5.232" style="fill:none;stroke:#000;stroke-width:.551069;stroke-miterlimit:4;stroke-dasharray:none" transform="translate(409.374 -105.447)"/><path d="M128.347 786.572c2.587-1.227 4.615-1.864 6.85-2.426a27.604 27.604 0 0 1 7.681-.82c10.609.379 13.424 1.63 23.533 6.07 4.294 1.886 8.354 4.53 11.95 7.626 3.429 2.95 6.52 6.428 8.904 10.324 6.394 10.453 7.48 23.975.7 34.577-2.058 3.216-4.478 5.634-7.658 7.6-5.5 3.403-12.257 6.11-19.55 7.397-3.391.598-6.854.634-10.28.95" style="fill:none;stroke:#000;stroke-width:.545583;stroke-miterlimit:4;stroke-dasharray:none" transform="translate(409.374 -105.447)"/><path d="M9.338 854.42c-.082.512-.274 1.017-.246 1.534.224 4.101 3.06 6.827 6.356 9.091 5.054 3.47 7.928 4.123 13.868 6.406 3.283.87 6.525 1.897 9.848 2.61 7.974 1.71 16.462 2.727 24.592 3.282 8.618.588 18.706.713 27.34.312 4.41-.205 8.804-.69 13.206-1.034 4.102-.607 8.232-1.058 12.307-1.823 8.944-1.68 18.208-4.072 25.768-9.268 2.461-1.692 4.887-3.48 6.981-5.587 1.016-1.022 1.482-2.448 2.223-3.672l.84-3.223" style="fill:none;stroke:#000;stroke-width:.529167;stroke-miterlimit:4;stroke-dasharray:none" transform="translate(409.374 -105.447)"/><path d="M-100.33 825.17c-4.108-1.645-9.12-2.181-13.3-1.113-4.643.947-8.577 2.947-12.162 7.428-2.542 3.178-3.86 8.346-2.025 12.23 2.203 4.792 6.82 7.454 11.408 8.917 5.108 1.624 11.718 1.61 16.862-.924 3.657-1.8 6.21-4.059 7.584-8.338.884-2.425.769-6 .198-8.542-.712-3.17-3.505-6.552-6.453-8.352-.235-.143-1.601-1.252-3.268.18" style="fill:#ffe6d5;stroke:#000;stroke-width:1.15;stroke-miterlimit:4;stroke-dasharray:none" transform="translate(195.476 -632.155)"/><path d="M-300.454 808.951c2.566 2.75 4.925 4.927 6.09 7.783.333 1.325.867 2.615 1 3.975.313 3.195-.271 6.232-1.91 9.03-.957 1.63-2.48 2.865-3.552 4.421-.216.313.068.92-.261 1.11-2.123 1.222-4.495 1.948-6.743 2.922-2.625.263-5.237.85-7.875.788a35.482 35.482 0 0 1-8.14-1.158c-6.035-1.581-13.835-5.627-16.186-11.939-.632-1.698-.363-3.605-.545-5.407.82-1.875 1.252-3.972 2.459-5.625 1.494-2.045 3.597-3.572 5.49-5.257.615-.547 1.267-1.087 2.017-1.427 2.28-1.035 4.596-2.05 7.021-2.673 3.651-.938 6.041-.621 9.543-.444M-89.699 1293.664c2.618 2.873 1.443 1.516 3.031 3.554.455.79 1.003 1.532 1.365 2.369.743 1.72 1.2 3.841 1.034 5.724-.085.967-.304 1.94-.693 2.829-.421.963-2.163 1.707-1.705 2.652.4.823 1.769-.464 2.653-.696-1.206.54-2.34 1.279-3.617 1.619-6.263 1.667-13.238-.794-17.048-6.056-.974-1.344-1.453-2.985-2.179-4.477-.187-4.653-.926-5.302 1.809-9.435.927-1.4 2.664-2.19 3.449-3.675.291-.552-2.36.808-1.795.541 2.52-1.193 2.737-1.093 5.09-1.472" style="fill:#ffd5d5;stroke:#000;stroke-width:1.5875;stroke-miterlimit:4;stroke-dasharray:none" transform="translate(195.476 -632.155)"/><path d="M-147.615 830.433c-2.491-1.955-6.6-1.688-9.767.756-1.938 1.496-3.105 3.97-3.336 6.368-.126 1.315-.154 2.64.274 3.83.905 3.94 4.1 5.534 6.662 6.17 2.047.508 5.684.092 7.617-1.28 2.274-1.403 3.978-3.268 3.922-7.027-.03-2.058-1.112-6.203-4.1-7.94-.45-.262-1.203-.58-1.844.203" style="fill:#ffe6d5;stroke:#000;stroke-width:1.15;stroke-miterlimit:4;stroke-dasharray:none" transform="translate(195.476 -632.155)"/><path d="M-155.244 1281.762c-5.393 2.446-16.06 7.951-16.013 15.489.008 1.244.599 2.414.899 3.622.787 1.014 1.385 2.211 2.363 3.043 3.363 2.861 8.052 3.171 12.205 2.47 1.288-.218 2.596-.493 3.774-1.058 2.9-1.394 5.589-3.19 8.383-4.785.647-.828 1.437-1.562 1.94-2.485 1.801-3.301.745-6.947-1.416-9.747-.42-.545-.934-1.01-1.401-1.515-1.749-1.429-.884-.798-2.573-1.92l-5.513 4.04c1.592.905.781.39 2.415 1.571 1.406 1.397 2.761 2.808 3.088 4.876.434 2.739-1.07 4.678-3.017 6.384.848-.402 3.477-1.283 2.543-1.206-1.268.104-2.353.994-3.589 1.292-3.638.878-8.108 1.034-11.255-1.387-.85-.654-1.357-1.662-2.036-2.493-.211-.987-.69-1.953-.633-2.96.135-2.414 1.677-4.446 3.25-6.1.864-.908 2.756-1.194 2.86-2.445.085-1.02-1.814.963-2.768 1.334-.641.25 1.215-.644 1.822-.966l4.672-5.054zM-230.99 780.873c-4.596-1.61-11.375-1.142-14.872-.3-6.79 1.634-11.77 2.986-17.2 6.887-2.972 2.136-6.248 5.646-7.707 7.806-1.242 1.839-2.153 4.464-2.463 6.661-.285 2.022.008 4.174.734 6.083 3.539 9.311 16.516 13.953 25.544 14.41 2.687.135 5.419.016 8.053-.532 2.43-.505 5.121-1.403 7.3-2.594 7.424-4.055 13.798-7.998 15.35-16.76.706-3.99.109-5.545-1.058-9.216-1.13-3.558-4.872-7.773-9.383-10.475" style="fill:#ffd5d5;stroke:#000;stroke-width:1.5875;stroke-miterlimit:4;stroke-dasharray:none" transform="translate(195.476 -632.155)"/><path d="M-237.145 893.14c-6.12-2.286-13.588-3.032-19.817-1.547-6.917 1.316-12.78 4.096-18.121 10.323-3.788 4.416-5.75 11.598-3.017 16.996 3.283 6.66 10.16 10.36 16.998 12.393 7.61 2.256 17.459 2.236 25.124-1.284 5.449-2.503 9.252-5.64 11.299-11.588 1.318-3.37 1.482-8.435.296-11.87-1.145-4.757-5.905-9.857-10.668-12.162" style="fill:#ffd5d5;stroke:#000;stroke-width:1.53921;stroke-miterlimit:4;stroke-dasharray:none" transform="translate(195.476 -632.155)"/><path d="M160.968 218.644q0 .356-.164.52h-.494q-3.537 0-4.935-1.809-.137-.192-.22-.329-.081-.137-.136-.301-.055-.165-.11-.357-.055-.192-.055-.411 0-.22-.027-.603-.028-.384-.028-.74V210.856q-.027-2.44-.137-2.742-.027-.027-.027-.054-.384-.987-1.371-1.536-.987-.548-1.947-.548-.301 0-.384-.082-.082-.083-.082-.44 0-.356.082-.438.083-.082.384-.082.933 0 1.92-.548.987-.549 1.398-1.536.137-.301.137-.877 0-.576.027-4.168v-1.37q0-1.508.165-2.112.164-.603.795-1.151.713-.713 2.193-1.152 1.015-.22 1.453-.247h.357q.302 0 .493-.027h.549q.164.165.164.494 0 .356-.082.438-.055.083-.439.083-1.453.082-2.275.658-.823.575-.987 1.151-.137.357-.137 4.058v2.248q0 1.289-.083 1.755-.082.466-.466 1.07-.85 1.178-2.385 1.617l-.384.137.384.137q.493.164.987.411.493.247 1.151.932.658.686.768 1.618.028.165.028 3.729 0 3.701.137 4.058.274.74 1.179 1.233.904.494 2.083.576.384 0 .439.082.082.083.082.412zM173.992 193.447q.11-.165.329-.165h.575q.165.165.165.22 0 .192-.823 3.372-.192.768-.383 1.618-.192.85-.33 1.261l-.11.439q0 .027.248.027.246 0 .877.165.63.164 1.316.466 1.206.575 2.002 1.672.795 1.097.795 2.66 0 1.563-.85 2.988-.85 1.426-2.111 2.358-1.262.932-2.66 1.48-1.398.549-2.605.576h-.11l-.657 2.605q-.165.63-.357 1.508-.22.877-.301 1.042-.083.164-.33.192h-.164q-.548 0-.548-.192 0-.137.603-2.605l.63-2.522q0-.028-.219-.028-.137 0-.548-.054-.411-.055-1.234-.384-.822-.33-1.48-.823-.658-.493-1.234-1.453-.576-.96-.521-2.248 0-1.645.905-3.098.904-1.453 2.22-2.358 1.316-.905 2.66-1.426 1.343-.52 2.413-.52.137 0 .164-.11l.823-3.345q.85-3.263.85-3.318zm-7.87 14.75q0 .933.33 1.618.329.686.905 1.042.575.357.987.494.41.137.932.219h.192l2.55-10.336q-.11 0-.302.027t-.795.22q-.603.191-1.152.438-.548.247-1.206.795-.658.548-1.124 1.261-.494.768-.905 1.837-.411 1.262-.411 2.386Zm10.365-3.618q0-1.042-.439-1.783-.439-.74-1.097-1.041-.658-.302-1.069-.412-.411-.11-.658-.11h-.082l-1.261 5.128-1.317 5.154q0 .055.028.055.22 0 .877-.165.658-.164 1.097-.383 1.179-.521 2.029-1.453.85-.933 1.206-1.92.357-.987.521-1.754.165-.768.165-1.316zM180.928 192.268q0-.384.083-.439.082-.055.548-.082 2.276 0 3.51.686 1.233.685 1.727 1.507.246.576.274.96.027.384.055 3.674.027 3.811.055 3.948.356 1.234 1.425 1.81 1.07.576 1.974.603.302 0 .384.082.082.082.082.439 0 .356-.082.439-.082.082-.384.082-1.014 0-1.974.576-.96.575-1.288 1.453-.137.384-.165.987-.027.603-.027 4.085v1.398q0 1.508-.165 2.111-.164.604-.795 1.152-1.48 1.426-4.579 1.426-.493 0-.575-.083-.083-.082-.083-.466v-.192q0-.027.028-.137.027-.11.082-.11.055 0 .22-.027.383 0 .85-.082.465-.082 1.041-.274.576-.192 1.015-.63.438-.44.658-1.043.027-.137.054-3.893l.028-3.729q.356-1.563 1.92-2.495.959-.466 1.37-.548-.685-.192-1.37-.548-1.509-.933-1.865-2.249l-.055-.274-.028-3.729q-.027-3.756-.054-3.893-.33-1.097-1.454-1.535-1.124-.44-2.11-.466-.247 0-.275-.083-.027-.082-.055-.411zM205.028 218.205h-.192q-.191 0-.329-.082-.137-.082-.164-.22-.027-.137-.055-.191 0-.192.137-.384l4.442-8.664h-6.47q-.385-.192-.385-.549 0-.41.44-.548h6.99l2.167-4.222h-9.158q-.439-.137-.439-.549 0-.356.384-.548h9.761q4.688-9.185 4.825-9.322.083-.247.44-.247.191 0 .328.11t.165.247q.027.137.054.192 0 .11-4.578 9.02h6.47q.412.22.412.548 0 .302-.384.521l-7.047.028-2.193 4.222h9.24q.384.274.384.548 0 .357-.412.549h-9.76q-4.826 9.404-4.963 9.459-.11.082-.302.082zM240.644 193.447q.11-.165.329-.165h.576q.164.165.164.22 0 .192-.822 3.372-.192.768-.384 1.618-.192.85-.33 1.261l-.109.439q0 .027.247.027t.877.165q.63.164 1.316.466 1.207.575 2.002 1.672.795 1.097.795 2.66 0 1.563-.85 2.988-.85 1.426-2.111 2.358-1.261.932-2.66 1.48-1.398.549-2.604.576h-.11l-.658 2.605q-.165.63-.357 1.508-.219.877-.301 1.042-.082.164-.33.192h-.164q-.548 0-.548-.192 0-.137.603-2.605l.63-2.522q0-.028-.219-.028-.137 0-.548-.054-.411-.055-1.234-.384-.822-.33-1.48-.823-.658-.493-1.234-1.453-.576-.96-.521-2.248 0-1.645.905-3.098.905-1.453 2.22-2.358 1.317-.905 2.66-1.426 1.344-.52 2.413-.52.137 0 .164-.11l.823-3.345q.85-3.263.85-3.318zm-7.869 14.75q0 .933.329 1.618.329.686.905 1.042.576.357.987.494.411.137.932.219h.192l2.55-10.336q-.11 0-.302.027t-.795.22q-.603.191-1.151.438-.549.247-1.207.795t-1.124 1.261q-.493.768-.905 1.837-.411 1.262-.411 2.386zm10.364-3.618q0-1.042-.439-1.783-.439-.74-1.097-1.041-.658-.302-1.069-.412-.411-.11-.658-.11h-.082l-1.261 5.128-1.316 5.154q0 .055.027.055.22 0 .877-.165.658-.164 1.097-.383 1.18-.521 2.029-1.453.85-.933 1.206-1.92.357-.987.521-1.754.165-.768.165-1.316z"/></svg>