<svg xmlns="http://www.w3.org/2000/svg" width="450" height="70"><path d="M369.047-285.772a10.728 10.728 0 0 0-2.29-2.703c-.321-.271-.667-.512-1-.768-.41-.247-.804-.522-1.23-.742-2.228-1.154-4.753-1.705-7.238-1.906-.72-.058-1.443-.054-2.164-.08-1.94.041-3.91.223-5.723.978-.885.368-1.595.75-2.087 1.597-.17.292-.198.645-.297.967-.003.934.235 1.611.836 2.321.2.237.526.569.855.637-.057-.069-.093-.163-.171-.206-.298-.164-1.067-.281-1.329-.303-1.404-.116-2.648.128-4.02.379-.54.145-1.086.27-1.62.436-1.994.623-4.117 1.549-5.68 2.973-.326.298-.597.65-.895.975-.507.88-.784 1.149-.904 2.178-.148 1.264.313 2.558 1.01 3.593.277.41.63.763.945 1.145.402.337.778.71 1.208 1.012 1.708 1.202 3.734 1.796 5.78 2.076.405.056.812.078 1.218.117 1.148.008 2.49.11 3.538-.467.015.093.32-.361.194-.352-.042.003-.077.036-.115.054.011.066.011.136.034.199.414 1.054 1.894 1.843 2.803 2.36.402.177.794.378 1.205.534 2.098.793 4.385 1.212 6.622 1.309.617.026 1.234 0 1.85 0 .606-.057 1.216-.077 1.817-.172 1.958-.31 4.087-1.045 5.61-2.36.252-.217.454-.485.681-.728.127-.226.288-.437.381-.68.325-.846-.068-1.453-.755-1.893-.065-.013-.13-.055-.194-.04-.202.044-.085.271-.019.355.084.105.195.19.31.26.451.28.78.34 1.298.502 1.894.411 3.878.34 5.751-.157.416-.11.82-.263 1.229-.395 1.47-.57 2.868-1.37 3.798-2.681.564-.795.55-.991.838-1.9.03-.337.095-.673.092-1.011-.008-1.062-.327-2.12-.845-3.041-.478-.85-.725-1.043-1.375-1.764-1.155-1.093-2.51-1.952-4.02-2.466-1.03-.35-1.3-.344-2.367-.506-.856-.053-1.315-.123-2.158-.019-.288.036-.568.12-.852.181" style="fill:#e5f6ff;fill-opacity:1;stroke:#000;stroke-width:.999997;stroke-dasharray:none"/><g style="stroke-width:1.25"><path d="M79.762 32.461v-.08c-.407 0-.515-.099-.515-.332v-3.238l-.049-.016-.97.493v.076l.146-.054a.82.82 0 0 1 .244-.065c.114 0 .162.081.162.266v2.435c0 .298-.113.412-.515.434v.081zM82.772 28.958v-.087h-2.001l-.325.797.097.049c.228-.369.32-.445.635-.445h1.166l-1.074 3.233h.353z" style="font-size:5.42396px;font-family:STIXGeneral;-inkscape-font-specification:STIXGeneral;stroke:#000;stroke-width:0" transform="matrix(3.02362 0 0 3.02362 -98.213 211.227)"/></g><path d="M164.91 305.62v-1.033h-8.696v1.033z" style="font-size:5.42396px;font-family:STIXGeneral;-inkscape-font-specification:STIXGeneral;stroke:#000;stroke-width:0"/><path d="M13.441-144.177h468.832M39.572-155.954v23.924M67.538-155.954v23.924M95.504-155.954v23.924M123.47-155.954v23.924M151.436-155.954v23.924M179.403-155.954v23.924M207.369-155.954v23.924M235.335-155.954v23.924M263.301-155.954v23.924M291.267-155.954v23.924M319.233-155.954v23.924M347.2-155.954v23.924M375.166-155.954v23.924M403.132-155.954v23.924M431.098-155.954v23.924M459.064-155.954v23.924" style="fill:#e5f6ff;stroke:#000;stroke-width:.899998;stroke-dasharray:none"/><path d="M84.84 27.276h.116v2.812q0 .347.008.437.011.09.077.138.066.048.236.048h.103v.122h-1.192v-.122h.088q.19 0 .246-.053.058-.056.066-.13.01-.077.01-.44v-1.885q0-.358-.007-.432-.008-.077-.069-.132-.058-.059-.246-.059h-.114v-.121q.458-.008.678-.183zM86.408 30.833v-.165q.302-.235.763-.744.463-.51.667-.882.204-.37.204-.75 0-.452-.207-.664-.206-.214-.513-.214-.302 0-.47.196-.163.195-.163.418 0 .254.214.403.08.055.08.084 0 .048-.09.13t-.149.082q-.08 0-.193-.159-.111-.161-.111-.413 0-.405.315-.64.315-.24.691-.24.397 0 .715.247.32.246.32.731 0 .305-.142.58-.144.273-.697.837-.55.561-.887.845h1.684l-.15.593h-.125q0-.048.016-.095.008-.027.008-.072 0-.08-.035-.095-.034-.013-.185-.013z" style="font-size:5.42396px;font-family:Baskerville;-inkscape-font-specification:Baskerville;fill:#000;stroke:none;stroke-width:.238125;stroke-dasharray:none" transform="translate(-370.986 221.852) scale(3.77952)"/><path d="M90.264 27.276h.116v2.812q0 .347.008.437.01.09.077.138.066.048.236.048h.103v.122h-1.192v-.122h.088q.19 0 .246-.053.058-.056.066-.13.01-.077.01-.44v-1.885q0-.358-.007-.432-.008-.077-.069-.132-.058-.059-.246-.059h-.114v-.121q.458-.008.678-.183zM92.87 28.905q.082-.024.164-.024.39 0 .612.267.225.265.225.668 0 .484-.331.794-.331.31-.853.31-.35 0-.601-.159-.252-.159-.252-.342 0-.076.048-.13.048-.055.125-.055.137 0 .196.188.074.241.211.31.135.071.268.071.334 0 .54-.243.21-.244.21-.755 0-.41-.157-.612-.153-.201-.365-.201-.183 0-.403.222-.037.04-.077.04-.08 0-.08-.085 0-.037.04-.076.043-.043.234-.173.418-.283.553-.47.135-.189.135-.475 0-.273-.14-.421-.14-.151-.374-.151-.238 0-.423.154-.183.15-.183.386 0 .188.162.352.018.019.018.032 0 .035-.087.074-.088.04-.127.04-.083 0-.154-.124-.072-.125-.072-.27 0-.294.255-.533.254-.238.68-.238.437 0 .66.201.225.199.225.445 0 .217-.154.405-.15.186-.514.43z" style="font-size:5.42396px;font-family:Baskerville;-inkscape-font-specification:Baskerville;fill:#000;stroke:none;stroke-width:.238125;stroke-dasharray:none" transform="translate(-365.04 221.852) scale(3.77952)"/><path d="M95.688 27.276h.116v2.812q0 .347.008.437.01.09.077.138.066.048.236.048h.103v.122h-1.192v-.122h.088q.19 0 .246-.053.058-.056.066-.13.01-.077.01-.44v-1.885q0-.358-.007-.432-.008-.077-.069-.132-.058-.059-.246-.059h-.114v-.121q.458-.008.678-.183zM98.426 29.638h-1.303v-.159l1.513-2.203h.17v2.203h.243q.225 0 .267-.026.043-.027.117-.225h.116l-.06.41h-.684v.45q0 .384.013.467.016.079.088.119.071.037.265.037v.122h-1.158v-.122h.093q.159 0 .225-.043.069-.045.082-.124.013-.08.013-.456zm0-.159v-1.681l-1.154 1.681z" style="font-size:5.42396px;font-family:Baskerville;-inkscape-font-specification:Baskerville;fill:#000;stroke:none;stroke-width:.238125;stroke-dasharray:none" transform="translate(-359.392 221.852) scale(3.77952)"/><path d="M101.112 27.276h.116v2.812q0 .347.008.437.011.09.077.138.066.048.236.048h.103v.122h-1.192v-.122h.088q.19 0 .246-.053.058-.056.066-.13.01-.077.01-.44v-1.885q0-.358-.007-.432-.008-.077-.069-.132-.058-.059-.246-.059h-.114v-.121q.458-.008.678-.183zM103.082 29.01h-.137l.079-1.647h1.374q-.113.268-.166.31-.05.042-.178.042h-.93l-.042 1.097q.268-.342.657-.342.413 0 .704.331.294.331.294.821 0 .564-.33.933-.329.365-.922.365-.413 0-.644-.19-.23-.194-.23-.35 0-.07.045-.12.047-.05.127-.05.087 0 .132.053.045.05.106.212.12.328.474.328.34 0 .57-.272.233-.273.233-.888 0-.553-.19-.786-.192-.233-.451-.233-.366 0-.575.387z" style="font-size:5.42396px;font-family:Baskerville;-inkscape-font-specification:Baskerville;fill:#000;stroke:none;stroke-width:.238125;stroke-dasharray:none" transform="translate(-353.744 221.852) scale(3.77952)"/><path d="M106.536 27.276h.116v2.812q0 .347.008.437.01.09.077.138.066.048.236.048h.103v.122h-1.192v-.122h.088q.19 0 .246-.053.058-.056.066-.13.01-.077.01-.44v-1.885q0-.358-.007-.432-.008-.077-.07-.132-.057-.059-.245-.059h-.114v-.121q.458-.008.678-.183zM108.512 29.037q.164-.196.344-.294.183-.098.381-.098.43 0 .742.323t.312.81q0 .459-.302.8-.302.342-.77.342-.398 0-.67-.252-.273-.251-.384-.627-.109-.379-.109-.787 0-.842.368-1.409.37-.57.99-.57.292 0 .514.128.223.124.223.283 0 .149-.151.149-.13 0-.207-.146-.08-.151-.172-.217-.092-.064-.278-.064-.418 0-.628.371-.209.37-.209 1.115 0 .066.005.143zm-.016.704q0 .257.071.512.074.251.244.397.17.146.378.146.332 0 .496-.265.164-.265.164-.792 0-.334-.064-.52-.06-.187-.227-.312-.165-.124-.369-.124-.275 0-.484.209-.21.207-.21.75z" style="font-size:5.42396px;font-family:Baskerville;-inkscape-font-specification:Baskerville;fill:#000;stroke:none;stroke-width:.238125;stroke-dasharray:none" transform="translate(-348.69 221.852) scale(3.77952)"/><path d="M111.96 27.276h.116v2.812q0 .347.008.437.01.09.077.138.066.048.236.048h.103v.122h-1.192v-.122h.088q.19 0 .246-.053.058-.056.066-.13.01-.077.01-.44v-1.885q0-.358-.007-.432-.008-.077-.07-.132-.057-.059-.245-.059h-.114v-.121q.458-.008.678-.183zM113.626 28.004l.222-.728h.093q.005.053.042.071.04.016.21.016h1.371l-.95 2.898q-.157.476-.239.569-.08.09-.164.09-.159 0-.159-.164 0-.098.148-.416.04-.082.067-.148l1.067-2.48h-1.131q-.228 0-.273.011-.045.008-.085.059-.04.047-.1.222z" style="font-size:5.42396px;font-family:Baskerville;-inkscape-font-specification:Baskerville;fill:#000;stroke:none;stroke-width:.238125;stroke-dasharray:none" transform="translate(-339.475 221.852) scale(3.77952)"/><path d="M117.384 27.276h.116v2.812q0 .347.008.437.01.09.077.138.066.048.236.048h.103v.122h-1.192v-.122h.088q.19 0 .246-.053.058-.056.066-.13.01-.077.01-.44v-1.885q0-.358-.007-.432-.008-.077-.07-.132-.057-.059-.245-.059h-.114v-.121q.458-.008.678-.183zM120.225 29.026q.35.03.618.281.267.25.267.644 0 .455-.326.712-.325.257-.792.257-.476 0-.794-.273-.318-.275-.318-.686 0-.355.228-.606.228-.252.63-.329-.326-.082-.535-.317-.206-.236-.206-.554 0-.39.283-.633.283-.246.712-.246.398 0 .702.24.307.24.307.64 0 .317-.196.547-.193.23-.58.323zm-.813-.924q0 .432.138.649.14.214.419.214.304 0 .455-.203.151-.207.151-.615 0-.37-.159-.564-.156-.193-.434-.193-.246 0-.408.177-.162.175-.162.535zm-.092 1.825q0 .3.055.474.056.172.212.286.16.114.392.114.297 0 .493-.17t.196-.672q0-.506-.196-.686-.196-.18-.503-.18-.326 0-.488.225-.161.222-.161.609z" style="font-size:5.42396px;font-family:Baskerville;-inkscape-font-specification:Baskerville;fill:#000;stroke:none;stroke-width:.238125;stroke-dasharray:none" transform="translate(-333.826 221.852) scale(3.77952)"/><path d="M122.808 27.276h.116v2.812q0 .347.008.437.01.09.077.138.066.048.236.048h.103v.122h-1.192v-.122h.088q.19 0 .246-.053.058-.056.066-.13.01-.077.01-.44v-1.885q0-.358-.007-.432-.008-.077-.07-.132-.057-.059-.245-.059h-.114v-.121q.458-.008.678-.183zM126.076 29.159q-.162.196-.344.294-.183.098-.384.098-.43 0-.742-.323-.31-.326-.31-.81 0-.462.302-.8.302-.342.77-.342.398 0 .67.251.274.252.382.63.111.377.111.785 0 .84-.37 1.409-.369.569-.988.569-.292 0-.514-.127-.223-.127-.223-.283 0-.149.154-.149.13 0 .223.178.127.249.431.249.419 0 .628-.371.21-.374.21-1.115 0-.061-.006-.143zm.013-.705q0-.257-.071-.508-.072-.254-.241-.4-.17-.146-.38-.146-.33 0-.497.265-.164.262-.164.792 0 .334.063.522.064.185.228.31.167.124.37.124.276 0 .483-.207.21-.209.21-.752z" style="font-size:5.42396px;font-family:Baskerville;-inkscape-font-specification:Baskerville;fill:#000;stroke:none;stroke-width:.238125;stroke-dasharray:none" transform="translate(-327.88 221.852) scale(3.77952)"/><path d="M-271.739 331.828q0-3.133 1.181-5.005 1.192-1.882 3.113-1.882 1.922 0 3.104 1.892 1.19 1.882 1.19 4.995 0 3.093-1.18 4.995-1.182 1.892-3.114 1.892-1.921 0-3.113-1.882-1.18-1.892-1.18-5.005zm1.662 0q0 4.154.69 5.285.701 1.121 1.942 1.121 1.462 0 2.042-1.341.581-1.351.581-5.065 0-4.164-.7-5.285-.691-1.121-1.923-1.121-1.23 0-1.931 1.12-.701 1.112-.701 5.286zM-253.275 324.941h.44v10.63q0 1.312.03 1.652.04.34.29.52.251.18.892.18h.39v.461h-4.504v-.46h.33q.72 0 .931-.2.22-.21.25-.49.04-.291.04-1.662v-7.127q0-1.352-.03-1.632-.03-.29-.26-.5-.22-.22-.93-.22h-.431v-.461q1.731-.03 2.562-.69zM-243.057 338.384v-.62q1.141-.891 2.883-2.813 1.752-1.932 2.523-3.333.77-1.402.77-2.833 0-1.712-.78-2.512-.781-.811-1.942-.811-1.141 0-1.772.74-.62.741-.62 1.582 0 .961.81 1.522.3.21.3.32 0 .18-.34.49t-.56.31q-.3 0-.731-.6-.42-.61-.42-1.561 0-1.532 1.19-2.423 1.192-.9 2.613-.9 1.502 0 2.703.93 1.211.931 1.211 2.763 0 1.151-.54 2.192-.541 1.031-2.633 3.163-2.082 2.122-3.353 3.193h6.366l-.57 2.242h-.471q0-.18.06-.36.03-.1.03-.27 0-.3-.13-.36-.13-.05-.701-.05zM-223.699 331.097q.31-.09.62-.09 1.472 0 2.313 1.011.851 1.001.851 2.523 0 1.831-1.251 3.003-1.251 1.17-3.223 1.17-1.322 0-2.273-.6-.95-.6-.95-1.291 0-.29.18-.49.18-.21.47-.21.52 0 .74.71.281.91.802 1.171.51.27 1.01.27 1.262 0 2.043-.92.79-.922.79-2.853 0-1.552-.59-2.313-.58-.76-1.382-.76-.69 0-1.521.84-.14.15-.29.15-.3 0-.3-.32 0-.14.15-.29.16-.16.88-.65 1.582-1.072 2.092-1.782.511-.711.511-1.792 0-1.031-.53-1.592-.531-.57-1.412-.57-.9 0-1.601.58-.691.57-.691 1.462 0 .71.61 1.331.07.07.07.12 0 .13-.33.28-.33.15-.48.15-.31 0-.58-.47-.271-.47-.271-1.02 0-1.112.96-2.013.962-.9 2.573-.9 1.652 0 2.493.76.85.75.85 1.682 0 .82-.58 1.531-.57.7-1.942 1.622zM-206.705 333.87h-4.925v-.6l5.715-8.329h.641v8.328h.92q.852 0 1.012-.1.16-.1.44-.85h.44l-.23 1.551h-2.582v1.702q0 1.451.05 1.761.06.3.33.45.27.14 1.001.14v.461h-4.374v-.46h.35q.6 0 .851-.16.26-.17.31-.47.05-.3.05-1.722zm0-.6v-6.357l-4.365 6.356zM-193.495 331.498h-.52l.3-6.226h5.195q-.43 1.01-.63 1.17-.19.16-.671.16h-3.513l-.16 4.145q1.01-1.291 2.482-1.291 1.561 0 2.662 1.25 1.111 1.252 1.111 3.104 0 2.132-1.25 3.523-1.242 1.382-3.484 1.382-1.562 0-2.432-.721-.871-.73-.871-1.321 0-.26.17-.45.18-.19.48-.19.33 0 .5.2.17.19.401.8.45 1.241 1.792 1.241 1.281 0 2.152-1.03.88-1.032.88-3.354 0-2.092-.72-2.973-.72-.88-1.701-.88-1.382 0-2.173 1.46zM-177.042 331.598q.62-.741 1.3-1.111.691-.37 1.442-.37 1.622 0 2.803 1.22 1.181 1.222 1.181 3.063 0 1.732-1.141 3.023-1.141 1.292-2.913 1.292-1.501 0-2.532-.951-1.031-.951-1.452-2.373-.41-1.43-.41-2.972 0-3.184 1.391-5.326 1.402-2.152 3.744-2.152 1.1 0 1.942.48.84.471.84 1.072 0 .56-.57.56-.49 0-.78-.55-.301-.57-.651-.821-.35-.24-1.051-.24-1.582 0-2.373 1.401-.79 1.401-.79 4.214 0 .25.02.54zm-.06 2.662q0 .971.27 1.932.28.951.92 1.502.641.55 1.432.55 1.251 0 1.872-1 .62-1.002.62-2.994 0-1.26-.24-1.962-.23-.71-.86-1.18-.621-.471-1.392-.471-1.041 0-1.832.79-.79.781-.79 2.833zM-162.018 327.694l.84-2.753h.351q.02.2.16.27.15.06.791.06h5.185l-3.593 10.951q-.591 1.802-.901 2.152-.3.34-.62.34-.601 0-.601-.62 0-.37.56-1.571.15-.31.25-.561l4.034-9.37h-4.274q-.86 0-1.03.04-.171.03-.321.221-.15.18-.38.84zM-139.297 331.558q1.321.11 2.332 1.06 1.011.942 1.011 2.433 0 1.722-1.231 2.693-1.231.97-2.993.97-1.802 0-3.003-1.03-1.201-1.041-1.201-2.593 0-1.341.86-2.292.861-.951 2.383-1.241-1.231-.31-2.022-1.201-.78-.891-.78-2.092 0-1.472 1.07-2.393 1.071-.93 2.693-.93 1.501 0 2.652.91 1.162.901 1.162 2.413 0 1.2-.741 2.072-.73.87-2.192 1.22zm-3.073-3.494q0 1.632.52 2.453.53.81 1.582.81 1.15 0 1.721-.77.571-.781.571-2.323 0-1.4-.6-2.132-.591-.73-1.642-.73-.931 0-1.542.67-.61.661-.61 2.022zm-.35 6.897q0 1.131.21 1.792.21.65.8 1.08.601.431 1.482.431 1.12 0 1.862-.64.74-.641.74-2.543 0-1.912-.74-2.592-.741-.681-1.902-.681-1.231 0-1.842.85-.61.842-.61 2.303zM-120.004 332.058q-.61.74-1.301 1.111-.69.37-1.452.37-1.621 0-2.802-1.22-1.171-1.232-1.171-3.064 0-1.741 1.14-3.022 1.142-1.292 2.914-1.292 1.501 0 2.532.951 1.031.951 1.441 2.383.42 1.42.42 2.962 0 3.173-1.4 5.326-1.392 2.152-3.734 2.152-1.101 0-1.942-.48-.84-.481-.84-1.072 0-.56.58-.56.49 0 .84.67.481.941 1.632.941 1.582 0 2.372-1.401.791-1.412.791-4.214 0-.23-.02-.54zm.05-2.662q0-.971-.27-1.922-.27-.961-.911-1.512-.64-.55-1.431-.55-1.252 0-1.882 1-.62.992-.62 2.994 0 1.26.24 1.972.24.7.86 1.17.63.471 1.402.471 1.04 0 1.821-.78.791-.791.791-2.843z" style="font-size:5.42396px;font-family:Baskerville;-inkscape-font-specification:Baskerville;fill:#000;stroke:none;stroke-width:.899998;stroke-dasharray:none"/><path d="M41.448 27.276h.117v2.812q0 .347.008.437.01.09.077.138.066.048.235.048h.104v.122h-1.192v-.122h.087q.19 0 .246-.053.059-.056.067-.13.01-.077.01-.44v-1.885q0-.358-.008-.432-.008-.077-.069-.132-.058-.059-.246-.059h-.114v-.121q.458-.008.678-.183zM42.934 29.098q0-.829.313-1.324.315-.498.823-.498.509 0 .821.5.315.498.315 1.322 0 .818-.312 1.321-.313.501-.824.501-.508 0-.823-.498-.313-.5-.313-1.324zm.44 0q0 1.099.182 1.398.186.297.514.297.387 0 .54-.355.154-.358.154-1.34 0-1.102-.185-1.398-.183-.297-.509-.297t-.51.297q-.186.294-.186 1.398z" style="font-size:5.42396px;font-family:Baskerville;-inkscape-font-specification:Baskerville;fill:#000;stroke:none;stroke-width:.238125;stroke-dasharray:none" transform="translate(-258.02 221.852) scale(3.77952)"/><path d="M82.128 27.276h.117v2.812q0 .347.007.437.011.09.077.138.066.048.236.048h.103v.122h-1.192v-.122h.088q.19 0 .246-.053.058-.056.066-.13.01-.077.01-.44v-1.885q0-.358-.007-.432-.008-.077-.069-.132-.058-.059-.246-.059h-.114v-.121q.458-.008.678-.183zM84.84 27.276h.116v2.812q0 .347.008.437.011.09.077.138.066.048.236.048h.103v.122h-1.192v-.122h.088q.19 0 .246-.053.058-.056.066-.13.01-.077.01-.44v-1.885q0-.358-.007-.432-.008-.077-.069-.132-.058-.059-.246-.059h-.114v-.121q.458-.008.678-.183z" style="font-size:5.42396px;font-family:Baskerville;-inkscape-font-specification:Baskerville;fill:#000;stroke:none;stroke-width:.238125;stroke-dasharray:none" transform="translate(-384.958 221.852) scale(3.77952)"/><path d="M13.441 496.068h607.396M39.572 484.106v23.924M43.351 488.714v14.708M47.13 488.714v14.708M50.91 488.714v14.708M54.69 488.714v14.708M58.47 488.714v14.708M62.249 488.714v14.708M66.029 488.714v14.708M69.808 488.714v14.708M73.588 488.714v14.708M77.367 484.106v23.924M81.147 488.714v14.708M84.926 488.714v14.708M88.706 488.714v14.708M92.485 488.714v14.708M96.265 488.714v14.708M100.044 488.714v14.708M103.824 488.714v14.708M107.603 488.714v14.708M111.383 488.714v14.708M115.162 484.106v23.924M118.942 488.714v14.708M122.721 488.714v14.708M126.5 488.714v14.708M130.28 488.714v14.708M134.06 488.714v14.708M137.84 488.714v14.708M141.619 488.714v14.708M145.398 488.714v14.708M149.178 488.714v14.708M152.957 484.106v23.924M156.737 488.714v14.708M160.517 488.714v14.708M164.296 488.714v14.708M168.076 488.714v14.708M171.855 488.714v14.708M175.635 488.714v14.708M179.414 488.714v14.708M183.194 488.714v14.708M186.973 488.714v14.708M190.753 484.106v23.924M194.532 488.714v14.708M198.312 488.714v14.708M202.091 488.714v14.708M205.87 488.714v14.708M209.65 488.714v14.708M213.43 488.714v14.708M217.21 488.714v14.708M220.989 488.714v14.708M224.768 488.714v14.708M228.548 484.106v23.924M232.327 488.714v14.708M236.107 488.714v14.708M239.886 488.714v14.708M243.666 488.714v14.708M247.445 488.714v14.708M251.225 488.714v14.708M255.005 488.714v14.708M258.784 488.714v14.708M262.564 488.714v14.708M266.343 484.106v23.924M270.123 488.714v14.708M273.902 488.714v14.708M277.682 488.714v14.708M281.461 488.714v14.708M285.24 488.714v14.708M289.02 488.714v14.708M292.8 488.714v14.708M296.58 488.714v14.708M300.359 488.714v14.708M304.138 484.106v23.924M307.918 488.714v14.708M311.697 488.714v14.708M315.477 488.714v14.708M319.256 488.714v14.708M323.036 488.714v14.708M326.815 488.714v14.708M330.595 488.714v14.708M334.374 488.714v14.708M338.154 488.714v14.708M341.933 484.106v23.924M345.713 488.714v14.708M349.493 488.714v14.708M353.272 488.714v14.708M357.052 488.714v14.708M360.831 488.714v14.708M364.61 488.714v14.708M368.39 488.714v14.708M372.17 488.714v14.708M375.95 488.714v14.708M379.729 484.106v23.924M383.508 488.714v14.708M387.288 488.714v14.708M391.067 488.714v14.708M394.847 488.714v14.708M398.626 488.714v14.708M402.406 488.714v14.708M406.185 488.714v14.708M409.965 488.714v14.708M413.744 488.714v14.708M417.524 484.106v23.924M421.303 488.714v14.708M425.083 488.714v14.708M428.862 488.714v14.708M432.642 488.714v14.708M436.421 488.714v14.708M440.201 488.714v14.708M443.98 488.714v14.708M447.76 488.714v14.708M451.54 488.714v14.708M16.895 488.714v14.708M20.674 488.714v14.708M24.454 488.714v14.708M28.233 488.714v14.708M32.013 488.714v14.708M35.792 488.714v14.708" style="fill:#e5f6ff;stroke:#000;stroke-width:.899998;stroke-dasharray:none"/><g stroke="none" style="stroke:#000;stroke-width:0;stroke-dasharray:none;stroke-opacity:1"><path d="M101.112 27.276h.116v2.812q0 .347.008.437.011.09.077.138.066.048.236.048h.103v.122h-1.192v-.122h.088q.19 0 .246-.053.058-.056.066-.13.01-.077.01-.44v-1.885q0-.358-.007-.432-.008-.077-.069-.132-.058-.059-.246-.059h-.114v-.121q.458-.008.678-.183zM103.082 29.01h-.137l.079-1.647h1.374q-.113.268-.166.31-.05.042-.178.042h-.93l-.042 1.097q.268-.342.657-.342.413 0 .704.331.294.331.294.821 0 .564-.33.933-.329.365-.922.365-.413 0-.644-.19-.23-.194-.23-.35 0-.07.045-.12.047-.05.127-.05.087 0 .132.053.045.05.106.212.12.328.474.328.34 0 .57-.272.233-.273.233-.888 0-.553-.19-.786-.192-.233-.451-.233-.366 0-.575.387z" style="font-size:5.42396px;font-family:Baskerville;-inkscape-font-specification:Baskerville;fill:#000;stroke:#000;stroke-width:0;stroke-dasharray:none;stroke-opacity:1" transform="translate(-67.169 339.027) scale(3.77952)"/></g><path d="M37.192 448.342h-.52l.3-6.226h5.195q-.43 1.011-.63 1.171-.19.16-.671.16h-3.514l-.16 4.145q1.011-1.292 2.483-1.292 1.561 0 2.662 1.252 1.111 1.25 1.111 3.103 0 2.132-1.25 3.523-1.242 1.381-3.484 1.381-1.562 0-2.433-.72-.87-.731-.87-1.322 0-.26.17-.45.18-.19.48-.19.33 0 .5.2.17.19.401.801.45 1.241 1.792 1.241 1.281 0 2.152-1.03.88-1.032.88-3.354 0-2.092-.72-2.973-.72-.88-1.702-.88-1.381 0-2.172 1.46z" style="font-size:5.42396px;font-family:Baskerville;-inkscape-font-specification:Baskerville;fill:#000;stroke:#000;stroke-width:0;stroke-dasharray:none;stroke-opacity:1"/><g stroke="none" style="stroke:#000;stroke-width:0;stroke-dasharray:none;stroke-opacity:1"><path d="M41.448 27.276h.117v2.812q0 .347.008.437.01.09.077.138.066.048.235.048h.104v.122h-1.192v-.122h.087q.19 0 .246-.053.059-.056.067-.13.01-.077.01-.44v-1.885q0-.358-.008-.432-.008-.077-.069-.132-.058-.059-.246-.059h-.114v-.121q.458-.008.678-.183zM42.934 29.098q0-.829.313-1.324.315-.498.823-.498.509 0 .821.5.315.498.315 1.322 0 .818-.312 1.321-.313.501-.824.501-.508 0-.823-.498-.313-.5-.313-1.324zm.44 0q0 1.099.182 1.398.186.297.514.297.387 0 .54-.355.154-.358.154-1.34 0-1.102-.185-1.398-.183-.297-.509-.297t-.51.297q-.186.294-.186 1.398z" style="font-size:5.42396px;font-family:Baskerville;-inkscape-font-specification:Baskerville;fill:#000;stroke:#000;stroke-width:0;stroke-dasharray:none;stroke-opacity:1" transform="translate(17.258 339.027) scale(3.77952)"/></g><g stroke="none" style="stroke:#000;stroke-width:0;stroke-dasharray:none;stroke-opacity:1"><path d="M60.59 30.833v-.165q.303-.235.763-.744.464-.51.668-.882.204-.37.204-.75 0-.452-.207-.664-.206-.214-.514-.214-.302 0-.468.196-.165.195-.165.418 0 .254.215.403.08.055.08.084 0 .048-.09.13t-.149.082q-.08 0-.193-.159-.112-.161-.112-.413 0-.405.316-.64.315-.24.69-.24.398 0 .716.247.32.246.32.731 0 .305-.143.58-.143.273-.696.837-.551.561-.887.845h1.684l-.151.593h-.124q0-.048.015-.095.008-.027.008-.072 0-.08-.034-.095-.035-.013-.185-.013zM63.22 29.098q0-.829.313-1.324.315-.498.824-.498.508 0 .82.5.316.498.316 1.322 0 .818-.313 1.321-.312.501-.823.501-.509 0-.824-.498-.312-.5-.312-1.324zm.44 0q0 1.099.183 1.398.185.297.514.297.386 0 .54-.355.154-.358.154-1.34 0-1.102-.186-1.398-.183-.297-.508-.297-.326 0-.511.297-.186.294-.186 1.398z" style="font-size:5.42396px;font-family:Baskerville;-inkscape-font-specification:Baskerville;fill:#000;stroke:#000;stroke-width:0;stroke-dasharray:none;stroke-opacity:1" transform="translate(220.595 339.107) scale(3.77952)"/></g><path d="M47.149-207.18v-.308c-1.538 0-1.948-.369-1.948-1.25v-12.239l-.184-.061-3.67 1.865v.287l.554-.205c.369-.143.717-.246.922-.246.43 0 .615.308.615 1.005v9.204c0 1.128-.43 1.558-1.947 1.64v.308zM64.164-209.989l-.287-.123c-.677 1.148-1.107 1.374-1.968 1.374h-4.797l3.382-3.608c1.825-1.927 2.624-3.465 2.624-5.084 0-2.03-1.476-3.608-3.792-3.608-2.522 0-3.834 1.68-4.264 4.08l.43.102c.82-2.01 1.538-2.665 3.014-2.665 1.742 0 2.85 1.025 2.85 2.89 0 1.743-.739 3.3-2.666 5.33l-3.649 3.875v.246h8.016zM71.072-217.635c.84-1.517 1.784-2.173 3.055-2.173 1.353 0 2.214.697 2.214 2.09 0 1.251-.656 2.174-1.66 2.748-.41.246-.944.471-1.723.738v.287c1.169 0 1.64.061 2.091.205 1.415.41 2.132 1.414 2.132 2.972 0 1.743-1.148 3.137-2.665 3.137-.574 0-1.004-.103-1.763-.636-.574-.41-.902-.533-1.25-.533-.472 0-.84.308-.84.738 0 .738.799 1.169 2.295 1.169 1.825 0 3.772-.595 4.756-1.907a4.725 4.725 0 0 0 .943-2.87c0-1.066-.328-2.009-.902-2.644-.43-.451-.8-.697-1.701-1.087 1.373-.82 1.906-1.845 1.906-2.829 0-1.68-1.291-2.808-3.198-2.808-2.132 0-3.423 1.373-4.018 3.32zM94.893-210.604v-1.312h-2.111v-9.122h-.902l-6.437 9.122v1.312h5.74v3.424h1.599v-3.424zm-3.71-1.312h-4.92l4.92-7.031zM109.55-221.141l-.184-.143c-.328.43-.513.533-.984.533h-4.244l-2.234 4.858s-.02.062-.02.103c0 .123.061.164.246.164 1.968 0 3.403.656 4.366 1.435.923.738 1.374 1.763 1.374 3.075 0 1.763-1.333 3.464-2.768 3.464-.41 0-.881-.184-1.455-.656-.656-.533-1.046-.635-1.517-.635-.574 0-.923.266-.923.779 0 .779 1.066 1.27 2.604 1.27 1.394 0 2.521-.307 3.485-1.004 1.394-1.025 2.009-2.296 2.009-4.264 0-1.086-.185-1.865-.718-2.603-1.168-1.62-2.193-2.071-5.125-2.624l.82-1.743h3.977c.328 0 .492-.123.554-.266zM125.09-221.202c-2.83.307-4.45.799-6.212 2.644-1.456 1.497-2.235 3.444-2.235 5.658 0 1.435.39 2.89.964 3.936.717 1.312 2.009 2.07 3.628 2.07 1.353 0 2.501-.553 3.26-1.496.676-.82 1.045-1.968 1.045-3.28 0-2.644-1.476-4.284-3.874-4.284-.902 0-1.6.143-2.604.922.554-3.095 2.85-5.31 6.068-5.842zm-1.395 10.168c0 2.09-.758 3.567-2.234 3.567-1.927 0-2.911-2.05-2.911-5.166 0-1.886 1.21-2.378 2.378-2.378 1.906 0 2.767 1.353 2.767 3.977zM140.526-220.423v-.328h-7.565l-1.23 3.013.37.185c.86-1.394 1.209-1.681 2.398-1.681h4.407l-4.059 12.218h1.333zM155.819-210.358c0-1.64-.656-2.747-3.178-4.428 2.03-1.086 2.747-1.783 2.747-3.32 0-1.6-1.414-2.932-3.444-2.932-2.275 0-3.977 1.23-3.977 3.198 0 1.332.43 2.111 2.542 3.854-2.193 1.537-2.665 2.337-2.665 3.751 0 1.927 1.62 3.342 3.936 3.342 2.46 0 4.039-1.353 4.039-3.465zm-1.845-7.749c0 1.271-.533 2.132-1.927 2.952-1.804-1.066-2.563-2.009-2.563-3.28 0-1.27.882-2.03 2.255-2.03 1.394 0 2.235.944 2.235 2.358zm-1.722 5.35c1.394.944 2.009 1.764 2.009 3.035 0 1.332-.923 2.255-2.255 2.255-1.558 0-2.604-1.066-2.604-2.952 0-1.333.43-2.173 1.64-3.157zM163.28-206.73c2.666-.368 3.998-.86 5.74-2.439 1.64-1.496 2.46-3.731 2.46-6.088 0-1.722-.491-3.198-1.311-4.223-.8-.984-1.907-1.558-3.219-1.558-2.44 0-4.264 2.07-4.264 4.838 0 2.5 1.476 4.161 3.69 4.161 1.21 0 2.194-.307 3.075-1.168-.82 3.362-3.116 5.514-6.232 6.068zm6.212-7.728c0 1.087-1.496 1.538-2.398 1.538-1.538 0-2.522-1.538-2.522-3.977 0-1.107.308-2.317.718-2.87.348-.451.881-.697 1.496-.697 1.784 0 2.706 1.763 2.706 5.207z" style="font-size:5.42396px;font-family:STIXGeneral;-inkscape-font-specification:STIXGeneral;stroke:#000;stroke-width:0"/><path d="M49.711-23.754v-.081c-.406 0-.515-.098-.515-.33v-3.239l-.049-.016-.97.493v.076l.146-.054a.82.82 0 0 1 .244-.065c.114 0 .163.081.163.266v2.435c0 .298-.114.412-.516.434v.081zM52.868-25.544c0-1.112-.493-1.876-1.204-1.876-.873 0-1.247.884-1.247 1.844 0 .89.298 1.898 1.225 1.898.885 0 1.226-.933 1.226-1.866zm-.52.028c0 1.073-.245 1.697-.706 1.697-.466 0-.705-.618-.705-1.72 0-1.1.244-1.74.695-1.74.477 0 .716.634.716 1.763zM56.491-23.754v-.081c-.406 0-.515-.098-.515-.33v-3.239l-.049-.016-.97.493v.076l.146-.054a.82.82 0 0 1 .244-.065c.114 0 .163.081.163.266v2.435c0 .298-.114.412-.516.434v.081zM59.203-23.754v-.081c-.406 0-.515-.098-.515-.33v-3.239l-.049-.016-.97.493v.076l.146-.054a.82.82 0 0 1 .244-.065c.114 0 .163.081.163.266v2.435c0 .298-.114.412-.516.434v.081zM63.271-23.754v-.081c-.406 0-.515-.098-.515-.33v-3.239l-.049-.016-.97.493v.076l.146-.054a.82.82 0 0 1 .244-.065c.114 0 .163.081.163.266v2.435c0 .298-.114.412-.516.434v.081zM66.417-24.497l-.076-.032c-.179.303-.293.363-.52.363h-1.27l.895-.955c.483-.51.695-.916.695-1.345 0-.537-.39-.954-1.004-.954-.667 0-1.014.444-1.128 1.08l.114.026c.217-.531.407-.705.797-.705.461 0 .754.271.754.765 0 .46-.195.873-.705 1.41l-.965 1.025v.065h2.12zM70.051-23.754v-.081c-.407 0-.515-.098-.515-.33v-3.239l-.049-.016-.97.493v.076l.146-.054a.82.82 0 0 1 .244-.065c.114 0 .163.081.163.266v2.435c0 .298-.114.412-.516.434v.081zM70.957-26.52c.222-.401.472-.575.808-.575.358 0 .586.185.586.553 0 .331-.174.575-.44.727-.108.065-.249.125-.455.195v.076c.31 0 .434.017.553.055.375.108.564.374.564.786 0 .461-.303.83-.705.83-.152 0-.266-.027-.466-.168-.152-.109-.239-.141-.331-.141-.125 0-.222.081-.222.195 0 .195.211.31.607.31.483 0 .998-.158 1.258-.505a1.25 1.25 0 0 0 .25-.76c0-.282-.087-.531-.239-.7-.114-.119-.211-.184-.45-.287.363-.217.504-.488.504-.748 0-.445-.341-.743-.846-.743-.564 0-.905.363-1.063.878zM76.831-23.754v-.081c-.407 0-.515-.098-.515-.33v-3.239l-.049-.016-.97.493v.076l.146-.054a.82.82 0 0 1 .244-.065c.114 0 .162.081.162.266v2.435c0 .298-.113.412-.515.434v.081zM79.972-24.66v-.347h-.559v-2.413h-.239l-1.703 2.413v.347h1.519v.906h.423v-.906zm-.982-.347h-1.302l1.302-1.86zM83.611-23.754v-.081c-.407 0-.515-.098-.515-.33v-3.239l-.049-.016-.97.493v.076l.146-.054a.82.82 0 0 1 .244-.065c.114 0 .162.081.162.266v2.435c0 .298-.114.412-.515.434v.081zM86.562-27.447l-.05-.038c-.086.114-.135.14-.26.14H85.13l-.591 1.286s-.006.016-.006.027c0 .033.016.044.065.044.521 0 .9.173 1.156.38.244.195.363.466.363.813 0 .466-.353.917-.732.917-.109 0-.234-.05-.385-.174-.174-.141-.277-.168-.402-.168-.152 0-.244.07-.244.206 0 .206.282.336.689.336.369 0 .667-.081.922-.266.369-.27.532-.607.532-1.128 0-.287-.05-.493-.19-.689-.31-.428-.58-.547-1.356-.694l.217-.46h1.052c.087 0 .13-.033.146-.071zM90.391-23.754v-.081c-.407 0-.515-.098-.515-.33v-3.239l-.05-.016-.97.493v.076l.146-.054a.82.82 0 0 1 .245-.065c.113 0 .162.081.162.266v2.435c0 .298-.114.412-.515.434v.081zM93.385-27.464c-.748.082-1.177.212-1.643.7a2.098 2.098 0 0 0-.592 1.497c0 .38.103.765.255 1.041.19.348.532.548.96.548.358 0 .662-.146.863-.396.179-.217.276-.52.276-.868 0-.7-.39-1.133-1.025-1.133-.238 0-.423.038-.689.244.147-.82.754-1.405 1.606-1.546zm-.369 2.69c0 .554-.2.944-.591.944-.51 0-.77-.542-.77-1.366 0-.5.32-.63.629-.63.504 0 .732.358.732 1.053zM97.17-23.754v-.081c-.406 0-.514-.098-.514-.33v-3.239l-.05-.016-.97.493v.076l.146-.054a.82.82 0 0 1 .244-.065c.114 0 .163.081.163.266v2.435c0 .298-.114.412-.515.434v.081zM100.181-27.258v-.086H98.18l-.326.797.098.049c.228-.37.32-.445.635-.445h1.166l-1.074 3.233h.352zM103.95-23.754v-.081c-.406 0-.514-.098-.514-.33v-3.239l-.05-.016-.97.493v.076l.146-.054a.819.819 0 0 1 .244-.065c.114 0 .163.081.163.266v2.435c0 .298-.114.412-.515.434v.081zM106.94-24.594c0-.434-.174-.727-.841-1.172.537-.287.727-.472.727-.879 0-.423-.375-.775-.912-.775-.602 0-1.052.325-1.052.846 0 .352.114.559.673 1.02-.58.406-.705.618-.705.992 0 .51.428.884 1.04.884.652 0 1.07-.358 1.07-.916zm-.489-2.05c0 .336-.14.563-.51.78-.477-.282-.678-.531-.678-.867 0-.337.234-.537.597-.537.369 0 .591.25.591.623zm-.455 1.415c.368.25.531.466.531.803a.57.57 0 0 1-.596.596c-.413 0-.69-.282-.69-.78 0-.353.115-.576.435-.836zM110.73-23.754v-.081c-.406 0-.515-.098-.515-.33v-3.239l-.048-.016-.971.493v.076l.146-.054a.819.819 0 0 1 .244-.065c.114 0 .163.081.163.266v2.435c0 .298-.114.412-.515.434v.081zM111.626-23.634c.705-.098 1.057-.228 1.518-.646.434-.396.651-.987.651-1.61 0-.456-.13-.847-.347-1.118a1.072 1.072 0 0 0-.851-.412c-.646 0-1.129.548-1.129 1.28 0 .661.39 1.1.977 1.1.32 0 .58-.08.813-.308-.217.89-.824 1.459-1.649 1.605zm1.643-2.045c0 .287-.396.407-.634.407-.407 0-.668-.407-.668-1.053 0-.293.082-.613.19-.759a.487.487 0 0 1 .396-.184c.472 0 .716.466.716 1.377zM117.945-24.497l-.076-.032c-.18.303-.293.363-.521.363h-1.27l.896-.955c.482-.51.694-.916.694-1.345 0-.537-.39-.954-1.003-.954-.668 0-1.015.444-1.129 1.08l.114.026c.217-.531.407-.705.798-.705.46 0 .754.271.754.765 0 .46-.196.873-.706 1.41l-.965 1.025v.065h2.12zM120.667-25.544c0-1.112-.493-1.876-1.204-1.876-.873 0-1.247.884-1.247 1.844 0 .89.298 1.898 1.226 1.898.884 0 1.225-.933 1.225-1.866zm-.52.028c0 1.073-.244 1.697-.705 1.697-.467 0-.706-.618-.706-1.72 0-1.1.245-1.74.695-1.74.477 0 .716.634.716 1.763z" style="font-size:5.42396px;font-family:STIXGeneral;-inkscape-font-specification:STIXGeneral;stroke:#000;stroke-width:0" transform="translate(-2.363 -117.403) scale(3.77952)"/><path d="M469.077-213.945c0-4.203-1.865-7.093-4.55-7.093-3.301 0-4.716 3.341-4.716 6.97 0 3.362 1.128 7.175 4.633 7.175 3.342 0 4.633-3.526 4.633-7.052zm-1.968.102c0 4.059-.922 6.417-2.665 6.417-1.763 0-2.665-2.337-2.665-6.499 0-4.161.923-6.58 2.624-6.58 1.804 0 2.706 2.398 2.706 6.662zM58.546-333.24l-.147-.115c-.263.344-.41.426-.788.426h-3.394l-1.788 3.887s-.016.05-.016.082c0 .099.049.131.197.131 1.574 0 2.722.525 3.493 1.148.738.59 1.099 1.41 1.099 2.46 0 1.41-1.066 2.772-2.214 2.772-.328 0-.706-.148-1.165-.525-.525-.426-.836-.508-1.213-.508-.46 0-.738.213-.738.623 0 .623.852 1.017 2.082 1.017 1.116 0 2.018-.246 2.788-.804 1.116-.82 1.608-1.837 1.608-3.411 0-.87-.148-1.492-.574-2.083-.935-1.295-1.755-1.656-4.1-2.1l.656-1.393h3.181c.263 0 .394-.098.443-.213z" style="font-size:5.42396px;font-family:STIXGeneral;-inkscape-font-specification:STIXGeneral;stroke:#000;stroke-width:0"/><g style="stroke-width:1.25"><path d="M49.711-23.754v-.081c-.406 0-.515-.098-.515-.33v-3.239l-.049-.016-.97.493v.076l.146-.054a.82.82 0 0 1 .244-.065c.114 0 .163.081.163.266v2.435c0 .298-.114.412-.516.434v.081zM52.868-25.544c0-1.112-.493-1.876-1.204-1.876-.873 0-1.247.884-1.247 1.844 0 .89.298 1.898 1.225 1.898.885 0 1.226-.933 1.226-1.866zm-.52.028c0 1.073-.245 1.697-.706 1.697-.466 0-.705-.618-.705-1.72 0-1.1.244-1.74.695-1.74.477 0 .716.634.716 1.763z" style="font-size:5.42396px;font-family:STIXGeneral;-inkscape-font-specification:STIXGeneral;stroke:#000;stroke-width:0" transform="matrix(3.02362 0 0 3.02362 23.654 -250.25)"/></g><g style="stroke-width:1.25"><path d="M83.611-23.754v-.081c-.407 0-.515-.098-.515-.33v-3.239l-.049-.016-.97.493v.076l.146-.054a.82.82 0 0 1 .244-.065c.114 0 .162.081.162.266v2.435c0 .298-.114.412-.515.434v.081zM86.562-27.447l-.05-.038c-.086.114-.135.14-.26.14H85.13l-.591 1.286s-.006.016-.006.027c0 .033.016.044.065.044.521 0 .9.173 1.156.38.244.195.363.466.363.813 0 .466-.353.917-.732.917-.109 0-.234-.05-.385-.174-.174-.141-.277-.168-.402-.168-.152 0-.244.07-.244.206 0 .206.282.336.689.336.369 0 .667-.081.922-.266.369-.27.532-.607.532-1.128 0-.287-.05-.493-.19-.689-.31-.428-.58-.547-1.356-.694l.217-.46h1.052c.087 0 .13-.033.146-.071z" style="font-size:5.42396px;font-family:STIXGeneral;-inkscape-font-specification:STIXGeneral;stroke:#000;stroke-width:0" transform="matrix(3.02362 0 0 3.02362 42.457 -250.25)"/></g><g style="stroke-width:1.25"><path d="m117.945-24.497-.076-.032c-.18.303-.293.363-.521.363h-1.27l.896-.955c.482-.51.694-.916.694-1.345 0-.537-.39-.954-1.003-.954-.668 0-1.015.444-1.129 1.08l.114.026c.217-.531.407-.705.798-.705.46 0 .754.271.754.765 0 .46-.196.873-.706 1.41l-.965 1.025v.065h2.12zM120.667-25.544c0-1.112-.493-1.876-1.204-1.876-.873 0-1.247.884-1.247 1.844 0 .89.298 1.898 1.226 1.898.884 0 1.225-.933 1.225-1.866zm-.52.028c0 1.073-.244 1.697-.705 1.697-.467 0-.706-.618-.706-1.72 0-1.1.245-1.74.695-1.74.477 0 .716.634.716 1.763z" style="font-size:5.42396px;font-family:STIXGeneral;-inkscape-font-specification:STIXGeneral;stroke:#000;stroke-width:0" transform="matrix(3.02362 0 0 3.02362 62.046 -250.25)"/></g><path d="M12.479-349.205h444.104" style="fill:#000;stroke:#000;stroke-width:.999997;stroke-dasharray:none;stroke-opacity:1"/><path d="M30.273-358.874v19.338M54.522-358.874v19.338M78.771-358.874v19.338M103.02-358.874v19.338M127.27-358.874v19.338M151.519-358.874v19.338M175.768-358.874v19.338M200.017-358.874v19.338M224.266-358.874v19.338M248.515-358.874v19.338M272.764-358.874v19.338M297.013-358.874v19.338M321.262-358.874v19.338M345.512-358.874v19.338M369.76-358.874v19.338M394.01-358.874v19.338M418.259-358.874v19.338M442.508-358.874v19.338M13.441 537.55h468.832M39.572 525.774v23.924M67.538 525.774v23.924M95.504 525.774v23.924M123.47 525.774v23.924M151.436 525.774v23.924M179.403 525.774v23.924M207.369 525.774v23.924M235.335 525.774v23.924M263.301 525.774v23.924M291.267 525.774v23.924M319.233 525.774v23.924M347.2 525.774v23.924M375.166 525.774v23.924M403.132 525.774v23.924M431.098 525.774v23.924M459.064 525.774v23.924" style="fill:#e5f6ff;stroke:#000;stroke-width:.899998;stroke-dasharray:none"/><path d="m43.382 561.25-.185-.143c-.328.43-.512.533-.984.533H37.97l-2.235 4.858s-.02.062-.02.103c0 .123.062.164.246.164 1.968 0 3.403.656 4.367 1.435.922.738 1.373 1.763 1.373 3.075 0 1.763-1.332 3.464-2.767 3.464-.41 0-.882-.184-1.456-.656-.656-.533-1.045-.635-1.517-.635-.574 0-.922.266-.922.779 0 .779 1.066 1.27 2.603 1.27 1.394 0 2.522-.307 3.485-1.004 1.394-1.025 2.009-2.296 2.009-4.264 0-1.086-.184-1.865-.717-2.603-1.169-1.62-2.194-2.07-5.125-2.624l.82-1.743h3.977c.328 0 .492-.122.553-.266z" style="font-size:5.42396px;font-family:STIXGeneral;-inkscape-font-specification:STIXGeneral;stroke:#000;stroke-width:0"/><path d="M49.711-23.754v-.081c-.406 0-.515-.098-.515-.33v-3.239l-.049-.016-.97.493v.076l.146-.054a.82.82 0 0 1 .244-.065c.114 0 .163.081.163.266v2.435c0 .298-.114.412-.516.434v.081zM52.868-25.544c0-1.112-.493-1.876-1.204-1.876-.873 0-1.247.884-1.247 1.844 0 .89.298 1.898 1.225 1.898.885 0 1.226-.933 1.226-1.866zm-.52.028c0 1.073-.245 1.697-.706 1.697-.466 0-.705-.618-.705-1.72 0-1.1.244-1.74.695-1.74.477 0 .716.634.716 1.763z" style="font-size:5.42396px;font-family:STIXGeneral;-inkscape-font-specification:STIXGeneral;stroke:#000;stroke-width:0" transform="translate(-10.88 664.989) scale(3.77952)"/><path d="M83.611-23.754v-.081c-.407 0-.515-.098-.515-.33v-3.239l-.049-.016-.97.493v.076l.146-.054a.82.82 0 0 1 .244-.065c.114 0 .162.081.162.266v2.435c0 .298-.114.412-.515.434v.081zM86.562-27.447l-.05-.038c-.086.114-.135.14-.26.14H85.13l-.591 1.286s-.006.016-.006.027c0 .033.016.044.065.044.521 0 .9.173 1.156.38.244.195.363.466.363.813 0 .466-.353.917-.732.917-.109 0-.234-.05-.385-.174-.174-.141-.277-.168-.402-.168-.152 0-.244.07-.244.206 0 .206.282.336.689.336.369 0 .667-.081.922-.266.369-.27.532-.607.532-1.128 0-.287-.05-.493-.19-.689-.31-.428-.58-.547-1.356-.694l.217-.46h1.052c.087 0 .13-.033.146-.071z" style="font-size:5.42396px;font-family:STIXGeneral;-inkscape-font-specification:STIXGeneral;stroke:#000;stroke-width:0" transform="translate(1.568 664.989) scale(3.77952)"/><path d="m117.945-24.497-.076-.032c-.18.303-.293.363-.521.363h-1.27l.896-.955c.482-.51.694-.916.694-1.345 0-.537-.39-.954-1.003-.954-.668 0-1.015.444-1.129 1.08l.114.026c.217-.531.407-.705.798-.705.46 0 .754.271.754.765 0 .46-.196.873-.706 1.41l-.965 1.025v.065h2.12zM120.667-25.544c0-1.112-.493-1.876-1.204-1.876-.873 0-1.247.884-1.247 1.844 0 .89.298 1.898 1.226 1.898.884 0 1.225-.933 1.225-1.866zm-.52.028c0 1.073-.244 1.697-.705 1.697-.467 0-.706-.618-.706-1.72 0-1.1.245-1.74.695-1.74.477 0 .716.634.716 1.763z" style="font-size:5.42396px;font-family:STIXGeneral;-inkscape-font-specification:STIXGeneral;stroke:#000;stroke-width:0" transform="translate(13.361 664.989) scale(3.77952)"/><path d="M417.524 484.106v23.924M421.303 488.714v14.708M425.083 488.714v14.708M428.862 488.714v14.708M432.642 488.714v14.708M436.421 488.714v14.708M440.201 488.714v14.708M443.98 488.714v14.708M447.76 488.714v14.708M451.54 488.714v14.708" style="fill:#e5f6ff;stroke:#000;stroke-width:.899998;stroke-dasharray:none"/><path d="M-26.452 409h456.311" style="fill:#000;stroke:#000;stroke-width:.999997;stroke-dasharray:none;stroke-opacity:1"/><path d="M-11.53 397.037v23.924M-9.53 402.596v12.806M-7.53 402.596v12.806M-5.53 402.596v12.806M-3.53 402.596v12.806M-1.53 402.596v12.806M.47 402.596v12.806M2.47 402.596v12.806M4.47 402.596v12.806M6.47 402.596v12.806M8.47 402.596v12.806M455.32 484.106v23.924M459.099 488.714v14.708M462.878 488.714v14.708M466.658 488.714v14.708M470.437 488.714v14.708M474.217 488.714v14.708M477.996 488.714v14.708M481.776 488.714v14.708M485.555 488.714v14.708M489.335 488.714v14.708M455.32 484.106v23.924M459.099 488.714v14.708M462.878 488.714v14.708M466.658 488.714v14.708M470.437 488.714v14.708M474.217 488.714v14.708M477.996 488.714v14.708M481.776 488.714v14.708M485.555 488.714v14.708M489.335 488.714v14.708M489.335 488.714v14.708M493.114 484.106v23.924M496.894 488.714v14.708M500.673 488.714v14.708M504.453 488.714v14.708M508.232 488.714v14.708M512.012 488.714v14.708M515.791 488.714v14.708M519.57 488.714v14.708M523.35 488.714v14.708M527.13 488.714v14.708M493.114 484.106v23.924M496.894 488.714v14.708M500.673 488.714v14.708M504.453 488.714v14.708M508.232 488.714v14.708M512.012 488.714v14.708M515.791 488.714v14.708M519.57 488.714v14.708M523.35 488.714v14.708M527.13 488.714v14.708M527.13 488.714v14.708M527.13 488.714v14.708M530.91 484.106v23.924M534.689 488.714v14.708M538.469 488.714v14.708M542.248 488.714v14.708M546.028 488.714v14.708M549.807 488.714v14.708M553.587 488.714v14.708M557.366 488.714v14.708M561.146 488.714v14.708M564.925 488.714v14.708M530.91 484.106v23.924M534.689 488.714v14.708M538.469 488.714v14.708M542.248 488.714v14.708M546.028 488.714v14.708M549.807 488.714v14.708M553.587 488.714v14.708M557.366 488.714v14.708M561.146 488.714v14.708M564.925 488.714v14.708M564.925 488.714v14.708M564.925 488.714v14.708M564.925 488.714v14.708M568.705 484.106v23.924M572.484 488.714v14.708M576.264 488.714v14.708M580.043 488.714v14.708M583.823 488.714v14.708M587.602 488.714v14.708M591.382 488.714v14.708M595.161 488.714v14.708M598.94 488.714v14.708M602.72 488.714v14.708M568.705 484.106v23.924M572.484 488.714v14.708M576.264 488.714v14.708M580.043 488.714v14.708M583.823 488.714v14.708M587.602 488.714v14.708M591.382 488.714v14.708M595.161 488.714v14.708M598.94 488.714v14.708M602.72 488.714v14.708" style="fill:#e5f6ff;stroke:#000;stroke-width:.899998;stroke-dasharray:none"/><path d="M35.123-355.275v12.14M39.973-355.275v12.14M44.823-355.275v12.14M49.673-355.275v12.14M32.698-355.275v12.14M37.548-355.275v12.14M42.398-355.275v12.14M47.248-355.275v12.14M52.097-355.275v12.14" style="fill:#e5f6ff;stroke:#000;stroke-width:.699997;stroke-dasharray:none"/><path d="m753.36 39.384-.147-.115c-.262.344-.41.426-.787.426h-3.395l-1.788 3.887s-.015.05-.015.082c0 .099.05.131.197.131 1.575 0 2.723.525 3.493 1.148.738.59 1.1 1.41 1.1 2.46 0 1.41-1.067 2.772-2.215 2.772-.328 0-.705-.148-1.164-.525-.525-.426-.837-.508-1.214-.508-.459 0-.738.213-.738.623 0 .623.853 1.017 2.083 1.017 1.115 0 2.017-.246 2.788-.804 1.115-.82 1.607-1.837 1.607-3.41 0-.87-.148-1.493-.574-2.084-.935-1.295-1.755-1.656-4.1-2.099l.656-1.394h3.182c.262 0 .393-.098.443-.213z" style="font-size:5.42396px;font-family:STIXGeneral;-inkscape-font-specification:STIXGeneral;stroke:#000;stroke-width:0"/><g style="stroke-width:1.25"><path d="M49.711-23.754v-.081c-.406 0-.515-.098-.515-.33v-3.239l-.049-.016-.97.493v.076l.146-.054a.82.82 0 0 1 .244-.065c.114 0 .163.081.163.266v2.435c0 .298-.114.412-.516.434v.081zM52.868-25.544c0-1.112-.493-1.876-1.204-1.876-.873 0-1.247.884-1.247 1.844 0 .89.298 1.898 1.225 1.898.885 0 1.226-.933 1.226-1.866zm-.52.028c0 1.073-.245 1.697-.706 1.697-.466 0-.705-.618-.705-1.72 0-1.1.244-1.74.695-1.74.477 0 .716.634.716 1.763z" style="font-size:5.42396px;font-family:STIXGeneral;-inkscape-font-specification:STIXGeneral;stroke:#000;stroke-width:0" transform="matrix(3.02362 0 0 3.02362 718.468 122.374)"/></g><g style="stroke-width:1.25"><path d="M83.611-23.754v-.081c-.407 0-.515-.098-.515-.33v-3.239l-.049-.016-.97.493v.076l.146-.054a.82.82 0 0 1 .244-.065c.114 0 .162.081.162.266v2.435c0 .298-.114.412-.515.434v.081zM86.562-27.447l-.05-.038c-.086.114-.135.14-.26.14H85.13l-.591 1.286s-.006.016-.006.027c0 .033.016.044.065.044.521 0 .9.173 1.156.38.244.195.363.466.363.813 0 .466-.353.917-.732.917-.109 0-.234-.05-.385-.174-.174-.141-.277-.168-.402-.168-.152 0-.244.07-.244.206 0 .206.282.336.689.336.369 0 .667-.081.922-.266.369-.27.532-.607.532-1.128 0-.287-.05-.493-.19-.689-.31-.428-.58-.547-1.356-.694l.217-.46h1.052c.087 0 .13-.033.146-.071z" style="font-size:5.42396px;font-family:STIXGeneral;-inkscape-font-specification:STIXGeneral;stroke:#000;stroke-width:0" transform="matrix(3.02362 0 0 3.02362 737.271 122.374)"/></g><g style="stroke-width:1.25"><path d="m117.945-24.497-.076-.032c-.18.303-.293.363-.521.363h-1.27l.896-.955c.482-.51.694-.916.694-1.345 0-.537-.39-.954-1.003-.954-.668 0-1.015.444-1.129 1.08l.114.026c.217-.531.407-.705.798-.705.46 0 .754.271.754.765 0 .46-.196.873-.706 1.41l-.965 1.025v.065h2.12zM120.667-25.544c0-1.112-.493-1.876-1.204-1.876-.873 0-1.247.884-1.247 1.844 0 .89.298 1.898 1.226 1.898.884 0 1.225-.933 1.225-1.866zm-.52.028c0 1.073-.244 1.697-.705 1.697-.467 0-.706-.618-.706-1.72 0-1.1.245-1.74.695-1.74.477 0 .716.634.716 1.763z" style="font-size:5.42396px;font-family:STIXGeneral;-inkscape-font-specification:STIXGeneral;stroke:#000;stroke-width:0" transform="matrix(3.02362 0 0 3.02362 756.86 122.374)"/></g><path d="M707.293 23.419h444.105" style="fill:#000;stroke:#000;stroke-width:.999997;stroke-dasharray:none;stroke-opacity:1"/><path d="M725.088 13.75v19.338M749.337 13.75v19.338M773.586 13.75v19.338M797.835 13.75v19.338M822.084 13.75v19.338M846.333 13.75v19.338M870.582 13.75v19.338M894.831 13.75v19.338M919.08 13.75v19.338M943.33 13.75v19.338M967.579 13.75v19.338M991.828 13.75v19.338M1016.077 13.75v19.338M1040.326 13.75v19.338M1064.575 13.75v19.338M1088.824 13.75v19.338M1113.073 13.75v19.338M1137.322 13.75v19.338" style="fill:#e5f6ff;stroke:#000;stroke-width:.899998;stroke-dasharray:none"/><path d="M729.938 17.349v12.14M734.787 17.349v12.14M739.637 17.349v12.14M744.487 17.349v12.14M727.513 17.349v12.14M732.362 17.349v12.14M737.212 17.349v12.14M742.062 17.349v12.14M746.912 17.349v12.14M15.724-355.275v12.14M20.574-355.275v12.14M25.423-355.275v12.14M13.299-355.275v12.14M18.149-355.275v12.14M22.999-355.275v12.14M27.848-355.275v12.14M59.372-355.275v12.14M64.222-355.275v12.14M69.072-355.275v12.14M73.922-355.275v12.14M56.947-355.275v12.14M61.797-355.275v12.14M66.647-355.275v12.14M71.497-355.275v12.14M76.347-355.275v12.14M83.621-355.275v12.14M88.471-355.275v12.14M93.321-355.275v12.14M98.17-355.275v12.14M81.196-355.275v12.14M86.046-355.275v12.14M90.896-355.275v12.14M95.746-355.275v12.14M100.596-355.275v12.14M107.87-355.275v12.14M112.72-355.275v12.14M117.57-355.275v12.14M122.42-355.275v12.14M105.445-355.275v12.14M110.295-355.275v12.14M115.145-355.275v12.14M119.995-355.275v12.14M124.845-355.275v12.14M132.12-355.275v12.14M136.97-355.275v12.14M141.82-355.275v12.14M146.669-355.275v12.14M129.695-355.275v12.14M134.544-355.275v12.14M139.394-355.275v12.14M144.244-355.275v12.14M149.094-355.275v12.14M156.369-355.275v12.14M161.218-355.275v12.14M166.068-355.275v12.14M170.918-355.275v12.14M153.944-355.275v12.14M158.794-355.275v12.14M163.643-355.275v12.14M168.493-355.275v12.14M173.343-355.275v12.14M180.618-355.275v12.14M185.468-355.275v12.14M190.317-355.275v12.14M195.167-355.275v12.14M178.193-355.275v12.14M183.043-355.275v12.14M187.892-355.275v12.14M192.742-355.275v12.14M197.592-355.275v12.14M204.867-355.275v12.14M209.717-355.275v12.14M214.566-355.275v12.14M219.416-355.275v12.14M202.442-355.275v12.14M207.292-355.275v12.14M212.142-355.275v12.14M216.991-355.275v12.14M221.841-355.275v12.14M229.116-355.275v12.14M233.966-355.275v12.14M238.816-355.275v12.14M243.665-355.275v12.14M226.691-355.275v12.14M231.54-355.275v12.14M236.39-355.275v12.14M241.24-355.275v12.14M246.09-355.275v12.14M253.365-355.275v12.14M258.215-355.275v12.14M263.065-355.275v12.14M267.914-355.275v12.14M250.94-355.275v12.14M255.79-355.275v12.14M260.64-355.275v12.14M265.49-355.275v12.14M270.34-355.275v12.14M277.614-355.275v12.14M282.464-355.275v12.14M287.314-355.275v12.14M292.164-355.275v12.14M275.19-355.275v12.14M280.039-355.275v12.14M284.889-355.275v12.14M289.739-355.275v12.14M294.588-355.275v12.14M301.863-355.275v12.14M306.713-355.275v12.14M311.563-355.275v12.14M316.413-355.275v12.14M299.438-355.275v12.14M304.288-355.275v12.14M309.138-355.275v12.14M313.988-355.275v12.14M318.838-355.275v12.14M326.112-355.275v12.14M330.962-355.275v12.14M335.812-355.275v12.14M340.662-355.275v12.14M323.687-355.275v12.14M328.537-355.275v12.14M333.387-355.275v12.14M338.237-355.275v12.14M343.087-355.275v12.14M350.361-355.275v12.14M355.211-355.275v12.14M360.061-355.275v12.14M364.91-355.275v12.14M347.936-355.275v12.14M352.786-355.275v12.14M357.636-355.275v12.14M362.486-355.275v12.14M367.336-355.275v12.14M374.61-355.275v12.14M379.46-355.275v12.14M384.31-355.275v12.14M389.16-355.275v12.14M372.186-355.275v12.14M377.035-355.275v12.14M381.885-355.275v12.14M386.735-355.275v12.14M391.585-355.275v12.14M398.86-355.275v12.14M403.71-355.275v12.14M408.56-355.275v12.14M413.409-355.275v12.14M396.435-355.275v12.14M401.284-355.275v12.14M406.134-355.275v12.14M410.984-355.275v12.14M415.834-355.275v12.14M423.109-355.275v12.14M427.958-355.275v12.14M432.808-355.275v12.14M437.658-355.275v12.14M420.684-355.275v12.14M425.534-355.275v12.14M430.383-355.275v12.14M435.233-355.275v12.14M440.083-355.275v12.14M447.358-355.275v12.14M452.208-355.275v12.14M444.933-355.275v12.14M449.783-355.275v12.14M454.632-355.275v12.14" style="fill:#e5f6ff;stroke:#000;stroke-width:.699997;stroke-dasharray:none"/><path d="M202.976-373.04v4.192h3.446l-6.363 6.153-6.212-6.152h3.242v-4.194h-16.1v-12.843h38.751v12.843z" style="fill:#b1ffe8;fill-opacity:1;stroke:#000;stroke-width:.999997;stroke-miterlimit:4;stroke-dasharray:none"/><g style="stroke:#000;stroke-width:.0509678;stroke-dasharray:none;stroke-opacity:1"><path d="M20.378 6.24v-.455h1.969l.293-.299V4.69l-.293-.298H20.8l-.564-.564V2.812l.564-.57h2.126v.456h-1.904l-.298.299.006.661.292.299h1.546l.564.57V5.67l-.564.57zM24.609 6.24V2.698H23.42v-.455h2.87v.455h-1.189V6.24zM26.019 6.24l1.35-3.997h.765l1.35 3.997h-.514L28.628 5.2h-1.752L26.54 6.24zm1.003-1.475h1.465l-.673-2.056h-.125ZM30.033 6.24V2.243h2.186l.564.57v1.274l-.564.57h-.017l.722 1.583h-.548l-.71-1.583h-1.14V6.24zm.493-2.023h1.47l.293-.298V2.98l-.293-.299h-1.47ZM34.372 6.24V2.698h-1.188v-.455h2.87v.455h-1.189V6.24z" style="font-size:5.42396px;font-family:Tomorrow;-inkscape-font-specification:Tomorrow;stroke:#000;stroke-width:.0509678;stroke-dasharray:none;stroke-opacity:1" transform="matrix(1.9633 0 0 1.96075 145.072 -387.825)"/></g><path d="M348.45-373.04v4.192h3.444l-6.36 6.153-6.21-6.152h3.241v-4.194h-10.71v-12.843h28.189v12.843z" style="fill:#ffc3cc;fill-opacity:1;stroke:#000;stroke-width:.999997;stroke-miterlimit:4;stroke-dasharray:none"/><g style="stroke:#000;stroke-width:.0509801;stroke-dasharray:none;stroke-opacity:1"><path d="M37.8 6.24V2.243h2.636v.455h-2.143v1.215h1.915v.45h-1.915v1.422h2.143v.455zM41.19 6.24V2.243h.672l1.785 3.216V2.243h.493V6.24h-.585l-1.752-3.156h-.12V6.24zM45.084 6.24V2.243h2.17l.83.84V5.4l-.83.84Zm.494-.439h1.453l.559-.57v-1.98l-.559-.569h-1.453z" style="font-size:5.42396px;font-family:Tomorrow;-inkscape-font-specification:Tomorrow;stroke:#000;stroke-width:.0509801;stroke-dasharray:none;stroke-opacity:1" transform="matrix(1.96235 0 0 1.96075 262.116 -387.825)"/></g><text xml:space="preserve" x="26.026" y="-15.774" style="font-size:5.42396px;font-family:Tomorrow;-inkscape-font-specification:Tomorrow;fill:#000;stroke:#000;stroke-width:.185208"/><g style="stroke-width:1.36279"><path d="M20.378 6.24v-.455h1.969l.293-.299V4.69l-.293-.298H20.8l-.564-.564V2.812l.564-.57h2.126v.456h-1.904l-.298.299.006.661.292.299h1.546l.564.57V5.67l-.564.57zM24.609 6.24V2.698H23.42v-.455h2.87v.455h-1.189V6.24zM26.019 6.24l1.35-3.997h.765l1.35 3.997h-.514L28.628 5.2h-1.752L26.54 6.24zm1.003-1.475h1.465l-.673-2.056h-.125ZM30.033 6.24V2.243h2.186l.564.57v1.274l-.564.57h-.017l.722 1.583h-.548l-.71-1.583h-1.14V6.24zm.493-2.023h1.47l.293-.298V2.98l-.293-.299h-1.47ZM34.372 6.24V2.698h-1.188v-.455h2.87v.455h-1.189V6.24z" style="font-size:5.42396px;font-family:Tomorrow;-inkscape-font-specification:Tomorrow;stroke:none;stroke-width:.252401" transform="matrix(2.77336 0 0 2.77336 123.05 -460.882)"/></g><g style="stroke-width:1.36279"><path d="M37.8 6.24V2.243h2.636v.455h-2.143v1.215h1.915v.45h-1.915v1.422h2.143v.455zM41.19 6.24V2.243h.672l1.785 3.216V2.243h.493V6.24h-.585l-1.752-3.156h-.12V6.24zM45.084 6.24V2.243h2.17l.83.84V5.4l-.83.84Zm.494-.439h1.453l.559-.57v-1.98l-.559-.569h-1.453z" style="font-size:5.42396px;font-family:Tomorrow;-inkscape-font-specification:Tomorrow;stroke:none;stroke-width:.252401" transform="matrix(2.77336 0 0 2.77336 227.148 -460.882)"/></g><path d="M200.017-337.539v16.207M345.512-337.225v16.383M213.847 372.912v25.431M359.342 372.635V398.4" style="fill:#e5f6ff;stroke:#000;stroke-width:.999997;stroke-dasharray:none;stroke-dashoffset:0"/><path d="M336.603-296.941c3.57 0 6.185-.624 7.332-1.716 1.148-1.091 1.53-1.785 1.594-4.396l-.701.96c-1.148 2.69-3.06 3.547-7.843 3.547h-52.217c-7.697 0-10.108 2.963-11.87 5.887-1.855-2.924-4.266-5.887-11.963-5.887h-52.584c-4.782 0-6.695-.858-7.843-3.547l-.701-.96c.064 2.572.446 3.266 1.594 4.396 1.148 1.13 3.634 1.716 7.269 1.716h53.656c6.492 0 8.624 2.924 10.48 5.536 1.946-2.612 4.172-5.536 10.57-5.536zM358.808 388.146c-.765 1.793-2.04 2.365-5.228 2.365h-61.602c-3.528 0-4.633.493-5.44 2.442-.851-1.949-1.956-2.442-5.484-2.442h-62.266c-3.188 0-4.463-.572-5.228-2.365l-.468-.64c.043 1.715.298 2.177 1.063 2.93.765.755 2.423 1.144 4.846 1.144h62.69c2.976 0 3.953.468 4.804 2.21.892-1.742 1.912-2.21 4.845-2.21h61.985c2.38 0 4.123-.415 4.888-1.143.765-.728 1.02-1.19 1.063-2.931z" style="font-style:normal;font-variant:normal;font-weight:400;font-stretch:normal;font-size:medium;line-height:125%;font-family:STIXGeneral;-inkscape-font-specification:STIXGeneral;letter-spacing:0;word-spacing:0;display:inline;fill:#000;fill-opacity:1;stroke:none;stroke-width:1.33333px;stroke-linecap:butt;stroke-linejoin:miter;stroke-opacity:1"/><path d="M57.206 21.778H95.7" style="display:inline;fill:none;stroke:#000;stroke-width:.264583;stroke-linecap:butt;stroke-linejoin:miter;stroke-miterlimit:10;stroke-dasharray:none;stroke-dashoffset:0;stroke-opacity:1" transform="translate(-16.193 -394.356) scale(3.77952)"/><path d="M93.982 20.067c.115.642 1.375 1.604 1.72 1.71-.345.108-1.605 1.07-1.72 1.711" style="display:inline;fill:none;stroke:#000;stroke-width:.343958;stroke-linecap:round;stroke-linejoin:round;stroke-miterlimit:10;stroke-dasharray:none;stroke-opacity:1" transform="translate(-16.193 -394.356) scale(3.77952)"/><path d="M345.512-319.287v14.481M200.017-319.287v14.481" style="fill:#e5f6ff;stroke:#000;stroke-width:1.3;stroke-dasharray:none;stroke-dashoffset:0"/><g style="stroke-width:1.05263"><path d="M253.687-272.01h-4.992v-.272c1.339-.072 1.718-.452 1.718-1.447v-8.121c0-.615-.162-.886-.542-.886-.181 0-.489.09-.814.217l-.489.18v-.253l3.238-1.646.163.055v10.798c0 .778.362 1.103 1.718 1.103zM263.726-283.695l-3.835 11.83h-1.175l3.581-10.78h-3.889c-1.049 0-1.356.252-2.116 1.482l-.326-.162 1.086-2.66h6.674zM277.803-275.99h-10.075v-1.193h10.075z"/><g style="stroke-width:1.05263"><path d="M287.992-272.01h-4.993v-.271c1.339-.073 1.719-.453 1.719-1.448v-8.121c0-.615-.163-.886-.543-.886-.18 0-.488.09-.814.217l-.488.18v-.253l3.238-1.646.162.055v10.798c0 .778.362 1.104 1.719 1.104zM297.036-272.01h-4.993v-.271c1.339-.073 1.719-.453 1.719-1.448v-8.121c0-.615-.163-.886-.543-.886-.18 0-.488.09-.814.217l-.488.18v-.253l3.238-1.646.162.055v10.798c0 .778.362 1.104 1.719 1.104z"/></g></g><path d="M359.356-283.326c-1.972.855-3.771 2.218-4.964 3.933-.718 1.092-1.116 2.432-.664 3.565.518 1.3 1.976 2.014 3.46 2.123 1.328.097 2.881-.244 3.874-1.262.684-.7.852-1.717.504-2.507-.389-.884-1.593-1.487-2.643-1.497-1.263-.013-2.762.283-3.99 1.32-.384.326-.747.75-.855 1.209" style="fill:none;stroke:#000;stroke-width:.999997;stroke-dasharray:none"/><path d="M309.683-279.128c1.007-.355 2.187-.473 3.16.046.943.572 1.198 1.92.68 2.86-.353.683-1.083 1.057-1.807 1.212a5.516 5.516 0 0 1-2.385-.01c-.755-.2-1.515-.655-1.833-1.399-.187-.482-.035-1.034.302-1.41.587-.728 1.467-1.13 2.309-1.485M327.555-281.421c-1.977-.602-4.134-.32-6.03.428-1.154.482-2.119 1.57-2.167 2.862-.113.982.282 1.947.915 2.682 1.294 1.523 3.452 2.103 5.378 1.73 1.503-.223 2.924-1.171 3.557-2.575.456-1.12.332-2.496-.47-3.43-.747-.905-1.754-1.536-2.697-2.21" style="fill:#e5f6ff;fill-opacity:1;stroke:#000;stroke-width:.999997;stroke-dasharray:none"/><path d="M348.45-416.732v4.193h3.444l-6.36 6.153-6.21-6.153h3.241v-4.193h-10.71v-12.843h28.189v12.843z" style="fill:#ffc3cc;fill-opacity:1;stroke:#000;stroke-width:.999997;stroke-miterlimit:4;stroke-dasharray:none"/><path d="M202.976-412.331v4.193h3.446l-6.363 6.152-6.212-6.152h3.242v-4.193h-16.1v-12.843h38.751v12.843z" style="fill:#b1ffe8;fill-opacity:1;stroke:#000;stroke-width:.999997;stroke-miterlimit:4;stroke-dasharray:none"/><path d="M-73.732 79.04v-.248q0-.248.266-.381h11.062q.286.152.286.38 0 .23-.286.381h-11.062q-.266-.133-.266-.38ZM-57.396 80.562q0 .457-.305.762-.304.305-.742.305h-.133q.875 1.504 2.322 1.504 1.333 0 1.942-1.143.362-.628.362-2.437 0-1.96-.514-2.646-.495-.629-1.104-.629h-.114q-1.486 0-2.247 1.295-.076.133-.133.152-.058.02-.286.038-.324 0-.362-.114-.038-.076-.038-3.332v-2.456q0-.952.095-.952.038-.038.077-.038.019 0 .4.152.38.153 1.047.305.666.152 1.428.152 1.351 0 2.589-.533.152-.076.248-.076.152 0 .152.343v.247q-1.561 1.847-3.903 1.847-.59 0-1.067-.114l-.19-.038v3.275l.571-.42q.21-.152.686-.304.476-.152.97-.152 1.543 0 2.61 1.237 1.065 1.238 1.065 2.933 0 1.751-1.218 2.989-1.219 1.237-2.97 1.257-1.543 0-2.476-1.029-.933-1.028-.933-2.323 0-.456.21-.723.21-.267.438-.343.228-.076.438-.076.476 0 .78.324.305.323.305.761zM-49.38 79.04v-.248q0-.248.266-.381h11.063q.285.152.285.38 0 .23-.285.381h-11.063q-.266-.133-.266-.38zM-27.37 83.552q-.343-.057-2.456-.057-2.209 0-2.551.057h-.172v-.876h1.104q.134 0 .324-.038t.267-.095q.076-.058.133-.153.019-.038.019-1.028v-.952h-4.931v-.876l2.875-4.398q2.913-4.417 2.95-4.436.039-.038.4-.038h.343l.115.114v8.758h1.751v.876h-1.751v1.885q0 .133.114.228.152.134 1.085.153h.552v.876Zm-3.218-4.018v-6.36l-4.17 6.341 2.076.02ZM458.742 83.552q-.343-.057-2.456-.057-2.209 0-2.552.057h-.17v-.876h1.104q.133 0 .323-.038t.267-.096q.076-.057.133-.152.019-.038.019-1.028v-.952h-4.932v-.876l2.875-4.398q2.914-4.417 2.952-4.436.038-.038.4-.038h.342l.114.114v8.758h1.752v.876h-1.752v1.885q0 .133.115.228.152.134 1.085.153h.552v.876zm-3.218-4.018v-6.36l-4.17 6.341 2.076.02zM462.588 80.562q0 .457-.305.762-.304.305-.742.305h-.134q.876 1.504 2.323 1.504 1.333 0 1.942-1.143.362-.628.362-2.437 0-1.96-.514-2.646-.495-.629-1.104-.629h-.115q-1.485 0-2.246 1.295-.077.133-.134.152-.057.02-.285.038-.324 0-.362-.114-.038-.076-.038-3.332v-2.456q0-.952.095-.952.038-.038.076-.038.02 0 .4.152.38.153 1.047.305.667.152 1.428.152 1.352 0 2.59-.533.152-.076.247-.076.153 0 .153.343v.247q-1.562 1.847-3.904 1.847-.59 0-1.066-.114l-.19-.038v3.275l.57-.42q.21-.152.686-.304.476-.152.971-.152 1.543 0 2.609 1.237 1.066 1.238 1.066 2.933 0 1.751-1.218 2.989-1.219 1.237-2.97 1.256-1.543 0-2.476-1.028t-.933-2.323q0-.457.21-.723.209-.267.437-.343.23-.076.438-.076.476 0 .781.324.305.323.305.761z"/><g style="stroke-width:1.11111"><path d="M63.427 52.651v-.222q0-.223.24-.343h9.956q.257.137.257.343 0 .205-.257.342h-9.956q-.24-.12-.24-.342zM77.496 48.779q-.463 0-.72-.292-.257-.291-.274-.754 0-.942.823-1.679.822-.737 1.987-.737.6 0 .754.017 1.268.206 1.937.909.668.702.685 1.525 0 .89-.582 1.73-.583.84-1.611 1.217l-.052.034q0 .017.155.052.154.034.497.154.342.12.65.36 1.406.908 1.406 2.399 0 1.354-1.063 2.365-1.062 1.01-2.69 1.01-1.37 0-2.365-.736-.994-.737-.994-1.868 0-.48.309-.771.308-.292.771-.309.48 0 .788.309.309.308.309.77 0 .19-.052.344-.051.154-.12.274-.068.12-.188.205-.12.086-.206.138-.085.05-.171.068-.086.017-.137.051l-.069.018q.874.77 2.125.77.943 0 1.422-.907.292-.566.292-1.731v-.343q0-1.628-1.097-2.176-.257-.103-1.045-.12l-.72-.017-.051-.035q-.035-.051-.035-.274 0-.308.137-.308.48 0 .994-.086.583-.086 1.063-.72t.48-1.919v-.137q0-.977-.6-1.354-.377-.24-.806-.24-.548 0-1.01.189-.463.188-.652.394l-.188.206h.051q.051.017.137.034.086.017.172.086.085.068.205.12.12.051.172.188.05.137.137.257.085.12.051.343 0 .377-.24.668-.24.292-.771.309z"/></g><g style="stroke-width:1.11111"><path d="M110.69 52.63v-.223q0-.223.24-.343h9.957q.257.137.257.343 0 .205-.257.342h-9.956q-.24-.12-.24-.342zM124.451 49.34q-.463 0-.737-.31-.274-.308-.274-.753 0-1.217.908-2.108.909-.89 2.262-.89 1.56 0 2.605.959 1.045.96 1.062 2.484 0 .737-.342 1.406-.343.668-.823 1.165-.48.497-1.37 1.268-.618.531-1.714 1.576l-1.011.96 1.302.017q2.69 0 2.862-.085.12-.035.41-1.526v-.051h.686v.051q-.017.052-.222 1.56-.206 1.508-.257 1.576v.052h-6.358v-.532q0-.12.103-.257t.514-.6q.497-.548.857-.959.154-.171.582-.634.429-.463.583-.634.154-.171.497-.565.343-.395.48-.583.137-.189.394-.514.257-.326.36-.549.103-.222.257-.496.154-.275.223-.549.068-.274.12-.514.05-.24.05-.565 0-1.08-.582-1.868t-1.662-.788q-.565 0-.994.29-.428.292-.6.566-.17.275-.17.326 0 .017.085.017.308 0 .634.24.325.24.325.788 0 .429-.274.72t-.77.308z"/></g><g style="stroke-width:1.11111"><path d="M162.19 52.63v-.223q0-.223.24-.343h9.957q.257.137.257.343 0 .205-.257.342h-9.956q-.24-.12-.24-.342zM177.733 46.786l-.223.086q-.24.085-.685.171-.446.086-.994.12h-.326v-.788h.326q.805-.034 1.49-.257.686-.223.96-.411.275-.189.48-.377.034-.052.206-.052.154 0 .291.103v5.124l.017 5.14q.12.12.206.155.086.034.411.068.326.034 1.063.034h.445v.789h-.188q-.36-.052-2.725-.052-2.33 0-2.69.052h-.206v-.789h1.096q.275 0 .43-.017.153-.017.273-.051.12-.034.137-.034.018 0 .103-.086.086-.086.103-.069z"/></g><path d="M222.95 46.687q.959-1.388 2.621-1.388.822 0 1.645.446.823.445 1.337 1.576.634 1.422.634 3.907 0 2.656-.737 4.061-.343.72-.943 1.148-.6.429-1.045.532-.446.103-.874.12-.445 0-.891-.103t-1.045-.549q-.6-.445-.943-1.148-.737-1.405-.737-4.06 0-2.983.977-4.542zm3.855-.206q-.514-.548-1.217-.548-.72 0-1.234.548-.428.446-.565 1.234-.137.789-.137 3.29 0 2.708.137 3.565.137.856.617 1.353.48.514 1.182.514.686 0 1.165-.514.497-.514.617-1.439t.137-3.479q0-2.484-.137-3.273-.137-.788-.565-1.25zM274.957 46.786l-.223.086q-.24.085-.685.171-.446.086-.994.12h-.326v-.788h.326q.805-.035 1.49-.257.686-.223.96-.411.274-.189.48-.377.034-.052.206-.052.154 0 .29.103v5.124l.018 5.14q.12.12.206.155.085.034.41.068.326.035 1.063.035h.446v.788h-.189q-.36-.052-2.724-.052-2.33 0-2.69.052h-.206v-.788h1.096q.275 0 .429-.017.154-.017.274-.052.12-.034.137-.034.017 0 .103-.086t.103-.068zM321.494 49.34q-.462 0-.737-.31-.274-.308-.274-.753 0-1.217.908-2.108.909-.89 2.262-.89 1.56 0 2.605.959 1.045.96 1.063 2.484 0 .737-.343 1.406-.343.668-.823 1.165-.48.497-1.37 1.268-.618.531-1.714 1.576l-1.011.96 1.302.017q2.69 0 2.862-.086.12-.034.411-1.525v-.051h.686v.051q-.017.052-.223 1.56-.206 1.508-.257 1.576v.052h-6.358v-.532q0-.12.103-.257t.514-.6q.497-.548.857-.959.154-.171.583-.634.428-.463.582-.634.154-.171.497-.566.343-.394.48-.582.137-.189.394-.514.257-.326.36-.549.103-.222.257-.497.154-.274.223-.548.068-.274.12-.514.051-.24.051-.565 0-1.08-.583-1.868-.582-.789-1.662-.789-.565 0-.994.292-.428.291-.6.565-.17.274-.17.326 0 .017.085.017.308 0 .634.24t.326.788q0 .428-.275.72-.274.291-.77.308zM371.639 48.779q-.463 0-.72-.292-.257-.291-.274-.754 0-.942.823-1.679.822-.737 1.987-.737.6 0 .754.017 1.268.206 1.937.908.668.703.685 1.525 0 .892-.582 1.731-.583.84-1.611 1.217l-.052.034q0 .017.155.052.154.034.497.154.342.12.65.36 1.406.908 1.406 2.399 0 1.354-1.063 2.365-1.062 1.01-2.69 1.01-1.37 0-2.365-.736-.994-.737-.994-1.868 0-.48.309-.771.308-.292.771-.309.48 0 .788.309.309.308.309.77 0 .19-.052.344-.051.154-.12.274-.068.12-.188.205-.12.086-.206.137-.086.052-.171.069-.086.017-.137.051l-.069.017q.874.772 2.125.772.943 0 1.423-.909.29-.565.29-1.73v-.343q0-1.628-1.096-2.176-.257-.103-1.045-.12l-.72-.017-.051-.035q-.034-.051-.034-.274 0-.308.137-.308.48 0 .994-.086.583-.086 1.062-.72.48-.634.48-1.919v-.137q0-.977-.6-1.354-.377-.24-.805-.24-.548 0-1.011.189-.463.188-.651.394l-.189.206h.052q.051.017.137.034.086.017.171.086.086.068.206.12.12.05.17.188.052.137.138.257.086.12.051.343 0 .377-.24.668-.24.291-.77.309z"/><path d="M30.066 25.106H414.12M76.648 17.646v15.758M126.12 17.646v15.758M175.592 17.646v15.758M225.064 17.646v15.758M274.536 17.646v15.758M324.008 17.646v15.758M373.48 17.646v15.758" style="fill:#e5f6ff;stroke:#000;stroke-width:.899998;stroke-dasharray:none"/><circle cx="200.328" cy="25.606" r="12.812" style="fill:#f0f;fill-opacity:1;stroke:none;stroke-width:1.8;stroke-miterlimit:2;stroke-dasharray:none"/><circle cx="324.008" cy="25.606" r="12.812" style="fill:red;fill-opacity:1;stroke:none;stroke-width:1.8;stroke-miterlimit:2;stroke-dasharray:none"/><circle cx="249.8" cy="25.791" r="12.812" style="fill:#e5e500;fill-opacity:1;stroke:none;stroke-width:1.8;stroke-miterlimit:2;stroke-dasharray:none"/><circle cx="336.124" cy="25.606" r="12.812" style="fill:#00d900;fill-opacity:1;stroke:none;stroke-width:1.8;stroke-miterlimit:2;stroke-dasharray:none"/><circle cx="104.616" cy="-60.357" r="12.605" style="fill:#f0f;fill-opacity:1;stroke:none;stroke-width:1.8;stroke-miterlimit:2;stroke-dasharray:none"/><circle cx="287.092" cy="-59.672" r="12.605" style="fill:red;fill-opacity:1;stroke:none;stroke-width:1.8;stroke-miterlimit:2;stroke-dasharray:none"/><circle cx="200.647" cy="-59.672" r="12.605" style="fill:#e5e500;fill-opacity:1;stroke:none;stroke-width:1.8;stroke-miterlimit:2;stroke-dasharray:none"/><circle cx="120.345" cy="-59.672" r="12.605" style="fill:#00f;fill-opacity:1;stroke:none;stroke-width:1.8;stroke-miterlimit:2;stroke-dasharray:none"/><circle cx="324.569" cy="-60.357" r="12.605" style="fill:#00d900;fill-opacity:1;stroke:none;stroke-width:1.8;stroke-miterlimit:2;stroke-dasharray:none"/><path d="M68.913 239.957v-.248q0-.247.267-.38h11.062q.286.152.286.38 0 .229-.286.381H69.18q-.267-.133-.267-.38zM84.545 235.654q-.514 0-.8-.324-.285-.324-.304-.838 0-1.047.914-1.866.914-.818 2.208-.818.667 0 .838.019 1.41.228 2.152 1.009.742.78.761 1.694 0 .99-.647 1.923t-1.79 1.352l-.057.038q0 .02.171.057.172.039.553.172.38.133.723.4 1.561 1.009 1.561 2.665 0 1.504-1.18 2.628-1.18 1.123-2.99 1.123-1.523 0-2.627-.819-1.104-.818-1.104-2.075 0-.533.343-.857.342-.323.856-.342.533 0 .876.342.343.343.343.857 0 .21-.057.38-.057.172-.134.305-.076.134-.209.229t-.228.152q-.096.057-.19.076-.096.02-.153.058l-.076.019q.97.856 2.36.856 1.048 0 1.58-1.009.325-.628.325-1.923v-.38q0-1.81-1.219-2.419-.286-.114-1.161-.133l-.8-.019-.057-.038q-.038-.057-.038-.305 0-.342.152-.342.533 0 1.104-.096.648-.095 1.18-.8.534-.704.534-2.132v-.152q0-1.085-.666-1.504-.42-.267-.895-.267-.61 0-1.124.21-.514.21-.723.438l-.21.228h.057q.058.02.153.038.095.02.19.095.095.077.229.134.133.057.19.21.057.151.152.285.096.133.058.38 0 .42-.267.743-.267.324-.857.343zM120.381 239.957v-.248q0-.247.267-.38h11.062q.286.152.286.38 0 .229-.286.381h-11.062q-.267-.133-.267-.38zM135.67 236.301q-.514 0-.818-.343-.305-.342-.305-.837 0-1.352 1.01-2.342 1.008-.99 2.513-.99 1.732 0 2.894 1.066 1.161 1.066 1.18 2.76 0 .82-.38 1.562-.381.742-.915 1.295-.533.552-1.523 1.409-.685.59-1.904 1.751L136.3 242.7l1.447.019q2.99 0 3.18-.096.133-.038.457-1.694v-.057h.761v.057q-.019.057-.247 1.732-.229 1.676-.286 1.752v.057h-7.064v-.59q0-.133.114-.286.115-.152.572-.666.552-.61.952-1.066.171-.19.647-.705.476-.514.647-.704.172-.19.552-.629.381-.437.534-.647.152-.21.438-.571.285-.362.4-.61.114-.247.285-.552.171-.304.247-.609.077-.304.134-.571.057-.267.057-.628 0-1.2-.647-2.076-.648-.875-1.847-.875-.629 0-1.105.323-.476.324-.666.629-.19.304-.19.361 0 .02.095.02.342 0 .704.266.362.266.362.876 0 .476-.305.8-.304.323-.856.342zM168.738 239.957v-.248q0-.247.266-.38h11.063q.285.152.285.38 0 .229-.285.381h-11.063q-.266-.133-.266-.38zM186.007 233.464l-.247.095q-.267.096-.762.19-.495.096-1.104.134h-.362v-.876h.362q.895-.038 1.656-.285.762-.248 1.066-.457.305-.21.533-.42.039-.056.229-.056.171 0 .324.114v5.693l.019 5.712q.133.133.228.171.095.038.457.076t1.18.038h.496v.876h-.21q-.4-.057-3.027-.057-2.59 0-2.99.057h-.228v-.876H184.846q.304 0 .476-.019.171-.019.304-.057.134-.038.153-.038.019 0 .114-.095t.114-.076zM220.434 233.33q1.067-1.541 2.913-1.541.914 0 1.828.495t1.485 1.751q.705 1.58.705 4.341 0 2.952-.819 4.513-.38.8-1.047 1.276-.666.476-1.161.59-.495.114-.971.133-.496 0-.99-.114-.496-.114-1.162-.61-.666-.494-1.047-1.275-.819-1.561-.819-4.513 0-3.313 1.085-5.045zm4.284-.228q-.57-.609-1.351-.609-.8 0-1.371.61-.476.494-.629 1.37-.152.876-.152 3.656 0 3.008.152 3.96.153.952.686 1.504.533.572 1.314.572.761 0 1.294-.572.552-.57.686-1.599.133-1.028.152-3.865 0-2.76-.152-3.637-.153-.876-.629-1.39zM269.077 233.464l-.247.095q-.267.096-.762.19-.495.096-1.104.134h-.362v-.876h.362q.895-.038 1.657-.285.761-.248 1.066-.457.304-.21.533-.42.038-.056.228-.056.172 0 .324.114v5.693l.019 5.712q.133.133.228.171.096.038.457.076.362.038 1.18.038h.496v.876h-.21q-.4-.057-3.027-.057-2.59 0-2.99.057h-.228v-.876H267.916q.305 0 .476-.018.171-.02.305-.058.133-.038.152-.038.019 0 .114-.095t.114-.076zM313.087 236.301q-.514 0-.818-.343-.305-.342-.305-.837 0-1.352 1.01-2.342 1.008-.99 2.512-.99 1.733 0 2.894 1.066 1.162 1.066 1.18 2.76 0 .82-.38 1.562-.38.742-.914 1.295-.533.552-1.523 1.409-.685.59-1.904 1.751l-1.123 1.067 1.447.018q2.989 0 3.18-.095.133-.038.456-1.694v-.057h.762v.057q-.019.057-.248 1.732-.228 1.676-.285 1.752v.057h-7.064v-.59q0-.133.114-.286.114-.152.571-.666.553-.61.952-1.066.172-.19.648-.705.476-.514.647-.704.172-.19.552-.629.381-.438.533-.647.153-.21.438-.571.286-.362.4-.61.114-.247.286-.552.171-.304.247-.609.076-.305.134-.571.057-.267.057-.628 0-1.2-.648-2.076-.647-.876-1.847-.876-.628 0-1.104.324-.476.324-.666.628-.19.305-.19.362 0 .019.094.019.343 0 .705.267.362.266.362.875 0 .476-.305.8-.305.324-.857.343zM360.29 235.654q-.514 0-.8-.324-.285-.324-.304-.838 0-1.047.914-1.866.914-.818 2.208-.818.667 0 .838.019 1.409.228 2.152 1.009.742.78.761 1.694 0 .99-.647 1.923-.648.933-1.79 1.352l-.057.038q0 .02.171.057.172.038.552.172.381.133.724.4 1.561 1.009 1.561 2.665 0 1.504-1.18 2.628-1.18 1.123-2.99 1.123-1.523 0-2.627-.819-1.104-.818-1.104-2.075 0-.533.342-.857.343-.324.857-.343.533 0 .876.343.343.343.343.857 0 .21-.057.38-.057.172-.134.305-.076.134-.21.229-.132.095-.228.152-.095.057-.19.076-.095.02-.152.057l-.076.02q.97.856 2.36.856 1.048 0 1.58-1.01.324-.627.324-1.922v-.38q0-1.81-1.218-2.419-.286-.114-1.161-.133l-.8-.02-.057-.037q-.038-.057-.038-.305 0-.343.152-.343.533 0 1.104-.095.648-.095 1.18-.8.534-.704.534-2.132v-.152q0-1.086-.667-1.504-.418-.267-.894-.267-.61 0-1.124.21-.514.209-.723.437l-.21.229h.057q.057.019.153.038.095.019.19.095t.229.133q.133.057.19.21.057.152.152.285.095.134.057.381 0 .419-.266.743-.267.323-.857.342z"/><circle cx="101.384" cy="25.106" r="12.812" style="fill:#00f;fill-opacity:1;stroke:none;stroke-width:1.8;stroke-miterlimit:2;stroke-dasharray:none"/></svg>