<svg xmlns="http://www.w3.org/2000/svg" xmlns:xlink="http://www.w3.org/1999/xlink" width="400" height="246.403"><defs><symbol id="a" overflow="visible" style="overflow:visible"><path d="M6.563-2.297c.171 0 .359 0 .359-.203 0-.188-.188-.188-.36-.188h-5.39c-.172 0-.344 0-.344.188 0 .203.172.203.344.203zm0 0" style="stroke:none"/></symbol><symbol id="b" overflow="visible" style="overflow:visible"><path d="m2.906-6.734-1.797.906v.14c.11-.046.22-.093.266-.109a1.24 1.24 0 0 1 .453-.11c.203 0 .297.141.297.47v4.515c0 .328-.078.547-.234.64-.157.094-.297.126-.72.126V0h2.75v-.156c-.78 0-.937-.11-.937-.578V-6.72Zm0 0" style="stroke:none"/></symbol><symbol id="c" overflow="visible" style="overflow:visible"><path d="M2.531-6.734c-.547 0-.969.171-1.328.515-.578.563-.969 1.703-.969 2.875 0 1.078.329 2.25.797 2.813A1.87 1.87 0 0 0 2.5.14c.5 0 .922-.172 1.281-.516.578-.547.969-1.703.969-2.922 0-2.031-.906-3.437-2.219-3.437zm-.031.25c.844 0 1.281 1.125 1.281 3.218 0 2.079-.437 3.141-1.281 3.141-.86 0-1.297-1.063-1.297-3.14 0-2.11.438-3.22 1.297-3.22zm0 0" style="stroke:none"/></symbol><symbol id="d" overflow="visible" style="overflow:visible"><path d="M4-1.11c-.078.094-.125.157-.219.266-.219.313-.344.406-.453.406-.14 0-.234-.124-.312-.406-.016-.078-.032-.14-.032-.172-.25-1.015-.359-1.468-.359-1.609.438-.781.797-1.219.969-1.219.062 0 .14.031.25.078.11.079.187.094.265.094.204 0 .344-.14.344-.36 0-.202-.172-.359-.406-.359-.438 0-.813.36-1.5 1.422l-.11-.547c-.14-.687-.25-.875-.53-.875-.22 0-.548.079-1.157.282l-.11.046.032.141c.39-.078.469-.11.562-.11.25 0 .313.095.454.688l.28 1.235-.812 1.156C.953-.641.75-.47.641-.47a.554.554 0 0 1-.25-.094.755.755 0 0 0-.329-.093c-.187 0-.328.14-.328.344 0 .265.204.421.5.421.297 0 .422-.093.922-.703.266-.312.485-.578.89-1.156L2.36-.562c.125.515.25.671.579.671.374 0 .624-.234 1.203-1.14zm0 0" style="stroke:none"/></symbol><symbol id="e" overflow="visible" style="overflow:visible"><path d="M.156-3.984c.125-.032.188-.047.297-.047.578 0 .719.25 1.188 1.968.156.641.406 1.813.406 1.985 0 .156-.063.312-.219.5-.297.406-.5.672-.61.781C1 1.422.892 1.5.75 1.5c-.047 0-.125-.031-.234-.11-.141-.109-.25-.171-.36-.171a.387.387 0 0 0-.39.39c0 .25.218.438.5.438.64 0 1.953-1.485 3.03-3.469.673-1.219.954-1.937.954-2.422a.554.554 0 0 0-.547-.547c-.234 0-.39.141-.39.36 0 .156.078.265.28.39.188.11.25.204.25.344 0 .39-.359 1.172-1.218 2.578l-.188-1.156c-.156-.875-.718-2.516-.859-2.516h-.125l-.984.172a1.759 1.759 0 0 1-.313.063zm0 0" style="stroke:none"/></symbol></defs><path d="M-99.498 0H99.498M-99.498 38.27H99.498M-99.498 76.536H99.498M-76.537-22.961V99.496m38.27-122.457V99.496M.001-22.96V99.496M38.267-22.96V99.496M76.537-22.96V99.496" style="fill:none;stroke:#9e9ed1;stroke-width:.19925;stroke-linecap:butt;stroke-linejoin:miter;stroke-miterlimit:10;stroke-opacity:1" transform="matrix(1.67698 0 0 -1.67698 195.493 205.514)"/><path d="M-99.498 0h202.083M.002-22.96v125.935" style="fill:none;stroke:#000;stroke-width:.3985;stroke-linecap:butt;stroke-linejoin:miter;stroke-miterlimit:10;stroke-opacity:1" transform="matrix(1.67698 0 0 -1.67698 195.493 205.514)"/><path d="M-1.777 2.372C-1.628 1.48.001.149.446 0 .001-.148-1.628-1.48-1.777-2.37" style="fill:none;stroke:#000;stroke-width:.83687;stroke-linecap:round;stroke-linejoin:round;stroke-miterlimit:10;stroke-opacity:1" transform="matrix(1.67698 0 0 -1.67698 367.32 205.514)"/><path d="M-1.778 2.37C-1.63 1.482-.001.146.445-.003c-.446-.144-2.075-1.48-2.223-2.37" style="fill:none;stroke:#000;stroke-width:.83687;stroke-linecap:round;stroke-linejoin:round;stroke-miterlimit:10;stroke-opacity:1" transform="matrix(0 -1.67698 -1.67698 0 195.493 33.687)"/><path d="M76.537 0c0 42.27-34.266 76.536-76.535 76.536-42.274 0-76.54-34.266-76.54-76.536" style="fill:none;stroke:red;stroke-width:.79701;stroke-linecap:butt;stroke-linejoin:miter;stroke-miterlimit:10;stroke-opacity:1" transform="matrix(1.67698 0 0 -1.67698 195.493 205.514)"/><path d="M79.217 0a2.679 2.679 0 1 1-5.358.002A2.679 2.679 0 0 1 79.217 0zM-73.858 0a2.679 2.679 0 1 1-5.358.002A2.679 2.679 0 0 1-73.858 0zm0 0" style="fill:red;fill-opacity:1;fill-rule:nonzero;stroke:red;stroke-width:.3985;stroke-linecap:butt;stroke-linejoin:miter;stroke-miterlimit:10;stroke-opacity:1" transform="matrix(1.67698 0 0 -1.67698 195.493 205.514)"/><path d="M-88.018-17.605V-5.36h22.961v-12.246zm0 0" style="fill:#fdfdfd;fill-opacity:1;fill-rule:nonzero;stroke:#fdfdfd;stroke-width:.3985;stroke-linecap:butt;stroke-linejoin:miter;stroke-miterlimit:10;stroke-opacity:1" transform="matrix(1.67698 0 0 -1.67698 195.493 205.514)"/><use xlink:href="#a" width="100%" height="100%" x="220.652" y="266.208" style="fill:#b0b0d9;fill-opacity:1" transform="matrix(1.67698 0 0 1.67698 -313.553 -216.765)"/><use xlink:href="#b" width="100%" height="100%" x="228.393" y="266.208" style="fill:#b0b0d9;fill-opacity:1" transform="matrix(1.67698 0 0 1.67698 -313.553 -216.765)"/><path d="M-11.479-17.605V-5.36h22.961v-12.246zm0 0" style="fill:#fdfdfd;fill-opacity:1;fill-rule:nonzero;stroke:#fdfdfd;stroke-width:.3985;stroke-linecap:butt;stroke-linejoin:miter;stroke-miterlimit:10;stroke-opacity:1" transform="matrix(1.67698 0 0 -1.67698 195.493 205.514)"/><use xlink:href="#c" width="100%" height="100%" x="301.058" y="266.545" style="fill:#b0b0d9;fill-opacity:1" transform="matrix(1.67698 0 0 1.67698 -313.553 -216.765)"/><path d="M65.056-17.605V-5.36h22.961v-12.246zm0 0" style="fill:#fdfdfd;fill-opacity:1;fill-rule:nonzero;stroke:#fdfdfd;stroke-width:.3985;stroke-linecap:butt;stroke-linejoin:miter;stroke-miterlimit:10;stroke-opacity:1" transform="matrix(1.67698 0 0 -1.67698 195.493 205.514)"/><use xlink:href="#b" width="100%" height="100%" x="377.594" y="266.622" style="fill:#b0b0d9;fill-opacity:1" transform="matrix(1.67698 0 0 1.67698 -313.553 -216.765)"/><path d="M-11.479 68.883v15.309h7.653V68.883Zm0 0" style="fill:#fdfdfd;fill-opacity:1;fill-rule:nonzero;stroke:#fdfdfd;stroke-width:.3985;stroke-linecap:butt;stroke-linejoin:miter;stroke-miterlimit:10;stroke-opacity:1" transform="matrix(1.67698 0 0 -1.67698 195.493 205.514)"/><use xlink:href="#b" width="100%" height="100%" x="293.404" y="178.606" style="fill:#b0b0d9;fill-opacity:1" transform="matrix(1.67698 0 0 1.67698 -313.553 -216.765)"/><use xlink:href="#d" width="100%" height="100%" x="217.773" y="156.682" style="fill:#000;fill-opacity:1" transform="translate(-72.722 -120.716) scale(2.11184)"/><use xlink:href="#e" width="100%" height="100%" x="242.152" y="156.682" style="fill:#000;fill-opacity:1" transform="translate(-319.58 -318.567) scale(2.11184)"/></svg>