<svg xmlns="http://www.w3.org/2000/svg" xmlns:xlink="http://www.w3.org/1999/xlink" id="svg146770" width="470" height="280" preserveAspectRatio="none" version="1.1" viewBox="-10 -50 470 280"><style id="style146639" type="text/css">.grid{stroke:#9e9ed1;stroke-width:.4}.axes{stroke:#000;stroke-width:.9}.axes-arrows{stroke-width:1.2100000000000002;stroke:#000;fill:none;stroke-linecap:round;stroke-linejoin:round}.dots-open{stroke-width:1.5;stroke:red;fill:none}.none{display:none}</style><defs id="defs146649"><path id="STIXWEBMAIN-5B" stroke-width="1" d="M299-156H88v818h211v-25h-83c-34 0-52-12-52-48V-77c0-40 19-54 52-54h83v-25Z"/><path id="STIXWEBMAIN-5D" stroke-width="1" d="M245-156H34v25h88c35 0 47 15 47 46v668c0 35-13 54-51 54H34v25h211v-818Z"/><path id="STIXWEBMAIN-30" stroke-width="1" d="M476 330c0-172-63-344-226-344C79-14 24 172 24 336c0 177 69 340 230 340 131 0 222-141 222-346zm-96-5c0 208-44 325-132 325-83 0-128-118-128-321S164 12 250 12c85 0 130 115 130 313Z"/><path id="STIXWEBMAIN-32" stroke-width="1" d="M474 137 420 0H29v12l178 189c94 99 130 175 130 260 0 91-54 141-139 141-72 0-107-32-147-130l-21 5c21 117 85 199 208 199 113 0 185-77 185-176 0-79-39-154-128-248L130 76h234c42 0 63 11 96 67Z"/><path id="STIXWEBMAIN-34" stroke-width="1" d="M473 167H370V0h-78v167H12v64l314 445h44V231h103v-64zm-181 64v343L52 231h240Z"/><path id="STIXWEBMAIN-36" stroke-width="1" d="m446 684 2-16c-157-26-269-134-296-285 49 38 83 45 127 45 117 0 189-80 189-209 0-64-18-120-51-160-37-46-93-73-159-73-79 0-142 37-177 101-28 51-47 122-47 192 0 108 38 203 109 276 86 90 165 114 303 129zm-68-496c0 128-42 194-135 194-57 0-116-24-116-116 0-152 48-252 142-252 72 0 109 72 109 174Z"/><path id="STIXWEBMAIN-2212" stroke-width="1" d="M621 220H64v66h557v-66Z"/><path id="STIXWEBMAIN-31" stroke-width="1" d="M394 0H118v15c74 4 95 25 95 80v449c0 34-9 49-30 49-10 0-27-5-45-12l-27-10v14l179 91 9-3V76c0-43 20-61 95-61V0Z"/></defs><use xlink:href="#STIXWEBMAIN-5B" id="use148088" x="0" y="0" style="fill:#000;stroke:none" transform="matrix(.01904 0 0 -.01904 40.024 -28.046)"/><g id="g148092" style="fill:#000;stroke:none" transform="matrix(.01904 0 0 -.01904 46.365 -28.046)"><text id="text148090" stroke="none" direction="ltr" style="font-size:20.5px;font-family:baskerville" transform="scale(52.507 -52.507)">km</text></g><path id="use148094" stroke-width=".019" d="M77.668-40.917 73.327-27.78h-1.295l4.36-13.138z" style="fill:#000;stroke:none"/><text id="text148096" x="77.516" y="-28.046" stroke="none" direction="ltr" style="font-size:20.4955px;font-family:baskerville;fill:#000;stroke-width:.999781">hr</text><use xlink:href="#STIXWEBMAIN-32" id="use148098" x="1364" y="987" style="fill:#000;stroke:none" transform="matrix(.01346 0 0 -.01346 77.516 -20.114)"/><use xlink:href="#STIXWEBMAIN-5D" id="use148102" x="3388" y="0" style="fill:#000;stroke:none" transform="matrix(.01904 0 0 -.01904 38.245 -28.046)"/><g id="grid" transform="translate(0 4.746)"><path id="path146651" d="M25 220V0" class="grid"/><path id="path146653" d="M75 220V0" class="grid"/><path id="path146655" d="M125 220V0" class="grid"/><path id="path146657" d="M175 220v-80.576m0-22.046V0" class="grid"/><path id="path146659" d="M225 220V0" class="grid"/><path id="path146661" d="M275 220v-80.576m0-22.046V0" class="grid"/><path id="path146663" d="M325 220V0" class="grid"/><path id="path146665" d="M375 220v-79.574m0-23.048V0" class="grid"/><path id="path146667" d="M0 210h40.938m26.684 0H400" class="grid"/><path id="path146669" d="M0 160h40.938m26.684 0H400" class="grid"/><path id="path146671" d="M0 110h400" class="grid"/><path id="path146673" d="M0 60h54m13.622 0H400" class="grid"/><path id="path146675" d="M0 10h54m13.622 0H400" class="grid"/></g><g id="axes" transform="translate(0 4.746)"><path id="path146678" d="M0 110h410.657" class="axes"/><path id="path146680" d="M75 220V-16.396" class="axes"/></g><g id="axes arrows" transform="translate(0 4.746)"><path id="path146683" d="M405.739 103.852c0 2.459 3.689 6.148 4.918 6.148-1.23 0-4.918 3.69-4.918 6.148" class="axes-arrows"/><path id="path146685" d="M68.852-11.477c2.459 0 6.148-3.69 6.148-4.919 0 1.23 3.689 4.919 6.148 4.919" class="axes-arrows"/></g><g id="g146696" style="stroke:none;fill:#000" transform="matrix(.01904 0 0 -.01904 422.954 119.255)"><use xlink:href="#STIXWEBMAIN-5B" id="use146688" x="0" y="0"/><g id="g146692" transform="translate(333)"><text id="text146690" stroke="none" direction="ltr" style="font-size:20.5px;font-family:baskerville" transform="scale(52.507 -52.507)">hr</text></g><use xlink:href="#STIXWEBMAIN-5D" id="use146694" x="1298" y="0"/></g><path id="path146709" d="M0 114.746h21.5m7 0h93m7 0h93m7 0h93m7 0H400" style="stroke:red;stroke-width:1.7;fill:none"/><circle id="circle146713" cx="25" cy="114.746" r="3.5" class="dots-open"/><circle id="circle146719" cx="125" cy="114.746" r="3.5" class="dots-open"/><circle id="circle146721" cx="225" cy="114.746" r="3.5" class="dots-open"/><circle id="circle146727" cx="325" cy="114.746" r="3.5" class="dots-open"/><g id="notch labels" style="stroke:none;fill:#b8b8de" transform="translate(0 4.746)"><g id="g146734" transform="matrix(.01903 0 0 -.01903 56.048 135.5)"><use xlink:href="#STIXWEBMAIN-30" id="use146732" x="0" y="0"/></g><g id="g146738" transform="matrix(.01903 0 0 -.01903 170.237 135.5)"><use xlink:href="#STIXWEBMAIN-32" id="use146736" x="0" y="0"/></g><g id="g146742" transform="matrix(.01903 0 0 -.01903 270.237 135.5)"><use xlink:href="#STIXWEBMAIN-34" id="use146740" x="0" y="0"/></g><g id="g146746" transform="matrix(.01903 0 0 -.01903 370.237 136.5)"><use xlink:href="#STIXWEBMAIN-36" id="use146744" x="0" y="0"/></g><g id="g146752" transform="matrix(.01904 0 0 -.01904 42.987 216.432)"><use xlink:href="#STIXWEBMAIN-2212" id="use146748" x="0" y="0"/><use xlink:href="#STIXWEBMAIN-32" id="use146750" x="685" y="0"/></g><g id="g146758" transform="matrix(.01904 0 0 -.01904 42.987 166.432)"><use xlink:href="#STIXWEBMAIN-2212" id="use146754" x="0" y="0"/><use xlink:href="#STIXWEBMAIN-31" id="use146756" x="685" y="0"/></g><g id="g146762" transform="matrix(.01903 0 0 -.01903 56.048 66.429)"><use xlink:href="#STIXWEBMAIN-31" id="use146760" x="0" y="0"/></g><g id="g146766" transform="matrix(.01903 0 0 -.01903 56.048 16.429)"><use xlink:href="#STIXWEBMAIN-32" id="use146764" x="0" y="0"/></g></g></svg>