<svg xmlns="http://www.w3.org/2000/svg" xmlns:xlink="http://www.w3.org/1999/xlink" id="svg482" width="480" height="380" preserveAspectRatio="none" version="1.1" viewBox="-10 -10 480 380"><style id="style419" type="text/css">.grid{stroke:#9e9ed1;stroke-width:.4}.axes{stroke:#000;stroke-width:.9}</style><defs id="defs424"><path id="STIXWEBMAIN-2212" stroke-width="1" d="M621 220H64v66h557z"/><path id="STIXWEBMAIN-31" stroke-width="1" d="M394 0H118v15c74 4 95 25 95 80v449c0 34-9 49-30 49-10 0-27-5-45-12l-27-10v14l179 91 9-3V76c0-43 20-61 95-61z"/><path id="STIXWEBMAIN-30" stroke-width="1" d="M476 330c0-172-63-344-226-344C79-14 24 172 24 336c0 177 69 340 230 340 131 0 222-141 222-346Zm-96-5c0 208-44 325-132 325-83 0-128-118-128-321S164 12 250 12c85 0 130 115 130 313z"/><clipPath id="trbl_clip_0_950_150_0"><path id="path171313" d="M0 0h950v150H0Z"/></clipPath><clipPath id="trbl_clip_0_950_150_0-1"><path id="path171313-4" d="M0 0h950v150H0Z"/></clipPath></defs><g id="layer4"><path id="path2917" d="M110.422 360V188.198m0 0V0" class="grid"/><path id="path2919" d="M230.422 360V0" class="grid"/><path id="path2921" d="M350.422 360V188.198m0 0V0" class="grid"/><path id="path2923" d="M50.422 300h171.803m0 0h188.197" class="grid"/><path id="path2925" d="M50.422 180h360" class="grid"/><path id="path2927" d="M50.422 60h171.803m0 0h188.197" class="grid"/><use xlink:href="#STIXWEBMAIN-2212" id="use2929" x="0" y="0" style="fill:#b8b8de;fill-opacity:1" transform="matrix(.01904 0 0 -.01904 81.24 173.27)"/><use xlink:href="#STIXWEBMAIN-31" id="use2931" x="685" y="0" style="fill:#b8b8de;fill-opacity:1" transform="matrix(.01904 0 0 -.01904 81.24 173.27)"/><g id="g2937" style="display:inline;fill:#b8b8de;fill-opacity:1" transform="matrix(.01903 0 0 -.01903 211.88 205.5)"><use xlink:href="#STIXWEBMAIN-30" id="use2935" x="0" y="0" style="fill:#b8b8de;fill-opacity:1" transform="translate(-211.217 43.72)"/></g><g id="g2941" style="fill:#b8b8de;fill-opacity:1" transform="matrix(.01903 0 0 -.01903 345.66 205.5)"><use xlink:href="#STIXWEBMAIN-31" id="use2939" x="0" y="0" style="fill:#b8b8de;fill-opacity:1" transform="translate(612.08 43.72)"/></g><g id="g2947" style="display:inline;fill:#b8b8de;fill-opacity:1" transform="matrix(.01904 0 0 -.01904 196.36 319.885)"><use xlink:href="#STIXWEBMAIN-2212" id="use2943" x="0" y="0" style="fill:#b8b8de;fill-opacity:1"/><use xlink:href="#STIXWEBMAIN-31" id="use2945" x="685" y="0" style="fill:#b8b8de;fill-opacity:1"/></g><g id="g2951" style="display:inline;fill:#b8b8de;fill-opacity:1" transform="matrix(.01903 0 0 -.01903 209.422 -37.817)"><use xlink:href="#STIXWEBMAIN-31" id="use2949" x="0" y="0" style="fill:#b8b8de;fill-opacity:1" transform="translate(0 582.933)"/></g><use xlink:href="#STIXWEBMAIN-31" id="use1255" x="685" y="0" style="fill:#b8b8de;fill-opacity:1" transform="matrix(.01904 0 0 -.01904 196.36 50.705)"/></g><g id="axes"><path id="path439" d="M50.422 180h360" class="axes"/><path id="path441" d="M230.422 360V0" class="axes"/></g><g id="layer2"><g id="g20176" transform="translate(49.132 1.033)"><path id="path20069" d="m190.32 185.145-4.26 8.542-8.358-4.166" style="fill:none;fill-opacity:1;stroke:#000;stroke-width:.7;stroke-miterlimit:2;stroke-dasharray:none;stroke-dashoffset:0"/><path id="path20089" d="m187.587 169.696 8.357 4.166-4.286 8.598" style="fill:none;fill-opacity:1;stroke:#000;stroke-width:.7;stroke-miterlimit:2;stroke-dasharray:none;stroke-dashoffset:0"/><path id="path20085" d="m171.833 172.575 4.286-8.597 8.784 4.38" style="fill:none;fill-opacity:1;stroke:#000;stroke-width:.7;stroke-miterlimit:2;stroke-dasharray:none;stroke-dashoffset:0"/><path id="path20081" d="m175.019 188.183-8.784-4.38 4.259-8.542" style="fill:none;fill-opacity:1;stroke:#000;stroke-width:.7;stroke-miterlimit:2;stroke-dasharray:none;stroke-dashoffset:0"/></g><path id="path14649" d="m123.029 126.46 214.787 107.08" style="fill:#000;fill-opacity:1;stroke:#000;stroke-width:1.8;stroke-miterlimit:2;stroke-dasharray:1.8,1.8;stroke-dashoffset:0"/><path id="path14524" d="m176.882 287.394 107.08-214.789" style="fill:#000;fill-opacity:1;stroke:#000;stroke-width:1.8;stroke-miterlimit:2;stroke-dasharray:1.8,1.8;stroke-dashoffset:0"/><path id="path10324" d="M350.422 180a120 120 0 0 1-120 120 120 120 0 0 1-120-120 120 120 0 0 1 120-120 120 120 0 0 1 120 120z" style="fill:none;stroke:#000;stroke-width:1.8;stroke-miterlimit:2"/><path id="path640" d="M123.029 126.46A120 120 0 0 1 230.422 60a120 120 0 0 1 53.54 12.605A120 120 0 0 1 350.421 180a120 120 0 0 1-12.606 53.54A120 120 0 0 1 230.422 300a120 120 0 0 1-53.54-12.606A120 120 0 0 1 110.422 180a120 120 0 0 1 12.607-53.54" style="fill:none;stroke:#000;stroke-width:1.8;stroke-miterlimit:2"/><path id="path10455" d="M-106.777-30.41a120 120 0 0 1-120 120 120 120 0 0 1-120-120 120 120 0 0 1 120-120 120 120 0 0 1 120 120z" style="fill:none;stroke:#000;stroke-width:1.8;stroke-miterlimit:2"/><circle id="path10465" cx="283.961" cy="72.605" r="12.605" style="fill:red;fill-opacity:1;stroke:none;stroke-width:1.8;stroke-miterlimit:2;stroke-dasharray:none"/><circle id="circle10520" cx="176.882" cy="287.394" r="12.605" style="fill:#e5e500;fill-opacity:1;stroke:none;stroke-width:1.8;stroke-miterlimit:2;stroke-dasharray:none"/><circle id="circle12227" cx="337.816" cy="233.54" r="12.605" style="fill:#00f;fill-opacity:1;stroke:none;stroke-width:1.8;stroke-miterlimit:2;stroke-dasharray:none"/><circle id="circle12296" cx="123.029" cy="126.46" r="12.605" style="fill:#00d900;fill-opacity:1;stroke:none;stroke-width:1.8;stroke-miterlimit:2;stroke-dasharray:none"/><circle id="circle12878" cx="-134.935" cy="287.394" r="12.605" style="fill:#dd0;fill-opacity:1;stroke:none;stroke-width:1.8;stroke-miterlimit:2;stroke-dasharray:none"/><circle id="circle12880" cx="-188.788" cy="126.46" r="12.605" style="fill:#0c0;fill-opacity:1;stroke:none;stroke-width:1.8;stroke-miterlimit:2;stroke-dasharray:none"/><path id="path15451" d="m490.783 1403.31-214.788-107.081 107.081-214.788 214.788 107.08Z" style="fill:none;fill-opacity:1;stroke:#000;stroke-width:1.8;stroke-miterlimit:2;stroke-dasharray:none;stroke-dashoffset:0"/><path id="path15455" d="m-342.707 194.72-19.825-9.883 9.884-19.825 19.825 9.883z" style="fill:none;fill-opacity:1;stroke:#000;stroke-width:.7;stroke-miterlimit:2;stroke-dasharray:none;stroke-dashoffset:0"/><path id="path17844" d="m1149.58 287.394 107.08-214.789m-160.933 53.855 214.788 107.08" style="fill:#000;fill-opacity:1;stroke:#000;stroke-width:3;stroke-miterlimit:2;stroke-dasharray:none;stroke-dashoffset:0"/><path id="path17846" d="m1207.89 194.72-19.825-9.883 9.884-19.825 19.826 9.883z" style="fill:none;fill-opacity:1;stroke:#000;stroke-width:.7;stroke-miterlimit:2;stroke-dasharray:none;stroke-dashoffset:0"/><ellipse id="ellipse25418" cx="180" cy="-345.543" rx="141.053" ry="141.672" style="fill:none;fill-opacity:1;stroke:#000;stroke-width:1.3;stroke-miterlimit:2;stroke-dasharray:none;stroke-dashoffset:0"/><path id="path25420" d="M222.428-505.701 180-345.543l106.316-135.573" style="fill:none;fill-opacity:1;stroke:#000;stroke-width:1.3;stroke-miterlimit:2;stroke-dasharray:none;stroke-dashoffset:0"/><path id="path26292" d="m322.247-173.966 1.516 8.293-8.282.729" style="fill:none;fill-opacity:1;stroke:#000;stroke-width:1.3;stroke-miterlimit:2;stroke-dasharray:none;stroke-dashoffset:0;stroke-opacity:1"/><path id="path31169" d="M367.33 216.269a141.672 141.053 0 0 1-25.612 51.009" style="fill:none;fill-opacity:1;stroke:#000;stroke-width:1.3;stroke-miterlimit:2;stroke-dasharray:none;stroke-dashoffset:0"/><path id="path31173" stroke-linejoin="round" d="M350.17 266.282c-1.96-1.465-7.611-.081-8.515 1.113.904-1.194.675-6.976-1.285-8.442" class="difference-arrows-tips" style="display:inline;fill:none;stroke:#000;stroke-width:1.5;stroke-linecap:round;stroke-linejoin:round;stroke-dasharray:none"/><path id="path31186" d="M194.153 316.908a141.053 141.672 0 0 1-51.009-25.613" style="fill:none;fill-opacity:1;stroke:#000;stroke-width:1.3;stroke-miterlimit:2;stroke-dasharray:none;stroke-dashoffset:0"/><path id="path31190" stroke-linejoin="round" d="M144.14 299.747c1.465-1.96.08-7.611-1.114-8.515 1.195.904 6.977.675 8.442-1.284" class="difference-arrows-tips" style="display:inline;fill:none;stroke:#000;stroke-width:1.5;stroke-linecap:round;stroke-linejoin:round;stroke-dasharray:none"/><path id="path31198" d="M93.514 143.731a141.672 141.053 0 0 1 25.613-51.009" style="fill:none;fill-opacity:1;stroke:#000;stroke-width:1.3;stroke-miterlimit:2;stroke-dasharray:none;stroke-dashoffset:0"/><path id="path31202" stroke-linejoin="round" d="M110.675 93.718c1.96 1.465 7.611.081 8.515-1.113-.904 1.194-.675 6.976 1.284 8.442" class="difference-arrows-tips" style="display:inline;fill:none;stroke:#000;stroke-width:1.5;stroke-linecap:round;stroke-linejoin:round;stroke-dasharray:none"/><g id="g31216" transform="translate(948.304 -110.038)"><path id="path31210" d="M216.268 43.091a141.053 141.672 0 0 1 51.009 25.613" style="fill:none;fill-opacity:1;stroke:#000;stroke-width:1.3;stroke-miterlimit:2;stroke-dasharray:none;stroke-dashoffset:0"/><path id="path31212" d="M222.428 19.841 180 180 286.315 44.426" style="fill:none;fill-opacity:1;stroke:#000;stroke-width:1.3;stroke-miterlimit:2;stroke-dasharray:none;stroke-dashoffset:0"/><path id="path31214" stroke-linejoin="round" d="M266.281 60.252c-1.465 1.96-.081 7.611 1.113 8.515-1.194-.904-6.976-.675-8.442 1.285" class="difference-arrows-tips" style="display:inline;fill:none;stroke:#000;stroke-width:1.5;stroke-linecap:round;stroke-linejoin:round;stroke-dasharray:none"/></g><g id="g44298" transform="translate(50.422)"><path id="path25424" d="M216.268 43.091a141.053 141.672 0 0 1 51.009 25.613" style="fill:none;fill-opacity:1;stroke:#000;stroke-width:1.3;stroke-miterlimit:2;stroke-dasharray:none;stroke-dashoffset:0"/><path id="path117967" stroke-linejoin="round" d="M266.281 60.252c-1.465 1.96-.081 7.611 1.113 8.515-1.194-.904-6.976-.675-8.442 1.285" class="difference-arrows-tips" style="display:inline;fill:none;stroke:#000;stroke-width:1.5;stroke-linecap:round;stroke-linejoin:round;stroke-dasharray:none"/><path id="path36489" d="m228.7 25.752-1.273 3.979q-.318.992-.369 1.254-.05.261.094.446.152.188.641.344l-.109.341q-1.13-.345-1.72-.289l-.09-.028q-.106-.484.2-1.489-.678.56-1.377.728-.692.17-1.395-.055-.608-.194-.987-.617-.377-.431-.426-.888-.043-.455.216-1.262l.66-2.067q.338-1.052.374-1.294.039-.249-.126-.424-.157-.173-.683-.34l.11-.342 2.059.66-1.347 4.207q-.199.623-.215.928-.016.305.22.617.237.305.637.433.57.182 1.207-.022.64-.212.958-.568.328-.36.576-1.138l.439-1.37q.318-.994.364-1.216.047-.222-.074-.432-.111-.215-.637-.383l-.156-.05.11-.34z" style="font-size:25px;font-family:Baskerville;-inkscape-font-specification:Baskerville;text-align:center;text-anchor:middle;stroke:#000;stroke-width:0;stroke-miterlimit:2;stroke-dasharray:none"/><path id="path36491" d="m232.295 26.797.195.078q-.012.514-.298 1.296.765-.407 1.457-.483.691-.076 1.313.171.708.282 1.038.757.337.477.295.963-.04.478-.368 1.302l-.737 1.85q-.408 1.026-.461 1.264-.053.239.088.43.152.185.665.39l-.132.332-3.028-1.206.132-.332.138.055q.52.207.74.118.219-.088.321-.282.102-.194.497-1.184l.76-1.907q.278-.701.324-1.026.056-.33-.155-.682-.205-.35-.667-.533-.528-.21-1.139-.085-.6.12-1.277.58l-.961 2.413q-.409 1.026-.462 1.265-.046.241.096.431.152.187.672.394l-.132.332-2.992-1.191.133-.333q.498.199.734.175.235-.023.359-.208.134-.19.566-1.274l.702-1.763q.411-1.033.454-1.267.053-.239-.099-.425-.142-.19-.662-.397l.133-.333q.829.23 1.758.315z" style="font-size:25px;font-family:Baskerville;-inkscape-font-specification:Baskerville;text-align:center;text-anchor:middle;stroke:#000;stroke-width:0;stroke-miterlimit:2;stroke-dasharray:none"/><path id="path36493" d="M240.64 26.658q.134-.306.444-.434.318-.124.624.01t.424.449q.117.314-.018.62-.137.314-.447.441-.31.128-.617-.006t-.43-.452q-.118-.315.019-.628zm.071 3.58-1.781 4.07q-.409.933-.486 1.188-.078.254.044.46.122.207.578.406l.15.066-.144.328-3.142-1.376.143-.328.243.106q.506.222.718.145.222-.081.33-.271.12-.194.547-1.17l.773-1.768q.45-1.026.45-1.298.007-.268-.132-.397-.132-.126-.531-.3l-.192-.085.143-.327q1.325.427 2.132.483z" style="font-size:25px;font-family:Baskerville;-inkscape-font-specification:Baskerville;text-align:center;text-anchor:middle;stroke:#000;stroke-width:0;stroke-miterlimit:2;stroke-dasharray:none"/><path id="path36495" d="M245.318 32.784 243.563 32l-1.568 3.517q-.36.81-.416 1.126-.053.309.098.58.159.275.422.393.511.228 1.147-.187l.168.236q-.43.371-.97.42-.532.044-.972-.153-.512-.228-.77-.7-.247-.477-.166-.926.089-.446.542-1.462l1.47-3.297-.846-.377.146-.326q.588.245 1.262-.025.675-.27 1.186-1.073l.227.102-.814 1.826 1.755.782z" style="font-size:25px;font-family:Baskerville;-inkscape-font-specification:Baskerville;text-align:center;text-anchor:middle;stroke:#000;stroke-width:0;stroke-miterlimit:2;stroke-dasharray:none"/><path id="path36497" d="m246.452 40.222.89-1.893.275.13q-.293 1.864.94 2.444.534.251.947.05.42-.198.602-.585.212-.45.066-.871-.153-.425-.791-1.224-.671-.84-.856-1.434-.188-.587.093-1.185.269-.57.918-.892.654-.329 1.393.019.753.354.958 1.198.155-.056.516-.384l.26.122-.837 1.78-.26-.122q.16-.706-.034-1.356-.182-.653-.731-.911-.423-.2-.806-.061-.382.138-.545.483-.178.38-.02.79.15.414.777 1.147.941 1.105.967 1.745.022.646-.203 1.125-.354.753-1.076.99-.714.24-1.467-.115-.796-.374-1.107-1.32-.29.122-.595.46z" style="font-size:25px;font-family:Baskerville;-inkscape-font-specification:Baskerville;text-align:center;text-anchor:middle;stroke:#000;stroke-width:0;stroke-miterlimit:2;stroke-dasharray:none"/><path id="path36499" d="m255.238 37.154.184.1q-.093.446-.388.985.69-.225 1.312-.178.632.044 1.192.35 1.16.633 1.484 1.874.328 1.234-.403 2.572-.716 1.31-1.975 1.766-1.253.459-2.515-.231-.52-.283-.881-.756-.36-.462-.56-1.103l-1.159 2.123q-.53.97-.61 1.2-.076.234.046.433.118.206.602.471l-.171.314-2.922-1.596.172-.314.205.112q.484.265.706.2.225-.055.353-.242.132-.176.643-1.111l2.774-5.079q.489-.894.588-1.141.106-.244.003-.46-.103-.216-.54-.454l-.205-.112.172-.314q.713.3 1.893.59zm-2.303 4.929q.122.651.405 1.107.294.453.751.703.771.421 1.707.072.935-.349 1.725-1.796.686-1.256.473-2.179-.214-.923-.978-1.34-.471-.258-1.025-.25-.554.007-1.2.283z" style="font-size:25px;font-family:Baskerville;-inkscape-font-specification:Baskerville;text-align:center;text-anchor:middle;stroke:#000;stroke-width:0;stroke-miterlimit:2;stroke-dasharray:none"/><path id="path36501" d="m264.622 45.413-3.78-2.332q-.268.375-.387.567-.881 1.43-.883 2.425.01.993.897 1.54 1.205.743 2.373-.026l.318.196q-.628.545-1.494.54-.862-.01-1.603-.467-.689-.425-1.092-1.149-.393-.726-.392-1.603.001-.876.561-1.783.792-1.285 2.07-1.667 1.28-.388 2.413.31 1.066.657 1.249 1.665.182 1.008-.25 1.784zm-.996-.98q.114-.14.188-.259.359-.583.21-1.113-.137-.532-.634-.839-1.205-.743-2.359.61z" style="font-size:25px;font-family:Baskerville;-inkscape-font-specification:Baskerville;text-align:center;text-anchor:middle;stroke:#000;stroke-width:0;stroke-miterlimit:2;stroke-dasharray:none"/><path id="path36503" d="m270.032 48.921-3.724-2.42q-.276.369-.4.558-.915 1.409-.94 2.404-.013.992.86 1.56 1.188.771 2.374.03l.313.204q-.64.53-1.506.505-.861-.03-1.592-.505-.678-.44-1.064-1.174-.376-.736-.354-1.612.022-.876.602-1.77.822-1.265 2.108-1.617 1.29-.359 2.406.366 1.05.682 1.21 1.694.158 1.013-.293 1.777zm-.972-1.002q.117-.137.194-.255.373-.574.237-1.107-.125-.536-.615-.854-1.187-.771-2.373.555z" style="font-size:25px;font-family:Baskerville;-inkscape-font-specification:Baskerville;text-align:center;text-anchor:middle;stroke:#000;stroke-width:0;stroke-miterlimit:2;stroke-dasharray:none"/><path id="path36505" d="m275.973 51.373 1.368-2.079q.56-.851.68-1.089.126-.234.04-.458-.085-.223-.5-.497l-.137-.09.196-.299q.8.498 1.902.86l.136.09-4.708 7.154q-.612.93-.712 1.152-.1.223.004.431.111.213.58.521l-.197.3q-.955-.601-1.788-.935.123-.357.555-1.013-.797.164-1.469.067-.665-.093-1.21-.453-1.034-.68-1.24-2.007-.2-1.324.578-2.506.856-1.3 2.149-1.594 1.296-.302 2.356.396.539.355.891.866.353.511.525 1.183zm-.248.377q-.185-.652-.501-1.12-.305-.472-.74-.758-.734-.483-1.6-.243-.86.244-1.702 1.524-.855 1.3-.761 2.247.1.95.84 1.438.495.325 1.071.369.576.044 1.242-.189z" style="font-size:25px;font-family:Baskerville;-inkscape-font-specification:Baskerville;text-align:center;text-anchor:middle;stroke:#000;stroke-width:0;stroke-miterlimit:2;stroke-dasharray:none"/></g><g id="g37358" aria-label="unit speed" style="font-size:25px;font-family:Baskerville;-inkscape-font-specification:Baskerville;text-align:center;text-anchor:middle;stroke-width:2.04012;stroke-miterlimit:2" transform="scale(.63722) rotate(26.362 963.726 257.005)"><path id="path37340" d="M183.234 14.397v6.555q0 1.636.049 2.05.048.416.354.623.317.208 1.123.208v.561q-1.856.025-2.71.39h-.147q-.39-.67-.415-2.319-.745 1.16-1.709 1.746-.952.586-2.112.586-1 0-1.77-.452-.769-.464-1.062-1.123-.28-.659-.28-1.99v-3.405q0-1.734-.061-2.112-.061-.39-.391-.574-.318-.183-1.184-.183v-.561h3.393v6.933q0 1.026.122 1.49.122.463.623.817.5.342 1.16.342.94 0 1.794-.61.855-.623 1.16-1.306.317-.696.317-1.978v-2.258q0-1.636-.036-1.99-.037-.354-.318-.61-.268-.269-1.135-.269h-.256v-.561z" style="stroke-width:2.04012"/><path id="path37342" d="M188.837 13.994h.33q.28.757.317 2.063.879-1.038 1.843-1.55.964-.513 2.014-.513 1.196 0 1.953.5.77.5.989 1.233.22.72.22 2.112v3.125q0 1.733.06 2.112.062.378.38.574.329.183 1.195.183v.561h-5.114v-.561h.232q.879 0 1.147-.257.269-.256.305-.598.037-.342.037-2.014v-3.223q0-1.184-.122-1.684-.11-.513-.623-.904-.5-.39-1.281-.39-.892 0-1.71.537-.805.525-1.525 1.587v4.077q0 1.733.06 2.112.074.378.391.574.33.183 1.209.183v.561h-5.054v-.561q.842 0 1.172-.171.33-.171.403-.513.085-.354.085-2.185v-2.979q0-1.745-.073-2.111-.061-.379-.39-.562-.318-.195-1.197-.195v-.562q1.343-.146 2.747-.561z" style="stroke-width:2.04012"/><path id="path37344" d="M200.348 8.891q0-.525.366-.903.379-.379.904-.379.524 0 .89.379.367.378.367.903 0 .537-.366.916-.367.378-.891.378-.525 0-.904-.378-.366-.379-.366-.916zm2.356 5.103v6.97q0 1.6.049 2.014.049.415.354.635.305.22 1.086.22h.257v.561h-5.384v-.561h.415q.867 0 1.123-.245.269-.256.305-.598.05-.354.05-2.026v-3.027q0-1.758-.172-2.149-.158-.39-.44-.488-.268-.098-.951-.098h-.33v-.561q2.173-.22 3.37-.647z" style="stroke-width:2.04012"/><path id="path37346" d="M211.786 14.958h-3.015v6.043q0 1.391.122 1.88.122.476.513.769.402.293.854.293.879 0 1.526-1.001l.39.231q-.378.806-1.122 1.221-.733.403-1.49.403-.879 0-1.55-.513-.66-.525-.83-1.22-.159-.696-.159-2.442v-5.664h-1.452v-.561q1-.025 1.794-.843.793-.818 1.013-2.295h.39v3.138h3.016z" style="stroke-width:2.04012"/><path id="path37348" d="M219.476 24.712v-3.284h.476q.83 2.844 2.967 2.844.928 0 1.38-.561.463-.562.463-1.233 0-.782-.488-1.282-.5-.5-1.941-1.209-1.514-.744-2.173-1.464-.66-.708-.66-1.746 0-.989.709-1.88.708-.903 1.99-.903 1.306 0 2.16 1.062.183-.183.476-.891h.452v3.088h-.452q-.244-1.11-.952-1.904-.696-.806-1.648-.806-.732 0-1.184.452-.452.451-.452 1.05 0 .659.5 1.135.49.488 1.869 1.11 2.075.94 2.539 1.832.464.903.464 1.733 0 1.306-.867 2.124-.855.818-2.16.818-1.38 0-2.454-1.135-.33.366-.538 1.05z" style="stroke-width:2.04012"/><path id="path37350" d="M229.889 13.994h.33q.207.683.207 1.648.781-.83 1.672-1.233.904-.415 1.905-.415 2.075 0 3.454 1.465 1.38 1.452 1.38 3.845 0 2.344-1.392 3.918-1.38 1.575-3.638 1.575-.927 0-1.782-.378-.842-.367-1.599-1.1v3.797q0 1.734.061 2.112.073.379.39.562.318.195 1.185.195v.562h-5.225v-.562h.366q.867 0 1.123-.256.269-.245.306-.599.048-.341.048-2.014v-9.082q0-1.599-.048-2.014-.037-.415-.342-.635-.305-.22-1.087-.22h-.366v-.56q1.209-.123 3.052-.611zm.537 8.52q.66.806 1.392 1.221.744.403 1.562.403 1.38 0 2.405-1.184t1.025-3.772q0-2.246-.988-3.357-.99-1.111-2.356-1.111-.843 0-1.6.427-.756.427-1.44 1.294z" style="stroke-width:2.04012"/><path id="path37352" d="M249.81 17.778h-6.97q-.048.72-.048 1.074 0 2.637.818 3.967.83 1.319 2.466 1.319 2.221 0 3.149-1.99h.586q-.39 1.245-1.55 1.953-1.16.696-2.527.696-1.27 0-2.405-.635-1.123-.647-1.843-1.819-.72-1.171-.72-2.844 0-2.368 1.391-3.93 1.392-1.575 3.48-1.575 1.964 0 3.039 1.196 1.074 1.196 1.135 2.588zm-2.135-.488q.036-.281.036-.5 0-1.075-.635-1.661-.622-.598-1.538-.598-2.221 0-2.649 2.759z" style="stroke-width:2.04012"/><path id="path37354" d="M260.748 17.778h-6.97q-.049.72-.049 1.074 0 2.637.818 3.967.83 1.319 2.466 1.319 2.222 0 3.15-1.99h.585q-.39 1.245-1.55 1.953-1.16.696-2.527.696-1.27 0-2.405-.635-1.123-.647-1.843-1.819-.72-1.171-.72-2.844 0-2.368 1.392-3.93 1.391-1.575 3.479-1.575 1.965 0 3.04 1.196 1.073 1.196 1.134 2.588zm-2.136-.488q.037-.281.037-.5 0-1.075-.635-1.661-.623-.598-1.538-.598-2.222 0-2.649 2.759z" style="stroke-width:2.04012"/><path id="path37356" d="M271.088 15.459v-3.907q0-1.599-.05-2.014-.036-.415-.34-.635-.306-.22-1.087-.22h-.257v-.56q1.477-.037 3.235-.514h.257v13.44q0 1.746.06 2.124.062.379.379.562.33.183 1.208.183v.562q-1.77.036-3.149.317-.146-.574-.146-1.807-.904.904-1.868 1.355-.952.452-1.978.452-1.94 0-3.357-1.563-1.403-1.562-1.403-3.784 0-2.441 1.44-3.943 1.44-1.513 3.43-1.513 1.013 0 1.917.366.903.366 1.709 1.099zm0 .708q-.806-.696-1.624-1.038-.805-.354-1.623-.354-1.38 0-2.307 1.062-.916 1.062-.916 3.467 0 2.441.94 3.6.952 1.16 2.344 1.16.927 0 1.72-.439.794-.44 1.466-1.318z" style="stroke-width:2.04012"/></g><text xml:space="preserve" id="text45873" x="464.926" y="-108.09" style="font-style:normal;font-variant:normal;font-weight:400;font-stretch:normal;font-size:21.5px;font-family:Baskerville;-inkscape-font-specification:Baskerville;text-align:center;text-anchor:middle;fill:#000;fill-opacity:1;stroke:#f0f;stroke-width:0;stroke-miterlimit:2;stroke-dasharray:none;stroke-dashoffset:0;stroke-opacity:1"><tspan id="tspan45871" x="464.926" y="-108.09" style="font-style:normal;font-variant:normal;font-weight:400;font-stretch:normal;font-size:21.5px;font-family:&quot;Song Myung&quot;;-inkscape-font-specification:&quot;Song Myung&quot;;fill:#000">PARTICLE 2</tspan></text><text xml:space="preserve" id="text45927" x="464.926" y="-78.152" style="font-style:normal;font-variant:normal;font-weight:400;font-stretch:normal;font-size:21.5px;font-family:Baskerville;-inkscape-font-specification:Baskerville;text-align:center;text-anchor:middle;fill:#000;fill-opacity:1;stroke:#f0f;stroke-width:0;stroke-miterlimit:2;stroke-dasharray:none;stroke-dashoffset:0;stroke-opacity:1"><tspan id="tspan45929" x="464.926" y="-78.152" style="font-style:normal;font-variant:normal;font-weight:400;font-stretch:normal;font-size:21.5px;font-family:&quot;Song Myung&quot;;-inkscape-font-specification:&quot;Song Myung&quot;;fill:#000">PARTICLE 3</tspan></text><text xml:space="preserve" id="text45935" x="464.926" y="-48.214" style="font-style:normal;font-variant:normal;font-weight:400;font-stretch:normal;font-size:21.5px;font-family:Baskerville;-inkscape-font-specification:Baskerville;text-align:center;text-anchor:middle;fill:#000;fill-opacity:1;stroke:#f0f;stroke-width:0;stroke-miterlimit:2;stroke-dasharray:none;stroke-dashoffset:0;stroke-opacity:1"><tspan id="tspan45933" x="464.926" y="-48.214" style="font-style:normal;font-variant:normal;font-weight:400;font-stretch:normal;font-size:21.5px;font-family:&quot;Song Myung&quot;;-inkscape-font-specification:&quot;Song Myung&quot;;fill:#000">PARTICLE 4</tspan></text><path id="rect52016" d="M195.883 413.092h108.41v19.628h-108.41z" style="fill:#fea;fill-opacity:1;stroke:#2b2200;stroke-width:1;stroke-miterlimit:2;stroke-dasharray:none;stroke-dashoffset:0;stroke-opacity:1"/><path id="path55741" d="M195.094 332.726v20.52h109.737v-20.52h-53.21V285.72h-59.185v-3.221l-4.893 4.895 4.893 4.895v-3.252h55.869v43.689z" style="fill:#fea;fill-opacity:1;stroke:#2b2200;stroke-width:1;stroke-miterlimit:2;stroke-dasharray:none;stroke-dashoffset:0;stroke-opacity:1"/><g id="g55727" transform="translate(0 -3.645)"><path id="path45972" d="M204.414 348.092c-.875.006-.228 1.532-.424 2.216-1.023 1.608 3.119 1.6.912 2.355-1.496-.065-3.03.132-4.502-.101-.226-1.07 2.065-.63 1.433-2.185.037-2.672.019-5.346 0-8.018-.461-.451-2.624-1.223-.659-1.401 2.484.146 5.221-.492 7.435.93 2.536 1.92.717 6.092-2.333 6.056-.616.097-1.239.148-1.862.148zm.405-6.231c-1.499-.34-.597 1.786-.83 2.696v2.631c2.006.411 4.233-1.09 3.68-3.307-.118-1.43-1.57-2.102-2.85-2.02z" style="font-size:21.5px;font-family:&quot;Song Myung&quot;;-inkscape-font-specification:&quot;Song Myung&quot;;text-align:center;text-anchor:middle;stroke:#f0f;stroke-width:0;stroke-miterlimit:2"/><path id="path45974" d="M220.525 351.391c1.19.32 1.876 1.506.064 1.272-1.19-.059-2.414.123-3.58-.101-.219-1.021 2.184-.695 1-2.182-.223-.941-.513-1.79-1.65-1.44h-2.673c-.232.868-.78 1.707-.793 2.599 1.535.078 1.652 1.475-.06 1.124-.772-.184-2.718.518-2.451-.723 1.189-.059 1.805-.877 2.024-2.002l3.142-8.612c1.15-1.216 1.647.883 1.944 1.746l3.033 8.32zm-6.526-3.355h3.208l-1.567-4.516-1.64 4.516z" style="font-size:21.5px;font-family:&quot;Song Myung&quot;;-inkscape-font-specification:&quot;Song Myung&quot;;text-align:center;text-anchor:middle;stroke:#f0f;stroke-width:0;stroke-miterlimit:2"/><path id="path45976" d="M231.935 351.317c.684.39 2.658 1.195.627 1.494-1.928.583-3.045-.98-3.109-2.668-.15-1.468-.868-3.222-2.707-2.807-.81.047-.178 1.537-.378 2.193-.334 1.536.493 2.216 1.585 2.729-.512.789-1.866.243-2.746.405-.762-.18-2.694.511-2.415-.719 1.663.076 1.535-1.503 1.456-2.774 0-2.27.007-4.541-.018-6.811-.462-.451-2.625-1.223-.659-1.401 2.402.14 4.948-.403 7.207.607 2.503 1.258 1.334 5.266-1.35 5.42 1.957.535 2.06 2.713 2.507 4.332zm-5.567-4.884c2.024.402 4.497-1.002 3.553-3.337-.29-1.198-3.412-1.93-3.535-.664-.038 1.333-.009 2.667-.018 4z" style="font-size:21.5px;font-family:&quot;Song Myung&quot;;-inkscape-font-specification:&quot;Song Myung&quot;;text-align:center;text-anchor:middle;stroke:#f0f;stroke-width:0;stroke-miterlimit:2"/><path id="path45978" d="M242.958 342.322c-.502-.553-3.086-.985-2.629.478.062 2.926-.172 5.905.14 8.794 2.203.107 1.295 1.52-.5 1.07-1.134-.19-2.741.423-3.518-.406 1.484-.436 2.122-1.528 1.733-3.344-.007-2.339.023-4.678-.037-7.016-1.134.02-2.934-.391-2.736 1.316-.36 2.072-1.89.203-1.267-1.115-.273-1.7 1.803-1.004 2.847-1.141 2.398.078 4.846-.155 7.212.115.116.962.814 3.528-.871 3.005-.287-.53-.241-1.177-.374-1.756z" style="font-size:21.5px;font-family:&quot;Song Myung&quot;;-inkscape-font-specification:&quot;Song Myung&quot;;text-align:center;text-anchor:middle;stroke:#f0f;stroke-width:0;stroke-miterlimit:2"/><path id="path45980" d="M250.719 341.363c-1.476.427-1.766 1.735-1.567 3.344.068 2.292-.15 4.629.138 6.887 2.31.289.77 1.502-.837 1.07-.864-.101-3.735.429-2.564-.849 1.805.052.917-2.258 1.125-3.442-.084-2.107.174-4.28-.148-6.346-2.304-.296-.753-1.5.847-1.07.935.191 2.445-.428 3.006.406z" style="font-size:21.5px;font-family:&quot;Song Myung&quot;;-inkscape-font-specification:&quot;Song Myung&quot;;text-align:center;text-anchor:middle;stroke:#f0f;stroke-width:0;stroke-miterlimit:2"/><path id="path45982" d="M260.47 349.898c1.356-1.463 1.53 1.18 1.19 2.161-3.208 1.938-8.455.71-9.365-3.3-1.328-3.867 1.757-8.412 5.963-8.078 1.871-.167 3.92.73 3.351 2.86-.853 1.861-1.546-.68-1.784-1.57-3.063-1.568-5.786 1.96-5.438 4.849-.309 2.792 1.996 6.071 5.07 5.034 1.057-.055.797-1.254 1.013-1.956z" style="font-size:21.5px;font-family:&quot;Song Myung&quot;;-inkscape-font-specification:&quot;Song Myung&quot;;text-align:center;text-anchor:middle;stroke:#f0f;stroke-width:0;stroke-miterlimit:2"/><path id="path45984" d="M270.996 349.695c1.58-1.417 1.321 1.389 1.168 2.416-.527 1.077-2.278.33-3.356.552-1.846-.064-3.728.13-5.55-.101.129-.977 2.065-.965 1.447-2.664.008-2.513.012-5.026-.013-7.54-1.42-.55-1.92-1.665.175-1.4 1.153.063 2.342-.13 3.47.101-.385.927-2.146 1.253-1.489 3.125.018 2.519-.039 5.04.037 7.557 1.201-.065 2.441.133 3.618-.101.322-.586.318-1.304.493-1.945z" style="font-size:21.5px;font-family:&quot;Song Myung&quot;;-inkscape-font-specification:&quot;Song Myung&quot;;text-align:center;text-anchor:middle;stroke:#f0f;stroke-width:0;stroke-miterlimit:2"/><path id="path45986" d="M281.743 349.972c1.424-1.422 1.26 1.299 1.124 2.249-.744.896-2.392.243-3.53.442-1.89-.065-3.817.132-5.682-.101.082-1.004 2.114-.918 1.447-2.646.008-2.519.012-5.038-.014-7.557-1.42-.55-1.919-1.666.176-1.401 2.37.072 4.787-.146 7.128.11.1.94.817 3.398-.838 2.904-.193-1.39-.742-2.512-2.362-2.074-1.24-.138-2.385-.148-1.947 1.43.234.84-.478 2.629.36 2.865 1.643.466 2.122-.6 2.737-1.622.927.711.256 2.392.46 3.53-.948 1.59-.937-2.03-2.793-1.005-1.407-.353-.517 1.59-.764 2.397.175.851-.555 2.709.94 2.248 1.08-.23 2.826.556 3.35-.601l.208-1.168z" style="font-size:21.5px;font-family:&quot;Song Myung&quot;;-inkscape-font-specification:&quot;Song Myung&quot;;text-align:center;text-anchor:middle;stroke:#f0f;stroke-width:0;stroke-miterlimit:2"/><path id="path45988" d="M294.308 341.916c-.728.744-1.042 3.588-2.618 1.66.467-4.336 8.851-2.63 6.568 1.648-1.07 1.403-2.907 1.355-.326 2.091 3 2.449-.61 6.456-3.74 5.57-2.18.649-4.274-4.13-1.23-3.005-.2 3.153 4.307 2.615 4-.35.98-2.634-5.637-2.343-2.091-3.335 2.678-.204 2.244-4.896-.563-4.279z" style="font-size:21.5px;font-family:&quot;Song Myung&quot;;-inkscape-font-specification:&quot;Song Myung&quot;;text-align:center;text-anchor:middle;stroke:#f0f;stroke-width:0;stroke-miterlimit:2"/></g><path id="rect46365" d="M24.558-162.125H149.57v8.894l44.39 2.264-1.427 52.068 14.006 4.106-17.73 1.984-3.412-50.912-35.827 1.36v9.372H24.558Z" style="fill:#fea;stroke:#2b2200;stroke-miterlimit:2"/><path id="path52905" d="M263.217-29.522h-27.902v-50.054H223.73v8.21H115.32v-19.628h108.41v8.291h14.712v50.055h24.775v-3.066l4.615 4.615-4.615 4.614z" style="fill:#fea;fill-opacity:1;stroke:#2b2200;stroke-width:1;stroke-miterlimit:2;stroke-dasharray:none;stroke-dashoffset:0;stroke-opacity:1"/><g id="g52004" transform="translate(-21.742 -158.602)"><g id="g46085" style="stroke-width:1.16635" transform="matrix(.85737 0 0 .85737 -337.793 62.994)"><path id="path46010" d="M564.14 18.417c-1.13.328-.24 2.991-.333 4.07 2.898.329.933 1.793-1.045 1.262-1.111.179-4.93-.009-2.468-1.04 1.61-.566.567-3.067.858-4.526-.094-2.27.199-4.617-.172-6.84-2.823-.396-.69-1.758 1.163-1.246 2.917.028 7-.494 8.152 2.967 1.084 3.862-3.018 5.58-6.155 5.353zm.473-7.267c-1.94-.284-.565 2.794-.967 4.014-1.073 2.954 2.529 2.786 3.871.845 1.345-2.173-.136-5.275-2.904-4.859z" style="font-size:21.5px;font-family:&quot;Song Myung&quot;;-inkscape-font-specification:&quot;Song Myung&quot;;text-align:center;text-anchor:middle;stroke:#f0f;stroke-width:0;stroke-miterlimit:2"/><path id="path46012" d="M582.931 22.266c2.572.845.813 1.89-1.206 1.483-1.303.403-4.54-.485-1.804-1.075.737-.587-.062-3.404-1.2-3.268-1.22.268-3.201-.548-3.92.43-1.012 1.727-.775 2.81.863 3.44-1.04.911-3.119.391-4.552.355.379-1.147 2.577-1.568 2.56-3.638 1.265-3.244 2.26-6.633 3.69-9.789 1.826-.513 1.685 2.22 2.384 3.324l3.185 8.738zm-7.61-3.913c1.016-.272 3.579.556 3.59-.431l-1.677-4.837-1.914 5.268z" style="font-size:21.5px;font-family:&quot;Song Myung&quot;;-inkscape-font-specification:&quot;Song Myung&quot;;text-align:center;text-anchor:middle;stroke:#f0f;stroke-width:0;stroke-miterlimit:2"/><path id="path46014" d="M596.24 22.18c1.362.438 2.918 1.87.086 1.784-2.803.422-2.814-2.655-3.29-4.558-.348-2.445-4.448-2.706-3.29.183-.318 1.892.285 3.129 1.85 3.687-1.003.982-2.993.244-4.417.473-2.978.068-.383-.91.074-2.09-.06-3.428.217-6.933-.15-10.315-2.823-.397-.69-1.759 1.163-1.247 2.863.115 6.99-.733 8.173 2.698 1.833 3.164-5.07 4.059-1.661 5.257.987 1.149 1.048 2.735 1.462 4.128zm-6.493-5.698c2.996.968 6.12-2.804 3.204-4.969-1.985-.935-3.88-.542-3.204 1.84v3.13z" style="font-size:21.5px;font-family:&quot;Song Myung&quot;;-inkscape-font-specification:&quot;Song Myung&quot;;text-align:center;text-anchor:middle;stroke:#f0f;stroke-width:0;stroke-miterlimit:2"/><path id="path46016" d="M609.097 11.688c-.718-.724-3.753-1.124-3.075.795.09 3.334-.195 6.729.172 10.02 2.716.156 1.342 1.795-.742 1.246-1.094-.16-4.746.57-3.429-.989 2.237.24 1.32-2.486 1.505-3.893-.007-2.558.024-5.116-.043-7.674-1.522-.107-3.527-.268-3.24 1.848-1.21 2.32-1.83-.966-1.41-2.228.612-1.399 2.867-.428 4.216-.716 2.491.09 5.042-.182 7.497.134.386 1.12.6 4.846-1.193 3.134l-.258-1.677z" style="font-size:21.5px;font-family:&quot;Song Myung&quot;;-inkscape-font-specification:&quot;Song Myung&quot;;text-align:center;text-anchor:middle;stroke:#f0f;stroke-width:0;stroke-miterlimit:2"/><path id="path46018" d="M618.148 10.57c-1.87.478-2.013 2.252-1.827 4.18.078 2.58-.173 5.212.16 7.752 2.831.388.71 1.762-1.152 1.247-1.104.195-4.805-.026-2.36-1.04 1.61-.566.567-3.067.858-4.526-.094-2.27.199-4.617-.172-6.84-2.823-.396-.69-1.758 1.163-1.246 1.033.216 2.733-.49 3.33.473z" style="font-size:21.5px;font-family:&quot;Song Myung&quot;;-inkscape-font-specification:&quot;Song Myung&quot;;text-align:center;text-anchor:middle;stroke:#f0f;stroke-width:0;stroke-miterlimit:2"/><path id="path46020" d="M629.522 20.524c1.67-1.973 2.263 2.614.66 2.946-4.047 1.74-9.787-.18-10.357-4.994-1.218-4.73 3.122-9.527 7.96-8.659 2.5-.532 4.08 2.512 2.554 4.042-1.674-.542-1.155-4.457-4.424-2.854-4.058 1.432-4.363 7.321-2.168 10.445 1.429 2.02 6.146 2.47 5.775-.926z" style="font-size:21.5px;font-family:&quot;Song Myung&quot;;-inkscape-font-specification:&quot;Song Myung&quot;;text-align:center;text-anchor:middle;stroke:#f0f;stroke-width:0;stroke-miterlimit:2"/><path id="path46022" d="M641.798 20.288c1.9-1.668 1.51 1.736 1.355 2.945-.959 1.063-2.996.272-4.417.516-1.982-.078-4.009.157-5.963-.118.683-1.043 2.478-1.802 1.694-4.1-.095-2.72.2-5.515-.172-8.187-2.823-.397-.69-1.759 1.163-1.247 1.106-.185 4.842.007 2.425 1.057-1.735.461-.596 3.097-.922 4.53.016 2.33-.04 4.661.043 6.99 1.425-.23 3.352.511 4.407-.473l.387-1.913z" style="font-size:21.5px;font-family:&quot;Song Myung&quot;;-inkscape-font-specification:&quot;Song Myung&quot;;text-align:center;text-anchor:middle;stroke:#f0f;stroke-width:0;stroke-miterlimit:2"/><path id="path46024" d="M654.333 20.61c1.753-1.688 1.542 1.907 1.166 3.01-3.358.298-6.804.046-10.196.13-.912-.998 2.534-1.582 1.29-3.97-.095-2.803.2-5.68-.172-8.436-2.823-.397-.69-1.759 1.163-1.247 2.495.087 5.046-.174 7.506.129.366 1.097.618 4.666-1.166 3.031.192-1.926-1.318-2.353-2.935-2.064-1.835-.523-2.164.563-1.902 2.16.241 1.088-.767 3.426 1.14 2.85 1.971 1.044 2.38-3.794 3.009-.67.01 1.086.324 4.835-1.124 2.873.401-1.497-3.265-1.721-3.025-.465.01 1.578-.03 3.156.043 4.733 1.568-.084 3.189.168 4.724-.123.362-.57.311-1.302.479-1.94z" style="font-size:21.5px;font-family:&quot;Song Myung&quot;;-inkscape-font-specification:&quot;Song Myung&quot;;text-align:center;text-anchor:middle;stroke:#f0f;stroke-width:0;stroke-miterlimit:2"/><path id="path46026" d="M670.786 21.922c.8.725 4.483 1.52 1.324 1.827-2.091-.064-4.215.132-6.285-.102-.074-1.555 3.629-.424 2.682-2.866-.085-2.824.172-5.703-.129-8.491-2.247.375-2.465-1.25-.107-1.403 1.536-.698 3.16-.74 2.545 1.395-.066 3.212-.012 6.427-.03 9.64z" style="font-size:21.5px;font-family:&quot;Song Myung&quot;;-inkscape-font-specification:&quot;Song Myung&quot;;text-align:center;text-anchor:middle;stroke:#f0f;stroke-width:0;stroke-miterlimit:2"/></g></g><path id="rect51379" d="M-186.949 193.23h108.41v19.628h-108.41z" style="fill:#fea;fill-opacity:1;stroke:#2b2200;stroke-width:1;stroke-miterlimit:2;stroke-dasharray:none;stroke-dashoffset:0;stroke-opacity:1"/><g id="g56748"><path id="path56724" d="M101.428 192.789H-8.309v20.52h109.737v-8.644l23.275-.001v-62.959h3.22l-4.894-4.894-4.896 4.894h3.253v59.643h-19.958z" style="fill:#fea;fill-opacity:1;stroke:#2b2200;stroke-width:1;stroke-miterlimit:2;stroke-dasharray:none;stroke-dashoffset:0;stroke-opacity:1"/><g id="g46118" style="stroke-width:1.16635" transform="matrix(.85737 0 0 .85737 -483.042 111.731)"><path id="path45953" d="M564.14 108.232c-1.02.007-.265 1.788-.494 2.585-1.194 1.875 3.637 1.865 1.064 2.747-1.745-.076-3.534.154-5.251-.119-.264-1.247 2.408-.735 1.671-2.547.044-3.117.022-6.236 0-9.353-.538-.526-3.06-1.426-.768-1.634 2.897.17 6.09-.573 8.67 1.086 2.959 2.238.838 7.105-2.72 7.063-.718.112-1.445.172-2.172.172zm.473-7.267c-1.748-.398-.696 2.083-.967 3.144v3.07c2.339.478 4.936-1.272 4.292-3.859-.14-1.667-1.832-2.451-3.325-2.355z" style="font-size:21.5px;font-family:&quot;Song Myung&quot;;-inkscape-font-specification:&quot;Song Myung&quot;;text-align:center;text-anchor:middle;stroke:#f0f;stroke-width:0;stroke-miterlimit:2"/><path id="path45955" d="M582.931 112.08c1.39.372 2.188 1.757.075 1.484-1.388-.069-2.816.144-4.176-.119-.254-1.19 2.547-.81 1.167-2.544-.26-1.098-.598-2.088-1.925-1.68h-3.117c-.27 1.013-.91 1.99-.925 3.031 1.79.091 1.927 1.72-.07 1.312-.901-.215-3.17.603-2.86-.844 1.388-.068 2.106-1.023 2.362-2.334l3.664-10.045c1.34-1.418 1.922 1.03 2.268 2.036 1.18 3.234 2.358 6.469 3.537 9.703zm-7.61-3.913h3.74l-1.827-5.267-1.914 5.267z" style="font-size:21.5px;font-family:&quot;Song Myung&quot;;-inkscape-font-specification:&quot;Song Myung&quot;;text-align:center;text-anchor:middle;stroke:#f0f;stroke-width:0;stroke-miterlimit:2"/><path id="path45957" d="M596.24 111.994c.797.455 3.1 1.393.73 1.742-2.248.68-3.55-1.143-3.625-3.111-.175-1.713-1.013-3.758-3.158-3.275-.945.055-.207 1.793-.44 2.559-.39 1.79.575 2.584 1.849 3.182-.598.92-2.177.283-3.204.473-.888-.211-3.142.596-2.816-.839 1.94.088 1.79-1.753 1.698-3.236 0-2.648.008-5.296-.021-7.944-.539-.526-3.061-1.426-.769-1.634 2.802.163 5.771-.47 8.406.708 2.92 1.467 1.556 6.142-1.574 6.323 2.282.623 2.402 3.164 2.924 5.052zm-6.493-5.697c2.36.47 5.244-1.169 4.144-3.892-.338-1.397-3.98-2.252-4.124-.774-.044 1.554-.01 3.11-.02 4.666z" style="font-size:21.5px;font-family:&quot;Song Myung&quot;;-inkscape-font-specification:&quot;Song Myung&quot;;text-align:center;text-anchor:middle;stroke:#f0f;stroke-width:0;stroke-miterlimit:2"/><path id="path45959" d="M609.097 101.502c-.586-.645-3.6-1.149-3.067.558.072 3.413-.2 6.888.164 10.257 2.568.125 1.51 1.772-.583 1.247-1.324-.22-3.198.494-4.104-.473 1.73-.508 2.474-1.781 2.021-3.9-.008-2.728.027-5.456-.043-8.183-1.322.023-3.422-.456-3.191 1.535-.42 2.416-2.205.237-1.478-1.3-.318-1.984 2.103-1.172 3.321-1.332 2.796.091 5.652-.18 8.41.135.137 1.121.95 4.114-1.015 3.504-.334-.618-.281-1.372-.435-2.048z" style="font-size:21.5px;font-family:&quot;Song Myung&quot;;-inkscape-font-specification:&quot;Song Myung&quot;;text-align:center;text-anchor:middle;stroke:#f0f;stroke-width:0;stroke-miterlimit:2"/><path id="path45961" d="M618.148 100.384c-1.721.498-2.06 2.023-1.827 3.9.08 2.673-.176 5.4.16 8.033 2.695.336.9 1.752-.976 1.247-1.007-.118-4.356.501-2.99-.99 2.105.061 1.07-2.633 1.312-4.014-.098-2.458.203-4.993-.172-7.402-2.688-.345-.879-1.75.987-1.247 1.09.223 2.852-.5 3.506.473z" style="font-size:21.5px;font-family:&quot;Song Myung&quot;;-inkscape-font-specification:&quot;Song Myung&quot;;text-align:center;text-anchor:middle;stroke:#f0f;stroke-width:0;stroke-miterlimit:2"/><path id="path45963" d="M629.522 110.339c1.581-1.707 1.784 1.375 1.386 2.52-3.74 2.26-9.86.828-10.922-3.85-1.549-4.509 2.05-9.81 6.956-9.42 2.182-.195 4.571.85 3.908 3.335-.995 2.17-1.803-.793-2.08-1.83-3.573-1.83-6.749 2.284-6.343 5.654-.361 3.257 2.328 7.082 5.913 5.872 1.232-.064.93-1.462 1.182-2.281z" style="font-size:21.5px;font-family:&quot;Song Myung&quot;;-inkscape-font-specification:&quot;Song Myung&quot;;text-align:center;text-anchor:middle;stroke:#f0f;stroke-width:0;stroke-miterlimit:2"/><path id="path45965" d="M641.798 110.102c1.844-1.653 1.541 1.62 1.362 2.818-.614 1.256-2.657.385-3.913.644-2.153-.074-4.349.151-6.474-.119.15-1.138 2.41-1.125 1.688-3.106.01-2.931.014-5.863-.016-8.794-1.656-.641-2.238-1.942.205-1.634 1.344.074 2.731-.151 4.047.118-.45 1.082-2.503 1.461-1.736 3.645.02 2.938-.046 5.878.043 8.815 1.4-.077 2.847.155 4.219-.119.376-.683.37-1.52.575-2.268z" style="font-size:21.5px;font-family:&quot;Song Myung&quot;;-inkscape-font-specification:&quot;Song Myung&quot;;text-align:center;text-anchor:middle;stroke:#f0f;stroke-width:0;stroke-miterlimit:2"/><path id="path45967" d="M654.333 110.425c1.661-1.659 1.47 1.515 1.311 2.623-.868 1.045-2.79.283-4.117.516-2.204-.077-4.452.154-6.628-.119.096-1.17 2.466-1.07 1.688-3.085.01-2.938.014-5.877-.016-8.815-1.656-.641-2.238-1.942.205-1.634 2.765.084 5.584-.17 8.314.13.117 1.096.953 3.962-.978 3.385-.225-1.62-.865-2.93-2.754-2.418-1.446-.16-2.782-.172-2.271 1.668.273.98-.558 3.066.42 3.341 1.916.544 2.475-.7 3.192-1.892 1.082.83.3 2.791.537 4.117-1.106 1.856-1.093-2.368-3.258-1.171-1.641-.412-.603 1.855-.891 2.795.204.993-.647 3.16 1.095 2.623 1.26-.268 3.297.647 3.908-.702l.243-1.362z" style="font-size:21.5px;font-family:&quot;Song Myung&quot;;-inkscape-font-specification:&quot;Song Myung&quot;;text-align:center;text-anchor:middle;stroke:#f0f;stroke-width:0;stroke-miterlimit:2"/><path id="path45969" d="M675.73 108.296c2.201 1.92-1.985 1.045-1.527 2.52.057 1.282.312 3.268-1.591 2.748-1.37-.503.255-3.28-.959-3.59-1.7-.086-3.456.173-5.12-.135-.558-1.778 1.465-2.974 2.2-4.405 1.34-1.722 2.503-3.61 3.954-5.227 2.102-.698 1.42 1.935 1.516 3.194v4.895h1.527zm-7.826 0h4.17v-5.826l-4.17 5.826z" style="font-size:21.5px;font-family:&quot;Song Myung&quot;;-inkscape-font-specification:&quot;Song Myung&quot;;text-align:center;text-anchor:middle;stroke:#f0f;stroke-width:0;stroke-miterlimit:2"/></g></g><path id="path54768" d="M357.849 167.681h109.737v-20.52H357.849v8.645h-21.707v62.96h-3.22l4.894 4.893 4.896-4.894h-3.253v-59.642h18.39z" style="fill:#fea;fill-opacity:1;stroke:#2b2200;stroke-width:1;stroke-miterlimit:2;stroke-dasharray:none;stroke-dashoffset:0;stroke-opacity:1"/><g id="g52260" transform="translate(38.049 20.534)"><path id="path45991" d="M330 138.305c-.875.006-.228 1.533-.424 2.217-1.023 1.607 3.119 1.599.912 2.354-1.496-.065-3.03.133-4.502-.1-.226-1.07 2.065-.631 1.433-2.185.037-2.673.019-5.346 0-8.019-.461-.45-2.624-1.223-.659-1.4 2.484.145 5.221-.493 7.435.93 2.536 1.919.717 6.091-2.333 6.055-.616.097-1.239.148-1.862.148zm.406-6.23c-1.5-.341-.598 1.786-.83 2.695v2.632c2.006.41 4.233-1.09 3.68-3.308-.12-1.43-1.571-2.102-2.85-2.02z" style="font-size:21.5px;font-family:&quot;Song Myung&quot;;-inkscape-font-specification:&quot;Song Myung&quot;;text-align:center;text-anchor:middle;fill:#000;stroke:#f0f;stroke-width:0;stroke-miterlimit:2"/><path id="path45993" d="M346.11 141.605c1.192.319 1.877 1.506.065 1.271-1.19-.058-2.414.124-3.58-.1-.218-1.022 2.184-.695 1-2.183-.223-.941-.513-1.79-1.65-1.44h-2.673c-.232.869-.78 1.707-.793 2.599 1.535.078 1.652 1.475-.06 1.124-.772-.184-2.718.518-2.451-.723 1.189-.059 1.805-.877 2.024-2.001l3.142-8.612c1.15-1.216 1.648.882 1.945 1.745l3.032 8.32zm-6.525-3.355h3.208l-1.567-4.517-1.64 4.517z" style="font-size:21.5px;font-family:&quot;Song Myung&quot;;-inkscape-font-specification:&quot;Song Myung&quot;;text-align:center;text-anchor:middle;fill:#000;stroke:#f0f;stroke-width:0;stroke-miterlimit:2"/><path id="path45995" d="M357.521 141.53c.684.391 2.658 1.195.627 1.494-1.928.583-3.045-.98-3.109-2.667-.15-1.469-.868-3.222-2.707-2.808-.81.047-.177 1.537-.378 2.194-.334 1.535.493 2.216 1.586 2.728-.513.789-1.867.243-2.747.405-.762-.18-2.694.512-2.415-.718 1.663.075 1.535-1.503 1.456-2.775 0-2.27.007-4.54-.018-6.81-.461-.452-2.624-1.224-.659-1.402 2.402.14 4.948-.403 7.207.607 2.503 1.258 1.335 5.266-1.35 5.42 1.957.535 2.06 2.714 2.507 4.333zm-5.567-4.884c2.024.403 4.497-1.002 3.553-3.337-.289-1.197-3.411-1.93-3.535-.663-.038 1.332-.009 2.667-.018 4z" style="font-size:21.5px;font-family:&quot;Song Myung&quot;;-inkscape-font-specification:&quot;Song Myung&quot;;text-align:center;text-anchor:middle;fill:#000;stroke:#f0f;stroke-width:0;stroke-miterlimit:2"/><path id="path45997" d="M368.544 132.535c-.502-.553-3.086-.985-2.629.478.062 2.927-.172 5.906.141 8.794 2.202.108 1.294 1.52-.5 1.07-1.135-.189-2.742.423-3.519-.406 1.484-.436 2.122-1.527 1.733-3.343-.007-2.34.023-4.678-.037-7.017-1.133.02-2.934-.39-2.736 1.316-.36 2.072-1.89.204-1.267-1.115-.273-1.7 1.803-1.004 2.847-1.14 2.398.077 4.846-.156 7.212.114.116.962.814 3.528-.871 3.005-.286-.53-.241-1.176-.374-1.756z" style="font-size:21.5px;font-family:&quot;Song Myung&quot;;-inkscape-font-specification:&quot;Song Myung&quot;;text-align:center;text-anchor:middle;fill:#000;stroke:#f0f;stroke-width:0;stroke-miterlimit:2"/><path id="path45999" d="M376.305 131.577c-1.476.427-1.766 1.734-1.567 3.343.068 2.292-.15 4.63.138 6.887 2.31.289.77 1.503-.837 1.07-.863-.101-3.735.43-2.564-.848 1.805.052.917-2.258 1.125-3.443-.084-2.107.174-4.28-.148-6.346-2.304-.296-.753-1.5.847-1.069.935.19 2.445-.428 3.006.406z" style="font-size:21.5px;font-family:&quot;Song Myung&quot;;-inkscape-font-specification:&quot;Song Myung&quot;;text-align:center;text-anchor:middle;fill:#000;stroke:#f0f;stroke-width:0;stroke-miterlimit:2"/><path id="path46001" d="M386.056 140.111c1.357-1.463 1.53 1.18 1.19 2.162-3.208 1.937-8.455.71-9.365-3.301-1.328-3.866 1.757-8.412 5.963-8.077 1.871-.168 3.92.73 3.351 2.859-.853 1.861-1.546-.68-1.784-1.569-3.063-1.568-5.785 1.959-5.438 4.848-.309 2.792 1.997 6.071 5.07 5.035 1.057-.056.798-1.255 1.013-1.957z" style="font-size:21.5px;font-family:&quot;Song Myung&quot;;-inkscape-font-specification:&quot;Song Myung&quot;;text-align:center;text-anchor:middle;fill:#000;stroke:#f0f;stroke-width:0;stroke-miterlimit:2"/><path id="path46003" d="M396.582 139.909c1.58-1.418 1.321 1.388 1.168 2.416-.527 1.076-2.278.33-3.356.551-1.845-.063-3.728.13-5.55-.1.129-.977 2.066-.966 1.447-2.665.008-2.513.012-5.026-.013-7.539-1.42-.55-1.92-1.665.176-1.4 1.152.062 2.34-.13 3.469.1-.385.928-2.146 1.253-1.489 3.125.018 2.52-.039 5.04.037 7.558 1.201-.066 2.442.133 3.618-.102.322-.586.318-1.304.493-1.944z" style="font-size:21.5px;font-family:&quot;Song Myung&quot;;-inkscape-font-specification:&quot;Song Myung&quot;;text-align:center;text-anchor:middle;fill:#000;stroke:#f0f;stroke-width:0;stroke-miterlimit:2"/><path id="path46005" d="M407.329 140.185c1.424-1.422 1.26 1.3 1.124 2.25-.744.895-2.391.242-3.53.441-1.89-.065-3.817.133-5.682-.1.082-1.005 2.114-.919 1.447-2.646.008-2.52.012-5.039-.014-7.558-1.42-.55-1.919-1.665.176-1.4 2.37.071 4.787-.146 7.128.11.1.94.817 3.398-.838 2.903-.193-1.39-.742-2.512-2.361-2.074-1.24-.137-2.385-.147-1.948 1.43.234.841-.478 2.63.36 2.865 1.644.466 2.122-.6 2.737-1.622.927.712.257 2.393.46 3.53-.947 1.591-.936-2.03-2.793-1.004-1.407-.354-.517 1.59-.764 2.396.175.852-.555 2.709.94 2.249 1.08-.23 2.826.555 3.35-.602l.208-1.168z" style="font-size:21.5px;font-family:&quot;Song Myung&quot;;-inkscape-font-specification:&quot;Song Myung&quot;;text-align:center;text-anchor:middle;fill:#000;stroke:#f0f;stroke-width:0;stroke-miterlimit:2"/><path id="path46007" d="M418.611 141.07c1.854.078 3.758-.155 5.581.115.783 1.741-1.05 1.868-2.331 1.691-1.616-.077-3.282.155-4.867-.115-.588-1.579 1.332-2.413 2.116-3.507 1.813-1.612 4.244-5.143 1.547-6.986-2.382-1.399-1.548 4.352-3.89 1.816.442-4.904 9.643-2.835 6.632 1.94-1.267 1.953-3.156 3.407-4.788 5.046z" style="font-size:21.5px;font-family:&quot;Song Myung&quot;;-inkscape-font-specification:&quot;Song Myung&quot;;text-align:center;text-anchor:middle;fill:#000;stroke:#f0f;stroke-width:0;stroke-miterlimit:2"/></g><path id="rect52855" d="M115.32-62.758h108.41v19.628H115.32z" style="fill:#fea;fill-opacity:1;stroke:#2b2200;stroke-width:1;stroke-miterlimit:2;stroke-dasharray:none;stroke-dashoffset:0;stroke-opacity:1"/><g id="g52875" style="stroke-width:1.16635" transform="matrix(.85737 0 0 .85737 -359.535 -67.372)"><path id="path52857" d="M564.14 18.417c-1.13.328-.24 2.991-.333 4.07 2.898.329.933 1.793-1.045 1.262-1.111.179-4.93-.009-2.468-1.04 1.61-.566.567-3.067.858-4.526-.094-2.27.199-4.617-.172-6.84-2.823-.396-.69-1.758 1.163-1.246 2.917.028 7-.494 8.152 2.967 1.084 3.862-3.018 5.58-6.155 5.353zm.473-7.267c-1.94-.284-.565 2.794-.967 4.014-1.073 2.954 2.529 2.786 3.871.845 1.345-2.173-.136-5.275-2.904-4.859z" style="font-size:21.5px;font-family:&quot;Song Myung&quot;;-inkscape-font-specification:&quot;Song Myung&quot;;text-align:center;text-anchor:middle;stroke:#f0f;stroke-width:0;stroke-miterlimit:2"/><path id="path52859" d="M582.931 22.266c2.572.845.813 1.89-1.206 1.483-1.303.403-4.54-.485-1.804-1.075.737-.587-.062-3.404-1.2-3.268-1.22.268-3.201-.548-3.92.43-1.012 1.727-.775 2.81.863 3.44-1.04.911-3.119.391-4.552.355.379-1.147 2.577-1.568 2.56-3.638 1.265-3.244 2.26-6.633 3.69-9.789 1.826-.513 1.685 2.22 2.384 3.324l3.185 8.738zm-7.61-3.913c1.016-.272 3.579.556 3.59-.431l-1.677-4.837-1.914 5.268z" style="font-size:21.5px;font-family:&quot;Song Myung&quot;;-inkscape-font-specification:&quot;Song Myung&quot;;text-align:center;text-anchor:middle;stroke:#f0f;stroke-width:0;stroke-miterlimit:2"/><path id="path52861" d="M596.24 22.18c1.362.438 2.918 1.87.086 1.784-2.803.422-2.814-2.655-3.29-4.558-.348-2.445-4.448-2.706-3.29.183-.318 1.892.285 3.129 1.85 3.687-1.003.982-2.993.244-4.417.473-2.978.068-.383-.91.074-2.09-.06-3.428.217-6.933-.15-10.315-2.823-.397-.69-1.759 1.163-1.247 2.863.115 6.99-.733 8.173 2.698 1.833 3.164-5.07 4.059-1.661 5.257.987 1.149 1.048 2.735 1.462 4.128zm-6.493-5.698c2.996.968 6.12-2.804 3.204-4.969-1.985-.935-3.88-.542-3.204 1.84v3.13z" style="font-size:21.5px;font-family:&quot;Song Myung&quot;;-inkscape-font-specification:&quot;Song Myung&quot;;text-align:center;text-anchor:middle;stroke:#f0f;stroke-width:0;stroke-miterlimit:2"/><path id="path52863" d="M609.097 11.688c-.718-.724-3.753-1.124-3.075.795.09 3.334-.195 6.729.172 10.02 2.716.156 1.342 1.795-.742 1.246-1.094-.16-4.746.57-3.429-.989 2.237.24 1.32-2.486 1.505-3.893-.007-2.558.024-5.116-.043-7.674-1.522-.107-3.527-.268-3.24 1.848-1.21 2.32-1.83-.966-1.41-2.228.612-1.399 2.867-.428 4.216-.716 2.491.09 5.042-.182 7.497.134.386 1.12.6 4.846-1.193 3.134l-.258-1.677z" style="font-size:21.5px;font-family:&quot;Song Myung&quot;;-inkscape-font-specification:&quot;Song Myung&quot;;text-align:center;text-anchor:middle;stroke:#f0f;stroke-width:0;stroke-miterlimit:2"/><path id="path52865" d="M618.148 10.57c-1.87.478-2.013 2.252-1.827 4.18.078 2.58-.173 5.212.16 7.752 2.831.388.71 1.762-1.152 1.247-1.104.195-4.805-.026-2.36-1.04 1.61-.566.567-3.067.858-4.526-.094-2.27.199-4.617-.172-6.84-2.823-.396-.69-1.758 1.163-1.246 1.033.216 2.733-.49 3.33.473z" style="font-size:21.5px;font-family:&quot;Song Myung&quot;;-inkscape-font-specification:&quot;Song Myung&quot;;text-align:center;text-anchor:middle;stroke:#f0f;stroke-width:0;stroke-miterlimit:2"/><path id="path52867" d="M629.522 20.524c1.67-1.973 2.263 2.614.66 2.946-4.047 1.74-9.787-.18-10.357-4.994-1.218-4.73 3.122-9.527 7.96-8.659 2.5-.532 4.08 2.512 2.554 4.042-1.674-.542-1.155-4.457-4.424-2.854-4.058 1.432-4.363 7.321-2.168 10.445 1.429 2.02 6.146 2.47 5.775-.926z" style="font-size:21.5px;font-family:&quot;Song Myung&quot;;-inkscape-font-specification:&quot;Song Myung&quot;;text-align:center;text-anchor:middle;stroke:#f0f;stroke-width:0;stroke-miterlimit:2"/><path id="path52869" d="M641.798 20.288c1.9-1.668 1.51 1.736 1.355 2.945-.959 1.063-2.996.272-4.417.516-1.982-.078-4.009.157-5.963-.118.683-1.043 2.478-1.802 1.694-4.1-.095-2.72.2-5.515-.172-8.187-2.823-.397-.69-1.759 1.163-1.247 1.106-.185 4.842.007 2.425 1.057-1.735.461-.596 3.097-.922 4.53.016 2.33-.04 4.661.043 6.99 1.425-.23 3.352.511 4.407-.473l.387-1.913z" style="font-size:21.5px;font-family:&quot;Song Myung&quot;;-inkscape-font-specification:&quot;Song Myung&quot;;text-align:center;text-anchor:middle;stroke:#f0f;stroke-width:0;stroke-miterlimit:2"/><path id="path52871" d="M654.333 20.61c1.753-1.688 1.542 1.907 1.166 3.01-3.358.298-6.804.046-10.196.13-.912-.998 2.534-1.582 1.29-3.97-.095-2.803.2-5.68-.172-8.436-2.823-.397-.69-1.759 1.163-1.247 2.495.087 5.046-.174 7.506.129.366 1.097.618 4.666-1.166 3.031.192-1.926-1.318-2.353-2.935-2.064-1.835-.523-2.164.563-1.902 2.16.241 1.088-.767 3.426 1.14 2.85 1.971 1.044 2.38-3.794 3.009-.67.01 1.086.324 4.835-1.124 2.873.401-1.497-3.265-1.721-3.025-.465.01 1.578-.03 3.156.043 4.733 1.568-.084 3.189.168 4.724-.123.362-.57.311-1.302.479-1.94z" style="font-size:21.5px;font-family:&quot;Song Myung&quot;;-inkscape-font-specification:&quot;Song Myung&quot;;text-align:center;text-anchor:middle;stroke:#f0f;stroke-width:0;stroke-miterlimit:2"/><path id="path52873" d="M670.786 21.922c.8.725 4.483 1.52 1.324 1.827-2.091-.064-4.215.132-6.285-.102-.074-1.555 3.629-.424 2.682-2.866-.085-2.824.172-5.703-.129-8.491-2.247.375-2.465-1.25-.107-1.403 1.536-.698 3.16-.74 2.545 1.395-.066 3.212-.012 6.427-.03 9.64z" style="font-size:21.5px;font-family:&quot;Song Myung&quot;;-inkscape-font-specification:&quot;Song Myung&quot;;text-align:center;text-anchor:middle;stroke:#f0f;stroke-width:0;stroke-miterlimit:2"/></g><path id="path54025" d="M268.952 74.28h-32.686V33.705H224.31v8.559H114.574v-20.52H224.31v8.644h15.27v40.573h29.37V67.71l4.894 4.895-4.893 4.896z" style="fill:#fea;fill-opacity:1;stroke:#2b2200;stroke-width:1;stroke-miterlimit:2;stroke-dasharray:none;stroke-dashoffset:0;stroke-opacity:1"/><path id="rect54029" d="M227.104-27.903h15.175v8.795h-15.175z" style="fill:#f0f;fill-opacity:1;stroke:none;stroke-width:1;stroke-miterlimit:2;stroke-dasharray:none;stroke-dashoffset:0;stroke-opacity:1"/><g id="g54264" transform="translate(-21.44 -45.538)"><g id="g54262" style="stroke-width:1.16635" transform="matrix(.85737 0 0 .85737 -337.793 62.994)"><path id="path54244" d="M564.14 18.417c-1.13.328-.24 2.991-.333 4.07 2.898.329.933 1.793-1.045 1.262-1.111.179-4.93-.009-2.468-1.04 1.61-.566.567-3.067.858-4.526-.094-2.27.199-4.617-.172-6.84-2.823-.396-.69-1.758 1.163-1.246 2.917.028 7-.494 8.152 2.967 1.084 3.862-3.018 5.58-6.155 5.353zm.473-7.267c-1.94-.284-.565 2.794-.967 4.014-1.073 2.954 2.529 2.786 3.871.845 1.345-2.173-.136-5.275-2.904-4.859z" style="font-size:21.5px;font-family:&quot;Song Myung&quot;;-inkscape-font-specification:&quot;Song Myung&quot;;text-align:center;text-anchor:middle;stroke:#f0f;stroke-width:0;stroke-miterlimit:2"/><path id="path54246" d="M582.931 22.266c2.572.845.813 1.89-1.206 1.483-1.303.403-4.54-.485-1.804-1.075.737-.587-.062-3.404-1.2-3.268-1.22.268-3.201-.548-3.92.43-1.012 1.727-.775 2.81.863 3.44-1.04.911-3.119.391-4.552.355.379-1.147 2.577-1.568 2.56-3.638 1.265-3.244 2.26-6.633 3.69-9.789 1.826-.513 1.685 2.22 2.384 3.324l3.185 8.738zm-7.61-3.913c1.016-.272 3.579.556 3.59-.431l-1.677-4.837-1.914 5.268z" style="font-size:21.5px;font-family:&quot;Song Myung&quot;;-inkscape-font-specification:&quot;Song Myung&quot;;text-align:center;text-anchor:middle;stroke:#f0f;stroke-width:0;stroke-miterlimit:2"/><path id="path54248" d="M596.24 22.18c1.362.438 2.918 1.87.086 1.784-2.803.422-2.814-2.655-3.29-4.558-.348-2.445-4.448-2.706-3.29.183-.318 1.892.285 3.129 1.85 3.687-1.003.982-2.993.244-4.417.473-2.978.068-.383-.91.074-2.09-.06-3.428.217-6.933-.15-10.315-2.823-.397-.69-1.759 1.163-1.247 2.863.115 6.99-.733 8.173 2.698 1.833 3.164-5.07 4.059-1.661 5.257.987 1.149 1.048 2.735 1.462 4.128zm-6.493-5.698c2.996.968 6.12-2.804 3.204-4.969-1.985-.935-3.88-.542-3.204 1.84v3.13z" style="font-size:21.5px;font-family:&quot;Song Myung&quot;;-inkscape-font-specification:&quot;Song Myung&quot;;text-align:center;text-anchor:middle;stroke:#f0f;stroke-width:0;stroke-miterlimit:2"/><path id="path54250" d="M609.097 11.688c-.718-.724-3.753-1.124-3.075.795.09 3.334-.195 6.729.172 10.02 2.716.156 1.342 1.795-.742 1.246-1.094-.16-4.746.57-3.429-.989 2.237.24 1.32-2.486 1.505-3.893-.007-2.558.024-5.116-.043-7.674-1.522-.107-3.527-.268-3.24 1.848-1.21 2.32-1.83-.966-1.41-2.228.612-1.399 2.867-.428 4.216-.716 2.491.09 5.042-.182 7.497.134.386 1.12.6 4.846-1.193 3.134l-.258-1.677z" style="font-size:21.5px;font-family:&quot;Song Myung&quot;;-inkscape-font-specification:&quot;Song Myung&quot;;text-align:center;text-anchor:middle;stroke:#f0f;stroke-width:0;stroke-miterlimit:2"/><path id="path54252" d="M618.148 10.57c-1.87.478-2.013 2.252-1.827 4.18.078 2.58-.173 5.212.16 7.752 2.831.388.71 1.762-1.152 1.247-1.104.195-4.805-.026-2.36-1.04 1.61-.566.567-3.067.858-4.526-.094-2.27.199-4.617-.172-6.84-2.823-.396-.69-1.758 1.163-1.246 1.033.216 2.733-.49 3.33.473z" style="font-size:21.5px;font-family:&quot;Song Myung&quot;;-inkscape-font-specification:&quot;Song Myung&quot;;text-align:center;text-anchor:middle;stroke:#f0f;stroke-width:0;stroke-miterlimit:2"/><path id="path54254" d="M629.522 20.524c1.67-1.973 2.263 2.614.66 2.946-4.047 1.74-9.787-.18-10.357-4.994-1.218-4.73 3.122-9.527 7.96-8.659 2.5-.532 4.08 2.512 2.554 4.042-1.674-.542-1.155-4.457-4.424-2.854-4.058 1.432-4.363 7.321-2.168 10.445 1.429 2.02 6.146 2.47 5.775-.926z" style="font-size:21.5px;font-family:&quot;Song Myung&quot;;-inkscape-font-specification:&quot;Song Myung&quot;;text-align:center;text-anchor:middle;stroke:#f0f;stroke-width:0;stroke-miterlimit:2"/><path id="path54256" d="M641.798 20.288c1.9-1.668 1.51 1.736 1.355 2.945-.959 1.063-2.996.272-4.417.516-1.982-.078-4.009.157-5.963-.118.683-1.043 2.478-1.802 1.694-4.1-.095-2.72.2-5.515-.172-8.187-2.823-.397-.69-1.759 1.163-1.247 1.106-.185 4.842.007 2.425 1.057-1.735.461-.596 3.097-.922 4.53.016 2.33-.04 4.661.043 6.99 1.425-.23 3.352.511 4.407-.473l.387-1.913z" style="font-size:21.5px;font-family:&quot;Song Myung&quot;;-inkscape-font-specification:&quot;Song Myung&quot;;text-align:center;text-anchor:middle;stroke:#f0f;stroke-width:0;stroke-miterlimit:2"/><path id="path54258" d="M654.333 20.61c1.753-1.688 1.542 1.907 1.166 3.01-3.358.298-6.804.046-10.196.13-.912-.998 2.534-1.582 1.29-3.97-.095-2.803.2-5.68-.172-8.436-2.823-.397-.69-1.759 1.163-1.247 2.495.087 5.046-.174 7.506.129.366 1.097.618 4.666-1.166 3.031.192-1.926-1.318-2.353-2.935-2.064-1.835-.523-2.164.563-1.902 2.16.241 1.088-.767 3.426 1.14 2.85 1.971 1.044 2.38-3.794 3.009-.67.01 1.086.324 4.835-1.124 2.873.401-1.497-3.265-1.721-3.025-.465.01 1.578-.03 3.156.043 4.733 1.568-.084 3.189.168 4.724-.123.362-.57.311-1.302.479-1.94z" style="font-size:21.5px;font-family:&quot;Song Myung&quot;;-inkscape-font-specification:&quot;Song Myung&quot;;text-align:center;text-anchor:middle;stroke:#f0f;stroke-width:0;stroke-miterlimit:2"/><path id="path54260" d="M670.786 21.922c.8.725 4.483 1.52 1.324 1.827-2.091-.064-4.215.132-6.285-.102-.074-1.555 3.629-.424 2.682-2.866-.085-2.824.172-5.703-.129-8.491-2.247.375-2.465-1.25-.107-1.403 1.536-.698 3.16-.74 2.545 1.395-.066 3.212-.012 6.427-.03 9.64z" style="font-size:21.5px;font-family:&quot;Song Myung&quot;;-inkscape-font-specification:&quot;Song Myung&quot;;text-align:center;text-anchor:middle;stroke:#f0f;stroke-width:0;stroke-miterlimit:2"/></g></g></g></svg>