<svg xmlns="http://www.w3.org/2000/svg" xmlns:xlink="http://www.w3.org/1999/xlink" width="387" height="282.8" preserveAspectRatio="none" viewBox="-5 -50 387 282.8"><style>.grid{stroke:#9e9ed1;stroke-width:.5}.axes{stroke:#000;stroke-width:.8}.axes-arrows{stroke-width:1.1;stroke:#000;fill:none;stroke-linecap:round;stroke-linejoin:round}.axes-labels{stroke:none;fill:#000}.dots-full{stroke-width:1.5;stroke:red;fill:red}</style><defs><path id="MJMATHI-78" stroke-width="1" d="M52 289q7 42 54 97t116 56q35 0 64-18t43-45q42 63 101 63 37 0 64-22t28-59q0-29-14-47t-27-22-23-4q-19 0-31 11t-12 29q0 46 50 63-11 13-40 13-13 0-19-2-38-16-56-66-60-221-60-258 0-28 16-40t35-12q37 0 73 33t49 81q3 10 6 11t16 2h4q15 0 15-8 0-1-2-11-16-57-62-101T333-11q-70 0-106 63-41-62-94-62h-6q-49 0-70 26T35 71q0 32 19 52t45 20q43 0 43-42 0-20-12-35t-23-20-13-5l-3-1q0-1 6-4t16-7 19-3q36 0 62 45 9 16 23 68t28 108 16 66q5 27 5 39 0 28-15 40t-34 12q-40 0-75-32t-49-82q-2-9-5-10t-16-2H58q-6 6-6 11Z"/><path id="MJMAIN-28" stroke-width="1" d="M94 250q0 69 10 131t23 107 37 88 38 67 42 52 33 34 25 21h17q14 0 14-9 0-3-17-21t-41-53-49-86-42-138-17-193 17-192 41-139 49-86 42-53 17-21q0-9-15-9h-16l-28 24q-94 85-137 212T94 250Z"/><path id="MJMAIN-29" stroke-width="1" d="m60 749 4 1h22l28-24q94-85 137-212t43-264q0-68-10-131T261 12t-37-88-38-67-41-51-32-33-23-19l-4-4H63q-3 0-5 3t-3 9q1 1 11 13Q221-64 221 250T66 725q-10 12-11 13 0 8 5 11Z"/><path id="MJMAIN-2212" stroke-width="1" d="M84 237v13l14 20h581q15-8 15-20t-15-20H98q-14 7-14 20Z"/><path id="MJMAIN-32" stroke-width="1" d="M109 429q-27 0-43 18t-16 44q0 71 53 123t132 52q91 0 152-56t62-145q0-43-20-82t-48-68-80-74q-36-31-100-92l-59-56 76-1q157 0 167 5 7 2 24 89v3h40v-3q-1-3-13-91T421 3V0H50v31q0 7 6 15t30 35q29 32 50 56 9 10 34 37t34 37 29 33 28 34 23 30 21 32 15 29 13 32 7 30 3 33q0 63-34 109t-97 46q-33 0-58-17t-35-33-10-19q0-1 5-1 18 0 37-14t19-46q0-25-16-42t-45-18Z"/><path id="MJMAIN-30" stroke-width="1" d="M96 585q56 81 153 81 48 0 96-26t78-92q37-83 37-228 0-155-43-237-20-42-55-67t-61-31-51-7q-26 0-52 6t-61 32-55 67q-43 82-43 237 0 174 57 265Zm225 12q-30 32-71 32-42 0-72-32-25-26-33-72t-8-192q0-158 8-208t36-79q28-30 69-30 40 0 68 30 29 30 36 84t8 203q0 145-8 191t-33 73Z"/><path id="MJMAIN-34" stroke-width="1" d="M462 0q-18 3-129 3-116 0-134-3h-9v46h58q7 0 17 2t14 5 7 8q1 2 1 54v50H28v46l151 231q153 232 155 233 2 2 21 2h18l6-6V211h92v-46h-92V66q0-7 6-12 8-7 57-8h29V0h-9ZM293 211v334L74 212l109-1h110Z"/></defs><g id="grid"><path d="M19 212.8V0M57 212.8V0M95 212.8V0M133 212.8V0M171 212.8V0M209 212.8V0M247 212.8V0M285 212.8V0M323 212.8V0M0 205.2h342M0 167.2h342M0 129.2h114.527m14.474 0H342M0 91.2h342M0 53.2h114.527m14.474 0H342M0 15.2h342" class="grid"/></g><g id="axes"><path d="M0 205.2h350.798M133 212.8V-8.798" class="axes"/></g><g id="axes arrows"><path d="M343.887 197.522c0 3.071 5.183 7.678 6.91 7.678-1.727 0-6.91 4.607-6.91 7.678M125.322-1.887c3.071 0 7.678-5.183 7.678-6.91 0 1.727 4.607 6.91 7.678 6.91" class="axes-arrows"/></g><g id="axes labels"><use xlink:href="#MJMATHI-78" class="axes-labels" transform="matrix(.01904 0 0 -.01904 366.793 209.71)"/><g class="axes-labels" transform="matrix(.01904 0 0 -.01904 68.72 -27.992)"><text style="font-family:baskerville;font-size:20px" transform="scale(53.819 -53.819)">VX-11/78A</text><use xlink:href="#MJMAIN-28" x="5400"/><use xlink:href="#MJMATHI-78" x="5789"/><use xlink:href="#MJMAIN-29" x="6362"/></g></g><g id="notch labels" style="stroke:none;fill:#b8b8de"><g transform="matrix(.01714 0 0 -.01714 46.04 229.094)"><use xlink:href="#MJMAIN-2212"/><use xlink:href="#MJMAIN-32" x="778"/></g><use xlink:href="#MJMAIN-30" transform="matrix(.01713 0 0 -.01713 128.713 229.086)"/><use xlink:href="#MJMAIN-32" transform="matrix(.01713 0 0 -.01713 204.713 229.086)"/><use xlink:href="#MJMAIN-34" transform="matrix(.01713 0 0 -.01713 280.713 229.086)"/><use xlink:href="#MJMAIN-32" transform="matrix(.01713 0 0 -.01713 117.477 134.988)"/><use xlink:href="#MJMAIN-34" transform="matrix(.01713 0 0 -.01713 117.477 58.988)"/></g><g id="graphs"><circle cx="133" cy="72.2" r="3.382" class="dots-full"/><circle cx="171" cy="110.2" r="3.382" class="dots-full"/></g></svg>