<svg xmlns="http://www.w3.org/2000/svg" xmlns:xlink="http://www.w3.org/1999/xlink" width="139.88" height="43.071" aria-hidden="true" viewBox="0 -18.033 139.88 43.071"><defs><path id="a" stroke-width="1" d="m304-161-12-16C134-87 48 82 48 252c0 185 87 329 247 424l9-16C165 541 134 448 134 255c0-186 30-299 170-416Z"/><path id="b" stroke-width="1" d="m305 288 45 69c26 40 61 84 111 84 32 0 49-12 49-33 0-19-13-42-39-42-22 0-27 9-44 9-30 0-41-16-55-38l-55-85c30-62 53-197 98-197 16 0 40 14 61 57l14-10C478 87 433-9 375-9c-41 0-60 41-73 77l-40 113-63-98C167 34 138-9 82-9 46-9 30 16 30 38c0 16 13 37 38 37 26 0 22-20 47-20 12 0 38 10 70 59l65 101-33 92c-17 48-43 89-98 89-13 0-28-2-38-6l-3 18 132 33c44-24 63-65 75-98z"/><path id="c" stroke-width="1" d="M856 258v-10c-96-41-172-115-238-191l-20 19c23 33 52 65 82 96 9 9 14 20 14 28 0 10-8 20-26 20H70v66h599c10 0 26 12 26 22 0 9-4 15-14 25-29 28-60 63-82 96l20 19c65-75 141-150 237-190Z"/><path id="d" stroke-width="1" d="m270 307 28-235c61 83 96 143 118 184 20 37 28 57 28 75 0 21-52 31-52 69 0 22 18 40 47 40 32 0 57-23 57-62 0-78-162-318-204-371-73-92-138-190-206-190-37 0-56 31-56 55 0 30 27 41 40 41 43 0 41-31 57-31 17 0 74 62 100 102l-38 314c-5 45-14 105-70 105-11 0-27-3-36-4l-2 16 150 25c23-33 30-59 39-133z"/><path id="e" stroke-width="1" d="m61 510-16 4c29 95 92 162 196 162 93 0 156-55 156-137 0-48-26-98-93-138 44-19 62-31 83-53 28-31 44-77 44-129 0-53-17-102-46-140-48-64-143-93-232-93C80-14 41 7 41 43c0 21 18 36 41 36 17 0 33-6 61-26 37-26 58-31 86-31 74 0 130 68 130 153 0 76-35 125-104 145-22 7-45 10-102 10v14c38 13 64 24 84 36 49 28 81 73 81 134 0 68-42 102-108 102-62 0-108-32-149-106z"/><path id="f" stroke-width="1" d="m29 660 12 16c153-92 244-259 244-429 0-185-88-327-247-424l-9 16C171-44 199 50 199 244c0 187-25 302-170 416Z"/><path id="g" stroke-width="1" d="m446 684 2-16c-157-26-269-134-296-285 49 38 83 45 127 45 117 0 189-80 189-209 0-64-18-120-51-160-37-46-93-73-159-73-79 0-142 37-177 101-28 51-47 122-47 192 0 108 38 203 109 276 86 90 165 114 303 129zm-68-496c0 128-42 194-135 194-57 0-116-24-116-116 0-152 48-252 142-252 72 0 109 72 109 174z"/></defs><rect width="11.89" height="14.102" x="5.278" y="-11.779" ry="4.36" style="fill:#faa;stroke:none;stroke-width:.600001;stroke-linejoin:round;stroke-miterlimit:2"/><rect width="11.89" height="14.102" x="123.059" y="-11.894" ry="4.36" style="fill:#faa;stroke:none;stroke-width:.600001;stroke-linejoin:round;stroke-miterlimit:2"/><g transform="scale(.01904 -.01904)"><use xlink:href="#a"/><use xlink:href="#b" x="333"/><use xlink:href="#c" x="1161"/><use xlink:href="#d" x="2366"/><use xlink:href="#c" x="3140"/><g transform="translate(4344)"><use xlink:href="#b"/><use xlink:href="#e" x="778" y="583" transform="scale(.707)"/></g><use xlink:href="#d" x="5349"/><use xlink:href="#f" x="5845"/><use xlink:href="#a" x="6179"/><use xlink:href="#g" x="6512"/><use xlink:href="#f" x="7013"/></g><path d="M8.454.803c1.726 2.834 1.665 5.855 1.293 8.767-.294 4.877 5.577 6.402 9.39 6.183 4.582-1.308 9.74-2.19 12.981 2.2 4.98 3.285 11.484 3.093 17.093 1.922 4.799-1.515 9.994-2.128 14.972-1.38 4.79 1.504 10.118.569 14.765-1.037 4.5-1.556 9.38-2.343 14.066-1.83 5.655.62 10.713 3.644 16.406 4.225 4.246.433 8.657.672 12.806-.397 2.22-.572 4.035-2.605 4.665-3.445 2.26-3.013 3.54-6.053 4.73-10.402.41-1.494.168-3.07.18-4.005-1.344-.033-3.135.097-4.675.163.07 2.177-.108 3.716-.705 5.36-.645 1.775-1.33 3.79-2.576 5.344-.992 1.237-2.446 2.6-3.865 2.938-5.8 1.379-10.978.484-16.574-1.494-5.52-1.951-11.284-3.153-17.233-2.557-5.44.545-10.254 3.28-15.718 3.328-5.057-.098-10.06-1.75-15.222-.64-4.998.524-9.805 2.962-14.93 1.985-5.047.517-7.518-4.826-11.951-5.797-4.68-.988-9.404 2.646-13.871.134-.97-2.23.778-6.641-1.543-9.404C11.763.784 9.922.889 8.454.803Z" style="fill:#faa;stroke-width:.6;stroke-linejoin:round;stroke-miterlimit:2"/><circle cx="26.379" cy="16.445" r=".021" style="fill:#faa;stroke:#000"/><path d="M10.383 55.88c.605 4.69-1.824 10.907 3.476 13.469 5.573 3.885 11.412-1.19 17.058-.47 5.019 1.689 8.344 8.634 14.492 5.541 6.76-2.64 14.685-5.912 21.772-2.55 4.61 3.931 11.17 3.81 16.491 1.494 5.008-2.354 11.295-5.95 16.058-.929 3.662 3.214 9.116 5.14 13.455 2.095 4.452-2.404 9.569-5.599 14.763-3.429 5.892.95 8.925-5.726 7.647-10.663.663-3.963-4.777-7.757-6.396-3.427 2.442 1.964 3.32 10.509-.784 9.296-5.349-1.04-10.765.342-15.27 3.336-5.383 4.969-10.522-1.238-15.3-3.628-6.486-2.756-12.253 2.581-18.285 4.082-5.326 2.23-9.37-2.427-14.1-3.683-7.692-1.69-15.173 1.492-22.28 4.015-5.537-.05-8.84-8.64-15.253-6.052-4.183.96-12.34 4.73-13.387-1.978.09-2.025.438-4.897-.178-6.17-1.232.099-1.535-.494-3.98-.349zM12.571 94.243c-.903 4.011-1.73 8.49-.184 12.42 2.755 4.496 9.105 4.976 13.578 2.964 4.288-1.923 8.497-.44 12.074 2.068 5.584 1.915 12.23 1.418 17.108-2.081-1.148.672 4.137-2.134 5.869-1.877 7.092 1.052 13.676 4.94 21.026 4.476 6.359.3 12.08-2.797 18.095-4.26 4.778.392 8.312 4.23 13.508 4.27 7.853.059 16.752-2.683 20.512-10.015.823-1.606 1.526-6.098.85-7.718-1.15-.72-2.57-.434-3.701-.03-.005 1.64.066 2.833-.182 4.2-.628 3.46-3.441 5.675-5.806 6.86-5.077 2.546-7.91 3.19-13.127 2.435-4.972-.718-9.246-6.052-14.595-3.94-5.784 1.858-11.6 4.482-17.839 3.661-6.814-.216-12.874-4.52-19.715-4.338-3.374.594-6.55 2.031-9.394 3.916 1.295-.46-4.798 1.763-6.676 1.036-4.988.39-8.448-4.704-13.487-4.103-4.37-.073-8.596 3.695-12.848 1.347-3.154-2.458-.92-7.576-.595-11.038-.201-1.4-3.079-.047-4.439-.256l-.032.003z" style="fill:#faa;stroke-width:.6;stroke-linejoin:round;stroke-miterlimit:2"/><circle cx="-93.92" cy="-52.721" r=".03" style="fill:#faa;stroke:#000"/><circle cx="49.087" cy="16" r=".03" style="fill:#faa;stroke:#000"/><path d="M10.644 112.938c-.02 10.122 22.961 15.45 37.95 16.66 17.069 1.38 37.687 1.488 49.519 0 19.205-2.413 29.387-6.324 30.544-15.734" style="fill:none;stroke:#faa;stroke-width:4;stroke-linejoin:round;stroke-miterlimit:2;stroke-dasharray:none"/></svg>