<svg xmlns="http://www.w3.org/2000/svg" xmlns:xlink="http://www.w3.org/1999/xlink" xml:space="preserve" id="svg54" width="900" height="242.308" preserveAspectRatio="none" version="1.1" viewBox="-10 -38.407 900 242.308"><style id="style1" type="text/css">.grid{stroke:#9e9ed1;stroke-width:.4}.axes{stroke:#000;stroke-width:.9}</style><defs id="defs1"><path id="MJMATHI-78" stroke-width="1" d="M52 289q7 42 54 97t116 56q35 0 64-18t43-45q42 63 101 63 37 0 64-22t28-59q0-29-14-47t-27-22q-13-4-23-4-19 0-31 11t-12 29q0 46 50 63-11 13-40 13-13 0-19-2-38-16-56-66-60-221-60-258 0-28 16-40t35-12q37 0 73 33t49 81q3 10 6 11t16 2h4q15 0 15-8 0-1-2-11-16-57-62-101T333-11q-70 0-106 63-41-62-94-62h-6q-49 0-70 26T35 71q0 32 19 52t45 20q43 0 43-42 0-20-12-35t-23-20q-11-5-13-5l-3-1q0-1 6-4t16-7q10-4 19-3 36 0 62 45 9 16 23 68t28 108q14 56 16 66 5 27 5 39 0 28-15 40t-34 12q-40 0-75-32t-49-82q-2-9-5-10t-16-2H58q-6 6-6 11z"/><path id="MJMATHI-79" stroke-width="1" d="M21 287q0 14 15 48t48 71q33 37 74 36 41 0 66-23t26-64q-2-19-3-21 0-3-16-46t-33-97q-17-54-16-86 0-43 14-60t42-18q23 0 43 11t31 23q11 12 27 33 0 1 5 20t14 59q9 40 19 74 38 150 42 157 13 27 43 27 13 0 21-7t11-12q3-5 2-9 0-13-49-210T391-23q-28-83-97-132t-138-50q-45 0-79 22t-34 66q0 22 7 37t19 22q12 7 20 10t17 3q44 0 44-42 0-20-12-35t-23-20q-11-5-13-5l-3-1q2-5 19-12t34-7h8q17 0 26 2 33 9 61 38t43 62q15 33 23 56t8 30l-6-4q-6-4-19-11T270-6q-20-5-39-5-46 0-81 22t-46 71q-1 7-1 31 0 57 35 149t35 117v14q0 3-4 7t-11 4h-4q-23 0-42-19t-30-41q-11-22-17-42t-8-22q-2-2-16-2H27q-6 6-6 9z"/><path id="MJMAIN-2212" stroke-width="1" d="M84 237v13q0 13 14 20h581q15-8 15-20t-15-20H98q-14 7-14 20z"/><path id="MJMAIN-31" stroke-width="1" d="m213 578-13-5q-14-5-40-10t-58-7H83v46h19q47 2 87 15t56 24q16 11 28 22 2 3 12 3 9 0 17-6V361l1-300q7-7 12-9t24-4q19-2 62-2h26V0h-11q-21 3-159 3-136 0-157-3H88v46h64q16 0 25 1t16 3q7 2 8 2t6 5q5 5 6 4z"/><path id="MJMAIN-30" stroke-width="1" d="M96 585q56 81 153 81 48 0 96-26t78-92q37-83 37-228 0-155-43-237-20-42-55-67t-61-31q-26-6-51-7-26 0-52 6t-61 32q-35 26-55 67-43 82-43 237 0 174 57 265zm225 12q-30 32-71 32-42 0-72-32-25-26-33-72t-8-192q0-158 8-208t36-79q28-30 69-30 40 0 68 30 29 30 36 84t8 203q0 145-8 191t-33 73z"/><path id="MJMAIN-38" stroke-width="1" d="M70 417v77q0 77 54 124t124 48q71 0 126-42t55-109q0-30-11-56t-26-42q-15-16-31-28t-26-18q-10-6-11-8l14-9 28-20q14-10 16-11 75-59 75-149 0-79-58-137T249-22q-90 0-148 51T43 155q0 108 129 180l-18 13q-21 13-27 20-57 49-57 126zm216-31 6 4 9 6q3 2 10 7t12 10q5 5 11 12t11 13q5 6 10 16t9 17q4 7 5 20t2 22q0 43-29 73t-67 38q-7 1-33 1-41 0-77-26t-37-65q0-23 13-42t26-29q13-10 50-32 7-5 11-7zM250 21q58 0 100 34t42 82q0 17-5 32t-12 25q-7 10-22 22t-23 18q-8 6-29 19t-27 17q-14 9-30 19t-26 17l-8 5q-6 0-29-17t-48-55q-25-38-26-82 0-59 43-97t100-39z"/><path id="MJMAIN-36" stroke-width="1" d="M42 313q0 163 81 258t180 95q69 0 99-36t30-80q0-25-14-40t-39-15q-23 0-38 14t-15 39q0 44 47 53-22 22-62 25-71 0-117-60-47-66-47-202l1-4q5 6 8 13 41 60 107 60h4q46 0 81-19 24-14 48-40t39-57q21-49 21-107v-18q0-23-5-43-11-59-64-115T253-22q-28 0-54 8t-56 30q-30 22-51 59t-36 97q-15 60-14 141zm215 84q-30 0-52-17t-34-45q-12-28-17-57t-6-62q0-83 12-119t38-58q24-18 53-18 51 0 78 38 13 18 18 45t5 105q0 80-5 107t-18 45q-27 36-72 36z"/><path id="MJMAIN-34" stroke-width="1" d="M462 0q-18 3-129 3-116 0-134-3h-9v46h58q7 0 17 2t14 5q4 3 7 8 1 2 1 54v50H28v46l151 231q153 232 155 233 2 2 21 2h18l6-6V211h92v-46h-92V66q0-7 6-12 8-7 57-8h29V0ZM293 211v334L74 212l109-1Z"/><path id="MJMAIN-32" stroke-width="1" d="M109 429q-27 0-43 18t-16 44q0 71 53 123t132 52q91 0 152-56t62-145q0-43-20-82t-48-68q-28-29-80-74-36-31-100-92l-59-56 76-1q157 0 167 5 7 2 24 89v3h40v-3q-1-3-13-91T421 3V0H50v31q0 7 6 15t30 35q29 32 50 56 9 10 34 37t34 37q9 10 29 33t28 34q8 11 23 30t21 32q6 13 15 29t13 32q4 16 7 30t3 33q0 63-34 109t-97 46q-33 0-58-17t-35-33q-10-16-10-19 0-1 5-1 18 0 37-14t19-46q0-25-16-42t-45-18z"/><clipPath id="trbl_clip_0_945_250_0"><path id="path1" d="M0 0h945v250H0Z"/></clipPath><clipPath id="clipPath42" clipPathUnits="userSpaceOnUse"/></defs><g id="layer18"><path id="path226" d="M118.984 49.46c-1.131-.084-2.284.088-3.334.57-5.153 2.367-8.903 7.52-11.48 13-5.018 10.673-6.386 23.644-3.439 35.322 1.572 6.229 4.643 11.981 8.975 16.224 3.98 3.899 9.702 5.418 14.623 3.316l-1.184-.825c-1.935 5.916.045 13.469 2.847 18.907 2.249 4.363 5.705 8.863 11.659 12.73 8.589 5.578 20.152 7.752 30.35 6.29 6.07-.87 12.504-2.366 17.176-6.567 1.354-1.218 2.824-3.245 2.19-4.695-2.998 2.535-1.827 5.166.925 8.529 3.593 4.389 9.756 6.54 15.565 8.09 7.579 1.984 15.747 2.26 23.468.696 5.531-1.145 11.25-2.88 15.295-6.433 1.525-1.395 2.751-3.36 2.613-5.267-.678-.675-.884-.15-1.04.507l.48.775c2.721 2.957 6.947 4.625 11.354 5.736 7.087 1.63 14.977 2.495 23.091.522 4.886-1.118 9.71-3.928 12.522-7.745.854-1.074 1.776-2.906.312-3.39-.423 1.418.486 2.808 1.295 3.698 5.691 6.265 13.276 10.335 23.206 12.308 8.19 1.627 20.37 1.044 28.17-1.696 3.927-1.38 8.56-3.376 9.162-6.843.089-.513-1.339-.546-.923.065 2.44 3.58 6.89 6.104 11.171 7.839 9.249 3.748 19.02 5.166 28.174 5.287 9.756.128 19.607-1.015 27.836-3.977 4.138-1.49 10.037-5.538 9.967-8.764l-1.109.147c2.855 3.405 9.545 7.038 15.264 8.819 4.901 1.525 11.85 2.318 18.707 1.835 8.845-.622 13.949-3.41 15.444-4.32 2.79-1.7 5.843-4.415 7.472-7.57.246-.476 1.171-2.092.171-2.27-.476.206.207 1.452.6 2.08 3.716 5.926 11.306 10.645 19.48 12.033 5.35.908 10.952.853 16.268-.193 5.697-1.121 10.954-3.792 14.802-7.518.973-.943 2.343-2.783 1.837-3.774-.362-.104-.845-.658-.912.323 1.948 2.854 5.307 5.09 8.46 6.917 7.245 4.193 15.695 6.501 24.513 7.145 13.403.98 25.157-1.157 35.654-6.215 5.851-2.82 11.774-8.597 13.457-13.494l-.72.976c-.06 3.432 4.493 7.832 7.933 10.034 5.754 3.682 13.685 5.17 20.963 5.465 9.515.385 22.06-.612 30.447-6.966 1.429-1.083 5.385-4.504 1.798-9.664-.613-.882-2.266-1.857-1.162.08 4.332 7.607 13.894 13.33 23.487 15.836 9.102 2.378 21.85 1.33 30.722-2.491 5.685-2.45 11.262-5.91 14.776-11.657 1.365-2.234 1.266-2.917-.05-3.187-1.676 1.026.59 2.975 2.943 5.013 3.946 3.419 11.746 6.38 17.959 7.098 9.56 1.106 19.545-.261 29.899-6.267 4.41-2.559 8.35-6.39 10.865-11.58 2.617-5.398 3.644-12.527.997-18.079-.244-.513-1.383-1.322-1.641-.005-.263 1.338 1.467.93 2.012.846 5.391-.834 11.823-5.624 15.873-11.474 7.411-10.703 10.486-24.455 8.445-37.506-1.573-10.064-7.258-20.887-13.089-26.687-5.84-5.809-12.788-10.165-21.12-10.587-2.402-.122-7.082.224-7.797 2.81-.014.099.358.12.532.078 2.298-.54 2.462-4.292 2.222-6.06-.244-1.794-.557-3.166-2.013-5.269-3.084-4.451-7.978-6.93-12.852-8.51-3.889-1.261-6.18-1.825-10.293-2.478-7.872-1.25-16.4-.872-23.811.541-4.74.905-9.535 2.055-13.83 4.41l.931.517c.52-1.797-.085-3.914-.912-5.536-2.262-4.43-7.065-6.814-11.758-7.841-8.057-1.765-16.53-.14-23.944 3.2-3.994 1.8-7.885 4.078-10.956 7.233-1.346 1.382-3.01 4.61-.7 5.451 2.309.841-1.579-3.767-2.716-4.743-8.3-7.115-19.384-10.784-30.28-10.075-9.854.64-19.724 2.948-28.523 7.48-5.181 2.669-10.343 6.116-13.466 11.168-.558.9-.633 2.11-.032 2.293.988.526.98-.534.652-1.068-.936-1.523-4.004-5.015-6.358-6.992-5.71-4.793-13.136-8.034-21.569-6.808-2.483.361-4.989 1.361-6.841 3.175-.703.688-1.68 2.401-1.171 3.255l.407-.31c-4.026-5.097-9.501-9.077-15.104-12.356-14.255-8.342-35.72-9.751-51.491-5.943-12.86 3.106-22.281 7.892-32.32 16.91-1.559 1.4-2.065 2.32-2.65 3.212 1.708 1.625 1.012-1.314-.84-3.217-4.223-4.337-9.881-7.814-17.212-10.181-11.254-3.634-24.965-3.38-36.727-.099-5.73 1.599-11.793 3.886-17.176 7.28-2.175 1.372-4.913 4.127-3.322 5.019 1.31.137.22-2.373-.474-3.089-3.267-3.371-7.897-5.75-12.38-7.018-5.855-1.655-11.952-2.017-17.679-.59-1.312.327-3.578 1.326-4.286 2.055-.343.353-.67 1.17-.485 1.618l.792-.289c-2.785-3.594-6.777-6.068-10.772-8.126-8.325-3.903-17.785-4.771-26.828-3.56-8.997 1.293-18.352 3.467-25.567 9.336-3.511 2.856-6.319 7.168-6.112 11.74.038.855.654 1.435 1.418 1.219 1.11-.315.028-3.671-1.212-4.794-3.947-3.576-9.09-5.622-14.236-6.817-6.694-1.555-13.734-1.263-20.348.521-4.834 1.304-9.89 2.957-13.52 6.525-.983.966-2.098 2.676-1.168 4.03.769-2.872-1.63-5.75-3.336-7.954-6.122-7.911-16.121-12.073-25.928-12.885-9.377-.776-19.432.578-27.828 5.598-3.909 2.337-7.505 6.684-8.405 10.382-.344 1.413-.537 2.26-.218 3.158l.615-.656c-.233-.275-.34-.302-.603-.52-4.478-3.7-9.685-6.312-15.213-7.806-10.296-2.782-23.04-2.489-33.086 4.055-6.2 4.038-11.993 9.995-14.583 17.647-1.454 4.297-1.97 9.79.589 13.242" style="display:inline;fill:#ff0;fill-opacity:1;stroke:#333;stroke-width:.692307;stroke-dasharray:none;stroke-dashoffset:1.02"/><path id="path223" d="M1218.056-83.762c-.732.528-1.427 1.111-2.195 1.585-3.772 2.323-7.999 3.687-12.24 4.868-1.885.443-3.757.951-5.657 1.33-9.554 1.902-19.446 2.49-29.082.884-3.567-.948-5.205-1.134-8.4-2.895-4.05-2.233-6.743-5.944-8.684-10.04-.276-.914-.628-1.81-.827-2.745-.54-2.536-.329-5.224.754-7.584" style="display:inline;fill:none;stroke:#333;stroke-width:.692307;stroke-dasharray:none;stroke-dashoffset:1.02"/><path id="path303" d="M133.681 477.768c-.263-.154-1.348 1.44-1.388 1.414-3.854 4.272-8.445 7.777-13.843 9.889-3.872 1.142-4.701 1.599-8.828 1.923-6.52.512-13.001-.694-19.013-3.203-1.295-.645-2.628-1.219-3.884-1.936a34.053 34.053 0 0 1-9.476-8.052" style="display:inline;fill:none;stroke:#333;stroke-width:.692307;stroke-dasharray:none;stroke-dashoffset:1.02"/><path id="path301" d="M301.358 467.656c1.244 3.01-.826 6.037-2.326 8.534-3.328 5.542-8.888 9.424-14.98 11.57-10.323 3.635-21.84 4.72-32.286 1.494-8.357-2.582-15.505-8.553-17.817-12.254" style="display:inline;fill:none;stroke:#333;stroke-width:.692307;stroke-dasharray:none;stroke-dashoffset:1.02"/><path id="path224" d="M347.03 450.47c1.585 4.023 2.245 8.496 1.091 12.747-1.406 5.182-5.886 8.837-10.758 10.585-6.825 2.45-14.301 2.562-21.397 1.505-5.383-.801-9.721-2.712-12.234-5.4-.472-.507-1.428-1.836-1.409-2.76" style="display:inline;fill:none;stroke:#333;stroke-width:.692307;stroke-dasharray:none;stroke-dashoffset:1.02"/><path id="path214" d="M68.906 70.688c-4.533 2.24-8.08 6.417-9.393 11.32-1.312 4.904.687 10.477 4.542 13.748 2.791 2.368 6.09 4.048 9.78 4.37 6.074.53 12.65-2.867 14.828-8.687 1.455-3.89.198-8.386-2.486-11.48-1.963-2.264-4.555-3.877-7.367-4.847-.218-.075-.429-.171-.642-.258" style="display:inline;fill:#ff0;fill-opacity:1;stroke:#333;stroke-width:.692307;stroke-dasharray:none;stroke-dashoffset:1.02"/><path id="path213" d="M37.116 79.794c-2.108 1.792-3.37 4.425-3.223 7.152.064 1.19.372 2.386 1.01 3.415 1.115 1.8 3.244 2.758 5.402 2.665 1.136-.05 2.038-.208 2.87-.513 2.673-.98 4.003-2.108 5.037-4.497.376-.87.392-2.007.217-2.938-.113-.599-.502-1.643-.829-2.157-1.073-1.687-3.242-2.948-4.994-2.948-1.868 0-3.312.651-3.795 1.169" style="display:inline;fill:#ff0;fill-opacity:1;stroke:#333;stroke-width:.692306;stroke-dasharray:none;stroke-dashoffset:1.02"/><path id="path244" d="M91.856 559.952c-4.92 1.836-10.643.509-14.623-2.896-4.332-3.706-7.403-8.73-8.975-14.17-2.947-10.2-1.579-21.53 3.44-30.852 2.576-4.786 6.326-9.287 11.48-11.355 1.049-.42 2.202-.571 3.332-.497" style="display:inline;fill:none;stroke:#333;stroke-width:.692307;stroke-dasharray:none;stroke-dashoffset:1.02"/><path id="path245" d="M90.97 559.757c-2.367 5.758-.95 13.436 1.444 19.066 1.921 4.517 5.036 9.259 10.688 13.555 8.155 6.197 19.526 9.217 29.804 8.51 6.117-.42 12.645-1.437 17.613-5.282 1.44-1.114 2.554-2.729 2.58-4.604" style="display:inline;fill:none;stroke:#000;stroke-width:.692307;stroke-dasharray:none;stroke-dashoffset:1.02"/><path id="path246" d="M213.934 476.853c-.93-1.355.185-3.065 1.167-4.03 3.631-3.57 8.687-5.222 13.52-6.526 6.615-1.784 13.655-2.076 20.35-.52 5.145 1.195 10.288 3.24 14.235 6.816 1.24 1.123 2.258 2.664 1.85 4.437" style="display:inline;fill:none;stroke:#333;stroke-width:.692307;stroke-dasharray:none;stroke-dashoffset:1.02"/><path id="path247" d="M149.03 475.084c-1.552-3.838 1.075-7.8 3.944-10.181 6.834-5.67 15.76-8.276 24.507-8.937 11.433-.864 23.705 2.614 31.625 11.17 2.25 2.43 4.715 5.223 5.033 8.631.029.306.276.992-.205 1.086" style="display:inline;fill:none;stroke:#333;stroke-width:.692307;stroke-dasharray:none;stroke-dashoffset:1.02"/><path id="path248" d="M84.984 500.527c-3.122-3.244-2.937-8.395-1.466-12.33 2.571-6.876 8.349-12.08 14.406-15.951 9.815-6.272 22.281-7.42 33.493-4.873 6.02 1.367 11.837 3.796 17.016 7.26.303.202.387.768.598.451" style="display:inline;fill:none;stroke:#333;stroke-width:.692307;stroke-dasharray:none;stroke-dashoffset:1.02"/><path id="path249" d="M367.133 474.139c-1.662-.94 1.076-3.695 3.251-5.067 5.383-3.394 10.573-5.384 16.296-7.01 12.506-3.551 25.608-4.144 37.742-.915 7.444 1.98 12.67 5.614 17.077 10.926.977 1.177 2.835 5.128-.123 2.76-.995-.797.006-.966.649-1.081" style="display:inline;fill:none;stroke:#333;stroke-width:.692307;stroke-dasharray:none;stroke-dashoffset:1.02"/><path id="path250" d="M332.55 466.779c-.967-1.37-2.12-2.422-3.438-3.47-2.703-2.145-5.62-3.98-8.81-5.32-3.863-1.36-4.978-1.922-9.099-2.66-7.194-1.288-14.5-.776-21.63.643-2.01.474-4.046.845-6.029 1.42-6.176 1.792-12.46 4.676-16.79 9.595-.69.785-1.282 1.658-1.804 2.563-.426.737-.747 1.534-1.026 2.339-.763 2.201-.904 4.63-.21 6.86" style="display:inline;fill:none;stroke:#333;stroke-width:.692307;stroke-dasharray:none;stroke-dashoffset:1.02"/><path id="path251" d="M366.99 474.044c1.381.184.291-2.326-.403-3.042-3.266-3.37-7.674-5.384-12.188-6.539-6.286-1.608-13.004-2.065-19.305-.447-1.31.337-3.1.8-3.425 2.342-.102.481.047.98.233 1.426" style="display:inline;fill:none;stroke:#333;stroke-width:.692307;stroke-dasharray:none;stroke-dashoffset:1.02"/><path id="path252" d="M543.903 473.465c-4.026-5.095-9.5-9.075-15.103-12.354-14.255-8.343-35.72-9.752-51.492-5.944-12.86 3.106-22.28 7.892-32.32 16.91-1.558 1.4-2.876 3.065-3.971 4.854" style="display:inline;fill:none;stroke:#333;stroke-width:.692307;stroke-dasharray:none;stroke-dashoffset:1.02"/><path id="path253" d="M579.137 482.847c1.304.19-.157-1.9-.542-2.396-1.893-2.44-4.216-4.511-6.57-6.488-5.71-4.794-12.537-7.532-20.97-6.306-2.484.361-5.085 1.29-6.938 3.103-.702.688-.985 1.995-.214 2.705" style="display:inline;fill:none;stroke:#333;stroke-width:.692307;stroke-dasharray:none;stroke-dashoffset:1.02"/><path id="path254" d="M653.8 476.091c2.457.066-1.578-3.767-2.715-4.743-8.3-7.114-19.385-10.783-30.28-10.075-9.854.64-19.724 2.948-28.523 7.48-5.181 2.669-10.343 6.116-13.467 11.168-.557.9-.728 2.302.322 2.926" style="display:inline;fill:none;stroke:#333;stroke-width:.692307;stroke-dasharray:none;stroke-dashoffset:1.02"/><path id="path255" d="M701.19 475.192c1.766-1.99 1.063-5-.031-7.144-2.263-4.43-7.065-6.814-11.758-7.841-8.057-1.765-16.53-.14-23.944 3.2-3.995 1.8-7.885 4.078-10.956 7.233-1.346 1.382-2.624 3.922-.7 5.451" style="display:inline;fill:none;stroke:#333;stroke-width:.692307;stroke-dasharray:none;stroke-dashoffset:1.02"/><path id="path256" d="M761.184 491.644c-.044-.124-.178-.25-.132-.374.214-.585 1.327-1.058 1.708-1.195 2.863-1.032 5.252-.88 8.205-.51 1.294.163 2.566.496 3.813.88 6.66 2.048 13.104 6.094 18.242 10.744a60.122 60.122 0 0 1 4.433 4.48c3.076 3.434 4.669 5.16 7.05 9.092 2.918 4.813 4.996 10.316 5.813 15.895a40 40 0 0 1 .399 5.831c0 1.922-.154 3.846-.412 5.75-.933 6.887-3.53 13.778-8.313 18.938a26.232 26.232 0 0 1-8.423 6.075c-6.087 2.731-13.42 3.466-20 2.849a39.167 39.167 0 0 1-4.515-.728c-1.63-.363-4.227-1.128-6.145-1.978" style="display:inline;fill:none;stroke:#333;stroke-width:.692307;stroke-dasharray:none;stroke-dashoffset:1.02"/><path id="path257" d="M699.243 476.108c4.753-3.026 10.275-4.338 15.727-5.338 7.41-1.358 15.94-1.722 23.811-.52 4.112.628 6.404 1.17 10.293 2.382 4.874 1.519 9.768 3.901 12.852 8.18 1.456 2.02 1.769 3.34 2.013 5.065.24 1.699.076 5.304-2.221 5.824-.175.04-.356-.038-.534-.057" style="display:inline;fill:none;stroke:#333;stroke-width:.692307;stroke-dasharray:none;stroke-dashoffset:1.02"/><path id="path258" d="M789.084 568.568c1.693 1.818 2.149 3.482 2.369 5.921-.06.568-.05 1.147-.182 1.702-.683 2.891-2.895 5.336-5.17 7.123-.694.545-1.46.99-2.19 1.486-6.465 3.362-13.8 4.726-21.01 5.33-1.967.165-3.943.203-5.914.304-7.813 0-15.774.093-23.469-1.502-1.035-.214-2.052-.511-3.078-.767-2.054-.617-4.141-1.312-5.958-2.487-.56-.362-1.1-.722-1.279-1.4-.048-.181.021-.374.032-.562.656-1 1.709-1 2.777-.856" style="display:inline;fill:none;stroke:#333;stroke-width:.692307;stroke-dasharray:none;stroke-dashoffset:1.02"/><path id="path259" d="M610.336 598.21c3.047 1.421 4.212 2.06 7.618 3.17 6.857 2.238 13.984 3.488 21.129 4.357 2.919.269 5.833.591 8.756.806 13.166.97 26.512 1.106 39.549-1.216 2.015-.433 4.043-.809 6.045-1.298 3.342-.817 8.123-2.265 11.358-3.4 3.583-1.256 6.818-2.515 10.158-4.307 1.315-.705 2.547-1.555 3.821-2.332 1.013-.798 2.063-1.55 3.039-2.394 2.61-2.255 4.869-4.922 6.748-7.81" style="display:inline;fill:none;stroke:#333;stroke-width:.692307;stroke-dasharray:none;stroke-dashoffset:1.02"/><path id="path260" d="M602.279 604.272c-.732.528-1.427 1.111-2.195 1.585-3.772 2.323-7.999 3.687-12.239 4.868-1.886.443-3.758.951-5.658 1.33-9.554 1.902-19.446 2.49-29.081.884-3.567-.948-5.206-1.134-8.401-2.895-4.05-2.233-6.743-5.944-8.684-10.04-.275-.914-.628-1.81-.827-2.745-.54-2.536-.329-5.224.754-7.584" style="display:inline;fill:none;stroke:#333;stroke-width:.692307;stroke-dasharray:none;stroke-dashoffset:1.02"/><path id="path261" d="M530.52 593.506c-.55 1.627-.735 2.352-1.54 3.943-1.928 3.81-4.806 6.936-8.26 9.423-3.016 2.082-4.29 3.076-7.585 4.857-5.51 2.978-11.49 5.05-17.648 6.173-1.417.172-2.827.42-4.251.516-6.287.424-12.568-.784-18.266-3.45-4.252-2.127-8.661-4.265-11.92-7.83-.121-.165-.433-.538-.505-.788-.093-.328.309.339.12.527-.574 2.797-3.083 4.766-5.125 6.516-2.251 1.476-3.198 2.257-5.796 3.254-5.132 1.971-10.734 2.232-16.116 1.38-1.3-.357-2.632-.61-3.898-1.07-4.821-1.754-8.86-5.03-11.625-9.322-.929-1.554-.863-1.378-1.636-2.91-.198-.392-.267-.876-.58-1.183-.123-.12-.36.954-.258.445-1.283 3.198-4.416 5.238-7.206 6.996-1.033.496-2.034 1.062-3.097 1.486-6.43 2.568-13.423 3.13-20.205 1.86-6.51-1.717-13.342-3.572-18.276-8.44" style="display:inline;fill:none;stroke:#333;stroke-width:.692307;stroke-dasharray:none;stroke-dashoffset:1.02"/><path id="path262" d="M201.544 600.08c.118 1.907-.925 3.872-2.221 5.267-3.44 3.553-8.304 5.288-13.008 6.433-6.566 1.565-13.513 1.288-19.958-.696-4.94-1.55-10.117-3.746-13.236-8.09-2.276-3.407-2.523-8.146-.42-11.695" style="display:inline;fill:none;stroke:#333;stroke-width:.692307;stroke-dasharray:none;stroke-dashoffset:1.02"/><path id="path263" d="M240.603 596.417c1.357.553 1.004 2.384.53 3.458-1.492 3.817-4.933 6.628-8.826 7.745-6.436 1.973-13.348 1.109-19.76-.522-4.009-1.11-7.995-2.779-11.005-5.735l-.59-.776" style="display:inline;fill:none;stroke:#333;stroke-width:.692307;stroke-dasharray:none;stroke-dashoffset:1.02"/><path id="path264" d="M293.693 603.594c-.97 3.78-4.669 5.822-8.008 7.201-6.633 2.74-14.15 3.256-21.115 1.628-8.445-1.973-16.113-6.854-21.9-13.255-.754-.834-1.731-1.67-2.067-2.751" style="display:inline;fill:none;stroke:#333;stroke-width:.692307;stroke-dasharray:none;stroke-dashoffset:1.02"/><path id="path265" d="M357.648 606.596c-1.926 3.942-6.158 6.022-10.077 7.449-7.796 2.838-16.27 3.18-24.492 2.904-7.712-.258-15.687-1.457-22.463-5.344-3.137-1.8-6.194-4.388-7.255-8.005-.18-.618.5-.544.332-.006" style="display:inline;fill:none;stroke:#333;stroke-width:.692307;stroke-dasharray:none;stroke-dashoffset:1.02"/><path id="path266" d="M809.97 583.579c1.013 2.77 1.825 5.608 1.723 8.595-.081.803-.105 1.613-.242 2.408-.835 4.853-3.288 8.039-7.431 10.598-.915.45-1.805.955-2.746 1.348-5.147 2.147-10.794 2.622-16.312 2.465-1.045-.068-2.093-.102-3.135-.202-4.465-.428-8.87-1.516-13.038-3.166-2.242-1.079-4.453-2.218-6.49-3.657-.238-.125-.627-.255-.431-.565.328-.373.825.39.995.605 1.134 2.331-.37 4.874-1.391 6.965-.421.694-.81 1.408-1.263 2.081-2.996 4.447-6.998 7.94-11.962 10.033-3.393 1.28-4.64 1.855-8.254 2.758-6.338 1.585-12.87 1.94-19.357 1.194-1.468-.226-2.95-.376-4.405-.678-5.344-1.109-10.246-3.495-14.676-6.639-2.336-1.596-4.625-3.257-6.963-4.849-.047-.044-.085-.102-.142-.133-.105-.058.168.168.252.252.307.31.528.675.683 1.082.13.549.265.864.116 1.454-.6 2.364-3.47 3.537-5.21 4.81-2.833 1.493-4.201 2.292-7.3 3.55-7.803 3.164-16.094 4.884-24.459 5.673-2.314.136-4.625.354-6.943.41-11.358.271-22.74-1.41-33.676-4.396-1.85-.647-3.73-1.218-5.552-1.941-5.538-2.197-11.116-5.193-14.493-10.263-.096-.181-1.183-2.458-1.246-2.494-.263-.154-1.348 1.44-1.388 1.414-3.854 4.272-8.445 7.777-13.843 9.888-3.872 1.143-4.701 1.6-8.828 1.923-6.52.512-13.001-.693-19.013-3.202-1.295-.646-2.628-1.22-3.884-1.936a34.053 34.053 0 0 1-9.477-8.052" style="display:inline;fill:none;stroke:#333;stroke-width:.692307;stroke-dasharray:none;stroke-dashoffset:1.02"/><path id="path267" d="M35.344 519.317c-3.872 1.963-7.242 4.913-9.52 8.635-.654 1.07-1.14 2.234-1.71 3.351-.352 1.214-.83 2.399-1.054 3.642-.685 3.81-.064 7.68 1.811 11.074 1.744 3.155 2.77 3.707 5.39 6.124 1.062.748 2.064 1.59 3.186 2.244 3.976 2.323 8.842 3.159 13.378 2.357 1.044-.185 2.048-.551 3.072-.827.993-.463 2.028-.847 2.98-1.39 3.904-2.231 7.202-5.826 8.215-10.314.248-1.103.203-2.252.305-3.377-.185-1.15-.23-2.333-.555-3.452-1.07-3.675-3.496-6.856-6.532-9.137-2.69-2.022-4.051-2.349-7.123-3.604" style="display:inline;fill:none;stroke:#333;stroke-width:.692307;stroke-dasharray:none;stroke-dashoffset:1.02"/><path id="path268" d="M-.324 534.33c-3.355 2.856-5.363 7.053-5.13 11.4.102 1.898.592 3.805 1.607 5.446 1.775 2.87 5.164 4.397 8.598 4.248 1.809-.078 3.244-.33 4.57-.817 4.253-1.562 6.369-3.36 8.014-7.17.599-1.386.625-3.199.346-4.684-.18-.955-.799-2.62-1.32-3.439-1.708-2.689-5.16-4.7-7.947-4.7-2.973 0-5.271 1.039-6.04 1.864" style="display:inline;fill:none;stroke:#333;stroke-width:.692307;stroke-dasharray:none;stroke-dashoffset:1.02"/><path id="path271" d="M1228.626-251.12c-.044-.124-.178-.25-.132-.374.214-.584 1.327-1.057 1.708-1.194 2.863-1.032 5.252-.881 8.205-.51 1.294.162 2.566.495 3.813.879 6.66 2.048 13.104 6.094 18.242 10.744a60.14 60.14 0 0 1 4.433 4.48c3.076 3.434 4.669 5.16 7.05 9.092 2.918 4.814 4.996 10.316 5.812 15.895a40 40 0 0 1 .4 5.831c0 1.922-.154 3.847-.412 5.751-.933 6.886-3.531 13.777-8.313 18.937a26.233 26.233 0 0 1-8.423 6.075c-6.088 2.731-13.421 3.466-20 2.85a39.162 39.162 0 0 1-4.516-.728c-1.63-.364-4.226-1.128-6.144-1.979" style="display:inline;fill:none;stroke:#333;stroke-width:.692307;stroke-dasharray:none;stroke-dashoffset:1.02"/><path id="path272" d="M515.886-368.221c-4.92 2.101-10.643.582-14.623-3.317-4.332-4.242-7.403-9.995-8.975-16.223-2.947-11.679-1.578-24.65 3.44-35.322 2.577-5.48 6.326-10.634 11.48-13.001 1.049-.482 2.202-.654 3.333-.57" style="display:inline;fill:none;stroke:#333;stroke-width:.692307;stroke-dasharray:none;stroke-dashoffset:1.02"/><path id="path273" d="M514.703-369.047c-1.936 5.917.044 13.469 2.847 18.907 2.248 4.363 5.704 8.863 11.658 12.73 8.589 5.579 20.152 7.752 30.35 6.29 6.07-.87 12.504-2.366 17.176-6.567 1.354-1.218 2.346-2.91 2.233-4.781" style="display:inline;fill:none;stroke:#000;stroke-width:.692307;stroke-dasharray:none;stroke-dashoffset:1.02"/><path id="path274" d="M637.964-459.994c-.93-1.355.185-3.065 1.168-4.03 3.63-3.57 8.686-5.222 13.52-6.526 6.614-1.783 13.654-2.076 20.348-.52 5.147 1.195 10.289 3.24 14.237 6.816 1.24 1.123 2.257 2.664 1.85 4.437" style="display:inline;fill:none;stroke:#333;stroke-width:.692307;stroke-dasharray:none;stroke-dashoffset:1.02"/><path id="path275" d="M573.061-461.763c-1.553-3.838 1.074-7.8 3.943-10.18 6.834-5.67 15.76-8.277 24.507-8.938 11.433-.864 23.705 2.614 31.625 11.17 2.25 2.43 4.715 5.224 5.034 8.631.028.307.275.992-.206 1.086" style="display:inline;fill:none;stroke:#333;stroke-width:.692307;stroke-dasharray:none;stroke-dashoffset:1.02"/><path id="path276" d="M509.014-436.32c-3.121-3.244-2.936-8.394-1.465-12.33 2.57-6.876 8.348-12.08 14.405-15.951 9.815-6.272 22.282-7.42 33.493-4.873 6.02 1.367 11.837 3.796 17.016 7.26.303.202.387.768.598.451" style="display:inline;fill:none;stroke:#333;stroke-width:.692307;stroke-dasharray:none;stroke-dashoffset:1.02"/><path id="path277" d="M791.164-462.708c-1.662-.94 1.075-3.695 3.25-5.067 5.383-3.394 10.573-5.384 16.296-7.01 12.506-3.551 25.609-4.143 37.743-.915 7.444 1.98 12.669 5.614 17.076 10.926.977 1.177 2.835 5.128-.123 2.76-.994-.797.01-.966.65-1.081" style="display:inline;fill:none;stroke:#333;stroke-width:.692307;stroke-dasharray:none;stroke-dashoffset:1.02"/><path id="path278" d="M756.58-470.068c-.966-1.37-2.119-2.422-3.438-3.47-2.702-2.145-5.619-3.98-8.81-5.32-3.863-1.36-4.977-1.922-9.098-2.66-7.195-1.288-14.5-.776-21.63.643-2.01.474-4.046.845-6.03 1.42-6.175 1.793-12.46 4.676-16.79 9.596-.69.784-1.282 1.658-1.804 2.562-.426.737-.747 1.535-1.025 2.339-.764 2.202-.905 4.63-.21 6.86" style="display:inline;fill:none;stroke:#333;stroke-width:.692307;stroke-dasharray:none;stroke-dashoffset:1.02"/><path id="path279" d="M791.02-462.803c1.381.184.291-2.326-.402-3.042-3.267-3.37-7.675-5.384-12.189-6.539-6.285-1.608-13.004-2.065-19.305-.446-1.31.336-3.1.799-3.425 2.34-.102.482.048.98.233 1.427" style="display:inline;fill:none;stroke:#333;stroke-width:.692307;stroke-dasharray:none;stroke-dashoffset:1.02"/><path id="path280" d="M967.934-463.382c-4.026-5.095-9.501-9.075-15.104-12.354-14.255-8.343-35.72-9.752-51.491-5.943-12.86 3.105-22.281 7.891-32.32 16.91-1.559 1.4-2.876 3.064-3.972 4.853" style="display:inline;fill:none;stroke:#333;stroke-width:.692307;stroke-dasharray:none;stroke-dashoffset:1.02"/><path id="path281" d="M1003.168-454c1.304.19-.157-1.9-.542-2.396-1.894-2.439-4.216-4.511-6.57-6.488-5.71-4.794-12.538-7.531-20.971-6.306-2.484.361-5.085 1.29-6.937 3.103-.703.688-.986 1.995-.214 2.705" style="display:inline;fill:none;stroke:#333;stroke-width:.692307;stroke-dasharray:none;stroke-dashoffset:1.02"/><path id="path282" d="M1077.83-460.755c2.458.065-1.577-3.768-2.715-4.743-8.3-7.115-19.384-10.784-30.28-10.076-9.853.641-19.724 2.948-28.523 7.48-5.18 2.669-10.343 6.116-13.466 11.168-.557.901-.728 2.302.322 2.926" style="display:inline;fill:none;stroke:#333;stroke-width:.692307;stroke-dasharray:none;stroke-dashoffset:1.02"/><path id="path283" d="M1125.221-461.655c1.766-1.99 1.063-5-.032-7.144-2.262-4.43-7.065-6.814-11.758-7.841-8.057-1.765-16.529-.14-23.944 3.2-3.994 1.8-7.884 4.078-10.956 7.233-1.346 1.382-2.623 3.922-.7 5.452" style="display:inline;fill:none;stroke:#333;stroke-width:.692307;stroke-dasharray:none;stroke-dashoffset:1.02"/><path id="path284" d="M1185.149-444.96c.762-2.79 5.103-3.166 7.665-3.199 8.891-.112 17.367 4.258 24.388 9.74 7.562 5.907 14.322 13.428 17.814 22.839 4.152 11.192 3.89 24.558-1.864 35.07-4.728 8.635-14.026 13.015-23.083 14.118-5.178.631-10.48.365-15.474-1.264" style="display:inline;fill:none;stroke:#333;stroke-width:.692305;stroke-dasharray:none;stroke-dashoffset:1.02"/><path id="path285" d="M1123.273-460.74c4.754-3.025 10.276-4.337 15.727-5.337 7.41-1.358 15.94-1.722 23.812-.52 4.112.628 6.403 1.17 10.293 2.382 4.873 1.519 9.768 3.901 12.851 8.18 1.457 2.02 1.77 3.34 2.013 5.065.24 1.699.076 5.304-2.221 5.824-.174.04-.356-.038-.534-.057" style="display:inline;fill:none;stroke:#333;stroke-width:.692307;stroke-dasharray:none;stroke-dashoffset:1.02"/><path id="path286" d="M1064.41-292.795c.106 3.08 1.123 5.305 2.994 8.325.528.642 1.008 1.336 1.586 1.925 3.012 3.069 6.936 4.778 10.358 5.67 1.044.271 2.066.387 3.099.58 8.28.495 15.611-1.859 22.195-5.047 1.797-.87 3.493-1.895 5.24-2.843 6.585-4.233 13.371-8.438 18.512-14.504.692-.817 1.298-1.72 1.947-2.581 1.212-1.847 2.385-3.805 2.926-6.187.167-.734.319-1.454-.102-2.357-.112-.242-.334-.434-.501-.651-1.396-.835-2.282-.264-3.062.487" style="display:inline;fill:none;stroke:#333;stroke-width:.692307;stroke-dasharray:none;stroke-dashoffset:1.02"/><path id="path287" d="M1034.367-338.637c3.047 1.421 4.211 2.06 7.617 3.17 6.857 2.238 13.984 3.488 21.13 4.357 2.918.269 5.833.591 8.756.806 13.165.97 26.512 1.106 39.548-1.216 2.015-.433 4.043-.809 6.045-1.298 3.343-.817 8.124-2.265 11.359-3.4 3.583-1.256 6.818-2.515 10.157-4.306 1.316-.706 2.548-1.556 3.822-2.333 1.013-.798 2.063-1.55 3.038-2.393 2.611-2.256 4.87-4.923 6.748-7.81" style="display:inline;fill:none;stroke:#333;stroke-width:.692307;stroke-dasharray:none;stroke-dashoffset:1.02"/><path id="path288" d="M1061.9-254.887c-.731.528-1.426 1.111-2.195 1.585-3.771 2.323-7.998 3.687-12.238 4.868-1.886.443-3.758.951-5.658 1.33-9.555 1.902-19.446 2.49-29.082.884-3.567-.948-5.205-1.134-8.4-2.895-4.05-2.233-6.744-5.944-8.684-10.04-.276-.914-.628-1.81-.828-2.745-.54-2.536-.328-5.224.754-7.584" style="display:inline;fill:none;stroke:#333;stroke-width:.692307;stroke-dasharray:none;stroke-dashoffset:1.02"/><path id="path289" d="M832.724-335.625c.715 0-.072 1.615-.28 2.09-1.386 3.156-3.983 5.872-6.355 7.57-1.272.912-5.612 3.699-13.134 4.321-5.83.483-11.74-.31-15.91-1.835-4.862-1.78-10.552-5.413-12.98-8.82" style="display:inline;fill:none;stroke:#333;stroke-width:.692307;stroke-dasharray:none;stroke-dashoffset:1.02"/><path id="path290" d="M877.65-333.176c.43.991-.735 2.831-1.563 3.774a24.118 24.118 0 0 1-12.587 7.518 33.015 33.015 0 0 1-13.835.193c-6.952-1.388-13-6.141-16.262-12.405-.328-.63-.509-1.333-.95-1.888" style="display:inline;fill:none;stroke:#333;stroke-width:.692307;stroke-dasharray:none;stroke-dashoffset:1.02"/><path id="path291" d="M947.356-346.02c-.418 5.6-5.727 13.128-11.217 16.748-8.567 5.647-18.396 8.45-29.835 8.24-7.525-.138-14.85-1.957-21.279-5.727-2.799-1.642-5.799-3.681-7.643-6.417" style="display:inline;fill:none;stroke:#333;stroke-width:.692307;stroke-dasharray:none;stroke-dashoffset:1.02"/><path id="path292" d="M627.87-336.767c.118 1.907-.924 3.872-2.22 5.267-3.44 3.553-8.305 5.288-13.009 6.433-6.565 1.565-13.512 1.288-19.957-.696-4.94-1.55-10.117-3.746-13.236-8.09-2.277-3.407-2.524-8.146-.42-11.695" style="display:inline;fill:none;stroke:#333;stroke-width:.692307;stroke-dasharray:none;stroke-dashoffset:1.02"/><path id="path293" d="M667.62-340.43c1.227.553.443 2.384-.284 3.458-2.391 3.817-6.493 6.628-10.649 7.746-6.9 1.972-13.61 1.108-19.637-.523-3.748-1.11-7.341-2.779-9.655-5.735l-.408-.776" style="display:inline;fill:none;stroke:#333;stroke-width:.692307;stroke-dasharray:none;stroke-dashoffset:1.02"/><path id="path294" d="M720.402-333.253c-.97 3.78-4.668 5.822-8.008 7.201-6.633 2.74-16.992 3.323-23.956 1.696-8.445-1.973-14.895-6.043-19.735-12.308-.688-.89-1.46-2.28-1.12-3.63" style="display:inline;fill:none;stroke:#333;stroke-width:.692307;stroke-dasharray:none;stroke-dashoffset:1.02"/><path id="path295" d="M784.805-331.464c-.82 3.192-4.754 6.293-8.273 7.783-6.998 2.962-15.375 4.105-23.672 3.977-7.784-.12-16.094-1.54-23.96-5.287-3.64-1.735-7.424-4.258-9.5-7.839-.353-.611.349-.55.331-.011" style="display:inline;fill:none;stroke:#333;stroke-width:.692307;stroke-dasharray:none;stroke-dashoffset:1.02"/><path id="path296" d="M1222.902-295.48c1.013 2.77 1.826 5.607 1.723 8.595-.08.802-.105 1.613-.242 2.408-.835 4.852-3.288 8.038-7.43 10.598-.916.449-1.806.955-2.747 1.348-5.146 2.147-10.794 2.622-16.312 2.464-1.045-.067-2.092-.102-3.135-.201-4.465-.429-8.87-1.516-13.037-3.167-2.243-1.078-4.453-2.218-6.49-3.657-.239-.125-.628-.255-.432-.564.329-.373.826.39.996.605 1.133 2.33-.37 4.874-1.392 6.965-.421.693-.81 1.408-1.263 2.08-2.995 4.447-6.998 7.941-11.962 10.034-3.392 1.28-4.64 1.854-8.254 2.758-6.338 1.584-12.87 1.94-19.356 1.193-1.469-.226-2.95-.375-4.405-.677-5.345-1.11-10.247-3.495-14.677-6.64-2.336-1.595-4.625-3.256-6.963-4.848-.047-.045-.085-.102-.142-.134-.104-.057.168.169.252.253.307.31.529.674.683 1.082.13.549.266.864.116 1.454-.6 2.364-3.47 3.537-5.21 4.81-2.833 1.493-4.2 2.292-7.3 3.55-7.802 3.164-16.094 4.884-24.458 5.673-2.315.136-4.626.353-6.944.409-11.358.272-22.74-1.409-33.675-4.396-1.851-.647-3.73-1.217-5.553-1.94-5.538-2.198-11.116-5.193-14.493-10.263-.096-.181-1.183-2.458-1.245-2.495-.263-.153-1.349 1.44-1.389 1.415-3.854 4.272-8.445 7.776-13.843 9.888-3.872 1.143-4.701 1.6-8.828 1.923-6.52.512-13.001-.694-19.013-3.202-1.295-.646-2.628-1.22-3.884-1.937a34.052 34.052 0 0 1-9.476-8.051" style="display:inline;fill:none;stroke:#333;stroke-width:.692307;stroke-dasharray:none;stroke-dashoffset:1.02"/><path id="path297" d="M460.463-415.425c-3.028 1.535-5.663 3.841-7.445 6.752-.512.837-.892 1.747-1.337 2.62-.275.95-.65 1.876-.824 2.848a13.032 13.032 0 0 0 1.416 8.66c1.363 2.466 2.166 2.898 4.215 4.788.83.585 1.614 1.243 2.492 1.755 3.109 1.816 6.914 2.47 10.462 1.843.816-.145 1.601-.431 2.402-.647.777-.362 1.586-.662 2.33-1.088 3.054-1.744 5.633-4.554 6.425-8.064.194-.862.16-1.76.239-2.64-.145-.9-.18-1.825-.435-2.7-.836-2.873-2.733-5.36-5.108-7.145-2.104-1.58-3.168-1.836-5.57-2.817" style="display:inline;fill:none;stroke:#333;stroke-width:.692307;stroke-dasharray:none;stroke-dashoffset:1.02"/><path id="path298" d="M428.673-406.32c-2.108 1.792-3.37 4.425-3.223 7.152.064 1.19.372 2.386 1.01 3.415 1.115 1.8 3.244 2.758 5.402 2.665 1.136-.049 2.038-.207 2.871-.513 2.673-.98 4.002-2.108 5.036-4.496.376-.87.393-2.007.217-2.939-.112-.599-.501-1.643-.829-2.157-1.073-1.686-3.242-2.948-4.993-2.948-1.868 0-3.312.652-3.795 1.169" style="display:inline;fill:none;stroke:#333;stroke-width:.692306;stroke-dasharray:none;stroke-dashoffset:1.02"/><path id="path299" d="M1270.556-498.015c-.044-.125-.178-.25-.132-.374.214-.585 1.328-1.058 1.708-1.195 2.863-1.032 5.253-.88 8.205-.51 1.294.162 2.567.496 3.814.879 6.66 2.048 13.103 6.095 18.241 10.744a60.124 60.124 0 0 1 4.433 4.48c3.076 3.435 4.669 5.161 7.051 9.093 2.917 4.813 4.995 10.315 5.812 15.895.282 1.927.401 3.883.4 5.83 0 1.923-.155 3.847-.413 5.751-.933 6.887-3.53 13.778-8.312 18.937a26.228 26.228 0 0 1-8.423 6.075c-6.088 2.732-13.421 3.466-20 2.85a39.162 39.162 0 0 1-4.516-.728c-1.63-.363-4.226-1.128-6.145-1.978" style="display:inline;fill:none;stroke:#333;stroke-width:.692307;stroke-dasharray:none;stroke-dashoffset:1.02"/><path id="path305" d="M1224.925-198.064c.762-2.791 5.103-3.167 7.665-3.2 8.891-.112 17.367 4.258 24.387 9.741 7.563 5.907 14.323 13.427 17.814 22.838 4.153 11.193 3.891 24.558-1.864 35.07-4.727 8.635-14.026 13.016-23.082 14.119-.771.094-1.546.168-2.321.22" style="display:inline;fill:none;stroke:#333;stroke-width:.692305;stroke-dasharray:none;stroke-dashoffset:1.02"/><path id="path306" d="M616.842 449.94c-4.92 2.102-10.643.582-14.623-3.317-4.332-4.242-7.403-9.995-8.975-16.223-2.947-11.678-1.579-24.65 3.44-35.322 2.576-5.48 6.326-10.634 11.48-13 1.049-.483 2.202-.655 3.332-.57" style="display:inline;fill:none;stroke:#333;stroke-width:.692307;stroke-dasharray:none;stroke-dashoffset:1.02"/><path id="path307" d="M615.658 449.114c-1.935 5.917.045 13.47 2.847 18.907 2.249 4.363 5.705 8.863 11.658 12.73 8.59 5.579 20.153 7.752 30.35 6.29 6.07-.87 12.505-2.366 17.176-6.567 1.355-1.217 2.346-2.91 2.233-4.781" style="display:inline;fill:none;stroke:#000;stroke-width:.692307;stroke-dasharray:none;stroke-dashoffset:1.02"/><path id="path308" d="M738.92 358.167c-.93-1.355.185-3.064 1.167-4.03 3.631-3.569 8.687-5.222 13.52-6.525 6.615-1.784 13.655-2.076 20.349-.521 5.146 1.195 10.289 3.24 14.236 6.816 1.24 1.123 2.258 2.664 1.85 4.437" style="display:inline;fill:none;stroke:#333;stroke-width:.692307;stroke-dasharray:none;stroke-dashoffset:1.02"/><path id="path309" d="M674.017 356.399c-1.553-3.838 1.074-7.802 3.943-10.182 6.834-5.67 15.76-8.275 24.506-8.936 11.434-.865 23.706 2.613 31.625 11.169 2.25 2.43 4.715 5.224 5.034 8.632.028.306.275.99-.205 1.085" style="display:inline;fill:none;stroke:#333;stroke-width:.692307;stroke-dasharray:none;stroke-dashoffset:1.02"/><path id="path310" d="M609.97 381.841c-3.122-3.244-2.937-8.394-1.466-12.329 2.571-6.877 8.349-12.081 14.405-15.952 9.815-6.272 22.282-7.42 33.494-4.873 6.02 1.368 11.837 3.796 17.016 7.26.303.203.387.768.598.452" style="display:inline;fill:none;stroke:#333;stroke-width:.692307;stroke-dasharray:none;stroke-dashoffset:1.02"/><path id="path311" d="M892.12 355.453c-1.663-.94 1.074-3.695 3.25-5.066 5.383-3.395 10.573-5.384 16.296-7.01 12.506-3.552 25.608-4.144 37.742-.916 7.444 1.98 12.67 5.614 17.077 10.926.976 1.177 2.834 5.129-.123 2.76-.995-.797.01-.965.649-1.08" style="display:inline;fill:none;stroke:#333;stroke-width:.692307;stroke-dasharray:none;stroke-dashoffset:1.02"/><path id="path312" d="M857.536 348.093c-.967-1.37-2.12-2.421-3.438-3.469-2.703-2.145-5.62-3.98-8.81-5.321-3.864-1.36-4.978-1.921-9.099-2.66-7.194-1.287-14.5-.776-21.63.644-2.01.473-4.046.845-6.029 1.42-6.176 1.792-12.46 4.675-16.79 9.595-.69.784-1.282 1.658-1.805 2.563-.425.737-.746 1.534-1.025 2.338-.764 2.202-.904 4.63-.21 6.86" style="display:inline;fill:none;stroke:#333;stroke-width:.692307;stroke-dasharray:none;stroke-dashoffset:1.02"/><path id="path313" d="M891.976 355.358c1.381.184.29-2.326-.403-3.041-3.266-3.371-7.674-5.385-12.188-6.54-6.286-1.608-13.004-2.065-19.305-.446-1.31.336-3.1.8-3.425 2.341-.102.482.048.98.233 1.427" style="display:inline;fill:none;stroke:#333;stroke-width:.692307;stroke-dasharray:none;stroke-dashoffset:1.02"/><path id="path314" d="M1068.89 354.78c-4.027-5.096-9.502-9.076-15.104-12.355-14.255-8.343-35.72-9.752-51.492-5.943-12.86 3.105-22.28 7.892-32.32 16.91-1.558 1.4-2.876 3.064-3.972 4.853" style="display:inline;fill:none;stroke:#333;stroke-width:.692307;stroke-dasharray:none;stroke-dashoffset:1.02"/><path id="path315" d="M1104.123 364.161c1.304.19-.157-1.9-.542-2.396-1.893-2.439-4.216-4.511-6.57-6.488-5.71-4.793-12.538-7.531-20.97-6.305-2.484.36-5.085 1.289-6.938 3.103-.702.687-.985 1.995-.214 2.705" style="display:inline;fill:none;stroke:#333;stroke-width:.692307;stroke-dasharray:none;stroke-dashoffset:1.02"/><path id="path316" d="M1178.786 357.406c2.457.065-1.578-3.768-2.715-4.743-8.3-7.115-19.385-10.784-30.28-10.075-9.854.64-19.724 2.948-28.523 7.48-5.181 2.668-10.343 6.116-13.467 11.167-.557.901-.727 2.303.322 2.926" style="display:inline;fill:none;stroke:#333;stroke-width:.692307;stroke-dasharray:none;stroke-dashoffset:1.02"/><path id="path317" d="M1226.177 356.506c1.766-1.99 1.062-5-.032-7.144-2.262-4.43-7.065-6.813-11.758-7.84-8.057-1.765-16.53-.141-23.944 3.2-3.994 1.799-7.885 4.077-10.956 7.232-1.346 1.383-2.624 3.922-.7 5.452" style="display:inline;fill:none;stroke:#333;stroke-width:.692307;stroke-dasharray:none;stroke-dashoffset:1.02"/><path id="path318" d="M1286.104 373.201c.763-2.79 5.103-3.166 7.666-3.198 8.891-.113 17.085 3.556 24.387 8.658 7.292 5.094 15.405 14.917 19.025 24.28 4.694 12.139 4.115 25.25-1.64 35.763-4.727 8.634-14.6 13.11-23.656 14.214-2.68.326-5.851.072-7.2-.736" style="display:inline;fill:none;stroke:#333;stroke-width:.692305;stroke-dasharray:none;stroke-dashoffset:1.02"/><path id="path319" d="M1224.229 357.422c4.753-3.026 10.276-4.338 15.727-5.337 7.41-1.359 15.94-1.723 23.811-.52 4.112.627 6.404 1.169 10.294 2.381 4.873 1.52 9.767 3.902 12.851 8.18 1.456 2.02 1.769 3.34 2.013 5.065.24 1.7.076 5.304-2.221 5.824-.175.04-.356-.037-.534-.056" style="display:inline;fill:none;stroke:#333;stroke-width:.692307;stroke-dasharray:none;stroke-dashoffset:1.02"/><path id="path320" d="M1305.354 450.983c3.026 5.32 2.457 12.277-.473 17.55-2.576 4.638-6.61 8.06-11.127 10.347-10.603 5.366-20.83 6.588-30.62 5.6-6.363-.643-12.883-2.585-18.392-6.343-2.307-1.573-4.169-4.766-.935-3.96" style="display:inline;fill:none;stroke:#333;stroke-width:.692307;stroke-dasharray:none;stroke-dashoffset:1.02"/><path id="path321" d="M1175.57 477.758c3.795 7.08 13.356 12.078 22.578 14.349 8.75 2.155 21.005 1.206 29.534-2.257 5.465-2.22 10.826-5.354 14.204-10.563 1.313-2.024 3.233-4.85 1.892-5.075" style="display:inline;fill:none;stroke:#333;stroke-width:.692307;stroke-dasharray:none;stroke-dashoffset:1.02"/><path id="path322" d="M933.68 482.536c.715 0-.072 1.615-.281 2.09-1.386 3.156-3.983 5.872-6.355 7.571-1.271.911-5.612 3.698-13.134 4.32-5.83.483-11.74-.31-15.909-1.835-4.863-1.78-10.552-5.413-12.98-8.819" style="display:inline;fill:none;stroke:#333;stroke-width:.692307;stroke-dasharray:none;stroke-dashoffset:1.02"/><path id="path323" d="M978.605 484.985c.43.992-.735 2.832-1.562 3.774a24.118 24.118 0 0 1-12.588 7.518 33.015 33.015 0 0 1-13.835.193c-6.951-1.387-13-6.14-16.261-12.405-.329-.63-.51-1.332-.95-1.888" style="display:inline;fill:none;stroke:#333;stroke-width:.692307;stroke-dasharray:none;stroke-dashoffset:1.02"/><path id="path324" d="M1048.51 477.2c-.794 5.559-6.597 12.713-12.319 15.956-8.926 5.058-18.922 7.194-30.32 6.215-7.5-.644-14.685-2.952-20.846-7.146-2.683-1.826-5.539-4.063-7.195-6.916" style="display:inline;fill:none;stroke:#333;stroke-width:.692307;stroke-dasharray:none;stroke-dashoffset:1.02"/><path id="path325" d="M728.826 481.394c.118 1.907-.925 3.872-2.221 5.267-3.44 3.553-8.304 5.288-13.008 6.434-6.566 1.564-13.512 1.287-19.958-.697-4.94-1.55-10.117-3.746-13.236-8.09-2.276-3.407-2.523-8.146-.42-11.694" style="display:inline;fill:none;stroke:#333;stroke-width:.692307;stroke-dasharray:none;stroke-dashoffset:1.02"/><path id="path326" d="M768.575 477.731c1.227.553.443 2.385-.283 3.458-2.392 3.817-6.494 6.628-10.65 7.746-6.9 1.972-13.609 1.108-19.636-.522-3.748-1.112-7.342-2.78-9.655-5.736l-.408-.775" style="display:inline;fill:none;stroke:#333;stroke-width:.692307;stroke-dasharray:none;stroke-dashoffset:1.02"/><path id="path327" d="M821.358 484.908c-.97 3.78-4.669 5.822-8.008 7.202-6.633 2.74-16.992 3.323-23.957 1.695-8.445-1.973-14.895-6.042-19.735-12.308-.687-.89-1.46-2.28-1.12-3.63" style="display:inline;fill:none;stroke:#333;stroke-width:.692307;stroke-dasharray:none;stroke-dashoffset:1.02"/><path id="path328" d="M885.76 486.698c-.819 3.191-4.753 6.292-8.272 7.782-6.998 2.962-15.375 4.106-23.673 3.977-7.783-.12-16.094-1.54-23.959-5.287-3.641-1.735-7.425-4.258-9.5-7.839-.354-.61.348-.55.33-.011" style="display:inline;fill:none;stroke:#333;stroke-width:.692307;stroke-dasharray:none;stroke-dashoffset:1.02"/><path id="path329" d="M1105.906 479.45c1.762 2.274-1.21 5.484-2.68 6.467-7.989 6.45-18.013 7.925-27.188 7.54-7.016-.294-14.664-1.782-20.211-5.464-3.317-2.202-7.706-6.602-7.65-10.035" style="display:inline;fill:none;stroke:#333;stroke-width:.692305;stroke-dasharray:none;stroke-dashoffset:1.02"/><path id="path330" d="M561.419 402.736c-3.028 1.535-5.663 3.842-7.445 6.753-.512.836-.892 1.746-1.338 2.62-.274.95-.649 1.875-.823 2.848a13.032 13.032 0 0 0 1.415 8.658c1.364 2.468 2.166 2.899 4.216 4.79.83.584 1.614 1.242 2.491 1.754 3.11 1.816 6.915 2.47 10.462 1.843.817-.145 1.602-.431 2.403-.646.776-.363 1.586-.663 2.33-1.088 3.053-1.745 5.632-4.555 6.424-8.065.195-.862.16-1.76.24-2.64-.146-.9-.18-1.825-.435-2.7-.836-2.873-2.734-5.36-5.108-7.144-2.104-1.581-3.168-1.837-5.57-2.818" style="display:inline;fill:none;stroke:#333;stroke-width:.692307;stroke-dasharray:none;stroke-dashoffset:1.02"/><path id="path331" d="M529.629 411.842c-2.108 1.791-3.37 4.424-3.223 7.151.063 1.19.372 2.386 1.01 3.415 1.115 1.8 3.244 2.758 5.401 2.665 1.137-.049 2.039-.207 2.872-.512 2.672-.98 4.002-2.108 5.035-4.497.377-.87.393-2.007.218-2.938-.113-.6-.502-1.643-.829-2.158-1.073-1.686-3.242-2.948-4.994-2.948-1.868 0-3.312.652-3.795 1.17" style="display:inline;fill:none;stroke:#333;stroke-width:.692306;stroke-dasharray:none;stroke-dashoffset:1.02"/><path id="path332" d="M1105.48 479.869c5.329 5.661 12.856 9.5 22.386 11.54 9.044 1.937 22.658 2.03 31.473-1.082 5.648-1.994 11.189-4.405 14.68-9.084 1.357-1.82 3.342-4.358 1.956-4.56" style="display:inline;fill:none;stroke:#333;stroke-width:.692307;stroke-dasharray:none;stroke-dashoffset:1.02"/><path id="path339" d="M1068.563 55.334c-1.131-.084-2.284.087-3.334.57-5.153 2.367-8.903 7.52-11.48 13-5.018 10.672-6.386 23.644-3.439 35.322 1.572 6.228 4.643 11.981 8.975 16.224 3.98 3.898 9.702 5.418 14.623 3.316l-1.184-.826c-1.935 5.917.044 13.47 2.847 18.908 2.249 4.363 5.705 8.862 11.659 12.73 8.589 5.578 20.152 7.752 30.35 6.29 6.07-.871 12.504-2.367 17.176-6.567 1.354-1.218 2.824-3.245 2.047-4.695-2.67 2.535-1.675 5.165.666 8.528 3.056 4.39 8.297 6.54 13.237 8.09 6.445 1.984 13.392 2.262 19.957.697 4.704-1.146 9.568-2.88 13.008-6.434 1.296-1.394 2.34-3.36 2.221-5.266-.576-.676-.751-.15-.883.507l.408.775c2.314 2.957 5.907 4.625 9.655 5.736 6.027 1.63 12.737 2.494 19.637.522 4.155-1.118 8.258-3.928 10.649-7.745.726-1.074 1.51-2.906.265-3.39-.36 1.418.414 2.807 1.102 3.698 4.84 6.265 11.29 10.334 19.735 12.308 6.964 1.627 17.323 1.044 23.956-1.696 3.34-1.38 7.279-3.377 7.79-6.843.077-.514-1.137-.547-.783.065 2.075 3.58 5.858 6.103 9.5 7.838 7.865 3.748 16.175 5.167 23.959 5.287 8.297.129 16.674-1.015 23.672-3.977 3.519-1.49 8.536-5.537 8.476-8.763l-.943.147c2.428 3.405 8.117 7.038 12.98 8.818 4.169 1.526 10.08 2.318 15.91 1.836 7.521-.622 11.862-3.41 13.134-4.32 2.371-1.7 4.968-4.416 6.354-7.571.209-.476.996-2.09.145-2.27-.405.207.176 1.453.51 2.08 3.16 5.926 9.615 10.646 16.566 12.034 4.55.908 9.315.853 13.835-.193a24.118 24.118 0 0 0 12.588-7.519c.827-.942 1.993-2.782 1.562-3.773-.307-.104-.718-.658-.775.323 1.657 2.854 4.512 5.09 7.195 6.916 6.16 4.194 13.347 6.502 20.846 7.146 11.398.98 21.394-1.157 30.32-6.215 4.976-2.82 10.013-8.598 11.444-13.494l-.613.975c-.05 3.433 3.822 7.833 6.748 10.035 4.893 3.682 11.638 5.17 17.826 5.464 8.093.386 18.761-.611 25.893-6.965 1.215-1.083 3.888-5.006 2.101-7.474-.753-1.041-.862-.12-.61.22 5.543 6.247 13.373 10.484 23.287 12.736 9.408 2.137 23.57 2.24 32.74-1.195 5.875-2.2 11.638-4.861 15.27-10.026 1.411-2.007 3.476-4.809 2.035-5.033l-.422 1.188c3.948 7.812 13.894 13.329 23.487 15.835 9.102 2.379 21.85 1.331 30.722-2.49 5.685-2.45 11.262-5.91 14.776-11.657 1.365-2.235 1.266-2.917-.05-3.187-1.676 1.026.59 2.975 2.943 5.013 3.946 3.418 11.746 6.38 17.959 7.098 9.56 1.106 19.546-.262 29.899-6.268 4.41-2.558 8.35-6.388 10.865-11.58 2.617-5.398 3.644-12.526.998-18.078-.245-.513-1.384-1.322-1.642-.005-.262 1.338 1.467.93 2.013.846 5.39-.834 11.822-5.624 15.872-11.474 7.41-10.704 10.486-24.456 8.446-37.506-1.574-10.065-7.259-20.887-13.09-26.688-5.84-5.808-12.788-10.165-21.12-10.587-2.402-.121-7.082.224-7.797 2.81-.015.1.358.12.533.079 2.297-.541 2.462-4.292 2.221-6.06-.244-1.794-.557-3.167-2.013-5.269-3.084-4.451-7.978-6.93-12.852-8.51-3.889-1.262-6.18-1.825-10.293-2.479-7.872-1.25-16.4-.871-23.811.542-4.74.904-9.535 2.055-13.83 4.41l.931.517c.52-1.797-.085-3.915-.912-5.536-2.262-4.431-7.065-6.814-11.758-7.842-8.057-1.764-16.53-.14-23.944 3.2-3.994 1.8-7.885 4.079-10.956 7.233-1.346 1.383-3.01 4.611-.7 5.452 2.309.841-1.579-3.768-2.716-4.743-8.3-7.115-19.384-10.784-30.28-10.075-9.854.64-19.724 2.948-28.523 7.48-5.181 2.668-10.343 6.116-13.466 11.167-.558.901-.633 2.111-.031 2.294.988.526.98-.534.651-1.068-.936-1.524-4.004-5.016-6.358-6.992-5.71-4.794-13.135-8.034-21.568-6.808-2.484.361-4.99 1.361-6.842 3.175-.702.687-1.679 2.401-1.17 3.255l.406-.311c-4.026-5.096-9.5-9.076-15.104-12.355-14.254-8.342-35.72-9.751-51.49-5.943-12.86 3.106-22.282 7.892-32.32 16.91-1.56 1.4-2.065 2.32-2.65 3.212 1.707 1.625 1.012-1.314-.84-3.217-4.223-4.338-9.882-7.814-17.212-10.182-11.255-3.634-24.966-3.38-36.728-.098-5.73 1.599-11.792 3.886-17.175 7.28-2.176 1.371-4.913 4.127-3.323 5.019 1.31.137.22-2.374-.474-3.09-3.266-3.37-7.896-5.749-12.38-7.017-5.855-1.656-11.951-2.017-17.678-.59-1.312.327-3.578 1.326-4.286 2.054-.343.353-.67 1.171-.485 1.618l.792-.288c-2.786-3.594-6.778-6.068-10.772-8.126-8.326-3.903-17.785-4.772-26.829-3.56-8.996 1.293-18.352 3.467-25.567 9.336-3.51 2.856-6.318 7.168-6.112 11.74.04.855.654 1.435 1.418 1.219 1.11-.315.028-3.672-1.211-4.794-3.948-3.576-9.09-5.622-14.237-6.817-6.694-1.555-13.734-1.263-20.348.521-4.834 1.304-9.89 2.956-13.52 6.525-.983.966-2.097 2.675-1.167 4.03.768-2.873-1.63-5.75-3.336-7.955-6.123-7.91-16.122-12.072-25.928-12.884-9.378-.776-19.433.578-27.829 5.598-3.908 2.337-7.505 6.683-8.405 10.382-.343 1.413-.536 2.26-.217 3.158l.614-.656c-.232-.276-.34-.303-.602-.52-4.479-3.7-9.685-6.312-15.214-7.806-10.295-2.782-23.039-2.489-33.085 4.055-6.2 4.037-11.993 9.995-14.583 17.647-1.455 4.297-1.97 9.79.588 13.242" style="display:inline;fill:#ff0;stroke:#333;stroke-width:.692307;stroke-dasharray:none;stroke-dashoffset:1.02"/></g><g id="grid" style="display:inline"><path id="path32" d="M163.732 120.262a8.97 8.97 0 0 0 1.308-.226 6.367 6.367 0 0 0 1.308-.487c.437-.22.873-.508 1.309-.892a8.606 8.606 0 0 0 1.308-1.477c.437-.612.873-1.354 1.309-2.259.436-.905.872-1.974 1.308-3.232a61.162 61.162 0 0 0 1.309-4.354 119.89 119.89 0 0 0 1.308-5.535c.436-2.038.873-4.265 1.309-6.643.436-2.377.872-4.904 1.308-7.512.436-2.608.872-5.296 1.309-7.969.436-2.673.872-5.33 1.308-7.861.436-2.53.872-4.934 1.309-7.096.436-2.163.872-4.083 1.308-5.665.436-1.582.872-2.824 1.308-3.66.437-.836.873-1.266 1.309-1.266.436 0 .872.43 1.308 1.266.437.836.873 2.078 1.309 3.66.436 1.582.872 3.502 1.308 5.665.436 2.162.873 4.565 1.309 7.096.436 2.53.872 5.188 1.308 7.861.436 2.673.873 5.361 1.309 7.97.436 2.607.872 5.134 1.308 7.511.436 2.378.872 4.605 1.309 6.643a119.89 119.89 0 0 0 1.308 5.535 61.162 61.162 0 0 0 1.309 4.354 30.49 30.49 0 0 0 1.308 3.232c.436.905.872 1.647 1.308 2.259a8.606 8.606 0 0 0 1.309 1.477c.436.384.872.671 1.308.892.437.221.873.375 1.309.487.436.112.872.18 1.308.226" style="fill:#cfeef5;fill-opacity:1;stroke:none;stroke-width:.346153;stroke-dasharray:none"/><path id="path5" d="M153.513 137.57V33.81" class="grid"/><path id="path6" d="M184.667 122.01v-88.2" class="grid"/><path id="path7" d="M215.82 137.57V33.81" class="grid"/><path id="path26" d="M138.075 85.734h93.323" class="grid"/><path id="path27" d="M138.075 51.118h93.323" class="grid"/><path id="path69" d="M-168.252-170.684a8.972 8.972 0 0 0 1.309-.226 6.367 6.367 0 0 0 1.308-.487c.436-.22.872-.508 1.309-.893a8.606 8.606 0 0 0 1.308-1.476c.436-.612.872-1.354 1.309-2.26a30.49 30.49 0 0 0 1.308-3.231 61.162 61.162 0 0 0 1.308-4.354 119.89 119.89 0 0 0 1.309-5.535c.436-2.038.872-4.266 1.308-6.643.437-2.377.873-4.904 1.309-7.512.436-2.608.872-5.296 1.308-7.969.436-2.673.873-5.33 1.309-7.861.436-2.531.872-4.934 1.308-7.096.436-2.163.873-4.084 1.309-5.666.436-1.581.872-2.823 1.308-3.66.436-.836.872-1.265 1.309-1.265.436 0 .872.43 1.308 1.265.436.837.872 2.079 1.309 3.66.436 1.582.872 3.503 1.308 5.666.436 2.162.872 4.565 1.308 7.096.437 2.53.873 5.188 1.309 7.861.436 2.673.872 5.361 1.308 7.969.437 2.608.873 5.135 1.309 7.512.436 2.377.872 4.605 1.308 6.643a119.89 119.89 0 0 0 1.309 5.535 61.162 61.162 0 0 0 1.308 4.354 30.49 30.49 0 0 0 1.309 3.232c.436.905.872 1.647 1.308 2.259a8.606 8.606 0 0 0 1.309 1.476c.436.385.872.672 1.308.893.436.22.872.375 1.309.487.436.111.872.18 1.308.226" style="fill:#cfeef5;fill-opacity:1;stroke:none;stroke-width:.346153;stroke-dasharray:none"/><path id="path70" d="M-178.47-84.059v-173.076" class="grid"/><path id="path71" d="M-147.316-84.059v-69.054m0-15.823v-88.2" class="grid"/><path id="path72" d="M-116.163-84.059v-173.076" class="grid"/><path id="path73" d="M-193.909-101.366h93.323" class="grid"/><path id="path74" d="M-193.909-135.982h93.323" class="grid" style="fill:#fea"/><path id="path75" d="M-193.909-205.212h93.323" class="grid"/><path id="path76" d="M-193.909-239.828h93.323" class="grid"/><path id="path96" d="M17.269-221.2a8.972 8.972 0 0 0 1.308-.227 6.367 6.367 0 0 0 1.309-.486c.436-.221.872-.509 1.308-.893a8.606 8.606 0 0 0 1.308-1.477c.437-.611.873-1.353 1.309-2.258.436-.906.872-1.975 1.308-3.233a61.172 61.172 0 0 0 1.309-4.354c.436-1.648.872-3.496 1.308-5.534.436-2.038.873-4.266 1.309-6.643.436-2.377.872-4.905 1.308-7.512.436-2.608.873-5.296 1.309-7.97.436-2.672.872-5.33 1.308-7.86.436-2.531.872-4.934 1.309-7.097.436-2.162.872-4.083 1.308-5.665.436-1.582.872-2.824 1.309-3.66.436-.836.872-1.266 1.308-1.266.436 0 .872.43 1.308 1.266.437.836.873 2.078 1.309 3.66.436 1.582.872 3.503 1.308 5.665.437 2.163.873 4.566 1.309 7.096.436 2.531.872 5.189 1.308 7.862.436 2.673.873 5.36 1.309 7.969a489.95 489.95 0 0 0 1.308 7.512 232.72 232.72 0 0 0 1.309 6.643c.436 2.038.872 3.886 1.308 5.534a61.167 61.167 0 0 0 1.309 4.354 30.493 30.493 0 0 0 1.308 3.233c.436.905.872 1.647 1.309 2.258a8.606 8.606 0 0 0 1.308 1.477c.436.384.872.672 1.308.893.437.22.873.375 1.309.486.436.112.872.181 1.308.226" style="fill:#cfeef5;fill-opacity:1;stroke:none;stroke-width:.346153;stroke-dasharray:none"/><path id="path97" d="M7.05-169.19v-138.462" class="grid"/><path id="path98" d="M38.204-169.19v-34.44m0-15.822v-88.2" class="grid"/><path id="path99" d="M69.358-169.19v-138.462" class="grid"/><path id="path100" d="M-8.388-186.498h93.323" class="grid" style="fill:#fea"/><path id="path101" d="M-8.388-255.729h93.323" class="grid"/><path id="path102" d="M-8.388-290.344h93.323" class="grid"/><path id="path121" d="M136.67-120.502a8.972 8.972 0 0 0 1.31-.226 6.368 6.368 0 0 0 1.308-.487c.436-.22.872-.508 1.308-.892a8.606 8.606 0 0 0 1.309-1.477c.436-.612.872-1.354 1.308-2.26.436-.904.872-1.973 1.308-3.231a61.174 61.174 0 0 0 1.309-4.354c.436-1.648.872-3.497 1.308-5.535.437-2.038.873-4.266 1.309-6.643.436-2.377.872-4.904 1.308-7.512.436-2.608.873-5.296 1.309-7.969.436-2.673.872-5.33 1.308-7.861.436-2.531.872-4.934 1.309-7.096.436-2.163.872-4.084 1.308-5.665.436-1.582.872-2.824 1.309-3.66.436-.837.872-1.266 1.308-1.266.436 0 .872.43 1.308 1.265.437.837.873 2.079 1.309 3.66.436 1.582.872 3.503 1.308 5.666.437 2.162.873 4.565 1.309 7.096.436 2.53.872 5.188 1.308 7.861.436 2.673.873 5.361 1.309 7.969a489.93 489.93 0 0 0 1.308 7.512c.436 2.377.873 4.605 1.309 6.643.436 2.038.872 3.887 1.308 5.535a61.168 61.168 0 0 0 1.309 4.354 30.492 30.492 0 0 0 1.308 3.232c.436.905.872 1.647 1.309 2.259a8.606 8.606 0 0 0 1.308 1.477c.436.384.872.671 1.308.892.437.22.873.375 1.309.487.436.111.872.18 1.308.226" style="fill:#cfeef5;fill-opacity:1;stroke:none;stroke-width:.346153;stroke-dasharray:none"/><path id="path122" d="M126.452-68.492v-138.461" class="grid"/><path id="path123" d="M157.606-68.492v-34.439m0-15.823v-88.2" class="grid"/><path id="path124" d="M188.76-68.492v-138.461" class="grid"/><path id="path125" d="M111.014-85.8h93.323" class="grid" style="fill:#fea"/><path id="path126" d="M111.014-155.03h93.323" class="grid"/><path id="path127" d="M111.014-189.646h93.323" class="grid"/><path id="path146" d="m360.919 120.262-15.438-69.144-15.647 69.231" style="fill:#cfeef5;fill-opacity:1;stroke:none;stroke-width:.346153;stroke-dasharray:none"/><path id="path147" d="M314.258 137.57V33.81" class="grid"/><path id="path148" d="M345.411 122.01v-88.2" class="grid"/><path id="path149" d="M376.565 137.57V33.81" class="grid"/><path id="path150" d="M298.82 85.734h93.322" class="grid"/><path id="path151" d="M298.82 51.118h93.322" class="grid"/><path id="path174" d="M490.648 120.262V51.118h15.577v69.231" style="fill:#cfeef5;fill-opacity:1;stroke:none;stroke-width:.346153;stroke-dasharray:none"/><path id="path175" d="M475.002 137.57V33.81" class="grid"/><path id="path176" d="M506.156 122.01v-88.2" class="grid"/><path id="path177" d="M537.31 137.57V33.81" class="grid"/><path id="path178" d="M459.563 85.734h93.323" class="grid"/><path id="path179" d="M459.563 51.118h93.323" class="grid"/><path id="path183" d="M635.746 120.262V85.69l31.223.044v34.615" style="fill:#cfeef5;fill-opacity:1;stroke:none;stroke-width:.346153;stroke-dasharray:none"/><path id="path184" d="M635.746 137.57V33.81" class="grid"/><path id="path185" d="M666.9 122.01v-88.2" class="grid"/><path id="path186" d="M698.054 137.57V33.81" class="grid"/><path id="path187" d="M620.308 85.734h93.323" class="grid"/><path id="path188" d="M620.308 51.118h93.323" class="grid"/><path id="path360" d="M345.411 225.434h31.154" style="fill:#ff0;fill-opacity:1;stroke:#000;stroke-width:.692307;stroke-dasharray:none;stroke-dashoffset:1.02"/></g><g id="axes" style="display:inline"><path id="path28" d="M138.075 120.35h93.323" class="axes"/><path id="path77" d="M-193.909-170.597h93.323" class="axes"/><path id="path103" d="M-8.388-221.113h93.323" class="axes"/><path id="path128" d="M111.014-120.415h93.323" class="axes"/><path id="path152" d="M298.82 120.35h93.322" class="axes"/><path id="path180" d="M459.563 120.35h93.323" class="axes"/><path id="path189" d="M620.308 120.35h93.323" class="axes"/></g><g id="notch labels" style="display:inline;stroke:none;fill:#b8b8de"><g id="g39" transform="matrix(.01252 0 0 -.01252 176.658 133.627)"><use xlink:href="#MJMAIN-2212" id="use38" x="0" y="0"/><use xlink:href="#MJMAIN-36" id="use39" x="778" y="0"/></g><g id="g78" transform="matrix(.01252 0 0 -.01252 -155.326 -157.32)"><use xlink:href="#MJMAIN-2212" id="use77" x="0" y="0"/><use xlink:href="#MJMAIN-36" id="use78" x="778" y="0"/></g><g id="g104" transform="matrix(.01252 0 0 -.01252 30.195 -207.836)"><use xlink:href="#MJMAIN-2212" id="use103" x="0" y="0"/><use xlink:href="#MJMAIN-36" id="use104" x="778" y="0"/></g><g id="g129" transform="matrix(.01252 0 0 -.01252 149.597 -107.137)"><use xlink:href="#MJMAIN-2212" id="use128" x="0" y="0"/><use xlink:href="#MJMAIN-36" id="use129" x="778" y="0"/></g><g id="g153" transform="matrix(.01252 0 0 -.01252 337.402 133.627)"><use xlink:href="#MJMAIN-2212" id="use152" x="0" y="0"/><use xlink:href="#MJMAIN-36" id="use153" x="778" y="0"/></g><g id="g181" transform="matrix(.01252 0 0 -.01252 498.146 133.627)"><use xlink:href="#MJMAIN-2212" id="use180" x="0" y="0"/><use xlink:href="#MJMAIN-36" id="use181" x="778" y="0"/></g><g id="g190" transform="matrix(.01252 0 0 -.01252 658.89 133.627)"><use xlink:href="#MJMAIN-2212" id="use189" x="0" y="0"/><use xlink:href="#MJMAIN-36" id="use190" x="778" y="0"/></g></g><g id="graphs" style="display:inline"><path id="path192" d="M635.746 120.35V85.733H666.9v34.615" style="fill:none;stroke:#000;stroke-width:1.17692;stroke-dasharray:1.17692,1.17692;stroke-dashoffset:.706153"/><path id="path191" d="M651.393 120.35V85.733" style="fill:none;stroke:#000;stroke-width:1.17692;stroke-dasharray:1.17692,1.17692;stroke-dashoffset:0"/><path id="path61" d="M137.936 120.35H161.115c.436-.001.872-.001 1.308-.012.436-.01.872-.031 1.309-.076a8.97 8.97 0 0 0 1.308-.226 6.367 6.367 0 0 0 1.308-.487c.437-.22.873-.508 1.309-.892a8.606 8.606 0 0 0 1.308-1.477c.437-.612.873-1.354 1.309-2.259.436-.905.872-1.974 1.308-3.232a61.162 61.162 0 0 0 1.309-4.354 119.89 119.89 0 0 0 1.308-5.535c.436-2.038.873-4.265 1.309-6.643.436-2.377.872-4.904 1.308-7.512.436-2.608.872-5.296 1.309-7.969.436-2.673.872-5.33 1.308-7.861.436-2.53.872-4.934 1.309-7.096.436-2.163.872-4.083 1.308-5.665.436-1.582.872-2.824 1.308-3.66.437-.836.873-1.266 1.309-1.266.436 0 .872.43 1.308 1.266.437.836.873 2.078 1.309 3.66.436 1.582.872 3.502 1.308 5.665.436 2.162.873 4.565 1.309 7.096.436 2.53.872 5.188 1.308 7.861.436 2.673.873 5.361 1.309 7.97.436 2.607.872 5.134 1.308 7.511.436 2.378.872 4.605 1.309 6.643a119.89 119.89 0 0 0 1.308 5.535 61.162 61.162 0 0 0 1.309 4.354 30.49 30.49 0 0 0 1.308 3.232c.436.905.872 1.647 1.308 2.259a8.606 8.606 0 0 0 1.309 1.477c.436.384.872.672 1.308.892.437.221.873.375 1.309.487.436.112.872.18 1.308.226.436.045.873.066 1.309.076.436.01.872.01 1.308.011H231.398" style="fill:none;stroke:red;stroke-width:1.17692;stroke-dasharray:none;stroke-dashoffset:0"/><path id="path78" d="M-168.252-170.684a8.972 8.972 0 0 0 1.309-.226 6.367 6.367 0 0 0 1.308-.487c.436-.22.872-.508 1.309-.893a8.606 8.606 0 0 0 1.308-1.476c.436-.612.872-1.354 1.309-2.26a30.49 30.49 0 0 0 1.308-3.231 61.162 61.162 0 0 0 1.308-4.354 119.89 119.89 0 0 0 1.309-5.535c.436-2.038.872-4.266 1.308-6.643.437-2.377.873-4.904 1.309-7.512.436-2.608.872-5.296 1.308-7.969.436-2.673.873-5.33 1.309-7.861.436-2.531.872-4.934 1.308-7.096.436-2.163.873-4.084 1.309-5.666.436-1.581.872-2.823 1.308-3.66.436-.836.872-1.265 1.309-1.265.436 0 .872.43 1.308 1.265.436.837.872 2.079 1.309 3.66.436 1.582.872 3.503 1.308 5.666.436 2.162.872 4.565 1.308 7.096.437 2.53.873 5.188 1.309 7.861.436 2.673.872 5.361 1.308 7.969.437 2.608.873 5.135 1.309 7.512.436 2.377.872 4.605 1.308 6.643a119.89 119.89 0 0 0 1.309 5.535 61.162 61.162 0 0 0 1.308 4.354 30.49 30.49 0 0 0 1.309 3.232c.436.905.872 1.647 1.308 2.259a8.606 8.606 0 0 0 1.309 1.476c.436.385.872.672 1.308.893.436.22.872.375 1.309.487.436.111.872.18 1.308.226" style="fill:none;stroke:red;stroke-width:1.17692;stroke-dasharray:none"/><path id="path79" d="M-126.381-170.684c.436.045.872.065 1.308.076.437.01.873.01 1.309.01h23.178" style="fill:none;stroke:red;stroke-width:1.21154;stroke-dasharray:none"/><path id="path80" d="M-194.047-170.597h23.178c.436 0 .873 0 1.309-.011.436-.01.872-.031 1.308-.076" style="fill:none;stroke:red;stroke-width:1.21154;stroke-dasharray:none"/><path id="path104" d="M17.269-221.2a8.972 8.972 0 0 0 1.308-.227 6.367 6.367 0 0 0 1.309-.486c.436-.221.872-.509 1.308-.893a8.606 8.606 0 0 0 1.308-1.477c.437-.611.873-1.353 1.309-2.258.436-.906.872-1.975 1.308-3.233a61.172 61.172 0 0 0 1.309-4.354c.436-1.648.872-3.496 1.308-5.534.436-2.038.873-4.266 1.309-6.643.436-2.377.872-4.905 1.308-7.512.436-2.608.873-5.296 1.309-7.97.436-2.672.872-5.33 1.308-7.86.436-2.531.872-4.934 1.309-7.097.436-2.162.872-4.083 1.308-5.665.436-1.582.872-2.824 1.309-3.66.436-.836.872-1.266 1.308-1.266.436 0 .872.43 1.308 1.266.437.836.873 2.078 1.309 3.66.436 1.582.872 3.503 1.308 5.665.437 2.163.873 4.566 1.309 7.096.436 2.531.872 5.189 1.308 7.862.436 2.673.873 5.36 1.309 7.969a489.95 489.95 0 0 0 1.308 7.512 232.72 232.72 0 0 0 1.309 6.643c.436 2.038.872 3.886 1.308 5.534a61.167 61.167 0 0 0 1.309 4.354 30.493 30.493 0 0 0 1.308 3.233c.436.905.872 1.647 1.309 2.258a8.606 8.606 0 0 0 1.308 1.477c.436.384.872.672 1.308.893.437.22.873.375 1.309.486.436.112.872.181 1.308.226" style="fill:none;stroke:red;stroke-width:1.17692;stroke-dasharray:none"/><path id="path105" d="M59.14-221.2c.436.044.872.065 1.308.076.436.01.872.01 1.308.01H84.935" style="fill:none;stroke:red;stroke-width:1.21154;stroke-dasharray:none"/><path id="path106" d="M-8.527-221.113H14.652c.436 0 .872-.001 1.308-.011.436-.01.872-.032 1.309-.077" style="fill:none;stroke:red;stroke-width:1.21154;stroke-dasharray:none"/><path id="path129" d="M136.67-120.502a8.972 8.972 0 0 0 1.31-.226 6.368 6.368 0 0 0 1.308-.487c.436-.22.872-.508 1.308-.892a8.606 8.606 0 0 0 1.309-1.477c.436-.612.872-1.354 1.308-2.26.436-.904.872-1.973 1.308-3.231a61.174 61.174 0 0 0 1.309-4.354c.436-1.648.872-3.497 1.308-5.535.437-2.038.873-4.266 1.309-6.643.436-2.377.872-4.904 1.308-7.512.436-2.608.873-5.296 1.309-7.969.436-2.673.872-5.33 1.308-7.861.436-2.531.872-4.934 1.309-7.096.436-2.163.872-4.084 1.308-5.665.436-1.582.872-2.824 1.309-3.66.436-.837.872-1.266 1.308-1.266.436 0 .872.43 1.308 1.265.437.837.873 2.079 1.309 3.66.436 1.582.872 3.503 1.308 5.666.437 2.162.873 4.565 1.309 7.096.436 2.53.872 5.188 1.308 7.861.436 2.673.873 5.361 1.309 7.969a489.93 489.93 0 0 0 1.308 7.512c.436 2.377.873 4.605 1.309 6.643.436 2.038.872 3.887 1.308 5.535a61.168 61.168 0 0 0 1.309 4.354 30.492 30.492 0 0 0 1.308 3.232c.436.905.872 1.647 1.309 2.259a8.606 8.606 0 0 0 1.308 1.477c.436.384.872.671 1.308.892.437.22.873.375 1.309.487.436.111.872.18 1.308.226" style="fill:none;stroke:#000;stroke-width:1.17692;stroke-dasharray:1.17692,1.17692;stroke-dashoffset:0"/><path id="path130" d="M178.541-120.502c.437.045.873.065 1.309.076.436.01.872.01 1.308.01H204.337" style="fill:none;stroke:red;stroke-width:1.21154;stroke-dasharray:none"/><path id="path131" d="M110.875-120.415H134.054c.436 0 .872 0 1.308-.011.436-.01.873-.031 1.309-.076" style="fill:none;stroke:red;stroke-width:1.21154;stroke-dasharray:none"/><path id="path153" d="m329.904 120.262 15.577-69.144 15.438 69.231" style="fill:none;stroke:#000;stroke-width:1.17692;stroke-dasharray:1.17692,1.17692;stroke-dashoffset:0"/><path id="path181" d="m490.648 120.262 15.577-69.144v69.231" style="fill:none;stroke:#000;stroke-width:1.17692;stroke-dasharray:1.17692,1.17692;stroke-dashoffset:0"/><path id="path182" d="M490.648 120.35V51.117h15.577" style="fill:none;stroke:#000;stroke-width:1.17692;stroke-dasharray:1.17692,1.17692;stroke-dashoffset:0"/><path id="path193" d="m643.535 120.305 7.788-34.571" style="fill:none;stroke:#000;stroke-width:1.17692;stroke-dasharray:1.17692,1.17692;stroke-dashoffset:0"/><path id="path190" d="m651.393 120.262 7.788-34.572" style="fill:none;stroke:#000;stroke-width:1.17692;stroke-dasharray:1.17692,1.17692;stroke-dashoffset:0"/><path id="use1" stroke-width=".013" d="M253.22 83.742q0-1.656.687-2.988.686-1.333 1.696-2.06 1.01-.726 1.978-1.13.97-.404 1.696-.404h.323q.242 0 .404-.04 1.574 0 2.947.606 1.373.605 3.916 2.22l2.02 1.292q2.381 1.413 4.44 1.413 2.261 0 3.876-1.17 1.615-1.171 1.817-3.19 0-.444.162-.808.161-.363.403-.363.566 0 .566 1.252 0 2.664-1.898 4.602-1.898 1.938-4.845 1.979-1.655 0-3.513-.848-1.857-.848-3.23-1.898-1.372-1.05-3.23-1.897-1.857-.848-3.391-.889-2.423 0-3.997 1.333-1.575 1.332-1.696 3.028-.08 1.17-.565 1.17-.565 0-.565-1.21zm0 9.447q0-1.655.687-2.987.686-1.333 1.696-2.06 1.01-.726 1.978-1.13.97-.404 1.696-.404h.323q.242 0 .404-.04 1.574 0 2.947.605 1.373.606 3.916 2.221l2.02 1.292q2.381 1.413 4.44 1.413 2.261 0 3.876-1.17 1.615-1.172 1.817-3.19 0-1.171.565-1.171.566 0 .566 1.292 0 2.584-1.898 4.562-1.898 1.979-4.845 1.979-1.655 0-3.513-.848-1.857-.848-3.23-1.898-1.372-1.05-3.23-1.898-1.857-.847-3.391-.888-2.423 0-3.997 1.333-1.575 1.332-1.696 3.028-.121 1.17-.565 1.17-.565 0-.565-1.21z"/><path id="use2" stroke-width=".013" d="M413.728 82.696q0-.525.565-.807h25.719q.605.323.605.807 0 .444-.565.767l-12.84.04h-12.838q-.646-.201-.646-.807zm0 7.833q0-.606.646-.807h25.678q.565.403.565.807 0 .525-.605.808h-25.72q-.564-.283-.564-.808z"/><path id="use3" stroke-width=".013" d="m789.405-173.798-.525.202q-.565.202-1.615.404t-2.342.282h-.767v-1.857h.767q1.898-.08 3.513-.606 1.615-.524 2.26-.969.647-.444 1.131-.888.081-.121.485-.121.363 0 .686.242v12.072l.04 12.113q.283.282.485.363.201.08.969.162.767.08 2.503.08h1.05v1.858h-.445q-.847-.122-6.42-.122-5.49 0-6.338.122h-.484v-1.858h2.584q.645 0 1.009-.04.363-.04.646-.121.283-.081.323-.081.04 0 .242-.202.202-.202.242-.161z"/><path id="path195" stroke-width=".013" d="M573.928 82.696q0-.525.565-.807h25.72q.605.323.605.807 0 .444-.566.767l-12.839.04h-12.839q-.646-.201-.646-.807zm0 7.833q0-.606.646-.807h25.678q.566.403.566.807 0 .525-.606.808h-25.719q-.565-.283-.565-.808z"/><path id="path196" stroke-width=".013" d="M743.291 82.696q0-.525.565-.807h25.719q.606.323.606.807 0 .444-.566.767l-12.839.04h-12.839q-.646-.201-.646-.807zm0 7.833q0-.606.646-.807h25.678q.566.403.566.807 0 .525-.606.808h-25.719q-.565-.283-.565-.808z"/><text xml:space="preserve" id="text196" x="801.198" y="94.176" style="font-size:21.8527px;font-family:sans-serif;-inkscape-font-specification:sans-serif;text-align:center;text-anchor:middle;fill:#000;stroke:none;stroke-width:1.17692;stroke-dasharray:1.17692,1.17692;stroke-dashoffset:.706153"><tspan id="tspan196" x="801.198" y="94.176" style="font-style:normal;font-variant:normal;font-weight:400;font-stretch:normal;font-family:Baskerville;-inkscape-font-specification:Baskerville;fill:#000;stroke:none;stroke-width:.295684">1</tspan></text><path id="path218" d="M118.41 47.153" style="fill:none;stroke:#333;stroke-width:.692307;stroke-dasharray:none;stroke-dashoffset:1.02"/><path id="path216" d="M123.755 106.923" style="fill:none;stroke:#333;stroke-width:.692307;stroke-dasharray:none;stroke-dashoffset:1.02"/><path id="path215" d="M123.755 106.924" style="fill:none;stroke:#333;stroke-width:.692307;stroke-dasharray:none;stroke-dashoffset:1.02"/><path id="path220" d="M122.869 106.728" style="fill:#333;stroke:#333;stroke-width:.692307;stroke-dasharray:none;stroke-dashoffset:1.02"/><path id="path219" d="M117.456 49.794" style="fill:none;stroke:#333;stroke-width:.692307;stroke-dasharray:none;stroke-dashoffset:1.02"/></g><g id="layer1" style="display:inline"><path id="path43" d="M138.075 120.35h21.334" style="fill:#000;fill-opacity:0;stroke:#d000d0;stroke-width:3.46153;stroke-dasharray:none;stroke-opacity:1"/><path id="path39" d="M209.925 120.35h21.473" style="fill:#000;fill-opacity:0;stroke:#d000d0;stroke-width:3.46153;stroke-dasharray:none;stroke-opacity:1"/><path id="path58" d="M159.744 114.68v11.335" style="fill:#f0f;stroke:#b0b;stroke-width:1.03846;stroke-dasharray:none;stroke-opacity:1"/><path id="path57" d="M209.59 114.68v11.335" style="fill:#f0f;stroke:#b0b;stroke-width:1.03846;stroke-dasharray:none;stroke-opacity:1"/><path id="path81" d="M-193.909-170.597h21.335" style="fill:#000;fill-opacity:0;stroke:#d000d0;stroke-width:3.46153;stroke-dasharray:none;stroke-opacity:1"/><path id="path82" d="M-122.058-170.597h21.472" style="fill:#000;fill-opacity:0;stroke:#d000d0;stroke-width:3.46153;stroke-dasharray:none;stroke-opacity:1"/><path id="path83" d="M-172.24-176.267v11.336" style="fill:#f0f;stroke:#b0b;stroke-width:1.03846;stroke-dasharray:none;stroke-opacity:1"/><path id="path84" d="M-122.393-176.267v11.336" style="fill:#f0f;stroke:#b0b;stroke-width:1.03846;stroke-dasharray:none;stroke-opacity:1"/><path id="path107" d="M-8.388-221.113h21.334" style="fill:#000;fill-opacity:0;stroke:#d000d0;stroke-width:3.46153;stroke-dasharray:none;stroke-opacity:1"/><path id="path108" d="M63.462-221.113h21.473" style="fill:#000;fill-opacity:0;stroke:#d000d0;stroke-width:3.46153;stroke-dasharray:none;stroke-opacity:1"/><path id="path109" d="M13.28-226.783v11.336" style="fill:#f0f;stroke:#b0b;stroke-width:1.03846;stroke-dasharray:none;stroke-opacity:1"/><path id="path110" d="M63.127-226.783v11.336" style="fill:#f0f;stroke:#b0b;stroke-width:1.03846;stroke-dasharray:none;stroke-opacity:1"/><path id="path132" d="M111.014-120.415h21.334" style="fill:#000;fill-opacity:0;stroke:#d000d0;stroke-width:3.46153;stroke-dasharray:none;stroke-opacity:1"/><path id="path133" d="M182.864-120.415h21.473" style="fill:#000;fill-opacity:0;stroke:#d000d0;stroke-width:3.46153;stroke-dasharray:none;stroke-opacity:1"/><path id="path134" d="M132.683-126.085v11.336" style="fill:#f0f;stroke:#b0b;stroke-width:1.03846;stroke-dasharray:none;stroke-opacity:1"/><path id="path135" d="M182.53-126.085v11.336" style="fill:#f0f;stroke:#b0b;stroke-width:1.03846;stroke-dasharray:none;stroke-opacity:1"/></g><g id="layer2" style="display:inline"><text xml:space="preserve" id="text354" x="267.134" y="70.648" style="font-style:normal;font-variant:normal;font-weight:400;font-stretch:normal;font-size:4px;font-family:&quot;Song Myung&quot;;-inkscape-font-specification:&quot;Song Myung&quot;;fill:none;stroke:#000;stroke-width:1.1;stroke-dasharray:none;stroke-opacity:.381503"/><path id="path85" d="M-161.393-155.06v12.295h-21.693v-12.295h4.675l6.172-6.926 6.17 6.926z" style="fill:#fff2bd;stroke:#1a1a1a;stroke-width:.761538;stroke-dasharray:none;stroke-opacity:.661631"/><g id="g90" style="stroke-width:1.24017" transform="matrix(.55858 0 0 .55788 -274.49 -236.133)"><path id="path86" stroke-width=".014" d="M167.774 157.676v-.186c0-.125.067-.22.2-.288h8.236c.144.077.216.173.216.288 0 .115-.072.21-.216.287h-8.235c-.134-.067-.201-.163-.201-.287z" style="stroke:#000;stroke-width:.248035;stroke-dasharray:none;stroke-opacity:1"/><g id="g89" style="stroke-width:1.24017" transform="matrix(.01436 0 0 -.01436 177.755 161.08)"><path id="path87" stroke-width="1.24" d="M34.456 313q0 163 81 258t180 95q69 0 99-36t30-80q0-25-14-40t-39-15q-23 0-38 14t-15 39q0 44 47 53-22 22-62 25-71 0-117-60-47-66-47-202l1-4q5 6 8 13 41 60 107 60h4q46 0 81-19 24-14 48-40t39-57q21-49 21-107v-18q0-23-5-43-11-59-64-115t-134-56q-28 0-54 8t-56 30q-30 22-51 59t-36 97q-15 60-14 141zm215 84q-30 0-52-17t-34-45q-12-28-17-57t-6-62q0-83 12-119t38-58q24-18 53-18 51 0 78 38 13 18 18 45t5 105q0 80-5 107t-18 45q-27 36-72 36z"/><path id="path88" stroke-width="1.24" d="M570.456 60q0 24 17 42t43 18q24 0 42-16t19-43q0-25-17-43t-43-18q-26 0-43 17t-18 43z"/><path id="path89" stroke-width="1.24" d="M841.456 417v77q0 77 54 124t124 48q71 0 126-42t55-109q0-30-11-56t-26-42q-15-16-31-28t-26-18q-10-6-11-8l14-9 28-20q14-10 16-11 75-59 75-149 0-79-58-137t-150-59q-90 0-148 51t-58 126q0 108 129 180l-18 13q-21 13-27 20-57 49-57 126zm216-31 6 4 9 6q3 2 10 7t12 10q5 5 11 12t11 13q5 6 10 16t9 17q4 7 5 20t2 22q0 43-29 73t-67 38q-7 1-33 1-41 0-77-26t-37-65q0-23 13-42t26-29q13-10 50-32 7-5 11-7zm-36-365q58 0 100 34t42 82q0 17-5 32t-12 25q-7 10-22 22t-23 18q-8 6-29 19t-27 17q-14 9-30 19t-26 17l-8 5q-6 0-29-17t-48-55q-25-38-26-82 0-59 43-97t100-39z"/></g></g><path id="path90" d="M-111.547-155.06v12.295h-21.693v-12.295h4.675l6.172-6.926 6.17 6.926z" style="fill:#fff2bd;stroke:#1a1a1a;stroke-width:.761538;stroke-dasharray:none;stroke-opacity:.661631"/><g id="g94" style="stroke-width:1.2351" transform="matrix(.56029 0 0 .56077 -285.256 -236.751)"><path id="path91" stroke-width=".014" d="M275.863 157.973v-.187c0-.124.067-.22.201-.287h8.236c.143.077.215.173.215.287 0 .115-.072.211-.215.288h-8.236c-.134-.067-.2-.163-.2-.288z" style="stroke:#000;stroke-width:.247019;stroke-dasharray:none;stroke-opacity:1"/><path id="path92" d="M288.077 159.122a.78.78 0 0 1-.23.574.762.762 0 0 1-.56.23h-.1c.44.757 1.024 1.135 1.751 1.135.67 0 1.159-.287 1.465-.862.182-.316.273-.929.273-1.838 0-.986-.13-1.652-.388-1.996-.249-.316-.526-.474-.833-.474h-.086c-.747 0-1.311.325-1.694.976-.039.067-.072.106-.1.115-.03.01-.101.02-.216.029-.163 0-.254-.029-.273-.086-.02-.039-.029-.876-.029-2.514v-1.852c0-.479.024-.718.072-.718.019-.02.038-.029.057-.029.01 0 .11.038.302.115.191.077.455.153.79.23.335.076.694.115 1.077.115.68 0 1.33-.134 1.953-.402a.447.447 0 0 1 .187-.058c.076 0 .115.086.115.259v.186c-.785.93-1.767 1.393-2.944 1.393a3.45 3.45 0 0 1-.805-.086l-.143-.028v2.47l.43-.316c.106-.077.278-.153.518-.23.239-.077.483-.115.732-.115.775 0 1.431.311 1.967.934.537.622.805 1.359.805 2.211 0 .88-.307 1.633-.92 2.255a3.075 3.075 0 0 1-2.24.948c-.775 0-1.398-.259-1.867-.776-.469-.517-.703-1.1-.703-1.752 0-.23.052-.412.158-.546a.73.73 0 0 1 .33-.258c.115-.038.225-.058.33-.058.24 0 .436.082.589.245a.81.81 0 0 1 .23.574z" style="font-size:20px;font-family:Baskerville;-inkscape-font-specification:Baskerville;stroke-width:0"/><path id="path93" d="M294.022 160.515c0-.23.082-.43.244-.603a.813.813 0 0 1 .618-.259c.23 0 .43.077.603.23a.829.829 0 0 1 .273.618c0 .239-.081.445-.244.617a.813.813 0 0 1-.618.259.837.837 0 0 1-.617-.244.888.888 0 0 1-.259-.618z" style="font-size:20px;font-family:Baskerville;-inkscape-font-specification:Baskerville;stroke-width:0"/><path id="path94" d="M298.474 155.216c-.258 0-.464-.086-.617-.259a.917.917 0 0 1-.23-.632c0-.68.254-1.268.761-1.766.508-.498 1.14-.747 1.896-.747.871 0 1.599.268 2.183.804.584.537.88 1.23.89 2.083 0 .411-.096.804-.287 1.177a4.064 4.064 0 0 1-.69.977c-.268.278-.65.632-1.148 1.063-.345.296-.824.737-1.437 1.32l-.847.805 1.092.015c1.503 0 2.302-.024 2.398-.072.067-.02.182-.445.345-1.278v-.044h.574v.044c-.01.028-.072.464-.187 1.306-.115.843-.186 1.283-.215 1.322v.043h-5.328v-.445c0-.067.029-.14.086-.216.058-.076.201-.244.431-.502.278-.307.517-.575.718-.805.086-.095.249-.273.488-.531.24-.259.402-.436.489-.531.086-.096.225-.254.416-.474.192-.22.326-.383.402-.489.077-.105.187-.249.33-.43.144-.182.245-.336.302-.46a5.96 5.96 0 0 1 .215-.417c.087-.153.149-.306.187-.46.038-.152.072-.296.1-.43.03-.134.044-.292.044-.474 0-.603-.163-1.125-.488-1.565-.326-.44-.79-.66-1.393-.66-.316 0-.594.08-.833.243-.24.163-.407.321-.503.474-.096.153-.144.244-.144.273 0 .01.024.015.072.015.172 0 .35.067.531.2.182.135.273.355.273.661 0 .24-.076.44-.23.603-.153.163-.368.25-.646.259z" style="font-size:20px;font-family:Baskerville;-inkscape-font-specification:Baskerville;stroke-width:0"/></g><path id="path111" d="M24.128-205.576v12.295H2.434v-12.295H7.11l6.17-6.927 6.172 6.927z" style="fill:#fff2bd;stroke:#1a1a1a;stroke-width:.761538;stroke-dasharray:none;stroke-opacity:.661631"/><g id="g116" style="stroke-width:1.24017" transform="matrix(.55858 0 0 .55788 -88.97 -286.65)"><path id="path112" stroke-width=".014" d="M167.774 157.676v-.186c0-.125.067-.22.2-.288h8.236c.144.077.216.173.216.288 0 .115-.072.21-.216.287h-8.235c-.134-.067-.201-.163-.201-.287z" style="stroke:#000;stroke-width:.248035;stroke-dasharray:none;stroke-opacity:1"/><g id="g115" style="stroke-width:1.24017" transform="matrix(.01436 0 0 -.01436 177.755 161.08)"><path id="path113" stroke-width="1.24" d="M34.456 313q0 163 81 258t180 95q69 0 99-36t30-80q0-25-14-40t-39-15q-23 0-38 14t-15 39q0 44 47 53-22 22-62 25-71 0-117-60-47-66-47-202l1-4q5 6 8 13 41 60 107 60h4q46 0 81-19 24-14 48-40t39-57q21-49 21-107v-18q0-23-5-43-11-59-64-115t-134-56q-28 0-54 8t-56 30q-30 22-51 59t-36 97q-15 60-14 141zm215 84q-30 0-52-17t-34-45q-12-28-17-57t-6-62q0-83 12-119t38-58q24-18 53-18 51 0 78 38 13 18 18 45t5 105q0 80-5 107t-18 45q-27 36-72 36z"/><path id="path114" stroke-width="1.24" d="M570.456 60q0 24 17 42t43 18q24 0 42-16t19-43q0-25-17-43t-43-18q-26 0-43 17t-18 43z"/><path id="path115" stroke-width="1.24" d="M841.456 417v77q0 77 54 124t124 48q71 0 126-42t55-109q0-30-11-56t-26-42q-15-16-31-28t-26-18q-10-6-11-8l14-9 28-20q14-10 16-11 75-59 75-149 0-79-58-137t-150-59q-90 0-148 51t-58 126q0 108 129 180l-18 13q-21 13-27 20-57 49-57 126zm216-31 6 4 9 6q3 2 10 7t12 10q5 5 11 12t11 13q5 6 10 16t9 17q4 7 5 20t2 22q0 43-29 73t-67 38q-7 1-33 1-41 0-77-26t-37-65q0-23 13-42t26-29q13-10 50-32 7-5 11-7zm-36-365q58 0 100 34t42 82q0 17-5 32t-12 25q-7 10-22 22t-23 18q-8 6-29 19t-27 17q-14 9-30 19t-26 17l-8 5q-6 0-29-17t-48-55q-25-38-26-82 0-59 43-97t100-39z"/></g></g><path id="path116" d="M73.974-205.576v12.295H52.28v-12.295h4.676l6.171-6.927 6.171 6.927z" style="fill:#fff2bd;stroke:#1a1a1a;stroke-width:.761538;stroke-dasharray:none;stroke-opacity:.661631"/><g id="g120" style="stroke-width:1.2351" transform="matrix(.56029 0 0 .56077 -99.736 -287.267)"><path id="path117" stroke-width=".014" d="M275.863 157.973v-.187c0-.124.067-.22.201-.287h8.236c.143.077.215.173.215.287 0 .115-.072.211-.215.288h-8.236c-.134-.067-.2-.163-.2-.288z" style="stroke:#000;stroke-width:.247019;stroke-dasharray:none;stroke-opacity:1"/><path id="path118" d="M288.077 159.122a.78.78 0 0 1-.23.574.762.762 0 0 1-.56.23h-.1c.44.757 1.024 1.135 1.751 1.135.67 0 1.159-.287 1.465-.862.182-.316.273-.929.273-1.838 0-.986-.13-1.652-.388-1.996-.249-.316-.526-.474-.833-.474h-.086c-.747 0-1.311.325-1.694.976-.039.067-.072.106-.1.115-.03.01-.101.02-.216.029-.163 0-.254-.029-.273-.086-.02-.039-.029-.876-.029-2.514v-1.852c0-.479.024-.718.072-.718.019-.02.038-.029.057-.029.01 0 .11.038.302.115.191.077.455.153.79.23.335.076.694.115 1.077.115.68 0 1.33-.134 1.953-.402a.447.447 0 0 1 .187-.058c.076 0 .115.086.115.259v.186c-.785.93-1.767 1.393-2.944 1.393a3.45 3.45 0 0 1-.805-.086l-.143-.028v2.47l.43-.316c.106-.077.278-.153.518-.23.239-.077.483-.115.732-.115.775 0 1.431.311 1.967.934.537.622.805 1.359.805 2.211 0 .88-.307 1.633-.92 2.255a3.075 3.075 0 0 1-2.24.948c-.775 0-1.398-.259-1.867-.776-.469-.517-.703-1.1-.703-1.752 0-.23.052-.412.158-.546a.73.73 0 0 1 .33-.258c.115-.038.225-.058.33-.058.24 0 .436.082.589.245a.81.81 0 0 1 .23.574z" style="font-size:20px;font-family:Baskerville;-inkscape-font-specification:Baskerville;stroke-width:0"/><path id="path119" d="M294.022 160.515c0-.23.082-.43.244-.603a.813.813 0 0 1 .618-.259c.23 0 .43.077.603.23a.829.829 0 0 1 .273.618c0 .239-.081.445-.244.617a.813.813 0 0 1-.618.259.837.837 0 0 1-.617-.244.888.888 0 0 1-.259-.618z" style="font-size:20px;font-family:Baskerville;-inkscape-font-specification:Baskerville;stroke-width:0"/><path id="path120" d="M298.474 155.216c-.258 0-.464-.086-.617-.259a.917.917 0 0 1-.23-.632c0-.68.254-1.268.761-1.766.508-.498 1.14-.747 1.896-.747.871 0 1.599.268 2.183.804.584.537.88 1.23.89 2.083 0 .411-.096.804-.287 1.177a4.064 4.064 0 0 1-.69.977c-.268.278-.65.632-1.148 1.063-.345.296-.824.737-1.437 1.32l-.847.805 1.092.015c1.503 0 2.302-.024 2.398-.072.067-.02.182-.445.345-1.278v-.044h.574v.044c-.01.028-.072.464-.187 1.306-.115.843-.186 1.283-.215 1.322v.043h-5.328v-.445c0-.067.029-.14.086-.216.058-.076.201-.244.431-.502.278-.307.517-.575.718-.805.086-.095.249-.273.488-.531.24-.259.402-.436.489-.531.086-.096.225-.254.416-.474.192-.22.326-.383.402-.489.077-.105.187-.249.33-.43.144-.182.245-.336.302-.46a5.96 5.96 0 0 1 .215-.417c.087-.153.149-.306.187-.46.038-.152.072-.296.1-.43.03-.134.044-.292.044-.474 0-.603-.163-1.125-.488-1.565-.326-.44-.79-.66-1.393-.66-.316 0-.594.08-.833.243-.24.163-.407.321-.503.474-.096.153-.144.244-.144.273 0 .01.024.015.072.015.172 0 .35.067.531.2.182.135.273.355.273.661 0 .24-.076.44-.23.603-.153.163-.368.25-.646.259z" style="font-size:20px;font-family:Baskerville;-inkscape-font-specification:Baskerville;stroke-width:0"/></g><path id="path136" d="M143.53-104.878v12.295h-21.694v-12.295h4.676l6.171-6.926 6.171 6.926z" style="fill:#fff2bd;stroke:#1a1a1a;stroke-width:.761538;stroke-dasharray:none;stroke-opacity:.661631"/><g id="g141" style="stroke-width:1.24017" transform="matrix(.55858 0 0 .55788 30.433 -185.951)"><path id="path137" stroke-width=".014" d="M167.774 157.676v-.186c0-.125.067-.22.2-.288h8.236c.144.077.216.173.216.288 0 .115-.072.21-.216.287h-8.235c-.134-.067-.201-.163-.201-.287z" style="stroke:#000;stroke-width:.248035;stroke-dasharray:none;stroke-opacity:1"/><g id="g140" style="stroke-width:1.24017" transform="matrix(.01436 0 0 -.01436 177.755 161.08)"><path id="path138" stroke-width="1.24" d="M34.456 313q0 163 81 258t180 95q69 0 99-36t30-80q0-25-14-40t-39-15q-23 0-38 14t-15 39q0 44 47 53-22 22-62 25-71 0-117-60-47-66-47-202l1-4q5 6 8 13 41 60 107 60h4q46 0 81-19 24-14 48-40t39-57q21-49 21-107v-18q0-23-5-43-11-59-64-115t-134-56q-28 0-54 8t-56 30q-30 22-51 59t-36 97q-15 60-14 141zm215 84q-30 0-52-17t-34-45q-12-28-17-57t-6-62q0-83 12-119t38-58q24-18 53-18 51 0 78 38 13 18 18 45t5 105q0 80-5 107t-18 45q-27 36-72 36z"/><path id="path139" stroke-width="1.24" d="M570.456 60q0 24 17 42t43 18q24 0 42-16t19-43q0-25-17-43t-43-18q-26 0-43 17t-18 43z"/><path id="path140" stroke-width="1.24" d="M841.456 417v77q0 77 54 124t124 48q71 0 126-42t55-109q0-30-11-56t-26-42q-15-16-31-28t-26-18q-10-6-11-8l14-9 28-20q14-10 16-11 75-59 75-149 0-79-58-137t-150-59q-90 0-148 51t-58 126q0 108 129 180l-18 13q-21 13-27 20-57 49-57 126zm216-31 6 4 9 6q3 2 10 7t12 10q5 5 11 12t11 13q5 6 10 16t9 17q4 7 5 20t2 22q0 43-29 73t-67 38q-7 1-33 1-41 0-77-26t-37-65q0-23 13-42t26-29q13-10 50-32 7-5 11-7zm-36-365q58 0 100 34t42 82q0 17-5 32t-12 25q-7 10-22 22t-23 18q-8 6-29 19t-27 17q-14 9-30 19t-26 17l-8 5q-6 0-29-17t-48-55q-25-38-26-82 0-59 43-97t100-39z"/></g></g><path id="path141" d="M193.376-104.878v12.295h-21.694v-12.295h4.676l6.171-6.926 6.171 6.926z" style="fill:#fff2bd;stroke:#1a1a1a;stroke-width:.761538;stroke-dasharray:none;stroke-opacity:.661631"/><g id="g145" style="stroke-width:1.2351" transform="matrix(.56029 0 0 .56077 19.666 -186.569)"><path id="path142" stroke-width=".014" d="M275.863 157.973v-.187c0-.124.067-.22.201-.287h8.236c.143.077.215.173.215.287 0 .115-.072.211-.215.288h-8.236c-.134-.067-.2-.163-.2-.288z" style="stroke:#000;stroke-width:.247019;stroke-dasharray:none;stroke-opacity:1"/><path id="path143" d="M288.077 159.122a.78.78 0 0 1-.23.574.762.762 0 0 1-.56.23h-.1c.44.757 1.024 1.135 1.751 1.135.67 0 1.159-.287 1.465-.862.182-.316.273-.929.273-1.838 0-.986-.13-1.652-.388-1.996-.249-.316-.526-.474-.833-.474h-.086c-.747 0-1.311.325-1.694.976-.039.067-.072.106-.1.115-.03.01-.101.02-.216.029-.163 0-.254-.029-.273-.086-.02-.039-.029-.876-.029-2.514v-1.852c0-.479.024-.718.072-.718.019-.02.038-.029.057-.029.01 0 .11.038.302.115.191.077.455.153.79.23.335.076.694.115 1.077.115.68 0 1.33-.134 1.953-.402a.447.447 0 0 1 .187-.058c.076 0 .115.086.115.259v.186c-.785.93-1.767 1.393-2.944 1.393a3.45 3.45 0 0 1-.805-.086l-.143-.028v2.47l.43-.316c.106-.077.278-.153.518-.23.239-.077.483-.115.732-.115.775 0 1.431.311 1.967.934.537.622.805 1.359.805 2.211 0 .88-.307 1.633-.92 2.255a3.075 3.075 0 0 1-2.24.948c-.775 0-1.398-.259-1.867-.776-.469-.517-.703-1.1-.703-1.752 0-.23.052-.412.158-.546a.73.73 0 0 1 .33-.258c.115-.038.225-.058.33-.058.24 0 .436.082.589.245a.81.81 0 0 1 .23.574z" style="font-size:20px;font-family:Baskerville;-inkscape-font-specification:Baskerville;stroke-width:0"/><path id="path144" d="M294.022 160.515c0-.23.082-.43.244-.603a.813.813 0 0 1 .618-.259c.23 0 .43.077.603.23a.829.829 0 0 1 .273.618c0 .239-.081.445-.244.617a.813.813 0 0 1-.618.259.837.837 0 0 1-.617-.244.888.888 0 0 1-.259-.618z" style="font-size:20px;font-family:Baskerville;-inkscape-font-specification:Baskerville;stroke-width:0"/><path id="path145" d="M298.474 155.216c-.258 0-.464-.086-.617-.259a.917.917 0 0 1-.23-.632c0-.68.254-1.268.761-1.766.508-.498 1.14-.747 1.896-.747.871 0 1.599.268 2.183.804.584.537.88 1.23.89 2.083 0 .411-.096.804-.287 1.177a4.064 4.064 0 0 1-.69.977c-.268.278-.65.632-1.148 1.063-.345.296-.824.737-1.437 1.32l-.847.805 1.092.015c1.503 0 2.302-.024 2.398-.072.067-.02.182-.445.345-1.278v-.044h.574v.044c-.01.028-.072.464-.187 1.306-.115.843-.186 1.283-.215 1.322v.043h-5.328v-.445c0-.067.029-.14.086-.216.058-.076.201-.244.431-.502.278-.307.517-.575.718-.805.086-.095.249-.273.488-.531.24-.259.402-.436.489-.531.086-.096.225-.254.416-.474.192-.22.326-.383.402-.489.077-.105.187-.249.33-.43.144-.182.245-.336.302-.46a5.96 5.96 0 0 1 .215-.417c.087-.153.149-.306.187-.46.038-.152.072-.296.1-.43.03-.134.044-.292.044-.474 0-.603-.163-1.125-.488-1.565-.326-.44-.79-.66-1.393-.66-.316 0-.594.08-.833.243-.24.163-.407.321-.503.474-.096.153-.144.244-.144.273 0 .01.024.015.072.015.172 0 .35.067.531.2.182.135.273.355.273.661 0 .24-.076.44-.23.603-.153.163-.368.25-.646.259z" style="font-size:20px;font-family:Baskerville;-inkscape-font-specification:Baskerville;stroke-width:0"/></g><g id="g173" transform="matrix(.6923 0 0 .6923 14.385 -193.894)"><path id="path163" d="M441.095 182.07v17.76H409.76v-17.76h6.753l8.914-10.005 8.914 10.004z" style="fill:#fff2bd;stroke:#1a1a1a;stroke-width:1.1;stroke-dasharray:none;stroke-opacity:.661631"/><g id="g168" style="stroke-width:1.24017" transform="matrix(.80684 0 0 .80583 277.732 64.963)"><path id="path164" stroke-width=".014" d="M167.774 157.676v-.186c0-.125.067-.22.2-.288h8.236c.144.077.216.173.216.288 0 .115-.072.21-.216.287h-8.235c-.134-.067-.201-.163-.201-.287z" style="stroke:#000;stroke-width:.248035;stroke-dasharray:none;stroke-opacity:1"/><g id="g167" style="stroke-width:1.24017" transform="matrix(.01436 0 0 -.01436 177.755 161.08)"><path id="path165" stroke-width="1.24" d="M34.456 313q0 163 81 258t180 95q69 0 99-36t30-80q0-25-14-40t-39-15q-23 0-38 14t-15 39q0 44 47 53-22 22-62 25-71 0-117-60-47-66-47-202l1-4q5 6 8 13 41 60 107 60h4q46 0 81-19 24-14 48-40t39-57q21-49 21-107v-18q0-23-5-43-11-59-64-115t-134-56q-28 0-54 8t-56 30q-30 22-51 59t-36 97q-15 60-14 141zm215 84q-30 0-52-17t-34-45q-12-28-17-57t-6-62q0-83 12-119t38-58q24-18 53-18 51 0 78 38 13 18 18 45t5 105q0 80-5 107t-18 45q-27 36-72 36z"/><path id="path166" stroke-width="1.24" d="M570.456 60q0 24 17 42t43 18q24 0 42-16t19-43q0-25-17-43t-43-18q-26 0-43 17t-18 43z"/><path id="path167" stroke-width="1.24" d="M841.456 417v77q0 77 54 124t124 48q71 0 126-42t55-109q0-30-11-56t-26-42q-15-16-31-28t-26-18q-10-6-11-8l14-9 28-20q14-10 16-11 75-59 75-149 0-79-58-137t-150-59q-90 0-148 51t-58 126q0 108 129 180l-18 13q-21 13-27 20-57 49-57 126zm216-31 6 4 9 6q3 2 10 7t12 10q5 5 11 12t11 13q5 6 10 16t9 17q4 7 5 20t2 22q0 43-29 73t-67 38q-7 1-33 1-41 0-77-26t-37-65q0-23 13-42t26-29q13-10 50-32 7-5 11-7zm-36-365q58 0 100 34t42 82q0 17-5 32t-12 25q-7 10-22 22t-23 18q-8 6-29 19t-27 17q-14 9-30 19t-26 17l-8 5q-6 0-29-17t-48-55q-25-38-26-82 0-59 43-97t100-39z"/></g></g></g><g id="g174" transform="matrix(.6923 0 0 .6923 -4.445 -193.894)"><path id="path168" d="M513.095 182.07v17.76H481.76v-17.76h6.753l8.914-10.005 8.914 10.004z" style="fill:#fff2bd;stroke:#1a1a1a;stroke-width:1.1;stroke-dasharray:none;stroke-opacity:.661631"/><g id="g172" style="stroke-width:1.2351" transform="matrix(.8093 0 0 .81 262.18 64.071)"><path id="path169" stroke-width=".014" d="M275.863 157.973v-.187c0-.124.067-.22.201-.287h8.236c.143.077.215.173.215.287 0 .115-.072.211-.215.288h-8.236c-.134-.067-.2-.163-.2-.288z" style="stroke:#000;stroke-width:.247019;stroke-dasharray:none;stroke-opacity:1"/><path id="path170" d="M288.077 159.122a.78.78 0 0 1-.23.574.762.762 0 0 1-.56.23h-.1c.44.757 1.024 1.135 1.751 1.135.67 0 1.159-.287 1.465-.862.182-.316.273-.929.273-1.838 0-.986-.13-1.652-.388-1.996-.249-.316-.526-.474-.833-.474h-.086c-.747 0-1.311.325-1.694.976-.039.067-.072.106-.1.115-.03.01-.101.02-.216.029-.163 0-.254-.029-.273-.086-.02-.039-.029-.876-.029-2.514v-1.852c0-.479.024-.718.072-.718.019-.02.038-.029.057-.029.01 0 .11.038.302.115.191.077.455.153.79.23.335.076.694.115 1.077.115.68 0 1.33-.134 1.953-.402a.447.447 0 0 1 .187-.058c.076 0 .115.086.115.259v.186c-.785.93-1.767 1.393-2.944 1.393a3.45 3.45 0 0 1-.805-.086l-.143-.028v2.47l.43-.316c.106-.077.278-.153.518-.23.239-.077.483-.115.732-.115.775 0 1.431.311 1.967.934.537.622.805 1.359.805 2.211 0 .88-.307 1.633-.92 2.255a3.075 3.075 0 0 1-2.24.948c-.775 0-1.398-.259-1.867-.776-.469-.517-.703-1.1-.703-1.752 0-.23.052-.412.158-.546a.73.73 0 0 1 .33-.258c.115-.038.225-.058.33-.058.24 0 .436.082.589.245a.81.81 0 0 1 .23.574z" style="font-size:20px;font-family:Baskerville;-inkscape-font-specification:Baskerville;stroke-width:0"/><path id="path171" d="M294.022 160.515c0-.23.082-.43.244-.603a.813.813 0 0 1 .618-.259c.23 0 .43.077.603.23a.829.829 0 0 1 .273.618c0 .239-.081.445-.244.617a.813.813 0 0 1-.618.259.837.837 0 0 1-.617-.244.888.888 0 0 1-.259-.618z" style="font-size:20px;font-family:Baskerville;-inkscape-font-specification:Baskerville;stroke-width:0"/><path id="path172" d="M298.474 155.216c-.258 0-.464-.086-.617-.259a.917.917 0 0 1-.23-.632c0-.68.254-1.268.761-1.766.508-.498 1.14-.747 1.896-.747.871 0 1.599.268 2.183.804.584.537.88 1.23.89 2.083 0 .411-.096.804-.287 1.177a4.064 4.064 0 0 1-.69.977c-.268.278-.65.632-1.148 1.063-.345.296-.824.737-1.437 1.32l-.847.805 1.092.015c1.503 0 2.302-.024 2.398-.072.067-.02.182-.445.345-1.278v-.044h.574v.044c-.01.028-.072.464-.187 1.306-.115.843-.186 1.283-.215 1.322v.043h-5.328v-.445c0-.067.029-.14.086-.216.058-.076.201-.244.431-.502.278-.307.517-.575.718-.805.086-.095.249-.273.488-.531.24-.259.402-.436.489-.531.086-.096.225-.254.416-.474.192-.22.326-.383.402-.489.077-.105.187-.249.33-.43.144-.182.245-.336.302-.46a5.96 5.96 0 0 1 .215-.417c.087-.153.149-.306.187-.46.038-.152.072-.296.1-.43.03-.134.044-.292.044-.474 0-.603-.163-1.125-.488-1.565-.326-.44-.79-.66-1.393-.66-.316 0-.594.08-.833.243-.24.163-.407.321-.503.474-.096.153-.144.244-.144.273 0 .01.024.015.072.015.172 0 .35.067.531.2.182.135.273.355.273.661 0 .24-.076.44-.23.603-.153.163-.368.25-.646.259z" style="font-size:20px;font-family:Baskerville;-inkscape-font-specification:Baskerville;stroke-width:0"/></g></g></g></svg>