<svg xmlns="http://www.w3.org/2000/svg" width="700" height="200" aria-hidden="true" viewBox="0 -19.033 700 200"><path d="M82.482 63.41c-4.329-.578-9.226.3-12.702 1.662-3.71 1.454-7.792 4.496-10.116 9.784-1.235 2.809-1.83 6.84-.96 10.173.889 3.408 2.963 5.921 5.14 7.228 5.662 3.397 11.909 4.108 17.839 2.396 3.57-1.03 7.252-3.238 9.725-7.843 1.855-3.455 2.222-9.065.417-12.788-1.877-3.871-4.86-5.535-7.675-6.595-1.045-.394-2.258-.591-3.184-.64" style="fill:#e5f6ff;fill-opacity:1;stroke:#000;stroke-width:1.1;stroke-linejoin:round;stroke-miterlimit:2"/><path d="m94.226-70.602-2.958 22.68 19.722 9.862h38.459l37.472 10.847 45.073-13.57 7.464-34.596-33.8-25.792-47.334 15.777-25.64-9.86z" style="fill:#e5f6ff;fill-opacity:1;stroke:#000;stroke-width:1.173;stroke-linejoin:round;stroke-miterlimit:2;stroke-dasharray:none"/><ellipse cx="59.219" cy="-58.768" rx="13.313" ry="11.833" style="fill:#e5f6ff;fill-opacity:1;stroke:#000;stroke-width:1.173;stroke-linejoin:round;stroke-miterlimit:2;stroke-dasharray:none"/><circle cx="24.705" cy="-58.275" r="5.424" style="fill:#e5f6ff;fill-opacity:1;stroke:#000;stroke-width:1.173;stroke-linejoin:round;stroke-miterlimit:2;stroke-dasharray:none"/><circle cx="25.85" cy="75.911" r=".015" style="fill:#000;stroke:#000"/><path d="M129.509 55.698c-2.822-4.193-3.405-9.628-1.03-14.124 2.776-5.254 8.924-8.45 15.053-9.623 7.999-1.53 17.172-1.418 25.07.196 5.885 1.202 11.969 4.04 15.53 7.48 3.434 3.314 3.783 9.574-.698 10.525-.927-.747.961-2.379 2.147-2.861 6.02-2.449 14.751-2.566 21.687-1.036 4.748 1.047 9.366 2.954 13.047 6.026 3.476 3.249 6.113 8.486 2.417 11.668-1.556 1.34-3.48 1.88-4.008.782-.99-2.065 4.153-2.427 6.435-2.292 6.31.372 10.98 5.328 13.638 10.757 2.247 4.587 2.72 10.491 1.245 14.72-2.162 6.202-7.851 11.575-13.684 14.333-8.591 4.063-18.04 6.091-27.444 4.893-4.432-.564-10.155-1.333-8.477-3.586 1.37-1.84 4.006 1.738 2.295 5.885-1.239 3.005-3.217 4.798-5.41 6.005-5.448 2.998-11.576 3.59-17.477 3.227-9.642-.593-19.385-4.475-26.86-12.16-1.571-1.616-3.082-3.637-3.948-6.033-.411-1.139 1.119-2 1.806-.956.656.998.44 1.264-1.113 1.548-8.524 1.558-17.455-.349-25.089-4.538-4.848-2.661-9.205-7.005-10.647-12.819-1.5-6.05.851-12.367 4.51-16.986 5.269-6.653 12.972-10.629 20.812-12.593a36.68 36.68 0 0 1 1.588-.36" style="fill:#e5f6ff;fill-opacity:1;stroke:#000;stroke-width:1.1;stroke-linejoin:round;stroke-miterlimit:2"/><path fill="none" d="M153.814 681.458c-4.857.09-9.708.953-14.366 2.318-1.3.38-2.575.846-3.862 1.269-5.409 2.003-10.6 4.658-15.07 8.343-3.003 2.476-3.497 3.28-6.044 6.193-3.21 4.346-5.746 9.246-5.87 14.768-.077 3.415.415 4.286 1.304 7.55.57 1.193 1.028 2.447 1.71 3.58 2.236 3.71 5.526 6.58 9.163 8.856 3.32 2.076 4.764 2.533 8.36 4.08 7.016 2.619 14.468 4.006 21.967 3.797 1.172-.032 2.338-.169 3.508-.253 2.33-.359 4.78-.732 6.824-2.01.578-.36 1.321-.96 1.464-1.708.052-.273-.076-.55-.114-.825-.197-.228-.356-.494-.59-.685-.976-.8-2.635-1.225-3.829-.69-.295.133-.527.377-.79.565-.174.286-.418.54-.521.859-.696 2.161 1.119 4.574 2.436 6.056.591.665 1.265 1.253 1.897 1.88 4.597 4.013 10.006 6.983 15.698 9.141 1.369.52 2.771.944 4.157 1.415 5.981 1.737 12.203 2.652 18.436 2.63 4.11-.014 5.156-.258 9.19-.744 3.792-.637 7.547-1.65 10.989-3.403 1.357-.69 2.99-1.718 4.043-2.88.395-.435.652-.978.978-1.467.113-.467.315-.922.339-1.403.102-2.118-1.678-3.804-3.163-5.015-.373-.23-2.206-1.803-2.69-1.16-.088.116-.071.283-.107.425.057.17.084.354.171.51.293.53.796.953 1.26 1.314 1.393 1.083 2.906 1.685 4.538 2.32 5.21 1.558 10.727 1.71 16.122 1.4 1.485-.086 2.963-.254 4.444-.381 7.755-.997 15.518-2.553 22.804-5.463 1.342-.536 2.643-1.173 3.964-1.76 1.205-.673 2.449-1.281 3.614-2.02 3.933-2.496 7.69-5.806 10.457-9.57.6-.814 1.109-1.692 1.663-2.538 2.514-4.54 3.03-8.63 2.441-13.73-.104-.906-.28-1.801-.42-2.702-.827-4.273-2.531-8.329-5.116-11.84-.47-.638-.994-1.233-1.491-1.85-2.276-2.59-4.973-4.856-8.076-6.398-.48-.239-.983-.43-1.475-.646-2.107-.77-4.318-1.238-6.56-1.05-1.672.252-3.23.934-4.733 1.678-.521.344-1.755.971-1.798 1.72-.006.109.04.214.061.321.942.943 2.508.805 3.73.754 1.524-.275 3.554-.475 4.546-1.861.175-.244.263-.538.394-.807.043-.314.126-.624.128-.94.016-2.02-1.271-4.531-2.112-6.318-1.417-2.668-3.186-5.201-5.362-7.312-.518-.502-1.08-.957-1.62-1.435-3.644-2.785-7.988-4.398-12.437-5.378-1.082-.238-2.181-.396-3.272-.594-5.015-.648-10.094-.212-14.99 1.007-.7.174-1.389.397-2.083.596-1.312.464-2.628.996-3.744 1.848-.208.158-.657.55-.755.855-.036.113.007.236.01.354.135.078.251.202.403.233.72.146 1.95-.707 2.388-1.18.237-.257.422-.557.633-.836 1.19-2.408 1.615-5.232.719-7.822-.203-.586-.524-1.124-.785-1.687-.4-.56-.755-1.155-1.2-1.68-2.351-2.784-5.632-4.738-8.894-6.261-1.026-.48-2.088-.88-3.132-1.32-6.056-2.254-12.423-3.642-18.854-4.252-1.366-.13-2.739-.18-4.108-.27-5.242-.13-10.565.264-15.498 2.187-3.056 1.192-3.589 1.742-6.286 3.515-.841.757-1.754 1.44-2.524 2.269a17.194 17.194 0 0 0-4.344 8.785c-.496 2.865-.218 3.875.037 6.734 1.06 4.153.362 2.18 2.054 5.932M-41.693 86.876c-5.516.27-11.603 1.743-15.85 3.352-4.533 1.717-9.378 4.706-11.784 9.119-1.278 2.343-1.629 5.515-.201 7.913 1.46 2.452 4.324 4.027 7.199 4.666 7.475 1.66 15.422 1.177 22.728-1.1 4.398-1.372 8.823-3.66 11.483-7.576 1.996-2.939 1.902-7.275-.743-9.817-2.75-2.644-6.677-3.422-10.33-3.769-1.358-.129-2.906-.08-4.08.036M290.167-75.356c2.084 2.728-3.156 4.216-5.214 4.57-11.304 1.944-23.147-.435-33.27-5.662-6.429-3.321-12.206-8.74-14.118-15.995-1.99-7.551 1.129-15.432 5.98-21.196 6.987-8.301 17.202-13.263 27.598-15.713 3.542-.835 7.18-1.303 10.823-1.29" style="fill:#000;fill-opacity:0;stroke:#000;stroke-width:1.1;stroke-linejoin:round;stroke-miterlimit:2"/><path fill="none" d="M348.147-69.55c2.303 1.275 5.425 3.323 5.005 6.277-.467 3.287-4.048 4.885-6.808 6.113-6.856 3.052-14.566 3.655-21.992 3.285-12.133-.603-24.393-4.555-33.798-12.379-2.355-1.959-5.077-4.386-5.225-7.643-.119-2.607 3.258-2.814 4.838-1.459" style="fill:#000;fill-opacity:0;stroke:#000;stroke-width:1.1;stroke-linejoin:round;stroke-miterlimit:2"/><path fill="none" d="M389.701-120.12c1.638-2.518 5.518-3.515 8.536-3.225 6.975.669 14.559 7.249 18.085 14.457 2.774 5.671 3.773 13.448 1.651 19.543-2.867 8.236-10.412 15.37-18.147 19.032-11.392 5.395-23.89 7.804-36.392 6.497-7.44-.778-13.572-1.84-15.693-5.472" style="fill:#000;fill-opacity:0;stroke:#000;stroke-width:1.1;stroke-linejoin:round;stroke-miterlimit:2"/><path fill="none" d="M352.143-139.319c-.997-.942 1.161-2.866 2.484-3.4 6.72-2.717 16.314-2.454 23.862-.258 5.168 1.502 10.154 4.05 14.06 7.982 2.634 2.652 4.278 6.048 4.673 8.823.346 2.425-.758 5.61-3.632 6.382-1.44.386-2.528.42-3.889-.33" style="fill:#000;fill-opacity:0;stroke:#000;stroke-width:1.1;stroke-linejoin:round;stroke-miterlimit:2"/><path fill="none" d="M292.679-135.045c-2.913-5.263-3.311-11.94-.503-17.332 3.281-6.3 10.174-9.923 16.957-11.073 8.852-1.5 18.92-.935 27.522 1.407 6.41 1.746 12.969 5.496 16.723 9.877 2.877 3.358 3.819 8.955.523 12.031-.49.458-1.21.546-1.758.816" style="fill:#000;fill-opacity:0;stroke:#000;stroke-width:1.1;stroke-linejoin:round;stroke-miterlimit:2"/><path d="M41.97 84.112c.982-.631 1.081-1.705 1.184-2.615.195-2.158-.293-4.442-1.92-6.257-1.235-1.342-3.216-2.49-5.472-2.403-1.964.108-3.605 1.156-4.69 2.341-2.205 2.4-2.935 5.712-1.243 8.407 1.228 1.92 4.069 3.155 6.866 3.058 2.063-.084 3.99-1.016 5.035-2.36.46-.508.734-1.1.918-1.697" style="fill:#e5f6ff;fill-opacity:1;stroke:#000;stroke-width:1.1;stroke-linejoin:round;stroke-miterlimit:2"/><g style="display:inline"><g style="fill:#000"><path d="m305 288 45 69c26 40 61 84 111 84 32 0 49-12 49-33 0-19-13-42-39-42-22 0-27 9-44 9-30 0-41-16-55-38l-55-85c30-62 53-197 98-197 16 0 40 14 61 57l14-10C478 87 433-9 375-9c-41 0-60 41-73 77l-40 113-63-98C167 34 138-9 82-9 46-9 30 16 30 38c0 16 13 37 38 37 26 0 22-20 47-20 12 0 38 10 70 59l65 101-33 92c-17 48-43 89-98 89-13 0-28-2-38-6l-3 18 132 33c44-24 63-65 75-98zM828.604 412.181H633.472v10.605c52.318 2.828 67.165 17.675 67.165 56.56v317.443c0 24.038-6.363 34.643-21.21 34.643-7.07 0-19.089-3.535-31.815-8.484l-19.089-7.07v9.898l126.553 64.337 6.363-2.121V465.913c0-30.401 14.14-43.127 67.165-43.127z" style="fill:#000" transform="matrix(.01904 0 0 -.01904 142.686 83.518)"/></g><path d="m134.746 75.369-1.733 6.569s-.02.038-.02.21c0 .209.115.323.267.323.19 0 .476-.038 1.219-1.028l.228.228c-.59.895-1.618 2.037-2.532 2.037-.628 0-.8-.438-.8-1.047 0-.247.115-.647.21-.952h-.076c-1.371 1.752-2.552 2-3.294 2-1.2 0-1.695-1.048-1.695-2.266 0-2.514 2.514-6.322 5.255-6.322.819 0 1.219.457 1.257.876h.019l.171-.628zm-2 1.656c0-.78-.228-1.351-.952-1.351-1.294 0-2.437 1.656-3.084 3.255-.343.857-.533 1.695-.533 2.361 0 1.01.59 1.257 1.104 1.257 1.314 0 2.647-1.809 3.18-3.618a7.148 7.148 0 0 0 .285-1.904zM140.62 86.385h-3.715v-.202c.996-.054 1.278-.336 1.278-1.077v-6.044c0-.457-.12-.66-.403-.66-.135 0-.364.068-.606.162l-.364.135v-.189l2.41-1.225.121.04v8.037c0 .579.27.821 1.279.821zM177.233 77.425h-11.215V76.17h11.215zm0 3.808h-11.215v-1.256h11.215zM207.26 78.034l.857-1.313c.495-.762 1.161-1.6 2.113-1.6.61 0 .933.229.933.629 0 .361-.247.8-.742.8-.42 0-.515-.172-.838-.172-.571 0-.78.305-1.047.724l-1.048 1.618c.572 1.18 1.01 3.75 1.866 3.75.305 0 .762-.266 1.162-1.084l.266.19c-.228.286-1.085 2.113-2.19 2.113-.78 0-1.142-.78-1.39-1.466l-.76-2.151-1.2 1.866c-.61.933-1.162 1.751-2.228 1.751-.685 0-.99-.476-.99-.895 0-.304.247-.704.723-.704.495 0 .42.38.895.38.229 0 .724-.19 1.333-1.123l1.238-1.923-.629-1.751c-.323-.914-.818-1.695-1.866-1.695-.247 0-.533.038-.723.114l-.057-.342 2.513-.629c.838.457 1.2 1.238 1.428 1.866zM193.725 75.369l-1.733 6.569s-.019.038-.019.21c0 .209.114.323.267.323.19 0 .476-.038 1.218-1.028l.229.228c-.59.895-1.619 2.037-2.532 2.037-.629 0-.8-.438-.8-1.047 0-.247.114-.647.21-.952h-.077c-1.37 1.752-2.551 2-3.294 2-1.2 0-1.694-1.048-1.694-2.266 0-2.514 2.513-6.322 5.255-6.322.818 0 1.218.457 1.256.876h.02l.17-.628zm-2 1.656c0-.78-.228-1.351-.951-1.351-1.295 0-2.437 1.656-3.085 3.255-.342.857-.533 1.695-.533 2.361 0 1.01.59 1.257 1.104 1.257 1.314 0 2.647-1.809 3.18-3.618a7.148 7.148 0 0 0 .286-1.904zM199.6 86.385h-3.716v-.202c.996-.054 1.279-.336 1.279-1.077v-6.044c0-.457-.121-.66-.404-.66-.135 0-.364.068-.606.162l-.363.135v-.189l2.41-1.225.12.04v8.037c0 .579.27.821 1.28.821z"/></g></svg>