<svg xmlns="http://www.w3.org/2000/svg" xmlns:xlink="http://www.w3.org/1999/xlink" width="450" height="280"><defs><symbol id="c" overflow="visible" style="overflow:visible"><path d="M4-1.11c-.078.094-.125.157-.219.266-.219.313-.344.406-.453.406-.14 0-.234-.124-.312-.406-.016-.078-.032-.14-.032-.172-.25-1.015-.359-1.468-.359-1.609.438-.781.797-1.219.969-1.219.062 0 .14.031.25.078.11.079.187.094.265.094.204 0 .344-.14.344-.36 0-.202-.172-.359-.406-.359-.438 0-.813.36-1.5 1.422l-.11-.547c-.14-.687-.25-.875-.53-.875-.22 0-.548.079-1.157.282l-.11.046.032.141c.39-.078.469-.11.562-.11.25 0 .313.095.454.688l.28 1.235-.812 1.156C.953-.641.75-.47.641-.47a.554.554 0 0 1-.25-.094.755.755 0 0 0-.329-.093c-.187 0-.328.14-.328.344 0 .265.204.421.5.421.297 0 .422-.093.922-.703.266-.312.485-.578.89-1.156L2.36-.562c.125.515.25.671.579.671.374 0 .624-.234 1.203-1.14zm0 0"/></symbol><symbol id="k" overflow="visible" style="overflow:visible"><path d="M4-1.11c-.078.094-.125.157-.219.266-.219.313-.344.406-.453.406-.14 0-.234-.124-.312-.406-.016-.078-.032-.14-.032-.172-.25-1.015-.359-1.468-.359-1.609.438-.781.797-1.219.969-1.219.062 0 .14.031.25.078.11.079.187.094.265.094.204 0 .344-.14.344-.36 0-.202-.172-.359-.406-.359-.438 0-.813.36-1.5 1.422l-.11-.547c-.14-.687-.25-.875-.53-.875-.22 0-.548.079-1.157.282l-.11.046.032.141c.39-.078.469-.11.562-.11.25 0 .313.095.454.688l.28 1.235-.812 1.156C.953-.641.75-.47.641-.47a.554.554 0 0 1-.25-.094.755.755 0 0 0-.329-.093c-.187 0-.328.14-.328.344 0 .265.204.421.5.421.297 0 .422-.093.922-.703.266-.312.485-.578.89-1.156L2.36-.562c.125.515.25.671.579.671.374 0 .624-.234 1.203-1.14zm0 0"/></symbol><symbol id="i" overflow="visible" style="overflow:visible"><path d="M4.703-4.031h-.61c-.03 0-.077-.032-.155-.078-.266-.188-.594-.282-.985-.282-1.094 0-2 .766-2 1.704 0 .515.219.812.797 1.078-.594.39-.766.593-.766.828 0 .14.079.25.266.39C.266.266.078.453.078.922c0 .687.656 1.125 1.672 1.125 1.25 0 2.094-.578 2.094-1.453 0-.625-.485-1.063-1.438-1.313-.437-.11-.687-.265-.687-.422 0-.14.218-.406.36-.406.015 0 .03 0 .062.016.078.015.218.031.312.031.906 0 1.844-.813 1.844-1.594 0-.156-.031-.36-.094-.562h.5zM1.47-.281c.015 0 .031.015.062.015.032.016.125.047.282.094C2.875.156 3.234.438 3.234.891c0 .546-.578.937-1.343.937-.797 0-1.266-.375-1.266-1.016A.85.85 0 0 1 .844.22c.14-.172.547-.5.625-.5zm1.484-3.89c.36 0 .563.234.563.702 0 .344-.125.781-.313 1.125-.219.406-.531.625-.875.625-.375 0-.594-.281-.594-.75 0-.906.563-1.703 1.22-1.703zm0 0"/></symbol><symbol id="j" overflow="visible" style="overflow:visible"><path d="M3.297 2.39c0-.03 0-.046-.172-.218C1.891.922 1.562-.968 1.562-2.5c0-1.734.375-3.469 1.61-4.703.125-.125.125-.14.125-.172 0-.078-.031-.11-.094-.11-.11 0-1 .688-1.594 1.954C1.11-4.438.984-3.328.984-2.5c0 .781.11 1.984.657 3.125C2.25 1.844 3.094 2.5 3.203 2.5c.063 0 .094-.031.094-.11zm0 0"/></symbol><symbol id="l" overflow="visible" style="overflow:visible"><path d="M2.875-2.5c0-.766-.11-1.969-.656-3.11C1.625-6.827.766-7.483.672-7.483a.107.107 0 0 0-.11.109c0 .031 0 .047.188.234.984.985 1.547 2.563 1.547 4.641 0 1.719-.36 3.469-1.594 4.719-.14.125-.14.14-.14.172 0 .062.046.109.109.109.094 0 1-.688 1.578-1.953.516-1.094.625-2.203.625-3.047Zm0 0"/></symbol><symbol id="g" overflow="visible" style="overflow:visible"><path d="M4-1.11c-.078.094-.125.157-.219.266-.219.313-.344.406-.453.406-.14 0-.234-.124-.312-.406-.016-.078-.032-.14-.032-.172-.25-1.015-.359-1.468-.359-1.609.438-.781.797-1.219.969-1.219.062 0 .14.031.25.078.11.079.187.094.265.094.204 0 .344-.14.344-.36 0-.202-.172-.359-.406-.359-.438 0-.813.36-1.5 1.422l-.11-.547c-.14-.687-.25-.875-.53-.875-.22 0-.548.079-1.157.282l-.11.046.032.141c.39-.078.469-.11.562-.11.25 0 .313.095.454.688l.28 1.235-.812 1.156C.953-.641.75-.47.641-.47a.554.554 0 0 1-.25-.094.755.755 0 0 0-.329-.093c-.187 0-.328.14-.328.344 0 .265.204.421.5.421.297 0 .422-.093.922-.703.266-.312.485-.578.89-1.156L2.36-.562c.125.515.25.671.579.671.374 0 .624-.234 1.203-1.14zm0 0"/></symbol><symbol id="d" overflow="visible" style="overflow:visible"><path d="M4.703-4.031h-.61c-.03 0-.077-.032-.155-.078-.266-.188-.594-.282-.985-.282-1.094 0-2 .766-2 1.704 0 .515.219.812.797 1.078-.594.39-.766.593-.766.828 0 .14.079.25.266.39C.266.266.078.453.078.922c0 .687.656 1.125 1.672 1.125 1.25 0 2.094-.578 2.094-1.453 0-.625-.485-1.063-1.438-1.313-.437-.11-.687-.265-.687-.422 0-.14.218-.406.36-.406.015 0 .03 0 .062.016.078.015.218.031.312.031.906 0 1.844-.813 1.844-1.594 0-.156-.031-.36-.094-.562h.5zM1.47-.281c.015 0 .031.015.062.015.032.016.125.047.282.094C2.875.156 3.234.438 3.234.891c0 .546-.578.937-1.343.937-.797 0-1.266-.375-1.266-1.016A.85.85 0 0 1 .844.22c.14-.172.547-.5.625-.5zm1.484-3.89c.36 0 .563.234.563.702 0 .344-.125.781-.313 1.125-.219.406-.531.625-.875.625-.375 0-.594-.281-.594-.75 0-.906.563-1.703 1.22-1.703zm0 0"/></symbol><symbol id="e" overflow="visible" style="overflow:visible"><path d="M1.86-3.5c.046-.094.077-.156.077-.234 0-.22-.203-.391-.421-.391-.204 0-.344.14-.391.328L.25-.562c0 .015-.031.093-.031.093 0 .078.187.14.25.14.047 0 .047-.03.094-.124zm0 0"/></symbol><symbol id="f" overflow="visible" style="overflow:visible"><path d="M3.297 2.39c0-.03 0-.046-.172-.218C1.891.922 1.562-.968 1.562-2.5c0-1.734.375-3.469 1.61-4.703.125-.125.125-.14.125-.172 0-.078-.031-.11-.094-.11-.11 0-1 .688-1.594 1.954C1.11-4.438.984-3.328.984-2.5c0 .781.11 1.984.657 3.125C2.25 1.844 3.094 2.5 3.203 2.5c.063 0 .094-.031.094-.11zm0 0"/></symbol><symbol id="h" overflow="visible" style="overflow:visible"><path d="M2.875-2.5c0-.766-.11-1.969-.656-3.11C1.625-6.827.766-7.483.672-7.483a.107.107 0 0 0-.11.109c0 .031 0 .047.188.234.984.985 1.547 2.563 1.547 4.641 0 1.719-.36 3.469-1.594 4.719-.14.125-.14.14-.14.172 0 .062.046.109.109.109.094 0 1-.688 1.578-1.953.516-1.094.625-2.203.625-3.047Zm0 0"/></symbol><symbol id="a" overflow="visible" style="overflow:visible"><path d="m4.734-1.36-.125-.062c-.375.578-.5.672-.953.672H1.281l1.672-1.766c.89-.921 1.281-1.687 1.281-2.453 0-1-.812-1.765-1.859-1.765-.547 0-1.063.218-1.422.609-.328.344-.469.656-.64 1.375l.203.047C.922-5.687 1.28-6 1.969-6c.828 0 1.406.563 1.406 1.406 0 .782-.469 1.703-1.297 2.594L.297-.125V0h3.89Zm0 0"/></symbol><symbol id="b" overflow="visible" style="overflow:visible"><path d="M6.563-2.297c.171 0 .359 0 .359-.203 0-.188-.188-.188-.36-.188h-5.39c-.172 0-.344 0-.344.188 0 .203.172.203.344.203zm0 0"/></symbol></defs><g style="display:inline"><path d="M-145.668 404.344h-164.929" style="fill:#ffd5d5;stroke:#ffe6d5;stroke-width:4.5;stroke-miterlimit:2;stroke-dasharray:none;stroke-dashoffset:0;stroke-opacity:1" transform="translate(372.817 -306.079)"/><path d="M-145.668 404.344v122.807" style="fill:#000;stroke:#ffd5d5;stroke-width:4.5;stroke-miterlimit:2;stroke-dasharray:none;stroke-opacity:1" transform="translate(372.817 -306.079)"/><use xlink:href="#glyph0-1-8" width="100%" height="100%" x="343.014" y="587.911" style="fill:#b0b0d9;fill-opacity:1" transform="translate(476.597 -468.185)"/><use xlink:href="#glyph1-1-71" width="100%" height="100%" x="225.758" y="587.498" style="fill:#b0b0d9;fill-opacity:1" transform="translate(476.597 -468.185)"/><use xlink:href="#glyph0-1-8" width="100%" height="100%" x="233.499" y="587.498" style="fill:#b0b0d9;fill-opacity:1" transform="translate(476.597 -468.185)"/><use xlink:href="#glyph0-1-8" width="100%" height="100%" x="279.802" y="522.147" style="fill:#b0b0d9;fill-opacity:1" transform="translate(476.597 -468.185)"/><use xlink:href="#glyph1-1-71" width="100%" height="100%" x="271.679" y="635.12" style="fill:#b0b0d9;fill-opacity:1" transform="translate(476.597 -468.185)"/><use xlink:href="#glyph0-1-8" width="100%" height="100%" x="279.42" y="635.12" style="fill:#b0b0d9;fill-opacity:1" transform="translate(476.597 -468.185)"/><path d="M-148.09 913.765V777.7M-176.438 913.765V777.7M-233.13 913.765V777.7M-261.477 913.765V777.7M-272.817 789.039h136.066M-272.817 817.387h136.066M-272.817 874.078h136.066M-207.63 902.426h70.88M-272.817 902.426h47.644" style="fill:none;stroke:#9e9ed1;stroke-width:.19925;stroke-linecap:butt;stroke-linejoin:miter;stroke-miterlimit:10;stroke-opacity:1" transform="translate(372.817 -306.079)"/><use xlink:href="#a" width="100%" height="100%" x="356.963" y="562.992" style="fill:#b0b0d9;fill-opacity:1" transform="translate(-134.727 -10.935)"/><use xlink:href="#b" width="100%" height="100%" x="239.705" y="562.579" style="fill:#b0b0d9;fill-opacity:1" transform="translate(-134.727 -10.935)"/><use xlink:href="#a" width="100%" height="100%" x="247.505" y="562.579" style="fill:#b0b0d9;fill-opacity:1" transform="translate(-134.727 -10.935)"/><use xlink:href="#a" width="100%" height="100%" x="293.75" y="497.227" style="fill:#b0b0d9;fill-opacity:1" transform="translate(-134.727 -10.935)"/><use xlink:href="#b" width="100%" height="100%" x="285.627" y="610.201" style="fill:#b0b0d9;fill-opacity:1" transform="translate(-134.727 -10.935)"/><use xlink:href="#a" width="100%" height="100%" x="293.427" y="610.201" style="fill:#b0b0d9;fill-opacity:1" transform="translate(-134.727 -10.935)"/><path d="M-337.031 518.256H33.954M-301.702 545.392V326.416" style="fill:none;stroke:#000;stroke-width:1;stroke-linecap:butt;stroke-linejoin:miter;stroke-miterlimit:10;stroke-dasharray:none;stroke-opacity:1" transform="translate(372.817 -306.079)"/><path d="M28.333 509.945c.474 3.11 5.726 7.782 7.16 8.314-1.434.515-6.686 5.188-7.16 8.297M-310.008 332.556c3.106-.474 7.774-5.731 8.306-7.168.515 1.437 5.183 6.694 8.306 7.168" style="fill:none;stroke:#000;stroke-width:1.4;stroke-linecap:round;stroke-linejoin:round;stroke-miterlimit:10;stroke-dasharray:none;stroke-opacity:1" transform="translate(372.817 -306.079)"/><g style="fill:#000;fill-opacity:1;stroke:#000;stroke-width:.0361593;stroke-miterlimit:4;stroke-dasharray:none;stroke-opacity:1" transform="matrix(1.10618 0 0 1.10625 130.245 -435.476)"><use xlink:href="#c" width="100%" height="100%" x="378.808" y="577.658" style="stroke:#000;stroke-width:.0361593;stroke-miterlimit:4;stroke-dasharray:none;stroke-opacity:1"/></g><path d="M-69.97 477.567c.487 2.364-6.414 5.674-12.604 7.002-7.945 1.705-17.519 1.592-22.556 1.066-14.51-1.515-29.286-7.874-37.885-17.339-16.761-18.447-16.796-40.46-7.779-56.552 12.259-21.875 41.246-35.253 67.679-36.562 16.614-.823 31.862.657 45.993 4.064 11.438 2.758 29.427 9.698 40.801 15.976" style="fill:none;stroke:#000;stroke-width:1.4;stroke-miterlimit:2;stroke-dasharray:none" transform="translate(372.817 -306.079)"/><path d="M-333.374 284.323c1.092-.19 2.733-2.293 2.92-2.867.181.574 1.822 2.677 2.92 2.867" style="fill:none;stroke:#000;stroke-width:.5579;stroke-linecap:round;stroke-linejoin:round;stroke-miterlimit:10;stroke-opacity:1" transform="translate(372.817 -306.079)"/><path d="M-140.524 404.344a5.144 5.145 0 0 1-5.144 5.145 5.144 5.145 0 0 1-5.144-5.145 5.144 5.145 0 0 1 5.144-5.145 5.144 5.145 0 0 1 5.144 5.145z" style="stroke-width:1.4;stroke-miterlimit:2" transform="translate(372.817 -306.079)"/><text xml:space="preserve" x="-112.12" y="293.911" style="font-size:27.6357px;font-family:&quot;Song Myung&quot;;-inkscape-font-specification:&quot;Song Myung&quot;;text-align:center;text-anchor:middle;fill:#000;stroke:none;stroke-width:1.4;stroke-miterlimit:2;stroke-dasharray:none" transform="matrix(.99993 0 0 1.00007 372.817 -306.079)"><tspan x="-112.12" y="293.911" style="font-style:italic;font-variant:normal;font-weight:400;font-stretch:normal;font-family:Baskerville;-inkscape-font-specification:&quot;Baskerville Italic&quot;;stroke-width:1.4">P</tspan></text><g aria-label="particle" style="font-style:italic;font-size:21.5px;font-family:Baskerville;-inkscape-font-specification:&quot;Baskerville Italic&quot;;text-align:center;text-anchor:middle;stroke:#000;stroke-width:.1;stroke-miterlimit:2;stroke-dasharray:none;stroke-opacity:1"><path d="M-198.255 367.406h.283q.179.588.179 1.417.672-.714 1.438-1.06.777-.357 1.638-.357 1.784 0 2.97 1.26 1.187 1.249 1.187 3.307 0 2.015-1.197 3.37-1.186 1.354-3.128 1.354-.798 0-1.533-.326-.724-.315-1.375-.945v3.265q0 1.491.052 1.817.063.325.336.482.273.168 1.019.168v.483h-4.494v-.483h.315q.746 0 .966-.22.231-.21.263-.514.042-.294.042-1.733v-7.81q0-1.375-.042-1.732-.032-.357-.294-.546-.263-.19-.935-.19h-.315v-.482q1.04-.105 2.625-.525zm.462 7.328q.567.692 1.197 1.05.64.346 1.343.346 1.187 0 2.068-1.018.882-1.019.882-3.244 0-1.932-.85-2.887-.85-.956-2.026-.956-.725 0-1.375.368-.651.367-1.24 1.113zM-180.24 374.776h.388q-.095 1.795-1.764 1.795-.714 0-1.133-.378-.41-.378-.536-1.123-1.05.745-1.921 1.123-.86.378-1.543.378-.872 0-1.501-.504-.63-.504-.63-1.333 0-1.082 1.05-1.89 1.06-.808 2.918-1.575l1.627-.661v-.42q0-.892-.115-1.291-.116-.4-.599-.714-.483-.315-1.27-.315-1.575 0-1.753 1.05-.168 1.07-.882 1.07-.64 0-.64-.608 0-.599.85-1.281.85-.693 2.645-.693 1.334 0 2.069.42.734.42.965.955.242.536.242 1.638v3.475q0 1.218.126 1.564.126.346.546.346.693 0 .86-1.028zm-3.045-3.675-1.144.462q-2.709 1.102-2.709 2.772 0 .661.347 1.07.346.4.903.4.493 0 1.144-.326.65-.326 1.46-.976zM-176.052 369.6q.357-.934 1.155-1.564.808-.63 1.575-.63.693 0 1.092.43.398.43.398.882 0 .305-.21.525-.199.22-.493.22-.525 0-.798-.776-.189-.525-.567-.525-.451 0-1.08.62-.63.608-.81 1.27-.178.66-.178 1.816v1.532q0 1.376.032 1.733.042.356.304.545.263.19.935.19h.293v.482h-4.566v-.483h.22q.63 0 .893-.168.273-.178.325-.493.053-.315.053-1.806v-2.425q0-1.385-.042-1.732-.032-.357-.294-.546-.263-.2-.935-.2h-.22v-.472q.987-.115 2.582-.62.305.83.336 2.195zM-165.89 368.235h-2.593v5.197q0 1.197.105 1.617.105.409.441.66.347.253.735.253.756 0 1.312-.861l.336.2q-.325.692-.965 1.05-.63.346-1.281.346-.756 0-1.333-.441-.567-.452-.714-1.05-.137-.598-.137-2.1v-4.87h-1.25v-.484q.862-.02 1.544-.724.682-.703.871-1.974h.336v2.698h2.593zM-164.084 363.018q0-.452.315-.777.325-.326.777-.326.451 0 .766.326.315.325.315.777 0 .462-.315.787-.315.326-.766.326-.452 0-.777-.326-.315-.325-.315-.787zm2.026 4.388v5.994q0 1.376.042 1.733.042.356.305.545.262.19.934.19h.22v.482h-4.63v-.483h.358q.745 0 .966-.21.23-.22.262-.514.042-.304.042-1.743v-2.603q0-1.512-.147-1.848-.136-.336-.378-.42-.23-.084-.819-.084h-.283v-.483q1.868-.189 2.897-.556zM-151.927 374.25h.462q-.714 2.447-3.57 2.447-1.837 0-3.097-1.25-1.249-1.249-1.249-3.306 0-2.11 1.354-3.423 1.355-1.312 3.202-1.312 1.113 0 2.047.493.935.483.935 1.187 0 .262-.179.493-.168.231-.493.231-.693 0-.85-.808-.126-.61-.389-.85-.273-.242-1.06-.242-1.407 0-2.12.976-.704.976-.704 2.94 0 2.026.756 3.17.766 1.144 2.31 1.144 2.078 0 2.645-1.89zM-147.665 361.915V373.4q0 1.376.032 1.733.042.356.304.545.262.19.934.19h.252v.482h-4.598v-.483h.294q.63 0 .892-.168.273-.178.326-.493.052-.315.052-1.806v-8.503q0-1.354-.241-1.7-.242-.358-1.176-.358v-.483q.64 0 1.501-.147.872-.147 1.197-.294zM-137.22 370.66h-5.994q-.042.62-.042.924 0 2.268.704 3.412.713 1.134 2.12 1.134 1.91 0 2.709-1.711h.504q-.336 1.07-1.334 1.68-.997.598-2.173.598-1.092 0-2.068-.546-.966-.557-1.585-1.564-.62-1.008-.62-2.446 0-2.037 1.197-3.38 1.197-1.355 2.992-1.355 1.69 0 2.614 1.029.924 1.029.977 2.225zm-1.837-.42q.032-.241.032-.43 0-.924-.546-1.428-.535-.514-1.323-.514-1.91 0-2.278 2.372z" style="font-style:normal;-inkscape-font-specification:Baskerville;stroke:#000;stroke-width:.1;stroke-dasharray:none;stroke-opacity:1" transform="translate(333.124 -394.579)"/></g><text xml:space="preserve" x="-411.903" y="360.134" style="font-style:italic;font-variant:normal;font-weight:400;font-stretch:normal;font-size:21.5px;font-family:Baskerville;-inkscape-font-specification:&quot;Baskerville Italic&quot;;text-align:center;text-anchor:middle;fill:#000;stroke:none;stroke-width:0;stroke-miterlimit:2;stroke-dasharray:none" transform="translate(372.817 -306.079)"><tspan x="-411.903" y="360.134" style="font-style:normal;font-variant:normal;font-weight:400;font-stretch:normal;font-size:21.5px;font-family:Baskerville;-inkscape-font-specification:Baskerville">particle</tspan></text><path d="m-114.081 479.605-7.544 2.473 5.61 5.617" style="fill:none;stroke:#000;stroke-width:1;stroke-miterlimit:2;stroke-dasharray:none;stroke-opacity:1" transform="translate(372.817 -306.079)"/><text xml:space="preserve" x="-181.41" y="234.338" style="font-style:normal;font-variant:normal;font-weight:400;font-stretch:normal;font-size:21.5px;font-family:Baskerville;-inkscape-font-specification:Baskerville;text-align:center;text-anchor:middle;fill:none;stroke:#000;stroke-width:1;stroke-miterlimit:2;stroke-dasharray:none;stroke-opacity:1" transform="translate(372.817 -306.079)"><tspan x="-181.41" y="234.338" style="font-style:italic;font-variant:normal;font-weight:400;font-stretch:normal;font-family:&quot;Big Caslon&quot;;-inkscape-font-specification:&quot;Big Caslon Italic&quot;;fill:#000;stroke:none">particle</tspan></text><g aria-label="particle" style="font-style:italic;font-size:21.5px;font-family:Baskerville;-inkscape-font-specification:&quot;Baskerville Italic&quot;;text-align:center;text-anchor:middle;stroke:#000;stroke-width:.1;stroke-miterlimit:2;stroke-dasharray:none;stroke-opacity:1"><path d="M-198.255 367.406h.283q.179.588.179 1.417.672-.714 1.438-1.06.777-.357 1.638-.357 1.784 0 2.97 1.26 1.187 1.249 1.187 3.307 0 2.015-1.197 3.37-1.186 1.354-3.128 1.354-.798 0-1.533-.326-.724-.315-1.375-.945v3.265q0 1.491.052 1.817.063.325.336.482.273.168 1.019.168v.483h-4.494v-.483h.315q.746 0 .966-.22.231-.21.263-.514.042-.294.042-1.733v-7.81q0-1.375-.042-1.732-.032-.357-.294-.546-.263-.19-.935-.19h-.315v-.482q1.04-.105 2.625-.525zm.462 7.328q.567.692 1.197 1.05.64.346 1.343.346 1.187 0 2.068-1.018.882-1.019.882-3.244 0-1.932-.85-2.887-.85-.956-2.026-.956-.725 0-1.375.368-.651.367-1.24 1.113zM-180.24 374.776h.388q-.095 1.795-1.764 1.795-.714 0-1.133-.378-.41-.378-.536-1.123-1.05.745-1.921 1.123-.86.378-1.543.378-.872 0-1.501-.504-.63-.504-.63-1.333 0-1.082 1.05-1.89 1.06-.808 2.918-1.575l1.627-.661v-.42q0-.892-.115-1.291-.116-.4-.599-.714-.483-.315-1.27-.315-1.575 0-1.753 1.05-.168 1.07-.882 1.07-.64 0-.64-.608 0-.599.85-1.281.85-.693 2.645-.693 1.334 0 2.069.42.734.42.965.955.242.536.242 1.638v3.475q0 1.218.126 1.564.126.346.546.346.693 0 .86-1.028zm-3.045-3.675-1.144.462q-2.709 1.102-2.709 2.772 0 .661.347 1.07.346.4.903.4.493 0 1.144-.326.65-.326 1.46-.976zM-176.052 369.6q.357-.934 1.155-1.564.808-.63 1.575-.63.693 0 1.092.43.398.43.398.882 0 .305-.21.525-.199.22-.493.22-.525 0-.798-.776-.189-.525-.567-.525-.451 0-1.08.62-.63.608-.81 1.27-.178.66-.178 1.816v1.532q0 1.376.032 1.733.042.356.304.545.263.19.935.19h.293v.482h-4.566v-.483h.22q.63 0 .893-.168.273-.178.325-.493.053-.315.053-1.806v-2.425q0-1.385-.042-1.732-.032-.357-.294-.546-.263-.2-.935-.2h-.22v-.472q.987-.115 2.582-.62.305.83.336 2.195zM-165.89 368.235h-2.593v5.197q0 1.197.105 1.617.105.409.441.66.347.253.735.253.756 0 1.312-.861l.336.2q-.325.692-.965 1.05-.63.346-1.281.346-.756 0-1.333-.441-.567-.452-.714-1.05-.137-.598-.137-2.1v-4.87h-1.25v-.484q.862-.02 1.544-.724.682-.703.871-1.974h.336v2.698h2.593zM-164.084 363.018q0-.452.315-.777.325-.326.777-.326.451 0 .766.326.315.325.315.777 0 .462-.315.787-.315.326-.766.326-.452 0-.777-.326-.315-.325-.315-.787zm2.026 4.388v5.994q0 1.376.042 1.733.042.356.305.545.262.19.934.19h.22v.482h-4.63v-.483h.358q.745 0 .966-.21.23-.22.262-.514.042-.304.042-1.743v-2.603q0-1.512-.147-1.848-.136-.336-.378-.42-.23-.084-.819-.084h-.283v-.483q1.868-.189 2.897-.556zM-151.927 374.25h.462q-.714 2.447-3.57 2.447-1.837 0-3.097-1.25-1.249-1.249-1.249-3.306 0-2.11 1.354-3.423 1.355-1.312 3.202-1.312 1.113 0 2.047.493.935.483.935 1.187 0 .262-.179.493-.168.231-.493.231-.693 0-.85-.808-.126-.61-.389-.85-.273-.242-1.06-.242-1.407 0-2.12.976-.704.976-.704 2.94 0 2.026.756 3.17.766 1.144 2.31 1.144 2.078 0 2.645-1.89zM-147.665 361.915V373.4q0 1.376.032 1.733.042.356.304.545.262.19.934.19h.252v.482h-4.598v-.483h.294q.63 0 .892-.168.273-.178.326-.493.052-.315.052-1.806v-8.503q0-1.354-.241-1.7-.242-.358-1.176-.358v-.483q.64 0 1.501-.147.872-.147 1.197-.294zM-137.22 370.66h-5.994q-.042.62-.042.924 0 2.268.704 3.412.713 1.134 2.12 1.134 1.91 0 2.709-1.711h.504q-.336 1.07-1.334 1.68-.997.598-2.173.598-1.092 0-2.068-.546-.966-.557-1.585-1.564-.62-1.008-.62-2.446 0-2.037 1.197-3.38 1.197-1.355 2.992-1.355 1.69 0 2.614 1.029.924 1.029.977 2.225zm-1.837-.42q.032-.241.032-.43 0-.924-.546-1.428-.535-.514-1.323-.514-1.91 0-2.278 2.372z" style="font-style:normal;-inkscape-font-specification:Baskerville;stroke:#000;stroke-width:.1;stroke-dasharray:none;stroke-opacity:1" transform="translate(286.67 -422.805)"/></g><g aria-label="particle" style="font-style:italic;font-size:21.5px;font-family:&quot;Big Caslon&quot;;-inkscape-font-specification:&quot;Big Caslon Italic&quot;;text-align:center;text-anchor:middle;stroke-miterlimit:2"><path d="M-268.607 339.976h-.483l1.984-3.18q.872-1.386 1.145-1.964.273-.577.63-1.742l.147-.504h1.26l-.714 2.351-.882 2.478q1.427-2.005 2.708-2.005.777 0 1.323.724.546.714.546 1.795 0 1.27-.651 2.908-.65 1.638-1.848 2.698-1.186 1.06-2.372 1.06-1.134 0-1.438-1.07l-1.229 4.062q-.23.756-.23.924 0 .179.146.305.158.126.893.126h.472l-.147.462h-4.388l.147-.462h.23q.925 0 1.103-.126.179-.126.546-1.313l2.184-7.212q.692-2.257 1.595-4.608-.105.147-.556.944l-.336.536zm1.942 1.607q-.283.934-.283 1.343 0 .515.283.872.284.357.798.357.767 0 1.564-.872.809-.882 1.47-2.918.672-2.047.672-3.076 0-.672-.21-1.008-.21-.336-.63-.336-.567 0-1.512.83-.934.829-1.732 3.432zM-253.133 335.567h1.26l-1.869 6.152q-.409 1.333-.409 1.617 0 .21.095.325.094.105.283.105.724 0 1.67-1.659h.44q-.41.945-1.176 1.722-.756.766-1.396.766-.493 0-.756-.367-.262-.367-.262-.903 0-.43.21-1.123-.473.808-1.376 1.606-.892.787-1.68.787-.734 0-1.27-.619-.524-.63-.524-1.69 0-1.428.818-3.055.82-1.638 2.132-2.73 1.322-1.091 2.257-1.091.546 0 .86.262.326.263.43.787zm-5.49 7.034q0 .693.21 1.05.21.346.63.346.693 0 1.658-1.018.977-1.019 1.69-3.118.714-2.1.714-2.856 0-.44-.23-.745-.22-.315-.64-.315-1.282 0-2.657 2.53t-1.375 4.126zM-250.54 338.244h-.462q.441-1.176 1.103-2.005.672-.83 1.323-.83.45 0 .671.368.22.357.22 1.092 0 .913-.472 2.603.063-.105.347-.755.777-1.754 1.365-2.53.588-.777 1.175-.777.368 0 .588.23.22.232.22.557 0 .315-.188.514-.179.2-.43.2-.284 0-.578-.347-.116-.136-.231-.136-.525 0-1.617 2.53-1.091 2.52-1.763 4.745l-.231.756h-1.26l1.67-5.564q.472-1.596.472-2.163 0-.304-.084-.451-.074-.147-.231-.147-.347 0-.872.745-.514.746-.735 1.365zM-239.349 335.704l-.147.462h-1.574l-1.386 4.587q-.693 2.257-.693 2.625 0 .252.105.388.115.126.325.126.378 0 .987-.714.61-.714 1.092-1.795h.462q-.64 1.564-1.47 2.394-.819.818-1.501.818-.535 0-.86-.377-.316-.378-.316-.956 0-.493.651-2.624l1.354-4.472h-1.448l.147-.462h1.438l.966-3.181h1.26l-.966 3.18zM-236.346 330.78q0-.378.262-.64.273-.273.651-.273t.64.273q.273.262.273.64t-.273.65q-.262.274-.64.274-.388 0-.65-.273-.263-.284-.263-.651zm.777 11.222h.504q-.494 1.019-1.292 1.806-.787.787-1.522.787-.493 0-.871-.346-.368-.357-.368-1.04 0-.556.588-2.13l1.207-3.202q.42-1.124.42-1.365 0-.21-.105-.315-.094-.105-.294-.105-.409 0-.976.64-.556.63-.787 1.145h-.504q.577-1.145 1.312-1.806.745-.661 1.386-.661.493 0 .808.336.315.336.315.881 0 .557-.556 2.037l-1.008 2.73q-.556 1.48-.556 1.858 0 .304.115.462.126.147.357.147.777 0 1.827-1.859zM-229.48 341.32h.42q-.515 1.501-1.439 2.394-.924.881-1.921.881-.84 0-1.365-.63-.514-.64-.514-1.795 0-1.354.693-2.95.703-1.606 1.963-2.708 1.27-1.102 2.236-1.102.556 0 .945.357.388.357.388.86 0 .746-.598.746-.61 0-.64-.83-.022-.619-.473-.619-.588 0-1.365 1.092-.777 1.081-1.333 2.897-.556 1.806-.556 2.75 0 .6.304.956.305.357.735.357.62 0 1.344-.714.735-.724 1.175-1.942zM-224.074 341.782h.462q-1.07 2.813-2.75 2.813-.578 0-.924-.377-.347-.389-.347-.966 0-.567.682-2.803l2.457-8.105q.315-1.029.315-1.197 0-.251-.147-.356-.136-.105-.703-.105h-.41l.137-.441q1.732-.032 2.55-.378h.263l-3.38 11.128q-.074.262-.305.955-.304.913-.304 1.386 0 .315.115.472.126.158.368.158.357 0 .892-.494.536-.493 1.029-1.69zM-218.132 341.625h.504q-1.333 2.97-3.423 2.97-.86 0-1.406-.598-.536-.609-.536-1.638 0-1.301.693-2.94.703-1.637 1.984-2.823 1.292-1.186 2.247-1.186.588 0 .892.378.305.367.305.923 0 1.134-1.134 2.184-1.134 1.04-3.402 2.005-.293.913-.293 1.732 0 .672.262 1.008.262.336.777.336 1.438 0 2.53-2.351zm-3.118-1.26q1.354-.61 2.435-1.68 1.082-1.07 1.082-1.942 0-.399-.168-.588-.158-.2-.483-.2-.63 0-1.49 1.229-.851 1.218-1.376 3.18z" style="font-family:Baskerville;-inkscape-font-specification:&quot;Baskerville Italic&quot;" transform="translate(458.67 -376.644)"/></g><text xml:space="preserve" x="-322.54" y="261.094" style="font-style:italic;font-variant:normal;font-weight:400;font-stretch:normal;font-size:21.5px;font-family:&quot;Song Myung&quot;;-inkscape-font-specification:&quot;Song Myung Italic&quot;;text-align:center;text-anchor:middle;fill:#000;stroke:none;stroke-width:1;stroke-miterlimit:2;stroke-dasharray:none;stroke-opacity:1" transform="translate(372.817 -306.079)"><tspan x="-322.54" y="261.094" style="font-style:normal;font-variant:normal;font-weight:400;font-stretch:normal;font-family:&quot;Song Myung&quot;;-inkscape-font-specification:&quot;Song Myung&quot;">particle</tspan></text><g aria-label="particle" style="font-style:italic;font-size:21.5px;font-family:Baskerville;-inkscape-font-specification:&quot;Baskerville Italic&quot;;text-align:center;text-anchor:middle;stroke:#000;stroke-width:.0980326;stroke-miterlimit:2;stroke-dasharray:none;stroke-opacity:1"><path d="M-198.255 367.406h.283q.179.588.179 1.417.672-.714 1.438-1.06.777-.357 1.638-.357 1.784 0 2.97 1.26 1.187 1.249 1.187 3.307 0 2.015-1.197 3.37-1.186 1.354-3.128 1.354-.798 0-1.533-.326-.724-.315-1.375-.945v3.265q0 1.491.052 1.817.063.325.336.482.273.168 1.019.168v.483h-4.494v-.483h.315q.746 0 .966-.22.231-.21.263-.514.042-.294.042-1.733v-7.81q0-1.375-.042-1.732-.032-.357-.294-.546-.263-.19-.935-.19h-.315v-.482q1.04-.105 2.625-.525zm.462 7.328q.567.692 1.197 1.05.64.346 1.343.346 1.187 0 2.068-1.018.882-1.019.882-3.244 0-1.932-.85-2.887-.85-.956-2.026-.956-.725 0-1.375.368-.651.367-1.24 1.113zM-180.24 374.776h.388q-.095 1.795-1.764 1.795-.714 0-1.133-.378-.41-.378-.536-1.123-1.05.745-1.921 1.123-.86.378-1.543.378-.872 0-1.501-.504-.63-.504-.63-1.333 0-1.082 1.05-1.89 1.06-.808 2.918-1.575l1.627-.661v-.42q0-.892-.115-1.291-.116-.4-.599-.714-.483-.315-1.27-.315-1.575 0-1.753 1.05-.168 1.07-.882 1.07-.64 0-.64-.608 0-.599.85-1.281.85-.693 2.645-.693 1.334 0 2.069.42.734.42.965.955.242.536.242 1.638v3.475q0 1.218.126 1.564.126.346.546.346.693 0 .86-1.028zm-3.045-3.675-1.144.462q-2.709 1.102-2.709 2.772 0 .661.347 1.07.346.4.903.4.493 0 1.144-.326.65-.326 1.46-.976zM-176.052 369.6q.357-.934 1.155-1.564.808-.63 1.575-.63.693 0 1.092.43.398.43.398.882 0 .305-.21.525-.199.22-.493.22-.525 0-.798-.776-.189-.525-.567-.525-.451 0-1.08.62-.63.608-.81 1.27-.178.66-.178 1.816v1.532q0 1.376.032 1.733.042.356.304.545.263.19.935.19h.293v.482h-4.566v-.483h.22q.63 0 .893-.168.273-.178.325-.493.053-.315.053-1.806v-2.425q0-1.385-.042-1.732-.032-.357-.294-.546-.263-.2-.935-.2h-.22v-.472q.987-.115 2.582-.62.305.83.336 2.195zM-165.89 368.235h-2.593v5.197q0 1.197.105 1.617.105.409.441.66.347.253.735.253.756 0 1.312-.861l.336.2q-.325.692-.965 1.05-.63.346-1.281.346-.756 0-1.333-.441-.567-.452-.714-1.05-.137-.598-.137-2.1v-4.87h-1.25v-.484q.862-.02 1.544-.724.682-.703.871-1.974h.336v2.698h2.593zM-164.084 363.018q0-.452.315-.777.325-.326.777-.326.451 0 .766.326.315.325.315.777 0 .462-.315.787-.315.326-.766.326-.452 0-.777-.326-.315-.325-.315-.787zm2.026 4.388v5.994q0 1.376.042 1.733.042.356.305.545.262.19.934.19h.22v.482h-4.63v-.483h.358q.745 0 .966-.21.23-.22.262-.514.042-.304.042-1.743v-2.603q0-1.512-.147-1.848-.136-.336-.378-.42-.23-.084-.819-.084h-.283v-.483q1.868-.189 2.897-.556zM-151.927 374.25h.462q-.714 2.447-3.57 2.447-1.837 0-3.097-1.25-1.249-1.249-1.249-3.306 0-2.11 1.354-3.423 1.355-1.312 3.202-1.312 1.113 0 2.047.493.935.483.935 1.187 0 .262-.179.493-.168.231-.493.231-.693 0-.85-.808-.126-.61-.389-.85-.273-.242-1.06-.242-1.407 0-2.12.976-.704.976-.704 2.94 0 2.026.756 3.17.766 1.144 2.31 1.144 2.078 0 2.645-1.89zM-147.665 361.915V373.4q0 1.376.032 1.733.042.356.304.545.262.19.934.19h.252v.482h-4.598v-.483h.294q.63 0 .892-.168.273-.178.326-.493.052-.315.052-1.806v-8.503q0-1.354-.241-1.7-.242-.358-1.176-.358v-.483q.64 0 1.501-.147.872-.147 1.197-.294zM-137.22 370.66h-5.994q-.042.62-.042.924 0 2.268.704 3.412.713 1.134 2.12 1.134 1.91 0 2.709-1.711h.504q-.336 1.07-1.334 1.68-.997.598-2.173.598-1.092 0-2.068-.546-.966-.557-1.585-1.564-.62-1.008-.62-2.446 0-2.037 1.197-3.38 1.197-1.355 2.992-1.355 1.69 0 2.614 1.029.924 1.029.977 2.225zm-1.837-.42q.032-.241.032-.43 0-.924-.546-1.428-.535-.514-1.323-.514-1.91 0-2.278 2.372z" style="font-style:normal;-inkscape-font-specification:Baskerville;stroke:#000;stroke-width:.0980326;stroke-dasharray:none;stroke-opacity:1" transform="matrix(1.02004 0 0 1.0201 326.256 -313.594)"/></g><path d="M-145.668 404.344v122.807" style="fill:#000;stroke:#000;stroke-width:.7;stroke-miterlimit:2;stroke-dasharray:none;stroke-opacity:1" transform="translate(372.817 -306.079)"/><path d="M-145.668 404.344h-164.929" style="fill:#ffd5d5;stroke:#000;stroke-width:.7;stroke-miterlimit:2;stroke-dasharray:none;stroke-dashoffset:0;stroke-opacity:1" transform="translate(372.817 -306.079)"/><path d="m-75.342 477.655-4.68 6.412 7.833 1.285M-152.618 436.85l-4.1-6.799-4.218 6.726M-99.297 381.492l5.984-5.216-7.355-2.988" style="fill:none;stroke:#000;stroke-width:1;stroke-miterlimit:2;stroke-dasharray:none;stroke-opacity:1" transform="translate(372.817 -306.079)"/><path d="M-50.01 235.252c.486 2.365-6.416 5.675-12.605 7.003-7.945 1.705-17.52 1.592-22.556 1.066-14.51-1.515-29.286-7.875-37.886-17.339-16.76-18.447-16.795-40.46-7.778-56.552 12.258-21.876 41.246-35.253 67.678-36.563 17.925-.888 34.453.655 49.268 5.488" style="fill:none;stroke:#000;stroke-width:1.4;stroke-miterlimit:2;stroke-dasharray:none" transform="translate(372.817 -306.079)"/><path d="m-10.494 392.974 7.872-1.028-4.468-6.562" style="fill:none;stroke:#000;stroke-width:1;stroke-miterlimit:2;stroke-dasharray:none;stroke-opacity:1" transform="translate(372.817 -306.079)"/><path fill="#fed341" stroke="#000" stroke-width="1.2" d="M27.08 94.002h10.176v-4.918l9.182 9.181-9.182 9.182v-4.919H27.08zM156.61 381.845V368.73h-4.92l9.182-9.182 9.182 9.182h-4.92v13.116zM-219.612 7.874h13.116V2.956l9.182 9.181-9.182 9.182V16.4h-13.116zM222.886 255.738V245.56h-4.918l9.181-9.181 9.182 9.181h-4.919v10.177z"/><path d="M-145.668 528.684v11.393M-312.112 404.344h-11.394" style="fill:#000;stroke:#000;stroke-width:1;stroke-miterlimit:2;stroke-dasharray:3,1;stroke-dashoffset:0;stroke-opacity:1" transform="translate(372.817 -306.079)"/><g aria-label="“x-shadow”" style="font-size:18.1859px;font-family:Baskerville;-inkscape-font-specification:Baskerville;text-align:center;text-anchor:middle;stroke:#000;stroke-width:.0999997;stroke-miterlimit:2"><path d="M-184.49 569.28v.461q-1.722.338-1.722 1.927 0 .56.337.56.071 0 .178-.027.204-.062.355-.062.435 0 .693.275.257.275.257.622 0 .346-.266.621-.258.267-.675.267-.568 0-.994-.533-.418-.533-.418-1.421 0-1.03.586-1.75.595-.727 1.67-.94zm4.023 0v.461q-1.722.338-1.722 1.927 0 .56.328.56.071 0 .178-.027.213-.062.355-.062.435 0 .692.275.258.275.258.622 0 .346-.266.621-.258.267-.675.267-.577 0-.995-.533-.417-.542-.417-1.421 0-1.03.595-1.75.595-.727 1.67-.94zM-174.686 577.262l2.042 2.567q.533.666.88.905.355.231.843.25v.408h-3.632v-.409q.897 0 .897-.346 0-.142-.408-.613l-1.439-1.785-1.332 1.58q-.488.57-.488.711 0 .444.985.453v.409h-2.992v-.409q.39 0 .861-.204.47-.204 1.217-1.084l1.5-1.775-1.607-2.034q-.684-.87-1.039-1.11-.355-.249-.834-.249v-.408h3.427v.408q-.737 0-.737.329 0 .15.329.542l1.278 1.58 1.181-1.385q.4-.48.4-.595 0-.47-.977-.47v-.409h2.886v.408q-.87.027-1.802 1.093zM-170.22 577.05h4.36v1.34h-4.36zM-164.43 581.622v-2.388h.347q.603 2.069 2.157 2.069.675 0 1.004-.409.337-.408.337-.897 0-.568-.355-.932-.364-.364-1.412-.88-1.101-.54-1.58-1.065-.48-.515-.48-1.27 0-.719.515-1.367.515-.657 1.447-.657.95 0 1.572.772.133-.133.346-.648h.329v2.247h-.329q-.177-.808-.692-1.385-.506-.586-1.199-.586-.533 0-.861.328-.329.329-.329.764 0 .48.364.826.355.355 1.359.808 1.51.683 1.847 1.332.337.657.337 1.26 0 .95-.63 1.546-.622.595-1.572.595-1.003 0-1.785-.826-.24.266-.39.763zM-156.136 575.318q.533-.746 1.19-1.12.666-.372 1.456-.372.897 0 1.483.373.595.373.773.923.177.542.177 1.767v2.007q0 1.279.045 1.554.053.276.293.409.24.124.888.124v.409h-3.757v-.409h.17q.647 0 .834-.186.195-.187.222-.436.035-.257.035-1.465v-2.184q0-.906-.106-1.341-.107-.435-.506-.72-.391-.283-.986-.283-.693 0-1.243.408-.55.4-.968 1.208v2.912q0 1.226.035 1.51.045.284.276.435.23.142.843.142v.409h-3.694v-.409h.187q.64 0 .826-.178.195-.186.222-.435.035-.257.035-1.474v-7.246q0-1.1-.213-1.394-.204-.293-.995-.293v-.408q1.377 0 2.291-.373h.187zM-141.431 580.06h.329q-.08 1.518-1.492 1.518-.604 0-.96-.32-.346-.32-.452-.95-.888.63-1.625.95-.728.32-1.306.32-.737 0-1.27-.426-.532-.426-.532-1.128 0-.915.888-1.598.897-.684 2.468-1.332l1.377-.56v-.355q0-.755-.098-1.092-.098-.338-.506-.604-.409-.266-1.075-.266-1.331 0-1.482.888-.143.905-.746.905-.542 0-.542-.515 0-.506.72-1.083.719-.586 2.237-.586 1.128 0 1.75.355.62.355.816.808.204.453.204 1.385v2.94q0 1.03.107 1.323.107.293.462.293.586 0 .728-.87zm-2.575-3.108-.968.39q-2.291.933-2.291 2.345 0 .559.293.905.293.338.764.338.417 0 .968-.275.55-.276 1.234-.826zM-134.087 574.891v-2.841q0-1.163-.036-1.465-.027-.302-.249-.462-.222-.16-.79-.16h-.186v-.408q1.074-.027 2.353-.373h.186v9.776q0 1.27.045 1.546.044.275.275.408.24.133.88.133v.409q-1.288.026-2.292.23-.106-.417-.106-1.314-.658.657-1.36.986-.692.329-1.438.329-1.412 0-2.442-1.137-1.02-1.137-1.02-2.753 0-1.776 1.047-2.868 1.048-1.101 2.495-1.101.737 0 1.394.266.658.267 1.244.8zm0 .516q-.586-.507-1.181-.755-.587-.258-1.181-.258-1.004 0-1.679.773-.666.772-.666 2.522 0 1.776.684 2.62.693.843 1.705.843.675 0 1.252-.32t1.066-.959zM-130.766 577.742q0-1.67 1.118-2.788 1.12-1.128 2.753-1.128 1.643 0 2.762 1.128 1.119 1.127 1.119 2.788 0 1.838-1.137 2.895-1.137 1.048-2.744 1.048-1.607 0-2.744-1.066-1.127-1.074-1.127-2.877zm1.474.044q0 1.936.63 2.718.63.772 1.767.772 1.164 0 1.776-.772.622-.782.622-2.718 0-1.918-.613-2.735t-1.785-.817q-1.163 0-1.785.817-.612.808-.612 2.735zM-113.797 581.676h-.4l-2.166-5.772-2.211 5.772h-.391l-2.22-5.772q-.382-.986-.568-1.181-.187-.196-.746-.196v-.408h3.32v.408q-.559 0-.763.107-.204.098-.204.346 0 .178.346 1.04l1.474 3.897 2.256-5.798h.346l2.185 5.798 1.598-4.129q.257-.657.257-.79 0-.435-.896-.47v-.409h2.362v.408q-.427.01-.675.17-.24.15-.444.692l-.196.515zM-109.233 574.004v-.471q1.723-.338 1.723-1.927 0-.56-.329-.56-.07 0-.177.027-.204.062-.355.062-.436 0-.693-.275-.258-.275-.258-.622 0-.346.258-.612.266-.276.684-.276.568 0 .985.533.427.533.427 1.43 0 1.03-.595 1.758-.586.72-1.67.933zm4.023 0v-.471q1.722-.338 1.722-1.927 0-.56-.337-.56-.062 0-.178.027-.204.062-.355.062-.426 0-.692-.275-.258-.275-.258-.622 0-.328.249-.603.257-.285.692-.285.569 0 .986.533.426.533.426 1.43 0 1.03-.595 1.758-.586.72-1.66.933z" transform="matrix(1.00052 0 0 .99948 372.817 -306.079)"/></g><g aria-label="“y-shadow”" style="font-size:19.1494px;font-family:Baskerville;-inkscape-font-specification:Baskerville;text-align:center;text-anchor:middle;stroke:#000;stroke-width:.1;stroke-miterlimit:2"><path d="M362.778 351.789v.486q-1.814.355-1.814 2.029 0 .59.355.59.075 0 .187-.029.215-.065.374-.065.458 0 .73.29.27.29.27.654 0 .365-.28.654-.271.281-.71.281-.599 0-1.048-.561-.44-.561-.44-1.496 0-1.085.618-1.842.626-.767 1.758-.991zm4.235 0v.486q-1.813.355-1.813 2.029 0 .59.345.59.075 0 .187-.029.225-.065.374-.065.459 0 .73.29.271.29.271.654 0 .365-.28.654-.272.281-.711.281-.608 0-1.047-.561-.44-.57-.44-1.496 0-1.085.627-1.842.626-.767 1.757-.991zM372.932 363.093l1.777-4.254q.383-.935.383-1.038 0-.467-1.038-.486v-.43h2.693v.43q-.626.028-.916.336-.29.3-.72 1.338l-3.413 8.237q-.486 1.178-.86 1.599-.374.43-.823.43-.608 0-.608-.552 0-.635.973-1.075.57-.252.757-.43.196-.178.383-.645l.73-1.823-2.88-6.172q-.384-.813-.636-1.028-.253-.215-.86-.215v-.43h3.515v.43q-.925.028-.925.383 0 .14.364.917zM377.411 359.97h4.591v1.412h-4.591zM383.507 364.786v-2.516h.365q.636 2.18 2.272 2.18.71 0 1.057-.431.355-.43.355-.944 0-.599-.374-.982-.383-.384-1.487-.926-1.16-.57-1.664-1.122-.505-.542-.505-1.337 0-.757.542-1.44.543-.692 1.524-.692 1.001 0 1.655.814.14-.14.365-.683h.346v2.366h-.346q-.187-.851-.73-1.459-.532-.617-1.261-.617-.561 0-.907.346t-.346.804q0 .505.383.87.374.374 1.43.85 1.59.72 1.945 1.403.356.692.356 1.328 0 1-.664 1.627-.655.626-1.655.626-1.057 0-1.88-.87-.252.281-.411.805zM392.24 358.147q.562-.785 1.253-1.178.702-.393 1.534-.393.944 0 1.561.393.627.393.814.972.187.57.187 1.861v2.113q0 1.347.047 1.636.056.29.308.43.253.131.935.131v.43h-3.955v-.43h.178q.682 0 .879-.196.205-.196.233-.458.038-.271.038-1.543v-2.3q0-.954-.112-1.412-.113-.458-.533-.757-.412-.3-1.038-.3-.73 0-1.31.43-.579.421-1.019 1.272v3.067q0 1.29.038 1.59.047.299.29.458.243.15.888.15v.43h-3.89v-.43h.197q.673 0 .87-.188.205-.196.233-.458.037-.27.037-1.552v-7.63q0-1.16-.224-1.468-.215-.308-1.047-.308v-.43q1.45 0 2.412-.393h.196zM407.725 363.14h.346q-.085 1.599-1.571 1.599-.636 0-1.01-.337-.365-.336-.477-1-.935.664-1.711 1-.767.337-1.375.337-.776 0-1.337-.449-.56-.449-.56-1.187 0-.963.934-1.683.945-.72 2.6-1.403l1.449-.589v-.374q0-.795-.103-1.15-.103-.355-.533-.636-.43-.28-1.131-.28-1.403 0-1.562.935-.15.953-.785.953-.57 0-.57-.542 0-.533.757-1.14.757-.618 2.356-.618 1.188 0 1.842.374.655.374.86.851.215.477.215 1.459v3.095q0 1.084.113 1.393.112.308.486.308.617 0 .767-.916zm-2.712-3.273-1.02.412q-2.412.982-2.412 2.468 0 .59.309.954.309.355.804.355.44 0 1.02-.29.58-.29 1.299-.87zM415.457 357.698v-2.992q0-1.225-.037-1.543-.028-.318-.262-.486-.234-.168-.832-.168h-.196v-.43q1.131-.028 2.477-.393h.197v10.295q0 1.337.047 1.627.046.29.29.43.252.14.925.14v.43q-1.356.028-2.412.243-.112-.44-.112-1.384-.692.692-1.431 1.038-.73.346-1.515.346-1.487 0-2.571-1.197-1.075-1.197-1.075-2.898 0-1.87 1.103-3.02 1.103-1.16 2.627-1.16.776 0 1.468.28.692.281 1.31.842zm0 .543q-.617-.533-1.243-.795-.617-.271-1.244-.271-1.056 0-1.767.813-.701.814-.701 2.656 0 1.87.72 2.758.729.888 1.795.888.71 0 1.318-.336.608-.337 1.122-1.01zM418.954 360.7q0-1.758 1.178-2.936 1.179-1.188 2.9-1.188 1.729 0 2.907 1.188 1.178 1.187 1.178 2.936 0 1.935-1.197 3.048-1.197 1.103-2.889 1.103-1.692 0-2.89-1.122-1.187-1.131-1.187-3.03zm1.552.046q0 2.039.664 2.862.664.813 1.861.813 1.225 0 1.87-.813.655-.823.655-2.862 0-2.02-.646-2.88-.645-.86-1.879-.86-1.225 0-1.88.86-.645.851-.645 2.88zM436.823 364.842h-.421l-2.281-6.078-2.329 6.078h-.411l-2.338-6.078q-.402-1.038-.598-1.243-.196-.206-.786-.206v-.43h3.497v.43q-.589 0-.804.112-.215.103-.215.365 0 .187.365 1.094l1.552 4.104 2.375-6.105h.365l2.3 6.105 1.683-4.347q.271-.692.271-.833 0-.458-.944-.495v-.43h2.487v.43q-.449.009-.71.177-.253.16-.468.73l-.206.542zM441.629 356.763v-.495q1.814-.356 1.814-2.03 0-.588-.346-.588-.075 0-.187.028-.215.065-.374.065-.458 0-.73-.29-.27-.29-.27-.654 0-.365.27-.646.281-.29.72-.29.599 0 1.038.562.45.56.45 1.505 0 1.085-.627 1.851-.617.758-1.758.982zm4.235 0v-.495q1.814-.356 1.814-2.03 0-.588-.355-.588-.065 0-.187.028-.215.065-.374.065-.449 0-.73-.29-.27-.29-.27-.654 0-.346.261-.636.272-.3.73-.3.598 0 1.038.562.448.56.448 1.505 0 1.085-.626 1.851-.617.758-1.749.982z" transform="matrix(0 1.00025 -.99975 0 372.817 -306.079)"/></g><text xml:space="preserve" x="-345.553" y="675.16" style="font-style:normal;font-variant:normal;font-weight:400;font-stretch:normal;font-size:21.5px;font-family:Baskerville;-inkscape-font-specification:Baskerville;text-align:center;text-anchor:middle;fill:#000;stroke:#000;stroke-width:.1;stroke-miterlimit:2;stroke-dasharray:none;stroke-dashoffset:0;stroke-opacity:1" transform="translate(372.817 -306.079)"><tspan x="-345.553" y="675.16">“x-shadow”</tspan></text><text xml:space="preserve" x="500.897" y="565.538" style="font-style:normal;font-variant:normal;font-weight:400;font-stretch:normal;font-size:21.5px;font-family:Baskerville;-inkscape-font-specification:Baskerville;text-align:center;text-anchor:middle;fill:#000;stroke:#000;stroke-width:.1;stroke-miterlimit:2;stroke-dasharray:none;stroke-dashoffset:0;stroke-opacity:1" transform="rotate(90 339.448 33.37)"><tspan x="500.897" y="565.538">“y-shadow”</tspan></text><path d="M-180.922 372.608c14.874.107 26.732 10.632 29.522 19.543" style="fill:none;stroke:#000;stroke-width:1;stroke-miterlimit:2;stroke-dasharray:none;stroke-dashoffset:0;stroke-opacity:1" transform="translate(372.817 -306.079)"/><path d="M-149.078 385.214c-1.524 1.1-2.409 5.593-2.25 6.628-.722-.763-4.86-2.835-6.686-2.321" style="fill:none;stroke:#000;stroke-width:1.4;stroke-linecap:round;stroke-linejoin:round;stroke-miterlimit:10;stroke-dasharray:none;stroke-opacity:1" transform="translate(372.817 -306.079)"/><path d="M-9.68 349.25c-14.874.107-25.856 11.2-27.97 23.384" style="fill:none;stroke:#000;stroke-width:1;stroke-miterlimit:2;stroke-dasharray:none;stroke-dashoffset:0;stroke-opacity:1" transform="translate(372.817 -306.079)"/><path d="M-31.832 368.743c-1.88-.053-5.315 2.974-5.818 3.891-.109-1.044-2.132-5.206-3.894-5.909" style="fill:none;stroke:#000;stroke-width:1.4;stroke-linecap:round;stroke-linejoin:round;stroke-miterlimit:10;stroke-dasharray:none;stroke-opacity:1" transform="translate(372.817 -306.079)"/><g style="stroke-width:1.14414"><path d="M-5.356 339.145h.233q.147.485.147 1.168.554-.588 1.185-.874.64-.294 1.349-.294 1.47 0 2.447 1.038.977 1.03.977 2.725 0 1.661-.986 2.777-.977 1.116-2.576 1.116-.658 0-1.263-.268-.596-.26-1.133-.779v2.69q0 1.23.044 1.498.052.268.276.398.225.138.84.138v.398h-3.702v-.398h.26q.614 0 .795-.182.19-.173.216-.424.035-.242.035-1.427v-6.436q0-1.134-.035-1.428-.025-.294-.242-.45-.216-.155-.77-.155h-.259v-.398q.856-.087 2.162-.433zm.38 6.039q.467.57.986.865.528.285 1.107.285.977 0 1.703-.84.727-.838.727-2.672 0-1.592-.7-2.38-.701-.786-1.67-.786-.596 0-1.132.302-.536.303-1.02.917zM9.481 345.218h.32q-.078 1.48-1.452 1.48-.588 0-.934-.312-.337-.311-.441-.926-.865.615-1.583.926-.709.311-1.27.311-.718 0-1.237-.415-.519-.415-.519-1.098 0-.892.865-1.558.873-.666 2.404-1.297l1.34-.545v-.346q0-.736-.095-1.064-.095-.33-.493-.589-.398-.26-1.046-.26-1.297 0-1.444.866-.139.882-.727.882-.527 0-.527-.502 0-.493.7-1.055.7-.57 2.18-.57 1.097 0 1.702.345.606.346.796.787.199.442.199 1.35v2.863q0 1.004.104 1.29.103.285.45.285.57 0 .708-.848zm-2.507-3.028-.943.38q-2.23.91-2.23 2.285 0 .545.285.882.285.329.743.329.407 0 .943-.268t1.202-.805zM14.669 339.829h-2.136v4.282q0 .986.087 1.332.086.337.363.545.285.208.605.208.623 0 1.081-.71l.277.165q-.268.57-.796.865-.519.285-1.055.285-.622 0-1.098-.363-.467-.372-.588-.865-.112-.493-.112-1.73v-4.014h-1.029v-.398q.709-.018 1.271-.597.562-.58.718-1.627h.276v2.224h2.136zM17.86 340.598q.518-.726 1.158-1.09.649-.363 1.418-.363.873 0 1.444.363.58.364.752.9.173.528.173 1.722v1.955q0 1.246.043 1.514.052.268.286.398.233.12.864.12v.399h-3.657v-.398h.164q.632 0 .813-.182.19-.182.216-.424.035-.25.035-1.427v-2.128q0-.883-.104-1.307-.104-.424-.493-.7-.38-.277-.96-.277-.674 0-1.21.398-.536.389-.942 1.176v2.838q0 1.194.034 1.47.043.277.268.424.225.139.822.139v.398h-3.597v-.398h.181q.623 0 .804-.173.19-.182.217-.424.034-.251.034-1.436v-7.06q0-1.072-.207-1.358-.2-.285-.969-.285v-.398q1.34 0 2.23-.363h.183z" style="font-size:21.5px;font-family:Baskerville;-inkscape-font-specification:Baskerville;text-align:center;text-anchor:middle;stroke:#000;stroke-width:.114414;stroke-miterlimit:2;stroke-dasharray:none;stroke-opacity:1" transform="matrix(.8741 0 0 .87394 383.069 -341.362)"/></g><g style="stroke-width:1.14414"><path d="M29.463 342.96q0-1.626 1.09-2.716 1.089-1.099 2.68-1.099 1.6 0 2.689 1.099 1.09 1.098 1.09 2.716 0 1.791-1.107 2.82-1.107 1.021-2.672 1.021-1.565 0-2.672-1.038-1.098-1.047-1.098-2.803zm1.435.043q0 1.886.614 2.648.614.752 1.72.752 1.133 0 1.73-.752.605-.762.605-2.648 0-1.868-.596-2.664-.597-.796-1.738-.796-1.133 0-1.738.796-.597.787-.597 2.664zM41.966 339.43v.399h-1.479v4.256q0 1.133.026 1.427.035.294.25.45.217.156.77.156h.372v.398h-3.83v-.398q.596 0 .821-.121.234-.121.285-.364.061-.25.061-1.548v-4.256h-1.323v-.398h1.323v-.64q0-1.073.086-1.662.087-.588.485-1.21.406-.632 1.011-.97.614-.337 1.453-.337 1.02 0 1.634.424.614.424.614.865 0 .25-.173.415-.173.165-.406.165-.459 0-.84-.71-.423-.778-1.097-.778-.545 0-.96.398-.406.389-.484.977-.078.588-.078 2.526v.537z" style="font-size:21.5px;font-family:Baskerville;-inkscape-font-specification:Baskerville;text-align:center;text-anchor:middle;stroke:#000;stroke-width:.114414;stroke-miterlimit:2;stroke-dasharray:none;stroke-opacity:1" transform="matrix(.8741 0 0 .87394 383.069 -341.362)"/></g><g style="stroke-width:1.14414"><path d="M-6.921 361.292h.233q.147.484.147 1.168.554-.589 1.185-.874.64-.294 1.349-.294 1.47 0 2.447 1.038.977 1.03.977 2.725 0 1.66-.986 2.777-.977 1.116-2.576 1.116-.658 0-1.263-.268-.596-.26-1.133-.779v2.69q0 1.229.044 1.497.052.268.276.398.225.139.84.139v.397h-3.702v-.397h.26q.614 0 .795-.182.19-.173.216-.424.035-.242.035-1.427v-6.437q0-1.133-.035-1.427-.025-.294-.242-.45-.216-.156-.77-.156h-.259v-.398q.856-.086 2.162-.432zm.38 6.038q.467.571.986.865.528.286 1.107.286.977 0 1.703-.84.727-.839.727-2.673 0-1.591-.7-2.379-.701-.787-1.67-.787-.596 0-1.132.303-.536.303-1.02.917zM7.916 367.365h.32q-.078 1.479-1.452 1.479-.588 0-.934-.311-.337-.312-.441-.926-.865.614-1.583.926-.709.311-1.27.311-.718 0-1.237-.415Q.8 368.014.8 367.33q0-.89.865-1.557.873-.666 2.404-1.298l1.34-.545v-.346q0-.735-.095-1.064-.095-.329-.493-.588-.398-.26-1.046-.26-1.297 0-1.444.865-.139.883-.727.883-.527 0-.527-.502 0-.493.7-1.055.7-.571 2.18-.571 1.097 0 1.703.346.605.346.795.787.199.441.199 1.35v2.863q0 1.004.104 1.289.103.286.45.286.57 0 .708-.848zm-2.507-3.028-.943.38q-2.23.909-2.23 2.284 0 .545.285.883.285.329.743.329.407 0 .943-.269.536-.268 1.202-.804zM11.366 363.1q.294-.77.951-1.29.666-.518 1.297-.518.57 0 .9.354.328.355.328.727 0 .251-.173.433-.164.181-.406.181-.433 0-.657-.64-.156-.432-.467-.432-.372 0-.891.51-.519.502-.666 1.047-.147.545-.147 1.496v1.263q0 1.134.026 1.428.035.294.251.45.216.155.77.155h.242v.398H8.962v-.398h.182q.519 0 .735-.138.225-.147.268-.407.043-.26.043-1.488v-1.998q0-1.142-.034-1.427-.026-.294-.242-.45-.217-.165-.77-.165h-.182v-.389q.813-.095 2.127-.51.251.683.277 1.808zM19.736 361.975H17.6v4.282q0 .987.087 1.333.086.337.363.545.285.207.605.207.623 0 1.08-.71l.277.165q-.268.571-.795.865-.519.286-1.055.286-.622 0-1.098-.363-.467-.372-.588-.866-.112-.493-.112-1.73v-4.014h-1.03v-.398q.71-.017 1.272-.597t.717-1.626h.277v2.223h2.136zM21.223 357.676q0-.372.26-.64.267-.269.64-.269.371 0 .63.268.26.269.26.64 0 .381-.26.65-.259.268-.63.268-.373 0-.64-.269-.26-.268-.26-.648zm1.669 3.616v4.94q0 1.133.034 1.427.035.294.251.45.216.155.77.155h.181v.398h-3.813v-.398h.294q.614 0 .796-.173.19-.181.216-.423.034-.251.034-1.437v-2.145q0-1.246-.12-1.523-.113-.276-.312-.346-.19-.069-.674-.069h-.234v-.398q1.54-.155 2.386-.458zM31.235 366.932h.38q-.587 2.016-2.939 2.016-1.513 0-2.55-1.03-1.03-1.03-1.03-2.725 0-1.739 1.116-2.82 1.115-1.081 2.637-1.081.917 0 1.686.406.77.398.77.978 0 .216-.147.406-.139.19-.407.19-.57 0-.7-.665-.104-.502-.32-.701-.225-.199-.873-.199-1.159 0-1.747.804-.58.805-.58 2.423 0 1.67.623 2.612.632.943 1.903.943 1.712 0 2.178-1.557zM34.746 356.767v9.464q0 1.134.026 1.428.034.294.25.45.217.155.77.155H36v.398h-3.787v-.398h.242q.518 0 .735-.138.224-.147.268-.407.043-.26.043-1.488v-7.007q0-1.116-.199-1.401-.199-.294-.968-.294v-.398q.527 0 1.236-.122.718-.12.986-.242zM43.349 363.974h-4.937q-.035.51-.035.76 0 1.87.58 2.812.588.935 1.746.935 1.574 0 2.231-1.41h.415q-.277.882-1.098 1.384-.821.493-1.79.493-.9 0-1.703-.45-.796-.458-1.306-1.289-.51-.83-.51-2.016 0-1.678.986-2.785.985-1.116 2.464-1.116 1.392 0 2.153.848.76.847.804 1.834zm-1.513-.347q.026-.198.026-.354 0-.762-.45-1.177-.44-.424-1.09-.424-1.573 0-1.875 1.955z" style="font-size:21.5px;font-family:Baskerville;-inkscape-font-specification:Baskerville;text-align:center;text-anchor:middle;stroke:#000;stroke-width:.114414;stroke-miterlimit:2;stroke-dasharray:none;stroke-opacity:1" transform="matrix(.8741 0 0 .87394 384.098 -342.343)"/></g><g style="stroke-width:1.14414"><path d="M-6.921 361.292h.233q.147.484.147 1.168.554-.589 1.185-.874.64-.294 1.349-.294 1.47 0 2.447 1.038.977 1.03.977 2.725 0 1.66-.986 2.777-.977 1.116-2.576 1.116-.658 0-1.263-.268-.596-.26-1.133-.779v2.69q0 1.229.044 1.497.052.268.276.398.225.139.84.139v.397h-3.702v-.397h.26q.614 0 .795-.182.19-.173.216-.424.035-.242.035-1.427v-6.437q0-1.133-.035-1.427-.025-.294-.242-.45-.216-.156-.77-.156h-.259v-.398q.856-.086 2.162-.432zm.38 6.038q.467.571.986.865.528.286 1.107.286.977 0 1.703-.84.727-.839.727-2.673 0-1.591-.7-2.379-.701-.787-1.67-.787-.596 0-1.132.303-.536.303-1.02.917zM7.916 367.365h.32q-.078 1.479-1.452 1.479-.588 0-.934-.311-.337-.312-.441-.926-.865.614-1.583.926-.709.311-1.27.311-.718 0-1.237-.415Q.8 368.014.8 367.33q0-.89.865-1.557.873-.666 2.404-1.298l1.34-.545v-.346q0-.735-.095-1.064-.095-.329-.493-.588-.398-.26-1.046-.26-1.297 0-1.444.865-.139.883-.727.883-.527 0-.527-.502 0-.493.7-1.055.7-.571 2.18-.571 1.097 0 1.703.346.605.346.795.787.199.441.199 1.35v2.863q0 1.004.104 1.289.103.286.45.286.57 0 .708-.848zm-2.507-3.028-.943.38q-2.23.909-2.23 2.284 0 .545.285.883.285.329.743.329.407 0 .943-.269.536-.268 1.202-.804zM11.366 363.1q.294-.77.951-1.29.666-.518 1.297-.518.57 0 .9.354.328.355.328.727 0 .251-.173.433-.164.181-.406.181-.433 0-.657-.64-.156-.432-.467-.432-.372 0-.891.51-.519.502-.666 1.047-.147.545-.147 1.496v1.263q0 1.134.026 1.428.035.294.251.45.216.155.77.155h.242v.398H8.962v-.398h.182q.519 0 .735-.138.225-.147.268-.407.043-.26.043-1.488v-1.998q0-1.142-.034-1.427-.026-.294-.242-.45-.217-.165-.77-.165h-.182v-.389q.813-.095 2.127-.51.251.683.277 1.808zM19.736 361.975H17.6v4.282q0 .987.087 1.333.086.337.363.545.285.207.605.207.623 0 1.08-.71l.277.165q-.268.571-.795.865-.519.286-1.055.286-.622 0-1.098-.363-.467-.372-.588-.866-.112-.493-.112-1.73v-4.014h-1.03v-.398q.71-.017 1.272-.597t.717-1.626h.277v2.223h2.136zM21.223 357.676q0-.372.26-.64.267-.269.64-.269.371 0 .63.268.26.269.26.64 0 .381-.26.65-.259.268-.63.268-.373 0-.64-.269-.26-.268-.26-.648zm1.669 3.616v4.94q0 1.133.034 1.427.035.294.251.45.216.155.77.155h.181v.398h-3.813v-.398h.294q.614 0 .796-.173.19-.181.216-.423.034-.251.034-1.437v-2.145q0-1.246-.12-1.523-.113-.276-.312-.346-.19-.069-.674-.069h-.234v-.398q1.54-.155 2.386-.458zM31.235 366.932h.38q-.587 2.016-2.939 2.016-1.513 0-2.55-1.03-1.03-1.03-1.03-2.725 0-1.739 1.116-2.82 1.115-1.081 2.637-1.081.917 0 1.686.406.77.398.77.978 0 .216-.147.406-.139.19-.407.19-.57 0-.7-.665-.104-.502-.32-.701-.225-.199-.873-.199-1.159 0-1.747.804-.58.805-.58 2.423 0 1.67.623 2.612.632.943 1.903.943 1.712 0 2.178-1.557zM34.746 356.767v9.464q0 1.134.026 1.428.034.294.25.45.217.155.77.155H36v.398h-3.787v-.398h.242q.518 0 .735-.138.224-.147.268-.407.043-.26.043-1.488v-7.007q0-1.116-.199-1.401-.199-.294-.968-.294v-.398q.527 0 1.236-.122.718-.12.986-.242zM43.349 363.974h-4.937q-.035.51-.035.76 0 1.87.58 2.812.588.935 1.746.935 1.574 0 2.231-1.41h.415q-.277.882-1.098 1.384-.821.493-1.79.493-.9 0-1.703-.45-.796-.458-1.306-1.289-.51-.83-.51-2.016 0-1.678.986-2.785.985-1.116 2.464-1.116 1.392 0 2.153.848.76.847.804 1.834zm-1.513-.347q.026-.198.026-.354 0-.762-.45-1.177-.44-.424-1.09-.424-1.573 0-1.875 1.955z" style="font-size:21.5px;font-family:Baskerville;-inkscape-font-specification:Baskerville;text-align:center;text-anchor:middle;stroke:#000;stroke-width:.114414;stroke-miterlimit:2;stroke-dasharray:none;stroke-opacity:1" transform="matrix(.8741 0 0 .87394 374.395 -276.224)"/></g><g style="stroke-width:1.14414"><path d="M-5.356 339.145h.233q.147.485.147 1.168.554-.588 1.185-.874.64-.294 1.349-.294 1.47 0 2.447 1.038.977 1.03.977 2.725 0 1.661-.986 2.777-.977 1.116-2.576 1.116-.658 0-1.263-.268-.596-.26-1.133-.779v2.69q0 1.23.044 1.498.052.268.276.398.225.138.84.138v.398h-3.702v-.398h.26q.614 0 .795-.182.19-.173.216-.424.035-.242.035-1.427v-6.436q0-1.134-.035-1.428-.025-.294-.242-.45-.216-.155-.77-.155h-.259v-.398q.856-.087 2.162-.433zm.38 6.039q.467.57.986.865.528.285 1.107.285.977 0 1.703-.84.727-.838.727-2.672 0-1.592-.7-2.38-.701-.786-1.67-.786-.596 0-1.132.302-.536.303-1.02.917zM9.481 345.218h.32q-.078 1.48-1.452 1.48-.588 0-.934-.312-.337-.311-.441-.926-.865.615-1.583.926-.709.311-1.27.311-.718 0-1.237-.415-.519-.415-.519-1.098 0-.892.865-1.558.873-.666 2.404-1.297l1.34-.545v-.346q0-.736-.095-1.064-.095-.33-.493-.589-.398-.26-1.046-.26-1.297 0-1.444.866-.139.882-.727.882-.527 0-.527-.502 0-.493.7-1.055.7-.57 2.18-.57 1.097 0 1.702.345.606.346.796.787.199.442.199 1.35v2.863q0 1.004.104 1.29.103.285.45.285.57 0 .708-.848zm-2.507-3.028-.943.38q-2.23.91-2.23 2.285 0 .545.285.882.285.329.743.329.407 0 .943-.268t1.202-.805zM14.669 339.829h-2.136v4.282q0 .986.087 1.332.086.337.363.545.285.208.605.208.623 0 1.081-.71l.277.165q-.268.57-.796.865-.519.285-1.055.285-.622 0-1.098-.363-.467-.372-.588-.865-.112-.493-.112-1.73v-4.014h-1.029v-.398q.709-.018 1.271-.597.562-.58.718-1.627h.276v2.224h2.136zM17.86 340.598q.518-.726 1.158-1.09.649-.363 1.418-.363.873 0 1.444.363.58.364.752.9.173.528.173 1.722v1.955q0 1.246.043 1.514.052.268.286.398.233.12.864.12v.399h-3.657v-.398h.164q.632 0 .813-.182.19-.182.216-.424.035-.25.035-1.427v-2.128q0-.883-.104-1.307-.104-.424-.493-.7-.38-.277-.96-.277-.674 0-1.21.398-.536.389-.942 1.176v2.838q0 1.194.034 1.47.043.277.268.424.225.139.822.139v.398h-3.597v-.398h.181q.623 0 .804-.173.19-.182.217-.424.034-.251.034-1.436v-7.06q0-1.072-.207-1.358-.2-.285-.969-.285v-.398q1.34 0 2.23-.363h.183z" style="font-size:21.5px;font-family:Baskerville;-inkscape-font-specification:Baskerville;text-align:center;text-anchor:middle;stroke:#000;stroke-width:.114414;stroke-miterlimit:2;stroke-dasharray:none;stroke-opacity:1" transform="matrix(.8741 0 0 .87394 425.43 -256.869)"/></g><g style="stroke-width:1.14414"><path d="M-5.356 339.145h.233q.147.485.147 1.168.554-.588 1.185-.874.64-.294 1.349-.294 1.47 0 2.447 1.038.977 1.03.977 2.725 0 1.661-.986 2.777-.977 1.116-2.576 1.116-.658 0-1.263-.268-.596-.26-1.133-.779v2.69q0 1.23.044 1.498.052.268.276.398.225.138.84.138v.398h-3.702v-.398h.26q.614 0 .795-.182.19-.173.216-.424.035-.242.035-1.427v-6.436q0-1.134-.035-1.428-.025-.294-.242-.45-.216-.155-.77-.155h-.259v-.398q.856-.087 2.162-.433zm.38 6.039q.467.57.986.865.528.285 1.107.285.977 0 1.703-.84.727-.838.727-2.672 0-1.592-.7-2.38-.701-.786-1.67-.786-.596 0-1.132.302-.536.303-1.02.917zM9.481 345.218h.32q-.078 1.48-1.452 1.48-.588 0-.934-.312-.337-.311-.441-.926-.865.615-1.583.926-.709.311-1.27.311-.718 0-1.237-.415-.519-.415-.519-1.098 0-.892.865-1.558.873-.666 2.404-1.297l1.34-.545v-.346q0-.736-.095-1.064-.095-.33-.493-.589-.398-.26-1.046-.26-1.297 0-1.444.866-.139.882-.727.882-.527 0-.527-.502 0-.493.7-1.055.7-.57 2.18-.57 1.097 0 1.702.345.606.346.796.787.199.442.199 1.35v2.863q0 1.004.104 1.29.103.285.45.285.57 0 .708-.848zm-2.507-3.028-.943.38q-2.23.91-2.23 2.285 0 .545.285.882.285.329.743.329.407 0 .943-.268t1.202-.805zM14.669 339.829h-2.136v4.282q0 .986.087 1.332.086.337.363.545.285.208.605.208.623 0 1.081-.71l.277.165q-.268.57-.796.865-.519.285-1.055.285-.622 0-1.098-.363-.467-.372-.588-.865-.112-.493-.112-1.73v-4.014h-1.029v-.398q.709-.018 1.271-.597.562-.58.718-1.627h.276v2.224h2.136zM17.86 340.598q.518-.726 1.158-1.09.649-.363 1.418-.363.873 0 1.444.363.58.364.752.9.173.528.173 1.722v1.955q0 1.246.043 1.514.052.268.286.398.233.12.864.12v.399h-3.657v-.398h.164q.632 0 .813-.182.19-.182.216-.424.035-.25.035-1.427v-2.128q0-.883-.104-1.307-.104-.424-.493-.7-.38-.277-.96-.277-.674 0-1.21.398-.536.389-.942 1.176v2.838q0 1.194.034 1.47.043.277.268.424.225.139.822.139v.398h-3.597v-.398h.181q.623 0 .804-.173.19-.182.217-.424.034-.251.034-1.436v-7.06q0-1.072-.207-1.358-.2-.285-.969-.285v-.398q1.34 0 2.23-.363h.183z" style="font-size:21.5px;font-family:Baskerville;-inkscape-font-specification:Baskerville;text-align:center;text-anchor:middle;stroke:#000;stroke-width:.114414;stroke-miterlimit:2;stroke-dasharray:none;stroke-opacity:1" transform="matrix(.8741 0 0 .87394 485.388 -319.396)"/></g><path d="M-.968 265.015c-14.873.106-25.38 12.815-28.17 23.285" style="fill:none;stroke:#000;stroke-width:1;stroke-miterlimit:2;stroke-dasharray:none;stroke-dashoffset:0;stroke-opacity:1" transform="translate(372.817 -306.079)"/><path d="M-22.933 285.073c-1.863-.256-5.606 2.38-6.206 3.238.006-1.05-1.555-5.406-3.23-6.296" style="fill:none;stroke:#000;stroke-width:1.4;stroke-linecap:round;stroke-linejoin:round;stroke-miterlimit:10;stroke-dasharray:none;stroke-opacity:1" transform="translate(372.817 -306.079)"/></g><g style="display:inline"><g style="fill:#000;fill-opacity:1;stroke:#000;stroke-width:.04;stroke-miterlimit:4;stroke-dasharray:none"><use xlink:href="#glyph1-3-52-1" width="100%" height="100%" x="308.52" y="200.52" style="stroke:#000;stroke-width:.04;stroke-miterlimit:4;stroke-dasharray:none" transform="translate(-35.682 517.136)"/></g><g style="fill:#000;fill-opacity:1;stroke:#000;stroke-width:.04;stroke-miterlimit:4;stroke-dasharray:none"><use xlink:href="#glyph0-1-03-4" width="100%" height="100%" x="270" y="200.52" style="stroke:#000;stroke-width:.04;stroke-miterlimit:4;stroke-dasharray:none" transform="translate(-36.162 517.136)"/></g><g style="fill:#000;fill-opacity:1;stroke:#000;stroke-width:.04;stroke-miterlimit:4;stroke-dasharray:none"><use xlink:href="#glyph1-1-9-6" width="100%" height="100%" x="275.04" y="200.52" style="stroke:#000;stroke-width:.04;stroke-miterlimit:4;stroke-dasharray:none" transform="translate(-36.162 517.136)"/></g><g style="fill:#000;fill-opacity:1;stroke:#000;stroke-width:.04;stroke-miterlimit:4;stroke-dasharray:none"><use xlink:href="#glyph0-2-2-9" width="100%" height="100%" x="278.88" y="200.52" style="stroke:#000;stroke-width:.04;stroke-miterlimit:4;stroke-dasharray:none" transform="translate(-36.162 517.136)"/></g><g style="fill:#000;fill-opacity:1;stroke:#000;stroke-width:.04;stroke-miterlimit:4;stroke-dasharray:none"><use xlink:href="#glyph2-1-9-8" width="100%" height="100%" x="284.76" y="200.52" style="stroke:#000;stroke-width:.04;stroke-miterlimit:4;stroke-dasharray:none" transform="translate(-36.162 517.136)"/></g><g style="fill:#000;fill-opacity:1;stroke:#000;stroke-width:.04;stroke-miterlimit:4;stroke-dasharray:none" transform="translate(-36.162 517.136)"><use xlink:href="#glyph0-2-2-9" width="100%" height="100%" x="294" y="200.52" style="stroke:#000;stroke-width:.04;stroke-miterlimit:4;stroke-dasharray:none"/></g><g style="fill:#000;fill-opacity:1;stroke:#000;stroke-width:.04;stroke-miterlimit:4;stroke-dasharray:none" transform="translate(-36.162 517.136)"><use xlink:href="#glyph3-1-5-4" width="100%" height="100%" x="298.44" y="202.08" style="stroke:#000;stroke-width:.04;stroke-miterlimit:4;stroke-dasharray:none"/></g><g style="fill:#000;fill-opacity:1;stroke:#000;stroke-width:.04;stroke-miterlimit:4;stroke-dasharray:none"><use xlink:href="#glyph1-2-8-1" width="100%" height="100%" x="302.4" y="200.52" style="stroke:#000;stroke-width:.04;stroke-miterlimit:4;stroke-dasharray:none" transform="translate(-36.162 517.136)"/></g><g style="fill:#000;fill-opacity:1;stroke:#000;stroke-width:.04;stroke-miterlimit:4;stroke-dasharray:none"><use xlink:href="#glyph0-3-5-2" width="100%" height="100%" x="318.48" y="200.52" style="stroke:#000;stroke-width:.04;stroke-miterlimit:4;stroke-dasharray:none" transform="translate(-35.282 517.136)"/></g><g style="fill:#000;fill-opacity:1;stroke:#000;stroke-width:.04;stroke-miterlimit:4;stroke-dasharray:none"><use xlink:href="#glyph2-1-9-8" width="100%" height="100%" x="324.36" y="200.52" style="stroke:#000;stroke-width:.04;stroke-miterlimit:4;stroke-dasharray:none" transform="translate(-35.282 517.136)"/></g><g style="fill:#000;fill-opacity:1;stroke:#000;stroke-width:.04;stroke-miterlimit:4;stroke-dasharray:none" transform="translate(-35.282 517.136)"><use xlink:href="#glyph0-3-5-2" width="100%" height="100%" x="333.6" y="200.52" style="stroke:#000;stroke-width:.04;stroke-miterlimit:4;stroke-dasharray:none"/></g><g style="fill:#000;fill-opacity:1;stroke:#000;stroke-width:.04;stroke-miterlimit:4;stroke-dasharray:none" transform="translate(-35.282 517.136)"><use xlink:href="#glyph3-1-5-4" width="100%" height="100%" x="338.04" y="202.08" style="stroke:#000;stroke-width:.04;stroke-miterlimit:4;stroke-dasharray:none"/></g><g style="fill:#000;fill-opacity:1;stroke:#000;stroke-width:.04;stroke-miterlimit:4;stroke-dasharray:none" transform="translate(-35.682 517.136)"><use xlink:href="#glyph1-3-52-1" width="100%" height="100%" x="308.52" y="200.52" style="stroke:#000;stroke-width:.04;stroke-miterlimit:4;stroke-dasharray:none"/></g><g style="fill:#000;fill-opacity:1;stroke:#000;stroke-width:.04;stroke-miterlimit:4;stroke-dasharray:none" transform="translate(-36.162 517.136)"><use xlink:href="#glyph0-1-03-4" width="100%" height="100%" x="270" y="200.52" style="stroke:#000;stroke-width:.04;stroke-miterlimit:4;stroke-dasharray:none"/></g><g style="fill:#000;fill-opacity:1;stroke:#000;stroke-width:.04;stroke-miterlimit:4;stroke-dasharray:none" transform="translate(-36.162 517.136)"><use xlink:href="#glyph1-1-9-6" width="100%" height="100%" x="275.04" y="200.52" style="stroke:#000;stroke-width:.04;stroke-miterlimit:4;stroke-dasharray:none"/></g><g style="fill:#000;fill-opacity:1;stroke:#000;stroke-width:.04;stroke-miterlimit:4;stroke-dasharray:none" transform="translate(-36.162 517.136)"><use xlink:href="#glyph0-2-2-9" width="100%" height="100%" x="278.88" y="200.52" style="stroke:#000;stroke-width:.04;stroke-miterlimit:4;stroke-dasharray:none"/></g><g style="fill:#000;fill-opacity:1;stroke:#000;stroke-width:.04;stroke-miterlimit:4;stroke-dasharray:none" transform="translate(-36.162 517.136)"><use xlink:href="#glyph2-1-9-8" width="100%" height="100%" x="284.76" y="200.52" style="stroke:#000;stroke-width:.04;stroke-miterlimit:4;stroke-dasharray:none"/></g><g style="fill:#000;fill-opacity:1;stroke:#000;stroke-width:.04;stroke-miterlimit:4;stroke-dasharray:none" transform="translate(-36.162 517.136)"><use xlink:href="#glyph0-2-2-9" width="100%" height="100%" x="294" y="200.52" style="stroke:#000;stroke-width:.04;stroke-miterlimit:4;stroke-dasharray:none"/></g><g style="fill:#000;fill-opacity:1;stroke:#000;stroke-width:.04;stroke-miterlimit:4;stroke-dasharray:none" transform="translate(-36.162 517.136)"><use xlink:href="#glyph3-1-5-4" width="100%" height="100%" x="298.44" y="202.08" style="stroke:#000;stroke-width:.04;stroke-miterlimit:4;stroke-dasharray:none"/></g><g style="fill:#000;fill-opacity:1;stroke:#000;stroke-width:.04;stroke-miterlimit:4;stroke-dasharray:none" transform="translate(-36.162 517.136)"><use xlink:href="#glyph1-2-8-1" width="100%" height="100%" x="302.4" y="200.52" style="stroke:#000;stroke-width:.04;stroke-miterlimit:4;stroke-dasharray:none"/></g><g style="fill:#000;fill-opacity:1;stroke:#000;stroke-width:.04;stroke-miterlimit:4;stroke-dasharray:none" transform="translate(-35.282 517.136)"><use xlink:href="#glyph0-3-5-2" width="100%" height="100%" x="318.48" y="200.52" style="stroke:#000;stroke-width:.04;stroke-miterlimit:4;stroke-dasharray:none"/></g><g style="fill:#000;fill-opacity:1;stroke:#000;stroke-width:.04;stroke-miterlimit:4;stroke-dasharray:none" transform="translate(-35.282 517.136)"><use xlink:href="#glyph2-1-9-8" width="100%" height="100%" x="324.36" y="200.52" style="stroke:#000;stroke-width:.04;stroke-miterlimit:4;stroke-dasharray:none"/></g><g style="fill:#000;fill-opacity:1;stroke:#000;stroke-width:.04;stroke-miterlimit:4;stroke-dasharray:none" transform="translate(-35.282 517.136)"><use xlink:href="#glyph0-3-5-2" width="100%" height="100%" x="333.6" y="200.52" style="stroke:#000;stroke-width:.04;stroke-miterlimit:4;stroke-dasharray:none"/></g><g style="fill:#000;fill-opacity:1;stroke:#000;stroke-width:.04;stroke-miterlimit:4;stroke-dasharray:none" transform="translate(-35.282 517.136)"><use xlink:href="#glyph3-1-5-4" width="100%" height="100%" x="338.04" y="202.08" style="stroke:#000;stroke-width:.04;stroke-miterlimit:4;stroke-dasharray:none"/></g><path d="M180.76 65.88c.67.73 1.123 1.612 1.696 2.411.218.194.41.792-.132.728-.175-.069-.072-.006-.21-.297l.485-.012c-.136-.165-.062-.13-.182-.168-.46.013-.076.419-.237.183-.036-.054-.079-.102-.119-.153-.566-.798-1.02-1.675-1.689-2.4l.388-.291zM182.452 67.957c.466-.71 1.046-1.328 1.592-1.974.321-.38.245-.253.388-.56l.433.218c-.512.965-1.476 1.626-2.012 2.584l-.401-.268z" style="opacity:1;fill:#000;fill-opacity:1;stroke:#a05a2c;stroke-width:0;stroke-linecap:butt;stroke-linejoin:miter;stroke-miterlimit:4;stroke-dasharray:none;stroke-dashoffset:0;stroke-opacity:1" transform="translate(39.895 -84.403)"/><path d="M181.843 68.57c-.22-1.327.097-2.73.707-3.918.164-.319.377-.61.565-.915.259-.282.486-.596.776-.846 1.148-.99 2.92-1.76 4.422-1.976.244-.035.492-.009.737-.013l.426.175-.208.437-.213-.13c-.21 0-.423-.03-.632-.002-1.41.196-3.096.914-4.18 1.834-.269.228-.48.516-.72.774-.177.283-.377.552-.53.848-.572 1.1-.88 2.405-.675 3.636l-.475.095z" style="opacity:1;fill:#000;fill-opacity:1;stroke:#a05a2c;stroke-width:0;stroke-linecap:butt;stroke-linejoin:miter;stroke-miterlimit:4;stroke-dasharray:none;stroke-dashoffset:0;stroke-opacity:1" transform="translate(39.895 -84.403)"/></g></svg>