<svg xmlns="http://www.w3.org/2000/svg" xmlns:xlink="http://www.w3.org/1999/xlink" id="svg578259" width="750" height="500" preserveAspectRatio="none" version="1.1" viewBox="-10 -17.378 750 500"><style id="style578089" type="text/css">.grid{stroke:#9e9ed1;stroke-width:.4}.axes{stroke:#000;stroke-width:.5}.axes-arrows{stroke-width:1.1;stroke:#000;fill:none;stroke-linecap:round;stroke-linejoin:round}.difference-arrows-bodies{stroke-width:.9;fill:none;stroke:#000}.difference-arrows-bookends{fill:none;stroke-width:1.5;stroke:#000;stroke-linecap:square}.difference-arrows-tips{fill:none;stroke-width:1.4;stroke:#000;stroke-linejoin:round;stroke-linecap:round}.fat-vector-arrows{stroke:none;fill:#ac9393;opacity:.7}</style><defs id="defs578099"><path id="STIXWEBMAIN-30" stroke-width="1" d="M476 330c0-172-63-344-226-344C79-14 24 172 24 336c0 177 69 340 230 340 131 0 222-141 222-346Zm-96-5c0 208-44 325-132 325-83 0-128-118-128-321S164 12 250 12c85 0 130 115 130 313z"/><path id="STIXWEBMAIN-32" stroke-width="1" d="M474 137 420 0H29v12l178 189c94 99 130 175 130 260 0 91-54 141-139 141-72 0-107-32-147-130l-21 5c21 117 85 199 208 199 113 0 185-77 185-176 0-79-39-154-128-248L130 76h234c42 0 63 11 96 67z"/><path id="STIXWEBMAIN-34" stroke-width="1" d="M473 167H370V0h-78v167H12v64l314 445h44V231h103Zm-181 64v343L52 231Z"/><path id="STIXWEBMAIN-36" stroke-width="1" d="m446 684 2-16c-157-26-269-134-296-285 49 38 83 45 127 45 117 0 189-80 189-209 0-64-18-120-51-160-37-46-93-73-159-73-79 0-142 37-177 101-28 51-47 122-47 192 0 108 38 203 109 276 86 90 165 114 303 129zm-68-496c0 128-42 194-135 194-57 0-116-24-116-116 0-152 48-252 142-252 72 0 109 72 109 174z"/><path id="STIXWEBMAIN-38" stroke-width="1" d="M445 155c0-103-77-169-197-169C135-14 56 55 56 149c0 69 23 108 130 183C83 417 62 455 62 520c0 96 83 156 194 156 99 0 168-65 168-143 0-75-35-109-134-162 123-82 155-136 155-216Zm-90 378c0 69-41 115-109 115-67 0-110-37-110-99s37-108 125-160c68 40 94 82 94 144zm-84-261-59 40c-59-48-80-89-80-154 0-92 51-144 127-144 65 0 110 45 110 110 0 62-30 102-98 148z"/><path id="STIXWEBMAIN-31" stroke-width="1" d="M394 0H118v15c74 4 95 25 95 80v449c0 34-9 49-30 49-10 0-27-5-45-12l-27-10v14l179 91 9-3V76c0-43 20-61 95-61z"/><path id="STIXWEBMAIN-33" stroke-width="1" d="m61 510-16 4c29 95 92 162 196 162 93 0 156-55 156-137 0-48-26-98-93-138 44-19 62-31 83-53 28-31 44-77 44-129 0-53-17-102-46-140-48-64-143-93-232-93C80-14 41 7 41 43c0 21 18 36 41 36 17 0 33-6 61-26 37-26 58-31 86-31 74 0 130 68 130 153 0 76-35 125-104 145-22 7-45 10-102 10v14c38 13 64 24 84 36 49 28 81 73 81 134 0 68-42 102-108 102-62 0-108-32-149-106z"/><path id="STIXWEBMAIN-2212" stroke-width="1" d="M621 220H64v66h557z"/></defs><g id="layer5"><circle id="path740834" cx="-99.698" cy="198.081" r="11.097" style="fill:#e5f6ff;fill-opacity:1;stroke:#000;stroke-width:.9;stroke-miterlimit:2;stroke-dasharray:none"/><path id="path741142" d="M-159.024-77.477c-19.186 4.328-41.88 5.468-55.483-12.022-.847-1.088-1.26-2.453-1.85-3.699-10.309-21.764-14.795-40.391-14.795-64.73 0-9.247-.595-18.513 0-27.741 1.144-17.73 10.894-37.52 21.268-51.784 5.18-7.123 12.767-15.403 21.269-18.495 4.4-1.6 18.188-3.596 23.118-2.774 2.04.34 3.775 1.71 5.548 2.774 2.19 1.315.184.368.925 1.85 1.036 2.072 3.587 1.626 4.623 3.698.617 1.233-.924.925.925.925" style="fill:#e5f6ff;fill-opacity:1;stroke:#000;stroke-width:.9;stroke-miterlimit:2;stroke-dasharray:none"/><path id="path741144" d="M159.908 130.888c-1.186 1.287-3.138-1.43-4.514-3.417-4.61-6.657-5.616-17.7-3.384-29.812 2.286-12.407 15.63-37.385 43.522-54.733 18.089-11.25 35.512-16.177 55.03-16.363 10.965-.104 21.922 2.07 26.544 5.405 3.397 2.452 4.8 2.897 4.251 5.634-3.324.74-.638-5.332 2.288-9.12 4.708-6.096 11.81-10.387 18.274-13.863 13.953-7.502 44.541-16.314 72.695-19.963 35.225-4.565 76.522-4.054 115.427 1.582 18.21 2.638 36.595 8.78 49.762 13.597 14.246 5.211 23.644 11.07 30.758 18.573 4.5 4.746 6.304 8.62 6.53 12.311.135 2.201-1.404.283-1.316-.92.756-10.323 13.598-15.6 28.052-14.387 10.242.86 34.04 11.662 49.984 34.13 11.2 15.782 20.386 33.521 21.398 50.184.636 10.475.285 20.9-2.948 26.764-1.886 3.418-6.906 5.723-7.368 4.072-1.525-.419-.756-1.83.451-2.433 6.61-3.292 20.627 7.843 33.372 31.223 9.028 16.561 18.186 58.938 14 99.713-2.941 28.639-10.746 53.688-21.915 67.46-7.022 8.656-11.84 12.14-17.414 12.505-3.918.257-8.124-.08-7.176-2.697 13.507 1.486 17.086 17.7 10.687 34.414-5.22 13.636-21.746 33.871-47.778 44.689-18.284 7.598-35.797 10.171-52.685 7.837-10.399-1.437-19.234-5.407-24.04-10.225-2.8-2.809-3.99-5.552-2.533-7.95 3.286 1.347.54 6.424-6.992 12.721-7.628 6.378-18.989 11.993-33.6 16.858-13.505 4.496-31.925 7.574-48.183 9.093-36.084 3.37-76.601 2.503-110.604-2.96-25.858-4.154-52.227-12.575-63.797-20.186-7.91-5.204-17.248-13.685-14.866-20.492l1.105.763c2.522 10.542-20.98 14.97-40.376 11.932-13.035-2.042-43.643-11.842-63.44-34.176-14.893-16.802-23.212-38.61-23.535-56.831-.203-11.456 1.645-21.745 6.128-27.892 1.095-1.5 2.494-1.626 3.328-.438.83 1.361-.37 2.154-1.586 2.436-10.009 2.322-22.898-6.034-33.05-20.601-7.998-11.474-19.307-44.855-14.301-78.845 3.516-23.873 11.517-46.19 23.267-59.744 7.777-8.97 16.961-15.046 24.243-17.402 4.44-1.437 6.947-.06 5.67 1.441" style="fill:#e5f6ff;fill-opacity:1;stroke:#000;stroke-width:.9;stroke-miterlimit:2;stroke-dasharray:none"/><path id="path741148" d="M768.007-68.113c7.824-15.649-1.513 1.562 5.548-8.322.801-1.122.952-2.652 1.85-3.7 8.31-9.695 27.338-12.81 38.837-16.644 10.095-3.365 26.372-7.422 36.99-5.548 20.575 3.63 40.807 13.515 49.934 33.29 4.925 10.67 7.93 31.804 6.473 43.461-.904 7.236-10.917 19.24-15.72 24.043-3.506 3.505-4.8 2.768-9.247 5.548-.74.462-1.023 1.574-1.85 1.85-6.726 2.242-11.892 2.245-18.494.924" style="fill:#e5f6ff;fill-opacity:1;stroke:#000;stroke-width:.9;stroke-miterlimit:2;stroke-dasharray:none"/><path id="path741150" d="M824.627 189.042c3.823-4.422 13.896-10.667 20.344-8.322 5.889 2.141 7.721 4.946 12.022 9.247 22.066 22.066 23.321 50.828 24.967 80.45.155 2.787.778 5.536.925 8.323.644 12.25 0 24.719 0 36.989 0 16.792-.198 32.957-5.549 49.01-2.489 7.467-5.567 17.03-12.021 22.193-4.17 3.335-13.288 5.186-18.494 3.699-4.203-1.201-3.063-3.381-5.549-4.624-1.09-.545-2.774-1.584-2.774-3.699" style="fill:#e5f6ff;fill-opacity:1;stroke:#000;stroke-width:.9;stroke-miterlimit:2;stroke-dasharray:none"/><path id="path741152" d="M535.1 569.634c4.55 7.748 9.802 15.163 12.022 24.042 2.751 11.005 2.774 22.054 2.774 33.29 0 4.21.863 10.483 0 14.795-.639 3.195-5.104 16.555-5.548 17.57-.618 1.412-2.026 2.352-2.774 3.699-3.9 7.018.5 2.414-4.624 9.247-9.935 13.247-27.12 18.591-43.462 17.57-13.22-.826-39.106-7.667-49.01-17.57-2.649-2.65-7.635-11.546-5.548-15.72.471-.942 2.024-2.024 2.774-2.774 1.412-1.411 1.73-1.85 3.7-1.85-22.086 13.917-45.47 25.945-70.28 34.215-10.797 3.599-22.175 6.1-33.29 8.322-18.75 3.75-38.076 8.646-57.332 9.248-18.249.57-36.365-1.176-54.558-1.85-20.323-.753-40.74-.288-61.031-1.85-10.497-.807-21.425-2.013-31.44-5.548-5.226-1.844-13-7.669-17.57-11.096-1.58-1.184-3.609-2.007-4.624-3.7-3.705-6.174-2.117-12.41.925-18.493 1.243-2.486.983-3.7 3.699-3.7-2.158.617-4.379 1.045-6.473 1.85-5.79 2.227-10.977 5.803-16.645 8.323-17.452 7.756-36.4 13.432-55.483 14.795-9.483.677-11.737-.192-21.269-1.85-6.79-1.18-13.678-1.944-20.344-3.698-17.277-4.547-30.596-17.314-40.687-31.44-.77-1.077-6.58-8.85-7.398-11.097-2.75-7.565-2.25-17.116-2.774-24.968-.125-1.87-.925-3.673-.925-5.548 0-19.306 12.1-33.691 29.591-40.687 2.156-.863 1.995-1.412 4.624-1.85 2.645-.44 13.87-.75 13.87 2.774" style="fill:#e5f6ff;fill-opacity:1;stroke:#000;stroke-width:.9;stroke-miterlimit:2;stroke-dasharray:none"/><path id="path22668-4" d="M60.693 197.995c5.141-1.91 11.364-2.816 16.235.324 6.854 4.419 9.962 12.687 11.057 20.442 1.124 7.968-.557 16.338-4.962 23.096-4.645 7.125-12.852 11.366-21.297 11.917-9.109.595-18.583-3.443-23.6-11.194-2.507-3.872-4.32-8.288-4.461-12.95-.258-8.5 3.794-16.772 9.817-22.565 5.145-4.948 11.949-8.75 19.262-8.79" style="display:inline;fill:#e5f6ff;fill-opacity:1;stroke:#000;stroke-width:.927099;stroke-miterlimit:10;stroke-dasharray:none;stroke-opacity:1"/><path id="path746882" d="M142.37 1029.58c-12.284 1.256-18.156-14.32-16.152-32.878 1.228-11.374 11.929-37.456 32.674-54.329 14.572-11.85 30.797-21.382 45.694-21.849 9.366-.294 17.722 1.32 22.868 5.03 2.893 2.356 4.505 4.766 3.888 7.327" style="fill:#e5f6ff;fill-opacity:1;stroke:#000;stroke-width:.9;stroke-miterlimit:2;stroke-dasharray:none"/><path id="path746884" d="M230.65 934.959c-.916-6.808 12.519-16.575 23.284-21.996 14.898-7.503 48.99-15.104 79.159-17.787 37.264-3.314 82.142-2.788 122.196.601 18.085 1.53 39.074 5.049 53.133 9.865 15.211 5.212 26.307 12.05 33.25 18.574 6.854 6.44 8.631 13.663 5.503 17.524" style="fill:#e5f6ff;fill-opacity:1;stroke:#000;stroke-width:.9;stroke-miterlimit:2;stroke-dasharray:none"/><path id="path746886" d="M546.01 940.8c-1.723-13.7 12.93-20.983 30.772-19.58 10.935.86 36.344 11.661 53.369 34.13 11.958 15.781 21.767 33.52 22.847 50.183.679 10.476-.51 19.907-3.842 25.84-2.13 3.346-4.368 5.26-6.844 4.685" style="fill:#e5f6ff;fill-opacity:1;stroke:#000;stroke-width:.899997;stroke-miterlimit:2;stroke-dasharray:none"/><path id="path746888" d="M640.2 1032.22c8.6-12.514 24.047 3.04 35.505 29.518 7.023 16.227 17.042 60.397 12.856 101.172-2.941 28.64-8.784 55.65-19.953 69.421-7.022 8.658-14.602 13.886-21.174 13.487-3.883-.582-6.816-2.369-8.134-6.323" style="fill:#e5f6ff;fill-opacity:1;stroke:#000;stroke-width:.899997;stroke-miterlimit:2;stroke-dasharray:none"/><path id="path746890" d="M250.729 1303.814c-2.413 6.807 7.294 16.923 15.636 22.617 11.544 7.88 40.205 16.316 66.517 19.725 32.5 4.21 72.698 4.751 109.26 2.305 16.507-1.105 36.075-4.134 49.758-8.63 14.806-4.866 26.318-11.461 34.046-17.84 7.631-6.296 10.911-13.499 9.023-17.445" style="fill:#e5f6ff;fill-opacity:1;stroke:#000;stroke-width:.9;stroke-miterlimit:2;stroke-dasharray:none"/><path id="path746892" d="M249.806 1305.23c1.285 15.038-16.987 22-38.628 19.289-13.262-1.661-43.56-15.111-62.956-40.714-13.623-17.983-24.514-37.956-24.84-56.178-.206-11.456 1.8-21.65 6.209-27.891 2.792-3.504 5.63-5.441 8.61-4.65" style="fill:#e5f6ff;fill-opacity:1;stroke:#000;stroke-width:.9;stroke-miterlimit:2;stroke-dasharray:none"/><path id="path746894" d="M138.879 1196.631c-9.946 12.16-27.63 3.223-40.679-15.499-7.997-11.474-19.306-44.854-14.3-78.844 3.516-23.874 10.361-47.116 23.267-60.9 8.114-8.667 16.852-14.69 24.406-15.92 4.461-.446 7.825.306 9.321 3.195" style="fill:#e5f6ff;fill-opacity:1;stroke:#000;stroke-width:.9;stroke-miterlimit:2;stroke-dasharray:none"/><path id="path746896" d="M643.832 1241.844c13.693 1.783 17.05 17.797 11.2 34.71-3.587 10.367-20.439 32.237-46.47 43.054-18.285 7.599-37.923 12.624-54.32 9.473-10.31-1.981-19.138-5.507-24.04-10.225-2.702-2.905-3.99-5.552-2.81-7.804" style="fill:#e5f6ff;fill-opacity:1;stroke:#000;stroke-width:.899997;stroke-miterlimit:2;stroke-dasharray:none"/><path id="path747546" d="M115.352 513.35c-2.942-.79-5.743 1.146-8.498 4.65-4.352 6.24-6.332 16.436-6.129 27.892.323 18.221 11.071 38.195 24.516 56.178 19.143 25.602 49.043 39.052 62.132 40.714 21.358 2.71 39.955-6.621 40.703-17.817" style="fill:none;fill-opacity:1;stroke:#000;stroke-width:.9;stroke-miterlimit:2;stroke-dasharray:none"/><path id="path748548" d="M248.956-135.433c-.875-6.808 11.977-16.574 22.276-21.996 14.253-7.503 46.912-15.602 75.73-18.768 33.148-3.64 77.02-4.422 116.904-.052 17.268 1.892 37.38 6.683 50.83 11.5 14.553 5.211 24.152 11.069 31.42 18.573 4.595 4.745 6.438 8.62 6.669 12.31.138 2.202-1.434.283-1.344-.919.772-10.323 13.89-15.6 28.655-14.387 10.46.86 34.77 11.661 51.057 34.13 11.44 15.781 20.824 33.52 21.857 50.183.65 10.476.29 20.901-3.012 26.764-1.925 3.419-7.054 5.724-7.211 3.761" style="fill:none;fill-opacity:1;stroke:#000;stroke-width:.9;stroke-miterlimit:2;stroke-dasharray:none"/><path id="path749196" d="M137.714-124.334c-1.185 1.287-3.137-1.43-4.513-3.417-4.611-6.657-5.693-17.76-3.153-29.812 2.517-11.945 16.785-36.691 43.29-54.733 17.61-11.987 35.512-18.026 55.031-18.212 10.964-.104 20.997 1.839 26.544 6.33 3.255 2.636 4.8 5.439 3.835 8.099" style="fill:none;fill-opacity:1;stroke:#000;stroke-width:.9;stroke-miterlimit:2;stroke-dasharray:none"/><path id="path749198" d="M259.58-214.768c-3.74.663-1.93-3.29 1.544-6.583 4.709-4.461 12.137-9.079 18.602-12.554 13.952-7.503 45.522-16.968 73.675-20.617 35.225-4.566 75.402-4.423 114.446-.053 16.906 1.892 36.595 7.146 49.763 11.962 14.246 5.212 23.644 11.07 30.758 18.573 4.499 4.746 6.303 8.621 6.53 12.311.134 2.201-1.404.283-1.316-.92.755-10.323 13.598-15.6 28.052-14.386 10.241.86 34.04 11.66 49.984 34.13 11.2 15.78 20.386 33.52 21.398 50.183.636 10.475.284 20.9-2.949 26.764-1.885 3.419-6.905 5.723-7.06 3.76" style="fill:none;fill-opacity:1;stroke:#000;stroke-width:.9;stroke-miterlimit:2;stroke-dasharray:none"/><path id="path749525" d="M137.714-243.128c-1.185 1.287-3.137-1.43-4.513-3.416-4.611-6.658-5.616-17.7-3.384-29.813 2.286-12.407 15.63-37.385 43.522-54.733 18.088-11.25 35.511-16.177 55.03-16.362 10.964-.105 21.922 2.07 26.544 5.405 3.396 2.45 4.8 2.896 3.835 5.555" style="fill:none;fill-opacity:1;stroke:#000;stroke-width:.9;stroke-miterlimit:2;stroke-dasharray:none"/><path id="path749527" d="M259.58-336.336c-3.74.663-1.93-3.29 1.544-6.583 4.709-4.461 12.137-9.079 18.602-12.554 13.952-7.503 45.522-16.969 73.675-20.617 35.225-4.566 75.402-4.423 114.446-.053 16.906 1.892 36.595 7.146 49.763 11.962 14.246 5.211 23.644 11.07 30.758 18.573 4.499 4.746 6.303 8.621 6.53 12.311.134 2.201-1.404.283-1.316-.92.755-10.323 13.598-15.6 28.052-14.386 10.241.86 34.04 11.66 49.984 34.13 11.2 15.78 20.386 33.52 21.398 50.183.636 10.475.284 20.9-2.949 26.764-1.885 3.418-6.905 5.723-7.06 3.76" style="fill:none;fill-opacity:1;stroke:#000;stroke-width:.9;stroke-miterlimit:2;stroke-dasharray:none"/><path id="path752452" d="M4.982 220.603c1.239-1.406 5.283-1.208 7.208-.08 2.709 1.587 4.26 3.66 4.874 6.296.541 2.326-.148 4.888-1.889 7.315-1.835 2.56-5.078 4.083-8.415 4.28-3.6.215-7.343-1.236-9.326-4.02-.99-1.39-1.707-2.977-1.763-4.652-.102-3.053 1.5-6.024 3.88-8.105 2.033-1.777 4.072-2.161 5.304-2.372" style="display:inline;fill:#e5f6ff;fill-opacity:1;stroke:#000;stroke-width:.927094;stroke-miterlimit:10;stroke-dasharray:none;stroke-opacity:1"/></g><g id="grid"><path id="path578101" d="M183.132 394.42V72.52" class="grid"/><path id="path578103" d="M220.132 394.42V72.52" class="grid"/><path id="path578105" d="M257.132 394.42V72.52" class="grid"/><path id="path578107" d="M294.132 394.42V374.05m0-15.833V72.52" class="grid"/><path id="path578109" d="M331.132 394.42V72.52" class="grid"/><path id="path578111" d="M368.132 394.42V374.05m0-15.833V72.52" class="grid"/><path id="path578113" d="M405.132 394.42V72.52" class="grid"/><path id="path578115" d="M442.132 394.42v-19.667m0-16.535V72.52" class="grid"/><path id="path578117" d="M479.132 394.42V72.52" class="grid"/><path id="path578119" d="M516.132 394.42V374.05m0-15.833V72.52" class="grid"/><path id="path578121" d="M553.132 394.42V72.52" class="grid"/><path id="path578123" d="M590.132 394.42v-20.362m0-15.84V72.52" class="grid"/><path id="path578125" d="M627.132 394.42V72.52" class="grid"/><path id="path578127" d="M175.732 387.02h469.9" class="grid"/><path id="path578129" d="M175.732 350.02h469.9" class="grid"/><path id="path578131" d="M175.732 313.02h469.9" class="grid"/><path id="path578133" d="M175.732 276.02h24.946m11.256 0h433.698" class="grid"/><path id="path578135" d="M175.732 239.02h469.9" class="grid"/><path id="path578137" d="M175.732 202.02h24.946m11.256 0h433.698" class="grid"/><path id="path578139" d="M175.732 165.02h469.9" class="grid"/><path id="path578141" d="M175.732 128.02h24.944m11.258 0h433.698" class="grid"/><path id="path578143" d="M175.732 91.02h469.9" class="grid"/><path id="path651607" d="m430.235 273.974-1.803 1.698" style="fill:#fff5d1;fill-opacity:1;stroke:#000;stroke-width:.8;stroke-miterlimit:2;stroke-dasharray:none"/></g><g id="axes"><path id="path578146" d="M175.732 350.02H653.01" class="axes"/><path id="path578148" d="M220.132 394.42V65.14" class="axes"/></g><g id="axes arrows"><path id="path578151" d="M649.936 345.92c0 1.64 2.305 4.1 3.074 4.1-.769 0-3.074 2.459-3.074 4.099" class="axes-arrows"/><path id="path578153" d="M216.033 68.216c1.64 0 4.099-2.306 4.099-3.075 0 .769 2.46 3.075 4.099 3.075" class="axes-arrows"/></g><g id="notch labels" style="stroke:none;fill:#b8b8de"><g id="g578158" transform="matrix(.01332 0 0 -.01332 205.431 370.33)"><use xlink:href="#STIXWEBMAIN-30" id="use578156" x="0" y="0"/></g><g id="g578162" transform="matrix(.01332 0 0 -.01332 290.798 370.33)"><use xlink:href="#STIXWEBMAIN-32" id="use578160" x="0" y="0"/></g><g id="g578166" transform="matrix(.01332 0 0 -.01332 364.798 370.33)"><use xlink:href="#STIXWEBMAIN-34" id="use578164" x="0" y="0"/></g><g id="g578174" transform="matrix(.01332 0 0 -.01332 512.798 370.33)"><use xlink:href="#STIXWEBMAIN-38" id="use578172" x="0" y="0"/></g><g id="g578180" transform="matrix(.01333 0 0 -.01333 583.46 370.335)"><use xlink:href="#STIXWEBMAIN-31" id="use578176"/><use xlink:href="#STIXWEBMAIN-30" id="use578178" x="500" y="0"/></g><g id="g578184" transform="matrix(.01332 0 0 -.01332 202.972 280.52)"><use xlink:href="#STIXWEBMAIN-32" id="use578182" x="0" y="0"/></g><g id="g578188" transform="matrix(.01332 0 0 -.01332 202.972 206.52)"><use xlink:href="#STIXWEBMAIN-34" id="use578186" x="0" y="0"/></g><g id="g578192" transform="matrix(.01332 0 0 -.01332 202.97 132.522)"><use xlink:href="#STIXWEBMAIN-36" id="use578190" x="0" y="0"/></g><g id="g578170" style="fill:#b8b8de;fill-opacity:1" transform="matrix(.01332 0 0 -.01332 438.684 370.261)"><use xlink:href="#STIXWEBMAIN-36" id="use578168" x="0" y="0" style="fill:#b8b8de;fill-opacity:1"/></g></g><g id="difference arrows"><g id="g578974" transform="translate(-289.4 590.153)"><path id="path578195" d="M341 222h109.8" class="difference-arrows-bodies"/><path id="path578197" d="M341 216.261v11.478" class="difference-arrows-bookends"/><path id="path578199" d="M450.8 216.261v11.478" class="difference-arrows-bookends"/><path id="path578201" d="M444.488 216.261c0 2.296 4.304 5.739 5.738 5.739-1.434 0-5.738 3.443-5.738 5.739" class="difference-arrows-tips"/><path id="path578203" d="M450.8 207.261c-.039-1.606-.27-2.24-.965-2.945-.694-.706-2.199-1.072-4.398-1.072h-44.786c-2.704 0-3.979-1.582-4.751-3.158-.811 1.576-2.124 3.158-4.79 3.158h-44.709c-2.16 0-3.742.39-4.436 1.072-.695.681-.926 1.314-.965 2.945l.424-.578c.695-1.622 1.852-2.139 4.746-2.139h44.4c3.206 0 4.596-1.6 5.33-3.358.772 1.758 2.163 3.358 5.369 3.358h44.361c2.894 0 4.051.517 4.746 2.139z" class="a_brace"/><g id="g578207" class="a_brace_label" transform="matrix(.01523 0 0 -.01523 392.09 196.604)"><use xlink:href="#STIXWEBMAIN-33" id="use578205" x="0" y="0"/></g></g><g id="g582691" transform="translate(-692.636 -228.645)"><path id="path578209" d="M408.799 578.64h35.8" class="difference-arrows-bodies"/><path id="path578211" d="M408.799 572.901v11.477" class="difference-arrows-bookends"/><path id="path578213" d="M444.599 572.901v11.477" class="difference-arrows-bookends"/><path id="path578215" d="M438.286 572.901c0 2.296 4.304 5.739 5.739 5.739-1.435 0-5.739 3.443-5.739 5.738" class="difference-arrows-tips"/><path id="path578217" d="M444.599 563.901c-.039-1.607-.27-2.24-.965-2.946-.694-.706-2.199-1.07-4.398-1.07h-7.786c-2.704 0-3.979-1.583-4.751-3.16-.811 1.577-2.124 3.16-4.79 3.16H414.2c-2.16 0-3.742.389-4.437 1.07-.694.682-.926 1.315-.964 2.946l.424-.578c.695-1.622 1.852-2.139 4.746-2.139h7.4c3.206 0 4.596-1.6 5.33-3.358.772 1.758 2.163 3.358 5.369 3.358h7.361c2.894 0 4.051.517 4.745 2.139z" class="a_brace"/><g id="g578223" class="a_brace_label" transform="matrix(.01523 0 0 -.01523 417.665 553.244)"><use xlink:href="#STIXWEBMAIN-2212" id="use578219" x="0" y="0"/><use xlink:href="#STIXWEBMAIN-31" id="use578221" x="685" y="0"/></g></g><path id="path578225" d="M-126.878 522.794v146.8" class="difference-arrows-bodies"/><path id="path578227" d="M-132.616 522.794h11.477" class="difference-arrows-bookends"/><path id="path578229" d="M-132.616 669.594h11.477" class="difference-arrows-bookends"/><path id="path578231" d="M-121.14 663.282c-2.295 0-5.738 4.303-5.738 5.738 0-1.435-3.443-5.738-5.738-5.738" class="difference-arrows-tips"/><path id="path578233" d="M-112.14 669.594c1.608-.039 2.24-.27 2.947-.965.706-.694 1.07-2.199 1.07-4.398v-63.286c0-2.704 1.583-3.979 3.16-4.751-1.577-.811-3.16-2.124-3.16-4.79v-63.209c0-2.16-.389-3.742-1.07-4.437-.682-.694-1.315-.925-2.946-.964l.578.424c1.622.695 2.139 1.852 2.139 4.746v62.9c0 3.206 1.6 4.596 3.358 5.33-1.758.772-3.358 2.163-3.358 5.369v62.861c0 2.894-.517 4.051-2.139 4.746z" class="a_brace"/><g id="g578239" class="a_brace_label" transform="matrix(.01523 0 0 -.01523 -101.482 599.8)"><use xlink:href="#STIXWEBMAIN-2212" id="use578235" x="0" y="0"/><use xlink:href="#STIXWEBMAIN-34" id="use578237" x="685" y="0"/></g></g><g id="fat vector arrows"><path id="path578242" d="m294.132 202.02 11.9-18.875h-7.2V91.02h-9.4v92.125h-7.2z" class="fat-vector-arrows"/><path id="path578244" d="m257.132 387.02 17.258-14.144-6.83-2.276 31.03-93.094-8.917-2.973-31.031 93.094-6.83-2.277z" class="fat-vector-arrows"/><path id="path578246" d="m368.132 312.995-18.875-11.9v7.2h-18.125v9.4h18.125v7.2z" class="fat-vector-arrows"/><path id="path578248" d="m516.132 165.02-9.104-20.372-3.994 5.991-95.295-63.53-5.214 7.821 95.295 63.53-3.994 5.991z" class="fat-vector-arrows"/><path id="path578250" d="m442.132 387.02 6.967-21.198-6.985 1.746-32.422-129.688-9.12 2.28 32.422 129.688-6.985 1.746z" class="fat-vector-arrows"/><path id="path578252" d="m220.132 165.02-11.9 18.875h7.2v92.125h9.4v-92.125h7.2z" class="fat-vector-arrows"/><path id="path578254" d="m627.132 239.02 6.967-21.198-6.985 1.746L594.692 89.88l-9.12 2.28 32.422 129.688-6.985 1.746z" class="fat-vector-arrows"/><path id="path578256" d="m627.132 387.02-9.104-20.372-3.994 5.991-95.295-63.53-5.214 7.821 95.295 63.53-3.994 5.991z" class="fat-vector-arrows"/></g><g id="layer4"><rect id="rect713452" width="104.947" height="18.576" x="553.541" y="320.555" rx="0" ry="0" style="fill:#fff5d1;fill-opacity:1;stroke:none;stroke-width:1;stroke-miterlimit:2"/><rect id="rect695840" width="98.778" height="18.576" x="539.051" y="119.053" rx="0" ry="0" style="fill:#fff5d1;fill-opacity:1;stroke:none;stroke-width:1;stroke-miterlimit:2"/><rect id="rect653495" width="95.466" height="18.576" x="365.225" y="261.379" rx="0" ry="0" style="fill:#fff5d1;fill-opacity:1;stroke:none;stroke-width:1;stroke-miterlimit:2"/><rect id="rect633950" width="65.984" height="13.182" x="349.677" y="332.587" rx="0" ry="0" style="fill:#fff5d1;fill-opacity:1;stroke:none;stroke-width:.799999;stroke-miterlimit:2;stroke-dasharray:none"/><rect id="rect620916" width="96.59" height="18.576" x="224.36" y="324.062" rx="0" ry="0" style="fill:#fff5d1;fill-opacity:1;stroke:none;stroke-width:1;stroke-miterlimit:2"/><rect id="rect596254" width="93.794" height="18.367" x="247.414" y="134.835" rx="0" ry="0" style="fill:#fff5d1;fill-opacity:1;stroke:none;stroke-miterlimit:2"/><rect id="rect590087" width="83.983" height="18.576" x="177.885" y="239.017" rx="0" ry="0" style="fill:#fff5d1;fill-opacity:1;stroke:none;stroke-miterlimit:2"/><path id="path588182" d="M178.23 239.121s-.14 1.39-.188 2.087c-.057.81-.102 1.62-.134 2.432a160.821 160.821 0 0 0-.114 4.389c-.03 2.466.01 4.813.119 7.122.04.863.193 2.582.193 2.582" style="fill:none;stroke:#000;stroke-width:.9;stroke-linecap:butt;stroke-miterlimit:2;stroke-dasharray:none"/><path id="path588184" d="M177.385 239.252s31.712-.108 48.322-.124c6.667-.006 13.333-.012 20-.01 5.632.002 16.894.01 16.894.01" style="fill:none;stroke:#000;stroke-width:.9;stroke-linecap:butt;stroke-miterlimit:2;stroke-dasharray:none"/><path id="path23883" d="M195.412 247.082c-.344.568-.703 1.227-.923 1.607-.352.608-.71 1.361-.91 1.765-.266.54-.416.905-.738 1.68-.044.103-.062.15-.094.114a2.17 2.17 0 0 1-.34-.456c-.36-.589-.679-1.2-.94-1.839a14.801 14.801 0 0 1-.961-3.252" style="display:inline;fill:none;stroke:#000;stroke-width:1.00001;stroke-linecap:butt;stroke-linejoin:round;stroke-miterlimit:2;stroke-dasharray:none"/><path id="path835344" d="M201.234 251.884a6.848 6.848 0 0 1-1.971.46c-.702.054-1.37.068-2.214-.203-.547-.176-.985-.451-1.284-.958-.297-.501-.275-.779-.238-1.333a2.36 2.36 0 0 1 .186-.709c.353-.884 1.197-1.775 2.11-2.03.317-.088.653-.082.93.05.51.245.815.902.68 1.459-.095.39-.393.692-.71.851-.703.353-1.66.257-2.4-.05-.155-.065-.3-.153-.45-.23" style="display:inline;fill:none;fill-opacity:1;stroke:#000;stroke-width:1.00001;stroke-linecap:butt;stroke-linejoin:bevel;stroke-miterlimit:4;stroke-dasharray:none;stroke-opacity:1"/><path id="path397203" d="M205.823 251.614c-.215.23-.059.151-.38.346-1.056.639-2.043.643-3.096.023-.324-.19-.537-.365-.745-.762-.372-.712-.186-1.665.2-2.238.129-.192.27-.39.43-.531.773-.684 1.78-.716 2.63-.275.412.213.525.331.882.692" style="display:inline;fill:none;stroke:#000;stroke-width:1.00001;stroke-dasharray:none;stroke-opacity:1"/><g id="g47733" style="display:inline;stroke:#000;stroke-width:11.2727;stroke-dasharray:none" transform="matrix(.0878 0 0 .08963 115.087 182.092)"><path id="path47727" d="M1055.557 683.739s-1.103 7.569-1.489 11.367a299.367 299.367 0 0 0-1.054 13.242 603.744 603.744 0 0 0-.903 23.907c-.232 13.43.083 26.215.937 38.789.32 4.704 1.523 14.062 1.523 14.062" style="fill:none;stroke:#000;stroke-width:11.2727;stroke-linecap:butt;stroke-miterlimit:2;stroke-dasharray:none"/><path id="path47729" d="M1024.632 715.662s21.154-.865 32.234-.995c4.447-.052 8.894-.101 13.341-.082 3.757.016 11.27.083 11.27.083" style="fill:none;stroke:#000;stroke-width:11.2727;stroke-linecap:butt;stroke-miterlimit:2;stroke-dasharray:none"/></g><path id="path348225" d="M211.83 247.62c-1.144.189-2.264.833-2.848 1.876-.195.41-.391.867-.269 1.33.149.767.87 1.254 1.568 1.446 1.022.266 2.127.106 3.082-.33.741-.344 1.423-1.01 1.516-1.87.106-.798-.35-1.61-1.054-1.96-.454-.248-.978-.292-1.48-.352a2.923 2.923 0 0 0-1.096.16" style="display:inline;fill:none;fill-opacity:1;stroke:#000;stroke-width:1.00001;stroke-linecap:butt;stroke-linejoin:bevel;stroke-miterlimit:4;stroke-dasharray:none;stroke-opacity:1"/><path id="path840089" d="M215.868 247.725c.183 1.235.487 2.445.745 3.664.05.261.085.41.112.657.005.017.065.288-.037.26-.113-.03-.124-.303-.172-.514-.23-.999-.368-2.191.239-3.092.144-.214.325-.418.52-.585.206-.178.437-.343.676-.474.7-.383 1.638-.671 2.434-.432.112.034.21.103.316.154" style="display:inline;fill:none;fill-opacity:1;stroke:#000;stroke-width:1.00001;stroke-linecap:butt;stroke-linejoin:bevel;stroke-miterlimit:4;stroke-dasharray:none;stroke-opacity:1"/><path id="path99049" d="M228.888 253.575c-.125.02-.455-.013-.577-.03-1.082-.15-1.92-1.02-2.45-1.856-.576-.912-.842-1.987-.76-3.124.055-.767.334-1.667.628-2.284.544-1.142 1.35-1.955 2.38-2.549" style="display:inline;fill:none;fill-opacity:1;stroke:#000;stroke-width:1.00001;stroke-linecap:butt;stroke-linejoin:miter;stroke-miterlimit:4;stroke-dasharray:none;stroke-opacity:1"/><path id="path84775" d="M247.028 243.998c1.07.787 2.033 2.06 2.665 3.123.479.806 1.049 2.172.91 3.39-.08.699-.296 1.142-.621 1.54-.549.669-1.266 1.106-2.153 1.42" style="display:inline;fill:none;fill-opacity:1;stroke:#000;stroke-width:1.00001;stroke-linecap:butt;stroke-linejoin:miter;stroke-miterlimit:4;stroke-dasharray:none;stroke-opacity:1"/><path id="path10844" d="M230.583 245.133c.97-.225 2-.125 2.929.224 1.12.481 1.943 1.511 2.4 2.634.3.948.383 2.08-.174 2.948a3.757 3.757 0 0 1-1.672 1.19 5.915 5.915 0 0 1-3.639.223c-1.075-.294-2.165-.915-2.625-2-.268-.644-.334-1.373-.12-2.044.36-1.25 1.299-2.291 2.44-2.858.532-.248 1.14-.374 1.722-.25" style="display:inline;fill:none;stroke:#000;stroke-width:.999999;stroke-dasharray:none;stroke-opacity:1"/><path id="path588242" d="M237.307 252.272c-.343.784-1.06 1.235-1.553 1.619" style="fill:#efa;fill-opacity:.4;stroke:#000;stroke-width:1.00001;stroke-miterlimit:2"/><path id="path116312" d="M240.412 252.069c.868.382 1.874.494 2.846.519.968-.046 2.05-.102 2.784-.69.41-.326.703-.802.628-1.278-.183-.7-.922-1.172-1.586-1.578-.636-.305-1.321-.65-2.085-.62-.248.139.366-.066.473-.127.883-.397 1.7-1.06 1.816-1.919.09-.516-.373-.993-.953-1.149-.697-.192-1.47-.106-2.154.081-.677.208-1.323.506-1.836.93" style="display:inline;fill:none;stroke:#000;stroke-width:.999999"/><path id="path590083" d="M177.385 257.752s31.712-.108 48.322-.124c6.667-.006 13.333-.012 20-.01 5.632.002 16.894.01 16.894.01" style="fill:none;stroke:#000;stroke-width:.9;stroke-linecap:butt;stroke-miterlimit:2;stroke-dasharray:none"/><path id="path590085" d="M261.85 239.121s-.14 1.39-.188 2.087c-.057.81-.102 1.62-.134 2.432a160.821 160.821 0 0 0-.114 4.389c-.03 2.466.01 4.813.118 7.122.04.863.193 2.582.193 2.582" style="fill:none;stroke:#000;stroke-width:.9;stroke-linecap:butt;stroke-miterlimit:2;stroke-dasharray:none"/><path id="path593109" d="M261.421 142.336c-.573.942-1.156 1.897-1.614 2.72-.377.671-.758 1.34-1.115 2.022-.034.066-.065.132-.1.197-.045.053-.068.183-.095.256-.07.077.104.08.05.023-.116-.204-.215-.414-.322-.622-.267-.518-.544-1.031-.812-1.55-.109-.216-.22-.43-.325-.649a25.28 25.28 0 0 1-.999-2.45" style="display:inline;fill:none;fill-opacity:1;stroke:#000;stroke-width:1;stroke-linecap:butt;stroke-linejoin:bevel;stroke-miterlimit:4;stroke-dasharray:none;stroke-opacity:1"/><path id="path593111" d="M263.099 145.009c.79.479 2.001.622 2.882.362.524-.154 1.068-.588 1.136-1.167.103-.887-.724-1.339-1.52-1.26-.748.073-1.394.52-1.889 1-.482.469-.837 1.18-.885 1.838-.03.426.006.887.291 1.238.475.664 1.348.881 2.136.99.94.104 1.796-.023 2.719-.186.352-.078.785-.21 1.126-.325" style="display:inline;fill:none;fill-opacity:1;stroke:#000;stroke-width:.999996;stroke-linecap:butt;stroke-linejoin:bevel;stroke-miterlimit:4;stroke-dasharray:none;stroke-opacity:1"/><path id="path605562" d="M240.197 332.804c-.147.272-.323.693-.474 1.058-.297.715-.525 1.455-.765 2.19-.19.584-.12.385-.29.863-.056.158-.105.328-.173.483-.006.013-.016.023-.024.035-.13-.078-.2-.226-.27-.352-.257-.465-.48-.947-.722-1.419a190.87 190.87 0 0 1-1.455-3.12" style="display:inline;fill:none;stroke:#000;stroke-width:1;stroke-linecap:square;stroke-linejoin:round;stroke-miterlimit:2;stroke-dasharray:none"/><path id="path605564" d="M241.352 335.259c.746.368 1.648.62 2.525.51a3.3 3.3 0 0 0 .96-.26c.66-.296 1.15-.959 1.191-1.674.022-.27-.02-.562-.222-.765a1.053 1.053 0 0 0-.728-.36c-.594-.04-1.201.158-1.72.421a4.507 4.507 0 0 0-1.09.773c-.432.4-.817.889-.92 1.476-.068.379.099.757.369 1.025.43.468 1.102.611 1.713.678a8.404 8.404 0 0 0 2.858-.21" style="display:inline;fill:none;fill-opacity:1;stroke:#000;stroke-width:1;stroke-linecap:butt;stroke-linejoin:bevel;stroke-miterlimit:4;stroke-dasharray:none;stroke-opacity:1"/><path id="path605566" d="M252.596 337c-.318.05-.64.103-.914.121-1.133.076-2.453-.086-3.293-.741-.28-.219-.54-.486-.623-.783-.097-.35-.04-.83.1-1.167.199-.48.579-.887 1.056-1.198.747-.486 1.732-.726 2.494-.638" style="display:inline;fill:none;fill-opacity:1;stroke:#000;stroke-width:1;stroke-linecap:butt;stroke-linejoin:round;stroke-miterlimit:4;stroke-dasharray:none;stroke-dashoffset:0;stroke-opacity:1"/><g id="g605574" style="display:inline;stroke-width:2.31384" transform="matrix(.46791 0 0 .45418 699.637 1868.576)"><g id="g605572" style="stroke-width:1.90591" transform="matrix(1.21474 0 0 1.21333 204.718 718.966)"><path id="path605568" d="M-949.901-3370.198c-.329-1.218-.213-2.496-.398-3.546-.352-4.624-.588-9.261-.615-13.9" style="fill:none;stroke:#000;stroke-width:1.78678;stroke-miterlimit:2;stroke-dasharray:none"/><path id="path605570" d="M-945.27-3381.508c-.848.144-1.476.236-2.235.318-2.477.269-4.973.417-7.424.886" style="fill:none;stroke:#000;stroke-width:1.78678;stroke-miterlimit:2;stroke-dasharray:none"/></g></g><path id="path85096" d="M277.385 335.305a48.393 48.393 0 0 1 4.209-.26c.423-.01 1.17-.01 1.58.026" style="display:inline;fill:none;stroke:#000;stroke-width:.999997;stroke-linecap:square;stroke-linejoin:round;stroke-miterlimit:2;stroke-dasharray:none;stroke-opacity:1"/><path id="path605576" d="M260.31 333.055a3.697 3.697 0 0 0-2.004.86 1.964 1.964 0 0 0-.341.356c-.1.142-.174.302-.231.464-.223.63-.07 1.364.35 1.886.12.148.261.283.414.4.163.126.342.233.528.324.666.326 1.47.447 2.191.227.148-.045.296-.1.427-.18.504-.31.958-.776 1.07-1.37a2.18 2.18 0 0 0-.087-1.061c-.284-.773-1.128-1.338-2.207-1.558a3.764 3.764 0 0 0-.531-.072" style="display:inline;fill:none;stroke:#000;stroke-width:1;stroke-linecap:square;stroke-linejoin:round;stroke-miterlimit:2;stroke-dasharray:none;stroke-opacity:1"/><path id="path605578" d="M264.149 333.209c.08 1.286.392 3.092.584 4.27.008.052.078.68-.136.545 0 0-.126-.24-.145-.319-.074-.31-.057-.643-.057-.732 0-.257.015-.45.06-.704.054-.312.076-.483.17-.784.378-1.201 1.055-2.173 2.294-2.626.19-.07.427-.094.59-.102.436-.022.84.099 1.24.278" style="display:inline;fill:none;fill-opacity:1;stroke:#000;stroke-width:.999996;stroke-linecap:butt;stroke-linejoin:miter;stroke-miterlimit:4;stroke-dasharray:none;stroke-opacity:1"/><path id="path593113" d="M274.674 147.097c-.107.068-.215.138-.309.193-.5.266-1.043.446-1.608.474-.504.024-.934-.006-1.413-.203-.636-.262-1.135-.721-1.347-1.32a2.226 2.226 0 0 1-.116-.577 2.391 2.391 0 0 1 .038-.58c.124-.7.564-1.315 1.202-1.724.145-.093.307-.184.468-.252.146-.062.332-.116.49-.145.606-.109 1.038.004 1.4.387" style="display:inline;fill:none;fill-opacity:1;stroke:#000;stroke-width:.999997;stroke-linecap:butt;stroke-linejoin:miter;stroke-miterlimit:4;stroke-dasharray:none;stroke-opacity:1"/><g id="g593119" style="display:inline;stroke-width:9.0633;stroke-dasharray:none" transform="matrix(.11257 0 0 .10814 -556.067 197.067)"><path id="path593115" d="M7397.045-452.564c-1.334-13.674-1.52-27.54-1.64-41.414-.131-15.032-.059-28.974.381-42.978" style="fill:none;stroke:#000;stroke-width:9.0633;stroke-miterlimit:2;stroke-dasharray:none"/><path id="path593117" d="M7422.27-519.886c-3.295-.225-6.168-.204-10.06-.302-14.59-.36-29.2-.268-43.836.073" style="fill:none;stroke:#000;stroke-width:9.0633;stroke-miterlimit:2;stroke-dasharray:none"/></g><path id="path593121" d="M281.299 142.898c.189.05.389.076.541.142.214.09.418.2.605.339.752.563 1.525 1.695 1.342 2.724-.04.226-.172.422-.259.634-.167.161-.312.353-.502.485-.249.172-.523.306-.802.418-.77.308-1.624.37-2.417.113a2.766 2.766 0 0 1-.694-.324 2.005 2.005 0 0 1-.486-.474c-.382-.517-.46-1.204-.304-1.824.116-.462.298-.686.54-1.076.134-.149.25-.314.4-.445.334-.297.818-.61 1.278-.622.082 0 .164.017.243.042" style="display:inline;fill:none;fill-opacity:1;stroke:#000;stroke-width:1;stroke-linecap:butt;stroke-linejoin:bevel;stroke-miterlimit:4;stroke-dasharray:none;stroke-opacity:1"/><path id="path593123" d="M285.972 143.088c.09 1.296.44 3.115.656 4.3.01.054.19.766-.305.568 0 0-.07-.1-.092-.18a3.686 3.686 0 0 1-.104-.773c0-.259.016-.461.066-.717.061-.315.162-.602.268-.905.424-1.21 1.23-2.188 2.619-2.645.214-.07.48-.095.663-.103.488-.022.942.1 1.39.28" style="display:inline;fill:none;fill-opacity:1;stroke:#000;stroke-width:.999999;stroke-linecap:butt;stroke-linejoin:miter;stroke-miterlimit:4;stroke-dasharray:none;stroke-opacity:1"/><path id="path593125" d="M305.13 149.169c-1.306-.01-2.447-.202-3.47-.728-.672-.356-1.145-.715-1.589-1.507-.522-.931-.53-2-.223-3.01.22-.722.578-1.368.95-1.945.665-1.03 1.563-2.047 2.747-2.807" style="display:inline;fill:none;fill-opacity:1;stroke:#000;stroke-width:.999997;stroke-linecap:butt;stroke-linejoin:miter;stroke-miterlimit:4;stroke-dasharray:none;stroke-opacity:1"/><path id="path593127" d="M327.618 148.725a7.34 7.34 0 0 0 2.339-1.464c.56-.517 1.02-1.223 1.096-1.975.158-1.265-.356-2.524-1.09-3.57-.881-1.256-2.043-1.957-3.508-2.536" style="display:inline;fill:none;fill-opacity:1;stroke:#000;stroke-width:.999997;stroke-linecap:butt;stroke-linejoin:miter;stroke-miterlimit:4;stroke-dasharray:none;stroke-opacity:1"/><path id="path593129" d="M306.629 140.651c1.062-.33 2.262-.087 3.149.5 1.299.798 2.225 2.185 2.06 3.612-.18 1.275-1.2 2.425-2.566 2.87-1.335.455-2.972.32-4.08-.523-.685-.451-1.237-1.078-1.449-1.82-.393-1.15.016-2.435.92-3.312.767-.759 1.869-1.312 3.041-1.31" style="display:inline;fill:none;fill-opacity:1;stroke:#000;stroke-width:.999997;stroke-linecap:butt;stroke-linejoin:miter;stroke-miterlimit:4;stroke-dasharray:none;stroke-opacity:1"/><path id="path593131" d="M318.174 146.351c.54.31 1.135.558 1.63.759 1.38.559 2.702.782 4.086.645.199-.02.396-.048.589-.087.638-.129 1.289-.373 1.665-.847.075-.094.12-.205.181-.307.026-.108.068-.213.078-.324.055-.602-.387-1.145-.9-1.541-.125-.081-.245-.168-.375-.242-.595-.338-1.28-.55-1.965-.556-.108.01-.308.013-.412.068-.165.087.02.158.118.169.074.01.148.006.222.006a4.313 4.313 0 0 0 2.285-.992c.369-.376.929-.933.587-1.51-.05-.084-.134-.15-.2-.226-.098-.064-.189-.138-.294-.19-.711-.36-1.56-.344-2.314-.301-.181.029-.365.05-.544.085a6.265 6.265 0 0 0-2.238.9" style="display:inline;fill:none;stroke:#000;stroke-width:.999997;stroke-dasharray:none"/><path id="path596122" d="M312.592 147.587c-.13 1.478-.714 2.078-1.48 2.33" style="fill:#fff5d1;fill-opacity:1;stroke:#000;stroke-width:.999997;stroke-miterlimit:2"/><path id="path596187" d="M314.708 144.052a135.32 135.32 0 0 1 4.987-.02" style="fill:#fff5d1;fill-opacity:1;stroke:#000;stroke-width:.999997;stroke-miterlimit:2"/><path id="path596242" d="M247.524 134.64c-.007 1.314.247 5.508.254 6.894.008 1.855-.05 3.702.014 5.552-.062 1.978-.15 4.303-.022 6.61" style="fill:none;fill-opacity:1;stroke:#000;stroke-width:.9;stroke-miterlimit:2;stroke-dasharray:none"/><path id="path596248" d="M341.79 153.377c-6.55-.007-27.464.247-34.375.253-9.249.008-18.459-.049-27.683.014-9.863-.062-21.458-.15-32.958-.021" style="fill:none;fill-opacity:1;stroke:#000;stroke-width:.9;stroke-miterlimit:2;stroke-dasharray:none"/><path id="path596250" d="M246.556 134.893c13.145-.138 21.625.133 36.29.085 11.324-.037 30.551-.045 41.895-.085 5.676-.02 11.399.234 17.042 0" style="fill:none;fill-opacity:1;stroke:#000;stroke-width:.9;stroke-miterlimit:2;stroke-dasharray:none"/><path id="path596252" d="M341.367 134.64c.007 1.314-.246 5.508-.253 6.894-.008 1.855.049 3.702-.014 5.552.062 1.978.15 4.303.021 6.61" style="fill:none;fill-opacity:1;stroke:#000;stroke-width:.9;stroke-miterlimit:2;stroke-dasharray:none"/><path id="path609222" d="M303.314 328.204c1.434 1.045 2.773 2.723 3.272 4.362.156.51.268 1.29.3 1.83.071 1.243-.3 2.563-.85 3.608-.313.595-.846 1.203-1.392 1.523-.182.106-.611.295-.814.346" style="display:inline;fill:none;fill-opacity:1;stroke:#000;stroke-width:1;stroke-linecap:butt;stroke-linejoin:miter;stroke-miterlimit:4;stroke-dasharray:none;stroke-opacity:1"/><path id="path609224" d="M278.417 329.725c-1.23.773-2.077 1.77-2.651 3.1-.182.421-.374 1.373-.38 1.79-.011.922.109 2.215.897 3.206.476.6 1.454 1.232 2.395 1.367" style="display:inline;fill:none;fill-opacity:1;stroke:#000;stroke-width:1;stroke-linecap:butt;stroke-linejoin:miter;stroke-miterlimit:4;stroke-dasharray:none;stroke-opacity:1"/><path id="path612339" d="M399.225 338.35c.15-.124.265-.166.391-.209.703-.237 1.563-.19 2.214.168a2.093 2.093 0 0 1 .798.784c.404.715.301 1.637-.075 2.336a2.457 2.457 0 0 1-.753.853c-.586.422-1.4.656-2.124.462a2.1 2.1 0 0 1-.482-.182 1.856 1.856 0 0 1-.406-.307 2.09 2.09 0 0 1-.573-1.931c.04-.17.105-.314.181-.462a2.04 2.04 0 0 1 .271-.405c.495-.575 1.177-.965 2.033-.994" style="display:inline;fill:none;stroke:#000;stroke-width:.799999;stroke-dasharray:none;stroke-opacity:1"/><path id="path85096-5" d="M394.006 342.842a70.257 70.257 0 0 1-.036-4.146c.006-.417.031-1.153.068-1.555" style="display:inline;fill:none;stroke:#000;stroke-width:.799999;stroke-linecap:square;stroke-linejoin:round;stroke-miterlimit:2;stroke-dasharray:none;stroke-opacity:1"/><path id="path706988" d="M285.425 329.364c.003.081.008.164.012.233.026.35.024.703.018 1.054-.003.917.011 1.834.012 2.75 0 .994-.013 1.987-.022 2.98 0 .48-.004.96.025 1.438" style="display:inline;fill:none;stroke:#000;stroke-width:1;stroke-dasharray:none"/><path id="path616037" d="m287.705 337.026-1.334 2.355" style="fill:#fff5d1;fill-opacity:1;stroke:#000;stroke-width:1;stroke-miterlimit:2"/><path id="path37887" d="M296.743 334.782a44.528 44.528 0 0 1-3.31.019c-.849-.024-1.697 0-2.545.075" style="display:inline;fill:none;stroke:#000;stroke-width:.999994;stroke-linecap:butt;stroke-linejoin:round;stroke-miterlimit:2;stroke-dasharray:none"/><path id="path258449" d="M297.3 330.891a9.22 9.22 0 0 1 1.981-.645c.198-.04.398-.064.598-.096.75-.054 1.746-.116 2.434.26.084.045.154.113.231.17.036.068.094.128.11.203.035.181-.072.385-.16.525-.246.392-.59.677-.942.965a5.688 5.688 0 0 1-1.76.876c-.018.005-.044-.008-.053.009-.035.062.052.02.124.018.085-.005.171 0 .257.005.372.02.418.04.805.102.783.17 1.407.503 1.913 1.14.087.11.157.232.235.348.24.456.372.964.21 1.472-.105.327-.19.392-.394.662-.107.095-.205.2-.32.283-.56.411-1.278.603-1.959.667-.196.019-.393.016-.59.024-.874-.027-1.76-.194-2.524-.647-.1-.06-.194-.129-.288-.198a1.653 1.653 0 0 1-.349-.345" style="display:inline;fill:none;stroke:#000;stroke-width:1;stroke-dasharray:none"/><path id="path620906" d="M224.41 323.781c25.266-.158 45.078-.24 70.225-.27 7.066-.01 19.54-.01 26.377.027" style="display:inline;fill:none;stroke:#000;stroke-width:.9;stroke-linecap:square;stroke-linejoin:round;stroke-miterlimit:2;stroke-dasharray:none;stroke-opacity:1"/><path id="path620908" d="M224.345 341.813c-.158-4.843-.241-8.64-.27-13.46-.01-1.355-.01-3.746.027-5.056" style="display:inline;fill:none;stroke:#000;stroke-width:.9;stroke-linecap:square;stroke-linejoin:round;stroke-miterlimit:2;stroke-dasharray:none;stroke-opacity:1"/><path id="path620910" d="M229.868 342.467c-1.14.058-2.418.047-3.446.02-.884-.025-1.768 0-2.651.078" style="display:inline;fill:none;stroke:#000;stroke-width:.999996;stroke-linecap:butt;stroke-linejoin:round;stroke-miterlimit:2;stroke-dasharray:none"/><path id="path620912" d="M321.035 341.813c-.158-4.843-.241-8.64-.27-13.46-.011-1.355-.011-3.746.026-5.056" style="display:inline;fill:none;stroke:#000;stroke-width:.9;stroke-linecap:square;stroke-linejoin:round;stroke-miterlimit:2;stroke-dasharray:none;stroke-opacity:1"/><path id="path620914" d="M224.41 342.419c25.266.157 45.078.24 70.225.27 7.066.01 19.54.01 26.377-.027" style="display:inline;fill:none;stroke:#000;stroke-width:.9;stroke-linecap:square;stroke-linejoin:round;stroke-miterlimit:2;stroke-dasharray:none;stroke-opacity:1"/><path id="path625358" d="M361.243 338.52c-.263.673-.615 1.315-.926 1.97-.135.266-.364.714-.499.994-.08.167-.11.24-.195.405-.064.075.011.114-.017.19-.054.065-.074-.033-.102.022.022.037.058.12.068.144-.076.029-.146.083-.228.086a.326.326 0 0 1-.04-.074c-.022-.053-.04-.108-.06-.162-.144-.4-.373-1.157-.482-1.565a43.838 43.838 0 0 1-.601-2.817" style="display:inline;fill:none;fill-opacity:1;stroke:#000;stroke-width:.799999;stroke-linecap:butt;stroke-linejoin:miter;stroke-miterlimit:4;stroke-dasharray:none;stroke-opacity:1"/><path id="path625360" d="M362.543 341.263c.074-.004.148 0 .222-.01a4.076 4.076 0 0 0 1.24-.352c.296-.14.443-.265.713-.46.216-.218.474-.431.37-.792a.566.566 0 0 0-.12-.221c-.15-.167-.334-.202-.53-.273-.123-.003-.247-.025-.368-.008-.15.021-.295.067-.437.123a2.448 2.448 0 0 0-1.13.902 2.272 2.272 0 0 0-.244.468 1.45 1.45 0 0 0-.115.475c-.004.16.04.32.093.47.055.151.125.301.228.42.26.303.685.496 1.049.58.26.059.529.056.793.084a7.91 7.91 0 0 0 1.81-.32" style="display:inline;fill:none;fill-opacity:1;stroke:#000;stroke-width:.799999;stroke-linecap:butt;stroke-linejoin:bevel;stroke-miterlimit:4;stroke-dasharray:none;stroke-opacity:1"/><path id="path625362" d="M369.574 338.84c-.937-.027-1.923.295-2.544 1-.216.28-.44.597-.412.967.004.601.505 1.077 1.03 1.324.774.352 1.676.394 2.5.204" style="display:inline;fill:none;fill-opacity:1;stroke:#000;stroke-width:.799999;stroke-linecap:butt;stroke-linejoin:bevel;stroke-miterlimit:4;stroke-dasharray:none;stroke-opacity:1"/><g id="g625368" style="display:inline;stroke-width:3.63518;stroke-dasharray:none" transform="matrix(.22314 0 0 .21705 378.745 298.003)"><path id="path625364" d="M-27.078 205.548c-.18-2.31-.372-4.61-.56-6.92-.492-6.02-1.012-12.03-1.24-18.06-.132-3.46-.13-6.92-.29-10.37" style="display:inline;fill:none;stroke:#000;stroke-width:3.63518;stroke-dasharray:none;stroke-opacity:1"/><path id="path625366" d="M-22.478 179.548c-2.55.25-5.09.516-7.64.73-2.71.226-5.42.43-8.14.63" style="display:inline;fill:none;stroke:#000;stroke-width:3.63518;stroke-dasharray:none;stroke-opacity:1"/></g><path id="path625370" d="M375.72 338.635c.094-.03.263-.038.322-.042.446-.037 1.035.191 1.342.402.128.089.276.196.386.305.117.116.223.243.318.377.313.44.508 1.031.329 1.576-.04.119-.101.232-.176.333-.082.11-.18.21-.289.295-.568.441-1.416.604-2.118.452-.2-.043-.459-.107-.641-.198-.368-.183-.605-.353-.846-.696-.265-.379-.202-.935-.024-1.33.071-.159.166-.31.28-.442.115-.133.258-.241.401-.344a2.26 2.26 0 0 1 1.742-.407" style="display:inline;fill:none;stroke:#000;stroke-width:.799999;stroke-linecap:butt;stroke-linejoin:round;stroke-miterlimit:2;stroke-dasharray:none;stroke-opacity:1"/><path id="path625372" d="M379.303 338.662c.187.723.34 1.427.517 2.153.14.575.277 1.167.372 1.731-.122-1.036 0-1.778.412-2.526.25-.456.838-1.283 1.571-1.39.283-.041.582.12.779.329.158.168.31.36.449.578" style="display:inline;fill:none;fill-opacity:1;stroke:#000;stroke-width:.799999;stroke-linecap:butt;stroke-linejoin:miter;stroke-miterlimit:4;stroke-dasharray:none;stroke-opacity:1"/><path id="path70112" d="M403.778 344.236c1.718-.986 2.565-2.415 2.45-3.882-.117-1.474-.773-2.48-1.87-3.61a5.785 5.785 0 0 0-1.575-1.027" style="display:inline;fill:none;stroke:#000;stroke-width:.799999;stroke-linecap:butt;stroke-miterlimit:2;stroke-dasharray:none"/><path id="path70108-2" d="M392.419 335.877c-1.663.904-2.864 2.547-3.066 3.893-.054.354-.035 1.263.168 1.769.36.897 1.096 1.604 2.212 2.254" style="display:inline;fill:none;stroke:#000;stroke-width:.799999;stroke-miterlimit:2;stroke-dasharray:none"/><path id="path631942" d="m396.037 342.659-.868 1.39" style="fill:#fff5d1;fill-opacity:1;stroke:#000;stroke-width:.799999;stroke-miterlimit:2;stroke-dasharray:none"/><path id="path633942" d="M349.554 346.238c.052-.176.144-.351.155-.529.12-1.857-.054-2.448-.094-4.321-.023-1.074-.031-3.793.032-5.168.078-.842.082-1.393.171-1.974.031-.203.08-1.394.11-1.598" style="fill:#fff5d1;fill-opacity:1;stroke:#000;stroke-width:.8;stroke-miterlimit:2;stroke-dasharray:none"/><path id="path633944" d="M349.268 346.095c16.614.016 33.227.01 49.843.038 3.433.005 13.743-.26 17.319.18" style="fill:#fff5d1;fill-opacity:1;stroke:#000;stroke-width:.8;stroke-miterlimit:2;stroke-dasharray:none"/><path id="path633946" d="M349.907 332.875c.908.024 1.813.072 2.724.072 17.125-.012 34.249-.079 51.374-.11.51 0 10.8-.112 12.034.148" style="fill:#fff5d1;fill-opacity:1;stroke:#000;stroke-width:.8;stroke-miterlimit:2;stroke-dasharray:none"/><path id="path633948" d="M415.876 332.822c-.051.177-.143.352-.155.53-.118 1.857.055 2.447.095 4.32.023 1.074.095 3.797-.032 5.168-.04.428.152 1.03.089 1.82-.017.203-.054 1.496-.085 1.7" style="fill:#fff5d1;fill-opacity:1;stroke:#000;stroke-width:.8;stroke-miterlimit:2;stroke-dasharray:none"/><path id="path644812" d="M381.946 270.07c-.09.192-.042.087-.15.32-.436.946-.817 1.915-1.222 2.871-.315.718-.212.496-.52 1.144-.043.088-.206.531-.357.59-.024.007-.049-.013-.073-.018-.15-.175-.235-.397-.338-.6a35.903 35.903 0 0 1-.726-1.541c-.508-1.161-.98-2.346-1.626-3.443" style="display:inline;fill:none;stroke:#000;stroke-width:.999995;stroke-dasharray:none"/><path id="path644814" d="M382.59 271.683c.666.324 1.446.37 2.174.266.217-.031.43-.09.645-.134.186-.067.384-.11.56-.2.387-.198.807-.582.834-1.04a.662.662 0 0 0-.066-.339c-.05-.099-.154-.162-.232-.244-.124-.045-.242-.117-.374-.136-.376-.054-.838.05-1.18.172a6.088 6.088 0 0 0-1.434.767c-.218.158-.41.347-.616.52-.152.195-.33.373-.455.586-.323.549-.44 1.26-.046 1.814.365.512.73.622 1.316.826a4.28 4.28 0 0 0 1.006.196c.784.074 1.662-.005 2.435-.12.391-.06.776-.157 1.164-.234" style="display:inline;fill:none;fill-opacity:1;stroke:#000;stroke-width:.999994;stroke-linecap:butt;stroke-linejoin:bevel;stroke-miterlimit:4;stroke-dasharray:none;stroke-opacity:1"/><path id="path644816" d="M394.752 274.499c-.561.378-1.292.452-1.973.504-1.116.04-2.316-.191-3.13-.908-.508-.439-.799-1.131-.606-1.754.23-.78 1.005-1.305 1.777-1.669a5.055 5.055 0 0 1 1.958-.476c.35-.019.863.052 1.04.154" style="display:inline;fill:none;stroke:#000;stroke-width:.999994;stroke-miterlimit:2;stroke-dasharray:none"/><g id="g644822" style="display:inline;stroke-width:2.13379" transform="matrix(.47485 0 0 .46252 343.31 181.872)"><path id="path644818" d="M112.802 201.428c-.07-.71-.051-1.42-.07-2.13-.091-3.31-.043-6.62.06-9.93.087-2.82.05-5.65.23-8.47" style="display:inline;fill:none;stroke:#000;stroke-width:2.13379;stroke-opacity:1"/><path id="path644820" d="M118.652 187.118c-1.4-.05-2.8-.095-4.2-.13-2.57-.065-5.14-.09-7.71-.08" style="display:inline;fill:none;stroke:#000;stroke-width:2.13379;stroke-opacity:1"/></g><path id="path644824" d="M400.423 270.141c-.815.22-1.598.638-2.133 1.293a2.61 2.61 0 0 0-.34.512c-.09.187-.16.387-.19.591-.097.666.173 1.347.683 1.796.504.443.823.535 1.469.693.302.074.622.074.933.06 1.098-.05 2.508-.528 3.062-1.54.102-.186.165-.397.189-.608a1.618 1.618 0 0 0-.05-.613c-.265-.946-1.276-1.656-2.187-1.932-.25-.076-.53-.147-.772-.145-.22 0-.419.012-.658.047" style="display:inline;fill:none;fill-opacity:1;stroke:#000;stroke-width:.999994;stroke-linecap:butt;stroke-linejoin:miter;stroke-miterlimit:4;stroke-dasharray:none;stroke-opacity:1"/><path id="path644826" d="M412.218 269.507a3.9 3.9 0 0 0-1.44-.3c-1.174.008-2.36.4-3.262 1.142-.483.414-.9.959-1.002 1.592-.033.725-.013 1.461.143 2.174.017.175.176.37.154.074-.072-.3-.101-.604-.133-.91-.16-1.15-.574-2.25-1.057-3.303" style="display:inline;fill:none;stroke:#000;stroke-width:.999994;stroke-miterlimit:2;stroke-dasharray:none"/><path id="path58589-3" d="M423.88 275.82c-1.18-.01-2.202-.63-2.896-1.35-.507-.495-.814-1.117-1.032-1.726-.278-.938-.016-1.915.37-2.807.412-.866 1.051-1.629 1.795-2.338a5.634 5.634 0 0 1 1.141-.81" style="display:inline;fill:none;stroke:#000;stroke-width:1;stroke-miterlimit:2;stroke-dasharray:none"/><path id="path60085-5" d="M444.923 276.75a4.121 4.121 0 0 0 1.113-.574c.46-.344.794-.634 1.17-1.356.766-1.47.503-3.079-.1-4.538a7.651 7.651 0 0 0-.57-1.14c-.58-.938-1.44-2.039-2.432-2.85" style="display:inline;fill:none;stroke:#000;stroke-width:.999994;stroke-miterlimit:2;stroke-dasharray:none"/><path id="path650857" d="M426.64 267.666c.007.062.009.125.013.178.022.505.051 1.01.06 1.516.013.548.011 1.097.035 1.645.024.534.05 1.068.063 1.603.008.49.019.982.057 1.472.016.241.03.483.026.725" style="display:inline;fill:none;stroke:#000;stroke-width:1;stroke-dasharray:none"/><path id="path21165" d="M442.338 267.456c-.6.681-1.194 1.385-1.688 1.983-.67.805-1.346 1.605-2.02 2.407-.226.27-.44.55-.683.807" style="display:inline;fill:#000;fill-opacity:1;stroke:#000;stroke-width:1;stroke-miterlimit:4;stroke-dasharray:none;stroke-opacity:1"/><path id="path21171" d="M444.552 272.45c-.588.014-1.186.03-1.69.044-1.154.034-2.309.064-3.464.104-.521.021-1.043.036-1.564.073" style="display:inline;fill:none;fill-opacity:1;stroke:#000;stroke-width:1;stroke-miterlimit:4;stroke-dasharray:none;stroke-opacity:1"/><path id="path21173" d="M442.248 275.05a11.45 11.45 0 0 1-.048-1.105c.014-.906.03-1.813.05-2.719.026-1.023.032-2.046.022-3.068 0-.384 0-.206.002-.534" style="display:inline;fill:none;fill-opacity:1;stroke:#000;stroke-width:1;stroke-miterlimit:4;stroke-dasharray:none;stroke-opacity:1"/><path id="path653093" d="M436.5 271.791c-.415-.008-.836-.013-1.191-.016-.814-.006-1.629-.018-2.443-.019-.368.003-.737 0-1.104.018" style="display:inline;fill:none;fill-opacity:1;stroke:#000;stroke-width:1;stroke-miterlimit:4;stroke-dasharray:none;stroke-opacity:1"/><path id="path653290" d="M461.487 261.641c-8.482-.008-17.091-.014-24.35-.017-16.649-.007-33.297-.02-49.946-.02-7.522.003-15.05-.001-22.569.018" style="display:inline;fill:none;fill-opacity:1;stroke:#000;stroke-width:.9;stroke-miterlimit:4;stroke-dasharray:none;stroke-opacity:1"/><path id="path653292" d="M461.185 280.294c-8.455.007-17.038.012-24.275.015-6.201.003-12.405-.129-18.604.008-8.598.19-20.79.009-31.185.01-7.499-.003-15.003 0-22.499-.016" style="display:inline;fill:none;fill-opacity:1;stroke:#000;stroke-width:.9;stroke-miterlimit:4;stroke-dasharray:none;stroke-opacity:1"/><path id="path653491" d="M365.26 261.049c0 .17-.003.344-.003.49-.02 1.394-.032 2.789-.066 4.18-.034 1.51-.084 3.018-.105 4.53-.021 1.472-.038 2.946-.072 4.417a169.678 169.678 0 0 0-.066 4.058 60.48 60.48 0 0 1-.034 2" style="display:inline;fill:none;stroke:#000;stroke-width:.9;stroke-dasharray:none"/><path id="path653493" d="M460.75 280.74c.001-.17-.002-.344-.002-.49-.02-1.394-.032-2.789-.066-4.18-.033-1.51-.083-3.017-.105-4.529-.02-1.473-.038-2.946-.071-4.418a169.678 169.678 0 0 1-.067-4.058 60.48 60.48 0 0 0-.034-2" style="display:inline;fill:none;stroke:#000;stroke-width:.9;stroke-dasharray:none"/><path id="path653497" d="M429.969 274.283c-.124 1.077-1.498 2.096-2.048 2.483" style="fill:#fff5d1;fill-opacity:1;stroke:#000;stroke-width:.8;stroke-miterlimit:2;stroke-dasharray:none"/><path id="path285140" d="m435.956-28.152-.093-.052c-.741-.228-1.524-.278-2.293-.33-1.07-.03-2.145 0-3.191.253-.299.07-.606.128-.871.29v.053c0 .01.016-.013.024-.018.084-.056.174-.103.261-.153a9.628 9.628 0 0 0 1.959-1.576c.378-.398.527-.544.875-.973.51-.628.977-1.295 1.38-1.997.232-.407.692-1.17.466-1.668a.502.502 0 0 0-.133-.175.713.713 0 0 0-.215-.116c-.623-.228-1.4-.093-2.041.059-.789.187-1.576.413-2.307.771" style="display:inline;fill:none;stroke:#000;stroke-width:1;stroke-dasharray:none"/><rect id="rect678890" width="98.818" height="18.576" x="428.001" y="88.246" rx="0" ry="0" style="fill:#fff5d1;fill-opacity:1;stroke:none;stroke-width:.999998;stroke-miterlimit:2"/><path id="path664422" d="M444.018 95.84c-.178.264-.207.612-.363.884-.658 1.559-1.471 3.026-2.093 4.592-.096.265-.185.538-.28.795-.016.053-.052.106-.067.159-.008.03.06.15-.022-.008a99.927 99.927 0 0 1-.969-2.013c-.555-1.195-1.072-2.413-1.716-3.563" style="display:inline;fill:none;stroke:#000;stroke-width:.999998;stroke-miterlimit:2;stroke-dasharray:none"/><path id="path664424" d="M445.81 100.228c.72-.073 1.45-.352 2.007-.819.142-.12.274-.254.384-.402.107-.143.198-.3.262-.465.173-.442.158-1.172-.416-1.326a.847.847 0 0 0-.368 0 1.758 1.758 0 0 0-.429.14 4.37 4.37 0 0 0-1.845 1.614c-.11.179-.21.367-.28.565a1.957 1.957 0 0 0-.12.58c-.018.591.317 1.125.833 1.42.444.254.93.313 1.556.285.84-.036 1.423-.326 2.123-.778.236-.152.53-.4.686-.649" style="display:inline;fill:none;stroke:#000;stroke-width:1;stroke-linecap:butt;stroke-linejoin:round;stroke-miterlimit:2;stroke-dasharray:none;stroke-opacity:1"/><path id="path664426" d="M455.892 101.657c-.285.228-.777.38-1.08.42-.85.117-1.572.05-2.331-.354-.461-.245-.907-.686-1.058-1.194-.169-.571-.101-1.236.27-1.742.485-.662 1.06-.933 1.813-1.12.375-.093 1.023-.138 1.386-.082" style="display:inline;fill:none;stroke:#000;stroke-width:.999994;stroke-opacity:1"/><g id="g664432" style="display:inline;stroke-width:1.71671" transform="matrix(.62357 0 0 .61913 1118.18 2228.925)"><path id="path664428" d="M-1058.944-3434.346c.027-1.564.041-3.128.054-4.698.027-3.296.02-6.598-.061-9.894" style="display:inline;fill:none;stroke:#000;stroke-width:1.60939;stroke-opacity:1"/><path id="path664430" d="M-1055.037-3445.521c-.87.04-.391.014-1.435.067-2.129.108-4.25.228-6.358.544" style="display:inline;fill:none;stroke:#000;stroke-width:1.60939;stroke-opacity:1"/></g><path id="path664434" d="M462.016 97.585c.336-.22.776-.24 1.185-.217.379.05.718.237 1.02.454.7.503.974 1.204 1.043 1.952.055.625-.4 1.2-.925 1.515-.831.507-1.788.655-2.75.605-.45-.064-.92-.154-1.3-.412-.479-.326-.83-.86-.82-1.448-.013-.703.439-1.342 1.022-1.712.378-.24.91-.5 1.298-.383" style="display:inline;fill:none;stroke:#000;stroke-width:.999998;stroke-miterlimit:2;stroke-dasharray:none"/><path id="path664436" d="M474.149 96.9c-.242-.26-.486-.298-.78-.312a6.058 6.058 0 0 0-.88.024c-1.488.14-3.551.727-4.44 2.04-.185.27-.323.583-.342.887-.055.838-.05.791.17 1.559.074.192.196.384.245.6 0 .024-.024-.024-.024-.024-.049-.096-.122-.168-.17-.264-.855-1.583-1.636-3.19-2.417-4.822" style="display:inline;fill:none;stroke:#000;stroke-width:.999994;stroke-miterlimit:2;stroke-dasharray:none"/><path id="path58589-3-2" d="M487.702 103.445c-1.429-.011-2.664-.737-3.504-1.58-.613-.58-.984-1.307-1.248-2.022-.337-1.098-.02-2.241.446-3.286.5-1.014 1.273-1.907 2.173-2.738a6.82 6.82 0 0 1 1.38-.947" style="display:inline;fill:none;stroke:#000;stroke-width:.999996;stroke-miterlimit:2;stroke-dasharray:none"/><path id="path70112-6" d="M509.68 103.562c2.73-.93 4.214-2.561 4.256-4.408.042-1.854-.797-3.219-2.282-4.815-.53-.523-1.344-1.117-2.218-1.55" style="display:inline;fill:none;stroke:#000;stroke-width:.999996;stroke-linecap:butt;stroke-miterlimit:2;stroke-dasharray:none"/><path id="path258431" d="M488.13 100.828c.101.054.207.105.294.15a5.49 5.49 0 0 0 1.825.447c.181.007.363.021.544.019.808-.012 1.593-.22 2.246-.684.214-.206.326-.275.454-.54.212-.44.078-.874-.18-1.264-.085-.104-.163-.215-.256-.314-.519-.554-1.214-.915-1.93-1.182-.246-.077-.585-.199-.849-.22-.026 0-.051.017-.078.016-.009 0 .014-.012.02-.017l.127-.035c.686-.18 1.347-.438 1.86-.925.081-.095.17-.184.241-.286.216-.31.357-.723.104-1.054-.053-.07-.13-.12-.194-.179-.087-.04-.171-.091-.263-.123-.623-.222-1.323-.133-1.956-.013-.768.2-1.544.437-2.205.875" style="display:inline;fill:none;stroke:#000;stroke-width:.999996;stroke-dasharray:none"/><path id="path671448" d="m496.102 101.12-2.542 3.122" style="fill:#fff5d1;fill-opacity:1;stroke:#000;stroke-width:.999996;stroke-miterlimit:2;stroke-dasharray:none"/><path id="path91879" d="M509.818 101.351a33.082 33.082 0 0 0-6.126.136c-.079.009-.028.013-.063.078 0 .006.06-.021.14-.084.148-.118.257-.225.498-.445 1.046-.954 2.27-2.114 3.081-3.16.517-.668 1.28-1.71 1.19-2.548a.84.84 0 0 0-.248-.512c-.45-.465-1.181-.43-1.745-.334-.402.068-1.038.31-1.447.569-.572.362-1.138.787-1.656 1.35" style="display:inline;fill:none;stroke:#000;stroke-width:.999999;stroke-linecap:butt;stroke-linejoin:round;stroke-miterlimit:2;stroke-dasharray:none;stroke-opacity:1"/><path id="path677502" d="m502.833 99.314-4.671-.023" style="fill:#fff5d1;fill-opacity:1;stroke:#000;stroke-width:.999994;stroke-miterlimit:2;stroke-dasharray:none"/><path id="path678666" d="M427.195 107.188c18.405.2 36.818.074 55.225.003 15.003-.036 30.006-.078 45.01-.104" style="fill:#fff5d1;fill-opacity:1;stroke:#000;stroke-width:.9;stroke-miterlimit:2;stroke-dasharray:none"/><path id="path678662" d="M526.993 88.146c-7.733.014-15.527.307-23.039.05-6.221-.213-14.968.038-21.681.054-10.554.041-21.114.4-31.665.105-8.161-.228-15.458-.024-23.186-.108" style="fill:#fff5d1;fill-opacity:1;stroke:#000;stroke-width:.9;stroke-miterlimit:2;stroke-dasharray:none"/><path id="path678886" d="M428.093 108.074c.466-5.316.018-8.253.02-13.579 0-2.17-.101-4.955-.163-6.286" style="fill:#fff5d1;fill-opacity:1;stroke:#000;stroke-width:.9;stroke-miterlimit:2;stroke-dasharray:none"/><path id="path678888" d="M526.786 107.829c.499-5.316.02-8.253.021-13.579 0-2.171-.108-4.955-.174-6.287" style="fill:#fff5d1;fill-opacity:1;stroke:#000;stroke-width:.9;stroke-miterlimit:2;stroke-dasharray:none"/><path id="path685614" d="M557.124 125.963a191.76 191.76 0 0 0-.731 1.74 257.044 257.044 0 0 1-1.557 3.718c-.18.332-.114.266-.3.01-.519-.797-.965-1.634-1.444-2.457-.652-1.102-1.297-2.211-2.022-3.267" style="display:inline;fill:none;stroke:#000;stroke-width:1;stroke-miterlimit:2;stroke-dasharray:none"/><path id="path685616" d="M557.48 129.225c1.446.44 3.124.019 3.757-.5.336-.276.608-.69.508-1.101-.108-.45-.492-.711-1.126-.82-.672-.122-1.375.123-1.935.475-.734.481-1.284 1.102-1.405 1.966-.14 1.022.528 2.106 1.547 2.424.852.29 1.705.241 2.51-.105.572-.246 1.165-.63 1.492-1.172" style="display:inline;fill:none;stroke:#000;stroke-width:.999998;stroke-linecap:butt;stroke-linejoin:round;stroke-miterlimit:2;stroke-dasharray:none;stroke-opacity:1"/><path id="path685618" d="M569.448 131.048a6.901 6.901 0 0 1-2.448.396c-1.661-.047-2.925-.673-3.035-2.04-.062-.761.292-1.445.868-1.932.788-.665 2.134-1.015 3.224-.726" style="display:inline;fill:none;stroke:#000;stroke-width:1;stroke-dasharray:none"/><g id="g685624" style="display:inline;stroke-width:1.83973" transform="matrix(.58706 0 0 .57261 1285.79 2014.962)"><path id="path685620" d="M-1215.066-3288.94a191.975 191.975 0 0 1-.27-7.536c0-3.042 0-6.083.01-9.115" style="fill:none;stroke:#000;stroke-width:1.72476;stroke-dasharray:none"/><path id="path685622" d="M-1210.58-3300.782c-.917.054-.414.018-1.493.099-2.66.233-5.312.627-7.937 1.12" style="fill:none;stroke:#000;stroke-width:1.72476;stroke-dasharray:none"/></g><path id="path685626" d="M577.115 126.703c.553-.207 1.179-.048 1.67.232.345.197.632.486.83.822.425.722.49 1.576.089 2.304a2.996 2.996 0 0 1-.818.876c-.432.28-1.143.424-1.784.44-.663.016-1.318-.209-1.873-.573-.52-.34-.872-.934-.772-1.545.081-.49.324-.943.663-1.305.54-.579 1.298-1.059 2.132-1.018.79.038.04 0 .062.008.02 0 .061.008.061.008" style="display:inline;fill:none;stroke:#000;stroke-width:.999996;stroke-opacity:1"/><path id="path685628" d="M587.196 126.57c-.932-.32-2.15-.169-3.189.454-.694.416-.93.604-1.409 1.275-.593.832-.79 1.843-.766 2.834 0 .095-.01.19.013.284.01.025.037.1.052.07.017-.033-.029-.069-.038-.108-.108-.44-.148-.893-.215-1.344-.18-1.21-.337-2.437-.33-3.667" style="display:inline;fill:none;stroke:#000;stroke-width:.999989;stroke-opacity:1"/><path id="path99049-0" d="M599.895 132.754c-.146.007-.525-.046-.664-.07-1.24-.217-2.147-1.046-2.7-1.82-.604-.846-.837-1.81-.664-2.801.116-.669.5-1.437.882-1.955.706-.96 1.693-1.61 2.922-2.05" style="display:inline;fill:none;fill-opacity:1;stroke:#000;stroke-width:1;stroke-linecap:butt;stroke-linejoin:miter;stroke-miterlimit:4;stroke-dasharray:none;stroke-opacity:1"/><path id="path84775-4" d="M621.723 132.636c1.378-.41 2.55-1.335 3.292-2.165.562-.63 1.183-1.779.847-3.024-.193-.714-.544-1.224-1.038-1.725-.834-.844-1.872-1.518-3.13-2.128" style="display:inline;fill:none;fill-opacity:1;stroke:#000;stroke-width:1;stroke-linecap:butt;stroke-linejoin:miter;stroke-miterlimit:4;stroke-dasharray:none;stroke-opacity:1"/><path id="path309418" d="M603.495 123.437c-.003.07-.002.141-.003.201 0 .572-.005 1.144.007 1.716.009.62.03 1.24.03 1.86 0 .604-.002 1.209.007 1.813.011.555.02 1.11.007 1.666-.005.273-.007.547.005.82" style="display:inline;fill:none;stroke:#000;stroke-width:1;stroke-dasharray:none"/><path id="path692914" d="M606.91 130.677c-.502 2.168-1.385 2.775-2.25 3.257" style="fill:#fff5d1;fill-opacity:1;stroke:#000;stroke-width:1;stroke-miterlimit:2;stroke-dasharray:none"/><path id="path693149" d="M614.167 128.638c-.043-.003-.086-.002-.123-.003-.348 0-.697-.005-1.045.007-.378.008-.756.027-1.133.028-.369 0-.737-.002-1.105.006-.338.01-.677.018-1.015.007a4.907 4.907 0 0 0-.5.005" style="display:inline;fill:none;stroke:#000;stroke-width:.999992;stroke-dasharray:none"/><g id="g639078" style="display:inline;stroke-width:.624249" transform="matrix(1.78253 0 0 1.63797 2778.546 6276.363)"><path id="path311715-1" d="M-1209.593-3753.073c-.135 0-.207.01-.313.01-.704.01-1.411.025-2.115.064-.396.022-.796.096-1.192.078-.19-.153.061-.72.106-.893.189-.72.41-1.441.446-2.189" style="fill:none;stroke:#000;stroke-width:.58523;stroke-dasharray:none"/><path id="path311717-1" d="M-1210.765-3751.6a9.06 9.06 0 0 1-.222-.822c-.16-.74-.196-1.53-.26-2.28" style="fill:none;stroke:#000;stroke-width:.58523;stroke-dasharray:none"/></g><path id="path695832" d="M637.84 118.727c-.858-.003-1.73-.002-2.466-.003-7.018 0-14.035-.005-21.053.007-7.609.01-15.216.033-22.825.033-7.417 0-14.832-.002-22.25.008-6.811.012-13.625.021-20.436.008a1989.04 1989.04 0 0 0-10.071.005" style="display:inline;fill:none;stroke:#000;stroke-width:.9;stroke-dasharray:none"/><path id="path695834" d="M637.84 137.161c-.858.003-1.73.002-2.466.003-7.018 0-14.035.005-21.053-.007-7.609-.01-15.216-.032-22.825-.032-7.417-.001-14.832.002-22.25-.008-6.811-.013-14.542.326-20.321.107-3.355-.127-6.829-.108-10.186-.12" style="display:inline;fill:none;stroke:#000;stroke-width:.9;stroke-dasharray:none"/><path id="path695836" d="M637.806 118.313c.004.168.005.338.008.482.007 1.37.023 2.74.016 4.107-.004 1.483-.024 2.964-.016 4.449.008 1.447.02 2.894.015 4.34-.007 1.328-.012 2.656.014 3.987.01.655.017 1.31.005 1.964" style="display:inline;fill:none;stroke:#000;stroke-width:.9;stroke-dasharray:none"/><path id="path695838" d="M538.979 118.313c.004.168.005.338.008.482.007 1.37.022 2.74.015 4.107-.005 1.483-.025 2.964-.017 4.449.008 1.447.02 2.894.014 4.34-.007 1.328-.012 2.656.013 3.987.01.655.017 1.31.005 1.964" style="display:inline;fill:none;stroke:#000;stroke-width:.9;stroke-dasharray:none"/><path id="path702721" d="M569.507 328.632c-.071.214-.143.422-.227.637a27.57 27.57 0 0 1-1.72 3.479c-.227.377-.453.76-.699 1.119-.466-.462-.634-1.171-.977-1.71a167.321 167.321 0 0 1-1.92-4.26" style="display:inline;fill:none;stroke:#000;stroke-width:.999992;stroke-miterlimit:2;stroke-dasharray:none"/><path id="path702723" d="M571.558 331.022c.856.137 1.768.1 2.573-.241.17-.072.34-.152.484-.263.214-.166.418-.317.427-.613.013-.388-.415-.678-.716-.835a2.035 2.035 0 0 0-.41-.169c-.146-.04-.299-.07-.451-.064-.78.026-1.597.693-2.058 1.248a3.839 3.839 0 0 0-.41.596c-.116.21-.216.43-.283.66-.181.62-.165 1.32.27 1.844.35.42.617.529 1.13.707 1.068.371 2.061.318 3.138-.044.52-.175.79-.326 1.25-.589.131-.075.248-.173.372-.26" style="display:inline;fill:none;stroke:#000;stroke-width:.999993;stroke-linecap:butt;stroke-linejoin:round;stroke-miterlimit:2;stroke-dasharray:none"/><path id="path702725" d="M583.12 334.201c-.343.052-.69.11-.985.13-1.22.081-2.64-.093-3.543-.798-.302-.236-.582-.523-.67-.843-.105-.378-.044-.893.106-1.256.215-.517.624-.956 1.137-1.29.804-.523 1.864-.782 2.684-.687" style="display:inline;fill:none;fill-opacity:1;stroke:#000;stroke-width:.999998;stroke-linecap:butt;stroke-linejoin:round;stroke-miterlimit:4;stroke-dasharray:none;stroke-dashoffset:0;stroke-opacity:1"/><path id="path702727" d="M587.423 327.182c-.653.119-1.303.254-1.95.389-1.267.271-2.526.579-3.81.767" style="display:inline;fill:none;stroke:#000;stroke-width:.999995;stroke-dasharray:none"/><path id="path702729" d="M588.916 332.354c-.024.398-.235.75-.527 1.03a2.546 2.546 0 0 1-2.08.68c-.76-.094-1.497-.557-1.739-1.408-.34-1.202-.131-3.258-.137-4.612-.005-1.07.028-2.14.091-3.209" style="display:inline;fill:none;stroke:#000;stroke-width:.999992;stroke-dasharray:none"/><path id="path702731" d="M593.702 328.903a2.76 2.76 0 0 1 2.416 1.092c.46.593.825 1.427.59 2.221-.242.884-1.012 1.4-1.757 1.653-1.049.335-2.22.453-3.251-.022-.613-.272-1.16-.841-1.28-1.594-.16-.796.145-1.774.655-2.374.316-.372.85-.66 1.402-.75a.973.973 0 0 1 .712.177" style="display:inline;fill:none;stroke:#000;stroke-width:.999998;stroke-opacity:1"/><path id="path702733" d="M604.704 329.138c-.72-.204-.332-.128-1.18-.205-2.242.165-3.472.783-4.197 2.956-.044.254-.347 1.647.092 1.865.11.054.02-.236-.036-.343a25.005 25.005 0 0 1-.405-4.098" style="display:inline;fill:none;stroke:#000;stroke-width:.999997;stroke-dasharray:none"/><path id="path713438" d="M553.37 320.424c.956.074 2.687.225 3.746.249 25.966.571 52.152-.157 78.132-.045 7.092.03 14.317-.034 21.413.022 2.703.021.745.171 2.352.019" style="fill:#b8b8de;fill-opacity:1;stroke:#000;stroke-width:.9;stroke-miterlimit:2;stroke-dasharray:none"/><path id="path713446" d="M553.078 338.915c7.763.084 15.52.228 23.289.252 12.847.04 25.692-.133 38.54-.164 14.867-.037 29.778.065 44.583-.303" style="fill:#b8b8de;fill-opacity:1;stroke:#000;stroke-width:.9;stroke-miterlimit:2;stroke-dasharray:none"/><path id="path713448" d="M553.787 339.316c-.614-5.18-.637-10.377-.48-15.569.028-.954.41-2.723.258-3.723" style="fill:#b8b8de;fill-opacity:1;stroke:#000;stroke-width:.9;stroke-miterlimit:2;stroke-dasharray:none"/><path id="path713450" d="M658.331 339.316c.123-6.079-.016-10.95.154-15.569.035-.953-.083-2.723.068-3.723" style="fill:#b8b8de;fill-opacity:1;stroke:#000;stroke-width:.9;stroke-miterlimit:2;stroke-dasharray:none"/><path id="path99134" d="M619.78 335.59c-1.3-.207-2.402-.588-3.333-1.308-.61-.484-1.022-.94-1.333-1.857-.366-1.077-.197-2.224.274-3.26.338-.741.802-1.38 1.268-1.942.83-1.003 1.892-1.957 3.196-2.591" style="display:inline;fill:none;fill-opacity:1;stroke:#000;stroke-width:1;stroke-linecap:butt;stroke-linejoin:miter;stroke-miterlimit:4;stroke-dasharray:none;stroke-opacity:1"/><path id="path85054" d="M641.067 335.955a8.08 8.08 0 0 0 2.826-1.333c.708-.514 1.339-1.269 1.557-2.141.403-1.463.068-3.032-.545-4.387-.737-1.626-1.882-2.645-3.381-3.572" style="display:inline;fill:none;fill-opacity:1;stroke:#000;stroke-width:1;stroke-linecap:butt;stroke-linejoin:miter;stroke-miterlimit:4;stroke-dasharray:none;stroke-opacity:1"/><path id="path272530" d="M619.677 333.085c.113.132.186.216.34.335.09.068.181.134.278.191.732.435 1.582.594 2.42.62.189-.007.378-.004.565-.022.655-.063 1.345-.248 1.884-.645.11-.082.206-.184.309-.276.197-.264.28-.328.381-.647.157-.495.028-.99-.205-1.434-.076-.112-.144-.23-.227-.336-.487-.615-1.089-.936-1.841-1.1-.34-.056-.677-.114-1.023-.103-.06 0-.159.017-.106.059.015.011.037-.006.055-.01a5.501 5.501 0 0 0 1.687-.846c.338-.278.672-.554.907-.933.093-.15.193-.347.151-.536-.017-.077-.076-.137-.114-.206-.076-.055-.145-.122-.228-.167-.662-.36-1.616-.3-2.336-.248-.19.03-.383.054-.572.092-.651.13-1.29.344-1.896.617" style="display:inline;fill:none;stroke:#000;stroke-width:1;stroke-dasharray:none"/><path id="path710372" d="M627.823 333.527c-.559 1.764-1.695 2.773-2.254 3.525" style="fill:#b8b8de;fill-opacity:1;stroke:#000;stroke-width:.8;stroke-miterlimit:2;stroke-dasharray:none"/><path id="path710880" d="M635.426 331.376c-1.015-.053-3.655.073-4.591.038" style="fill:#b8b8de;fill-opacity:1;stroke:#000;stroke-width:1;stroke-miterlimit:2;stroke-dasharray:none"/><path id="path285140-0" d="M641.823 334.06c-.48-.212-1.022-.254-1.54-.318-1.562-.147-3.17-.12-4.684.335-.166.003-.495.323-.162.103 1.329-.759 2.414-1.88 3.342-3.085.561-.756 1.1-1.545 1.478-2.412.137-.345.233-.849-.123-1.095-.677-.343-1.471-.19-2.178-.035-.822.193-1.641.423-2.402.796" style="display:inline;fill:none;stroke:#000;stroke-width:.999999;stroke-dasharray:none"/><path id="path718769" d="m627.132 276.02-13.495-17.77-2.528 6.741L332.782 160.62l-3.3 8.801 278.326 104.373-2.528 6.741z" class="fat-vector-arrows" style="opacity:.7;fill:#ac9393;stroke:none"/><rect id="rect739267" width="104.251" height="18.576" x="451.2" y="18.374" rx="0" ry="0" style="fill:#fff5d1;fill-opacity:1;stroke:none;stroke-width:1;stroke-miterlimit:2" transform="rotate(20.561)"/><path id="path722812" d="M427.78 188.585c-1.057.689-1.844 1.645-2.739 2.494-.503.496-.989 1.011-1.532 1.463-.103-.186-.087-.425-.087-.613-.013-.617.013-1.232.011-1.85.008-1.455.016-2.91.028-4.37" style="display:inline;fill:none;stroke:#000;stroke-width:.999997;stroke-miterlimit:2;stroke-dasharray:none"/><path id="path722814" d="M427.863 191.062c.92.606 2.013 1.047 3.128 1.066.229.004.455-.04.683-.062.174-.06.36-.094.522-.183.388-.215.556-.636.306-1.033-.277-.437-.578-.605-.973-.773a2.982 2.982 0 0 0-.703-.2c-.96-.152-2.133.1-2.813.827a1.89 1.89 0 0 0-.522 1.266c-.025 1.229.994 2.187 2.028 2.686.34.165.701.285 1.065.388.921.262 1.887.327 2.842.298.179-.006.356-.032.534-.048" style="display:inline;fill:none;stroke:#000;stroke-width:1;stroke-linecap:square;stroke-linejoin:round;stroke-miterlimit:2;stroke-dasharray:none"/><path id="path722816" d="M437.284 197.473c-.123.031-.247.064-.352.087-.553.094-1.112.088-1.635-.077-.466-.147-.844-.325-1.206-.683-.479-.477-.76-1.103-.729-1.77.01-.208.05-.414.109-.613.059-.197.15-.384.25-.563.373-.652 1.001-1.115 1.732-1.304.166-.042.347-.077.518-.09.155-.012.343-.003.497.023.59.098.939.36 1.126.862" style="display:inline;fill:none;fill-opacity:1;stroke:#000;stroke-width:1;stroke-linecap:butt;stroke-linejoin:miter;stroke-miterlimit:4;stroke-dasharray:none;stroke-opacity:1"/><g id="g722822" style="display:inline;stroke-width:1.72977" transform="matrix(.5822 .21844 -.21472 .57258 440.201 2347.505)"><path id="path722818" d="M-1215.066-3288.94a191.975 191.975 0 0 1-.27-7.536c0-3.042 0-6.083.01-9.115" style="fill:none;stroke:#000;stroke-width:1.62167;stroke-dasharray:none"/><path id="path722820" d="M-1210.58-3300.782c-.917.054-.414.018-1.493.099-2.66.233-5.312.627-7.937 1.12" style="fill:none;stroke:#000;stroke-width:1.62167;stroke-dasharray:none"/></g><path id="path722824" d="M445.369 196.14c.684.12 1.394.323 1.914.8.585.538.718 1.4.627 2.153-.062.51-.335 1-.794 1.25-.566.309-1.252.42-1.886.4-.961-.033-1.93-.277-2.773-.764-.428-.248-.745-.635-.963-1.075-.245-.493-.275-1.09-.022-1.579.406-.784 1.24-1.317 2.1-1.463 1-.17 2.055-.162 3.03.147" style="display:inline;fill:none;stroke:#000;stroke-width:.999994;stroke-opacity:1"/><path id="path722826" d="M456.245 200.027c-.124-.27-.384-.454-.617-.629-1.27-.736-2.65-.823-4.007-.258-.244.147-.498.26-.721.429-.834.631-1.222 1.59-1.3 2.598.013.1-.004.338.127.243.124-.097.065-.718.064-.813.002-.18.01-.357.015-.528.077-1.334.244-2.656.377-3.984" style="display:inline;fill:none;stroke:#000;stroke-width:.999996;stroke-dasharray:none"/><path id="path99134-1" d="M468.979 211.498c-1.26-.664-2.262-1.427-2.973-2.457-.464-.686-.732-1.276-.744-2.275-.014-1.176.542-2.227 1.37-3.064.594-.598 1.281-1.051 1.946-1.43 1.186-.677 2.591-1.223 4.137-1.373" style="display:inline;fill:none;fill-opacity:1;stroke:#000;stroke-width:1;stroke-linecap:butt;stroke-linejoin:miter;stroke-miterlimit:4;stroke-dasharray:none;stroke-opacity:1"/><path id="path85054-8" d="M491.975 221.06a8.74 8.74 0 0 0 3.368-.365c.907-.277 1.906-1.048 2.439-1.867.763-1.173 1.224-2.987 1-4.697-.223-1.71-1.068-3.162-2.274-4.646" style="display:inline;fill:none;fill-opacity:1;stroke:#000;stroke-width:1;stroke-linecap:butt;stroke-linejoin:miter;stroke-miterlimit:4;stroke-dasharray:none;stroke-opacity:1"/><path id="path729760" d="M507.39 229.759c1.11-3.086 2.712-7.277 3.458-9.72.203-.665 2.166-5.688 2.374-6.352.49-1.563.433-.773.466-1.472" style="fill:#b8b8de;fill-opacity:1;stroke:#000;stroke-width:.899997;stroke-miterlimit:2;stroke-dasharray:none"/><path id="path729762" d="M415.656 175.636c25.401 9.433 50.861 19.167 76.293 28.648 7.357 2.743 14.69 5.435 22.045 8.23" style="fill:#b8b8de;fill-opacity:1;stroke:#000;stroke-width:.899999;stroke-miterlimit:2;stroke-dasharray:none"/><path id="path729764" d="M409.253 193.07c1.212.472 6.02 2.313 7.24 2.768 25.733 9.592 45.477 16.877 71.21 26.47 5.87 2.188 12.914 4.917 20.025 7.516" style="fill:#b8b8de;fill-opacity:1;stroke:#000;stroke-width:.9;stroke-miterlimit:2;stroke-dasharray:none"/><path id="path729766" d="M409.343 193.577c.17-.427.343-.853.508-1.281 1.539-3.997 3.099-7.986 4.604-11.995.347-.924.64-1.868.952-2.804.219-.656.421-1.317.643-1.972" style="fill:#b8b8de;fill-opacity:1;stroke:#000;stroke-width:.9;stroke-miterlimit:2;stroke-dasharray:none"/><path id="path1644-1" d="M473.198 207.418c-.98.298-3.114.312-3.603.929-.313.394-.063.95.285 1.259 1.054.94 2.483 1.383 3.873 1.533.67.072 1.44.143 1.993-.24.363-.254.074-.757-.123-1.065-.567-.883-1.338-1.628-2.025-2.426-.548-.637-1.11-1.377-1.134-2.22-.017-.62.453-1.19 1.074-1.361.734-.203 1.666-.162 2.224.438.401.43.33 1.064.006 1.488-.384.502-.942.855-1.496 1.165a4.531 4.531 0 0 1-.755.326" style="display:inline;fill:none;stroke:#000;stroke-width:1;stroke-miterlimit:2;stroke-dasharray:none"/><path id="path735497" d="M477.915 212.44c-1.272 1.075-2.623 1.772-3.646 1.931" style="fill:#b8b8de;fill-opacity:1;stroke:#000;stroke-width:.900001;stroke-miterlimit:2;stroke-dasharray:none"/><path id="path264384" d="M485.348 215.68c.994.772 2.098 1.375 3.289 1.67.893.223 1.64.279 2.454.096.501-.112.815-.537.772-1.022-.09-1.012-.7-1.914-1.384-2.614a6.509 6.509 0 0 0-.547-.484c-.118-.038-.076-.181.064-.133.245-.049.592-.112.831-.167.747-.17 1.547-.36 2.093-.928.258-.269.39-.785.078-1.142-.478-.546-1.15-.821-1.792-1.003-1.23-.35-2.5-.53-3.745-.424" style="display:inline;fill:none;stroke:#000;stroke-width:1;stroke-dasharray:none"/><path id="path738984" d="M481.446 211.409c1.404.546 1.629.494 4.216 1.64" style="fill:#b8b8de;fill-opacity:1;stroke:#000;stroke-width:.9;stroke-miterlimit:2;stroke-dasharray:none"/><g id="g740174" transform="translate(554.485 26.809)"><rect id="rect740136" width="104.251" height="18.576" x="285.699" y="180.004" rx="0" ry="0" style="fill:#fff5d1;fill-opacity:1;stroke:none;stroke-width:1;stroke-miterlimit:2"/><path id="path740138" d="M301.411 187.768c-.53 1.228-.664 2.534-.957 3.81-.154.732-.28 1.472-.496 2.19-.2-.103-.326-.325-.437-.49-.373-.536-.711-1.094-1.076-1.638-.847-1.289-1.695-2.577-2.542-3.873" style="display:inline;fill:none;stroke:#000;stroke-width:1;stroke-miterlimit:2;stroke-dasharray:none"/><path id="path740140" d="M302.012 190.223c1.14.26 2.39.291 3.505-.105.229-.081.437-.21.656-.316.15-.126.322-.229.45-.377.305-.359.315-.84-.082-1.141-.438-.332-.8-.387-1.255-.407-.258-.011-.52.01-.773.063-1.01.207-2.082.895-2.486 1.87a2.01 2.01 0 0 0-.047 1.453c.434 1.233 1.804 1.806 3.017 1.918.4.037.803.021 1.203-.012 1.013-.083 1.997-.378 2.935-.763.176-.072.342-.164.513-.246" style="display:inline;fill:none;stroke:#000;stroke-width:1;stroke-linecap:square;stroke-linejoin:round;stroke-miterlimit:2;stroke-dasharray:none"/><path id="path740142" d="M313.444 193.047c-.11.077-.222.156-.318.218-.516.3-1.076.503-1.659.535-.52.027-.962-.007-1.457-.23-.655-.294-1.17-.812-1.388-1.488a2.716 2.716 0 0 1-.12-.65 2.943 2.943 0 0 1 .04-.654 2.96 2.96 0 0 1 1.24-1.945c.149-.105.316-.207.482-.284.15-.07.341-.13.504-.163.625-.123 1.07.007 1.445.437" style="display:inline;fill:none;fill-opacity:1;stroke:#000;stroke-width:1;stroke-linecap:butt;stroke-linejoin:miter;stroke-miterlimit:4;stroke-dasharray:none;stroke-opacity:1"/><g id="g740148" style="display:inline;stroke-width:1.64023" transform="matrix(.65584 0 0 .64483 1112.248 2314.783)"><path id="path740144" d="M-1215.066-3288.94a191.975 191.975 0 0 1-.27-7.536c0-3.042 0-6.083.01-9.115" style="fill:none;stroke:#000;stroke-width:1.53772;stroke-dasharray:none"/><path id="path740146" d="M-1210.58-3300.782c-.917.054-.414.018-1.493.099-2.66.233-5.312.627-7.937 1.12" style="fill:none;stroke:#000;stroke-width:1.53772;stroke-dasharray:none"/></g><path id="path740150" d="M320.379 188.717c.724-.136 1.505-.198 2.2.084.78.316 1.235 1.125 1.425 1.909.13.531.041 1.119-.32 1.54-.447.517-1.087.885-1.725 1.1-.966.325-2.02.443-3.039.272-.517-.086-.976-.353-1.357-.71-.427-.4-.68-.984-.612-1.564.11-.932.74-1.774 1.54-2.24.929-.54 1.98-.926 3.063-.982" style="display:inline;fill:none;stroke:#000;stroke-width:.999996;stroke-opacity:1"/><path id="path740152" d="M332.124 188.621c-.224-.221-.55-.307-.846-.393-1.534-.257-2.937.172-4.073 1.236-.188.236-.398.443-.557.693-.593.937-.622 2.03-.326 3.059.051.093.123.336.217.193.087-.143-.202-.736-.239-.829-.065-.179-.122-.357-.18-.529-.42-1.35-.746-2.722-1.107-4.087" style="display:inline;fill:none;stroke:#000;stroke-width:1;stroke-dasharray:none"/><path id="path740154" d="M347.883 194.945c-1.413-.18-2.619-.542-3.647-1.256-.675-.48-1.133-.938-1.496-1.87-.426-1.095-.274-2.275.208-3.35.345-.768.83-1.434 1.32-2.022.871-1.05 1.995-2.055 3.39-2.738" style="display:inline;fill:none;fill-opacity:1;stroke:#000;stroke-width:1;stroke-linecap:butt;stroke-linejoin:miter;stroke-miterlimit:4;stroke-dasharray:none;stroke-opacity:1"/><path id="path740156" d="M372.772 195.82a8.741 8.741 0 0 0 3.025-1.524c.752-.577 1.417-1.65 1.628-2.604.303-1.367.097-3.227-.713-4.75-.81-1.522-2.11-2.585-3.76-3.551" style="display:inline;fill:none;fill-opacity:1;stroke:#000;stroke-width:1;stroke-linecap:butt;stroke-linejoin:miter;stroke-miterlimit:4;stroke-dasharray:none;stroke-opacity:1"/><path id="path740158" d="M390.26 198.552c-.044-3.28-.016-7.766-.176-10.314-.043-.695.03-6.088-.008-6.782-.09-1.636.134-.876-.08-1.542" style="fill:#b8b8de;fill-opacity:1;stroke:#000;stroke-width:.899997;stroke-miterlimit:2;stroke-dasharray:none"/><path id="path740160" d="M285.362 180.095c27.096-.09 54.353.083 81.493.028 7.853-.016 15.663-.07 23.532-.037" style="fill:#b8b8de;fill-opacity:1;stroke:#000;stroke-width:.899999;stroke-miterlimit:2;stroke-dasharray:none"/><path id="path740162" d="M285.49 198.667c1.3.016 6.448.051 7.75.048 27.463-.056 48.508-.17 75.97-.225 6.266-.013 13.819.068 21.39.005" style="fill:#b8b8de;fill-opacity:1;stroke:#000;stroke-width:.9;stroke-miterlimit:2;stroke-dasharray:none"/><path id="path740164" d="M285.752 199.11c.008-.46.021-.919.025-1.378.037-4.282.097-8.565.098-12.848 0-.986-.057-1.973-.093-2.959-.025-.691-.068-1.382-.091-2.073" style="fill:#b8b8de;fill-opacity:1;stroke:#000;stroke-width:.9;stroke-miterlimit:2;stroke-dasharray:none"/><path id="path740166" d="M350.4 189.642c-.813.624-2.806 1.386-3.048 2.136-.154.479.276.91.71 1.079 1.316.509 2.81.423 4.164.075.652-.168 1.4-.372 1.782-.926.251-.364-.196-.734-.49-.952-.84-.628-1.824-1.055-2.747-1.561-.737-.404-1.523-.9-1.84-1.68-.235-.575.005-1.273.526-1.652.616-.448 1.503-.736 2.236-.371.527.263.683.88.528 1.392-.183.605-.582 1.13-.992 1.616-.176.208-.38.395-.592.57" style="display:inline;fill:none;stroke:#000;stroke-width:1;stroke-miterlimit:2;stroke-dasharray:none"/><path id="path740168" d="M356.58 192.689c-.813 1.453-1.833 2.58-2.735 3.088" style="fill:#b8b8de;fill-opacity:1;stroke:#000;stroke-width:.900001;stroke-miterlimit:2;stroke-dasharray:none"/><path id="path740170" d="M364.678 193.111c1.201.374 2.447.55 3.666.41.914-.106 1.634-.316 2.331-.773.43-.282.575-.79.364-1.228-.439-.917-1.327-1.547-2.213-1.962a6.511 6.511 0 0 0-.682-.26c-.125.005-.136-.144.012-.148.212-.131.515-.313.72-.447.64-.422 1.322-.882 1.633-1.605.147-.342.09-.872-.327-1.096-.64-.344-1.366-.365-2.03-.31-1.276.105-2.527.381-3.656.918" style="display:inline;fill:none;stroke:#000;stroke-width:1;stroke-dasharray:none"/><path id="path740172" d="M359.525 190.483c1.505.018 1.698-.11 4.523.055" style="fill:#b8b8de;fill-opacity:1;stroke:#000;stroke-width:.9;stroke-miterlimit:2;stroke-dasharray:none"/></g><path id="path753869" d="M353.414 335.98s-4.31 4.476-7.051 4.276c-2.593-.189-5.131-2.524-6.01-4.97-.97-2.695 2.276-5.65 1.618-8.438-.525-2.22-3.723-3.194-4.162-5.433-.422-2.155 1.734-6.357 1.734-6.357" style="fill:none;fill-opacity:1;stroke:#000;stroke-width:.9;stroke-miterlimit:2;stroke-dasharray:none"/><ellipse id="path753872" cx="353.241" cy="335.864" rx=".867" ry="1.04" style="fill:#000;fill-opacity:1;stroke:#000;stroke-width:.9;stroke-miterlimit:2;stroke-dasharray:none"/><ellipse id="ellipse753874" cx="339.601" cy="314.827" rx=".867" ry="1.04" style="fill:#000;fill-opacity:1;stroke:#000;stroke-width:.9;stroke-miterlimit:2;stroke-dasharray:none"/></g></svg>