<svg xmlns="http://www.w3.org/2000/svg" xmlns:xlink="http://www.w3.org/1999/xlink" width="1100" height="385"><defs><symbol id="g" overflow="visible" style="overflow:visible"><path d="M1.531-3.297c.578 0 .813.031 1.047.11.625.234 1.016.796 1.016 1.484 0 .828-.578 1.484-1.313 1.484-.265 0-.469-.078-.828-.312-.312-.172-.469-.25-.64-.25-.235 0-.391.14-.391.36 0 .343.437.562 1.14.562.766 0 1.547-.266 2.016-.672.469-.406.735-.985.735-1.656 0-.5-.172-.97-.454-1.282-.203-.219-.39-.344-.828-.531.688-.469.938-.828.938-1.375 0-.813-.64-1.36-1.563-1.36-.5 0-.937.173-1.297.485-.296.266-.437.531-.656 1.125l.14.047c.407-.734.86-1.063 1.485-1.063.656 0 1.11.438 1.11 1.063a1.4 1.4 0 0 1-.407.969c-.297.296-.578.453-1.25.687zm0 0" style="stroke:none"/></symbol><symbol id="h" overflow="visible" style="overflow:visible"><path d="M6.563-2.297c.171 0 .359 0 .359-.203 0-.188-.188-.188-.36-.188h-5.39c-.172 0-.344 0-.344.188 0 .203.172.203.344.203zm0 0" style="stroke:none"/></symbol><symbol id="e" overflow="visible" style="overflow:visible"><path d="M1.531-3.297c.578 0 .813.031 1.047.11.625.234 1.016.796 1.016 1.484 0 .828-.578 1.484-1.313 1.484-.265 0-.469-.078-.828-.312-.312-.172-.469-.25-.64-.25-.235 0-.391.14-.391.36 0 .343.437.562 1.14.562.766 0 1.547-.266 2.016-.672.469-.406.735-.985.735-1.656 0-.5-.172-.97-.454-1.282-.203-.219-.39-.344-.828-.531.688-.469.938-.828.938-1.375 0-.813-.64-1.36-1.563-1.36-.5 0-.937.173-1.297.485-.296.266-.437.531-.656 1.125l.14.047c.407-.734.86-1.063 1.485-1.063.656 0 1.11.438 1.11 1.063a1.4 1.4 0 0 1-.407.969c-.297.296-.578.453-1.25.687zm0 0" style="stroke:none"/></symbol><symbol id="d" overflow="visible" style="overflow:visible"><path d="M6.563-2.297c.171 0 .359 0 .359-.203 0-.188-.188-.188-.36-.188h-5.39c-.172 0-.344 0-.344.188 0 .203.172.203.344.203zm0 0" style="stroke:none"/></symbol><symbol id="n" overflow="visible" style="overflow:visible"><path d="M1.531-3.297c.578 0 .813.031 1.047.11.625.234 1.016.796 1.016 1.484 0 .828-.578 1.484-1.313 1.484-.265 0-.469-.078-.828-.312-.312-.172-.469-.25-.64-.25-.235 0-.391.14-.391.36 0 .343.437.562 1.14.562.766 0 1.547-.266 2.016-.672.469-.406.735-.985.735-1.656 0-.5-.172-.97-.454-1.282-.203-.219-.39-.344-.828-.531.688-.469.938-.828.938-1.375 0-.813-.64-1.36-1.563-1.36-.5 0-.937.173-1.297.485-.296.266-.437.531-.656 1.125l.14.047c.407-.734.86-1.063 1.485-1.063.656 0 1.11.438 1.11 1.063a1.4 1.4 0 0 1-.407.969c-.297.296-.578.453-1.25.687zm0 0" style="stroke:none"/></symbol><symbol id="o" overflow="visible" style="overflow:visible"><path d="M.156-3.984c.125-.032.188-.047.297-.047.578 0 .719.25 1.188 1.968.156.641.406 1.813.406 1.985 0 .156-.063.312-.219.5-.297.406-.5.672-.61.781C1 1.422.892 1.5.75 1.5c-.047 0-.125-.031-.234-.11-.141-.109-.25-.171-.36-.171a.387.387 0 0 0-.39.39c0 .25.218.438.5.438.64 0 1.953-1.485 3.03-3.469.673-1.219.954-1.937.954-2.422a.554.554 0 0 0-.547-.547c-.234 0-.39.141-.39.36 0 .156.078.265.28.39.188.11.25.204.25.344 0 .39-.359 1.172-1.218 2.578l-.188-1.156c-.156-.875-.718-2.516-.859-2.516h-.125l-.984.172a1.759 1.759 0 0 1-.313.063zm0 0" style="stroke:none"/></symbol><symbol id="q" overflow="visible" style="overflow:visible"><path d="M.344-3.953h.906L.375.234C.156 1.313-.172 1.86-.594 1.86c-.125 0-.203-.078-.203-.171 0-.016.016-.047.047-.11a.264.264 0 0 0 .047-.156c0-.203-.188-.375-.39-.375-.22 0-.376.172-.376.406 0 .344.36.61.797.61.875 0 1.578-.985 1.985-2.813l.718-3.203h1.094l.063-.313H2.109c.282-1.562.657-2.28 1.204-2.28.14 0 .218.062.218.124 0 .031 0 .047-.031.11a.344.344 0 0 0-.063.203c0 .234.157.39.376.39.218 0 .421-.172.421-.39 0-.375-.375-.657-.859-.657-.5 0-.875.22-1.234.688-.313.39-.5.86-.813 1.812H.422zm0 0" style="stroke:none"/></symbol><symbol id="t" overflow="visible" style="overflow:visible"><path d="M4-1.11c-.078.094-.125.157-.219.266-.219.313-.344.406-.453.406-.14 0-.234-.124-.312-.406-.016-.078-.032-.14-.032-.172-.25-1.015-.359-1.468-.359-1.609.438-.781.797-1.219.969-1.219.062 0 .14.031.25.078.11.079.187.094.265.094.204 0 .344-.14.344-.36 0-.202-.172-.359-.406-.359-.438 0-.813.36-1.5 1.422l-.11-.547c-.14-.687-.25-.875-.53-.875-.22 0-.548.079-1.157.282l-.11.046.032.141c.39-.078.469-.11.562-.11.25 0 .313.095.454.688l.28 1.235-.812 1.156C.953-.641.75-.47.641-.47a.554.554 0 0 1-.25-.094.755.755 0 0 0-.329-.093c-.187 0-.328.14-.328.344 0 .265.204.421.5.421.297 0 .422-.093.922-.703.266-.312.485-.578.89-1.156L2.36-.562c.125.515.25.671.579.671.374 0 .624-.234 1.203-1.14zm0 0" style="stroke:none"/></symbol><symbol id="p" overflow="visible" style="overflow:visible"><path d="M6.844-3.266c.156 0 .343 0 .343-.187 0-.203-.187-.203-.328-.203H.891c-.141 0-.329 0-.329.203 0 .187.188.187.329.187zm.015 1.938c.141 0 .329 0 .329-.203 0-.188-.188-.188-.344-.188H.89c-.141 0-.329 0-.329.188 0 .203.188.203.329.203zm0 0" style="stroke:none"/></symbol><symbol id="s" overflow="visible" style="overflow:visible"><path d="M3.297 2.39c0-.03 0-.046-.172-.218C1.891.922 1.562-.968 1.562-2.5c0-1.734.375-3.469 1.61-4.703.125-.125.125-.14.125-.172 0-.078-.031-.11-.094-.11-.11 0-1 .688-1.594 1.954C1.11-4.438.984-3.328.984-2.5c0 .781.11 1.984.657 3.125C2.25 1.844 3.094 2.5 3.203 2.5c.063 0 .094-.031.094-.11zm0 0" style="stroke:none"/></symbol><symbol id="u" overflow="visible" style="overflow:visible"><path d="M2.875-2.5c0-.766-.11-1.969-.656-3.11C1.625-6.827.766-7.483.672-7.483a.107.107 0 0 0-.11.109c0 .031 0 .047.188.234.984.985 1.547 2.563 1.547 4.641 0 1.719-.36 3.469-1.594 4.719-.14.125-.14.14-.14.172 0 .062.046.109.109.109.094 0 1-.688 1.578-1.953.516-1.094.625-2.203.625-3.047Zm0 0" style="stroke:none"/></symbol><symbol id="r" overflow="visible" style="overflow:visible"><path d="M1.86-3.5c.046-.094.077-.156.077-.234 0-.22-.203-.391-.421-.391-.204 0-.344.14-.391.328L.25-.562c0 .015-.031.093-.031.093 0 .078.187.14.25.14.047 0 .047-.03.094-.124zm0 0" style="stroke:none"/></symbol><clipPath id="i"><path d="M226.254 254.46h158.742V391H226.254Zm0 0"/></clipPath><clipPath id="f"><path d="M226.254 356H282v1h-55.746zm0 0"/></clipPath><clipPath id="j"><path d="M284 310h100.996v2H284Zm0 0"/></clipPath><clipPath id="a"><path d="M226.254 254.46H228V279h-1.746zm0 0"/></clipPath><clipPath id="b"><path d="M383 388h1.996v25.203H383Zm0 0"/></clipPath><clipPath id="c"><path d="M383 254.46h1.996V279H383Zm0 0"/></clipPath><clipPath id="k"><path d="M226.254 254.46H228V279h-1.746zm0 0"/></clipPath><clipPath id="l"><path d="M383 388h1.996v25.203H383Zm0 0"/></clipPath><clipPath id="m"><path d="M383 254.46h1.996V279H383Zm0 0"/></clipPath></defs><g style="display:inline"><g clip-path="url(#a)" style="clip-rule:nonzero" transform="translate(-580.546 598.537)"><path d="M-88.897 68.034c0 1-.813 1.813-1.813 1.813a1.811 1.811 0 0 1-1.812-1.813 1.812 1.812 0 1 1 3.625 0zm0 0" style="fill:none;stroke:red;stroke-width:.79701;stroke-linecap:butt;stroke-linejoin:miter;stroke-miterlimit:10;stroke-opacity:1" transform="matrix(1 0 0 -1 305.624 333.831)"/></g><g clip-path="url(#b)" style="clip-rule:nonzero" transform="translate(-580.546 598.537)"><path d="M92.524-68.032a1.814 1.814 0 1 1-3.627-.003 1.814 1.814 0 0 1 3.627.003zm0 0" style="fill:none;stroke:red;stroke-width:.79701;stroke-linecap:butt;stroke-linejoin:miter;stroke-miterlimit:10;stroke-opacity:1" transform="matrix(1 0 0 -1 305.624 333.831)"/></g><g clip-path="url(#c)" style="clip-rule:nonzero" transform="translate(-580.546 598.537)"><path d="M92.524 68.034a1.814 1.814 0 1 1-3.627-.002 1.814 1.814 0 0 1 3.627.002zm0 0" style="fill:none;stroke:red;stroke-width:.79701;stroke-linecap:butt;stroke-linejoin:miter;stroke-miterlimit:10;stroke-opacity:1" transform="matrix(1 0 0 -1 305.624 333.831)"/></g><g clip-path="url(#a)" style="clip-rule:nonzero" transform="translate(-369.35 598.537)"><path d="M-88.897 68.034c0 1-.813 1.813-1.813 1.813a1.811 1.811 0 0 1-1.812-1.813 1.812 1.812 0 1 1 3.625 0zm0 0" style="fill:none;stroke:red;stroke-width:.79701;stroke-linecap:butt;stroke-linejoin:miter;stroke-miterlimit:10;stroke-opacity:1" transform="matrix(1 0 0 -1 305.624 333.831)"/></g><g clip-path="url(#b)" style="clip-rule:nonzero" transform="translate(-369.35 598.537)"><path d="M92.524-68.032a1.814 1.814 0 1 1-3.627-.003 1.814 1.814 0 0 1 3.627.003zm0 0" style="fill:none;stroke:red;stroke-width:.79701;stroke-linecap:butt;stroke-linejoin:miter;stroke-miterlimit:10;stroke-opacity:1" transform="matrix(1 0 0 -1 305.624 333.831)"/></g><g clip-path="url(#c)" style="clip-rule:nonzero" transform="translate(-369.35 598.537)"><path d="M92.524 68.034a1.814 1.814 0 1 1-3.627-.002 1.814 1.814 0 0 1 3.627.002zm0 0" style="fill:none;stroke:red;stroke-width:.79701;stroke-linecap:butt;stroke-linejoin:miter;stroke-miterlimit:10;stroke-opacity:1" transform="matrix(1 0 0 -1 305.624 333.831)"/></g><path d="m930.484 1509.883 6.345-265.462 225.064 5.38-6.346 265.462zm0 0" style="fill:#fff;fill-opacity:1;fill-rule:nonzero;stroke:#fff;stroke-width:.15273;stroke-linecap:butt;stroke-linejoin:miter;stroke-miterlimit:10;stroke-opacity:1" transform="translate(-388.307 -1150.244)"/><path d="m943.266 1458.22 4.829-201.982 201.981 4.828-4.828 201.982zm0 0" style="fill:#fafafa;fill-opacity:1;fill-rule:nonzero;stroke:#fafafa;stroke-width:.15273;stroke-linecap:butt;stroke-linejoin:miter;stroke-miterlimit:10;stroke-opacity:1" transform="translate(-388.307 -1150.244)"/><path d="M942.24 1381.062c4.489-.279 8.99-.329 13.487-.365 4.89.04 9.78-.053 14.666.147 4.262.315 8.532.383 12.803.44 3.929.05 7.857-.056 11.785-.092 2.35-.036 4.702-.053 7.053-.057 2.535.036 5.07.065 7.605 0 .262-.013.526.013.787-.023.063-.013-.224.013-.186-.043.065-.085 1.337-.317 1.588-.385l-2.003.75 6.823 11.327-2.115.818c-1.623.252-3.235.726-4.894.59-2.537-.068-5.074-.038-7.611 0-2.339 0-4.677-.029-7.015-.054-3.964-.017-7.927-.07-11.89-.028-4.44.013-8.877-.165-13.305-.49-4.668-.236-9.347-.071-14.02-.124-3.98.013-7.99-.024-11.938.563l-1.62-12.968z" style="display:inline;opacity:1;fill:#0ff;fill-opacity:.376471;stroke:none;stroke-width:.509101;stroke-linecap:square;stroke-linejoin:miter;stroke-miterlimit:10;stroke-dasharray:none;stroke-opacity:1" transform="translate(-388.307 -1150.244)"/><path d="M1019.525 1323.985c7.958.108 15.92-.113 23.878-.151 9.244-.281 18.49-.377 27.738-.427 10.35-.02 20.686.602 31.032.759 7.898.116 15.793.225 23.689.465 6.074.071 12.138.479 18.212.562 1.163-.013 2.33.013 3.49-.096.422-.039.425-.024.233-.075l.876 13.172c-1.662-.013-3.323-.153-4.986-.178-6.056-.286-12.085-.988-18.152-1.064-2.634-.064-5.959-.16-8.606-.17-5.08-.021-10.165.099-15.24-.229-10.129-.667-20.28-.902-30.428-1.036-5.548.084-5.199.059-10.645.223-4.356.134-8.715.393-13.074.414-1.352.013-2.703-.037-4.054-.055-7.991.075-16.007.09-23.962.957v-13.07z" style="display:inline;opacity:1;fill:#0f0;fill-opacity:.376471;stroke:none;stroke-width:.509101;stroke-linecap:square;stroke-linejoin:miter;stroke-miterlimit:10;stroke-dasharray:none;stroke-opacity:1" transform="translate(-388.307 -1150.244)"/><path d="m943.611 1443.791 201.982 4.829M944.3 1414.939l201.981 4.828m-201.291-33.686 201.981 4.829m-201.292-33.681 201.982 4.828m-201.292-33.686 201.982 4.829m-201.292-33.68 201.981 4.828m-201.291-33.686 201.981 4.828M957.69 1458.565l4.828-201.982m24.03 202.671 4.828-201.981m24.024 202.671 4.828-201.982m24.029 202.672 4.828-201.982m24.024 202.672 4.829-201.982m24.029 202.671 4.828-201.981m24.024 202.671 4.828-201.982" style="fill:none;stroke:#9e9ed1;stroke-width:.253597;stroke-linecap:butt;stroke-linejoin:miter;stroke-miterlimit:10;stroke-opacity:1" transform="translate(-388.307 -1150.244)"/><path d="m945.68 1357.229 201.982 4.828M1044.257 1460.634l4.828-201.982" style="fill:none;stroke:#000;stroke-width:.507191;stroke-linecap:butt;stroke-linejoin:miter;stroke-miterlimit:10;stroke-opacity:1" transform="translate(-388.307 -1150.244)"/><path d="m1021.652 1452.007.275-11.54 20.2.482-.276 11.541zm0 0" style="fill:#fafafa;fill-opacity:1;fill-rule:nonzero;stroke:#fafafa;stroke-width:.507191;stroke-linecap:butt;stroke-linejoin:miter;stroke-miterlimit:10;stroke-opacity:1" transform="translate(-388.307 -1150.244)"/><use xlink:href="#d" width="100%" height="100%" x="289.285" y="405.236" style="fill:#b0b0d9;fill-opacity:1" transform="rotate(1.365 9538.218 11588.04) scale(1.27275)"/><use xlink:href="#e" width="100%" height="100%" x="297.026" y="405.236" style="fill:#b0b0d9;fill-opacity:1" transform="rotate(1.365 9538.218 11588.04) scale(1.27275)"/><path d="m951.003 1376.12.33-13.847 17.312.413-.331 13.848zm0 0" style="fill:#fafafa;fill-opacity:1;fill-rule:nonzero;stroke:#fafafa;stroke-width:.507191;stroke-linecap:butt;stroke-linejoin:miter;stroke-miterlimit:10;stroke-opacity:1" transform="translate(-388.307 -1150.244)"/><use xlink:href="#d" width="100%" height="100%" x="231.231" y="345.821" style="fill:#b0b0d9;fill-opacity:1" transform="rotate(1.365 9538.218 11588.04) scale(1.27275)"/><use xlink:href="#e" width="100%" height="100%" x="238.972" y="345.821" style="fill:#b0b0d9;fill-opacity:1" transform="rotate(1.365 9538.218 11588.04) scale(1.27275)"/><path d="m1124.127 1380.258.33-13.847 17.317.414-.33 13.847zm0 0" style="fill:#fafafa;fill-opacity:1;fill-rule:nonzero;stroke:#fafafa;stroke-width:.507191;stroke-linecap:butt;stroke-linejoin:miter;stroke-miterlimit:10;stroke-opacity:1" transform="translate(-388.307 -1150.244)"/><use xlink:href="#e" width="100%" height="100%" x="371.165" y="346.157" style="fill:#b0b0d9;fill-opacity:1" transform="rotate(1.365 9538.218 11588.04) scale(1.27275)"/><g clip-path="url(#f)" style="clip-rule:nonzero" transform="rotate(1.365 9538.218 11588.04) scale(1.27275)"><path d="M-136.065-22.677h111.574" style="fill:none;stroke:red;stroke-width:.79701;stroke-linecap:butt;stroke-linejoin:miter;stroke-miterlimit:10;stroke-opacity:1" transform="matrix(1 0 0 -1 305.624 333.831)"/></g><path d="M1019.435 1387.86a2.31 2.31 0 1 0-4.618-.104 2.31 2.31 0 0 0 4.618.105zM1020.815 1330.15a2.31 2.31 0 1 0-4.619-.103 2.31 2.31 0 0 0 4.619.104zm0 0" style="fill:none;stroke:red;stroke-width:1.0144;stroke-linecap:butt;stroke-linejoin:miter;stroke-miterlimit:10;stroke-opacity:1" transform="translate(-388.307 -1150.244)"/><path d="m943.266 1458.22 4.829-201.982 201.981 4.828-4.828 201.982zm0 0" style="fill:none;stroke:#000;stroke-width:.063383;stroke-linecap:butt;stroke-linejoin:miter;stroke-miterlimit:10;stroke-opacity:1" transform="translate(-388.307 -1150.244)"/><path d="m930.484 1509.883 6.345-265.462 225.064 5.38-6.346 265.462zm0 0" style="fill:none;stroke:#000;stroke-width:.507191;stroke-linecap:butt;stroke-linejoin:miter;stroke-miterlimit:10;stroke-opacity:1" transform="translate(-388.307 -1150.244)"/><path d="m710.222 1518.402 4.763-265.495 225.092 4.038-4.763 265.495zm0 0" style="fill:#fff;fill-opacity:1;fill-rule:nonzero;stroke:#fff;stroke-width:.15273;stroke-linecap:butt;stroke-linejoin:miter;stroke-miterlimit:10;stroke-opacity:1" transform="translate(-388.307 -1150.244)"/><path d="m722.696 1466.663 3.624-202.007 202.007 3.624-3.624 202.007zm0 0" style="fill:#fafafa;fill-opacity:1;fill-rule:nonzero;stroke:#fafafa;stroke-width:.15273;stroke-linecap:butt;stroke-linejoin:miter;stroke-miterlimit:10;stroke-opacity:1" transform="translate(-388.307 -1150.244)"/><path d="m722.955 1452.233 202.007 3.623m-201.489-32.48L925.48 1427m-201.49-32.484 202.008 3.623m-201.49-32.48 202.007 3.624M725.026 1336.8l202.007 3.623m-201.49-32.48 202.008 3.624m-201.49-32.484 202.007 3.623m-190.946 184.217 3.624-202.007m25.237 202.524 3.624-202.006m25.232 202.524 3.624-202.007m25.237 202.525 3.624-202.007m25.232 202.525 3.624-202.007m25.237 202.524 3.624-202.007m25.232 202.525 3.624-202.007" style="fill:none;stroke:#9e9ed1;stroke-width:.253597;stroke-linecap:butt;stroke-linejoin:miter;stroke-miterlimit:10;stroke-opacity:1" transform="translate(-388.307 -1150.244)"/><path d="m724.508 1365.66 202.007 3.623M823.7 1468.475l3.624-202.007" style="fill:none;stroke:#000;stroke-width:.507191;stroke-linecap:butt;stroke-linejoin:miter;stroke-miterlimit:10;stroke-opacity:1" transform="translate(-388.307 -1150.244)"/><path d="m813.972 1286.432.207-11.543 9.525.171-.207 11.543zm0 0" style="fill:#fafafa;fill-opacity:1;fill-rule:nonzero;stroke:#fafafa;stroke-width:.507191;stroke-linecap:butt;stroke-linejoin:miter;stroke-miterlimit:10;stroke-opacity:1" transform="translate(-388.307 -1150.244)"/><use xlink:href="#g" width="100%" height="100%" x="297.01" y="269.055" style="fill:#b0b0d9;fill-opacity:1" transform="rotate(1.022 11990.131 3010.629) scale(1.27275)"/><path d="m801.043 1459.983.208-11.542 20.201.363-.207 11.542zm0 0" style="fill:#fafafa;fill-opacity:1;fill-rule:nonzero;stroke:#fafafa;stroke-width:.507191;stroke-linecap:butt;stroke-linejoin:miter;stroke-miterlimit:10;stroke-opacity:1" transform="translate(-388.307 -1150.244)"/><use xlink:href="#h" width="100%" height="100%" x="289.285" y="405.236" style="fill:#b0b0d9;fill-opacity:1" transform="rotate(1.022 11990.131 3010.629) scale(1.27275)"/><use xlink:href="#g" width="100%" height="100%" x="297.026" y="405.236" style="fill:#b0b0d9;fill-opacity:1" transform="rotate(1.022 11990.131 3010.629) scale(1.27275)"/><path d="m729.943 1384.518.248-13.849 17.314.311-.248 13.849zm0 0" style="fill:#fafafa;fill-opacity:1;fill-rule:nonzero;stroke:#fafafa;stroke-width:.507191;stroke-linecap:butt;stroke-linejoin:miter;stroke-miterlimit:10;stroke-opacity:1" transform="translate(-388.307 -1150.244)"/><use xlink:href="#h" width="100%" height="100%" x="231.231" y="345.821" style="fill:#b0b0d9;fill-opacity:1" transform="rotate(1.022 11990.131 3010.629) scale(1.27275)"/><use xlink:href="#g" width="100%" height="100%" x="238.972" y="345.821" style="fill:#b0b0d9;fill-opacity:1" transform="rotate(1.022 11990.131 3010.629) scale(1.27275)"/><path d="m903.09 1387.624.247-13.849 17.32.311-.25 13.849zm0 0" style="fill:#fafafa;fill-opacity:1;fill-rule:nonzero;stroke:#fafafa;stroke-width:.507191;stroke-linecap:butt;stroke-linejoin:miter;stroke-miterlimit:10;stroke-opacity:1" transform="translate(-388.307 -1150.244)"/><use xlink:href="#g" width="100%" height="100%" x="371.165" y="346.157" style="fill:#b0b0d9;fill-opacity:1" transform="rotate(1.022 11990.131 3010.629) scale(1.27275)"/><path d="m722.696 1466.663 3.624-202.007 202.007 3.624-3.624 202.007zm0 0" style="fill:none;stroke:#000;stroke-width:.063383;stroke-linecap:butt;stroke-linejoin:miter;stroke-miterlimit:10;stroke-opacity:1" transform="translate(-388.307 -1150.244)"/><path d="m710.222 1518.402 4.763-265.495 225.092 4.038-4.763 265.495zm0 0" style="fill:none;stroke:#000;stroke-width:.507191;stroke-linecap:butt;stroke-linejoin:miter;stroke-miterlimit:10;stroke-opacity:1" transform="translate(-388.307 -1150.244)"/><path d="M849.602 1253.815h4.847v3.804h-4.847z" style="opacity:1;fill:#fff;fill-opacity:1;stroke:none;stroke-width:.127275;stroke-linecap:square;stroke-linejoin:miter;stroke-miterlimit:4;stroke-dasharray:none;stroke-opacity:1" transform="translate(-388.307 -1150.244)"/><path d="M849.602 1253.815h4.847v3.804h-4.847zM759.244 1252.513h5.429v4.261h-5.429z" style="opacity:1;fill:#fff;fill-opacity:1;stroke:none;stroke-width:.127275;stroke-linecap:square;stroke-linejoin:miter;stroke-miterlimit:4;stroke-dasharray:none;stroke-opacity:1" transform="translate(-388.307 -1150.244)"/><path d="M798.187 1414.622c7.18-6.566 14.07-13.448 20.955-20.323 6.916-6.526 13.39-13.493 19.969-20.353 5.812-6.26 11.53-12.6 17.518-18.695 1.161-1.146 2.32-2.295 3.483-3.44 2.608-2.567 3.996-3.95 6.671-6.43 3.072-2.847 6.212-5.601 9.227-8.51 5.39-5.18 10.464-10.656 15.446-16.224 3.234-3.66 6.736-7.076 9.877-10.818 1.083-1.289 2.102-2.63 3.164-3.935a191.353 191.353 0 0 1 9.78-10.664c2.847-2.952 6.034-5.527 9.202-8.115l.724-.558 7.173 11.01c-.026-.014-.052-.025-.078-.037-2.866 1.94-5.511 4.195-7.966 6.631-3.183 3.226-6.153 6.656-9.141 10.062-3.529 3.87.973-1.096-3.49 3.945-3.247 3.669-6.677 7.168-9.96 10.805-5.22 5.808-10.5 11.564-16.18 16.932-6.397 5.952-13.062 11.621-19.129 17.923-5.902 6.112-11.408 12.598-17.473 18.557-6.63 6.99-13.183 14.061-20.182 20.69-6.824 6.619-13.838 13.08-20.082 20.263l-9.508-8.716z" style="display:inline;opacity:1;fill:#0f0;fill-opacity:.376471;stroke:none;stroke-width:.509101;stroke-linecap:square;stroke-linejoin:miter;stroke-miterlimit:10;stroke-dasharray:none;stroke-opacity:1" transform="translate(-388.307 -1150.244)"/><path d="M729.627 1346.81c1.741 1.92 3.783 3.533 5.796 5.153 2.22 1.802 4.236 3.83 6.26 5.842 1.943 2.065 3.937 4.069 6.073 5.934 1.982 1.574 3.907 3.24 5.708 5.02 1.664 1.781 3.219 3.657 4.81 5.504 1.424 1.293 2.601 2.835 4.037 4.116a92.156 92.156 0 0 1 6.07 6.436c1.333 1.552 2.756 3.012 4.052 4.596 1.316 1.79 2.626 3.569 3.74 5.491.797 1.467 1.897 2.781 3.085 3.946.276.303.541.615.828.907.215.22.49.377.712.59.933.897 1.71 1.833 2.493 2.86.94 1.35 2.032 2.578 3.046 3.872 1.066 1.177 2.202 2.317 3.314 3.467.182.185.352.383.544.556.014.013.025-.02.037-.033.285.265.575.525.854.796.503.488.95 1.067 1.503 1.5.999.723 1.93 1.534 2.84 2.362-.404-.334.945.888.693.684-.8-.646-.708-.738-1.508-1.13-.215-.106-.884-.37-.668-.267.516.244 1.044.46 1.566.691 1.546.825 1.688 1.707 3.106 3.221.288.308-1.008-.817-.671-1.072.335-.253.546.656.709 1.044.142.34-.433-.6-.649-.9-.772-.717.098.02.28.15 1.108.79-1.53-2.113 2.157 2.815.586 2.1.435 1.118.562 2.929l-13.212-.105c.131 1.462-.007.663.515 2.377 3.42 4.335 1.688 2.072.177.935-.367-.458-.724-.923-1.101-1.373-.145-.173.526.733.405.542-.31-.488-1.421-1.8-.973-1.436 1.333 1.085 1.16 1.84 2.27 2.392.384.153.804.235 1.15.46.3.194-.679-.22-1.004-.366a8.785 8.785 0 0 1-2.875-2.061c-.743-.778-1.62-1.405-2.43-2.108-1.277-1.158-2.469-2.405-3.725-3.583-1.386-1.469-2.828-2.892-4.142-4.422-1.085-1.381-2.256-2.693-3.252-4.143-.815-1.229-2.127-2.018-2.998-3.207-1.899-2.08-3.809-4.188-5.132-6.696.102-.396.034-.05-.552-.878-.611-.864-1.246-1.711-1.837-2.589-1.226-1.53-2.622-2.909-3.836-4.45-1.514-1.846-3.186-3.543-4.897-5.207-1.821-1.68-3.488-3.503-5.208-5.285a184.354 184.354 0 0 0-4.119-4.77c-1.527-1.622-3.346-2.992-5.018-4.457-2.347-2.073-4.546-4.292-6.754-6.51-1.661-1.703-3.347-3.39-5.188-4.9a128.168 128.168 0 0 1-6.879-6.005l9.236-9.235z" style="display:inline;opacity:1;fill:#0ff;fill-opacity:.376471;stroke:none;stroke-width:.509101;stroke-linecap:square;stroke-linejoin:miter;stroke-miterlimit:10;stroke-dasharray:none;stroke-opacity:1" transform="translate(-388.307 -1150.244)"/><g clip-path="url(#i)" style="clip-rule:nonzero" transform="rotate(1.022 11990.131 3010.629) scale(1.27275)"><path d="m-113.386 45.354 90.707-90.71 113.39 113.39" style="fill:none;stroke:red;stroke-width:.79701;stroke-linecap:butt;stroke-linejoin:miter;stroke-miterlimit:10;stroke-opacity:1" transform="matrix(1 0 0 -1 305.624 333.831)"/></g><g clip-path="url(#j)" style="clip-rule:nonzero" transform="rotate(1.365 9538.218 11588.04) scale(1.27275)"><path d="M90.712 22.679H-20.862" style="fill:none;stroke:red;stroke-width:.79701;stroke-linecap:butt;stroke-linejoin:miter;stroke-miterlimit:10;stroke-opacity:1" transform="matrix(1 0 0 -1 305.624 333.831)"/></g><g clip-path="url(#k)" style="clip-rule:nonzero" transform="translate(-2968.34 -56.083)"><path d="M-88.897 68.034c0 1-.813 1.813-1.813 1.813a1.811 1.811 0 0 1-1.812-1.813 1.812 1.812 0 1 1 3.625 0zm0 0" style="fill:none;stroke:red;stroke-width:.79701;stroke-linecap:butt;stroke-linejoin:miter;stroke-miterlimit:10;stroke-opacity:1" transform="matrix(1 0 0 -1 305.624 333.831)"/></g><g clip-path="url(#l)" style="clip-rule:nonzero" transform="translate(-2968.34 -56.083)"><path d="M92.524-68.032a1.814 1.814 0 1 1-3.627-.003 1.814 1.814 0 0 1 3.627.003zm0 0" style="fill:none;stroke:red;stroke-width:.79701;stroke-linecap:butt;stroke-linejoin:miter;stroke-miterlimit:10;stroke-opacity:1" transform="matrix(1 0 0 -1 305.624 333.831)"/></g><g clip-path="url(#m)" style="clip-rule:nonzero" transform="translate(-2968.34 -56.083)"><path d="M92.524 68.034a1.814 1.814 0 1 1-3.627-.002 1.814 1.814 0 0 1 3.627.002zm0 0" style="fill:none;stroke:red;stroke-width:.79701;stroke-linecap:butt;stroke-linejoin:miter;stroke-miterlimit:10;stroke-opacity:1" transform="matrix(1 0 0 -1 305.624 333.831)"/></g><g clip-path="url(#k)" style="clip-rule:nonzero" transform="translate(-2757.143 -56.083)"><path d="M-88.897 68.034c0 1-.813 1.813-1.813 1.813a1.811 1.811 0 0 1-1.812-1.813 1.812 1.812 0 1 1 3.625 0zm0 0" style="fill:none;stroke:red;stroke-width:.79701;stroke-linecap:butt;stroke-linejoin:miter;stroke-miterlimit:10;stroke-opacity:1" transform="matrix(1 0 0 -1 305.624 333.831)"/></g><g clip-path="url(#l)" style="clip-rule:nonzero" transform="translate(-2757.143 -56.083)"><path d="M92.524-68.032a1.814 1.814 0 1 1-3.627-.003 1.814 1.814 0 0 1 3.627.003zm0 0" style="fill:none;stroke:red;stroke-width:.79701;stroke-linecap:butt;stroke-linejoin:miter;stroke-miterlimit:10;stroke-opacity:1" transform="matrix(1 0 0 -1 305.624 333.831)"/></g><g clip-path="url(#m)" style="clip-rule:nonzero" transform="translate(-2757.143 -56.083)"><path d="M92.524 68.034a1.814 1.814 0 1 1-3.627-.002 1.814 1.814 0 0 1 3.627.002zm0 0" style="fill:none;stroke:red;stroke-width:.79701;stroke-linecap:butt;stroke-linejoin:miter;stroke-miterlimit:10;stroke-opacity:1" transform="matrix(1 0 0 -1 305.624 333.831)"/></g><g style="display:inline"><path d="M-525.986 1594.18c.356 2.446.594 4.91.89 7.364.154 1.005.29 2.016.513 3.01.023.101.051.201.082.3.005.016.045.038.028.045-.425.162-.862.29-1.292.436l1.328-.528c-.433.26-.848.555-1.3.779-.037.018-.028-.077-.036-.118-.023-.11-.039-.221-.055-.332-.156-1.022-.292-2.047-.434-3.07-.285-2.43-.526-4.876-1.009-7.276l1.285-.61z" style="fill:#000;fill-opacity:1;stroke:none;stroke-width:.48;stroke-miterlimit:4;stroke-dasharray:none;stroke-opacity:1" transform="rotate(5.238 18355.736 12846.813) scale(1.27275)"/><path d="M-528.35 1594.48c1.184-.403 2.763-.723 4.006-.861.872-.096 1.965-.124 2.848-.014.362.045.71.167 1.065.25.668.277 1.362.61 1.19 1.491-.174.885-1.079 1.521-1.7 2.07-1.078.811-.816.647-2.373 1.572-.15.088-.314.148-.467.23-.069.037-.248.182-.197.123 1.037-1.21.569-1.061 1.513-1.147 1.764.06 3.825.505 5.06 1.882.221.247.355.56.533.839.05.295.172.586.153.884-.047.728-.488 1.289-1.105 1.657-.826.493-1.697.924-2.603 1.248-1.077.385-3.33.61-4.44.753-1.43.046-2.214.154-3.58-.073-.309-.052-.644-.088-.9-.269-.147-.104-.272-.222-.336-.39l1.436-.686c.219.402.488.371.853.505 1.34.241 1.86.024 3.276-.024 1.864-.042 3.128-.284 4.351-.655.188-.04.45-.199.624-.278.51-.233 1.068-.629 1.186-1.227.048-.242-.042-.492-.062-.738-.149-.247-.254-.525-.446-.74-1.181-1.324-3.214-1.666-4.892-1.619-.187.01-.583.206-.56.02.13-1.043.39-.981.892-1.237 1.908-1.041-4.038 2.202.752-.462.576-.473.88-.683 1.373-1.235.143-.16.524-.576.445-.882-.103-.4-.63-.53-.915-.665-.33-.073-.654-.183-.99-.22-2.107-.237-4.447.28-6.396 1.062.161-.607.193-.746.406-1.165zM-515.043 1592.5c.062.268.136.535.186.806.183 1.006.266 1.902.366 2.93.17 1.75.282 3.503.393 5.258.062 1.12.126 2.242.203 3.362l-1.242.543a68.992 68.992 0 0 0-.102-3.397c-.145-2.645-.254-5.489-.816-8.08-.054-.249-.135-.492-.202-.739l1.214-.683z" style="fill:#000;fill-opacity:1;stroke:none;stroke-width:.48;stroke-miterlimit:4;stroke-dasharray:none;stroke-opacity:1" transform="rotate(5.238 18355.736 12846.813) scale(1.27275)"/><path d="M-515.993 1593.106c2.647-.35 5.294-.697 7.942-1.041.95-.125.53-.07 1.257-.164l-.857 1.088c-.692.053-.29.019-1.204.107-2.658.299-5.325.604-7.945 1.147l.807-1.137zM-515.154 1596.864c2.147-.163 4.295-.316 6.44-.493l-.82 1.02c-2.17.129-4.34.296-6.5.555l.88-1.082zM-514.13 1603.72c2.425-.278 4.858-.48 7.291-.686l.797-.068-.846 1.05c-.256.017-.512.025-.768.037-2.445.16-4.896.356-7.308.802l.833-1.135zM-504.63 1593.797c-.187 2.813.135 5.632.427 8.427.119 1.037.233 2.074.358 3.11l-1.232.565c-.073-1.051-.163-2.1-.268-3.149-.28-2.809-.567-5.623-.598-8.448l1.314-.505z" style="fill:#000;fill-opacity:1;stroke:none;stroke-width:.48;stroke-miterlimit:4;stroke-dasharray:none;stroke-opacity:1" transform="rotate(5.238 18355.736 12846.813) scale(1.27275)"/><path d="M-506.01 1594.27c2.853-.395 5.738-.754 8.623-.753l.446.047-.93 1.031a50.17 50.17 0 0 1-.382-.053c-2.875-.077-5.758.289-8.578.818l.82-1.09zM-505.375 1598.377c2.563-.225 5.133-.35 7.7-.528l-.832 1.025c-2.577.103-5.157.25-7.713.601l.845-1.098zM-492.992 1593.799c-.288.198-.467.413-.768.66-.348.45-.788.826-1.124 1.284-.533.727-1.292 2.054-1.503 2.966-.105.455-.05.932-.076 1.398.063.353.182.85.429 1.194.61.854 1.628 1.169 2.617 1.26 1.494.14 2.464-.131 3.82-.768.277-.13.69-.414 1.047-.789.4-.452.583-.708.872-1.279.505-.998.647-2.387.241-3.451-.4-1.049-1.428-1.998-2.306-2.629-.421-.302-.9-.514-1.35-.772-.766-.523-2.268-.411-2.425-.416.373-.348.7-.75 1.118-1.043.807-.035 2.038.517 2.262.635.458.28.947.517 1.376.84.928.7 2.011 1.736 2.446 2.853.437 1.124.323 2.652-.169 3.731-.277.61-.783 1.087-1.174 1.63-.907.796-1.692 1.221-2.62 1.685-1.978.989-5.442 1.2-6.882-.864-.27-.387-.392-.807-.481-1.334.016-.507-.054-1.025.049-1.521.112-.535.31-1.158.58-1.633 1.488-2.618 2.585-3.627 4.733-4.815zM-483.939 1591.796c.236 3.293.534 6.579.908 9.86l-1.124.516c-.272-3.27-.595-6.535-1.002-9.79l1.218-.586z" style="fill:#000;fill-opacity:1;stroke:none;stroke-width:.48;stroke-miterlimit:4;stroke-dasharray:none;stroke-opacity:1" transform="rotate(5.238 18355.736 12846.813) scale(1.27275)"/><path d="M-487.075 1593.406c.53-.313 1.039-.668 1.592-.94.577-.284 1.51-.364 2.099-.395.904-.046 1.82 0 2.713.151.379.066.747.183 1.12.274.253.142.554.22.757.427.161.163.262.4.28.628.08.978-1.099 1.656-1.763 2.074-.688.433-1.396.833-2.093 1.25-.973.5-1.739.962-2.657 1.356.274-.444.592-.86.888-1.29.077-.03.148-.08.23-.088.53-.044 1.128.266 1.566.504.41.224 1.932 1.164 2.227 1.344 1.866 1.264 3.854 2.358 5.644 3.732l.114.11-1.151.83-.061-.08c-1.648-1.498-3.672-2.526-5.51-3.76-.425-.245-.848-.496-1.277-.735-.554-.308-1.344-.838-2.037-.824-.844.453-.047-.563.158-.926.014-.024.05-.024.076-.036.082-.037.165-.072.246-.11a38.98 38.98 0 0 0 2.214-1.137c.607-.341.802-.444 1.079-.606.228-.163 1.283-.863.815-1.351-.174-.181-.385-.27-.657-.37-.304-.125-.707-.196-1.068-.254a10.512 10.512 0 0 0-2.644-.086c-1.077.074 0 0-1.508.136l-1.392.17z" style="fill:#000;fill-opacity:1;stroke:none;stroke-width:.48;stroke-miterlimit:4;stroke-dasharray:none;stroke-opacity:1" transform="rotate(5.238 18355.736 12846.813) scale(1.27275)"/><path d="M-474.32 1591.813c.316 2.865.602 5.733.92 8.598a24.3 24.3 0 0 1 .1 2.273l-1.28.527c.06-.753.065-1.507.01-2.261-.254-2.855-.532-5.714-1-8.542l1.251-.595zM-475.254 1590.761c2.905-.074 5.808-.215 8.708-.4l.83-.06-.85 1.044c-.266.01-.532.018-.798.018-2.926.107-5.85.26-8.77.477l.88-1.082z" style="fill:#000;fill-opacity:1;stroke:none;stroke-width:.48;stroke-miterlimit:4;stroke-dasharray:none;stroke-opacity:1" transform="rotate(5.238 18355.736 12846.813) scale(1.27275)"/><path d="M-473.703 1595.525a140.74 140.74 0 0 1 6.347-.733l-.797 1c-2.136.16-4.266.413-6.37.817zM-474.24 1601.515c3.227-.435 6.47-.798 9.728-.845.015 0 .908 0 1.103.09.068.03.102.106.153.16l-1.173.81c-.474-.035-.584-.047-.92-.061-3.261-.028-6.53.323-9.725.98z" style="fill:#000;fill-opacity:1;stroke:none;stroke-width:.48;stroke-miterlimit:4;stroke-dasharray:none;stroke-opacity:1" transform="rotate(5.238 18355.736 12846.813) scale(1.27275)"/></g><g style="display:inline"><path d="M-773.582 3148.227c.837 1.202 1.351 2.585 1.938 3.915.298.674 1.354 2.992 1.638 3.618.922 2.122 1.931 4.234 2.479 6.492l-1.549.625c-.391-2.263-1.407-4.357-2.311-6.448l-.868-1.874c-.27-.577-.543-1.153-.811-1.73-.59-1.271-1.116-2.606-1.974-3.727l1.458-.87z" style="fill:#000;fill-opacity:1;stroke:none;stroke-width:.5;stroke-miterlimit:4;stroke-dasharray:none;stroke-opacity:1" transform="matrix(1.03579 -.02936 .02936 1.03579 1337.924 -2955.658)"/><path d="M-779.789 3155.54c3.049.437 6.115.779 9.197.778l-1.142 1.148c-3.1-.106-6.176-.477-9.264-.744l1.21-1.182zM-763.989 3149.531c-.398 2.998-.791 6.009-.88 9.035-.02.623 0 1.247 0 1.87.066 1.788.016.977.129 2.435l-1.543.543c-.055-1.496-.031-.667-.06-2.489.041-3.643.37-7.269.744-10.891l1.61-.503z" style="fill:#000;fill-opacity:1;stroke:none;stroke-width:.5;stroke-miterlimit:4;stroke-dasharray:none;stroke-opacity:1" transform="matrix(1.03579 -.02936 .02936 1.03579 1337.924 -2955.658)"/><path d="M-766.647 3149.173c3.837.106 7.673.303 11.51.463l1.058.045-1.276 1.142c-.341-.025-.682-.05-1.022-.073-3.854-.243-7.713-.408-11.574-.415l1.304-1.16zM-764.693 3155.328c2.895.118 5.79.252 8.686.365l-1.232 1.093c-2.908-.158-5.818-.299-8.73-.3zM-755.365 3151.74c4.076.095 8.145.44 12.216.703 2.223.132 1.221.075 3.003.172l-1.028 1.243c-1.721-.177-.75-.083-2.915-.275-4.11-.309-8.223-.583-12.341-.556l1.065-1.287z" style="fill:#000;fill-opacity:1;stroke:none;stroke-width:.5;stroke-miterlimit:4;stroke-dasharray:none;stroke-opacity:1" transform="matrix(1.03579 -.02936 .02936 1.03579 1337.924 -2955.658)"/><path d="M-747.639 3152.082a405.231 405.231 0 0 0-.211 10.07c-.01.846-.005 1.693-.015 2.54l-1.612.435c.063-.851.102-1.704.122-2.557.073-3.342.17-6.687.109-10.03l1.607-.458zM-737.71 3151.595c-.568 3.113-.602 6.28-.542 9.434a31.14 31.14 0 0 1-.065 2.376l-1.612.43c.13-.78.182-1.567.19-2.357-.024-3.165.027-6.334.418-9.478l1.61-.404z" style="fill:#000;fill-opacity:1;stroke:none;stroke-width:.5;stroke-miterlimit:4;stroke-dasharray:none;stroke-opacity:1" transform="matrix(1.03579 -.02936 .02936 1.03579 1337.924 -2955.658)"/><path d="M-738.623 3150.842c3.579-.14 7.161-.091 10.74-.048.406.01.81.012 1.216.018l-1.085 1.14-1.175-.053c-3.598-.101-7.207-.127-10.8.17l1.104-1.227zM-737.936 3156.104c2.489.113 4.979.2 7.469.286l-1.122 1.11c-2.499-.128-5-.241-7.504-.22l1.157-1.177zM-738.661 3162.92c4.168.088 8.325.5 12.477.865l-1.081 1.077c-4.14-.48-8.312-.935-12.485-.747l1.089-1.195zM-722.196 3151.436c.028 4.032-.006 8.065-.026 12.097l-1.49.485c.166-4.015.22-8.038-.018-12.052l1.534-.53z" style="fill:#000;fill-opacity:1;stroke:none;stroke-width:.5;stroke-miterlimit:4;stroke-dasharray:none;stroke-opacity:1" transform="matrix(1.03579 -.02936 .02936 1.03579 1337.924 -2955.658)"/><path d="M-724.508 3151.187c2.065.207 4.197.174 6.204.782.672.203 2.024.712 2.373 1.52.147.337.005.736.008 1.104-.259.382-.458.811-.776 1.145-.682.715-1.854 1.394-2.721 1.83-1.647.827-2.864 1.379-4.563 1.818-.57.106-.98.186-.984-.563 0-.052.032-.11.078-.133.507-.258 1.037-.465 1.556-.697.153.067.515.224.64.293.625.343 1.22.739 1.839 1.092.71.406 3.433 1.904 4.016 2.225 2.568 1.326 5.103 2.717 7.688 4.008l-1.386 1.092 1.247-1.186-1.236 1.108c-.517-.353-1.08-.661-1.622-.967a176.942 176.942 0 0 0-5.884-3.159c-5.756-3.066.93.488-4.104-2.169-.278-.147-1.685-1.008-2.196-1.073-.04-.01-.077.027-.115.04.425-.21.862-.397 1.276-.628.027-.015-.068-.01-.086-.035-.072-.095-.111-.21-.173-.31-.023-.037-.106-.067-.081-.103.032-.046.11-.01.166-.02.142-.023.284-.051.427-.078 2.891-.784-2.134.599 1.835-.589.03-.01.059.047.087.034 1.315-.616 2.593-1.335 3.5-2.5.061-.242.265-.49.182-.726-.254-.722-1.629-1.195-2.132-1.343-2.002-.588-4.132-.577-6.195-.62l1.133-1.191zM-773.318 3147.805c-2.038 3.24-4.117 6.454-6.173 9.683-.905 1.442-1.899 2.852-2.492 4.457l-1.517.326c.648-1.644 1.68-3.09 2.631-4.572 1.544-2.43 3.135-4.83 4.617-7.297.273-.455.523-.923.796-1.378.2-.333.415-.656.622-.984l1.516-.235z" style="fill:#000;fill-opacity:1;stroke:none;stroke-width:.5;stroke-miterlimit:4;stroke-dasharray:none;stroke-opacity:1" transform="matrix(1.03579 -.02936 .02936 1.03579 1337.924 -2955.658)"/></g></g><g style="display:inline"><g style="display:inline;fill:#000;stroke:none;stroke-width:.287674;stroke-miterlimit:4;stroke-dasharray:none;stroke-opacity:1"><path d="M638.206 1219.737c-.203-.128-.39-.286-.61-.386-1.287-.586-2.893-.29-4.111.333-.362.185-.676.452-1.013.678-.527.586-.884.796-1.011 1.6-.032.196.076-.59.267-.533.397.119.543.64.885.876.958.658 2.61 1.239 3.64 1.65 1.854.79 3.874 1.234 5.544 2.412.397.28 1.33 1.012 1.21 1.707-.143.818-.568 1.56-.852 2.34-1.97 1.111-4.176 1.664-6.423 1.843-1.277.103-2.644.097-3.871-.352-.401-.147-.73-.442-1.095-.663l.24-1.528c.308.222.574.522.926.668 1.14.47 2.514.476 3.705.382 2.144-.17 4.26-.693 6.096-1.84.223.197.386.68.67.591.253-.079.102-.558-.016-.795-.174-.346-.496-.605-.804-.842-1.608-1.236-3.643-1.643-5.469-2.426-1.07-.413-2.792-1.014-3.806-1.637-.418-.258-.951-.48-1.142-.933-.528-1.248-.537-2.272.206-3.243.23-.3.538-.529.806-.794.372-.23.72-.503 1.115-.693 1.359-.657 3.102-.945 4.533-.352.224.093.414.251.62.377l-.24 1.56zM639.351 1198.412c2.076 6.614 3.992 13.276 6.116 19.875 1.117 3.235 2.02 6.558 3.316 9.73-.635 1.454-.439 1.819-.693 1.034l.545-1.49c.32.85.151.209-.38 1.954-1.245-3.237-2.187-6.585-3.297-9.868-2.116-6.563-3.985-13.202-6.127-19.757zM655.35 1213.68c-.16.077-.327.14-.478.23-1.53.956-2.748 2.419-3.472 4.064-.23.525-.364 1.089-.546 1.633-.01.53-.138 1.071-.032 1.591.027.132.288.031.384.126.353.346.55.84.927 1.16.955.81 2.134 1.157 3.359 1.28.708.073 1.424-.016 2.136-.024.693-.183 1.414-.282 2.078-.55 1.828-.735 3.477-2.133 3.919-4.137.371-1.687.373-1.47-.483-2.09-.379-.495-.694-1.048-1.137-1.488-.922-.914-2.082-1.584-3.302-2.008-.482-.168-.997-.218-1.496-.327l.068-1.443c.527.122 1.07.189 1.582.367 1.265.443 2.506 1.132 3.495 2.044.486.448.852 1.012 1.278 1.517.404 1.78 1.018 3.005.494 4.753-.612 2.04-2.366 3.448-4.285 4.19-.7.266-1.452.371-2.178.557-1.75.03-2.607.207-4.281-.38-.82-.286-2.314-1.155-2.685-2.063-.764-1.868-.54-2.666-.382-4.397.206-.552.365-1.124.618-1.656.805-1.7 2.095-3.245 3.702-4.243.174-.108.368-.18.552-.27l.165 1.564zM667.385 1208.3c.196.305.426.59.588.915.446.888 1.376 3.32 1.68 4.128.67 1.781 1.33 3.641 1.925 5.447.336 1.02.65 2.048.974 3.072.774 2.559 1.535 5.123 2.246 7.7.142.514.278 1.029.413 1.544.08.31.197.612.234.93.063.556.042 1.12.063 1.68-.265-.099-.61-.082-.796-.294-.303-.343-.399-.825-.567-1.25a30.71 30.71 0 0 1-.802-2.219 59.49 59.49 0 0 1-1.68-7.117c-.217-1.278-.343-2.57-.514-3.855-.02-1.526-.174-3.056-.061-4.577.225-3.036 1.847-6.604 5.264-6.987.674-.075 1.352.11 2.029.166.633.257 1.304.436 1.9.77 1.053.591 2.07 1.485 2.564 2.624.571 1.316.35 3.329-.095 4.54-.202.549-.75.898-1.125 1.347-.487.317-.93.714-1.462.949-1.04.458-2.24.557-3.357.526-.435-.012-.866-.1-1.3-.151l.03-1.475c.409.061.813.164 1.226.183 1.042.05 2.158-.043 3.122-.49.488-.227.887-.61 1.33-.916.321-.432.601-.896.962-1.294.113-.124.412-.081.437-.247.27-1.814-1.028-3.335-2.472-4.198-.55-.33-1.18-.507-1.769-.76-1.545-.14-2.137-.44-3.558.391a5.098 5.098 0 0 0-1.457 1.289c-1.14 1.49-1.456 3.001-1.675 4.843-.093.778-.03 1.567-.044 2.35.162 1.283.273 2.573.487 3.848a52.69 52.69 0 0 0 1.682 6.95c.23.718.519 1.417.804 2.115.16.39.484.728.532 1.146.02.176-.236.263-.355.395.03.37.332.827.092 1.11-.216.256-.126-.656-.2-.983a60.169 60.169 0 0 0-.384-1.596c-.666-2.613-1.423-5.202-2.195-7.786-1.428-4.476-2.886-8.974-4.956-13.202l.24-1.56zM688.088 1208.421c.264-.093.536-.167.793-.28 1.132-.49 2.285-1.161 3.15-2.053.653-.675.726-.956 1.118-1.741.026-.265.186-.552.078-.795-.089-.2.07.619-.148.637-.237.021-.227-.43-.403-.59-.406-.37-.984-.535-1.524-.507-.31.017-.606.14-.91.21-.34.224-.714.404-1.02.672-1.311 1.149-2.2 2.808-2.607 4.488-.41 1.69-.41 1.42-.082 2.462.236.519.372 1.097.71 1.556.666.902 1.861 1.619 2.964 1.796 1.578.254 3.313-.166 4.78-.664.87-.294 1.689-.72 2.533-1.08l2.198-1.222.228 1.332-2.24 1.203c-.865.365-1.704.794-2.592 1.097-1.543.527-3.368.983-5.03.744-1.175-.168-2.529-.932-3.283-1.85-.386-.471-.566-1.079-.849-1.618-.066-1.04-.227-2.078-.2-3.12.018-.656.16-1.308.336-1.941.484-1.74 1.45-3.467 2.857-4.629.353-.292.78-.48 1.171-.721.902-.188 1.17-.363 2.078-.1.4.115 1.307.579 1.45 1.067.47 1.613.32 1.786.007 2.993-.477.797-.576 1.068-1.29 1.755-1.141 1.096-2.668 1.893-4.133 2.457l-.14-1.558zM705.619 1201.448c2.6-.691 5.181-1.455 7.77-2.188 1.677-.459.887-.254 2.368-.623l.132 1.49c-1.47.323-.685.14-2.355.563-2.605.72-5.196 1.488-7.765 2.33l-.15-1.572zM717.918 1178.934c.564 2.497.966 5.025 1.53 7.521.186.828.39 1.652.587 2.477 1.198 4.759 2.65 9.448 4.008 14.162.119.407.24.813.356 1.22.072.252.14.505.206.758.034.127.06.256.095.382.01.045.06.088.044.131-.61 1.502-.407 1.774-.723 1.21-.056-.11-.028-.063-.081-.146l.6-1.478c-.023.067-.016.027-.001.124.175.666.048.091-.476 1.725-.013.042.038-.082.037-.126a2.82 2.82 0 0 0-.058-.409c-.052-.267-.11-.533-.175-.798-.106-.423-.226-.843-.338-1.264-1.29-4.758-2.753-9.466-3.995-14.237-.515-2.084-.662-2.61-1.1-4.648-.37-1.721-.646-3.464-1.103-5.166l.588-1.438z" style="opacity:1;fill:#000;fill-opacity:1;stroke:none;stroke-width:.287674;stroke-linecap:square;stroke-linejoin:miter;stroke-miterlimit:4;stroke-dasharray:none;stroke-opacity:1" transform="matrix(.69138 0 0 .69138 -126.326 -763.32)"/></g><g style="display:inline;stroke-width:.892857"><path d="M757.35 1176.723c.624.274 1.275.495 1.874.821.387.211 1.682 1.42 1.891 1.617 1.452 1.362 2.855 2.774 4.258 4.185 1.363 1.358 2.682 2.765 4.092 4.076.202.188 1.16 1.035 1.514 1.258.09.056.2.069.3.103-.515-.131-1.076-.142-1.544-.393-.172-.092-.142-.363-.208-.547a55.82 55.82 0 0 1-.397-1.153c-.7-2.109-1.334-4.213-1.937-6.352-.53-2.069-.97-4.159-1.435-6.243l-.241-1.075c-.044-.196-.111-.387-.132-.586-.01-.102.026-.204.038-.305l.335-.306 1.121 1.127.064-.373c-.063.35.234 1.582.274 1.786.41 2.079.842 4.154 1.382 6.203.235.808.456 1.62.706 2.425.296.957.963 2.901 1.324 3.912.14.393.301.777.435 1.172.08.234.413.583.202.712-.443.274-1.04.083-1.56.125-.618-.445-1.181-.972-1.728-1.5-1.378-1.33-2.695-2.725-4.05-4.078-1.415-1.406-2.827-2.825-4.313-4.157a21.543 21.543 0 0 0-1.09-.927c-.273-.214-.791-.253-.854-.594-.048-.265.521.133.782.2l-1.103-1.133zM777.71 1170.37c-1.51 1.688-2.683 3.617-3.558 5.705-.644 1.536-1.129 2.995-1.206 4.668-.028.594.107 1.184.161 1.775.228.444.632 1.82 1.554 1.628.208-.043-.285-.44-.165-.614.264-.383.812-.475 1.141-.803 1.075-1.068 1.206-1.785 1.803-3.184.529-1.66.705-3.37.654-5.102-.008-.272-.056-.542-.06-.814-.002-.106-.063-.32.042-.315.64.032 1.25.274 1.875.41 1.49 1.475 3.378 2.405 5.298 3.192.656.269 2.582.744 2.917.834l1.022 1.035c-.681-.173-1.374-.304-2.043-.519-3.182-1.021-6.209-2.267-8.764-4.459.402-.01.81-.087 1.207-.028.068.01-.05.132-.052.201-.01.278.02.555.018.833-.017 1.78-.207 3.544-.753 5.25-.635 1.532-.742 2.211-1.867 3.412-.364.388-.726.892-1.248.996-1.038.209-2.738.068-3.47-.95-.279-.388-.363-.885-.545-1.328-.035-.622-.148-1.245-.105-1.867.12-1.729.613-3.178 1.274-4.773.882-2.127 2.038-4.103 3.5-5.882l1.37.698zM777.114 1151.064c.09.091.19.172.268.272.212.27.4.557.602.834 1.223 1.685.8 1.036 2.145 3.188 1.28 2.046 1.864 3.051 3.13 5.172 2.811 4.917 5.932 9.67 8.431 14.76.55 1.1.287.634.755 1.414l-1.554-.146c-.407-.808-.176-.333-.68-1.432-.225-.477-.435-.962-.673-1.433-.753-1.495-1.6-2.983-2.432-4.432-1.704-2.968-3.465-5.903-5.218-8.843-1.071-1.762-2.068-3.437-3.192-5.16-.888-1.363-1.81-2.713-2.888-3.936-.085-.097-.184-.181-.276-.272l1.582.014zM791.25 1160.758c-.097 1.97.406 3.922 1.21 5.713.339.757.71 1.505 1.162 2.2.45.694 1.022 1.3 1.533 1.949 1.173.989 1.992 1.947 3.553 2.295.173.038.26-.248.418-.327.438-.215.977-.242 1.357-.548 1.14-.918 1.25-2.058 1.659-3.37.023-.847.13-1.696.07-2.54-.207-2.85-1.232-5.774-3.275-7.826-.213-.214-.47-.378-.706-.568l-.406-.167 1.565-.117.377.269c.222.213.464.408.666.64 1.944 2.237 2.955 5.186 3.153 8.123.059.885-.05 1.774-.074 2.66-.45 1.47-.568 2.658-1.79 3.727-1.38 1.209-2.82.685-4.468.176-.644-.199-1.24-.548-1.79-.937-.634-.449-1.155-1.039-1.733-1.558-.509-.674-1.076-1.308-1.526-2.022-.453-.718-.828-1.484-1.172-2.259-.83-1.868-1.357-3.893-1.3-5.945l1.517.432zM808.704 1159.244c1.34-1.085 2.687-2.231 3.64-3.691.421-.644.957-1.632.784-2.482-.057-.276-.311-.47-.467-.706-2.823-.568-.097-.328-.862.324-.401.341-.995.366-1.447.638-1.127.676-1.9 1.444-2.525 2.618-.315.591-.467 1.256-.701 1.884-.044.678-.196 1.357-.133 2.033a6.122 6.122 0 0 0 3.18 4.839c.59.322 1.228.64 1.9.685.424.03.788-.317 1.181-.476.923-.281 1.882-.465 2.77-.844 2.375-1.014 4.209-2.357 6.351-3.766l1.15.69c-1.975 1.31-4.198 2.896-6.367 3.89-.9.412-1.876.637-2.814.955-1.24-.094-2.499-.044-3.72-.283-.679-.133-1.32-.452-1.908-.819-1.84-1.149-2.972-3.095-3.126-5.253-.052-.717.112-1.434.168-2.151.247-.665.412-1.366.74-1.995.67-1.283 1.422-2.044 2.613-2.824.475-.311.953-.707 1.517-.778 1.97-.249 2.251.07 3.56.788.133.323.363.62.399.968.097.956-.427 1.948-.916 2.698-.97 1.486-2.32 2.66-3.623 3.838l-1.344-.78zM828.626 1149.165c3.276-1.765 6.588-3.461 9.874-5.207l1.255.808c-3.294 1.675-6.595 3.348-9.783 5.22zM835.429 1122.86c.277.487.846 1.481 1.059 1.892.162.31 1.854 3.745 1.898 3.835 1.562 3.148 1.025 2.075 2.742 5.379 2.432 4.703 5.136 9.257 7.814 13.822.62 1.018 1.21 2.052 1.823 3.074.123.205.284.522.473.698-1.658-.116-1.409.12-1.977-.572l1.586.066c.495.635.547.428-1.2.418-.672-1.295-1.463-2.528-2.157-3.81-2.63-4.582-5.325-9.128-7.731-13.834-1.861-3.529-1.098-2.051-2.8-5.392-.493-.969-1.414-2.808-1.972-3.818-.41-.745-.7-1.187-1.127-1.866l1.569.107z" style="opacity:1;fill:#000;fill-opacity:1;stroke:none;stroke-width:.357143;stroke-linecap:square;stroke-linejoin:miter;stroke-miterlimit:10;stroke-dasharray:none;stroke-opacity:1" transform="matrix(.62924 .12301 -.12301 .62924 201.166 -778.016)"/></g><g style="fill:#000"><path d="M631.332 911.176c.453.188.941.307 1.359.565 2.894 1.784 4.987 4.933 6.743 7.73 3.064 4.883 3.351 5.996 5.94 11.542 4.502 10.86 7.374 22.272 7.996 34.034.392 7.405-.01 11.482-.403 18.734-.965 7.156-.902 8.128-2.535 14.933-1.057 4.408-2.33 9.002-4.998 12.755-.41.575-.954 1.042-1.43 1.562l-.76.155c.486-.506 1.041-.953 1.456-1.519 2.72-3.701 4.001-8.312 5.067-12.698 1.645-6.77 1.59-7.794 2.566-14.911.412-7.312.818-11.236.424-18.709-.618-11.736-3.48-23.129-7.986-33.96-2.587-5.51-2.885-6.64-5.947-11.491-1.732-2.745-3.814-5.884-6.687-7.605-.407-.244-.883-.346-1.324-.519l.519-.598z" style="opacity:1;fill:#000;fill-opacity:1;stroke:none;stroke-width:.08;stroke-linecap:square;stroke-linejoin:miter;stroke-miterlimit:4;stroke-dasharray:none;stroke-opacity:1" transform="translate(-443.957 -1074.684) scale(1.27275)"/><path d="M643.639 1008.662a121.781 121.781 0 0 0-2.899 8.717c.118-.956-.152.712-.135.53.01-.11-.031-.249.046-.327.195-.197.471-.291.707-.436.442-.27.887-.536 1.328-.81.665-.412 1.326-.832 1.99-1.249 3.657-2.446 7.309-4.904 10.829-7.545l.779-.117c-3.896 2.916-7.94 5.627-11.98 8.338-2.156 1.356-1.514.963-3.33 2.074-.238.146-.45.351-.717.437-.128.042-.282-.01-.397-.078-.163-.098.631-.63.136-.553a149.262 149.262 0 0 1 2.889-8.743l.754-.239z" style="opacity:1;fill:#000;fill-opacity:1;stroke:none;stroke-width:.08;stroke-linecap:square;stroke-linejoin:miter;stroke-miterlimit:4;stroke-dasharray:none;stroke-opacity:1" transform="translate(-443.957 -1074.684) scale(1.27275)"/></g><path d="M977.863 937.381h4.847v3.804h-4.847z" style="display:inline;opacity:1;fill:#fff;fill-opacity:1;stroke:none;stroke-width:.127275;stroke-linecap:square;stroke-linejoin:miter;stroke-miterlimit:4;stroke-dasharray:none;stroke-opacity:1" transform="translate(-388.55 -842.8)"/><path d="M962.998 909.693c.597.438 1.244.822 1.79 1.313 5.216 4.679 9.139 10.771 11.967 16.898 1.13 2.449 2.028 4.984 3.042 7.476 4.74 12.078 6.987 24.791 8.152 37.55.375 4.106.687 8.219.816 12.337.132 4.186-.023 8.376-.034 12.564-.69 15.266-3.832 30.38-8.78 44.948-2.184 6.426-3.639 9.45-6.278 15.495-3.01 6.151-1.578 3.418-4.21 8.237l-1.038.281c2.678-4.808 1.224-2.08 4.27-8.226 2.667-6.058 4.114-9.03 6.32-15.477 4.979-14.544 8.136-29.64 8.841-44.89.014-4.183.171-8.368.04-12.549-.13-4.112-.445-8.22-.822-12.32-1.17-12.732-3.437-25.414-8.156-37.469-1.014-2.481-1.91-5.006-3.041-7.445-2.817-6.078-6.721-12.14-11.931-16.758-.549-.486-1.196-.867-1.794-1.3l.846-.665z" style="opacity:1;fill:#000;fill-opacity:1;stroke:none;stroke-width:.362735;stroke-linecap:square;stroke-linejoin:miter;stroke-miterlimit:4;stroke-dasharray:none;stroke-opacity:1" transform="translate(-388.55 -842.8)"/><g style="stroke-width:.892455"><path d="M709.822 894.14c-.085-.117-.148-.253-.254-.352-.622-.581-1.648-.92-2.49-.739-.185.04-.347.151-.52.227-.09.131-.246.236-.268.393-.01.071.167.013.202.077.107.199.101.443.19.65.37.872 1.095 1.82 1.627 2.604.505.822 1.527 2.098.277 2.881-.33.207-1.4-.122-1.639-.177-.335-.133-.682-.238-1.005-.4-.73-.366-1.719-1.04-2.202-1.727-.092-.13-.132-.29-.198-.434l.386-.461v0c.048.135.066.285.143.406.433.673 1.432 1.352 2.125 1.697.315.156.655.255.982.382.289.061.571.16.865.182.207.016.416-.108.619-.065.074.016.05.285.077.214.273-.706-.508-1.487-.771-2.033-.217-.319-1.023-1.494-1.23-1.83-.134-.217-.697-1.147-.689-1.489.023-.92.174-.957.644-1.45.193-.07.377-.172.578-.207.91-.155 1.964.202 2.646.81.116.102.19.243.284.365l-.379.476zM716.19 885.084c-1.054 2.688-2.01 5.414-2.996 8.127-.222.605-.443 1.21-.668 1.813-.545 1.464-.64 1.703-1.183 3.098-.325.832-.66 1.66-.956 2.502-.154-.176-.074.434-.108.414-.42-.247-.107-.097-.016-.052.041.09.08.112-.081-.007l-.16.597v0c-.133-.06-.181-.028-.15-.112l.153.06c-.372-.15-.221-.082-.11-.536.301-.853.648-1.688.98-2.53.54-1.366.663-1.672 1.198-3.104.225-.603.446-1.208.669-1.812.977-2.699 1.932-5.406 2.936-8.095l.491-.363zM717.856 897.707c-.054-.074-.096-.157-.16-.222-.755-.756-1.797-.432-2.69-.19-.737.237-1.319.62-1.719 1.298-.046.078-.04.177-.051.267-.135 1.05-.135.623.114 1.683.146.264.254.553.437.793.825 1.09 2.289 1.523 3.605 1.244.29-.06.55-.22.826-.33.17-.213.397-.39.508-.64.06-.133-.02-.29-.028-.436-.02-.348 0-.7-.056-1.042a5.615 5.615 0 0 0-.706-1.899c-.132-.22-.309-.412-.463-.618-.181-.159-.437-.45-.711-.507-.043-.009-.079.037-.118.055l.175-.586v0c.074-.002.152-.027.223-.005.317.095.537.355.773.564.161.214.346.414.485.643.352.583.625 1.28.753 1.946.068.355.15.722.096 1.08a4.433 4.433 0 0 1-.473 1.39c-.135.253-.395.415-.593.623-.292.103-.571.255-.876.31-1.387.254-2.897-.202-3.778-1.33-.194-.25-.314-.55-.472-.823-.081-.3-.211-.591-.245-.9-.106-.965.421-2.035 1.13-2.667.452-.404.766-.468 1.318-.681.263-.068.522-.154.789-.202.878-.158 1.731-.052 2.287.703l-.38.479zM721.918 899.22c-1.188 3.438-2.842 6.69-4.416 9.962-.33.73-.655 1.423-.952 2.163-.061.153-.04.36-.167.466-.051.042-.29-.151-.254-.258.143-.43.327-.846.49-1.27.26-.607.501-1.223.779-1.822.325-.702.663-1.399 1.029-2.08 1.019-1.899 2.123-3.842 3.865-5.185.38-.293.826-.49 1.239-.735.374-.095.739-.232 1.12-.285.83-.115 1.688.1 2.003.97.248.683.074 1.097-.053 1.773-.462.932-.533 1.258-1.459 2.039-.723.61-1.991.903-2.9.603-.24-.079-.435-.255-.652-.383l-.386-.45.34-.491v0l.331.423c.196.12.369.286.586.358.591.196 1.228.118 1.799-.103.337-.13.631-.354.947-.532.166-.093.373-.137.498-.281.201-.233.298-.54.447-.809.068-.285.178-.564.204-.857.043-.49-.012-1.046-.406-1.406-.696-.638-1.774-.22-2.52-.013-.4.243-.832.44-1.2.729-2.03 1.593-3.336 4.099-4.395 6.391-.274.593-.509 1.203-.764 1.804-.157.416-.309.835-.472 1.249-.144.367-.224.771-.45 1.094-.051.072-.232-.02-.242-.109-.02-.17.11-.325.175-.484.274-.675.684-1.553.972-2.187 1.575-3.253 3.23-6.486 4.398-9.913l.466-.372zM729.445 904.36c.09.086.168.185.268.258.692.507 1.75.827 2.608.715.205-.027.397-.119.595-.178.137-.105.284-.198.41-.317.023-.021-.082.05-.094.02-.058-.154-.01-.341-.085-.488-.22-.424-.652-.651-1.094-.766-.3-.079-.616-.076-.924-.114-1.107.099-2.003.26-2.885.99-.226.187-.45.391-.598.645-.055.095 0 .224.033.329.098.304.24.593.36.89.337.292.637.635 1.014.875.903.573 2.005.917 3.037 1.152.47.108.952.156 1.428.234l-.215.521v0c-.48-.083-.968-.137-1.443-.248-1.047-.245-2.183-.602-3.105-1.178-.4-.25-.724-.606-1.086-.908-.15-.324-.454-.615-.448-.971.007-.456.253-.885.484-1.278.152-.259.401-.452.64-.634.93-.714 1.86-.877 3-.96.71.094 1.127.055 1.727.469.248.172.725.698.643 1.084-.18.843-.397.872-.953 1.227-.214.054-.423.138-.643.16-.907.092-1.99-.24-2.73-.761-.112-.08-.204-.184-.306-.275l.362-.492z" style="opacity:1;fill:#000;fill-opacity:1;stroke:#000;stroke-width:.0713964;stroke-linecap:square;stroke-linejoin:miter;stroke-miterlimit:10;stroke-dasharray:none;stroke-opacity:1" transform="matrix(1.39526 -.29488 .29486 1.39536 -802.376 -965.11)"/><path d="M741.176 913.06c.89-2.573 1.882-5.107 2.839-7.655.993-2.522 1.91-5.084 3.069-7.531l.326-.633c.02-.024.03-.081.06-.071a.271.271 0 0 1 .163.145c.002.004-.097.201-.123.252l-.396.29v0c.025-.05.122-.243.124-.244.396-.078.04.344.229-.022-1.205 2.438-2.116 5.018-3.115 7.55-.947 2.533-1.939 5.05-2.793 7.619l-.383.3z" style="opacity:1;fill:#000;fill-opacity:1;stroke:#000;stroke-width:.214189;stroke-linecap:square;stroke-linejoin:miter;stroke-miterlimit:10;stroke-dasharray:none;stroke-opacity:1" transform="matrix(1.39526 -.29488 .29486 1.39536 -802.376 -965.11)"/></g><path d="M853.929 944.219a61.49 61.49 0 0 0-3.919 12.371c-.325 1.613-.547 3.244-.821 4.866-1.6 12.782-2.297 25.747-1.098 38.6.27 2.895.734 5.769 1.101 8.654 1.24 7.245 2.83 14.468 5.614 21.296 1.162 2.85 2.426 5.371 4.272 7.811.491.65 1.114 1.19 1.67 1.784-.352 1.863 1.476.234 1.782.81.084.16-.348.103-.522.153l.99-.202c-1.722 1.223-1.214 1.043-3.022-.172-.56-.613-1.184-1.172-1.679-1.838-1.84-2.478-3.1-5.012-4.264-7.893-2.772-6.857-4.359-14.1-5.602-21.367-.369-2.89-.834-5.77-1.107-8.67-1.21-12.859-.537-25.828 1.006-38.625.265-1.626.477-3.26.794-4.877.835-4.255 2.185-8.428 3.836-12.431l.969-.27z" style="opacity:1;fill:#000;fill-opacity:1;stroke:none;stroke-width:.305461;stroke-linecap:square;stroke-linejoin:miter;stroke-miterlimit:10;stroke-dasharray:none;stroke-opacity:1" transform="translate(-388.55 -842.8)"/><path d="M856.367 1040.885c.666.56 1.328 1.126 1.998 1.682.686.568 3.19 2.604 3.963 3.23.453.367.88.768 1.36 1.098.256.176.647.163.835.41.118.155-.388-.051-.581-.076-.122-.598-.217-1.203-.366-1.795-.614-2.434-1.364-4.832-1.99-7.263a97.483 97.483 0 0 1-1.939-9.388l.868-.443c.33 2.266.405 3.02.939 5.453.83 3.774 1.985 7.449 2.987 11.177.174.65.309 1.31.463 1.965-.37.352-.62.91-1.109 1.056-.313.093-.597-.276-.864-.466-.474-.337-.9-.738-1.351-1.106-1.994-1.63-3.998-3.248-5.97-4.904l.757-.63z" style="opacity:1;fill:#000;fill-opacity:1;stroke:none;stroke-width:.305461;stroke-linecap:square;stroke-linejoin:miter;stroke-miterlimit:10;stroke-dasharray:none;stroke-opacity:1" transform="translate(-388.55 -842.8)"/><g style="stroke-width:.892274"><path d="M896.475 893.815c.36 1.704.616 3.428.894 5.147.071.172.136 1.12.322 1.26.03.022.044-.059.064-.09.075-.116.153-.23.222-.35.138-.241.265-.488.398-.731a639.721 639.721 0 0 1 3.267-6.117c.379-.698-.034.052-.04.121-.01.068.095.098.142.147l.06-.583v0c.083.022.25-.022.25.064-.001.128-.296.634-.4.817a280.169 280.169 0 0 0-3.268 6.106c-.064.112-.597 1.36-1.034 1.084-.202-.127-.293-1.134-.35-1.31-.27-1.71-.522-3.427-.894-5.12l.367-.445zM905.902 896.808c-.11-.036-.217-.09-.332-.106-1.025-.152-2.014.562-2.725 1.214-.25.229-.464.494-.696.74-.373.516-.772.943-.622 1.63a.81.81 0 0 0 .254.441c.387.325.824.163 1.262.117.301-.13.616-.23.902-.39.91-.506 1.69-1.259 2.332-2.07.145-.182.265-.382.395-.575.013-.02-.032.039-.047.058.007-.073.03-.146.021-.22-.025-.201-.295.082-.182.15.053.031.1-.075.149-.112l.014.586c.132 1.02.42 2.053 1.07 2.874.136.17.305.31.457.464l-.287.484v0c-.161-.161-.34-.307-.483-.484-.673-.834-.984-1.885-1.144-2.926-.056-.723-.13-.687.23-1.467.11-.236.481-.212.58.016.036.085.014.185.021.278-.135.287-.248.586-.406.861-.216.376-.775.994-1.05 1.265-.787.774-1.652 1.422-2.722 1.745-.55.04-.964.194-1.435-.187a1.025 1.025 0 0 1-.323-.504c-.27-.925.54-1.897 1.045-2.582.24-.246.463-.51.72-.74.773-.683 1.804-1.37 2.889-1.197.13.02.25.08.376.12l-.263.517zM913.272 886.203c-.047.165-.098.33-.141.495-.093.363-.429 1.796-.488 2.045l-1.353 5.62c-.652 2.742-1.24 5.51-1.445 8.327-.417-.188.142.432-.008.452-.063.009-.106-.07-.16-.105l-.033.586v0c-.069-.019-.154-.008-.206-.057-.118-.108.23-.442.005-.48.227-2.835.815-5.623 1.47-8.387.647-2.705 1.28-5.414 1.916-8.121l.443-.375zM920.239 901.556c.969.265 1.97.223 2.945.013.241-.052.484-.106.715-.193.18-.069.339-.182.508-.272.087-.107.214-.192.259-.322.024-.069-.126.157-.187.116-.113-.075-.124-.241-.186-.362-.15-.119-.282-.262-.448-.357-.536-.306-.819-.3-1.425-.41-.275.013-.553-.007-.824.04-1.13.192-2.268.883-2.83 1.9-.062.111-.056.249-.084.373.007.307-.056.624.02.921.502 1.972 2.827 2.369 4.538 2.34.607-.01 1.208-.126 1.813-.188l-.138.5v0c-.613.06-1.223.174-1.84.182-1.82.025-4.149-.397-4.752-2.432-.092-.31-.045-.645-.067-.967.174-.428.302-.878.522-1.284.544-1.002 1.884-1.713 2.974-1.879.284-.043.574-.02.86-.03.643.12.93.117 1.502.437.164.092.771.52.775.814.009.707-.188.795-.57 1.166-.181.087-.354.193-.543.26a5.518 5.518 0 0 1-.73.185c-1.007.204-2.038.24-3.038-.022l.23-.53zM937.94 891.94c-.87 4.296-1.84 8.57-2.672 12.874-.241 1.307-.448 2.623-.564 3.948-.193-.16-.44.57-.403.26l.422-.405v0c-.025.214-.285.78-.439.552.158-1.343.337-2.683.607-4.009.845-4.284 1.824-8.54 2.63-12.832l.419-.387z" style="opacity:1;fill:#000;fill-opacity:1;stroke:#000;stroke-width:.142764;stroke-linecap:square;stroke-linejoin:miter;stroke-miterlimit:4;stroke-dasharray:none;stroke-opacity:1" transform="matrix(1.42617 0 0 1.42666 -592.787 -1212.648)"/><path d="M913.804 896.695c-.492 1.072-.912 2.183-1.18 3.334-.065.285-.111.575-.167.863-.026.274-.071.547-.077.821-.013.634.073 1.317.535 1.795.331.344.48.32.922.44.203-.03.414-.024.609-.09.51-.173.976-.534 1.315-.945.104-.125.144-.292.212-.44.588-1.277.377-.722.75-2.058.124-.654.231-1.323.177-1.991-.005-.067-.024-.131-.036-.196l.554-.394v0c.011.077.029.154.033.232.033.697-.087 1.391-.213 2.073-.182.689-.34 1.485-.716 2.108-.52.858-1.343 1.885-2.377 2.168-.22.06-.453.039-.68.058-.49-.157-.65-.138-1.018-.527-.49-.52-.6-1.23-.592-1.915.004-.281.049-.56.073-.84.054-.292.099-.585.163-.875.11-.495.311-1.197.472-1.683.159-.481.279-.758.457-1.218.055-.142.108-.285.162-.428l.622-.292z" style="opacity:1;fill:#000;fill-opacity:1;stroke:#000;stroke-width:.0627458;stroke-linecap:square;stroke-linejoin:miter;stroke-miterlimit:4;stroke-dasharray:none;stroke-opacity:1" transform="matrix(1.42617 0 0 1.42666 -592.787 -1212.648)"/></g><path d="M1087.149 939.553h4.675v3.804h-4.675z" style="display:inline;opacity:1;fill:#fff;fill-opacity:1;stroke:none;stroke-width:.127275;stroke-linecap:square;stroke-linejoin:miter;stroke-miterlimit:4;stroke-dasharray:none;stroke-opacity:1" transform="translate(-388.55 -842.8)"/><path d="M1096.501 926.92c-4.372 8.494-7.859 17.423-9.993 26.75-.695 3.038-1.184 6.12-1.776 9.18-2.174 14.459-2.874 29.268-.48 43.75.28 1.7.71 3.374 1.064 5.061l1.165 2.897-.821.494-1.156-2.96c-.347-1.698-.764-3.384-1.04-5.096-2.34-14.52-1.69-29.347.486-43.842.583-3.063 1.066-6.148 1.751-9.19 2.1-9.324 5.546-18.24 9.841-26.76z" style="opacity:1;fill:#000;fill-opacity:1;stroke:none;stroke-width:.203641;stroke-linecap:square;stroke-linejoin:miter;stroke-miterlimit:4;stroke-dasharray:none;stroke-opacity:1" transform="translate(-388.55 -842.8)"/><path d="M1078.609 1003.336c2.371 4.014 4.25 8.294 6.444 12.406.247.399 1.095 1.843 1.529 2.324.088.098.438.114.34.201-.987.884-.64-.316-.636-.52.013-.346-.02-.692-.03-1.038-.213-4.566-.223-9.138-.257-13.707l.89-.407c.012 4.564.027 9.131.272 13.69.052 1.19.46 2.083-.997 2.649-.154.06-.29-.17-.397-.294-.437-.505-1.272-1.945-1.53-2.37-2.175-4.105-4.052-8.373-6.449-12.356l.821-.578zM968.275 1059.487c-1.162 5.404-2.21 10.844-3.784 16.133-.25.73-.196 1.094-1.27.899-.037-.015.103-.882.117-.968.048-.423.094-.418.314-.822 3.702-4.808 7.899-9.13 12.209-13.298l2.089-1.943 1.014-.187-2.104 1.939c-4.306 4.136-8.523 8.423-12.154 13.262-.389.219-.256.226-.366.626-.026.148-.049.828-.14.907-1.545 1.333-.935.59-.71-.043 1.645-5.255 2.674-10.694 3.8-16.096l.985-.408z" style="opacity:1;fill:#000;fill-opacity:1;stroke:none;stroke-width:.25455;stroke-linecap:square;stroke-linejoin:miter;stroke-miterlimit:4;stroke-dasharray:none;stroke-opacity:1" transform="translate(-388.55 -842.8)"/><path d="m1035.028 970.38.276-11.54 9.523.227-.276 11.541zm0 0" style="display:inline;fill:#fafafa;fill-opacity:1;fill-rule:nonzero;stroke:#fafafa;stroke-width:.507191;stroke-linecap:butt;stroke-linejoin:miter;stroke-miterlimit:10;stroke-opacity:1" transform="translate(-388.55 -842.8)"/><use xlink:href="#n" width="100%" height="100%" x="297.01" y="269.055" style="display:inline;fill:#b0b0d9;fill-opacity:1" transform="rotate(1.365 9567.59 11552.926) scale(1.27275)"/></g><g style="display:inline"><path d="M676.544 192.635c-14.235 1.206-30.638-7.48-33.897-21.887-2.642-11.678 4.867-22.987 17.086-27.464 3.778-1.384 8.757-2.184 12.077-2.31 3.346-.128 4.43.32 3.568.84-10.013-5.464-12.846-20.215-5.53-29.092 11.06-13.422 30.824-18.177 46.387-16.528 9.842 1.043 22.422 7.294 25.119 17.82.284 1.11-2.239 2.532-.83.011.564-1.009 1.584-2.129 3.283-3.006 13.996-7.227 33.702-5.714 47.939 2.759 11.434 6.804 19.062 21.176 16.114 34.506-2.444 8.052-8.503 16.289-17.169 17.766-.723.124-.779-1.093.128-.845 4.914 1.346 10.812 6.994 13.842 13.583 4.21 9.157-.423 19.864-8.678 25.19-8.812 5.686-22.005 8.13-31.19 5.272-4.364-1.358-8.299-3.099-11.442-5.74-3.781-3.178.736-3.437 1.317-1.578 1.842 5.89-10.162 13.197-21.88 15.603-14.545 2.987-31.132 2.54-44.19-5.479-7.514-4.614-14.047-13.76-14.104-22.665" style="fill:#e5f6ff;fill-opacity:1;stroke:#000;stroke-width:.763651;stroke-linecap:square;stroke-linejoin:miter;stroke-miterlimit:4;stroke-dasharray:none;stroke-opacity:1" transform="translate(202.993 -3.54)"/><path d="M974.175 217.728c-1.462 1.406-2.592 3.145-2.591 5.248 0 .788.035 1.6.287 2.346.655 1.946 1.5 2.284 2.998 3.507.802.224 1.577.605 2.407.673 2.596.21 5.385-1.029 6.508-3.496.661-1.453-.16-2.81-.61-4.127-.526-.623-.974-1.323-1.58-1.87-1.244-1.124-3.098-2.085-4.796-2.25-.2-.019-.401.042-.602.063l.15-.67c.219-.013.439-.065.656-.04 1.742.202 3.622 1.165 4.912 2.318.626.559 1.094 1.272 1.642 1.908.29.796.83 1.54.87 2.386.186 4.051-3.604 6.733-7.362 6.404-.857-.076-1.655-.468-2.483-.702-1.546-1.249-2.42-1.602-3.125-3.587-.89-2.504.035-5.347 1.486-7.43.354-.507.84-.907 1.259-1.36l-.026.679z" style="opacity:1;fill:#000;fill-opacity:1;stroke:none;stroke-width:2.08861;stroke-linecap:square;stroke-linejoin:miter;stroke-miterlimit:4;stroke-dasharray:none;stroke-opacity:1" transform="translate(202.993 -3.54)"/><path d="M984.187 230.903c-.484.608-1.052 1.157-1.453 1.823-2.405 4-4.01 9.76-1.87 14.22.481 1.002 1.331 1.782 1.997 2.673.934.566 1.786 1.298 2.802 1.7 4.394 1.734 9.41-.162 12.414-3.593.718-.821 1.156-1.851 1.734-2.777.107-.859.41-1.716.32-2.576-.528-5.023-4.89-8.298-8.878-10.679-.876-.522-1.803-.955-2.705-1.432-.956-.45-2.204-.937-3.084-1.62-.14-.11-.222-.278-.333-.417l.315-.544v0c.09.131.144.293.267.394.843.688 2.155 1.205 3.062 1.637 4.08 2.172 8.618 4.625 10.777 8.969.505 1.018.94 2.127.99 3.263.051 1.22-.465 2.397-.697 3.596-.596.925-1.055 1.955-1.789 2.774-3.091 3.45-8.172 5.31-12.628 3.547-1.036-.41-1.908-1.153-2.862-1.73-.683-.904-1.552-1.694-2.05-2.712-2.338-4.78-.382-11.043 2.203-15.297.409-.672.982-1.228 1.473-1.843l-.005.624z" style="opacity:1;fill:#000;fill-opacity:1;stroke:#000;stroke-width:.0732;stroke-linecap:square;stroke-linejoin:miter;stroke-miterlimit:4;stroke-dasharray:none;stroke-opacity:1" transform="translate(202.993 -3.54)"/><path d="M626.896 210.373c2.987.621 5.64 1.968 8.153 3.631 3.63 2.473 6.68 6.488 7.283 10.95.33 2.678-1.2 5.164-2.88 7.106-2.833 2.797-6.78 4.82-10.844 4.482-4.08-.514-8.02-3.143-9.449-7.095-.858-2.362-.822-4.972-.44-7.413.53-3.378 2.097-6.547 4.006-9.371.858-1.17 1.858-2.252 3.012-3.136M85.524 235.189a7.321 7.321 0 0 1 2.73-.69c1.253-.045 2.458.483 3.204 1.028 1.899 1.387 2.956 3.285 2.962 5.63.007 2.774-1.576 5.925-3.301 6.57-1.148.43-2.58.761-3.834.749-.486-.004-.987-.035-1.456-.15-1.39-.343-2.706-1.054-3.57-1.952-1.857-1.93-2.264-5.666-.811-7.978" style="opacity:1;fill:#e5f6ff;fill-opacity:1;stroke:#000;stroke-width:.763651;stroke-linecap:square;stroke-linejoin:miter;stroke-miterlimit:4;stroke-dasharray:none;stroke-opacity:1" transform="translate(202.993 -3.54)"/><path d="M973.011 235.95c-2.313.307-4.525 1.033-5.466 3.39-.175.44-.183.928-.274 1.393.045.397.002.814.135 1.191.651 1.857 2.993 2.487 4.733 2.488.513 0 1.02-.124 1.529-.186.419-.2.891-.313 1.257-.599.207-.161.297-.438.385-.684.17-.477.364-.964.386-1.47.05-1.147-.424-2.424-.981-3.393-.292-.508-.696-.943-1.044-1.414-1.404-1.253-.7-.734-2.072-1.607l.525-.466c1.39.92.676.377 2.104 1.677.915 1.245 1.373 1.649 1.829 3.176.284.954.495 2.402-.068 3.349-.806 1.355-1.479 1.45-2.733 1.985-.521.051-1.04.164-1.564.154-1.853-.037-4.214-.752-4.912-2.697-.141-.396-.103-.835-.154-1.252.085-.488.084-.999.255-1.463.827-2.241 3.303-3.525 5.51-3.98.363-.075.735-.086 1.101-.129l-.48.536z" style="opacity:1;fill:#000;fill-opacity:1;stroke:none;stroke-width:.214216;stroke-linecap:square;stroke-linejoin:miter;stroke-miterlimit:4;stroke-dasharray:none;stroke-opacity:1" transform="translate(202.993 -3.54)"/><path d="M594.968 228.444c1.126 1.14 2.203 2.389 2.762 3.915.529 1.238.728 2.672.245 3.957-.229.596-.854 1.3-1.532 1.495-1.233.53-2.248.626-3.574.493-1.295-.13-2.598-.615-3.548-1.521a3.106 3.106 0 0 1-.977-2.287c-.025-1.48.52-2.995 1.63-4.001 1.316-1.273 3.16-1.722 4.907-2.034l.087-.017M-109.075 198.036c-8.778 2.932-18.624.518-24.493-5.996-8.605-8.838-7.123-25.652 2.947-32.623 3.305-2.288 7.969-3.943 11.955-2.598 1.14.446.301 1.357-.449.836-5.906-4.556-5.057-13.805-3.083-20.272 5.382-17.63 24.658-33.783 44.798-33.205 12.695.364 26.912 4.912 34.002 16.094.809 1.275.962 3.153-.095 4.441-.801 1.013-1.575.304-.826-.642 3.692-4.704 8.814-7.91 14.282-10.097 10.732-4.292 24.467-2.66 33.665 5.071 8.942 7.516 14.07 18.335 13.865 29.347-.079 4.217-1.665 9.466-5.764 11.516-1.06.528-1.386-.621-.36-.799 12.325-1.934 21.607 11.47 19.838 23.15-2.771 18.292-18.865 31.565-35.936 31.018-2.227-.072-9.307-.979-8.061-4.252.566-.334 1.142-.182 1.62.093 2.378 1.37.952 4.56-.11 5.596-1.492 1.455-3.731 2.393-5.229 3.012-9.795 4.047-22.024 5.182-34.376 5.36-18.931.272-39.002-3.744-54.362-15.523-4.415-3.386-8.736-8.15-11.6-13.302" style="opacity:1;fill:#e5f6ff;fill-opacity:1;stroke:#000;stroke-width:.763651;stroke-linecap:square;stroke-linejoin:miter;stroke-miterlimit:4;stroke-dasharray:none;stroke-opacity:1" transform="translate(202.993 -3.54)"/><g style="fill:#000;fill-opacity:1"><use xlink:href="#o" width="100%" height="100%" x="314.324" y="156.682" style="fill:#000" transform="matrix(2.67148 0 0 2.67148 43.622 -250.462)"/></g><g style="fill:#000;fill-opacity:1"><use xlink:href="#p" width="100%" height="100%" x="320.961" y="156.682" style="fill:#000" transform="matrix(2.67148 0 0 2.67148 43.622 -250.462)"/></g><g style="fill:#000;fill-opacity:1"><use xlink:href="#q" width="100%" height="100%" x="332.41" y="156.682" style="fill:#000" transform="matrix(2.67148 0 0 2.67148 43.622 -250.462)"/></g><g style="fill:#000;fill-opacity:1"><use xlink:href="#r" width="100%" height="100%" x="336.634" y="152.568" style="fill:#000" transform="matrix(2.67148 0 0 2.67148 44.377 -250.462)"/></g><g style="fill:#000;fill-opacity:1"><use xlink:href="#s" width="100%" height="100%" x="339.16" y="156.682" style="fill:#000" transform="matrix(2.67148 0 0 2.67148 42.603 -250.462)"/></g><g style="fill:#000;fill-opacity:1"><use xlink:href="#t" width="100%" height="100%" x="343.025" y="156.682" style="fill:#000" transform="matrix(2.67148 0 0 2.67148 42.603 -250.462)"/></g><g style="fill:#000;fill-opacity:1"><use xlink:href="#u" width="100%" height="100%" x="347.478" y="156.682" style="fill:#000" transform="matrix(2.67148 0 0 2.67148 42.603 -250.462)"/></g><path d="M44.572 214.304c3.305.211 6.75 1.205 8.975 2.423 3.239 1.509 6.106 3.806 8.17 6.734 2.29 3.225 1.73 8.067-1.11 10.79-2.287 2.489-4.958 4.31-8.29 4.964-2.807.71-6.292.718-8.868-.747-2.568-1.592-3.64-4.727-3.703-7.62-.141-3.141.742-6.264 2.432-8.962a18.491 18.491 0 0 1 4.708-5.048" style="opacity:1;fill:#e5f6ff;fill-opacity:1;stroke:#000;stroke-width:.763651;stroke-linecap:square;stroke-linejoin:miter;stroke-miterlimit:4;stroke-dasharray:none;stroke-opacity:1" transform="translate(202.993 -3.54)"/><g style="fill:#000"><g style="fill:#000;fill-opacity:1" transform="matrix(2.67148 0 0 2.67148 -587.462 -242.516)"><use xlink:href="#o" width="100%" height="100%" x="259.904" y="156.682" style="fill:#000"/></g><g style="fill:#000;fill-opacity:1" transform="matrix(2.67148 0 0 2.67148 -587.462 -242.516)"><use xlink:href="#p" width="100%" height="100%" x="266.541" y="156.682" style="fill:#000"/></g><g style="fill:#000;fill-opacity:1" transform="matrix(2.67148 0 0 2.67148 -587.462 -242.516)"><use xlink:href="#q" width="100%" height="100%" x="277.991" y="156.682" style="fill:#000"/></g><g style="fill:#000;fill-opacity:1" transform="matrix(2.67148 0 0 2.67148 -587.462 -242.516)"><use xlink:href="#s" width="100%" height="100%" x="282.215" y="156.682" style="fill:#000"/></g><g style="fill:#000;fill-opacity:1" transform="matrix(2.67148 0 0 2.67148 -587.462 -242.516)"><use xlink:href="#t" width="100%" height="100%" x="286.08" y="156.682" style="fill:#000"/></g><g style="fill:#000;fill-opacity:1" transform="matrix(2.67148 0 0 2.67148 -587.462 -242.516)"><use xlink:href="#u" width="100%" height="100%" x="290.533" y="156.682" style="fill:#000"/></g></g></g><g style="display:inline"><path d="M478.441-6.06c-1.715.004-3.43.037-5.146.1-7.587.615-10.443.59-17.823 2.171-10.466 2.242-20.43 6.43-29.822 11.487-7.019 4.3-14 8.8-19.756 14.758l7.619 6.53c4.834-5.457 11.033-9.411 17.128-13.294 8.457-4.87 17.592-8.642 27.16-10.679 6.543-1.393 9.5-1.43 16.243-2.013 12.91-.506 25.825.752 38.441 3.512 8.99 1.968 12.119 3.117 20.868 5.792 3.815 1.345 7.24 2.501 10.703 3.828l-4.813 11.202 24.954-6.511L552.48-3.479l-4.91 11.431c-3.805-1.376-7.525-2.587-11.688-3.991-8.74-2.63-12.8-4.02-21.762-6.032-11.724-2.631-23.675-4.016-35.679-3.989ZM682.126 56.542l4.96 11.81c-4.497 1.947-7.695 3.329-13.52 5.384-13.695 4.833-27.807 8.515-42.135 10.886-8.659 1.278-11.941 1.923-20.699 2.572-12.597.933-25.258.297-37.607-2.468-2.401-.613-4.825-1.144-7.203-1.84-8.715-2.551-17.068-6.258-24.926-10.788l-4.716 8.71c8.625 4.304 17.462 8.213 26.758 10.844 2.597.735 5.242 1.293 7.863 1.94 13.238 2.722 26.776 3.392 40.237 2.378 8.5-.64 13.157-1.46 21.557-2.673 14.806-2.523 29.365-6.384 43.564-11.264 5.315-1.826 9.536-3.491 14.313-5.377l4.538 10.806 12.642-22.476z" style="opacity:1;fill:#ffd42a;fill-opacity:1;stroke:#000;stroke-width:1.22185;stroke-linecap:square;stroke-linejoin:miter;stroke-miterlimit:4;stroke-dasharray:none;stroke-opacity:1" transform="translate(-27.008 17.391)"/></g></svg>