<svg xmlns="http://www.w3.org/2000/svg" width="900" height="700"><defs><clipPath id="b"><path d="M0 0h218.076v602.916H0Z"/></clipPath><clipPath id="a"><path d="M0 0h218.076v602.916H0Z"/></clipPath></defs><g style="display:inline"><path d="M72.115 382.815c-4.596-2.344-7.621-6.942-9.832-11.453-4.17-8.51-4.541-18.583-2.45-27.715 2.46-10.746 8.653-21.072 20.571-24.768 5.15-1.597 10.213-1.754 15.03.618 5.8 2.855 10.67 6.84 14.073 12.133 2.897 4.51 5.427 9.608 6.238 14.908 1.47 9.607.177 18.997-4.233 26.785-3.591 6.341-8.868 11.448-16.26 12.996-5.817 1.218-12.09.573-17.207-2.257-.76-.42-1.458-.953-2.107-1.532M18.849 359.487c-1.532-.776-3.602-3.312-4.365-4.494-1.114-1.726-1.515-3.77-1.723-5.716-.275-2.558.232-5.458 1.133-7.574.595-1.397 1.506-2.788 2.547-4.072.565-.697.805-.922 1.482-1.557 1.111-1.044 2.527-1.94 4.304-2.39.307-.078.624-.14.941-.188 1.297-.195 2.647-.163 3.857.196.848.252 1.309.505 2.045.897 2.204 1.176 3.691 2.807 4.714 4.595.255.445.466.9.68 1.357 1.137 2.437 1.676 5.024 1.793 7.607.025.509.005 1.02.008 1.53-.087 1.884-.457 3.77-1.276 5.593-.467 1.038-.658 1.262-1.286 2.241-1.029 1.444-2.403 2.8-4.414 3.675-.316.138-.658.245-.988.367-1.879.555-3.536.543-5.438.22-1.324-.26-3.53-1.182-3.656-1.243-.386-.186-1.006-.597-1.189-.786M202.162 538.033c-1.905 4.967-10.13-.105-13.644-2.303-11.843-7.406-21.982-20.554-27.368-33.754-8.527-20.896-7.688-44.304-.223-65.59 2.617-7.46 9.745-18.688 17.83-24.688 3.844-2.853 12.259-6.196 12.346-3.214-4.72 3.89-17.901 1.53-25.831-4.873-13.726-11.082-19.738-27.946-21.341-44.15-1.796-18.158-.117-38.747 6.13-56.061 5.528-15.316 15.098-29.718 27.371-37.786 6.191-4.07 16.299-7.652 16.355-3.862.034 2.308-5.657-.345-10.598-3.733-12.924-8.861-18.947-21.222-21.68-34.374-3.011-16.316-.838-34.252 7.487-49.19 6.157-11.05 17.12-22.163 30.55-27.521 1.197-.478 8.523-2.206 8.14-.543-.776 3.37-10.82-3.303-13.984-6.75-8.098-8.825-9.917-18.911-8.567-29.907 1.318-10.732 9.41-27.643 18.834-37.09 13.487-13.518 29.023-20.424 48.919-21.034 9.825-.301 24.73 2.303 33.594 8.17 7.878 5.215 11.537 11.084 8.251 10.157-3.641-1.026-1.152-7.702.273-10.55 1.907-3.812 10.777-12.907 22.493-16.596 14.728-4.639 33.792-4.94 48.54-.832 11.898 3.315 23.17 10.381 29.372 17.773 1.447 1.727 3.613 6.234.852 6.108-3.052.515-2.364-4.05.45-9.008 5.605-9.875 17.57-19.452 29.213-24.529 23.558-10.27 48.953-12.825 73.787-10.66 20.2 1.76 42.04 9.7 53.72 22.244 6.907 7.418 12.483 19.93 7.407 20.863-2.558-1.179 1.174-8.508 6.368-14.027 11.356-12.068 29.782-20.533 46.07-24.409 25.785-6.134 52.559-1.351 74.764 10.516 7.784 4.16 18.694 13.997 23.45 24.05 2.262 4.78 3.928 14.767 1.005 13.934-1.704-1.936 2.709-7.284 5.819-9.608 10.44-7.799 24.135-9.363 36.775-8.89 15.024.562 29.862 5.425 42.151 14.345 15.153 10.998 26.332 28.864 26.25 48.695-.034 8.577-4.55 17.761-10.431 21.398-2.396 1.482-6.019 2.279-6.226.03-.382-4.143 9.3.11 14.395 4.924 7.02 6.632 12.567 15.323 15.585 23.137 6.563 16.995 8.59 36.826 8.104 55.132-.536 20.176-7.574 41.615-23.205 54.658-4.21 3.512-10.39 7.332-15.454 4.64-.25-5.818 15.392 3.411 22.098 9.599 14.372 13.259 21.643 31.99 24.318 50.966 3.416 24.236.786 49.006-13.475 68.658-4.54 6.256-10.192 12.004-18.2 14.394-5.032 1.503-7.818.53-7.88-.47-.103-1.661 4.75.429 9.326 3.28 13.506 8.413 22.682 24.048 26.495 38.806 4.88 18.89 4.071 39.671-4.408 57.795-4.754 10.162-12.155 18.332-19.48 23.607-5.526 3.98-11.875 7.112-18.832 8.183-1.64.253-4.398.239-4.003-1.57.776-3.554 10.852 3.92 14.79 7.986 7.793 8.048 11.088 20.037 7.923 30.998-4.81 16.666-19.525 27.684-34.255 35.06-18.079 9.054-38.204 14.072-58.324 15.264-17.272 1.023-35.356 1.133-51.668-5.255-5.013-1.963-10.339-5.479-13.669-9.962-1.436-1.933-2.974-7.077-1.025-8.201 5.15-.36-2.99 12.146-9.27 18.502-13.455 13.623-30.638 20.472-49.418 22.575-23.988 2.685-49.82-.248-68.818-14.626-6.047-4.576-11.564-10.221-13.708-18.067-1.347-4.93-.314-6.522.63-6.662 6.198-.282-6.238 13.248-16.911 19.074-23.423 12.787-49.581 16.928-79.274 13.934-19.397-1.955-34.689-7.305-46.834-14.78-7.766-4.779-16.671-12.593-16.5-22.67 4.592.36 4.057 5.584 4.065 8.237.018 6.467-4.23 12.024-10.012 16.65-18.045 14.44-52.438 9.204-74.046-2.442-10.927-5.89-24.21-19.126-19.386-20.976 3.474 3.279.366 9.224-2.341 12.105-7.97 8.482-20.57 9.246-31.309 7.361-22.993-4.036-44.519-18.76-55.484-40.372-6.312-12.44-6.514-27.785-.928-40.56 4.491-10.272 12.775-19.5 23.432-22.511.822-.233 2.204-.07 2.283.848" style="display:inline;fill:#fff9f3;fill-opacity:1;stroke:#000;stroke-width:.899998;stroke-linecap:butt;stroke-linejoin:miter;stroke-miterlimit:6;stroke-dasharray:none;stroke-dashoffset:0;stroke-opacity:1"/><path d="M-498.183 637.82c2.756 2.338.425 6.797-1.605 8.958-5.977 6.361-15.428 6.934-23.481 5.52-17.246-3.026-33.39-14.069-41.614-30.278-4.734-9.33-4.885-20.84-.696-30.42 3.368-7.704 9.582-14.626 17.574-16.884.617-.174 1.653-.052 1.712.636-1.428 3.726-7.597-.079-10.232-1.727-8.882-5.554-16.487-15.416-20.527-25.316-6.395-15.672-5.766-33.228-.167-49.192 1.963-5.596 7.309-14.016 13.372-18.516 2.884-2.14 9.195-4.647 9.26-2.411-3.54 2.917-13.426 1.147-19.373-3.655-10.295-8.311-14.804-20.959-16.006-33.113-1.347-13.618-.088-29.06 4.598-42.045 4.145-11.487 11.324-22.289 20.528-28.34 4.643-3.052 12.224-5.74 12.266-2.896.026 1.73-4.243-.26-7.949-2.8-9.692-6.646-14.21-15.917-16.26-25.78-2.258-12.237-.628-25.69 5.616-36.893 4.618-8.287 12.84-16.622 22.912-20.641.898-.358 6.393-1.654 6.106-.407-.582 2.528-8.116-2.478-10.489-5.063-6.073-6.618-7.437-14.183-6.425-22.43.989-8.05 7.058-20.732 14.126-27.817 10.115-10.139 21.767-15.319 36.69-15.776 7.368-.226 18.056 2.29 22.945 5.94 4.934 3.684 7.143 8.533 4.622 7.805" style="display:inline;fill:#fff9f3;fill-opacity:1;stroke:#000;stroke-width:.675;stroke-linecap:butt;stroke-linejoin:miter;stroke-miterlimit:6;stroke-dasharray:none;stroke-dashoffset:0;stroke-opacity:1"/><path d="M-435.941 630.968c2.892.164 2.626 3.445 2.667 5.107.099 4.05-2.497 7.59-6.07 10.565-11.152 9.289-32.746 11.17-46.49 4.165-6.95-3.543-15.48-11.657-12.349-12.984" style="display:inline;fill:#fff9f3;fill-opacity:1;stroke:#000;stroke-width:.675;stroke-linecap:butt;stroke-linejoin:miter;stroke-miterlimit:6;stroke-dasharray:none;stroke-dashoffset:0;stroke-opacity:1"/><path d="M-334.549 637c4.1.743-5.893 8.385-11.306 11.481-14.555 8.326-32.177 8.907-48.463 6.794-10.782-1.604-21.564-4.656-30.943-10.326-4.837-3.068-10.652-7.665-10.68-13.98M-1134.75 223.948c-1.633-1.121 1.677-5.133 4.01-6.875 7.83-5.85 18.1-7.022 27.58-6.668 11.269.422 22.398 4.069 31.614 10.759 11.364 8.249 19.749 21.648 19.688 36.522-.026 6.432-3.413 13.32-7.824 16.048-1.797 1.111-4.514 1.709-4.67.022-.286-3.107 6.976.083 10.797 3.693 5.265 4.974 9.425 11.493 11.689 17.353 4.922 12.747 6.442 27.62 6.078 41.35-.402 15.132-5.68 31.21-17.404 40.993-3.157 2.634-7.793 5.499-11.59 3.48-.189-4.364 11.543 2.558 16.573 7.199 10.78 9.944 16.232 23.993 18.238 38.225 2.563 18.177.59 36.755-10.106 51.494-3.404 4.691-7.644 9.002-13.65 10.795-3.774 1.127-5.864.397-5.91-.352-.077-1.246 3.563.321 6.995 2.46 10.129 6.309 17.011 18.036 19.87 29.104 3.66 14.167 3.055 29.754-3.305 43.347-3.566 7.62-9.116 13.749-14.61 17.705-4.145 2.984-8.906 5.334-14.124 6.137-1.23.19-3.298.18-3.002-1.177.582-2.666 8.138 2.94 11.092 5.99 5.845 6.035 8.316 15.027 5.943 23.248-3.608 12.499-14.645 20.763-25.692 26.295-13.559 6.79-28.653 10.553-43.743 11.447-12.954.768-26.517.85-38.751-3.94-5.057-1.981-11.543-5.528-11.42-11.751.036-1.764 1.293-3.545 2.687-3.508M-410.968 221.398c-1.59.545-3.114-2.689-1.688-6.2 2.842-6.992 10.083-13.597 17.528-17.192 15.066-7.273 34.609-9.26 51.789-7.727 13.975 1.247 28.929 6.34 38.066 15.753 5.282 5.442 10.04 16.769 5.51 21.13-.327.316-.842 1.129-1.84.444" style="display:inline;fill:#fff9f3;fill-opacity:1;stroke:#000;stroke-width:.675;stroke-linecap:butt;stroke-linejoin:miter;stroke-miterlimit:6;stroke-dasharray:none;stroke-dashoffset:0;stroke-opacity:1"/><path d="M-480.68 224.28c-2.555-.738-.847-5.777.127-7.913 1.302-2.86 7.361-9.68 15.364-12.448 10.06-3.478 23.083-3.705 33.158-.623 8.127 2.486 15.827 7.785 20.063 13.33.989 1.294 2.468 4.675 1 4.772M23.473-339.423c-3.54 2.917-13.426 1.147-19.374-3.655-10.294-8.311-14.803-20.959-16.005-33.112-1.347-13.618-.088-29.06 4.598-42.046 4.145-11.487 11.323-22.289 20.528-28.34 4.643-3.052 12.224-5.739 12.266-2.896.026 1.731-4.243-.26-7.949-2.8-9.692-6.646-14.21-15.916-16.26-25.78-2.258-12.237-.628-25.69 5.616-36.893 4.618-8.287 12.84-16.622 22.912-20.641.898-.358 6.392-1.654 6.105-.407-.582 2.528-8.115-2.478-10.488-5.063-6.073-6.618-7.437-14.183-6.425-22.43.989-8.05 7.057-20.732 14.126-27.817 10.115-10.139 21.767-15.318 36.689-15.776 7.369-.226 18.548 1.727 25.195 6.127 5.91 3.912 8.644 8.346 6.123 7.619" style="display:inline;fill:#fff9f3;fill-opacity:1;stroke:#000;stroke-width:.675;stroke-linecap:butt;stroke-linejoin:miter;stroke-miterlimit:6;stroke-dasharray:none;stroke-dashoffset:0;stroke-opacity:1"/><path d="M31.767-242.26c-1.429 3.725-7.597-.08-10.233-1.728-8.882-5.554-16.486-15.416-20.526-25.316-6.395-15.672-5.766-33.228-.167-49.192 1.963-5.596 7.308-14.016 13.372-18.516 2.883-2.14 9.194-4.647 9.26-2.411" style="display:inline;fill:#fff9f3;fill-opacity:1;stroke:#000;stroke-width:.675;stroke-linecap:butt;stroke-linejoin:miter;stroke-miterlimit:6;stroke-dasharray:none;stroke-dashoffset:0;stroke-opacity:1"/><path d="M79.877-179.792c2.756 2.337.425 6.796-1.605 8.957-5.977 6.361-15.428 6.934-23.482 5.52-17.245-3.026-33.39-14.069-41.613-30.278-4.734-9.33-4.886-20.84-.696-30.42 3.368-7.704 9.582-14.625 17.574-16.884.617-.174 1.653-.052 1.712.636" style="display:inline;fill:none;fill-opacity:1;stroke:#000;stroke-width:.675;stroke-linecap:butt;stroke-linejoin:miter;stroke-miterlimit:6;stroke-dasharray:none;stroke-dashoffset:0;stroke-opacity:1"/><path d="M154.562-181.016c3.444.27 3.043 4.189 3.049 6.178.013 4.85-3.173 9.018-7.509 12.488-13.534 10.83-39.329 6.903-55.535-1.832-8.195-4.417-18.158-14.345-14.39-15.853" style="display:inline;fill:none;fill-opacity:1;stroke:#000;stroke-width:.675;stroke-linecap:butt;stroke-linejoin:miter;stroke-miterlimit:6;stroke-dasharray:none;stroke-dashoffset:0;stroke-opacity:1"/><path d="M274.168-177.764c4.682-.132-4.645 10.016-12.65 14.385-17.567 9.59-37.186 12.696-59.455 10.451-14.548-1.466-26.017-5.479-35.126-11.085-5.825-3.584-12.503-9.445-12.375-17.003M489.988-325.969c-.078-1.246 3.562.321 6.994 2.46 10.13 6.31 17.012 18.036 19.871 29.104 3.66 14.167 3.054 29.754-3.306 43.347-3.565 7.62-9.116 13.749-14.61 17.705-4.144 2.984-8.906 5.334-14.124 6.137-1.23.19-3.298.18-3.002-1.177.582-2.666 8.139 2.94 11.092 5.99 5.845 6.035 8.316 15.027 5.943 23.248-3.608 12.5-14.644 20.763-25.692 26.295-13.558 6.79-28.653 10.554-43.743 11.448-12.953.767-26.517.85-38.75-3.942-3.76-1.472-7.755-4.108-10.252-7.47-1.078-1.45-2.23-5.309-.793-6.155" style="display:inline;fill:none;fill-opacity:1;stroke:#000;stroke-width:.675;stroke-linecap:butt;stroke-linejoin:miter;stroke-miterlimit:6;stroke-dasharray:none;stroke-dashoffset:0;stroke-opacity:1"/><path d="M484.842-433.33c-.188-4.363 11.544 2.559 16.574 7.2 10.779 9.943 16.232 23.992 18.238 38.224 2.562 18.177.59 36.755-10.106 51.494-3.405 4.691-7.645 9.003-13.65 10.795-3.774 1.127-5.864.397-5.91-.352" style="display:inline;fill:#fff9f3;fill-opacity:1;stroke:#000;stroke-width:.675;stroke-linecap:butt;stroke-linejoin:miter;stroke-miterlimit:6;stroke-dasharray:none;stroke-dashoffset:0;stroke-opacity:1"/><path d="M485.273-540.199c-.286-3.106 6.975.083 10.797 3.694 5.264 4.974 9.425 11.492 11.688 17.353 4.923 12.746 6.443 27.62 6.078 41.349-.401 15.132-5.68 31.21-17.404 40.993-3.157 2.634-7.792 5.5-11.59 3.48" style="display:inline;fill:none;fill-opacity:1;stroke:#000;stroke-width:.675;stroke-linecap:butt;stroke-linejoin:miter;stroke-miterlimit:6;stroke-dasharray:none;stroke-dashoffset:0;stroke-opacity:1"/><path d="M414.874-590.007c-1.633-1.121 1.677-5.132 4.01-6.875 7.83-5.849 18.1-7.022 27.581-6.668 11.268.422 22.397 4.069 31.614 10.76 11.364 8.248 19.748 21.647 19.688 36.52-.027 6.433-3.413 13.321-7.825 16.05-1.796 1.11-4.513 1.708-4.669.021" style="display:inline;fill:none;fill-opacity:1;stroke:#000;stroke-width:.675;stroke-linecap:butt;stroke-linejoin:miter;stroke-miterlimit:6;stroke-dasharray:none;stroke-dashoffset:0;stroke-opacity:1"/><path d="M175.853-596.597c-1.83.577-3.002-2.848-.891-6.566 4.204-7.406 13.178-14.401 21.91-18.208 17.669-7.704 39.434-9.807 58.059-8.184 15.15 1.32 31.53 7.276 40.29 16.684 5.18 5.563 9.362 14.947 5.4 15.63" style="display:inline;fill:#fff9f3;fill-opacity:1;stroke:#000;stroke-width:.675;stroke-linecap:butt;stroke-linejoin:miter;stroke-miterlimit:6;stroke-dasharray:none;stroke-dashoffset:0;stroke-opacity:1"/><path d="M101.262-593.333c-2.806-.738-.93-5.777.138-7.913 1.43-2.86 8.083-9.68 16.87-12.447 11.046-3.48 25.344-3.706 36.406-.624 8.923 2.486 17.377 7.786 22.028 13.33 1.086 1.294 2.71 4.675 1.098 4.772" style="display:inline;fill:#fff9f3;fill-opacity:1;stroke:#000;stroke-width:.675;stroke-linecap:butt;stroke-linejoin:miter;stroke-miterlimit:6;stroke-dasharray:none;stroke-dashoffset:0;stroke-opacity:1"/><path d="M379.664-178.972c3.839-.274-2.267 9.106-6.976 13.873-10.092 10.217-22.98 15.354-37.064 16.931-17.991 2.014-37.366-.186-51.614-10.969-4.535-3.432-8.673-7.666-10.28-13.55-1.011-3.699-.236-4.892.504-4.918M300.932-597.207c-2.074-.901.725-6.398 4.62-10.538 8.518-9.05 22.337-15.4 34.553-18.306 19.34-4.6 39.42-1.014 56.073 7.887 5.838 3.12 14.021 10.498 17.588 18.037 1.696 3.586 2.946 11.076.4 10.783" style="display:inline;fill:none;fill-opacity:1;stroke:#000;stroke-width:.675;stroke-linecap:butt;stroke-linejoin:miter;stroke-miterlimit:6;stroke-dasharray:none;stroke-dashoffset:0;stroke-opacity:1"/></g><path d="M-12.83-12.83h243.736v673.476H-12.83Z" class="polaroid-card-background" style="fill:#fff;stroke:#000;stroke-width:.5;stroke-dasharray:none" transform="matrix(.75 0 0 .75 234.995 111.923)"/><path fill="#fafafa" d="M234.995 111.923h163.557v452.186H234.995Z"/><path d="M12.828 602.916V320.665m0-16.748V0M44.898 602.916V0M76.968 602.916V0M109.038 602.916V0M141.108 602.916V0M173.178 602.916V0M205.248 602.916v-282.26m0-16.739V0M0 590.088h218.076M0 558.018h85.013m21.566 0h111.497M0 525.948h218.076M0 493.878h218.076M0 461.808h218.076M0 429.738h85.013m21.566 0h111.497M0 397.668h218.076M0 365.598h218.076M0 333.528h218.076M0 301.458h218.076M0 269.388h218.076M0 237.318h218.076M0 205.248h218.076M0 173.178h94.68m11.899 0h111.497M0 141.108h218.076M0 109.038h218.076M0 76.968h218.076M0 44.898h94.68m11.899 0h111.497M0 12.828h218.076" class="grid" style="stroke:#9e9ed1;stroke-width:.4" transform="matrix(.75 0 0 .75 234.995 111.923)"/><path d="M0 301.458h218.076M109.038 602.916V0" class="axes" style="stroke:#000;stroke-width:.564" transform="matrix(.75 0 0 .75 234.995 111.923)"/><path d="M0 0h218.076v602.916H0Z" class="grid-over-axes-outline" style="fill:none;stroke:#000;stroke-width:.0525" transform="matrix(.75 0 0 .75 234.995 111.923)"/><g clip-path="url(#a)" transform="matrix(.75 0 0 .75 234.995 111.923)"><path d="m-19.242 654.228 256.56-769.68" class="graph" style="fill:none;stroke:red;stroke-width:1.127"/></g><path d="M621 220H64v66h557zM746 510l-16 4c29 95 92 162 196 162 93 0 156-55 156-137 0-48-26-98-93-138 44-19 62-31 83-53 28-31 44-77 44-129 0-53-17-102-46-140-48-64-143-93-232-93-73 0-112 21-112 57 0 21 18 36 41 36 17 0 33-6 61-26 37-26 58-31 86-31 74 0 130 68 130 153 0 76-35 125-104 145-22 7-45 10-102 10v14c38 13 64 24 84 36 49 28 81 73 81 134 0 68-42 102-108 102-62 0-108-32-149-106z" style="fill:#b0b0d9;fill-opacity:1" transform="matrix(.01057 0 0 -.01057 238.349 349.469)"/><path d="m61 510-16 4c29 95 92 162 196 162 93 0 156-55 156-137 0-48-26-98-93-138 44-19 62-31 83-53 28-31 44-77 44-129 0-53-17-102-46-140-48-64-143-93-232-93C80-14 41 7 41 43c0 21 18 36 41 36 17 0 33-6 61-26 37-26 58-31 86-31 74 0 130 68 130 153 0 76-35 125-104 145-22 7-45 10-102 10v14c38 13 64 24 84 36 49 28 81 73 81 134 0 68-42 102-108 102-62 0-108-32-149-106z" style="fill:#b0b0d9;fill-opacity:1" transform="matrix(.01056 0 0 -.01056 386.287 349.463)"/><path d="M621 220H64v66h557zM1130 155c0-103-77-169-197-169-113 0-192 69-192 163 0 69 23 108 130 183-103 85-124 123-124 188 0 96 83 156 194 156 99 0 168-65 168-143 0-75-35-109-134-162 123-82 155-136 155-216zm-90 378c0 69-41 115-109 115-67 0-110-37-110-99s37-108 125-160c68 40 94 82 94 144zm-84-261-59 40c-59-48-80-89-80-154 0-92 51-144 127-144 65 0 110 45 110 110 0 62-30 102-98 148z" style="fill:#b0b0d9;fill-opacity:1" transform="matrix(.01057 0 0 -.01057 300.574 534.005)"/><path d="M621 220H64v66h557zM1158 167h-103V0h-78v167H697v64l314 445h44V231h103zm-181 64v343L737 231Z" style="fill:#b0b0d9;fill-opacity:1" transform="matrix(.01057 0 0 -.01057 300.574 437.796)"/><path d="M473 167H370V0h-78v167H12v64l314 445h44V231h103Zm-181 64v343L52 231Z" style="fill:#b0b0d9;fill-opacity:1" transform="matrix(.01056 0 0 -.01056 307.823 245.374)"/><path d="M445 155c0-103-77-169-197-169C135-14 56 55 56 149c0 69 23 108 130 183C83 417 62 455 62 520c0 96 83 156 194 156 99 0 168-65 168-143 0-75-35-109-134-162 123-82 155-136 155-216Zm-90 378c0 69-41 115-109 115-67 0-110-37-110-99s37-108 125-160c68 40 94 82 94 144zm-84-261-59 40c-59-48-80-89-80-154 0-92 51-144 127-144 65 0 110 45 110 110 0 62-30 102-98 148z" style="fill:#b0b0d9;fill-opacity:1" transform="matrix(.01056 0 0 -.01056 307.823 149.164)"/><path d="M287.325 579.659c.202 2.512.285 5.032.427 7.544.09 1.035.165 2.07.323 3.09.015.105.037.21.067.315 0 .015.038.038.023.045-.443.135-.893.24-1.343.36l1.388-.45c-.458.233-.9.51-1.373.705-.037.015-.022-.075-.03-.12-.015-.112-.022-.225-.037-.337-.09-1.05-.165-2.1-.24-3.15-.135-2.49-.218-4.995-.555-7.47l1.35-.532z"/><path d="M284.902 579.809c1.223-.33 2.85-.555 4.125-.615.893-.038 2.01 0 2.895.172.368.068.713.218 1.073.323.66.322 1.342.705 1.11 1.59-.233.892-1.193 1.477-1.86 1.994-1.155.758-.878.608-2.52 1.448-.158.075-.33.127-.488.202-.075.03-.262.173-.21.113 1.133-1.163.653-1.043 1.613-1.065 1.792.172 3.855.757 5.025 2.235.21.27.322.592.487.892.03.3.135.608.098.908-.098.735-.578 1.275-1.23 1.612-.87.45-1.785.833-2.73 1.103-1.118.322-3.42.405-4.56.472-1.455-.045-2.265.015-3.638-.3-.307-.075-.645-.135-.892-.337-.143-.113-.263-.24-.323-.413l1.508-.607c.195.42.472.412.832.57 1.35.33 1.89.142 3.338.187 1.897.075 3.195-.09 4.462-.382.195-.03.473-.173.653-.248.532-.202 1.125-.57 1.282-1.17.068-.24-.007-.502-.015-.75-.135-.262-.225-.555-.405-.787-1.11-1.418-3.157-1.898-4.867-1.958-.188 0-.608.173-.57-.015.202-1.057.457-.975.99-1.2 2.002-.937-4.253 1.973.795-.42.615-.45.937-.645 1.47-1.17.157-.15.57-.554.51-.87-.075-.412-.6-.577-.885-.734-.33-.098-.653-.225-.99-.285-2.13-.383-4.545-.008-6.578.66.21-.6.248-.743.495-1.155zM298.56 578.661c.045.278.105.548.135.833.12 1.027.15 1.95.18 3 .06 1.792.06 3.577.06 5.37-.008 1.147-.015 2.287-.008 3.434l-1.297.473c.06-1.155.105-2.31.112-3.465.023-2.7.098-5.595-.307-8.265-.038-.255-.105-.51-.158-.765l1.283-.615z"/><path d="M297.555 579.216c2.715-.187 5.422-.367 8.137-.547.975-.068.548-.038 1.29-.083l-.937 1.05c-.713.008-.3 0-1.238.03-2.715.128-5.452.27-8.152.653l.9-1.103zM298.162 583.086c2.19-.023 4.388-.038 6.578-.083l-.9.983c-2.213-.008-4.433.022-6.645.142l.967-1.042zM298.755 590.128c2.49-.127 4.972-.172 7.462-.225l.818-.022-.93 1.012c-.263 0-.525-.007-.788-.007-2.497 0-4.995.045-7.477.337l.915-1.095zM309.06 580.649c-.368 2.85-.225 5.737-.113 8.602.053 1.057.105 2.122.165 3.18l-1.29.495c-.007-1.073-.03-2.145-.067-3.218-.105-2.872-.21-5.752-.06-8.624l1.365-.435z"/><path d="M307.627 581.046c2.925-.217 5.88-.397 8.82-.21.15.03.3.053.45.075l-1.012.99c-.135-.022-.263-.052-.39-.075-2.918-.27-5.873-.082-8.775.27l.907-1.05zM308.01 585.261c2.617-.06 5.242-.023 7.86-.038l-.915.99c-2.625-.067-5.258-.082-7.875.113l.93-1.065zM320.895 581.406c-.308.188-.503.39-.825.623-.383.435-.855.787-1.223 1.237-.592.697-1.447 2.002-1.725 2.917-.135.45-.112.945-.165 1.41.038.368.128.878.36 1.245.563.908 1.575 1.298 2.58 1.455 1.508.233 2.513.023 3.93-.54.293-.112.728-.375 1.118-.735.435-.427.637-.675.967-1.237.578-.983.818-2.393.473-3.495-.345-1.095-1.328-2.122-2.175-2.827-.413-.33-.885-.578-1.328-.87-.742-.578-2.28-.563-2.437-.578.405-.33.765-.72 1.207-.99.818.015 2.04.66 2.258.795.45.315.93.585 1.342.945.9.765 1.935 1.89 2.303 3.052.375 1.178.157 2.723-.413 3.788-.322.6-.862 1.05-1.297 1.582-.975.75-1.8 1.125-2.775 1.538-2.078.877-5.61.87-6.938-1.32-.255-.413-.352-.848-.405-1.388.045-.517.008-1.05.15-1.545.143-.54.39-1.155.69-1.62 1.688-2.564 2.865-3.524 5.13-4.59zM330.232 579.959c.023 3.36.113 6.72.278 10.08l-1.17.457a247.954 247.954 0 0 0-.39-10.02z"/><path d="M326.932 581.391c.563-.285 1.103-.607 1.68-.855.608-.247 1.56-.27 2.16-.262.923.015 1.853.12 2.753.33.382.09.75.232 1.117.352.248.158.555.255.743.48.157.18.24.428.247.66.015.997-1.222 1.612-1.927 1.995-.728.39-1.47.757-2.213 1.132-1.02.443-1.83.863-2.79 1.208.308-.435.66-.84.99-1.253.083-.03.158-.075.24-.075.54-.015 1.133.345 1.56.615.405.255 1.89 1.305 2.175 1.508 1.815 1.41 3.765 2.647 5.498 4.162l.112.12-1.23.765c-.015-.03-.037-.052-.052-.082-1.583-1.628-3.57-2.805-5.363-4.178-.412-.277-.825-.562-1.252-.832-.54-.353-1.305-.938-2.018-.968-.885.405-.007-.577.225-.937.015-.023.053-.015.075-.03.09-.03.173-.06.263-.098a37.54 37.54 0 0 0 2.325-1.012c.637-.308.84-.398 1.132-.54.248-.158 1.365-.795.915-1.327-.165-.195-.367-.293-.637-.413-.308-.15-.713-.247-1.073-.33-.862-.195-1.8-.292-2.685-.262-1.095.007 0 0-1.537.045z"/><path d="M340.012 580.596c.128 2.932.24 5.872.375 8.805.023.772 0 1.545-.045 2.317l-1.335.45c.105-.757.165-1.522.158-2.295-.075-2.917-.173-5.842-.465-8.752zM339.127 579.471c2.955.113 5.918.158 8.88.158.285-.008.563-.008.848-.008l-.93 1.005c-.27-.007-.548-.015-.818-.037a254.036 254.036 0 0 0-8.947-.083l.967-1.042z"/><path d="M340.395 584.413c2.167-.15 4.335-.285 6.502-.337l-.877.967c-2.183.023-4.365.143-6.533.42l.908-1.05zM339.457 590.466c3.315-.233 6.63-.39 9.953-.225.015 0 .922.06 1.11.157.067.038.097.12.15.18l-1.245.743c-.48-.068-.593-.083-.93-.12-3.315-.24-6.668-.098-9.953.367z"/><path d="M415.03 102.3h182.802v505.106H415.031Z" class="polaroid-card-background" style="fill:#fff;stroke:#000;stroke-width:.374999;stroke-dasharray:none"/><path fill="#fafafa" d="M424.653 111.923H588.21v452.186H424.653Z" style="stroke-width:.749998"/><path d="M434.274 564.109V352.42m0-12.56V111.922M458.326 564.109V111.923M482.379 564.109V111.923M506.431 564.109V111.923M530.484 564.109V111.923M554.536 564.109V111.923M578.589 564.109V352.414m0-12.554V111.923M424.653 554.488H588.21M424.653 530.435h63.76m16.174 0h83.623M424.653 506.383H588.21M424.653 482.33H588.21M424.653 458.278H588.21M424.653 434.226h63.76m16.174 0h83.623M424.653 410.173H588.21M424.653 386.12H588.21M424.653 362.068H588.21M424.653 338.016H588.21M424.653 313.963H588.21M424.653 289.911H588.21M424.653 265.859H588.21M424.653 241.806h71.01m8.924 0h83.623M424.653 217.754H588.21M424.653 193.701H588.21M424.653 169.649H588.21M424.653 145.596h71.01m8.924 0h83.623M424.653 121.544H588.21" class="grid" style="stroke:#9e9ed1;stroke-width:.299999"/><path d="M424.653 338.016H588.21M506.431 564.109V111.923" class="axes" style="stroke:#000;stroke-width:.422999"/><path d="M424.653 111.923H588.21v452.186H424.653Z" class="grid-over-axes-outline" style="fill:none;stroke:#000;stroke-width:.0393748"/><g clip-path="url(#b)" transform="matrix(.75 0 0 .75 424.653 111.923)"><path d="M-19.242 205.248h256.56" class="graph" style="fill:none;stroke:red;stroke-width:1.127"/></g><path d="M621 220H64v66h557zM746 510l-16 4c29 95 92 162 196 162 93 0 156-55 156-137 0-48-26-98-93-138 44-19 62-31 83-53 28-31 44-77 44-129 0-53-17-102-46-140-48-64-143-93-232-93-73 0-112 21-112 57 0 21 18 36 41 36 17 0 33-6 61-26 37-26 58-31 86-31 74 0 130 68 130 153 0 76-35 125-104 145-22 7-45 10-102 10v14c38 13 64 24 84 36 49 28 81 73 81 134 0 68-42 102-108 102-62 0-108-32-149-106z" style="fill:#b0b0d9;fill-opacity:1" transform="matrix(.01057 0 0 -.01057 428.007 349.469)"/><path d="m61 510-16 4c29 95 92 162 196 162 93 0 156-55 156-137 0-48-26-98-93-138 44-19 62-31 83-53 28-31 44-77 44-129 0-53-17-102-46-140-48-64-143-93-232-93C80-14 41 7 41 43c0 21 18 36 41 36 17 0 33-6 61-26 37-26 58-31 86-31 74 0 130 68 130 153 0 76-35 125-104 145-22 7-45 10-102 10v14c38 13 64 24 84 36 49 28 81 73 81 134 0 68-42 102-108 102-62 0-108-32-149-106z" style="fill:#b0b0d9;fill-opacity:1" transform="matrix(.01056 0 0 -.01056 575.945 349.463)"/><path d="M621 220H64v66h557zM1130 155c0-103-77-169-197-169-113 0-192 69-192 163 0 69 23 108 130 183-103 85-124 123-124 188 0 96 83 156 194 156 99 0 168-65 168-143 0-75-35-109-134-162 123-82 155-136 155-216zm-90 378c0 69-41 115-109 115-67 0-110-37-110-99s37-108 125-160c68 40 94 82 94 144zm-84-261-59 40c-59-48-80-89-80-154 0-92 51-144 127-144 65 0 110 45 110 110 0 62-30 102-98 148z" style="fill:#b0b0d9;fill-opacity:1" transform="matrix(.01057 0 0 -.01057 490.232 534.005)"/><path d="M621 220H64v66h557zM1158 167h-103V0h-78v167H697v64l314 445h44V231h103zm-181 64v343L737 231Z" style="fill:#b0b0d9;fill-opacity:1" transform="matrix(.01057 0 0 -.01057 490.232 437.796)"/><path d="M473 167H370V0h-78v167H12v64l314 445h44V231h103Zm-181 64v343L52 231Z" style="fill:#b0b0d9;fill-opacity:1" transform="matrix(.01056 0 0 -.01056 497.481 245.374)"/><path d="M445 155c0-103-77-169-197-169C135-14 56 55 56 149c0 69 23 108 130 183C83 417 62 455 62 520c0 96 83 156 194 156 99 0 168-65 168-143 0-75-35-109-134-162 123-82 155-136 155-216Zm-90 378c0 69-41 115-109 115-67 0-110-37-110-99s37-108 125-160c68 40 94 82 94 144zm-84-261-59 40c-59-48-80-89-80-154 0-92 51-144 127-144 65 0 110 45 110 110 0 62-30 102-98 148z" style="fill:#b0b0d9;fill-opacity:1" transform="matrix(.01056 0 0 -.01056 497.481 149.164)"/><path d="M483.328 579.299c.735.967 1.207 2.1 1.732 3.18.27.555 1.223 2.437 1.478 2.947.832 1.732 1.74 3.45 2.265 5.302l-1.268.57c-.397-1.867-1.305-3.57-2.122-5.272-.263-.51-.518-1.013-.78-1.523-.24-.472-.488-.937-.728-1.41-.532-1.034-1.012-2.122-1.755-3.022l1.178-.772z"/><path d="M478.423 585.561c2.542.262 5.092.45 7.65.345l-.915.99c-2.573.015-5.13-.195-7.703-.315l.968-1.02zM491.323 580.071c-.233 2.498-.465 5.002-.435 7.515 0 .517.037 1.035.06 1.552.112 1.478.045.81.187 2.01l-1.267.503c-.09-1.238-.045-.555-.128-2.063-.082-3.022.075-6.037.263-9.052z"/><path d="M489.11 579.861c3.18-.037 6.368 0 9.555.008.293 0 .585 0 .878.007l-1.02.983-.855-.023c-3.203-.082-6.405-.09-9.6.03l1.042-1.005zM490.925 584.901c2.408 0 4.808.015 7.215.015l-.99.945c-2.415-.03-4.83-.053-7.245.037zM498.545 581.624c3.375-.053 6.765.097 10.148.187 1.845.038 1.012.023 2.49.045l-.81 1.058c-1.433-.09-.623-.038-2.423-.128-3.42-.127-6.84-.217-10.252-.06z"/><path d="M504.958 581.654a344.9 344.9 0 0 0 .15 8.354c.022.698.052 1.403.067 2.108l-1.32.412c.023-.712.03-1.417.015-2.122-.045-2.775-.075-5.55-.232-8.317l1.32-.435zM513.17 580.926c-.367 2.603-.292 5.227-.142 7.837.03.66.037 1.32.022 1.973l-1.32.412a12.27 12.27 0 0 0 .075-1.965c-.12-2.617-.18-5.25.045-7.867l1.32-.39z"/><path d="M512.39 580.334c2.963-.233 5.933-.308 8.903-.39.33 0 .667-.015 1.005-.023l-.863.983c-.322-.008-.652-.008-.975-.008-2.985.03-5.977.128-8.947.488l.877-1.05zM513.125 584.676c2.07.007 4.14 0 6.203-.008l-.893.96c-2.077-.03-4.155-.045-6.225.06l.915-1.012zM512.75 590.346c3.458-.06 6.915.142 10.365.315l-.855.922c-3.45-.262-6.922-.502-10.372-.21l.862-1.027zM526.025 580.296c.15 3.338.255 6.682.368 10.027l-1.215.45c.007-3.337-.083-6.675-.405-9.99l1.252-.487z"/><path d="M524.098 580.161c1.717.105 3.487.008 5.167.45.563.143 1.703.525 2.018 1.178.135.277.03.615.045.922-.203.323-.353.683-.608.968-.54.614-1.492 1.214-2.197 1.604-1.335.743-2.325 1.238-3.72 1.658-.473.105-.81.187-.84-.435 0-.045.03-.09.067-.113.405-.232.84-.42 1.268-.63.127.053.427.173.54.225.525.263 1.035.57 1.552.848.608.307 2.91 1.462 3.405 1.71 2.168 1.02 4.32 2.085 6.503 3.075-.375.315-.743.63-1.118.952l.998-1.027c-.33.322-.66.637-.99.96-.435-.278-.915-.518-1.373-.75a152.595 152.595 0 0 0-4.98-2.43c-4.867-2.355.788.375-3.472-1.665-.233-.113-1.433-.78-1.853-.818-.037-.007-.067.03-.097.038.345-.188.705-.353 1.035-.563.022-.015-.053-.007-.068-.022-.067-.075-.097-.173-.157-.255-.015-.03-.09-.053-.068-.083.023-.037.09-.007.135-.022.12-.023.233-.053.353-.075 2.37-.743-1.748.562 1.5-.548.03-.007.052.038.075.023 1.072-.555 2.107-1.185 2.82-2.182.045-.203.202-.42.127-.608-.232-.592-1.387-.937-1.807-1.042-1.68-.428-3.45-.345-5.16-.315zM483.538 578.939c-1.59 2.752-3.21 5.482-4.808 8.227-.705 1.23-1.477 2.43-1.92 3.78l-1.245.315c.48-1.38 1.29-2.618 2.033-3.878 1.2-2.062 2.437-4.102 3.585-6.194.217-.383.405-.78.615-1.17.157-.278.322-.555.487-.833l1.253-.247z"/><path d="M605.03 102.3h182.802v505.106H605.03Z" class="polaroid-card-background" style="fill:#fff;stroke:#000;stroke-width:.374999;stroke-dasharray:none"/><path d="M621 220H64v66h557zM746 510l-16 4c29 95 92 162 196 162 93 0 156-55 156-137 0-48-26-98-93-138 44-19 62-31 83-53 28-31 44-77 44-129 0-53-17-102-46-140-48-64-143-93-232-93-73 0-112 21-112 57 0 21 18 36 41 36 17 0 33-6 61-26 37-26 58-31 86-31 74 0 130 68 130 153 0 76-35 125-104 145-22 7-45 10-102 10v14c38 13 64 24 84 36 49 28 81 73 81 134 0 68-42 102-108 102-62 0-108-32-149-106z" style="fill:#b0b0d9;fill-opacity:1" transform="matrix(.01057 0 0 -.01057 618.006 349.469)"/><path fill="#fafafa" d="M614.653 111.923h163.556v452.186H614.653Z" style="stroke-width:.749998"/><path d="M624.274 564.109V352.42m0-.009V124.474M648.326 564.109V111.923M672.378 564.109V111.923M696.43 564.109V111.923M720.483 564.109V111.923M744.536 564.109V111.923M768.588 564.109V352.414m0-12.554V111.923M614.653 554.488h163.556M614.653 530.435h63.76m16.173 0h83.623M614.653 506.383h163.556M614.653 482.33h163.556M614.653 458.278h163.556M614.653 434.226h63.76m16.173 0h83.623M614.653 410.173h163.556M614.653 386.12h163.556M614.653 362.068h163.556M614.653 338.016h163.556M614.653 313.963h163.556M614.653 289.911h163.556M614.653 265.859h163.556M614.653 241.806h71.009m8.924 0h83.623M614.653 217.754h163.556M614.653 193.701h163.556M614.653 169.649h163.556M614.653 145.596h71.009m8.924 0h83.623M614.653 121.544h163.556" class="grid" style="stroke:#9e9ed1;stroke-width:.299999"/><path d="M614.653 338.016h163.556M696.43 564.109V111.923" class="axes" style="stroke:#000;stroke-width:.422999"/><path d="M614.653 111.923h163.556v452.186H614.653Z" class="grid-over-axes-outline" style="fill:none;stroke:#000;stroke-width:.0393748"/><g clip-path="url(#b)" transform="matrix(.75 0 0 .75 614.653 111.923)"><path d="M-19.242 301.747h256.56" class="graph" style="fill:none;stroke:red;stroke-width:1.127"/></g><path d="m61 510-16 4c29 95 92 162 196 162 93 0 156-55 156-137 0-48-26-98-93-138 44-19 62-31 83-53 28-31 44-77 44-129 0-53-17-102-46-140-48-64-143-93-232-93C80-14 41 7 41 43c0 21 18 36 41 36 17 0 33-6 61-26 37-26 58-31 86-31 74 0 130 68 130 153 0 76-35 125-104 145-22 7-45 10-102 10v14c38 13 64 24 84 36 49 28 81 73 81 134 0 68-42 102-108 102-62 0-108-32-149-106z" style="fill:#b0b0d9;fill-opacity:1" transform="matrix(.01056 0 0 -.01056 765.945 349.463)"/><path d="M621 220H64v66h557zM1130 155c0-103-77-169-197-169-113 0-192 69-192 163 0 69 23 108 130 183-103 85-124 123-124 188 0 96 83 156 194 156 99 0 168-65 168-143 0-75-35-109-134-162 123-82 155-136 155-216zm-90 378c0 69-41 115-109 115-67 0-110-37-110-99s37-108 125-160c68 40 94 82 94 144zm-84-261-59 40c-59-48-80-89-80-154 0-92 51-144 127-144 65 0 110 45 110 110 0 62-30 102-98 148z" style="fill:#b0b0d9;fill-opacity:1" transform="matrix(.01057 0 0 -.01057 680.232 534.005)"/><path d="M621 220H64v66h557zM1158 167h-103V0h-78v167H697v64l314 445h44V231h103zm-181 64v343L737 231Z" style="fill:#b0b0d9;fill-opacity:1" transform="matrix(.01057 0 0 -.01057 680.232 437.796)"/><path d="M473 167H370V0h-78v167H12v64l314 445h44V231h103Zm-181 64v343L52 231Z" style="fill:#b0b0d9;fill-opacity:1" transform="matrix(.01056 0 0 -.01056 687.48 245.374)"/><path d="M445 155c0-103-77-169-197-169C135-14 56 55 56 149c0 69 23 108 130 183C83 417 62 455 62 520c0 96 83 156 194 156 99 0 168-65 168-143 0-75-35-109-134-162 123-82 155-136 155-216Zm-90 378c0 69-41 115-109 115-67 0-110-37-110-99s37-108 125-160c68 40 94 82 94 144zm-84-261-59 40c-59-48-80-89-80-154 0-92 51-144 127-144 65 0 110 45 110 110 0 62-30 102-98 148z" style="fill:#b0b0d9;fill-opacity:1" transform="matrix(.01056 0 0 -.01056 687.48 149.164)"/><path d="M707.445 579.299c.735.967 1.207 2.1 1.732 3.18.27.555 1.223 2.437 1.478 2.947.832 1.732 1.74 3.45 2.265 5.302l-1.268.57c-.397-1.867-1.305-3.57-2.122-5.272-.263-.51-.518-1.013-.78-1.523-.24-.472-.488-.937-.728-1.41-.532-1.034-1.012-2.122-1.755-3.022l1.178-.772z"/><path d="M702.54 585.561c2.542.262 5.092.45 7.65.345l-.915.99c-2.573.015-5.13-.195-7.703-.315l.968-1.02zM715.44 580.071c-.233 2.498-.465 5.002-.435 7.515 0 .517.037 1.035.06 1.552.112 1.478.045.81.187 2.01l-1.267.503c-.09-1.238-.045-.555-.128-2.063-.082-3.022.075-6.037.263-9.052z"/><path d="M713.227 579.861c3.18-.037 6.368 0 9.555.008.293 0 .585 0 .878.007l-1.02.983-.855-.023c-3.203-.082-6.405-.09-9.6.03l1.042-1.005zM715.042 584.901c2.408 0 4.808.015 7.215.015l-.99.945c-2.415-.03-4.83-.053-7.245.037zM722.662 581.624c3.375-.053 6.765.097 10.148.187 1.845.038 1.012.023 2.49.045l-.81 1.058c-1.433-.09-.623-.038-2.423-.128-3.42-.127-6.84-.217-10.252-.06z"/><path d="M729.075 581.654a344.9 344.9 0 0 0 .15 8.354c.022.698.052 1.403.067 2.108l-1.32.412c.023-.712.03-1.417.015-2.122-.045-2.775-.075-5.55-.232-8.317l1.32-.435zM737.287 580.926c-.367 2.603-.292 5.227-.142 7.837.03.66.037 1.32.022 1.973l-1.32.412a12.27 12.27 0 0 0 .075-1.965c-.12-2.617-.18-5.25.045-7.867l1.32-.39z"/><path d="M736.507 580.334c2.963-.233 5.933-.308 8.903-.39.33 0 .667-.015 1.005-.023l-.863.983c-.322-.008-.652-.008-.975-.008-2.985.03-5.977.128-8.947.488l.877-1.05zM737.242 584.676c2.07.007 4.14 0 6.203-.008l-.893.96c-2.077-.03-4.155-.045-6.225.06l.915-1.012zM736.867 590.346c3.458-.06 6.915.142 10.365.315l-.855.922c-3.45-.262-6.922-.502-10.372-.21l.862-1.027zM750.142 580.296c.15 3.338.255 6.682.368 10.027l-1.215.45c.007-3.337-.083-6.675-.405-9.99l1.252-.487z"/><path d="M748.215 580.161c1.717.105 3.487.008 5.167.45.563.143 1.703.525 2.018 1.178.135.277.03.615.045.922-.203.323-.353.683-.608.968-.54.614-1.492 1.214-2.197 1.604-1.335.743-2.325 1.238-3.72 1.658-.473.105-.81.187-.84-.435 0-.045.03-.09.067-.113.405-.232.84-.42 1.268-.63.127.053.427.173.54.225.525.263 1.035.57 1.552.848.608.307 2.91 1.462 3.405 1.71 2.168 1.02 4.32 2.085 6.503 3.075-.375.315-.743.63-1.118.952l.998-1.027c-.33.322-.66.637-.99.96-.435-.278-.915-.518-1.373-.75a152.595 152.595 0 0 0-4.98-2.43c-4.867-2.355.788.375-3.472-1.665-.233-.113-1.433-.78-1.853-.818-.037-.007-.067.03-.097.038.345-.188.705-.353 1.035-.563.022-.015-.053-.007-.068-.022-.067-.075-.097-.173-.157-.255-.015-.03-.09-.053-.068-.083.023-.037.09-.007.135-.022.12-.023.233-.053.353-.075 2.37-.743-1.748.562 1.5-.548.03-.007.052.038.075.023 1.072-.555 2.107-1.185 2.82-2.182.045-.203.202-.42.127-.608-.232-.592-1.387-.937-1.807-1.042-1.68-.428-3.45-.345-5.16-.315zM707.655 578.939c-1.59 2.752-3.21 5.482-4.808 8.227-.705 1.23-1.477 2.43-1.92 3.78l-1.245.315c.48-1.38 1.29-2.618 2.033-3.878 1.2-2.062 2.437-4.102 3.585-6.194.217-.383.405-.78.615-1.17.157-.278.322-.555.487-.833l1.253-.247z"/><g style="stroke-width:1.0203"><path d="M564.91 360.78c.98 1.29 1.61 2.8 2.31 4.24.36.74 1.63 3.25 1.97 3.93 1.11 2.31 2.32 4.6 3.02 7.07l-1.69.76c-.53-2.49-1.74-4.76-2.83-7.03-.35-.68-.69-1.35-1.04-2.03-.32-.63-.65-1.25-.97-1.88-.71-1.38-1.35-2.83-2.34-4.03l1.57-1.03z" style="stroke-width:1.0203" transform="matrix(.73507 0 -.3246 .73507 344.997 486.76)"/><path d="M558.37 369.13c3.39.35 6.79.6 10.2.46l-1.22 1.32c-3.43.02-6.84-.26-10.27-.42l1.29-1.36zM575.57 361.81c-.31 3.33-.62 6.67-.58 10.02 0 .69.05 1.38.08 2.07.15 1.97.06 1.08.25 2.68l-1.69.67c-.12-1.65-.06-.74-.17-2.75-.11-4.03.1-8.05.35-12.07z" style="stroke-width:1.0203" transform="matrix(.73507 0 -.3246 .73507 344.997 486.76)"/><path d="M572.62 361.53c4.24-.05 8.49 0 12.74.01.39 0 .78 0 1.17.01l-1.36 1.31-1.14-.03c-4.27-.11-8.54-.12-12.8.04l1.39-1.34zM575.04 368.25c3.21 0 6.41.02 9.62.02l-1.32 1.26c-3.22-.04-6.44-.07-9.66.05zM585.2 363.88c4.5-.07 9.02.13 13.53.25 2.46.05 1.35.03 3.32.06l-1.08 1.41c-1.91-.12-.83-.05-3.23-.17-4.56-.17-9.12-.29-13.67-.08z" style="stroke-width:1.0203" transform="matrix(.73507 0 -.3246 .73507 344.997 486.76)"/><path d="M593.75 363.92c.02 3.71.09 7.43.2 11.14.03.93.07 1.87.09 2.81l-1.76.55c.03-.95.04-1.89.02-2.83-.06-3.7-.1-7.4-.31-11.09l1.76-.58zM604.7 362.95c-.49 3.47-.39 6.97-.19 10.45.04.88.05 1.76.03 2.63l-1.76.55c.11-.87.13-1.74.1-2.62-.16-3.49-.24-7 .06-10.49l1.76-.52z" style="stroke-width:1.0203" transform="matrix(.73507 0 -.3246 .73507 344.997 486.76)"/><path d="M603.66 362.16c3.95-.31 7.91-.41 11.87-.52.44 0 .89-.02 1.34-.03l-1.15 1.31c-.43-.01-.87-.01-1.3-.01-3.98.04-7.97.17-11.93.65l1.17-1.4zM604.64 367.95c2.76.01 5.52 0 8.27-.01l-1.19 1.28c-2.77-.04-5.54-.06-8.3.08l1.22-1.35zM604.14 375.51c4.61-.08 9.22.19 13.82.42l-1.14 1.23c-4.6-.35-9.23-.67-13.83-.28l1.15-1.37zM621.84 362.11c.2 4.45.34 8.91.49 13.37l-1.62.6c.01-4.45-.11-8.9-.54-13.32l1.67-.65z" style="stroke-width:1.0203" transform="matrix(.73507 0 -.3246 .73507 344.997 486.76)"/><path d="M619.27 361.93c2.29.14 4.65.01 6.89.6.75.19 2.27.7 2.69 1.57.18.37.04.82.06 1.23-.27.43-.47.91-.81 1.29-.72.82-1.99 1.62-2.93 2.14-1.78.99-3.1 1.65-4.96 2.21-.63.14-1.08.25-1.12-.58 0-.06.04-.12.09-.15.54-.31 1.12-.56 1.69-.84.17.07.57.23.72.3.7.35 1.38.76 2.07 1.13.81.41 3.88 1.95 4.54 2.28 2.89 1.36 5.76 2.78 8.67 4.1-.5.42-.99.84-1.49 1.27l1.33-1.37c-.44.43-.88.85-1.32 1.28-.58-.37-1.22-.69-1.83-1-2.19-1.13-4.41-2.19-6.64-3.24-6.49-3.14 1.05.5-4.63-2.22-.31-.15-1.91-1.04-2.47-1.09-.05-.01-.09.04-.13.05.46-.25.94-.47 1.38-.75.03-.02-.07-.01-.09-.03-.09-.1-.13-.23-.21-.34-.02-.04-.12-.07-.09-.11.03-.05.12-.01.18-.03.16-.03.31-.07.47-.1 3.16-.99-2.33.75 2-.73.04-.01.07.05.1.03 1.43-.74 2.81-1.58 3.76-2.91.06-.27.27-.56.17-.81-.31-.79-1.85-1.25-2.41-1.39-2.24-.57-4.6-.46-6.88-.42zM565.19 360.3c-2.12 3.67-4.28 7.31-6.41 10.97-.94 1.64-1.97 3.24-2.56 5.04l-1.66.42c.64-1.84 1.72-3.49 2.71-5.17 1.6-2.75 3.25-5.47 4.78-8.26.29-.51.54-1.04.82-1.56.21-.37.43-.74.65-1.11l1.67-.33z" style="stroke-width:1.0203" transform="matrix(.73507 0 -.3246 .73507 344.997 486.76)"/></g><path d="M640.27 579.299c.735.967 1.207 2.1 1.732 3.18.27.555 1.223 2.437 1.478 2.947.832 1.732 1.74 3.45 2.265 5.302l-1.268.57c-.397-1.867-1.305-3.57-2.122-5.272-.263-.51-.518-1.013-.78-1.523-.24-.472-.488-.937-.728-1.41-.532-1.034-1.012-2.122-1.755-3.022l1.178-.772z"/><path d="M635.365 585.561c2.542.262 5.092.45 7.65.345l-.915.99c-2.573.015-5.13-.195-7.703-.315l.968-1.02zM648.265 580.071c-.233 2.498-.465 5.002-.435 7.515 0 .517.037 1.035.06 1.552.112 1.478.045.81.187 2.01l-1.267.503c-.09-1.238-.045-.555-.128-2.063-.082-3.022.075-6.037.263-9.052z"/><path d="M646.052 579.861c3.18-.037 6.368 0 9.555.008.293 0 .585 0 .878.007l-1.02.983-.855-.023c-3.203-.082-6.405-.09-9.6.03l1.042-1.005zM647.867 584.901c2.408 0 4.808.015 7.215.015l-.99.945c-2.415-.03-4.83-.053-7.245.037zM655.487 581.624c3.375-.053 6.765.097 10.148.187 1.845.038 1.012.023 2.49.045l-.81 1.058c-1.433-.09-.623-.038-2.423-.128-3.42-.127-6.84-.217-10.252-.06z"/><path d="M661.9 581.654a344.9 344.9 0 0 0 .15 8.354c.022.698.052 1.403.067 2.108l-1.32.412c.023-.712.03-1.417.015-2.122-.045-2.775-.075-5.55-.232-8.317l1.32-.435zM670.112 580.926c-.367 2.603-.292 5.227-.142 7.837.03.66.037 1.32.022 1.973l-1.32.412a12.27 12.27 0 0 0 .075-1.965c-.12-2.617-.18-5.25.045-7.867l1.32-.39z"/><path d="M669.332 580.334c2.963-.233 5.933-.308 8.903-.39.33 0 .667-.015 1.005-.023l-.863.983c-.322-.008-.652-.008-.975-.008-2.985.03-5.977.128-8.947.488l.877-1.05zM670.067 584.676c2.07.007 4.14 0 6.203-.008l-.893.96c-2.077-.03-4.155-.045-6.225.06l.915-1.012zM669.692 590.346c3.458-.06 6.915.142 10.365.315l-.855.922c-3.45-.262-6.922-.502-10.372-.21l.862-1.027zM682.967 580.296c.15 3.338.255 6.682.368 10.027l-1.215.45c.007-3.337-.083-6.675-.405-9.99l1.252-.487z"/><path d="M681.04 580.161c1.717.105 3.487.008 5.167.45.563.143 1.703.525 2.018 1.178.135.277.03.615.045.922-.203.323-.353.683-.608.968-.54.614-1.492 1.214-2.197 1.604-1.335.743-2.325 1.238-3.72 1.658-.473.105-.81.187-.84-.435 0-.045.03-.09.067-.113.405-.232.84-.42 1.268-.63.127.053.427.173.54.225.525.263 1.035.57 1.552.848.608.307 2.91 1.462 3.405 1.71 2.168 1.02 4.32 2.085 6.503 3.075-.375.315-.743.63-1.118.952l.998-1.027c-.33.322-.66.637-.99.96-.435-.278-.915-.518-1.373-.75a152.595 152.595 0 0 0-4.98-2.43c-4.867-2.355.788.375-3.472-1.665-.233-.113-1.433-.78-1.853-.818-.037-.007-.067.03-.097.038.345-.188.705-.353 1.035-.563.022-.015-.053-.007-.068-.022-.067-.075-.097-.173-.157-.255-.015-.03-.09-.053-.068-.083.023-.037.09-.007.135-.022.12-.023.233-.053.353-.075 2.37-.743-1.748.562 1.5-.548.03-.007.052.038.075.023 1.072-.555 2.107-1.185 2.82-2.182.045-.203.202-.42.127-.608-.232-.592-1.387-.937-1.807-1.042-1.68-.428-3.45-.345-5.16-.315zM640.48 578.939c-1.59 2.752-3.21 5.482-4.808 8.227-.705 1.23-1.477 2.43-1.92 3.78l-1.245.315c.48-1.38 1.29-2.618 2.033-3.878 1.2-2.062 2.437-4.102 3.585-6.194.217-.383.405-.78.615-1.17.157-.278.322-.555.487-.833l1.253-.247z"/><path d="M314.436 314.729c-.068-.02-.184-.06-.254-.082-.565-.202-1.146-.35-1.71-.554-1.874-.679-2.945-1.026-4.84-1.645-.206-.067-.416-.123-.625-.184" style="fill:#fafafa;fill-opacity:1;stroke:#fdfdfd;stroke-width:1.4;stroke-linejoin:round;stroke-miterlimit:2;stroke-dasharray:none;stroke-opacity:1"/><path d="M303.78 333.809c-.168.35-.325.709-.459 1.072-.344.933-1.06 2.97-1.122 3.971M305.7 334.467c-.203.27-.721 1.35-.867 1.698a17.882 17.882 0 0 0-.965 3.218" style="fill:#000;fill-opacity:1;stroke:#fdfdfd;stroke-width:1.7;stroke-linecap:square;stroke-linejoin:round;stroke-miterlimit:2;stroke-dasharray:none;stroke-opacity:1"/><path d="M299.925 345.197c.441.515.799.909 1.3 1.172.518.273 1.083.41 1.639.032.472-.32.555-.864.636-1.359.043-.258.023-.523-.005-.783-.08-.764-.5-1.65-1.022-2.227-.064-.071-.23-.055-.156-.038.06.013.16.014.21.017 1.244.055 2.484.187 3.726.281 1.249.094 2.517.17 3.714.575.271.092.542.192.791.333.216.123.423.27.593.451.167.178.304.388.403.61.36.81.238 1.704-.147 2.479-.37.744-.633.991-1.231 1.55a5.674 5.674 0 0 1-1.226.906c-.118.068-.247.113-.37.17" style="display:inline;fill:none;fill-opacity:1;stroke:#000;stroke-width:.449999;stroke-linejoin:round;stroke-miterlimit:2;stroke-dasharray:none"/><path d="M303.78 333.809c-.168.35-.325.709-.459 1.072-.344.933-1.06 2.97-1.122 3.971M305.7 334.467c-.203.27-.721 1.35-.867 1.698a17.882 17.882 0 0 0-.965 3.218" style="fill:#000;fill-opacity:1;stroke:#000;stroke-width:.449999;stroke-linejoin:round;stroke-miterlimit:2;stroke-dasharray:none"/><path d="M302.096 329.981c-.195-.565-.202-1.18-.073-1.763.037-.169.087-.335.15-.496.212-.534.567-1.165 1.244-1.126.43.024.703.217.904.418.137.137.252.299.365.457.372.52.594 1.158.51 1.8-.013.093-.04.184-.064.275-.004.016-.102.24-.189.23-.026-.003-.03-.049-.026-.075a.932.932 0 0 1 .057-.246c.14-.361.258-.545.509-.862.554-.7 1.49-1.672 2.476-1.636.14.005.282.028.41.085.564.25.858.646.945 1.27.024.177.04.357.024.535a3.834 3.834 0 0 1-.14.715c-.076.26-.172.515-.289.76-.367.767-.968 1.494-1.773 1.826" style="fill:none;fill-opacity:1;stroke:#000;stroke-width:.449999;stroke-linejoin:round;stroke-miterlimit:2;stroke-dasharray:none"/><path d="M311.24 323.29c-.11.076-.244.137-.363.196a14.97 14.97 0 0 1-1.446.645c-.317.118-.89.326-1.309.464-.576.19-1.148.378-1.634.418" style="fill:#000;fill-opacity:1;stroke:#000;stroke-width:.449999;stroke-linecap:butt;stroke-linejoin:round;stroke-miterlimit:2;stroke-dasharray:none"/><path d="M311.24 323.478v-.001" style="fill:#000;fill-opacity:1;stroke:#000;stroke-width:.449999;stroke-linejoin:round;stroke-miterlimit:2;stroke-dasharray:none"/><path d="M308.389 321.896c.328.934.794 2.173 1.149 3.098.147.44.324.868.5 1.296" style="fill:#000;fill-opacity:1;stroke:#000;stroke-width:.449999;stroke-linecap:butt;stroke-linejoin:round;stroke-miterlimit:2;stroke-dasharray:none"/><path d="M310.12 320.863c.302-1.032.702-2.033 1.037-3.055.136-.439.078-.243.177-.585" style="fill:#000;fill-opacity:1;stroke:#000;stroke-width:.449999;stroke-linejoin:round;stroke-miterlimit:2;stroke-dasharray:none"/><path d="M312.403 319.53c-1.012-.339-2.439-.832-3.42-1.25M314.436 314.729c-.068-.02-.184-.06-.254-.082-.565-.202-1.146-.35-1.71-.554-1.874-.679-2.945-1.026-4.84-1.645-.206-.067-.416-.123-.625-.184" style="fill:#000;fill-opacity:1;stroke:#000;stroke-width:.449999;stroke-linejoin:round;stroke-miterlimit:2;stroke-dasharray:none"/><path d="M429.279 259.032h-.001" style="fill:#000;fill-opacity:1;stroke:#000;stroke-width:.374999;stroke-linejoin:round;stroke-miterlimit:2;stroke-dasharray:none"/><path d="M428.2 269.839c.72.357 1.434.512 2.357.573.289.02.579.008.867-.012 1.087-.077 2.252-.339 2.952-1.251.142-.185.277-.385.35-.607.231-.71.255-.807.241-1.597-.014-.8-.128-1.2-.305-1.98-.22-.967-.291-1.22-.537-2.178-.049-.177-.39-1.39-.455-1.644-.08-.31-.24-.808-.165-1.139.007-.031.038-.052.057-.078.03.013.067.015.09.038.097.1.101.266.082.391-.099.626-.492 1.15-.875 1.63-.209.196-.401.41-.625.589-.428.34-.92.63-1.449.783-.357.103-.863.167-1.223-.009a.97.97 0 0 1-.37-.34 1.533 1.533 0 0 1-.212-.543c-.046-.232-.042-.472-.038-.708.013-.772.166-1.532.278-2.294" style="fill:none;fill-opacity:1;stroke:#000;stroke-width:.449999;stroke-linejoin:round;stroke-miterlimit:2;stroke-dasharray:none"/><path d="M429.278 270.208" style="fill:#000;fill-opacity:1;stroke:#000;stroke-width:.374999;stroke-linejoin:round;stroke-miterlimit:2;stroke-dasharray:none"/><path d="M441.82 260.058c.182-.048.167-.043.178-.02-.112.029-.244.023-.347.033-.38.017-.492.015-.906.02-1.05-.01-2.1-.026-3.148-.098M442.502 261.81a.484.484 0 0 1 .12-.013c-.056.033-.129.015-.193.02-.413.03-.827.046-1.241.06-1.215.048-2.433.079-3.648.03" style="fill:#000;fill-opacity:1;stroke:#000;stroke-width:.449999;stroke-linejoin:round;stroke-miterlimit:2;stroke-dasharray:none"/><path d="M445.987 257.214a8.026 8.026 0 0 1 2.518-.488c.216-.005.432.01.648.014.436.057 1.22.127 1.398.659.085.254.054.413-.033.655-.05.14-.152.27-.24.388-.523.707-1.408 1.166-2.186 1.503l-.204.071c-.012 0-.047.001-.036-.004.415-.201 1.045-.15 1.462-.048.707.174 1.38.52 1.895 1.072.186.198.375.485.38.78a.603.603 0 0 1-.077.31.92.92 0 0 1-.25.262c-.815.623-2.234.637-3.189.574a4.547 4.547 0 0 1-1.403-.311c-.598-.224-1.095-.637-1.496-1.135a1.398 1.398 0 0 1-.13-.185" style="fill:none;fill-opacity:1;stroke:#000;stroke-width:.449999;stroke-linejoin:round;stroke-miterlimit:2;stroke-dasharray:none"/><path d="M443.937 1.092c.98 1.272 2.387 1.54 3.424 1.447 1.248-.112 2.424-.832 2.218-1.92-.137-.723-.695-1.376-1.353-1.732a2.085 2.085 0 0 0-.506-.198c-.374-.09-.701-.125-1.077-.017-.105.03-.193.078-.158.106.026.02.065.005.098.008.913-.202 1.712-.803 2.306-1.497.248-.29.38-.498.444-.883a.903.903 0 0 0-.534-.982c-.352-.16-.743-.19-1.09-.168-1.152.07-2.268.529-3.089.937" style="fill:none;fill-opacity:1;stroke:#000;stroke-width:.374999;stroke-linejoin:round;stroke-miterlimit:2;stroke-dasharray:none"/><path d="M564.356 249.168c-.008.187-.04.375-.024.562.077.873.46 2.096 1.464 2.271.211.037.429-.027.643-.04.204-.096.424-.162.612-.286.502-.331 1.12-1.07 1.133-1.714-.095.08-.267.116-.286.24-.024.156.117.294.182.438.138.303.288.6.427.903.376.824.675 1.485.964 2.346.12.357.21.724.314 1.085.055.45.226 1.078-.024 1.532-.097.177-.272.308-.449.404-.44.24-.95.259-1.43.171-.265-.048-.512-.164-.768-.246-.804-.474-.458-.209-1.06-.766" style="fill:none;stroke:#000;stroke-width:.3375;stroke-linecap:square;stroke-linejoin:round;stroke-miterlimit:2;stroke-dasharray:none" transform="translate(-134.026 -.242) scale(1.33333)"/><path d="M574.32 249.759a7.358 7.358 0 0 0-.222-.013c-.078-.003-.156 0-.234-.003l-.35-.006c-.84-.005-1.678.011-2.516.047M574.718 251.01c-.057.001-.159.012-.232.01-.135-.008-.225 0-.37-.006-1.107.005-2.215-.026-3.32.056-.053 0-.105.009-.157.01" style="fill:#000;stroke:#000;stroke-width:.3375;stroke-linecap:square;stroke-linejoin:round;stroke-miterlimit:2;stroke-dasharray:none;stroke-opacity:1" transform="translate(-134.026 -.242) scale(1.33333)"/><path d="M580.325 247.145c-.477-.244-1.03-.028-1.47.205-.774.41-1.431 1.124-1.592 2.003-.25 1.218.614 2.532 1.83 2.792.749.187 1.556.038 2.213-.359.535-.287.99-.8 1.036-1.428.118-.859-.082-1.792-.684-2.439-.41-.442-.946-.825-1.558-.898-.1-.005-.204-.01-.301.018" style="fill:none;stroke:#000;stroke-width:.3375;stroke-linecap:square;stroke-linejoin:round;stroke-miterlimit:2;stroke-dasharray:none;stroke-opacity:1" transform="translate(-134.026 -.242) scale(1.33333)"/></svg>