<svg xmlns="http://www.w3.org/2000/svg" xmlns:xlink="http://www.w3.org/1999/xlink" width="700" height="200" aria-hidden="true" viewBox="0 -34.88 700 200"><defs><path id="a" stroke-width="1" d="M164 157q0-24-16-40t-39-16h-7q46-79 122-79 70 0 102 60 19 33 19 128 0 103-27 139-26 33-58 33h-6q-78 0-118-68-4-7-7-8t-15-2q-17 0-19 6-2 4-2 175v129q0 50 5 50 2 2 4 2 1 0 21-8t55-16q35-8 75-8 71 0 136 28 8 4 13 4 8 0 8-18v-13q-82-97-205-97-31 0-56 6l-10 2V374q19 14 30 22t36 16q25 8 51 8 81 0 137-65t56-154q0-92-64-157T229-22q-81 0-130 54T50 154q0 24 11 38t23 18q12 4 23 4 25 0 41-17t16-40z"/><path id="b" stroke-width="1" d="M127 463q-27 0-42 17t-16 44q0 55 48 98t116 43q35 0 44-1 74-12 113-53t40-89q0-52-34-101t-94-71l-3-2q0-1 9-3t29-9q20-7 38-21 82-53 82-140 0-79-62-138T238-22q-80 0-138 43T42 130q0 28 18 45t45 18q28 0 46-18t18-45q0-11-3-20t-7-16q-4-7-11-12t-12-8q-5-3-10-4t-8-3l-4-1q51-45 124-45 55 0 83 53 17 33 17 101v20q0 95-64 127-15 6-61 7l-42 1-3 2q-2 3-2 16 0 18 8 18 28 0 58 5 34 5 62 42t28 112v8q0 57-35 79-22 14-47 14-32 0-59-11t-38-23l-11-12h3q3-1 8-2t10-5q5-4 12-7t10-11q3-8 8-15t3-20q0-22-14-39t-45-18z"/><path id="h" stroke-width="1" d="M269-1249v2999h308v-73H342v-2853h235v-73z"/><path id="i" stroke-width="1" d="M5 1677v73h308v-2999H5v73h235v2853z"/><path id="g" stroke-width="1" d="M758-1237v-3q0-3-6-9h-16q-18 0-19 1-6 3-45 49Q237-706 237 251t435 1449q25 30 44 49 2 1 19 1h17q6-6 6-9 0-4-18-28t-51-69q-33-45-70-107t-79-157q-42-95-77-204-115-374-115-925 0-493 93-850t303-619q14-19 14-22z"/><path id="j" stroke-width="1" d="M33 1741q0 9 18 9h14q8 0 16-7t38-43q435-493 435-1449 0-958-435-1450-43-51-53-51h-4q-3 0-6 1h-3q-2 0-4-1-16 0-16 11 0 3 17 25t48 64q31 42 65 98t75 142q41 86 73 183 132 392 132 978 0 151-7 281t-31 299q-24 169-66 311t-115 296q-73 154-174 278-17 21-17 25z"/><path id="c" stroke-width="1" d="M630 29q0-20-21-20-5 0-22 16t-94 93L389 222 284 117Q178 13 175 11q-4-2-7-2-8 0-14 6t-7 14q0 7 14 22t94 95l104 104-104 104q-81 81-94 95t-14 22q0 9 6 14t15 5q5 0 7-1 3-2 109-106l105-105 104 104q77 77 94 93t22 16q21 0 21-20 0-7-10-18t-98-98L418 250l104-105q84-84 96-97t12-19z"/><path id="d" stroke-width="1" d="m213 578-13-5q-14-5-40-10t-58-7H83v46h19q47 2 87 15t56 24q16 11 28 22 2 3 12 3 9 0 17-6V361l1-300q7-7 12-9t24-4q19-2 62-2h26V0h-11q-21 3-159 3-136 0-157-3H88v46h64q16 0 25 1t16 3q7 2 8 2t6 5q5 5 6 4z"/><path id="e" stroke-width="1" d="M96 585q56 81 153 81 48 0 96-26t78-92q37-83 37-228 0-155-43-237-20-42-55-67t-61-31q-26-6-51-7-26 0-52 6t-61 32q-35 26-55 67-43 82-43 237 0 174 57 265zm225 12q-30 32-71 32-42 0-72-32-25-26-33-72t-8-192q0-158 8-208t36-79q28-30 69-30 40 0 68 30 29 30 36 84t8 203q0 145-8 191t-33 73z"/><path id="f" stroke-width="1" d="M56 347q0 13 14 20h637q15-8 15-20 0-11-14-19l-318-1H72q-16 5-16 20zm0-194q0 15 16 20h636q14-10 14-20 0-13-15-20H70q-14 7-14 20z"/><path id="k" stroke-width="1" d="M78 60q0 24 17 42t43 18q24 0 42-16t19-43q0-25-17-43T139 0q-26 0-43 17T78 60Z"/></defs><path d="M9.954 345.09c-5.324-.1-11.077 4.32-15.114 7.328-3.452 3.11-7.35 6.675-7.873 11.613-.258 2.443.235 2.95 1.085 5.144.525.682.97 1.434 1.575 2.047 2.341 2.37 5.557 3.28 8.79 3.116.147-.024.431.076.442-.073.01-.145-.297-.043-.437-.005-.478.13-.945.304-1.398.504-3.25 1.436-6.037 3.423-8.906 5.494-4.884 4.029-9.59 8.704-11.934 14.731-1.235 3.175-1.023 4.027-1.17 7.278.124 1.008.133 2.036.37 3.023.931 3.875 3.898 7.044 7.182 9.13.816.517 1.718.885 2.576 1.328 2.885.917 7.1 1.806 9.936.2.018-.098.108-.212.053-.295-.191-.286-.922.11-.961.131-1.281.707-2.006 1.963-2.8 3.132-2.327 4.307-3.459 9.404-2.193 14.244.284 1.084.8 2.093 1.2 3.14.61 1.008 1.14 2.07 1.83 3.025 3.193 4.423 7.91 7.938 13.083 9.684 1.47.496 3.015.728 4.523 1.092 5.663.725 11.564.734 16.926-1.501 2.698-1.125 3.437-1.883 5.683-3.568 1.975-2.025 4.698-4.984 1.507-7.244-1.91-.703-1.875 1.197-1.162 2.434.314.544.75 1.007 1.125 1.51.58.548 1.1 1.165 1.738 1.643 3.89 2.923 9.057 4.406 13.774 5.238 1.439.253 2.899.363 4.348.544 4.244.326 8.509.225 12.741-.197 1.952-.195 4.647-.547 6.575-1.089.846-.237 1.65-.608 2.474-.912 2.33-1.281 4.742-3.57 3.72-6.494-.129-.366-.352-.69-.528-1.036.068-.298-2.232-2.667-2.233-1.257 0 .266.125.518.188.777 1.782 3.75 5.48 6.114 9.202 7.675 1.254.525 2.564.903 3.847 1.354 7.928 2.133 16.2 2.88 24.392 2.375 1.61-.1 3.21-.307 4.816-.461 3.993-.655 7.88-1.882 11.447-3.808 1.086-.586 2.756-1.655 3.619-2.676.245-.29.352-.672.528-1.008-.041-.259-.01-.541-.124-.777-.318-.657-1.68-1.464-2.402-.994-.19.124-.284.355-.426.532.004.326-.063.66.012.978.7 2.937 3.743 5.237 6.234 6.546 1.122.59 2.33 1.002 3.494 1.502 1.407.346 2.793.795 4.22 1.039 6.854 1.17 14.12.642 20.918-.608 1.586-.291 3.148-.703 4.721-1.054 3.317-.853 6.61-1.906 9.619-3.573.99-.549 2.087-1.222 2.793-2.154.193-.254.267-.58.4-.871-.072-.233-.082-.496-.217-.7-.756-1.137-3.585-1.618-4.819-2.044-.02.036-2.785-1.007-2.788-1-.174.362.413.696.682.993 2.695 2.362 5.84 4.218 9.244 5.363.972.327 1.978.542 2.967.813 5.855 1.093 11.702-.027 17.339-1.642 1.518-.644 5.483-1.861 5.555-4.039.006-.179-.1-.344-.151-.516l-.308-.34-.082.056.294.312c.744 2.403-3.866 3.82-5.376 4.454-5.594 1.61-11.405 2.706-17.217 1.633-.987-.27-1.99-.484-2.96-.809-3.396-1.14-6.531-2.99-9.222-5.34-.174-.191-.342-.386-.52-.572-.096-.1-.303-.146-.302-.284.001-.106.204.058.304.095.825.308 1.643.637 2.483.904 1.217.422 4.016.895 4.781 1.993.13.187.145.432.217.648-.131.282-.203.6-.392.848-.705.923-1.797 1.59-2.781 2.135-2.98 1.647-6.237 2.693-9.52 3.541-1.572.352-3.131.764-4.716 1.056-6.79 1.252-14.046 1.782-20.893.618-1.425-.242-2.807-.688-4.211-1.032-1.162-.498-2.366-.907-3.485-1.494-2.482-1.3-5.49-3.572-6.205-6.486-.075-.302-.013-.622-.02-.933.104-.157.158-.362.31-.47.679-.48 2.015.294 2.328.915.112.221.084.488.126.733-.173.328-.279.702-.52.984-.862 1.017-2.52 2.076-3.606 2.66-3.537 1.906-7.383 3.13-11.34 3.78-1.605.154-3.204.362-4.813.462-8.184.509-16.447-.236-24.37-2.362-1.28-.45-2.588-.826-3.839-1.35-3.704-1.55-7.39-3.897-9.17-7.624-.654-2.6 1.434-.121 1.857.544.174.34.394.658.521 1.018 1.019 2.889-1.397 5.145-3.693 6.403-.793.295-1.564.656-2.379.886-1.933.544-4.607.895-6.566 1.091-4.228.424-8.489.526-12.729.203-1.447-.18-2.905-.289-4.341-.541-4.706-.827-9.863-2.303-13.747-5.214-.635-.475-1.154-1.088-1.731-1.632-.372-.498-.804-.955-1.116-1.492-.621-1.068-.73-2.982.994-2.335 3.163 2.2.406 5.152-1.517 7.122-2.263 1.695-2.953 2.414-5.669 3.55-5.319 2.227-11.186 2.2-16.805 1.49-1.504-.362-3.046-.592-4.513-1.085-5.16-1.737-9.869-5.242-13.057-9.652-.688-.952-1.216-2.01-1.824-3.014-.399-1.042-.914-2.046-1.197-3.125-1.262-4.822-.132-9.903 2.19-14.193.808-1.188 1.507-2.354 2.777-3.095.235-.137.603-.401.79-.204.055.057-.02.158-.031.237-2.863 1.59-6.885.68-9.792-.213-.856-.44-1.755-.805-2.567-1.32-3.27-2.071-6.232-5.224-7.16-9.08-.236-.983-.245-2.007-.368-3.011.147-3.239-.065-4.087 1.166-7.25 2.343-6.016 7.044-10.68 11.921-14.7 3.248-2.343 3.322-2.564 6.611-4.36a31.555 31.555 0 0 1 2.284-1.119c.422-.188.868-.316 1.301-.477.164-.061.414-.03.49-.188.064-.132-.29.05-.435.075-3.21.175-6.409-.723-8.739-3.073-.601-.607-1.044-1.353-1.567-2.03-.845-2.175-1.336-2.677-1.08-5.1.522-4.922 4.418-8.471 7.857-11.57 4.012-2.985 9.696-7.353 14.978-7.297zM216.142 439.216c.958 2.21 1.837 4.499 3.562 6.256.563.573 1.22 1.045 1.83 1.568.821.482 1.605 1.034 2.463 1.447 4.568 2.205 10.196 3.242 15.219 3.52 1.532.085 3.069.034 4.603.05 6.206-.36 12.872-1.573 17.409-6.216.517-.53.917-1.163 1.375-1.744.96-1.798 2.083-4.632.137-6.19-1.984.045-.352 3.607.096 4.316.451.714 1.042 1.33 1.563 1.995.81.666 1.559 1.418 2.434 1.999 4.613 3.061 11.253 4.545 16.668 5.198 1.72.208 3.455.26 5.183.391 7.775.28 15.564-1.174 22.491-4.8.782-.41 1.503-.923 2.254-1.385 1.979-1.674 3.222-2.752.414-4.07-2.869-1.06-.798 1.346-.034 2.102 3.278 2.562 7.414 3.908 11.527 4.344 1.114.118 2.238.105 3.357.158a31.007 31.007 0 0 0 17-5.231c1.607-1.302 2.988-2.62 1.598-4.592a3.561 3.561 0 0 0-1.796-.894c-.731.388 1.517 3.35 1.72 3.63 4.235 4.403 10.508 5.664 16.279 6.758 5.14.848 10.448 1.149 15.566-.05 3.679-.862 4.276-1.377 7.631-3 1.03-.721 2.143-1.338 3.092-2.164 2.054-1.785 3.91-4.363 4.18-7.15.19-1.95-.295-2.864-.857-4.698-1.583-3.572-4.247-6.414-7.274-8.809-.33-.195-1.337-1.26-1.72-.556-.004.018-.044.156-.028.185.32.603 2.43-1.008 2.457-1.025 4.264-2.84 7.741-6.708 10.318-11.128.638-1.094 1.159-2.252 1.738-3.378 1.568-3.84 2.688-8.241.617-12.154-1.069-2.02-1.96-2.444-3.685-3.824-3.966-2.272-8.48-3.16-13.014-2.889-.392.032-3.613.802-2.005 1.54 2.723.096 5.088-2.035 7.136-3.556 2.288-2.045 4.83-4.254 5.936-7.224.646-1.734.57-2.754.685-4.584-.308-4.333-1.731-8.408-4.997-11.398-.588-.539-1.259-.979-1.888-1.468-2.783-1.821-6.014-2.7-9.239-3.36a25.459 25.459 0 0 0-2.655-.372c.038.315.215.686.553.646 1.23-1.743-.313-4.524-1.004-6.11-2.807-4.919-7.206-8.63-12.459-10.74-1.226-.493-2.51-.83-3.765-1.244-6.331-1.546-13.006-2.29-19.468-1.068-.973.184-1.92.487-2.88.73-2.957.968-5.597 2.325-5.664 5.736.144.822.235.515-.357.03-.645-.527-.867-.64-1.59-1.107-3.591-2.142-7.814-2.458-11.883-2.823-5.767-.15-11.647.53-17.018 2.747-.86.355-1.67.818-2.505 1.227-2.295 1.533-4.318 3.006-3.29 5.935.083.196.799 1.646 1.018 1.047-.93-3-3.994-4.505-6.592-5.784-6.44-2.639-13.342-3.99-20.266-4.498-1.594-.117-3.193-.142-4.79-.213-4.38-.06-8.77.12-13.12.65-2.029.248-4.023.552-5.978 1.157-.738.229-1.441.56-2.161.839-1.243.754-3.681 2.057-3.32 3.952.169.893.833 1.353 1.428 1.952 1.54 1.066 4.629 2.732 6.044.52.17-.266.213-.595.32-.893-.053-.348-.019-.72-.158-1.044-1.311-3.044-6.155-4.19-8.955-4.972-7.19-1.598-14.57-1.196-21.827-.398-6.569.76-12.949 2.546-19.412 3.875-2.829.5-5.704.532-8.565.44-.614-.024-1.844-.214-1.627.741 1.067.966.54-.298.286-.814-1.703-2.444-4.622-4.07-7.435-4.91-.995-.296-2.03-.437-3.046-.656-6.84-.937-13.675.31-20.26 2.127-5.02 1.624-9.925 3.873-14.028 7.234-.388.543-2.027 1.527-1.717 2.407.02.025.181.297.289.248.57-.256-.774-2.494-.884-2.689-2.622-3.339-6.038-3.794-10.036-3.688-1.55.122-3.05.488-4.538.916l.068.073c1.452-.422 2.92-.771 4.434-.896 3.97-.113 7.37.325 9.981 3.638.08.139 1.276 2.353 1.036 2.568-.081.072-.268-.212-.255-.204-.337-.774 1.407-1.86 1.707-2.322 4.1-3.35 8.996-5.593 14.01-7.212 6.544-1.81 13.343-3.036 20.142-2.115 1.012.216 2.044.355 3.036.65 2.798.83 5.705 2.445 7.404 4.87.156.315.847 1.618-.097.752-.203-.854.964-.64 1.49-.626 2.866.093 5.746.063 8.58-.436 6.462-1.328 12.84-3.114 19.406-3.877 7.25-.8 14.621-1.205 21.804.387 2.773.771 7.594 1.905 8.91 4.907.138.312.106.674.159 1.01-.104.288-.145.607-.31.864-1.381 2.146-4.38.49-5.876-.533-.569-.57-1.242-1.039-1.409-1.894-.363-1.863 2.082-3.149 3.293-3.884.689-.27 1.36-.59 2.067-.81 5.952-1.849 12.924-1.67 19.08-1.814 1.595.07 3.193.094 4.786.211 6.916.506 13.812 1.853 20.245 4.485 2.578 1.265 5.618 2.75 6.557 5.718.251.313-.939-.78-.823-1.087-1.02-2.888 1.016-4.335 3.271-5.84.833-.407 1.643-.867 2.5-1.221 5.331-2.21 11.177-2.87 16.903-2.728 4.059.363 8.272.673 11.857 2.803.7.452.955.587 1.581 1.1.486.398.775.806.535-.098.067-3.334 2.657-4.676 5.544-5.634.957-.244 1.901-.547 2.872-.731 6.451-1.228 13.118-.485 19.44 1.053 1.253.413 2.534.748 3.758 1.239 5.24 2.1 9.629 5.797 12.43 10.7.606 1.388 2.212 4.443 1.03 6-.183-.04-.291-.373-.531-.482.889.073 1.773.202 2.65.368 3.215.656 6.437 1.53 9.214 3.34.627.486 1.295.924 1.881 1.46 3.256 2.973 4.672 7.03 4.98 11.344-.114 1.818-.039 2.834-.682 4.556-1.105 2.96-3.642 5.158-5.924 7.195-2.016 1.496-4.32 3.566-6.99 3.532-1.51-.572 1.661-1.388 1.909-1.368 4.516-.28 9.017.605 12.973 2.86 1.713 1.365 2.603 1.788 3.666 3.79 2.066 3.893.942 8.276-.619 12.098-.578 1.124-1.098 2.28-1.735 3.371-2.574 4.41-6.047 8.27-10.305 11.101-.5.314-1.237.842-1.857 1.063-.132.048-.342.134-.42.017-.015-.02.021-.142.024-.154.337-.586 1.262.461 1.548.594 3.018 2.384 5.675 5.214 7.255 8.772.558 1.817 1.041 2.728.854 4.661-.269 2.77-2.121 5.333-4.164 7.104-.947.822-2.056 1.437-3.085 2.155-3.282 1.584-3.953 2.13-7.528 2.969-5.111 1.2-10.412.907-15.545.06-5.754-1.088-12.012-2.34-16.241-6.723-.706-.966-1.799-2.252-1.857-3.493a3.487 3.487 0 0 1 1.759.856c1.375 1.93-.027 3.218-1.592 4.486-5.028 3.341-10.82 5.14-16.878 5.198-1.116-.052-2.238-.038-3.35-.155-4.1-.43-8.223-1.767-11.495-4.316-.668-.656-2.726-3.005-.11-1.967 2.764 1.279 1.511 2.285-.43 3.936-.749.459-1.469.97-2.248 1.378-6.895 3.603-14.637 5.057-22.375 4.777-1.726-.13-3.459-.182-5.177-.389-5.403-.65-12.034-2.127-16.64-5.176-.872-.577-1.617-1.324-2.426-1.986-.518-.66-1.105-1.272-1.555-1.98-.385-.609-1.984-4.063-.263-4.215 1.935 1.502.775 4.346-.153 6.088-.457.577-.855 1.205-1.37 1.731-4.511 4.606-11.12 5.817-17.285 6.176-1.532-.016-3.067.036-4.597-.048-5.014-.275-10.632-1.308-15.195-3.503-.854-.411-1.635-.96-2.453-1.439-.608-.52-1.263-.988-1.823-1.557-1.723-1.752-2.6-4.037-3.555-6.243z" style="fill:#000;stroke:#000;stroke-width:1;stroke-dasharray:none"/><path d="M10.808 343.892c3.677.062 7.145 1.223 10.535 2.549 1.747.735 3.507 1.448 5.225 2.252.38.177 1.287.516 1.554.944-2.084-1.353-2.065-2.293-1.851-4.728.314-.655.526-1.37.944-1.965 2.777-3.958 7.834-6.25 12.425-7.2 1.369-.284 2.774-.338 4.161-.507 5.332-.133 10.59.909 15.267 3.54 2.346 1.318 3.168 2.164 5.173 3.854 1.442 1.665 5.126 4.588 4.788 7.115-.98 1.051-2.087-.538-2.464-1.387-.001-.285-.072-.578-.004-.855.801-3.28 7.597-4.783 10.214-5.491 4.735-.986 9.646-1.284 14.443-.542 2.831.438 3.889.857 6.605 1.674 4.143 1.297 7.212 2.736 9.503 6.498.063.16 1.196 2.102.432 1.996-.895-.445-.83-1.538-.589-2.345.204-.27.362-.582.612-.81 2.32-2.127 6.574-3.085 9.569-3.496 1.205-.165 2.426-.199 3.639-.298 6.527-.136 12.134 1.087 17.856 4.17l1.333.97.074-.066-1.34-.978c-5.733-3.092-11.35-4.32-17.891-4.19-1.215.1-2.438.13-3.646.297-3.02.417-7.358 1.387-9.687 3.554-.254.236-.412.557-.618.835-.249.86-.291 1.98.65 2.449 1.015-.062-.177-1.714-.305-2.132-2.3-3.78-5.374-5.233-9.536-6.536-2.72-.82-3.782-1.24-6.617-1.68-4.834-.75-9.784-.449-14.553.557-2.657.721-9.463 2.228-10.248 5.572-.067.287.007.589.01.883.419.938 1.633 2.578 2.658 1.352.317-2.595-3.323-5.463-4.812-7.178-2.01-1.696-2.834-2.544-5.185-3.868-4.688-2.639-9.957-3.687-15.301-3.558-1.42.176-2.858.237-4.258.528-4.604.958-9.682 3.27-12.455 7.25-.42.603-.631 1.326-.947 1.99-.05.582-.184 1.164-.148 1.748.065 1.063.875 2.983 2.187 2.932-.295-.461-1.143-.771-1.579-.975-1.719-.804-3.48-1.517-5.228-2.254-3.397-1.33-6.872-2.495-10.558-2.562zM-61.374 383.795c-2.484 1.862-4.915 4.02-6.409 6.795-.358.665-.589 1.392-.883 2.088-1.163 3.937-.23 7.929 2.596 10.943.599.639 1.318 1.153 1.977 1.729 3.995 2.544 8.304 3.09 12.767 1.345.891-.349 1.712-.854 2.569-1.28 4.196-2.677 7.284-6.672 8.28-11.622.185-.923.188-1.873.283-2.81-.093-.877-.098-1.768-.278-2.632-.662-3.164-2.773-6.125-5.712-7.57-.74-.365-1.567-.518-2.351-.777-3.946-.588-6.916.864-10.226 2.77l.078.06c3.274-1.879 6.187-3.322 10.09-2.749.78.255 1.6.404 2.337.764 2.924 1.43 5.027 4.373 5.686 7.517.18.86.184 1.745.277 2.618-.094.932-.098 1.878-.283 2.797-.993 4.931-4.073 8.908-8.257 11.57-.854.424-1.674.922-2.56 1.271-4.403 1.732-8.68 1.168-12.623-1.334-.656-.572-1.372-1.083-1.968-1.717-2.814-2.994-3.743-6.96-2.585-10.873.293-.692.523-1.414.88-2.076 1.492-2.765 3.918-4.916 6.397-6.77zM-96.774 385.422c-3.082-.59-5.485 1.423-7.495 3.48-2.053 2.586-3.095 5.898-1.566 9.039.29.596.735 1.105 1.103 1.657 2.431 2.601 5.6 3.583 9.08 2.721.802-.198 1.567-.526 2.35-.79 3.836-1.774 7.407-4.694 8.555-8.953.194-.722.197-1.482.296-2.222-.098-.673-.092-1.37-.294-2.019-.835-2.678-3.506-4.068-6.11-4.527-.69-.122-1.4-.103-2.1-.155-2.158.06-4.356.36-6.331 1.294-.572.27-1.077.663-1.615.994l.08.06c.535-.328 1.039-.714 1.606-.984 1.937-.924 4.1-1.21 6.218-1.274.696.05 1.4.028 2.087.148 2.576.447 5.238 1.811 6.067 4.462.201.643.195 1.333.293 2-.099.734-.101 1.488-.295 2.204-1.145 4.24-4.706 7.14-8.527 8.902-.75.255-1.483.573-2.252.765-3.454.863-6.599-.09-9.02-2.673-.366-.546-.807-1.049-1.096-1.64-1.522-3.116-.48-6.402 1.56-8.964 1.973-2.015 4.333-4.01 7.355-3.439z" style="fill:#000;stroke:#000;stroke-width:1;stroke-dasharray:none"/><path d="M139.258 45.264c-3.377.328-6.248-2.316-7.521-5.212-1.524-3.467-.936-8.766 1.33-12.364 2.818-4.43 7.096-7.997 12.074-9.733 2.946-1.18 7.055-1.706 10.214-1.659 4.915.059 9.333.844 13.131 4.26.321.288-.834.195-.896-.033-.584-2.117 1.215-5.915 2.498-7.416 1.506-1.763 3.709-3.663 6.622-5.081 5.458-2.657 12.855-3.344 19.511-.604 4.721 1.943 7.41 4.619 9.586 6.78 1.544 1.532 3.486 4.259 3.385 6.632-.195.241-.478.44-.799.445-1.508-.233-2.171-2.294-1.157-3.57 1.576-2.246 5.076-3.727 7.55-4.582 7.243-2.502 16.002-2.304 22.666.277 3.43 1.328 7.424 3.61 9.383 6.274.57.775 2.046 2.94.947 3.074-1.06-.276-.9-1.782-.65-2.706.21-.301.37-.645.62-.903 3.648-3.635 10.112-4.366 12.818-4.513 6.532-.355 12.132.97 17.254 5.528.43.382 1.153 1.253 1.55 1.844.608.904 1.278 2.505 1.038 2.741-.08.076-.174-.012-.26-.207-.33-.772.827-2.115 1.227-2.503 3.424-3.32 8.933-6.279 13.587-7.815 6.624-2.185 14.49-2.981 20.684-1.868 2.396.431 7.96 1.876 10.802 6.064.196.289.828 1.633-.1.735-.893-.866.838-2.447 2.513-3.494 4.195-2.62 9.686-4.473 15.628-5.568 9.383-1.73 22.493-1.653 31.189 1.762 3.603 1.414 7.932 3.692 10.413 6.85.592.755.937 1.913.297 2.695-1.371 1.676-4.421.889-5.442-.284-1.155-1.326-.934-3.007 1.149-4.793 2.923-2.507 7.04-3.83 11.224-4.361 8.556-1.085 16.976-.542 24.401 1.379 4.96 1.282 11.179 3.11 15.36 6.21 1.615 1.195 2.798 2.88 2.058 3.329-1.104.669-1.49-1.326-.43-3.424.768-1.52 2.432-3.266 4.1-4.383 6.628-4.44 16.195-4.619 23.709-2.72 4.008 1.012 6.738 2.107 9.295 4.412.598.54.411 1.247.027 1.572-.304.256-.87-.138-.789-.808.562-4.639 6.717-7.404 8.358-7.938 9.13-2.971 18.08-1.103 22.929.75 6.52 2.49 11.973 6.64 14.303 12.15.59 1.394 1.425 6.613-.831 6.15-1.504-.308 2.118-1.103 3.004-1.119 3.24-.058 8.17 2.005 10.98 5.247 2.84 3.28 4.472 6.978 4.435 11.159-.042 4.72-2.664 9.689-6.217 12.091-2.05 1.387-4.713 2.739-7.563 2.665-1.315-1.149 1.65-1.169 2.46-1.014 3.868.739 7.681 2.367 11.186 5.477 2.08 1.844 3.94 4.458 4.808 6.337 1.913 4.14 2.232 9.438.66 12.658-2.85 5.837-9.295 9.146-14.605 9.458-.283.017-2.092-.488-.816-.357 2.166.568 4.499 2.243 5.717 3.627 4.553 5.17 2.012 12.713-5.454 17.709-7.334 4.906-20.16 6.636-28.73 3.676-3.945-1.362-8.303-3.921-10.226-6.278-.202-.248-.38-1.157.06-1.357 1.147-.646 2.82 1.643 2.184 3.077-.89 2.007-3.083 2.998-4.926 3.982-6.342 3.384-13.957 4.386-20.954 2.7-2.888-.696-5.688-1.944-8.004-3.83-.332-.27-2.561-2.745.03-1.83 1.93.914.858 3.088-.71 4.116-6.598 4.326-15.423 6.237-23.614 6.006-7.255-.205-14.689-1.622-21.138-5.137-2.963-1.614-5.945-4.402-6.424-7.394-.084-.526.131-1.232.776-1.24 1.516-.114 1.02 3.724.108 5.305-2.073 3.59-6.055 6.033-10.504 7.44-6.988 2.21-15.286 2.003-21.75.074-4.735-1.413-9.78-3.361-12.617-7.625a13.039 13.039 0 0 1-1.549-3.225c-.205-.7.401-.943.618-.232.433 1.636-1.341 2.676-2.572 3.279-3.29 1.611-6.582 2.597-10.185 3.105-4.661.657-11.448.873-17.693-.689-3.653-.914-7.967-2.851-9.723-5.373-.522-.751 2.06-.55 2.59-.454 1.952.351 4.785 1.586 4.418 3.58-.38 2.071-2.766 3.178-4.528 4.06-4.775 2.389-11.527 4.204-18.936 4.373-6.57.15-13.67.044-19.443-2.52-3.493-1.552-7.56-3.559-9.043-6.4-.295-.566-.39-1.374.13-1.948 1.432-1.582 2.441 1.807.632 3.344-2.86 2.43-8.186 4.836-14.307 6.006-9.705 1.856-19.484 1.253-29.238-2.417-4.67-1.757-10.17-4.865-12.288-8.733-1.309-2.391 1.271-1.578 1.891 1.051.521 2.21-.235 3.963-1.823 5.43-2.56 2.365-7.202 4.186-11.342 4.75-8.877 1.211-17.76.215-25.51-3.92-2.907-1.55-6.485-4.594-7.352-6.475-.591-1.284.049-2.893 1.206-1.906 1.843 1.57.967 4.284-.36 5.864-3.754 4.465-9.734 6.35-15.39 6.727-6.656.349-13.648-.811-19.184-4.733-5-3.461-9.26-8.663-10.07-14.842-.457-4.864.928-9.998 3.988-13.832.568-.547 1.82-1.934 2.186-1.392-.08 1.452-3.525.73-5.23.366-3.514-.75-6.854-2.685-9.527-5.406-2.897-2.948-5.063-6.851-5.119-10.87-.038-2.749.173-5.51 1.238-7.941 2.568-5.861 7.283-10.192 12.382-13.595 3.063-2.045 6.433-3.776 10.116-4.557M81.382 53.924c3.27-1.88 6.18-3.32 10.09-2.75.78.26 1.6.41 2.33.77 2.93 1.43 5.03 4.37 5.69 7.51.18.86.19 1.75.28 2.62-.1.93-.1 1.88-.29 2.8-.99 4.93-4.07 8.91-8.25 11.57-.86.42-1.68.92-2.56 1.27-4.41 1.73-8.68 1.17-12.63-1.33-.65-.58-1.37-1.09-1.96-1.72-2.82-2.99-3.75-6.96-2.59-10.87.3-.7.52-1.42.88-2.08 1.49-2.77 3.92-4.92 6.4-6.77M39.242 57.094c.54-.33 1.04-.72 1.61-.99 1.93-.92 4.1-1.21 6.21-1.27.7.05 1.4.03 2.09.15 2.58.45 5.24 1.81 6.07 4.46.2.64.19 1.33.29 2-.1.74-.1 1.49-.29 2.2-1.15 4.24-4.71 7.15-8.53 8.91-.75.25-1.48.57-2.25.76-3.46.86-6.6-.09-9.02-2.67-.37-.55-.81-1.05-1.1-1.64-1.52-3.12-.48-6.4 1.56-8.97 1.97-2.01 4.33-4.01 7.36-3.43" style="fill:#e5f6ff;fill-opacity:1;stroke:#000;stroke-width:1;stroke-dasharray:none"/><path d="M73.825 189.173c-5.43-1.544-11.07.929-15.585 3.823-6.032 3.866-10.287 10.878-9.578 18.202.858 8.853 6.158 17.053 13.458 22.023 5.853 3.984 13.23 5.623 20.202 4.24 8.758-1.738 15.737-8.595 19.576-16.405 3.786-7.7 3.23-17.284-1.534-24.454-4.003-6.026-10.79-10.05-18.04-10.466-3.413-.196-6.841.042-10.163.83" style="display:inline;fill:#e5f6ff;fill-opacity:1;stroke:#000;stroke-width:1;stroke-dasharray:none;stroke-dashoffset:1.02"/><path d="M792.214 431.642c1.21.42 3.527 1.625 4.297 2.715.13.19.14.44.21.65-.13.28-.2.6-.39.85-.7.92-1.79 1.59-2.78 2.13-2.98 1.65-6.24 2.7-9.52 3.55-1.57.35-3.13.76-4.71 1.05-6.8 1.25-14.05 1.78-20.9.62-1.42-.24-2.81-.69-4.21-1.03-1.16-.5-2.37-.91-3.48-1.5-2.49-1.3-5.49-3.57-6.21-6.48-.07-.3-.01-.62-.02-.94.11-.15.16-.36.31-.47.68-.48 2.02.3 2.33.92.11.22.08.49.12.73-.17.33-.27.7-.51.99-.87 1.01-2.53 2.07-3.61 2.66-3.54 1.9-7.38 3.13-11.34 3.78-1.61.15-3.21.36-4.81.46-8.19.51-16.45-.24-24.37-2.36-1.28-.45-2.59-.83-3.84-1.35-3.71-1.55-7.39-3.9-9.17-7.63-.66-2.6 1.43-.12 1.85.55.18.34.4.66.52 1.01 1.02 2.89-1.39 5.15-3.69 6.41-.79.29-1.56.65-2.38.88-1.93.55-4.6.9-6.56 1.09-4.23.43-8.49.53-12.73.21-1.45-.18-2.91-.29-4.34-.54-4.71-.83-9.87-2.31-13.75-5.22-.63-.47-1.15-1.09-1.73-1.63-.37-.5-.81-.95-1.12-1.49-.62-1.07-.73-2.98 1-2.34 3.16 2.2.4 5.16-1.52 7.13-2.26 1.69-2.95 2.41-5.67 3.55-5.32 2.22-11.18 2.19-16.8 1.49-1.51-.37-3.05-.6-4.52-1.09-5.16-1.74-9.87-5.24-13.05-9.65-.69-.95-1.22-2.01-1.83-3.02-.4-1.04-.91-2.04-1.19-3.12-1.27-4.82-.14-9.9 2.18-14.19.81-1.19 1.51-2.36 2.78-3.1.24-.14.6-.4.79-.2.06.06-.02.16-.03.23-2.86 1.59-6.88.68-9.79-.21-.86-.44-1.76-.8-2.57-1.32-3.27-2.07-6.23-5.22-7.16-9.08-.23-.98-.24-2.01-.37-3.01.15-3.24-.06-4.09 1.17-7.25 2.34-6.02 7.04-10.68 11.92-14.7 3.25-2.34 3.32-2.56 6.61-4.36.75-.41 1.51-.77 2.29-1.12.42-.19.86-.31 1.3-.48.16-.06.41-.03.49-.18" style="fill:none;stroke:#000;stroke-width:1;stroke-dasharray:none"/><path d="M824.54 432.287c.74 2.4-3.87 3.82-5.38 4.45-5.59 1.61-11.41 2.71-17.22 1.64-.98-.27-1.99-.49-2.96-.81-3.39-1.14-6.53-2.99-9.22-5.34-.17-.19-.34-.39-.52-.57-.1-.1-.3-.15-.3-.29 0-.1.2.06.3.1.83.3 2.134-.095 2.974.175M875.49 430.037c1.93 1.5.77 4.35-.16 6.09-.45.57-.85 1.2-1.37 1.73-4.51 4.6-11.12 5.82-17.28 6.17-1.53-.01-3.07.04-4.6-.04-5.01-.28-10.63-1.31-15.19-3.51-.86-.41-1.64-.96-2.46-1.44-.6-.51-1.26-.98-1.82-1.55-1.72-1.75-2.6-4.04-3.56-6.25" style="fill:none;stroke:#000;stroke-width:1;stroke-dasharray:none"/><path d="M926.6 433.687c2.76 1.28 1.51 2.29-.43 3.94-.75.46-1.47.97-2.25 1.38-6.89 3.6-14.63 5.06-22.37 4.78-1.73-.13-3.46-.19-5.18-.39-5.4-.65-12.03-2.13-16.64-5.18-.87-.58-1.62-1.32-2.43-1.99-.51-.66-1.1-1.27-1.55-1.98-.39-.6-1.98-4.06-.26-4.21" style="fill:none;stroke:#000;stroke-width:1;stroke-dasharray:none"/><path d="M958.27 429.587c.65.12 1.26.41 1.75.86 1.38 1.93-.02 3.22-1.59 4.48a30.779 30.779 0 0 1-16.87 5.2c-1.12-.05-2.24-.04-3.35-.15-4.1-.43-8.23-1.77-11.5-4.32-.67-.65-2.73-3-.11-1.97" style="fill:none;stroke:#000;stroke-width:1;stroke-dasharray:none"/><path d="M997.03 413.487c.34-.58 1.26.46 1.55.6 3.02 2.38 5.67 5.21 7.25 8.77.56 1.82 1.04 2.73.86 4.66-.27 2.77-2.13 5.33-4.17 7.1-.95.83-2.05 1.44-3.08 2.16-3.28 1.58-3.96 2.13-7.53 2.97-5.11 1.2-10.41.91-15.55.06-5.75-1.09-12.01-2.34-16.24-6.72-.7-.97-1.8-2.26-1.85-3.5" style="fill:none;stroke:#000;stroke-width:1;stroke-dasharray:none"/><path d="M993.39 380.717c-1.095-.941 1.764-1.43 2.546-1.402 3.729.138 7.405 1.186 10.784 3.786 2.005 1.542 3.856 3.874 4.636 5.668 1.603 3.685 2.152 9.221.636 12.737-2.748 6.373-8.961 10.749-14.08 11.906-.274.062-.628.41-.911.235" style="fill:none;stroke:#000;stroke-width:1;stroke-dasharray:none"/><path d="M988.26 348.917c.89.07 1.768.164 2.65.25 1.971.189 7.507 1.633 11.1 4.92 3.25 2.971 5.018 7.021 4.98 11.34-.041 4.877-2.724 8.948-6.277 11.992-1.937 1.593-4.652 3.328-7.322 3.298" style="fill:none;stroke:#000;stroke-width:1;stroke-dasharray:none"/><path d="M943.811 338.5c.07-3.34 2.483-5.391 5.178-6.789 1.035-.537 2.22-.923 3.182-1.153 7.053-1.687 13.496-.844 19.41.899 1.265.373 2.53.747 3.76 1.24 5.23 2.097 9.738 5.734 12.43 10.7.721 1.331 2.24 4.964.808 6.242" style="fill:none;stroke:#000;stroke-width:1;stroke-dasharray:none"/><path d="M907.9 343.847c-.293.19-.659-.602-.83-1.09-1.01-2.893.97-4.41 3.27-5.84.795-.493 1.651-.869 2.5-1.22 5.341-2.209 11.186-3.022 16.91-2.73 4.071.208 8.226 1.036 11.85 2.8.754.367 2.592 1.406 3.283 2.309" style="fill:none;stroke:#000;stroke-width:1;stroke-dasharray:none"/><path d="M859.15 342.367c-1.38 2.14-4.848.633-5.87-.54-1.154-1.326-1.449-3.45.894-4.879 3.692-2.25 7.723-3.061 11.908-3.592 8.555-1.085 16.804-.627 25 1.208 4.998 1.12 10.58 2.855 14.76 5.953 1.615 1.197 2.78 2.852 2.059 3.33" style="fill:none;stroke:#000;stroke-width:1;stroke-dasharray:none"/><path d="M799.11 340.107c-.87-.874 2.5-2.827 4.24-3.76 4.736-2.54 9.837-3.594 14.752-4.448 9.4-1.632 20.76-1.189 30.565 1.777 3.705 1.12 7.705 2.838 10.186 5.997.592.754.833 1.838.298 2.694" style="fill:none;stroke:#000;stroke-width:1;stroke-dasharray:none"/><path d="M752.91 345.517c-.33-.78.806-2.146 1.227-2.511 3.998-3.471 8.692-5.916 13.648-7.694 6.565-2.354 14.43-3.102 20.623-1.989 2.397.431 7.96 1.876 10.803 6.064.196.289.85 1.61-.1.75" style="fill:none;stroke:#000;stroke-width:1;stroke-dasharray:none"/><path d="M641.248 341.535c-2.682-2.392-6.135-3.735-12.168-4.142-1.437-.097-5.235-.029-7.041.335-2.338.472-6.443 1.781-9.278 3.77-1.526 1.072-4.126 3.183-5.992 5.756-2.112 2.911-3.656 6.423-3.346 10.263.207 2.57 2.26 6.403 4.753 7.777 1.242.684 2.537 1.139 3.84.943" style="fill:none;stroke:#000;stroke-width:.999996;stroke-dasharray:none"/><path d="M681.95 341.807c.101-2.373-1.84-5.1-3.384-6.632-2.176-2.161-5.805-4.751-10.526-6.695-6.656-2.74-13.114-2.138-18.572.519-2.913 1.418-5.115 3.318-6.622 5.08-1.283 1.502-3.081 5.3-2.498 7.417.063.228.446.171.683.161" style="fill:none;stroke:#000;stroke-width:1;stroke-dasharray:none"/><path d="M720.54 343.797c1.1-.72-.377-2.37-.947-3.146-1.959-2.665-5.953-4.946-9.383-6.274-6.664-2.58-15.423-2.779-22.665-.277-2.475.855-5.975 2.336-7.55 4.583-1.015 1.275-.351 3.336 1.157 3.569.32-.005.604-.204.799-.445" style="fill:none;stroke:#000;stroke-width:1;stroke-dasharray:none"/><path d="M720.54 343.652c-.94-.505-.9-1.709-.65-2.633.21-.301.37-.645.62-.903 3.648-3.635 10.113-4.366 12.818-4.513 6.532-.355 12.133.97 17.255 5.528.43.382 1.148 1.256 1.55 1.844.084.124 1.278 2.505 1.038 2.741-.08.076-.27-.225-.26-.215M329.087-49.228c-.871-.874 2.54-2.575 4.325-3.419 4.65-2.197 11.887-4.106 16.802-4.96 9.4-1.632 19.99-1.958 28.686 1.093 3.652 1.282 7.448 3.693 9.929 6.852.592.754.833 1.837.298 2.694" style="fill:none;stroke:#000;stroke-width:1;stroke-dasharray:none"/><path d="M113.216 557.06c-1.19 1.118-3.525.738-5.23.374-3.514-.75-6.854-2.685-9.527-5.407-2.897-2.948-5.063-6.85-5.119-10.87-.038-2.748.173-5.51 1.238-7.94 2.568-5.862 7.283-10.193 12.382-13.596 3.063-2.045 6.434-3.775 10.116-4.557" style="fill:none;stroke:#000;stroke-width:.999991;stroke-dasharray:none"/><path d="M152.046 579.275c3.16 2.2.4 5.16-1.52 7.13-2.26 1.69-2.95 2.41-5.67 3.55-5.32 2.22-11.18 2.19-16.8 1.49-1.51-.37-3.05-.6-4.52-1.09-5.16-1.74-9.87-5.24-13.05-9.65-.69-.95-1.22-2.01-1.83-3.02-.4-1.04-.91-2.04-1.19-3.12-1.27-4.82-.14-9.9 2.18-14.19.81-1.19 1.51-2.36 2.78-3.1.24-.14.6-.4.79-.2" style="fill:none;stroke:#000;stroke-width:1;stroke-dasharray:none"/><path d="M194.976 580.345c-.645-2.437 1.452-.672 1.891 1.052.56 2.2-.235 3.962-1.822 5.429-2.56 2.365-7.203 4.187-11.343 4.751-8.877 1.21-17.76.214-25.509-3.92-2.908-1.552-5.765-3.485-7.353-6.476-.482-.909-.154-2.587 1.206-1.906" style="fill:none;stroke:#000;stroke-width:1;stroke-dasharray:none"/><path d="M250.176 582.145c2.537-.806 2.442 1.807.633 3.344-2.86 2.43-8.186 4.837-14.307 6.007-9.705 1.855-19.484 1.253-29.238-2.418-4.67-1.757-9.59-4.505-12.288-8.733" style="fill:none;stroke:#000;stroke-width:1;stroke-dasharray:none"/><path d="M297.58 581c1.948.368 4.784 1.587 4.417 3.581-.38 2.07-2.766 3.177-4.528 4.059-4.775 2.389-11.527 4.204-18.936 4.374-6.57.15-13.67.043-19.442-2.521-3.494-1.552-6.971-3.483-9.044-6.4-.37-.52-.607-1.707.13-1.948" style="fill:none;stroke:#000;stroke-width:1;stroke-dasharray:none"/><path d="M335.162 581.133c.433 1.635-1.341 2.675-2.572 3.278-3.29 1.612-6.582 2.597-10.185 3.105-4.661.657-11.448.873-17.693-.689-3.653-.913-7.967-2.85-9.723-5.373-.522-.75 2.057-.533 2.59-.454" style="fill:none;stroke:#000;stroke-width:1;stroke-dasharray:none"/><path d="M380.856 579.395c1.516-.114 1.02 3.724.108 5.305-2.073 3.59-6.055 6.033-10.504 7.44-6.988 2.21-15.285 2.003-21.75.074-4.735-1.412-9.78-3.36-12.616-7.625a13.039 13.039 0 0 1-1.55-3.225" style="fill:none;stroke:#000;stroke-width:1;stroke-dasharray:none"/><path d="M431.966 583.045c1.93.914.858 3.087-.71 4.115-6.598 4.326-15.423 6.238-23.614 6.006-7.255-.204-14.689-1.622-21.138-5.136-2.963-1.615-5.944-4.403-6.424-7.395-.084-.526.131-1.232.776-1.24" style="fill:none;stroke:#000;stroke-width:1;stroke-dasharray:none"/><path d="M463.636 578.945c1.147-.646 2.82 1.644 2.184 3.077-.89 2.007-3.083 2.998-4.926 3.982-6.341 3.385-13.957 4.386-20.954 2.7-2.887-.696-5.688-1.943-8.004-3.83-.558-.453-2.126-2.47-.408-1.983.65.183.138.043.206.067.078.028.232.087.232.087" style="fill:none;stroke:#000;stroke-width:1;stroke-dasharray:none"/><path d="M502.366 561.628c2.07.508 4.402 2.183 5.62 3.567 4.553 5.17 2.012 12.714-5.454 17.709-7.333 4.906-20.16 6.636-28.73 3.676-3.945-1.362-8.303-3.92-10.226-6.278-.202-.248-.38-1.157.06-1.357" style="fill:none;stroke:#000;stroke-width:1;stroke-dasharray:none"/><path d="M498.397 528.965c-1.136-1.105 1.829-1.124 2.64-.97 3.867.739 7.68 2.367 11.185 5.477 2.08 1.845 3.94 4.459 4.809 6.337 1.912 4.14 2.23 9.438.658 12.659-2.85 5.837-9.294 9.145-14.604 9.457-.283.017-2.092-.487-.913-.417" style="fill:none;stroke:#000;stroke-width:1;stroke-dasharray:none"/><path d="M493.626 498.271c.89.068 1.768.159 2.65.241 1.97.184 7.506 1.582 11.1 4.764 3.25 2.876 5.017 6.796 4.98 10.977-.041 4.72-2.725 8.662-6.277 11.608-1.937 1.543-4.653 3.222-7.323 3.193" style="fill:none;stroke:#000;stroke-width:.999996;stroke-dasharray:none"/><path d="M449.177 487.857c.57-4.64 6.718-7.406 8.36-7.94 9.13-2.972 18.056.017 22.203 1.776 5.188 2.2 10.704 6.097 13.396 11.062.722 1.331 2.24 4.964.809 6.242" style="fill:none;stroke:#000;stroke-width:1;stroke-dasharray:none"/><path d="M413.266 493.205c-1.122.638-1.49-1.326-.43-3.424.768-1.52 2.432-3.266 4.1-4.383 6.628-4.439 16.195-4.619 23.709-2.72 4.008 1.012 6.738 2.107 9.295 4.412.598.54.412 1.248.027 1.572-.303.257-.863-.137-.787-.812" style="fill:none;stroke:#000;stroke-width:1;stroke-dasharray:none"/><path d="M364.516 491.725c-1.38 2.14-4.42.89-5.442-.283-1.155-1.326-.934-3.008 1.149-4.793 2.924-2.508 7.04-3.831 11.224-4.362 8.556-1.085 16.976-.541 24.402 1.379 4.96 1.283 11.178 3.11 15.36 6.21 1.614 1.196 2.778 2.85 2.057 3.33" style="fill:none;stroke:#000;stroke-width:1;stroke-dasharray:none"/><path d="M304.476 489.465c-.87-.873.788-2.516 2.513-3.478 4.046-2.258 10.134-4.168 16.077-5.263 9.382-1.729 22.045-1.958 30.74 1.456 3.603 1.415 7.932 3.692 10.413 6.85.592.755.833 1.839.297 2.695" style="fill:none;stroke:#000;stroke-width:1;stroke-dasharray:none"/><path d="M258.276 494.875c-.33-.78.806-2.145 1.227-2.511 3.998-3.471 8.691-5.916 13.647-7.693 6.566-2.355 14.43-3.103 20.624-1.99 2.396.431 7.96 1.876 10.802 6.064.196.289.85 1.61-.1.75" style="fill:none;stroke:#000;stroke-width:1;stroke-dasharray:none"/><path d="M146.613 490.894c-2.681-2.393-6.134-3.736-12.168-4.143-1.437-.096-5.234-.029-7.04.336-2.339.471-6.443 1.78-9.278 3.77-1.526 1.071-4.127 3.182-5.993 5.755-2.111 2.912-3.656 6.423-3.346 10.263.208 2.57 2.26 6.403 4.754 7.777 1.241.685 2.537 1.14 3.84.943" style="fill:none;stroke:#000;stroke-width:.999996;stroke-dasharray:none"/><path d="M187.316 491.165c.1-2.373-1.84-5.1-3.384-6.632-2.176-2.16-5.806-4.751-10.526-6.694-6.657-2.74-13.114-2.138-18.572.518-2.913 1.418-5.116 3.318-6.622 5.08-1.283 1.502-3.082 5.3-2.498 7.417.063.228.446.172.682.161" style="fill:none;stroke:#000;stroke-width:1;stroke-dasharray:none"/><path d="M225.906 493.155c1.1-.72-.377-2.37-.947-3.146-1.96-2.665-5.954-4.946-9.383-6.274-6.664-2.58-15.423-2.778-22.665-.277-2.475.855-5.975 2.336-7.55 4.583-1.015 1.275-.352 3.336 1.156 3.57.321-.006.604-.204.8-.446" style="fill:none;stroke:#000;stroke-width:1;stroke-dasharray:none"/><path d="M225.906 493.01c-.94-.504-.9-1.708-.65-2.633.21-.3.37-.645.62-.903 3.648-3.635 10.112-4.365 12.818-4.513 6.532-.355 12.132.97 17.254 5.528.43.383 1.148 1.257 1.55 1.844.085.125 1.278 2.505 1.038 2.742-.08.075-.27-.226-.26-.215" style="fill:none;stroke:#000;stroke-width:1;stroke-dasharray:none"/><g style="display:inline"><path d="M295.91 65.34q-.558-1.202-.558-2.243 0-1.177.694-2.181.694-1.017 1.76-1.636 1.078-.62 2.23-.62 1.29 0 2.145.719.867.706.867 1.698 0 .743-.421 1.376-.41.632-.868.632-.223 0-.223-.236 0-.087.124-.384.198-.483.198-.98 0-.743-.607-1.201-.607-.471-1.462-.471-1.376 0-2.578 1.14-1.19 1.128-1.19 2.59 0 .657.173 1.116.174.446.31.582.149.137.41.137 1.71 0 1.71.991 0 .248-.186.471-.174.223-.52.223-.385 0-.98-.508-.632-.545-1.24-.545-.78 0-1.487.78-.694.769-.694 1.835 0 2.07 2.058 3.916 2.057 1.835 5.118 1.835 2.9 0 4.958-1.438 2.07-1.45 2.07-3.458 0-1.339-1.016-2.318-1.017-.991-2.752-.991-1.4 0-2.504.768-1.09.769-1.09 1.921 0 .694.396 1.14.397.447.818.447.484 0 .484-.52l-.013-.15q-.012-.16-.012-.223 0-.545.297-.892.298-.36.756-.36.434 0 .757.31.322.298.322.843 0 .781-.546 1.302-.533.52-1.375.52-1.004 0-1.735-.706-.72-.72-.72-1.76 0-1.525 1.277-2.777 1.277-1.251 4.636-1.251 3.011 0 4.375-.83 1.363-.819 1.363-2.492 0-.992-.607-1.624-.607-.644-1.537-.644-.459 0-.694.136-.223.124-.223.397 0 .173.223.496.285.409.285.793 0 .458-.36.805-.347.347-.867.347-.62 0-.942-.396-.322-.397-.322-.93 0-.843.818-1.512.83-.67 2.107-.67 1.314 0 2.181.968.88.954.88 2.305 0 1.277-.756 2.33-.744 1.054-1.896 1.487-1.14.434-3.21.509 1.983 1.4 1.983 3.594 0 1.648-1.215 3.185-1.215 1.537-2.95 2.28-1.722.744-4.214.744-2.02 0-3.272-.433-1.252-.447-2.392-1.29-1.128-.842-1.785-2.057-.644-1.227-.644-2.627 0-1.71.979-2.876.98-1.165 2.9-1.438z" aria-label="&amp;" style="font-style:italic;font-size:28.9747px;font-family:Baskerville;-inkscape-font-specification:&quot;Baskerville Italic&quot;;text-align:center;text-anchor:middle;stroke-width:1.2"/><g style="stroke-width:1.09938" transform="matrix(.01732 0 0 -.01732 150.329 72.034)"><path d="M0 220h620v60H0z" style="stroke-width:1.09938"/><use xlink:href="#a" x="60" y="676" style="stroke-width:1.09938"/><use xlink:href="#b" style="stroke-width:1.09938" transform="translate(60 -975)"/></g><use xlink:href="#c" x="5225" style="stroke-width:1.09938" transform="matrix(.01732 0 0 -.01732 78.618 72.034)"/><g style="stroke-width:1.09938" transform="matrix(.01732 0 0 -.01732 190.608 72.034)"><path d="M0 220h1121v60H0z" style="stroke-width:1.09938"/><use xlink:href="#d" x="310" y="676" style="stroke-width:1.09938"/><g style="stroke-width:1.09938" transform="translate(60 -975)"><use xlink:href="#d" style="stroke-width:1.09938"/><use xlink:href="#e" x="500" style="stroke-width:1.09938"/></g></g><use xlink:href="#f" x="12006" style="stroke-width:1.09938" transform="matrix(.01732 0 0 -.01732 11.711 72.034)"/><g style="stroke-width:1.09938" transform="matrix(.01732 0 0 -.01732 242.733 72.034)"><path d="M0 220h1121v60H0z" style="stroke-width:1.09938"/><use xlink:href="#a" x="310" y="676" style="stroke-width:1.09938"/><g style="stroke-width:1.09938" transform="translate(60 -975)"><use xlink:href="#b" style="stroke-width:1.09938"/><use xlink:href="#e" x="500" style="stroke-width:1.09938"/></g></g><g transform="matrix(.01904 0 0 -.01904 0 -164.07)"><use xlink:href="#g"/><g transform="translate(912)"><path d="M0 220h620v60H0z"/><use xlink:href="#a" x="60" y="676"/><use xlink:href="#b" transform="translate(60 -975)"/></g><g transform="translate(1819)"><use xlink:href="#h"/><path d="M703 220h983v60H703z"/><text transform="matrix(53.819 0 0 -53.819 763 743)">m</text><text transform="matrix(53.819 0 0 -53.819 1015 -944)">s</text><use xlink:href="#i" x="1807" y="-1"/></g><use xlink:href="#j" x="4210"/><use xlink:href="#c" x="5225"/><g transform="translate(6225)"><use xlink:href="#g"/><g transform="translate(912)"><path d="M0 220h1121v60H0z"/><use xlink:href="#d" x="310" y="676"/><g transform="translate(60 -975)"><use xlink:href="#d"/><use xlink:href="#e" x="500"/></g></g><g transform="translate(2320)"><use xlink:href="#h"/><path d="M703 220h983v60H703z"/><text transform="matrix(53.819 0 0 -53.819 931 743)">$</text><text transform="matrix(53.819 0 0 -53.819 763 -944)">m</text><use xlink:href="#i" x="1807" y="-1"/></g><use xlink:href="#j" x="4710"/></g><use xlink:href="#f" x="12006"/><g transform="translate(13183)"><path d="M0 220h1121v60H0z"/><use xlink:href="#a" x="310" y="676"/><g transform="translate(60 -975)"><use xlink:href="#b"/><use xlink:href="#e" x="500"/></g></g><g transform="translate(14590)"><use xlink:href="#h"/><path d="M703 220h647v60H703z"/><text transform="matrix(53.819 0 0 -53.819 763 743)">$</text><text transform="matrix(53.819 0 0 -53.819 847 -944)">s</text><use xlink:href="#i" x="1470" y="-1"/></g><use xlink:href="#k" x="16811"/></g><g transform="matrix(.01904 0 0 -.01904 -457.752 72.464)"><path d="M0 220h620v60H0z"/><use xlink:href="#a" x="60" y="676"/><use xlink:href="#b" transform="translate(60 -975)"/></g><use xlink:href="#h" transform="matrix(.01904 0 0 -.01904 -440.483 72.464)"/><path d="M-427.098 68.275h18.717v-1.142h-18.717z"/><path d="M2.735-8.12h.095q.277.639.277 1.64.638-.82 1.372-1.23.743-.41 1.592-.41.962 0 1.563.439.6.438.838 1.315.725-.877 1.487-1.315.762-.439 1.553-.439.906 0 1.535.42.629.419.762.953.134.533.134 1.725v2.344q0 1.363.047 1.658.057.296.305.439.257.143.944.143V0H11.34v-.438q.62 0 .867-.134.257-.143.315-.42.057-.285.057-1.686V-5.28q0-.79-.096-1.19-.085-.401-.467-.687-.38-.286-.99-.286-.62 0-1.25.42-.619.419-1.248 1.267v3.078q0 1.248.029 1.573.038.314.267.495.238.172.838.172V0H5.89v-.438q.638 0 .886-.134.257-.133.314-.41.067-.276.067-1.696v-2.163q0-1.03-.086-1.487-.076-.467-.486-.791-.41-.334-1.02-.334-.59 0-1.21.382-.61.38-1.248 1.143v3.25q0 1.287.038 1.601.038.315.286.477.248.162.886.162V0H.496v-.438q.629 0 .876-.134.258-.143.315-.42.057-.276.057-1.686v-2.335q0-1.334-.048-1.63-.038-.304-.295-.457-.248-.152-.905-.152v-.439q1.353-.133 2.24-.429Z" aria-label="m" style="font-size:19.5176px;font-family:Baskerville;-inkscape-font-specification:Baskerville" transform="matrix(1.02471 0 0 1.02471 -425.955 58.317)"/><path d="M.791.248v-2.564h.372q.648 2.22 2.315 2.22.725 0 1.077-.438.363-.438.363-.962 0-.61-.382-1-.39-.392-1.515-.944-1.182-.582-1.696-1.144Q.81-5.137.81-5.947q0-.772.553-1.467.553-.706 1.553-.706 1.02 0 1.687.83.143-.143.372-.696h.352v2.41h-.352q-.19-.866-.744-1.486-.543-.629-1.286-.629-.572 0-.925.353-.352.352-.352.82 0 .514.39.886.382.38 1.459.867 1.62.734 1.982 1.43.362.705.362 1.353 0 1.02-.677 1.658-.667.638-1.686.638-1.077 0-1.916-.886-.257.286-.42.82z" aria-label="s" style="font-size:19.5176px;font-family:Baskerville;-inkscape-font-specification:Baskerville" transform="matrix(1.02471 0 0 1.02471 -421.157 90.438)"/><use xlink:href="#i" x="1807" y="-1" transform="matrix(.01904 0 0 -.01904 -440.483 72.464)"/><use xlink:href="#c" x="5225" transform="matrix(.01904 0 0 -.01904 -475.117 72.464)"/><g transform="matrix(.01904 0 0 -.01904 -339.228 72.464)"><path d="M0 220h1121v60H0z"/><use xlink:href="#d" x="310" y="676"/><g transform="translate(60 -975)"><use xlink:href="#d"/><use xlink:href="#e" x="500"/></g></g><use xlink:href="#h" transform="matrix(.01904 0 0 -.01904 -312.42 72.464)"/><path d="M-299.035 68.275h18.717v-1.142h-18.717z"/><path d="M3.316.181q-1.02-.248-1.715-.877-.705-.648-.705-1.191 0-.305.162-.486.171-.181.39-.181.477 0 .63.696.276 1.143 1.238 1.544v-6.147Q1.02-7.491 1.02-9.597q0-1.048.62-1.84.619-.771 1.676-1.105v-.657h.41v.553q.467-.086.991-.086.41 0 .896.086v-.553h.41v.657q1.105.315 1.725 1.02.629.705.629 1.296 0 .305-.172.486-.171.172-.371.172-.286 0-.439-.2-.162-.22-.286-.868-.2-1.057-1.086-1.41v5.26q2.64 1.087 2.64 3.45 0 1.106-.658 2.059-.648.943-1.982 1.363V2h-.41V.181q-.62.133-1.162.133-.372 0-.725-.057v1.744h-.41Zm.41-7.929 1.887.8v-5.28q-.486-.123-1.01-.123-.505 0-.877.124zm-.41-4.393q-1.429.676-1.429 2.153 0 1.325 1.43 2.04zm.41 5.86v6.09q.372.096.83.096.571 0 1.057-.153V-5.45ZM6.023-.437Q7.7-1.172 7.7-2.954q0-1.582-1.677-2.316z" aria-label="$" style="font-size:19.5176px;font-family:Baskerville;-inkscape-font-specification:Baskerville" transform="matrix(1.02471 0 0 1.02471 -294.694 58.317)"/><path d="M2.735-8.12h.095q.277.639.277 1.64.638-.82 1.372-1.23.743-.41 1.592-.41.962 0 1.563.439.6.438.838 1.315.725-.877 1.487-1.315.762-.439 1.553-.439.906 0 1.535.42.629.419.762.953.134.533.134 1.725v2.344q0 1.363.047 1.658.057.296.305.439.257.143.944.143V0H11.34v-.438q.62 0 .867-.134.257-.143.315-.42.057-.285.057-1.686V-5.28q0-.79-.096-1.19-.085-.401-.467-.687-.38-.286-.99-.286-.62 0-1.25.42-.619.419-1.248 1.267v3.078q0 1.248.029 1.573.038.314.267.495.238.172.838.172V0H5.89v-.438q.638 0 .886-.134.257-.133.314-.41.067-.276.067-1.696v-2.163q0-1.03-.086-1.487-.076-.467-.486-.791-.41-.334-1.02-.334-.59 0-1.21.382-.61.38-1.248 1.143v3.25q0 1.287.038 1.601.038.315.286.477.248.162.886.162V0H.496v-.438q.629 0 .876-.134.258-.143.315-.42.057-.276.057-1.686v-2.335q0-1.334-.048-1.63-.038-.304-.295-.457-.248-.152-.905-.152v-.439q1.353-.133 2.24-.429Z" aria-label="m" style="font-size:19.5176px;font-family:Baskerville;-inkscape-font-specification:Baskerville" transform="matrix(1.02471 0 0 1.02471 -297.892 90.438)"/><use xlink:href="#i" x="1807" y="-1" transform="matrix(.01904 0 0 -.01904 -312.42 72.464)"/><use xlink:href="#f" x="12006" transform="matrix(.01904 0 0 -.01904 -475.117 72.464)"/><g transform="matrix(.01904 0 0 -.01904 -224.112 72.464)"><path d="M0 220h1121v60H0z"/><use xlink:href="#a" x="310" y="676"/><g transform="translate(60 -975)"><use xlink:href="#b"/><use xlink:href="#e" x="500"/></g></g><use xlink:href="#h" transform="matrix(.01904 0 0 -.01904 -197.323 72.464)"/><path d="M-183.938 68.275h12.319v-1.142h-12.319z"/><path d="M3.316.181q-1.02-.248-1.715-.877-.705-.648-.705-1.191 0-.305.162-.486.171-.181.39-.181.477 0 .63.696.276 1.143 1.238 1.544v-6.147Q1.02-7.491 1.02-9.597q0-1.048.62-1.84.619-.771 1.676-1.105v-.657h.41v.553q.467-.086.991-.086.41 0 .896.086v-.553h.41v.657q1.105.315 1.725 1.02.629.705.629 1.296 0 .305-.172.486-.171.172-.371.172-.286 0-.439-.2-.162-.22-.286-.868-.2-1.057-1.086-1.41v5.26q2.64 1.087 2.64 3.45 0 1.106-.658 2.059-.648.943-1.982 1.363V2h-.41V.181q-.62.133-1.162.133-.372 0-.725-.057v1.744h-.41Zm.41-7.929 1.887.8v-5.28q-.486-.123-1.01-.123-.505 0-.877.124zm-.41-4.393q-1.429.676-1.429 2.153 0 1.325 1.43 2.04zm.41 5.86v6.09q.372.096.83.096.571 0 1.057-.153V-5.45ZM6.023-.437Q7.7-1.172 7.7-2.954q0-1.582-1.677-2.316z" aria-label="$" style="font-size:19.5176px;font-family:Baskerville;-inkscape-font-specification:Baskerville" transform="matrix(1.02471 0 0 1.02471 -182.796 58.317)"/><path d="M.791.248v-2.564h.372q.648 2.22 2.315 2.22.725 0 1.077-.438.363-.438.363-.962 0-.61-.382-1-.39-.392-1.515-.944-1.182-.582-1.696-1.144Q.81-5.137.81-5.947q0-.772.553-1.467.553-.706 1.553-.706 1.02 0 1.687.83.143-.143.372-.696h.352v2.41h-.352q-.19-.866-.744-1.486-.543-.629-1.286-.629-.572 0-.925.353-.352.352-.352.82 0 .514.39.886.382.38 1.459.867 1.62.734 1.982 1.43.362.705.362 1.353 0 1.02-.677 1.658-.667.638-1.686.638-1.077 0-1.916-.886-.257.286-.42.82z" aria-label="s" style="font-size:19.5176px;font-family:Baskerville;-inkscape-font-specification:Baskerville" transform="matrix(1.02471 0 0 1.02471 -181.196 90.438)"/><use xlink:href="#i" x="1470" y="-1" transform="matrix(.01904 0 0 -.01904 -197.323 72.464)"/><g style="stroke-width:.828759" transform="matrix(1.20662 0 0 1.20662 15.126 -13.99)"><use xlink:href="#h" style="stroke-width:1.09938" transform="matrix(.01435 0 0 -.01435 267.257 71.292)"/><g style="stroke-width:1.09938"><path d="M0 220h983v60H0z" style="stroke-width:1.09938" transform="matrix(.01435 0 0 -.01435 277.348 71.292)"/><g style="stroke-width:1.09938"><path d="M2.735-8.12h.095q.277.639.277 1.64.638-.82 1.372-1.23.743-.41 1.592-.41.962 0 1.563.439.6.438.838 1.315.725-.877 1.487-1.315.762-.439 1.553-.439.906 0 1.535.42.629.419.762.953.134.533.134 1.725v2.344q0 1.363.047 1.658.057.296.305.439.257.143.944.143V0H11.34v-.438q.62 0 .867-.134.257-.143.315-.42.057-.285.057-1.686V-5.28q0-.79-.096-1.19-.085-.401-.467-.687-.38-.286-.99-.286-.62 0-1.25.42-.619.419-1.248 1.267v3.078q0 1.248.029 1.573.038.314.267.495.238.172.838.172V0H5.89v-.438q.638 0 .886-.134.257-.133.314-.41.067-.276.067-1.696v-2.163q0-1.03-.086-1.487-.076-.467-.486-.791-.41-.334-1.02-.334-.59 0-1.21.382-.61.38-1.248 1.143v3.25q0 1.287.038 1.601.038.315.286.477.248.162.886.162V0H.496v-.438q.629 0 .876-.134.258-.143.315-.42.057-.276.057-1.686v-2.335q0-1.334-.048-1.63-.038-.304-.295-.457-.248-.152-.905-.152v-.439q1.353-.133 2.24-.429Z" aria-label="m" style="font-size:19.5176px;font-family:Baskerville;-inkscape-font-specification:Baskerville;stroke-width:1.09938" transform="translate(278.209 60.628) scale(.77247)"/></g><g style="stroke-width:1.09938"><path d="M.791.248v-2.564h.372q.648 2.22 2.315 2.22.725 0 1.077-.438.363-.438.363-.962 0-.61-.382-1-.39-.392-1.515-.944-1.182-.582-1.696-1.144Q.81-5.137.81-5.947q0-.772.553-1.467.553-.706 1.553-.706 1.02 0 1.687.83.143-.143.372-.696h.352v2.41h-.352q-.19-.866-.744-1.486-.543-.629-1.286-.629-.572 0-.925.353-.352.352-.352.82 0 .514.39.886.382.38 1.459.867 1.62.734 1.982 1.43.362.705.362 1.353 0 1.02-.677 1.658-.667.638-1.686.638-1.077 0-1.916-.886-.257.286-.42.82z" aria-label="s" style="font-size:19.5176px;font-family:Baskerville;-inkscape-font-specification:Baskerville;stroke-width:1.09938" transform="translate(281.826 84.841) scale(.77247)"/></g></g><use xlink:href="#i" x="1807" y="-1" style="stroke-width:1.09938" transform="matrix(.01435 0 0 -.01435 267.257 71.292)"/></g><g style="stroke-width:.828759" transform="matrix(1.20662 0 0 1.20662 15.433 -13.99)"><use xlink:href="#h" style="stroke-width:1.09938" transform="matrix(.01435 0 0 -.01435 321.07 71.292)"/><g style="stroke-width:1.09938"><path d="M0 220h983v60H0z" style="stroke-width:1.09938" transform="matrix(.01435 0 0 -.01435 331.16 71.292)"/><g style="stroke-width:1.09938"><path d="M3.316.181q-1.02-.248-1.715-.877-.705-.648-.705-1.191 0-.305.162-.486.171-.181.39-.181.477 0 .63.696.276 1.143 1.238 1.544v-6.147Q1.02-7.491 1.02-9.597q0-1.048.62-1.84.619-.771 1.676-1.105v-.657h.41v.553q.467-.086.991-.086.41 0 .896.086v-.553h.41v.657q1.105.315 1.725 1.02.629.705.629 1.296 0 .305-.172.486-.171.172-.371.172-.286 0-.439-.2-.162-.22-.286-.868-.2-1.057-1.086-1.41v5.26q2.64 1.087 2.64 3.45 0 1.106-.658 2.059-.648.943-1.982 1.363V2h-.41V.181q-.62.133-1.162.133-.372 0-.725-.057v1.744h-.41Zm.41-7.929 1.887.8v-5.28q-.486-.123-1.01-.123-.505 0-.877.124zm-.41-4.393q-1.429.676-1.429 2.153 0 1.325 1.43 2.04zm.41 5.86v6.09q.372.096.83.096.571 0 1.057-.153V-5.45ZM6.023-.437Q7.7-1.172 7.7-2.954q0-1.582-1.677-2.316z" aria-label="$" style="font-size:19.5176px;font-family:Baskerville;-inkscape-font-specification:Baskerville;stroke-width:1.09938" transform="translate(334.433 60.628) scale(.77247)"/></g><g style="stroke-width:1.09938"><path d="M2.735-8.12h.095q.277.639.277 1.64.638-.82 1.372-1.23.743-.41 1.592-.41.962 0 1.563.439.6.438.838 1.315.725-.877 1.487-1.315.762-.439 1.553-.439.906 0 1.535.42.629.419.762.953.134.533.134 1.725v2.344q0 1.363.047 1.658.057.296.305.439.257.143.944.143V0H11.34v-.438q.62 0 .867-.134.257-.143.315-.42.057-.285.057-1.686V-5.28q0-.79-.096-1.19-.085-.401-.467-.687-.38-.286-.99-.286-.62 0-1.25.42-.619.419-1.248 1.267v3.078q0 1.248.029 1.573.038.314.267.495.238.172.838.172V0H5.89v-.438q.638 0 .886-.134.257-.133.314-.41.067-.276.067-1.696v-2.163q0-1.03-.086-1.487-.076-.467-.486-.791-.41-.334-1.02-.334-.59 0-1.21.382-.61.38-1.248 1.143v3.25q0 1.287.038 1.601.038.315.286.477.248.162.886.162V0H.496v-.438q.629 0 .876-.134.258-.143.315-.42.057-.276.057-1.686v-2.335q0-1.334-.048-1.63-.038-.304-.295-.457-.248-.152-.905-.152v-.439q1.353-.133 2.24-.429Z" aria-label="m" style="font-size:19.5176px;font-family:Baskerville;-inkscape-font-specification:Baskerville;stroke-width:1.09938" transform="translate(332.022 84.841) scale(.77247)"/></g></g><use xlink:href="#i" x="1807" y="-1" style="stroke-width:1.09938" transform="matrix(.01435 0 0 -.01435 321.07 71.292)"/></g><g style="stroke-width:.828759" transform="matrix(1.20662 0 0 1.20662 7.606 -13.99)"><use xlink:href="#h" style="stroke-width:1.09938" transform="matrix(.01435 0 0 -.01435 384.25 71.292)"/><g style="stroke-width:1.09938"><path d="M0 220h647v60H0z" style="stroke-width:1.09938" transform="matrix(.01435 0 0 -.01435 394.34 71.292)"/><g style="stroke-width:1.09938"><path d="M3.316.181q-1.02-.248-1.715-.877-.705-.648-.705-1.191 0-.305.162-.486.171-.181.39-.181.477 0 .63.696.276 1.143 1.238 1.544v-6.147Q1.02-7.491 1.02-9.597q0-1.048.62-1.84.619-.771 1.676-1.105v-.657h.41v.553q.467-.086.991-.086.41 0 .896.086v-.553h.41v.657q1.105.315 1.725 1.02.629.705.629 1.296 0 .305-.172.486-.171.172-.371.172-.286 0-.439-.2-.162-.22-.286-.868-.2-1.057-1.086-1.41v5.26q2.64 1.087 2.64 3.45 0 1.106-.658 2.059-.648.943-1.982 1.363V2h-.41V.181q-.62.133-1.162.133-.372 0-.725-.057v1.744h-.41Zm.41-7.929 1.887.8v-5.28q-.486-.123-1.01-.123-.505 0-.877.124zm-.41-4.393q-1.429.676-1.429 2.153 0 1.325 1.43 2.04zm.41 5.86v6.09q.372.096.83.096.571 0 1.057-.153V-5.45ZM6.023-.437Q7.7-1.172 7.7-2.954q0-1.582-1.677-2.316z" aria-label="$" style="font-size:19.5176px;font-family:Baskerville;-inkscape-font-specification:Baskerville;stroke-width:1.09938" transform="translate(395.201 60.628) scale(.77247)"/></g><g style="stroke-width:1.09938"><path d="M.791.248v-2.564h.372q.648 2.22 2.315 2.22.725 0 1.077-.438.363-.438.363-.962 0-.61-.382-1-.39-.392-1.515-.944-1.182-.582-1.696-1.144Q.81-5.137.81-5.947q0-.772.553-1.467.553-.706 1.553-.706 1.02 0 1.687.83.143-.143.372-.696h.352v2.41h-.352q-.19-.866-.744-1.486-.543-.629-1.286-.629-.572 0-.925.353-.352.352-.352.82 0 .514.39.886.382.38 1.459.867 1.62.734 1.982 1.43.362.705.362 1.353 0 1.02-.677 1.658-.667.638-1.686.638-1.077 0-1.916-.886-.257.286-.42.82z" aria-label="s" style="font-size:19.5176px;font-family:Baskerville;-inkscape-font-specification:Baskerville;stroke-width:1.09938" transform="translate(396.407 84.841) scale(.77247)"/></g></g><use xlink:href="#i" x="1470" y="-1" style="stroke-width:1.09938" transform="matrix(.01435 0 0 -.01435 384.25 71.292)"/></g><use xlink:href="#f" x="12006" style="stroke-width:1.09938" transform="matrix(.01732 0 0 -.01732 243.068 72.034)"/><use xlink:href="#c" x="5225" style="stroke-width:1.09938" transform="matrix(.01732 0 0 -.01732 293.692 72.034)"/><g style="stroke:red;stroke-opacity:1;stroke-width:1.5;stroke-dasharray:none"><path d="M348.834 62.236c.892-.62 1.793-1.228 2.696-1.832a68.503 68.503 0 0 1 4.232-2.741 72.204 72.204 0 0 0 4.967-3.077 210.624 210.624 0 0 0 4.373-3.094 97.662 97.662 0 0 1 2.186-1.544l-1.021-.643c-.728.52-1.464 1.028-2.181 1.562a195.273 195.273 0 0 1-4.354 3.073c-1.607 1.078-3.265 2.073-4.943 3.04a82.958 82.958 0 0 0-4.262 2.771c-.906.61-1.813 1.219-2.715 1.834z" style="color:#000;fill:red;stroke:red;stroke-opacity:1;stroke-width:1.5;stroke-dasharray:none"/><path d="m366.25 48.703-.273.195c-.725.517-1.463 1.028-2.19 1.569a194.768 194.768 0 0 1-4.338 3.06c-1.592 1.067-3.239 2.057-4.91 3.02l-.004.002-.004.004a83.446 83.446 0 0 0-4.283 2.783l-.004.002-.002.002c-.905.608-1.809 1.217-2.711 1.832l-.627.428 1.943 1.238.274-.192c.887-.618 1.785-1.222 2.687-1.826l.004-.004.004-.004a68.019 68.019 0 0 1 4.194-2.714l.01-.006c1.7-.968 3.37-1.99 4.99-3.094h.002a211.213 211.213 0 0 0 4.385-3.102h.002a97.253 97.253 0 0 1 2.173-1.537l.623-.431z" style="color:#000;fill:red;stroke:red;stroke-opacity:1;stroke-width:1.5;stroke-dasharray:none"/></g><g style="stroke:red;stroke-width:1.4;stroke-dasharray:none;stroke-opacity:1"><path d="M416.412 89.931c.361-.312.76-.596 1.156-.878.795-.54 1.583-1.085 2.38-1.622.917-.566 1.768-1.194 2.617-1.824.964-.72 1.942-1.43 2.903-2.154a87.604 87.604 0 0 1 2.858-2.154c.896-.666 1.77-1.35 2.661-2.02.592-.434 1.174-.88 1.788-1.294l-.934-.34c-.604.433-1.202.873-1.793 1.32-.884.67-1.758 1.35-2.655 2.01-.967.71-1.922 1.43-2.861 2.163-.963.72-1.937 1.43-2.9 2.15a46.503 46.503 0 0 1-2.605 1.797c-.8.544-1.601 1.088-2.394 1.638-.4.29-.792.589-1.175.893z" style="color:#000;fill:red;stroke:red;stroke-width:1.4;stroke-dasharray:none;stroke-opacity:1" transform="rotate(2.891 424.198 83.749)"/><path d="m431.727 76.805-.323.23a88.59 88.59 0 0 0-1.808 1.332c-.889.675-1.76 1.351-2.647 2.004-.973.713-1.933 1.437-2.879 2.176-.954.713-1.922 1.42-2.886 2.139a45.768 45.768 0 0 1-2.559 1.767l-.01.006-.01.006c-.8.544-1.603 1.089-2.4 1.643l-.008.003-.006.006c-.409.297-.808.602-1.2.912l-1.09.864 2.678.884.323-.279c.325-.28.705-.552 1.101-.834.794-.538 1.576-1.08 2.363-1.611l-.025.015c.951-.586 1.82-1.229 2.67-1.859h.002c.958-.717 1.938-1.427 2.906-2.156l.008-.006.008-.006a87.041 87.041 0 0 1 2.834-2.137l.002-.002.002-.002c.904-.671 1.777-1.354 2.658-2.017l.006-.004c.598-.44 1.17-.876 1.758-1.272l1.22-.822z" style="color:#000;fill:red;stroke:red;stroke-width:1.4;stroke-dasharray:none;stroke-opacity:1" transform="rotate(2.891 424.198 83.749)"/></g><path d="M341.827-92.312c1.603-.971 3.221-1.917 4.843-2.857a117.382 117.382 0 0 1 7.588-4.249c3.022-1.47 5.994-3.032 8.887-4.743a361.357 361.357 0 0 0 7.871-4.844 167.56 167.56 0 0 1 3.933-2.418l-1.674-1.24c-1.311.814-2.634 1.61-3.928 2.45-2.59 1.638-5.201 3.244-7.836 4.81-2.885 1.677-5.848 3.206-8.84 4.682a142.153 142.153 0 0 0-7.643 4.298c-1.628.948-3.255 1.896-4.876 2.856zM405.248-63.644c.896-.52 1.845-.952 2.789-1.38 1.874-.796 3.74-1.611 5.618-2.4 2.124-.782 4.164-1.755 6.202-2.733 2.318-1.125 4.654-2.212 6.968-3.346 2.263-1.19 4.571-2.286 6.884-3.375 2.15-1.034 4.274-2.126 6.418-3.174 1.418-.67 2.824-1.375 4.27-1.982l-1.553-1.393a172.47 172.47 0 0 0-4.297 2.041c-2.132 1.055-4.252 2.136-6.4 3.158a233.998 233.998 0 0 0-6.895 3.391c-2.315 1.123-4.645 2.216-6.961 3.336-2.025.962-4.07 1.872-6.162 2.68a522.02 522.02 0 0 0-5.656 2.428c-.955.446-1.9.914-2.834 1.404z" style="fill:red;fill-opacity:1;stroke:red;stroke-width:1;stroke-dasharray:none"/></g></svg>