<svg xmlns="http://www.w3.org/2000/svg" xmlns:xlink="http://www.w3.org/1999/xlink" id="svg171797" width="800" height="200" preserveAspectRatio="none" version="1.1" viewBox="-10 -10 800 200"><style id="style171643" type="text/css">.grid{stroke:#9e9ed1;stroke-width:.4}.axes{stroke:#000;stroke-width:.9}.graph,.graph-blue{stroke:red;stroke-width:1.7;fill:none}.graph-blue{stroke:#00f}.graph-green,.graph-yellow{stroke:#dd0;stroke-width:1.7;fill:none}.graph-green{stroke:#0c0}</style><defs id="defs171655"><path id="STIXWEBMAIN-2212" stroke-width="1" d="M621 220H64v66h557z"/><path id="STIXWEBMAIN-31" stroke-width="1" d="M394 0H118v15c74 4 95 25 95 80v449c0 34-9 49-30 49-10 0-27-5-45-12l-27-10v14l179 91 9-3V76c0-43 20-61 95-61z"/><path id="STIXWEBMAIN-32" stroke-width="1" d="M474 137 420 0H29v12l178 189c94 99 130 175 130 260 0 91-54 141-139 141-72 0-107-32-147-130l-21 5c21 117 85 199 208 199 113 0 185-77 185-176 0-79-39-154-128-248L130 76h234c42 0 63 11 96 67z"/><path id="STIXWEBMAIN-39" stroke-width="1" d="M59-22 56-2c152 27 264 132 304 296-43-42-91-57-150-57-108 0-180 81-180 203 0 135 89 236 208 236 64 0 118-28 157-76 40-50 64-122 64-206 0-115-40-224-120-297C254 20 189-4 59-22Zm303 377v39c0 168-45 254-132 254-30 0-56-12-73-34-20-27-35-86-35-140 0-119 48-194 123-194 44 0 117 22 117 75z"/><path id="STIXWEBMAIN-36" stroke-width="1" d="m446 684 2-16c-157-26-269-134-296-285 49 38 83 45 127 45 117 0 189-80 189-209 0-64-18-120-51-160-37-46-93-73-159-73-79 0-142 37-177 101-28 51-47 122-47 192 0 108 38 203 109 276 86 90 165 114 303 129zm-68-496c0 128-42 194-135 194-57 0-116-24-116-116 0-152 48-252 142-252 72 0 109 72 109 174z"/><path id="STIXWEBMAIN-33" stroke-width="1" d="m61 510-16 4c29 95 92 162 196 162 93 0 156-55 156-137 0-48-26-98-93-138 44-19 62-31 83-53 28-31 44-77 44-129 0-53-17-102-46-140-48-64-143-93-232-93C80-14 41 7 41 43c0 21 18 36 41 36 17 0 33-6 61-26 37-26 58-31 86-31 74 0 130 68 130 153 0 76-35 125-104 145-22 7-45 10-102 10v14c38 13 64 24 84 36 49 28 81 73 81 134 0 68-42 102-108 102-62 0-108-32-149-106z"/><path id="STIXWEBMAIN-30" stroke-width="1" d="M476 330c0-172-63-344-226-344C79-14 24 172 24 336c0 177 69 340 230 340 131 0 222-141 222-346Zm-96-5c0 208-44 325-132 325-83 0-128-118-128-321S164 12 250 12c85 0 130 115 130 313z"/><clipPath id="clipPath108" clipPathUnits="userSpaceOnUse"><path id="path109" d="M309.084 41.228H871.29v118.337H309.084Z" style="stroke-width:.999993"/></clipPath></defs><g id="layer3" style="display:inline"><path id="path106" d="M660.68-162.71c3.601.476 6.663-3.363 8.02-7.567 1.626-5.033.998-12.727-1.418-17.95-3.004-6.432-7.567-11.612-12.874-14.133-3.142-1.713-7.523-2.476-10.892-2.408-5.241.086-9.952 1.226-14.002 6.184-.343.419.889.284.956-.047.622-3.073-1.296-8.588-2.664-10.767-1.606-2.56-3.955-5.318-7.061-7.377-5.82-3.857-13.708-4.855-20.806-.877-5.034 2.822-7.902 6.706-10.222 9.843-1.646 2.226-3.716 6.184-3.61 9.63.209.35.51.64.853.646 1.608-.338 2.316-3.331 1.234-5.182-1.68-3.262-5.412-5.412-8.051-6.654-7.723-3.632-17.063-3.344-24.169.402-3.657 1.929-7.916 5.24-10.005 9.11-.608 1.125-2.183 4.267-1.01 4.462 1.13-.4.959-2.586.692-3.928-.224-.437-.394-.937-.66-1.311-3.89-5.278-10.784-6.339-13.668-6.552-6.965-.516-12.938 1.408-18.4 8.025-.458.556-1.228 1.82-1.652 2.678-.648 1.312-1.363 3.637-1.107 3.98.085.11.185-.018.277-.3.352-1.122-.88-3.072-1.308-3.636-3.65-4.82-9.525-9.115-14.488-11.345-7.063-3.174-15.45-4.33-22.056-2.713-2.555.626-8.487 2.723-11.519 8.804-.209.42-.882 2.372.107 1.067.953-1.256-.893-3.553-2.68-5.072-4.473-3.805-10.328-6.494-16.665-8.084-10.004-2.51-23.984-2.4-33.256 2.557-3.842 2.054-8.458 5.36-11.104 9.947-.632 1.095-1 2.777-.317 3.912 1.462 2.433 4.714 1.29 5.803-.412 1.232-1.925.996-4.366-1.225-6.959-3.118-3.64-7.507-5.562-11.97-6.332-9.122-1.575-18.1-.786-26.019 2.002-5.288 1.862-11.92 4.516-16.378 9.015-1.722 1.737-2.984 4.184-2.195 4.835 1.178.97 1.59-1.926.458-4.972-.818-2.206-2.592-4.741-4.37-6.363-7.069-6.445-17.27-6.706-25.282-3.95-4.275 1.47-7.185 3.06-9.912 6.407-.638.783-.439 1.81-.029 2.282.324.372.928-.2.841-1.174-.599-6.734-7.162-10.748-8.912-11.524-9.736-4.314-19.278-1.602-24.45 1.088-6.951 3.616-12.767 9.64-15.251 17.64-.629 2.025-1.52 9.602.886 8.93 1.603-.447-2.259-1.601-3.203-1.624-3.455-.084-8.713 2.91-11.708 7.618-3.03 4.762-4.77 10.13-4.73 16.2.044 6.855 2.841 14.068 6.63 17.556 2.186 2.014 5.025 3.976 8.064 3.87 1.403-1.67-1.76-1.698-2.624-1.473-4.124 1.072-8.19 3.436-11.927 7.951-2.217 2.679-4.202 6.474-5.127 9.201-2.04 6.01-2.38 13.703-.703 18.379 3.04 8.475 9.91 13.278 15.573 13.732.302.024 2.23-.709.87-.52-2.31.826-4.797 3.257-6.096 5.266-4.855 7.508-2.146 18.46 5.816 25.712 7.82 7.123 21.496 9.634 30.635 5.337 4.207-1.978 8.854-5.692 10.904-9.115.216-.36.406-1.68-.064-1.97-1.223-.938-3.006 2.386-2.328 4.467.95 2.914 3.287 4.353 5.253 5.782 6.762 4.914 14.882 6.368 22.343 3.92a19.74 19.74 0 0 0 8.535-5.56c.355-.393 2.731-3.985-.032-2.656-2.058 1.326-.914 4.482.757 5.974 7.036 6.282 16.447 9.056 25.18 8.72 7.737-.296 15.663-2.354 22.54-7.457 3.16-2.345 6.34-6.392 6.85-10.736.09-.764-.14-1.789-.827-1.8-1.616-.166-1.088 5.406-.115 7.702 2.211 5.213 6.457 8.759 11.2 10.802 7.452 3.208 16.3 2.907 23.193.107 5.049-2.05 10.429-4.88 13.454-11.07a22.469 22.469 0 0 0 1.651-4.682c.22-1.016-.427-1.37-.658-.337-.462 2.375 1.43 3.885 2.742 4.76 3.509 2.34 7.019 3.771 10.86 4.508 4.971.954 12.208 1.267 18.868-1 3.895-1.326 8.495-4.14 10.367-7.802.557-1.09-2.196-.797-2.762-.658-2.08.51-5.102 2.303-4.71 5.199.405 3.006 2.95 4.613 4.828 5.893 5.092 3.468 12.291 6.104 20.192 6.35 7.005.218 14.577.063 20.732-3.66 3.725-2.253 8.061-5.166 9.643-9.291.315-.823.417-1.995-.137-2.829-1.528-2.296-2.604 2.624-.675 4.855 3.05 3.528 8.729 7.022 15.256 8.721 10.349 2.694 20.776 1.819 31.177-3.51 4.98-2.551 10.845-7.063 13.103-12.679 1.395-3.471-1.355-2.291-2.016 1.526-.556 3.209.25 5.753 1.943 7.883 2.73 3.434 7.68 6.079 12.095 6.898 9.466 1.758 18.938.31 27.2-5.691 3.102-2.253 6.917-6.671 7.841-9.402.631-1.865-.051-4.2-1.286-2.768-1.964 2.28-1.03 6.22.385 8.514 4.002 6.483 10.38 9.22 16.41 9.768 7.098.506 14.554-1.179 20.457-6.872 5.331-5.026 9.874-12.578 10.737-21.55.488-7.062-.99-14.515-4.252-20.082-.606-.794-1.941-2.808-2.331-2.02.085 2.107 3.759 1.06 5.577.531 3.747-1.09 7.308-3.898 10.16-7.85 3.088-4.28 5.398-9.947 5.457-15.782.041-3.99-.184-8-1.32-11.529-2.738-8.51-7.766-14.797-13.203-19.739-3.266-2.968-6.86-5.481-10.787-6.616" style="display:inline;fill:#e5f6ff;fill-opacity:1;stroke:#000;stroke-width:.866667;stroke-dasharray:none"/><path id="path101-9" d="M738.186 265.47c2.18-1.253 4.12-2.213 6.727-1.833.52.173 1.066.273 1.553.513 1.953.953 3.353 2.913 3.793 5.007.12.573.127 1.166.187 1.746-.067.62-.067 1.254-.193 1.867-.66 3.287-2.714 5.94-5.5 7.713-.574.28-1.12.614-1.707.847-2.94 1.153-5.787.78-8.42-.887-.433-.386-.913-.726-1.307-1.146-1.88-1.994-2.5-4.64-1.726-7.247.2-.467.346-.947.586-1.387.994-1.846 2.614-3.28 4.267-4.513" style="display:inline;fill:#e5f6ff;fill-opacity:1;stroke:#000;stroke-width:.666667;stroke-dasharray:none"/><path id="path102-7" d="M214.76 416.25c.36-.22.693-.48 1.073-.66 1.286-.613 2.733-.807 4.14-.847.466.034.933.02 1.393.1 1.72.3 3.493 1.207 4.047 2.974.133.426.126.886.193 1.333-.067.493-.067.993-.193 1.467-.767 2.826-3.14 4.766-5.687 5.94-.5.166-.987.38-1.5.506-2.307.574-4.4-.06-6.013-1.78-.247-.366-.54-.7-.734-1.093-1.013-2.08-.32-4.267 1.04-5.98 1.314-1.34 2.887-2.673 4.907-2.287" style="display:inline;fill:#e5f6ff;fill-opacity:1;stroke:#000;stroke-width:.666667;stroke-dasharray:none"/><path id="path138" d="M752.072-45.09c-3.62-1.03-7.38.618-10.39 2.548-4.02 2.577-6.858 7.252-6.385 12.135.572 5.901 4.105 11.368 8.972 14.681 3.902 2.656 8.82 3.749 13.468 2.827 5.839-1.158 10.49-5.73 13.05-10.936 2.525-5.134 2.154-11.523-1.022-16.303-2.669-4.017-7.193-6.7-12.027-6.977-2.275-.13-4.56.028-6.775.553" style="display:inline;fill:#e5f6ff;fill-opacity:1;stroke:#000;stroke-width:.733333;stroke-dasharray:none;stroke-dashoffset:1.02"/><path id="path137" d="M649.682 261.97c-1.24 1.412 2.283 2.452 3.466 2.712 4.655 1.023 9.597.491 14.065-1.078 4.726-1.66 8.93-5.5 10.149-10.585 1.628-6.792.859-14.012-1.113-20.653-1.723-5.801-4.44-10.663-8.22-15.315-.672-.826-2.2-2.4-3.627-2.143" style="fill:#e5f6ff;fill-opacity:1;stroke:#000;stroke-width:.666664;stroke-linecap:butt;stroke-dasharray:none"/><path id="path158" d="M278.972 23.522c-.44-.212-1.367-.402-2.481-.462-2.574-.139-5.45-.043-7.833.31-3.9.578-5.743 1.383-8.144 2.624-8.955 4.628-15.72 12.565-19.182 22.432-1.702 4.847-2.994 10.447-.718 15.368 1.068 2.307 4.347 5.178 6.893 4.56.324-.375.425-.682-.265-.744-2.468 2.175-3.777 4.542-5.215 7.37-2.359 4.639-3.803 10.047-4.033 15.538-.194 4.638.415 9.503 2.704 12.816 1.572 2.275 3.445 4.19 5.505 5.381 1.214.702 2.589 1.447 2.132-.365-3.059 1.657-4.796 4.877-6.48 7.8-2.515 4.939-4.228 10.465-4.373 16.095-.116 4.504 1.65 9.066 5.086 11.841 2.358 1.905 5.076 3.412 7.96 4.186 1.7.456 4.72.778 3.986-.942-1.9-.83-1.342 2.156-1.129 4.041.821 7.235 6.705 12.55 12.59 15.798 7.225 3.986 16.26 5.737 23.809 3.784 3.899-1.008 7.752-2.49 10.864-5.447 1.625-1.545 2.328-3.957.362-3.533 1.968 2.871 4.363 4.51 7.16 5.82 7.821 3.661 16.35 4.782 25.43 4.86 6.934.059 14.808-.519 21.072-4.298 1.565-.944 4.578-2.965 3.209-5.454-.248-.45-1.03-.676-1.04-.16 2.278 1.904 5.403 3.404 8.39 4.523 7.418 2.777 16.16 3.532 24.107 3.01 7.555-.497 15.4-2.088 21.704-5.23 2.406-1.2 3.48-2.704.952-2.24 3.45 2.95 7.148 4.997 11.436 6.435 8.463 2.838 17.41 2.523 26.05 1.159 5.668-.895 11.192-3.312 15.68-6.948.83-.672 1.692-1.523 1.806-2.636.007-.552-.683-.744-.678.05.694.865 2.372 1.786 3.035 2.096 8.602 4.025 18.114 5.825 27.388 6.379 9.54.57 19.34-.486 28.367-3.933 2.126-.812 3.908-2.027 4.726-3.116.475-.633.38-1.035-.362-1.142.03.912 2.099 2.913 3.97 4.177 9.33 6.298 21.801 8.13 32.64 7.819 7.734-.223 16.542-1.447 23.131-5.245 1.739-1.002 4.792-3.755 4.083-5.44-.148-.378-1.301-.148-1.192.423 1.49 1.782 5.623 3.627 8.262 4.411 10.143 3.012 21.287 2.998 30.803.865 5.821-1.306 10.904-3.63 14.29-6.604 1.34-1.177 1.377-2.762.586-2.249-.827 1.764 4.849 2.085 7.002 1.944 4.588-.299 8.4-1.095 12.398-3.632 4.195-2.662 6.665-6.24 8.28-9.386 1.52-2.961 2.97-8.134 2.305-14.76-.513-5.115-2.202-10.192-4.92-13.194-.715-.79-1.906-1.635-2.266-.365 1.433.445 3.172.242 4.65-.589 4.5-2.528 8.111-6.589 10.342-11.234 3.415-7.113 3.2-15.572.918-22.967-1.264-4.096-3.498-8.487-7.703-10.187-1.535-.62-3.664-.675-4.91.567.1 1.374 1.872-.301 2.226-.82 2.02-2.951 2.716-6.636 2.591-10.152-.24-6.757-2.403-13.44-6.074-19.113-1.898-2.932-3.999-5.794-6.6-8.142-.977-.88-2.71-2.167-3.836-.792-.21.426.39.779.883.541.692-.428.967-1.216 1.13-1.54 1.223-2.429.074-4.952-1.674-6.776-3.569-3.727-8.636-6.675-13.601-8.426-6.006-2.118-12.446-3.141-18.75-2.375-4.455.541-9.137 1.62-12.639 4.979-1.284 1.232-2.235 4.624.467 4.017.51-.148 1.12-.428 1.094-1.054-.055-1.378-1.575-2.543-2.986-3.412-4.44-2.734-10.314-4.701-15.747-5.485-5.906-.852-13.42-.813-19.022 1.276-2.473.922-5.43 2.036-6.727 4.237-.875 1.483.018 3.465 1.703 2.924.245-.501.207-1.11-.01-1.601-1.517-3.445-4.176-6.291-7.358-8.217-6.002-3.633-13.088-5.376-20.014-5.168-5.018.15-10.995 1.194-16.018 3.462-2.69 1.214-5.216 3.1-6.893 5.608-1.54 2.303 1.652 3.83 3.545 3.275.699-.088 1.19-.816.72-1.468-1.501-2.084-5.444-4.042-8.425-5.267-13.268-5.449-28.882-7.49-43.2-3.783-4.451 1.152-8.859 3.057-12.444 6.132-1.78 1.527-3.201 5.382-.944 6.686.735-1.531-.232-3.207-1.08-4.417-2.991-4.27-7.986-6.738-12.976-7.681-5.761-1.089-11.96-.316-17.07 2.69-2.745 1.613-5.05 5.327-5.418 7.129.264.572 1.365.881.725.039-1.534-2.58-4.727-3.821-7.46-4.867-10.218-3.909-24.281-4.045-34.852-1.608-7.333 1.691-14.08 3.863-18.534 7.28-1.79 1.373-3.442 3.715.02 3.239-.079-2.02-1.533-3.141-3-4.356-3.862-3.197-9.508-5.066-14.398-6.116-7.723-1.658-15.56-1.21-22.806 1.83-.941.394-2.512 1.218-2.945 2.24 2.84.682 1.344-2.733.084-3.89-3.996-3.664-9.353-5.184-14.631-5.531-5.488-.361-11.02.098-16.37 1.297-4.667 1.046-9.472 2.741-12.942 6.102-1.256 1.217-2.869 3.904-1.98 5.81.471.938 1.543-.17 1.097-.716z" style="fill:#eed7f4;fill-opacity:1;stroke:#000;stroke-width:.866667;stroke-linecap:butt;stroke-dasharray:none"/><path id="path152" d="M728.347 78.251c-1.95.05-6.122 1.58-9.286 3.098-6.983 3.35-13.406 8.595-16.92 15.623-1.856 3.71-2.608 8.981.538 12.126 3.662 3.66 9.36 4.039 14.337 3.697 9.646-.663 18.635-5.292 25.921-11.426 4.375-3.683 8.16-8.547 9.375-14.252.854-4.01-1.613-8.035-5.17-9.86-6.875-3.53-15.202-2.782-22.31-.458" style="fill:#eed7f4;fill-opacity:1;stroke:#1a1a1a;stroke-width:.866667;stroke-dasharray:none"/><path id="path156" d="M142.576 382.276c-2.351 1.233-4.603 4.19-6.04 7.016-2.36 4.64-3.804 10.402-4.033 15.893-.194 4.638.414 9.502 2.704 12.816 1.572 2.274 3.444 4.19 5.504 5.38 1.215.702 3.414 1.448 2.958-.364-3.06 1.657-4.797 4.876-6.482 7.799-2.514 4.94-4.226 10.466-4.372 16.096-.116 4.503 1.65 9.066 5.086 11.84 2.358 1.906 5.076 3.412 7.961 4.186 1.7.457 4.719.778 3.986-.941-1.9-.831-1.343 2.156-1.13 4.041.821 7.235 6.706 12.55 12.59 15.797 7.225 3.987 16.26 5.738 23.81 3.785 3.898-1.009 7.752-2.49 10.864-5.448 1.625-1.544 2.327-3.956.362-3.532 1.967 2.87 4.362 4.51 7.16 5.82 7.82 3.66 16.35 4.781 25.429 4.859 6.935.06 14.808-.518 21.073-4.297 1.564-.944 4.577-2.965 3.208-5.454-.248-.45-1.03-.676-1.039-.16 2.277 1.904 5.402 3.404 8.39 4.522 7.417 2.778 16.16 3.533 24.107 3.01 7.555-.496 15.4-2.087 21.703-5.23 2.406-1.199 3.48-2.703.953-2.24 3.45 2.95 7.148 4.998 11.435 6.436 8.463 2.838 17.41 2.523 26.05 1.158 5.668-.895 11.192-3.311 15.681-6.948.829-.671 1.692-1.522 1.806-2.635.007-.552-.683-.744-.678.05.694.864 2.372 1.785 3.034 2.095 8.602 4.025 18.115 5.826 27.388 6.38 9.54.569 19.34-.486 28.368-3.934 2.126-.812 3.907-2.026 4.725-3.116.475-.633.38-1.035-.362-1.141.03.912 2.1 2.913 3.971 4.176 9.33 6.298 21.8 8.132 32.64 7.82 7.733-.223 16.542-1.447 23.13-5.245 1.74-1.002 4.792-3.755 4.083-5.44-.148-.379-1.3-.149-1.192.423 1.491 1.781 5.623 3.627 8.262 4.41 10.144 3.012 21.287 3 30.804.865 5.82-1.305 10.904-3.629 14.29-6.604 1.34-1.177 1.377-2.761.586-2.248-.828 1.763 4.848 2.084 7.001 1.944 4.588-.299 8.4-1.096 12.398-3.632 4.196-2.662 6.666-6.24 8.28-9.386 1.52-2.962 2.97-8.135 2.305-14.761-.513-5.115-2.201-10.191-4.92-13.194-.715-.789-1.905-1.634-2.266-.364 1.433.445 3.172.241 4.65-.589 4.5-2.528 8.111-6.59 10.342-11.235 3.415-7.112 3.2-15.571.918-22.966-1.264-4.096-3.498-8.487-7.703-10.187-1.534-.62-3.664-.675-4.91.567.1 1.373 1.872-.302 2.227-.82 2.019-2.952 2.716-6.636 2.59-10.152-.24-6.757-2.402-13.44-6.074-19.114-1.898-2.932-3.999-5.793-6.6-8.141-.977-.88-2.71-2.168-3.836-.793-.21.426.39.78.883.542.693-.429.967-1.216 1.13-1.54 1.223-2.429.074-4.952-1.673-6.777-3.57-3.726-8.637-6.675-13.602-8.426-6.006-2.118-12.445-3.14-18.75-2.375-4.454.542-9.136 1.62-12.638 4.98-1.285 1.232-2.236 4.624.466 4.016.511-.147 1.12-.427 1.095-1.054-.055-1.378-1.575-2.542-2.986-3.41-4.441-2.735-10.315-4.702-15.748-5.486-5.906-.853-13.42-.813-19.022 1.275-2.472.922-5.429 2.036-6.727 4.237-.875 1.483.018 3.466 1.703 2.925.245-.501.207-1.111-.009-1.602-1.518-3.444-4.176-6.29-7.359-8.217-6.002-3.632-13.088-5.375-20.014-5.168-5.018.15-10.995 1.195-16.017 3.462-2.69 1.215-5.216 3.101-6.894 5.609-1.54 2.303 1.652 3.83 3.545 3.275.7-.088 1.19-.816.72-1.468-1.5-2.084-5.444-4.043-8.425-5.267-13.268-5.449-28.882-7.49-43.2-3.783-4.451 1.152-8.859 3.056-12.444 6.131-1.78 1.528-3.2 5.383-.944 6.687.735-1.532-.231-3.207-1.08-4.417-2.99-4.27-7.985-6.738-12.976-7.682-5.76-1.088-11.96-.315-17.07 2.69-2.744 1.614-5.05 5.328-5.418 7.13.264.572 1.365.88.727.039-1.608-2.58-4.957-3.822-7.823-4.867-10.716-3.909-25.465-4.046-36.551-1.608-7.69 1.691-14.767 3.863-19.437 7.28-1.878 1.373-3.61 3.715-.15 3.238-.232-2.019-1.633-3.14-3.046-4.355-3.72-3.197-9.158-5.066-13.868-6.116-7.439-1.659-14.986-1.211-21.967 1.829-.906.395-2.419 1.218-2.835 2.241 2.734.681 1.294-2.733.08-3.89-3.848-3.665-9.009-5.184-14.092-5.532-5.286-.36-10.615.099-15.767 1.297-4.495 1.046-9.124 2.742-12.466 6.103-1.21 1.216-2.763 3.904-1.901 5.81.479.938 1.55-.17 1.105-.717-.44-.211-1.368-.402-2.481-.462-2.574-.138-5.45-.042-7.833.31-3.9.579-5.743 1.384-8.145 2.625-8.954 4.628-15.718 12.565-19.181 22.431-1.702 4.848-2.994 10.448-.718 15.368 1.068 2.308 4.347 5.178 6.893 4.56.324-.375.425-.68-.265-.744z" style="fill:#eed7f4;fill-opacity:1;stroke:#000;stroke-width:.866667;stroke-linecap:butt;stroke-dasharray:none"/></g><g id="graphs" style="display:inline"><path id="path171645" d="M75.826-163.787h769.733v92H75.826Z" style="stroke-width:.666667"/><path id="path46" d="M80.492 472.213h769.733v92H80.492Z" style="stroke-width:.666667"/><path id="path2" d="M968.025-70.355h30.667" style="fill:red;stroke:#f0f;stroke-width:6.66667"/><path id="path10" d="M962.692-106.355h30.667" style="fill:red;stroke:#f0f;stroke-width:6.66667"/><path id="path18" d="M268.007 53.743v7.709" style="fill:#fdfdfd;fill-opacity:1;stroke:none;stroke-width:.666667;stroke-dasharray:none"/><path id="path29" d="M605.2 53.743v7.709" style="fill:#fdfdfd;fill-opacity:1;stroke:#000;stroke-width:.666667;stroke-dasharray:none"/><g id="g46" clip-path="url(#clipPath108)" transform="matrix(.66667 0 0 .66667 66.666 44.576)"><path id="path171657" d="M39.04 169.87v-49.28m0-13.982V31.87" class="grid"/><path id="path171659" d="M85.04 169.87v-138" class="grid"/><path id="path171661" d="M131.04 169.87v-138" class="grid"/><path id="path171663" d="M177.04 169.87v-49.277m0-13.985V31.87" class="grid"/><path id="path171665" d="M223.04 169.87v-138" class="grid"/><path id="path171667" d="M269.04 169.87v-138" class="grid"/><path id="path171669" d="M315.04 169.87v-48.407m0-14.855V31.87" class="grid"/><path id="path171671" d="M361.04 169.87v-138" class="grid"/><path id="path171673" d="M407.04 169.87v-138" class="grid"/><path id="path171675" d="M453.04 169.87v-49.277m0-13.985V31.87" class="grid"/><path id="path171677" d="M499.04 169.87v-138" class="grid"/><path id="path171679" d="M545.04 169.87v-138" class="grid"/><path id="path171681" d="M591.04 169.87v-138" class="grid"/><path id="path171683" d="M637.04 169.87v-138" class="grid"/><path id="path171685" d="M683.04 169.87v-138" class="grid"/><path id="path171687" d="M729.04 169.87v-49.284m0-13.978V31.87" class="grid"/><path id="path171689" d="M775.04 169.87v-138" class="grid"/><path id="path171691" d="M821.04 169.87v-138" class="grid"/><path id="path171693" d="M867.04 169.87v-48.415m0-14.847V31.87" class="grid"/><path id="path171695" d="M913.04 169.87v-138" class="grid"/><path id="path171697" d="M959.04 169.87v-138" class="grid"/><path id="path171699" d="M1005.04 169.87v-49.284m0-13.978V31.87" class="grid"/><path id="path171701" d="M1051.04 169.87v-138" class="grid"/><path id="path171703" d="M1097.04 169.87v-138" class="grid"/><path id="path171705" d="M1143.04 169.87v-49.278m0-13.984V31.87" class="grid"/><path id="path171707" d="M13.74 146.87h551.306m21.075 0h582.219" class="grid"/><path id="path171709" d="M13.74 100.87h1154.6" class="grid"/><path id="path171711" d="M13.74 54.87h562.668m9.713 0h582.219" class="grid"/><path id="path171716" d="M591.04 169.87v-138m-577.3 69h1154.6" class="axes" style="stroke-width:1.1;stroke-dasharray:none"/><g id="g171727" transform="matrix(.01656 0 0 -.01656 25.071 118.815)"><use xlink:href="#STIXWEBMAIN-2212" id="use171719" x="0" y="0" style="fill:#b8b8de;fill-opacity:1"/><g id="g171725" transform="translate(685)"><use xlink:href="#STIXWEBMAIN-31" id="use171721" style="fill:#b8b8de;fill-opacity:1"/><use xlink:href="#STIXWEBMAIN-32" id="use171723" x="500" y="0" style="fill:#b8b8de;fill-opacity:1"/></g></g><g id="g171733" transform="matrix(.01657 0 0 -.01657 167.215 118.817)"><use xlink:href="#STIXWEBMAIN-2212" id="use171729" x="0" y="0" style="fill:#b8b8de;fill-opacity:1"/><use xlink:href="#STIXWEBMAIN-39" id="use171731" x="685" y="0" style="fill:#b8b8de;fill-opacity:1"/></g><g id="g171739" transform="matrix(.01657 0 0 -.01657 305.215 119.686)"><use xlink:href="#STIXWEBMAIN-2212" id="use171735" x="0" y="0" style="fill:#b8b8de;fill-opacity:1"/><use xlink:href="#STIXWEBMAIN-36" id="use171737" x="685" y="0" style="fill:#b8b8de;fill-opacity:1"/></g><g id="g171745" transform="matrix(.01657 0 0 -.01657 443.215 118.817)"><use xlink:href="#STIXWEBMAIN-2212" id="use171741" x="0" y="0" style="fill:#b8b8de;fill-opacity:1"/><use xlink:href="#STIXWEBMAIN-33" id="use171743" x="685" y="0" style="fill:#b8b8de;fill-opacity:1"/></g><g id="g171749" transform="matrix(.01656 0 0 -.01656 724.896 118.81)"><use xlink:href="#STIXWEBMAIN-33" id="use171747" x="0" y="0" style="fill:#b8b8de;fill-opacity:1"/></g><g id="g171753" transform="matrix(.01656 0 0 -.01656 862.896 119.68)"><use xlink:href="#STIXWEBMAIN-36" id="use171751" x="0" y="0" style="fill:#b8b8de;fill-opacity:1"/></g><g id="g171757" transform="matrix(.01656 0 0 -.01656 1000.896 118.81)"><use xlink:href="#STIXWEBMAIN-39" id="use171755" x="0" y="0" style="fill:#b8b8de;fill-opacity:1"/></g><g id="g171763" transform="matrix(.01657 0 0 -.01657 1134.748 118.816)"><use xlink:href="#STIXWEBMAIN-31" id="use171759" style="fill:#b8b8de;fill-opacity:1"/><use xlink:href="#STIXWEBMAIN-32" id="use171761" x="500" y="0" style="fill:#b8b8de;fill-opacity:1"/></g><g id="g171767" transform="matrix(.01656 0 0 -.01656 576.3 118.81)"><use xlink:href="#STIXWEBMAIN-30" id="use171765" x="0" y="0" style="fill:#b8b8de;fill-opacity:1"/></g><g id="g171773" transform="matrix(.01657 0 0 -.01657 565.759 152.466)"><use xlink:href="#STIXWEBMAIN-2212" id="use171769" x="0" y="0" style="fill:#b8b8de;fill-opacity:1"/><use xlink:href="#STIXWEBMAIN-31" id="use171771" x="685" y="0" style="fill:#b8b8de;fill-opacity:1"/></g><g id="g171777" transform="matrix(.01656 0 0 -.01656 577.12 60.463)"><use xlink:href="#STIXWEBMAIN-31" id="use171775" x="0" y="0" style="fill:#b8b8de;fill-opacity:1"/></g><g id="g171782" clip-path="none" transform="translate(13.74 31.87)"><path id="path171780" d="M278.298 24.204c3.374-.795 6.748-1.215 10.122-1.204 24.073.077 48.147 22.037 72.22 46.11s48.147 45.928 72.22 45.89c24.073-.038 48.147-21.963 72.22-46.037C529.153 44.89 553.227 23 577.3 23s48.147 21.89 72.22 45.963c24.073 24.074 48.147 45.999 72.22 46.037 24.073.038 48.147-21.817 72.22-45.89S842.107 23.077 866.18 23c24.073-.076 48.147 21.744 72.22 45.817s48.147 46.067 72.22 46.182c24.227.116 48.453-21.976 72.68-46.203 24.073-24.073 48.147-45.883 72.22-45.796 24.073.088 48.147 22.057 72.22 46.13" class="graph" style="fill:none;stroke-width:1.7;stroke-dasharray:none"/><path id="path42" d="M-73.14 69.13C-49.067 45.057-24.993 23.088-.92 23c24.073-.087 48.147 21.723 72.22 45.796 24.227 24.227 48.453 46.32 72.68 46.203 24.073-.115 48.147-22.109 72.22-46.182 20.7-20.7 41.399-39.733 62.098-44.613" class="graph" clip-path="none" style="fill:none"/></g><g id="g171786" clip-path="none" transform="translate(13.74 31.87)"><path id="path171784" d="M-73.14 23c24.073-.068 48.147 21.76 72.22 45.833C23.153 92.906 47.227 114.893 71.3 115c24.227.107 48.453-21.993 72.68-46.22C168.053 44.707 192.127 22.905 216.2 23c24.073.096 48.147 22.073 72.22 46.147 24.073 24.073 48.147 45.91 72.22 45.853 24.073-.058 48.147-22 72.22-46.073C456.933 44.853 481.007 22.98 505.08 23c24.073.02 48.147 21.927 72.22 46s48.147 45.98 72.22 46c24.073.02 48.147-21.853 72.22-45.927C745.813 45 769.887 23.058 793.96 23c24.073-.057 48.147 21.78 72.22 45.853 24.073 24.074 48.147 46.05 72.22 46.147 24.073.095 48.147-21.707 72.22-45.78 24.227-24.227 48.453-46.327 72.68-46.22 24.073.107 48.147 22.094 72.22 46.167s48.147 45.901 72.22 45.833" class="graph-blue" clip-path="none" style="stroke-width:1.7;stroke-dasharray:none"/></g><g id="g171790" clip-path="none" transform="translate(13.74 31.87)"><path id="path171788" d="M-73.14 68.87C-49.067 92.943-24.993 114.912-.92 115c24.073.087 48.147-21.723 72.22-45.796C95.527 44.977 119.753 22.884 143.98 23c24.073.115 48.147 22.109 72.22 46.182s48.147 45.893 72.22 45.817c24.073-.077 48.147-22.037 72.22-46.11S408.787 22.962 432.86 23c24.073.038 48.147 21.963 72.22 46.037C529.153 93.11 553.227 115 577.3 115s48.147-21.89 72.22-45.963C673.593 44.963 697.667 23.038 721.74 23c24.073-.038 48.147 21.817 72.22 45.89s48.147 46.033 72.22 46.11c24.073.076 48.147-21.744 72.22-45.817s48.147-46.067 72.22-46.182c24.227-.116 48.453 21.976 72.68 46.203 24.073 24.073 48.147 45.883 72.22 45.796 24.073-.088 48.147-22.057 72.22-46.13" class="graph-yellow" style="stroke-width:1.7;stroke-dasharray:none"/></g><g id="g171794" clip-path="none" transform="translate(13.74 31.87)"><path id="path171792" d="M-73.14 115c24.073.068 48.147-21.76 72.22-45.833C23.153 45.094 47.227 23.107 71.3 23c24.227-.107 48.453 21.993 72.68 46.22 24.073 24.073 48.147 45.875 72.22 45.78 24.073-.096 48.147-22.073 72.22-46.147C312.493 44.78 336.567 22.943 360.64 23c24.073.058 48.147 22 72.22 46.073 24.073 24.074 48.147 45.946 72.22 45.927 24.073-.02 48.147-21.927 72.22-46s48.147-45.98 72.22-46c24.073-.02 48.147 21.853 72.22 45.927C745.813 93 769.887 114.942 793.96 115c24.073.057 48.147-21.78 72.22-45.853C890.253 45.073 914.327 23.097 938.4 23c24.073-.095 48.147 21.707 72.22 45.78 24.227 24.227 48.453 46.327 72.68 46.22 24.073-.107 48.147-22.094 72.22-46.167s48.147-45.901 72.22-45.833" class="graph-green" clip-path="none" style="stroke-width:1.7;stroke-dasharray:none"/></g><path id="path16" d="m302.012 99.672 1.12-1.629" style="fill:#fdfdfd;fill-opacity:1;stroke:#f0f;stroke-width:.01;stroke-dasharray:none"/><path id="path17" d="m374.265 99.672 1.121-1.629" style="fill:#fdfdfd;fill-opacity:1;stroke:#f0f;stroke-width:.01;stroke-dasharray:none"/><path id="path20" d="m446.526 99.672 1.122-1.629" style="fill:#fdfdfd;fill-opacity:1;stroke:#f0f;stroke-width:.01;stroke-dasharray:none"/><path id="path22" d="m518.784 99.672 1.121-1.629" style="fill:#fdfdfd;fill-opacity:1;stroke:#f0f;stroke-width:.01;stroke-dasharray:none"/><path id="path24" d="m663.3 99.672 1.12-1.629" style="fill:#fdfdfd;fill-opacity:1;stroke:#f0f;stroke-width:.01;stroke-dasharray:none"/><path id="path26" d="m735.551 99.672 1.122-1.629" style="fill:#fdfdfd;fill-opacity:1;stroke:#f0f;stroke-width:.01;stroke-dasharray:none"/><path id="path28" d="m807.801 99.672 1.122-1.629" style="fill:#fdfdfd;fill-opacity:1;stroke:#f0f;stroke-width:.01;stroke-dasharray:none"/><path id="path30" d="m880.067 99.672 1.121-1.629" style="fill:#fdfdfd;fill-opacity:1;stroke:#f0f;stroke-width:.01;stroke-dasharray:none"/></g><path id="path33" d="M316.173 57.598H605.2" style="fill:#fdfdfd;fill-opacity:1;stroke:#000;stroke-width:.733333;stroke-dasharray:none"/><path id="rect46" d="M1079.448-344.149h80.185v191.39h-80.185z" style="fill:#b8b8de;fill-opacity:1;stroke:none;stroke-width:.533333"/><path id="path44" d="M261.359 562.232h398.667V676.45H261.359Z" style="stroke-width:.666667"/><g id="g105" transform="matrix(.66667 0 0 .66667 66.666 -412.367)"><path id="path47" d="M39.04 169.87v-49.28m0-13.982V31.87" class="grid"/><path id="path48" d="M85.04 169.87v-138" class="grid"/><path id="path49" d="M131.04 169.87v-138" class="grid"/><path id="path50" d="M177.04 169.87v-49.277m0-13.985V31.87" class="grid"/><path id="path51" d="M223.04 169.87v-138" class="grid"/><path id="path52" d="M269.04 169.87v-138" class="grid"/><path id="path53" d="M315.04 169.87v-48.407m0-14.855V31.87" class="grid"/><path id="path54" d="M361.04 169.87v-138" class="grid"/><path id="path55" d="M407.04 169.87v-138" class="grid"/><path id="path56" d="M453.04 169.87v-49.277m0-13.985V31.87" class="grid"/><path id="path57" d="M499.04 169.87v-138" class="grid"/><path id="path58" d="M545.04 169.87v-138" class="grid"/><path id="path59" d="M591.04 169.87v-138" class="grid"/><path id="path60" d="M637.04 169.87v-138" class="grid"/><path id="path61" d="M683.04 169.87v-138" class="grid"/><path id="path62" d="M729.04 169.87v-49.284m0-13.978V31.87" class="grid"/><path id="path63" d="M775.04 169.87v-138" class="grid"/><path id="path64" d="M821.04 169.87v-138" class="grid"/><path id="path65" d="M867.04 169.87v-48.415m0-14.847V31.87" class="grid"/><path id="path66" d="M913.04 169.87v-138" class="grid"/><path id="path67" d="M959.04 169.87v-138" class="grid"/><path id="path68" d="M1005.04 169.87v-49.284m0-13.978V31.87" class="grid"/><path id="path69" d="M1051.04 169.87v-138" class="grid"/><path id="path70" d="M1097.04 169.87v-138" class="grid"/><path id="path71" d="M1143.04 169.87v-49.278m0-13.984V31.87" class="grid"/><path id="path72" d="M13.74 146.87h551.306m21.075 0h582.219" class="grid"/><path id="path73" d="M13.74 100.87h1154.6" class="grid"/><path id="path74" d="M13.74 54.87h562.668m9.713 0h582.219" class="grid"/><path id="path75" d="M13.74 100.87h1154.6" class="axes"/><path id="path76" d="M591.04 169.87v-138" class="axes"/><g id="g79" transform="matrix(.01656 0 0 -.01656 25.071 118.815)"><use xlink:href="#STIXWEBMAIN-2212" id="use76" x="0" y="0" style="fill:#b8b8de;fill-opacity:1"/><g id="g78" transform="translate(685)"><use xlink:href="#STIXWEBMAIN-31" id="use77" style="fill:#b8b8de;fill-opacity:1"/><use xlink:href="#STIXWEBMAIN-32" id="use78" x="500" y="0" style="fill:#b8b8de;fill-opacity:1"/></g></g><g id="g80" transform="matrix(.01657 0 0 -.01657 167.215 118.817)"><use xlink:href="#STIXWEBMAIN-2212" id="use79" x="0" y="0" style="fill:#b8b8de;fill-opacity:1"/><use xlink:href="#STIXWEBMAIN-39" id="use80" x="685" y="0" style="fill:#b8b8de;fill-opacity:1"/></g><g id="g82" transform="matrix(.01657 0 0 -.01657 305.215 119.686)"><use xlink:href="#STIXWEBMAIN-2212" id="use81" x="0" y="0" style="fill:#b8b8de;fill-opacity:1"/><use xlink:href="#STIXWEBMAIN-36" id="use82" x="685" y="0" style="fill:#b8b8de;fill-opacity:1"/></g><g id="g84" transform="matrix(.01657 0 0 -.01657 443.215 118.817)"><use xlink:href="#STIXWEBMAIN-2212" id="use83" x="0" y="0" style="fill:#b8b8de;fill-opacity:1"/><use xlink:href="#STIXWEBMAIN-33" id="use84" x="685" y="0" style="fill:#b8b8de;fill-opacity:1"/></g><g id="g85" transform="matrix(.01656 0 0 -.01656 724.896 118.81)"><use xlink:href="#STIXWEBMAIN-33" id="use85" x="0" y="0" style="fill:#b8b8de;fill-opacity:1"/></g><g id="g86" transform="matrix(.01656 0 0 -.01656 862.896 119.68)"><use xlink:href="#STIXWEBMAIN-36" id="use86" x="0" y="0" style="fill:#b8b8de;fill-opacity:1"/></g><g id="g87" transform="matrix(.01656 0 0 -.01656 1000.896 118.81)"><use xlink:href="#STIXWEBMAIN-39" id="use87" x="0" y="0" style="fill:#b8b8de;fill-opacity:1"/></g><g id="g89" transform="matrix(.01657 0 0 -.01657 1134.748 118.816)"><use xlink:href="#STIXWEBMAIN-31" id="use88" style="fill:#b8b8de;fill-opacity:1"/><use xlink:href="#STIXWEBMAIN-32" id="use89" x="500" y="0" style="fill:#b8b8de;fill-opacity:1"/></g><g id="g90" transform="matrix(.01656 0 0 -.01656 576.3 118.81)"><use xlink:href="#STIXWEBMAIN-30" id="use90" x="0" y="0" style="fill:#b8b8de;fill-opacity:1"/></g><g id="g92" transform="matrix(.01657 0 0 -.01657 565.759 152.466)"><use xlink:href="#STIXWEBMAIN-2212" id="use91" x="0" y="0" style="fill:#b8b8de;fill-opacity:1"/><use xlink:href="#STIXWEBMAIN-31" id="use92" x="685" y="0" style="fill:#b8b8de;fill-opacity:1"/></g><g id="g93" transform="matrix(.01656 0 0 -.01656 577.12 60.463)"><use xlink:href="#STIXWEBMAIN-31" id="use93" x="0" y="0" style="fill:#b8b8de;fill-opacity:1"/></g><g id="g94" clip-path="none" transform="translate(13.74 31.87)"><path id="path93" d="M278.298 24.204c3.374-.795 6.748-1.215 10.122-1.204 24.073.077 48.147 22.037 72.22 46.11s48.147 45.928 72.22 45.89c24.073-.038 48.147-21.963 72.22-46.037C529.153 44.89 553.227 23 577.3 23s48.147 21.89 72.22 45.963c24.073 24.074 48.147 45.999 72.22 46.037 24.073.038 48.147-21.817 72.22-45.89S842.107 23.077 866.18 23c24.073-.076 48.147 21.744 72.22 45.817s48.147 46.067 72.22 46.182c24.227.116 48.453-21.976 72.68-46.203 24.073-24.073 48.147-45.883 72.22-45.796 24.073.088 48.147 22.057 72.22 46.13" class="graph" style="fill:none"/><path id="path94" d="M-73.14 69.13C-49.067 45.057-24.993 23.088-.92 23c24.073-.087 48.147 21.723 72.22 45.796 24.227 24.227 48.453 46.32 72.68 46.203 24.073-.115 48.147-22.109 72.22-46.182 20.7-20.7 41.399-39.733 62.098-44.613" class="graph" clip-path="none" style="fill:none"/></g><g id="g95" clip-path="none" transform="translate(13.74 31.87)"><path id="path95" d="M-73.14 23c24.073-.068 48.147 21.76 72.22 45.833C23.153 92.906 47.227 114.893 71.3 115c24.227.107 48.453-21.993 72.68-46.22C168.053 44.707 192.127 22.905 216.2 23c24.073.096 48.147 22.073 72.22 46.147 24.073 24.073 48.147 45.91 72.22 45.853 24.073-.058 48.147-22 72.22-46.073C456.933 44.853 481.007 22.98 505.08 23c24.073.02 48.147 21.927 72.22 46s48.147 45.98 72.22 46c24.073.02 48.147-21.853 72.22-45.927C745.813 45 769.887 23.058 793.96 23c24.073-.057 48.147 21.78 72.22 45.853 24.073 24.074 48.147 46.05 72.22 46.147 24.073.095 48.147-21.707 72.22-45.78 24.227-24.227 48.453-46.327 72.68-46.22 24.073.107 48.147 22.094 72.22 46.167s48.147 45.901 72.22 45.833" class="graph-blue" clip-path="none"/></g><g id="g96" clip-path="none" transform="translate(13.74 31.87)"><path id="path96" d="M-73.14 68.87C-49.067 92.943-24.993 114.912-.92 115c24.073.087 48.147-21.723 72.22-45.796C95.527 44.977 119.753 22.884 143.98 23c24.073.115 48.147 22.109 72.22 46.182s48.147 45.893 72.22 45.817c24.073-.077 48.147-22.037 72.22-46.11S408.787 22.962 432.86 23c24.073.038 48.147 21.963 72.22 46.037C529.153 93.11 553.227 115 577.3 115s48.147-21.89 72.22-45.963C673.593 44.963 697.667 23.038 721.74 23c24.073-.038 48.147 21.817 72.22 45.89s48.147 46.033 72.22 46.11c24.073.076 48.147-21.744 72.22-45.817s48.147-46.067 72.22-46.182c24.227-.116 48.453 21.976 72.68 46.203 24.073 24.073 48.147 45.883 72.22 45.796 24.073-.088 48.147-22.057 72.22-46.13" class="graph-yellow"/></g><g id="g97" clip-path="none" transform="translate(13.74 31.87)"><path id="path97" d="M-73.14 115c24.073.068 48.147-21.76 72.22-45.833C23.153 45.094 47.227 23.107 71.3 23c24.227-.107 48.453 21.993 72.68 46.22 24.073 24.073 48.147 45.875 72.22 45.78 24.073-.096 48.147-22.073 72.22-46.147C312.493 44.78 336.567 22.943 360.64 23c24.073.058 48.147 22 72.22 46.073 24.073 24.074 48.147 45.946 72.22 45.927 24.073-.02 48.147-21.927 72.22-46s48.147-45.98 72.22-46c24.073-.02 48.147 21.853 72.22 45.927C745.813 93 769.887 114.942 793.96 115c24.073.057 48.147-21.78 72.22-45.853C890.253 45.073 914.327 23.097 938.4 23c24.073-.095 48.147 21.707 72.22 45.78 24.227 24.227 48.453 46.327 72.68 46.22 24.073-.107 48.147-22.094 72.22-46.167s48.147-45.901 72.22-45.833" class="graph-green" clip-path="none"/></g><path id="path98" d="m302.012 99.672 1.12-1.629" style="fill:#fdfdfd;fill-opacity:1;stroke:#f0f;stroke-width:.01;stroke-dasharray:none"/><path id="path99" d="m374.265 99.672 1.121-1.629" style="fill:#fdfdfd;fill-opacity:1;stroke:#f0f;stroke-width:.01;stroke-dasharray:none"/><path id="path100" d="m446.526 99.672 1.122-1.629" style="fill:#fdfdfd;fill-opacity:1;stroke:#f0f;stroke-width:.01;stroke-dasharray:none"/><path id="path101" d="m518.784 99.672 1.121-1.629" style="fill:#fdfdfd;fill-opacity:1;stroke:#f0f;stroke-width:.01;stroke-dasharray:none"/><path id="path102" d="m663.3 99.672 1.12-1.629" style="fill:#fdfdfd;fill-opacity:1;stroke:#f0f;stroke-width:.01;stroke-dasharray:none"/><path id="path103" d="m735.551 99.672 1.122-1.629" style="fill:#fdfdfd;fill-opacity:1;stroke:#f0f;stroke-width:.01;stroke-dasharray:none"/><path id="path104" d="m807.801 99.672 1.122-1.629" style="fill:#fdfdfd;fill-opacity:1;stroke:#f0f;stroke-width:.01;stroke-dasharray:none"/><path id="path105" d="m880.067 99.672 1.121-1.629" style="fill:#fdfdfd;fill-opacity:1;stroke:#f0f;stroke-width:.01;stroke-dasharray:none"/></g><path id="path110" d="M316.173 64.072v14.451M605.2 64.073v14.45m-48.17-14.45v14.45m-48.165-14.45v14.45m-96.343-14.45v14.45m-48.172-14.45v14.45" style="fill:#fdfdfd;fill-opacity:1;stroke:#000;stroke-width:.733333;stroke-dasharray:none"/><path id="path113" d="M460.692 64.072v7.99" style="fill:#fdfdfd;fill-opacity:1;stroke:#000;stroke-width:.733333;stroke-dasharray:none"/><path id="path128" d="M605.2 53.743v7.709m-144.508-7.709v7.709m96.339-7.709v7.709m-48.166-7.709v7.709m-96.343-7.709v7.709m-48.172-7.709v7.709m-48.177-7.709v7.709" style="fill:#fdfdfd;fill-opacity:1;stroke:#000;stroke-width:.733333;stroke-dasharray:none"/><path id="path129" d="M605.2 84.17v5.588m-48.17-5.587v5.587m-48.165-5.587v5.587m-96.343-5.587v5.587M364.35 84.17v5.587m-48.177-5.587v5.587" style="fill:#fdfdfd;fill-opacity:1;stroke:#000;stroke-width:.733333;stroke-dasharray:none"/></g><g id="layer2"><g id="g118" style="display:inline;stroke-width:.769231" transform="matrix(.0165 0 0 -.0165 335.739 49.662)"><path id="path118" stroke-width=".769" d="M33 157q0 101 76 192t171 92q51 0 90-49 16 30 46 30 13 0 23-8t10-20q0-13-37-160T374 68q0-25 7-33t21-9q9 1 20 9 21 20 41 96 6 20 10 21 2 1 10 1h4q19 0 19-9 0-6-5-27t-20-54q-15-33-32-50-13-13-32-21-8-2-24-2-34 0-57 15t-30 31l-6 15q-1 1-4-1l-4-4q-59-56-120-56-55 0-97 40T33 157zm318 171q0 6-5 22t-23 35q-18 19-46 20-35 0-67-31t-50-81q-29-79-41-164v-11q0-8-1-12 0-45 18-62t43-18q38 0 75 33t44 51q2 4 27 107t26 111z"/></g><g id="g119" style="display:inline;stroke-width:.769231" transform="matrix(.0165 0 0 -.0165 384.026 49.662)"><path id="path119" stroke-width=".769" d="M33 157q0 101 76 192t171 92q51 0 90-49 16 30 46 30 13 0 23-8t10-20q0-13-37-160T374 68q0-25 7-33t21-9q9 1 20 9 21 20 41 96 6 20 10 21 2 1 10 1h4q19 0 19-9 0-6-5-27t-20-54q-15-33-32-50-13-13-32-21-8-2-24-2-34 0-57 15t-30 31l-6 15q-1 1-4-1l-4-4q-59-56-120-56-55 0-97 40T33 157zm318 171q0 6-5 22t-23 35q-18 19-46 20-35 0-67-31t-50-81q-29-79-41-164v-11q0-8-1-12 0-45 18-62t43-18q38 0 75 33t44 51q2 4 27 107t26 111z"/></g><g id="g120" style="display:inline;stroke-width:.769231" transform="matrix(.0165 0 0 -.0165 432.17 49.662)"><path id="path120" stroke-width=".769" d="M33 157q0 101 76 192t171 92q51 0 90-49 16 30 46 30 13 0 23-8t10-20q0-13-37-160T374 68q0-25 7-33t21-9q9 1 20 9 21 20 41 96 6 20 10 21 2 1 10 1h4q19 0 19-9 0-6-5-27t-20-54q-15-33-32-50-13-13-32-21-8-2-24-2-34 0-57 15t-30 31l-6 15q-1 1-4-1l-4-4q-59-56-120-56-55 0-97 40T33 157zm318 171q0 6-5 22t-23 35q-18 19-46 20-35 0-67-31t-50-81q-29-79-41-164v-11q0-8-1-12 0-45 18-62t43-18q38 0 75 33t44 51q2 4 27 107t26 111z"/></g><path id="path121" stroke-width=".013" d="M481.152 47.071q0-1.666 1.254-3.168 1.254-1.502 2.822-1.518.842 0 1.485.808.264-.495.76-.495.214 0 .379.132t.165.33q0 .215-.61 2.64-.611 2.426-.628 2.74 0 .412.116.544.115.132.346.149.149-.017.33-.149.347-.33.677-1.584.099-.33.165-.346.033-.017.165-.017h.066q.313 0 .313.149 0 .099-.082.445-.083.347-.33.891-.248.545-.528.825-.215.215-.528.347-.132.033-.396.033-.561 0-.94-.248-.38-.247-.496-.511l-.099-.248q-.016-.016-.066.017l-.066.066q-.974.924-1.98.924-.908 0-1.6-.66-.694-.66-.694-2.096zm5.248-2.822q0-.099-.083-.363-.082-.264-.38-.577-.296-.314-.758-.33-.578 0-1.106.511-.528.512-.825 1.337-.479 1.304-.677 2.706v.182q0 .132-.016.198 0 .742.297 1.023.297.28.71.297.626 0 1.237-.545.61-.544.726-.841.033-.066.446-1.766.412-1.7.429-1.832z" style="display:inline"/><path id="path122" stroke-width=".013" d="M529.235 47.071q0-1.666 1.255-3.168 1.254-1.502 2.821-1.518.842 0 1.485.808.264-.495.76-.495.214 0 .379.132t.165.33q0 .215-.61 2.64-.611 2.426-.628 2.74 0 .412.116.544.115.132.346.149.149-.017.33-.149.347-.33.677-1.584.099-.33.165-.346.033-.017.165-.017h.066q.314 0 .314.149 0 .099-.083.445-.082.347-.33.891-.247.545-.528.825-.214.215-.528.347-.132.033-.396.033-.561 0-.94-.248-.38-.247-.496-.511l-.099-.248q-.016-.016-.066.017l-.066.066q-.973.924-1.98.924-.908 0-1.6-.66-.694-.66-.694-2.096zm5.248-2.822q0-.099-.083-.363-.082-.264-.38-.577-.296-.314-.758-.33-.578 0-1.106.511-.528.512-.825 1.337-.478 1.304-.676 2.706v.182q0 .132-.017.198 0 .742.297 1.023.297.28.71.297.627 0 1.237-.545.61-.544.726-.841.033-.066.446-1.766.412-1.7.429-1.832z" style="display:inline"/><path id="path123" stroke-width=".013" d="M577.522 47.071q0-1.666 1.254-3.168 1.254-1.502 2.822-1.518.842 0 1.485.808.264-.495.76-.495.214 0 .379.132t.165.33q0 .215-.61 2.64-.611 2.426-.628 2.74 0 .412.116.544.115.132.346.149.149-.017.33-.149.347-.33.677-1.584.099-.33.165-.346.033-.017.165-.017h.066q.313 0 .313.149 0 .099-.082.445-.083.347-.33.891-.248.545-.528.825-.215.215-.528.347-.132.033-.396.033-.561 0-.94-.248-.38-.247-.496-.511l-.099-.248q-.016-.016-.066.017l-.066.066q-.974.924-1.98.924-.908 0-1.6-.66-.694-.66-.694-2.096zm5.248-2.822q0-.099-.083-.363-.082-.264-.38-.577-.296-.314-.759-.33-.577 0-1.105.511-.528.512-.825 1.337-.479 1.304-.677 2.706v.182q0 .132-.016.198 0 .742.297 1.023.297.28.71.297.626 0 1.237-.545.61-.544.726-.841.033-.066.446-1.766.412-1.7.429-1.832z" style="display:inline"/></g></svg>