<svg xmlns="http://www.w3.org/2000/svg" width="400" height="300"><defs><filter id="a" width="1.012" height="1.046" x="-.006" y="-.025" style="color-interpolation-filters:sRGB"><feGaussianBlur stdDeviation=".011"/></filter></defs><path d="M65.874-46.019v17.104h5.563L59.153-16.631 46.68-28.915h4.907V-46.02z" style="fill:#80b3ff;stroke:#000;stroke-width:1.2;stroke-linecap:butt;stroke-linejoin:miter;stroke-miterlimit:4;stroke-dasharray:none;stroke-opacity:1" transform="translate(-30.791 9.815)"/><text xml:space="preserve" x="53.449" y="-28.344" style="font-style:normal;font-variant:normal;font-weight:400;font-stretch:normal;font-size:19.05px;line-height:1.25;font-family:Helvetica;-inkscape-font-specification:Helvetica;stroke-width:1.2;stroke-miterlimit:4;stroke-dasharray:none" transform="translate(-30.791 9.815)"><tspan x="53.449" y="-28.344" style="font-style:normal;font-variant:normal;font-weight:400;font-stretch:normal;font-size:19.05px;font-family:Helvetica;-inkscape-font-specification:Helvetica;stroke-width:1.2;stroke-miterlimit:4;stroke-dasharray:none">1</tspan></text><path d="M80.44-36.96v17.104h5.564L73.719-7.572 61.246-19.856h4.907v-17.103z" style="fill:#afc;stroke:#000;stroke-width:1.2;stroke-linecap:butt;stroke-linejoin:miter;stroke-miterlimit:4;stroke-dasharray:none;stroke-opacity:1"/><text xml:space="preserve" x="68.015" y="-19.285" style="font-style:normal;font-variant:normal;font-weight:400;font-stretch:normal;font-size:19.05px;line-height:1.25;font-family:Helvetica;-inkscape-font-specification:Helvetica;stroke-width:1.2;stroke-miterlimit:4;stroke-dasharray:none"><tspan x="68.015" y="-19.285" style="font-style:normal;font-variant:normal;font-weight:400;font-stretch:normal;font-size:19.05px;font-family:Helvetica;-inkscape-font-specification:Helvetica;stroke-width:1.2;stroke-miterlimit:4;stroke-dasharray:none">2</tspan></text><circle cx="28.563" cy="267.241" r=".005" style="fill:#000;stroke:#000;stroke-width:.982268"/><circle cx="28.563" cy="267.241" r=".005" style="fill:#000;stroke:#000;stroke-width:.982268"/><path d="M30.842 53.886c.125.232.226.478.376.695 1.373 1.976 2.955 2.847 5.143 3.883 3.368 1.594 4.195 1.672 7.913 2.778 4.764.676 6.019 1.041 10.867.973 1.725-.024 3.458-.104 5.164-.36 2.568-.386 6.117-1.452 8.51-2.587 1.036-.491 1.97-1.172 2.954-1.758l-.081-.098c-.967.578-1.883 1.25-2.9 1.733-2.385 1.132-5.919 2.2-8.478 2.586-1.702.257-3.43.337-5.152.362-4.835.07-6.09-.295-10.84-.969-3.717-1.104-4.524-1.177-7.89-2.768-2.167-1.025-3.732-1.884-5.094-3.839-.146-.21-.245-.45-.367-.675l-.125.044z" style="fill:#000;fill-opacity:1;stroke:#000;stroke-width:.3;stroke-miterlimit:4;stroke-dasharray:none;filter:url(#a)" transform="matrix(.76128 -.11273 .1716 .98125 -97.766 3.741)"/><path d="M29.934 35.518c-.59.115-1.279.3-1.789.563-.396.204-.77.444-1.133.695-.407.281-.806.574-1.174.9-.391.348-.734.746-1.1 1.119-.31.397-.653.768-.931 1.192-.792 1.205-1.292 2.615-1.317 4.187-.008.49.021.99.118 1.49.097.499.306.99.46 1.485.245.462.45.944.737 1.386.995 1.527 2.705 2.964 4.28 3.793.34.178.694.308 1.041.462l.893.308.025-.095-.884-.304c-.343-.152-.694-.279-1.03-.455-1.556-.816-3.251-2.238-4.236-3.745-.285-.435-.487-.91-.73-1.366-.151-.488-.358-.971-.454-1.464-.404-2.07.178-4.083 1.187-5.617.277-.422.618-.79.927-1.186.364-.37.705-.766 1.094-1.11.367-.325.765-.615 1.168-.895a9.981 9.981 0 0 1 1.096-.677c.504-.26 1.188-.445 1.77-.56l-.018-.106z" style="fill:#000;fill-opacity:1;stroke:#000;stroke-width:.3;stroke-miterlimit:4;stroke-dasharray:none" transform="translate(-95.046)"/><path d="M28.828 36.412c-.137-.624-.244-1.277-.157-1.917.033-.245.1-.484.149-.726.42-1.4 1.097-2.71 2.068-3.81.84-.952 1.173-1.143 2.18-1.945.466-.287.915-.603 1.399-.86 2.275-1.212 4.854-1.83 7.409-2.057.7-.062 1.405-.065 2.108-.097 2.769.013 5.554.312 8.217 1.102 1.59.471 1.906.674 3.382 1.346 1.25.679 2.422 1.49 3.255 2.667.423.597.77 1.352.992 2.048.107.332.168.677.252 1.015.189 1.062.324 2.139.327 3.219-.013.082.009.178-.021.26l.102.02c.024-.093.018-.191.023-.286-.004-1.088-.14-2.171-.332-3.24-.085-.343-.147-.691-.255-1.027-.227-.707-.578-1.47-1.008-2.075-.843-1.186-2.024-2.006-3.286-2.692-1.483-.674-1.801-.878-3.398-1.352-2.672-.793-5.466-1.093-8.244-1.107-.705.032-1.412.036-2.116.097-2.58.228-5.177.855-7.474 2.08-.486.26-.937.58-1.406.869-1.014.809-1.35 1.002-2.195 1.962-.978 1.113-1.66 2.436-2.082 3.85-.05.247-.117.49-.15.74-.086.65.022 1.31.161 1.944l.1-.028z" style="fill:#000;fill-opacity:1;stroke:#000;stroke-width:.3;stroke-miterlimit:4;stroke-dasharray:none" transform="translate(-95.046)"/><path d="M59.79 52.5a16.547 16.547 0 0 0 3.492-1.49c.41-.235.802-.499 1.203-.748.397-.303.816-.58 1.191-.909 1.138-.996 2.082-2.2 2.57-3.647.434-1.288.324-1.548.319-2.88-.118-.46-.18-.938-.353-1.381-.544-1.406-1.624-2.553-2.857-3.386-1.099-.742-1.62-.866-2.838-1.338-1.707-.484-.884-.29-2.463-.6l-.026.1c1.568.305.75.114 2.447.594 1.208.466 1.725.589 2.814 1.323 1.217.82 2.286 1.95 2.825 3.336.17.436.232.907.348 1.36.006 1.313.115 1.57-.314 2.84-.479 1.42-1.406 2.611-2.52 3.59-.374.326-.79.602-1.184.904-.399.248-.789.511-1.196.746a16.443 16.443 0 0 1-3.473 1.482l.015.103z" style="fill:#000;fill-opacity:1;stroke:#000;stroke-width:.3;stroke-miterlimit:4;stroke-dasharray:none" transform="translate(-95.046)"/><path d="M629.536 125.93c-6.028 2.239-12.206 4.053-18.372 5.864-4.11 1.176-8.227 2.333-12.369 3.396-.148.069-1.015.124-.975.49.023.205.527.749.567.798 1.99 2.54 3.42 5.466 4.8 8.365 1.912 4.01 2.138 4.671 3.957 8.936 3.737 9.385 6.9 18.988 10.084 28.572.79 2.222 1.485 4.484 2.373 6.67.056.093.082.185.238.156.08-.015.133-.09.205-.127a5.83 5.83 0 0 1 .4-.178c1.12-.462 2.248-.907 3.371-1.363 6.784-2.763 13.535-5.603 20.308-8.39 1.76-.718 3.516-1.446 5.28-2.155.258-.022.068-.319-.146-.229-1.515 3.598-3.218 7.115-4.854 10.66-2.92 6.559-6.194 12.947-9.712 19.204-.76 1.226-1.392 2.542-2.227 3.722-.104.115-.1.089.256.258.111.053.242.05.361.082.304.085.606.178.907.272.588.184 1.174.376 1.76.564l2.796.872c10.605 3.27 21.118 6.83 31.56 10.586 3.518 1.271 7.033 2.552 10.544 3.842 1.288.473 2.56.986 3.878 1.37.315.038.574.15.85-.081.283-.238.5-.819.62-1.111.554-1.34.569-1.486 1.094-3.047 1.293-4.235 2.567-8.48 3.64-12.778.736-2.948.952-4.082 1.57-6.986.646-3.4 1.135-6.837 1.318-10.295.003-.296.026-.593.003-.889-.003-.046.015-.154-.03-.137-.101.04-.186.114-.28.172a1.837 1.837 0 0 0-.018.317c1.25 2.666 2.42 5.375 3.57 8.086 2.052 4.887 4.003 9.815 6.063 14.698.25.274.727 2.087 1.055 2.326.273.2.493.013.765-.086 4.48-2.266 9.097-4.272 13.79-6.057 2.077-.789 4.176-1.515 6.264-2.273 13.26-4.565 26.82-8.172 40.361-11.79a922.303 922.303 0 0 1 7.315-1.916c.646-.165 1.305-.303 1.937-.517.575-.262.113-.971-.043-1.363-.149-.372-.295-.744-.442-1.116-2.35-6.297-4.88-12.527-7.49-18.72-2.093-4.862-4.282-9.681-6.622-14.429-.36-.493-.474-1.18-.871-1.653-.331.376-.197.366.343.401.341.023.684.018 1.026.027 6.264.403 12.534.682 18.796 1.11 4.821.349 9.634.814 14.435 1.373.526.038 1.845.436 1.998-.434.03-.16.007-.326.01-.49-.86-5.01-1.402-10.07-1.955-15.122-1.126-11.156-2.394-22.298-3.462-33.46-.494-5.507-.923-11.02-1.206-16.541-.06-.185.098-1.542-.23-1.596-.125-.021-.253.017-.38.025-4.944.766-9.874 1.613-14.81 2.425a970.884 970.884 0 0 1-23.443 3.566c-1.313.153-2.618.382-3.935.507-.373.045.2.33.187.236-.015-.101-.074-.196-.073-.299 0-.027.05-.021.075-.033.056-.129.101-.263.168-.387.355-.661 1.154-1.925 1.482-2.438 1.78-2.784 3.693-5.461 5.625-8.141 4.54-5.962 9.221-11.814 13.687-17.834.728-1.07 1.555-2.08 2.197-3.207.11-.192.405-.64.252-.921-.095-.178-.297-.273-.445-.409-.347-.114-.689-.248-1.042-.342-2.717-.727-5.517-1.224-8.28-1.731-2.466-.453-8.617-1.526-10.703-1.892-14.273-2.448-28.553-4.846-42.809-7.389a797.308 797.308 0 0 1-24.94-4.856c-1.35-.287-2.701-.57-4.055-.84-.41-.083-.79-.166-1.206-.161-.07.083-.18.146-.21.25-.048.164.164 1.069.17 1.103.085.45.168.901.248 1.352.486 2.721.337 1.895.82 5.043 1.146 8.738 2.239 17.484 3.437 26.217.424 2.978.833 5.958 1.303 8.93.015.08.026.159.04.238.033.2.01.3.295-.026.001-.002-.007-.174-.007-.192.001-.119-.01-.145-.082-.247-1.469-1.385-2.859-2.863-4.27-4.308-3.757-3.994-7.779-7.724-11.69-11.565-2.998-2.945-4.005-4.001-6.921-6.977a346.81 346.81 0 0 1-11.193-12.111c-.225-.17-.958-1.421-1.37-1.22-.111.055-.196.152-.293.228a1701.558 1701.558 0 0 1-12.596 10.045c-11.126 8.603-22.744 16.541-34.294 24.556-.783.544-4.814 3.33-5.893 4.13-.564.419-1.133.835-1.652 1.308-.365.334-1.35 1.25-1.135 1.982.133.452.555.762.832 1.144.509.394.999.813 1.526 1.181 1.76 1.228 3.622 2.303 5.42 3.475 1.659 1.081 6.207 4.116 7.788 5.228 1.405.989 2.78 2.02 4.17 3.03 5.783 4.288 11.374 8.828 16.933 13.4l.18-.204c-5.565-4.573-11.16-9.115-16.946-13.407-1.392-1.011-2.77-2.044-4.177-3.034-1.564-1.1-6.15-4.162-7.792-5.233-1.792-1.168-3.644-2.244-5.402-3.463-.511-.355-.988-.758-1.482-1.137-.26-.314-.648-.556-.78-.941-.23-.671.765-1.564 1.062-1.834.517-.47 1.082-.884 1.642-1.3 1.086-.805 5.098-3.58 5.89-4.13 11.552-8.02 23.173-15.962 34.304-24.566 4.223-3.324 8.415-6.685 12.606-10.048.047-.047.1-.088.14-.14.01-.015-.008-.054.01-.055.287-.013.882 1.13 1.103 1.18a350.386 350.386 0 0 0 11.205 12.119c2.916 2.976 3.927 4.036 6.926 6.982 3.908 3.839 7.928 7.568 11.682 11.562 1.413 1.447 2.805 2.927 4.274 4.316-.011-.11.007.07.003.08.022.48.441.418.214-.099-.472-2.97-.882-5.948-1.306-8.924-1.2-8.733-2.293-17.48-3.438-26.221-.482-3.152-.333-2.326-.819-5.05-.864-4.857.141.793-.388-2.058-.015-.084-.007-.172-.037-.252-.011-.03-.047-.043-.071-.064.397-.017.761.071 1.151.15 1.354.269 2.704.551 4.053.838a802.236 802.236 0 0 0 24.95 4.853c14.256 2.542 28.537 4.94 42.809 7.39 2.029.356 8.275 1.448 10.699 1.894 2.758.507 5.534 1.02 8.251 1.724.326.084.644.198.966.297.117.074.271.108.35.22.156.22-.167.681-.226.785-.64 1.12-1.461 2.125-2.186 3.19-4.464 6.02-9.146 11.873-13.687 17.837-1.935 2.684-3.851 5.365-5.634 8.154-.222.347-1.219 1.915-1.5 2.48-.079.158-.118.332-.177.499.033.084.007.246.1.254.513.046.129-.34.054-.213-.18.304-.21.293-.077.292 1.32-.12 2.629-.359 3.946-.509a991.528 991.528 0 0 0 23.449-3.57c4.933-.81 9.86-1.654 14.8-2.418.085-.019.172-.025.253-.056.014-.006-.003-.057.007-.046.118.1-.019 1.358.076 1.426.287 5.525.717 11.041 1.212 16.55 1.07 11.164 2.338 22.307 3.462 33.465.551 5.042 1.089 10.091 1.948 15.093 0 .133.015.267 0 .399-.077.69-1.343.227-1.68.246a335.48 335.48 0 0 0-14.446-1.371c-6.266-.43-12.54-.708-18.806-1.115-1.383-.038-.636-.128-1.31.055-.03.007-.003-.085-.033-.084-.09.003-.174.038-.26.058.292.445.548 1.102.827 1.589 2.34 4.741 4.529 9.556 6.619 14.414 2.609 6.191 5.138 12.42 7.485 18.716.22.56.455 1.114.667 1.677.03.076.05.155.073.234.011.034.003.073.022.103.007.015.06.007.049.02-.03.038-.084.049-.125.073-.623.219-1.28.352-1.918.516-2.442.627-4.88 1.271-7.316 1.918-13.547 3.625-27.114 7.234-40.382 11.797-2.09.758-4.193 1.484-6.272 2.274-4.694 1.783-9.315 3.784-13.795 6.052-.03.015-.424.23-.467.201-.11-.072-.32-.622-.323-.629-.299-.686-.39-.904-.712-1.657-2.062-4.882-4.014-9.81-6.065-14.697-1.138-2.683-2.272-5.373-3.544-7.995-.001-.095.007-.19.018-.284-.333-.115-.235-.142-.23.122.003.276-.003.418-.012.717-.181 3.446-.668 6.87-1.313 10.257-.617 2.902-.83 4.029-1.567 6.975-1.072 4.292-2.345 8.532-3.639 12.762-.526 1.56-.535 1.688-1.088 3.023-.065.158-.32 1.028-.663 1.072-.151.02-.302-.032-.453-.048-1.313-.378-2.58-.89-3.863-1.36-3.512-1.29-7.028-2.57-10.547-3.84-10.446-3.756-20.96-7.319-31.568-10.593l-2.794-.873c-.588-.189-1.174-.382-1.764-.567a30.25 30.25 0 0 0-.922-.277c-.13-.037-.262-.118-.394-.09-.051.01-.17.307-.065.14.83-1.193 1.48-2.506 2.235-3.744 3.518-6.264 6.793-12.659 9.717-19.223l1.642-3.555c.451-.966.906-1.93 1.353-2.896.328-.708.656-1.416.975-2.128.197-.441.392-.884.574-1.33.085-.21.182-.416.229-.636.007-.04-.07.041-.106.062.198-.082.262-.477.015-.303-1.764.71-3.52 1.44-5.28 2.16-6.772 2.787-13.523 5.628-20.307 8.388-1.127.457-2.264.89-3.384 1.364-.257.109-.722.264-.472.367.022.01-.026-.041-.041-.062-.888-2.181-1.582-4.438-2.371-6.654-3.19-9.59-6.354-19.198-10.093-28.59-1.82-4.267-2.049-4.936-3.96-8.95-1.39-2.915-2.827-5.858-4.829-8.413-.13-.157-.257-.316-.39-.471-.037-.044-.067-.098-.118-.125-.022-.012-.087.043-.07.024.057-.066.323-.152.353-.161.15-.044.302-.076.453-.113 4.144-1.066 8.263-2.226 12.376-3.402 6.184-1.815 12.378-3.637 18.426-5.873l-.095-.256z" style="fill:#e6e6e6;fill-opacity:1;stroke:#e6e6e6;stroke-width:1.11375;stroke-miterlimit:4;stroke-dasharray:none"/><path d="M29.466 35.448c-1.109.998-1.926 2.395-2.377 3.763-.177.537-.27 1.096-.405 1.644-.066 1.442-.23 2.073.246 3.48.378 1.113.984 1.94 1.897 2.717.873.744 1.509.955 2.532 1.422.9.3 1.063.393 1.94.555.524.096 1.037.141 1.553.002l.108-.053-.026-.07-.094.05c-.495.14-1.014.093-1.517.002-.87-.16-1.034-.253-1.927-.55-1.014-.46-1.645-.67-2.511-1.404-.904-.767-1.506-1.585-1.88-2.686-.475-1.396-.311-2.023-.246-3.454.134-.545.227-1.1.403-1.634.45-1.36 1.262-2.747 2.366-3.739l-.062-.044z" style="fill:#000;fill-opacity:1;stroke:#000;stroke-width:.309058;stroke-miterlimit:4;stroke-dasharray:none" transform="matrix(3.71251 0 0 3.71251 -35.486 227.507)"/><path d="M57.7 47.264c.323.006.65-.005.965-.084.103-.026.203-.062.305-.092a7.46 7.46 0 0 0 1.47-.885c.336-.257.694-.555.956-.89.15-.194.264-.412.396-.617.097-.283.227-.556.289-.847.317-1.487-.029-3.166-.726-4.495-.201-.384-.466-.733-.699-1.1-1.018-1.22-.493-.66-1.562-1.69l-.052.05c1.063 1.024.541.468 1.553 1.68.231.363.494.708.694 1.09.69 1.314 1.035 2.976.721 4.447-.06.287-.188.555-.283.832-.13.202-.242.417-.39.606-.26.332-.615.628-.948.881a7.488 7.488 0 0 1-1.43.865c-.1.03-.198.066-.298.092-.312.078-.635.09-.954.084l-.008.073zM28.562 36.104c.7-.918 1.558-1.723 2.457-2.445.376-.301.77-.58 1.155-.87.478-.297.944-.614 1.435-.892 1.555-.88 3.216-1.64 4.95-2.095 1.052-.277 1.499-.287 2.533-.393.655-.047 1.31-.02 1.964.02l.012-.072c-.658-.04-1.317-.067-1.975-.02-1.04.106-1.489.116-2.547.394-1.746.458-3.418 1.224-4.984 2.112-.492.278-.96.597-1.44.896-.385.29-.78.57-1.157.873-.904.725-1.767 1.535-2.47 2.46l.067.032z" style="fill:#000;fill-opacity:1;stroke:#000;stroke-width:.3;stroke-miterlimit:4;stroke-dasharray:none" transform="matrix(3.71251 0 0 3.71251 -35.486 227.507)"/><path d="M42.642 30.303a4.882 4.882 0 0 1 1.713-2.518c.291-.223.619-.394.929-.59.384-.15.756-.34 1.154-.45 2.066-.572 4.272-.238 6.226.573.543.226 1.053.526 1.58.788.473.318.97.605 1.42.954 1.123.867 2.116 1.94 2.684 3.256.34.79.331 1.108.44 1.92.016.78.015 1.616-.322 2.34.01.03-.101.123-.083.105l.007.073c.074-.027.11-.085.145-.154.338-.738.345-1.582.324-2.377-.11-.822-.102-1.143-.448-1.942-.573-1.324-1.573-2.405-2.704-3.279-.453-.35-.952-.638-1.428-.958-.53-.264-1.042-.565-1.588-.792-1.964-.815-4.192-1.157-6.27-.577-.409.114-.79.31-1.185.465-.313.2-.644.373-.938.599a4.955 4.955 0 0 0-1.73 2.552l.074.012z" style="fill:#000;fill-opacity:1;stroke:#000;stroke-width:.3;stroke-miterlimit:4;stroke-dasharray:none" transform="matrix(3.71251 0 0 3.71251 -35.486 227.507)"/><path d="M31.546 48.142c-.054.08-.129.153-.164.24-.392.982.274 2.193.913 2.996.332.417.738.792 1.107 1.188.544.413 1.043.87 1.631 1.24 3.508 2.216 8.001 3.25 12.376 3.505 1.33.077 2.667.011 4 .017 1.276-.14 2.568-.203 3.828-.42 3.121-.54 6.171-1.601 8.51-3.406 1.436-1.108 1.56-1.544 2.42-2.88.412-1.145.512-1.152.583-2.265.016-.255-.014-.51-.021-.766l-.12.007c.008.252.038.504.022.755-.07 1.097-.168 1.103-.575 2.232-.854 1.33-.966 1.746-2.393 2.85-2.313 1.792-5.338 2.841-8.428 3.378-1.255.218-2.542.28-3.814.42-1.328-.004-2.66.063-3.985-.014-4.354-.251-8.827-1.278-12.32-3.48-.583-.369-1.079-.82-1.619-1.23-.365-.392-.768-.764-1.097-1.176-.62-.779-1.277-1.957-.907-2.913.03-.077.096-.142.144-.213l-.09-.065z" style="fill:#000;fill-opacity:1;stroke:#000;stroke-width:.442372;stroke-miterlimit:4;stroke-dasharray:none" transform="translate(-82.861 45.083)"/><path d="M31.59 47.871c-.918.08-1.858-.054-2.713-.468-.317-.154-.612-.363-.918-.545-.306-.264-.638-.49-.917-.792-.602-.65-1.223-1.604-1.48-2.524-.315-1.134-.376-2.922-.25-4.076.088-.796.305-1.565.457-2.348.306-.822.553-1.678.918-2.466 1.586-3.423 4.26-6.46 7.282-8.104.67-.365 1.394-.575 2.09-.862 1.58-.246 1.925-.473 3.434-.106.965.235 1.885.824 2.62 1.584.137.142.256.31.384.464l.236.357.07-.062-.242-.365c-.13-.157-.251-.327-.392-.472-.746-.77-1.68-1.368-2.66-1.605-1.524-.37-1.872-.142-3.466.106-.702.29-1.43.5-2.104.867-3.053 1.664-5.733 4.706-7.333 8.166-.367.794-.615 1.655-.922 2.483-.152.789-.37 1.564-.457 2.366-.128 1.176-.064 2.969.26 4.121.26.933.89 1.897 1.5 2.555.283.305.619.534.928.802.31.183.609.395.93.55.865.42 1.816.557 2.744.478v-.104z" style="fill:#000;fill-opacity:1;stroke:#000;stroke-width:.274963;stroke-miterlimit:4;stroke-dasharray:none" transform="translate(-82.861 45.083)"/><path d="M42.554 28.262c.023-.151.032-.306.067-.455.227-.96.662-1.9 1.23-2.677.298-.408.603-.821.98-1.147.494-.426 1.072-.727 1.609-1.09.655-.308 1.285-.682 1.964-.922 1.493-.528 3.344-.848 4.92-.785.91.037 1.815.201 2.706.401.837.187 1.67.427 2.468.757.694.288 1.326.725 1.99 1.088 1.105 1.256 1.415 1.334 1.95 2.915.363 1.077.376 2.297.203 3.407-.035.224-.098.442-.147.664-.124.344-.274.95-.66 1.087-.027-.01-.036-.035-.045-.062l-.09.042c.032.074.074.12.155.122.444-.154.593-.77.736-1.173.05-.225.113-.447.148-.675.173-1.127.157-2.365-.215-3.458-.547-1.605-.863-1.684-1.989-2.957-.668-.365-1.306-.805-2.005-1.095a15.095 15.095 0 0 0-2.479-.76c-.898-.201-1.809-.366-2.723-.404-1.586-.064-3.448.258-4.95.788-.684.242-1.318.617-1.977.926-.55.375-1.142.687-1.648 1.125-.38.33-.687.748-.988 1.16a7.645 7.645 0 0 0-1.24 2.714c-.035.151-.045.308-.068.462l.098.002z" style="fill:#000;fill-opacity:1;stroke:#000;stroke-width:.29066;stroke-miterlimit:4;stroke-dasharray:none" transform="translate(-82.861 45.083)"/><path d="M59.89 32.691c.07-.067.13-.148.212-.202.331-.223.962-.513 1.306-.633.34-.118.682-.235 1.036-.296 1.12-.194 1.964-.134 3.104-.126.586.079 1.183.101 1.759.235 1.689.392 3.96 1.388 5.227 2.598 1.116 1.067 1.38 1.842 2.07 3.173.373 1.369.679 1.93.487 3.361-.144 1.071-.608 2.015-1.289 2.841-.785.955-1.203 1.088-2.22 1.687l.04.095c1.04-.619 1.476-.762 2.273-1.738.69-.844 1.155-1.803 1.298-2.893.19-1.45-.12-2.017-.5-3.401-.7-1.35-.964-2.124-2.097-3.206-1.278-1.219-3.565-2.221-5.268-2.617-.58-.135-1.18-.158-1.77-.237-1.152-.008-1.999-.07-3.13.126-.358.062-.705.18-1.048.299-.387.134-1.006.421-1.36.67-.089.06-.152.152-.228.228l.098.036z" style="fill:#000;fill-opacity:1;stroke:#000;stroke-width:.3;stroke-miterlimit:4;stroke-dasharray:none" transform="translate(-82.861 45.083)"/><path d="M-64.664 24.134c-.06.08-.143.153-.181.24-.435.982.304 2.193 1.012 2.994.368.418.818.792 1.227 1.188.603.414 1.157.869 1.81 1.24 3.89 2.215 8.872 3.249 13.725 3.503 1.474.077 2.957.011 4.435.016 1.415-.14 2.849-.202 4.245-.42 3.462-.54 6.844-1.6 9.439-3.403 1.592-1.107 1.73-1.544 2.682-2.88.458-1.144.568-1.15.648-2.262.018-.255-.016-.51-.024-.766l-.132.007c.008.251.041.503.024.754-.078 1.097-.187 1.103-.638 2.232-.947 1.329-1.072 1.744-2.654 2.849-2.565 1.79-5.92 2.838-9.347 3.375-1.391.218-2.82.28-4.229.42-1.473-.004-2.95.062-4.42-.014-4.829-.25-9.79-1.277-13.663-3.48-.647-.367-1.196-.818-1.795-1.228-.405-.392-.852-.763-1.217-1.176-.688-.778-1.416-1.955-1.006-2.91.033-.078.106-.143.16-.214l-.1-.065z" style="fill:#000;fill-opacity:1;stroke:#000;stroke-width:.465743;stroke-miterlimit:4;stroke-dasharray:none"/><path d="M-64.189 23.859c-1.083.08-2.193-.055-3.202-.473-.375-.155-.723-.366-1.084-.549-.361-.266-.754-.495-1.084-.799-.71-.655-1.444-1.616-1.746-2.544-.373-1.143-.444-2.945-.295-4.11.103-.802.36-1.577.539-2.366.361-.83.653-1.692 1.084-2.487 1.873-3.45 5.029-6.513 8.598-8.17.792-.367 1.646-.579 2.469-.868 1.865-.248 2.272-.477 4.054-.107 1.14.237 2.226.83 3.093 1.597.163.143.302.311.453.467l.28.36.083-.062-.286-.368c-.155-.159-.297-.33-.463-.476-.88-.777-1.983-1.378-3.14-1.618-1.8-.373-2.212-.142-4.094.107-.829.292-1.689.504-2.485.874-3.605 1.678-6.769 4.744-8.658 8.233-.433.8-.726 1.668-1.089 2.503-.18.795-.437 1.576-.54 2.385-.15 1.186-.075 2.993.307 4.155.308.94 1.051 1.911 1.772 2.575.334.308.73.539 1.096.808.366.185.719.399 1.097.556 1.022.423 2.145.56 3.24.48l.001-.103z" style="fill:#000;fill-opacity:1;stroke:#000;stroke-width:.3;stroke-miterlimit:4;stroke-dasharray:none"/><path d="M-51.974 3.188c.04-.149.066-.302.118-.446A7.454 7.454 0 0 1-50.274.197c.358-.376.724-.758 1.157-1.045.568-.377 1.213-.62 1.82-.93.726-.242 1.433-.553 2.18-.726 1.638-.381 3.635-.522 5.302-.306.96.124 1.904.375 2.83.66a16.63 16.63 0 0 1 2.54.99c.708.353 1.334.85 2 1.273 1.044 1.356 1.365 1.464 1.77 3.088.275 1.106.163 2.32-.135 3.407-.06.22-.15.43-.224.646-.167.33-.39.918-.812 1.018-.029-.012-.035-.038-.043-.066l-.098.033c.025.077.065.126.151.136.487-.11.709-.709.902-1.096.076-.219.166-.433.226-.656.3-1.104.41-2.338.128-3.46-.415-1.649-.742-1.757-1.806-3.133-.672-.427-1.303-.926-2.016-1.281a16.711 16.711 0 0 0-2.552-.996c-.932-.286-1.882-.538-2.849-.664-1.676-.217-3.685-.076-5.333.307-.751.174-1.463.486-2.194.73-.622.32-1.283.572-1.865.96-.437.29-.806.677-1.167 1.058a7.54 7.54 0 0 0-1.596 2.58c-.053.146-.08.3-.12.452l.104.012z" style="fill:#000;fill-opacity:1;stroke:#000;stroke-width:.3;stroke-miterlimit:4;stroke-dasharray:none"/><path d="M-33.066 8.38c.08-.055.154-.124.243-.164.364-.164 1.035-.343 1.395-.403.354-.06.712-.116 1.07-.117 1.137-.002 1.96.2 3.081.4.565.177 1.149.3 1.694.53 1.598.671 3.67 2.037 4.713 3.444.92 1.24 1.05 2.048 1.503 3.477.137 1.411.344 2.017-.087 3.395-.322 1.03-.94 1.883-1.75 2.582-.936.808-1.37.869-2.473 1.288l.023.1c1.128-.435 1.584-.502 2.534-1.33.822-.715 1.443-1.581 1.768-2.631.432-1.397.223-2.009.082-3.437-.462-1.45-.59-2.256-1.525-3.514-1.054-1.417-3.139-2.792-4.75-3.47-.55-.23-1.137-.355-1.705-.532-1.133-.203-1.958-.406-3.107-.405-.363 0-.724.058-1.082.117-.405.067-1.063.246-1.455.43-.097.046-.175.125-.262.187l.09.052z" style="fill:#000;fill-opacity:1;stroke:#000;stroke-width:.3;stroke-miterlimit:4;stroke-dasharray:none"/><path d="M506.787 185.79c-.482-.089-.96-.2-1.447-.267-2.107-.286-4-.387-6.153-.486-2.776-.128-6.004-.225-8.774-.152-1.687.045-3.371.172-5.057.258-8.448.68-16.832 2.274-24.865 5.012-6.066 2.068-7.525 2.951-13.355 5.686-2.124 1.233-4.316 2.355-6.37 3.7-5.748 3.763-11.005 8.42-14.879 14.14-3.164 4.671-3.228 5.875-5.084 11.084-.314 1.94-.8 3.86-.943 5.819-.432 5.933.725 12.005 3.195 17.408 2.259 4.94 3.667 6.242 6.984 10.536 1.6 1.588 3.101 3.28 4.797 4.765 7.635 6.68 16.963 11.284 26.506 14.542 2.608.89 5.28 1.584 7.919 2.376 13.696 3.448 27.937 4.9 42.025 3.447 2.753-.284 5.478-.797 8.217-1.195 10.328-2.009 20.455-5.357 29.461-10.893 5.514-3.388 6.121-4.298 10.831-8.511 1.366-1.604 2.845-3.117 4.096-4.81a44.986 44.986 0 0 0 7.44-15.908c1.215-4.994.95-6.05 1.032-11.135-.27-1.826-.398-3.68-.81-5.48-1.284-5.6-3.944-10.724-7.444-15.25-3.094-4-4.532-5.024-8.254-8.438-7.49-6.12-15.93-11.144-25.191-14.065-1.756-.554-3.56-.942-5.34-1.413-5.09-.837-5.604-1.077-10.736-1.309-1.678-.076-3.358-.032-5.037-.048l-.037.33c1.672.015 3.345-.03 5.016.045 5.108.228 5.62.466 10.685 1.296 1.77.467 3.566.851 5.313 1.402 9.227 2.905 17.635 7.906 25.096 14 3.703 3.393 5.132 4.41 8.21 8.385 3.475 4.489 6.117 9.572 7.392 15.127.41 1.784.537 3.621.805 5.432-.08 5.045.183 6.092-1.024 11.048a44.662 44.662 0 0 1-7.393 15.8c-1.244 1.682-2.714 3.185-4.071 4.778-4.625 4.133-5.303 5.1-10.691 8.415-8.975 5.523-19.064 8.869-29.36 10.874-2.73.399-5.447.911-8.192 1.196-14.052 1.455-28.26.009-41.923-3.426-2.633-.79-5.296-1.481-7.898-2.368-9.505-3.243-18.799-7.822-26.405-14.473-1.687-1.475-3.181-3.157-4.772-4.735-3.295-4.26-4.695-5.555-6.938-10.455-2.452-5.356-3.602-11.377-3.175-17.26.141-1.942.623-3.844.934-5.766 1.84-5.166 1.905-6.36 5.045-10.995 3.831-5.652 9.035-10.282 14.717-14.005 2.046-1.342 4.23-2.461 6.345-3.692 5.81-2.728 7.268-3.611 13.313-5.675 8.009-2.735 16.369-4.326 24.794-5.007 1.68-.086 3.36-.213 5.04-.258 2.774-.074 5.98.023 8.758.15 2.131.099 4.028.2 6.116.482.48.065.951.174 1.426.262l.109-.32z" style="fill:#000;fill-opacity:1;stroke:#ccc;stroke-width:.971546;stroke-miterlimit:4;stroke-dasharray:none"/><circle cx="24.244" cy="178.209" r=".004" style="fill:#000;stroke:#ccc;stroke-width:.982268"/><path d="M334.637 324.68c-.482-.09-.96-.201-1.446-.267-2.107-.286-4.002-.388-6.153-.487-2.777-.128-6.005-.225-8.775-.152-1.687.045-3.37.172-5.056.258-8.45.68-16.833 2.274-24.866 5.012-6.066 2.069-7.525 2.951-13.355 5.686-2.123 1.233-4.316 2.355-6.37 3.7-5.748 3.763-11.005 8.42-14.878 14.14-3.165 4.672-3.229 5.875-5.084 11.084-.315 1.94-.8 3.86-.943 5.82-.433 5.933.724 12.005 3.195 17.407 2.258 4.94 3.666 6.243 6.984 10.536 1.599 1.589 3.1 3.28 4.797 4.765 7.634 6.68 16.963 11.284 26.505 14.542 2.608.89 5.28 1.584 7.919 2.376 13.696 3.448 27.937 4.9 42.025 3.448 2.753-.284 5.478-.797 8.217-1.196 10.329-2.009 20.455-5.357 29.461-10.892 5.514-3.39 6.121-4.299 10.832-8.512 1.365-1.604 2.844-3.116 4.095-4.81a44.986 44.986 0 0 0 7.44-15.908c1.215-4.994.95-6.049 1.032-11.134-.27-1.827-.398-3.68-.81-5.48-1.283-5.6-3.943-10.725-7.444-15.25-3.094-4.002-4.531-5.025-8.254-8.438-7.489-6.121-15.93-11.145-25.191-14.066-1.756-.554-3.56-.942-5.34-1.412-5.09-.838-5.604-1.077-10.736-1.31-1.678-.076-3.358-.032-5.037-.047l-.036.33c1.672.015 3.345-.03 5.016.044 5.107.228 5.62.466 10.684 1.296 1.772.467 3.567.852 5.314 1.402 9.226 2.905 17.635 7.906 25.095 14 3.704 3.393 5.132 4.41 8.21 8.385 3.476 4.489 6.118 9.572 7.393 15.127.41 1.784.537 3.622.805 5.432-.08 5.046.183 6.092-1.024 11.048a44.663 44.663 0 0 1-7.393 15.8c-1.244 1.682-2.714 3.185-4.071 4.778-4.625 4.134-5.303 5.1-10.691 8.415-8.975 5.523-19.064 8.869-29.36 10.874-2.73.399-5.447.912-8.192 1.196-14.052 1.455-28.26.011-41.923-3.426-2.633-.79-5.297-1.481-7.898-2.368-9.505-3.242-18.799-7.822-26.405-14.473-1.687-1.475-3.181-3.156-4.772-4.735-3.295-4.26-4.695-5.555-6.938-10.455-2.452-5.356-3.602-11.377-3.175-17.26.141-1.942.623-3.844.934-5.766 1.84-5.166 1.904-6.36 5.045-10.994 3.831-5.653 9.035-10.282 14.717-14.006 2.046-1.341 4.23-2.461 6.345-3.692 5.81-2.728 7.268-3.611 13.313-5.675 8.009-2.734 16.369-4.326 24.794-5.007 1.68-.086 3.359-.213 5.04-.258 2.774-.073 5.979.023 8.758.15 2.131.099 4.027.2 6.116.482.48.065.951.174 1.426.262l.109-.32z" style="fill:#000;fill-opacity:1;stroke:#ccc;stroke-width:.971546;stroke-miterlimit:4;stroke-dasharray:none"/><path d="M553.753 427.244c-1.913 2.895-5.36 4.156-8.601 4.902-2.885.236-3.706.466-6.676-.003-2.786-.442-5.274-1.312-7.847-2.46-1.45-.646-2.892-1.323-4.252-2.14-1.347-.808-2.564-1.813-3.847-2.72-1.148-1.073-2.406-2.04-3.445-3.22-2.971-3.375-4.873-7.597-5.528-12.032-.222-1.5-.367-3.028-.279-4.542.086-1.462.53-2.88.796-4.32.528-1.305.95-2.659 1.584-3.917 2.223-4.412 5.912-8.11 10.229-10.495.903-.499 1.885-.838 2.828-1.256.85-.209 1.684-.502 2.55-.626.713-.102 1.44-.074 2.16-.048 1.708.06 3.587.313 5.015 1.326" style="fill:none;fill-opacity:1;stroke:#000;stroke-width:1.11375;stroke-miterlimit:4;stroke-dasharray:none"/><path d="M600.066 445.263c.913.205 1.149 1.957 1.188 2.647-.091.422-.109.867-.274 1.265-.496 1.198-1.42 2.213-2.39 3.035-2.64 2.24-5.802 3.448-9.16 4.156-1.399.134-2.791.364-4.196.402-6.093.163-12.844-1.469-18.507-3.615-1.623-.615-3.187-1.373-4.78-2.06-3.193-1.938-4.708-2.568-7.299-5.193-2.243-2.273-3.949-5.252-4.75-8.342-.21-.816-.27-1.663-.404-2.495.038-.707.03-1.418.115-2.12.28-2.371 1.127-4.681 3.054-6.186" style="fill:none;fill-opacity:1;stroke:#000;stroke-width:1.11375;stroke-miterlimit:4;stroke-dasharray:none"/><path d="M653.337 428.748c.52.056 1.402.443 1.806.666a9.41 9.41 0 0 1 3.591 3.476c.663 1.849 1.042 2.296.83 4.376-.311 3.062-2.186 6.308-4.142 8.593-.901 1.054-1.98 1.943-2.97 2.914-1.209.857-2.354 1.813-3.627 2.572-1.346.802-2.775 1.462-4.209 2.097-5.554 2.459-11.488 4.005-17.583 4.06-1.177-.055-2.357-.066-3.53-.165-5.69-.481-10.655-1.844-15.602-4.728-.755-.482-1.53-.932-2.264-1.445-1.853-1.295-3.93-3.123-5.245-4.991-.138-.197-.23-.421-.346-.632" style="fill:none;fill-opacity:1;stroke:#000;stroke-width:1.11375;stroke-miterlimit:4;stroke-dasharray:none"/><path d="M667.968 384.049c-.167.099.495-.305.703-.395.81-.18 1.063-.122 1.968-.123.53.05 1.065.068 1.591.152 3.431.549 6.931 1.945 9.602 4.206.81.686 1.47 1.532 2.205 2.298 1.768 2.487 2.489 3.107 3.452 6.082 1.7 5.247.362 9.76-1.664 14.66-1.576 2.99-2.3 4.61-4.29 7.388-1.527 2.13-3.461 4.306-5.441 6.036-1.87 1.633-3.735 2.744-5.804 4.092-2.136 1.076-3.406 1.844-5.676 2.52-2.647.786-5.484.709-8.174.25-1.167-.356-3.397-.827-3.533-2.391M623.03 353.292c1.568-2.212 3.874-3.775 6.197-5.1 2.34-1.048 3.55-1.701 6.12-2.347 2.72-.683 5.409-1.007 8.218-.8 3.668.269 5.256.997 8.753 2.097 3.73 1.764 4.625 1.947 7.915 4.452 4.294 3.27 7.597 7.592 10.064 12.357 1.042 2.337 1.71 3.526 2.295 5.997.78 3.295.471 6.38-.98 9.426-.94 1.558-.9 1.636-1.997 2.956-.39.468-.824.927-1.308 1.303-.103.08-.248.108-.33.21M578.838 353.604c.12-2.778 1.004-5.426 2.325-7.865 1.366-2.112 1.576-2.69 3.456-4.493 2.58-2.473 5.65-4.172 9.142-4.986 1.288-.3 2.618-.376 3.927-.564 1.427-.067 2.853-.221 4.281-.202 5.106.071 10.268 1.19 14.724 3.753.887.51 1.688 1.156 2.531 1.734 1.573 1.574 2.323 2.043 3.281 4.048 1.114 2.328 1.028 4.922.307 7.335-.088.318-.262.625-.264.955" style="fill:none;fill-opacity:1;stroke:#000;stroke-width:1.11375;stroke-miterlimit:4;stroke-dasharray:none"/><path d="M540.387 381.79c-1.487-.667-2.65-1.902-3.776-3.037-1.023-1.255-1.633-1.868-2.371-3.372-1.65-3.362-1.553-6.745-.572-10.285.976-2.4 1.285-3.549 2.845-5.71 3.203-4.435 7.436-6.54 12.453-8.356 1.484-.455 2.947-.985 4.452-1.366 6.351-1.61 13-1.98 19.418-.567.762.246 1.544.438 2.286.74 1.612.654 3.37 1.752 3.87 3.532.064.226.066.465.099.697" style="fill:none;fill-opacity:1;stroke:#000;stroke-width:1.11375;stroke-miterlimit:4;stroke-dasharray:none"/><path d="M441.603 104.91c.03.03.228-.05-.807.558-3.074 1.809-7.12 2.028-10.462 1.574-6.331-.86-10.01-2.769-13.657-6.028-11.612-10.376-11.868-27.303-5.887-37.239 3.752-6.231 10.817-11.106 18.89-9.04.407.103.767.372 1.14.707" style="fill:none;fill-opacity:1;stroke:#000;stroke-width:1.14161;stroke-miterlimit:4;stroke-dasharray:none"/><path d="M490.245 121.281c3.932 7.538-8.144 11.913-14.037 12.002-11.45.174-23.73-3.218-32.228-11.334-4.178-3.99-6.814-11.384-4.31-16.9.525-1.157.443-.74.4-.717" style="fill:none;fill-opacity:1;stroke:#000;stroke-width:1.15113;stroke-miterlimit:4;stroke-dasharray:none"/><path d="M546.998 108.864c2.154 3.026 2.02 7.396.394 10.597-3.791 7.462-11.639 11.634-18.014 13.595-13.002 3.792-27.167 1.681-36.78-7.044-1.044-.948-1.718-2.447-2.35-3.736" style="fill:none;fill-opacity:1;stroke:#000;stroke-width:1.09222;stroke-miterlimit:4;stroke-dasharray:none"/><path d="M558.179 60.644c3.156-.787 6.131-1.36 9.137-.17 4.467 1.77 8.58 6.372 10.032 11.376 2.64 9.1.249 23.575-9.732 33.137-3.43 3.286-7.497 5.78-12.413 6.373-3.441.415-5.55-.242-8.949-1.658" style="fill:none;fill-opacity:1;stroke:#000;stroke-width:1.11375;stroke-miterlimit:4;stroke-dasharray:none"/><path d="M517.785 29.377c.154-1.742 1.788-4.312 5.985-5.783 6.184-2.167 15.71-1.254 23.823 3.794 8.477 5.276 16.8 14.64 16.083 25.482-.258 3.902-1.412 6.692-4.367 9.075" style="fill:none;fill-opacity:1;stroke:#000;stroke-width:1.08292;stroke-miterlimit:4;stroke-dasharray:none"/><path d="M469.186 30.177c-1.575-3.295-1.132-7.41.515-10.15 4.211-7.013 13.35-10.316 23.22-10.512 11.37-.226 22.694 3.165 26.601 12.492 1.125 2.684.775 5.76-.911 7.843" style="fill:none;fill-opacity:1;stroke:#000;stroke-width:1.26741;stroke-miterlimit:4;stroke-dasharray:none"/><path d="M430.598 58.384c-7.03-3.574-9.19-12.75-5.515-19.638 5.186-9.721 16.923-13.228 27.009-13.843 5.566-.34 15.054-.779 17.21 5.758" style="fill:none;fill-opacity:1;stroke:#000;stroke-width:1.11375;stroke-miterlimit:4;stroke-dasharray:none"/><path d="M111.113-18.797c.008.008.061-.014-.218.15-.828.487-1.918.546-2.818.424-1.705-.232-2.696-.746-3.678-1.624-3.128-2.795-3.197-7.354-1.586-10.03 1.01-1.679 2.914-2.992 5.088-2.436.11.028.207.1.307.19" style="fill:none;fill-opacity:1;stroke:#000;stroke-width:.307505;stroke-miterlimit:4;stroke-dasharray:none"/><path d="M124.215-14.388c1.059 2.03-2.194 3.209-3.781 3.233-3.084.047-6.392-.867-8.68-3.053-1.126-1.075-1.837-3.066-1.162-4.552.141-.312.12-.2.108-.193" style="fill:none;fill-opacity:1;stroke:#000;stroke-width:.310068;stroke-miterlimit:4;stroke-dasharray:none"/><path d="M139.502-17.733c.58.816.544 1.993.106 2.855-1.021 2.01-3.135 3.134-4.852 3.662-3.502 1.021-7.318.453-9.907-1.898-.281-.255-.463-.659-.633-1.006" style="fill:none;fill-opacity:1;stroke:#000;stroke-width:.2942;stroke-miterlimit:4;stroke-dasharray:none"/><path d="M141.814-31.325c.974-.306 1.895-.55 2.863-.318 1.438.343 2.826 1.462 3.388 2.768 1.022 2.376.578 6.352-2.35 9.23-1.006.988-2.228 1.782-3.758 2.09-1.07.214-2.217.163-2.872-.436" style="fill:none;fill-opacity:1;stroke:#000;stroke-width:.325181;stroke-miterlimit:4;stroke-dasharray:none"/><path d="M131.145-39.184c.033-.399.432-.964 1.472-1.233 1.533-.396 3.907-.026 5.942 1.272 2.126 1.358 4.226 3.654 4.081 6.14-.052.896-.331 1.52-1.06 2.019" style="fill:none;fill-opacity:1;stroke:#000;stroke-width:.259244;stroke-miterlimit:4;stroke-dasharray:none"/><path d="M118.546-38.923c-.407-1.14-.292-2.562.132-3.51 1.086-2.425 3.443-3.567 5.988-3.635 2.932-.079 5.853 1.094 6.86 4.32.29.928.2 1.992-.235 2.712" style="fill:none;fill-opacity:1;stroke:#000;stroke-width:.378498;stroke-miterlimit:4;stroke-dasharray:none"/><path d="M107.977-31.932c-2.048-1.297-2.788-4.132-1.84-6.095 1.34-2.77 4.367-4.028 7.209-4.034 2.241-.005 5.425.958 5.25 2.975" style="fill:none;fill-opacity:1;stroke:#000;stroke-width:.325279;stroke-miterlimit:4;stroke-dasharray:none"/><path d="M86.397-59.934c.008.009.061-.013-.218.15-.828.488-1.918.547-2.818.425-1.705-.232-2.696-.746-3.678-1.624-3.128-2.795-3.197-7.355-1.586-10.03 1.01-1.68 2.914-2.992 5.088-2.436.11.028.207.1.307.19" style="fill:none;fill-opacity:1;stroke:#000;stroke-width:.35;stroke-miterlimit:4;stroke-dasharray:none"/><path d="M99.499-55.524c1.059 2.03-2.194 3.209-3.781 3.233-3.084.047-6.392-.867-8.681-3.053-1.125-1.075-1.836-3.066-1.161-4.552.141-.312.12-.2.108-.193" style="fill:none;fill-opacity:1;stroke:#000;stroke-width:.35;stroke-miterlimit:4;stroke-dasharray:none"/><path d="M114.566-59.191c.463.686.286 1.712-.244 2.48-1.234 1.792-3.42 2.857-5.148 3.387-3.52 1.032-7.15.693-9.375-1.248-.241-.211-.368-.555-.491-.85" style="fill:none;fill-opacity:1;stroke:#000;stroke-width:.35;stroke-miterlimit:4;stroke-dasharray:none"/><path d="M117.099-72.784c.95-.574 2.035-.54 3.003-.302 1.439.351 2.684 1.472 3.245 2.809 1.022 2.43.579 6.498-2.348 9.442-1.006 1.012-2.228 1.824-3.757 2.138-1.07.22-2.217.168-2.871-.445" style="fill:none;fill-opacity:1;stroke:#000;stroke-width:.35;stroke-miterlimit:4;stroke-dasharray:none"/><path d="M106.44-80.13c.023-.424.417-1.063 1.479-1.46 1.563-.586 4.012-.457 6.137.688 2.221 1.197 4.442 3.386 4.36 6.021-.03.948-.298 1.636-1.033 2.242" style="fill:none;fill-opacity:1;stroke:#000;stroke-width:.35;stroke-miterlimit:4;stroke-dasharray:none"/><path d="M93.83-80.059c-.407-1.14-.293-2.562.132-3.51 1.086-2.425 3.443-3.568 5.988-3.635 2.932-.079 5.853 1.094 6.86 4.32.29.928.2 1.992-.235 2.712" style="fill:none;fill-opacity:1;stroke:#000;stroke-width:.35;stroke-miterlimit:4;stroke-dasharray:none"/><path d="M83.26-73.068c-2.047-1.297-2.788-4.133-1.838-6.095 1.34-2.77 4.366-4.028 7.208-4.034 2.241-.005 5.425.958 5.25 2.975" style="fill:none;fill-opacity:1;stroke:#000;stroke-width:.35;stroke-miterlimit:4;stroke-dasharray:none"/><path d="M434.655 152.478c3.13-1.816 6.541-1.421 9.532-.333 4.444 1.617 8.094 5.937 9.538 10.858 2.627 8.95.245 23.391-9.685 33.193-3.414 3.37-7.459 5.97-12.35 6.713-3.424.519-7.021.048-8.934-2.31" style="fill:none;fill-opacity:1;stroke:#000;stroke-width:1.17791;stroke-miterlimit:4;stroke-dasharray:none"/><path d="M32.61-80.188c-.796.473-2.466.378-3.484.105-1.309-.35-2.381-1.062-3.249-1.91-2.762-2.704-2.732-7.008-1.225-9.498.944-1.563 2.686-2.761 4.634-2.19.099.029.185.099.274.186" style="fill:none;fill-opacity:1;stroke:#000;stroke-width:.322826;stroke-miterlimit:4;stroke-dasharray:none"/><path d="M45.462-75.725c.92 2.154-2.436 3.197-4.5 3.092-3.289-.168-6.192-1.133-8.409-3.474-1.09-1.152-1.742-2.89-1.205-4.64" style="fill:none;fill-opacity:1;stroke:#000;stroke-width:.370904;stroke-miterlimit:4;stroke-dasharray:none"/><path d="M59.751-79.575c.394.723.17 1.808-.369 2.622-1.255 1.899-3.359 3.034-5.004 3.602-3.348 1.107-6.721.765-8.69-1.275-.213-.221-.313-.584-.41-.896" style="fill:none;fill-opacity:1;stroke:#000;stroke-width:.347705;stroke-miterlimit:4;stroke-dasharray:none"/><path d="M62.746-92.22c.691-.406 1.664-.313 2.374.106.915.54 1.777 1.62 2.048 3.31.396 2.465-.246 5.51-2.265 7.674-.86.922-1.85 1.636-2.841 1.935-.854.258-1.826.28-2.41-.237" style="fill:none;fill-opacity:1;stroke:#000;stroke-width:.309599;stroke-miterlimit:4;stroke-dasharray:none"/><path d="M52.438-100.29c.05-.422.483-1.035 1.567-1.365 1.597-.487 4.033-.205 6.083 1.07 2.142 1.333 4.221 3.657 3.975 6.281-.088.945-.333 1.58-.97 2.307" style="fill:none;fill-opacity:1;stroke:#000;stroke-width:.35;stroke-miterlimit:4;stroke-dasharray:none"/><path d="M39.685-100.12c-.407-.814-.293-1.83.133-2.507 1.09-1.731 3.455-2.547 6.008-2.595 2.942-.056 5.872.781 6.883 3.084.291.663.2 1.422-.236 1.937" style="fill:none;fill-opacity:1;stroke:#000;stroke-width:.296223;stroke-miterlimit:4;stroke-dasharray:none"/><path d="M29.38-93.068c-1.908-.891-2.498-3.21-1.506-4.96 1.4-2.472 4.352-3.834 7.074-4.122 2.148-.227 5.158.27 4.904 1.99" style="fill:none;fill-opacity:1;stroke:#000;stroke-width:.313906;stroke-miterlimit:4;stroke-dasharray:none"/><path d="M91.432 149.92c2.1-1.159 4.559-.984 6.852-.988 6.492-.012 11.93 3.134 12.832 8.227.717 4.047.027 7.412-2.186 9.625-1.945 1.945-4.216 3.753-6.792 4.561-2.96.93-6.49 1.165-9.401.056-4.991-1.902-8.822-6.42-7.058-13.856.73-3.08 3.408-5.102 5.85-6.66M61.662 154.667c2.19-1.091 5.673-1.844 8.436-.776 2.502.968 4.384 3.405 4.557 6.11.228 3.562-2.037 7.162-5.369 8.433-2.38.908-5.517.156-7.373-1.55-1.868-1.718-2.979-4.146-2.579-6.76.268-1.748.96-2.92 2.317-3.325" style="fill:#fffbd5;fill-opacity:1;stroke:#000;stroke-width:1.54394;stroke-miterlimit:4;stroke-dasharray:none"/><path d="M-22.436-81.134c-.783.474-2.424.379-3.425.106-1.286-.35-2.34-1.062-3.192-1.911-2.715-2.704-2.685-7.008-1.205-9.499.929-1.562 2.64-2.76 4.555-2.19.097.03.181.1.268.187" style="fill:none;fill-opacity:1;stroke:#000;stroke-width:.320038;stroke-miterlimit:4;stroke-dasharray:none"/><path d="M-9.613-76.67c.917 2.153-2.057 3.225-4.482 3.225-3.477 0-6.502-1.2-8.51-3.608-1.014-1.215-1.603-2.889-1.067-4.638" style="fill:none;fill-opacity:1;stroke:#000;stroke-width:.370158;stroke-miterlimit:4;stroke-dasharray:none"/><path d="M4.367-80.761c.514.683.45 1.726.023 2.517-.994 1.844-2.973 2.977-4.571 3.556-3.258 1.133-6.763.881-9.09-1.027-.253-.207-.41-.552-.558-.848" style="fill:none;fill-opacity:1;stroke:#000;stroke-width:.344703;stroke-miterlimit:4;stroke-dasharray:none"/><path d="M7.178-93.167c.68-.406 1.636-.312 2.333.107.9.54 1.747 1.62 2.013 3.31.39 2.465-.242 5.51-2.226 7.675-.846.922-1.818 1.635-2.792 1.935-.839.258-1.795.28-2.369-.237" style="fill:none;fill-opacity:1;stroke:#000;stroke-width:.306926;stroke-miterlimit:4;stroke-dasharray:none"/><path d="M-2.95-101.238c.048-.422.474-1.035 1.539-1.365 1.57-.486 3.963-.205 5.977 1.071 2.106 1.333 4.149 3.657 3.907 6.282-.087.944-.327 1.58-.953 2.307" style="fill:none;fill-opacity:1;stroke:#000;stroke-width:.346978;stroke-miterlimit:4;stroke-dasharray:none"/><path d="M-15.484-101.068c-.4-.813-.288-1.83.131-2.506 1.071-1.732 3.395-2.547 5.904-2.596 2.891-.056 5.77.782 6.764 3.085.286.663.197 1.422-.232 1.937" style="fill:none;fill-opacity:1;stroke:#000;stroke-width:.293665;stroke-miterlimit:4;stroke-dasharray:none"/><path d="M-25.612-94.014c-1.874-.892-2.454-3.211-1.48-4.962 1.377-2.471 4.278-3.833 6.953-4.121 2.11-.227 5.068.27 4.82 1.99" style="fill:none;fill-opacity:1;stroke:#000;stroke-width:.311195;stroke-miterlimit:4;stroke-dasharray:none"/><path d="M-77.074-80.221c-.767.464-2.376.37-3.356.103-1.26-.344-2.294-1.04-3.13-1.873-2.66-2.65-2.63-6.868-1.18-9.31.91-1.53 2.588-2.706 4.464-2.146.132.048-.073.41-.229.29-1.598-.999-2.048-3.135-1.135-4.774 1.375-2.472 4.276-3.834 6.952-4.122 2.11-.226 5.068.27 4.82 1.99l-.165.04c-.4-.814-.288-1.83.131-2.506 1.07-1.732 3.394-2.547 5.904-2.596 2.891-.056 5.77.782 6.764 3.085.286.662.197 1.422-.232 1.936l.058-.241c.094-.474.61-1.19 1.779-1.642 1.722-.665 4.246-.538 6.266.727 2.112 1.322 4.057 3.754 3.537 6.7-.188 1.06-.522 1.777-1.248 2.647-.293.351-.58-.058-.297-.21.698-.372 1.635-.311 2.333.108.9.54 1.747 1.62 2.013 3.31.389 2.465-.242 5.51-2.226 7.675-.846.922-1.819 1.635-2.792 1.935-.839.258-1.749.224-2.369-.237-.43-.321-.119-.825.23-.384.53.67.45 1.725.023 2.517-.994 1.844-2.874 3.109-4.477 3.674-3.252 1.148-6.857.763-9.185-1.145-.252-.208-.408-.554-.557-.849-.053-.103.008-.283.075-.123.895 2.113-1.948 3.228-4.325 3.228-3.408 0-6.44-1.243-8.408-3.603-.993-1.19-1.57-2.832-1.046-4.546" style="fill:#ffd5d5;fill-opacity:1;stroke:#000;stroke-width:.35;stroke-miterlimit:4;stroke-dasharray:none"/><path d="M151.66 184.626c-3.066.505-7.324-.202-10.152-.952-4.618-1.226-8.747-3.695-11.69-6.702-9.427-9.635-9.188-22.558-3.397-31.098 3.21-4.733 9.035-8.708 14.277-8.21l-.208.523c-4.9-3.751-6.04-10.477-2.829-15.697 5.241-8.517 16.168-13.151 26.216-14.073 6.82-.625 15.976.621 17.768 4.77 1.022 2.116-.595 2.25-1.132.128-.407-2.279.148-4.676 1.336-6.415 4.073-5.964 12.817-8.722 22.234-8.82 10.848-.113 22.748 2.955 26.402 10.956.465 1.017.477 1.558.46 2.603-.035 2.237-3.086 1.11-1.729-.428.94-1.066 1.976-1.827 4.153-2.836 6.363-2.95 18.707-2.809 26.645 1.862 9.044 5.322 14.333 14.742 12.285 24.926-.737 3.666-2.389 6.133-5.143 9.127l-.722-.492c2.644-1.117 6.064-.678 8.52.94 3.17 2.088 6.019 6.024 6.597 11.926.843 8.61-2.186 18.975-9.967 25.963-3.315 2.977-7.047 5.203-10.684 6-3.135.686-6.46.347-8.623-1.398l.285-.805c1.926 2.335 1.6 5.987.008 8.713-3.709 6.357-10.65 10.684-16.553 12.596-11.98 3.881-25.166 2.658-33.303-3.51-1.861-1.866 1.84-2.8 1.11-.073-1.272 5.107-10.863 8.442-19.196 8.536-13.802.156-25.167-5.294-31.554-14.238-2.905-4.068-4.295-9.365-3.483-15.271" style="fill:#fffbd5;fill-opacity:1;stroke:#000;stroke-width:1.54394;stroke-miterlimit:4;stroke-dasharray:none"/><path d="m211.192 198.19-.045-13.97-4.545.016 10-10.066 10.221 10-4.008.013.046 13.969z" style="fill:#aae2ff;fill-opacity:1;stroke:#000;stroke-width:.816752;stroke-linecap:butt;stroke-linejoin:miter;stroke-miterlimit:4;stroke-dasharray:none;stroke-opacity:1" transform="matrix(1.02517 0 0 1.02517 -5.573 -3.912)"/><text xml:space="preserve" x="-220.694" y="-184.44" style="font-style:normal;font-variant:normal;font-weight:400;font-stretch:normal;font-size:15.5592px;line-height:1.25;font-family:Helvetica;-inkscape-font-specification:Helvetica;stroke-width:.980105;stroke-miterlimit:4;stroke-dasharray:none" transform="matrix(-1.02517 .00334 -.00334 -1.02517 -5.573 -3.912)"><tspan x="-220.694" y="-184.44" style="font-style:normal;font-variant:normal;font-weight:400;font-stretch:normal;font-size:15.5592px;font-family:Helvetica;-inkscape-font-specification:Helvetica;stroke-width:.980105;stroke-miterlimit:4;stroke-dasharray:none">4</tspan></text><path d="m162.285 121.612 4.888 13.46 4.38-1.59-6.158 13.18-13.328-6.104 3.862-1.402-4.888-13.461z" style="fill:#99c2ff;fill-opacity:1;stroke:#000;stroke-width:1.14179;stroke-linecap:butt;stroke-linejoin:miter;stroke-miterlimit:4;stroke-dasharray:none;stroke-opacity:1"/><text xml:space="preserve" x="100.627" y="184.499" style="font-style:normal;font-variant:normal;font-weight:400;font-stretch:normal;font-size:15.9509px;line-height:1.25;font-family:Helvetica;-inkscape-font-specification:Helvetica;stroke-width:1.1418;stroke-miterlimit:4;stroke-dasharray:none" transform="rotate(-19.957)"><tspan x="100.627" y="184.499" style="font-style:normal;font-variant:normal;font-weight:400;font-stretch:normal;font-size:15.9509px;font-family:Helvetica;-inkscape-font-specification:Helvetica;stroke-width:1.1418;stroke-miterlimit:4;stroke-dasharray:none">1</tspan></text><path d="m45.15 32.943-.668 3.703 1.205.217-3.14 2.18-2.22-3.147 1.062.191.668-3.702z" style="fill:#9cffc4;fill-opacity:1;stroke:#000;stroke-width:.3;stroke-linecap:butt;stroke-linejoin:miter;stroke-miterlimit:4;stroke-dasharray:none;stroke-opacity:1" transform="scale(3.80597) rotate(-17.497 44.59 16.852)"/><text xml:space="preserve" x="47.55" y="28.288" style="font-style:normal;font-variant:normal;font-weight:400;font-stretch:normal;font-size:4.191px;line-height:1.25;font-family:Helvetica;-inkscape-font-specification:Helvetica;stroke-width:.3;stroke-miterlimit:4;stroke-dasharray:none" transform="scale(3.80597) rotate(-7.265 110.217 30.747)"><tspan x="47.55" y="28.288" style="font-style:normal;font-variant:normal;font-weight:400;font-stretch:normal;font-size:4.191px;font-family:Helvetica;-inkscape-font-specification:Helvetica;stroke-width:.3;stroke-miterlimit:4;stroke-dasharray:none">2</tspan></text><path d="M115.853-36.96v17.104h5.564L109.132-7.572 96.66-19.856h4.907v-17.103z" style="fill:#aaffef;fill-opacity:1;stroke:#000;stroke-width:1.2;stroke-linecap:butt;stroke-linejoin:miter;stroke-miterlimit:4;stroke-dasharray:none;stroke-opacity:1" transform="matrix(.8259 .13782 -.13782 .8259 110.8 138.182)"/><text xml:space="preserve" x="103.428" y="-19.285" style="font-style:normal;font-variant:normal;font-weight:400;font-stretch:normal;font-size:19.05px;line-height:1.25;font-family:Helvetica;-inkscape-font-specification:Helvetica;stroke-width:1.2;stroke-miterlimit:4;stroke-dasharray:none" transform="matrix(.8259 .13782 -.13782 .8259 110.8 138.182)"><tspan x="103.428" y="-19.285" style="font-style:normal;font-variant:normal;font-weight:400;font-stretch:normal;font-size:19.05px;font-family:Helvetica;-inkscape-font-specification:Helvetica;stroke-width:1.2;stroke-miterlimit:4;stroke-dasharray:none">3</tspan></text><path d="M115.853-36.96v17.104h5.564L109.132-7.572 96.66-19.856h4.907v-17.103z" style="fill:#aaffb1;fill-opacity:1;stroke:#000;stroke-width:1.2;stroke-linecap:butt;stroke-linejoin:miter;stroke-miterlimit:4;stroke-dasharray:none;stroke-opacity:1" transform="matrix(.81767 .1803 -.1803 .81767 140.699 133.383)"/><text xml:space="preserve" x="103.428" y="-19.285" style="font-style:normal;font-variant:normal;font-weight:400;font-stretch:normal;font-size:19.05px;line-height:1.25;font-family:Helvetica;-inkscape-font-specification:Helvetica;stroke-width:1.2;stroke-miterlimit:4;stroke-dasharray:none" transform="matrix(.81767 .1803 -.1803 .81767 140.699 133.383)"><tspan x="103.428" y="-19.285" style="font-style:normal;font-variant:normal;font-weight:400;font-stretch:normal;font-size:19.05px;font-family:Helvetica;-inkscape-font-specification:Helvetica;stroke-width:1.2;stroke-miterlimit:4;stroke-dasharray:none">5</tspan></text><path d="M-128.66-64.848c-.734.41-2.263.316-3.194.069-1.196-.318-2.173-.95-2.961-1.703-2.51-2.396-2.448-6.179-1.048-8.358.8-1.246 2.207-2.222 3.8-1.993.4.04.324.425-.08.136-1.243-.972-1.532-2.715-.718-4.067 1.329-2.207 4.1-3.407 6.647-3.646 1.73-.162 4.05.16 4.505 1.236.26.548-.15.583-.287.033a2.338 2.338 0 0 1 .339-1.662c1.033-1.545 3.25-2.26 5.637-2.285 2.751-.03 5.768.765 6.695 2.838.118.264.12.404.116.674-.009.58-.782.288-.438-.11.238-.276.5-.474 1.053-.735 1.613-.764 4.743-.728 6.756.482 2.293 1.38 3.634 3.82 3.115 6.458-.187.95-.606 1.589-1.304 2.365-.282.312-.552-.057-.28-.19.666-.33 1.557-.269 2.218.112.851.492 1.648 1.466 1.888 2.983.35 2.214-.275 4.941-2.18 6.868-.812.82-1.743 1.453-2.671 1.715-.8.225-1.666.189-2.252-.23-.407-.29-.106-.74.221-.342.5.605.415 1.55.002 2.257-.96 1.647-2.759 2.768-4.288 3.263-3.103 1.006-6.52.689-8.628-.91-.62-.47.245-1.084.32-.422.13 1.549-2.634 2.722-5.006 2.75-3.575.04-6.52-1.372-8.175-3.69-.821-1.15-1.343-2.982-.83-4.516" style="fill:#ffd5d5;fill-opacity:1;stroke:#000;stroke-width:.383355;stroke-miterlimit:4;stroke-dasharray:none"/><path d="M-174.147-39.379c-.794.131-1.898-.052-2.63-.247-1.197-.317-2.267-.957-3.029-1.736-2.442-2.496-2.38-5.844-.88-8.056.832-1.227 2.34-2.257 3.699-2.128.4.041.325.426-.08.136-1.243-.972-1.532-2.714-.717-4.067 1.329-2.206 4.1-3.407 6.647-3.646 1.729-.162 4.05.161 4.505 1.236.26.548-.15.583-.287.033a2.338 2.338 0 0 1 .339-1.662c1.032-1.545 3.25-2.26 5.637-2.285 2.75-.029 5.768.766 6.694 2.839.118.263.121.403.117.674-.009.58-.782.288-.438-.11.238-.277.5-.474 1.052-.735 1.614-.765 4.744-.728 6.756.482 2.294 1.379 3.635 3.82 3.115 6.458-.186.95-.605 1.588-1.304 2.364-.281.312-.551-.056-.28-.19.667-.33 1.558-.268 2.218.113.852.491 1.649 1.465 1.889 2.983.35 2.214-.275 4.94-2.18 6.867-.812.82-1.743 1.454-2.672 1.715-.8.226-1.665.19-2.251-.23-.408-.29-.107-.74.221-.342.499.605.414 1.551.002 2.257-.96 1.647-2.76 2.768-4.289 3.264-3.103 1.005-6.52.688-8.627-.91-.483-.483.476-.725.287-.019-.33 1.324-2.814 2.188-4.973 2.212-3.576.04-6.52-1.372-8.175-3.689-.752-1.054-1.113-2.426-.902-3.956" style="fill:#fffbd5;fill-opacity:1;stroke:#000;stroke-width:.4;stroke-miterlimit:4;stroke-dasharray:none"/><path d="M163.132 153.47q1.535-2.221 4.195-2.221 1.316 0 2.632.712 1.316.713 2.139 2.523 1.014 2.276 1.014 6.251 0 4.25-1.179 6.498-.548 1.152-1.508 1.837-.96.686-1.672.85-.713.165-1.399.192-.712 0-1.425-.165-.713-.164-1.673-.877-.96-.713-1.508-1.837-1.179-2.248-1.179-6.498 0-4.77 1.563-7.266zm6.169-.33q-.822-.877-1.947-.877-1.151 0-1.974.877-.685.713-.904 1.975-.22 1.26-.22 5.264 0 4.332.22 5.703.219 1.37.987 2.166.767.822 1.891.822 1.097 0 1.865-.822.795-.823.987-2.304.192-1.48.22-5.565 0-3.976-.22-5.237-.22-1.261-.905-2.002zM176.347 167.864q0-.658.466-1.152.467-.493 1.18-.493.657 0 1.151.438.493.439.52 1.18 0 .685-.465 1.178-.466.494-1.18.494-.712 0-1.178-.466-.466-.466-.494-1.18ZM184.49 153.47q1.536-2.221 4.195-2.221 1.316 0 2.632.712 1.316.713 2.139 2.523 1.014 2.276 1.014 6.251 0 4.25-1.179 6.498-.548 1.152-1.508 1.837-.96.686-1.672.85-.713.165-1.398.192-.713 0-1.426-.165-.713-.164-1.672-.877-.96-.713-1.508-1.837-1.18-2.248-1.18-6.498 0-4.77 1.563-7.266zm6.17-.33q-.823-.877-1.947-.877-1.152 0-1.974.877-.686.713-.905 1.975-.22 1.26-.22 5.264 0 4.332.22 5.703.22 1.37.987 2.166.768.822 1.892.822 1.096 0 1.864-.822.795-.823.987-2.304.192-1.48.22-5.565 0-3.976-.22-5.237-.22-1.261-.905-2.002ZM198.2 153.47q1.535-2.221 4.194-2.221 1.316 0 2.632.712 1.316.713 2.139 2.523 1.014 2.276 1.014 6.251 0 4.25-1.179 6.498-.548 1.152-1.508 1.837-.96.686-1.672.85-.713.165-1.398.192-.713 0-1.426-.165-.713-.164-1.673-.877-.96-.713-1.508-1.837-1.179-2.248-1.179-6.498 0-4.77 1.563-7.266zm6.168-.33q-.822-.877-1.946-.877-1.152 0-1.975.877-.685.713-.904 1.975-.22 1.26-.22 5.264 0 4.332.22 5.703.219 1.37.987 2.166.767.822 1.892.822 1.096 0 1.864-.822.795-.823.987-2.304.192-1.48.22-5.565 0-3.976-.22-5.237-.22-1.261-.905-2.002ZM211.935 153.47q1.536-2.221 4.195-2.221 1.316 0 2.632.712 1.316.713 2.139 2.523 1.014 2.276 1.014 6.251 0 4.25-1.179 6.498-.548 1.152-1.508 1.837-.96.686-1.672.85-.713.165-1.398.192-.713 0-1.426-.165-.713-.164-1.672-.877-.96-.713-1.508-1.837-1.18-2.248-1.18-6.498 0-4.77 1.563-7.266zm6.17-.33q-.823-.877-1.947-.877-1.152 0-1.974.877-.686.713-.905 1.975-.22 1.26-.22 5.264 0 4.332.22 5.703.22 1.37.987 2.166.768.822 1.892.822 1.096 0 1.864-.822.795-.823.987-2.304.192-1.48.22-5.565 0-3.976-.22-5.237-.22-1.261-.905-2.002zM225.644 153.47q1.536-2.221 4.195-2.221 1.316 0 2.632.712 1.316.713 2.139 2.523 1.014 2.276 1.014 6.251 0 4.25-1.179 6.498-.548 1.152-1.508 1.837-.96.686-1.672.85-.713.165-1.398.192-.713 0-1.426-.165-.713-.164-1.673-.877-.96-.713-1.508-1.837-1.179-2.248-1.179-6.498 0-4.77 1.563-7.266zm6.17-.33q-.823-.877-1.947-.877-1.152 0-1.975.877-.685.713-.904 1.975-.22 1.26-.22 5.264 0 4.332.22 5.703.219 1.37.987 2.166.767.822 1.892.822 1.096 0 1.864-.822.795-.823.987-2.304.192-1.48.22-5.565 0-3.976-.22-5.237-.22-1.261-.905-2.002zM242.588 153.661l-.356.137q-.384.138-1.097.275t-1.59.192h-.521v-1.262h.52q1.29-.054 2.386-.41 1.097-.357 1.536-.659.438-.302.767-.603.055-.082.33-.082.246 0 .465.164v8.198l.028 8.225q.192.192.329.247.137.055.658.11.52.055 1.7.055h.713v1.26h-.302q-.576-.081-4.36-.081-3.728 0-4.304.082h-.329v-1.261h1.755q.439 0 .685-.028.247-.027.439-.082.192-.055.22-.055.027 0 .164-.137t.164-.11z"/></svg>