<svg xmlns="http://www.w3.org/2000/svg" xmlns:xlink="http://www.w3.org/1999/xlink" width="162.11" height="43.071" aria-hidden="true" viewBox="0 -18.033 162.11 43.071"><defs><path id="a" stroke-width="1" d="m304-161-12-16C134-87 48 82 48 252c0 185 87 329 247 424l9-16C165 541 134 448 134 255c0-186 30-299 170-416Z"/><path id="b" stroke-width="1" d="m305 288 45 69c26 40 61 84 111 84 32 0 49-12 49-33 0-19-13-42-39-42-22 0-27 9-44 9-30 0-41-16-55-38l-55-85c30-62 53-197 98-197 16 0 40 14 61 57l14-10C478 87 433-9 375-9c-41 0-60 41-73 77l-40 113-63-98C167 34 138-9 82-9 46-9 30 16 30 38c0 16 13 37 38 37 26 0 22-20 47-20 12 0 38 10 70 59l65 101-33 92c-17 48-43 89-98 89-13 0-28-2-38-6l-3 18 132 33c44-24 63-65 75-98z"/><path id="c" stroke-width="1" d="M856 258v-10c-96-41-172-115-238-191l-20 19c23 33 52 65 82 96 9 9 14 20 14 28 0 10-8 20-26 20H70v66h599c10 0 26 12 26 22 0 9-4 15-14 25-29 28-60 63-82 96l20 19c65-75 141-150 237-190Z"/><path id="d" stroke-width="1" d="m270 307 28-235c61 83 96 143 118 184 20 37 28 57 28 75 0 21-52 31-52 69 0 22 18 40 47 40 32 0 57-23 57-62 0-78-162-318-204-371-73-92-138-190-206-190-37 0-56 31-56 55 0 30 27 41 40 41 43 0 41-31 57-31 17 0 74 62 100 102l-38 314c-5 45-14 105-70 105-11 0-27-3-36-4l-2 16 150 25c23-33 30-59 39-133z"/><path id="e" stroke-width="1" d="m61 510-16 4c29 95 92 162 196 162 93 0 156-55 156-137 0-48-26-98-93-138 44-19 62-31 83-53 28-31 44-77 44-129 0-53-17-102-46-140-48-64-143-93-232-93C80-14 41 7 41 43c0 21 18 36 41 36 17 0 33-6 61-26 37-26 58-31 86-31 74 0 130 68 130 153 0 76-35 125-104 145-22 7-45 10-102 10v14c38 13 64 24 84 36 49 28 81 73 81 134 0 68-42 102-108 102-62 0-108-32-149-106z"/><path id="f" stroke-width="1" d="m29 660 12 16c153-92 244-259 244-429 0-185-88-327-247-424l-9 16C171-44 199 50 199 244c0 187-25 302-170 416Z"/><path id="g" stroke-width="1" d="m446 684 2-16c-157-26-269-134-296-285 49 38 83 45 127 45 117 0 189-80 189-209 0-64-18-120-51-160-37-46-93-73-159-73-79 0-142 37-177 101-28 51-47 122-47 192 0 108 38 203 109 276 86 90 165 114 303 129zm-68-496c0 128-42 194-135 194-57 0-116-24-116-116 0-152 48-252 142-252 72 0 109 72 109 174z"/><path id="h" stroke-width="1" d="M445 155c0-103-77-169-197-169C135-14 56 55 56 149c0 69 23 108 130 183C83 417 62 455 62 520c0 96 83 156 194 156 99 0 168-65 168-143 0-75-35-109-134-162 123-82 155-136 155-216Zm-90 378c0 69-41 115-109 115-67 0-110-37-110-99s37-108 125-160c68 40 94 82 94 144zm-84-261-59 40c-59-48-80-89-80-154 0-92 51-144 127-144 65 0 110 45 110 110 0 62-30 102-98 148z"/></defs><rect width="11.89" height="14.102" x="44.319" y="-11.782" ry="4.36" style="fill:#fae;stroke:none;stroke-width:.600001;stroke-linejoin:round;stroke-miterlimit:2"/><rect width="11.89" height="14.102" x="145.419" y="-11.782" ry="4.36" style="fill:#fae;stroke:none;stroke-width:.600001;stroke-linejoin:round;stroke-miterlimit:2"/><rect width="11.89" height="14.102" x="5.471" y="-11.782" ry="4.36" style="fill:#faa;stroke:none;stroke-width:.600001;stroke-linejoin:round;stroke-miterlimit:2"/><rect width="11.89" height="14.102" x="123.161" y="-11.782" ry="4.36" style="fill:#faa;stroke:none;stroke-width:.600001;stroke-linejoin:round;stroke-miterlimit:2"/><path d="M48.427 2.051c.024 3.913-.356 8.175 2.688 11.303 4.243 4.36 10.307 2.824 15.443 1.116 6.402-2.13 13.057-3.77 20.004-2.953 9.362 1.1 17.342 6.227 26.074 9.118 8.34 2.76 17.858 6.603 26.518 2.828 2.352-1.025 5.467-3.903 6.685-4.626 2.738-1.626 9.325-2.347 9.562-7.196.177-3.647-.944-8.78-2.12-10.025-1.4-.1-3.296.022-3.855.49.454 1.433.735 3.15 1.165 4.653.653 2.287.611 5.373-1.165 5.97-3.879 1.305-10.15 5.591-11.318 6.321-5.886 3.677-13.318.235-19.541-1.334-9.634-2.429-17.926-8.509-27.86-10.114-6.63-1.071-13.294-.533-19.78 1.246-4.852 1.331-10.215 4.497-14.957 2.579-2.754-1.114-3.164-5.505-3.028-8.703.708-2.504-3.37-.134-4.515-.673Z" style="fill:#fae;fill-opacity:1;stroke:#faa;stroke-width:0;stroke-linejoin:round;stroke-miterlimit:2;stroke-dasharray:none"/><path d="M8.47 1.938c.13 4.594-.978 10.556 3.915 13.13 5.592 2.695 11.798 1.243 17.648.471 5.213-.327 8.908 4.495 13.76 5.726 8.596 4.059 18.455 2.477 27.132-.692 5.667-2.07 12.792-2.534 18.004-.897 6.087 1.912 12.2 2.36 18.14.73 8.613-2.364 13.721-3.396 20.814-3.011 5.55.301 6.778-6.287 6.206-10.464-.315-2.303-1.417-5.007-1.912-6.079-1.851-2.196-1.803.707-3.534 1.123.601 1.753.969 3.435 1.376 4.911.569 2.064.344 5.68-1.137 6.047-2.84.703-6.426-.442-10.242.372-7.67 1.636-14.109 5.073-22.245 3.944-4.202-.584-9.64-2.862-14.87-2.643-5.92.247-11.589 1.585-17.107 3.498-7.642 2.649-16.052 1.088-22.962-2.858-4.503-3.186-9.858-5.321-15.397-3.712-4.624 1.151-14.046 1.902-13.074-5.22-.392-1.37.79-4.468-.595-4.747l-3.92.37Z" style="fill:#faa;stroke:#faa;stroke-width:0;stroke-linejoin:round;stroke-miterlimit:2;stroke-dasharray:none"/><g transform="scale(.01904 -.01904)"><use xlink:href="#a"/><use xlink:href="#b" x="333"/><use xlink:href="#c" x="1161"/><use xlink:href="#d" x="2366"/><use xlink:href="#c" x="3140"/><g transform="translate(4344)"><use xlink:href="#b"/><use xlink:href="#e" x="778" y="583" transform="scale(.707)"/></g><use xlink:href="#d" x="5349"/><use xlink:href="#f" x="5845"/><use xlink:href="#a" x="6179"/><use xlink:href="#g" x="6512"/><use xlink:href="#f" x="7013"/><use xlink:href="#a" x="7346"/><use xlink:href="#h" x="7680"/><use xlink:href="#f" x="8180"/></g></svg>