<svg xmlns="http://www.w3.org/2000/svg" xmlns:xlink="http://www.w3.org/1999/xlink" width="349.056" height="81.03" aria-hidden="true" viewBox="0 -47.176 349.056 81.03"><defs><path id="a" stroke-width="1" d="M56 347q0 13 14 20h637q15-8 15-20 0-11-14-19l-318-1H72q-16 5-16 20Zm0-194q0 15 16 20h636q14-10 14-20 0-13-15-20H70q-14 7-14 20Z"/><path id="b" stroke-width="1" d="m213 578-13-5q-14-5-40-10t-58-7H83v46h19q47 2 87 15t56 24 28 22q2 3 12 3 9 0 17-6V361l1-300q7-7 12-9t24-4 62-2h26V0h-11q-21 3-159 3-136 0-157-3H88v46h64q16 0 25 1t16 3 8 2 6 5 6 4v517Z"/><path id="c" stroke-width="1" d="M78 250q0 24 17 42t43 18q24 0 42-16t19-43q0-25-17-43t-43-18-43 17-18 43Z"/><path id="d" stroke-width="1" d="M84 237v13l14 20h581q15-8 15-20t-15-20H98q-14 7-14 20Z"/></defs><g transform="scale(.01904 -.01904)"><path d="M172 316h2998v86H172z"/><text style="-inkscape-font-specification:Baskerville;font-family:Baskerville;font-weight:400;font-style:normal;font-stretch:normal;font-variant:normal;font-size:20.33071293px" transform="matrix(77.5 0 0 -77.5 258 1011)">L/T</text><text style="font-size:20.33071293px;-inkscape-font-specification:Baskerville;font-family:Baskerville;font-weight:400;font-style:normal;font-stretch:normal;font-variant:normal" transform="matrix(77.5 0 0 -77.5 1202 -1300)">L</text><use xlink:href="#a" x="2715" transform="scale(1.44)"/><path d="M5770 316h1109v86H5770z"/><use xlink:href="#b" transform="matrix(1.44 0 0 1.44 5964 1099)"/><text style="font-size:20.3307px" transform="matrix(77.5 0 0 -77.5 5856 -1300)"><tspan style="font-style:normal;font-variant:normal;font-weight:400;font-stretch:normal;font-family:Baskerville;-inkscape-font-specification:Baskerville">L</tspan></text><use xlink:href="#c" x="5120" transform="scale(1.44)"/><path d="M8266 316h1254v86H8266z"/><text style="-inkscape-font-specification:Baskerville;font-family:Baskerville;font-weight:400;font-style:normal;font-stretch:normal;font-variant:normal;font-size:20.33071293px" transform="matrix(77.5 0 0 -77.5 8425 1011)">L</text><text style="-inkscape-font-specification:Baskerville;font-family:Baskerville;font-weight:400;font-style:normal;font-stretch:normal;font-variant:normal;font-size:20.33071293px" transform="matrix(77.5 0 0 -77.5 8352 -1300)">T</text><use xlink:href="#a" x="7126" transform="scale(1.44)"/><path d="M12121 316h1254v86h-1254z"/><use xlink:href="#b" transform="matrix(1.44 0 0 1.44 12388 1099)"/><text style="-inkscape-font-specification:Baskerville;font-family:Baskerville;font-weight:400;font-style:normal;font-stretch:normal;font-variant:normal;font-size:20.33071293px" transform="matrix(77.5 0 0 -77.5 12207 -1300)">T</text><use xlink:href="#a" x="9803" transform="scale(1.44)"/><text style="-inkscape-font-specification:Baskerville;font-family:Baskerville;font-weight:400;font-style:normal;font-stretch:normal;font-variant:normal;font-size:20.33071293px" transform="matrix(77.5 0 0 -77.5 15804 0)">T</text><g transform="translate(16885 1001) scale(1.018)"><use xlink:href="#d"/><use xlink:href="#b" x="778"/></g></g><path d="m157.112-23.344 19.616-11.55M108.53 20.472l19.616-11.55" style="fill:#f55;stroke:#f55;stroke-width:4;stroke-linecap:square;stroke-dasharray:none"/></svg>