<svg xmlns="http://www.w3.org/2000/svg" id="svg22" width="500" height="100" preserveAspectRatio="none" version="1.1" viewBox="-20 -17.198 500 100"><style id="style1" type="text/css">.grid{stroke:#9e9ed1;stroke-width:.4}.axes{stroke:#000;stroke-width:.9}.axes-arrows{stroke-width:1.1;stroke:#000;fill:none;stroke-linecap:round;stroke-linejoin:round}.notch-labels-in-grid{stroke:none;fill:#b8b8de}</style><defs id="defs1"><path id="MJMAIN-30" stroke-width="1" d="M96 585q56 81 153 81 48 0 96-26t78-92q37-83 37-228 0-155-43-237-20-42-55-67t-61-31q-26-6-51-7-26 0-52 6t-61 32q-35 26-55 67-43 82-43 237 0 174 57 265zm225 12q-30 32-71 32-42 0-72-32-25-26-33-72t-8-192q0-158 8-208t36-79q28-30 69-30 40 0 68 30 29 30 36 84t8 203q0 145-8 191t-33 73z"/><path id="MJMAIN-35" stroke-width="1" d="M164 157q0-24-16-40t-39-16h-7q46-79 122-79 70 0 102 60 19 33 19 128 0 103-27 139-26 33-58 33h-6q-78 0-118-68-4-7-7-8t-15-2q-17 0-19 6-2 4-2 175v129q0 50 5 50 2 2 4 2 1 0 21-8t55-16q35-8 75-8 71 0 136 28 8 4 13 4 8 0 8-18v-13q-82-97-205-97-31 0-56 6l-10 2V374q19 14 30 22t36 16q25 8 51 8 81 0 137-65t56-154q0-92-64-157T229-22q-81 0-130 54T50 154q0 24 11 38t23 18q12 4 23 4 25 0 41-17t16-40z"/></defs><g id="layer16" style="display:inline"><path id="path389" d="m-456.64 71.86.7-1.398 28.688-57.377" style="opacity:1;fill:none;fill-opacity:1;stroke:#858585;stroke-width:1;stroke-dasharray:none;stroke-dashoffset:0;stroke-opacity:1"/><path id="path390" d="m-465.365 89.31-.699 1.398-84.938 169.877" style="opacity:1;fill:none;fill-opacity:1;stroke:#858585;stroke-width:1;stroke-dasharray:none;stroke-dashoffset:0;stroke-opacity:1"/></g><g id="layer1" style="display:inline"><path id="path538" d="M85.506 29.229h281.039" style="fill:#000;stroke:#858585;stroke-width:1;stroke-linecap:square;stroke-dasharray:none;stroke-opacity:1"/><path id="path539" d="M85.506 29.229V8.823" style="fill:#000;stroke:#858585;stroke-width:1;stroke-dasharray:none;stroke-opacity:1"/><path id="path540" d="M130.506 29.229V8.823" style="fill:#000;stroke:#858585;stroke-width:1;stroke-dasharray:none;stroke-opacity:1"/><path id="path541" d="M108.006 29.229V13.218" style="fill:#000;stroke:#858585;stroke-width:1;stroke-dasharray:none;stroke-opacity:1"/><path id="path542" d="M90.006 29.229V17.795" style="fill:#000;stroke:#858585;stroke-width:1;stroke-dasharray:none;stroke-opacity:1"/><path id="path543" d="M94.506 29.229V17.795" style="fill:#000;stroke:#858585;stroke-width:1;stroke-dasharray:none;stroke-opacity:1"/><path id="path544" d="M99.006 29.229V17.795" style="fill:#000;stroke:#858585;stroke-width:1;stroke-dasharray:none;stroke-opacity:1"/><path id="path545" d="M103.506 29.229V17.795" style="fill:#000;stroke:#858585;stroke-width:1;stroke-dasharray:none;stroke-opacity:1"/><path id="path546" d="M112.506 29.229V17.795" style="fill:#000;stroke:#858585;stroke-width:1;stroke-dasharray:none;stroke-opacity:1"/><path id="path547" d="M117.006 29.229V17.795" style="fill:#000;stroke:#858585;stroke-width:1;stroke-dasharray:none;stroke-opacity:1"/><path id="path548" d="M121.506 29.229V17.795" style="fill:#000;stroke:#858585;stroke-width:1;stroke-dasharray:none;stroke-opacity:1"/><path id="path549" d="M126.006 29.229V17.795" style="fill:#000;stroke:#858585;stroke-width:1;stroke-dasharray:none;stroke-opacity:1"/><path id="path550" d="M175.506 29.229V8.823" style="fill:#000;stroke:#858585;stroke-width:1;stroke-dasharray:none;stroke-opacity:1"/><path id="path551" d="M153.006 29.229V13.218" style="fill:#000;stroke:#858585;stroke-width:1;stroke-dasharray:none;stroke-opacity:1"/><path id="path552" d="M135.006 29.229V17.795" style="fill:#000;stroke:#858585;stroke-width:1;stroke-dasharray:none;stroke-opacity:1"/><path id="path553" d="M139.506 29.229V17.795" style="fill:#000;stroke:#858585;stroke-width:1;stroke-dasharray:none;stroke-opacity:1"/><path id="path554" d="M144.006 29.229V17.795" style="fill:#000;stroke:#858585;stroke-width:1;stroke-dasharray:none;stroke-opacity:1"/><path id="path555" d="M148.506 29.229V17.795" style="fill:#000;stroke:#858585;stroke-width:1;stroke-dasharray:none;stroke-opacity:1"/><path id="path556" d="M157.506 29.229V17.795" style="fill:#000;stroke:#858585;stroke-width:1;stroke-dasharray:none;stroke-opacity:1"/><path id="path557" d="M162.006 29.229V17.795" style="fill:#000;stroke:#858585;stroke-width:1;stroke-dasharray:none;stroke-opacity:1"/><path id="path558" d="M166.506 29.229V17.795" style="fill:#000;stroke:#858585;stroke-width:1;stroke-dasharray:none;stroke-opacity:1"/><path id="path559" d="M171.006 29.229V17.795" style="fill:#000;stroke:#858585;stroke-width:1;stroke-dasharray:none;stroke-opacity:1"/><path id="path560" d="M220.506 29.229V8.823" style="fill:#000;stroke:#858585;stroke-width:1;stroke-dasharray:none;stroke-opacity:1"/><path id="path561" d="M198.006 29.229V13.218" style="fill:#000;stroke:#858585;stroke-width:1;stroke-dasharray:none;stroke-opacity:1"/><path id="path562" d="M180.006 29.229V17.795" style="fill:#000;stroke:#858585;stroke-width:1;stroke-dasharray:none;stroke-opacity:1"/><path id="path563" d="M184.506 29.229V17.795" style="fill:#000;stroke:#858585;stroke-width:1;stroke-dasharray:none;stroke-opacity:1"/><path id="path564" d="M189.006 29.229V17.795" style="fill:#000;stroke:#858585;stroke-width:1;stroke-dasharray:none;stroke-opacity:1"/><path id="path565" d="M193.506 29.229V17.795" style="fill:#000;stroke:#858585;stroke-width:1;stroke-dasharray:none;stroke-opacity:1"/><path id="path566" d="M202.506 29.229V17.795" style="fill:#000;stroke:#858585;stroke-width:1;stroke-dasharray:none;stroke-opacity:1"/><path id="path567" d="M207.006 29.229V17.795" style="fill:#000;stroke:#858585;stroke-width:1;stroke-dasharray:none;stroke-opacity:1"/><path id="path568" d="M211.506 29.229V17.795" style="fill:#000;stroke:#858585;stroke-width:1;stroke-dasharray:none;stroke-opacity:1"/><path id="path569" d="M216.006 29.229V17.795" style="fill:#000;stroke:#858585;stroke-width:1;stroke-dasharray:none;stroke-opacity:1"/><path id="path570" d="M265.506 29.229V8.823" style="fill:#000;stroke:#858585;stroke-width:1;stroke-dasharray:none;stroke-opacity:1"/><path id="path571" d="M243.006 29.229V13.218" style="fill:#000;stroke:#858585;stroke-width:1;stroke-dasharray:none;stroke-opacity:1"/><path id="path572" d="M225.006 29.229V17.795" style="fill:#000;stroke:#858585;stroke-width:1;stroke-dasharray:none;stroke-opacity:1"/><path id="path573" d="M229.506 29.229V17.795" style="fill:#000;stroke:#858585;stroke-width:1;stroke-dasharray:none;stroke-opacity:1"/><path id="path574" d="M234.006 29.229V17.795" style="fill:#000;stroke:#858585;stroke-width:1;stroke-dasharray:none;stroke-opacity:1"/><path id="path575" d="M238.506 29.229V17.795" style="fill:#000;stroke:#858585;stroke-width:1;stroke-dasharray:none;stroke-opacity:1"/><path id="path576" d="M247.506 29.229V17.795" style="fill:#000;stroke:#858585;stroke-width:1;stroke-dasharray:none;stroke-opacity:1"/><path id="path577" d="M252.006 29.229V17.795" style="fill:#000;stroke:#858585;stroke-width:1;stroke-dasharray:none;stroke-opacity:1"/><path id="path578" d="M256.506 29.229V17.795" style="fill:#000;stroke:#858585;stroke-width:1;stroke-dasharray:none;stroke-opacity:1"/><path id="path579" d="M261.006 29.229V17.795" style="fill:#000;stroke:#858585;stroke-width:1;stroke-dasharray:none;stroke-opacity:1"/><path id="path580" d="M310.506 29.229V8.823" style="fill:#000;stroke:#858585;stroke-width:1;stroke-dasharray:none;stroke-opacity:1"/><path id="path581" d="M288.006 29.229V13.218" style="fill:#000;stroke:#858585;stroke-width:1;stroke-dasharray:none;stroke-opacity:1"/><path id="path582" d="M270.006 29.229V17.795" style="fill:#000;stroke:#858585;stroke-width:1;stroke-dasharray:none;stroke-opacity:1"/><path id="path583" d="M274.506 29.229V17.795" style="fill:#000;stroke:#858585;stroke-width:1;stroke-dasharray:none;stroke-opacity:1"/><path id="path584" d="M279.006 29.229V17.795" style="fill:#000;stroke:#858585;stroke-width:1;stroke-dasharray:none;stroke-opacity:1"/><path id="path585" d="M283.506 29.229V17.795" style="fill:#000;stroke:#858585;stroke-width:1;stroke-dasharray:none;stroke-opacity:1"/><path id="path586" d="M292.506 29.229V17.795" style="fill:#000;stroke:#858585;stroke-width:1;stroke-dasharray:none;stroke-opacity:1"/><path id="path587" d="M297.006 29.229V17.795" style="fill:#000;stroke:#858585;stroke-width:1;stroke-dasharray:none;stroke-opacity:1"/><path id="path588" d="M301.506 29.229V17.795" style="fill:#000;stroke:#858585;stroke-width:1;stroke-dasharray:none;stroke-opacity:1"/><path id="path589" d="M306.006 29.229V17.795" style="fill:#000;stroke:#858585;stroke-width:1;stroke-dasharray:none;stroke-opacity:1"/><path id="path590" d="M355.706 29.229V8.823" style="fill:#000;stroke:#858585;stroke-width:1;stroke-dasharray:none;stroke-opacity:1"/><path id="path591" d="M333.206 29.229V13.218" style="fill:#000;stroke:#858585;stroke-width:1;stroke-dasharray:none;stroke-opacity:1"/><path id="path592" d="M315.206 29.229V17.795" style="fill:#000;stroke:#858585;stroke-width:1;stroke-dasharray:none;stroke-opacity:1"/><path id="path593" d="M319.706 29.229V17.795" style="fill:#000;stroke:#858585;stroke-width:1;stroke-dasharray:none;stroke-opacity:1"/><path id="path594" d="M324.206 29.229V17.795" style="fill:#000;stroke:#858585;stroke-width:1;stroke-dasharray:none;stroke-opacity:1"/><path id="path595" d="M328.706 29.229V17.795" style="fill:#000;stroke:#858585;stroke-width:1;stroke-dasharray:none;stroke-opacity:1"/><path id="path596" d="M337.706 29.229V17.795" style="fill:#000;stroke:#858585;stroke-width:1;stroke-dasharray:none;stroke-opacity:1"/><path id="path597" d="M342.206 29.229V17.795" style="fill:#000;stroke:#858585;stroke-width:1;stroke-dasharray:none;stroke-opacity:1"/><path id="path598" d="M346.706 29.229V17.795" style="fill:#000;stroke:#858585;stroke-width:1;stroke-dasharray:none;stroke-opacity:1"/><path id="path599" d="M351.206 29.229V17.795" style="fill:#000;stroke:#858585;stroke-width:1;stroke-dasharray:none;stroke-opacity:1"/><path id="path602" d="M360.006 29.229V17.795" style="fill:#000;stroke:#858585;stroke-width:1;stroke-dasharray:none;stroke-opacity:1"/><path id="path603" d="M364.506 29.229V17.795" style="fill:#000;stroke:#858585;stroke-width:1;stroke-dasharray:none;stroke-opacity:1"/><path id="path627" d="m358.63-3.905-1.282.1q-.172-.759-.487-1.103-.523-.551-1.289-.551-.616 0-1.081.344-.61.444-.96 1.296-.351.852-.365 2.428.465-.71 1.138-1.053.674-.344 1.411-.344 1.29 0 2.192.953.91.945.91 2.45 0 .988-.43 1.84-.423.845-1.168 1.297-.744.45-1.69.45-1.611 0-2.628-1.181-1.018-1.189-1.018-3.91 0-3.045 1.125-4.427.981-1.203 2.643-1.203 1.239 0 2.027.695.795.694.952 1.919zM353.366.622q0 .666.28 1.275.286.608.794.93.509.316 1.068.316.816 0 1.403-.66.588-.658.588-1.79 0-1.088-.58-1.712-.58-.63-1.462-.63-.873 0-1.482.63-.609.624-.609 1.64z" style="font-size:20px;font-family:Arial;-inkscape-font-specification:Arial;text-align:center;text-anchor:middle;stroke-width:2"/><path id="path626" d="m307.101 1.284 1.354-.115q.15.989.695 1.49.551.494 1.325.494.931 0 1.576-.702.644-.702.644-1.862 0-1.103-.623-1.74-.616-.638-1.619-.638-.623 0-1.124.287-.501.279-.788.73l-1.21-.157 1.017-5.394h5.221v1.232h-4.19l-.566 2.822q.946-.659 1.984-.659 1.375 0 2.32.953.946.952.946 2.45 0 1.425-.83 2.463-1.01 1.275-2.758 1.275-1.433 0-2.342-.802-.903-.802-1.032-2.127z" style="font-size:20px;font-family:Arial;-inkscape-font-specification:Arial;text-align:center;text-anchor:middle;stroke-width:2"/><path id="path624" d="M266.556 4.016V1.502H262V.32l4.792-6.804h1.053V.32h1.418v1.182h-1.418v2.514zm0-3.696v-4.734L263.268.32z" style="font-size:20px;font-family:Arial;-inkscape-font-specification:Arial;text-align:center;text-anchor:middle;stroke-width:2"/><path id="path623" d="m217.29 1.252 1.29-.172q.222 1.096.752 1.583.537.48 1.304.48.91 0 1.532-.63.63-.63.63-1.562 0-.888-.58-1.46-.58-.58-1.475-.58-.365 0-.91.142l.144-1.131q.129.014.207.014.824 0 1.483-.43.659-.43.659-1.325 0-.709-.48-1.174-.48-.466-1.239-.466-.752 0-1.253.473-.502.473-.645 1.418l-1.29-.23q.237-1.296 1.075-2.005.838-.716 2.084-.716.86 0 1.583.373.724.365 1.103 1.002.387.638.387 1.354 0 .68-.365 1.24-.366.558-1.082.887.931.215 1.447.896.516.673.516 1.69 0 1.375-1.003 2.335-1.003.952-2.536.952-1.382 0-2.299-.823-.91-.824-1.038-2.135z" style="font-size:20px;font-family:Arial;-inkscape-font-specification:Arial;text-align:center;text-anchor:middle;stroke-width:2"/><path id="path622" d="M179.029 2.775v1.239h-6.94q-.015-.466.15-.896.265-.709.845-1.396.587-.688 1.69-1.59 1.712-1.404 2.314-2.22.601-.824.601-1.555 0-.766-.551-1.289-.545-.53-1.425-.53-.932 0-1.49.559-.559.558-.566 1.547l-1.325-.136q.136-1.483 1.024-2.256.888-.781 2.385-.781 1.511 0 2.392.838t.881 2.077q0 .63-.258 1.239-.257.609-.859 1.282-.594.673-1.984 1.848-1.16.974-1.49 1.325-.33.344-.544.695z" style="font-size:20px;font-family:Arial;-inkscape-font-specification:Arial;text-align:center;text-anchor:middle;stroke-width:2"/><path id="path621" d="M131.44 4.014h-1.29v-8.215q-.465.444-1.225.888-.752.444-1.353.666v-1.246q1.081-.509 1.89-1.232.81-.724 1.147-1.404h.83z" style="font-size:20px;font-family:Arial;-inkscape-font-specification:Arial;text-align:center;text-anchor:middle;stroke-width:2"/><path id="text619" d="M82.082-1.155q0-1.862.38-2.993.386-1.14 1.138-1.755.76-.616 1.906-.616.845 0 1.482.344.638.336 1.053.98.415.638.652 1.562.236.917.236 2.478 0 1.848-.38 2.987-.38 1.132-1.138 1.755-.752.616-1.905.616-1.519 0-2.385-1.089-1.039-1.31-1.039-4.269zm1.325 0q0 2.586.602 3.445.608.853 1.497.853.888 0 1.49-.86.608-.86.608-3.438 0-2.592-.609-3.445-.601-.852-1.504-.852-.888 0-1.418.752-.666.96-.666 3.545z" style="font-size:20px;font-family:Arial;-inkscape-font-specification:Arial;text-align:center;text-anchor:middle;stroke-width:2"/><path id="path715" d="m-551.002 260.585-18.25-9.126" style="fill:#000;stroke:#858585;stroke-width:1;stroke-dasharray:none;stroke-opacity:1"/><path id="path716" d="m-530.877 220.336-18.25-9.126" style="fill:#000;stroke:#858585;stroke-width:1;stroke-dasharray:none;stroke-opacity:1"/><path id="path717" d="m-540.94 240.46-14.32-7.16" style="fill:#000;stroke:#858585;stroke-width:1;stroke-dasharray:none;stroke-opacity:1"/><path id="path718" d="m-548.99 256.56-10.226-5.113" style="fill:#000;stroke:#858585;stroke-width:1;stroke-dasharray:none;stroke-opacity:1"/><path id="path719" d="m-546.977 252.535-10.226-5.113" style="fill:#000;stroke:#858585;stroke-width:1;stroke-dasharray:none;stroke-opacity:1"/><path id="path720" d="m-544.964 248.51-10.227-5.113" style="fill:#000;stroke:#858585;stroke-width:1;stroke-dasharray:none;stroke-opacity:1"/><path id="path721" d="m-542.952 244.485-10.226-5.113" style="fill:#000;stroke:#858585;stroke-width:1;stroke-dasharray:none;stroke-opacity:1"/><path id="path722" d="m-538.927 236.435-10.226-5.113" style="fill:#000;stroke:#858585;stroke-width:1;stroke-dasharray:none;stroke-opacity:1"/><path id="path723" d="m-536.914 232.41-10.226-5.113" style="fill:#000;stroke:#858585;stroke-width:1;stroke-dasharray:none;stroke-opacity:1"/><path id="path724" d="m-534.902 228.386-10.226-5.114" style="fill:#000;stroke:#858585;stroke-width:1;stroke-dasharray:none;stroke-opacity:1"/><path id="path725" d="m-532.89 224.36-10.225-5.113" style="fill:#000;stroke:#858585;stroke-width:1;stroke-dasharray:none;stroke-opacity:1"/><path id="path726" d="m-510.751 180.087-18.251-9.126" style="fill:#000;stroke:#858585;stroke-width:1;stroke-dasharray:none;stroke-opacity:1"/><path id="path727" d="m-520.814 200.211-14.32-7.16" style="fill:#000;stroke:#858585;stroke-width:1;stroke-dasharray:none;stroke-opacity:1"/><path id="path728" d="m-528.864 216.311-10.226-5.113" style="fill:#000;stroke:#858585;stroke-width:1;stroke-dasharray:none;stroke-opacity:1"/><path id="path729" d="m-526.852 212.286-10.226-5.113" style="fill:#000;stroke:#858585;stroke-width:1;stroke-dasharray:none;stroke-opacity:1"/><path id="path730" d="m-524.839 208.261-10.226-5.113" style="fill:#000;stroke:#858585;stroke-width:1;stroke-dasharray:none;stroke-opacity:1"/><path id="path731" d="m-522.826 204.236-10.227-5.113" style="fill:#000;stroke:#858585;stroke-width:1;stroke-dasharray:none;stroke-opacity:1"/><path id="path732" d="m-518.801 196.187-10.227-5.114" style="fill:#000;stroke:#858585;stroke-width:1;stroke-dasharray:none;stroke-opacity:1"/><path id="path733" d="m-516.789 192.162-10.226-5.114" style="fill:#000;stroke:#858585;stroke-width:1;stroke-dasharray:none;stroke-opacity:1"/><path id="path734" d="m-514.776 188.137-10.227-5.114" style="fill:#000;stroke:#858585;stroke-width:1;stroke-dasharray:none;stroke-opacity:1"/><path id="path735" d="m-512.764 184.112-10.226-5.113" style="fill:#000;stroke:#858585;stroke-width:1;stroke-dasharray:none;stroke-opacity:1"/><path id="path736" d="m-490.626 139.838-18.251-9.126" style="fill:#000;stroke:#858585;stroke-width:1;stroke-dasharray:none;stroke-opacity:1"/><path id="path737" d="m-500.689 159.963-14.32-7.161" style="fill:#000;stroke:#858585;stroke-width:1;stroke-dasharray:none;stroke-opacity:1"/><path id="path738" d="m-508.739 176.062-10.226-5.113" style="fill:#000;stroke:#858585;stroke-width:1;stroke-dasharray:none;stroke-opacity:1"/><path id="path739" d="m-506.726 172.037-10.227-5.113" style="fill:#000;stroke:#858585;stroke-width:1;stroke-dasharray:none;stroke-opacity:1"/><path id="path740" d="m-504.714 168.012-10.226-5.113" style="fill:#000;stroke:#858585;stroke-width:1;stroke-dasharray:none;stroke-opacity:1"/><path id="path741" d="m-502.701 163.987-10.226-5.113" style="fill:#000;stroke:#858585;stroke-width:1;stroke-dasharray:none;stroke-opacity:1"/><path id="path742" d="m-498.676 155.938-10.226-5.114" style="fill:#000;stroke:#858585;stroke-width:1;stroke-dasharray:none;stroke-opacity:1"/><path id="path743" d="m-496.664 151.913-10.226-5.114" style="fill:#000;stroke:#858585;stroke-width:1;stroke-dasharray:none;stroke-opacity:1"/><path id="path744" d="m-494.651 147.888-10.226-5.114" style="fill:#000;stroke:#858585;stroke-width:1;stroke-dasharray:none;stroke-opacity:1"/><path id="path745" d="m-492.639 143.863-10.226-5.113" style="fill:#000;stroke:#858585;stroke-width:1;stroke-dasharray:none;stroke-opacity:1"/><path id="path746" d="m-470.5 99.59-18.252-9.127" style="fill:#000;stroke:#858585;stroke-width:1;stroke-dasharray:none;stroke-opacity:1"/><path id="path747" d="m-480.563 119.714-14.32-7.161" style="fill:#000;stroke:#858585;stroke-width:1;stroke-dasharray:none;stroke-opacity:1"/><path id="path748" d="m-488.613 135.813-10.227-5.113" style="fill:#000;stroke:#858585;stroke-width:1;stroke-dasharray:none;stroke-opacity:1"/><path id="path749" d="m-486.601 131.788-10.226-5.113" style="fill:#000;stroke:#858585;stroke-width:1;stroke-dasharray:none;stroke-opacity:1"/><path id="path750" d="m-484.588 127.763-10.227-5.113" style="fill:#000;stroke:#858585;stroke-width:1;stroke-dasharray:none;stroke-opacity:1"/><path id="path751" d="m-482.576 123.739-10.226-5.114" style="fill:#000;stroke:#858585;stroke-width:1;stroke-dasharray:none;stroke-opacity:1"/><path id="path752" d="m-478.55 115.689-10.227-5.114" style="fill:#000;stroke:#858585;stroke-width:1;stroke-dasharray:none;stroke-opacity:1"/><path id="path753" d="m-476.538 111.664-10.227-5.114" style="fill:#000;stroke:#858585;stroke-width:1;stroke-dasharray:none;stroke-opacity:1"/><path id="path754" d="m-474.526 107.639-10.226-5.113" style="fill:#000;stroke:#858585;stroke-width:1;stroke-dasharray:none;stroke-opacity:1"/><path id="path755" d="m-472.513 103.614-10.227-5.113" style="fill:#000;stroke:#858585;stroke-width:1;stroke-dasharray:none;stroke-opacity:1"/><path id="path756" d="m-450.375 59.34-18.251-9.126" style="fill:#000;stroke:#858585;stroke-width:1;stroke-dasharray:none;stroke-opacity:1"/><path id="path757" d="m-469.584 74.892-5.175-2.588" style="fill:#000;stroke:#858585;stroke-width:1;stroke-dasharray:none;stroke-opacity:1"/><path id="path758" d="m-468.488 95.564-10.226-5.113" style="fill:#000;stroke:#858585;stroke-width:1;stroke-dasharray:none;stroke-opacity:1"/><path id="path759" d="m-466.476 91.54-10.226-5.114" style="fill:#000;stroke:#858585;stroke-width:1;stroke-dasharray:none;stroke-opacity:1"/><path id="path760" d="m-470.483 84.505-4.206-2.104" style="fill:#000;stroke:#858585;stroke-width:1;stroke-dasharray:none;stroke-opacity:1"/><path id="path761" d="m-471.154 79.138-1.523-.762" style="fill:#000;stroke:#858585;stroke-width:1;stroke-dasharray:none;stroke-opacity:1"/><path id="path762" d="m-466.033 71.636-2.619-1.31" style="fill:#000;stroke:#858585;stroke-width:1;stroke-dasharray:none;stroke-opacity:1"/><path id="path763" d="m-456.413 71.415-10.226-5.113" style="fill:#000;stroke:#858585;stroke-width:1;stroke-dasharray:none;stroke-opacity:1"/><path id="path764" d="m-454.4 67.39-10.227-5.113" style="fill:#000;stroke:#858585;stroke-width:1;stroke-dasharray:none;stroke-opacity:1"/><path id="path765" d="m-452.388 63.365-10.226-5.113" style="fill:#000;stroke:#858585;stroke-width:1;stroke-dasharray:none;stroke-opacity:1"/><path id="path807" d="m-430.16 18.912-11.655-5.827" style="fill:none;stroke:#858585;stroke-width:1;stroke-dasharray:none;stroke-opacity:1"/><path id="path767" d="m-440.223 39.037-14.32-7.16" style="fill:#000;stroke:#858585;stroke-width:1;stroke-dasharray:none;stroke-opacity:1"/><path id="path768" d="m-448.274 55.136-10.226-5.113" style="fill:#000;stroke:#858585;stroke-width:1;stroke-dasharray:none;stroke-opacity:1"/><path id="path769" d="m-446.261 51.112-10.226-5.114" style="fill:#000;stroke:#858585;stroke-width:1;stroke-dasharray:none;stroke-opacity:1"/><path id="path770" d="m-444.248 47.087-10.227-5.114" style="fill:#000;stroke:#858585;stroke-width:1;stroke-dasharray:none;stroke-opacity:1"/><path id="path771" d="m-442.236 43.062-10.226-5.114" style="fill:#000;stroke:#858585;stroke-width:1;stroke-dasharray:none;stroke-opacity:1"/><path id="path772" d="m-438.21 35.012-10.227-5.113" style="fill:#000;stroke:#858585;stroke-width:1;stroke-dasharray:none;stroke-opacity:1"/><path id="path773" d="m-436.198 30.987-10.227-5.113" style="fill:#000;stroke:#858585;stroke-width:1;stroke-dasharray:none;stroke-opacity:1"/><path id="path774" d="m-434.186 26.962-10.226-5.113" style="fill:#000;stroke:#858585;stroke-width:1;stroke-dasharray:none;stroke-opacity:1"/><path id="path775" d="m-432.173 22.937-10.227-5.113" style="fill:#000;stroke:#858585;stroke-width:1;stroke-dasharray:none;stroke-opacity:1"/><path id="path806" d="m-428.238 15.066-3.964-1.982" style="fill:none;stroke:#858585;stroke-width:1;stroke-dasharray:none;stroke-opacity:1"/><path id="path797" d="m-476.892 49.887.503-1.262q.95.308 1.643.045.688-.272 1.034-.964.417-.833.077-1.723-.34-.89-1.377-1.41-.987-.493-1.835-.22-.846.265-1.294 1.162-.28.557-.247 1.134.026.573.301 1.031l-.682 1.012-4.37-3.321 2.336-4.67 1.102.55-1.874 3.748 2.27 1.768q-.166-1.14.299-2.069.615-1.23 1.89-1.65 1.274-.419 2.613.25 1.275.638 1.832 1.846.69 1.473-.093 3.036-.64 1.281-1.764 1.736-1.122.449-2.364-.029z" style="font-size:20px;font-family:Arial;-inkscape-font-specification:Arial;text-align:center;text-anchor:middle;fill:#1a1a1a;fill-opacity:1;stroke:none;stroke-width:2;stroke-opacity:1"/><path id="path798" d="m-492.582 87.374-2.248-1.124-2.037 4.074-1.057-.528-3.943-7.329.47-.942 6.086 3.043.635-1.268 1.057.529-.635 1.268 2.249 1.124zm-3.305-1.653-4.235-2.117 2.765 5.058z" style="font-size:20px;font-family:Arial;-inkscape-font-specification:Arial;text-align:center;text-anchor:middle;fill:#1a1a1a;fill-opacity:1;stroke:none;stroke-width:2;stroke-opacity:1"/><path id="path799" d="m-517.086 130.202.423-1.23q1.079.291 1.752.035.67-.266 1.012-.951.407-.814.122-1.653-.282-.846-1.115-1.262-.794-.397-1.566-.135-.779.26-1.18 1.06-.163.327-.278.878l-.948-.634q.07-.109.106-.18.368-.736.278-1.518-.09-.781-.89-1.182-.634-.317-1.265-.096-.631.221-.97.9-.337.673-.138 1.333.198.66.98 1.21l-.782 1.051q-1.054-.791-1.313-1.858-.266-1.07.291-2.184.385-.769 1.041-1.25.65-.483 1.39-.537.744-.061 1.384.259.609.304.945.88.336.577.31 1.365.61-.736 1.449-.893.832-.16 1.742.294 1.23.615 1.64 1.942.404 1.322-.282 2.693-.618 1.237-1.765 1.688-1.143.446-2.373-.025z" style="font-size:20px;font-family:Arial;-inkscape-font-specification:Arial;text-align:center;text-anchor:middle;fill:#1a1a1a;fill-opacity:1;stroke:none;stroke-width:2;stroke-opacity:1"/><path id="path800" d="m-532.837 165.105 1.109.554-3.104 6.208q-.423-.196-.734-.535-.515-.554-.87-1.38-.353-.834-.667-2.224-.49-2.159-.951-3.062-.468-.906-1.121-1.233-.686-.343-1.4-.083-.718.25-1.112 1.037-.416.833-.166 1.583.25.75 1.13 1.198l-.714 1.124q-1.265-.785-1.56-1.925-.3-1.144.369-2.483.676-1.351 1.819-1.764 1.144-.414 2.252.14.564.282.993.785.429.503.762 1.342.336.833.766 2.601.352 1.474.518 1.925.16.449.378.798z" style="font-size:20px;font-family:Arial;-inkscape-font-specification:Arial;text-align:center;text-anchor:middle;fill:#1a1a1a;fill-opacity:1;stroke:none;stroke-width:2;stroke-opacity:1"/><path id="path801" d="m-553.012 208.224-.576 1.153-7.348-3.674q.189.615.247 1.493.06.87-.01 1.508l-1.115-.557q.029-1.195-.256-2.242-.285-1.048-.743-1.653l.371-.743z" style="font-size:20px;font-family:Arial;-inkscape-font-specification:Arial;text-align:center;text-anchor:middle;fill:#1a1a1a;fill-opacity:1;stroke:none;stroke-width:2;stroke-opacity:1"/><path id="path802" d="M-579.708 250.059q-1.666-.833-2.508-1.679-.846-.855-1.06-1.803-.212-.955.3-1.98.379-.756.971-1.172.586-.42 1.349-.503.756-.086 1.688.116.925.198 2.322.896 1.653.827 2.501 1.676.843.845 1.06 1.803.215.948-.3 1.98-.68 1.358-2.04 1.646-1.638.343-4.283-.98zm.592-1.186q2.313 1.157 3.35 1.003 1.035-.163 1.432-.958.398-.794-.102-1.716-.496-.93-2.803-2.082-2.319-1.16-3.353-.997-1.032.157-1.435.964-.397.795.038 1.605.56 1.025 2.873 2.181z" style="font-size:20px;font-family:Arial;-inkscape-font-specification:Arial;text-align:center;text-anchor:middle;fill:#1a1a1a;fill-opacity:1;stroke:none;stroke-width:2;stroke-opacity:1"/><g id="g870" style="stroke-width:.954041" transform="matrix(1.04817 0 0 1.04817 22.467 -24.94)"><path id="path841" d="M409.269 82.45c.563-.078.459.775-.047.721-.283.022-.563.174-.618.477-.83 2.253-1.638 4.515-2.484 6.762-.382.989-.884 2.05-1.857 2.579-.669.301-1.576.222-2.084-.343-.305-.346-.136-.906.28-1.074.564-.245 1.259-.07 1.659.394.535.113.767-.646 1.03-1.005.09-.328.497-.66.329-1.004-.883-2.162-1.756-4.329-2.646-6.488-.17-.399-.763-.167-.922-.557-.154-.411.31-.505.61-.463.982.003 1.965-.006 2.947.005.515.039.292.808-.165.72-.284.02-.737.131-.555.516l1.57 4.256c.5-1.456 1.012-2.907 1.503-4.365.078-.37-.367-.39-.624-.42-.514.041-.513-.833.027-.712h2.047z" style="font-size:20px;font-family:&quot;Song Myung&quot;;-inkscape-font-specification:&quot;Song Myung&quot;;text-align:center;text-anchor:middle;stroke-width:.954035;stroke-linecap:square"/><path id="path840" d="M401.26 88.59c.411-.361.878.332.41.594-.642.615-1.627.719-2.456.493a1.407 1.407 0 0 1-1.022-1.105c-.119-.637-.019-1.285-.042-1.928-.004-1.005.009-2.01-.006-3.015-.026-.32-.38-.31-.62-.3-.352.083-.62-.294-.438-.604.175-.248.511-.18.774-.235.291.014.492-.236.504-.511.093-.456.177-.915.278-1.37.1-.33.477-.257.743-.264.29-.06.54.183.475.477-.006.442-.032.885-.023 1.327.026.32.38.31.62.3.34.012.685-.026 1.022.025.306.123.305.707 0 .83-.386.051-.78.013-1.17.025-.293-.06-.557.174-.494.477.005 1.365-.01 2.73.008 4.095.004.384.22.804.636.861.277.05.568-.015.8-.172z" style="font-size:20px;font-family:&quot;Song Myung&quot;;-inkscape-font-specification:&quot;Song Myung&quot;;text-align:center;text-anchor:middle;stroke-width:.954035;stroke-linecap:square"/><path id="path839" d="M394.68 80.737c-.75.07-1.352-.714-1.103-1.422.266-.994 1.914-.99 2.187 0 .24.71-.336 1.467-1.085 1.422z" style="font-size:20px;font-family:&quot;Song Myung&quot;;-inkscape-font-specification:&quot;Song Myung&quot;;text-align:center;text-anchor:middle;stroke-width:.954035;stroke-linecap:square"/><path id="path838" d="M395.527 88.495c-.002.434.49.396.78.509.478.3-.016.756-.42.622-.92-.003-1.84.006-2.76-.005-.58-.09-.19-.762.247-.692.336-.002.553-.304.489-.624-.013-1.405.034-2.812-.044-4.214-.108-.486-.712-.24-1.012-.476-.299-.376.204-.637.522-.708.628-.225 1.254-.459 1.884-.678.447-.1.356.476.352.758-.065 1.835-.028 3.672-.038 5.508z" style="font-size:20px;font-family:&quot;Song Myung&quot;;-inkscape-font-specification:&quot;Song Myung&quot;;text-align:center;text-anchor:middle;stroke-width:.954035;stroke-linecap:square"/><path id="path837" d="M391.146 87.946c.307-.567.851.1.438.461-.594 1.153-2.005 1.597-3.227 1.427-1.247-.101-2.371-.988-2.756-2.18-.525-1.555-.258-3.478 1.026-4.593 1.25-1.126 3.422-1.232 4.63.009.38.407.795 1.18.278 1.637-.474.349-1.276.128-1.402-.482-.122-.377-.09-.802-.279-1.155-.453-.33-1.134-.182-1.582.102-.981.682-1.211 1.996-1.13 3.113.037.967.5 2.016 1.466 2.367.89.335 1.971.081 2.538-.706z" style="font-size:20px;font-family:&quot;Song Myung&quot;;-inkscape-font-specification:&quot;Song Myung&quot;;text-align:center;text-anchor:middle;stroke-width:.954035;stroke-linecap:square"/><path id="path835" d="M380.53 82.182c1.517-.042 2.96 1.014 3.409 2.458.573 1.635.105 3.737-1.424 4.686-1.156.71-2.72.721-3.895.046-1.312-.75-1.884-2.367-1.709-3.818.105-1.393 1.03-2.71 2.37-3.164a3.65 3.65 0 0 1 1.249-.208zm0 .707c-.797-.05-1.422.622-1.593 1.353-.285 1.091-.28 2.258-.054 3.36.142.754.7 1.532 1.536 1.534.773.094 1.466-.486 1.663-1.211.335-1.1.317-2.291.111-3.414-.138-.74-.618-1.547-1.444-1.61l-.108-.009z" style="font-size:20px;font-family:&quot;Song Myung&quot;;-inkscape-font-specification:&quot;Song Myung&quot;;text-align:center;text-anchor:middle;stroke-width:.954035;stroke-linecap:square"/><path id="path834" d="M374.955 88.48c-.036.391.388.442.675.486.596.077.3.849-.211.66-.976-.003-1.952.006-2.927-.005-.599-.106-.154-.775.287-.696.684-.03.424-.877.48-1.325.032-2.376.01-4.753.016-7.13.03-.41-.427-.421-.72-.456-.571.08-.598-.748-.033-.746.724-.175 1.442-.394 2.169-.54.406-.041.275.476.287.736-.073 2.283-.025 4.568-.039 6.852-.004.721.005 1.442.016 2.164z" style="font-size:20px;font-family:&quot;Song Myung&quot;;-inkscape-font-specification:&quot;Song Myung&quot;;text-align:center;text-anchor:middle;stroke-width:.954035;stroke-linecap:square"/><path id="path832" d="M371.092 85.496c-.072.454-.597.328-.926.345h-4.068c-.002 1.02.35 2.18 1.343 2.646.923.437 2.128.259 2.805-.536.242-.566.994-.133.573.329-.643 1.232-2.154 1.698-3.462 1.521-1.286-.11-2.465-1.01-2.846-2.253-.61-1.744-.199-3.96 1.38-5.059 1.354-.967 3.501-.904 4.576.458.563.708.74 1.667.625 2.549zm-4.963-.377c.909-.016 1.822.036 2.727-.033.622-.101.66-.871.53-1.36-.155-.742-.924-1.331-1.688-1.116-1.094.266-1.492 1.516-1.569 2.509z" style="font-size:20px;font-family:&quot;Song Myung&quot;;-inkscape-font-specification:&quot;Song Myung&quot;;text-align:center;text-anchor:middle;stroke-width:.954035;stroke-linecap:square"/><path id="path831" d="M363.067 82.45c.677-.006.342.832-.173.747-.495.081-.52.647-.707 1.015-.702 1.776-1.399 3.555-2.104 5.33-.209.394-.922.303-.998-.154-.821-1.978-1.63-3.963-2.46-5.938-.194-.393-1.094-.182-.899-.824.225-.291.638-.138.959-.177.896.012 1.796-.025 2.69.02.546.283-.023.796-.449.736-.462-.02-.443.455-.27.745l1.427 3.823c.504-1.398 1.026-2.79 1.518-4.192.07-.49-.568-.324-.827-.517-.428-.413.174-.715.564-.615h1.729z" style="font-size:20px;font-family:&quot;Song Myung&quot;;-inkscape-font-specification:&quot;Song Myung&quot;;text-align:center;text-anchor:middle;stroke-width:.954035;stroke-linecap:square"/><path id="path830" d="M351.728 83.046q0 .393-.392.393h-6.596q-.393 0-.393-.393v-.298q0-.393.393-.393h6.596q.392 0 .392.393z" style="font-size:20px;font-family:&quot;Song Myung&quot;;-inkscape-font-specification:&quot;Song Myung&quot;;text-align:center;text-anchor:middle;stroke-width:.954035;stroke-linecap:square"/><path id="path829" d="M351.728 86.203q0 .392-.392.392h-6.596q-.393 0-.393-.392v-.299q0-.392.393-.392h6.596q.392 0 .392.392z" style="font-size:20px;font-family:&quot;Song Myung&quot;;-inkscape-font-specification:&quot;Song Myung&quot;;text-align:center;text-anchor:middle;stroke-width:.954035;stroke-linecap:square"/><path id="path828" d="M338.977 88.495c-.01.334.339.423.604.452.475-.008.484.774-.023.679-.994-.003-1.988.006-2.982-.005-.497-.021-.3-.737.133-.672.26-.034.597-.128.587-.454-.006-1.27.014-2.54-.011-3.81-.036-.466-.103-1.068-.591-1.278-.722-.247-1.485.121-2.027.593-.232.133-.36.321-.308.585v3.91c-.01.335.341.417.603.462.488-.034.51.764-.006.67-1.005-.004-2.01.005-3.013-.006-.508-.027-.283-.736.149-.671.263-.034.612-.121.602-.455-.006-1.25.011-2.5-.01-3.749-.071-.296.08-.673-.184-.898-.281-.186-.736-.002-.93-.33-.124-.327.216-.516.48-.592.591-.225 1.178-.467 1.774-.68.378-.13.421.313.425.577l.062.726c.62-.74 1.494-1.364 2.495-1.365.691-.043 1.454.222 1.8.858.48.894.348 1.935.369 2.912v2.541z" style="font-size:20px;font-family:&quot;Song Myung&quot;;-inkscape-font-specification:&quot;Song Myung&quot;;text-align:center;text-anchor:middle;stroke-width:.954035;stroke-linecap:square"/><path id="path826" d="M326.853 82.182a3.537 3.537 0 0 1 2.995 1.599c.958 1.49.86 3.617-.312 4.964-.695.779-1.755 1.16-2.786 1.115-1.14.005-2.284-.56-2.9-1.532-.698-1.05-.794-2.42-.448-3.612.3-1.004 1.053-1.862 2.028-2.258a3.577 3.577 0 0 1 1.423-.276zm0 .707c-.599-.028-1.165.345-1.41.886-.42.9-.42 1.925-.374 2.898.065.768.202 1.642.832 2.163.676.519 1.8.373 2.248-.38.5-.822.518-1.825.505-2.76-.04-.821-.128-1.727-.7-2.365-.28-.303-.694-.448-1.101-.442z" style="font-size:20px;font-family:&quot;Song Myung&quot;;-inkscape-font-specification:&quot;Song Myung&quot;;text-align:center;text-anchor:middle;stroke-width:.954035;stroke-linecap:square"/><path id="path825" d="M320.477 80.737c-.37.007-.758-.145-.97-.459-.19-.282-.217-.653-.128-.976.09-.323.361-.574.678-.67.333-.1.713-.087 1.02.086.266.154.472.423.515.732.054.331-.02.699-.265.941a1.113 1.113 0 0 1-.85.346z" style="font-size:20px;font-family:&quot;Song Myung&quot;;-inkscape-font-specification:&quot;Song Myung&quot;;text-align:center;text-anchor:middle;stroke-width:.954035;stroke-linecap:square"/><path id="path824" d="M321.325 88.495c-.01.261.242.417.476.429.215.023.487.107.496.367.044.282-.272.364-.49.335-.961-.003-1.922.006-2.882-.005-.366.016-.4-.539-.063-.618.253-.101.612-.044.756-.326.079-.234.028-.488.042-.73-.005-1.053.01-2.104-.01-3.156-.042-.244.004-.496-.045-.739-.056-.245-.323-.292-.536-.306-.217-.025-.53-.04-.555-.32-.03-.293.273-.407.5-.48.666-.237 1.329-.484 1.996-.717.307-.112.394.265.359.492-.025.918-.056 1.837-.045 2.756v3.018z" style="font-size:20px;font-family:&quot;Song Myung&quot;;-inkscape-font-specification:&quot;Song Myung&quot;;text-align:center;text-anchor:middle;stroke-width:.954035;stroke-linecap:square"/><path id="path823" d="M317.336 88.59c.412-.361.88.332.41.594-.642.615-1.627.719-2.455.493a1.407 1.407 0 0 1-1.022-1.105c-.12-.637-.019-1.285-.042-1.928-.004-1.005.009-2.01-.006-3.015-.027-.32-.38-.31-.62-.3-.352.083-.62-.294-.438-.604.174-.248.511-.18.774-.235.291.014.492-.236.503-.511.094-.456.178-.915.278-1.37.1-.33.478-.257.743-.264.29-.06.541.183.476.477-.006.442-.032.885-.024 1.327.027.32.38.31.62.3.34.012.686-.026 1.022.025.307.123.306.707 0 .83-.385.051-.78.013-1.168.025-.294-.06-.558.174-.495.477.005 1.365-.01 2.73.008 4.095.004.384.22.804.636.861.277.05.568-.015.8-.172z" style="font-size:20px;font-family:&quot;Song Myung&quot;;-inkscape-font-specification:&quot;Song Myung&quot;;text-align:center;text-anchor:middle;stroke-width:.954035;stroke-linecap:square"/><path id="path822" d="M310.756 80.737c-.37.007-.758-.145-.97-.459-.19-.282-.217-.653-.128-.976.09-.323.361-.574.678-.67.333-.1.713-.087 1.02.086.266.154.472.423.515.732.054.331-.02.699-.264.941a1.113 1.113 0 0 1-.85.346z" style="font-size:20px;font-family:&quot;Song Myung&quot;;-inkscape-font-specification:&quot;Song Myung&quot;;text-align:center;text-anchor:middle;stroke-width:.954035;stroke-linecap:square"/><path id="path821" d="M311.604 88.495c-.01.261.242.417.476.429.215.023.487.107.496.367.044.282-.272.364-.49.335-.961-.003-1.922.006-2.882-.005-.366.016-.4-.539-.062-.618.252-.101.611-.044.756-.326.078-.234.027-.488.042-.73-.005-1.053.01-2.104-.01-3.156-.043-.244.004-.496-.046-.739-.056-.245-.323-.292-.536-.306-.217-.025-.53-.04-.555-.32-.03-.293.273-.407.5-.48.666-.237 1.329-.484 1.996-.717.307-.112.394.265.359.492-.024.918-.056 1.837-.045 2.756v3.018z" style="font-size:20px;font-family:&quot;Song Myung&quot;;-inkscape-font-specification:&quot;Song Myung&quot;;text-align:center;text-anchor:middle;stroke-width:.954035;stroke-linecap:square"/><path id="path820" d="M305.26 85.135c.764.245 1.531.567 2.104 1.146.47.61.527 1.49.222 2.184-.38.785-1.233 1.197-2.06 1.326-1.048.185-2.167.011-3.091-.523-.235-.214-.14-.552-.166-.834.013-.258-.054-.53.044-.775.147-.217.435-.143.658-.147.31.033.349.37.39.615.073.274.04.638.34.781.624.263 1.359.298 1.994.056.647-.246.782-1.25.214-1.649-.804-.595-1.858-.686-2.665-1.277-.476-.312-.855-.807-.904-1.388-.085-.617.095-1.28.567-1.705.667-.631 1.641-.792 2.527-.755a4.385 4.385 0 0 1 1.717.486c.3.178.194.544.192.83-.029.236.014.49-.089.712-.151.207-.43.138-.65.142-.278-.016-.346-.302-.374-.526-.07-.277-.046-.645-.354-.78-.55-.213-1.232-.228-1.731.118-.47.371-.444 1.22.104 1.51.312.2.663.33 1.01.453z" style="font-size:20px;font-family:&quot;Song Myung&quot;;-inkscape-font-specification:&quot;Song Myung&quot;;text-align:center;text-anchor:middle;stroke-width:.954035;stroke-linecap:square"/><path id="path818" d="M297.345 82.182a3.537 3.537 0 0 1 2.995 1.599c.958 1.49.86 3.617-.312 4.964-.695.779-1.756 1.16-2.787 1.115-1.14.005-2.283-.56-2.9-1.532-.697-1.05-.794-2.42-.447-3.612.3-1.004 1.053-1.862 2.028-2.258a3.576 3.576 0 0 1 1.423-.276zm0 .707c-.599-.028-1.165.345-1.41.886-.42.9-.42 1.925-.375 2.898.066.768.203 1.642.832 2.163.677.519 1.8.373 2.25-.38.5-.822.517-1.825.503-2.76-.04-.821-.127-1.727-.7-2.365-.28-.303-.693-.448-1.1-.442z" style="font-size:20px;font-family:&quot;Song Myung&quot;;-inkscape-font-specification:&quot;Song Myung&quot;;text-align:center;text-anchor:middle;fill:#000;stroke-width:.954035;stroke-linecap:square"/><path id="text816" d="M287.168 82.26c.21.233.131.58.181.872.047.213.39-.364.583-.409 1.04-.78 2.677-.741 3.575.245.906.987 1.138 2.425.985 3.717-.136 1.265-.852 2.577-2.105 3.02-1.021.354-2.255.122-2.983-.707.009 1.017-.029 2.038.053 3.051.119.327.523.271.799.357.498-.058.572.764.027.675-1.088-.003-2.176.006-3.264-.005-.51-.03-.284-.75.15-.693.295-.035.668-.17.604-.543.048-2.31.025-4.621.027-6.932-.056-.316.029-.658-.097-.958-.237-.352-.808-.058-1.025-.432-.127-.347.247-.524.517-.607.596-.222 1.18-.486 1.784-.678a.306.306 0 0 1 .19.028zm.283 1.587v4.381c.604.524 1.524.849 2.26.4.84-.512 1.035-1.57 1.037-2.478.001-.94-.086-2.029-.856-2.68-.648-.52-1.546-.233-2.166.187-.094.06-.185.124-.275.19z" style="font-size:20px;font-family:&quot;Song Myung&quot;;-inkscape-font-specification:&quot;Song Myung&quot;;text-align:center;text-anchor:middle;stroke-width:.954035;stroke-linecap:square"/></g><path id="path378" d="m289.895 49.67 5.064-.011-8.207-8.179-8.18 8.21 5.017-.011.017 18.358 30.756-.02-.01-6.287h-24.456z" style="display:inline;fill:#fd5;stroke:#000"/><path id="path843" d="m238.262-111.96 5.064.01-8.208 8.179-8.18-8.21 5.017.011.017-22.88 51.107.019-.009 6.288h-44.808z" style="display:inline;fill:#fd5;stroke:#000"/><g id="g6" transform="matrix(.01904 0 0 -.01904 273.934 -56.336)"><path id="use1" stroke-width="1" d="M52 289q7 42 54 97t116 56q35 0 64-18t43-45q42 63 101 63 37 0 64-22t28-59q0-29-14-47t-27-22q-13-4-23-4-19 0-31 11t-12 29q0 46 50 63-11 13-40 13-13 0-19-2-38-16-56-66-60-221-60-258 0-28 16-40t35-12q37 0 73 33t49 81q3 10 6 11t16 2h4q15 0 15-8 0-1-2-11-16-57-62-101T333-11q-70 0-106 63-41-62-94-62h-6q-49 0-70 26T35 71q0 32 19 52t45 20q43 0 43-42 0-20-12-35t-23-20q-11-5-13-5l-3-1q0-1 6-4t16-7q10-4 19-3 36 0 62 45 9 16 23 68t28 108q14 56 16 66 5 27 5 39 0 28-15 40t-34 12q-40 0-75-32t-49-82q-2-9-5-10t-16-2H58q-6 6-6 11z"/><path id="use2" stroke-width="1" d="M906 347q0 13 14 20h637q15-8 15-20 0-11-14-19l-318-1H922q-16 5-16 20zm0-194q0 15 16 20h636q14-10 14-20 0-13-15-20H920q-14 7-14 20z"/><path id="use3" stroke-width="1" d="M2015 429q-27 0-43 18t-16 44q0 71 53 123t132 52q91 0 152-56t62-145q0-43-20-82t-48-68q-28-29-80-74-36-31-100-92l-59-56 76-1q157 0 167 5 7 2 24 89v3h40v-3q-1-3-13-91t-15-92V0h-371v31q0 7 6 15t30 35q29 32 50 56 9 10 34 37t34 37q9 10 29 33t28 34q8 11 23 30t21 32q6 13 15 29t13 32q4 16 7 30t3 33q0 63-34 109t-97 46q-33 0-58-17t-35-33q-10-16-10-19 0-1 5-1 18 0 37-14t19-46q0-25-16-42t-45-18z"/><g id="g5" transform="translate(2407)"><path id="use4" stroke-width="1" d="M95 219q-6 0-14 8t-9 14q-1 6 31 30t66 50q34 26 38 29 2 2 5 2h1q6 0 14-17t54-117q19-43 31-69l85-185q1 0 104 213t206 429q103 216 107 221 6 14 20 14 7 0 12-6t7-12v-6L620 334 385-152q-4-7-19-7-9 0-12 3-2 2-98 212l-96 210-16-11q-15-12-31-24t-18-12Z"/><path id="rect4" stroke="none" d="M833 782h500v60H833z"/><path id="use5" stroke-width="1" d="M997 157q0-24-16-40t-39-16h-7q46-79 122-79 70 0 102 60 19 33 19 128 0 103-27 139-26 33-58 33h-6q-78 0-118-68-4-7-7-8t-15-2q-17 0-19 6-2 4-2 175v129q0 50 5 50 2 2 4 2 1 0 21-8t55-16q35-8 75-8 71 0 136 28 8 4 13 4 8 0 8-18v-13q-82-97-205-97-31 0-56 6l-10 2V374q19 14 30 22t36 16q25 8 51 8 81 0 137-65t56-154q0-92-64-157t-156-66q-81 0-130 54t-49 122q0 24 11 38t23 18q12 4 23 4 25 0 41-17t16-40z"/></g></g><g id="g859" transform="translate(7.158 -135.9)"><g id="g849" style="stroke-width:1.41972" transform="matrix(.01341 0 0 -.01341 283.557 7.244)"><path id="path844" stroke-width="1.42" d="M52 289q7 42 54 97t116 56q35 0 64-18t43-45q42 63 101 63 37 0 64-22t28-59q0-29-14-47t-27-22q-13-4-23-4-19 0-31 11t-12 29q0 46 50 63-11 13-40 13-13 0-19-2-38-16-56-66-60-221-60-258 0-28 16-40t35-12q37 0 73 33t49 81q3 10 6 11t16 2h4q15 0 15-8 0-1-2-11-16-57-62-101T333-11q-70 0-106 63-41-62-94-62h-6q-49 0-70 26T35 71q0 32 19 52t45 20q43 0 43-42 0-20-12-35t-23-20q-11-5-13-5l-3-1q0-1 6-4t16-7q10-4 19-3 36 0 62 45 9 16 23 68t28 108q14 56 16 66 5 27 5 39 0 28-15 40t-34 12q-40 0-75-32t-49-82q-2-9-5-10t-16-2H58q-6 6-6 11z"/><path id="path845" stroke-width="1.42" d="M906 347q0 13 14 20h637q15-8 15-20 0-11-14-19l-318-1H922q-16 5-16 20zm0-194q0 15 16 20h636q14-10 14-20 0-13-15-20H920q-14 7-14 20z"/><path id="path846" stroke-width="1.42" d="M2015 429q-27 0-43 18t-16 44q0 71 53 123t132 52q91 0 152-56t62-145q0-43-20-82t-48-68q-28-29-80-74-36-31-100-92l-59-56 76-1q157 0 167 5 7 2 24 89v3h40v-3q-1-3-13-91t-15-92V0h-371v31q0 7 6 15t30 35q29 32 50 56 9 10 34 37t34 37q9 10 29 33t28 34q8 11 23 30t21 32q6 13 15 29t13 32q4 16 7 30t3 33q0 63-34 109t-97 46q-33 0-58-17t-35-33q-10-16-10-19 0-1 5-1 18 0 37-14t19-46q0-25-16-42t-45-18z"/><g id="g848" style="stroke-width:1.41972" transform="translate(2407)"><path id="path847" stroke-width="1.42" d="M95 219q-6 0-14 8t-9 14q-1 6 31 30t66 50q34 26 38 29 2 2 5 2h1q6 0 14-17t54-117q19-43 31-69l85-185q1 0 104 213t206 429q103 216 107 221 6 14 20 14 7 0 12-6t7-12v-6L620 334 385-152q-4-7-19-7-9 0-12 3-2 2-98 212l-96 210-16-11q-15-12-31-24t-18-12Z"/><path id="rect847" stroke="none" d="M833 782h500v60H833z" style="stroke-width:1.41972"/><path id="path848" stroke-width="1.42" d="M997 157q0-24-16-40t-39-16h-7q46-79 122-79 70 0 102 60 19 33 19 128 0 103-27 139-26 33-58 33h-6q-78 0-118-68-4-7-7-8t-15-2q-17 0-19 6-2 4-2 175v129q0 50 5 50 2 2 4 2 1 0 21-8t55-16q35-8 75-8 71 0 136 28 8 4 13 4 8 0 8-18v-13q-82-97-205-97-31 0-56 6l-10 2V374q19 14 30 22t36 16q25 8 51 8 81 0 137-65t56-154q0-92-64-157t-156-66q-81 0-130 54t-49 122q0 24 11 38t23 18q12 4 23 4 25 0 41-17t16-40z"/></g></g><path id="text850" d="M347.878-.18q.127.127.07.394l-.718 3.677q-.211 1.099.676 1.099.606 0 .972-.338.38-.338.592-.831.226-.507.296-1.071.084-.578.084-1.028 0-1.916-1.056-2.916-1.057-1-2.944-1-1.17 0-2.156.464-.972.465-1.676 1.254-.704.789-1.099 1.817-.394 1.029-.394 2.156 0 1.014.31 1.845.324.831.901 1.437.592.592 1.423.916.831.338 1.845.338.677 0 1.156-.085.493-.084.943-.253.113-.043.198-.043.183 0 .24.17.112.267-.198.422-.592.282-1.24.409-.648.126-1.366.126-1.184 0-2.17-.366-.972-.352-1.676-1.028-.69-.676-1.07-1.634-.381-.972-.381-2.17 0-1.423.493-2.606.507-1.197 1.395-2.057.887-.873 2.085-1.352 1.211-.493 2.62-.493 1.056 0 1.958.31.902.31 1.55.901.648.592 1.014 1.451.366.86.366 1.958 0 1.015-.296 1.79-.281.76-.775 1.282-.493.52-1.112.788-.62.268-1.254.268-.676 0-1.057-.296-.366-.31-.493-.76-.45.507-.93.788-.464.268-1.014.268-.422 0-.732-.155-.296-.169-.493-.437-.184-.267-.282-.62-.085-.352-.085-.732 0-.887.338-1.676.353-.803.902-1.395.493-.535 1.057-.845.563-.31 1.155-.31.662 0 1.14.437l.494-.254q.127-.07.225-.07.113 0 .17.056zm-1.958 4.184.634-3.297q-.169-.155-.338-.21-.169-.071-.366-.071-.338 0-.705.197-.366.183-.704.634-.324.436-.535.986-.212.535-.212 1.254 0 1.338.972 1.338.268 0 .536-.127.281-.127.69-.479v-.098q.014-.057.028-.127z" aria-label="@" style="font-size:20px;font-family:&quot;Song Myung&quot;;-inkscape-font-specification:&quot;Song Myung&quot;;text-align:center;text-anchor:middle;stroke-width:.999998;stroke-linecap:square"/><g id="g3" style="stroke-width:1.41972" transform="matrix(.01341 0 0 -.01341 356.052 7.244)"><path id="use1-7" stroke-width="1.42" d="M26 385q-7 7-7 10 0 4 3 16t5 14q2 5 9 5t51 1h53l19 80q3 11 7 29t7 26q3 8 6 20t8 17q5 5 10 12t14 9q9 2 18 2 18-1 25-11t7-19q0-7-9-47t-20-79l-10-37q0-2 50-2h51q7-7 7-11 0-22-13-35H210l-36-145Q135 80 135 68q0-42 27-42 35 0 68 34t53 84q2 6 5 7t15 2h4q15 0 15-8 0-3-3-12-5-16-18-38t-34-47q-21-25-51-42t-61-17q-30 0-57 15T59 56q-2 8-2 27v18l35 140q35 141 36 142 0 2-51 2z"/><path id="use2-1" stroke-width="1.42" d="M695 347q0 13 14 20h637q15-8 15-20 0-11-14-19l-318-1H711q-16 5-16 20zm0-194q0 15 16 20h636q14-10 14-20 0-13-15-20H709q-14 7-14 20z"/><path id="use3-2" stroke-width="1.42" d="M1791 585q56 81 153 81 48 0 96-26t78-92q37-83 37-228 0-155-43-237-20-42-55-67t-61-31q-26-6-51-7-26 0-52 6t-61 32q-35 26-55 67-43 82-43 237 0 174 57 265zm225 12q-30 32-71 32-42 0-72-32-25-26-33-72t-8-192q0-158 8-208t36-79q28-30 69-30 40 0 68 30 29 30 36 84t8 203q0 145-8 191t-33 73z"/></g></g><g id="g855" transform="matrix(.01904 0 0 -.01904 386.785 -61.896)"><path id="path850" stroke-width="1" d="M52 289q7 42 54 97t116 56q35 0 64-18t43-45q42 63 101 63 37 0 64-22t28-59q0-29-14-47t-27-22q-13-4-23-4-19 0-31 11t-12 29q0 46 50 63-11 13-40 13-13 0-19-2-38-16-56-66-60-221-60-258 0-28 16-40t35-12q37 0 73 33t49 81q3 10 6 11t16 2h4q15 0 15-8 0-1-2-11-16-57-62-101T333-11q-70 0-106 63-41-62-94-62h-6q-49 0-70 26T35 71q0 32 19 52t45 20q43 0 43-42 0-20-12-35t-23-20q-11-5-13-5l-3-1q0-1 6-4t16-7q10-4 19-3 36 0 62 45 9 16 23 68t28 108q14 56 16 66 5 27 5 39 0 28-15 40t-34 12q-40 0-75-32t-49-82q-2-9-5-10t-16-2H58q-6 6-6 11z"/><path id="path851" stroke-width="1" d="M906 347q0 13 14 20h637q15-8 15-20 0-11-14-19l-318-1H922q-16 5-16 20zm0-194q0 15 16 20h636q14-10 14-20 0-13-15-20H920q-14 7-14 20z"/><path id="path852" stroke-width="1" d="M2015 429q-27 0-43 18t-16 44q0 71 53 123t132 52q91 0 152-56t62-145q0-43-20-82t-48-68q-28-29-80-74-36-31-100-92l-59-56 76-1q157 0 167 5 7 2 24 89v3h40v-3q-1-3-13-91t-15-92V0h-371v31q0 7 6 15t30 35q29 32 50 56 9 10 34 37t34 37q9 10 29 33t28 34q8 11 23 30t21 32q6 13 15 29t13 32q4 16 7 30t3 33q0 63-34 109t-97 46q-33 0-58-17t-35-33q-10-16-10-19 0-1 5-1 18 0 37-14t19-46q0-25-16-42t-45-18z"/><g id="g854" transform="translate(2407)"><path id="path853" stroke-width="1" d="M95 219q-6 0-14 8t-9 14q-1 6 31 30t66 50q34 26 38 29 2 2 5 2h1q6 0 14-17t54-117q19-43 31-69l85-185q1 0 104 213t206 429q103 216 107 221 6 14 20 14 7 0 12-6t7-12v-6L620 334 385-152q-4-7-19-7-9 0-12 3-2 2-98 212l-96 210-16-11q-15-12-31-24t-18-12Z"/><path id="rect853" stroke="none" d="M833 782h500v60H833z"/><path id="path854" stroke-width="1" d="M997 157q0-24-16-40t-39-16h-7q46-79 122-79 70 0 102 60 19 33 19 128 0 103-27 139-26 33-58 33h-6q-78 0-118-68-4-7-7-8t-15-2q-17 0-19 6-2 4-2 175v129q0 50 5 50 2 2 4 2 1 0 21-8t55-16q35-8 75-8 71 0 136 28 8 4 13 4 8 0 8-18v-13q-82-97-205-97-31 0-56 6l-10 2V374q19 14 30 22t36 16q25 8 51 8 81 0 137-65t56-154q0-92-64-157t-156-66q-81 0-130 54t-49 122q0 24 11 38t23 18q12 4 23 4 25 0 41-17t16-40z"/></g></g><path id="path855" d="M478.104-72.437q.18.18.1.56l-1.02 5.22q-.3 1.56.96 1.56.86 0 1.38-.48.54-.48.84-1.18.32-.72.42-1.52.12-.82.12-1.46 0-2.72-1.5-4.14-1.5-1.42-4.18-1.42-1.66 0-3.06.66-1.38.66-2.38 1.78t-1.56 2.58q-.56 1.46-.56 3.06 0 1.44.44 2.62.46 1.18 1.28 2.04.84.84 2.02 1.3 1.18.48 2.62.48.96 0 1.64-.12.7-.12 1.34-.36.16-.06.28-.06.26 0 .34.24.16.38-.28.6-.84.4-1.76.58-.92.18-1.94.18-1.68 0-3.08-.52-1.38-.5-2.38-1.46-.98-.96-1.52-2.32-.54-1.38-.54-3.08 0-2.02.7-3.7.72-1.7 1.98-2.92 1.26-1.24 2.96-1.92 1.72-.7 3.72-.7 1.5 0 2.78.44 1.28.44 2.2 1.28.92.84 1.44 2.06.52 1.22.52 2.78 0 1.44-.42 2.54-.4 1.08-1.1 1.82-.7.74-1.58 1.12-.88.38-1.78.38-.96 0-1.5-.42-.52-.44-.7-1.08-.64.72-1.32 1.12-.66.38-1.44.38-.6 0-1.04-.22-.42-.24-.7-.62-.26-.38-.4-.88-.12-.5-.12-1.04 0-1.26.48-2.38.5-1.14 1.28-1.98.7-.76 1.5-1.2.8-.44 1.64-.44.94 0 1.62.62l.7-.36q.18-.1.32-.1.16 0 .24.08zm-2.78 5.94.9-4.68q-.24-.22-.48-.3-.24-.1-.52-.1-.48 0-1 .28-.52.26-1 .9-.46.62-.76 1.4-.3.76-.3 1.78 0 1.9 1.38 1.9.38 0 .76-.18.4-.18.98-.68v-.14q.02-.08.04-.18z" aria-label="@" style="font-size:20px;font-family:&quot;Song Myung&quot;;-inkscape-font-specification:&quot;Song Myung&quot;;text-align:center;text-anchor:middle;stroke-linecap:square"/><g id="g858" transform="matrix(.01904 0 0 -.01904 489.708 -61.896)"><path id="path856" stroke-width="1" d="M26 385q-7 7-7 10 0 4 3 16t5 14q2 5 9 5t51 1h53l19 80q3 11 7 29t7 26q3 8 6 20t8 17q5 5 10 12t14 9q9 2 18 2 18-1 25-11t7-19q0-7-9-47t-20-79l-10-37q0-2 50-2h51q7-7 7-11 0-22-13-35H210l-36-145Q135 80 135 68q0-42 27-42 35 0 68 34t53 84q2 6 5 7t15 2h4q15 0 15-8 0-3-3-12-5-16-18-38t-34-47q-21-25-51-42t-61-17q-30 0-57 15T59 56q-2 8-2 27v18l35 140q35 141 36 142 0 2-51 2z"/><path id="path857" stroke-width="1" d="M695 347q0 13 14 20h637q15-8 15-20 0-11-14-19l-318-1H711q-16 5-16 20zm0-194q0 15 16 20h636q14-10 14-20 0-13-15-20H709q-14 7-14 20z"/><path id="path858" stroke-width="1" d="M1791 585q56 81 153 81 48 0 96-26t78-92q37-83 37-228 0-155-43-237-20-42-55-67t-61-31q-26-6-51-7-26 0-52 6t-61 32q-35 26-55 67-43 82-43 237 0 174 57 265zm225 12q-30 32-71 32-42 0-72-32-25-26-33-72t-8-192q0-158 8-208t36-79q28-30 69-30 40 0 68 30 29 30 36 84t8 203q0 145-8 191t-33 73z"/></g><path id="path865" d="M489.988-1.639q.126.127.07.395l-.718 3.676q-.212 1.1.676 1.1.606 0 .972-.339.38-.338.591-.831.226-.507.296-1.07.085-.578.085-1.029 0-1.916-1.057-2.916-1.056-1-2.944-1-1.17 0-2.155.465-.972.465-1.677 1.253-.704.79-1.099 1.818-.394 1.028-.394 2.155 0 1.014.31 1.845.324.832.902 1.437.591.592 1.422.916.831.338 1.846.338.676 0 1.155-.084.493-.085.944-.254.112-.042.197-.042.183 0 .24.169.112.267-.198.422-.591.282-1.24.409-.647.127-1.366.127-1.183 0-2.17-.367-.971-.352-1.676-1.028-.69-.676-1.07-1.634-.38-.972-.38-2.17 0-1.422.492-2.606.508-1.197 1.395-2.056.887-.874 2.085-1.353 1.211-.493 2.62-.493 1.057 0 1.958.31.902.31 1.55.902.648.591 1.014 1.45.366.86.366 1.959 0 1.014-.295 1.789-.282.76-.775 1.282-.493.521-1.113.789-.62.267-1.254.267-.676 0-1.056-.295-.367-.31-.493-.761-.451.507-.93.789-.465.267-1.015.267-.422 0-.732-.155-.296-.169-.493-.436-.183-.268-.282-.62-.084-.352-.084-.733 0-.887.338-1.676.352-.803.901-1.395.493-.535 1.057-.845.563-.31 1.155-.31.662 0 1.141.437l.493-.254q.127-.07.226-.07.112 0 .169.056zm-1.958 4.184.633-3.296q-.169-.155-.338-.212-.169-.07-.366-.07-.338 0-.704.197-.367.183-.705.634-.324.437-.535.986-.211.536-.211 1.254 0 1.338.972 1.338.267 0 .535-.126.282-.127.69-.48v-.098q.014-.056.029-.127z" aria-label="@" style="font-size:20px;font-family:&quot;Song Myung&quot;;-inkscape-font-specification:&quot;Song Myung&quot;;text-align:center;text-anchor:middle;stroke-width:.999998;stroke-linecap:square"/></g><g id="layer15" style="display:inline"><circle id="path816" cx="286.752" cy="30.133" r="10.12" style="display:inline;fill:#fdfdfd;fill-opacity:1;stroke:none;stroke-width:1;stroke-dasharray:none;stroke-opacity:1"/><path id="path331" d="M-461.002 89.261a8.676 8.676 0 1 1 0-17.352 8.676 8.676 0 0 1 0 17.352z" style="fill:#000;stroke:#000;stroke-width:.9"/><path id="path326" d="M-461.002 74.485a6.1 6.1 0 0 1 6.1 6.1h-6.1z" style="fill:#f000f0;fill-opacity:1;stroke:none;stroke-width:.9"/><path id="path330" d="M-454.902 80.585a6.1 6.1 0 0 1-6.1 6.1v-6.1z" style="fill:#e3e300;fill-opacity:1;stroke:none;stroke-width:.9"/><path id="circle311" d="M-467.102 80.585a6.1 6.1 0 0 1 6.1-6.1v6.1z" style="fill:#5757ff;fill-opacity:1;stroke:none;stroke-width:.9"/><path id="path334" d="M-461.002 86.685a6.1 6.1 0 0 1-6.1-6.1h6.1z" style="fill:#00b900;fill-opacity:1;stroke:none;stroke-width:.9"/><path id="path336" d="M-469.612-4.349a5.788 5.788 0 0 1 5.788-5.788v5.788z" style="fill:#3f3fff;stroke:none;stroke-width:.9"/><path id="path811" d="M286.752 38.81a8.676 8.676 0 1 1 0-17.353 8.676 8.676 0 0 1 0 17.352z" style="fill:#000;stroke:#000;stroke-width:.9"/><path id="path812" d="M286.752 24.033a6.1 6.1 0 0 1 6.1 6.1h-6.1z" style="fill:#f000f0;fill-opacity:1;stroke:none;stroke-width:.9"/><path id="path813" d="M292.851 30.133a6.1 6.1 0 0 1-6.1 6.1v-6.1z" style="fill:#e3e300;fill-opacity:1;stroke:none;stroke-width:.9"/><path id="path814" d="M280.652 30.133a6.1 6.1 0 0 1 6.1-6.1v6.1z" style="fill:#5757ff;fill-opacity:1;stroke:none;stroke-width:.9"/><path id="path815" d="M286.752 36.233a6.1 6.1 0 0 1-6.1-6.1h6.1z" style="fill:#00b900;fill-opacity:1;stroke:none;stroke-width:.9"/></g></svg>