<svg xmlns="http://www.w3.org/2000/svg" xmlns:xlink="http://www.w3.org/1999/xlink" id="svg22" width="520" height="520" preserveAspectRatio="none" version="1.1" viewBox="-20 -17.198 520 520"><style id="style1" type="text/css">.grid{stroke:#9e9ed1;stroke-width:.4}.axes{stroke:#000;stroke-width:.9}</style><defs id="defs1"><path id="MJMAIN-30" stroke-width="1" d="M96 585q56 81 153 81 48 0 96-26t78-92q37-83 37-228 0-155-43-237-20-42-55-67t-61-31q-26-6-51-7-26 0-52 6t-61 32q-35 26-55 67-43 82-43 237 0 174 57 265zm225 12q-30 32-71 32-42 0-72-32-25-26-33-72t-8-192q0-158 8-208t36-79q28-30 69-30 40 0 68 30 29 30 36 84t8 203q0 145-8 191t-33 73z"/><path id="MJMAIN-35" stroke-width="1" d="M164 157q0-24-16-40t-39-16h-7q46-79 122-79 70 0 102 60 19 33 19 128 0 103-27 139-26 33-58 33h-6q-78 0-118-68-4-7-7-8t-15-2q-17 0-19 6-2 4-2 175v129q0 50 5 50 2 2 4 2 1 0 21-8t55-16q35-8 75-8 71 0 136 28 8 4 13 4 8 0 8-18v-13q-82-97-205-97-31 0-56 6l-10 2V374q19 14 30 22t36 16q25 8 51 8 81 0 137-65t56-154q0-92-64-157T229-22q-81 0-130 54T50 154q0 24 11 38t23 18q12 4 23 4 25 0 41-17t16-40z"/></defs><g id="layer12"><g id="g26" style="fill:#b8b8de;fill-opacity:1;stroke:#b8b8de;stroke-opacity:1" transform="matrix(.01764 0 0 -.01764 221.804 267.211)"><use xlink:href="#MJMAIN-30" id="use26" x="0" y="0" style="fill:#b8b8de;fill-opacity:1;stroke:#b8b8de;stroke-opacity:1"/></g><g id="g294" transform="translate(-1.065 -1.718)"><path id="path1-2" d="M16.065 492.02V274.814m0-22.298V-2.98" class="grid" style="stroke:#9e9ed1;stroke-width:.4"/><path id="path2-5" d="M61.065 492.02v-495" class="grid" style="stroke:#9e9ed1;stroke-width:.4"/><path id="path3-9" d="M106.065 492.02v-495" class="grid" style="stroke:#9e9ed1;stroke-width:.4"/><path id="path4-7" d="M151.065 492.02v-495" class="grid" style="stroke:#9e9ed1;stroke-width:.4"/><path id="path5-3" d="M196.065 492.02v-495" class="grid" style="stroke:#9e9ed1;stroke-width:.4"/><path id="path6-6" d="M241.065 492.02v-495" class="grid" style="stroke:#9e9ed1;stroke-width:.4"/><path id="path7-6" d="M286.065 492.02v-495" class="grid" style="stroke:#9e9ed1;stroke-width:.4"/><path id="path8-3" d="M331.065 492.02v-495" class="grid" style="stroke:#9e9ed1;stroke-width:.4"/><path id="path9-3" d="M376.065 492.02v-495" class="grid" style="stroke:#9e9ed1;stroke-width:.4"/><path id="path10-2" d="M421.065 492.02v-495" class="grid" style="stroke:#9e9ed1;stroke-width:.4"/><path id="path11-1" d="M466.065 492.02V273.853m0-21.337V-2.98" class="grid" style="stroke:#9e9ed1;stroke-width:.4"/><path id="path12-7" d="M-6.435 469.52h210.85m28.653 0h255.497" class="grid" style="stroke:#9e9ed1;stroke-width:.4"/><path id="path13-1" d="M-6.435 424.52h495" class="grid" style="stroke:#9e9ed1;stroke-width:.4"/><path id="path14-2" d="M-6.435 379.52h495" class="grid" style="stroke:#9e9ed1;stroke-width:.4"/><path id="path15-4" d="M-6.435 334.52h495" class="grid" style="stroke:#9e9ed1;stroke-width:.4"/><path id="path16-5" d="M-6.435 289.52h495" class="grid" style="stroke:#9e9ed1;stroke-width:.4"/><path id="path17" d="M-6.435 244.52h495" class="grid" style="stroke:#9e9ed1;stroke-width:.4"/><path id="path18" d="M-6.435 199.52h495" class="grid" style="stroke:#9e9ed1;stroke-width:.4"/><path id="path19" d="M-6.435 154.52h495" class="grid" style="stroke:#9e9ed1;stroke-width:.4"/><path id="path20" d="M-6.435 109.52h495" class="grid" style="stroke:#9e9ed1;stroke-width:.4"/><path id="path21" d="M-6.435 64.52h495" class="grid" style="stroke:#9e9ed1;stroke-width:.4"/><path id="path22" d="M-6.435 19.52h224.597m14.906 0h255.497" class="grid" style="stroke:#9e9ed1;stroke-width:.4"/><path id="path23-1" d="M-6.435 244.52h495" class="axes" style="stroke:#000;stroke-width:.9"/><path id="path24" d="M241.065 492.02v-495" class="axes" style="stroke:#000;stroke-width:.9"/><g id="g25" style="fill:#b8b8de;fill-opacity:1;stroke:#b8b8de;stroke-opacity:1" transform="matrix(.01765 0 0 -.01765 4.779 268.887)"><path id="use24" stroke-width="1" d="M84 237v13q0 13 14 20h581q15-8 15-20t-15-20H98q-14 7-14 20z" style="fill:#b8b8de;fill-opacity:1;stroke:#b8b8de;stroke-opacity:1"/><use xlink:href="#MJMAIN-35" id="use25" x="778" y="0" style="fill:#b8b8de;fill-opacity:1;stroke:#b8b8de;stroke-opacity:1"/></g><g id="g27" style="fill:#b8b8de;fill-opacity:1;stroke:#b8b8de;stroke-opacity:1" transform="matrix(.01764 0 0 -.01764 461.651 268.879)"><use xlink:href="#MJMAIN-35" id="use27" x="0" y="0" style="fill:#b8b8de;fill-opacity:1;stroke:#b8b8de;stroke-opacity:1"/></g><g id="g29" style="fill:#b8b8de;fill-opacity:1;stroke:#b8b8de;stroke-opacity:1" transform="matrix(.01765 0 0 -.01765 207.454 475.483)"><path id="use28" stroke-width="1" d="M84 237v13q0 13 14 20h581q15-8 15-20t-15-20H98q-14 7-14 20z" style="fill:#b8b8de;fill-opacity:1;stroke:#b8b8de;stroke-opacity:1"/><use xlink:href="#MJMAIN-35" id="use29" x="778" y="0" style="fill:#b8b8de;fill-opacity:1;stroke:#b8b8de;stroke-opacity:1"/></g><g id="g30" style="fill:#b8b8de;fill-opacity:1;stroke:#b8b8de;stroke-opacity:1" transform="matrix(.01764 0 0 -.01764 221.2 25.48)"><use xlink:href="#MJMAIN-35" id="use30" x="0" y="0" style="fill:#b8b8de;fill-opacity:1;stroke:#b8b8de;stroke-opacity:1"/></g></g><path id="rect22-6" d="M202.742-165.312h38.681v105.814h-38.681z" style="display:inline;fill:#b8b8de;fill-opacity:1;stroke:none;stroke-width:.9"/></g><g id="layer3" style="display:inline"><g id="g283" transform="translate(-238.496 -222.204)"><circle id="circle276" cx="134.097" cy="157.5" r="45" style="fill:none;stroke:#000;stroke-width:.8;stroke-dasharray:4.8,1.6;stroke-dashoffset:0"/><g id="g282" transform="rotate(50.9 98.62 110.623)"><path id="path276" d="m137.07 152.595 40.86-80.19" style="fill:#00b900;fill-opacity:1;stroke:#000;stroke-width:.8;stroke-dasharray:4.8,1.6;stroke-dashoffset:2.24"/><circle id="circle277" cx="191.207" cy="-16.265" r="6.462" style="fill:#f0f;stroke:none;stroke-width:.8;stroke-dasharray:none;stroke-dashoffset:0" transform="rotate(27)"/><path id="path277" d="m197.595 132.93-80.19-40.86" style="fill:red;stroke:#000;stroke-width:.8;stroke-dasharray:4.8,1.6;stroke-dashoffset:2.24"/><circle id="circle278" cx="28.535" cy="-236.407" r="6.462" style="fill:#e3e300;fill-opacity:1;stroke:none;stroke-width:.8;stroke-dasharray:none;stroke-dashoffset:0" transform="rotate(117)"/><circle id="circle279" cx="-28.935" cy="146.408" r="6.462" style="fill:#1a1aff;fill-opacity:1;stroke:none;stroke-width:.8;stroke-dasharray:none;stroke-dashoffset:0" transform="rotate(-63)"/><circle id="circle280" cx="-191.607" cy="-73.735" r="6.462" style="fill:#00b900;fill-opacity:1;stroke:none;stroke-width:.8;stroke-dasharray:none;stroke-dashoffset:0" transform="rotate(-153)"/><g id="g281" style="stroke-width:.60143" transform="matrix(1.48148 .75485 -.75485 1.48148 9.088 -173.056)"><path id="path280" d="M156.775 119.78h-6.556v-6.555m0-1.45v-6.556h6.556" style="fill:none;stroke:#000;stroke-width:.481144;stroke-dashoffset:2.24"/><path id="path281" d="M158.225 105.22h6.556v6.555m0 1.45v6.556h-6.556" style="fill:none;stroke:#000;stroke-width:.481144;stroke-dashoffset:2.24"/></g></g></g><path id="path30-3" d="m590.43 242.802 19.084-11.56-6.44-3.22 81.56-163.118-8.408-4.204-81.559 163.118-6.44-3.22z" class="fat-vector-arrows" style="opacity:.7;fill:#ac9393;stroke:none"/><g id="g306" transform="translate(-212.28 82.216)"><path id="rect303" d="M-104.207 124.117h62.187v28.326h-62.187z" style="opacity:1;fill:#fd5;fill-opacity:1;stroke:#000;stroke-width:1;stroke-dasharray:none;stroke-dashoffset:0;stroke-opacity:1"/><g id="g305" transform="matrix(.01904 0 0 -.01904 -93.864 144.354)"><path id="path303" stroke-width="1" d="M26 385q-7 7-7 10 0 4 3 16t5 14q2 5 9 5t51 1h53l19 80q3 11 7 29t7 26q3 8 6 20t8 17q5 5 10 12t14 9q9 2 18 2 18-1 25-11t7-19q0-7-9-47t-20-79l-10-37q0-2 50-2h51q7-7 7-11 0-22-13-35H210l-36-145Q135 80 135 68q0-42 27-42 35 0 68 34t53 84q2 6 5 7t15 2h4q15 0 15-8 0-3-3-12-5-16-18-38t-34-47q-21-25-51-42t-61-17q-30 0-57 15T59 56q-2 8-2 27v18l35 140q35 141 36 142 0 2-51 2z"/><path id="path304" stroke-width="1" d="M695 347q0 13 14 20h637q15-8 15-20 0-11-14-19l-318-1H711q-16 5-16 20zm0-194q0 15 16 20h636q14-10 14-20 0-13-15-20H709q-14 7-14 20z"/><path id="path305" stroke-width="1" d="M1791 585q56 81 153 81 48 0 96-26t78-92q37-83 37-228 0-155-43-237-20-42-55-67t-61-31q-26-6-51-7-26 0-52 6t-61 32q-35 26-55 67-43 82-43 237 0 174 57 265zm225 12q-30 32-71 32-42 0-72-32-25-26-33-72t-8-192q0-158 8-208t36-79q28-30 69-30 40 0 68 30 29 30 36 84t8 203q0 145-8 191t-33 73z"/></g></g><g id="g292" style="opacity:1" transform="translate(6.761 195.247)"><circle id="path23" cx="233.039" cy="47.555" r="45" style="display:inline;fill:none;stroke:#000;stroke-width:.8;stroke-dasharray:4.8,1.6;stroke-dashoffset:0"/><path id="path30" d="m189.239 56.988 88-18.865" style="display:inline;fill:#00b900;fill-opacity:1;stroke:#000;stroke-width:.8;stroke-dasharray:4.8,1.6;stroke-dashoffset:2.24"/><path id="path27" d="m242.671 91.555-18.865-88" style="display:inline;fill:red;stroke:#000;stroke-width:.8;stroke-dasharray:4.8,1.6;stroke-dashoffset:2.24"/><g id="g31" style="display:inline;stroke-width:.60143" transform="matrix(.34852 1.62577 -1.62577 .34852 361.246 -247.712)"><path id="path31" d="M156.775 119.78h-6.556v-6.555m0-1.45v-6.556h6.556" style="fill:none;stroke:#000;stroke-width:.481144;stroke-dashoffset:2.24"/><path id="rect30" d="M158.225 105.22h6.556v6.555m0 1.45v6.556h-6.556" style="fill:none;stroke:#000;stroke-width:.481144;stroke-dashoffset:2.24"/></g><g id="g286"><circle id="circle284" cx="223.806" cy="3.555" r="8.233" style="fill:#fff;fill-opacity:1;stroke:#000;stroke-width:.9;stroke-dasharray:none;stroke-dashoffset:0"/><circle id="path284" cx="223.806" cy="3.555" r="5.083" style="fill:#3f3fff;fill-opacity:1;stroke:#000;stroke-width:.9;stroke-dasharray:none;stroke-dashoffset:0"/></g><g id="g287" transform="translate(53.516 34.568)"><circle id="circle286" cx="223.806" cy="3.555" r="8.233" style="fill:#fff;fill-opacity:1;stroke:#000;stroke-width:.9;stroke-dasharray:none;stroke-dashoffset:0"/><circle id="circle287" cx="223.806" cy="3.555" r="5.083" style="fill:#f0f;fill-opacity:1;stroke:#000;stroke-width:.9;stroke-dasharray:none;stroke-dashoffset:0"/></g><g id="g289" transform="translate(18.865 88)"><circle id="circle288" cx="223.806" cy="3.555" r="8.233" style="fill:#fff;fill-opacity:1;stroke:#000;stroke-width:.9;stroke-dasharray:none;stroke-dashoffset:0"/><circle id="circle289" cx="223.806" cy="3.555" r="5.083" style="fill:#e3e300;fill-opacity:1;stroke:#000;stroke-width:.9;stroke-dasharray:none;stroke-dashoffset:0"/></g><g id="g291" transform="translate(-34.568 53.433)"><circle id="circle290" cx="223.806" cy="3.555" r="8.233" style="fill:#fff;fill-opacity:1;stroke:#000;stroke-width:.9;stroke-dasharray:none;stroke-dashoffset:0"/><circle id="circle291" cx="223.806" cy="3.555" r="5.083" style="fill:#00b900;fill-opacity:1;stroke:#000;stroke-width:.9;stroke-dasharray:none;stroke-dashoffset:0"/></g></g></g></svg>