<svg xmlns="http://www.w3.org/2000/svg" width="500" height="240" viewBox="0 0 132.292 63.5"><path d="M20.825 58c-.033-.323.03-.725-.033-1.148-.022-.67.022-1.153.038-1.728M33.569 55.173c-.03.384-.004.774-.019 1.077.022.637.03 1.109.014 1.655" style="display:inline;fill:none;stroke:#000;stroke-width:.291042;stroke-miterlimit:2;stroke-dasharray:none"/><path d="M45.637 62.887c-.03-.91-.032-1.82-.025-2.73a122.7 122.7 0 0 0-.02-4.42c-.015-1.667-.068-3.332-.103-4.997-.026-1.373-.115-2.742-.175-4.113-.071-1.17.063-2.34.042-3.513-.022-1.432.065-2.864.096-4.297.022-1.42-.067-2.84-.026-4.26.037-1.464-.084-2.929-.048-4.393.066-1.515.116-3.031.142-4.548.02-1.304.023-2.608.024-3.911l-.001-3.396v-2.674c-.007-1.097-.046-2.194-.08-3.29-.026-.84.048-1.37-.013-2.205" style="fill:#fef7dc;stroke:#000;stroke-width:.291042;stroke-dasharray:none"/><path d="M105.843 55.453c.691.129 1.365.34 2.043.523.615.16 1.242.268 1.873.342.093.024.444.013.23.154-.683.263-1.37.514-2.06.756-.568.214-1.155.383-1.703.644" style="fill:none;stroke:#000;stroke-width:.291042;stroke-dasharray:none"/><path d="M108.634 56.499c-.904.02-2.187-.03-3.279.012-.99.038-1.975-.014-2.965.016-1.546.047-2.81.065-4.214.055-.542-.003-1.433-.02-2.168.013-.805.038-2.346-.068-3.521-.032-.628.007-1.256-.007-1.884-.006-2.167.004-4.984.007-7.052.012-2.14.006-4.279-.041-6.416.01-3.5-.155-7.005-.082-10.505.004-2.216-.108-4.431-.046-6.648-.088-3.65-.07-7.301-.068-10.954-.028-2.076.022-4.144.068-6.218.047-4.052-.04-8.366-.014-12.153-.046-2.534-.007-5.066-.061-7.598-.01-2.69.055-4.306.073-6.995.035a34.624 34.624 0 0 0-2.802.057" style="fill:#fef7dc;stroke:#000;stroke-width:.291042;stroke-dasharray:none"/><path d="M46.686 13.345c-.065-.264-.135-.527-.201-.79-.175-.657-.333-1.319-.502-1.977a46.046 46.046 0 0 0-.363-1.269c-.001-.005-.051-.194-.07-.202-.029-.012-.069.183-.079.177-.16.495-.3.997-.434 1.5-.175.662-.347 1.325-.547 1.979-.09.274-.188.545-.277.819" style="fill:none;stroke:#000;stroke-width:.291043;stroke-dasharray:none"/><g style="stroke-width:1.1285"><path d="M119.2 58.965c-.247-.257-.497-.51-.747-.765-.325-.326-.655-.648-.974-.978-.116-.125-.164-.177-.277-.304-.028-.03-.078-.083-.1-.11" style="fill:none;stroke:#000;stroke-width:.328441;stroke-dasharray:none" transform="matrix(.88625 0 0 .88602 8.76 5.195)"/><path d="m116.948 58.996.392-.385c.302-.304.595-.616.883-.931.24-.263.483-.525.755-.761.045-.04.094-.076.14-.116" style="fill:none;stroke:#000;stroke-width:.328441;stroke-dasharray:none" transform="matrix(.88625 0 0 .88602 8.76 5.195)"/></g><path d="M116.82 54.771c.344-.034.694-.026 1.042-.027.203.004.406-.007.61.005" style="fill:none;stroke:#000;stroke-width:.291042;stroke-dasharray:none"/><path d="M116.952 54.604v1.182c.018.65.03 1.3.048 1.952.007.268.005.652.025.92.005.062.008.063.06.078.043.026.083.016.154.014l.766-.018c.156-.004.307-.01.462-.01.059-.001.141-.006.223.001" style="fill:none;stroke:#000;stroke-width:.291042;stroke-dasharray:none"/><path d="M118.701 56.528c.062.255.112.511.175.766.03.051.018.12.038.175.007.02 0-.04 0-.06 0-.03.001-.058.003-.086.057-.38.328-.679.619-.908.07-.055.146-.101.219-.152.193-.094.478-.264.69-.11.09.065.11.146.154.243.087.309.103.631.148.948.022.042.028.281-.02.091a.823.823 0 0 1 .089-.604c.04-.069.094-.13.141-.194.066-.06.127-.127.197-.183.2-.158.567-.373.83-.38.05 0 .098.015.146.022.038.023.082.04.114.07.192.18.205.564.225.807.01.204.018.409.01.613" style="fill:none;stroke:#000;stroke-width:.291042;stroke-linecap:round;stroke-dasharray:none"/><path d="M122.793 58.579c.309-.065.63-.044.944-.046.195.008.405.018.595.015.006-.014-.158-.005-.026.014 0-.188-.02-.516-.02-.703 0-.6.001-1.198-.003-1.797a19.49 19.49 0 0 0-.011-.579c-.007-.179-.007-.371-.054-.546-.008-.031-.023-.06-.034-.09-.014-.02-.027-.04-.044-.058-.122-.123-.334-.104-.49-.123a5.491 5.491 0 0 0-1.002.065" style="fill:none;stroke:#000;stroke-width:.291042;stroke-dasharray:none"/><g style="display:inline;stroke-width:1.10019;stroke-dasharray:none"><path d="M-26.507 186.231c.07-1.34.014-2.682-.059-4.02-.203-3.762-.371-6.73-.551-10.74-.01-1.81-.04-3.61.33-5.39.14-.65.32-1.35.78-1.87.16-.18.39-.29.59-.43.25-.06.48-.16.73-.18 1.33-.08 2.59.65 3.27 1.76" style="fill:none;stroke:#000;stroke-width:1.10019;stroke-dasharray:none" transform="matrix(.2981 0 0 .23476 46.182 -36.79)"/><path d="m-23.37 175.977-.895.03c-2.332.1-4.68.15-6.994.55" style="fill:none;stroke:#000;stroke-width:1.10018;stroke-dasharray:none" transform="matrix(.2981 0 0 .23476 46.182 -36.79)"/></g><path d="M41.395 5.844a1.77 1.77 0 0 1-1.087-.394 1.281 1.281 0 0 1-.388-.504c-.104-.274-.006-.56.139-.82.155-.253.395-.476.674-.683.124-.087.272-.173.428-.236" style="display:inline;fill:none;stroke:#000;stroke-width:.291043;stroke-miterlimit:2;stroke-dasharray:none"/><path d="M44.661 5.71c.626-.278.947-.688.925-1.115-.022-.428-.243-.723-.62-1.056a2.074 2.074 0 0 0-.549-.305" style="display:inline;fill:none;stroke:#000;stroke-width:.291042;stroke-linecap:butt;stroke-miterlimit:2;stroke-dasharray:none"/><g style="display:inline;stroke-width:5.54365;stroke-dasharray:none"><path d="M6779.195 202.554c-1.047.985-2.014 1.891-2.902 2.746-.416.402-5.218 4.834-5.302 4.912-7.027 6.486-13.991 13.043-21.216 19.311-4.41 3.849-8.778 7.747-12.834 11.973" style="fill:none;stroke:#000;stroke-width:5.54365;stroke-miterlimit:2;stroke-dasharray:none" transform="matrix(.0526 0 0 .0524 -312.622 -7.19)"/><path d="M6778.08 240.633c-6.05-4.443-11.673-9.409-17.066-14.634-6.56-6.355-3.475-3.254-9.87-9.753-3.52-3.578-6.975-7.253-10.615-10.713-.459-.436-.949-.838-1.423-1.257" style="fill:none;stroke:#000;stroke-width:5.54365;stroke-miterlimit:2;stroke-dasharray:none" transform="matrix(.0526 0 0 .0524 -312.622 -7.19)"/></g><g style="display:inline;stroke-width:.402008;stroke-dasharray:none"><path d="M1266.634 185.582c-.05-.71-.126-1.42-.08-2.13.058-.882.088-1.764.08-2.647-.01-.2.022-.4-.01-.599-.187-.084-.468-.011-.694-.031-.619.004-1.237.022-1.855.041" style="display:inline;fill:none;stroke:#000;stroke-width:.402008;stroke-miterlimit:2;stroke-dasharray:none" transform="matrix(.7037 0 0 .74482 -836.44 -131.771)"/><path d="M1266.835 185.368c-.446.01-.213.008-.706.01-.732.008-1.463.009-2.19.035" style="display:inline;fill:none;stroke:#000;stroke-width:.402008;stroke-miterlimit:2;stroke-dasharray:none" transform="matrix(.7037 0 0 .74482 -836.44 -131.771)"/></g><g style="display:inline;stroke-width:.481623;stroke-dasharray:none"><path d="M1073.025 190.33a.57.57 0 0 1-.256.017 22.918 22.918 0 0 0-1.528-.052c-.501 0-.997 0-1.493-.005" style="display:inline;fill:none;stroke:#000;stroke-width:.481623;stroke-miterlimit:2;stroke-dasharray:none" transform="matrix(.65605 0 0 .55662 -654.065 -103.474)"/><path d="M1073.155 197.143c-.262.08-.568.052-.85.049-.582-.008-1.29-.005-1.872-.009-.063.016-.02-.209-.03-.3 0-1.16.053-2.254.015-3.41-.026-.783 0-1.478-.023-2.067-.014-.368-.016-.994-.048-1.36" style="display:inline;fill:none;stroke:#000;stroke-width:.481623;stroke-miterlimit:2;stroke-dasharray:none" transform="matrix(.65605 0 0 .55662 -654.065 -103.474)"/></g><path d="M50.408 5.11c.434.41 1.147.607 1.8.51.218-.03.464-.136.49-.333.046-.264-.165-.5-.38-.68-.405-.337-.967-.497-1.437-.762-.146-.079-.273-.232-.188-.375.117-.156.444-.217.65-.239.327-.035.702.073.961.239" style="fill:none;stroke:#000;stroke-width:.291042;stroke-linecap:square;stroke-dasharray:none"/><path d="M51.195 6.094c0-.12.002-.24.009-.36.022-.344.072-.686.089-1.03.015-.383.01-.765.01-1.148v-.7M51.974 6.048 51.972 6c.003-.23.03-.46.038-.69.012-.348.02-.697-.02-1.044-.03-.313-.027-.627-.032-.941-.003-.183-.01-.366.012-.548" style="fill:none;stroke:#000;stroke-width:.291042;stroke-linecap:square;stroke-dasharray:none"/><path d="M45.573 56.514a2.769 2.769 0 0 0-.43-.011c-.14.005-.279.016-.418.033-.215.022-.432.015-.648.015a22.618 22.618 0 0 1-.832-.015c-.234-.011-.468-.037-.703-.035-.23.004-.462.01-.693.026-.215.015-.43.025-.646.004-.274-.017-.548-.04-.823-.031-.29 0-.582-.002-.873-.01-.301-.01-.603-.002-.903-.03-.218-.01-.434.043-.652.036-.265-.007-.53.009-.795-.018-.286-.027-.573.007-.86.001-.262.008-.524-.028-.785-.002-.266.023-.533.033-.8.047a16.02 16.02 0 0 1-.875-.027c-.325-.02-.65-.012-.977-.024-.34-.022-.68.046-1.02.018-.245-.024-.491.004-.737-.013-.262-.017-.524-.04-.786-.028-.3.006-.599.015-.898.038-.318.022-.636-.044-.954-.015-.364.031-.73.028-1.096.028-.418.003-.704-.044-1.122-.025-.406.017-.812-.047-1.22-.054-.378.002-.756.057-1.134.072-.36.016-.719-.01-1.079-.011-.366.007-.732.023-1.099.018-.356-.02-.711.025-1.068.013a19.157 19.157 0 0 0-1.054-.015c-.34 0-.68 0-1.02.002l-1.052.009c-.278 0-.553-.017-.829-.046a5.892 5.892 0 0 0-.755.012 10.31 10.31 0 0 1-.91.023c-.265-.002-.53-.004-.795-.02-.174-.013-.743.068-.919.072" style="fill:none;stroke:red;stroke-width:.47625;stroke-linecap:square;stroke-dasharray:none"/><path d="M42.263 57.88a1.98 1.98 0 0 1 1.107.083c.424.177.734.556.907.97.113.349.145.766-.066 1.085a1.42 1.42 0 0 1-.632.438 2.291 2.291 0 0 1-1.375.082c-.407-.108-.819-.337-.992-.736a1.071 1.071 0 0 1-.045-.752c.136-.46.49-.844.921-1.053.202-.091.432-.137.651-.092" style="display:inline;fill:none;stroke:#000;stroke-width:.291042;stroke-dasharray:none;stroke-opacity:1"/><path d="M70.176 58c-.033-.323.03-.725-.033-1.148-.022-.67.022-1.153.038-1.728M70.201 54.563c-.032-.142.03-.32-.033-.507M70.178 53.085c.033.143-.03.321.033.508M70.201 52.212c.007.12-.028.296-.033.448M70.156 51.411c.007.12.03.257.025.409M70.201 50.966a2.612 2.612 0 0 1-.033-.508M70.16 43.205c-.006.11.003.346.033.508M70.185 41.467c.007.12-.028.296-.033.448M70.18 45.107c.006.119.03.295.024.447M70.2 50.04c-.032-.142.03-.32-.032-.507M70.154 40.497c.032.142-.03.32.033.507M70.211 48.626c.006.119-.028.295-.033.447M70.172 47.796c.007.12.03.257.026.409M70.192 44.658a2.612 2.612 0 0 1-.033-.508M70.167 45.976c-.007.11.002.346.033.508M70.2 46.927c.006.12-.028.296-.033.448M70.181 42.206c.006.12.03.295.025.448M70.201 39.984c-.032-.143.03-.32-.033-.508M70.178 38.506c.033.142-.03.32.033.508M70.201 37.632c.007.12-.028.296-.033.448M70.156 36.831c.007.12.03.257.025.41M70.201 36.386a2.612 2.612 0 0 1-.033-.508M70.16 28.625c-.006.11.003.347.033.508M68.396 79.588c.006.119-.029.295-.033.447M70.18 30.527c.006.12.03.296.024.448M70.2 35.46c-.032-.142.03-.32-.032-.507M68.364 78.617c.032.143-.03.32.033.508M70.211 34.046c.006.12-.028.295-.033.448M70.172 33.216c.007.12.03.257.026.409M70.192 30.078a2.612 2.612 0 0 1-.033-.507M70.167 31.396c-.007.11.002.347.033.508M70.2 32.347c.006.12-.028.296-.033.448M70.181 27.756c.006.12.03.296.025.448M47.863 28.873c-.143.032-.32-.03-.508.033M48.737 28.896c-.12.006-.296-.028-.448-.033M49.538 28.85c-.12.007-.257.03-.41.026M49.983 28.896c.143-.032.379-.035.508-.033M57.744 28.855a2.56 2.56 0 0 0-.508.033M59.481 28.88c-.119.006-.295-.029-.447-.033M55.842 28.874c-.12.006-.296.03-.448.025M50.908 28.895c.143-.032.32.03.508-.033M60.452 28.848c-.143.032-.32-.03-.508.033M52.323 28.905c-.12.007-.296-.028-.448-.033M53.153 28.867c-.12.006-.257.03-.41.025M56.29 28.887c.143-.033.379-.035.508-.033M54.973 28.861a2.56 2.56 0 0 0-.508.033M54.021 28.894c-.119.007-.295-.028-.447-.033M58.613 28.875c-.12.007-.296.03-.448.026M60.965 28.896c.142-.032.32.03.508-.033M62.443 28.873c-.143.032-.32-.03-.508.033M63.316 28.896c-.119.006-.295-.028-.447-.033M64.117 28.85c-.12.007-.257.03-.409.026M64.563 28.896c.142-.032.379-.035.508-.033M140.89 27.945c-.12.007-.296-.028-.448-.033" style="display:inline;fill:none;stroke:#000;stroke-width:.291042;stroke-miterlimit:2;stroke-dasharray:none"/><path d="M70.422 28.874c-.12.006-.296.03-.448.025M65.488 28.895c.142-.032.32.03.508-.033M66.903 28.905c-.12.007-.296-.028-.448-.033M67.733 28.867c-.12.006-.257.03-.41.025M70.428 28.887c.143-.033.38-.035.508-.033M69.552 28.861a2.56 2.56 0 0 0-.507.033M68.601 28.894c-.12.007-.295-.028-.448-.033M140.021 27.94c-.12.007-.295.03-.447.026" style="display:inline;fill:none;stroke:#000;stroke-width:.291042;stroke-miterlimit:2;stroke-dasharray:none"/><g style="display:inline;stroke-width:3.03546;stroke-dasharray:none"><path d="M-868.11-3402.88h-1.222c-4.597.233-9.537.64-14.134 1.047" style="fill:none;stroke:#000;stroke-width:3.03546;stroke-dasharray:none;stroke-opacity:1" transform="matrix(.09483 .00696 -.00708 .09642 126.225 400.067)"/><path d="M-883.182-3385.757c.757.583.291.291 1.339.874 3.782 1.514 7.099 1.514 10.882.058 1.047-.583 1.862-.932 2.618-1.922 1.28-1.806.656-4.198-.701-5.644-.454-.484-.952-.983-1.512-1.339-2.718-1.723-6.139-1.834-9.309-.589-1.43.562-1.818.709-3.04 1.64-.407.292-.872.758-1.047.525-.117-.175-.058-.35-.058-.524.699-3.378 1.12-6.067 1.934-9.445" style="fill:none;stroke:#000;stroke-width:3.03546;stroke-dasharray:none;stroke-opacity:1" transform="matrix(.09483 .00696 -.00708 .09642 126.225 400.067)"/></g><path d="M69.475 66.117a.773.773 0 0 1 .333-.011c.042.01.087.018.127.033.21.075.376.246.483.463.017.05.037.098.05.148a.767.767 0 0 1-.1.63c-.034.047-.078.084-.117.126-.052.033-.1.073-.156.1a1.119 1.119 0 0 1-.904.011c-.071-.03-.133-.078-.198-.118-.114-.118-.166-.146-.23-.31a.735.735 0 0 1 .01-.546c.025-.053.065-.093.097-.138.043-.04.084-.085.129-.12.124-.096.388-.243.544-.205.016.004.028.02.042.03" style="display:inline;fill:none;stroke:#000;stroke-width:.291042;stroke-miterlimit:2;stroke-dasharray:none"/><path d="M41.254 28.375c.21-.127.443-.235.692-.257.058-.005.142-.006.2 0 .126.014.29.044.314.211.024.172-.093.308-.202.416a1.375 1.375 0 0 1-.284.213c.084.014.242.043.33.081.166.073.31.168.399.316.104.175.057.328-.09.45a.978.978 0 0 1-.342.162 2.162 2.162 0 0 1-.731.075 1.189 1.189 0 0 1-.33-.073.738.738 0 0 1-.158-.092" style="display:inline;fill:none;fill-opacity:1;stroke:#000;stroke-width:.264583;stroke-linecap:butt;stroke-linejoin:miter;stroke-miterlimit:4;stroke-dasharray:none;stroke-opacity:1"/><path d="M43.873 116.616h24.392M68.471 114.911h24.392" style="fill:none;stroke:#1a1a1a;stroke-width:.291042;stroke-linecap:square;stroke-dasharray:none"/><path d="M94.74 55.135c.032.322-.03.724.033 1.147.022.67-.023 1.153-.038 1.728" style="display:inline;fill:none;stroke:#000;stroke-width:.291042;stroke-miterlimit:2;stroke-dasharray:none"/><path d="M94.879 66.138a.728.728 0 0 1 .66.118c.273.188.468.514.433.85a.845.845 0 0 1-.538.674c-.28.107-.624.076-.856-.123a.783.783 0 0 1-.305-.427.82.82 0 0 1 .193-.78c.161-.178.393-.308.639-.307" style="display:inline;fill:none;fill-opacity:1;stroke:#000;stroke-width:.291042;stroke-linecap:butt;stroke-linejoin:miter;stroke-miterlimit:4;stroke-dasharray:none;stroke-opacity:1"/><path d="M92.251 66.314a.493.493 0 0 1 .185-.2c.193-.111.472-.048.703.061.333.144.555.511.535.817.004.29-.19.502-.412.643a1.027 1.027 0 0 1-.553.174c-.26.01-.563-.043-.792-.243a.676.676 0 0 1-.198-.691c.112-.38.467-.617.866-.7" style="display:inline;fill:none;stroke:#000;stroke-width:.291042;stroke-dasharray:none;stroke-opacity:1"/><g style="display:inline;stroke-width:2.68372;stroke-dasharray:none"><path d="M-1068.518-3395.844c.845-.636 1.665-1.305 2.488-1.97 1.13-.9 2.23-1.836 3.342-2.757l.37-.297m-.058-.074-.37.299c-1.11.924-2.209 1.86-3.34 2.758-.82.662-1.64 1.33-2.487 1.957" style="fill:none;stroke:#000;stroke-width:2.68372;stroke-dasharray:none" transform="matrix(.10695 0 0 .10996 204.464 439.766)"/><path d="M-1063.331-3383.522c-.051-.646-.06-1.295-.071-1.943-.028-1.284 0-2.567.02-3.85.041-1.568.1-3.135.147-4.702.05-1.632.045-3.266.072-4.899.013-.766.03-1.531.053-2.297M-1058.795-3383.322h-.597c-1.1 0-2.2-.015-3.3-.031-1.13-.014-2.26-.02-3.389.048-.614.027-1.228.05-1.842.067" style="fill:none;stroke:#000;stroke-width:2.68372;stroke-dasharray:none" transform="matrix(.10695 0 0 .10996 204.464 439.766)"/></g><path d="M19.191 116.616h24.391" style="fill:none;stroke:#1a1a1a;stroke-width:.291042;stroke-linecap:square;stroke-dasharray:none"/><path d="M18.673 67.02h-.116c-.437.022-.906.061-1.343.1" style="fill:#000;stroke:#000;stroke-width:.291042;stroke-dasharray:none;stroke-opacity:1"/><path d="M17.241 68.676c.072.057.028.029.127.085.36.146.675.146 1.034.006.1-.057.177-.09.249-.186.121-.175.062-.407-.067-.547a.784.784 0 0 0-.144-.13c-.258-.166-.583-.177-.884-.056-.136.054-.172.069-.289.159-.038.028-.082.073-.1.05-.01-.017-.005-.033-.005-.05.067-.327.107-.587.184-.914" style="fill:none;stroke:#000;stroke-width:.291042;stroke-dasharray:none;stroke-opacity:1"/><path d="m16.517 68.069-.12-.006c-.455-.001-.943.014-1.398.03" style="fill:#000;stroke:#000;stroke-width:.291042;stroke-dasharray:none;stroke-opacity:1"/><path d="M20.138 67.237a1.2 1.2 0 0 1 .665.049c.254.105.44.33.545.577.068.207.087.455-.04.645a.853.853 0 0 1-.38.261c-.26.1-.555.117-.826.049-.244-.065-.492-.2-.596-.438a.631.631 0 0 1-.027-.448c.082-.274.295-.502.554-.626a.647.647 0 0 1 .39-.054" style="display:inline;fill:none;stroke:#000;stroke-width:.291042;stroke-dasharray:none;stroke-opacity:1"/><path d="M44.265 38.09c.252.023.762-.027 1.095-.003.522.038.787-.003 1.15-.001M46.813 28.88c-.322.033-.976-.036-1.402-.003-.668.052-1.008-.004-1.473-.002" style="display:inline;fill:none;stroke:#1a1a1a;stroke-width:.291042;stroke-miterlimit:2;stroke-dasharray:none"/><path d="M46.888 47.297c-.348.032-1.164.015-1.512.022-.722.015-1.087-.03-1.588-.027M57.858 48.734c.006.119-.028.295-.033.447M57.823 46.326c.007.12.03.257.025.41M57.815 51.37c.032.142-.03.32.033.507M57.867 47.103c.007.12-.028.295-.033.448M57.832 53.228c.007.12.03.257.025.409M57.843 50.95a2.612 2.612 0 0 1-.033-.508M57.824 49.55c-.006.11.003.346.033.507M57.843 52.833c-.032-.143.03-.32-.033-.508M57.863 54.507a2.612 2.612 0 0 1-.033-.508M57.834 45.428c-.006.11.003.347.033.508M48.86 47.339c-.12.006-.296-.029-.448-.033M57.087 47.308c-.12.006-.257.03-.41.025M50.166 47.318c.142-.032.378-.034.507-.033M56.262 47.302a2.56 2.56 0 0 0-.508.033M59.758 47.286c-.119.007-.295.03-.447.025M47.45 47.338c.144-.032.321.03.509-.033M51.632 47.308c-.142.033-.32-.03-.507.033M52.1 47.323c.142-.033.378-.035.507-.033" style="display:inline;fill:none;stroke:#000;stroke-width:.291042;stroke-miterlimit:2;stroke-dasharray:none"/><path d="M58.032 47.293a2.56 2.56 0 0 0-.508.033M58.896 47.304c-.12.006-.296.03-.448.025M53.059 47.343c.142-.033.32.03.508-.033M55.316 47.348c-.12.007-.295-.028-.447-.033M49.723 47.287c-.12.006-.296.03-.448.025M60.621 47.317c-.12.007-.295-.028-.448-.033M54.453 47.348c-.119.006-.295-.028-.447-.033M57.814 47.918c.007.12.03.296.025.448M57.863 57.896c.032-.322-.004-.814-.02-1.134.023-.67.03-1.167.014-1.741M82.46 57.894c.033-.298-.004-.754-.018-1.05.022-.621.029-1.082.013-1.614M94.73 30.847c.033.143-.03.32.033.508M94.763 43.462c.006.12-.029.296-.033.448M94.732 35.236c.006.12.03.257.025.409M94.743 42.157a2.612 2.612 0 0 1-.033-.508M94.711 36.06c-.006.111.003.347.033.508M94.744 28.007c.006.12-.028.296-.033.448M94.71 32.564c.007.12.03.296.026.448M94.762 44.872c-.032-.143.03-.321-.033-.508M94.733 40.69c.032.143-.03.32.033.508M94.755 48.655c.006.12-.028.296-.033.448M94.72 46.105c.007.12.03.257.025.41M94.747 40.223a2.612 2.612 0 0 1-.033-.508M94.717 34.29c-.006.11.002.347.033.508M94.762 28.87c.006.12-.028.296-.033.448M94.728 33.427c.007.12.03.295.025.448M94.752 39.278c-.032-.142.03-.32-.033-.508M94.712 51.433c.032.143-.03.32.033.508M94.764 46.93c.007.119-.028.295-.033.447M94.73 53.387c.006.12.029.257.024.41M94.74 50.966a2.612 2.612 0 0 1-.033-.508M94.721 49.519c-.006.11.003.346.033.508M94.758 37.006c.007.12-.028.296-.033.448M94.711 42.6c.006.119.03.295.025.447M94.74 52.944c-.032-.142.03-.32-.033-.507M94.742 31.701c.006.12-.029.296-.033.448M94.725 29.954c.006.12.03.257.025.409M94.76 54.713a2.612 2.612 0 0 1-.033-.508M94.731 45.16c-.006.11.003.346.033.508M94.743 37.869c.007.12-.028.296-.033.448M94.711 47.792c.007.12.03.296.025.448" style="display:inline;fill:none;stroke:#000;stroke-width:.291042;stroke-miterlimit:2;stroke-dasharray:none"/><path d="M57.781 47.355a7.165 7.165 0 0 1-.148.14c-.134.121-.306.228-.437.351-.16.136-.337.265-.492.403-.175.14-.342.285-.535.419a5.904 5.904 0 0 0-.574.453c-.198.163-.412.32-.615.48-.192.142-.37.29-.574.426-.26.185-.495.38-.73.574a16.3 16.3 0 0 1-.842.626c-.259.186-.521.371-.761.566-.25.19-.496.38-.754.565-.237.168-.464.34-.689.514-.23.17-.459.342-.702.507-.275.19-.574.367-.839.562-.274.204-.547.408-.825.61-.25.184-.516.36-.763.545-.217.171-.425.346-.663.508-.221.155-.429.316-.653.47-.167.126-.33.254-.487.384M70.126 28.99c-.049.094-.098.187-.15.28-.135.242-.308.454-.44.7-.16.272-.339.528-.496.803-.176.281-.344.57-.538.836a9.285 9.285 0 0 0-.58.905c-.199.325-.414.636-.619.957-.193.283-.372.578-.579.85-.26.368-.498.756-.735 1.145-.272.425-.552.844-.848 1.248-.261.372-.526.742-.767 1.13-.252.378-.5.758-.76 1.128-.239.336-.468.678-.694 1.025-.233.34-.463.682-.707 1.011-.278.378-.58.733-.846 1.122-.277.406-.552.814-.832 1.218-.25.367-.52.717-.769 1.086-.218.341-.428.69-.668 1.013-.223.309-.432.63-.658.936-.168.253-.333.508-.49.769" style="fill:none;stroke:red;stroke-width:.47625;stroke-linecap:square;stroke-dasharray:none"/><path d="M92.94-19.97c.033.143-.03.32.034.508M94.763-6.31c.006.12-.029.296-.033.448M94.732-14.536c.006.12.03.257.025.41M94.743-7.615a2.612 2.612 0 0 1-.033-.508M94.711-13.711c-.006.11.003.346.033.508M92.954-22.544c.007.12-.028.296-.033.448M92.92-18.142c.007.12.03.295.026.448M94.762-4.9c-.032-.143.03-.32-.033-.508M94.733-9.082c.032.143-.03.32.033.508M94.755 21.577c.006.12-.028.295-.033.448M94.72 19.027c.007.12.03.257.025.409M94.747-9.549a2.612 2.612 0 0 1-.033-.508M92.927-15.481c-.006.11.003.346.033.507M92.972-21.681c.007.12-.028.295-.033.448M92.939-16.345c.006.12.03.296.025.448M94.752-10.494c-.032-.142.03-.32-.033-.507M94.712 24.355c.032.143-.03.32.033.508M94.764 19.851c.007.12-.028.296-.033.448M94.73 26.309c.006.12.029.257.024.409M94.74 23.888a2.612 2.612 0 0 1-.033-.508M94.721 22.44c-.006.11.003.347.033.508M94.758-12.766c.007.12-.028.296-.033.448M94.711-7.172c.006.12.03.295.025.447M94.74 25.866c-.032-.143.03-.32-.033-.508M92.952-19.005c.006.12-.028.295-.033.448M92.935-20.818c.006.12.03.257.025.409M94.76 27.635a2.612 2.612 0 0 1-.033-.508M94.731 18.081c-.006.11.003.347.033.508M94.743-11.903c.007.12-.028.296-.033.448M94.711 20.714c.007.12.03.296.025.448M43.952 19.656c.36-.026.974-.004 1.402-.003.377 0 1.008-.005 1.473-.002M71.161 19.612c-.143.032-.32-.03-.508.033M58.435 19.644c-.12.007-.295-.028-.448-.033M66.662 19.614c-.12.006-.257.03-.41.025M59.74 19.624c.143-.032.38-.034.509-.033M65.837 19.593a2.56 2.56 0 0 0-.508.033M73.89 19.626c-.12.006-.295-.028-.448-.033M69.333 19.592c-.119.007-.295.03-.447.025M57.026 19.644c.143-.033.32.03.508-.033M61.207 19.614c-.142.033-.32-.03-.507.033M53.242 19.637c-.119.006-.295-.029-.447-.033M55.792 19.602c-.12.006-.257.03-.409.025M61.675 19.629c.142-.033.378-.035.507-.033M67.607 19.599a2.56 2.56 0 0 0-.508.033M73.027 19.644c-.119.006-.295-.029-.447-.033M68.47 19.61c-.119.006-.295.03-.447.025M62.62 19.634c.142-.032.32.03.507-.033M50.464 19.594c-.143.032-.32-.03-.508.033M54.968 19.646c-.12.007-.296-.028-.448-.033M48.51 19.61c-.119.007-.256.03-.409.026M50.931 19.622c.143-.033.379-.035.508-.033M52.379 19.603a2.56 2.56 0 0 0-.508.033M64.891 19.64c-.119.006-.295-.028-.447-.033M59.298 19.593c-.12.006-.296.03-.448.025M48.953 19.622c.143-.032.32.03.508-.033M70.196 19.623c-.119.007-.295-.028-.447-.033M72.164 19.606c-.119.007-.256.03-.408.026M47.184 19.641c.143-.032.379-.034.508-.033M56.738 19.613a2.56 2.56 0 0 0-.508.033M64.029 19.625c-.12.006-.296-.028-.448-.033M54.105 19.593c-.12.006-.295.03-.448.025M91.261 19.634c-.143.033-.32-.03-.508.033M85.669 19.644c-.12.007-.296-.028-.448-.033M93.895 19.614c-.12.006-.257.03-.409.025M86.974 19.624c.143-.032.379-.034.508-.033M139.683 19.2c-.12.006-.296-.029-.448-.034M96.567 19.592c-.12.007-.296.03-.448.025M84.26 19.644c.142-.033.32.03.507-.033M88.441 19.614c-.143.033-.32-.03-.508.033M80.32 19.637c-.119.006-.295-.029-.447-.033M82.87 19.602c-.119.006-.256.03-.408.025M88.908 19.629c.143-.033.379-.035.508-.033M94.84 19.599a2.56 2.56 0 0 0-.507.033M92.972 19.666c-.119.006-.295-.029-.447-.033M95.704 19.61c-.12.006-.295.03-.448.025M77.543 19.594c-.143.032-.321-.03-.508.033M82.046 19.646c-.119.007-.295-.028-.447-.033M75.589 19.61c-.12.007-.257.03-.41.026M78.01 19.622c.142-.033.378-.035.508-.033M79.457 19.603a2.56 2.56 0 0 0-.508.033M86.531 19.593c-.119.006-.295.03-.447.025M76.032 19.622c.142-.032.32.03.507-.033M90.296 19.645c-.119.007-.295-.028-.447-.033M92.11 19.628c-.12.007-.257.03-.41.026M74.263 19.641c.142-.032.378-.034.508-.033M83.816 19.613a2.56 2.56 0 0 0-.508.033M81.184 19.593c-.12.006-.296.03-.448.025" style="display:inline;fill:none;stroke:#000;stroke-width:.291042;stroke-miterlimit:2;stroke-dasharray:none"/><path d="M96.646 18.674c-.17.074-.337.157-.507.232-.322.123-.644.242-.966.366-.341.132-.673.31-1.016.43-.388.16-.781.281-1.172.422-.36.14-.727.234-1.089.365-.318.115-.63.268-.945.401-.384.158-.767.324-1.155.455-.557.202-1.118.374-1.675.571-.564.218-1.128.437-1.696.638-.4.143-.805.26-1.2.433-.398.155-.798.3-1.194.461-.45.195-.904.354-1.36.506-.506.17-1.013.33-1.513.532-.532.2-1.065.392-1.595.6-.48.193-.957.41-1.439.595-.514.22-1.023.465-1.543.649-.539.195-1.075.4-1.611.61-.474.17-.953.313-1.423.505-.39.154-.772.348-1.163.5-.385.15-.769.31-1.152.467-.298.12-.594.251-.893.37" style="fill:none;stroke:red;stroke-width:.47625;stroke-linecap:square;stroke-dasharray:none"/><path d="M41.459 37.132c.04-.024.08-.049.124-.068a1.71 1.71 0 0 1 .466-.132.924.924 0 0 1 .161-.007c.15.008.337.034.43.172.048.074.035.103.036.189-.013.043-.021.087-.037.129-.039.1-.117.238-.17.327-.123.205-.261.399-.401.592-.121.161-.243.321-.367.48-.046.06-.096.116-.143.175.014.019.005.011.044-.002.08-.027.101-.038.167-.056.11-.029.174-.048.32-.069.297-.043.598-.044.897-.026.06.004.121.01.182.016" style="display:inline;fill:none;stroke:#000;stroke-width:.291042;stroke-linecap:square;stroke-linejoin:round;stroke-miterlimit:2;stroke-dasharray:none"/><path d="M41.062 46.66c.149-.069.295-.142.44-.215.201-.098.398-.202.597-.304l.066-.032m-.007-.013-.065.033c-.198.102-.396.206-.596.304-.146.072-.292.146-.44.212" style="fill:none;stroke:#000;stroke-width:.291042;stroke-dasharray:none"/><path d="M42.041 48.116c-.006-.075-.007-.151-.008-.227-.003-.15 0-.3.002-.45l.017-.548c.006-.19.005-.381.008-.572l.006-.268M42.908 48.14h-.114c-.21 0-.419-.002-.628-.004-.215-.002-.43-.002-.645.005-.117.004-.234.006-.35.008" style="fill:none;stroke:#000;stroke-width:.291042;stroke-dasharray:none"/><g style="display:inline;stroke-width:1.30312;stroke-dasharray:none"><path d="M-1205.674-3754.945c-.32.01-.49.025-.74.017-1.665.024-3.338.058-5.002.15-.937.05-1.882.225-2.819.183-.451-.359.144-1.694.251-2.103.446-1.698.97-3.398 1.054-5.16" style="fill:none;stroke:#000;stroke-width:1.30312;stroke-dasharray:none" transform="matrix(.22288 .01057 -.0106 .2233 272.007 871.286)"/><path d="M-1208.447-3751.472a21.558 21.558 0 0 1-.525-1.937c-.375-1.745-.462-3.607-.612-5.377" style="fill:none;stroke:#000;stroke-width:1.30312;stroke-dasharray:none" transform="matrix(.22288 .01057 -.0106 .2233 272.007 871.286)"/></g><g style="display:inline;stroke-width:2.04265;stroke-dasharray:none"><path d="M-1212.717-3725.95c2.599-.19 4.584-.296 6.617-.351l.621.011c.29.011 1.057.024 1.389.051M-1214.792-3715.364c.045.254.094.358.17.478.116.186.31.395.524.522.712.422 1.55.554 2.363.595 1.687.085 3.374-.203 4.982-.67.452-.132.897-.294 1.326-.486.947-.425 2.137-1.236 2.057-2.418a1.738 1.738 0 0 0-.178-.645 2.276 2.276 0 0 0-.437-.592c-1.322-1.312-3.462-1.44-5.207-1.445-.88 0-1.238.028-2.074.192-.49.095-1.107.254-1.471.628-.065.066-.109.153-.15.235-.102.199-.102.15-.096.327v-.055c.017-.11.043-.218.061-.328a88.17 88.17 0 0 0 .227-1.545c.226-1.653.446-3.313.395-4.985" style="fill:none;stroke:#000;stroke-width:2.04265;stroke-linecap:butt;stroke-linejoin:round;stroke-miterlimit:2;stroke-dasharray:none" transform="matrix(.14195 0 0 .14301 204.754 599.985)"/></g><path d="m29.515 68.069-.12-.006c-.454-.001-.943.014-1.398.03" style="fill:#000;stroke:#000;stroke-width:.291042;stroke-dasharray:none;stroke-opacity:1"/><path d="M30.178 67.682c.181-.171.41-.306.651-.42.222-.104.469-.186.728-.21a.99.99 0 0 1 .113-.006c.095.002.213.016.256.096.023.043.013.074.01.119-.085.253-.301.462-.506.66-.288.282-.632.522-.978.758-.061.04-.126.079-.184.123 0 0-.032.022-.018.03.009.006.022.005.033.007.348-.053.7-.082 1.054-.094.235-.008.472-.002.707.01l.048.004" style="display:inline;fill:none;stroke:#000;stroke-width:.291043;stroke-dasharray:none"/><path d="M56.004 67.625c-.292.002-.585.004-.877.004-.131-.002-.294-.002-.425-.006l-.146-.008c-.045-.003-.085-.02-.057-.062.157-.231.334-.446.506-.664l.314-.387c.044-.056.087-.112.128-.17.069-.094.14-.186.16-.307-.003-.018-.003-.037-.012-.052-.022-.037-.066-.046-.102-.05-.117-.012-.232.021-.344.041-.25.062-.499.14-.728.266" style="display:inline;fill:none;stroke:#000;stroke-width:.291042;stroke-dasharray:none"/><g style="display:inline;stroke-width:2.60553;stroke-dasharray:none"><path d="M-1184.929-3730.187a4.68 4.68 0 0 1-.787.153c-1.081.11-2.46.098-3.463.093-2.477-.014-2.608 0-4.96 0" style="fill:none;stroke:#000;stroke-width:2.60553;stroke-linecap:butt;stroke-linejoin:round;stroke-miterlimit:2;stroke-dasharray:none;stroke-opacity:1" transform="matrix(.10985 0 0 .11359 187.808 489.545)"/><path d="M-1196.598-3716.436c.299 1.065 1.238 1.702 2.122 2.211 2.03.823 4.428.848 6.585.591 1.336-.195 2.822-.969 3.18-2.352.305-1.177-.01-2.463-.692-3.466-.956-1.615-2.454-2.897-4.26-3.365-1.469-.38-3.352-.262-4.996-.076.262-.239.357-.646.42-.886.41-1.55.507-4.103.35-6.225" style="fill:none;stroke:#000;stroke-width:2.60553;stroke-linecap:butt;stroke-linejoin:round;stroke-miterlimit:2;stroke-dasharray:none;stroke-opacity:1" transform="matrix(.10985 0 0 .11359 187.808 489.545)"/></g><g style="display:inline;stroke-width:1.38823;stroke-dasharray:none"><path d="M-835.63-2688.198c.237-.371.108-.167.382-.61.89-1.476 1.681-3.008 2.602-4.468.574-.896 1.184-1.777 1.774-2.667.119-.183.258-.356-.093-.316-.88.051-1.759.076-2.638.086-1.304 0-2.602-.076-3.9-.107" style="display:inline;fill:none;stroke:#000;stroke-width:1.38823;stroke-miterlimit:2;stroke-dasharray:none" transform="matrix(.20513 0 0 .21427 250.612 643.701)"/><path d="M-831.545-2692.203c-.522.112-1.055.148-1.587.194-1.004.04-2.007.112-3.016.102" style="display:inline;fill:none;stroke:#000;stroke-width:1.38823;stroke-miterlimit:2;stroke-dasharray:none" transform="matrix(.20513 0 0 .21427 250.612 643.701)"/></g><g style="display:inline;stroke:#000;stroke-width:2.33445;stroke-dasharray:none"><path d="M329.163 2.885c2.016-.094 4.064-.148 5.791-.181a30.04 30.04 0 0 0 3.16-.169" style="fill:none;fill-opacity:1;fill-rule:nonzero;stroke:#000;stroke-width:2.33445;stroke-dasharray:none;stroke-dashoffset:0;stroke-opacity:1" transform="matrix(.124 0 0 .12535 40.19 65.434)"/><path d="M329.252 15.79c-.288.86.402 1.71 1.12 2.082 1.498.777 3.31.872 4.932.466 2.157-.542 3.749-1.75 4.285-3.88.415-1.644.25-3.565-1.005-4.818-1.147-1.145-2.774-1.628-4.36-1.66-1.7-.033-3.379.394-4.938 1.043-.325-.24-.138-1.087-.05-1.758.162-1.235.304-3.192.415-4.432" style="fill:none;fill-opacity:1;fill-rule:nonzero;stroke:#000;stroke-width:2.33445;stroke-dasharray:none;stroke-dashoffset:0;stroke-opacity:1" transform="matrix(.124 0 0 .12535 40.19 65.434)"/></g><g style="display:inline;stroke-width:2.74234;stroke-dasharray:none"><path d="M-1096.114-3383.513c.036-1.699.083-3.397.113-5.096.046-1.766.109-3.531.106-5.297.01-1.31.019-3.447.045-4.756.01-.707.022-1.42-.097-2.12-.031-.143-.067-.484-.216-.566-.023-.013-.052-.01-.078-.016-.21.054-.38.204-.551.331-.396.294-.1.067-.534.408-.803.652-1.615 1.3-2.351 2.028-.47.487-.922.99-1.4 1.469M-1092.707-3383.49c-.205.01-.414.014-.59.02-1.542.055-3.086.11-4.63.097h-2.747" style="fill:none;stroke:#000;stroke-width:2.74234;stroke-dasharray:none" transform="matrix(.09305 0 0 .10004 158.739 399.223)"/></g><path d="M58.047 59.062c-.173.017-.36.163-.47.289a1.317 1.317 0 0 0-.294.58.798.798 0 0 0 .023.463c.063.17.203.311.38.357.126.033.26.05.39.042.26-.017.539-.102.704-.315a.612.612 0 0 0 .13-.447 1.293 1.293 0 0 0-.19-.5c-.147-.242-.397-.431-.684-.465" style="display:inline;fill:none;stroke:#000;stroke-width:.291042;stroke-linecap:butt;stroke-linejoin:round;stroke-miterlimit:2;stroke-dasharray:none;stroke-opacity:1"/><path d="M68.232 59.66a2 2 0 0 1 .527-.391c.248-.12.492-.181.768-.18.035 0 .07.001.105.008.047.01.095.018.124.062.063.097-.083.342-.13.41a5.205 5.205 0 0 1-.713.787 5.298 5.298 0 0 1-.475.402c-.008.005-.031.022-.042.028-.002.001-.008.002-.006.003.028.01.087-.015.112-.022.307-.067.623-.064.936-.053.265.014.53.045.791.096" style="display:inline;fill:none;stroke:#000;stroke-width:.291042;stroke-dasharray:none"/><path d="M70.779 59.488a.565.565 0 0 1 .188-.164c.18-.09.396-.04.564.05.246.119.36.42.285.672-.051.237-.25.412-.458.527a1.014 1.014 0 0 1-.485.143c-.215.007-.454-.036-.604-.2-.14-.156-.125-.391-.032-.567.163-.312.498-.507.841-.575" style="display:inline;fill:none;stroke:#000;stroke-width:.291042;stroke-dasharray:none;stroke-opacity:1"/><path d="M79.882 60.342c.115.08.243.142.35.194a1.611 1.611 0 0 0 1.036.142c.145-.033.296-.095.39-.216.02-.024.032-.052.048-.079.008-.027.02-.054.024-.082.025-.154-.063-.292-.17-.394-.026-.02-.051-.043-.079-.061a.78.78 0 0 0-.429-.142c-.024.002-.069.003-.093.017-.039.022.001.04.023.043.016.002.033.001.05.001.202-.028.38-.117.532-.253.09-.096.228-.238.163-.385-.01-.021-.026-.039-.04-.058-.02-.016-.04-.035-.062-.048-.152-.092-.342-.088-.512-.077-.041.007-.083.013-.124.022a1.437 1.437 0 0 0-.52.229" style="display:inline;fill:none;stroke:#000;stroke-width:.291041;stroke-dasharray:none"/><path d="M82.725 59.068c.205.019.412.041.61.105.273.112.38.2.476.493.057.252.05.452-.052.693-.02.031-.037.065-.06.095-.16.201-.418.26-.656.287-.058 0-.117.004-.176 0-.222-.019-.461-.092-.626-.256-.036-.037-.064-.083-.095-.124-.051-.11-.083-.156-.094-.281-.02-.215.078-.409.207-.569.204-.222.436-.423.723-.52" style="display:inline;fill:none;stroke:#000;stroke-width:.291042;stroke-miterlimit:2;stroke-dasharray:none"/><g style="display:inline;stroke-width:13.8428;stroke-dasharray:none"><path d="M3126.739-939.42c-2.842.776-5.942 1.034-8.525 1.292a306.16 306.16 0 0 1-30.738 1.55c-8.266.517-13.949.517-21.956 1.292-2.067 0-9.558 1.291-10.333.258-.255-.258-.255-1.033-.518-1.55 2.841-14.982 9.3-29.189 9.3-44.688" style="fill:none;stroke:#000;stroke-width:13.8428;stroke-dasharray:none;stroke-opacity:1" transform="matrix(.02101 0 0 .02104 28.237 79.548)"/><path d="M3116.35-889.78c.073-2.677 0-4.067-.087-5.816-.175-5.17-.255-6.604-.517-12.028-1.291-21.698-3.1-43.138-4.65-64.578" style="fill:none;stroke:#000;stroke-width:13.8428;stroke-dasharray:none;stroke-opacity:1" transform="matrix(.02101 0 0 .02104 28.237 79.548)"/></g><path d="M95.066 59.287a.493.493 0 0 1 .184-.2c.194-.11.472-.048.703.062.333.143.555.51.535.817.004.289-.19.502-.412.642a1.027 1.027 0 0 1-.552.175c-.26.009-.564-.044-.793-.243a.676.676 0 0 1-.197-.692c.11-.38.466-.617.866-.7" style="display:inline;fill:none;stroke:#000;stroke-width:.291042;stroke-dasharray:none;stroke-opacity:1"/><path d="M32.633 58.94c-.005.027-.009.01-.03.036a10.042 10.042 0 0 0-.376.337.759.759 0 0 0-.117.134" style="fill:none;stroke:#000;stroke-width:.291042;stroke-dasharray:none"/><path d="M32.68 60.718c-.009-.076-.013-.153-.016-.218-.006-.13-.006-.26-.007-.391l-.007-.444a34.2 34.2 0 0 0-.014-.397c-.004-.089-.005-.178-.013-.266a1.365 1.365 0 0 0-.007-.06" style="fill:none;stroke:#000;stroke-width:.291042;stroke-dasharray:none"/><path d="M32.196 60.694c.152 0 .304.002.456.004l.385.002h.039M30.871 59.969c.152 0 .304.003.456.004.128.002.257.002.385.003h.039" style="fill:none;stroke:#000;stroke-width:.291042;stroke-dasharray:none"/><path d="M34.067 59c-.172.016-.359.161-.467.287a1.31 1.31 0 0 0-.292.576.793.793 0 0 0 .022.462c.063.17.202.309.378.354.126.033.258.05.388.042.259-.016.536-.101.7-.313a.608.608 0 0 0 .13-.445 1.286 1.286 0 0 0-.188-.497c-.147-.24-.396-.429-.682-.462" style="display:inline;fill:none;stroke:#000;stroke-width:.264583;stroke-linecap:butt;stroke-linejoin:round;stroke-miterlimit:2;stroke-dasharray:none;stroke-opacity:1"/><path d="M19.048 59.653c.156-.158.359-.322.575-.427a1.84 1.84 0 0 1 .837-.196.57.57 0 0 1 .115.009c.051.01.103.02.134.068.07.105-.09.372-.142.446a5.677 5.677 0 0 1-.776.858 5.776 5.776 0 0 1-.518.44l-.046.03-.007.002c.03.012.095-.015.123-.023.334-.073.68-.07 1.02-.058.29.015.578.05.863.105" style="display:inline;fill:none;stroke:#000;stroke-width:.264583;stroke-dasharray:none"/><path d="M22.222 59.082a1.016 1.016 0 0 1 .751.304.913.913 0 0 1 .24.624c-.002.071-.017.143-.03.213a.604.604 0 0 1-.067.177c-.132.244-.444.394-.709.436a.96.96 0 0 1-.48-.04.94.94 0 0 1-.54-1.172c.106-.284.413-.463.693-.524" style="display:inline;fill:none;stroke:#000;stroke-width:.291042;stroke-dasharray:none;stroke-opacity:1"/><path d="M17.35 60.114c.217 0 .434.003.65.004l.552.003h.055" style="fill:none;stroke:#000;stroke-width:.291042;stroke-dasharray:none"/><path d="M104.184 68.332c-.032.322-.063 1.2-.023 1.747-.022.67.013.553.028 1.128" style="display:inline;fill:none;stroke:#000;stroke-width:.291042;stroke-miterlimit:2;stroke-dasharray:none"/><g style="display:inline;stroke-width:10.793;stroke-miterlimit:4;stroke-dasharray:none"><path d="M5215.952 4392.586c-1.016-.06-3.679-.11-4.53-.1-10.06.131-23 .86-33.123 2.286" style="opacity:1;fill:none;fill-opacity:1;stroke:#000;stroke-width:10.793;stroke-linecap:square;stroke-linejoin:miter;stroke-miterlimit:4;stroke-dasharray:none;stroke-opacity:1" transform="matrix(.02649 0 0 .02745 -34.42 -48.376)"/><path d="M5176.348 4449.704c.478 1.183 1.719 3.117 2.457 3.948 1.274 1.433 4.182 2.861 6.617 3.406 2.196.507 4.403.804 6.643.555 5.266-.586 10.397-2.537 14.815-5.197 3.593-2.163 7.706-5.422 10.154-8.957.881-1.273 1.565-3.201 1.8-4.557.171-.987.244-2.843-.11-4.169-.856-3.218-3.642-5.939-6.192-7.842-4.437-3.312-10.397-5.121-15.193-5.868-1.83-.286-4.736-.505-6.977-.487-5.898.046-11.937 1.095-17.296 4.122-.135.125-.864.112-.462.53.325.337.308.01.402-.588.902-5.684 1.985-11.238 3.253-17.583.511-2.46 1.348-6.095 1.803-8.723.155-.897.65-2.684.774-3.586" style="opacity:1;fill:none;fill-opacity:1;stroke:#000;stroke-width:10.793;stroke-linecap:square;stroke-linejoin:round;stroke-miterlimit:4;stroke-dasharray:none;stroke-opacity:1" transform="matrix(.02649 0 0 .02745 -34.42 -48.376)"/></g><path d="M104.92 72.16c.267.059.481.249.669.44.125.136.236.297.27.483.054.214-.045.438-.19.59-.197.203-.492.274-.765.258-.156-.015-.32-.076-.41-.216-.108-.16-.12-.365-.104-.552.048-.334.201-.655.442-.889a.417.417 0 0 1 .2-.115" style="display:inline;fill:none;fill-opacity:1;stroke:#000;stroke-width:.291042;stroke-linecap:butt;stroke-linejoin:miter;stroke-miterlimit:4;stroke-dasharray:none;stroke-opacity:1"/></svg>