<svg xmlns="http://www.w3.org/2000/svg" xmlns:xlink="http://www.w3.org/1999/xlink" id="svg8392" width="800" height="826.662" preserveAspectRatio="none" version="1.1" viewBox="-104.248 -50.537 800 826.662"><style id="style8255" type="text/css">.grid-thin{stroke:#9e9ed1;stroke-width:.3}.axes{stroke:#000;stroke-width:.9}.axis-arrow{stroke-width:1.1;stroke:#000;fill:none;stroke-linecap:round;stroke-linejoin:round}.axes-labels,.notch-labels-out-grid{stroke:none;fill:#000}.dots-open-thin{stroke-width:1.3;stroke:red;fill:none}.dots-full-thin{stroke-width:1.1;stroke:red;fill:red}.graph-thin{stroke:red;stroke-width:1.2;fill:none}.none{display:none}</style><defs id="defs8267"><path id="STIXWEBMAINI-78" stroke-width="1" d="m243 355 12-57c70 107 107 143 151 143 24 0 41-15 41-37 0-21-14-36-34-36-19 0-28 17-52 17-18 0-54-44-98-121 0-7 2-21 8-45l32-134c7-28 16-41 30-41 13 0 24 10 47 40 9 12 13 18 21 28l15-9C358 13 332-11 294-11c-32 0-47 18-59 68l-29 119-88-119C74-2 54-11 23-11S-27 5-27 31c0 20 14 36 34 36 9 0 19-4 32-11 10-6 20-9 26-9 11 0 30 19 51 49l82 116-28 124c-14 60-21 68-46 68-8 0-20-2-39-7l-18-5-3 16 11 4c61 22 94 29 117 29 25 0 37-18 51-86z"/><path id="STIXWEBMAIN-2212" stroke-width="1" d="M621 220H64v66h557z"/><path id="STIXWEBMAIN-34" stroke-width="1" d="M473 167H370V0h-78v167H12v64l314 445h44V231h103Zm-181 64v343L52 231Z"/><path id="STIXWEBMAIN-33" stroke-width="1" d="m61 510-16 4c29 95 92 162 196 162 93 0 156-55 156-137 0-48-26-98-93-138 44-19 62-31 83-53 28-31 44-77 44-129 0-53-17-102-46-140-48-64-143-93-232-93C80-14 41 7 41 43c0 21 18 36 41 36 17 0 33-6 61-26 37-26 58-31 86-31 74 0 130 68 130 153 0 76-35 125-104 145-22 7-45 10-102 10v14c38 13 64 24 84 36 49 28 81 73 81 134 0 68-42 102-108 102-62 0-108-32-149-106z"/><path id="STIXWEBMAIN-32" stroke-width="1" d="M474 137 420 0H29v12l178 189c94 99 130 175 130 260 0 91-54 141-139 141-72 0-107-32-147-130l-21 5c21 117 85 199 208 199 113 0 185-77 185-176 0-79-39-154-128-248L130 76h234c42 0 63 11 96 67z"/><path id="STIXWEBMAIN-31" stroke-width="1" d="M394 0H118v15c74 4 95 25 95 80v449c0 34-9 49-30 49-10 0-27-5-45-12l-27-10v14l179 91 9-3V76c0-43 20-61 95-61z"/><path id="STIXWEBMAIN-30" stroke-width="1" d="M476 330c0-172-63-344-226-344C79-14 24 172 24 336c0 177 69 340 230 340 131 0 222-141 222-346Zm-96-5c0 208-44 325-132 325-83 0-128-118-128-321S164 12 250 12c85 0 130 115 130 313z"/><clipPath id="trbl_clip_0_562.5_168.75_0"><path id="path8257" d="M0 0h562.5v168.75H0Z"/></clipPath><clipPath id="trbl_clip_0_562.5_168.75_0-7"><path id="path9317" d="M0 0h562.5v168.75H0Z"/></clipPath><clipPath id="trbl_clip_0_562.5_231.25_0"><path id="path10541" d="M0 0h562.5v231.25H0Z"/></clipPath></defs><g id="grid"><path id="path8271" d="M31.25 158.197V0" class="grid-thin"/><path id="path8273" d="M93.75 158.197V0" class="grid-thin"/><path id="path8275" d="M156.25 158.197V0" class="grid-thin"/><path id="path8277" d="M218.75 158.197V0" class="grid-thin"/><path id="path8279" d="M281.25 158.197V0" class="grid-thin"/><path id="path8281" d="M343.75 158.197V0" class="grid-thin"/><path id="path8283" d="M406.25 158.197V0" class="grid-thin"/><path id="path8285" d="M468.75 158.197V0" class="grid-thin"/><path id="path8287" d="M531.25 158.197V0" class="grid-thin"/><path id="path8289" d="M0 150h562.5" class="grid-thin"/><path id="path8291" d="M0 87.5h256.972m16.081 0H562.5" class="grid-thin"/><path id="path8293" d="M0 25h562.5" class="grid-thin"/></g><g id="axes"><path id="path8296" d="M0 150h570.697" class="axes"/><path id="path8298" d="M281.25 158.197V-8.197" class="axes"/></g><g id="axes arrows"><path id="path8301" d="M567.316 145.492c0 1.803 2.536 4.508 3.381 4.508-.845 0-3.381 2.705-3.381 4.508" class="axis-arrow"/><path id="path8303" d="M276.742-4.816c1.803 0 4.508-2.536 4.508-3.381 0 .845 2.705 3.381 4.508 3.381" class="axis-arrow"/></g><g id="axes labels"><g id="g8308" class="axes-labels" transform="matrix(.01904 0 0 -.01904 582.992 154.51)"><use xlink:href="#STIXWEBMAINI-78" id="use8306" width="100%" height="100%" x="0" y="0"/></g></g><g id="graphs"><g id="g8337" clip-path="url(#trbl_clip_0_562.5_168.75_0)"><path id="path8311" d="M-93.75 150 28.643 27.607m5.214 119.786L153.643 27.607m5.214 119.786L278.643 27.607m5.214 119.786L403.643 27.607m5.214 119.786L528.643 27.607m5.214 119.786L656.25 25" class="graph-thin"/><circle id="circle8315" cx="31.25" cy="25" r="3.688" class="dots-open-thin"/><circle id="circle8317" cx="31.25" cy="150" r="3.688" class="dots-full-thin"/><circle id="circle8319" cx="156.25" cy="25" r="3.688" class="dots-open-thin"/><circle id="circle8321" cx="156.25" cy="150" r="3.688" class="dots-full-thin"/><circle id="circle8323" cx="281.25" cy="25" r="3.688" class="dots-open-thin"/><circle id="circle8325" cx="281.25" cy="150" r="3.688" class="dots-full-thin"/><circle id="circle8327" cx="406.25" cy="25" r="3.688" class="dots-open-thin"/><circle id="circle8329" cx="406.25" cy="150" r="3.688" class="dots-full-thin"/><circle id="circle8331" cx="531.25" cy="25" r="3.688" class="dots-open-thin"/><circle id="circle8333" cx="531.25" cy="150" r="3.688" class="dots-full-thin"/></g></g><g id="notch labels"><g id="g8344" class="notch-labels-out-grid" transform="matrix(.01904 0 0 -.01904 19.959 175.858)"><use xlink:href="#STIXWEBMAIN-2212" id="use8340" width="100%" height="100%" x="0" y="0"/><use xlink:href="#STIXWEBMAIN-34" id="use8342" width="100%" height="100%" x="685" y="0"/></g><g id="g8350" class="notch-labels-out-grid" transform="matrix(.01904 0 0 -.01904 82.459 175.858)"><use xlink:href="#STIXWEBMAIN-2212" id="use8346" width="100%" height="100%" x="0" y="0"/><use xlink:href="#STIXWEBMAIN-33" id="use8348" width="100%" height="100%" x="685" y="0"/></g><g id="g8356" class="notch-labels-out-grid" transform="matrix(.01904 0 0 -.01904 144.959 175.858)"><use xlink:href="#STIXWEBMAIN-2212" id="use8352" width="100%" height="100%" x="0" y="0"/><use xlink:href="#STIXWEBMAIN-32" id="use8354" width="100%" height="100%" x="685" y="0"/></g><g id="g8362" class="notch-labels-out-grid" transform="matrix(.01904 0 0 -.01904 207.459 175.858)"><use xlink:href="#STIXWEBMAIN-2212" id="use8358" width="100%" height="100%" x="0" y="0"/><use xlink:href="#STIXWEBMAIN-31" id="use8360" width="100%" height="100%" x="685" y="0"/></g><g id="g8366" class="notch-labels-out-grid" transform="matrix(.01903 0 0 -.01903 276.488 175.849)"><use xlink:href="#STIXWEBMAIN-30" id="use8364" width="100%" height="100%" x="0" y="0"/></g><g id="g8370" class="notch-labels-out-grid" transform="matrix(.01903 0 0 -.01903 338.988 175.849)"><use xlink:href="#STIXWEBMAIN-31" id="use8368" width="100%" height="100%" x="0" y="0"/></g><g id="g8374" class="notch-labels-out-grid" transform="matrix(.01903 0 0 -.01903 401.488 175.849)"><use xlink:href="#STIXWEBMAIN-32" id="use8372" width="100%" height="100%" x="0" y="0"/></g><g id="g8378" class="notch-labels-out-grid" transform="matrix(.01903 0 0 -.01903 463.988 175.849)"><use xlink:href="#STIXWEBMAIN-33" id="use8376" width="100%" height="100%" x="0" y="0"/></g><g id="g8382" class="notch-labels-out-grid" transform="matrix(.01903 0 0 -.01903 526.488 175.849)"><use xlink:href="#STIXWEBMAIN-34" id="use8380" width="100%" height="100%" x="0" y="0"/></g><g id="g8386" class="notch-labels-out-grid" transform="matrix(.01903 0 0 -.01903 260.25 93.928)"><use xlink:href="#STIXWEBMAIN-31" id="use8384" width="100%" height="100%" x="0" y="0"/></g><g id="g10116" transform="translate(0 265.405)"><path id="path9331" d="M31.25 158.197V0" class="grid-thin"/><path id="path9333" d="M93.75 158.197V0" class="grid-thin"/><path id="path9335" d="M156.25 158.197V0" class="grid-thin"/><path id="path9337" d="M218.75 158.197V0" class="grid-thin"/><path id="path9339" d="M281.25 158.197V0" class="grid-thin"/><path id="path9341" d="M343.75 158.197V0" class="grid-thin"/><path id="path9343" d="M406.25 158.197V0" class="grid-thin"/><path id="path9345" d="M468.75 158.197V0" class="grid-thin"/><path id="path9347" d="M531.25 158.197V0" class="grid-thin"/><path id="path9349" d="M0 150h562.5" class="grid-thin"/><path id="path9351" d="M0 87.5h562.5" class="grid-thin"/><path id="path9353" d="M0 25h256.972m16.081 0H562.5" class="grid-thin"/><path id="path9356" d="M0 150h570.697" class="axes"/><path id="path9358" d="M281.25 158.197V-8.197" class="axes"/><path id="path9361" d="M567.316 145.492c0 1.803 2.536 4.508 3.381 4.508-.845 0-3.381 2.705-3.381 4.508" class="axis-arrow"/><path id="path9363" d="M276.742-4.816c1.803 0 4.508-2.536 4.508-3.381 0 .845 2.705 3.381 4.508 3.381" class="axis-arrow"/><g id="g9368" class="axes-labels" transform="matrix(.01904 0 0 -.01904 582.992 154.51)"><use xlink:href="#STIXWEBMAINI-78" id="use9366" width="100%" height="100%" x="0" y="0"/></g><g id="g9389" clip-path="url(#trbl_clip_0_562.5_168.75_0-7)"><path id="path9371" d="M-93.75 150 90.252 88.666m6.996 60.168 180.504-60.168m6.996 60.168 180.504-60.168m6.996 60.168L656.25 87.5" class="graph-thin"/><circle id="circle9375" cx="93.75" cy="87.5" r="3.688" class="dots-open-thin"/><circle id="circle9377" cx="93.75" cy="150" r="3.688" class="dots-full-thin"/><circle id="circle9379" cx="281.25" cy="87.5" r="3.688" class="dots-open-thin"/><circle id="circle9381" cx="281.25" cy="150" r="3.688" class="dots-full-thin"/><circle id="circle9383" cx="468.75" cy="87.5" r="3.688" class="dots-open-thin"/><circle id="circle9385" cx="468.75" cy="150" r="3.688" class="dots-full-thin"/></g><g id="g9396" class="notch-labels-out-grid" transform="matrix(.01904 0 0 -.01904 19.959 175.858)"><use xlink:href="#STIXWEBMAIN-2212" id="use9392" width="100%" height="100%" x="0" y="0"/><use xlink:href="#STIXWEBMAIN-34" id="use9394" width="100%" height="100%" x="685" y="0"/></g><g id="g9402" class="notch-labels-out-grid" transform="matrix(.01904 0 0 -.01904 82.459 175.858)"><use xlink:href="#STIXWEBMAIN-2212" id="use9398" width="100%" height="100%" x="0" y="0"/><use xlink:href="#STIXWEBMAIN-33" id="use9400" width="100%" height="100%" x="685" y="0"/></g><g id="g9408" class="notch-labels-out-grid" transform="matrix(.01904 0 0 -.01904 144.959 175.858)"><use xlink:href="#STIXWEBMAIN-2212" id="use9404" width="100%" height="100%" x="0" y="0"/><use xlink:href="#STIXWEBMAIN-32" id="use9406" width="100%" height="100%" x="685" y="0"/></g><g id="g9414" class="notch-labels-out-grid" transform="matrix(.01904 0 0 -.01904 207.459 175.858)"><use xlink:href="#STIXWEBMAIN-2212" id="use9410" width="100%" height="100%" x="0" y="0"/><use xlink:href="#STIXWEBMAIN-31" id="use9412" width="100%" height="100%" x="685" y="0"/></g><g id="g9418" class="notch-labels-out-grid" transform="matrix(.01903 0 0 -.01903 276.488 175.849)"><use xlink:href="#STIXWEBMAIN-30" id="use9416" width="100%" height="100%" x="0" y="0"/></g><g id="g9422" class="notch-labels-out-grid" transform="matrix(.01903 0 0 -.01903 338.988 175.849)"><use xlink:href="#STIXWEBMAIN-31" id="use9420" width="100%" height="100%" x="0" y="0"/></g><g id="g9426" class="notch-labels-out-grid" transform="matrix(.01903 0 0 -.01903 401.488 175.849)"><use xlink:href="#STIXWEBMAIN-32" id="use9424" width="100%" height="100%" x="0" y="0"/></g><g id="g9430" class="notch-labels-out-grid" transform="matrix(.01903 0 0 -.01903 463.988 175.849)"><use xlink:href="#STIXWEBMAIN-33" id="use9428" width="100%" height="100%" x="0" y="0"/></g><g id="g9434" class="notch-labels-out-grid" transform="matrix(.01903 0 0 -.01903 526.488 175.849)"><use xlink:href="#STIXWEBMAIN-34" id="use9432" width="100%" height="100%" x="0" y="0"/></g><g id="g9438" class="notch-labels-out-grid" transform="matrix(.01903 0 0 -.01903 260.25 31.428)"><use xlink:href="#STIXWEBMAIN-32" id="use9436" width="100%" height="100%" x="0" y="0"/></g><g id="ze_g-0" transform="translate(315.238 -7.353)"><path id="ze_path-9" d="M-33.636-17.956h-.711v-6.634h.71q.648 1.2 1.707 1.2 1.232 0 1.832-1.2.616-1.217.616-3.618 0-2.243-.98-3.254-.979-1.027-2.242-1.027-1.533 0-2.26 1.549-.363.805-1.01.805-.759 0-.759-.79 0-.869 1.248-1.564 1.248-.695 2.891-.695 2.622 0 4.076 1.722 1.469 1.722 1.469 4.17 0 2.101-1.248 3.476-1.232 1.358-3.017 1.358-1.39 0-2.322-.884zm-2.038 4.802q0-.695.49-1.184.505-.506 1.2-.506.71 0 1.2.506.506.49.506 1.184 0 .711-.505 1.201-.49.505-1.2.505-.712 0-1.201-.52-.49-.506-.49-1.186z" style="fill:#000"/></g></g><g id="g11344" transform="translate(-.352 530.958)"><path id="path10555" d="M31.25 220.697V0" class="grid-thin"/><path id="path10557" d="M93.75 220.697V0" class="grid-thin"/><path id="path10559" d="M156.25 220.697V0" class="grid-thin"/><path id="path10561" d="M218.75 220.697V0" class="grid-thin"/><path id="path10563" d="M281.25 220.697V0" class="grid-thin"/><path id="path10565" d="M343.75 220.697V0" class="grid-thin"/><path id="path10567" d="M406.25 220.697V0" class="grid-thin"/><path id="path10569" d="M468.75 220.697V0" class="grid-thin"/><path id="path10571" d="M531.25 220.697V0" class="grid-thin"/><path id="path10573" d="M0 212.5h562.5" class="grid-thin"/><path id="path10575" d="M0 150h562.5" class="grid-thin"/><path id="path10577" d="M0 87.5h562.5" class="grid-thin"/><path id="path10579" d="M0 25h256.972m16.081 0H562.5" class="grid-thin"/><path id="path10582" d="M0 212.5h570.697" class="axes"/><path id="path10584" d="M281.25 220.697V-8.197" class="axes"/><path id="path10587" d="M567.316 207.992c0 1.803 2.536 4.508 3.381 4.508-.845 0-3.381 2.705-3.381 4.508" class="axis-arrow"/><path id="path10589" d="M276.742-4.816c1.803 0 4.508-2.536 4.508-3.381 0 .845 2.705 3.381 4.508 3.381" class="axis-arrow"/><g id="g10594" class="axes-labels" transform="matrix(.01904 0 0 -.01904 582.992 217.01)"><use xlink:href="#STIXWEBMAINI-78" id="use10592" width="100%" height="100%" x="0" y="0"/></g><g id="g10615" clip-path="url(#trbl_clip_0_562.5_231.25_0)"><path id="path10597" d="M-31.25 212.5 153.643 27.607m5.214 182.286L341.143 27.607m5.214 182.286L528.643 27.607m5.214 182.286L718.75 25" class="graph-thin"/><circle id="circle10601" cx="156.25" cy="25" r="3.688" class="dots-open-thin"/><circle id="circle10603" cx="156.25" cy="212.5" r="3.688" class="dots-full-thin"/><circle id="circle10605" cx="343.75" cy="25" r="3.688" class="dots-open-thin"/><circle id="circle10607" cx="343.75" cy="212.5" r="3.688" class="dots-full-thin"/><circle id="circle10609" cx="531.25" cy="25" r="3.688" class="dots-open-thin"/><circle id="circle10611" cx="531.25" cy="212.5" r="3.688" class="dots-full-thin"/></g><g id="g10622" class="notch-labels-out-grid" transform="matrix(.01904 0 0 -.01904 19.959 238.358)"><use xlink:href="#STIXWEBMAIN-2212" id="use10618" width="100%" height="100%" x="0" y="0"/><use xlink:href="#STIXWEBMAIN-34" id="use10620" width="100%" height="100%" x="685" y="0"/></g><g id="g10628" class="notch-labels-out-grid" transform="matrix(.01904 0 0 -.01904 82.459 238.358)"><use xlink:href="#STIXWEBMAIN-2212" id="use10624" width="100%" height="100%" x="0" y="0"/><use xlink:href="#STIXWEBMAIN-33" id="use10626" width="100%" height="100%" x="685" y="0"/></g><g id="g10634" class="notch-labels-out-grid" transform="matrix(.01904 0 0 -.01904 144.959 238.358)"><use xlink:href="#STIXWEBMAIN-2212" id="use10630" width="100%" height="100%" x="0" y="0"/><use xlink:href="#STIXWEBMAIN-32" id="use10632" width="100%" height="100%" x="685" y="0"/></g><g id="g10640" class="notch-labels-out-grid" transform="matrix(.01904 0 0 -.01904 207.459 238.358)"><use xlink:href="#STIXWEBMAIN-2212" id="use10636" width="100%" height="100%" x="0" y="0"/><use xlink:href="#STIXWEBMAIN-31" id="use10638" width="100%" height="100%" x="685" y="0"/></g><g id="g10644" class="notch-labels-out-grid" transform="matrix(.01903 0 0 -.01903 276.488 238.349)"><use xlink:href="#STIXWEBMAIN-30" id="use10642" width="100%" height="100%" x="0" y="0"/></g><g id="g10648" class="notch-labels-out-grid" transform="matrix(.01903 0 0 -.01903 338.988 238.349)"><use xlink:href="#STIXWEBMAIN-31" id="use10646" width="100%" height="100%" x="0" y="0"/></g><g id="g10652" class="notch-labels-out-grid" transform="matrix(.01903 0 0 -.01903 401.488 238.349)"><use xlink:href="#STIXWEBMAIN-32" id="use10650" width="100%" height="100%" x="0" y="0"/></g><g id="g10656" class="notch-labels-out-grid" transform="matrix(.01903 0 0 -.01903 463.988 238.349)"><use xlink:href="#STIXWEBMAIN-33" id="use10654" width="100%" height="100%" x="0" y="0"/></g><g id="g10660" class="notch-labels-out-grid" transform="matrix(.01903 0 0 -.01903 526.488 238.349)"><use xlink:href="#STIXWEBMAIN-34" id="use10658" width="100%" height="100%" x="0" y="0"/></g><g id="g10664" class="notch-labels-out-grid" transform="matrix(.01903 0 0 -.01903 260.25 31.428)"><use xlink:href="#STIXWEBMAIN-33" id="use10662" width="100%" height="100%" x="0" y="0"/></g><g id="ze_g-9" transform="translate(315.238 -7.353)"><path id="ze_path-6" d="M-33.636-17.956h-.711v-6.634h.71q.648 1.2 1.707 1.2 1.232 0 1.832-1.2.616-1.217.616-3.618 0-2.243-.98-3.254-.979-1.027-2.242-1.027-1.533 0-2.26 1.549-.363.805-1.01.805-.759 0-.759-.79 0-.869 1.248-1.564 1.248-.695 2.891-.695 2.622 0 4.076 1.722 1.469 1.722 1.469 4.17 0 2.101-1.248 3.476-1.232 1.358-3.017 1.358-1.39 0-2.322-.884zm-2.038 4.802q0-.695.49-1.184.505-.506 1.2-.506.71 0 1.2.506.506.49.506 1.184 0 .711-.505 1.201-.49.505-1.2.505-.712 0-1.201-.52-.49-.506-.49-1.186z" style="fill:#000"/></g></g></g><g id="ze_g" transform="translate(315.238 -7.353)"><path id="ze_path" d="M-33.636-17.956h-.711v-6.634h.71q.648 1.2 1.707 1.2 1.232 0 1.832-1.2.616-1.217.616-3.618 0-2.243-.98-3.254-.979-1.027-2.242-1.027-1.533 0-2.26 1.549-.363.805-1.01.805-.759 0-.759-.79 0-.869 1.248-1.564 1.248-.695 2.891-.695 2.622 0 4.076 1.722 1.469 1.722 1.469 4.17 0 2.101-1.248 3.476-1.232 1.358-3.017 1.358-1.39 0-2.322-.884zm-2.038 4.802q0-.695.49-1.184.505-.506 1.2-.506.71 0 1.2.506.506.49.506 1.184 0 .711-.505 1.201-.49.505-1.2.505-.712 0-1.201-.52-.49-.506-.49-1.186z" style="fill:#000"/></g></svg>