<svg xmlns="http://www.w3.org/2000/svg" xmlns:xlink="http://www.w3.org/1999/xlink" width="800" height="582.018" preserveAspectRatio="none" viewBox="-148.646 -52.268 800 582.018"><style>.grid-thin{stroke:#9e9ed1;stroke-width:.3}.axes{stroke:#000;stroke-width:.9}.axis-arrow{stroke-width:1.2;stroke:#000;fill:none;stroke-linecap:round;stroke-linejoin:round}.axes-labels{stroke:none;fill:#000}.dots-open-thin{stroke-width:1.3;stroke:red;fill:none}.dots-full-thin{stroke-width:1.1;stroke:red;fill:red}.none{display:none}</style><defs><path id="STIXWEBNORMALI-1D465" stroke-width="1" d="m305 288 45 69c26 40 61 84 111 84 32 0 49-12 49-33 0-19-13-42-39-42-22 0-27 9-44 9-30 0-41-16-55-38l-55-85c30-62 53-197 98-197 16 0 40 14 61 57l14-10C478 87 433-9 375-9c-41 0-60 41-73 77l-40 113-63-98C167 34 138-9 82-9 46-9 30 16 30 38c0 16 13 37 38 37 26 0 22-20 47-20 12 0 38 10 70 59l65 101-33 92c-17 48-43 89-98 89-13 0-28-2-38-6l-3 18 132 33c44-24 63-65 75-98Z"/><path id="STIXWEBNORMALI-1D466" stroke-width="1" d="m270 307 28-235c61 83 96 143 118 184 20 37 28 57 28 75 0 21-52 31-52 69 0 22 18 40 47 40 32 0 57-23 57-62 0-78-162-318-204-371-73-92-138-190-206-190-37 0-56 31-56 55 0 30 27 41 40 41 43 0 41-31 57-31 17 0 74 62 100 102l-38 314c-5 45-14 105-70 105-11 0-27-3-36-4l-2 16 150 25c23-33 30-59 39-133Z"/><path id="STIXWEBMAIN-3D" stroke-width="1" d="M637 320H48v66h589v-66zm0-200H48v66h589v-66Z"/><path id="STIXWEBMAIN-230A" stroke-width="1" d="M447-213H188v926h66V-85c0-64 19-95 84-95h109v-33Z"/><path id="STIXWEBMAIN-230B" stroke-width="1" d="M286-213H27v33h109c65 0 84 31 84 95v798h66v-926Z"/><path id="STIXWEBMAIN-2212" stroke-width="1" d="M621 220H64v66h557v-66Z"/><path id="STIXWEBMAIN-33" stroke-width="1" d="m61 510-16 4c29 95 92 162 196 162 93 0 156-55 156-137 0-48-26-98-93-138 44-19 62-31 83-53 28-31 44-77 44-129 0-53-17-102-46-140-48-64-143-93-232-93C80-14 41 7 41 43c0 21 18 36 41 36 17 0 33-6 61-26 37-26 58-31 86-31 74 0 130 68 130 153 0 76-35 125-104 145-22 7-45 10-102 10v14c38 13 64 24 84 36 49 28 81 73 81 134 0 68-42 102-108 102-62 0-108-32-149-106Z"/><path id="STIXWEBMAIN-32" stroke-width="1" d="M474 137 420 0H29v12l178 189c94 99 130 175 130 260 0 91-54 141-139 141-72 0-107-32-147-130l-21 5c21 117 85 199 208 199 113 0 185-77 185-176 0-79-39-154-128-248L130 76h234c42 0 63 11 96 67Z"/><path id="STIXWEBMAIN-31" stroke-width="1" d="M394 0H118v15c74 4 95 25 95 80v449c0 34-9 49-30 49-10 0-27-5-45-12l-27-10v14l179 91 9-3V76c0-43 20-61 95-61V0Z"/><path id="STIXWEBMAIN-30" stroke-width="1" d="M476 330c0-172-63-344-226-344C79-14 24 172 24 336c0 177 69 340 230 340 131 0 222-141 222-346zm-96-5c0 208-44 325-132 325-83 0-128-118-128-321S164 12 250 12c85 0 130 115 130 313Z"/><path id="STIXWEBMAIN-34" stroke-width="1" d="M473 167H370V0h-78v167H12v64l314 445h44V231h103v-64zm-181 64v343L52 231h240Z"/><clipPath id="trbl_clip_0_472.5_519.75_0"><path d="M0 0h472.5v519.75H0Z"/></clipPath></defs><g id="grid"><path d="M33.75 519.75V260.33m0-22.632V0M101.25 519.75V260.33m0-22.632V0M168.75 519.75V260.33m0-22.632V0M236.25 519.75V0M303.75 519.75V260.318m0-22.62V0M371.25 519.75V260.318m0-22.62V0M438.75 519.75V260.318m0-22.62V0M0 499.5h198.91m29.142 0H472.5M0 432h198.91m29.142 0H472.5M0 364.5h198.91m29.142 0H472.5M0 297h472.5M0 229.5h472.5M0 162h211.972m16.08 0H472.5M0 94.5h211.972m16.08 0H472.5M0 27h211.972m16.08 0H472.5" class="grid-thin"/></g><g id="axes"><path d="M0 229.5h480.698M236.25 519.75V-8.198" class="axes"/></g><g id="axes arrows"><path d="M476.978 224.54c0 1.984 2.79 4.96 3.72 4.96-.93 0-3.72 2.976-3.72 4.96M231.29-4.478c1.984 0 4.96-2.79 4.96-3.72 0 .93 2.976 3.72 4.96 3.72" class="axis-arrow"/></g><g id="axes labels"><use xlink:href="#STIXWEBNORMALI-1D465" class="axes-labels" transform="matrix(.01905 0 0 -.01905 492.995 234.01)"/><g class="axes-labels" transform="matrix(.01904 0 0 -.01904 205.528 -28.693)"><use xlink:href="#STIXWEBNORMALI-1D466"/><use xlink:href="#STIXWEBMAIN-3D" x="774"/><use xlink:href="#STIXWEBMAIN-230A" x="1737"/><use xlink:href="#STIXWEBNORMALI-1D465" x="2207"/><use xlink:href="#STIXWEBMAIN-230B" x="2757"/></g></g><g id="graphs" clip-path="url(#trbl_clip_0_472.5_519.75_0)"><path d="M-33.75 499.5h63.517m7.966-67.5h59.535m7.965-67.5h59.535m7.964-67.5h59.536m7.964-67.5h59.535m7.966-67.5h59.534m7.966-67.5h59.534m7.966-67.5h63.517" style="stroke:red;stroke-width:1.2;fill:none"/><circle cx="33.75" cy="499.5" r="3.982" class="dots-open-thin"/><circle cx="33.75" cy="432" r="3.982" class="dots-full-thin"/><circle cx="101.25" cy="432" r="3.982" class="dots-open-thin"/><circle cx="101.25" cy="364.5" r="3.982" class="dots-full-thin"/><circle cx="168.75" cy="364.5" r="3.982" class="dots-open-thin"/><circle cx="168.75" cy="297" r="3.982" class="dots-full-thin"/><circle cx="236.25" cy="297" r="3.982" class="dots-open-thin"/><circle cx="236.25" cy="229.5" r="3.982" class="dots-full-thin"/><circle cx="303.75" cy="229.5" r="3.982" class="dots-open-thin"/><circle cx="303.75" cy="162" r="3.982" class="dots-full-thin"/><circle cx="371.25" cy="162" r="3.982" class="dots-open-thin"/><circle cx="371.25" cy="94.5" r="3.982" class="dots-full-thin"/><circle cx="438.75" cy="94.5" r="3.982" class="dots-open-thin"/><circle cx="438.75" cy="27" r="3.982" class="dots-full-thin"/></g><g id="notch labels" style="stroke:none;fill:#000"><g transform="matrix(.01904 0 0 -.01904 22.457 255.01)"><use xlink:href="#STIXWEBMAIN-2212"/><use xlink:href="#STIXWEBMAIN-33" x="685"/></g><g transform="matrix(.01904 0 0 -.01904 89.957 255.01)"><use xlink:href="#STIXWEBMAIN-2212"/><use xlink:href="#STIXWEBMAIN-32" x="685"/></g><g transform="matrix(.01904 0 0 -.01904 157.457 255.01)"><use xlink:href="#STIXWEBMAIN-2212"/><use xlink:href="#STIXWEBMAIN-31" x="685"/></g><use xlink:href="#STIXWEBMAIN-30" transform="matrix(.01903 0 0 -.01903 216.069 255)"/><use xlink:href="#STIXWEBMAIN-31" transform="matrix(.01903 0 0 -.01903 298.987 255)"/><use xlink:href="#STIXWEBMAIN-32" transform="matrix(.01903 0 0 -.01903 366.487 255)"/><use xlink:href="#STIXWEBMAIN-33" transform="matrix(.01903 0 0 -.01903 433.987 255)"/><use xlink:href="#STIXWEBMAIN-31" transform="matrix(.01903 0 0 -.01903 215.25 168.429)"/><use xlink:href="#STIXWEBMAIN-32" transform="matrix(.01903 0 0 -.01903 215.25 100.929)"/><use xlink:href="#STIXWEBMAIN-33" transform="matrix(.01903 0 0 -.01903 215.25 33.429)"/><g transform="matrix(.01904 0 0 -.01904 202.188 370.932)"><use xlink:href="#STIXWEBMAIN-2212"/><use xlink:href="#STIXWEBMAIN-32" x="685"/></g><g transform="matrix(.01904 0 0 -.01904 202.188 438.432)"><use xlink:href="#STIXWEBMAIN-2212"/><use xlink:href="#STIXWEBMAIN-33" x="685"/></g><g transform="matrix(.01904 0 0 -.01904 202.188 505.932)"><use xlink:href="#STIXWEBMAIN-2212"/><use xlink:href="#STIXWEBMAIN-34" x="685"/></g></g></svg>