<svg xmlns="http://www.w3.org/2000/svg" width="480" height="280" viewBox="0 0 127 74.083"><path d="M75.59 20.03c-.185.156-.338.315-.558.51-.364.463-.642.613-1.052 1.045-.77.76-1.545 1.58-2.32 2.265-.975 1.089-2.145 1.975-3.096 3.087-1.318 1.406-2.664 2.782-4.105 4.06a25.2 25.2 0 0 0-1.468 1.525" style="display:inline;fill:none;stroke:#00f;stroke-width:.396875;stroke-dasharray:none"/><path d="M65.704 25.004s.207-.447.33-.66c.081-.142.167-.283.27-.41.097-.121.189-.254.299-.363.07-.07.145-.147.24-.175a.18.18 0 0 1 .152.027c.066.05.113.125.131.206.045.198.028.398.02.601-.013.33-.073.719-.115 1.014-.035.25-.127.515-.051.756.004.013.011.03.024.03.02.003.034-.024.049-.039.119-.116.211-.258.323-.382.11-.123.225-.242.342-.358.165-.164.334-.324.505-.48.048-.044.147-.13.147-.13" style="display:inline;fill:none;stroke:#00f;stroke-width:.396875;stroke-dasharray:none;stroke-opacity:1"/><g style="display:inline"><path d="M79.167 30.762c.83 2.5.599 5.43-.086 7.86-1.048 3.724-4.276 6.692-7.548 8.441-4.024 2.15-9.1 2.21-13.538 1.169-4.36-1.023-7.742-3.387-10.22-7.255-2.177-3.399-2.942-8.35-2.3-12.05.813-4.685 3.998-9.238 8.809-11.532 6.246-2.979 12.375-2.768 17.505 1.09 2.802 2.109 6.01 5.419 7.114 9.722.178.696.526 1.766.489 2.483" style="fill:none;stroke:#00f;stroke-width:.396875;stroke-dasharray:none"/><path d="M17.665 59.793c.993-.045 1.986.053 2.98.045 1.465-.037 2.93-.066 4.395-.077 1.521.009 3.039.111 4.557.055 1.329-.052 2.66-.058 3.99-.058 1.661-.014 3.32.136 4.98.101 1.65-.034 3.301-.04 4.952-.025 1.65.015 3.298.011 4.947-.013 1.566-.022 3.133-.025 4.7-.02 1.312.01 2.622.065 3.934.058 1.229-.006 2.456.02 3.684-.01 1.336-.03 2.674-.012 4.011-.027 1.647-.054 3.294-.003 4.942.004 1.868-.008 3.735-.015 5.603-.012 1.494.002 2.987.012 4.48.023 1.462.01 2.923.022 4.384.033 1.512.01 3.024.018 4.535.057 1.41.035 2.82-.006 4.23.007 1.231.002 2.46.012 3.69.05 1.15.034 2.3-.01 3.45.002l1.759.015" style="fill:none;stroke:#000;stroke-width:.264583;stroke-dasharray:none"/><path d="M98.983 59.49c.532.054 1.065.104 1.596.165.575.082 1.153.164 1.718.298-.03-.055.255.093.25.077-.062-.17-.06-.125-.234-.075-.628.189-1.24.42-1.86.63-.313.097-.31.1-.61.182-.227.063-.15.058-.262.061M34.03 5.409a34.98 34.98 0 0 1-.026.906c-.044.903-.009 1.803-.093 2.703a50.867 50.867 0 0 0-.023 2.966l.02 2.845.022 2.984a7672.568 7672.568 0 0 0 .032 4.359c.006.775.012 1.55.013 2.326 0 .953-.005 1.906-.04 2.858-.04.972-.105 1.943-.073 2.916.007 1.087.013 2.174.006 3.261-.01 1.114-.035 2.226-.054 3.34.009.887.107 1.77.115 2.656l.022 2.97c.008 1.061.017 2.123.016 3.185a62.409 62.409 0 0 1-.06 2.895 50.365 50.365 0 0 0-.044 3.478c.01 1.307.02 2.613.022 3.92 0 1.421-.009 2.843-.05 4.265a90.427 90.427 0 0 0-.04 4.537l.029 3.937.016 2.363" style="fill:none;stroke:#000;stroke-width:.264583;stroke-dasharray:none"/><path d="M35.037 9.086a23.492 23.492 0 0 0-.328-1.374c-.213-.778-.455-1.547-.616-2.343-.017-.14-.026-.179-.026-.312 0-.06-.022-.21-.026-.213-.062-.277.086-.235.014-.06-.064.435-.202.985-.303 1.484-.132.682-.294 1.355-.416 2.04" style="fill:none;stroke:#000;stroke-width:.264583;stroke-dasharray:none"/><path d="M110.049-50.53c.036-.814-.083-1.621-.415-2.37-.107-.241-.239-.47-.358-.706-.88-1.546-2.079-2.89-3.455-4.013-.322-.262-.661-.503-.992-.754-1.337-.899-2.73-1.734-4.25-2.285-.931-.338-1.38-.416-2.346-.648-1.735-.332-3.515-.444-5.272-.215-1.038.135-1.577.3-2.574.55-1.454.425-2.86 1.078-4.049 2.031-.67.537-.853.791-1.431 1.429a11.258 11.258 0 0 0-2.286 5.016c-.07.391-.103.788-.154 1.182-.113 1.444-.1 2.908.193 4.332.186.905.32 1.205.622 2.08.726 1.756 1.735 3.416 3.112 4.74.283.273.594.515.892.773 1.342 1.055 2.891 1.778 4.511 2.295 1.014.324 1.5.408 2.525.636 1.477.308 2.989.426 4.493.287.98-.091 1.25-.18 2.208-.386a15.488 15.488 0 0 0 4.283-1.756c.83-.496 1.022-.67 1.79-1.24 1.167-.944 2.255-2.038 2.955-3.384.105-.202.186-.416.28-.624.472-1.173.608-2.424.57-3.677-.091-1.127-.503-2.17-.994-3.175" style="fill:none;stroke:#00f;stroke-width:.264583;stroke-dasharray:none"/><path d="M139.423-39.701c-.13-.237-.24-.482-.362-.723-.778-1.552-1.566-3.1-2.329-4.66-1.225-2.498-2.458-4.992-3.772-7.445-1.188-2.244-2.357-4.5-3.666-6.677a144.117 144.117 0 0 1-1.976-3.4" style="fill:none;stroke:red;stroke-width:.264583;stroke-dasharray:none"/><path d="M126.678-19.2c.103 1.273.214 2.547.337 3.82.055 1.003.25 1.991.368 2.987.011-.437-.053.33.427-.264.056-.068-.095-.15-.144-.223a28.3 28.3 0 0 0-1.15-1.589c-.965-1.187-1.913-2.39-2.73-3.684" style="fill:red;stroke:red;stroke-width:.0105833"/><path d="M87.186 35.955c1.072.719 2.212 1.323 3.362 1.906.649.352.528.275 1.092.619.102.062.203.125.303.19.066.042.117.129.195.129.543.003.042.085-.013-.179-.435-.713-.907-1.406-1.294-2.15a172.1 172.1 0 0 1-1.539-2.78" style="fill:none;stroke:red;stroke-width:.608542;stroke-dasharray:none"/><circle cx="108.3" cy="-51.395" r="13.126" style="fill:none;stroke:#f0f;stroke-width:.264583;stroke-dasharray:none"/><path d="M75.55-13.214c.129-.02.307-.166.498-.25.183-.114.378-.207.562-.319.383-.203.77-.4 1.155-.601.216-.11.434-.214.645-.33.014-.012.027-.025.042-.036.004-.003.01 0 .012-.004.067-.153.09-.041-.025-.165-.062-.055-.133-.082-.207-.127-.2-.054-.398-.12-.592-.194-.407-.15-.805-.323-1.2-.5-.251-.105-.506-.2-.755-.309" style="fill:none;stroke:#00f;stroke-width:.608542;stroke-dasharray:none"/><path d="M70.947-11.797c.384-.2.794-.39 1.223-.467.23-.054.464-.112.703-.118.036 0 .072.004.108.007.004 0 .015.006.012.004-.015-.013-.032-.023-.048-.034-.015.006-.035.006-.045.018-.032.037-.052.084-.079.125a3.418 3.418 0 0 1-.112.16c-.161.214-.344.413-.518.618-.27.3-.513.62-.775.927-.12.137-.248.268-.377.397-.167.18-.04.359.157.444.02.009.196-.02.213-.021.488-.111.99-.144 1.487-.195.207-.026.416-.036.625-.04l.209-.513a4.5 4.5 0 0 0-.66.03c-.506.051-1.018.076-1.515.183l-.1.024c-.021.005-.069-.007-.062.013.016.051.086.073.105.123.062.16-.034.28.037.2.133-.137.265-.276.388-.423.258-.31.506-.626.773-.927.23-.27.643-.7.751-1.04.023-.072.026-.15.039-.224-.03-.074-.04-.157-.087-.222-.207-.293-.84-.101-1.112-.055-.613.165-1.23.334-1.778.667z" style="fill:none;stroke:#00f;stroke-width:.396875"/><path d="M79.456 16.141c-.053.055-.107.108-.16.161-.402.397-.82.775-1.236 1.157-.34.347-.722.724-.994 1.035M94.676 36.366c.276-.34.578-.659.885-.972.369-.42.817-.762 1.196-1.17l.059-.102" style="fill:none;stroke:red;stroke-width:.396875"/><path d="M78.12 17.322c.408.346.698.67 1.11 1.01.49.378.828.773 1.26 1.214.416.464 1.077.97 1.499 1.43.415.435.826.874 1.23 1.318.468.499.926 1.005 1.401 1.496.552.541 1.106 1.08 1.65 1.627.506.5 1.015.998 1.503 1.516.479.523.986 1.02 1.49 1.517.462.434.902.89 1.352 1.335.377.367.737.75 1.07 1.158.338.439.796.842 1.178 1.243.332.359.733.725 1.024 1.119.315.427.85.79 1.201 1.188.2.245.41.483.604.733" style="fill:none;stroke:red;stroke-width:.396875"/><path d="M126.28-24.134c.301.038.567.19.807.37.09.088.183.186.231.306.03.076.013.104-.05.064-.027-.059-.167.06-.174.002-.005-.036.14-.027.104-.037-.052-.015-.107.017-.16.022-.124.011-.174.007-.297.004-.166-.006-.426-.06-.56.052-.178.15-.06.34.018.474.15.268.21.431.095.727-.082.11-.176.222-.31.274-.04.016-.108.065-.13.026-.02-.037.124-.015.114-.056-.011-.043-.088-.01-.132-.014-.222-.073-.446-.21-.53-.442-.046-.131-.036-.287-.037-.422a3.12 3.12 0 0 1 .074-.548l-.553-.03c-.038.21-.07.42-.07.634.01.237-.001.375.088.605.13.333.43.546.747.68.078.02.154.064.235.061.522-.021.84-.242 1.053-.698.017-.067.04-.133.051-.202.045-.297-.052-.58-.196-.836-.104-.174.012.056-.133.169-.07.054-.175.024-.261.041-.068.014.4-.044.208.01.358.024.601.009.962-.09a.6.6 0 0 0 .16-.07c.054-.033.097-.082.145-.123.028-.06.067-.114.082-.177.075-.298-.177-.57-.356-.769-.282-.229-.603-.421-.963-.496z" style="fill:red;stroke:none;stroke-width:.396875"/><path d="M75.437 21.049c.112-.275.17-.463.056-.767-.146-.347-.462-.49-.816-.528-.39-.015-.821.054-.927.654-.013.076-.012.154-.017.232.048.592.209.778.523 1.052.29.175.48.17.826-.01.152-.08.358-.313.399-.512zM62.941 32.568c.074.015.024 0-.117.054-.017.006.037-.001.053-.01.004-.001-.003-.006-.022-.022-.023-.02-.073-.12-.048-.139.097-.07.236-.065.126-.065l-.018-.005-.237.238c0 .03.05.072.076.088.03.008.103.03.134.025a.451.451 0 0 0 .225-.072.204.204 0 0 0 .064-.088c.035-.086.003-.16-.046-.23-.02-.016-.038-.035-.06-.048-.133-.077-.39.015-.39.123z" style="fill:#00f;stroke:#00f;stroke-width:.396875"/><path d="M126.439-37.666v-.662l-.001-1.195c-.014-.432.022-.863.048-1.294.034-.334.004-.668-.019-1a5.913 5.913 0 0 1 .01-.989c.022-.34.032-.68.037-1.02.004-.404.003-.807.003-1.21v-2.607c.003-.434-.043-.864-.034-1.298.012-.277.024-.555.03-.833.005-.292.005-.584.005-.876v-.164l-.552.043v.164c0 .29 0 .58-.006.868-.006.279-.02.557-.03.835-.005.436.039.869.036 1.304a62898.655 62898.655 0 0 1 0 2.607c0 .401 0 .803-.004 1.204-.005.334-.016.668-.039 1.001a6.523 6.523 0 0 0-.005 1.04c.022.317.049.633.016.95-.027.44-.06.878-.047 1.318v1.858z" style="fill:none;stroke:#00f;stroke-width:.396875"/><path d="M130.674-22.633c.301.038.567.191.806.37.09.089.184.187.232.306.03.077.012.104-.05.065-.027-.06-.167.06-.174.002-.005-.037.14-.027.104-.037-.052-.015-.107.016-.16.021-.125.012-.174.007-.298.005-.165-.007-.425-.06-.559.052-.178.15-.06.34.018.474.15.268.21.431.095.726-.082.111-.176.223-.31.275-.04.016-.108.065-.13.026-.02-.037.124-.016.113-.056-.01-.043-.087-.01-.131-.014-.222-.073-.446-.21-.53-.443-.047-.13-.036-.287-.037-.421.006-.185.036-.368.073-.549l-.553-.03c-.037.21-.069.42-.07.634.012.238 0 .376.09.605.13.334.428.547.745.68.079.02.155.065.236.062.522-.022.839-.243 1.053-.698.017-.068.04-.134.05-.203.045-.297-.051-.58-.195-.835-.105-.175.011.055-.134.168-.069.054-.174.025-.26.042-.068.013.4-.044.208.01.358.023.6.009.961-.09a.6.6 0 0 0 .161-.07c.054-.034.097-.082.145-.124.027-.059.066-.114.082-.177.075-.297-.177-.57-.356-.768-.282-.23-.603-.422-.963-.497z" style="fill:red;stroke:none;stroke-width:.396875"/><path d="M88.067 23.332a1.892 1.892 0 0 0-.065.378c-.01.139.011.365.076.519a.885.885 0 0 0 .283.346c.09.068.228.14.338.155a.93.93 0 0 0 .435-.035.595.595 0 0 0 .288-.235.72.72 0 0 0 .131-.345.717.717 0 0 0-.067-.327c-.052-.114-.14-.19-.213-.291-.023-.032-.086-.079-.07-.125.02-.058.11-.046.152-.043.143.013.26.022.402.01.12-.01.226-.026.34-.066a.388.388 0 0 0 .174-.127c.033-.048.049-.125.024-.175a1.028 1.028 0 0 0-.223-.311 1.32 1.32 0 0 0-.338-.225 2.12 2.12 0 0 0-.417-.137 1.582 1.582 0 0 0-.235-.026" style="fill:none;stroke:red;stroke-width:.396875;stroke-dasharray:none"/><path d="M71.485-36.088h14.129v3.016H71.485z" style="fill:#fff6d5;fill-opacity:1;stroke:#000;stroke-width:.211667;stroke-dasharray:none;stroke-opacity:1" transform="rotate(44.946)"/><path d="M74.619 20.877c.905.846 1.792 1.86 2.673 2.735 1.42 1.41 3.18 3.332 4.878 4.993 1.872 1.814 3.68 3.686 5.481 5.565 1.125 1.175 2.268 2.335 3.404 3.5.18.184.351.373.535.552" style="fill:none;stroke:red;stroke-width:.608542;stroke-dasharray:none"/><path d="m73.2 22.647 1.593 1.674 1.6-1.675" style="fill:none;stroke:#000;stroke-width:.396875;stroke-dasharray:none;stroke-opacity:1"/><path d="M143.996 87.03a9.15 9.15 0 0 1 .562-.656c.234-.283.52-.515.761-.791l.037-.068M143.324 87.541c-.175.23-.367.444-.562.656-.234.282-.52.515-.76.791l-.038.068M141.124 89.789c-.175.229-.367.444-.562.655-.234.283-.52.516-.76.792l-.038.067M137.57 93.456c.174-.23.366-.444.561-.656.234-.282.521-.515.762-.791l.036-.068M136.897 93.968a9.15 9.15 0 0 1-.561.655c-.234.283-.521.516-.761.792l-.037.068M134.697 96.215a9.15 9.15 0 0 1-.561.656c-.234.282-.521.515-.761.791l-.037.068" style="fill:none;stroke:red;stroke-width:.396875"/><g style="stroke-width:1.29585"><path d="M76.68 30.061c-.058.259-.105.52-.16.779-.05.24-.099.48-.145.72l-.128-.032.147-.72c.054-.26.1-.521.155-.78z" style="display:inline;fill:#000;fill-opacity:1;stroke:#000;stroke-width:.171431;stroke-linecap:butt;stroke-linejoin:miter;stroke-miterlimit:4;stroke-dasharray:none;stroke-dashoffset:0;stroke-opacity:1" transform="matrix(.76316 0 0 .78031 18 3.18)"/><path d="M76.153 31.533c.184-.056.372-.1.559-.149.265-.072.533-.136.8-.201.097-.023.054-.014.13-.029l.101.088c-.074.011-.032.004-.127.025-.268.064-.536.127-.8.2l-.122.032-.112.03c-.108.029-.218.05-.323.088l-.106-.084z" style="display:inline;fill:#000;fill-opacity:1;stroke:#000;stroke-width:.171431;stroke-linecap:butt;stroke-linejoin:miter;stroke-miterlimit:4;stroke-dasharray:none;stroke-dashoffset:0;stroke-opacity:1" transform="matrix(.76316 0 0 .78031 18 3.18)"/></g><g style="stroke-width:1.28831"><path d="M77.893 31.519c-.133.157-.287.295-.433.44-.12.118-.11.111-.219.23-.096.118-.052.062-.133.168l-.121-.055c.082-.108.037-.05.136-.171.109-.12.1-.114.22-.233.143-.142.294-.278.426-.432l.124.053z" style="display:inline;fill:#000;fill-opacity:1;stroke:#000;stroke-width:.170433;stroke-linecap:butt;stroke-linejoin:miter;stroke-miterlimit:4;stroke-dasharray:none;stroke-dashoffset:0;stroke-opacity:1" transform="matrix(.76859 0 0 .78391 17.786 3.378)"/><path d="M77.8 31.382c.165.136.328.274.492.413.154.132.308.264.451.408l-.131.02a7.79 7.79 0 0 0-.448-.404c-.165-.14-.333-.276-.497-.417l.132-.02zM77.472 31.862c.168.163.346.316.523.471l.062.055-.13.023-.062-.055c-.176-.156-.355-.31-.525-.474l.132-.02zM77.04 32.283c.213.18.428.358.637.543.102.091.204.184.302.28l-.131.02a7.558 7.558 0 0 0-.299-.277 18.39 18.39 0 0 0-.639-.537z" style="display:inline;fill:#000;fill-opacity:1;stroke:#000;stroke-width:.170433;stroke-linecap:butt;stroke-linejoin:miter;stroke-miterlimit:4;stroke-dasharray:none;stroke-dashoffset:0;stroke-opacity:1" transform="matrix(.76859 0 0 .78391 17.786 3.378)"/></g><path d="M80.23 34.144a.371.371 0 0 0-.162-.219c-.026-.017-.053-.03-.08-.046-.064-.03-.113-.056-.184-.068-.005-.001-.006.008-.011.009-.032.003-.065-.002-.097.001-.087.008-.098.017-.178.045-.095.047-.18.117-.198.228-.012.075 0 .102.016.176a.87.87 0 0 0 .256.392c.078.066.103.072.191.117.033.008.064.022.098.024.007 0 .006-.014.012-.016.033-.011.068-.01.1-.021a.62.62 0 0 0 .197-.115c.028-.024.05-.055.074-.082.017-.03.037-.06.05-.091a.446.446 0 0 0-.022-.36c-.012-.026-.028-.05-.042-.074-.05-.067-.024-.037-.074-.09l.11-.015c.05.06.025.027.074.1.037.07.054.093.074.172a.484.484 0 0 1-.017.304c-.014.035-.036.067-.054.1-.026.03-.05.064-.08.091a.713.713 0 0 1-.205.129c-.035.013-.07.029-.108.03-.135.003-.18-.02-.292-.056-.09-.051-.115-.059-.194-.13a.927.927 0 0 1-.258-.418c-.014-.083-.026-.113-.012-.196a.35.35 0 0 1 .139-.217c.024-.018.051-.032.077-.047.03-.012.058-.027.089-.036a.716.716 0 0 1 .2-.026.94.94 0 0 1 .376.112c.027.018.055.034.08.053a.451.451 0 0 1 .166.242l-.112-.002z" style="display:inline;fill:#000;fill-opacity:1;stroke:#000;stroke-width:.132292;stroke-linecap:butt;stroke-linejoin:miter;stroke-miterlimit:4;stroke-dasharray:none;stroke-dashoffset:0;stroke-opacity:1" transform="translate(-.225 -3.592)"/><g style="stroke-width:1.30121"><path d="M79.08 32.453c-.1.121-.211.231-.32.345l-.256.274c-.147.158-.227.231-.377.386-.037.04-.018.023-.13-.052.115-.1.158-.14.39-.392l.256-.275c.105-.112.215-.22.313-.34z" style="display:inline;fill:#000;fill-opacity:1;stroke:#000;stroke-width:.17214;stroke-miterlimit:4;stroke-dasharray:none;stroke-opacity:1" transform="matrix(.75493 0 0 .78234 19.023 3.645)"/><path d="M78.779 33.961a17.17 17.17 0 0 0-.638-.583l-.132.028c.222.182.432.38.64.578.04.04.083.078.125.116l.135-.019c-.048-.04-.093-.084-.13-.12z" style="display:inline;fill:#000;fill-opacity:1;stroke:#000;stroke-width:.17214;stroke-miterlimit:4;stroke-dasharray:none;stroke-opacity:1" transform="matrix(.75493 0 0 .78234 19.023 3.645)"/></g><path d="M81.363 35.27c.105-.018-.133-.155-.173-.17a.84.84 0 0 0-.142-.031.592.592 0 0 0-.354.07c-.032.018-.057.046-.086.07-.017.03-.04.058-.051.091-.054.166.04.346.135.475.026.035.065.079.097.11a.47.47 0 0 0 .146.106l.006.072c-.061-.012-.076-.023-.118-.05a.861.861 0 0 1-.136-.116c-.03-.034-.071-.076-.097-.113-.103-.147-.191-.336-.13-.52a.337.337 0 0 1 .15-.185.535.535 0 0 1 .116-.054c.187-.063.353-.035.533.037a.974.974 0 0 1 .21.176c.03.047-.008.087-.05.095z" style="display:inline;fill:#000;fill-opacity:1;stroke:#000;stroke-width:.132292;stroke-miterlimit:4;stroke-dasharray:none;stroke-opacity:1" transform="translate(-.225 -3.592)"/><g style="stroke-width:1.2871"><path d="M81.943 35.46c.266.25.53.502.783.765l.033.037-.133.019-.032-.036c-.25-.265-.516-.515-.784-.762z" style="display:inline;fill:#000;fill-opacity:1;stroke:#000;stroke-width:.170273;stroke-miterlimit:4;stroke-dasharray:none;stroke-opacity:1" transform="matrix(.76945 0 0 .7845 18.65 4.247)"/><path d="M82.32 35.934c-.212.246-.422.493-.636.737a9.46 9.46 0 0 1-.228.249l-.12-.06c.083-.083.162-.172.23-.245.213-.243.423-.489.63-.737z" style="display:inline;fill:#000;fill-opacity:1;stroke:#000;stroke-width:.170273;stroke-miterlimit:4;stroke-dasharray:none;stroke-opacity:1" transform="matrix(.76945 0 0 .7845 18.65 4.247)"/><path d="M81.116 36.337c.148.154.307.297.462.445.09.086.165.164.253.251.078.082.158.163.247.233l-.132.026a4.516 4.516 0 0 1-.245-.238c-.236-.236-.481-.461-.718-.695z" style="display:inline;fill:#000;fill-opacity:1;stroke:#000;stroke-width:.170273;stroke-miterlimit:4;stroke-dasharray:none;stroke-opacity:1" transform="matrix(.76945 0 0 .7845 18.65 4.247)"/></g><g style="stroke-width:1.29315"><path d="M83.01 36.51c.269.264.602.603.864.874l.087.09-.131.02-.086-.09a31.58 31.58 0 0 0-.868-.872z" style="display:inline;fill:#000;fill-opacity:1;stroke:#000;stroke-width:.171073;stroke-miterlimit:4;stroke-dasharray:none;stroke-opacity:1" transform="matrix(.76856 0 0 .77808 19.04 4.671)"/><path d="m83.504 37.023-.037.045c-.087.095-.182.183-.274.273-.165.162-.095.092-.258.26a4.825 4.825 0 0 0-.214.238.652.652 0 0 0-.09.125l-.122-.064c.024-.042.06-.08.091-.118a5.25 5.25 0 0 1 .217-.239c.167-.173.09-.095.258-.262.09-.09.184-.176.27-.269l.035-.043z" style="display:inline;fill:#000;fill-opacity:1;stroke:#000;stroke-width:.171073;stroke-miterlimit:4;stroke-dasharray:none;stroke-opacity:1" transform="matrix(.76856 0 0 .77808 19.04 4.671)"/></g><g style="stroke-width:1.28665"><path d="M84.253 37.645a.961.961 0 0 0-.34.37c-.025.049-.039.102-.057.153-.005.053-.018.105-.015.158.01.174.079.255.226.345.019.012.06.02.079.023a.715.715 0 0 0 .331-.068c.1-.043.21-.118.263-.216.007-.01.008-.024.011-.037l.13.037c-.007.018-.01.038-.017.052a.628.628 0 0 1-.282.244.866.866 0 0 1-.174.063.674.674 0 0 1-.183.021.61.61 0 0 1-.398-.178.485.485 0 0 1-.115-.311c-.003-.057.011-.114.017-.17.02-.056.035-.113.06-.165.07-.14.193-.284.32-.376l.028-.015z" style="fill:#000;fill-opacity:1;stroke:#000;stroke-width:.170213;stroke-miterlimit:4;stroke-dasharray:none;stroke-opacity:1" transform="matrix(.7754 0 0 .77902 18.69 4.874)"/><path d="M84.026 38.652c-.117.116-.237.233-.325.374-.007.014-.009.019-.009.026l-.134-.022a.158.158 0 0 1 .018-.054c.089-.145.211-.264.33-.385z" style="fill:#000;fill-opacity:1;stroke:#000;stroke-width:.170213;stroke-miterlimit:4;stroke-dasharray:none;stroke-opacity:1" transform="matrix(.7754 0 0 .77902 18.69 4.874)"/></g><path d="M78.689 21.6a34.6 34.6 0 0 1-.49-.605 16.143 16.143 0 0 0-1.448-1.615c-.548-.534-1.405-1.22-1.935-1.612a7.496 7.496 0 0 0-.603-.397" style="fill:none;fill-opacity:1;stroke:#00f;stroke-width:.396875;stroke-dasharray:none;stroke-opacity:1"/><path d="M76.795 20.536c.072.078.08.086.1.098.315.261.64.514.992.723.154.09.308.177.469.253.016.008.175.086.201.076.111-.043.17-.05.181-.122.004-.036.012-.072.012-.108a.824.824 0 0 0-.048-.19c-.062-.183-.136-.362-.204-.543-.129-.315-.264-.626-.392-.94" style="fill:none;fill-opacity:1;stroke:#00f;stroke-width:.396875;stroke-dasharray:none;stroke-opacity:1"/><g style="display:inline"><path d="M55.189 53.13a2.21 2.21 0 0 0-.458.381c-.042.047-.08.097-.119.146-.132.189-.234.406-.191.642.022.122.054.16.112.264a.978.978 0 0 0 .392.334c.034.014.018.008.047.018l.045-.065v0c-.025-.007-.011-.003-.041-.014a.896.896 0 0 1-.372-.306c-.054-.095-.084-.13-.105-.24-.042-.223.06-.426.185-.602.04-.047.076-.096.117-.14a2.01 2.01 0 0 1 .449-.366zM55.976 53.627c-.143-.053-.302.007-.435.063a.555.555 0 0 0-.3.35c-.007.029-.007.058-.011.087.003.029.004.058.01.086.031.127.126.215.24.27.033.015.068.025.101.038.173.053.356.06.532.021.042-.01.083-.022.124-.034.18-.074.242-.16.281-.346a.48.48 0 0 0-.1-.355c-.017-.02-.036-.037-.054-.056a.793.793 0 0 0-.38-.162c-.085.004-.037-.003-.142.028l.056.056v0c.014-.019.002-.006.05-.013a.723.723 0 0 1 .351.137c.017.016.034.031.05.049a.406.406 0 0 1 .09.31c-.036.165-.095.235-.255.294a.96.96 0 0 1-.556.008c-.137-.049-.27-.103-.31-.258-.006-.024-.006-.048-.01-.072.004-.025.004-.05.01-.075.036-.144.153-.246.281-.309.101-.04.215-.087.325-.057zM57.023 54.485a1.492 1.492 0 0 1-.296.352c-.063.054-.033.03-.09.07l.065.044v0c.06-.045.029-.02.094-.076.117-.11.227-.23.304-.371zM58.302 53.548a1 1 0 0 0-.409.146c-.027.018-.052.039-.078.058-.095.091-.193.202-.212.338-.004.025-.002.05-.003.075a.445.445 0 0 0 .212.35c.03.018.063.03.094.045.162.051.341.092.512.06.043-.008.084-.022.126-.033a.613.613 0 0 0 .315-.312c.01-.026.014-.053.02-.08a.54.54 0 0 0-.082-.37c-.016-.024-.037-.045-.056-.067-.136-.12-.303-.2-.473-.263l-.046.064v0c.162.056.32.134.453.243.017.019.036.036.05.056.07.095.088.215.076.33-.006.022-.01.045-.018.066a.538.538 0 0 1-.292.275c-.174.057-.363.021-.535-.03-.028-.012-.059-.022-.086-.037a.373.373 0 0 1-.19-.302c0-.02-.002-.042.001-.062.019-.124.113-.222.2-.303a.873.873 0 0 1 .397-.172zM59.091 53.082c.177.117.3.293.412.47.102.184.21.382.222.597.003.036-.002.071-.003.107-.025.175-.135.3-.263.411l-.038.035.069.039v0l.038-.035c.14-.128.247-.26.273-.455 0-.039.004-.077.002-.116-.015-.223-.124-.428-.23-.62-.117-.182-.243-.364-.425-.488z" style="fill:#fff6d5;fill-opacity:1;stroke:#000;stroke-width:.211667;stroke-linecap:square;stroke-dasharray:none;stroke-opacity:1" transform="translate(-27.344 7.87)"/></g></g></svg>