<svg xmlns="http://www.w3.org/2000/svg" xmlns:xlink="http://www.w3.org/1999/xlink" id="svg2634" width="1030" height="535" preserveAspectRatio="none" version="1.1" viewBox="-65 -47.463 1030 535"><style id="style2422" type="text/css">.grid{stroke:#9e9ed1;stroke-width:.4}.axes{stroke:#000;stroke-width:.9}.axes-arrows{stroke-width:1.1;stroke:#000;fill:none;stroke-linecap:round;stroke-linejoin:round}.axes-labels{stroke:none;fill:#000}.none{display:none}</style><defs id="defs2437"><path id="STIXWEBNORMALI-1D461" stroke-width="1" d="m283 438-10-38h-70L125 80c-1-3-2-8-2-11 0-6 3-12 16-12 0 0 23 2 60 52l13-11C188 67 138-9 79-9 48-9 40 16 40 43c0 13 2 26 5 37l81 320H49l5 29c75 14 136 51 177 138h13l-31-129Z"/><path id="STIXWEBMAIN-5B" stroke-width="1" d="M299-156H88v818h211v-25h-83c-34 0-52-12-52-48V-77c0-40 19-54 52-54h83z"/><path id="STIXWEBMAIN-5D" stroke-width="1" d="M245-156H34v25h88c35 0 47 15 47 46v668c0 35-13 54-51 54H34v25h211z"/><path id="STIXWEBMAIN-2F" stroke-width="1" d="M287 676 59-14H-9l229 690z"/><path id="STIXWEBMAIN-32" stroke-width="1" d="M474 137 420 0H29v12l178 189c94 99 130 175 130 260 0 91-54 141-139 141-72 0-107-32-147-130l-21 5c21 117 85 199 208 199 113 0 185-77 185-176 0-79-39-154-128-248L130 76h234c42 0 63 11 96 67z"/><path id="STIXWEBMAIN-30" stroke-width="1" d="M476 330c0-172-63-344-226-344C79-14 24 172 24 336c0 177 69 340 230 340 131 0 222-141 222-346Zm-96-5c0 208-44 325-132 325-83 0-128-118-128-321S164 12 250 12c85 0 130 115 130 313z"/><path id="STIXWEBMAIN-35" stroke-width="1" d="m438 681-36-85c-3-7-11-13-27-13H181l-40-85c143-27 193-49 250-128 26-36 35-74 35-127 0-96-30-158-98-208-47-34-102-49-170-49C83-14 31 10 31 48c0 25 17 38 45 38 23 0 42-5 74-31 28-23 51-32 71-32 70 0 135 83 135 169 0 64-22 114-67 150-47 38-117 70-213 70-9 0-12 2-12 8 0 2 1 5 1 5l109 237h207c23 0 32 5 48 26z"/><path id="STIXWEBMAIN-33" stroke-width="1" d="m61 510-16 4c29 95 92 162 196 162 93 0 156-55 156-137 0-48-26-98-93-138 44-19 62-31 83-53 28-31 44-77 44-129 0-53-17-102-46-140-48-64-143-93-232-93C80-14 41 7 41 43c0 21 18 36 41 36 17 0 33-6 61-26 37-26 58-31 86-31 74 0 130 68 130 153 0 76-35 125-104 145-22 7-45 10-102 10v14c38 13 64 24 84 36 49 28 81 73 81 134 0 68-42 102-108 102-62 0-108-32-149-106z"/><path id="STIXWEBMAIN-34" stroke-width="1" d="M473 167H370V0h-78v167H12v64l314 445h44V231h103Zm-181 64v343L52 231Z"/><path id="STIXWEBMAIN-2212" stroke-width="1" d="M621 220H64v66h557z"/><path id="STIXWEBMAIN-38" stroke-width="1" d="M445 155c0-103-77-169-197-169C135-14 56 55 56 149c0 69 23 108 130 183C83 417 62 455 62 520c0 96 83 156 194 156 99 0 168-65 168-143 0-75-35-109-134-162 123-82 155-136 155-216Zm-90 378c0 69-41 115-109 115-67 0-110-37-110-99s37-108 125-160c68 40 94 82 94 144zm-84-261-59 40c-59-48-80-89-80-154 0-92 51-144 127-144 65 0 110 45 110 110 0 62-30 102-98 148z"/><path id="STIXWEBMAIN-37" stroke-width="1" d="M449 646 237-8h-65l198 596H155c-58 0-75-14-117-82l-18 9 60 147h369z"/><path id="STIXWEBMAIN-36" stroke-width="1" d="m446 684 2-16c-157-26-269-134-296-285 49 38 83 45 127 45 117 0 189-80 189-209 0-64-18-120-51-160-37-46-93-73-159-73-79 0-142 37-177 101-28 51-47 122-47 192 0 108 38 203 109 276 86 90 165 114 303 129zm-68-496c0 128-42 194-135 194-57 0-116-24-116-116 0-152 48-252 142-252 72 0 109 72 109 174z"/></defs><g id="grid"><path id="path2439" d="M-6.198 476V0" class="grid"/><path id="path2441" d="M33.802 476V260.76m0-17.841V0" class="grid"/><path id="path2443" d="M73.802 476V0" class="grid"/><path id="path2445" d="M113.802 476V0" class="grid"/><path id="path2447" d="M153.802 476V0" class="grid"/><path id="path2449" d="M193.802 476V0" class="grid"/><path id="path2451" d="M233.802 476V261.612m0-18.693V0" class="grid"/><path id="path2453" d="M273.802 476V0" class="grid"/><path id="path2455" d="M313.802 476V0" class="grid"/><path id="path2457" d="M353.802 476V0" class="grid"/><path id="path2459" d="M393.802 476V0" class="grid"/><path id="path2461" d="M433.802 476V260.76m0-17.841V0" class="grid"/><path id="path2463" d="M473.802 476V0" class="grid"/><path id="path2465" d="M513.802 476V0" class="grid"/><path id="path2467" d="M553.802 476V0" class="grid"/><path id="path2469" d="M593.802 476V0" class="grid"/><path id="path2471" d="M633.802 476V261.612m0-18.693V0" class="grid"/><path id="path2473" d="M673.802 476V0" class="grid"/><path id="path2475" d="M713.802 476V0" class="grid"/><path id="path2477" d="M753.802 476V0" class="grid"/><path id="path2479" d="M793.802 476V0" class="grid"/><path id="path2481" d="M833.802 476V260.76m0-17.841V0" class="grid"/><path id="path2483" d="M873.802 476V0" class="grid"/><path id="path2485" d="M-26.198 462h29.49m24.772 0h865.738" class="grid"/><path id="path2487" d="M-26.198 434h29.49m24.772 0h865.738" class="grid"/><path id="path2489" d="M-26.198 406H3.29m24.774 0h865.738" class="grid"/><path id="path2491" d="M-26.198 378h920" class="grid"/><path id="path2493" d="M-26.198 350h920" class="grid"/><path id="path2495" d="M-26.198 322h920" class="grid"/><path id="path2497" d="M-26.198 294h920" class="grid"/><path id="path2499" d="M-26.198 266h920" class="grid"/><path id="path2501" d="M-26.198 238h920" class="grid"/><path id="path2503" d="M-26.198 210h920" class="grid"/><path id="path2505" d="M-26.198 182h920" class="grid"/><path id="path2507" d="M-26.198 154h920" class="grid"/><path id="path2509" d="M-26.198 126h920" class="grid"/><path id="path2511" d="M-26.198 98h920" class="grid"/><path id="path2513" d="M-26.198 70h40.591m13.67 0h865.74" class="grid"/><path id="path2515" d="M-26.198 42h40.594m13.668 0h865.738" class="grid"/><path id="path2517" d="M-26.198 14h40.594m13.668 0h865.738" class="grid"/></g><g id="axes"><path id="path2520" d="M-26.198 238H901.18" class="axes"/><path id="path2522" d="M33.802 476V260.76m0-17.841V-6.558" class="axes"/></g><g id="axes arrows"><path id="path2525" d="M897.245 233.081c0 1.968 2.951 4.919 3.935 4.919-.984 0-3.935 2.951-3.935 4.919" class="axes-arrows"/><path id="path2527" d="M28.883-2.623c1.968 0 4.92-2.952 4.92-3.935 0 .983 2.95 3.935 4.918 3.935" class="axes-arrows"/></g><g id="axes labels"><g id="g2540" class="axes-labels" transform="matrix(.01904 0 0 -.01904 917.576 242.509)"><use xlink:href="#STIXWEBNORMALI-1D461" id="use2530" x="0" y="0"/><use xlink:href="#STIXWEBMAIN-5B" id="use2532" x="646" y="0"/><g id="g2536" transform="translate(980)"><text id="text2534" stroke="none" direction="ltr" style="font-size:20.5px;font-family:baskerville" transform="scale(52.507 -52.507)">s</text></g><use xlink:href="#STIXWEBMAIN-5D" id="use2538" x="1339" y="0"/></g><g id="g2556" class="axes-labels" transform="matrix(.01904 0 0 -.01904 17.196 -24.594)"><use xlink:href="#STIXWEBMAIN-5B" id="use2542" x="0" y="0"/><g id="g2546" transform="translate(333)"><text id="text2544" stroke="none" direction="ltr" style="font-size:20.5px;font-family:baskerville" transform="scale(52.507 -52.507)">c</text></g><use xlink:href="#STIXWEBMAIN-2F" id="use2548" x="833" y="0"/><g id="g2552" transform="translate(1112)"><text id="text2550" stroke="none" direction="ltr" style="font-size:20.5px;font-family:baskerville" transform="scale(52.507 -52.507)">s</text></g><use xlink:href="#STIXWEBMAIN-5D" id="use2554" x="1471" y="0"/></g></g><g id="graphs" style="display:inline"><path id="path1053382" d="M-26.428 237.844h152.6l.88-193.99.516 5.4 1.94-2.524 1.98 2.982 1.704-4.317 2.176 5.656 1.744-8.302 1.98 6.524 1.664-3.402 2.216-1.456.2 193.43.4-1.084.796-2.615 1.836-5.95 1.716-6.799 2.236-4.922 1.756-12.337 1.912-1.364 1.996-16.2 1.956-1.137 1.796-8.672 1.916-3.67 1.992-12.825 1.836 2.14 1.996-7.527 1.836-14.392 1.996-.201 1.756-7.726 1.992-10.645 1.916.19 1.916-9.136 1.996-1.423 1.756-10.404 2.112 2.982 1.916-13.365 1.796 3.229 2.076-13.166 1.676 1.238 2.036-.008L196 78.119l1.756-11.231 2.116 1.36 1.836-1.245 1.756-2.061 1.956-8.184 2.112 4.317.52-8.727.2 185.497h.64l.48-184.93 1.32 1.085 1.916-2.4 2.196-.902 1.72-5.378 1.996 5.101 2.036-6.77 1.92 4.121 1.2 2.232.556-7.092 1.96 7.246 2.036-4.334 1.916.246 1.68.602 2.036 2.878 1.76-4.958 1.916 2.654 2.116 2.674 1.84-5.662 1.956-.394 1.76 2.956 2.116 3.85 1.84-.28 1.996-7.336 1.876 6.233 1.8-6.468 2.156 5.15.52 1.363.64-2.408.676 2.906 1.8-6.406 1.876 3.254 2.12 4.062 1.836-3.057 1.76 6.885 1.956-5.622 2.116 10.886 1.84-2.92 1.716 3.707 2.236 1.62 1.72 6.259 2.116-2.993 1.68 7.756 1.916.397 2.076 9.025 1.88 1.002 1.956 6.995 1.92-1.792 1.796 9.634 1.956 2.868 2 6.571 1.716 1.669 2.2 11.88 1.756 3.313 1.956.462 1.76 11.245 2.196 4.342 1.72 11.007 1.996 1.17 2.036 11.338 1.68 1.671 2.116 13.32 1.64-1.613 2.236 13.07 1.916 2.378 1.64 12.818 2.036 1.588 1.76 11.22 2.236 7.067 1.836 4.13 1.24 5.72.2 2.089.556-187.52 1.308-5.803 1.98 3.362 1.704-4.57 2.1 5.262 1.824-3.592 1.744-.054 1.94 6.233 1.984-6.58 1.94 6.253.2 187.009 40.524.155.6 1.268.68 2.1 1.996 3.503 1.716 4.76 1.956 4.701 2 9.347 1.996 2.937 1.716 4.315 1.996 8.058 1.92 2.386 1.756 11.306 2.156-3.125 1.92 11.298 1.836 2.252 1.716 4.244 2.116 2.467 1.88 11.253 2.076.762 1.916 10.693 1.64 5.373 2.196-.436 1.796 1.31 1.996 10.573 1.68-1.638 2.196 8.66 1.796 1.23 1.96 11.082 1.996-3.38 1.716 7.227 1.956 1.193 1.96 3.483 1.756 6.709 1.996.588 2.076 9.125 1.68-2.21 1.876 8.527 1.996-4.088 2 8.585 1.956-1.235 1.796 7.414 1.956-1.845 2.08 4.43 1.836-3.825 1.996 8.59 1.72-.445 2.116 4.108 1.836-2.72 1.996 4.377 1.96-.84 1.716 5.421 1.956-5.216 2-.406 1.996 3.116 1.916 1.084 1.596.263 2.24 1.498 1.236-.448.4 3.094.2-192.853h22.997l.68-193.947 2.064 4.39 1.624-1.372 2.184 6.283 1.944-7.389 1.704 2.593 1.944 6.818 1.984-6.196 1.984-.342 1.704 1.854 1.944 5.54.2 181.768h1.8l.84 178.428 1.712 1.61 2.068 8.058 1.868-5.06 1.952 1.193 1.988.524 1.712 1.531 1.948 5.38 1.992-3.12 1.988 4.45 1.272-7.502.44 9.24 2.068-6.244 1.672-1.831 2.068 8.652 1.908-9.47 1.872 3.038 1.312 4.965.4-193.842.4-189.946 1.34 3.755 1.928-3.405 1.888-4.29 1.732 6.104 1.968-6.75 1.064 6.73.2 187.802h59.34l.756 189.403 1.12 1.092 1.952-4.376 1.716 4.555.581-.44 1.596 1.384 1.952-4.189 1.876 3.142 2.232 1.71 1.756-4.653 2.036 3.324 1.956-1.386 1.632-.216 1.956 5.236 2.116-5.695 1.596 3.956 2.232-3.259 1.756 3.954 1.316 1.013.916-8.156 1.796 6.412 1.596-4.995 2.196 3.67 1.912-7.512 1.756.717 2.156-6.023 1.516-.736 2.272-11.508 1.636.644 2.192-3.052 1.956-8.834 1.716-11.069 1.316 2.075.2-146.188h1.84l.48-147.664.988 1.132 1.62-11.716 2.176 2.22 1.58-11.826 1.86-2.142 1.976-2.7 1.976-5.558 1.384-4.7.2 182.954h1.4l1.2 180.32.28-1.803 2.272-.689 1.512-10.52 2.232-5.546 1.792.109 1.872-12.306 2.072.638 1.596-11.455 2.312-.602 1.592-14.095 2.152-6.636 1.596-13.963 1.952-1.857 2.312-14.87 1.552-5.783 2.152-10.096 1.632-11.032 1.956-7.504 2.188-9.543 1.876-15.355 1.632-9.363 1.912-11.657 1.356-6.244.2-.148.752-190.434 1.228 3.402 2.016-7.204 1.86 4.648 1.704-4.796 2.096 6.88 1.584-5.682 1.94 5.28 1.9-1.822.2 189.728h18.184l.72-191.61.28-2.67.2 194.28h35.59l.996-3.562.32-7.952 2.152-22.68 1.836-19.048 2.036-17.464 1.956-23.62 1.672-14.706 2.076-23.834 1.596-7.618 2.236-18.45 1.712-6.683 2.156-12.614 1.596-10.019 1.916-.044 2.152-.68.52-3.93.2 192.904h31.282" style="fill:none;stroke:red;stroke-width:1.5"/><path id="path1053388" d="M-26.198 238s143.297-.156 169.17-.156h.2l.4-191.489.796-3.402 1.836 3.436 1.716 1.38 2.236-.199 1.756-4.121 1.912 10.657 1.996-5.914 1.956 8.05 1.796-3.256 1.916 7.372 1.992-4.194 1.836 9.8 1.996 1.985 1.836 1.599 1.996 8.299 1.756 1.898 1.992-1.747 1.916 13.087 1.916-2.388 1.996 7.764 1.756-.554 2.112 11.477 1.916 2.904 1.796 7.207 2.076 1.907 1.676 13.176 2.036 2.268 1.912 7.96 1.756-1.12 2.116 13.827 1.836 7.434 1.756 5.116 1.956 2.318 2.112 13.804.52-2.45.2 56.11h.64l.48-55.508 1.32 9.657 1.916 3.24 2.196 11.001 1.72 1.854 1.996 10.97 2.036 4.318 1.92 9.69 1.2 4.318.556.46H257.512l.64 2.253.676 1.692 1.8 8.478 1.876 8.616 2.12 4.27 1.836 10.805 1.76.63 1.956 13.065 2.116.344 1.84 14.44 1.716-.9 2.236 12.298 1.72.863 2.116 11.497 1.68 3.438 1.916 13.89 2.076.11 1.88 11.805 1.956.47 1.92 9.324 1.796 1.955 1.956 10.043 2-1.137 1.716 11.122 2.2-2.024 1.756 4.155 1.956 9.063 1.76-2.438 2.196 10.402 1.72.274 1.996 5.337 2.036-1.428 1.68 10.654 2.116-3.01 1.64 5.54 2.236-.181 1.916 4.71 1.64-4.87 2.036 7.446 1.76-2.842 2.236-1.263 1.836 5.734 1.24-5.558.2-189.073H354.252" style="fill:none;stroke:#00d070;stroke-width:1.5"/><path id="path1301" d="m355.002 238 1 188.513 1.04 4.205 2.156-7.282 1.68 6.442 2.196-6.118 1.64 1.272 2.156 4.99 1.716-6.136 2.2 1.773 1.836 6.63 1.6-1.123 2.316.762 1.68-8.036L378.49 238h1.554l.719 184.756 2.08 2.803 2.036 6.588 1.756-9.433 2.04 9.229.68-5.178.838-1.285.119-187.48h4.464l.6 192.058.68 1.458 1.996-7.392 1.716-1.355 1.956 1.588 2 2.072 1.996-2.848 1.716-4.933 1.996 6.056 1.92-4.766 1.756 3.626 2.156-6.02 1.92 4.122 1.836-6.768 1.716-5.451 2.116-1.882 1.88 2.159 2.076-6.443 1.916 4.197 1.64-2.102 2.196-9.1 1.796-2.57 1.996 3.804 1.68-12.429 2.196 1.565 1.796-4.244 1.96-1.574 1.996-6.927 1.716 2.75 1.956-10.35 1.96-5.622 1.756.415 1.996-9.484 2.076 2.01 1.68-6.011 1.876-2.005 1.996-9.876 2 2.532 1.956-9.025 1.796.443 1.956-11.783 2.08-2.145 1.836-8.05 1.996 1.244 1.72-12.393 2.116 2.231 1.836-10.354 1.996.367 1.96-10.996 1.716-1.131 1.956-9.758 2-3.091 1.996-7.871 1.916-3.744 1.596-4.684 2.24-4.85 1.236-3.477.4-1.193h23.197l.68-1.895 2.064-4.956 1.624-7.275 2.184-1.834 1.944-7.775 1.704-8.493 1.944 3.038 1.984-12.258 1.984-7.333 1.704-4.791 1.944-1.364.2 54.936h1.8l.84 52.579 1.712-3.915 2.068-3.1 1.868-12.532 1.952-.468 1.988-5.628 1.712-6.26 1.948-2.414 1.992-8.935 1.988-3.127 1.272-4.685.44-1.515h47.88l.64-188.521 2.148-8.851 1.752 6.852 1.752-6.953 1.912 1.68 2.268 7.535 1.712-6.731 2.028 3.897 1.672-5.126 2.228-.073 1.752 5.776 2.032-4.046 1.592 5.37 1.988-5.314 2.192 4.097 1.552-6.396 1.988 4.612 1.872-1.618.2 193.81" style="fill:none;stroke:#00d070;stroke-width:1.5;stroke-dasharray:none;stroke-opacity:1"/><path id="path3942" d="M645.498 238h33.828l.916-.347 1.796-12.667 1.596-6.524 2.196-15.412 1.912-5.583 1.756-13.826 2.156-9.492 1.516-14.549 2.272-3.12 1.636-13.666 2.192-11.83 1.956-9.797 1.716-1.16 1.316-9.662.2 127.635h1.84l.48 127.459.988-8.288 1.62-6.813 2.176-10.612 1.58-5.468 1.86-16.28 1.976-7.484 1.976-12.835 1.384-1.08.2-58.599h1.4l1.2-57.817.28-1.787 2.272-17.007 1.512-7.28 2.232-6.409 1.792-13.362 1.872-4.214 2.072-14.29 1.596-6.038 2.312-12.152 1.592.628 2.152-15.162 1.596-1.162 1.952-10.91 2.312 2.325 1.552-12.64 2.152-.876 1.632.339 1.956-7.781 2.188-4.822 1.876 4.071 1.632-2.315 1.912 2.038 1.356-9.203.2 195.826h36.359l.796-193.234 1.996 3.601 1.836-5.006 1.796 8.341 2.112-9.17 1.916 8.977 1.596-6 2.236 2.948 1.872-1.09 1.636-1.873 2.156 2.932 1.756-3.52 2.712 1.608 1.676 2.713 2.272-4.371 1.676 5.57 2.036-7.589 1.036 2.87L834.8 238h1.598l.089-190.411.6-3.31.996 5.676.32-4.027 2.152 2.92 1.836 9.826 2.036 5.564 1.956 5.096 1.672 17.046 2.076 10.108 1.596 18.59 2.236 12.073 1.712 24.914 2.156 18.491 1.596 15.484 1.916 25.338 2.152 20.025.52 6.306.2.291 1-190.767.436 3.735L867.308 42l2.047 5.457 1.948-2.047 2.152 4.592 1.832.149 1.908-4.085 1.712 2.48 2.188-4.513 1.752 8.207 2.072-4.419 1.948-2.15 1.632 2.85 2.188-2.388 1.632 3.052 1.483-2.905" style="fill:none;stroke:#00d070;stroke-width:1.5"/><g id="g1067518" transform="translate(-105.768 -190.066)"><path id="path1067003" d="M365.796 540.597a23.735 23.735 0 0 1-23.735 23.735 23.735 23.735 0 0 1-23.734-23.735 23.735 23.735 0 0 1 23.734-23.735 23.735 23.735 0 0 1 23.735 23.735z" style="fill:#fdfdfd;stroke:#00d070;stroke-width:1.5;stroke-dasharray:4.5,1.5;stroke-dashoffset:0;stroke-opacity:1"/><g id="g1067010" transform="translate(47.002 -21.543)"><path id="use7255" stroke-width=".019" d="m283.858 561.655.533 4.475c1.161-1.58 1.828-2.723 2.247-3.504.38-.704.533-1.085.533-1.428 0-.4-.99-.59-.99-1.313 0-.42.342-.762.895-.762.609 0 1.085.438 1.085 1.18 0 1.486-3.085 6.055-3.884 7.065-1.39 1.751-2.628 3.617-3.923 3.617-.704 0-1.066-.59-1.066-1.047 0-.571.514-.78.762-.78.818 0 .78.59 1.085.59.324 0 1.409-1.18 1.904-1.942l-.724-5.98c-.095-.856-.266-1.999-1.332-1.999-.21 0-.515.058-.686.077l-.038-.305 2.856-.476c.438.628.571 1.123.743 2.532z" style="fill:#000;stroke:none"/><path id="use7257" stroke-width=".013" d="m289.217 559.276-.458-.162c.35-1.656 1.198-5.358 1.44-6.138.216-.687.62-.93 1.024-.93.484 0 .915.297.915.957 0 .148-.067.47-.135.632-.282.768-1.965 4.12-2.786 5.64z" style="fill:#000;stroke:none"/><path id="use7259" stroke-width=".019" d="m300.442 570.566-.228.305c-3.009-1.714-4.646-4.931-4.646-8.168 0-3.523 1.656-6.265 4.703-8.074l.171.305c-2.647 2.266-3.237 4.037-3.237 7.711 0 3.542.571 5.694 3.237 7.921z" style="fill:#000;stroke:none"/><use xlink:href="#STIXWEBNORMALI-1D461" id="use7261" x="1170" y="0" style="fill:#000;stroke:none" transform="matrix(.01904 0 0 -.01904 278.717 567.5)"/><path id="use7263" stroke-width=".019" d="m307.525 554.934.229-.305c2.913 1.752 4.646 4.932 4.646 8.169 0 3.522-1.676 6.226-4.703 8.073l-.172-.305c2.704-2.227 3.237-4.017 3.237-7.711 0-3.56-.476-5.75-3.237-7.921z" style="fill:#000;stroke:none"/></g></g><g id="g1069245" transform="translate(-9.382 33.343)"><path id="path1054646" d="M115.118 92.119a23.735 23.735 0 0 1-23.734 23.734A23.735 23.735 0 0 1 67.649 92.12a23.735 23.735 0 0 1 23.735-23.735 23.735 23.735 0 0 1 23.734 23.735Z" style="fill:#fdfdfd;stroke:red;stroke-width:1.5;stroke-dasharray:4.5,1.5;stroke-dashoffset:0"/><g id="g1054592" transform="translate(227.844 43.513)"><path id="use4716" stroke-width=".019" d="m-147.58 48.251.856-1.313c.495-.762 1.161-1.6 2.113-1.6.61 0 .933.229.933.628 0 .362-.247.8-.742.8-.42 0-.514-.171-.838-.171-.571 0-.78.304-1.047.723l-1.047 1.619c.57 1.18 1.009 3.75 1.865 3.75.305 0 .762-.266 1.162-1.085l.266.19c-.228.286-1.085 2.114-2.19 2.114-.78 0-1.142-.78-1.39-1.466l-.76-2.151-1.2 1.865c-.61.933-1.162 1.752-2.228 1.752-.685 0-.99-.476-.99-.895 0-.304.248-.704.724-.704.495 0 .418.38.894.38.229 0 .724-.19 1.333-1.123l1.238-1.923-.628-1.751c-.324-.914-.82-1.695-1.866-1.695-.248 0-.533.038-.724.114l-.057-.343 2.513-.628c.838.457 1.2 1.238 1.428 1.866z" style="fill:#000;stroke:none"/><path id="use4718" stroke-width=".013" d="m-141.865 45.51-.458-.162c.35-1.655 1.198-5.357 1.44-6.138.216-.686.62-.929 1.023-.929.485 0 .916.296.916.956 0 .148-.068.471-.135.633-.283.767-1.965 4.119-2.786 5.64z" style="fill:#000;stroke:none"/><path id="use4720" stroke-width=".019" d="m-130.635 56.8-.229.305c-3.008-1.714-4.646-4.931-4.646-8.168 0-3.523 1.657-6.264 4.703-8.073l.172.304c-2.647 2.266-3.237 4.037-3.237 7.712 0 3.541.571 5.693 3.237 7.92z" style="fill:#000;stroke:none"/><path id="use4722" stroke-width=".019" d="m-124.695 45.395-.19.724h-1.333l-1.485 6.093a.811.811 0 0 0-.038.209c0 .114.057.229.304.229 0 0 .438-.039 1.143-.99l.247.209c-.457.59-1.409 2.037-2.532 2.037-.59 0-.743-.476-.743-.99 0-.247.038-.495.096-.704l1.542-6.093h-1.466l.095-.552c1.428-.267 2.59-.971 3.37-2.628h.247l-.59 2.456z" style="fill:#000;stroke:none"/><path id="use4724" stroke-width=".019" d="m-123.553 41.168.229-.304c2.913 1.751 4.646 4.931 4.646 8.168 0 3.522-1.676 6.226-4.703 8.073l-.172-.305c2.704-2.227 3.237-4.017 3.237-7.711 0-3.56-.476-5.75-3.237-7.92z" style="fill:#000;stroke:none"/></g></g><path id="path244975" d="m143.572 46.355.796-3.402 1.836 3.436 1.716 1.38 2.236-.199 1.756-4.121 1.912 10.657 1.996-5.914 1.956 8.05 1.796-3.256 1.916 7.372 1.992-4.194 1.836 9.8 1.996 1.985 1.836 1.599" style="fill:none;stroke:#00d070;stroke-width:1.5"/></g><g id="layer2" style="display:inline"><path id="path359956" d="M524.87 476V0h19.343l-.5 476" style="fill:#f0f;fill-opacity:.27;stroke-width:0"/><path id="path450534" d="M-79.925 556.857v-10.102l-15.13 15.155 15.13 15.155v-10.103h29.464v12.074h157.615v-34.297H-50.461v12.118z" style="color:#000;display:inline;fill:#f4eed7;fill-opacity:1;stroke:#000;stroke-width:.999997;stroke-linecap:square;stroke-miterlimit:2;stroke-dasharray:none"/><ellipse id="ellipse619671" cx="372.88" cy="599.222" rx="19.89" ry="11.894" style="fill:none;fill-opacity:1;stroke:#000;stroke-width:1.5;stroke-dasharray:6.00001,2.99999;stroke-dashoffset:0;stroke-opacity:1"/><g id="g30843" transform="translate(0 70.182)"><path id="path81113" d="M375.656 450.07v0h8.218l-10.752-10.806-10.753 10.806h8.218v4.72h-29.712V442.4H233.967v29.561h106.908V459.86l34.782.001z" style="color:#000;display:inline;fill:#f4eed7;fill-opacity:1;stroke:#000;stroke-width:.999999;stroke-linecap:square;stroke-miterlimit:2;stroke-dasharray:none"/><g id="g419998" style="display:inline;stroke-width:2.6327" transform="matrix(.13552 .00303 -.003 .1355 -224.57 396.02)"><path id="path419992" d="M3717.313 335.854c-.054 10.263.474 20.526.947 30.778.588 12.115.98 24.237 1.129 36.363l-6.585 1.96c.071-12.107-.382-24.212-.964-36.305-.516-10.271-1.06-20.55-1.153-30.831l6.626-1.965z" style="opacity:1;fill:#000;fill-opacity:1;stroke:#000;stroke-width:.605517;stroke-linecap:butt;stroke-linejoin:miter;stroke-miterlimit:4;stroke-dasharray:none;stroke-dashoffset:0;stroke-opacity:1"/><path id="path419994" d="M3719.215 335.218c5.253 5.394 9.323 11.615 13.721 17.58 4.823 6.539 4.455 5.949 9.641 12.443 6.672 8.172 13.938 15.935 20.526 24.165 2.139 2.671 4.148 5.428 6.228 8.138l1.623 2.1-5.883 3.34c-.53-.706-1.058-1.413-1.586-2.12-.853-1.133-5.665-7.532-6.105-8.085-6.571-8.258-13.846-16.036-20.53-24.217-5.36-6.704-4.74-5.799-9.726-12.525-4.346-5.864-8.381-11.983-13.637-17.23l5.728-3.589z" style="opacity:1;fill:#000;fill-opacity:1;stroke:#000;stroke-width:.605517;stroke-linecap:butt;stroke-linejoin:miter;stroke-miterlimit:4;stroke-dasharray:none;stroke-dashoffset:0;stroke-opacity:1"/><path id="path419996" d="M3770.313 334.942c-.05 9.617-.069 19.235-.078 28.852.527 12.565.447 25.165 1.246 37.719.327 3.088.138 1.753.501 4.013l-6.483 2.31c-.387-2.425-.191-1.013-.52-4.244-.788-12.607-.59-25.263-1.215-37.88a7092.5 7092.5 0 0 0-.077-28.806l6.625-1.964z" style="opacity:1;fill:#000;fill-opacity:1;stroke:#000;stroke-width:.605517;stroke-linecap:butt;stroke-linejoin:miter;stroke-miterlimit:4;stroke-dasharray:none;stroke-dashoffset:0;stroke-opacity:1"/></g><g id="g413725" style="display:inline;stroke-width:2.57697" transform="matrix(.13203 -.04175 .04175 .13203 350.736 356.882)"><g id="g425867" style="stroke-width:2.57697" transform="rotate(17.825 -933.84 517.645)"><path id="path413721" d="M-947.38 439.931c1.17 11.86 1.594 23.762 1.821 35.672.118 7.757.128 15.514.086 23.27l-7.618 2.218c.087-8.085.157-16.291.071-23.21-.213-11.792-.606-23.579-1.865-35.314l7.505-2.636z" style="fill:#000;fill-opacity:1;stroke:none;stroke-width:.257698;stroke-miterlimit:4;stroke-dasharray:none;stroke-opacity:1"/><path id="path413723" d="M-973.308 439.239c1.732-1.807 5.086-3.257 7.631-4.107 1.91-.638 6.054-1.179 8.842-1.179 5.612 0 11.926 1.211 17.265 2.856 3.344 1.03 6.534 2.51 9.8 3.765 3.146 1.756 6.445 3.26 9.435 5.269 9.918 6.663 20.732 17.496 19.932 30.546-.174 2.837-.902 5.697-2.144 8.254-1.37 2.819-3.325 5.383-5.552 7.589-2.515 2.49-5.456 4.563-8.516 6.342-9.204 5.35-20.08 9.82-35.177 7.592-2.438-.36-4.818-1.4-6.758-2.4l5.368-6.287c2.134.75 4.066 1.96 5.924 2.38 5.474 1.339 12.384.32 17.753-.605 1.573-.338 3.802-1.092 5.241-1.81 2.969-1.484 5.842-3.232 8.398-5.348 2.159-1.788 4.145-3.872 5.618-6.256 1.28-2.073 2.17-4.456 2.49-6.871 1.573-11.864-9.274-21.954-18.13-27.756-2.878-1.885-6.051-3.274-9.076-4.911-3.143-1.137-6.213-2.5-9.428-3.41-5.2-1.472-9.512-2.218-14.923-2.056-1.904.057-3.982.05-5.67.712-1.136.446-2.505 1.439-3.71 1.106-2.133-.95-3.858-2.423-4.613-3.415z" style="fill:#000;fill-opacity:1;stroke:none;stroke-width:.257698;stroke-miterlimit:4;stroke-dasharray:none;stroke-opacity:1"/></g></g><path id="path413727" d="M259.876 453.872c-.512.127-1.6.847-1.89 1.112a6.894 6.894 0 0 0-1.137 1.373c-.167.27-.319.55-.44.844-.122.29-.223.59-.286.897-.176.85-.099 1.76.484 2.45.502.593 1.182.986 1.665 1.203.35.157.723.269 1.1.341 1.118.214 1.892-.057 2.822-.733.453-.33.708-.71.844-1.087.117-.325.292-.637.343-.98.167-1.105-.16-2.232-.821-3.12-.44-.59-.876-1.14-1.712-1.623-.88-.508-1.881-.755-2.584-.653.145-.244.304-.481.44-.73a2.25 2.25 0 0 1 .376-.017c.944.034 1.997.346 2.767.857.86.57 1.307 1.075 1.795 1.742.708.967 1.062 2.178.917 3.377a4.053 4.053 0 0 1-.287 1.1c-.144.34-.385.717-.652.973-1.15 1.105-2.38 1.564-3.775 1.57-1.041.004-1.978-.263-2.515-.503-.515-.23-1.227-.607-1.781-1.29-.626-.773-.75-1.765-.58-2.715.06-.327.158-.648.277-.958.12-.31.27-.608.436-.895.38-.658 1.064-1.536 1.704-1.968.589-.398 1.497-.838 2.144-1.086z" style="display:inline;fill:#000;fill-opacity:1;stroke:none;stroke-width:.0356843;stroke-miterlimit:4;stroke-dasharray:none;stroke-opacity:1"/><path id="path420000" d="M287.913 452.486c.92 1.788 1.793 3.6 2.69 5.4.197.398.389.799.573 1.203.425.935.777 1.887 1.14 2.846-.103.103-.242.094-.294-.041.064-.258.107-.52.168-.778.272-1.153.643-2.222 1.054-3.332.336-.881.707-1.75.98-2.654.053-.176.118-.384.127-.574.28-.013.987-.478.944-.035.02.11.042.22.071.327.166.605.41 1.18.665 1.752.488 1.093.927 2.213 1.507 3.263.18.327.424.733.647 1.04.217.299.422.605.665.884-.155.156-.324.222-.515.275.08-.227.187-.63.261-.852.187-.559.38-1.115.577-1.67.854-2.415 1.308-3.605 1.895-5.631.041-.143.083-.276.14-.388.297-.09.54-.103.873-.134.052.113.012.203-.074.36-.773 2.335-1.121 3.29-1.917 5.574-.316.907-.656 1.81-.86 2.75-.276.177-.525.407-.828.531-.07.03-.141-.061-.203-.107-.048-.038-.083-.09-.123-.137-.246-.293-.46-.61-.683-.921-.23-.323-.474-.733-.663-1.076-.58-1.058-1.023-2.185-1.52-3.283-.266-.59-.522-1.185-.706-1.807.156-.186.366-.342.646-.368-.268.914-.648 1.788-.99 2.675-.408 1.08-.798 2.146-1.058 3.273-.06.263-.102.53-.157.794-.043.2-.01.437-.136.598a2.136 2.136 0 0 1-.923.692c-.092.034-.178-.034-.233-.115-.087-.127-.119-.285-.171-.43-.089-.242-.164-.49-.254-.732a32.363 32.363 0 0 0-1.423-3.282c-.898-1.787-1.766-3.59-2.696-5.36l.804-.53z" style="display:inline;fill:#000;fill-opacity:1;stroke:none;stroke-width:.0356843;stroke-miterlimit:4;stroke-dasharray:none;stroke-opacity:1"/><path id="path420728" d="M265.763 453.085a335.672 335.672 0 0 1 1.84 6.478c.248.9.53 2.386.516 2.763-.235.174-.693.108-.955.08.157-.798.59-1.513.929-2.246.563-1.062 1.083-2.15 1.716-3.173.327-.072.58-.01.908-.003.05.072.016.222.042.354.545 1.814 1.139 3.32 1.662 4.344.097.337-.08.318-.073.058.83-2.315.922-3.827 1.753-6.143.204-.608.442-1.203.673-1.8.268-.124 1.229-.427.85.16-.826 1.913-1.367 3.93-1.832 5.957-.242.897-.425 1.819-.785 2.678-.278.46-1.07.54-1.23-.065-.848-1.537-1.407-3.207-1.932-4.875.435-.425.45.26.207.496-.66 1.275-1.386 2.523-1.891 3.87-.2.25-.76.348-.954.31-.08-1.276-.523-2.493-.83-3.725-.5-1.711-.969-3.432-1.5-5.134.295-.129.59-.256.884-.386z" style="display:inline;fill:#000;fill-opacity:1;stroke:none;stroke-width:.0356843;stroke-miterlimit:4;stroke-dasharray:none;stroke-opacity:1"/><g id="g420736" style="display:inline;stroke-width:2.57697" transform="matrix(.13837 -.00533 .00533 .13837 244.644 900.354)"><path id="path420730" d="M576.092-3210.496c4.424 5.702 7.302 12.379 10.528 18.778 1.634 3.242 7.415 14.384 8.974 17.394 5.071 10.213 10.573 20.35 13.838 31.327l-7.463 3.466c-2.946-11.432-8.522-22.118-13.006-31.152l-4.742-9.002c-1.476-2.772-2.963-5.538-4.43-8.314-3.226-6.105-6.15-12.54-10.658-17.843z" style="fill:#000;fill-opacity:1;stroke:none;stroke-width:1.25958;stroke-miterlimit:4;stroke-dasharray:none;stroke-opacity:1"/><path id="path420732" d="M547.39-3172.937c15.114 1.384 30.29 2.29 45.46 1.51l-5.332 5.938c-15.283.257-30.518-.791-45.784-1.324l5.656-6.124z" style="fill:#000;fill-opacity:1;stroke:none;stroke-width:1.25958;stroke-miterlimit:4;stroke-dasharray:none;stroke-opacity:1"/><path id="path420734" d="M577.286-3212.642c-9.213 16.46-18.636 32.807-27.939 49.22-4.09 7.326-8.627 14.512-11.141 22.566l-7.384 1.988c3.098-8.546 7.937-16.443 11.797-23.17 6.982-12.346 14.21-24.561 20.88-37.081 1.23-2.307 2.341-4.676 3.57-6.983.9-1.688 1.875-3.333 2.813-5z" style="fill:#000;fill-opacity:1;stroke:none;stroke-width:1.25958;stroke-miterlimit:4;stroke-dasharray:none;stroke-opacity:1"/></g><g id="g420742" style="display:inline;stroke-width:2.57697" transform="matrix(.12813 -.05252 .05252 .12813 342.175 558.521)"><g id="g425871" style="stroke-width:2.57697" transform="rotate(22.839 -581.07 -1091.965)"><path id="path420738" d="M171.657-1067.442c-.085 12.226-.44 16.584-.173 28.808.19 8.687.163 12.567.634 21.245.156 4.523.457 9.886 1.57 13.478l-6.246 3.11c-1.372-4.68-1.54-10.145-1.76-14.36-.449-8.706-.411-12.613-.62-21.327-.294-12.22.024-16.575-.04-28.798l6.635-2.156z" style="fill:#000;fill-opacity:1;stroke:none;stroke-width:.257698;stroke-miterlimit:4;stroke-dasharray:none;stroke-opacity:1"/><path id="path420740" d="M156.626-1071.688c12.906-2.103 26.282-2.14 38.97 1.337 2.615.717 5.216 1.548 7.68 2.68 1.99.913 3.942 2.002 5.609 3.423 4.674 3.986 5.084 9.04 1.236 13.838-3.877 4.835-11.75 8.538-16.553 10.939-6.528 3.263-13.654 5.022-20.646 7.03-2.962.85-7.919 2.676-8.803 2.295-.785-.338-1.12-3.87-.605-4.748.958-1.639 6.863-3.497 7.637-3.443 4.315 2.352 9.48 5.04 13.594 7.653 7.473 4.75 6.793 4.426 14.584 9.467 7.043 4.557 14.055 9.164 20.896 14.02 2.081 1.476 4.68 3.03 6.28 5.126l-6.101 3.973c-1.704-1.883-2.777-2.62-5.417-4.711-6.784-4.877-13.766-9.469-20.793-13.988-6.76-4.349-7.903-5.141-14.421-9.365-5.04-3.265-6.236-3.859-9.36-5.77-.905-1.5-1.234-3.251-.721-4.695 9.283-2.772 18.71-5.341 27.793-9.918 5.073-2.556 10.094-5.954 8.852-9.835-1.089-3.402-4.961-5.063-7.749-6.357-2.358-1.096-4.883-1.817-7.401-2.465-12.445-3.204-25.57-2.977-38.114-.527z" style="fill:#000;fill-opacity:1;stroke:none;stroke-width:.257698;stroke-miterlimit:4;stroke-dasharray:none;stroke-opacity:1"/></g></g><g id="g420748" style="display:inline;stroke-width:2.26924" transform="matrix(.12136 -.1 .1 .12136 1018.902 798.52)"><g id="g454794" style="stroke-width:2.57697" transform="scale(.8806) rotate(40.353 417.775 -6186.266)"><path id="path420744" d="M-947.747-3619.019c.232 1.36.39 1.336.571 2.703.91 6.838.983 10.25 1.286 17.792.466 11.595.493 23.16.369 34.76-.19 7.59-.059 4.392-.311 9.596l-6.644 1.961c.564-8.001.23-2.129.51-9.504.21-11.551.226-23.051-.278-34.599-.297-6.8-.465-11.08-1.333-17.426-.18-1.321-.216-1.626-.448-2.938z" style="fill:#000;fill-opacity:1;stroke:none;stroke-width:.257698;stroke-miterlimit:4;stroke-dasharray:none;stroke-opacity:1"/><path id="path420746" d="M-961.828-3620.381c1.61-.138 3.216-.395 4.832-.414 13.507-.159 30.074 3.555 41.017 11.731 3.152 2.356 6.097 5.073 8.51 8.18 2.32 2.99 4.28 6.343 5.536 9.914 1.18 3.353 1.778 6.983 1.659 10.536-.205 6.078-3.547 14.363-8.215 18.622-8.48 7.736-14.58 9.5-27.443 10.805-7.087.72-13.033.021-18.53-.841l4.295-5.316c6.182.785 12.054 1.4 16.602.672 3.76-.629 6.602-1.334 10.273-2.363 1.85-.518 4.845-1.966 6.313-3.206 7.591-6.412 10.032-16.11 6.884-25.548-1.113-3.335-2.924-6.466-5.083-9.24-2.28-2.93-5.081-5.479-8.08-7.67-10.42-7.611-24.704-11.299-37.512-10.516-1.503.092-2.974.476-4.461.714z" style="fill:#000;fill-opacity:1;stroke:none;stroke-width:.257698;stroke-miterlimit:4;stroke-dasharray:none;stroke-opacity:1"/></g></g></g><g id="g30891" transform="translate(0 70.183)"><path id="path1162453" d="M449.821 450.07v0h-8.218l10.752-10.806 10.753 10.806h-8.219v4.72h69.795V442.4h167.772v29.561H524.684V459.86l-74.864.001z" style="color:#000;display:inline;fill:#f4eed7;fill-opacity:1;stroke:#000;stroke-width:.999999;stroke-linecap:square;stroke-miterlimit:2;stroke-dasharray:none"/><g id="g30866"><path id="path1162629" d="M547.88 462.802c-.53-1.256-.256-.568-.777-2.073-.379-1.386-.606-2.143-.872-3.598-.54-3.03-.663-6.14-.246-9.2.085-.35.322-1.685.673-1.815.132-.05.293.11.36.25.795 1.515.578 4.09.54 5.512a22.373 22.373 0 0 1-.285 2.89c-.492 3.08-1.496 6.45-4.423 7.825-.464.22-.966.299-1.458.439-.73.02-1.43.209-2.056-.34-1.269-1.126 1.052-2.89 1.743-3.349.53-.279 1.051-.588 1.6-.827 2.094-.937 4.509-1.545 6.763-.917" style="display:inline;fill:none;stroke:#000;stroke-width:.999999"/><path id="path1162631" d="M553.854 457.763c.9.189.459.038 1.321.454.193.17.413.33.587.52.844.927 1.202 2.222.752 3.423-.137.161-.247.34-.412.464-1.211.955-2.945.34-4.156-.237-.257-.189-.54-.34-.77-.558-1.092-1.021-1.028-2.194-.028-3.215 1.22-.851 2.523-1.371 4.018-1.258" style="display:inline;fill:none;stroke:#000;stroke-width:.999999"/><path id="path1162633" d="M566.178 457.739c.345.787.634 1.586.667 2.464-.011.548.034.913-.178 1.426-.378.924-1.301.993-2.135.822-.79-.308-1.235-.502-1.847-1.118-.122-.126-.222-.263-.323-.388-.055-.08-.1-.183-.166-.251-.045-.046-.1-.057-.156-.092-.1.217-.156.445-.245.662-.2.468-.478.902-.845 1.267-.29.205-.478.388-.846.433-.756.08-1.078-.707-1.212-1.335-.022-.24-.056-.49-.056-.73.012-1.278.4-2.521.946-3.64" style="display:inline;fill:none;stroke:#000;stroke-width:.999989"/><path id="path1162635" d="M574.572 463.278c-.066-.242-.1-.495-.144-.747-.144-.954-.21-1.908-.433-2.85-.066-.173-.11-.345-.177-.506-.322-.701-.966-1.103-1.72-1.069-.245.012-.478.092-.711.138-.255.115-.522.195-.755.356-.744.483-1.443 1.356-1.676 2.241-.056.242-.033 1.195-.022 1.448.044.403.033.724.21.667.045-.012-.166-1.575-.166-1.655-.21-1.437-.455-2.885-.91-4.275" style="display:inline;fill:none;stroke:#000;stroke-width:.999999"/><path id="path1162637" d="M582.317 460.072c-.695.069-1.39.12-2.093.146-1.149.017-2.288.035-3.427.12" style="display:inline;fill:none;stroke:#000;stroke-width:.999999"/><path id="path1162639" d="M593.183 462.655a4.416 4.416 0 0 1-.902-1.063c-.53-.754-.981-1.579-1.238-2.477.04-.185-.21-.693-.192-.247-.155.833-.48 1.628-.878 2.366-.38.682-.94 1.277-1.654 1.57-.569.253-1.26.415-1.832.077-.6-.373-.792-1.2-.629-1.873.228-1.168 1.116-2.036 2.028-2.678.813-.517 1.764-.957 2.738-.832l.069.014.068.016" style="display:inline;fill:none;stroke:#000;stroke-width:.999999"/><path id="path1162641" d="M600.493 463.73c-.042-.098-.021-.044-.063-.184-.248-.934-.363-1.9-.56-2.845-.166-.763-.383-2.148-.995-2.674-.094-.076-.208-.108-.322-.172-.124 0-.249-.032-.373-.01-1.047.204-1.929 1.535-2.489 2.362-.342.698-.394.72-.602 1.45-.03.118-.176.794-.176.988-.01.053.073.172.031.14-.052-.033-.052-.119-.072-.172-.332-1.74-.591-3.501-.84-5.252" style="display:inline;fill:none;stroke:#000;stroke-width:.999999"/><path id="path1162649" d="M618.421 459.865c-.326.187-1.393.075-1.751.187-1.865.092-3.733.035-5.597.115" style="display:inline;fill:none;stroke:#000;stroke-width:.999999"/><path id="path1162651" d="M623.351 464.06c.053-.305-.021-.611-.053-.917-.277-2.305-.447-4.621-.628-6.937-.117-2.097-.192-4.184-.16-6.281" style="display:inline;fill:none;stroke:#000;stroke-width:.999999"/><path id="path1166592" d="M625.622 454.521c-2.255.536-4.554 1.024-6.432 1.66" style="display:inline;fill:none;stroke:#000;stroke-width:.999999;stroke-dasharray:none;stroke-opacity:1"/><path id="path1162657" d="M632.48 464.056c-.046-.14-.023-.058-.057-.267a72.792 72.792 0 0 0-.672-3.212c-.25-.85-.568-1.861-1.558-2.024-.182-.024-.364 0-.557 0-.205.046-.421.07-.626.14-.956.348-1.843 1.093-2.264 2.059-.09.21-.136.442-.205.663-.034.233-.182 1.164-.113 1.408.011.035.08.105.113.07.137-.14-.375-.535-.022-.594a1385.69 1385.69 0 0 0-.194-6.76c-.068-2.246-.09-4.491-.193-6.737" style="display:inline;fill:none;stroke:#000;stroke-width:.999999"/><path id="path1162659" d="M638.593 462.838c-.31.102-.854.164-1.186.155-.94-.024-1.958-.24-2.703-.858-.163-.126-.285-.293-.418-.44-.081-.178-.194-.345-.245-.544-.203-.795.164-1.675.653-2.271.122-.157.275-.283.418-.419.153-.105.306-.23.48-.324.387-.2.958-.377 1.396-.273.235.063.317.178.47.335.02.074.06.147.07.23.062.744-.937.953-1.447 1.068-.826.115-1.662.241-2.498.241" style="display:inline;fill:none;stroke:#000;stroke-width:.999999"/><path id="path1162665" d="M646.42 463.485c.076-1.277.088-2.574-.172-3.83-.157-.54-.395-1.113-.91-1.385-.748-.39-1.654-.214-2.369.17-1.094.58-1.904 1.619-2.413 2.753a5.85 5.85 0 0 0-.366 1.408c.05.33.134.026-.05-.078-.158-.18.129-.282-.012-.498-.208-1.33-.403-2.663-.672-3.983" style="display:inline;fill:none;stroke:#000;stroke-width:.999999"/><path id="path1162667" d="M653.385 459.998c-.414.178-.884.084-1.32.136-1.365.073-2.74.147-4.094.304" style="display:inline;fill:none;stroke:#000;stroke-width:.999999"/><path id="path1162669" d="M657.517 464.394a178.02 178.02 0 0 1-.308-5.665c-.086-3.525-.1-7.037-.024-10.548" style="display:inline;fill:none;stroke:#000;stroke-width:.999999"/><path id="path1162681" d="M665.025 462.405a7.198 7.198 0 0 1-2.336.66c-.225.023-.45.058-.677.046-.857-.012-1.793-.301-2.143-1.204-.08-.209-.09-.44-.136-.66.034-.255.034-.51.102-.765.282-1.019 1.106-2.13 2.132-2.432.17-.058.35-.034.52-.046.135.035.27.046.394.116.779.405.034 1.297-.406 1.598-.17.093-.338.197-.519.278-.767.336-1.658.428-2.47.22" style="display:inline;fill:none;stroke:#000;stroke-width:.999999"/><path id="path1162683" d="M668.38 467.874a330.786 330.786 0 0 1-.246-4.49c-.091-1.936-.173-3.862-.153-5.788.02-1.33.051-2.596.215-3.915.071-.575.193-1.151.285-1.716.275-1.026.367-1.623.857-2.523.173-.345.52-.869.938-1.005.265-.083.48.116.673.241" style="display:inline;fill:none;stroke:#000;stroke-width:.999999"/><path id="path1162685" d="M670.317 459.02c-.225.01-.45.02-.673.02-1.703.116-3.406.22-5.099.44" style="display:inline;fill:none;stroke:#000;stroke-width:.999999"/><path id="path1162687" d="M674.1 463.477c-.223-2.165-.435-4.32-.658-6.485-.279-2.992-.636-5.974-.691-8.977" style="display:inline;fill:none;stroke:#000;stroke-width:.999999"/><path id="path1162689" d="M677.61 455.376c-1.262-.022-.586-.01-2.03-.022-2.223.011-4.447.066-6.67.24" style="display:inline;fill:none;stroke:#000;stroke-width:.999999"/><path id="path1162647-8" d="M607.18 457.97c-.445-.393-1.001-.563-1.577-.453-.185.036-.363.108-.544.162-.204.103-.416.19-.612.31-.838.51-1.698 1.3-2.058 2.277-.083.227-.106.474-.16.71.018.23 0 .465.053.687.163.685.668 1.165 1.34 1.231.687.068.891-.144 1.506-.444.247-.258.53-.482.74-.774 1.058-1.479 1.448-3.55 1.581-5.356.03-.396.024-.793.036-1.19-.023-.814-.011-3.202-.083-3.952a10.038 10.038 0 0 0-.063-.519c-.02-.138-.068-.415-.118-.382-.063.04-.078.131-.117.197-.098 1.985.262 6.249.623 8.189.324 1.49.785 2.944 1.439 4.308.094.147.15.34.28.46" style="display:inline;fill:none;stroke:#000;stroke-width:.999989;stroke-dasharray:none"/></g></g><g id="g1173338" style="display:inline;stroke-width:2.57602" transform="matrix(.1385 .0031 -.00307 .13849 -237.852 512.016)"><path id="path1173332" d="M3717.313 335.854c-.054 10.263.474 20.526.947 30.778.588 12.115.98 24.237 1.129 36.363l-6.585 1.96c.071-12.107-.382-24.212-.964-36.305-.516-10.271-1.06-20.55-1.153-30.831l6.626-1.965z" style="opacity:1;fill:#000;fill-opacity:1;stroke:#000;stroke-width:.59248;stroke-linecap:butt;stroke-linejoin:miter;stroke-miterlimit:4;stroke-dasharray:none;stroke-dashoffset:0;stroke-opacity:1"/><path id="path1173334" d="M3719.215 335.218c5.253 5.394 9.323 11.615 13.721 17.58 4.823 6.539 4.455 5.949 9.641 12.443 6.672 8.172 13.938 15.935 20.526 24.165 2.139 2.671 4.148 5.428 6.228 8.138l1.623 2.1-5.883 3.34c-.53-.706-1.058-1.413-1.586-2.12-.853-1.133-5.665-7.532-6.105-8.085-6.571-8.258-13.846-16.036-20.53-24.217-5.36-6.704-4.74-5.799-9.726-12.525-4.346-5.864-8.381-11.983-13.637-17.23l5.728-3.589z" style="opacity:1;fill:#000;fill-opacity:1;stroke:#000;stroke-width:.59248;stroke-linecap:butt;stroke-linejoin:miter;stroke-miterlimit:4;stroke-dasharray:none;stroke-dashoffset:0;stroke-opacity:1"/><path id="path1173336" d="M3770.313 334.942c-.05 9.617-.069 19.235-.078 28.852.527 12.565.447 25.165 1.246 37.719.327 3.088.138 1.753.501 4.013l-6.483 2.31c-.387-2.425-.191-1.013-.52-4.244-.788-12.607-.59-25.263-1.215-37.88a7092.5 7092.5 0 0 0-.077-28.806l6.625-1.964z" style="opacity:1;fill:#000;fill-opacity:1;stroke:#000;stroke-width:.59248;stroke-linecap:butt;stroke-linejoin:miter;stroke-miterlimit:4;stroke-dasharray:none;stroke-dashoffset:0;stroke-opacity:1"/></g><g id="g1173346" style="display:inline;stroke-width:2.52149" transform="matrix(.13494 -.04267 .04267 .13494 350.113 472.016)"><g id="g1173344" style="stroke-width:2.52149" transform="rotate(17.825 -933.84 517.645)"><path id="path1173340" d="M-947.38 439.931c1.17 11.86 1.594 23.762 1.821 35.672.118 7.757.128 15.514.086 23.27l-7.618 2.218c.087-8.085.157-16.291.071-23.21-.213-11.792-.606-23.579-1.865-35.314l7.505-2.636z" style="fill:#000;fill-opacity:1;stroke:none;stroke-width:.25215;stroke-miterlimit:4;stroke-dasharray:none;stroke-opacity:1"/><path id="path1173342" d="M-973.308 439.239c1.732-1.807 5.086-3.257 7.631-4.107 1.91-.638 6.054-1.179 8.842-1.179 5.612 0 11.926 1.211 17.265 2.856 3.344 1.03 6.534 2.51 9.8 3.765 3.146 1.756 6.445 3.26 9.435 5.269 9.918 6.663 20.732 17.496 19.932 30.546-.174 2.837-.902 5.697-2.144 8.254-1.37 2.819-3.325 5.383-5.552 7.589-2.515 2.49-5.456 4.563-8.516 6.342-9.204 5.35-20.08 9.82-35.177 7.592-2.438-.36-4.818-1.4-6.758-2.4l5.368-6.287c2.134.75 4.066 1.96 5.924 2.38 5.474 1.339 12.384.32 17.753-.605 1.573-.338 3.802-1.092 5.241-1.81 2.969-1.484 5.842-3.232 8.398-5.348 2.159-1.788 4.145-3.872 5.618-6.256 1.28-2.073 2.17-4.456 2.49-6.871 1.573-11.864-9.274-21.954-18.13-27.756-2.878-1.885-6.051-3.274-9.076-4.911-3.143-1.137-6.213-2.5-9.428-3.41-5.2-1.472-9.512-2.218-14.923-2.056-1.904.057-3.982.05-5.67.712-1.136.446-2.505 1.439-3.71 1.106-2.133-.95-3.858-2.423-4.613-3.415z" style="fill:#000;fill-opacity:1;stroke:none;stroke-width:.25215;stroke-miterlimit:4;stroke-dasharray:none;stroke-opacity:1"/></g></g><path id="path1173348" d="M257.254 571.141c-.523.13-1.635.865-1.932 1.137a7.045 7.045 0 0 0-1.162 1.402 6.15 6.15 0 0 0-.45.863 5.047 5.047 0 0 0-.292.917c-.18.87-.1 1.8.495 2.503.513.607 1.208 1.008 1.701 1.23.358.161.74.275 1.125.349 1.142.219 1.933-.058 2.884-.75.463-.337.723-.724.862-1.11.12-.333.299-.651.351-1.001.17-1.13-.163-2.282-.84-3.19-.448-.603-.894-1.165-1.75-1.658-.899-.519-1.922-.772-2.64-.667.149-.25.311-.492.45-.746.132-.017.25-.023.384-.018.965.035 2.04.354 2.828.876.88.582 1.336 1.098 1.835 1.78.723.989 1.085 2.226.937 3.451a4.142 4.142 0 0 1-.293 1.124 3.18 3.18 0 0 1-.667.995c-1.175 1.129-2.432 1.598-3.858 1.605-1.064.004-2.021-.269-2.57-.514-.527-.235-1.255-.621-1.82-1.32-.64-.788-.767-1.802-.592-2.774a5.4 5.4 0 0 1 .282-.978c.122-.317.275-.622.445-.916.39-.671 1.088-1.569 1.742-2.01.602-.407 1.53-.857 2.191-1.11z" style="display:inline;fill:#000;fill-opacity:1;stroke:none;stroke-width:.0356843;stroke-miterlimit:4;stroke-dasharray:none;stroke-opacity:1"/><path id="path1173350" d="M285.908 569.724c.94 1.828 1.832 3.68 2.748 5.52.203.406.398.816.586 1.229.435.955.795 1.929 1.165 2.908-.105.105-.246.097-.3-.042.066-.263.11-.53.172-.794.278-1.18.657-2.271 1.077-3.406.344-.9.723-1.789 1.002-2.713.054-.179.12-.392.13-.586.286-.013 1.008-.488.964-.036.021.112.043.224.073.334.17.618.42 1.207.68 1.791.498 1.117.947 2.262 1.54 3.334.184.335.433.75.66 1.064.223.305.432.618.68.903-.158.16-.33.227-.526.28.083-.231.191-.642.267-.87.19-.57.388-1.139.589-1.706.873-2.468 1.337-3.685 1.937-5.756.042-.145.085-.281.143-.396.304-.092.553-.105.893-.137.052.116.012.207-.076.369-.79 2.385-1.146 3.361-1.96 5.696-.323.927-.67 1.85-.879 2.81-.282.182-.536.416-.845.543-.073.03-.145-.062-.208-.11-.049-.038-.085-.09-.126-.139-.251-.3-.47-.623-.698-.942-.235-.33-.484-.748-.677-1.099-.594-1.081-1.046-2.233-1.553-3.355-.272-.604-.534-1.211-.722-1.847.16-.19.374-.35.66-.377-.273.934-.662 1.828-1.012 2.734-.417 1.104-.816 2.193-1.08 3.345-.062.27-.105.542-.162.812-.043.204-.01.447-.139.612-.248.318-.577.57-.942.706-.095.035-.183-.034-.24-.117-.088-.13-.12-.291-.174-.44-.09-.247-.167-.5-.259-.747a33.079 33.079 0 0 0-1.455-3.355c-.917-1.827-1.805-3.669-2.755-5.478l.822-.542z" style="display:inline;fill:#000;fill-opacity:1;stroke:none;stroke-width:.0356843;stroke-miterlimit:4;stroke-dasharray:none;stroke-opacity:1"/><path id="path1173352" d="M263.27 570.336a343.03 343.03 0 0 1 1.88 6.62c.254.921.542 2.44.528 2.825-.24.177-.708.11-.976.082.16-.815.603-1.547.95-2.295.575-1.086 1.107-2.198 1.753-3.244.335-.073.594-.009.928-.003.051.074.017.228.043.363.557 1.854 1.164 3.392 1.699 4.439.1.344-.083.325-.075.06.85-2.367.943-3.912 1.792-6.28.208-.62.452-1.229.688-1.84.273-.126 1.255-.435.868.165-.844 1.955-1.397 4.017-1.872 6.088-.248.917-.434 1.859-.803 2.737-.283.47-1.093.552-1.257-.066-.865-1.57-1.437-3.278-1.974-4.983.444-.434.46.266.212.508-.674 1.302-1.417 2.578-1.933 3.954-.205.256-.777.356-.975.318-.08-1.305-.534-2.549-.849-3.808-.51-1.749-.99-3.507-1.532-5.246.301-.132.603-.262.904-.395z" style="display:inline;fill:#000;fill-opacity:1;stroke:none;stroke-width:.0356843;stroke-miterlimit:4;stroke-dasharray:none;stroke-opacity:1"/><g id="g1173360" style="display:inline;stroke-width:2.52149" transform="rotate(-2.188 26784.148 -5767.607) scale(.14152)"><path id="path1173354" d="M576.092-3210.496c4.424 5.702 7.302 12.379 10.528 18.778 1.634 3.242 7.415 14.384 8.974 17.394 5.071 10.213 10.573 20.35 13.838 31.327l-7.463 3.466c-2.946-11.432-8.522-22.118-13.006-31.152l-4.742-9.002c-1.476-2.772-2.963-5.538-4.43-8.314-3.226-6.105-6.15-12.54-10.658-17.843z" style="fill:#000;fill-opacity:1;stroke:none;stroke-width:1.23247;stroke-miterlimit:4;stroke-dasharray:none;stroke-opacity:1"/><path id="path1173356" d="M547.39-3172.937c15.114 1.384 30.29 2.29 45.46 1.51l-5.332 5.938c-15.283.257-30.518-.791-45.784-1.324l5.656-6.124z" style="fill:#000;fill-opacity:1;stroke:none;stroke-width:1.23247;stroke-miterlimit:4;stroke-dasharray:none;stroke-opacity:1"/><path id="path1173358" d="M577.286-3212.642c-9.213 16.46-18.636 32.807-27.939 49.22-4.09 7.326-8.627 14.512-11.141 22.566l-7.384 1.988c3.098-8.546 7.937-16.443 11.797-23.17 6.982-12.346 14.21-24.561 20.88-37.081 1.23-2.307 2.341-4.676 3.57-6.983.9-1.688 1.875-3.333 2.813-5z" style="fill:#000;fill-opacity:1;stroke:none;stroke-width:1.23247;stroke-miterlimit:4;stroke-dasharray:none;stroke-opacity:1"/></g><g id="g1173368" style="display:inline;stroke-width:2.52149" transform="rotate(-22.285 1891.895 -527.515) scale(.14152)"><g id="g1173366" style="stroke-width:2.52149" transform="rotate(22.839 -581.07 -1091.965)"><path id="path1173362" d="M171.657-1067.442c-.085 12.226-.44 16.584-.173 28.808.19 8.687.163 12.567.634 21.245.156 4.523.457 9.886 1.57 13.478l-6.246 3.11c-1.372-4.68-1.54-10.145-1.76-14.36-.449-8.706-.411-12.613-.62-21.327-.294-12.22.024-16.575-.04-28.798l6.635-2.156z" style="fill:#000;fill-opacity:1;stroke:none;stroke-width:.25215;stroke-miterlimit:4;stroke-dasharray:none;stroke-opacity:1"/><path id="path1173364" d="M156.626-1071.688c12.906-2.103 26.282-2.14 38.97 1.337 2.615.717 5.216 1.548 7.68 2.68 1.99.913 3.942 2.002 5.609 3.423 4.674 3.986 5.084 9.04 1.236 13.838-3.877 4.835-11.75 8.538-16.553 10.939-6.528 3.263-13.654 5.022-20.646 7.03-2.962.85-7.919 2.676-8.803 2.295-.785-.338-1.12-3.87-.605-4.748.958-1.639 6.863-3.497 7.637-3.443 4.315 2.352 9.48 5.04 13.594 7.653 7.473 4.75 6.793 4.426 14.584 9.467 7.043 4.557 14.055 9.164 20.896 14.02 2.081 1.476 4.68 3.03 6.28 5.126l-6.101 3.973c-1.704-1.883-2.777-2.62-5.417-4.711-6.784-4.877-13.766-9.469-20.793-13.988-6.76-4.349-7.903-5.141-14.421-9.365-5.04-3.265-6.236-3.859-9.36-5.77-.905-1.5-1.234-3.251-.721-4.695 9.283-2.772 18.71-5.341 27.793-9.918 5.073-2.556 10.094-5.954 8.852-9.835-1.089-3.402-4.961-5.063-7.749-6.357-2.358-1.096-4.883-1.817-7.401-2.465-12.445-3.204-25.57-2.977-38.114-.527z" style="fill:#000;fill-opacity:1;stroke:none;stroke-width:.25215;stroke-miterlimit:4;stroke-dasharray:none;stroke-opacity:1"/></g></g><g id="g1173376" style="display:inline;stroke-width:2.22038" transform="rotate(-39.487 1802.784 -977.35) scale(.16071)"><g id="g1173374" style="stroke-width:2.52149" transform="scale(.8806) rotate(40.353 417.775 -6186.266)"><path id="path1173370" d="M-947.747-3619.019c.232 1.36.39 1.336.571 2.703.91 6.838.983 10.25 1.286 17.792.466 11.595.493 23.16.369 34.76-.19 7.59-.059 4.392-.311 9.596l-6.644 1.961c.564-8.001.23-2.129.51-9.504.21-11.551.226-23.051-.278-34.599-.297-6.8-.465-11.08-1.333-17.426-.18-1.321-.216-1.626-.448-2.938z" style="fill:#000;fill-opacity:1;stroke:none;stroke-width:.25215;stroke-miterlimit:4;stroke-dasharray:none;stroke-opacity:1"/><path id="path1173372" d="M-961.828-3620.381c1.61-.138 3.216-.395 4.832-.414 13.507-.159 30.074 3.555 41.017 11.731 3.152 2.356 6.097 5.073 8.51 8.18 2.32 2.99 4.28 6.343 5.536 9.914 1.18 3.353 1.778 6.983 1.659 10.536-.205 6.078-3.547 14.363-8.215 18.622-8.48 7.736-14.58 9.5-27.443 10.805-7.087.72-13.033.021-18.53-.841l4.295-5.316c6.182.785 12.054 1.4 16.602.672 3.76-.629 6.602-1.334 10.273-2.363 1.85-.518 4.845-1.966 6.313-3.206 7.591-6.412 10.032-16.11 6.884-25.548-1.113-3.335-2.924-6.466-5.083-9.24-2.28-2.93-5.081-5.479-8.08-7.67-10.42-7.611-24.704-11.299-37.512-10.516-1.503.092-2.974.476-4.461.714z" style="fill:#000;fill-opacity:1;stroke:none;stroke-width:.25215;stroke-miterlimit:4;stroke-dasharray:none;stroke-opacity:1"/></g></g><ellipse id="ellipse35140" cx="534.105" cy="49.093" rx="13.89" ry="11.894" style="fill:none;fill-opacity:1;stroke:#000;stroke-width:1.5;stroke-dasharray:6.00001,2.99999;stroke-dashoffset:0;stroke-opacity:1"/><ellipse id="ellipse35144" cx="394.856" cy="-155.719" rx="25.134" ry="10.394" style="fill:none;fill-opacity:1;stroke:#000;stroke-width:1.5;stroke-dasharray:6.00001,2.99999;stroke-dashoffset:0;stroke-opacity:1"/><path id="path37872" d="M492.731-169.355c.166 1.526.265 3.056.345 4.587.069 1.462.1 2.925.123 4.387l.003.188.1-.002c-.004-.092 0-.03-.005-.187-.03-1.463-.059-2.927-.129-4.39a87.217 87.217 0 0 0-.34-4.596l-.097.013z" style="fill:#f4eed7;stroke:#000;stroke-width:1"/><path id="path37874" d="M489.683-169.182c1.615-.539 3.319-.45 4.978-.226.616.153 2.894.44 2.937 1.37.006.118-.057.229-.086.344-.756 1.094-2.017 1.704-3.159 2.32-.542.335-1.159.515-1.718.813.042.018-.082.023-.066.044.081.105.983.66 1.027.69 1.527 1.04 3.138 1.95 4.748 2.853.208.168.672.328.813.522l.1-.003c-.065-.268-.695-.432-.866-.603-1.61-.899-3.219-1.805-4.74-2.848-.04-.028-.797-.598-.949-.605-.033-.002-.047.047-.07.071-.013.015.117-.112.05-.033.558-.301 1.176-.48 1.717-.817 1.164-.628 2.456-1.25 3.208-2.382.027-.135.094-.267.082-.403-.084-.99-2.34-1.258-3.015-1.426-1.675-.226-3.394-.314-5.024.226l.033.093z" style="fill:#f4eed7;stroke:#000"/><path id="path37876" d="M499.755-168.751c1.766-.02 3.531-.032 5.296-.092.67-.026 1.34-.046 2.008-.085l-.006-.099c-.668.042-1.337.062-2.005.09-1.765.06-3.531.074-5.297.087l.004.099z" style="fill:#f4eed7;stroke:#000"/><path id="path37878" d="M503.392-168.548c-.281 1.644-.324 3.32-.383 4.984.022 1.039-.004 2.09.143 3.122.021.085.005.051.039.106l.08-.06-.004.002-.017-.063c-.152-1.025-.122-2.072-.147-3.104.058-1.657.1-3.327.385-4.964l-.096-.024z" style="fill:#f4eed7;stroke:#000"/><path id="path37880" d="M500.294-160.697c1.983.097 3.97.04 5.955.01.459-.017.918-.006 1.377-.032l-.006-.099c-.457.03-.915.016-1.372.035-1.98.033-3.965.091-5.944-.012l-.01.098z" style="fill:#f4eed7;stroke:#000"/><path id="path37882" d="M515.165-168.68c-.923-.556-1.941-.094-2.795.37-1.111.697-2.143 1.58-2.827 2.715-.136.225-.241.466-.362.7-.44 1.252-.24 2.385.787 3.282.189.165.409.29.613.436a5.494 5.494 0 0 0 3.836.514c.252-.06.49-.164.736-.246.209-.135.438-.243.627-.405.747-.64 1.086-1.623.778-2.57-.065-.199-.184-.375-.276-.562-.728-.981-1.502-1.174-2.664-1.056-.41.12-.938.117-1.3.378-.065.111.071.147.154.155-.008.012.032-.01.027-.002-.112.197-.046.536-.046.763.01.346.007.755.186 1.067l.043.03.046-.088c0 .002-.003.004-.004.006-.182-.283-.155-.698-.173-1.016 0-.282.049-.612-.076-.86-.05-.003-.07-.024-.096.024.293-.246.905-.246 1.248-.36 1.12-.117 1.862.06 2.568 1.001.09.179.204.347.268.537.405 1.214-.298 2.288-1.341 2.867-.24.08-.473.184-.719.243a5.4 5.4 0 0 1-3.767-.499c-.2-.14-.414-.262-.598-.422-.998-.866-1.196-1.959-.772-3.174.118-.23.221-.467.354-.689.676-1.122 1.697-1.996 2.795-2.685.814-.444 1.79-.899 2.68-.384l.07-.07z" style="fill:#f4eed7;stroke:#000"/><path id="path37884" d="M518.481-169.593c.158 1.629.168 3.267.194 4.901a302.666 302.666 0 0 1 .026 4.487v.042h.1v-.635a395.121 395.121 0 0 0-.033-3.895c-.026-1.639-.035-3.282-.19-4.915l-.097.015z" style="fill:#f4eed7;stroke:#000;stroke-width:.999999"/><path id="path37886" d="M518.702-164.77c1.348.134 2.7.128 4.052.074.496-.029.27-.013.679-.045l-.008-.091c-.406.032-.181.016-.675.045-1.345.056-2.693.063-4.034-.074l-.014.092z" style="fill:#f4eed7;stroke:#000;stroke-width:.999999"/><path id="path37888" d="M524.2-169.366c.007 1.372-.095 2.743-.147 4.114a201.9 201.9 0 0 0-.104 4.895h.1c-.001-.218.001-.436.003-.653.016-1.413.045-2.826.094-4.239.054-1.372.155-2.744.154-4.117h-.1z" style="fill:#f4eed7;stroke:#000;stroke-width:.999999"/><path id="path37890" d="M525.68-168.476c1.789-.141 3.575-.316 5.363-.472.985-.134 1.996-.106 2.978-.268l-.017-.098c-.977.173-1.988.132-2.97.274-1.784.156-3.568.33-5.355.465v.099z" style="fill:#f4eed7;stroke:#000"/><path id="path37892" d="M529.52-168.083c.552-1.298.3 2.751.278 4.126a90.178 90.178 0 0 0 .003 3.446l.006.296.1-.001-.007-.296a84.651 84.651 0 0 1-.007-3.443c.021-1.381-.023-2.776-.277-4.144l-.096.016z" style="fill:#f4eed7;stroke:#000;stroke-width:.999994"/><path id="path38125" d="M546.09-169.336c.077 1.403.024 2.81.01 4.215-.016 1.47-.023 2.94-.03 4.41-.065.265.097.964-.047 1.2.01.01-.052.008-.04.016.033.023.061.064.102.065.065.002.125-.039.188-.057l.311-.085c1.113-.32 2.271-.41 3.421-.495.471-.04.972-.031 1.422-.202l.035-.038-.086-.05.015-.005c-.438.172-.933.157-1.393.2-1.156.086-2.32.178-3.44.496l-.313.085c-.066.019-.142.018-.197.059-.037.027-.047.081-.053.126-.004.025.131-.07.115-.067.168-.323-.015-.9.056-1.247.003-1.47.01-2.94.026-4.41.015-1.408.068-2.82-.005-4.225l-.098.01z" style="fill:#f4eed7;stroke:#000"/><path id="path38129" d="M553.69-169.043c-.082 1.778-.055 3.558.007 5.337.032.958.093 1.914.135 2.872.012.285.015.57.015.856-.015.159.121.134.208.065.44-.163.927-.148 1.39-.17 1.353-.026 2.705-.057 4.056-.133.324-.036.702.005.998-.163l-.051-.085c-.268.174-.658.104-.952.153-1.351.078-2.702.108-4.055.132-.48.022-.999-.003-1.449.188-.048.04-.054.106-.046.013 0-.287-.004-.574-.016-.86-.045-.958-.108-1.914-.142-2.872-.063-1.782-.089-3.565 0-5.347l-.097.014z" style="fill:#f4eed7;stroke:#000"/><path id="path38131" d="M553.69-164.2c.976.019 1.95-.019 2.924-.08l.654-.048-.007-.097c-.405.031-.187.015-.652.048-.972.063-1.944.102-2.919.079v.099z" style="fill:#f4eed7;stroke:#000"/><path id="path38133" d="M553.363-168.817c1.097-.118 2.196-.211 3.294-.316.8-.11 1.619-.074 2.411-.234.145-.026.275-.096.418-.127l-.022-.098c-.142.033-.272.1-.415.129-.789.162-1.605.125-2.401.236-1.099.105-2.199.198-3.297.312l.012.098z" style="fill:#f4eed7;stroke:#000"/><path id="path38135" d="M562.706-169.417c.219 1.365.24 2.755.284 4.135.051 1.613.014 3.228.102 4.84.022.346.05.692.093 1.036l.098-.012a16.478 16.478 0 0 1-.096-1.029c-.092-1.611-.054-3.225-.105-4.838-.044-1.384-.066-2.778-.278-4.148l-.098.016z" style="fill:#f4eed7;stroke:#000"/><path id="path38137" d="M562.339-168.994c1.325-.243 2.672-.328 4.015-.411.673-.039 1.347-.069 2.021-.096l-.004-.098c-.674.03-1.349.061-2.023.101-1.346.084-2.696.169-4.025.406l.016.098z" style="fill:#f4eed7;stroke:#000"/><path id="path38139" d="M562.869-164.751c1.112-.101 2.229-.11 3.343-.188.438-.045.883-.055 1.318-.134l.025-.006-.025-.097-.019.005c-.43.082-.872.091-1.306.138-1.117.079-2.237.088-3.352.184l.016.098z" style="fill:#f4eed7;stroke:#000"/><path id="path38141" d="M570.328-168.972c1.165-.098 2.335-.115 3.503-.17 1.377-.059 2.753-.112 4.126-.246.248-.041.51-.035.754-.106l-.029-.096c-.236.075-.494.06-.735.106-1.37.137-2.745.191-4.12.25-1.167.054-2.335.07-3.5.163v.099z" style="fill:#f4eed7;stroke:#000"/><path id="path38143" d="M574.529-169.383c-.02 1.226.071 2.45.16 3.672a74.9 74.9 0 0 1 .18 3.662c.009.373.017.746.015 1.119 0 .136 0 .272-.002.408h.1c0-.136 0-.272.002-.408 0-.374-.01-.748-.018-1.122a77.452 77.452 0 0 0-.184-3.665c-.088-1.22-.179-2.442-.155-3.666h-.098z" style="fill:#f4eed7;stroke:#000"/><path id="path38145" d="M590.792-169.362c-.04 1.252.086 2.494.261 3.731.232 1.239.504 2.52 1.23 3.577.122.177.268.337.402.505.585.586 1.293 1.144 2.157 1.192.14.008.279-.016.418-.023.136-.045.281-.067.407-.133.929-.492 1.142-1.716 1.337-2.637.24-1.448.215-2.924-.017-4.37-.158-.528-.142-1.162-.456-1.635l-.064-.046-.053.084.035.017c.312.455.283 1.087.444 1.595.233 1.435.257 2.899.02 4.336-.187.883-.388 2.084-1.276 2.564-.118.064-.255.086-.382.128-.133.008-.265.032-.398.025-.84-.043-1.528-.589-2.098-1.156-.132-.165-.276-.32-.395-.494-.721-1.046-.989-2.316-1.218-3.542-.174-1.232-.3-2.47-.255-3.718h-.099z" style="fill:#f4eed7;stroke:#000"/><path id="path38147" d="M598.373-169.035c-.13 1.324-.08 2.656-.053 3.984.054 1.48.122 2.958.293 4.43l.041.294.097-.014-.043-.292c-.175-1.468-.243-2.943-.296-4.42-.025-1.323-.076-2.65.059-3.97l-.098-.012z" style="fill:#f4eed7;stroke:#000"/><path id="path38149" d="M597.872-169.068c1.136-.5 2.408-.465 3.618-.354.804.146 1.722.406 2.203 1.135.074.113.118.243.177.364.214.754.035 1.508-.57 2.03-.149.127-.32.224-.48.336-1.055.588-2.24.755-3.427.796a9.142 9.142 0 0 1-.806-.02l-.006.098c.272.016.544.024.816.018 1.205-.044 2.407-.216 3.477-.814.165-.117.343-.217.496-.35.634-.55.816-1.346.587-2.136-.064-.128-.112-.265-.191-.384-.499-.748-1.437-1.018-2.268-1.167-1.232-.112-2.533-.147-3.687.371l.061.077z" style="fill:#f4eed7;stroke:#000"/><path id="path38151" d="M616.823-169.233c.133 1.105.117 2.224.127 3.335.043 1.693.097 3.386.153 5.08.01.246.014.493.027.74l.1-.006c-.017-.246-.02-.492-.031-.738-.061-1.692-.117-3.385-.156-5.077-.009-1.121.009-2.251-.126-3.365l-.094.031z" style="fill:#f4eed7;stroke:#000"/><circle id="path38153" cx="616.121" cy="-168.845" r=".001" style="fill:#f4eed7;stroke:#000"/><path id="path38155" d="M615.904-168.89c.761-.394 1.645-.518 2.495-.45.256.02.508.073.762.11 1.376.303 2.74.84 3.8 1.798.197.178.365.386.548.58.125.214.276.415.376.642.375.852.385 1.952.06 2.82-.087.23-.22.441-.33.662-.164.202-.314.418-.492.608-.708.752-1.826 1.567-2.79 1.945-.265.104-.546.163-.819.244-1.148.202-2.283.018-3.399-.257l-.022.091c1.132.276 2.284.461 3.448.255.277-.083.563-.143.833-.25.973-.383 2.107-1.208 2.821-1.97.183-.195.336-.416.503-.625.113-.226.249-.443.337-.68.332-.892.32-2.017-.07-2.89-.103-.234-.259-.44-.389-.66-.186-.196-.357-.407-.559-.589-1.073-.966-2.45-1.51-3.842-1.817-.258-.037-.515-.09-.775-.111-.871-.07-1.779.059-2.558.466l.062.077z" style="fill:#f4eed7;stroke:#000"/><path id="path38159" d="M629.292-169.11c-.977-.12-1.48.936-1.889 1.644a7.656 7.656 0 0 0-.782 3.175c-.017.655.03.922.097 1.565.133.879.396 1.749 1.171 2.274.471.318.75.351 1.29.507 1.205.147 2.452-.083 3.38-.915.17-.152.308-.337.461-.506a4.999 4.999 0 0 0 .818-3.345c-.025-.237-.08-.469-.12-.703-.22-.85-.527-1.698-1.054-2.41-.267-.362-.416-.472-.74-.77-.561-.468-1.204-.779-1.949-.639-.15.029-.295.084-.442.126l.026.093c.142-.041.28-.095.425-.123.718-.138 1.334.164 1.876.613.315.29.464.4.724.75.521.702.823 1.538 1.04 2.376.04.23.095.458.12.691a4.909 4.909 0 0 1-.793 3.277c-.15.165-.282.346-.447.494-.905.815-2.122 1.04-3.3.9-.523-.15-.795-.181-1.252-.488-.758-.507-1.01-1.356-1.141-2.212-.066-.636-.113-.9-.097-1.548a7.546 7.546 0 0 1 .77-3.135c.384-.663.855-1.686 1.77-1.6l.038-.091z" style="fill:#f4eed7;stroke:#000"/><path id="path38161" d="M635.253-169.184c.516 1.114.866 2.296 1.29 3.447.503 1.272.933 2.571 1.432 3.844.125.287.228.585.373.863-.008-.114-.038-.017-.063-.093-.003-.34.066-.69.107-1.03.2-1.24.502-2.461.845-3.67.088-.296.17-.594.264-.887-.03.012-.076.009-.091.037-.004.007.071.227.077.243.155.437.346.853.538 1.274.557 1.151 1.006 2.347 1.497 3.526.205.368.268.827.523 1.17.241.087.328-.727.348-.826.269-1.453.596-2.894.917-4.336.215-.965.51-1.909.688-2.883.012-.323.233-.636.233-.957l-.1.005c.032.184-.252.732-.229.935-.175.972-.47 1.915-.684 2.88-.32 1.442-.645 2.884-.92 4.336-.054.262-.057.317-.124.54-.015.05-.031.1-.05.148-.008.021-.033.04-.031.063 0 .015.062.049.031.034-.257-.328-.305-.793-.514-1.146-.492-1.18-.943-2.376-1.498-3.529-.218-.476-.256-.54-.432-.99-.009-.025-.146-.474-.171-.5-.027-.028-.069-.036-.103-.055-.093.295-.175.594-.261.891a34.253 34.253 0 0 0-.849 3.686c-.044.353-.127.723-.103 1.078.055.127.175.129.243.009-.146-.274-.246-.57-.371-.852-.502-1.271-.932-2.57-1.434-3.841-.425-1.155-.777-2.34-1.29-3.459l-.088.044z" style="fill:#f4eed7;stroke:#000"/><path id="path38167" d="M655.2-169.066c-.024 2.055.25 4.098.449 6.14.117 1.272.216 2.545.29 3.82.04.119-.016.264-.046.284l-.002.1c.18-.047.16-.229.146-.39-.078-1.276-.178-2.55-.296-3.823-.199-2.039-.475-4.079-.442-6.131h-.099z" style="fill:#f4eed7;stroke:#000"/><path id="path38169" d="M653.952-168.571a4.312 4.312 0 0 1 2.958-.274c.237.064.461.169.692.254 1.24.67 2.226 1.772 2.798 3.064.104.236.174.486.26.73.274 1.141.286 2.338-.32 3.383-.125.217-.29.41-.435.615-1.192 1.329-2.53 1.643-4.25 1.644a2.939 2.939 0 0 1-1.667-.656l-.061.076a3.058 3.058 0 0 0 1.728.676c1.755-.004 3.115-.329 4.328-1.685.148-.21.316-.407.445-.63.615-1.068.605-2.29.322-3.455-.088-.248-.16-.502-.266-.743-.583-1.312-1.586-2.43-2.85-3.11-.235-.085-.465-.192-.708-.257a4.428 4.428 0 0 0-3.019.28l.045.088z" style="fill:#f4eed7;stroke:#000"/><path id="path38173" d="M667.54-168.575c-1.048.05-1.829.343-2.66.976-.871.822-1.214 1.924-1.396 3.074-.105 1.493.22 2.235 1.36 3.172 1.12.727 2.404.792 3.69.645 1.394-.291 2.082-.882 2.717-2.125.374-1.015.403-2.055.133-3.092-.291-.923-.782-1.599-1.547-2.18-.8-.571-1.74-.81-2.708-.871-.507.005-.267-.017-.72.053l.015.097c.436-.07.204-.048.699-.053.949.058 1.87.293 2.656.851.747.567 1.225 1.226 1.511 2.128.265 1.013.238 2.03-.125 3.023-.616 1.213-1.283 1.787-2.642 2.074-1.26.145-2.518.085-3.617-.624-1.114-.911-1.428-1.627-1.327-3.083.176-1.125.51-2.206 1.36-3.012.792-.606 1.597-.916 2.602-.954v-.099z" style="fill:#f4eed7;stroke:#000"/><path id="path38175" d="M672.294-168.27c.65 1.512 1.112 3.093 1.665 4.64.419.847.612 2.021 1.16 2.804.478.259.72-1.51.762-1.708.244-1.266.541-2.518.993-3.727.12-.185.427-1.415.63-1.46.15.328.228.686.321 1.033.349 1.192.655 2.394.952 3.599.228.806.434 1.617.73 2.4.072.212.144.424.193.641.012.071.024.175.133-.11.074-.193.185-1.183.218-1.378.28-1.462.565-2.925.977-4.356.162-.63.384-1.237.637-1.834.12-.179.068-.428.163-.608.06-.125.125-.248.19-.37l-.088-.048c-.066.125-.13.25-.192.375-.083.193-.06.422-.164.612a13.223 13.223 0 0 0-.639 1.846c-.411 1.435-.696 2.902-.978 4.367-.054.31-.242 1.045-.221 1.374.003.054.044.099.068.147.006.012-.016-.066-.007-.038a6.214 6.214 0 0 0-.198-.654c-.296-.78-.5-1.587-.728-2.39a91.712 91.712 0 0 0-.951-3.6c-.053-.199-.18-.907-.343-1.053-.03-.027-.077-.03-.115-.045-.34.198-.474 1.188-.679 1.517-.453 1.213-.75 2.47-.996 3.74-.027.13-.3 1.733-.587 1.67-.15-.207-.248-.455-.346-.69-.287-.688-.542-1.39-.807-2.088-.552-1.548-1.014-3.129-1.661-4.642l-.092.035z" style="fill:#f4eed7;stroke:#000"/><path id="path38177" d="M686.544-169.297c.79 1.953 1.407 3.975 2.016 5.99.37 1.276.671 2.572.866 3.886.078.712.37-.016.456-.223.348-1.04.732-2.066 1.075-3.107.22-.788.54-1.503 1.027-2.156-.024 0 .201-.203.193-.198-.035.018-.081.026-.102.059-.043.068-.024.314-.023.363.217.948.764 1.793 1.175 2.668.423.988.9 1.95 1.454 2.871.11.192.197.36.42.258.25-.325.32-.796.407-1.187.366-1.344.753-2.682 1.083-4.035a37.332 37.332 0 0 1 1.048-3.615c.176-.44.274-.9.396-1.355l-.096-.025c-.118.453-.218.91-.392 1.348-.408 1.19-.76 2.4-1.049 3.624-.33 1.354-.717 2.693-1.085 4.037-.085.376-.162.779-.354 1.118-.166.076-.19-.059-.294-.219a22.989 22.989 0 0 1-1.451-2.86c-.405-.864-.941-1.699-1.163-2.63-.008-.26.088-.763-.247-.28-.492.66-.815 1.386-1.038 2.184-.343 1.038-.727 2.063-1.075 3.1-.062.15-.248.784-.268.245a29.975 29.975 0 0 0-.875-3.897c-.61-2.019-1.23-4.043-2.013-6.003l-.09.039z" style="fill:#f4eed7;stroke:#000"/><path id="path38183" d="M701.7-168.846c.004 1.683-.008 3.366.034 5.049.067 1.395.066 2.792.022 4.187l.097.003c.04-1.397.041-2.796-.027-4.192-.042-1.682-.029-3.365-.026-5.047h-.1z" style="fill:#f4eed7;stroke:#000"/><path id="path38195" d="M700.86-169.038c1.003 1.311 2.15 2.5 3.194 3.779 1.008 1.358 2.136 2.618 3.23 3.906.327.389.684.762.904 1.226.052.274.13-.134.138-.2.148-1.33.162-2.673.19-4.01.053-1.262.16-2.52.239-3.781-.056-.278.148-.669.007-.928l-.08.06c.057.25-.041.59-.024.861-.078 1.263-.184 2.523-.237 3.786-.027 1.334-.042 2.674-.193 4-.007.07-.04.14-.022.207.077.274.163.043.072-.038-.226-.47-.585-.852-.92-1.246-1.096-1.286-2.224-2.545-3.232-3.903-1.042-1.277-2.187-2.464-3.186-3.776l-.08.057z" style="fill:#f4eed7;stroke:#000"/><path id="path38199" d="M728.921-169.262c-.138 1.538-.163 3.082-.19 4.625a40.69 40.69 0 0 1-.213 4.085c-.014.192-.16.418.134.34.803-.043 1.61-.024 2.413-.023.952.002 1.905.003 2.857.008v-.098c-.952 0-1.904-.002-2.857-.004-.813-.002-1.63-.027-2.442.023-.032.01-.079.003-.094.032-.016.03.01.069.024.1 0 .001.041-.14.063-.367.139-1.36.203-2.728.21-4.094.026-1.54.052-3.081.193-4.615l-.098-.011z" style="fill:#f4eed7;stroke:#000"/><path id="path38209" d="M736.731-168.838c.146 1.14.166 2.291.193 3.438.08 1.271.178 2.541.234 3.813.024.616.04 1.232.044 1.847-.02.217.217-.108.296-.156.4-.245.902-.278 1.357-.36.842-.138 1.695-.177 2.546-.207.265-.008.53-.015.796-.016v-.1c-.267.002-.533.01-.8.018-.855.032-1.713.07-2.56.208-.466.085-.98.12-1.391.373-.342.215-.128.441-.145.24a60.727 60.727 0 0 0-.046-1.85c-.057-1.273-.155-2.542-.235-3.812-.027-1.152-.048-2.308-.191-3.452l-.098.016z" style="fill:#f4eed7;stroke:#000"/><path id="path38211" d="M737.188-164.007c1.034-.127 2.079-.156 3.12-.192l.913-.027-.003-.099-.914.029c-1.045.037-2.094.066-3.133.192l.016.097z" style="fill:#f4eed7;stroke:#000"/><path id="path38213" d="M737.245-168.757c1.521-.107 3.044-.164 4.563-.306.328-.028.648-.088.977-.085l.001-.098c-.332-.001-.656.056-.987.087-1.52.145-3.043.203-4.566.305l.012.097z" style="fill:#f4eed7;stroke:#000"/><path id="path38215" d="M747.2-169.346c-.015 1.39.01 2.776.074 4.164.071 1.351.124 2.703.161 4.055-.034.175.107.514-.067.637l.041.091c.243-.137.103-.514.124-.73-.04-1.354-.093-2.706-.165-4.057a68.293 68.293 0 0 1-.069-4.16h-.098z" style="fill:#f4eed7;stroke:#000"/><path id="path38217" d="M745.938-168.507c1.317-.167 2.64-.28 3.958-.445.595-.074 1.187-.17 1.781-.244l-.012-.098c-.595.075-1.186.173-1.78.247-1.32.166-2.644.279-3.964.443l.017.097z" style="fill:#f4eed7;stroke:#000"/><path id="path38219" d="M746.93-164.476c1.039-.034 2.085-.086 3.118-.213.34-.058.686-.102 1.014-.213l-.033-.093c-.32.11-.66.15-.993.21-1.029.128-2.071.18-3.107.21v.099z" style="fill:#f4eed7;stroke:#000"/><path id="path38223" d="M755.02-168.476c1.557-.025 3.114-.12 4.671-.183a84.755 84.755 0 0 1 2.381-.067c.153 0 .086 0 .2-.002l-.001-.1-.2.002c-.795.012-1.59.037-2.384.07-1.555.065-3.111.16-4.668.18v.099z" style="fill:#f4eed7;stroke:#000"/><path id="path38225" d="M758.95-168.286c-.029 1.505.048 3.007.116 4.51.047 1.054.085 2.108.119 3.162l.098-.003a313.254 313.254 0 0 0-.123-3.162c-.068-1.502-.144-3.003-.11-4.507h-.1z" style="fill:#f4eed7;stroke:#000"/><path id="path38227" d="M775.231-168.31c.164 1.281.17 2.577.194 3.866.017 1.249.027 2.498.027 3.747l-.027.075.094.031.032-.106c-.007-1.25-.014-2.5-.032-3.749-.023-1.293-.029-2.592-.19-3.877l-.098.014z" style="fill:#f4eed7;stroke:#000"/><path id="path38231" d="M772.984-167.602c1.162-.583 2.455-.827 3.744-.867.822.052 1.843.191 2.371.918.064.088.098.194.146.29.002.104.03.21.007.312-.151.722-1.421 1.654-1.954 2.117a77.02 77.02 0 0 1-1.715 1.43c.051.023-.182.076-.134.105.47.29.317.193.952.423a90.42 90.42 0 0 1 4.274 1.56c.276.117.56.215.831.341l.042-.09c-.274-.126-.56-.225-.837-.342a97.968 97.968 0 0 0-4.277-1.56c-.202-.074-.4-.165-.607-.222-.352-.095-.391.041-.182-.137.58-.47 1.15-.951 1.716-1.436.558-.485 1.85-1.428 1.99-2.193.02-.115-.013-.234-.019-.352-.054-.104-.093-.219-.163-.314-.55-.744-1.593-.894-2.444-.946-1.306.042-2.613.29-3.79.877l.048.086z" style="fill:#f4eed7;stroke:#000"/><path id="path38233" d="M781.549-168.477c1.707-.095 3.415-.158 5.12-.277.607-.047 1.213-.091 1.818-.146.164-.015.369-.066.535-.032l.017-.098c-.185-.029-.374.016-.56.033-.605.056-1.21.1-1.816.148-1.704.12-3.409.183-5.114.274v.098z" style="fill:#f4eed7;stroke:#000"/><path id="path38235" d="M785.512-168.774c.3 1.493.24 3.03.234 4.546a50.46 50.46 0 0 0 .166 3.104c.017.188.007.109.025.24l.098-.014c-.017-.126-.008-.048-.025-.234a48.978 48.978 0 0 1-.17-3.096c.005-1.523.066-3.068-.232-4.57l-.096.024z" style="fill:#f4eed7;stroke:#000"/><path id="path38237" d="M782.169-160.727a92.639 92.639 0 0 0 6.191-.254c.596-.045 1.19-.101 1.784-.161l-.01-.097c-.593.061-1.186.12-1.78.164-2.059.15-4.122.247-6.185.25v.098z" style="fill:#f4eed7;stroke:#000"/><path id="path38239" d="M797.54-168.325c-1.399.162-2.592.997-3.609 1.92-.488.547-1.044 1.149-1.218 1.889-.105.443-.054.724-.028 1.174.209 1.555.837 2.17 2.21 2.824.795.26 1.74.635 2.574.291.13-.053.244-.14.366-.209.46-.367 1.02-.95 1.037-1.591.003-.131-.04-.26-.06-.389-.227-.861-.967-1.22-1.732-1.514-.49-.183-1.004-.278-1.515-.38.004.02-.091-.028-.092-.02-.026.22.01.454.015.674.002.535-.012 1.07-.028 1.606l.1.003c.014-.537.028-1.074.026-1.611 0-.026-.002-.484-.034-.548-.022-.044-.185-.032-.007-.007.506.1 1.014.193 1.5.374.731.28 1.45.615 1.67 1.439.02.117.063.232.061.35-.01.614-.553 1.177-.99 1.53-.114.066-.22.148-.343.2-.809.34-1.734-.036-2.507-.285-1.34-.635-1.95-1.225-2.154-2.743-.026-.425-.077-.714.021-1.133.17-.726.715-1.317 1.192-1.854.998-.908 2.17-1.732 3.546-1.892v-.098z" style="fill:#f4eed7;stroke:#000"/><path id="path38241" d="M800.7-169.096c-.014 1.801.147 3.599.267 5.395l.222 3.273c-.02.175-.103.162-.249.147-.077-.013-.035-.006-.127-.018l-.012.1c.09.01.048.004.129.017.206.02.34-.017.358-.253-.079-1.09-.153-2.181-.228-3.272-.12-1.794-.281-3.59-.26-5.39h-.1z" style="fill:#f4eed7;stroke:#000"/><path id="path38243" d="M801.02-163.976c1.276-.002 2.552-.002 3.829-.001h.79v-.099l-.79.001h-3.83v.098z" style="fill:#f4eed7;stroke:#000"/><path id="path38245" d="M805.731-168.53c.16 1.84.168 3.689.194 5.534.015 1.202.024 2.403.027 3.605h.098a486.835 486.835 0 0 0-.032-3.606c-.027-1.849-.034-3.702-.19-5.546l-.097.013z" style="fill:#f4eed7;stroke:#000"/><path id="path38247" d="M807.02-167.976c1.786-.117 3.577-.164 5.367-.207.795-.018 1.59-.033 2.385-.043v-.099c-.796.012-1.592.03-2.387.048-1.79.044-3.579.091-5.366.202v.099z" style="fill:#f4eed7;stroke:#000"/><path id="path38249" d="M811.2-168.096c.003 1.401.003 2.803.003 4.204-.02 1.1.043 2.201.18 3.293l.023.162.098-.015-.024-.16a22.711 22.711 0 0 1-.183-3.28c0-1.401 0-2.803.002-4.204h-.099z" style="fill:#f4eed7;stroke:#000"/><path id="path38251" d="M827.868-168.652c-.546 1.194-.598 2.506-.548 3.795.135 1.308.727 2.514 1.765 3.346.197.157.42.28.629.42.216.095.422.22.649.285.974.277 1.988-.125 2.648-.863.206-.23.352-.506.528-.76.782-1.678.555-3.312.23-5.054l-.076-.368-.096.02.078.366c.322 1.715.551 3.327-.213 4.983-.171.247-.313.516-.512.74-.632.712-1.61 1.112-2.549.848-.222-.062-.423-.184-.634-.276-.205-.137-.424-.256-.616-.41-1.02-.815-1.602-1.998-1.736-3.281-.05-1.27 0-2.563.538-3.74l-.085-.05z" style="fill:#f4eed7;stroke:#000"/><path id="path38253" d="M835.7-168.096c.034 1.416.189 2.827.297 4.239.115 1.268.093 2.544.014 3.813l-.017.223.098.007.017-.224c.076-1.274.097-2.555-.018-3.827-.108-1.41-.263-2.818-.292-4.232h-.099z" style="fill:#f4eed7;stroke:#000"/><path id="path38255" d="M834.988-167.385c1.122-.626 2.345-1 3.64-.872.24.023.473.087.71.13 1.229.515 1.817 1.24 2.073 2.54-.011.163.007.332-.034.491-.28 1.07-1.528 1.36-2.443 1.574a9.007 9.007 0 0 1-2.298.046l-.01.098c.775.076 1.558.07 2.33-.051.963-.226 2.234-.538 2.517-1.66.043-.168.022-.345.033-.518-.035-.174-.052-.354-.106-.523-.32-.996-1.08-1.728-2.046-2.09-.24-.044-.48-.109-.724-.132-1.316-.128-2.56.253-3.7.887l.058.08z" style="fill:#f4eed7;stroke:#000"/><path id="path38257" d="M855.45-169.066c.104 1.603.195 3.205.351 4.804.1.952.212 1.902.338 2.85l.098-.013a94.092 94.092 0 0 1-.342-2.846c-.156-1.596-.247-3.195-.346-4.795h-.098z" style="fill:#f4eed7;stroke:#000"/><path id="path38261" d="M853.251-168.288c1.212-.198 2.473-.385 3.7-.219.282.038.556.12.833.18 1.278.496 2.539 1.35 3.106 2.654.093.213.13.446.195.668.007.219.045.438.023.656-.141 1.368-1.343 2.062-2.433 2.642-1.568.758-3.267 1.036-4.994.936l-.342-.083-.022.095.359.084c1.743.097 3.46-.183 5.044-.949 1.124-.598 2.345-1.318 2.484-2.729.022-.225-.018-.452-.027-.679-.068-.23-.108-.47-.205-.689-.581-1.327-1.864-2.196-3.168-2.7-.282-.06-.56-.142-.847-.18-1.238-.167-2.508.02-3.73.218l.024.095z" style="fill:#f4eed7;stroke:#000"/><path id="path38263" d="M867.07-167.825c-1.042.038-1.911.503-2.724 1.12a5.21 5.21 0 0 0-1.722 3.094c-.039.248-.035.5-.053.75.084.975.49 1.907 1.444 2.326.632.277 1.201.277 1.876.343 1.408-.019 2.908-.29 3.996-1.259.154-.136.279-.302.418-.453.673-1.011.403-2.126-.012-3.18-.66-1.23-1.684-1.67-2.976-1.997-.769-.103-.393-.08-1.127-.079v.097c.718-.003.35-.025 1.104.075 1.259.318 2.262.74 2.91 1.94.401 1.017.673 2.098.03 3.079-.135.147-.255.308-.404.442-1.068.956-2.545 1.221-3.93 1.242-.652-.064-1.22-.065-1.832-.33-.924-.4-1.317-1.297-1.402-2.24.017-.244.013-.491.05-.733a5.114 5.114 0 0 1 1.688-3.041c.795-.605 1.645-1.06 2.666-1.097v-.1z" style="fill:#f4eed7;stroke:#000"/><path id="path38267" d="M871.047-169.1c.635 1.355 1.056 2.795 1.608 4.185.503 1.182.912 2.404 1.525 3.536.008.014.26.446.285.424.038-.036.061-.084.092-.126.211-.65.622-1.228.962-1.818.508-.863.984-1.74 1.338-2.678.071-.228.169-.453.204-.69-.034.022-.079.033-.101.067-.106.158.372 1.045.434 1.169a52.463 52.463 0 0 0 1.668 2.8c.265.4.538.794.836 1.17.13.233.218-.161.252-.262.486-1.177.96-2.358 1.455-3.53.35-.918.742-1.818 1.068-2.745.046-.141.1-.28.135-.425l-.097-.024c-.037.141-.084.279-.13.417-.324.925-.715 1.823-1.064 2.739-.495 1.175-.97 2.359-1.46 3.536-.024.069-.067.134-.07.207-.005.09.106.148-.011.025a16.49 16.49 0 0 1-.832-1.16 50.87 50.87 0 0 1-1.663-2.791c-.09-.182-.25-.494-.33-.693-.012-.032-.087-.422-.092-.43-.02-.038-.064-.056-.097-.084-.04.229-.122.449-.197.669-.35.933-.824 1.807-1.33 2.665-.347.601-.77 1.19-.977 1.856.224.188-.22-.257-.192-.335-.614-1.127-1.021-2.346-1.524-3.524-.554-1.395-.975-2.84-1.61-4.202l-.085.051z" style="fill:#f4eed7;stroke:#000"/><path id="path38271" d="M885.731-168.78c.143 1.517.334 3.029.488 4.545.098 1.051.174 2.104.225 3.159.008.18.005.1.009.243l.1-.004-.011-.245a75.398 75.398 0 0 0-.23-3.163c-.153-1.517-.344-3.03-.484-4.548l-.097.012z" style="fill:#f4eed7;stroke:#000"/><path id="path38273" d="M885.581-168.095c.979 1.162 1.946 2.333 2.952 3.473 1.039 1.254 2.294 2.288 3.523 3.345.388.278.658.677 1.029.973.034.049.198.08.121.101v.057c.024-.051.068-.099.067-.155 0-.088-.053-.168-.074-.254-.05-.217-.164-.86-.194-1.024-.287-1.518-.563-3.037-.773-4.567-.122-.698-.17-1.377-.072-2.076l.005-.228-.099-.002-.004.217c-.099.708-.05 1.395.075 2.102.212 1.531.487 3.052.773 4.57.068.377.096 1.135.396 1.42.016.015-.059-.188 0-.065-.051-.118-.052-.108-.16-.174-.37-.293-.638-.694-1.027-.969-1.227-1.052-2.48-2.083-3.515-3.334-1.005-1.138-1.972-2.308-2.946-3.472l-.077.062z" style="fill:#f4eed7;stroke:#000"/><g id="g40537" transform="translate(0 -173.812)"><g id="g40535"><path id="path40513" d="M516.756 32.303c-.03-1.46-.06-2.93-.13-4.39-.08-1.53-.18-3.07-.34-4.6" style="display:inline;fill:none;stroke:#000;stroke-width:1"/><path id="path40515" d="M522.716 32.233c-.07-.27-.7-.44-.87-.61-1.61-.89-3.22-1.8-4.74-2.84-.04-.03-.79-.6-.95-.61-.03 0-.04.05-.07.07-.01.02.12-.11.05-.03.56-.3 1.18-.48 1.72-.82 1.16-.63 2.46-1.25 3.21-2.38.03-.13.09-.27.08-.4-.08-.99-2.34-1.26-3.02-1.43-1.67-.23-3.39-.31-5.02.23" style="display:inline;fill:none;stroke:#000;stroke-width:1"/><path id="path40517" d="M530.506 23.663c-.66.04-1.33.06-2 .08-1.77.07-3.53.08-5.3.09" style="display:inline;fill:none;stroke:#000;stroke-width:1"/><path id="path40519" d="M526.706 32.233c-.15-1.03-.12-2.08-.15-3.11.06-1.66.11-3.33.39-4.96" style="display:inline;fill:none;stroke:#000;stroke-width:1"/><path id="path40521" d="M531.076 31.863c-.46.04-.91.02-1.37.04-1.98.03-3.97.09-5.94-.01" style="display:inline;fill:none;stroke:#000;stroke-width:1"/><path id="path40523" d="M536.186 29.493c-.19-.28-.16-.7-.18-1.02 0-.28.05-.61-.07-.86-.05 0-.07-.02-.1.03.29-.25.91-.25 1.25-.36 1.12-.12 1.86.06 2.57 1 .09.18.2.35.26.54.41 1.21-.29 2.28-1.34 2.86-.24.08-.47.19-.72.24-1.26.31-2.62.11-3.76-.49-.2-.14-.42-.27-.6-.43-1-.86-1.2-1.95-.77-3.17.12-.23.22-.47.35-.69.68-1.12 1.7-1.99 2.8-2.68.81-.45 1.79-.9 2.68-.39" style="display:inline;fill:none;stroke:#000;stroke-width:1"/><path id="path40525" d="M542.256 32.483v-.6c0-1.29-.01-2.59-.03-3.89-.03-1.64-.04-3.28-.19-4.92" style="display:inline;fill:none;stroke:#000;stroke-width:1"/><path id="path40527" d="M546.886 27.853c-.41.03-.19.02-.68.05-1.34.05-2.69.06-4.03-.08" style="display:inline;fill:none;stroke:#000;stroke-width:1"/><path id="path40529" d="M547.506 32.323v-.65c.02-1.41.05-2.82.1-4.24.05-1.37.15-2.74.15-4.11" style="display:inline;fill:none;stroke:#000;stroke-width:1"/><path id="path40531" d="M557.466 23.373c-.98.17-1.99.13-2.97.27-1.79.16-3.57.33-5.36.47" style="display:inline;fill:none;stroke:#000;stroke-width:1"/><path id="path40533" d="M553.356 32.173c-.02-1.15-.03-2.3-.01-3.44.03-1.38-.02-2.78-.27-4.15" style="display:inline;fill:none;stroke:#000;stroke-width:1"/></g></g><g id="g40545" transform="translate(0 -173.812)"><path id="path40539" d="M574.93 23.077c.253.532.136 1.14.234 1.705.03 1.884-.264 3.808-1.084 5.518-.305.636-.933 1.241-1.688 1.152-.909-.057-1.601-.763-2.122-1.446-.817-1.178-.983-2.396-1.048-3.79-.029-1.279.023-2.19.233-3.454" style="display:inline;fill:none;stroke:#000;stroke-width:1"/><path id="path40541" d="M577.493 32.042c-.17-1.46-.24-2.94-.3-4.42-.02-1.32-.07-2.65.06-3.97" style="display:inline;fill:none;stroke:#000;stroke-width:1"/><path id="path40543" d="M577.363 27.992c.27.02.55.03.82.02 1.2-.04 2.41-.21 3.48-.81.16-.12.34-.22.49-.35.64-.55.82-1.35.59-2.14-.06-.13-.11-.26-.19-.38-.5-.75-1.44-1.02-2.27-1.17-1.23-.11-2.53-.15-3.69.37" style="display:inline;fill:none;stroke:#000;stroke-width:1"/></g><circle id="path215072" cx="450.481" cy="284.877" r=".235" style="fill:#ffe5fc;stroke:#000"/><path id="path215102-7" d="M236.335-122.766c.08.45.04.2.1.75a9.61 9.61 0 0 1-1.38 5.12c-.53.64-.68.93-1.39 1.37-.76.47-1.73.7-2.62.6-.31-.03-.6-.13-.9-.2-.76-.39-.99-.42-1.59-1.07-1.01-1.09-1.43-2.54-1.57-3.99 0-.35-.01-.69.01-1.04.04-1.12.27-2.24.64-3.3" style="display:inline;fill:none;stroke:#000;stroke-width:1"/><path id="path215104-8" d="M241.555-114.366c.92.57 1.87 1.08 2.91 1.39.82.14 1.04.27 1.85.04 1.26-.36 2.26-1.38 3.01-2.39.38-.71.55-.9.68-1.7.15-.89.01-1.87-.44-2.66-.16-.26-.38-.49-.56-.73-.63-.53-.79-.75-1.57-1.04-.95-.34-2.02-.3-2.95.08-.34.14-.64.36-.97.54-.85.74-1.07.81-1.69 1.8-1.24 1.97-1.58 4.34-1.89 6.6-.05.68-.13 1.36-.15 2.05-.02.62.01 1.24.04 1.85.09 2.06.34 4.1.63 6.13.03.19.09 1.22.36 1.38.13.09-.03-.81.06-.73-.05-1.9-.28-3.8-.35-5.7-.18-3.04-.34-6.08-.4-9.12-.07-2.1-.2-4.21-.23-6.31" style="display:inline;fill:none;stroke:#000;stroke-width:1"/><path id="path215106-3" d="M271.315-113.536c-.1-1.51-.19-3.02-.22-4.54-.09-3.02-.22-6.05-.36-9.07-.11-1.86-.22-3.72-.41-5.58" style="display:inline;fill:none;stroke:#000;stroke-width:1"/><path id="path215108-3" d="M283.015-114.516c-.37.27-.79.43-1.23.54-.17.02-.34.06-.52.07-.94.06-1.96-.17-2.82-.58-.24-.11-.46-.27-.69-.4-.46-.45-.68-.57-.91-1.2-.36-.99.05-2.02.56-2.87.17-.19.32-.38.5-.56.83-.8 1.91-1.34 3.06-1.46.31.01.57-.02.85.13.39.21.54.71.56 1.11-.01.1-.01.21-.05.3-.28.81-1.33 1.05-2.03 1.29-1.27.32-2.58.63-3.9.48" style="display:inline;fill:none;stroke:#000;stroke-width:1"/><path id="path215110-2" d="M287.615-108.066c-.05-.89-.11-1.77-.19-2.66-.27-2.73-.66-5.45-1-8.17-.3-3.31-.49-6.66.13-9.95.39-1.52.84-3.65 2.56-4.24.21-.07.45-.08.67-.12.22.02.45.02.67.07.86.19 1.51.85 1.95 1.59" style="display:inline;fill:none;stroke:#000;stroke-width:1"/><path id="path215112-5" d="M290.215-122.436c-.76.04-1.52.09-2.27.15-1.45.12-2.89.26-4.31.51" style="display:inline;fill:none;stroke:#000;stroke-width:1"/><path id="path215114-6" d="M295.925-113.966c-.03-1.13-.08-2.26-.13-3.4-.1-2.84-.18-5.69-.09-8.53.04-2.22.06-4.45.05-6.67" style="display:inline;fill:none;stroke:#000;stroke-width:1"/><path id="path215116-1" d="M301.155-127.226c-1.38.02-2.77.05-4.15.09-1.73.06-3.45.13-5.18.24" style="display:inline;fill:none;stroke:#000;stroke-width:1"/><path id="path215118-7" d="M324.055-112.116c-.39-.83-.64-1.72-.9-2.59-.82-2.97-1.41-6.01-1.57-9.09-.14-2.67-.3-5.39.2-8.03.03-.11.07-.21.09-.32 0-.02-.02-.11 0-.08.07.11.1.52.11.58.07.55.09.84.15 1.42.25 3.01.38 6.05-.21 9.03-.39 1.6-.74 3.23-1.72 4.6-.68.95-1.62 1.55-2.7 1.93-.74.17-1.15.34-1.91.25-.84-.09-1.64-.56-2.04-1.32-.12-.24-.16-.53-.25-.79.01-.28-.02-.57.03-.84.34-1.71 1.99-2.7 3.43-3.38.3-.11.61-.24.92-.32.91-.25 1.88-.25 2.78.05" style="display:inline;fill:none;stroke:#000;stroke-width:1"/><path id="path215120-4" d="M330.095-120.696c1.01.45 2.02.93 2.78 1.77.38.57.58.74.69 1.43.14.85-.16 1.71-.76 2.33-.23.24-.52.41-.78.61-.86.38-1.17.61-2.14.66-1.38.07-2.55-.65-3.5-1.58-.39-.52-.62-.73-.82-1.35-.27-.91.01-1.77.63-2.45.16-.14.31-.3.49-.42.69-.47 1.61-.68 2.43-.59" style="display:inline;fill:none;stroke:#000;stroke-width:1"/><path id="path215122-1" d="M343.855-119.856c.27.36.13.16.42.59.71 1.22 1.09 2.45.69 3.85-.11.19-.18.41-.34.56-.59.57-1.66.23-2.2-.24-.15-.14-.26-.33-.39-.49-.1-.17-.2-.33-.29-.51-.05-.1-.17-.51-.29-.55-.03-.01-.02.08-.03.12-.09.31-.03.14-.16.48-.55 1.17-1.13 1.51-2.42 1.73-.56.01-.89.08-1.43-.11-.68-.22-1.2-.75-1.42-1.43-.08-.23-.09-.49-.13-.74.01-.27 0-.54.03-.81.13-1.14.5-2.27 1.12-3.24" style="display:inline;fill:none;stroke:#000;stroke-width:1"/><path id="path215130-1" d="M356.065-115.386c.02-.12.04-.24.06-.35.1-.87.15-1.74 0-2.6-.05-.2-.08-.41-.14-.6-.23-.78-.66-1.58-1.28-2.11-.16-.14-.35-.24-.52-.36-.52-.21-.65-.33-1.23-.31-1.11.02-1.81.73-2.54 1.46-.19.23-.39.44-.56.68-.62.85-1.07 1.83-1.07 2.89 0 .06-.02.13 0 .18.01.03.06.07.06.05-.01-.04-.05-.06-.07-.1-.16-.38-.22-.81-.35-1.2-.28-1.19-.46-2.4-.65-3.61" style="display:inline;fill:none;stroke:#000;stroke-width:1"/><path id="path1162453-9" d="M511.728-97.032v0h-8.219l10.753-10.806 10.752 10.806h-8.218v4.72h69.794v-12.39h167.773v29.56H586.59v-12.101h-74.863z" style="color:#000;display:inline;fill:#f4eed7;fill-opacity:1;stroke:#000;stroke-width:.999999;stroke-linecap:square;stroke-miterlimit:2;stroke-dasharray:none"/><path id="path1162629-6" d="M609.786-84.3c-.53-1.256-.256-.568-.777-2.073-.378-1.386-.606-2.143-.871-3.599-.54-3.03-.663-6.14-.246-9.2.085-.349.322-1.684.672-1.814.133-.05.294.11.36.25.796 1.514.579 4.09.54 5.511a22.373 22.373 0 0 1-.284 2.89c-.493 3.08-1.497 6.45-4.423 7.826-.464.219-.966.299-1.459.438-.73.02-1.43.21-2.055-.339-1.27-1.126 1.051-2.89 1.743-3.349.53-.279 1.05-.588 1.6-.827 2.093-.937 4.509-1.545 6.763-.917" style="display:inline;fill:none;stroke:#000;stroke-width:.999999"/><path id="path1162631-9" d="M615.76-89.34c.9.19.46.038 1.322.454.192.17.413.331.587.52.844.927 1.201 2.223.752 3.424-.138.16-.248.34-.413.463-1.21.956-2.944.34-4.155-.236-.257-.19-.541-.34-.77-.558-1.092-1.021-1.028-2.194-.028-3.215 1.22-.852 2.522-1.372 4.018-1.258" style="display:inline;fill:none;stroke:#000;stroke-width:.999999"/><path id="path1162633-4" d="M628.084-89.364c.345.787.634 1.586.668 2.465-.011.547.033.912-.178 1.426-.378.924-1.302.993-2.136.821-.79-.308-1.235-.502-1.846-1.118-.123-.125-.223-.262-.323-.388-.056-.08-.1-.182-.167-.25-.044-.046-.1-.058-.156-.092-.1.217-.155.445-.244.662-.2.468-.479.901-.846 1.266-.289.206-.478.388-.845.434-.756.08-1.079-.708-1.212-1.335-.023-.24-.056-.49-.056-.73.011-1.278.4-2.522.945-3.64" style="display:inline;fill:none;stroke:#000;stroke-width:.999989"/><path id="path1162635-0" d="M636.479-83.825c-.067-.241-.1-.494-.144-.747-.145-.954-.211-1.908-.433-2.85-.067-.172-.111-.345-.178-.506-.322-.7-.965-1.103-1.72-1.068-.244.011-.478.092-.71.138-.256.114-.522.195-.755.356-.744.483-1.443 1.356-1.676 2.24-.056.242-.034 1.196-.023 1.449.045.402.034.724.211.666.045-.011-.166-1.574-.166-1.654-.211-1.437-.455-2.885-.91-4.276" style="display:inline;fill:none;stroke:#000;stroke-width:.999999"/><path id="path1162637-5" d="M644.223-87.03c-.694.068-1.389.12-2.093.146-1.148.017-2.287.034-3.426.12" style="display:inline;fill:none;stroke:#000;stroke-width:.999999"/><path id="path1162639-2" d="M655.09-84.448a4.416 4.416 0 0 1-.902-1.063c-.53-.753-.982-1.578-1.239-2.477.04-.184-.21-.693-.19-.247-.156.834-.482 1.629-.88 2.367-.38.682-.94 1.276-1.654 1.57-.568.252-1.26.415-1.831.077-.601-.374-.792-1.2-.63-1.874.229-1.168 1.116-2.035 2.029-2.677.813-.517 1.763-.957 2.738-.832l.068.013.068.016" style="display:inline;fill:none;stroke:#000;stroke-width:.999999"/><path id="path1162641-4" d="M662.4-83.373c-.042-.097-.022-.043-.063-.183-.249-.934-.363-1.9-.56-2.846-.166-.762-.384-2.148-.996-2.674-.093-.075-.207-.107-.321-.172-.125 0-.249-.032-.373-.01-1.048.204-1.93 1.536-2.49 2.363-.342.698-.394.72-.601 1.45-.031.117-.176.794-.176.987-.01.054.072.172.03.14-.051-.032-.051-.118-.072-.172-.332-1.74-.59-3.5-.84-5.251" style="display:inline;fill:none;stroke:#000;stroke-width:.999999"/><path id="path1162649-8" d="M680.328-87.238c-.327.188-1.394.076-1.751.187-1.866.092-3.733.036-5.598.115" style="display:inline;fill:none;stroke:#000;stroke-width:.999999"/><path id="path1162651-1" d="M685.258-83.042c.053-.306-.022-.612-.053-.918-.277-2.305-.448-4.62-.629-6.936-.117-2.098-.191-4.184-.16-6.282" style="display:inline;fill:none;stroke:#000;stroke-width:.999999"/><path id="path1166592-6" d="M687.529-92.581c-2.255.535-4.554 1.023-6.432 1.66" style="display:inline;fill:none;stroke:#000;stroke-width:.999999;stroke-dasharray:none;stroke-opacity:1"/><path id="path1162657-4" d="M694.386-83.046c-.045-.14-.023-.058-.057-.268a72.792 72.792 0 0 0-.671-3.211c-.25-.85-.569-1.862-1.558-2.025-.182-.023-.364 0-.558 0-.205.047-.42.07-.626.14-.955.349-1.842 1.094-2.263 2.06-.091.209-.137.442-.205.663-.034.232-.182 1.163-.114 1.408.012.035.08.104.114.07.136-.14-.375-.536-.023-.594a1385.69 1385.69 0 0 0-.193-6.76c-.068-2.246-.091-4.492-.194-6.738" style="display:inline;fill:none;stroke:#000;stroke-width:.999999"/><path id="path1162659-0" d="M700.5-84.264c-.31.101-.854.163-1.187.155-.939-.024-1.958-.241-2.702-.858-.163-.126-.286-.294-.418-.44-.082-.178-.194-.346-.245-.544-.204-.796.163-1.675.653-2.272.122-.157.275-.282.418-.418.153-.105.306-.23.479-.325.388-.199.959-.377 1.397-.272.235.063.316.178.47.335.02.073.06.146.07.23.062.743-.938.953-1.447 1.068-.826.115-1.663.24-2.499.24" style="display:inline;fill:none;stroke:#000;stroke-width:.999999"/><path id="path1162665-3" d="M708.327-83.617c.076-1.277.088-2.574-.173-3.831-.157-.54-.395-1.113-.91-1.384-.747-.39-1.653-.215-2.368.169-1.095.581-1.905 1.62-2.414 2.753a5.85 5.85 0 0 0-.366 1.408c.05.331.135.027-.05-.077-.158-.18.13-.283-.011-.498-.208-1.33-.404-2.664-.672-3.983" style="display:inline;fill:none;stroke:#000;stroke-width:.999999"/><path id="path1162667-4" d="M715.291-87.104c-.413.178-.883.083-1.32.136-1.364.073-2.74.146-4.094.303" style="display:inline;fill:none;stroke:#000;stroke-width:.999999"/><path id="path1162669-4" d="M719.423-82.708a178.02 178.02 0 0 1-.308-5.665c-.086-3.525-.1-7.038-.023-10.549" style="display:inline;fill:none;stroke:#000;stroke-width:.999999"/><path id="path1162681-3" d="M726.931-84.698a7.198 7.198 0 0 1-2.335.66c-.226.023-.451.058-.677.046-.857-.011-1.794-.3-2.144-1.204-.079-.208-.09-.44-.135-.66.034-.255.034-.51.102-.764.282-1.02 1.105-2.131 2.132-2.432.17-.058.35-.035.519-.046.135.035.27.046.395.116.778.405.034 1.296-.406 1.598-.17.092-.339.196-.52.278-.767.335-1.658.428-2.47.22" style="display:inline;fill:none;stroke:#000;stroke-width:.999999"/><path id="path1162683-9" d="M730.286-79.228a330.786 330.786 0 0 1-.245-4.49c-.092-1.937-.173-3.863-.153-5.789.02-1.329.051-2.595.214-3.914.072-.576.194-1.152.286-1.717.275-1.025.367-1.622.856-2.522.174-.346.52-.869.938-1.005.266-.084.48.115.673.24" style="display:inline;fill:none;stroke:#000;stroke-width:.999999"/><path id="path1162685-7" d="M732.223-88.083c-.224.01-.448.021-.673.021-1.703.115-3.406.22-5.098.44" style="display:inline;fill:none;stroke:#000;stroke-width:.999999"/><path id="path1162687-1" d="M736.006-83.625c-.223-2.165-.435-4.32-.658-6.485-.278-2.992-.635-5.974-.69-8.977" style="display:inline;fill:none;stroke:#000;stroke-width:.999999"/><path id="path1162689-5" d="M739.516-91.726c-1.261-.022-.585-.011-2.029-.022-2.224.01-4.447.065-6.671.24" style="display:inline;fill:none;stroke:#000;stroke-width:.999999"/><path id="path1162647-8-6" d="M669.086-89.133c-.444-.392-1-.563-1.577-.452-.185.036-.362.108-.543.162-.204.103-.416.19-.612.309-.838.51-1.699 1.3-2.058 2.277-.084.227-.107.474-.16.711.018.23 0 .464.053.687.162.684.668 1.165 1.34 1.23.686.068.89-.144 1.506-.444.246-.258.53-.481.74-.774 1.057-1.478 1.448-3.55 1.58-5.356.03-.395.025-.793.037-1.189-.024-.814-.012-3.202-.083-3.952a10.038 10.038 0 0 0-.063-.52c-.021-.137-.068-.414-.118-.382-.063.04-.078.132-.117.197-.098 1.985.262 6.25.622 8.19.325 1.489.785 2.944 1.44 4.308.093.146.149.34.28.459" style="display:inline;fill:none;stroke:#000;stroke-width:.999989;stroke-dasharray:none"/><path id="path220820" d="M484.987-62.543h8.218l-10.752 10.806L471.7-62.544h8.218v-4.72h-24.1v12.39h-47.039v-29.56h47.038v12.102l29.17-.001z" style="color:#000;display:inline;fill:#f4eed7;fill-opacity:1;stroke:#000;stroke-width:.999999;stroke-linecap:square;stroke-miterlimit:2;stroke-dasharray:none"/><g id="g220802" transform="translate(-336.57 18.203)"><path id="path220012" d="M757.3-89.08c-.781.076-1.585.296-2.152.823-.889.804-1.308 1.98-1.285 3.114.017.457.102.915.255 1.348.214.111-.032-.376-.038-.505-.371-1.294-.745-2.587-1.084-3.888a44.795 44.795 0 0 0-.237-.844" style="display:inline;fill:none;stroke:#000;stroke-width:1.09722;stroke-dasharray:none"/><path id="path220014" d="M760.54-90.285c.131.125.278.282.245.469-.038.186-.249.293-.44.297-.272.01-.545-.15-.641-.386-.056-.162.014-.338.137-.457a1.38 1.38 0 0 1 .345-.25" style="display:inline;fill:none;stroke:#000;stroke-width:1.09722;stroke-dasharray:none"/><path id="path220016" d="M760.722-83.393c-.169-.879-.25-1.77-.308-2.66-.06-.802-.124-1.604-.15-2.408" style="display:inline;fill:none;stroke:#000;stroke-width:1.09722;stroke-dasharray:none"/><path id="path220018" d="M761.611-77.96c1.32.705 2.796 1.27 4.342 1.3 1.292.016 2.569-.62 3.282-1.608.608-.982.385-2.155.337-3.23-.164-1.754-.405-3.504-.467-5.266-.191-.356-.166.567-.322.666-.397 1.075-1.325 2.087-2.59 2.282-1.212.234-2.554-.587-2.742-1.727-.193-1.114.572-2.175 1.545-2.773.74-.458 1.671-.828 2.572-.619.225.064.431.176.614.312" style="display:inline;fill:none;stroke:#000;stroke-width:1.09722;stroke-dasharray:none"/><path id="path220020" d="M778.2-83.505c.025-1 .064-2.673-.672-3.488-.563-.622-1.568-.86-2.372-.516-1.145.471-1.748 2.157-2.008 3.234-.063.255-.182.88-.14.896-.15-2.61-.414-7.074-.413-9.69.007-.79.037-5.294.047-6.084" style="display:inline;fill:none;stroke:#000;stroke-width:1.09722;stroke-dasharray:none"/><path id="path220022" d="M781.693-83.019c-.09-1.24-.165-2.48-.182-3.736-.048-2.432-.09-4.864-.144-7.296-.048-1.596-.09-3.193-.17-4.782" style="display:inline;fill:none;stroke:#000;stroke-width:1.14502;stroke-dasharray:none"/><path id="path220024" d="m784.737-93.992-2.895.03c-1.38.015-2.761.04-4.142.059" style="display:inline;fill:none;stroke:#000;stroke-width:1.20334;stroke-dasharray:none"/></g><path id="path1173330" d="M537.235 68.867h8.219L534.7 58.06l-10.753 10.806h8.219v4.72h-16.194v-9.34h-51.278v22.607h51.278v-8.198h21.263z" style="color:#000;display:inline;fill:#f4eed7;fill-opacity:1;stroke:#000;stroke-width:.999999;stroke-linecap:square;stroke-miterlimit:2;stroke-dasharray:none"/><path id="path215078" d="M480.3 74.074c-1.831-.639-3.424.259-3.99.72a3.357 3.357 0 0 0-1.285 2.72c.017.398.102.798.255 1.177.214.097-.032-.329-.038-.442-.371-1.13-.746-2.26-1.084-3.396a35.356 35.356 0 0 0-.237-.737" style="display:inline;fill:none;stroke:#000;stroke-width:1.09722;stroke-dasharray:none"/><path id="path215080" d="M483.58 72.184c.13.125.278.282.244.47-.038.185-.249.292-.44.297-.272.01-.545-.151-.641-.386-.056-.162.014-.338.137-.457a1.38 1.38 0 0 1 .346-.25" style="display:inline;fill:none;stroke:#000;stroke-width:1.09722;stroke-dasharray:none"/><path id="path215082" d="M483.761 79.077c-.168-.88-.25-1.77-.307-2.66-.061-.802-.125-1.605-.15-2.409" style="display:inline;fill:none;stroke:#000;stroke-width:1.09722;stroke-dasharray:none"/><path id="path215084" d="M484.557 82.934c1.32.704 2.796 1.27 4.342 1.299 1.292.017 2.569-.62 3.282-1.607.609-.983.385-1.368.337-2.442-.164-1.755-.405-2.717-.466-4.478-.192-.356-.167.567-.322.665-.398 1.075-1.326 2.088-2.59 2.283-1.213.234-2.555-.587-2.743-1.728-.193-1.113.572-2.175 1.545-2.773a3.44 3.44 0 0 1 2.572-.433c.225.064.432.177.615.313" style="display:inline;fill:none;stroke:#000;stroke-width:1.09722;stroke-dasharray:none"/><path id="path215092" d="M501.147 78.965c.025-1 .063-2.674-.673-3.489-.563-.622-1.567-.86-2.372-.516-1.145.472-1.748 2.157-2.008 3.235-.063.255-.181.88-.14.896-.15-2.61-.414-5.217-.413-7.832.007-.79.037-1.58.047-2.37" style="display:inline;fill:none;stroke:#000;stroke-width:1.09722;stroke-dasharray:none"/><path id="path215094" d="M504.64 79.405a30.973 30.973 0 0 1-.182-2.638c-.048-1.717-.09-3.433-.144-5.15-.048-1.128-.091-2.255-.171-3.376" style="display:inline;fill:none;stroke:#000;stroke-width:1.14502;stroke-dasharray:none"/><path id="path215098" d="m507.868 71.264-2.818.03c-1.343.014-2.687.039-4.03.058" style="display:inline;fill:none;stroke:#000;stroke-width:1.20334;stroke-dasharray:none"/><path id="path233101" d="m548.89-70.49-5.812 5.811-.038-15.244 15.244.038-5.81 5.811 9.369 9.369h12.582v-9.34h34.561v22.606h-34.561v-8.198h-14.682z" style="color:#000;display:inline;fill:#f4eed7;fill-opacity:1;stroke:#000;stroke-width:.999999;stroke-linecap:square;stroke-miterlimit:2;stroke-dasharray:none"/></g><g id="layer10"><ellipse id="ellipse257635" cx="33.023" cy="576.009" rx="31.492" ry="12.257" style="display:inline;fill:none;fill-opacity:1;stroke:#000;stroke-width:1.50339;stroke-dasharray:6.01363,3.00682;stroke-dashoffset:0;stroke-opacity:1" transform="matrix(.33088 -.94367 .90796 .41906 0 0)"/></g><g id="notch labels" style="stroke:none;fill:#b8b8de"><g id="g2576" transform="matrix(.01618 0 0 -.01618 25.702 256.936)"><use xlink:href="#STIXWEBMAIN-32" id="use2572"/><use xlink:href="#STIXWEBMAIN-30" id="use2574" x="500" y="0"/></g><g id="g2582" transform="matrix(.01618 0 0 -.01618 225.702 257.786)"><use xlink:href="#STIXWEBMAIN-32" id="use2578"/><use xlink:href="#STIXWEBMAIN-35" id="use2580" x="500" y="0"/></g><g id="g2588" transform="matrix(.01618 0 0 -.01618 425.702 256.936)"><use xlink:href="#STIXWEBMAIN-33" id="use2584"/><use xlink:href="#STIXWEBMAIN-30" id="use2586" x="500" y="0"/></g><g id="g2594" transform="matrix(.01618 0 0 -.01618 625.702 257.786)"><use xlink:href="#STIXWEBMAIN-33" id="use2590"/><use xlink:href="#STIXWEBMAIN-35" id="use2592" x="500" y="0"/></g><g id="g2600" transform="matrix(.01618 0 0 -.01618 825.702 256.936)"><use xlink:href="#STIXWEBMAIN-34" id="use2596"/><use xlink:href="#STIXWEBMAIN-30" id="use2598" x="500" y="0"/></g><g id="g2606" transform="matrix(.01619 0 0 -.01619 6.08 467.467)"><use xlink:href="#STIXWEBMAIN-2212" id="use2602" x="0" y="0"/><use xlink:href="#STIXWEBMAIN-38" id="use2604" x="685" y="0"/></g><g id="g2612" transform="matrix(.01619 0 0 -.01619 6.08 439.467)"><use xlink:href="#STIXWEBMAIN-2212" id="use2608" x="0" y="0"/><use xlink:href="#STIXWEBMAIN-37" id="use2610" x="685" y="0"/></g><g id="g2618" transform="matrix(.01619 0 0 -.01619 6.078 411.47)"><use xlink:href="#STIXWEBMAIN-2212" id="use2614" x="0" y="0"/><use xlink:href="#STIXWEBMAIN-36" id="use2616" x="685" y="0"/></g><g id="g2622" transform="matrix(.01618 0 0 -.01618 17.18 75.467)"><use xlink:href="#STIXWEBMAIN-36" id="use2620" x="0" y="0"/></g><g id="g2626" transform="matrix(.01618 0 0 -.01618 17.181 47.465)"><use xlink:href="#STIXWEBMAIN-37" id="use2624" x="0" y="0"/></g><g id="g2630" transform="matrix(.01618 0 0 -.01618 17.181 19.465)"><use xlink:href="#STIXWEBMAIN-38" id="use2628" x="0" y="0"/></g></g><g id="layer3"><g id="g145107" transform="translate(431.569)"><path id="path98171" d="M551.338 343.471c-.755.49-1.737.584-2.652.651-1.501.052-3.114-.247-4.208-1.171-.682-.568-1.074-1.462-.814-2.267.31-1.005 1.35-1.684 2.388-2.154 1.015-.46 1.9-.577 2.632-.615.47-.024 1.16.068 1.397.199" style="display:inline;fill:none;stroke:#000;stroke-width:1.1;stroke-miterlimit:2;stroke-dasharray:none"/><path id="path98173" d="M557.002 334.98c-1.282 2.16-2.286 3.722-3.585 5.886-1.072 1.785-1.8 3.088-3.035 4.793" style="display:inline;fill:none;stroke:#000;stroke-width:1.1;stroke-linecap:butt;stroke-linejoin:round;stroke-miterlimit:2;stroke-dasharray:none;stroke-opacity:1"/><path id="path98175" d="M555.686 343.588c.35.168.707.337 1.021.444.743.253 1.397.32 2.17.312.782-.008 2.28-.174 2.56-1.054.133-.42 0-.721-.28-1.032-.506-.558-.675-.634-1.468-1.225-.69-.514-1.564-.95-2.13-1.582a1.058 1.058 0 0 1-.217-.36.759.759 0 0 1-.02-.346c.084-.557.636-.947 1.246-.937.947.016 1.471.273 1.926.958" style="display:inline;fill:none;stroke:#000;stroke-width:1.1;stroke-linecap:butt;stroke-linejoin:round;stroke-miterlimit:2;stroke-dasharray:none;stroke-opacity:1"/></g></g><g id="layer5"><path id="path234246" d="M567.787 199.368v8.198h32.103V184.96h-32.103v9.34h-10.222v-8.218l-10.806 10.753 10.806 10.752v-8.218z" style="color:#000;display:inline;fill:#f4eed7;fill-opacity:1;stroke:#000;stroke-width:.999999;stroke-linecap:square;stroke-miterlimit:2;stroke-dasharray:none"/><g id="g259114" transform="translate(-3.02 -2.627)"><path id="path215102-7-3" d="M585.53 194.755c.05.273.025.121.062.455a5.828 5.828 0 0 1-.837 3.105c-.321.388-.412.563-.843.83a2.564 2.564 0 0 1-1.589.364c-.187-.018-.363-.079-.545-.121-.461-.237-.6-.255-.964-.649-.613-.66-.867-1.54-.952-2.42 0-.212-.006-.418.006-.63.024-.68.163-1.358.388-2.001" style="display:inline;fill:none;stroke:#000;stroke-width:.999999"/><path id="path215104-8-1" d="M588.696 199.849c.558.345 1.134.655 1.764.843.498.084.63.163 1.122.024.764-.218 1.37-.837 1.825-1.45.23-.43.334-.545.412-1.03a2.485 2.485 0 0 0-.266-1.613c-.097-.158-.23-.297-.34-.443-.382-.321-.479-.455-.952-.63a2.525 2.525 0 0 0-1.789.048c-.206.085-.388.218-.588.327-.515.45-.648.492-1.024 1.092-.752 1.194-.958 2.632-1.146 4.002-.03.412-.08.825-.091 1.243-.012.376.006.752.024 1.122.055 1.25.206 2.486.382 3.717.018.115.055.74.218.837.08.054-.018-.491.037-.443-.03-1.152-.17-2.304-.213-3.456a140.53 140.53 0 0 1-.242-5.53c-.043-1.274-.121-2.553-.14-3.827" style="display:inline;fill:none;stroke:#000;stroke-width:.999999"/></g></g></svg>