<svg xmlns="http://www.w3.org/2000/svg" xmlns:xlink="http://www.w3.org/1999/xlink" id="svg158" width="456" height="420" preserveAspectRatio="none" version="1.1" viewBox="-10 -94.578 456 420"><style id="style1" type="text/css">.axes,.hairlines{stroke:#000;stroke-width:.9}.hairlines{stroke:#999}.axes-arrows{stroke-width:1.1;stroke:#000;fill:none;stroke-linecap:round;stroke-linejoin:round}.axes-labels{stroke:none;fill:#000}.graph{stroke:red;stroke-width:1.7;fill:none}.difference-arrows-bodies,.difference-arrows-bookends{stroke-width:2.2;fill:none;stroke:#000}.difference-arrows-bookends{stroke-linecap:square}.difference-arrows-tips{fill:none;stroke-width:2.5;stroke:#000;stroke-linejoin:round;stroke-linecap:round}</style><defs id="defs1"><path id="STIXWEBNORMALI-1D465" stroke-width="1" d="m305 288 45 69c26 40 61 84 111 84 32 0 49-12 49-33 0-19-13-42-39-42-22 0-27 9-44 9-30 0-41-16-55-38l-55-85c30-62 53-197 98-197 16 0 40 14 61 57l14-10C478 87 433-9 375-9c-41 0-60 41-73 77l-40 113-63-98C167 34 138-9 82-9 46-9 30 16 30 38c0 16 13 37 38 37 26 0 22-20 47-20 12 0 38 10 70 59l65 101-33 92c-17 48-43 89-98 89-13 0-28-2-38-6l-3 18 132 33c44-24 63-65 75-98z"/><path id="STIXWEBNORMALI-1D453" stroke-width="1" d="M248 437h37c63 0 58 77 101 141 31 47 74 90 150 90 50 0 79-24 79-59 0-28-21-40-41-40-28 0-35 11-35 25s9 29 9 37c0 5-3 8-15 8-50 0-89-54-110-132l-19-70h80l-12-38h-76L317 93c-7-27-15-65-30-102-33-83-87-178-175-178-48 0-72 24-72 54 0 24 14 49 43 49 27 0 37-18 37-33 0-19-16-20-16-32 0-6 6-9 15-9 65 0 95 158 110 215l87 342h-77z"/><path id="STIXWEBMAIN-28" stroke-width="1" d="m304-161-12-16C134-87 48 82 48 252c0 185 87 329 247 424l9-16C165 541 134 448 134 255c0-186 30-299 170-416Z"/><path id="STIXWEBMAIN-29" stroke-width="1" d="m29 660 12 16c153-92 244-259 244-429 0-185-88-327-247-424l-9 16C171-44 199 50 199 244c0 187-25 302-170 416Z"/><path id="STIXWEBMAIN-2B" stroke-width="1" d="M636 220H375V-41h-66v261H48v66h261v261h66V286h261z"/><path id="STIXWEBNORMALI-210E" stroke-width="1" d="m469 106 14-11C454 61 405-11 350-11c-18 0-41 10-41 42 0 12 1 26 64 267 2 7 7 29 7 44 0 19-7 35-24 35-36 0-102-85-134-133-34-51-62-102-67-122L123 0H45l152 600c1 4 2 7 2 10 0 13-10 22-31 22-10 0-21-1-29-2l-2 14 159 24-109-416h4c53 58 125 189 216 189 42 0 57-34 57-70 0-22-6-43-11-64L395 77c-1-5-2-7-2-10 0-6 3-14 13-14 22 0 49 35 63 53z"/><path id="STIXWEBMAIN-2212" stroke-width="1" d="M621 220H64v66h557z"/><clipPath id="trbl_clip_0_450_312.75_0"><path id="path1" d="M0 0h450v312.75H0Z"/></clipPath></defs><g id="axes"><path id="path6" d="m5.97 271.619 405.63-.604" class="axes"/><path id="path7" d="M89.397 316.446 90-61.093" class="axes"/></g><g id="axes arrows"><path id="path8" d="M406.067 263.098c0 3.167 5.344 7.917 7.126 7.917-1.782 0-7.126 4.751-7.126 7.918" class="axes-arrows"/><path id="path9" d="M82.082-53.966c3.167 0 7.918-5.345 7.918-7.127 0 1.782 4.75 7.127 7.918 7.127" class="axes-arrows"/></g><g id="axes labels" style="display:inline"><g id="g13" class="axes-labels" transform="matrix(.01904 0 0 -.01904 74.15 -694.046)"><use xlink:href="#STIXWEBNORMALI-1D453" id="use10" x="0" y="0"/><use xlink:href="#STIXWEBMAIN-28" id="use11" x="615" y="0"/><use xlink:href="#STIXWEBNORMALI-1D465" id="use12" x="949" y="0"/><use xlink:href="#STIXWEBMAIN-29" id="use13" x="1499" y="0"/></g><path id="use1" stroke-width=".019" d="M132.674-713.202q0-.267.285-.914.286-.648.914-1.352.629-.705 1.41-.685.78 0 1.256.437.476.438.495 1.219-.038.362-.057.4 0 .057-.305.876-.304.818-.628 1.847-.324 1.028-.305 1.637 0 .819.267 1.142.266.324.8.343.437 0 .818-.21.381-.209.59-.437.21-.229.514-.629 0-.019.096-.38.095-.362.266-1.124.172-.761.362-1.409.724-2.856.8-2.989.247-.514.818-.514.248 0 .4.133.153.134.21.229.057.095.038.171 0 .248-.933 3.998-.933 3.751-1.066 4.113-.534 1.58-1.847 2.513-1.314.933-2.628.952-.857 0-1.504-.418-.647-.42-.647-1.257 0-.419.133-.705.133-.285.362-.418.228-.134.38-.19.153-.058.324-.058.838 0 .838.8 0 .38-.229.666-.228.286-.437.38-.21.096-.248.096l-.057.02q.038.094.362.228.323.133.647.133h.152q.324 0 .495-.038.629-.172 1.162-.724.533-.552.819-1.18.285-.629.437-1.066.153-.438.153-.572l-.114.077q-.115.076-.362.209-.248.133-.495.228-.381.096-.743.096-.876 0-1.542-.42-.666-.418-.876-1.351-.019-.133-.019-.59 0-1.086.667-2.837.666-1.752.666-2.228v-.267q0-.057-.076-.133-.076-.076-.21-.076h-.076q-.438 0-.8.362-.361.362-.57.78-.21.42-.324.8-.115.38-.153.419-.038.038-.304.038h-.267q-.114-.114-.114-.171z"/><path id="use2" stroke-width=".019" d="M148.096-714.345q0-.247.267-.38h12.128q.286.152.286.38 0 .21-.267.362l-6.054.02H148.4q-.305-.096-.305-.382zm0 3.694q0-.286.305-.38h12.11q.266.19.266.38 0 .248-.286.38h-12.128q-.267-.132-.267-.38z"/><path id="use3" stroke-width=".019" d="M169.383-704.653q.038 0 .114.038.076.038.21.057.133.019.228.019.248 0 .457-.248.21-.247.305-.552.19-.514.647-2.913t.876-4.57q.419-2.17.419-2.19v-.056h-.895q-.895 0-.952-.038-.076-.057-.076-.19l.133-.534q.038-.095.152-.095.114 0 .895-.019.914 0 .914-.019 0-.038.171-.952.172-.914.229-1.104.704-3.142 2.78-3.142.704.038 1.161.419.457.38.457 1.009 0 .685-.4.99-.4.305-.8.324-.837 0-.837-.8 0-.362.21-.628.209-.267.456-.4l.172-.095q-.305-.114-.572-.114-.228 0-.438.19-.209.19-.285.533-.133.552-.305 1.485-.171.933-.304 1.58-.134.648-.134.686 0 .038 1.048.038.856 0 .99.019.133.019.209.114.019.076-.038.324-.057.247-.095.305-.038.095-.172.095-.133 0-1.028.019h-1.066l-.438 2.323q-.914 4.722-1.276 5.902-.514 1.618-1.332 2.4-.705.608-1.39.608-.61 0-1.105-.361-.495-.362-.495-1.029 0-.704.4-1.028.4-.323.8-.323.838 0 .838.8 0 .361-.21.628-.21.266-.457.4z"/><path id="use4" stroke-width=".019" d="M179.417-712.498q0-1.314.19-2.494.19-1.18.438-2.037t.705-1.676q.457-.819.723-1.276.267-.456.8-.99.533-.533.628-.647.095-.114.476-.4h.324q.267 0 .267.172 0 .057-.324.4-.324.342-.78 1.009-.458.666-.934 1.637-.476.971-.8 2.627-.323 1.657-.323 3.675t.324 3.656q.323 1.637.78 2.646.457 1.01.933 1.638.476.628.8 1.009.324.38.324.4 0 .171-.286.171h-.305l-.533-.457q-1.79-1.618-2.608-4.036-.819-2.418-.819-5.027z"/><path id="use5" stroke-width=".019" d="M186.024-713.24q.133-.8 1.028-1.847t2.209-1.066q.666 0 1.218.342.552.343.819.857.8-1.2 1.923-1.2.704 0 1.219.42.514.418.533 1.123 0 .552-.267.895-.266.342-.514.419-.248.076-.438.076-.362 0-.59-.21-.229-.21-.229-.552 0-.876.952-1.2-.21-.247-.761-.247-.248 0-.362.038-.724.305-1.066 1.257-1.143 4.208-1.143 4.912 0 .533.305.762.305.228.666.228.705 0 1.39-.628.686-.628.933-1.542.057-.19.115-.21.057-.019.304-.038h.076q.286 0 .286.152 0 .02-.038.21-.305 1.085-1.18 1.923-.876.838-2.038.838-1.333 0-2.018-1.2-.78 1.18-1.79 1.18h-.114q-.933 0-1.333-.494-.4-.495-.419-1.048 0-.609.362-.99.362-.38.857-.38.818 0 .818.8 0 .38-.228.666-.229.285-.438.38-.21.096-.247.096l-.058.019q0 .019.115.076.114.057.304.133.19.076.362.057.686 0 1.18-.857.172-.304.438-1.294.267-.99.534-2.057.266-1.066.304-1.256.095-.514.095-.743 0-.533-.285-.761-.286-.229-.648-.229-.761 0-1.428.61-.666.609-.932 1.56-.039.172-.096.191-.057.019-.304.038h-.267q-.114-.114-.114-.21z"/><path id="use6" stroke-width=".019" d="m197.086-721.999.076-.019H197.582l.532.457q1.79 1.619 2.609 4.037.818 2.418.818 5.026 0 1.295-.19 2.494-.19 1.2-.438 2.038-.247.838-.704 1.675-.457.838-.724 1.276-.266.438-.78.971-.515.533-.61.628-.095.096-.438.362l-.076.076h-.438q-.057 0-.095-.057t-.057-.171q.019-.02.21-.248 2.95-3.065 2.95-9.044 0-5.978-2.95-9.044-.191-.228-.21-.247 0-.153.095-.21z"/><path id="path141" stroke-width=".019" d="M86.237-81.691q0-.267.286-.914.285-.648.913-1.352.629-.705 1.41-.686.78 0 1.256.438t.495 1.219q-.038.362-.057.4 0 .057-.305.875-.304.82-.628 1.847-.324 1.029-.305 1.638 0 .819.267 1.142.266.324.8.343.438 0 .818-.21.381-.209.59-.437.21-.229.515-.629 0-.019.095-.38.095-.362.266-1.124.172-.762.362-1.409.724-2.856.8-2.99.247-.513.819-.513.247 0 .4.133.152.133.209.229.057.095.038.17 0 .248-.933 4-.933 3.75-1.066 4.112-.533 1.58-1.847 2.513-1.314.933-2.628.952-.856 0-1.504-.419-.647-.419-.647-1.256 0-.42.133-.705t.362-.419q.228-.133.38-.19.153-.057.324-.057.838 0 .838.8 0 .38-.228.666-.229.285-.438.38-.21.096-.248.096l-.057.019q.038.095.362.228.323.134.647.134h.153q.323 0 .495-.038.628-.172 1.161-.724t.819-1.18q.285-.629.438-1.067.152-.438.152-.57l-.114.075q-.115.076-.362.21-.248.133-.495.228-.38.095-.743.095-.875 0-1.542-.418-.666-.42-.876-1.352-.019-.134-.019-.59 0-1.086.667-2.837.666-1.752.666-2.228v-.267q0-.057-.076-.133-.076-.076-.21-.076h-.076q-.438 0-.8.362-.361.361-.57.78-.21.42-.324.8-.115.38-.153.419-.038.038-.304.038h-.267q-.114-.114-.114-.171z"/><path id="path179" stroke-width=".019" d="M479.738-48.949q.009-.163.205-.55.197-.387.606-.798.408-.41.886-.373.478.027.755.311t.262.763q-.035.22-.048.243-.002.035-.216.527-.214.49-.447 1.11-.233.619-.241.993-.028.502.125.709.152.207.478.237.268.014.509-.101.24-.116.376-.249t.336-.367q0-.012.071-.23.07-.219.201-.68.13-.46.269-.85.54-1.726.59-1.805.17-.307.519-.288.152.008.24.095.09.087.121.147.032.06.018.106-.01.152-.706 2.419-.697 2.266-.791 2.484-.38.95-1.216 1.477-.836.528-1.642.495-.525-.028-.907-.307-.383-.278-.355-.791.014-.257.105-.427.092-.17.236-.245.145-.074.24-.104t.2-.024q.513.028.487.518-.013.233-.163.4-.15.168-.28.22-.132.05-.156.05l-.035.01q.02.059.214.151.193.093.392.104l.093.005q.198.01.305-.007.39-.084.736-.404.345-.32.54-.696.197-.375.305-.638.108-.264.112-.345l-.072.042q-.073.043-.229.117-.156.073-.31.123-.237.046-.459.033-.537-.029-.93-.308-.395-.279-.492-.858-.008-.082.009-.362.037-.665.504-1.716.467-1.05.483-1.342v-.023l.009-.14q.002-.035-.043-.085-.044-.049-.125-.053l-.047-.003q-.268-.014-.502.195-.234.21-.376.46-.143.249-.225.478-.083.23-.108.252-.024.022-.188.013l-.163-.01q-.066-.073-.064-.108z"/><path id="path183" stroke-width=".019" d="M490.275-47.646q.038-.147.217-.184l7.195 1.902q.145.136.11.271-.033.124-.215.173l-3.595-.939-3.591-.95q-.166-.104-.121-.273zm-.58 2.191q.045-.17.24-.178l7.184 1.9q.128.154.098.267-.039.147-.229.181l-7.194-1.902q-.138-.121-.099-.268z"/><g id="g187" style="stroke-width:.834117" transform="rotate(21.953 410.935 142.88) scale(1.19888)"><path id="path184" stroke-width=".016" d="M355.829-48.628q.019 0 .058.02.039.02.107.029.068.01.117.01.127 0 .234-.127.107-.127.156-.283.097-.263.331-1.49.234-1.228.448-2.34.215-1.11.215-1.12v-.029h-.458q-.458 0-.487-.02-.04-.029-.04-.097l.069-.273q.02-.049.078-.049.058 0 .458-.01.467 0 .467-.009 0-.02.088-.487.088-.468.117-.565.36-1.608 1.423-1.608.36.02.594.214.234.195.234.517 0 .35-.205.506-.204.156-.409.166-.429 0-.429-.41 0-.184.108-.32.107-.137.233-.205l.088-.05q-.156-.058-.292-.058-.117 0-.224.098-.107.097-.146.273-.069.282-.156.76-.088.477-.156.809-.068.33-.068.35 0 .02.535.02.439 0 .507.01t.107.058q.01.039-.02.166-.028.126-.048.156-.02.048-.088.048-.068 0-.526.01h-.545l-.225 1.189q-.467 2.416-.652 3.02-.264.829-.683 1.228-.36.312-.71.312-.313 0-.566-.185-.253-.185-.253-.526 0-.36.204-.526.205-.166.41-.166.428 0 .428.41 0 .184-.107.32-.107.137-.234.206z"/><path id="path185" stroke-width=".016" d="M360.964-52.642q0-.673.097-1.277.098-.604.224-1.043.127-.438.36-.857.235-.42.371-.653.137-.234.41-.507.272-.273.321-.331.049-.059.244-.205h.166q.136 0 .136.088 0 .03-.166.205t-.4.516q-.233.341-.477.838-.243.497-.41 1.345-.165.848-.165 1.88 0 1.033.166 1.871.166.839.4 1.355.233.516.477.838.243.322.41.516.165.195.165.205 0 .088-.146.088h-.156l-.273-.234q-.916-.828-1.335-2.066-.42-1.237-.42-2.572z"/><path id="path186" stroke-width=".016" d="M364.345-53.023q.068-.409.526-.945t1.13-.545q.342 0 .624.175.283.175.42.438.409-.613.984-.613.36 0 .623.214t.273.575q0 .282-.136.458-.137.175-.263.214-.127.04-.225.04-.185 0-.302-.108-.117-.107-.117-.283 0-.448.488-.613-.108-.127-.39-.127-.127 0-.185.02-.37.155-.546.643-.585 2.153-.585 2.514 0 .272.156.39.156.116.341.116.36 0 .712-.321.35-.322.477-.79.03-.097.059-.107.029-.01.156-.02h.039q.146 0 .146.079 0 .01-.02.107-.156.555-.604.984-.448.429-1.043.429-.682 0-1.032-.614-.4.604-.916.604h-.059q-.477 0-.682-.253-.205-.254-.214-.536 0-.312.185-.507t.438-.195q.42 0 .42.41 0 .194-.118.34-.117.147-.224.195-.107.05-.127.05l-.029.009q0 .01.059.039.058.029.156.068.097.039.185.03.35 0 .604-.44.088-.155.224-.662.137-.507.273-1.052.136-.546.156-.643.049-.264.049-.38 0-.273-.147-.39-.146-.117-.33-.117-.39 0-.732.312-.34.311-.477.799-.02.087-.049.097-.03.01-.156.02h-.136q-.059-.059-.059-.108z"/><path id="path187" stroke-width=".016" d="m370.007-57.505.039-.01H370.26l.273.234q.916.828 1.335 2.066.419 1.238.419 2.573 0 .662-.097 1.276-.098.614-.225 1.043-.126.429-.36.857-.234.429-.37.653-.137.224-.4.497t-.312.322q-.048.048-.224.185l-.039.039h-.224q-.03 0-.049-.03-.02-.029-.029-.087.01-.01.107-.127 1.51-1.569 1.51-4.628 0-3.06-1.51-4.629-.097-.117-.107-.127 0-.078.049-.107z"/></g><g id="g200" transform="translate(0 -659.512)"><path id="path188" stroke-width=".019" d="M335.825-46.51q.007-.135.17-.455.163-.321.502-.662.339-.34.734-.308.397.021.626.257.23.236.218.632-.03.183-.04.202-.002.029-.18.436-.177.407-.37.92-.193.514-.2.824-.023.415.104.587.126.172.396.196.223.013.422-.083.199-.096.312-.206.112-.11.278-.305 0-.01.06-.19.057-.182.166-.564.108-.382.223-.705.446-1.43.489-1.496.14-.254.43-.238.126.007.2.079.073.072.1.122.026.05.014.088-.007.125-.585 2.004t-.656 2.059q-.315.787-1.008 1.225-.693.437-1.36.41-.436-.024-.753-.255-.317-.23-.293-.656.011-.212.087-.354.075-.141.195-.202.12-.062.199-.086.079-.025.166-.02.425.023.403.429-.01.193-.135.332-.124.139-.233.181-.109.043-.128.042l-.03.008q.017.05.178.126.16.076.325.085l.077.004q.165.01.253-.006.324-.069.61-.335.286-.265.448-.576.163-.311.252-.53.09-.218.094-.285l-.06.035q-.06.036-.19.096-.13.061-.258.103-.196.037-.38.027-.444-.024-.771-.255t-.407-.711q-.006-.068.007-.3.03-.551.417-1.422.387-.871.4-1.113l.001-.02.006-.115q.002-.03-.035-.07-.036-.041-.104-.045l-.038-.002q-.223-.012-.416.162-.194.173-.312.38-.118.207-.187.397-.069.19-.089.209-.02.018-.156.01l-.135-.007q-.055-.061-.053-.09z"/><path id="path189" stroke-width=".019" d="M344.558-45.43q.032-.121.18-.152l5.964 1.577q.12.112.09.224-.026.103-.177.143l-2.98-.777-2.977-.788q-.137-.086-.1-.227zm-.48 1.817q.037-.14.2-.148l5.953 1.574q.106.129.082.222-.033.122-.19.15l-5.963-1.577q-.114-.1-.082-.221z"/><g id="g193" style="stroke-width:1.00636" transform="scale(.99368) rotate(21.953 327.073 -44.147)"><path id="path190" stroke-width=".019" d="M355.829-48.628q.019 0 .058.02.039.02.107.029.068.01.117.01.127 0 .234-.127.107-.127.156-.283.097-.263.331-1.49.234-1.228.448-2.34.215-1.11.215-1.12v-.029h-.458q-.458 0-.487-.02-.04-.029-.04-.097l.069-.273q.02-.049.078-.049.058 0 .458-.01.467 0 .467-.009 0-.02.088-.487.088-.468.117-.565.36-1.608 1.423-1.608.36.02.594.214.234.195.234.517 0 .35-.205.506-.204.156-.409.166-.429 0-.429-.41 0-.184.108-.32.107-.137.233-.205l.088-.05q-.156-.058-.292-.058-.117 0-.224.098-.107.097-.146.273-.069.282-.156.76-.088.477-.156.809-.068.33-.068.35 0 .02.535.02.439 0 .507.01t.107.058q.01.039-.02.166-.028.126-.048.156-.02.048-.088.048-.068 0-.526.01h-.545l-.225 1.189q-.467 2.416-.652 3.02-.264.829-.683 1.228-.36.312-.71.312-.313 0-.566-.185-.253-.185-.253-.526 0-.36.204-.526.205-.166.41-.166.428 0 .428.41 0 .184-.107.32-.107.137-.234.206z"/><path id="path191" stroke-width=".019" d="M360.964-52.642q0-.673.097-1.277.098-.604.224-1.043.127-.438.36-.857.235-.42.371-.653.137-.234.41-.507.272-.273.321-.331.049-.059.244-.205h.166q.136 0 .136.088 0 .03-.166.205t-.4.516q-.233.341-.477.838-.243.497-.41 1.345-.165.848-.165 1.88 0 1.033.166 1.871.166.839.4 1.355.233.516.477.838.243.322.41.516.165.195.165.205 0 .088-.146.088h-.156l-.273-.234q-.916-.828-1.335-2.066-.42-1.237-.42-2.572z"/><path id="path192" stroke-width=".019" d="M364.345-53.023q.068-.409.526-.945t1.13-.545q.342 0 .624.175.283.175.42.438.409-.613.984-.613.36 0 .623.214t.273.575q0 .282-.136.458-.137.175-.263.214-.127.04-.225.04-.185 0-.302-.108-.117-.107-.117-.283 0-.448.488-.613-.108-.127-.39-.127-.127 0-.185.02-.37.155-.546.643-.585 2.153-.585 2.514 0 .272.156.39.156.116.341.116.36 0 .712-.321.35-.322.477-.79.03-.097.059-.107.029-.01.156-.02h.039q.146 0 .146.079 0 .01-.02.107-.156.555-.604.984-.448.429-1.043.429-.682 0-1.032-.614-.4.604-.916.604h-.059q-.477 0-.682-.253-.205-.254-.214-.536 0-.312.185-.507t.438-.195q.42 0 .42.41 0 .194-.118.34-.117.147-.224.195-.107.05-.127.05l-.029.009q0 .01.059.039.058.029.156.068.097.039.185.03.35 0 .604-.44.088-.155.224-.662.137-.507.273-1.052.136-.546.156-.643.049-.264.049-.38 0-.273-.147-.39-.146-.117-.33-.117-.39 0-.732.312-.34.311-.477.799-.02.087-.049.097-.03.01-.156.02h-.136q-.059-.059-.059-.108z"/><path id="path193" stroke-width=".019" d="m370.007-57.505.039-.01H370.26l.273.234q.916.828 1.335 2.066.419 1.238.419 2.573 0 .662-.097 1.276-.098.614-.225 1.043-.126.429-.36.857-.234.429-.37.653-.137.224-.4.497t-.312.322q-.048.048-.224.185l-.039.039h-.224q-.03 0-.049-.03-.02-.029-.029-.087.01-.01.107-.127 1.51-1.569 1.51-4.628 0-3.06-1.51-4.629-.097-.117-.107-.127 0-.078.049-.107z"/></g></g><path id="path194" stroke-width=".019" d="M398.435-709.506q.008-.148.187-.5.179-.35.55-.724.37-.372.804-.338.435.024.686.282.251.258.238.693-.032.2-.044.22-.002.032-.196.479-.194.446-.406 1.008-.21.562-.219.901-.025.456.114.644.138.188.434.215.244.013.462-.091.218-.105.342-.226.123-.12.305-.334 0-.01.064-.209.064-.198.183-.617.118-.418.244-.773.49-1.566.536-1.638.153-.279.471-.261.138.008.218.086.081.079.11.134.029.054.016.096-.008.138-.64 2.196-.634 2.058-.72 2.255-.344.863-1.103 1.342-.76.48-1.491.45-.477-.026-.824-.279-.348-.253-.322-.719.013-.233.095-.388.083-.154.214-.222.132-.067.218-.094.087-.027.182-.022.466.026.442.47-.012.212-.148.364-.136.152-.255.199-.12.046-.14.045l-.033.01q.018.053.194.137.176.084.356.094l.085.005q.18.01.277-.006.355-.076.668-.367.313-.29.491-.632.178-.34.277-.58.098-.238.102-.313l-.066.04q-.066.038-.208.105-.142.066-.282.112-.215.041-.416.03-.487-.027-.845-.28t-.446-.779q-.007-.074.008-.329.033-.603.457-1.557.424-.955.438-1.22l.001-.02.007-.128q.002-.032-.038-.076-.04-.045-.114-.049l-.042-.002q-.244-.013-.456.177-.213.19-.342.417-.13.226-.204.435-.076.208-.098.228-.022.02-.17.012l-.149-.008q-.06-.067-.058-.099z"/><path id="path195" stroke-width=".019" d="M408.003-708.323q.035-.133.198-.167l6.533 1.728q.132.122.1.246-.03.112-.196.156l-3.264-.852-3.261-.862q-.15-.095-.11-.249zm-.526 1.99q.04-.154.218-.162l6.523 1.725q.116.14.09.243-.036.133-.209.165l-6.533-1.728q-.124-.11-.09-.243z"/><g id="g199" style="stroke-width:.918594" transform="matrix(1.00969 .40698 -.40698 1.00969 38.375 -795.149)"><path id="path196" stroke-width=".017" d="M355.829-48.628q.019 0 .058.02.039.02.107.029.068.01.117.01.127 0 .234-.127.107-.127.156-.283.097-.263.331-1.49.234-1.228.448-2.34.215-1.11.215-1.12v-.029h-.458q-.458 0-.487-.02-.04-.029-.04-.097l.069-.273q.02-.049.078-.049.058 0 .458-.01.467 0 .467-.009 0-.02.088-.487.088-.468.117-.565.36-1.608 1.423-1.608.36.02.594.214.234.195.234.517 0 .35-.205.506-.204.156-.409.166-.429 0-.429-.41 0-.184.108-.32.107-.137.233-.205l.088-.05q-.156-.058-.292-.058-.117 0-.224.098-.107.097-.146.273-.069.282-.156.76-.088.477-.156.809-.068.33-.068.35 0 .02.535.02.439 0 .507.01t.107.058q.01.039-.02.166-.028.126-.048.156-.02.048-.088.048-.068 0-.526.01h-.545l-.225 1.189q-.467 2.416-.652 3.02-.264.829-.683 1.228-.36.312-.71.312-.313 0-.566-.185-.253-.185-.253-.526 0-.36.204-.526.205-.166.41-.166.428 0 .428.41 0 .184-.107.32-.107.137-.234.206z"/><path id="path197" stroke-width=".017" d="M360.964-52.642q0-.673.097-1.277.098-.604.224-1.043.127-.438.36-.857.235-.42.371-.653.137-.234.41-.507.272-.273.321-.331.049-.059.244-.205h.166q.136 0 .136.088 0 .03-.166.205t-.4.516q-.233.341-.477.838-.243.497-.41 1.345-.165.848-.165 1.88 0 1.033.166 1.871.166.839.4 1.355.233.516.477.838.243.322.41.516.165.195.165.205 0 .088-.146.088h-.156l-.273-.234q-.916-.828-1.335-2.066-.42-1.237-.42-2.572z"/><path id="path198" stroke-width=".017" d="M364.345-53.023q.068-.409.526-.945t1.13-.545q.342 0 .624.175.283.175.42.438.409-.613.984-.613.36 0 .623.214t.273.575q0 .282-.136.458-.137.175-.263.214-.127.04-.225.04-.185 0-.302-.108-.117-.107-.117-.283 0-.448.488-.613-.108-.127-.39-.127-.127 0-.185.02-.37.155-.546.643-.585 2.153-.585 2.514 0 .272.156.39.156.116.341.116.36 0 .712-.321.35-.322.477-.79.03-.097.059-.107.029-.01.156-.02h.039q.146 0 .146.079 0 .01-.02.107-.156.555-.604.984-.448.429-1.043.429-.682 0-1.032-.614-.4.604-.916.604h-.059q-.477 0-.682-.253-.205-.254-.214-.536 0-.312.185-.507t.438-.195q.42 0 .42.41 0 .194-.118.34-.117.147-.224.195-.107.05-.127.05l-.029.009q0 .01.059.039.058.029.156.068.097.039.185.03.35 0 .604-.44.088-.155.224-.662.137-.507.273-1.052.136-.546.156-.643.049-.264.049-.38 0-.273-.147-.39-.146-.117-.33-.117-.39 0-.732.312-.34.311-.477.799-.02.087-.049.097-.03.01-.156.02h-.136q-.059-.059-.059-.108z"/><path id="path199" stroke-width=".017" d="m370.007-57.505.039-.01H370.26l.273.234q.916.828 1.335 2.066.419 1.238.419 2.573 0 .662-.097 1.276-.098.614-.225 1.043-.126.429-.36.857-.234.429-.37.653-.137.224-.4.497t-.312.322q-.048.048-.224.185l-.039.039h-.224q-.03 0-.049-.03-.02-.029-.029-.087.01-.01.107-.127 1.51-1.569 1.51-4.628 0-3.06-1.51-4.629-.097-.117-.107-.127 0-.078.049-.107z"/></g><g id="g206" style="stroke-width:.966305" transform="matrix(1.03487 0 0 1.03487 -13.244 1.731)"><path id="path200" stroke-width=".018" d="M335.825-46.51q.007-.135.17-.455.163-.321.502-.662.339-.34.734-.308.397.021.626.257.23.236.218.632-.03.183-.04.202-.002.029-.18.436-.177.407-.37.92-.193.514-.2.824-.023.415.104.587.126.172.396.196.223.013.422-.083.199-.096.312-.206.112-.11.278-.305 0-.01.06-.19.057-.182.166-.564.108-.382.223-.705.446-1.43.489-1.496.14-.254.43-.238.126.007.2.079.073.072.1.122.026.05.014.088-.007.125-.585 2.004t-.656 2.059q-.315.787-1.008 1.225-.693.437-1.36.41-.436-.024-.753-.255-.317-.23-.293-.656.011-.212.087-.354.075-.141.195-.202.12-.062.199-.086.079-.025.166-.02.425.023.403.429-.01.193-.135.332-.124.139-.233.181-.109.043-.128.042l-.03.008q.017.05.178.126.16.076.325.085l.077.004q.165.01.253-.006.324-.069.61-.335.286-.265.448-.576.163-.311.252-.53.09-.218.094-.285l-.06.035q-.06.036-.19.096-.13.061-.258.103-.196.037-.38.027-.444-.024-.771-.255t-.407-.711q-.006-.068.007-.3.03-.551.417-1.422.387-.871.4-1.113l.001-.02.006-.115q.002-.03-.035-.07-.036-.041-.104-.045l-.038-.002q-.223-.012-.416.162-.194.173-.312.38-.118.207-.187.397-.069.19-.089.209-.02.018-.156.01l-.135-.007q-.055-.061-.053-.09z"/><path id="path201" stroke-width=".018" d="M344.558-45.43q.032-.121.18-.152l5.964 1.577q.12.112.09.224-.026.103-.177.143l-2.98-.777-2.977-.788q-.137-.086-.1-.227zm-.48 1.817q.037-.14.2-.148l5.953 1.574q.106.129.082.222-.033.122-.19.15l-5.963-1.577q-.114-.1-.082-.221z"/><g id="g205" style="stroke-width:.972451" transform="scale(.99368) rotate(21.953 327.073 -44.147)"><path id="path202" stroke-width=".019" d="M355.829-48.628q.019 0 .058.02.039.02.107.029.068.01.117.01.127 0 .234-.127.107-.127.156-.283.097-.263.331-1.49.234-1.228.448-2.34.215-1.11.215-1.12v-.029h-.458q-.458 0-.487-.02-.04-.029-.04-.097l.069-.273q.02-.049.078-.049.058 0 .458-.01.467 0 .467-.009 0-.02.088-.487.088-.468.117-.565.36-1.608 1.423-1.608.36.02.594.214.234.195.234.517 0 .35-.205.506-.204.156-.409.166-.429 0-.429-.41 0-.184.108-.32.107-.137.233-.205l.088-.05q-.156-.058-.292-.058-.117 0-.224.098-.107.097-.146.273-.069.282-.156.76-.088.477-.156.809-.068.33-.068.35 0 .02.535.02.439 0 .507.01t.107.058q.01.039-.02.166-.028.126-.048.156-.02.048-.088.048-.068 0-.526.01h-.545l-.225 1.189q-.467 2.416-.652 3.02-.264.829-.683 1.228-.36.312-.71.312-.313 0-.566-.185-.253-.185-.253-.526 0-.36.204-.526.205-.166.41-.166.428 0 .428.41 0 .184-.107.32-.107.137-.234.206z"/><path id="path203" stroke-width=".019" d="M360.964-52.642q0-.673.097-1.277.098-.604.224-1.043.127-.438.36-.857.235-.42.371-.653.137-.234.41-.507.272-.273.321-.331.049-.059.244-.205h.166q.136 0 .136.088 0 .03-.166.205t-.4.516q-.233.341-.477.838-.243.497-.41 1.345-.165.848-.165 1.88 0 1.033.166 1.871.166.839.4 1.355.233.516.477.838.243.322.41.516.165.195.165.205 0 .088-.146.088h-.156l-.273-.234q-.916-.828-1.335-2.066-.42-1.237-.42-2.572z"/><path id="path204" stroke-width=".019" d="M364.345-53.023q.068-.409.526-.945t1.13-.545q.342 0 .624.175.283.175.42.438.409-.613.984-.613.36 0 .623.214t.273.575q0 .282-.136.458-.137.175-.263.214-.127.04-.225.04-.185 0-.302-.108-.117-.107-.117-.283 0-.448.488-.613-.108-.127-.39-.127-.127 0-.185.02-.37.155-.546.643-.585 2.153-.585 2.514 0 .272.156.39.156.116.341.116.36 0 .712-.321.35-.322.477-.79.03-.097.059-.107.029-.01.156-.02h.039q.146 0 .146.079 0 .01-.02.107-.156.555-.604.984-.448.429-1.043.429-.682 0-1.032-.614-.4.604-.916.604h-.059q-.477 0-.682-.253-.205-.254-.214-.536 0-.312.185-.507t.438-.195q.42 0 .42.41 0 .194-.118.34-.117.147-.224.195-.107.05-.127.05l-.029.009q0 .01.059.039.058.029.156.068.097.039.185.03.35 0 .604-.44.088-.155.224-.662.137-.507.273-1.052.136-.546.156-.643.049-.264.049-.38 0-.273-.147-.39-.146-.117-.33-.117-.39 0-.732.312-.34.311-.477.799-.02.087-.049.097-.03.01-.156.02h-.136q-.059-.059-.059-.108z"/><path id="path205" stroke-width=".019" d="m370.007-57.505.039-.01H370.26l.273.234q.916.828 1.335 2.066.419 1.238.419 2.573 0 .662-.097 1.276-.098.614-.225 1.043-.126.429-.36.857-.234.429-.37.653-.137.224-.4.497t-.312.322q-.048.048-.224.185l-.039.039h-.224q-.03 0-.049-.03-.02-.029-.029-.087.01-.01.107-.127 1.51-1.569 1.51-4.628 0-3.06-1.51-4.629-.097-.117-.107-.127 0-.078.049-.107z"/></g></g><path id="path206" stroke-width=".019" d="M191.871 366.933q0-.247.267-.38h12.128q.286.152.286.38 0 .21-.267.362l-6.054.019h-6.055q-.305-.095-.305-.381zm0 3.694q0-.286.305-.381h12.11q.266.19.266.38 0 .248-.286.382h-12.128q-.267-.134-.267-.381z" style="fill:#f0f"/><path id="path210" stroke-width=".019" d="M256.81-714.345q0-.247.266-.38h12.129q.285.152.285.38 0 .21-.266.362l-6.055.02h-6.055q-.304-.096-.304-.382zm0 3.694q0-.286.304-.38h12.11q.266.19.266.38 0 .248-.285.38h-12.129q-.266-.132-.266-.38z"/></g><g id="notches" class="axes" style="display:inline"><path id="path13" d="M128.333 263.018v15.995"/><path id="path14" d="M220.09 263.018v15.928"/></g><g id="graphs" style="display:inline"><circle id="circle27" cx="129.092" cy="201.034" r=".1" fill="#ff8c00"/><circle id="circle29" cx="250.607" cy="-1.93" r=".1" fill="#c0f"/><path id="path30" d="M5.97 219.83c22.013 1.518 50.186 1.725 72.637-4.69 29.361-8.391 55.994-25.21 78.07-49.72 19.333-21.465 42.46-59.722 55.299-94.71 23.67-64.498 48.764-104.481 95.34-110.347 28.216-3.554 55.442 8.083 67.521 19.083" class="graph" clip-path="none" mask="none"/><path id="path173" d="M6.216-226.431c25.71 7.551 51.42 13.493 77.13 15.266 25.71 1.773 51.42-.61 77.13-9.705 25.71-9.097 51.42-24.894 77.13-49.951 25.71-25.058 51.42-59.362 77.13-105.471 25.71-46.11 64.857-130.41 125.195-137.68" class="graph" clip-path="none" mask="none"/><path id="path170" d="M-683.284 39.2h450v312.75h-450z"/><g id="g170" clip-path="url(#trbl_clip_0_450_312.75_0)" transform="translate(0 -491.507)"><path id="path169" d="M0 219.037c30 8.971 60 16.029 90 18.135 30 2.107 60-.723 90-11.529 30-10.805 60-29.571 90-59.337 30-29.765 60-70.515 90-125.289 30-54.773 60-123.555 90-209.385" class="graph"/></g><g id="g171" clip-path="none" mask="none" transform="translate(599.457 -533.722)"><path id="path171" d="M0 219.037c30 8.971 60 16.029 90 18.135 30 2.107 60-.723 90-11.529 30-10.805 60-29.571 90-59.337 30-29.765 60-70.515 90-125.289 30-54.773 60-123.555 90-209.385" class="graph" clip-path="none" mask="none"/></g><path id="path175" d="M599.453-46.494c22.013 6.465 44.025 11.552 66.038 13.07 22.013 1.518 44.025-.521 66.038-8.309 22.013-7.787 45.574-19.763 67.587-41.214 3.24-3.158 6.545-6.61 9.88-10.315 19.325-21.471 39.654-51.46 54.093-82.044 23.423-49.613 50.883-112.678 106.675-118.902" class="graph" clip-path="none" mask="none"/><path id="path181" d="M317.104 476.766c22.012 6.465 44.025 11.551 66.037 13.07 22.013 1.517 43.588 1.122 66.038-5.294 29.362-8.39 55.995-25.21 78.071-49.72 19.332-21.464 42.459-59.722 55.298-94.709 25.235-68.763 52.09-109.662 104.866-111.061" class="graph" clip-path="none" mask="none"/></g><g id="layer2" style="display:inline"><g id="g190" transform="matrix(.01904 0 0 -.01904 123.205 296.56)"><path id="use190" stroke-width="1" d="M52 289q7 42 54 97t116 56q35 0 64-18t43-45q42 63 101 63 37 0 64-22t28-59q0-29-14-47t-27-22q-13-4-23-4-19 0-31 11t-12 29q0 46 50 63-11 13-40 13-13 0-19-2-38-16-56-66-60-221-60-258 0-28 16-40t35-12q37 0 73 33t49 81q3 10 6 11t16 2h4q15 0 15-8 0-1-2-11-16-57-62-101T333-11q-70 0-106 63-41-62-94-62h-6q-49 0-70 26T35 71q0 32 19 52t45 20q43 0 43-42 0-20-12-35t-23-20q-11-5-13-5l-3-1q0-1 6-4t16-7q10-4 19-3 36 0 62 45 9 16 23 68t28 108q14 56 16 66 5 27 5 39 0 28-15 40t-34 12q-40 0-75-32t-49-82q-2-9-5-10t-16-2H58q-6 6-6 11z"/></g><path id="use191" stroke-width=".019" d="M198.612 291.11q.133-.799 1.028-1.846.895-1.047 2.208-1.066.667 0 1.219.342.552.343.819.857.8-1.2 1.923-1.2.704 0 1.218.42.515.418.534 1.123 0 .552-.267.895-.267.343-.514.419-.248.076-.438.076-.362 0-.59-.21-.229-.209-.229-.552 0-.876.952-1.2-.21-.247-.761-.247-.248 0-.362.038-.724.305-1.066 1.257-1.143 4.208-1.143 4.912 0 .534.305.762.304.229.666.229.705 0 1.39-.629.686-.628.933-1.542.057-.19.114-.21.058-.018.305-.038h.076q.286 0 .286.153 0 .019-.038.21-.305 1.084-1.18 1.922-.877.838-2.038.838-1.333 0-2.018-1.2-.781 1.181-1.79 1.181h-.114q-.933 0-1.333-.495-.4-.495-.42-1.047 0-.61.363-.99.361-.381.856-.381.82 0 .82.8 0 .38-.23.666-.228.286-.437.38-.21.096-.248.096l-.057.019q0 .019.114.076.115.057.305.133.19.077.362.058.685 0 1.18-.857.172-.305.438-1.295.267-.99.533-2.056.267-1.067.305-1.257.095-.514.095-.743 0-.533-.285-.761-.286-.229-.648-.229-.761 0-1.428.61-.666.609-.933 1.56-.038.172-.095.191-.057.02-.305.038h-.266q-.114-.114-.114-.21z"/><path id="use192" stroke-width=".019" d="M213.806 292.101v-.248q0-.247.266-.38h5.694v-2.856l.019-2.857q.19-.247.361-.247.248 0 .381.286v5.674h5.674q.286.152.286.38 0 .229-.286.381h-5.674v5.674q-.152.267-.343.267h-.076q-.228 0-.343-.267v-5.674h-5.693q-.266-.133-.266-.38z"/><path id="use193" stroke-width=".019" d="M234.408 283.609q.019 0 1.37-.095 1.353-.096 1.39-.115.23 0 .23.172 0 .21-.686 2.875-.724 2.818-.724 2.875 0 .038.133-.095 1.162-1.028 2.476-1.028 1.028 0 1.656.514.629.514.648 1.504 0 .971-.724 3.008-.724 2.038-.724 2.438.02.266.096.361.076.096.285.096.533 0 .99-.572.457-.57.743-1.561.057-.21.114-.248.057-.038.305-.038.38 0 .38.153 0 .019-.076.285-.304 1.124-.97 1.847-.648.819-1.543.819h-.095q-.895 0-1.295-.514-.4-.514-.4-1.085 0-.305.686-2.247.685-1.942.704-2.913 0-1.124-.838-1.124h-.095q-1.58 0-2.742 1.866l-.133.248-.647 2.57q-.61 2.475-.705 2.704-.247.514-.837.514-.267 0-.457-.171-.19-.172-.21-.343 0-.267 1.39-5.788l1.409-5.636q0-.248-.133-.305-.134-.057-.743-.095h-.4q-.114-.115-.114-.153 0-.038.038-.361.095-.362.248-.362z"/><g id="g207" transform="matrix(.01904 0 0 -.01904 421.286 275.096)"><path id="path207" stroke-width="1" d="M52 289q7 42 54 97t116 56q35 0 64-18t43-45q42 63 101 63 37 0 64-22t28-59q0-29-14-47t-27-22q-13-4-23-4-19 0-31 11t-12 29q0 46 50 63-11 13-40 13-13 0-19-2-38-16-56-66-60-221-60-258 0-28 16-40t35-12q37 0 73 33t49 81q3 10 6 11t16 2h4q15 0 15-8 0-1-2-11-16-57-62-101T333-11q-70 0-106 63-41-62-94-62h-6q-49 0-70 26T35 71q0 32 19 52t45 20q43 0 43-42 0-20-12-35t-23-20q-11-5-13-5l-3-1q0-1 6-4t16-7q10-4 19-3 36 0 62 45 9 16 23 68t28 108q14 56 16 66 5 27 5 39 0 28-15 40t-34 12q-40 0-75-32t-49-82q-2-9-5-10t-16-2H58q-6 6-6 11z"/></g><path id="path208" stroke-width=".019" d="M186.024-713.24q.133-.8 1.028-1.847t2.209-1.066q.666 0 1.218.342.552.343.819.857.8-1.2 1.923-1.2.705 0 1.219.42.514.418.533 1.123 0 .552-.267.895-.266.342-.514.419-.247.076-.438.076-.362 0-.59-.21-.229-.21-.229-.552 0-.876.952-1.2-.209-.247-.761-.247-.248 0-.362.038-.723.305-1.066 1.257-1.143 4.208-1.143 4.912 0 .533.305.762.305.228.666.228.705 0 1.39-.628.686-.628.933-1.542.058-.19.115-.21.057-.019.304-.038h.076q.286 0 .286.153 0 .019-.038.209-.305 1.085-1.18 1.923-.876.838-2.038.838-1.333 0-2.018-1.2-.78 1.18-1.79 1.18h-.114q-.933 0-1.333-.494-.4-.495-.419-1.047 0-.61.362-.99.362-.381.857-.381.818 0 .818.8 0 .38-.228.666-.229.285-.438.38-.21.096-.248.096l-.057.019q0 .019.115.076.114.057.304.133.19.076.362.057.685 0 1.18-.856.172-.305.438-1.295.267-.99.534-2.057.266-1.066.304-1.256.095-.514.095-.743 0-.533-.285-.761-.286-.229-.648-.229-.761 0-1.428.61-.666.609-.933 1.56-.038.172-.095.191-.057.02-.304.038h-.267q-.114-.114-.114-.21z"/><path id="path209" stroke-width=".019" d="M201.218-712.25v-.248q0-.247.267-.38h5.693v-2.857l.019-2.856q.19-.247.362-.247.247 0 .38.285v5.674h5.674q.286.153.286.381 0 .229-.286.381h-5.674v5.674q-.152.267-.342.267h-.077q-.228 0-.342-.267v-5.674h-5.693q-.267-.133-.267-.38z"/><path id="path211" stroke-width=".019" d="M287.535-712.25v-.248q0-.247.266-.38h5.693v-2.857l.02-2.856q.19-.247.361-.247.248 0 .381.285v5.674h5.674q.286.153.286.381 0 .229-.286.381h-5.674v5.674q-.152.267-.343.267h-.076q-.228 0-.343-.267v-5.674h-5.693q-.266-.133-.266-.38z"/></g></svg>