<svg xmlns="http://www.w3.org/2000/svg" width="450" height="70" viewBox="0 0 119.063 18.521"><path d="M98.269-75.056a2.838 2.838 0 0 0-.606-.715c-.085-.072-.176-.135-.264-.203-.109-.066-.213-.138-.326-.197-.59-.305-1.257-.45-1.915-.504-.19-.015-.382-.014-.572-.021-.514.01-1.035.059-1.515.259-.234.097-.422.198-.552.422-.045.077-.052.17-.079.256 0 .247.063.426.222.614.053.063.139.15.226.169-.015-.019-.025-.043-.045-.055-.08-.043-.283-.074-.352-.08-.371-.03-.7.034-1.064.1-.143.039-.287.072-.428.116-.528.165-1.09.41-1.503.786-.086.079-.158.172-.237.258-.134.233-.207.304-.24.576-.038.335.084.677.268.951.073.109.167.202.25.303.107.09.206.188.32.268.452.318.988.475 1.53.55.106.014.214.02.321.03.304.002.66.029.937-.124.004.025.084-.095.05-.092-.01 0-.02.009-.03.014.003.017.003.036.01.052.109.28.5.488.741.625.106.047.21.1.319.141.555.21 1.16.32 1.752.346.163.007.326 0 .49 0 .16-.015.321-.02.48-.045.518-.082 1.082-.277 1.485-.625.066-.057.12-.128.18-.192.033-.06.076-.116.1-.18.086-.224-.017-.384-.2-.5-.017-.004-.034-.015-.05-.012-.054.012-.023.072-.006.094.023.028.052.05.082.07.12.073.206.09.344.132.5.109 1.026.09 1.521-.041.11-.03.217-.07.325-.105.39-.15.76-.362 1.006-.71.149-.21.145-.262.221-.502.008-.09.025-.178.025-.268a1.686 1.686 0 0 0-.224-.804c-.127-.225-.192-.276-.364-.467a2.925 2.925 0 0 0-1.063-.652c-.273-.093-.344-.091-.627-.134-.226-.014-.348-.033-.57-.005-.077.01-.151.032-.226.048" style="fill:#e5f6ff;fill-opacity:1;stroke:#000;stroke-width:.264583;stroke-dasharray:none"/><g style="stroke-width:1.25"><path d="M79.762 32.461v-.08c-.407 0-.515-.099-.515-.332v-3.238l-.049-.016-.97.493v.076l.146-.054a.82.82 0 0 1 .244-.065c.114 0 .162.081.162.266v2.435c0 .298-.113.412-.515.434v.081zM82.772 28.958v-.087h-2.001l-.325.797.097.049c.228-.369.32-.445.635-.445h1.166l-1.074 3.233h.353z" style="font-size:5.42396px;font-family:STIXGeneral;-inkscape-font-specification:STIXGeneral;stroke:#000;stroke-width:0" transform="matrix(.8 0 0 .8 -25.36 56.442)"/></g><path d="M44.258 81.417v-.273h-2.301v.273z" style="font-size:5.42396px;font-family:STIXGeneral;-inkscape-font-specification:STIXGeneral;stroke:#000;stroke-width:0"/><path d="M4.181-37.592h124.046M11.095-40.708v6.33M18.495-40.708v6.33M25.894-40.708v6.33M33.293-40.708v6.33M40.693-40.708v6.33M48.092-40.708v6.33M55.492-40.708v6.33M62.89-40.708v6.33M70.29-40.708v6.33M77.69-40.708v6.33M85.09-40.708v6.33M92.488-40.708v6.33M99.888-40.708v6.33M107.287-40.708v6.33M114.687-40.708v6.33M122.086-40.708v6.33" style="fill:#e5f6ff;stroke:#000;stroke-width:.238125;stroke-dasharray:none"/><path d="M84.84 27.276h.116v2.812q0 .347.008.437.011.09.077.138.066.048.236.048h.103v.122h-1.192v-.122h.088q.19 0 .246-.053.058-.056.066-.13.01-.077.01-.44v-1.885q0-.358-.007-.432-.008-.077-.069-.132-.058-.059-.246-.059h-.114v-.121q.458-.008.678-.183zM86.408 30.833v-.165q.302-.235.763-.744.463-.51.667-.882.204-.37.204-.75 0-.452-.207-.664-.206-.214-.513-.214-.302 0-.47.196-.163.195-.163.418 0 .254.214.403.08.055.08.084 0 .048-.09.13t-.149.082q-.08 0-.193-.159-.111-.161-.111-.413 0-.405.315-.64.315-.24.691-.24.397 0 .715.247.32.246.32.731 0 .305-.142.58-.144.273-.697.837-.55.561-.887.845h1.684l-.15.593h-.125q0-.048.016-.095.008-.027.008-.072 0-.08-.035-.095-.034-.013-.185-.013z" style="font-size:5.42396px;font-family:Baskerville;-inkscape-font-specification:Baskerville;fill:#000;stroke:none;stroke-width:.238125;stroke-dasharray:none" transform="translate(-97.532 59.253)"/><path d="M90.264 27.276h.116v2.812q0 .347.008.437.01.09.077.138.066.048.236.048h.103v.122h-1.192v-.122h.088q.19 0 .246-.053.058-.056.066-.13.01-.077.01-.44v-1.885q0-.358-.007-.432-.008-.077-.069-.132-.058-.059-.246-.059h-.114v-.121q.458-.008.678-.183zM92.87 28.905q.082-.024.164-.024.39 0 .612.267.225.265.225.668 0 .484-.331.794-.331.31-.853.31-.35 0-.601-.159-.252-.159-.252-.342 0-.076.048-.13.048-.055.125-.055.137 0 .196.188.074.241.211.31.135.071.268.071.334 0 .54-.243.21-.244.21-.755 0-.41-.157-.612-.153-.201-.365-.201-.183 0-.403.222-.037.04-.077.04-.08 0-.08-.085 0-.037.04-.076.043-.043.234-.173.418-.283.553-.47.135-.189.135-.475 0-.273-.14-.421-.14-.151-.374-.151-.238 0-.423.154-.183.15-.183.386 0 .188.162.352.018.019.018.032 0 .035-.087.074-.088.04-.127.04-.083 0-.154-.124-.072-.125-.072-.27 0-.294.255-.533.254-.238.68-.238.437 0 .66.201.225.199.225.445 0 .217-.154.405-.15.186-.514.43z" style="font-size:5.42396px;font-family:Baskerville;-inkscape-font-specification:Baskerville;fill:#000;stroke:none;stroke-width:.238125;stroke-dasharray:none" transform="translate(-95.959 59.253)"/><path d="M95.688 27.276h.116v2.812q0 .347.008.437.01.09.077.138.066.048.236.048h.103v.122h-1.192v-.122h.088q.19 0 .246-.053.058-.056.066-.13.01-.077.01-.44v-1.885q0-.358-.007-.432-.008-.077-.069-.132-.058-.059-.246-.059h-.114v-.121q.458-.008.678-.183zM98.426 29.638h-1.303v-.159l1.513-2.203h.17v2.203h.243q.225 0 .267-.026.043-.027.117-.225h.116l-.06.41h-.684v.45q0 .384.013.467.016.079.088.119.071.037.265.037v.122h-1.158v-.122h.093q.159 0 .225-.043.069-.045.082-.124.013-.08.013-.456zm0-.159v-1.681l-1.154 1.681z" style="font-size:5.42396px;font-family:Baskerville;-inkscape-font-specification:Baskerville;fill:#000;stroke:none;stroke-width:.238125;stroke-dasharray:none" transform="translate(-94.464 59.253)"/><path d="M101.112 27.276h.116v2.812q0 .347.008.437.011.09.077.138.066.048.236.048h.103v.122h-1.192v-.122h.088q.19 0 .246-.053.058-.056.066-.13.01-.077.01-.44v-1.885q0-.358-.007-.432-.008-.077-.069-.132-.058-.059-.246-.059h-.114v-.121q.458-.008.678-.183zM103.082 29.01h-.137l.079-1.647h1.374q-.113.268-.166.31-.05.042-.178.042h-.93l-.042 1.097q.268-.342.657-.342.413 0 .704.331.294.331.294.821 0 .564-.33.933-.329.365-.922.365-.413 0-.644-.19-.23-.194-.23-.35 0-.07.045-.12.047-.05.127-.05.087 0 .132.053.045.05.106.212.12.328.474.328.34 0 .57-.272.233-.273.233-.888 0-.553-.19-.786-.192-.233-.451-.233-.366 0-.575.387z" style="font-size:5.42396px;font-family:Baskerville;-inkscape-font-specification:Baskerville;fill:#000;stroke:none;stroke-width:.238125;stroke-dasharray:none" transform="translate(-92.97 59.253)"/><path d="M106.536 27.276h.116v2.812q0 .347.008.437.01.09.077.138.066.048.236.048h.103v.122h-1.192v-.122h.088q.19 0 .246-.053.058-.056.066-.13.01-.077.01-.44v-1.885q0-.358-.007-.432-.008-.077-.07-.132-.057-.059-.245-.059h-.114v-.121q.458-.008.678-.183zM108.512 29.037q.164-.196.344-.294.183-.098.381-.098.43 0 .742.323t.312.81q0 .459-.302.8-.302.342-.77.342-.398 0-.67-.252-.273-.251-.384-.627-.109-.379-.109-.787 0-.842.368-1.409.37-.57.99-.57.292 0 .514.128.223.124.223.283 0 .149-.151.149-.13 0-.207-.146-.08-.151-.172-.217-.092-.064-.278-.064-.418 0-.628.371-.209.37-.209 1.115 0 .066.005.143zm-.016.704q0 .257.071.512.074.251.244.397.17.146.378.146.332 0 .496-.265.164-.265.164-.792 0-.334-.064-.52-.06-.187-.227-.312-.165-.124-.369-.124-.275 0-.484.209-.21.207-.21.75z" style="font-size:5.42396px;font-family:Baskerville;-inkscape-font-specification:Baskerville;fill:#000;stroke:none;stroke-width:.238125;stroke-dasharray:none" transform="translate(-91.633 59.253)"/><path d="M111.96 27.276h.116v2.812q0 .347.008.437.01.09.077.138.066.048.236.048h.103v.122h-1.192v-.122h.088q.19 0 .246-.053.058-.056.066-.13.01-.077.01-.44v-1.885q0-.358-.007-.432-.008-.077-.07-.132-.057-.059-.245-.059h-.114v-.121q.458-.008.678-.183zM113.626 28.004l.222-.728h.093q.005.053.042.071.04.016.21.016h1.371l-.95 2.898q-.157.476-.239.569-.08.09-.164.09-.159 0-.159-.164 0-.098.148-.416.04-.082.067-.148l1.067-2.48h-1.131q-.228 0-.273.011-.045.008-.085.059-.04.047-.1.222z" style="font-size:5.42396px;font-family:Baskerville;-inkscape-font-specification:Baskerville;fill:#000;stroke:none;stroke-width:.238125;stroke-dasharray:none" transform="translate(-89.194 59.253)"/><path d="M117.384 27.276h.116v2.812q0 .347.008.437.01.09.077.138.066.048.236.048h.103v.122h-1.192v-.122h.088q.19 0 .246-.053.058-.056.066-.13.01-.077.01-.44v-1.885q0-.358-.007-.432-.008-.077-.07-.132-.057-.059-.245-.059h-.114v-.121q.458-.008.678-.183zM120.225 29.026q.35.03.618.281.267.25.267.644 0 .455-.326.712-.325.257-.792.257-.476 0-.794-.273-.318-.275-.318-.686 0-.355.228-.606.228-.252.63-.329-.326-.082-.535-.317-.206-.236-.206-.554 0-.39.283-.633.283-.246.712-.246.398 0 .702.24.307.24.307.64 0 .317-.196.547-.193.23-.58.323zm-.813-.924q0 .432.138.649.14.214.419.214.304 0 .455-.203.151-.207.151-.615 0-.37-.159-.564-.156-.193-.434-.193-.246 0-.408.177-.162.175-.162.535zm-.092 1.825q0 .3.055.474.056.172.212.286.16.114.392.114.297 0 .493-.17t.196-.672q0-.506-.196-.686-.196-.18-.503-.18-.326 0-.488.225-.161.222-.161.609z" style="font-size:5.42396px;font-family:Baskerville;-inkscape-font-specification:Baskerville;fill:#000;stroke:none;stroke-width:.238125;stroke-dasharray:none" transform="translate(-87.7 59.253)"/><path d="M122.808 27.276h.116v2.812q0 .347.008.437.01.09.077.138.066.048.236.048h.103v.122h-1.192v-.122h.088q.19 0 .246-.053.058-.056.066-.13.01-.077.01-.44v-1.885q0-.358-.007-.432-.008-.077-.07-.132-.057-.059-.245-.059h-.114v-.121q.458-.008.678-.183zM126.076 29.159q-.162.196-.344.294-.183.098-.384.098-.43 0-.742-.323-.31-.326-.31-.81 0-.462.302-.8.302-.342.77-.342.398 0 .67.251.274.252.382.63.111.377.111.785 0 .84-.37 1.409-.369.569-.988.569-.292 0-.514-.127-.223-.127-.223-.283 0-.149.154-.149.13 0 .223.178.127.249.431.249.419 0 .628-.371.21-.374.21-1.115 0-.061-.006-.143zm.013-.705q0-.257-.071-.508-.072-.254-.241-.4-.17-.146-.38-.146-.33 0-.497.265-.164.262-.164.792 0 .334.063.522.064.185.228.31.167.124.37.124.276 0 .483-.207.21-.209.21-.752z" style="font-size:5.42396px;font-family:Baskerville;-inkscape-font-specification:Baskerville;fill:#000;stroke:none;stroke-width:.238125;stroke-dasharray:none" transform="translate(-86.127 59.253)"/><path d="M-71.273 88.351q0-.829.313-1.324.315-.498.824-.498.508 0 .82.5.316.498.316 1.322 0 .818-.313 1.322-.312.5-.823.5-.509 0-.824-.498-.313-.5-.313-1.324zm.44 0q0 1.1.183 1.398.185.297.514.297.386 0 .54-.355.153-.357.153-1.34 0-1.102-.185-1.398-.183-.297-.508-.297-.326 0-.512.297-.185.294-.185 1.398zM-66.387 86.529h.116v2.813q0 .347.008.437.01.09.077.137.066.048.236.048h.103v.122h-1.192v-.122h.088q.19 0 .246-.053.058-.056.066-.13.01-.077.01-.44v-1.885q0-.358-.007-.432-.008-.077-.07-.132-.057-.058-.245-.058h-.114v-.122q.458-.008.678-.183zM-63.684 90.086v-.164q.302-.236.763-.745.463-.51.667-.882.204-.37.204-.749 0-.453-.206-.665-.207-.214-.514-.214-.302 0-.469.196-.164.196-.164.418 0 .254.214.403.08.055.08.084 0 .048-.09.13t-.148.082q-.08 0-.194-.159-.111-.161-.111-.413 0-.405.315-.64.315-.239.691-.239.398 0 .715.246.32.247.32.731 0 .305-.142.58-.143.273-.697.837-.55.562-.887.845h1.685l-.151.593h-.125q0-.047.016-.095.008-.027.008-.072 0-.08-.035-.095-.034-.013-.185-.013zM-58.562 88.158q.082-.024.164-.024.39 0 .612.267.225.265.225.668 0 .484-.33.794-.332.31-.854.31-.35 0-.6-.159-.252-.159-.252-.341 0-.077.047-.13.048-.056.125-.056.137 0 .196.188.074.241.212.31.135.072.267.072.334 0 .54-.244.21-.244.21-.755 0-.41-.157-.612-.153-.2-.365-.2-.183 0-.403.222-.037.04-.077.04-.079 0-.079-.085 0-.037.04-.077.042-.043.233-.172.418-.284.553-.472.135-.188.135-.474 0-.273-.14-.42-.14-.152-.373-.152-.239 0-.424.154-.183.15-.183.386 0 .188.162.353.018.018.018.031 0 .035-.087.075-.088.04-.127.04-.082 0-.154-.125-.071-.125-.071-.27 0-.294.254-.533.254-.238.68-.238.437 0 .66.201.225.199.225.445 0 .217-.154.405-.15.186-.513.43zM-54.066 88.891h-1.303v-.159l1.512-2.203h.17v2.203h.244q.225 0 .267-.026.042-.027.117-.225h.116l-.06.41h-.684v.45q0 .385.013.467.016.08.088.119.071.037.264.037v.122h-1.157v-.122h.093q.159 0 .225-.042.069-.045.082-.125.013-.08.013-.455zm0-.159v-1.681l-1.155 1.681zM-50.57 88.264h-.138l.08-1.648h1.374q-.114.268-.167.31-.05.043-.177.043h-.93l-.042 1.096q.267-.342.656-.342.414 0 .705.331.294.332.294.821 0 .565-.331.933-.329.365-.922.365-.413 0-.643-.19-.23-.194-.23-.35 0-.069.044-.12.048-.05.127-.05.088 0 .133.053.045.05.106.212.119.329.474.329.339 0 .57-.273.232-.273.232-.887 0-.554-.19-.787-.191-.233-.45-.233-.366 0-.575.387zM-46.217 88.29q.164-.196.344-.294.183-.098.381-.098.43 0 .742.323t.312.81q0 .459-.302.8-.302.342-.77.342-.398 0-.67-.251-.273-.252-.384-.628-.109-.379-.109-.787 0-.842.368-1.409.37-.569.99-.569.292 0 .514.127.223.125.223.283 0 .149-.151.149-.13 0-.207-.146-.08-.15-.172-.217-.092-.064-.278-.064-.418 0-.628.371-.209.37-.209 1.115 0 .066.006.143zm-.016.705q0 .257.071.51.074.252.244.398.17.146.379.146.33 0 .495-.265.164-.265.164-.792 0-.334-.064-.52-.06-.187-.227-.312-.165-.124-.368-.124-.276 0-.485.21-.21.206-.21.749zM-42.242 87.257l.222-.728h.093q.005.053.042.071.04.016.21.016h1.371l-.95 2.898q-.157.476-.239.57-.08.09-.164.09-.159 0-.159-.165 0-.098.148-.416.04-.082.067-.148l1.067-2.479h-1.13q-.229 0-.274.01-.045.008-.084.059-.04.047-.101.222zM-36.23 88.28q.349.029.616.28.268.25.268.644 0 .455-.326.712-.326.257-.792.257-.476 0-.794-.273-.318-.275-.318-.686 0-.354.228-.606.227-.252.63-.328-.326-.083-.535-.318-.207-.236-.207-.554 0-.39.284-.633.283-.246.712-.246.397 0 .702.241.307.238.307.638 0 .318-.196.548-.193.23-.58.324zm-.814-.925q0 .432.138.65.14.214.418.214.305 0 .456-.204.15-.207.15-.615 0-.37-.158-.564-.156-.193-.434-.193-.247 0-.408.177-.162.175-.162.535zm-.092 1.825q0 .3.055.474.056.172.212.286.159.114.392.114.297 0 .493-.17.196-.169.196-.672 0-.506-.196-.686-.196-.18-.504-.18-.325 0-.487.225-.161.222-.161.609zM-31.126 88.412q-.162.196-.344.294-.183.098-.384.098-.43 0-.742-.323-.31-.326-.31-.81 0-.461.302-.8.302-.342.77-.342.398 0 .671.252.273.251.381.63.112.376.112.784 0 .84-.371 1.409-.368.57-.988.57-.291 0-.514-.128-.222-.127-.222-.283 0-.149.153-.149.13 0 .223.178.127.249.431.249.419 0 .628-.371.21-.373.21-1.115 0-.06-.006-.143zm.013-.704q0-.257-.071-.509-.072-.254-.241-.4-.17-.146-.379-.146-.331 0-.498.265-.164.262-.164.792 0 .334.063.522.064.185.228.31.167.124.371.124.275 0 .482-.206.21-.21.21-.752z" style="font-size:5.42396px;font-family:Baskerville;-inkscape-font-specification:Baskerville;fill:#000;stroke:none;stroke-width:.238125;stroke-dasharray:none"/><path d="M41.448 27.276h.117v2.812q0 .347.008.437.01.09.077.138.066.048.235.048h.104v.122h-1.192v-.122h.087q.19 0 .246-.053.059-.056.067-.13.01-.077.01-.44v-1.885q0-.358-.008-.432-.008-.077-.069-.132-.058-.059-.246-.059h-.114v-.121q.458-.008.678-.183zM42.934 29.098q0-.829.313-1.324.315-.498.823-.498.509 0 .821.5.315.498.315 1.322 0 .818-.312 1.321-.313.501-.824.501-.508 0-.823-.498-.313-.5-.313-1.324zm.44 0q0 1.099.182 1.398.186.297.514.297.387 0 .54-.355.154-.358.154-1.34 0-1.102-.185-1.398-.183-.297-.509-.297t-.51.297q-.186.294-.186 1.398z" style="font-size:5.42396px;font-family:Baskerville;-inkscape-font-specification:Baskerville;fill:#000;stroke:none;stroke-width:.238125;stroke-dasharray:none" transform="translate(-67.643 59.253)"/><path d="M82.128 27.276h.117v2.812q0 .347.007.437.011.09.077.138.066.048.236.048h.103v.122h-1.192v-.122h.088q.19 0 .246-.053.058-.056.066-.13.01-.077.01-.44v-1.885q0-.358-.007-.432-.008-.077-.069-.132-.058-.059-.246-.059h-.114v-.121q.458-.008.678-.183zM84.84 27.276h.116v2.812q0 .347.008.437.011.09.077.138.066.048.236.048h.103v.122h-1.192v-.122h.088q.19 0 .246-.053.058-.056.066-.13.01-.077.01-.44v-1.885q0-.358-.007-.432-.008-.077-.069-.132-.058-.059-.246-.059h-.114v-.121q.458-.008.678-.183z" style="font-size:5.42396px;font-family:Baskerville;-inkscape-font-specification:Baskerville;fill:#000;stroke:none;stroke-width:.238125;stroke-dasharray:none" transform="translate(-101.229 59.253)"/><path d="M4.181 131.806h160.707M11.095 128.641v6.33M12.095 129.86v3.892M13.095 129.86v3.892M14.095 129.86v3.892M15.095 129.86v3.892M16.095 129.86v3.892M17.095 129.86v3.892M18.095 129.86v3.892M19.095 129.86v3.892M20.095 129.86v3.892M21.095 128.641v6.33M22.095 129.86v3.892M23.095 129.86v3.892M24.095 129.86v3.892M25.095 129.86v3.892M26.095 129.86v3.892M27.095 129.86v3.892M28.095 129.86v3.892M29.095 129.86v3.892M30.095 129.86v3.892M31.095 128.641v6.33M32.095 129.86v3.892M33.095 129.86v3.892M34.095 129.86v3.892M35.095 129.86v3.892M36.095 129.86v3.892M37.095 129.86v3.892M38.095 129.86v3.892M39.095 129.86v3.892M40.095 129.86v3.892M41.095 128.641v6.33M42.095 129.86v3.892M43.095 129.86v3.892M44.095 129.86v3.892M45.095 129.86v3.892M46.095 129.86v3.892M47.095 129.86v3.892M48.095 129.86v3.892M49.095 129.86v3.892M50.095 129.86v3.892M51.095 128.641v6.33M52.095 129.86v3.892M53.095 129.86v3.892M54.095 129.86v3.892M55.095 129.86v3.892M56.095 129.86v3.892M57.095 129.86v3.892M58.095 129.86v3.892M59.095 129.86v3.892M60.095 129.86v3.892M61.095 128.641v6.33M62.095 129.86v3.892M63.095 129.86v3.892M64.095 129.86v3.892M65.095 129.86v3.892M66.095 129.86v3.892M67.095 129.86v3.892M68.095 129.86v3.892M69.095 129.86v3.892M70.095 129.86v3.892M71.095 128.641v6.33M72.095 129.86v3.892M73.095 129.86v3.892M74.095 129.86v3.892M75.095 129.86v3.892M76.095 129.86v3.892M77.095 129.86v3.892M78.095 129.86v3.892M79.095 129.86v3.892M80.095 129.86v3.892M81.095 128.641v6.33M82.095 129.86v3.892M83.095 129.86v3.892M84.095 129.86v3.892M85.095 129.86v3.892M86.095 129.86v3.892M87.095 129.86v3.892M88.095 129.86v3.892M89.095 129.86v3.892M90.095 129.86v3.892M91.095 128.641v6.33M92.095 129.86v3.892M93.095 129.86v3.892M94.095 129.86v3.892M95.095 129.86v3.892M96.095 129.86v3.892M97.095 129.86v3.892M98.095 129.86v3.892M99.095 129.86v3.892M100.095 129.86v3.892M101.095 128.641v6.33M102.095 129.86v3.892M103.095 129.86v3.892M104.095 129.86v3.892M105.095 129.86v3.892M106.095 129.86v3.892M107.095 129.86v3.892M108.095 129.86v3.892M109.095 129.86v3.892M110.095 129.86v3.892M111.095 128.641v6.33M112.095 129.86v3.892M113.095 129.86v3.892M114.095 129.86v3.892M115.095 129.86v3.892M116.095 129.86v3.892M117.095 129.86v3.892M118.095 129.86v3.892M119.095 129.86v3.892M120.095 129.86v3.892M5.095 129.86v3.892M6.095 129.86v3.892M7.095 129.86v3.892M8.095 129.86v3.892M9.095 129.86v3.892M10.095 129.86v3.892" style="fill:#e5f6ff;stroke:#000;stroke-width:.238125;stroke-dasharray:none"/><g stroke="none" style="stroke:#000;stroke-width:0;stroke-dasharray:none;stroke-opacity:1"><path d="M101.112 27.276h.116v2.812q0 .347.008.437.011.09.077.138.066.048.236.048h.103v.122h-1.192v-.122h.088q.19 0 .246-.053.058-.056.066-.13.01-.077.01-.44v-1.885q0-.358-.007-.432-.008-.077-.069-.132-.058-.059-.246-.059h-.114v-.121q.458-.008.678-.183zM103.082 29.01h-.137l.079-1.647h1.374q-.113.268-.166.31-.05.042-.178.042h-.93l-.042 1.097q.268-.342.657-.342.413 0 .704.331.294.331.294.821 0 .564-.33.933-.329.365-.922.365-.413 0-.644-.19-.23-.194-.23-.35 0-.07.045-.12.047-.05.127-.05.087 0 .132.053.045.05.106.212.12.328.474.328.34 0 .57-.272.233-.273.233-.888 0-.553-.19-.786-.192-.233-.451-.233-.366 0-.575.387z" style="font-size:5.42396px;font-family:Baskerville;-inkscape-font-specification:Baskerville;fill:#000;stroke:#000;stroke-width:0;stroke-dasharray:none;stroke-opacity:1" transform="translate(-17.147 90.256)"/></g><path d="M10.466 119.179h-.138l.08-1.647h1.374q-.114.267-.167.31-.05.042-.177.042h-.93l-.042 1.096q.267-.341.656-.341.414 0 .705.33.294.332.294.822 0 .564-.331.932-.329.365-.922.365-.413 0-.643-.19-.23-.194-.23-.35 0-.069.044-.119.048-.05.127-.05.088 0 .133.053.045.05.106.212.119.328.474.328.339 0 .57-.273.232-.273.232-.887 0-.554-.19-.787-.191-.233-.45-.233-.366 0-.575.387z" style="font-size:5.42396px;font-family:Baskerville;-inkscape-font-specification:Baskerville;fill:#000;stroke:#000;stroke-width:0;stroke-dasharray:none;stroke-opacity:1"/><g stroke="none" style="stroke:#000;stroke-width:0;stroke-dasharray:none;stroke-opacity:1"><path d="M41.448 27.276h.117v2.812q0 .347.008.437.01.09.077.138.066.048.235.048h.104v.122h-1.192v-.122h.087q.19 0 .246-.053.059-.056.067-.13.01-.077.01-.44v-1.885q0-.358-.008-.432-.008-.077-.069-.132-.058-.059-.246-.059h-.114v-.121q.458-.008.678-.183zM42.934 29.098q0-.829.313-1.324.315-.498.823-.498.509 0 .821.5.315.498.315 1.322 0 .818-.312 1.321-.313.501-.824.501-.508 0-.823-.498-.313-.5-.313-1.324zm.44 0q0 1.099.182 1.398.186.297.514.297.387 0 .54-.355.154-.358.154-1.34 0-1.102-.185-1.398-.183-.297-.509-.297t-.51.297q-.186.294-.186 1.398z" style="font-size:5.42396px;font-family:Baskerville;-inkscape-font-specification:Baskerville;fill:#000;stroke:#000;stroke-width:0;stroke-dasharray:none;stroke-opacity:1" transform="translate(5.191 90.256)"/></g><g stroke="none" style="stroke:#000;stroke-width:0;stroke-dasharray:none;stroke-opacity:1"><path d="M60.59 30.833v-.165q.303-.235.763-.744.464-.51.668-.882.204-.37.204-.75 0-.452-.207-.664-.206-.214-.514-.214-.302 0-.468.196-.165.195-.165.418 0 .254.215.403.08.055.08.084 0 .048-.09.13t-.149.082q-.08 0-.193-.159-.112-.161-.112-.413 0-.405.316-.64.315-.24.69-.24.398 0 .716.247.32.246.32.731 0 .305-.143.58-.143.273-.696.837-.551.561-.887.845h1.684l-.151.593h-.124q0-.048.015-.095.008-.027.008-.072 0-.08-.034-.095-.035-.013-.185-.013zM63.22 29.098q0-.829.313-1.324.315-.498.824-.498.508 0 .82.5.316.498.316 1.322 0 .818-.313 1.321-.312.501-.823.501-.509 0-.824-.498-.312-.5-.312-1.324zm.44 0q0 1.099.183 1.398.185.297.514.297.386 0 .54-.355.154-.358.154-1.34 0-1.102-.186-1.398-.183-.297-.508-.297-.326 0-.511.297-.186.294-.186 1.398z" style="font-size:5.42396px;font-family:Baskerville;-inkscape-font-specification:Baskerville;fill:#000;stroke:#000;stroke-width:0;stroke-dasharray:none;stroke-opacity:1" transform="translate(58.991 90.277)"/></g><path d="M13.1-54.262v-.081c-.407 0-.515-.098-.515-.331v-3.238l-.05-.016-.97.493v.076l.146-.054a.82.82 0 0 1 .244-.065c.114 0 .163.081.163.266v2.435c0 .298-.114.412-.515.434v.081zM17.602-55.005l-.076-.032c-.18.303-.293.363-.52.363h-1.27l.895-.955c.483-.51.694-.916.694-1.345 0-.537-.39-.954-1.003-.954-.667 0-1.015.444-1.128 1.079l.113.027c.217-.532.407-.705.798-.705.46 0 .754.271.754.765 0 .46-.196.873-.705 1.41l-.966 1.025v.065h2.12zM19.43-57.028c.222-.401.472-.575.808-.575.358 0 .586.184.586.553 0 .331-.174.575-.44.727-.108.065-.25.125-.455.195v.076c.309 0 .434.017.553.054.374.109.564.375.564.787 0 .461-.304.83-.705.83-.152 0-.266-.027-.467-.168-.151-.109-.238-.141-.33-.141-.125 0-.223.081-.223.195 0 .195.212.31.608.31.482 0 .998-.158 1.258-.505a1.25 1.25 0 0 0 .25-.76c0-.282-.087-.531-.24-.7-.113-.119-.21-.184-.45-.287.364-.217.505-.488.505-.748 0-.445-.342-.743-.846-.743-.564 0-.906.363-1.063.878zM25.732-55.168v-.347h-.558v-2.413h-.239l-1.703 2.413v.347h1.519v.906h.423v-.906zm-.981-.347h-1.302l1.302-1.86zM29.61-57.956l-.048-.038c-.087.114-.136.141-.26.141h-1.124l-.59 1.286s-.006.016-.006.027c0 .033.016.043.065.043.52 0 .9.174 1.155.38.244.195.364.467.364.814 0 .466-.353.916-.733.916-.108 0-.233-.048-.385-.173-.173-.141-.276-.168-.401-.168-.152 0-.244.07-.244.206 0 .206.282.336.689.336.369 0 .667-.081.922-.266.369-.27.531-.607.531-1.128 0-.287-.048-.493-.19-.689-.309-.428-.58-.548-1.356-.694l.217-.461h1.053c.086 0 .13-.033.146-.07zM33.722-57.972c-.749.082-1.177.212-1.644.7a2.098 2.098 0 0 0-.59 1.497c0 .38.102.765.254 1.041.19.347.532.548.96.548.358 0 .662-.146.862-.396.18-.217.277-.52.277-.868 0-.7-.39-1.133-1.025-1.133-.239 0-.423.038-.689.244.147-.82.754-1.405 1.606-1.546zm-.37 2.69c0 .554-.2.944-.59.944-.51 0-.77-.542-.77-1.367 0-.499.32-.629.629-.629.504 0 .732.358.732 1.052zM37.806-57.766v-.087h-2.001l-.326.798.098.049c.228-.37.32-.445.634-.445h1.166l-1.073 3.233h.352zM41.852-55.103c0-.433-.173-.726-.84-1.171.536-.288.726-.472.726-.879 0-.423-.374-.775-.91-.775-.603 0-1.053.325-1.053.846 0 .352.114.558.672 1.02-.58.406-.705.618-.705.992 0 .51.429.884 1.042.884.65 0 1.068-.358 1.068-.917zm-.488-2.05c0 .336-.141.564-.51.781-.477-.282-.678-.531-.678-.868 0-.336.233-.537.597-.537.369 0 .591.25.591.624zm-.456 1.416c.37.25.532.466.532.803a.57.57 0 0 1-.597.596c-.412 0-.688-.282-.688-.78 0-.353.113-.576.433-.836zM43.827-54.143c.705-.097 1.057-.227 1.518-.645.434-.396.651-.987.651-1.61 0-.457-.13-.847-.347-1.118a1.072 1.072 0 0 0-.852-.412c-.645 0-1.128.547-1.128 1.28 0 .661.39 1.1.977 1.1.32 0 .58-.08.813-.309-.217.89-.824 1.46-1.649 1.606zm1.643-2.044c0 .287-.396.406-.635.406-.406 0-.667-.406-.667-1.052 0-.293.082-.613.19-.76a.487.487 0 0 1 .396-.184c.472 0 .716.467.716 1.378z" style="font-size:5.42396px;font-family:STIXGeneral;-inkscape-font-specification:STIXGeneral;stroke:#000;stroke-width:0"/><path d="M49.711-23.754v-.081c-.406 0-.515-.098-.515-.33v-3.239l-.049-.016-.97.493v.076l.146-.054a.82.82 0 0 1 .244-.065c.114 0 .163.081.163.266v2.435c0 .298-.114.412-.516.434v.081zM52.868-25.544c0-1.112-.493-1.876-1.204-1.876-.873 0-1.247.884-1.247 1.844 0 .89.298 1.898 1.225 1.898.885 0 1.226-.933 1.226-1.866zm-.52.028c0 1.073-.245 1.697-.706 1.697-.466 0-.705-.618-.705-1.72 0-1.1.244-1.74.695-1.74.477 0 .716.634.716 1.763zM56.491-23.754v-.081c-.406 0-.515-.098-.515-.33v-3.239l-.049-.016-.97.493v.076l.146-.054a.82.82 0 0 1 .244-.065c.114 0 .163.081.163.266v2.435c0 .298-.114.412-.516.434v.081zM59.203-23.754v-.081c-.406 0-.515-.098-.515-.33v-3.239l-.049-.016-.97.493v.076l.146-.054a.82.82 0 0 1 .244-.065c.114 0 .163.081.163.266v2.435c0 .298-.114.412-.516.434v.081zM63.271-23.754v-.081c-.406 0-.515-.098-.515-.33v-3.239l-.049-.016-.97.493v.076l.146-.054a.82.82 0 0 1 .244-.065c.114 0 .163.081.163.266v2.435c0 .298-.114.412-.516.434v.081zM66.417-24.497l-.076-.032c-.179.303-.293.363-.52.363h-1.27l.895-.955c.483-.51.695-.916.695-1.345 0-.537-.39-.954-1.004-.954-.667 0-1.014.444-1.128 1.08l.114.026c.217-.531.407-.705.797-.705.461 0 .754.271.754.765 0 .46-.195.873-.705 1.41l-.965 1.025v.065h2.12zM70.051-23.754v-.081c-.407 0-.515-.098-.515-.33v-3.239l-.049-.016-.97.493v.076l.146-.054a.82.82 0 0 1 .244-.065c.114 0 .163.081.163.266v2.435c0 .298-.114.412-.516.434v.081zM70.957-26.52c.222-.401.472-.575.808-.575.358 0 .586.185.586.553 0 .331-.174.575-.44.727-.108.065-.249.125-.455.195v.076c.31 0 .434.017.553.055.375.108.564.374.564.786 0 .461-.303.83-.705.83-.152 0-.266-.027-.466-.168-.152-.109-.239-.141-.331-.141-.125 0-.222.081-.222.195 0 .195.211.31.607.31.483 0 .998-.158 1.258-.505a1.25 1.25 0 0 0 .25-.76c0-.282-.087-.531-.239-.7-.114-.119-.211-.184-.45-.287.363-.217.504-.488.504-.748 0-.445-.341-.743-.846-.743-.564 0-.905.363-1.063.878zM76.831-23.754v-.081c-.407 0-.515-.098-.515-.33v-3.239l-.049-.016-.97.493v.076l.146-.054a.82.82 0 0 1 .244-.065c.114 0 .162.081.162.266v2.435c0 .298-.113.412-.515.434v.081zM79.972-24.66v-.347h-.559v-2.413h-.239l-1.703 2.413v.347h1.519v.906h.423v-.906zm-.982-.347h-1.302l1.302-1.86zM83.611-23.754v-.081c-.407 0-.515-.098-.515-.33v-3.239l-.049-.016-.97.493v.076l.146-.054a.82.82 0 0 1 .244-.065c.114 0 .162.081.162.266v2.435c0 .298-.114.412-.515.434v.081zM86.562-27.447l-.05-.038c-.086.114-.135.14-.26.14H85.13l-.591 1.286s-.006.016-.006.027c0 .033.016.044.065.044.521 0 .9.173 1.156.38.244.195.363.466.363.813 0 .466-.353.917-.732.917-.109 0-.234-.05-.385-.174-.174-.141-.277-.168-.402-.168-.152 0-.244.07-.244.206 0 .206.282.336.689.336.369 0 .667-.081.922-.266.369-.27.532-.607.532-1.128 0-.287-.05-.493-.19-.689-.31-.428-.58-.547-1.356-.694l.217-.46h1.052c.087 0 .13-.033.146-.071zM90.391-23.754v-.081c-.407 0-.515-.098-.515-.33v-3.239l-.05-.016-.97.493v.076l.146-.054a.82.82 0 0 1 .245-.065c.113 0 .162.081.162.266v2.435c0 .298-.114.412-.515.434v.081zM93.385-27.464c-.748.082-1.177.212-1.643.7a2.098 2.098 0 0 0-.592 1.497c0 .38.103.765.255 1.041.19.348.532.548.96.548.358 0 .662-.146.863-.396.179-.217.276-.52.276-.868 0-.7-.39-1.133-1.025-1.133-.238 0-.423.038-.689.244.147-.82.754-1.405 1.606-1.546zm-.369 2.69c0 .554-.2.944-.591.944-.51 0-.77-.542-.77-1.366 0-.5.32-.63.629-.63.504 0 .732.358.732 1.053zM97.17-23.754v-.081c-.406 0-.514-.098-.514-.33v-3.239l-.05-.016-.97.493v.076l.146-.054a.82.82 0 0 1 .244-.065c.114 0 .163.081.163.266v2.435c0 .298-.114.412-.515.434v.081zM100.181-27.258v-.086H98.18l-.326.797.098.049c.228-.37.32-.445.635-.445h1.166l-1.074 3.233h.352zM103.95-23.754v-.081c-.406 0-.514-.098-.514-.33v-3.239l-.05-.016-.97.493v.076l.146-.054a.819.819 0 0 1 .244-.065c.114 0 .163.081.163.266v2.435c0 .298-.114.412-.515.434v.081zM106.94-24.594c0-.434-.174-.727-.841-1.172.537-.287.727-.472.727-.879 0-.423-.375-.775-.912-.775-.602 0-1.052.325-1.052.846 0 .352.114.559.673 1.02-.58.406-.705.618-.705.992 0 .51.428.884 1.04.884.652 0 1.07-.358 1.07-.916zm-.489-2.05c0 .336-.14.563-.51.78-.477-.282-.678-.531-.678-.867 0-.337.234-.537.597-.537.369 0 .591.25.591.623zm-.455 1.415c.368.25.531.466.531.803a.57.57 0 0 1-.596.596c-.413 0-.69-.282-.69-.78 0-.353.115-.576.435-.836zM110.73-23.754v-.081c-.406 0-.515-.098-.515-.33v-3.239l-.048-.016-.971.493v.076l.146-.054a.819.819 0 0 1 .244-.065c.114 0 .163.081.163.266v2.435c0 .298-.114.412-.515.434v.081zM111.626-23.634c.705-.098 1.057-.228 1.518-.646.434-.396.651-.987.651-1.61 0-.456-.13-.847-.347-1.118a1.072 1.072 0 0 0-.851-.412c-.646 0-1.129.548-1.129 1.28 0 .661.39 1.1.977 1.1.32 0 .58-.08.813-.308-.217.89-.824 1.459-1.649 1.605zm1.643-2.045c0 .287-.396.407-.634.407-.407 0-.668-.407-.668-1.053 0-.293.082-.613.19-.759a.487.487 0 0 1 .396-.184c.472 0 .716.466.716 1.377zM117.945-24.497l-.076-.032c-.18.303-.293.363-.521.363h-1.27l.896-.955c.482-.51.694-.916.694-1.345 0-.537-.39-.954-1.003-.954-.668 0-1.015.444-1.129 1.08l.114.026c.217-.531.407-.705.798-.705.46 0 .754.271.754.765 0 .46-.196.873-.706 1.41l-.965 1.025v.065h2.12zM120.667-25.544c0-1.112-.493-1.876-1.204-1.876-.873 0-1.247.884-1.247 1.844 0 .89.298 1.898 1.226 1.898.884 0 1.225-.933 1.225-1.866zm-.52.028c0 1.073-.244 1.697-.705 1.697-.467 0-.706-.618-.706-1.72 0-1.1.245-1.74.695-1.74.477 0 .716.634.716 1.763z" style="font-size:5.42396px;font-family:STIXGeneral;-inkscape-font-specification:STIXGeneral;stroke:#000;stroke-width:0" transform="translate(0 -30.508)"/><path d="M124.735-56.052c0-1.112-.493-1.876-1.204-1.876-.873 0-1.247.884-1.247 1.844 0 .89.298 1.898 1.226 1.898.884 0 1.225-.933 1.225-1.866zm-.52.027c0 1.074-.244 1.698-.705 1.698-.467 0-.706-.618-.706-1.72 0-1.1.245-1.74.695-1.74.477 0 .716.634.716 1.762zM16.116-87.615l-.04-.03c-.069.09-.108.112-.208.112h-.898l-.473 1.029s-.004.013-.004.021c0 .026.013.035.052.035.416 0 .72.139.924.304.195.156.29.373.29.65 0 .374-.281.734-.585.734-.087 0-.187-.04-.308-.139-.139-.113-.221-.134-.321-.134-.122 0-.196.056-.196.164 0 .165.226.27.552.27.295 0 .533-.066.737-.213.295-.217.425-.486.425-.903 0-.23-.039-.395-.151-.55-.248-.344-.465-.439-1.085-.556L15-87.19h.842c.07 0 .104-.026.117-.056z" style="font-size:5.42396px;font-family:STIXGeneral;-inkscape-font-specification:STIXGeneral;stroke:#000;stroke-width:0"/><g style="stroke-width:1.25"><path d="M49.711-23.754v-.081c-.406 0-.515-.098-.515-.33v-3.239l-.049-.016-.97.493v.076l.146-.054a.82.82 0 0 1 .244-.065c.114 0 .163.081.163.266v2.435c0 .298-.114.412-.516.434v.081zM52.868-25.544c0-1.112-.493-1.876-1.204-1.876-.873 0-1.247.884-1.247 1.844 0 .89.298 1.898 1.225 1.898.885 0 1.226-.933 1.226-1.866zm-.52.028c0 1.073-.245 1.697-.706 1.697-.466 0-.705-.618-.705-1.72 0-1.1.244-1.74.695-1.74.477 0 .716.634.716 1.763z" style="font-size:5.42396px;font-family:STIXGeneral;-inkscape-font-specification:STIXGeneral;stroke:#000;stroke-width:0" transform="matrix(.8 0 0 .8 6.884 -65.657)"/></g><g style="stroke-width:1.25"><path d="M83.611-23.754v-.081c-.407 0-.515-.098-.515-.33v-3.239l-.049-.016-.97.493v.076l.146-.054a.82.82 0 0 1 .244-.065c.114 0 .162.081.162.266v2.435c0 .298-.114.412-.515.434v.081zM86.562-27.447l-.05-.038c-.086.114-.135.14-.26.14H85.13l-.591 1.286s-.006.016-.006.027c0 .033.016.044.065.044.521 0 .9.173 1.156.38.244.195.363.466.363.813 0 .466-.353.917-.732.917-.109 0-.234-.05-.385-.174-.174-.141-.277-.168-.402-.168-.152 0-.244.07-.244.206 0 .206.282.336.689.336.369 0 .667-.081.922-.266.369-.27.532-.607.532-1.128 0-.287-.05-.493-.19-.689-.31-.428-.58-.547-1.356-.694l.217-.46h1.052c.087 0 .13-.033.146-.071z" style="font-size:5.42396px;font-family:STIXGeneral;-inkscape-font-specification:STIXGeneral;stroke:#000;stroke-width:0" transform="matrix(.8 0 0 .8 11.858 -65.657)"/></g><g style="stroke-width:1.25"><path d="m117.945-24.497-.076-.032c-.18.303-.293.363-.521.363h-1.27l.896-.955c.482-.51.694-.916.694-1.345 0-.537-.39-.954-1.003-.954-.668 0-1.015.444-1.129 1.08l.114.026c.217-.531.407-.705.798-.705.46 0 .754.271.754.765 0 .46-.196.873-.706 1.41l-.965 1.025v.065h2.12zM120.667-25.544c0-1.112-.493-1.876-1.204-1.876-.873 0-1.247.884-1.247 1.844 0 .89.298 1.898 1.226 1.898.884 0 1.225-.933 1.225-1.866zm-.52.028c0 1.073-.244 1.697-.705 1.697-.467 0-.706-.618-.706-1.72 0-1.1.245-1.74.695-1.74.477 0 .716.634.716 1.763z" style="font-size:5.42396px;font-family:STIXGeneral;-inkscape-font-specification:STIXGeneral;stroke:#000;stroke-width:0" transform="matrix(.8 0 0 .8 17.041 -65.657)"/></g><path d="M3.927-91.84H121.43" style="fill:#000;stroke:#000;stroke-width:.264583;stroke-dasharray:none;stroke-opacity:1"/><path d="M8.635-94.398v5.117M15.05-94.398v5.117M21.467-94.398v5.117M27.883-94.398v5.117M34.299-94.398v5.117M40.715-94.398v5.117M47.13-94.398v5.117M53.546-94.398v5.117M59.962-94.398v5.117M66.378-94.398v5.117M72.794-94.398v5.117M79.21-94.398v5.117M85.626-94.398v5.117M92.042-94.398v5.117M98.458-94.398v5.117M104.874-94.398v5.117M111.29-94.398v5.117M117.706-94.398v5.117M4.181 142.782h124.046M11.095 139.666v6.33M18.495 139.666v6.33M25.894 139.666v6.33M33.293 139.666v6.33M40.693 139.666v6.33M48.092 139.666v6.33M55.492 139.666v6.33M62.89 139.666v6.33M70.29 139.666v6.33M77.69 139.666v6.33M85.09 139.666v6.33M92.488 139.666v6.33M99.888 139.666v6.33M107.287 139.666v6.33M114.687 139.666v6.33M122.086 139.666v6.33" style="fill:#e5f6ff;stroke:#000;stroke-width:.238125;stroke-dasharray:none"/><path d="m12.103 149.053-.049-.038c-.086.113-.135.14-.26.14h-1.123l-.59 1.286s-.006.016-.006.027c0 .033.016.044.065.044.52 0 .9.173 1.155.38.244.195.364.466.364.813 0 .466-.353.916-.733.916-.108 0-.233-.048-.385-.173-.173-.141-.276-.168-.401-.168-.152 0-.244.07-.244.206 0 .206.282.336.689.336.368 0 .667-.081.922-.266.368-.27.531-.607.531-1.128 0-.287-.049-.493-.19-.689-.309-.428-.58-.547-1.356-.694l.217-.46h1.053c.086 0 .13-.033.146-.071z" style="font-size:5.42396px;font-family:STIXGeneral;-inkscape-font-specification:STIXGeneral;stroke:#000;stroke-width:0"/><path d="M49.711-23.754v-.081c-.406 0-.515-.098-.515-.33v-3.239l-.049-.016-.97.493v.076l.146-.054a.82.82 0 0 1 .244-.065c.114 0 .163.081.163.266v2.435c0 .298-.114.412-.516.434v.081zM52.868-25.544c0-1.112-.493-1.876-1.204-1.876-.873 0-1.247.884-1.247 1.844 0 .89.298 1.898 1.225 1.898.885 0 1.226-.933 1.226-1.866zm-.52.028c0 1.073-.245 1.697-.706 1.697-.466 0-.705-.618-.705-1.72 0-1.1.244-1.74.695-1.74.477 0 .716.634.716 1.763z" style="font-size:5.42396px;font-family:STIXGeneral;-inkscape-font-specification:STIXGeneral;stroke:#000;stroke-width:0" transform="translate(-2.253 176.5)"/><path d="M83.611-23.754v-.081c-.407 0-.515-.098-.515-.33v-3.239l-.049-.016-.97.493v.076l.146-.054a.82.82 0 0 1 .244-.065c.114 0 .162.081.162.266v2.435c0 .298-.114.412-.515.434v.081zM86.562-27.447l-.05-.038c-.086.114-.135.14-.26.14H85.13l-.591 1.286s-.006.016-.006.027c0 .033.016.044.065.044.521 0 .9.173 1.156.38.244.195.363.466.363.813 0 .466-.353.917-.732.917-.109 0-.234-.05-.385-.174-.174-.141-.277-.168-.402-.168-.152 0-.244.07-.244.206 0 .206.282.336.689.336.369 0 .667-.081.922-.266.369-.27.532-.607.532-1.128 0-.287-.05-.493-.19-.689-.31-.428-.58-.547-1.356-.694l.217-.46h1.052c.087 0 .13-.033.146-.071z" style="font-size:5.42396px;font-family:STIXGeneral;-inkscape-font-specification:STIXGeneral;stroke:#000;stroke-width:0" transform="translate(1.04 176.5)"/><path d="m117.945-24.497-.076-.032c-.18.303-.293.363-.521.363h-1.27l.896-.955c.482-.51.694-.916.694-1.345 0-.537-.39-.954-1.003-.954-.668 0-1.015.444-1.129 1.08l.114.026c.217-.531.407-.705.798-.705.46 0 .754.271.754.765 0 .46-.196.873-.706 1.41l-.965 1.025v.065h2.12zM120.667-25.544c0-1.112-.493-1.876-1.204-1.876-.873 0-1.247.884-1.247 1.844 0 .89.298 1.898 1.226 1.898.884 0 1.225-.933 1.225-1.866zm-.52.028c0 1.073-.244 1.697-.705 1.697-.467 0-.706-.618-.706-1.72 0-1.1.245-1.74.695-1.74.477 0 .716.634.716 1.763z" style="font-size:5.42396px;font-family:STIXGeneral;-inkscape-font-specification:STIXGeneral;stroke:#000;stroke-width:0" transform="translate(4.16 176.5)"/><path d="M111.095 128.641v6.33M112.095 129.86v3.892M113.095 129.86v3.892M114.095 129.86v3.892M115.095 129.86v3.892M116.095 129.86v3.892M117.095 129.86v3.892M118.095 129.86v3.892M119.095 129.86v3.892M120.095 129.86v3.892" style="fill:#e5f6ff;stroke:#000;stroke-width:.238125;stroke-dasharray:none"/><path d="M-6.374 108.77H114.36" style="fill:#000;stroke:#000;stroke-width:.264583;stroke-dasharray:none;stroke-opacity:1"/><path d="M-2.425 105.604v6.33M-1.896 107.075v3.388M-1.367 107.075v3.388M-.838 107.075v3.388M-.309 107.075v3.388M.22 107.075v3.388M.75 107.075v3.388M1.279 107.075v3.388M1.808 107.075v3.388M2.337 107.075v3.388M2.866 107.075v3.388M121.095 128.641v6.33M122.095 129.86v3.892M123.095 129.86v3.892M124.095 129.86v3.892M125.095 129.86v3.892M126.095 129.86v3.892M127.095 129.86v3.892M128.095 129.86v3.892M129.095 129.86v3.892M130.095 129.86v3.892M121.095 128.641v6.33M122.095 129.86v3.892M123.095 129.86v3.892M124.095 129.86v3.892M125.095 129.86v3.892M126.095 129.86v3.892M127.095 129.86v3.892M128.095 129.86v3.892M129.095 129.86v3.892M130.095 129.86v3.892M130.095 129.86v3.892M131.095 128.641v6.33M132.095 129.86v3.892M133.095 129.86v3.892M134.095 129.86v3.892M135.095 129.86v3.892M136.095 129.86v3.892M137.095 129.86v3.892M138.095 129.86v3.892M139.095 129.86v3.892M140.095 129.86v3.892M131.095 128.641v6.33M132.095 129.86v3.892M133.095 129.86v3.892M134.095 129.86v3.892M135.095 129.86v3.892M136.095 129.86v3.892M137.095 129.86v3.892M138.095 129.86v3.892M139.095 129.86v3.892M140.095 129.86v3.892M140.095 129.86v3.892M140.095 129.86v3.892M141.095 128.641v6.33M142.095 129.86v3.892M143.095 129.86v3.892M144.095 129.86v3.892M145.095 129.86v3.892M146.095 129.86v3.892M147.095 129.86v3.892M148.095 129.86v3.892M149.095 129.86v3.892M150.095 129.86v3.892M141.095 128.641v6.33M142.095 129.86v3.892M143.095 129.86v3.892M144.095 129.86v3.892M145.095 129.86v3.892M146.095 129.86v3.892M147.095 129.86v3.892M148.095 129.86v3.892M149.095 129.86v3.892M150.095 129.86v3.892M150.095 129.86v3.892M150.095 129.86v3.892M150.095 129.86v3.892M151.095 128.641v6.33M152.095 129.86v3.892M153.095 129.86v3.892M154.095 129.86v3.892M155.095 129.86v3.892M156.095 129.86v3.892M157.095 129.86v3.892M158.095 129.86v3.892M159.095 129.86v3.892M160.095 129.86v3.892M151.095 128.641v6.33M152.095 129.86v3.892M153.095 129.86v3.892M154.095 129.86v3.892M155.095 129.86v3.892M156.095 129.86v3.892M157.095 129.86v3.892M158.095 129.86v3.892M159.095 129.86v3.892M160.095 129.86v3.892" style="fill:#e5f6ff;stroke:#000;stroke-width:.238125;stroke-dasharray:none"/><path d="M9.918-93.445v3.212M11.201-93.445v3.212M12.484-93.445v3.212M13.768-93.445v3.212M9.277-93.445v3.212M10.56-93.445v3.212M11.843-93.445v3.212M13.126-93.445v3.212M14.41-93.445v3.212" style="fill:#e5f6ff;stroke:#000;stroke-width:.185208;stroke-dasharray:none"/><path d="m199.952 10.975-.039-.03c-.07.09-.108.113-.208.113h-.898l-.473 1.028s-.004.013-.004.022c0 .026.013.034.052.034.416 0 .72.14.924.304.195.156.29.373.29.65 0 .374-.281.734-.585.734-.087 0-.187-.039-.308-.139-.139-.112-.221-.134-.321-.134-.122 0-.196.056-.196.165 0 .165.226.269.552.269.295 0 .533-.065.737-.213.295-.217.425-.486.425-.902 0-.23-.039-.395-.151-.551-.248-.343-.465-.439-1.085-.556l.173-.369h.842c.07 0 .104-.026.117-.056z" style="font-size:5.42396px;font-family:STIXGeneral;-inkscape-font-specification:STIXGeneral;stroke:#000;stroke-width:0"/><g style="stroke-width:1.25"><path d="M49.711-23.754v-.081c-.406 0-.515-.098-.515-.33v-3.239l-.049-.016-.97.493v.076l.146-.054a.82.82 0 0 1 .244-.065c.114 0 .163.081.163.266v2.435c0 .298-.114.412-.516.434v.081zM52.868-25.544c0-1.112-.493-1.876-1.204-1.876-.873 0-1.247.884-1.247 1.844 0 .89.298 1.898 1.225 1.898.885 0 1.226-.933 1.226-1.866zm-.52.028c0 1.073-.245 1.697-.706 1.697-.466 0-.705-.618-.705-1.72 0-1.1.244-1.74.695-1.74.477 0 .716.634.716 1.763z" style="font-size:5.42396px;font-family:STIXGeneral;-inkscape-font-specification:STIXGeneral;stroke:#000;stroke-width:0" transform="matrix(.8 0 0 .8 190.72 32.933)"/></g><g style="stroke-width:1.25"><path d="M83.611-23.754v-.081c-.407 0-.515-.098-.515-.33v-3.239l-.049-.016-.97.493v.076l.146-.054a.82.82 0 0 1 .244-.065c.114 0 .162.081.162.266v2.435c0 .298-.114.412-.515.434v.081zM86.562-27.447l-.05-.038c-.086.114-.135.14-.26.14H85.13l-.591 1.286s-.006.016-.006.027c0 .033.016.044.065.044.521 0 .9.173 1.156.38.244.195.363.466.363.813 0 .466-.353.917-.732.917-.109 0-.234-.05-.385-.174-.174-.141-.277-.168-.402-.168-.152 0-.244.07-.244.206 0 .206.282.336.689.336.369 0 .667-.081.922-.266.369-.27.532-.607.532-1.128 0-.287-.05-.493-.19-.689-.31-.428-.58-.547-1.356-.694l.217-.46h1.052c.087 0 .13-.033.146-.071z" style="font-size:5.42396px;font-family:STIXGeneral;-inkscape-font-specification:STIXGeneral;stroke:#000;stroke-width:0" transform="matrix(.8 0 0 .8 195.695 32.933)"/></g><g style="stroke-width:1.25"><path d="m117.945-24.497-.076-.032c-.18.303-.293.363-.521.363h-1.27l.896-.955c.482-.51.694-.916.694-1.345 0-.537-.39-.954-1.003-.954-.668 0-1.015.444-1.129 1.08l.114.026c.217-.531.407-.705.798-.705.46 0 .754.271.754.765 0 .46-.196.873-.706 1.41l-.965 1.025v.065h2.12zM120.667-25.544c0-1.112-.493-1.876-1.204-1.876-.873 0-1.247.884-1.247 1.844 0 .89.298 1.898 1.226 1.898.884 0 1.225-.933 1.225-1.866zm-.52.028c0 1.073-.244 1.697-.705 1.697-.467 0-.706-.618-.706-1.72 0-1.1.245-1.74.695-1.74.477 0 .716.634.716 1.763z" style="font-size:5.42396px;font-family:STIXGeneral;-inkscape-font-specification:STIXGeneral;stroke:#000;stroke-width:0" transform="matrix(.8 0 0 .8 200.878 32.933)"/></g><path d="M187.764 6.751h117.502" style="fill:#000;stroke:#000;stroke-width:.264583;stroke-dasharray:none;stroke-opacity:1"/><path d="M192.472 4.193v5.116M198.888 4.193v5.116M205.303 4.193v5.116M211.72 4.193v5.116M218.135 4.193v5.116M224.551 4.193v5.116M230.967 4.193v5.116M237.383 4.193v5.116M243.799 4.193v5.116M250.215 4.193v5.116M256.63 4.193v5.116M263.047 4.193v5.116M269.463 4.193v5.116M275.879 4.193v5.116M282.295 4.193v5.116M288.71 4.193v5.116M295.126 4.193v5.116M301.542 4.193v5.116" style="fill:#e5f6ff;stroke:#000;stroke-width:.238125;stroke-dasharray:none"/><path d="M193.755 5.145v3.212M195.038 5.145v3.212M196.321 5.145v3.212M197.604 5.145v3.212M193.113 5.145v3.212M194.396 5.145v3.212M195.68 5.145v3.212M196.963 5.145v3.212M198.246 5.145v3.212M4.785-93.445v3.212M6.069-93.445v3.212M7.352-93.445v3.212M4.144-93.445v3.212M5.427-93.445v3.212M6.71-93.445v3.212M7.993-93.445v3.212M16.334-93.445v3.212M17.617-93.445v3.212M18.9-93.445v3.212M20.184-93.445v3.212M15.692-93.445v3.212M16.976-93.445v3.212M18.259-93.445v3.212M19.542-93.445v3.212M20.825-93.445v3.212M22.75-93.445v3.212M24.033-93.445v3.212M25.316-93.445v3.212M26.6-93.445v3.212M22.108-93.445v3.212M23.392-93.445v3.212M24.675-93.445v3.212M25.958-93.445v3.212M27.241-93.445v3.212M29.166-93.445v3.212M30.45-93.445v3.212M31.732-93.445v3.212M33.015-93.445v3.212M28.524-93.445v3.212M29.807-93.445v3.212M31.09-93.445v3.212M32.374-93.445v3.212M33.657-93.445v3.212M35.582-93.445v3.212M36.865-93.445v3.212M38.148-93.445v3.212M39.431-93.445v3.212M34.94-93.445v3.212M36.223-93.445v3.212M37.507-93.445v3.212M38.79-93.445v3.212M40.073-93.445v3.212M41.998-93.445v3.212M43.28-93.445v3.212M44.564-93.445v3.212M45.847-93.445v3.212M41.356-93.445v3.212M42.64-93.445v3.212M43.922-93.445v3.212M45.206-93.445v3.212M46.489-93.445v3.212M48.414-93.445v3.212M49.697-93.445v3.212M50.98-93.445v3.212M52.263-93.445v3.212M47.772-93.445v3.212M49.055-93.445v3.212M50.338-93.445v3.212M51.622-93.445v3.212M52.905-93.445v3.212M54.83-93.445v3.212M56.113-93.445v3.212M57.396-93.445v3.212M58.68-93.445v3.212M54.188-93.445v3.212M55.471-93.445v3.212M56.754-93.445v3.212M58.038-93.445v3.212M59.32-93.445v3.212M61.245-93.445v3.212M62.529-93.445v3.212M63.812-93.445v3.212M65.095-93.445v3.212M60.604-93.445v3.212M61.887-93.445v3.212M63.17-93.445v3.212M64.453-93.445v3.212M65.737-93.445v3.212M67.661-93.445v3.212M68.945-93.445v3.212M70.228-93.445v3.212M71.51-93.445v3.212M67.02-93.445v3.212M68.303-93.445v3.212M69.586-93.445v3.212M70.87-93.445v3.212M72.153-93.445v3.212M74.077-93.445v3.212M75.36-93.445v3.212M76.644-93.445v3.212M77.927-93.445v3.212M73.436-93.445v3.212M74.719-93.445v3.212M76.002-93.445v3.212M77.285-93.445v3.212M78.568-93.445v3.212M80.493-93.445v3.212M81.776-93.445v3.212M83.06-93.445v3.212M84.343-93.445v3.212M79.852-93.445v3.212M81.135-93.445v3.212M82.418-93.445v3.212M83.701-93.445v3.212M84.984-93.445v3.212M86.91-93.445v3.212M88.192-93.445v3.212M89.476-93.445v3.212M90.759-93.445v3.212M86.268-93.445v3.212M87.55-93.445v3.212M88.834-93.445v3.212M90.117-93.445v3.212M91.4-93.445v3.212M93.325-93.445v3.212M94.608-93.445v3.212M95.891-93.445v3.212M97.175-93.445v3.212M92.683-93.445v3.212M93.967-93.445v3.212M95.25-93.445v3.212M96.533-93.445v3.212M97.816-93.445v3.212M99.741-93.445v3.212M101.024-93.445v3.212M102.307-93.445v3.212M103.59-93.445v3.212M99.1-93.445v3.212M100.383-93.445v3.212M101.666-93.445v3.212M102.949-93.445v3.212M104.232-93.445v3.212M106.157-93.445v3.212M107.44-93.445v3.212M108.723-93.445v3.212M110.006-93.445v3.212M105.515-93.445v3.212M106.799-93.445v3.212M108.082-93.445v3.212M109.365-93.445v3.212M110.648-93.445v3.212M112.573-93.445v3.212M113.856-93.445v3.212M115.14-93.445v3.212M116.422-93.445v3.212M111.931-93.445v3.212M113.214-93.445v3.212M114.498-93.445v3.212M115.78-93.445v3.212M117.064-93.445v3.212M118.989-93.445v3.212M120.272-93.445v3.212M118.347-93.445v3.212M119.63-93.445v3.212M120.914-93.445v3.212" style="fill:#e5f6ff;stroke:#000;stroke-width:.185208;stroke-dasharray:none"/><path d="M54.33-98.146v1.11h.911l-1.683 1.628-1.644-1.628h.858v-1.11h-4.26v-3.398h10.253v3.398z" style="fill:#b1ffe8;fill-opacity:1;stroke:#000;stroke-width:.264583;stroke-miterlimit:4;stroke-dasharray:none"/><g style="stroke:#000;stroke-width:.0509678;stroke-dasharray:none;stroke-opacity:1"><path d="M20.378 6.24v-.455h1.969l.293-.299V4.69l-.293-.298H20.8l-.564-.564V2.812l.564-.57h2.126v.456h-1.904l-.298.299.006.661.292.299h1.546l.564.57V5.67l-.564.57zM24.609 6.24V2.698H23.42v-.455h2.87v.455h-1.189V6.24zM26.019 6.24l1.35-3.997h.765l1.35 3.997h-.514L28.628 5.2h-1.752L26.54 6.24zm1.003-1.475h1.465l-.673-2.056h-.125ZM30.033 6.24V2.243h2.186l.564.57v1.274l-.564.57h-.017l.722 1.583h-.548l-.71-1.583h-1.14V6.24zm.493-2.023h1.47l.293-.298V2.98l-.293-.299h-1.47ZM34.372 6.24V2.698h-1.188v-.455h2.87v.455h-1.189V6.24z" style="font-size:5.42396px;font-family:Tomorrow;-inkscape-font-specification:Tomorrow;stroke:#000;stroke-width:.0509678;stroke-dasharray:none;stroke-opacity:1" transform="matrix(.51946 0 0 .51878 39.009 -102.057)"/></g><path d="M92.82-98.146v1.11h.91l-1.682 1.628-1.643-1.628h.857v-1.11h-2.834v-3.398h7.459v3.398z" style="fill:#ffc3cc;fill-opacity:1;stroke:#000;stroke-width:.264583;stroke-miterlimit:4;stroke-dasharray:none"/><g style="stroke:#000;stroke-width:.0509801;stroke-dasharray:none;stroke-opacity:1"><path d="M37.8 6.24V2.243h2.636v.455h-2.143v1.215h1.915v.45h-1.915v1.422h2.143v.455zM41.19 6.24V2.243h.672l1.785 3.216V2.243h.493V6.24h-.585l-1.752-3.156h-.12V6.24zM45.084 6.24V2.243h2.17l.83.84V5.4l-.83.84Zm.494-.439h1.453l.559-.57v-1.98l-.559-.569h-1.453z" style="font-size:5.42396px;font-family:Tomorrow;-inkscape-font-specification:Tomorrow;stroke:#000;stroke-width:.0509801;stroke-dasharray:none;stroke-opacity:1" transform="matrix(.5192 0 0 .51878 69.977 -102.057)"/></g><text xml:space="preserve" x="26.026" y="-15.774" style="font-size:5.42396px;font-family:Tomorrow;-inkscape-font-specification:Tomorrow;fill:#000;stroke:#000;stroke-width:.185208"/><g style="stroke-width:1.36279"><path d="M20.378 6.24v-.455h1.969l.293-.299V4.69l-.293-.298H20.8l-.564-.564V2.812l.564-.57h2.126v.456h-1.904l-.298.299.006.661.292.299h1.546l.564.57V5.67l-.564.57zM24.609 6.24V2.698H23.42v-.455h2.87v.455h-1.189V6.24zM26.019 6.24l1.35-3.997h.765l1.35 3.997h-.514L28.628 5.2h-1.752L26.54 6.24zm1.003-1.475h1.465l-.673-2.056h-.125ZM30.033 6.24V2.243h2.186l.564.57v1.274l-.564.57h-.017l.722 1.583h-.548l-.71-1.583h-1.14V6.24zm.493-2.023h1.47l.293-.298V2.98l-.293-.299h-1.47ZM34.372 6.24V2.698h-1.188v-.455h2.87v.455h-1.189V6.24z" style="font-size:5.42396px;font-family:Tomorrow;-inkscape-font-specification:Tomorrow;stroke:none;stroke-width:.252401" transform="matrix(.73379 0 0 .73379 33.182 -121.387)"/></g><g style="stroke-width:1.36279"><path d="M37.8 6.24V2.243h2.636v.455h-2.143v1.215h1.915v.45h-1.915v1.422h2.143v.455zM41.19 6.24V2.243h.672l1.785 3.216V2.243h.493V6.24h-.585l-1.752-3.156h-.12V6.24zM45.084 6.24V2.243h2.17l.83.84V5.4l-.83.84Zm.494-.439h1.453l.559-.57v-1.98l-.559-.569h-1.453z" style="font-size:5.42396px;font-family:Tomorrow;-inkscape-font-specification:Tomorrow;stroke:none;stroke-width:.252401" transform="matrix(.73379 0 0 .73379 60.725 -121.387)"/></g><path d="M53.546-88.753v4.288M92.042-88.67v4.335M57.206 99.221v6.729M95.701 99.148v6.817" style="fill:#e5f6ff;stroke:#000;stroke-width:.264583;stroke-dasharray:none;stroke-dashoffset:0"/><path d="M89.685-78.011c.945 0 1.636-.165 1.94-.454.303-.289.405-.472.422-1.163l-.186.254c-.304.711-.81.938-2.075.938H75.97c-2.036 0-2.674.784-3.14 1.558-.491-.774-1.13-1.558-3.166-1.558H55.751c-1.265 0-1.771-.227-2.075-.938l-.185-.254c.017.68.118.864.422 1.163.303.3.961.454 1.923.454h14.196c1.718 0 2.282.774 2.773 1.465.515-.691 1.104-1.465 2.797-1.465z" style="font-style:normal;font-variant:normal;font-weight:400;font-stretch:normal;font-size:medium;line-height:125%;font-family:STIXGeneral;-inkscape-font-specification:STIXGeneral;letter-spacing:0;word-spacing:0;display:inline;fill:#000;fill-opacity:1;stroke:none;stroke-width:.352777px;stroke-linecap:butt;stroke-linejoin:miter;stroke-opacity:1"/><path d="M95.56 103.252c-.203.474-.54.626-1.383.626h-16.3c-.933 0-1.225.13-1.439.646-.225-.516-.517-.646-1.45-.646H58.512c-.843 0-1.18-.152-1.383-.626l-.124-.17c.011.454.079.577.281.776.203.2.641.303 1.282.303h16.587c.787 0 1.046.123 1.271.584.236-.46.506-.584 1.282-.584h16.4c.63 0 1.091-.11 1.293-.303.203-.192.27-.315.282-.775z" style="font-style:normal;font-variant:normal;font-weight:400;font-stretch:normal;font-size:medium;line-height:125%;font-family:STIXGeneral;-inkscape-font-specification:STIXGeneral;letter-spacing:0;word-spacing:0;display:inline;fill:#000;fill-opacity:1;stroke:none;stroke-width:.352778px;stroke-linecap:butt;stroke-linejoin:miter;stroke-opacity:1"/><path d="M57.206 21.778H95.7" style="display:inline;fill:none;stroke:#000;stroke-width:.264583;stroke-linecap:butt;stroke-linejoin:miter;stroke-miterlimit:10;stroke-dasharray:none;stroke-dashoffset:0;stroke-opacity:1" transform="translate(-3.66 -103.785)"/><path d="M93.982 20.067c.115.642 1.375 1.604 1.72 1.71-.345.108-1.605 1.07-1.72 1.711" style="display:inline;fill:none;stroke:#000;stroke-width:.343958;stroke-linecap:round;stroke-linejoin:round;stroke-miterlimit:10;stroke-dasharray:none;stroke-opacity:1" transform="translate(-3.66 -103.785)"/><path d="M92.042-83.923v3.831M53.546-83.923v3.831" style="fill:#e5f6ff;stroke:#000;stroke-width:.343958;stroke-dasharray:none;stroke-dashoffset:0"/><g style="stroke-width:1.05263"><path d="M67.747-71.415h-1.321v-.072c.354-.019.454-.12.454-.382v-2.15c0-.162-.043-.234-.143-.234a.723.723 0 0 0-.215.058l-.13.048v-.067l.857-.436.043.014v2.858c0 .205.096.291.455.291zM70.403-74.506l-1.015 3.13h-.31l.947-2.853h-1.03c-.277 0-.358.067-.56.393l-.085-.043.287-.704h1.766zM74.127-72.468h-2.665v-.315h2.665z"/><g style="stroke-width:1.05263"><path d="M76.823-71.415h-1.32v-.072c.353-.019.454-.12.454-.382v-2.15c0-.162-.043-.234-.144-.234a.723.723 0 0 0-.215.058l-.13.048v-.067l.857-.436.043.014v2.858c0 .205.096.291.455.291zM79.216-71.415h-1.32v-.072c.353-.019.454-.12.454-.382v-2.15c0-.162-.043-.234-.144-.234a.723.723 0 0 0-.215.058l-.13.048v-.067l.857-.436.043.014v2.858c0 .205.096.291.455.291z"/></g></g><path d="M95.705-74.409c-.522.226-.998.587-1.313 1.04-.19.29-.296.644-.176.944.137.344.523.533.915.562.352.025.763-.065 1.025-.334a.611.611 0 0 0 .134-.663c-.103-.234-.422-.394-.7-.397-.334-.003-.73.075-1.055.35-.102.086-.198.198-.227.32" style="fill:none;stroke:#000;stroke-width:.264583;stroke-dasharray:none"/><path d="M82.562-73.298c.267-.094.579-.125.836.012.25.151.317.508.18.757-.093.18-.286.28-.478.32a1.46 1.46 0 0 1-.63-.002c-.2-.053-.402-.173-.486-.37a.37.37 0 0 1 .08-.373c.155-.193.388-.3.61-.393M87.29-73.905c-.522-.16-1.093-.084-1.595.113-.305.128-.56.416-.573.758a.94.94 0 0 0 .242.71c.343.402.913.556 1.423.457.398-.059.774-.31.941-.681.12-.297.088-.66-.124-.908-.198-.24-.464-.406-.714-.585" style="fill:#e5f6ff;fill-opacity:1;stroke:#000;stroke-width:.264583;stroke-dasharray:none"/><path d="M92.82-109.706v1.11h.91l-1.682 1.628-1.643-1.628h.857v-1.11h-2.834v-3.398h7.459v3.398z" style="fill:#ffc3cc;fill-opacity:1;stroke:#000;stroke-width:.264583;stroke-miterlimit:4;stroke-dasharray:none"/><path d="M54.33-108.541v1.109h.911l-1.683 1.628-1.644-1.628h.858v-1.11h-4.26v-3.397h10.253v3.398z" style="fill:#b1ffe8;fill-opacity:1;stroke:#000;stroke-width:.264583;stroke-miterlimit:4;stroke-dasharray:none"/><path d="M-70.73 21.467v-.065q0-.066.071-.101h2.927q.075.04.075.1 0 .061-.075.101h-2.927q-.07-.035-.07-.1ZM-66.407 21.87q0 .121-.08.202-.081.08-.197.08h-.036q.232.398.615.398.353 0 .514-.302.096-.166.096-.645 0-.519-.136-.7-.131-.166-.293-.166h-.03q-.393 0-.594.342-.02.036-.036.04-.015.006-.075.01-.086 0-.096-.03-.01-.02-.01-.881v-.65q0-.252.025-.252.01-.01.02-.01.005 0 .106.04.101.04.277.081.177.04.378.04.358 0 .685-.14.04-.02.066-.02.04 0 .04.09v.065q-.413.489-1.033.489-.156 0-.282-.03l-.05-.01v.866l.151-.11q.055-.041.181-.081t.257-.04q.408 0 .69.327.283.327.283.776 0 .463-.323.79-.322.328-.786.333-.408 0-.655-.272-.247-.272-.247-.615 0-.12.056-.191.055-.07.116-.09.06-.02.116-.02.126 0 .206.085.08.085.08.201zM-64.286 21.467v-.065q0-.066.07-.101h2.927q.076.04.076.1 0 .061-.076.101h-2.927q-.07-.035-.07-.1zM-58.463 22.661q-.09-.015-.65-.015-.584 0-.675.015h-.045v-.232H-59.541q.035 0 .086-.01.05-.01.07-.025.02-.015.036-.04.005-.01.005-.272v-.252h-1.305v-.232l.76-1.163q.771-1.17.781-1.174.01-.01.106-.01h.09l.031.03v2.317h.464v.232h-.464v.499q0 .035.03.06.04.035.287.04h.147v.232Zm-.851-1.063v-1.682l-1.103 1.677.549.005ZM156.565 22.661q-.09-.015-.65-.015-.584 0-.675.015h-.045v-.232H155.487q.035 0 .086-.01.05-.01.07-.025.02-.015.035-.04.005-.01.005-.272v-.252h-1.304v-.232l.76-1.163q.771-1.17.781-1.174.01-.01.106-.01h.09l.03.03v2.317h.464v.232h-.463v.499q0 .035.03.06.04.035.287.04h.146v.232zm-.851-1.063v-1.682l-1.104 1.677.55.005zM157.583 21.87q0 .121-.081.202-.08.08-.196.08h-.036q.232.398.615.398.352 0 .514-.302.095-.166.095-.645 0-.519-.136-.7-.13-.166-.292-.166h-.03q-.393 0-.594.342-.02.036-.036.04-.015.006-.075.01-.086 0-.096-.03-.01-.02-.01-.881v-.65q0-.252.025-.252.01-.01.02-.01.005 0 .106.04.1.04.277.081.176.04.378.04.358 0 .685-.14.04-.02.066-.02.04 0 .04.09v.065q-.413.489-1.033.489-.156 0-.282-.03l-.05-.01v.866l.15-.11q.056-.041.182-.081t.257-.04q.408 0 .69.327t.282.776q0 .463-.322.79-.323.328-.786.333-.408 0-.655-.272-.247-.272-.247-.615 0-.12.056-.191.055-.07.116-.09.06-.02.115-.02.126 0 .207.085.08.085.08.201z"/><g style="stroke-width:1.11111"><path d="M17.195 14.156v-.058q0-.06.063-.091h2.634q.068.036.068.09 0 .055-.068.091h-2.634q-.063-.032-.063-.09zM20.917 13.132q-.123 0-.19-.077-.069-.077-.073-.2 0-.25.218-.444.217-.195.525-.195.16 0 .2.004.335.055.512.24.177.187.182.404 0 .236-.154.458-.155.222-.427.322l-.013.01q0 .004.04.013.041.009.132.04.09.032.172.096.372.24.372.635 0 .358-.281.625-.281.268-.712.268-.363 0-.626-.195-.262-.195-.262-.494 0-.127.081-.204.082-.078.204-.082.127 0 .209.082.081.081.081.204 0 .05-.013.09-.014.041-.032.073-.018.032-.05.054-.032.023-.054.036-.023.014-.046.019-.022.004-.036.013l-.018.005q.231.204.562.204.25 0 .376-.24.078-.15.078-.458v-.091q0-.43-.29-.576-.069-.027-.277-.032l-.19-.004-.014-.01q-.01-.013-.01-.072 0-.081.037-.081.127 0 .263-.023.154-.023.281-.19.127-.168.127-.508v-.037q0-.258-.159-.358-.1-.063-.213-.063-.145 0-.267.05-.123.05-.173.104l-.05.054h.014q.014.005.036.01.023.004.046.022.022.018.054.032.032.013.046.05.013.036.036.068.022.031.013.09 0 .1-.063.177-.064.077-.204.082z"/></g><g style="stroke-width:1.11111"><path d="M29.7 14.15v-.058q0-.06.063-.09h2.634q.068.035.068.09 0 .054-.068.09h-2.634q-.063-.031-.063-.09zM33.34 13.28q-.122 0-.194-.081-.073-.082-.073-.2 0-.322.24-.558.24-.235.599-.235.412 0 .689.254.276.253.281.657 0 .195-.09.372-.091.177-.218.308-.127.132-.363.336-.163.14-.453.417l-.268.254.345.004q.711 0 .757-.023.032-.009.109-.403v-.014h.181v.014q-.005.014-.059.412-.054.4-.068.418v.013h-1.682V15.085q0-.032.027-.068.027-.037.136-.159.132-.145.227-.254l.154-.168.154-.167.132-.15q.09-.104.127-.154.036-.05.104-.136.068-.086.095-.145.027-.06.068-.132.04-.072.06-.145.017-.072.03-.136.014-.063.014-.15 0-.285-.154-.494-.154-.208-.44-.208-.15 0-.263.077-.113.077-.158.15-.046.072-.046.086 0 .004.023.004.082 0 .168.064.086.063.086.208 0 .113-.073.19-.072.078-.204.082z"/></g><g style="stroke-width:1.11111"><path d="M43.326 14.15v-.058q0-.06.063-.09h2.634q.068.035.068.09 0 .054-.068.09H43.39q-.063-.031-.063-.09zM47.438 12.605l-.059.022q-.063.023-.181.046-.118.022-.263.031h-.086v-.208h.086q.213-.01.394-.068.182-.06.254-.109.073-.05.127-.1.01-.013.054-.013.041 0 .078.027v1.355l.004 1.36q.032.032.054.041.023.01.11.019.085.009.28.009h.118v.208h-.05q-.095-.013-.72-.013-.617 0-.712.013h-.055v-.208h.29q.073 0 .114-.005.04-.004.072-.013.032-.01.037-.01.004 0 .027-.022.022-.023.027-.018z"/></g><path d="M59.401 12.578q.254-.367.694-.367.218 0 .435.118.218.118.354.417.168.376.168 1.034 0 .703-.195 1.074-.09.19-.25.304-.158.114-.276.14-.118.028-.231.032-.118 0-.236-.027t-.277-.145q-.158-.118-.249-.304-.195-.371-.195-1.074 0-.789.258-1.202zm1.02-.054q-.135-.145-.321-.145-.19 0-.327.145-.113.118-.15.326-.036.209-.036.871 0 .716.037.943.036.227.163.358.127.136.313.136.181 0 .308-.136.131-.136.163-.38.032-.245.036-.921 0-.657-.036-.866-.036-.209-.15-.331zM73.162 12.605l-.06.022q-.063.023-.18.046-.118.022-.263.031h-.087v-.208h.087q.213-.01.394-.068.181-.06.254-.109.072-.05.127-.1.009-.013.054-.013.041 0 .077.027v1.355l.005 1.36q.032.032.054.041.023.01.11.019.085.009.28.009h.118v.208h-.05q-.095-.013-.72-.013-.617 0-.713.013h-.054v-.208h.29q.073 0 .114-.005.04-.004.072-.013.032-.01.036-.01.005 0 .028-.022.022-.023.027-.018zM85.475 13.28q-.123 0-.195-.081-.073-.082-.073-.2 0-.322.24-.558.241-.235.6-.235.412 0 .688.254.277.253.281.657 0 .195-.09.372t-.218.308q-.127.132-.363.336-.163.14-.453.417l-.267.254.344.004q.712 0 .757-.023.032-.009.11-.403v-.014h.18v.014q-.004.013-.059.412-.054.4-.068.418v.013h-1.682V15.085q0-.032.028-.068.027-.037.136-.16.131-.144.226-.253l.154-.168.155-.167.131-.15q.09-.104.127-.154.036-.05.104-.136.068-.086.096-.145.027-.06.068-.132.04-.072.058-.145.019-.072.032-.136.014-.063.014-.15 0-.285-.154-.494-.154-.208-.44-.208-.15 0-.263.077-.113.077-.159.15-.045.072-.045.086 0 .004.023.004.081 0 .167.064.086.063.086.208 0 .113-.072.19-.073.078-.204.082zM98.742 13.132q-.122 0-.19-.077t-.073-.2q0-.25.218-.444.218-.195.526-.195.159 0 .2.004.335.055.512.24.177.187.181.404 0 .236-.154.458-.154.222-.426.322l-.014.01q0 .004.041.013.04.009.131.04.091.032.173.096.372.24.372.635 0 .358-.282.625-.28.268-.711.268-.363 0-.626-.195t-.263-.494q0-.127.082-.204.081-.078.204-.082.127 0 .208.082.082.081.082.204 0 .05-.014.09-.013.041-.032.073-.018.032-.05.054-.031.023-.054.036-.023.014-.045.019-.023.004-.036.013l-.019.005q.232.204.563.204.25 0 .376-.24.077-.15.077-.458v-.091q0-.43-.29-.576-.068-.027-.277-.032l-.19-.004-.014-.01q-.009-.013-.009-.072 0-.081.037-.081.127 0 .263-.023.154-.023.28-.19.128-.168.128-.508v-.037q0-.258-.159-.358-.1-.063-.213-.063-.145 0-.268.05-.122.05-.172.104l-.05.054h.014q.013.005.036.01.023.004.045.022.023.018.055.032.032.013.045.05.014.036.036.068.023.031.014.09 0 .1-.063.177-.064.077-.204.082z"/><path d="M8.368 6.869h101.614M20.693 3.85v6.258M33.782 3.85v6.258M46.872 3.85v6.258M59.961 3.85v6.258" style="fill:#e5f6ff;stroke:#000;stroke-width:.238125;stroke-dasharray:none"/><path d="M73.05 3.633v6.692" style="fill:#e5f6ff;stroke:#000;stroke-width:.291042;stroke-dasharray:none"/><path d="M86.14 3.85v6.258M99.23 3.85v6.258" style="fill:#e5f6ff;stroke:#000;stroke-width:.238125;stroke-dasharray:none"/><path d="M18.858 64.043v-.065q0-.066.071-.1h2.927q.075.04.075.1 0 .06-.075.1h-2.927q-.07-.035-.07-.1zM22.994 62.905q-.136 0-.211-.086-.076-.085-.08-.221 0-.277.241-.494.242-.217.584-.217.177 0 .222.005.373.06.57.267.196.207.2.449 0 .262-.17.509-.172.246-.474.357l-.015.01q0 .005.045.015.046.01.146.046.101.035.192.106.413.266.413.705 0 .398-.313.695-.312.297-.79.297-.403 0-.696-.216-.292-.217-.292-.55 0-.14.09-.226.092-.086.228-.09.14 0 .231.09t.091.226q0 .056-.015.101-.015.046-.035.08-.02.036-.056.061-.035.025-.06.04-.025.016-.05.02-.026.006-.04.016l-.021.005q.257.227.625.227.277 0 .418-.267.085-.167.085-.51v-.1q0-.479-.322-.64-.076-.03-.307-.035l-.212-.005-.015-.01q-.01-.015-.01-.08 0-.091.04-.091.141 0 .292-.026.172-.025.313-.211.14-.187.14-.564v-.04q0-.288-.176-.399-.11-.07-.236-.07-.162 0-.298.055-.136.056-.191.116l-.055.06h.015q.015.006.04.01.025.006.05.026.026.02.06.035.036.015.051.055t.04.076q.026.035.016.1 0 .112-.07.197-.071.086-.228.09zM32.476 64.043v-.065q0-.066.07-.1h2.928q.075.04.075.1 0 .06-.075.1h-2.927q-.07-.035-.07-.1zM36.521 63.076q-.136 0-.216-.09-.08-.091-.08-.222 0-.358.266-.62.267-.262.665-.262.459 0 .766.282t.312.73q0 .217-.1.414-.101.196-.242.343-.141.146-.403.372-.182.156-.504.464l-.297.282.382.005q.791 0 .842-.025.035-.01.12-.449v-.015h.202v.015q-.005.015-.065.459-.06.443-.076.463v.015h-1.869v-.155q0-.036.03-.076t.151-.177q.147-.16.252-.282l.172-.186q.126-.136.17-.187.046-.05.147-.166.1-.116.141-.171.04-.056.116-.151.075-.096.106-.161.03-.066.075-.147.046-.08.066-.16.02-.081.035-.152.015-.07.015-.166 0-.317-.171-.55-.171-.231-.489-.231-.166 0-.292.086-.126.085-.176.166-.05.08-.05.096 0 .005.025.005.09 0 .186.07t.096.232q0 .126-.081.212-.08.085-.227.09zM45.27 64.043v-.065q0-.066.07-.1h2.928q.075.04.075.1 0 .06-.075.1H45.34q-.07-.035-.07-.1zM49.84 62.326l-.066.025q-.07.025-.201.05t-.293.035h-.095v-.231h.095q.237-.01.439-.076.201-.065.282-.12.08-.056.14-.112.01-.015.061-.015.046 0 .086.03v1.507l.005 1.511q.035.035.06.045.026.01.121.02.096.01.313.01h.13v.232h-.055q-.106-.015-.8-.015-.686 0-.792.015h-.06v-.231h.322q.08 0 .126-.005t.08-.016q.036-.01.041-.01.005 0 .03-.025.026-.025.03-.02zM58.948 62.29q.283-.408.771-.408.242 0 .484.131t.393.464q.186.418.186 1.148 0 .781-.216 1.194-.101.212-.277.338-.177.126-.308.156-.13.03-.257.035-.13 0-.262-.03-.13-.03-.307-.161-.176-.131-.277-.338-.217-.413-.217-1.194 0-.876.287-1.335zm1.134-.06q-.151-.161-.358-.161-.211 0-.362.16-.126.132-.167.364-.04.231-.04.967 0 .796.04 1.048t.182.398q.14.15.347.15.202 0 .343-.15.146-.151.181-.424.035-.272.04-1.022 0-.73-.04-.962-.04-.232-.166-.368zM71.819 62.326l-.066.025q-.07.025-.201.05t-.293.035h-.095v-.231h.095q.237-.01.439-.076.201-.065.282-.12.08-.056.14-.112.011-.015.061-.015.046 0 .086.03v1.507l.005 1.511q.035.035.06.045.026.01.121.02.096.01.313.01h.13v.232h-.055q-.106-.015-.8-.015-.686 0-.792.015h-.06v-.231h.322q.08 0 .126-.005t.08-.015q.036-.01.041-.01.005 0 .03-.026.026-.025.03-.02zM83.463 63.076q-.136 0-.217-.09-.08-.091-.08-.222 0-.358.267-.62t.665-.262q.458 0 .765.282.308.282.313.73 0 .217-.101.414-.1.196-.242.342-.14.147-.403.373-.181.156-.504.464l-.297.282.383.005q.791 0 .841-.025.036-.01.121-.449v-.015h.202v.015q-.005.015-.066.459-.06.443-.075.463v.015h-1.87v-.155q0-.036.031-.076.03-.04.151-.177.146-.16.252-.282l.171-.186.172-.187.146-.166q.1-.116.14-.171.041-.056.117-.151.075-.096.105-.161.03-.066.076-.147.045-.08.065-.16l.036-.152q.015-.07.015-.166 0-.318-.172-.55-.17-.231-.488-.231-.166 0-.292.086-.126.085-.177.166-.05.08-.05.096 0 .005.025.005.09 0 .187.07.095.07.095.232 0 .126-.08.211-.08.086-.227.091zM95.952 62.905q-.136 0-.212-.086-.075-.085-.08-.221 0-.277.242-.494.241-.217.584-.217.176 0 .222.005.372.06.569.267.196.207.201.449 0 .262-.17.508-.172.247-.474.358l-.015.01q0 .005.045.015.045.01.146.046.1.035.191.105.413.267.413.706 0 .398-.312.695-.312.297-.79.297-.404 0-.696-.216-.292-.217-.292-.55 0-.14.09-.226.091-.086.227-.09.141 0 .232.09.09.09.09.226 0 .056-.014.101-.016.046-.036.08-.02.036-.055.061t-.06.04q-.026.016-.051.02-.025.006-.04.016l-.02.005q.256.226.624.226.277 0 .418-.267.086-.166.086-.508v-.101q0-.479-.322-.64-.076-.03-.308-.035l-.211-.005-.015-.01q-.01-.015-.01-.08 0-.091.04-.091.14 0 .292-.026.171-.025.312-.211.141-.187.141-.564v-.04q0-.288-.176-.399-.11-.07-.237-.07-.16 0-.297.055-.136.056-.191.116l-.056.06h.015q.015.005.04.01.026.006.051.026.025.02.06.035.036.015.05.055.016.04.041.076.025.035.015.1 0 .112-.07.197-.07.086-.227.09z"/><g style="display:inline"><circle cx="25.977" cy="-9.366" r="3.39" style="fill:#f0f;fill-opacity:1;stroke:none;stroke-width:.47625;stroke-miterlimit:2;stroke-dasharray:none"/><circle cx="73.05" cy="-4.486" r="2.893" style="fill:red;fill-opacity:1;stroke:none;stroke-width:.476248;stroke-miterlimit:2;stroke-dasharray:none"/><circle cx="7.959" cy="-22.855" r="3.39" style="fill:#e5e500;fill-opacity:1;stroke:none;stroke-width:.47625;stroke-miterlimit:2;stroke-dasharray:none"/><circle cx="89.702" cy="-48.985" r="3.39" style="fill:#00d900;fill-opacity:1;stroke:none;stroke-width:.47625;stroke-miterlimit:2;stroke-dasharray:none"/><circle cx="28.305" cy="-57.473" r="3.335" style="fill:#f0f;fill-opacity:1;stroke:none;stroke-width:.47625;stroke-miterlimit:2;stroke-dasharray:none"/><circle cx="76.585" cy="-57.292" r="3.335" style="fill:red;fill-opacity:1;stroke:none;stroke-width:.47625;stroke-miterlimit:2;stroke-dasharray:none"/><circle cx="53.713" cy="-57.292" r="3.335" style="fill:#e5e500;fill-opacity:1;stroke:none;stroke-width:.47625;stroke-miterlimit:2;stroke-dasharray:none"/><circle cx="32.467" cy="-57.292" r="3.335" style="fill:#00f;fill-opacity:1;stroke:none;stroke-width:.47625;stroke-miterlimit:2;stroke-dasharray:none"/><circle cx="86.501" cy="-57.473" r="3.335" style="fill:#00d900;fill-opacity:1;stroke:none;stroke-width:.47625;stroke-miterlimit:2;stroke-dasharray:none"/><circle cx="27.594" cy="-50.543" r="3.39" style="fill:#00f;fill-opacity:1;stroke:none;stroke-width:.47625;stroke-miterlimit:2;stroke-dasharray:none"/><g style="stroke-width:1.04592"><path d="M62.554 1.12h21.884v4.2H74.22v3.164h1.586l-2.365 2.361-2.365-2.361h1.697V5.32H62.554Z" style="fill:#ffd42a;stroke:#000;stroke-width:.304406" transform="matrix(.95649 0 0 .95571 2.841 -22.416)"/><path d="M66.325 2.624q.076 0 .076.061 0 .062-.07.077l-.046.009q-.061.01-.083.067l-.437 1.195q-.034.095-.083.211-.046.12-.113.22-.067.104-.16.175-.091.07-.214.07-.116 0-.202-.055-.082-.052-.082-.147.021-.07.073-.1.052-.028.12-.028.055 0 .104.018.052.019.113.08.01.009.024.009.034 0 .074-.05.04-.045.076-.11.037-.06.065-.121.03-.062.04-.086l-.524-1.284q-.021-.052-.08-.064l-.042-.01q-.068-.011-.068-.076 0-.06.077-.06h.603q.076 0 .076.06 0 .068-.07.077l-.074.012q-.082.015-.055.092l.306.828.288-.831q.028-.077-.055-.092l-.067-.01q-.07-.008-.07-.076 0-.06.076-.06zm.921-.052q.16 0 .291.061.132.059.224.162.094.101.143.239.052.134.052.29 0 .16-.052.297-.049.134-.14.235-.092.098-.224.156-.131.055-.294.055-.162 0-.294-.055-.131-.058-.223-.156-.092-.1-.144-.235-.049-.138-.049-.297 0-.156.05-.293.051-.138.143-.239.095-.1.223-.159.132-.06.294-.06zm0 .138q-.352 0-.352.611 0 .605.352.605t.352-.605q0-.611-.352-.611zm2.296 1.088q0 .07.067.083l.05.009q.067.015.067.073 0 .058-.074.064l-.327.022h-.006q-.068 0-.077-.07l-.018-.178q-.23.266-.508.266-.09 0-.163-.03-.073-.028-.125-.092-.052-.061-.08-.16-.027-.1-.024-.247l.006-.675q0-.068-.07-.083l-.043-.009q-.068-.012-.068-.07 0-.055.074-.061l.355-.031h.021q.01-.003.016-.003.021 0 .033.006.013.012.013.07l-.013.361v.452q0 .193.052.27.055.076.153.076.09 0 .181-.049.095-.052.18-.135l.01-.794q0-.067-.07-.083l-.043-.009q-.068-.012-.068-.067 0-.055.074-.061l.349-.034h.021l.015-.003q.022 0 .034.006.006.006.01.022.005.015.005.048l-.009.361zm2.418.015q.007-.006.04.025.037.036-.003.092-.049.07-.107.094-.058.028-.138.028-.125 0-.199-.052-.07-.055-.098-.144-.098.098-.19.156-.091.055-.235.055-.169 0-.285-.092-.113-.091-.113-.269 0-.119.064-.204.067-.086.165-.147.101-.061.215-.101.113-.04.21-.067l.157-.046v-.08q0-.201-.061-.275-.058-.076-.202-.076h-.03q-.013 0-.028.003-.062.003-.077.073l-.028.126q-.036.183-.183.183-.061 0-.104-.037-.043-.04-.05-.1.028-.172.184-.279.16-.107.417-.107.254 0 .37.123.116.122.116.43v.615q0 .138.086.138.037 0 .068-.022.021-.015.027-.024.006-.013.012-.019zm-.517-.076v-.474q-.073.018-.16.046-.082.028-.155.07-.074.043-.123.107-.049.061-.049.15 0 .104.062.162.064.058.168.058.061 0 .113-.024.055-.025.144-.095zm1.182-1.15q.012.01.018.025.006.015.01.049l.02.254q.083-.162.19-.25.11-.093.224-.093.061 0 .125.037.065.037.083.125 0 .086-.052.138-.052.049-.14.049-.105 0-.197-.095l-.015-.015q-.067.06-.123.137-.052.074-.091.178v.666q.003.07.07.082l.098.019q.07.015.07.07 0 .058-.076.058h-.612q-.077 0-.077-.058 0-.055.07-.07l.062-.012q.067-.016.07-.08v-.663q0-.05-.003-.086-.003-.024-.003-.046v-.045q-.006-.07-.074-.08l-.073-.01q-.07-.008-.07-.063 0-.052.06-.077l.356-.137q.028-.012.052-.012.018 0 .028.006zm2.16.63q-.012.068-.085.068h-.888q.006.278.135.418.129.14.334.14.119 0 .202-.042.085-.046.156-.125.033-.037.064-.037.015 0 .028.01.045.03.012.091-.08.156-.23.238-.15.083-.352.083-.171 0-.306-.058-.132-.058-.223-.16-.09-.103-.135-.244-.046-.14-.046-.305 0-.16.052-.303.052-.144.147-.25.098-.11.233-.172.137-.064.303-.064.137 0 .248.046.113.046.193.128.08.08.122.193.043.113.043.25v.05q0 .02-.006.045zm-.967-.073h.46q.11 0 .146-.046.04-.046.04-.128 0-.138-.08-.23-.076-.091-.192-.091-.095 0-.165.049-.068.046-.114.119-.043.073-.067.162-.021.085-.028.165zm3.316.657q.003.064.07.08l.052.009q.067.015.067.073 0 .058-.076.058h-.567q-.076 0-.076-.058 0-.055.07-.07l.065-.012q.067-.016.07-.08v-.666q0-.184-.046-.26-.046-.08-.162-.08-.095 0-.184.046-.089.043-.186.14v.817q0 .07.067.083l.052.009q.067.015.067.073 0 .058-.076.058h-.564q-.076 0-.076-.058 0-.055.07-.07l.062-.012q.067-.016.07-.08V2.24q0-.07-.07-.08l-.092-.012q-.07-.009-.07-.064t.064-.073l.4-.104q.016-.006.025-.006h.025q.021 0 .027.006.019.012.019.073l-.01.355v.501q.12-.134.24-.198.118-.065.268-.065.202 0 .304.126.1.122.1.403zm1.726-.584q-.012.068-.086.068h-.887q.006.278.134.418.129.14.334.14.12 0 .202-.042.086-.046.156-.125.034-.037.064-.037.016 0 .028.01.046.03.012.091-.08.156-.23.238-.15.083-.352.083-.17 0-.306-.058-.131-.058-.223-.16-.089-.103-.135-.244-.046-.14-.046-.305 0-.16.052-.303.052-.144.147-.25.098-.11.233-.172.138-.064.303-.064.138 0 .248.046.113.046.193.128.08.08.122.193.043.113.043.25v.05q0 .02-.006.045zm-.967-.073h.459q.11 0 .147-.046.04-.046.04-.128 0-.138-.08-.23-.077-.091-.193-.091-.095 0-.165.049-.068.046-.113.119-.043.073-.068.162-.021.085-.027.165zm1.686-.556q.013.009.019.024.006.015.009.049l.021.254q.083-.162.19-.25.11-.093.224-.093.06 0 .125.037.064.037.083.125 0 .086-.052.138-.052.049-.141.049-.104 0-.196-.095l-.015-.015q-.068.06-.123.137-.052.074-.092.178v.666q.003.07.07.082l.099.019q.07.015.07.07 0 .058-.076.058h-.613q-.076 0-.076-.058 0-.055.07-.07l.061-.012q.068-.016.07-.08v-.663q0-.05-.002-.086-.003-.024-.003-.046v-.045q-.007-.07-.074-.08l-.073-.01q-.07-.008-.07-.063 0-.052.06-.077l.356-.137q.027-.012.052-.012.018 0 .027.006zm2.161.63q-.012.067-.085.067h-.888q.006.278.135.418.128.14.333.14.12 0 .202-.042.086-.046.156-.125.034-.037.065-.037.015 0 .027.01.046.03.013.091-.08.156-.23.238-.15.083-.352.083-.172 0-.306-.058-.132-.058-.224-.16-.088-.103-.134-.244-.046-.14-.046-.305 0-.16.052-.303.052-.144.147-.25.098-.11.232-.172.138-.064.303-.064.138 0 .248.046.114.046.193.128.08.08.123.193.042.113.042.25v.05q0 .02-.006.045zm-.967-.074h.46q.11 0 .146-.046.04-.046.04-.128 0-.138-.08-.23-.076-.091-.192-.091-.095 0-.166.049-.067.046-.113.119-.043.073-.067.162-.022.085-.028.165z" aria-label="you are here" style="font-size:10.5833px;font-family:&quot;Song Myung&quot;;-inkscape-font-specification:&quot;Song Myung&quot;;text-align:center;text-anchor:middle;stroke-width:.249059" transform="matrix(.95649 0 0 .95571 2.841 -22.416)"/></g><circle cx="46.872" cy="6.869" r="2.067" style="fill:#e5e500;fill-opacity:1;stroke:none;stroke-width:.476249;stroke-miterlimit:2;stroke-dasharray:none"/><circle cx="73.05" cy="6.869" r="2.067" style="fill:#00f;fill-opacity:1;stroke:none;stroke-width:.476249;stroke-miterlimit:2;stroke-dasharray:none"/><circle cx="48.408" cy="-4.486" r="2.067" style="fill:#e5e500;fill-opacity:1;stroke:none;stroke-width:.476249;stroke-miterlimit:2;stroke-dasharray:none"/></g></svg>