<svg xmlns="http://www.w3.org/2000/svg" xmlns:xlink="http://www.w3.org/1999/xlink" id="svg22" width="520" height="520" preserveAspectRatio="none" version="1.1" viewBox="-20 -17.198 520 520"><style id="style1" type="text/css">.grid{stroke:#9e9ed1;stroke-width:.4}.axes{stroke:#000;stroke-width:.9}</style><defs id="defs1"><path id="MJMAIN-30" stroke-width="1" d="M96 585q56 81 153 81 48 0 96-26t78-92q37-83 37-228 0-155-43-237-20-42-55-67t-61-31q-26-6-51-7-26 0-52 6t-61 32q-35 26-55 67-43 82-43 237 0 174 57 265zm225 12q-30 32-71 32-42 0-72-32-25-26-33-72t-8-192q0-158 8-208t36-79q28-30 69-30 40 0 68 30 29 30 36 84t8 203q0 145-8 191t-33 73z"/><path id="MJMAIN-35" stroke-width="1" d="M164 157q0-24-16-40t-39-16h-7q46-79 122-79 70 0 102 60 19 33 19 128 0 103-27 139-26 33-58 33h-6q-78 0-118-68-4-7-7-8t-15-2q-17 0-19 6-2 4-2 175v129q0 50 5 50 2 2 4 2 1 0 21-8t55-16q35-8 75-8 71 0 136 28 8 4 13 4 8 0 8-18v-13q-82-97-205-97-31 0-56 6l-10 2V374q19 14 30 22t36 16q25 8 51 8 81 0 137-65t56-154q0-92-64-157T229-22q-81 0-130 54T50 154q0 24 11 38t23 18q12 4 23 4 25 0 41-17t16-40z"/></defs><g id="layer12"><g id="g26" style="fill:#b8b8de;fill-opacity:1;stroke:#b8b8de;stroke-opacity:1" transform="matrix(.01764 0 0 -.01764 221.804 267.211)"><use xlink:href="#MJMAIN-30" id="use26" x="0" y="0" style="fill:#b8b8de;fill-opacity:1;stroke:#b8b8de;stroke-opacity:1"/></g><g id="g294" transform="translate(-1.065 -1.718)"><path id="path1-2" d="M16.065 492.02V274.814m0-22.298V-2.98" class="grid" style="stroke:#9e9ed1;stroke-width:.4"/><path id="path2-5" d="M61.065 492.02v-495" class="grid" style="stroke:#9e9ed1;stroke-width:.4"/><path id="path3-9" d="M106.065 492.02v-495" class="grid" style="stroke:#9e9ed1;stroke-width:.4"/><path id="path4-7" d="M151.065 492.02v-495" class="grid" style="stroke:#9e9ed1;stroke-width:.4"/><path id="path5-3" d="M196.065 492.02v-495" class="grid" style="stroke:#9e9ed1;stroke-width:.4"/><path id="path6-6" d="M241.065 492.02v-495" class="grid" style="stroke:#9e9ed1;stroke-width:.4"/><path id="path7-6" d="M286.065 492.02v-495" class="grid" style="stroke:#9e9ed1;stroke-width:.4"/><path id="path8-3" d="M331.065 492.02v-495" class="grid" style="stroke:#9e9ed1;stroke-width:.4"/><path id="path9-3" d="M376.065 492.02v-495" class="grid" style="stroke:#9e9ed1;stroke-width:.4"/><path id="path10-2" d="M421.065 492.02v-495" class="grid" style="stroke:#9e9ed1;stroke-width:.4"/><path id="path11-1" d="M466.065 492.02V273.853m0-21.337V-2.98" class="grid" style="stroke:#9e9ed1;stroke-width:.4"/><path id="path12-7" d="M-6.435 469.52h210.85m28.653 0h255.497" class="grid" style="stroke:#9e9ed1;stroke-width:.4"/><path id="path13-1" d="M-6.435 424.52h495" class="grid" style="stroke:#9e9ed1;stroke-width:.4"/><path id="path14-2" d="M-6.435 379.52h495" class="grid" style="stroke:#9e9ed1;stroke-width:.4"/><path id="path15-4" d="M-6.435 334.52h495" class="grid" style="stroke:#9e9ed1;stroke-width:.4"/><path id="path16-5" d="M-6.435 289.52h495" class="grid" style="stroke:#9e9ed1;stroke-width:.4"/><path id="path17" d="M-6.435 244.52h495" class="grid" style="stroke:#9e9ed1;stroke-width:.4"/><path id="path18" d="M-6.435 199.52h495" class="grid" style="stroke:#9e9ed1;stroke-width:.4"/><path id="path19" d="M-6.435 154.52h495" class="grid" style="stroke:#9e9ed1;stroke-width:.4"/><path id="path20" d="M-6.435 109.52h495" class="grid" style="stroke:#9e9ed1;stroke-width:.4"/><path id="path21" d="M-6.435 64.52h495" class="grid" style="stroke:#9e9ed1;stroke-width:.4"/><path id="path22" d="M-6.435 19.52h224.597m14.906 0h255.497" class="grid" style="stroke:#9e9ed1;stroke-width:.4"/><path id="path23-1" d="M-6.435 244.52h495" class="axes" style="stroke:#000;stroke-width:.9"/><path id="path24" d="M241.065 492.02v-495" class="axes" style="stroke:#000;stroke-width:.9"/><g id="g25" style="fill:#b8b8de;fill-opacity:1;stroke:#b8b8de;stroke-opacity:1" transform="matrix(.01765 0 0 -.01765 4.779 268.887)"><path id="use24" stroke-width="1" d="M84 237v13q0 13 14 20h581q15-8 15-20t-15-20H98q-14 7-14 20z" style="fill:#b8b8de;fill-opacity:1;stroke:#b8b8de;stroke-opacity:1"/><use xlink:href="#MJMAIN-35" id="use25" x="778" y="0" style="fill:#b8b8de;fill-opacity:1;stroke:#b8b8de;stroke-opacity:1"/></g><g id="g27" style="fill:#b8b8de;fill-opacity:1;stroke:#b8b8de;stroke-opacity:1" transform="matrix(.01764 0 0 -.01764 461.651 268.879)"><use xlink:href="#MJMAIN-35" id="use27" x="0" y="0" style="fill:#b8b8de;fill-opacity:1;stroke:#b8b8de;stroke-opacity:1"/></g><g id="g29" style="fill:#b8b8de;fill-opacity:1;stroke:#b8b8de;stroke-opacity:1" transform="matrix(.01765 0 0 -.01765 207.454 475.483)"><path id="use28" stroke-width="1" d="M84 237v13q0 13 14 20h581q15-8 15-20t-15-20H98q-14 7-14 20z" style="fill:#b8b8de;fill-opacity:1;stroke:#b8b8de;stroke-opacity:1"/><use xlink:href="#MJMAIN-35" id="use29" x="778" y="0" style="fill:#b8b8de;fill-opacity:1;stroke:#b8b8de;stroke-opacity:1"/></g><g id="g30" style="fill:#b8b8de;fill-opacity:1;stroke:#b8b8de;stroke-opacity:1" transform="matrix(.01764 0 0 -.01764 221.2 25.48)"><use xlink:href="#MJMAIN-35" id="use30" x="0" y="0" style="fill:#b8b8de;fill-opacity:1;stroke:#b8b8de;stroke-opacity:1"/></g></g><path id="rect22-6" d="M202.742-165.312h38.681v105.814h-38.681z" style="display:inline;fill:#b8b8de;fill-opacity:1;stroke:none;stroke-width:.9"/></g><g id="layer15" style="display:inline"><path id="path26" d="M333.731 260.515v1.332h-7.46q-.016-.5.16-.962.286-.762.91-1.501.63-.74 1.817-1.71 1.84-1.509 2.486-2.387.647-.885.647-1.67 0-.824-.593-1.386-.585-.57-1.532-.57-1 0-1.601.6-.6.601-.609 1.664l-1.424-.147q.146-1.594 1.101-2.425.955-.84 2.564-.84 1.625 0 2.572.902.947.9.947 2.232 0 .678-.278 1.332-.277.655-.923 1.379-.64.723-2.133 1.986-1.248 1.047-1.602 1.425-.354.37-.585.746z" style="font-size:20px;font-family:Arial;-inkscape-font-specification:Arial;text-align:center;text-anchor:middle;fill:#1a1a1a;stroke-width:.999998"/><path id="path376" d="m561.742 97.395-.02-13.493 4.39-.011-8.208-8.179-8.18 8.21 4.39-.011.02 13.493z" style="opacity:1;fill:#f5f6ec;stroke:#000"/><path id="path331" d="M330 71.478a8.676 8.676 0 1 1 0-17.352 8.676 8.676 0 0 1 0 17.352z" style="fill:#000;stroke:#000;stroke-width:.9"/><path id="path326" d="M330 56.702a6.1 6.1 0 0 1 6.1 6.1H330z" style="fill:#f000f0;fill-opacity:1;stroke:none;stroke-width:.9"/><path id="path330" d="M336.1 62.802a6.1 6.1 0 0 1-6.1 6.1v-6.1Z" style="fill:#e3e300;fill-opacity:1;stroke:none;stroke-width:.9"/><path id="circle311" d="M323.9 62.802a6.1 6.1 0 0 1 6.1-6.1v6.1z" style="fill:#5757ff;fill-opacity:1;stroke:none;stroke-width:.9"/><path id="path334" d="M330 68.902a6.1 6.1 0 0 1-6.1-6.1h6.1z" style="fill:#00b900;fill-opacity:1;stroke:none;stroke-width:.9"/><path id="path336" d="M321.39-22.131a5.788 5.788 0 0 1 5.788-5.788v5.788z" style="fill:#3f3fff;stroke:none;stroke-width:.9"/><path id="path337" d="M542.792 71.434a8.233 8.233 0 1 1 0-16.465 8.233 8.233 0 0 1 0 16.465z" style="fill:#000;stroke:#000;stroke-width:.9"/><path id="path338" d="M542.792 57.414a5.788 5.788 0 0 1 5.788 5.788h-5.788z" style="fill:#f000f0;fill-opacity:1;stroke:none;stroke-width:.9"/><path id="path339" d="M548.58 63.202a5.788 5.788 0 0 1-5.788 5.788v-5.788z" style="fill:#e3e300;fill-opacity:1;stroke:none;stroke-width:.9"/><path id="path340" d="M537.004 63.202a5.788 5.788 0 0 1 5.788-5.788v5.788z" style="fill:#5757ff;fill-opacity:1;stroke:none;stroke-width:.9"/><path id="path341" d="M542.792 68.99a5.788 5.788 0 0 1-5.788-5.788h5.788z" style="fill:#00b900;fill-opacity:1;stroke:none;stroke-width:.9"/><g id="text341" aria-label="all black particles here" style="font-size:20px;font-family:&quot;Song Myung&quot;;-inkscape-font-specification:&quot;Song Myung&quot;;text-align:center;text-anchor:middle;stroke-width:1.28176" transform="matrix(.78018 0 0 .78018 229.393 31.707)"><path id="path344" d="M394.109 113.477q.04-.04.26.16.24.24-.02.6-.32.46-.7.62-.38.18-.9.18-.82 0-1.3-.34-.46-.36-.64-.94-.64.64-1.24 1.02-.6.36-1.54.36-1.1 0-1.86-.6-.74-.6-.74-1.76 0-.78.42-1.34.44-.56 1.08-.96.66-.4 1.4-.66.74-.26 1.38-.44l1.02-.3v-.52q0-1.32-.4-1.8-.38-.5-1.32-.5h-.2q-.08 0-.18.02-.4.02-.5.48l-.18.82q-.24 1.2-1.2 1.2-.4 0-.68-.24-.28-.26-.32-.66.18-1.12 1.2-1.82 1.04-.7 2.72-.7 1.66 0 2.42.8t.76 2.82v4.02q0 .9.56.9.24 0 .44-.14.14-.1.18-.16.04-.08.08-.12zm-3.38-.5v-3.1q-.48.12-1.04.3-.54.18-1.02.46t-.8.7q-.32.4-.32.98 0 .68.4 1.06.42.38 1.1.38.4 0 .74-.16.36-.16.94-.62zm7.94.4q0 .46.44.54l.42.08q.44.08.44.46t-.5.38h-3.82q-.5 0-.5-.38 0-.36.46-.46l.44-.08q.44-.08.44-.54.02-.64.02-1.28.02-.64.02-1.28v-7.64q0-.46-.46-.52l-.6-.08q-.46-.06-.46-.42t.44-.48l2.64-.68q.1-.04.16-.04h.16q.14 0 .18.04.12.08.12.48l-.06 2.32V112.097q.02.64.02 1.28zm5.82 0q0 .46.44.54l.42.08q.44.08.44.46t-.5.38h-3.82q-.5 0-.5-.38 0-.36.46-.46l.44-.08q.44-.08.44-.54.02-.64.02-1.28.02-.64.02-1.28v-7.64q0-.46-.46-.52l-.6-.08q-.46-.06-.46-.42t.44-.48l2.64-.68q.1-.04.16-.04h.16q.14 0 .18.04.12.08.12.48l-.06 2.32V112.097q.02.64.02 1.28zm10.28-9.58v2.84q.62-.64 1.3-.96.68-.32 1.54-.32 1 0 1.7.44.7.42 1.14 1.12.46.68.66 1.54.22.86.22 1.72 0 .92-.24 1.82-.24.88-.74 1.58-.5.7-1.26 1.14-.76.42-1.78.42-.76 0-1.38-.28-.62-.26-1.18-.88h-.12l-.06.62q-.06.46-.56.46l-2.16-.18q-.48-.04-.48-.42 0-.36.46-.46l.4-.08q.44-.1.46-.52v-10.22q0-.46-.46-.52l-.6-.08q-.46-.06-.46-.42t.42-.48l2.62-.68q.1-.04.16-.04h.16q.14 0 .18.04.12.08.12.48zm.06 3.7v5.54q.98.8 1.92.8.68 0 1.12-.34.46-.36.72-.88.26-.54.36-1.16.12-.62.12-1.16 0-1.84-.6-2.74-.6-.92-1.62-.92-.88 0-2.02.86zm11.28 5.88q0 .46.44.54l.42.08q.44.08.44.46t-.5.38h-3.82q-.5 0-.5-.38 0-.36.46-.46l.44-.08q.44-.08.44-.54.02-.64.02-1.28.02-.64.02-1.28v-7.64q0-.46-.46-.52l-.6-.08q-.46-.06-.46-.42t.44-.48l2.64-.68q.1-.04.16-.04h.16q.14 0 .18.04.12.08.12.48l-.06 2.32V112.097q.02.64.02 1.28zm11.28.1q.04-.04.26.16.24.24-.02.6-.32.46-.7.62-.38.18-.9.18-.82 0-1.3-.34-.46-.36-.64-.94-.64.64-1.24 1.02-.6.36-1.54.36-1.1 0-1.86-.6-.74-.6-.74-1.76 0-.78.42-1.34.44-.56 1.08-.96.66-.4 1.4-.66.74-.26 1.38-.44l1.02-.3v-.52q0-1.32-.4-1.8-.38-.5-1.32-.5h-.2q-.08 0-.18.02-.4.02-.5.48l-.18.82q-.24 1.2-1.2 1.2-.4 0-.68-.24-.28-.26-.32-.66.18-1.12 1.2-1.82 1.04-.7 2.72-.7 1.66 0 2.42.8t.76 2.82v4.02q0 .9.56.9.24 0 .44-.14.14-.1.18-.16.04-.08.08-.12zm-3.38-.5v-3.1q-.48.12-1.04.3-.54.18-1.02.46t-.8.7q-.32.4-.32.98 0 .68.4 1.06.42.38 1.1.38.4 0 .74-.16.36-.16.94-.62zm12.02-.28q.22-.3.42-.3.06 0 .14.04.3.18.12.6-.46 1.02-1.4 1.56-.92.54-2.18.54-1.08 0-1.92-.36-.84-.38-1.42-1.02-.56-.66-.86-1.54-.28-.9-.28-1.94 0-1.02.34-1.92.34-.9.96-1.56.62-.68 1.48-1.06t1.92-.38q.6 0 1.18.16.6.16 1.08.5.5.32.84.82.34.48.4 1.12-.14.82-1.02.82-1.02 0-1.18-1.24l-.14-.76q-.08-.36-.34-.44-.24-.08-.54-.08-.74 0-1.26.36-.52.34-.84.9-.32.54-.48 1.22-.14.66-.14 1.28 0 1.88.82 2.82t2.1.94q1.36 0 2.2-1.08zm10.9.78q.2.32.54.4l.52.1q.44.1.44.48t-.5.38h-2.22q-.38 0-.6-.34l-2.56-4.26-1.08 1.1v1q.02.52.02 1.04.04.46.46.54l.44.08q.46.1.46.46 0 .38-.5.38h-3.84q-.5 0-.5-.38 0-.36.46-.46l.44-.08q.44-.08.44-.54.02-.64.02-1.3.02-.68.02-1.26v-7.64q0-.46-.46-.52l-.6-.08q-.46-.06-.46-.42t.42-.48l2.62-.68q.1-.04.16-.04h.16q.14 0 .18.04.12.08.12.48l-.06 2.32v6.36l2.88-2.9q.22-.22.16-.4-.04-.2-.32-.24l-.26-.04q-.46-.06-.46-.48 0-.4.5-.4h3.4q.5 0 .5.4 0 .42-.46.48l-.98.14q-.32.06-.58.28l-1.8 1.76z" style="stroke-width:1.28176"/><path id="path345" d="M364.239 130.457q.16.1.18.46l.06.78q.64-.68 1.32-1 .7-.34 1.56-.34 1 0 1.7.44.7.42 1.14 1.12.46.68.66 1.54.22.86.22 1.72 0 .92-.24 1.82-.24.88-.74 1.58-.5.7-1.26 1.14-.76.42-1.78.42-1.48 0-2.52-1.1v2.34l.04 1.34q0 .46.44.54l.7.14q.44.08.44.46t-.5.38h-4.04q-.5 0-.5-.38t.44-.48l.46-.1q.44-.1.44-.54.02-.64.02-1.34.02-.68.02-1.28v-6.06q0-.32-.02-.56-.02-.16-.02-.3v-.3q-.04-.46-.48-.52l-.48-.06q-.46-.06-.46-.42 0-.34.4-.5l2.3-.9q.18-.08.34-.08.08 0 .16.04zm.36 2.02v5.58q.96.78 1.86.78 1 0 1.66-.86.68-.86.68-2.68 0-1.84-.6-2.74-.58-.92-1.56-.92-.9 0-2.04.84zm16.78 6q.04-.04.26.16.24.24-.02.6-.32.46-.7.62-.38.18-.9.18-.82 0-1.3-.34-.46-.36-.64-.94-.64.64-1.24 1.02-.6.36-1.54.36-1.1 0-1.86-.6-.74-.6-.74-1.76 0-.78.42-1.34.44-.56 1.08-.96.66-.4 1.4-.66.74-.26 1.38-.44l1.02-.3v-.52q0-1.32-.4-1.8-.38-.5-1.32-.5h-.2q-.08 0-.18.02-.4.02-.5.48l-.18.82q-.24 1.2-1.2 1.2-.4 0-.68-.24-.28-.26-.32-.66.18-1.12 1.2-1.82 1.04-.7 2.72-.7 1.66 0 2.42.8t.76 2.82v4.02q0 .9.56.9.24 0 .44-.14.14-.1.18-.16.04-.08.08-.12zm-3.38-.5v-3.1q-.48.12-1.04.3-.54.18-1.02.46t-.8.7q-.32.4-.32.98 0 .68.4 1.06.42.38 1.1.38.4 0 .74-.16.36-.16.94-.62zm7.72-7.52q.08.06.12.16.04.1.06.32l.14 1.66q.54-1.06 1.24-1.64.72-.6 1.46-.6.4 0 .82.24.42.24.54.82 0 .56-.34.9-.34.32-.92.32-.68 0-1.28-.62l-.1-.1q-.44.4-.8.9-.34.48-.6 1.16v4.36q.02.46.46.54l.64.12q.46.1.46.46 0 .38-.5.38h-4q-.5 0-.5-.38 0-.36.46-.46l.4-.08q.44-.1.46-.52v-4.34q0-.32-.02-.56-.02-.16-.02-.3v-.3q-.04-.46-.48-.52l-.48-.06q-.46-.06-.46-.42 0-.34.4-.5l2.32-.9q.18-.08.34-.08.12 0 .18.04zm10.2 8.06q.22-.12.38-.12t.28.14q.26.32-.04.64-.38.4-.94.64-.54.22-1.3.22-1.1 0-1.74-.54-.62-.56-.62-1.74v-.46q0-.22.02-.42v-4.56q0-.5-.5-.5h-.42q-.5 0-.5-.48 0-.46.46-.52l.7-.08q.42-.06.5-.48l.36-1.8q.08-.44.54-.44h.56q.48 0 .48.5l-.04 1.68q0 .5.5.5h1.38q.5 0 .5.5v.12q0 .5-.5.5h-1.4q-.5 0-.5.5v5.06q0 .74.28 1.06.3.32.76.32.16 0 .36-.04.22-.06.44-.2zm5.08-.12q.02.42.46.52l.34.06q.44.1.44.48t-.5.38h-3.68q-.5 0-.5-.38 0-.36.46-.46l.4-.08q.44-.1.46-.52v-4.26q0-.32-.02-.6-.02-.16-.02-.32v-.32q-.04-.46-.48-.52l-.48-.06q-.46-.06-.46-.42 0-.32.4-.48l2.6-.94q.1-.04.18-.06.08-.02.16-.02.1 0 .16.06.14.12.14.48l-.06 2.28zm-1.08-9.88q-.64 0-1.06-.38-.4-.38-.4-1t.4-1q.42-.38 1.06-.38.62 0 1.02.38.42.38.42 1t-.42 1q-.4.38-1.02.38zm10.92 9.18q.22-.3.42-.3.06 0 .14.04.3.18.12.6-.46 1.02-1.4 1.56-.92.54-2.18.54-1.08 0-1.92-.36-.84-.38-1.42-1.02-.56-.66-.86-1.54-.28-.9-.28-1.94 0-1.02.34-1.92.34-.9.96-1.56.62-.68 1.48-1.06t1.92-.38q.6 0 1.18.16.6.16 1.08.5.5.32.84.82.34.48.4 1.12-.14.82-1.02.82-1.02 0-1.18-1.24l-.14-.76q-.08-.36-.34-.44-.24-.08-.54-.08-.74 0-1.26.36-.52.34-.84.9-.32.54-.48 1.22-.14.66-.14 1.28 0 1.88.82 2.82t2.1.94q1.36 0 2.2-1.08zm5.5.68q0 .46.44.54l.42.08q.44.08.44.46t-.5.38h-3.82q-.5 0-.5-.38 0-.36.46-.46l.44-.08q.44-.08.44-.54.02-.64.02-1.28.02-.64.02-1.28v-7.64q0-.46-.46-.52l-.6-.08q-.46-.06-.46-.42t.44-.48l2.64-.68q.1-.04.16-.04h.16q.14 0 .18.04.12.08.12.48l-.06 2.32V137.097q.02.64.02 1.28zm11.28-3.8q-.08.44-.56.44h-5.8q.04 1.82.88 2.74.84.92 2.18.92.78 0 1.32-.28.56-.3 1.02-.82.22-.24.42-.24.1 0 .18.06.3.2.08.6-.52 1.02-1.5 1.56t-2.3.54q-1.12 0-2-.38-.86-.38-1.46-1.04-.58-.68-.88-1.6-.3-.92-.3-2 0-1.04.34-1.98t.96-1.64q.64-.72 1.52-1.12.9-.42 1.98-.42.9 0 1.62.3.74.3 1.26.84.52.52.8 1.26t.28 1.64v.32q0 .14-.04.3zm-6.32-.48h3q.72 0 .96-.3.26-.3.26-.84 0-.9-.52-1.5-.5-.6-1.26-.6-.62 0-1.08.32-.44.3-.74.78-.28.48-.44 1.06-.14.56-.18 1.08zm11.88.02.64.22q.74.28 1.22.6.5.3.82.64.28.36.4.78.12.4.12.86 0 .8-.36 1.36-.34.54-.9.9-.56.34-1.26.5-.68.16-1.36.16-.84 0-1.48-.18-.64-.16-1.28-.48-.36-.16-.36-.58l-.02-1.26q0-.5.48-.5h.32q.44 0 .54.46l.16.84q.06.4.42.52.6.24 1.24.24 1.02 0 1.48-.36.46-.36.46-1 0-.58-.4-.9-.4-.34-1.42-.74l-.88-.32q-1.12-.46-1.72-1.1-.6-.64-.6-1.64 0-.76.32-1.28t.84-.86q.52-.34 1.16-.48.64-.16 1.3-.16.7 0 1.28.16.58.14 1.16.42.38.18.36.6l-.06 1.12q-.02.48-.5.48h-.3q-.46 0-.54-.44l-.14-.74q-.08-.42-.44-.52-.42-.16-.88-.16-.8 0-1.24.34-.42.34-.42.98 0 .48.38.82.2.16.56.34.38.18.9.36zm18.42 4.28q.02.42.46.52l.34.06q.44.1.44.48t-.5.38h-3.7q-.5 0-.5-.38 0-.36.46-.46l.42-.08q.44-.1.46-.52v-4.36q0-1.2-.3-1.7-.3-.52-1.06-.52-.62 0-1.2.3-.58.28-1.22.92v5.34q0 .46.44.54l.34.06q.44.1.44.48t-.5.38h-3.68q-.5 0-.5-.38 0-.36.46-.46l.4-.08q.44-.1.46-.52v-10.22q0-.46-.46-.52l-.6-.08q-.46-.06-.46-.42t.42-.48l2.62-.68q.1-.04.16-.04h.16q.14 0 .18.04.12.08.12.48l-.06 2.32v3.28q.78-.88 1.56-1.3.78-.42 1.76-.42 1.32 0 1.98.82.66.8.66 2.64zm11.28-3.82q-.08.44-.56.44h-5.8q.04 1.82.88 2.74.84.92 2.18.92.78 0 1.32-.28.56-.3 1.02-.82.22-.24.42-.24.1 0 .18.06.3.2.08.6-.52 1.02-1.5 1.56t-2.3.54q-1.12 0-2-.38-.86-.38-1.46-1.04-.58-.68-.88-1.6-.3-.92-.3-2 0-1.04.34-1.98t.96-1.64q.64-.72 1.52-1.12.9-.42 1.98-.42.9 0 1.62.3.74.3 1.26.84.52.52.8 1.26t.28 1.64v.32q0 .14-.04.3zm-6.32-.48h3q.72 0 .96-.3.26-.3.26-.84 0-.9-.52-1.5-.5-.6-1.26-.6-.62 0-1.08.32-.44.3-.74.78-.28.48-.44 1.06-.14.56-.18 1.08zm11.02-3.64q.08.06.12.16.04.1.06.32l.14 1.66q.54-1.06 1.24-1.64.72-.6 1.46-.6.4 0 .82.24.42.24.54.82 0 .56-.34.9-.34.32-.92.32-.68 0-1.28-.62l-.1-.1q-.44.4-.8.9-.34.48-.6 1.16v4.36q.02.46.46.54l.64.12q.46.1.46.46 0 .38-.5.38h-4q-.5 0-.5-.38 0-.36.46-.46l.4-.08q.44-.1.46-.52v-4.34q0-.32-.02-.56-.02-.16-.02-.3v-.3q-.04-.46-.48-.52l-.48-.06q-.46-.06-.46-.42 0-.34.4-.5l2.32-.9q.18-.08.34-.08.12 0 .18.04zm14.12 4.12q-.08.44-.56.44h-5.8q.04 1.82.88 2.74.84.92 2.18.92.78 0 1.32-.28.56-.3 1.02-.82.22-.24.42-.24.1 0 .18.06.3.2.08.6-.52 1.02-1.5 1.56t-2.3.54q-1.12 0-2-.38-.86-.38-1.46-1.04-.58-.68-.88-1.6-.3-.92-.3-2 0-1.04.34-1.98t.96-1.64q.64-.72 1.52-1.12.9-.42 1.98-.42.9 0 1.62.3.74.3 1.26.84.52.52.8 1.26t.28 1.64v.32q0 .14-.04.3zm-6.32-.48h3q.72 0 .96-.3.26-.3.26-.84 0-.9-.52-1.5-.5-.6-1.26-.6-.62 0-1.08.32-.44.3-.74.78-.28.48-.44 1.06-.14.56-.18 1.08z" style="stroke-width:1.28176"/></g><text xml:space="preserve" id="text346" x="716.203" y="114.837" style="font-style:normal;font-variant:normal;font-weight:400;font-stretch:normal;font-size:20px;font-family:&quot;Song Myung&quot;;-inkscape-font-specification:&quot;Song Myung&quot;;text-align:center;text-anchor:middle;opacity:1;fill:#000;fill-opacity:1;stroke:none;stroke-width:1;stroke-dasharray:none;stroke-dashoffset:0;stroke-opacity:1"><tspan id="tspan345" x="716.203" y="114.837" style="font-style:normal;font-variant:normal;font-weight:400;font-stretch:normal;font-family:Courier;-inkscape-font-specification:Courier">all black</tspan><tspan id="tspan346" x="716.203" y="141.719" style="font-style:normal;font-variant:normal;font-weight:400;font-stretch:normal;font-family:Courier;-inkscape-font-specification:Courier">particles here</tspan></text><path id="path378" d="M585.598 104.384v-23.35l5.064-.01-8.207-8.179-8.18 8.21 5.017-.011.019 23.35z" style="opacity:1;fill:#f5f6ec;stroke:#000"/><path id="rect378" d="M565.386 94.81h3.323v9.577h-3.323z" style="opacity:1;fill:#d3bc5f;fill-opacity:1;stroke:#000;stroke-width:1;stroke-dasharray:none;stroke-dashoffset:0;stroke-opacity:1"/><path id="path381" d="M356.262-66.357H479.1v37.938H356.262Z" style="opacity:1;fill:#f5f6ec;stroke:#000"/><path id="text1" d="M229.61 68.38v-2.703h-4.896v-1.27l5.15-7.315h1.133v7.314h1.524v1.27h-1.524v2.703zm0-3.974v-5.09l-3.533 5.09z" style="font-size:20px;font-family:Arial;-inkscape-font-specification:Arial;text-align:center;text-anchor:middle;fill:#1a1a1a;stroke-width:.999998"/><path id="path28" d="M330 247.506V76.923" style="fill:#1a1a1a;stroke:#000;stroke-width:.6;stroke-dasharray:none"/><path id="path29" d="M235.919 62.802h79.96" style="fill:#1a1a1a;stroke:#000;stroke-width:.6;stroke-dasharray:none"/></g></svg>