<svg xmlns="http://www.w3.org/2000/svg" xmlns:xlink="http://www.w3.org/1999/xlink" id="svg482" width="480" height="440" preserveAspectRatio="none" version="1.1" viewBox="-10 -10 480 440"><style id="style419" type="text/css">.grid{stroke:#9e9ed1;stroke-width:.4}.axes{stroke:#000;stroke-width:.9}</style><defs id="defs424"><path id="STIXWEBMAIN-2212" stroke-width="1" d="M621 220H64v66h557z"/><path id="STIXWEBMAIN-31" stroke-width="1" d="M394 0H118v15c74 4 95 25 95 80v449c0 34-9 49-30 49-10 0-27-5-45-12l-27-10v14l179 91 9-3V76c0-43 20-61 95-61z"/><path id="STIXWEBMAIN-30" stroke-width="1" d="M476 330c0-172-63-344-226-344C79-14 24 172 24 336c0 177 69 340 230 340 131 0 222-141 222-346Zm-96-5c0 208-44 325-132 325-83 0-128-118-128-321S164 12 250 12c85 0 130 115 130 313z"/><clipPath id="trbl_clip_0_950_150_0"><path id="path171313" d="M0 0h950v150H0Z"/></clipPath><clipPath id="trbl_clip_0_950_150_0-1"><path id="path171313-4" d="M0 0h950v150H0Z"/></clipPath></defs><g id="layer4"><path id="path2917" d="M110.422 379.385V207.583m0 0V19.385" class="grid"/><path id="path2921" d="M350.422 379.385V207.583m0 0V19.385" class="grid"/><path id="path2923" d="M50.422 319.385h171.803m0 0h188.197" class="grid"/><path id="path2927" d="M50.422 79.385h171.803m0 0h188.197" class="grid"/><g id="g2951" style="display:inline;fill:#b8b8de;fill-opacity:1" transform="matrix(.01903 0 0 -.01903 -831.44 -306.518)"><use xlink:href="#STIXWEBMAIN-31" id="use2949" x="0" y="0" style="fill:#b8b8de;fill-opacity:1" transform="translate(0 582.933)"/></g><path id="rect54029-5" d="M-993.777 303.235h13.487v6.873h-13.487z" style="fill:#f0f;fill-opacity:1;stroke:none;stroke-width:1;stroke-miterlimit:2;stroke-dasharray:none;stroke-dashoffset:0;stroke-opacity:1"/></g><g id="layer13"><path id="use301250" stroke-width=".019" d="M209.988 212.972q1.066-1.542 2.913-1.542.914 0 1.828.495t1.485 1.751q.704 1.58.704 4.342 0 2.95-.818 4.512-.381.8-1.048 1.276-.666.476-1.161.59-.495.114-.971.133-.495 0-.99-.114t-1.162-.61q-.666-.494-1.047-1.275-.819-1.561-.819-4.512 0-3.313 1.086-5.046zm4.284-.228q-.571-.61-1.352-.61-.8 0-1.371.61-.476.495-.628 1.37-.153.876-.153 3.656 0 3.008.153 3.96.152.952.685 1.505.533.57 1.314.57.761 0 1.295-.57.552-.572.685-1.6t.152-3.865q0-2.76-.152-3.637-.152-.875-.628-1.39z" style="fill:#b8b8de;fill-opacity:1"/><path id="use301254" stroke-width=".019" d="m332.421 180.605-.247.095q-.267.096-.762.19-.495.096-1.104.134h-.362v-.876h.362q.895-.038 1.656-.285.762-.248 1.067-.457.304-.21.533-.42.038-.056.228-.056.172 0 .324.114v5.693l.019 5.712q.133.133.228.171.096.038.457.077.362.038 1.18.038h.496v.875h-.21q-.4-.057-3.027-.057-2.59 0-2.99.057h-.228v-.875H331.26q.305 0 .476-.02.171-.018.305-.056.133-.039.152-.039.019 0 .114-.095t.114-.076z" style="fill:#b8b8de;fill-opacity:1"/><g id="g301397" style="fill:#b8b8de;fill-opacity:1" transform="translate(7.67 224.11)"><path id="use301258" stroke-width=".019" d="M73.78-4.512v-.248q0-.248.267-.38h11.062q.285.152.285.38t-.285.38H74.047q-.267-.132-.267-.38Z" style="fill:#b8b8de;fill-opacity:1"/><path id="use301260" stroke-width=".019" d="m91.05-11.005-.248.095q-.267.095-.762.19-.495.096-1.104.134h-.362v-.876h.362q.895-.038 1.656-.286.762-.247 1.067-.457.304-.21.533-.419.038-.057.228-.057.172 0 .324.115v5.693l.019 5.712q.133.133.228.17.096.039.457.077.362.038 1.18.038h.496V0h-.21q-.4-.057-3.027-.057-2.59 0-2.99.057h-.228v-.876H89.888q.304 0 .476-.019.171-.019.304-.057.134-.038.153-.038.019 0 .114-.095t.114-.076z" style="fill:#b8b8de;fill-opacity:1"/></g><path id="path303393" stroke-width=".019" d="m212.963 60.8-.248.095q-.266.095-.761.19t-1.105.134h-.361v-.876h.361q.895-.038 1.657-.286.762-.247 1.066-.457.305-.21.533-.419.038-.057.229-.057.171 0 .323.114v5.693l.02 5.712q.133.134.228.172.095.038.457.076t1.18.038h.495v.876h-.209q-.4-.057-3.027-.057-2.59 0-2.99.057h-.228v-.876h1.218q.305 0 .476-.019.172-.019.305-.057.133-.038.152-.038.02 0 .115-.095.095-.096.114-.077z" style="fill:#b8b8de;fill-opacity:1"/><g id="g303401" style="fill:#b8b8de;fill-opacity:1" transform="translate(121.887 339.26)"><path id="path303397" stroke-width=".019" d="M73.78-4.512v-.248q0-.248.267-.38h11.062q.285.152.285.38t-.285.38H74.047q-.267-.132-.267-.38Z" style="fill:#b8b8de;fill-opacity:1"/><path id="path303399" stroke-width=".019" d="m91.05-11.005-.248.095q-.267.095-.762.19-.495.096-1.104.134h-.362v-.876h.362q.895-.038 1.656-.286.762-.247 1.067-.457.304-.21.533-.419.038-.057.228-.057.172 0 .324.115v5.693l.019 5.712q.133.133.228.17.096.039.457.077.362.038 1.18.038h.496V0h-.21q-.4-.057-3.027-.057-2.59 0-2.99.057h-.228v-.876H89.888q.304 0 .476-.019.171-.019.304-.057.134-.038.153-.038.019 0 .114-.095t.114-.076z" style="fill:#b8b8de;fill-opacity:1"/></g></g><g id="axes" style="display:inline"><path id="path439" d="M50.422 199.385h135.58m4.993 0h2.563m6.453 0h210.411" class="axes"/><path id="path441" d="M230.422 379.385V231.858m0-5.436V165.39m0-6.01V19.385" class="axes"/></g><g id="layer2"><path id="path14649" d="m-982.886 628.152 214.787 107.08" style="fill:#000;fill-opacity:1;stroke:#000;stroke-width:1.8;stroke-miterlimit:2;stroke-dasharray:1.8,1.8;stroke-dashoffset:0"/><path id="path283207" d="m-796.495 637.877 119.236 13.515" style="fill:#000;fill-opacity:1;stroke:#000;stroke-width:1.8;stroke-miterlimit:2;stroke-dasharray:1.8,1.8;stroke-dashoffset:0"/><path id="path14524" d="m-844.301 797.571 53.54-107.394" style="fill:#000;fill-opacity:1;stroke:#000;stroke-width:1.8;stroke-miterlimit:2;stroke-dasharray:1.8,1.8;stroke-dashoffset:0"/><path id="path10324" d="M350.422 199.385a120 120 0 0 1-120 120 120 120 0 0 1-120-120 120 120 0 0 1 120-120 120 120 0 0 1 120 120z" style="fill:none;stroke:#000;stroke-width:1.8;stroke-miterlimit:2"/><path id="path640" d="M123.029 145.844a120 120 0 0 1 107.393-66.46 120 120 0 0 1 53.54 12.606 120 120 0 0 1 66.46 107.395 120 120 0 0 1-12.606 53.54 120 120 0 0 1-107.394 66.46 120 120 0 0 1-53.54-12.606 120 120 0 0 1-66.46-107.394 120 120 0 0 1 12.607-53.54" style="fill:none;stroke:#000;stroke-width:1.8;stroke-miterlimit:2"/><path id="path10455" d="M-1048.644 99.697a120 120 0 0 1-120 120 120 120 0 0 1-120-120 120 120 0 0 1 120-120 120 120 0 0 1 120 120z" style="fill:none;stroke:#000;stroke-width:1.8;stroke-miterlimit:2"/><circle id="path10465" cx="350.407" cy="199.385" r="12.605" style="fill:red;fill-opacity:1;stroke:none;stroke-width:1.8;stroke-miterlimit:2;stroke-dasharray:none"/><circle id="circle10520" cx="133.34" cy="269.919" r="12.605" style="fill:#e5e500;fill-opacity:1;stroke:none;stroke-width:1.8;stroke-miterlimit:2;stroke-dasharray:none"/><circle id="circle12227" cx="267.504" cy="313.512" r="12.605" style="fill:#00f;fill-opacity:1;stroke:none;stroke-width:1.8;stroke-miterlimit:2;stroke-dasharray:none"/><circle id="circle12296" cx="133.34" cy="128.851" r="12.605" style="fill:#00d900;fill-opacity:1;stroke:none;stroke-width:1.8;stroke-miterlimit:2;stroke-dasharray:none"/><circle id="circle12878" cx="-1076.801" cy="417.501" r="12.605" style="fill:#dd0;fill-opacity:1;stroke:none;stroke-width:1.8;stroke-miterlimit:2;stroke-dasharray:none"/><circle id="circle12880" cx="-1106.613" cy="255.33" r="12.605" style="fill:#0c0;fill-opacity:1;stroke:none;stroke-width:1.8;stroke-miterlimit:2;stroke-dasharray:none"/><path id="path15451" d="m490.783 1403.31-214.788-107.081 107.081-214.788 214.788 107.08Z" style="fill:none;fill-opacity:1;stroke:#000;stroke-width:1.8;stroke-miterlimit:2;stroke-dasharray:none;stroke-dashoffset:0"/><path id="path15455" d="m-1284.573 324.828-19.825-9.883 9.884-19.826 19.825 9.884z" style="fill:none;fill-opacity:1;stroke:#000;stroke-width:.7;stroke-miterlimit:2;stroke-dasharray:none;stroke-dashoffset:0"/><path id="path17844" d="m829.968-453.654 107.08-214.789m-160.933 53.855 214.787 107.08" style="fill:#000;fill-opacity:1;stroke:#000;stroke-width:3;stroke-miterlimit:2;stroke-dasharray:none;stroke-dashoffset:0"/><path id="path17846" d="m888.279-546.327-19.826-9.884 9.884-19.825 19.825 9.884z" style="fill:none;fill-opacity:1;stroke:#000;stroke-width:.7;stroke-miterlimit:2;stroke-dasharray:none;stroke-dashoffset:0"/><ellipse id="ellipse25418" cx="-860.861" cy="-614.243" rx="141.053" ry="141.672" style="fill:none;fill-opacity:1;stroke:#000;stroke-width:1.3;stroke-miterlimit:2;stroke-dasharray:none;stroke-dashoffset:0"/><path id="path25420" d="m-818.433-774.402-42.429 160.158 106.316-135.573" style="fill:none;fill-opacity:1;stroke:#000;stroke-width:1.3;stroke-miterlimit:2;stroke-dasharray:none;stroke-dashoffset:0"/><path id="path26292" d="m-718.614-442.667 1.515 8.293-8.281.73" style="fill:none;fill-opacity:1;stroke:#000;stroke-width:1.3;stroke-miterlimit:2;stroke-dasharray:none;stroke-dashoffset:0;stroke-opacity:1"/><g id="g31216" transform="translate(628.691 -851.086)"><path id="path31210" d="M216.268 43.091a141.053 141.672 0 0 1 51.009 25.613" style="fill:none;fill-opacity:1;stroke:#000;stroke-width:1.3;stroke-miterlimit:2;stroke-dasharray:none;stroke-dashoffset:0"/><path id="path31212" d="M222.428 19.841 180 180 286.315 44.426" style="fill:none;fill-opacity:1;stroke:#000;stroke-width:1.3;stroke-miterlimit:2;stroke-dasharray:none;stroke-dashoffset:0"/><path id="path31214" stroke-linejoin="round" d="M266.281 60.252c-1.465 1.96-.081 7.611 1.113 8.515-1.194-.904-6.976-.675-8.442 1.285" class="difference-arrows-tips" style="display:inline;fill:none;stroke:#000;stroke-width:1.5;stroke-linecap:round;stroke-linejoin:round;stroke-dasharray:none"/></g><g id="g44298" transform="translate(-939.527 -376.888)"><path id="path25424" d="M216.268 43.091a141.053 141.672 0 0 1 51.009 25.613" style="fill:none;fill-opacity:1;stroke:#000;stroke-width:1.3;stroke-miterlimit:2;stroke-dasharray:none;stroke-dashoffset:0"/><path id="path117967" stroke-linejoin="round" d="M266.281 60.252c-1.465 1.96-.081 7.611 1.113 8.515-1.194-.904-6.976-.675-8.442 1.285" class="difference-arrows-tips" style="display:inline;fill:none;stroke:#000;stroke-width:1.5;stroke-linecap:round;stroke-linejoin:round;stroke-dasharray:none"/><path id="path36489" d="m228.7 25.752-1.273 3.979q-.318.992-.369 1.254-.05.261.094.446.152.188.641.344l-.109.341q-1.13-.345-1.72-.289l-.09-.028q-.106-.484.2-1.489-.678.56-1.377.728-.692.17-1.395-.055-.608-.194-.987-.617-.377-.431-.426-.888-.043-.455.216-1.262l.66-2.067q.338-1.052.374-1.294.039-.249-.126-.424-.157-.173-.683-.34l.11-.342 2.059.66-1.347 4.207q-.199.623-.215.928-.016.305.22.617.237.305.637.433.57.182 1.207-.022.64-.212.958-.568.328-.36.576-1.138l.439-1.37q.318-.994.364-1.216.047-.222-.074-.432-.111-.215-.637-.383l-.156-.05.11-.34z" style="font-size:25px;font-family:Baskerville;-inkscape-font-specification:Baskerville;text-align:center;text-anchor:middle;stroke:#000;stroke-width:0;stroke-miterlimit:2;stroke-dasharray:none"/><path id="path36491" d="m232.295 26.797.195.078q-.012.514-.298 1.296.765-.407 1.457-.483.691-.076 1.313.171.708.282 1.038.757.337.477.295.963-.04.478-.368 1.302l-.737 1.85q-.408 1.026-.461 1.264-.053.239.088.43.152.185.665.39l-.132.332-3.028-1.206.132-.332.138.055q.52.207.74.118.219-.088.321-.282.102-.194.497-1.184l.76-1.907q.278-.701.324-1.026.056-.33-.155-.682-.205-.35-.667-.533-.528-.21-1.139-.085-.6.12-1.277.58l-.961 2.413q-.409 1.026-.462 1.265-.046.241.096.431.152.187.672.394l-.132.332-2.992-1.191.133-.333q.498.199.734.175.235-.023.359-.208.134-.19.566-1.274l.702-1.763q.411-1.033.454-1.267.053-.239-.099-.425-.142-.19-.662-.397l.133-.333q.829.23 1.758.315z" style="font-size:25px;font-family:Baskerville;-inkscape-font-specification:Baskerville;text-align:center;text-anchor:middle;stroke:#000;stroke-width:0;stroke-miterlimit:2;stroke-dasharray:none"/><path id="path36493" d="M240.64 26.658q.134-.306.444-.434.318-.124.624.01t.424.449q.117.314-.018.62-.137.314-.447.441-.31.128-.617-.006t-.43-.452q-.118-.315.019-.628zm.071 3.58-1.781 4.07q-.409.933-.486 1.188-.078.254.044.46.122.207.578.406l.15.066-.144.328-3.142-1.376.143-.328.243.106q.506.222.718.145.222-.081.33-.271.12-.194.547-1.17l.773-1.768q.45-1.026.45-1.298.007-.268-.132-.397-.132-.126-.531-.3l-.192-.085.143-.327q1.325.427 2.132.483z" style="font-size:25px;font-family:Baskerville;-inkscape-font-specification:Baskerville;text-align:center;text-anchor:middle;stroke:#000;stroke-width:0;stroke-miterlimit:2;stroke-dasharray:none"/><path id="path36495" d="M245.318 32.784 243.563 32l-1.568 3.517q-.36.81-.416 1.126-.053.309.098.58.159.275.422.393.511.228 1.147-.187l.168.236q-.43.371-.97.42-.532.044-.972-.153-.512-.228-.77-.7-.247-.477-.166-.926.089-.446.542-1.462l1.47-3.297-.846-.377.146-.326q.588.245 1.262-.025.675-.27 1.186-1.073l.227.102-.814 1.826 1.755.782z" style="font-size:25px;font-family:Baskerville;-inkscape-font-specification:Baskerville;text-align:center;text-anchor:middle;stroke:#000;stroke-width:0;stroke-miterlimit:2;stroke-dasharray:none"/><path id="path36497" d="m246.452 40.222.89-1.893.275.13q-.293 1.864.94 2.444.534.251.947.05.42-.198.602-.585.212-.45.066-.871-.153-.425-.791-1.224-.671-.84-.856-1.434-.188-.587.093-1.185.269-.57.918-.892.654-.329 1.393.019.753.354.958 1.198.155-.056.516-.384l.26.122-.837 1.78-.26-.122q.16-.706-.034-1.356-.182-.653-.731-.911-.423-.2-.806-.061-.382.138-.545.483-.178.38-.02.79.15.414.777 1.147.941 1.105.967 1.745.022.646-.203 1.125-.354.753-1.076.99-.714.24-1.467-.115-.796-.374-1.107-1.32-.29.122-.595.46z" style="font-size:25px;font-family:Baskerville;-inkscape-font-specification:Baskerville;text-align:center;text-anchor:middle;stroke:#000;stroke-width:0;stroke-miterlimit:2;stroke-dasharray:none"/><path id="path36499" d="m255.238 37.154.184.1q-.093.446-.388.985.69-.225 1.312-.178.632.044 1.192.35 1.16.633 1.484 1.874.328 1.234-.403 2.572-.716 1.31-1.975 1.766-1.253.459-2.515-.231-.52-.283-.881-.756-.36-.462-.56-1.103l-1.159 2.123q-.53.97-.61 1.2-.076.234.046.433.118.206.602.471l-.171.314-2.922-1.596.172-.314.205.112q.484.265.706.2.225-.055.353-.242.132-.176.643-1.111l2.774-5.079q.489-.894.588-1.141.106-.244.003-.46-.103-.216-.54-.454l-.205-.112.172-.314q.713.3 1.893.59zm-2.303 4.929q.122.651.405 1.107.294.453.751.703.771.421 1.707.072.935-.349 1.725-1.796.686-1.256.473-2.179-.214-.923-.978-1.34-.471-.258-1.025-.25-.554.007-1.2.283z" style="font-size:25px;font-family:Baskerville;-inkscape-font-specification:Baskerville;text-align:center;text-anchor:middle;stroke:#000;stroke-width:0;stroke-miterlimit:2;stroke-dasharray:none"/><path id="path36501" d="m264.622 45.413-3.78-2.332q-.268.375-.387.567-.881 1.43-.883 2.425.01.993.897 1.54 1.205.743 2.373-.026l.318.196q-.628.545-1.494.54-.862-.01-1.603-.467-.689-.425-1.092-1.149-.393-.726-.392-1.603.001-.876.561-1.783.792-1.285 2.07-1.667 1.28-.388 2.413.31 1.066.657 1.249 1.665.182 1.008-.25 1.784zm-.996-.98q.114-.14.188-.259.359-.583.21-1.113-.137-.532-.634-.839-1.205-.743-2.359.61z" style="font-size:25px;font-family:Baskerville;-inkscape-font-specification:Baskerville;text-align:center;text-anchor:middle;stroke:#000;stroke-width:0;stroke-miterlimit:2;stroke-dasharray:none"/><path id="path36503" d="m270.032 48.921-3.724-2.42q-.276.369-.4.558-.915 1.409-.94 2.404-.013.992.86 1.56 1.188.771 2.374.03l.313.204q-.64.53-1.506.505-.861-.03-1.592-.505-.678-.44-1.064-1.174-.376-.736-.354-1.612.022-.876.602-1.77.822-1.265 2.108-1.617 1.29-.359 2.406.366 1.05.682 1.21 1.694.158 1.013-.293 1.777zm-.972-1.002q.117-.137.194-.255.373-.574.237-1.107-.125-.536-.615-.854-1.187-.771-2.373.555z" style="font-size:25px;font-family:Baskerville;-inkscape-font-specification:Baskerville;text-align:center;text-anchor:middle;stroke:#000;stroke-width:0;stroke-miterlimit:2;stroke-dasharray:none"/><path id="path36505" d="m275.973 51.373 1.368-2.079q.56-.851.68-1.089.126-.234.04-.458-.085-.223-.5-.497l-.137-.09.196-.299q.8.498 1.902.86l.136.09-4.708 7.154q-.612.93-.712 1.152-.1.223.004.431.111.213.58.521l-.197.3q-.955-.601-1.788-.935.123-.357.555-1.013-.797.164-1.469.067-.665-.093-1.21-.453-1.034-.68-1.24-2.007-.2-1.324.578-2.506.856-1.3 2.149-1.594 1.296-.302 2.356.396.539.355.891.866.353.511.525 1.183zm-.248.377q-.185-.652-.501-1.12-.305-.472-.74-.758-.734-.483-1.6-.243-.86.244-1.702 1.524-.855 1.3-.761 2.247.1.95.84 1.438.495.325 1.071.369.576.044 1.242-.189z" style="font-size:25px;font-family:Baskerville;-inkscape-font-specification:Baskerville;text-align:center;text-anchor:middle;stroke:#000;stroke-width:0;stroke-miterlimit:2;stroke-dasharray:none"/></g><g id="g37358" aria-label="unit speed" style="font-size:25px;font-family:Baskerville;-inkscape-font-specification:Baskerville;text-align:center;text-anchor:middle;stroke-width:2.04012;stroke-miterlimit:2" transform="scale(.63722) rotate(26.362 1047.278 -3441.222)"><path id="path37340" d="M183.234 14.397v6.555q0 1.636.049 2.05.048.416.354.623.317.208 1.123.208v.561q-1.856.025-2.71.39h-.147q-.39-.67-.415-2.319-.745 1.16-1.709 1.746-.952.586-2.112.586-1 0-1.77-.452-.769-.464-1.062-1.123-.28-.659-.28-1.99v-3.405q0-1.734-.061-2.112-.061-.39-.391-.574-.318-.183-1.184-.183v-.561h3.393v6.933q0 1.026.122 1.49.122.463.623.817.5.342 1.16.342.94 0 1.794-.61.855-.623 1.16-1.306.317-.696.317-1.978v-2.258q0-1.636-.036-1.99-.037-.354-.318-.61-.268-.269-1.135-.269h-.256v-.561z" style="stroke-width:2.04012"/><path id="path37342" d="M188.837 13.994h.33q.28.757.317 2.063.879-1.038 1.843-1.55.964-.513 2.014-.513 1.196 0 1.953.5.77.5.989 1.233.22.72.22 2.112v3.125q0 1.733.06 2.112.062.378.38.574.329.183 1.195.183v.561h-5.114v-.561h.232q.879 0 1.147-.257.269-.256.305-.598.037-.342.037-2.014v-3.223q0-1.184-.122-1.684-.11-.513-.623-.904-.5-.39-1.281-.39-.892 0-1.71.537-.805.525-1.525 1.587v4.077q0 1.733.06 2.112.074.378.391.574.33.183 1.209.183v.561h-5.054v-.561q.842 0 1.172-.171.33-.171.403-.513.085-.354.085-2.185v-2.979q0-1.745-.073-2.111-.061-.379-.39-.562-.318-.195-1.197-.195v-.562q1.343-.146 2.747-.561z" style="stroke-width:2.04012"/><path id="path37344" d="M200.348 8.891q0-.525.366-.903.379-.379.904-.379.524 0 .89.379.367.378.367.903 0 .537-.366.916-.367.378-.891.378-.525 0-.904-.378-.366-.379-.366-.916zm2.356 5.103v6.97q0 1.6.049 2.014.049.415.354.635.305.22 1.086.22h.257v.561h-5.384v-.561h.415q.867 0 1.123-.245.269-.256.305-.598.05-.354.05-2.026v-3.027q0-1.758-.172-2.149-.158-.39-.44-.488-.268-.098-.951-.098h-.33v-.561q2.173-.22 3.37-.647z" style="stroke-width:2.04012"/><path id="path37346" d="M211.786 14.958h-3.015v6.043q0 1.391.122 1.88.122.476.513.769.402.293.854.293.879 0 1.526-1.001l.39.231q-.378.806-1.122 1.221-.733.403-1.49.403-.879 0-1.55-.513-.66-.525-.83-1.22-.159-.696-.159-2.442v-5.664h-1.452v-.561q1-.025 1.794-.843.793-.818 1.013-2.295h.39v3.138h3.016z" style="stroke-width:2.04012"/><path id="path37348" d="M219.476 24.712v-3.284h.476q.83 2.844 2.967 2.844.928 0 1.38-.561.463-.562.463-1.233 0-.782-.488-1.282-.5-.5-1.941-1.209-1.514-.744-2.173-1.464-.66-.708-.66-1.746 0-.989.709-1.88.708-.903 1.99-.903 1.306 0 2.16 1.062.183-.183.476-.891h.452v3.088h-.452q-.244-1.11-.952-1.904-.696-.806-1.648-.806-.732 0-1.184.452-.452.451-.452 1.05 0 .659.5 1.135.49.488 1.869 1.11 2.075.94 2.539 1.832.464.903.464 1.733 0 1.306-.867 2.124-.855.818-2.16.818-1.38 0-2.454-1.135-.33.366-.538 1.05z" style="stroke-width:2.04012"/><path id="path37350" d="M229.889 13.994h.33q.207.683.207 1.648.781-.83 1.672-1.233.904-.415 1.905-.415 2.075 0 3.454 1.465 1.38 1.452 1.38 3.845 0 2.344-1.392 3.918-1.38 1.575-3.638 1.575-.927 0-1.782-.378-.842-.367-1.599-1.1v3.797q0 1.734.061 2.112.073.379.39.562.318.195 1.185.195v.562h-5.225v-.562h.366q.867 0 1.123-.256.269-.245.306-.599.048-.341.048-2.014v-9.082q0-1.599-.048-2.014-.037-.415-.342-.635-.305-.22-1.087-.22h-.366v-.56q1.209-.123 3.052-.611zm.537 8.52q.66.806 1.392 1.221.744.403 1.562.403 1.38 0 2.405-1.184t1.025-3.772q0-2.246-.988-3.357-.99-1.111-2.356-1.111-.843 0-1.6.427-.756.427-1.44 1.294z" style="stroke-width:2.04012"/><path id="path37352" d="M249.81 17.778h-6.97q-.048.72-.048 1.074 0 2.637.818 3.967.83 1.319 2.466 1.319 2.221 0 3.149-1.99h.586q-.39 1.245-1.55 1.953-1.16.696-2.527.696-1.27 0-2.405-.635-1.123-.647-1.843-1.819-.72-1.171-.72-2.844 0-2.368 1.391-3.93 1.392-1.575 3.48-1.575 1.964 0 3.039 1.196 1.074 1.196 1.135 2.588zm-2.135-.488q.036-.281.036-.5 0-1.075-.635-1.661-.622-.598-1.538-.598-2.221 0-2.649 2.759z" style="stroke-width:2.04012"/><path id="path37354" d="M260.748 17.778h-6.97q-.049.72-.049 1.074 0 2.637.818 3.967.83 1.319 2.466 1.319 2.222 0 3.15-1.99h.585q-.39 1.245-1.55 1.953-1.16.696-2.527.696-1.27 0-2.405-.635-1.123-.647-1.843-1.819-.72-1.171-.72-2.844 0-2.368 1.392-3.93 1.391-1.575 3.479-1.575 1.965 0 3.04 1.196 1.073 1.196 1.134 2.588zm-2.136-.488q.037-.281.037-.5 0-1.075-.635-1.661-.623-.598-1.538-.598-2.222 0-2.649 2.759z" style="stroke-width:2.04012"/><path id="path37356" d="M271.088 15.459v-3.907q0-1.599-.05-2.014-.036-.415-.34-.635-.306-.22-1.087-.22h-.257v-.56q1.477-.037 3.235-.514h.257v13.44q0 1.746.06 2.124.062.379.379.562.33.183 1.208.183v.562q-1.77.036-3.149.317-.146-.574-.146-1.807-.904.904-1.868 1.355-.952.452-1.978.452-1.94 0-3.357-1.563-1.403-1.562-1.403-3.784 0-2.441 1.44-3.943 1.44-1.513 3.43-1.513 1.013 0 1.917.366.903.366 1.709 1.099zm0 .708q-.806-.696-1.624-1.038-.805-.354-1.623-.354-1.38 0-2.307 1.062-.916 1.062-.916 3.467 0 2.441.94 3.6.952 1.16 2.344 1.16.927 0 1.72-.439.794-.44 1.466-1.318z" style="stroke-width:2.04012"/></g><text xml:space="preserve" id="text45873" x="-575.936" y="-376.791" style="font-style:normal;font-variant:normal;font-weight:400;font-stretch:normal;font-size:21.5px;font-family:Baskerville;-inkscape-font-specification:Baskerville;text-align:center;text-anchor:middle;fill:#000;fill-opacity:1;stroke:#f0f;stroke-width:0;stroke-miterlimit:2;stroke-dasharray:none;stroke-dashoffset:0;stroke-opacity:1"><tspan id="tspan45871" x="-575.936" y="-376.791" style="font-style:normal;font-variant:normal;font-weight:400;font-stretch:normal;font-size:21.5px;font-family:&quot;Song Myung&quot;;-inkscape-font-specification:&quot;Song Myung&quot;;fill:#000">PARTICLE 2</tspan></text><text xml:space="preserve" id="text45927" x="-575.936" y="-346.853" style="font-style:normal;font-variant:normal;font-weight:400;font-stretch:normal;font-size:21.5px;font-family:Baskerville;-inkscape-font-specification:Baskerville;text-align:center;text-anchor:middle;fill:#000;fill-opacity:1;stroke:#f0f;stroke-width:0;stroke-miterlimit:2;stroke-dasharray:none;stroke-dashoffset:0;stroke-opacity:1"><tspan id="tspan45929" x="-575.936" y="-346.853" style="font-style:normal;font-variant:normal;font-weight:400;font-stretch:normal;font-size:21.5px;font-family:&quot;Song Myung&quot;;-inkscape-font-specification:&quot;Song Myung&quot;;fill:#000">PARTICLE 3</tspan></text><text xml:space="preserve" id="text45935" x="-575.936" y="-316.915" style="font-style:normal;font-variant:normal;font-weight:400;font-stretch:normal;font-size:21.5px;font-family:Baskerville;-inkscape-font-specification:Baskerville;text-align:center;text-anchor:middle;fill:#000;fill-opacity:1;stroke:#f0f;stroke-width:0;stroke-miterlimit:2;stroke-dasharray:none;stroke-dashoffset:0;stroke-opacity:1"><tspan id="tspan45933" x="-575.936" y="-316.915" style="font-style:normal;font-variant:normal;font-weight:400;font-stretch:normal;font-size:21.5px;font-family:&quot;Song Myung&quot;;-inkscape-font-specification:&quot;Song Myung&quot;;fill:#000">PARTICLE 4</tspan></text><path id="rect52016" d="M-1185.711 469.979h108.41v19.628h-108.41z" style="fill:#fea;fill-opacity:1;stroke:#2b2200;stroke-width:1;stroke-miterlimit:2;stroke-dasharray:none;stroke-dashoffset:0;stroke-opacity:1"/><path id="rect46365" d="M-1016.303-430.825h125.012v8.893l44.39 2.265-1.427 52.068 14.005 4.105-17.73 1.984-3.411-50.912-35.827 1.361v9.371h-125.012z" style="fill:#fea;stroke:#2b2200;stroke-miterlimit:2"/><path id="path52905" d="M-777.644-298.222h-27.902v-50.055h-11.585v8.211h-108.41v-19.628h108.41v8.29h14.712v50.055h24.775v-3.066l4.615 4.615-4.615 4.615z" style="fill:#fea;fill-opacity:1;stroke:#2b2200;stroke-width:1;stroke-miterlimit:2;stroke-dasharray:none;stroke-dashoffset:0;stroke-opacity:1"/><g id="g52004" transform="translate(-1062.603 -427.302)"><g id="g46085" style="stroke-width:1.16635" transform="matrix(.85737 0 0 .85737 -337.793 62.994)"><path id="path46010" d="M564.14 18.417c-1.13.328-.24 2.991-.333 4.07 2.898.329.933 1.793-1.045 1.262-1.111.179-4.93-.009-2.468-1.04 1.61-.566.567-3.067.858-4.526-.094-2.27.199-4.617-.172-6.84-2.823-.396-.69-1.758 1.163-1.246 2.917.028 7-.494 8.152 2.967 1.084 3.862-3.018 5.58-6.155 5.353zm.473-7.267c-1.94-.284-.565 2.794-.967 4.014-1.073 2.954 2.529 2.786 3.871.845 1.345-2.173-.136-5.275-2.904-4.859z" style="font-size:21.5px;font-family:&quot;Song Myung&quot;;-inkscape-font-specification:&quot;Song Myung&quot;;text-align:center;text-anchor:middle;stroke:#f0f;stroke-width:0;stroke-miterlimit:2"/><path id="path46012" d="M582.931 22.266c2.572.845.813 1.89-1.206 1.483-1.303.403-4.54-.485-1.804-1.075.737-.587-.062-3.404-1.2-3.268-1.22.268-3.201-.548-3.92.43-1.012 1.727-.775 2.81.863 3.44-1.04.911-3.119.391-4.552.355.379-1.147 2.577-1.568 2.56-3.638 1.265-3.244 2.26-6.633 3.69-9.789 1.826-.513 1.685 2.22 2.384 3.324l3.185 8.738zm-7.61-3.913c1.016-.272 3.579.556 3.59-.431l-1.677-4.837-1.914 5.268z" style="font-size:21.5px;font-family:&quot;Song Myung&quot;;-inkscape-font-specification:&quot;Song Myung&quot;;text-align:center;text-anchor:middle;stroke:#f0f;stroke-width:0;stroke-miterlimit:2"/><path id="path46014" d="M596.24 22.18c1.362.438 2.918 1.87.086 1.784-2.803.422-2.814-2.655-3.29-4.558-.348-2.445-4.448-2.706-3.29.183-.318 1.892.285 3.129 1.85 3.687-1.003.982-2.993.244-4.417.473-2.978.068-.383-.91.074-2.09-.06-3.428.217-6.933-.15-10.315-2.823-.397-.69-1.759 1.163-1.247 2.863.115 6.99-.733 8.173 2.698 1.833 3.164-5.07 4.059-1.661 5.257.987 1.149 1.048 2.735 1.462 4.128zm-6.493-5.698c2.996.968 6.12-2.804 3.204-4.969-1.985-.935-3.88-.542-3.204 1.84v3.13z" style="font-size:21.5px;font-family:&quot;Song Myung&quot;;-inkscape-font-specification:&quot;Song Myung&quot;;text-align:center;text-anchor:middle;stroke:#f0f;stroke-width:0;stroke-miterlimit:2"/><path id="path46016" d="M609.097 11.688c-.718-.724-3.753-1.124-3.075.795.09 3.334-.195 6.729.172 10.02 2.716.156 1.342 1.795-.742 1.246-1.094-.16-4.746.57-3.429-.989 2.237.24 1.32-2.486 1.505-3.893-.007-2.558.024-5.116-.043-7.674-1.522-.107-3.527-.268-3.24 1.848-1.21 2.32-1.83-.966-1.41-2.228.612-1.399 2.867-.428 4.216-.716 2.491.09 5.042-.182 7.497.134.386 1.12.6 4.846-1.193 3.134l-.258-1.677z" style="font-size:21.5px;font-family:&quot;Song Myung&quot;;-inkscape-font-specification:&quot;Song Myung&quot;;text-align:center;text-anchor:middle;stroke:#f0f;stroke-width:0;stroke-miterlimit:2"/><path id="path46018" d="M618.148 10.57c-1.87.478-2.013 2.252-1.827 4.18.078 2.58-.173 5.212.16 7.752 2.831.388.71 1.762-1.152 1.247-1.104.195-4.805-.026-2.36-1.04 1.61-.566.567-3.067.858-4.526-.094-2.27.199-4.617-.172-6.84-2.823-.396-.69-1.758 1.163-1.246 1.033.216 2.733-.49 3.33.473z" style="font-size:21.5px;font-family:&quot;Song Myung&quot;;-inkscape-font-specification:&quot;Song Myung&quot;;text-align:center;text-anchor:middle;stroke:#f0f;stroke-width:0;stroke-miterlimit:2"/><path id="path46020" d="M629.522 20.524c1.67-1.973 2.263 2.614.66 2.946-4.047 1.74-9.787-.18-10.357-4.994-1.218-4.73 3.122-9.527 7.96-8.659 2.5-.532 4.08 2.512 2.554 4.042-1.674-.542-1.155-4.457-4.424-2.854-4.058 1.432-4.363 7.321-2.168 10.445 1.429 2.02 6.146 2.47 5.775-.926z" style="font-size:21.5px;font-family:&quot;Song Myung&quot;;-inkscape-font-specification:&quot;Song Myung&quot;;text-align:center;text-anchor:middle;stroke:#f0f;stroke-width:0;stroke-miterlimit:2"/><path id="path46022" d="M641.798 20.288c1.9-1.668 1.51 1.736 1.355 2.945-.959 1.063-2.996.272-4.417.516-1.982-.078-4.009.157-5.963-.118.683-1.043 2.478-1.802 1.694-4.1-.095-2.72.2-5.515-.172-8.187-2.823-.397-.69-1.759 1.163-1.247 1.106-.185 4.842.007 2.425 1.057-1.735.461-.596 3.097-.922 4.53.016 2.33-.04 4.661.043 6.99 1.425-.23 3.352.511 4.407-.473l.387-1.913z" style="font-size:21.5px;font-family:&quot;Song Myung&quot;;-inkscape-font-specification:&quot;Song Myung&quot;;text-align:center;text-anchor:middle;stroke:#f0f;stroke-width:0;stroke-miterlimit:2"/><path id="path46024" d="M654.333 20.61c1.753-1.688 1.542 1.907 1.166 3.01-3.358.298-6.804.046-10.196.13-.912-.998 2.534-1.582 1.29-3.97-.095-2.803.2-5.68-.172-8.436-2.823-.397-.69-1.759 1.163-1.247 2.495.087 5.046-.174 7.506.129.366 1.097.618 4.666-1.166 3.031.192-1.926-1.318-2.353-2.935-2.064-1.835-.523-2.164.563-1.902 2.16.241 1.088-.767 3.426 1.14 2.85 1.971 1.044 2.38-3.794 3.009-.67.01 1.086.324 4.835-1.124 2.873.401-1.497-3.265-1.721-3.025-.465.01 1.578-.03 3.156.043 4.733 1.568-.084 3.189.168 4.724-.123.362-.57.311-1.302.479-1.94z" style="font-size:21.5px;font-family:&quot;Song Myung&quot;;-inkscape-font-specification:&quot;Song Myung&quot;;text-align:center;text-anchor:middle;stroke:#f0f;stroke-width:0;stroke-miterlimit:2"/><path id="path46026" d="M670.786 21.922c.8.725 4.483 1.52 1.324 1.827-2.091-.064-4.215.132-6.285-.102-.074-1.555 3.629-.424 2.682-2.866-.085-2.824.172-5.703-.129-8.491-2.247.375-2.465-1.25-.107-1.403 1.536-.698 3.16-.74 2.545 1.395-.066 3.212-.012 6.427-.03 9.64z" style="font-size:21.5px;font-family:&quot;Song Myung&quot;;-inkscape-font-specification:&quot;Song Myung&quot;;text-align:center;text-anchor:middle;stroke:#f0f;stroke-width:0;stroke-miterlimit:2"/></g></g><path id="rect51379" d="M-1198.065 303.338h108.41v19.628h-108.41z" style="fill:#fea;fill-opacity:1;stroke:#2b2200;stroke-width:1;stroke-miterlimit:2;stroke-dasharray:none;stroke-dashoffset:0;stroke-opacity:1"/><path id="rect52855" d="M-925.541-331.458h108.41v19.628h-108.41z" style="fill:#fea;fill-opacity:1;stroke:#2b2200;stroke-width:1;stroke-miterlimit:2;stroke-dasharray:none;stroke-dashoffset:0;stroke-opacity:1"/><g id="g52875" style="stroke-width:1.16635" transform="matrix(.85737 0 0 .85737 -1400.396 -336.073)"><path id="path52857" d="M564.14 18.417c-1.13.328-.24 2.991-.333 4.07 2.898.329.933 1.793-1.045 1.262-1.111.179-4.93-.009-2.468-1.04 1.61-.566.567-3.067.858-4.526-.094-2.27.199-4.617-.172-6.84-2.823-.396-.69-1.758 1.163-1.246 2.917.028 7-.494 8.152 2.967 1.084 3.862-3.018 5.58-6.155 5.353zm.473-7.267c-1.94-.284-.565 2.794-.967 4.014-1.073 2.954 2.529 2.786 3.871.845 1.345-2.173-.136-5.275-2.904-4.859z" style="font-size:21.5px;font-family:&quot;Song Myung&quot;;-inkscape-font-specification:&quot;Song Myung&quot;;text-align:center;text-anchor:middle;stroke:#f0f;stroke-width:0;stroke-miterlimit:2"/><path id="path52859" d="M582.931 22.266c2.572.845.813 1.89-1.206 1.483-1.303.403-4.54-.485-1.804-1.075.737-.587-.062-3.404-1.2-3.268-1.22.268-3.201-.548-3.92.43-1.012 1.727-.775 2.81.863 3.44-1.04.911-3.119.391-4.552.355.379-1.147 2.577-1.568 2.56-3.638 1.265-3.244 2.26-6.633 3.69-9.789 1.826-.513 1.685 2.22 2.384 3.324l3.185 8.738zm-7.61-3.913c1.016-.272 3.579.556 3.59-.431l-1.677-4.837-1.914 5.268z" style="font-size:21.5px;font-family:&quot;Song Myung&quot;;-inkscape-font-specification:&quot;Song Myung&quot;;text-align:center;text-anchor:middle;stroke:#f0f;stroke-width:0;stroke-miterlimit:2"/><path id="path52861" d="M596.24 22.18c1.362.438 2.918 1.87.086 1.784-2.803.422-2.814-2.655-3.29-4.558-.348-2.445-4.448-2.706-3.29.183-.318 1.892.285 3.129 1.85 3.687-1.003.982-2.993.244-4.417.473-2.978.068-.383-.91.074-2.09-.06-3.428.217-6.933-.15-10.315-2.823-.397-.69-1.759 1.163-1.247 2.863.115 6.99-.733 8.173 2.698 1.833 3.164-5.07 4.059-1.661 5.257.987 1.149 1.048 2.735 1.462 4.128zm-6.493-5.698c2.996.968 6.12-2.804 3.204-4.969-1.985-.935-3.88-.542-3.204 1.84v3.13z" style="font-size:21.5px;font-family:&quot;Song Myung&quot;;-inkscape-font-specification:&quot;Song Myung&quot;;text-align:center;text-anchor:middle;stroke:#f0f;stroke-width:0;stroke-miterlimit:2"/><path id="path52863" d="M609.097 11.688c-.718-.724-3.753-1.124-3.075.795.09 3.334-.195 6.729.172 10.02 2.716.156 1.342 1.795-.742 1.246-1.094-.16-4.746.57-3.429-.989 2.237.24 1.32-2.486 1.505-3.893-.007-2.558.024-5.116-.043-7.674-1.522-.107-3.527-.268-3.24 1.848-1.21 2.32-1.83-.966-1.41-2.228.612-1.399 2.867-.428 4.216-.716 2.491.09 5.042-.182 7.497.134.386 1.12.6 4.846-1.193 3.134l-.258-1.677z" style="font-size:21.5px;font-family:&quot;Song Myung&quot;;-inkscape-font-specification:&quot;Song Myung&quot;;text-align:center;text-anchor:middle;stroke:#f0f;stroke-width:0;stroke-miterlimit:2"/><path id="path52865" d="M618.148 10.57c-1.87.478-2.013 2.252-1.827 4.18.078 2.58-.173 5.212.16 7.752 2.831.388.71 1.762-1.152 1.247-1.104.195-4.805-.026-2.36-1.04 1.61-.566.567-3.067.858-4.526-.094-2.27.199-4.617-.172-6.84-2.823-.396-.69-1.758 1.163-1.246 1.033.216 2.733-.49 3.33.473z" style="font-size:21.5px;font-family:&quot;Song Myung&quot;;-inkscape-font-specification:&quot;Song Myung&quot;;text-align:center;text-anchor:middle;stroke:#f0f;stroke-width:0;stroke-miterlimit:2"/><path id="path52867" d="M629.522 20.524c1.67-1.973 2.263 2.614.66 2.946-4.047 1.74-9.787-.18-10.357-4.994-1.218-4.73 3.122-9.527 7.96-8.659 2.5-.532 4.08 2.512 2.554 4.042-1.674-.542-1.155-4.457-4.424-2.854-4.058 1.432-4.363 7.321-2.168 10.445 1.429 2.02 6.146 2.47 5.775-.926z" style="font-size:21.5px;font-family:&quot;Song Myung&quot;;-inkscape-font-specification:&quot;Song Myung&quot;;text-align:center;text-anchor:middle;stroke:#f0f;stroke-width:0;stroke-miterlimit:2"/><path id="path52869" d="M641.798 20.288c1.9-1.668 1.51 1.736 1.355 2.945-.959 1.063-2.996.272-4.417.516-1.982-.078-4.009.157-5.963-.118.683-1.043 2.478-1.802 1.694-4.1-.095-2.72.2-5.515-.172-8.187-2.823-.397-.69-1.759 1.163-1.247 1.106-.185 4.842.007 2.425 1.057-1.735.461-.596 3.097-.922 4.53.016 2.33-.04 4.661.043 6.99 1.425-.23 3.352.511 4.407-.473l.387-1.913z" style="font-size:21.5px;font-family:&quot;Song Myung&quot;;-inkscape-font-specification:&quot;Song Myung&quot;;text-align:center;text-anchor:middle;stroke:#f0f;stroke-width:0;stroke-miterlimit:2"/><path id="path52871" d="M654.333 20.61c1.753-1.688 1.542 1.907 1.166 3.01-3.358.298-6.804.046-10.196.13-.912-.998 2.534-1.582 1.29-3.97-.095-2.803.2-5.68-.172-8.436-2.823-.397-.69-1.759 1.163-1.247 2.495.087 5.046-.174 7.506.129.366 1.097.618 4.666-1.166 3.031.192-1.926-1.318-2.353-2.935-2.064-1.835-.523-2.164.563-1.902 2.16.241 1.088-.767 3.426 1.14 2.85 1.971 1.044 2.38-3.794 3.009-.67.01 1.086.324 4.835-1.124 2.873.401-1.497-3.265-1.721-3.025-.465.01 1.578-.03 3.156.043 4.733 1.568-.084 3.189.168 4.724-.123.362-.57.311-1.302.479-1.94z" style="font-size:21.5px;font-family:&quot;Song Myung&quot;;-inkscape-font-specification:&quot;Song Myung&quot;;text-align:center;text-anchor:middle;stroke:#f0f;stroke-width:0;stroke-miterlimit:2"/><path id="path52873" d="M670.786 21.922c.8.725 4.483 1.52 1.324 1.827-2.091-.064-4.215.132-6.285-.102-.074-1.555 3.629-.424 2.682-2.866-.085-2.824.172-5.703-.129-8.491-2.247.375-2.465-1.25-.107-1.403 1.536-.698 3.16-.74 2.545 1.395-.066 3.212-.012 6.427-.03 9.64z" style="font-size:21.5px;font-family:&quot;Song Myung&quot;;-inkscape-font-specification:&quot;Song Myung&quot;;text-align:center;text-anchor:middle;stroke:#f0f;stroke-width:0;stroke-miterlimit:2"/></g><path id="rect54029" d="M-813.757-296.603h15.175v8.795h-15.175z" style="fill:#f0f;fill-opacity:1;stroke:none;stroke-width:1;stroke-miterlimit:2;stroke-dasharray:none;stroke-dashoffset:0;stroke-opacity:1"/><circle id="circle284236" cx="133.34" cy="128.851" r="12.605" style="fill:#00d900;fill-opacity:1;stroke:none;stroke-width:1.8;stroke-miterlimit:2;stroke-dasharray:none"/><circle id="circle2787" cx="267.504" cy="85.258" r="12.605" style="fill:#f0f;fill-opacity:1;stroke:none;stroke-width:1.8;stroke-miterlimit:2;stroke-dasharray:none"/></g><g id="layer18" style="display:inline"><path id="path283209" d="M230.422 199.385h120" style="fill:none;stroke:#000;stroke-width:1.8;stroke-miterlimit:2;stroke-dasharray:1.8,1.8;stroke-dashoffset:0"/><path id="path283575" d="m230.422 199.385 37.082-114.127" style="fill:none;stroke:#000;stroke-width:1.8;stroke-miterlimit:2;stroke-dasharray:1.8,1.8;stroke-dashoffset:0"/><path id="path283577" d="M230.422 199.385 133.34 128.85" style="fill:none;stroke:#000;stroke-width:1.8;stroke-miterlimit:2;stroke-dasharray:1.8,1.8;stroke-dashoffset:0"/><path id="path283579" d="m230.422 199.385-97.082 70.534" style="fill:none;stroke:#000;stroke-width:1.8;stroke-miterlimit:2;stroke-dasharray:1.8,1.8;stroke-dashoffset:0"/><path id="path283581" d="m230.422 199.385 37.083 114.127" style="fill:none;stroke:#000;stroke-width:1.8;stroke-miterlimit:2;stroke-dasharray:1.8,1.8;stroke-dashoffset:0"/></g><g id="g292975" transform="translate(-1113.334 440.597)"><path id="path20069" d="m224.62 169.376-4.259 8.543-8.358-4.167" style="fill:none;fill-opacity:1;stroke:#000;stroke-width:.7;stroke-miterlimit:2;stroke-dasharray:none;stroke-dashoffset:0"/><path id="path20089" d="m221.888 153.927 8.357 4.167-4.286 8.597" style="fill:none;fill-opacity:1;stroke:#000;stroke-width:.7;stroke-miterlimit:2;stroke-dasharray:none;stroke-dashoffset:0"/><path id="path20085" d="m206.133 156.807 4.286-8.597 8.785 4.38" style="fill:none;fill-opacity:1;stroke:#000;stroke-width:.7;stroke-miterlimit:2;stroke-dasharray:none;stroke-dashoffset:0"/><path id="path20081" d="m209.32 172.414-8.784-4.379 4.258-8.542" style="fill:none;fill-opacity:1;stroke:#000;stroke-width:.7;stroke-miterlimit:2;stroke-dasharray:none;stroke-dashoffset:0"/></g><g id="g303411" transform="translate(-790.242 -323.138)"><path id="path303405" stroke-width=".019" d="M45.178 26.289q.02-.038.324-2.076l.305-2.037q0-.038.38-.038h.381v.076q0 .19.286.324.286.133.99.171.704.038 3.218.038h2.304v.743l-1.295 1.77q-.171.23-.571.762-.4.533-.514.705-.115.171-.4.609-.286.438-.381.685-.095.248-.267.705-.17.457-.247.876-.076.419-.152 1.028-.077.61-.115 1.295-.038.685-.057 1.56v.534q0 .267-.019.457v.171q-.076.324-.362.553-.285.228-.647.228-.21 0-.4-.057-.19-.057-.4-.362-.21-.305-.21-.761 0-3.009 1.848-6.246.38-.609 1.6-2.303l.875-1.2h-1.77q-3.314 0-3.485.114-.114.057-.21.457-.095.4-.19.819l-.057.4v.057h-.762z"/><path id="path303407" stroke-width=".019" d="M55.727 26.841q-.515 0-.82-.343-.304-.342-.304-.838 0-1.351 1.01-2.341 1.008-.99 2.513-.99 1.732 0 2.894 1.066 1.161 1.066 1.18 2.76 0 .82-.38 1.562-.381.742-.915 1.295-.533.552-1.523 1.408-.685.59-1.904 1.752l-1.123 1.066 1.447.02q2.99 0 3.18-.096.133-.038.457-1.694v-.057h.761v.057q-.019.057-.247 1.732-.229 1.676-.286 1.752v.057h-7.064v-.59q0-.133.114-.286.115-.152.572-.666.552-.61.952-1.066.171-.19.647-.705.476-.514.647-.704.172-.19.553-.629.38-.438.533-.647.152-.21.438-.571.285-.362.4-.61.114-.247.285-.552.171-.304.248-.609.076-.305.133-.571.057-.267.057-.628 0-1.2-.647-2.076-.648-.876-1.847-.876-.629 0-1.105.324t-.666.628q-.19.305-.19.362 0 .02.095.02.342 0 .704.266.362.266.362.876 0 .476-.305.8-.304.323-.856.342z"/><path id="path303409" stroke-width=".013" d="M63.92 23.782q0-1.036.767-1.817.767-.78 1.844-.78t1.844.753q.767.754.78 1.871 0 1.05-.753 1.831-.754.78-1.858.78-1.077 0-1.844-.766-.767-.768-.78-1.872zm2.557-2.046q-.767 0-1.387.566-.619.565-.619 1.494 0 .902.606 1.48.606.58 1.467.593.458 0 .848-.175.39-.175.552-.35.162-.175.283-.337.377-.498.377-1.211 0-.848-.579-1.454t-1.548-.606z"/></g><circle id="circle310112" cx="-1013.029" cy="292.608" r="18.903" style="fill:none;fill-opacity:1;stroke:#000;stroke-width:.7;stroke-miterlimit:2;stroke-dasharray:none;stroke-dashoffset:0"/><g id="layer16" style="display:inline"><path id="path312910" d="m387.504 313.512 5.485-21.629-6.847 2.225-31.25-96.176-8.94 2.905 31.25 96.176-6.848 2.225z" class="fat-vector-arrows" style="opacity:.7;fill:#ac9393;stroke:none"/><path id="path312906" d="m350.422 199.385 37.082 114.127" style="fill:none;stroke:#000;stroke-width:1.8;stroke-miterlimit:2;stroke-dasharray:1.8,1.8;stroke-dashoffset:0"/><path id="path312913" d="m387.504 85.258-18.874-11.9v7.2H267.504v9.4H368.63v7.2z" class="fat-vector-arrows" style="opacity:.7;fill:#ac9393;stroke:none"/><path id="path312915" d="M267.504 85.258h120" style="fill:none;stroke:#000;stroke-width:1.8;stroke-miterlimit:2;stroke-dasharray:1.8,1.8;stroke-dashoffset:0"/><path id="path312923" d="m36.258 199.385 8.276 20.721 4.232-5.824 81.812 59.44 5.525-7.605-81.812-59.44 4.232-5.825z" class="fat-vector-arrows" style="opacity:.7;fill:#ac9393;stroke:none"/><path id="path312925" d="m133.34 269.919-97.082-70.534" style="fill:none;stroke:#000;stroke-width:1.8;stroke-miterlimit:2;stroke-dasharray:1.8,1.8;stroke-dashoffset:0"/><path id="path312929" d="m170.422 384.046 22.265-1.467-4.232-5.825 81.812-59.44-5.525-7.605-81.812 59.44-4.232-5.825z" class="fat-vector-arrows" style="opacity:.7;fill:#ac9393;stroke:none"/><path id="path312931" d="m267.505 313.512-97.083 70.534" style="fill:none;stroke:#000;stroke-width:1.8;stroke-miterlimit:2;stroke-dasharray:1.8,1.8;stroke-dashoffset:0"/><path id="path312919" d="m170.422 14.724-17.15 14.274 6.848 2.225-31.25 96.175 8.94 2.905 31.25-96.176 6.847 2.225z" class="fat-vector-arrows" style="opacity:.7;fill:#ac9393;stroke:none"/><path id="path312921" d="m133.34 128.85 37.082-114.126" style="fill:none;stroke:#000;stroke-width:1.8;stroke-miterlimit:2;stroke-dasharray:1.8,1.8;stroke-dashoffset:0"/></g><g id="layer15" style="display:inline"><circle id="path60343" cx="230.422" cy="199.385" r="1.934" style="display:inline;fill:#f60;fill-opacity:1;stroke:none;stroke-width:1;stroke-miterlimit:2;stroke-dasharray:none;stroke-dashoffset:0;stroke-opacity:1"/><g id="g301402" style="stroke-width:1.25606" transform="matrix(.79614 0 0 .79614 217.273 157.122)"><path id="use301242" stroke-width=".024" d="M45.178 26.289q.02-.038.324-2.076l.305-2.037q0-.038.38-.038h.381v.076q0 .19.286.324.286.133.99.171.704.038 3.218.038h2.304v.743l-1.295 1.77q-.171.23-.571.762-.4.533-.514.705-.115.171-.4.609-.286.438-.381.685-.095.248-.267.705-.17.457-.247.876-.076.419-.152 1.028-.077.61-.115 1.295-.038.685-.057 1.56v.534q0 .267-.019.457v.171q-.076.324-.362.553-.285.228-.647.228-.21 0-.4-.057-.19-.057-.4-.362-.21-.305-.21-.761 0-3.009 1.848-6.246.38-.609 1.6-2.303l.875-1.2h-1.77q-3.314 0-3.485.114-.114.057-.21.457-.095.4-.19.819l-.057.4v.057h-.762z"/><path id="use301244" stroke-width=".024" d="M55.727 26.841q-.515 0-.82-.343-.304-.342-.304-.838 0-1.351 1.01-2.341 1.008-.99 2.513-.99 1.732 0 2.894 1.066 1.161 1.066 1.18 2.76 0 .82-.38 1.562-.381.742-.915 1.295-.533.552-1.523 1.408-.685.59-1.904 1.752l-1.123 1.066 1.447.02q2.99 0 3.18-.096.133-.038.457-1.694v-.057h.761v.057q-.019.057-.247 1.732-.229 1.676-.286 1.752v.057h-7.064v-.59q0-.133.114-.286.115-.152.572-.666.552-.61.952-1.066.171-.19.647-.705.476-.514.647-.704.172-.19.553-.629.38-.438.533-.647.152-.21.438-.571.285-.362.4-.61.114-.247.285-.552.171-.304.248-.609.076-.305.133-.571.057-.267.057-.628 0-1.2-.647-2.076-.648-.876-1.847-.876-.629 0-1.105.324t-.666.628q-.19.305-.19.362 0 .02.095.02.342 0 .704.266.362.266.362.876 0 .476-.305.8-.304.323-.856.342z"/><path id="use301246" stroke-width=".017" d="M63.92 23.782q0-1.036.767-1.817.767-.78 1.844-.78t1.844.753q.767.754.78 1.871 0 1.05-.753 1.831-.754.78-1.858.78-1.077 0-1.844-.766-.767-.768-.78-1.872zm2.557-2.046q-.767 0-1.387.566-.619.565-.619 1.494 0 .902.606 1.48.606.58 1.467.593.458 0 .848-.175.39-.175.552-.35.162-.175.283-.337.377-.498.377-1.211 0-.848-.579-1.454t-1.548-.606z"/></g><g id="g303419" style="stroke-width:1.25606" transform="matrix(.79614 0 0 .79614 176.523 143.372)"><path id="path303413" stroke-width=".024" d="M45.178 26.289q.02-.038.324-2.076l.305-2.037q0-.038.38-.038h.381v.076q0 .19.286.324.286.133.99.171.704.038 3.218.038h2.304v.743l-1.295 1.77q-.171.23-.571.762-.4.533-.514.705-.115.171-.4.609-.286.438-.381.685-.095.248-.267.705-.17.457-.247.876-.076.419-.152 1.028-.077.61-.115 1.295-.038.685-.057 1.56v.534q0 .267-.019.457v.171q-.076.324-.362.553-.285.228-.647.228-.21 0-.4-.057-.19-.057-.4-.362-.21-.305-.21-.761 0-3.009 1.848-6.246.38-.609 1.6-2.303l.875-1.2h-1.77q-3.314 0-3.485.114-.114.057-.21.457-.095.4-.19.819l-.057.4v.057h-.762z"/><path id="path303415" stroke-width=".024" d="M55.727 26.841q-.515 0-.82-.343-.304-.342-.304-.838 0-1.351 1.01-2.341 1.008-.99 2.513-.99 1.732 0 2.894 1.066 1.161 1.066 1.18 2.76 0 .82-.38 1.562-.381.742-.915 1.295-.533.552-1.523 1.408-.685.59-1.904 1.752l-1.123 1.066 1.447.02q2.99 0 3.18-.096.133-.038.457-1.694v-.057h.761v.057q-.019.057-.247 1.732-.229 1.676-.286 1.752v.057h-7.064v-.59q0-.133.114-.286.115-.152.572-.666.552-.61.952-1.066.171-.19.647-.705.476-.514.647-.704.172-.19.553-.629.38-.438.533-.647.152-.21.438-.571.285-.362.4-.61.114-.247.285-.552.171-.304.248-.609.076-.305.133-.571.057-.267.057-.628 0-1.2-.647-2.076-.648-.876-1.847-.876-.629 0-1.105.324t-.666.628q-.19.305-.19.362 0 .02.095.02.342 0 .704.266.362.266.362.876 0 .476-.305.8-.304.323-.856.342z"/><path id="path303417" stroke-width=".017" d="M63.92 23.782q0-1.036.767-1.817.767-.78 1.844-.78t1.844.753q.767.754.78 1.871 0 1.05-.753 1.831-.754.78-1.858.78-1.077 0-1.844-.766-.767-.768-.78-1.872zm2.557-2.046q-.767 0-1.387.566-.619.565-.619 1.494 0 .902.606 1.48.606.58 1.467.593.458 0 .848-.175.39-.175.552-.35.162-.175.283-.337.377-.498.377-1.211 0-.848-.579-1.454t-1.548-.606z"/></g><g id="g303427" style="stroke-width:1.25606" transform="matrix(.79614 0 0 .79614 149.023 176.151)"><path id="path303421" stroke-width=".024" d="M45.178 26.289q.02-.038.324-2.076l.305-2.037q0-.038.38-.038h.381v.076q0 .19.286.324.286.133.99.171.704.038 3.218.038h2.304v.743l-1.295 1.77q-.171.23-.571.762-.4.533-.514.705-.115.171-.4.609-.286.438-.381.685-.095.248-.267.705-.17.457-.247.876-.076.419-.152 1.028-.077.61-.115 1.295-.038.685-.057 1.56v.534q0 .267-.019.457v.171q-.076.324-.362.553-.285.228-.647.228-.21 0-.4-.057-.19-.057-.4-.362-.21-.305-.21-.761 0-3.009 1.848-6.246.38-.609 1.6-2.303l.875-1.2h-1.77q-3.314 0-3.485.114-.114.057-.21.457-.095.4-.19.819l-.057.4v.057h-.762z"/><path id="path303423" stroke-width=".024" d="M55.727 26.841q-.515 0-.82-.343-.304-.342-.304-.838 0-1.351 1.01-2.341 1.008-.99 2.513-.99 1.732 0 2.894 1.066 1.161 1.066 1.18 2.76 0 .82-.38 1.562-.381.742-.915 1.295-.533.552-1.523 1.408-.685.59-1.904 1.752l-1.123 1.066 1.447.02q2.99 0 3.18-.096.133-.038.457-1.694v-.057h.761v.057q-.019.057-.247 1.732-.229 1.676-.286 1.752v.057h-7.064v-.59q0-.133.114-.286.115-.152.572-.666.552-.61.952-1.066.171-.19.647-.705.476-.514.647-.704.172-.19.553-.629.38-.438.533-.647.152-.21.438-.571.285-.362.4-.61.114-.247.285-.552.171-.304.248-.609.076-.305.133-.571.057-.267.057-.628 0-1.2-.647-2.076-.648-.876-1.847-.876-.629 0-1.105.324t-.666.628q-.19.305-.19.362 0 .02.095.02.342 0 .704.266.362.266.362.876 0 .476-.305.8-.304.323-.856.342z"/><path id="path303425" stroke-width=".017" d="M63.92 23.782q0-1.036.767-1.817.767-.78 1.844-.78t1.844.753q.767.754.78 1.871 0 1.05-.753 1.831-.754.78-1.858.78-1.077 0-1.844-.766-.767-.768-.78-1.872zm2.557-2.046q-.767 0-1.387.566-.619.565-.619 1.494 0 .902.606 1.48.606.58 1.467.593.458 0 .848-.175.39-.175.552-.35.162-.175.283-.337.377-.498.377-1.211 0-.848-.579-1.454t-1.548-.606z"/></g><g id="g303435" style="stroke-width:1.25606" transform="matrix(.79614 0 0 .79614 176.537 210.122)"><path id="path303429" stroke-width=".024" d="M45.178 26.289q.02-.038.324-2.076l.305-2.037q0-.038.38-.038h.381v.076q0 .19.286.324.286.133.99.171.704.038 3.218.038h2.304v.743l-1.295 1.77q-.171.23-.571.762-.4.533-.514.705-.115.171-.4.609-.286.438-.381.685-.095.248-.267.705-.17.457-.247.876-.076.419-.152 1.028-.077.61-.115 1.295-.038.685-.057 1.56v.534q0 .267-.019.457v.171q-.076.324-.362.553-.285.228-.647.228-.21 0-.4-.057-.19-.057-.4-.362-.21-.305-.21-.761 0-3.009 1.848-6.246.38-.609 1.6-2.303l.875-1.2h-1.77q-3.314 0-3.485.114-.114.057-.21.457-.095.4-.19.819l-.057.4v.057h-.762z"/><path id="path303431" stroke-width=".024" d="M55.727 26.841q-.515 0-.82-.343-.304-.342-.304-.838 0-1.351 1.01-2.341 1.008-.99 2.513-.99 1.732 0 2.894 1.066 1.161 1.066 1.18 2.76 0 .82-.38 1.562-.381.742-.915 1.295-.533.552-1.523 1.408-.685.59-1.904 1.752l-1.123 1.066 1.447.02q2.99 0 3.18-.096.133-.038.457-1.694v-.057h.761v.057q-.019.057-.247 1.732-.229 1.676-.286 1.752v.057h-7.064v-.59q0-.133.114-.286.115-.152.572-.666.552-.61.952-1.066.171-.19.647-.705.476-.514.647-.704.172-.19.553-.629.38-.438.533-.647.152-.21.438-.571.285-.362.4-.61.114-.247.285-.552.171-.304.248-.609.076-.305.133-.571.057-.267.057-.628 0-1.2-.647-2.076-.648-.876-1.847-.876-.629 0-1.105.324t-.666.628q-.19.305-.19.362 0 .02.095.02.342 0 .704.266.362.266.362.876 0 .476-.305.8-.304.323-.856.342z"/><path id="path303433" stroke-width=".017" d="M63.92 23.782q0-1.036.767-1.817.767-.78 1.844-.78t1.844.753q.767.754.78 1.871 0 1.05-.753 1.831-.754.78-1.858.78-1.077 0-1.844-.766-.767-.768-.78-1.872zm2.557-2.046q-.767 0-1.387.566-.619.565-.619 1.494 0 .902.606 1.48.606.58 1.467.593.458 0 .848-.175.39-.175.552-.35.162-.175.283-.337.377-.498.377-1.211 0-.848-.579-1.454t-1.548-.606z"/></g><g id="g303443" style="stroke-width:1.25606" transform="matrix(.79614 0 0 .79614 216.773 197.372)"><path id="path303437" stroke-width=".024" d="M45.178 26.289q.02-.038.324-2.076l.305-2.037q0-.038.38-.038h.381v.076q0 .19.286.324.286.133.99.171.704.038 3.218.038h2.304v.743l-1.295 1.77q-.171.23-.571.762-.4.533-.514.705-.115.171-.4.609-.286.438-.381.685-.095.248-.267.705-.17.457-.247.876-.076.419-.152 1.028-.077.61-.115 1.295-.038.685-.057 1.56v.534q0 .267-.019.457v.171q-.076.324-.362.553-.285.228-.647.228-.21 0-.4-.057-.19-.057-.4-.362-.21-.305-.21-.761 0-3.009 1.848-6.246.38-.609 1.6-2.303l.875-1.2h-1.77q-3.314 0-3.485.114-.114.057-.21.457-.095.4-.19.819l-.057.4v.057h-.762z"/><path id="path303439" stroke-width=".024" d="M55.727 26.841q-.515 0-.82-.343-.304-.342-.304-.838 0-1.351 1.01-2.341 1.008-.99 2.513-.99 1.732 0 2.894 1.066 1.161 1.066 1.18 2.76 0 .82-.38 1.562-.381.742-.915 1.295-.533.552-1.523 1.408-.685.59-1.904 1.752l-1.123 1.066 1.447.02q2.99 0 3.18-.096.133-.038.457-1.694v-.057h.761v.057q-.019.057-.247 1.732-.229 1.676-.286 1.752v.057h-7.064v-.59q0-.133.114-.286.115-.152.572-.666.552-.61.952-1.066.171-.19.647-.705.476-.514.647-.704.172-.19.553-.629.38-.438.533-.647.152-.21.438-.571.285-.362.4-.61.114-.247.285-.552.171-.304.248-.609.076-.305.133-.571.057-.267.057-.628 0-1.2-.647-2.076-.648-.876-1.847-.876-.629 0-1.105.324t-.666.628q-.19.305-.19.362 0 .02.095.02.342 0 .704.266.362.266.362.876 0 .476-.305.8-.304.323-.856.342z"/><path id="path303441" stroke-width=".017" d="M63.92 23.782q0-1.036.767-1.817.767-.78 1.844-.78t1.844.753q.767.754.78 1.871 0 1.05-.753 1.831-.754.78-1.858.78-1.077 0-1.844-.766-.767-.768-.78-1.872zm2.557-2.046q-.767 0-1.387.566-.619.565-.619 1.494 0 .902.606 1.48.606.58 1.467.593.458 0 .848-.175.39-.175.552-.35.162-.175.283-.337.377-.498.377-1.211 0-.848-.579-1.454t-1.548-.606z"/></g><path id="circle310181" d="M216.217 186.914a18.903 18.903 0 0 1 18.603-5.913" style="display:inline;fill:none;fill-opacity:1;stroke:#000;stroke-width:.7;stroke-miterlimit:2;stroke-dasharray:none;stroke-dashoffset:0"/><path id="path310184" d="M237.642 181.915a18.903 18.903 0 0 1 11.614 15.852" style="display:inline;fill:none;fill-opacity:1;stroke:#000;stroke-width:.7;stroke-miterlimit:2;stroke-dasharray:none;stroke-dashoffset:0"/><path id="path310188" d="M214.187 209.065a18.903 18.903 0 0 1-.018-19.331" style="display:inline;fill:none;fill-opacity:1;stroke:#000;stroke-width:.7;stroke-miterlimit:2;stroke-dasharray:none;stroke-dashoffset:0"/><path id="path310190" d="M234.477 217.847a18.903 18.903 0 0 1-18.264-5.996" style="display:inline;fill:none;fill-opacity:1;stroke:#000;stroke-width:.7;stroke-miterlimit:2;stroke-dasharray:none;stroke-dashoffset:0"/><path id="path310192" d="M249.242 201.153a18.903 18.903 0 0 1-11.279 15.565" style="display:inline;fill:none;fill-opacity:1;stroke:#000;stroke-width:.7;stroke-miterlimit:2;stroke-dasharray:none;stroke-dashoffset:0"/></g><g id="layer20"><path id="path49101" d="M354.296 217.883a18.903 18.903 0 0 1-15.032-3.229 18.903 18.903 0 0 1-7.66-13.33" style="display:inline;fill:none;fill-opacity:1;stroke:#000;stroke-width:.7;stroke-miterlimit:2;stroke-dasharray:none;stroke-dashoffset:0"/><path id="path49104" d="M286.332 86.944a18.903 18.903 0 0 1-7.616 13.533 18.903 18.903 0 0 1-15.183 3.262" style="display:inline;fill:none;fill-opacity:1;stroke:#000;stroke-width:.7;stroke-miterlimit:2;stroke-dasharray:none;stroke-dashoffset:0"/><path id="path49107" d="M140.86 111.508a18.903 18.903 0 0 1 10.401 11.33 18.903 18.903 0 0 1-1.464 15.312" style="display:inline;fill:none;fill-opacity:1;stroke:#000;stroke-width:.7;stroke-miterlimit:2;stroke-dasharray:none;stroke-dashoffset:0"/><path id="path49110" d="M119.144 257.438a18.903 18.903 0 0 1 14.11-6.421 18.903 18.903 0 0 1 14.167 6.291" style="display:inline;fill:none;fill-opacity:1;stroke:#000;stroke-width:.7;stroke-miterlimit:2;stroke-dasharray:none;stroke-dashoffset:0"/><path id="path49713" d="M251.274 323.08a18.903 18.903 0 0 1-1.792-15.388 18.903 18.903 0 0 1 10.314-11.56" style="display:inline;fill:none;fill-opacity:1;stroke:#000;stroke-width:.7;stroke-miterlimit:2;stroke-dasharray:none;stroke-dashoffset:0"/><g id="g17487" style="display:inline;fill:#000;stroke:#f0f;stroke-width:1.25871" transform="matrix(.01513 0 0 -.01513 157.022 121.699)"><path id="path17479" stroke-width="1.259" d="m213 578-13-5q-14-5-40-10t-58-7H83v46h19q47 2 87 15t56 24q16 11 28 22 2 3 12 3 9 0 17-6V361l1-300q7-7 12-9t24-4q19-2 62-2h26V0h-11q-21 3-159 3-136 0-157-3H88v46h64q16 0 25 1t16 3q7 2 8 2t6 5q5 5 6 4z" style="fill:#000;stroke:#f0f"/><path id="path17481" stroke-width="1.259" d="M596 585q56 81 153 81 48 0 96-26t78-92q37-83 37-228 0-155-43-237-20-42-55-67t-61-31q-26-6-51-7-26 0-52 6t-61 32q-35 26-55 67-43 82-43 237 0 174 57 265zm225 12q-30 32-71 32-42 0-72-32-25-26-33-72t-8-192q0-158 8-208t36-79q28-30 69-30 40 0 68 30 29 30 36 84t8 203q0 145-8 191t-33 73z" style="fill:#000;stroke:#f0f"/><path id="path17483" stroke-width="1.259" d="M1071 417v77q0 77 54 124t124 48q71 0 126-42t55-109q0-30-11-56t-26-42q-15-16-31-28t-26-18q-10-6-11-8l14-9 28-20q14-10 16-11 75-59 75-149 0-79-58-137t-150-59q-90 0-148 51t-58 126q0 108 129 180l-18 13q-21 13-27 20-57 49-57 126zm216-31 6 4 9 6q3 2 10 7t12 10q5 5 11 12t11 13q5 6 10 16t9 17q4 7 5 20t2 22q0 43-29 73t-67 38q-7 1-33 1-41 0-77-26t-37-65q0-23 13-42t26-29q13-10 50-32 7-5 11-7zm-36-365q58 0 100 34t42 82q0 17-5 32t-12 25q-7 10-22 22t-23 18q-8 6-29 19t-27 17q-14 9-30 19t-26 17l-8 5q-6 0-29-17t-48-55q-25-38-26-82 0-59 43-97t100-39z" style="fill:#000;stroke:#f0f"/><path id="path17485" stroke-width=".89" d="M1539.846 589.638q0 54.439 40.299 95.445 40.299 41.006 96.859 41.006 56.56 0 96.859-39.592 40.299-39.592 41.006-98.273 0-55.146-39.592-96.152t-97.566-41.006q-56.56 0-96.859 40.299-40.299 40.299-41.006 98.273zm134.33 107.464q-40.299 0-72.821-29.694t-32.522-78.477q0-47.369 31.815-77.77 31.815-30.401 77.063-31.108 24.038 0 44.541 9.191 20.503 9.191 28.987 18.382 8.484 9.191 14.847 17.675 19.796 26.159 19.796 63.63 0 44.541-30.401 76.356-30.401 31.815-81.305 31.815z" style="fill:#000;stroke:#f0f"/></g><g id="g52582" style="display:inline;fill:#000;stroke:#f0f;stroke-width:1.25871" transform="matrix(.01513 0 0 -.01513 271.522 120.699)"><path id="path52574" stroke-width="1.259" d="m213 578-13-5q-14-5-40-10t-58-7H83v46h19q47 2 87 15t56 24q16 11 28 22 2 3 12 3 9 0 17-6V361l1-300q7-7 12-9t24-4q19-2 62-2h26V0h-11q-21 3-159 3-136 0-157-3H88v46h64q16 0 25 1t16 3q7 2 8 2t6 5q5 5 6 4z" style="fill:#000;stroke:#f0f"/><path id="path52576" stroke-width="1.259" d="M596 585q56 81 153 81 48 0 96-26t78-92q37-83 37-228 0-155-43-237-20-42-55-67t-61-31q-26-6-51-7-26 0-52 6t-61 32q-35 26-55 67-43 82-43 237 0 174 57 265zm225 12q-30 32-71 32-42 0-72-32-25-26-33-72t-8-192q0-158 8-208t36-79q28-30 69-30 40 0 68 30 29 30 36 84t8 203q0 145-8 191t-33 73z" style="fill:#000;stroke:#f0f"/><path id="path52578" stroke-width="1.259" d="M1071 417v77q0 77 54 124t124 48q71 0 126-42t55-109q0-30-11-56t-26-42q-15-16-31-28t-26-18q-10-6-11-8l14-9 28-20q14-10 16-11 75-59 75-149 0-79-58-137t-150-59q-90 0-148 51t-58 126q0 108 129 180l-18 13q-21 13-27 20-57 49-57 126zm216-31 6 4 9 6q3 2 10 7t12 10q5 5 11 12t11 13q5 6 10 16t9 17q4 7 5 20t2 22q0 43-29 73t-67 38q-7 1-33 1-41 0-77-26t-37-65q0-23 13-42t26-29q13-10 50-32 7-5 11-7zm-36-365q58 0 100 34t42 82q0 17-5 32t-12 25q-7 10-22 22t-23 18q-8 6-29 19t-27 17q-14 9-30 19t-26 17l-8 5q-6 0-29-17t-48-55q-25-38-26-82 0-59 43-97t100-39z" style="fill:#000;stroke:#f0f"/><path id="path52580" stroke-width=".89" d="M1539.846 589.638q0 54.439 40.299 95.445 40.299 41.006 96.859 41.006 56.56 0 96.859-39.592 40.299-39.592 41.006-98.273 0-55.146-39.592-96.152t-97.566-41.006q-56.56 0-96.859 40.299-40.299 40.299-41.006 98.273zm134.33 107.464q-40.299 0-72.821-29.694t-32.522-78.477q0-47.369 31.815-77.77 31.815-30.401 77.063-31.108 24.038 0 44.541 9.191 20.503 9.191 28.987 18.382 8.484 9.191 14.847 17.675 19.796 26.159 19.796 63.63 0 44.541-30.401 76.356-30.401 31.815-81.305 31.815z" style="fill:#000;stroke:#f0f"/></g><g id="g53330" style="display:inline;fill:#000;stroke:#f0f;stroke-width:1.25871" transform="matrix(.01513 0 0 -.01513 304.272 224.949)"><path id="path53322" stroke-width="1.259" d="m213 578-13-5q-14-5-40-10t-58-7H83v46h19q47 2 87 15t56 24q16 11 28 22 2 3 12 3 9 0 17-6V361l1-300q7-7 12-9t24-4q19-2 62-2h26V0h-11q-21 3-159 3-136 0-157-3H88v46h64q16 0 25 1t16 3q7 2 8 2t6 5q5 5 6 4z" style="fill:#000;stroke:#f0f"/><path id="path53324" stroke-width="1.259" d="M596 585q56 81 153 81 48 0 96-26t78-92q37-83 37-228 0-155-43-237-20-42-55-67t-61-31q-26-6-51-7-26 0-52 6t-61 32q-35 26-55 67-43 82-43 237 0 174 57 265zm225 12q-30 32-71 32-42 0-72-32-25-26-33-72t-8-192q0-158 8-208t36-79q28-30 69-30 40 0 68 30 29 30 36 84t8 203q0 145-8 191t-33 73z" style="fill:#000;stroke:#f0f"/><path id="path53326" stroke-width="1.259" d="M1071 417v77q0 77 54 124t124 48q71 0 126-42t55-109q0-30-11-56t-26-42q-15-16-31-28t-26-18q-10-6-11-8l14-9 28-20q14-10 16-11 75-59 75-149 0-79-58-137t-150-59q-90 0-148 51t-58 126q0 108 129 180l-18 13q-21 13-27 20-57 49-57 126zm216-31 6 4 9 6q3 2 10 7t12 10q5 5 11 12t11 13q5 6 10 16t9 17q4 7 5 20t2 22q0 43-29 73t-67 38q-7 1-33 1-41 0-77-26t-37-65q0-23 13-42t26-29q13-10 50-32 7-5 11-7zm-36-365q58 0 100 34t42 82q0 17-5 32t-12 25q-7 10-22 22t-23 18q-8 6-29 19t-27 17q-14 9-30 19t-26 17l-8 5q-6 0-29-17t-48-55q-25-38-26-82 0-59 43-97t100-39z" style="fill:#000;stroke:#f0f"/><path id="path53328" stroke-width=".89" d="M1539.846 589.638q0 54.439 40.299 95.445 40.299 41.006 96.859 41.006 56.56 0 96.859-39.592 40.299-39.592 41.006-98.273 0-55.146-39.592-96.152t-97.566-41.006q-56.56 0-96.859 40.299-40.299 40.299-41.006 98.273zm134.33 107.464q-40.299 0-72.821-29.694t-32.522-78.477q0-47.369 31.815-77.77 31.815-30.401 77.063-31.108 24.038 0 44.541 9.191 20.503 9.191 28.987 18.382 8.484 9.191 14.847 17.675 19.796 26.159 19.796 63.63 0 44.541-30.401 76.356-30.401 31.815-81.305 31.815z" style="fill:#000;stroke:#f0f"/></g><g id="g53342" style="display:inline;fill:#000;stroke:#f0f;stroke-width:1.25871" transform="matrix(.01513 0 0 -.01513 219.048 312.809)"><path id="path53334" stroke-width="1.259" d="m213 578-13-5q-14-5-40-10t-58-7H83v46h19q47 2 87 15t56 24q16 11 28 22 2 3 12 3 9 0 17-6V361l1-300q7-7 12-9t24-4q19-2 62-2h26V0h-11q-21 3-159 3-136 0-157-3H88v46h64q16 0 25 1t16 3q7 2 8 2t6 5q5 5 6 4z" style="fill:#000;stroke:#f0f"/><path id="path53336" stroke-width="1.259" d="M596 585q56 81 153 81 48 0 96-26t78-92q37-83 37-228 0-155-43-237-20-42-55-67t-61-31q-26-6-51-7-26 0-52 6t-61 32q-35 26-55 67-43 82-43 237 0 174 57 265zm225 12q-30 32-71 32-42 0-72-32-25-26-33-72t-8-192q0-158 8-208t36-79q28-30 69-30 40 0 68 30 29 30 36 84t8 203q0 145-8 191t-33 73z" style="fill:#000;stroke:#f0f"/><path id="path53338" stroke-width="1.259" d="M1071 417v77q0 77 54 124t124 48q71 0 126-42t55-109q0-30-11-56t-26-42q-15-16-31-28t-26-18q-10-6-11-8l14-9 28-20q14-10 16-11 75-59 75-149 0-79-58-137t-150-59q-90 0-148 51t-58 126q0 108 129 180l-18 13q-21 13-27 20-57 49-57 126zm216-31 6 4 9 6q3 2 10 7t12 10q5 5 11 12t11 13q5 6 10 16t9 17q4 7 5 20t2 22q0 43-29 73t-67 38q-7 1-33 1-41 0-77-26t-37-65q0-23 13-42t26-29q13-10 50-32 7-5 11-7zm-36-365q58 0 100 34t42 82q0 17-5 32t-12 25q-7 10-22 22t-23 18q-8 6-29 19t-27 17q-14 9-30 19t-26 17l-8 5q-6 0-29-17t-48-55q-25-38-26-82 0-59 43-97t100-39z" style="fill:#000;stroke:#f0f"/><path id="path53340" stroke-width=".89" d="M1539.846 589.638q0 54.439 40.299 95.445 40.299 41.006 96.859 41.006 56.56 0 96.859-39.592 40.299-39.592 41.006-98.273 0-55.146-39.592-96.152t-97.566-41.006q-56.56 0-96.859 40.299-40.299 40.299-41.006 98.273zm134.33 107.464q-40.299 0-72.821-29.694t-32.522-78.477q0-47.369 31.815-77.77 31.815-30.401 77.063-31.108 24.038 0 44.541 9.191 20.503 9.191 28.987 18.382 8.484 9.191 14.847 17.675 19.796 26.159 19.796 63.63 0 44.541-30.401 76.356-30.401 31.815-81.305 31.815z" style="fill:#000;stroke:#f0f"/></g><g id="g54828" style="display:inline;fill:#000;stroke:#f0f;stroke-width:1.25871" transform="matrix(.01513 0 0 -.01513 125.897 243.845)"><path id="path54820" stroke-width="1.259" d="m213 578-13-5q-14-5-40-10t-58-7H83v46h19q47 2 87 15t56 24q16 11 28 22 2 3 12 3 9 0 17-6V361l1-300q7-7 12-9t24-4q19-2 62-2h26V0h-11q-21 3-159 3-136 0-157-3H88v46h64q16 0 25 1t16 3q7 2 8 2t6 5q5 5 6 4z" style="fill:#000;stroke:#f0f"/><path id="path54822" stroke-width="1.259" d="M596 585q56 81 153 81 48 0 96-26t78-92q37-83 37-228 0-155-43-237-20-42-55-67t-61-31q-26-6-51-7-26 0-52 6t-61 32q-35 26-55 67-43 82-43 237 0 174 57 265zm225 12q-30 32-71 32-42 0-72-32-25-26-33-72t-8-192q0-158 8-208t36-79q28-30 69-30 40 0 68 30 29 30 36 84t8 203q0 145-8 191t-33 73z" style="fill:#000;stroke:#f0f"/><path id="path54824" stroke-width="1.259" d="M1071 417v77q0 77 54 124t124 48q71 0 126-42t55-109q0-30-11-56t-26-42q-15-16-31-28t-26-18q-10-6-11-8l14-9 28-20q14-10 16-11 75-59 75-149 0-79-58-137t-150-59q-90 0-148 51t-58 126q0 108 129 180l-18 13q-21 13-27 20-57 49-57 126zm216-31 6 4 9 6q3 2 10 7t12 10q5 5 11 12t11 13q5 6 10 16t9 17q4 7 5 20t2 22q0 43-29 73t-67 38q-7 1-33 1-41 0-77-26t-37-65q0-23 13-42t26-29q13-10 50-32 7-5 11-7zm-36-365q58 0 100 34t42 82q0 17-5 32t-12 25q-7 10-22 22t-23 18q-8 6-29 19t-27 17q-14 9-30 19t-26 17l-8 5q-6 0-29-17t-48-55q-25-38-26-82 0-59 43-97t100-39z" style="fill:#000;stroke:#f0f"/><path id="path54826" stroke-width=".89" d="M1539.846 589.638q0 54.439 40.299 95.445 40.299 41.006 96.859 41.006 56.56 0 96.859-39.592 40.299-39.592 41.006-98.273 0-55.146-39.592-96.152t-97.566-41.006q-56.56 0-96.859 40.299-40.299 40.299-41.006 98.273zm134.33 107.464q-40.299 0-72.821-29.694t-32.522-78.477q0-47.369 31.815-77.77 31.815-30.401 77.063-31.108 24.038 0 44.541 9.191 20.503 9.191 28.987 18.382 8.484 9.191 14.847 17.675 19.796 26.159 19.796 63.63 0 44.541-30.401 76.356-30.401 31.815-81.305 31.815z" style="fill:#000;stroke:#f0f"/></g></g><g id="layer1"><g id="g12721" transform="translate(0 19.385)"><g id="g12692"><path id="path10621" stroke-width=".019" d="m326.743 7.447-.235.09q-.254.09-.724.181-.47.09-1.049.127h-.344v-.832h.344q.85-.036 1.574-.272.723-.235 1.013-.434.289-.199.506-.398.036-.054.217-.054.163 0 .308.109v5.408l.018 5.426q.126.127.217.163.09.036.434.073.343.036 1.121.036h.47v.832h-.198q-.38-.054-2.876-.054-2.46 0-2.84.054h-.217v-.832h1.157q.29 0 .453-.018.162-.018.289-.055.127-.036.145-.036.018 0 .108-.09t.109-.073z" style="fill:#000;fill-opacity:1"/><g id="g12122" transform="translate(0 -1.768)"><path id="path10507" d="M267.504 52.062V38.25" style="fill:#000;stroke:#000;stroke-width:.5;stroke-miterlimit:2;stroke-dasharray:none"/><path id="path10511" d="M387.504 38.25v25.688" style="fill:#000;stroke:#000;stroke-width:.5;stroke-miterlimit:2;stroke-dasharray:none"/><path id="path10515" d="m267.504 36.062-.008-17.237" style="fill:#000;stroke:#000;stroke-width:.9;stroke-miterlimit:2;stroke-dasharray:none"/><path id="path10615" d="m387.508 36.062-.008-17.237" style="fill:#000;stroke:#000;stroke-width:.9;stroke-miterlimit:2;stroke-dasharray:none"/><path id="path10619" d="M387.504 27.444H267.497" style="fill:#000;stroke:#000;stroke-width:.9;stroke-miterlimit:2;stroke-dasharray:none"/></g></g><path id="path12710" d="M267.497 50.295v2.973" style="fill:#000;fill-opacity:1;stroke:#fca;stroke-width:.5;stroke-miterlimit:2;stroke-dasharray:none"/></g><g id="g12741" transform="rotate(72 217.065 189.688)"><g id="g12737"><path id="path12723" stroke-width=".019" d="m326.743 7.447-.235.09q-.254.09-.724.181-.47.09-1.049.127h-.344v-.832h.344q.85-.036 1.574-.272.723-.235 1.013-.434.289-.199.506-.398.036-.054.217-.054.163 0 .308.109v5.408l.018 5.426q.126.127.217.163.09.036.434.073.343.036 1.121.036h.47v.832h-.198q-.38-.054-2.876-.054-2.46 0-2.84.054h-.217v-.832h1.157q.29 0 .453-.018.162-.018.289-.055.127-.036.145-.036.018 0 .108-.09t.109-.073z" style="fill:#000;fill-opacity:1"/><g id="g12735" transform="translate(0 -1.768)"><path id="path12725" d="M267.504 52.062V38.25" style="fill:#000;stroke:#000;stroke-width:.5;stroke-miterlimit:2;stroke-dasharray:none"/><path id="path12727" d="M387.504 38.25v25.688" style="fill:#000;stroke:#000;stroke-width:.5;stroke-miterlimit:2;stroke-dasharray:none"/><path id="path12729" d="m267.504 36.062-.008-17.237" style="fill:#000;stroke:#000;stroke-width:.9;stroke-miterlimit:2;stroke-dasharray:none"/><path id="path12731" d="m387.508 36.062-.008-17.237" style="fill:#000;stroke:#000;stroke-width:.9;stroke-miterlimit:2;stroke-dasharray:none"/><path id="path12733" d="M387.504 27.444H267.497" style="fill:#000;stroke:#000;stroke-width:.9;stroke-miterlimit:2;stroke-dasharray:none"/></g></g><path id="path12739" d="M267.497 50.295v2.973" style="fill:#000;fill-opacity:1;stroke:#fca;stroke-width:.5;stroke-miterlimit:2;stroke-dasharray:none"/></g><g id="g12781" transform="rotate(144 227.264 189.688)"><g id="g12777"><path id="path12763" stroke-width=".019" d="m326.743 7.447-.235.09q-.254.09-.724.181-.47.09-1.049.127h-.344v-.832h.344q.85-.036 1.574-.272.723-.235 1.013-.434.289-.199.506-.398.036-.054.217-.054.163 0 .308.109v5.408l.018 5.426q.126.127.217.163.09.036.434.073.343.036 1.121.036h.47v.832h-.198q-.38-.054-2.876-.054-2.46 0-2.84.054h-.217v-.832h1.157q.29 0 .453-.018.162-.018.289-.055.127-.036.145-.036.018 0 .108-.09t.109-.073z" style="fill:#000;fill-opacity:1"/><g id="g12775" transform="translate(0 -1.768)"><path id="path12765" d="M267.504 52.062V38.25" style="fill:#000;stroke:#000;stroke-width:.5;stroke-miterlimit:2;stroke-dasharray:none"/><path id="path12767" d="M387.504 38.25v25.688" style="fill:#000;stroke:#000;stroke-width:.5;stroke-miterlimit:2;stroke-dasharray:none"/><path id="path12769" d="m267.504 36.062-.008-17.237" style="fill:#000;stroke:#000;stroke-width:.9;stroke-miterlimit:2;stroke-dasharray:none"/><path id="path12771" d="m387.508 36.062-.008-17.237" style="fill:#000;stroke:#000;stroke-width:.9;stroke-miterlimit:2;stroke-dasharray:none"/><path id="path12773" d="M387.504 27.444H267.497" style="fill:#000;stroke:#000;stroke-width:.9;stroke-miterlimit:2;stroke-dasharray:none"/></g></g><path id="path12779" d="M267.497 50.295v2.973" style="fill:#000;fill-opacity:1;stroke:#fca;stroke-width:.5;stroke-miterlimit:2;stroke-dasharray:none"/></g><g id="g12801" transform="rotate(-144 233.574 189.687)"><g id="g12797"><path id="path12783" stroke-width=".019" d="m326.743 7.447-.235.09q-.254.09-.724.181-.47.09-1.049.127h-.344v-.832h.344q.85-.036 1.574-.272.723-.235 1.013-.434.289-.199.506-.398.036-.054.217-.054.163 0 .308.109v5.408l.018 5.426q.126.127.217.163.09.036.434.073.343.036 1.121.036h.47v.832h-.198q-.38-.054-2.876-.054-2.46 0-2.84.054h-.217v-.832h1.157q.29 0 .453-.018.162-.018.289-.055.127-.036.145-.036.018 0 .108-.09t.109-.073z" style="fill:#000;fill-opacity:1"/><g id="g12795" transform="translate(0 -1.768)"><path id="path12785" d="M267.504 52.062V38.25" style="fill:#000;stroke:#000;stroke-width:.5;stroke-miterlimit:2;stroke-dasharray:none"/><path id="path12787" d="M387.504 38.25v25.688" style="fill:#000;stroke:#000;stroke-width:.5;stroke-miterlimit:2;stroke-dasharray:none"/><path id="path12789" d="m267.504 36.062-.008-17.237" style="fill:#000;stroke:#000;stroke-width:.9;stroke-miterlimit:2;stroke-dasharray:none"/><path id="path12791" d="m387.508 36.062-.008-17.237" style="fill:#000;stroke:#000;stroke-width:.9;stroke-miterlimit:2;stroke-dasharray:none"/><path id="path12793" d="M387.504 27.444H267.497" style="fill:#000;stroke:#000;stroke-width:.9;stroke-miterlimit:2;stroke-dasharray:none"/></g></g><path id="path12799" d="M267.497 50.295v2.973" style="fill:#000;fill-opacity:1;stroke:#fca;stroke-width:.5;stroke-miterlimit:2;stroke-dasharray:none"/></g><g id="g12821" transform="rotate(-72 243.756 189.689)"><g id="g12817"><path id="path12803" stroke-width=".019" d="m326.743 7.447-.235.09q-.254.09-.724.181-.47.09-1.049.127h-.344v-.832h.344q.85-.036 1.574-.272.723-.235 1.013-.434.289-.199.506-.398.036-.054.217-.054.163 0 .308.109v5.408l.018 5.426q.126.127.217.163.09.036.434.073.343.036 1.121.036h.47v.832h-.198q-.38-.054-2.876-.054-2.46 0-2.84.054h-.217v-.832h1.157q.29 0 .453-.018.162-.018.289-.055.127-.036.145-.036.018 0 .108-.09t.109-.073z" style="fill:#000;fill-opacity:1"/><g id="g12815" transform="translate(0 -1.768)"><path id="path12805" d="M267.504 52.062V38.25" style="fill:#000;stroke:#000;stroke-width:.5;stroke-miterlimit:2;stroke-dasharray:none"/><path id="path12807" d="M387.504 38.25v25.688" style="fill:#000;stroke:#000;stroke-width:.5;stroke-miterlimit:2;stroke-dasharray:none"/><path id="path12809" d="m267.504 36.062-.008-17.237" style="fill:#000;stroke:#000;stroke-width:.9;stroke-miterlimit:2;stroke-dasharray:none"/><path id="path12811" d="m387.508 36.062-.008-17.237" style="fill:#000;stroke:#000;stroke-width:.9;stroke-miterlimit:2;stroke-dasharray:none"/><path id="path12813" d="M387.504 27.444H267.497" style="fill:#000;stroke:#000;stroke-width:.9;stroke-miterlimit:2;stroke-dasharray:none"/></g></g><path id="path12819" d="M267.497 50.295v2.973" style="fill:#000;fill-opacity:1;stroke:#fca;stroke-width:.5;stroke-miterlimit:2;stroke-dasharray:none"/></g></g></svg>