<svg xmlns="http://www.w3.org/2000/svg" width="480" height="290" viewBox="0 0 127 76.729"><g style="display:inline"><g style="stroke-width:.976092"><path d="M34.03 5.41c-.005.289-.012.579-.026.868-.044.866-.009 1.728-.093 2.59a46.742 46.742 0 0 0-.023 2.844l.02 2.728.022 2.86.016 2.156.016 2.022c.006.743.012 1.487.013 2.23 0 .913-.005 1.826-.04 2.74-.04.93-.105 1.862-.073 2.795.007 1.042.013 2.084.006 3.126-.01 1.067-.035 2.134-.054 3.2.009.851.107 1.697.115 2.547l.022 2.847c.008 1.017.017 2.035.016 3.053a57.35 57.35 0 0 1-.06 2.776 46.281 46.281 0 0 0-.044 3.334c.01 1.252.02 2.504.022 3.756 0 1.364-.009 2.727-.05 4.09a83.093 83.093 0 0 0-.04 4.348l.029 3.774.016 2.265" style="display:inline;fill:none;stroke:#000;stroke-width:.258257;stroke-dasharray:none" transform="matrix(1 0 0 1.04959 -6.735 -.228)"/><path d="M35.037 9.086a23.492 23.492 0 0 0-.328-1.374c-.213-.778-.455-1.547-.616-2.343-.017-.14-.026-.179-.026-.312 0-.06-.022-.21-.026-.213-.062-.277.086-.235.014-.06-.064.435-.202.985-.303 1.484-.132.682-.294 1.355-.416 2.04" style="display:inline;fill:none;stroke:#000;stroke-width:.258257;stroke-dasharray:none" transform="matrix(1 0 0 1.04959 -6.735 -.228)"/></g><g style="stroke-width:.985684"><path d="M13.622 59.79c1.138-.046 2.277.055 3.418.046 1.68-.038 3.36-.068 5.04-.079 1.744.01 3.485.115 5.226.057 1.524-.053 3.05-.06 4.575-.06 1.906-.015 3.808.14 5.713.105 1.892-.036 3.786-.042 5.678-.026 1.892.015 3.783.011 5.675-.014a347.59 347.59 0 0 1 5.389-.021c1.505.012 3.008.068 4.512.06 1.41-.006 2.817.02 4.225-.01 1.533-.032 3.067-.012 4.6-.028 1.889-.056 3.778-.003 5.668.004 2.142-.008 4.284-.015 6.426-.013 1.713.003 3.425.014 5.138.024l5.027.035c1.735.01 3.468.018 5.202.058 1.616.036 3.234-.006 4.851.008 1.412.002 2.821.012 4.231.052 1.319.035 2.639-.01 3.958.002l2.016.015" style="display:inline;fill:none;stroke:#000;stroke-width:.260795;stroke-dasharray:none" transform="matrix(1.02926 0 0 1 -3.1 5.613)"/><path d="M108.708 59.49c.531.054 1.064.104 1.595.165.575.082 1.153.164 1.718.298-.03-.055.256.093.25.077-.062-.17-.06-.125-.234-.075-.628.189-1.24.42-1.86.63-.313.097-.31.1-.61.182-.227.063-.15.058-.262.061" style="display:inline;fill:none;stroke:#000;stroke-width:.260795;stroke-dasharray:none" transform="matrix(1.02926 0 0 1 -3.1 5.613)"/></g><g style="display:inline"><path d="M55.189 53.13a2.21 2.21 0 0 0-.458.381c-.042.047-.08.097-.119.146-.132.189-.234.406-.191.642.022.122.054.16.112.264a.978.978 0 0 0 .392.334c.034.014.018.008.047.018l.045-.065v0c-.025-.007-.011-.003-.041-.014a.896.896 0 0 1-.372-.306c-.054-.095-.084-.13-.105-.24-.042-.223.06-.426.185-.602.04-.047.076-.096.117-.14a2.01 2.01 0 0 1 .449-.366zM55.976 53.627c-.143-.053-.302.007-.435.063a.555.555 0 0 0-.3.35c-.007.029-.007.058-.011.087.003.029.004.058.01.086.031.127.126.215.24.27.033.015.068.025.101.038.173.053.356.06.532.021.042-.01.083-.022.124-.034.18-.074.242-.16.281-.346a.48.48 0 0 0-.1-.355c-.017-.02-.036-.037-.054-.056a.793.793 0 0 0-.38-.162c-.085.004-.037-.003-.142.028l.056.056v0c.014-.019.002-.006.05-.013a.723.723 0 0 1 .351.137c.017.016.034.031.05.049a.406.406 0 0 1 .09.31c-.036.165-.095.235-.255.294a.96.96 0 0 1-.556.008c-.137-.049-.27-.103-.31-.258-.006-.024-.006-.048-.01-.072.004-.025.004-.05.01-.075.036-.144.153-.246.281-.309.101-.04.215-.087.325-.057zM57.023 54.485a1.492 1.492 0 0 1-.296.352c-.063.054-.033.03-.09.07l.065.044v0c.06-.045.029-.02.094-.076.117-.11.227-.23.304-.371zM58.302 53.548a1 1 0 0 0-.409.146c-.027.018-.052.039-.078.058-.095.091-.193.202-.212.338-.004.025-.002.05-.003.075a.445.445 0 0 0 .212.35c.03.018.063.03.094.045.162.051.341.092.512.06.043-.008.084-.022.126-.033a.613.613 0 0 0 .315-.312c.01-.026.014-.053.02-.08a.54.54 0 0 0-.082-.37c-.016-.024-.037-.045-.056-.067-.136-.12-.303-.2-.473-.263l-.046.064v0c.162.056.32.134.453.243.017.019.036.036.05.056.07.095.088.215.076.33-.006.022-.01.045-.018.066a.538.538 0 0 1-.292.275c-.174.057-.363.021-.535-.03-.028-.012-.059-.022-.086-.037a.373.373 0 0 1-.19-.302c0-.02-.002-.042.001-.062.019-.124.113-.222.2-.303a.873.873 0 0 1 .397-.172zM59.091 53.082c.177.117.3.293.412.47.102.184.21.382.222.597.003.036-.002.071-.003.107-.025.175-.135.3-.263.411l-.038.035.069.039v0l.038-.035c.14-.128.247-.26.273-.455 0-.039.004-.077.002-.116-.015-.223-.124-.428-.23-.62-.117-.182-.243-.364-.425-.488z" style="fill:#fff6d5;fill-opacity:1;stroke:#000;stroke-width:.211667;stroke-linecap:square;stroke-dasharray:none;stroke-opacity:1" transform="translate(-73.824 33.522)"/></g></g><g style="display:inline"><path d="M110.049-75.93c.036-.814-.083-1.621-.415-2.37-.107-.241-.239-.47-.358-.706-.88-1.546-2.079-2.89-3.455-4.013-.322-.262-.661-.503-.992-.754-1.337-.899-2.73-1.734-4.25-2.285-.931-.338-1.38-.416-2.346-.648-1.735-.332-3.515-.444-5.272-.215-1.038.135-1.577.3-2.574.55-1.454.425-2.86 1.078-4.049 2.031-.67.537-.853.791-1.431 1.429a11.258 11.258 0 0 0-2.286 5.016c-.07.391-.103.788-.154 1.182-.113 1.444-.1 2.908.193 4.332.186.905.32 1.205.622 2.08.726 1.756 1.735 3.416 3.112 4.74.283.273.594.515.892.773 1.342 1.055 2.891 1.778 4.511 2.295 1.014.324 1.5.408 2.525.636 1.477.308 2.989.426 4.493.287.98-.091 1.25-.18 2.208-.386a15.488 15.488 0 0 0 4.283-1.756c.83-.496 1.022-.67 1.79-1.24 1.167-.944 2.255-2.038 2.955-3.384.105-.202.186-.416.28-.624.472-1.173.608-2.424.57-3.677-.091-1.127-.503-2.17-.994-3.175" style="fill:none;stroke:#00f;stroke-width:.264583;stroke-dasharray:none"/><path d="M139.423-65.101c-.13-.237-.24-.482-.362-.723-.778-1.552-1.566-3.1-2.329-4.66-1.225-2.498-2.458-4.992-3.772-7.445-1.188-2.244-2.357-4.5-3.666-6.677a144.117 144.117 0 0 1-1.976-3.4" style="fill:none;stroke:red;stroke-width:.264583;stroke-dasharray:none"/><path d="M126.678-44.6c.103 1.273.214 2.547.337 3.82.055 1.003.25 1.991.368 2.987.011-.437-.053.33.427-.264.056-.068-.095-.15-.144-.223a28.3 28.3 0 0 0-1.15-1.589c-.965-1.187-1.913-2.39-2.73-3.684" style="fill:red;stroke:red;stroke-width:.0105833"/><circle cx="108.3" cy="-76.795" r="13.126" style="fill:none;stroke:#f0f;stroke-width:.264583;stroke-dasharray:none"/><path d="M75.55-38.614c.129-.02.307-.166.498-.25.183-.114.378-.207.562-.319.383-.203.77-.4 1.155-.601.216-.11.434-.214.645-.33.014-.012.027-.025.042-.036.004-.003.01 0 .012-.004.067-.153.09-.041-.025-.165-.062-.055-.133-.082-.207-.127-.2-.054-.398-.12-.592-.194-.407-.15-.805-.323-1.2-.5-.251-.105-.506-.2-.755-.309" style="fill:none;stroke:#00f;stroke-width:.608542;stroke-dasharray:none"/><path d="M70.947-37.197c.384-.2.794-.39 1.223-.467.23-.054.464-.112.703-.118.036 0 .072.004.108.007.004 0 .015.006.012.004-.015-.013-.032-.023-.048-.034-.015.006-.035.006-.045.018-.032.037-.052.084-.079.125a3.418 3.418 0 0 1-.112.16c-.161.214-.344.413-.518.618-.27.3-.513.62-.775.927-.12.137-.248.268-.377.397-.167.18-.04.359.157.444.02.009.196-.02.213-.021.488-.111.99-.144 1.487-.195.207-.026.416-.036.625-.04l.209-.513a4.5 4.5 0 0 0-.66.03c-.506.051-1.018.076-1.515.183l-.1.024c-.021.005-.069-.007-.062.013.016.051.086.073.105.123.062.16-.034.28.037.2.133-.137.265-.276.388-.423.258-.31.506-.626.773-.927.23-.27.643-.7.751-1.04.023-.072.026-.15.039-.224-.03-.074-.04-.157-.087-.222-.207-.293-.84-.101-1.112-.055-.613.165-1.23.334-1.778.667z" style="fill:none;stroke:#00f;stroke-width:.396875"/><path d="M126.28-49.534c.301.038.567.19.807.37.09.088.183.186.231.306.03.076.013.104-.05.064-.027-.059-.167.06-.174.002-.005-.036.14-.027.104-.037-.052-.015-.107.017-.16.022-.124.011-.174.007-.297.004-.166-.006-.426-.06-.56.052-.178.15-.06.34.018.474.15.268.21.431.095.727-.082.11-.176.222-.31.274-.04.016-.108.065-.13.026-.02-.037.124-.015.114-.056-.011-.043-.088-.01-.132-.014-.222-.073-.446-.21-.53-.442-.046-.131-.036-.287-.037-.422a3.12 3.12 0 0 1 .074-.548l-.553-.03c-.038.21-.07.42-.07.634.01.237-.001.375.088.605.13.333.43.546.747.68.078.02.154.064.235.061.522-.021.84-.242 1.053-.698.017-.067.04-.133.051-.202.045-.297-.052-.58-.196-.836-.104-.174.012.056-.133.169-.07.054-.175.024-.261.041-.068.014.4-.044.208.01.358.024.601.009.962-.09a.6.6 0 0 0 .16-.07c.054-.033.097-.082.145-.123.028-.06.067-.114.082-.177.075-.298-.177-.57-.356-.769-.282-.229-.603-.421-.963-.496z" style="fill:red;stroke:none;stroke-width:.396875"/><path d="M126.439-63.066v-.662l-.001-1.195c-.014-.432.022-.863.048-1.294.034-.334.004-.668-.019-1a5.913 5.913 0 0 1 .01-.989c.022-.34.032-.68.037-1.02.004-.404.003-.807.003-1.21v-2.607c.003-.434-.043-.864-.034-1.298.012-.277.024-.555.03-.833.005-.292.005-.584.005-.876v-.164l-.552.043v.164c0 .29 0 .58-.006.868-.006.279-.02.557-.03.835-.005.436.039.869.036 1.304a62898.655 62898.655 0 0 1 0 2.607c0 .401 0 .803-.004 1.204-.005.334-.016.668-.039 1.001a6.523 6.523 0 0 0-.005 1.04c.022.317.049.633.016.95-.027.44-.06.878-.047 1.318v1.858z" style="fill:none;stroke:#00f;stroke-width:.396875"/><path d="M130.674-48.033c.301.038.567.191.806.37.09.089.184.187.232.306.03.077.012.104-.05.065-.027-.06-.167.06-.174.002-.005-.037.14-.027.104-.037-.052-.015-.107.016-.16.021-.125.012-.174.007-.298.005-.165-.007-.425-.06-.559.052-.178.15-.06.34.018.474.15.268.21.431.095.726-.082.111-.176.223-.31.275-.04.016-.108.065-.13.026-.02-.037.124-.016.113-.056-.01-.043-.087-.01-.131-.014-.222-.073-.446-.21-.53-.443-.047-.13-.036-.287-.037-.421.006-.185.036-.368.073-.549l-.553-.03c-.037.21-.069.42-.07.634.012.238 0 .376.09.605.13.334.428.547.745.68.079.02.155.065.236.062.522-.022.839-.243 1.053-.698.017-.068.04-.134.05-.203.045-.297-.051-.58-.195-.835-.105-.175.011.055-.134.168-.069.054-.174.025-.26.042-.068.013.4-.044.208.01.358.023.6.009.961-.09a.6.6 0 0 0 .161-.07c.054-.034.097-.082.145-.124.027-.059.066-.114.082-.177.075-.297-.177-.57-.356-.768-.282-.23-.603-.422-.963-.497z" style="fill:red;stroke:none;stroke-width:.396875"/><path d="M169.396 87.03a9.15 9.15 0 0 1 .562-.656c.234-.283.52-.515.761-.791l.037-.068M168.724 87.541c-.175.23-.367.444-.562.656-.234.282-.52.515-.76.791l-.038.068M166.524 89.789c-.175.229-.367.444-.562.655-.234.283-.52.516-.76.792l-.038.067M162.97 93.456c.174-.23.366-.444.561-.656.234-.282.521-.515.762-.791l.036-.068M162.297 93.968a9.15 9.15 0 0 1-.561.655c-.234.283-.521.516-.761.792l-.037.068M160.097 96.215a9.15 9.15 0 0 1-.561.656c-.234.282-.521.515-.761.791l-.037.068" style="fill:none;stroke:red;stroke-width:.396875"/><path d="M76.973 11.815c-.197.267-.35.527-.58.854-.335.729-.659 1.018-1.066 1.722-.782 1.252-1.55 2.584-2.365 3.74-.947 1.752-2.222 3.304-3.132 5.079-1.304 2.281-2.656 4.533-4.164 6.689a34.356 34.356 0 0 0-1.467 2.487" style="display:inline;fill:none;stroke:#00f;stroke-width:.396875;stroke-dasharray:none"/><path d="M88.706 30.242c1.225 3.687.883 8.01-.126 11.594-1.547 5.492-6.307 9.87-11.133 12.45-5.934 3.171-13.42 3.259-19.965 1.724-6.43-1.509-11.418-4.996-15.072-10.701-3.212-5.013-4.34-12.315-3.393-17.774 1.199-6.91 5.896-13.625 12.991-17.009 9.212-4.393 18.25-4.082 25.817 1.609 4.133 3.11 8.863 7.991 10.491 14.34.264 1.026.777 2.604.721 3.66" style="display:inline;fill:none;stroke:#00f;stroke-width:.396876;stroke-dasharray:none"/><path d="M77.856 11.6c.042-.293.052-.49-.132-.757-.225-.302-.566-.365-.92-.316-.381.08-.783.251-.74.859.006.077.026.153.039.23.19.562.391.704.762.894.323.1.507.05.8-.21.128-.114.27-.39.263-.593zM64.231 32.422c.075 0 .024-.004-.103.077-.015.01.036-.008.05-.02.003-.002-.005-.005-.027-.017-.026-.015-.095-.103-.075-.126.08-.089.217-.113.11-.09l-.019-.001-.182.282c.006.029.063.06.092.07.032.001.107.008.137-.003a.451.451 0 0 0 .205-.117.204.204 0 0 0 .044-.1c.016-.092-.03-.157-.093-.215-.023-.012-.045-.026-.07-.034-.145-.049-.377.095-.354.2z" style="display:inline;fill:#00f;stroke:#00f;stroke-width:.396875"/><g style="stroke-width:1.09819"><path d="M78.689 21.6a34.6 34.6 0 0 1-.49-.605 16.143 16.143 0 0 0-1.448-1.615c-.548-.534-1.405-1.22-1.935-1.612a7.496 7.496 0 0 0-.603-.397" style="display:inline;fill:none;fill-opacity:1;stroke:#00f;stroke-width:.435844;stroke-dasharray:none;stroke-opacity:1" transform="matrix(.88486 -.22006 .22052 .88222 6.17 8.93)"/><path d="M76.795 20.536c.072.078.08.086.1.098.315.261.64.514.992.723.154.09.308.177.469.253.016.008.175.086.201.076.111-.043.17-.05.181-.122.004-.036.012-.072.012-.108a.824.824 0 0 0-.048-.19c-.062-.183-.136-.362-.204-.543-.129-.315-.264-.626-.392-.94" style="display:inline;fill:none;fill-opacity:1;stroke:#00f;stroke-width:.435844;stroke-dasharray:none;stroke-opacity:1" transform="matrix(.88486 -.22006 .22052 .88222 6.17 8.93)"/></g><path d="m28.016 109.752-.01.071c-.033.284-.026.57-.044.854-.02.414-.033.828-.025 1.242 0 .288 0 .575-.002.863M36.584 109.763c0 .012-.037.248-.036.552-.012.488-.035.976-.018 1.465.011.285.035.57.031.856M44.974 112.668c.074-.436.107-.877.142-1.317.039-.473.04-.949.069-1.423M53.656 109.8a5.834 5.834 0 0 0-.042.494c-.025.463-.026.926-.045 1.388-.014.318-.032.636-.026.954M70.62 110.017l.003.116c.029.44.03.882.025 1.323l-.001 1.15M79.156 110.079c-.014.47-.033.941-.057 1.412-.016.39-.034.781.005 1.17M87.71 110.191c-.013.334-.025.667-.04 1-.02.438-.044.88-.012 1.317M96.25 110.205a7.51 7.51 0 0 0-.07.581c-.032.336-.04.671.022 1.005.038.288.074.575.108.864" style="display:inline;fill:none;fill-opacity:1;stroke:#000;stroke-width:.264583;stroke-dasharray:none;stroke-opacity:1"/><g style="display:inline;stroke-width:.906252"><path d="M55.189 53.13a2.21 2.21 0 0 0-.458.381c-.042.047-.08.097-.119.146-.132.189-.234.406-.191.642.022.122.054.16.112.264a.978.978 0 0 0 .392.334c.034.014.018.008.047.018l.045-.065v0c-.025-.007-.011-.003-.041-.014a.896.896 0 0 1-.372-.306c-.054-.095-.084-.13-.105-.24-.042-.223.06-.426.185-.602.04-.047.076-.096.117-.14a2.01 2.01 0 0 1 .449-.366zM55.976 53.627c-.143-.053-.302.007-.435.063a.555.555 0 0 0-.3.35c-.007.029-.007.058-.011.087.003.029.004.058.01.086.031.127.126.215.24.27.033.015.068.025.101.038.173.053.356.06.532.021.042-.01.083-.022.124-.034.18-.074.242-.16.281-.346a.48.48 0 0 0-.1-.355c-.017-.02-.036-.037-.054-.056a.793.793 0 0 0-.38-.162c-.085.004-.037-.003-.142.028l.056.056v0c.014-.019.002-.006.05-.013a.723.723 0 0 1 .351.137c.017.016.034.031.05.049a.406.406 0 0 1 .09.31c-.036.165-.095.235-.255.294a.96.96 0 0 1-.556.008c-.137-.049-.27-.103-.31-.258-.006-.024-.006-.048-.01-.072.004-.025.004-.05.01-.075.036-.144.153-.246.281-.309.101-.04.215-.087.325-.057zM57.023 54.485a1.492 1.492 0 0 1-.296.352c-.063.054-.033.03-.09.07l.065.044v0c.06-.045.029-.02.094-.076.117-.11.227-.23.304-.371zM58.302 53.548a1 1 0 0 0-.409.146c-.027.018-.052.039-.078.058-.095.091-.193.202-.212.338-.004.025-.002.05-.003.075a.445.445 0 0 0 .212.35c.03.018.063.03.094.045.162.051.341.092.512.06.043-.008.084-.022.126-.033a.613.613 0 0 0 .315-.312c.01-.026.014-.053.02-.08a.54.54 0 0 0-.082-.37c-.016-.024-.037-.045-.056-.067-.136-.12-.303-.2-.473-.263l-.046.064v0c.162.056.32.134.453.243.017.019.036.036.05.056.07.095.088.215.076.33-.006.022-.01.045-.018.066a.538.538 0 0 1-.292.275c-.174.057-.363.021-.535-.03-.028-.012-.059-.022-.086-.037a.373.373 0 0 1-.19-.302c0-.02-.002-.042.001-.062.019-.124.113-.222.2-.303a.873.873 0 0 1 .397-.172zM59.091 53.082c.177.117.3.293.412.47.102.184.21.382.222.597.003.036-.002.071-.003.107-.025.175-.135.3-.263.411l-.038.035.069.039v0l.038-.035c.14-.128.247-.26.273-.455 0-.039.004-.077.002-.116-.015-.223-.124-.428-.23-.62-.117-.182-.243-.364-.425-.488z" style="fill:#fff6d5;fill-opacity:1;stroke:#000;stroke-width:.191824;stroke-linecap:square;stroke-dasharray:none;stroke-opacity:1" transform="matrix(1.09976 0 0 1.10714 -39.761 7.855)"/></g><path d="M62.068 112.496c.045-.329.052-.66.047-.992a121.64 121.64 0 0 1-.047-1.761" style="display:inline;fill:none;fill-opacity:1;stroke:#000;stroke-width:.263645;stroke-linecap:square;stroke-dasharray:none;stroke-opacity:1"/><g style="display:inline"><path d="M16.857 61.358c-.063 0-.193.005-.278.01-.175.002-.35.004-.526.019" style="opacity:1;fill:none;fill-opacity:.754348;stroke:#000;stroke-width:.396875;stroke-linecap:square;stroke-dasharray:none;stroke-opacity:1" transform="translate(177.357 -13.219)"/><path d="M17.59 60.436a9.71 9.71 0 0 1 .707-.044c.145-.007.297 0 .436-.042M17.55 61.929a.744.744 0 0 0 .053.18c.013.023.024.048.04.069.03.042.084.09.13.115.102.053.218.048.328.044.05-.011.102-.02.151-.035a.62.62 0 0 0 .367-.275c.016-.03.026-.063.04-.094.006-.032.016-.064.02-.097a.756.756 0 0 0-.1-.51c-.053-.067-.066-.092-.135-.142-.108-.08-.24-.1-.368-.116-.034-.002-.067-.005-.101-.005a1.09 1.09 0 0 0-.388.074c.001.002.017.017 0 .018-.004 0-.003-.008-.003-.011.005-.055.036-.105.047-.158l.052-.171c.022-.074.051-.147.067-.223l.006-.039" style="opacity:1;fill:none;fill-opacity:.754348;stroke:#000;stroke-width:.396875;stroke-linecap:butt;stroke-dasharray:none;stroke-opacity:1" transform="translate(177.357 -13.219)"/></g><g style="display:inline"><path d="M104.2 57.527h-.143c-.348.01-.697.019-1.042.05" style="opacity:1;fill:none;fill-opacity:.754348;stroke:#000;stroke-width:.396876;stroke-linecap:butt;stroke-dasharray:none;stroke-opacity:1" transform="translate(100.35 -4.418)"/><path d="M103.163 57.567c-.053.08-.099.162-.142.246-.027.052-.058.109-.074.166-.006.02-.006.043-.01.064.004.017.002.035.011.05.043.08.164.06.237.062a1.32 1.32 0 0 1 .621.185c.034.02.065.044.097.066.14.123.267.28.281.473.002.033-.002.066-.003.099-.008.029-.01.06-.023.087-.09.193-.354.126-.514.101a2.79 2.79 0 0 1-.5-.157.515.515 0 0 1-.22-.145" style="opacity:1;fill:none;fill-opacity:.754348;stroke:#000;stroke-width:.396875;stroke-linecap:butt;stroke-dasharray:none;stroke-opacity:1" transform="translate(100.35 -4.418)"/></g><path d="M104.844 112.704c.015-.148.016-.297.018-.446 0-.221-.014-.441-.027-.662-.005-.187 0-.375.003-.563.006-.19-.004-.379-.01-.568a9.519 9.519 0 0 0-.02-.478c-.004-.062-.001-.033-.006-.087M19.57 112.684v-1.202c.003-.214-.004-.428.005-.642.01-.184.02-.367.024-.551.007-.11.02-.22.03-.33" style="display:inline;fill:none;fill-opacity:.754348;stroke:#000;stroke-width:.264583;stroke-linecap:butt;stroke-dasharray:none;stroke-opacity:1"/><g style="display:inline"><path d="M42.864 60.628c.225-.025.453-.024.68-.027.188 0 .375-.009.562-.027l.043-.005" style="fill:none;fill-opacity:1;stroke:#000;stroke-width:.396875;stroke-dasharray:none;stroke-opacity:1" transform="translate(162.864 -6.387) scale(.9025)"/><path d="M44.895 59.454c.003.01.006.056.008.067.013.103.026.195.023.297l-.007.317c-.004.181-.01.363-.032.543-.013.052-.004.08.06.073.242-.057.487-.095.734-.127a7.65 7.65 0 0 1 .608-.052l.016-.002" style="fill:none;fill-opacity:1;stroke:#000;stroke-width:.396875;stroke-linecap:square;stroke-dasharray:none;stroke-opacity:1" transform="translate(162.864 -6.387) scale(.9025)"/><path d="m45.894 61.396-.01-.077a8.6 8.6 0 0 1-.053-.626c-.013-.279-.01-.56-.042-.837" style="fill:none;fill-opacity:1;stroke:#000;stroke-width:.396875;stroke-linecap:square;stroke-dasharray:none;stroke-opacity:1" transform="translate(162.864 -6.387) scale(.9025)"/></g><g style="display:inline"><path d="M48.987 59.324c.003.178-.005.356-.016.534-.017.203-.036.406-.059.609-.008.072-.024.053.023.11.132-.021.265-.03.398-.04.246-.008.492-.005.738 0l.05-.002" style="fill:none;fill-opacity:1;stroke:#000;stroke-width:.396875;stroke-linecap:square;stroke-dasharray:none;stroke-opacity:1" transform="matrix(.95 0 0 .95 148.347 -2.978)"/><path d="M49.932 61.182c-.006-.025-.009-.05-.013-.075a6.095 6.095 0 0 1-.057-.596 7.076 7.076 0 0 0-.06-.687" style="fill:none;fill-opacity:1;stroke:#000;stroke-width:.396875;stroke-linecap:square;stroke-dasharray:none;stroke-opacity:1" transform="matrix(.95 0 0 .95 148.347 -2.978)"/></g><path d="M67.804 21.791c.116.022.235.033.383.031.139 0 .362-.042.51-.12a.885.885 0 0 0 .32-.313c.06-.095.12-.239.125-.35a.93.93 0 0 0-.074-.43.594.594 0 0 0-.259-.267.72.72 0 0 0-.355-.1.714.714 0 0 0-.32.095c-.109.062-.177.156-.271.238-.03.026-.07.093-.118.081-.06-.015-.056-.106-.056-.148a2.23 2.23 0 0 0-.026-.4 1.303 1.303 0 0 0-.096-.334.388.388 0 0 0-.14-.162c-.052-.028-.13-.038-.178-.009a1.029 1.029 0 0 0-.29.25 1.32 1.32 0 0 0-.194.357c-.04.12-.08.258-.1.427-.005.045-.01.147-.005.236M44.557-47.686c-.256.212-.467.426-.77.689-.501.625-.885.828-1.45 1.412-1.062 1.027-2.13 2.133-3.2 3.058-1.343 1.47-2.956 2.668-4.268 4.17-1.817 1.898-3.673 3.755-5.659 5.482a34.356 34.356 0 0 0-2.025 2.059" style="display:inline;fill:none;stroke:#00f;stroke-width:.396875;stroke-dasharray:none"/><path d="M45.466-47.68c.112-.275.169-.464.055-.767-.146-.347-.461-.49-.816-.529-.39-.015-.82.054-.926.654-.014.076-.012.155-.018.232.049.592.21.778.523 1.052.29.175.48.171.826-.01.153-.08.358-.313.4-.512zM27.132-30.774c.074.015.025.001-.117.054-.016.007.037 0 .053-.009.004-.002-.003-.007-.022-.023-.022-.019-.073-.12-.047-.138.096-.07.235-.066.125-.066l-.018-.004-.236.238c0 .03.049.072.076.087.03.008.102.03.134.026a.451.451 0 0 0 .224-.072.204.204 0 0 0 .064-.088c.036-.087.004-.16-.046-.23-.02-.017-.038-.035-.06-.049-.133-.077-.39.015-.389.123z" style="display:inline;fill:#00f;stroke:#00f;stroke-width:.396875"/><path d="M78.689 21.6a34.6 34.6 0 0 1-.49-.605 16.143 16.143 0 0 0-1.448-1.615c-.548-.534-1.405-1.22-1.935-1.612a7.496 7.496 0 0 0-.603-.397" style="display:inline;fill:none;fill-opacity:1;stroke:#00f;stroke-width:.396875;stroke-dasharray:none;stroke-opacity:1" transform="translate(-30.106 -69.2)"/><path d="M76.795 20.536c.072.078.08.086.1.098.315.261.64.514.992.723.154.09.308.177.469.253.016.008.175.086.201.076.111-.043.17-.05.181-.122.004-.036.012-.072.012-.108a.824.824 0 0 0-.048-.19c-.062-.183-.136-.362-.204-.543-.129-.315-.264-.626-.392-.94" style="display:inline;fill:none;fill-opacity:1;stroke:#00f;stroke-width:.396875;stroke-dasharray:none;stroke-opacity:1" transform="translate(-30.106 -69.2)"/><path d="M33.247-40.224c.106.05.22.088.364.123.135.032.362.046.524.006a.885.885 0 0 0 .386-.226.808.808 0 0 0 .206-.31.93.93 0 0 0 .033-.435.595.595 0 0 0-.187-.321.72.72 0 0 0-.321-.183.715.715 0 0 0-.333.015c-.12.034-.21.108-.32.165-.037.018-.092.073-.135.05-.054-.029-.029-.116-.019-.157.035-.139.062-.254.072-.395.01-.121.01-.228-.012-.346a.388.388 0 0 0-.098-.192c-.042-.04-.116-.068-.17-.051a1.029 1.029 0 0 0-.341.171 1.32 1.32 0 0 0-.275.3c-.068.107-.14.232-.2.39-.017.043-.046.141-.062.228" style="display:inline;fill:none;stroke:#00f;stroke-width:.396875;stroke-dasharray:none"/><path d="M53.656 117.658a5.834 5.834 0 0 0-.042.494c-.025.463-.026.926-.045 1.388-.014.318-.032.636-.026.954M76.32 117.875l.004.116c.028.441.028.882.024 1.323l-.001 1.15M87.727 117.937c-.015.47-.033.942-.057 1.412-.017.39-.035.782.004 1.17" style="display:inline;fill:none;fill-opacity:1;stroke:#000;stroke-width:.264583;stroke-dasharray:none;stroke-opacity:1"/><path d="M64.972 120.354c.045-.329.052-.66.047-.992-.019-.587-.037-1.174-.047-1.76" style="display:inline;fill:none;fill-opacity:1;stroke:#000;stroke-width:.263645;stroke-linecap:square;stroke-dasharray:none;stroke-opacity:1"/><path d="M55.586-3.334h34.1" style="fill:#fff;fill-opacity:.674051;stroke:#f0f;stroke-width:.635;stroke-dasharray:none"/><path d="M35.685 64.268c0 .01-.037.199-.037.442-.012.39-.035.782-.018 1.173.012.228.035.457.032.685M44.075 66.594c.074-.349.106-.702.141-1.054.039-.38.04-.76.07-1.14M52.756 64.298a3.762 3.762 0 0 0-.042.396c-.025.37-.026.74-.044 1.11-.014.255-.032.51-.027.764M69.72 64.472l.004.093c.028.353.028.705.025 1.059 0 .307 0 .614-.002.92M78.257 64.521c-.015.377-.033.754-.058 1.13-.016.312-.034.626.005.937M86.81 64.611c-.012.267-.025.534-.04.8-.02.351-.043.705-.011 1.055M95.35 64.622a4.87 4.87 0 0 0-.07.465c-.032.27-.04.538.023.805.038.23.074.46.107.691" style="display:inline;fill:none;fill-opacity:1;stroke:#000;stroke-width:.264583;stroke-dasharray:none;stroke-opacity:1"/><path d="M61.168 66.456c.045-.263.052-.529.047-.794-.018-.47-.037-.94-.047-1.41" style="display:inline;fill:none;fill-opacity:1;stroke:#000;stroke-width:.263645;stroke-linecap:square;stroke-dasharray:none;stroke-opacity:1"/><path d="M103.945 66.622c.015-.118.015-.237.017-.356 0-.177-.013-.354-.026-.53-.005-.15 0-.3.003-.45.006-.153-.004-.304-.01-.456a6.108 6.108 0 0 0-.02-.382l-.007-.07M18.671 66.607v-.962c.002-.171-.005-.343.004-.515a9.96 9.96 0 0 0 .025-.44c.006-.089.02-.176.03-.264" style="display:inline;fill:none;fill-opacity:.754348;stroke:#000;stroke-width:.264583;stroke-linecap:butt;stroke-dasharray:none;stroke-opacity:1"/><path d="M26.014 14.254c.348.074.7.107 1.052.142.38.039.76.04 1.139.069M28.307 22.936a3.755 3.755 0 0 0-.395-.042c-.37-.025-.74-.026-1.11-.045-.254-.014-.509-.032-.763-.026M28.134 39.9l-.093.003c-.353.029-.705.029-1.059.025l-.92-.001M28.084 48.436a43.93 43.93 0 0 1-1.13-.057c-.31-.016-.624-.034-.935.005M27.994 56.99a83.817 83.817 0 0 1-.8-.04c-.35-.02-.703-.044-1.053-.012" style="display:inline;fill:none;fill-opacity:1;stroke:#000;stroke-width:.264583;stroke-dasharray:none;stroke-opacity:1"/><path d="M26.151 31.348c.263.045.528.052.793.047.47-.019.94-.037 1.409-.047" style="display:inline;fill:none;fill-opacity:1;stroke:#000;stroke-width:.263645;stroke-linecap:square;stroke-dasharray:none;stroke-opacity:1"/><path d="M-7.766 74.124c.147.015.297.016.445.018.221 0 .442-.014.662-.027.188-.005.375 0 .563.003.19.006.379-.004.568-.01.16-.003.32-.008.478-.02.062-.004.033-.001.087-.006" style="display:inline;fill:none;fill-opacity:.754348;stroke:#000;stroke-width:.264583;stroke-linecap:butt;stroke-dasharray:none;stroke-opacity:1"/><path d="m90.98-9.498 14.557 8.961" style="fill:#fff;fill-opacity:.674051;stroke:#f0f;stroke-width:.634998;stroke-dasharray:none"/></g><g style="display:inline"><path d="m80.34 13.186.637 1.336-2.864-1.687-1.52-.786.526-1.043z" style="fill:#fff;fill-opacity:.674051;stroke:none;stroke-width:.635;stroke-dasharray:none"/><path d="M81.137 5.676c-.04.064-.08.128-.122.192-.306.473-.633.933-.956 1.396-.257.411-.55.863-.748 1.225M93.376 17.252c.196-.392.422-.768.654-1.14.27-.49.634-.92.916-1.401l.035-.112" style="display:inline;fill:none;stroke:red;stroke-width:.396875"/><path d="M80.101 7.102c.315.16.548.324.865.481.372.17.647.371.99.589.336.234.837.46 1.176.691.332.216.661.436.987.66.374.248.744.503 1.122.746.435.263.871.525 1.303.794.4.245.8.487 1.191.745.385.263.785.505 1.184.748.36.209.711.435 1.067.652.297.179.585.37.86.58.28.23.636.42.94.618.268.18.58.355.825.562.265.225.664.38.949.58.165.127.334.248.496.378" style="display:inline;fill:none;stroke:red;stroke-width:.396875"/><path d="M187.105 18.617a1.887 1.887 0 0 0-.065.379c-.01.138.011.364.076.518a.885.885 0 0 0 .283.347c.09.068.228.14.338.154a.93.93 0 0 0 .435-.035.594.594 0 0 0 .289-.234.72.72 0 0 0 .13-.346.715.715 0 0 0-.067-.326c-.052-.115-.14-.19-.213-.292-.023-.032-.086-.079-.07-.124.02-.058.11-.047.152-.043.143.012.26.021.402.01.12-.011.226-.027.34-.067a.388.388 0 0 0 .174-.126c.033-.048.049-.126.024-.176a1.029 1.029 0 0 0-.222-.31 1.32 1.32 0 0 0-.34-.225 2.12 2.12 0 0 0-.416-.137 1.583 1.583 0 0 0-.235-.027" style="display:inline;fill:none;stroke:red;stroke-width:.396875;stroke-dasharray:none"/><path d="M139.357-103.832h14.129v3.016h-14.129z" style="display:inline;fill:#fff6d5;fill-opacity:1;stroke:#000;stroke-width:.211667;stroke-dasharray:none;stroke-opacity:1" transform="rotate(44.946)"/><path d="M77.007 11.625c.731.4 1.459.943 2.173 1.374l.32.196" style="display:inline;fill:none;stroke:red;stroke-width:.635;stroke-dasharray:none"/><g style="display:inline"><g style="stroke-width:1.29585"><path d="M76.68 30.061c-.058.259-.105.52-.16.779-.05.24-.099.48-.145.72l-.128-.032.147-.72c.054-.26.1-.521.155-.78z" style="display:inline;fill:#000;fill-opacity:1;stroke:#000;stroke-width:.171431;stroke-linecap:butt;stroke-linejoin:miter;stroke-miterlimit:4;stroke-dasharray:none;stroke-dashoffset:0;stroke-opacity:1" transform="matrix(.76316 0 0 .78031 113.895 3.18)"/><path d="M76.153 31.533c.184-.056.372-.1.559-.149.265-.072.533-.136.8-.201.097-.023.054-.014.13-.029l.101.088c-.074.011-.032.004-.127.025-.268.064-.536.127-.8.2l-.122.032-.112.03c-.108.029-.218.05-.323.088l-.106-.084z" style="display:inline;fill:#000;fill-opacity:1;stroke:#000;stroke-width:.171431;stroke-linecap:butt;stroke-linejoin:miter;stroke-miterlimit:4;stroke-dasharray:none;stroke-dashoffset:0;stroke-opacity:1" transform="matrix(.76316 0 0 .78031 113.895 3.18)"/></g><g style="stroke-width:1.28831"><path d="M77.893 31.519c-.133.157-.287.295-.433.44-.12.118-.11.111-.219.23-.096.118-.052.062-.133.168l-.121-.055c.082-.108.037-.05.136-.171.109-.12.1-.114.22-.233.143-.142.294-.278.426-.432l.124.053z" style="display:inline;fill:#000;fill-opacity:1;stroke:#000;stroke-width:.170433;stroke-linecap:butt;stroke-linejoin:miter;stroke-miterlimit:4;stroke-dasharray:none;stroke-dashoffset:0;stroke-opacity:1" transform="matrix(.76859 0 0 .78391 113.68 3.378)"/><path d="M77.8 31.382c.165.136.328.274.492.413.154.132.308.264.451.408l-.131.02a7.79 7.79 0 0 0-.448-.404c-.165-.14-.333-.276-.497-.417l.132-.02zM77.472 31.862c.168.163.346.316.523.471l.062.055-.13.023-.062-.055c-.176-.156-.355-.31-.525-.474l.132-.02zM77.04 32.283c.213.18.428.358.637.543.102.091.204.184.302.28l-.131.02a7.558 7.558 0 0 0-.299-.277 18.39 18.39 0 0 0-.639-.537z" style="display:inline;fill:#000;fill-opacity:1;stroke:#000;stroke-width:.170433;stroke-linecap:butt;stroke-linejoin:miter;stroke-miterlimit:4;stroke-dasharray:none;stroke-dashoffset:0;stroke-opacity:1" transform="matrix(.76859 0 0 .78391 113.68 3.378)"/></g><path d="M80.23 34.144a.371.371 0 0 0-.162-.219c-.026-.017-.053-.03-.08-.046-.064-.03-.113-.056-.184-.068-.005-.001-.006.008-.011.009-.032.003-.065-.002-.097.001-.087.008-.098.017-.178.045-.095.047-.18.117-.198.228-.012.075 0 .102.016.176a.87.87 0 0 0 .256.392c.078.066.103.072.191.117.033.008.064.022.098.024.007 0 .006-.014.012-.016.033-.011.068-.01.1-.021a.62.62 0 0 0 .197-.115c.028-.024.05-.055.074-.082.017-.03.037-.06.05-.091a.446.446 0 0 0-.022-.36c-.012-.026-.028-.05-.042-.074-.05-.067-.024-.037-.074-.09l.11-.015c.05.06.025.027.074.1.037.07.054.093.074.172a.484.484 0 0 1-.017.304c-.014.035-.036.067-.054.1-.026.03-.05.064-.08.091a.713.713 0 0 1-.205.129c-.035.013-.07.029-.108.03-.135.003-.18-.02-.292-.056-.09-.051-.115-.059-.194-.13a.927.927 0 0 1-.258-.418c-.014-.083-.026-.113-.012-.196a.35.35 0 0 1 .139-.217c.024-.018.051-.032.077-.047.03-.012.058-.027.089-.036a.716.716 0 0 1 .2-.026.94.94 0 0 1 .376.112c.027.018.055.034.08.053a.451.451 0 0 1 .166.242l-.112-.002z" style="display:inline;fill:#000;fill-opacity:1;stroke:#000;stroke-width:.132292;stroke-linecap:butt;stroke-linejoin:miter;stroke-miterlimit:4;stroke-dasharray:none;stroke-dashoffset:0;stroke-opacity:1" transform="translate(95.67 -3.592)"/><g style="stroke-width:1.30121"><path d="M79.08 32.453c-.1.121-.211.231-.32.345l-.256.274c-.147.158-.227.231-.377.386-.037.04-.018.023-.13-.052.115-.1.158-.14.39-.392l.256-.275c.105-.112.215-.22.313-.34z" style="display:inline;fill:#000;fill-opacity:1;stroke:#000;stroke-width:.17214;stroke-miterlimit:4;stroke-dasharray:none;stroke-opacity:1" transform="matrix(.75493 0 0 .78234 114.918 3.645)"/><path d="M78.779 33.961a17.17 17.17 0 0 0-.638-.583l-.132.028c.222.182.432.38.64.578.04.04.083.078.125.116l.135-.019c-.048-.04-.093-.084-.13-.12z" style="display:inline;fill:#000;fill-opacity:1;stroke:#000;stroke-width:.17214;stroke-miterlimit:4;stroke-dasharray:none;stroke-opacity:1" transform="matrix(.75493 0 0 .78234 114.918 3.645)"/></g><path d="M81.363 35.27c.105-.018-.133-.155-.173-.17a.84.84 0 0 0-.142-.031.592.592 0 0 0-.354.07c-.032.018-.057.046-.086.07-.017.03-.04.058-.051.091-.054.166.04.346.135.475.026.035.065.079.097.11a.47.47 0 0 0 .146.106l.006.072c-.061-.012-.076-.023-.118-.05a.861.861 0 0 1-.136-.116c-.03-.034-.071-.076-.097-.113-.103-.147-.191-.336-.13-.52a.337.337 0 0 1 .15-.185.535.535 0 0 1 .116-.054c.187-.063.353-.035.533.037a.974.974 0 0 1 .21.176c.03.047-.008.087-.05.095z" style="display:inline;fill:#000;fill-opacity:1;stroke:#000;stroke-width:.132292;stroke-miterlimit:4;stroke-dasharray:none;stroke-opacity:1" transform="translate(95.67 -3.592)"/><g style="stroke-width:1.2871"><path d="M81.943 35.46c.266.25.53.502.783.765l.033.037-.133.019-.032-.036c-.25-.265-.516-.515-.784-.762z" style="display:inline;fill:#000;fill-opacity:1;stroke:#000;stroke-width:.170273;stroke-miterlimit:4;stroke-dasharray:none;stroke-opacity:1" transform="matrix(.76945 0 0 .7845 114.545 4.247)"/><path d="M82.32 35.934c-.212.246-.422.493-.636.737a9.46 9.46 0 0 1-.228.249l-.12-.06c.083-.083.162-.172.23-.245.213-.243.423-.489.63-.737z" style="display:inline;fill:#000;fill-opacity:1;stroke:#000;stroke-width:.170273;stroke-miterlimit:4;stroke-dasharray:none;stroke-opacity:1" transform="matrix(.76945 0 0 .7845 114.545 4.247)"/><path d="M81.116 36.337c.148.154.307.297.462.445.09.086.165.164.253.251.078.082.158.163.247.233l-.132.026a4.516 4.516 0 0 1-.245-.238c-.236-.236-.481-.461-.718-.695z" style="display:inline;fill:#000;fill-opacity:1;stroke:#000;stroke-width:.170273;stroke-miterlimit:4;stroke-dasharray:none;stroke-opacity:1" transform="matrix(.76945 0 0 .7845 114.545 4.247)"/></g><g style="stroke-width:1.29315"><path d="M83.01 36.51c.269.264.602.603.864.874l.087.09-.131.02-.086-.09a31.58 31.58 0 0 0-.868-.872z" style="display:inline;fill:#000;fill-opacity:1;stroke:#000;stroke-width:.171073;stroke-miterlimit:4;stroke-dasharray:none;stroke-opacity:1" transform="matrix(.76856 0 0 .77808 114.934 4.671)"/><path d="m83.504 37.023-.037.045c-.087.095-.182.183-.274.273-.165.162-.095.092-.258.26a4.825 4.825 0 0 0-.214.238.652.652 0 0 0-.09.125l-.122-.064c.024-.042.06-.08.091-.118a5.25 5.25 0 0 1 .217-.239c.167-.173.09-.095.258-.262.09-.09.184-.176.27-.269l.035-.043z" style="display:inline;fill:#000;fill-opacity:1;stroke:#000;stroke-width:.171073;stroke-miterlimit:4;stroke-dasharray:none;stroke-opacity:1" transform="matrix(.76856 0 0 .77808 114.934 4.671)"/></g><g style="stroke-width:1.28665"><path d="M84.253 37.645a.961.961 0 0 0-.34.37c-.025.049-.039.102-.057.153-.005.053-.018.105-.015.158.01.174.079.255.226.345.019.012.06.02.079.023a.715.715 0 0 0 .331-.068c.1-.043.21-.118.263-.216.007-.01.008-.024.011-.037l.13.037c-.007.018-.01.038-.017.052a.628.628 0 0 1-.282.244.866.866 0 0 1-.174.063.674.674 0 0 1-.183.021.61.61 0 0 1-.398-.178.485.485 0 0 1-.115-.311c-.003-.057.011-.114.017-.17.02-.056.035-.113.06-.165.07-.14.193-.284.32-.376l.028-.015z" style="fill:#000;fill-opacity:1;stroke:#000;stroke-width:.170213;stroke-miterlimit:4;stroke-dasharray:none;stroke-opacity:1" transform="matrix(.7754 0 0 .77902 114.586 4.874)"/><path d="M84.026 38.652c-.117.116-.237.233-.325.374-.007.014-.009.019-.009.026l-.134-.022a.158.158 0 0 1 .018-.054c.089-.145.211-.264.33-.385z" style="fill:#000;fill-opacity:1;stroke:#000;stroke-width:.170213;stroke-miterlimit:4;stroke-dasharray:none;stroke-opacity:1" transform="matrix(.7754 0 0 .77902 114.586 4.874)"/></g></g><path d="m169.095 22.647 1.593 1.674 1.6-1.675" style="display:inline;fill:none;stroke:#000;stroke-width:.396875;stroke-dasharray:none;stroke-opacity:1"/><path d="M87.781 8.23s.486.08.724.142c.159.04.318.086.468.15.142.062.295.115.43.192.086.049.18.1.232.184a.18.18 0 0 1 .015.154.358.358 0 0 1-.163.181c-.18.097-.376.134-.575.18-.32.076-.711.123-1.007.161-.25.033-.53.015-.742.153-.011.007-.025.019-.023.032.003.02.033.026.05.036.145.084.306.135.456.209.148.073.293.152.437.234a16.097 16.097 0 0 1 .76.465" style="display:inline;fill:none;stroke:red;stroke-width:.396875;stroke-dasharray:none;stroke-opacity:1"/><path d="M51.41-38.783c1.072.718 2.212 1.322 3.362 1.905.65.353.528.275 1.092.619.102.062.203.125.304.19.065.042.116.129.194.129.543.003.042.085-.013-.178-.435-.714-.907-1.407-1.294-2.15-.521-.923-1.035-1.85-1.539-2.781" style="display:inline;fill:none;stroke:red;stroke-width:.608542;stroke-dasharray:none"/><path d="M44.784-47.969c.612.567 1.183 1.272 1.77 1.865.947.957 2.094 2.282 3.23 3.405 1.254 1.225 2.449 2.504 3.635 3.79.742.805 1.5 1.595 2.252 2.39.118.125.23.255.353.376" style="display:inline;fill:none;stroke:red;stroke-width:.608542;stroke-dasharray:none"/><path d="m134.186-30.033-.056 25.545" style="fill:#fff;fill-opacity:.674051;stroke:#f0f;stroke-width:.635;stroke-dasharray:none"/><path d="M86.697 19.255c1.026.365 2.085.622 3.148.861.604.153.49.115 1.022.28.097.029.193.06.288.092.063.02.123.08.186.065.446-.11.053.06-.047-.143-.505-.493-1.035-.96-1.506-1.488a145.11 145.11 0 0 1-1.836-1.952" style="display:inline;fill:none;stroke:red;stroke-width:.608542;stroke-dasharray:none"/><path d="M79.5 13.195c1.092.679 2.394 1.576 3.646 2.313 1.517.88 2.988 1.826 4.454 2.782.916.599 1.845 1.178 2.769 1.765.145.092.286.191.435.278" style="display:inline;fill:none;stroke:red;stroke-width:.608542;stroke-dasharray:none"/><path d="M23.537 30.36c-.019.14-.032.282-.04.424-.006.162-.009.324-.01.486v.087s0 0 0 0c.009.008.017.018.027.023.011.005.168-.01.176-.01.227-.024.454-.02.682-.01.053.002.107.005.16.01.01 0 .057.005.086.01" style="fill:#fff;fill-opacity:.674051;stroke:#000;stroke-width:.396875;stroke-linecap:square;stroke-dasharray:none"/><path d="M24.346 32.113v-.027a40.876 40.876 0 0 0-.026-.931c-.007-.202.01-.52.022-.604" style="fill:#fff;fill-opacity:.674051;stroke:#000;stroke-width:.396875;stroke-linecap:square;stroke-dasharray:none"/><path d="M61.75 68.888a14.24 14.24 0 0 1-.836-.022 2.294 2.294 0 0 1-.336-.048c-.04-.042.004-.156.005-.207.028-.156.13-.542.177-.693" style="fill:none;fill-opacity:.674051;stroke:#000;stroke-width:.44979167;stroke-linecap:square;stroke-dasharray:none"/><path d="m61.457 69.706.005-.171.027-.762c.002-.192.003-.384.022-.574" style="fill:#fff;fill-opacity:.674051;stroke:#000;stroke-width:.44979167;stroke-linecap:square;stroke-dasharray:none"/><path d="M95.28 68.554c-.05.056-.108.103-.164.153-.09.071-.248.169-.276.29-.004.02-.001.042-.002.063.007.02.01.04.02.059.067.137.22.21.348.272.035.012.07.027.106.037a.75.75 0 0 0 .516-.041c.02-.014.042-.026.06-.042.106-.1.059-.236-.002-.347-.066-.098-.07-.11-.15-.203-.13-.153-.282-.284-.408-.44-.079-.102-.233-.293-.223-.435.002-.018.01-.035.014-.053a.366.366 0 0 1 .306-.189c.173.011.291.06.398.205.07.126.118.237.033.37a1.11 1.11 0 0 1-.269.215" style="fill:#fff;fill-opacity:.674051;stroke:#000;stroke-width:.396875;stroke-dasharray:none"/><g style="display:inline"><path d="M83.983-3.784h14.129v3.016H83.983z" style="fill:#fff6d5;fill-opacity:1;stroke:#000;stroke-width:.211667;stroke-dasharray:none;stroke-opacity:1" transform="rotate(32.429 51.408 -6.582)"/><g style="stroke-width:1.29585"><path d="M76.68 30.061c-.058.259-.105.52-.16.779-.05.24-.099.48-.145.72l-.128-.032.147-.72c.054-.26.1-.521.155-.78z" style="display:inline;fill:#000;fill-opacity:1;stroke:#000;stroke-width:.171431;stroke-linecap:butt;stroke-linejoin:miter;stroke-miterlimit:4;stroke-dasharray:none;stroke-dashoffset:0;stroke-opacity:1" transform="matrix(.74503 -.1654 .16911 .76177 15.972 4.577)"/><path d="M76.153 31.533c.184-.056.372-.1.559-.149.265-.072.533-.136.8-.201.097-.023.054-.014.13-.029l.101.088c-.074.011-.032.004-.127.025-.268.064-.536.127-.8.2l-.122.032-.112.03c-.108.029-.218.05-.323.088l-.106-.084z" style="display:inline;fill:#000;fill-opacity:1;stroke:#000;stroke-width:.171431;stroke-linecap:butt;stroke-linejoin:miter;stroke-miterlimit:4;stroke-dasharray:none;stroke-dashoffset:0;stroke-opacity:1" transform="matrix(.74503 -.1654 .16911 .76177 15.972 4.577)"/></g><g style="stroke-width:1.28831"><path d="M77.893 31.519c-.133.157-.287.295-.433.44-.12.118-.11.111-.219.23-.096.118-.052.062-.133.168l-.121-.055c.082-.108.037-.05.136-.171.109-.12.1-.114.22-.233.143-.142.294-.278.426-.432l.124.053z" style="display:inline;fill:#000;fill-opacity:1;stroke:#000;stroke-width:.170433;stroke-linecap:butt;stroke-linejoin:miter;stroke-miterlimit:4;stroke-dasharray:none;stroke-dashoffset:0;stroke-opacity:1" transform="matrix(.75032 -.16657 .1699 .76528 15.807 4.818)"/><path d="M77.8 31.382c.165.136.328.274.492.413.154.132.308.264.451.408l-.131.02a7.79 7.79 0 0 0-.448-.404c-.165-.14-.333-.276-.497-.417l.132-.02zM77.472 31.862c.168.163.346.316.523.471l.062.055-.13.023-.062-.055c-.176-.156-.355-.31-.525-.474l.132-.02zM77.04 32.283c.213.18.428.358.637.543.102.091.204.184.302.28l-.131.02a7.558 7.558 0 0 0-.299-.277 18.39 18.39 0 0 0-.639-.537z" style="display:inline;fill:#000;fill-opacity:1;stroke:#000;stroke-width:.170433;stroke-linecap:butt;stroke-linejoin:miter;stroke-miterlimit:4;stroke-dasharray:none;stroke-dashoffset:0;stroke-opacity:1" transform="matrix(.75032 -.16657 .1699 .76528 15.807 4.818)"/></g><path d="M66.025 62.194a.371.371 0 0 0-.162-.218c-.025-.018-.053-.031-.079-.047-.065-.029-.114-.056-.185-.068-.004-.001-.006.009-.01.01-.033.002-.066-.002-.098 0-.087.008-.097.017-.177.045-.096.047-.18.118-.199.229-.011.074.001.101.016.175a.87.87 0 0 0 .256.392c.078.066.103.072.192.117.032.008.064.022.097.025.007 0 .006-.015.013-.017.032-.01.067-.01.1-.021a.62.62 0 0 0 .196-.114c.028-.025.05-.055.075-.083.016-.03.037-.059.05-.091a.446.446 0 0 0-.022-.36c-.012-.026-.029-.049-.043-.073-.049-.067-.024-.038-.073-.09l.11-.015c.049.06.024.026.073.1.037.07.054.092.074.171a.484.484 0 0 1-.017.305c-.014.035-.036.066-.054.1-.026.03-.05.063-.079.09a.713.713 0 0 1-.206.129c-.035.014-.07.03-.108.03-.135.003-.18-.02-.291-.056-.09-.05-.116-.058-.195-.13a.927.927 0 0 1-.257-.417c-.015-.084-.027-.113-.012-.197a.35.35 0 0 1 .138-.217c.024-.018.052-.031.078-.047.03-.012.058-.026.088-.035a.716.716 0 0 1 .2-.027.94.94 0 0 1 .376.113c.027.017.055.033.08.052a.451.451 0 0 1 .166.243l-.111-.003z" style="display:inline;fill:#000;fill-opacity:1;stroke:#000;stroke-width:.132292;stroke-linecap:butt;stroke-linejoin:miter;stroke-miterlimit:4;stroke-dasharray:none;stroke-dashoffset:0;stroke-opacity:1" transform="rotate(-12.52 -128.097 -34.751)"/><g style="stroke-width:1.30121"><path d="M79.08 32.453c-.1.121-.211.231-.32.345l-.256.274c-.147.158-.227.231-.377.386-.037.04-.018.023-.13-.052.115-.1.158-.14.39-.392l.256-.275c.105-.112.215-.22.313-.34z" style="display:inline;fill:#000;fill-opacity:1;stroke:#000;stroke-width:.17214;stroke-miterlimit:4;stroke-dasharray:none;stroke-opacity:1" transform="matrix(.73699 -.16361 .16955 .76374 17.072 4.81)"/><path d="M78.779 33.961a17.17 17.17 0 0 0-.638-.583l-.132.028c.222.182.432.38.64.578.04.04.083.078.125.116l.135-.019c-.048-.04-.093-.084-.13-.12z" style="display:inline;fill:#000;fill-opacity:1;stroke:#000;stroke-width:.17214;stroke-miterlimit:4;stroke-dasharray:none;stroke-opacity:1" transform="matrix(.73699 -.16361 .16955 .76374 17.072 4.81)"/></g><path d="M67.158 63.375c.105-.018-.133-.156-.173-.17a.84.84 0 0 0-.142-.032.592.592 0 0 0-.354.07c-.032.019-.057.047-.086.07-.017.03-.04.058-.051.091-.054.166.04.347.136.475.026.036.065.08.096.11a.47.47 0 0 0 .147.106l.005.073c-.06-.012-.076-.024-.117-.05a.862.862 0 0 1-.137-.117c-.03-.033-.07-.076-.097-.112-.103-.147-.191-.337-.13-.52a.337.337 0 0 1 .15-.186.534.534 0 0 1 .117-.053c.186-.064.353-.036.532.037a.974.974 0 0 1 .211.176c.029.047-.009.086-.05.094z" style="display:inline;fill:#000;fill-opacity:1;stroke:#000;stroke-width:.132292;stroke-miterlimit:4;stroke-dasharray:none;stroke-opacity:1" transform="rotate(-12.52 -128.097 -34.751)"/><g style="stroke-width:1.2871"><path d="M81.943 35.46c.266.25.53.502.783.765l.033.037-.133.019-.032-.036c-.25-.265-.516-.515-.784-.762z" style="display:inline;fill:#000;fill-opacity:1;stroke:#000;stroke-width:.170273;stroke-miterlimit:4;stroke-dasharray:none;stroke-opacity:1" transform="matrix(.75117 -.16676 .17002 .76585 16.84 5.479)"/><path d="M82.32 35.934c-.212.246-.422.493-.636.737a9.46 9.46 0 0 1-.228.249l-.12-.06c.083-.083.162-.172.23-.245.213-.243.423-.489.63-.737z" style="display:inline;fill:#000;fill-opacity:1;stroke:#000;stroke-width:.170273;stroke-miterlimit:4;stroke-dasharray:none;stroke-opacity:1" transform="matrix(.75117 -.16676 .17002 .76585 16.84 5.479)"/><path d="M81.116 36.337c.148.154.307.297.462.445.09.086.165.164.253.251.078.082.158.163.247.233l-.132.026a4.516 4.516 0 0 1-.245-.238c-.236-.236-.481-.461-.718-.695z" style="display:inline;fill:#000;fill-opacity:1;stroke:#000;stroke-width:.170273;stroke-miterlimit:4;stroke-dasharray:none;stroke-opacity:1" transform="matrix(.75117 -.16676 .17002 .76585 16.84 5.479)"/></g><g style="stroke-width:1.29315"><path d="M83.01 36.51c.269.264.602.603.864.874l.087.09-.131.02-.086-.09a31.58 31.58 0 0 0-.868-.872z" style="display:inline;fill:#000;fill-opacity:1;stroke:#000;stroke-width:.171073;stroke-miterlimit:4;stroke-dasharray:none;stroke-opacity:1" transform="matrix(.7503 -.16657 .16863 .75959 17.31 5.809)"/><path d="m83.504 37.023-.037.045c-.087.095-.182.183-.274.273-.165.162-.095.092-.258.26a4.825 4.825 0 0 0-.214.238.652.652 0 0 0-.09.125l-.122-.064c.024-.042.06-.08.091-.118a5.25 5.25 0 0 1 .217-.239c.167-.173.09-.095.258-.262.09-.09.184-.176.27-.269l.035-.043z" style="display:inline;fill:#000;fill-opacity:1;stroke:#000;stroke-width:.171073;stroke-miterlimit:4;stroke-dasharray:none;stroke-opacity:1" transform="matrix(.7503 -.16657 .16863 .75959 17.31 5.809)"/></g><g style="stroke-width:1.28665"><path d="M84.253 37.645a.961.961 0 0 0-.34.37c-.025.049-.039.102-.057.153-.005.053-.018.105-.015.158.01.174.079.255.226.345.019.012.06.02.079.023a.715.715 0 0 0 .331-.068c.1-.043.21-.118.263-.216.007-.01.008-.024.011-.037l.13.037c-.007.018-.01.038-.017.052a.628.628 0 0 1-.282.244.866.866 0 0 1-.174.063.674.674 0 0 1-.183.021.61.61 0 0 1-.398-.178.485.485 0 0 1-.115-.311c-.003-.057.011-.114.017-.17.02-.056.035-.113.06-.165.07-.14.193-.284.32-.376l.028-.015z" style="fill:#000;fill-opacity:1;stroke:#000;stroke-width:.170213;stroke-miterlimit:4;stroke-dasharray:none;stroke-opacity:1" transform="matrix(.75698 -.16805 .16883 .7605 17.015 6.083)"/><path d="M84.026 38.652c-.117.116-.237.233-.325.374-.007.014-.009.019-.009.026l-.134-.022a.158.158 0 0 1 .018-.054c.089-.145.211-.264.33-.385z" style="fill:#000;fill-opacity:1;stroke:#000;stroke-width:.170213;stroke-miterlimit:4;stroke-dasharray:none;stroke-opacity:1" transform="matrix(.75698 -.16805 .16883 .7605 17.015 6.083)"/></g></g><path d="m76.763 14.067.428-.747.373.286.167-.286.69.405-.595.913z" style="fill:#fff6d5;fill-opacity:1;stroke:none;stroke-width:.396875;stroke-linecap:butt;stroke-dasharray:none"/><path d="m76.117 13.181 1.582.956.94-1.549" style="fill:none;fill-opacity:.674051;stroke:#000;stroke-width:.396875;stroke-linecap:butt;stroke-dasharray:none"/></g></svg>