<svg xmlns="http://www.w3.org/2000/svg" xmlns:xlink="http://www.w3.org/1999/xlink" width="600" height="320"><defs><symbol id="a" overflow="visible" style="overflow:visible"><path d="m4.734-1.36-.125-.062c-.375.578-.5.672-.953.672H1.281l1.672-1.766c.89-.921 1.281-1.687 1.281-2.453 0-1-.812-1.765-1.859-1.765-.547 0-1.063.218-1.422.609-.328.344-.469.656-.64 1.375l.203.047C.922-5.687 1.28-6 1.969-6c.828 0 1.406.563 1.406 1.406 0 .782-.469 1.703-1.297 2.594L.297-.125V0h3.89Zm0 0" style="stroke:none"/></symbol><symbol id="b" overflow="visible" style="overflow:visible"><path d="M6.563-2.297c.171 0 .359 0 .359-.203 0-.188-.188-.188-.36-.188h-5.39c-.172 0-.344 0-.344.188 0 .203.172.203.344.203zm0 0" style="stroke:none"/></symbol><symbol id="c" overflow="visible" style="overflow:visible"><path d="M4-1.11c-.078.094-.125.157-.219.266-.219.313-.344.406-.453.406-.14 0-.234-.124-.312-.406-.016-.078-.032-.14-.032-.172-.25-1.015-.359-1.468-.359-1.609.438-.781.797-1.219.969-1.219.062 0 .14.031.25.078.11.079.187.094.265.094.204 0 .344-.14.344-.36 0-.202-.172-.359-.406-.359-.438 0-.813.36-1.5 1.422l-.11-.547c-.14-.687-.25-.875-.53-.875-.22 0-.548.079-1.157.282l-.11.046.032.141c.39-.078.469-.11.562-.11.25 0 .313.095.454.688l.28 1.235-.812 1.156C.953-.641.75-.47.641-.47a.554.554 0 0 1-.25-.094.755.755 0 0 0-.329-.093c-.187 0-.328.14-.328.344 0 .265.204.421.5.421.297 0 .422-.093.922-.703.266-.312.485-.578.89-1.156L2.36-.562c.125.515.25.671.579.671.374 0 .624-.234 1.203-1.14zm0 0" style="stroke:none"/></symbol><symbol id="d" overflow="visible"><path d="M4.64-1.172c-.546.688-.656.797-.827.797-.079 0-.157-.094-.157-.188 0-.093.156-.718.328-1.234.297-.953.485-1.687.485-1.937 0-.391-.266-.657-.657-.657-.656 0-1.359.657-2.28 2.094l1.187-4.469-.047-.046c-.578.14-.969.203-1.563.265v.156h.25c.016 0 .032 0 .032-.015.14-.047.39.11.39.25s-.062.39-.14.687c-.016 0-.047.14-.11.36L.188 0h.75c.39-1.531.53-1.875.921-2.484.516-.782 1.204-1.407 1.547-1.407.156 0 .281.125.281.25 0 .047-.03.172-.062.329L3.078-1.25c-.14.5-.203.797-.203.922 0 .266.172.422.438.422.5 0 .859-.266 1.453-1.14zm0 0" style="stroke:none"/></symbol><symbol id="g" overflow="visible"><path d="M4-1.11c-.078.094-.125.157-.219.266-.219.313-.344.406-.453.406-.14 0-.234-.124-.312-.406-.016-.078-.032-.14-.032-.172-.25-1.015-.359-1.468-.359-1.609.438-.781.797-1.219.969-1.219.062 0 .14.031.25.078.11.079.187.094.265.094.204 0 .344-.14.344-.36 0-.202-.172-.359-.406-.359-.438 0-.813.36-1.5 1.422l-.11-.547c-.14-.687-.25-.875-.53-.875-.22 0-.548.079-1.157.282l-.11.046.032.141c.39-.078.469-.11.562-.11.25 0 .313.095.454.688l.28 1.235-.812 1.156C.953-.641.75-.47.641-.47a.554.554 0 0 1-.25-.094.755.755 0 0 0-.329-.093c-.187 0-.328.14-.328.344 0 .265.204.421.5.421.297 0 .422-.093.922-.703.266-.312.485-.578.89-1.156L2.36-.562c.125.515.25.671.579.671.374 0 .624-.234 1.203-1.14zm0 0" style="stroke:none"/></symbol><symbol id="f" overflow="visible"><path d="M3.297 2.39c0-.03 0-.046-.172-.218C1.891.922 1.562-.968 1.562-2.5c0-1.734.375-3.469 1.61-4.703.125-.125.125-.14.125-.172 0-.078-.031-.11-.094-.11-.11 0-1 .688-1.594 1.954C1.11-4.438.984-3.328.984-2.5c0 .781.11 1.984.657 3.125C2.25 1.844 3.094 2.5 3.203 2.5c.063 0 .094-.031.094-.11zm0 0" style="stroke:none"/></symbol><symbol id="h" overflow="visible"><path d="M2.875-2.5c0-.766-.11-1.969-.656-3.11C1.625-6.827.766-7.483.672-7.483a.107.107 0 0 0-.11.109c0 .031 0 .047.188.234.984.985 1.547 2.563 1.547 4.641 0 1.719-.36 3.469-1.594 4.719-.14.125-.14.14-.14.172 0 .062.046.109.109.109.094 0 1-.688 1.578-1.953.516-1.094.625-2.203.625-3.047Zm0 0" style="stroke:none"/></symbol><symbol id="e" overflow="visible"><path d="M1.86-3.5c.046-.094.077-.156.077-.234 0-.22-.203-.391-.421-.391-.204 0-.344.14-.391.328L.25-.562c0 .015-.031.093-.031.093 0 .078.187.14.25.14.047 0 .047-.03.094-.124zm0 0" style="stroke:none"/></symbol></defs><path d="M-88.897 68.034c0 1-.813 1.813-1.813 1.813a1.811 1.811 0 0 1-1.812-1.813 1.812 1.812 0 1 1 3.625 0zM92.524-68.032a1.814 1.814 0 1 1-3.627-.003 1.814 1.814 0 0 1 3.627.003zM92.524 68.034a1.814 1.814 0 1 1-3.627-.002 1.814 1.814 0 0 1 3.627.002zm0 0" style="fill:none;stroke:red;stroke-width:.79701;stroke-linecap:butt;stroke-linejoin:miter;stroke-miterlimit:10;stroke-opacity:1" transform="matrix(1 0 0 -1 565.947 -571.907)"/><path d="M-88.897 68.034c0 1-.813 1.813-1.813 1.813a1.811 1.811 0 0 1-1.812-1.813 1.812 1.812 0 1 1 3.625 0zM92.524-68.032a1.814 1.814 0 1 1-3.627-.003 1.814 1.814 0 0 1 3.627.003zM92.524 68.034a1.814 1.814 0 1 1-3.627-.002 1.814 1.814 0 0 1 3.627.002zm0 0" style="fill:none;stroke:red;stroke-width:.79701;stroke-linecap:butt;stroke-linejoin:miter;stroke-miterlimit:10;stroke-opacity:1" transform="matrix(1 0 0 -1 777.145 -571.907)"/><path d="M-88.897 68.034c0 1-.813 1.813-1.813 1.813a1.811 1.811 0 0 1-1.812-1.813 1.812 1.812 0 1 1 3.625 0zM92.524-68.032a1.814 1.814 0 1 1-3.627-.003 1.814 1.814 0 0 1 3.627.003zM92.524 68.034a1.814 1.814 0 1 1-3.627-.002 1.814 1.814 0 0 1 3.627.002zm0 0" style="fill:none;stroke:red;stroke-width:.79701;stroke-linecap:butt;stroke-linejoin:miter;stroke-miterlimit:10;stroke-opacity:1" transform="matrix(1 0 0 -1 -1821.846 -1226.526)"/><path d="M-88.897 68.034c0 1-.813 1.813-1.813 1.813a1.811 1.811 0 0 1-1.812-1.813 1.812 1.812 0 1 1 3.625 0zM92.524-68.032a1.814 1.814 0 1 1-3.627-.003 1.814 1.814 0 0 1 3.627.003zM92.524 68.034a1.814 1.814 0 1 1-3.627-.002 1.814 1.814 0 0 1 3.627.002zm0 0" style="fill:none;stroke:red;stroke-width:.79701;stroke-linecap:butt;stroke-linejoin:miter;stroke-miterlimit:10;stroke-opacity:1" transform="matrix(1 0 0 -1 -1610.65 -1226.526)"/><path d="M92.524-68.032a1.814 1.814 0 1 1-3.627-.003 1.814 1.814 0 0 1 3.627.003zm0 0" style="fill:none;stroke:red;stroke-width:.79701;stroke-linecap:butt;stroke-linejoin:miter;stroke-miterlimit:10;stroke-opacity:1" transform="matrix(1 0 0 -1 -1176.5 388.379)"/><path d="M92.524-68.032a1.814 1.814 0 1 1-3.627-.003 1.814 1.814 0 0 1 3.627.003zm0 0" style="fill:none;stroke:red;stroke-width:.79701;stroke-linecap:butt;stroke-linejoin:miter;stroke-miterlimit:10;stroke-opacity:1" transform="matrix(1 0 0 -1 -965.303 388.379)"/><g style="display:inline"><path d="M245.565 256.831c.304 2.785-.293 4.232-2.114 5.36-.446.276-.93.45-1.394.675-.517.106-1.027.288-1.55.319-6.894.415-3.546-11.332.368-12.278.354-.051.71.046 1.066.068.322.169.67.275.966.505.973.758 1.598 2.156 1.944 3.472.134.506.322 1.027.286 1.558-.156 1.952-.561 3.471-1.395 4.889-1.43 1.753-3.774 2.122-5.677 1.911-.545-.06-1.077-.23-1.615-.345-1.117-.601-1.734-.72-2.51-1.955-1.108-1.761-.696-2.973-.176-5.292.128-.572.424-1.073.717-1.544.292-.47.68-.833 1.02-1.25.387-.294.756-.628 1.16-.882 1.447-.905 3.122-1.258 4.72-.85.205.053.39.19.585.285-7.816 22.663-4.966-4.067 3.599 5.354zM360.903 269.802c-.087.513-.387.958-.683 1.345-1.409 1.843-3.729 1.8-5.623 1.614-1.545-.424-3.117-.802-4.34-2.11-.34-.364-.817-.717-.876-1.255-.297-2.706.066-3 .968-4.628.3-.332.574-.697.898-.995 1.55-1.428 3.702-2.457 5.66-2.627.485-.043.971.024 1.457.036 1.388.423 2.566.766 3.502 2.214 1.343 2.077.567 4.742-.623 6.649-.392.42-.742.904-1.176 1.261-1.738 1.43-4.666 2.268-6.737 1.557-.513-.176-.953-.57-1.43-.856-.274-.467-.787-.833-.821-1.4-2.72-7.491 10.006-3.698 9.824-.805z" style="opacity:1;fill:#0ff;fill-opacity:1;stroke:none;stroke-width:.089268;stroke-linecap:butt;stroke-linejoin:miter;stroke-miterlimit:4;stroke-dasharray:none;stroke-dashoffset:0;stroke-opacity:1"/><path d="M221.533 196.708c1.636-.104 3.272-.204 4.91-.227.712.007 1.425.052 2.138.208l-.12 13.275c-.702-.271-1.403-.346-2.105-.372-1.592.02-3.187.021-4.775.51l-.048-13.394z" style="display:inline;opacity:1;fill:#0ff;fill-opacity:1;stroke:none;stroke-width:.089268;stroke-linecap:butt;stroke-linejoin:miter;stroke-miterlimit:4;stroke-dasharray:none;stroke-dashoffset:0;stroke-opacity:1"/><path d="M250.506 196.211c1.464.764 2.942.724 4.419.566.616-.112 1.225-.042 1.834-.657l-.035 13.147c-.68.42-1.357.546-2.04.576-1.468.138-2.935.192-4.391-.458l.213-13.175zM335.514 196.38c1.433.472 2.87.391 4.302.298 1.104.037.574.1 1.592-.147l-.148 12.94c-1.053.175-.515.136-1.617.102-1.464.08-2.931.165-4.396-.228l.267-12.967zM369.673 196.904c2.147.002 4.291-.387 6.44-.375l-.193 12.812c-2.169-.01-4.33.421-6.497.468l.25-12.905z" style="opacity:1;fill:#0ff;fill-opacity:1;stroke:none;stroke-width:.089268;stroke-linecap:butt;stroke-linejoin:miter;stroke-miterlimit:4;stroke-dasharray:none;stroke-dashoffset:0;stroke-opacity:1"/><path d="M237.782 152.526c.269 1.548.295 3.245 1.02 4.668.12.236.3.431.451.646.167.108.31.28.5.324 1.315.306 2.725-2.43 3.248-3.337.545-1.135.386-.752.797-1.773.225-.561.28-1.246.56.58.037.24-.08.477-.12.715-.11 2.123.222 4.258.152 6.38-.016.489-.088.973-.132 1.46-.172.632-.26 1.298-.516 1.895-.514 1.199-1.747 2.228-3 2.304-1.076.066-1.343-.304-2.207-.875-.988-1.332-.616-.613-1.141-2.143l.557-.637c.361 1.39.076.733.877 1.963.696.514.929.868 1.834.815 1.503-.087 2.364-1.535 2.916-2.846.056-.47.144-.936.168-1.41.024-.503-.01-1.008-.024-1.512-.066-2.027-.284-4.065-.013-6.08.175-.842-.025-1.017.76-.387.024.02-.03.057-.044.087-.062.146-.118.294-.18.44-.426 1.003-.296.695-.851 1.802-.756 1.266-2.149 3.85-3.919 3.388-.243-.064-.435-.272-.653-.407-.184-.243-.402-.46-.551-.727-.77-1.386-.855-3.18-1.085-4.726l.595-.607z" style="opacity:1;fill:#000;fill-opacity:1;stroke:#000;stroke-width:.0714144;stroke-linecap:butt;stroke-linejoin:miter;stroke-miterlimit:4;stroke-dasharray:none;stroke-dashoffset:0;stroke-opacity:1"/><path d="M139.59 89.866c.428-.263 1.252-.756 1.772-.703.093.01.178.06.267.089.299.184.51.636.895.662.054.004.107-.017.16-.025a1.98 1.98 0 0 0 .733-.705l.216.45c-.257.325-.555.634-.963.752-.087.004-.174.023-.26.013-.394-.048-.681-.388-.921-.67-.046-.023-.086-.064-.137-.07-.456-.048-1.25.44-1.62.684l-.143-.477zM139.52 91.387c.52-.203 1.02-.57 1.595-.57.066.025.134.045.198.074.117.055.215.137.328.199.215.115.432.168.67.214.377.066.758-.04.999-.348.093-.632-.262.998.055-.284l.243.436c.143-.819.079.156-.12.314a1.46 1.46 0 0 1-1.269.37c-.419-.08-.798-.223-1.144-.478-.516-.004-.98.39-1.447.559l-.108-.486z" style="opacity:1;fill:#000;fill-opacity:1;stroke:#000;stroke-width:.04;stroke-linecap:butt;stroke-linejoin:miter;stroke-miterlimit:4;stroke-dasharray:none;stroke-dashoffset:0;stroke-opacity:1" transform="matrix(1.78536 0 0 1.78536 .013 -6.909)"/></g><g style="display:inline"><path d="M401.221 159.4V64.55M401.221 307.47V179.21M350.61 307.47V64.55M300 307.47V64.55M249.39 307.47V64.55M198.778 159.421V64.55M198.778 307.47V179.232M294.887 84.795H421.46M178.54 84.795h101.509M178.54 135.4h242.92M178.54 186.01h242.92M178.54 236.62h242.92M294.886 287.231H421.46M178.54 287.231h88.57" style="fill:none;stroke:#9e9ed1;stroke-width:.355733;stroke-linecap:butt;stroke-linejoin:miter;stroke-miterlimit:10;stroke-opacity:1"/><path d="M178.54 186.01h242.92M300 307.47V55.922" style="fill:none;stroke:#000;stroke-width:.711466;stroke-linecap:butt;stroke-linejoin:miter;stroke-miterlimit:10;stroke-opacity:1"/><use xlink:href="#a" width="100%" height="100%" x="347.363" y="569.809" style="fill:#b0b0d9;fill-opacity:1" transform="matrix(1.78536 0 0 1.78536 -223.396 -841.729)"/><use xlink:href="#b" width="100%" height="100%" x="230.105" y="569.396" style="fill:#b0b0d9;fill-opacity:1" transform="matrix(1.78536 0 0 1.78536 -223.396 -841.005)"/><use xlink:href="#a" width="100%" height="100%" x="237.905" y="569.396" style="fill:#b0b0d9;fill-opacity:1" transform="matrix(1.78536 0 0 1.78536 -223.396 -841.005)"/><use xlink:href="#a" width="100%" height="100%" x="284.15" y="522.187" style="fill:#b0b0d9;fill-opacity:1" transform="matrix(1.78536 0 0 1.78536 -223.849 -842.07)"/><use xlink:href="#b" width="100%" height="100%" x="276.027" y="635.161" style="fill:#b0b0d9;fill-opacity:1" transform="matrix(1.78536 0 0 1.78536 -223.208 -841.548)"/><use xlink:href="#a" width="100%" height="100%" x="283.827" y="635.161" style="fill:#b0b0d9;fill-opacity:1" transform="matrix(1.78536 0 0 1.78536 -223.208 -841.548)"/><path d="M421.46 186.01h10.12" style="fill:none;stroke:#000;stroke-width:.711466;stroke-linecap:butt;stroke-linejoin:miter;stroke-miterlimit:10;stroke-opacity:1"/><path d="M431.405 186.01h-.976" style="fill:none;stroke:#000;stroke-width:1.24509;stroke-linecap:butt;stroke-linejoin:miter;stroke-miterlimit:10;stroke-opacity:1"/><path d="M427.82 182.53c.217 1.304 2.609 3.264 3.264 3.48-.655.223-3.047 2.183-3.264 3.487M296.513 58.625c1.304-.216 3.27-2.616 3.487-3.271.216.655 2.176 3.055 3.487 3.27" style="fill:none;stroke:#000;stroke-width:.996052;stroke-linecap:round;stroke-linejoin:round;stroke-miterlimit:10;stroke-opacity:1"/><use xlink:href="#c" width="100%" height="100%" x="378.808" y="577.658" style="fill:#000;fill-opacity:1" transform="translate(-295.65 -950.72) scale(1.97505)"/><path d="M178.54 202.866h43.622l.251.049h.258l.252.055h.25l.252.049.258.049.502.097.258.105.25.049.252.153.258.098.251.153.753.607.258.307.252.3.258.355.25.405.252.453.25.51.252.557.258.656.25.711.252.76.258.858.251.914.251 1.01.251 1.061.258 1.165.251 1.213.251 1.318.258 1.367.251 1.465.251 1.52.259 1.57.25 1.617.252 1.674.25 1.723.259 1.764.25 1.771.252 1.828.258 1.771.251 1.82.251 1.772.251 1.722.258 1.716.251 1.674.251 1.618.251 1.52.259 1.465.25 1.366.252 1.319.258 1.213.25 1.06.252 1.018.25.858.259.76.251.656.251.607.258.453.251.356.251.258.251.146.258.105.251.048h.51l.25-.097.252-.203.258-.258.25-.3.252-.46.25-.55.259-.663.251-.76.251-.858.251-.963.258-1.116.251-1.157.251-1.27.258-1.367.251-1.464.252-1.52.257-1.618.252-1.625.25-1.716.252-1.771.258-1.772.25-1.771.252-1.82.251-1.772.258-1.771.251-1.772.251-1.722.258-1.723.251-1.618.502-3.138.258-1.416.251-1.416.252-1.318.258-1.213.25-1.165.252-1.116.25-1.011.259-.907.25-.864.252-.76.258-.705.251-.663.251-.55.251-.558.258-.454.251-.404.251-.356.251-.307.258-.3.251-.258.258-.202.251-.153.252-.147.25-.153.259-.105.25-.097.252-.105.25-.049.259-.048.502-.098h.251l.258-.056h.251l.251-.048h79.61l.257.048h.251l.251.056h.252l.258.049h.25l.252.048.258.049.25.105.252.048.251.098.258.104.251.098.251.105.258.153.502.405.258.202.251.25.251.308.251.3.258.404.252.405.25.46.252.453.258.558.25.607.252.655.25.76.259.76.251.859.251.913.258.963.251 1.06.251 1.116.258 1.213.251 1.262.252 1.318.25 1.416.259 1.472.25 1.513.252 1.57.258 1.624.25 1.716.252 1.722.251 1.772.258 1.771.502 3.64.251 1.877.258 1.82.251 1.876.251 1.82.258 1.82.251 1.772.251 1.722.252 1.667.258 1.674.25 1.57.252 1.464.258 1.471.25 1.311.252 1.27.251 1.213.258 1.06.251 1.018.251.907.258.81.251.662.251.655.251.51.259.404.25.348.252.259.25.202.259.097.25.05h.51l.251-.05.251-.097.251-.202.258-.259.251-.348.258-.405.251-.509.251-.655.251-.663.251-.809.259-.907.25-1.018.252-1.06.258-1.213.25-1.27.252-1.31.258-1.472.251-1.465.251-1.569.251-1.674.258-1.667.251-1.722.251-1.772.258-1.82.251-1.82.251-1.876.252-1.82.257-1.876.503-3.64.258-1.772.25-1.772.252-1.722.25-1.716.259-1.625.25-1.569.252-1.513.251-1.472.258-1.416.251-1.318.251-1.262.258-1.213.251-1.116.252-1.06.25-.963.259-.913.25-.858.252-.76.258-.76.25-.656.252-.607.258-.558.251-.453.251-.46.251-.405.258-.404.251-.3.251-.307.251-.251.258-.202.502-.405.258-.153.252-.105.25-.098.259-.104.25-.098.252-.048.25-.105.259-.049.251-.048h.251l.251-.049h.258l.251-.056h.251l.258-.048h46.05" style="fill:none;stroke:red;stroke-width:1.42295;stroke-linecap:butt;stroke-linejoin:miter;stroke-miterlimit:10;stroke-opacity:1"/><g style="fill:#000;fill-opacity:1" transform="matrix(1.99088 0 0 1.99088 -449.83 -1225.39)"><use xlink:href="#d" width="100%" height="100%" x="365.856" y="630.807" style="fill:#000"/></g><g style="fill:#000;fill-opacity:1" transform="matrix(1.99088 0 0 1.99088 -449.83 -1225.39)"><use xlink:href="#e" width="100%" height="100%" x="370.896" y="627.207" style="fill:#000"/></g><g style="fill:#000;fill-opacity:1" transform="matrix(1.99088 0 0 1.99088 -449.83 -1225.39)"><use xlink:href="#e" width="100%" height="100%" x="372.936" y="627.207" style="fill:#000"/></g><g style="fill:#000;fill-opacity:1" transform="matrix(1.99088 0 0 1.99088 -449.83 -1225.39)"><use xlink:href="#f" width="100%" height="100%" x="375.336" y="630.807" style="fill:#000"/></g><g style="fill:#000;fill-opacity:1" transform="matrix(1.99088 0 0 1.99088 -449.83 -1225.39)"><use xlink:href="#g" width="100%" height="100%" x="379.176" y="630.807" style="fill:#000"/></g><g style="fill:#000;fill-opacity:1" transform="matrix(1.99088 0 0 1.99088 -449.83 -1225.39)"><use xlink:href="#h" width="100%" height="100%" x="383.615" y="630.807" style="fill:#000"/></g><path d="M729.787 332.98c-.387 1.51-.885 3.03-.816 4.606.022.479.004.963.088 1.435.067.386.24.746.36 1.12.214.224.37.525.644.673.579.314 1.374.027 1.871-.24 1.425-.766 2.153-1.934 2.995-3.242.337-.815.635-1.306.687-2.173.005-.103-.141.173-.142.277 0 .074.112.104.14.173.533 1.275-.132-.034.225.65.108 3.091 1.376 5.967 2.178 8.915.15.556.266 1.12.399 1.68.079 1.14.304 2.112-.424 3.184-.24.352-.707.515-1.122.611-1.753.406-3.674-.541-5.231-1.182-1.78-1.034-.991-.486-2.4-1.597l.448-.986c1.307 1.08.568.547 2.252 1.553 1.363.569 3.196 1.513 4.742 1.145.298-.071.519-.327.779-.49.08-.049.226-.053.24-.146.063-.433-.017-.874-.024-1.311-.124-.553-.226-1.111-.371-1.66-.796-3.004-2.1-5.909-2.316-9.042.07-.606.033-1.236.212-1.82.078-.253.281-.501.53-.594.184-.068.5.001.558.19.31.993-.518 2.773-.937 3.614-.307.443-.577.914-.92 1.33-1.013 1.223-3.12 3.042-4.87 2.123-.345-.181-.563-.54-.844-.811-.153-.407-.366-.795-.459-1.22-.519-2.373.351-5.375.969-7.703l.559.938z" style="opacity:1;fill:#000;fill-opacity:1;stroke:#000;stroke-width:.142829;stroke-linecap:butt;stroke-linejoin:miter;stroke-miterlimit:10;stroke-dasharray:none;stroke-dashoffset:0;stroke-opacity:1"/><path d="M739.54 334.842c2.964.168 5.934.224 8.902.237.103 0 .206 0 .309-.004l-.096 1.09c-.104 0-.208 0-.312-.004-2.98-.04-5.96-.09-8.937-.24l.134-1.08zM740.324 337.477c2.527-.193 5.065-.213 7.598-.233.435.001.87-.007 1.306.001l-.114 1.091c-.427-.02-.855-.005-1.283-.012-2.515.01-5.035.03-7.542.244l.035-1.091zM754.717 336.215c2.189.041 4.379-.005 6.567-.049.126-.004.252-.005.377-.009l-.085 1.09c-.126.002-.252.005-.378.005-2.21.03-4.42.078-6.63.043l.149-1.081zM770.461 324.797c-.007 2.63-.005 5.262-.004 7.893.001.897.018.502-.028 1.186l-.88.647c.125-.628.075-.252.077-1.136.004-2.63.004-5.26-.004-7.889l.836-.701zM766.418 336.104c2.963-.335 5.909-.834 8.89-.968.861.077.506-.018 1.086.194l-.31 1.05c-.38-.202-.115-.091-.846-.164-2.971.127-5.906.629-8.855.98l.035-1.092zM768.442 339.54c.997-.835 2.301-1.557 3.634-1.619.277-.012.553.046.83.07.233.073.479.114.699.22 1.05.508 1.069 1.388.619 2.483-.174.422-1.317 1.3-1.628 1.559-.288.189-.57.388-.865.566-.409.247-2.134 1.358-.842-.614.102-.156.372-.02.558-.03.982.095 2.026.535 2.482 1.48.092.191.182.407.157.617-.055.48-.26.932-.39 1.397-.562.39-.88.705-1.606.792-1.212.145-2.613-.223-3.674-.802-.24-.131-.44-.327-.659-.49l-.341-.431.592-.918.195.356c.175.148.326.329.523.444.917.536 2.205.9 3.271.758.62-.083.778-.312 1.192-.675.035.106.028.4.104.32.106-.113.066-.313.03-.462-.209-.843-1.18-1.217-1.938-1.296-.828.058-.483.189-.893-.993-.005-.015.032-.005.047-.011.109-.045.219-.088.323-.142.219-.113.437-.23.645-.36.275-.174.535-.367.802-.55.267-.237.556-.45.8-.71.206-.223.298-.55.542-.73.072-.053.137.295.161.21.148-.517-.736-.836-1.047-.909-.23-.02-.458-.073-.689-.06-1.23.069-2.416.77-3.304 1.574l-.33-1.044z" style="opacity:1;fill:#000;fill-opacity:1;stroke:#000;stroke-width:0;stroke-linecap:butt;stroke-linejoin:miter;stroke-miterlimit:10;stroke-dasharray:none;stroke-dashoffset:0;stroke-opacity:1"/><path d="M160.297 137.853c.012-.05.037-.202.035-.15-.013.586-.087.182-.047.819.033.533.154.863.384 1.334.384.473.725.648 1.254.24.127-.097.25-.204.347-.332.119-.156.195-.34.293-.51.389-.813.134-.25.437-.985.144-.348.239-.532.598-.038.097.133.113.31.17.464.394 1.184.78 2.394.576 3.662-.076.475-.168.959-.369 1.397-.123.269-.385.449-.578.673-.706.16-.819.312-1.501-.002-.196-.09-.347-.257-.52-.386l.25-.553c.624.539.72.626 1.56.374.262-.342.605-.681.688-1.131.236-1.29-.1-2.37-.5-3.57-.165-.47-.284-.374.026-.638.007-.006.006.018.002.027-.033.086-.073.17-.11.254-.276.635-.128.32-.484 1.007-.125.18-.227.377-.373.54-.455.507-1.179.783-1.775.347-.134-.097-.234-.233-.351-.35-.083-.15-.181-.29-.248-.448-.347-.82-.278-1.702-.11-2.552l.346.506zM166.284 138.278c.318-.285.79-.884 1.242-.924.094-.008.187.028.28.041.594.315.806.996 1.278 1.442.035-.009.079-.002.106-.026.047-.043.069-.107.1-.162.24-.414.42-.842.56-1.3l.038-.126.317.525-.042.127c-.17.471-.485 1.419-1.032 1.546-.103.024-.21-.022-.315-.034-.073-.062-.153-.117-.219-.188-.343-.37-.518-.868-.9-1.2-.04-.012-.077-.04-.117-.035-.366.051-.821.633-1.07.884l-.226-.57z" style="opacity:1;fill:#000;fill-opacity:1;stroke:#000;stroke-width:0;stroke-linecap:butt;stroke-linejoin:miter;stroke-miterlimit:10;stroke-dasharray:none;stroke-dashoffset:0;stroke-opacity:1" transform="matrix(1.78536 0 0 1.78536 -81.29 137.568)"/><path d="M166.592 139.816c.288-.343.562-.737 1.008-.874.472.036.5.438.607.817.117.318.31.71.686.747.042-.024.089-.041.126-.073.209-.179.363-.438.541-.646.13-.15.259-.274.4-.414.097-.011.184-.299.256-.353.028-.021.066-.022.099-.032l.085.609c.02-.004.06-.034.06-.013-.002.073-.297.314-.315.372-.183.19-.194.196-.372.404-.206.24-.407.547-.705.684-.085.04-.182.045-.273.067-.083-.015-.17-.017-.248-.044-.366-.128-.596-.522-.745-.85-.196-.597.026.113-.109-.409-.013-.049-.045-.093-.05-.143-.002-.024.029-.04.031-.064.002-.017-.03-.027-.023-.048-.365.16-.58.547-.834.834l-.225-.57zM172.76 138.192c.95-.115 1.908-.12 2.86-.2.132-.012.264-.03.396-.037.004 0 .565-.021.563.098-.011.615.024.563-.29.614l-.007-.614c.215-.077-.046.003-.022.526.002.028.113.02.086.01-.093-.03-.285-.028-.356-.024-.133.006-.265.023-.397.035-.942.076-1.89.08-2.825.205l-.007-.613zM180.986 132.43c-.149 1.145-.118 2.297-.049 3.446-.014.3.069.602.06.9 0 .006-.012-.006-.016-.002-.15.111-.294.229-.441.343l.475-.39c-.148.169-.284.349-.444.506-.05.048-.037-.134-.041-.203-.017-.25-.03-.499-.047-.748-.073-1.163-.122-2.326.01-3.488l.493-.363zM178.795 138.038c1.161-.13 2.334-.122 3.5-.13.33.058.779-.055 1.114.002.048.008.133.007.137.057.015.207-.059.411-.088.617l-.166-.592c.002.179-.016.359.004.536.002.019.074-.006.055-.008-.367-.029-.74.016-1.106-.007-1.151.006-2.309-.002-3.453.138l.003-.613zM179.211 139.828a5.503 5.503 0 0 1 1.633-.494c.13-.02.26-.046.392-.048.117 0 .232.028.348.042.095.037.198.058.286.112.535.328.437.945.24 1.455-.044.112-.15.189-.226.284-.433.406-1.028.735-1.632.566-.052-.044-.165-.066-.155-.133.03-.203.12-.407.256-.562.054-.06.163-.012.244-.006.366.033.663.207.973.387.69.54 1.042 1.11.455 1.95-.081.117-.244.145-.366.217a2.894 2.894 0 0 1-2.598-.536c-.093-.076-.166-.175-.25-.262l-.109-.221.406-.459.003.148c.062.077.11.165.184.232.602.55 1.47.726 2.242.5l.247-.18c.018.069-.016.224.053.207.08-.02.072-.155.07-.237-.008-.337-.328-.59-.55-.787-.274-.17-.298-.21-.597-.305a1.257 1.257 0 0 0-.21-.042c-.034-.005-.101.034-.102 0-.004-.16.105-.314.09-.474-.006-.047-.094-.022-.14-.034.436.17.976-.238 1.253-.535.48-.798-.062-.007.166-.054.218-.045-.196-.787-.324-.628-.09-.011-.181-.037-.273-.035-.648.011-1.34.267-1.92.538l-.089-.607z" style="opacity:1;fill:#000;fill-opacity:1;stroke:#000;stroke-width:0;stroke-linecap:butt;stroke-linejoin:miter;stroke-miterlimit:10;stroke-dasharray:none;stroke-dashoffset:0;stroke-opacity:1" transform="matrix(1.78536 0 0 1.78536 -81.29 137.568)"/><path d="M260.244 63.534c.076.86-.315 1.84.04 2.665.071.168.21.298.315.447.147.065.282.175.442.196.61.078 1.144-.498 1.45-.94.275-.398.417-.822.594-1.266.05-.168.099-.337.152-.504.091-.285.22-.694.608-.307.135.133.32.88.347.968.337 1.572.682 3.186.636 4.805-.009.311-.059.62-.088.929-.119.396-.174.818-.356 1.19-.366.748-1.317 1.156-2.107 1.131-.762-.024-1.098-.265-1.762-.579-.803-.611-.458-.286-1.055-.952l.3-.528c.521.633.216.323.94.906.585.289.908.526 1.584.55 1 .033 1.539-.548 1.973-1.357.038-.299.1-.596.116-.897.016-.333-.002-.667-.021-1-.07-1.264-.29-2.515-.568-3.748-.05-.19-.098-.38-.151-.568-.03-.108-.116-.21-.099-.322.009-.06.1-.082.161-.09.027-.004-.026.048-.036.074-.102.275-.179.558-.284.831-.096.216-.176.439-.286.647-.418.79-1.193 1.784-2.226 1.608-.21-.035-.388-.173-.582-.26-.137-.173-.31-.322-.41-.519-.379-.743-.137-1.866-.056-2.671l.43-.439zM267.569 64.766c.344-.269.937-.99 1.417-.89.23.048.412.26.571.409.084.075.153.17.251.225.53.293 1.07-.031 1.372-.473.062-.092.1-.197.15-.296.065-.178.092-.116.044-.196l.342.51c-.073.118-.026.04-.131.241-.072.107-.131.224-.217.32-.47.53-1.154.791-1.824.444-.105-.054-.178-.155-.267-.232l-.21-.219c-.037-.04-.058-.103-.109-.122-.265-.099-1.01.706-1.223.866l-.166-.587zM267.47 66.673c.569-.435 1.224-.889 1.981-.77.184.03.353.117.534.161.188.045.38.07.57.106.436-.055.698-.273.994-.561l.167.589c-.388.317-.743.537-1.268.57-.202-.038-.407-.064-.607-.113-.152-.037-.292-.118-.446-.145-.669-.117-1.256.358-1.74.747l-.184-.584zM275.217 64.685c1.247-.002 2.493-.095 3.739-.15.156-.004.312-.014.468-.015l-.054.612c-.152 0-.303.008-.455.012-1.25.049-2.5.14-3.751.15l.053-.61zM284.542 56.385c-.095 1.691-.282 3.376-.41 5.064-.04.423-.062.846-.02 1.269l-.44.427c-.084-.44-.065-.88-.017-1.325.126-1.682.303-3.359.418-5.041l.47-.394zM281.678 64.317c1.411-.208 2.84-.218 4.26-.334.47-.044.264-.022.619-.062l-.022.612c-.36.035-.151.016-.626.057-1.408.108-2.827.117-4.224.338l-.007-.611zM282.025 66.233c.726-.292 1.467-.53 2.246-.626.472-.059.908-.092 1.365.062.15.051.277.156.415.234.071.113.203.206.213.339.021.28-.017.574-.123.834-.067.164-.24.262-.374.378-.457.395-.963.62-1.52.836-.24.078-1.474.51-.59-.452.082-.088.242.013.359.042.151.037.294.102.441.152.647.336 1.193.842 1.378 1.571.04.157.075.322.058.484-.031.291-.133.571-.2.857-.11.105-.204.233-.333.314-.967.606-2.094-.076-2.914-.598l-.342-.362.298-.53.266.327c.65.428 1.72 1.17 2.502.583.088-.066.14-.171.21-.257.132.162.136.198.058-.357-.07-.492-.354-.89-.738-1.192-.123-.097-.266-.167-.398-.25-.125-.046-.245-.105-.374-.138-.097-.024-.242.049-.3-.033-.488-.69-.176-.573.172-.656.13-.032.257-.073.386-.11.505-.206.985-.416 1.382-.807.096-.095.128-.262.25-.32.054-.026.058.225.07.166.019-.083-.035-.167-.052-.25-.103-.07-.193-.164-.309-.207-.407-.15-.833-.11-1.253-.056-.741.095-1.45.321-2.132.622l-.117-.6z" style="opacity:1;fill:#000;fill-opacity:1;stroke:#000;stroke-width:0;stroke-linecap:butt;stroke-linejoin:miter;stroke-miterlimit:10;stroke-dasharray:none;stroke-dashoffset:0;stroke-opacity:1" transform="matrix(1.78536 0 0 1.78536 -180.445 263.916)"/><path d="M84.483 65.3c.888-.012 1.775-.093 2.661-.15l.24-.015-.038.613-.237.012c-.893.052-1.785.135-2.68.15l.054-.61zM93.369 62.679c-1.169.043-2.32.589-3.036 1.53-.16.209-.27.45-.404.676-.068.242-.172.477-.205.726-.013.1.04.198.07.295.066.21.097.44.219.623.264.397.818.698 1.254.824.29.083.595.087.893.13 1.17-.03 2.36-.192 3.045-1.265.358-.562.31-.573.33-1.09-.025-.264-.014-.536-.076-.795a2.618 2.618 0 0 0-1.255-1.686c-.45-.25-.626-.224-1.111-.28l-.465.088.004-.609.55-.08c.549.07.747.047 1.259.323a3.038 3.038 0 0 1 1.455 1.828c.081.278.087.573.13.859-.078.428-.104.869-.234 1.284a2.484 2.484 0 0 1-.394.73c-.791 1.063-2.093 1.283-3.335 1.288-.325-.05-.659-.057-.974-.149-.51-.147-1.135-.492-1.46-.931-.593-.8-.28-1.84.056-2.666.155-.233.285-.484.464-.698.806-.966 2.028-1.519 3.273-1.564l-.053.609zM96.759 67.391c.024-.079-.004-.206.072-.237.06-.023.029.129.063.183.11.174.335.162.489.063.052-.034.085-.09.127-.135-.01-.048-.004-.186-.032-.145-.069.096-.03.248-.105.34-.03.034-.065-.067-.103-.092-.095-.064-.16-.076-.264-.109l.144-.596c.127.039.55.181.592.307.19.567.13.56-.088.89-.082.05-.157.117-.247.15-.309.115-.66.069-.886-.187-.064-.073-.129-.158-.14-.254-.026-.227.021-.456.032-.684l.346.506zM102.564 62.492c-.866.06-2.102.394-2.72 1.034-.096.1-.144.237-.216.355.045-.04.082-.15.135-.121.116.063.135.233.235.32.158.141.344.25.528.356.792.456 1.657.81 2.487 1.192.642.338 2.03.812 1.342 1.84-.144.216-1.133.292-1.24.307-1.028.083-2.07.05-3.082-.155-.316-.064-1.065-.251-1.373-.488-.103-.08-.147-.215-.22-.322.124-.285.177-.614.374-.855.074-.09 1.43-.852 1.455-.868.633-.4 1.044-.685 1.53-1.259.184-.217.32-.47.478-.705l.237-.603c-.02.002-.051.025-.061.006-.033-.06-.03-.133-.044-.2l.396-.465c.044.097.13.186.13.293-.002.779-.13.891-.428 1.527-.53.72-.55.838-1.286 1.426-.62.495-.972.62-1.625 1.029-.2.124-.354.34-.582.395-.094.022-.136-.138-.204-.207.014.077-.016.178.041.23.25.231 1.037.423 1.277.472.985.202 1.997.23 2.995.143.22-.034.444-.047.659-.102.105-.027.191-.179.294-.143.091.032.185.274.088.277-.102.003-.064-.202-.135-.275-.295-.303-.85-.544-1.196-.723-.844-.388-1.72-.748-2.53-1.204-.187-.104-.926-.525-.996-.833-.063-.277.06-.566.09-.849.104-.128.19-.273.312-.383.644-.576 1.687-.91 2.529-1.027.145-.02.293-.012.44-.018l-.114.603zM105.938 62.038c.89-.051 1.778-.136 2.664-.233l-.02.61c-.886.092-1.772.174-2.66.235l.016-.612z" style="opacity:1;fill:#000;fill-opacity:1;stroke:#000;stroke-width:0;stroke-linecap:butt;stroke-linejoin:miter;stroke-miterlimit:10;stroke-dasharray:none;stroke-dashoffset:0;stroke-opacity:1" transform="matrix(1.78536 0 0 1.78536 -105.657 -178.823)"/><path d="M105.96 62.77a52.935 52.935 0 0 1-.484 2.01c-.017.067.041-.135.048-.204 0-.01-.02.004-.029.007-.034-.038-.116-.065-.101-.113.02-.069.11-.092.172-.128.367-.211.851-.321 1.274-.272.186.022.362.096.543.144.16.098.339.17.481.293.714.615.986 1.646.644 2.532-.07.181-.259.29-.388.435-.193.099-.374.227-.58.296-.783.265-1.94.258-2.51-.454-.097-.122-.126-.286-.189-.429l-.006-.38.49-.367-.08.29c.015.112-.01.239.046.337.386.665 1.543.628 2.152.403.167-.061.309-.177.463-.266.087-.123.166-.252.26-.369.013-.016.056-.003.056-.023.003-.523-.2-1.067-.579-1.438-.113-.111-.263-.178-.395-.267-.149-.043-.292-.111-.446-.13-.224-.026-.622.041-.838.12-.097.034-.183.094-.273.145-.077.043-.141.118-.228.137-.111.025-.228-.006-.342-.01-.22-.316-.12-.103.023-.8.137-.672.361-1.326.47-2.004l.345.505z" style="opacity:1;fill:#000;fill-opacity:1;stroke:#000;stroke-width:0;stroke-linecap:butt;stroke-linejoin:miter;stroke-miterlimit:10;stroke-dasharray:none;stroke-dashoffset:0;stroke-opacity:1" transform="matrix(1.78536 0 0 1.78536 -105.657 -178.823)"/><path d="M189.868 99.3c1.464 0 2.926.143 4.382.285.472.047.54.076.32.757-.028.089-.142.12-.212.182-.293.256-.393.352-.702.636-1.072 1.012-1.869 2.262-2.653 3.5-.042.201-.251.327-.316.52-.007.02.03.079.029.057-.011-.18-.04-.359-.059-.539l-.157.595c-.043-.188-.11-.372-.13-.564-.008-.093.405-.562.389-.626.804-1.251 1.63-2.508 2.726-3.527.232-.213.47-.419.696-.638.052-.05.105-.22.148-.16.447.616.038.434-.162.41-1.446-.15-2.898-.292-4.353-.278l.054-.61zM183.808 100.124c-.963.455-1.899 1.131-2.412 2.092-.124.232-.19.49-.284.736.074.282.153.641.332.862.571.704 1.696.857 2.53.866.343.004.684-.06 1.027-.09 1.01-.28 1.602-.52 1.953-1.586.05-.148.032-.313.016-.468-.11-1.04-.12-.844-.629-1.747-.231-.205-.437-.442-.694-.614-.563-.377-1.25-.55-1.918-.42-.103.02-.196.074-.295.11l-.043-.609c.123-.036.242-.089.368-.108a3.071 3.071 0 0 1 2.147.483c.285.186.52.442.779.663.399.655.779 1.07.773 1.889-.008 1.15-.456 2.198-1.52 2.716-.302.147-.643.194-.965.291-.361.028-.722.091-1.084.085-.954-.017-2.137-.216-2.809-.977-.172-.195-.33-.432-.365-.69-.054-.393.071-.791.107-1.187.116-.255.204-.524.347-.765.587-.985 1.572-1.698 2.607-2.144l.032.612zM187.278 104.602c.356-.163.82-.341 1.198-.126.075.043.173.095.186.18.034.22-.037.444-.056.665-.342.23-.834.37-1.22.138-.071-.043-.174-.098-.174-.182.002-.232.122-.447.183-.671l.213.575c-.013-.134-.011-.27-.038-.402-.006-.03-.048.067-.026.089.166.168.61.102.747-.073.013.126.025.251.039.376.004.035.016-.079-.008-.103a.303.303 0 0 0-.171-.07c-.258-.035-.513.08-.73.2l-.142-.596z" style="opacity:1;fill:#000;fill-opacity:1;stroke:#000;stroke-width:0;stroke-linecap:butt;stroke-linejoin:miter;stroke-miterlimit:10;stroke-dasharray:none;stroke-dashoffset:0;stroke-opacity:1" transform="matrix(1.78536 0 0 1.78536 -151.356 -206.83)"/><path d="M376.305-42.63c2.596-.27 5.203-.432 7.812-.52.736-.012.902-.19.664 1.114-.02.108-.21.062-.31.107-.136.063-.343.26-.437.34-.122.113-.254.215-.366.338-.37.41-.696.858-1.044 1.286a126.64 126.64 0 0 0-2.582 3.304c-1.336 1.55-2.417 3.283-3.563 4.97l-.425-1.006c1.146-1.693 2.282-3.394 3.595-4.967a134.124 134.124 0 0 1 2.6-3.319c.226-.279.83-1.024 1.12-1.317.124-.127.267-.233.4-.35.665-.48.033-.047.577-.367.021-.013.049-.072.055-.048.3 1.186.423.986-.362 1a92.099 92.099 0 0 0-7.769.527l.035-1.092z" style="opacity:1;fill:#000;fill-opacity:1;stroke:#000;stroke-width:0;stroke-linecap:butt;stroke-linejoin:miter;stroke-miterlimit:10;stroke-dasharray:none;stroke-dashoffset:0;stroke-opacity:1"/><path d="M90.631 65.454c1.06.057 2.119.13 3.18.16.11-.005.22.01.33 0l-.038.613c-.118.002-.236-.002-.355-.005-1.057-.035-2.113-.112-3.17-.159l.053-.609zM98.731 63.509c-.966.47-1.71 1.165-2.013 2.226-.06.207-.073.425-.109.637.14.196.138.46.267.659.325.504.99.656 1.545.637.228-.008.452-.066.678-.1.991-.308 1.512-.79 1.71-1.829.037-.19-.11-1.017-.111-1.023-.1-.213-.173-.44-.299-.639-.295-.468-.793-.92-1.388-.896-.317.012-.535.177-.794.326l-.094-.602c.355-.173.573-.324.997-.323.69.003 1.27.467 1.642 1.01.148.217.243.465.364.697.053.26.16.516.16.783-.005 1.174-.385 2.307-1.487 2.852-.225.112-.475.167-.712.25-.25.031-.496.091-.747.095-.672.01-1.424-.195-1.845-.765-.415-.561-.248-.927-.226-1.634.054-.223.085-.452.162-.668.384-1.08 1.234-1.857 2.268-2.305l.032.612zM102.13 67.047c.285-.24.644-.565 1.033-.323.06.037.103.095.155.143.027.072.093.14.081.216a1.99 1.99 0 0 1-.214.646c-.097.177-.588.387-.78.411-.081.01-.164-.007-.245-.01-.433-.179-.44-.4-.225-.907.03-.073.135-.084.203-.125l.142.596c-.168.188-.02.057-.075-.308-.004-.028-.046.046-.042.074.005.03.043.04.065.06.22.013.377-.052.552-.193.058-.047.104-.211.157-.158.073.073-.036.212-.004.311.011.037.051-.055.077-.083-.16-.368-.486.073-.654.22l-.226-.57zM106.842 63.5c-.055-.482-.36-.766-.859-.657-.085.018-.163.062-.245.093-.018-.036-.313.34-.18.38.07.021.045-.225.11-.19.098.053.067.215.12.314.166.312.378.534.605.805.505.607 1.164 1.063 1.662 1.676.083.101.168.203.228.32.05.099.068.212.102.318-.054.242-.052.503-.161.726-.057.115-.196.17-.31.231-.655.356-1.395.268-2.094.168-.996-.22-2.142-.594-1.515-1.896.082-.17.282-.252.422-.378.962-.704 2.128-1.31 2.692-2.42.061-.12.078-.259.117-.388-.12.234-.058.274-.156.156l.269-.55c.405.337.217.085.189.924-.062.14-.107.287-.186.418-.65 1.079-1.767 1.705-2.744 2.44-.098.108-.162.259-.292.323-.048.024-.06-.193-.073-.142-.162.609 1.023.83 1.373.914.525.075 1.011.138 1.53-.02a1.2 1.2 0 0 0 .308-.138c.069-.045.094-.203.171-.177.078.027.02.163.03.245-.002-.08.024-.166-.004-.242-.04-.112-.122-.206-.194-.302-.48-.63-1.158-1.071-1.666-1.678-.202-.234-.824-.9-.867-1.226a2.372 2.372 0 0 1 .039-.766.58.58 0 0 1 .166-.27c.075-.078.178-.123.266-.184.11-.032.217-.078.33-.094.671-.092 1.105.247 1.287.872l-.47.395zM110.17 62.531c.95.003 1.899.004 2.848 0l-.053.61c-.95-.005-1.899-.004-2.848 0l.053-.61z" style="opacity:1;fill:#000;fill-opacity:1;stroke:#000;stroke-width:0;stroke-linecap:butt;stroke-linejoin:miter;stroke-miterlimit:10;stroke-dasharray:none;stroke-dashoffset:0;stroke-opacity:1" transform="matrix(1.78536 0 0 1.78536 -116.37 -160.42)"/><path d="M110.364 63.313c-.322.804-.524 1.646-.683 2.495-.046-.213-.155-.421-.139-.639.006-.08.128-.097.197-.138.293-.173.68-.312 1.023-.32.16-.004.318.034.476.051.156.055.32.089.467.166.523.276 1.037.956.892 1.584-.067.291-.207.56-.31.841-.14.114-.267.246-.421.34-.635.39-1.55.63-2.244.258-.12-.064-.214-.17-.32-.255-.217-.376-.155-.183-.208-.57l.482-.378c-.094.244-.081.112-.009.398.072.072.13.163.216.218.566.36 1.414.09 1.92-.257.12-.083.212-.201.317-.302.155.132.193.212.17-.284-.02-.396-.308-.81-.644-1.005-.121-.071-.262-.1-.394-.15-.444-.052-.628-.055-1.046.131-.08.036-.155.083-.23.13-.063.041-.115.175-.18.136-.167-.1-.24-.307-.36-.46.177-.861.4-1.714.737-2.529l.292.539zM121.406 62.222c1.106.027 2.211-.037 3.313-.131l.18-.02-.024.613-.185.017c-1.11.085-2.223.149-3.338.132l.054-.61z" style="opacity:1;fill:#000;fill-opacity:1;stroke:#000;stroke-width:0;stroke-linecap:butt;stroke-linejoin:miter;stroke-miterlimit:10;stroke-dasharray:none;stroke-dashoffset:0;stroke-opacity:1" transform="matrix(1.78536 0 0 1.78536 -116.37 -160.42)"/><path d="M121.62 62.693c-.01.686-.152 1.356-.262 2.03-.012.073.037-.142.047-.215.002-.01-.013.016-.02.023-.035-.035-.123-.06-.104-.105.03-.07.127-.081.195-.113.376-.178.805-.308 1.224-.312.17-.001.34.032.51.047.155.051.32.077.464.153.59.311.987 1.045.819 1.711-.08.315-.223.61-.335.914-.13.14-.243.3-.392.42-.66.533-1.63.626-2.41.318-.176-.069-.326-.19-.488-.286-.533-.62-.4-.732-.222-1.545l.309.528c-.134-.525-.072.372.13.449.132.087.25.198.396.26.672.285 1.534.2 2.083-.297.124-.112.212-.26.318-.389.04-.004.101.023.12-.012.198-.39.08-.883-.18-1.212a1.1 1.1 0 0 0-.3-.27c-.12-.07-.262-.092-.393-.138-.518-.049-.754-.049-1.25.131-.105.038-.206.087-.307.134-.083.038-.156.107-.246.121-.108.018-.219-.02-.328-.03-.199-.318-.094-.086.012-.786l-.007.07c.071-.4.11-.801.147-1.205l.47-.394zM134.306 63.2c-.736.254-1.529.635-1.957 1.32-.097.154-.154.33-.23.494.042.423-.006.796.262 1.166.231.32.646.527 1.014.62.221.055.454.049.68.073.832-.054 1.648-.295 2.043-1.1.236-.48.218-.42.15-.748-.041-.19-.05-.39-.124-.572-.24-.588-.943-1.225-1.58-1.349-.091-.017-.187.002-.28.003l.059-.608c.125.005.252-.01.375.015.728.15 1.52.835 1.837 1.493.098.204.13.433.195.65-.098.722-.05 1.092-.412 1.683-.513.836-1.429 1.087-2.35 1.132-.254-.03-.514-.027-.762-.09-.439-.114-.921-.358-1.214-.72-.56-.689-.358-1.415-.163-2.193.1-.174.179-.36.297-.522.504-.692 1.328-1.086 2.115-1.358l.045.612zM136.652 67.662c-.502.112-.86.086-.514-.687.021-.048.562-.257.592-.269.603-.087.993.027.692.832-.05.136-.457.223-.558.252-.345.003-.186.034-.48-.075l.183-.586c.126.087.046.053.257.05.064-.023.134-.035.193-.07.043-.025.08-.15.106-.107.068.114.043.262.063.393.004.025.006-.06-.016-.076-.107-.075-.265-.021-.371-.006-.09.04-.185.074-.272.12-.061.033-.134.174-.173.117-.09-.133-.044-.32-.074-.478-.002-.01-.02.028-.009.03.048.01.097.004.145-.004.06-.009.115-.03.173-.046l.063.61zM138.247 62.501c1.316-.032 2.682-.15 3.975.156.305.152.361.118.22.72-.023.096-.16.116-.237.177-.376.29-.732.599-1.088.914-.571.525-1.07 1.123-1.534 1.742-.296.395-.618.804-.792 1.27l.087-.412-.411.456.038-.585c.595-1.142 1.54-2.158 2.448-3.055.639-.562.263-.24.813-.695.09-.075.185-.143.269-.224.028-.028.05-.136.066-.1.06.143.087.301.085.455 0 .037-.06-.043-.09-.065-.978-.249-2.194-.218-3.199-.185-.227.007-.453.027-.68.04l.03-.609z" style="opacity:1;fill:#000;fill-opacity:1;stroke:#000;stroke-width:0;stroke-linecap:butt;stroke-linejoin:miter;stroke-miterlimit:10;stroke-dasharray:none;stroke-dashoffset:0;stroke-opacity:1" transform="matrix(1.78536 0 0 1.78536 -116.37 -160.42)"/><path d="M197.765 103.805c.469-.256 1.056-.778 1.628-.712.076.009.145.048.217.073.44.447.408.719 1.118.75.288-.075.504-.25.547-.556.008-.056.024-.223.004-.17-.037.103-.04.215-.06.323l.066.049.262-.556.15.12c-.098.824-.137 1.201-1.042 1.397-.11-.009-.222-.004-.33-.026-.385-.077-.789-.347-.887-.743-.364-.236-1.21.462-1.522.644l-.151-.593zM198.355 105.064c.544-.367.824-.335 1.406-.092.245.073.774.456 1.01.424.058-.008.11-.043.165-.065.19-.133.327-.317.432-.521.022-.044.064-.184.056-.136-.071.398-.225.334-.063.388l.029.024.13-.6c.06.02.12.042.179.063.034.037.102.062.102.113-.002.597-.334 1.012-.838 1.28-.098.02-.194.055-.293.059-.39.012-.727-.332-1.083-.442-.511-.221-.607-.236-1.09.101l-.142-.596zM197.86 102.513c-.589.63-1.138 1.341-1.476 2.142-.21.498-.231.372-.17.611.009.131-.006.267.027.394.15.569.75.616 1.231.64l-.071.605c-.644-.044-1.326-.124-1.6-.824-.058-.146-.056-.308-.083-.463.059-.312.095-.63.177-.936.22-.83.855-1.72 1.413-2.354.129-.147.278-.274.416-.412l.136.597zM202.041 101.695c.727.845 1.482 1.79 1.722 2.908.04.188.037.382.056.574-.071.309-.09.635-.213.928-.068.16-.218.27-.343.39-.364.345-.793.531-1.243.725l-.07-.61c.403-.168.796-.355 1.098-.685.093-.102.147-.237.24-.34.017-.018.05-.004.076-.006-.001-.174.023-.35-.003-.524-.162-1.07-.93-2.017-1.602-2.818l.283-.542z" style="opacity:1;fill:#000;fill-opacity:1;stroke:#000;stroke-width:0;stroke-linecap:butt;stroke-linejoin:miter;stroke-miterlimit:10;stroke-dasharray:none;stroke-dashoffset:0;stroke-opacity:1" transform="matrix(1.78536 0 0 1.78536 330.295 33.623)"/><path d="M198.806 101.97c-.65.3-1.25.716-1.585 1.37-.078.154-.124.323-.186.484-.036.18-.094.357-.107.54-.002.037.05.055.062.089.165.432.062.489.447.803.327.268.627.334 1.016.471l-.153.588c-.588-.205-1.197-.397-1.56-.952-.419-.64-.188-1.4.006-2.074.08-.17.145-.349.242-.51.4-.672 1.057-1.106 1.755-1.42l.063.61z" style="opacity:1;fill:#000;fill-opacity:1;stroke:#000;stroke-width:0;stroke-linecap:butt;stroke-linejoin:miter;stroke-miterlimit:10;stroke-dasharray:none;stroke-dashoffset:0;stroke-opacity:1" transform="matrix(1.78536 0 0 1.78536 330.02 61.639)"/><path d="M198.355 103.371c.3-.121.909-.719 1.182-.751.073-.01.145.024.218.036.28.208.289.583.544.82.177.165.304.185.527.267.572.084.962-.081 1.082-.667-.078.328-.17.376-.055.308l.442-.427c.11.258.04.051-.077.648-.316.663-.84.847-1.55.728-.51-.183-.798-.336-1.043-.838-.095-.194-.11-.144-.01-.241.016-.078.017-.05-.141.05-.077.047-.15.102-.225.154-.73.509.193-.125-.544.365-.07.046-.138.096-.207.145l-.143-.597zM198.796 104.886c.201-.136.603-.566.877-.504.067.015.123.059.185.088.247.432.388.526.885.653.44.043.926-.159 1.03-.625-.097.383-.22.345-.063.38l.419-.45c.14.241.058.054-.067.61-.314.513-.848.757-1.448.682-.378-.096-.964-.25-1.043-.706.027-.006.053-.011.08-.019.011-.003-.025 0-.035.006-.044.02-.086.045-.126.07-.185.113-.35.254-.51.4l-.184-.585zM202.702 101.105c.653.548 1.11 1.258 1.502 2.004.596 1.305.008 2.117-.855 3.049l-.221.165-.151-.593.174-.15c.219-.249.365-.398.547-.69.09-.143.139-.31.237-.446.015-.021.073.034.076.009.052-.362-.051-.52-.168-.854-.365-.722-.772-1.39-1.385-1.931l.244-.563z" style="opacity:1;fill:#000;fill-opacity:1;stroke:#000;stroke-width:0;stroke-linecap:butt;stroke-linejoin:miter;stroke-miterlimit:10;stroke-dasharray:none;stroke-dashoffset:0;stroke-opacity:1" transform="matrix(1.78536 0 0 1.78536 330.02 61.639)"/><path d="M118.521-5.236c-.404-.781-.94-.688-1.685-.49-.675.296-1.428.73-1.656 1.487-.043.146-.046.301-.07.452.023.014.058.018.068.043.172.45.014.433.357.8.398.428.855.488 1.4.568.791-.019 1.852-.104 2.27-.914.068-.132.083-.284.124-.427-.167-.247.02.058-.097-.636-.084-.498-.273-1.024-.608-1.412-.06-.07-.143-.118-.214-.176l.249-.558c.097.073.207.13.29.219.451.472.829 1.467.81 2.115-.01.329-.087.652-.13.979-.074.157-.124.327-.222.47-.564.824-1.666.935-2.57.94-.208-.033-.42-.042-.623-.097-.542-.147-1.05-.474-1.322-.979-.084-.155-.164-.323-.179-.5-.026-.313.04-.627.06-.942.046-.164.072-.335.14-.492.337-.79 1.141-1.25 1.901-1.55.162-.038.32-.09.485-.114.674-.1 1.267.14 1.609.738l-.387.476zM120.44-2.53c-.015-.207-.27.478-.183.372.06-.072.027-.204.1-.264.037-.03.037.09.072.123.094.085.145.06.253.05.038-.025.092-.034.114-.073.017-.03 0-.131-.015-.1-.057.122-.05.27-.118.386-.015.027-.047-.04-.074-.054-.114-.058-.178-.068-.298-.1l-.105-.016.103-.605.133.022c.118.031.604.166.636.284.15.55-.001.748-.433.866-.083-.005-.169.006-.25-.015-.126-.033-.434-.185-.461-.346-.085-.5.034-.789.341-1.115l.185.585zM124.828-5.78c-.514-.08-1.12-.103-1.576.194-.064.042-.112.103-.168.155-.021.06-.09.242-.064.183.037-.08.012-.214.094-.248.061-.026.002.135.023.199a.699.699 0 0 0 .11.203c.123.16.424.402.559.518.769.62 1.635 1.12 2.3 1.86.561.97-.36 1.264-1.1 1.273-.197.002-.393-.022-.59-.033-.745-.097-1.862-.395-2.278-1.1-.052-.088-.067-.193-.1-.289.062-.243.078-.502.184-.728.058-.125.496-.4.597-.458.426-.247.887-.425 1.34-.614.337-.13.656-.29.9-.563a.941.941 0 0 0 .138-.182c.031-.06.104-.242.06-.192-.057.064-.067.158-.1.238a.522.522 0 0 0-.39-.476l.15-.595c.338.112.597.305.698.665-.025.237-.024.478-.076.711-.019.085-.081.155-.134.224-.29.386-.747.595-1.179.775-.433.183-.877.354-1.277.606a1.876 1.876 0 0 0-.268.196c-.066.06-.085.221-.173.205-.08-.014-.023-.161-.035-.242-.006.065-.04.134-.019.196.168.487 1.034.82 1.47.93.184.047.374.06.561.09.351.017.61.059.95-.017a.971.971 0 0 0 .277-.11c.048-.028.083-.167.114-.121.06.09.04.217.023.323-.01.061-.031-.12-.046-.18-.62-.761-1.505-1.227-2.256-1.84-.666-.558-1.366-1.082-.611-2.001.08-.056.155-.121.241-.167.548-.29 1.208-.284 1.802-.182l-.15.594zM126.825-6.246c.963-.053 1.923-.16 2.878-.292.543.03.293.225.124.677l-.13-.601c-.154.703-.247.367.073.542.023.013-.053-.005-.08-.007-.97.124-1.942.237-2.918.291l.053-.61z" style="opacity:1;fill:#000;fill-opacity:1;stroke:#000;stroke-width:0;stroke-linecap:butt;stroke-linejoin:miter;stroke-miterlimit:10;stroke-dasharray:none;stroke-dashoffset:0;stroke-opacity:1" transform="matrix(1.78536 0 0 1.78536 38.47 -16.423)"/><path d="M127.178-6.023c.13.642.068 1.288.043 1.935-.178-.169 1.001-.282 1.043-.281.163.002.325.034.487.05.608.188 1.173.492 1.434 1.107.047.112.1.232.092.353-.017.252-.111.491-.167.737-.12.076-.23.174-.361.229-.71.298-1.742.268-2.473.074-.165-.043-.318-.125-.477-.188-.326-.348-.223-.155-.344-.56l.453-.411c-.07.25-.076.12.06.386.137.059.268.136.412.175.638.176 1.62.224 2.235-.072.077-.037.131-.111.197-.167.012.077.022.307.034.23a.72.72 0 0 0-.024-.295c-.149-.56-.648-.82-1.156-.994-.418-.044-.41-.073-.818-.004-.264.045-.625.25-.902.174-.075-.02-.125-.094-.188-.141-.026-.273.024-.534.038-.808.02-.408.018-.37-.022-.775-.01-.11-.024-.219-.036-.328l.44-.426zM109.825-4.323c1.097-.006 2.191-.007 3.285.072.252.04.518.023.765.098l-.175.59a5.49 5.49 0 0 0-.665-.085c-1.087-.08-2.174-.077-3.263-.065l.053-.61z" style="opacity:1;fill:#000;fill-opacity:1;stroke:#000;stroke-width:0;stroke-linecap:butt;stroke-linejoin:miter;stroke-miterlimit:10;stroke-dasharray:none;stroke-dashoffset:0;stroke-opacity:1" transform="matrix(1.78536 0 0 1.78536 38.47 -16.423)"/></g><g style="display:inline"><path d="M136.347 88.661c-.071.706-.104 1.436.104 2.126.09.301.248.712.593.835.108.038.23-.016.345-.024.13-.09.278-.162.393-.273.437-.424.944-1.322.937-1.953-.001-.066-.042.125-.062.188-.11.12.254.118.255.233.002.227-.039.452-.044.68-.021.932.044 1.868.055 2.801-.044 1.246-.259 3.322-1.944 3.35-.236.004-.462-.097-.693-.146-.53-.291-1.097-.712-1.096-1.395 0-.282.092-.557.138-.835l.305.39c-.025.038-.073.069-.075.115-.016.368.064.623.332.895.141.143.33.23.494.346.189.046.373.14.567.138.852-.008 1.381-.908 1.498-1.653.048-.302.052-.61.078-.915-.006-.938-.07-1.876-.066-2.814.002-.311.023-1.21.195-1.475.068-.104.248-.032.372-.048 0 .177.02.355.002.531-.071.687-.608 1.63-1.141 2.05-.16.125-.36.19-.54.285-.172-.008-.355.037-.517-.023-1.022-.383-.97-2.285-.91-3.148l.424-.26zM141.637 90.492c.231-.38.68-1.115 1.128-1.258.073-.024.153-.011.23-.017.067.033.143.053.203.099.058.043.098.107.145.162.2.24.35.453.642.585.338-.115.57-.423.793-.687l.19.46c-.311.345-.63.711-1.134.702a1.672 1.672 0 0 1-.862-.823c-.403.015-.904.883-1.083 1.206l-.252-.429zM141.876 91.87c.248-.18.788-.69 1.1-.708.05-.003.099.012.148.018.4.288.274.485.873.374.387-.123.658-.42.922-.713l.025-.034.193.46a136 136 0 0 1-.037.039c-.317.325-.644.639-1.102.746-.099.011-.196.035-.296.034-.171-.002-.758-.152-.663-.414-.172-.069-.847.553-.99.666l-.173-.467z" style="opacity:1;fill:#000;fill-opacity:1;stroke:#000;stroke-width:.04;stroke-linecap:butt;stroke-linejoin:miter;stroke-miterlimit:4;stroke-dasharray:none;stroke-dashoffset:0;stroke-opacity:1" transform="matrix(1.78536 0 0 1.78536 63.135 -199.525)"/><path d="M264.03 154.639c1.964.049 3.922-.134 5.88-.253.449-.031.898-.053 1.347-.064l-.058.888c-.443.01-.886.03-1.329.058-1.968.116-3.935.296-5.909.257l.07-.886zM280.377 144.808c-.004 2.08-.004 4.16-.004 6.239 0 .666 0 1.333.004 2v.202c0 .02.018.049.001.06-.232.162-.481.296-.722.444l.722-.524c-.24.201-.471.416-.722.605-.07.053.001-.177.001-.265.001-.668.004-1.336.004-2.004.001-2.078.001-4.156-.004-6.234l.72-.523zM275.876 154.936c2.562-.029 5.122-.181 7.682-.287l-.05.882c-2.568.094-5.134.249-7.702.292l.07-.887zM277.708 158.392c1.309-.199 2.764-.675 4.09-.307.207.058.394.175.59.262.842.64.973 1.52.644 2.53-.118.362-.614.723-.874.948-.577.347-1.576 1.016-2.301.934.089-.301.079-.652.267-.904.086-.114.285-.018.427-.024.716-.03 1.432-.052 2.116.209.231.088.438.23.658.346.861.762 1.176 1.53.51 2.634-.176.29-1.017.648-1.263.77-1.585.508-3.347.695-4.916 0-.247-.11-.46-.28-.69-.42-.67-.724-.759-1.167.003-2.047.139-.16.386-.172.58-.258l.147.875c-.137.07-.273.142-.41.213-.044-.11-.014-.33-.133-.332-.248-.003-.041.897.15.73.19.127.364.285.572.382 1.438.671 3.086.475 4.538-.014.203-.11.42-.198.61-.328.138-.094.205-.297.366-.34.077-.02.031.284.082.223.31-.371-.218-1.043-.453-1.258-.719-.414-1.044-.512-1.888-.521-.206-.002-.411.013-.617.024-.133.007-.331.142-.398.027-.143-.25-.054-.574-.081-.861-.142-.006-.05.003.082-.03a4.904 4.904 0 0 0 1.754-.869l.39-.387c.074-.14.114-.304.223-.418.033-.034.046.182.048.135.024-.454-.076-.825-.42-1.127-.15-.076-.29-.18-.45-.229-1.168-.345-2.72.12-3.886.319l-.066-.886z" style="opacity:1;fill:#000;fill-opacity:1;stroke:#000;stroke-width:.0714144;stroke-linecap:butt;stroke-linejoin:miter;stroke-miterlimit:4;stroke-dasharray:none;stroke-dashoffset:0;stroke-opacity:1"/><path d="M126.368 109.877c.02 1.538-.049 3.08.026 4.616-.452-.036.221.438.067.521-.051.028-.102-.11-.154-.083-.096.047-.16.358-.192.257-.025-.08.144-.715.184-.87.492-1.527 1.338-2.9 2.169-4.26l.37-.568.222.44-.363.562c-.817 1.342-1.65 2.702-2.096 4.22-.049.217-.083.521-.289.718-.233.223-.356-.612-.308-.635-.093-1.54-.004-3.085-.038-4.626l.402-.292z" style="opacity:1;fill:#000;fill-opacity:1;stroke:#000;stroke-width:.04;stroke-linecap:butt;stroke-linejoin:miter;stroke-miterlimit:4;stroke-dasharray:none;stroke-dashoffset:0;stroke-opacity:1" transform="matrix(1.78536 0 0 1.78536 .013 -6.909)"/><path d="M126.279 115.003c-.18-1.535-.084-3.1.168-4.623.094-.568.226-1.13.339-1.694.601-2.483 1.653-4.837 2.978-7.012.297-.488.642-.974.996-1.422.38-.482.836-1.024 1.379-1.479l.147.473c-.497.401-.978 1.012-1.308 1.436-.299.384-.69.93-.982 1.415-1.305 2.163-2.33 4.501-2.907 6.969-.077.352-.17.701-.23 1.057-.252 1.5-.367 3.04-.202 4.557zM137.896 111.4c1.285 1.07 2.579 2.131 3.985 3.038.07.037.149.06.21.111.035.03-.094-.072-.133-.046-.078.052-.064.263-.154.236-.124-.038-.128-.225-.186-.34-.188-.37-.374-.792-.544-1.167a25.004 25.004 0 0 1-1.007-3.11l.356-.342c.259 1.046.577 2.075.972 3.077.048.107.447.996.526 1.15.19.369.38.454.22.96-.062.198-.433-.063-.45-.072-1.411-.913-2.713-1.976-4.008-3.046l.213-.448z" style="opacity:1;fill:#000;fill-opacity:1;stroke:#000;stroke-width:.04;stroke-linecap:butt;stroke-linejoin:miter;stroke-miterlimit:4;stroke-dasharray:none;stroke-dashoffset:0;stroke-opacity:1" transform="matrix(1.78536 0 0 1.78536 .013 -6.909)"/><path d="M142.267 114.863c-1.295-1.092-2.209-2.616-3.136-4.014-1.01-1.642-2.039-3.288-2.726-5.098-.448-1.18-.504-1.552-.812-2.77-.214-1.122-.352-1.886-.35-3.108.002-.375-.019-.242.034-.56l.438-.014c-.152 1.284.051 2.252.23 3.347.295 1.207.347 1.57.781 2.74.67 1.802 1.688 3.436 2.689 5.067.66 1 .728 1.124 1.408 2.068.489.677.991 1.368 1.653 1.89z" style="opacity:1;fill:#000;fill-opacity:1;stroke:#000;stroke-width:.04;stroke-linecap:butt;stroke-linejoin:miter;stroke-miterlimit:4;stroke-dasharray:none;stroke-dashoffset:0;stroke-opacity:1" transform="matrix(1.78536 0 0 1.78536 .013 -6.909)"/><path d="m298.615 160.661-.038 2.295 2.641 1.276.298-2.28zM329.933 184.615l-2.678.36 2.306 2.764 2.231-1.053zM333.355 185.433l-2.195 2.295 2.09 8.6 2.659.05 2.467 1.032-1.712-3.72.484-.643z" style="fill:#fdfdfd;fill-opacity:1;stroke:none;stroke-width:1.42829px;stroke-linecap:butt;stroke-linejoin:miter;stroke-opacity:1"/><path d="M288.43 158.805c3.182.173 6.303.99 9.252 2.174.974.391 1.926.838 2.888 1.258 6.383 3.112 12.445 6.948 17.845 11.573 1.188 1.017 2.307 2.111 3.461 3.166a112.418 112.418 0 0 1 9.242 10.15c1.21 1.503 2.461 3.112 3.359 4.842.252.487.402 1.02.603 1.53l.103 1.024-.7.54c.002-.307.002-.613.002-.92-.177-.493-.298-1.01-.53-1.48-.85-1.714-2.111-3.343-3.288-4.816a110.662 110.662 0 0 0-9.187-10.122c-1.145-1.051-2.255-2.14-3.434-3.152-5.362-4.606-11.388-8.423-17.734-11.514-.954-.415-1.897-.857-2.862-1.245-2.896-1.163-5.963-1.973-9.09-2.122l.07-.886z" style="opacity:1;fill:#000;fill-opacity:1;stroke:#000;stroke-width:.0714144;stroke-linecap:butt;stroke-linejoin:miter;stroke-miterlimit:4;stroke-dasharray:none;stroke-dashoffset:0;stroke-opacity:1"/><path d="M333.158 186.46c1.453 3.092 2.95 6.164 4.422 9.248.14.363 1.369 2.407.888 2.883-.361.358-.934-.346-1.082-.486-1.595-1.548-3.211-3.09-4.959-4.468-1.361-1.073-1.72-1.26-3.099-2.144l-1.005-.564.31-.825 1.03.58c1.393.892 1.778 1.096 3.153 2.174 1.76 1.38 3.39 2.928 5.004 4.473.726.786.261.044.117.544-.055.19.091.426-.01.596-.068.11-.081-.246-.129-.366-.271-.684-.441-1.008-.78-1.726a979.927 979.927 0 0 0-4.46-9.267l.602-.653z" style="opacity:1;fill:#000;fill-opacity:1;stroke:#000;stroke-width:.0714144;stroke-linecap:butt;stroke-linejoin:miter;stroke-miterlimit:4;stroke-dasharray:none;stroke-dashoffset:0;stroke-opacity:1"/><path d="m354.333 184.875 3.608 2.827 3.756-.297-3.868-2.976z" style="fill:#fdfdfd;fill-opacity:1;stroke:none;stroke-width:1.42829px;stroke-linecap:butt;stroke-linejoin:miter;stroke-opacity:1"/><path d="m167.188 91.483.02 1.368 1.625.465v-1.313z" style="fill:#fdfdfd;fill-opacity:1;stroke:none;stroke-width:.8px;stroke-linecap:butt;stroke-linejoin:miter;stroke-opacity:1" transform="matrix(1.78536 0 0 1.78536 .013 -6.909)"/><path d="M165.238 91.687c2.507.314 6.045 1.283 8.298 1.977 4.096 1.26 8.078 2.952 11.922 4.846.809.398 1.605.822 2.407 1.233 4.669 2.464 9.042 5.423 13.294 8.539a86.969 86.969 0 0 1 5.235 4.165l-.222.435a82.843 82.843 0 0 0-5.21-4.168c-4.238-3.112-8.598-6.065-13.254-8.525-.8-.41-1.593-.833-2.4-1.23-3.83-1.89-7.8-3.578-11.885-4.83-2.24-.687-5.892-1.629-8.262-1.95l.077-.492z" style="opacity:1;fill:#000;fill-opacity:1;stroke:#000;stroke-width:.04;stroke-linecap:butt;stroke-linejoin:miter;stroke-miterlimit:4;stroke-dasharray:none;stroke-dashoffset:0;stroke-opacity:1" transform="matrix(1.78536 0 0 1.78536 .013 -6.909)"/><path d="m362.962 187.07 1.45 1.71 2.418-.222-2.901-3.608z" style="fill:#fdfdfd;fill-opacity:1;stroke:none;stroke-width:1.42829px;stroke-linecap:butt;stroke-linejoin:miter;stroke-opacity:1"/><path d="M364.124 186.274c2.322 2.76 4.412 5.706 6.448 8.68.724 1.075 1.458 2.144 2.172 3.225.12.182.24.362.354.547.058.095.188.184.162.291-.073.292-.288.529-.432.793-.192-.09-.39-.168-.575-.27-.28-.153-2.315-1.398-2.33-1.407-1.735-1.054-3.48-2.092-5.222-3.136l.32-.812c2.624 1.575 5.258 3.134 7.865 4.735-.063.262-.05.555-.188.787-.05.083-.073-.18-.121-.264-.108-.186-.228-.365-.345-.545-.707-1.085-1.443-2.152-2.162-3.23-2.023-2.969-4.096-5.916-6.432-8.65l.486-.744zM154.922 256.888c-.06 1.502-.455 4.059.525 5.327.136.175.365.251.547.377.238-.018.49.024.714-.056.33-.116.626-.316.91-.518 1.218-.868 1.997-2.088 2.634-3.41-.05.8.337-1.25.27-.933-.031.15-.154.314-.087.452.075.154.348.124.438.27.08.131-.058.305-.054.46-.228 2.685.317 5.349.681 7.997.07 1.565.183 3.764-1.339 4.756-.835.544-1.315.427-2.28.47-.41-.082-.834-.107-1.229-.244a4.272 4.272 0 0 1-2.569-2.387c-.112-.26-.156-.546-.234-.82l.615-.585c.05.249.069.506.152.746.366 1.055 1.137 1.83 2.194 2.216.357.13.744.152 1.116.23.806-.038 1.25.071 1.93-.417.237-.17.393-.433.581-.656.092-.11.218-.205.26-.342.265-.868.175-1.52.16-2.422-.362-2.69-.915-5.381-.77-8.11.08-.412.132-.83.236-1.236.04-.153.051-.363.192-.434.186-.094.503-.148.624.022.16.222-.366 1.48-.46 1.7-.714 1.356-1.575 2.671-2.906 3.508-.35.22-.718.435-1.119.534-.322.08-.664-.007-.996-.01-.25-.169-.554-.277-.75-.505-.222-.258-.352-.587-.467-.907-.527-1.476-.32-3.047-.21-4.57l.69-.502z" style="opacity:1;fill:#000;fill-opacity:1;stroke:#000;stroke-width:.0714144;stroke-linecap:butt;stroke-linejoin:miter;stroke-miterlimit:4;stroke-dasharray:none;stroke-dashoffset:0;stroke-opacity:1"/><path d="M63.408 64.672c.336-.312 1.049-1.076 1.574-.904.1.033.176.113.264.169.181.214.46.912.824.82.075-.019.139-.068.208-.103.335-.211.558-.541.78-.861.117-.169.307-.388.31-.604.305-.009.279.196.298.399-.21.465-.607 1.015-.993 1.34-.102.087-.224.147-.336.22-.113.034-.22.092-.338.102-.497.04-.796-.481-.968-.864-.035-.041-.058-.098-.106-.123-.319-.17-1.14.677-1.345.876zM63.894 66.23c.318-.248.771-.595 1.201-.561.08.006.154.038.23.057.376.218.694.8 1.194.746.09-.01.167-.067.25-.1.274-.189.452-.459.615-.742.094-.163.142-.33.26-.476l.046-.138.19.558-.017.029c-.262.496-.531.991-1.051 1.263-.127.032-.251.09-.382.095-.505.019-.904-.418-1.218-.75-.435-.15-.858.26-1.182.499z" style="opacity:1;fill:#000;fill-opacity:1;stroke:#000;stroke-width:.04;stroke-linecap:butt;stroke-linejoin:miter;stroke-miterlimit:4;stroke-dasharray:none;stroke-dashoffset:0;stroke-opacity:1" transform="matrix(1.78536 0 0 1.78536 53.574 142.597)"/><path d="M179.81 257c2.276-.01 4.551.08 6.819-.132.41-.007.802-.126 1.202-.187l.013.892c-.41.08-.823.147-1.241.18-2.283.198-4.573.114-6.862.131l.07-.883z" style="opacity:1;fill:#000;fill-opacity:1;stroke:#000;stroke-width:.0714144;stroke-linecap:butt;stroke-linejoin:miter;stroke-miterlimit:4;stroke-dasharray:none;stroke-dashoffset:0;stroke-opacity:1"/><path d="M78.957 61.588c-.024.279-.038.738-.035 1.017.009.69.08 1.374.143 2.061.094 1.046.15 2.095.153 3.145-.004.293.049.315-.411.44-.012.004-.008-.14-.01-.296l.402-.295c0 .05.028.249 0 .282-.503.588-.39.462-.385.16a31.847 31.847 0 0 0-.132-3.127c-.117-1.255-.286-2.525-.037-3.775l.312.388zM80.326 67.545c.284-.283.74-.613 1.174-.554.068.01.129.047.194.07.08.067.215.144.2.28-.064.607-.322.67-.825.799-.316.06-.422.051-.61-.204l.39-.311c-.272-.003.139.096.187.018.142-.04.238-.056.362-.14.04-.026.074-.136.101-.097.044.062-.034.156-.008.228.012.035.145-.077.051-.098-.282-.197-.834.249-1.008.461l-.208-.452zM82.868 62.28c-.077 1.02-.362 2.013-.603 3.004-.023.11-.048.22-.07.332-.015.075-.03.15-.042.225-.01.064.033-.126.036-.191.002-.026-.302.024-.133-.138.459-.231.987-.3 1.493-.354.46-.035.923-.025 1.384-.016l-.045.496c-.45-.01-.9-.02-1.348.017-.455.051-.946.104-1.347.337-.034.021-.061.06-.1.064-.076.007-.332.014-.332-.15 0-.34.16-.682.203-1.016.188-.767.404-1.533.501-2.318l.403-.292z" style="opacity:1;fill:#000;fill-opacity:1;stroke:#000;stroke-width:.04;stroke-linecap:butt;stroke-linejoin:miter;stroke-miterlimit:4;stroke-dasharray:none;stroke-dashoffset:0;stroke-opacity:1" transform="matrix(1.78536 0 0 1.78536 50.3 141.573)"/><path d="M84.701 61.946c.028 1.2.13 2.4.228 3.595.05.946.131 1.887.252 2.826l-.382.32a33.633 33.633 0 0 1-.255-2.838c-.1-1.202-.2-2.406-.245-3.61l.402-.293z" style="opacity:1;fill:#000;fill-opacity:1;stroke:#000;stroke-width:.04;stroke-linecap:butt;stroke-linejoin:miter;stroke-miterlimit:4;stroke-dasharray:none;stroke-dashoffset:0;stroke-opacity:1" transform="matrix(1.78536 0 0 1.78536 50.3 141.573)"/><path d="M16.702 63.414c-.033.775-.272 2.503.324 3.086.126.123.323.142.485.213.185-.061.386-.087.556-.183.863-.487 1.374-1.59 1.586-2.517.147-.213.189-.31.352.522.062.317-.012.646-.009.969.005.392.016.783.034 1.175.039.855.098 1.708.138 2.563-.008.362.04.73-.024 1.087-.183 1.004-.634 2.014-1.83 1.993-.704-.013-.973-.35-1.484-.743-.572-.73-.351-.353-.693-1.113l.329-.37c.264.707.082.354.578 1.04.405.34.66.675 1.242.694.584.02.873-.287 1.196-.718.113-.15.227-.317.262-.502.066-.351.025-.714.037-1.072-.055-1.249-.158-2.496-.182-3.747-.006-.325-.08-.66 0-.974.045-.181.235-.29.352-.434v.027c-.287.975-.87 2.175-1.852 2.612-.23.103-.493.107-.74.16-.213-.098-.465-.137-.639-.295-.697-.632-.476-2.332-.422-3.18l.404-.293zM23.876 64.87c.336-.397.886-1.026 1.469-.98.108.008.205.067.307.1.382.12.595 1.061.913 1.187.045.018.098-.008.147-.012.34-.321.766-.66.96-1.097l.24.437c-.215.322-.552.74-.866.96-.118.082-.258.13-.387.195-.105-.012-.216.002-.314-.036-.391-.155-.537-.868-.831-1.156-.055-.027-.103-.075-.163-.081-.498-.05-1.006.636-1.303.951l-.172-.467zM23.894 66.563c.392-.248.827-.553 1.307-.593.09-.007.179.007.268.01.443 0 .678.503 1.088.564.052.008.104-.009.156-.013.32-.201.41-.574.638-.851l.207.453c-.245.36-.414.768-.878.895-.084-.001-.17.011-.252-.003-.402-.072-.616-.465-1.009-.55-.52-.022-.978.279-1.39.568l-.135-.48zM30.68 65.151c.923-.04 1.853-.079 2.77-.194a81 81 0 0 0 .814-.126l.003.498c-.274.042-.548.085-.822.124-.93.11-1.87.154-2.804.195l.04-.497z" style="opacity:1;fill:#000;fill-opacity:1;stroke:#000;stroke-width:.04;stroke-linecap:butt;stroke-linejoin:miter;stroke-miterlimit:4;stroke-dasharray:none;stroke-dashoffset:0;stroke-opacity:1" transform="matrix(1.78536 0 0 1.78536 362.441 151.393)"/><path d="M38.72 61.095c.154 1.132.148 2.278.156 3.418.066.816-.118 1.668.078 2.474l-.005.01-.149-.047.057.496c-.218-.04-.144.012-.25-.102-.306-.8-.042-1.713-.129-2.54-.005-1.128.002-2.26-.133-3.38l.375-.329zM39.659 67.211c.313-.3.534-.683.992-.391.576.66-.413.95-.848 1.107-.528.065-.361-.09-.264-.58l.19.462c-.008-.123.014-.252-.024-.369 0-.003-.316.039.04-.008.164-.061.295-.105.451-.19.067-.035.132-.074.191-.121.022-.018.039-.098.048-.07.033.094.028.198.03.298.001.027-.016-.052-.025-.077-.015-.017-.034-.03-.045-.05-.004-.007.01-.026.003-.025-.228.033-.375.334-.53.467l-.209-.453zM43.805 61.789c-.746.844-1.182 1.905-1.577 2.947-.104.303-.274.745-.32 1.07-.009.058.023.116.031.175.049.35.013.486.197.782.057.091.143.16.215.241.8.454 1.57.146 2.294-.303.246-.201.473-.456.469-.798 0-.029-.042.085-.06.062-.052-.07-.055-.168-.082-.252l-.263-.265c-.619-.44-1.32-.534-2.041-.29-.166.056-.317.149-.475.223l-.076-.488c.178-.076.347-.172.532-.228.813-.246 1.6-.133 2.298.348.192.178.475.355.507.656.068.652-.195 1.144-.702 1.515-.895.51-1.695.775-2.65.249-.096-.097-.207-.18-.286-.29-.596-.84-.166-1.959.14-2.82.418-1.061.885-2.125 1.648-2.99l.2.456z" style="opacity:1;fill:#000;fill-opacity:1;stroke:#000;stroke-width:.04;stroke-linecap:butt;stroke-linejoin:miter;stroke-miterlimit:4;stroke-dasharray:none;stroke-dashoffset:0;stroke-opacity:1" transform="matrix(1.78536 0 0 1.78536 360.358 151.393)"/><path d="M122.804 154.338c.873.71 1.762 1.443 2.825 1.854.294.113.604.182.905.274 1.241.222 2.492.084 3.555-.644.782-.535.974-.874 1.584-1.607.599-.999.706-1.066 1.1-2.142.216-.59.408-1.24.284-1.873-.026-.042-.018-.024.054.028l-.038-.498c.262.01.15-.035.34.122.194.58.067 1.086-.08 1.692-.276 1.129-.812 2.171-1.471 3.12-.656.76-.848 1.093-1.684 1.64-1.133.742-2.456.875-3.76.638-.315-.095-.638-.167-.946-.285-1.085-.415-1.996-1.154-2.89-1.874l.222-.445z" style="opacity:1;fill:#000;fill-opacity:1;stroke:#000;stroke-width:.04;stroke-linecap:butt;stroke-linejoin:miter;stroke-miterlimit:4;stroke-dasharray:none;stroke-dashoffset:0;stroke-opacity:1" transform="matrix(1.78536 0 0 1.78536 -2.665 139.193)"/><path d="M130.56 153.397c.73-.771 1.47-1.535 2.145-2.354.143-.186.249-.315.374-.501.022-.034.045-.067.061-.103.005-.01-.01-.032 0-.03.382.142.353.043.31.29-.112.614.12 1.215.28 1.798.072.26.137.522.206.783.277 1.121.136.578.42 1.631l-.352.344c-.287-1.057-.146-.513-.421-1.633-.067-.258-.13-.518-.201-.775-.172-.613-.434-1.244-.36-1.893.038-.231-.014-.202.38-.119.02.004-.024.032-.036.049-.149.21-.3.417-.467.614a35.806 35.806 0 0 1-2.202 2.378l-.136-.48z" style="opacity:1;fill:#000;fill-opacity:1;stroke:#000;stroke-width:.04;stroke-linecap:butt;stroke-linejoin:miter;stroke-miterlimit:4;stroke-dasharray:none;stroke-dashoffset:0;stroke-opacity:1" transform="matrix(1.78536 0 0 1.78536 -2.665 139.193)"/><path d="M200.32 159.138c.104-1.515.14-3.035.155-4.553 0-.262-.055-.436.4-.48.071-.008.035.137.053.206.087.336.042.18.188.575.624 1.226 1.587 2.241 2.635 3.116l-.22.442c-1.085-.899-2.074-1.944-2.75-3.192-.023-.057-.297-.69-.248-.785.084-.159.218-.286.34-.418.01-.01.004.03.006.044v.202a139.144 139.144 0 0 1-.134 4.583l-.425.26z" style="opacity:1;fill:#000;fill-opacity:1;stroke:#000;stroke-width:.04;stroke-linecap:butt;stroke-linejoin:miter;stroke-miterlimit:4;stroke-dasharray:none;stroke-dashoffset:0;stroke-opacity:1" transform="matrix(1.78536 0 0 1.78536 .013 105.271)"/><path d="M200.967 155.44c.48 1.482 1.18 3.01 2.423 4.014.272.22.587.379.881.569.336.136.66.303 1.007.408 1.01.304 2.183.37 3.191.01.979-.35 1.112-.625 1.858-1.33l.698-1.033.212.438-.753 1.057c-.815.728-.952 1.001-2 1.357-1.063.36-2.286.288-3.346-.03-.363-.11-.703-.284-1.054-.425-.31-.198-.643-.365-.932-.594-1.28-1.015-2.03-2.568-2.528-4.083l.343-.358z" style="opacity:1;fill:#000;fill-opacity:1;stroke:#000;stroke-width:.04;stroke-linecap:butt;stroke-linejoin:miter;stroke-miterlimit:4;stroke-dasharray:none;stroke-dashoffset:0;stroke-opacity:1" transform="matrix(1.78536 0 0 1.78536 .013 105.271)"/><path d="M117.008 148.152c1.857.005 3.713.004 5.57.004 2.13 0 4.26.002 6.39-.002.318 0 .635 0 .952-.003l-.04.497c-.316-.002-.633-.002-.95-.003-2.13-.004-4.26-.002-6.39-.002-1.857 0-3.714 0-5.571.004l.039-.495z" style="opacity:1;fill:#000;fill-opacity:1;stroke:#000;stroke-width:.04;stroke-linecap:butt;stroke-linejoin:miter;stroke-miterlimit:4;stroke-dasharray:none;stroke-dashoffset:0;stroke-opacity:1" transform="matrix(1.78536 0 0 1.78536 .013 -6.909)"/><path d="M124.707 146.854c1.527.354 3.056.695 4.59 1.02.416.087.835.16 1.251.247.086.017.176.02.255.057.06.027.163.067.146.13-.148.564-.388.483-.858.59-1.784.38-3.593.666-5.334 1.217l-.044-.492c1.753-.535 3.565-.832 5.354-1.219.178-.043.369-.207.534-.129.113.053-.05.252-.018.373.01.039.16.03.12.017-.485-.156-1.014-.163-1.5-.31-1.533-.324-3.06-.667-4.588-1.012l.092-.49zM207.534 152.437c-.82.434-1.644.88-2.51 1.215-.591.228-.843.28-1.432.438l-.467.131a23.188 23.188 0 0 0-.424.128c-.012.004-.033.027-.033.015.002-.558-.12-.492.213-.51 1.665.132 3.197.944 4.68 1.65l-.155.464c-1.44-.69-2.93-1.486-4.548-1.616-.33.02-.231.075-.248-.485l.191-.058.289-.082.469-.13c.583-.157.806-.202 1.392-.432.85-.334 1.665-.768 2.462-1.211l.121.482z" style="opacity:1;fill:#000;fill-opacity:1;stroke:#000;stroke-width:.04;stroke-linecap:butt;stroke-linejoin:miter;stroke-miterlimit:4;stroke-dasharray:none;stroke-dashoffset:0;stroke-opacity:1" transform="matrix(1.78536 0 0 1.78536 .013 -6.909)"/><path d="M203.444 153.818a44.355 44.355 0 0 1 3.543-.17c1.475.002 2.951-.029 4.425.038 1.663.103 3.33.138 4.995.145l-.04.492a92.604 92.604 0 0 1-5.005-.148c-1.469-.064-2.94-.034-4.41-.036a45.449 45.449 0 0 0-3.547.175l.039-.495z" style="opacity:1;fill:#000;fill-opacity:1;stroke:#000;stroke-width:.04;stroke-linecap:butt;stroke-linejoin:miter;stroke-miterlimit:4;stroke-dasharray:none;stroke-dashoffset:0;stroke-opacity:1" transform="matrix(1.78536 0 0 1.78536 .013 -6.909)"/></g><g style="display:inline"><g style="display:inline"><path d="M143.532 117.11c.002-.527.002-.506.002-1.034 0-.51 0-1.258-.002-1.767v-.148l.664-.024v.148c-.002.51-.003 1.26-.003 1.77 0 .527 0 .504.002 1.031l-.664.024zM143.47 112.012c.03-.48.002-1.216.002-1.825 0-.435.086-1.079.015-1.63l.664-.032c.035.565-.018 1.196-.018 1.632 0 .607.037 1.308.002 1.822l-.664.033z" style="display:inline;opacity:1;fill:#000;fill-opacity:1;stroke:#000;stroke-width:0;stroke-linecap:butt;stroke-linejoin:miter;stroke-miterlimit:4;stroke-dasharray:none;stroke-dashoffset:0;stroke-opacity:1" transform="matrix(1.78536 0 0 1.78536 .013 -6.909)"/></g><g style="display:inline"><path d="M187.686 116.838c.002-.585.002-.562.002-1.147 0-.566 0-1.396-.002-1.962v-.164l.663-.026v.164l-.002 1.964c0 .585 0 .56.002 1.144l-.664.027zM187.624 111.414c.03-.48.002-1.217.002-1.825 0-.436.086-1.08.015-1.63l.663-.033c.035.565-.017 1.196-.017 1.632 0 .608.036 1.309.002 1.823l-.664.033z" style="display:inline;opacity:1;fill:#000;fill-opacity:1;stroke:#000;stroke-width:0;stroke-linecap:butt;stroke-linejoin:miter;stroke-miterlimit:4;stroke-dasharray:none;stroke-dashoffset:0;stroke-opacity:1" transform="matrix(1.78536 0 0 1.78536 .013 -6.909)"/></g></g><g style="display:inline"><g style="display:inline"><path d="M123.678 117.228c.002-.606.002-.581.002-1.187 0-.586 0-1.445-.002-2.03v-.17l.664-.028v.17c-.002.586-.003 1.447-.003 2.033 0 .605 0 .58.002 1.184l-.664.028zM123.617 111.688c.03-.48.002-1.216.002-1.825 0-.435.085-1.08.014-1.63l.664-.032c.035.565-.018 1.196-.018 1.632 0 .607.037 1.308.002 1.822l-.664.033z" style="display:inline;opacity:1;fill:#000;fill-opacity:1;stroke:#000;stroke-width:0;stroke-linecap:butt;stroke-linejoin:miter;stroke-miterlimit:4;stroke-dasharray:none;stroke-dashoffset:0;stroke-opacity:1" transform="matrix(1.78536 0 0 1.78536 .013 -6.909)"/></g><g style="display:inline"><path d="M123.678 117.228c.002-.606.002-.581.002-1.187 0-.586 0-1.445-.002-2.03v-.17l.664-.028v.17c-.002.586-.003 1.447-.003 2.033 0 .605 0 .58.002 1.184l-.664.028zM123.617 111.688c.03-.48.002-1.216.002-1.825 0-.435.085-1.08.014-1.63l.664-.032c.035.565-.018 1.196-.018 1.632 0 .607.037 1.308.002 1.822l-.664.033z" style="display:inline;opacity:1;fill:#000;fill-opacity:1;stroke:#000;stroke-width:0;stroke-linecap:butt;stroke-linejoin:miter;stroke-miterlimit:4;stroke-dasharray:none;stroke-dashoffset:0;stroke-opacity:1" transform="matrix(1.78536 0 0 1.78536 154.644 -6.909)"/></g></g><path d="M22.256 64.052c-.158.758-.33 1.517-.303 2.298.015.452.074.997.415 1.348.117.12.299.15.448.225.186-.02.381 0 .559-.06 1.005-.343 1.667-1.412 2.032-2.347.066-.17.097-.352.146-.528-.12.039.098.165.135.27.02.056-.01.12-.013.179-.016.242-.043.484-.047.726-.005.299.014.597.021.895.04 1.475.627 3.57-.147 4.925-.106.185-.317.286-.475.429-.23.054-.453.163-.69.161-.522-.005-1.092-.273-1.499-.578-.205-.154-.365-.36-.547-.54l.243-.428c.16.17.3.363.482.509.337.268.85.533 1.297.544.188.005.366-.09.549-.134.1-.102.504-.458.554-.666.29-1.201-.14-2.703-.159-3.927-.025-.658-.128-1.894.156-2.51a.521.521 0 0 1 .345-.26c.068-.016.149.07.156.139.023.223-.049.445-.073.668-.061.183-.107.372-.184.55-.435.998-1.182 2.114-2.301 2.416-.227.061-.469.022-.703.033-.195-.1-.426-.148-.584-.3-.4-.382-.489-.942-.52-1.46-.06-1.01.213-1.988.4-2.969l.307.392zM29.841 64.652c1.207.052 2.426-.078 3.63.034.238.053.138.015.306.094l-.179.466c-.068-.067-.015-.025-.191-.068-1.195-.116-2.407.017-3.605-.03l.04-.496zM29.911 66.318a615.09 615.09 0 0 0 4.113 0l-.04.497-.168-.001a611.635 611.635 0 0 0-3.944 0l.04-.496zM39.077 59.652c.36 1.827.422 3.691.468 5.547.015.937.02 1.874.006 2.81l-.405.287c.028-.934.018-1.87.008-2.805-.041-1.838-.099-3.683-.436-5.495l.36-.344zM40.762 67.363c.212-.318.534-.753.963-.768.067-.003.172-.008.192.055.06.189.009.396.014.594-.209.204-.855.678-1.154.676-.07 0-.13-.05-.196-.075l.229-.444c-.028.008-.109.035-.082.024.34-.135.698-.277.917-.59.038.097.072.195.115.289.005.01.014-.034.003-.033a.452.452 0 0 0-.17.054c-.25.146-.436.38-.56.636l-.271-.418zM42.452 62.002c.912-.76 1.984-1.287 3.104-1.66.225-.059.569-.21.712.094.13.277-.329 1.29-.43 1.561-.783 1.924-1.577 3.85-2.46 5.73-.063.123-.209.427-.305.574-.016.026-.053.098-.06.068-.131-.573-.091-.547.315-.732.975-.36 2.034-.45 3.066-.455.462.004.92.056 1.376.117l-.076.492c-.443-.061-.888-.113-1.337-.117-.992.008-2.014.092-2.947.454-.06.031-.124.06-.183.094-.054.03-.106.137-.156.1-.423-.304-.277-.37-.137-.642.064-.124.125-.25.188-.375.875-1.878 1.68-3.792 2.442-5.718.082-.22.148-.447.247-.66.008-.017.035.042.048.03.04-.04.038-.108.076-.15.024-.027.121-.016.1-.046-.084-.118-.433.233-.43.074-1.088.369-2.126.89-3.004 1.641l-.149-.475z" style="opacity:1;fill:#000;fill-opacity:1;stroke:#000;stroke-width:.04;stroke-linecap:butt;stroke-linejoin:miter;stroke-miterlimit:4;stroke-dasharray:none;stroke-dashoffset:0;stroke-opacity:1" transform="matrix(1.78536 0 0 1.78536 16.082 -147.655)"/><path d="M61.173 64.73c-.183.67-.614 2.12.311 2.484.164.064.352.044.528.066.202-.047.414-.067.606-.143.776-.307 1.494-1.081 1.848-1.781.05-.1.072-.212.108-.318-.017.045-.078.097-.049.136.053.07.187.056.245.123.044.051.02.13.03.195.08.458-.029-.394.047.804.019.288.052.575.077.862.06 1.368.581 3.581-.237 4.816-.127.191-.373.287-.56.43-.258.056-.51.155-.775.168a3.036 3.036 0 0 1-2.375-.977c-.16-.176-.257-.393-.385-.59l.3-.36c.106.183.18.385.317.55a2.612 2.612 0 0 0 2.119.921c.221-.009.431-.097.647-.146.193-.164.568-.412.647-.692.327-1.17-.04-2.644-.08-3.836-.076-.76-.209-1.55-.049-2.311.021-.101.043-.235.143-.28.097-.043.276-.016.311.078.06.157-.064.327-.096.49-.403.895-1.203 1.823-2.21 2.174-.226.079-.473.092-.71.138-.518-.083-.825-.03-1.162-.475-.566-.747-.1-2.128.134-2.911l.27.385zM67.25 64.588a37.27 37.27 0 0 1 2.386-.22c.32-.016.702-.042 1.02.05l-.129.482c-.204-.093-.748-.048-.909-.04-.79.038-1.58.127-2.365.223l-.003-.495zM67.392 66.285c1.146-.121 2.3-.13 3.452-.143.354 0 .2-.001.46.001l-.042.497c-.256-.005-.104-.003-.455-.004-1.14.009-2.282.018-3.415.147v-.498zM73.68 64.985c1.455 0 2.91.042 4.362-.073.447-.06.316-.188.213.403l.104-.488c.098.645.21.507-.335.579-1.46.107-2.92.066-4.383.075l.04-.496zM84.401 61.077c-1.272.6-2.218 1.779-2.655 3.114-.092.282-.118.583-.178.874.078.44.1.772.373 1.17.45.655 1.304.87 2.053.752.316-.05.612-.187.917-.28 1.226-.595 2.203-1.35 2.465-2.763.074-.4-.113-.934-.199-1.289-.133-.215-.24-.448-.4-.644-.476-.585-1.19-.937-1.933-1.025-.638-.076-.823.021-1.423.163-.616.293-.35.129-.813.467l-.125-.48c.53-.348.23-.18.917-.48.655-.14.856-.239 1.547-.151.81.102 1.586.483 2.119 1.108.181.213.309.466.463.7.08.276.222.542.24.83.091 1.498-.615 2.738-1.849 3.543-.306.2-.647.339-.97.508-.802.227-1.09.415-1.92.26-.801-.151-1.607-.746-1.763-1.595-.071-.387 0-.787 0-1.18.074-.303.118-.614.224-.907.504-1.385 1.51-2.587 2.862-3.19l.048.495zM86.71 67.037c.397-.3.953-.758 1.42-.308.062.06.1.14.15.21.18.46-.008.832-.42 1.058-.234.128-.464.203-.73.108-.124-.044-.218-.148-.327-.222-.253-.368-.365-.735-.133-1.178.045-.085.168-.095.253-.143l.113.485c-.027.023-.055.09-.082.067-.039-.034 0-.204-.018-.155-.066.174.024.32.082.476.254.255.356.303.7.086.078-.048.115-.176.206-.182.058-.004-.011.17.046.167.057-.003.007-.114.01-.17-.043-.1-.07-.208-.168-.271-.265-.169-.736.302-.93.44l-.173-.468zM93.161 61.412c-1.35-.002-2.73.55-3.601 1.614-.149.182-.24.404-.36.606.044.183.069.378.262.493.162.096.36.125.547.14.862.069 1.612-.26 2.378-.596.437-.307.959-.631 1.088-1.195.012-.052-.06.088-.091.13-.066.086.022-.352-.034.177-.446 1.332-.314 2.77-.185 4.146.05.423.14.838.271 1.243l-.342.361a5.905 5.905 0 0 1-.31-1.294c-.137-1.362-.21-2.465.02-3.833.037-.224.083-.447.159-.66.054-.155.151-.29.227-.435.115-.054.218-.158.346-.163.414-.015.22.645.193.754-.073.286-.44.658-.637.82-.198.163-.423.29-.634.436-.272.114-.536.25-.816.342-.685.226-1.781.458-2.455.039-.164-.103-.328-.266-.359-.457-.046-.296.098-.59.147-.886.141-.21.256-.442.424-.632.968-1.094 2.42-1.663 3.86-1.637l-.098.487z" style="opacity:1;fill:#000;fill-opacity:1;stroke:#000;stroke-width:.04;stroke-linecap:butt;stroke-linejoin:miter;stroke-miterlimit:4;stroke-dasharray:none;stroke-dashoffset:0;stroke-opacity:1" transform="matrix(1.78536 0 0 1.78536 606.477 371.399)"/><path d="M231.759 128.96c-1.088 1.067-2.261 2.044-3.358 3.1-.162.11-.296.341-.507.38-.11.019-.094-.014-.167.014-.163.093-.14.087.014-.507.01-.038.074-.027.113-.035.37-.076.758-.07 1.133-.083 1.78-.026 3.562-.015 5.343-.012h.567l-.041.497c-.296-.005-.107-.002-.565-.006-1.778-.009-3.556-.019-5.333.014-.313.013-.566.014-.87.051a1.97 1.97 0 0 0-.194.036c-.04.009-.1.072-.12.035-.248-.458-.265-.437-.075-.489.06-.01.076-.017.142-.015.007 0-.027.01-.021.006.14-.112.296-.214.416-.352 1.109-1.042 2.269-2.029 3.35-3.1l.173.467z" style="opacity:1;fill:#000;fill-opacity:1;stroke:#000;stroke-width:.04;stroke-linecap:butt;stroke-linejoin:miter;stroke-miterlimit:4;stroke-dasharray:none;stroke-dashoffset:0;stroke-opacity:1" transform="matrix(1.78536 0 0 1.78536 301.18 111.331)"/><path d="M228.69 131.557c1.537-.555 3.058-1.15 4.587-1.728 2.171-.807 4.301-1.72 6.498-2.456.493-.178 1-.313 1.501-.464.065-.02.377-.066.423-.153-.193-.028-.06-.029-.067.395l.201-.457c.091.508.206.367-.008.545-.163.078-.333.113-.508.165-.5.147-1.003.282-1.493.458-2.195.734-4.322 1.645-6.489 2.453-1.524.579-3.045 1.168-4.574 1.734l-.072-.492z" style="opacity:1;fill:#000;fill-opacity:1;stroke:#000;stroke-width:.04;stroke-linecap:butt;stroke-linejoin:miter;stroke-miterlimit:4;stroke-dasharray:none;stroke-dashoffset:0;stroke-opacity:1" transform="matrix(1.78536 0 0 1.78536 301.18 111.331)"/><path d="M231.874 140.417c-.94-1.109-1.989-2.118-3.074-3.084-.63-.589-1.373-1.115-1.847-1.85-.109-.217-.172-.26.328-.449.078-.03.148.08.224.115.357.168.72.327 1.084.48 1.864.702 3.752 1.336 5.682 1.83.51.138 1.021.229 1.548.208l-.032.496a5.649 5.649 0 0 1-1.621-.226c-1.942-.5-3.843-1.136-5.722-1.834-.371-.155-.743-.313-1.107-.486-.064-.03-.185-.03-.188-.101-.023-.465.336-.4.105-.43.37.697 1.22 1.272 1.772 1.81 1.097.972 2.154 1.99 3.112 3.1l-.264.421z" style="opacity:1;fill:#000;fill-opacity:1;stroke:#000;stroke-width:.04;stroke-linecap:butt;stroke-linejoin:miter;stroke-miterlimit:4;stroke-dasharray:none;stroke-dashoffset:0;stroke-opacity:1" transform="matrix(1.78536 0 0 1.78536 284.814 133.648)"/><path d="M228.028 135.367c2.308 1.497 4.666 2.916 7.013 4.35 2.819 1.736 5.661 3.437 8.427 5.257.251.166.505.33.755.5.153.103.304.212.454.32.033.025.114.042.096.078-.285.547-.27.434-.625.234l.177-.464c.359.208.35.1.217.672-.007.031-.042-.049-.067-.068-.404-.308-.761-.532-1.197-.823-2.758-1.826-5.598-3.525-8.416-5.258-2.354-1.437-4.716-2.863-7.042-4.347l.208-.45z" style="opacity:1;fill:#000;fill-opacity:1;stroke:#000;stroke-width:.04;stroke-linecap:butt;stroke-linejoin:miter;stroke-miterlimit:4;stroke-dasharray:none;stroke-dashoffset:0;stroke-opacity:1" transform="matrix(1.78536 0 0 1.78536 284.814 133.648)"/><path d="M230.025 141.176c-.921-1.602-1.927-3.15-2.946-4.69l-.218-.337c-.161-.252-.24-.284.173-.576.04-.029.057.082.087.121.038.048.08.094.12.14 1.043.873 2.258 1.52 3.414 2.23.991.637 2.01 1.227 3.066 1.75l-.162.468a33.325 33.325 0 0 1-3.086-1.764c-1.179-.723-2.41-1.384-3.489-2.256-.271-.287-.295-.287-.005-.744.05-.078.348.687.388.567 1.012 1.546 2.027 3.09 2.953 4.69l-.295.4z" style="opacity:1;fill:#000;fill-opacity:1;stroke:#000;stroke-width:.04;stroke-linecap:butt;stroke-linejoin:miter;stroke-miterlimit:4;stroke-dasharray:none;stroke-dashoffset:0;stroke-opacity:1" transform="matrix(1.78536 0 0 1.78536 263.093 224.702)"/><path d="M228.115 136.708c.213.218.421.442.64.654 1.273 1.237 2.618 2.396 3.902 3.622.242.23 2.413 2.357 2.707 2.644 1.411 1.548 3.042 2.874 4.516 4.356l.189.212-.26.424-.173-.205c-.481-.496-.996-.954-1.5-1.426a74.898 74.898 0 0 1-3.005-2.94c-.258-.252-2.496-2.448-2.7-2.643-1.286-1.228-2.635-2.386-3.918-3.616-.222-.214-.434-.438-.651-.657l.253-.425z" style="opacity:1;fill:#000;fill-opacity:1;stroke:#000;stroke-width:.04;stroke-linecap:butt;stroke-linejoin:miter;stroke-miterlimit:4;stroke-dasharray:none;stroke-dashoffset:0;stroke-opacity:1" transform="matrix(1.78536 0 0 1.78536 263.093 224.702)"/><path d="M28.268-25.873c1.148-1.352 2.551-2.513 4.15-3.295.34-.167.701-.288 1.051-.431.676-.192 2.192-.682 2.79.016.123.144.235.327.238.516.006.442-.143.872-.214 1.308-.517 1.587-1.327 3.052-2.052 4.548-1.616 3.34.264-.474-1.437 2.959-.92 1.774-1.493 3.787-2.767 5.36-.025.192-.325.085-.402.216-.019.031.107.024.108-.012.002-.297-.191-.602-.101-.885.042-.132.27-.06.407-.08.224-.034.45-.054.674-.08 2.168-.164 4.345-.15 6.518-.146l.482.004-.075.884-.478-.006c-2.152-.012-4.31-.024-6.456.15-.211.026-.423.047-.633.081-.12.02-.268.163-.358.08-.897-.826-.422-.683-.051-1.017 1.177-1.606 1.78-3.55 2.687-5.304 1.665-3.382-.162.343 1.435-2.959.712-1.47 1.502-2.918 1.959-4.495.326-.011.15-.413-.056-.496-.673-.275-1.458.06-2.096.23-.33.14-.67.259-.99.42-1.536.773-2.885 1.907-3.961 3.242l-.372-.808z" style="opacity:1;fill:#000;fill-opacity:1;stroke:#000;stroke-width:.0714144;stroke-linecap:butt;stroke-linejoin:miter;stroke-miterlimit:4;stroke-dasharray:none;stroke-dashoffset:0;stroke-opacity:1"/><path d="M-17.797 64.335c-.18.65-.327 1.31-.31 1.988.01.373-.015.898.255 1.224.082.098.225.12.338.18.141-.036.291-.047.424-.108 1.025-.47 1.508-1.46 1.82-2.474.057-.197.006-1.238.497-.616.067.085.016.215.028.322.018.175.042.35.063.525.16 1.554.59 3.08.68 4.641.02.343.004.687.005 1.031-.132.871-.128 1.258-.555 2.096-.339.664-1.077 1.31-1.879 1.206-.272-.036-.513-.196-.77-.294-.655-.566-.766-.568-1.21-1.32-.129-.216-.21-.457-.314-.685l.323-.372c.09.218.157.447.27.654.383.698.5.72 1.072 1.251.21.09.405.238.63.272.77.119 1.262-.575 1.612-1.125.097-.153.202-.306.255-.478.09-.298.113-.612.17-.918.004-.336.028-.672.013-1.008-.071-1.56-.518-3.083-.68-4.633-.024-.177-.05-.353-.072-.53-.013-.109-.1-.24-.033-.326.07-.091.223-.074.337-.069.029.002-.01.056-.016.084-.08.436-.025.16-.144.698-.062.175-.112.356-.187.527-.366.834-1 1.728-1.905 2.036-.193.065-.404.052-.605.078-.162-.09-.36-.132-.486-.268-.312-.335-.352-.916-.344-1.328.019-.91.178-1.816.452-2.681l.266.42zM-11.954 64.651a52.397 52.397 0 0 0 3.697-.408c.658-.099.484-.315.58.409l-.137-.48c.046.153.115.302.137.46.002.016-.575.105-.578.106-1.24.183-2.49.308-3.738.41l.039-.497zM-11.659 65.819c1.152.003 2.304.001 3.456 0 .25-.01.494-.044.733-.114l.032.497a3.78 3.78 0 0 1-.804.111c-1.152 0-2.304-.002-3.456.001l.04-.495zM-4.153 65.151c1.257.004 2.514.004 3.771.003.395-.016.791.031 1.183-.035.134-.022.21-.08.34-.078l-.059.496c.054-.006.112-.014-.088.037-.463.12-.943.058-1.415.072a975.605 975.605 0 0 0-3.771.002l.04-.497zM6.038 59.378c-.936.532-1.746 1.319-2.242 2.284-.133.258-.223.536-.334.804-.342 1.123-.494 2.351-.13 3.493.058.183.152.354.227.53.113.142.207.3.339.424.479.452 1.274.628 1.913.517.171-.03.332-.105.498-.157.733-.395 1.401-.96 1.793-1.709.265-.507.278-.758.4-1.318.13-1.24-.023-2.28-.524-3.414-.334-.69-.698-1.347-1.578-1.286-.14.01-.275.064-.412.096-.445.22-.246.098-.606.354l-.12-.482c.422-.269.188-.142.71-.367.164-.03.325-.085.492-.092.982-.037 1.45.602 1.835 1.4.077.163.165.32.23.487.462 1.182.513 2.457.273 3.694-.063.244-.106.493-.19.731-.383 1.086-1.248 1.901-2.264 2.398-.19.053-.374.13-.568.159-.725.11-1.595-.099-2.146-.593-.152-.137-.265-.312-.397-.467-.087-.189-.194-.37-.263-.565-.487-1.388-.214-2.89.227-4.249.124-.275.227-.562.372-.827.545-.994 1.406-1.807 2.4-2.34l.065.495zM9.107 66.893c.222-.103.66-.39.905-.16.055.052.122.123.112.199-.027.186-.143.348-.214.521-.48.372-.851.457-1.215-.096-.127-.287-.075-.09.06-.608l.194.46c.028-.393-.003-.47.053-.245.198.459.355.328.701.036.008.121-.053.31.13.198.186-.113-.862.129-.618.182l-.108-.487zM13.884 59.91c-.127-.027-.252-.073-.382-.082-.86-.058-1.707.367-2.342.916-.181.157-.334.343-.5.515-.254.4-.465.598-.472 1.09-.001.067.08.107.115.164.08.13.128.282.23.396.27.303.495.322.867.448.183.005.367.033.55.014.712-.073 1.436-.46 1.838-1.06.083-.124.135-.268.202-.402.118-.347.125-.702.056-1.064.418.314.314-.656.315-.047.007 1.263.005 2.526.005 3.79.024.962.082 1.923.158 2.883l-.39.309a67.291 67.291 0 0 1-.166-2.904c0-1.26.001-2.521-.008-3.782-.006-.291-.035-.905.407-.632.313.502.043 1.389-.136 1.88-.086.143-.157.296-.258.428-.485.629-1.283 1.03-2.072 1.093-.209.016-.418-.019-.628-.028-.191-.066-.394-.104-.575-.197-.28-.142-.689-.474-.772-.804-.21-.832.081-1.41.563-2.038.181-.176.348-.367.544-.527.824-.675 1.902-1.113 2.965-.842l-.114.484z" style="opacity:1;fill:#000;fill-opacity:1;stroke:#000;stroke-width:.04;stroke-linecap:butt;stroke-linejoin:miter;stroke-miterlimit:4;stroke-dasharray:none;stroke-dashoffset:0;stroke-opacity:1" transform="matrix(1.78536 0 0 1.78536 754.96 338.072)"/><path d="M233.596 139.863c-1.245-1.081-2.616-2.005-3.943-2.98-.368-.266-.736-.532-1.112-.788a7.396 7.396 0 0 0-.104-.07c-.006-.003-.02-.003-.019-.01.031-.168.075-.333.112-.5.746-.1 1.492.076 2.22.224a51.1 51.1 0 0 0 5.219.87l-.07.485a53.583 53.583 0 0 1-5.242-.871c-.676-.137-1.38-.312-2.075-.21.004-.156-.005-.312.013-.466 0-.006.076.045.145.093.377.259.746.528 1.117.796 1.332.982 2.71 1.909 3.968 2.986l-.229.44z" style="opacity:1;fill:#000;fill-opacity:1;stroke:#000;stroke-width:.04;stroke-linecap:butt;stroke-linejoin:miter;stroke-miterlimit:4;stroke-dasharray:none;stroke-dashoffset:0;stroke-opacity:1" transform="matrix(1.78536 0 0 1.78536 268.151 213.99)"/><path d="M229.398 136.059c2.125.636 4.155 1.534 6.172 2.448 2.639 1.265 5.386 2.277 8.095 3.376.376.2.832.31 1.15.611l-.36.348c.025.01.089.047.074.026-.16-.221-.852-.355-1.005-.515-2.708-1.111-5.46-2.12-8.103-3.385-2.013-.912-4.04-1.81-6.164-2.432l.141-.477z" style="opacity:1;fill:#000;fill-opacity:1;stroke:#000;stroke-width:.04;stroke-linecap:butt;stroke-linejoin:miter;stroke-miterlimit:4;stroke-dasharray:none;stroke-dashoffset:0;stroke-opacity:1" transform="matrix(1.78536 0 0 1.78536 268.151 213.99)"/><path d="M705.095 356.816c-.126-.095-.235-.22-.38-.284-1.509-.665-3.872 1.224-4.947 2.063-.82.867-1.888 1.93-1.788 3.26.01.135.19.193.286.287.855.832.352.54 1.66.784.439-.068.889-.085 1.316-.205 1.624-.456 3.304-1.576 4.18-3.044.146-.243.225-.52.338-.781.04-.217.103-.43.122-.65.004-.032-.062.093-.073.063-.039-.104-.015-.222-.027-.332-.004-.032-.051-.108-.022-.095.426.184.317.192.256.57-.256 2.343-.055 4.724.045 7.074.083 1.648.108 3.298.16 4.946l-.728.515c.027-.327.004-.68-.001-1.003-.028-1.31-.074-2.618-.125-3.927-.12-2.768-.448-5.603.148-8.337.215-.432.168-.638.804-.533.083.014.111.132.14.212.173.485.042 1.093-.037 1.55-.043.24-.138.47-.207.705-.144.276-.258.57-.433.828-1.02 1.508-2.785 2.674-4.54 3.117-.482.122-.987.128-1.48.192-.751-.163-1.745-.152-2.132-1.038-.214-.49-.216-1.057-.192-1.591.061-1.407 1.174-2.493 2.088-3.41 1.393-1.05 3.667-2.83 5.555-2.03.168.073.3.212.45.318l-.435.776zM15.026-26.915c1.116-1.137 2.327-2.265 3.808-2.914.293-.128.608-.198.913-.297.266-.002.545-.083.8-.006.86.26 1.015.904 1.125 1.76.266 2.076-.485 4.334-1.064 6.294-.95 2.645-1.953 5.31-3.429 7.713-.052.059-.11.24-.157.177-.19-.26-.381-.571-.368-.893.007-.165.268-.195.415-.27.835-.428 1.768-.479 2.682-.584 1.614-.143 3.235-.095 4.852-.186l-.043.882c-1.607.082-3.217.037-4.821.185-.744.091-1.254.108-1.947.334-.17.055-.331.134-.484.225-.072.042-.116.221-.181.17-.647-.51-.587-.501-.36-.824 1.432-2.383 2.412-5.018 3.327-7.633.473-1.682.961-3.226.933-4.991-.007-.476.063-1.256-.547-1.476-.202-.073-.431.002-.647.002-.275.094-.56.161-.825.282-1.407.643-2.58 1.728-3.61 2.858l-.372-.808z" style="opacity:1;fill:#000;fill-opacity:1;stroke:#000;stroke-width:.0714144;stroke-linecap:butt;stroke-linejoin:miter;stroke-miterlimit:4;stroke-dasharray:none;stroke-dashoffset:0;stroke-opacity:1"/><path d="M133.513 101.181c-.74.284-1.265.986-1.493 1.733-.064.208-.082.426-.124.64.048.247.116.641.21.84.25.527.768.83 1.314.968.152.038.311.038.467.056l-.073.49c-.176-.024-.356-.026-.527-.07-.815-.21-1.637-.802-1.733-1.707-.034-.32.026-.644.038-.966.057-.224.091-.454.17-.671.296-.812.904-1.538 1.736-1.811l.015.498z" style="opacity:1;fill:#000;fill-opacity:1;stroke:#000;stroke-width:.04;stroke-linecap:butt;stroke-linejoin:miter;stroke-miterlimit:4;stroke-dasharray:none;stroke-dashoffset:0;stroke-opacity:1" transform="matrix(1.78536 0 0 1.78536 556.239 -3.755)"/><path d="M133.429 103.03c.25-.341.551-.982 1.07-.943.085.006.165.048.248.071.377.153.691.697 1.107.731.055.005.107-.028.16-.042.266-.192.484-.47.566-.79l.276.415c-.182.38-.44.707-.84.872-.098.008-.195.038-.292.026-.453-.057-.746-.502-1.106-.73-.038-.018-.073-.049-.115-.055-.314-.045-.676.646-.803.863l-.271-.418zM133.394 104.397c.416-.228.839-.527 1.324-.555.408.121.521.447.982.45.235-.119.414-.362.534-.595l.005-.031.258.427-.03.045c-.205.296-.443.588-.818.65-.428-.028-.642-.18-.953-.448-.425.03-.805.339-1.166.536l-.136-.48zM136.9 100.603c.616.678 1.402 1.523 1.624 2.436.044.183.037.374.056.562-.075.678-.24 1.484-.828 1.913-.062.046-.13.096-.206.105-.074.01-.145-.035-.218-.053l.168-.47c-.016.012-.066.045-.049.036.046-.027.096-.05.136-.085.264-.231.15-.207.381-.54.03-.043.098-.06.116-.11.06-.157.073-.329.11-.493-.001-.168.025-.339-.004-.504-.153-.876-.945-1.684-1.495-2.344l.209-.453z" style="opacity:1;fill:#000;fill-opacity:1;stroke:#000;stroke-width:.04;stroke-linecap:butt;stroke-linejoin:miter;stroke-miterlimit:4;stroke-dasharray:none;stroke-dashoffset:0;stroke-opacity:1" transform="matrix(1.78536 0 0 1.78536 556.239 -3.755)"/><path d="M219.06 101.406c-.647.437-1.202 1.028-1.425 1.794-.05.17-.063.35-.095.524.103.179.124.396.23.573.348.582.95.68 1.567.717l.355-.057v.496l-.412.053c-.74-.052-1.389-.169-1.838-.838-.099-.147-.195-.309-.223-.485-.043-.279.01-.565.015-.847.046-.185.075-.376.139-.555.284-.794.885-1.408 1.579-1.861l.108.486z" style="opacity:1;fill:#000;fill-opacity:1;stroke:#000;stroke-width:.04;stroke-linecap:butt;stroke-linejoin:miter;stroke-miterlimit:4;stroke-dasharray:none;stroke-dashoffset:0;stroke-opacity:1" transform="matrix(1.78536 0 0 1.78536 529.756 -1.871)"/><path d="M219.21 102.704c.433-.358.928-.713 1.51-.724.349.109.368.417.729.518.271-.032.433-.253.565-.47l.216.45c-.228.29-.502.528-.895.506a.999.999 0 0 1-.65-.507c-.502.01-.937.388-1.303.694l-.173-.467zM219.107 104.06c.385-.195.794-.478 1.24-.506.18-.012.263.033.423.09.347.079.621.394.974.452.048.008.096-.014.144-.021.26-.166.22-.535.405-.74l.224.445c-.062.348-.32.679-.652.792-.086.001-.173.017-.257.002-.356-.06-.631-.36-.976-.452-.486-.21-1 .213-1.417.424l-.108-.486zM222.904 101.144c.496.622.883 1.364 1.037 2.15.033.169.04.34.06.51-.029.623-.367 1.794-1.077 1.993-.07.02-.146.001-.219.001l.046-.496c.319.037.529-.48.672-.673.026-.034.085-.041.1-.081.052-.139.061-.29.091-.433-.01-.16-.005-.32-.028-.476-.117-.75-.483-1.454-.926-2.06l.244-.435z" style="opacity:1;fill:#000;fill-opacity:1;stroke:#000;stroke-width:.04;stroke-linecap:butt;stroke-linejoin:miter;stroke-miterlimit:4;stroke-dasharray:none;stroke-dashoffset:0;stroke-opacity:1" transform="matrix(1.78536 0 0 1.78536 529.756 -1.871)"/><path d="M88.921-21.992c-.202-1.193-1.429-.975-2.3-.72-.313.218-.83.611-.753 1.082.013.076.078-.225.145-.184.135.083.133.292.233.415.132.164.303.292.455.438 1.145.862 2.463 1.683 3.183 2.97.108.193.167.408.25.612.005.191.084.397.012.575-.151.371-.346.752-.654 1.009-.584.486-2.536.229-3.166.055-.4-.11-.775-.288-1.163-.432-.746-.429-1.634-.874-2.074-1.666-.08-.143-.097-.31-.146-.466l.674-.58c-.01.105-.064.214-.03.313.266.759 1.22 1.158 1.817 1.552.877.335 1.245.55 2.193.623.329.025.662 0 .988-.048.22-.034.417-.227.637-.197.116.016.059.342.171.308.135-.041.09-.267.134-.4-.052-.18-.076-.368-.156-.536-.618-1.297-1.987-2.084-3.086-2.91-.226-.202-.89-.722-.963-1.076-.227-1.11.327-1.872 1.241-2.341 1.273-.319 2.576-.385 3.078 1.081l-.72.523zM91.128-33.555c-.084 3.633.41 7.238.856 10.833.215 1.879.569 3.738.914 5.596l-.663.591c-.337-1.87-.704-3.738-.922-5.627-.444-3.61-.963-7.225-.903-10.871zM97.376-21.9c-1.116 1-1.935 2.38-1.475 3.92.094.319.31.587.465.88.249.165.462.405.746.497.303.098.638.099.952.052 1.189-.177 1.98-1.049 2.263-2.188.056-.226-.02-.465-.03-.698-.101-.422-.129-.869-.305-1.265-.553-1.24-1.922-1.962-3.172-1.284-.175.094-.308.252-.461.379l-.235-.855c.206-.135.39-.308.616-.405 1.527-.658 3.148.087 3.88 1.551.218.435.276.931.413 1.397-.086.646-.077 1.313-.26 1.939-.473 1.623-2.356 2.753-4.003 2.19-.355-.121-.63-.41-.945-.614-.198-.335-.463-.639-.596-1.004-.722-1.985.447-4.106 1.931-5.354l.216.862zM104.313-21.449c.222 2.451.317 4.912.403 7.37.017.483.131 3.411.061 4.134-.053.551-.211 1.087-.317 1.631-.227.093-.445.347-.68.28-.933-.27-1.357-1.636-1.579-2.336-.455-1.433-.754-3.27-.785-4.763-.017-.813.1-1.624.15-2.437.5-2.26 1.019-4.141 2.934-5.593.773-.586 1.417-.856 2.365-.472.387.156.667.5 1.001.751.232.379.518.73.697 1.136.736 1.68.429 4.166-1.395 5.04-.342.164-.74.165-1.109.247-1.386-.232-.75-.02-1.923-.597l.294-.834c.971.524.445.331 1.59.55 1.117-.262.79-.042 1.69-.884.147-.137.336-.26.404-.448.438-1.226-.006-2.37-.635-3.418-.25-.224-.449-.522-.749-.672-.761-.379-1.304-.074-1.923.422-1.352 1.084-2.042 2.675-2.519 4.29-.066.792-.2 1.58-.198 2.374.006 1.528.283 3.187.697 4.658.144.51.349 1.003.553 1.493.089.213.152.458.324.612.067.06.169-.062.253-.094.05-.142.137-.276.15-.427.08-.988-.01-3.275-.04-4.12-.081-2.441-.181-4.884-.387-7.319l.673-.574zM110.338-19.492c.253-.062.514-.1.76-.187.741-.266 1.664-.732 2.004-1.503.074-.167.134-.374.066-.543-.036-.089-.134.138-.201.207-.097-.08-.171-.198-.29-.238-1.052-.356-2.033 1.024-2.315 1.817-.126.357-.129.746-.193 1.119.3.418.604.895 1.06 1.164 1.208.711 2.812.63 4.127.368.374-.074.731-.215 1.097-.323l.065.878c-.392.108-.776.25-1.175.323-1.463.268-3.2.314-4.534-.472-.383-.226-.794-.502-.977-.908-.237-.528-.137-1.15-.206-1.724.11-.402.156-.826.329-1.205.493-1.088 1.783-2.357 3.104-1.838.203.08.346.263.52.395.04.382.148.763.121 1.146-.093 1.351-2.278 2.209-3.378 2.412l.016-.888zM124.12-20.327c1.975.006 3.95.006 5.926.004.462-.041.681-.04 1.103-.137.073-.016.145-.037.213-.069.016-.007.03-.062.028-.045-.034.274-.083.545-.125.818l.32-.833c-.002.295.043.595-.005.886-.018.11-1.52.284-1.604.26-1.975-.002-3.95-.002-5.926.003l.07-.887zM138.778-30.36c.272 2.46.122 4.936.024 7.402-.019.486-.04.972-.062 1.459l-.74.497c.043-.484.054-.97.077-1.454.102-2.445.272-4.9.017-7.34l.684-.564zM134.535-19.731c2.591-.19 5.186-.345 7.78-.506l1.578-.1-.04.886c-.914.051-.389.021-1.577.091-2.605.159-5.21.32-7.81.516l.069-.887zM136.404-17.21c1.104-.661 2.475-1.111 3.761-.73.227.067.426.204.64.307.766.78.421 1.66-.27 2.334-1.09 1.062-.084-.057-1.099.774-.063.052-.083.142-.125.213.086-.195.064-.496.257-.585.163-.076.318.166.48.245.845.41 1.718.814 2.429 1.448.18.16.315.363.472.544.042.208.186.422.124.625-.121.405-.329.81-.642 1.095-.234.213-.59.234-.897.307a5.993 5.993 0 0 1-2.245.122c-.328-.048-.64-.174-.96-.26-.87-.48-.518-.186-1.097-.835l.485-.743c.356.557.111.293.81.717.284.081.558.2.85.244.694.103 1.381.045 2.06-.124.24-.06.449-.264.697-.263.116 0 .117.309.224.265.13-.052.077-.269.115-.403-.121-.163-.217-.348-.364-.487-.352-.335-1.148-.825-1.56-1.046-.256-.137-.529-.243-.791-.369-.21-.1-.504-.107-.623-.305-.177-.293-.114-.674-.17-1.011.378-.36.854-.578 1.204-.974.13-.148.168-.379.329-.493.057-.041.126.237.13.166.01-.128-.078-.244-.118-.366-.163-.09-.31-.212-.488-.269-1.155-.368-2.406.094-3.376.713l-.242-.856z" style="opacity:1;fill:#000;fill-opacity:1;stroke:#000;stroke-width:.0714144;stroke-linecap:butt;stroke-linejoin:miter;stroke-miterlimit:10;stroke-dasharray:none;stroke-dashoffset:0;stroke-opacity:1"/><path d="M95.894 63.23c.637-.46 1.291-.935 2.027-1.228.696-.278 1.034-.308 1.772-.454.335-.034.669-.09 1.006-.102 1.318-.05 2.895.144 4.014.898.276.186.504.435.756.653.183.253.393.487.547.758.698 1.224.558 2.5.112 3.776-.092.224-.185.433-.365.594l-.18-.465c.113-.165.192-.348.262-.535.079-.251.197-.494.233-.755.155-1.14-.122-2.035-.833-2.937-.232-.21-.44-.448-.696-.627-1.063-.741-2.6-.922-3.861-.87-.329.013-.654.068-.98.102-.716.146-1.028.172-1.7.448-.72.295-1.356.767-1.978 1.224l-.136-.48z" style="opacity:1;fill:#000;fill-opacity:1;stroke:#000;stroke-width:.04;stroke-linecap:butt;stroke-linejoin:miter;stroke-miterlimit:10;stroke-dasharray:none;stroke-dashoffset:0;stroke-opacity:1" transform="matrix(1.78536 0 0 1.78536 6.262 -133.67)"/><path d="M104.631 65.239c.43 1.14.681 2.34 1.129 3.473.022.046.06.088.065.14.002.02-.039-.02-.053-.035-.047-.048-.137-.088-.128-.154.024-.171.138-.318.213-.473.358-.733.35-.674.807-1.41.819-1.107 1.71-2.338 2.995-2.937l.084.49c-1.222.615-2.072 1.802-2.85 2.881-.439.727-.434.674-.774 1.396-.141.299-.145.56-.484.688-.111.042-.188-.18-.207-.217-.464-1.13-.704-2.337-1.135-3.48l.338-.362z" style="opacity:1;fill:#000;fill-opacity:1;stroke:#000;stroke-width:.04;stroke-linecap:butt;stroke-linejoin:miter;stroke-miterlimit:10;stroke-dasharray:none;stroke-dashoffset:0;stroke-opacity:1" transform="matrix(1.78536 0 0 1.78536 6.262 -133.67)"/><path d="M307.508 56.847c-.102 1.117-.092 2.237-.168 3.355-.038.547-.112 1.258-.166 1.811-.05.48-.095.959-.141 1.438l-.415.229c.05-.48.095-.961.147-1.442.049-.483.14-1.336.173-1.804.08-1.119.067-2.24.157-3.358l.413-.229zM304.873 64.486a1292.424 1292.424 0 0 0 6.089-.001l-.04.497-.84-.003c-1.75-.003-3.498-.003-5.247.002l.039-.495zM304.774 66.893c.891-.487 1.96-.78 2.984-.736.232.01.46.072.69.107.17.078.362.122.513.234.366.27.37.664.194 1.087-.173.417-1.169.778-1.544.94l-.505.183c-.123.038-.246.07-.367.113-.039.013-.111.094-.11.053.004-.54.032-.512.413-.453.153.024.304.062.456.093.793.297 1.478.816 1.925 1.544.091.148.18.302.23.47.044.148.031.308.047.463-.088.24-.111.516-.264.722-.11.15-.307.215-.48.283-.706.279-1.525.215-2.247.042-.249-.06-.486-.16-.728-.24-.244-.136-.62-.293-.802-.544-.056-.078-.065-.181-.097-.272l.384-.317c-.017.051-.071.105-.05.154.098.214.552.421.69.502.228.077.45.175.684.232.655.16 1.415.23 2.055-.04.128-.053.221-.17.345-.23.034-.017.075.003.113.004.01-.127.053-.257.029-.383-.03-.156-.11-.3-.188-.439-.386-.687-1.014-1.177-1.739-1.464-.141-.029-.282-.065-.424-.086-.104-.016-.249.057-.314-.025-.453-.57.06-.562.382-.673.165-.057.326-.12.489-.18.331-.148.756-.31 1.048-.54.104-.084.155-.223.263-.303.026-.019.091.077.085.045-.068-.355-.252-.332-.568-.488-.21-.034-.418-.094-.63-.103-.984-.04-2.006.25-2.854.732l-.108-.487z" style="opacity:1;fill:#000;fill-opacity:1;stroke:#000;stroke-width:.04;stroke-linecap:butt;stroke-linejoin:miter;stroke-miterlimit:10;stroke-dasharray:none;stroke-dashoffset:0;stroke-opacity:1" transform="matrix(1.78536 0 0 1.78536 80.986 -84.165)"/><path d="M88.954 57.95c.273 1.333.291 2.704.312 4.06-.05.052.103.843.087.863-.021.027-.053-.042-.08-.063l-.09.49c-.064-.028-.144-.035-.193-.085-.102-.103-.09-.823-.121-.913-.014-1.336-.033-2.683-.268-4.002l.353-.35zM86.426 64.151c.138 0 .275.006.413.002 1.134-.033.119-.037 1.448-.073.842-.023 1.686.003 2.528.025.617.022.342-.007.828.067l-.082.49c-.452-.073-.189-.042-.792-.066-.835-.023-1.672-.05-2.507-.025-.364.01-1.071.063-1.462.076-.138.004-.275 0-.413.001l.039-.497zM87.382 65.921c.762-.24 1.565-.56 2.37-.289.127.043.237.125.356.187.081.092.184.169.244.276.173.313.063.687-.088.985-.17.337-.795.577-1.116.719-.174.101-.382.117-.564.2-.007.003-.004.034-.002.025.035-.16-.012-.364.103-.481.08-.082.23.009.344.025.163.024.324.065.485.097.678.22 1.25.618 1.722 1.15.208.235.556.678.554 1.038-.002.27-.118.525-.177.788-.162.11-.304.256-.486.33-.984.398-2.327.039-3.172-.529-.19-.128-.344-.304-.516-.457l-.2-.424.336-.365.095.353c.15.144.282.31.453.43.742.524 1.996.89 2.875.514.13-.055.222-.173.333-.26.225-.075.22-.035.011-.489a2.28 2.28 0 0 0-.345-.498 3.505 3.505 0 0 0-1.574-1.095c-.151-.03-.3-.068-.452-.09-.112-.015-.257.057-.337-.022-.581-.576.085-.58.437-.73.244-.114.493-.208.7-.387.087-.074.128-.196.223-.259.026-.017.047.1.063.072.108-.193-.03-.305-.123-.451-.091-.055-.174-.129-.274-.165-.75-.271-1.518.082-2.23.297l-.048-.495z" style="opacity:1;fill:#000;fill-opacity:1;stroke:#000;stroke-width:.04;stroke-linecap:butt;stroke-linejoin:miter;stroke-miterlimit:10;stroke-dasharray:none;stroke-dashoffset:0;stroke-opacity:1" transform="matrix(1.78536 0 0 1.78536 -24.684 -157.772)"/></svg>