<svg xmlns="http://www.w3.org/2000/svg" width="400" height="200"><path d="M175.971 118.717c.393 2.023 2.178 3.332 3.743 4.416 5.077 3.518 10.564 5.13 17.396 5.248 4.076.071 8.417-.328 12.005-2.564 1.776-1.106 3.324-3.13 3.381-5.261.074-2.789-3.016-2.82-3.007-.001.004 1.48 1.28 2.91 2.28 3.866 4.1 3.913 9.542 4.768 14.942 5.16 7.645.556 14.27-.225 20.09-2.95 4.26-1.994 8.473-4.2 11.306-8.146.352-.49.696-1.202.875-1.886.804-3.058-3.26-2.776-4.088.313-.22.819-.034 1.735.266 2.498 1.093 2.785 3.336 4.091 5.799 5.203 5.67 2.559 11.352 3.347 16.47 3.165 4.295-.152 9.12-.656 12.939-2.762 2.876-1.586 5.457-4.339 5.822-7.777.175-1.65-.712-3.608-2.503-3.798l-.838.1c-2.488 1.104-.28 3.9 1.423 4.66 5.274 2.353 11.295 1.618 16.508-.318 4.353-1.616 8.441-4.454 10.782-8.636 3.236-5.566 3.077-13.001.864-18.876-1.835-4.87-5.846-10.43-11.385-12.517-2.261-.852-4.914-1.192-7.161-.152-1.64.759-2.604 3.022-1.689 4.7.46.889.504.363.424-.587-.35-1.845-2.098-2.801-3.437-3.546-5.855-3.256-12.457-3.984-18.85-4.513-7.255-.601-14.696.065-21.6 2.827-2.83 1.132-6.121 3.166-6.783 6.923-.16.903-.027 1.886.453 2.648.835 1.23 1.453.506 2.075-.173.989-2.421-.64-4.97-1.855-6.993-3.771-5.93-10.541-8.812-16.958-10.645-8.058-2.04-16.587-2.682-24.771-1.025-5.314 1.144-10.848 3.527-13.917 8.327-1.4 2.397-2.11 5.69-.516 8.17.445.613 1.287.392 1.503-.338.748-2.805-1.931-5.01-4.299-5.711-5.967-1.756-12.417-1.29-18.36.337-8.257 2.338-16.229 6.864-21.457 13.938-3.28 4.892-4.445 11.547-1.823 17.016 2.348 4.9 6.774 8.38 11.526 10.635 3.039 1.598 7.727 2.376 11.706 2.307 2.733-.048 5.18-.304 8.12-1.004" style="fill:#ffd5d5;stroke:#000;stroke-width:1.31859;stroke-miterlimit:4;stroke-dasharray:none"/><path d="M177.326 121.368" style="fill:none;stroke:#000;stroke-width:1.49519"/><path d="m132.031 94.823.186-.21M132.137 94.34l-.102.258" style="fill:#f4d7d7;fill-opacity:1;stroke:#000;stroke-width:1.31859;stroke-miterlimit:4;stroke-dasharray:none"/><path d="M131.478 94.526c-1.24-.907-2.761-1.254-4.236-1.473-.603-.09-1.21-.181-1.819-.193-.71-.015-1.42.078-2.13.117-.742.155-1.498.245-2.224.463-2.065.62-4.115 1.749-5.4 3.615-1.067 1.551-.971 2.127-1.3 3.954.061.734.038 1.482.186 2.203.637 3.108 2.713 5.77 5.24 7.44.644.426 1.354.728 2.03 1.091.722.225 1.428.522 2.167.674 2.188.452 4.443.21 6.538-.562 1.839-.677 2.236-1.087 3.862-2.184.515-.48 1.072-.916 1.546-1.442 1.248-1.387 2.201-3.144 2.351-5.078.116-1.492-.166-1.964-.581-3.354-.27-.489-.5-1.004-.81-1.466-1.049-1.562-2.757-3.018-4.45-3.74-.34-.145-.698-.228-1.047-.341M100.585 99.608c1.994.56 2.916 2.698 2.8 4.394-.178 2.597-2.12 4.96-4.663 5.538-2.538.578-5.412-.019-7.269-1.913-1.35-1.377-1.948-3.41-1.606-5.267.471-2.554 2.146-4.284 4.295-4.865 2.669-.723 5.18.015 7.146 1.739" style="fill:#ffd5d5;fill-opacity:1;stroke:#000;stroke-width:1.31859;stroke-miterlimit:4;stroke-dasharray:none"/><path d="M22.28 58.79c.072.018.15.023.207.054.142.076.207.11.282.26a.53.53 0 0 1-.067.564.609.609 0 0 1-.17.164c-.224.129-.3.173-.572.182a1.388 1.388 0 0 1-1.084-.501 1.074 1.074 0 0 1-.14-.217c-.1-.21-.131-.54.073-.703a.52.52 0 0 1 .166-.094.876.876 0 0 1 .234-.031c.3-.01.692.06.94.24.028.02.049.048.073.072M-8.734 34.434a.984.984 0 0 1 .436.349c.232.352.238.817.098 1.204-.103.281-.294.524-.502.734a1.592 1.592 0 0 1-1.77.314c-.69-.327-1.103-.664-1.443-1.365a1.18 1.18 0 0 1-.01-.985c.152-.302.372-.563.674-.677.543-.205 1.142-.097 1.69.031.336.079.729.155.935.44a.772.772 0 0 0 .044.067" style="fill:#ffd5d5;fill-opacity:1;stroke:#000;stroke-width:.35;stroke-miterlimit:4;stroke-dasharray:none"/><path d="M48.862-8.325c.004.03.005.06.014.09.143.458.6.784.962 1.057.808.547 1.745.867 2.694 1.067.255.054.513.091.77.137.275.03.55.068.825.09.98.081 2.05.102 2.996-.208.191-.062.37-.158.553-.238.15-.101.31-.188.447-.304.314-.266.56-.635.624-1.046.042-.27.003-.34-.055-.588-.037-.06-.061-.13-.111-.18-.161-.161-.387-.09-.517.068-.125.152-.11.263-.132.45.026.102.04.208.076.306.21.558.678.976 1.174 1.28.164.101.34.183.51.274.217.079.43.17.653.236 1.212.353 2.507.387 3.756.28.399-.035.795-.098 1.192-.146 1.139-.196 2.287-.432 3.358-.882a8.14 8.14 0 0 0 .882-.442c.653-.373.718-.472 1.249-.935.115-.142.245-.274.347-.427.188-.285.391-.81.038-1.069-.05-.036-.115-.046-.172-.07-.062.005-.127 0-.187.016-.288.078-.486.366-.552.643-.018.08-.019.163-.029.244.024.383.173.735.44 1.013.187.195.282.237.511.383.947.467 1.987.694 3.013.91 1 .173 2.014.348 3.033.317.67-.02.818-.075 1.464-.198.213-.066.43-.119.639-.2a3.962 3.962 0 0 0 1.46-.959c.306-.326.323-.418.525-.8.04-.136.098-.267.122-.407.072-.402-.032-.893-.427-1.094-.072-.037-.155-.045-.233-.068-.076.01-.155.002-.227.027a.446.446 0 0 0-.296.56c.074.258.208.33.4.508.126.073.247.157.38.218.757.344 1.662.414 2.479.323.266-.03.528-.088.792-.132.27-.073.544-.13.81-.22.793-.264 1.574-.657 2.214-1.201.568-.483.622-.645 1.044-1.252.114-.257.255-.504.344-.77.3-.891.314-1.847.148-2.765-.159-.875-.308-1.13-.634-1.952-.166-.293-.311-.598-.497-.878-.514-.777-1.177-1.442-2.039-1.823-.617-.273-.82-.243-1.46-.303-.443.093-.648.064-.979.39-.225.222-.315.597-.24.9.01.048.044.087.067.131.038-.004.106.025.114-.012.035-.162-.233-.378-.305-.434-.538-.42-1.126-.593-1.76-.814-.34-.08-.675-.173-1.016-.24-.802-.159-1.75-.281-2.559-.343-1.108-.084-1.896-.1-3.01-.01-.491.04-.979.121-1.469.182-1.05.223-2.169.43-3.026 1.132-.297.243-.512.54-.591.917-.025.117.002.239.003.358.04.084.06.18.12.252.157.19.43.16.563-.038.113-.168.08-.34.08-.529-.026-.113-.042-.229-.078-.34-.192-.58-.625-1.215-1.034-1.66-.141-.154-.298-.294-.448-.44-.211-.153-.413-.318-.634-.456-1.21-.759-2.64-1.23-4.036-1.494-.433-.082-.871-.126-1.306-.189-.456-.03-.91-.082-1.367-.092-1.645-.035-3.438.162-4.933.895-.298.146-.568.344-.852.516-.21.191-.442.363-.632.575-.42.467-.7 1.054-.733 1.685-.018.343.033.435.122.74.041.072.069.152.122.214.147.171.326.094.408-.09.064-.144.033-.277.02-.427-.027-.081-.045-.167-.083-.244-.213-.438-.658-.693-1.103-.844-.165-.057-.337-.092-.506-.138a9.425 9.425 0 0 0-2.954-.074c-.337.043-.673.091-1.004.166-.394.09-.78.218-1.169.328-.41.16-.828.295-1.228.478-.826.379-1.627.853-2.343 1.414-.604.475-1.296 1.143-1.715 1.8-.207.324-.336.693-.504 1.04-.08.356-.203.706-.239 1.07-.068.687.035 1.457.314 2.092.153.347.36.671.59.972.615.801.973.976 1.777 1.566.872.434 1.21.675 2.176.87.911.183 1.454.118 2.369.093" style="fill:#ffd5d5;stroke:#000;stroke-width:.35;stroke-miterlimit:4;stroke-dasharray:none"/><path d="m104.056 236.442-.248.095q-.267.095-.762.19-.495.096-1.104.134h-.362v-.876h.362q.895-.038 1.657-.286.761-.247 1.066-.457.304-.21.533-.419.038-.057.228-.057.172 0 .324.115v5.693l.02 5.712q.132.133.228.17.095.039.457.077.361.038 1.18.038h.495v.876h-.21q-.4-.057-3.027-.057-2.59 0-2.989.057h-.228v-.876h1.218q.305 0 .476-.019.171-.019.305-.057.133-.038.152-.038.02 0 .114-.095.095-.095.115-.076zM111.348 236.309q1.066-1.543 2.913-1.543.914 0 1.828.495t1.485 1.752q.704 1.58.704 4.341 0 2.951-.818 4.513-.381.8-1.048 1.275-.666.476-1.161.59-.495.115-.971.134-.495 0-.99-.114-.495-.115-1.162-.61-.666-.495-1.047-1.275-.818-1.562-.818-4.513 0-3.313 1.085-5.045zm4.284-.229q-.571-.61-1.352-.61-.8 0-1.37.61-.477.495-.63 1.371-.152.876-.152 3.656 0 3.008.153 3.96.152.952.685 1.504.533.571 1.314.571.762 0 1.295-.57.552-.572.685-1.6t.152-3.865q0-2.761-.152-3.637-.152-.876-.628-1.39zM121.926 231.822l-.175.067q-.188.068-.538.135-.35.067-.78.094h-.257v-.62h.256q.633-.026 1.171-.201.539-.175.754-.323.215-.148.377-.296.027-.04.162-.04.12 0 .228.08v4.025l.014 4.038q.094.095.161.122.068.026.323.053.256.027.835.027h.35v.62h-.148q-.283-.04-2.14-.04-1.831 0-2.114.04h-.161v-.62h.861q.216 0 .337-.013.12-.014.215-.04.094-.027.108-.027.013 0 .08-.068.068-.067.081-.054zM127.257 233.828q-.363 0-.579-.243-.215-.242-.215-.592 0-.956.713-1.656.714-.7 1.777-.7 1.225 0 2.046.754.821.754.835 1.952 0 .579-.27 1.104-.269.525-.646.915-.376.39-1.076.996-.485.418-1.347 1.239l-.794.754 1.023.013q2.114 0 2.248-.067.095-.027.323-1.198v-.04h.539v.04q-.014.04-.175 1.225-.162 1.184-.202 1.238v.04h-4.994V239.186q0-.094.08-.202.081-.107.404-.47.39-.432.673-.755l.458-.498q.337-.363.458-.498.12-.134.39-.444t.377-.458q.108-.148.31-.404.202-.255.282-.43.081-.175.202-.39.121-.216.175-.431.054-.216.095-.404.04-.189.04-.445 0-.848-.458-1.467-.457-.619-1.306-.619-.444 0-.78.229-.337.229-.471.444-.135.215-.135.256 0 .013.067.013.243 0 .498.189.256.188.256.619 0 .336-.215.565-.216.23-.606.243zM140.784 240.84q0-.247.266-.38h12.129q.285.152.285.38 0 .21-.266.362l-6.055.019h-6.055q-.304-.095-.304-.38zm0 3.694q0-.286.304-.38h12.11q.266.19.266.38 0 .247-.285.38H141.05q-.266-.133-.266-.38zM163.88 236.442l-.248.095q-.267.095-.762.19-.495.096-1.104.134h-.362v-.876h.362q.895-.038 1.656-.286.762-.247 1.066-.457.305-.21.534-.419.038-.057.228-.057.171 0 .324.115v5.693l.019 5.712q.133.133.228.17.095.039.457.077t1.18.038h.496v.876h-.21q-.4-.057-3.027-.057-2.59 0-2.99.057h-.228v-.876H162.718q.304 0 .476-.019.171-.019.304-.057.134-.038.153-.038.019 0 .114-.095t.114-.076zM171.172 236.309q1.066-1.543 2.913-1.543.914 0 1.827.495.914.495 1.486 1.752.704 1.58.704 4.341 0 2.951-.819 4.513-.38.8-1.047 1.275-.666.476-1.161.59-.495.115-.971.134-.495 0-.99-.114-.495-.115-1.162-.61-.666-.495-1.047-1.275-.819-1.562-.819-4.513 0-3.313 1.086-5.045zm4.284-.229q-.572-.61-1.352-.61-.8 0-1.371.61-.476.495-.629 1.371-.152.876-.152 3.656 0 3.008.152 3.96.153.952.686 1.504.533.571 1.314.571.761 0 1.294-.57.553-.572.686-1.6t.152-3.865q0-2.761-.152-3.637-.152-.876-.628-1.39zM179.437 235.386q0-2.194 1.09-3.473 1.09-1.28 2.423-1.28.929 0 1.333.485.404.485.404 1.077 0 .337-.189.539-.188.202-.525.202-.31 0-.511-.189-.202-.188-.202-.525 0-.592.632-.713-.296-.296-.834-.337-.956 0-1.575.808-.633.888-.633 2.72l.014.053q.067-.08.107-.175.552-.808 1.44-.808h.055q.619 0 1.09.256.323.189.646.539.323.35.525.767.283.66.283 1.44v.243q0 .31-.068.578-.148.795-.861 1.548-.714.754-1.804.754-.377 0-.727-.107-.35-.108-.754-.404-.403-.296-.686-.795-.283-.498-.485-1.305-.202-.808-.188-1.898zm2.894-1.131q-.404 0-.7.229-.296.229-.458.606-.161.376-.229.767-.067.39-.08.834 0 1.118.161 1.602.162.485.512.781.323.242.713.242.687 0 1.05-.511.175-.242.242-.606.068-.363.068-1.413 0-1.077-.068-1.44-.067-.364-.242-.606-.363-.485-.97-.485zM203.749 246.895q0 .38-.4.38-.095 0-.419-.304-.323-.305-1.79-1.77l-1.98-1.98-1.999 1.998q-2.018 1.98-2.075 2.019-.076.038-.134.038-.152 0-.266-.115-.114-.114-.133-.266 0-.133.266-.419.267-.286 1.79-1.809l1.98-1.98-1.98-1.98q-1.542-1.542-1.79-1.809-.247-.267-.266-.419 0-.171.114-.266.114-.096.285-.096.096 0 .134.02.057.038 2.075 2.018l2 1.999 1.98-1.98q1.466-1.466 1.79-1.771.323-.305.418-.305.4 0 .4.381 0 .133-.19.343-.19.21-1.866 1.866l-1.98 1.999 1.98 2q1.599 1.599 1.827 1.846.229.248.229.362zM214.868 236.442l-.247.095q-.267.095-.762.19-.495.096-1.104.134h-.362v-.876h.362q.895-.038 1.656-.286.762-.247 1.067-.457.304-.21.533-.419.038-.057.228-.057.172 0 .324.115v5.693l.019 5.712q.133.133.228.17.096.039.457.077.362.038 1.18.038h.496v.876h-.21q-.4-.057-3.027-.057-2.59 0-2.99.057h-.228v-.876H213.707q.305 0 .476-.019.171-.019.305-.057.133-.038.152-.038.019 0 .114-.095t.114-.076zM222.16 236.309q1.067-1.543 2.914-1.543.914 0 1.828.495t1.485 1.752q.704 1.58.704 4.341 0 2.951-.819 4.513-.38.8-1.047 1.275-.666.476-1.161.59-.495.115-.971.134-.495 0-.99-.114-.495-.115-1.162-.61-.666-.495-1.047-1.275-.819-1.562-.819-4.513 0-3.313 1.086-5.045zm4.285-.229q-.572-.61-1.352-.61-.8 0-1.371.61-.476.495-.628 1.371-.153.876-.153 3.656 0 3.008.153 3.96.152.952.685 1.504.533.571 1.314.571.761 0 1.295-.57.552-.572.685-1.6t.152-3.865q0-2.761-.152-3.637-.152-.876-.628-1.39zM230.426 235.386q0-2.194 1.09-3.473 1.09-1.28 2.423-1.28.93 0 1.333.485.404.485.404 1.077 0 .337-.189.539-.188.202-.525.202-.31 0-.511-.189-.202-.188-.202-.525 0-.592.633-.713-.297-.296-.835-.337-.956 0-1.575.808-.633.888-.633 2.72l.014.053q.067-.08.107-.175.552-.808 1.44-.808h.055q.619 0 1.09.256.323.189.646.539.323.35.525.767.283.66.283 1.44v.243q0 .31-.067.578-.149.795-.862 1.548-.713.754-1.804.754-.377 0-.727-.107-.35-.108-.754-.404-.403-.296-.686-.795-.283-.498-.485-1.305-.202-.808-.188-1.898zm2.894-1.131q-.404 0-.7.229-.296.229-.458.606-.161.376-.228.767-.068.39-.081.834 0 1.118.161 1.602.162.485.512.781.323.242.713.242.687 0 1.05-.511.175-.242.243-.606.067-.363.067-1.413 0-1.077-.067-1.44-.068-.364-.243-.606-.363-.485-.969-.485zM175.809 97.6l-.23.09q-.248.088-.709.176-.46.089-1.027.124h-.336v-.814h.336q.833-.036 1.541-.266t.992-.425q.283-.195.495-.39.036-.052.213-.052.16 0 .3.106v5.294l.019 5.312q.124.124.212.16.089.035.425.07.337.036 1.098.036h.46v.815h-.194q-.372-.054-2.816-.054-2.408 0-2.78.054h-.212v-.815h1.133q.283 0 .443-.018.159-.017.283-.053.124-.035.141-.035.018 0 .107-.089.088-.088.106-.07zM182.59 97.477q.992-1.434 2.71-1.434.85 0 1.7.46t1.381 1.629q.655 1.47.655 4.037 0 2.745-.761 4.197-.354.744-.974 1.186-.62.443-1.08.55-.46.105-.903.123-.46 0-.921-.106-.46-.106-1.08-.567-.62-.46-.974-1.186-.761-1.452-.761-4.197 0-3.08 1.009-4.692zm3.985-.213q-.531-.566-1.257-.566-.744 0-1.275.566-.443.46-.585 1.275-.141.815-.141 3.4 0 2.798.141 3.683.142.885.638 1.399.496.531 1.222.531.708 0 1.204-.531.513-.531.637-1.487.124-.957.142-3.595 0-2.568-.142-3.382-.141-.815-.584-1.293zM192.429 93.304l-.163.063q-.175.062-.5.125-.326.063-.727.088h-.238v-.576h.238q.589-.025 1.09-.188.5-.163.7-.3.2-.138.35-.276.026-.037.151-.037.113 0 .213.075v3.743l.013 3.756q.087.087.15.112.062.025.3.05t.776.025h.326v.576h-.138q-.263-.037-1.99-.037-1.703 0-1.966.037h-.15v-.576H191.665q.2 0 .313-.012.113-.013.2-.038.088-.025.1-.025.013 0 .076-.062.062-.063.075-.05zM197.386 95.17q-.338 0-.538-.226-.2-.225-.2-.55 0-.89.663-1.54.664-.651 1.653-.651 1.139 0 1.903.7.763.702.776 1.816 0 .538-.25 1.026-.251.489-.602.852-.35.363-1.001.926-.45.388-1.252 1.152l-.739.7.952.013q1.965 0 2.09-.062.088-.025.301-1.114v-.038h.5v.038q-.012.037-.162 1.139t-.188 1.152v.037h-4.644v-.388q0-.088.075-.188t.375-.438q.363-.4.626-.7.113-.126.426-.464t.426-.463l.363-.413q.25-.288.35-.426.1-.138.288-.376.188-.238.263-.4.075-.163.188-.363.112-.2.163-.401.05-.2.087-.376.038-.175.038-.413 0-.788-.426-1.364-.426-.576-1.214-.576-.413 0-.726.213t-.438.413q-.126.2-.126.238 0 .012.063.012.225 0 .463.176.238.175.238.575 0 .313-.2.526-.2.213-.564.226zM209.966 101.691q0-.23.248-.354h11.28q.265.142.265.354 0 .195-.248.337l-5.63.017h-5.632q-.283-.088-.283-.354zm0 3.435q0-.265.283-.354h11.262q.248.177.248.354 0 .23-.265.354h-11.28q-.248-.123-.248-.354zM231.445 97.6l-.23.09q-.248.088-.708.176-.46.089-1.028.124h-.336v-.814h.336q.833-.036 1.541-.266t.992-.425q.283-.195.495-.39.036-.052.213-.052.16 0 .3.106v5.294l.019 5.312q.124.124.212.16.089.035.425.07.337.036 1.098.036h.46v.815h-.194q-.372-.054-2.816-.054-2.408 0-2.78.054h-.212v-.815h1.133q.283 0 .443-.018.159-.017.283-.053.124-.035.142-.035.017 0 .106-.089.088-.088.106-.07zM238.227 97.477q.991-1.434 2.71-1.434.849 0 1.699.46.85.46 1.381 1.629.655 1.47.655 4.037 0 2.745-.761 4.197-.354.744-.974 1.186-.62.443-1.08.55-.46.105-.903.123-.46 0-.921-.106-.46-.106-1.08-.567-.62-.46-.974-1.186-.761-1.452-.761-4.197 0-3.08 1.009-4.692zm3.984-.213q-.531-.566-1.257-.566-.744 0-1.275.566-.443.46-.584 1.275-.142.815-.142 3.4 0 2.798.142 3.683.141.885.637 1.399.496.531 1.222.531.708 0 1.204-.531.513-.531.637-1.487.124-.957.142-3.595 0-2.568-.142-3.382-.141-.815-.584-1.293zM245.914 96.619q0-2.041 1.014-3.23 1.014-1.19 2.253-1.19.864 0 1.24.451.375.45.375 1.002 0 .312-.175.5-.176.188-.489.188-.288 0-.475-.175-.188-.175-.188-.488 0-.551.588-.664-.275-.275-.776-.313-.889 0-1.465.751-.588.826-.588 2.529l.013.05q.062-.075.1-.163.513-.75 1.34-.75h.05q.575 0 1.013.237.3.175.601.5.3.326.488.714.263.614.263 1.34v.225q0 .288-.062.539-.138.738-.801 1.44-.664.7-1.678.7-.35 0-.676-.1-.325-.1-.701-.375-.376-.276-.639-.739-.262-.463-.45-1.214-.188-.751-.175-1.765zm2.691-1.052q-.375 0-.65.213-.276.213-.427.563-.15.35-.212.714-.063.363-.075.776 0 1.039.15 1.49.15.45.475.726.3.225.664.225.638 0 .976-.476.163-.225.226-.563.062-.338.062-1.315 0-1.001-.062-1.339-.063-.338-.226-.563-.338-.451-.9-.451zM268.524 107.322q0 .354-.372.354-.089 0-.39-.283-.3-.283-1.664-1.647l-1.842-1.841-1.859 1.859q-1.877 1.841-1.93 1.877-.07.035-.124.035-.142 0-.248-.106-.106-.106-.124-.248 0-.124.248-.39.248-.265 1.665-1.682l1.841-1.841-1.841-1.842q-1.435-1.434-1.665-1.682-.23-.248-.248-.39 0-.159.107-.247.106-.089.265-.089.089 0 .124.018.053.035 1.93 1.877l1.86 1.859 1.841-1.842q1.363-1.363 1.664-1.646.301-.284.39-.284.372 0 .372.354 0 .124-.177.32-.177.194-1.736 1.734l-1.841 1.86 1.841 1.859q1.488 1.487 1.7 1.718.213.23.213.336zM278.865 97.6l-.23.09q-.248.088-.709.176-.46.089-1.027.124h-.336v-.814h.336q.833-.036 1.54-.266.71-.23.993-.425.283-.195.495-.39.036-.052.213-.052.16 0 .3.106v5.294l.019 5.312q.123.124.212.16.089.035.425.07.336.036 1.098.036h.46v.815h-.195q-.371-.054-2.815-.054-2.408 0-2.78.054h-.213v-.815H277.785q.283 0 .442-.018.16-.017.284-.053.124-.035.141-.035.018 0 .107-.089.088-.088.106-.07zM285.647 97.477q.991-1.434 2.709-1.434.85 0 1.7.46t1.381 1.629q.655 1.47.655 4.037 0 2.745-.761 4.197-.354.744-.974 1.186-.62.443-1.08.55-.46.105-.903.123-.46 0-.921-.106-.46-.106-1.08-.567-.62-.46-.974-1.186-.762-1.452-.762-4.197 0-3.08 1.01-4.692zm3.984-.213q-.531-.566-1.257-.566-.744 0-1.275.566-.443.46-.585 1.275-.141.815-.141 3.4 0 2.798.141 3.683.142.885.638 1.399.496.531 1.222.531.708 0 1.204-.531.513-.531.637-1.487.124-.957.142-3.595 0-2.568-.142-3.382-.141-.815-.584-1.293zM293.333 96.619q0-2.041 1.014-3.23 1.014-1.19 2.254-1.19.864 0 1.24.451.375.45.375 1.002 0 .312-.175.5-.176.188-.489.188-.288 0-.475-.175-.188-.175-.188-.488 0-.551.588-.664-.275-.275-.776-.313-.889 0-1.465.751-.588.826-.588 2.529l.012.05q.063-.075.1-.163.514-.75 1.34-.75h.05q.576 0 1.014.237.3.175.601.5.3.326.488.714.263.614.263 1.34v.225q0 .288-.062.539-.138.738-.802 1.44-.663.7-1.677.7-.35 0-.676-.1-.326-.1-.701-.375-.376-.276-.639-.739-.263-.463-.45-1.214-.188-.751-.176-1.765zm2.692-1.052q-.376 0-.651.213t-.426.563q-.15.35-.212.714-.063.363-.076.776 0 1.039.15 1.49.15.45.476.726.3.225.664.225.638 0 .976-.476.163-.225.226-.563.062-.338.062-1.315 0-1.001-.062-1.339-.063-.338-.226-.563-.338-.451-.901-.451z"/></svg>