<svg xmlns="http://www.w3.org/2000/svg" xmlns:xlink="http://www.w3.org/1999/xlink" width="92.755" height="43.071" aria-hidden="true" viewBox="0 -18.033 92.755 43.071"><defs><path id="a" stroke-width="1" d="m304-161-12-16C134-87 48 82 48 252c0 185 87 329 247 424l9-16C165 541 134 448 134 255c0-186 30-299 170-416Z"/><path id="b" stroke-width="1" d="m305 288 45 69c26 40 61 84 111 84 32 0 49-12 49-33 0-19-13-42-39-42-22 0-27 9-44 9-30 0-41-16-55-38l-55-85c30-62 53-197 98-197 16 0 40 14 61 57l14-10C478 87 433-9 375-9c-41 0-60 41-73 77l-40 113-63-98C167 34 138-9 82-9 46-9 30 16 30 38c0 16 13 37 38 37 26 0 22-20 47-20 12 0 38 10 70 59l65 101-33 92c-17 48-43 89-98 89-13 0-28-2-38-6l-3 18 132 33c44-24 63-65 75-98z"/><path id="c" stroke-width="1" d="M856 258v-10c-96-41-172-115-238-191l-20 19c23 33 52 65 82 96 9 9 14 20 14 28 0 10-8 20-26 20H70v66h599c10 0 26 12 26 22 0 9-4 15-14 25-29 28-60 63-82 96l20 19c65-75 141-150 237-190Z"/><path id="d" stroke-width="1" d="m61 510-16 4c29 95 92 162 196 162 93 0 156-55 156-137 0-48-26-98-93-138 44-19 62-31 83-53 28-31 44-77 44-129 0-53-17-102-46-140-48-64-143-93-232-93C80-14 41 7 41 43c0 21 18 36 41 36 17 0 33-6 61-26 37-26 58-31 86-31 74 0 130 68 130 153 0 76-35 125-104 145-22 7-45 10-102 10v14c38 13 64 24 84 36 49 28 81 73 81 134 0 68-42 102-108 102-62 0-108-32-149-106z"/><path id="e" stroke-width="1" d="m29 660 12 16c153-92 244-259 244-429 0-185-88-327-247-424l-9 16C171-44 199 50 199 244c0 187-25 302-170 416Z"/><path id="f" stroke-width="1" d="m446 684 2-16c-157-26-269-134-296-285 49 38 83 45 127 45 117 0 189-80 189-209 0-64-18-120-51-160-37-46-93-73-159-73-79 0-142 37-177 101-28 51-47 122-47 192 0 108 38 203 109 276 86 90 165 114 303 129zm-68-496c0 128-42 194-135 194-57 0-116-24-116-116 0-152 48-252 142-252 72 0 109 72 109 174z"/></defs><rect width="11.89" height="14.102" x="5.807" y="-11.812" ry="4.36" style="fill:#faa;stroke:none;stroke-width:.600001;stroke-linejoin:round;stroke-miterlimit:2"/><rect width="11.89" height="14.102" x="75.762" y="-11.812" ry="4.36" style="fill:#faa;stroke:none;stroke-width:.600001;stroke-linejoin:round;stroke-miterlimit:2"/><g transform="scale(.01904 -.01904)"><use xlink:href="#a"/><use xlink:href="#b" x="333"/><use xlink:href="#c" x="1161"/><g transform="translate(2366)"><use xlink:href="#b"/><use xlink:href="#d" x="778" y="583" transform="scale(.707)"/></g><use xlink:href="#e" x="3370"/><use xlink:href="#a" x="3703"/><use xlink:href="#f" x="4037"/><use xlink:href="#e" x="4537"/></g><path d="M9.861 1.935c.33 3.174-2.186 6.488-.38 9.48 1.971 2.51 4.514 5.34 8.039 5.012 2.986.17 6.577-.249 8.828 2.147 1.951 2.456 5.188 2.024 7.95 1.99 5.522.213 10.14-3.6 15.602-3.81 3.768-.777 7.178 1.366 10.122 3.422.76.659 4.472.615 6.581.485 3.611.006 6.781-2 9.374-4.325 1.845-1.104-1.862 1.058.564-.287 3.008-1.359 7.025.612 9.397-2.23 1.776-2.648 1.461-6.283-.264-8.884-1.433-1.31.102-4.722-2.535-3.699l-2.907.275c-.306 2.76 1.367 5.117 2.352 7.544.526 1.362-1.495 3.124.593 1.66-1.856.682-4.71-.044-6.88.79-2.422.51-4.156 2.4-6.107 3.757 2.183-1.272-2.303 1.512-3.345.929-1.725.042-4.701.18-4.489.122-3.611-2.618-7.97-4.846-12.571-4.015-4.506.138-8.477 2.395-12.72 3.584-1.922.493-5.238-.018-6.358.397-2.079-1.737-4.25-3.78-7.158-3.896-2.383-.488-4.832-.292-7.23-.514-2.435-1.351-3.674-3.587-2.327-6.212-.048-1.328 1.496-4.813-.902-4.027l-3.229.305z" style="fill:#faa;stroke:none;stroke-width:.6;stroke-linejoin:round;stroke-miterlimit:2"/></svg>