<svg xmlns="http://www.w3.org/2000/svg" xmlns:xlink="http://www.w3.org/1999/xlink" width="365" height="249.26"><defs><symbol id="a" overflow="visible" style="overflow:visible"><path d="M6.563-2.297c.171 0 .359 0 .359-.203 0-.188-.188-.188-.36-.188h-5.39c-.172 0-.344 0-.344.188 0 .203.172.203.344.203zm0 0" style="stroke:none"/></symbol><symbol id="b" overflow="visible" style="overflow:visible"><path d="M1.531-3.297c.578 0 .813.031 1.047.11.625.234 1.016.796 1.016 1.484 0 .828-.578 1.484-1.313 1.484-.265 0-.469-.078-.828-.312-.312-.172-.469-.25-.64-.25-.235 0-.391.14-.391.36 0 .343.437.562 1.14.562.766 0 1.547-.266 2.016-.672.469-.406.735-.985.735-1.656 0-.5-.172-.97-.454-1.282-.203-.219-.39-.344-.828-.531.688-.469.938-.828.938-1.375 0-.813-.64-1.36-1.563-1.36-.5 0-.937.173-1.297.485-.296.266-.437.531-.656 1.125l.14.047c.407-.734.86-1.063 1.485-1.063.656 0 1.11.438 1.11 1.063a1.4 1.4 0 0 1-.407.969c-.297.296-.578.453-1.25.687zm0 0" style="stroke:none"/></symbol><symbol id="c" overflow="visible" style="overflow:visible"><path d="M2.531-6.734c-.547 0-.969.171-1.328.515-.578.563-.969 1.703-.969 2.875 0 1.078.329 2.25.797 2.813A1.87 1.87 0 0 0 2.5.14c.5 0 .922-.172 1.281-.516.578-.547.969-1.703.969-2.922 0-2.031-.906-3.437-2.219-3.437zm-.031.25c.844 0 1.281 1.125 1.281 3.218 0 2.079-.437 3.141-1.281 3.141-.86 0-1.297-1.063-1.297-3.14 0-2.11.438-3.22 1.297-3.22zm0 0" style="stroke:none"/></symbol><symbol id="d" overflow="visible" style="overflow:visible"><path d="M4.453-6.813c-1.14.094-1.719.282-2.453.797C.922-5.25.344-4.109.344-2.78c0 .875.265 1.75.687 2.25.39.437.922.672 1.547.672 1.235 0 2.094-.954 2.094-2.329 0-1.265-.734-2.078-1.875-2.078-.438 0-.656.063-1.281.454.265-1.516 1.39-2.594 2.953-2.844Zm-2.047 3c.86 0 1.36.72 1.36 1.97 0 1.093-.391 1.702-1.079 1.702-.89 0-1.421-.937-1.421-2.484 0-.5.078-.781.28-.938.204-.156.516-.25.86-.25Zm0 0" style="stroke:none"/></symbol><symbol id="f" overflow="visible" style="overflow:visible"><path d="M4-1.11c-.078.094-.125.157-.219.266-.219.313-.344.406-.453.406-.14 0-.234-.124-.312-.406-.016-.078-.032-.14-.032-.172-.25-1.015-.359-1.468-.359-1.609.438-.781.797-1.219.969-1.219.062 0 .14.031.25.078.11.079.187.094.265.094.204 0 .344-.14.344-.36 0-.202-.172-.359-.406-.359-.438 0-.813.36-1.5 1.422l-.11-.547c-.14-.687-.25-.875-.53-.875-.22 0-.548.079-1.157.282l-.11.046.032.141c.39-.078.469-.11.562-.11.25 0 .313.095.454.688l.28 1.235-.812 1.156C.953-.641.75-.47.641-.47a.554.554 0 0 1-.25-.094.755.755 0 0 0-.329-.093c-.187 0-.328.14-.328.344 0 .265.204.421.5.421.297 0 .422-.093.922-.703.266-.312.485-.578.89-1.156L2.36-.562c.125.515.25.671.579.671.374 0 .624-.234 1.203-1.14zm0 0" style="stroke:none"/></symbol><symbol id="e" overflow="visible" style="overflow:visible"><path d="M.156-3.984c.125-.032.188-.047.297-.047.578 0 .719.25 1.188 1.968.156.641.406 1.813.406 1.985 0 .156-.063.312-.219.5-.297.406-.5.672-.61.781C1 1.422.892 1.5.75 1.5c-.047 0-.125-.031-.234-.11-.141-.109-.25-.171-.36-.171a.387.387 0 0 0-.39.39c0 .25.218.438.5.438.64 0 1.953-1.485 3.03-3.469.673-1.219.954-1.937.954-2.422a.554.554 0 0 0-.547-.547c-.234 0-.39.141-.39.36 0 .156.078.265.28.39.188.11.25.204.25.344 0 .39-.359 1.172-1.218 2.578l-.188-1.156c-.156-.875-.718-2.516-.859-2.516h-.125l-.984.172a1.759 1.759 0 0 1-.313.063zm0 0" style="stroke:none"/></symbol></defs><path d="M-72.425-132.436h227.621m-227.621 20.695h227.621M-72.425-91.05h227.621M-72.425-70.358h227.621M-72.425-49.663h227.621M-72.425-28.97h227.621M-72.425-8.276h227.621M-62.077-136.573V-2.069m20.691-134.504V-2.069m20.692-134.504V-2.069M0-136.573V-2.069m20.691-134.504V-2.069m20.696-134.504V-2.069m20.69-134.504V-2.069M82.77-136.573V-2.069m20.696-134.504V-2.069m20.691-134.504V-2.069m20.695-134.504V-2.069" style="fill:none;stroke:#9e9ed1;stroke-width:.19925;stroke-linecap:butt;stroke-linejoin:miter;stroke-miterlimit:10;stroke-opacity:1" transform="matrix(1.47326 0 0 -1.47326 107.848 32.71)"/><path d="M-72.425-132.436h231.762M0-136.573V5.173" style="fill:none;stroke:#000;stroke-width:.3985;stroke-linecap:butt;stroke-linejoin:miter;stroke-miterlimit:10;stroke-opacity:1" transform="matrix(1.47326 0 0 -1.47326 107.848 32.71)"/><path d="M159.263-132.436h-.79" style="fill:none;stroke:#000;stroke-width:1.04608;stroke-linecap:butt;stroke-linejoin:miter;stroke-miterlimit:10;stroke-opacity:1" transform="matrix(1.47326 0 0 -1.47326 107.848 32.71)"/><path d="M-1.777 2.37C-1.63 1.484 0 .148.445 0 0-.15-1.629-1.482-1.777-2.373" style="fill:none;stroke:#000;stroke-width:.83687;stroke-linecap:round;stroke-linejoin:round;stroke-miterlimit:10;stroke-opacity:1" transform="matrix(1.47326 0 0 -1.47326 341.32 227.82)"/><path d="M0 5.099v-.79" style="fill:none;stroke:#000;stroke-width:1.04608;stroke-linecap:butt;stroke-linejoin:miter;stroke-miterlimit:10;stroke-opacity:1" transform="matrix(1.47326 0 0 -1.47326 107.848 32.71)"/><path d="M-1.778 2.37C-1.63 1.484-.001.148.445 0-.001-.15-1.63-1.482-1.778-2.373" style="fill:none;stroke:#000;stroke-width:.83687;stroke-linecap:round;stroke-linejoin:round;stroke-miterlimit:10;stroke-opacity:1" transform="matrix(0 -1.47326 -1.47326 0 107.848 26.359)"/><use xlink:href="#a" width="100%" height="100%" x="193.568" y="426.044" style="fill:#b0b0d9;fill-opacity:1" transform="matrix(1.47326 0 0 1.47326 -278.156 -380.312)"/><use xlink:href="#b" width="100%" height="100%" x="201.309" y="426.044" style="fill:#b0b0d9;fill-opacity:1" transform="matrix(1.47326 0 0 1.47326 -278.156 -380.312)"/><use xlink:href="#c" width="100%" height="100%" x="259.517" y="426.38" style="fill:#b0b0d9;fill-opacity:1" transform="matrix(1.47326 0 0 1.47326 -278.156 -380.312)"/><use xlink:href="#b" width="100%" height="100%" x="321.595" y="426.38" style="fill:#b0b0d9;fill-opacity:1" transform="matrix(1.47326 0 0 1.47326 -278.156 -380.312)"/><use xlink:href="#d" width="100%" height="100%" x="383.673" y="426.45" style="fill:#b0b0d9;fill-opacity:1" transform="matrix(1.47326 0 0 1.47326 -278.156 -380.312)"/><path d="M-9.726-74.495v8.278h7.242v-8.278zm0 0" style="fill:#fdfdfd;fill-opacity:1;fill-rule:nonzero;stroke:#fdfdfd;stroke-width:.3985;stroke-linecap:butt;stroke-linejoin:miter;stroke-miterlimit:10;stroke-opacity:1" transform="matrix(1.47326 0 0 -1.47326 107.848 32.71)"/><use xlink:href="#b" width="100%" height="100%" x="253.929" y="353.956" style="fill:#b0b0d9;fill-opacity:1" transform="matrix(1.47326 0 0 1.47326 -278.156 -380.312)"/><path d="M-9.726-12.417v8.278h7.242v-8.278zm0 0" style="fill:#fdfdfd;fill-opacity:1;fill-rule:nonzero;stroke:#fdfdfd;stroke-width:.3985;stroke-linecap:butt;stroke-linejoin:miter;stroke-miterlimit:10;stroke-opacity:1" transform="matrix(1.47326 0 0 -1.47326 107.848 32.71)"/><use xlink:href="#d" width="100%" height="100%" x="253.929" y="291.947" style="fill:#b0b0d9;fill-opacity:1" transform="matrix(1.47326 0 0 1.47326 -278.156 -380.312)"/><path d="M167.861 142.79c-2.082.043-4.162.423-6.248 1.07-1.438.612-2.92 1.127-4.313 1.835-2.893 1.47-6.25 3.789-8.819 5.72-5.057 3.803-9.73 8.082-14.283 12.465-10.096 9.904-19.693 20.353-30.492 29.511-3.96 2.955-5.948 4.674-10.29 7.005-6.48 3.479-13.61 5.203-20.955 5.132-1.703-.09-3.409-.121-5.108-.269-7.647-.663-15.163-2.814-22.893-2.46-3.3.274-5.266.349-8.54.981-5.667 1.096-11 3.337-16.14 5.907-2.633 1.305-5.254 2.636-7.897 3.921-3.529 1.715-7.12 3.454-10.898 4.573V219.706c4.003-1.132 7.799-2.966 11.525-4.777 2.65-1.289 5.278-2.624 7.919-3.933 5.043-2.52 10.272-4.728 15.834-5.795 3.167-.607 5.12-.682 8.317-.945 7.629-.317 15.047 1.795 22.596 2.45 1.732.15 3.474.184 5.21.276 7.579.079 14.94-1.687 21.633-5.265 4.47-2.39 6.482-4.132 10.552-7.165 10.856-9.192 20.494-19.692 30.639-29.64 4.518-4.347 9.156-8.593 14.175-12.362 2.519-1.89 5.815-4.163 8.654-5.6 1.337-.677 2.762-1.164 4.143-1.746 3.887-1.186 7.734-1.372 11.617-.039 4.157 1.427 7.437 4.208 10.769 6.947 4.459 4.064 8.41 8.633 12.435 13.115l1.087-.977c-4.076-4.535-8.077-9.158-12.597-13.265-3.517-2.884-6.974-5.781-11.373-7.248a18.391 18.391 0 0 0-6.259-.948zM336.612 37.963c-.456.763-.916 1.524-1.365 2.291-5.451 9.295-10.88 18.608-15.943 28.122-2.914 5.6-3.893 7.377-6.662 13.116-4.33 8.973-8.226 18.148-11.935 27.392-1.708 4.257-3.396 8.522-5.117 12.774-2.002 4.945-3.934 10.02-6.551 14.685-.57 1.015-1.251 1.963-1.877 2.945-.651.71-1.814 2.354-3.025 2.571-2.963.532-5.787-4.888-6.923-6.726-.657-1.254-1.343-2.492-1.97-3.76-3.753-7.586-6.64-15.562-9.917-23.355-1.79-4.318-3.485-8.735-5.683-12.87-.8-1.506-2.22-4.08-3.728-5.17-.63-.455-1.45-.557-2.174-.836-.65.192-1.361.244-1.952.577-1.569.886-2.655 2.57-3.564 4.029-2.216 3.554-3.837 7.443-5.467 11.285-3.922 9.781-7.44 19.718-11.47 29.455-1.09 2.335-1.87 4.265-3.267 6.4-.412.63-1.57 2.29-2.567 2.539-1.32.329-2.175-.692-3.12-1.356-.643-.69-1.316-1.355-1.93-2.07-4.268-4.971-7.464-10.765-10.566-16.498-2.724-5.247-5.375-10.536-8.302-15.674l-1.283.743c2.93 5.11 5.572 10.38 8.288 15.605 3.145 5.818 6.396 11.689 10.716 16.739.638.745 1.335 1.437 2.003 2.156 1.24.9 2.236 2.037 3.961 1.813 3.681-.478 6.096-6.998 7.393-9.778 4.037-9.764 7.56-19.728 11.495-29.533 1.608-3.782 3.204-7.612 5.393-11.108.82-1.31 1.783-2.853 3.23-3.615.415-.218.918-.186 1.378-.28.392.247.841.422 1.177.742 2.191 2.089 3.651 5.6 4.873 8.272 1.319 2.884 2.608 6.068 3.82 8.99 3.286 7.813 6.184 15.81 9.942 23.417.636 1.288 1.33 2.545 1.997 3.818 1.428 2.39 4.381 7.796 7.913 7.493 2.186-.187 2.969-1.566 4.39-3 .683-1.056 1.428-2.075 2.048-3.169 2.678-4.728 4.63-9.903 6.661-14.926 1.72-4.256 3.41-8.526 5.117-12.787 3.698-9.22 7.58-18.367 11.899-27.315 2.759-5.717 3.732-7.485 6.638-13.064 5.055-9.49 10.477-18.777 15.923-28.048l.103-.172c.01-.358 0-.715 0-1.073z" style="opacity:1;fill:red;fill-opacity:1;stroke:none;stroke-width:1.39318;stroke-linecap:square;stroke-linejoin:miter;stroke-miterlimit:4;stroke-dasharray:none;stroke-opacity:1"/><circle cx="199.327" cy="166.782" r="2.835" style="opacity:1;fill:none;fill-opacity:1;stroke:#ff000c;stroke-width:.983131;stroke-linecap:square;stroke-linejoin:miter;stroke-miterlimit:4;stroke-dasharray:none;stroke-opacity:1"/><circle cx="199.291" cy="105.855" r="3.34" style="opacity:1;fill:red;fill-opacity:1;stroke:none;stroke-width:.0928788;stroke-linecap:square;stroke-linejoin:miter;stroke-miterlimit:4;stroke-dasharray:none;stroke-opacity:1"/><use xlink:href="#e" width="100%" height="100%" x="242.152" y="156.682" style="fill:#000;fill-opacity:1" transform="matrix(2.06148 0 0 2.06148 -396.453 -311.985)"/><use xlink:href="#f" width="100%" height="100%" x="217.773" y="156.682" style="fill:#000;fill-opacity:1" transform="matrix(2.06148 0 0 2.06148 -94.37 -91.127)"/></svg>