<svg xmlns="http://www.w3.org/2000/svg" xmlns:xlink="http://www.w3.org/1999/xlink" id="svg43" width="526" height="300" preserveAspectRatio="none" version="1.1" viewBox="-10 -10 526 300"><style id="style1" type="text/css">.grid{stroke:#9e9ed1;stroke-width:.4}.axes{stroke:#000;stroke-width:.9}.graph,.graph-blue{stroke:red;stroke-width:1.7;fill:none}.graph-blue{stroke:#00f}</style><defs id="defs1"><path id="MJMAIN-2212" stroke-width="1" d="M84 237v13q0 13 14 20h581q15-8 15-20t-15-20H98q-14 7-14 20z"/><path id="MJMAIN-33" stroke-width="1" d="M127 463q-27 0-42 17t-16 44q0 55 48 98t116 43q35 0 44-1 74-12 113-53t40-89q0-52-34-101t-94-71l-3-2q0-1 9-3t29-9q20-7 38-21 82-53 82-140 0-79-62-138T238-22q-80 0-138 43T42 130q0 28 18 45t45 18q28 0 46-18t18-45q0-11-3-20t-7-16q-4-7-11-12t-12-8q-5-3-10-4t-8-3l-4-1q51-45 124-45 55 0 83 53 17 33 17 101v20q0 95-64 127-15 6-61 7l-42 1-3 2q-2 3-2 16 0 18 8 18 28 0 58 5 34 5 62 42t28 112v8q0 57-35 79-22 14-47 14-32 0-59-11t-38-23l-11-12h3q3-1 8-2t10-5q5-4 12-7t10-11q3-8 8-15t3-20q0-22-14-39t-45-18z"/><path id="MJMAIN-30" stroke-width="1" d="M96 585q56 81 153 81 48 0 96-26t78-92q37-83 37-228 0-155-43-237-20-42-55-67t-61-31q-26-6-51-7-26 0-52 6t-61 32q-35 26-55 67-43 82-43 237 0 174 57 265zm225 12q-30 32-71 32-42 0-72-32-25-26-33-72t-8-192q0-158 8-208t36-79q28-30 69-30 40 0 68 30 29 30 36 84t8 203q0 145-8 191t-33 73z"/><path id="MJMAIN-31" stroke-width="1" d="m213 578-13-5q-14-5-40-10t-58-7H83v46h19q47 2 87 15t56 24q16 11 28 22 2 3 12 3 9 0 17-6V361l1-300q7-7 12-9t24-4q19-2 62-2h26V0h-11q-21 3-159 3-136 0-157-3H88v46h64q16 0 25 1t16 3q7 2 8 2t6 5q5 5 6 4z"/><clipPath id="trbl_clip_0_506_966_0"><path id="path1" d="M0 0h506v966H0Z"/></clipPath><clipPath id="clipPath59" clipPathUnits="userSpaceOnUse"><path id="path60" d="M0 274.184h506V515.31H0Z" style="fill:#f9f9f9;stroke-width:1"/></clipPath><clipPath id="clipPath60" clipPathUnits="userSpaceOnUse"><path id="path61" d="M0 274.184h506V515.31H0Z" style="fill:#f9f9f9;stroke-width:1"/></clipPath></defs><g id="grid"><path id="path2" d="M-787.525 966V0" class="grid"/><path id="path3" d="M-741.525 966V0" class="grid"/><path id="path4" d="M-695.525 966V503.45m0-14.852V0" class="grid"/><path id="path5" d="M-649.525 966V0" class="grid"/><path id="path6" d="M-603.525 966V0" class="grid"/><path id="path7" d="M-557.525 966V0" class="grid"/><path id="path8" d="M-511.525 966V0" class="grid"/><path id="path9" d="M-465.525 966V0" class="grid"/><path id="path10" d="M-419.525 966V502.574m0-13.976V0" class="grid"/><path id="path11" d="M-373.525 966V0" class="grid"/><path id="path12" d="M-327.525 966V0" class="grid"/><path id="path13" d="M-810.525 943h506" class="grid"/><path id="path14" d="M-810.525 897h506" class="grid"/><path id="path15" d="M-810.525 851h506" class="grid"/><path id="path16" d="M-810.525 805h506" class="grid"/><path id="path17" d="M-810.525 759h506" class="grid"/><path id="path18" d="M-810.525 713h506" class="grid"/><path id="path19" d="M-810.525 667h506" class="grid"/><path id="path20" d="M-810.525 621h506" class="grid"/><path id="path21" d="M-810.525 575h506" class="grid"/><path id="path22" d="M-810.525 529h226.136m22.065 0h257.799" class="grid"/><path id="path23" d="M-810.525 483h506" class="grid"/><path id="path24" d="M-810.525 437h238.724m9.477 0h257.799" class="grid"/><path id="path25" d="M-810.525 391h506" class="grid"/><path id="path26" d="M-810.525 345h506" class="grid"/><path id="path27" d="M-810.525 299h506" class="grid"/><path id="path28" d="M-810.525 253h506" class="grid"/><path id="path29" d="M-810.525 207h506" class="grid"/><path id="path30" d="M-810.525 161h506" class="grid"/><path id="path31" d="M-810.525 115h506" class="grid"/><path id="path32" d="M-810.525 69h506" class="grid"/><path id="path33" d="M-810.525 23h506" class="grid"/></g><g id="axes"><path id="path34" d="M-810.525 483h506" class="axes"/><path id="path35" d="M-557.525 966V0" class="axes"/><path id="path43" d="M-1.056 209.298h506" class="axes" clip-path="none"/><path id="path44" d="M251.944 232.17V-.83" class="axes" clip-path="none"/><path id="path57" d="M1043.669 239.25v-371.008" class="axes" clip-path="none"/></g><g id="notch labels" style="stroke:none;fill:#b8b8de"><g id="g36" transform="matrix(.01616 0 0 -.01616 -705.862 500.806)"><use xlink:href="#MJMAIN-2212" id="use35" x="0" y="0"/><use xlink:href="#MJMAIN-33" id="use36" x="778" y="0"/></g><g id="g37" transform="matrix(.01615 0 0 -.01615 -423.568 500.8)"><use xlink:href="#MJMAIN-33" id="use37" x="0" y="0"/></g><g id="g38" transform="matrix(.01615 0 0 -.01615 -571.905 500.8)"><use xlink:href="#MJMAIN-30" id="use38" x="0" y="0"/></g><g id="g40" transform="matrix(.01616 0 0 -.01616 -583.693 534.461)"><use xlink:href="#MJMAIN-2212" id="use39" x="0" y="0"/><use xlink:href="#MJMAIN-31" id="use40" x="778" y="0"/></g><g id="g41" transform="matrix(.01615 0 0 -.01615 -571.105 442.459)"><use xlink:href="#MJMAIN-31" id="use41" x="0" y="0"/></g></g><g id="graphs" style="display:inline"><g id="g42" clip-path="url(#trbl_clip_0_506_966_0)" transform="translate(-810.525)"><path id="path41" d="M-23 482.886c15.333-.038 30.667-.093 46-.196 15.333-.103 30.667-.252 46-.533 15.333-.28 30.667-.684 46-1.447 15.333-.764 30.667-1.86 46-3.935 15.333-2.076 30.667-5.057 46-10.697 15.333-5.641 30.667-13.745 46-29.078 15.333-15.333 30.667-37.36 46-79.041 15.333-41.68 30.667-101.557 46-214.856 15.333-113.298 30.667-276.06 46-584.038 15.333-307.978 30.667-750.408 46-1587.58 15.333-837.172 30.667-2039.822 46-4315.49 15.333-2275.669 30.667-5544.811 46-11730.719" class="graph"/></g><g id="g43" clip-path="url(#trbl_clip_0_506_966_0)" transform="translate(-810.525)"><path id="path42" d="M-23-18074.724c15.333 6185.908 30.667 9455.05 46 11730.719 15.333 2275.668 30.667 3478.319 46 4315.49 15.333 837.172 30.667 1279.602 46 1587.58 15.333 307.979 30.667 470.74 46 584.038 15.333 113.3 30.667 173.176 46 214.856 15.333 41.68 30.667 63.708 46 79.041 15.333 15.333 30.667 23.437 46 29.078 15.333 5.64 30.667 8.621 46 10.697 15.333 2.075 30.667 3.171 46 3.935 15.333.763 30.667 1.167 46 1.447 15.333.281 30.667.43 46 .533 15.333.103 30.667.158 46 .196" class="graph-blue"/></g><g id="g45" clip-path="url(#clipPath60)" transform="translate(-1.056 -273.702)"><path id="path45" d="M-23 482.886c15.333-.038 30.667-.093 46-.196 15.333-.103 30.667-.252 46-.533 15.333-.28 30.667-.684 46-1.447 15.333-.764 30.667-1.86 46-3.935 15.333-2.076 30.667-5.057 46-10.697 15.333-5.641 30.667-13.745 46-29.078 15.333-15.333 30.667-37.36 46-79.041 15.333-41.68 30.667-101.557 46-214.856" class="graph"/></g><g id="g46" clip-path="url(#clipPath59)" transform="translate(-1.056 -272.92)"><path id="path46" d="M161 143.103c15.333 113.3 30.667 173.176 46 214.856 15.333 41.68 30.667 63.708 46 79.041 15.333 15.333 30.667 23.437 46 29.078 15.333 5.64 30.667 8.621 46 10.697 15.333 2.075 30.667 3.171 46 3.935 15.333.763 30.667 1.167 46 1.447 15.333.281 30.667.43 46 .533 15.333.103 30.667.158 46 .196" class="graph-blue"/></g><g id="g58" clip-path="none" transform="translate(790.669 -274.747)"><path id="path58" d="M-23 482.886c15.333-.038 30.667-.093 46-.196 15.333-.103 30.667-.252 46-.533 15.333-.28 30.667-.684 46-1.447 15.333-.764 30.667-1.86 46-3.935 15.333-2.076 30.667-5.057 46-10.697 15.333-5.641 30.667-13.745 46-29.078 15.333-15.333 30.667-37.36 46-79.041 15.333-41.68 30.667-101.557 46-214.856" class="graph"/></g><g id="g59" clip-path="none" transform="translate(790.669 -274.747)"><path id="path59" d="M161 143.103c15.333 113.3 30.667 173.176 46 214.856 15.333 41.68 30.667 63.708 46 79.041 15.333 15.333 30.667 23.437 46 29.078 15.333 5.64 30.667 8.621 46 10.697 15.333 2.075 30.667 3.171 46 3.935 15.333.763 30.667 1.167 46 1.447 15.333.281 30.667.43 46 .533 15.333.103 30.667.158 46 .196" class="graph-blue"/></g><path id="text61" d="M208.404-204.957q.02.42.46.52l.36.08q.44.08.44.46t-.5.38h-3.66q-.5 0-.5-.38 0-.36.46-.46l.42-.08q.44-.1.46-.52v-4.36q0-1.22-.36-1.72-.34-.5-1.04-.5-.56 0-1.16.34-.58.32-1.16.84.02.18.02.4.02.2.02.42v4.58q.02.42.46.52l.36.08q.44.08.44.46t-.5.38h-3.66q-.5 0-.5-.38 0-.36.46-.46l.4-.08q.44-.1.46-.52v-4.36q0-1.2-.34-1.7-.34-.52-1.04-.52-.58 0-1.16.32t-1.16.84v5.42q.02.42.46.52l.34.06q.44.1.44.48t-.5.38h-3.68q-.5 0-.5-.38 0-.36.46-.46l.42-.08q.44-.1.46-.52v-4.34q0-.32-.02-.56-.02-.16-.02-.3v-.3q-.04-.46-.48-.52l-.5-.06q-.46-.06-.46-.42 0-.34.4-.5l2.32-.9q.18-.08.36-.08.12 0 .16.04.16.1.18.46l.1 1.16q.7-.84 1.48-1.28.78-.44 1.72-.44.98 0 1.58.42.6.42.88 1.34.76-.92 1.54-1.34.8-.42 1.82-.42 1.26 0 1.9.8.66.78.66 2.56zm5.92 0q.02.42.46.52l.34.06q.44.1.44.48t-.5.38h-3.68q-.5 0-.5-.38 0-.36.46-.46l.4-.08q.44-.1.46-.52v-4.26q0-.32-.02-.6-.02-.16-.02-.32v-.32q-.04-.46-.48-.52l-.48-.06q-.46-.06-.46-.42 0-.32.4-.48l2.6-.94q.1-.04.18-.06.08-.02.16-.02.1 0 .16.06.14.12.14.48l-.06 2.28zm-1.08-9.88q-.64 0-1.06-.38-.4-.38-.4-1t.4-1q.42-.38 1.06-.38.62 0 1.02.38.42.38.42 1t-.42 1q-.4.38-1.02.38zm6.62 1.94q.08.06.12.16.04.1.06.32l.14 1.66q.54-1.06 1.24-1.64.72-.6 1.46-.6.4 0 .82.24.42.24.54.82 0 .56-.34.9-.34.32-.92.32-.68 0-1.28-.62l-.1-.1q-.44.4-.8.9-.34.48-.6 1.16v4.36q.02.46.46.54l.64.12q.46.1.46.46 0 .38-.5.38h-4q-.5 0-.5-.38 0-.36.46-.46l.4-.08q.44-.1.46-.52v-4.34q0-.32-.02-.56-.02-.16-.02-.3v-.3q-.04-.46-.48-.52l-.48-.06q-.46-.06-.46-.42 0-.34.4-.5l2.32-.9q.18-.08.34-.08.12 0 .18.04zm8.44 0q.08.06.12.16.04.1.06.32l.14 1.66q.54-1.06 1.24-1.64.72-.6 1.46-.6.4 0 .82.24.42.24.54.82 0 .56-.34.9-.34.32-.92.32-.68 0-1.28-.62l-.1-.1q-.44.4-.8.9-.34.48-.6 1.16v4.36q.02.46.46.54l.64.12q.46.1.46.46 0 .38-.5.38h-4q-.5 0-.5-.38 0-.36.46-.46l.4-.08q.44-.1.46-.52v-4.34q0-.32-.02-.56-.02-.16-.02-.3v-.3q-.04-.46-.48-.52l-.48-.06q-.46-.06-.46-.42 0-.34.4-.5l2.32-.9q.18-.08.34-.08.12 0 .18.04zm9.94-.1q1.04 0 1.9.4.86.38 1.46 1.06.62.66.94 1.56.34.88.34 1.9 0 1.04-.34 1.94-.32.88-.92 1.54-.6.64-1.46 1.02-.86.36-1.92.36t-1.92-.36q-.86-.38-1.46-1.02-.6-.66-.94-1.54-.32-.9-.32-1.94 0-1.02.32-1.92.34-.9.94-1.56.62-.66 1.46-1.04.86-.4 1.92-.4zm0 .9q-2.3 0-2.3 4 0 3.96 2.3 3.96t2.3-3.96q0-4-2.3-4zm9.22-.8q.08.06.12.16.04.1.06.32l.14 1.66q.54-1.06 1.24-1.64.72-.6 1.46-.6.4 0 .82.24.42.24.54.82 0 .56-.34.9-.34.32-.92.32-.68 0-1.28-.62l-.1-.1q-.44.4-.8.9-.34.48-.6 1.16v4.36q.02.46.46.54l.64.12q.46.1.46.46 0 .38-.5.38h-4q-.5 0-.5-.38 0-.36.46-.46l.4-.08q.44-.1.46-.52v-4.34q0-.32-.02-.56-.02-.16-.02-.3v-.3q-.04-.46-.48-.52l-.48-.06q-.46-.06-.46-.42 0-.34.4-.5l2.32-.9q.18-.08.34-.08.12 0 .18.04zm13.26 7.94q.02.42.46.52l.34.06q.44.1.44.48t-.5.38h-3.68q-.5 0-.5-.38 0-.36.46-.46l.4-.08q.44-.1.46-.52v-4.26q0-.32-.02-.6-.02-.16-.02-.32v-.32q-.04-.46-.48-.52l-.48-.06q-.46-.06-.46-.42 0-.32.4-.48l2.6-.94q.1-.04.18-.06.08-.02.16-.02.1 0 .16.06.14.12.14.48l-.06 2.28zm-1.08-9.88q-.64 0-1.06-.38-.4-.38-.4-1t.4-1q.42-.38 1.06-.38.62 0 1.02.38.42.38.42 1t-.42 1q-.4.38-1.02.38zm18.48 9.88q.02.42.46.52l.36.08q.44.08.44.46t-.5.38h-3.66q-.5 0-.5-.38 0-.36.46-.46l.42-.08q.44-.1.46-.52v-4.36q0-1.22-.36-1.72-.34-.5-1.04-.5-.56 0-1.16.34-.58.32-1.16.84.02.18.02.4.02.2.02.42v4.58q.02.42.46.52l.36.08q.44.08.44.46t-.5.38h-3.66q-.5 0-.5-.38 0-.36.46-.46l.4-.08q.44-.1.46-.52v-4.36q0-1.2-.34-1.7-.34-.52-1.04-.52-.58 0-1.16.32t-1.16.84v5.42q.02.42.46.52l.34.06q.44.1.44.48t-.5.38h-3.68q-.5 0-.5-.38 0-.36.46-.46l.42-.08q.44-.1.46-.52v-4.34q0-.32-.02-.56-.02-.16-.02-.3v-.3q-.04-.46-.48-.52l-.5-.06q-.46-.06-.46-.42 0-.34.4-.5l2.32-.9q.18-.08.36-.08.12 0 .16.04.16.1.18.46l.1 1.16q.7-.84 1.48-1.28.78-.44 1.72-.44.98 0 1.58.42.6.42.88 1.34.76-.92 1.54-1.34.8-.42 1.82-.42 1.26 0 1.9.8.66.78.66 2.56zm11.3.08q.04-.04.26.16.24.24-.02.6-.32.46-.7.62-.38.18-.9.18-.82 0-1.3-.34-.46-.36-.64-.94-.64.64-1.24 1.02-.6.36-1.54.36-1.1 0-1.86-.6-.74-.6-.74-1.76 0-.78.42-1.34.44-.56 1.08-.96.66-.4 1.4-.66.74-.26 1.38-.44l1.02-.3v-.52q0-1.32-.4-1.8-.38-.5-1.32-.5h-.2q-.08 0-.18.02-.4.02-.5.48l-.18.82q-.24 1.2-1.2 1.2-.4 0-.68-.24-.28-.26-.32-.66.18-1.12 1.2-1.82 1.04-.7 2.72-.7 1.66 0 2.42.8t.76 2.82v4.02q0 .9.56.9.24 0 .44-.14.14-.1.18-.16.04-.08.08-.12zm-3.38-.5v-3.1q-.48.12-1.04.3-.54.18-1.02.46t-.8.7q-.32.4-.32.98 0 .68.4 1.06.42.38 1.1.38.4 0 .74-.16.36-.16.94-.62zm13.68-7.02v.42q0 .5-.5.5h-1.36q.44.68.44 1.62 0 .8-.3 1.4-.3.58-.8.98-.5.38-1.18.58-.66.18-1.38.18-.8 0-1.42-.2-.14.22-.22.42-.08.18-.08.42 0 .42.28.64.3.2.98.2h2.04q1.82 0 2.6.62.8.6.8 1.7 0 .96-.52 1.6-.52.66-1.3 1.04-.76.38-1.68.54-.9.16-1.66.16-2.12 0-3.02-.58-.94-.52-.94-1.48 0-.58.42-1.08.42-.5 1.34-.96-.56-.28-.8-.68-.24-.42-.24-.88 0-.58.34-1.04.34-.46.98-.92-.72-.4-1.12-1.06-.4-.68-.4-1.6 0-.78.3-1.36.3-.6.8-.98.5-.4 1.16-.6.66-.2 1.38-.2 1.52 0 2.52.76l1.88-.62q.1-.04.18-.06.08-.02.16-.02.22 0 .26.18.06.18.06.36zm-5.1 4.86q.84 0 1.28-.62.46-.64.46-1.72 0-1.06-.44-1.68-.44-.64-1.26-.64-.84 0-1.28.64-.42.64-.42 1.7 0 1.08.42 1.7.42.62 1.24.62zm1.44 4.18h-2.1q-.32 0-.58-.04-.26-.02-.48-.06-.48.66-.48 1.34 0 .9.62 1.26t1.64.36q1.52 0 2.32-.52.8-.5.8-1.2 0-.48-.38-.8-.2-.16-.52-.26-.32-.08-.84-.08zm13.58-5.42q-.08.44-.56.44h-5.8q.04 1.82.88 2.74.84.92 2.18.92.78 0 1.32-.28.56-.3 1.02-.82.22-.24.42-.24.1 0 .18.06.3.2.08.6-.52 1.02-1.5 1.56t-2.3.54q-1.12 0-2-.38-.86-.38-1.46-1.04-.58-.68-.88-1.6-.3-.92-.3-2 0-1.04.34-1.98t.96-1.64q.64-.72 1.52-1.12.9-.42 1.98-.42.9 0 1.62.3.74.3 1.26.84.52.52.8 1.26t.28 1.64v.32q0 .14-.04.3zm-6.32-.48h3q.72 0 .96-.3.26-.3.26-.84 0-.9-.52-1.5-.5-.6-1.26-.6-.62 0-1.08.32-.44.3-.74.78-.28.48-.44 1.06-.14.56-.18 1.08z" aria-label="mirror image" style="font-size:20px;font-family:&quot;Song Myung&quot;;-inkscape-font-specification:&quot;Song Myung&quot;;text-align:center;text-anchor:middle;stroke-width:2"/><text xml:space="preserve" id="text62" x="409.282" y="-205.733" style="font-size:20px;font-family:sans-serif;-inkscape-font-specification:sans-serif;text-align:center;text-anchor:middle;fill:#000;stroke:none;stroke-width:2"><tspan id="tspan62" x="409.282" y="-205.733" style="font-style:normal;font-variant:normal;font-weight:400;font-stretch:normal;font-family:&quot;Song Myung&quot;;-inkscape-font-specification:&quot;Song Myung&quot;">hello world</tspan></text><path id="path65" d="m230.845 146.546-26.967-54.06" style="fill:#000;stroke:#deaa87;stroke-width:5;stroke-dasharray:none"/><path id="path78" d="m273.06 146.546 26.966-54.06" style="fill:#deaa87;stroke:#deaa87;stroke-width:5;stroke-dasharray:none"/></g><g id="layer20" style="display:inline"><path id="path132" d="m194.561 19.68-.166 4.878-6.944-9.052 7.11-9.1v4.861l12.733.028V5.261h88.557v6.034l13.255-.028v-4.86l7.11 9.1-6.944 9.05-.166-4.877H295.85v6.072h-88.557V19.68z" style="fill:#ffd42a;stroke:#000;stroke-width:.999995"/><path id="path99" d="M173.963 105.522H68.902v24.15h105.06v-6.96l27.176.08v5.957l8.645-11.152-8.442-11.091-.203 5.977h-27.175z" style="fill:#ffd42a;stroke:#000"/><path id="rect97" d="M329.556 105.522H418v24.15h-88.444v-6.96l-27.176.08v5.957l-8.644-11.152 8.442-11.091.202 5.977h27.176z" style="fill:#ffd42a;stroke:#000"/><path id="path329525" d="M220.685 145.568c-.036-1.714-.023-3.43-.01-5.145.005-.843.006-1.686.011-2.528l-1.106.079c.013.803.011 1.62.014 2.308-.013 1.765-.028 3.53-.034 5.296z" style="display:inline;fill:#000;fill-opacity:1;stroke:none;stroke-width:.899999;stroke-miterlimit:2;stroke-dasharray:none"/><path id="path329529" d="M220.696 156.956c-.04-.923-.023-1.877-.018-2.81.007-1.052 0-2.105 0-3.157 0-.313 0-.628.014-.938 0 .104-.006-.687-.013-.582l-1.104.031c-.006.164-.01.333-.013.473.006.426.013.851.03 1.273.024.921-.007 1.845-.012 2.773-.01 1.03.026 2.059-.011 3.08l1.122-.143z" style="display:inline;fill:#000;fill-opacity:1;stroke:none;stroke-width:.899999;stroke-miterlimit:2;stroke-dasharray:none"/><path id="path329531" d="M220.704 168.027c-.046-1.676-.021-3.525-.006-4.827.01-.813-.01-1.641.006-2.22l-1.134.193c.007.657-.006 1.85 0 2.434-.013 1.895.013 2.903.007 4.798z" style="display:inline;fill:#000;fill-opacity:1;stroke:none;stroke-width:.899999;stroke-miterlimit:2;stroke-dasharray:none"/><path id="path329535" d="M220.738 212.168c-.013-.52 0-.014-.017-.955-.01-.667-.017-1.22-.02-1.678 0-1.04.012-1.759.038-2.789.006-.213.01-.427.021-.635l-1.044-.35c-.014.243-.014.54-.017.763-.033.952-.006 1.778-.023 2.903-.006.582.009 1.552.009 2.135 0 .235.006.472 0 .706l1.054-.1z" style="display:inline;fill:#000;fill-opacity:1;stroke:none;stroke-width:.900001;stroke-miterlimit:2;stroke-dasharray:none"/><path id="path329537" d="M220.738 190.183c.008-1.42-.012-2.978-.013-4.711.006-.496-.02-1.653.009-2.133l-1.027-.164c-.018.753-.016 1.522-.022 2.167.01 1.912.013 3.826.035 5.737l1.009.01z" style="display:inline;fill:#000;fill-opacity:1;stroke:none;stroke-width:.900001;stroke-miterlimit:2;stroke-dasharray:none"/><path id="path329539" d="M219.661 179.293c.017-.652.019-1.311.023-1.967.01-1.19.015-2.382.006-3.572a36.143 36.143 0 0 0-.03-1.002l1.042-.465c0 .432-.006.865-.006 1.298.006 1.247-.006 2.495.01 3.74.006.657.006 1.316.022 1.968h-1.066z" style="display:inline;fill:#000;fill-opacity:1;stroke:none;stroke-width:.900001;stroke-miterlimit:2;stroke-dasharray:none"/><path id="path329541" d="M220.7 201.737c-.032-.83-.018-1.688-.015-2.527.006-.947 0-1.894 0-2.84 0-.282 0-.566.01-.845 0 .094.007-.64 0-.546l-1.056.064c-.006.147-.007.299-.01.425.006.383.01.766.025 1.145.02.829.009 1.66.006 2.494-.008.926.013 1.852-.017 2.772l1.06-.142z" style="display:inline;fill:#000;fill-opacity:1;stroke:none;stroke-width:.900001;stroke-miterlimit:2;stroke-dasharray:none"/><path id="path329527" d="M220.694 134.013c-.025-.533-.063-1.107-.042-1.636a41.432 41.432 0 0 0-.006-3.48c-.032-.83.018-1.665.006-2.502v-.35l-1.1.327c.021.29.036.46 0 .86.047.8 0 1.264.023 2.076.022.82.043 1.643 0 2.46-.035.685-.006 1.367-.043 2.051z" style="display:inline;fill:#000;fill-opacity:1;stroke:none;stroke-width:.899999;stroke-miterlimit:2;stroke-dasharray:none"/><path id="path329533" d="M220.614 122.056c-.017-.554 0-.015-.021-1.02-.013-.712-.021-1.303-.025-1.792 0-1.11.015-1.878.046-2.978.007-.228.013-.456.027-.679l-1.141-.374c-.017.26-.017.577-.02.816-.042 1.016-.008 1.898-.03 3.1-.006.622.012 1.658.01 2.28 0 .251.007.504 0 .754.45-.036.758-.074 1.154-.107z" style="display:inline;fill:#000;fill-opacity:1;stroke:none;stroke-width:.899999;stroke-miterlimit:2;stroke-dasharray:none"/><path id="path69" d="M225.172 117.332c-1.713.036-3.43.024-5.145.011-.843-.006-1.686-.007-2.528-.012l.079 1.106c.803-.013 1.621-.01 2.308-.014 1.766.014 3.53.029 5.296.035z" style="display:inline;fill:#000;fill-opacity:1;stroke:none;stroke-width:.899999;stroke-miterlimit:2;stroke-dasharray:none"/><path id="path70" d="M235.56 117.322c-.924.04-1.877.022-2.81.018-1.053-.007-2.105 0-3.158 0-.313 0-.628 0-.938-.014.104 0-.686.006-.582.013l.032 1.104c.163.006.332.01.472.013.426-.006.851-.013 1.273-.03.922-.024 1.846.006 2.773.012 1.03.01 2.059-.027 3.08.011l-.143-1.122z" style="display:inline;fill:#000;fill-opacity:1;stroke:none;stroke-width:.899999;stroke-miterlimit:2;stroke-dasharray:none"/><path id="path71" d="M245.63 117.314c-1.677.046-3.526.02-4.828.006-.813-.01-1.641.01-2.22-.006l.193 1.134c.657-.007 1.85.006 2.435 0 1.895.013 2.902-.013 4.797-.007z" style="display:inline;fill:#000;fill-opacity:1;stroke:none;stroke-width:.899999;stroke-miterlimit:2;stroke-dasharray:none"/><path id="path72" d="M285.766 117.28c-.52.013-.014 0-.954.016-.667.01-1.22.017-1.679.02-1.04 0-1.759-.012-2.788-.037-.214-.006-.428-.01-.636-.022l-.35 1.045c.244.014.54.014.763.016.952.034 1.778.006 2.903.024.582.006 1.553-.01 2.135-.01.235.001.473-.005.706.001-.033-.363-.069-.73-.1-1.054z" style="display:inline;fill:#000;fill-opacity:1;stroke:none;stroke-width:.900001;stroke-miterlimit:2;stroke-dasharray:none"/><path id="path73" d="M265.784 117.28c-1.422-.008-2.979.012-4.712.013-.495-.006-1.652.02-2.132-.009l-.165 1.026c.753.019 1.522.017 2.167.023 1.913-.01 3.826-.014 5.737-.035l.01-1.01z" style="display:inline;fill:#000;fill-opacity:1;stroke:none;stroke-width:.900001;stroke-miterlimit:2;stroke-dasharray:none"/><path id="path74" d="M255.894 118.356c-.652-.016-1.31-.018-1.967-.022a213.68 213.68 0 0 0-3.572-.006c-.338.006-.673.015-1.002.03l-.465-1.042c.433 0 .865.006 1.298.006 1.247-.006 2.495.006 3.74-.01.657-.006 1.316-.006 1.968-.022v1.066z" style="display:inline;fill:#000;fill-opacity:1;stroke:none;stroke-width:.900001;stroke-miterlimit:2;stroke-dasharray:none"/><path id="path75" d="M276.336 117.317c-.83.033-1.688.019-2.527.016-.947-.006-1.894 0-2.84 0-.282 0-.566 0-.844-.011.093 0-.64-.006-.547 0l.064 1.057c.148.006.3.007.426.01.382-.006.765-.011 1.145-.025.828-.02 1.659-.01 2.493-.006.927.008 1.853-.013 2.772.016l-.142-1.06z" style="display:inline;fill:#000;fill-opacity:1;stroke:none;stroke-width:.900001;stroke-miterlimit:2;stroke-dasharray:none"/><path id="path76" d="M644.209 127.508c-.533.024-1.107.063-1.637.042a41.432 41.432 0 0 0-3.478.006c-.832.032-1.666-.018-2.503-.006h-.35l.327 1.099c.29-.02.46-.036.86 0 .8-.046 1.264 0 2.076-.023.82-.022 1.643-.043 2.46 0 .685.036 1.367.006 2.05.043z" style="display:inline;fill:#000;fill-opacity:1;stroke:none;stroke-width:.899999;stroke-miterlimit:2;stroke-dasharray:none"/><path id="path77" d="M632.252 127.588c-.555.017-.015 0-1.02.02-.712.013-1.303.022-1.792.025-1.11 0-1.878-.014-2.978-.046-.228-.007-.456-.013-.68-.027l-.373 1.141c.26.018.576.018.815.021 1.017.041 1.899.007 3.1.03.622.006 1.659-.012 2.28-.011.252 0 .505-.006.754 0-.035-.449-.074-.757-.106-1.153z" style="display:inline;fill:#000;fill-opacity:1;stroke:none;stroke-width:.899999;stroke-miterlimit:2;stroke-dasharray:none"/><path id="path328113" d="M284.07 160.662a296.23 296.23 0 0 1-.018-4.28c.01-.928-.033-1.919-.008-2.966l-1.021.007.02.933c.01.407-.03 1.597-.025 2.028.003 1.427 0 2.854-.018 4.28h1.071z" style="display:inline;fill:#000;fill-opacity:1;stroke:none;stroke-width:.900004;stroke-miterlimit:2;stroke-dasharray:none"/><path id="path328115" d="M284.055 191.15c-.014-1.826-.01-3.653-.004-5.478.004-.815.003-1.627.03-2.434l-1.048-.417c-.008.918-.007 1.834-.007 2.753a479.5 479.5 0 0 1-.04 5.473l1.07.102z" style="display:inline;fill:#000;fill-opacity:1;stroke:none;stroke-width:.900004;stroke-miterlimit:2;stroke-dasharray:none"/><path id="path328119" d="M284.049 180.082c-.063-1.202-.041-2.72-.033-3.945.007-.66-.003-2.05.019-2.705l-1.054-.44c-.019.802-.028 1.619-.04 2.306-.01 1.542-.006 3.254.058 4.778.35-.28.7.287 1.05.007z" style="display:inline;fill:#000;fill-opacity:1;stroke:none;stroke-width:.900004;stroke-miterlimit:2;stroke-dasharray:none"/><path id="path328121" d="M283.97 170.334c.058-1.736.021-2.757.044-4.504.007-.562.027-1.858.033-2.42l-1.064-.088c0 .538-.015 1.812-.018 2.35-.008 1.521.041 2.83-.03 4.328l1.035.334z" style="display:inline;fill:#000;fill-opacity:1;stroke:none;stroke-width:.900004;stroke-miterlimit:2;stroke-dasharray:none"/><path id="path327085" d="M283.898 211.478a438.152 438.152 0 0 1-.015-6.322c.005-1.018.002-.55.01-1.403h-1.04c.01 1.164.004.544.01 1.403.008 2.107.008 4.217-.015 6.322z" style="display:inline;fill:#000;fill-opacity:1;stroke:none;stroke-width:.900003;stroke-miterlimit:2;stroke-dasharray:none"/><path id="path329517" d="M284.023 145.49c.014 1.12-.015 1.827-.008 3.193.007.39-.038 1.699-.007 2.075l-.936-.309c-.022-.592.034-1.706.025-2.214 0-1.509-.01-2.157-.042-3.883l.936-.098z" style="display:inline;fill:#000;fill-opacity:1;stroke:none;stroke-width:.900002;stroke-miterlimit:2;stroke-dasharray:none"/><path id="path329519" d="M284.037 141.596c.033-2.077.021-3.259.011-5.044-.007-.933-.02-.809-.026-1.611l-.972.278c.027.966.02.845.035 1.558.022 1.705.006 3.017-.034 4.717.354.035.632.067.986.101z" style="display:inline;fill:#000;fill-opacity:1;stroke:none;stroke-width:.900002;stroke-miterlimit:2;stroke-dasharray:none"/><path id="path329521" d="M284.045 126.085c.006 1.272-.022 2.663-.03 4.212 0 .443-.024 1.476 0 1.907l-.953.079c-.015-.675-.011-1.363-.015-1.94.017-1.709.026-3.42.054-5.127l.935.06z" style="display:inline;fill:#000;fill-opacity:1;stroke:none;stroke-width:.900002;stroke-miterlimit:2;stroke-dasharray:none"/><path id="path329523" d="M284.03 116.007c.007 1.329-.011 2.784-.013 4.404.006.463-.02 1.544.008 1.993l-.953.154c-.019-.704-.017-1.423-.022-2.026.01-1.787.013-3.576.035-5.362l.936-.01z" style="display:inline;fill:#000;fill-opacity:1;stroke:none;stroke-width:.900002;stroke-miterlimit:2;stroke-dasharray:none"/><path id="path327077" d="M283.91 201.095a390.027 390.027 0 0 1-.015-5.964c.005-.961.002-.52.01-1.324h-1.041c.01 1.098.005.514.01 1.324.009 1.988.009 3.978-.014 5.964z" style="display:inline;fill:#000;fill-opacity:1;stroke:none;stroke-width:.900003;stroke-miterlimit:2;stroke-dasharray:none"/><g id="g98" transform="translate(-19.387 1.044)"><path id="path92" d="M397.998 116.506c-.038.4-.467.438-.782.415h-5.214c.012 1.09.309 2.306 1.255 2.962.823.577 1.97.643 2.874.224.438-.216.77-.579 1.115-.91.544-.346.734.46.358.766-.648 1.126-1.956 1.719-3.222 1.742-1.264.073-2.588-.346-3.456-1.295-1.02-1.17-1.294-2.832-1.078-4.33.227-1.51 1.165-2.949 2.588-3.57 1.425-.65 3.274-.538 4.455.554.934.836 1.243 2.159 1.123 3.368l-.016.074zm-5.958-.452c1.022-.006 2.045.012 3.067-.01.443.009.844-.321.887-.769.153-.92-.35-2.017-1.311-2.24-.774-.178-1.566.246-1.986.89-.416.63-.594 1.385-.657 2.129z" style="font-size:20px;font-family:&quot;Song Myung&quot;;-inkscape-font-specification:&quot;Song Myung&quot;;text-align:center;text-anchor:middle;display:inline;stroke-width:1.99999"/><path id="path90" d="M381.84 112.622c.253.28.158.697.218 1.046.055.256.468-.437.7-.49 1.249-.937 3.213-.89 4.291.294 1.088 1.185 1.366 2.91 1.183 4.462-.164 1.518-1.023 3.094-2.527 3.626-1.227.424-2.707.145-3.581-.85.01 1.221-.035 2.447.063 3.664.143.391.628.325.959.428.598-.07.687.916.033.81-1.306-.004-2.612.007-3.918-.006-.614-.037-.341-.902.18-.833.354-.041.802-.203.724-.651.058-2.774.03-5.548.033-8.322-.068-.38.034-.79-.116-1.15-.285-.422-.97-.07-1.23-.519-.153-.417.295-.63.62-.729.715-.266 1.415-.583 2.141-.813a.37.37 0 0 1 .228.033zm.34 1.905v5.26c.725.628 1.83 1.018 2.712.478 1.01-.613 1.244-1.884 1.247-2.974 0-1.128-.105-2.435-1.028-3.218-.779-.623-1.856-.279-2.6.225a6.329 6.329 0 0 0-.33.229z" style="font-size:20px;font-family:&quot;Song Myung&quot;;-inkscape-font-specification:&quot;Song Myung&quot;;text-align:center;text-anchor:middle;display:inline;stroke-width:1.99999"/><path id="path88" d="M373.168 112.528a4.246 4.246 0 0 1 3.596 1.92c1.15 1.789 1.033 4.342-.374 5.96-.834.933-2.108 1.39-3.346 1.338-1.368.005-2.74-.673-3.48-1.84-.838-1.26-.954-2.906-.538-4.336.36-1.206 1.264-2.236 2.435-2.71a4.294 4.294 0 0 1 1.707-.332zm0 .848c-.718-.033-1.398.415-1.691 1.065-.505 1.08-.506 2.31-.45 3.478.078.922.242 1.971.998 2.596.812.623 2.161.448 2.7-.455.6-.987.621-2.192.605-3.314-.048-.986-.153-2.073-.84-2.84-.337-.362-.833-.537-1.322-.53z" style="font-size:20px;font-family:&quot;Song Myung&quot;;-inkscape-font-specification:&quot;Song Myung&quot;;text-align:center;text-anchor:middle;display:inline;stroke-width:1.99999"/><path id="path87" d="M366.476 120.088c-.045.422.39.527.715.566.516-.074.74.783.15.805a270.49 270.49 0 0 1-3.822 0c-.612-.035-.338-.887.182-.806.288-.046.69-.09.713-.462.076-2.718.034-5.438.045-8.157-.004-.554.009-1.11-.007-1.663-.052-.432-.545-.39-.868-.447-.47.083-.798-.555-.325-.794.63-.214 1.288-.343 1.93-.521.348-.071.686-.219 1.041-.228.391.022.262.518.275.795a101.474 101.474 0 0 0-.048 4.077c.007 2.278-.017 4.557.019 6.835z" style="font-size:20px;font-family:&quot;Song Myung&quot;;-inkscape-font-specification:&quot;Song Myung&quot;;text-align:center;text-anchor:middle;display:inline;stroke-width:1.99999"/><path id="text81" d="M358.935 116.072c.917.295 1.838.682 2.526 1.377.564.732.633 1.789.266 2.622-.455.942-1.48 1.437-2.472 1.591-1.26.223-2.602.014-3.711-.628-.283-.257-.168-.663-.2-1 .016-.31-.064-.636.053-.93.176-.262.522-.173.79-.178.372.04.419.444.47.739.086.33.047.766.406.937.75.316 1.631.358 2.395.068.776-.296.939-1.502.257-1.98-.966-.714-2.231-.823-3.2-1.533-.572-.374-1.027-.969-1.086-1.667-.1-.74.115-1.536.68-2.046.801-.758 1.971-.951 3.035-.906a5.264 5.264 0 0 1 2.061.583c.36.214.234.653.23.995-.034.285.017.59-.106.856-.182.249-.517.166-.782.17-.332-.018-.414-.362-.448-.631-.082-.332-.055-.774-.424-.936-.66-.256-1.48-.275-2.079.14-.563.447-.533 1.465.125 1.813.375.24.796.396 1.214.544z" style="font-size:20px;font-family:&quot;Song Myung&quot;;-inkscape-font-specification:&quot;Song Myung&quot;;text-align:center;text-anchor:middle;display:inline;stroke-width:1.99999"/></g><path id="use1" stroke-width=".019" d="M384.808 116.007q0-.233.251-.359h11.433q.27.144.27.359 0 .197-.252.34l-5.707.019h-5.708q-.287-.09-.287-.36zm0 3.482q0-.27.287-.36h11.415q.251.18.251.36 0 .233-.269.359h-11.433q-.251-.126-.251-.36z"/><path id="use3" stroke-width=".019" d="M402.921 117.084q0-.251.27-.862.269-.61.861-1.274t1.328-.646q.736 0 1.185.413.448.412.466 1.148-.035.341-.053.377 0 .054-.288.826-.287.772-.592 1.74-.305.97-.287 1.544 0 .772.251 1.077.252.305.754.323.413 0 .772-.197.359-.198.556-.413.198-.215.485-.592 0-.018.09-.36.09-.34.25-1.058.162-.718.342-1.328.682-2.692.754-2.818.233-.485.771-.485.234 0 .377.126.144.126.198.215.053.09.036.162 0 .233-.88 3.769t-1.005 3.877q-.502 1.49-1.74 2.369-1.24.88-2.478.897-.807 0-1.418-.395-.61-.395-.61-1.184 0-.395.126-.664.126-.27.34-.395.216-.126.36-.18.143-.053.305-.053.79 0 .79.753 0 .36-.216.628-.215.27-.413.36-.197.09-.233.09l-.054.017q.036.09.341.215.305.126.61.126h.144q.305 0 .467-.036.592-.161 1.095-.682.502-.52.771-1.113.27-.592.413-1.005.144-.413.144-.538l-.108.072q-.108.071-.34.197-.234.126-.468.215-.359.09-.7.09-.825 0-1.453-.395-.628-.395-.826-1.274-.018-.126-.018-.556 0-1.023.628-2.675.629-1.65.629-2.1v-.251q0-.054-.072-.125-.072-.072-.198-.072h-.071q-.413 0-.754.34-.341.342-.539.737-.197.395-.305.753-.108.36-.143.395-.036.036-.288.036h-.25q-.109-.107-.109-.161z"/><path id="path82" d="m-127.345 114.936.603.207q.698.264 1.15.566.472.283.773.603.264.34.377.736.114.377.114.81 0 .754-.34 1.282-.32.51-.848.849-.528.32-1.188.47-.64.152-1.282.152-.792 0-1.395-.17-.603-.15-1.207-.452-.339-.151-.339-.547l-.019-1.188q0-.471.453-.471h.301q.415 0 .51.433l.15.792q.057.377.396.49.566.227 1.169.227.961 0 1.395-.34.434-.34.434-.942 0-.547-.377-.849-.377-.32-1.339-.697l-.83-.302q-1.055-.434-1.62-1.037-.566-.603-.566-1.546 0-.716.301-1.206.302-.49.792-.811.49-.32 1.094-.452.603-.151 1.225-.151.66 0 1.207.15.546.133 1.093.396.358.17.34.566l-.057 1.056q-.02.452-.472.452h-.282q-.434 0-.51-.415l-.131-.697q-.076-.396-.415-.49-.396-.151-.83-.151-.754 0-1.169.32-.395.32-.395.924 0 .453.358.773.188.151.528.32.358.17.848.34zm7.541 4.016q0 .433.415.509l.396.075q.415.076.415.434t-.472.358h-3.6q-.472 0-.472-.358 0-.34.434-.434l.414-.075q.415-.076.415-.51.02-.603.02-1.206.018-.603.018-1.206v-7.202q0-.434-.434-.49l-.565-.076q-.434-.056-.434-.396t.415-.452l2.489-.641q.094-.038.15-.038h.151q.132 0 .17.038.113.075.113.452l-.057 2.187v7.824q.02.603.02 1.207zm6.693-7.56q.98 0 1.79.377.812.358 1.377.999.585.622.886 1.47.32.83.32 1.792 0 .98-.32 1.828-.301.83-.867 1.452-.566.603-1.376.961-.81.34-1.81.34t-1.81-.34q-.81-.358-1.376-.961-.566-.622-.886-1.452-.302-.848-.302-1.828 0-.962.302-1.81.32-.849.886-1.47.584-.623 1.376-.981.81-.377 1.81-.377zm0 .848q-2.168 0-2.168 3.77 0 3.733 2.168 3.733t2.168-3.732q0-3.77-2.168-3.77zm8.672-.754q.151.094.17.434l.056.735q.604-.641 1.245-.943.66-.32 1.47-.32.943 0 1.603.414.66.396 1.074 1.056.434.641.622 1.452.208.81.208 1.621 0 .867-.226 1.716-.227.83-.698 1.49t-1.188 1.074q-.716.396-1.678.396-1.395 0-2.375-1.037v2.206l.038 1.263q0 .433.414.509l.66.132q.415.075.415.433 0 .359-.471.359h-3.809q-.47 0-.47-.359 0-.358.414-.452l.433-.094q.415-.095.415-.51.02-.603.02-1.263.018-.64.018-1.206v-5.713q0-.301-.019-.527-.019-.151-.019-.283v-.283q-.037-.434-.452-.49l-.453-.057q-.433-.056-.433-.396 0-.32.377-.471l2.168-.848q.17-.076.32-.076.076 0 .151.038zm.34 1.904v5.26q.904.735 1.753.735.942 0 1.565-.81.64-.811.64-2.527 0-1.734-.565-2.582-.547-.868-1.47-.868-.849 0-1.923.792zm15.817 1.98q-.075.414-.528.414h-5.467q.038 1.716.83 2.583.791.867 2.054.867.736 0 1.245-.263.527-.283.961-.773.207-.227.396-.227.094 0 .17.057.282.188.075.566-.49.961-1.414 1.47-.924.51-2.168.51-1.056 0-1.885-.36-.81-.357-1.376-.98-.547-.64-.83-1.508-.283-.867-.283-1.885 0-.98.32-1.866.321-.886.906-1.546.603-.679 1.432-1.056.849-.396 1.867-.396.848 0 1.527.283.697.283 1.188.792.49.49.754 1.187.264.698.264 1.546v.302q0 .132-.038.283zm-5.957-.453h2.827q.68 0 .905-.283.245-.282.245-.791 0-.849-.49-1.414-.471-.566-1.187-.566-.585 0-1.018.302-.415.282-.698.735-.264.452-.415 1-.132.527-.17 1.017z" aria-label="slope" style="font-size:20px;font-family:&quot;Song Myung&quot;;-inkscape-font-specification:&quot;Song Myung&quot;;text-align:center;text-anchor:middle;display:inline;stroke-width:1.99999"/><g id="g85" transform="matrix(.01904 0 0 -.01904 221.277 424.461)"><path id="path84" stroke-width="1.44" d="M2347.2 740.16q0 15.84 23.04 15.84h18.72q2.88 0 5.76-1.44l2.88-1.44 2.88-4.32 2.88-4.32 4.32-7.2q53.28-106.56 141.12-188.64 87.84-82.08 159.84-116.64t138.24-53.28q24.48-7.2 24.48-18.72t-12.96-15.84q-12.96-4.32-53.28-15.84t-83.52-34.56q-207.36-100.8-313.92-311.04-5.76-12.96-10.08-14.4-4.32-1.44-21.6-2.88-28.8 0-28.8 10.08 0 5.76 7.2 24.48 50.4 99.36 123.84 177.12l14.4 14.4H734.4l14.4-14.4Q822.24 99.36 872.64 0q7.2-18.72 7.2-24.48 0-10.08-28.8-10.08-15.84 0-20.16 1.44t-11.52 15.84q-64.8 128.16-178.56 224.64-113.76 96.48-260.64 133.92-14.4 4.32-18.72 7.2-4.32 2.88-4.32 11.52t4.32 10.08q4.32 1.44 15.84 7.2t27.36 8.64q15.84 2.88 43.2 14.4 27.36 11.52 59.04 25.92 205.92 100.8 312.48 311.04 7.2 14.4 11.52 15.84 4.32 1.44 23.04 2.88 25.92-1.44 25.92-14.4 0-7.2-7.2-21.6-50.4-99.36-123.84-177.12l-14.4-14.4h1758.24l-14.4 14.4q-47.52 50.4-89.28 116.64-41.76 66.24-41.76 80.64zM671.04 249.12H2556l14.4 11.52q56.16 43.2 168.48 99.36-1.44 1.44-25.92 12.96-24.48 11.52-64.8 34.56-40.32 23.04-77.76 51.84l-14.4 11.52h-940.32l-4.32 1.44-468-1.44H671.04l-14.4-11.52q-56.16-43.2-168.48-99.36 1.44-1.44 25.92-12.96 24.48-11.52 64.8-34.56 40.32-23.04 77.76-51.84z"/></g><g id="g86" style="stroke-width:1.06086" transform="matrix(.94264 0 0 .94264 258.326 -13.506)"><path id="path85" stroke-width=".02" d="M370.954 135.455q0-.248.267-.381h12.129q.285.152.285.38 0 .21-.266.362l-6.055.02h-6.055q-.305-.096-.305-.381zm0 3.693q0-.285.305-.38h12.11q.266.19.266.38 0 .248-.285.381H371.22q-.267-.133-.267-.38z"/><path id="path86" stroke-width=".02" d="M393.326 136.597q0-.266.286-.914.286-.647.914-1.352.628-.704 1.409-.685.78 0 1.256.438t.496 1.218q-.039.362-.058.4 0 .057-.304.876-.305.819-.629 1.847-.323 1.028-.304 1.637 0 .82.266 1.143.267.323.8.343.438 0 .819-.21.38-.21.59-.438.21-.228.514-.628 0-.02.095-.381.096-.362.267-1.123.171-.762.362-1.41.723-2.855.8-2.989.247-.514.818-.514.248 0 .4.134.152.133.21.228.056.095.037.171 0 .248-.933 3.999-.933 3.75-1.066 4.113-.533 1.58-1.847 2.513-1.313.933-2.627.952-.857 0-1.504-.42-.648-.418-.648-1.256 0-.419.134-.704.133-.286.361-.42.229-.132.381-.19.152-.057.324-.057.838 0 .838.8 0 .38-.229.666-.228.286-.438.381-.21.095-.247.095l-.057.02q.038.095.361.228.324.133.648.133h.152q.324 0 .495-.038.628-.171 1.161-.723.534-.553.82-1.18.285-.63.437-1.067.152-.438.152-.571l-.114.076q-.114.076-.362.21-.247.133-.495.228-.38.095-.742.095-.876 0-1.542-.419-.667-.419-.876-1.352-.02-.133-.02-.59 0-1.085.667-2.837.667-1.752.667-2.228v-.266q0-.057-.077-.133-.076-.077-.21-.077h-.075q-.438 0-.8.362-.362.362-.571.78-.21.42-.324.8-.114.381-.152.42-.038.037-.305.037h-.266q-.115-.114-.115-.17z"/></g><path id="path93" d="M690.194 116.506q-.075.415-.528.415H684.2q.038 1.715.83 2.583.791.867 2.054.867.736 0 1.245-.264.528-.283.961-.773.208-.226.396-.226.094 0 .17.056.282.189.075.566-.49.961-1.414 1.47-.924.51-2.168.51-1.056 0-1.885-.359-.81-.358-1.376-.98-.547-.641-.83-1.508-.283-.868-.283-1.886 0-.98.32-1.866.321-.886.906-1.546.603-.679 1.432-1.056.849-.396 1.867-.396.848 0 1.527.283.698.283 1.188.792.49.49.754 1.188.264.697.264 1.546v.301q0 .132-.038.283zm-5.957-.452h2.828q.678 0 .904-.283.246-.283.246-.792 0-.848-.49-1.414-.472-.566-1.188-.566-.585 0-1.018.302-.415.283-.698.735-.264.453-.415 1-.132.527-.17 1.018z" style="font-size:20px;font-family:&quot;Song Myung&quot;;-inkscape-font-specification:&quot;Song Myung&quot;;text-align:center;text-anchor:middle;display:inline;stroke-width:1.99999"/><path id="path94" d="M674.037 112.622q.151.095.17.434l.057.735q.603-.64 1.244-.942.66-.32 1.47-.32.943 0 1.603.414.66.396 1.074 1.056.434.64.623 1.451.207.811.207 1.622 0 .867-.226 1.715-.227.83-.698 1.49t-1.188 1.074q-.716.396-1.677.396-1.396 0-2.376-1.037v2.206l.038 1.263q0 .434.415.51l.66.131q.414.076.414.434t-.471.358h-3.808q-.472 0-.472-.358t.415-.453l.434-.094q.414-.094.414-.51.02-.602.02-1.262.018-.641.018-1.207v-5.713q0-.3-.019-.527-.019-.15-.019-.283v-.283q-.037-.433-.452-.49l-.453-.056q-.433-.057-.433-.396 0-.32.377-.472l2.168-.848q.17-.075.32-.075.076 0 .151.037zm.34 1.905v5.26q.905.735 1.753.735.943 0 1.565-.811.64-.81.64-2.526 0-1.735-.565-2.583-.547-.867-1.47-.867-.849 0-1.923.792z" style="font-size:20px;font-family:&quot;Song Myung&quot;;-inkscape-font-specification:&quot;Song Myung&quot;;text-align:center;text-anchor:middle;display:inline;stroke-width:1.99999"/><path id="path95" d="M665.365 112.528q.98 0 1.791.377.81.358 1.376 1 .585.622.886 1.47.32.83.32 1.79 0 .981-.32 1.83-.301.83-.867 1.451-.565.604-1.376.962-.81.34-1.81.34t-1.81-.34q-.81-.358-1.376-.962-.566-.622-.886-1.451-.302-.849-.302-1.83 0-.96.302-1.809.32-.848.886-1.47.584-.623 1.376-.98.81-.378 1.81-.378zm0 .848q-2.168 0-2.168 3.771 0 3.733 2.168 3.733t2.168-3.733q0-3.77-2.168-3.77z" style="font-size:20px;font-family:&quot;Song Myung&quot;;-inkscape-font-specification:&quot;Song Myung&quot;;text-align:center;text-anchor:middle;display:inline;stroke-width:1.99999"/><path id="path96" d="M658.672 120.088q0 .434.415.51l.396.074q.415.076.415.434t-.472.358h-3.6q-.472 0-.472-.358 0-.34.434-.433l.415-.076q.414-.075.414-.509.02-.603.02-1.207.018-.603.018-1.206v-7.202q0-.433-.434-.49l-.565-.075q-.434-.057-.434-.396 0-.34.415-.453l2.489-.64q.094-.038.15-.038h.151q.132 0 .17.037.113.076.113.453l-.057 2.187v7.823q.02.604.02 1.207z" style="font-size:20px;font-family:&quot;Song Myung&quot;;-inkscape-font-specification:&quot;Song Myung&quot;;text-align:center;text-anchor:middle;display:inline;stroke-width:1.99999"/><path id="path97" d="m651.131 116.072.603.208q.698.264 1.15.565.472.283.773.604.264.339.378.735.113.377.113.81 0 .755-.34 1.283-.32.509-.848.848-.528.32-1.188.471-.64.151-1.282.151-.792 0-1.395-.17-.603-.15-1.206-.452-.34-.15-.34-.547l-.019-1.187q0-.472.453-.472h.301q.415 0 .51.434l.15.792q.057.377.396.49.566.226 1.17.226.96 0 1.394-.34.434-.339.434-.942 0-.547-.377-.848-.377-.32-1.339-.698l-.83-.302q-1.055-.433-1.62-1.036-.566-.604-.566-1.546 0-.717.301-1.207.302-.49.792-.81.49-.321 1.094-.453.603-.15 1.225-.15.66 0 1.207.15.546.132 1.093.396.358.17.34.565l-.057 1.056q-.019.453-.471.453h-.283q-.434 0-.51-.415l-.131-.698q-.076-.396-.415-.49-.396-.15-.83-.15-.754 0-1.168.32-.396.32-.396.924 0 .452.358.773.188.15.528.32.358.17.848.34z" style="font-size:20px;font-family:&quot;Song Myung&quot;;-inkscape-font-specification:&quot;Song Myung&quot;;text-align:center;text-anchor:middle;display:inline;stroke-width:1.99999"/><g id="g111" transform="translate(19.212 1.044)"><g id="g81" style="stroke-width:1.06086" transform="matrix(.01795 0 0 -.01795 105.753 120.546)"><path id="path79" stroke-width="1.061" d="M56 347q0 13 14 20h637q15-8 15-20 0-11-14-19l-318-1H72q-16 5-16 20zm0-194q0 15 16 20h636q14-10 14-20 0-13-15-20H70q-14 7-14 20z"/><path id="path80" stroke-width="1.061" d="M1140 237v13q0 13 14 20h581q15-8 15-20t-15-20h-581q-14 7-14 20z"/><path id="path81" stroke-width="1.061" d="M1855 287q0 14 15 48t48 71q33 37 74 36 41 0 66-23t26-64q-2-19-3-21 0-3-16-46t-33-97q-17-54-16-86 0-43 14-60t42-18q23 0 43 11t31 23q11 12 27 33 0 1 5 20t14 59q9 40 19 74 38 150 42 157 13 27 43 27 13 0 21-7t11-12q3-5 2-9 0-13-49-210t-56-216q-28-83-97-132t-138-50q-45 0-79 22t-34 66q0 22 7 37t19 22q12 7 20 10t17 3q44 0 44-42 0-20-12-35t-23-20q-11-5-13-5l-3-1q2-5 19-12t34-7h8q17 0 26 2 33 9 61 38t43 62q15 33 23 56t8 30l-6-4q-6-4-19-11t-26-12q-20-5-39-5-46 0-81 22t-46 71q-1 7-1 31 0 57 35 149t35 117v14q0 3-4 7t-11 4h-4q-23 0-42-19t-30-41q-11-22-17-42t-8-22q-2-2-16-2h-14q-6 6-6 9z"/></g><g id="g104" transform="translate(-298.783)"><path id="path100" d="M397.998 116.506c-.038.4-.467.438-.782.415h-5.214c.012 1.09.309 2.306 1.255 2.962.823.577 1.97.643 2.874.224.438-.216.77-.579 1.115-.91.544-.346.734.46.358.766-.648 1.126-1.956 1.719-3.222 1.742-1.264.073-2.588-.346-3.456-1.295-1.02-1.17-1.294-2.832-1.078-4.33.227-1.51 1.165-2.949 2.588-3.57 1.425-.65 3.274-.538 4.455.554.934.836 1.243 2.159 1.123 3.368l-.016.074zm-5.958-.452c1.022-.006 2.045.012 3.067-.01.443.009.844-.321.887-.769.153-.92-.35-2.017-1.311-2.24-.774-.178-1.566.246-1.986.89-.416.63-.594 1.385-.657 2.129z" style="font-size:20px;font-family:&quot;Song Myung&quot;;-inkscape-font-specification:&quot;Song Myung&quot;;text-align:center;text-anchor:middle;display:inline;stroke-width:1.99999"/><path id="path101" d="M381.84 112.622c.253.28.158.697.218 1.046.055.256.468-.437.7-.49 1.249-.937 3.213-.89 4.291.294 1.088 1.185 1.366 2.91 1.183 4.462-.164 1.518-1.023 3.094-2.527 3.626-1.227.424-2.707.145-3.581-.85.01 1.221-.035 2.447.063 3.664.143.391.628.325.959.428.598-.07.687.916.033.81-1.306-.004-2.612.007-3.918-.006-.614-.037-.341-.902.18-.833.354-.041.802-.203.724-.651.058-2.774.03-5.548.033-8.322-.068-.38.034-.79-.116-1.15-.285-.422-.97-.07-1.23-.519-.153-.417.295-.63.62-.729.715-.266 1.415-.583 2.141-.813a.37.37 0 0 1 .228.033zm.34 1.905v5.26c.725.628 1.83 1.018 2.712.478 1.01-.613 1.244-1.884 1.247-2.974 0-1.128-.105-2.435-1.028-3.218-.779-.623-1.856-.279-2.6.225a6.329 6.329 0 0 0-.33.229z" style="font-size:20px;font-family:&quot;Song Myung&quot;;-inkscape-font-specification:&quot;Song Myung&quot;;text-align:center;text-anchor:middle;display:inline;stroke-width:1.99999"/><path id="path102" d="M373.168 112.528a4.246 4.246 0 0 1 3.596 1.92c1.15 1.789 1.033 4.342-.374 5.96-.834.933-2.108 1.39-3.346 1.338-1.368.005-2.74-.673-3.48-1.84-.838-1.26-.954-2.906-.538-4.336.36-1.206 1.264-2.236 2.435-2.71a4.294 4.294 0 0 1 1.707-.332zm0 .848c-.718-.033-1.398.415-1.691 1.065-.505 1.08-.506 2.31-.45 3.478.078.922.242 1.971.998 2.596.812.623 2.161.448 2.7-.455.6-.987.621-2.192.605-3.314-.048-.986-.153-2.073-.84-2.84-.337-.362-.833-.537-1.322-.53z" style="font-size:20px;font-family:&quot;Song Myung&quot;;-inkscape-font-specification:&quot;Song Myung&quot;;text-align:center;text-anchor:middle;display:inline;stroke-width:1.99999"/><path id="path103" d="M366.476 120.088c-.045.422.39.527.715.566.516-.074.74.783.15.805a270.49 270.49 0 0 1-3.822 0c-.612-.035-.338-.887.182-.806.288-.046.69-.09.713-.462.076-2.718.034-5.438.045-8.157-.004-.554.009-1.11-.007-1.663-.052-.432-.545-.39-.868-.447-.47.083-.798-.555-.325-.794.63-.214 1.288-.343 1.93-.521.348-.071.686-.219 1.041-.228.391.022.262.518.275.795a101.474 101.474 0 0 0-.048 4.077c.007 2.278-.017 4.557.019 6.835z" style="font-size:20px;font-family:&quot;Song Myung&quot;;-inkscape-font-specification:&quot;Song Myung&quot;;text-align:center;text-anchor:middle;display:inline;stroke-width:1.99999"/><path id="path104" d="M358.935 116.072c.917.295 1.838.682 2.526 1.377.564.732.633 1.789.266 2.622-.455.942-1.48 1.437-2.472 1.591-1.26.223-2.602.014-3.711-.628-.283-.257-.168-.663-.2-1 .016-.31-.064-.636.053-.93.176-.262.522-.173.79-.178.372.04.419.444.47.739.086.33.047.766.406.937.75.316 1.631.358 2.395.068.776-.296.939-1.502.257-1.98-.966-.714-2.231-.823-3.2-1.533-.572-.374-1.027-.969-1.086-1.667-.1-.74.115-1.536.68-2.046.801-.758 1.971-.951 3.035-.906a5.264 5.264 0 0 1 2.061.583c.36.214.234.653.23.995-.034.285.017.59-.106.856-.182.249-.517.166-.782.17-.332-.018-.414-.362-.448-.631-.082-.332-.055-.774-.424-.936-.66-.256-1.48-.275-2.079.14-.563.447-.533 1.465.125 1.813.375.24.796.396 1.214.544z" style="font-size:20px;font-family:&quot;Song Myung&quot;;-inkscape-font-specification:&quot;Song Myung&quot;;text-align:center;text-anchor:middle;display:inline;stroke-width:1.99999"/></g></g><path id="path106" d="m-108.696 75.238.603.207q.698.264 1.15.566.472.283.773.603.264.34.377.736.113.377.113.81 0 .754-.339 1.282-.32.51-.848.849-.528.32-1.188.47-.641.152-1.282.152-.792 0-1.395-.17-.603-.15-1.207-.452-.34-.151-.34-.547l-.018-1.188q0-.471.452-.471h.302q.415 0 .51.433l.15.792q.057.377.396.49.565.227 1.169.227.961 0 1.395-.34.433-.339.433-.942 0-.547-.377-.849-.377-.32-1.338-.697l-.83-.302q-1.055-.434-1.621-1.037-.566-.603-.566-1.546 0-.716.302-1.206t.792-.811q.49-.32 1.093-.452.604-.151 1.226-.151.66 0 1.206.15.547.133 1.094.396.358.17.34.566l-.057 1.056q-.02.452-.472.452h-.283q-.433 0-.509-.414l-.132-.698q-.075-.396-.414-.49-.396-.151-.83-.151-.754 0-1.169.32-.396.321-.396.924 0 .453.359.773.188.151.527.32.359.17.849.34zm7.541 4.016q0 .433.415.509l.396.075q.414.076.414.434t-.47.358h-3.602q-.471 0-.471-.358 0-.34.434-.434l.414-.075q.415-.076.415-.51.019-.603.019-1.206.019-.603.019-1.206v-7.202q0-.434-.434-.49l-.565-.076q-.434-.056-.434-.396 0-.339.415-.452l2.488-.641q.095-.038.151-.038h.151q.132 0 .17.038.113.075.113.452l-.057 2.187v7.824q.02.603.02 1.207zm6.693-7.56q.98 0 1.79.377.811.358 1.377.999.584.622.886 1.47.32.83.32 1.792 0 .98-.32 1.828-.302.83-.867 1.452-.566.603-1.376.961-.811.34-1.81.34-1 0-1.81-.34-.81-.358-1.376-.961-.566-.622-.886-1.452-.302-.848-.302-1.828 0-.962.302-1.81.32-.849.886-1.47.584-.623 1.376-.981.81-.377 1.81-.377zm0 .848q-2.168 0-2.168 3.77 0 3.734 2.168 3.734t2.168-3.733q0-3.77-2.168-3.77zm8.672-.754q.15.094.17.434l.056.735q.604-.641 1.245-.943.66-.32 1.47-.32.943 0 1.603.414.66.396 1.074 1.056.434.641.622 1.452.208.81.208 1.621 0 .867-.227 1.716-.226.83-.697 1.49t-1.188 1.074q-.716.396-1.678.396-1.395 0-2.375-1.037v2.206l.038 1.263q0 .433.414.509l.66.132q.415.075.415.433 0 .359-.471.359h-3.809q-.471 0-.471-.359 0-.358.415-.452l.433-.094q.415-.095.415-.51.019-.603.019-1.263.019-.64.019-1.206v-5.712q0-.302-.019-.528-.019-.151-.019-.283v-.283q-.038-.434-.452-.49l-.453-.057q-.433-.056-.433-.396 0-.32.377-.47l2.168-.85q.17-.075.32-.075.076 0 .151.038zm.34 1.904v5.26q.904.735 1.753.735.942 0 1.564-.81.641-.811.641-2.527 0-1.734-.565-2.582-.547-.868-1.47-.868-.849 0-1.924.792zm15.817 1.98q-.076.414-.528.414h-5.467q.037 1.716.83 2.583.791.867 2.054.867.735 0 1.244-.263.528-.283.962-.773.207-.227.396-.227.094 0 .17.057.282.188.075.565-.49.962-1.414 1.471-.924.509-2.168.509-1.056 0-1.885-.358-.811-.358-1.377-.98-.546-.642-.83-1.509-.282-.867-.282-1.885 0-.98.32-1.866.321-.887.905-1.546.604-.68 1.433-1.056.849-.396 1.867-.396.848 0 1.527.283.697.283 1.187.792.49.49.755 1.187.264.698.264 1.546v.302q0 .132-.038.283zm-5.958-.453h2.828q.679 0 .905-.283.245-.282.245-.791 0-.849-.49-1.414-.471-.566-1.188-.566-.584 0-1.018.302-.414.282-.697.735-.264.452-.415 1-.132.527-.17 1.017z" aria-label="slope" style="font-size:20px;font-family:&quot;Song Myung&quot;;-inkscape-font-specification:&quot;Song Myung&quot;;text-align:center;text-anchor:middle;display:inline;stroke-width:1.99999"/><path id="path110" stroke-width=".019" d="M225.161 95.247q0-.25.27-.861.269-.61.86-1.274.593-.664 1.329-.646.736 0 1.185.412.448.413.466 1.149-.036.341-.054.377 0 .054-.287.826-.287.771-.592 1.74-.305.97-.287 1.544 0 .772.25 1.077.252.305.755.323.413 0 .772-.198.358-.197.556-.412.197-.216.484-.593 0-.017.09-.359.09-.34.251-1.058.162-.718.341-1.329.682-2.692.754-2.817.234-.485.772-.485.233 0 .377.126.144.125.197.215.054.09.036.162 0 .233-.88 3.769-.879 3.535-1.004 3.876-.503 1.49-1.741 2.37-1.239.879-2.477.897-.808 0-1.418-.395-.61-.395-.61-1.185 0-.394.126-.664.125-.269.34-.395.216-.125.36-.179.143-.054.305-.054.79 0 .79.754 0 .359-.216.628-.215.27-.413.36-.197.089-.233.089l-.054.018q.036.09.341.215.305.126.61.126h.144q.305 0 .466-.036.593-.162 1.095-.682.503-.52.772-1.113.27-.592.413-1.005.143-.413.143-.538l-.107.071q-.108.072-.341.198-.234.125-.467.215-.359.09-.7.09-.825 0-1.454-.395-.628-.395-.825-1.274-.018-.126-.018-.557 0-1.023.628-2.674t.628-2.1v-.251q0-.054-.072-.126-.071-.071-.197-.071h-.072q-.413 0-.754.34-.34.342-.538.736-.197.395-.305.754-.108.36-.144.395-.036.036-.287.036h-.251q-.108-.108-.108-.162z"/><path id="path112" d="M304.102 237.803H200.87v15.775h-61.115V133.493l5.977-.202-11.092-8.443-11.152 8.645h5.957l.08 129.24h71.345v15.85H304.1v-15.85h71.345l.08-129.24h5.957l-11.152-8.645-11.091 8.443 5.977.202v120.085h-61.115Z" style="fill:#ffd42a;stroke:#000;stroke-width:.999997"/><g id="g2" style="stroke-width:.56431" transform="matrix(.03374 0 0 -.03374 197.539 270.372)"><path id="use1-7" stroke-width=".813" d="M2347.2 740.16q0 15.84 23.04 15.84h18.72q2.88 0 5.76-1.44l2.88-1.44 2.88-4.32 2.88-4.32 4.32-7.2q53.28-106.56 141.12-188.64 87.84-82.08 159.84-116.64t138.24-53.28q24.48-7.2 24.48-18.72t-12.96-15.84q-12.96-4.32-53.28-15.84t-83.52-34.56q-207.36-100.8-313.92-311.04-5.76-12.96-10.08-14.4-4.32-1.44-21.6-2.88-28.8 0-28.8 10.08 0 5.76 7.2 24.48 50.4 99.36 123.84 177.12l14.4 14.4H734.4l14.4-14.4Q822.24 99.36 872.64 0q7.2-18.72 7.2-24.48 0-10.08-28.8-10.08-15.84 0-20.16 1.44t-11.52 15.84q-64.8 128.16-178.56 224.64-113.76 96.48-260.64 133.92-14.4 4.32-18.72 7.2-4.32 2.88-4.32 11.52t4.32 10.08q4.32 1.44 15.84 7.2t27.36 8.64q15.84 2.88 43.2 14.4 27.36 11.52 59.04 25.92 205.92 100.8 312.48 311.04 7.2 14.4 11.52 15.84 4.32 1.44 23.04 2.88 25.92-1.44 25.92-14.4 0-7.2-7.2-21.6-50.4-99.36-123.84-177.12l-14.4-14.4h1758.24l-14.4 14.4q-47.52 50.4-89.28 116.64-41.76 66.24-41.76 80.64zM671.04 249.12H2556l14.4 11.52q56.16 43.2 168.48 99.36-1.44 1.44-25.92 12.96-24.48 11.52-64.8 34.56-40.32 23.04-77.76 51.84l-14.4 11.52h-940.32l-4.32 1.44-468-1.44H671.04l-14.4-11.52q-56.16-43.2-168.48-99.36 1.44-1.44 25.92-12.96 24.48-11.52 64.8-34.56 40.32-23.04 77.76-51.84z"/></g><path id="use63-9" fill="#fed341" stroke="#000" stroke-width="1.2" d="m164.165-221.643 11.958 9.724-1.48 1.827 5.81-.487-.73-5.785-1.478 1.826-11.958-9.723z" style="display:inline;fill:#f0f;stroke-width:.800002;stroke-dasharray:none"/><path id="path116" fill="#fed341" stroke="#000" stroke-width="1.2" d="m161.168-241.056 10.379 11.127-2.377 2.227 7.999.363.165-8.008-2.377 2.227-10.378-11.128z" style="display:inline;fill:#f0f;stroke-width:.8;stroke-dasharray:none"/><path id="use63-9-2" fill="#fed341" stroke="#000" stroke-width="1.2" d="m233.518 102.663 10.885 10.496-2.369 2.462h8.005l-.306-8.002-2.368 2.462-10.885-10.495z" style="display:inline;fill:#f0f;stroke-width:.799999;stroke-dasharray:none"/><path id="path117" fill="#fed341" stroke="#000" stroke-width="1.2" d="m124.693-238.075 14.168-.009.005 2.32 4.01-3.776-4.025-3.762.005 2.32-14.168.008z" style="display:inline;fill:#f0f;stroke-width:.8;stroke-dasharray:none"/><path id="path118" fill="#fed341" stroke="#000" stroke-width="1.2" d="m141.94-235.949 15.122-.013.007 3.417 5.756-5.562-5.778-5.542.007 3.417-15.121.013z" style="display:inline;fill:#f0f;stroke-width:.799999;stroke-dasharray:none"/><path id="text1" d="M222.127 19.213h.354q.327 0 .327.354 0 .355-.327.355h-1.458q-.15 0-.245-.096-.081-.109-.081-.259 0-.354.327-.354h.326v-7.206l-2.874 2.084q-.136.11-.272.11t-.3-.096l-2.752-1.69v6.798h.314q.327 0 .327.354 0 .355-.327.355h-1.376q-.327 0-.327-.355 0-.354.327-.354h.34v-7.26h-.408q-.327 0-.327-.355 0-.163.082-.258.095-.11.245-.11h.422q.245 0 .504.15l3.337 2.044 2.793-2.044q.218-.15.368-.15h1.021q.341 0 .341.368 0 .355-.34.355h-.341zm2.084 0v-7.26h-.395q-.327 0-.327-.355 0-.367.327-.367h1.567q.34 0 .34.367 0 .355-.34.355h-.395v7.26h.395q.326 0 .326.354 0 .355-.326.355h-1.567q-.327 0-.327-.355 0-.354.327-.354zm7.193.286q0-.34.217-.613.218-.272.45-.272.463 0 .463.477 0 .381-.327.68-.313.287-.79.287-.994 0-1.648-1.253-.273-.532-.477-.763-.354-.382-.913-.382-.544 0-.544.096v1.457h.367q.327 0 .327.354 0 .355-.327.355h-1.47q-.328 0-.328-.355 0-.354.327-.354h.327v-7.26h-.327q-.327 0-.327-.355 0-.367.327-.367h1.403q1.866 0 3.024.817t1.158 2.316q0 1.267-.776 2.166-.763.885-1.99.98.805.232 1.09 1.05.178.503.314.708.15.19.45.231zm-2.439-2.506q1.144 0 1.88-.709.736-.722.736-1.92 0-1.199-.927-1.853-.926-.667-2.234-.667-.585 0-.585.177v4.822q0 .15 1.13.15zm9.113 2.506q0-.34.218-.613.218-.272.45-.272.463 0 .463.477 0 .381-.327.68-.313.287-.79.287-.994 0-1.648-1.253-.273-.532-.477-.763-.354-.382-.913-.382-.545 0-.545.096v1.457h.368q.327 0 .327.354 0 .355-.327.355h-1.471q-.327 0-.327-.355 0-.354.327-.354h.327v-7.26h-.327q-.327 0-.327-.355 0-.367.327-.367h1.403q1.866 0 3.024.817t1.158 2.316q0 1.267-.776 2.166-.763.885-1.99.98.804.232 1.09 1.05.178.503.314.708.15.19.45.231zm-2.438-2.506q1.144 0 1.88-.709.735-.722.735-1.92 0-1.199-.926-1.853-.926-.667-2.234-.667-.586 0-.586.177v4.822q0 .15 1.131.15zm11.061-1.417q0 2.098-1.021 3.297-1.022 1.185-2.534 1.185-1.499 0-2.52-1.213-1.008-1.212-1.008-3.31t1.021-3.27q1.022-1.17 2.52-1.17 1.513 0 2.52 1.185 1.022 1.185 1.022 3.296zm-1.117-1.757q-.3-.872-.94-1.471-.64-.6-1.498-.6-.845 0-1.485.559-.64.558-.954 1.403-.3.83-.3 1.77 0 1.445.764 2.684.762 1.24 2.002 1.24 1.24 0 1.975-1.158.75-1.158.75-2.629 0-.94-.314-1.798zm6.661 5.68q0-.34.218-.613.218-.272.45-.272.463 0 .463.477 0 .381-.327.68-.313.287-.79.287-.994 0-1.648-1.253-.273-.532-.477-.763-.354-.382-.913-.382-.545 0-.545.096v1.457h.368q.327 0 .327.354 0 .355-.327.355h-1.471q-.327 0-.327-.355 0-.354.327-.354h.327v-7.26h-.327q-.327 0-.327-.355 0-.367.327-.367h1.403q1.866 0 3.024.817t1.158 2.316q0 1.267-.776 2.166-.763.885-1.99.98.804.232 1.09 1.05.178.503.314.708.15.19.45.231zm-2.438-2.506q1.144 0 1.88-.709.735-.722.735-1.92 0-1.199-.926-1.853-.926-.667-2.234-.667-.586 0-.586.177v4.822q0 .15 1.131.15zm8.241 2.22v-7.26h-.395q-.327 0-.327-.355 0-.367.327-.367h1.567q.34 0 .34.367 0 .355-.34.355h-.395v7.26h.395q.327 0 .327.354 0 .355-.327.355h-1.567q-.327 0-.327-.355 0-.354.327-.354zm10.626 0h.354q.327 0 .327.354 0 .355-.327.355h-1.458q-.15 0-.245-.096-.082-.109-.082-.259 0-.354.327-.354h.327v-7.206l-2.874 2.084q-.136.11-.272.11-.137 0-.3-.096l-2.752-1.69v6.798h.313q.327 0 .327.354 0 .355-.327.355h-1.375q-.327 0-.327-.355 0-.354.327-.354h.34v-7.26h-.408q-.327 0-.327-.355 0-.163.081-.258.096-.11.246-.11h.422q.245 0 .504.15l3.337 2.044 2.793-2.044q.218-.15.368-.15h1.021q.34 0 .34.368 0 .355-.34.355h-.34zm8.132 0q.313 0 .313.354 0 .355-.313.355h-1.498q-.327 0-.327-.355 0-.354.327-.354h.313l-.395-1.24h-3.637l-.382 1.24h.327q.327 0 .327.354 0 .355-.327.355h-1.375q-.327 0-.327-.355 0-.354.327-.354h.34l2.261-7.26h-.545q-.313 0-.313-.355 0-.367.313-.367h1.404q.3 0 .367.19l2.48 7.792zm-5.04-1.893h3.296l-1.661-5.313zm8.364 2.738q-1.458 0-2.438-1.185-.981-1.185-.981-3.27 0-2.084 1.049-3.296 1.049-1.213 2.479-1.213.735 0 1.308.314.572.3.572.858 0 .259-.136.422-.137.164-.423.164t-.545-.232q-.245-.231-.245-.422 0-.205.068-.34-.245-.11-.585-.11-1.131 0-1.948 1.09-.804 1.09-.804 2.684 0 .953.3 1.825.313.872.926 1.458.627.572 1.512.572t1.362-.709q.477-.722.477-1.607v-.804h-1.621q-.313 0-.313-.354t.313-.354h3.106q.286 0 .286.354t-.286.354h-.709v.736q0 1.035.436 1.553.273.272.273.45 0 .176-.136.299-.123.109-.273.109-.368 0-.722-.736-.231.572-.83.981-.6.409-1.472.409zm5.612-.845h3.024l1.403-1.362q.096-.095.205-.095.286 0 .286.245 0 .082-.082.218l-.98 1.525q-.11.178-.368.178h-4.591q-.327 0-.327-.355 0-.354.327-.354h.327v-7.26h-.327q-.327 0-.327-.355 0-.367.327-.367h3.228q.26 0 .395.136l.859.994q.095.11.095.218 0 .11-.082.19-.068.07-.204.07-.136 0-.245-.11l-.968-.844h-1.975v1.539h1.43q-.081-.123-.081-.259t.095-.232q.11-.109.286-.109.177 0 .273.15l.586.967q.054.096.054.205 0 .109-.082.204-.068.082-.218.082-.136 0-.245-.15l-.177-.204h-1.92z" aria-label="MIRROR IMAGE" style="font-size:20px;font-family:&quot;Glass Antiqua&quot;;-inkscape-font-specification:&quot;Glass Antiqua&quot;;text-align:center;text-anchor:middle;stroke-width:.8"/><path id="path37" d="M215.398-80.697h.433q.4 0 .4.433 0 .434-.4.434h-1.784q-.183 0-.3-.117-.1-.133-.1-.317 0-.433.4-.433h.4v-8.82l-3.517 2.55q-.167.134-.334.134-.166 0-.367-.116l-3.367-2.068v8.32h.383q.4 0 .4.433 0 .434-.4.434h-1.684q-.4 0-.4-.434 0-.433.4-.433h.417v-8.887h-.5q-.4 0-.4-.433 0-.2.1-.317.116-.133.3-.133h.517q.3 0 .617.183l4.084 2.501 3.418-2.5q.267-.184.45-.184h1.25q.418 0 .418.45 0 .433-.417.433h-.417zm2.55 0v-8.887h-.483q-.4 0-.4-.433 0-.45.4-.45h1.918q.416 0 .416.45 0 .433-.416.433h-.484v8.887h.484q.4 0 .4.433 0 .434-.4.434h-1.918q-.4 0-.4-.434 0-.433.4-.433zm8.804.35q0-.417.267-.75.266-.334.55-.334.567 0 .567.584 0 .467-.4.833-.384.35-.967.35-1.218 0-2.018-1.533-.333-.65-.583-.934-.434-.467-1.117-.467-.667 0-.667.117v1.784h.45q.4 0 .4.433 0 .434-.4.434h-1.8q-.4 0-.4-.434 0-.433.4-.433h.4v-8.887h-.4q-.4 0-.4-.433 0-.45.4-.45h1.716q2.285 0 3.702 1 1.417 1 1.417 2.834 0 1.55-.95 2.651-.934 1.084-2.435 1.2.984.284 1.334 1.284.217.617.384.867.183.234.55.284zm-2.984-3.068q1.4 0 2.3-.867.9-.883.9-2.35 0-1.468-1.133-2.268-1.134-.817-2.734-.817-.717 0-.717.217v5.902q0 .183 1.383.183zm11.153 3.068q0-.417.267-.75.267-.334.55-.334.567 0 .567.584 0 .467-.4.833-.383.35-.967.35-1.217 0-2.017-1.533-.334-.65-.584-.934-.433-.467-1.117-.467-.667 0-.667.117v1.784h.45q.4 0 .4.433 0 .434-.4.434h-1.8q-.4 0-.4-.434 0-.433.4-.433h.4v-8.887h-.4q-.4 0-.4-.433 0-.45.4-.45h1.717q2.284 0 3.701 1 1.417 1 1.417 2.834 0 1.55-.95 2.651-.934 1.084-2.434 1.2.984.284 1.334 1.284.216.617.383.867.184.234.55.284zm-2.984-3.068q1.4 0 2.3-.867.901-.883.901-2.35 0-1.468-1.134-2.268-1.133-.817-2.734-.817-.717 0-.717.217v5.902q0 .183 1.384.183zm13.538-1.734q0 2.568-1.25 4.035-1.25 1.45-3.102 1.45-1.833 0-3.084-1.483-1.234-1.484-1.234-4.052 0-2.567 1.25-4.001 1.251-1.434 3.085-1.434 1.85 0 3.085 1.45 1.25 1.451 1.25 4.035zm-1.367-2.15q-.367-1.068-1.15-1.801-.784-.734-1.835-.734-1.033 0-1.817.684-.783.683-1.167 1.717-.367 1.017-.367 2.168 0 1.767.934 3.284t2.45 1.517q1.518 0 2.418-1.417.917-1.417.917-3.218 0-1.15-.383-2.2zm8.153 6.952q0-.417.266-.75.267-.334.55-.334.567 0 .567.584 0 .467-.4.833-.383.35-.967.35-1.217 0-2.017-1.533-.333-.65-.584-.934-.433-.467-1.117-.467-.667 0-.667.117v1.784h.45q.4 0 .4.433 0 .434-.4.434h-1.8q-.4 0-.4-.434 0-.433.4-.433h.4v-8.887h-.4q-.4 0-.4-.433 0-.45.4-.45h1.717q2.284 0 3.702 1 1.417 1 1.417 2.834 0 1.55-.95 2.651-.934 1.084-2.435 1.2.984.284 1.334 1.284.217.617.383.867.184.234.55.284zm-2.985-3.068q1.4 0 2.301-.867.9-.883.9-2.35 0-1.468-1.133-2.268-1.134-.817-2.735-.817-.717 0-.717.217v5.902q0 .183 1.384.183zm10.087 2.718v-8.887h-.483q-.4 0-.4-.433 0-.45.4-.45h1.917q.417 0 .417.45 0 .433-.417.433h-.484v8.887h.484q.4 0 .4.433 0 .434-.4.434h-1.917q-.4 0-.4-.434 0-.433.4-.433zm13.005 0h.433q.4 0 .4.433 0 .434-.4.434h-1.784q-.183 0-.3-.117-.1-.133-.1-.317 0-.433.4-.433h.4v-8.82l-3.518 2.55q-.166.134-.333.134t-.367-.116l-3.368-2.068v8.32h.384q.4 0 .4.433 0 .434-.4.434h-1.684q-.4 0-.4-.434 0-.433.4-.433h.417v-8.887h-.5q-.4 0-.4-.433 0-.2.1-.317.116-.133.3-.133h.516q.3 0 .617.183l4.085 2.501 3.418-2.5q.267-.184.45-.184h1.25q.417 0 .417.45 0 .433-.417.433h-.416zm9.953 0q.383 0 .383.433 0 .434-.383.434h-1.834q-.4 0-.4-.434 0-.433.4-.433h.384l-.484-1.517h-4.452l-.466 1.517h.4q.4 0 .4.433 0 .434-.4.434h-1.684q-.4 0-.4-.434 0-.433.4-.433h.417l2.767-8.887h-.667q-.383 0-.383-.433 0-.45.383-.45h1.718q.366 0 .45.233l3.034 9.537zm-6.169-2.318h4.035l-2.034-6.502zm10.237 3.351q-1.784 0-2.984-1.45t-1.2-4.001q0-2.551 1.283-4.035 1.284-1.484 3.034-1.484.9 0 1.601.383.7.367.7 1.05 0 .318-.166.518-.167.2-.517.2t-.667-.284q-.3-.283-.3-.517 0-.25.083-.416-.3-.134-.717-.134-1.384 0-2.384 1.334-.984 1.334-.984 3.285 0 1.167.367 2.234.384 1.067 1.134 1.784.767.7 1.85.7 1.084 0 1.668-.867.583-.884.583-1.967v-.984h-1.984q-.383 0-.383-.434 0-.433.383-.433h3.802q.35 0 .35.433 0 .434-.35.434h-.867v.9q0 1.267.533 1.9.334.334.334.551 0 .217-.167.367-.15.133-.334.133-.45 0-.883-.9-.284.7-1.017 1.2-.734.5-1.8.5zm6.87-1.033h3.7l1.718-1.667q.116-.117.25-.117.35 0 .35.3 0 .1-.1.267l-1.2 1.867q-.134.217-.45.217h-5.62q-.4 0-.4-.434 0-.433.4-.433h.4v-8.887h-.4q-.4 0-.4-.433 0-.45.4-.45h3.952q.317 0 .484.166l1.05 1.218q.117.133.117.266 0 .134-.1.234-.084.083-.25.083-.167 0-.3-.133l-1.184-1.034h-2.418v1.884h1.75q-.1-.15-.1-.317t.117-.283q.134-.134.35-.134.217 0 .334.184l.717 1.184q.067.116.067.25 0 .133-.1.25-.084.1-.267.1-.167 0-.3-.184l-.217-.25h-2.35z" aria-label="MIRROR IMAGE" style="font-size:20px;font-family:&quot;Glass Antiqua&quot;;-inkscape-font-specification:&quot;Glass Antiqua&quot;;text-align:center;text-anchor:middle;stroke-width:.8"/><g id="g64" transform="translate(0 1.108)"><path id="path64" d="M293.258-19.725h3.701l1.718-1.667q.116-.117.25-.117.35 0 .35.3 0 .1-.1.267l-1.2 1.867q-.134.217-.45.217h-5.62q-.4 0-.4-.434 0-.433.4-.433h.4v-8.886h-.4q-.4 0-.4-.434 0-.45.4-.45h3.952q.317 0 .484.167l1.05 1.217q.117.133.117.266 0 .134-.1.234-.084.083-.25.083-.167 0-.3-.133l-1.184-1.034h-2.418v1.884h1.75q-.1-.15-.1-.317 0-.166.117-.283.134-.133.35-.133.217 0 .334.183l.717 1.184q.067.116.067.25 0 .133-.1.25-.084.1-.267.1-.167 0-.3-.183l-.217-.25h-2.35z" style="font-size:20px;font-family:&quot;Glass Antiqua&quot;;-inkscape-font-specification:&quot;Glass Antiqua&quot;;text-align:center;text-anchor:middle;stroke-width:.8"/><path id="path63" d="M286.39-18.691q-1.785 0-2.985-1.45-1.2-1.451-1.2-4.002 0-2.551 1.283-4.035 1.284-1.484 3.034-1.484.9 0 1.601.384.7.366.7 1.05 0 .317-.166.517-.167.2-.517.2t-.667-.283q-.3-.284-.3-.517 0-.25.083-.417-.3-.134-.717-.134-1.384 0-2.384 1.334-.984 1.334-.984 3.285 0 1.167.367 2.234.384 1.067 1.134 1.784.767.7 1.85.7 1.084 0 1.668-.867.583-.884.583-1.967v-.984h-1.984q-.383 0-.383-.433 0-.434.383-.434h3.802q.35 0 .35.434 0 .433-.35.433h-.867v.9q0 1.267.533 1.901.334.333.334.55 0 .217-.167.367-.15.133-.334.133-.45 0-.883-.9-.284.7-1.017 1.2-.734.5-1.8.5z" style="font-size:20px;font-family:&quot;Glass Antiqua&quot;;-inkscape-font-specification:&quot;Glass Antiqua&quot;;text-align:center;text-anchor:middle;stroke-width:.8"/><path id="path56" d="M282.321-19.725q.383 0 .383.433 0 .434-.383.434h-1.834q-.4 0-.4-.434 0-.433.4-.433h.384l-.484-1.517h-4.452l-.466 1.517h.4q.4 0 .4.433 0 .434-.4.434h-1.684q-.4 0-.4-.434 0-.433.4-.433h.417l2.767-8.886h-.667q-.383 0-.383-.434 0-.45.383-.45h1.718q.366 0 .45.233l3.034 9.537zm-6.169-2.317h4.035l-2.034-6.503z" style="font-size:20px;font-family:&quot;Glass Antiqua&quot;;-inkscape-font-specification:&quot;Glass Antiqua&quot;;text-align:center;text-anchor:middle;stroke-width:.8"/><path id="path55" d="M272.368-19.725h.433q.4 0 .4.433 0 .434-.4.434h-1.784q-.183 0-.3-.117-.1-.133-.1-.317 0-.433.4-.433h.4v-8.82l-3.518 2.551q-.166.134-.333.134t-.367-.117l-3.368-2.068v8.32h.384q.4 0 .4.433 0 .434-.4.434h-1.684q-.4 0-.4-.434 0-.433.4-.433h.417v-8.886h-.5q-.4 0-.4-.434 0-.2.1-.317.116-.133.3-.133h.516q.3 0 .617.183l4.085 2.501 3.418-2.5q.267-.184.45-.184h1.25q.417 0 .417.45 0 .434-.417.434h-.416z" style="font-size:20px;font-family:&quot;Glass Antiqua&quot;;-inkscape-font-specification:&quot;Glass Antiqua&quot;;text-align:center;text-anchor:middle;stroke-width:.8"/><path id="path54" d="M259.363-19.725v-8.886h-.483q-.4 0-.4-.434 0-.45.4-.45h1.917q.417 0 .417.45 0 .434-.417.434h-.484v8.886h.484q.4 0 .4.433 0 .434-.4.434h-1.917q-.4 0-.4-.434 0-.433.4-.433z" style="font-size:20px;font-family:&quot;Glass Antiqua&quot;;-inkscape-font-specification:&quot;Glass Antiqua&quot;;text-align:center;text-anchor:middle;stroke-width:.8"/><path id="path52" d="M252.26-19.375q0-.417.267-.75.267-.334.55-.334.567 0 .567.584 0 .467-.4.834-.383.35-.967.35-1.217 0-2.017-1.534-.334-.65-.584-.934-.433-.467-1.117-.467-.667 0-.667.117v1.784h.45q.4 0 .4.433 0 .434-.4.434h-1.8q-.4 0-.4-.434 0-.433.4-.433h.4v-8.886h-.4q-.4 0-.4-.434 0-.45.4-.45h1.717q2.284 0 3.702 1 1.417 1 1.417 2.835 0 1.55-.95 2.65-.934 1.084-2.435 1.2.984.284 1.334 1.285.217.617.383.867.184.233.55.283zm-2.984-3.068q1.4 0 2.301-.867.9-.883.9-2.35 0-1.468-1.133-2.268-1.134-.817-2.735-.817-.717 0-.717.217v5.902q0 .183 1.384.183z" style="font-size:20px;font-family:&quot;Glass Antiqua&quot;;-inkscape-font-specification:&quot;Glass Antiqua&quot;;text-align:center;text-anchor:middle;stroke-width:.8"/><path id="path50" d="M245.475-24.177q0 2.568-1.25 4.035-1.25 1.45-3.102 1.45-1.833 0-3.084-1.483-1.234-1.484-1.234-4.052 0-2.567 1.25-4.001 1.251-1.434 3.085-1.434 1.85 0 3.085 1.45 1.25 1.451 1.25 4.035zm-1.367-2.15q-.367-1.067-1.15-1.8-.784-.735-1.835-.735-1.033 0-1.817.684-.783.684-1.167 1.717-.367 1.017-.367 2.168 0 1.767.934 3.284t2.45 1.517q1.518 0 2.418-1.417.917-1.417.917-3.218 0-1.15-.383-2.2z" style="font-size:20px;font-family:&quot;Glass Antiqua&quot;;-inkscape-font-specification:&quot;Glass Antiqua&quot;;text-align:center;text-anchor:middle;stroke-width:.8"/><path id="path48" d="M230.186-19.375q0-.417-.266-.75-.267-.334-.55-.334-.567 0-.567.584 0 .467.4.834.383.35.967.35 1.217 0 2.017-1.534.334-.65.584-.934.433-.467 1.117-.467.667 0 .667.117v1.784h-.45q-.4 0-.4.433 0 .434.4.434h1.8q.4 0 .4-.434 0-.433-.4-.433h-.4v-8.886h.4q.4 0 .4-.434 0-.45-.4-.45h-1.717q-2.284 0-3.702 1-1.417 1-1.417 2.835 0 1.55.95 2.65.934 1.084 2.435 1.2-.984.284-1.334 1.285-.217.617-.383.867-.184.233-.55.283zm2.985-3.068q-1.4 0-2.301-.867-.9-.883-.9-2.35 0-1.468 1.133-2.268 1.134-.817 2.735-.817.717 0 .717.217v5.902q0 .183-1.384.183z" style="font-size:20px;font-family:&quot;Glass Antiqua&quot;;-inkscape-font-specification:&quot;Glass Antiqua&quot;;text-align:center;text-anchor:middle;stroke-width:.8"/><path id="path40" d="M226.752-19.375q0-.417.267-.75.266-.334.55-.334.567 0 .567.584 0 .467-.4.834-.384.35-.967.35-1.218 0-2.018-1.534-.333-.65-.583-.934-.434-.467-1.117-.467-.667 0-.667.117v1.784h.45q.4 0 .4.433 0 .434-.4.434h-1.8q-.4 0-.4-.434 0-.433.4-.433h.4v-8.886h-.4q-.4 0-.4-.434 0-.45.4-.45h1.716q2.285 0 3.702 1 1.417 1 1.417 2.835 0 1.55-.95 2.65-.934 1.084-2.435 1.2.984.284 1.334 1.285.217.617.384.867.183.233.55.283zm-2.985-3.068q1.401 0 2.301-.867.9-.883.9-2.35 0-1.468-1.133-2.268-1.134-.817-2.734-.817-.717 0-.717.217v5.902q0 .183 1.383.183z" style="font-size:20px;font-family:&quot;Glass Antiqua&quot;;-inkscape-font-specification:&quot;Glass Antiqua&quot;;text-align:center;text-anchor:middle;stroke-width:.8"/><path id="path39" d="M217.949-19.725v-8.886h-.484q-.4 0-.4-.434 0-.45.4-.45h1.918q.416 0 .416.45 0 .434-.416.434h-.484v8.886h.484q.4 0 .4.433 0 .434-.4.434h-1.918q-.4 0-.4-.434 0-.433.4-.433z" style="font-size:20px;font-family:&quot;Glass Antiqua&quot;;-inkscape-font-specification:&quot;Glass Antiqua&quot;;text-align:center;text-anchor:middle;stroke-width:.8"/><path id="path38" d="M215.398-19.725h.433q.4 0 .4.433 0 .434-.4.434h-1.784q-.183 0-.3-.117-.1-.133-.1-.317 0-.433.4-.433h.4v-8.82l-3.517 2.551q-.167.134-.334.134-.166 0-.367-.117l-3.367-2.068v8.32h.383q.4 0 .4.433 0 .434-.4.434h-1.684q-.4 0-.4-.434 0-.433.4-.433h.417v-8.886h-.5q-.4 0-.4-.434 0-.2.1-.317.116-.133.3-.133h.517q.3 0 .617.183l4.084 2.501 3.418-2.5q.267-.184.45-.184h1.25q.418 0 .418.45 0 .434-.417.434h-.417z" style="font-size:20px;font-family:&quot;Glass Antiqua&quot;;-inkscape-font-specification:&quot;Glass Antiqua&quot;;text-align:center;text-anchor:middle;stroke-width:.8"/></g><path id="path124" d="M139.756-288.65v65.49h39.81l.203-5.977 8.442 11.091-8.644 11.152v-5.956l-50.085-.035.045-84.92h68.21v-8.015h107.67v8.016h68.21l.046 84.92-50.085.034v5.956l-8.645-11.152 8.443-11.091.202 5.977h39.811v-65.49h-57.982v7.942h-107.67v-7.941z" style="fill:#ffd42a;stroke:#000;stroke-width:.999997"/><path id="path125" d="M215.398-288.743h.433q.4 0 .4.434 0 .433-.4.433h-1.784q-.183 0-.3-.116-.1-.134-.1-.317 0-.434.4-.434h.4v-8.82l-3.517 2.551q-.167.134-.334.134-.166 0-.367-.117l-3.367-2.067v8.32h.383q.4 0 .4.433t-.4.433h-1.684q-.4 0-.4-.433 0-.434.4-.434h.417v-8.886h-.5q-.4 0-.4-.434 0-.2.1-.316.116-.134.3-.134h.517q.3 0 .617.184l4.084 2.5 3.418-2.5q.267-.184.45-.184h1.25q.418 0 .418.45 0 .434-.417.434h-.417zm2.55 0v-8.886h-.483q-.4 0-.4-.434 0-.45.4-.45h1.918q.416 0 .416.45 0 .434-.416.434h-.484v8.886h.484q.4 0 .4.434 0 .433-.4.433h-1.918q-.4 0-.4-.433 0-.434.4-.434zm8.804.35q0-.416.267-.75.266-.333.55-.333.567 0 .567.583 0 .467-.4.834-.384.35-.967.35-1.218 0-2.018-1.534-.333-.65-.583-.934-.434-.466-1.117-.466-.667 0-.667.116v1.784h.45q.4 0 .4.434 0 .433-.4.433h-1.8q-.4 0-.4-.433 0-.434.4-.434h.4v-8.886h-.4q-.4 0-.4-.434 0-.45.4-.45h1.716q2.285 0 3.702 1 1.417 1.001 1.417 2.835 0 1.55-.95 2.65-.934 1.085-2.435 1.201.984.284 1.334 1.284.217.617.384.867.183.233.55.283zm-2.984-3.067q1.4 0 2.3-.867.9-.884.9-2.351t-1.133-2.268q-1.134-.816-2.734-.816-.717 0-.717.216v5.902q0 .184 1.383.184zm11.153 3.067q0-.416.267-.75.267-.333.55-.333.567 0 .567.583 0 .467-.4.834-.383.35-.967.35-1.217 0-2.017-1.534-.334-.65-.584-.934-.433-.466-1.117-.466-.667 0-.667.116v1.784h.45q.4 0 .4.434 0 .433-.4.433h-1.8q-.4 0-.4-.433 0-.434.4-.434h.4v-8.886h-.4q-.4 0-.4-.434 0-.45.4-.45h1.717q2.284 0 3.701 1 1.417 1.001 1.417 2.835 0 1.55-.95 2.65-.934 1.085-2.434 1.201.984.284 1.334 1.284.216.617.383.867.184.233.55.283zm-2.984-3.067q1.4 0 2.3-.867.901-.884.901-2.351t-1.134-2.268q-1.133-.816-2.734-.816-.717 0-.717.216v5.902q0 .184 1.384.184zm13.538-1.734q0 2.567-1.25 4.035-1.25 1.45-3.102 1.45-1.833 0-3.084-1.484-1.234-1.484-1.234-4.051 0-2.568 1.25-4.002 1.251-1.433 3.085-1.433 1.85 0 3.085 1.45 1.25 1.45 1.25 4.035zm-1.367-2.151q-.367-1.067-1.15-1.8-.784-.734-1.835-.734-1.033 0-1.817.683-.783.684-1.167 1.718-.367 1.017-.367 2.167 0 1.767.934 3.285.934 1.517 2.45 1.517 1.518 0 2.418-1.417.917-1.418.917-3.218 0-1.15-.383-2.201zm8.153 6.952q0-.416.266-.75.267-.333.55-.333.567 0 .567.583 0 .467-.4.834-.383.35-.967.35-1.217 0-2.017-1.534-.333-.65-.584-.934-.433-.466-1.117-.466-.667 0-.667.116v1.784h.45q.4 0 .4.434 0 .433-.4.433h-1.8q-.4 0-.4-.433 0-.434.4-.434h.4v-8.886h-.4q-.4 0-.4-.434 0-.45.4-.45h1.717q2.284 0 3.702 1 1.417 1.001 1.417 2.835 0 1.55-.95 2.65-.934 1.085-2.435 1.201.984.284 1.334 1.284.217.617.383.867.184.233.55.283zm-2.985-3.067q1.4 0 2.301-.867.9-.884.9-2.351t-1.133-2.268q-1.134-.816-2.735-.816-.717 0-.717.216v5.902q0 .184 1.384.184zm10.087 2.717v-8.886h-.483q-.4 0-.4-.434 0-.45.4-.45h1.917q.417 0 .417.45 0 .434-.417.434h-.484v8.886h.484q.4 0 .4.434 0 .433-.4.433h-1.917q-.4 0-.4-.433 0-.434.4-.434zm13.005 0h.433q.4 0 .4.434 0 .433-.4.433h-1.784q-.183 0-.3-.116-.1-.134-.1-.317 0-.434.4-.434h.4v-8.82l-3.518 2.551q-.166.134-.333.134t-.367-.117l-3.368-2.067v8.32h.384q.4 0 .4.433t-.4.433h-1.684q-.4 0-.4-.433 0-.434.4-.434h.417v-8.886h-.5q-.4 0-.4-.434 0-.2.1-.316.116-.134.3-.134h.516q.3 0 .617.184l4.085 2.5 3.418-2.5q.267-.184.45-.184h1.25q.417 0 .417.45 0 .434-.417.434h-.416zm9.953 0q.383 0 .383.434 0 .433-.383.433h-1.834q-.4 0-.4-.433 0-.434.4-.434h.384l-.484-1.517h-4.452l-.466 1.517h.4q.4 0 .4.434 0 .433-.4.433h-1.684q-.4 0-.4-.433 0-.434.4-.434h.417l2.767-8.886h-.667q-.383 0-.383-.434 0-.45.383-.45h1.718q.366 0 .45.234l3.034 9.536zm-6.169-2.317h4.035l-2.034-6.502zm10.237 3.351q-1.784 0-2.984-1.45-1.2-1.451-1.2-4.002 0-2.55 1.283-4.035 1.284-1.483 3.034-1.483.9 0 1.601.383.7.367.7 1.05 0 .317-.166.517-.167.2-.517.2t-.667-.283q-.3-.284-.3-.517 0-.25.083-.417-.3-.133-.717-.133-1.384 0-2.384 1.334-.984 1.333-.984 3.284 0 1.167.367 2.234.384 1.067 1.134 1.784.767.7 1.85.7 1.084 0 1.668-.867.583-.883.583-1.967v-.984h-1.984q-.383 0-.383-.433 0-.434.383-.434h3.802q.35 0 .35.434 0 .433-.35.433h-.867v.9q0 1.268.533 1.901.334.334.334.55 0 .217-.167.367-.15.134-.334.134-.45 0-.883-.9-.284.7-1.017 1.2-.734.5-1.8.5zm6.87-1.034h3.7l1.718-1.667q.116-.117.25-.117.35 0 .35.3 0 .1-.1.267l-1.2 1.868q-.134.216-.45.216h-5.62q-.4 0-.4-.433 0-.434.4-.434h.4v-8.886h-.4q-.4 0-.4-.434 0-.45.4-.45h3.952q.317 0 .484.167l1.05 1.217q.117.133.117.267 0 .133-.1.233-.084.084-.25.084-.167 0-.3-.134l-1.184-1.033h-2.418v1.884h1.75q-.1-.15-.1-.317t.117-.284q.134-.133.35-.133.217 0 .334.183l.717 1.184q.067.117.067.25 0 .134-.1.25-.084.1-.267.1-.167 0-.3-.183l-.217-.25h-2.35z" aria-label="MIRROR IMAGE" style="font-size:20px;font-family:&quot;Glass Antiqua&quot;;-inkscape-font-specification:&quot;Glass Antiqua&quot;;text-align:center;text-anchor:middle;stroke-width:.8"/><path id="path133" d="m191.147-53.248-.203 5.978-8.442-11.092 8.645-11.152v5.957l6.59.034v-7.395h107.67v7.395l6.591-.034v-5.957l8.645 11.152L312.2-47.27l-.202-5.978h-6.59v7.442h-107.67v-7.442z" style="fill:#ffd42a;stroke:#000;stroke-width:.999997"/><path id="path134" d="M215.398-53.84h.433q.4 0 .4.433t-.4.433h-1.784q-.183 0-.3-.117-.1-.133-.1-.316 0-.434.4-.434h.4v-8.82l-3.517 2.551q-.167.134-.334.134-.166 0-.367-.117l-3.367-2.067v8.32h.383q.4 0 .4.433t-.4.433h-1.684q-.4 0-.4-.433 0-.434.4-.434h.417v-8.886h-.5q-.4 0-.4-.434 0-.2.1-.317.116-.133.3-.133h.517q.3 0 .617.183l4.084 2.501 3.418-2.5q.267-.184.45-.184h1.25q.418 0 .418.45 0 .434-.417.434h-.417zm2.55 0v-8.887h-.483q-.4 0-.4-.434 0-.45.4-.45h1.918q.416 0 .416.45 0 .434-.416.434h-.484v8.886h.484q.4 0 .4.434 0 .433-.4.433h-1.918q-.4 0-.4-.433 0-.434.4-.434zm8.804.35q0-.418.267-.751.266-.333.55-.333.567 0 .567.583 0 .467-.4.834-.384.35-.967.35-1.218 0-2.018-1.534-.333-.65-.583-.934-.434-.467-1.117-.467-.667 0-.667.117v1.784h.45q.4 0 .4.434 0 .433-.4.433h-1.8q-.4 0-.4-.433 0-.434.4-.434h.4v-8.886h-.4q-.4 0-.4-.434 0-.45.4-.45h1.716q2.285 0 3.702 1 1.417 1 1.417 2.835 0 1.55-.95 2.65-.934 1.084-2.435 1.201.984.283 1.334 1.284.217.617.384.867.183.233.55.283zm-2.984-3.069q1.4 0 2.3-.866.9-.884.9-2.351t-1.133-2.268q-1.134-.817-2.734-.817-.717 0-.717.217v5.902q0 .183 1.383.183zm11.153 3.068q0-.417.267-.75t.55-.333q.567 0 .567.583 0 .467-.4.834-.383.35-.967.35-1.217 0-2.017-1.534-.334-.65-.584-.934-.433-.467-1.117-.467-.667 0-.667.117v1.784h.45q.4 0 .4.434 0 .433-.4.433h-1.8q-.4 0-.4-.433 0-.434.4-.434h.4v-8.886h-.4q-.4 0-.4-.434 0-.45.4-.45h1.717q2.284 0 3.701 1 1.417 1 1.417 2.835 0 1.55-.95 2.65-.934 1.084-2.434 1.201.984.283 1.334 1.284.216.617.383.867.184.233.55.283zm-2.984-3.068q1.4 0 2.3-.866.901-.884.901-2.351t-1.134-2.268q-1.133-.817-2.734-.817-.717 0-.717.217v5.902q0 .183 1.384.183zm13.538-1.733q0 2.567-1.25 4.034-1.25 1.45-3.102 1.45-1.833 0-3.084-1.483-1.234-1.484-1.234-4.051 0-2.568 1.25-4.002 1.251-1.434 3.085-1.434 1.85 0 3.085 1.45 1.25 1.451 1.25 4.036zm-1.367-2.151q-.367-1.067-1.15-1.8-.784-.734-1.835-.734-1.033 0-1.817.683-.783.684-1.167 1.717-.367 1.017-.367 2.168 0 1.767.934 3.284.934 1.518 2.45 1.518 1.518 0 2.418-1.418.917-1.417.917-3.217 0-1.15-.383-2.201zm8.153 6.952q0-.417.266-.75.267-.333.55-.333.567 0 .567.583 0 .467-.4.834-.383.35-.967.35-1.217 0-2.017-1.534-.333-.65-.584-.934-.433-.467-1.117-.467-.667 0-.667.117v1.784h.45q.4 0 .4.434 0 .433-.4.433h-1.8q-.4 0-.4-.433 0-.434.4-.434h.4v-8.886h-.4q-.4 0-.4-.434 0-.45.4-.45h1.717q2.284 0 3.702 1 1.417 1 1.417 2.835 0 1.55-.95 2.65-.934 1.084-2.435 1.201.984.283 1.334 1.284.217.617.383.867.184.233.55.283zm-2.985-3.068q1.4 0 2.301-.866.9-.884.9-2.351t-1.133-2.268q-1.134-.817-2.735-.817-.717 0-.717.217v5.902q0 .183 1.384.183zm10.087 2.718v-8.886h-.483q-.4 0-.4-.434 0-.45.4-.45h1.917q.417 0 .417.45 0 .434-.417.434h-.484v8.886h.484q.4 0 .4.434 0 .433-.4.433h-1.917q-.4 0-.4-.433 0-.434.4-.434zm13.005 0h.433q.4 0 .4.434 0 .433-.4.433h-1.784q-.183 0-.3-.117-.1-.133-.1-.316 0-.434.4-.434h.4v-8.82L267.9-60.11q-.166.134-.333.134t-.367-.117l-3.368-2.067v8.32h.384q.4 0 .4.433t-.4.433h-1.684q-.4 0-.4-.433 0-.434.4-.434h.417v-8.886h-.5q-.4 0-.4-.434 0-.2.1-.317.116-.133.3-.133h.516q.3 0 .617.183l4.085 2.501 3.418-2.5q.267-.184.45-.184h1.25q.417 0 .417.45 0 .434-.417.434h-.416zm9.953 0q.383 0 .383.434 0 .433-.383.433h-1.834q-.4 0-.4-.433 0-.434.4-.434h.384l-.484-1.517h-4.452l-.466 1.517h.4q.4 0 .4.434 0 .433-.4.433h-1.684q-.4 0-.4-.433 0-.434.4-.434h.417l2.767-8.886h-.667q-.383 0-.383-.434 0-.45.383-.45h1.718q.366 0 .45.233l3.034 9.537zm-6.169-2.317h4.035l-2.034-6.503zm10.237 3.35q-1.784 0-2.984-1.45t-1.2-4.001q0-2.551 1.283-4.035 1.284-1.484 3.034-1.484.9 0 1.601.384.7.367.7 1.05 0 .317-.166.517-.167.2-.517.2t-.667-.283q-.3-.284-.3-.517 0-.25.083-.417-.3-.133-.717-.133-1.384 0-2.384 1.333-.984 1.334-.984 3.285 0 1.167.367 2.234.384 1.067 1.134 1.784.767.7 1.85.7 1.084 0 1.668-.867.583-.883.583-1.967v-.984h-1.984q-.383 0-.383-.433 0-.434.383-.434h3.802q.35 0 .35.434 0 .433-.35.433h-.867v.9q0 1.268.533 1.901.334.334.334.55 0 .217-.167.367-.15.134-.334.134-.45 0-.883-.9-.284.7-1.017 1.2-.734.5-1.8.5zm6.87-1.033h3.7l1.718-1.667q.116-.117.25-.117.35 0 .35.3 0 .1-.1.267l-1.2 1.867q-.134.217-.45.217h-5.62q-.4 0-.4-.433 0-.434.4-.434h.4v-8.886h-.4q-.4 0-.4-.434 0-.45.4-.45h3.952q.317 0 .484.167l1.05 1.217q.117.133.117.267 0 .133-.1.233-.084.083-.25.083-.167 0-.3-.133l-1.184-1.034h-2.418v1.884h1.75q-.1-.15-.1-.316 0-.167.117-.284.134-.133.35-.133.217 0 .334.183l.717 1.184q.067.117.067.25t-.1.25q-.084.1-.267.1-.167 0-.3-.183l-.217-.25h-2.35z" aria-label="MIRROR IMAGE" style="font-size:20px;font-family:&quot;Glass Antiqua&quot;;-inkscape-font-specification:&quot;Glass Antiqua&quot;;text-align:center;text-anchor:middle;stroke-width:.8"/></g></svg>