<svg xmlns="http://www.w3.org/2000/svg" xmlns:xlink="http://www.w3.org/1999/xlink" id="svg2634" width="1030" height="535" preserveAspectRatio="none" version="1.1" viewBox="-65 -47.463 1030 535"><style id="style2422" type="text/css">.grid{stroke:#9e9ed1;stroke-width:.4}.axes{stroke:#000;stroke-width:.9}.axes-arrows{stroke-width:1.1;stroke:#000;fill:none;stroke-linecap:round;stroke-linejoin:round}.axes-labels{stroke:none;fill:#000}.none{display:none}</style><defs id="defs2437"><path id="STIXWEBNORMALI-1D461" stroke-width="1" d="m283 438-10-38h-70L125 80c-1-3-2-8-2-11 0-6 3-12 16-12 0 0 23 2 60 52l13-11C188 67 138-9 79-9 48-9 40 16 40 43c0 13 2 26 5 37l81 320H49l5 29c75 14 136 51 177 138h13l-31-129Z"/><path id="STIXWEBMAIN-5B" stroke-width="1" d="M299-156H88v818h211v-25h-83c-34 0-52-12-52-48V-77c0-40 19-54 52-54h83z"/><path id="STIXWEBMAIN-5D" stroke-width="1" d="M245-156H34v25h88c35 0 47 15 47 46v668c0 35-13 54-51 54H34v25h211z"/><path id="STIXWEBMAIN-2F" stroke-width="1" d="M287 676 59-14H-9l229 690z"/><path id="STIXWEBMAIN-32" stroke-width="1" d="M474 137 420 0H29v12l178 189c94 99 130 175 130 260 0 91-54 141-139 141-72 0-107-32-147-130l-21 5c21 117 85 199 208 199 113 0 185-77 185-176 0-79-39-154-128-248L130 76h234c42 0 63 11 96 67z"/><path id="STIXWEBMAIN-30" stroke-width="1" d="M476 330c0-172-63-344-226-344C79-14 24 172 24 336c0 177 69 340 230 340 131 0 222-141 222-346Zm-96-5c0 208-44 325-132 325-83 0-128-118-128-321S164 12 250 12c85 0 130 115 130 313z"/><path id="STIXWEBMAIN-35" stroke-width="1" d="m438 681-36-85c-3-7-11-13-27-13H181l-40-85c143-27 193-49 250-128 26-36 35-74 35-127 0-96-30-158-98-208-47-34-102-49-170-49C83-14 31 10 31 48c0 25 17 38 45 38 23 0 42-5 74-31 28-23 51-32 71-32 70 0 135 83 135 169 0 64-22 114-67 150-47 38-117 70-213 70-9 0-12 2-12 8 0 2 1 5 1 5l109 237h207c23 0 32 5 48 26z"/><path id="STIXWEBMAIN-33" stroke-width="1" d="m61 510-16 4c29 95 92 162 196 162 93 0 156-55 156-137 0-48-26-98-93-138 44-19 62-31 83-53 28-31 44-77 44-129 0-53-17-102-46-140-48-64-143-93-232-93C80-14 41 7 41 43c0 21 18 36 41 36 17 0 33-6 61-26 37-26 58-31 86-31 74 0 130 68 130 153 0 76-35 125-104 145-22 7-45 10-102 10v14c38 13 64 24 84 36 49 28 81 73 81 134 0 68-42 102-108 102-62 0-108-32-149-106z"/><path id="STIXWEBMAIN-34" stroke-width="1" d="M473 167H370V0h-78v167H12v64l314 445h44V231h103Zm-181 64v343L52 231Z"/><path id="STIXWEBMAIN-2212" stroke-width="1" d="M621 220H64v66h557z"/><path id="STIXWEBMAIN-38" stroke-width="1" d="M445 155c0-103-77-169-197-169C135-14 56 55 56 149c0 69 23 108 130 183C83 417 62 455 62 520c0 96 83 156 194 156 99 0 168-65 168-143 0-75-35-109-134-162 123-82 155-136 155-216Zm-90 378c0 69-41 115-109 115-67 0-110-37-110-99s37-108 125-160c68 40 94 82 94 144zm-84-261-59 40c-59-48-80-89-80-154 0-92 51-144 127-144 65 0 110 45 110 110 0 62-30 102-98 148z"/><path id="STIXWEBMAIN-37" stroke-width="1" d="M449 646 237-8h-65l198 596H155c-58 0-75-14-117-82l-18 9 60 147h369z"/><path id="STIXWEBMAIN-36" stroke-width="1" d="m446 684 2-16c-157-26-269-134-296-285 49 38 83 45 127 45 117 0 189-80 189-209 0-64-18-120-51-160-37-46-93-73-159-73-79 0-142 37-177 101-28 51-47 122-47 192 0 108 38 203 109 276 86 90 165 114 303 129zm-68-496c0 128-42 194-135 194-57 0-116-24-116-116 0-152 48-252 142-252 72 0 109 72 109 174z"/></defs><g id="grid"><path id="path2439" d="M-6.198 476V0" class="grid"/><path id="path2441" d="M33.802 476V260.76m0-17.841V0" class="grid"/><path id="path2443" d="M73.802 476V0" class="grid"/><path id="path2445" d="M113.802 476V0" class="grid"/><path id="path2447" d="M153.802 476V0" class="grid"/><path id="path2449" d="M193.802 476V0" class="grid"/><path id="path2451" d="M233.802 476V261.612m0-18.693V0" class="grid"/><path id="path2453" d="M273.802 476V0" class="grid"/><path id="path2455" d="M313.802 476V0" class="grid"/><path id="path2457" d="M353.802 476V0" class="grid"/><path id="path2459" d="M393.802 476V0" class="grid"/><path id="path2461" d="M433.802 476V260.76m0-17.841V0" class="grid"/><path id="path2463" d="M473.802 476V0" class="grid"/><path id="path2465" d="M513.802 476V0" class="grid"/><path id="path2467" d="M553.802 476V0" class="grid"/><path id="path2469" d="M593.802 476V0" class="grid"/><path id="path2471" d="M633.802 476V261.612m0-18.693V0" class="grid"/><path id="path2473" d="M673.802 476V0" class="grid"/><path id="path2475" d="M713.802 476V0" class="grid"/><path id="path2477" d="M753.802 476V0" class="grid"/><path id="path2479" d="M793.802 476V0" class="grid"/><path id="path2481" d="M833.802 476V260.76m0-17.841V0" class="grid"/><path id="path2483" d="M873.802 476V0" class="grid"/><path id="path2485" d="M-26.198 462h29.49m24.772 0h865.738" class="grid"/><path id="path2487" d="M-26.198 434h29.49m24.772 0h865.738" class="grid"/><path id="path2489" d="M-26.198 406H3.29m24.774 0h865.738" class="grid"/><path id="path2491" d="M-26.198 378h920" class="grid"/><path id="path2493" d="M-26.198 350h920" class="grid"/><path id="path2495" d="M-26.198 322h920" class="grid"/><path id="path2497" d="M-26.198 294h920" class="grid"/><path id="path2499" d="M-26.198 266h920" class="grid"/><path id="path2501" d="M-26.198 238h920" class="grid"/><path id="path2503" d="M-26.198 210h920" class="grid"/><path id="path2505" d="M-26.198 182h920" class="grid"/><path id="path2507" d="M-26.198 154h920" class="grid"/><path id="path2509" d="M-26.198 126h920" class="grid"/><path id="path2511" d="M-26.198 98h920" class="grid"/><path id="path2513" d="M-26.198 70h40.591m13.67 0h865.74" class="grid"/><path id="path2515" d="M-26.198 42h40.594m13.668 0h865.738" class="grid"/><path id="path2517" d="M-26.198 14h40.594m13.668 0h865.738" class="grid"/></g><g id="axes"><path id="path2520" d="M-26.198 238H901.18" class="axes"/><path id="path2522" d="M33.802 476V260.76m0-17.841V-6.558" class="axes"/></g><g id="axes arrows"><path id="path2525" d="M897.245 233.081c0 1.968 2.951 4.919 3.935 4.919-.984 0-3.935 2.951-3.935 4.919" class="axes-arrows"/><path id="path2527" d="M28.883-2.623c1.968 0 4.92-2.952 4.92-3.935 0 .983 2.95 3.935 4.918 3.935" class="axes-arrows"/></g><g id="axes labels"><g id="g2540" class="axes-labels" transform="matrix(.01904 0 0 -.01904 917.576 242.509)"><use xlink:href="#STIXWEBNORMALI-1D461" id="use2530" x="0" y="0"/><use xlink:href="#STIXWEBMAIN-5B" id="use2532" x="646" y="0"/><g id="g2536" transform="translate(980)"><text id="text2534" stroke="none" direction="ltr" style="font-size:20.5px;font-family:baskerville" transform="scale(52.507 -52.507)">s</text></g><use xlink:href="#STIXWEBMAIN-5D" id="use2538" x="1339" y="0"/></g><g id="g2556" class="axes-labels" transform="matrix(.01904 0 0 -.01904 17.196 -24.594)"><use xlink:href="#STIXWEBMAIN-5B" id="use2542" x="0" y="0"/><g id="g2546" transform="translate(333)"><text id="text2544" stroke="none" direction="ltr" style="font-size:20.5px;font-family:baskerville" transform="scale(52.507 -52.507)">c</text></g><use xlink:href="#STIXWEBMAIN-2F" id="use2548" x="833" y="0"/><g id="g2552" transform="translate(1112)"><text id="text2550" stroke="none" direction="ltr" style="font-size:20.5px;font-family:baskerville" transform="scale(52.507 -52.507)">s</text></g><use xlink:href="#STIXWEBMAIN-5D" id="use2554" x="1471" y="0"/></g></g><g id="graphs" style="display:inline"><path id="path1053382" d="M-26.428 237.844h152.6l.88-193.99.516 5.4 1.94-2.524 1.98 2.982 1.704-4.317 2.176 5.656 1.744-8.302 1.98 6.524 1.664-3.402 2.216-1.456.2 193.43.4-1.084.796-2.615 1.836-5.95 1.716-6.799 2.236-4.922 1.756-12.337 1.912-1.364 1.996-16.2 1.956-1.137 1.796-8.672 1.916-3.67 1.992-12.825 1.836 2.14 1.996-7.527 1.836-14.392 1.996-.201 1.756-7.726 1.992-10.645 1.916.19 1.916-9.136 1.996-1.423 1.756-10.404 2.112 2.982 1.916-13.365 1.796 3.229 2.076-13.166 1.676 1.238 2.036-.008L196 78.119l1.756-11.231 2.116 1.36 1.836-1.245 1.756-2.061 1.956-8.184 2.112 4.317.52-8.727.2 185.497h.64l.48-184.93 1.32 1.085 1.916-2.4 2.196-.902 1.72-5.378 1.996 5.101 2.036-6.77 1.92 4.121 1.2 2.232.556-7.092 1.96 7.246 2.036-4.334 1.916.246 1.68.602 2.036 2.878 1.76-4.958 1.916 2.654 2.116 2.674 1.84-5.662 1.956-.394 1.76 2.956 2.116 3.85 1.84-.28 1.996-7.336 1.876 6.233 1.8-6.468 2.156 5.15.52 1.363.64-2.408.676 2.906 1.8-6.406 1.876 3.254 2.12 4.062 1.836-3.057 1.76 6.885 1.956-5.622 2.116 10.886 1.84-2.92 1.716 3.707 2.236 1.62 1.72 6.259 2.116-2.993 1.68 7.756 1.916.397 2.076 9.025 1.88 1.002 1.956 6.995 1.92-1.792 1.796 9.634 1.956 2.868 2 6.571 1.716 1.669 2.2 11.88 1.756 3.313 1.956.462 1.76 11.245 2.196 4.342 1.72 11.007 1.996 1.17 2.036 11.338 1.68 1.671 2.116 13.32 1.64-1.613 2.236 13.07 1.916 2.378 1.64 12.818 2.036 1.588 1.76 11.22 2.236 7.067 1.836 4.13 1.24 5.72.2 2.089.556-187.52 1.308-5.803 1.98 3.362 1.704-4.57 2.1 5.262 1.824-3.592 1.744-.054 1.94 6.233 1.984-6.58 1.94 6.253.2 187.009 40.524.155.6 1.268.68 2.1 1.996 3.503 1.716 4.76 1.956 4.701 2 9.347 1.996 2.937 1.716 4.315 1.996 8.058 1.92 2.386 1.756 11.306 2.156-3.125 1.92 11.298 1.836 2.252 1.716 4.244 2.116 2.467 1.88 11.253 2.076.762 1.916 10.693 1.64 5.373 2.196-.436 1.796 1.31 1.996 10.573 1.68-1.638 2.196 8.66 1.796 1.23 1.96 11.082 1.996-3.38 1.716 7.227 1.956 1.193 1.96 3.483 1.756 6.709 1.996.588 2.076 9.125 1.68-2.21 1.876 8.527 1.996-4.088 2 8.585 1.956-1.235 1.796 7.414 1.956-1.845 2.08 4.43 1.836-3.825 1.996 8.59 1.72-.445 2.116 4.108 1.836-2.72 1.996 4.377 1.96-.84 1.716 5.421 1.956-5.216 2-.406 1.996 3.116 1.916 1.084 1.596.263 2.24 1.498 1.236-.448.4 3.094.2-192.853h22.997l.68-193.947 2.064 4.39 1.624-1.372 2.184 6.283 1.944-7.389 1.704 2.593 1.944 6.818 1.984-6.196 1.984-.342 1.704 1.854 1.944 5.54.2 181.768h1.8l.84 178.428 1.712 1.61 2.068 8.058 1.868-5.06 1.952 1.193 1.988.524 1.712 1.531 1.948 5.38 1.992-3.12 1.988 4.45 1.272-7.502.44 9.24 2.068-6.244 1.672-1.831 2.068 8.652 1.908-9.47 1.872 3.038 1.312 4.965.4-193.842.4-189.946 1.34 3.755 1.928-3.405 1.888-4.29 1.732 6.104 1.968-6.75 1.064 6.73.2 187.802h59.34l.756 189.403 1.12 1.092 1.952-4.376 1.716 4.555.581-.44 1.596 1.384 1.952-4.189 1.876 3.142 2.232 1.71 1.756-4.653 2.036 3.324 1.956-1.386 1.632-.216 1.956 5.236 2.116-5.695 1.596 3.956 2.232-3.259 1.756 3.954 1.316 1.013.916-8.156 1.796 6.412 1.596-4.995 2.196 3.67 1.912-7.512 1.756.717 2.156-6.023 1.516-.736 2.272-11.508 1.636.644 2.192-3.052 1.956-8.834 1.716-11.069 1.316 2.075.2-146.188h1.84l.48-147.664.988 1.132 1.62-11.716 2.176 2.22 1.58-11.826 1.86-2.142 1.976-2.7 1.976-5.558 1.384-4.7.2 182.954h1.4l1.2 180.32.28-1.803 2.272-.689 1.512-10.52 2.232-5.546 1.792.109 1.872-12.306 2.072.638 1.596-11.455 2.312-.602 1.592-14.095 2.152-6.636 1.596-13.963 1.952-1.857 2.312-14.87 1.552-5.783 2.152-10.096 1.632-11.032 1.956-7.504 2.188-9.543 1.876-15.355 1.632-9.363 1.912-11.657 1.356-6.244.2-.148.752-190.434 1.228 3.402 2.016-7.204 1.86 4.648 1.704-4.796 2.096 6.88 1.584-5.682 1.94 5.28 1.9-1.822.2 189.728h18.184l.72-191.61.28-2.67.2 194.28h35.59l.996-3.562.32-7.952 2.152-22.68 1.836-19.048 2.036-17.464 1.956-23.62 1.672-14.706 2.076-23.834 1.596-7.618 2.236-18.45 1.712-6.683 2.156-12.614 1.596-10.019 1.916-.044 2.152-.68.52-3.93.2 192.904h31.282" style="fill:none;stroke:red;stroke-width:1.5"/><path id="path1053388" d="M-26.198 238s143.297-.156 169.17-.156h.2l.4-191.489.796-3.402 1.836 3.436 1.716 1.38 2.236-.199 1.756-4.121 1.912 10.657 1.996-5.914 1.956 8.05 1.796-3.256 1.916 7.372 1.992-4.194 1.836 9.8 1.996 1.985 1.836 1.599 1.996 8.299 1.756 1.898 1.992-1.747 1.916 13.087 1.916-2.388 1.996 7.764 1.756-.554 2.112 11.477 1.916 2.904 1.796 7.207 2.076 1.907 1.676 13.176 2.036 2.268 1.912 7.96 1.756-1.12 2.116 13.827 1.836 7.434 1.756 5.116 1.956 2.318 2.112 13.804.52-2.45.2 56.11h.64l.48-55.508 1.32 9.657 1.916 3.24 2.196 11.001 1.72 1.854 1.996 10.97 2.036 4.318 1.92 9.69 1.2 4.318.556.46H257.512l.64 2.253.676 1.692 1.8 8.478 1.876 8.616 2.12 4.27 1.836 10.805 1.76.63 1.956 13.065 2.116.344 1.84 14.44 1.716-.9 2.236 12.298 1.72.863 2.116 11.497 1.68 3.438 1.916 13.89 2.076.11 1.88 11.805 1.956.47 1.92 9.324 1.796 1.955 1.956 10.043 2-1.137 1.716 11.122 2.2-2.024 1.756 4.155 1.956 9.063 1.76-2.438 2.196 10.402 1.72.274 1.996 5.337 2.036-1.428 1.68 10.654 2.116-3.01 1.64 5.54 2.236-.181 1.916 4.71 1.64-4.87 2.036 7.446 1.76-2.842 2.236-1.263 1.836 5.734 1.24-5.558.2-189.073H354.252" style="fill:none;stroke:#00d070;stroke-width:1.5"/><path id="path1301" d="m355.002 238 1 188.513 1.04 4.205 2.156-7.282 1.68 6.442 2.196-6.118 1.64 1.272 2.156 4.99 1.716-6.136 2.2 1.773 1.836 6.63 1.6-1.123 2.316.762 1.68-8.036L378.49 238h1.554l.719 184.756 2.08 2.803 2.036 6.588 1.756-9.433 2.04 9.229.68-5.178.838-1.285.119-187.48h4.464l.6 192.058.68 1.458 1.996-7.392 1.716-1.355 1.956 1.588 2 2.072 1.996-2.848 1.716-4.933 1.996 6.056 1.92-4.766 1.756 3.626 2.156-6.02 1.92 4.122 1.836-6.768 1.716-5.451 2.116-1.882 1.88 2.159 2.076-6.443 1.916 4.197 1.64-2.102 2.196-9.1 1.796-2.57 1.996 3.804 1.68-12.429 2.196 1.565 1.796-4.244 1.96-1.574 1.996-6.927 1.716 2.75 1.956-10.35 1.96-5.622 1.756.415 1.996-9.484 2.076 2.01 1.68-6.011 1.876-2.005 1.996-9.876 2 2.532 1.956-9.025 1.796.443 1.956-11.783 2.08-2.145 1.836-8.05 1.996 1.244 1.72-12.393 2.116 2.231 1.836-10.354 1.996.367 1.96-10.996 1.716-1.131 1.956-9.758 2-3.091 1.996-7.871 1.916-3.744 1.596-4.684 2.24-4.85 1.236-3.477.4-1.193h23.197l.68-1.895 2.064-4.956 1.624-7.275 2.184-1.834 1.944-7.775 1.704-8.493 1.944 3.038 1.984-12.258 1.984-7.333 1.704-4.791 1.944-1.364.2 54.936h1.8l.84 52.579 1.712-3.915 2.068-3.1 1.868-12.532 1.952-.468 1.988-5.628 1.712-6.26 1.948-2.414 1.992-8.935 1.988-3.127 1.272-4.685.44-1.515h47.88l.64-188.521 2.148-8.851 1.752 6.852 1.752-6.953 1.912 1.68 2.268 7.535 1.712-6.731 2.028 3.897 1.672-5.126 2.228-.073 1.752 5.776 2.032-4.046 1.592 5.37 1.988-5.314 2.192 4.097 1.552-6.396 1.988 4.612 1.872-1.618.2 193.81" style="fill:none;stroke:#00d070;stroke-width:1.5;stroke-dasharray:none;stroke-opacity:1"/><path id="path3942" d="M645.498 238h33.828l.916-.347 1.796-12.667 1.596-6.524 2.196-15.412 1.912-5.583 1.756-13.826 2.156-9.492 1.516-14.549 2.272-3.12 1.636-13.666 2.192-11.83 1.956-9.797 1.716-1.16 1.316-9.662.2 127.635h1.84l.48 127.459.988-8.288 1.62-6.813 2.176-10.612 1.58-5.468 1.86-16.28 1.976-7.484 1.976-12.835 1.384-1.08.2-58.599h1.4l1.2-57.817.28-1.787 2.272-17.007 1.512-7.28 2.232-6.409 1.792-13.362 1.872-4.214 2.072-14.29 1.596-6.038 2.312-12.152 1.592.628 2.152-15.162 1.596-1.162 1.952-10.91 2.312 2.325 1.552-12.64 2.152-.876 1.632.339 1.956-7.781 2.188-4.822 1.876 4.071 1.632-2.315 1.912 2.038 1.356-9.203.2 195.826h36.359l.796-193.234 1.996 3.601 1.836-5.006 1.796 8.341 2.112-9.17 1.916 8.977 1.596-6 2.236 2.948 1.872-1.09 1.636-1.873 2.156 2.932 1.756-3.52 2.712 1.608 1.676 2.713 2.272-4.371 1.676 5.57 2.036-7.589 1.036 2.87L834.8 238h1.598l.089-190.411.6-3.31.996 5.676.32-4.027 2.152 2.92 1.836 9.826 2.036 5.564 1.956 5.096 1.672 17.046 2.076 10.108 1.596 18.59 2.236 12.073 1.712 24.914 2.156 18.491 1.596 15.484 1.916 25.338 2.152 20.025.52 6.306.2.291 1-190.767.436 3.735L867.308 42l2.047 5.457 1.948-2.047 2.152 4.592 1.832.149 1.908-4.085 1.712 2.48 2.188-4.513 1.752 8.207 2.072-4.419 1.948-2.15 1.632 2.85 2.188-2.388 1.632 3.052 1.483-2.905" style="fill:none;stroke:#00d070;stroke-width:1.5"/><g id="g1067518" transform="translate(-105.768 -190.066)"><path id="path1067003" d="M365.796 540.597a23.735 23.735 0 0 1-23.735 23.735 23.735 23.735 0 0 1-23.734-23.735 23.735 23.735 0 0 1 23.734-23.735 23.735 23.735 0 0 1 23.735 23.735z" style="fill:#fdfdfd;stroke:#00d070;stroke-width:1.5;stroke-dasharray:4.5,1.5;stroke-dashoffset:0;stroke-opacity:1"/><g id="g1067010" transform="translate(47.002 -21.543)"><path id="use7255" stroke-width=".019" d="m283.858 561.655.533 4.475c1.161-1.58 1.828-2.723 2.247-3.504.38-.704.533-1.085.533-1.428 0-.4-.99-.59-.99-1.313 0-.42.342-.762.895-.762.609 0 1.085.438 1.085 1.18 0 1.486-3.085 6.055-3.884 7.065-1.39 1.751-2.628 3.617-3.923 3.617-.704 0-1.066-.59-1.066-1.047 0-.571.514-.78.762-.78.818 0 .78.59 1.085.59.324 0 1.409-1.18 1.904-1.942l-.724-5.98c-.095-.856-.266-1.999-1.332-1.999-.21 0-.515.058-.686.077l-.038-.305 2.856-.476c.438.628.571 1.123.743 2.532z" style="fill:#000;stroke:none"/><path id="use7257" stroke-width=".013" d="m289.217 559.276-.458-.162c.35-1.656 1.198-5.358 1.44-6.138.216-.687.62-.93 1.024-.93.484 0 .915.297.915.957 0 .148-.067.47-.135.632-.282.768-1.965 4.12-2.786 5.64z" style="fill:#000;stroke:none"/><path id="use7259" stroke-width=".019" d="m300.442 570.566-.228.305c-3.009-1.714-4.646-4.931-4.646-8.168 0-3.523 1.656-6.265 4.703-8.074l.171.305c-2.647 2.266-3.237 4.037-3.237 7.711 0 3.542.571 5.694 3.237 7.921z" style="fill:#000;stroke:none"/><use xlink:href="#STIXWEBNORMALI-1D461" id="use7261" x="1170" y="0" style="fill:#000;stroke:none" transform="matrix(.01904 0 0 -.01904 278.717 567.5)"/><path id="use7263" stroke-width=".019" d="m307.525 554.934.229-.305c2.913 1.752 4.646 4.932 4.646 8.169 0 3.522-1.676 6.226-4.703 8.073l-.172-.305c2.704-2.227 3.237-4.017 3.237-7.711 0-3.56-.476-5.75-3.237-7.921z" style="fill:#000;stroke:none"/></g></g><g id="g1069245" transform="translate(-9.382 33.343)"><path id="path1054646" d="M115.118 92.119a23.735 23.735 0 0 1-23.734 23.734A23.735 23.735 0 0 1 67.649 92.12a23.735 23.735 0 0 1 23.735-23.735 23.735 23.735 0 0 1 23.734 23.735Z" style="fill:#fdfdfd;stroke:red;stroke-width:1.5;stroke-dasharray:4.5,1.5;stroke-dashoffset:0"/><g id="g1054592" transform="translate(227.844 43.513)"><path id="use4716" stroke-width=".019" d="m-147.58 48.251.856-1.313c.495-.762 1.161-1.6 2.113-1.6.61 0 .933.229.933.628 0 .362-.247.8-.742.8-.42 0-.514-.171-.838-.171-.571 0-.78.304-1.047.723l-1.047 1.619c.57 1.18 1.009 3.75 1.865 3.75.305 0 .762-.266 1.162-1.085l.266.19c-.228.286-1.085 2.114-2.19 2.114-.78 0-1.142-.78-1.39-1.466l-.76-2.151-1.2 1.865c-.61.933-1.162 1.752-2.228 1.752-.685 0-.99-.476-.99-.895 0-.304.248-.704.724-.704.495 0 .418.38.894.38.229 0 .724-.19 1.333-1.123l1.238-1.923-.628-1.751c-.324-.914-.82-1.695-1.866-1.695-.248 0-.533.038-.724.114l-.057-.343 2.513-.628c.838.457 1.2 1.238 1.428 1.866z" style="fill:#000;stroke:none"/><path id="use4718" stroke-width=".013" d="m-141.865 45.51-.458-.162c.35-1.655 1.198-5.357 1.44-6.138.216-.686.62-.929 1.023-.929.485 0 .916.296.916.956 0 .148-.068.471-.135.633-.283.767-1.965 4.119-2.786 5.64z" style="fill:#000;stroke:none"/><path id="use4720" stroke-width=".019" d="m-130.635 56.8-.229.305c-3.008-1.714-4.646-4.931-4.646-8.168 0-3.523 1.657-6.264 4.703-8.073l.172.304c-2.647 2.266-3.237 4.037-3.237 7.712 0 3.541.571 5.693 3.237 7.92z" style="fill:#000;stroke:none"/><path id="use4722" stroke-width=".019" d="m-124.695 45.395-.19.724h-1.333l-1.485 6.093a.811.811 0 0 0-.038.209c0 .114.057.229.304.229 0 0 .438-.039 1.143-.99l.247.209c-.457.59-1.409 2.037-2.532 2.037-.59 0-.743-.476-.743-.99 0-.247.038-.495.096-.704l1.542-6.093h-1.466l.095-.552c1.428-.267 2.59-.971 3.37-2.628h.247l-.59 2.456z" style="fill:#000;stroke:none"/><path id="use4724" stroke-width=".019" d="m-123.553 41.168.229-.304c2.913 1.751 4.646 4.931 4.646 8.168 0 3.522-1.676 6.226-4.703 8.073l-.172-.305c2.704-2.227 3.237-4.017 3.237-7.711 0-3.56-.476-5.75-3.237-7.92z" style="fill:#000;stroke:none"/></g></g><path id="path244975" d="m143.572 46.355.796-3.402 1.836 3.436 1.716 1.38 2.236-.199 1.756-4.121 1.912 10.657 1.996-5.914 1.956 8.05 1.796-3.256 1.916 7.372 1.992-4.194 1.836 9.8 1.996 1.985 1.836 1.599" style="fill:none;stroke:#00d070;stroke-width:1.5"/></g><g id="layer2" style="display:inline"><path id="path228029" d="m146.86-134.256 5.816-.219 9.577 12.789 6.415 11.612 12.23-9.78-7.828-8.74-5.302-14.388-12.656-9.531-8.252.415" style="fill:#f4eed7;fill-opacity:.584416;stroke-width:0"/><path id="path97216" d="M143.858 476V0h79.772v476" style="fill:#f0f;fill-opacity:.27;stroke-width:0"/><rect id="rect623826" width="47.444" height="23.722" x="-273.998" y="-74.574" rx="7.625" ry="7.625" style="fill:#f4e3d7;stroke-width:1.25" transform="scale(-1 1)"/><path id="path21977" d="M229.284 530.912a4.48 4.48 0 0 1-.881.851c-.49.35-.768.456-1.202-.039-.415-.474-.632-1.11-1.156-1.488a2.063 2.063 0 0 0-.346-.182c-.588-.228-1.22-.073-1.756.161-.819.358-1.545.921-2.238 1.485" style="fill:none;fill-opacity:1;stroke:#000;stroke-width:1.1;stroke-dasharray:none;stroke-opacity:1"/><path id="path21981" d="m228.808 533.593-.127.116c-.447.35-.883.727-1.406.968-.394.114-.594.015-.912-.229-.36-.285-.69-.605-1.082-.85-.495-.252-.813-.204-1.335-.024a4.724 4.724 0 0 0-1.48.884" style="fill:none;fill-opacity:1;stroke:#000;stroke-width:1.1;stroke-dasharray:none;stroke-opacity:1"/><path id="path22717" d="M464.353-67.917c-.283-.018-.57-.024-.812-.034-1.947-.048-3.904-.07-5.843.097a62.284 62.284 0 0 0-3.677.45c-.423-.056-.495-.328-.504-.64-.05-1.24.262-2.469.549-3.684.337-1.174.73-2.338 1.096-3.507" style="fill:none;fill-opacity:1;stroke:#000;stroke-width:1;stroke-dasharray:none;stroke-opacity:1"/><path id="path22713" d="M455.154-63.119c-.02-.08-.03-.161-.042-.23-.167-1.149-.269-2.303-.386-3.455a46.158 46.158 0 0 1-.169-4.827" style="fill:#000;fill-opacity:1;stroke:#000;stroke-width:0;stroke-dasharray:none;stroke-opacity:1"/><path id="path21573" d="M458.695-71.63c-.03 1.611.041 3.222.175 4.83.117 1.154.218 2.31.38 3.46.012.078.024.157.041.235" style="fill:none;fill-opacity:1;stroke:#000;stroke-width:1;stroke-dasharray:none;stroke-opacity:1"/><path id="path23087" d="M464.52-63.058c-.142-.405.067-1.412.586-1.486.086-.012.167.044.25.066.604.599.205 1.083-.532 1.14l-.21-.075" style="fill:#000;fill-opacity:1;stroke:#000;stroke-width:1;stroke-dasharray:none;stroke-opacity:1"/><path id="path23274" d="M474.502-69.975c.574-.878.793-1.94.59-2.922-.042-.204-.076-.415-.193-.6a1.64 1.64 0 0 0-.491-.476c-.667-.433-1.726-.55-2.52-.297-.833.265-1.068.528-1.465 1.126-.193.29-.222.638-.24.966-.112 1.97 1.492 3.918 2.667 5.56.483.676 2.14 2.32 1.594 3.166a.925.925 0 0 1-.353.313c-1.405.72-3.154.503-4.576-.043-1.615-.62-1.042-1.216-.117-2.137 1.367-1.36 2.917-2.597 4.256-3.977.507-.522.28-.287.645-.727" style="fill:none;fill-opacity:1;stroke:#000;stroke-width:.999998;stroke-dasharray:none;stroke-opacity:1"/><path id="path23461" d="M-215.327 102.55c-1.111-.692-2.547-.587-3.718-.232-1.22.37-2.676 1.127-3.263 2.282a1.69 1.69 0 0 0-.176.56c-.023.19-.006.388.04.576.358 1.463 2.07 2.071 3.447 2.292 1.366.218 3.215.196 4.487-.422" style="fill:none;fill-opacity:1;stroke:#000;stroke-width:.999995;stroke-dasharray:none;stroke-opacity:1"/><path id="path23648" d="M-207.128 98.41c-1.446 1.509-2.496 3.3-3.634 5.004a201.271 201.271 0 0 1-3.57 5.358c-.233.336-.495.705-.84 1.005" style="fill:none;fill-opacity:1;stroke:#000;stroke-width:.999995;stroke-dasharray:none;stroke-opacity:1"/><path id="path23652" d="M-203.694 102.208c-.816-.444-1.772-.548-2.694-.471-.78.064-1.794.35-1.668 1.261.022.155.069.309.14.451.55 1.11 1.666 1.867 2.48 2.81.578.671.877 1.262-.042 1.714-.942.462-2.18.355-3.198.071a3.757 3.757 0 0 1-.704-.301c-.22-.116-.54-.274-.914-.638" style="fill:none;fill-opacity:1;stroke:#000;stroke-width:.999995;stroke-dasharray:none;stroke-opacity:1"/><path id="path26572" d="M-245.49 341.903c-.375.49-.792.955-1.136 1.352-.727.667-1.036.69-1.674-.13-.51-.83-.804-1.753-1.295-2.59-.062-.056-.114-.126-.186-.168-.503-.291-1.162.583-1.507.783-.927.839-1.877 1.705-2.48 2.817" style="fill:none;fill-opacity:1;stroke:#000;stroke-width:1;stroke-dasharray:none;stroke-opacity:1"/><path id="path26576" d="M-253.656 347.589c.509-.904 1.395-1.47 2.263-1.987.597-.28 1.375-.832 2.074-.543.105.043.19.124.286.185.677.648.957 1.581 1.343 2.413.13.234.29.9.7.793.086-.023.157-.084.236-.127.64-.535 1.04-1.266 1.49-1.951" style="fill:none;fill-opacity:1;stroke:#000;stroke-width:1;stroke-dasharray:none;stroke-opacity:1"/><path id="path21599-3" d="M-231.497 347.667c-.152.038-.34.075-.492.075-1.814.265-3.628.53-5.404.907-.832.19-.19 0-.643.227-.038 0 .416-.453.378-.416.87-1.133 1.512-2.418 2.116-3.703.719-1.588 1.588-3.364 1.701-5.103-.038-.151 0-.302-.075-.453-.34-.832-1.739-.19-2.306-.076-1.55.491-3.023 1.134-4.384 2.003" style="fill:none;fill-opacity:1;stroke:#000;stroke-width:1;stroke-dasharray:none;stroke-opacity:1"/><path id="path21601-8" d="M-229.91 347.44c1.02.302 2.079.53 3.137.642 1.814.076 3.855 0 5.216-1.398.038-.151.15-.302.189-.453.226-1.172-1.21-1.928-2.003-2.344-.832-.264-.87-.34-1.701-.491-.265-.038-.87-.114-1.21-.114-.037 0-.113.038-.189 0-.037 0 .038-.075.038-.075 1.134-.643 2.381-1.134 3.062-2.268.075-.189.189-.378.226-.567.227-1.247-1.285-1.323-2.116-1.21-1.663.228-3.288.719-4.649 1.702" style="fill:none;fill-opacity:1;stroke:#000;stroke-width:1;stroke-dasharray:none;stroke-opacity:1"/><path id="path21603-7" d="M-213.582 348.347a138.923 138.923 0 0 1 1.89-4.157c.34-.719.717-1.437 1.058-2.117.49-.87 1.02-1.7 1.322-2.646 0-.113.038-.226 0-.302-.189-.302-2.003.076-2.267.076-1.701.189-3.402.34-5.103.529" style="fill:none;fill-opacity:1;stroke:#000;stroke-width:1;stroke-dasharray:none;stroke-opacity:1"/><path id="path21605-0" d="m-209.35 343.698-1.587.114c-1.814.075-3.59.226-5.404.415" style="fill:none;fill-opacity:1;stroke:#000;stroke-width:1;stroke-dasharray:none;stroke-opacity:1"/><path id="path21607-6" d="M-184.389 284.67c.794.643 1.737.845 2.72.907.831.052 2.24.088 2.95-.453a.522.522 0 0 0 .226-.49c-.103-.72-1.288-1.26-1.814-1.588-.688-.43-2.14-.985-2.646-1.588-.18-.215-.14-.387-.075-.567.297-.827 1.558-1.019 2.305-.907.78.117 1.285.492 1.588 1.21" style="fill:none;fill-opacity:1;stroke:#000;stroke-width:1;stroke-dasharray:none;stroke-opacity:1"/><path id="path23087-7" d="M-219.352 348.431c-.142-.405.067-1.412.586-1.486.086-.013.167.043.25.065.604.6.205 1.084-.532 1.14l-.21-.074" style="fill:#000;fill-opacity:1;stroke:#000;stroke-width:1;stroke-dasharray:none;stroke-opacity:1"/><path id="path711726" d="M214.46 586.175c-.308-.008-.135-.008-.508-.017-1.42-.016-2.842-.024-4.268.058-1.75.139-3.507.262-5.257.213" style="fill:none;stroke:#000;stroke-width:1.1;stroke-dasharray:none"/><path id="path711730" d="M251.718 589.842c-1.094.287-2.203.24-3.313.016-.422-.117-.86-.194-1.273-.357-1.25-.48-2.946-1.543-2.758-3.118.039-.325.21-.612.32-.915.234-.287.438-.597.703-.853 1.078-1.032 2.532-1.582 3.993-1.76" style="fill:none;stroke:#000;stroke-width:1.1;stroke-dasharray:none"/><path id="path711732" d="M250.452 591.362a110.604 110.604 0 0 0 2.531-4.35c1.188-2.195 2.344-4.398 3.579-6.562" style="fill:none;stroke:#000;stroke-width:1.1;stroke-dasharray:none"/><path id="path711734" d="M255.257 589.811c.969.442 1.977.698 3.047.698.539-.03 2.602-.062 2.586-.97 0-.131-.086-.255-.125-.387-.945-1.287-2.258-2.25-3.211-3.537-.172-.318-.399-.636-.445-1.016-.086-.783.68-1.155 1.296-1.372 1.157-.217 2.399-.295 3.415.41" style="fill:none;stroke:#000;stroke-width:1.1;stroke-dasharray:none"/><g id="g94196" transform="translate(271.298 292.095)"><path id="path711736" d="M-70.743 292.38c-.186.165-.086.078-.315.244-.674.402-1.413.604-2.202.503-.372-.065-.638-.1-1.004-.23-.66-.237-1.226-.661-1.792-1.071-.717-.54-1.083-.726-1.986-.453-1.198.388-2.276 1.24-3.345 1.909" style="fill:none;stroke:#000;stroke-width:1.1;stroke-dasharray:none"/><path id="path711738" d="M-70.908 295.636c-.272.187-.545.374-.831.54-.639.359-1.334.725-2.08.733-.746-.173-1.613-.989-2.286-1.332-.947-.484-1.662-.744-2.74-.585-.772.114-1.542.464-2.28.723" style="fill:none;stroke:#000;stroke-width:1.1;stroke-dasharray:none"/></g><path id="path711728" d="M563.965 573.591c-1.912.012-3.823.024-5.734.018-.854-.006-1.917-.006-2.778-.03-.316-.011-.633-.076-.95-.047-.64.06-.477-.201-.373-.35.958-1.358 2.184-2.522 3.304-3.754.411-.433 1.651-1.742 2.056-2.186.285-.314.564-.634.836-.96.45-.533.917-1.048 1.05-1.735-.025-.1-.025-.207-.082-.29-.146-.213-.437-.26-.67-.285-.76-.07-1.513.119-2.247.231-1.633.35-3.26.794-4.76 1.505" style="fill:none;stroke:#000;stroke-width:1.1;stroke-dasharray:none"/></g><g id="notch labels" style="stroke:none;fill:#b8b8de"><g id="g2576" transform="matrix(.01618 0 0 -.01618 25.702 256.936)"><use xlink:href="#STIXWEBMAIN-32" id="use2572"/><use xlink:href="#STIXWEBMAIN-30" id="use2574" x="500" y="0"/></g><g id="g2582" transform="matrix(.01618 0 0 -.01618 225.702 257.786)"><use xlink:href="#STIXWEBMAIN-32" id="use2578"/><use xlink:href="#STIXWEBMAIN-35" id="use2580" x="500" y="0"/></g><g id="g2588" transform="matrix(.01618 0 0 -.01618 425.702 256.936)"><use xlink:href="#STIXWEBMAIN-33" id="use2584"/><use xlink:href="#STIXWEBMAIN-30" id="use2586" x="500" y="0"/></g><g id="g2594" transform="matrix(.01618 0 0 -.01618 625.702 257.786)"><use xlink:href="#STIXWEBMAIN-33" id="use2590"/><use xlink:href="#STIXWEBMAIN-35" id="use2592" x="500" y="0"/></g><g id="g2600" transform="matrix(.01618 0 0 -.01618 825.702 256.936)"><use xlink:href="#STIXWEBMAIN-34" id="use2596"/><use xlink:href="#STIXWEBMAIN-30" id="use2598" x="500" y="0"/></g><g id="g2606" transform="matrix(.01619 0 0 -.01619 6.08 467.467)"><use xlink:href="#STIXWEBMAIN-2212" id="use2602" x="0" y="0"/><use xlink:href="#STIXWEBMAIN-38" id="use2604" x="685" y="0"/></g><g id="g2612" transform="matrix(.01619 0 0 -.01619 6.08 439.467)"><use xlink:href="#STIXWEBMAIN-2212" id="use2608" x="0" y="0"/><use xlink:href="#STIXWEBMAIN-37" id="use2610" x="685" y="0"/></g><g id="g2618" transform="matrix(.01619 0 0 -.01619 6.078 411.47)"><use xlink:href="#STIXWEBMAIN-2212" id="use2614" x="0" y="0"/><use xlink:href="#STIXWEBMAIN-36" id="use2616" x="685" y="0"/></g><g id="g2622" transform="matrix(.01618 0 0 -.01618 17.18 75.467)"><use xlink:href="#STIXWEBMAIN-36" id="use2620" x="0" y="0"/></g><g id="g2626" transform="matrix(.01618 0 0 -.01618 17.181 47.465)"><use xlink:href="#STIXWEBMAIN-37" id="use2624" x="0" y="0"/></g><g id="g2630" transform="matrix(.01618 0 0 -.01618 17.181 19.465)"><use xlink:href="#STIXWEBMAIN-38" id="use2628" x="0" y="0"/></g></g><g id="layer4" style="display:inline"><path id="path16793" d="M295.99 533.252c3.072-.2 6.158-.325 9.244-.423l-.294-1.475c-2.952.173-6.288.214-8.95.103z" style="fill:#000;fill-opacity:1;stroke:none;stroke-width:0;stroke-dasharray:none;stroke-opacity:1"/><path id="path16844" d="M309.277 533.209c2.183-.022 4.374.013 6.559.028l1.427.01.153-1.687c-.478-.003-.963-.006-1.372-.01-2.264-.027-4.527-.065-6.767-.201z" style="fill:#000;fill-opacity:1;stroke:none;stroke-width:0;stroke-dasharray:none;stroke-opacity:1"/><path id="path16846" d="M-209.928 75.366c2.164-.285 4.377-.343 6.594-.377l-.134-2.434c-2.647.013-5.335.017-7.6.054.38 1.625.76 1.132 1.14 2.757z" style="fill:#000;fill-opacity:1;stroke:none;stroke-width:0;stroke-dasharray:none;stroke-opacity:1"/><path id="path16848" d="M321.12 533.116c2.183-.079 4.386-.031 6.574-.011l.19-1.626c-2.368-.058-4.772-.075-6.765-.215z" style="fill:#000;fill-opacity:1;stroke:none;stroke-width:0;stroke-dasharray:none;stroke-opacity:1"/><path id="path16862-0" d="M291.682-79.538c1.338-.093 2.688-.097 4.033-.105a95.563 95.563 0 0 1 4.609.057v-1.771c-1.604.056-3.235.065-4.61.057-1.344-.008-2.694-.012-4.032-.105z" style="fill:#000;fill-opacity:1;stroke:none;stroke-width:0;stroke-dasharray:none;stroke-opacity:1"/><path id="path18010" d="M146.86-76.452c2.59-.301 5.194-.49 7.797-.639l-.248-4.344c-2.49.261-5.304.323-7.549.155z" style="fill:#000;fill-opacity:1;stroke:none;stroke-width:0;stroke-dasharray:none;stroke-opacity:1"/><path id="path18012" d="M160.89-76.378c1.91-.033 3.83.02 5.743.042l1.25.016.133-4.665-1.201-.013c-1.983-.042-3.964-.098-5.925-.305v4.925z" style="fill:#000;fill-opacity:1;stroke:none;stroke-width:0;stroke-dasharray:none;stroke-opacity:1"/><path id="path18014" d="M134.721-76.34c2.165-.286 4.378-.343 6.595-.377l-.134-4.552c-2.647.013-5.335.017-7.6.053l1.14 4.876z" style="fill:#000;fill-opacity:1;stroke:none;stroke-width:0;stroke-dasharray:none;stroke-opacity:1"/><path id="path18016" d="M121.573-76.507c2.184-.12 4.386-.048 6.575-.018l.19-4.572c-2.369-.087-4.772-.113-6.765-.324v4.914z" style="fill:#000;fill-opacity:1;stroke:none;stroke-width:0;stroke-dasharray:none;stroke-opacity:1"/><path id="path18018" d="M-276.235 216.034c-.239-2.016-.097-4.056-.02-6.078.023-.786.076-1.57.171-2.35l-4.714-.288c-.007.872-.001 1.757 0 2.503-.043 2.072-.086 4.15-.275 6.213h4.838z" style="fill:#000;fill-opacity:1;stroke:none;stroke-width:0;stroke-dasharray:none;stroke-opacity:1"/><path id="path18020" d="M-276.031 201.388c-.084-.94-.103-1.887-.117-2.831-.06-1.266.026-2.526.19-3.78.082-.614.159-1.23.243-1.843l-4.836-.429c-.019.607-.08 1.22-.125 1.737a39.856 39.856 0 0 0-.185 4.315c-.013.944-.033 1.89-.116 2.831z" style="fill:#000;fill-opacity:1;stroke:none;stroke-width:0;stroke-dasharray:none;stroke-opacity:1"/><path id="path16850-2" d="M-215.929 173.939c.24 2.016.098 4.055.02 6.078a25.698 25.698 0 0 1-.17 2.35l2.596.288c.007-.872 0-1.758 0-2.504.043-2.07.085-4.15.275-6.212z" style="fill:#000;fill-opacity:1;stroke:none;stroke-width:0;stroke-dasharray:none;stroke-opacity:1"/><path id="path16852-5" d="M-216.132 188.584c.084.942.103 1.888.116 2.832.06 1.266-.025 2.526-.19 3.78-.082.614-.158 1.23-.243 1.843l2.719.429c.018-.607.08-1.22.124-1.738.14-1.435.202-2.872.186-4.314.013-.944.032-1.89.116-2.832z" style="fill:#000;fill-opacity:1;stroke:none;stroke-width:0;stroke-dasharray:none;stroke-opacity:1"/><path id="path16854-4" d="M-168.454 204.692c.09 1.198.055 2.407.033 3.61a153.643 153.643 0 0 0-.04 4.938v.852l1.67-.335c-.057-.614-.026-.301-.063-.748a46.04 46.04 0 0 1-.025-4.512c.043-1.269.089-2.539.15-3.805z" style="fill:#000;fill-opacity:1;stroke:none;stroke-width:0;stroke-dasharray:none;stroke-opacity:1"/><path id="path16856-0" d="M-168.5 218.071c.059 1.07.063 2.146.078 3.219.021 1.564.033 3.128-.045 4.689-.04.594-.07 1.196-.154 1.78l-.008.042-.004.002 1.735.579c0-.73.009-1.47.016-2.16.025-1.645.008-3.288.028-4.933.016-1.073.02-2.149.08-3.218h-1.726z" style="fill:#000;fill-opacity:1;stroke:none;stroke-width:0;stroke-dasharray:none;stroke-opacity:1"/><path id="path16858-6" d="M-168.314 233.713c-.019 1.647.057 3.29.062 4.937-.007 1.662-.19 3.3-.319 4.943l1.627.295c-.054-1.832.187-3.65.182-5.203.017-1.452-.036-2.931.136-4.362z" style="fill:#000;fill-opacity:1;stroke:none;stroke-width:0;stroke-dasharray:none;stroke-opacity:1"/><path id="path16860-3" d="M-168.64 250.622c.116.81.113 1.67.133 2.5.04 1.424.005 2.849.015 4.272l.009.529 1.524-.373c-.122-1.548-.06-3.186-.074-4.528-.002-1.123.003-2.25-.052-3.37-.92.324-.635.647-1.555.97z" style="fill:#000;fill-opacity:1;stroke:none;stroke-width:0;stroke-dasharray:none;stroke-opacity:1"/><path id="path18022" d="M-276.062 186.34c-.146-1.198-.089-2.407-.054-3.61.076-1.646.076-3.292.066-4.938v-.853l-4.844.336c.092.613.04.301.102.747.144 1.503.136 3.007.04 4.513a154 154 0 0 1-.246 3.805h4.936z" style="fill:#000;fill-opacity:1;stroke:none;stroke-width:0;stroke-dasharray:none;stroke-opacity:1"/><path id="path18024" d="M-275.985 171.901c-.097-1.07-.104-2.145-.13-3.218-.033-1.565-.053-3.129.075-4.69.064-.594.113-1.196.251-1.78l.014-.041.007-.002-4.951-.58c0 .73-.015 1.471-.027 2.161-.04 1.644-.012 3.288-.046 4.932-.025 1.073-.032 2.15-.129 3.219h4.936z" style="fill:#000;fill-opacity:1;stroke:none;stroke-width:0;stroke-dasharray:none;stroke-opacity:1"/><path id="path18026" d="M-276.29 156.26c.03-1.647-.093-3.29-.1-4.937.011-1.662.308-3.3.519-4.943l-4.775-.295c.088 1.832-.304 3.65-.297 5.203-.027 1.452.06 2.931-.222 4.362z" style="fill:#000;fill-opacity:1;stroke:none;stroke-width:0;stroke-dasharray:none;stroke-opacity:1"/><path id="path18028" d="M-275.868 139.35c-.204-.808-.198-1.669-.233-2.5-.07-1.423-.008-2.848-.027-4.272l-.016-.528-4.793.373c.214 1.548.105 3.186.128 4.528.003 1.123-.005 2.25.092 3.37l4.85-.97z" style="fill:#000;fill-opacity:1;stroke:none;stroke-width:0;stroke-dasharray:none;stroke-opacity:1"/><path id="path18030" d="M-276.099 127.577c-.14-1.338-.146-2.688-.158-4.033-.014-1.537-.011-3.074.086-4.609h-4.79c.084 1.604.097 3.235.085 4.61-.012 1.344-.018 2.694-.158 4.032h4.935z" style="fill:#000;fill-opacity:1;stroke:none;stroke-width:0;stroke-dasharray:none;stroke-opacity:1"/><path id="path624198" d="M-185.058 219.518c.09 1.198.055 2.407.033 3.61a153.643 153.643 0 0 0-.04 4.938v.852l1.67-.335c-.057-.613-.026-.301-.063-.748a46.04 46.04 0 0 1-.025-4.512c.043-1.269.089-2.539.15-3.805z" style="fill:#000;fill-opacity:1;stroke:none;stroke-width:0;stroke-dasharray:none;stroke-opacity:1"/><path id="path624200" d="M-185.105 232.898c.06 1.07.064 2.145.08 3.218.02 1.564.033 3.129-.046 4.689-.04.595-.07 1.196-.154 1.78l-.008.042-.004.002 1.735.579c0-.73.009-1.47.016-2.16.025-1.644.008-3.288.028-4.932.016-1.073.02-2.15.08-3.219h-1.726z" style="fill:#000;fill-opacity:1;stroke:none;stroke-width:0;stroke-dasharray:none;stroke-opacity:1"/><path id="path624202" d="M-184.918 246.633c-.019 1.647.057 3.29.062 4.936-.007 1.663-.19 3.3-.319 4.944l1.628.295c-.055-1.832.186-3.65.181-5.203.017-1.452-.036-2.931.136-4.362z" style="fill:#000;fill-opacity:1;stroke:none;stroke-width:0;stroke-dasharray:none;stroke-opacity:1"/><path id="path624392" d="M292.946-55.04c2.59-.2 5.193-.325 7.797-.423l-.249-1.475c-2.49.173-5.304.214-7.548.102z" style="fill:#000;fill-opacity:1;stroke:none;stroke-width:0;stroke-dasharray:none;stroke-opacity:1"/><path id="path624394" d="M305.364-55.083c1.911-.022 3.83.013 5.743.028l1.25.01.134-1.688-1.202-.009c-1.982-.027-3.964-.065-5.925-.201z" style="fill:#000;fill-opacity:1;stroke:none;stroke-width:0;stroke-dasharray:none;stroke-opacity:1"/><path id="path624396" d="M316.193-55.176c2.184-.08 4.387-.032 6.576-.011l.189-1.627c-2.368-.057-4.771-.074-6.765-.215z" style="fill:#000;fill-opacity:1;stroke:none;stroke-width:0;stroke-dasharray:none;stroke-opacity:1"/><path id="path625375" d="M305.726 585.457c-1.07.06-2.145.064-3.218.08-1.564.02-3.129.032-4.689-.046-.595-.04-1.196-.07-1.78-.154l-.042-.008-.002-.004-.579 1.735c.73 0 1.47.009 2.16.016 1.645.025 3.288.008 4.933.028 1.072.016 2.148.02 3.218.08v-1.727z" style="fill:#000;fill-opacity:1;stroke:none;stroke-width:0;stroke-dasharray:none;stroke-opacity:1"/><path id="path625377" d="M331.612 585.208c-1.646.053-3.285.2-4.93.275-1.66.064-3.305-.047-4.952-.105l-.225 1.638c1.828-.133 3.655.029 5.206-.043 1.451-.045 2.927-.162 4.364-.051z" style="fill:#000;fill-opacity:1;stroke:none;stroke-width:0;stroke-dasharray:none;stroke-opacity:1"/><path id="path625379" d="M317.963 585.258c-.81.116-2.868.113-3.698.133-1.756.034-3.215.009-4.801.024l.373 1.524c1.548-.122 3.186-.06 4.528-.073 1.123-.002 2.474.003 3.594-.053-.196-.684-.06-1.248.004-1.555z" style="fill:#000;fill-opacity:1;stroke:none;stroke-width:0;stroke-dasharray:none;stroke-opacity:1"/><path id="path98165" d="M456.996 671.098c3.07-.2 6.157-.326 9.243-.423l-.294-1.476c-2.953.173-6.288.215-8.95.103z" style="fill:#000;fill-opacity:1;stroke:none;stroke-width:0;stroke-dasharray:none;stroke-opacity:1"/><path id="path98167" d="M469.71 671.078c2.182-.07 4.374-.087 6.558-.125.476-.009.952-.015 1.428-.023l.117-1.568c-.478.01-.963.016-1.372.024-2.264.026-4.528.043-6.77-.032z" style="fill:#000;fill-opacity:1;stroke:none;stroke-width:0;stroke-dasharray:none;stroke-opacity:1"/><path id="path98169" d="M481.532 670.84c3.253-.066 6.534-.027 9.794-.01l.282-1.329c-3.528-.047-7.107-.06-10.076-.175z" style="fill:#000;fill-opacity:1;stroke:none;stroke-width:0;stroke-dasharray:none;stroke-opacity:1"/><path id="path98227" d="M466.731 568.725c-1.07.06-2.145.064-3.218.08-1.565.02-3.129.032-4.69-.046-.594-.04-1.196-.07-1.78-.154l-.041-.008v-.004l-.58 1.735c.73 0 1.471.009 2.161.016 1.644.025 3.288.008 4.932.028 1.073.016 2.15.02 3.219.08v-1.727z" style="fill:#000;fill-opacity:1;stroke:none;stroke-width:0;stroke-dasharray:none;stroke-opacity:1"/><path id="path98229" d="M492.025 568.621c-1.646.053-3.285.199-4.93.275-1.66.064-3.304-.047-4.952-.106l-.224 1.639c1.827-.133 3.654.028 5.205-.043 1.452-.046 2.928-.162 4.365-.052z" style="fill:#000;fill-opacity:1;stroke:none;stroke-width:0;stroke-dasharray:none;stroke-opacity:1"/><path id="path98231" d="M478.376 568.73c-.81.117-2.867.114-3.698.133-1.756.034-3.215.01-4.801.025l.373 1.523c1.548-.121 3.186-.06 4.528-.073 1.123-.002 2.474.003 3.594-.052-.196-.684-.06-1.249.004-1.555z" style="fill:#000;fill-opacity:1;stroke:none;stroke-width:0;stroke-dasharray:none;stroke-opacity:1"/><path id="path246152" d="M143.112-127.962c2.184-.12 6.066-.224 8.255.16l.454-3.423c-2.544-.352-6.804-.467-9.062-.236z" style="fill:#f4eed7;fill-opacity:1;stroke:#000;stroke-width:1;stroke-dasharray:none;stroke-opacity:1"/><path id="path246361" d="M154.54-127.18c2.264.504 5.155 2.543 6.742 4.217l2.376-2.63c-2.252-2.04-4.568-3.976-8.285-4.985z" style="fill:#f4eed7;fill-opacity:1;stroke:#000;stroke-width:1;stroke-dasharray:none;stroke-opacity:1"/><path id="path246363" d="M163.839-120.234c1.658 1.844 3.23 3.958 4.5 6.508l3.123-2.099c-1.21-2.208-3.226-4.95-4.762-6.854z" style="fill:#f4eed7;fill-opacity:1;stroke:#000;stroke-width:1;stroke-dasharray:none;stroke-opacity:1"/><path id="path246365" d="M170.16-110.524c1.046 1.92 2.456 5.06 3.367 7.05l3.229-1.455c-.725-2.11-2.136-4.728-3.49-7.269z" style="fill:#f4eed7;fill-opacity:1;stroke:#000;stroke-width:1;stroke-dasharray:none;stroke-opacity:1"/><path id="path249059" d="M174.835-99.96c.846 2.017 1.934 5.281 2.641 7.353l3.333-1.314c-.51-2.172-1.65-4.919-2.742-7.582z" style="fill:#f4eed7;fill-opacity:1;stroke:#000;stroke-width:1;stroke-dasharray:none;stroke-opacity:1"/><path id="path250085" d="M143.112-100.88c2.184-.12 6.066-.224 8.255.16l1.162-5.28c-2.634-.705-6.893-.82-9.77-.413z" style="fill:#f4eed7;fill-opacity:1;stroke:#000;stroke-width:1;stroke-dasharray:none;stroke-opacity:1"/><path id="path250087" d="M155.13-99.927c2.203.725 4.878 3.04 6.292 4.862l4.392-3.442c-2.481-2.873-5.125-4.939-8.724-6.31z" style="fill:#f4eed7;fill-opacity:1;stroke:#000;stroke-width:1;stroke-dasharray:none;stroke-opacity:1"/><path id="path250089" d="M164.016-91.915c1.304 1.756 3.141 4.665 4.323 6.508l4.89-2.276c-1.209-2.207-3.225-5.391-4.76-7.295z" style="fill:#f4eed7;fill-opacity:1;stroke:#000;stroke-width:1;stroke-dasharray:none;stroke-opacity:1"/><path id="path250091" d="M170.603-81.498c1.045 1.921 2.455 5.06 3.366 7.05l4.82-2.162c-.725-2.11-2.136-4.728-3.49-7.269z" style="fill:#f4eed7;fill-opacity:1;stroke:#000;stroke-width:1;stroke-dasharray:none;stroke-opacity:1"/><path id="path250093" d="M175.63-70.58c.847 2.017 1.935 5.281 2.642 7.353l5.012-1.667c-.51-2.172-1.65-4.92-2.742-7.583z" style="fill:#f4eed7;fill-opacity:1;stroke:#000;stroke-width:1;stroke-dasharray:none;stroke-opacity:1"/></g><g id="layer3"><path id="path156476" d="m574.94 672.085 4.644.603-.06 3.438-4.463.18z" style="fill:#fdfdfd;fill-opacity:1;stroke:none;stroke-width:1.1;stroke-dasharray:none;stroke-opacity:1"/><path id="path125466" d="m537.896 668.536-.819 3.67 8.83.105-.233-3.565z" style="fill:#fdfdfd;fill-opacity:1;stroke:none;stroke-width:1.3;stroke-dasharray:none;stroke-opacity:1"/><path id="path125464" d="m524.392 670.707-1.227-4.604 5.524-1.944 3.273 2.967 4.706-1.125-.204 8.695-3.683 1.228-2.762-1.023-4.297 1.125z" style="fill:#fdfdfd;fill-opacity:1;stroke:none;stroke-width:1.3;stroke-dasharray:none;stroke-opacity:1"/><path id="path1542" fill="#fed341" stroke="#000" stroke-width="1.2" d="M-221.152 271.043v-13.44h-5.04l9.408-9.408 9.408 9.408h-5.04v13.44z" style="display:inline"/><path id="path1542-5" fill="#fed341" stroke="#000" stroke-width="1.2" d="M315.503-76.041h-13.44v5.04l-9.408-9.408 9.408-9.408v5.04h13.44z" style="display:inline"/><path id="path625584" fill="#fed341" stroke="#000" stroke-width="1.2" d="M268.227 590.504h13.44v5.04l9.408-9.408-9.408-9.408v5.04h-13.44z" style="display:inline"/><path id="path684054" d="M218.447 585.324c.564-.547 1.603-1.012 2.453-1.18.914-.18 2.698-.161 3.772.459.873.503 1.664 1.311 1.548 2.293-.14 1.187-1.1 2.225-2.272 2.674-2.274.87-5.342.068-5.929-2.042-.32-1.149-.051-2.366.379-3.46.6-1.529 1.336-2.41 2.456-3.67.382-.429 1.58-1.518 2.295-1.928" style="display:inline;fill:none;fill-opacity:1;stroke:#000;stroke-width:1.1;stroke-linecap:square;stroke-linejoin:miter;stroke-miterlimit:4;stroke-dasharray:none;stroke-opacity:1"/><path id="path685922" d="M228.227 590.293c-.108-.295.05-1.026.444-1.08 1.124.637.287.991-.214.875l-.159-.054" style="display:inline;fill:#000;fill-opacity:1;stroke:#000;stroke-width:1.1;stroke-dasharray:none;stroke-opacity:1"/><path id="path689659" d="M252.034 535.817c-.755.51-1.737.609-2.652.679-1.5.053-3.114-.258-4.207-1.222-.683-.591-1.075-1.523-.815-2.361.31-1.049 1.35-1.757 2.388-2.246 1.015-.479 1.9-.6 2.632-.64.47-.026 1.16.07 1.397.206" style="display:inline;fill:none;stroke:#000;stroke-width:1.1;stroke-miterlimit:2;stroke-dasharray:none"/><path id="path689661" d="M257.698 526.968c-1.282 2.25-2.285 3.878-3.585 6.134-1.072 1.86-1.8 3.218-3.035 4.996" style="display:inline;fill:none;stroke:#000;stroke-width:1.1;stroke-linecap:butt;stroke-linejoin:round;stroke-miterlimit:2;stroke-dasharray:none;stroke-opacity:1"/><path id="path689665" d="M256.383 535.939c.35.175.706.351 1.02.463.743.264 1.397.332 2.17.324.782-.008 2.28-.18 2.56-1.098.134-.437 0-.752-.28-1.076-.506-.581-.675-.66-1.468-1.277-.69-.535-1.563-.99-2.13-1.648a1.113 1.113 0 0 1-.217-.374.823.823 0 0 1-.019-.362c.083-.58.635-.987 1.245-.976.947.016 1.471.285 1.926.998" style="display:inline;fill:none;stroke:#000;stroke-width:1.1;stroke-linecap:butt;stroke-linejoin:round;stroke-miterlimit:2;stroke-dasharray:none;stroke-opacity:1"/><path id="path90050" fill="#fed341" stroke="#000" stroke-width="1.2" d="M268.227 536.59h13.44v5.04l9.408-9.408-9.408-9.408v5.04h-13.44z" style="display:inline"/><path id="path264384" d="M233.128 536.11c1.632.522 3.355.769 5.084.572 1.298-.148 2.337-.442 3.38-1.08.643-.394.918-1.105.685-1.719-.487-1.281-1.644-2.163-2.829-2.743a8.261 8.261 0 0 0-.92-.365c-.175.008-.169-.2.038-.206.317-.183.768-.437 1.074-.626.956-.59 1.979-1.232 2.518-2.244.255-.478.25-1.22-.304-1.533-.85-.481-1.865-.51-2.805-.434-1.804.147-3.599.534-5.258 1.284" style="display:inline;fill:none;stroke:#000;stroke-width:1.1;stroke-dasharray:none"/><path id="path102062" d="m588.32 570.75-.217 6.003-2.315-1.11-.036-.347-3.979-.625-2.749-2.082-.325-3.47 2.93-2.083 3.833-1.11 3.292.763-1.845 2.776-2.098-.242-2.17.867-.144 1.7 2.64.73 2.532-.452z" style="fill:#fdfdfd;fill-opacity:1;stroke:none;stroke-width:1.1;stroke-dasharray:none;stroke-opacity:1"/><g id="g145107" transform="translate(431.569)"><path id="path98171" d="M551.338 343.471c-.755.49-1.737.584-2.652.651-1.501.052-3.114-.247-4.208-1.171-.682-.568-1.074-1.462-.814-2.267.31-1.005 1.35-1.684 2.388-2.154 1.015-.46 1.9-.577 2.632-.615.47-.024 1.16.068 1.397.199" style="display:inline;fill:none;stroke:#000;stroke-width:1.1;stroke-miterlimit:2;stroke-dasharray:none"/><path id="path98173" d="M557.002 334.98c-1.282 2.16-2.286 3.722-3.585 5.886-1.072 1.785-1.8 3.088-3.035 4.793" style="display:inline;fill:none;stroke:#000;stroke-width:1.1;stroke-linecap:butt;stroke-linejoin:round;stroke-miterlimit:2;stroke-dasharray:none;stroke-opacity:1"/><path id="path98175" d="M555.686 343.588c.35.168.707.337 1.021.444.743.253 1.397.32 2.17.312.782-.008 2.28-.174 2.56-1.054.133-.42 0-.721-.28-1.032-.506-.558-.675-.634-1.468-1.225-.69-.514-1.564-.95-2.13-1.582a1.058 1.058 0 0 1-.217-.36.759.759 0 0 1-.02-.346c.084-.557.636-.947 1.246-.937.947.016 1.471.273 1.926.958" style="display:inline;fill:none;stroke:#000;stroke-width:1.1;stroke-linecap:butt;stroke-linejoin:round;stroke-miterlimit:2;stroke-dasharray:none;stroke-opacity:1"/></g><path id="path98177" fill="#fed341" stroke="#000" stroke-width="1.2" d="M518.64 573.748H505.2v5.04l-9.408-9.408 9.408-9.408v5.04h13.44z" style="display:inline"/><path id="path98233" fill="#fed341" stroke="#000" stroke-width="1.2" d="M518.64 674.517H505.2v5.04l-9.408-9.408 9.408-9.408v5.04h13.44z" style="display:inline"/><g id="g102305" style="stroke-width:1.1552;stroke-dasharray:none" transform="matrix(1 0 0 .90672 214.495 312.538)"><path id="path101535" d="m369.005 401.068 2.66 1.227 1.79-2.762 3.017 1.483 3.172.103 3.069-1.126.102-3.069-3.171-2.864 1.33-.46 1.585.87 1.688-2.712-4.04-1.636-1.79.971 1.227-1.84-3.53-1.587-5.524 9.565-3.171-.409-.46-1.534 4.194-2.558-.41-2.813-4.296.818-3.274 3.07.359 3.784 2.046 2.456z" style="fill:#fdfdfd;fill-opacity:1;stroke:none;stroke-width:1.1552;stroke-dasharray:none;stroke-opacity:1"/><g id="g101540" style="stroke-width:1.1552;stroke-dasharray:none"><path id="path98215" d="M372.086 398.845c-1.094.287-2.204.24-3.313.016-.422-.117-.86-.194-1.273-.357-1.25-.48-2.946-1.543-2.758-3.118.039-.326.21-.613.32-.915.234-.287.438-.597.703-.853 1.078-1.032 2.531-1.582 3.992-1.76" style="fill:none;stroke:#000;stroke-width:1.1552;stroke-dasharray:none"/><path id="path98217" d="M370.82 400.365a110.604 110.604 0 0 0 2.531-4.35c1.188-2.195 2.344-4.398 3.579-6.562" style="fill:none;stroke:#000;stroke-width:1.1552;stroke-dasharray:none"/><path id="path98219" d="M375.625 398.814c.969.442 1.976.698 3.047.698.539-.03 2.601-.062 2.586-.97 0-.131-.086-.255-.125-.387-.946-1.288-2.258-2.25-3.211-3.537-.172-.318-.399-.636-.446-1.016-.085-.783.68-1.155 1.297-1.372 1.157-.218 2.399-.295 3.415.41" style="fill:none;stroke:#000;stroke-width:1.1552;stroke-dasharray:none"/></g></g><g id="g110912" style="stroke-width:1.12785;stroke-dasharray:none" transform="matrix(1 0 0 .95123 216.886 219.588)"><g id="g102311" style="display:inline;stroke-width:1.28306;stroke-dasharray:none" transform="matrix(.88601 0 0 .8721 1414.454 3582.274)"><path id="path102307" d="M-1212.717-3725.95c2.599-.19 4.584-.296 6.617-.351l.621.011c.29.011 1.057.024 1.389.051" style="fill:none;stroke:#000;stroke-width:1.28306;stroke-linecap:butt;stroke-linejoin:round;stroke-miterlimit:2;stroke-dasharray:none"/><path id="path102309" d="M-1214.792-3715.364c.045.254.094.358.17.478.116.186.31.395.524.522.712.422 1.55.554 2.363.595 1.687.085 3.374-.203 4.982-.67.452-.132.897-.294 1.326-.486.947-.425 2.137-1.236 2.057-2.418a1.738 1.738 0 0 0-.178-.645 2.276 2.276 0 0 0-.437-.592c-1.322-1.312-3.462-1.44-5.207-1.445-.88 0-1.238.028-2.074.192-.49.095-1.107.254-1.471.628-.065.066-.109.153-.15.235-.102.199-.102.15-.096.327v-.055c.017-.11.043-.218.061-.328a88.17 88.17 0 0 0 .227-1.545c.226-1.653.446-3.313.395-4.985" style="fill:none;stroke:#000;stroke-width:1.28306;stroke-linecap:butt;stroke-linejoin:round;stroke-miterlimit:2;stroke-dasharray:none"/></g></g><path id="path156465" d="m575 566.544 4.584 1.688-.12 7.358-4.825 1.689z" style="fill:#fdfdfd;fill-opacity:1;stroke:none;stroke-width:1.1;stroke-dasharray:none;stroke-opacity:1"/><path id="path17943-9" d="M569.062 570.173c.754-.482 1.824-.91 2.572-1.077 1.472-.33 3.208-.364 4.66.08.952.29 2.02.97 2.51 1.952.396.79-.134 1.663-.858 2.132-1.264.82-2.912 1.01-4.43.86-1.49-.147-3.066-.597-4.036-1.671-.81-.896-.667-2.156-.246-3.171.535-1.293 1.472-2.425 2.499-3.441 1.067-1.056 2.424-1.845 3.89-2.393" style="display:inline;fill:none;stroke:#000;stroke-width:1.1;stroke-dasharray:none"/><path id="path110670" d="M566.008 573.892c-.138-.366.065-1.274.57-1.341 1.438.792.366 1.231-.275 1.087l-.204-.067" style="display:inline;fill:#000;fill-opacity:1;stroke:#000;stroke-width:1.1;stroke-dasharray:none;stroke-opacity:1"/><path id="path116312" d="M552.974 517.693c.186.09.364.193.558.268.909.334 1.885.475 2.853.512 1.46-.09 2.92-.163 3.843-1.47.112-.163.186-.341.276-.512.111-.468.216-.646.082-1.128-.239-.891-1.147-1.626-1.84-2.153-.64-.386-1.259-.75-2.004-.92-.104-.023-.514-.09-.677-.023-.03.015-.03.06-.053.082.782-.23 1.46-.742 2.034-1.3.134-.177.283-.34.402-.526.387-.616.678-1.455.357-2.16-.067-.141-.17-.26-.26-.386-.127-.104-.231-.215-.373-.305-.826-.512-1.877-.378-2.77-.17-.954.334-1.788.764-2.51 1.484" style="fill:none;stroke:#000;stroke-width:1.1;stroke-dasharray:none"/><path id="path116314" d="M564.533 673.764c.06.231.129.382.337.503.08.02.159.07.248.08.485.02.862-.522.723-.964-.05-.05-.099-.11-.158-.13-.476-.151-.763.481-.912.803l.1.04" style="fill:none;stroke:#000;stroke-width:1.1;stroke-dasharray:none"/><path id="path116316" d="M565.927 514.437c.931-.812 1.776-1.227 3.038-1.305.218-.008.435-.034.662-.026a4.761 4.761 0 0 1 2.977 1.192c.13.156.279.294.383.467.383.579.505 1.39.21 2.038-.08.173-.201.32-.306.476-.156.155-.296.328-.47.466-1 .83-2.28 1.27-3.578 1.132-.252-.052-.496-.095-.74-.173-.87-.277-2.01-.83-2.368-1.736-.087-.225-.087-.467-.13-.7 0-.294-.035-.588-.008-.873.13-1.425.713-3.006 1.436-4.241.192-.328.427-.64.644-.95.244-.277.47-.553.732-.812a7.311 7.311 0 0 1 3.212-1.849" style="fill:none;stroke:#000;stroke-width:1.1;stroke-dasharray:none"/><path id="path157251" d="m545.673 668.895 2.72.064.033 3.255-2.752-.027z" style="fill:#fdfdfd;fill-opacity:1;stroke:none;stroke-width:1.1;stroke-dasharray:none;stroke-opacity:1"/><path id="path116300" d="M549.027 670.603c-.364-.003-.165-.005-.61-.011-1.841-.034-3.671-.059-5.514-.067-1.702-.003-3.405.01-5.102-.07" style="fill:none;stroke:#000;stroke-width:1.1;stroke-dasharray:none"/><path id="path116296" d="M534.675 668.802c-.06.044-.11.095-.17.138-.598.481-1.255.875-2.022 1.035-.384.059-.628.124-1.026.073-.738-.08-1.329-.54-1.838-1.042-.384-.379-.856-.97-1.373-1.173-.295-.117-.428-.08-.738-.066-.782.197-1.491.569-2.17.991" style="fill:none;stroke:#000;stroke-width:1.1;stroke-dasharray:none"/><path id="path116298" d="M534.1 672.249c-.2.328-.451.627-.828.758-.56.131-1.01-.095-1.527-.299-.746-.27-1.506-.554-2.325-.51-.938.095-1.83.372-2.606.91" style="fill:none;stroke:#000;stroke-width:1.1;stroke-dasharray:none"/><g id="g135037" transform="translate(39.362 229.657)"><path id="path116342" d="M493.962 336.962c-.16.22-.07.11-.28.35-.58.55-1.32.97-2.14.94-.12-.03-.24-.04-.36-.08-.53-.22-.82-.75-1.18-1.16-.68-.63-1.02-.58-1.87-.24-1.09.45-2.16.95-3.08 1.68" style="fill:none;stroke:#000;stroke-width:1.1;stroke-dasharray:none"/><path id="path116344" d="M495.782 340.802c-.07.07-.13.14-.19.21-.66.66-1.41 1.25-2.33 1.5-.15.01-.29.04-.44.03-.82-.05-1.41-.87-2.09-1.24-.86-.54-1.57-.82-2.6-.58-.96.22-1.84.64-2.61 1.26" style="fill:none;stroke:#000;stroke-width:1.1;stroke-dasharray:none"/></g><path id="path137497" d="m537.983 568.435.023 1.675 3.277 1.486.044-4.332z" style="fill:#fdfdfd;fill-opacity:1;stroke:none;stroke-width:1.3;stroke-dasharray:none;stroke-opacity:1"/><path id="path157253" d="m545.076 567.741 2.72.064.033 3.255-2.752-.027z" style="fill:#fdfdfd;fill-opacity:1;stroke:none;stroke-width:1.1;stroke-dasharray:none;stroke-opacity:1"/><path id="path116348" d="M550.413 569.29c-1.766.1-3.544.16-5.31.17-1.827-.02-3.654-.09-5.481.01" style="fill:none;stroke:#000;stroke-width:1.1;stroke-dasharray:none"/><g id="g145112" style="stroke-width:1.1;stroke-dasharray:none" transform="translate(29.323 217.688)"><path id="path116356" d="M558.114 355.969c-1.23.29-2.47.35-3.69-.05-.27-.12-.56-.21-.82-.35-.9-.5-1.77-1.38-1.74-2.48 0-.23.09-.45.14-.67.12-.21.21-.44.36-.63.78-1.03 2.09-1.54 3.31-1.76 1.09-.07 2.14.04 3.15.46" style="fill:none;stroke:#000;stroke-width:1.1;stroke-dasharray:none"/><path id="path116358" d="M558.586 358.08c1.1-1.74 2.22-3.47 3.28-5.23 1.17-1.891 2.32-3.791 3.51-5.671" style="fill:none;stroke:#000;stroke-width:1.1;stroke-dasharray:none"/><path id="path116360" d="M562.554 355.659c.58.39 1.24.65 1.9.9.53.15.9.29 1.46.34.83.07 1.67-.14 2.44-.43.11-.08.24-.14.35-.23.64-.55.15-1.32-.27-1.82-.16-.16-.31-.32-.48-.46-.81-.71-1.81-1.15-2.63-1.85-.07-.08-.16-.15-.22-.24-.34-.61.83-1.03 1.19-1.17.91-.21 1.84-.33 2.74 0" style="fill:none;stroke:#000;stroke-width:1.1;stroke-dasharray:none"/></g><path id="path154719" d="M553.71 670.474c.754-.482 1.823-.91 2.572-1.077 1.472-.33 3.208-.364 4.659.08.952.29 2.02.97 2.511 1.952.396.79-.134 1.663-.859 2.133-1.263.818-2.911 1.01-4.43.86-1.488-.148-3.065-.598-4.035-1.672-.81-.896-.667-2.155-.247-3.171.535-1.293 1.473-2.425 2.5-3.441 1.067-1.056 2.424-1.845 3.89-2.393" style="display:inline;fill:none;stroke:#000;stroke-width:1.1;stroke-dasharray:none"/><path id="path156735" d="m576.207 662.797 1.568.362.844 2.231-3.136 3.257z" style="fill:#fdfdfd;fill-opacity:1;stroke:none;stroke-width:1.1;stroke-dasharray:none;stroke-opacity:1"/><path id="path154721" d="M578.634 674.234c-1.91.011-3.822.023-5.733.017-.854-.006-1.918-.006-2.778-.03-.317-.01-.633-.03-.95-.047-.294-.015-.56-.111-.373-.349 1.025-1.309 2.183-2.523 3.304-3.755.41-.433 1.651-1.742 2.056-2.186.285-.314.564-.634.836-.96.449-.532.917-1.048 1.05-1.735-.025-.1-.025-.207-.082-.29-.146-.213-.437-.26-.671-.284-.76-.071-1.512.118-2.247.23-1.632.35-3.259.794-4.758 1.505" style="fill:none;stroke:#000;stroke-width:1.1;stroke-dasharray:none"/></g><g id="layer5"><path id="path81113" d="M146.467 254.198v0h8.218l-10.753-10.806L133.18 254.2h8.218v12.651h-13.85v-8.485H52.642v20.898h74.908v-7.344h18.919z" style="color:#000;display:inline;fill:#f4eed7;fill-opacity:1;stroke:#000;stroke-width:.999999;stroke-linecap:square;stroke-miterlimit:2;stroke-dasharray:none"/><path id="path58421-9" d="M82.84 268.57c-.294.4-.735 1.123-2.041 1.114-1.065-.007-2.721-2.379-3.494-2.349-1.197.046-2.017 1.124-2.753 1.334" style="fill:none;stroke:#000;stroke-width:.999998;stroke-miterlimit:2;stroke-dasharray:none"/><path id="path58423-1" d="M83.047 271.622c-.677.008-1.354.025-2.03.041-2.235.054-4.47.095-6.706.01" style="fill:none;stroke:#000;stroke-width:.999998;stroke-miterlimit:2;stroke-dasharray:none"/><path id="path221480" d="M-349.864 279.706a4.875 4.875 0 0 1-.453.054c-.626.054-1.9.046-2.672.078-1.884.077-3.543.023-5.163-.032" style="fill:none;stroke:#000;stroke-width:.999998;stroke-miterlimit:2;stroke-dasharray:none"/><path id="path23087-9" d="M107.813 274.312c-.159-.447.075-1.557.654-1.64.095-.013.186.05.278.073.674.66.229 1.194-.593 1.256l-.234-.082" style="display:inline;fill:#000;fill-opacity:1;stroke:#000;stroke-width:1;stroke-dasharray:none;stroke-opacity:1"/><path id="path174337" d="M-224.803 290.733v-8.219l10.806 10.753-10.806 10.753V295.8h-119.698v22.783h-21.715v-49.122h21.715v21.27z" style="color:#000;display:inline;fill:#f4eed7;fill-opacity:1;stroke:#000;stroke-width:.999999;stroke-linecap:square;stroke-miterlimit:2;stroke-dasharray:none"/><path id="path175543" d="M220.94 254.198v0h-8.218l10.753-10.806 10.752 10.807h-8.218v12.651h15.617v-8.485h69.645v20.898h-69.645v-7.344H220.94z" style="color:#000;display:inline;fill:#f4eed7;fill-opacity:1;stroke:#000;stroke-width:.999999;stroke-linecap:square;stroke-miterlimit:2;stroke-dasharray:none"/><path id="path2817" d="M97.8 265.304c.2-.116.39-.232.607-.322.714-.298 1.498-.531 2.273-.62.26-.03.525-.05.788-.035.734.04 1.643.158 2.093.81.239.347.175.488.178.89-.06.202-.102.41-.18.607-.188.47-.572 1.12-.831 1.54-.598.967-1.273 1.88-1.956 2.793-.589.758-1.183 1.512-1.787 2.259-.227.28-.469.548-.697.827.068.087.02.05.214-.013.384-.127.492-.18.814-.262.533-.136.85-.225 1.563-.325 1.448-.203 2.915-.207 4.375-.121.296.017.59.049.885.073" style="display:inline;fill:none;stroke:#000;stroke-width:1;stroke-linecap:square;stroke-linejoin:round;stroke-miterlimit:2;stroke-dasharray:none"/><path id="path258463" d="M-189.35 311.675c.91-.447 2.262-.997 3.338-1.246.89-.206 1.927-.368 2.77-.056.1.036.199.084.28.152.07.06.125.138.162.223.283.655-.25 1.68-.556 2.213a17.157 17.157 0 0 1-1.882 2.654c-.496.567-.765.847-1.282 1.388-.793.83-1.69 1.55-2.673 2.139-.12.072-.186.103-.298.17a1.522 1.522 0 0 0-.105.07c.023.016.05.02.075.03.357-.22.772-.297 1.175-.394 1.428-.343 2.896-.41 4.356-.345 1.05.047 2.115.137 3.125.45l.114.067" style="display:inline;fill:none;stroke:#000;stroke-width:.999997;stroke-dasharray:none"/><path id="path154721-3" d="M97.798 273.349a463.52 463.52 0 0 1-4.819.017c-.718-.006-1.611-.006-2.335-.028-.266-.012-.531-.03-.798-.046-.247-.014-.47-.106-.313-.333.861-1.247 1.835-2.405 2.776-3.58a215.66 215.66 0 0 0 1.729-2.083c.239-.299.473-.604.702-.914.377-.508.771-1 .883-1.655-.022-.095-.022-.197-.07-.276-.122-.204-.367-.249-.563-.271-.639-.068-1.272.113-1.889.22-1.372.333-2.739.757-4 1.434" style="display:inline;fill:none;stroke:#000;stroke-width:1;stroke-dasharray:none"/><path id="path298178" d="M107.636 264.693a51.95 51.95 0 0 1 3.829-.273 73.915 73.915 0 0 1 3.073-.066c.369 0 .503-.083.298.296-.564 1.04-.999 2.141-1.417 3.244-.569 1.503-1.155 3-1.723 4.502-.207.548-.437 1.088-.604 1.65-.023.078-.012.043-.027.106" style="fill:none;stroke:#000;stroke-width:1;stroke-dasharray:none"/><path id="path258487" d="M110.483 269.265c.986-.1 1.977-.138 2.968-.177.348-.013.697-.024 1.045-.035" style="fill:#000;stroke:#000;stroke-width:1;stroke-dasharray:none"/><path id="path116326" d="M116.027 273.333c.574.193 1.148.387 1.72.466 1.18.167 2.252.185 3.018-.537.04-.088.102-.158.11-.263.058-.607-1.236-1.39-1.66-1.76-.468-.37-1.717-1.264-1.616-1.9.036-.228.234-.332.39-.387.872-.306 1.952.167 2.516.492" style="fill:none;stroke:#000;stroke-width:1;stroke-dasharray:none"/><path id="path200781" d="m68.963 265.178-.24.012c-1.501.073-3.001.163-4.5.276-1.74.132-3.483.24-5.217.428" style="fill:#000;fill-opacity:1;stroke:#000;stroke-width:.999997;stroke-dasharray:none;stroke-opacity:1"/><path id="path200777" d="M64.308 262.426c-.242 1.182-.42 2.372-.592 3.563-.236 1.624-.521 3.242-.724 4.87-.03.655-.115 1.442.398 1.99.258.276.415.283.777.411a3.352 3.352 0 0 0 2.674-.91c.2-.252.123-.13.244-.358" style="fill:none;fill-opacity:1;stroke:#000;stroke-width:.999997;stroke-dasharray:none;stroke-opacity:1"/><g id="g206162" style="stroke-width:1.01144" transform="matrix(.98886 0 0 .98852 1.948 2.028)"><path id="path201379" d="M256.471 265.542c-.27-.01-.544-.002-.774.007a208.43 208.43 0 0 0-3.958.19c-1.287.076-2.576.113-3.86.223" style="fill:none;fill-opacity:1;stroke:#000;stroke-width:1.01144;stroke-dasharray:none;stroke-opacity:1"/><path id="path201383" d="M255.265 274.868c-.497.62-1.383.643-2.11.576-.742-.07-1.466-.503-1.756-1.222-.461-1.14-.226-2.388-.055-3.554.37-2.534.9-5.042 1.481-7.535.046-.196.073-.395.103-.593" style="fill:none;fill-opacity:1;stroke:#000;stroke-width:1.01144;stroke-dasharray:none;stroke-opacity:1"/></g><path id="path204424" d="M266.705 268.362c-.298.314-.95 1.156-1.814.995-.894-.166-2.125-2.117-2.5-2.117-.994 0-1.645.625-2.171 1.121" style="fill:none;fill-opacity:1;stroke:#000;stroke-width:1;stroke-dasharray:none;stroke-opacity:1"/><path id="path204420" d="M266.907 271.136c-.364.015-.167.005-.438.014-1.266 0-2.528-.117-3.794-.114-1.033-.015-2.072-.042-3.1.055" style="fill:none;fill-opacity:1;stroke:#000;stroke-width:1;stroke-dasharray:none;stroke-opacity:1"/><path id="path204713" d="M270.766 265.115c.855-.491 1.954-1.007 2.909-1.257.218-.057.458-.134.68-.166.47-.067 1.778-.309 2.001.343.436 1.27-.996 3.384-1.71 4.638-.842 1.48-1.701 2.95-2.527 4.439-.086.153-.637.91-.407 1.097.11.088.261.08.382.089.547.037 1.108-.074 1.652-.117.744-.06 1.156-.092 1.732-.134.577-.042 1.595-.09 2.403-.103" style="fill:none;fill-opacity:1;stroke:#000;stroke-width:1;stroke-dasharray:none;stroke-opacity:1"/><path id="path201353" d="M-179.906 310.019c.254-.133.618-.244.93-.314.778-.175 1.642-.2 2.236-.115 1.055.153 1.94.898 1.928 1.58-.007.403-.084.706-.227 1.08-.658 1.715-1.774 3.212-2.863 4.68a40.306 40.306 0 0 1-1.647 2.087c-.052.048-.143.08-.007.116.025.007.045-.025.069-.033.043-.014.087-.022.13-.033 1.153-.152 2.317-.058 3.47.028.77.042 1.76.172 2.531.141" style="fill:none;fill-opacity:1;stroke:#000;stroke-width:1;stroke-dasharray:none;stroke-opacity:1"/><path id="path205291" d="M287.776 273.856c-.151-.127.076.107.14.141.207.108.477.13.629-.071.141-.186.22-.414.155-.65-.06-.221-.174-.392-.406-.44-.316-.065-.677.02-.867.289-.207.293-.118.566.1.846z" style="fill:#000;fill-opacity:1;stroke:#000;stroke-width:1;stroke-dasharray:none;stroke-opacity:1"/><g id="g206158" style="stroke-width:1.01144" transform="matrix(.98886 0 0 .98852 .73 2.09)"><path id="path205869" d="m296.097 275.464.36-.837c.66-1.531 1.326-3.06 2.007-4.582.688-1.53 1.381-3.062 2.24-4.506l.149-.253c.048-.083.207-.278.052-.355-.036-.018-.254-.02-.26-.02-.947.048-1.896.088-2.845.101-1.66.003-3.1 0-4.76.036-.93.021-1.866.038-2.786.188" style="fill:none;fill-opacity:1;stroke:#000;stroke-width:1.01144;stroke-dasharray:none;stroke-opacity:1"/><path id="path205580" d="M300.314 270.2c-.905.006-1.823.015-2.597.022-1.075.013-2.153.008-3.225.094" style="fill:none;fill-opacity:1;stroke:#000;stroke-width:1.01144;stroke-dasharray:none;stroke-opacity:1"/></g><path id="path209676" d="M299.455 273.785c.755.334 1.51.542 2.273.527.38-.008 1.844-.047 1.703-.732a.693.693 0 0 0-.145-.293c-.839-.99-1.956-1.68-2.8-2.67-.191-.224-.38-.48-.465-.768-.177-.59.3-.92.725-1.036.781-.213 1.602-.135 2.1.2" style="color:#000;display:inline;fill:#f4eed7;fill-opacity:1;stroke:#000;stroke-width:1;stroke-linecap:square;stroke-miterlimit:2;stroke-dasharray:none"/><path id="path22717-1" d="M287.346 270.207c-.261-.017-.66-.045-.883-.053-1.668-.07-2.851-.044-4.644.111a57.61 57.61 0 0 0-3.399.416c-.39-.051-.457-.303-.466-.591-.045-1.148.243-2.283.508-3.407.312-1.086.675-2.162 1.013-3.243" style="fill:none;fill-opacity:1;stroke:#000;stroke-width:.999997;stroke-dasharray:none;stroke-opacity:1"/><path id="path21573-0" d="M282.74 266.772a43.99 43.99 0 0 0 .162 4.468c.11 1.067.202 2.135.353 3.199a3.2 3.2 0 0 0 .037.217" style="fill:none;fill-opacity:1;stroke:#000;stroke-width:.999997;stroke-dasharray:none;stroke-opacity:1"/><path id="path221774" d="m-165.999 280.409-2.47.003c-1.338 0-2.677 0-4.016-.004" style="fill:none;fill-opacity:1;stroke:#000;stroke-width:1;stroke-dasharray:none;stroke-opacity:1"/><path id="path252033" d="M152.738 22.407h8.219l-10.753 10.806-10.753-10.806h8.219V16.21H84.837v-32.25h130.958v32.25h-63.057z" style="color:#000;display:inline;fill:#f4eed7;fill-opacity:1;stroke:#000;stroke-width:.999999;stroke-linecap:square;stroke-miterlimit:2;stroke-dasharray:none"/><path id="path252642" d="M143.172 36.628c12.71.072 22.583 12.31 26.671 20.807" style="fill:none;fill-opacity:1;stroke:#000;stroke-width:1;stroke-dasharray:none;stroke-opacity:1"/><path id="path254284" d="M224.561 38.085c-12.836-1.303-22.583 10.185-26.671 18.682" style="fill:none;fill-opacity:1;stroke:#000;stroke-width:1;stroke-dasharray:none;stroke-opacity:1"/><path id="path254896" d="M205.384 28.892h-8.218l10.752 10.806 10.753-10.806h-8.218V10.75h30.466v14.521h148.18V-8.447h-148.18V5.682l-35.536-.001z" style="color:#000;display:inline;fill:#f4eed7;fill-opacity:1;stroke:#000;stroke-width:.999999;stroke-linecap:square;stroke-miterlimit:2;stroke-dasharray:none"/><path id="path256618" d="M318.245 13.35c-.07-.84-.17-1.68-.29-2.51-.19-1.1-.47-3.18-1.21-4.03-.11-.12-.27-.2-.4-.3-.15-.01-.31-.05-.45-.03-1.2.23-2.35 2.27-2.92 3.2-.48.95-.54.97-.85 1.93-.01.02-.25.85-.23 1.03 0 .05.04.13.09.12.05-.01 0-.1 0-.15-.04-2-.08-4-.15-6-.1-2.64-.24-5.28-.35-7.92" style="fill:none;fill-opacity:1;stroke:#000;stroke-width:1;stroke-dasharray:none;stroke-opacity:1"/><path id="path256620" d="M324.405 8.13c1.535.074 3.112 1.36 3.02 2.985-.059 1.053-1.04 1.684-2.008 1.83-1.555.237-3.269.045-4.571-.88-.865-.614-1.381-1.802-.896-2.82.693-1.454 2.44-2.11 3.97-1.842.35.061.7.119 1.045.197" style="fill:none;fill-opacity:1;stroke:#000;stroke-width:1;stroke-dasharray:none;stroke-opacity:1"/><path id="path256622" d="M334.055 7.48c-.89.09-.43.01-1.39.25-2.05.81-3.05 1.49-3.03 3.85.06.52.09 1.04.31 1.53.03.07-.07-.14-.1-.22-.16-.43-.2-.6-.34-1.08-.36-1.4-.61-2.83-.74-4.28" style="fill:none;fill-opacity:1;stroke:#000;stroke-width:1;stroke-dasharray:none;stroke-opacity:1"/><path id="path256624" d="M338.455 4.76c.293.243.48.756.112 1.025-.381.278-.888.299-1.342.267-.493-.035-1.08-.268-1.218-.798-.135-.517.282-.97.729-1.176.633-.293 1.325-.454 2.02-.418" style="fill:none;fill-opacity:1;stroke:#000;stroke-width:1;stroke-dasharray:none;stroke-opacity:1"/><path id="path256628" d="M337.095 13.66c-.07-.39-.11-.78-.11-1.17V7.85" style="fill:none;fill-opacity:1;stroke:#000;stroke-width:1;stroke-dasharray:none;stroke-opacity:1"/><path id="path256630" d="M346.48 12.901c-.075-.017-5.667.216-7.372.231-.275-.122-.103-.182-.103-.182 1.21-1.02 2.44-2.019 3.66-3.03.88-.729 1.74-1.5 2.69-2.14.01-.04.05-.09.03-.14-.03-.1-.2-.07-.31-.08-.47-.02-.95.015-1.42.01-1.26-.015-2.53 0-3.79-.01" style="fill:none;fill-opacity:1;stroke:#000;stroke-width:1;stroke-dasharray:none;stroke-opacity:1"/><path id="path256634" d="M351.965 7.29c1.26.18 2.04.53 2.56 1.76.04.22.11.44.13.67.1 1.36-.74 2.48-1.86 3.16-.23.1-.46.23-.7.31-1.2.42-2.33.33-3.36-.44-.16-.16-.34-.31-.48-.49-.61-.78-.87-1.82-.53-2.78.09-.25.24-.47.36-.71.18-.21.33-.44.53-.63.82-.77 2.01-1.2 3.09-.82" style="fill:none;fill-opacity:1;stroke:#000;stroke-width:1;stroke-dasharray:none;stroke-opacity:1"/><path id="path256636" d="M362.005 13.37c0-.01 0-.03.01-.04.09-.45.12-.91.16-1.36.05-1.2-.02-2.42-.53-3.53-.1-.14-.18-.3-.3-.42-.84-.86-2.03-.15-2.81.4-.24.21-.5.41-.73.64-1.03 1.04-1.72 2.35-1.83 3.82.01.14-.04.43.14.51.03.02.02-.05.02-.08.01-.1.01-.21 0-.31-.02-.37-.07-.73-.08-1.1-.08-1.52-.08-3.05-.07-4.58" style="fill:none;fill-opacity:1;stroke:#000;stroke-width:1;stroke-dasharray:none;stroke-opacity:1"/><path id="path256640" d="M364.805 12.91c.14-.35.09-.76.1-1.13-.17-2.32-.34-4.64-.43-6.96-.04-2.32-.02-4.65.23-6.96" style="fill:none;fill-opacity:1;stroke:#000;stroke-width:1;stroke-dasharray:none;stroke-opacity:1"/><path id="path256642" d="M369.315 1.13c-.86 0-1.72.05-2.59.11-2.5.16-5.02.32-7.5.77" style="fill:none;fill-opacity:1;stroke:#000;stroke-width:1;stroke-dasharray:none;stroke-opacity:1"/><path id="path256646" d="M375.395 12.74c-.75-.57-.36-.26-1.16-.91-.57-.51-.79-.69-1.31-1.24-.17-.19-.32-.39-.5-.57-.1-.1-.37-.43-.33-.28.01.05.03.11.04.17.13 1.05-.2 2.02-1.03 2.72-.23.13-.45.3-.7.4-.85.35-2.2.52-2.93-.19-.14-.14-.22-.34-.33-.52-.03-.2-.11-.41-.11-.61 0-1.32 1.08-2.39 2.07-3.07.97-.49 2.05-.95 3.13-.57" style="fill:none;fill-opacity:1;stroke:#000;stroke-width:1;stroke-dasharray:none;stroke-opacity:1"/><path id="path256648" d="M376.965 13.718c0-.642-.01-1.273-.03-1.915-.05-2.235-.14-4.459-.29-6.683-.15-2.27-.28-4.539-.41-6.809" style="fill:none;fill-opacity:1;stroke:#000;stroke-width:1;stroke-dasharray:none;stroke-opacity:1"/><path id="path256650" d="M255.711 12.856c1.125.369 2.363.135 3.43-.312.69-.29 1.364-.76 1.646-1.485.325-.84.026-1.777-.436-2.51-.576-.917-1.422-1.824-2.552-1.932-.64-.06-1.284.255-1.756.692-1.297 1.201-1.95 2.93-2.336 4.616a14.149 14.149 0 0 0-.293 4.478c.116 1.23.229 2.503.739 3.628.248.547.327-.591.32-.847-.09-2.993-.253-5.983-.34-8.977-.036-1.2-.012-2.401.086-3.598" style="fill:none;fill-opacity:1;stroke:#000;stroke-width:1;stroke-dasharray:none;stroke-opacity:1"/><path id="path256652" d="M266.368 7.05c1.107-.132 2.397.026 3.13.97.528.68.96 1.538.874 2.406-.117 1.176-1.262 1.922-2.318 2.227-1.046.302-2.182.199-3.217-.109-1.077-.32-1.686-1.441-1.718-2.521-.046-1.52 1.17-2.981 2.707-3.07.361-.02.73.01 1.068.14" style="fill:none;fill-opacity:1;stroke:#000;stroke-width:1;stroke-dasharray:none;stroke-opacity:1"/><path id="path256654" d="M271.54 12.425c1.302.2 2.627.262 3.93.063.462-.127.998-.18 1.345-.568.105-.116.158-.284.179-.442.063-.652-.61-1.02-1.03-1.357-.095-.063-1.503-.977-1.566-1.02-.4-.283-1.324-.914-1.408-1.493-.021-.126.073-.252.105-.378.157-.106.294-.232.462-.326.925-.516 2.007-.6 3.037-.568" style="fill:none;fill-opacity:1;stroke:#000;stroke-width:1;stroke-dasharray:none;stroke-opacity:1"/><path id="path256660" d="M280.168 4.022c.368.137.82.368.81.82-.306.484-.884.526-1.294.137-.283-.568.2-.936.652-1.178" style="fill:none;fill-opacity:1;stroke:#000;stroke-width:1;stroke-dasharray:none;stroke-opacity:1"/><path id="path256662" d="m279.211 12.414.032-.925c.042-1.304.063-2.619.2-3.923" style="fill:none;fill-opacity:1;stroke:#000;stroke-width:1;stroke-dasharray:none;stroke-opacity:1"/><path id="path256664" d="M283.153 13.371c-.032-.332-.053-.664-.074-.996-.19-2.644-.389-5.276-.6-7.92-.178-2.715-.367-5.43-.377-8.157" style="fill:none;fill-opacity:1;stroke:#000;stroke-width:1;stroke-dasharray:none;stroke-opacity:1"/><path id="path256666" d="M286.538.426c-.415 0-.845 0-1.275-.01-2.655 0-5.324.01-7.949.294" style="fill:none;fill-opacity:1;stroke:#000;stroke-width:1;stroke-dasharray:none;stroke-opacity:1"/><path id="path256668" d="M286.432 3.749c.283.084.61.179.704.494-.379.431-1.167.505-1.692.326-.316-.526.82-.778 1.145-.83" style="fill:none;fill-opacity:1;stroke:#000;stroke-width:1;stroke-dasharray:none;stroke-opacity:1"/><path id="path256670" d="M286.264 13.813c-.127-.337-.127-.705-.2-1.052a58.711 58.711 0 0 1-.515-5.247" style="fill:none;fill-opacity:1;stroke:#000;stroke-width:1;stroke-dasharray:none;stroke-opacity:1"/><path id="path256672" d="M293.529 6.956c-.2.337-.399.917-.575 1.276-.433.882-.699 1.71-1 2.649-.142.444-.598 1.503-.787 1.888-.126.303-.35.486-.381.36-.263-.589-.67-1.11-.978-1.682-.776-1.449-1.587-2.882-2.28-4.375" style="fill:none;fill-opacity:1;stroke:#000;stroke-width:1;stroke-dasharray:none;stroke-opacity:1"/><path id="path256680" d="M300.654 12.442c-1.441.383-2.975.606-4.449.27-.695-.156-1.353-.618-1.588-1.313-.385-1.103-.003-2.34.68-3.243.559-.722 1.335-1.397 2.285-1.46.906-.02 1.712.637 2.072 1.44.22.414.333.977-.001 1.366-.533.598-1.425.771-2.184.593-.779-.169-1.437-.647-2.049-1.134" style="fill:none;fill-opacity:1;stroke:#000;stroke-width:1;stroke-dasharray:none;stroke-opacity:1"/><path id="path256544" d="M26.846-69.25c.386 3.994.534 8.008.707 12.016.069 1.718.09 1.867.105 3.468 0 .032.048 1.38-.077 1.664-.02.047-.115-.018-.138-.064-.142-.28-.226-.584-.34-.877-1.156-3.44-1.976-7.121-1.335-10.758.121-.687.36-1.348.541-2.022.272-.536.48-1.108.815-1.608.799-1.192 2.05-2.055 3.536-1.967 1.158.07 1.497.447 2.445 1.036.3.319.648.6.901.958.605.86.887 2.054.24 2.985-.555.798-1.098.843-1.968 1.18-1.484.258-2.975.152-4.438-.181a6.29 6.29 0 0 1-1.004-.303c-.16-.066-.364-.13-.43-.29-.04-.09.154-.12.23-.18l-.073-.065c-.26.401-.39.365.246.625 1.215.496 2.701.665 4 .634.503-.012 1.001-.103 1.502-.154.902-.354 1.453-.398 2.023-1.233.658-.965.367-2.196-.261-3.081-.258-.364-.613-.649-.92-.973-.972-.6-1.317-.984-2.504-1.049-1.516-.083-2.792.8-3.604 2.018-.337.505-.547 1.084-.82 1.626-.18.679-.421 1.344-.543 2.036-.64 3.651.182 7.346 1.335 10.802.138.313.215.662.415.94.048.066.206.05.245-.022.09-.168.065-.376.073-.567.016-.37.003-.741-.001-1.112-.019-1.606-.039-1.745-.11-3.47-.175-4.011-.324-8.03-.696-12.028l-.096.016z" style="fill:none;fill-opacity:1;stroke:#000;stroke-width:1;stroke-dasharray:none;stroke-opacity:1"/><path id="path256546" d="M40.787-68.542c-.867-.773-1.958-.23-2.802.283-.889.741-1.429 1.808-1.208 2.987.041.219.136.424.205.635.117.189.21.395.352.566.83.996 2.187 1.178 3.396 1.205 1.07-.081 2.246-.381 2.971-1.243.12-.142.2-.314.3-.47.054-.191.14-.376.165-.573.12-.951-.388-1.928-1.055-2.571-.197-.19-.43-.336-.645-.504-.616-.393-1.296-.646-1.979-.89l-.032.09c.674.24 1.345.488 1.953.875.21.163.437.306.63.49.645.619 1.145 1.564 1.035 2.483-.022.188-.103.365-.155.548-.094.15-.168.315-.282.45-.706.846-1.858 1.138-2.904 1.22-1.175-.024-2.505-.196-3.317-1.161-.138-.164-.228-.363-.342-.544-.067-.204-.16-.401-.2-.612-.219-1.143.302-2.178 1.162-2.899.779-.475 1.853-1.016 2.668-.314l.084-.051z" style="fill:none;fill-opacity:1;stroke:#000;stroke-width:1;stroke-dasharray:none;stroke-opacity:1"/><path id="path256548" d="M50.345-69.166c-1.075 0-2.166-.03-3.212.254-.093.06-.205.097-.28.18-.554.606.614 1.628.948 1.994.548.542 1.122 1.058 1.647 1.624.167.18.581.617.67.89.036.111-.004.234-.006.352-.07.093-.12.206-.21.28-.764.629-2.12.517-3.02.4-.703-.15-1.391-.344-2.013-.71l-.05.084c.635.37 1.335.57 2.052.72.912.118 2.354.236 3.112-.438.101-.09.15-.224.226-.337-.003-.134.033-.275-.009-.402-.09-.276-.512-.721-.684-.906-.524-.564-1.097-1.08-1.644-1.621-.262-.288-1.391-1.361-.965-1.849.066-.076.168-.111.252-.167 1.036-.285 2.12-.25 3.187-.25v-.098z" style="fill:none;fill-opacity:1;stroke:#000;stroke-width:1;stroke-dasharray:none;stroke-opacity:1"/><path id="path256550" d="M52.785-72.188c.055.556.35 1.05.951 1.07.631-.308-.191-.813-.502-.967l-.043.088c.215.105.98.521.546.78-.515.01-.818-.501-.853-.97h-.099z" style="fill:none;fill-opacity:1;stroke:#000;stroke-width:1;stroke-dasharray:none;stroke-opacity:1"/><path id="path256554" d="M53.285-69.438c-.03 1.707.068 3.41.224 5.107.089.85.043.463.133 1.163l.096-.013c-.092-.697-.045-.311-.134-1.158-.157-1.695-.257-3.395-.22-5.099h-.099z" style="fill:none;fill-opacity:1;stroke:#000;stroke-width:1;stroke-dasharray:none;stroke-opacity:1"/><path id="path256558" d="M56.816-76.68c.174 2.229.17 4.468.195 6.702a727.003 727.003 0 0 1 .025 7.17h.1l-.002-.649c-.005-2.174-.014-4.348-.033-6.522-.024-2.239-.02-4.483-.188-6.717l-.097.017z" style="fill:none;fill-opacity:1;stroke:#000;stroke-width:1;stroke-dasharray:none;stroke-opacity:1"/><path id="path256560" d="M52.384-75.068c1.921-.003 3.842-.003 5.764-.002.69-.058 1.411.104 2.09-.07l-.025-.096c-.669.178-1.384.007-2.065.072-1.921 0-3.843 0-5.764-.002v.098z" style="fill:none;fill-opacity:1;stroke:#000;stroke-width:1;stroke-dasharray:none;stroke-opacity:1"/><path id="path256562" d="M60.42-71.712c.207.346 1.054.223.4-.113l-.043.09c.52.22-.158.157-.288-.047l-.07.07z" style="fill:none;fill-opacity:1;stroke:#000;stroke-width:1;stroke-dasharray:none;stroke-opacity:1"/><path id="path256564" d="M60.535-68.658c-.003 1.429-.017 2.856.073 4.282-.083.348.252 1.151.094 1.47-.02.024-.031.021-.056.025l.014.1c.06-.013.098-.032.133-.085.163-.396-.159-1.096-.09-1.516-.09-1.424-.077-2.85-.069-4.276h-.099z" style="fill:none;fill-opacity:1;stroke:#000;stroke-width:1;stroke-dasharray:none;stroke-opacity:1"/><path id="path256566" d="M63.127-69.054c.395 1.46 1.038 2.829 1.675 4.195.237.498.469.999.72 1.49.336.12.384-.618.426-.796.38-1.615.761-3.224 1.315-4.789.158-.393.281-.805.51-1.164l-.083-.053c-.23.367-.36.784-.517 1.185-.553 1.569-.935 3.181-1.32 4.798-.059.244-.092.561-.242.773-.253-.489-.485-.988-.723-1.484-.635-1.362-1.278-2.726-1.667-4.183l-.094.028z" style="fill:none;fill-opacity:1;stroke:#000;stroke-width:1;stroke-dasharray:none;stroke-opacity:1"/><path id="path256580" d="M69.498-68.01c1.013.374 1.954.519 3.03.417.619-.163 1.495-.407 1.753-1.092.029-.078.02-.164.031-.246-.233-.791-.87-.726-1.544-.595-1.328.36-2.11 1.142-2.8 2.292-.44.94-.35 1.998.285 2.837.137.181.313.33.469.494 1.212.84 2.632.857 4.022.564l-.02-.095c-1.357.29-2.745.277-3.933-.535-.151-.16-.322-.302-.455-.477-.617-.808-.709-1.83-.286-2.738.675-1.127 1.437-1.894 2.737-2.246.603-.12 1.182-.213 1.427.488-.066.793-1.055 1.09-1.696 1.253-1.06.102-1.99-.043-2.988-.415l-.032.094z" style="fill:none;fill-opacity:1;stroke:#000;stroke-width:1;stroke-dasharray:none;stroke-opacity:1"/><path id="path256582" d="M83.91-69.328c.672 1.514 1.229 3.073 1.875 4.598.24.54.468 1.087.735 1.615.039.033.092.104.159.05.14-.111.238-.415.288-.544.187-.48.512-1.382.677-1.832.486-1.247.869-2.534 1.365-3.776l-.092-.037c-.491 1.246-.875 2.533-1.36 3.78-.216.587-.451 1.24-.68 1.827-.06.153-.203.507-.232.508-.014 0-.024-.014-.036-.02-.268-.526-.496-1.07-.736-1.608-.649-1.525-1.206-3.085-1.874-4.6l-.09.04z" style="fill:none;fill-opacity:1;stroke:#000;stroke-width:1;stroke-dasharray:none;stroke-opacity:1"/><path id="path256584" d="M90.544-66.818c1.07-.09 2.137-.249 3.154-.603.418-.159 1.104-.701.714-1.218-.057-.075-.143-.121-.214-.182-1.032-.45-2.108.039-3.03.527-.876.609-1.53 1.563-1.182 2.674.069.218.198.412.296.618.172.181.32.387.515.543.947.757 2.393 1.086 3.571 1.253.35.056.644.032.965-.1l-.039-.091c-.3.131-.582.145-.912.095-1.16-.161-2.581-.484-3.516-1.223-.188-.149-.331-.346-.497-.518-.096-.198-.22-.383-.288-.592-.342-1.068.29-1.987 1.132-2.574.886-.47 1.924-.95 2.922-.536.644.503.074.983-.47 1.232-1.005.353-2.061.51-3.121.597v.098z" style="fill:none;fill-opacity:1;stroke:#000;stroke-width:1;stroke-dasharray:none;stroke-opacity:1"/><path id="path256586" d="M97.035-68.628c.082 1.333.282 2.655.501 3.97.045.01.09.805.183.829.153.04.074-.406.073-.733.197-2.269 1.826-2.996 3.757-3.69l-.031-.087c-1.974.712-3.62 1.46-3.823 3.776 0 .217-.063.45.02.65.014.034.072.075.096.048.026-.027-.031-.069-.041-.106-.059-.21-.103-.5-.139-.703-.22-1.31-.42-2.626-.497-3.954h-.099z" style="fill:none;fill-opacity:1;stroke:#000;stroke-width:1;stroke-dasharray:none;stroke-opacity:1"/><path id="path256590" d="M104.285-77.188c.003 2.054-.008 4.108.034 6.162.057 2.133.128 4.265.19 6.398l.023.861.099-.002-.026-.862c-.066-2.132-.139-4.264-.195-6.397-.04-2.053-.03-4.106-.026-6.16h-.099z" style="fill:none;fill-opacity:1;stroke:#000;stroke-width:1;stroke-dasharray:none;stroke-opacity:1"/><path id="path256592" d="M99.854-73.818c2.196.009 4.39.002 6.585-.074.886-.028 1.78-.06 2.643-.275l-.024-.095c-.856.217-1.743.247-2.622.277a153.76 153.76 0 0 1-6.582.069v.098z" style="fill:none;fill-opacity:1;stroke:#000;stroke-width:1;stroke-dasharray:none;stroke-opacity:1"/><path id="path256594" d="M107.92-71.462c.39.312.93.599 1.366.223.105-.572-.585-.784-1.024-.897l-.22.024.013.098.183-.026c.378.095.965.254.98.728-.367.361-.897.04-1.229-.22l-.07.07z" style="fill:none;fill-opacity:1;stroke:#000;stroke-width:1;stroke-dasharray:none;stroke-opacity:1"/><path id="path256596" d="M107.506-68.915c-.15 1.542-.135 3.093-.078 4.64 0 .037.05 1.155.096 1.157.047.003.093-.017.14-.026l-.054-.084c.008.338-.124-1.213-.086-1.05-.06-1.541-.076-3.087.08-4.623l-.098-.014z" style="fill:none;fill-opacity:1;stroke:#000;stroke-width:1;stroke-dasharray:none;stroke-opacity:1"/><path id="path256604" d="M113.368-69.386c-1.014.22-2.055.568-2.721 1.413-.144.183-.25.393-.374.59-.052.24-.141.477-.157.723-.096 1.49.956 2.182 2.126 2.763.766.313 1.53.348 2.328.19l-.019-.095c-.776.157-1.52.122-2.266-.18-1.132-.56-2.157-1.218-2.075-2.658.013-.235.096-.462.145-.693.12-.19.221-.395.36-.573.65-.83 1.674-1.169 2.667-1.382l-.014-.098z" style="fill:none;fill-opacity:1;stroke:#000;stroke-width:1;stroke-dasharray:none;stroke-opacity:1"/><path id="path256614" d="M119.32-68.196c-1.42-.16-2.69.151-3.965.755-.664.417-1.431 1.014-1.22 1.911.124.53.38.72.725 1.112.226.111.438.262.68.334 1.007.301 2.105-.036 2.88-.71.176-.153.315-.342.473-.514.498-.624.748-1.374.994-2.118-.362.338.673 1.676.85 1.913.914.972 2.069 1.668 3.26 2.248l.042-.087c-1.179-.57-2.321-1.258-3.226-2.218-.386-.518-.503-.605-.746-1.16-.466-1.068.089.122-.153-.64-.06-.19-.072-.15-.12-.087-.24.733-.485 1.47-.972 2.084-.152.167-.287.352-.457.5-.748.656-1.806.986-2.783.703-.231-.066-.434-.208-.65-.312-.331-.372-.574-.55-.7-1.05-.218-.854.537-1.425 1.164-1.822 1.258-.598 2.513-.906 3.914-.744l.011-.098z" style="fill:none;fill-opacity:1;stroke:#000;stroke-width:1;stroke-dasharray:none;stroke-opacity:1"/><path id="path256616" d="M124.535-76.658c-.145 2.661-.119 5.326-.087 7.99.024 1.667.048 3.335.078 5.003.005.23-.018.135.04.294l.092-.037c-.057-.122-.028-.04-.034-.259-.036-1.667-.06-3.335-.085-5.003-.033-2.663-.06-5.327.095-7.988h-.099z" style="fill:none;fill-opacity:1;stroke:#000;stroke-width:1;stroke-dasharray:none;stroke-opacity:1"/><path id="path256702" d="M375.93-70.889c1.324.013 2.636-.23 3.91-.576 1.044-.38 2.114-.907 2.74-1.87.09-.138.152-.294.228-.441.308-1.208-.798-1.129-1.65-1.076-1.419.26-2.862.702-4.033 1.577-.245.183-.46.402-.689.603-.729.836-1.366 1.914-.696 2.997.444.718.837.819 1.551 1.233.392.112.775.265 1.176.335 1.86.329 3.763-.025 5.509-.662a4.007 4.007 0 0 1 0 0c-1.746.636-3.65.99-5.508.662-.402-.071-.784-.224-1.176-.335-.715-.415-1.107-.516-1.55-1.233-.671-1.083-.034-2.16.695-2.996.23-.201.444-.42.688-.603 1.17-.875 2.614-1.317 4.033-1.577.85-.053 1.957-.133 1.649 1.074-.076.147-.137.303-.227.442-.626.963-1.696 1.49-2.74 1.87-1.274.345-2.586.588-3.91.575v.001z" style="fill:none;fill-opacity:1;stroke:#000;stroke-width:1;stroke-dasharray:none;stroke-opacity:1"/><path id="path256704" d="M399.46-76.175c1.232.091 2.474.202 3.702-.02.317-.058.626-.156.94-.233.272-.109.565-.175.817-.326.493-.296.813-.87.534-1.426-.224-.448-.498-.502-.921-.73-.247-.041-.49-.117-.74-.126-1.331-.046-2.688.587-3.673 1.447-.26.228-.477.502-.716.753-.155.281-.35.544-.466.844-.327.853-.245 1.771.45 2.423.637.596 1.092.595 1.912.807 1.396.215 2.775.02 4.142-.26-1.367.28-2.746.474-4.141.259-.82-.212-1.276-.211-1.912-.806-.695-.652-.777-1.57-.45-2.422.115-.3.31-.563.466-.844.239-.251.455-.525.716-.753.985-.86 2.341-1.493 3.672-1.447.25.009.493.085.74.127.422.227.696.28.92.728.279.557-.04 1.13-.534 1.425-.251.151-.544.217-.817.326-.313.077-.622.175-.94.232-1.227.223-2.469.112-3.702.021v.001z" style="fill:none;fill-opacity:1;stroke:#000;stroke-width:1;stroke-dasharray:none;stroke-opacity:1"/><path id="path256544-8" d="M95.252 2.639c-.619.588.825.623 1.201.804 1.547.324 3.181.39 4.734.088.79-.202 1.64-.513 2.022-1.244.56-1.037-.083-2.275-.99-2.94-.515-.455-1.164-.766-1.808-1.032-1.537-.485-3.31.034-4.35 1.18-.55.575-.919 1.287-1.22 1.995-1.037 2.568-.807 5.423-.007 8.018.353 1.084.679 2.19 1.221 3.206.636.368.318-1.01.381-1.368-.064-2.747-.237-5.49-.396-8.233-.104-1.596-.235-3.19-.407-4.78" style="fill:none;fill-opacity:1;stroke:#000;stroke-width:.999999;stroke-dasharray:none;stroke-opacity:1"/><path id="path256546-6" d="M108.525-1.891c.672.24 1.344.492 1.956.873.211.17.442.31.633.491.652.622 1.153 1.575 1.043 2.498-.03.181-.11.362-.16.542-.09.15-.171.321-.281.462-.713.842-1.867 1.133-2.91 1.214-1.184-.02-2.518-.191-3.331-1.164-.14-.16-.23-.361-.341-.542-.07-.2-.16-.401-.2-.612-.222-1.154.3-2.187 1.163-2.91.783-.48 1.856-1.023 2.679-.32" style="fill:none;fill-opacity:1;stroke:#000;stroke-width:.999999;stroke-dasharray:none;stroke-opacity:1"/><path id="path256548-8" d="M112.9 3.336c.642.371 1.344.572 2.056.722.923.12 2.368.23 3.13-.441.1-.09.151-.221.221-.341 0-.13.04-.271-.01-.402-.09-.28-.511-.722-.682-.913-.522-.561-1.104-1.083-1.645-1.625-.271-.28-1.405-1.364-.974-1.856.07-.07.171-.11.251-.16 1.044-.291 2.127-.251 3.2-.251" style="fill:none;fill-opacity:1;stroke:#000;stroke-width:.999999;stroke-dasharray:none;stroke-opacity:1"/><path id="path256550-6" d="M121.491-5.068c.236.108 1.049.557.589.836-.546.01-.878-.536-.91-1.04" style="fill:none;fill-opacity:1;stroke:#000;stroke-width:1;stroke-dasharray:none;stroke-opacity:1"/><path id="path256554-6" d="M122.08 4.37c-.097-.74-.043-.333-.14-1.232-.17-1.821-.278-3.642-.235-5.463" style="fill:none;fill-opacity:1;stroke:#000;stroke-width:1;stroke-dasharray:none;stroke-opacity:1"/><path id="path256558-2" d="M125.716 4.08c-.01-2.335-.02-4.66-.032-6.984-.032-2.4-.021-4.81-.203-7.198" style="fill:none;fill-opacity:1;stroke:#000;stroke-width:1;stroke-dasharray:none;stroke-opacity:1"/><path id="path256560-9" d="M129.011-8.538c-.717.193-1.487.01-2.214.075h-6.161" style="fill:none;fill-opacity:1;stroke:#000;stroke-width:1;stroke-dasharray:none;stroke-opacity:1"/><path id="path256562-9" d="M129.225-4.768c.225.375 1.134.247.428-.117l-.043.096c.556.236-.171.171-.31-.054l-.075.075z" style="fill:none;fill-opacity:1;stroke:#000;stroke-width:1;stroke-dasharray:none;stroke-opacity:1"/><path id="path256564-4" d="M129.631 4.712c.172-.428-.17-1.178-.096-1.628-.096-1.521-.085-3.053-.075-4.574" style="fill:none;fill-opacity:1;stroke:#000;stroke-width:1;stroke-dasharray:none;stroke-opacity:1"/><path id="path256566-9" d="M137.001-3.118c-.246.396-.385.846-.545 1.275-.6 1.681-1.006 3.406-1.412 5.141-.064.257-.107.6-.267.825-.268-.525-.514-1.06-.77-1.585-.674-1.468-1.37-2.925-1.776-4.488" style="fill:none;fill-opacity:1;stroke:#000;stroke-width:1;stroke-dasharray:none;stroke-opacity:1"/><path id="path256580-4" d="M144.532 4.102c-1.455.31-2.942.3-4.204-.568-.171-.171-.353-.332-.492-.514-.663-.868-.76-1.96-.31-2.935.727-1.21 1.54-2.025 2.93-2.4.643-.128 1.263-.235 1.53.515-.075.856-1.133 1.167-1.818 1.35-1.134.106-2.129-.054-3.198-.45" style="fill:none;fill-opacity:1;stroke:#000;stroke-width:1;stroke-dasharray:none;stroke-opacity:1"/><path id="path256582-0" d="M159.774-2.46c-.572 1.46-1.015 2.958-1.586 4.42-.245.689-.525 1.449-.793 2.139-.07.175-.233.596-.268.596-.012 0-.035-.023-.046-.023-.315-.62-.572-1.251-.851-1.883-.758-1.789-1.411-3.613-2.192-5.378" style="fill:none;fill-opacity:1;stroke:#000;stroke-width:.999999;stroke-dasharray:none;stroke-opacity:1"/><path id="path256584-8" d="M167.211 4.494c-.35.152-.676.164-1.06.106-1.353-.187-3.02-.562-4.104-1.427-.222-.175-.385-.409-.583-.608-.105-.234-.257-.444-.327-.69-.408-1.25.339-2.326 1.318-3.005 1.026-.55 2.238-1.11 3.404-.63.746.584.081 1.145-.548 1.437-1.178.421-2.402.597-3.637.702" style="fill:none;fill-opacity:1;stroke:#000;stroke-width:.999999;stroke-dasharray:none;stroke-opacity:1"/><path id="path256586-0" d="M173.393-1.282c-2.297.83-4.22 1.708-4.454 4.408 0 .258-.018.914.075 1.148.012.047.082.094.117.058.023-.035-.047-.081-.058-.128a23.68 23.68 0 0 1-.204-1.206c-.268-1.532-.49-3.064-.582-4.619" style="fill:none;fill-opacity:1;stroke:#000;stroke-width:.999999;stroke-dasharray:none;stroke-opacity:1"/><path id="path256590-5" d="M175.681 4.888c0-.329-.012-.658-.023-.987-.082-2.418-.163-4.837-.233-7.255-.047-2.338-.035-4.666-.024-6.993" style="fill:none;fill-opacity:1;stroke:#000;stroke-width:1;stroke-dasharray:none;stroke-opacity:1"/><path id="path256592-7" d="M180.846-7.992c-.991.258-2.029.293-3.055.328-2.553.093-5.118.105-7.67.082" style="fill:none;fill-opacity:1;stroke:#000;stroke-width:.999999;stroke-dasharray:none;stroke-opacity:1"/><g id="g260192" style="stroke-width:.85653" transform="matrix(1.16578 0 0 1.16923 -28.64 -4.416)"><path id="path256594-3" d="M178.277-.888c.626-.075 1.039.42 1.16.7-.37.36-.9.04-1.23-.22" style="fill:none;fill-opacity:1;stroke:#000;stroke-width:.85653;stroke-dasharray:none;stroke-opacity:1"/><path id="path256596-8" d="M178.247 7.946c-.057-.39-.08-1.205-.08-1.205s-.08-3.09.08-4.63" style="fill:none;fill-opacity:1;stroke:#000;stroke-width:.85653;stroke-dasharray:none;stroke-opacity:1"/></g><path id="path256604-3" d="M187.257 4.031c-.909.176-2.087.178-2.955-.15-1.23-.462-2.19-1.375-2.116-2.958.026-.565.271-1.011.595-1.394.86-1.02 2.024-1.406 3.112-1.516" style="fill:none;fill-opacity:1;stroke:#000;stroke-width:.999999;stroke-dasharray:none;stroke-opacity:1"/><path id="path256614-1" d="M198.309 4.741c-1.404-.796-2.8-1.734-3.836-3.116-.456-.609-1.189-1.31-1.015-2.087.128-.568.01-.914-.145-.16-.246 1.204-.749 2.366-1.542 3.228-.958 1.043-2.512 1.62-3.73.903-.53-.312-1.042-1.022-1.061-1.596-.078-2.265 1.782-3.2 3.168-3.489a7.883 7.883 0 0 1 2.647-.097" style="fill:none;fill-opacity:1;stroke:#000;stroke-width:.999999;stroke-dasharray:none;stroke-opacity:1"/><path id="path256616-8" d="M198.997 5.052c-.047-1.846-.07-3.691-.105-5.525-.035-2.95-.07-5.89.116-8.83" style="fill:none;fill-opacity:1;stroke:#000;stroke-width:.999998;stroke-dasharray:none;stroke-opacity:1"/></g></svg>