<svg xmlns="http://www.w3.org/2000/svg" id="svg627" width="1300" height="600" version="1.1" viewBox="-30 -84 1300 600"><style id="style15014" type="text/css">.maze_wall{fill:none;stroke:#00f;stroke-width:2.5}.bubbles{fill:#dca5be;stroke-width:2}.pacman{fill:#fff200;stroke:none}.cherry_very_red{fill:red}.cherry_lesser_red{fill:#670303}.eyewhite{stroke:none;fill:#fff}.pupils_blue{stroke:none;fill:#0000fa}</style><g id="bubbles" style="display:inline" transform="translate(327.226 229.39)"><path id="path2495" d="M-222.58 92.584c-7.575 2.988-21.183-.27-30.064-6.918-12.852-9.62-20.683-22.497-24.453-38.27-5.604-23.438-1.671-49.367 10.438-71.94 9.422-17.564 25.317-32.83 37.674-38.18 3.194-1.382 6.865-2.973 9.874-1.682-1.498 6.523-18.666 2.14-27.814-7.87-7.145-7.816-10.546-17.243-10.546-27.13 0-17.969 14.037-36.206 20.802-43.755 14.298-15.956 42.74-32.872 66.07-39.083 24.071-6.409 55.358-8.52 76.062-5.132 27.154 4.443 53.513 25.402 44.904 35.89-3.344-3.31.488-16.922 5.74-24.667 8.892-13.111 26.984-23.739 41.636-28.946 25.701-9.133 60.14-8.69 87.458.208 21.698 7.066 42.906 20.503 52.226 41.944.441 1.015 1.524 3.177.647 4.383-1.07 1.473-1.473 1.667-2.762 1.337-1.448-.41-2.23-2.055-.02-4.714 2.176-2.62 3.871-4.065 5.904-5.615 21.221-16.185 47.312-23.56 72.89-27.71 40.668-6.601 82.93-4.279 122.299 8.476 18.147 5.88 33.633 14.381 44.844 26.03 1.425 1.48 4.933 5.464 4.386 8.064-6.44-4.347-3.191-19.3 6.412-27.194 12.688-10.432 30.271-14.604 46.989-15.092 31.136-.908 62.205 2.534 93.456 22.396 24.984 15.88 42.436 43.33 37.687 66.543-3.313 16.197-17.534 30.352-28.603 27.562 8.248.396 21.717 7.392 30.456 15.843 17.93 17.337 33.157 36.937 37.31 72.157 2.977 25.252-3.658 48.997-18.982 63.95-16.29 15.898-38.668 21.719-49.514 17.37l.759 1.45c9.033-5.043 28.55 5.818 33.837 20.619 13.178 36.894-20.596 66.602-45.022 81.02-19.86 11.723-51.115 22.419-82.854 24.82-29.539 2.233-79.759-5.777-70.502-36.348-4.88 9.924-10.022 14.999-17.415 19.648-19.096 12.01-42.161 15.034-65.62 13.705-23.645-1.34-45.74-9.058-61.22-22.657-3.675-3.228-12.712-12.758-8.89-20.286.033 7.25-5.129 13.71-10.258 18.334-15.708 14.157-32.6 23.136-51.696 27.512-24.353 5.582-53.371 5.79-74.56-1.273-12.795-4.266-30.354-15.141-36.775-27.937-2.12-4.227-4.243-9.737-3.096-14.19 12.568 19.839-17.369 38.588-64.755 34.817-34.29-2.73-75.291-24.54-52.043-43.918-2.427 9.406-14.324 25.99-28.003 33.242-11.9 6.308-35.881 17.69-70.425 16.601-35.682-1.124-85.854-22.986-92.41-64.17-4.051-25.46 17.784-54.465 38.868-60.507" style="fill:#ececec;fill-opacity:1;stroke:#010101;stroke-width:1.5;stroke-dasharray:none;stroke-opacity:1"/><path id="rect1043059" d="M-194.246-130.633h704.687v287.608h-704.687z" style="fill:#000;stroke:none;stroke-width:1.5"/><path id="path58435-0" d="M351.892-1.347c-1.3.976-2.99 1.166-4.567 1.3-2.584.103-5.36-.167-7.244-2.012-1.176-1.133-1.783-3.246-1.337-4.852.534-2.008 2.193-3.8 3.98-4.739 1.748-.917 3.808-.914 4.6-.79.937.149 2.195.681 2.604.943" style="display:inline;fill:#000;fill-opacity:1;stroke:#87ffb7;stroke-width:3.7;stroke-miterlimit:2;stroke-dasharray:none;stroke-opacity:1"/><path id="path9" d="M-22.955 3.964a6 6 0 0 0 6-6v-24a6 6 0 0 0-6-6h-64a6 6 0 0 0-6 6v24a6 6 0 0 0 6 6h64" class="maze_wall" style="display:inline;fill:none;stroke:#00f;stroke-width:4;stroke-miterlimit:4;stroke-dasharray:none"/><path id="path11" d="M97.045 3.964a6 6 0 0 0 6-6v-24a6 6 0 0 0-6-6h-64a6 6 0 0 0-6 6v24a6 6 0 0 0 6 6h64" class="maze_wall" style="display:inline;fill:none;stroke:#00f;stroke-width:4;stroke-miterlimit:4;stroke-dasharray:none"/><path id="path13" d="M277.045 3.964a6 6 0 0 0 6-6v-24a6 6 0 0 0-6-6h-64a6 6 0 0 0-6 6v24a6 6 0 0 0 6 6h64" class="maze_wall" style="display:inline;fill:none;stroke:#00f;stroke-width:4;stroke-miterlimit:4;stroke-dasharray:none"/><path id="path15" d="M397.045 3.964a6 6 0 0 0 6-6v-24a6 6 0 0 0-6-6h-64a6 6 0 0 0-6 6v24a6 6 0 0 0 6 6h64" class="maze_wall" style="display:inline;fill:none;stroke:#00f;stroke-width:4;stroke-miterlimit:4;stroke-dasharray:none"/><path id="path17" d="M-22.955 63.964a6 6 0 0 0 6-6v-4a6 6 0 0 0-6-6h-64a6 6 0 0 0-6 6v4a6 6 0 0 0 6 6h64" class="maze_wall" style="display:inline;fill:none;stroke:#00f;stroke-width:4;stroke-miterlimit:4;stroke-dasharray:none"/><path id="path21" d="M157.045 123.964a6 6 0 0 0 6-6v-48a6 6 0 0 1 6-6h48a6 6 0 0 0 6-6v-4a6 6 0 0 0-6-6h-124a6 6 0 0 0-6 6v4a6 6 0 0 0 6 6h48a6 6 0 0 1 6 6v48a6 6 0 0 0 6 6h4" class="maze_wall" style="display:inline;fill:none;stroke:#00f;stroke-width:4;stroke-miterlimit:4;stroke-dasharray:none"/><path id="path25" d="M397.045 63.964a6 6 0 0 0 6-6v-4a6 6 0 0 0-6-6h-64a6 6 0 0 0-6 6v4a6 6 0 0 0 6 6h64" class="maze_wall" style="display:inline;fill:none;stroke:#00f;stroke-width:4;stroke-miterlimit:4;stroke-dasharray:none"/><path id="path14039" d="M43.045 155.789v-25.825a6 6 0 0 1 6-6h48a6 6 0 0 0 6-6v-4a6 6 0 0 0-6-6h-48a6 6 0 0 1-6-6v-48a6 6 0 0 0-6-6h-4a6 6 0 0 0-6 6v101.942" style="display:inline;fill:none;stroke:#00f;stroke-width:4;stroke-miterlimit:4;stroke-dasharray:none"/><path id="path14035" d="M283.045 154.011V53.964a6 6 0 0 0-6-6h-4a6 6 0 0 0-6 6v48a6 6 0 0 1-6 6h-48a6 6 0 0 0-6 6v4a6 6 0 0 0 6 6h48a6 6 0 0 1 6 6v24.166" style="display:inline;fill:none;stroke:#00f;stroke-width:4;stroke-miterlimit:4;stroke-dasharray:none"/><path id="path14031" d="M-16.955 156.232v-40.268a8 8 0 0 0-8-8h-110a2 2 0 0 1-2-2v-180a2 2 0 0 1 2-2h276a6 6 0 0 1 6 6v68a6 6 0 0 0 6 6h4a6 6 0 0 0 6-6v-68a6 6 0 0 1 6-6h276a2 2 0 0 1 2 2v180a2 2 0 0 1-2 2h-110a8 8 0 0 0-8 8v37.721" style="display:inline;fill:none;stroke:#00f;stroke-width:4;stroke-miterlimit:4;stroke-dasharray:none"/><path id="path13293" d="M-24.955 154.17v-36.206a2 2 0 0 0-2-2h-110a8 8 0 0 1-8-8v-184a8 8 0 0 1 8-8h584a8 8 0 0 1 8 8v184a8 8 0 0 1-8 8h-110a2 2 0 0 0-2 2v37.952" class="maze_wall" style="display:inline;fill:none;stroke:#00f;stroke-width:4;stroke-miterlimit:4;stroke-dasharray:none"/><circle id="circle15149" cx="-114.955" cy="-54.036" r="3.2" class="bubbles"/><circle id="circle15151" cx="-94.955" cy="-54.036" r="3.2" class="bubbles"/><circle id="circle15153" cx="-74.955" cy="-54.036" r="3.2" class="bubbles"/><circle id="circle15155" cx="-54.955" cy="-54.036" r="3.2" class="bubbles"/><circle id="circle15157" cx="-34.955" cy="-54.036" r="3.2" class="bubbles"/><circle id="circle15159" cx="-14.955" cy="-54.036" r="3.2" class="bubbles"/><circle id="circle15161" cx="5.045" cy="-54.036" r="3.2" class="bubbles"/><circle id="circle15163" cx="25.045" cy="-54.036" r="3.2" class="bubbles"/><circle id="circle15165" cx="45.045" cy="-54.036" r="3.2" class="bubbles"/><circle id="circle15167" cx="65.045" cy="-54.036" r="3.2" class="bubbles"/><circle id="circle15169" cx="85.045" cy="-54.036" r="3.2" class="bubbles"/><circle id="circle15171" cx="105.045" cy="-54.036" r="3.2" class="bubbles"/><circle id="circle15173" cx="125.045" cy="-54.036" r="3.2" class="bubbles"/><circle id="circle15175" cx="185.045" cy="-54.036" r="3.2" class="bubbles"/><circle id="circle15177" cx="205.045" cy="-54.036" r="3.2" class="bubbles"/><circle id="circle15179" cx="225.045" cy="-54.036" r="3.2" class="bubbles"/><circle id="circle15181" cx="245.045" cy="-54.036" r="3.2" class="bubbles"/><circle id="circle15183" cx="265.045" cy="-54.036" r="3.2" class="bubbles"/><path id="path7097" d="M315.293-51.711c-6.88-.371-14.486-.318-21.365.046l.81-4.97v0a331.691 331.691 0 0 1 21.471-.256z" style="display:inline;fill:#87ffb7;fill-opacity:1;stroke:#87ffb7;stroke-width:1.2;stroke-linecap:round;stroke-linejoin:round;stroke-miterlimit:4;stroke-dasharray:none;stroke-dashoffset:0;stroke-opacity:1"/><circle id="circle15185" cx="285.045" cy="-54.036" r="3.2" class="bubbles"/><circle id="circle15187" cx="305.045" cy="-54.036" r="3.2" class="bubbles"/><circle id="circle15189" cx="325.045" cy="-54.036" r="3.2" class="bubbles"/><circle id="circle15191" cx="345.045" cy="-54.036" r="3.2" class="bubbles"/><circle id="circle15193" cx="365.045" cy="-54.036" r="3.2" class="bubbles"/><circle id="circle15195" cx="385.045" cy="-54.036" r="3.2" class="bubbles"/><circle id="circle15197" cx="405.045" cy="-54.036" r="3.2" class="bubbles"/><circle id="circle15199" cx="425.045" cy="-54.036" r="3.2" class="bubbles"/><circle id="circle15201" cx="-114.955" cy="-34.036" r="3.2" class="bubbles"/><circle id="circle15203" cx="5.045" cy="-34.036" r="3.2" class="bubbles"/><circle id="circle15205" cx="125.045" cy="-34.036" r="3.2" class="bubbles"/><circle id="circle15207" cx="185.045" cy="-34.036" r="3.2" class="bubbles"/><path id="path1043367" d="M302.174-34.21c.37-3.083.318-6.49-.047-9.57l4.97.362v0c.313 3.09.407 6.528.257 9.618z" style="display:inline;fill:#87ffb7;fill-opacity:1;stroke:#87ffb7;stroke-width:1.2;stroke-linecap:round;stroke-linejoin:round;stroke-miterlimit:4;stroke-dasharray:none;stroke-dashoffset:0;stroke-opacity:1"/><circle id="circle15209" cx="305.045" cy="-34.036" r="3.2" class="bubbles"/><circle id="circle15211" cx="425.045" cy="-34.036" r="3.2" class="bubbles"/><circle id="circle15213" cx="-114.955" cy="-14.036" r="3.2" class="bubbles"/><circle id="circle15215" cx="5.045" cy="-14.036" r="3.2" class="bubbles"/><circle id="circle15217" cx="125.045" cy="-14.036" r="3.2" class="bubbles"/><circle id="circle15219" cx="185.045" cy="-14.036" r="3.2" class="bubbles"/><path id="path7079" d="M293.924 22.735c5.361.62 10.73.461 16.094.339a175.13 175.13 0 0 0 6.756-.316l-.793 5.746v0c-2.017.048-4.034.102-6.051.153-5.363.117-11.498.303-16.86-.071.284-2.081.57-3.77.854-5.851z" style="display:inline;fill:#87ffb7;fill-opacity:1;stroke:#87ffb7;stroke-width:1.2;stroke-linecap:round;stroke-linejoin:round;stroke-miterlimit:4;stroke-dasharray:none;stroke-dashoffset:0;stroke-opacity:1"/><path id="path1043369" d="M302.174-15.76c.37-3.081.318-6.488-.047-9.57l4.97.363v0c.313 3.09.407 6.528.257 9.618z" style="display:inline;fill:#87ffb7;fill-opacity:1;stroke:#87ffb7;stroke-width:1.2;stroke-linecap:round;stroke-linejoin:round;stroke-miterlimit:4;stroke-dasharray:none;stroke-dashoffset:0;stroke-opacity:1"/><circle id="circle15221" cx="305.045" cy="-14.036" r="3.2" class="bubbles"/><circle id="circle15223" cx="425.045" cy="-14.036" r="3.2" class="bubbles"/><circle id="circle15225" cx="-114.955" cy="5.964" r="7" class="bubbles"/><circle id="circle15227" cx="5.045" cy="5.964" r="3.2" class="bubbles"/><circle id="circle15229" cx="125.045" cy="5.964" r="3.2" class="bubbles"/><circle id="circle15231" cx="185.045" cy="5.964" r="3.2" class="bubbles"/><path id="path1043371" d="M302.174 2.985c.37-3.082.318-6.488-.047-9.57l4.97.363v0c.313 3.089.407 6.528.257 9.617z" style="display:inline;fill:#87ffb7;fill-opacity:1;stroke:#87ffb7;stroke-width:1.2;stroke-linecap:round;stroke-linejoin:round;stroke-miterlimit:4;stroke-dasharray:none;stroke-dashoffset:0;stroke-opacity:1"/><circle id="circle15233" cx="305.045" cy="5.964" r="3.2" class="bubbles"/><circle id="circle15235" cx="425.045" cy="5.964" r="7" class="bubbles"/><circle id="circle15237" cx="-114.955" cy="25.964" r="3.2" class="bubbles"/><circle id="circle15239" cx="-94.955" cy="25.964" r="3.2" class="bubbles"/><circle id="circle15241" cx="-74.955" cy="25.964" r="3.2" class="bubbles"/><circle id="circle15243" cx="-54.955" cy="25.964" r="3.2" class="bubbles"/><circle id="circle15245" cx="-34.955" cy="25.964" r="3.2" class="bubbles"/><circle id="circle15247" cx="-14.955" cy="25.964" r="3.2" class="bubbles"/><circle id="circle15249" cx="5.045" cy="25.964" r="3.2" class="bubbles"/><circle id="circle15251" cx="25.045" cy="25.964" r="3.2" class="bubbles"/><circle id="circle15253" cx="45.045" cy="25.964" r="3.2" class="bubbles"/><circle id="circle15255" cx="65.045" cy="25.964" r="3.2" class="bubbles"/><circle id="circle15257" cx="85.045" cy="25.964" r="3.2" class="bubbles"/><circle id="circle15259" cx="105.045" cy="25.964" r="3.2" class="bubbles"/><circle id="circle15261" cx="125.045" cy="25.964" r="3.2" class="bubbles"/><circle id="circle15263" cx="145.045" cy="25.964" r="3.2" class="bubbles"/><circle id="circle15265" cx="165.045" cy="25.964" r="3.2" class="bubbles"/><circle id="circle15267" cx="185.045" cy="25.964" r="3.2" class="bubbles"/><circle id="circle15269" cx="205.045" cy="25.964" r="3.2" class="bubbles"/><circle id="circle15271" cx="225.045" cy="25.964" r="3.2" class="bubbles"/><circle id="circle15273" cx="245.045" cy="25.964" r="3.2" class="bubbles"/><circle id="circle15275" cx="265.045" cy="25.964" r="3.2" class="bubbles"/><circle id="circle15277" cx="285.045" cy="25.964" r="3.2" class="bubbles"/><path id="path1043373" d="M302.174 22.9c.37-3.081.318-6.488-.047-9.57l4.97.364v0c.313 3.089.407 6.528.257 9.617z" style="display:inline;fill:#87ffb7;fill-opacity:1;stroke:#87ffb7;stroke-width:1.2;stroke-linecap:round;stroke-linejoin:round;stroke-miterlimit:4;stroke-dasharray:none;stroke-dashoffset:0;stroke-opacity:1"/><circle id="circle15279" cx="305.045" cy="25.964" r="3.2" class="bubbles"/><circle id="circle15281" cx="325.045" cy="25.964" r="3.2" class="bubbles"/><circle id="circle15283" cx="345.045" cy="25.964" r="3.2" class="bubbles"/><circle id="circle15285" cx="365.045" cy="25.964" r="3.2" class="bubbles"/><circle id="circle15287" cx="385.045" cy="25.964" r="3.2" class="bubbles"/><circle id="circle15289" cx="405.045" cy="25.964" r="3.2" class="bubbles"/><circle id="circle15291" cx="425.045" cy="25.964" r="3.2" class="bubbles"/><circle id="circle15293" cx="-114.955" cy="45.964" r="3.2" class="bubbles"/><circle id="circle15295" cx="5.045" cy="45.964" r="3.2" class="bubbles"/><circle id="circle15297" cx="65.045" cy="45.964" r="3.2" class="bubbles"/><circle id="circle15299" cx="245.045" cy="45.964" r="3.2" class="bubbles"/><circle id="circle15301" cx="305.045" cy="45.964" r="3.2" class="bubbles"/><circle id="circle15303" cx="425.045" cy="45.964" r="3.2" class="bubbles"/><circle id="circle15305" cx="-114.955" cy="65.964" r="3.2" class="bubbles"/><circle id="circle15307" cx="5.045" cy="65.964" r="3.2" class="bubbles"/><circle id="circle15309" cx="65.045" cy="65.964" r="3.2" class="bubbles"/><circle id="circle15311" cx="245.045" cy="65.964" r="3.2" class="bubbles"/><circle id="circle15313" cx="305.045" cy="65.964" r="3.2" class="bubbles"/><circle id="circle15315" cx="425.045" cy="65.964" r="3.2" class="bubbles"/><circle id="circle15317" cx="-114.955" cy="85.964" r="3.2" class="bubbles"/><circle id="circle15319" cx="-94.955" cy="85.964" r="3.2" class="bubbles"/><circle id="circle15321" cx="-74.955" cy="85.964" r="3.2" class="bubbles"/><circle id="circle15323" cx="-54.955" cy="85.964" r="3.2" class="bubbles"/><circle id="circle15325" cx="-34.955" cy="85.964" r="3.2" class="bubbles"/><circle id="circle15327" cx="-14.955" cy="85.964" r="3.2" class="bubbles"/><circle id="circle15329" cx="5.045" cy="85.964" r="3.2" class="bubbles"/><circle id="circle15331" cx="65.045" cy="85.964" r="3.2" class="bubbles"/><circle id="circle15333" cx="85.045" cy="85.964" r="3.2" class="bubbles"/><circle id="circle15335" cx="105.045" cy="85.964" r="3.2" class="bubbles"/><circle id="circle15337" cx="125.045" cy="85.964" r="3.2" class="bubbles"/><circle id="circle15339" cx="185.045" cy="85.964" r="3.2" class="bubbles"/><circle id="circle15341" cx="205.045" cy="85.964" r="3.2" class="bubbles"/><circle id="circle15343" cx="225.045" cy="85.964" r="3.2" class="bubbles"/><circle id="circle15345" cx="245.045" cy="85.964" r="3.2" class="bubbles"/><circle id="circle15347" cx="305.045" cy="85.964" r="3.2" class="bubbles"/><circle id="circle15349" cx="325.045" cy="85.964" r="3.2" class="bubbles"/><circle id="circle15351" cx="345.045" cy="85.964" r="3.2" class="bubbles"/><circle id="circle15353" cx="365.045" cy="85.964" r="3.2" class="bubbles"/><circle id="circle15355" cx="385.045" cy="85.964" r="3.2" class="bubbles"/><circle id="circle15357" cx="405.045" cy="85.964" r="3.2" class="bubbles"/><circle id="circle15359" cx="425.045" cy="85.964" r="3.2" class="bubbles"/><circle id="circle15361" cx="5.045" cy="105.964" r="3.2" class="bubbles"/><circle id="circle15363" cx="305.045" cy="105.964" r="3.2" class="bubbles"/><circle id="circle15365" cx="5.045" cy="125.964" r="3.2" class="bubbles"/><circle id="circle15367" cx="305.045" cy="125.964" r="3.2" class="bubbles"/><circle id="circle15369" cx="5.045" cy="145.964" r="3.2" class="bubbles"/><circle id="circle15371" cx="305.045" cy="145.964" r="3.2" class="bubbles"/><path id="rect1043360" d="M-208.305 147.017h725.774v13.081h-725.774z" style="fill:#ececec;fill-opacity:1;stroke:none;stroke-width:1.5"/><g id="g944882" style="display:inline;stroke:#87ffb7;stroke-width:3.59069;stroke-dasharray:none;stroke-opacity:1" transform="matrix(.97475 0 0 1.08931 235.3 -225.284)"><path id="path21173" d="M98.062 207.883c-.09-.918-.105-1.839-.112-2.76.032-2.266.07-4.53.117-6.795.043-1.744.062-3.49.064-5.234 0-.811-.003-1.622-.01-2.433 0-.96-.001-.515.006-1.334 0 0-.311-.072-.448-.122-1.34 1.615-2.285 3.245-3.39 4.658-1.582 2.01-3.625 3.678-5.216 5.682-.533.675-1.112 1.403-1.613 2.015l.181.379c1.23-.092 2.462-.13 3.694-.183 2.726-.1 5.453-.174 8.18-.26 1.189-.037 2.599-.075 3.988-.109" style="fill:none;fill-opacity:1;stroke:#87ffb7;stroke-width:3.59069;stroke-miterlimit:4;stroke-dasharray:none;stroke-opacity:1"/></g><path id="path1479" d="M-914.983 1127.69c-22.973 1.272-45.224 8.27-66.168 17.498-8.236 3.63-16.225 7.797-24.337 11.696-22.074 12.646-30.126 16.367-50.666 31.79-8.099 6.08-16.171 12.276-23.454 19.314-7.717 7.456-14.821 15.57-21.411 24.038-6.65 8.545-12.99 17.412-18.224 26.892-5.437 9.846-9.106 20.568-13.659 30.852-2.785 10.572-6.886 20.883-8.355 31.717-2.953 21.79-.34 45.956 5.468 67.035 6.3 22.874 14.61 40.655 31.594 57.764 8.728 8.792 19.635 15.113 29.453 22.67 11.463 5.896 22.545 12.6 34.389 17.689 33.43 14.363 69.535 21.708 105.6 25.17 9.876.947 19.812 1.099 29.719 1.649l.004-.072c-9.905-.549-19.84-.7-29.715-1.646-36.057-3.456-72.155-10.797-105.58-25.158-11.84-5.087-22.918-11.79-34.378-17.684-9.812-7.553-20.713-13.871-29.437-22.659-16.976-17.1-25.283-34.873-31.582-57.735-5.806-21.07-8.42-45.224-5.468-67.006 1.468-10.83 5.567-21.138 8.35-31.707 4.551-10.28 8.22-20.999 13.654-30.84 5.232-9.478 11.57-18.342 18.219-26.885 6.588-8.466 13.69-16.576 21.404-24.03 7.282-7.036 15.352-13.23 23.45-19.31 20.537-15.421 28.585-19.138 50.657-31.781 8.111-3.897 16.098-8.064 24.334-11.69 20.934-9.22 43.178-16.212 66.14-17.474v-.097z" style="fill:#000;stroke:#010101;stroke-width:1.8;stroke-dasharray:none;stroke-opacity:1"/><path id="path1483" d="M-369.606 1146.655c12.302-10.1 29.656-9.65 44.687-9.995 24.82.195 48.981 5.813 72.305 14.022 7.361 2.59 14.715 5.263 21.802 8.527 7.789 3.587 15.171 7.997 22.757 11.996 21.187 12.832 41.14 27.79 57.353 46.673 4.713 5.489 9.74 10.924 12.99 17.388 8.812 17.526 9.064 32.423 11.57 51.485-.023 9.146.576 18.315-.07 27.438-2.368 33.415-13.074 71.757-28.905 101.363-3.53 6.603-7.857 12.749-11.785 19.123-12.038 16.09-26.017 31.16-44.008 40.743-13.872 7.388-31.029 12.538-46.148 16.174-8.677 2.087-17.51 3.459-26.265 5.188-41.312 7.069-83.329 7.621-125.04 4.783-7.398-.795-14.89-1.182-22.205-2.65-.734-.147-1.467-.323-2.168-.587-.212-.079-.702-.28-.528-.425.339-.281.869-.145 1.304-.218 6.614-.164 13.267 1.587 18.208 6.22 1.69 1.584 3.037 3.501 4.556 5.252 4.66 6.788 9.365 15.83 4.99 24.076-2.754 5.19-6.458 6.85-11.15 10.155-3.113 1.342-6.093 3.05-9.338 4.026-9.133 2.749-21.27 4.104-30.584 4.588-20.469 1.062-40.648-1.042-60.963-3.177-39.991-4.932-78.986-15.575-117.066-28.485-10.43-3.914-20.923-7.897-30.651-13.392-1.53-.864-5.983-3.402-7.26-5.456-.222-.36.096-.84.144-1.259 6.617-1.181 13.86 2.247 19.133 6.04 1.557 1.12 2.921 2.485 4.382 3.727 1.15 1.497 2.697 2.761 3.449 4.493 3.916 9.024-3.318 18.672-9.99 23.887-2.497 1.951-5.351 3.395-8.026 5.092-3.44 1.446-6.787 3.14-10.32 4.339-26.454 8.979-55.397 8.408-82.916 7.85-30.324-1.618-60.696-5.204-90.193-12.629-19.224-4.839-22.977-6.725-41.312-13.404-15.792-6.418-31.468-13.422-45.506-23.216-3.15-2.197-6.025-4.76-9.037-7.141l-.055.07c3.015 2.381 5.894 4.946 9.046 7.144 14.045 9.795 29.727 16.799 45.525 23.218 18.34 6.68 22.093 8.566 41.323 13.405 29.502 7.425 59.878 11.013 90.207 12.633 27.53.561 56.487 1.134 82.952-7.848 3.539-1.2 6.89-2.896 10.334-4.344 2.68-1.701 5.541-3.147 8.042-5.103 6.718-5.252 13.944-14.938 10-24.01-.755-1.738-2.308-3.006-3.462-4.508-1.465-1.245-2.833-2.613-4.394-3.736-5.007-3.6-12.97-7.444-19.28-5.968-.038.445-.349.956-.113 1.337 1.269 2.05 5.77 4.615 7.284 5.469 9.734 5.493 20.233 9.477 30.667 13.39 38.087 12.907 77.088 23.55 117.085 28.484 20.32 2.136 40.505 4.242 60.98 3.181 9.318-.482 21.473-1.838 30.61-4.588 3.252-.978 6.237-2.69 9.355-4.034 4.72-3.325 8.424-4.982 11.188-10.205 4.382-8.278-.33-17.349-5.01-24.162-1.523-1.756-2.874-3.678-4.57-5.268-4.963-4.65-11.645-6.408-18.287-6.24-.447.132-1.025.052-1.343.393-.163.175.34.358.564.442.704.264 1.441.44 2.179.587 7.317 1.462 14.813 1.849 22.213 2.642 41.72 2.83 83.742 2.273 125.062-4.797 8.757-1.73 17.592-3.1 26.27-5.188 15.124-3.636 32.297-8.79 46.173-16.18 18.002-9.587 31.987-24.669 44.03-40.768 3.93-6.378 8.256-12.527 11.788-19.132 15.831-29.614 26.541-67.974 28.909-101.396.646-9.126.047-18.298.07-27.447-2.51-19.08-2.76-33.982-11.581-51.523-3.252-6.467-8.282-11.904-12.997-17.395-16.221-18.888-36.18-33.849-57.374-46.686-7.588-4-14.973-8.412-22.764-12.001-7.09-3.266-14.444-5.939-21.807-8.53-23.332-8.213-47.502-13.838-72.33-14.034-15.06.342-32.457-.11-44.77 10.03l.085.052z" style="fill:#000;stroke:#010101;stroke-width:1.8;stroke-dasharray:none;stroke-opacity:1"/><path id="path1485" d="M2298.971-565.094c-7.674-4.796-15.196-11.819-17.214-21.069-.702-3.218-.333-6.58-.5-9.87.86-3.423.956-7.137 2.582-10.27 4.427-8.529 13.529-15.917 21.203-21.027 10.888-7.25 22.346-12.31 34.713-16.494 6.626-2.242 13.462-3.805 20.193-5.707 28.068-6.206 56.982-8.184 85.652-6.143 16.719 1.19 22.338 2.573 38.575 5.395 20.574 5.534 41.604 12.602 58.616 25.95 7.996 6.274 9.473 9.106 15.468 16.844 3.69 6.607 5.781 9.315 7.694 16.578 2.438 9.257 1.677 18.87.529 28.229-.203 1.06-2.324 10.525-3.82 10.827-.17.034-.201-.281-.302-.422-.187-3.052 1.472-6.175 2.696-8.848 3.087-6.744 6.84-12.834 10.936-19.003 10.41-14.44 23.987-26.214 39.585-34.79 3.928-2.161 8.05-3.948 12.076-5.922 25.97-11.021 54.226-14.827 82.269-15.302 6.66-.113 13.32.143 19.981.214 27.15 1.467 54.267 5.04 80.487 12.407 15 4.214 18.237 5.872 32.368 11.414 14.328 6.67 38.077 16.905 39.44 35.648.176 2.418-.593 4.811-.89 7.217-2.502 7.727-8.08 12.776-13.818 18.112l.063.068c5.755-5.353 11.344-10.417 13.847-18.17.296-2.416 1.066-4.821.888-7.25-1.381-18.78-25.135-29.02-39.5-35.704-14.136-5.542-17.374-7.2-32.378-11.414-26.227-7.366-53.35-10.94-80.506-12.41-6.662-.07-13.325-.326-19.986-.214-28.055.474-56.322 4.28-82.303 15.306-4.028 1.975-8.153 3.763-12.084 5.924-15.61 8.582-29.197 20.366-39.616 34.816-4.1 6.172-7.857 12.268-10.947 19.016-.828 1.807-2.36 5.244-2.758 7.446-.089.494.05 1.004.076 1.505.15.14.25.46.451.42 1.48-.28 3.651-9.83 3.84-10.88 1.147-9.373 1.906-19-.538-28.272-1.917-7.273-4.013-9.986-7.71-16.602-6.004-7.746-7.482-10.58-15.49-16.86-17.022-13.353-38.065-20.422-58.65-25.959-16.24-2.821-21.863-4.205-38.586-5.394-28.679-2.04-57.6-.061-85.676 6.146-6.734 1.903-13.573 3.466-20.201 5.708-12.373 4.187-23.844 9.25-34.737 16.504-7.697 5.126-16.8 12.517-21.237 21.071-1.63 3.142-1.723 6.864-2.585 10.296.169 3.301-.2 6.673.506 9.902 2.025 9.269 9.559 16.308 17.248 21.117l.05-.085z" style="fill:#000;stroke:#010101;stroke-width:1.8;stroke-dasharray:none;stroke-opacity:1"/><path id="path1489" d="M2272.88-546.179c-2.99-8.43-2.158-17.816 1.18-26.06 1.047-2.584 2.527-4.972 3.79-7.458 11.473-16.571 28.906-26.886 47.539-33.742 4.744-1.745 9.627-3.086 14.44-4.63 5.11-1.208 10.173-2.642 15.33-3.626 18.984-3.618 39.855-5.09 59.036-2.2 3.838.578 7.594 1.609 11.391 2.413 3.096 1.224 6.327 2.152 9.289 3.672 10.614 5.445 17.302 14.94 22.458 25.305 1.353 4.079 4.238 9.025 2.79 13.486-2.198-6.198 1.656-12.197 4.77-17.27 1.593-1.866 3.044-3.863 4.778-5.598 10.37-10.375 25.193-17.757 39.017-22.163 5.92-1.887 12.016-3.171 18.023-4.757 22.795-5.257 46.086-6.782 69.386-4.754 14.135 1.23 27.035 3.24 40.092 8.888 4.505 1.95 8.454 4.99 12.68 7.486 6.142 6.841 9.028 8.074 10.954 16.992 1.937 8.968-1.872 17.39-6.626 24.639-.994.836-3.447 4.746-5.539 3.924-1.584-.623-.115-4.014.1-4.713 3.81-6.455 10.643-9.833 17.306-12.69 8.904-3.819 12.1-4.554 21.6-7.558 32.306-7.993 65.846-9.869 99.026-8.894 7.224.212 14.433.8 21.649 1.2 17.131 1.744 34.509 3.935 50.582 10.523 7.249 2.97 12.776 5.62 17.007 12.378 1.4 2.237 1.735 4.984 2.603 7.476-.137 2.479.195 5.029-.411 7.437-1.757 6.981-7.161 12.79-11.636 18.127l.072.06c4.487-5.354 9.901-11.178 11.657-18.182.606-2.42.27-4.982.405-7.473-.874-2.502-1.215-5.261-2.623-7.507-4.244-6.767-9.785-9.424-17.046-12.398-16.082-6.587-33.467-8.777-50.606-10.52-7.217-.4-14.427-.988-21.652-1.2-33.189-.974-66.738.9-99.055 8.889-9.498 3.003-12.707 3.742-21.612 7.559-6.69 2.868-13.543 6.258-17.36 12.745-.248.815-1.718 4.187 0 4.839 2.135.808 4.582-3.093 5.609-3.97 4.767-7.277 8.581-15.727 6.63-24.724-1.937-8.942-4.833-10.179-10.994-17.034-4.233-2.496-8.188-5.539-12.699-7.49-13.064-5.647-25.973-7.655-40.114-8.885-23.308-2.028-46.607-.507-69.41 4.75-6.011 1.586-12.11 2.87-18.034 4.756-13.838 4.409-28.675 11.799-39.056 22.183-1.737 1.739-3.192 3.74-4.788 5.61-2.906 4.733-7.488 11.554-4.594 17.349 1.44-4.496-1.422-9.448-2.8-13.559-5.169-10.383-11.873-19.893-22.51-25.346-2.967-1.521-6.202-2.45-9.303-3.675-3.8-.804-7.56-1.835-11.401-2.413-19.192-2.888-40.072-1.416-59.064 2.205-5.16.983-10.225 2.418-15.337 3.627-4.816 1.544-9.701 2.885-14.448 4.632-18.653 6.862-36.103 17.189-47.586 33.78-1.266 2.49-2.75 4.883-3.798 7.473-3.346 8.263-4.177 17.67-1.183 26.12l.092-.034z" style="fill:#000;stroke:#010101;stroke-width:1.8;stroke-dasharray:none;stroke-opacity:1"/><path id="path1491" d="M-316.053 1153.034c14.842 5.395 28.118 14.783 41.24 23.383 5.075 3.715 10.258 7.286 15.225 11.144 21.328 16.564 42.672 35.675 59.074 57.223 3.892 5.113 7.276 10.595 10.914 15.892 9.121 15.41 17.21 31.735 21.603 49.203 1.553 6.177 2.627 12.476 3.478 18.788 2.254 16.734 1.702 22.36 1.713 39.15-1.585 25.164-7.595 49.87-20.453 71.755-8.309 14.142-12.182 17.336-22.996 29.583-12.603 11.056-15.9 14.892-30.335 23.72-6.015 3.68-12.318 6.875-18.62 10.036-16.38 8.216-33.378 14.937-50.49 21.424-14.597 5.105-7.762 2.81-20.484 6.948l.029.087c12.723-4.142 5.887-1.846 20.484-6.955 17.115-6.492 34.115-13.216 50.499-21.433 6.305-3.163 12.61-6.359 18.628-10.039 14.441-8.831 17.743-12.673 30.35-23.733 10.82-12.255 14.695-15.45 23.008-29.6 12.864-21.898 18.877-46.616 20.462-71.793-.012-16.796.54-22.425-1.715-39.164-.85-6.316-1.925-12.62-3.48-18.8-4.393-17.475-12.489-33.807-21.614-49.222-3.64-5.3-7.025-10.783-10.92-15.899-16.407-21.553-37.755-40.665-59.087-57.237-4.967-3.86-10.15-7.433-15.226-11.15-13.128-8.606-26.408-18.001-41.255-23.405l-.031.094z" style="fill:#000;stroke:#010101;stroke-width:1.8;stroke-dasharray:none;stroke-opacity:1"/><path id="path1493" d="M-933.685 1485.951c-.89.382-1.945.503-2.67 1.145-.964.856-1.69 1.997-2.206 3.18-.604 1.386-1.564 2.963-1.099 4.403 3.566 11.046 22.695 17.729 31.549 21.917 39.802 13.885 82.112 18.018 124.039 18.775 8.829.16 17.66-.053 26.49-.079 39.334-.935 78.794-4.66 117.135-13.81 5.33-1.272 10.571-2.894 15.857-4.34 8.1-3.019 29.956-8.632 31.546-19.83.148-1.043-.188-2.1-.282-3.15-1.67-4.956-5.713-8.279-9.546-11.582-.859-.704-1.698-1.44-2.626-2.052-.374.878.192 1.292.93 1.634.497.18.566.883.646 1.353.497.819.961 1.642 1.235 2.595 1.098 2.889 2.09 5.797 3.473 8.565 1.898 3.437 4.35 6.446 7.292 9.023 4.615 3.533 9.321 6.951 13.987 10.421 16.79 13.203 35.896 21.64 55.564 29.545 26.825 10.024 55.216 15.303 83.82 16.224 6.096.196 12.2.014 18.3.02 22.873-.966 45.933-3.536 67.585-11.4 12.093-4.392 13.336-5.745 23.885-11.99 6.78-5.18 13.39-10.978 15.716-19.552 1.189-4.384.528-6.36-.038-10.615l-.094.013c.565 4.232 1.225 6.204.045 10.567-2.314 8.556-8.911 14.341-15.674 19.512-10.54 6.242-11.78 7.594-23.865 11.984-21.643 7.863-44.695 10.433-67.56 11.4-6.099-.01-12.2.175-18.295-.021-28.595-.92-56.977-6.2-83.793-16.222-19.66-7.903-38.758-16.339-55.539-29.541-4.663-3.47-9.366-6.888-13.979-10.419-2.932-2.568-5.377-5.567-7.269-8.993-1.381-2.762-2.37-5.665-3.465-8.548-.274-.947-.729-1.778-1.233-2.585-.086-.501-.169-1.231-.703-1.427-.715-.33-1.077-.635-1.024-1.458.925.609 1.76 1.342 2.615 2.042 3.815 3.285 7.84 6.59 9.514 11.517.095 1.036.43 2.078.287 3.108-1.56 11.152-23.428 16.778-31.477 19.78-5.284 1.448-10.523 3.07-15.852 4.343-38.335 9.155-77.79 12.879-117.118 13.815-8.829.026-17.66.239-26.487.079-41.916-.758-84.216-4.887-124.007-18.777-8.779-4.154-27.925-10.866-31.491-21.818-.465-1.428.49-2.994 1.086-4.372.505-1.168 1.214-2.299 2.165-3.144.719-.64 1.768-.759 2.652-1.138l-.021-.096z" style="fill:#000;stroke:#1e1e1e;stroke-width:1.8;stroke-dasharray:none;stroke-opacity:1"/><path id="path1871" d="M-362.595-1202.346c-5.902-4.893-11.799-11.654-14.109-19.1-.723-2.331-.871-4.803-1.307-7.204.114-2.62-.24-5.302.342-7.86 3.295-14.475 17.348-27.712 29.215-35.521 4.783-3.148 9.965-5.643 14.948-8.464 33.047-17.022 69.376-25.36 105.87-31.06 7.722-1.205 15.489-2.11 23.234-3.165 31.488-3.387 63.427-4.076 94.765 1.137 4.595.765 9.13 1.854 13.696 2.78 4.112 2.253 8.48 4.093 12.337 6.758 3.561 2.462 6.765 5.438 9.791 8.535 6.833 6.99 11.476 15.092 13.794 24.558.468 1.912.63 3.887.945 5.83.123 3.202.343 4.417-.07 7.365-.169 1.202-.657 2.187-.471 2.152.274-.053.429-.362.613-.572.471-.538.9-1.112 1.349-1.668 12.47-13.602 30.666-20.063 47.311-26.934 24.704-8.58 50.215-14.605 76.052-18.56 16.443-2.517 22.62-2.89 39.058-4.484 23.345-1.754 46.83-2.146 70.13.434 13.004 1.44 16.206 2.293 28.716 4.684 15.653 3.87 31.699 8.875 44.641 18.896 1.788 1.384 3.396 2.988 5.094 4.483 7.546 8.16 10.717 15.509 8.525 26.663-.393 2.002-1.064 3.939-1.597 5.909-4.19 11.892-12.33 21.683-20.604 30.972l.072.064c8.282-9.302 16.43-19.105 20.624-31.011.533-1.975 1.205-3.916 1.6-5.923 2.195-11.186-.988-18.563-8.558-26.744-1.701-1.497-3.311-3.103-5.103-4.49-12.954-10.025-29.012-15.034-44.677-18.904-12.513-2.39-15.719-3.244-28.725-4.683-23.305-2.578-46.795-2.187-70.145-.43-16.443 1.593-22.617 1.967-39.064 4.485-25.843 3.956-51.36 9.983-76.071 18.56-16.66 6.875-34.872 13.34-47.355 26.952-.45.555-.911 1.1-1.348 1.665-.16.206-.206.53-.439.648-.114.058.464-2.124.469-2.156.412-2.958.19-4.177.066-7.388-.317-1.947-.479-3.926-.95-5.843-2.325-9.48-6.978-17.595-13.824-24.596-3.032-3.1-6.24-6.08-9.808-8.544-3.865-2.67-8.24-4.512-12.36-6.767-4.568-.927-9.106-2.015-13.703-2.78-31.346-5.21-63.292-4.519-94.787-1.13-7.746 1.056-15.513 1.96-23.237 3.167-36.502 5.702-72.841 14.038-105.897 31.063-4.987 2.822-10.174 5.318-14.961 8.468-11.892 7.825-25.955 21.08-29.253 35.586-.583 2.564-.228 5.253-.341 7.88.437 2.409.588 4.888 1.313 7.227 2.315 7.459 8.222 14.232 14.13 19.136l.064-.076z" style="fill:#000;stroke:#1e1e1e;stroke-width:1.8;stroke-dasharray:none;stroke-opacity:1"/><path id="path1873" d="M-350.477-859.055c-3.029 7.1-4.245 15.132-1.25 22.507.812 1.998 2.102 3.766 3.153 5.648 1.664 1.83 3.148 3.841 4.991 5.49 14.144 12.656 37.092 17.705 54.95 22.013 41.02 8.6 82.795 12.913 124.506 16.49 44.43 3.161 89.001 4.649 133.54 3.649 9.852-.221 19.697-.675 29.545-1.012 42.547-2.217 85.152-5.549 127.198-12.666 6.776-1.147 13.505-2.563 20.257-3.845 25.04-5.569 50.815-11.588 72.999-25.086 2.701-1.643 5.18-3.629 7.77-5.443 6.736-5.503 13.319-13.081 9.841-22.295-.383-1.016-.991-1.932-1.487-2.898-2.297-2.904-1.104-1.598-3.531-3.957l-.068.07c2.415 2.344 1.228 1.047 3.513 3.932.493.959 1.098 1.869 1.48 2.877 3.472 9.172-3.1 16.718-9.8 22.196-2.587 1.813-5.062 3.797-7.76 5.44-22.174 13.498-47.941 19.515-72.972 25.085-6.751 1.282-13.478 2.698-20.254 3.846-42.042 7.12-84.644 10.454-127.188 12.672-9.848.337-19.692.791-29.543 1.012-44.537 1-89.107-.494-133.533-3.653-41.707-3.578-83.477-7.893-124.493-16.497-17.84-4.305-40.77-9.352-54.9-21.992-1.839-1.644-3.32-3.649-4.979-5.473-1.048-1.876-2.334-3.636-3.143-5.626-2.988-7.35-1.777-15.356 1.243-22.433l-.085-.051z" style="fill:#000;stroke:#1e1e1e;stroke-width:1.8;stroke-dasharray:none;stroke-opacity:1"/><path id="path1883" d="M-365.918-1203.613c-10.166-2.394-20.894 1.066-30.592 3.978-19.802 6.256-37.706 16.65-55.135 27.705-19.205 12.579-37.364 26.845-53.17 43.551-3.404 3.599-6.58 7.408-9.87 11.112-12.322 15.062-22.723 31.638-30.047 49.702-4.639 11.439-5.22 14.801-8.503 26.58-3.801 16.583-4.932 33.734-2.722 50.637 1.305 9.98 2.58 13.325 5.226 22.922 6.135 17.857 15.964 34.113 28.555 48.156 2.403 2.68 5.001 5.18 7.502 7.77 15.179 15.361 33.937 25.7 53.33 34.687 18.496 8.239 37.732 12.418 57.7 14.984 14.484 1.522 29.072 1.255 43.61 1.122v-.09c-14.535.134-29.119.4-43.598-1.122-19.96-2.564-39.186-6.74-57.674-14.976-19.383-8.98-38.132-19.314-53.304-34.668-2.499-2.588-5.096-5.086-7.498-7.765-12.582-14.032-22.405-30.277-28.537-48.121-2.645-9.59-3.919-12.935-5.224-22.906-2.21-16.893-1.08-34.033 2.718-50.606 3.28-11.775 3.861-15.134 8.497-26.569 7.32-18.055 17.717-34.625 30.034-49.68 3.289-3.703 6.463-7.51 9.866-11.108 15.802-16.7 33.956-30.963 53.157-43.537 17.422-11.05 35.32-21.44 55.114-27.691 9.675-2.904 20.378-6.357 30.52-3.978l.044-.088z" style="fill:#000;stroke:#1e1e1e;stroke-width:1.8;stroke-dasharray:none;stroke-opacity:1"/><path id="path1889" d="M236.404-1213.264c10.883-2.81 22.081-2.856 33.243-2.798 28.632.89 56.756 6.956 84.559 13.417 20.922 4.871 41.281 11.81 60.535 21.377 12.183 6.054 17.689 9.686 29.214 16.639 16.293 11.025 31.1 24.172 43.81 39.198 6.676 7.893 8.03 10.314 13.744 18.669 6.907 12.519 13.402 25.659 16.522 39.724 2.07 9.338 1.66 11.375 1.89 20.87-.997 13.046-4.02 27.313-10.282 38.94-4.429 8.224-9.844 14.889-15.408 22.364-15.514 18.675-33.824 34.95-53.527 49.093-3.817 2.74-7.755 5.306-11.633 7.96-22.808 15.188-47.732 26.664-72.688 37.786-20.832 9.284-42.398 16.651-64.382 22.642-19.473 4.963-39.366 7.992-59.118 11.595a2331.006 2331.006 0 0 0-17.638 3.311l.018.096a2254.048 2254.048 0 0 1 17.636-3.316c19.754-3.606 39.65-6.636 59.125-11.6 21.988-5.992 43.559-13.361 64.395-22.647 24.96-11.126 49.889-22.604 72.7-37.796 3.88-2.654 7.819-5.221 11.636-7.962 19.71-14.149 38.025-30.43 53.545-49.11 5.565-7.476 10.991-14.155 15.422-22.38 6.268-11.636 9.292-25.921 10.29-38.977-.232-9.505.178-11.548-1.895-20.894-3.122-14.074-9.623-27.223-16.535-39.75-5.717-8.36-7.071-10.78-13.752-18.677-12.716-15.03-27.532-28.182-43.831-39.212-11.532-6.955-17.035-10.584-29.223-16.642-19.26-9.57-39.622-16.513-60.552-21.384-27.809-6.462-55.938-12.53-84.577-13.425-11.17-.06-22.378-.013-33.27 2.795l.026.095z" style="fill:#000;stroke:#1e1e1e;stroke-width:1.8;stroke-dasharray:none;stroke-opacity:1"/><path id="path2173" d="M2977.433-847.58c-2.137-4.583-4.797-10.386-4.041-15.58.229-1.575.9-3.053 1.35-4.58.92-1.64 1.682-3.38 2.76-4.922 5.84-8.366 14.696-13.623 24.083-17.153 3.107-1.168 6.324-2.022 9.486-3.034 20.966-5.227 42.758-6.482 64.301-5.794 4.998.16 9.985.559 14.977.838 24.966 2.096 50 7.265 72.89 17.73 3.852 1.761 7.535 3.867 11.302 5.8 11.565 6.722 22.184 15.148 29.591 26.434 3.743 5.702 4.103 7.48 6.574 13.674 1.91 7.078 3.14 13.151.454 20.286-3.275 8.696-9.597 15.57-15.686 22.331-10.172 9.973-22.157 17.94-35.34 23.308-2.582 1.001-5.25 1.738-7.928 2.43-.324.084-.65.159-.972.25-.11.03-.436.134-.323.116.24-.039.472-.119.708-.178 2.37-1.304 4.863-2.019 7.512-2.494 7.137-.535 14.393-.615 21.519.196 5.562.633 8.43 1.394 13.934 2.576 16.509 5.143 31.274 14.68 42.675 27.713 2.23 2.55 4.148 5.356 6.222 8.034 9.236 17.588 14.175 37.146 13.286 57.069-.15 3.379-.702 6.729-1.053 10.093-1.93 11.69-7.142 22.309-15.034 31.139-4.776 5.343-6.525 6.18-12.303 10.48-13.917 9.38-30.138 14.093-46.429 17.328-8.308 1.594-16.716 2.56-25.16 2.999-1.71-.142-3.749.046-5.299-.879-.295-.283.98-.225 1.21-.226 3.522.174 6.938 1.275 10.261 2.372 3.697 1.27 7.117 3.181 10.371 5.324 1.244.818 2.541 1.58 3.656 2.566 3.39 2.999 6.039 6.594 8.87 10.09 6.384 8.27 11.277 17.493 14.658 27.375.837 2.446 1.644 4.915 2.184 7.444.566 2.65.75 5.368 1.125 8.052.423 10.07-.849 20.564-6.215 29.35-3.722 6.093-6.761 8.621-11.757 13.773-15.964 13.387-34.58 23.22-53.864 30.92-4.145 1.655-8.367 3.11-12.55 4.664-23.782 8.33-48.65 12.741-73.633 15.516-5.733.637-11.488 1.071-17.232 1.607-23.023 1.378-46.714 1.822-69.187-4.272-3.127-.848-6.154-2.032-9.23-3.047-11.803-5.123-19.444-10.567-25.328-22.034-.747-1.837-1.303-3.738-1.377-5.727-.013-.349-.122-1.195.378-1.197 1.676 1.574 1.792 3.826 1.697 5.972-1.153 5.817-4.688 10.984-8.903 15.07-1.642 1.593-3.452 3-5.178 4.5-6.73 4.997-13.738 9.987-21.485 13.326-11.93 5.14-24.713 7.462-37.363 10.002-18.245 3.65-34.823 3.665-53.013-.431-11.214-2.526-14.575-4.134-25.126-8.01-12.766-5.659-25.833-12.625-34.462-24.01-1.03-1.36-1.837-2.876-2.755-4.314-1.788-4.013-4.547-9.69-1.652-13.86 2.52-1.304 2.795 1.789 2.775 3.577-1.658 7.418-7.004 13.28-11.825 18.88-6.979 7.738-14.805 14.89-23.802 20.236-2.009 1.193-4.123 2.2-6.185 3.3-12.845 6.004-26.589 9.972-40.498 12.624-3.344.638-6.717 1.117-10.075 1.675-17.009 2.53-34.238 3.599-51.431 3.404-4.673-.053-9.357-.037-14.011-.452-5.384-.48-10.708-1.487-16.062-2.23-15.141-2.857-30.192-6.577-44.58-12.167-5.679-2.206-15.078-6.437-20.3-10.075-2.429-1.69-4.46-3.89-6.689-5.834-4.093-5.183-7.711-10.74-6.273-17.728 1.217-5.911 5.403-9.467 9.685-13.126 3.3-2.209 6.834-4.099 10.74-4.965.851-.189 2.564-.556 3.496.065.223.149.227.485.34.728-.136.323-.2.687-.409.968-2.687 3.61-11.56 5.93-15.526 7.185-16.189 4.351-32.984 5.244-49.661 5.518-14.574-.536-29.19-2.231-43.176-6.531-7.883-2.424-10.835-3.982-18.3-7.275-5.536-2.928-10.845-5.46-15.9-9.202-7.275-5.383-13.675-12.265-18.808-19.698-1.463-2.12-2.685-4.397-4.028-6.595-.887-2.084-2.416-4.001-2.662-6.253-.28-2.579.368-5.222 1.141-7.698 2.671-8.553 9.126-15.793 16.04-21.216 2.175-1.707 4.617-3.042 6.925-4.563 4.955-2.848 10.194-5.14 15.744-6.522 1.949-.486 4.05-.985 3.541-.301-3.134.973-6.693.054-9.772-.726-3.59-.91-7.986-2.34-11.466-3.423-11.218-3.776-22.48-7.736-33.058-13.105-2.02-1.025-3.976-2.172-5.964-3.258-9.005-5.103-17.471-11.36-22.8-20.435-.968-1.648-1.704-3.422-2.556-5.132-.58-1.884-1.317-3.726-1.742-5.651-2.196-9.942-.142-20.394 3.407-29.764 1.359-3.59 3.119-7.014 4.678-10.521 2.006-3.52 3.736-7.211 6.019-10.557 2.567-3.764 5.494-7.278 8.489-10.711 8.056-9.236 17.405-17.525 28.08-23.636 2.718-1.555 5.65-2.703 8.475-4.055 7.597-2.705 16.243-5.553 24.312-3.044-4.32-1.813-9.517-4.66-13.922-7.104-6.184-3.623-12.502-7.253-17.907-12.017-3.865-3.407-5.535-5.52-9-9.399-5.844-7.747-13.014-15.49-15.756-25.07-2.716-9.486-1.548-11.453-.61-21.362 1.147-3.778 1.959-7.673 3.441-11.332 4.865-12.004 12.898-22.014 23.328-29.66 10.926-8.01 18.927-11.238 31.12-17.223 6.374-2.419 12.669-5.059 19.123-7.256 11.975-4.075 27.51-8.282 39.892-10.995 10.745-2.354 25.793-4.994 36.88-5.825 5.879-.442 11.788-.293 17.683-.439 22.666 1.733 45.935 5.667 65.982 17.02 1.96 1.11 3.781 2.445 5.672 3.668 3.333 2.944 7.811 5.507 9.934 9.621.04.042.191.839-.05.188-.47-1.261-.656-2.635-.918-3.947-1.07-7.27-1.4-15.648 2.892-22.063 1.5-2.242 3.573-4.043 5.36-6.065 2.504-1.873 4.798-4.067 7.513-5.62 7.133-4.081 16.554-7.076 24.377-9.101 11.312-2.929 20.165-4.237 31.942-5.18 5.992-.48 12.011-.531 18.016-.797 21.543-.036 43.191 2.064 63.866 8.38 4.106 1.254 8.22 2.56 12.13 4.334 3.71 1.684 7.098 4 10.648 6 2.925 2.178 6.01 4.158 8.776 6.536 6.694 5.753 13.225 13.613 14.998 22.527.204 1.027.157 2.088.236 3.132-.14 2.014-1.143 4.888-3.515 2.913-.437-.365-.86-.779-1.134-1.277-.389-.704-.548-1.511-.821-2.267-.097-.925-.313-1.846-.29-2.776.234-9.679 9.289-14.704 16.267-19.546 18.062-8.754 37.423-15.004 57.3-18.006 15.738-2.377 22.685-2.166 38.54-2.722 20.796-.06 41.796 2.768 60.904 11.36 7.91 3.557 9.322 4.972 16.019 9.668 5.09 4.079 8.926 9.13 11.849 14.894l.086-.043c-2.933-5.776-6.78-10.838-11.884-14.923-6.706-4.7-8.119-6.115-16.04-9.673-19.12-8.591-40.13-11.419-60.937-11.358-15.849.557-22.818.347-38.551 2.722-19.89 3.001-39.26 9.255-57.336 18.009-7.013 4.864-16.085 9.903-16.312 19.628-.022.938.196 1.866.294 2.8.28.766.443 1.585.84 2.298.281.507.71.93 1.16 1.298 2.453 2.002 3.52-.92 3.657-3.007-.08-1.05-.035-2.117-.241-3.15-1.784-8.931-8.327-16.805-15.038-22.57-2.77-2.379-5.857-4.36-8.786-6.54-3.554-2.002-6.947-4.32-10.661-6.004-3.913-1.775-8.028-3.08-12.137-4.335-20.683-6.315-42.34-8.414-63.89-8.378-6.007.266-12.027.318-18.021.797-11.794.943-20.63 2.247-31.958 5.178-7.83 2.027-17.265 5.024-24.405 9.11-2.72 1.555-5.019 3.753-7.528 5.63-1.792 2.029-3.871 3.837-5.376 6.087-4.3 6.432-3.976 14.83-2.905 22.12.138.689 1.182 5.79 1.153 3.694-2.14-4.126-6.618-6.703-9.973-9.653-1.894-1.223-3.719-2.56-5.681-3.67-20.064-11.35-43.345-15.283-66.025-17.017-5.897.147-11.808-.003-17.69.44-11.085.832-26.145 3.475-36.888 5.83-12.382 2.713-27.925 6.922-39.9 10.998-6.457 2.197-12.754 4.837-19.131 7.255-12.192 5.983-20.213 9.221-31.14 17.23-10.444 7.655-18.485 17.677-23.354 29.697-1.485 3.664-2.298 7.565-3.446 11.348-.939 9.932-2.108 11.898.613 21.405 2.745 9.59 9.92 17.341 15.77 25.096 3.466 3.88 5.143 6.001 9.01 9.41 5.409 4.768 11.732 8.4 17.92 12.026 4.226 2.347 4.129 2.349 8.203 4.411 1.814.918 3.88 2.195 5.907 2.642.055.013-.077-.083-.114-.124-8.098-2.501-16.756.335-24.38 3.059-2.827 1.354-5.762 2.505-8.483 4.063-10.68 6.118-20.036 14.414-28.098 23.656-2.997 3.436-5.927 6.953-8.497 10.72-2.285 3.349-4.016 7.043-6.023 10.564-1.562 3.51-3.324 6.938-4.685 10.53-3.557 9.389-5.613 19.857-3.412 29.817.427 1.93 1.165 3.776 1.748 5.665.854 1.714 1.592 3.491 2.562 5.142 5.338 9.087 13.815 15.354 22.833 20.464 1.99 1.086 3.948 2.234 5.97 3.26 10.582 5.37 21.847 9.332 33.069 13.11 4.973 1.55 14.88 5.286 20.23 4.485.393-.059.752-.259 1.128-.388.102-.635.192-.5-1.036-.334-1.985.27-4.825 1.034-6.58 1.644-5.569 1.936-6.24 2.55-11.811 5.403-2.312 1.525-4.758 2.863-6.937 4.573-6.924 5.433-13.401 12.696-16.068 21.268-.775 2.492-1.42 5.152-1.136 7.746.247 2.257 1.78 4.177 2.67 6.265 1.344 2.2 2.568 4.48 4.034 6.602 5.14 7.44 11.548 14.33 18.83 19.718 5.057 3.743 10.376 6.28 15.912 9.207 7.472 3.296 10.424 4.854 18.314 7.279 13.994 4.3 28.617 5.996 43.199 6.535 16.685-.274 33.49-1.165 49.687-5.517 3.885-1.229 13.011-3.631 15.59-7.236.218-.305.271-.7.407-1.049-.135-.26-.16-.618-.404-.779-.946-.622-2.683-.255-3.549-.062-3.918.872-7.464 2.768-10.773 4.987-4.304 3.681-8.5 7.249-9.717 13.196-1.436 7.015 2.195 12.593 6.308 17.794 2.235 1.948 4.27 4.15 6.703 5.843 5.226 3.637 14.635 7.871 20.317 10.077 14.394 5.588 29.45 9.308 44.596 12.168 5.356.744 10.683 1.752 16.07 2.233 4.655.415 9.34.399 14.014.452 17.197.195 34.432-.872 51.445-3.4 3.36-.558 6.733-1.037 10.079-1.675 13.917-2.653 27.67-6.621 40.523-12.63 2.064-1.1 4.18-2.108 6.192-3.304 9.004-5.35 16.837-12.507 23.822-20.25 4.836-5.618 10.199-11.497 11.852-18.94.017-1.89-.343-5.046-2.953-3.635-2.904 4.222-.167 9.906 1.654 13.967.922 1.442 1.73 2.962 2.765 4.325 8.641 11.393 21.721 18.365 34.502 24.026 10.558 3.877 13.92 5.486 25.14 8.012 18.201 4.098 34.788 4.087 53.044.432 12.657-2.541 25.45-4.863 37.387-10.004 7.755-3.34 14.768-8.336 21.504-13.336 1.73-1.501 3.543-2.911 5.188-4.505 4.231-4.102 7.778-9.289 8.932-15.13.093-2.147 0-4.584-1.81-6.073-1.433.339.622 6.36.93 7.065 5.9 11.488 13.555 16.944 25.384 22.073 3.08 1.016 6.11 2.2 9.24 3.048 22.482 6.09 46.18 5.645 69.212 4.265 5.745-.536 11.5-.97 17.235-1.607 24.988-2.775 49.863-7.181 73.65-15.515 4.186-1.555 8.409-3.01 12.555-4.666 19.295-7.704 37.92-17.543 53.894-30.935 5.003-5.158 8.05-7.691 11.776-13.794 5.375-8.802 6.646-19.315 6.222-29.402-.376-2.688-.56-5.41-1.128-8.064-.54-2.532-1.348-5.003-2.186-7.452-3.385-9.89-8.282-19.122-14.672-27.4-2.838-3.504-5.488-7.102-8.885-10.11-1.116-.987-2.416-1.749-3.66-2.569-3.261-2.146-6.688-4.062-10.391-5.334-3.334-1.1-6.759-2.206-10.292-2.38-.251.002-1.717-.043-1.26.411 1.573.928 3.62.755 5.354.89 8.449-.443 16.861-1.41 25.174-3.007 16.303-3.24 32.536-7.959 46.464-17.345 5.788-4.308 7.536-5.144 12.32-10.497 7.901-8.844 13.119-19.478 15.05-31.185.35-3.368.902-6.72 1.052-10.103.887-19.942-4.06-39.517-13.303-57.12-2.077-2.681-3.997-5.49-6.23-8.042-11.412-13.044-26.193-22.59-42.716-27.74-5.505-1.183-8.384-1.947-13.947-2.58-7.133-.813-14.397-.731-21.542-.2-2.656.475-5.157 1.19-7.532 2.497-.213.121-.444.214-.638.363-.353.272.855-.252 1.286-.364 2.681-.696 5.353-1.435 7.94-2.439 13.193-5.376 25.188-13.352 35.368-23.335 6.1-6.772 12.432-13.66 15.71-22.37 2.691-7.155 1.458-13.243-.459-20.34-2.476-6.202-2.836-7.982-6.587-13.693-7.417-11.295-18.046-19.728-29.623-26.455-3.77-1.933-7.456-4.04-11.309-5.8-22.9-10.467-47.943-15.638-72.917-17.736-4.994-.28-9.982-.678-14.98-.838-21.552-.69-43.353.565-64.329 5.792-3.165 1.012-6.385 1.866-9.495 3.035-9.405 3.536-18.279 8.806-24.129 17.189-1.08 1.548-1.845 3.294-2.768 4.94-.452 1.537-1.125 3.025-1.355 4.61-.756 5.21 1.91 11.03 4.052 15.63l.083-.052z" style="fill:#000;stroke:#1e1e1e;stroke-width:1.8;stroke-dasharray:none;stroke-opacity:1"/><path id="path2491" d="M-392.631 268.587c-6.421 5.53-19.347 10.5-25.045 12.275-7.57 2.36-31.503 6.192-54.12.68-38.231-9.32-73.426-40.066-58.97-77.995 6.586-17.277 24.546-23.625 36.437-21.772" style="fill:none;stroke:#010101;stroke-width:1.8;stroke-dasharray:none;stroke-opacity:1"/><path id="path2467" d="M1740.317-1322.959c-3.09-5.352-4.218-11.457-3.206-17.587.324-1.964.67-3.967 1.475-5.787 2.988-6.748 8.057-12.383 14.471-16.219 9.235-5.523 19.114-6.952 29.483-8.698 22.946-1.767 46.04.112 68.68 4.026 4.294.743 8.557 1.66 12.835 2.49 18.453 3.945 36.767 9.037 53.78 17.344 2.9 1.416 5.699 3.028 8.548 4.542 2.568 1.627 5.246 3.092 7.703 4.881 8.892 6.474 16.775 15.176 21.827 24.987 1.019 1.98 1.756 4.091 2.635 6.137.486 1.95 1.215 3.855 1.457 5.85 1.022 8.429-2.19 16.934-6.267 24.124-1.095 1.932-2.375 3.753-3.562 5.63-7.146 9.676-16.318 17.58-26.126 24.445-2.461 1.478-4.818 3.307-7.537 4.316.227-.145-.28.12-.246.044.385-.87 2.251-.835 2.927-.92 5.353-.39 10.77.76 15.944 2.024 2.102.513 4.303.8 6.258 1.726 3.118 1.476 5.88 3.608 8.82 5.412 3.53 4.676 7.43 9.096 10.592 14.03 11.334 17.682 19.302 37.797 23.493 58.365 3.041 14.924 2.413 19.21 2.486 33.73-1.585 13.136-3.887 22.083-12.495 32.335-6.464 7.698-13.678 11.959-22.184 16.877-10.485 5.66-22.063 8.456-33.647 10.81-2.643.414-5.275 1.086-7.955 1.247-.046 0-.183-.012-.138 0 1.022.227 2.208.034 3.254.15 5.152.571 9.49 3.825 13.397 6.99 7.053 5.943 11.663 13.22 15.722 21.394 3.592 7.859 4.529 16.85 1.465 25.08-.629 1.688-1.545 3.255-2.317 4.882-6.995 11.478-17.918 19.504-29.485 26.004-3.94 2.213-8.04 4.126-12.06 6.19a362.904 362.904 0 0 1-52.999 20.022c-9.745 2.832-13.457 3.51-23.215 5.697-15.127 3.533-30.82 2.98-45.865-.805-9.25-2.327-12.893-4.274-21.54-7.97-10.685-4.775-20.438-11.117-29.512-18.439-.316-.2-.575-.562-.947-.6-.65-.067-.599 1.176-.753 1.811-.667 2.747-1.715 5.041-3.035 7.537-1.411 1.922-3.115 4.562-5.125 5.946-7.106 4.892-18.387 6.335-26.696 7.625-18.425 2.183-36.96.748-55.387-.518-18.919-1.763-37.967-3.337-56.608-7.196-3.416-.707-6.79-1.61-10.183-2.414-9.956-3.018-20.445-5.54-29.442-11.006-3.04-1.847-4.086-3.007-6.56-5.288-1.12-1.388-2.543-2.795-2.937-4.618-.032-.147.017-.604.015-.453-.013 1.174.015.575-.645 2.233-.444.766-.813 1.58-1.33 2.3-6.003 8.34-16.796 15.357-25.171 21.092-2.792 1.649-5.51 3.43-8.375 4.946-7.813 4.134-15.115 7.12-23.465 10.157-8.222 2.99-19.313 6.475-27.8 8.607-4.993 1.255-10.056 2.217-15.084 3.325-19.306 3.481-38.897 5.485-58.523 5.608-11.224.07-13.878-.304-24.882-1.042-13.611-1.154-26.912-4.223-38.905-10.95-6.713-3.765-7.493-4.93-13.102-9.82-8.32-9.123-11.663-17.79-12.712-29.867.107-3.919.122-8.069 1.456-11.818.01-.103.136-.319.033-.308-.393.043-.975 1.203-1.181 1.44-.345.394-.968.929-1.343 1.266-4.566 2.638-9.69 4.189-14.635 5.956-12.365 4.238-25.164 6.887-38.055 8.897-10.543 1.391-21.184 2.234-31.826 1.92-7.133-.21-8.96-.57-16.044-1.381-10.523-1.724-20.928-4.316-30.871-8.203-6.431-2.514-8.645-3.758-14.851-6.795-9.1-5.014-18.093-10.711-25.034-18.573-4.254-4.818-4.558-6.032-7.658-11.55-.777-2.048-1.703-4.044-2.331-6.142-2.246-7.501-3.038-16.068-.564-23.617.545-1.664 1.413-3.205 2.12-4.808.958-1.409 1.785-2.916 2.874-4.226 4.35-5.23 10.696-8.598 17.133-10.506 1.493-.442 3.037-.696 4.555-1.044 5.94-1.103 12.02-.888 17.98-.074.233.06.942.185.7.178-3.057-.087-8.5-2.098-11.396-3-12.17-4.314-23.36-10.862-34.287-17.645-8.119-5.402-14.652-12.841-19.215-21.46-2.672-5.046-3.424-7.95-5.258-13.328-3.423-11.443-4.015-23.48-2.104-35.259.4-2.468 1.011-4.897 1.517-7.345 3.146-12.138 8.174-24.17 16.772-33.528 1.862-2.025 3.996-3.782 5.994-5.674 8.192-6.649 17.495-11.74 27.53-15 4.23-1.375 6.538-1.737 10.742-2.594.854.251 5.596-1.262 6.561-.266.093.096-.245.141-.379.135-.615-.027-1.235-.08-1.832-.233-1.002-.256-1.96-.656-2.94-.984-9.355-5.372-17.811-12.638-24.194-21.38-1.271-1.741-2.357-3.61-3.535-5.416-1.303-2.684-5.382-10.05-4.556-13.14 2.496-9.337 14.212-20.38 20.468-25.95 13.125-11.684 19.108-14.565 33.893-23.814 10.276-5.133 22.607-11.999 33.904-14.994 6.289-1.668 12.788-2.502 19.26-3.164 12.989-1.327 25.015-.948 37.95.576 5.602.66 11.124 1.876 16.686 2.814 4.707 1.21 9.478 2.196 14.121 3.63 11.827 3.652 24.308 9.264 33.715 17.495.29.26.863 1.169.872.78.015-.643-.626-1.128-.85-1.73-.381-1.02-.74-2.058-.96-3.125-1.218-5.873-.187-9.827 1.153-15.547.847-1.927 1.412-4.003 2.54-5.78 3.004-4.723 7.608-8.828 12.042-12.1 2.718-2.007 5.49-3.987 8.506-5.508 9.265-4.672 17.523-6.641 27.458-9.627 20.676-5.232 42.137-7.528 63.38-4.87 4.789.6 9.58 1.338 14.253 2.546 4.387 1.135 8.56 2.973 12.841 4.459 12.816 5.767 24.257 13.938 32.72 25.252 3.515 4.7 4.21 6.566 6.743 11.576 1.452 3.89 4.764 11.68-.187 14.748-.534.331-1.181.428-1.772.641-.675.028-1.359.195-2.025.083-3.286-.55-5.543-3.774-5.522-7 .01-1.041.339-2.054.508-3.08.499-1.126.879-2.312 1.496-3.377 4.71-8.13 13.32-13.14 21.146-17.749 14.617-8.025 30.776-12.355 46.879-16.24 20.044-4.545 40.52-5.805 61.004-6.037 20.587.555 41.18 2.857 61.26 7.514 3.895.903 7.739 2.01 11.608 3.014 15.504 4.857 30.846 11.304 43.93 21.118 1.638 1.229 3.148 2.62 4.722 3.93 2.369 2.462 5.283 4.143 5.902 8.824.085.639-.173 1.277-.26 1.916" style="fill:none;stroke:#010101;stroke-width:1.8;stroke-dasharray:none;stroke-opacity:1"/><path id="path3254" d="M1508.338-742.468c-11.307-4.146-1.932-17.795 4.511-22.564 21.866-16.184 48.749-23.559 75.104-27.71 41.902-6.6 85.715-3.859 126.012 9.72 16.834 5.672 34.033 13.552 45.791 27.271 1.357 1.583 1.977 4.016 1.255 6.116" style="fill:none;stroke:#010101;stroke-width:1.8;stroke-dasharray:none;stroke-opacity:1"/><path id="path3256" d="M1332.496-743.487c-4.327-8.515-2.69-19.452 2.465-27.059 8.726-12.877 23.88-19.427 38.519-23.742 28.444-8.384 59.313-12.342 88.174-4.482 21.61 5.884 41.814 20.545 50.96 41.603 2.192 5.047 4.477 15.29-4.276 14.7" style="fill:none;stroke:#010101;stroke-width:1.8;stroke-dasharray:none;stroke-opacity:1"/><path id="path3258" d="M1158.684-659.706c-8.034-1.393-14.41-7.377-20.24-12.702-7.898-7.216-16.788-16.26-16.912-27.109-.121-10.568 10.617-17.966 17.99-24.961 17.69-16.784 39.247-29.172 61.752-38.255 18.055-7.287 38.236-7.908 57.45-6.302 24.542 2.05 50.004 7.535 70.176 22.522 1.203.894 2.552 2.27 3.596 3.026" style="fill:none;stroke:#010101;stroke-width:1.8;stroke-dasharray:none;stroke-opacity:1"/><path id="path3260" d="M1162.208-504.742c-14.233-2.46-26.98-9.977-39.505-16.868-14.266-7.848-25.126-21.108-30.01-36.655-7.385-23.516-3.424-50.072 9.738-70.562 9.93-15.459 27.07-25.47 44.71-29.645 3.798-.899 8.084-2.16 11.922-1.369" style="fill:none;stroke:#010101;stroke-width:1.8;stroke-dasharray:none;stroke-opacity:1"/><path id="path3262" d="M1301.238-427.48c-4.396 5.53-11.925 6.93-18.32 9.054-27.378 9.095-57.047 13.334-85.75 8.88-24.166-3.75-48.14-13.26-66.374-29.875-12.316-11.223-19.333-29.963-13.487-46.07 6.297-17.35 27.707-22.16 44.2-19.429" style="fill:none;stroke:#010101;stroke-width:1.8;stroke-dasharray:none;stroke-opacity:1"/><path id="path3264" d="M1549.743-421.944c-2.92 8.903-11.618 14.442-18.806 19.872-22.01 16.628-48.896 25.333-75.51 31.181-33.831 7.435-69.284 10.177-103.598 4.478-20.22-3.359-41.834-14.256-49.162-34.725-2.953-8.248-4.064-17.523-1.463-26.034" style="fill:none;stroke:#010101;stroke-width:1.8;stroke-dasharray:none;stroke-opacity:1"/><path id="path3266" d="M1746.453-413.37c-1.81 5.332-3.788 11.91-8.912 15.294-9.566 6.318-21.573 7.33-32.746 8.217-26.233 2.085-52.553-1.19-78.632-4.025-21.394-2.326-42.976-6.338-62.62-15.341-5.549-2.543-11.949-6.593-13.8-12.719" style="fill:none;stroke:#010101;stroke-width:1.8;stroke-dasharray:none;stroke-opacity:1"/><path id="path3268" d="M1930.555-501.964c12.157.072 21.035 10.51 27.475 19.74 7.765 11.126 11.653 26.602 4.046 38.756-12.845 20.523-36.351 30.415-57.76 39.336-23.74 9.89-48.608 18.361-74.309 20.718-30.036 2.754-59.52-10.84-82.606-29.355" style="fill:none;stroke:#010101;stroke-width:1.8;stroke-dasharray:none;stroke-opacity:1"/><path id="path3270" d="M1936.455-677.599c5.524-2.37 12.136-.104 17.898.869 6.556 1.107 13.125 4.102 17.39 9.116 18.659 21.939 29.543 49.808 34.099 78.063 1.588 9.855 1.553 19.997.663 29.909-1.318 14.691-9.155 28.39-20.985 37.218-12.232 9.128-26.514 15.115-41.446 18.07-4.44.878-8.87 1.952-13.38 2.392" style="fill:none;stroke:#010101;stroke-width:1.8;stroke-dasharray:none;stroke-opacity:1"/><path id="path3272" d="M1760.505-758.123c-7.32-12-2.716-28.168 8.193-36.39 14.538-10.957 33.638-12.625 51.257-12.568 35.144.115 70.392 6.286 103.43 18.235 20.453 7.397 40.566 19.35 51.735 38.876 5.687 9.94 6.622 21.945 1.649 32.32-8.193 17.09-21.842 32.478-39.065 39.593l-1.003.414" style="fill:none;stroke:#010101;stroke-width:1.8;stroke-dasharray:none;stroke-opacity:1"/><path id="path4963" d="M-757.058 1010.962c-3.232 12.433-21.495 26.426-44.703 31.418-17.54 3.773-40.167 1.466-54.898-7.08-10.103-5.86-15.657-15.46-15.77-21.127-.044-2.188.205-4.371 1.929-6.154" style="fill:none;stroke:#010101;stroke-width:1.8;stroke-dasharray:none;stroke-opacity:1"/><path id="path5225" d="M-1039.182-203.41c-11.307-4.146-1.932-17.795 4.511-22.564 21.866-16.185 48.748-23.56 75.103-27.71 41.903-6.6 85.447-4.279 126.012 8.476 18.699 5.88 34.655 14.381 46.206 26.03 1.468 1.48 5.083 5.465 4.361 7.565" style="fill:none;stroke:#010101;stroke-width:1.8;stroke-dasharray:none;stroke-opacity:1"/><path id="path5227" d="M-1217.368-206.773c-4.326-8.515-2.689-19.452 2.466-27.058 8.726-12.877 23.88-19.428 38.519-23.743 28.444-8.384 59.313-12.341 88.174-4.482 21.61 5.885 41.814 20.546 50.96 41.603 2.191 5.047 4.477 15.29-4.276 14.7" style="fill:none;stroke:#010101;stroke-width:1.8;stroke-dasharray:none;stroke-opacity:1"/><path id="path5229" d="M-1391.18-122.992c-8.033-1.392-14.41-7.376-20.238-12.701-7.9-7.217-16.789-16.26-16.913-27.11-.122-10.568 10.617-17.966 17.99-24.96 17.69-16.784 39.246-29.172 61.751-38.255 18.056-7.287 38.236-7.909 57.45-6.303 24.543 2.051 50.005 7.536 70.177 22.523 1.202.893 2.552 2.27 3.595 3.025" style="fill:none;stroke:#010101;stroke-width:1.8;stroke-dasharray:none;stroke-opacity:1"/><path id="path5231" d="M-1387.69 31.972c-13.317-2.46-21.409-4.12-33.128-11.01-13.348-7.848-27.347-26.965-31.916-42.513-6.911-23.516-3.205-50.072 9.11-70.562 9.293-15.459 25.33-25.47 41.836-29.645 3.554-.898 7.564-2.16 11.156-1.368" style="fill:none;stroke:#010101;stroke-width:1.8;stroke-dasharray:none;stroke-opacity:1"/><path id="path5233" d="M-945.206 114.062c-.204 7.58-5.395 14.04-10.553 18.664-15.796 14.157-32.781 23.136-51.984 27.512-24.49 5.582-53.67 5.79-74.977-1.273-12.867-4.266-30.524-15.141-36.98-27.937-2.132-4.226-4.268-9.737-3.544-14.675" style="fill:none;stroke:#010101;stroke-width:1.8;stroke-dasharray:none;stroke-opacity:1"/><path id="path5235" d="M-791.95 124.018c-4.4 9.888-9.571 14.963-17.005 19.612-19.202 12.011-42.397 15.034-65.987 13.705-23.777-1.34-45.995-9.057-61.562-22.657-3.695-3.228-12.783-12.758-9.177-19.957" style="fill:none;stroke:#010101;stroke-width:1.8;stroke-dasharray:none;stroke-opacity:1"/><path id="path5237" d="M-625.983 33.872c9.084-5.044 28.71 5.817 34.026 20.618 13.253 36.894-20.71 66.602-45.273 81.02-19.97 11.724-51.4 22.419-83.317 24.82-29.704 2.233-80.204-5.777-70.388-36.385" style="fill:none;stroke:#010101;stroke-width:1.8;stroke-dasharray:none;stroke-opacity:1"/><path id="path5239" d="M-625.699-140.591c18.876-.707 35.559 12.3 45.588 24.82 21.422 26.74 26.338 63.707 19.617 94.337-6.355 28.964-21.084 43.342-42.078 52.551-3.86 1.694-19.407 4.66-27.102 3.05" style="fill:none;stroke:#010101;stroke-width:1.8;stroke-dasharray:none;stroke-opacity:1"/><path id="path5241" d="M-780.283-207.716c-9.225-7.123-5.75-22.697 3.907-30.592 12.76-10.432 30.44-14.603 47.25-15.091 31.312-.91 59.04 1.947 93.98 21.224 26.023 14.357 44.306 43.316 36.14 66.27-5.607 15.762-19.39 25.353-27.903 25.09" style="fill:none;stroke:#010101;stroke-width:1.8;stroke-dasharray:none;stroke-opacity:1"/><path id="path5243" d="M-1122.383 117.324c12.207 19.353-17.897 38.102-65.548 34.33-34.48-2.728-75.712-24.539-52.21-44.506" style="fill:none;stroke:#010101;stroke-width:1.8;stroke-dasharray:none;stroke-opacity:1"/><path id="path5245" d="M-1242.292 114.184c-3.781 8.378-12.377 19.543-26.132 26.795-11.966 6.309-36.082 17.69-70.819 16.601-35.88-1.124-86.333-22.986-92.925-64.17-4.075-25.459 17.883-54.465 39.085-60.507" style="fill:none;stroke:#010101;stroke-width:1.8;stroke-dasharray:none;stroke-opacity:1"/><path id="path5518" d="M-1082.259 318.475c-11.307-4.146-1.931-17.795 4.512-22.564 21.865-16.184 48.748-23.559 75.103-27.71 41.902-6.6 85.447-4.278 126.012 8.477 18.699 5.88 34.655 14.381 46.206 26.029 1.468 1.48 5.083 5.465 4.361 7.566" style="fill:none;stroke:#010101;stroke-width:1.8;stroke-dasharray:none;stroke-opacity:1"/><path id="path5520" d="M-1260.444 315.113c-4.327-8.515-2.689-19.452 2.466-27.059 8.726-12.877 23.879-19.427 38.518-23.742 28.445-8.384 59.313-12.342 88.174-4.482 21.61 5.884 41.814 20.545 50.96 41.603 2.192 5.047 4.478 15.29-4.276 14.7" style="fill:none;stroke:#010101;stroke-width:1.8;stroke-dasharray:none;stroke-opacity:1"/><path id="path5522" d="M-1434.255 398.894c-8.034-1.393-14.411-7.377-20.24-12.702-7.899-7.216-16.788-16.26-16.913-27.109-.12-10.568 10.618-17.966 17.99-24.961 17.69-16.784 39.247-29.172 61.752-38.255 18.056-7.287 38.236-7.908 57.45-6.302 24.543 2.05 50.005 7.535 70.177 22.522 1.202.894 2.552 2.27 3.595 3.026" style="fill:none;stroke:#010101;stroke-width:1.8;stroke-dasharray:none;stroke-opacity:1"/><path id="path5524" d="M-1437.494 556.052c-7.617 2.988-21.301-.271-30.231-6.918-12.924-9.62-20.798-22.497-24.59-38.27-5.635-23.438-1.68-49.367 10.497-71.941 9.474-17.563 25.458-32.83 37.884-38.179 3.212-1.382 6.903-2.973 10.18-2.54" style="fill:none;stroke:#010101;stroke-width:1.8;stroke-dasharray:none;stroke-opacity:1"/><path id="path5526" d="M-1165.46 639.21c12.208 19.352-17.896 38.102-65.547 34.33-34.48-2.729-75.712-24.539-52.211-44.506" style="fill:none;stroke:#010101;stroke-width:1.8;stroke-dasharray:none;stroke-opacity:1"/><path id="path5528" d="M-1285.368 636.07c-3.781 8.377-12.377 19.543-26.132 26.795-11.966 6.308-36.082 17.69-70.82 16.6-35.88-1.123-86.332-22.985-92.924-64.17-4.075-25.458 17.882-54.464 39.085-60.507" style="fill:none;stroke:#010101;stroke-width:1.8;stroke-dasharray:none;stroke-opacity:1"/><path id="path6084" d="M-1216.732 767.774c-6.377-5.88-2.69-19.452 2.465-27.059 8.726-12.877 26.482-23.314 40.862-28.428 25.223-8.97 59.02-8.534 85.831.204 21.294 6.94 41.814 20.545 50.96 41.603 2.192 5.047 4.477 15.29-4.276 14.7" style="fill:none;stroke:#010101;stroke-width:1.8;stroke-dasharray:none;stroke-opacity:1"/><path id="path6086" d="M-1390.544 851.555c-8.034-1.393-16.46-6.498-22.29-11.823-7.898-7.216-12.08-17.948-12.812-28.28-1.268-17.925 9.153-37.59 16.526-44.585 17.69-16.784 29.983-23.678 53.55-29.468 18.935-4.651 49.811-3.833 65.945-1.617 27.408 3.765 54.397 14.272 69.297 28.966 1.067 1.052 2.552 2.27 3.596 3.026" style="fill:none;stroke:#010101;stroke-width:1.8;stroke-dasharray:none;stroke-opacity:1"/><path id="path6088" d="M-1393.782 1008.712c-7.617 2.989-21.301-.27-30.232-6.917-12.924-9.62-20.798-22.497-24.59-38.27-5.635-23.438-1.68-49.367 10.498-71.941 9.474-17.563 25.458-32.83 37.884-38.179 3.211-1.382 6.903-2.973 10.18-2.54" style="fill:none;stroke:#010101;stroke-width:1.8;stroke-dasharray:none;stroke-opacity:1"/><path id="path6090" d="M-1084.825 961.257c-6.377-5.88-2.69-19.452 2.465-27.058 8.726-12.877 26.482-23.315 40.862-28.43 25.223-8.97 59.02-8.533 85.83.205 21.295 6.94 41.815 20.545 50.96 41.603 2.193 5.047 4.478 15.29-4.275 14.7" style="fill:none;stroke:#010101;stroke-width:1.8;stroke-dasharray:none;stroke-opacity:1"/><path id="path6092" d="M-1258.637 1045.038c-22.366-.07-46.817-20.566-46.817-40.104 0-17.969 15.596-34.66 22.969-41.655 17.69-16.784 47.663-29.115 71.124-35.326 24.206-6.408 62.111-5.004 78.245-2.788 27.408 3.764 53.811 22.472 44.695 33.066-.977 1.136 2.552 2.27 3.596 3.026" style="fill:none;stroke:#010101;stroke-width:1.8;stroke-dasharray:none;stroke-opacity:1"/><path id="path6094" d="M-1261.875 1202.196c-7.617 2.988-21.301-.271-30.232-6.918-12.924-9.62-20.798-22.497-24.59-38.27-5.635-23.438-1.68-49.367 10.497-71.941 9.475-17.563 25.459-32.83 37.885-38.179 3.211-1.382 6.903-2.973 10.18-2.54" style="fill:none;stroke:#010101;stroke-width:1.8;stroke-dasharray:none;stroke-opacity:1"/><path id="path6662" d="M696.411-677.306c14.776 1.051 33.802 14.644 43.83 27.163 21.423 26.74 28.096 61.365 21.375 91.994-6.355 28.965-21.083 43.343-42.077 52.552-3.861 1.693-19.408 4.66-27.103 3.05" style="fill:none;stroke:#010101;stroke-width:1.8;stroke-dasharray:none;stroke-opacity:1"/><path id="path6664" d="M-736.295-686.235c-11.307-4.146-1.931-17.795 4.512-22.564 21.865-16.184 48.748-23.559 75.103-27.71 41.902-6.6 85.447-4.278 126.012 8.477 18.699 5.88 34.655 14.381 46.206 26.029 1.468 1.48 5.083 5.465 4.36 7.566" style="fill:none;stroke:#010101;stroke-width:1.8;stroke-dasharray:none;stroke-opacity:1"/><path id="path6666" d="M-914.48-689.597c-6.377-5.88-2.69-19.452 2.465-27.059 8.727-12.877 26.482-23.314 40.862-28.428 25.223-8.97 59.02-8.534 85.831.204 21.295 6.94 41.814 20.545 50.96 41.603 2.192 5.047 4.478 15.29-4.276 14.699" style="fill:none;stroke:#010101;stroke-width:1.8;stroke-dasharray:none;stroke-opacity:1"/><path id="path6668" d="M-1088.291-605.816c-22.367-.07-40.96-15.295-40.96-34.832 0-17.969 16.182-37.59 23.554-44.584 17.691-16.784 42.978-32.043 66.438-38.255 24.207-6.408 55.668-8.518 76.488-5.131 27.306 4.443 53.812 25.401 44.696 35.995-.978 1.136 2.552 2.27 3.595 3.026" style="fill:none;stroke:#010101;stroke-width:1.8;stroke-dasharray:none;stroke-opacity:1"/><path id="path6670" d="M-1091.53-448.659c-7.617 2.989-21.301-.27-30.231-6.917-12.925-9.62-20.798-22.497-24.59-38.27-5.635-23.438-1.68-49.367 10.497-71.941 9.474-17.564 25.458-32.83 37.884-38.179 3.212-1.382 6.903-2.973 10.18-2.54" style="fill:none;stroke:#010101;stroke-width:1.8;stroke-dasharray:none;stroke-opacity:1"/><path id="path6672" d="M-642.318-368.762c-.205 7.58-5.395 14.04-10.554 18.664-15.795 14.156-32.78 23.135-51.984 27.512-24.489 5.582-53.67 5.79-74.976-1.274-12.867-4.265-30.524-15.14-36.98-27.937-2.133-4.226-4.268-9.736-3.545-14.674" style="fill:none;stroke:#010101;stroke-width:1.8;stroke-dasharray:none;stroke-opacity:1"/><path id="path6674" d="M-489.063-358.806c-4.4 9.888-9.57 14.962-17.004 19.612-19.203 12.01-42.397 15.034-65.987 13.704-23.777-1.34-45.996-9.057-61.563-22.657-3.694-3.228-12.782-12.758-9.176-19.956" style="fill:none;stroke:#010101;stroke-width:1.8;stroke-dasharray:none;stroke-opacity:1"/><path id="path6676" d="M-323.095-448.953c9.083-5.044 28.71 5.818 34.026 20.618 13.252 36.894-20.711 66.603-45.273 81.021-19.97 11.723-51.4 22.418-83.318 24.819-29.703 2.234-80.203-5.777-70.387-36.384" style="fill:none;stroke:#010101;stroke-width:1.8;stroke-dasharray:none;stroke-opacity:1"/><path id="path6678" d="M-322.811-623.416c14.775 1.051 33.801 14.644 43.83 27.163 21.423 26.74 28.096 61.365 21.375 91.994-6.356 28.965-21.084 43.343-42.078 52.552-3.86 1.693-19.407 4.659-27.102 3.05" style="fill:none;stroke:#010101;stroke-width:1.8;stroke-dasharray:none;stroke-opacity:1"/><path id="path6680" d="M-477.396-690.54c-9.224-7.124-5.75-22.698 3.907-30.592 12.76-10.432 30.441-14.604 47.252-15.092 31.31-.909 59.038 1.948 93.978 21.224 26.024 14.358 44.307 43.317 36.14 66.27-5.607 15.763-19.39 25.354-27.903 25.09" style="fill:none;stroke:#010101;stroke-width:1.8;stroke-dasharray:none;stroke-opacity:1"/><path id="path6682" d="M-819.496-365.5c12.207 19.352-17.896 38.102-65.547 34.33-34.48-2.729-75.712-24.539-52.211-44.506" style="fill:none;stroke:#010101;stroke-width:1.8;stroke-dasharray:none;stroke-opacity:1"/><path id="path6684" d="M-939.404-368.64c-3.781 8.377-12.377 19.543-26.133 26.795-11.965 6.308-36.081 17.69-70.818 16.6-35.88-1.124-86.333-22.985-92.925-64.17-4.075-25.458 17.882-54.464 39.084-60.507" style="fill:none;stroke:#010101;stroke-width:1.8;stroke-dasharray:none;stroke-opacity:1"/><path id="path8140" d="M701.65 55.163c-11.853 4.436-27.517-.914-37.746-9.675-14.154-12.123-14.128-38.672-7.155-52.596 6.819-13.617 15.263-19.977 27.986-24.662 2.34-.861 11.723-2.054 16.24-1.666 8.747.75 20.299 7.53 26.377 14.064 12.983 13.958 17.027 32.033 12.954 48.021-3.852 15.12-12.778 22.625-25.501 27.432-2.34.885-11.762 2.433-16.426 1.592" style="fill:#ececec;fill-opacity:1;stroke:#010101;stroke-width:1.5;stroke-dasharray:none;stroke-opacity:1"/><path id="path8439" d="M812.207 35.576c-7.682 1.474-18.767-3.99-22.367-7.945-5.776-6.344-8.624-14.096-5.191-25.039 2.962-9.443 16.184-17.237 31.14-10.74 11.53 5.007 18.245 18.907 13.9 29.962-2.984 7.592-9.392 12.55-13.153 12.704" style="fill:#ececec;fill-opacity:1;stroke:#010101;stroke-width:1.5;stroke-dasharray:none;stroke-opacity:1"/><path id="path8441" d="M-724.694 458.493c-6.377-5.88-2.689-19.452 2.466-27.059 8.726-12.877 26.482-23.314 40.862-28.428 25.222-8.97 59.02-8.535 85.83.203 21.295 6.94 41.815 20.546 50.96 41.604 2.192 5.046 4.478 15.29-4.275 14.699" style="fill:none;stroke:#010101;stroke-width:1.8;stroke-dasharray:none;stroke-opacity:1"/><path id="path8443" d="M-898.505 542.274c-22.366-.07-40.96-15.295-40.96-34.832 0-17.97 16.182-37.59 23.555-44.584 17.69-16.784 42.977-32.044 66.438-38.255 24.206-6.409 55.668-8.519 76.487-5.131 27.306 4.443 53.812 25.401 44.696 35.995-.978 1.136 2.552 2.27 3.595 3.026" style="fill:none;stroke:#010101;stroke-width:1.8;stroke-dasharray:none;stroke-opacity:1"/><path id="path8445" d="M-901.744 699.431c-7.617 2.988-21.3-.27-30.231-6.917-12.924-9.62-20.798-22.497-24.59-38.27-5.635-23.439-1.68-49.367 10.497-71.941 9.474-17.564 25.458-32.83 37.885-38.18 3.21-1.381 6.902-2.972 10.18-2.539" style="fill:none;stroke:#010101;stroke-width:1.8;stroke-dasharray:none;stroke-opacity:1"/><path id="path2501-7" d="M-47.543-525.321c-22.366-.07-37.717-15.304-38.323-34.832-.586-18.848 10.519-35.029 20.918-45.756 17.69-18.248 42.978-30.872 66.438-37.083 24.206-6.408 55.668-8.519 76.488-5.131 27.306 4.443 53.811 25.401 44.695 35.995-.977 1.136 2.552 2.27 3.596 3.026" style="display:inline;fill:none;stroke:#010101;stroke-width:1.8;stroke-dasharray:none;stroke-opacity:1"/><path id="path9976" d="M518.34-529.694c14.776 1.05 33.802 14.644 43.83 27.163 21.423 26.74 28.096 61.365 21.375 91.994-6.355 28.965-21.083 43.342-42.077 52.551-3.861 1.694-19.408 4.66-27.103 3.05" style="fill:none;stroke:#010101;stroke-width:1.8;stroke-dasharray:none;stroke-opacity:1"/><path id="path9978" d="M363.756-596.819c-9.225-7.123-5.75-22.697 3.907-30.592 12.76-10.432 30.44-14.603 47.251-15.091 31.31-.909 59.038 1.947 93.979 21.224 26.023 14.357 44.306 43.316 36.14 66.27-5.607 15.763-19.39 25.353-27.903 25.09" style="fill:none;stroke:#010101;stroke-width:1.8;stroke-dasharray:none;stroke-opacity:1"/><path id="path9980" d="M327.762-516.053c13.604-.693 34.4 14.935 43.487 24.775 21.109 22.858 30.571 62.532 22.304 90.669-6.488 22.078-22.841 44.95-42.664 52.253-3.946 1.454-19.407 5.14-27.102 3.563" style="fill:none;stroke:#010101;stroke-width:1.8;stroke-dasharray:none;stroke-opacity:1"/><path id="path9982" d="M173.177-586.688c-9.224-7.123-5.75-22.697 3.907-30.592 12.76-10.432 30.441-14.603 47.252-15.091 31.31-.91 62.552 2.533 93.978 22.395 25.124 15.88 42.667 44.722 37.898 68.614-2.679 13.419-17.633 28.282-29.075 25.674" style="fill:none;stroke:#010101;stroke-width:1.8;stroke-dasharray:none;stroke-opacity:1"/><path id="path10594" d="M217.469 598.901c-11.307-4.145-1.932-17.794 4.511-22.563 21.866-16.185 48.749-23.56 75.104-27.71 41.902-6.6 85.447-4.279 126.012 8.476 18.698 5.88 34.654 14.381 46.206 26.03 1.467 1.48 5.082 5.465 4.36 7.565" style="fill:none;stroke:#010101;stroke-width:1.8;stroke-dasharray:none;stroke-opacity:1"/><path id="path10596" d="M39.284 595.462c-6.377-6.316-2.69-20.897 2.465-29.069 8.726-13.833 26.482-25.047 40.862-30.54 25.223-9.637 59.02-9.169 85.83.218 21.295 7.456 41.815 22.073 50.96 44.695 2.193 5.421 4.478 16.425-4.275 15.79" style="fill:none;stroke:#010101;stroke-width:1.8;stroke-dasharray:none;stroke-opacity:1"/><path id="path10598" d="M-134.528 679.32c-22.366-.07-38.323-15.294-38.323-34.831 0-17.97 14.115-36.207 20.918-43.756 14.377-15.956 42.978-32.872 66.438-39.083 24.206-6.409 55.668-8.52 76.488-5.132 27.306 4.443 53.811 25.402 44.695 35.996-.977 1.135 2.552 2.27 3.596 3.025" style="fill:none;stroke:#010101;stroke-width:1.8;stroke-dasharray:none;stroke-opacity:1"/><path id="path10600" d="M-137.766 836.478c-7.617 2.988-21.301-.27-30.232-6.918-12.924-9.62-20.798-22.497-24.59-38.27-5.635-23.438-1.68-49.367 10.497-71.94 9.475-17.564 25.459-32.83 37.885-38.18 3.211-1.382 6.903-2.972 10.18-2.54" style="fill:none;stroke:#010101;stroke-width:1.8;stroke-dasharray:none;stroke-opacity:1"/><path id="path10602" d="M311.445 916.374c-.204 7.58-5.395 14.04-10.553 18.664-15.795 14.157-32.78 23.136-51.984 27.512-24.49 5.582-53.67 5.79-74.976-1.273-12.868-4.266-30.525-15.141-36.98-27.937-2.133-4.227-4.268-9.737-3.545-14.675" style="fill:none;stroke:#010101;stroke-width:1.8;stroke-dasharray:none;stroke-opacity:1"/><path id="path10604" d="M464.701 926.33c-4.4 9.888-9.57 14.963-17.004 19.612-19.203 12.01-42.397 15.034-65.988 13.705-23.776-1.34-45.995-9.058-61.562-22.657-3.695-3.228-12.782-12.758-9.176-19.957" style="fill:none;stroke:#010101;stroke-width:1.8;stroke-dasharray:none;stroke-opacity:1"/><path id="path10606" d="M630.668 836.184c9.084-5.044 28.71 5.817 34.026 20.618 13.253 36.894-20.71 66.602-45.273 81.02-19.97 11.724-51.4 22.419-83.317 24.82-29.703 2.233-80.204-5.777-70.388-36.385" style="fill:none;stroke:#010101;stroke-width:1.8;stroke-dasharray:none;stroke-opacity:1"/><path id="path10608" d="M630.952 665.23c7.982.579 20.698 5.09 30.314 13.54 18.79 16.512 34.121 39.791 37.518 74.643 2.342 24.031-4.92 48.997-19.087 63.95-15.699 16.572-38.885 21.719-49.791 17.37" style="fill:none;stroke:#010101;stroke-width:1.8;stroke-dasharray:none;stroke-opacity:1"/><path id="path10610" d="M476.368 594.596c-9.224-7.123-5.75-22.697 3.907-30.592 12.76-10.432 30.44-14.604 47.251-15.091 31.311-.91 62.553 2.533 93.979 22.395 25.124 15.88 42.667 44.722 37.898 68.614-2.679 13.419-17.633 28.282-29.075 25.674" style="fill:none;stroke:#010101;stroke-width:1.8;stroke-dasharray:none;stroke-opacity:1"/><path id="path10612" d="M134.268 919.636c12.207 19.353-17.897 38.102-65.548 34.33-34.48-2.728-75.711-24.539-52.21-44.506" style="fill:none;stroke:#010101;stroke-width:1.8;stroke-dasharray:none;stroke-opacity:1"/><path id="path10614" d="M14.36 916.496c-3.782 8.378-12.378 19.543-26.133 26.795-11.965 6.309-36.081 17.69-70.819 16.601-35.88-1.124-86.333-22.986-92.925-64.17-4.074-25.46 17.883-54.465 39.085-60.507" style="fill:none;stroke:#010101;stroke-width:1.8;stroke-dasharray:none;stroke-opacity:1"/><path id="path203701" d="M895.59 27.086c-4.634 2.122-10.332 2.414-14.821-.24-4.474-2.423-7.23-7.564-6.772-12.627.475-5.215 3.481-10.444 8.451-12.528 4.131-1.819 9.03-1.599 13.124.208 3.988 1.81 7.387 7.078 7.963 10.603.687 4.203.088 7.368-3.485 11.117-.982.956-2.948 2.338-4.286 2.739" style="fill:#ececec;fill-opacity:1;stroke:#000;stroke-width:1.5;stroke-dasharray:none"/><path id="path15534" d="M871.213 788.431c-7.618 2.988-21.302-.27-30.232-6.917-12.924-9.62-20.798-22.497-24.59-38.27-5.635-23.439-1.68-49.367 10.497-71.941 9.475-17.564 25.458-32.83 37.885-38.179 3.211-1.382 6.902-2.973 9.929-2.195-22.617.274-38.575-14.95-38.575-34.487 0-17.97 14.116-36.206 20.919-43.756 14.377-15.955 42.977-32.872 66.438-39.083 24.206-6.409 55.668-8.519 76.488-5.131 27.306 4.443 53.811 25.401 45.138 35.895-3.297-3.487.463-17.849 5.618-26.02 8.726-13.834 26.482-25.047 40.862-30.541 25.223-9.636 59.02-9.168 85.83.219 21.295 7.456 41.815 22.072 50.96 44.694 2.192 5.422 4.468 16.543-4.14 15.721-9.318-.89.276-15.38 6.72-20.149 21.865-16.185 48.748-23.559 75.103-27.71 41.902-6.6 85.447-4.279 126.012 8.476 18.698 5.88 34.654 14.382 46.205 26.03 1.468 1.48 5.083 5.465 4.523 8.064-6.473-4.346-3.206-19.299 6.45-27.194 12.76-10.432 30.442-14.603 47.252-15.091 31.311-.909 62.553 2.533 93.979 22.396 25.124 15.88 42.667 44.721 37.898 68.613-2.68 13.42-17.633 28.282-28.763 25.492 8.294.395 21.01 4.907 30.626 13.357 18.79 16.512 34.121 39.79 37.518 74.642 2.342 24.032-4.92 48.997-19.087 63.951-15.699 16.571-38.885 21.718-49.791 17.37l.762 1.45c9.084-5.044 28.71 5.817 34.026 20.618 13.253 36.894-20.71 66.603-45.273 81.021-19.97 11.723-51.4 22.418-83.317 24.819-29.703 2.234-80.204-5.777-70.895-36.348-4.908 9.925-10.079 15-17.513 19.649-19.202 12.01-42.397 15.034-65.987 13.704-23.776-1.34-45.995-9.057-61.562-22.657-3.695-3.228-12.783-12.758-8.94-20.286.034 7.25-5.157 13.711-10.315 18.334-15.795 14.157-32.781 23.136-51.984 27.513-24.49 5.581-53.67 5.789-74.977-1.274-12.867-4.265-30.524-15.141-36.98-27.937-2.132-4.226-4.267-9.736-3.114-14.189 12.638 19.838-17.466 38.588-65.117 34.816-34.48-2.729-75.711-24.54-52.334-43.917-2.44 9.406-14.404 25.99-28.16 33.241-11.965 6.309-36.08 17.69-70.818 16.601-35.88-1.124-86.333-22.985-92.925-64.17-4.075-25.459 17.883-54.464 39.085-60.507" style="fill:#ececec;fill-opacity:1;stroke:#010101;stroke-width:1.8;stroke-dasharray:none;stroke-opacity:1"/><path id="path16146" d="M788.589-478.14c12.397 6.824 22.233 15.056 28.019 24.594 1.89 3.23 2.817 6.962 4.225 10.443.061 3.597.794 7.25.182 10.792-2.918 16.893-19.45 27.127-34.097 31.473-4.927 1.462-10.061 2.039-15.092 3.058-5.518.355-11.025 1.107-16.554 1.064-20.854-.164-42.888-5.778-59.057-20.016-3.33-2.932-5.947-6.626-8.92-9.938-4.341-8.257-7.496-11.534-7.307-21.201.368-18.786 18.9-26.912 33.251-32.612 5.555-1.387 11.025-3.204 16.664-4.161 19.87-3.372 43.677-2.878 62.752 4.441 2.05.788 3.867 2.113 5.8 3.17" style="fill:#e5f6ff;fill-opacity:1;stroke:#000;stroke-width:1.8;stroke-dasharray:none"/><path id="path18053" d="M-842.216-590.01c-7.575 2.989-21.183-.27-30.064-6.917-12.852-9.62-20.682-22.497-24.453-38.27-5.604-23.438-1.67-49.367 10.439-71.941 9.421-17.563 25.316-32.83 37.674-38.179 3.193-1.382 6.864-2.973 9.874-1.682-1.499 6.523-18.667 2.14-27.815-7.87-7.145-7.816-10.545-17.244-10.545-27.13 0-17.969 14.037-36.206 20.802-43.756 14.297-15.955 42.739-32.871 66.069-39.083 24.071-6.408 55.358-8.518 76.062-5.13 27.155 4.442 53.513 25.4 44.888 35.894-3.28-3.487.46-17.848 5.587-26.02 8.678-13.834 26.335-25.047 40.635-30.54 25.082-9.637 58.692-9.169 85.354.218 21.176 7.456 41.581 22.072 50.676 44.695 2.18 5.421 4.443 16.542-4.116 15.72-9.268-.89.273-15.38 6.68-20.149 21.745-16.184 48.478-23.559 74.687-27.71 41.67-6.6 84.972-4.278 125.312 8.477 18.594 5.88 34.462 14.381 45.949 26.029 1.46 1.48 5.054 5.465 4.498 8.065-6.438-4.347-3.189-19.3 6.414-27.194 12.689-10.432 30.272-14.604 46.989-15.092 31.137-.909 62.205 2.534 93.456 22.396 24.985 15.88 42.436 43.33 37.688 66.542-3.314 16.198-17.535 30.353-28.603 27.563 8.247.396 21.717 7.392 30.456 15.842 17.93 17.338 33.156 36.937 37.31 72.157 2.977 25.253-3.659 48.998-18.982 63.952-16.29 15.896-38.669 21.717-49.514 17.369l.758 1.45c9.033-5.044 28.55 5.818 33.837 20.618 13.179 36.894-20.596 66.603-45.022 81.021-19.859 11.723-51.114 22.419-82.854 24.819-29.538 2.234-79.758-5.777-70.501-36.347-4.88 9.924-10.023 14.998-17.415 19.648-19.096 12.01-42.162 15.034-65.62 13.704-23.645-1.34-45.74-9.057-61.22-22.657-3.675-3.228-12.713-12.758-8.89-20.286.033 7.25-5.13 13.712-10.259 18.335-15.708 14.156-32.599 23.135-51.695 27.512-24.354 5.582-53.372 5.79-74.56-1.274-12.796-4.265-30.355-15.14-36.775-27.937-2.12-4.226-4.244-9.736-3.097-14.189 12.568 19.839-17.369 38.588-64.755 34.816-34.289-2.729-75.29-24.539-52.043-43.917-2.426 9.406-14.324 25.99-28.003 33.242-11.899 6.308-35.88 17.69-70.425 16.6-35.681-1.123-85.854-22.985-92.409-64.17-4.052-25.458 17.783-54.464 38.868-60.507" style="fill:#ececec;fill-opacity:1;stroke:#010101;stroke-width:1.8;stroke-dasharray:none;stroke-opacity:1"/></g><g id="layer3" style="display:inline" transform="translate(-116.791 229.39)"><g id="g7523" transform="translate(-319.758 1194.538)"><path id="path7103" d="M196.447 452.935a48.09 48.09 0 0 0 12.913 14.418c1.944 1.437 3.9 2.914 6.091 3.936 2.587 1.207 5.418 1.8 8.127 2.699 9.595.183 17.206-.138 25.263-6.188 2.358-1.77 4.112-4.228 6.167-6.342l4.122 2.758v0c-2.277 2.373-4.226 5.112-6.832 7.118-5.92 4.556-11.85 6.825-19.321 7.165-4.284.195-8.555-.614-12.833-.92-2.904-1.103-5.94-1.908-8.712-3.309-2.285-1.155-4.332-2.744-6.36-4.308-5.57-4.297-10.253-9.683-13.645-15.84l5.02-1.187z" style="opacity:1;fill:#87ffb7;fill-opacity:1;stroke:#87ffb7;stroke-width:.5;stroke-linecap:round;stroke-linejoin:round;stroke-miterlimit:4;stroke-dasharray:none;stroke-dashoffset:0;stroke-opacity:1"/><path id="path7107" d="M224.213 433.859c16.21.538 32.413 1.195 48.631 1.473 5.313.05 3 .043 6.94.04l2.065 4.69v0c-3.996-.057-1.656-.014-7.021-.113-16.179-.343-32.347-1.004-48.523-1.405l-2.092-4.686z" style="opacity:1;fill:#87ffb7;fill-opacity:1;stroke:#87ffb7;stroke-width:.5;stroke-linecap:round;stroke-linejoin:round;stroke-miterlimit:4;stroke-dasharray:none;stroke-dashoffset:0;stroke-opacity:1"/><path id="path7132" d="M227.69 446.488c-1.263-1.525-3.474-4.122-4.393-5.638-3.025-4.992-6.048-12.147-6.677-17.981-.233-2.155.04-4.334.059-6.502.83-2.068 1.333-4.302 2.492-6.206 1.835-3.016 5.615-6.618 9.22-7.518 4.594-1.146 10.102.904 13.69 3.494 1.897 1.368 3.01 3.58 4.515 5.37 2.423 6.182 3.265 6.498 3.19 13.038-.02 1.688-.472 3.344-.707 5.017l-5.01-.79v0c.224-1.395.64-2.772.674-4.184.133-5.497-.604-5.747-2.683-10.907-1.284-1.435-2.518-2.915-3.85-4.305-.668-.696-1.27-1.535-2.144-1.943-1.327-.62-2.807-1.179-4.266-1.051-2.987.26-6.31 3.173-7.868 5.431-1.012 1.466-1.483 3.238-2.224 4.857-.027 1.886-.29 3.782-.081 5.657.602 5.421 3.426 11.947 6.342 16.523 1.14 1.79 2.816 3.566 4.257 5.168l-4.536 2.47z" style="opacity:1;fill:#87ffb7;fill-opacity:1;stroke:#87ffb7;stroke-width:.5;stroke-linecap:round;stroke-linejoin:round;stroke-miterlimit:4;stroke-dasharray:none;stroke-dashoffset:0;stroke-opacity:1"/><path id="path7134" d="M204.238 393.946c1.44.139 3.15-.013 3.77-1.613.103-.266.11-.628-.065-.854-.246-.322-1.881-.28-1.99-.284.354.223 1.016.252 1.06.667.038.339-.671.186-.946.389-.65.48-1.587 1.776-.914 2.61.133.166.381.186.572.28l-4.861 1.706v0c-.287-.674-.72-1.302-.86-2.021-.453-2.338.75-4.853 2.543-6.32.706-.577 1.477-1.259 2.385-1.341 1.647-.15 3.276.451 4.914.677.73.577 1.644.976 2.19 1.73 2.567 3.546-.304 7.724-3.836 9.007-.702.255-1.487.147-2.231.221l-1.73-4.854z" style="opacity:1;fill:#87ffb7;fill-opacity:1;stroke:#87ffb7;stroke-width:.5;stroke-linecap:round;stroke-linejoin:round;stroke-miterlimit:4;stroke-dasharray:none;stroke-dashoffset:0;stroke-opacity:1"/><path id="path7136" d="M220.655 393.115c8.178-.44 16.365-.637 24.553-.747 2.225-.069 4.482.094 6.688-.285l2.975 4.21v0c-.488.17-.955.423-1.464.512-1.46.255-4.897.18-6.096.183-8.186.078-16.39.142-24.55.841l-2.106-4.714z" style="opacity:1;fill:#87ffb7;fill-opacity:1;stroke:#87ffb7;stroke-width:.5;stroke-linecap:round;stroke-linejoin:round;stroke-miterlimit:4;stroke-dasharray:none;stroke-dashoffset:0;stroke-opacity:1"/><path id="path7142" d="M220.843 381.409c7.791-8.565 14.92-17.698 22.995-26 1.441-1.52 3.052-2.854 4.6-4.259l4.149 3.069v0c-1.508 1.36-3.16 2.546-4.555 4.036-8.14 8.171-15.224 17.284-22.861 25.914l-4.328-2.76z" style="opacity:1;fill:#87ffb7;fill-opacity:1;stroke:#87ffb7;stroke-width:.5;stroke-linecap:round;stroke-linejoin:round;stroke-miterlimit:4;stroke-dasharray:none;stroke-dashoffset:0;stroke-opacity:1"/><path id="path7144" d="M245.198 382.773a7774.62 7774.62 0 0 1-25.1-23.3l-3.279-3.227 4.448-2.444v0l3.199 3.164c8.281 7.775 16.582 15.54 25.096 23.06l-4.364 2.747z" style="opacity:1;fill:#87ffb7;fill-opacity:1;stroke:#87ffb7;stroke-width:.5;stroke-linecap:round;stroke-linejoin:round;stroke-miterlimit:4;stroke-dasharray:none;stroke-dashoffset:0;stroke-opacity:1"/><path id="path7152" d="M233.019 346.644c.286-.8.699-1.564.857-2.397 1.068-5.623.502-13.604-3.86-17.802-.739-.71-1.788-1-2.682-1.5.158.384.569.75.473 1.155-1.116 4.723-2.056-2.147-1.955 5.034.04 2.774 1.564 5.912 3.645 7.702 1.266 1.089 2.954 1.558 4.43 2.336 1.597.164 3.19.634 4.788.491.767-.069 1.379-.693 2.032-1.102 1.142-.715 2.506-1.215 3.348-2.267 1.979-2.474 2.532-6.841 2.5-9.775-.018-1.74-.468-3.447-.702-5.17-1.002-3.022-1.202-4.453-2.931-6.98-.398-.581-.962-1.027-1.443-1.54l4.66-2.134v0c.56.756 1.207 1.455 1.684 2.267 1.876 3.2 1.975 4.491 3.076 8.224.216 2.004.681 3.998.649 6.014-.069 4.21-.95 9.035-3.696 12.451-3.104 3.864-7.587 4.248-12.237 4.036-1.967-.09-3.82-.959-5.728-1.438-1.728-1.23-3.74-2.135-5.182-3.69-3.672-3.96-5.128-10.293-2.543-15.203.746-1.418 1.564-3.153 3.07-3.699 1.952-.706 4.145.224 6.217.336 1.094.901 2.379 1.613 3.284 2.705 4.682 5.649 5.31 14.053 4.012 21-.173.93-.612 1.789-.918 2.683l-4.848-1.737z" style="opacity:1;fill:#87ffb7;fill-opacity:1;stroke:#87ffb7;stroke-width:.5;stroke-linecap:round;stroke-linejoin:round;stroke-miterlimit:4;stroke-dasharray:none;stroke-dashoffset:0;stroke-opacity:1"/><path id="path7156" d="M184.988 301.324c12.194.037 24.388.108 36.58-.095 9.897-.209 19.801-.584 29.667-1.424 1.185 1.969 1.784.908 4.228-.407-1.05 3.637-.2 4.756-1.873 4.99-9.961.737-19.95 1.144-29.934 1.369-12.189.246-24.38.186-36.57.267z" style="opacity:1;fill:#87ffb7;fill-opacity:1;stroke:#87ffb7;stroke-width:.5;stroke-linecap:round;stroke-linejoin:round;stroke-miterlimit:4;stroke-dasharray:none;stroke-dashoffset:0;stroke-opacity:1"/><path id="path7158" d="M228.329 274.194c-.939.832-1.75 1.333-2.114 2.665-.569 2.075.034 5.941 1.27 7.705.255.365.77.445 1.155.668-.606-.396-1.488-.544-1.819-1.188-.168-.329.594-.448.838-.725a24.562 24.562 0 0 0 1.631-2.074c1.757-2.486 3.145-5.23 5.018-7.63 1.04-1.333 2.283-2.491 3.424-3.737 1.22-.812 2.348-1.784 3.66-2.438 2.778-1.384 5.804-1.598 8.743-.103 1.8.916 2.86 4.645 3.154 6.317.25 1.427.238 2.888.358 4.332.02 5.151-1.31 10.095-4.464 14.222-.516.676-1.149 1.256-1.724 1.883l-4.253-2.868v0c.474-.446 1-.844 1.421-1.34 2.847-3.343 3.945-7.528 3.932-11.856-.187-2.067-.106-3.908-.993-5.799-.198-.422-.867-.626-.874-1.092-.005-.324 1.174-.441.851-.474-2.384-.239-3.535.884-5.575 2.002-4.166 4.265-2.385 2.029-5.762 7.248-.928 1.435-3.139 5.105-4.483 6.54-.761.812-1.445 1.985-2.544 2.165-1.688.276-3.365-.617-5.048-.925-.554-.713-1.25-1.335-1.662-2.138-1.595-3.107-1.983-7.448-.94-10.775.63-2.006 1.563-2.656 2.914-3.971l3.886 3.386z" style="opacity:1;fill:#87ffb7;fill-opacity:1;stroke:#87ffb7;stroke-width:.5;stroke-linecap:round;stroke-linejoin:round;stroke-miterlimit:4;stroke-dasharray:none;stroke-dashoffset:0;stroke-opacity:1"/><path id="path7160" d="M223.154 230.739c7.093-4.872 9.28-6.652 16.066-11.93 19.138-14.885-6.45 5.174 9.157-7.078l2.49-2.121 4.034 3.126v0l-2.612 2.205c-5.747 4.474-2.69 2.125-9.184 7.031-6.852 5.304-9.061 7.163-16.136 12.176z" style="opacity:1;fill:#87ffb7;fill-opacity:1;stroke:#87ffb7;stroke-width:.5;stroke-linecap:round;stroke-linejoin:round;stroke-miterlimit:4;stroke-dasharray:none;stroke-dashoffset:0;stroke-opacity:1"/><path id="path7162" d="M226.71 192.236c7.886 4.79 15.364 10.186 22.867 15.543 12.247 8.745 10.33 7.37 22.206 15.784l8.1 5.4-3.992 2.925v0l-8.084-5.514c-7.42-5.279-14.772-10.524-22.221-15.765-7.327-5.156-14.635-10.481-22.541-14.734l3.665-3.64z" style="opacity:1;fill:#87ffb7;fill-opacity:1;stroke:#87ffb7;stroke-width:.5;stroke-linecap:round;stroke-linejoin:round;stroke-miterlimit:4;stroke-dasharray:none;stroke-dashoffset:0;stroke-opacity:1"/><path id="path7164" d="M191.065 189.749c3.275-4.87 7.024-9.416 11.254-13.492 1.88-1.81 3.745-3.661 5.857-5.194 6.806-4.94 9.178-5.363 16.914-8.522 2.99-.55 5.936-1.477 8.973-1.65 6.315-.362 13.063 1.22 18.684 4.02 4.702 2.342 7.993 6.295 11.542 9.956l-4.425 2.373v0c-4.64-4.633-4.713-5.244-10.625-8.774-1.508-.9-3.064-1.81-4.763-2.252-7.304-1.904-8.85-.903-16.254.172-7.16 2.753-9.76 3.234-16.055 7.688-2.048 1.448-3.849 3.222-5.665 4.951-3.966 3.776-7.413 8.013-10.588 12.461l-4.849-1.737z" style="opacity:1;fill:#87ffb7;fill-opacity:1;stroke:#87ffb7;stroke-width:.5;stroke-linecap:round;stroke-linejoin:round;stroke-miterlimit:4;stroke-dasharray:none;stroke-dashoffset:0;stroke-opacity:1"/></g><g id="g7723" transform="translate(1527.55 868.153)"><path id="path7697" d="M669.93 828.548c.056 14.484.535 28.986.126 43.466l-.293 4.54-5.296 2.08v0l.391-4.414c.097-2.079.258-4.156.29-6.237.088-5.602-.098-11.206-.138-16.809-.037-5.066.002-10.133-.088-15.199-.03-1.647-.116-3.293-.174-4.939l5.182-2.488z" style="opacity:1;fill:#87ffb7;fill-opacity:1;stroke:#87ffb7;stroke-width:2;stroke-linecap:round;stroke-linejoin:round;stroke-miterlimit:4;stroke-dasharray:none;stroke-dashoffset:0;stroke-opacity:1"/><path id="path7699" d="M649.068 832.961c.6-.772 1.084-1.65 1.8-2.316 6.902-6.4 17.535-8.72 26.644-6.704 2.601.575 4.971 1.916 7.457 2.875 1.772 1.394 3.833 2.483 5.316 4.182 3.259 3.733 3.789 8.103 2.149 12.89-1.112 3.247-6.171 6.609-8.848 8.103-1.68.938-3.523 1.551-5.285 2.327-6.167 1.339-3.222 1.113-8.811.94l.42-5.702v0c4.289.248 1.952.375 6.983-.729 3.439-1.57 5.83-2.301 8.604-5.004.963-.938 1.501-2.234 2.336-3.288.245-.309.921-.388.888-.78-.37-4.316-2.325-4.8-5.472-7.589-2.097-.881-4.078-2.116-6.29-2.644-7.607-1.816-17.24.086-22.802 5.819-.588.606-.962 1.389-1.443 2.083l-3.646-4.463z" style="opacity:1;fill:#87ffb7;fill-opacity:1;stroke:#87ffb7;stroke-width:2;stroke-linecap:round;stroke-linejoin:round;stroke-miterlimit:4;stroke-dasharray:none;stroke-dashoffset:0;stroke-opacity:1"/><path id="path7701" d="M699.078 813.678c.385-.274.786-.527 1.156-.823.665-.53 1.729-1.26 1.814-2.272.025-.293-.264-1.067-.381-.797-1.102 2.537.559 2.558-.62 2.481-.276-.013-.553-.07-.827-.038-.94.107-1.65.539-1.532 1.595.03.268.123.993.266.765.36-.576.329-1.318.493-1.977l-4.788 3.207v0c-.063-1.618-.359-3.244-.19-4.855.072-.68.488-1.296.893-1.847 1.95-2.658 5.085-2.941 8.03-2.115.752.493 1.877.664 2.256 1.48 2.476 5.32-1.307 8.834-5.587 10.882l-.983-5.686z" style="opacity:1;fill:#87ffb7;fill-opacity:1;stroke:#87ffb7;stroke-width:2;stroke-linecap:round;stroke-linejoin:round;stroke-miterlimit:4;stroke-dasharray:none;stroke-dashoffset:0;stroke-opacity:1"/><path id="path7703" d="M703.872 827.09c.201 8.431.436 16.861.7 25.29.032.896.061 1.792.092 2.687l-5.17 2.482v0l-.063-2.7c-.22-8.423-.469-16.845-.752-25.266l5.193-2.493z" style="opacity:1;fill:#87ffb7;fill-opacity:1;stroke:#87ffb7;stroke-width:2;stroke-linecap:round;stroke-linejoin:round;stroke-miterlimit:4;stroke-dasharray:none;stroke-dashoffset:0;stroke-opacity:1"/><path id="path7705" d="M715.257 826.413c8.68 8.838 17.971 17.044 26.883 25.642 1.624 1.569 3.082 3.2 4.236 5.13l-4.741 3.31v0c-.867-1.348-4.473-4.218-2.631-3.705-8.792-8.684-18.09-16.84-26.878-25.528z" style="opacity:1;fill:#87ffb7;fill-opacity:1;stroke:#87ffb7;stroke-width:2;stroke-linecap:round;stroke-linejoin:round;stroke-miterlimit:4;stroke-dasharray:none;stroke-dashoffset:0;stroke-opacity:1"/><path id="path7707" d="M738.657 833.774c-5.566 5.82-17.315 18.711-22.843 24.568l-2.825-4.863c5.78-6.135 17.86-19.402 22.78-24.677z" style="opacity:1;fill:#87ffb7;fill-opacity:1;stroke:#87ffb7;stroke-width:2;stroke-linecap:round;stroke-linejoin:round;stroke-miterlimit:4;stroke-dasharray:none;stroke-dashoffset:0;stroke-opacity:1"/><path id="path7709" d="M751.005 836.054c.957.112 1.908.321 2.871.337 3.79.062 9.138-.32 12.132-2.942.755-.661 1.205-1.629 1.589-2.556.122-.295-.512.382-.768.573-.14-.379-.145-.839-.417-1.137-.573-.629-2.182-.26-2.663-.144-3.544.846-5.736 2.605-8.531 4.821-1.463 1.74-3.49 3.72-4.065 6.062-.098.397.463.684.6 1.07 1.387 3.876.416 4.682 4.723 7.011 1.88 1.018 4.06 1.344 6.09 2.016 8.987.223 4.676.606 12.948-.969l.443 5.625v0c-9.484 1.558-4.52 1.223-14.908.76-5.797-2.012-8.905-2.008-12.655-7.172-1.065-1.466-1.78-3.286-1.901-5.095-.475-7.025 1.96-10.092 6.463-14.542 1.164-.838 2.264-1.776 3.494-2.515 3.873-2.33 10.46-4.843 14.228-.771.793.856 1.05 2.084 1.574 3.126-.514 2.022-.605 4.203-1.542 6.067-.676 1.343-1.9 2.388-3.14 3.239-4.716 3.235-11.93 3.48-17.422 2.827l.857-5.691z" style="opacity:1;fill:#87ffb7;fill-opacity:1;stroke:#87ffb7;stroke-width:2;stroke-linecap:round;stroke-linejoin:round;stroke-miterlimit:4;stroke-dasharray:none;stroke-dashoffset:0;stroke-opacity:1"/><path id="path7711" d="M785.743 792.095c.208 13.548-.346 27.091-.396 40.64.104 8.202-.114 16.472 1.14 24.606l-4.908 3.034v0c-1.701-8.301-1.073-16.918-1.345-25.323.035-13.489.597-26.977.309-40.46l5.2-2.497z" style="opacity:1;fill:#87ffb7;fill-opacity:1;stroke:#87ffb7;stroke-width:2;stroke-linecap:round;stroke-linejoin:round;stroke-miterlimit:4;stroke-dasharray:none;stroke-dashoffset:0;stroke-opacity:1"/><path id="path7713" d="M809.041 834.79c-.185-4.29-2.814-3.365-6.219-3.069-1.058.314-3.483.847-4.405 1.748-.265.258-.493 1.366-.26 1.08.58-.712.474-2.104 1.341-2.407.655-.23.988.982 1.543 1.398.88.661 1.834 1.218 2.752 1.826 4.352 2.613 12.355 5.79 14.74 10.505.45.89.541 1.922.812 2.882-.44 1.75-.414 3.69-1.32 5.25-.609 1.05-1.867 1.591-2.958 2.123-5.866 2.865-12.864 1.286-18.865-.163l-3.085-1.405 2.014-5.36v0l2.283 1.194c4.07 1.044 8.333 2.034 12.578 1.418.983-.143 1.926-.53 2.822-.959.463-.222.725-1.163 1.199-.967.49.204.172 1.048.258 1.572.147-.436.519-.853.44-1.306-.266-1.538-2.146-2.97-3.184-3.747-3.157-2.363-6.791-3.957-10.206-5.887-.876-.56-5.764-3.46-6.19-4.633-2.703-7.434 2.257-8.62 7.656-9.884 2.667-.156 4.53-.52 7.153.372 2.487.846 3.837 3.554 4.311 5.917l-5.21 2.501z" style="opacity:1;fill:#87ffb7;fill-opacity:1;stroke:#87ffb7;stroke-width:2;stroke-linecap:round;stroke-linejoin:round;stroke-miterlimit:4;stroke-dasharray:none;stroke-dashoffset:0;stroke-opacity:1"/><path id="path7715" d="M863.55 823.941c7.836 8.13 15.907 16.028 23.76 24.146 3.993 3.963 2.113 2.297 5.53 5.12l-2.875 4.95v0c-3.743-3.072-1.75-1.298-5.878-5.43-7.86-8.22-15.961-16.187-24.036-24.192l3.498-4.594z" style="opacity:1;fill:#87ffb7;fill-opacity:1;stroke:#87ffb7;stroke-width:2;stroke-linecap:round;stroke-linejoin:round;stroke-miterlimit:4;stroke-dasharray:none;stroke-dashoffset:0;stroke-opacity:1"/><path id="path7717" d="M892.39 832.809c-8.3 6.891-16.843 13.48-25.25 20.24l-3.278 2.676-2.383-5.174v0l3.314-2.643c8.424-6.694 16.925-13.292 25.092-20.302l2.505 5.203z" style="opacity:1;fill:#87ffb7;fill-opacity:1;stroke:#87ffb7;stroke-width:2;stroke-linecap:round;stroke-linejoin:round;stroke-miterlimit:4;stroke-dasharray:none;stroke-dashoffset:0;stroke-opacity:1"/><path id="path7719" d="M641.9 804.986c-9.206 5.296-15.189 12.763-19.038 22.717-1.003 2.595-1.574 5.337-2.361 8.006-.71 6.057-.495 12.193 2.593 17.644 2.79 4.922 7.415 7.82 12.043 10.717l-2.427 5.124v0c-5.447-3.38-10.513-6.528-13.942-12.225-2.506-4.163-4.039-9.375-3.918-14.256.09-3.62 1.007-7.174 1.51-10.76.937-2.816 1.653-5.715 2.812-8.446 4.452-10.495 11.358-18.687 21.355-24.116l1.372 5.595z" style="opacity:1;fill:#87ffb7;fill-opacity:1;stroke:#87ffb7;stroke-width:2;stroke-linecap:round;stroke-linejoin:round;stroke-miterlimit:4;stroke-dasharray:none;stroke-dashoffset:0;stroke-opacity:1"/><path id="path7721" d="M905.425 793.874c.963.59 1.989 1.088 2.888 1.771 6.436 4.89 12.142 11.02 16.195 18.037 1.943 3.365 3.828 6.827 4.99 10.535 1.22 3.89 1.395 8.033 2.092 12.05-1.11 11.725-.302 13.134-5.506 24.416-1.283 2.781-3.33 5.141-4.996 7.712l-3.388-4.442v0c2.33-3.761 6.38-9.605 7.56-14.084.93-3.528 1.039-7.224 1.558-10.836-.488-3.72-.443-7.552-1.465-11.162-.998-3.53-2.747-6.822-4.531-10.027-3.68-6.612-8.978-12.398-14.943-17.02-.798-.619-1.715-1.066-2.572-1.599l2.118-5.351z" style="opacity:1;fill:#87ffb7;fill-opacity:1;stroke:#87ffb7;stroke-width:2;stroke-linecap:round;stroke-linejoin:round;stroke-miterlimit:4;stroke-dasharray:none;stroke-dashoffset:0;stroke-opacity:1"/></g><g id="g7751" transform="rotate(-90 1604.756 728.398)"><path id="path7725" d="M233.844 805.87c-1.997 1.968-4.203 3.971-5.716 6.356-2.884 4.55-5.12 10.322-6.546 15.424-.882 3.155-1.774 6.35-2.03 9.616-.178 2.258.495 4.502.743 6.753 3.454 8.104 2.54 8.836 9.826 14.35 2.18 1.65 4.773 2.672 7.16 4.008l-2.229 5.125v0c-2.679-1.505-5.585-2.66-8.036-4.513-8.502-6.427-7.47-7.192-11.737-16.56-.019-4.216-.483-8.454-.056-12.647.347-3.409 1.362-6.726 2.362-10.003 1.835-6.018 4.044-11.17 7.535-16.364 1.43-2.128 4.092-4.704 5.973-6.612l2.751 5.067z" style="opacity:1;fill:#87ffb7;fill-opacity:1;stroke:#87ffb7;stroke-width:2;stroke-linecap:round;stroke-linejoin:round;stroke-miterlimit:4;stroke-dasharray:none;stroke-dashoffset:0;stroke-opacity:1"/><path id="path7727" d="M256.168 829.758c1.169 16.651.429 33.335-.05 49.994l-5.142 2.157v0c.55-16.522 1.383-33.077.114-49.59l5.078-2.561z" style="opacity:1;fill:#87ffb7;fill-opacity:1;stroke:#87ffb7;stroke-width:2;stroke-linecap:round;stroke-linejoin:round;stroke-miterlimit:4;stroke-dasharray:none;stroke-dashoffset:0;stroke-opacity:1"/><path id="path7729" d="M244.066 831.913c1.785-.89 3.475-2.004 5.355-2.67 7.357-2.607 16.007-3.767 23.574-1.33 2.11.68 4.315 1.503 5.92 3.033 1.51 1.44 2.01 3.658 3.017 5.487-.807 3.107-.912 6.488-2.42 9.322-1.205 2.263-3.43 3.848-5.438 5.442-4.997 3.968-7.007 4.184-12.742 6.226l-1.064-5.546c4.868-1.867 8.353-3.373 11.058-5.595 1.59-1.324 2.751-3.092 4.214-4.554.619-.618 1.347-1.116 2.02-1.674-.28-1.3.017-2.882-.84-3.899-1.17-1.389-3.014-2.109-4.729-2.71-6.61-2.318-14.592-1.17-21.008 1.238-1.713.644-3.234 1.712-4.851 2.568z" style="opacity:1;fill:#87ffb7;fill-opacity:1;stroke:#87ffb7;stroke-width:2;stroke-linecap:round;stroke-linejoin:round;stroke-miterlimit:4;stroke-dasharray:none;stroke-dashoffset:0;stroke-opacity:1"/><path id="path7731" d="M293.957 815.17c.208-.648.207-1.406.624-1.943.148-.19.22.47.434.58.83.219.826 1.303.664 1.53-.537-.376-.23-.292-.933-.199l1.151-5.645v0c3.472 1.012 1.881.13 4.68 2.807-.278 1.84-.066 3.825-.835 5.52-.375.826-1.45 1.159-2.318 1.428-2.571.799-7.39-.36-8.034-3.51-.313-1.535.334-3.115.5-4.673l4.067 4.105z" style="opacity:1;fill:#87ffb7;fill-opacity:1;stroke:#87ffb7;stroke-width:2;stroke-linecap:round;stroke-linejoin:round;stroke-miterlimit:4;stroke-dasharray:none;stroke-dashoffset:0;stroke-opacity:1"/><path id="path7733" d="M297.355 827.517c-.203 7.077.069 18.479.817 25.515l-5.024 2.713c-.66-7.498-1.19-19.466-1.045-25.89z" style="opacity:1;fill:#87ffb7;fill-opacity:1;stroke:#87ffb7;stroke-width:2;stroke-linecap:round;stroke-linejoin:round;stroke-miterlimit:4;stroke-dasharray:none;stroke-dashoffset:0;stroke-opacity:1"/><path id="path7735" d="M308.63 827.072c10.173 9.576 20.149 19.348 30.694 28.516l-2.983 4.8v0c-10.495-9.279-20.5-19.072-30.835-28.525l3.125-4.79z" style="opacity:1;fill:#87ffb7;fill-opacity:1;stroke:#87ffb7;stroke-width:2;stroke-linecap:round;stroke-linejoin:round;stroke-miterlimit:4;stroke-dasharray:none;stroke-dashoffset:0;stroke-opacity:1"/><path id="path7737" d="M338.424 832.998c-8.304 5.774-21.247 16.909-28.657 24.376l-2.52-4.985c7.517-7.274 21.609-19.398 29.094-24.737z" style="opacity:1;fill:#87ffb7;fill-opacity:1;stroke:#87ffb7;stroke-width:2;stroke-linecap:round;stroke-linejoin:round;stroke-miterlimit:4;stroke-dasharray:none;stroke-dashoffset:0;stroke-opacity:1"/><path id="path7739" d="M386.011 791.925c.095 1.176.232 2.35.283 3.528.16 3.666.285 13.429.316 16.528.112 11.144.129 22.29.172 33.435.205 9.242-.02 5.14.515 12.312l-5.063 2.585c-.647-10.562-.38-4.886-.523-12.63-.002-17.606.027-35.222-.67-52.816z" style="opacity:1;fill:#87ffb7;fill-opacity:1;stroke:#87ffb7;stroke-width:2;stroke-linecap:round;stroke-linejoin:round;stroke-miterlimit:4;stroke-dasharray:none;stroke-dashoffset:0;stroke-opacity:1"/><path id="path7741" d="M412.934 834.367c-2.137-2.697-6.05-3.904-9.023-1.67-.377.283-.553.765-.83 1.148.448-.636.624-1.614 1.344-1.907.392-.159.32.801.599 1.119.75.852 1.597 1.618 2.458 2.358 1.856 1.594 5.622 4.292 7.395 5.954 1.084 1.017 2.015 2.186 3.023 3.279.413 1.288 1.375 2.518 1.24 3.864-.22 2.207-.977 4.446-2.253 6.26-2.218 3.156-10.242 4.175-13.673 3.965-1.628-.1-3.214-.557-4.82-.835-5.325-2.2-2.928-.9-7.266-3.759l2.625-5.08v0c3.314 2.45 1.458 1.328 5.646 3.237 1.31.25 2.601.657 3.932.75 2.518.176 5.4-.182 7.736-1.213.844-.372 1.367-1.44 2.28-1.567.467-.065.507 1.454.85 1.13.537-.506.187-1.464.28-2.196-3.242-3.828-1.827-2.511-6.14-5.948-1.991-1.587-5.556-4.085-7.299-6.066-.764-.87-1.804-1.767-1.875-2.923-.117-1.906.903-3.712 1.354-5.568.744-.54 1.41-1.208 2.231-1.62 4.142-2.08 8.94-1.31 12.53 1.49.816.636 1.45 1.478 2.176 2.217l-4.52 3.58z" style="opacity:1;fill:#87ffb7;fill-opacity:1;stroke:#87ffb7;stroke-width:2;stroke-linecap:round;stroke-linejoin:round;stroke-miterlimit:4;stroke-dasharray:none;stroke-dashoffset:0;stroke-opacity:1"/><path id="path7743" d="M453.07 821.264c4.78 9.504 7.058 14.157 12.875 23.059a171.2 171.2 0 0 1 3.95 5.94l-4.03 4.128v0c-1.153-2.034-2.44-3.985-3.778-5.902-1.813-2.78-1.233-2.016-2.9-4.8-3.633-6.069-6.97-12.316-10.366-18.517z" style="opacity:1;fill:#87ffb7;fill-opacity:1;stroke:#87ffb7;stroke-width:2;stroke-linecap:round;stroke-linejoin:round;stroke-miterlimit:4;stroke-dasharray:none;stroke-dashoffset:0;stroke-opacity:1"/><path id="path7745" d="M484 827.39c-8.44 12.859-20.12 34.605-27.69 47.987l-3.488-4.26c8.316-14.095 20.352-37.027 28.16-48.638z" style="opacity:1;fill:#87ffb7;fill-opacity:1;stroke:#87ffb7;stroke-width:2;stroke-linecap:round;stroke-linejoin:round;stroke-miterlimit:4;stroke-dasharray:none;stroke-dashoffset:0;stroke-opacity:1"/><path id="path7747" d="M493.914 794.365c.878.928 1.811 1.807 2.635 2.784 5.686 6.744 10.599 15.544 13.678 23.765 1.04 2.775 1.766 5.658 2.649 8.487.442 2.931 1.16 5.834 1.327 8.794.477 8.485-1.593 17.076-6.573 24.021-2.803 3.909-3.83 4.24-7.45 6.822-4.155 1.633-2.16 1.139-5.928 1.697l-.281-5.74v0c2.499-.357 1.131-.023 4.04-1.23.964-.73 2.029-1.343 2.893-2.19 3.047-2.984 4.086-5.093 6.007-9.008.642-1.307 1.408-2.595 1.704-4.02 1.41-6.767.55-9.007-.274-15.878-.79-2.705-1.421-5.462-2.371-8.115-3.292-9.192-8.46-17.858-14.89-25.18l2.834-5.009z" style="opacity:1;fill:#87ffb7;fill-opacity:1;stroke:#87ffb7;stroke-width:2;stroke-linecap:round;stroke-linejoin:round;stroke-miterlimit:4;stroke-dasharray:none;stroke-dashoffset:0;stroke-opacity:1"/><path id="path7749" d="M346.051 838.432c.8.286 1.564.699 2.398.857 5.622 1.069 13.604.502 17.801-3.86.71-.738 1.001-1.788 1.501-2.682-.385.158-.75.569-1.155.473-4.723-1.116 2.146-2.056-5.034-1.955-2.775.04-5.913 1.564-7.703 3.645-1.088 1.266-1.557 2.954-2.336 4.431-.164 1.596-.634 3.19-.49 4.787.069.768.693 1.379 1.102 2.032.715 1.142 1.214 2.506 2.267 3.348 2.473 1.98 6.84 2.532 9.775 2.5 1.74-.017 3.447-.467 5.17-.702 3.022-1.002 4.452-1.202 6.98-2.931.58-.397 1.026-.962 1.54-1.443l2.133 4.66v0c-.755.56-1.454 1.208-2.267 1.684-3.2 1.876-4.49 1.976-8.224 3.076-2.004.216-3.997.681-6.013.649-4.21-.068-9.036-.95-12.452-3.695-3.863-3.104-4.248-7.588-4.035-12.238.09-1.967.958-3.819 1.437-5.728 1.23-1.727 2.135-3.74 3.69-5.182 3.96-3.672 10.294-5.128 15.203-2.543 1.418.746 3.153 1.564 3.7 3.07.706 1.952-.225 4.145-.336 6.217-.902 1.095-1.613 2.379-2.705 3.284-5.65 4.682-14.053 5.31-21 4.013-.93-.174-1.79-.612-2.684-.919l1.737-4.848z" style="opacity:1;fill:#87ffb7;fill-opacity:1;stroke:#87ffb7;stroke-width:1.5;stroke-linecap:round;stroke-linejoin:round;stroke-miterlimit:4;stroke-dasharray:none;stroke-dashoffset:0;stroke-opacity:1"/></g></g></svg>