<svg xmlns="http://www.w3.org/2000/svg" xmlns:xlink="http://www.w3.org/1999/xlink" id="svg4817" width="1052" height="537" preserveAspectRatio="none" version="1.1" viewBox="-67.8 -50.047 1052 537"><style id="style4594" type="text/css">.grid{stroke:#9e9ed1;stroke-width:.4}.axes{stroke:#000;stroke-width:.9}.axes-arrows{stroke-width:1.1;stroke:#000;fill:none;stroke-linecap:round;stroke-linejoin:round}.axes-labels{stroke:none;fill:#000}.none{display:none}</style><defs id="defs4611"><path id="STIXWEBNORMALI-1D461" stroke-width="1" d="m283 438-10-38h-70L125 80c-1-3-2-8-2-11 0-6 3-12 16-12 0 0 23 2 60 52l13-11C188 67 138-9 79-9 48-9 40 16 40 43c0 13 2 26 5 37l81 320H49l5 29c75 14 136 51 177 138h13l-31-129Z"/><path id="STIXWEBMAIN-5B" stroke-width="1" d="M299-156H88v818h211v-25h-83c-34 0-52-12-52-48V-77c0-40 19-54 52-54h83z"/><path id="STIXWEBMAIN-5D" stroke-width="1" d="M245-156H34v25h88c35 0 47 15 47 46v668c0 35-13 54-51 54H34v25h211z"/><path id="STIXWEBNORMALI-1D465" stroke-width="1" d="m305 288 45 69c26 40 61 84 111 84 32 0 49-12 49-33 0-19-13-42-39-42-22 0-27 9-44 9-30 0-41-16-55-38l-55-85c30-62 53-197 98-197 16 0 40 14 61 57l14-10C478 87 433-9 375-9c-41 0-60 41-73 77l-40 113-63-98C167 34 138-9 82-9 46-9 30 16 30 38c0 16 13 37 38 37 26 0 22-20 47-20 12 0 38 10 70 59l65 101-33 92c-17 48-43 89-98 89-13 0-28-2-38-6l-3 18 132 33c44-24 63-65 75-98z"/><path id="STIXWEBVARIANTS-2032" stroke-width="1" d="M78 28 44 40c26 123 89 398 107 456 16 51 46 69 76 69 36 0 68-22 68-71 0-11-5-35-10-47-21-57-146-306-207-419Z"/><path id="STIXWEBMAIN-28" stroke-width="1" d="m304-161-12-16C134-87 48 82 48 252c0 185 87 329 247 424l9-16C165 541 134 448 134 255c0-186 30-299 170-416Z"/><path id="STIXWEBMAIN-29" stroke-width="1" d="m29 660 12 16c153-92 244-259 244-429 0-185-88-327-247-424l-9 16C171-44 199 50 199 244c0 187-25 302-170 416Z"/><path id="STIXWEBMAIN-2F" stroke-width="1" d="M287 676 59-14H-9l229 690z"/><path id="STIXWEBMAIN-34" stroke-width="1" d="M473 167H370V0h-78v167H12v64l314 445h44V231h103Zm-181 64v343L52 231Z"/><path id="STIXWEBMAIN-30" stroke-width="1" d="M476 330c0-172-63-344-226-344C79-14 24 172 24 336c0 177 69 340 230 340 131 0 222-141 222-346Zm-96-5c0 208-44 325-132 325-83 0-128-118-128-321S164 12 250 12c85 0 130 115 130 313z"/><path id="STIXWEBMAIN-35" stroke-width="1" d="m438 681-36-85c-3-7-11-13-27-13H181l-40-85c143-27 193-49 250-128 26-36 35-74 35-127 0-96-30-158-98-208-47-34-102-49-170-49C83-14 31 10 31 48c0 25 17 38 45 38 23 0 42-5 74-31 28-23 51-32 71-32 70 0 135 83 135 169 0 64-22 114-67 150-47 38-117 70-213 70-9 0-12 2-12 8 0 2 1 5 1 5l109 237h207c23 0 32 5 48 26z"/><path id="STIXWEBMAIN-36" stroke-width="1" d="m446 684 2-16c-157-26-269-134-296-285 49 38 83 45 127 45 117 0 189-80 189-209 0-64-18-120-51-160-37-46-93-73-159-73-79 0-142 37-177 101-28 51-47 122-47 192 0 108 38 203 109 276 86 90 165 114 303 129zm-68-496c0 128-42 194-135 194-57 0-116-24-116-116 0-152 48-252 142-252 72 0 109 72 109 174z"/><path id="STIXWEBMAIN-2212" stroke-width="1" d="M621 220H64v66h557z"/><path id="STIXWEBMAIN-38" stroke-width="1" d="M445 155c0-103-77-169-197-169C135-14 56 55 56 149c0 69 23 108 130 183C83 417 62 455 62 520c0 96 83 156 194 156 99 0 168-65 168-143 0-75-35-109-134-162 123-82 155-136 155-216Zm-90 378c0 69-41 115-109 115-67 0-110-37-110-99s37-108 125-160c68 40 94 82 94 144zm-84-261-59 40c-59-48-80-89-80-154 0-92 51-144 127-144 65 0 110 45 110 110 0 62-30 102-98 148z"/><path id="STIXWEBMAIN-37" stroke-width="1" d="M449 646 237-8h-65l198 596H155c-58 0-75-14-117-82l-18 9 60 147h369z"/></defs><g id="grid"><path id="path4613" d="M20 476V0" class="grid"/><path id="path4615" d="M60 476V233.081m0-17.841V0" class="grid"/><path id="path4617" d="M100 476V0" class="grid"/><path id="path4619" d="M140 476V0" class="grid"/><path id="path4621" d="M180 476V0" class="grid"/><path id="path4623" d="M220 476V0" class="grid"/><path id="path4625" d="M260 476V233.081m0-18.693V0" class="grid"/><path id="path4627" d="M300 476V0" class="grid"/><path id="path4629" d="M340 476V0" class="grid"/><path id="path4631" d="M380 476V0" class="grid"/><path id="path4633" d="M420 476V0" class="grid"/><path id="path4635" d="M460 476V233.081m0-18.693V0" class="grid"/><path id="path4637" d="M500 476V0" class="grid"/><path id="path4639" d="M540 476V0" class="grid"/><path id="path4641" d="M580 476V0" class="grid"/><path id="path4643" d="M620 476V0" class="grid"/><path id="path4645" d="M660 476V233.081m0-18.693V0" class="grid"/><path id="path4647" d="M700 476V0" class="grid"/><path id="path4649" d="M740 476V0" class="grid"/><path id="path4651" d="M780 476V0" class="grid"/><path id="path4653" d="M820 476V0" class="grid"/><path id="path4655" d="M860 476V233.081m0-18.693V0" class="grid"/><path id="path4657" d="M900 476V0" class="grid"/><path id="path4659" d="M0 462h29.49m24.771 0H920" class="grid"/><path id="path4661" d="M0 434h29.49m24.771 0H920" class="grid"/><path id="path4663" d="M0 406h29.487m24.774 0H920" class="grid"/><path id="path4665" d="M0 378h920" class="grid"/><path id="path4667" d="M0 350h920" class="grid"/><path id="path4669" d="M0 322h920" class="grid"/><path id="path4671" d="M0 294h920" class="grid"/><path id="path4673" d="M0 266h920" class="grid"/><path id="path4675" d="M0 238h920" class="grid"/><path id="path4677" d="M0 210h920" class="grid"/><path id="path4679" d="M0 182h920" class="grid"/><path id="path4681" d="M0 154h920" class="grid"/><path id="path4683" d="M0 126h920" class="grid"/><path id="path4685" d="M0 98h920" class="grid"/><path id="path4687" d="M0 70h40.59m13.671 0H920" class="grid"/><path id="path4689" d="M0 42h40.593m13.668 0H920" class="grid"/><path id="path4691" d="M0 14h40.593m13.668 0H920" class="grid"/></g><g id="axes"><path id="path4694" d="M0 238h927.378" class="axes"/><path id="path4696" d="M60 476V233.081m0-17.841V-6.558" class="axes"/></g><g id="axes arrows"><path id="path4699" d="M923.443 233.081c0 1.968 2.951 4.919 3.935 4.919-.984 0-3.935 2.951-3.935 4.919" class="axes-arrows"/><path id="path4701" d="M55.081-2.623C57.05-2.623 60-5.575 60-6.558c0 .983 2.951 3.935 4.919 3.935" class="axes-arrows"/></g><g id="axes labels"><g id="g4714" class="axes-labels" transform="matrix(.01904 0 0 -.01904 943.774 242.509)"><use xlink:href="#STIXWEBNORMALI-1D461" id="use4704" x="0" y="0"/><use xlink:href="#STIXWEBMAIN-5B" id="use4706" x="646" y="0"/><g id="g4710" transform="translate(980)"><g id="text4708" aria-label="s" style="font-size:20.5px;font-family:baskerville" transform="scale(52.507 -52.507)"><path id="path5948" d="M.83.26v-2.692h.391Q1.901-.1 3.654-.1q.76 0 1.13-.46.381-.461.381-1.012 0-.64-.4-1.05-.41-.411-1.592-.992-1.241-.61-1.782-1.2-.54-.581-.54-1.432 0-.81.58-1.542.581-.74 1.632-.74 1.071 0 1.772.87.15-.15.39-.73h.37v2.532h-.37q-.2-.91-.78-1.561-.571-.66-1.352-.66-.6 0-.97.37-.371.37-.371.86 0 .54.41.931.4.4 1.532.911 1.701.77 2.082 1.502.38.74.38 1.421 0 1.071-.71 1.742-.701.67-1.772.67-1.132 0-2.012-.93-.27.3-.44.86z"/></g></g><use xlink:href="#STIXWEBMAIN-5D" id="use4712" x="1339" y="0"/></g><g id="g4740" class="axes-labels" transform="matrix(.01904 0 0 -.01904 43.19 -24.594)"><use xlink:href="#STIXWEBNORMALI-1D465" id="use4716" x="0" y="0"/><use xlink:href="#STIXWEBVARIANTS-2032" id="use4718" x="778" y="583" transform="scale(.707)"/><use xlink:href="#STIXWEBMAIN-28" id="use4720" x="891" y="0"/><use xlink:href="#STIXWEBNORMALI-1D461" id="use4722" x="1224" y="0"/><use xlink:href="#STIXWEBMAIN-29" id="use4724" x="1538" y="0"/><use xlink:href="#STIXWEBMAIN-5B" id="use4726" x="2371" y="0"/><g id="g4730" transform="translate(2705)"><g id="text4728" aria-label="c" style="font-size:20.5px;font-family:baskerville" transform="scale(52.507 -52.507)"><path id="path6088" d="M7.838-2.002h.44Q7.598.33 4.875.33 3.123.33 1.922-.86.73-2.053.73-4.015q0-2.012 1.291-3.263t3.053-1.251q1.061 0 1.952.47.89.46.89 1.131 0 .25-.17.47-.16.22-.47.22-.66 0-.81-.77-.12-.58-.371-.81-.26-.23-1.011-.23-1.341 0-2.022.93-.67.931-.67 2.803 0 1.932.72 3.023.73 1.09 2.202 1.09 1.982 0 2.523-1.801z"/></g></g><use xlink:href="#STIXWEBMAIN-2F" id="use4732" x="3205" y="0"/><g id="g4736" transform="translate(3484)"><g id="text4734" aria-label="s" style="font-size:20.5px;font-family:baskerville" transform="scale(52.507 -52.507)"><path id="path6091" d="M.83.26v-2.692h.391Q1.901-.1 3.654-.1q.76 0 1.13-.46.381-.461.381-1.012 0-.64-.4-1.05-.41-.411-1.592-.992-1.241-.61-1.782-1.2-.54-.581-.54-1.432 0-.81.58-1.542.581-.74 1.632-.74 1.071 0 1.772.87.15-.15.39-.73h.37v2.532h-.37q-.2-.91-.78-1.561-.571-.66-1.352-.66-.6 0-.97.37-.371.37-.371.86 0 .54.41.931.4.4 1.532.911 1.701.77 2.082 1.502.38.74.38 1.421 0 1.071-.71 1.742-.701.67-1.772.67-1.132 0-2.012-.93-.27.3-.44.86z"/></g></g><use xlink:href="#STIXWEBMAIN-5D" id="use4738" x="3843" y="0"/></g></g><g id="annotations"><g id="g4745" class="axes-labels" transform="matrix(0 -.01904 -.01904 0 -40 284.876)"><g id="text4743" aria-label="(horizontal)" style="font-size:20.5px;font-family:baskerville" transform="scale(52.507 -52.507)"><path id="path5781" d="M5.015 4.895h-.69Q.98.74.98-4.605q0-5.054 3.233-9.098h.69q-1.59 1.751-2.452 4.134-.85 2.382-.85 4.894 0 3.113.99 5.616 1.002 2.512 2.423 3.954z"/><path id="path5783" d="M8.258-6.847q.6-.84 1.341-1.26.751-.421 1.642-.421 1.011 0 1.672.42.67.42.87 1.041.2.61.2 1.992v2.262q0 1.442.05 1.752.06.31.331.46.27.14 1.001.14V0h-4.234v-.46h.19q.73 0 .941-.21.22-.21.25-.491.04-.29.04-1.652v-2.462q0-1.021-.12-1.512-.12-.49-.57-.81-.44-.32-1.112-.32-.78 0-1.4.46-.621.45-1.092 1.361v3.283q0 1.382.04 1.702.05.32.31.49.26.16.951.16V0H5.395v-.46h.21q.721 0 .931-.2.22-.21.25-.491.04-.29.04-1.662v-8.168q0-1.24-.24-1.571-.23-.33-1.12-.33v-.461q1.55 0 2.582-.42h.21z"/><path id="path5785" d="M16.566-4.114q0-1.882 1.261-3.143 1.262-1.271 3.103-1.271 1.852 0 3.113 1.27 1.262 1.272 1.262 3.144 0 2.072-1.282 3.263Q22.743.33 20.93.33q-1.811 0-3.093-1.2-1.27-1.212-1.27-3.244zm1.662.05q0 2.182.71 3.063.711.87 1.992.87 1.312 0 2.002-.87.701-.88.701-3.063 0-2.162-.69-3.083-.691-.92-2.013-.92-1.31 0-2.012.92-.69.91-.69 3.083z"/><path id="path5787" d="M29.469-6.436q.34-.891 1.1-1.492.772-.6 1.502-.6.66 0 1.041.41.38.41.38.84 0 .291-.2.501-.19.21-.47.21-.5 0-.76-.74-.18-.5-.541-.5-.43 0-1.031.59-.6.58-.771 1.211-.17.63-.17 1.732v1.461q0 1.312.03 1.652.04.34.29.52.25.18.891.18h.28V0h-4.354v-.46h.21q.6 0 .851-.16.26-.17.31-.471.05-.3.05-1.722v-2.312q0-1.321-.04-1.652-.03-.34-.28-.52-.25-.19-.89-.19h-.211v-.45q.941-.11 2.462-.591.29.79.32 2.092z"/><path id="path5789" d="M34.904-12.712q0-.43.3-.741.31-.31.741-.31.43 0 .73.31.301.31.301.74 0 .441-.3.751t-.73.31q-.431 0-.742-.31-.3-.31-.3-.75zm1.932 4.184v5.715q0 1.312.04 1.652.04.34.29.52.25.18.891.18h.21V0h-4.414v-.46h.34q.711 0 .921-.2.22-.21.25-.491.04-.29.04-1.662v-2.482q0-1.442-.14-1.762-.13-.32-.36-.4-.22-.08-.78-.08h-.271v-.46q1.782-.181 2.763-.531z"/><path id="path5791" d="M39.188 0v-.31l5.436-7.428H41.64q-.57 0-.781.08-.2.07-.49.481-.28.4-.571 1.251h-.37l.13-2.272h6.866v.36L41.02-.46h2.242q1.091 0 1.462-.12.37-.12.73-.591.36-.48.721-1.442h.4L46.335 0Z"/><path id="path5793" d="M47.977-4.114q0-1.882 1.261-3.143 1.261-1.271 3.103-1.271 1.852 0 3.113 1.27 1.261 1.272 1.261 3.144 0 2.072-1.28 3.263Q54.152.33 52.34.33q-1.812 0-3.093-1.2-1.271-1.212-1.271-3.244zm1.661.05q0 2.182.711 3.063.71.87 1.992.87 1.311 0 2.002-.87.7-.88.7-3.063 0-2.162-.69-3.083-.69-.92-2.012-.92-1.311 0-2.012.92-.69.91-.69 3.083z"/><path id="path5795" d="M60.289-8.528h.27q.23.62.26 1.691.721-.85 1.512-1.27.79-.421 1.651-.421.981 0 1.602.41.63.41.81 1.011.181.59.181 1.732v2.562q0 1.422.05 1.732.05.31.31.47.27.15.981.15V0h-4.194v-.46h.19q.721 0 .941-.21.22-.21.25-.491.03-.28.03-1.652v-2.642q0-.971-.1-1.382-.09-.42-.51-.74-.41-.32-1.051-.32-.73 0-1.401.44-.661.43-1.252 1.301v3.343q0 1.422.05 1.732.06.31.32.47.271.15.992.15V0h-4.144v-.46q.69 0 .96-.14t.33-.421q.071-.29.071-1.792v-2.442q0-1.432-.06-1.732-.05-.31-.32-.46-.26-.16-.981-.16v-.46q1.1-.121 2.252-.461z"/><path id="path5797" d="M73.982-7.738H71.51v4.955q0 1.141.1 1.542.1.39.42.63.33.24.701.24.72 0 1.251-.82l.32.19q-.31.66-.92 1.001-.601.33-1.222.33-.72 0-1.27-.42-.541-.43-.682-1.001-.13-.57-.13-2.002v-4.645h-1.19v-.46q.82-.02 1.47-.69.651-.671.831-1.883h.32v2.573h2.473z"/><path id="path5799" d="M83.361-1.501h.37Q83.642.21 82.05.21q-.68 0-1.081-.36-.39-.36-.51-1.071-1.001.71-1.832 1.07-.821.361-1.472.361-.83 0-1.431-.48-.6-.48-.6-1.272 0-1.03 1-1.801 1.011-.771 2.783-1.502l1.551-.63v-.4q0-.852-.11-1.232t-.57-.68q-.46-.3-1.211-.3-1.502 0-1.672 1-.16 1.021-.84 1.021-.611 0-.611-.58 0-.571.81-1.222.811-.66 2.523-.66 1.271 0 1.972.4.7.4.92.911.23.51.23 1.561v3.314q0 1.16.121 1.491.12.33.52.33.661 0 .821-.98zm-2.903-3.504-1.09.44q-2.583 1.052-2.583 2.643 0 .63.33 1.021.33.38.861.38.47 0 1.091-.31.62-.31 1.391-.93z"/><path id="path5801" d="M87.085-13.763v10.95q0 1.312.03 1.652.04.34.29.52.25.18.891.18h.24V0h-4.384v-.46h.28q.601 0 .851-.16.26-.17.31-.471.05-.3.05-1.722v-8.108q0-1.29-.23-1.621-.23-.34-1.12-.34v-.461q.61 0 1.43-.14.831-.14 1.142-.28z"/><path id="path5803" d="M88.747 4.895Q90.158 3.453 91.149.94q1-2.503 1-5.616 0-2.392-.81-4.784-.81-2.393-2.492-4.244h.7q3.234 4.044 3.234 9.099 0 5.345-3.344 9.499z"/></g></g></g><g id="graphs"><path id="path4748" d="M0 238h107.416l.08 176.33 2.936 13.966 1.984-12 1.984 11.813 1.984.252 1.984-11.119 1.984 6.768 1.984 5.933 1.984-13.185 1.984 11.449 2.936-2.181.08-188.026h32.76l.08-203.143 2.912 16.517 1.964-6.24 1.968 3.012 1.968.347 1.964.86 1.968-1.86 1.968 3.142 1.964-4.76 1.968 4.802 1.964-4.9 1.968 4.536 1.968-5.034 1.968 4.256 1.964 1.1 1.968-4.956 1.964 4.872 2.912-1.271.08 188.72h35.76l.08 191.464 2.86-2.383 1.932 5.203 1.936-1.95 1.932 12.424 1.932-9.466 1.936 1.386 1.932-8.076 2.86 4.797L250.8 238h35.28l.08-187.34 2.956 1.89 1.996 1.465 2-6.127 1.996.678 2 .84 1.996 4.018 1.996-4.194 2 2.732 1.996-1.302 1.996-3.122 2 3.31 1.996-.378 2 .19 1.996 2.546 1.996-4.665 2 3.13 1.996.392 1.996 1.123 2-5.317 1.996 3.351 2-1.159 1.996-1.254 1.996 6.205 2-9.57 1.996 6.075 1.996 3.422 2-9.464 1.996 7.532 2-.095 1.996-5.133 1.996.137 2 7.432 1.996-9.54 1.996 7.258 2-.213 1.996-6.888 2 6.339 1.996 2.153 1.996-7.179 2 3.752 1.996 1.764 1.996-4.749 2-.269 1.996 7.084 2-6.52 1.996 2.32L381 52.732l2-6.68 1.996 6.398 1.996 1.246 2-5.444 1.996-.58 2 7.127 1.996-8.515 1.996 5.972 2 .608 1.996-5.939 1.996 6.365 2-5.046 1.996 4.57 2-3.408 1.996-9.316 2.956 8.45L414 238h27.32l.08-188.222 2.928 1.277 1.98.359 1.98-4.912 1.98 5.908 1.98-5.275 1.976 1.523 1.98 4.721 1.98-6.196 1.98.361 1.98 6.073 1.976-9.78 1.98 7.722 1.98.583 1.98-5.295 1.98-.345 1.976 8.784 1.98-10.814 1.98 5.306 1.98-3.17 1.98 7.158 1.98-7.728 1.976 6.812 1.98-2.842 1.98-4.469 1.98 7.311 2.928-14.25.08 199.4h17.64l.08-200.25 2.908 11.09 1.964 2.375 1.964-6.516 1.964 4.923 1.964-.782 1.964-1.836 1.964.918 1.964 1.16 1.968-.97 1.964 3.478 1.964-3.713 1.964-2.03 1.964 2.993 1.964 3.506 1.964-5.78 1.964-1.004 1.964 7.257 1.968-9.772 1.964 5.793 1.964 3.542 1.964-5.852 1.964 2.31 1.964 2.375 1.964-7.028 1.964 5.925 2.908-13.183L565.6 238H583l.08 198.724 2.848-4.407 1.924-3.178 1.924 2.285 1.924.876 1.924-3.774 1.924 4.026 1.924 11.62 2.848-15.274L600.4 238h17.28l.08-182.748 2.664-5.07 1.808-.082 1.8 8.238 1.804-15.459 1.808 3.637 1.8 7.927 1.804.311 1.808-12.11 2.664 11.592L635.8 238h4.096l.08 181.849 2.936 5.642 1.984.467 1.98 1.588 1.984-1.548 1.984-3.274 1.984 6.155 1.984.263 1.984-6.373 1.984 7.555 1.984-7.762 1.984 5.426 1.984 1.078 1.984-3.824 1.98-1.165 1.984 3.55 1.984.927 2.936 7.132.08-197.686h71.28l.08-199.766 2.28 6.55L749.4 238h23.336l.08-158.25 1.344-16.756.08 385.216 2.74-13.737 1.856-.72 1.856.77 1.852-.87 1.856-1.271 1.856 15.918 1.852-15.613 1.856-.381 1.856.25 2.74 5.571.08-200.127h21.256l.08 173.36 2.912 13.056 1.968.324 1.968 3.302 1.964-6.933 1.968 4.847 1.968 1.089 1.968-5.438 1.968 3.206 1.968 2.775 1.968-5.466 1.968 1.375 1.968 4.696 1.968-3.453 1.964-2.99 1.968 5.768 1.968-2.778 1.968-2.472 2.912 4.774.08-189.042h23.256l.08 184.498 2.704 5.289 1.828-4.878 1.832 14.501 1.828-12.706 1.828 2.708 1.832 11.541 1.828-1.319 2.704-12.566.08-187.068H920" style="fill:none;stroke:red;stroke-width:1.5;stroke-dasharray:none"/><g id="g809152" transform="translate(0 -379.043)"><path id="path4677-1" d="M-581.893 192.81h920" class="grid" style="stroke:#0f0;stroke-width:.4"/><g id="g809002" transform="translate(-581.893 -17.19)"><path id="path5781-9" d="M-24.92 280.699v.704q-4.236 3.41-9.687 3.41-5.155 0-9.279-3.297v-.705q1.787 1.623 4.216 2.501 2.43.868 4.992.868 3.174 0 5.726-1.01 2.562-1.022 4.032-2.471z" style="font-size:20.5px;font-family:baskerville;fill:#000;stroke:#000;stroke-width:.1;stroke-dasharray:none;stroke-opacity:1"/><path id="path5783-4" d="M-36.893 277.392q-.858-.613-1.287-1.368-.428-.766-.428-1.674 0-1.031.428-1.705.43-.684 1.062-.888.623-.204 2.031-.204h2.307q1.47 0 1.787-.051.316-.061.47-.337.142-.276.142-1.02h.47v4.317h-.47v-.194q0-.745-.214-.96-.215-.224-.5-.255-.296-.04-1.685-.04h-2.51q-1.042 0-1.542.122-.5.123-.827.582-.327.45-.327 1.133 0 .796.47 1.43.46.632 1.388 1.112h3.348q1.409 0 1.736-.041.326-.051.5-.317.163-.265.163-.97h.47v4.247h-.47v-.214q0-.735-.204-.95-.214-.224-.5-.255-.296-.04-1.695-.04h-8.33q-1.265 0-1.602.244-.337.235-.337 1.144h-.47q0-1.582-.428-2.634v-.214z" style="font-size:20.5px;font-family:baskerville;fill:#000;stroke:#000;stroke-width:.1;stroke-dasharray:none;stroke-opacity:1"/><path id="path5785-2" d="M-34.107 268.92q-1.919 0-3.205-1.287-1.296-1.286-1.296-3.164 0-1.889 1.296-3.175 1.296-1.286 3.205-1.286 2.113 0 3.328 1.307 1.205 1.306 1.205 3.154 0 1.847-1.225 3.154-1.236 1.296-3.308 1.296zm.051-1.695q2.226 0 3.124-.725.888-.725.888-2.031 0-1.337-.888-2.042-.898-.714-3.124-.714-2.205 0-3.144.704-.939.704-.939 2.052 0 1.337.94 2.052.928.704 3.143.704z" style="font-size:20.5px;font-family:baskerville;fill:#000;stroke:#000;stroke-width:.1;stroke-dasharray:none;stroke-opacity:1"/><path id="path5787-7" d="M-36.475 255.762q-.908-.347-1.52-1.123-.613-.786-.613-1.531 0-.674.418-1.062.419-.388.858-.388.296 0 .51.204.214.194.214.48 0 .51-.755.776-.51.184-.51.551 0 .439.602 1.051.592.613 1.235.786.643.174 1.766.174h1.49q1.338 0 1.685-.03.347-.041.53-.297.184-.255.184-.908v-.286h.47v4.44h-.47v-.214q0-.612-.163-.868-.174-.265-.48-.316-.306-.051-1.756-.051h-2.358q-1.347 0-1.684.04-.347.031-.53.287-.195.255-.195.908v.214h-.459q-.112-.96-.602-2.51.806-.297 2.133-.327z" style="font-size:20.5px;font-family:baskerville;fill:#000;stroke:#000;stroke-width:.1;stroke-dasharray:none;stroke-opacity:1"/><path id="path5789-4" d="M-42.875 250.219q-.439 0-.755-.306-.317-.317-.317-.756t.317-.745q.316-.306.755-.306.45 0 .766.306t.316.745q0 .44-.316.756-.317.306-.766.306zm4.267-1.97h5.828q1.338 0 1.685-.041.347-.04.53-.296.184-.255.184-.909v-.214h.47v4.502h-.47v-.347q0-.725-.204-.94-.214-.224-.5-.255-.296-.04-1.695-.04h-2.531q-1.47 0-1.797.142-.326.133-.408.368-.082.224-.082.796v.276h-.47q-.183-1.817-.54-2.818z" style="font-size:20.5px;font-family:baskerville;fill:#000;stroke:#000;stroke-width:.1;stroke-dasharray:none;stroke-opacity:1"/><path id="path5791-4" d="M-29.911 245.85h-.317l-7.574-5.543v3.042q0 .582.082.796.071.204.49.5.408.286 1.276.582v.378l-2.317-.133v-7.002h.367l7.523 5.512v-2.287q0-1.112-.122-1.49-.123-.378-.603-.745-.49-.368-1.47-.735v-.408l2.665.245z" style="font-size:20.5px;font-family:baskerville;fill:#000;stroke:#000;stroke-width:.1;stroke-dasharray:none;stroke-opacity:1"/><path id="path5793-6" d="M-34.107 236.888q-1.919 0-3.205-1.287-1.296-1.286-1.296-3.164 0-1.888 1.296-3.174 1.296-1.287 3.205-1.287 2.113 0 3.328 1.307 1.205 1.307 1.205 3.154 0 1.848-1.225 3.154-1.236 1.297-3.308 1.297zm.051-1.695q2.226 0 3.124-.725.888-.724.888-2.03 0-1.338-.888-2.042-.898-.715-3.124-.715-2.205 0-3.144.704-.939.705-.939 2.052 0 1.337.94 2.052.928.704 3.143.704z" style="font-size:20.5px;font-family:baskerville;fill:#000;stroke:#000;stroke-width:.1;stroke-dasharray:none;stroke-opacity:1"/><path id="path5795-5" d="M-38.608 224.332v-.275q.633-.235 1.725-.266-.868-.735-1.297-1.541-.428-.807-.428-1.684 0-1 .418-1.634.419-.643 1.031-.826.602-.184 1.766-.184h2.613q1.45 0 1.766-.051.317-.051.48-.317.153-.275.153-1h.47v4.277h-.47v-.194q0-.735-.214-.96-.215-.224-.5-.255-.286-.03-1.685-.03h-2.695q-.99 0-1.408.102-.429.092-.756.52-.326.419-.326 1.072 0 .745.449 1.43.439.673 1.327 1.275h3.41q1.449 0 1.765-.05.317-.062.48-.327.153-.276.153-1.01h.47v4.225h-.47q0-.704-.143-.98t-.429-.337q-.296-.071-1.827-.071h-2.49q-1.46 0-1.766.061-.317.051-.47.327-.163.265-.163 1h-.47q-.122-1.123-.47-2.297z" style="font-size:20.5px;font-family:baskerville;fill:#000;stroke:#000;stroke-width:.1;stroke-dasharray:none;stroke-opacity:1"/><path id="path5797-5" d="M-37.802 210.368v2.521h5.053q1.164 0 1.572-.102.398-.102.643-.428.245-.337.245-.715 0-.735-.837-1.276l.194-.327q.674.317 1.02.94.338.612.338 1.245 0 .735-.43 1.296-.438.551-1.02.694-.582.133-2.042.133h-4.736v1.215h-.47q-.02-.837-.704-1.5-.684-.664-1.919-.848v-.327h2.624v-2.52z" style="font-size:20.5px;font-family:baskerville;fill:#000;stroke:#000;stroke-width:.1;stroke-dasharray:none;stroke-opacity:1"/><path id="path5799-5" d="M-31.442 200.804v-.378q1.745.092 1.745 1.715 0 .694-.367 1.102-.368.398-1.093.52.725 1.022 1.093 1.869.367.837.367 1.5 0 .848-.49 1.46t-1.296.612q-1.052 0-1.838-1.02-.786-1.031-1.53-2.838l-.644-1.582h-.408q-.868 0-1.256.112t-.694.582q-.306.47-.306 1.235 0 1.531 1.02 1.705 1.042.163 1.042.857 0 .623-.592.623-.582 0-1.246-.827-.673-.827-.673-2.572 0-1.297.408-2.011.408-.715.929-.94.52-.234 1.592-.234h3.38q1.183 0 1.52-.123.337-.122.337-.53 0-.674-1-.837zm-3.573 2.96.449 1.112q1.072 2.634 2.695 2.634.643 0 1.041-.337.388-.337.388-.878 0-.48-.317-1.112-.316-.633-.949-1.42z" style="font-size:20.5px;font-family:baskerville;fill:#000;stroke:#000;stroke-width:.1;stroke-dasharray:none;stroke-opacity:1"/><path id="path5801-7" d="M-43.947 197.006h11.167q1.338 0 1.685-.03.347-.041.53-.296.184-.256.184-.909v-.245h.47v4.471h-.47v-.286q0-.612-.163-.867-.174-.266-.48-.317-.306-.05-1.756-.05h-8.268q-1.317 0-1.654.234-.347.235-.347 1.143h-.47q0-.622-.142-1.46-.143-.847-.286-1.163z" style="font-size:20.5px;font-family:baskerville;fill:#000;stroke:#000;stroke-width:.1;stroke-dasharray:none;stroke-opacity:1"/><path id="path5803-8" d="M-24.92 195.312q-1.47-1.44-4.032-2.45-2.552-1.02-5.726-1.02-2.44 0-4.88.826-2.44.827-4.328 2.542v-.715q4.124-3.297 9.28-3.297 5.45 0 9.686 3.41z" style="font-size:20.5px;font-family:baskerville;fill:#000;stroke:#000;stroke-width:.1;stroke-dasharray:none;stroke-opacity:1"/></g></g></g><g id="notch labels" style="stroke:none;fill:#b8b8de"><g id="g4759" transform="matrix(.01618 0 0 -.01618 51.9 229.257)"><use xlink:href="#STIXWEBMAIN-34" id="use4755"/><use xlink:href="#STIXWEBMAIN-30" id="use4757" x="500" y="0"/></g><g id="g4765" transform="matrix(.01618 0 0 -.01618 251.9 229.255)"><use xlink:href="#STIXWEBMAIN-34" id="use4761"/><use xlink:href="#STIXWEBMAIN-35" id="use4763" x="500" y="0"/></g><g id="g4771" transform="matrix(.01618 0 0 -.01618 451.9 229.255)"><use xlink:href="#STIXWEBMAIN-35" id="use4767"/><use xlink:href="#STIXWEBMAIN-30" id="use4769" x="500" y="0"/></g><g id="g4777" transform="matrix(.01618 0 0 -.01618 651.9 229.255)"><use xlink:href="#STIXWEBMAIN-35" id="use4773"/><use xlink:href="#STIXWEBMAIN-35" id="use4775" x="500" y="0"/></g><g id="g4783" transform="matrix(.01618 0 0 -.01618 851.9 229.255)"><use xlink:href="#STIXWEBMAIN-36" id="use4779"/><use xlink:href="#STIXWEBMAIN-30" id="use4781" x="500" y="0"/></g><g id="g4789" transform="matrix(.01619 0 0 -.01619 32.277 467.467)"><use xlink:href="#STIXWEBMAIN-2212" id="use4785" x="0" y="0"/><use xlink:href="#STIXWEBMAIN-38" id="use4787" x="685" y="0"/></g><g id="g4795" transform="matrix(.01619 0 0 -.01619 32.277 439.467)"><use xlink:href="#STIXWEBMAIN-2212" id="use4791" x="0" y="0"/><use xlink:href="#STIXWEBMAIN-37" id="use4793" x="685" y="0"/></g><g id="g4801" transform="matrix(.01619 0 0 -.01619 32.276 411.47)"><use xlink:href="#STIXWEBMAIN-2212" id="use4797" x="0" y="0"/><use xlink:href="#STIXWEBMAIN-36" id="use4799" x="685" y="0"/></g><g id="g4805" transform="matrix(.01618 0 0 -.01618 43.378 75.467)"><use xlink:href="#STIXWEBMAIN-36" id="use4803" x="0" y="0"/></g><g id="g4809" transform="matrix(.01618 0 0 -.01618 43.379 47.465)"><use xlink:href="#STIXWEBMAIN-37" id="use4807" x="0" y="0"/></g><g id="g4813" transform="matrix(.01618 0 0 -.01618 43.379 19.465)"><use xlink:href="#STIXWEBMAIN-38" id="use4811" x="0" y="0"/></g></g></svg>