<svg xmlns="http://www.w3.org/2000/svg" xmlns:xlink="http://www.w3.org/1999/xlink" id="svg143312" width="470" height="261" preserveAspectRatio="none" version="1.1" viewBox="-10 -50 470 261"><style id="style143212" type="text/css">.grid{stroke:#9e9ed1;stroke-width:.4}.axes{stroke:#000;stroke-width:.9}.axes-arrows{stroke-width:1.2100000000000002;stroke:#000;fill:none;stroke-linecap:round;stroke-linejoin:round}.axes-labels{stroke:none;fill:#000}.none{display:none}</style><defs id="defs143223"><path id="STIXWEBMAIN-5B" stroke-width="1" d="M299-156H88v818h211v-25h-83c-34 0-52-12-52-48V-77c0-40 19-54 52-54h83v-25Z"/><path id="STIXWEBMAIN-5D" stroke-width="1" d="M245-156H34v25h88c35 0 47 15 47 46v668c0 35-13 54-51 54H34v25h211v-818Z"/><path id="STIXWEBMAIN-30" stroke-width="1" d="M476 330c0-172-63-344-226-344C79-14 24 172 24 336c0 177 69 340 230 340 131 0 222-141 222-346zm-96-5c0 208-44 325-132 325-83 0-128-118-128-321S164 12 250 12c85 0 130 115 130 313Z"/><path id="STIXWEBMAIN-32" stroke-width="1" d="M474 137 420 0H29v12l178 189c94 99 130 175 130 260 0 91-54 141-139 141-72 0-107-32-147-130l-21 5c21 117 85 199 208 199 113 0 185-77 185-176 0-79-39-154-128-248L130 76h234c42 0 63 11 96 67Z"/><path id="STIXWEBMAIN-34" stroke-width="1" d="M473 167H370V0h-78v167H12v64l314 445h44V231h103v-64zm-181 64v343L52 231h240Z"/><path id="STIXWEBMAIN-36" stroke-width="1" d="m446 684 2-16c-157-26-269-134-296-285 49 38 83 45 127 45 117 0 189-80 189-209 0-64-18-120-51-160-37-46-93-73-159-73-79 0-142 37-177 101-28 51-47 122-47 192 0 108 38 203 109 276 86 90 165 114 303 129zm-68-496c0 128-42 194-135 194-57 0-116-24-116-116 0-152 48-252 142-252 72 0 109 72 109 174Z"/><clipPath id="trbl_clip_0_400_201_0"><path id="path143214" d="M0 0h400v201H0Z"/></clipPath></defs><g id="grid"><path id="path143225" d="M25 201V0" class="grid"/><path id="path143227" d="M75 201V0" class="grid"/><path id="path143229" d="M125 201V0" class="grid"/><path id="path143231" d="M175 182.378V0" class="grid"/><path id="path143233" d="M225 201V0" class="grid"/><path id="path143235" d="M275 182.378V0" class="grid"/><path id="path143237" d="M325 201V0" class="grid"/><path id="path143239" d="M375 182.378V0" class="grid"/><path id="path143241" d="M0 175h400" class="grid"/><path id="path143243" d="M0 125h400" class="grid"/><path id="path143245" d="M0 75h54m13.622 0H400" class="grid"/><path id="path143247" d="M0 25h400" class="grid"/></g><g id="axes"><path id="path143250" d="M0 175h410.657" class="axes"/><path id="path143252" d="M75 201V-8.198" class="axes"/></g><g id="axes arrows"><path id="path143255" d="M405.739 168.852c0 2.459 3.689 6.148 4.918 6.148-1.23 0-4.918 3.69-4.918 6.148" class="axes-arrows"/><path id="path143257" d="M68.852-3.28C71.31-3.28 75-6.967 75-8.197c0 1.23 3.689 4.919 6.148 4.919" class="axes-arrows"/></g><g id="axes labels"><g id="g143268" class="axes-labels" transform="matrix(.01904 0 0 -.01904 422.954 179.509)"><use xlink:href="#STIXWEBMAIN-5B" id="use143260" x="0" y="0"/><g id="g143264" transform="translate(333)"><text id="text143262" stroke="none" direction="ltr" style="font-family:baskerville;font-size:20.5px" transform="scale(52.507 -52.507)">hr</text></g><use xlink:href="#STIXWEBMAIN-5D" id="use143266" x="1298" y="0"/></g><g id="g143278" class="axes-labels" transform="matrix(.01904 0 0 -.01904 55.727 -24.594)"><use xlink:href="#STIXWEBMAIN-5B" id="use143270" x="0" y="0"/><g id="g143274" transform="translate(333)"><text id="text143272" stroke="none" direction="ltr" style="font-family:baskerville;font-size:20.5px" transform="scale(52.507 -52.507)">km</text></g><use xlink:href="#STIXWEBMAIN-5D" id="use143276" x="1690" y="0"/></g></g><g id="graphs"><g id="g143287" clip-path="url(#trbl_clip_0_400_201_0)"><path id="path143281" d="m-75 75 100 50 100-50 100 50 100-50 100 50" style="stroke:red;stroke-width:1.7;fill:none"/></g></g><g id="notch labels" style="stroke:none;fill:#b8b8de"><g id="g143292" transform="matrix(.01903 0 0 -.01903 56.048 200.5)"><use xlink:href="#STIXWEBMAIN-30" id="use143290" x="0" y="0"/></g><g id="g143296" transform="matrix(.01903 0 0 -.01903 170.237 200.5)"><use xlink:href="#STIXWEBMAIN-32" id="use143294" x="0" y="0"/></g><g id="g143300" transform="matrix(.01903 0 0 -.01903 270.237 200.5)"><use xlink:href="#STIXWEBMAIN-34" id="use143298" x="0" y="0"/></g><g id="g143304" transform="matrix(.01903 0 0 -.01903 370.237 201.5)"><use xlink:href="#STIXWEBMAIN-36" id="use143302" x="0" y="0"/></g><g id="g143308" transform="matrix(.01903 0 0 -.01903 56.048 81.429)"><use xlink:href="#STIXWEBMAIN-32" id="use143306" x="0" y="0"/></g></g></svg>