<svg xmlns="http://www.w3.org/2000/svg" width="450" height="245"><path d="M18.796 13.57V8.948h10.971V6.95l4.083 4.287-4.083 4.156v-1.821z" style="fill:#b1ffe8;fill-opacity:1;stroke:#000;stroke-width:.3;stroke-miterlimit:4;stroke-dasharray:none" transform="translate(-7.501 4.787) scale(3.381)"/><g aria-label="START" style="font-size:7.9375px;line-height:1.25;font-family:sans-serif;stroke-width:.834253;stroke-miterlimit:4;stroke-dasharray:none"><path d="M10.926 28.908v-.667h2.881l.429-.437v-1.167l-.429-.436h-2.262l-.826-.826v-1.484l.826-.833h3.111v.666H11.87l-.436.437.008.968.428.437h2.262l.826.833v1.675l-.826.834zM17.123 28.908v-5.184h-1.739v-.666h4.2v.666h-1.739v5.184zM19.19 28.908l1.977-5.85h1.12l1.976 5.85h-.754l-.5-1.524h-2.564l-.492 1.524zm1.469-2.16h2.143l-.984-3.008h-.183zM25.072 28.908v-5.85h3.199l.825.833v1.865l-.825.834h-.024l1.056 2.318H28.5l-1.04-2.318h-1.667v2.318zm.722-2.961h2.151l.429-.437v-1.373l-.429-.436h-2.15zM31.432 28.908v-5.184h-1.738v-.666h4.199v.666h-1.739v5.184z" style="font-style:normal;font-variant:normal;font-weight:400;font-stretch:normal;font-family:Tomorrow;-inkscape-font-specification:Tomorrow;stroke-width:.834253;stroke-miterlimit:4;stroke-dasharray:none" transform="matrix(1.66257 0 0 1.58065 41.414 1.866)"/></g><path d="M94.553 63.08v-4.624h-7.53v-1.998l-3.917 4.287 3.917 4.156V63.08z" style="fill:#ffc3cc;fill-opacity:1;stroke:#000;stroke-width:.3;stroke-miterlimit:4;stroke-dasharray:none" transform="translate(22.135 24.024) scale(3.381)"/><g aria-label="END" style="font-size:7.9375px;line-height:1.25;font-family:sans-serif;stroke-width:.836237;stroke-miterlimit:4;stroke-dasharray:none"><path d="M20.728 51.554v-5.85h3.857v.666H21.45v1.778h2.802v.66H21.45v2.079h3.135v.667zM25.689 51.554v-5.85h.984l2.611 4.707v-4.707h.723v5.85h-.858l-2.564-4.62h-.174v4.62zM31.394 51.554v-5.85h3.175l1.214 1.23v3.39l-1.214 1.23zm.722-.643h2.127l.818-.834V47.18l-.818-.833h-2.127z" style="font-style:normal;font-variant:normal;font-weight:400;font-stretch:normal;font-family:Tomorrow;-inkscape-font-specification:Tomorrow;stroke-width:.836237;stroke-miterlimit:4;stroke-dasharray:none" transform="matrix(1.65469 0 0 1.58065 278.863 152.698)"/></g><path d="M118.81 43.428h50.494v-1.637H118.81zM128.972 15.053l-.357.137q-.383.137-1.096.274-.713.137-1.59.192h-.521v-1.261h.52q1.29-.055 2.386-.412 1.096-.356 1.535-.658.439-.301.768-.603.055-.082.329-.082.247 0 .466.164v8.198l.027 8.226q.192.191.33.246.136.055.657.11t1.7.055h.713V30.9h-.301q-.576-.082-4.36-.082-3.729 0-4.304.082h-.33v-1.261h1.755q.439 0 .686-.028.247-.027.438-.082.192-.055.22-.055.027 0 .164-.137t.165-.11zM139.473 14.86q1.535-2.22 4.195-2.22 1.316 0 2.632.713t2.138 2.522q1.015 2.276 1.015 6.251 0 4.25-1.18 6.498-.548 1.152-1.507 1.837-.96.686-1.673.85-.713.165-1.398.192-.713 0-1.426-.164-.713-.165-1.672-.878-.96-.712-1.508-1.837-1.18-2.248-1.18-6.498 0-4.77 1.564-7.265zm6.169-.328q-.823-.878-1.947-.878-1.151 0-1.974.878-.685.713-.905 1.974-.22 1.261-.22 5.264 0 4.332.22 5.703.22 1.37.987 2.166.768.822 1.892.822 1.097 0 1.864-.822.796-.823.987-2.303.192-1.48.22-5.566 0-3.976-.22-5.237-.219-1.261-.904-2.001zM150.965 14.541q.02-.116.059-.31.038-.194.232-.737.194-.542.388-.91.194-.369.64-.718.445-.349.891-.33.698 0 1.163.35.465.348.582.659.116.31.116.407 0 .038.02.038l.212-.213q1.183-1.24 2.695-1.24 1.046 0 1.686.523.64.523.659 1.531.02 1.008-.737 3.043-.756 2.036-.736 2.462 0 .504.33.504.116 0 .174-.02.562-.096 1.008-.736.445-.64.678-1.55.039-.156.388-.156.387 0 .387.155 0 .02-.077.291-.155.562-.427 1.105-.27.543-.891 1.085-.62.543-1.338.524-.91 0-1.318-.524-.407-.523-.407-1.085 0-.368.698-2.326.698-1.958.717-2.946 0-1.144-.853-1.144h-.096q-1.667 0-2.811 1.958l-.136.232-.64 2.598q-.639 2.539-.736 2.733-.252.523-.833.523-.252 0-.407-.116-.155-.117-.214-.233-.058-.116-.038-.194 0-.252.736-3.159.737-2.907.776-3.16.019-.096.019-.445 0-.756-.465-.756-.737 0-1.221 1.938-.117.388-.117.407-.038.116-.368.116h-.271q-.117-.116-.117-.174zM126.287 52.41l-.356.136q-.384.137-1.097.274t-1.59.192h-.521v-1.26h.52q1.29-.056 2.386-.412 1.097-.357 1.536-.658.438-.302.767-.603.055-.083.33-.083.246 0 .465.165v8.198l.028 8.225q.192.192.329.247.137.055.658.11.52.054 1.7.054h.713v1.262h-.302q-.576-.083-4.36-.083-3.728 0-4.304.083h-.329v-1.262h1.755q.438 0 .685-.027.247-.028.439-.082.192-.055.22-.055.027 0 .164-.137t.164-.11zM136.788 52.217q1.535-2.22 4.195-2.22 1.316 0 2.632.712 1.316.713 2.139 2.523 1.014 2.275 1.014 6.25 0 4.25-1.179 6.499-.548 1.151-1.508 1.837-.96.685-1.672.85-.713.164-1.399.192-.712 0-1.425-.165-.713-.164-1.673-.877-.96-.713-1.508-1.837-1.179-2.248-1.179-6.498 0-4.77 1.563-7.266zm6.17-.329q-.823-.877-1.948-.877-1.151 0-1.974.877-.685.713-.904 1.974-.22 1.261-.22 5.264 0 4.332.22 5.703.219 1.371.987 2.166.767.823 1.891.823 1.097 0 1.865-.823.795-.822.987-2.303.192-1.48.22-5.566 0-3.975-.22-5.236-.22-1.262-.905-2.002zM148.28 51.898q.02-.117.059-.31.039-.194.233-.737.193-.543.387-.911t.62-.717q.427-.35.853-.33.427.02.834.136t.581.349q.175.232.31.426.136.194.155.368l.04.136q0 .039.019.039l.213-.213q1.163-1.24 2.733-1.24.33 0 .6.038.272.039.505.136.232.097.368.193.135.097.29.233.156.136.194.252.04.116.155.252.117.136.078.233-.039.097.058.174.097.078.039.136l.155-.194q1.221-1.454 2.888-1.454 1.047 0 1.686.524.64.523.66 1.53 0 .99-.737 3.063-.737 2.074-.737 2.481.02.272.097.368.078.097.29.097.544 0 1.009-.581.465-.582.756-1.59.058-.213.116-.251.058-.04.31-.04.388 0 .388.156 0 .02-.078.29-.155.563-.426 1.105-.272.543-.892 1.086t-1.337.523q-.911 0-1.318-.523-.407-.523-.407-1.086 0-.368.698-2.326.697-1.957.717-2.946 0-1.143-.853-1.143h-.097q-1.667 0-2.81 1.957l-.136.233-.64 2.597q-.64 2.54-.736 2.733-.252.524-.834.524-.252 0-.407-.136-.155-.136-.213-.233-.058-.097-.058-.194 0-.213.659-2.771l.698-2.83q.058-.29.058-.737 0-1.143-.853-1.143h-.097q-1.667 0-2.81 1.957l-.136.233-.64 2.597q-.64 2.54-.736 2.733-.252.524-.834.524-.252 0-.407-.117-.155-.116-.213-.232-.058-.117-.039-.194 0-.252.737-3.179.756-2.985.756-3.12.058-.291.058-.524 0-.698-.485-.698-.426 0-.717.543-.29.543-.446 1.182-.155.64-.232.698-.04.039-.31.039h-.272q-.116-.116-.116-.174zM184.927 39.931q0-.356.383-.548h17.465q.412.22.412.548 0 .302-.384.521l-8.719.027h-8.719q-.438-.137-.438-.548zm0 5.32q0-.412.438-.55h17.438q.384.275.384.55 0 .356-.412.547H185.31q-.383-.191-.383-.548zM221.373 33.598l-.357.137q-.383.137-1.096.274-.713.137-1.59.192h-.521V32.94h.52q1.29-.055 2.386-.412 1.097-.356 1.535-.658.439-.301.768-.603.055-.082.329-.082.247 0 .466.164v8.198l.028 8.226q.191.191.329.246.137.055.658.11.52.055 1.7.055h.712v1.261h-.301q-.576-.082-4.36-.082-3.729 0-4.304.082h-.33v-1.261h1.755q.44 0 .686-.028.247-.027.439-.082.191-.055.219-.055.027 0 .164-.137.138-.137.165-.11zM231.874 33.406q1.535-2.221 4.195-2.221 1.316 0 2.632.713t2.138 2.522q1.015 2.276 1.015 6.251 0 4.25-1.18 6.498-.547 1.152-1.507 1.837-.96.686-1.673.85-.712.165-1.398.192-.713 0-1.426-.164-.712-.165-1.672-.878t-1.508-1.837q-1.179-2.248-1.179-6.498 0-4.77 1.563-7.265zm6.169-.33q-.823-.877-1.947-.877-1.151 0-1.974.878-.685.713-.905 1.974-.219 1.261-.219 5.264 0 4.332.22 5.703.219 1.37.986 2.166.768.822 1.892.822 1.097 0 1.865-.822.795-.823.987-2.303.192-1.48.219-5.566 0-3.976-.22-5.237-.219-1.261-.904-2.001zM243.367 32.582q.019-.116.058-.31.038-.194.232-.737.194-.542.388-.91.194-.369.64-.718.445-.349.891-.33.698 0 1.163.35.465.348.582.659.116.31.116.407 0 .038.02.038l.213-.213q1.182-1.24 2.694-1.24 1.046 0 1.686.523.64.523.659 1.531.02 1.008-.737 3.043-.755 2.036-.736 2.462 0 .504.33.504.116 0 .174-.02.562-.096 1.008-.736.446-.64.678-1.55.039-.156.388-.156.387 0 .387.155 0 .02-.077.291-.155.562-.426 1.105-.272.543-.892 1.085-.62.543-1.337.524-.911 0-1.318-.524-.408-.523-.408-1.085 0-.368.698-2.326.698-1.958.717-2.946 0-1.144-.852-1.144h-.097q-1.667 0-2.81 1.958l-.137.233-.64 2.597q-.639 2.539-.736 2.733-.252.523-.833.523-.252 0-.407-.116-.155-.117-.213-.233-.059-.116-.04-.194 0-.252.737-3.159t.776-3.16q.02-.096.02-.445 0-.756-.466-.756-.737 0-1.221 1.938-.117.388-.117.407-.038.116-.368.116h-.271q-.116-.116-.116-.174zM265.59 42.59q0-.657.465-1.15.466-.494 1.18-.494.657 0 1.15.438.494.439.522 1.18 0 .685-.466 1.178-.467.494-1.18.494-.712 0-1.178-.466-.466-.467-.494-1.18zM280.46 43.428h50.493v-1.637H280.46zM304.67 15.063l-.357.137q-.384.138-1.097.275t-1.59.192h-.521v-1.262h.52q1.29-.055 2.386-.411 1.097-.356 1.535-.658.44-.302.768-.603.055-.082.33-.082.246 0 .465.164v8.198l.028 8.225q.192.192.329.247.137.055.658.11.52.054 1.7.054h.712v1.262h-.301q-.576-.083-4.36-.083-3.728 0-4.304.083h-.33v-1.262h1.756q.438 0 .685-.027.247-.027.439-.082.192-.055.22-.055.027 0 .164-.137t.164-.11zM287.937 52.41l-.357.136q-.384.137-1.096.274-.713.137-1.59.192h-.522v-1.26h.521q1.289-.056 2.386-.412 1.096-.357 1.535-.658.439-.302.768-.603.055-.083.329-.083.247 0 .466.165v8.198l.027 8.225q.192.192.33.247.136.055.657.11.521.054 1.7.054h.713v1.262h-.301q-.576-.083-4.36-.083-3.729 0-4.304.083h-.33v-1.262h1.755q.439 0 .686-.027.246-.028.438-.082.192-.055.22-.055.027 0 .164-.137t.165-.11zM298.438 52.217q1.535-2.22 4.195-2.22 1.316 0 2.632.712 1.316.713 2.138 2.523 1.015 2.275 1.015 6.25 0 4.25-1.18 6.499-.548 1.151-1.507 1.837-.96.685-1.673.85-.713.164-1.398.192-.713 0-1.426-.165-.713-.164-1.672-.877-.96-.713-1.508-1.837-1.18-2.248-1.18-6.498 0-4.77 1.564-7.266zm6.169-.329q-.823-.877-1.947-.877-1.152 0-1.974.877-.685.713-.905 1.974-.22 1.261-.22 5.264 0 4.332.22 5.703.22 1.371.987 2.166.768.823 1.892.823 1.097 0 1.864-.823.796-.822.987-2.303.192-1.48.22-5.566 0-3.975-.22-5.236-.219-1.262-.904-2.002zM309.93 51.898q.02-.117.059-.31.038-.194.232-.737.194-.543.388-.911t.62-.717q.426-.35.853-.33.426.02.833.136t.582.349q.174.232.31.426.136.194.155.368l.039.136q0 .039.02.039l.212-.213q1.163-1.24 2.733-1.24.33 0 .601.038.272.039.504.136.233.097.368.193.136.097.291.233.155.136.194.252.039.116.155.252.116.136.078.233-.04.097.058.174.097.078.038.136l.156-.194q1.22-1.454 2.888-1.454 1.046 0 1.686.524.64.523.659 1.53 0 .99-.737 3.063-.736 2.074-.736 2.481.02.272.097.368.077.097.29.097.543 0 1.008-.581.466-.582.756-1.59.058-.213.117-.251.058-.04.31-.04.387 0 .387.156 0 .02-.077.29-.155.563-.427 1.105-.271.543-.891 1.086t-1.338.523q-.91 0-1.318-.523-.407-.523-.407-1.086 0-.368.698-2.326.698-1.957.717-2.946 0-1.143-.853-1.143h-.096q-1.667 0-2.811 1.957l-.136.233-.64 2.597q-.639 2.54-.736 2.733-.252.524-.833.524-.252 0-.407-.136-.155-.136-.214-.233-.058-.097-.058-.194 0-.213.66-2.771l.697-2.83q.058-.29.058-.737 0-1.143-.853-1.143h-.097q-1.666 0-2.81 1.957l-.136.233-.64 2.597q-.639 2.54-.736 2.733-.252.524-.833.524-.252 0-.407-.117-.155-.116-.214-.232-.058-.117-.038-.194 0-.252.736-3.179.756-2.985.756-3.12.058-.291.058-.524 0-.698-.484-.698-.427 0-.717.543-.291.543-.446 1.182-.155.64-.233.698-.039.039-.31.039h-.271q-.117-.116-.117-.174zM184.927 103.049q0-.357.383-.549h17.465q.412.22.412.549 0 .301-.384.52l-8.719.028h-8.719q-.438-.137-.438-.548zm0 5.319q0-.412.438-.549h17.438q.384.275.384.549 0 .356-.412.548H185.31q-.383-.192-.383-.548zM221.373 96.715l-.357.137q-.383.137-1.096.274-.713.138-1.59.192h-.521v-1.26h.52q1.29-.056 2.386-.412 1.097-.356 1.535-.658.439-.302.768-.603.055-.083.329-.083.247 0 .466.165v8.198l.028 8.225q.191.192.329.247.137.055.658.11.52.054 1.7.054h.712v1.262h-.301q-.576-.083-4.36-.083-3.729 0-4.304.083h-.33V111.3h1.755q.44 0 .686-.027.247-.027.439-.082.191-.055.219-.055.027 0 .164-.137.138-.137.165-.11zM231.874 96.523q1.535-2.22 4.195-2.22 1.316 0 2.632.712 1.316.713 2.138 2.523 1.015 2.275 1.015 6.251 0 4.25-1.18 6.498-.547 1.151-1.507 1.837-.96.685-1.673.85-.712.164-1.398.192-.713 0-1.426-.165-.712-.164-1.672-.877t-1.508-1.837q-1.179-2.248-1.179-6.498 0-4.77 1.563-7.266zm6.169-.329q-.823-.877-1.947-.877-1.151 0-1.974.877-.685.713-.905 1.974-.219 1.262-.219 5.265 0 4.332.22 5.702.219 1.371.986 2.166.768.823 1.892.823 1.097 0 1.865-.823.795-.822.987-2.303.192-1.48.219-5.565 0-3.976-.22-5.237-.219-1.261-.904-2.002zM243.367 95.7q.019-.117.058-.31.038-.194.232-.737.194-.543.388-.911t.64-.717q.445-.35.891-.33.698 0 1.163.35.465.348.582.658.116.31.116.407 0 .039.02.039l.213-.213q1.182-1.24 2.694-1.24 1.046 0 1.686.523.64.523.659 1.53.02 1.009-.737 3.044-.755 2.035-.736 2.462 0 .504.33.504.116 0 .174-.02.562-.097 1.008-.736.446-.64.678-1.551.039-.155.388-.155.387 0 .387.155 0 .02-.077.29-.155.563-.426 1.106-.272.542-.892 1.085-.62.543-1.337.523-.911 0-1.318-.523-.408-.523-.408-1.085 0-.369.698-2.326.698-1.958.717-2.947 0-1.143-.852-1.143h-.097q-1.667 0-2.81 1.958l-.137.232-.64 2.597q-.639 2.54-.736 2.733-.252.524-.833.524-.252 0-.407-.117-.155-.116-.213-.232-.059-.117-.04-.194 0-.252.737-3.16.737-2.907.776-3.159.02-.097.02-.446 0-.756-.466-.756-.737 0-1.221 1.939-.117.387-.117.407-.038.116-.368.116h-.271q-.116-.116-.116-.174zM265.59 105.708q0-.658.465-1.151.466-.494 1.18-.494.657 0 1.15.439.494.439.522 1.179 0 .685-.466 1.179-.467.493-1.18.493-.712 0-1.178-.466-.466-.466-.494-1.179zM283.024 96.715l-.356.137q-.384.137-1.097.274-.713.138-1.59.192h-.52v-1.26h.52q1.289-.056 2.385-.412 1.097-.356 1.536-.658.438-.302.767-.603.055-.083.33-.083.246 0 .466.165v8.198l.027 8.225q.192.192.329.247.137.055.658.11.521.054 1.7.054h.713v1.262h-.302q-.576-.083-4.36-.083-3.728 0-4.304.083h-.329V111.3h1.755q.439 0 .685-.027.247-.027.44-.082.191-.055.218-.055.028 0 .165-.137t.164-.11zM293.525 96.523q1.536-2.22 4.195-2.22 1.316 0 2.632.712 1.316.713 2.139 2.523 1.014 2.275 1.014 6.251 0 4.25-1.179 6.498-.548 1.151-1.508 1.837-.96.685-1.672.85-.713.164-1.398.192-.713 0-1.426-.165-.713-.164-1.672-.877-.96-.713-1.508-1.837-1.18-2.248-1.18-6.498 0-4.77 1.563-7.266zm6.17-.329q-.823-.877-1.947-.877-1.152 0-1.974.877-.686.713-.905 1.974-.22 1.262-.22 5.265 0 4.332.22 5.702.22 1.371.987 2.166.768.823 1.892.823 1.096 0 1.864-.823.795-.822.987-2.303.192-1.48.22-5.565 0-3.976-.22-5.237-.22-1.261-.905-2.002zM306.25 96.66v-.253q0-.252.27-.387h11.262q.29.155.29.387 0 .233-.29.388h-11.261q-.272-.136-.272-.388zM320.108 95.69q.02-.116.058-.31.039-.194.233-.737.193-.542.387-.91.194-.369.62-.718.427-.349.853-.33.427.02.834.136.407.117.581.35.175.232.31.426.136.193.156.368l.038.136q0 .038.02.038l.213-.213q1.163-1.24 2.733-1.24.33 0 .6.038.272.04.505.136.232.097.368.194.136.097.29.233.156.135.195.252.038.116.155.251.116.136.077.233-.039.097.058.175.097.077.039.135l.155-.194q1.221-1.453 2.888-1.453 1.047 0 1.686.523.64.523.66 1.531 0 .989-.737 3.063-.737 2.074-.737 2.48.02.272.097.369.078.097.291.097.543 0 1.008-.582.465-.581.756-1.589.058-.213.116-.252.058-.039.31-.039.388 0 .388.155 0 .02-.078.291-.155.562-.426 1.105-.271.543-.892 1.085-.62.543-1.337.524-.911 0-1.318-.524-.407-.523-.407-1.085 0-.368.698-2.326.697-1.958.717-2.946 0-1.144-.853-1.144h-.097q-1.667 0-2.81 1.958l-.136.232-.64 2.598q-.64 2.539-.736 2.733-.252.523-.834.523-.252 0-.407-.136-.155-.135-.213-.232-.058-.097-.058-.194 0-.213.659-2.772l.698-2.83q.058-.29.058-.736 0-1.144-.853-1.144h-.097q-1.667 0-2.81 1.958l-.136.232-.64 2.598q-.64 2.539-.736 2.733-.252.523-.834.523-.252 0-.407-.116-.155-.117-.213-.233-.058-.116-.039-.194 0-.252.737-3.178.756-2.985.756-3.121.058-.29.058-.523 0-.698-.485-.698-.426 0-.717.543-.29.542-.446 1.182-.155.64-.232.698-.04.038-.31.038h-.272q-.116-.116-.116-.174zM184.927 166.147q0-.356.383-.548h17.465q.412.22.412.548 0 .302-.384.521l-8.719.028h-8.719q-.438-.137-.438-.549zm0 5.32q0-.412.438-.55h17.438q.384.275.384.55 0 .356-.412.548H185.31q-.383-.192-.383-.549zM221.373 159.814l-.357.137q-.383.137-1.096.274-.713.137-1.59.192h-.521v-1.261h.52q1.29-.055 2.386-.411 1.097-.357 1.535-.659.439-.301.768-.603.055-.082.329-.082.247 0 .466.165v8.197l.028 8.226q.191.192.329.246.137.055.658.11.52.055 1.7.055h.712v1.261h-.301q-.576-.082-4.36-.082-3.729 0-4.304.082h-.33V174.4h1.755q.44 0 .686-.027.247-.028.439-.083.191-.055.219-.055.027 0 .164-.137.138-.137.165-.11zM231.874 159.622q1.535-2.221 4.195-2.221 1.316 0 2.632.713t2.138 2.522q1.015 2.276 1.015 6.252 0 4.25-1.18 6.497-.547 1.152-1.507 1.837-.96.686-1.673.85-.712.165-1.398.192-.713 0-1.426-.164-.712-.165-1.672-.878-.96-.712-1.508-1.837-1.179-2.248-1.179-6.497 0-4.771 1.563-7.266zm6.169-.33q-.823-.877-1.947-.877-1.151 0-1.974.878-.685.713-.905 1.974-.219 1.261-.219 5.264 0 4.332.22 5.703.219 1.37.986 2.166.768.822 1.892.822 1.097 0 1.865-.822.795-.823.987-2.303.192-1.48.219-5.566 0-3.975-.22-5.237-.219-1.26-.904-2.001zM243.377 158.789q.019-.117.058-.31.039-.194.232-.737.194-.543.388-.911t.64-.717q.445-.35.891-.33.698 0 1.163.35.465.348.582.658.116.31.116.407 0 .039.02.039l.213-.213q1.182-1.24 2.694-1.24 1.046 0 1.686.523.64.523.66 1.53.019 1.009-.737 3.044t-.737 2.461q0 .504.33.504.116 0 .174-.019.562-.097 1.008-.736.446-.64.678-1.551.039-.155.388-.155.388 0 .388.155 0 .02-.078.29-.155.563-.426 1.105-.272.543-.892 1.086t-1.337.523q-.911 0-1.318-.523-.407-.523-.407-1.086 0-.368.697-2.325.698-1.958.718-2.947 0-1.143-.853-1.143h-.097q-1.667 0-2.81 1.957l-.136.233-.64 2.597q-.64 2.54-.737 2.733-.252.524-.833.524-.252 0-.407-.117-.155-.116-.213-.232-.058-.117-.04-.194 0-.252.737-3.16.737-2.907.776-3.159.02-.097.02-.446 0-.756-.466-.756-.737 0-1.221 1.939-.116.387-.116.407-.04.116-.369.116h-.271q-.116-.116-.116-.174zM255.685 159.758v-.252q0-.252.271-.388h5.795v-2.907l.02-2.908q.194-.252.368-.252.252 0 .388.291v5.776h5.776q.29.155.29.388 0 .232-.29.387h-5.776v5.776q-.155.272-.35.272h-.077q-.232 0-.349-.272v-5.776h-5.795q-.271-.135-.271-.387zM271.501 159.506q0-1.338.194-2.54.194-1.201.446-2.073.252-.873.717-1.706.465-.834.736-1.299.272-.465.814-1.008.543-.542.64-.659.097-.116.485-.407h.329q.271 0 .271.175 0 .058-.33.407-.329.349-.794 1.027-.465.679-.95 1.667-.484.989-.814 2.675-.33 1.686-.33 3.74 0 2.055.33 3.722.33 1.667.795 2.694.465 1.028.95 1.667.484.64.814 1.028.33.387.33.407 0 .174-.291.174h-.31l-.543-.465q-1.822-1.648-2.656-4.11-.833-2.46-.833-5.116zM278.866 159.758v-.252q0-.252.272-.388h11.261q.29.155.29.388 0 .232-.29.387h-11.261q-.272-.135-.272-.387zM292.725 158.789q.02-.117.058-.31.039-.194.233-.737.194-.543.387-.911.194-.368.62-.717.427-.35.854-.33.426.02.833.136t.581.349q.175.232.31.426.136.194.156.368l.038.136q0 .039.02.039l.213-.213q1.163-1.24 2.733-1.24.33 0 .6.038.272.039.505.136.232.097.368.194.136.096.29.232.156.136.195.252.038.116.155.252.116.136.077.233-.039.097.058.174.097.078.04.136l.154-.194q1.221-1.454 2.888-1.454 1.047 0 1.687.524.64.523.659 1.53 0 .99-.737 3.063-.737 2.074-.737 2.481.02.272.097.369.078.096.291.096.543 0 1.008-.581.465-.582.756-1.59.058-.213.116-.251.058-.04.31-.04.388 0 .388.156 0 .02-.078.29-.155.563-.426 1.105-.271.543-.892 1.086-.62.543-1.337.523-.91 0-1.318-.523-.407-.523-.407-1.086 0-.368.698-2.325.698-1.958.717-2.947 0-1.143-.853-1.143h-.097q-1.667 0-2.81 1.957l-.136.233-.64 2.597q-.64 2.54-.736 2.733-.252.524-.834.524-.252 0-.407-.136-.155-.136-.213-.233-.058-.097-.058-.193 0-.214.659-2.772l.698-2.83q.058-.29.058-.737 0-1.143-.853-1.143h-.097q-1.667 0-2.81 1.957l-.136.233-.64 2.597q-.64 2.54-.736 2.733-.252.524-.834.524-.252 0-.407-.117-.155-.116-.213-.232-.058-.117-.039-.194 0-.252.737-3.179.756-2.985.756-3.12.058-.291.058-.524 0-.698-.485-.698-.426 0-.717.543-.29.543-.446 1.182-.155.64-.232.698-.039.039-.31.039h-.272q-.116-.116-.116-.174zM310.518 149.834l.078-.02H311.022l.543.466q1.822 1.647 2.655 4.109.834 2.461.834 5.117 0 1.318-.194 2.539t-.446 2.074q-.252.853-.717 1.705-.465.853-.736 1.3-.272.445-.795.988-.523.542-.62.64-.097.096-.446.368l-.078.077h-.445q-.059 0-.097-.058-.04-.058-.059-.175.02-.019.214-.251 3.004-3.121 3.004-9.207t-3.004-9.207q-.194-.233-.214-.252 0-.155.097-.213zM184.927 226.942q0-.356.383-.548h17.465q.412.219.412.548 0 .302-.384.52l-8.719.028h-8.719q-.438-.137-.438-.548zm0 5.319q0-.411.438-.548h17.438q.384.274.384.548 0 .356-.412.548H185.31q-.383-.192-.383-.548zM221.373 220.609l-.357.137q-.383.137-1.096.274-.713.137-1.59.192h-.521v-1.262h.52q1.29-.054 2.386-.41 1.097-.357 1.535-.659.439-.301.768-.603.055-.082.329-.082.247 0 .466.164v8.198l.028 8.225q.191.192.329.247.137.055.658.11.52.055 1.7.055h.712v1.26h-.301q-.576-.081-4.36-.081-3.729 0-4.304.082h-.33v-1.261h1.755q.44 0 .686-.028.247-.027.439-.082.191-.055.219-.055.027 0 .164-.137.138-.137.165-.11zM231.874 220.417q1.535-2.221 4.195-2.221 1.316 0 2.632.713 1.316.712 2.138 2.522 1.015 2.276 1.015 6.251 0 4.25-1.18 6.498-.547 1.152-1.507 1.837-.96.686-1.673.85-.712.165-1.398.192-.713 0-1.426-.164-.712-.165-1.672-.878t-1.508-1.837q-1.179-2.248-1.179-6.498 0-4.77 1.563-7.265zm6.169-.33q-.823-.877-1.947-.877-1.151 0-1.974.878-.685.712-.905 1.974-.219 1.26-.219 5.264 0 4.332.22 5.703.219 1.37.986 2.166.768.822 1.892.822 1.097 0 1.865-.822.795-.823.987-2.303.192-1.481.219-5.566 0-3.976-.22-5.237-.219-1.261-.904-2.001zM243.377 219.583q.019-.116.058-.31.039-.194.232-.736.194-.543.388-.911.194-.369.64-.718.445-.348.891-.329.698 0 1.163.349.465.349.582.659.116.31.116.407 0 .039.02.039l.213-.214q1.182-1.24 2.694-1.24 1.046 0 1.686.523.64.524.66 1.532.019 1.007-.737 3.043-.756 2.035-.737 2.461 0 .504.33.504.116 0 .174-.02.562-.096 1.008-.736.446-.64.678-1.55.039-.155.388-.155.388 0 .388.155 0 .019-.078.29-.155.562-.426 1.105-.272.543-.892 1.086-.62.542-1.337.523-.911 0-1.318-.523-.407-.524-.407-1.086 0-.368.697-2.326.698-1.957.718-2.946 0-1.143-.853-1.143h-.097q-1.667 0-2.81 1.957l-.136.233-.64 2.597q-.64 2.54-.737 2.733-.252.523-.833.523-.252 0-.407-.116-.155-.116-.213-.233-.058-.116-.04-.193 0-.252.737-3.16.737-2.907.776-3.16.02-.096.02-.445 0-.756-.466-.756-.737 0-1.221 1.938-.116.388-.116.407-.04.117-.369.117h-.271q-.116-.117-.116-.175zM256.227 220.552v-.252q0-.252.272-.387h11.261q.29.155.29.387 0 .233-.29.388H256.5q-.272-.136-.272-.388zM270.086 219.583q.02-.116.058-.31.039-.194.233-.736.194-.543.387-.911.194-.369.62-.718.427-.348.854-.329.426.02.833.136t.581.349q.175.232.31.426.136.194.156.368l.038.136q0 .039.02.039l.213-.214q1.163-1.24 2.733-1.24.33 0 .6.039.272.038.505.135.232.097.368.194.136.097.29.233.156.136.195.252.038.116.155.252.116.135.077.232-.039.097.058.175.097.077.04.135l.154-.193q1.221-1.454 2.888-1.454 1.047 0 1.687.523.64.524.659 1.532 0 .988-.737 3.062t-.737 2.481q.02.271.097.368.078.097.291.097.543 0 1.008-.581.465-.582.756-1.59.058-.213.116-.252.058-.038.31-.038.388 0 .388.155 0 .019-.078.29-.155.562-.426 1.105-.271.543-.892 1.086-.62.542-1.337.523-.911 0-1.318-.523-.407-.524-.407-1.086 0-.368.698-2.326.698-1.957.717-2.946 0-1.143-.853-1.143h-.097q-1.667 0-2.81 1.957l-.136.233-.64 2.597q-.64 2.54-.736 2.733-.252.523-.834.523-.252 0-.407-.135-.155-.136-.213-.233-.058-.097-.058-.194 0-.213.659-2.771l.698-2.83q.058-.291.058-.737 0-1.143-.853-1.143h-.097q-1.667 0-2.81 1.957l-.136.233-.64 2.597q-.64 2.54-.736 2.733-.252.523-.834.523-.252 0-.407-.116-.155-.116-.213-.233-.058-.116-.039-.193 0-.252.737-3.18.756-2.984.756-3.12.058-.29.058-.523 0-.698-.485-.698-.426 0-.717.543-.29.543-.446 1.182-.155.64-.232.698-.039.039-.31.039h-.272q-.116-.117-.116-.175z"/></svg>