<svg xmlns="http://www.w3.org/2000/svg" xmlns:xlink="http://www.w3.org/1999/xlink" id="svg1548" width="377.288" height="320" preserveAspectRatio="none" version="1.1" viewBox="0 -49.438 377.288 320"><defs id="defs1431"><path id="STIXWEBMAINI-78" stroke-width="1" d="m243 355 12-57c70 107 107 143 151 143 24 0 41-15 41-37 0-21-14-36-34-36-19 0-28 17-52 17-18 0-54-44-98-121 0-7 2-21 8-45l32-134c7-28 16-41 30-41 13 0 24 10 47 40 9 12 13 18 21 28l15-9C358 13 332-11 294-11c-32 0-47 18-59 68l-29 119-88-119C74-2 54-11 23-11S-27 5-27 31c0 20 14 36 34 36 9 0 19-4 32-11 10-6 20-9 26-9 11 0 30 19 51 49l82 116-28 124c-14 60-21 68-46 68-8 0-20-2-39-7l-18-5-3 16 11 4c61 22 94 29 117 29 25 0 37-18 51-86z"/><path id="STIXWEBMAIN-28" stroke-width="1" d="m304-161-12-16C134-87 48 82 48 252c0 185 87 329 247 424l9-16C165 541 134 448 134 255c0-186 30-299 170-416Z"/><path id="STIXWEBMAIN-29" stroke-width="1" d="m29 660 12 16c153-92 244-259 244-429 0-185-88-327-247-424l-9 16C171-44 199 50 199 244c0 187-25 302-170 416Z"/><path id="STIXWEBMAIN-2212" stroke-width="1" d="M621 220H64v66h557z"/><path id="STIXWEBMAIN-32" stroke-width="1" d="M474 137 420 0H29v12l178 189c94 99 130 175 130 260 0 91-54 141-139 141-72 0-107-32-147-130l-21 5c21 117 85 199 208 199 113 0 185-77 185-176 0-79-39-154-128-248L130 76h234c42 0 63 11 96 67z"/><path id="STIXWEBMAIN-30" stroke-width="1" d="M476 330c0-172-63-344-226-344C79-14 24 172 24 336c0 177 69 340 230 340 131 0 222-141 222-346Zm-96-5c0 208-44 325-132 325-83 0-128-118-128-321S164 12 250 12c85 0 130 115 130 313z"/><path id="STIXWEBMAIN-34" stroke-width="1" d="M473 167H370V0h-78v167H12v64l314 445h44V231h103Zm-181 64v343L52 231Z"/><path id="dash0" d="m-2.74-1.04-.19 15.309 5.86 1.512-.19-14.742Z"/><path id="dash1" d="M-2.93-1.212v14.174l5.86 2.268L2.55 1.056Z"/><path id="dash2" d="m-2.835 13.664-.378-14.93 6.237 2.457.189 14.741Z"/></defs><style id="style1433" type="text/css">.grid{stroke:#9e9ed1;stroke-width:.8;display:block}.arrows,.axes{stroke:#000;stroke-width:.8}.arrows{stroke-width:1.4;fill:none;stroke-linecap:round;stroke-linejoin:round}.axes-labels{stroke-width:0;stroke:#000;fill:#000}.notch-labels-in-grid{stroke-width:0;stroke:#b8b8de;fill:#b8b8de}.dots-full{stroke-width:1.5;stroke:red;fill:red}.labelbox{fill:none;stroke-width:2;stroke:#00ff0088;display:none}</style><g id="layer6" style="display:inline"><circle id="circle1435" cx="171" cy="110.2" r="22.04" fill="rgb(237 237 233)"/><path id="path1437" d="M19 212.8V0" class="grid" style="stroke-width:.6;stroke-dasharray:none"/><path id="path1439" d="M57 212.8V0" class="grid" style="stroke-width:.6;stroke-dasharray:none"/><path id="path1441" d="M95 212.8V0" class="grid" style="stroke-width:.6;stroke-dasharray:none"/><path id="path1443" d="M133 212.8V0" class="grid" style="stroke-width:.6;stroke-dasharray:none"/><path id="path1445" d="M171 212.8V0" class="grid" style="stroke-width:.6;stroke-dasharray:none"/><path id="path1447" d="M209 212.8V0" class="grid" style="stroke-width:.6;stroke-dasharray:none"/><path id="path1449" d="M247 212.8V0" class="grid" style="stroke-width:.6;stroke-dasharray:none"/><path id="path1451" d="M285 212.8V0" class="grid" style="stroke-width:.6;stroke-dasharray:none"/><path id="path1453" d="M323 212.8V0" class="grid" style="stroke-width:.6;stroke-dasharray:none"/><path id="path1455" d="M0 205.2h342" class="grid" style="stroke-width:.6;stroke-dasharray:none"/><path id="path1457" d="M0 167.2h342" class="grid" style="stroke-width:.6;stroke-dasharray:none"/><path id="path1459" d="M0 129.2h113.97m14.83 0H342" class="grid" style="stroke-width:.6;stroke-dasharray:none"/><path id="path1461" d="M0 91.2h342" class="grid" style="stroke-width:.6;stroke-dasharray:none"/><path id="path1463" d="M0 53.2h113.97m14.83 0H342" class="grid" style="stroke-width:.6;stroke-dasharray:none"/><path id="path1465" d="M0 15.2h342" class="grid" style="stroke-width:.6;stroke-dasharray:none"/><g id="axes"><path id="path1468" d="M0 205.2h351.24" class="axes" style="stroke-width:.6;stroke-dasharray:none"/><path id="path1470" d="M133 212.8V-9.24" class="axes" style="stroke-width:.6;stroke-dasharray:none"/></g><g id="axes arrows"><path id="path1473" d="M347.283 200.513c.261 1.753 3.164 4.387 3.957 4.687-.793.29-3.696 2.925-3.957 4.678" class="arrows"/><path id="path1475" d="M128.313-5.283c1.753-.261 4.387-3.164 4.687-3.957.29.793 2.925 3.696 4.678 3.957" class="arrows"/></g><g id="axes labels"><g id="g1480" class="axes-labels" transform="matrix(.01951 0 0 -.01951 368.04 209.82)"><use xlink:href="#STIXWEBMAINI-78" id="use1478" width="100%" height="100%" x="0" y="0"/></g><g id="g1492" class="axes-labels" transform="matrix(.0195 0 0 -.0195 69.458 -29.4)"><text id="text1484" direction="ltr" style="font-size:21px;font-family:baskerville" transform="scale(51.256 -51.256)">VX-11/78A</text><use xlink:href="#STIXWEBMAIN-28" id="use1486" width="100%" height="100%" x="5399" y="0"/><use xlink:href="#STIXWEBMAINI-78" id="use1488" width="100%" height="100%" x="5733" y="0"/><use xlink:href="#STIXWEBMAIN-29" id="use1490" width="100%" height="100%" x="6180" y="0"/></g></g><g id="graphs"><circle id="circle1497" cx="133" cy="72.2" r="3.382" class="dots-full"/><circle id="circle1499" cx="171" cy="110.2" r="3.382" class="dots-full"/></g><g id="notch labels"><g id="g1506" class="notch-labels-in-grid" transform="matrix(.01756 0 0 -.01756 46.586 230.16)"><use xlink:href="#STIXWEBMAIN-2212" id="use1502" width="100%" height="100%" x="0" y="0"/><use xlink:href="#STIXWEBMAIN-32" id="use1504" width="100%" height="100%" x="685" y="0"/></g><g id="g1510" class="notch-labels-in-grid" transform="matrix(.01755 0 0 -.01755 128.608 230.15)"><use xlink:href="#STIXWEBMAIN-30" id="use1508" width="100%" height="100%" x="0" y="0"/></g><g id="g1514" class="notch-labels-in-grid" transform="matrix(.01755 0 0 -.01755 204.608 230.15)"><use xlink:href="#STIXWEBMAIN-32" id="use1512" width="100%" height="100%" x="0" y="0"/></g><g id="g1518" class="notch-labels-in-grid" transform="matrix(.01755 0 0 -.01755 280.608 230.15)"><use xlink:href="#STIXWEBMAIN-34" id="use1516" width="100%" height="100%" x="0" y="0"/></g><g id="g1522" class="notch-labels-in-grid" transform="matrix(.01755 0 0 -.01755 116.992 134.782)"><use xlink:href="#STIXWEBMAIN-32" id="use1520" width="100%" height="100%" x="0" y="0"/></g><g id="g1526" class="notch-labels-in-grid" transform="matrix(.01755 0 0 -.01755 116.992 58.782)"><use xlink:href="#STIXWEBMAIN-34" id="use1524" width="100%" height="100%" x="0" y="0"/></g></g><path id="ze_cover_path" fill="#fdfdfd" fill-opacity=".45" d="M0-49.438h377.288v294.835H0ZM193.04 110.2A22.04 22.04 0 0 0 171 88.16a22.04 22.04 0 0 0-22.04 22.04A22.04 22.04 0 0 0 171 132.24a22.04 22.04 0 0 0 22.04-22.04Z" style="display:inline"/><g id="g1538" class="hand_dashes" transform="matrix(0 -38 -38 0 171 110.2)"><use xlink:href="#dash2" id="use1530" width="100%" height="100%" x="0" y="0" transform="matrix(.00612 0 0 .00821 0 .136)"/><use xlink:href="#dash1" id="use1532" width="100%" height="100%" x="0" y="0" transform="matrix(.00612 0 0 .00821 0 .357)"/><use xlink:href="#dash0" id="use1534" width="100%" height="100%" x="0" y="0" transform="matrix(.00612 0 0 .00821 0 .573)"/><use xlink:href="#dash2" id="use1536" width="100%" height="100%" x="0" y="0" transform="matrix(.00612 0 0 .00821 0 .796)"/></g><path id="path1540" fill="#fed341" stroke="#000" stroke-width="1.2" d="M102.552 105.832h13.44v-5.04l9.408 9.408-9.408 9.408v-5.04h-13.44z"/><path id="path1542" fill="#fed341" stroke="#000" stroke-width="1.2" d="M166.632 239.448v-13.44h-5.04L171 216.6l9.408 9.408h-5.04v13.44z"/><g id="our_fellow" transform="matrix(1.19025 0 0 1.19025 25.672 40.728)"><path id="path9425" d="M136.521 76.48c-1.86-3.57-3.69-7.156-5.578-10.712-.138-.256-.275-.513-.414-.769a23.313 23.313 0 0 0-.199-.363c-.017-.03-.089-.089-.055-.088 1.604.063.813-.042 1.571.31.06.028-.113-.07-.17-.105.435.103.864.232 1.305.31 1.501.266 3.019.375 4.54.463 2.668.156 5.34.18 8.013.201l1.769-.006.81.738-1.776.005c-2.678-.02-5.355-.043-8.03-.185-1.534-.082-3.052-.181-4.57-.42-.447-.071-.887-.187-1.33-.28-.555-.208-1.119-.391-1.663-.624-.122-.052-.445-.165-.327-.225.927-.479.93-.172 1.211.358l.409.77c1.877 3.561 3.707 7.147 5.582 10.71l-1.098-.088z" style="opacity:1;fill:#000;fill-opacity:1;stroke:none;stroke-width:1;stroke-linecap:square;stroke-linejoin:miter;stroke-miterlimit:4;stroke-dasharray:none;stroke-opacity:1"/><path id="path9427" d="M133.787 65.452c4.313 4.002 9.352 7.324 15.138 8.731 1.803.439 3.653.659 5.479.988 4.704.146 6.609.452 11.245-.36 3.632-.637 6.669-1.7 9.95-3.342 3.383-1.693 4.55-2.746 7.52-4.945 2.268-1.786 4.369-3.762 6.464-5.742l.96.522c-2.11 1.985-4.225 3.97-6.5 5.768-2.991 2.226-4.164 3.288-7.568 5.009-3.299 1.667-6.364 2.76-10.018 3.422-4.632.837-6.604.544-11.309.428-1.838-.317-3.71-.48-5.514-.95a39.692 39.692 0 0 1-9.831-4.04c-2.6-1.506-4.895-3.46-7.115-5.463l1.099-.026z" style="opacity:1;fill:#000;fill-opacity:1;stroke:none;stroke-width:1;stroke-linecap:square;stroke-linejoin:miter;stroke-miterlimit:4;stroke-dasharray:none;stroke-opacity:1"/></g></g><g id="layer7"><g id="g2295" transform="translate(0 .576)"><path id="path5867" d="M164.948 247.388c-1.062 1.25-2.187 2.442-3.301 3.644a163.39 163.39 0 0 1-3.36 3.545l.171.07c.159-.168.334-.339.484-.497a167.84 167.84 0 0 0 2.876-3.052c1.116-1.203 2.24-2.398 3.304-3.647z" style="fill:#000;stroke:#000;stroke-width:.971342;stroke-linecap:square;stroke-miterlimit:4;stroke-dasharray:none"/><path id="path5869" d="M158.81 247.52c1.967 1.719 3.987 3.378 6.006 5.037l.132-.13c-2.1-1.746-4.246-3.5-6.007-5.036z" style="fill:#000;stroke:#000;stroke-width:.971342;stroke-linecap:square;stroke-miterlimit:4;stroke-dasharray:none"/><path id="path1192" d="M183.63 245.606c.104 1.533.228 3.064.28 4.6a86.11 86.11 0 0 0 .23 4.025c.016.195.03.466.047.644l.195-.018c-.02-.178-.032-.462-.047-.645a86.049 86.049 0 0 1-.23-4.021c-.052-1.533-.177-3.063-.279-4.594z" style="fill:#000;fill-opacity:.927419;stroke:#000;stroke-width:.971342;stroke-linecap:square;stroke-miterlimit:4;stroke-dasharray:none"/><path id="path1196" d="M170.063 248.54c1.074.027 1.621.042 3.08.053 1.155.01 2.312 0 3.466-.049l.009-.22c-1.147.049-2.428.06-3.459.051-1.456-.011-2-.02-3.071-.052z" style="fill:#000;fill-opacity:.927419;stroke:#000;stroke-width:.971342;stroke-linecap:square;stroke-miterlimit:4;stroke-dasharray:none"/><path id="path1200" d="M169.713 251.362a5858.143 5858.143 0 0 1 6.222 0h.537l.015-.229h-.537l-2.592.001h-3.63z" style="fill:#000;fill-opacity:.927419;stroke:#000;stroke-width:.971342;stroke-linecap:square;stroke-miterlimit:4;stroke-dasharray:none"/></g><path id="path5811" d="M74.897 107.772c1.412-1 3.033-1.808 4.89-1.782 2.09.03 2.074 1.723.901 3.071-1.394 1.602-3.038 2.81-5.238 4.292-.39.264-.683.458-.8.669-.021.037.044.154.087.154a565.94 565.94 0 0 1 2.572-.038c1.277-.015 3.889-.056 5.497-.023l.06-.141c-1.666-.033-4.33-.022-5.531 0-.712.012-1.73.048-2.123.06-.144.006-.202-.214-.434-.147 0 0 .662-.252.847-.38 2.126-1.46 3.905-2.845 5.201-4.323 1.268-1.445 1.06-3.325-.994-3.341-1.975-.015-3.618.817-5.074 1.863z" style="fill:#000;stroke:#000;stroke-width:1.00157;stroke-linecap:square;stroke-miterlimit:4;stroke-dasharray:none"/><path id="path2262" d="M46.27 107.343c-.331 1.016-.624 1.93-.69 2.992-.098 1.545.552 2.523 1.763 3.3 1.016.653 2.506.716 3.528.342.202-.074.397-.173.574-.295.19-.13.361-.287.514-.458a3.84 3.84 0 0 0 .864-1.675c.092-.435.07-.843.07-1.283a11.474 11.474 0 0 0-.358-2.178c-.022-.087-.218.016-.212.1.011.16.19.732.202.775.166.576.183.666.33 1.257.464 1.83.74 3.714.87 5.589.107 1.558.11 2.625-.252 4.208-.307 1.345-.903 2.886-1.989 3.805-1.035.876-2.245 1.448-3.789 1.256-1.243-.155-2.202-1.25-2.488-2.125l-.168.055c.36 1.108 1.42 2.092 2.635 2.242 1.675.207 2.89-.408 3.955-1.327 1.098-.947 1.794-2.495 2.02-3.883.277-1.696.362-2.674.252-4.25-.132-1.884-.408-3.777-.875-5.616-.148-.595-.164-.684-.331-1.264-.045-.155-.099-.306-.14-.462-.023-.086-.002-.188-.053-.263.151.748.185 1.529.213 2.09 0 .416.021.825-.066 1.236a3.507 3.507 0 0 1-1.263 2.008 2.045 2.045 0 0 1-.535.286c-.97.368-2.32.302-3.39-.3-1.15-.648-1.805-1.72-1.704-3.157.074-1.053.357-1.936.686-2.942z" style="fill:#000;fill-opacity:.927419;stroke:#000;stroke-width:1.00157;stroke-linecap:square;stroke-miterlimit:4;stroke-dasharray:none"/><path id="path2266" d="M59.919 109.159c.908-.074 1.818-.082 2.727-.116.926-.034 3.245-.066 3.937-.085a61.7 61.7 0 0 1 2.24-.01l.005-.224a46.954 46.954 0 0 0-2.232.01c-.764.042-3.06.051-3.94.085-.886.035-1.818.04-2.724.116z" style="fill:#000;fill-opacity:.927419;stroke:#000;stroke-width:1.00157;stroke-linecap:square;stroke-miterlimit:4;stroke-dasharray:none"/><path id="path2268" d="M59.802 112.405c2.02-.072 6.04-.137 8.06-.205l.013-.176c-2.114.072-6.26.142-8.07.204z" style="fill:#000;fill-opacity:.927419;stroke:#000;stroke-width:1.00157;stroke-linecap:square;stroke-miterlimit:4;stroke-dasharray:none"/><g id="g2419" style="stroke-width:1.01685" transform="matrix(1 0 0 .96714 0 3.766)"><path id="path2272" d="M89.443 105.92c.629-.24 1.275-.325 1.92-.406a30.248 30.248 0 0 1 1.944-.136c.303-.014 1.222-.078 1.525-.09l-.004-.207c-.317.014-1.254.078-1.525.09-.65.032-1.3.064-1.948.137-.648.08-1.298.166-1.93.405z" style="fill:#000;fill-opacity:.927419;stroke:#000;stroke-width:1.01845;stroke-linecap:square;stroke-miterlimit:4;stroke-dasharray:none"/><path id="path2274" d="M89.509 105.752a15.223 15.223 0 0 1-.614 3.445c-.075.25-.16.496-.196.756-.017.127-.255.14.374.064.215-.026.433-.176.645-.216 2.37-.442 4.692-.433 5.805.674 1.123 1.117.675 2.483-.168 3.168-1.342 1.09-4.85 1.186-7.385-.335l-.075.162c2.564 1.516 6.225 1.487 7.55.32 1.158-1.02 1.109-2.493.18-3.459-1.209-1.256-3.535-1.181-5.921-.707-.626.124-.837.187-.993.256-.06.026.315-.003.211.002-.058.003.071-.415.146-.665.317-1.064.537-2.207.613-3.44z" style="fill:#000;fill-opacity:.927419;stroke:#000;stroke-width:1.01845;stroke-linecap:square;stroke-miterlimit:4;stroke-dasharray:none"/></g><path id="path2306" d="M86.028 113.875c.033-.17-.142-.343-.267-.398-.17-.075-.483.05-.643.251-.136.172-.155.434-.084.582.07.147.262.257.442.172.27-.127.505-.371.552-.607z" style="fill:#f9dbf2;fill-opacity:.927419;stroke:#000;stroke-width:1.00158;stroke-linecap:square;stroke-miterlimit:4;stroke-dasharray:none"/><g id="g3495"><path id="path5739" d="M101.633 284.36c-2.013 1.792-5.2 4.677-7.2 6.483l.163.074c2.418-2.173 4.845-4.385 7.202-6.485z" style="fill:#f9dbf2;fill-opacity:.927419;stroke:#000;stroke-width:.97;stroke-linecap:square;stroke-miterlimit:4;stroke-dasharray:none"/><path id="path5743" d="M94.551 284.789c2.091 1.911 4.794 4.785 6.931 6.784.085-.072.062-.052.136-.118-2.119-1.973-4.856-4.875-6.939-6.792z" style="fill:#f9dbf2;fill-opacity:.927419;stroke:#000;stroke-width:.97;stroke-linecap:square;stroke-miterlimit:4;stroke-dasharray:none"/><path id="path5747" d="M107.083 286.31c.873-.052 4.834-.18 7.117-.334l.047-.172c-2.384.146-6.268.282-7.11.335z" style="fill:#f9dbf2;fill-opacity:.927419;stroke:#000;stroke-width:.97;stroke-linecap:square;stroke-miterlimit:4;stroke-dasharray:none"/><path id="path5751" d="M106.864 289.297c1.035-.05 4.699-.166 5.977-.233.727-.037 1.42-.063 2.146-.122l.045-.173c-.72.044-1.414.078-2.134.118-1.103.06-5.98.24-5.98.24z" style="fill:#f9dbf2;fill-opacity:.927419;stroke:#000;stroke-width:.97;stroke-linecap:square;stroke-miterlimit:4;stroke-dasharray:none"/><path id="path5759" d="M124.506 281.659c-.35.221-.559.3-.879.562-1.818 1.487-3.644 4.269-3.044 6.729.141.577.435 1.132.822 1.585.397.466.917.842 1.473 1.102 2.319 1.086 5.415.342 6.818-1.833.31-.48.524-1.038.602-1.603a3.972 3.972 0 0 0-.15-1.678c-.499-1.637-1.94-2.739-3.477-3.328-.43-.164-.884-.26-1.335-.347a7.52 7.52 0 0 0-1.112-.125c-.808-.034-1.672-.03-2.424.313l.001.179c.762-.38 1.624-.35 2.354-.328.367.011.735.05 1.096.118 1.494.28 2.955.891 3.926 2.114.342.431.635.919.797 1.443.16.52.221 1.085.146 1.622-.076.55-.298 1.084-.59 1.556-1.306 2.112-4.319 2.778-6.528 1.77a4.25 4.25 0 0 1-1.44-1.059 3.734 3.734 0 0 1-.803-1.53c-.468-1.912.605-3.986 1.777-5.41.366-.444.803-.828 1.245-1.198.267-.224.582-.385.873-.577z" style="fill:#f9dbf2;fill-opacity:.927419;stroke:#000;stroke-width:.97;stroke-linecap:square;stroke-miterlimit:4;stroke-dasharray:none"/></g><path id="path2407" d="M34.035 286.503a14.256 14.256 0 0 1 2.477-1.843c1.257-.734 2.367-1.083 3.49-1.087.59-.002 1.484.214 1.809.798.488.876-.218 1.86-.73 2.493-.957 1.182-2.236 2.096-3.434 2.994-.979.718-2.035 1.417-3.03 2.111-.427.298-.75.512-.88.75-.023.043.047.175.093.177.085.004.16-.061.24-.094.143-.06.257-.049.401-.105.2-.078.415-.136.623-.188.61-.152.846-.233 1.597-.356 2.315-.378 4.447-.235 6.464.2l.067-.16c-2.033-.435-4.462-.57-6.5-.211-.764.135-1.489.183-2.217.464-.145.056-.373.05-.626.124 0 0 .784-.323.958-.5.976-.723 1.977-1.409 2.956-2.127 1.202-.907 2.437-1.802 3.414-2.98.803-.966 1.245-1.768.731-2.705-.338-.616-1.262-.854-1.885-.851-1.152.006-2.608.544-3.681 1.16-.982.563-1.744 1.18-2.487 1.859z" style="fill:#000;stroke:#000;stroke-width:.926708;stroke-linecap:square;stroke-miterlimit:4;stroke-dasharray:none"/><path id="path2411" d="M61.126 285.577c1.419-.997 3.188-1.92 5.14-1.892 2.196.032 2.164 1.861.93 3.344-1.464 1.763-3.176 3.126-5.488 4.756-.411.29-.718.504-.842.736-.022.04.047.168.092.17.082.002.155.014.231-.02.138-.058.24-.038.387-.06.223-.033.397-.046.601-.083.422-.076.808-.124 1.54-.196a43.733 43.733 0 0 1 5.47-.163l.064-.155c-1.799-.067-3.932-.017-5.507.152-.745.08-1.587.09-2.287.37-.14.055-.212-.237-.455-.163 0 0 .695-.277.89-.417 2.234-1.607 3.94-3.08 5.45-4.791 1.371-1.554 1.13-3.624-1.028-3.642-2.077-.017-3.836.916-5.333 1.98z" style="fill:#000;stroke:#000;stroke-width:.926708;stroke-linecap:square;stroke-miterlimit:4;stroke-dasharray:none"/></g></svg>