<svg xmlns="http://www.w3.org/2000/svg" xmlns:xlink="http://www.w3.org/1999/xlink" id="svg228615" width="800" height="435" preserveAspectRatio="none" version="1.1" viewBox="-10 -10 800 435"><style id="style228472" type="text/css">.grid{stroke:#9e9ed1;stroke-width:.4}.axes{stroke:#000;stroke-width:.9}</style><defs id="defs228481"><path id="STIXWEBMAIN-2212" stroke-width="1" d="M621 220H64v66h557z"/><path id="STIXWEBMAIN-31" stroke-width="1" d="M394 0H118v15c74 4 95 25 95 80v449c0 34-9 49-30 49-10 0-27-5-45-12l-27-10v14l179 91 9-3V76c0-43 20-61 95-61z"/><path id="STIXWEBMAIN-30" stroke-width="1" d="M476 330c0-172-63-344-226-344C79-14 24 172 24 336c0 177 69 340 230 340 131 0 222-141 222-346Zm-96-5c0 208-44 325-132 325-83 0-128-118-128-321S164 12 250 12c85 0 130 115 130 313z"/><path id="STIXWEBMAIN-35" stroke-width="1" d="m438 681-36-85c-3-7-11-13-27-13H181l-40-85c143-27 193-49 250-128 26-36 35-74 35-127 0-96-30-158-98-208-47-34-102-49-170-49C83-14 31 10 31 48c0 25 17 38 45 38 23 0 42-5 74-31 28-23 51-32 71-32 70 0 135 83 135 169 0 64-22 114-67 150-47 38-117 70-213 70-9 0-12 2-12 8 0 2 1 5 1 5l109 237h207c23 0 32 5 48 26z"/><clipPath id="trbl_clip_0_822.9_429_0"><path id="path228474" d="M0 0h822.9v429H0Z"/></clipPath></defs><g id="layer1"><rect id="rect252059" width="774.494" height="403.764" x="6.129" y="6.91" rx="0" ry="0" style="fill:#f9f9f9;stroke:#fff;stroke-width:2.25882"/></g><g id="grid"><path id="path228483" d="M26.317 410.675V229.542m0-15.48V6.91" class="grid"/><path id="path228485" d="M63.023 410.675V6.91" class="grid"/><path id="path228487" d="M99.729 410.675V6.91" class="grid"/><path id="path228489" d="M136.435 410.675V6.91" class="grid"/><path id="path228491" d="M173.14 410.675V6.91" class="grid"/><path id="path228493" d="M209.847 410.675v-180.33m0-16.283V6.91" class="grid"/><path id="path228495" d="M246.552 410.675V6.91" class="grid"/><path id="path228497" d="M283.258 410.675V6.91" class="grid"/><path id="path228499" d="M319.964 410.675V6.91" class="grid"/><path id="path228501" d="M356.67 410.675V6.91" class="grid"/><path id="path228503" d="M393.376 410.675V6.91" class="grid"/><path id="path228505" d="M430.082 410.675V6.91" class="grid"/><path id="path228507" d="M466.788 410.675V6.91" class="grid"/><path id="path228509" d="M503.493 410.675V6.91" class="grid"/><path id="path228511" d="M540.2 410.675V6.91" class="grid"/><path id="path228513" d="M576.905 410.675V230.336m0-16.274V6.91" class="grid"/><path id="path228515" d="M613.611 410.675V6.91" class="grid"/><path id="path228517" d="M650.317 410.675V6.91" class="grid"/><path id="path228519" d="M687.023 410.675V6.91" class="grid"/><path id="path228521" d="M723.729 410.675V6.91" class="grid"/><path id="path228523" d="M760.434 410.675V229.542m0-15.48V6.91" class="grid"/><path id="path228525" d="M6.129 392.322h362.038m20.692 0h391.764" class="grid"/><path id="path228527" d="M6.129 355.616h774.494" class="grid"/><path id="path228529" d="M6.129 318.91h774.494" class="grid"/><path id="path228531" d="M6.129 282.204h774.494" class="grid"/><path id="path228533" d="M6.129 245.498h774.494" class="grid"/><path id="path228535" d="M6.129 208.792h774.494" class="grid"/><path id="path228537" d="M6.129 172.087h774.494" class="grid"/><path id="path228539" d="M6.129 135.38h774.494" class="grid"/><path id="path228541" d="M6.129 98.675h774.494" class="grid"/><path id="path228543" d="M6.129 61.969h774.494" class="grid"/><path id="path228545" d="M6.129 25.263h372.487m10.243 0h391.764" class="grid"/></g><g id="axes"><path id="path228548" d="M6.129 208.792h774.494" class="axes"/><path id="path228550" d="M393.376 410.675V6.91" class="axes"/></g><g id="notch labels" style="stroke:none;fill:#b8b8de"><g id="g228561" transform="matrix(.01523 0 0 -.01523 13.473 226.598)"><use xlink:href="#STIXWEBMAIN-2212" id="use228553" x="0" y="0"/><g id="g228559" transform="translate(685)"><use xlink:href="#STIXWEBMAIN-31" id="use228555"/><use xlink:href="#STIXWEBMAIN-30" id="use228557" x="500" y="0"/></g></g><g id="g228567" transform="matrix(.01523 0 0 -.01523 200.812 227.4)"><use xlink:href="#STIXWEBMAIN-2212" id="use228563" x="0" y="0"/><use xlink:href="#STIXWEBMAIN-35" id="use228565" x="685" y="0"/></g><g id="g228571" transform="matrix(.01523 0 0 -.01523 379.175 226.593)"><use xlink:href="#STIXWEBMAIN-30" id="use228569" x="0" y="0"/></g><g id="g228575" transform="matrix(.01523 0 0 -.01523 573.095 227.392)"><use xlink:href="#STIXWEBMAIN-35" id="use228573" x="0" y="0"/></g><g id="g228581" transform="matrix(.01523 0 0 -.01523 752.81 226.598)"><use xlink:href="#STIXWEBMAIN-31" id="use228577"/><use xlink:href="#STIXWEBMAIN-30" id="use228579" x="500" y="0"/></g><g id="g228587" transform="matrix(.01523 0 0 -.01523 369.48 397.47)"><use xlink:href="#STIXWEBMAIN-2212" id="use228583" x="0" y="0"/><use xlink:href="#STIXWEBMAIN-35" id="use228585" x="685" y="0"/></g><g id="g228591" transform="matrix(.01523 0 0 -.01523 379.927 30.409)"><use xlink:href="#STIXWEBMAIN-35" id="use228589" x="0" y="0"/></g></g><g id="graphs"><g id="g228596" clip-path="url(#trbl_clip_0_822.9_429_0)" transform="matrix(.94118 0 0 .94118 6.129 6.91)"><path id="path228594" d="M-17.55 215.163c13 .424 26 .874 39 1.105 13 .23 26 .22 39-.2 13-.423 26-1.273 39-2.368s26-2.424 39-3.373c13-.95 26-1.475 39-.946 13 .529 26 2.164 39 4.762 13 2.598 26 6.16 39 9.29 13 3.13 26 5.73 39 5.863 13 .132 26-2.36 39-7.958 13-5.597 26-14.366 39-23.468s26-18.353 39-22.37c13-4.017 26-2.385 39 8.146 13 10.53 26 30.275 39 54.39 13 24.116 26 52.328 39 70.948 13 18.62 26 26.627 39 11.347 13-15.279 26-54.951 39-113.672 13-58.72 26-136.348 39-200.912 13-64.563 26-113.788 39-107.002 13 6.786 26 72.922 39 203.442s26 326.49 39 520.417c13 193.926 26 381.303 39 445.995 13 64.692 26-2.407 39-259.835" style="stroke:red;stroke-width:1.7;fill:none"/></g><g id="g228600" clip-path="url(#trbl_clip_0_822.9_429_0)" transform="matrix(.94118 0 0 .94118 6.129 6.91)"><path id="path228598" d="M-17.55 215.786c13 .068 26-.074 39-.496s26-1.133 39-1.927c13-.793 26-1.655 39-2.127 13-.472 26-.517 39 .208 13 .726 26 2.254 39 4.276 13 2.023 26 4.526 39 6.38 13 1.855 26 2.98 39 2.162 13-.818 26-3.682 39-8.417 13-4.736 26-11.353 39-17.328s26-11.133 39-11.8c13-.67 26 3.447 39 13.474 13 10.028 26 26.11 39 43.216s26 34.915 39 43.378c13 8.462 26 6.805 39-11.542s26-54.01 39-98.74 26-98.082 39-134.819c13-36.736 26-54.99 39-30.13 13 24.86 26 94.961 39 202.453s26 252.277 39 376.234 26 222.99 39 219.695c13-3.295 26-115.218 39-350.405 13-235.187 26-596.01 39-962.025" style="stroke:#00f;stroke-width:1.7;fill:none"/></g><g id="g228604" clip-path="url(#trbl_clip_0_822.9_429_0)" transform="matrix(.94118 0 0 .94118 6.129 6.91)"><path id="path228602" d="M-17.55 214.78c13-.373 26-.928 39-1.468 13-.54 26-1.053 39-1.213 13-.16 26 .057 39 .806s26 2.044 39 3.526c13 1.482 26 3.128 39 4.083 13 .956 26 1.157 39-.08s26-3.974 39-7.704c13-3.73 26-8.432 39-12.039 13-3.607 26-5.97 39-4.757s26 6.198 39 14.81c13 8.61 26 20.881 39 32.257 13 11.375 26 21.543 39 23.564 13 2.022 26-4.655 39-22.56 13-17.906 26-47.335 39-79.417s26-66.258 39-83.8c13-17.543 26-17.02 39 14.744s26 95.998 39 178.803c13 82.805 26 183.47 39 255.558 13 72.089 26 112.194 39 72.631s26-162.865 39-359.21c13-196.343 26-465.847 39-703.114 13-237.267 26-434.933 39-446.08" style="stroke:#dd0;stroke-width:1.7;fill:none"/></g><g id="g228608" clip-path="url(#trbl_clip_0_822.9_429_0)" transform="matrix(.94118 0 0 .94118 6.129 6.91)"><path id="path228606" d="M-17.55 213.42c13-.342 26-.608 39-.582 13 .026 26 .361 39 1.037 13 .675 26 1.698 39 2.719 13 1.02 26 2.017 39 2.379 13 .362 26 .041 39-1.28 13-1.322 26-3.677 39-6.44 13-2.762 26-5.894 39-7.813 13-1.92 26-2.506 39-.417 13 2.088 26 6.972 39 13.837 13 6.865 26 15.68 39 22.667 13 6.988 26 11.876 39 10.195 13-1.68 26-10.302 39-25.924 13-15.623 26-38.332 39-59.933s26-41.538 39-46.732c13-5.195 26 5.39 39 37.248 13 31.858 26 85.594 39 145.638 13 60.044 26 125.432 39 161.333 13 35.9 26 39.664 39-14.93s26-169.951 39-322.939c13-152.987 26-342.496 39-483.275s26-226.612 39-165.527c13 61.085 26 276.865 39 634.702" style="stroke:#0c0;stroke-width:1.7;fill:none"/></g><g id="g228612" clip-path="url(#trbl_clip_0_822.9_429_0)" transform="matrix(.94118 0 0 .94118 6.129 6.91)"><path id="path228610" d="M-17.55 213.426c13 .124 26 .484 39 1.043 13 .559 26 1.317 39 1.973 13 .656 26 1.189 39 1.19 13 0 26-.565 39-1.781s26-3.097 39-5.023c13-1.925 26-3.854 39-4.644s26-.352 39 1.97 26 6.593 39 11.733c13 5.14 26 11.086 39 14.91 13 3.825 26 5.309 39 1.824 13-3.484 26-12.168 39-24.776 13-12.61 26-29.102 39-42.588 13-13.485 26-23.471 39-21.416 13 2.054 26 16.854 39 45.124 13 28.271 26 70.214 39 111.133 13 40.92 26 79.827 39 92.122 13 12.296 26-3.958 39-60.42s26-154.364 39-266.513c13-112.15 26-236.902 39-309.598 13-72.696 26-88.45 39 4.592 13 93.044 26 299.565 39 581.655s26 638.09 39 911.81" style="stroke:#f0f;stroke-width:1.7;fill:none"/></g></g></svg>