<svg xmlns="http://www.w3.org/2000/svg" xmlns:xlink="http://www.w3.org/1999/xlink" width="700" height="310"><defs><clipPath id="a"><path d="M226.254 254.46H228V279h-1.746zm0 0"/></clipPath><clipPath id="b"><path d="M383 388h1.996v25.203H383Zm0 0"/></clipPath><clipPath id="c"><path d="M383 254.46h1.996V279H383Zm0 0"/></clipPath><clipPath id="g"><path d="M226.254 254.46H228V279h-1.746zm0 0"/></clipPath><clipPath id="h"><path d="M383 388h1.996v25.203H383Zm0 0"/></clipPath><clipPath id="i"><path d="M383 254.46h1.996V279H383Zm0 0"/></clipPath><clipPath id="d"><path d="M226.254 254.46H228V279h-1.746zm0 0"/></clipPath><clipPath id="e"><path d="M383 388h1.996v25.203H383Zm0 0"/></clipPath><clipPath id="f"><path d="M383 254.46h1.996V279H383Zm0 0"/></clipPath><clipPath id="o"><path d="M226.254 254.46H228V279h-1.746zm0 0"/></clipPath><clipPath id="p"><path d="M383 388h1.996v25.203H383Zm0 0"/></clipPath><clipPath id="q"><path d="M383 254.46h1.996V279H383Zm0 0"/></clipPath><clipPath id="u"><path d="M226.254 254.46H228V279h-1.746zm0 0"/></clipPath><clipPath id="v"><path d="M383 388h1.996v25.203H383Zm0 0"/></clipPath><clipPath id="w"><path d="M383 254.46h1.996V279H383Zm0 0"/></clipPath><clipPath id="r"><path d="M226.254 254.46H228V279h-1.746zm0 0"/></clipPath><clipPath id="s"><path d="M383 388h1.996v25.203H383Zm0 0"/></clipPath><clipPath id="t"><path d="M383 254.46h1.996V279H383Zm0 0"/></clipPath><symbol id="j" overflow="visible" style="overflow:visible"><path d="m4.734-1.36-.125-.062c-.375.578-.5.672-.953.672H1.281l1.672-1.766c.89-.921 1.281-1.687 1.281-2.453 0-1-.812-1.765-1.859-1.765-.547 0-1.063.218-1.422.609-.328.344-.469.656-.64 1.375l.203.047C.922-5.687 1.28-6 1.969-6c.828 0 1.406.563 1.406 1.406 0 .782-.469 1.703-1.297 2.594L.297-.125V0h3.89Zm0 0" style="stroke:none"/></symbol><symbol id="k" overflow="visible" style="overflow:visible"><path d="M6.563-2.297c.171 0 .359 0 .359-.203 0-.188-.188-.188-.36-.188h-5.39c-.172 0-.344 0-.344.188 0 .203.172.203.344.203zm0 0" style="stroke:none"/></symbol><symbol id="x" overflow="visible" style="overflow:visible"><path d="M4-1.11c-.078.094-.125.157-.219.266-.219.313-.344.406-.453.406-.14 0-.234-.124-.312-.406-.016-.078-.032-.14-.032-.172-.25-1.015-.359-1.468-.359-1.609.438-.781.797-1.219.969-1.219.062 0 .14.031.25.078.11.079.187.094.265.094.204 0 .344-.14.344-.36 0-.202-.172-.359-.406-.359-.438 0-.813.36-1.5 1.422l-.11-.547c-.14-.687-.25-.875-.53-.875-.22 0-.548.079-1.157.282l-.11.046.032.141c.39-.078.469-.11.562-.11.25 0 .313.095.454.688l.28 1.235-.812 1.156C.953-.641.75-.47.641-.47a.554.554 0 0 1-.25-.094.755.755 0 0 0-.329-.093c-.187 0-.328.14-.328.344 0 .265.204.421.5.421.297 0 .422-.093.922-.703.266-.312.485-.578.89-1.156L2.36-.562c.125.515.25.671.579.671.374 0 .624-.234 1.203-1.14zm0 0" style="stroke:none"/></symbol><symbol id="l" overflow="visible" style="overflow:visible"><path d="m4.734-1.36-.125-.062c-.375.578-.5.672-.953.672H1.281l1.672-1.766c.89-.921 1.281-1.687 1.281-2.453 0-1-.812-1.765-1.859-1.765-.547 0-1.063.218-1.422.609-.328.344-.469.656-.64 1.375l.203.047C.922-5.687 1.28-6 1.969-6c.828 0 1.406.563 1.406 1.406 0 .782-.469 1.703-1.297 2.594L.297-.125V0h3.89Zm0 0" style="stroke:none"/></symbol><symbol id="m" overflow="visible" style="overflow:visible"><path d="M6.563-2.297c.171 0 .359 0 .359-.203 0-.188-.188-.188-.36-.188h-5.39c-.172 0-.344 0-.344.188 0 .203.172.203.344.203zm0 0" style="stroke:none"/></symbol><symbol id="n" overflow="visible" style="overflow:visible"><path d="M4-1.11c-.078.094-.125.157-.219.266-.219.313-.344.406-.453.406-.14 0-.234-.124-.312-.406-.016-.078-.032-.14-.032-.172-.25-1.015-.359-1.468-.359-1.609.438-.781.797-1.219.969-1.219.062 0 .14.031.25.078.11.079.187.094.265.094.204 0 .344-.14.344-.36 0-.202-.172-.359-.406-.359-.438 0-.813.36-1.5 1.422l-.11-.547c-.14-.687-.25-.875-.53-.875-.22 0-.548.079-1.157.282l-.11.046.032.141c.39-.078.469-.11.562-.11.25 0 .313.095.454.688l.28 1.235-.812 1.156C.953-.641.75-.47.641-.47a.554.554 0 0 1-.25-.094.755.755 0 0 0-.329-.093c-.187 0-.328.14-.328.344 0 .265.204.421.5.421.297 0 .422-.093.922-.703.266-.312.485-.578.89-1.156L2.36-.562c.125.515.25.671.579.671.374 0 .624-.234 1.203-1.14zm0 0" style="stroke:none"/></symbol><symbol id="y" overflow="visible"><path d="M4.64-1.172c-.546.688-.656.797-.827.797-.079 0-.157-.094-.157-.188 0-.093.156-.718.328-1.234.297-.953.485-1.687.485-1.937 0-.391-.266-.657-.657-.657-.656 0-1.359.657-2.28 2.094l1.187-4.469-.047-.046c-.578.14-.969.203-1.563.265v.156h.25c.016 0 .032 0 .032-.015.14-.047.39.11.39.25s-.062.39-.14.687c-.016 0-.047.14-.11.36L.188 0h.75c.39-1.531.53-1.875.921-2.484.516-.782 1.204-1.407 1.547-1.407.156 0 .281.125.281.25 0 .047-.03.172-.062.329L3.078-1.25c-.14.5-.203.797-.203.922 0 .266.172.422.438.422.5 0 .859-.266 1.453-1.14zm0 0" style="stroke:none"/></symbol><symbol id="B" overflow="visible"><path d="M4-1.11c-.078.094-.125.157-.219.266-.219.313-.344.406-.453.406-.14 0-.234-.124-.312-.406-.016-.078-.032-.14-.032-.172-.25-1.015-.359-1.468-.359-1.609.438-.781.797-1.219.969-1.219.062 0 .14.031.25.078.11.079.187.094.265.094.204 0 .344-.14.344-.36 0-.202-.172-.359-.406-.359-.438 0-.813.36-1.5 1.422l-.11-.547c-.14-.687-.25-.875-.53-.875-.22 0-.548.079-1.157.282l-.11.046.032.141c.39-.078.469-.11.562-.11.25 0 .313.095.454.688l.28 1.235-.812 1.156C.953-.641.75-.47.641-.47a.554.554 0 0 1-.25-.094.755.755 0 0 0-.329-.093c-.187 0-.328.14-.328.344 0 .265.204.421.5.421.297 0 .422-.093.922-.703.266-.312.485-.578.89-1.156L2.36-.562c.125.515.25.671.579.671.374 0 .624-.234 1.203-1.14zm0 0" style="stroke:none"/></symbol><symbol id="A" overflow="visible"><path d="M3.297 2.39c0-.03 0-.046-.172-.218C1.891.922 1.562-.968 1.562-2.5c0-1.734.375-3.469 1.61-4.703.125-.125.125-.14.125-.172 0-.078-.031-.11-.094-.11-.11 0-1 .688-1.594 1.954C1.11-4.438.984-3.328.984-2.5c0 .781.11 1.984.657 3.125C2.25 1.844 3.094 2.5 3.203 2.5c.063 0 .094-.031.094-.11zm0 0" style="stroke:none"/></symbol><symbol id="C" overflow="visible"><path d="M2.875-2.5c0-.766-.11-1.969-.656-3.11C1.625-6.827.766-7.483.672-7.483a.107.107 0 0 0-.11.109c0 .031 0 .047.188.234.984.985 1.547 2.563 1.547 4.641 0 1.719-.36 3.469-1.594 4.719-.14.125-.14.14-.14.172 0 .062.046.109.109.109.094 0 1-.688 1.578-1.953.516-1.094.625-2.203.625-3.047Zm0 0" style="stroke:none"/></symbol><symbol id="z" overflow="visible"><path d="M1.86-3.5c.046-.094.077-.156.077-.234 0-.22-.203-.391-.421-.391-.204 0-.344.14-.391.328L.25-.562c0 .015-.031.093-.031.093 0 .078.187.14.25.14.047 0 .047-.03.094-.124zm0 0" style="stroke:none"/></symbol></defs><g style="display:inline" transform="translate(-624.764 -280.478)"><g clip-path="url(#a)" style="clip-rule:nonzero" transform="translate(2680.66 -638.749) scale(4.16338)"><path d="M-88.897 68.034c0 1-.813 1.813-1.813 1.813a1.811 1.811 0 0 1-1.812-1.813 1.812 1.812 0 1 1 3.625 0zm0 0" style="fill:none;stroke:red;stroke-width:.79701;stroke-linecap:butt;stroke-linejoin:miter;stroke-miterlimit:10;stroke-opacity:1" transform="matrix(1 0 0 -1 305.624 333.831)"/></g><g clip-path="url(#b)" style="clip-rule:nonzero" transform="translate(2680.66 -638.749) scale(4.16338)"><path d="M92.524-68.032a1.814 1.814 0 1 1-3.627-.003 1.814 1.814 0 0 1 3.627.003zm0 0" style="fill:none;stroke:red;stroke-width:.79701;stroke-linecap:butt;stroke-linejoin:miter;stroke-miterlimit:10;stroke-opacity:1" transform="matrix(1 0 0 -1 305.624 333.831)"/></g><g clip-path="url(#c)" style="clip-rule:nonzero" transform="translate(2680.66 -638.749) scale(4.16338)"><path d="M92.524 68.034a1.814 1.814 0 1 1-3.627-.002 1.814 1.814 0 0 1 3.627.002zm0 0" style="fill:none;stroke:red;stroke-width:.79701;stroke-linecap:butt;stroke-linejoin:miter;stroke-miterlimit:10;stroke-opacity:1" transform="matrix(1 0 0 -1 305.624 333.831)"/></g><g clip-path="url(#a)" style="clip-rule:nonzero" transform="translate(3559.954 -638.749) scale(4.16338)"><path d="M-88.897 68.034c0 1-.813 1.813-1.813 1.813a1.811 1.811 0 0 1-1.812-1.813 1.812 1.812 0 1 1 3.625 0zm0 0" style="fill:none;stroke:red;stroke-width:.79701;stroke-linecap:butt;stroke-linejoin:miter;stroke-miterlimit:10;stroke-opacity:1" transform="matrix(1 0 0 -1 305.624 333.831)"/></g><g clip-path="url(#b)" style="clip-rule:nonzero" transform="translate(3559.954 -638.749) scale(4.16338)"><path d="M92.524-68.032a1.814 1.814 0 1 1-3.627-.003 1.814 1.814 0 0 1 3.627.003zm0 0" style="fill:none;stroke:red;stroke-width:.79701;stroke-linecap:butt;stroke-linejoin:miter;stroke-miterlimit:10;stroke-opacity:1" transform="matrix(1 0 0 -1 305.624 333.831)"/></g><g clip-path="url(#c)" style="clip-rule:nonzero" transform="translate(3559.954 -638.749) scale(4.16338)"><path d="M92.524 68.034a1.814 1.814 0 1 1-3.627-.002 1.814 1.814 0 0 1 3.627.002zm0 0" style="fill:none;stroke:red;stroke-width:.79701;stroke-linecap:butt;stroke-linejoin:miter;stroke-miterlimit:10;stroke-opacity:1" transform="matrix(1 0 0 -1 305.624 333.831)"/></g><g clip-path="url(#d)" style="clip-rule:nonzero" transform="translate(-7260.635 -3364.18) scale(4.16338)"><path d="M-88.897 68.034c0 1-.813 1.813-1.813 1.813a1.811 1.811 0 0 1-1.812-1.813 1.812 1.812 0 1 1 3.625 0zm0 0" style="fill:none;stroke:red;stroke-width:.79701;stroke-linecap:butt;stroke-linejoin:miter;stroke-miterlimit:10;stroke-opacity:1" transform="matrix(1 0 0 -1 305.624 333.831)"/></g><g clip-path="url(#e)" style="clip-rule:nonzero" transform="translate(-7260.635 -3364.18) scale(4.16338)"><path d="M92.524-68.032a1.814 1.814 0 1 1-3.627-.003 1.814 1.814 0 0 1 3.627.003zm0 0" style="fill:none;stroke:red;stroke-width:.79701;stroke-linecap:butt;stroke-linejoin:miter;stroke-miterlimit:10;stroke-opacity:1" transform="matrix(1 0 0 -1 305.624 333.831)"/></g><g clip-path="url(#f)" style="clip-rule:nonzero" transform="translate(-7260.635 -3364.18) scale(4.16338)"><path d="M92.524 68.034a1.814 1.814 0 1 1-3.627-.002 1.814 1.814 0 0 1 3.627.002zm0 0" style="fill:none;stroke:red;stroke-width:.79701;stroke-linecap:butt;stroke-linejoin:miter;stroke-miterlimit:10;stroke-opacity:1" transform="matrix(1 0 0 -1 305.624 333.831)"/></g><g clip-path="url(#d)" style="clip-rule:nonzero" transform="translate(-6381.34 -3364.18) scale(4.16338)"><path d="M-88.897 68.034c0 1-.813 1.813-1.813 1.813a1.811 1.811 0 0 1-1.812-1.813 1.812 1.812 0 1 1 3.625 0zm0 0" style="fill:none;stroke:red;stroke-width:.79701;stroke-linecap:butt;stroke-linejoin:miter;stroke-miterlimit:10;stroke-opacity:1" transform="matrix(1 0 0 -1 305.624 333.831)"/></g><g clip-path="url(#e)" style="clip-rule:nonzero" transform="translate(-6381.34 -3364.18) scale(4.16338)"><path d="M92.524-68.032a1.814 1.814 0 1 1-3.627-.003 1.814 1.814 0 0 1 3.627.003zm0 0" style="fill:none;stroke:red;stroke-width:.79701;stroke-linecap:butt;stroke-linejoin:miter;stroke-miterlimit:10;stroke-opacity:1" transform="matrix(1 0 0 -1 305.624 333.831)"/></g><g clip-path="url(#f)" style="clip-rule:nonzero" transform="translate(-6381.34 -3364.18) scale(4.16338)"><path d="M92.524 68.034a1.814 1.814 0 1 1-3.627-.002 1.814 1.814 0 0 1 3.627.002zm0 0" style="fill:none;stroke:red;stroke-width:.79701;stroke-linecap:butt;stroke-linejoin:miter;stroke-miterlimit:10;stroke-opacity:1" transform="matrix(1 0 0 -1 305.624 333.831)"/></g><g clip-path="url(#g)" style="clip-rule:nonzero" transform="translate(-4573.814 3359.285) scale(4.16338)"><path d="M-88.897 68.034c0 1-.813 1.813-1.813 1.813a1.811 1.811 0 0 1-1.812-1.813 1.812 1.812 0 1 1 3.625 0zm0 0" style="fill:none;stroke:red;stroke-width:.79701;stroke-linecap:butt;stroke-linejoin:miter;stroke-miterlimit:10;stroke-opacity:1" transform="matrix(1 0 0 -1 305.624 333.831)"/></g><g clip-path="url(#h)" style="clip-rule:nonzero" transform="translate(-4573.814 3359.285) scale(4.16338)"><path d="M92.524-68.032a1.814 1.814 0 1 1-3.627-.003 1.814 1.814 0 0 1 3.627.003zm0 0" style="fill:none;stroke:red;stroke-width:.79701;stroke-linecap:butt;stroke-linejoin:miter;stroke-miterlimit:10;stroke-opacity:1" transform="matrix(1 0 0 -1 305.624 333.831)"/></g><g clip-path="url(#i)" style="clip-rule:nonzero" transform="translate(-4573.814 3359.285) scale(4.16338)"><path d="M92.524 68.034a1.814 1.814 0 1 1-3.627-.002 1.814 1.814 0 0 1 3.627.002zm0 0" style="fill:none;stroke:red;stroke-width:.79701;stroke-linecap:butt;stroke-linejoin:miter;stroke-miterlimit:10;stroke-opacity:1" transform="matrix(1 0 0 -1 305.624 333.831)"/></g><g clip-path="url(#g)" style="clip-rule:nonzero" transform="translate(-3694.52 3359.285) scale(4.16338)"><path d="M-88.897 68.034c0 1-.813 1.813-1.813 1.813a1.811 1.811 0 0 1-1.812-1.813 1.812 1.812 0 1 1 3.625 0zm0 0" style="fill:none;stroke:red;stroke-width:.79701;stroke-linecap:butt;stroke-linejoin:miter;stroke-miterlimit:10;stroke-opacity:1" transform="matrix(1 0 0 -1 305.624 333.831)"/></g><g clip-path="url(#h)" style="clip-rule:nonzero" transform="translate(-3694.52 3359.285) scale(4.16338)"><path d="M92.524-68.032a1.814 1.814 0 1 1-3.627-.003 1.814 1.814 0 0 1 3.627.003zm0 0" style="fill:none;stroke:red;stroke-width:.79701;stroke-linecap:butt;stroke-linejoin:miter;stroke-miterlimit:10;stroke-opacity:1" transform="matrix(1 0 0 -1 305.624 333.831)"/></g><g clip-path="url(#i)" style="clip-rule:nonzero" transform="translate(-3694.52 3359.285) scale(4.16338)"><path d="M92.524 68.034a1.814 1.814 0 1 1-3.627-.002 1.814 1.814 0 0 1 3.627.002zm0 0" style="fill:none;stroke:red;stroke-width:.79701;stroke-linecap:butt;stroke-linejoin:miter;stroke-miterlimit:10;stroke-opacity:1" transform="matrix(1 0 0 -1 305.624 333.831)"/></g><path d="M890.887 467.11V342.731M890.887 577.211v-90.093M842.035 577.211v-234.48M793.183 577.211v-234.48M744.33 577.211v-234.48M695.478 467.11V342.731M695.478 577.211v-90.34M788.026 362.273h122.397M675.943 362.273h98.25M675.943 411.119h234.48M675.943 459.971h234.48M675.943 508.823h234.48M788.027 557.676h122.396M675.943 557.676h85.654" style="fill:none;stroke:#9e9ed1;stroke-width:.343372;stroke-linecap:butt;stroke-linejoin:miter;stroke-miterlimit:10;stroke-opacity:1"/><path d="M675.943 460.012h243.333M793.183 577.211v-243.23" style="fill:none;stroke:#000;stroke-width:.686745;stroke-linecap:butt;stroke-linejoin:miter;stroke-miterlimit:10;stroke-opacity:1"/><use xlink:href="#j" width="100%" height="100%" x="347.363" y="587.952" style="fill:#b0b0d9;fill-opacity:1" transform="matrix(1.72333 0 0 1.72333 287.972 -531.056)"/><use xlink:href="#k" width="100%" height="100%" x="230.105" y="587.538" style="fill:#b0b0d9;fill-opacity:1" transform="matrix(1.72333 0 0 1.72333 287.972 -530.229)"/><use xlink:href="#j" width="100%" height="100%" x="237.905" y="587.538" style="fill:#b0b0d9;fill-opacity:1" transform="matrix(1.72333 0 0 1.72333 287.972 -530.229)"/><use xlink:href="#j" width="100%" height="100%" x="284.15" y="522.187" style="fill:#b0b0d9;fill-opacity:1" transform="matrix(1.72333 0 0 1.72333 287.478 -532.493)"/><use xlink:href="#k" width="100%" height="100%" x="276.027" y="635.161" style="fill:#b0b0d9;fill-opacity:1" transform="matrix(1.72333 0 0 1.72333 287.972 -531.883)"/><use xlink:href="#j" width="100%" height="100%" x="283.827" y="635.161" style="fill:#b0b0d9;fill-opacity:1" transform="matrix(1.72333 0 0 1.72333 287.972 -531.883)"/><path d="M916.562 456.653c.209 1.259 2.518 3.15 3.15 3.359-.632.215-2.941 2.107-3.15 3.366M789.817 336.542c1.259-.208 3.157-2.524 3.366-3.157.208.633 2.1 2.949 3.366 3.157" style="fill:none;stroke:#000;stroke-width:.961443;stroke-linecap:round;stroke-linejoin:round;stroke-miterlimit:10;stroke-opacity:1"/><path d="m675.943 486.055 1.952-2.545.976-1.218.976-1.272.976-1.219.976-1.272.983-1.218.976-1.226.976-1.218.976-1.171.977-1.226.976-1.17.976-1.22.983-1.17.976-1.179 1.952-2.342.976-1.125.976-1.17.976-1.125.983-1.171 2.928-3.373.976-1.07.977-1.125.976-1.077.983-1.124.976-1.07 1.952-2.154.976-1.07.976-1.03.976-1.071.983-1.03.976-1.07.976-1.03.976-1.024.976-1.03.976-.976 1.953-2.046 5.863-5.863.976-.93.983-.928.97-.93.982-.928.976-.93.976-.874.976-.882.977-.875.976-.835.983-.781.976-.78 1.952-1.468.976-.687.976-.68.976-.633.983-.64 1.952-1.17.976-.54.976-.585.976-.538.977-.485.976-.539.983-.538.976-.485 1.952-.983.976-.484.976-.492.976-.437.976-.492.983-.437.976-.485.976-.444 1.952-.875.977-.397.976-.438.982-.39.977-.438 3.904-1.562.983-.343.976-.39 1.952-.687.976-.39.976-.344.976-.29 1.953-.686.982-.29.977-.343.976-.296.976-.29.976-.296.976-.29.983-.248.976-.29.976-.249 2.928-.727.976-.249.977-.242.982-.243 1.953-.39.976-.242.976-.202.976-.196.976-.141.983-.195.976-.195 2.928-.445.976-.141 1.953-.296.982-.148.976-.095.977-.1.976-.149.976-.094.976-.1.976-.048.983-.094.97-.1.982-.048.976-.047.976-.054 2.929-.14.982-.055h1.953l.976-.047h1.952l.976.047h1.959l.976.054 2.928.141.983.054.976.047.976.094.976.054.977.094.976.101.976.095 1.952.296.983.141.976.202 2.928.727.976.296.983.344.97.39.982.39 1.953.876.976.491 1.952 1.077.983.532.976.592 1.952 1.172 1.952 1.265.976.64.976.632.983.633.976.687.977.633 1.952 1.373.976.633.976.686.983.727.976.687.976.68 3.904 2.935.983.734.97.727.982.734.976.78.977.788.976.734.982.774.97.788.983.828L886 423.57l.976.835 1.952 1.656.976.835.983.828.976.835.976.828.976.881.977.876.976.834.976.875.976.882.983.93.976.874.976.882.976.93.976.921 1.952 1.858.983.93 1.952 1.857 1.953 1.953h.976" style="fill:none;stroke:red;stroke-width:1.37351;stroke-linecap:butt;stroke-linejoin:miter;stroke-miterlimit:10;stroke-opacity:1"/><path d="M1248.22 434.16v-91.553M1248.22 577.087V453.283M1199.368 577.087v-234.48M1150.515 577.087v-234.48M1101.663 577.087v-234.48M1052.811 434.182v-91.575M1052.811 577.087V453.305M1145.58 362.149h122.175M1033.275 362.149h97.982M1033.275 410.994h234.48M1033.275 459.847h234.48M1033.275 508.699h234.48M1145.58 557.551h122.175M1033.275 557.551h85.494" style="fill:none;stroke:#9e9ed1;stroke-width:.343372;stroke-linecap:butt;stroke-linejoin:miter;stroke-miterlimit:10;stroke-opacity:1"/><path d="M1033.275 459.847h234.48M1150.515 577.087V333.685" style="fill:none;stroke:#000;stroke-width:.686745;stroke-linecap:butt;stroke-linejoin:miter;stroke-miterlimit:10;stroke-opacity:1"/><use xlink:href="#l" width="100%" height="100%" x="347.363" y="569.809" style="fill:#b0b0d9;fill-opacity:1" transform="matrix(1.72333 0 0 1.72333 645.306 -532.182)"/><use xlink:href="#m" width="100%" height="100%" x="230.105" y="569.396" style="fill:#b0b0d9;fill-opacity:1" transform="matrix(1.72333 0 0 1.72333 645.306 -531.484)"/><use xlink:href="#l" width="100%" height="100%" x="237.905" y="569.396" style="fill:#b0b0d9;fill-opacity:1" transform="matrix(1.72333 0 0 1.72333 645.306 -531.484)"/><use xlink:href="#l" width="100%" height="100%" x="284.15" y="522.187" style="fill:#b0b0d9;fill-opacity:1" transform="matrix(1.72333 0 0 1.72333 644.869 -532.51)"/><use xlink:href="#m" width="100%" height="100%" x="276.027" y="635.161" style="fill:#b0b0d9;fill-opacity:1" transform="matrix(1.72333 0 0 1.72333 645.487 -532.008)"/><use xlink:href="#l" width="100%" height="100%" x="283.827" y="635.161" style="fill:#b0b0d9;fill-opacity:1" transform="matrix(1.72333 0 0 1.72333 645.487 -532.008)"/><path d="M1267.755 459.847h9.768" style="fill:none;stroke:#000;stroke-width:.686745;stroke-linecap:butt;stroke-linejoin:miter;stroke-miterlimit:10;stroke-opacity:1"/><path d="M1277.355 459.847h-.943" style="fill:none;stroke:#000;stroke-width:1.20183;stroke-linecap:butt;stroke-linejoin:miter;stroke-miterlimit:10;stroke-opacity:1"/><path d="M1273.895 456.488c.208 1.258 2.517 3.15 3.15 3.359-.633.215-2.942 2.107-3.15 3.366M1147.15 336.543c1.258-.209 3.157-2.524 3.365-3.157.21.633 2.1 2.948 3.366 3.157" style="fill:none;stroke:#000;stroke-width:.961443;stroke-linecap:round;stroke-linejoin:round;stroke-miterlimit:10;stroke-opacity:1"/><use xlink:href="#n" width="100%" height="100%" x="378.808" y="577.658" style="fill:#000;fill-opacity:1" transform="matrix(2.00677 0 0 2.00677 537.343 -695.132)"/><path d="M1033.275 476.117h42.107l.243.047h.249l.242.054h.243l.242.047.249.047.485.094.249.101.242.047.242.148.25.094.242.148.727.586.249.296.242.29.25.343.242.39.242.438.242.491.243.539.249.633.242.686.242.734.25.828.242.882.242.976.243 1.023.249 1.124.242 1.172.242 1.272.25 1.32.242 1.413.242 1.468.25 1.514.241 1.562.243 1.616.242 1.662.25 1.704.242 1.71.242 1.763.25 1.71.241 1.757.243 1.71.242 1.663.25 1.656.241 1.615.243 1.562.242 1.467.25 1.414.242 1.32.242 1.272.249 1.171.242 1.023.243.983.242.828.25.734.241.633.243.586.249.437.242.343.243.25.242.14.249.102.242.047h.492l.242-.094.242-.196.25-.249.242-.29.242-.444.243-.531.249-.64.242-.734.242-.828.243-.929.249-1.077.242-1.117.242-1.225.25-1.32.242-1.413.242-1.468.25-1.562.242-1.568.242-1.656.242-1.71.25-1.71.242-1.71.242-1.757.242-1.71.25-1.71.242-1.71.242-1.662.25-1.663.242-1.562.484-3.029.25-1.366.242-1.367.242-1.272.25-1.172.241-1.124.243-1.077.242-.976.25-.875.241-.835.243-.734.249-.68.242-.639.243-.532.242-.538.249-.438.242-.39.243-.344.242-.296.25-.29.241-.248.25-.196.242-.148.242-.141.243-.148.249-.101.242-.094.242-.101.243-.047.249-.047.484-.094h.243l.249-.054h.242l.242-.047h76.843l.25.047h.242l.242.054h.242l.25.046h.242l.242.047.25.047.242.101.242.047.242.094.25.101.242.095.242.1.25.149.484.39.249.195.242.243.243.296.242.29.249.39.242.39.243.444.242.438.25.539.241.585.243.633.242.734.25.733.241.829.243.881.249.93.242 1.023.243 1.077.249 1.171.242 1.218.242 1.273.243 1.366.249 1.42.242 1.461.242 1.515.25 1.569.242 1.656.242 1.662.243 1.71.249 1.71.484 3.514.243 1.81.249 1.758.242 1.81.242 1.758.25 1.757.242 1.71.242 1.662.243 1.61.249 1.615.242 1.514.242 1.414.25 1.42.242 1.266.242 1.225.242 1.172.25 1.023.242.983.242.875.25.78.242.64.242.633.242.491.25.39.242.337.242.25.242.195.25.094.242.047h.491l.243-.047.242-.094.242-.196.25-.249.242-.336.249-.39.242-.492.242-.633.243-.64.242-.78.25-.875.242-.983.242-1.023.249-1.172.242-1.225.243-1.266.249-1.42.242-1.414.242-1.514.243-1.616.249-1.609.242-1.663.242-1.71.25-1.756.242-1.757.242-1.811.243-1.757.249-1.811.484-3.514.25-1.71.242-1.71.242-1.662.242-1.656.25-1.569.242-1.515.242-1.46.243-1.42.249-1.367.242-1.273.242-1.218.25-1.171.242-1.077.242-1.024.242-.929.25-.881.242-.829.242-.733.25-.734.242-.633.242-.585.25-.539.241-.438.243-.444.242-.39.25-.39.241-.29.243-.296.242-.243.25-.195.484-.39.249-.148.242-.101.243-.095.249-.1.242-.095.242-.047.243-.1.249-.048.242-.047h.242l.243-.046h.249l.242-.054h.243l.249-.047h44.45" style="fill:none;stroke:red;stroke-width:1.37351;stroke-linecap:butt;stroke-linejoin:miter;stroke-miterlimit:10;stroke-opacity:1"/><g clip-path="url(#o)" style="clip-rule:nonzero" transform="translate(2680.517 -1181.938) scale(4.16338)"><path d="M-88.897 68.034c0 1-.813 1.813-1.813 1.813a1.811 1.811 0 0 1-1.812-1.813 1.812 1.812 0 1 1 3.625 0zm0 0" style="fill:none;stroke:red;stroke-width:.79701;stroke-linecap:butt;stroke-linejoin:miter;stroke-miterlimit:10;stroke-opacity:1" transform="matrix(1 0 0 -1 305.624 333.831)"/></g><g clip-path="url(#p)" style="clip-rule:nonzero" transform="translate(2680.517 -1181.938) scale(4.16338)"><path d="M92.524-68.032a1.814 1.814 0 1 1-3.627-.003 1.814 1.814 0 0 1 3.627.003zm0 0" style="fill:none;stroke:red;stroke-width:.79701;stroke-linecap:butt;stroke-linejoin:miter;stroke-miterlimit:10;stroke-opacity:1" transform="matrix(1 0 0 -1 305.624 333.831)"/></g><g clip-path="url(#q)" style="clip-rule:nonzero" transform="translate(2680.517 -1181.938) scale(4.16338)"><path d="M92.524 68.034a1.814 1.814 0 1 1-3.627-.002 1.814 1.814 0 0 1 3.627.002zm0 0" style="fill:none;stroke:red;stroke-width:.79701;stroke-linecap:butt;stroke-linejoin:miter;stroke-miterlimit:10;stroke-opacity:1" transform="matrix(1 0 0 -1 305.624 333.831)"/></g><g clip-path="url(#o)" style="clip-rule:nonzero" transform="translate(3559.811 -1181.938) scale(4.16338)"><path d="M-88.897 68.034c0 1-.813 1.813-1.813 1.813a1.811 1.811 0 0 1-1.812-1.813 1.812 1.812 0 1 1 3.625 0zm0 0" style="fill:none;stroke:red;stroke-width:.79701;stroke-linecap:butt;stroke-linejoin:miter;stroke-miterlimit:10;stroke-opacity:1" transform="matrix(1 0 0 -1 305.624 333.831)"/></g><g clip-path="url(#p)" style="clip-rule:nonzero" transform="translate(3559.811 -1181.938) scale(4.16338)"><path d="M92.524-68.032a1.814 1.814 0 1 1-3.627-.003 1.814 1.814 0 0 1 3.627.003zm0 0" style="fill:none;stroke:red;stroke-width:.79701;stroke-linecap:butt;stroke-linejoin:miter;stroke-miterlimit:10;stroke-opacity:1" transform="matrix(1 0 0 -1 305.624 333.831)"/></g><g clip-path="url(#q)" style="clip-rule:nonzero" transform="translate(3559.811 -1181.938) scale(4.16338)"><path d="M92.524 68.034a1.814 1.814 0 1 1-3.627-.002 1.814 1.814 0 0 1 3.627.002zm0 0" style="fill:none;stroke:red;stroke-width:.79701;stroke-linecap:butt;stroke-linejoin:miter;stroke-miterlimit:10;stroke-opacity:1" transform="matrix(1 0 0 -1 305.624 333.831)"/></g><g clip-path="url(#r)" style="clip-rule:nonzero" transform="translate(-7260.778 -3907.369) scale(4.16338)"><path d="M-88.897 68.034c0 1-.813 1.813-1.813 1.813a1.811 1.811 0 0 1-1.812-1.813 1.812 1.812 0 1 1 3.625 0zm0 0" style="fill:none;stroke:red;stroke-width:.79701;stroke-linecap:butt;stroke-linejoin:miter;stroke-miterlimit:10;stroke-opacity:1" transform="matrix(1 0 0 -1 305.624 333.831)"/></g><g clip-path="url(#s)" style="clip-rule:nonzero" transform="translate(-7260.778 -3907.369) scale(4.16338)"><path d="M92.524-68.032a1.814 1.814 0 1 1-3.627-.003 1.814 1.814 0 0 1 3.627.003zm0 0" style="fill:none;stroke:red;stroke-width:.79701;stroke-linecap:butt;stroke-linejoin:miter;stroke-miterlimit:10;stroke-opacity:1" transform="matrix(1 0 0 -1 305.624 333.831)"/></g><g clip-path="url(#t)" style="clip-rule:nonzero" transform="translate(-7260.778 -3907.369) scale(4.16338)"><path d="M92.524 68.034a1.814 1.814 0 1 1-3.627-.002 1.814 1.814 0 0 1 3.627.002zm0 0" style="fill:none;stroke:red;stroke-width:.79701;stroke-linecap:butt;stroke-linejoin:miter;stroke-miterlimit:10;stroke-opacity:1" transform="matrix(1 0 0 -1 305.624 333.831)"/></g><g clip-path="url(#r)" style="clip-rule:nonzero" transform="translate(-6381.484 -3907.369) scale(4.16338)"><path d="M-88.897 68.034c0 1-.813 1.813-1.813 1.813a1.811 1.811 0 0 1-1.812-1.813 1.812 1.812 0 1 1 3.625 0zm0 0" style="fill:none;stroke:red;stroke-width:.79701;stroke-linecap:butt;stroke-linejoin:miter;stroke-miterlimit:10;stroke-opacity:1" transform="matrix(1 0 0 -1 305.624 333.831)"/></g><g clip-path="url(#s)" style="clip-rule:nonzero" transform="translate(-6381.484 -3907.369) scale(4.16338)"><path d="M92.524-68.032a1.814 1.814 0 1 1-3.627-.003 1.814 1.814 0 0 1 3.627.003zm0 0" style="fill:none;stroke:red;stroke-width:.79701;stroke-linecap:butt;stroke-linejoin:miter;stroke-miterlimit:10;stroke-opacity:1" transform="matrix(1 0 0 -1 305.624 333.831)"/></g><g clip-path="url(#t)" style="clip-rule:nonzero" transform="translate(-6381.484 -3907.369) scale(4.16338)"><path d="M92.524 68.034a1.814 1.814 0 1 1-3.627-.002 1.814 1.814 0 0 1 3.627.002zm0 0" style="fill:none;stroke:red;stroke-width:.79701;stroke-linecap:butt;stroke-linejoin:miter;stroke-miterlimit:10;stroke-opacity:1" transform="matrix(1 0 0 -1 305.624 333.831)"/></g><g clip-path="url(#u)" style="clip-rule:nonzero" transform="translate(-4573.957 2816.095) scale(4.16338)"><path d="M-88.897 68.034c0 1-.813 1.813-1.813 1.813a1.811 1.811 0 0 1-1.812-1.813 1.812 1.812 0 1 1 3.625 0zm0 0" style="fill:none;stroke:red;stroke-width:.79701;stroke-linecap:butt;stroke-linejoin:miter;stroke-miterlimit:10;stroke-opacity:1" transform="matrix(1 0 0 -1 305.624 333.831)"/></g><g clip-path="url(#v)" style="clip-rule:nonzero" transform="translate(-4573.957 2816.095) scale(4.16338)"><path d="M92.524-68.032a1.814 1.814 0 1 1-3.627-.003 1.814 1.814 0 0 1 3.627.003zm0 0" style="fill:none;stroke:red;stroke-width:.79701;stroke-linecap:butt;stroke-linejoin:miter;stroke-miterlimit:10;stroke-opacity:1" transform="matrix(1 0 0 -1 305.624 333.831)"/></g><g clip-path="url(#w)" style="clip-rule:nonzero" transform="translate(-4573.957 2816.095) scale(4.16338)"><path d="M92.524 68.034a1.814 1.814 0 1 1-3.627-.002 1.814 1.814 0 0 1 3.627.002zm0 0" style="fill:none;stroke:red;stroke-width:.79701;stroke-linecap:butt;stroke-linejoin:miter;stroke-miterlimit:10;stroke-opacity:1" transform="matrix(1 0 0 -1 305.624 333.831)"/></g><g clip-path="url(#u)" style="clip-rule:nonzero" transform="translate(-3694.663 2816.095) scale(4.16338)"><path d="M-88.897 68.034c0 1-.813 1.813-1.813 1.813a1.811 1.811 0 0 1-1.812-1.813 1.812 1.812 0 1 1 3.625 0zm0 0" style="fill:none;stroke:red;stroke-width:.79701;stroke-linecap:butt;stroke-linejoin:miter;stroke-miterlimit:10;stroke-opacity:1" transform="matrix(1 0 0 -1 305.624 333.831)"/></g><g clip-path="url(#v)" style="clip-rule:nonzero" transform="translate(-3694.663 2816.095) scale(4.16338)"><path d="M92.524-68.032a1.814 1.814 0 1 1-3.627-.003 1.814 1.814 0 0 1 3.627.003zm0 0" style="fill:none;stroke:red;stroke-width:.79701;stroke-linecap:butt;stroke-linejoin:miter;stroke-miterlimit:10;stroke-opacity:1" transform="matrix(1 0 0 -1 305.624 333.831)"/></g><g clip-path="url(#w)" style="clip-rule:nonzero" transform="translate(-3694.663 2816.095) scale(4.16338)"><path d="M92.524 68.034a1.814 1.814 0 1 1-3.627-.002 1.814 1.814 0 0 1 3.627.002zm0 0" style="fill:none;stroke:red;stroke-width:.79701;stroke-linecap:butt;stroke-linejoin:miter;stroke-miterlimit:10;stroke-opacity:1" transform="matrix(1 0 0 -1 305.624 333.831)"/></g><use xlink:href="#x" width="100%" height="100%" x="378.808" y="577.658" style="fill:#000;fill-opacity:1" transform="matrix(2.00677 0 0 2.00677 180.01 -694.967)"/><g style="fill:#000;fill-opacity:1" transform="translate(388.683 -966.05) scale(2.02285)"><use xlink:href="#y" width="100%" height="100%" x="365.856" y="630.807" style="fill:#000"/></g><g style="fill:#000;fill-opacity:1" transform="translate(388.683 -966.05) scale(2.02285)"><use xlink:href="#z" width="100%" height="100%" x="370.896" y="627.207" style="fill:#000"/></g><g style="fill:#000;fill-opacity:1" transform="translate(388.683 -966.05) scale(2.02285)"><use xlink:href="#z" width="100%" height="100%" x="372.936" y="627.207" style="fill:#000"/></g><g style="fill:#000;fill-opacity:1" transform="translate(388.683 -966.05) scale(2.02285)"><use xlink:href="#A" width="100%" height="100%" x="375.336" y="630.807" style="fill:#000"/></g><g style="fill:#000;fill-opacity:1" transform="translate(388.683 -966.05) scale(2.02285)"><use xlink:href="#B" width="100%" height="100%" x="379.176" y="630.807" style="fill:#000"/></g><g style="fill:#000;fill-opacity:1" transform="translate(388.683 -966.05) scale(2.02285)"><use xlink:href="#C" width="100%" height="100%" x="383.615" y="630.807" style="fill:#000"/></g><g style="fill:#000"><g style="fill:#000;fill-opacity:1" transform="translate(208.995 -782.533) scale(2.02285)"><use xlink:href="#y" width="100%" height="100%" x="280.257" y="540.009" style="fill:#000"/></g><g style="fill:#000;fill-opacity:1" transform="translate(208.995 -782.533) scale(2.02285)"><use xlink:href="#A" width="100%" height="100%" x="285.297" y="540.009" style="fill:#000"/></g><g style="fill:#000;fill-opacity:1" transform="translate(208.995 -782.533) scale(2.02285)"><use xlink:href="#B" width="100%" height="100%" x="289.137" y="540.009" style="fill:#000"/></g><g style="fill:#000;fill-opacity:1" transform="translate(208.995 -782.533) scale(2.02285)"><use xlink:href="#C" width="100%" height="100%" x="293.577" y="540.009" style="fill:#000"/></g></g></g></svg>