<svg xmlns="http://www.w3.org/2000/svg" width="500" height="500"><path d="M-116.05 445.763c-1.138-1.23 1.038-4.611 1.587-5.116 2.013-1.854 6.336-2.52 8.201-2.64 6.299-.408 11.786 3.453 13.81 8.41 2.494 6.106 1.209 12.406-4.424 16.746-1.776 1.369-4.315 2.247-6.537 2.483-6.79.72-11.708-2.482-14.47-6.441-2.518-3.608-3.174-8.424-1.858-12.373.446-1.337 1.94-3.69 3.73-4.993.216-.157 1.074-.808 1.68.024" style="fill:#e5f6ff;fill-opacity:1;stroke:#000;stroke-width:1.32283;stroke-miterlimit:4;stroke-dasharray:none"/><path d="M901.345 250h500" style="fill:#fff;fill-opacity:1;stroke:#f0f;stroke-width:1;stroke-dasharray:none"/><path d="M27.446-202.688c-4.167.814-8.282 2.181-11.894 4.456-.86.542-1.652 1.187-2.477 1.78-2.565 2.243-3.892 3.885-3.896 7.472-.002 1.08.113 2.179.437 3.208.873 2.775 2.162 3.93 3.95 6.142.96.83 1.857 1.737 2.879 2.488 2.92 2.143 6.358 3.651 9.976 4.057 2.951.331 3.655-.018 6.513-.555.98-.383 1.999-.677 2.938-1.15 2.89-1.453 5.153-3.467 6.42-6.495 1.093-2.608.906-3.61 1.043-6.36-.158-1.016-.21-2.054-.474-3.047a13.485 13.485 0 0 0-4.914-7.29c-2.04-1.54-2.943-1.668-5.298-2.519-3.6-.657-1.83-.45-5.309-.656l-.004.078c3.466.203 1.702-.004 5.287.65 2.344.845 3.242.971 5.272 2.502a13.415 13.415 0 0 1 4.893 7.246c.264.988.316 2.021.474 3.032-.134 2.737.053 3.733-1.032 6.328-1.26 3.01-3.513 5.017-6.384 6.463-.936.47-1.95.764-2.926 1.147-2.844.536-3.547.884-6.485.557-3.606-.402-7.035-1.904-9.946-4.04-1.019-.748-1.913-1.653-2.87-2.479-1.778-2.2-3.062-3.35-3.931-6.109-.322-1.023-.436-2.115-.436-3.188.002-3.563 1.32-5.192 3.866-7.422.823-.592 1.611-1.235 2.47-1.775 3.598-2.267 7.701-3.634 11.858-4.424v-.097zM83.862-197.834c-2.05-1.627-4.285-1.627-6.777-1.454-3.343.525-6.493 1.996-8.769 4.553-.475.533-.866 1.136-1.3 1.704-1.519 2.576-2.205 5.444-1.708 8.422.336 2.017.7 2.527 1.52 4.391 2.14 3.7 5.164 6.958 9.147 8.69.778.34 1.607.545 2.41.818 1.964.328 3.064.63 5.08.48 2.92-.218 5.861-1.209 8.45-2.543.803-.413 1.549-.93 2.323-1.396 1.915-1.45 3.458-2.805 4.091-5.217.601-2.293.107-4.146-.472-6.347-1.273-3.4-3.494-6.325-6.301-8.615-.52-.424-1.08-.795-1.619-1.192-1.465-.964-3.04-1.733-4.801-1.95-.487-.06-.981-.025-1.472-.037l-.002.087c.485.012.974-.025 1.455.034 1.75.213 3.315.976 4.77 1.933.539.395 1.096.765 1.614 1.186 2.795 2.279 5.009 5.19 6.277 8.574.575 2.184 1.067 4.021.475 6.296-.623 2.395-2.157 3.74-4.055 5.182-.77.464-1.513.98-2.313 1.393-2.58 1.331-5.51 2.318-8.419 2.534-2.007.15-3.1-.151-5.055-.477-.8-.27-1.625-.475-2.399-.811-3.967-1.725-6.98-4.968-9.111-8.654-.816-1.855-1.177-2.36-1.512-4.365-.495-2.958.185-5.807 1.693-8.367.43-.565.82-1.164 1.291-1.694 2.261-2.543 5.395-4.006 8.718-4.526 2.465-.17 4.688-.175 6.71 1.444l.06-.076zM131.002-194.887c-2.561-1.119-5.39-.87-7.962.101-.796.301-1.55.704-2.326 1.056-2.585 1.48-5.139 3.367-6.226 6.268-.585 1.564-.434 2.09-.421 3.711.147.615.237 1.245.44 1.844.982 2.886 3.271 5.14 5.777 6.774.66.432 1.376.774 2.065 1.16.712.276 1.404.616 2.138.827 2.81.808 5.833.488 8.528-.58.642-.255 1.242-.606 1.862-.91a11.563 11.563 0 0 0 3.959-3.712c.281-.427.572-.857.76-1.332.496-1.25.396-1.917.433-3.24-.232-2.897-1.355-5.626-3.341-7.768-.35-.376-.747-.704-1.12-1.056-.979-.84-2.09-1.432-3.254-1.959l-.038.083c1.156.52 2.26 1.108 3.232 1.94.371.348.766.674 1.113 1.047 1.974 2.125 3.09 4.834 3.322 7.711-.036 1.3.063 1.971-.422 3.2-.187.471-.475.899-.754 1.322a11.474 11.474 0 0 1-3.926 3.69c-.617.302-1.212.652-1.85.905-2.677 1.063-5.683 1.384-8.475.584-.73-.21-1.419-.548-2.128-.822-.686-.384-1.398-.724-2.057-1.153-1.935-1.263-3.764-2.92-4.945-4.93-.812-1.384-.87-2.105-1.235-3.625-.015-1.603-.165-2.127.411-3.673 1.076-2.886 3.616-4.763 6.184-6.234.773-.35 1.524-.752 2.317-1.051 2.541-.958 5.336-1.205 7.87-.11l.07-.068zM187.006-208.623c-3.143-.21-6.383.009-9.43.86-1.01.281-1.982.682-2.973 1.024-4.152 1.77-7.76 4.49-10.163 8.363-1.617 2.605-1.699 3.449-2.637 6.335-.176 1.146-.433 2.282-.528 3.437-.4 4.867.605 9.85 2.786 14.215.56 1.12 1.274 2.155 1.91 3.233.791.96 1.51 1.986 2.373 2.883 3.338 3.47 8.098 6.134 12.892 6.853 1.397.209 2.82.15 4.23.225 5.86-.3 11.636-1.718 16.807-4.544 3.072-1.679 3.636-2.36 6.267-4.554 3.136-3.033 5.491-6.665 6.584-10.912.655-2.547.541-3.059.653-5.66-.224-4.724-1.716-9.311-4.445-13.194-.528-.752-1.146-1.437-1.72-2.155-3.336-3.553-7.604-6.032-12.413-6.96-.999-.191-2.02-.244-3.029-.367-3.98.045-2.023-.116-5.87.466l.01.075c3.835-.583 1.885-.421 5.851-.467 1.007.122 2.024.174 3.019.366 4.793.923 9.047 3.395 12.373 6.934.571.716 1.187 1.399 1.714 2.148 2.72 3.87 4.21 8.442 4.434 13.151-.11 2.592.003 3.101-.649 5.64-1.086 4.235-3.431 7.857-6.555 10.883-2.623 2.19-3.188 2.872-6.25 4.548-5.161 2.824-10.928 4.24-16.777 4.538-1.406-.076-2.824-.018-4.216-.227-4.782-.718-9.527-3.37-12.857-6.83-.86-.895-1.578-1.917-2.367-2.875-.635-1.075-1.347-2.108-1.905-3.224-2.177-4.353-3.18-9.324-2.78-14.178.094-1.151.35-2.284.526-3.426.934-2.878 1.014-3.717 2.626-6.315 2.396-3.86 5.99-6.573 10.13-8.336.988-.339 1.958-.738 2.965-1.017 3.038-.845 6.271-1.064 9.405-.84l.01-.096zM269.095-219.183c-3.073-.53-6.536.99-9.117 2.511-.986.58-1.906 1.265-2.859 1.898-4.33 3.297-8.02 7.416-10.707 12.162-1.862 3.286-2 4.172-3.24 7.697-.272 1.315-.645 2.613-.813 3.946-.493 3.911-.058 7.99 1.347 11.683 1.292 3.396 2.044 4.035 4.15 6.96.993.988 1.913 2.056 2.979 2.966 3.296 2.813 7.247 4.851 11.335 6.237 3.516 1.192 5.096 1.361 8.713 2.045 5.446.703 10.972.534 16.233-1.155 3.158-1.014 3.955-1.6 6.846-3.135 4.096-2.613 7.593-6.056 10.07-10.256 1.568-2.659 1.855-3.774 2.943-6.633 1.352-4.349 1.776-8.93 1.034-13.437-.443-2.69-.83-3.48-1.702-6.029-1.917-4.611-4.764-8.8-8.602-12.03-.727-.612-1.515-1.15-2.273-1.724-3.92-2.534-8.342-4.211-13.02-4.555-.984-.073-1.973-.044-2.96-.065-4.09.12-8.07 1.038-11.999 2.108l.02.072c3.921-1.069 7.893-1.986 11.978-2.105.984.021 1.97-.007 2.952.065 4.664.343 9.074 2.015 12.983 4.54.756.573 1.542 1.11 2.268 1.72 3.829 3.22 6.67 7.398 8.583 11.998.87 2.543 1.257 3.33 1.7 6.013.741 4.495.321 9.066-1.027 13.404-1.086 2.856-1.37 3.963-2.936 6.619-2.47 4.19-5.958 7.626-10.045 10.234-2.884 1.534-3.679 2.118-6.83 3.13-5.25 1.689-10.767 1.86-16.204 1.16-3.622-.684-5.181-.849-8.702-2.043-4.08-1.383-8.023-3.416-11.313-6.224-1.063-.907-1.98-1.972-2.97-2.959-2.103-2.917-2.85-3.551-4.14-6.94-1.401-3.681-1.837-7.75-1.347-11.65.168-1.33.54-2.626.81-3.938 1.237-3.52 1.375-4.404 3.233-7.684 2.683-4.739 6.366-8.85 10.693-12.138.95-.63 1.869-1.312 2.852-1.89 2.56-1.504 6.015-3.022 9.06-2.484l.024-.094zM355.083-273.925c-1.628-1.476-3.395-2.826-5.446-3.663-.688-.281-1.407-.48-2.111-.72-.832-.155-1.655-.379-2.497-.465-4.428-.453-8.9.686-12.792 2.789-1.169.631-2.238 1.432-3.358 2.148-1.001.916-2.091 1.745-3.005 2.75-2.866 3.153-4.76 7.022-5.399 11.244-.594 3.926-.164 5.049.35 8.953.482 1.453.834 2.956 1.446 4.36 1.807 4.15 4.677 7.608 8.436 10.128 2.92 1.958 4.031 2.12 7.268 3.249 2.915.753 5.909 1.163 8.921 1.045 1.363-.053 2.564-.25 3.782-.834.102-.071.271-.333.304-.213.053.194-.172.368-.207.567-.166.955-.092 1.89.159 2.834.573 2.153 1.104 2.74 2.257 4.758.762.935 1.464 1.924 2.287 2.805 4.63 4.958 10.82 8.622 17.101 11.071 1.998.78 4.074 1.338 6.111 2.007 9.148 2.336 18.57 2.346 27.804.503 5.6-1.117 7.042-1.81 12.308-3.637 5.318-2.375 11.199-5.107 14.1-10.512 1.235-2.3 1.06-3.076 1.26-5.523-.126-.764-.177-1.543-.377-2.29-.538-2.009-1.815-3.847-3.45-5.114 2.39 1.418 5.718 1.282 8.299.536.962-.279 1.87-.72 2.804-1.08.938-.584 1.945-1.07 2.814-1.751 4.315-3.383 6.723-8.612 7.547-13.939.237-1.532.23-3.092.345-4.638-.1-1.557-.093-3.125-.301-4.671-.596-4.421-2.076-8.779-4.44-12.572-1.897-3.045-2.85-3.749-5.325-6.284-3.88-3.36-8.473-5.77-13.574-6.593-2.677-.432-3.245-.254-5.813-.069-1.144.278-4.646 1.004-4.538 2.847a.822.822 0 0 0 .31.579c.212.161.508.16.762.24.327-.056.677-.037.982-.17 2.518-1.096 2.296-4.645 1.82-6.816-.244-1.117-.689-2.181-1.034-3.272-.597-1.22-1.099-2.493-1.791-3.663-3.477-5.872-8.853-10.408-14.8-13.648-1.665-.907-3.43-1.616-5.146-2.424-1.875-.612-3.716-1.342-5.625-1.835-7.938-2.052-16.597-2.28-24.564-.243-1.965.503-3.844 1.291-5.766 1.937-1.736.943-3.573 1.72-5.207 2.828-4.81 3.262-8.387 7.898-10.162 13.45-1.568 4.906-1.136 6.364-1.061 11.43 1.045 4.639 1.012 6.362 3.57 10.439.924 1.472 2.199 2.693 3.298 4.039l.043-.035c-1.097-1.343-2.37-2.56-3.292-4.027-2.556-4.068-2.523-5.787-3.568-10.417-.075-5.056-.507-6.51 1.057-11.408 1.77-5.541 5.34-10.17 10.138-13.427 1.633-1.108 3.466-1.884 5.2-2.826 1.919-.645 3.796-1.434 5.758-1.936 7.96-2.037 16.61-1.808 24.54.244 1.908.493 3.746 1.222 5.619 1.834 1.713.807 3.477 1.516 5.14 2.423 5.935 3.236 11.303 7.765 14.769 13.631.69 1.167 1.188 2.437 1.782 3.655.342 1.087.783 2.147 1.026 3.26.463 2.124.697 5.625-1.76 6.717-.29.13-.626.114-.939.17-.235-.065-.506-.057-.706-.197a.722.722 0 0 1-.303-.506c-.093-1.175 1.588-1.95 2.404-2.247.664-.242 1.366-.366 2.05-.549 2.558-.188 3.122-.368 5.791.06 5.09.816 9.671 3.22 13.543 6.57 2.47 2.528 3.422 3.233 5.316 6.269 2.36 3.784 3.84 8.133 4.435 12.546.209 1.543.2 3.108.301 4.663-.115 1.542-.107 3.099-.344 4.628-.823 5.308-3.224 10.522-7.525 13.892-.866.678-1.868 1.161-2.803 1.742-.93.358-1.833.797-2.791 1.073-2.9.837-5.555.588-8.343-.383 1.627 1.236 2.893 3.071 3.428 5.05.2.742.253 1.515.379 2.272-.192 2.43-.017 3.202-1.24 5.489-2.885 5.4-8.754 8.131-14.058 10.507-5.262 1.83-6.7 2.523-12.298 3.642-9.227 1.844-18.643 1.831-27.783-.506-2.035-.67-4.11-1.23-6.105-2.009-6.272-2.45-12.45-6.113-17.068-11.07-.82-.88-1.517-1.865-2.276-2.798-1.144-2.009-1.67-2.592-2.237-4.733a8.344 8.344 0 0 1-.242-1.686c-.02-.373.06-.744.091-1.117.018-.222.158-.466.057-.665-.053-.106-.191.138-.287.208-1.202.588-2.394.783-3.741.84-3.005.124-5.992-.282-8.9-1.031-3.229-1.123-4.336-1.283-7.25-3.235-3.75-2.51-6.615-5.96-8.418-10.098-.61-1.4-.962-2.898-1.443-4.348-.513-3.896-.942-5.012-.349-8.93.637-4.21 2.524-8.067 5.382-11.21.91-1.003 1.997-1.83 2.996-2.743 1.117-.714 2.184-1.513 3.35-2.142 3.878-2.094 8.337-3.228 12.75-2.774.838.087 1.656.31 2.485.465.7.24 1.416.438 2.1.718 2.041.835 3.8 2.18 5.414 3.657l.069-.07z" style="fill:#000;fill-opacity:1;stroke:none;stroke-width:1;stroke-dasharray:none"/><path d="M-11.378 217.676c.927.016 1.915.198 2.71.689.992.613 1.607 1.713 1.666 2.87.035.699-.086 1.438-.43 2.066-.546.997-1.777 1.753-3.005 1.957-1.358.227-2.66.074-3.83-.592-.913-.519-1.376-1.08-1.798-1.908-.4-.785-.358-1.955.022-2.76a4.39 4.39 0 0 1 1.86-2.012c.87-.487 2.063-.818 2.835-.722" style="fill:#e5f6ff;fill-opacity:1;stroke:#000;stroke-width:.999995;stroke-dasharray:none"/><path d="M46.041 238.162c2.917-.199 5.957 1.332 8.038 3.434 2.929 2.958 4.09 7.166 3.43 11.38-.366 2.333-1.702 4.989-3.687 6.604-2.916 2.371-5.851 3.07-9.457 2.823-2.848-.196-6.047-1.557-8.191-3.755-2.696-2.763-4.183-6.047-4.348-9.773-.2-4.525 1.96-8.98 5.454-10.947 2.338-1.317 5.17-1.973 7.66-.886.44.191.836.495 1.202.834" style="fill:#fff6d5;fill-opacity:1;stroke:#000;stroke-width:.999989;stroke-dasharray:none"/><path d="M-43.337 153.756c1.16.52 2.26 1.1 3.23 1.94.37.34.77.67 1.11 1.04 1.98 2.13 3.09 4.84 3.33 7.71-.04 1.3.06 1.98-.43 3.2-.18.48-.47.9-.75 1.33a11.575 11.575 0 0 1-3.93 3.69c-.61.3-1.21.65-1.85.9-2.67 1.06-5.68 1.39-8.47.59-.73-.21-1.42-.55-2.13-.83-.68-.38-1.4-.72-2.06-1.15-1.93-1.26-3.76-2.92-4.94-4.93-.81-1.38-.87-2.11-1.24-3.63-.01-1.6-.16-2.12.42-3.67 1.07-2.88 3.61-4.76 6.18-6.23.77-.35 1.52-.75 2.32-1.05 2.54-.96 5.33-1.21 7.87-.11M-202.186 80.04c3.84-.59 1.89-.42 5.85-.47 1.01.12 2.03.17 3.02.37 4.8.92 9.05 3.39 12.38 6.93.57.72 1.18 1.4 1.71 2.15 2.72 3.87 4.21 8.44 4.43 13.15-.11 2.59.01 3.1-.64 5.64-1.09 4.23-3.44 7.86-6.56 10.88-2.62 2.19-3.19 2.87-6.25 4.55-5.16 2.82-10.93 4.24-16.78 4.54-1.4-.08-2.82-.02-4.21-.23-4.78-.72-9.53-3.37-12.86-6.83-.86-.89-1.58-1.92-2.37-2.87-.63-1.08-1.34-2.11-1.9-3.23-2.18-4.35-3.18-9.32-2.78-14.18.09-1.15.35-2.28.52-3.42.94-2.88 1.02-3.72 2.63-6.32 2.4-3.86 5.99-6.57 10.13-8.33.99-.34 1.96-.74 2.96-1.02 3.04-.85 6.28-1.06 9.41-.84M-123.016 71.12c3.92-1.07 7.89-1.99 11.97-2.11.99.03 1.97 0 2.96.07 4.66.34 9.07 2.01 12.98 4.54.76.57 1.54 1.11 2.27 1.72 3.83 3.22 6.67 7.4 8.58 12 .87 2.54 1.26 3.33 1.7 6.01.74 4.5.32 9.07-1.03 13.4-1.08 2.86-1.37 3.97-2.93 6.62-2.47 4.19-5.96 7.63-10.05 10.24-2.88 1.53-3.68 2.12-6.83 3.13-5.25 1.69-10.77 1.86-16.2 1.16-3.62-.69-5.18-.85-8.7-2.05-4.08-1.38-8.03-3.41-11.32-6.22-1.06-.91-1.98-1.97-2.97-2.96-2.1-2.92-2.85-3.55-4.14-6.94-1.4-3.68-1.83-7.75-1.34-11.65.16-1.33.54-2.62.81-3.94 1.23-3.52 1.37-4.4 3.23-7.68 2.68-4.74 6.37-8.85 10.69-12.14.95-.63 1.87-1.31 2.85-1.89 2.56-1.5 6.02-3.02 9.06-2.48" style="fill:none;fill-opacity:1;stroke:#000;stroke-width:1;stroke-dasharray:none"/><path d="M-140.568-41.405a22.795 22.795 0 0 1-6.443-12.463c-.556-3.371-.782-6.886-.201-10.249 1.44-8.332 7.494-15.414 15.19-18.873 10.435-4.69 22.59-4.956 33.405-1.572 9.98 3.123 19.681 9.419 24.332 19.058 1.539 3.189 3.217 7.18 1.495 10.613-.515 1.027-2.298 2.21-3.018 1.186-1.442-2.049 2.839-3.112 4.607-3.336 6.986-.885 13.987 2.286 19.1 6.898a28.705 28.705 0 0 1 7.533 10.893c2.39 6.148 3.104 13.331 1.597 19.747-1.392 5.925-5.519 11.164-11.361 13.429-3.142 1.218-6.616 1.283-9.746.129 5.538 3.13 5.389 10.366 1.353 15.16-4.333 5.147-10.65 8.832-16.9 10.774-12.672 3.937-29.95 3.818-43.464-1.728-7.942-3.259-16.19-8.495-19.343-15.949-.798-1.885-1.361-3.874-.996-5.887-1.494 1.26-4.726 1.692-8.207 1.375-3.782-.346-8.189-1.742-11.2-3.767-5.851-3.934-9.918-10.53-10.947-17.486-1.123-7.597 2.084-15.416 7.965-20.324 5.541-4.625 14.185-6.564 20.016-4.452 2.422.877 4.584 2.313 6.463 4.034" style="fill:#e5f6ff;fill-opacity:1;stroke:#000;stroke-width:1;stroke-dasharray:none"/><path d="M-234.43 424.746c.436-1.466.867-2.594 1.838-4.375 2.053-3.767 4.91-7.403 7.859-11.283 1.592-2.094 2.763-5.05 2.382-7.755-.385-2.725-3.266-4.759-6.009-4.967-3.924-.297-7.435 1.775-9.176 5.061-.252.477.027.293-.234.374-1.65-2.122-4.216-3.763-7.031-4.254-3.225-.562-6.098.964-7.688 3.672-1.823 3.186-.662 7.189 1.497 9.898 3.31 4.245 8.1 6.947 12.664 9.637 1.349.795 3.39 1.903 4.364 2.888" style="fill:#fae;fill-opacity:1;stroke:#170b28;stroke-width:1"/><path d="M-84.39 247.556c-.01-.998.601-2.056 1.026-2.887 1.047-2.049 2.941-5.209 5.21-8.244 2.248-3.006 4.717-5.332 6.732-8.438 1.52-2.343 1.687-4.75 1.458-7.09-.218-2.219-1.023-3.726-3.138-4.964-2-1.172-4.314-1.304-7.074-.217-2.082.82-3.865 2.24-5.408 3.784l.13.266c-.618-.657-1.36-1.48-1.996-2.12-1.315-1.32-2.78-2.194-4.63-2.718-1.412-.399-4.273.225-6.115 1.396-2.64 1.679-4.643 4.577-4.58 7.674-.087 3.005 1.938 5.952 4.015 7.811 2.777 2.486 5.112 4.752 7.609 7.54 2.487 2.778 4.475 5.253 6.426 8.303" style="fill:#f55;fill-opacity:1;stroke:#000;stroke-width:1;stroke-dasharray:none"/><path d="M-208.45 397.14c.857-.14 1.605-.28 2.457-.463 2.64-.568 4.628-1.216 7.114-2.284 2.33-1.002 4.485-2.688 5.437-5.095.426-1.076.406-2.581-.23-3.473-1.1-1.541-2.717-2.39-4.684-2.548-.857-.07-1.866-.026-2.564.158l.136-.03c-.455-1.068-1.138-2.04-1.93-2.886-.82-.855-2.243-1.525-3.468-1.505-2.143.034-3.42 1.312-4.342 2.556-1.464 1.975-1.985 4.526-1.505 6.896.431 2.128 1.298 4.14 2.256 6.076.387.783 1.118 1.805 1.366 2.1" style="fill:#fae;fill-opacity:1;stroke:#170b28;stroke-width:1;stroke-dasharray:none;stroke-opacity:1"/><path d="M-85.765 305.118c2.397-.778 4.788-.53 7.183.08.437.206.902.369 1.299.633 1.594 1.05 3.063 2.889 3.331 4.82.062.429.019.869.017 1.307-.255 2.618-1.542 4.594-3.334 6.422-1.992 1.806-4.3 3.19-6.647 4.454a83.489 83.489 0 0 1-6.493 2.673 12.9 12.9 0 0 1-4.131.736m.448-.364c-1.052-1.108-1.96-2.478-2.292-2.928-1.251-1.894-2.237-3.924-3.14-5.999-1.211-2.956-2.106-5.986-2.264-9.186-.127-2.897-.067-5.905 1.622-8.395.253-.283.485-.587.767-.843a6.182 6.182 0 0 1 4.826-1.648c.356.074.725.106 1.074.202 2.168.601 3.964 2.02 5.497 3.616 1.29 1.533 2.477 3.203 2.806 5.23" style="fill:#f55;fill-opacity:1;stroke:#000;stroke-width:1;stroke-dasharray:none"/><path d="M-78.203 389.9c2.229-.625 4.717-1.986 6.673-3.461a31.518 31.518 0 0 0 5.081-4.816c1.587-1.9 2.944-4.11 3.524-6.852.368-1.74-.144-4.315-1.24-5.63-1.552-1.863-3.209-2.81-5.749-2.966-1.88-.116-3.527.291-5.448 1.545-.492.32-1.473.954-1.896 1.57-1.832-1.344-3.752-2.481-6.018-2.818-2.416-.359-4.982.18-7.036 1.501-1.924 1.239-2.58 3.723-2.197 5.89.721 4.076 3.086 8.005 6.075 10.819 1.84 1.731 4.326 3.455 6.64 4.468.338.148 1.188.5 1.554.562" style="fill:#f55;fill-opacity:1;stroke:#000;stroke-width:.999998;stroke-dasharray:none;stroke-opacity:1"/><path d="M-270.653 401.597c.083-.318.36-1.168.45-1.485.387-1.346 1.017-2.412 1.705-3.648.968-1.606 1.98-3.255 3.23-4.66 1.082-1.32 2.112-2.776 2.777-4.364.446-1.283.609-2.314.051-3.595-.636-1.189-1.39-1.982-2.585-2.618-.453-.184-.671-.306-1.154-.387-.784-.125-1.58.047-2.324.287-1.186.493-2.286 1.127-3.219 2.025-.68.636-1.423 1.5-1.793 2.367a4.536 4.536 0 0 0-.573-.31c-1.677-.72-3.653-.933-5.462-.506a8.527 8.527 0 0 0-4.314 2.565c-1.007 1.13-1.117 2.84-.221 3.993 1.012 1.372 2.65 2.2 4.095 3.025 1.915 1.093 3.557 2.19 5.342 3.482 1.16.838 2.603 2.084 3.759 3.436" style="fill:#fae;fill-opacity:1;fill-rule:nonzero;stroke:#170b28;stroke-width:.999998;stroke-dasharray:none;stroke-opacity:1"/><path d="M-64.954 390.013c.112-.36.454-.668.703-.918.614-.614 1.661-1.529 2.829-2.356 1.155-.818 2.312-1.367 3.396-2.248.818-.665 1.157-1.51 1.347-2.378.18-.823.066-1.458-.55-2.149-.581-.653-1.396-.97-2.513-.9-.843.052-1.648.355-2.38.73l.015.11c-.145-.308-.316-.69-.47-.993a3.85 3.85 0 0 0-1.346-1.515c-.46-.308-1.56-.417-2.357-.21-1.142.296-2.198 1.104-2.536 2.224-.38 1.07.004 2.365.534 3.274a35.07 35.07 0 0 1 1.855 3.594c.57 1.288.996 2.408 1.341 3.731" style="fill:#f55;fill-opacity:1;stroke:#000;stroke-width:.999998;stroke-dasharray:none"/><path d="M-47.153 245.475c-.79-.852.72-3.196 1.1-3.546 1.397-1.285 4.396-1.747 5.69-1.83 4.37-.283 8.176 2.393 9.58 5.83 1.73 4.232.84 8.6-3.068 11.608-1.233.95-2.994 1.558-4.536 1.722-4.71.499-8.121-1.721-10.038-4.466-1.747-2.5-2.202-5.839-1.289-8.577.31-.926 1.346-2.558 2.588-3.46.15-.11.745-.561 1.165.016" style="fill:#e5f6ff;fill-opacity:1;stroke:#000;stroke-width:.999997;stroke-miterlimit:4;stroke-dasharray:none"/><path d="M18.864 246.064c.555.76 1.123 1.528 1.362 2.578.22.964.351 2.134.142 3.254-.227 1.212-1.123 2.253-1.986 3.026-1.533 1.373-3.51 1.57-4.928 1.293-2.288-.447-4.302-2.07-5.493-4.166-.607-1.068-.896-2.423-.842-3.914.047-1.327.736-2.769 1.304-3.48 1.116-1.397 2.726-2.16 4.228-2.237 1.488-.077 3.115.506 4.042 1.635.115.14.748 1.111.353 2.241" style="fill:#fff6d5;fill-opacity:1;stroke:#000;stroke-width:1;stroke-miterlimit:4;stroke-dasharray:none;stroke-opacity:1"/><path d="M100.699 234.667a22.11 22.11 0 0 1-6.25-12.088c-.539-3.27-.758-6.679-.194-9.94 1.397-8.082 7.268-14.951 14.735-18.306 10.12-4.549 21.91-4.807 32.401-1.525 9.681 3.03 19.09 9.136 23.602 18.485 1.492 3.093 3.12 6.965 1.45 10.294-.5.996-2.23 2.143-2.928 1.15-1.399-1.987 2.753-3.018 4.469-3.235 6.776-.858 13.567 2.216 18.526 6.69a27.842 27.842 0 0 1 7.307 10.565c2.317 5.963 3.011 12.931 1.549 19.154-1.35 5.746-5.353 10.828-11.02 13.025-3.048 1.181-6.417 1.244-9.454.125 5.373 3.036 5.228 10.054 1.313 14.704-4.203 4.992-10.33 8.567-16.392 10.45-12.292 3.82-29.05 3.704-42.16-1.676-7.703-3.16-15.703-8.24-18.762-15.47-.773-1.827-1.32-3.757-.966-5.71-1.449 1.223-4.584 1.642-7.96 1.334-3.67-.335-7.943-1.69-10.863-3.653-5.676-3.816-9.622-10.213-10.62-16.96-1.089-7.369 2.022-14.953 7.726-19.714 5.375-4.485 13.76-6.366 19.416-4.318 2.349.851 4.446 2.244 6.268 3.913" style="fill:#fff6d5;fill-opacity:1;stroke:#000;stroke-width:1;stroke-dasharray:none"/><path d="M144.505 281.906c-.02-.14-.093-.514-.115-.653-.095-.592-.308-1.077-.537-1.637-.328-.732-.673-1.484-1.132-2.145-.391-.616-.754-1.288-.954-1.996-.124-.568-.14-1.014.163-1.53.331-.471.692-.769 1.232-.978.202-.055.301-.095.51-.104.34-.013.669.1.973.241.478.27.912.596 1.263 1.025.256.306.527.71.64 1.098.036-.021.146-.065.259-.102a3.81 3.81 0 0 1 2.346.066 3.649 3.649 0 0 1 1.7 1.311c.37.532.328 1.264-.112 1.707-.5.53-1.239.798-1.895 1.073-.87.366-1.623.747-2.448 1.204a9.713 9.713 0 0 0-1.773 1.265" style="fill:#fae;fill-opacity:1;fill-rule:nonzero;stroke:#ff3a32;stroke-width:1.00001;stroke-dasharray:none;stroke-opacity:1"/><path d="M123.497 276.537c-1.01.006-2.216-.264-3.212-.646a13.673 13.673 0 0 1-2.702-1.402c-.89-.603-1.722-1.363-2.288-2.438-.36-.683-.448-1.82-.143-2.5.433-.964 1.017-1.557 2.066-1.927.777-.274 1.516-.301 2.471-.01.245.076.732.223.982.43.611-.781 1.284-1.486 2.196-1.899a4.544 4.544 0 0 1 3.133-.216c.955.286 1.523 1.245 1.618 2.196.177 1.788-.354 3.712-1.278 5.245-.569.943-1.41 1.961-2.263 2.661-.125.103-.44.352-.587.421" style="fill:#fae;fill-opacity:1;stroke:#ff3a32;stroke-width:1.00001;stroke-dasharray:none;stroke-opacity:1"/><path d="M138.171 253.218c.536-1.803 1.066-3.19 2.258-5.38 2.522-4.635 6.03-9.108 9.653-13.88 1.955-2.576 3.394-6.211 2.926-9.539-.473-3.352-4.012-5.854-7.38-6.11-4.82-.366-9.132 2.183-11.27 6.226-.31.586.032.36-.289.46-2.026-2.61-5.178-4.63-8.636-5.233-3.961-.692-7.49 1.186-9.442 4.516-2.24 3.919-.814 8.843 1.839 12.176 4.064 5.222 9.95 8.545 15.554 11.854 1.656.978 4.164 2.34 5.36 3.552" style="fill:#f6ffd5;fill-opacity:1;stroke:red;stroke-width:.999971;stroke-opacity:1"/><path d="M163.49 261.426a51.19 51.19 0 0 0 2.568-.485c2.76-.593 4.838-1.271 7.435-2.387 2.437-1.048 4.688-2.81 5.683-5.327.445-1.125.424-2.698-.24-3.63-1.149-1.612-2.84-2.499-4.896-2.664-.896-.073-1.95-.028-2.68.165l.143-.031c-.476-1.116-1.19-2.133-2.017-3.017-.858-.894-2.345-1.594-3.626-1.574-2.238.035-3.574 1.372-4.538 2.673-1.529 2.064-2.074 4.731-1.572 7.209.45 2.224 1.356 4.328 2.357 6.351.405.819 1.17 1.887 1.428 2.196" style="fill:#d5ffd5;fill-opacity:1;stroke:#0cf;stroke-width:1.00001;stroke-dasharray:none;stroke-opacity:1"/><path d="M103.758 264.221c.067-.314.301-1.157.375-1.47.32-1.332.888-2.4 1.506-3.639.875-1.61 1.792-3.266 2.95-4.693.999-1.336 1.94-2.804 2.52-4.384.38-1.272.495-2.287-.105-3.515-.671-1.134-1.44-1.876-2.634-2.446-.45-.16-.669-.27-1.143-.329-.77-.088-1.538.114-2.255.382-1.135.532-2.18 1.199-3.052 2.117-.636.651-1.323 1.527-1.647 2.39a4.421 4.421 0 0 0-.573-.277c-1.667-.631-3.604-.755-5.35-.26a8.325 8.325 0 0 0-4.097 2.693c-.934 1.149-.968 2.824-.044 3.911 1.046 1.297 2.68 2.036 4.126 2.78 1.915.984 3.564 1.985 5.361 3.17 1.167.77 2.63 1.925 3.815 3.196" style="fill:#d5fff6;fill-opacity:1;fill-rule:nonzero;stroke:#f0f;stroke-width:.999971;stroke-dasharray:none;stroke-opacity:1"/><path d="M-18.435 305.544c1.828-1.537 4.016-2.171 6.336-2.49.458.025.924.003 1.366.094 1.774.354 3.72 1.445 4.644 3.044.207.355.326.757.48 1.142.71 2.39.284 4.584-.638 6.828-1.105 2.295-2.64 4.333-4.25 6.28a79.129 79.129 0 0 1-4.749 4.661c-.994.885-2.136 1.6-3.364 2.12m.264-.48c-1.32-.598-2.605-1.477-3.057-1.754-1.774-1.218-3.363-2.648-4.895-4.148-2.118-2.165-3.984-4.506-5.263-7.26-1.144-2.498-2.163-5.161-1.568-7.95.121-.339.216-.688.373-1.013a5.858 5.858 0 0 1 3.65-3.168c.34-.061.675-.165 1.016-.205 2.118-.245 4.2.36 6.115 1.216 1.68.886 3.318 1.93 4.329 3.593" style="fill:#d5fff6;fill-opacity:1;stroke:#f0f;stroke-width:.999988;stroke-dasharray:none;stroke-opacity:1"/><path d="M-42.405 344.432c1.653-1.146 3.31-2.967 4.498-4.733a27.295 27.295 0 0 0 2.802-5.393c.762-2.009 1.247-4.208.942-6.624-.194-1.533-1.35-3.502-2.624-4.271-1.808-1.091-3.44-1.4-5.572-.809-1.579.438-2.815 1.238-4.037 2.811-.313.403-.939 1.2-1.11 1.828-1.89-.586-3.792-.977-5.75-.611-2.088.389-4.044 1.558-5.355 3.224-1.228 1.562-1.06 3.788-.126 5.46 1.755 3.141 4.82 5.698 8.078 7.162 2.006.902 4.541 1.613 6.732 1.79.32.026 1.12.074 1.437.021" style="fill:#d5ffd5;fill-opacity:1;stroke:#0cf;stroke-width:.999988;stroke-dasharray:none;stroke-opacity:1"/><path d="M-21.244 360.583c-1.144-.496-2.372-1.4-3.307-2.328a16.859 16.859 0 0 1-2.354-2.93c-.705-1.125-1.265-2.398-1.369-3.897-.066-.952.4-2.282 1.084-2.9.97-.876 1.926-1.258 3.295-1.155 1.013.076 1.862.413 2.795 1.22.239.206.716.614.896.973 1.079-.58 2.19-1.044 3.426-1.057a5.598 5.598 0 0 1 3.647 1.312c.936.799 1.1 2.166.733 3.29-.691 2.112-2.249 4.026-4.057 5.302-1.113.785-2.57 1.519-3.882 1.887-.193.054-.673.179-.873.185" style="fill:#f6ffd5;fill-opacity:1;stroke:red;stroke-width:.999997;stroke-dasharray:none;stroke-opacity:1"/><path d="M-242.762 385.049c.229-.423.919-1.53 1.157-1.949 1.02-1.773 2.285-3.065 3.693-4.578 1.934-1.938 3.945-3.924 6.208-5.48 1.995-1.493 3.963-3.198 5.461-5.217 1.082-1.663 1.673-3.069 1.332-5.081-.485-1.908-1.275-3.296-2.746-4.616-.578-.42-.845-.669-1.5-.953-1.067-.45-2.254-.485-3.394-.405-1.853.284-3.632.799-5.269 1.746-1.186.665-2.541 1.63-3.37 2.73-.09-.11-.388-.385-.703-.639-2.124-1.607-4.849-2.601-7.561-2.628-2.756-.026-5.267.933-7.01 2.13-1.823 1.25-2.577 3.637-1.71 5.585.952 2.299 2.984 4.047 4.743 5.721 2.33 2.22 4.272 4.35 6.35 6.806 1.348 1.594 2.958 3.867 4.122 6.188" style="fill:#fae;fill-opacity:1;fill-rule:nonzero;stroke:#170b28;stroke-width:1;stroke-dasharray:none;stroke-opacity:1"/><path d="M-188.619 283.623c-.02-.154-.102-.566-.126-.719-.105-.65-.339-1.183-.59-1.8-.362-.803-.742-1.63-1.246-2.357-.432-.677-.83-1.415-1.051-2.193-.136-.624-.154-1.115.18-1.681.364-.519.761-.846 1.356-1.075.222-.06.331-.105.561-.116.374-.014.736.111 1.07.266.527.297 1.005.655 1.39 1.127.282.335.58.78.705 1.206.04-.023.161-.072.285-.112a4.198 4.198 0 0 1 2.582.073 4.015 4.015 0 0 1 1.87 1.44c.408.585.362 1.39-.122 1.877-.55.583-1.364.877-2.086 1.18-.957.401-1.786.82-2.694 1.322-.589.326-1.334.826-1.951 1.392" style="fill:#fac;fill-opacity:1;fill-rule:nonzero;stroke:#f60;stroke-width:1;stroke-dasharray:none;stroke-opacity:1"/><path d="M-212.798 278.81c-.97.005-2.127-.254-3.083-.62a13.13 13.13 0 0 1-2.593-1.343c-.855-.579-1.652-1.307-2.196-2.338-.345-.655-.43-1.744-.137-2.396.415-.924.976-1.494 1.983-1.848.745-.263 1.455-.288 2.372-.008.234.072.702.212.942.41.587-.748 1.232-1.424 2.108-1.819.934-.421 2.03-.5 3.007-.207.916.274 1.462 1.193 1.552 2.105.17 1.714-.339 3.558-1.226 5.028-.546.905-1.353 1.88-2.172 2.552-.12.098-.423.336-.563.403" style="fill:#eaf;fill-opacity:1;stroke:red;stroke-width:.999998;stroke-dasharray:none;stroke-opacity:1"/><path d="M-194.627 255.455c.618-2.082 1.23-3.683 2.607-6.21 2.914-5.35 6.965-10.512 11.15-16.02 2.258-2.973 3.92-7.169 3.379-11.01-.546-3.869-4.633-6.757-8.525-7.052-5.566-.422-10.547 2.52-13.017 7.186-.358.677.038.415-.332.53-2.34-3.012-5.981-5.343-9.975-6.04-4.576-.797-8.651 1.37-10.906 5.213-2.587 4.524-.94 10.207 2.123 14.054 4.695 6.027 11.492 9.863 17.966 13.682 1.913 1.129 4.81 2.701 6.19 4.1" style="fill:#eaf;fill-opacity:1;stroke:#ab37c8;stroke-width:1"/><path d="M-169.075 262.567a56.188 56.188 0 0 0 2.819-.532c3.03-.651 5.31-1.396 8.161-2.621 2.675-1.15 5.146-3.085 6.239-5.848.488-1.235.465-2.962-.264-3.985-1.261-1.77-3.117-2.744-5.374-2.925-.984-.08-2.141-.03-2.941.181l.155-.034c-.522-1.225-1.305-2.34-2.214-3.312-.941-.98-2.573-1.75-3.98-1.728-2.457.04-3.923 1.506-4.98 2.935-1.68 2.266-2.278 5.194-1.727 7.914.495 2.442 1.489 4.751 2.588 6.973.444.898 1.283 2.071 1.568 2.41" style="fill:#fae;fill-opacity:1;stroke:red;stroke-width:1;stroke-dasharray:none;stroke-opacity:1"/><path d="M-232.915 265.983c.076-.36.344-1.322.428-1.68.366-1.523 1.016-2.744 1.724-4.159 1.001-1.84 2.05-3.732 3.376-5.363 1.142-1.527 2.22-3.205 2.883-5.01.435-1.455.566-2.614-.12-4.018-.768-1.295-1.648-2.144-3.015-2.795-.515-.184-.764-.309-1.307-.376-.88-.1-1.76.13-2.58.436-1.3.608-2.496 1.37-3.493 2.42-.728.744-1.515 1.745-1.885 2.731a5.07 5.07 0 0 0-.655-.316c-1.908-.722-4.124-.863-6.122-.296a9.528 9.528 0 0 0-4.69 3.077c-1.068 1.312-1.106 3.227-.049 4.47 1.197 1.481 3.067 2.326 4.721 3.175 2.192 1.126 4.078 2.27 6.135 3.625 1.335.879 3.009 2.2 4.365 3.652" style="fill:#fac;fill-opacity:1;fill-rule:nonzero;stroke:#f0f;stroke-width:1;stroke-dasharray:none;stroke-opacity:1"/><path d="M-109.82 121.327c-1.103-1.472-1.854-3.607-2.194-5.399-.247-1.307-.536-3.444-.441-4.95.35-5.575 1.99-10.077 4.66-14.258 2.02-3.165 5.532-6.687 9.122-9.142 2.903-1.986 6.014-3.575 9.347-4.582 3.515-1.063 7.23-1.549 10.994-1.567 3.612-.018 7.324.513 10.989 1.459 5.913 1.526 10.851 4.069 15.643 9.162.691.734 1.346 1.653 1.923 2.607.63 2.003-.778 1.336-.653.381.165-1.12.159-1.249.59-2.142 2.029-4.194 6.8-6.468 12.439-5.899 7.71.778 14.958 6.341 18.738 12.889 3.47 6.011 4.722 11.9 3.758 15.723-.704 2.796-1.104 3.266-2.821 4.324-.796.65-.329-1.771.086-1.247 2.461 2.051 4.189 5.398 5.098 7.592.948 2.287 1.444 5.313 1.62 7.706.18 2.44-.113 4.894-.558 7.301-1.038 5.612-3.49 10.948-7.194 15.498-2.003 2.461-4.135 5.013-6.707 7.066-3.334 2.661-6.926 5.093-10.816 6.89-15.71 7.254-34.43 9.026-51.09 3.777a55.98 55.98 0 0 1-15.243-7.525c-4.143-2.908-7.724-6.644-10.71-10.69-4.649-6.3-7.229-14.003-7.053-21.766.057-2.533.7-5.089 1.737-7.408 1.637-3.657 4.706-6.648 7.435-8.016 1.993-1 4.471-.946 6.29.086" style="fill:#fff6d5;fill-opacity:1;stroke:#000;stroke-width:.999997;stroke-miterlimit:4;stroke-dasharray:none"/><g style="fill:#fae;fill-opacity:1;stroke:red;stroke-width:1.0205"><path d="M577.627 228.373c1.865-1.568 4.098-2.216 6.466-2.541.467.026.943.003 1.394.096 1.81.36 3.796 1.474 4.739 3.106.212.362.332.772.49 1.166.724 2.439.29 4.677-.651 6.968-1.128 2.342-2.693 4.421-4.337 6.408a80.748 80.748 0 0 1-4.846 4.757 12.475 12.475 0 0 1-3.434 2.163m.27-.49c-1.347-.61-2.659-1.507-3.12-1.79-1.81-1.242-3.432-2.702-4.995-4.233-2.161-2.209-4.066-4.598-5.37-7.408-1.168-2.55-2.209-5.267-1.601-8.113.124-.346.22-.703.381-1.035a5.978 5.978 0 0 1 3.725-3.232c.346-.062.688-.168 1.036-.21 2.162-.25 4.287.369 6.24 1.242 1.714.904 3.386 1.969 4.418 3.666M553.166 268.058c1.687-1.168 3.378-3.028 4.59-4.83a27.855 27.855 0 0 0 2.86-5.503c.777-2.05 1.273-4.295.96-6.76-.197-1.565-1.376-3.574-2.677-4.359-1.845-1.113-3.51-1.428-5.686-.825-1.611.446-2.873 1.264-4.12 2.869-.319.41-.958 1.225-1.133 1.864-1.928-.597-3.869-.996-5.868-.623-2.13.397-4.126 1.59-5.464 3.29-1.253 1.595-1.08 3.866-.128 5.572 1.79 3.206 4.917 5.815 8.243 7.31 2.047.92 4.634 1.646 6.87 1.826.327.026 1.142.076 1.467.022" style="fill:#fae;fill-opacity:1;stroke:red;stroke-width:1.02049;stroke-dasharray:none;stroke-opacity:1" transform="matrix(.97992 0 0 .9799 -625.915 -115.237)"/><path d="M597.9 271.782c-.038-.278-.185-1.026-.229-1.304-.19-1.18-.613-2.148-1.07-3.266-.654-1.46-1.341-2.96-2.255-4.28-.78-1.229-1.503-2.568-1.903-3.981-.246-1.133-.278-2.023.325-3.051.66-.942 1.38-1.536 2.457-1.952.402-.11.6-.19 1.016-.21.676-.025 1.332.202 1.938.482.953.54 1.819 1.19 2.517 2.046.51.61 1.05 1.417 1.275 2.19.073-.042.292-.13.516-.204 1.494-.437 3.188-.416 4.675.132A7.272 7.272 0 0 1 610.55 261c.737 1.061.655 2.521-.222 3.405-.997 1.059-2.469 1.592-3.776 2.142-1.733.73-3.235 1.49-4.879 2.401-1.067.591-2.416 1.499-3.533 2.525" style="fill:#fae;fill-opacity:1;fill-rule:nonzero;stroke:red;stroke-width:1.02049;stroke-dasharray:none;stroke-opacity:1" transform="matrix(.97992 0 0 .9799 -625.915 -115.237)"/><path d="M574.76 284.54c-1.167-.505-2.42-1.429-3.374-2.374a17.205 17.205 0 0 1-2.402-2.99c-.72-1.149-1.291-2.449-1.397-3.978-.068-.97.408-2.328 1.106-2.959.99-.895 1.965-1.284 3.362-1.18 1.034.079 1.9.423 2.852 1.245.244.211.73.627.914.994 1.102-.593 2.236-1.066 3.497-1.08a5.712 5.712 0 0 1 3.722 1.34c.954.815 1.122 2.211.747 3.357-.704 2.156-2.294 4.109-4.14 5.411-1.135.801-2.622 1.55-3.961 1.927-.197.055-.687.182-.891.188" style="fill:#fae;fill-opacity:1;stroke:red;stroke-width:1.0205;stroke-dasharray:none;stroke-opacity:1" transform="matrix(.97992 0 0 .9799 -625.915 -115.237)"/></g><g style="stroke-width:1.02048"><path d="M100.054 234.481a22.563 22.563 0 0 1-6.377-12.335c-.55-3.337-.774-6.816-.199-10.145 1.426-8.247 7.418-15.257 15.037-18.68 10.328-4.643 22.358-4.906 33.064-1.556 9.88 3.09 19.481 9.322 24.085 18.863 1.523 3.157 3.184 7.108 1.48 10.505-.51 1.017-2.275 2.187-2.989 1.174-1.427-2.028 2.81-3.08 4.561-3.302 6.914-.876 13.845 2.262 18.905 6.827a28.413 28.413 0 0 1 7.457 10.782c2.365 6.086 3.073 13.196 1.58 19.546-1.377 5.865-5.462 11.051-11.245 13.292-3.11 1.206-6.548 1.27-9.647.128 5.482 3.099 5.334 10.26 1.34 15.006-4.29 5.094-10.541 8.742-16.727 10.664-12.545 3.897-29.646 3.78-43.023-1.71-7.861-3.226-16.025-8.41-19.146-15.787-.79-1.865-1.348-3.835-.987-5.827-1.478 1.247-4.677 1.675-8.122 1.36-3.745-.341-8.106-1.723-11.086-3.727-5.792-3.895-9.818-10.422-10.836-17.308-1.112-7.52 2.062-15.26 7.884-20.118 5.485-4.577 14.04-6.496 19.812-4.406 2.397.868 4.538 2.29 6.397 3.993" style="fill:#ffe5ff;fill-opacity:1;stroke:#000;stroke-width:1.02048;stroke-dasharray:none" transform="matrix(.97995 0 0 .97992 -274.822 211.739)"/><path d="M144.756 282.689c-.019-.143-.094-.525-.116-.667-.097-.604-.315-1.099-.548-1.67-.335-.747-.687-1.515-1.155-2.19-.4-.628-.77-1.313-.975-2.036-.126-.58-.142-1.035.167-1.56.338-.482.706-.786 1.258-1 .206-.055.307-.096.52-.106.346-.013.682.103.993.246.488.276.93.608 1.288 1.047.262.311.538.724.653 1.12.038-.022.15-.067.265-.104a3.888 3.888 0 0 1 2.394.067 3.723 3.723 0 0 1 1.734 1.338c.378.543.336 1.29-.113 1.742-.51.54-1.265.814-1.934 1.095-.888.373-1.656.762-2.498 1.228a9.911 9.911 0 0 0-1.81 1.292" style="fill:#f55;fill-opacity:1;fill-rule:nonzero;stroke:#000;stroke-width:1.02049;stroke-dasharray:none;stroke-opacity:1" transform="matrix(.97995 0 0 .97992 -274.822 211.739)"/><path d="M123.319 277.21c-1.031.005-2.262-.27-3.278-.66a13.953 13.953 0 0 1-2.757-1.43c-.91-.616-1.757-1.392-2.335-2.489-.367-.696-.457-1.856-.146-2.55.442-.984 1.038-1.59 2.109-1.967.792-.28 1.547-.307 2.521-.01.25.077.747.227 1.002.438.624-.797 1.31-1.516 2.241-1.937a4.637 4.637 0 0 1 3.198-.22c.974.291 1.554 1.27 1.65 2.24.18 1.825-.36 3.788-1.304 5.353-.58.963-1.439 2.001-2.31 2.716-.127.104-.449.358-.598.43" style="fill:#f55;fill-opacity:1;stroke:#000;stroke-width:1.02049;stroke-dasharray:none;stroke-opacity:1" transform="matrix(.97995 0 0 .97992 -274.822 211.739)"/><path d="M138.294 253.412c.546-1.84 1.087-3.256 2.303-5.49 2.574-4.73 6.154-9.294 9.85-14.164 1.996-2.629 3.465-6.339 2.986-9.734-.482-3.421-4.093-5.975-7.531-6.236-4.918-.373-9.319 2.228-11.5 6.354-.317.598.033.367-.294.469-2.068-2.664-5.285-4.725-8.813-5.34-4.043-.706-7.643 1.21-9.636 4.608-2.285 4-.83 9.025 1.877 12.426 4.147 5.329 10.153 8.72 15.873 12.097 1.69.998 4.249 2.388 5.469 3.625" style="fill:#f55;fill-opacity:1;stroke:#000;stroke-width:1.02045" transform="matrix(.97995 0 0 .97992 -274.822 211.739)"/><path d="M164.13 261.788a52.23 52.23 0 0 0 2.62-.494c2.818-.605 4.938-1.297 7.588-2.436 2.487-1.07 4.784-2.868 5.8-5.436.453-1.148.432-2.754-.246-3.705-1.172-1.644-2.897-2.55-4.996-2.719-.914-.074-1.99-.027-2.734.169l.145-.032c-.486-1.139-1.214-2.176-2.058-3.078-.876-.912-2.393-1.627-3.7-1.607-2.284.037-3.647 1.4-4.63 2.728-1.561 2.107-2.117 4.828-1.605 7.357.46 2.27 1.384 4.416 2.405 6.481.414.835 1.193 1.926 1.458 2.241" style="fill:#f55;fill-opacity:1;stroke:#000;stroke-width:1.02049;stroke-dasharray:none;stroke-opacity:1" transform="matrix(.97995 0 0 .97992 -274.822 211.739)"/><path d="M103.176 264.641c.069-.32.307-1.18.383-1.5.326-1.36.906-2.45 1.537-3.713.893-1.644 1.828-3.333 3.01-4.79 1.02-1.363 1.98-2.861 2.572-4.473.388-1.3.504-2.335-.107-3.588-.685-1.157-1.47-1.914-2.689-2.496-.459-.164-.682-.276-1.166-.335-.785-.09-1.57.116-2.301.389-1.159.543-2.225 1.224-3.115 2.16-.649.665-1.35 1.56-1.68 2.44a4.516 4.516 0 0 0-.585-.283c-1.701-.644-3.678-.77-5.46-.265a8.496 8.496 0 0 0-4.18 2.748c-.954 1.172-.988 2.882-.045 3.991 1.068 1.324 2.735 2.078 4.21 2.836 1.955 1.005 3.637 2.027 5.471 3.237 1.19.785 2.683 1.964 3.893 3.26" style="fill:#f55;fill-opacity:1;fill-rule:nonzero;stroke:#000;stroke-width:1.02045;stroke-dasharray:none;stroke-opacity:1" transform="matrix(.97995 0 0 .97992 -274.822 211.739)"/></g></svg>