<svg xmlns="http://www.w3.org/2000/svg" xmlns:xlink="http://www.w3.org/1999/xlink" width="500" height="250" viewBox="0 -788 500 250"><defs><path id="a" stroke-width="1" d="m463 111 13-11C401 9 377-10 337-10c-28 0-40 12-40 41 0 25 2 33 23 115C245 33 187-11 117-11 61-11 17 29 17 105c0 155 153 336 286 336 43 0 72-21 80-58l11 48 3 3 61 7 7-3c-2-9-3-11-6-21-47-171-89-343-89-363 0-7 6-13 14-13 9 0 22 8 52 41zm-98 250c0 35-21 58-56 58-45 0-89-31-131-92-42-63-77-152-77-215 0-55 24-74 60-74 50 0 97 55 127 98 47 68 77 154 77 225z"/><path id="b" stroke-width="1" d="M636 220H375V-41h-66v261H48v66h261v261h66V286h261z"/><path id="c" stroke-width="1" d="M163 290h1c68 113 123 151 193 151 67 0 116-43 116-120 0-158-165-332-320-332C96-11 23 12 23 42v6l142 523c6 24 9 38 9 47 0 22-5 23-64 25v17c67 8 103 14 153 23l5-5-21-82zm225 16c0 61-26 86-70 86-48 0-94-42-137-115-44-74-72-171-72-231 0-23 15-34 46-34 43 0 86 21 123 59 60 62 110 161 110 235z"/><path id="d" stroke-width="1" d="M621 220H64v66h557z"/><path id="e" stroke-width="1" d="m350 107 16-10C305 20 252-11 177-11 84-11 30 41 30 143c0 93 52 180 123 237 49 39 106 61 167 61s105-34 105-81c0-27-22-48-48-48-28 0-39 20-39 40 0 18 15 29 15 48 0 12-14 20-37 20-40 0-80-18-109-48-56-59-91-144-91-233 0-72 32-114 89-114 53 0 91 25 145 82z"/><path id="f" stroke-width="1" d="m61 510-16 4c29 95 92 162 196 162 93 0 156-55 156-137 0-48-26-98-93-138 44-19 62-31 83-53 28-31 44-77 44-129 0-53-17-102-46-140-48-64-143-93-232-93C80-14 41 7 41 43c0 21 18 36 41 36 17 0 33-6 61-26 37-26 58-31 86-31 74 0 130 68 130 153 0 76-35 125-104 145-22 7-45 10-102 10v14c38 13 64 24 84 36 49 28 81 73 81 134 0 68-42 102-108 102-62 0-108-32-149-106z"/><path id="g" stroke-width="1" d="M637 320H48v66h589zm0-200H48v66h589z"/><path id="h" stroke-width="1" d="M476 330c0-172-63-344-226-344C79-14 24 172 24 336c0 177 69 340 230 340 131 0 222-141 222-346Zm-96-5c0 208-44 325-132 325-83 0-128-118-128-321S164 12 250 12c85 0 130 115 130 313z"/><path id="i" stroke-width="1" d="M474 137 420 0H29v12l178 189c94 99 130 175 130 260 0 91-54 141-139 141-72 0-107-32-147-130l-21 5c21 117 85 199 208 199 113 0 185-77 185-176 0-79-39-154-128-248L130 76h234c42 0 63 11 96 67z"/></defs><path d="M177.98-695.692c-5.403.893-12.57 3.338-17.649 6.674-22.687 14.903-25.129 43.89-10.531 62.135 5.935 7.419 15.923 14.989 26.975 18.342 8.943 2.713 22.757 3.557 29.54 1.431.25-.81-.63-1.368-1.593-1.231 1.132 3.045 2.899 5.582 4.526 7.445 6.803 7.785 15.584 13.638 23.27 16.242 14.384 4.876 31.649 6.049 44.969 2.991 8.396-1.927 18.319-7.396 23.124-12.035 1.025-1.55-3.607-1.022-.533.88 6.668 4.722 15.958 7.185 22.105 7.868 12.701 1.413 26.964.281 38.982-4.255 13.582-5.126 24.486-14.298 28.745-25.537.707-1.866 1.284-3.214 1.168-4.63.127-1.225-2.504-.32-1.13.29 3.534 1.57 10.589.592 12.107.368 23.299-3.438 40.242-21.685 37.815-44.811-1.325-12.623-7.658-21.883-14.833-27.756-5.107-4.18-10.938-6.11-15.53-6.621l1.755.658c.469-1.387.6-3.202.274-6.88-.57-6.434-5.468-16.463-12.332-23.34-10.383-10.403-24.248-17.05-39.422-16.647-8.142.217-16.164 3.936-17.82 6.195-1.131 1.31 3.01 2.063.465-.419-5.181-5.964-11.945-10.68-17.592-13.276-15.77-7.12-33.135-7.303-49.388-2.99-11.08 2.941-20.713 10.18-24.728 16.656-1.074 1.732-1.915 3.588-2.45 5.66-.738 2.85 3.027.923.304-.337-.994-.46-2.13-.853-2.994-1.137-5.304-1.742-12.118-2.778-18.21-2.685-11.046.168-21.303 2.247-30.907 8.543-7.71 5.054-14.081 11.518-17.547 19.07-1.8 3.922-3.725 10.366-3.973 14.664" style="fill:#dbf5ff;fill-opacity:1;stroke:#000;stroke-width:1.2;stroke-linecap:square;stroke-miterlimit:4;stroke-dasharray:none;stroke-opacity:1"/><path d="M-635.917-336.774c.66 1.544 2.059 3.37 3.377 4.652 4.09 3.958 9.185 6.558 13.581 7.724 8.228 2.182 17.858 2.229 25.646-.24 4.577-1.451 9.414-3.92 11.919-6.056 1.197-1.022-.795-.748-.255-.208 3.194 3.193 7.68 5.536 11.96 6.548 6.892 1.632 14.859 1.808 21.845-.13 7.895-2.191 14.627-6.928 17.853-13.286.496-.952.903-1.922 1.063-2.907.124-.546-1.257.161-.407.316 1.622.308 3.681.41 4.486.426 6.233.126 12.214-4.123 14.977-7.64 3.48-4.43 5.175-9.381 5.435-14.588.362-7.256-2.278-12.716-5.864-16.629-2.055-2.243-5.95-4.212-8.568-4.376-.869-.054.5 1.215.679.45.187-.804.354-1.744.244-3.823-.192-3.636-2.725-9.383-6.414-13.391-5.58-6.065-13.172-10.08-21.63-10.148-4.54-.037-8.934 2.031-10.046 3.143-.57.57.824.602.267-.227-2.218-3.299-5.656-6.08-9.54-7.823-8.815-3.957-18.311-4.76-27.447-2.647-6.228 1.441-11.734 5.333-14.097 8.904-.631.955-1.266 1.874-1.643 3.018-.23.7.446.012.159-.117-.558-.25-.985-.466-1.46-.642-2.92-1.086-6.695-1.802-10.089-1.868-6.155-.12-11.908.85-17.38 4.212-4.392 2.697-8.067 6.215-10.144 10.403-.997 2.01-2.131 4.825-2.423 7.523-.124 1.146.774.051.294.114-2.922.386-5.95 1.53-8.607 3.166-12.925 7.955-14.85 24.241-7.076 34.806 3.162 4.296 9.44 8.584 15.602 10.462 3.673 1.119 9.62 1.913 13.409 1.647a49.16 49.16 0 0 0 2.554-.272" style="fill:#dbf5ff;fill-opacity:1;stroke:#000;stroke-width:.635902;stroke-linecap:square;stroke-miterlimit:4;stroke-dasharray:none;stroke-opacity:1"/><path d="M487.558-977.33c.344-2.817.672-5.209 1.398-7.091 1.762-4.487 2.716-5.044 5.74-8.844 4.622-3.877 5.24-4.911 10.87-7.406 7.16-3.172 14.996-4.29 22.678-4.43 2.719-.05 5.436.17 8.155.256 2.631.321 5.277.527 7.895.964 2.46.41 4.904.952 7.326 1.576 5.739 1.48 11.487 3.543 16.61 6.765 1.199.754 2.294 1.685 3.44 2.528 1.748 1.806 2.65 2.415 3.772 4.613.906 1.774.43 1.363.727 2.943.156.828.116.74.42.41.264-.291.505-.612.794-.875 3.45-3.14 8.192-4.59 12.606-5.02 1.859-.18 3.732-.075 5.598-.112 5.408.867 7.21.77 12.35 3.203 6.325 2.994 11.766 7.87 15.612 14.08 1.29 2.086 2.204 4.417 3.306 6.625.706 2.413 1.617 4.767 2.117 7.24 1.987 9.817.71 20.48-3.55 29.409-1.088 2.281-2.533 4.342-3.8 6.513-4.445 5.447-5.202 6.973-10.745 11.302-6.82 5.324-14.69 8.905-22.702 11.513-2.852.928-5.77 1.603-8.654 2.405-2.921.576-5.827 1.25-8.763 1.727-12.405 2.016-25.046 2.185-37.468.277-4.475-.836-5.865-.989-10.13-2.173-3.222-.894-6.5-1.98-9.368-3.855-.582-.38-1.103-.86-1.655-1.29-.654-.83-1.253-1.307-1.4-2.428-.144-1.104.574-2.058 1.392-2.583.226-.145.488-.21.732-.316.123-.039.26-.187.37-.116.093.06.059.255 0 .353a3.24 3.24 0 0 1-.707.773c-2.36 1.92-5.307 2.773-8.047 3.788-4.709 1.263-6.032 1.804-11.085 2.312-7.173.722-14.533.348-21.592-1.234-2.406-.54-4.748-1.374-7.122-2.061-5.358-2.463-7.717-3.083-12.315-6.995-5.273-4.487-9.157-10.579-10.334-17.823-.41-2.518-.21-5.108-.314-7.663 1.489-7.29 1.35-9.808 5.447-16.24 1.684-2.645 3.773-4.982 5.941-7.175 4.413-4.464 9.487-7.975 14.906-10.813 2.467-1.292 5.087-2.209 7.63-3.313 2.31-.645 4.592-1.428 6.932-1.936 1.95-.422 3.933-.661 5.914-.849a46.788 46.788 0 0 1 4.953-.178c2.393.028 4.788.28 7.033 1.21" style="fill:#d5fff6;stroke:#000;stroke-width:.635822;stroke-linecap:square;stroke-miterlimit:4;stroke-dasharray:none;stroke-opacity:1"/><g style="stroke-width:1.00503" transform="translate(14.893 -773.729) scale(.01745)"><use xlink:href="#a" width="100%" height="100%" style="stroke-width:1.00503" transform="matrix(1 0 0 -1 11747.709 4941.84)"/><use xlink:href="#b" width="100%" height="100%" x="723" style="stroke-width:1.00503" transform="matrix(1 0 0 -1 12521.66 4941.84)"/><use xlink:href="#c" width="100%" height="100%" x="1631" style="stroke-width:1.00503" transform="matrix(1 0 0 -1 12412.723 4941.84)"/><use xlink:href="#d" width="100%" height="100%" x="2354" style="stroke-width:1.00503" transform="matrix(1 0 0 -1 13014.663 4941.84)"/><use xlink:href="#e" width="100%" height="100%" x="3261" style="stroke-width:1.00503" transform="matrix(1 0 0 -1 12849.911 4941.84)"/><use xlink:href="#d" width="100%" height="100%" x="3928" style="stroke-width:1.00503" transform="matrix(1 0 0 -1 13230.544 4941.84)"/><use xlink:href="#f" width="100%" height="100%" x="4836" style="stroke-width:1.00503" transform="matrix(1 0 0 -1 13007.543 4941.84)"/><use xlink:href="#g" width="100%" height="100%" x="5614" style="stroke-width:1.00503" transform="matrix(1 0 0 -1 13556.66 4941.84)"/><use xlink:href="#h" width="100%" height="100%" x="6577" style="stroke-width:1.00503" transform="matrix(1 0 0 -1 14096.554 4941.84)"/><use xlink:href="#d" width="100%" height="100%" x="9300" style="stroke-width:1.00503" transform="matrix(1 0 0 -1 1733.017 6289.944)"/><use xlink:href="#a" width="100%" height="100%" x="10208" style="stroke-width:1.00503" transform="matrix(1 0 0 -1 1535.024 6289.944)"/><use xlink:href="#d" width="100%" height="100%" x="10932" style="stroke-width:1.00503" transform="matrix(1 0 0 -1 1839.037 6289.944)"/><use xlink:href="#i" width="100%" height="100%" x="11839" style="stroke-width:1.00503" transform="matrix(1 0 0 -1 1715.473 6289.944)"/><use xlink:href="#c" width="100%" height="100%" x="12340" style="stroke-width:1.00503" transform="matrix(1 0 0 -1 1715.473 6289.944)"/><use xlink:href="#d" width="100%" height="100%" x="13063" style="stroke-width:1.00503" transform="matrix(1 0 0 -1 2304.352 6289.944)"/><use xlink:href="#e" width="100%" height="100%" x="13970" style="stroke-width:1.00503" transform="matrix(1 0 0 -1 2139.975 6289.944)"/><use xlink:href="#g" width="100%" height="100%" x="14693" style="stroke-width:1.00503" transform="matrix(1 0 0 -1 4478.192 6289.944)"/><use xlink:href="#h" width="100%" height="100%" x="15656" style="stroke-width:1.00503" transform="matrix(1 0 0 -1 5018.086 6289.944)"/><use xlink:href="#d" width="100%" height="100%" x="18379" style="stroke-width:1.00503" transform="matrix(1 0 0 -1 -5117.782 8087.419)"/><use xlink:href="#c" width="100%" height="100%" x="19286" style="stroke-width:1.00503" transform="matrix(1 0 0 -1 -5229.283 8087.419)"/><use xlink:href="#d" width="100%" height="100%" x="20009" style="stroke-width:1.00503" transform="matrix(1 0 0 -1 -5152.567 8087.419)"/><use xlink:href="#i" width="100%" height="100%" x="20917" style="stroke-width:1.00503" transform="matrix(1 0 0 -1 -5308.355 8087.419)"/><use xlink:href="#e" width="100%" height="100%" x="21417" style="stroke-width:1.00503" transform="matrix(1 0 0 -1 -5308.355 8087.419)"/><use xlink:href="#d" width="100%" height="100%" x="22084" style="stroke-width:1.00503" transform="matrix(1 0 0 -1 -4926.494 8087.419)"/><use xlink:href="#f" width="100%" height="100%" x="22992" style="stroke-width:1.00503" transform="matrix(1 0 0 -1 -5149.238 8087.419)"/><use xlink:href="#g" width="100%" height="100%" x="23770" style="stroke-width:1.00503" transform="matrix(1 0 0 -1 -4597.231 8087.419)"/><use xlink:href="#h" width="100%" height="100%" x="24733" style="stroke-width:1.00503" transform="matrix(1 0 0 -1 -4057.337 8087.419)"/><path d="M21808.304 6919.629H9094.337v-66h12713.967Z"/><use xlink:href="#g" width="100%" height="100%" x="23770" style="stroke-width:1.00503" transform="matrix(1 0 0 -1 -14694.209 8087.419)"/><use xlink:href="#b" width="100%" height="100%" x="723" style="fill:#000;stroke-width:1.00503" transform="matrix(1 0 0 -1 8361.352 6289.88)"/><path stroke-width=".991" d="m10804.346 6402.641-11.896 15.86c-156.619-89.213-241.867-256.736-241.867-425.25 0-183.383 86.24-326.125 244.841-420.295l8.922 15.86c-137.786 117.96-168.515 210.148-168.515 401.461 0 184.374 29.738 296.387 168.515 412.364z" style="stroke:#000;stroke-width:12.7803;stroke-miterlimit:4;stroke-dasharray:none;stroke-opacity:1"/><use xlink:href="#d" width="100%" height="100%" x="9411" style="stroke-width:1.00503" transform="matrix(.01178 0 0 -.01178 10607.802 6233.762)"/><use xlink:href="#a" width="100%" height="100%" x="10097" style="stroke-width:1.00503" transform="matrix(.01178 0 0 -.01178 10607.802 6233.762)"/><use xlink:href="#d" width="100%" height="100%" x="10821" style="stroke-width:1.00503" transform="matrix(.01178 0 0 -.01178 10607.802 6233.762)"/><use xlink:href="#i" width="100%" height="100%" x="11728" style="stroke-width:1.00503" transform="matrix(.01178 0 0 -.01178 10607.802 6233.762)"/><use xlink:href="#c" width="100%" height="100%" x="12229" style="stroke-width:1.00503" transform="matrix(.01178 0 0 -.01178 10607.802 6233.762)"/><use xlink:href="#d" width="100%" height="100%" x="12952" style="stroke-width:1.00503" transform="matrix(.01178 0 0 -.01178 10607.802 6233.762)"/><use xlink:href="#e" width="100%" height="100%" x="13859" style="stroke-width:1.00503" transform="matrix(.01178 0 0 -.01178 10607.802 6233.762)"/><use xlink:href="#g" width="100%" height="100%" x="14582" style="stroke-width:1.00503" transform="matrix(.01178 0 0 -.01178 10607.802 6233.762)"/><use xlink:href="#h" width="100%" height="100%" x="15545" style="stroke-width:1.00503" transform="matrix(.01178 0 0 -.01178 10607.802 6233.762)"/><path stroke-width=".991" d="m21481.89 5580.106 11.895-15.86c151.663 91.196 241.868 256.737 241.868 425.25 0 183.384-87.231 324.143-244.842 420.295l-8.921-15.86c140.759-115.977 168.514-209.156 168.514-401.46 0-185.366-24.781-299.36-168.514-412.365z" style="stroke:#000;stroke-width:12.7803;stroke-miterlimit:4;stroke-dasharray:none;stroke-opacity:1"/></g><path d="M145.002-921.238c-.767-.18-1.543-.33-2.302-.541-6.306-1.758-12.591-4.649-17.764-8.695-1.576-1.232-2.967-2.685-4.45-4.027-1.23-1.552-2.606-2.998-3.687-4.656-2.982-4.576-4.856-10.071-4.954-15.555-.081-4.543.625-5.689 1.909-9.99.83-1.62 1.528-3.317 2.492-4.863 4.432-7.104 11.952-13.545 18.942-18.02 2.176-1.392 4.477-2.582 6.715-3.873 2.6-1.186 5.146-2.5 7.8-3.558 12.867-5.132 26.719-7.606 40.486-8.623 3.874-.286 7.763-.333 11.644-.5 3.93.065 7.862.015 11.788.193 14.531.66 29.324 2.813 43.282 6.977 2.966.885 5.86 1.996 8.79 2.993 2.564 1.176 5.201 2.206 7.693 3.529 6.44 3.42 12.154 7.972 16.791 13.608 3.618 4.397 4.009 5.706 6.627 10.628.655 1.803 1.438 3.564 1.965 5.408 1.33 4.658 1.736 9.658.86 14.44-.653 3.57-1.277 4.398-2.766 7.63-.73 1.11-1.393 2.268-2.19 3.332-3.384 4.51-7.9 8.042-12.611 11.066-1.276.819-2.596 1.569-3.894 2.353a94.805 94.805 0 0 1-21.71 8.893c-1.62.44-3.26.804-4.889 1.206a125.881 125.881 0 0 1-20.484 2.733c-5.071.258-6.915.189-12.12.192-12.475-.197-24.97-.99-37.327-2.755-2.29-.326-4.566-.74-6.85-1.11-8.214-1.573-4.24-.752-11.923-2.444l-.086.278v0c7.692 1.694 3.714.871 11.938 2.447 2.286.37 4.566.784 6.858 1.111 12.37 1.766 24.874 2.56 37.36 2.76 5.216-.001 7.055.069 12.137-.188a126.173 126.173 0 0 0 20.53-2.735c1.634-.402 3.277-.766 4.901-1.207a94.91 94.91 0 0 0 21.853-8.957c1.302-.788 2.625-1.54 3.905-2.363 4.737-3.045 9.276-6.604 12.673-11.148.803-1.075 1.47-2.246 2.205-3.369 1.5-3.27 2.127-4.104 2.782-7.713.876-4.822.464-9.861-.881-14.556-.531-1.855-1.32-3.628-1.98-5.442-2.635-4.946-3.029-6.264-6.667-10.682-4.66-5.661-10.4-10.235-16.872-13.67-2.5-1.326-5.144-2.359-7.716-3.539-2.936-1-5.836-2.112-8.808-2.998-13.978-4.17-28.79-6.327-43.342-6.99-3.931-.178-7.869-.129-11.803-.193-3.887.166-7.78.212-11.66.498-13.795 1.016-27.674 3.494-40.569 8.631-2.662 1.06-5.215 2.376-7.823 3.565-2.271 1.311-4.604 2.52-6.813 3.935-7.02 4.496-14.57 10.979-19.012 18.121-.97 1.56-1.67 3.273-2.506 4.909-1.29 4.35-2 5.504-1.912 10.096.107 5.532 2 11.072 5.012 15.686 1.09 1.67 2.477 3.125 3.715 4.688 1.493 1.35 2.893 2.812 4.48 4.052 5.197 4.065 11.51 6.97 17.845 8.741.764.214 1.544.364 2.317.547l.077-.286z" style="fill:#ececec;stroke:#ececec;stroke-width:.127164;stroke-linecap:square;stroke-miterlimit:4;stroke-dasharray:none;stroke-opacity:1"/><path d="M815.786-749.38c.137-1.292.266-2.602.55-3.67.19-.632.352-1.274.574-1.896 1.282-3.606 3.269-7.025 5.878-9.834.773-.832 1.646-1.564 2.47-2.346 2.253-1.617 3.415-2.553 5.884-3.891 4.174-2.262 8.741-3.655 13.383-4.559 2.637-.343 4-.626 6.642-.567.934.02 1.862.148 2.79.256 2.545.297 5.067.758 7.507 1.553 2.397.945 4.95 1.926 6.714 3.887-.055.052-.091.138-.165.154-.718.152-1.495-.56-1.828-1.094-.2-.321-.386-.676-.43-1.053-.053-.456.098-.914.147-1.37.246-.533.424-1.102.736-1.599.777-1.237 2.08-2.525 3.164-3.458 2.14-1.844 4.49-3.238 7.111-4.288 2.188-.739 2.933-1.052 5.195-1.565 3.653-.828 7.423-1.184 11.164-1.156 2.07.126 2.975.136 5.02.438a36.73 36.73 0 0 1 8.618 2.375c1.69.722 3.378 1.411 4.9 2.46.71.491 1.343.977 1.865 1.668.176.232.29.505.436.758.034.325.161.85-.057 1.173-.092.136-.258.212-.41.273-.735.3-1.434-.009-2.106-.316-.695-.492-1.577-1.09-1.76-2.008-.245-1.229.887-1.921 1.764-2.45.565-.185 1.116-.42 1.695-.552 3.982-.905 8.28-.276 12.158.801 1.342.373 2.645.875 3.967 1.313 3.695 1.484 5.203 1.998 8.815 3.838 1.48.755 2.926 1.577 4.361 2.414 4.177 2.437 8.186 5.151 11.939 8.204 2.625 2.245 4.28 3.554 6.687 6.022a40.274 40.274 0 0 1 7.297 10.277c.797 1.79.919 1.81 1.329 3.53.21.883.487 2.044.045 2.925-.054.108-.17.172-.255.257-.101.015-.205.068-.304.044-.402-.096-.62-.667-.569-1.03.07-.497.314-.675.621-1.038.443-.266.651-.468 1.203-.48 1.471-.03 2.54 1.841 3.222 2.863.886 1.702 1.23 2.184 1.808 4.112.839 2.796 1.27 5.983 1.097 8.896-.062 1.044-.264 2.075-.397 3.112-.248 1.02-.447 2.053-.745 3.06-.503 1.698-1.485 4.16-2.27 5.739-1.298 2.612-3.014 4.983-4.762 7.306-.597.717-1.167 1.458-1.79 2.152a35.685 35.685 0 0 1-1.745 1.789c-1.573 1.525-3.273 2.99-5.214 4.035-.495.266-1.028.456-1.542.684-1.35.403-2.303.82-3.694.307-.46-.17-.862-.352-.872-.912 0-.22.127-.42.19-.63.14-.21.26-.435.42-.629.68-.82 1.685-1.235 2.739-1.19.077.023.242.041.279.146.152.427-.356 1.666-.445 2.04-.153.376-.288.76-.459 1.127-1.75 3.773-4.54 6.923-7.562 9.732-2.426 1.974-3.246 2.772-5.955 4.432a45.89 45.89 0 0 1-7.138 3.52c-3.004 1.15-4.86 1.518-7.99 2.309-3.407.541-4.631.814-8.057 1.052a46.106 46.106 0 0 1-12.153-.78c-.709-.193-1.428-.35-2.125-.58-1.004-.333-2.498-.971-3.387-1.58-.586-.402-1.407-1.194-1.701-1.895-.114-.272-.086-.583-.128-.875.075-.26.097-.543.225-.782.568-1.06 2.087-1.527 3.199-1.596.248-.015.497.018.746.027.141.054.302.073.423.163.253.187.204.492.064.734-.598 1.04-1.975 1.63-2.89 2.284-.699.367-1.385.761-2.098 1.102-2.118 1.013-3.92 1.71-6.166 2.48-4.239 1.45-8.575 2.604-13.002 3.322-4.01.623-5.525.954-9.558 1.204-5.588.346-11.2-.04-16.717-.945-1.287-.246-2.582-.457-3.862-.739-2.705-.596-4.452-1.115-7.057-1.989-2.062-.692-4.426-1.553-6.424-2.441-.839-.373-1.648-.808-2.472-1.211-1.833-1.01-2.46-1.27-4.074-2.452-1.095-.802-2.375-1.831-2.88-3.157-.108-.285-.102-.601-.153-.902.02-.281-.01-.571.063-.844.067-.254.208-.484.344-.709.484-.797 1.22-1.39 2.136-1.59.125-.01.251-.041.377-.03.072.007.14.045.201.083.393.249-.058.742-.213.973-.14.152-.266.317-.42.455-1.887 1.715-4.53 2.022-6.966 2.16-.896-.03-1.795-.007-2.687-.092-2.054-.193-4.315-.664-6.288-1.227-2.564-.732-4.267-1.358-6.606-2.631-1.016-.553-1.965-1.221-2.948-1.832-2.318-1.881-2.994-2.288-5.025-4.512-3.222-3.53-5.666-7.668-7.396-12.112-.371-1.16-.807-2.3-1.115-3.479-.533-2.039-1.028-5.103-1.088-7.2-.065-2.248.253-4.936.796-7.115.283-1.14.725-2.233 1.088-3.35 1.148-2.63 1.694-4.175 3.276-6.608 1.212-1.866 2.949-3.857 4.603-5.344 1.87-1.68 3.527-2.666 5.613-4.048.961-.493 1.895-1.045 2.884-1.479.837-.366 1.715-.634 2.584-.918 2.086-.683 4.23-1.249 6.42-1.465M826.367-628.96c-2.208.21-4.37.782-6.474 1.469-.872.285-1.752.553-2.593.92-.997.437-1.939.99-2.908 1.486-2.13 1.406-3.794 2.39-5.696 4.101-1.665 1.498-3.413 3.504-4.633 5.382-1.59 2.45-2.14 4.002-3.293 6.65-.365 1.121-.809 2.22-1.093 3.365-.547 2.195-.867 4.9-.802 7.164.061 2.112.557 5.193 1.094 7.247.31 1.184.747 2.331 1.121 3.497 1.738 4.467 4.192 8.626 7.43 12.174 2.04 2.238 2.72 2.646 5.05 4.54.989.614 1.944 1.288 2.966 1.845 2.351 1.282 4.067 1.914 6.645 2.652 1.981.567 4.256 1.042 6.318 1.238.9.085 1.805.064 2.707.097 2.498-.14 5.216-.457 7.148-2.222.16-.146.291-.32.437-.479.247-.34.646-.855.205-1.226a.58.58 0 0 0-.264-.134c-.151-.027-.308.003-.462.005-.996.2-1.808.83-2.332 1.695-.142.234-.29.475-.359.74-.078.296-.05.609-.076.913.053.316.045.648.158.948.516 1.379 1.81 2.436 2.947 3.271 1.619 1.189 2.265 1.46 4.101 2.471.827.406 1.64.842 2.48 1.216 2.007.892 4.372 1.754 6.444 2.45 2.61.877 4.361 1.397 7.073 1.995 1.284.283 2.582.495 3.872.742 5.53.908 11.156 1.296 16.756.951 4.044-.249 5.562-.58 9.583-1.204 4.435-.718 8.781-1.873 13.03-3.325 2.25-.769 4.061-1.47 6.185-2.482.717-.342 1.408-.737 2.112-1.105.432-.278 4.059-2.264 2.942-3.313-.138-.13-.34-.167-.511-.25-.271-.016-.542-.06-.813-.048-1.182.054-2.801.574-3.405 1.69-.141.26-.17.568-.254.852.043.318.01.657.127.955.303.755 1.13 1.57 1.763 2.008.907.628 2.411 1.275 3.44 1.617.704.233 1.43.392 2.145.589 4.015.8 8.123 1.07 12.208.789 3.434-.236 4.666-.51 8.08-1.052 3.145-.792 5.002-1.159 8.02-2.312a46.063 46.063 0 0 0 7.171-3.529c2.786-1.705 3.554-2.463 6.037-4.485 3.039-2.828 5.845-6 7.604-9.796.173-.373.31-.762.465-1.142.1-.413.613-1.656.454-2.123-.077-.225-.207-.23-.401-.315a3.525 3.525 0 0 0-2.99 1.25c-.172.203-.294.442-.441.663-.07.227-.212.445-.21.683.01.658.402.899.962 1.13.312.13.646.225.983.251a5.04 5.04 0 0 0 1.304-.072c.53-.098 1.036-.303 1.554-.454.522-.23 1.063-.42 1.565-.69 1.985-1.062 3.713-2.545 5.319-4.103.6-.582 1.193-1.174 1.751-1.797.626-.698 1.199-1.443 1.798-2.164 1.754-2.332 3.476-4.713 4.778-7.336.787-1.586 1.775-4.064 2.28-5.77.3-1.012.5-2.052.75-3.078.132-1.044.336-2.081.398-3.132.174-2.935-.259-6.145-1.103-8.962-.584-1.95-.93-2.434-1.824-4.156-.738-1.104-1.787-2.953-3.35-2.967-.627-.006-.874.225-1.391.519-.573.594-1.042 1.387-.4 2.144.095.111.216.21.354.254.133.043.28 0 .42-.002.141-.11.328-.177.422-.328.525-.835.201-2.266 0-3.109-.41-1.73-.543-1.773-1.343-3.571a40.478 40.478 0 0 0-7.33-10.325c-2.413-2.474-4.074-3.79-6.705-6.039-3.76-3.06-7.776-5.78-11.961-8.221-1.438-.839-2.886-1.663-4.369-2.419-3.62-1.846-5.13-2.36-8.834-3.85-1.325-.439-2.631-.943-3.977-1.318-3.925-1.092-8.211-1.724-12.243-.818-.59.132-1.15.369-1.726.553-.987.595-2.178 1.269-1.936 2.652.104.594.626 1.228 1.052 1.611.24.217.526.377.789.566.713.334 1.461.66 2.251.36.194-.073.406-.159.53-.324.306-.404.166-.924.127-1.36-.154-.277-.273-.577-.461-.832-.521-.707-1.198-1.229-1.914-1.724-1.533-1.062-3.236-1.758-4.94-2.487a36.95 36.95 0 0 0-8.656-2.389c-2.057-.304-2.961-.315-5.043-.442-3.755-.031-7.54.325-11.21 1.153-2.277.515-3.017.827-5.22 1.569-2.678 1.074-5.035 2.461-7.222 4.347-1.093.943-2.409 2.245-3.192 3.494-.32.51-.503 1.092-.754 1.638-.053.476-.213.953-.16 1.43.108.965 1.302 2.572 2.432 2.363.132-.025.23-.14.345-.21-.094-.2-.148-.424-.282-.6-.336-.44-1.237-1.08-1.648-1.336-.796-.497-2.177-1.203-3.021-1.572-.598-.26-1.213-.478-1.82-.718-2.453-.801-4.989-1.267-7.548-1.566-.93-.109-1.862-.237-2.799-.258-2.671-.062-4.015.22-6.683.564-4.66.905-9.249 2.299-13.44 4.568-2.55 1.38-3.652 2.277-5.968 3.94-.83.788-1.709 1.526-2.487 2.364-2.626 2.83-4.626 6.273-5.916 9.904-.223.628-.386 1.275-.58 1.913-.329 1.216-.468 2.46-.554 3.711" style="fill:#d5fff6;stroke:#000;stroke-width:.635823;stroke-linecap:square;stroke-miterlimit:4;stroke-dasharray:none;stroke-opacity:1"/><path d="M22921.913 23801.361c-17.202 20.197-29.456 44.131-44.185 66.195-6.973 22.758-21.123 44.472-20.925 68.274.589 65.841 40.156 89.933 96.122 113.085 31.261 12.932 64.617 22.439 98.345 25.071 43.394 3.389 87.571.673 130.378-7.226 53.075-9.773 103.605-30.265 155.409-45.398 52.181-22.98 106.28-42.02 156.542-68.94 198.43-106.281 371.269-254.496 531.864-410.309 60.033-58.245 119.331-117.399 175.144-179.699 62.579-69.852 119.832-144.295 179.748-216.443 175.387-233.241 347.616-471.288 477.83-733.63 78.72-158.595 177.489-406.368 228.013-576.969 29.981-101.233 49.934-205.17 74.9-307.755 13.297-104.416 33.665-208.172 39.892-313.246 17.392-293.505-25.877-614.526-110.329-896.202-58.437-194.908-92.967-243.424-182.355-415.546-73.809-110.416-178.758-295.357-335.08-296.759-62.703-.564-87.336 22.548-139.09 51.893-57.235 59.412-104.154 138.768-39.915 214.46 9.384 11.058 21.553 20.888 35.345 25.37 13.326 4.332 28.023-.143 42.035-.218 14.073-10.949 32.735-17.748 42.219-32.848 52.411-83.443 20.055-226.527.06-310.826-41.046-173.069-54.35-177.28-134.381-357.154-189.644-382.289-434.749-726.761-732.918-1032.446-241.345-247.428-407.423-378.962-670.518-603.906-375.998-305.942-777.649-577.964-1196.143-822.137-143.763-83.879-288.563-166.257-436.847-241.856-362.044-184.58-513.092-236.128-883.417-384.996-132.573-43.934-263.168-94.362-397.72-131.8-392.552-109.224-821.132-172.425-1224.313-81.866-58.936 13.237-115.036 36.898-172.553 55.346-98.765 59.503-217.874 126.87-193.622 265.212 10.403 59.335 62.571 122.758 105.158 161.099 24.047 21.648 52.586 37.715 78.878 56.572 71.297 33.398 146.186 65.912 225.16 36.031 19.397-7.339 40.578-15.917 53.074-32.47 30.474-40.366 16.56-92.308 12.587-135.964-15.364-27.732-27.285-57.672-46.09-83.196-52.091-70.704-119.827-122.851-191.423-172.446-153.214-106.132-323.525-175.716-493.914-248.601-277.329-114.335-568.771-194.954-865.622-238.921-205.721-30.47-296.123-31.485-504.298-44.266-375.554-3.073-754.117 32.504-1120.932 115.383-227.826 51.476-301.785 82.634-522.062 156.819-267.857 107.4-503.557 246.163-722.234 434.785-109.254 94.239-240.879 224.436-319.19 349.353-31.929 50.932-50.305 109.195-75.457 163.792-5.3 47.652-21.211 95.304-15.901 142.955 10.763 96.598 130.191 257.212 243.135 236.336 13.231-2.445 23.019-13.937 34.528-20.905-9.395-20.008-14.767-42.458-28.185-60.023-33.625-44.017-123.753-107.999-164.878-133.678-79.597-49.701-217.652-120.29-302.074-157.134-59.749-26.077-121.277-47.873-181.915-71.81-245.329-80.177-498.955-126.707-754.842-156.643-93.062-10.887-186.228-23.679-279.9-25.84-267.132-6.163-401.553 21.953-668.322 56.48-466.016 90.463-924.849 229.838-1343.986 456.722-254.972 138.019-365.207 227.739-596.858 394.015-82.884 78.826-170.848 152.632-248.65 236.476-262.624 283.017-462.59 627.251-591.649 990.386-22.302 62.751-38.574 127.484-57.862 191.226-32.99 121.617-46.896 246.022-55.537 371.169" style="fill:none;stroke:#000;stroke-width:63.5823;stroke-linecap:square;stroke-miterlimit:4;stroke-dasharray:none;stroke-opacity:1" transform="matrix(.01 0 0 .01 -456.236 -455.358)"/><path d="M17875.513 25301.699c-118.282 5.333-280.156 57.333-340.54 168.893-14.125 26.095-16.963 56.87-25.444 85.306 4.248 31.827.757 65.679 12.748 95.481 30.291 75.507 112.929 156.983 176.274 200.808 90.767 62.796 241.135 127.487 344.113 161.658 70.356 23.346 142.96 39.275 214.44 58.913 401.512 80.016 812.307 107.029 1220.803 78.911 343.367-23.634 466.579-51.045 808.044-105.201 314.389-79.23 500.124-115.863 801.899-231.227 235.059-89.86 502.171-221.228 717.142-352.821 278.567-170.523 355.354-246.371 603.649-448.578 303.895-282.749 584.483-599.879 760.478-979.604 17.28-37.285 30.95-76.139 46.426-114.209 9.973-41.291 61.347-165.542 45.413-212.259-7.68-22.518-20.675-23.032-40.087-31.469-114.67-9.553-224.199 37.28-298.958 125.06M9225.97 18757.983c-550.138 62.272-1074.54 271.92-1525.228 585.318-615.107 427.73-1019.68 1094.318-1172.09 1799.362-200.04 925.391 86.447 1884.837 677.276 2613.208 456.208 562.411 1163.679 1007.11 1889.393 1146.449 428.733 82.317 959.482 93.442 1353.334-128.232 58.025-47.655 203.873-135.105 140.234-222.558" style="fill:none;stroke:#000;stroke-width:63.5823;stroke-linecap:square;stroke-miterlimit:4;stroke-dasharray:none;stroke-opacity:1" transform="matrix(.01 0 0 .01 -456.236 -455.358)"/><path d="M10526.872 24525.065c-291.774 23.662-153.977 472.52 193.051 747.149 573.188 453.609 1347.957 747.653 1973.931 876.794 1171.742 241.735 2551.821 233.693 3620.312-2.955 832.062-184.284 1366.421-514.801 1727.241-954.354 76.732-93.476 123.586-325.007-45.041-287.118" style="fill:none;stroke:#000;stroke-width:63.5823;stroke-linecap:square;stroke-miterlimit:4;stroke-dasharray:none;stroke-opacity:1" transform="matrix(.01 0 0 .01 -456.236 -455.358)"/><path d="M-341.13-388.31c.711.295 1.456.58 2.22.267.187-.076.392-.166.509-.328.284-.397.13-.89.076-1.305-.16-.26-.288-.543-.481-.78-.535-.66-1.217-1.135-1.936-1.585-1.539-.963-3.232-1.571-4.927-2.21a36.966 36.966 0 0 0-8.567-1.99c-2.027-.222-2.913-.201-4.958-.253-3.681.1-7.379.569-10.945 1.487-2.215.57-2.928.893-5.061 1.678-2.588 1.119-4.85 2.527-6.926 4.406-1.038.939-2.283 2.23-3.007 3.451-.295.499-.454 1.062-.682 1.593-.035.458-.174.92-.106 1.373.14.92 1.366 2.417 2.466 2.178.128-.027.22-.14.33-.211-.098-.189-.159-.401-.297-.565-.344-.41-1.25-.991-1.662-1.223-.797-.448-2.175-1.076-3.015-1.4-.595-.23-1.206-.417-1.808-.625-2.432-.683-4.934-1.042-7.452-1.241-.916-.073-1.834-.163-2.753-.152-2.62.032-3.927.347-6.53.768-4.535 1.025-8.983 2.515-13.011 4.828-2.45 1.408-3.5 2.304-5.712 3.973-.785.783-1.621 1.519-2.354 2.348-2.475 2.797-4.314 6.159-5.452 9.677-.197.608-.334 1.233-.5 1.85-.281 1.174-.374 2.369-.415 3.57M-292.532-364.618c2.28-.262 1.483-4.918 1.103-6.322-1.796-7.52-6.428-12.114-11.398-15.714-6.612-4.61-14.296-7.66-23.114-7.478-3.39.266-7.225 1.082-10.835 4.235-2.176 1.757-2.034 4.543-.41 4.95" style="fill:none;stroke:#000;stroke-width:.635823;stroke-linecap:square;stroke-miterlimit:4;stroke-dasharray:none;stroke-opacity:1"/><path d="M-297.464-321.225c-.18 1.952 2.38 2.493 4.953 1.766 6.207-1.754 12.552-7.141 15.144-11.301 3.263-5.24 4.343-10.805 3.958-16.473-.538-7.9-3.54-11.587-7.364-15.622-2.222-2.344-5.895-4.086-9.236-4.43-2.792-.288-4.05.965-3.095 2.488" style="fill:none;stroke:#000;stroke-width:.635822;stroke-linecap:square;stroke-miterlimit:4;stroke-dasharray:none;stroke-opacity:1"/><path d="M-351.34-303.167c-1.287.43-2.484 2.045-.117 3.995 3.195 2.631 9.237 3.592 13.245 3.847 8.282.526 16.48-.774 24.127-3.86 9.362-3.776 16.907-10.874 18.877-18.115.396-1.457 1.086-5.785-2.207-4.198M-431.973-360.134c-4.998.577-9.762 2.517-13.857 5.417-5.588 3.958-9.264 10.127-10.648 16.651-1.818 8.563.785 17.442 6.153 24.182 4.144 5.205 10.572 9.32 17.165 10.61 3.895.761 8.717.864 12.295-1.187.527-.441 1.853-1.25 1.274-2.06" style="fill:none;stroke:#000;stroke-width:.635823;stroke-linecap:square;stroke-miterlimit:4;stroke-dasharray:none;stroke-opacity:1"/><path d="M-420.327-307.087c-2.728.236-1.44 4.725 1.804 7.471 5.359 4.536 12.601 7.477 18.453 8.768 10.953 2.418 23.854 2.337 33.843-.029 7.778-1.843 12.773-5.148 16.146-9.543.717-.935 1.155-3.25-.42-2.872" style="fill:none;stroke:#000;stroke-width:.635823;stroke-linecap:square;stroke-miterlimit:4;stroke-dasharray:none;stroke-opacity:1"/><path d="M223.95-858.476c2.252 1.308 2.573-2.711 1.93-5.097-1.481-5.507-4.017-9.268-7.89-13.237-5.858-6.004-14.475-10.475-22.426-10.681-5.291-.138-9.634 2.607-9.543 4.96M-318.28-674.133c.175.366.486.764.97 1.189 3.189 2.794 8.626 3.76 12.456 4.235 7.914.98 15.87.333 23.417-1.932 8.055-2.418 15.806-8.422 19.332-14.915.584-1.075.96-1.873 1.06-2.46.32-1.856-4.697-.177-.267.102.936.058 1.953.068 2.835.047 6.828-.167 13.148-4.686 15.985-8.323 3.574-4.58 5.168-9.6 5.178-14.804.013-7.254-3.21-12.526-7.293-16.31-2.24-2.075-5.6-3.431-8.865-3.968-4.146-.683.03 1.984.468.35.269-1.002-.122-2.628-.454-3.813-1.543-5.508-4.185-9.269-8.218-13.238-6.101-6.004-14.069-10.326-23.123-10.235-4.859.05-8.606 2.507-9.416 3.91-.264.458 3.492 2.367.807-.324-3.169-3.177-7.275-5.756-10.736-7.18-9.665-3.907-20.374-4.161-30.435-2.026-6.86 1.455-12.863 5.197-15.396 8.586-.677.906-1.306 2.174-1.558 3.328-.436 1.994 5.914 3.253.501-.146-.671-.422-1.49-.768-2.014-.957-3.38-1.216-7.508-1.832-11.276-1.836-6.834-.007-13.197 1.08-19.194 4.567-4.814 2.8-8.813 6.412-11.025 10.67-1.149 2.21-1.994 4.49-2.278 7.986" style="fill:none;stroke:#000;stroke-width:.635822;stroke-linecap:square;stroke-miterlimit:4;stroke-dasharray:none;stroke-opacity:1"/><path fill="none" d="M-394.473-732.577c-4.444.39-8.74 1.728-12.555 3.78-5.775 3.104-9.818 8.25-11.63 13.843-2.377 7.341.018 15.457 4.402 21.416 3.849 5.233 10.844 8.752 17.949 10.274 4.197.9 9.458 1.282 13.523-.286.61-.352 2.12-.975 1.55-1.715" style="fill:#000;fill-opacity:0;stroke:#000;stroke-width:.635822;stroke-linecap:square;stroke-miterlimit:4;stroke-dasharray:none;stroke-opacity:1"/><path d="M-380.688-684.708c-2.483.043-1.601 4.227 1.161 6.944 4.562 4.488 10.93 7.637 16.144 9.19 9.76 2.908 21.438 3.657 30.626 2.131 5.79-.961 10.273-2.989 13.43-5.714.744-.643 1.36-1.18 1.783-1.98" style="fill:none;stroke:#000;stroke-width:.635822;stroke-linecap:square;stroke-miterlimit:4;stroke-dasharray:none;stroke-opacity:1"/><path d="M267.859-919.577c-4.44.436-8.792 2.036-12.52 4.277-14.414 8.666-16.075 25.682-6.912 36.454 3.726 4.381 10.988 8.661 18.042 10.435 4.657 1.17 11.523 1.89 15.622 1.223 2.914-.476-.06-1.45.376-.147.402 1.204 2.09 3.11 3.15 4.191 4.431 4.524 10.59 7.67 15.622 9.204 9.42 2.871 20.744 3.614 29.498 1.898 5.518-1.081 11.842-4.126 15.015-6.787 2.052-1.722-1.083-.727-.199.041 3.225 2.8 8.713 4.337 12.547 4.784 7.923.925 15.757.285 23.276-2.465 7.914-2.894 15.799-9.011 19.267-15.645.574-1.099.943-1.914 1.039-2.512.162-1.013-3.325.106-.268.106.939 0 1.955.053 2.837.023 6.825-.232 13.105-4.885 15.91-8.609 3.532-4.69 5.081-9.808 5.044-15.1-.052-7.377-3.276-12.759-7.439-16.518-2.386-2.155-6.25-3.754-8.9-3.955-2.744-.208.519 1.367.695.277.168-1.041-.084-2.691-.488-3.874-1.742-5.095-4.49-9.31-8.56-13.31-6.154-6.049-14.16-10.372-23.214-10.197-4.857.095-7.975 2.423-8.97 3.722-.447.581 1.913 1.547.394.003-3.173-3.227-7.326-5.787-10.8-7.203-9.7-3.885-20.41-4.046-30.452-1.783-6.846 1.542-12.816 5.401-15.318 8.87-.67.928-1.286 2.222-1.528 3.398-.145.704 2.518 1.111.5-.153-.676-.422-1.498-.767-2.023-.954-3.39-1.206-7.524-1.795-11.292-1.764-6.834.055-13.187 1.217-19.153 4.818-4.788 2.89-8.755 6.6-10.929 10.95-1.128 2.258-1.953 4.583-2.206 8.141M76.168-954.937c-4.307.452-8.529 2.112-12.145 4.437-13.982 8.99-15.593 26.64-6.705 37.815 3.614 4.544 10.66 8.984 17.502 10.824 4.517 1.215 11.177 1.962 15.153 1.268 2.827-.492-.058-1.503.365-.152.39 1.25 2.027 3.226 3.056 4.348 4.298 4.692 10.272 7.956 15.153 9.548 9.138 2.978 20.123 3.749 28.614 1.969 5.353-1.122 11.488-4.28 14.565-7.041 1.991-1.786-1.05-.755-.192.042 3.128 2.904 8.451 4.499 12.17 4.963 7.686.96 15.285.296 22.58-2.557 7.676-3.002 15.325-9.348 18.689-16.229.557-1.14.915-1.985 1.008-2.606.156-1.05-3.225.11-.26.11.91 0 1.896.055 2.751.024 6.621-.24 12.713-5.067 15.434-8.93 3.426-4.866 4.93-10.174 4.893-15.665-.05-7.651-3.178-13.234-7.216-17.134-2.315-2.235-6.064-3.894-8.633-4.102-2.662-.216.503 1.418.674.287.163-1.08.524-1.537.138-4.018-.67-4.304-3.54-9.44-7.487-13.589-5.97-6.275-13.532-10.76-22.314-10.578-4.713.098-9.368 2.295-10.335 3.642-.433.604 1.857 1.606.384.003-3.078-3.346-7.107-6.002-10.476-7.472-9.41-4.03-19.8-4.196-29.54-1.85-6.641 1.6-12.432 5.604-14.86 9.203-.649.962-1.247 2.305-1.482 3.524-.14.73 2.443 1.153.485-.158-.655-.439-1.452-.796-1.962-.99-3.289-1.251-7.298-1.862-10.954-1.83-6.629.057-12.791 1.262-18.579 4.998-4.645 2.998-8.492 6.846-10.6 11.358-1.096 2.343-1.896 4.754-2.141 8.446" style="fill:#d5f6ff;fill-opacity:1;stroke:#000;stroke-width:.635822;stroke-linecap:square;stroke-miterlimit:4;stroke-dasharray:none;stroke-opacity:1"/><path d="M-118.385-708.78c1.159 1.154 2.094 2.099 2.651 3.089 1.003 1.81 1.556 4.108 1.37 6.18-.064.712-.304 1.398-.455 2.097-.351.645-.602 1.354-1.052 1.934-.488.628-1.098 1.161-1.729 1.645-2.397 1.838-5.259 2.658-8.264 2.68-1.128.008-2.247-.194-3.37-.291-2.762-.773-3.759-.834-6.203-2.366-1.828-1.146-2.916-2.247-4.048-4.053-.479-.763-.923-1.563-1.215-2.415-.272-.797-.308-1.656-.462-2.483.103-.794.075-1.616.307-2.382 1.07-3.537 4.607-5.638 7.936-6.623.95-.28 1.939-.403 2.908-.604.938-.056 1.875-.17 2.814-.168 1.267.003 3.442.275 4.706.512.57.106 2.323.524 2.977.81.15.066.253.206.379.308" style="fill:#dbf5ff;fill-opacity:1;stroke:#000;stroke-width:.635902;stroke-linecap:square;stroke-miterlimit:4;stroke-dasharray:none;stroke-opacity:1"/><path d="M118.184-662.544c-1.33-.827-3.41-1.555-5.146-2.082-4.016-.897-8.17-1.125-12.18-.066-4.674 1.105-9.43 3.84-12.116 8.811-1.272 2.3-1.697 5.153-1.58 7.867.156 2.75.9 5.397 2.157 7.691 2.584 5.466 7.292 9.1 12.265 10.53a20.598 20.598 0 0 0 8.535 1.17c4.848-.428 9.802-2.988 12.817-7.75 2.161-3.93 2.481-9.012 1.318-13.464-.798-3.43-2.455-6.507-4.723-8.764-.106-.123-.776-.684-.985-.84M66.852-658.547c2.283 1.151 4.374 2.957 5.367 5.348.58 1.398.73 3.038.09 4.462-1.222 2.712-3.837 4.506-6.576 5.453-3.989 1.38-8.566.684-11.934-1.812-1.502-1.114-2.879-2.67-3.635-4.41-1.148-2.638-1.2-5.96.619-8.296 1.24-1.594 3.1-2.672 5.124-2.905 2.646-.304 4.794-.038 7.236.908 1.228.476 2.984 1.62 3.533 2.887" style="fill:#dbf5ff;fill-opacity:1;stroke:#000;stroke-width:1.2;stroke-linecap:square;stroke-miterlimit:4;stroke-dasharray:none;stroke-opacity:1"/><path d="M-81.257-713.65c-.295-.511-.365-.727-.879-1.129-1.276-.997-2.962-1.366-4.498-1.73-1.638-.296-3.383-.286-4.888.526-1.058.571-1.241.898-2.046 1.748-.216.427-.492.829-.647 1.281-.77 2.235-.177 4.826 1.305 6.637.413.505.949.894 1.423 1.342.535.346 1.046.735 1.606 1.04a9.858 9.858 0 0 0 7.038.92c.583-.144 1.132-.4 1.699-.6.495-.28 1.02-.515 1.485-.842 1.141-.802 2.23-1.962 2.669-3.318.335-1.038.187-1.326.064-2.38-.147-.39-.25-.799-.44-1.17-.59-1.152-1.622-2.219-2.671-2.963-.38-.269-.804-.47-1.206-.705M-37.64-880.235c-3.045-3.595-7.033-6.447-10.368-8.026-9.313-4.328-19.596-4.507-29.237-1.986-6.573 1.718-12.305 6.018-14.707 9.883-.642 1.034-1.374 2.448-1.802 3.656-.322.911 2.977.49.511-.475-.605-.237-1.258-.52-1.769-.693-3.134-1.065-7.166-1.712-10.774-1.68-6.542.057-12.624 1.262-18.336 4.997-4.584 2.998-8.382 6.846-10.463 11.358-1.08 2.343-1.87 5.2-2.112 7.591" style="fill:#dbf5ff;fill-opacity:1;stroke:#000;stroke-width:.635902;stroke-linecap:square;stroke-miterlimit:4;stroke-dasharray:none;stroke-opacity:1"/><path d="M-134.839-856.291c-3.638.303-8.12 1.74-11.736 4.065-13.982 8.99-15.593 26.64-6.705 37.815 3.614 4.544 10.66 8.985 17.502 10.824 4.517 1.215 11.177 1.962 15.153 1.269 2.827-.493-.058-1.504.365-.153.39 1.25 2.027 3.226 3.056 4.348 4.298 4.693 10.272 7.957 15.153 9.548 9.138 2.978 20.123 3.749 28.614 1.969 5.353-1.122 11.488-4.28 14.565-7.041 1.763-1.582-2.167-1.457-.192.043 4.02 3.052 9.195 4.498 12.914 4.962 7.685.96 16.326.296 23.62-2.557 8.243-3.224 14.879-9.05 17.5-16.229.435-1.192.32-1.985.413-2.606.156-1.05-3.225.11-.26.11.91 0 1.896.055 2.751.024 6.621-.24 12.713-5.067 15.433-8.93 3.427-4.865 4.93-10.174 4.894-15.665-.05-7.651-3.178-13.234-7.216-17.134-2.315-2.235-6.55-3.866-9.116-4.102-1.804-.166.768 1.49 1.039.696.282-.83.6-2.242.253-4.427-.685-4.304-3.623-9.44-7.662-13.589-6.11-6.275-13.85-10.76-22.838-10.577-4.823.097-9.588 2.294-10.577 3.641M-492.547-231.345c.282-.83.432-2.221.253-4.427-.314-3.857-3.177-9.886-7.216-14.035-6.11-6.275-14.297-10.313-23.284-10.131-4.823.098-9.588 2.295-10.577 3.642-.675.78 2.415 1.89.277-.249-3.046-3.595-7.034-6.447-10.369-8.026-9.313-4.328-19.596-4.507-29.237-1.986-6.573 1.718-12.305 6.018-14.707 9.884-.642 1.033-1.443 2.425-1.802 3.655-.768 2.64 3.59.992.511-.474-.587-.28-1.258-.52-1.769-.693-3.134-1.065-7.166-1.713-10.774-1.681-6.542.057-12.624 1.262-18.336 4.997-4.584 2.998-8.382 6.847-10.463 11.359-1.08 2.343-2.133 5.884-2.296 8.458" style="fill:#dbf5ff;fill-opacity:1;stroke:#000;stroke-width:.635902;stroke-linecap:square;stroke-miterlimit:4;stroke-dasharray:none;stroke-opacity:1"/><path d="M-500.975-186.149c.91.026 1.893.11 2.75.102 6.624-.053 12.85-4.748 15.679-8.568 3.563-4.81 5.215-10.122 5.335-15.662.166-7.72-2.803-13.442-6.729-17.491-2.25-2.321-6.437-4.088-8.997-4.399M-557.883-169.279c4.067 3.17 9.301 4.673 13.063 5.155 7.775.996 16.515.307 23.894-2.656 8.338-3.349 15.051-9.4 17.702-16.857.44-1.238.324-2.062.418-2.707M-615.584-178.675c.425 1.4 1.785 3.12 2.754 4.243 4.048 4.692 9.673 7.956 14.27 9.547 8.605 2.979 18.95 3.75 26.946 1.97 5.04-1.123 10.818-4.28 13.716-7.042M-631.25-231.529c-3.202.514-6.849 1.84-9.87 3.819-13.49 8.84-15.046 26.202-6.47 37.193 3.488 4.469 10.286 8.836 16.89 10.646 4.358 1.194 10.788 1.947 14.621 1.247M-238.406-369.639c-3.131.24-7.017 1.653-9.91 3.434-12.926 7.955-14.85 24.241-7.076 34.806 3.161 4.296 9.44 8.584 15.601 10.462 3.673 1.119 9.62 1.913 13.409 1.647.407-.029.787-.093 1.142-.123 2.84-.242 2.365-1.742 1.602-2.336-.847-.66-2.67-.286-1.966 2.34.05.186.12.38.202.576.501 1.205 1.518 2.557 2.276 3.487 3.682 4.52 8.887 7.74 13.168 9.358 8.014 3.03 17.724 4.03 25.293 2.57 4.772-.922 10.29-3.738 13.089-6.257 1.843-1.68 1.203-3.118-.24-3.053-1.498.067-2.164 1.616-.217 3.332 3.64 3.207 9.078 5 12.603 5.554 7.287 1.144 15.526.73 22.545-1.861 7.932-2.928 14.408-8.44 17.1-15.383.447-1.152.64-1.921.737-2.526.364-2.292-1.688-3.092-2.537-2.116-.556.64-.376 1.631 2.079 2.082 1.734.319 3.024.463 4.487.427 6.39-.158 12.213-4.124 14.976-7.64 3.48-4.43 5.175-9.381 5.435-14.588.362-7.256-2.278-12.716-5.864-16.629-2.055-2.243-5.95-3.989-8.345-4.376-1.331-.215-2.97-.04-2.686 1.017.341 1.271 2.408 1.283 3.03-.234.314-.762.466-2.077.356-4.156-.192-3.636-2.725-9.383-6.413-13.391-5.58-6.065-13.173-10.08-21.632-10.149-4.539-.036-9.08 1.903-10.045 3.144-1.213 1.323-.986 3.078.337 3.109 1.288.03 1.618-1.648-.07-3.336-2.77-3.461-6.445-6.25-9.54-7.823-8.644-4.32-18.311-4.761-27.447-2.647-6.229 1.441-11.734 5.332-14.097 8.904-.632.955-1.422 2.243-1.792 3.39-.521 1.618.323 2.99 1.662 2.758 1.356-.235 1.113-1.95-1.168-3.19-.538-.293-1.17-.523-1.646-.7-2.92-1.085-6.695-1.801-10.09-1.867-6.154-.12-11.908.85-17.38 4.212-4.391 2.697-8.066 6.215-10.143 10.403-1.079 2.175-2.532 6.003-2.543 8.788M-358.967-956.77c-3.131.24-7.017 1.652-9.91 3.433-12.926 7.955-14.85 24.241-7.076 34.806 3.161 4.296 9.44 8.584 15.601 10.462 3.673 1.119 9.62 1.913 13.409 1.647.407-.029 1.116-.106 1.47-.137l-.517-.269c.55 1.42 1.807 3.292 2.537 4.122 2.917 3.314 7.61 6.459 11.885 8 8.245 2.974 18.31 3.93 26.878 2.396 5.336-.954 10.67-3.836 12.588-5.733l-.165.095c3.373 3.209 8.56 5.222 11.969 6.08 7.033 1.773 16.196 1.571 23.173-.855 9.216-3.204 15.167-7.527 17.424-14.054.593-1.715.417-3.576-.044-4.094l-.322.093c1.734 1.134 3.628 1.304 5.091 1.268 6.39-.158 12.21-4.357 14.923-7.912 3.059-4.009 5.07-9.32 5.33-14.527.362-7.256-2.526-13.122-6.415-16.733-2.528-2.348-5.477-4.2-8.24-4.587l.344.468c1.057-.577 2.17-1.937 2.409-4.005.439-3.794-1.939-9.21-6.405-13.895-5.852-6.138-14.676-10.614-24.065-10.614-4.539 0-8.819 1.718-9.673 3.962l.267-.419c.647-3.755-5.258-8.209-8.645-9.775-8.57-3.96-19.207-4.46-28.395-2.393-6.543 1.471-12.47 4.715-14.99 9.98-.534 1.115-1.16 3.339-.846 4.197l.494-.163c-1.828-2.487-7.005-4.138-11.92-4.208-6.157-.086-12.575 1.348-18.046 4.708-4.392 2.698-9.16 7.624-10.923 11.812-.941 2.237-1.795 5.95-.913 8.261M217.206-870.248c-2.79-3.195-6.463-5.745-9.542-7.166-8.6-3.899-18.144-4.15-27.119-2.017-6.118 1.454-11.482 5.19-13.752 8.575-.606.904-1.3 2.144-1.71 3.204-.308.8 2.76.46.48-.413-.56-.215-1.163-.47-1.635-.627-2.899-.967-6.634-1.575-9.983-1.58-6.074-.009-11.732.998-17.071 4.237-4.286 2.6-7.85 5.956-9.828 9.913-1.027 2.054-1.789 4.565-2.037 6.67M198.638-919.228c1.007-3.503-4.508-9.204-7.766-11.511-8.241-5.836-18.887-8.785-28.32-8.902-6.719-.083-12.984 1.7-16.016 6.239-.643.961-1.482 2.98-1.248 3.887l.511-.044c-2.382-2.604-7.52-4.671-12.406-6.205-6.035-1.894-13.152-2.107-18.971-.104-4.671 1.608-9.122 4.75-11.109 8.772-1.012 2.05-2.157 5.422-1.489 7.875M-139.484-937.282c-3.13.24-7.017 1.652-9.91 3.433-12.926 7.956-14.85 24.242-7.076 34.807 3.161 4.296 9.44 8.584 15.602 10.461 3.673 1.12 9.62 1.913 13.408 1.648.408-.029 1.116-.107 1.47-.137l-.517-.27c.55 1.421 1.807 3.293 2.537 4.123 2.917 3.314 7.61 6.458 11.885 8 8.245 2.973 18.31 3.929 26.878 2.396 5.336-.955 10.67-3.836 12.588-5.733l-.164.094c3.372 3.21 8.56 5.223 11.968 6.081 7.033 1.772 16.196 1.571 23.173-.855 9.217-3.204 15.167-7.527 17.424-14.054.594-1.715.418-3.577-.044-4.094l-.322.093c1.734 1.133 3.629 1.304 5.091 1.268 6.39-.159 12.21-4.357 14.923-7.912 3.06-4.009 5.07-9.32 5.33-14.527.362-7.256-2.526-13.122-6.414-16.733-2.529-2.349-5.478-4.2-8.24-4.587l.344.468c1.056-.577 2.169-1.937 2.408-4.005.439-3.794-1.939-9.211-6.405-13.895-5.852-6.138-14.676-10.614-24.064-10.614-4.54 0-8.82 1.717-9.674 3.962l.267 1.068c.648-3.755-5.573-7.789-8.96-9.354-8.57-3.96-21.306-4.863-30.498-2.815-6.338 1.413-15.714 6.714-13.417 14.177l.493-.162c-2.038-2.172-6.811-3.692-11.71-4.103-6.051-.507-12.995.19-19.833 4.288-4.422 2.649-8.845 7.413-10.397 11.916-.79 2.295-.744 6.16.139 8.472M-92.1-277.709c-3.131.24-7.017 1.653-9.91 3.434-12.926 7.955-14.851 24.241-7.077 34.806 3.162 4.296 9.44 8.584 15.602 10.462 3.673 1.119 9.62 1.913 13.409 1.647.407-.029.788-.086 1.142-.123 3.85-.408-1.379-3.783-.364 0 .05.187.12.38.201.577.502 1.205 1.52 2.557 2.276 3.487 3.683 4.52 8.887 7.74 13.169 9.358 8.014 3.03 17.724 4.03 25.293 2.57 4.772-.922 10.29-3.738 13.089-6.257 3.761-3.396-4.35-3.152-.457.278 3.64 3.208 9.078 5.002 12.603 5.555 7.287 1.144 15.526.729 22.545-1.861 7.932-2.928 14.408-8.44 17.1-15.383.447-1.152.637-1.922.737-2.526.672-4.064-3.651-.64-.458-.033 1.622.308 3.68.41 4.486.426 6.233.126 12.214-4.123 14.977-7.64 3.479-4.43 5.175-9.381 5.435-14.588.362-7.256-2.278-12.716-5.864-16.629-2.055-2.243-5.95-3.989-8.345-4.376-2.92-.472-1.042 3.185.344.784.413-.714.466-2.078.356-4.157-.192-3.636-2.725-9.382-6.414-13.391-5.58-6.064-13.172-10.08-21.631-10.148-4.539-.037-9.08 1.903-10.045 3.143-2.495 2.724 3.55 3.057.267-.227-2.77-3.461-6.445-6.25-9.54-7.823-8.644-4.319-18.311-4.76-27.447-2.647-6.228 1.442-11.734 5.333-14.097 8.904-.631.955-1.422 2.243-1.792 3.39-1.018 3.16 4.307 1.517.494-.433a15.946 15.946 0 0 0-1.646-.698c-2.92-1.085-6.695-1.802-10.09-1.868-6.154-.12-11.907.851-17.38 4.212-4.391 2.697-8.066 6.215-10.143 10.403-1.079 2.175-2.531 6.003-2.543 8.788" style="fill:#dbf5ff;fill-opacity:1;stroke:#000;stroke-width:.635902;stroke-linecap:square;stroke-miterlimit:4;stroke-dasharray:none;stroke-opacity:1"/><path d="M171.225-1079.368c-3.084.483-6.71 1.736-9.622 3.613-13.01 8.384-14.546 24.9-6.314 35.375 3.347 4.26 9.882 8.428 16.235 10.164 4.194 1.145 11.714 1.045 15.406.387l-.307-.338c.262 1.817 1.533 3.83 2.463 4.9 3.887 4.472 8.926 7.853 13.348 9.376 8.278 2.852 18.236 3.606 25.939 1.93 4.856-1.058 10.61-4.127 13.407-6.748.233-.224-1.55-.034-.602.551 3.908 3.025 9.374 4.635 12.995 5.102 7.483.964 15.899.326 23.01-2.478 8.035-3.169 14.512-8.913 17.082-16.003.426-1.176.773-2.026.713-2.923-.016-.237-1.56.275.243.504 1.349.171 3.001.23 3.825.225 6.379-.037 12.42-4.58 15.152-8.208 3.441-4.57 5.044-9.62 5.172-14.891.178-7.346-2.667-12.796-6.438-16.656-2.162-2.213-6.189-3.902-8.652-4.204-1.31-.2.355.812.436.493.274-.788.358-1.823.19-3.922-.292-3.67-3.035-9.413-6.915-13.368-5.868-5.983-13.74-9.842-22.394-9.688-4.643.083-9.236 2.164-10.191 3.443-.652.741 1.705 1.192.267-.236-2.924-3.426-6.757-6.148-9.964-7.657-8.957-4.138-18.856-4.33-28.145-1.95-6.332 1.621-11.86 5.7-14.182 9.373-.62.982-1.427 2.296-1.743 3.475-.434 1.622 2.358.432.493-.45a16.433 16.433 0 0 0-1.701-.664c-3.016-1.02-6.896-1.644-10.37-1.621-6.298.04-12.157 1.175-17.664 4.717-4.421 2.843-8.086 6.497-10.1 10.785-1.046 2.228-2.253 6.3-2.416 8.75" style="fill:#dbf5ff;fill-opacity:1;stroke:#000;stroke-width:.731196;stroke-linecap:square;stroke-miterlimit:4;stroke-dasharray:none;stroke-opacity:1"/></svg>