<svg xmlns="http://www.w3.org/2000/svg" xmlns:xlink="http://www.w3.org/1999/xlink" width="2250" height="760"><defs><pattern xlink:href="#a" id="h" x="0" y="0" patternTransform="rotate(-30 206.527 -770.768) scale(2)" preserveAspectRatio="xMidYMid"/><pattern xlink:href="#b" id="i" patternTransform="rotate(-30 1421.53 -5305.222) scale(2)" preserveAspectRatio="xMidYMid"/><pattern xlink:href="#c" id="j" patternTransform="rotate(-30 1402.534 -5234.329) scale(2)" preserveAspectRatio="xMidYMid"/><pattern xlink:href="#d" id="k" patternTransform="rotate(-30 1402.534 -5234.329) scale(2)" preserveAspectRatio="xMidYMid"/><pattern xlink:href="#e" id="l" patternTransform="rotate(-30 1402.534 -5234.329) scale(2)" preserveAspectRatio="xMidYMid"/><pattern xlink:href="#e" id="b" patternTransform="rotate(-30 18.996 -70.893) scale(2)" preserveAspectRatio="xMidYMid"/><pattern xlink:href="#f" id="e" x="0" y="0" patternTransform="rotate(-30) scale(2)" preserveAspectRatio="xMidYMid"/><pattern id="f" width="2" height="10" patternTransform="scale(2)" patternUnits="userSpaceOnUse" preserveAspectRatio="xMidYMid" style="fill:#000"><path d="M0-.5h1v11H0z" style="stroke:none"/></pattern><pattern xlink:href="#a" id="c" x="0" y="0" patternTransform="rotate(-30) scale(2)" preserveAspectRatio="xMidYMid"/><pattern xlink:href="#a" id="d" x="0" y="0" patternTransform="rotate(-30) scale(2)" preserveAspectRatio="xMidYMid"/><pattern id="a" width="2" height="10" patternTransform="scale(2)" patternUnits="userSpaceOnUse" preserveAspectRatio="xMidYMid" style="fill:#000"><path d="M0-.5h1v11H0z" style="stroke:none"/></pattern><pattern id="g" width="2" height="10" patternTransform="scale(2)" patternUnits="userSpaceOnUse" preserveAspectRatio="xMidYMid" style="fill:#000"><path d="M0-.5h1v11H0z" style="stroke:none"/></pattern></defs><g style="display:inline"><text xml:space="preserve" x="24.455" y="314.079" style="font-style:normal;font-variant:normal;font-weight:400;font-stretch:normal;font-size:20px;font-family:Didot;-inkscape-font-specification:Didot;fill:#000;stroke:none;stroke-width:2.5;stroke-dasharray:none;stroke-opacity:1"/></g><g style="display:inline"><path d="M582.505 703.47v-39.417l32.908.492 27.26-4.912 18.787-10.683 11.296-12.156 13.876-19.033 10.928-22.348 16.331-34.136 14.49-23.453 12.647-13.875 13.63-11.42 17.19-8.963 15.227-5.649 14.12-3.07 13.385-1.105 14.12-.368v208.157l-71.035 2.401-51.332.3-41.425-.3z" style="fill:url(#h);fill-opacity:1;stroke:#000;stroke-width:1;stroke-dasharray:none;stroke-opacity:1"/><path d="M3136.242 493.231h85.398v210.141h-85.398z" style="fill:url(#i);fill-opacity:1;stroke:#000;stroke-width:1;stroke-dasharray:none;stroke-opacity:1"/><path d="M3051.364 580.294h46.886v122.172h-46.886z" style="fill:url(#j);fill-opacity:1;stroke:#000;stroke-width:1;stroke-dasharray:none;stroke-opacity:1"/><path d="M2975.669 650.906h75.695v51.559h-75.695z" style="fill:url(#k);fill-opacity:1;stroke:#000;stroke-width:.999995;stroke-dasharray:none;stroke-opacity:1"/><path d="M3098.251 522.807h37.991v180.564h-37.991z" style="fill:url(#l);fill-opacity:1;stroke:#000;stroke-width:1;stroke-dasharray:none;stroke-opacity:1"/><path d="m2964.043 304.801 14.65 46.498 71.34-24.204 68.79-33.122 50.32-42.87 64.97-80.257-37.58-35.033-41.403 57.326-55.415 55.61-67.588 33.6z" style="display:inline;fill:#fca;fill-opacity:1;stroke:none;stroke-width:12.0669"/><path d="M2854.158 703.176c62.58.458 41.55.97 104.135.93 66.617-.04 132.163 1.179 198.755-.646 60.099-1.647 103.003-.815 133.262-1.604 5.672-.148 47.467-2.089 59.33-1.11" style="display:inline;fill:none;stroke:#1a1a1a;stroke-width:5.74613;stroke-opacity:1"/><path d="M3202.446 700.991c2.16.223 4.32.326 6.48.378 2.161.046 4.322.057 6.482.057h134.579M2854.158 701.427H2982.093c2.16-.002 4.32-.003 6.481-.058 2.16-.046 4.32-.155 6.481-.378" style="display:inline;fill:none;stroke:#ff4f4f;stroke-width:7;stroke-dasharray:none;stroke-opacity:.76808"/><path d="m2854.158 701.427 119.486.002M3223.856 701.429h125.957" style="display:inline;fill:#f8aaf8;fill-opacity:.894118;stroke:#f8aaf8;stroke-width:17.0004;stroke-dasharray:none;stroke-opacity:.894118"/><path d="M2975.303 673.346v56.146M3222.197 673.346v56.146" style="display:inline;fill:#f0f;stroke:#f8aaf8;stroke-width:5.10011;stroke-dasharray:none;stroke-opacity:.894118"/><path d="M2995.055 700.996c2.16-.223 4.32-.565 6.481-1.119 2.16-.553 4.32-1.316 6.48-2.41 2.161-1.093 4.322-2.518 6.482-4.42 2.16-1.904 4.32-4.287 6.48-7.315 2.161-3.029 4.321-6.704 6.482-11.188 2.16-4.483 4.32-9.778 6.48-16.009 2.161-6.231 4.321-13.401 6.482-21.564 2.16-8.163 4.32-17.32 6.48-27.414 2.161-10.094 4.321-21.126 6.482-32.9 2.16-11.775 4.32-24.292 6.48-37.208 2.16-12.916 4.321-26.229 6.482-39.469 2.16-13.24 4.32-26.402 6.48-38.936 2.16-12.535 4.321-24.437 6.482-35.147 2.16-10.71 4.32-20.224 6.48-28.059 2.16-7.834 4.321-13.986 6.481-18.127 2.16-4.142 4.321-6.27 6.481-6.27s4.321 2.128 6.481 6.27c2.16 4.141 4.321 10.293 6.481 18.127 2.16 7.835 4.32 17.349 6.481 28.06 2.16 10.71 4.32 22.611 6.481 35.146 2.16 12.534 4.32 25.697 6.481 38.936 2.16 13.24 4.32 26.553 6.481 39.469 2.16 12.916 4.32 25.433 6.481 37.207 2.16 11.775 4.32 22.807 6.481 32.901 2.16 10.094 4.32 19.251 6.481 27.414 2.16 8.163 4.32 15.333 6.481 21.564 2.16 6.231 4.32 11.526 6.481 16.01 2.16 4.483 4.32 8.158 6.481 11.187 2.16 3.028 4.32 5.411 6.481 7.314 2.16 1.903 4.32 3.328 6.48 4.421 2.161 1.094 4.322 1.857 6.482 2.41 2.16.554 4.32.896 6.48 1.12" style="display:inline;fill:none;stroke:#ff8080;stroke-width:5.10011;stroke-dasharray:none;stroke-opacity:.780549"/><path d="M2978.847 326.009c-6.871 2.64-13.858 4.112-21.064 5.81-11.16 2.629-22.557 6.441-33.736 9.37-10.372 2.719-27.143 7.211-40.23 10.937-9.379 2.67-20.044 5.358-29.659 7.903" style="display:inline;fill:none;stroke:#000;stroke-width:4.99265;stroke-dasharray:none;stroke-opacity:1"/><path d="M3321.447 32.008c-6.657 8.523-13.347 17.202-19.914 26.01-18.31 24.554-41.72 52.576-61.942 77.61-3.86 4.778-11.106 12.691-14.35 17.911M3223.59 151.822c-4.11 8.613-12.598 18.473-19.215 27.245-7.732 10.25-23.673 29.028-32.575 38.038-18.055 18.272-42.576 44.027-62.648 56.33-22.016 13.495-31.098 18.407-44.289 23.648-16.777 6.665-67.235 27.574-85.164 28.935" style="display:inline;fill:none;stroke:#000;stroke-width:5.10011;stroke-dasharray:none;stroke-opacity:1"/><path d="M2975.559 656.27v-35.633l-.568-.09v35.634zM2976.054 593.787c.096-3.052.298-7.59.205-11.421-.125-5.162-.584-11.85-.672-17.781-.023-1.47-.03-2.94-.04-4.41l-.568-.09c.01 1.47.018 2.94.04 4.41.088 5.932.641 12.528.672 17.786.023 3.834-.108 7.998-.206 11.427zM2975.559 536.509v-10.384c-.114-5.018.309-9.671.105-14.15-.081-1.773-.197-4.405-.052-6.176-.19-.028-.378-.058-.567-.087-.145 1.77.01 4.4.052 6.176.11 4.48-.22 9.134-.106 14.154v10.383zM2975.596 483.71c-.209-5.547-.145-11.087-.238-16.64-.094-5.596.16-11.325.046-16.777-.19-.029-.358-.074-.567-.094.046 5.255-.142 11.185-.046 16.782.093 5.553.029 11.093.238 16.638zM2975.61 430.608c.019-4.597-.26-9.764-.366-14.649-.034-4.827.07-10.197.175-14.467.023-.993-.076-1.902.07-2.938l-.565-.103c-.01 1.105-.046 1.95-.071 2.945-.106 4.564-.213 9.645-.176 14.475.106 4.887.319 10.215.365 14.658zM2975.55 379.3c-.365-4.69-.556-9.38-.571-14.082.06-5.336-.034-10.844 0-15.77.01-.653-.127-1.346-.12-2.325l-.57-.068c.029 1.035.119 1.783.119 2.33 0 5.34.058 10.438 0 15.774.018 4.705.206 9.394.57 14.085zM3221.756 441.384c-.12-2.718-.04-4.98-.108-7.476.153-5.293.012-10.585.15-15.879.062-2.756.116-5.512.142-8.268v-.25l-.567-.082v.25c-.029 2.756-.08 5.512-.142 8.268-.14 5.295 0 10.587-.15 15.881.064 2.498.08 4.849.106 7.485zM3221.806 660.738v-30.5l-.568-.09v30.501zM3222.169 333.461v-7.817c.108-3.734-.097-7.455-.34-11.18-.2-3.012-.316-6.03-.386-9.048-.01-.754-.034-1.508-.03-2.262l-.567-.09c-.01.754.018 1.51.03 2.264.07 3.019.184 6.037.385 9.05.243 3.724.448 7.443.34 11.177v7.816zM3221.969 170.277c.25-3.406.139-6.827.04-10.237a571.856 571.856 0 0 0-.46-10.505c-.146-1.495.013-2.996.308-4.463.066-.365.108-.732.123-1.103l-.571-.065a7.542 7.542 0 0 1-.122 1.094c-.298 1.471-.456 2.977-.309 4.477.178 3.5.345 7.002.46 10.505.096 3.407.208 6.825-.04 10.228zM3222.03 385.928c-.413-4.328-.515-8.677-.614-13.021a994.455 994.455 0 0 1-.139-14.285v-1.561l-.567-.092v1.563c.019 4.762.053 9.525.14 14.286.098 4.344.199 8.692.614 13.02zM3221.852 222.724v-16.259c-.081-4.226-.023-9.071-.06-12.643-.188-.034-.388-.064-.566-.096.04 3.753-.023 8.42.057 12.65v16.258zM3221.698 551.03v-10.383c-.113-5.019.309-9.672.105-14.15-.081-1.774-.197-4.406-.052-6.177l-.567-.087c-.146 1.77.01 4.401.052 6.176.11 4.48-.22 9.134-.106 14.154v10.383zM3221.88 279.545c-.208-5.546-.145-11.087-.238-16.64-.094-5.595.161-11.324.046-16.776-.189-.03-.357-.074-.567-.094.046 5.255-.142 11.185-.046 16.782.093 5.552.03 11.092.239 16.638zM3221.894 606.711c.018-4.596-.26-9.764-.366-14.648-.034-4.827.07-10.198.175-14.467.023-.993-.076-1.902.07-2.939l-.566-.102c-.012 1.105-.046 1.95-.07 2.945-.107 4.564-.213 9.644-.177 14.474.107 4.888.32 10.215.365 14.658zM3222.078 496.94a188.82 188.82 0 0 1-.572-14.082c.061-5.336-.035-10.844 0-15.77 0-.653-.127-1.346-.12-2.325l-.57-.068c.029 1.036.119 1.783.119 2.33 0 5.34.059 10.438 0 15.774.018 4.705.206 9.395.57 14.085zM2899.3 327.03c3.052.096 7.59.299 11.421.206 5.162-.125 11.85-.584 17.781-.672 1.47-.023 2.94-.029 4.41-.04l.09-.568c-1.47.007-2.94.017-4.41.04-5.932.088-12.528.641-17.786.672-3.834.022-7.998-.109-11.427-.206zM2956.578 326.535h10.383c5.019-.113 9.672.31 14.15.106 1.774-.081 4.406-.197 6.177-.052l.087-.567c-1.77-.145-4.401.007-6.177.052-4.48.11-9.133-.22-14.154-.106h-10.383zM3184.568 155.445h-7.816c-3.735-.108-7.456.097-11.18.34-3.013.2-6.03.316-9.049.386-.754.012-1.508.035-2.262.029l-.09.567c.754.005 1.51-.017 2.264-.028 3.02-.07 6.037-.185 9.05-.386 3.724-.243 7.443-.449 11.177-.34h7.816z" style="display:inline;fill:#000;fill-opacity:1;stroke:#000;stroke-width:5.17152;stroke-dasharray:none"/><path fill="none" d="M2968.765 155.71c-3.406-.252-6.827-.14-10.237-.041-3.503.114-7.005.28-10.505.459-1.495.147-2.997-.012-4.463-.307a7.912 7.912 0 0 0-1.103-.123l-.065.57c.367.013.732.058 1.094.123 1.471.297 2.977.456 4.477.309 3.5-.178 7.001-.346 10.504-.46 3.407-.096 6.825-.208 10.229.04zM3075.86 155.347c-4.328.414-8.676.516-13.02.615-4.762.085-9.524.122-14.286.139-.52 0-1.04.002-1.56 0l-.093.568c.522.002 1.043 0 1.564-.001 4.762-.018 9.524-.052 14.285-.139 4.345-.098 8.693-.199 13.02-.614z" style="display:inline;fill:#000;fill-opacity:0;stroke:#fdfdfd;stroke-width:5.172;stroke-dasharray:none;stroke-opacity:1"/><path d="M3236.786 155.565h-16.259c-4.226.08-9.072.023-12.643.059-.034.189-.064.389-.097.566 3.753-.04 8.421.023 12.65-.057h16.259z" style="display:inline;fill:#000;fill-opacity:1;stroke:#000;stroke-width:5.17152;stroke-dasharray:none"/><path fill="none" d="M3131.193 155.404c-4.69.366-9.378.557-14.081.572-5.336-.061-10.843.034-15.77-.001-.653-.005-1.346.126-2.324.12 0 .022-.068.57-.068.57 1.035-.029 1.782-.119 2.33-.119 5.34 0 10.437-.059 15.774.002 4.704-.018 9.394-.206 14.085-.571zM2991.609 156.375c4.69-.365 9.378-.557 14.081-.572 5.336.061 10.844-.034 15.77.001.653.005 1.346-.126 2.325-.12 0-.022.068-.57.068-.57-1.036.029-1.783.119-2.331.119-5.34 0-10.437.059-15.774-.002-4.704.018-9.394.206-14.085.571z" style="display:inline;fill:#000;fill-opacity:0;stroke:#fdfdfd;stroke-width:5.172;stroke-dasharray:none;stroke-opacity:1"/><path d="M2976.226 664.413c-7.61.71-15.04-.7-22.803 0-11.27 1.013-20.632-1.102-31.912-.522-14.578.749-30.9-.372-45.53.473-7.749.448-14.726.583-21.9.446M3098.75 579.045c-4.812 9.098-9.67 18.202-13.986 27.588-3.665 7.97-7.559 15.413-13.531 23.438-6.155 8.27-12.439 14.248-20.342 20.948-7.843 6.65-19.152 9.85-30.53 11.836-13.526 2.361-30.394 2.621-44.135 1.57M3218.536 493.28c-16.1-.138-35.329 2.086-50.666 9.005-11.069 4.993-21.686 9.856-30.498 18.445-8.604 8.386-16.185 17.448-22.195 26.668-6.678 10.245-11.696 21.85-16.427 31.647" style="display:inline;fill:none;stroke:#00f;stroke-width:5.74181;stroke-dasharray:none"/><path d="M3348.045 493.88c-9.899-.696-18.419-.242-30.769-.48-7.975-.153-15.959-1.22-23.675-.63-13.358 1.02-26.693.572-40.062.574-11.619.001-25.34 1.179-35.767-.268" style="display:inline;fill:none;stroke:#00f;stroke-width:5.7;stroke-dasharray:none"/><path d="m571.471 304.801 14.65 46.498 71.34-24.204 68.79-33.122 50.32-42.87 64.97-80.257-37.58-35.033-41.403 57.326-55.415 55.61-67.588 33.6z" style="display:inline;fill:#fca;fill-opacity:1;stroke:none;stroke-width:12.0669"/><path d="M461.586 703.176c62.581.458 41.55.97 104.135.93 66.617-.04 132.163 1.179 198.755-.646 60.1-1.647 103.003-.815 133.262-1.604 5.673-.148 47.468-2.089 59.33-1.11" style="display:inline;fill:none;stroke:#1a1a1a;stroke-width:5.74613;stroke-opacity:1"/><path d="M809.874 700.991c2.16.223 4.32.326 6.481.378 2.16.046 4.32.057 6.481.057h134.579M461.586 701.427H589.521c2.16-.002 4.321-.003 6.481-.058 2.16-.046 4.321-.155 6.481-.378" style="display:inline;fill:none;stroke:#ff4f4f;stroke-width:7;stroke-dasharray:none;stroke-opacity:.76808"/><path d="m461.586 701.427 119.487.002M831.285 701.429H957.24" style="display:inline;fill:#f8aaf8;fill-opacity:.894118;stroke:#f8aaf8;stroke-width:17.0004;stroke-dasharray:none;stroke-opacity:.894118"/><path d="M582.732 673.346v56.146M829.626 673.346v56.146" style="display:inline;fill:#f0f;stroke:#f8aaf8;stroke-width:5.10011;stroke-dasharray:none;stroke-opacity:.894118"/><path d="M602.483 700.996c2.16-.223 4.321-.565 6.481-1.119 2.16-.553 4.321-1.316 6.481-2.41 2.16-1.093 4.32-2.518 6.481-4.42 2.16-1.904 4.32-4.287 6.481-7.315 2.16-3.029 4.32-6.704 6.481-11.188 2.16-4.483 4.32-9.778 6.481-16.009 2.16-6.231 4.32-13.401 6.481-21.564 2.16-8.163 4.32-17.32 6.481-27.414 2.16-10.094 4.32-21.126 6.481-32.9 2.16-11.775 4.32-24.292 6.481-37.208 2.16-12.916 4.32-26.229 6.481-39.469 2.16-13.24 4.32-26.402 6.48-38.936 2.161-12.535 4.322-24.437 6.482-35.147 2.16-10.71 4.32-20.224 6.48-28.059 2.161-7.834 4.321-13.986 6.482-18.127 2.16-4.142 4.32-6.27 6.48-6.27 2.161 0 4.321 2.128 6.482 6.27 2.16 4.141 4.32 10.293 6.48 18.127 2.161 7.835 4.321 17.349 6.482 28.06 2.16 10.71 4.32 22.611 6.48 35.146 2.161 12.534 4.321 25.697 6.482 38.936 2.16 13.24 4.32 26.553 6.48 39.469s4.321 25.433 6.482 37.207c2.16 11.775 4.32 22.807 6.48 32.901 2.16 10.094 4.321 19.251 6.481 27.414s4.321 15.333 6.481 21.564 4.321 11.526 6.481 16.01c2.16 4.483 4.321 8.158 6.481 11.187 2.16 3.028 4.321 5.411 6.481 7.314 2.16 1.903 4.321 3.328 6.481 4.421 2.16 1.094 4.32 1.857 6.481 2.41 2.16.554 4.32.896 6.481 1.12" style="display:inline;fill:none;stroke:#ff8080;stroke-width:5.10011;stroke-dasharray:none;stroke-opacity:.780549"/><path d="M586.275 326.009c-6.87 2.64-13.857 4.112-21.063 5.81-11.16 2.629-22.557 6.441-33.736 9.37-10.373 2.719-27.144 7.211-40.23 10.937-9.38 2.67-20.045 5.358-29.66 7.903" style="display:inline;fill:none;stroke:#000;stroke-width:4.99265;stroke-dasharray:none;stroke-opacity:1"/><path d="M928.875 32.008c-6.657 8.523-13.346 17.202-19.914 26.01-18.31 24.554-41.72 52.576-61.942 77.61-3.86 4.778-11.106 12.691-14.349 17.911M831.018 151.822c-4.109 8.613-12.597 18.473-19.215 27.245-7.732 10.25-23.672 29.028-32.575 38.038-18.055 18.272-42.576 44.027-62.647 56.33-22.017 13.495-31.099 18.407-44.29 23.648-16.777 6.665-67.235 27.574-85.164 28.935" style="display:inline;fill:none;stroke:#000;stroke-width:5.10011;stroke-dasharray:none;stroke-opacity:1"/><path d="M582.987 656.27v-35.633l-.568-.09v35.634zM583.482 593.787c.096-3.052.298-7.59.205-11.421-.124-5.162-.584-11.85-.672-17.781-.023-1.47-.029-2.94-.04-4.41l-.568-.09c.01 1.47.018 2.94.04 4.41.088 5.932.641 12.528.672 17.786.023 3.834-.108 7.998-.206 11.427zM582.987 536.509v-10.384c-.113-5.018.309-9.671.105-14.15-.08-1.773-.196-4.405-.052-6.176l-.567-.087c-.145 1.77.01 4.4.052 6.176.11 4.48-.219 9.134-.105 14.154v10.383zM583.025 483.71c-.21-5.547-.146-11.087-.239-16.64-.094-5.596.16-11.325.046-16.777-.189-.029-.358-.074-.567-.094.046 5.255-.142 11.185-.046 16.782.093 5.553.029 11.093.238 16.638zM583.039 430.608c.018-4.597-.26-9.764-.367-14.649-.034-4.827.07-10.197.176-14.467.023-.993-.076-1.902.07-2.938l-.566-.103c-.01 1.105-.046 1.95-.07 2.945-.107 4.564-.213 9.645-.177 14.475.107 4.887.32 10.215.365 14.658zM582.98 379.3c-.366-4.69-.558-9.38-.573-14.082.06-5.336-.034-10.844.001-15.77.01-.653-.126-1.346-.12-2.325l-.57-.068c.03 1.035.12 1.783.12 2.33 0 5.34.057 10.438 0 15.774.017 4.705.205 9.394.57 14.085zM829.185 441.384c-.121-2.718-.04-4.98-.108-7.476.152-5.293.012-10.585.15-15.879.061-2.756.115-5.512.142-8.268v-.25l-.567-.082v.25c-.03 2.756-.08 5.512-.143 8.268-.14 5.295 0 10.587-.15 15.881.065 2.498.08 4.849.106 7.485zM829.234 660.738v-30.5l-.567-.09v30.501zM829.597 333.461v-7.817c.108-3.734-.097-7.455-.34-11.18-.2-3.012-.316-6.03-.386-9.048-.01-.754-.034-1.508-.029-2.262l-.568-.09c-.01.754.018 1.51.03 2.264.07 3.019.184 6.037.385 9.05.243 3.724.449 7.443.34 11.177v7.816zM829.397 170.277c.251-3.406.14-6.827.04-10.237a571.856 571.856 0 0 0-.459-10.505c-.147-1.495.012-2.996.307-4.463.067-.365.108-.732.123-1.103l-.57-.065a7.542 7.542 0 0 1-.123 1.094c-.297 1.471-.456 2.977-.309 4.477.178 3.5.346 7.002.46 10.505.096 3.407.208 6.825-.04 10.228zM829.46 385.928c-.415-4.328-.517-8.677-.615-13.021a994.455 994.455 0 0 1-.14-14.285v-1.561l-.566-.092v1.563c.018 4.762.052 9.525.14 14.286.097 4.344.198 8.692.614 13.02zM829.28 222.724v-16.259c-.081-4.226-.023-9.071-.06-12.643-.188-.034-.388-.064-.566-.096.04 3.753-.023 8.42.057 12.65v16.258zM829.126 551.03v-10.383c-.113-5.019.31-9.672.105-14.15-.08-1.774-.196-4.406-.052-6.177l-.567-.087c-.145 1.77.01 4.401.052 6.176.11 4.48-.22 9.134-.105 14.154v10.383zM829.31 279.545c-.21-5.546-.146-11.087-.24-16.64-.093-5.595.161-11.324.047-16.776-.19-.03-.358-.074-.567-.094.046 5.255-.142 11.185-.046 16.782.093 5.552.029 11.092.238 16.638zM829.322 606.711c.018-4.596-.26-9.764-.366-14.648-.034-4.827.07-10.198.175-14.467.023-.993-.076-1.902.07-2.939l-.565-.102c-.012 1.105-.046 1.95-.071 2.945-.107 4.564-.213 9.644-.177 14.474.107 4.888.32 10.215.365 14.658zM829.506 496.94a188.82 188.82 0 0 1-.572-14.082c.061-5.336-.035-10.844 0-15.77 0-.653-.126-1.346-.12-2.325l-.57-.068c.03 1.036.12 1.783.12 2.33 0 5.34.058 10.438 0 15.774.017 4.705.205 9.395.57 14.085zM506.728 327.03c3.052.096 7.59.299 11.421.206 5.162-.125 11.851-.584 17.782-.672 1.47-.023 2.94-.029 4.41-.04l.09-.568c-1.47.007-2.94.017-4.41.04-5.933.088-12.53.641-17.787.672-3.833.022-7.997-.109-11.427-.206zM564.006 326.535h10.384c5.018-.113 9.671.31 14.15.106 1.773-.081 4.405-.197 6.176-.052l.087-.567c-1.77-.145-4.401.007-6.176.052-4.48.11-9.134-.22-14.154-.106h-10.384zM791.997 155.445h-7.817c-3.735-.108-7.455.097-11.18.34-3.013.2-6.03.316-9.048.386-.754.012-1.509.035-2.263.029l-.09.567c.755.005 1.51-.017 2.264-.028 3.02-.07 6.038-.185 9.051-.386 3.723-.243 7.443-.449 11.176-.34h7.817z" style="display:inline;fill:#000;fill-opacity:1;stroke:#000;stroke-width:5.17152;stroke-dasharray:none"/><path d="M576.193 155.71c-3.406-.252-6.826-.14-10.236-.041-3.504.114-7.005.28-10.506.459-1.495.147-2.996-.012-4.463-.307a7.912 7.912 0 0 0-1.103-.123l-.065.57c.367.013.732.058 1.094.123 1.472.297 2.977.456 4.477.309 3.5-.178 7.002-.346 10.505-.46 3.407-.096 6.825-.208 10.228.04zM683.29 155.347c-4.33.414-8.678.516-13.023.615-4.76.085-9.522.122-14.284.139-.52 0-1.04.002-1.561 0l-.092.568c.521.002 1.042 0 1.563-.001 4.762-.018 9.524-.052 14.286-.139 4.344-.098 8.692-.199 13.02-.614z" style="display:inline;fill:#fdfdfd;fill-opacity:1;stroke:#fdfdfd;stroke-width:5.17152;stroke-dasharray:none;stroke-opacity:1"/><path d="M844.214 155.565h-16.259c-4.226.08-9.071.023-12.643.059-.034.189-.064.389-.097.566 3.754-.04 8.421.023 12.65-.057h16.259z" style="display:inline;fill:#000;fill-opacity:1;stroke:#000;stroke-width:5.17152;stroke-dasharray:none"/><path d="M738.622 155.404c-4.69.366-9.379.557-14.082.572-5.335-.061-10.843.034-15.77-.001-.652-.005-1.346.126-2.324.12 0 .022-.068.57-.068.57 1.035-.029 1.783-.119 2.33-.119 5.34 0 10.438-.059 15.774.002 4.705-.018 9.394-.206 14.085-.571zM599.037 156.375c4.69-.365 9.378-.557 14.082-.572 5.335.061 10.843-.034 15.77.001.652.005 1.346-.126 2.324-.12 0-.022.068-.57.068-.57-1.036.029-1.783.119-2.33.119-5.34 0-10.438.059-15.774-.002-4.705.018-9.394.206-14.085.571z" style="display:inline;fill:#fdfdfd;fill-opacity:1;stroke:#fdfdfd;stroke-width:5.17152;stroke-dasharray:none;stroke-opacity:1"/><path d="M583.654 664.413c-7.61.71-15.04-.7-22.803 0-11.27 1.013-20.631-1.102-31.911-.522-14.579.749-30.901-.372-45.53.473-7.75.448-14.727.583-21.9.446M706.281 576.995c-4.803 9.278-9.997 19.952-14.305 29.523-3.658 8.128-7.544 14.677-13.505 22.861-6.142 8.434-12.413 14.53-20.3 21.363-7.828 6.78-19.115 10.046-30.47 12.07-13.499 2.408-30.334 2.673-44.047 1.6M825.964 493.28c-16.108-.135-35.345 2.046-50.69 8.832-11.073 4.898-21.695 9.667-30.512 18.092-8.608 8.226-16.193 17.114-22.205 26.157-6.68 10.05-11.702 21.432-16.434 31.042" style="display:inline;fill:none;stroke:#00f;stroke-width:5.74181;stroke-dasharray:none"/><path d="M955.473 493.88c-9.899-.696-18.418-.242-30.768-.48-7.976-.153-15.96-1.22-23.676-.63-13.358 1.02-26.692.572-40.062.574-11.619.001-25.34 1.179-35.766-.268" style="display:inline;fill:none;stroke:#00f;stroke-width:5.7;stroke-dasharray:none"/><path d="m1439.53 304.801 14.65 46.498 71.34-24.204 68.79-33.122 50.32-42.87 64.97-80.257-37.58-35.033-41.403 57.326-55.415 55.61-67.588 33.6z" style="display:inline;fill:#fca;fill-opacity:1;stroke:none;stroke-width:12.0669"/><path d="M1329.645 703.176c62.58.458 41.55.97 104.135.93 66.617-.04 132.163 1.179 198.755-.646 60.099-1.647 103.003-.815 133.262-1.604 5.673-.148 47.468-2.089 59.33-1.11" style="display:inline;fill:none;stroke:#1a1a1a;stroke-width:5.74613;stroke-opacity:1"/><path d="M1677.933 700.991c2.16.223 4.32.326 6.48.378 2.161.046 4.322.057 6.482.057h134.579M1329.645 701.427H1457.58c2.16-.002 4.32-.003 6.481-.058 2.16-.046 4.32-.155 6.481-.378" style="display:inline;fill:none;stroke:#ff4f4f;stroke-width:7;stroke-dasharray:none;stroke-opacity:.76808"/><path d="m1329.645 701.427 119.486.002M1699.344 701.429H1825.3" style="display:inline;fill:#f8aaf8;fill-opacity:.894118;stroke:#f8aaf8;stroke-width:17.0004;stroke-dasharray:none;stroke-opacity:.894118"/><path d="M1450.79 673.346v56.146M1697.684 673.346v56.146" style="display:inline;fill:#f0f;stroke:#f8aaf8;stroke-width:5.10011;stroke-dasharray:none;stroke-opacity:.894118"/><path d="M1470.542 700.996c2.16-.223 4.32-.565 6.481-1.119 2.16-.553 4.32-1.316 6.481-2.41 2.16-1.093 4.32-2.518 6.481-4.42 2.16-1.904 4.32-4.287 6.48-7.315 2.161-3.029 4.322-6.704 6.482-11.188 2.16-4.483 4.32-9.778 6.48-16.009 2.161-6.231 4.322-13.401 6.482-21.564s4.32-17.32 6.48-27.414c2.161-10.094 4.321-21.126 6.482-32.9 2.16-11.775 4.32-24.292 6.48-37.208 2.161-12.916 4.321-26.229 6.482-39.469 2.16-13.24 4.32-26.402 6.48-38.936 2.16-12.535 4.321-24.437 6.482-35.147 2.16-10.71 4.32-20.224 6.48-28.059 2.16-7.834 4.321-13.986 6.481-18.127 2.16-4.142 4.321-6.27 6.481-6.27s4.321 2.128 6.481 6.27c2.16 4.141 4.321 10.293 6.481 18.127 2.16 7.835 4.321 17.349 6.481 28.06 2.16 10.71 4.321 22.611 6.481 35.146 2.16 12.534 4.321 25.697 6.481 38.936 2.16 13.24 4.321 26.553 6.481 39.469s4.32 25.433 6.481 37.207c2.16 11.775 4.32 22.807 6.481 32.901 2.16 10.094 4.32 19.251 6.481 27.414 2.16 8.163 4.32 15.333 6.481 21.564 2.16 6.231 4.32 11.526 6.481 16.01 2.16 4.483 4.32 8.158 6.481 11.187 2.16 3.028 4.32 5.411 6.481 7.314 2.16 1.903 4.32 3.328 6.481 4.421 2.16 1.094 4.32 1.857 6.481 2.41 2.16.554 4.32.896 6.48 1.12" style="display:inline;fill:none;stroke:#ff8080;stroke-width:5.10011;stroke-dasharray:none;stroke-opacity:.780549"/><path d="M1454.334 326.009c-6.871 2.64-13.858 4.112-21.064 5.81-11.16 2.629-22.557 6.441-33.735 9.37-10.373 2.719-27.144 7.211-40.23 10.937-9.38 2.67-20.045 5.358-29.66 7.903" style="display:inline;fill:none;stroke:#000;stroke-width:4.99265;stroke-dasharray:none;stroke-opacity:1"/><path d="M1796.934 32.008c-6.657 8.523-13.346 17.202-19.914 26.01-18.31 24.554-41.72 52.576-61.942 77.61-3.86 4.778-11.106 12.691-14.349 17.911M1699.077 151.822c-4.11 8.613-12.598 18.473-19.215 27.245-7.732 10.25-23.673 29.028-32.575 38.038-18.055 18.272-42.576 44.027-62.648 56.33-22.016 13.495-31.098 18.407-44.289 23.648-16.777 6.665-67.235 27.574-85.164 28.935" style="display:inline;fill:none;stroke:#000;stroke-width:5.10011;stroke-dasharray:none;stroke-opacity:1"/><path d="M1451.045 656.27v-35.633l-.567-.09v35.634zM1451.541 593.787c.096-3.052.298-7.59.205-11.421-.125-5.162-.584-11.85-.672-17.781-.023-1.47-.03-2.94-.04-4.41l-.568-.09c.01 1.47.018 2.94.04 4.41.088 5.932.641 12.528.672 17.786.023 3.834-.109 7.998-.206 11.427zM1451.045 536.509v-10.384c-.113-5.018.31-9.671.106-14.15-.081-1.773-.197-4.405-.052-6.176-.19-.028-.378-.058-.567-.087-.145 1.77.01 4.4.052 6.176.11 4.48-.22 9.134-.106 14.154v10.383zM1451.083 483.71c-.209-5.547-.145-11.087-.238-16.64-.094-5.596.16-11.325.046-16.777-.19-.029-.358-.074-.567-.094.046 5.255-.142 11.185-.046 16.782.093 5.553.029 11.093.238 16.638zM1451.098 430.608c.018-4.597-.26-9.764-.367-14.649-.034-4.827.07-10.197.175-14.467.023-.993-.076-1.902.07-2.938l-.565-.103c-.01 1.105-.046 1.95-.071 2.945-.106 4.564-.213 9.645-.176 14.475.106 4.887.319 10.215.365 14.658zM1451.038 379.3c-.366-4.69-.557-9.38-.572-14.082.06-5.336-.034-10.844 0-15.77.01-.653-.126-1.346-.12-2.325l-.57-.068c.029 1.035.119 1.783.119 2.33 0 5.34.058 10.438 0 15.774.018 4.705.206 9.394.57 14.085zM1697.244 441.384c-.122-2.718-.04-4.98-.108-7.476.152-5.293.012-10.585.149-15.879.062-2.756.116-5.512.142-8.268v-.25l-.567-.082v.25c-.029 2.756-.08 5.512-.142 8.268-.14 5.295 0 10.587-.15 15.881.065 2.498.08 4.849.106 7.485zM1697.293 660.738v-30.5l-.568-.09v30.501zM1697.656 333.461v-7.817c.108-3.734-.097-7.455-.34-11.18-.2-3.012-.316-6.03-.386-9.048-.01-.754-.034-1.508-.03-2.262l-.567-.09c-.01.754.018 1.51.03 2.264.07 3.019.184 6.037.385 9.05.243 3.724.449 7.443.34 11.177v7.816zM1697.456 170.277c.251-3.406.139-6.827.04-10.237a571.856 571.856 0 0 0-.46-10.505c-.146-1.495.013-2.996.308-4.463.067-.365.108-.732.123-1.103l-.57-.065a7.542 7.542 0 0 1-.123 1.094c-.297 1.471-.456 2.977-.309 4.477.178 3.5.345 7.002.46 10.505.096 3.407.208 6.825-.04 10.228zM1697.518 385.928c-.414-4.328-.516-8.677-.614-13.021a994.455 994.455 0 0 1-.14-14.285v-1.561l-.567-.092.001 1.563c.018 4.762.052 9.525.14 14.286.097 4.344.198 8.692.614 13.02zM1697.339 222.724v-16.259c-.081-4.226-.023-9.071-.06-12.643-.188-.034-.388-.064-.566-.096.04 3.753-.023 8.42.057 12.65v16.258zM1697.185 551.03v-10.383c-.113-5.019.309-9.672.105-14.15-.08-1.774-.196-4.406-.052-6.177l-.567-.087c-.145 1.77.01 4.401.052 6.176.11 4.48-.22 9.134-.106 14.154v10.383zM1697.368 279.545c-.209-5.546-.145-11.087-.239-16.64-.094-5.595.161-11.324.046-16.776-.188-.03-.357-.074-.567-.094.046 5.255-.142 11.185-.046 16.782.093 5.552.03 11.092.239 16.638zM1697.381 606.711c.018-4.596-.26-9.764-.366-14.648-.034-4.827.07-10.198.175-14.467.023-.993-.076-1.902.07-2.939l-.566-.102c-.012 1.105-.046 1.95-.07 2.945-.107 4.564-.213 9.644-.177 14.474.107 4.888.32 10.215.365 14.658zM1697.565 496.94a188.82 188.82 0 0 1-.572-14.082c.061-5.336-.035-10.844 0-15.77 0-.653-.126-1.346-.12-2.325l-.57-.068c.029 1.036.119 1.783.119 2.33 0 5.34.059 10.438 0 15.774.018 4.705.206 9.395.571 14.085z" style="display:inline;fill:#000;fill-opacity:1;stroke:#000;stroke-width:5.17152;stroke-dasharray:none"/><path d="M1374.786 327.03c3.053.096 7.591.299 11.422.206 5.162-.125 11.85-.584 17.781-.672 1.47-.023 2.94-.029 4.41-.04l.09-.568c-1.47.007-2.94.017-4.41.04-5.932.088-12.529.641-17.786.672-3.834.022-7.998-.109-11.428-.206z" style="display:inline;fill:#1a1a1a;fill-opacity:1;stroke:#1a1a1a;stroke-width:5.17152;stroke-dasharray:none"/><path d="M1432.065 326.535h10.383c5.019-.113 9.672.31 14.15.106 1.774-.081 4.406-.197 6.177-.052l.087-.567c-1.77-.145-4.402.007-6.177.052-4.48.11-9.134-.22-14.154-.106h-10.383zM1672.17 155.445h-7.816c-3.735-.108-7.455.097-11.18.34-3.012.2-6.03.316-9.048.386-.754.012-1.509.035-2.263.029l-.09.567c.755.005 1.51-.017 2.264-.028 3.02-.07 6.038-.185 9.051-.386 3.723-.243 7.443-.449 11.176-.34h7.817z" style="display:inline;fill:#000;fill-opacity:1;stroke:#000;stroke-width:5.17152;stroke-dasharray:none"/><path d="M1461.626 155.71c-3.406-.252-6.827-.14-10.237-.041-3.503.114-7.005.28-10.505.459-1.496.147-2.997-.012-4.463-.307a7.912 7.912 0 0 0-1.103-.123l-.065.57c.367.013.732.058 1.094.123 1.471.297 2.977.456 4.477.309 3.5-.178 7.001-.346 10.504-.46 3.407-.096 6.825-.208 10.229.04z" style="display:inline;fill:#1a1a1a;fill-opacity:1;stroke:#1a1a1a;stroke-width:5.17152;stroke-dasharray:none"/><path d="M1566.093 155.347c-4.329.414-8.677.516-13.022.615-4.76.085-9.523.122-14.284.139-.52 0-1.041.002-1.561 0l-.092.568c.52.002 1.042 0 1.563-.001 4.762-.018 9.524-.052 14.286-.139 4.344-.098 8.692-.199 13.02-.614zM1723.078 155.565h-16.258c-4.227.08-9.072.023-12.643.059-.034.189-.064.389-.097.566 3.753-.04 8.42.023 12.65-.057h16.258zM1620.117 155.404c-4.69.366-9.379.557-14.082.572-5.335-.061-10.843.034-15.77-.001-.652-.005-1.346.126-2.324.12 0 .022-.068.57-.068.57 1.035-.029 1.782-.119 2.33-.119 5.34 0 10.438-.059 15.774.002 4.704-.018 9.394-.206 14.085-.571zM1483.15 156.375c4.69-.365 9.378-.557 14.081-.572 5.336.061 10.844-.034 15.77.001.653.005 1.346-.126 2.325-.12 0-.022.068-.57.068-.57-1.036.029-1.783.119-2.33.119-5.34 0-10.438.059-15.775-.002-4.704.018-9.394.206-14.085.571z" style="display:inline;fill:#000;fill-opacity:1;stroke:#000;stroke-width:5.17152;stroke-dasharray:none"/><g style="fill:none;stroke:#1a1a1a;stroke-opacity:1"><path d="M149.846 253.752c3.605 0 9.012-5.812 9.012-7.75 0 1.938 5.408 7.75 9.013 7.75" class="axes-arrows" style="display:inline;fill:none;stroke:#1a1a1a;stroke-width:2.5;stroke-linecap:round;stroke-linejoin:round;stroke-dasharray:none;stroke-opacity:1" transform="matrix(5.12762 0 0 5.75422 489.957 -1256.28)"/><path d="M148.589 274.423h20.539" style="fill:none;stroke:#1a1a1a;stroke-width:2.5;stroke-dasharray:none;stroke-opacity:1" transform="matrix(5.12762 0 0 5.75422 489.957 -1256.28)"/><path d="M158.858 246.783v28.195" style="fill:none;stroke:#1a1a1a;stroke-width:1.5;stroke-dasharray:none;stroke-opacity:1" transform="matrix(5.12762 0 0 5.75422 489.957 -1256.28)"/></g><path d="M1451.713 664.413c-7.61.71-15.04-.7-22.803 0-11.27 1.013-20.632-1.102-31.912-.522-14.578.749-30.9-.372-45.53.473-7.749.448-14.726.583-21.9.446M1573.993 577.342c-4.803 9.278-9.65 18.563-13.958 28.134-3.659 8.128-7.544 15.72-13.505 23.903-6.143 8.434-12.414 14.53-20.301 21.363-7.828 6.78-19.114 10.046-30.468 12.07-13.5 2.408-30.335 2.673-44.048 1.6M1694.023 493.28c-16.108-.135-35.345 2.046-50.69 8.832-11.073 4.898-21.695 9.667-30.512 18.092-8.608 8.226-16.193 17.114-22.205 26.157-6.681 10.05-11.702 21.432-16.434 31.042" style="display:inline;fill:none;stroke:#00f;stroke-width:5.74181;stroke-dasharray:none"/><path d="M1823.532 493.88c-9.899-.696-18.419-.242-30.768-.48-7.976-.153-15.96-1.22-23.676-.63-13.358 1.02-26.693.572-40.062.574-11.619.001-25.34 1.179-35.767-.268" style="display:inline;fill:none;stroke:#00f;stroke-width:5.7;stroke-dasharray:none"/><path d="M1381.42 156.375c4.69-.365 9.378-.557 14.082-.572 5.335.061 10.843-.034 15.77.001.652.005 1.346-.126 2.324-.12 0-.022.068-.57.068-.57-1.036.029-1.783.119-2.33.119-5.34 0-10.438.059-15.775-.002-4.704.018-9.393.206-14.084.571z" style="display:inline;fill:#000;fill-opacity:1;stroke:#000;stroke-width:5.17152;stroke-dasharray:none"/><path d="M1359.896 155.71c-3.406-.252-6.827-.14-10.237-.041-3.503.114-7.005.28-10.505.459-1.495.147-2.996-.012-4.463-.307a7.912 7.912 0 0 0-1.103-.123l-.065.57c.367.013.732.058 1.094.123 1.471.297 2.977.456 4.477.309 3.5-.178 7.001-.346 10.504-.46 3.407-.096 6.825-.208 10.229.04z" style="display:inline;fill:#1a1a1a;fill-opacity:1;stroke:#1a1a1a;stroke-width:5.17152;stroke-dasharray:none"/><circle cx="683.7" cy="1536.36" r=".013" style="fill:#000;stroke:#000"/><path d="M1189.1 464.203v-11.795h-104.75v11.795zm0 35.741V488.15h-104.75v11.794z" aria-label="=" style="font-size:56px;font-family:STIXGeneral;-inkscape-font-specification:STIXGeneral;text-align:center;text-anchor:middle;stroke:#000;stroke-width:1"/></g></svg>