<svg xmlns="http://www.w3.org/2000/svg" xmlns:xlink="http://www.w3.org/1999/xlink" id="svg54" width="1000" height="298.407" preserveAspectRatio="none" version="1.1" viewBox="-10 -38.407 1000 298.407"><style id="style1" type="text/css">.grid{stroke:#9e9ed1;stroke-width:.4}.axes{stroke:#000;stroke-width:.9}.axes-arrows{stroke-width:1.1;stroke:#000;fill:none;stroke-linecap:round;stroke-linejoin:round}.axes-labels{stroke:none;fill:#000}.graph{stroke:red;stroke-width:1.7;fill:none}</style><defs id="defs1"><path id="MJMATHI-78" stroke-width="1" d="M52 289q7 42 54 97t116 56q35 0 64-18t43-45q42 63 101 63 37 0 64-22t28-59q0-29-14-47t-27-22q-13-4-23-4-19 0-31 11t-12 29q0 46 50 63-11 13-40 13-13 0-19-2-38-16-56-66-60-221-60-258 0-28 16-40t35-12q37 0 73 33t49 81q3 10 6 11t16 2h4q15 0 15-8 0-1-2-11-16-57-62-101T333-11q-70 0-106 63-41-62-94-62h-6q-49 0-70 26T35 71q0 32 19 52t45 20q43 0 43-42 0-20-12-35t-23-20q-11-5-13-5l-3-1q0-1 6-4t16-7q10-4 19-3 36 0 62 45 9 16 23 68t28 108q14 56 16 66 5 27 5 39 0 28-15 40t-34 12q-40 0-75-32t-49-82q-2-9-5-10t-16-2H58q-6 6-6 11z"/><path id="MJMATHI-79" stroke-width="1" d="M21 287q0 14 15 48t48 71q33 37 74 36 41 0 66-23t26-64q-2-19-3-21 0-3-16-46t-33-97q-17-54-16-86 0-43 14-60t42-18q23 0 43 11t31 23q11 12 27 33 0 1 5 20t14 59q9 40 19 74 38 150 42 157 13 27 43 27 13 0 21-7t11-12q3-5 2-9 0-13-49-210T391-23q-28-83-97-132t-138-50q-45 0-79 22t-34 66q0 22 7 37t19 22q12 7 20 10t17 3q44 0 44-42 0-20-12-35t-23-20q-11-5-13-5l-3-1q2-5 19-12t34-7h8q17 0 26 2 33 9 61 38t43 62q15 33 23 56t8 30l-6-4q-6-4-19-11T270-6q-20-5-39-5-46 0-81 22t-46 71q-1 7-1 31 0 57 35 149t35 117v14q0 3-4 7t-11 4h-4q-23 0-42-19t-30-41q-11-22-17-42t-8-22q-2-2-16-2H27q-6 6-6 9z"/><path id="MJMAIN-2212" stroke-width="1" d="M84 237v13q0 13 14 20h581q15-8 15-20t-15-20H98q-14 7-14 20z"/><path id="MJMAIN-31" stroke-width="1" d="m213 578-13-5q-14-5-40-10t-58-7H83v46h19q47 2 87 15t56 24q16 11 28 22 2 3 12 3 9 0 17-6V361l1-300q7-7 12-9t24-4q19-2 62-2h26V0h-11q-21 3-159 3-136 0-157-3H88v46h64q16 0 25 1t16 3q7 2 8 2t6 5q5 5 6 4z"/><path id="MJMAIN-30" stroke-width="1" d="M96 585q56 81 153 81 48 0 96-26t78-92q37-83 37-228 0-155-43-237-20-42-55-67t-61-31q-26-6-51-7-26 0-52 6t-61 32q-35 26-55 67-43 82-43 237 0 174 57 265zm225 12q-30 32-71 32-42 0-72-32-25-26-33-72t-8-192q0-158 8-208t36-79q28-30 69-30 40 0 68 30 29 30 36 84t8 203q0 145-8 191t-33 73z"/><path id="MJMAIN-38" stroke-width="1" d="M70 417v77q0 77 54 124t124 48q71 0 126-42t55-109q0-30-11-56t-26-42q-15-16-31-28t-26-18q-10-6-11-8l14-9 28-20q14-10 16-11 75-59 75-149 0-79-58-137T249-22q-90 0-148 51T43 155q0 108 129 180l-18 13q-21 13-27 20-57 49-57 126zm216-31 6 4 9 6q3 2 10 7t12 10q5 5 11 12t11 13q5 6 10 16t9 17q4 7 5 20t2 22q0 43-29 73t-67 38q-7 1-33 1-41 0-77-26t-37-65q0-23 13-42t26-29q13-10 50-32 7-5 11-7zM250 21q58 0 100 34t42 82q0 17-5 32t-12 25q-7 10-22 22t-23 18q-8 6-29 19t-27 17q-14 9-30 19t-26 17l-8 5q-6 0-29-17t-48-55q-25-38-26-82 0-59 43-97t100-39z"/><path id="MJMAIN-36" stroke-width="1" d="M42 313q0 163 81 258t180 95q69 0 99-36t30-80q0-25-14-40t-39-15q-23 0-38 14t-15 39q0 44 47 53-22 22-62 25-71 0-117-60-47-66-47-202l1-4q5 6 8 13 41 60 107 60h4q46 0 81-19 24-14 48-40t39-57q21-49 21-107v-18q0-23-5-43-11-59-64-115T253-22q-28 0-54 8t-56 30q-30 22-51 59t-36 97q-15 60-14 141zm215 84q-30 0-52-17t-34-45q-12-28-17-57t-6-62q0-83 12-119t38-58q24-18 53-18 51 0 78 38 13 18 18 45t5 105q0 80-5 107t-18 45q-27 36-72 36z"/><path id="MJMAIN-34" stroke-width="1" d="M462 0q-18 3-129 3-116 0-134-3h-9v46h58q7 0 17 2t14 5q4 3 7 8 1 2 1 54v50H28v46l151 231q153 232 155 233 2 2 21 2h18l6-6V211h92v-46h-92V66q0-7 6-12 8-7 57-8h29V0ZM293 211v334L74 212l109-1Z"/><path id="MJMAIN-32" stroke-width="1" d="M109 429q-27 0-43 18t-16 44q0 71 53 123t132 52q91 0 152-56t62-145q0-43-20-82t-48-68q-28-29-80-74-36-31-100-92l-59-56 76-1q157 0 167 5 7 2 24 89v3h40v-3q-1-3-13-91T421 3V0H50v31q0 7 6 15t30 35q29 32 50 56 9 10 34 37t34 37q9 10 29 33t28 34q8 11 23 30t21 32q6 13 15 29t13 32q4 16 7 30t3 33q0 63-34 109t-97 46q-33 0-58-17t-35-33q-10-16-10-19 0-1 5-1 18 0 37-14t19-46q0-25-16-42t-45-18z"/><clipPath id="trbl_clip_0_945_250_0"><path id="path1" d="M0 0h945v250H0Z"/></clipPath><clipPath id="clipPath42" clipPathUnits="userSpaceOnUse"/></defs><g id="grid"><path id="path2" d="M39.395 250v-99.748m0-22.853V0" class="grid"/><path id="path3" d="M84.395 250V0" class="grid"/><path id="path4" d="M129.395 250v-99.745m0-22.856V0" class="grid"/><path id="path5" d="M174.395 250V0" class="grid"/><path id="path6" d="M219.395 250v-99.745m0-22.856V0" class="grid"/><path id="path7" d="M264.395 250V0" class="grid"/><path id="path8" d="M309.395 250v-99.745m0-22.856V0" class="grid"/><path id="path9" d="M354.395 250V0" class="grid"/><path id="path10" d="M399.395 250v-99.745m0-22.856V0" class="grid"/><path id="path11" d="M444.395 250V0" class="grid"/><path id="path12" d="M489.395 250V0" class="grid"/><path id="path13" d="M534.395 250V0" class="grid"/><path id="path14" d="M579.395 250V149.27m0-21.87V0" class="grid"/><path id="path15" d="M624.395 250V0" class="grid"/><path id="path16" d="M669.395 250V149.27m0-21.87V0" class="grid"/><path id="path17" d="M714.395 250V0" class="grid"/><path id="path18" d="M759.395 250V149.27m0-21.87V0" class="grid"/><path id="path19" d="M804.395 250V0" class="grid"/><path id="path20" d="M849.395 250V149.27m0-21.87V0" class="grid"/><path id="path21" d="M894.395 250V0" class="grid"/><path id="path22" d="M939.395 250V149.28m0-21.88V0" class="grid"/><path id="path23" d="M16.895 225h440.73m29.37 0h474.9" class="grid"/><path id="path24" d="M16.895 175h945" class="grid"/><path id="path25" d="M16.895 125h945" class="grid"/><path id="path26" d="M16.895 75h945" class="grid"/><path id="path27" d="M16.895 25h454.822m15.278 0h474.9" class="grid"/></g><g id="axes"><path id="path28" d="M16.895 125h952.732" class="axes"/><path id="path29" d="M489.395 250V-3.999" class="axes"/></g><g id="axes arrows"><path id="path30" d="M966.628 121.001c0 1.6 2.25 3.999 2.999 3.999-.75 0-3 2.4-3 3.999" class="axes-arrows"/><path id="path31" d="M485.396-1c1.6 0 3.999-2.25 3.999-2.999 0 .75 2.4 3 3.999 3" class="axes-arrows"/></g><g id="axes labels"><g id="g31" class="axes-labels" transform="matrix(.01904 0 0 -.01904 977.625 129.51)"><use xlink:href="#MJMATHI-78" id="use31" x="0" y="0"/></g><g id="g32" class="axes-labels" transform="matrix(.01903 0 0 -.01903 484.66 -19.994)"><use xlink:href="#MJMATHI-79" id="use32" x="0" y="0" transform="translate(0 -110.961)"/></g></g><g id="notch labels" style="stroke:none;fill:#b8b8de"><g id="g36" transform="matrix(.01809 0 0 -.01809 23.3 144.176)"><use xlink:href="#MJMAIN-2212" id="use33" x="0" y="0"/><g id="g35" transform="translate(778)"><use xlink:href="#MJMAIN-31" id="use34"/><use xlink:href="#MJMAIN-30" id="use35" x="500" y="0"/></g></g><g id="g37" transform="matrix(.0181 0 0 -.0181 117.826 144.179)"><use xlink:href="#MJMAIN-2212" id="use36" x="0" y="0"/><use xlink:href="#MJMAIN-38" id="use37" x="778" y="0"/></g><g id="g39" transform="matrix(.0181 0 0 -.0181 207.826 144.179)"><use xlink:href="#MJMAIN-2212" id="use38" x="0" y="0"/><use xlink:href="#MJMAIN-36" id="use39" x="778" y="0"/></g><g id="g41" transform="matrix(.0181 0 0 -.0181 297.826 144.179)"><use xlink:href="#MJMAIN-2212" id="use40" x="0" y="0"/><use xlink:href="#MJMAIN-34" id="use41" x="778" y="0"/></g><g id="g43" transform="matrix(.0181 0 0 -.0181 387.826 144.179)"><use xlink:href="#MJMAIN-2212" id="use42" x="0" y="0"/><use xlink:href="#MJMAIN-32" id="use43" x="778" y="0"/></g><g id="g44" transform="matrix(.01808 0 0 -.01808 472.073 144.17)"><use xlink:href="#MJMAIN-30" id="use44" x="0" y="0"/></g><g id="g45" transform="matrix(.01808 0 0 -.01808 574.87 144.17)"><use xlink:href="#MJMAIN-32" id="use45" x="0" y="0"/></g><g id="g46" transform="matrix(.01808 0 0 -.01808 664.87 144.17)"><use xlink:href="#MJMAIN-34" id="use46" x="0" y="0"/></g><g id="g47" transform="matrix(.01808 0 0 -.01808 754.87 144.17)"><use xlink:href="#MJMAIN-36" id="use47" x="0" y="0"/></g><g id="g48" transform="matrix(.01808 0 0 -.01808 844.87 144.17)"><use xlink:href="#MJMAIN-38" id="use48" x="0" y="0"/></g><g id="g50" transform="matrix(.01809 0 0 -.01809 930.341 144.178)"><use xlink:href="#MJMAIN-31" id="use49"/><use xlink:href="#MJMAIN-30" id="use50" x="500" y="0"/></g><g id="g52" transform="matrix(.0181 0 0 -.0181 460.741 231.113)"><use xlink:href="#MJMAIN-2212" id="use51" x="0" y="0"/><use xlink:href="#MJMAIN-32" id="use52" x="778" y="0"/></g><g id="g53" transform="matrix(.01808 0 0 -.01808 474.831 31.11)"><use xlink:href="#MJMAIN-32" id="use53" x="0" y="0"/></g></g><g id="graphs"><path id="path46" d="M864.155 125.126c.63.065 1.26.165 1.89.327.63.16 1.26.383 1.89.702.63.32 1.26.735 1.89 1.29.63.555 1.26 1.25 1.89 2.133.63.883 1.26 1.955 1.89 3.263.63 1.307 1.26 2.851 1.89 4.668.63 1.818 1.26 3.909 1.89 6.29.63 2.38 1.26 5.05 1.89 7.994.63 2.944 1.26 6.161 1.89 9.595.63 3.434 1.26 7.085 1.89 10.851.63 3.767 1.26 7.65 1.89 11.51.63 3.862 1.26 7.7 1.89 11.356.63 3.656 1.26 7.127 1.89 10.25.63 3.124 1.26 5.898 1.89 8.183.63 2.285 1.26 4.079 1.89 5.287.63 1.207 1.26 1.828 1.89 1.828.63 0 1.26-.62 1.89-1.828.63-1.208 1.26-3.002 1.89-5.287.63-2.285 1.26-5.06 1.89-8.183.63-3.123 1.26-6.594 1.89-10.25.63-3.655 1.26-7.494 1.89-11.355.63-3.861 1.26-7.744 1.89-11.51.63-3.767 1.26-7.418 1.89-10.852.63-3.434 1.26-6.651 1.89-9.595.63-2.944 1.26-5.614 1.89-7.995.63-2.38 1.26-4.471 1.89-6.289.63-1.817 1.26-3.36 1.89-4.668.63-1.308 1.26-2.38 1.89-3.263.63-.883 1.26-1.578 1.89-2.133.63-.555 1.26-.97 1.89-1.29a9.197 9.197 0 0 1 1.89-.702c.63-.162 1.26-.262 1.89-.327" style="fill:none;stroke:red;stroke-width:1.7;stroke-dasharray:none"/><path id="path44" d="M729.155 124.874c.63-.065 1.26-.165 1.89-.327a9.197 9.197 0 0 0 1.89-.702 8.965 8.965 0 0 0 1.89-1.29c.63-.555 1.26-1.25 1.89-2.133.63-.883 1.26-1.955 1.89-3.262.63-1.308 1.26-2.852 1.89-4.67.63-1.817 1.26-3.908 1.89-6.288.63-2.38 1.26-5.051 1.89-7.995.63-2.944 1.26-6.161 1.89-9.595.63-3.434 1.26-7.085 1.89-10.851.63-3.767 1.26-7.65 1.89-11.51.63-3.862 1.26-7.7 1.89-11.356.63-3.656 1.26-7.127 1.89-10.25.63-3.124 1.26-5.898 1.89-8.183.63-2.285 1.26-4.079 1.89-5.287.63-1.207 1.26-1.828 1.89-1.828.63 0 1.26.62 1.89 1.828.63 1.208 1.26 3.002 1.89 5.287.63 2.285 1.26 5.06 1.89 8.183.63 3.123 1.26 6.594 1.89 10.25.63 3.655 1.26 7.494 1.89 11.355.63 3.861 1.26 7.744 1.89 11.51.63 3.767 1.26 7.418 1.89 10.852.63 3.434 1.26 6.651 1.89 9.595.63 2.944 1.26 5.614 1.89 7.995.63 2.38 1.26 4.471 1.89 6.289.63 1.817 1.26 3.36 1.89 4.669.63 1.307 1.26 2.379 1.89 3.262.63.883 1.26 1.578 1.89 2.133.63.555 1.26.97 1.89 1.29.63.319 1.26.541 1.89.702.63.162 1.26.262 1.89.327" style="fill:none;stroke:red;stroke-width:1.7;stroke-dasharray:none"/><path id="path41" d="M594.155 125.126c.63.065 1.26.165 1.89.327.63.16 1.26.383 1.89.702.63.32 1.26.735 1.89 1.29.63.555 1.26 1.25 1.89 2.133.63.883 1.26 1.955 1.89 3.263.63 1.307 1.26 2.851 1.89 4.668.63 1.818 1.26 3.909 1.89 6.29.63 2.38 1.26 5.05 1.89 7.994.63 2.944 1.26 6.161 1.89 9.595.63 3.434 1.26 7.085 1.89 10.851.63 3.767 1.26 7.65 1.89 11.51.63 3.862 1.26 7.7 1.89 11.356.63 3.656 1.26 7.127 1.89 10.25.63 3.124 1.26 5.898 1.89 8.183.63 2.285 1.26 4.079 1.89 5.287.63 1.207 1.26 1.828 1.89 1.828.63 0 1.26-.62 1.89-1.828.63-1.208 1.26-3.002 1.89-5.287.63-2.285 1.26-5.06 1.89-8.183.63-3.123 1.26-6.594 1.89-10.25.63-3.655 1.26-7.494 1.89-11.355.63-3.861 1.26-7.744 1.89-11.51.63-3.767 1.26-7.418 1.89-10.852.63-3.434 1.26-6.651 1.89-9.595.63-2.944 1.26-5.614 1.89-7.995.63-2.38 1.26-4.471 1.89-6.289.63-1.817 1.26-3.36 1.89-4.668.63-1.308 1.26-2.38 1.89-3.263.63-.883 1.26-1.578 1.89-2.133.63-.555 1.26-.97 1.89-1.29a9.197 9.197 0 0 1 1.89-.702c.63-.162 1.26-.262 1.89-.327" style="fill:none;stroke:red;stroke-width:1.7;stroke-dasharray:none"/><path id="path35" d="M459.155 124.874c.63-.065 1.26-.165 1.89-.327a9.197 9.197 0 0 0 1.89-.702 8.965 8.965 0 0 0 1.89-1.29c.63-.555 1.26-1.25 1.89-2.133.63-.883 1.26-1.955 1.89-3.262.63-1.308 1.26-2.852 1.89-4.67.63-1.817 1.26-3.908 1.89-6.288.63-2.38 1.26-5.051 1.89-7.995.63-2.944 1.26-6.161 1.89-9.595.63-3.434 1.26-7.084 1.89-10.851.63-3.767 1.26-7.65 1.89-11.51.63-3.862 1.26-7.7 1.89-11.356.63-3.656 1.26-7.127 1.89-10.25.63-3.124 1.26-5.898 1.89-8.183.63-2.285 1.26-4.079 1.89-5.287.63-1.207 1.26-1.828 1.89-1.828.63 0 1.26.62 1.89 1.828.63 1.208 1.26 3.002 1.89 5.287.63 2.285 1.26 5.06 1.89 8.183.63 3.123 1.26 6.594 1.89 10.25.63 3.655 1.26 7.494 1.89 11.355.63 3.861 1.26 7.744 1.89 11.51.63 3.768 1.26 7.418 1.89 10.852.63 3.434 1.26 6.651 1.89 9.595.63 2.944 1.26 5.614 1.89 7.995.63 2.38 1.26 4.471 1.89 6.289.63 1.817 1.26 3.36 1.89 4.669.63 1.307 1.26 2.379 1.89 3.262.63.883 1.26 1.578 1.89 2.133.63.555 1.26.97 1.89 1.29.63.319 1.26.541 1.89.702.63.162 1.26.262 1.89.327" style="fill:none;stroke:red;stroke-width:1.7;stroke-dasharray:none"/><path id="path40" d="M324.155 125.126c.63.065 1.26.165 1.89.327.63.16 1.26.383 1.89.702.63.32 1.26.735 1.89 1.29.63.555 1.26 1.25 1.89 2.133.63.883 1.26 1.955 1.89 3.262.63 1.308 1.26 2.852 1.89 4.67.63 1.817 1.26 3.908 1.89 6.288.63 2.38 1.26 5.051 1.89 7.995.63 2.944 1.26 6.161 1.89 9.595.63 3.434 1.26 7.084 1.89 10.851.63 3.767 1.26 7.65 1.89 11.51.63 3.862 1.26 7.7 1.89 11.356.63 3.656 1.26 7.127 1.89 10.25.63 3.124 1.26 5.898 1.89 8.183.63 2.285 1.26 4.079 1.89 5.287.63 1.207 1.26 1.828 1.89 1.828.63 0 1.26-.62 1.89-1.828.63-1.208 1.26-3.002 1.89-5.287.63-2.285 1.26-5.06 1.89-8.183.63-3.123 1.26-6.594 1.89-10.25.63-3.655 1.26-7.494 1.89-11.355.63-3.861 1.26-7.744 1.89-11.51.63-3.768 1.26-7.418 1.89-10.852.63-3.434 1.26-6.651 1.89-9.595.63-2.944 1.26-5.614 1.89-7.995.63-2.38 1.26-4.471 1.89-6.289.63-1.817 1.26-3.36 1.89-4.669.63-1.307 1.26-2.379 1.89-3.262.63-.883 1.26-1.578 1.89-2.133.63-.555 1.26-.97 1.89-1.29a9.197 9.197 0 0 1 1.89-.702c.63-.162 1.26-.262 1.89-.327" style="fill:none;stroke:red;stroke-width:1.7;stroke-dasharray:none"/><path id="path36" d="M189.155 124.874c.63-.065 1.26-.165 1.89-.327a9.197 9.197 0 0 0 1.89-.702 8.965 8.965 0 0 0 1.89-1.29c.63-.555 1.26-1.25 1.89-2.133.63-.883 1.26-1.955 1.89-3.262.63-1.308 1.26-2.852 1.89-4.67.63-1.817 1.26-3.908 1.89-6.288.63-2.38 1.26-5.051 1.89-7.995.63-2.944 1.26-6.161 1.89-9.595.63-3.434 1.26-7.084 1.89-10.851.63-3.767 1.26-7.65 1.89-11.51.63-3.862 1.26-7.7 1.89-11.356.63-3.656 1.26-7.127 1.89-10.25.63-3.124 1.26-5.898 1.89-8.183.63-2.285 1.26-4.079 1.89-5.287.63-1.207 1.26-1.828 1.89-1.828.63 0 1.26.62 1.89 1.828.63 1.208 1.26 3.002 1.89 5.287.63 2.285 1.26 5.06 1.89 8.183.63 3.123 1.26 6.594 1.89 10.25.63 3.655 1.26 7.494 1.89 11.355.63 3.861 1.26 7.744 1.89 11.51.63 3.768 1.26 7.418 1.89 10.852.63 3.434 1.26 6.651 1.89 9.595.63 2.944 1.26 5.614 1.89 7.995.63 2.38 1.26 4.471 1.89 6.289.63 1.817 1.26 3.36 1.89 4.669.63 1.307 1.26 2.379 1.89 3.262.63.883 1.26 1.578 1.89 2.133.63.555 1.26.97 1.89 1.29.63.319 1.26.541 1.89.702.63.162 1.26.262 1.89.327" style="fill:none;stroke:red;stroke-width:1.7;stroke-dasharray:none"/><path id="path48" d="M54.155 125.126c.63.065 1.26.165 1.89.327.63.16 1.26.383 1.89.702.63.32 1.26.735 1.89 1.29.63.555 1.26 1.25 1.89 2.133.63.883 1.26 1.955 1.89 3.262.63 1.308 1.26 2.852 1.89 4.67.63 1.817 1.26 3.908 1.89 6.288.63 2.38 1.26 5.051 1.89 7.995.63 2.944 1.26 6.161 1.89 9.595.63 3.434 1.26 7.084 1.89 10.851.63 3.767 1.26 7.65 1.89 11.51.63 3.862 1.26 7.7 1.89 11.356.63 3.656 1.26 7.127 1.89 10.25.63 3.124 1.26 5.898 1.89 8.183.63 2.285 1.26 4.079 1.89 5.287.63 1.207 1.26 1.828 1.89 1.828.63 0 1.26-.62 1.89-1.828.63-1.208 1.26-3.002 1.89-5.287.63-2.285 1.26-5.06 1.89-8.183.63-3.123 1.26-6.594 1.89-10.25.63-3.655 1.26-7.494 1.89-11.355.63-3.861 1.26-7.744 1.89-11.51.63-3.768 1.26-7.418 1.89-10.852.63-3.434 1.26-6.651 1.89-9.595.63-2.944 1.26-5.614 1.89-7.995.63-2.38 1.26-4.471 1.89-6.289.63-1.817 1.26-3.36 1.89-4.669.63-1.307 1.26-2.379 1.89-3.262.63-.883 1.26-1.578 1.89-2.133.63-.555 1.26-.97 1.89-1.29a9.197 9.197 0 0 1 1.89-.702c.63-.162 1.26-.262 1.89-.327" style="fill:none;stroke:red;stroke-width:1.7;stroke-dasharray:none"/><path id="path51" d="M16.895 125h33.48c.63 0 1.26 0 1.89.016.63.015 1.26.045 1.89.11m60.48 0c.63-.065 1.26-.095 1.89-.11.63-.015 1.26-.016 1.89-.016h66.96c.63 0 1.26 0 1.89-.016.63-.015 1.26-.045 1.89-.11m60.48 0c.63.065 1.26.095 1.89.11.63.015 1.26.016 1.89.016h66.96c.63 0 1.26 0 1.89.016.63.015 1.26.045 1.89.11m60.48 0c.63-.065 1.26-.095 1.89-.11.63-.015 1.26-.016 1.89-.016h66.96c.63 0 1.26 0 1.89-.016.63-.015 1.26-.045 1.89-.11m60.48 0c.63.065 1.26.095 1.89.11.63.015 1.26.016 1.89.016h66.96c.63 0 1.26 0 1.89.016.63.015 1.26.045 1.89.11m60.48 0c.63-.065 1.26-.095 1.89-.11.63-.015 1.26-.016 1.89-.016h66.96c.63 0 1.26 0 1.89-.016.63-.015 1.26-.045 1.89-.11m60.48 0c.63.065 1.26.095 1.89.11.63.015 1.26.016 1.89.016h66.96c.63 0 1.26 0 1.89.016.63.015 1.26.045 1.89.11m60.48 0c.63-.065 1.26-.095 1.89-.11.63-.015 1.26-.016 1.89-.016h33.48" style="fill:none;stroke:red;stroke-width:1.75;stroke-dasharray:none"/><path id="path53" d="M589.159 289.348h3.78c.63 0 1.26 0 1.89.016.63.015 1.26.045 1.89.11.63.065 1.26.165 1.89.326.63.161 1.26.384 1.89.703.63.319 1.26.734 1.89 1.29.63.554 1.26 1.25 1.89 2.132.63.884 1.26 1.955 1.89 3.263.63 1.308 1.26 2.852 1.89 4.669.63 1.817 1.26 3.908 1.89 6.289.63 2.38 1.26 5.051 1.89 7.995.63 2.944 1.26 6.161 1.89 9.595.63 3.434 1.26 7.084 1.89 10.85.63 3.768 1.26 7.65 1.89 11.511.63 3.861 1.26 7.7 1.89 11.356.63 3.655 1.26 7.126 1.89 10.25.63 3.123 1.26 5.898 1.89 8.183.63 2.284 1.26 4.079 1.89 5.286.63 1.208 1.26 1.829 1.89 1.829.63 0 1.26-.621 1.89-1.829.63-1.207 1.26-3.002 1.89-5.286.63-2.285 1.26-5.06 1.89-8.183.63-3.124 1.26-6.595 1.89-10.25.63-3.656 1.26-7.495 1.89-11.356.63-3.86 1.26-7.743 1.89-11.51.63-3.767 1.26-7.417 1.89-10.851.63-3.434 1.26-6.651 1.89-9.595.63-2.944 1.26-5.615 1.89-7.995.63-2.38 1.26-4.472 1.89-6.289.63-1.817 1.26-3.361 1.89-4.669.63-1.308 1.26-2.38 1.89-3.263.63-.883 1.26-1.578 1.89-2.133.63-.555 1.26-.97 1.89-1.29a9.197 9.197 0 0 1 1.89-.702c.63-.161 1.26-.261 1.89-.326.63-.065 1.26-.095 1.89-.11.63-.016 1.26-.016 1.89-.016h3.78" class="graph" style="fill:none;stroke:red;stroke-width:1.7"/><path id="path55" d="M723.46 421.303h3.78c.63 0 1.26 0 1.89-.016.63-.015 1.26-.045 1.89-.11.63-.065 1.26-.165 1.89-.326a9.197 9.197 0 0 0 1.89-.703 8.965 8.965 0 0 0 1.89-1.29c.63-.554 1.26-1.25 1.89-2.133.63-.883 1.26-1.955 1.89-3.262.63-1.308 1.26-2.852 1.89-4.67.63-1.816 1.26-3.908 1.89-6.288.63-2.38 1.26-5.051 1.89-7.995.63-2.944 1.26-6.161 1.89-9.595.63-3.434 1.26-7.084 1.89-10.851.63-3.767 1.26-7.65 1.89-11.51.63-3.862 1.26-7.7 1.89-11.356.63-3.655 1.26-7.126 1.89-10.25.63-3.123 1.26-5.898 1.89-8.183.63-2.285 1.26-4.079 1.89-5.286.63-1.208 1.26-1.829 1.89-1.829.63 0 1.26.62 1.89 1.829.63 1.207 1.26 3.001 1.89 5.286.63 2.285 1.26 5.06 1.89 8.183.63 3.124 1.26 6.595 1.89 10.25.63 3.656 1.26 7.494 1.89 11.356.63 3.86 1.26 7.743 1.89 11.51.63 3.767 1.26 7.417 1.89 10.85.63 3.435 1.26 6.652 1.89 9.596.63 2.944 1.26 5.614 1.89 7.995.63 2.38 1.26 4.472 1.89 6.289.63 1.817 1.26 3.361 1.89 4.669.63 1.307 1.26 2.38 1.89 3.262.63.884 1.26 1.579 1.89 2.134.63.555 1.26.97 1.89 1.289.63.319 1.26.541 1.89.703.63.161 1.26.26 1.89.326.63.065 1.26.095 1.89.11.63.015 1.26.016 1.89.016h3.78" class="graph" style="fill:none;stroke:red;stroke-width:1.7"/></g><g id="layer1" style="display:inline"><path id="path74" d="M930.879 125h31.016m-166.016 0h62.032m-197.032 0h62.032m-197.032 0h62.032m-197.032 0h62.032m-197.032 0h62.032m-197.032 0h62.032m-166.016 0H47.91" style="fill:#000;fill-opacity:0;stroke:#d000d0;stroke-width:5;stroke-dasharray:none;stroke-opacity:1"/><path id="rect104" d="M315.577 127.45h4.664v7.04h-4.664z" style="fill:#f9f9f9;fill-opacity:1;stroke:none;stroke-width:4.5;stroke-dasharray:none;stroke-opacity:1"/><path id="rect105" d="M45.694 128.066h4.664v7.04h-4.664z" style="fill:#f9f9f9;fill-opacity:1;stroke:none;stroke-width:4.5;stroke-dasharray:none;stroke-opacity:1"/><path id="rect106" d="M990.535 384.239h4.664v7.04h-4.664z" style="fill:#f9f9f9;fill-opacity:1;stroke:none;stroke-width:4.5;stroke-dasharray:none;stroke-opacity:1"/><path id="rect175" d="M927.926 385.019h5.345v6.468h-5.345z" style="fill:#fdfdfd;fill-opacity:1;stroke:none;stroke-width:.2;stroke-dasharray:none;stroke-opacity:1"/><path id="path75" d="M930.879 116.81v16.374M857.91 116.81v16.374m-62.032-16.374v16.374M722.91 116.81v16.374m-62.032-16.374v16.374M587.91 116.81v16.374m-62.032-16.374v16.374M452.91 116.81v16.374m-62.032-16.374v16.374M317.91 116.81v16.374m-62.032-16.374v16.374M182.91 116.81v16.374m-62.032-16.374v16.374M47.91 116.81v16.374" style="fill:#f0f;stroke:#b0b;stroke-width:1.5;stroke-dasharray:none;stroke-opacity:1"/><path id="path5126-2" fill="#fed341" stroke="#000" stroke-width="1.2" d="M-89.447 85.656V71.858h-5.04l9.408-9.408 9.408 9.408h-5.04v13.798z" style="display:inline"/><path id="path89" fill="#fed341" stroke="#000" stroke-width="1.2" d="M155.965-129.175v11.997h4.696l-8.766 8.815-8.767-8.815h4.697v-11.997z" style="display:inline"/><path id="path90" fill="#fed341" stroke="#000" stroke-width="1.2" d="M16.895-129.188h4.058v12.012h4.683l-8.741 8.826" style="display:inline"/><path id="path91" d="M-146.395-4.541h45v12.13h-45z" style="fill:#ffd5d5;stroke-width:4.5"/><path id="path92" fill="#fed341" stroke="#000" stroke-width="1.2" d="M290.965-129.175v11.997h4.696l-8.766 8.815-8.767-8.815h4.697v-11.997z" style="display:inline"/><path id="path94" fill="#fed341" stroke="#000" stroke-width="1.2" d="M425.965-129.175v11.997h4.696l-8.766 8.815-8.767-8.815h4.697v-11.997z" style="display:inline"/><path id="path96" fill="#fed341" stroke="#000" stroke-width="1.2" d="M560.965-129.175v11.997h4.696l-8.766 8.815-8.767-8.815h4.697v-11.997z" style="display:inline"/><path id="path98" fill="#fed341" stroke="#000" stroke-width="1.2" d="M695.965-129.175v11.997h4.696l-8.766 8.815-8.767-8.815h4.697v-11.997z" style="display:inline"/><path id="path100" fill="#fed341" stroke="#000" stroke-width="1.2" d="M830.965-129.175v11.997h4.696l-8.766 8.815-8.767-8.815h4.697v-11.997z" style="display:inline"/><path id="path102" fill="#fed341" stroke="#000" stroke-width="1.2" d="m961.895-108.35-8.742-8.826h4.683v-12.012h4.059" style="display:inline"/><path id="path103" fill="#fed341" stroke="#000" stroke-width="1.2" d="M-57.192 92.57v11.996h4.697l-8.767 8.816-8.766-8.816h4.696V92.569Z" style="display:inline"/><path id="path104" fill="#fed341" stroke="#000" stroke-width="1.2" d="M1039.261 92.57v11.996h4.697l-8.767 8.816-8.766-8.816h4.696V92.569Z" style="display:inline"/><path id="path106" fill="#fed341" stroke="#000" stroke-width="1.2" d="M156.263-73.206v12.803h5.04l-9.408 9.408-9.408-9.408h5.04v-12.803Z" style="display:inline"/><path id="path107" fill="#fed341" stroke="#000" stroke-width="1.2" d="M16.895-73.206h4.368v12.803h5.04l-9.408 9.408" style="display:inline"/><path id="path108" fill="#fed341" stroke="#000" stroke-width="1.2" d="M291.263-73.206v12.803h5.04l-9.408 9.408-9.408-9.408h5.04v-12.803Z" style="display:inline"/><path id="path109" fill="#fed341" stroke="#000" stroke-width="1.2" d="M426.263-73.206v12.803h5.04l-9.408 9.408-9.408-9.408h5.04v-12.803Z" style="display:inline"/><path id="path110" fill="#fed341" stroke="#000" stroke-width="1.2" d="M561.263-73.206v12.803h5.04l-9.408 9.408-9.408-9.408h5.04v-12.803Z" style="display:inline"/><path id="path111" fill="#fed341" stroke="#000" stroke-width="1.2" d="M696.263-73.206v12.803h5.04l-9.408 9.408-9.408-9.408h5.04v-12.803Z" style="display:inline"/><path id="path112" fill="#fed341" stroke="#000" stroke-width="1.2" d="M831.263-73.206v12.803h5.04l-9.408 9.408-9.408-9.408h5.04v-12.803Z" style="display:inline"/><path id="path113" fill="#fed341" stroke="#000" stroke-width="1.2" d="m961.895-50.995-9.408-9.408h5.04v-12.803h4.368" style="display:inline"/><path id="path125" fill="#fed341" stroke="#000" stroke-width="1.2" d="M133.311 94.923v11.587h4.52l-8.436 8.514-8.436-8.514h4.52V94.923Z" style="display:inline"/><path id="path124" fill="#fed341" stroke="#000" stroke-width="1.2" d="M144.163 97.412v11.587h4.52l-8.436 8.514L131.81 109h4.52V97.412Z" style="display:inline"/><path id="path114" fill="#fed341" stroke="#000" stroke-width="1.2" d="M155.811 94.923v11.587h4.52l-8.436 8.514-8.436-8.514h4.52V94.923Z" style="display:inline"/><path id="path122" fill="#fed341" stroke="#000" stroke-width="1.2" d="M167.46 97.412v11.587h4.519l-8.436 8.514-8.436-8.514h4.52V97.412Z" style="display:inline"/><path id="path123" fill="#fed341" stroke="#000" stroke-width="1.2" d="M178.47 94.923v11.587h4.518l-8.435 8.514-8.436-8.514h4.519V94.923Z" style="display:inline"/><path id="path128" fill="#fed341" stroke="#000" stroke-width="1.2" d="M16.895 94.923h3.916v11.587h4.52l-8.436 8.514" style="display:inline"/><path id="path129" fill="#fed341" stroke="#000" stroke-width="1.2" d="M32.46 97.412v11.587h4.519l-8.436 8.514L20.107 109h4.52V97.412Z" style="display:inline"/><path id="path130" fill="#fed341" stroke="#000" stroke-width="1.2" d="M43.47 94.923v11.587h4.518l-8.435 8.514-8.436-8.514h4.519V94.923Z" style="display:inline"/><path id="path131" fill="#fed341" stroke="#000" stroke-width="1.2" d="M268.311 94.923v11.587h4.52l-8.436 8.514-8.436-8.514h4.52V94.923Z" style="display:inline"/><path id="path132" fill="#fed341" stroke="#000" stroke-width="1.2" d="M279.163 97.412v11.587h4.52l-8.436 8.514L266.81 109h4.52V97.412Z" style="display:inline"/><path id="path133" fill="#fed341" stroke="#000" stroke-width="1.2" d="M290.811 94.923v11.587h4.52l-8.436 8.514-8.436-8.514h4.52V94.923Z" style="display:inline"/><path id="path134" fill="#fed341" stroke="#000" stroke-width="1.2" d="M302.46 97.412v11.587h4.518l-8.435 8.514-8.436-8.514h4.52V97.412Z" style="display:inline"/><path id="path135" fill="#fed341" stroke="#000" stroke-width="1.2" d="M313.47 94.923v11.587h4.518l-8.435 8.514-8.436-8.514h4.519V94.923Z" style="display:inline"/><path id="path139" fill="#fed341" stroke="#000" stroke-width="1.2" d="M403.311 94.923v11.587h4.52l-8.436 8.514-8.436-8.514h4.52V94.923Z" style="display:inline"/><path id="path140" fill="#fed341" stroke="#000" stroke-width="1.2" d="M414.163 97.412v11.587h4.52l-8.436 8.514L401.81 109h4.52V97.412Z" style="display:inline"/><path id="path141" fill="#fed341" stroke="#000" stroke-width="1.2" d="M425.811 94.923v11.587h4.52l-8.436 8.514-8.436-8.514h4.52V94.923Z" style="display:inline"/><path id="path142" fill="#fed341" stroke="#000" stroke-width="1.2" d="M437.46 97.412v11.587h4.519l-8.436 8.514-8.436-8.514h4.52V97.412Z" style="display:inline"/><path id="path143" fill="#fed341" stroke="#000" stroke-width="1.2" d="M448.47 94.923v11.587h4.518l-8.435 8.514-8.436-8.514h4.519V94.923Z" style="display:inline"/><path id="path144" fill="#fed341" stroke="#000" stroke-width="1.2" d="M538.311 94.923v11.587h4.52l-8.436 8.514-8.436-8.514h4.52V94.923Z" style="display:inline"/><path id="path145" fill="#fed341" stroke="#000" stroke-width="1.2" d="M549.163 97.412v11.587h4.52l-8.436 8.514L536.81 109h4.52V97.412Z" style="display:inline"/><path id="path146" fill="#fed341" stroke="#000" stroke-width="1.2" d="M560.811 94.923v11.587h4.52l-8.436 8.514-8.436-8.514h4.52V94.923Z" style="display:inline"/><path id="path147" fill="#fed341" stroke="#000" stroke-width="1.2" d="M572.46 97.412v11.587h4.519l-8.436 8.514-8.436-8.514h4.52V97.412Z" style="display:inline"/><path id="path148" fill="#fed341" stroke="#000" stroke-width="1.2" d="M583.47 94.923v11.587h4.518l-8.435 8.514-8.436-8.514h4.519V94.923Z" style="display:inline"/><path id="path149" fill="#fed341" stroke="#000" stroke-width="1.2" d="M673.311 94.923v11.587h4.52l-8.436 8.514-8.436-8.514h4.52V94.923Z" style="display:inline"/><path id="path150" fill="#fed341" stroke="#000" stroke-width="1.2" d="M684.163 97.412v11.587h4.52l-8.436 8.514L671.81 109h4.52V97.412Z" style="display:inline"/><path id="path151" fill="#fed341" stroke="#000" stroke-width="1.2" d="M695.811 94.923v11.587h4.52l-8.436 8.514-8.436-8.514h4.52V94.923Z" style="display:inline"/><path id="path152" fill="#fed341" stroke="#000" stroke-width="1.2" d="M707.46 97.412v11.587h4.519l-8.436 8.514-8.436-8.514h4.52V97.412Z" style="display:inline"/><path id="path153" fill="#fed341" stroke="#000" stroke-width="1.2" d="M718.47 94.923v11.587h4.518l-8.435 8.514-8.436-8.514h4.519V94.923Z" style="display:inline"/><path id="path154" fill="#fed341" stroke="#000" stroke-width="1.2" d="M808.311 94.923v11.587h4.52l-8.436 8.514-8.436-8.514h4.52V94.923Z" style="display:inline"/><path id="path155" fill="#fed341" stroke="#000" stroke-width="1.2" d="M819.163 97.412v11.587h4.52l-8.436 8.514L806.81 109h4.52V97.412Z" style="display:inline"/><path id="path156" fill="#fed341" stroke="#000" stroke-width="1.2" d="M830.811 94.923v11.587h4.52l-8.436 8.514-8.436-8.514h4.52V94.923Z" style="display:inline"/><path id="path157" fill="#fed341" stroke="#000" stroke-width="1.2" d="M842.46 97.412v11.587h4.519l-8.436 8.514-8.436-8.514h4.52V97.412Z" style="display:inline"/><path id="path158" fill="#fed341" stroke="#000" stroke-width="1.2" d="M853.47 94.923v11.587h4.518l-8.435 8.514-8.436-8.514h4.519V94.923Z" style="display:inline"/><path id="path159" fill="#fed341" stroke="#000" stroke-width="1.2" d="M943.311 94.923v11.587h4.52l-8.436 8.514-8.436-8.514h4.52V94.923Z" style="display:inline"/><path id="path160" fill="#fed341" stroke="#000" stroke-width="1.2" d="M954.163 97.412v11.587h4.52l-8.436 8.514L941.81 109h4.52V97.412Z" style="display:inline"/><path id="path161" fill="#fed341" stroke="#000" stroke-width="1.2" d="m961.895 115.024-8.436-8.514h4.52V94.923h3.916" style="display:inline"/><ellipse id="ellipse25832" cx="151.811" cy="400.214" rx="9.002" ry="8.766" style="fill:#fcff99;fill-opacity:1;stroke:#000;stroke-width:.986833;stroke-dasharray:none;stroke-opacity:1"/><path id="path25834" d="M153.879 404.72q0 .112-.31.112H152.866q-.535-.014-1.084-.014-.972 0-1.24.014-.267.014-.421.014-.338 0-.338-.126t.197-.126q.31 0 .661-.014.437-.014.465-.21.042-.21.042-.881v-6.575q0-.448-.028-.532-.028-.083-.197-.083-.07 0-.915.07-.169.013-.225.013-.17 0-.17-.097 0-.112.17-.126.661-.07 1.337-.392.676-.336 1.084-.783.155-.126.211-.126.113 0 .113.14v.265q-.014.112-.014.252v8.366q0 .503.042.587.056.084.352.098l.323.014.24.014h.21q.198 0 .198.126z" style="font-size:36.4174px;font-family:&quot;Bodoni 72&quot;;-inkscape-font-specification:&quot;Bodoni 72, &quot;;fill:#000;fill-opacity:1;stroke:#000;stroke-width:.2;stroke-dasharray:none"/><ellipse id="ellipse169" cx="151.811" cy="313.804" rx="9.002" ry="8.766" style="fill:#fcff80;fill-opacity:1;stroke:#000;stroke-width:.986833;stroke-dasharray:none;stroke-opacity:1"/><ellipse id="ellipse25838" cx="286.937" cy="400.214" rx="9.002" ry="8.766" style="fill:#a2ff99;fill-opacity:1;stroke:#000;stroke-width:.986833;stroke-dasharray:none;stroke-opacity:1"/><path id="path25840" d="M290.118 402.223q0 .042-.028.223-.07.462-.225 2.28l-.014.168q-1.45-.07-3.308-.07-1 0-1.872.028-.873.028-.76.028-.38 0-.38-.14 0-.111.731-.699 1.76-1.427 2.506-2.322 1.295-1.553 1.295-3.651 0-1.413-.591-2.14-.45-.56-1.267-.56-.802 0-1.267.49-.366.377-.366.755 0 .238.38.252.986.042.986.853 0 .77-.817.77-.52 0-.83-.322-.31-.322-.31-.882 0-1.035.732-1.664.732-.63 1.928-.63 1.197 0 1.985.756.915.88.915 2.294 0 1.553-1.042 2.868-1.041 1.3-3.505 2.84.93-.029 2.337-.029 1.168 0 1.478-.028.31-.042.55-.182.196-.125.337-.937.098-.56.282-.56.14 0 .14.21z" style="font-size:36.4174px;font-family:&quot;Bodoni 72&quot;;-inkscape-font-specification:&quot;Bodoni 72, &quot;;fill:#000;fill-opacity:1;stroke:#000;stroke-width:.2;stroke-dasharray:none;stroke-opacity:1"/><ellipse id="ellipse25844" cx="421.802" cy="400.214" rx="9.002" ry="8.766" style="fill:#99f2ff;fill-opacity:1;stroke:#000;stroke-width:.986833;stroke-dasharray:none;stroke-opacity:1"/><path id="path25846" d="M425.192 402.43q0 1.161-.943 1.987-1.042.909-2.66.909-1.324 0-1.943-.616-.394-.391-.394-.895 0-.434.267-.685.281-.266.746-.266.366 0 .605.21.24.21.24.531 0 .49-.662.77-.267.112-.267.224 0 .181.366.335.366.14.802.14 1.07 0 1.731-.727.676-.728.676-1.903 0-2.364-2.14-2.364-.21 0-.31.014h-.098q-.183 0-.183-.126 0-.098.338-.154.985-.14 1.52-.713.535-.588.535-1.497 0-.895-.464-1.427-.465-.546-1.253-.546-.577 0-1.014.252-.422.238-.422.56 0 .126.197.168.93.224.93.77 0 .713-.747.713-.478 0-.774-.28-.282-.28-.282-.742 0-.755.648-1.259.662-.517 1.83-.517 1.337 0 2.04.685.705.686.705 1.595 0 1.259-1.197 1.86-.422.21-1.365.35v.098q1.168.042 1.886.518 1.056.7 1.056 2.028z" style="font-size:36.4174px;font-family:&quot;Bodoni 72&quot;;-inkscape-font-specification:&quot;Bodoni 72, &quot;;fill:#000;stroke:#000;stroke-width:.2;stroke-dasharray:none"/><ellipse id="ellipse25850" cx="556.82" cy="400.214" rx="9.002" ry="8.766" style="fill:#a3d1ff;fill-opacity:1;stroke:#000;stroke-width:.986833;stroke-dasharray:none;stroke-opacity:1"/><path id="path25852" d="M559.786 403.199q0 .14-.14.14-.127 0-.17-.154-.028-.168-.098-.881-.028-.112-.113-.168-.169-.098-.746-.098-.155 0-.295.014l.014 2.196q.07.168.225.21.169.042.802.042.31 0 .366.056.014.028.014.084 0 .098-.563.098t-3.153.028q-.14.014-.31.014-.281 0-.281-.14t.408-.126q.479.014.873-.056.169-.028.211-.14.042-.126.042-.532v-1.692q-.281-.014-.647-.014h-.577q-.198 0-.437.014h-.267l-1.788-.042q-.197-.014-.197-.112 0-.07 2.07-2.896.647-.91 2.857-4 .098-.14.197-.14.14 0 .14.265v6.575h.141q.479 0 .746-.056.282-.056.282-.28-.014-.881-.014-.601.014-.504.155-.504.197 0 .197.392v.63l.014 1.007q.014.517.028.657.014.126.014.21zm-2.83-6.24q-.14.225-.59.854-.62.853-1.873 2.546l-1 1.357q.522.042 2.239.042.605 0 1.14-.014v-.993q0-.7.042-1.889.043-1.399.043-1.902z" style="font-size:36.4174px;font-family:&quot;Bodoni 72&quot;;-inkscape-font-specification:&quot;Bodoni 72, &quot;;fill:#000;fill-opacity:1;stroke:#000;stroke-width:.2;stroke-dasharray:none;stroke-opacity:1"/><ellipse id="ellipse25856" cx="691.991" cy="400.214" rx="9.002" ry="8.766" style="fill:#d6b8ff;fill-opacity:1;stroke:#000;stroke-width:.986833;stroke-dasharray:none;stroke-opacity:1"/><path id="path25858" d="M694.946 401.84q0 1.79-1.38 2.742-.83.573-2.153.573t-1.943-.685q-.337-.378-.337-.895 0-.434.281-.7.282-.28.732-.28.366 0 .605.21.254.21.254.518 0 .517-.69.783-.31.112-.31.252 0 .224.409.406.422.167.929.167.985 0 1.478-.671.675-.923.675-2.49 0-1.147-.535-1.777-.534-.63-1.52-.63-.76 0-1.675.574.085-3.147.127-3.973.014-.475.21-.573.198-.112 1.07-.112h.48q.337.014.534.014h.479q.971 0 1.126-.028.169-.042.211-.238.056-.322.197-.322.14 0 .14.154 0 .098-.013.154l-.028.322q-.07.783-.296.98-.211.181-1.056.181l-2.688-.014q-.057.476-.099 2.868.803-.364 1.675-.364 1.45 0 2.28.77.831.755.831 2.084z" style="font-size:36.4174px;font-family:&quot;Bodoni 72&quot;;-inkscape-font-specification:&quot;Bodoni 72, &quot;;fill:#000;stroke:#000;stroke-width:.2;stroke-dasharray:none"/><ellipse id="ellipse25862" cx="826.943" cy="400.214" rx="9.002" ry="8.766" style="fill:#ffc3fd;fill-opacity:1;stroke:#000;stroke-width:.986833;stroke-dasharray:none;stroke-opacity:1"/><path id="path25864" d="M829.71 401.868q0 1.357-.83 2.322-.83.965-1.985.965-1.45 0-2.351-1.189-.9-1.189-.9-3.091 0-1.749.76-3.19.773-1.44 2.054-2.098 1.07-.546 2.337-.546.296 0 .296.112 0 .098-.197.112-1.267.112-2.238.91-1.267 1.034-1.493 3.525.775-.728 1.746-.728.788 0 1.478.42 1.323.797 1.323 2.476zm-1.45.042q0-2.602-1.619-2.602-.732 0-1.126.63-.394.615-.394 1.734 0 1.609.577 2.602.366.63 1.07.63 1.492 0 1.492-2.994z" style="font-size:36.4174px;font-family:&quot;Bodoni 72&quot;;-inkscape-font-specification:&quot;Bodoni 72, &quot;;fill:#000;fill-opacity:1;stroke:#000;stroke-width:.2;stroke-dasharray:none;stroke-opacity:1"/><path id="rect169" d="M21.816 392.824h6.153v4.998h-6.153z" style="fill:#fdfdfd;fill-opacity:1;stroke:none;stroke-width:.2;stroke-dasharray:none;stroke-opacity:1"/><ellipse id="ellipse819841" cx="16.975" cy="400.214" rx="9.002" ry="8.766" style="fill:#e8e4e4;fill-opacity:1;stroke:#000;stroke-width:.986833;stroke-dasharray:none;stroke-opacity:1"/><path id="path819843" d="M-153.073 139.766q0 .085-1.625 2.62-.91 1.43-1.246 2.242-.337.798-.337 1.597 0 .406.196 1.597.07.42.07.714 0 .995-.742.995-.883 0-.883-1.527 0-1.415 1.303-3.727.827-1.457 2.144-3.39h-2.13q-1.653 0-1.905.014-.308.014-.434.098-.112.084-.168.238-.042.14-.225.981-.056.168-.168.168-.14 0-.14-.168t.07-.546q.154-.855.196-1.457.028-.434.182-.603.098 0 .575.028 1.065.056 1.54.056l2.9-.028q.113 0 .239-.014h.14q.448 0 .448.112z" style="font-size:20.5px;font-family:&quot;Bodoni 72&quot;;-inkscape-font-specification:&quot;Bodoni 72, &quot;;fill:#000;stroke:#000;stroke-width:.2;stroke-dasharray:none;stroke-opacity:1"/><g id="g819851" transform="translate(631.237 -110.727)"><ellipse id="ellipse819847" cx="330.585" cy="510.888" rx="9.002" ry="8.766" style="fill:#fca;fill-opacity:1;stroke:#000;stroke-width:.986833;stroke-dasharray:none;stroke-opacity:1"/><path id="path819849" d="M333.944 512.908q0 1.401-1.163 2.256-.784.574-1.947.574-1.247 0-2.101-.56-1.163-.757-1.163-2.13 0-2.087 2.255-2.647v-.07q-.854-.239-1.345-.799-.476-.574-.476-1.359 0-1.093.743-1.779.756-.7 1.947-.7 1.05 0 1.723.504.98.728.98 1.877 0 .827-.49 1.485-.49.645-1.218.785l.014.056q2.241.448 2.241 2.507zm-1.933-4.805q0-1.247-.449-1.835-.266-.35-.854-.35-1.317 0-1.317 2.2 0 2.143 1.415 2.143.63 0 .883-.463.322-.602.322-1.695zm.504 4.945q0-2.55-1.709-2.55-.855 0-1.33.66-.477.644-.477 1.792 0 1.191.49 1.878.504.686 1.373.686.743 0 1.093-.42.56-.673.56-2.046z" style="font-size:20.5px;font-family:&quot;Bodoni 72&quot;;-inkscape-font-specification:&quot;Bodoni 72, &quot;;fill:#000;stroke:#000;stroke-width:.2;stroke-dasharray:none;stroke-opacity:1"/></g><ellipse id="ellipse819853" cx="-31.46" cy="400.161" rx="9.002" ry="8.766" style="fill:#ffc3fd;fill-opacity:1;stroke:#000;stroke-width:.986833;stroke-dasharray:none;stroke-opacity:1"/><path id="path819855" d="M-126.212 143.748q0 1.835-.855 3.334-.84 1.485-2.213 2.06-1.009.42-2.017.42-.365 0-.365-.099 0-.084.197-.112 2.367-.308 3.25-2.353.35-.827.49-2.102-.77.729-1.737.729-.925 0-1.681-.56-1.107-.813-1.107-2.396 0-1.345.813-2.284.826-.952 1.989-.952 1.429 0 2.325 1.205.91 1.204.91 3.11zm-1.471-.925q0-1.597-.588-2.522-.407-.63-1.107-.63-1.443 0-1.443 3.026 0 2.592 1.611 2.592.714 0 1.12-.645.407-.658.407-1.82z" style="font-size:20.5px;font-family:&quot;Bodoni 72&quot;;-inkscape-font-specification:&quot;Bodoni 72, &quot;;fill:#000;stroke:#000;stroke-width:.2;stroke-dasharray:none;stroke-opacity:1"/><path id="path169" d="M-28.017 404.978q0 .112-.309.112H-29.027q-.534-.014-1.081-.014-.969 0-1.236.014-.266.014-.42.014-.338 0-.338-.126t.197-.126q.309 0 .66-.014.435-.014.463-.21.042-.21.042-.882v-6.581q0-.448-.028-.532-.028-.084-.197-.084-.07 0-.912.07-.169.014-.225.014-.168 0-.168-.098 0-.112.168-.126.66-.07 1.334-.392.674-.336 1.08-.784.155-.126.211-.126.113 0 .113.14v.266q-.014.112-.014.252v8.373q0 .504.042.588.056.084.35.098l.323.014.239.014h.21q.197 0 .197.126z" style="font-size:18px;font-family:&quot;Bodoni 72&quot;;-inkscape-font-specification:&quot;Bodoni 72, &quot;;fill:#000;stroke:#000;stroke-width:.2;stroke-dasharray:none"/><path id="path168" d="M-34.165 402.304h-3.86v-.728h3.86z" style="font-size:18px;font-family:&quot;Bodoni 72&quot;;-inkscape-font-specification:&quot;Bodoni 72, &quot;;fill:#000;stroke:#000;stroke-width:.2;stroke-dasharray:none"/><path id="path166" d="M20.224 400.386q0 1.246-.379 2.352-.365 1.106-1.01 1.778-.688.728-1.755.728-1.46 0-2.414-1.428-.941-1.428-.941-3.654 0-2.577 1.334-4.061.8-.896 1.965-.896 1.376 0 2.19 1.246 1.01 1.54 1.01 3.935zm-1.516-.505q0-2.086-.463-3.444-.35-1.036-1.235-1.036-1.769 0-1.769 4.69 0 4.915 1.867 4.915.87 0 1.25-1.428.35-1.302.35-3.697z" style="font-size:18px;font-family:&quot;Bodoni 72&quot;;-inkscape-font-specification:&quot;Bodoni 72, &quot;;fill:#000;stroke:#000;stroke-width:.2;stroke-dasharray:none"/><path id="text165" d="M-102.47 146.42q0 1.358-.828 2.324-.828.967-1.98.967-1.445 0-2.343-1.19-.899-1.19-.899-3.095 0-1.75.758-3.193.772-1.442 2.05-2.1 1.067-.546 2.33-.546.295 0 .295.112 0 .098-.197.112-1.263.112-2.232.91-1.263 1.036-1.488 3.529.772-.729 1.741-.729.786 0 1.474.42 1.32.799 1.32 2.479zm-1.445.042q0-2.604-1.615-2.604-.73 0-1.123.63-.393.616-.393 1.736 0 1.61.576 2.604.365.63 1.067.63 1.488 0 1.488-2.996z" style="font-size:18px;font-family:&quot;Bodoni 72&quot;;-inkscape-font-specification:&quot;Bodoni 72, &quot;;fill:#000;stroke:#000;stroke-width:.2;stroke-dasharray:none"/><g id="g170" transform="translate(134.074 -152.936)"><ellipse id="ellipse170" cx="152.862" cy="466.74" rx="9.002" ry="8.766" style="fill:#8dff80;fill-opacity:1;stroke:#000;stroke-width:.986833;stroke-dasharray:none;stroke-opacity:1"/><path id="path170" d="M156.044 468.749q0 .042-.028.223-.07.462-.225 2.28l-.014.169q-1.45-.07-3.308-.07-1 0-1.873.028-.872.028-.76.028-.38 0-.38-.14 0-.112.732-.7 1.76-1.427 2.506-2.322 1.295-1.553 1.295-3.651 0-1.413-.591-2.14-.45-.56-1.267-.56-.803 0-1.267.49-.366.377-.366.755 0 .238.38.252.985.042.985.853 0 .77-.816.77-.521 0-.83-.322-.31-.322-.31-.882 0-1.035.732-1.664.732-.63 1.928-.63 1.197 0 1.985.756.915.88.915 2.294 0 1.553-1.042 2.868-1.041 1.3-3.505 2.84.93-.029 2.337-.029 1.168 0 1.478-.028.31-.042.549-.181.197-.126.338-.938.098-.56.281-.56.141 0 .141.21z" style="font-size:36.4174px;font-family:&quot;Bodoni 72&quot;;-inkscape-font-specification:&quot;Bodoni 72, &quot;;fill:#000;fill-opacity:1;stroke:#000;stroke-width:.2;stroke-dasharray:none;stroke-opacity:1"/></g><g id="g171" transform="translate(241.919 -152.936)"><ellipse id="ellipse171" cx="179.883" cy="466.74" rx="9.002" ry="8.766" style="fill:#80edff;fill-opacity:1;stroke:#000;stroke-width:.986833;stroke-dasharray:none;stroke-opacity:1"/><path id="path171" d="M183.273 468.956q0 1.161-.943 1.987-1.042.91-2.66.91-1.324 0-1.943-.616-.394-.392-.394-.896 0-.433.267-.685.282-.266.746-.266.366 0 .606.21t.24.531q0 .49-.663.77-.267.112-.267.224 0 .181.366.335.366.14.802.14 1.07 0 1.732-.727.675-.728.675-1.903 0-2.364-2.14-2.364-.21 0-.309.014h-.098q-.183 0-.183-.126 0-.098.338-.154.985-.14 1.52-.713.535-.588.535-1.497 0-.895-.465-1.427-.464-.545-1.253-.545-.577 0-1.013.251-.422.238-.422.56 0 .126.197.168.929.224.929.77 0 .713-.746.713-.479 0-.775-.28-.281-.28-.281-.742 0-.755.647-1.259.662-.517 1.83-.517 1.338 0 2.041.685.704.686.704 1.595 0 1.26-1.196 1.86-.423.21-1.366.35v.098q1.169.042 1.887.518 1.055.7 1.055 2.028z" style="font-size:36.4174px;font-family:&quot;Bodoni 72&quot;;-inkscape-font-specification:&quot;Bodoni 72, &quot;;fill:#000;stroke:#000;stroke-width:.2;stroke-dasharray:none"/></g><g id="g172" transform="translate(331.037 -152.936)"><ellipse id="ellipse172" cx="225.783" cy="466.74" rx="9.002" ry="8.766" style="fill:#80beff;fill-opacity:1;stroke:#000;stroke-width:.986833;stroke-dasharray:none;stroke-opacity:1"/><path id="path172" d="M228.749 469.725q0 .14-.14.14-.128 0-.17-.154-.028-.168-.098-.881-.028-.112-.113-.168-.169-.098-.746-.098-.155 0-.296.014l.014 2.196q.07.168.226.21.169.042.802.042.31 0 .366.056.014.028.014.084 0 .098-.563.098t-3.153.028q-.14.014-.31.014-.281 0-.281-.14t.408-.126q.479.014.873-.056.169-.028.21-.14.043-.126.043-.532v-1.692q-.281-.014-.647-.014h-.578q-.197 0-.436.014h-.267l-1.788-.042q-.197-.014-.197-.112 0-.07 2.069-2.896.648-.91 2.858-4 .098-.14.197-.14.14 0 .14.265v6.575h.141q.479 0 .746-.056.282-.056.282-.28-.014-.881-.014-.601.014-.504.154-.504.198 0 .198.392v.63l.014 1.007q.014.517.028.657.014.126.014.21zm-2.83-6.24q-.14.225-.59.854-.62.853-1.873 2.546l-1 1.357q.521.042 2.239.042.605 0 1.14-.014v-.993q0-.7.042-1.889.042-1.399.042-1.902z" style="font-size:36.4174px;font-family:&quot;Bodoni 72&quot;;-inkscape-font-specification:&quot;Bodoni 72, &quot;;fill:#000;fill-opacity:1;stroke:#000;stroke-width:.2;stroke-dasharray:none;stroke-opacity:1"/></g><g id="g173" transform="translate(449.552 -152.936)"><ellipse id="ellipse173" cx="242.439" cy="466.74" rx="9.002" ry="8.766" style="fill:#b580ff;fill-opacity:1;stroke:#000;stroke-width:.986833;stroke-dasharray:none;stroke-opacity:1"/><path id="path173" d="M245.394 468.366q0 1.79-1.38 2.742-.83.573-2.153.573t-1.942-.685q-.338-.378-.338-.895 0-.434.281-.7.282-.28.732-.28.366 0 .606.21.253.21.253.518 0 .517-.69.783-.31.112-.31.252 0 .224.409.406.422.168.929.168.985 0 1.478-.672.675-.923.675-2.49 0-1.147-.534-1.777-.535-.63-1.52-.63-.76 0-1.676.574.085-3.147.127-3.973.014-.475.211-.573.197-.112 1.07-.112h.478q.338.014.535.014h.479q.971 0 1.126-.028.169-.042.211-.238.057-.322.197-.322.141 0 .141.154 0 .098-.014.154l-.028.322q-.07.783-.296.98-.21.181-1.055.181l-2.69-.014q-.055.476-.098 2.868.803-.364 1.676-.364 1.45 0 2.28.77.83.755.83 2.084z" style="font-size:36.4174px;font-family:&quot;Bodoni 72&quot;;-inkscape-font-specification:&quot;Bodoni 72, &quot;;fill:#000;stroke:#000;stroke-width:.2;stroke-dasharray:none"/></g><g id="g174" transform="translate(553.139 -152.936)"><ellipse id="ellipse174" cx="273.804" cy="466.74" rx="9.002" ry="8.766" style="fill:#ec80ff;fill-opacity:1;stroke:#000;stroke-width:.986833;stroke-dasharray:none;stroke-opacity:1"/><path id="path174" d="M276.571 468.394q0 1.357-.83 2.322-.83.965-1.985.965-1.45 0-2.35-1.189-.901-1.189-.901-3.091 0-1.749.76-3.19.774-1.44 2.055-2.098 1.07-.546 2.337-.546.295 0 .295.112 0 .098-.197.112-1.267.112-2.238.91-1.267 1.035-1.492 3.525.774-.728 1.745-.728.789 0 1.478.42 1.323.797 1.323 2.476zm-1.45.042q0-2.602-1.618-2.602-.732 0-1.126.63-.394.615-.394 1.734 0 1.609.577 2.602.366.63 1.07.63 1.492 0 1.492-2.994z" style="font-size:36.4174px;font-family:&quot;Bodoni 72&quot;;-inkscape-font-specification:&quot;Bodoni 72, &quot;;fill:#000;fill-opacity:1;stroke:#000;stroke-width:.2;stroke-dasharray:none;stroke-opacity:1"/></g><g id="g175" transform="translate(631.237 -197.137)"><ellipse id="ellipse175" cx="330.585" cy="510.888" rx="9.002" ry="8.766" style="fill:#fca;fill-opacity:1;stroke:#000;stroke-width:.986833;stroke-dasharray:none;stroke-opacity:1"/><path id="path175" d="M333.944 512.908q0 1.401-1.163 2.256-.784.574-1.947.574-1.247 0-2.101-.56-1.163-.757-1.163-2.13 0-2.087 2.255-2.647v-.07q-.854-.239-1.345-.799-.476-.574-.476-1.359 0-1.093.743-1.779.756-.7 1.947-.7 1.05 0 1.723.504.98.728.98 1.877 0 .827-.49 1.485-.49.645-1.218.785l.014.056q2.241.448 2.241 2.507zm-1.933-4.805q0-1.247-.449-1.835-.266-.35-.854-.35-1.317 0-1.317 2.2 0 2.143 1.415 2.143.63 0 .883-.463.322-.602.322-1.695zm.504 4.945q0-2.55-1.709-2.55-.855 0-1.33.66-.477.644-.477 1.792 0 1.191.49 1.878.504.686 1.373.686.743 0 1.093-.42.56-.673.56-2.046z" style="font-size:20.5px;font-family:&quot;Bodoni 72&quot;;-inkscape-font-specification:&quot;Bodoni 72, &quot;;fill:#000;stroke:#000;stroke-width:.2;stroke-dasharray:none;stroke-opacity:1"/></g></g><g id="layer19"><path id="path33" d="M-237.174 321.463c1.43-.307 2.88-.487 4.332-.646 1.28-.125 2.574-.207 3.86-.126-1.286-.082-2.58 0-3.86.125-1.453.16-2.903.339-4.332.646z" style="fill:#ff0;stroke:#000;stroke-dashoffset:1.02"/><path id="path34" d="M-220.856 315.24c-1.032-.096-2.164-.107-3.133.32-.23.1-.433.25-.65.376-.673.555-1.056 1.329-.54 2.143.12.19.266.37.444.507.192.149.432.223.648.334.264.039.525.118.792.117 1.135-.005 2.262-.61 2.983-1.469.121-.144.205-.316.308-.474.017-.124.314-.653.107-.803-.14-.102-.201.314-.25.669-.06 2.12.406 4.205.887 6.256.328.996.491 2.082.978 3.023-.486-.941-.649-2.027-.977-3.023-.481-2.051-.946-4.135-.888-6.256.05-.359.11-.769.25-.669.206.15-.09.679-.108.803-.103.158-.187.33-.308.473-.721.86-1.847 1.464-2.982 1.469-.267.001-.528-.078-.791-.117-.216-.111-.456-.185-.648-.333a1.95 1.95 0 0 1-.444-.507c-.516-.814-.133-1.588.54-2.142.216-.126.42-.276.65-.377.968-.426 2.1-.415 3.132-.32z" style="fill:#ff0;stroke:#000;stroke-dashoffset:1.02"/><path id="path37" d="M-215.32 325.663c-.38-.468.177-.797.599-.868.726.178.025.774-.298.983-.524.21-1.178.29-.73-.464l.19-.18v-.001l-.19.18c-.45.755.206.676.73.465.324-.209 1.025-.806.298-.984-.423.072-.98.4-.6.87z" style="fill:#ff0;stroke:#000;stroke-dashoffset:1.02"/><path id="path38" d="M-208.103 315.18c-.936-.5-1.974-.11-2.847.334-.152.126-.323.233-.456.378-.927 1.009-.396 2.09.15 3.11 1.198 1.657 2.758 3.007 4.169 4.478.251.335 1.256 1.116.756 1.643-.24.252-.652.295-.953.373-1.816.175-3.712-.043-5.413-.711-.255-.19-.56-.31-.586-.681-.053-.742 1.245-1.834 1.695-2.284.94-.988 2.376-2.226 2.658-3.635.038-.193.013-.394.02-.591-.075-.483-.324-.872-.581-1.272.256.4.505.79.58 1.272-.007.197.018.398-.02.59-.282 1.41-1.718 2.648-2.658 3.635-.45.45-1.748 1.542-1.695 2.285.027.371.331.491.586.682 1.702.668 3.598.886 5.414.71.302-.077.714-.12.954-.373.5-.528-.504-1.308-.756-1.643-1.41-1.472-2.971-2.821-4.17-4.479-.545-1.019-1.075-2.1-.15-3.108.134-.146.304-.252.456-.378.874-.444 1.91-.833 2.846-.334z" style="fill:#ff0;stroke:#000;stroke-dashoffset:1.02"/><path id="path39" d="M-213.71 295.319a53.091 53.091 0 0 0 .072 3.67c.052.818.025.435.079 1.15-.053-.715-.026-.332-.078-1.15a53.278 53.278 0 0 1-.071-3.67z" style="fill:#ff0;stroke:#000;stroke-dashoffset:1.02"/><path id="path43" d="M-213.839 295.42c1.46.619 2.976 1.096 4.467 1.633l.67.245h.001c-.223-.083-.447-.164-.67-.246-1.491-.537-3.008-1.014-4.467-1.634z" style="fill:#ff0;stroke:#000;stroke-dashoffset:1.02"/><path id="path45" d="M-213.839 296.196c1.085.962 2.165 1.95 3.103 3.06.278.327.528.677.791 1.016.75 1.125 1.712 2.67 1.452 4.106-.178.98-.712 1.654-1.221 2.482-1.12 1.56-2.456 2.933-3.817 4.278h.001c1.36-1.344 2.698-2.718 3.817-4.277.509-.829 1.043-1.502 1.22-2.483.261-1.436-.701-2.982-1.45-4.106-.264-.34-.514-.69-.792-1.017-.938-1.11-2.018-2.098-3.103-3.06z" style="fill:#ff0;stroke:#000;stroke-dashoffset:1.02"/><path id="path47" d="M-161.264 321.96c1.36-.187 2.733-.041 4.093.072.749.07.403.034 1.038.102v-.001c-.635-.068-.29-.033-1.038-.102-1.36-.113-2.734-.259-4.094-.071z" style="fill:#ff0;stroke:#000;stroke-dashoffset:1.02"/><path id="path49" d="M-150.392 315.797c-.585.146-1.042.546-1.07 1.182-.008.152.029.303.044.454.402 1.238 1.471 2.081 2.388 2.941 3.059 2.867-.84-.815 1.875 1.753.381.431 1.2 1.144.674 1.81-.527.669-1.802.784-2.55.917-.57.058-3.592.327-3.55-.779.007-.19.132-.358.199-.537.985-1.521 2.723-2.346 3.799-3.787.16-.215.27-.465.404-.698.33-1.144-.079-1.763-.946-2.46v.002c.866.695 1.275 1.314.945 2.458-.134.232-.243.482-.404.697-1.076 1.441-2.814 2.266-3.8 3.788-.065.18-.19.347-.198.537-.042 1.107 2.98.838 3.551.78.749-.133 2.024-.248 2.551-.917.526-.667-.293-1.38-.675-1.811-2.714-2.567 1.183 1.112-1.874-1.754-.917-.86-1.986-1.702-2.388-2.94-.015-.151-.051-.302-.045-.454.03-.635.486-1.035 1.07-1.181z" style="fill:#ff0;stroke:#000;stroke-dashoffset:1.02"/><path id="path50" d="M-142.29 316.645c.943-.38 2.025-.632 3.043-.412.206.044.396.142.595.212.153.118.33.21.459.353.882.983.304 2.558-.026 3.63-.505 1.37-1.178 2.664-1.86 3.951-.09.254-.589.714-.011.441 1.09-.318 2.232-.438 3.354-.596.421-.073.835-.124 1.259-.077v-.001c-.424-.047-.838.004-1.259.077-1.122.158-2.265.278-3.355.596-.576.272-.077-.184.012-.44.683-1.287 1.356-2.58 1.86-3.951.331-1.073.909-2.648.026-3.63-.129-.144-.306-.236-.459-.353-.198-.071-.39-.169-.595-.213-1.018-.22-2.1.033-3.043.412z" style="fill:#ff0;stroke:#000;stroke-dashoffset:1.02"/><path id="path52" d="M-144.648 324.609c.438-.396.908-.752 1.482-.915.5-.119.563.345.546.728-.11.566-.668.795-1.18.895-.32-.032-.462-.202-.491-.507h-.001c.029.306.171.476.492.508.513-.1 1.071-.33 1.181-.896.017-.384-.047-.848-.548-.729-.574.164-1.043.519-1.482.915z" style="fill:#ff0;stroke:#000;stroke-dashoffset:1.02"/><path id="path54" d="M-150.751 300.686a255.61 255.61 0 0 1 4.042-2.408c.398-.227.794-.46 1.196-.682.067-.036-.03.04-.071.01-.25.157-.098.906-.087 1.11.118 1.136.235 2.271.342 3.408.027.207.03.417.06.623-.029-.206-.032-.416-.059-.624a365.471 365.471 0 0 0-.342-3.407c-.012-.207-.162-.948.085-1.11.043.031.138-.046.071-.01-.402.22-.797.454-1.196.682a255.841 255.841 0 0 0-4.042 2.407z" style="fill:#ff0;stroke:#000;stroke-dashoffset:1.02"/><path id="path56" d="M-145.385 297.748c-.822.951-1.634 1.903-2.36 2.931-1.033 1.607-1.51 3.487-1.204 5.392.07.433.207.853.31 1.28.7 2.063 2.013 3.79 3.68 5.165h.001c-1.667-1.376-2.98-3.102-3.68-5.166-.103-.426-.24-.846-.31-1.28-.307-1.904.17-3.784 1.205-5.39.725-1.028 1.537-1.98 2.359-2.932z" style="fill:#ff0;stroke:#000;stroke-dashoffset:1.02"/><path id="path57" d="M-96.335 304.817c1.416-.142 2.838-.233 4.253-.383.483-.052.962-.126 1.436-.228v-.001c-.474.102-.953.176-1.436.228-1.416.15-2.837.24-4.254.383z" style="fill:#ff0;stroke:#000;stroke-dashoffset:1.02"/><path id="path58" d="M-84.19 297.997c-1.126 1.052-1.831 2.426-2.446 3.817-.447 1.388-1.01 3.188-.048 4.51.144.196.346.342.52.514.21.094.409.223.632.283.954.256 2.071-.144 2.824-.73.18-.14.326-.32.489-.48.088-.183.213-.352.265-.549.235-.893-.43-1.623-1.195-1.954-.224-.097-.468-.143-.703-.214-.646-.08-1.318-.116-1.932.15-.15.066-.28.172-.42.258.14-.085.27-.19.42-.256.614-.267 1.286-.232 1.932-.151.234.07.478.116.703.214.764.33 1.43 1.06 1.194 1.953-.052.196-.176.366-.265.549-.163.16-.309.339-.489.479-.752.586-1.869.986-2.822.73-.224-.06-.422-.188-.633-.283-.173-.171-.376-.317-.519-.514-.961-1.32-.399-3.121.048-4.509.615-1.39 1.32-2.765 2.446-3.817z" style="fill:#ff0;stroke:#000;stroke-dashoffset:1.02"/><path id="path59" d="M-80.177 306.618c-.203.143-.78.351-.33-.1.114-.103.396-.325.497-.102-.101-.224-.383-.003-.498.101-.449.451.127.246.331.102z" style="fill:#ff0;stroke:#000;stroke-dashoffset:1.02"/><path id="path60" d="M-76.444 298.286c-.724-.27-1.457-.154-2.107.232-.073.084-.165.155-.22.252-.477.852.37 1.897.827 2.535.915 1.155 2.128 2.011 3.15 3.06.786.884.256 1.235-.651 1.567-1.212.255-2.406.16-3.496-.438-.095-.086-.209-.154-.284-.256-.486-.661.563-1.44.962-1.813.822-.73 1.823-1.276 2.47-2.19.11-.156.192-.331.288-.497.435-1.163.203-1.82-.582-2.728l-.369-.265.368.266c.785.906 1.017 1.564.582 2.726-.096.166-.177.342-.288.498-.647.914-1.648 1.46-2.47 2.19-.4.373-1.448 1.152-.962 1.814.075.102.19.17.284.255 1.09.6 2.285.694 3.497.44.908-.333 1.438-.685.651-1.569-1.021-1.05-2.234-1.905-3.15-3.06-.457-.638-1.303-1.683-.825-2.535.054-.096.145-.167.218-.251.65-.386 1.383-.502 2.107-.232z" style="fill:#ff0;stroke:#000;stroke-dashoffset:1.02"/><path id="path61" d="M-19.928 303.573c1.12-.014 2.238.086 3.356.15a103.76 103.76 0 0 1 0-.001c-1.118-.064-2.236-.164-3.356-.15z" style="fill:#ff0;stroke:#000;stroke-dashoffset:1.02"/><path id="path62" d="M-11.964 299.063c.826-.152 1.648-.33 2.481-.437v-.001c-.833.108-1.655.285-2.481.437z" style="fill:#ff0;stroke:#000;stroke-dashoffset:1.02"/><path id="path63" d="M-12.67 299.799c-.111.534-.539 1.387-.47 1.92.01.07.057.132.085.198.071.03.138.074.214.09.442.088.9.016 1.346.113.636.138.661.203 1.253.511.704.516 2.069 1.468 1.843 2.518-.035.159-.137.295-.205.442-.91 1.016-2.258 1.125-3.535.969l-.35-.092.35.093c1.277.156 2.626.047 3.536-.97.068-.147.17-.283.205-.442.226-1.05-1.14-2.003-1.843-2.518-.593-.309-.617-.374-1.254-.512-.446-.097-.904-.025-1.345-.114-.076-.015-.143-.059-.214-.088-.028-.066-.075-.127-.084-.199-.07-.532.358-1.385.468-1.92z" style="fill:#ff0;stroke:#000;stroke-dashoffset:1.02"/><path id="path64" d="M-6.478 306.678c-.14.303-.957.697-.287.262.079-.074.98-.474.606-.059-.219.137-.105.073-.34.191.236-.117.122-.053.341-.19.373-.417-.528-.017-.607.057-.67.435.146.045.288-.26z" style="fill:#ff0;stroke:#000;stroke-dashoffset:1.02"/><path id="path65" d="M-5.273 299.282c.877-.34 1.791-.643 2.74-.69.223-.011.446.011.67.017 1.573.298 1.61.96 1.28 2.361-.665 1.789-1.67 3.42-2.533 5.115-.016.138-.71 1.353-.434 1.387.883-.162 1.777-.223 2.671-.283.834.022 1.686-.18 2.518-.093v-.001c-.832-.088-1.684.115-2.518.093-.894.06-1.788.121-2.671.283-.275-.031.42-1.249.435-1.386.863-1.695 1.868-3.326 2.532-5.115.331-1.401.294-2.064-1.28-2.362-.224-.006-.448-.028-.67-.017-.95.047-1.864.35-2.741.69z" style="fill:#ff0;stroke:#000;stroke-dashoffset:1.02"/><path id="path66" d="M47.002 307.205c-.6.863-1.127 1.827-1.356 2.862-.06.269-.078.544-.117.816-.038 1.764.71 3.328 1.64 4.776.398.505.202.278.582.689-.38-.412-.183-.184-.58-.69-.931-1.447-1.679-3.011-1.641-4.774.039-.272.057-.548.117-.817.229-1.035.757-1.999 1.356-2.861z" style="fill:#ff0;stroke:#000;stroke-dashoffset:1.02"/><path id="path67" d="M49.57 312.284c.93-.055 1.85-.263 2.651-.748.596-.637.043-.914-.56-1.158-1.034-.19-1.846.2-2.627.84-.773.798-.653 1.613-.247 2.565.659 1.197 1.942 1.412 3.198 1.4.726-.106.381-.039 1.035-.193-.654.153-.31.086-1.035.191-1.256.014-2.538-.202-3.197-1.399-.406-.951-.526-1.765.246-2.564.781-.639 1.593-1.028 2.626-.839.603.243 1.155.52.56 1.157-.8.484-1.72.692-2.65.747z" style="fill:#ff0;stroke:#000;stroke-dashoffset:1.02"/><path id="path68" d="M54.837 305.742c-.022 1.741.093 3.48.22 5.216.088.93.219 1.855.366 2.777h.001a43.791 43.791 0 0 1-.366-2.777c-.127-1.736-.242-3.475-.22-5.216z" style="fill:#ff0;stroke:#000;stroke-dashoffset:1.02"/><path id="path70" d="M52.059 308.053a45.716 45.716 0 0 0 3.425-.071c.66-.046 1.32-.095 1.977-.162.135-.01.146.005.135-.13l-.005-.043.004.043c.011.134.001.12-.134.129-.658.067-1.317.116-1.977.162-1.141.07-2.282.087-3.425.07z" style="fill:#ff0;stroke:#000;stroke-dashoffset:1.02"/><path id="path71" d="M60.412 309.824c-1.137.321-2.135 1.027-2.97 1.843-.791 1.143-.396 1.937.518 2.807.765.572 1.642.577 2.527.346.265-.09.144-.044.363-.136v-.001c-.219.092-.098.045-.363.136-.885.231-1.761.226-2.526-.345-.914-.87-1.31-1.663-.519-2.807.836-.815 1.834-1.52 2.97-1.842z" style="fill:#ff0;stroke:#000;stroke-dashoffset:1.02"/><path id="path72" d="M62.92 304.628c.095.057.197.102.284.171 1.231.985 2.212 2.774 3.014 4.113.887 1.598 1.65 3.377 1.31 5.244-.048.262-.147.512-.22.768-.206.579-.553 1.07-.915 1.556.363-.485.71-.977.915-1.556.074-.256.173-.506.221-.768.34-1.867-.423-3.647-1.31-5.244-.802-1.34-1.783-3.13-3.015-4.113-.086-.07-.189-.115-.283-.172z" style="fill:#ff0;stroke:#000;stroke-dashoffset:1.02"/><path id="path73" d="M63.389 314.902c.255-.253.634-.706 1.04-.592.156.38-.307.653-.608.745-.335.036-.51-.172-.664-.435.154.264.33.472.665.436.3-.092.765-.366.607-.747-.406-.114-.785.339-1.04.593z" style="fill:#ff0;stroke:#000;stroke-dashoffset:1.02"/><path id="path76" d="M56.609 290.311c.361 1.329.944 2.586 1.585 3.8l.311.544h.001l-.311-.544c-.641-1.214-1.224-2.471-1.585-3.8z" style="fill:#ff0;stroke:#000;stroke-dashoffset:1.02"/><path id="path77" d="M56.51 291.07c1.187-.286 2.426-.092 3.62.06l.467.067-.467-.068c-1.194-.152-2.433-.346-3.621-.06z" style="fill:#ff0;stroke:#000;stroke-dashoffset:1.02"/><path id="path78" d="M57.226 290.91c1.305.398 2.403 1.212 3.457 2.049 1.127.972 2.161 2.112 2.78 3.484.113.252.195.517.293.775.471 1.877-.274 3.323-1.352 4.804-.362.486-.818.888-1.184 1.369h.001c.366-.48.822-.883 1.184-1.368 1.078-1.482 1.823-2.928 1.352-4.805-.098-.258-.18-.524-.294-.776-.618-1.372-1.652-2.512-2.78-3.484-1.054-.837-2.152-1.65-3.457-2.05z" style="fill:#ff0;stroke:#000;stroke-dashoffset:1.02"/><path id="path83" d="M521.129 137.698c.139.008.286 0 .425.03.528.109.968.422 1.379.742.873.866 1.328 1.58 1.166 2.846-.044.16-.073.328-.132.488-.345.917-1.107 1.529-2.01 1.87-.183.044-.359.103-.535.125-.895.109-1.628-.343-2.156-1.02-.081-.16-.176-.313-.235-.48-.338-.975-.008-1.995.499-2.846.11-.153.205-.32.33-.466.403-.473.96-.86 1.599-.91" style="fill:none;stroke:#000;stroke-width:.999998;stroke-dashoffset:1.02"/><path id="path84" d="M524.803 143.857c.374.058.756.073 1.093-.131.352-.335.037-.495-.337-.422-.44.116-.807.342-.888.822" style="fill:none;stroke:#000;stroke-width:.999998;stroke-dashoffset:1.02"/><path id="path85" d="M529.409 140.595c-.11.087-.213.167-.323.247-.462.415-1.203 1.092-1.313 1.726-.015.087 0 .174.008.262.037.072.059.152.11.21.382.474 1.21.605 1.768.721.74.03 1.599.03 2.23-.407.029-.044.066-.088.088-.139.139-.4-.426-.764-.646-.997-.814-.691-1.665-1.347-2.398-2.126-.5-.706-.763-1.274-.22-2.052.462-.48.968-.736 1.613-.408.602.51.83 1.02.499 1.769a5.04 5.04 0 0 1-1.46 1.347" style="fill:none;stroke:#000;stroke-width:.999998;stroke-dashoffset:1.02"/><path id="path86" d="M445.06 140.845c-.477.051-1.31.057-1.74.051-.508-.007-1.665 0-2.5 0" style="fill:none;stroke:#000;stroke-width:.999999;stroke-dashoffset:1.02"/><path id="path87" d="M449.554 137.45c.514.041 1.007.177 1.436.46.44.292.801.955.957 1.454.326 1.042.19 2.154-.303 2.957-.433.706-1.225 1.267-2.092 1.311-.675.035-1.387-.107-1.953-.478-.759-.498-1.12-1.453-1.007-2.339.112-.883.59-1.68 1.202-2.313a4.12 4.12 0 0 1 1.557-.994" style="fill:none;stroke:#000;stroke-width:.999999;stroke-dashoffset:1.02"/><path id="path88" d="M453.043 143.499c.196.081.4.147.611.096.423-.17.038-.34-.211-.384-.423 0-.634.133-.68.568" style="fill:none;stroke:#000;stroke-width:.999999;stroke-dashoffset:1.02"/><path id="path93" d="M457.568 140.217c-.462.417-.939.82-1.43 1.201-.223.191-.88.7-.83 1.053.008.042.044.085.058.127.404.424.96.608 1.523.756.838.17 1.725.297 2.556.007.065-.035.144-.063.202-.113.368-.31-.13-.82-.296-1.08-.794-.933-1.718-1.774-2.325-2.848-.281-.622-.613-1.286.05-1.773.477-.262.997-.389 1.437 0 .412.402.498.798.231 1.314-.317.445-.7.84-1.147 1.165" style="fill:none;stroke:#000;stroke-width:.999999;stroke-dashoffset:1.02"/><path id="path185" d="M-53.328 156.84c.63-.06 1.266-.092 1.899-.132a81.827 81.827 0 0 1 2.855-.105v-.001c-.952.022-1.905.05-2.856.105-.633.04-1.267.072-1.898.133z" style="fill:#ff0;stroke:#000;stroke-dashoffset:1.02"/><path id="path186" d="M-41.685 152.99c-.579.074-1.16.197-1.699.427-.144.062-.282.138-.423.207-.508.307-.98.717-1.175 1.299-.112.337-.071.426-.044.768.047.116.077.241.141.349.213.353.577.557.98.61.386.052.552-.012.931-.084.808-.276 1.347-.725 1.66-1.531.046-.12.074-.247.112-.37.034-.242.14-.734.015-.972-.071.085-.07.252-.081.351-.035.332-.03.326-.056.701a25.566 25.566 0 0 0 .03 3.171c.02.418.07.833.145 1.244h.001a9.693 9.693 0 0 1-.146-1.244 25.563 25.563 0 0 1-.03-3.17c.026-.376.022-.37.057-.701.01-.104.011-.261.08-.351.124.237.018.73-.016.97-.037.124-.066.25-.112.37-.313.806-.851 1.256-1.66 1.531-.377.072-.544.136-.93.085-.402-.053-.767-.258-.979-.61-.064-.108-.094-.233-.141-.35-.027-.34-.068-.43.044-.767.194-.582.667-.991 1.174-1.298.141-.069.28-.145.424-.207.539-.23 1.12-.353 1.699-.428z" style="fill:#ff0;stroke:#000;stroke-dashoffset:1.02"/><path id="path187" d="M-39.016 159.438c.104-.174.267-.357.471-.413.041-.012.085-.01.127-.014.23.037.35.236.27.46-.017.043-.045.08-.067.121-.15.174-.326.183-.536.14.21.044.386.035.536-.14.023-.04.051-.078.067-.122.081-.224-.04-.423-.27-.46-.043.005-.086.002-.127.014-.204.057-.368.24-.472.414z" style="fill:#ff0;stroke:#000;stroke-dashoffset:1.02"/><path id="path188" d="M-33.53 156.535c.315-.313.614-.647.828-1.038.058-.106.105-.217.157-.325.182-.48.35-1.044.134-1.545-.032-.076-.083-.143-.125-.215-.34-.412-.525-.487-1.032-.308-.06.039-.127.07-.183.115-.301.24-.434.634-.48 1.004-.016.125-.013.251-.02.377.048 1.031.565 1.937 1.092 2.796.274.432.583.842.873 1.263.115.166.289.42.382.609.036.073.06.152.09.229.004.062.023.125.012.187-.07.403-.828.402-1.111.408-.505-.03-1.011-.145-1.448-.41-.235-.143-.315-.234-.514-.416-.225-.262-.386-.58-.256-.927.083-.22.208-.347.352-.53.293-.318.612-.61.924-.908-.312.298-.632.59-.924.907-.145.184-.27.31-.353.53-.13.349.031.667.256.929.2.182.279.272.515.416.436.265.943.38 1.448.41.284-.007 1.042-.006 1.112-.41.01-.06-.008-.124-.012-.187-.03-.076-.054-.155-.09-.228a5.752 5.752 0 0 0-.382-.61c-.29-.421-.599-.83-.873-1.263-.527-.858-1.044-1.764-1.092-2.795.007-.126.004-.252.02-.377.045-.37.179-.763.48-1.003.056-.045.122-.077.183-.115.506-.179.69-.104 1.03.308.042.071.093.138.125.215.215.5.048 1.063-.134 1.543-.052.109-.099.22-.157.325-.214.391-.513.725-.827 1.038z" style="fill:#ff0;stroke:#000;stroke-dashoffset:1.02"/></g></svg>