<svg xmlns="http://www.w3.org/2000/svg" xmlns:xlink="http://www.w3.org/1999/xlink" width="550" height="400" viewBox="0 0 412.5 300"><defs><symbol id="b" overflow="visible" style="overflow:visible"><path d="M1.531-3.297c.578 0 .813.031 1.047.11.625.234 1.016.796 1.016 1.484 0 .828-.578 1.484-1.313 1.484-.265 0-.469-.078-.828-.312-.312-.172-.469-.25-.64-.25-.235 0-.391.14-.391.36 0 .343.437.562 1.14.562.766 0 1.547-.266 2.016-.672.469-.406.735-.985.735-1.656 0-.5-.172-.97-.454-1.282-.203-.219-.39-.344-.828-.531.688-.469.938-.828.938-1.375 0-.813-.64-1.36-1.563-1.36-.5 0-.937.173-1.297.485-.296.266-.437.531-.656 1.125l.14.047c.407-.734.86-1.063 1.485-1.063.656 0 1.11.438 1.11 1.063a1.4 1.4 0 0 1-.407.969c-.297.296-.578.453-1.25.687zm0 0" style="stroke:none"/></symbol><symbol id="c" overflow="visible" style="overflow:visible"><path d="M6.563-2.297c.171 0 .359 0 .359-.203 0-.188-.188-.188-.36-.188h-5.39c-.172 0-.344 0-.344.188 0 .203.172.203.344.203zm0 0" style="stroke:none"/></symbol><clipPath id="a" clipPathUnits="userSpaceOnUse"><path d="M168.596 2840.855c-7.258-.475-9.013-.641-16.087-2.264-9.463-2.136-18.853-5.671-26.024-12.454-1.526-1.443-2.799-3.133-4.198-4.699-1.085-1.816-2.347-3.538-3.254-5.449-2.692-5.674-3.946-12.799-3.313-19.054.61-6.036 1.793-7.838 4.03-13.432 1.294-2.1 2.427-4.305 3.88-6.297 4.024-5.518 9.7-9.92 16.014-12.53.536-.22.37-.14.843-.311-2.827-.478-3.453-.777-6.302-1.701-5.536-2.273-9.73-5.066-12.64-10.488-2.29-4.264-2.702-6.862-4.02-11.6-2.267-11.288-2.494-22.934.092-34.202 1.914-8.336 3.364-10.66 6.796-18.603 1.744-3.05 3.332-6.194 5.231-9.15 5.8-9.023 12.885-17.263 21.44-23.785 6.809-5.19 8.58-5.564 16.086-9.103 2.556-.797 5.064-1.771 7.67-2.39 6.907-1.642 15.895-2.357 22.598.61.86.38 1.599.989 2.399 1.483.44.4 2.64 2.422 1.338 3.327-.825.573-1.5-1.146-1.562-1.343-.186-.593-.175-1.23-.263-1.846.176-.877.217-1.792.528-2.63 2.252-6.082 7.664-10.322 12.963-13.656 1.942-1.223 3.998-2.255 5.998-3.383 2.324-1.04 4.608-2.175 6.972-3.122 5.543-2.22 10.247-3.649 16.073-5.023 5.61-1.324 11.172-2.295 16.93-2.688 3.01-.206 6.033-.135 9.05-.202 3.046.22 6.122.187 9.139.66 6.493 1.017 13.387 3.177 19.336 5.96 5.033 2.353 10.637 5.8 14.583 9.828 1.81 1.848 3.157 4.098 4.736 6.147 1.013 2.137 2.23 4.188 3.04 6.41 2.506 6.889 2.85 14.842 1.912 22.053-.11.849-.28 1.397-.435 2.239a6.04 6.04 0 0 1-.392 1.255c.643-.323.469-.272 1.115-.572 2.31-1.072 3.702-1.543 6.437-2.088 7.086-1.384 12.298-1.358 18.8-.51 4.437.579 6.046 1.266 10.296 2.569 1.625.758 3.316 1.387 4.874 2.274a38.072 38.072 0 0 1 12.946 12.121c2.98 4.535 3.41 6.528 5.322 11.591.507 2.172 1.134 4.32 1.52 6.516 1.591 9.062 1.025 18.972-1.723 27.763-.672 2.15-1.631 4.201-2.447 6.302-2.432 5.15-5.796 9.577-10.27 13.1-1.398 1.1-2.365 1.863-4.062 2.511 1.453.142 2.772.535 3.418.744.897.29 1.747.709 2.62 1.063.929.592 1.9 1.121 2.787 1.775 4.09 3.015 7.657 7.545 9.625 12.225.615 1.46.99 3.01 1.486 4.516.286 1.696.695 3.377.857 5.09.697 7.342-.483 15.543-2.706 22.552-.565 1.785-1.31 3.508-1.964 5.263-.89 1.814-1.678 3.683-2.672 5.443-3.767 6.674-9.585 13.62-15.892 18.022-1.555 1.085-3.263 1.931-4.895 2.897-6.899 3.366-13.81 5.26-21.491 4.837-.135-.01-.097-.01-.231-.026.856.805.952 1.088 1.684 2.089.257.519.591 1.007.773 1.558 1.217 3.693.141 7.833-1.792 11.072-.701 1.177-1.64 2.195-2.459 3.292-1.128 1.132-2.178 2.347-3.384 3.396-5.75 5.003-12.57 8.154-19.796 10.393-1.936.6-3.915 1.049-5.872 1.573-6.615 1.473-13.544 2.448-20.093.116-2.8-.998-3.204-1.538-5.42-3.207-.49-.555-.793-.812-1.376-1.823-.495-1.198-.637-1.526-.951-2.638a9.844 9.844 0 0 1-.641.831c-.368.439-.758.86-1.167 1.26-3.437 3.367-7.818 5.338-12.126 7.331-6.595 2.798-14.61 4.535-21.72 5.525-4.412.615-9.792.75-16.7.96-6.28-.104-8.428-.335-12.866-.641-7.141-.589-10.174-1.356-15.24-2.749-2.203-.605-4.56-1.62-6.652-2.426-5.757-2.658-9.945-5.335-14.16-9.811-2.58-2.742-4.449-5.869-6.253-9.16-.77-1.403-1.406-2.877-2.11-4.315-1.113-2.607-2.104-5.4-2.597-8.028a21.311 21.311 0 0 1-.371-2.14" style="display:inline;opacity:1;fill:none;fill-opacity:1;stroke:#000;stroke-width:.64;stroke-linecap:square;stroke-linejoin:miter;stroke-miterlimit:100;stroke-dasharray:none;stroke-opacity:1"/></clipPath></defs><g style="display:inline"><path d="M171.572 249.94c-2.413 1.237-6.185 2.383-10.281 2.895-7.133.89-17.177.37-25.537-3.843-7.74-3.9-14.675-11.733-15.618-19.693-.778-6.558 1.76-11.642 4.319-13.642 1.947-1.523 2.955-1.47 3.341-1.389 1.637.344 1.472.724-.268.6-1.501-.107-2.976-.358-5.646-1.649-3.968-1.919-8.986-5.197-12.917-9.737-4.587-5.298-8.19-12.454-9.565-19.716-.268-1.412-.385-2.851-.577-4.277-.443-7.59.941-15.617 5.029-21.6.637-.932 5.304-7.51 11.605-9.643 1.416-.48 1.966-.464 2.621-.372 1.153.163.052 1.904-1.236 1.232-6.109-3.188-9.798-9.826-11.062-12.433-2.82-5.82-3.208-12.446-2.132-19.059.205-1.262.717-3.358 1.134-4.539 2.772-7.838 7.534-13.003 12.529-15.621 4.276-2.242 8.346-2.452 11.126-1.835.474.105.948.26 1.423.391.025.014 1.329.61 1.395.953.561.176 1.159.465 1.052.846-1.256-1.01-1.312-1.141-2.133-2.487-.615-1.01-1.7-3.089-2.119-4.2-3.047-8.058-1.626-20.653 2.728-28.174 4.94-8.532 11.664-15.828 21.052-19.901 3.526-1.53 7.67-2.817 11.25-3.17 12.71-1.251 19.627 1.431 24.32 4.86 2.015 1.47 4.048 3.538 5.435 5.414.923 1.248 2.414 3.9 2.616 4.652.464 1.73-1.311 2.287-1.359.193-.075-3.283 2.107-7.72 4.752-10.812 3.767-4.402 8.413-7.834 15.126-10.807 7.1-3.145 13.402-4.233 21.699-4.553 19.073-.737 37.273 6.6 51.99 21.652 4.195 4.292 8.94 11.872 10.756 16.784 1.932 5.223 2.532 10.97 2.133 15.446-.472 5.283-2.203 9.719-4.027 12.385-.671.98-1.238 1.387-2.077 1.843-.545.295-.735.248-1.02.182-.955-.22-.7-1.504-.154-1.91 1.062-.786 2.734-1.15 4.236-1.027 1.672.136 4.71.403 9.484 3.615 4.076 2.742 7.132 6.308 9.811 10.82 3.079 5.187 4.775 11.873 5.307 15.268.787 5.022.655 10.401.024 15.504-.37 2.997-2.115 10.005-3.383 12.63-2.813 5.825-4.251 7.469-7.937 9.706-2.337 1.42-5.069 1.935-5.861 1.244-.201-.176-.067-.579-.052-.868.077-1.516 2.223-1.867 3.76-1.426 1.613.463 3.858 1.706 5.083 2.936a20.97 20.97 0 0 1 5.336 9.24c1.367 4.99 1.916 12.255-.207 18.32-1.975 5.645-4.823 8.604-7.347 10.584-2.926 2.297-7.882 3.832-11.694 2.13-1.877-.837-2.83-2.732-.677-3.387 1.219-.37 2.708.952 3.652 2.183 1.368 1.782 2.374 3.954 3.228 6.366 1.22 3.444 1.366 9.349.973 12.145-.626 4.451-2.337 9.036-4.387 12.164-2.923 4.462-8.798 9.605-11.929 11.67-6.682 4.408-15.417 6.132-21.35 4.785-4.065-.924-9-4.038-9.835-6.776-.34-1.117 1.255-1.608 1.683-.09 1.08 3.83-1.956 8.55-3.693 10.85-1.523 2.015-4.069 4.592-6.557 6.518-4.653 3.603-10.879 6.791-18.895 8.788-4.49 1.118-11.16 1.991-19.134 1.514-8.872-.532-20.307-2.966-29.96-8.503-5.958-3.418-8.797-6.559-11.134-9.286-.997-1.165-1.923-2.559-2.745-4.584" style="display:inline;opacity:1;fill:#fff9f3;fill-opacity:1;stroke:#000;stroke-width:.596413;stroke-linecap:butt;stroke-linejoin:miter;stroke-miterlimit:100;stroke-dasharray:none;stroke-dashoffset:0;stroke-opacity:1"/><path d="M70.53 159.991c-1.78-.542-3.532-.493-5.438-.06-1.253.286-2.607.832-4.133 1.72a21.024 21.024 0 0 0-7.154 6.855c-1.267 1.982-1.332 2.526-2.161 4.786-.192.867-.45 1.718-.577 2.602-.315 2.22-.286 4.925.389 7.06.587 1.86 1.063 2.38 2.062 3.986.516.636.994 1.32 1.55 1.908 1.904 2.01 4.124 3.27 6.637 3.805 2.542.541 4.22.6 6.388.395 1.023-.097 1.824-.108 2.81-.41 3.308-1.02 6.576-3.184 8.77-6.365.452-.656.775-1.516 1.097-2.255.292-.67.776-2.318.931-3.035.653-3.012.397-6.394-.44-9.268-.232-.796-1.013-2.53-1.44-3.248-1.53-2.574-2.343-3.705-4.473-5.586-1.175-1.038-1.92-1.362-2.61-1.827-.835-.562-4.18-1.585-5.916-1.024" style="display:inline;opacity:1;fill:#fff9f3;fill-opacity:1;stroke:#000;stroke-width:.557856;stroke-linecap:square;stroke-linejoin:miter;stroke-miterlimit:100;stroke-dasharray:none;stroke-opacity:1"/><path d="M25.272 168.873c.517.107 1.038.23 1.475.337 1.868.574 3.754 1.504 5.121 3.111.43.506.726 1.138 1.088 1.707.636 1.52.937 1.915 1.135 3.55.18 1.492-.203 2.927-.926 4.176-.255.44-.593.812-.889 1.218-.36.33-.693.701-1.078.993-2.016 1.525-4.155 2.037-6.55 1.75-.498-.112-1.006-.178-1.493-.337-1.9-.62-3.983-2.25-5.132-4.066-.286-.452-.469-.977-.704-1.465-.104-.505-.272-1-.314-1.516-.044-.54-.003-1.086.06-1.623.223-1.922.837-3.738 2.053-5.143.39-.45.867-.79 1.301-1.184.597-.316 1.174-.684 1.79-.948 2.13-.911 4.489-.814 6.617.013" style="display:inline;opacity:1;fill:#fff9f3;fill-opacity:1;stroke:#000;stroke-width:.714645;stroke-linecap:square;stroke-linejoin:miter;stroke-miterlimit:100;stroke-dasharray:none;stroke-opacity:1"/></g><g style="display:inline" transform="translate(1.01 -363.61)"><path d="M-595.628 658.803c-7.272-.176-9.033-.27-16.167-1.6-9.543-1.743-19.07-4.889-26.515-11.37-1.584-1.38-2.926-3.015-4.389-4.522-1.158-1.77-2.49-3.438-3.475-5.31-2.923-5.56-4.47-12.626-4.096-18.902.361-6.056 1.469-7.905 3.474-13.587 1.205-2.15 2.247-4.401 3.617-6.451 3.793-5.68 9.283-10.31 15.484-13.18.526-.24.364-.155.829-.345-2.844-.361-3.482-.634-6.366-1.44-5.626-2.043-9.932-4.66-13.063-9.958-2.462-4.166-2.981-6.744-4.494-11.423-2.73-11.186-3.437-22.813-1.317-34.178 1.568-8.407 2.922-10.79 6.023-18.867 1.617-3.12 3.074-6.327 4.85-9.358 5.422-9.254 12.162-17.78 20.441-24.648 6.59-5.467 8.344-5.913 15.697-9.758 2.522-.902 4.987-1.98 7.565-2.705 6.834-1.925 15.784-3.01 22.604-.322.875.345 1.638.922 2.458 1.383.456.383 2.738 2.312 1.474 3.27-.8.606-1.546-1.083-1.616-1.278-.21-.585-.226-1.223-.339-1.834.14-.883.143-1.799.419-2.65 2-6.17 7.232-10.628 12.39-14.178 1.89-1.302 3.902-2.418 5.853-3.627 2.279-1.136 4.514-2.363 6.837-3.407 5.447-2.446 10.088-4.068 15.853-5.681 5.55-1.554 11.068-2.753 16.805-3.384 3-.33 6.022-.383 9.034-.575 3.052.094 6.124-.065 9.158.283 6.53.749 13.507 2.623 19.566 5.158 5.125 2.144 10.867 5.356 14.975 9.22 1.885 1.771 3.323 3.963 4.985 5.945 1.1 2.094 2.402 4.094 3.301 6.28 2.789 6.78 3.46 14.712 2.82 21.955-.075.853-.222 1.408-.342 2.255a6.04 6.04 0 0 1-.34 1.27c.629-.348.457-.291 1.09-.617 2.265-1.166 3.635-1.695 6.346-2.352 7.023-1.674 12.232-1.863 18.763-1.284 4.457.395 6.093 1.016 10.393 2.142 1.654.69 3.37 1.25 4.963 2.072a38.072 38.072 0 0 1 13.435 11.577c3.165 4.408 3.675 6.382 5.795 11.362.596 2.15 1.31 4.269 1.787 6.448 1.964 8.989 1.807 18.913-.577 27.81-.583 2.177-1.456 4.265-2.185 6.398-2.218 5.246-5.396 9.807-9.722 13.511-1.35 1.157-2.285 1.96-3.954 2.677 1.457.082 2.791.42 3.446.602.907.254 1.774.637 2.66.955.953.553 1.946 1.041 2.859 1.658 4.21 2.844 7.96 7.223 10.12 11.818.674 1.434 1.114 2.967 1.671 4.45.356 1.684.833 3.347 1.066 5.052 1 7.307.158 15.549-1.774 22.644-.491 1.806-1.164 3.56-1.746 5.339-.815 1.85-1.524 3.75-2.445 5.549-3.489 6.823-9.015 14.004-15.136 18.661-1.509 1.148-3.18 2.064-4.771 3.097-6.754 3.647-13.58 5.824-21.274 5.718-.135-.003-.097-.006-.232-.016.889.769.996 1.047 1.77 2.018.278.508.632.981.836 1.524 1.368 3.64.464 7.821-1.334 11.137-.653 1.204-1.548 2.26-2.322 3.39-1.08 1.178-2.08 2.435-3.24 3.533-5.54 5.236-12.223 8.665-19.352 11.2-1.909.68-3.868 1.21-5.802 1.814-6.549 1.744-13.431 3.004-20.071.943-2.84-.88-3.265-1.404-5.547-2.98-.512-.535-.826-.779-1.45-1.765-.545-1.177-.7-1.499-1.06-2.597a9.84 9.84 0 0 1-.606.858c-.35.453-.722.89-1.114 1.307-3.295 3.505-7.591 5.655-11.814 7.824-6.473 3.067-14.41 5.133-21.474 6.416-4.381.795-9.752 1.153-16.645 1.647-6.279.155-8.435.012-12.882-.111-7.16-.294-10.22-.935-15.34-2.118-2.226-.514-4.623-1.43-6.746-2.15-5.862-2.418-10.157-4.92-14.552-9.22-2.692-2.632-4.687-5.68-6.626-8.893-.827-1.371-1.524-2.817-2.285-4.225-1.22-2.559-2.326-5.31-2.926-7.914a21.311 21.311 0 0 1-.46-2.124" style="display:inline;opacity:1;fill:none;fill-opacity:1;stroke:#000;stroke-width:.64;stroke-linecap:square;stroke-linejoin:miter;stroke-miterlimit:100;stroke-dasharray:none;stroke-opacity:1"/><g style="display:inline"><path d="M201.065 2830.423V2621.79h176.883v208.633zm0 0" style="fill:#fff;fill-opacity:1;fill-rule:nonzero;stroke:#fff;stroke-width:.12;stroke-linecap:butt;stroke-linejoin:miter;stroke-miterlimit:10;stroke-opacity:1" transform="rotate(2.143 57569.207 -20048.85)"/><path d="M210.135 2789.602V2630.86h158.742v158.742zm0 0" style="fill:#fafafa;fill-opacity:1;fill-rule:nonzero;stroke:#fafafa;stroke-width:.12;stroke-linecap:butt;stroke-linejoin:miter;stroke-miterlimit:10;stroke-opacity:1" transform="rotate(2.143 57569.207 -20048.85)"/><path d="M210.135 2778.262h158.742m-158.742-22.675h158.742m-158.742-22.68h158.742m-158.742-22.676h158.742m-158.742-22.68h158.742m-158.742-22.675h158.742m-158.742-22.68h158.742m-147.406 147.406V2630.86m22.68 158.742V2630.86m22.676 158.742V2630.86m22.68 158.742V2630.86m22.675 158.742V2630.86m22.68 158.742V2630.86m22.676 158.742V2630.86" style="fill:none;stroke:#9e9ed1;stroke-width:.19925;stroke-linecap:butt;stroke-linejoin:miter;stroke-miterlimit:10;stroke-opacity:1" transform="rotate(2.143 57569.207 -20048.85)"/><path d="M210.135 2710.231h158.742M289.506 2789.602V2630.86" style="fill:none;stroke:#000;stroke-width:.3985;stroke-linecap:butt;stroke-linejoin:miter;stroke-miterlimit:10;stroke-opacity:1" transform="rotate(2.143 57569.207 -20048.85)"/><path d="M279.3 2646.731v-9.07h7.484v9.07zm0 0" style="fill:#fafafa;fill-opacity:1;fill-rule:nonzero;stroke:#fafafa;stroke-width:.3985;stroke-linecap:butt;stroke-linejoin:miter;stroke-miterlimit:10;stroke-opacity:1" transform="rotate(2.143 57569.207 -20048.85)"/><use xlink:href="#b" width="100%" height="100%" x="297.01" y="269.055" style="fill:#b0b0d9;fill-opacity:1" transform="rotate(2.143 -5944.242 -21667.906)"/><path d="M271.588 2783.25v-9.07h15.422v9.07zm0 0" style="fill:#fafafa;fill-opacity:1;fill-rule:nonzero;stroke:#fafafa;stroke-width:.3985;stroke-linecap:butt;stroke-linejoin:miter;stroke-miterlimit:10;stroke-opacity:1" transform="rotate(2.143 57569.207 -20048.85)"/><use xlink:href="#c" width="100%" height="100%" x="289.285" y="405.236" style="fill:#b0b0d9;fill-opacity:1" transform="rotate(2.143 -5944.242 -21667.906)"/><use xlink:href="#b" width="100%" height="100%" x="297.026" y="405.236" style="fill:#b0b0d9;fill-opacity:1" transform="rotate(2.143 -5944.242 -21667.906)"/><path d="M214.67 2724.97v-10.883h13.606v10.882zm0 0" style="fill:#fafafa;fill-opacity:1;fill-rule:nonzero;stroke:#fafafa;stroke-width:.3985;stroke-linecap:butt;stroke-linejoin:miter;stroke-miterlimit:10;stroke-opacity:1" transform="rotate(2.143 57569.207 -20048.85)"/><use xlink:href="#c" width="100%" height="100%" x="231.231" y="345.821" style="fill:#b0b0d9;fill-opacity:1" transform="rotate(2.143 -5944.242 -21667.906)"/><use xlink:href="#b" width="100%" height="100%" x="238.972" y="345.821" style="fill:#b0b0d9;fill-opacity:1" transform="rotate(2.143 -5944.242 -21667.906)"/><path d="M350.733 2724.97v-10.883h13.61v10.882zm0 0" style="fill:#fafafa;fill-opacity:1;fill-rule:nonzero;stroke:#fafafa;stroke-width:.3985;stroke-linecap:butt;stroke-linejoin:miter;stroke-miterlimit:10;stroke-opacity:1" transform="rotate(2.143 57569.207 -20048.85)"/><use xlink:href="#b" width="100%" height="100%" x="371.165" y="346.157" style="fill:#b0b0d9;fill-opacity:1" transform="rotate(2.143 -5944.242 -21667.906)"/><path d="M221.471 2710.208h1.363l2.72-.047 1.362-.02 1.36-.023 1.36-.047 1.362-.047 2.72-.18 1.362-.137 1.36-.18 1.36-.203 1.363-.296 1.359-.364 1.36-.453 1.363-.543 1.359-.703 1.36-.84 1.363-1.02 1.359-1.202 1.36-1.407 1.363-1.675 1.359-1.907 1.36-2.199 1.363-2.45 1.359-2.745 1.36-3.04 1.363-3.265 1.36-3.535 1.358-3.719 1.364-3.902 1.36-4.016 2.718-8.117 1.363-3.992 1.36-3.832 1.363-3.63 1.36-3.308 1.359-2.972 1.359-2.563 1.363-2.086 1.36-1.562 1.359-1.024 1.363-.453 1.36.113 1.359.704 1.363 1.27 1.36 1.815 1.359 2.336 1.363 2.832 1.36 3.29 1.359 3.718 1.363 4.059 1.36 4.402 1.359 4.692 1.363 4.898 1.36 5.125 1.36 5.262 1.362 5.398 1.36 5.442 1.36 5.511 1.362 5.535 1.36 5.489 1.36 5.465 1.362 5.328 1.36 5.148 1.36 4.965 1.362 4.719 1.36 4.422 1.36 4.125 1.362 3.742 1.36 3.336 1.36 2.808 1.363 2.246 1.359 1.59 1.36.836 1.363.047 1.359-.816 1.36-1.723 1.363-2.61 1.359-3.421 1.36-4.082 1.363-4.606 1.359-4.851 1.36-4.856 1.363-4.578 1.359-4.082 1.36-3.449 1.359-2.719 1.363-1.976 1.36-1.36 1.359-.859 1.363-.5 1.36-.25 1.359-.137 1.363-.043 1.36-.024h4.082" style="fill:none;stroke:red;stroke-width:.79701;stroke-linecap:butt;stroke-linejoin:miter;stroke-miterlimit:10;stroke-opacity:1" transform="rotate(2.143 57569.207 -20048.85)"/><path d="M223.288 2710.231a1.815 1.815 0 1 0-3.631-.002 1.815 1.815 0 0 0 3.63.002zM359.354 2710.231a1.815 1.815 0 1 0-3.631-.002 1.815 1.815 0 0 0 3.63.002zm0 0" style="fill:red;fill-opacity:1;fill-rule:nonzero;stroke:red;stroke-width:.3985;stroke-linecap:butt;stroke-linejoin:miter;stroke-miterlimit:10;stroke-opacity:1" transform="rotate(2.143 57569.207 -20048.85)"/><path d="M210.135 2789.602V2630.86h158.742v158.742zm0 0" style="fill:none;stroke:#000;stroke-width:.0498;stroke-linecap:butt;stroke-linejoin:miter;stroke-miterlimit:10;stroke-opacity:1" transform="rotate(2.143 57569.207 -20048.85)"/><path d="M201.065 2830.423V2621.79h176.883v208.633zm0 0" style="fill:none;stroke:#000;stroke-width:.3985;stroke-linecap:butt;stroke-linejoin:miter;stroke-miterlimit:10;stroke-opacity:1" transform="rotate(2.143 57569.207 -20048.85)"/></g><g style="display:inline"><path d="M-773.582 3148.227c.837 1.202 1.351 2.585 1.938 3.915.298.674 1.354 2.992 1.638 3.618.922 2.122 1.931 4.234 2.479 6.492l-1.549.625c-.391-2.263-1.407-4.357-2.311-6.448l-.868-1.874c-.27-.577-.543-1.153-.811-1.73-.59-1.271-1.116-2.606-1.974-3.727l1.458-.87z" style="fill:#000;fill-opacity:1;stroke:none;stroke-width:.5;stroke-miterlimit:4;stroke-dasharray:none;stroke-opacity:1" transform="matrix(.94995 -.00975 .00975 .94995 154.153 -2355.04)"/><path d="M-779.789 3155.54c3.049.437 6.115.779 9.197.778l-1.142 1.148c-3.1-.106-6.176-.477-9.264-.744l1.21-1.182zM-763.989 3149.531c-.398 2.998-.791 6.009-.88 9.035-.02.623 0 1.247 0 1.87.066 1.788.016.977.129 2.435l-1.543.543c-.055-1.496-.031-.667-.06-2.489.041-3.643.37-7.269.744-10.891l1.61-.503z" style="fill:#000;fill-opacity:1;stroke:none;stroke-width:.5;stroke-miterlimit:4;stroke-dasharray:none;stroke-opacity:1" transform="matrix(.94995 -.00975 .00975 .94995 154.153 -2355.04)"/><path d="M-766.647 3149.173c3.837.106 7.673.303 11.51.463l1.058.045-1.276 1.142c-.341-.025-.682-.05-1.022-.073-3.854-.243-7.713-.408-11.574-.415l1.304-1.16zM-764.693 3155.328c2.895.118 5.79.252 8.686.365l-1.232 1.093c-2.908-.158-5.818-.299-8.73-.3zM-755.365 3151.74c4.076.095 8.145.44 12.216.703 2.223.132 1.221.075 3.003.172l-1.028 1.243c-1.721-.177-.75-.083-2.915-.275-4.11-.309-8.223-.583-12.341-.556l1.065-1.287z" style="fill:#000;fill-opacity:1;stroke:none;stroke-width:.5;stroke-miterlimit:4;stroke-dasharray:none;stroke-opacity:1" transform="matrix(.94995 -.00975 .00975 .94995 154.153 -2355.04)"/><path d="M-747.639 3152.082a405.231 405.231 0 0 0-.211 10.07c-.01.846-.005 1.693-.015 2.54l-1.612.435c.063-.851.102-1.704.122-2.557.073-3.342.17-6.687.109-10.03l1.607-.458zM-737.71 3151.595c-.568 3.113-.602 6.28-.542 9.434a31.14 31.14 0 0 1-.065 2.376l-1.612.43c.13-.78.182-1.567.19-2.357-.024-3.165.027-6.334.418-9.478l1.61-.404z" style="fill:#000;fill-opacity:1;stroke:none;stroke-width:.5;stroke-miterlimit:4;stroke-dasharray:none;stroke-opacity:1" transform="matrix(.94995 -.00975 .00975 .94995 154.153 -2355.04)"/><path d="M-738.623 3150.842c3.579-.14 7.161-.091 10.74-.048.406.01.81.012 1.216.018l-1.085 1.14-1.175-.053c-3.598-.101-7.207-.127-10.8.17l1.104-1.227zM-737.936 3156.104c2.489.113 4.979.2 7.469.286l-1.122 1.11c-2.499-.128-5-.241-7.504-.22l1.157-1.177zM-738.661 3162.92c4.168.088 8.325.5 12.477.865l-1.081 1.077c-4.14-.48-8.312-.935-12.485-.747l1.089-1.195zM-722.196 3151.436c.028 4.032-.006 8.065-.026 12.097l-1.49.485c.166-4.015.22-8.038-.018-12.052l1.534-.53z" style="fill:#000;fill-opacity:1;stroke:none;stroke-width:.5;stroke-miterlimit:4;stroke-dasharray:none;stroke-opacity:1" transform="matrix(.94995 -.00975 .00975 .94995 154.153 -2355.04)"/><path d="M-724.508 3151.187c2.065.207 4.197.174 6.204.782.672.203 2.024.712 2.373 1.52.147.337.005.736.008 1.104-.259.382-.458.811-.776 1.145-.682.715-1.854 1.394-2.721 1.83-1.647.827-2.864 1.379-4.563 1.818-.57.106-.98.186-.984-.563 0-.052.032-.11.078-.133.507-.258 1.037-.465 1.556-.697.153.067.515.224.64.293.625.343 1.22.739 1.839 1.092.71.406 3.433 1.904 4.016 2.225 2.568 1.326 5.103 2.717 7.688 4.008l-1.386 1.092 1.247-1.186-1.236 1.108c-.517-.353-1.08-.661-1.622-.967a176.942 176.942 0 0 0-5.884-3.159c-5.756-3.066.93.488-4.104-2.169-.278-.147-1.685-1.008-2.196-1.073-.04-.01-.077.027-.115.04.425-.21.862-.397 1.276-.628.027-.015-.068-.01-.086-.035-.072-.095-.111-.21-.173-.31-.023-.037-.106-.067-.081-.103.032-.046.11-.01.166-.02.142-.023.284-.051.427-.078 2.891-.784-2.134.599 1.835-.589.03-.01.059.047.087.034 1.315-.616 2.593-1.335 3.5-2.5.061-.242.265-.49.182-.726-.254-.722-1.629-1.195-2.132-1.343-2.002-.588-4.132-.577-6.195-.62l1.133-1.191zM-773.318 3147.805c-2.038 3.24-4.117 6.454-6.173 9.683-.905 1.442-1.899 2.852-2.492 4.457l-1.517.326c.648-1.644 1.68-3.09 2.631-4.572 1.544-2.43 3.135-4.83 4.617-7.297.273-.455.523-.923.796-1.378.2-.333.415-.656.622-.984l1.516-.235z" style="fill:#000;fill-opacity:1;stroke:none;stroke-width:.5;stroke-miterlimit:4;stroke-dasharray:none;stroke-opacity:1" transform="matrix(.94995 -.00975 .00975 .94995 154.153 -2355.04)"/></g><path d="m142.79 591.646 5.817-155.43 131.777 4.931-5.817 155.43zm0 0" style="fill:#fff;fill-opacity:1;fill-rule:nonzero;stroke:#fff;stroke-width:.0894615;stroke-linecap:butt;stroke-linejoin:miter;stroke-miterlimit:10;stroke-opacity:1"/><path d="m150.686 561.488 4.426-118.262 118.262 4.426-4.426 118.262zm0 0" style="fill:#fafafa;fill-opacity:1;fill-rule:nonzero;stroke:#fafafa;stroke-width:.0894615;stroke-linecap:butt;stroke-linejoin:miter;stroke-miterlimit:10;stroke-opacity:1"/><path d="m151.002 553.04 118.262 4.426m-117.63-21.32 118.262 4.426m-117.63-21.322 118.262 4.426m-117.63-21.32 118.263 4.427M153.53 485.46l118.262 4.425m-117.63-21.319 118.262 4.426m-117.63-21.322 118.263 4.426M159.13 561.804l4.426-118.262m12.47 118.894 4.426-118.262m12.468 118.894 4.425-118.262m12.47 118.895 4.427-118.262m12.467 118.894 4.426-118.262m12.47 118.894 4.426-118.262M260.5 565.597l4.426-118.262" style="fill:none;stroke:#9e9ed1;stroke-width:.148544;stroke-linecap:butt;stroke-linejoin:miter;stroke-miterlimit:10;stroke-opacity:1"/><path d="m152.899 502.357 118.262 4.426M209.817 563.7l4.426-118.261" style="fill:none;stroke:#000;stroke-width:.297088;stroke-linecap:butt;stroke-linejoin:miter;stroke-miterlimit:10;stroke-opacity:1"/><path d="m206.196 456.978.253-6.757 5.576.208-.253 6.758zm0 0" style="fill:#fafafa;fill-opacity:1;fill-rule:nonzero;stroke:#fafafa;stroke-width:.297088;stroke-linecap:butt;stroke-linejoin:miter;stroke-miterlimit:10;stroke-opacity:1"/><use xlink:href="#b" width="100%" height="100%" x="297.01" y="269.055" style="fill:#b0b0d9;fill-opacity:1" transform="matrix(.745 .02788 -.02788 .745 -6.352 247.346)"/><path d="m196.645 558.47.253-6.758 11.49.43-.254 6.757zm0 0" style="fill:#fafafa;fill-opacity:1;fill-rule:nonzero;stroke:#fafafa;stroke-width:.297088;stroke-linecap:butt;stroke-linejoin:miter;stroke-miterlimit:10;stroke-opacity:1"/><use xlink:href="#c" width="100%" height="100%" x="289.285" y="405.236" style="fill:#b0b0d9;fill-opacity:1" transform="matrix(.745 .02788 -.02788 .745 -6.352 247.346)"/><use xlink:href="#b" width="100%" height="100%" x="297.026" y="405.236" style="fill:#b0b0d9;fill-opacity:1" transform="matrix(.745 .02788 -.02788 .745 -6.352 247.346)"/><path d="m155.866 513.463.304-8.107 10.136.379-.304 8.108zm0 0" style="fill:#fafafa;fill-opacity:1;fill-rule:nonzero;stroke:#fafafa;stroke-width:.297088;stroke-linecap:butt;stroke-linejoin:miter;stroke-miterlimit:10;stroke-opacity:1"/><use xlink:href="#c" width="100%" height="100%" x="231.231" y="345.821" style="fill:#b0b0d9;fill-opacity:1" transform="matrix(.745 .02788 -.02788 .745 -6.352 247.346)"/><use xlink:href="#b" width="100%" height="100%" x="238.972" y="345.821" style="fill:#b0b0d9;fill-opacity:1" transform="matrix(.745 .02788 -.02788 .745 -6.352 247.346)"/><path d="m257.232 517.257.304-8.108 10.139.38-.304 8.107zm0 0" style="fill:#fafafa;fill-opacity:1;fill-rule:nonzero;stroke:#fafafa;stroke-width:.297088;stroke-linecap:butt;stroke-linejoin:miter;stroke-miterlimit:10;stroke-opacity:1"/><use xlink:href="#b" width="100%" height="100%" x="371.165" y="346.157" style="fill:#b0b0d9;fill-opacity:1" transform="matrix(.745 .02788 -.02788 .745 -6.352 247.346)"/><path d="m162.803 502.702 1.584.032 1.016.023 1.014.021 1.014.003 1.017.003 2.03-.058 1.02-.064 1.017-.096 1.019-.113 1.023-.183 1.023-.233 1.026-.3 1.03-.366 1.033-.486 1.036-.588 1.044-.721 1.046-.859 1.052-1.01 1.063-1.21 1.065-1.382 1.074-1.6 1.084-1.787 1.09-2.008 1.097-2.227 1.107-2.394 1.111-2.596 1.117-2.733 1.124-2.869 1.125-2.954 2.251-5.971 1.127-2.936 1.12-2.817 1.117-2.666 1.105-2.427 1.095-2.176 1.084-1.871 1.074-1.517 1.057-1.126 1.04-.724 1.03-.3 1.009.123.993.561.98.984.962 1.391.948 1.778.936 2.148.921 2.488.91 2.809.902 3.061.89 3.318.882 3.533.879 3.687.87 3.856.866 3.958.865 4.06.86 4.092.86 4.144.861 4.161.86 4.127.86 4.11.867 4.007.87 3.873.874 3.737.884 3.553.89 3.332.897 3.111.911 2.826.92 2.524.935 2.13.953 1.711.968 1.222.99.661 1.014.073 1.035-.57 1.061-1.246 1.088-1.906 1.109-2.511 1.126-3.003 1.144-3.393 1.148-3.577 1.148-3.579 1.143-3.373 1.127-3.003 1.109-2.532 1.088-1.987 1.071-1.435 1.05-.975 1.037-.602 1.03-.334 1.02-.149 1.016-.064 1.017.006 1.014.02 1.49.056" style="fill:none;stroke:red;stroke-width:.656053;stroke-linecap:butt;stroke-linejoin:miter;stroke-miterlimit:10;stroke-dasharray:none;stroke-opacity:1"/><path d="m150.686 561.488 4.426-118.262 118.262 4.426-4.426 118.262zm0 0" style="fill:none;stroke:#000;stroke-width:.0371267;stroke-linecap:butt;stroke-linejoin:miter;stroke-miterlimit:10;stroke-opacity:1"/><path d="m142.79 591.646 5.817-155.43 131.777 4.931-5.817 155.43zm0 0" style="fill:none;stroke:#000;stroke-width:.357848;stroke-linecap:butt;stroke-linejoin:miter;stroke-miterlimit:10;stroke-dasharray:none;stroke-opacity:1"/><path d="M326.083 666.949c.807 1.133 1.309 2.442 1.88 3.7.289.637 1.314 2.829 1.59 3.42.897 2.008 1.876 4.004 2.419 6.144l-1.465.608c-.394-2.146-1.38-4.125-2.26-6.102l-.841-1.772c-.263-.545-.527-1.09-.788-1.636-.573-1.201-1.086-2.464-1.912-3.52l1.377-.842z" style="fill:#000;fill-opacity:1;stroke:none;stroke-width:.5;stroke-miterlimit:4;stroke-dasharray:none;stroke-opacity:1" transform="matrix(.74552 0 0 .74552 -52.283 75.183)"/><path d="M320.259 673.956c2.9.386 5.816.68 8.743.65l-1.074 1.102c-2.945-.071-5.871-.394-8.807-.617l1.138-1.135zM335.209 668.094c-.35 2.852-.694 5.716-.749 8.591-.011.593.012 1.185.019 1.777.08 1.697.025.927.146 2.311l-1.46.531c-.066-1.42-.036-.632-.08-2.363.002-3.461.28-6.909.6-10.354l1.524-.493z" style="fill:#000;fill-opacity:1;stroke:none;stroke-width:.5;stroke-miterlimit:4;stroke-dasharray:none;stroke-opacity:1" transform="matrix(.74552 0 0 .74552 -52.283 75.183)"/><path d="M332.68 667.78c3.646.063 7.292.213 10.938.328l1.006.032-1.201 1.097-.972-.06c-3.663-.192-7.33-.312-10.998-.28l1.227-1.116zM334.596 673.608c2.752.084 5.504.182 8.256.261l-1.16 1.05c-2.764-.12-5.53-.226-8.296-.198l1.2-1.113zM343.422 670.108c3.873.05 7.743.338 11.612.549 2.113.104 1.161.06 2.854.135l-.964 1.19c-1.637-.152-.713-.071-2.772-.233-3.906-.253-7.817-.474-11.729-.408l1-1.233z" style="fill:#000;fill-opacity:1;stroke:none;stroke-width:.5;stroke-miterlimit:4;stroke-dasharray:none;stroke-opacity:1" transform="matrix(.74552 0 0 .74552 -52.283 75.183)"/><path d="M350.765 670.358a385.008 385.008 0 0 0-.102 9.567c-.002.805.011 1.61.01 2.414l-1.527.429c.052-.81.08-1.62.091-2.43.037-3.176.097-6.354.006-9.53l1.522-.45zM360.192 669.799c-.508 2.963-.51 5.971-.422 8.966.015.753.003 1.507-.04 2.259l-1.526.423c.116-.741.157-1.49.157-2.24-.053-3.007-.035-6.017.305-9.008l1.526-.4z" style="fill:#000;fill-opacity:1;stroke:none;stroke-width:.5;stroke-miterlimit:4;stroke-dasharray:none;stroke-opacity:1" transform="matrix(.74552 0 0 .74552 -52.283 75.183)"/><path d="M359.318 669.092c3.398-.167 6.802-.156 10.203-.15.384.006.77.003 1.154.005l-1.019 1.093-1.117-.039c-3.42-.06-6.848-.05-10.258.267l1.037-1.176zM360.022 674.083c2.365.084 4.732.143 7.098.2l-1.055 1.065c-2.375-.097-4.753-.18-7.13-.136zM359.4 680.566c3.96.043 7.913.393 11.86.7l-1.016 1.034c-3.938-.415-7.905-.808-11.868-.588l1.023-1.146zM374.929 669.496c.065 3.83.073 7.661.093 11.492l-1.41.475c.117-3.815.13-7.638-.136-11.448l1.453-.519z" style="fill:#000;fill-opacity:1;stroke:none;stroke-width:.5;stroke-miterlimit:4;stroke-dasharray:none;stroke-opacity:1" transform="matrix(.74552 0 0 .74552 -52.283 75.183)"/><path d="M372.73 669.282c1.964.177 3.988.124 5.901.682.64.187 1.93.658 2.27 1.42.142.32.011.7.018 1.05-.242.365-.428.775-.727 1.095-.64.686-1.747 1.342-2.567 1.765-1.556.802-2.707 1.338-4.316 1.772-.54.106-.93.186-.941-.525 0-.05.03-.105.073-.128.479-.25.981-.451 1.472-.677.146.063.491.208.611.272.597.32 1.166.69 1.757 1.02.678.378 3.28 1.774 3.837 2.074 2.452 1.235 4.873 2.531 7.342 3.733l-1.306 1.05 1.173-1.139-1.163 1.065c-.495-.33-1.032-.617-1.55-.903a168.1 168.1 0 0 0-5.62-2.943c-5.5-2.857.886.455-3.92-2.02-.267-.138-1.611-.942-2.097-.999-.039-.009-.073.026-.11.04.403-.203.816-.386 1.207-.61.025-.014-.065-.009-.083-.032-.068-.09-.107-.198-.167-.293-.022-.035-.101-.062-.078-.097.03-.044.106-.01.158-.02.135-.024.27-.052.404-.079 2.74-.773-2.02.59 1.738-.577.029-.01.057.044.084.032 1.243-.599 2.45-1.294 3.3-2.409.055-.23.246-.47.165-.692-.248-.683-1.558-1.12-2.038-1.255-1.907-.54-3.93-.508-5.89-.528l1.063-1.143zM326.33 666.545c-1.904 3.097-3.848 6.172-5.77 9.26-.845 1.378-1.776 2.726-2.324 4.257l-1.437.325c.6-1.568 1.566-2.953 2.455-4.37 1.442-2.322 2.93-4.618 4.314-6.976.255-.435.488-.882.743-1.317.186-.318.387-.627.581-.94l1.438-.24z" style="fill:#000;fill-opacity:1;stroke:none;stroke-width:.5;stroke-miterlimit:4;stroke-dasharray:none;stroke-opacity:1" transform="matrix(.74552 0 0 .74552 -52.283 75.183)"/><path d="M1118.762 2513.58c-7.742-.186-9.616-.287-17.212-1.702-10.16-1.857-20.304-5.206-28.23-12.106-1.686-1.469-3.114-3.21-4.672-4.814-1.233-1.885-2.651-3.66-3.7-5.654-3.112-5.918-4.759-13.442-4.36-20.123.384-6.448 1.563-8.416 3.698-14.466 1.284-2.29 2.393-4.686 3.85-6.868 4.04-6.046 9.884-10.978 16.486-14.032.56-.257.387-.165.882-.367-3.027-.385-3.706-.675-6.777-1.533-5.99-2.176-10.574-4.962-13.907-10.602-2.622-4.436-3.175-7.18-4.785-12.162-2.907-11.909-3.66-24.287-1.402-36.388 1.67-8.95 3.11-11.487 6.413-20.087 1.72-3.32 3.272-6.735 5.163-9.962 5.772-9.853 12.948-18.93 21.762-26.242 7.015-5.82 8.883-6.295 16.712-10.39 2.684-.959 5.31-2.106 8.054-2.879 7.275-2.049 16.805-3.204 24.065-.342.931.367 1.745.982 2.617 1.473.486.407 2.915 2.46 1.57 3.48-.853.646-1.647-1.153-1.721-1.36-.224-.623-.24-1.302-.36-1.952.148-.94.152-1.916.445-2.822 2.13-6.568 7.7-11.315 13.19-15.095 2.013-1.386 4.155-2.574 6.232-3.861 2.427-1.21 4.807-2.516 7.28-3.627 5.798-2.604 10.74-4.331 16.877-6.049 5.91-1.654 11.783-2.931 17.892-3.602 3.193-.351 6.411-.408 9.617-.612 3.25.1 6.52-.07 9.75.3 6.952.798 14.38 2.794 20.83 5.492 5.458 2.283 11.57 5.703 15.945 9.816 2.006 1.886 3.538 4.22 5.307 6.33 1.171 2.229 2.557 4.358 3.515 6.686 2.968 7.217 3.683 15.663 3.001 23.374-.08.908-.236 1.499-.364 2.401-.105.608-.185.87-.362 1.352.67-.371.487-.31 1.161-.657 2.41-1.241 3.87-1.804 6.756-2.504 7.477-1.783 13.022-1.984 19.976-1.367 4.745.421 6.486 1.082 11.065 2.28 1.761.736 3.588 1.331 5.284 2.206 5.648 2.914 10.595 7.16 14.303 12.326 3.37 4.693 3.913 6.794 6.17 12.096.634 2.288 1.395 4.545 1.902 6.865 2.091 9.57 1.924 20.136-.614 29.608-.62 2.318-1.55 4.541-2.326 6.811-2.361 5.586-5.745 10.442-10.351 14.386-1.438 1.23-2.433 2.085-4.21 2.85 1.552.086 2.972.446 3.669.64.966.27 1.889.678 2.833 1.017 1.014.588 2.071 1.109 3.043 1.765 4.483 3.028 8.476 7.69 10.775 12.582.717 1.527 1.186 3.159 1.779 4.738.378 1.793.887 3.563 1.135 5.378 1.063 7.78.167 16.554-1.889 24.108-.524 1.924-1.24 3.79-1.86 5.684-.867 1.97-1.622 3.992-2.602 5.908-3.715 7.265-9.598 14.91-16.114 19.868-1.607 1.222-3.387 2.198-5.08 3.297-7.191 3.883-14.459 6.2-22.65 6.088-.143 0-.102-.01-.246-.018.946.819 1.06 1.115 1.883 2.148.297.541.674 1.046.89 1.623 1.457 3.876.495 8.327-1.42 11.858-.694 1.282-1.647 2.406-2.47 3.609-1.151 1.253-2.215 2.592-3.451 3.761-5.898 5.574-13.013 9.225-20.602 11.924-2.033.723-4.119 1.288-6.178 1.931-6.972 1.857-14.3 3.198-21.369 1.005-3.022-.939-3.475-1.496-5.904-3.174-.546-.57-.88-.829-1.545-1.879-.58-1.252-.745-1.595-1.128-2.764-.273.423-.423.63-.645.913-.372.482-.769.947-1.186 1.39-3.508 3.733-8.082 6.021-12.578 8.331-6.892 3.266-15.342 5.465-22.862 6.83-4.665.848-10.382 1.229-17.722 1.754-6.684.165-8.98.013-13.713-.118-7.623-.312-10.882-.995-16.333-2.255-2.37-.547-4.921-1.523-7.182-2.288-6.24-2.575-10.814-5.24-15.493-9.816-2.865-2.803-4.99-6.048-7.054-9.469-.88-1.46-1.622-2.998-2.433-4.498-1.3-2.724-2.476-5.652-3.115-8.426a22.667 22.667 0 0 1-.49-2.26c.186.09.475.1.728.207.136 1.093.4 2.423.817 3.645.99 2.898 1.163 3.336 2.54 6.354.802 1.492 1.534 3.023 2.405 4.475 2.035 3.393 4.043 6.728 6.97 9.406 5.302 4.851 9.018 7.243 15.322 9.74 2.33.848 4.78 1.719 7.129 2.275 5.55 1.316 8.488 1.996 16.271 2.246 6.879.19 7.691.342 13.691.11 6.348-.466 13.03-.907 17.685-1.757 7.48-1.365 15.89-3.564 22.74-6.827 5.064-2.617 10.523-5.283 13.854-10.119.444-.627.269-.404.605-.954.21.029.334.101.494.193.577 2.02 1.348 3.777 2.559 4.96 2.365 1.653 2.795 2.196 5.755 3.118 6.998 2.18 14.26.816 21.159-1.021 2.048-.643 4.124-1.208 6.146-1.93 7.528-2.688 14.594-6.328 20.423-11.888 1.219-1.162 2.264-2.493 3.396-3.74.8-1.19 1.696-2.321 2.399-3.572 1.786-3.18 2.55-7.28 1.298-10.792-.2-.56-.558-1.05-.837-1.575-.328-.417-.593-.852-.942-1.251-.736-.973-1.763-1.582-1.763-1.582s.071-.314.143-.591c.323.039.54.116 1.461.156 8.106.109 15.302-2.292 22.409-6.148 1.674-1.094 3.435-2.066 5.023-3.281 6.605-5.058 12.148-12.451 15.956-19.798.864-1.666 1.54-3.423 2.31-5.134.625-1.882 1.345-3.735 1.873-5.646 2.072-7.496 2.989-16.223 1.967-23.955-.237-1.798-.732-3.552-1.098-5.328-.578-1.563-1.031-3.178-1.734-4.689-2.225-4.79-6.227-9.485-10.603-12.456-.95-.645-1.983-1.157-2.975-1.735-2.612-.938-2.586-1.095-5.194-1.448-.635-.086-1.278-.106-1.918-.135-.421-.019-.8-.039-1.266-.01-.062-.448-.057-.66-.04-.662.405-.118.829-.186 1.215-.356 1.747-.77 3.51-1.961 4.929-3.188 4.322-3.734 7.591-8.34 9.923-13.548.781-2.254 1.717-4.46 2.344-6.762 2.564-9.408 2.756-19.922.705-29.443-.497-2.306-1.246-4.55-1.87-6.823-2.218-5.256-2.76-7.358-6.08-12.013a39.97 39.97 0 0 0-14.14-12.228c-1.679-.868-3.487-1.458-5.23-2.187-4.543-1.19-6.267-1.845-10.974-2.26-6.914-.608-13.097-.181-20.296 1.501-1.219.341-2.746.832-3.896 1.304-.78.255-1.613.748-2.323 1.158-.531.307-.888.585-1.392 1.055a4.343 4.343 0 0 1-.732-.717l.349-1.099c.227-.92.41-1.898.495-2.796.724-7.632.159-16.047-2.747-23.203-.937-2.308-2.3-4.42-3.45-6.63-1.742-2.094-3.248-4.41-5.228-6.28-4.338-4.099-10.406-7.5-15.827-9.77-6.42-2.689-13.797-4.67-20.717-5.46-3.219-.367-6.476-.197-9.714-.295-3.193.205-6.4.264-9.58.616-6.079.672-11.952 1.951-17.833 3.602-6.105 1.714-11.047 3.448-16.814 6.047-2.46 1.11-4.828 2.416-7.242 3.624-2.064 1.285-4.192 2.47-6.19 3.854-3.013 2.086-6.503 4.926-8.917 7.767-.92 1.083-1.684 2.295-2.41 3.517-.547.924-1.053 1.885-1.399 2.901-.295.866-.338 1.799-.508 2.698.167 1.133.112 1.968.765 2.904.114.162.61.37.566.177-.257-1.128-.837-1.39-1.69-2.25-.842-.48-1.625-1.082-2.526-1.44-7.165-2.845-16.637-1.672-23.815.358-2.726.771-5.332 1.914-7.999 2.87-7.78 4.083-9.637 4.559-16.607 10.36-8.771 7.3-15.908 16.358-21.641 26.187-1.879 3.22-3.417 6.628-5.125 9.942-3.202 8.257-4.515 10.522-6.17 19.268-2.28 12.044-1.552 24.37 1.32 36.235 1.582 4.934 2.128 7.665 4.7 12.064 3.264 5.585 7.76 8.319 13.672 10.468 3.037.847 3.655 1.15 6.648 1.526 1.042.097.742.05 1.507.12l.016.717c-.784.232-1.612.515-2.38.865-6.613 3.008-12.188 7.96-16.268 13.947-1.322 1.938-2.35 4.06-3.525 6.09-2.144 5.963-3.341 7.956-3.756 14.322-.43 6.609 1.17 14.087 4.227 19.955 1.03 1.976 2.426 3.737 3.64 5.605 1.538 1.593 2.947 3.32 4.614 4.777 7.87 6.877 17.963 10.19 28.063 12.033 7.572 1.408 9.423 1.505 17.14 1.676z" style="display:inline;opacity:1;fill:#000;fill-opacity:1;stroke:#000;stroke-width:0;stroke-linecap:square;stroke-linejoin:miter;stroke-miterlimit:100;stroke-dasharray:none;stroke-opacity:1" transform="translate(55.869 -2229.421)"/><text xml:space="preserve" x="1341.299" y="299.129" style="font-style:italic;font-variant:normal;font-weight:400;font-stretch:normal;line-height:0%;font-family:Baskerville;-inkscape-font-specification:&quot;Baskerville, Italic&quot;;text-align:start;letter-spacing:0;word-spacing:0;writing-mode:lr-tb;text-anchor:start;display:inline;fill:#000;fill-opacity:1;stroke:none;stroke-width:1px;stroke-linecap:butt;stroke-linejoin:miter;stroke-opacity:1" transform="rotate(2.143 -211.419 -378.66)"><tspan x="1341.299" y="299.129" style="font-style:normal;font-variant:normal;font-weight:400;font-stretch:normal;font-size:24px;line-height:1.25;font-family:&quot;Clicker Script&quot;;-inkscape-font-specification:&quot;Clicker Script&quot;">after</tspan></text><text xml:space="preserve" x="1136.889" y="401.351" style="font-style:italic;font-variant:normal;font-weight:400;font-stretch:normal;line-height:0%;font-family:Baskerville;-inkscape-font-specification:&quot;Baskerville, Italic&quot;;text-align:start;letter-spacing:0;word-spacing:0;writing-mode:lr-tb;text-anchor:start;display:inline;fill:#000;fill-opacity:1;stroke:none;stroke-width:1px;stroke-linecap:butt;stroke-linejoin:miter;stroke-opacity:1" transform="rotate(-2.362 178.185 350.866)"><tspan x="1136.889" y="401.351" style="font-style:normal;font-variant:normal;font-weight:400;font-stretch:normal;font-size:24px;line-height:1.25;font-family:&quot;Clicker Script&quot;;-inkscape-font-specification:&quot;Clicker Script&quot;">before</tspan></text><circle cx="148.281" cy="506.668" r="1.445" style="display:inline;fill:none;stroke:red;stroke-width:.760498;stroke-miterlimit:2;stroke-dasharray:none" transform="rotate(-1.482)"/><circle cx="249.491" cy="513.126" r="1.445" style="display:inline;fill:none;stroke:red;stroke-width:.760498;stroke-miterlimit:2;stroke-dasharray:none" transform="rotate(-1.482)"/></g></svg>