<svg xmlns="http://www.w3.org/2000/svg" xml:space="preserve" width="500.723" height="125.248" style="clip-rule:evenodd;fill-rule:nonzero;stroke-linecap:round;stroke-linejoin:round"><g fill="#d37c91" style="display:inline"><path d="M358.37 155.697c-.941 1.212-.486-1.83-1.715-1.561-3.524-.713-7.593 1.53-8.562 5.044-.685 5.476 7.013 7.507 10.544 4.36 1.285-1.168 1.914-3.057 1.464-4.75-.263-1.612-1.506-2.628-2.518-3.768-.155-.192-.43-.195-.65-.143-1.264 1.612-.713-.91.85-.372 2.79 1.777 4.026 5.957 1.623 8.601-2.735 3.19-9.172 3.205-11.263-.714-2.47-5.212 4.94-10.353 9.565-8.322.47.395.638 1.034.662 1.625" style="clip-rule:evenodd;fill-rule:nonzero;stroke-width:1;stroke-linecap:round;stroke-linejoin:round" transform="translate(-567.815 -256.379)"/><g style="stroke-width:2.50119"><path d="M77.657 64.476c1.663.892-4.59 2.198-1.808-1.058 8.379-8.094 8.206 5.942.177 1.653-.153-2.236 2.747-2.423 4.392-2.884.846 1.302-3.3 1.282-3.5 1.97 1.464 1.718 5.644.783 4.77-1.851-1.334-1.416-7.383 1.527-4.03 2.17M88.121 40.209c1.19-3.722 18.732.549 23.275-1.892-.372 3.523-3.25.702-.168.682-7.504 1.231-15.428 1.17-23.107 1.21" style="clip-rule:evenodd;fill-rule:nonzero;stroke-width:6.25593;stroke-linecap:round;stroke-linejoin:round" transform="matrix(.39972 0 0 .3999 -236.771 -117.426)"/><path d="M90.69 39.588c4.185-3.566-1.08 11.213-.36 11.64 7.62-3.607 21.7-5.38 24.633 5.124.443 12.99-17.916 13.176-25.965 7.55 2.863-5.783 7.988-1.156.558-.917 7.099 3.519 19.636 6.503 24.082-2.386 1.586-12.803-15.708-12.873-23.717-8.642-1.107-3.538 1.389-8.304.77-12.369M136.72 38.854c.278 2.689-8.996.78-10.193 4.469-4.955 4.568-7.023 12.472-5.269 18.933 4.452 8.026 24.157 7.27 22.356-3.478-2.432-4.258-7.507-5.467-12.076-4.931-6.04 1.324-18.037 8.747-4.825.268 6.339-3.199 20.677-1.204 18.075 8.298-5.376 7.754-18.598 8.39-24.561 1.051-3.429-10.764 4.543-24.792 16.493-24.61M148.884 48.285c-.172.237-.992.747-.975.182 4.749-5.986 15.171-10.176 22.253-7.106-3.84 9.096-11.184 18.111-18.282 24.615 6.438-2.668 14.917-1.405 22.183-1.02 1.299-.701 4.134.132 2.157 1.16-8.326-.405-17.108-1.823-25.14.572 6.547-7.542 13.819-15.396 17.984-24.495-6.465-2.684-15.67.942-20.18 6.092M183.604 42.274c-.465-2.185 23.54-3.775 22.562-.827-7.438.391-15.074.202-22.562.827" style="clip-rule:evenodd;fill-rule:nonzero;stroke-width:6.25593;stroke-linecap:round;stroke-linejoin:round" transform="matrix(.39972 0 0 .3999 -236.771 -117.426)"/><path d="M184.576 42.74c3.873-3.626-.957 9.215-1.231 9.607 9.154-5.149 29.176-.936 22.548 12.427-6.253 5.412-16.231 7.32-22.57.97-2.016-2.276 3.332-4.572.767-1.213 2.823 1.81 5.617 4.303 9.146 4.395 4.56-.263 9.98-1.807 12.838-5.589 1.58-12.902-14.516-13.677-23.204-10.188-.731-3.17 2.685-6.837 1.706-10.408M226.313 52.652c-1.741-1.11 5.814-2.297 5.404-1.155 7.928-.74 15.924-1.154 23.853-1.575.288.362-.338.794-.631.96-9.542.375-19.077 1.355-28.626 1.77M225.946 60.269c-1.464-1.607 6.09-1.37 6.475-.99 7.927-.801 15.945-1.363 23.895-.896-1.464 2.89-.643-2.223 1.345.246-10.418.966-21.174 1.079-31.715 1.64M295.357 41.778c-.057 2.395-3.456-.59-4.492-.005-7.482 1.629-13.792 7.881-12.017 16.02 4.062 11.183 19.384 11.458 26.777 3.628 2.776-4.379 1.119-10.029-2.231-13.598-1.015-1.172-2.248-2.285-3.809-2.62-18.43-.414-.988-4.98 4.57 1.216 12.458 11.836-6.618 26.084-18.715 20.481-16.25-6.002-4.044-30.163 9.917-25.122M310.356 66.867c-1.755-1.04 5.673-2.497 3.968.719-.826 1.51-2.92 1.952-4.489 1.588-3.273-3.108 1.873-6.187.862-1.014 3.573 1.226 2.904-2.447-.341-1.293M323.497 45.188c-.859.36-.31-.782.173-.865 25.921-3.503 24.755.07-.173.865" style="clip-rule:evenodd;fill-rule:nonzero;stroke-width:6.25593;stroke-linecap:round;stroke-linejoin:round" transform="matrix(.39972 0 0 .3999 -236.771 -117.426)"/><path d="M323.691 44.947c3.833-3.42-1.102 9.147-.803 9.222 6.71-4.65 30.262-2.271 21.695 9.338-3.253 3.165-7.922 4.451-12.378 4.077-2.352-.252-4.617-1.083-6.66-2.26-.701-.894-6.9-2.956-3.561-4.156 5.234 4.343 12.718 7.567 19.256 3.964 2.117-1.1 4.209-2.863 4.589-5.349-3.072-8.476-16.673-7.62-23.701-4.867-.403-3.123 2.274-6.521 1.563-9.97M361.976 56.334c-.844.383-.361-.743.129-.84 11.277-1.77 22.804-2.738 34.201-2.349.098.453-.446.797-.805.966-11.23-.364-22.424.594-33.525 2.223" style="clip-rule:evenodd;fill-rule:nonzero;stroke-width:6.25593;stroke-linecap:round;stroke-linejoin:round" transform="matrix(.39972 0 0 .3999 -236.771 -117.426)"/><path d="M376.828 42.2c5.453-3.426 2.939 19.22 5.485 21.794.753 3.074-3.613 3.271-1.211-.58-1.631-7.026-1.92-14.377-4.274-21.215M431.139 42.26c.027 1.858-2.778.57-3.384-.135-3.579.178-7.11 1.521-10.033 3.584-6.142 4.645-5.696 13.747-1.251 19.378 8.359 8.012 23.954 2.58 29.56-6.127.845-4.729-1.329-9.872-4.911-12.948-3.268-2.021-7.277-2.394-10.918-3.437-4.902 2.067-10.034 1.67-1.802-.967 6.131.531 14.407 1.227 17.223 7.739 1.263 2.473 2.1 5.277 1.69 8.074-4.099 10.231-19.461 15.242-29.36 10.757-13.991-8.591-1.1-31.652 13.186-25.919M448.752 66.86c2.91-2.118-1.412 4.785-3.084 1.91-.599-.552-.71-1.503-.366-2.22 3.571-3.5 2.365 1.894.78-.103.055 1.503 2.457 2.734 2.67.413M474.715 45.07c-.172 3.197-8.245-1.647-9.998 2.216-4.587 4.511-6.774 13.29-2.068 18.481 8.983 6.928 27.78 3.438 27.118-10.218.103-3.323-1.324-7.408-4.432-8.97-3.912-.934-7.915-1.636-11.927-1.937-.86.013-1.759.202-2.426.779-3.793 6.204-2.529-1.711 2.353-1.68 11.074-2.295 22.418 6.423 16.125 18.02-5.225 9.081-19.073 10.787-27.615 5.288-7.902-8.239.917-26.223 12.87-21.978M516.972 42.243c-.313 2.985-7.627-.864-9.37 2.45-7.668 3.63-16.794 13.764-10.939 22.3 5.175 4.818 17.383 5.562 20.728-1.514.483-3.049-1.747-5.677-4.074-7.343-4.109-3.198-9.59-2.101-14.13-.604-7.572 7.229-7.029 2.345.744-1.038 4.136-1.15 8.863-2.432 12.896-.253 17.797 10.493-12.453 23.224-18.534 9.778-3.259-12.296 10.92-24.851 22.679-23.776M522.692 51.971c-.177.218-.938.701-.951.171 5.568-6.978 17.39-10.613 25.399-7.399-1.975 11.407-12.721 21.052-21.854 26.825 7.274-1.93 15.21-1.64 22.752-1.364 1.722-.752 2.419.69.991 1.175-7.994-.958-16.383-.106-24.162.638 7.384-7.076 21.626-16.032 20.306-27.195-7.811-.899-17.165.774-22.481 7.149M556.868 46.866c-.868.284-.181-.858.273-.914 9.373-1.082 18.857-1.443 28.224-2.715.427.182-.143.718-.369.86-9.274 1.455-18.787 1.679-28.128 2.769" style="clip-rule:evenodd;fill-rule:nonzero;stroke-width:6.25593;stroke-linecap:round;stroke-linejoin:round" transform="matrix(.39972 0 0 .3999 -236.771 -117.426)"/><path d="M557.044 45.984c4.437-3.246-3.174 13.175-.557 11.859 11.004-9.343 40.861.081 22.113 14.217-4.216 1.724-8.969 1.68-13.417 1.079-12.953-2.582-7.202-7.038 1.217-.935 7.058 1.757 17.281-.676 17.313-9.465-3.787-11.129-19.829-7.137-28.136-3.877-.904-3.858 1.102-8.677 1.467-12.878M601.342 54.255c-.823.315-.278-.772.171-.86 10.306-2.147 20.892-3.056 31.381-4.09.423.214-.186.749-.426.894-10.365 1.156-20.888 1.927-31.126 4.056M601 65.728c-.878.375-.312-.794.184-.871 11.187-2.358 22.607-3.466 33.985-4.135.211.38-.339.75-.625.928-11.239.774-22.49 1.728-33.544 4.078M683.184 36.325c-2.62.61 3.597-3.485 3.357-3.209 2.323-2.947 4.62-7.94 2.122-11.373-4.283-3.624-15.565-2.012-14.957 4.779 4.222 8.047 14.379 10.236 20.186 16.736-3.938 6.934-16.326 8.238-23.668 5.394-.336-6.783 9.526-9.476 14.185-13.06 4.274-1.81.721 2.058-1.185 1.368-3.199 2.103-6.643 3.863-9.6 6.315-1.005 1.003-4.027 3.404-1.861 4.699 6.818 2.39 15.803.855 21.136-3.63-5.837-6.58-16.067-8.749-20.324-16.836-1.193-6.13 6.835-8.616 11.609-8.612 11.348-.413 6.156 15.076-1 17.43M655.76 59.448c-.958.278-.044-1.054.472-.955 20.027-.323 40.083-1.369 60.077-2.286.314.369-.358.83-.669.985-19.95.866-39.912 1.984-59.88 2.256M671.054 69.508c2.573-3.103 1.332 4.899 1.509 5.923-.302 9.218 1.043 18.416 2.718 27.415-.017 3.487-4.252 3.936-1.146.687-2.689-11.13-2.582-22.652-3.081-34.025M703.247 71.78c.476 2.778-9.824-.032-10.308 4.385-7.291 5.241-15.637 17.166-8.737 25.652 5.268 5.587 16.829 4.248 21.065-1.798-2.502-6.967-11.713-10.13-18.606-8.36-1.037.284-2.033.756-2.858 1.45-2.893 5.792-1.311-3.793 3.703-2.484 3.696-.67 7.668-.545 11.17.928 21.356 8.448-11.672 23.278-17.26 9.001-3.877-12.807 8.931-28.26 21.831-28.774M729.697 59.948c-1.448-1.604 6.057-1.323 6.433-1.22 6.792-1.028 13.636-1.933 20.47-2.517.282.298-.239.697-.472.868-8.8.708-17.56 2.704-26.431 2.869" style="clip-rule:evenodd;fill-rule:nonzero;stroke-width:6.25593;stroke-linecap:round;stroke-linejoin:round" transform="matrix(.39972 0 0 .3999 -236.771 -117.426)"/><path d="M743.61 47.155c.162-.357.948-1.067 1.208-.564.059 8.795 1.902 17.487 2.71 26.24-1.879 2.64-1.74-2.624-1.67-3.772-.952-7.266-2.153-14.562-2.248-21.904M802.779 19.383c2.794-2.96.41 5.65 1.399 6.079-1.771 8.123 5.242 24.993-.107 31.07.594-12.403-1.057-24.778-1.292-37.15M776.061 67.625c-.907.455-.406-.765.144-.852 22.99-3.64 46.334-5.471 69.577-6.813.736-.114.051.829-.3.91-23.157 1.393-46.471 3.218-69.421 6.755M793.006 75.917c2.923-3.912 2.112 7.769 2.938 8.049 1.562 6.899 2.895 13.87 2.935 20.972-.691 1.46 2.039 5.996-.743 6.255-.407-11.897-2.44-23.677-5.13-35.276M830.434 72.355c.39 2.51-8.157.82-8.657 4.398-8.456 6.617-19.108 20.94-10.453 31.062 7.582 6.494 21.973 4.05 25.956-5.23-.954-11.643-16.401-10.576-24.527-7.705-10.96 5.876 3.168-4.532 7.174-2.387 4.257-.741 8.841-.783 12.887.9 17.316 11.168-13.105 26.685-22.569 15.434-9.799-13.407 6.151-33.711 20.189-36.472M875.504 58.07c-1.588-1.863 8.087-1.429 7.838-1.009 9.663-1.01 19.406-1.386 29.065-.567.204.38-.339.745-.624.924-12.067-1.166-24.178.587-36.279.652M879.311 71.465c-1.875-1.15 6.917-2.634 5.851-1.147 9.83-.497 19.693-.465 29.519-.737.356.311-.292.792-.567.948-11.568.338-23.215.357-34.803.936M984.418 23.227c-2.599 3.268-1.394-6.029-5.535-4.145-9.403-1.708-25.368.127-27.988 11.063 5.517 15.911 28.317 4.615 35.023-4.256-.341 10.711-.04 21.653 3.698 31.833-4.08-1.506 3.635-4.148-.744.877-3.716-9.657-6.586-23.327-2.458-32.862-6.898 9.863-28.886 20.927-36.496 6.435.768-13.929 23.196-18.005 33.449-12.162.96.787.969 2.087 1.051 3.217M937.696 72.388c-.696-.196.471-1.269.926-1.008 24.042 2.647 48.678-1.186 72.878-.295.11.44-.43.783-.77.956-24.299-.807-48.911 2.906-73.034.347M947.656 81.62c1.035-2.743 3.549 1.496 3.389 3.04 1.924 12.006 1.071 24.287 2.055 36.378.147 1.163.381 2.313.647 3.454.16.654.335 1.303.532 1.946 3.099 2.012-2.252 5.281-1.242.679a31.29 31.29 0 0 1-.758-3.094c-2.959-13.79 2.216-29.665-4.623-42.403M993.274 88.297c1.926 1.316-6.873 1.892-6.871 2.334-9.573 3.559-18.706 11.104-19.998 21.804-1.924 9.936 9.024 17.128 18 15.884 8.343 1.172 20.495-10.558 9.077-15.716-6.674-2.798-14.142-3.798-21.328-2.972-2.244.33-4.379 1.174-6.335 2.305-7.898 9.31-3.342-1.424 3.305-2.32 9.339-1.968 27.754-2.912 30.349 8.908-3.722 12.242-23.282 14.329-31.345 5.134-10.263-15.824 9.407-34.232 25.146-35.36" style="clip-rule:evenodd;fill-rule:nonzero;stroke-width:6.25593;stroke-linecap:round;stroke-linejoin:round" transform="matrix(.39972 0 0 .3999 -236.771 -117.426)"/></g></g><g style="display:inline"><path fill="#d37c91" d="M346.927 579.085c.672.376-1.96.883-1.757.5-1.38 1.082-1.75 3.031-2.396 4.592-.398 2.417-.433 4.994.22 7.373 8.362 18.346 34.55 19.754 50.32 10.93 1.348-1.065 2.562-3.703 1.007-5.006-3.187-1.096-10.568.095-8.531 4.878.349 1.05 1.01 1.957 1.749 2.765 15.245 14.394 38.46 15.962 58.087 11.916 3.212-1.118 6.527-2.37 9.01-4.782 2.621-3.377-5.086-6.164-6.165-2.824-.04 1.57.8 3.052 1.819 4.193 7.195 7.351 17.591 10.24 27.594 10.874 14.15 2.102 28.761.622 42.44-3.385 1.768-.687 3.504-1.565 4.942-2.816 4.353-4.484-4.723-8.724-8.242-7.082-.71 1.65 1.344 2.808 2.372 3.7 19.738 10.077 44.58 8.249 64.748.313 1.545-.835 3.061-1.85 4.138-3.26 3.376-6.271-5.33-10.329-10.585-9.229-3.977.452-3.282 5.257-.181 6.626 15.128 7.81 35.452 9.731 50.681 1.216 1.536-1.293 2.883-2.966 3.32-4.966.49-2.414-.632-5.228-2.434-6.777-2.018 1.606.355 4.07 1.742 5.161 15.182 6.96 33.514 7.467 49.712 3.982a20.201 20.201 0 0 0 4.899-2.35c2.808-1.697 4.677-4.466 6.4-7.177 2.041-3.275 3.198-7.061 3.457-10.906-1.046-22.382-16.804-45.172-40.148-48.016-11.374.91 8.107 11.445 6.896 3.357-1.306-2.49-4.349-3.206-6.54-4.682-24.671-9.499-53.875-10.498-78.533-.592-3.554 1.966-6.963 4.412-9.33 7.766-4.486 7.181 7.862 13.381 13.662 10.707.58-.394.9-1.084.878-1.779.042-1.095-.432-2.17-1.235-2.91-7.346-5.741-16.371-9.168-25.009-12.449-12.02-1.246-25.592-2.19-36.35 4.328-2.034 1.54-4.019 3.443-4.607 6.027-.855 4.645 5.013 2.654 2.372-.958-9.553-11.258-26.502-8.016-39.642-8.447-2.1.271-4.209.557-6.272 1.036-2.01.745-4.217 1.397-5.797 2.919-1.187 1.38-2.883 3.686-1.509 5.45 2.617 2.276 9.188.93 7.117-3.403-.841-1.329-2.129-2.306-3.388-3.214-15.536-8.095-35.762-15.725-51.905-4.998-3.399 2.228-5.76 7.29-2.826 10.79 2.779 3.252 12.962 3.796 10.881-2.491-1.518-1.914-3.884-2.936-6.082-3.866-24.28-5.983-52.134-5.076-72.983 10.28-4.272 3.095-7.502 7.423-9.921 12.069a53.065 53.065 0 0 0-2.485 5.41c-.483 1.306-.936 2.655-1.003 4.06-1.109 6.338 6.197 9.151 10.984 10.88-1.018 2.1-5.155-2.752-6.51-2.276-1.862-.95-3.514-2.39-4.502-4.25-1.555-4.207.688-8.685 2.463-12.446 1.912-3.908 4.316-7.614 7.388-10.711 20.67-18.237 50.645-19.623 76.322-13.651 2.368.876 4.78 1.96 6.557 3.804 2.98 6.762-8.323 7.468-11.555 3.578-2.808-3.348-.828-8.258 2.27-10.682 16.276-12.041 37.844-4.216 53.807 4.426 1.19.94 2.504 1.899 3.145 3.32 1.368 4.664-5.273 6.053-8.217 3.756-1.493-2.107.57-4.727 2.025-6.269 1.658-1.371 3.755-2.096 5.755-2.81 2.093-.507 4.236-.805 6.37-1.086 13.248.42 30.389-2.888 39.996 8.49 2.675 3.195-3.391 7.09-3.373 2.152.162-1.751 1.123-3.362 2.252-4.67 1.315-1.314 2.714-2.585 4.37-3.46 10.725-5.408 23.515-4.76 35.13-3.506 8.824 3.389 18.258 6.733 25.571 12.904.846 1 1.095 2.472.62 3.692-4.947 5.793-19.895-1.724-15.343-9.362 2.392-3.673 6.061-6.302 9.838-8.411 24.503-10.05 53.408-8.895 78.124.007 2.442 1.544 5.664 2.37 7.33 4.875 1.873 6.185-8.83 4.02-10.99.72-2.003-2.62 2.45-4.027 4.452-3.815 23.315 3.066 39.04 25.833 39.933 48.265-.276 3.579-1.287 7.11-3.082 10.226-1.72 2.812-3.545 5.71-6.279 7.651-1.449 1.045-3.018 1.934-4.682 2.587-15.598 4.522-32.735 2.765-48.169-1.746-1.71-.57-3.223-1.61-4.425-2.945-1.36-1.106-1.854-3.425-.205-4.517 2.6.164 3.57 4.556 3.028 6.872-.521 2.105-1.943 3.871-3.576 5.244-14.733 8.698-33.836 6.355-49.19.382-1.44-.763-2.715-1.818-3.777-3.053-.582-.653-1.101-1.47-1.059-2.38 2.936-8.287 20.586-.78 13.611 7.06-1.328 1.32-2.916 2.365-4.616 3.143-19.577 7.512-42.848 8.876-62.405.583-1.48-.773-2.888-1.748-3.987-3.015-.772-.788-.662-2.272.341-2.813 4.103-1.43 13.119 3.063 8.19 7.776-1.495 1.305-3.294 2.234-5.131 2.955-13.744 4.078-28.442 5.574-42.675 3.491-10.074-.64-20.57-3.489-27.829-10.893-1.03-1.13-1.823-2.605-1.817-4.164.684-4.564 10.35-1.584 6.871 2.52-2.554 2.504-5.963 3.829-9.28 4.988-19.567 4.125-42.548 2.608-58.046-11.34-.946-.972-1.846-2.054-2.26-3.37-1.912-5.192 5.797-6.717 9.4-5.58 2.085 2.016-.342 5.414-2.42 6.502-16.247 7.899-43.211 6.533-50.088-13.058-.481-3.58-.063-7.351 2.057-10.381.535-.974 1.69-1.098 2.681-1.042" style="clip-rule:evenodd;display:inline;fill-rule:nonzero;stroke-width:1;stroke-linecap:round;stroke-linejoin:round" transform="translate(-567.815 -256.379)"/><path fill="#b1e4ff" stroke="#000" stroke-width=".41" d="M649.389 266.842c-3.09 4.638 2.08 16.486 5.14 19.984 2.974 3.4 6.307 7.343 9.84 10.138 9.284 7.345 23.638 10.528 35.248 9.404 4.6-.446 10.448-1.924 14.392-4.555 1.35-.9 1.387-3.967-.587-3.967M805.282 224.936l-.143.286M869.801 211.585c1.417-2.836-2.33 5.995-2.574 9.156-.686 8.926 7.21 20.214 15.444 23.607 13.836 5.7 35.222 8.154 47.907-1.717 2.846-2.215 5.893-5.565 1.86-7.583M777.281 191.867c-4.333 8.671 4.863 16.851 12.013 19.743 13.888 5.617 29.142 4.958 42.329-2.146 6.66-3.588 18.419-16.177 5.148-20.602M951.618 197.731c-6.018 24.084 78.912 35.573 55.628-11.016" style="clip-rule:evenodd;display:inline;fill:#d7eefe;fill-opacity:1;fill-rule:nonzero;stroke-width:1.09606;stroke-linecap:round;stroke-linejoin:round;stroke-miterlimit:4;stroke-dasharray:none"/><path fill="#b1e4ff" stroke="#000" stroke-width=".41" d="M982.718 213.694c-1.788 1.343-2.22 8.063-2.717 10.445-3.507 16.76 7.768 29.556 24.882 26.754 4.813-.788 7.944-2.663 10.583-6.725 1.508-2.321 2.373-4.982-.716-5.865M768.147 271.499c-7.446 6.773-6.54 24.766-1.144 32.477 2.474 3.535 7.098 6.955 10.725 9.157 16.694 10.13 41.357 9.497 58.918 1.716 5.202-2.305 10.447-6.08 11.583-12.018.765-3.994-2.742-15.165-8.294-15.165" style="clip-rule:evenodd;display:inline;fill:#d7eefe;fill-opacity:1;fill-rule:nonzero;stroke-width:1.09606;stroke-linecap:round;stroke-linejoin:round;stroke-miterlimit:4;stroke-dasharray:none"/><path fill="#b1e4ff" stroke="#000" stroke-width=".41" d="M969.363 256.725c-9.062 9.066-4.892 22.135 4.862 28.328 9.952 6.318 33.155 7.792 43.045.286 5.478-4.158 11.766-11.188 10.01-18.742-1.948-8.38-8.977-16.127-17.446-17.74-1.539-.294-3.661-.602-5.149.142M408.847 117.378c.556-.278.252-.244.572.715M981.701-83.006c21.659.272 5.424-51.384-33.036-49.496-44.241 2.172-57.784 58.393-16.993 47.824" style="clip-rule:evenodd;display:inline;fill:#d7eefe;fill-opacity:1;fill-rule:nonzero;stroke-width:1.09606;stroke-linecap:round;stroke-linejoin:round;stroke-miterlimit:4;stroke-dasharray:none"/><path fill="#b1e4ff" stroke="#000" stroke-width=".41" d="M1063.855-75.874c-4.137 1.789 7.683-5.311 10.497-9.146 6.14-8.364 6.569-20.53.197-28.799-16.033-20.806-61.667-18.354-79.801-4.11-30.635 24.066 16.968 42.874 35.021 41.27M915.28-111.65c-1.443-14.674-30.676-28.15-46.472-22.419-17.405 6.315-22.146 28.307-19.963 42.691 2.485 16.382 13.27 49.512 39.717 47.13 12.63-1.137 20.027-16.748 23.865-25.342.532-1.19 2.417-4.862 1.392-6.257" style="clip-rule:evenodd;display:inline;fill:#d7eefe;fill-opacity:1;fill-rule:nonzero;stroke-width:1.09606;stroke-linecap:round;stroke-linejoin:round;stroke-miterlimit:4;stroke-dasharray:none"/><path fill="#b1e4ff" stroke="#000" stroke-width=".41" d="M1058.956-86.873c-3.128 2.942-4.608 6.58-4.545 10.994.187 13.07 16.49 19.766 26.236 21.431 12.03 2.055 26.093.107 36.462-7.218 2.347-1.657 4.241-3.416 6.095-5.663 15.033-18.224-14.179-22.667-25.41-20.654M855.37-107.454c-8.687-11.85-49.243 5.064-33.55 24.763 26.09 32.749 117.837 29.73 68.104 1.102M1085.832-90.498c-11.828-1.022-13.998-23.866-7.483-31.351 6.88-7.904 20.081-6.954 29.366-6.295 16.473 1.17 35.5 4.866 48.633 15.824 15.273 12.745-9.426 19.801-19.865 18.304" style="clip-rule:evenodd;display:inline;fill:#d7eefe;fill-opacity:1;fill-rule:nonzero;stroke-width:1.09606;stroke-linecap:round;stroke-linejoin:round;stroke-miterlimit:4;stroke-dasharray:none"/><path fill="#b1e4ff" stroke="#000" stroke-width=".41" d="M985.82-86.777c-12.04 11.114-2.396 25.027 8.006 30.102 16.125 7.867 36.924 5.159 52.93-1.556 16.837-7.063 17.18-23.913-.405-26.294" style="clip-rule:evenodd;display:inline;fill:#d7eefe;fill-opacity:1;fill-rule:nonzero;stroke-width:1.09606;stroke-linecap:round;stroke-linejoin:round;stroke-miterlimit:4;stroke-dasharray:none"/><path fill="#b1e4ff" stroke="#000" stroke-width=".41" d="M920.115-93.122c-3.488 1.618-6.647 4.123-9.51 6.868-6.625 6.35-14.162 21.034-2.57 26.468 14.645 6.865 29.87 6.776 46.264 5.437 8.619-.704 17.319-2.942 24.031-7.727 6.705-4.78 4.998-11.652-.642-16.596-6.91-6.056-17.481-11.589-26.474-11.589M1115.527-96.107c-3.774 1.678-4.869 6.636-5.291 10.443-1.045 9.403 2.285 17.214 10.582 22.034 4.88 2.834 11.056 4.005 16.588 4.578 9.908 1.025 20.156.42 29.602-2.862 9.657-3.354 20.256-9.799 21.021-21.031.708-10.386-10.525-18.177-19.019-21.46-2.035-.787-5.721-2.337-8.008-1.574M1207.842-34.244c.556-.278.252-.244.572.715" style="clip-rule:evenodd;display:inline;fill:#d7eefe;fill-opacity:1;fill-rule:nonzero;stroke-width:1.09606;stroke-linecap:round;stroke-linejoin:round;stroke-miterlimit:4;stroke-dasharray:none"/><path d="M50.884 43.098C38.34 35.788 4.337 53.117 19.328 72.62c21.519 27.995 85.026 31.227 85.056 16.017.006-2.902-2.885-2.995-2.315.513.507 3.12 2.47 5.678 6.052 7.57 13.857 7.322 34.212 6.837 47.594 5.595 8.853-.822 18.129-3.503 24.413-8.859 3.199-2.726 4.893-5.71 4.554-8.981-.138-1.326-1.829-1.653-1.475-.205 1.591 6.5 6.672 11.999 12.728 15.14 16.169 8.389 42.768 7.75 55.619-3.287 6.336-5.441 7.738-8.365 9.224-13.647.897-3.188-2.508-2.247-1.615.301 3.826 10.911 17.382 16.83 26.174 18.355 12.269 2.129 26.58-.088 37.083-8.095 2.376-1.812 4.396-3.643 6.162-6.176 1.153-2.425-4.782-.824-3.116.714 1.297 1.094 2.598 2.302 4.158 3.28 4.832 3.03 10.928 4.25 16.385 4.828 9.773 1.034 19.868.302 29.15-3.32 9.491-3.703 19.885-10.756 20.549-22.915.614-11.244-10.205-20.556-18.917-23.076-3.159-.914-6.156-1.132-8.388-1.16 1.29-2.613.019-6.702-2.779-9.975-7.292-8.531-18.89-14.6-34.262-17.02-12.254-1.93-32.785-2.929-44.291 8.826-2.132 2.178-4.172 5.183-4.875 9.513-.412 2.54 2.155 3.048 2.185.838.042-3.168-1.35-5.665-3.138-8.097-15.336-20.852-62.037-24.384-79.876-4.991-3.896 4.235-5.608 7.499-5.957 11.441-.183 2.07 2.305 2.383 1.649-.181-3.11-12.06-20.393-21.752-42.942-20.9-22.915.866-37.639 12.501-36.402 23.557.214 1.932 3.056 2.199 2.341-.11-3.902-12.605-27.072-22.151-51.16-15.717-13.207 3.528-19.792 12.58-19.939 22.394" style="clip-rule:evenodd;display:inline;fill:#e5f6ff;fill-opacity:1;fill-rule:nonzero;stroke:#000;stroke-width:1.09606;stroke-linecap:round;stroke-linejoin:round;stroke-miterlimit:4;stroke-dasharray:none;stroke-opacity:1"/><path fill="#b1e4ff" stroke="#000" stroke-width=".41" d="M694.822-32.082c-1.64-7.058-.579-15.332 3.032-19.296 7.2-7.905 21.012-6.954 30.728-6.295 17.236 1.17 37.145 4.865 50.887 15.824 15.981 12.745-9.863 19.801-20.786 18.304" style="clip-rule:evenodd;display:inline;fill:#d7eefe;fill-opacity:1;fill-rule:nonzero;stroke-width:1.09606;stroke-linecap:round;stroke-linejoin:round;stroke-miterlimit:4;stroke-dasharray:none"/><path d="M-660.65 14.852c-12.205-6.921-45.288 9.486-30.703 27.951 20.937 26.507 82.726 29.567 82.756 15.166.006-2.747-2.808-2.835-2.253.485.493 2.954 2.404 5.377 5.888 7.168 13.482 6.933 33.287 6.473 46.307 5.297 8.613-.778 17.638-3.316 23.753-8.387 3.111-2.581 4.76-5.406 4.43-8.504-.134-1.255-1.78-1.565-1.435-.194 1.548 6.154 6.492 11.36 12.384 14.336 15.73 7.942 35.92 5.016 51.421-1.98 7.516-3.391 11.61-8.888 12.165-14.054.375-3.502-2.938-2.128-2.068.285 3.722 10.33 16.911 15.934 25.465 17.379 11.937 2.015 25.86-.084 36.08-7.665 2.312-1.716 4.277-3.45 5.995-5.847 1.123-2.297-4.653-.781-3.032.676 1.263 1.035 2.528 2.179 4.046 3.105 4.702 2.87 10.633 4.024 15.942 4.571 9.508.98 19.33.286 28.362-3.144 9.234-3.506 19.346-10.183 19.992-21.696.598-10.645-9.929-19.462-18.404-21.848-3.074-.866-5.817-1.219-8.021-1.013.575-2.21-.91-6.026-3.808-9.076-7.555-7.951-18.801-13.17-34.226-15.007-10.005-1.191-31.53-1.9-42.64 9.735-3.257 3.41-7.307 9.667-7.22 15.46l.549-2.019c-.68-2.788-1.693-5.484-3.373-7.85-14.406-20.282-55.74-20.425-73.847-5.889-5.41 4.344-8.468 9.017-9.208 12.665l.646.089c-4.217-12.73-18.866-25.261-39.226-25.398-21.199-.142-34.197 11.546-35.844 22.862l.51.05c-1.901-14.892-26.11-28.02-45.758-20.761-12.06 4.456-17.926 14.778-17.478 26.21" style="clip-rule:evenodd;display:inline;fill:#d7eefe;fill-opacity:1;fill-rule:nonzero;stroke:#000;stroke-width:1.09606299;stroke-linecap:round;stroke-linejoin:round;stroke-miterlimit:4;stroke-dasharray:none;stroke-opacity:1"/><path d="M-661.448 137.166c-12.138-7.09-45.043 9.717-30.536 28.633 20.824 27.152 82.28 30.286 82.31 15.534.005-2.814-2.793-2.904-2.242.498.491 3.026 2.391 5.507 5.857 7.342 13.41 7.102 33.107 6.631 46.057 5.426 8.567-.797 17.543-3.396 23.625-8.591 3.095-2.644 4.735-5.538 4.406-8.711-.133-1.286-1.77-1.603-1.427-.2 1.54 6.305 6.457 11.639 12.317 14.686 15.646 8.136 41.387 7.515 53.823-3.189 6.131-5.277 7.488-8.113 8.926-13.236.868-3.092-2.428-2.18-1.563.292 3.702 10.583 16.82 16.323 25.328 17.803 11.873 2.064 25.721-.086 35.885-7.852 2.3-1.757 4.255-3.533 5.963-5.99 1.117-2.352-4.627-.8-3.015.693 1.256 1.06 2.514 2.232 4.024 3.181 4.676 2.94 10.575 4.122 15.856 4.683 9.457 1.003 19.226.292 28.21-3.22 9.183-3.592 19.241-10.433 19.884-22.226.594-10.904-9.876-19.936-18.306-22.38-3.057-.886-5.785-1.248-7.978-1.037.573-2.263-.904-6.173-3.786-9.297-7.515-8.146-18.7-13.492-34.042-15.373-9.952-1.22-31.36-1.946-42.411 9.972-2.764 2.981-6.12 8.084-6.97 13.208-.192 1.166 1.047 1.587.905.56-.402-2.91-1.694-5.617-3.376-8.04-14.424-20.777-55.687-22.196-73.94-6.033-4.227 3.743-7.145 7.548-8.52 10.672-.649 1.477 1.67 1.51 1.059.085-5.194-12.112-19.625-23.359-39.18-23.489-20.41-.136-33.67 10.33-36.205 21.243-.579 2.49 2.36 2.905 1.702.306-3.612-14.292-27.221-26.279-46.567-19.226-11.79 4.298-17.805 13.996-17.937 24.915" style="clip-rule:evenodd;display:inline;fill:#d7eefe;fill-opacity:1;fill-rule:nonzero;stroke:#000;stroke-width:1.09606;stroke-linecap:round;stroke-linejoin:round;stroke-miterlimit:4;stroke-dasharray:none;stroke-opacity:1"/><path d="M271.334-94.153c-12.138-7.09-45.043 9.717-30.537 28.632 20.824 27.153 82.28 30.287 82.31 15.535.005-2.814-2.793-2.904-2.241.498.49 3.025 2.39 5.507 5.856 7.342 13.41 7.101 33.108 6.63 46.057 5.426 8.567-.797 17.544-3.397 23.625-8.592 3.095-2.643 4.735-5.537 4.406-8.71-.133-1.286-1.77-1.604-1.426-.2 1.54 6.305 6.456 11.638 12.316 14.685 15.647 8.136 41.387 7.516 53.823-3.188 6.131-5.277 7.488-8.113 8.926-13.236.868-3.093-2.427-2.18-1.563.292 3.702 10.583 16.82 16.323 25.328 17.802 11.874 2.065 25.722-.085 35.886-7.852 2.3-1.757 4.254-3.533 5.963-5.989 1.116-2.352-4.628-.8-3.016.693 1.256 1.06 2.514 2.232 4.025 3.181 4.675 2.939 10.575 4.122 15.855 4.682 9.457 1.003 19.227.292 28.21-3.22 9.183-3.592 19.241-10.432 19.884-22.225.594-10.905-9.876-19.937-18.306-22.38-3.056-.887-5.785-1.249-7.977-1.038.572-2.263-.905-6.172-3.787-9.297-7.515-8.145-18.7-13.492-34.042-15.373-9.951-1.22-31.36-1.946-42.41 9.973-2.765 2.981-6.121 8.083-6.97 13.208-.193 1.166 1.046 1.586.905.56-.403-2.91-1.695-5.617-3.377-8.04-14.424-20.778-55.687-22.196-73.94-6.033-4.227 3.743-7.145 7.547-8.519 10.671-.65 1.477 1.669 1.51 1.058.086-5.193-12.112-19.625-23.36-39.18-23.49-20.41-.135-33.67 10.33-36.205 21.244-.578 2.489 2.36 2.904 1.703.306-3.613-14.292-27.222-26.28-46.567-19.227-11.792 4.299-17.805 13.996-17.937 24.915M263.77-213.098c-12.137-7.09-45.042 9.717-30.536 28.632 20.824 27.153 82.28 30.287 82.31 15.535.006-2.814-2.793-2.904-2.241.498.49 3.026 2.39 5.507 5.856 7.342 13.41 7.101 33.108 6.63 46.057 5.426 8.567-.797 17.544-3.397 23.625-8.592 3.095-2.643 4.735-5.537 4.406-8.71-.133-1.286-1.77-1.604-1.426-.2 1.54 6.305 6.456 11.638 12.316 14.685 15.647 8.136 41.387 7.516 53.823-3.188 6.132-5.277 7.488-8.113 8.926-13.236.868-3.092-2.427-2.18-1.563.292 3.703 10.583 16.82 16.323 25.329 17.802 11.873 2.065 25.72-.085 35.885-7.851 2.3-1.758 4.254-3.534 5.963-5.99 1.116-2.352-4.628-.8-3.016.693 1.256 1.06 2.514 2.232 4.025 3.181 4.675 2.939 10.575 4.122 15.855 4.682 9.457 1.003 19.227.293 28.21-3.22 9.183-3.592 19.241-10.432 19.884-22.225.594-10.905-9.876-19.937-18.306-22.38a26.843 26.843 0 0 0-8.123-1.034c.67-2.39-.502-6.496-3.27-9.712-7.216-8.385-18.176-14.093-33.384-16.471-9.865-1.543-31.15-2.964-42.534 8.589-2.11 2.14-4.582 5.434-6.13 9.07-.551 1.293 1.142 2.126.64.695-1.152-3.279-2.214-5.642-3.895-8.027-14.416-20.45-53.325-23.985-71.732-4.38-3.803 4.05-6.72 7.72-8.02 10.86-.594 1.436 1.702 1.656.8-.06-6.157-11.715-21.618-21.94-41.512-20.711-20.764 1.282-33.503 12.643-35.306 23.706-.161.89 2.125 1.302 1.232-.819-5.167-12.279-28.35-22.067-47.5-15.912-12.169 3.911-18.375 12.735-18.511 22.671M-148.794-212.653c-12.138-7.09-45.043 9.717-30.536 28.633 20.824 27.152 82.28 30.286 82.31 15.534.005-2.814-2.793-2.904-2.242.498.491 3.026 2.392 5.507 5.857 7.342 13.41 7.102 33.108 6.631 46.057 5.426 8.567-.797 17.543-3.397 23.625-8.591 3.095-2.644 4.735-5.538 4.406-8.711-.133-1.286-1.77-1.603-1.427-.2 1.54 6.305 6.457 11.639 12.317 14.686 15.646 8.135 41.387 7.515 53.823-3.189 6.131-5.277 7.488-8.113 8.926-13.236.868-3.092-2.427-2.18-1.563.292 3.702 10.583 16.82 16.323 25.328 17.803 11.873 2.064 25.722-.086 35.885-7.852 2.3-1.757 4.255-3.533 5.964-5.99 1.116-2.352-4.628-.8-3.016.693 1.256 1.06 2.514 2.232 4.024 3.181 4.676 2.939 10.575 4.122 15.856 4.682 9.457 1.004 19.226.293 28.21-3.22 9.183-3.592 19.241-10.432 19.884-22.225.594-10.904-9.876-19.936-18.306-22.38a26.842 26.842 0 0 0-8.123-1.034c1.27-2.476.013-6.495-2.754-9.712-7.216-8.385-18.692-14.35-33.9-16.729-12.125-1.896-32.44-2.878-43.823 8.675-2.11 2.141-4.12 5.096-4.842 9.242-.404 2.325 2.043 2.81 2.072.696.04-3.033-1.29-5.424-3-7.752-14.663-19.96-59.314-23.34-76.369-4.777-3.725 4.054-5.357 7.179-5.71 11.018-.19 2.076 2.308 2.4 1.66-.098-3.04-11.706-19.935-21.107-41.977-20.28-22.399.84-36.326 12.122-35.614 22.847.125 1.879 2.851 2.133 2.177-.106-3.68-12.226-25.528-21.485-48.242-15.244-12.453 3.421-18.662 12.2-18.8 21.72M-553.03-215.848c-12.138-7.09-45.044 9.717-30.537 28.632 20.824 27.153 82.28 30.287 82.31 15.535.005-2.814-2.793-2.904-2.241.497.49 3.026 2.39 5.508 5.856 7.343 13.41 7.101 33.108 6.63 46.057 5.426 8.567-.797 17.544-3.397 23.625-8.592 3.095-2.643 4.735-5.537 4.406-8.71-.133-1.286-1.77-1.604-1.427-.2 1.54 6.305 6.457 11.638 12.317 14.685 15.646 8.136 41.387 7.515 53.823-3.188 6.131-5.278 7.488-8.113 8.926-13.236.868-3.093-2.427-2.18-1.563.292 3.702 10.582 16.82 16.323 25.328 17.802 11.873 2.065 25.722-.086 35.886-7.852 2.3-1.757 4.254-3.533 5.963-5.989 1.116-2.352-4.628-.8-3.016.693 1.256 1.06 2.514 2.232 4.025 3.18 4.675 2.94 10.574 4.123 15.855 4.683 9.457 1.003 19.227.292 28.21-3.22 9.183-3.592 19.241-10.432 19.884-22.225.594-10.905-9.876-19.937-18.306-22.38-3.057-.887-5.957-1.099-8.117-1.125 1.248-2.535.018-6.501-2.689-9.675-7.057-8.275-18.28-14.161-33.156-16.508-11.858-1.872-31.726-2.84-42.86 8.56-2.064 2.113-4.037 5.027-4.718 9.227-.399 2.463 2.086 2.956 2.114.813.041-3.073-1.305-5.495-3.036-7.854-14.84-20.224-60.034-23.649-77.296-4.84-3.77 4.107-5.427 7.273-5.764 11.096-.178 2.008 1.37 2.333.735-.165-2.976-11.707-19.514-21.107-41.09-20.28-21.926.839-35.586 12.124-34.831 22.846.132 1.881 2.956 2.133 2.265-.105-3.776-12.226-26.198-21.485-49.508-15.245-12.78 3.422-19.152 12.201-19.294 21.72" style="clip-rule:evenodd;display:inline;fill:#e1f4fe;fill-opacity:1;fill-rule:nonzero;stroke:#000;stroke-width:1.09606;stroke-linecap:round;stroke-linejoin:round;stroke-miterlimit:4;stroke-dasharray:none;stroke-opacity:1"/></g><g fill="#d37c91" style="display:inline"><path d="M627.59 313.304c-3.003-1.041-6.713.457-7.98 3.398-1.25 4.682 4.985 7.223 8.453 4.908 1.265-.862 2.187-2.319 1.995-3.845-.04-1.434-1.008-2.467-1.76-3.58-.495-.427-.821-.881.236-.423 2.234 1.879 2.821 5.663.401 7.676-2.775 2.448-8.417 1.69-9.784-1.97-1.546-4.828 5.261-8.617 9.37-6.094M631.898 323.127c.588.313-1.622.773-.64-.37 2.96-2.845 2.903 2.083.064.58-.055-.785.97-.852 1.552-1.014.3.457-1.166.451-1.237.692.518.603 1.995.274 1.686-.65-.472-.498-2.61.537-1.425.762" style="clip-rule:evenodd;fill:#000;fill-rule:nonzero;stroke:#000;stroke-width:.869291;stroke-linecap:round;stroke-linejoin:round;stroke-miterlimit:4;stroke-dasharray:none;stroke-opacity:1" transform="translate(-567.815 -256.379)"/><path d="M642.162 315.236c1.686.014 6.514.08 8.066-.024.004.727-.04.166-.176.489-2.213-.005-5.014-.077-7.728-.06" style="clip-rule:evenodd;fill:#000;fill-rule:nonzero;stroke:#000;stroke-width:.869292;stroke-linecap:round;stroke-linejoin:round;stroke-miterlimit:4;stroke-dasharray:none;stroke-opacity:1" transform="translate(-573.65 -257.582)"/><path d="M643.17 314.912c1.357-.766-1.113 3.795-.89 3.99 2.883-.74 7.816-.323 8.144 3.494-.7 4.51-7.015 3.262-9.44.789-.031-.225.082-.31.254-.28 2.233 1.684 6.291 3.397 8.42.626 1.541-4.227-4.527-5.237-7.587-4.308-.152-1.293 1.047-2.868 1.1-4.311" style="clip-rule:evenodd;fill:#000;fill-rule:nonzero;stroke:#000;stroke-width:.869292;stroke-linecap:round;stroke-linejoin:round;stroke-miterlimit:4;stroke-dasharray:none;stroke-opacity:1" transform="translate(-573.65 -257.582)"/><path d="M653.54 315.239c-1.737-.193-2.635.06-3.79.72-1.974 1.192-3.12 3.63-2.855 5.821 1.122 2.855 8.034 3.751 7.983.17-.62-1.519-2.324-2.204-3.946-2.295-1.34-.053-4.15.39-3.204.03 4.047-.966 8.782.585 7.364 3.509-1.38 2.281-6.936 1.637-8.621-1.083-.618-3.68 2.9-7.777 7.058-7.026M657.063 317.909c-.06.088-.35.279-.345.068 1.678-2.232 5.36-3.796 7.865-2.654-1.355 3.39-3.948 6.751-6.456 9.176 2.276-.996 5.273-.528 7.842-.387.53.025 1.462.048.763.432-2.943-.149-6.048-.674-8.887.22 2.312-2.811 4.88-5.74 6.35-9.131-2.286-.998-5.539.356-7.132 2.276M668.752 315.72c.05-.838 7.998-.974 7.976-.297-2.63.14-5.33.076-7.976.298" style="clip-rule:evenodd;fill:#000;fill-rule:nonzero;stroke:#000;stroke-width:.869291;stroke-linecap:round;stroke-linejoin:round;stroke-miterlimit:4;stroke-dasharray:none;stroke-opacity:1" transform="translate(-567.815 -256.379)"/><path d="M669.096 315.884c.312-.433-.05 2.358-.182 3.355 2.715-1.774 10.135-.516 7.724 4.374-1.296 2.17-5.736 2.575-7.979.348.092-.208.175-.264.271-.426.999.634 1.987 1.551 3.235 1.54 1.847-.018 3.402-.799 4.411-2.127.555-4.513-5.01-4.637-8.08-3.41.17-1.13.338-2.293.438-3.618M689.603 318.788c-.544-.407.755-.36 1.72-.352 2.518-.183 5.055-.25 7.57-.32.09.13-.112.275-.205.33-3.027.039-8.546.608-9.085.342zM689.439 321.805c-.128-.268 1.209-.266 2.058-.284 2.518-.204 4.655-.205 7.412-.246.382-.059.627.017.592.264-3.308.238-9.796.577-10.062.266zM717.223 315.803c-.02.84-1.222-.206-1.588-.001-2.645.574-4.874 2.77-4.244 5.627 1.44 3.925 6.856 4.017 9.467 1.266.98-1.538.393-3.521-.792-4.773-.36-.411-.796-.801-1.348-.919-6.515-.14-.35-1.748 1.616.426 4.408 4.151-2.332 9.16-6.61 7.196-5.746-2.102-1.438-10.589 3.499-8.823M723.116 324.258c-.621-.365 2.004-.878 1.403.252-.292.53-1.032.686-1.587.559-1.158-1.09.66-2.173.305-.357 1.263.43 1.025-.86-.121-.454" style="clip-rule:evenodd;fill:#000;fill-rule:nonzero;stroke:#000;stroke-width:.869291;stroke-linecap:round;stroke-linejoin:round;stroke-miterlimit:4;stroke-dasharray:none;stroke-opacity:1" transform="translate(-567.815 -256.379)"/><g style="stroke-width:2.28712;stroke-miterlimit:4;stroke-dasharray:none"><path d="M323.964 47.41c-.86.362-.31-.78.173-.864 25.92-3.503 24.755.07-.173.865" style="clip-rule:evenodd;fill:#000;fill-rule:nonzero;stroke:#000;stroke-width:2.28712;stroke-linecap:round;stroke-linejoin:round;stroke-miterlimit:4;stroke-dasharray:none;stroke-opacity:1" transform="matrix(.37647 -.00032 .00032 .38373 37.668 41.79)"/><path d="M324.158 47.17c3.833-3.42-1.102 9.147-.803 9.223 6.71-4.65 30.262-2.272 21.695 9.337-3.253 3.166-7.922 4.451-12.378 4.077-2.352-.252-4.617-1.082-6.66-2.26-.701-.894-6.9-2.955-3.561-4.156 5.234 4.343 12.718 7.567 19.256 3.964 2.117-1.1 4.209-2.863 4.589-5.349-3.072-8.476-16.673-7.62-23.701-4.867-.403-3.122 2.274-6.521 1.563-9.97" style="clip-rule:evenodd;fill:#000;fill-rule:nonzero;stroke:#000;stroke-width:2.28712;stroke-linecap:round;stroke-linejoin:round;stroke-miterlimit:4;stroke-dasharray:none;stroke-opacity:1" transform="matrix(.37647 -.00032 .00032 .38373 37.668 41.79)"/></g><g style="stroke-width:2.46749;stroke-miterlimit:4;stroke-dasharray:none"><path d="M362.443 58.558c-.844.382-.361-.743.129-.841 11.277-1.77 22.804-2.738 34.2-2.348.099.452-.445.797-.804.965-11.23-.364-22.424.595-33.525 2.224" style="clip-rule:evenodd;fill:#000;fill-rule:nonzero;stroke:#000;stroke-width:2.46749;stroke-linecap:round;stroke-linejoin:round;stroke-miterlimit:4;stroke-dasharray:none;stroke-opacity:1" transform="matrix(.35352 -.0003 .0003 .35108 46.448 44.063)"/><path d="M378.48 44.315c1.03 2.54 3.748 18.733 4.3 21.902.753 3.074-1.35 3.327-1.804-.417-1.631-7.027-1.489-14.485-3.843-21.324-.143-.5.9-.867 1.348-.161z" style="clip-rule:evenodd;fill:#000;fill-rule:nonzero;stroke:#000;stroke-width:2.46749;stroke-linecap:round;stroke-linejoin:round;stroke-miterlimit:4;stroke-dasharray:none;stroke-opacity:1" transform="matrix(.35352 -.0003 .0003 .35108 46.448 44.063)"/></g><path d="M768.164 315.804c-.538-.015-.828.055-1.196-.039-1.265.072-2.053.78-3.08 1.512-2.16 1.647-2.437 4.612-.852 6.578 2.975 2.792 8.474.75 10.263-2.397a4.621 4.621 0 0 0-1.597-4.362c-1.16-.701-2.578-.822-3.868-1.179-1.423.128-3.543.612-.64-.335 2.17.171 5.097.394 6.108 2.673.453.865.756 1.848.618 2.83-1.48 3.87-6.842 5.4-10.353 3.852-4.967-2.981.01-10.633 4.674-9.305M776.16 324.278c1.092-.863-.518 1.933-1.156.779-.227-.221-.272-.604-.144-.894 1.336-1.422.896.756.294-.044.024.606.933 1.095 1.007.159M783.635 316.422c-1.044-.306-2.366.071-3.262.86-1.934 1.558-2.743 4.802-.895 6.437 3.302 2.921 9.123.855 9.447-3.637.084-1.164-.738-2.515-1.59-3.138-.978-.718-2.325-1.03-3.42-.783-1.787.61-1.563-.144.162-.412 2.811-.437 6.95 2.427 4.755 6.514-1.825 3.202-6.53 4.637-9.75 1.927-3.075-2.59-.083-8.847 4.267-8.34M799.376 315.119c-1.275.02-2.434.523-3.44 1.011-2.5 1.212-5.688 4.714-3.597 7.696 2.057 2.19 6.146 1.916 7.311-.577.25-3.647-3.97-3.564-6.442-2.751-2.124 1.226-1.87.573.26-.367 1.46-.414 3.828-.553 5.26.202 5.044 3.973-4.965 7.646-7.148 2.941-1.183-4.308 4.038-8.475 7.74-8.559zM801.377 317.89c-.062.077-.33.248-.336.062 1.951-2.464 6.121-3.77 8.96-2.662-.67 4.01-4.444 7.423-7.658 9.473 2.566-.696 5.373-.614 8.04-.536.492.017.856.236.353.41-2.829-.317-5.792.004-8.54.285 2.592-2.503 7.11-5.817 6.939-9.6-2.764-.295-5.895.316-7.758 2.568M813.352 315.942c-.252.09-.05-.292.082-.308 2.716-.289 5.46-.333 8.175-.687.123.066-.044.243-.11.29-2.688.416-5.44.413-8.147.705M813.625 315.963c-.078.793-.35 3.286-.337 4.153 2.864-1.333 7.555-.994 8.768.737.946 1.35.438 2.97-1.799 3.745-1.983.687-4.053.538-6.196-.084-.756-.219-.528-.57.148-.33 2.833 1.01 7.632.816 7.744-1.928.13-3.214-6.405-2.883-9.013-1.757.057-1.146.276-3.09.38-4.517" style="clip-rule:evenodd;fill:#000;fill-rule:nonzero;stroke:#000;stroke-width:.869291;stroke-linecap:round;stroke-linejoin:round;stroke-miterlimit:4;stroke-dasharray:none;stroke-opacity:1" transform="translate(-567.815 -256.379)"/><g style="stroke-width:2.46749;stroke-miterlimit:4;stroke-dasharray:none"><path d="M625.245 48.576c-.768.24-.192-.794.22-.841 9.474-1.217 19.106-1.176 28.66-1.267.365.25-.226.728-.454.851-9.45.225-19.015.053-28.426 1.257M625.684 57.36c-.786.294-.213-.82.221-.851 9.832-1.335 19.775-1.406 29.65-1.043.155.397-.346.716-.606.868-9.763-.246-19.55-.314-29.265 1.026" style="clip-rule:evenodd;fill:#000;fill-rule:nonzero;stroke:#000;stroke-width:2.46749;stroke-linecap:round;stroke-linejoin:round;stroke-miterlimit:4;stroke-dasharray:none;stroke-opacity:1" transform="matrix(.35352 -.00035 .00032 .35108 47.265 45.726)"/></g><path d="M871.663 310.937c1.183-.874 2.07-2.788.862-3.817-1.516-1.166-5.504-.643-5.287 1.545 1.495 2.59 5.087 3.292 7.141 5.384-1.39 2.236-5.769 2.66-8.365 1.746-.12-2.185 3.365-3.056 5.01-4.212 1.511-.585.256.663-.418.441-1.13.679-2.347 1.247-3.392 2.038-.355.323-1.422 1.098-.656 1.514 2.41.768 5.587.27 7.47-1.176-2.065-2.118-5.682-2.813-7.19-5.417-.423-1.975 2.415-2.778 4.102-2.779 4.012-.137 2.352 4.245.738 5.063zM859.749 320.706c-.339.097-.016-.37.166-.336 7.08-.12 14.17-.495 21.238-.824.111.13-.126.291-.236.346-7.053.311-14.11.71-21.168.814M865.973 323.632c.006.774 0 2.165-.004 2.454-.038 2.543.07 4.986.779 7.65.237.894-.37.508-.473.137-.684-3.014-.783-7.24-.787-10.227zM875.811 324.304c-1.134.155-1.659.371-2.692 1.087-2.193 1.519-4.99 5.418-2.86 7.865 1.496 1.72 5.047.948 6.306-.843.911-2.177-3.26-2.958-5.31-2.432-.309.084-.69.167-.958.342-.705.462-.337-.348 1.209-.649 1.1-.2 2.282-.163 3.324.272 6.357 2.495-3.467 6.896-5.134 2.67-1.157-3.791 2.947-8.304 6.058-8.54z" style="clip-rule:evenodd;fill:#000;fill-rule:nonzero;stroke:#000;stroke-width:.869291;stroke-linecap:round;stroke-linejoin:round;stroke-miterlimit:4;stroke-dasharray:none;stroke-opacity:1" transform="translate(-567.815 -256.379)"/><path d="M894.104 320.917c-.425-.416 1.476-.265 2.591-.344 2.731-.272 5.48-.5 8.22-.616.107.109-.109.242-.205.299-3.527.133-7.062.719-10.606.66" style="clip-rule:evenodd;fill:#000;fill-rule:nonzero;stroke:#000;stroke-width:.869291;stroke-linecap:round;stroke-linejoin:round;stroke-miterlimit:4;stroke-dasharray:none;stroke-opacity:1" transform="rotate(2.605 6250.206 -12449.858)"/><path d="M899.245 316.033c.06-.124.346-.365.432-.186-.072 3.087.488 6.157.68 9.237-.691.907-.587-.94-.55-1.341-.26-2.56-.607-5.133-.562-7.71" style="clip-rule:evenodd;fill:#000;fill-rule:nonzero;stroke:#000;stroke-width:.869291;stroke-linecap:round;stroke-linejoin:round;stroke-miterlimit:4;stroke-dasharray:none;stroke-opacity:1" transform="rotate(2.605 6250.206 -12449.858)"/><path d="M912.55 305.131c.215 1.69.392 7.912.515 10.28-.18.172-.538.462-.694.367.168-3.572-.268-6.897-.393-10.456.172-.26.536-.387.571-.19zM903.434 320.905c-.242.141-.103-.276.043-.295 6.095-.812 12.273-.983 18.422-.985.195-.025.008.292-.085.313-6.126.022-12.296.19-18.38.967M907.25 325.04c.122 1.078.147 2.545.175 3 .13 2.104.125 3.886.062 5.769-.018.547.034 1.507-.611 1.488.111-3.404.143-6.53-.14-10.104-.015-.266.475-.436.514-.153zM917.924 324.791c-.57.168-1.503.483-2.152.99-2.153 1.677-4.886 5.338-2.653 7.877 1.95 1.623 5.605.959 6.59-1.406-.277-2.949-4.196-2.604-6.265-1.877-1.4.492-.15-.292 1.085-.59 1.07-.257 2.858-.445 4.016.15 4.442 2.778-3.254 6.805-5.697 3.983-2.535-3.368 1.463-8.708 5.028-9.45.13-.026.154.286.048.323zM1255.909 203.245c-1.044-.306-2.48-.405-3.377.384-1.61 1.596-2.457 4.702-.78 6.513 3.46 2.733 9.067.85 9.447-3.637.028-1.167-.487-2.598-1.59-3.138-2.109-.985-3.125-.897-4.22-.65-.305.007-.622.075-.856.28-1.326 2.187-.899-.595.827-.596 3.91-.834 7.941 2.198 5.746 6.285-1.825 3.202-6.297 4.331-9.75 1.927-2.813-2.873.05-9.342 4.286-7.882" style="clip-rule:evenodd;fill:#000;fill-rule:nonzero;stroke:#000;stroke-width:.869291;stroke-linecap:round;stroke-linejoin:round;stroke-miterlimit:4;stroke-dasharray:none;stroke-opacity:1" transform="translate(-567.815 -256.379)"/><g style="stroke-width:2.44238;stroke-miterlimit:4;stroke-dasharray:none"><path d="M623.378 110.329c-1.358-1.863 6.918-1.429 6.705-1.009 8.265-1.01 16.6-1.385 24.862-.567.174.38-.29.745-.534.925-10.322-1.166-20.682.586-31.033.651M623.677 119.756c-1.642-1.15 6.059-2.633 5.125-1.146 8.61-.497 17.25-.465 25.856-.738.312.311-.256.792-.497.949-10.132.337-20.334.356-30.484.935" style="clip-rule:evenodd;fill:#000;fill-rule:nonzero;stroke:#000;stroke-width:2.44238;stroke-linecap:round;stroke-linejoin:round;stroke-miterlimit:4;stroke-dasharray:none;stroke-opacity:1" transform="matrix(.35704 -.00655 .00642 .35468 294.381 27.017)"/></g><path d="M953.74 307.063c-.71.921-.42-1.669-1.569-1.124-2.64-.426-7.096.166-7.774 3.218 1.624 4.394 7.945 1.138 9.776-1.362-.041 2.978.098 6.018 1.195 8.828-1.149-.397.996-1.171-.204.248-1.088-2.665-1.96-6.45-.853-9.12-1.88 2.776-7.975 5.963-10.177 1.975.145-3.875 6.398-5.123 9.296-3.552.273.214.282.575.31.889M942.815 319.787c-.157-.04.1-.284.204-.228 5.397.49 10.901-.463 16.327-.365.027.098-.093.176-.169.216-5.447-.08-10.947.846-16.362.377M945.084 321.815c.242-.67.876.348.844.723.524 2.908.369 5.894.663 8.827a8.177 8.177 0 0 0 .312 1.306c.768.475-.528 1.293-.3.17a7.51 7.51 0 0 1-.2-.748c-.785-3.336.412-7.215-1.319-10.278M956.285 323.232c.477.311-1.675.49-1.672.598-2.329.907-4.532 2.78-4.802 5.385-.427 2.422 2.285 4.12 4.478 3.778 2.048.247 4.973-2.657 2.154-3.858a10.59 10.59 0 0 0-5.236-.626 4.424 4.424 0 0 0-1.541.588c-1.894 2.297-.825-.331.799-.578 2.278-.52 6.784-.832 7.471 2.027-.858 2.99-5.638 3.585-7.653 1.388-2.583-3.798 2.153-8.357 6.002-8.702" style="clip-rule:evenodd;fill:#000;fill-rule:nonzero;stroke:#000;stroke-width:.869291;stroke-linecap:round;stroke-linejoin:round;stroke-miterlimit:4;stroke-dasharray:none;stroke-opacity:1" transform="translate(-404.578 -256.379)"/><path d="M996.74 311.223c-2.474-.556-5.416-.265-6.677.079-8.052 2.194-14.992 8.982-13.055 18.24 4.428 12.723 21.092 13.02 29.125 4.104v0c1.68-2.178 3.16-5.02 2.994-9.506-.141-3.858-2.878-8.22-7.511-10.601M1033.194 318.627c2.714-.112 6.062 4.12 3.999 8.294-2.413 4.88-9.4 6.948-13.233 2.918-3.972-4.177.352-13.947 6.101-11.736" style="clip-rule:evenodd;fill:#e5f6ff;fill-opacity:1;fill-rule:nonzero;stroke:#000;stroke-width:1.09606;stroke-linecap:round;stroke-linejoin:round;stroke-miterlimit:4;stroke-dasharray:none;stroke-opacity:1" transform="translate(-567.815 -256.379)"/><path d="M193.943 354.431c-.831 1.064-.431-1.607-1.518-1.37-3.117-.622-6.714 1.349-7.569 4.435-.601 4.809 6.208 6.585 9.329 3.82 1.135-1.026 1.69-2.685 1.292-4.17-.235-1.416-1.334-2.307-2.23-3.307-.138-.168-.38-.171-.575-.125-1.117 1.416-.632-.798.75-.327 2.47 1.557 3.566 5.226 1.442 7.55-2.416 2.803-8.109 2.82-9.96-.62-2.189-4.573 4.361-9.092 8.452-7.313.416.347.565.908.587 1.427M197.352 362.54c.588.313-1.622.774-.64-.37 2.96-2.844 2.903 2.083.064.58-.055-.785.97-.851 1.552-1.014.3.457-1.166.451-1.237.693.518.603 1.995.273 1.685-.651-.472-.497-2.609.538-1.424.763" style="clip-rule:evenodd;fill:#000;fill-rule:nonzero;stroke:#000;stroke-width:.869291;stroke-linecap:round;stroke-linejoin:round;stroke-miterlimit:4;stroke-dasharray:none;stroke-opacity:1" transform="translate(-567.815 -256.379)"/><g style="stroke-width:2.46749;stroke-miterlimit:4;stroke-dasharray:none"><path d="M88.588 42.432c1.19-3.722 18.732.549 23.275-1.892-.372 3.523-3.25.703-.168.682-7.504 1.231-15.428 1.17-23.107 1.21" style="clip-rule:evenodd;fill:#000;fill-rule:nonzero;stroke:#000;stroke-width:2.46749;stroke-linecap:round;stroke-linejoin:round;stroke-miterlimit:4;stroke-dasharray:none;stroke-opacity:1" transform="matrix(.35352 -.0003 .0003 .35108 -398.228 82.214)"/><path d="M91.158 41.811c4.184-3.565-1.082 11.213-.36 11.64 7.619-3.607 21.699-5.38 24.632 5.124.443 12.99-17.917 13.176-25.965 7.55 2.862-5.783 7.988-1.156.558-.916 7.099 3.518 19.636 6.503 24.082-2.386 1.586-12.804-15.708-12.874-23.717-8.643-1.107-3.537 1.388-8.303.77-12.369" style="clip-rule:evenodd;fill:#000;fill-rule:nonzero;stroke:#000;stroke-width:2.46749;stroke-linecap:round;stroke-linejoin:round;stroke-miterlimit:4;stroke-dasharray:none;stroke-opacity:1" transform="matrix(.35352 -.0003 .0003 .35108 -398.228 82.214)"/></g><path d="M218.214 352.741c.099.944-3.18.277-3.602 1.572-1.75 1.606-2.48 4.381-1.857 6.649 1.576 2.816 8.542 2.545 7.902-1.228-.861-1.494-2.655-1.917-4.27-1.727-2.135.466-6.374 3.076-1.706.095 2.24-1.125 7.31-.429 6.392 2.908-1.898 2.724-6.572 2.951-8.682.376-1.216-3.778 1.598-8.705 5.823-8.645M222.517 355.711c-.06.088-.35.279-.345.068 1.678-2.231 5.36-3.796 7.865-2.654-1.355 3.39-3.948 6.751-6.456 9.176 2.276-.996 5.273-.528 7.842-.386.46-.262 1.462.047.763.431-2.943-.148-6.048-.674-8.887.221 2.312-2.812 4.88-5.74 6.35-9.132-2.286-.998-5.539.356-7.132 2.276M234.206 353.523c-.165-.767 8.32-1.332 7.976-.297-2.63.14-5.33.075-7.976.297" style="clip-rule:evenodd;fill:#000;fill-rule:nonzero;stroke:#000;stroke-width:.869291;stroke-linecap:round;stroke-linejoin:round;stroke-miterlimit:4;stroke-dasharray:none;stroke-opacity:1" transform="translate(-567.815 -256.379)"/><path d="M234.55 353.687c1.368-1.275-.336 3.235-.433 3.372 3.235-1.81 10.314-.337 7.975 4.357-2.21 1.902-5.736 2.574-7.979.347-.713-.799 1.177-1.606.271-.426.999.635 1.987 1.509 3.235 1.54 1.612-.094 3.527-.638 4.536-1.966.555-4.53-5.135-4.797-8.206-3.57-.259-1.112.948-2.401.6-3.654M255.057 356.59c-.545-.406 1.858-.749 1.72-.352 2.518-.182 5.055-.25 7.57-.32.09.13-.112.275-.206.33-3.026.04-8.545.608-9.084.342zM254.893 359.607c-.454-.578 1.939-.421 2.058-.284 2.518-.204 4.655-.205 7.412-.245-.55-.292.471-.419.592.263-3.308.238-9.796.577-10.062.266zM282.677 353.605c-.02.84-1.222-.206-1.588-.001-2.645.574-4.874 2.771-4.244 5.627 1.44 3.926 6.856 4.018 9.467 1.267.98-1.539.393-3.522-.792-4.774-.36-.41-.796-.801-1.348-.918-6.515-.14-.35-1.748 1.616.425 4.408 4.152-2.332 9.16-6.61 7.196-5.746-2.102-1.438-10.588 3.499-8.823M288.57 362.06c-.621-.364 2.004-.878 1.403.252-.292.53-1.032.686-1.587.559-1.158-1.09.66-2.173.305-.356 1.263.429 1.025-.86-.121-.454" style="clip-rule:evenodd;fill:#000;fill-rule:nonzero;stroke:#000;stroke-width:.869291;stroke-linecap:round;stroke-linejoin:round;stroke-miterlimit:4;stroke-dasharray:none;stroke-opacity:1" transform="translate(-567.815 -256.379)"/><g style="stroke-width:2.28712;stroke-miterlimit:4;stroke-dasharray:none"><path d="M323.964 47.41c-.86.362-.31-.78.173-.864 25.92-3.503 24.755.07-.173.865" style="clip-rule:evenodd;fill:#000;fill-rule:nonzero;stroke:#000;stroke-width:2.28712;stroke-linecap:round;stroke-linejoin:round;stroke-miterlimit:4;stroke-dasharray:none;stroke-opacity:1" transform="matrix(.37647 -.00032 .00032 .38373 -396.878 79.591)"/><path d="M324.158 47.17c3.833-3.42-1.102 9.147-.803 9.223 6.71-4.65 30.262-2.272 21.695 9.337-3.253 3.166-7.922 4.451-12.378 4.077-2.352-.252-4.617-1.082-6.66-2.26-.701-.894-6.9-2.955-3.561-4.156 5.234 4.343 12.718 7.567 19.256 3.964 2.117-1.1 4.209-2.863 4.589-5.349-3.072-8.476-16.673-7.62-23.701-4.867-.403-3.122 2.274-6.521 1.563-9.97" style="clip-rule:evenodd;fill:#000;fill-rule:nonzero;stroke:#000;stroke-width:2.28712;stroke-linecap:round;stroke-linejoin:round;stroke-miterlimit:4;stroke-dasharray:none;stroke-opacity:1" transform="matrix(.37647 -.00032 .00032 .38373 -396.878 79.591)"/></g><g style="stroke-width:2.46749;stroke-miterlimit:4;stroke-dasharray:none"><path d="M362.443 58.558c-.844.382-.361-.743.129-.841 11.277-1.77 22.804-2.738 34.2-2.348.099.452-.445.797-.804.965-11.23-.364-22.424.595-33.525 2.224" style="clip-rule:evenodd;fill:#000;fill-rule:nonzero;stroke:#000;stroke-width:2.46749;stroke-linecap:round;stroke-linejoin:round;stroke-miterlimit:4;stroke-dasharray:none;stroke-opacity:1" transform="matrix(.35352 -.0003 .0003 .35108 -388.098 81.865)"/><path d="M377.295 44.422c5.453-3.425 2.939 19.221 5.485 21.795.753 3.074-3.613 3.271-1.211-.58-1.631-7.026-1.92-14.376-4.274-21.215" style="clip-rule:evenodd;fill:#000;fill-rule:nonzero;stroke:#000;stroke-width:2.46749;stroke-linecap:round;stroke-linejoin:round;stroke-miterlimit:4;stroke-dasharray:none;stroke-opacity:1" transform="matrix(.35352 -.0003 .0003 .35108 -388.098 81.865)"/></g><path d="M333.618 353.606c.014.653-.98.208-1.196-.038-1.265.071-2.51.552-3.538 1.283-2.16 1.647-1.98 4.84-.394 6.807 2.975 2.791 8.474.844 10.434-2.227.287-1.662-.494-3.462-1.768-4.533-1.16-.701-2.578-.822-3.868-1.179-1.728.738-3.543.612-.64-.335 2.17.171 5.097.395 6.108 2.673.453.866.756 1.848.618 2.83-1.424 3.603-6.842 5.401-10.353 3.852-4.967-2.98-.467-11.11 4.597-9.133M339.906 362.198c1.023-.75-.487 1.683-1.085.678-.214-.192-.255-.526-.135-.778 1.253-1.238.84.659.275-.038.023.527.875.953.945.138M349.032 354.46c-.053 1.122-2.919-.559-3.53.802-1.61 1.596-2.36 4.683-.684 6.494 3.193 2.409 9.829 1.136 9.561-3.656.028-1.167-.486-2.598-1.59-3.138-1.384-.318-2.801-.554-4.22-.65-.304.007-.622.075-.856.28-1.325 2.187-.898-.595.828-.596 3.909-.834 7.94 2.198 5.745 6.285-1.825 3.201-6.716 3.836-9.75 1.927-2.813-2.873.26-9.209 4.496-7.749M364.453 352.887c-.103 1.05-2.698-.284-3.306.884-2.702 1.294-5.903 4.875-3.812 7.857 1.841 1.678 6.159 1.908 7.324-.584.163-1.072-.632-1.989-1.459-2.568-1.46-1.112-3.395-.713-4.996-.176-2.659 2.557-2.48.841.26-.366 1.46-.415 3.127-.877 4.558-.122 6.318 3.639-4.344 8.185-6.527 3.48-1.183-4.309 3.798-8.752 7.958-8.404M366.83 355.692c-.061.077-.329.249-.335.063 1.951-2.464 6.121-3.77 8.96-2.662-.67 4.01-4.444 7.422-7.658 9.472 2.566-.696 5.373-.614 8.04-.536.606-.269.856.236.353.41-2.829-.316-5.792.004-8.54.285 2.592-2.503 7.605-5.683 7.11-9.599-2.763-.295-6.066.315-7.93 2.567" style="clip-rule:evenodd;fill:#000;fill-rule:nonzero;stroke:#000;stroke-width:.869291;stroke-linecap:round;stroke-linejoin:round;stroke-miterlimit:4;stroke-dasharray:none;stroke-opacity:1" transform="translate(-567.815 -256.379)"/><g style="stroke-width:2.65846;stroke-miterlimit:4;stroke-dasharray:none"><path d="M569.218 43.808c-.868.284-.181-.858.273-.914 9.373-1.082 18.857-1.443 28.224-2.715.427.182-.143.718-.369.86-9.274 1.455-18.787 1.679-28.128 2.769" style="clip-rule:evenodd;fill:#000;fill-rule:nonzero;stroke:#000;stroke-width:2.65846;stroke-linecap:round;stroke-linejoin:round;stroke-miterlimit:4;stroke-dasharray:none;stroke-opacity:1" transform="matrix(.31485 -.00226 .0024 .33959 -368.3 83.925)"/><path d="M569.394 42.926c4.437-3.247-3.174 13.175-.557 11.859 11.004-9.344 40.861.08 22.113 14.216-4.216 1.725-8.969 1.681-13.417 1.08-12.953-2.582-7.202-7.038 1.217-.936 7.058 1.758 17.281-.675 17.313-9.464-3.787-11.129-19.829-7.138-28.136-3.877-.904-3.858 1.102-8.677 1.467-12.878" style="clip-rule:evenodd;fill:#000;fill-rule:nonzero;stroke:#000;stroke-width:2.65846;stroke-linecap:round;stroke-linejoin:round;stroke-miterlimit:4;stroke-dasharray:none;stroke-opacity:1" transform="matrix(.31485 -.00226 .0024 .33959 -368.3 83.925)"/></g><g style="stroke-width:2.46749;stroke-miterlimit:4;stroke-dasharray:none"><path d="M625.245 48.576c-.768.24-.192-.794.22-.841 9.474-1.217 19.106-1.176 28.66-1.267.365.25-.226.728-.454.851-9.45.225-19.015.053-28.426 1.257M625.684 57.36c-.786.294-.213-.82.221-.851 9.832-1.335 19.775-1.406 29.65-1.043.155.397-.346.716-.606.868-9.763-.246-19.55-.314-29.265 1.026" style="clip-rule:evenodd;fill:#000;fill-rule:nonzero;stroke:#000;stroke-width:2.46749;stroke-linecap:round;stroke-linejoin:round;stroke-miterlimit:4;stroke-dasharray:none;stroke-opacity:1" transform="matrix(.35352 -.00035 .00032 .35108 -387.281 83.528)"/></g><path d="M436.046 350.694c-.926.198 1.27-1.124 1.186-1.035.82-.95 1.63-2.56.747-3.664-1.516-1.167-5.504-.643-5.287 1.544 1.495 2.591 5.087 3.293 7.141 5.385-1.39 2.235-5.769 2.66-8.365 1.746-.121-2.185 3.365-3.056 5.01-4.212 1.511-.585.256.662-.418.44-1.13.68-2.347 1.248-3.392 2.039-.355.323-1.422 1.098-.656 1.514 2.41.768 5.587.27 7.47-1.177-2.065-2.117-5.682-2.813-7.19-5.417-.423-1.974 2.415-2.778 4.102-2.778 4.012-.137 2.181 4.855-.348 5.615M425.203 358.508c-.339.098-.016-.37.166-.336 7.08-.12 14.17-.494 21.238-.823.111.129-.126.29-.236.346-7.053.31-14.11.71-21.168.813M430.942 360.67c.908-.857.472 1.349.534 1.631-.104 2.541.374 5.076.968 7.556-.005.961-1.502 1.087-.405.19-.953-3.067-.918-6.243-1.097-9.378M441.639 360.304c.142.823-2.923-.007-3.066 1.302-2.169 1.554-4.649 5.088-2.593 7.598 1.569 1.653 5.009 1.253 6.268-.538-.747-2.062-3.489-2.996-5.54-2.47a2.234 2.234 0 0 0-.85.43c-.859 1.716-.39-1.123 1.102-.737 1.1-.2 2.282-.163 3.324.272 6.357 2.495-3.467 6.896-5.134 2.67-1.157-3.791 2.65-8.37 6.489-8.527M452.504 358.719c-.547-.582 2.444-.385 2.592-.344 2.73-.272 5.48-.5 8.22-.616.106.109-.11.242-.206.299-3.526.133-7.062.72-10.606.661" style="clip-rule:evenodd;fill:#000;fill-rule:nonzero;stroke:#000;stroke-width:.869291;stroke-linecap:round;stroke-linejoin:round;stroke-miterlimit:4;stroke-dasharray:none;stroke-opacity:1" transform="translate(-567.815 -256.379)"/><path d="M457.645 353.835c.061-.123.346-.365.433-.186-.072 3.088.487 6.157.68 9.237-.692.907-.587-.939-.55-1.341-.26-2.56-.607-5.133-.563-7.71M476.379 345.106c.977-.864.164 1.624.515 1.743-.598 2.345 1.94 7.17.069 8.941.167-3.572-.459-7.125-.584-10.684M468.026 358.707c-.243.141-.103-.276.043-.295 6.095-.812 12.273-.983 18.421-.984.195-.025.008.29-.084.312-6.126.022-12.296.19-18.38.967M471.328 360.918c1.208-1.018.374 2.317.65 2.428.224 2.045.363 4.103.044 6.15-.31.395.432 1.803-.554 1.774.416-3.442.257-6.91-.14-10.352M482.468 360.583c.107.635-2.074.233-2.19 1.142-2.132 1.703-4.8 5.367-2.567 7.906 1.95 1.623 5.605.959 6.59-1.406-.277-2.948-4.206-2.63-6.265-1.877-2.772 1.523.792-1.159 1.818-.628 1.082-.2 2.248-.225 3.283.189 4.441 2.777-3.255 6.805-5.697 3.982-2.535-3.368 1.463-8.565 5.028-9.308" style="clip-rule:evenodd;fill:#000;fill-rule:nonzero;stroke:#000;stroke-width:.869291;stroke-linecap:round;stroke-linejoin:round;stroke-miterlimit:4;stroke-dasharray:none;stroke-opacity:1" transform="translate(-567.815 -256.379)"/><path d="M632.805 315.367c-3.117-.623-6.589 1.366-7.444 4.453-.6 4.808 5.922 6.477 9.043 3.712 1.135-1.026 1.851-2.595 1.453-4.081-.235-1.416-1.334-2.307-2.23-3.307-.55-.356-.934-.762.175-.452 2.47 1.558 3.566 5.227 1.442 7.55-2.416 2.803-8.109 2.82-9.96-.619-2.189-4.573 4.039-9.253 8.452-7.313M637.732 324.846c.589.313-1.622.773-.64-.37 2.96-2.845 2.903 2.083.064.58-.055-.785.97-.852 1.552-1.014.3.457-1.166.45-1.237.692.518.603 1.995.274 1.686-.65-.472-.498-2.61.537-1.425.762" style="clip-rule:evenodd;fill:#000;fill-rule:nonzero;stroke:#000;stroke-width:.869291;stroke-linecap:round;stroke-linejoin:round;stroke-miterlimit:4;stroke-dasharray:none;stroke-opacity:1" transform="translate(-698.792 -256.379)"/><path d="M642.162 315.236c1.686.014 6.514.08 8.066-.024.004.727-.04.166-.176.489-2.213-.005-5.014-.077-7.728-.06" style="clip-rule:evenodd;fill:#000;fill-rule:nonzero;stroke:#000;stroke-width:.869292;stroke-linecap:round;stroke-linejoin:round;stroke-miterlimit:4;stroke-dasharray:none;stroke-opacity:1" transform="translate(-698.792 -256.379)"/><path d="M642.206 315.55c1.188-1.007-.38 3.937-.124 4.087 2.692-1.269 7.615-1.788 8.655 1.9.16 4.56-6.276 4.522-9.123 2.55-.072-.215.023-.32.197-.322 2.51 1.233 6.819 2.152 8.388-.97.718-4.442-5.432-4.292-8.262-2.804-.392-1.241.488-3.014.269-4.44" style="clip-rule:evenodd;fill:#000;fill-rule:nonzero;stroke:#000;stroke-width:.869292;stroke-linecap:round;stroke-linejoin:round;stroke-miterlimit:4;stroke-dasharray:none;stroke-opacity:1" transform="translate(-698.792 -256.379)"/><path d="M658.612 315.082c-1.745.103-2.59.527-3.62 1.429-1.75 1.605-2.48 4.38-1.857 6.649 1.576 2.816 8.542 2.545 7.902-1.228-.86-1.494-2.655-1.917-4.27-1.728-1.33.18-4.03 1.143-3.156.597 3.833-1.733 8.76-.93 7.842 2.407-.985 2.652-6.572 2.951-8.682.376-1.216-3.778 1.58-8.723 5.805-8.663M662.897 317.909c-.06.088-.35.279-.345.068 1.678-2.232 5.36-3.796 7.865-2.654-1.355 3.39-3.948 6.751-6.456 9.176 2.276-.996 5.273-.528 7.842-.387.53.025 1.462.048.763.432-2.943-.149-6.048-.674-8.887.22 2.312-2.811 4.88-5.74 6.35-9.131-2.286-.998-5.539.356-7.132 2.276M674.586 315.72c.05-.838 7.998-.974 7.976-.297-2.63.14-5.33.076-7.976.298" style="clip-rule:evenodd;fill:#000;fill-rule:nonzero;stroke:#000;stroke-width:.869291;stroke-linecap:round;stroke-linejoin:round;stroke-miterlimit:4;stroke-dasharray:none;stroke-opacity:1" transform="translate(-698.792 -256.379)"/><path d="M674.93 315.884c.312-.433-.05 2.358-.182 3.355 2.715-1.774 10.135-.516 7.724 4.374-1.296 2.17-5.736 2.575-7.979.348.092-.208.175-.264.271-.426.999.634 1.987 1.551 3.235 1.54 1.847-.018 3.402-.799 4.411-2.127.555-4.513-5.01-4.637-8.08-3.41.17-1.13.338-2.293.438-3.618" style="clip-rule:evenodd;fill:#000;fill-rule:nonzero;stroke:#000;stroke-width:.869291;stroke-linecap:round;stroke-linejoin:round;stroke-miterlimit:4;stroke-dasharray:none;stroke-opacity:1" transform="translate(-698.792 -256.379)"/></g></svg>