<svg xmlns="http://www.w3.org/2000/svg" xmlns:xlink="http://www.w3.org/1999/xlink" id="svg482" width="480" height="380" preserveAspectRatio="none" version="1.1" viewBox="-10 -10 480 380"><style id="style419" type="text/css">.grid{stroke:#9e9ed1;stroke-width:.4}.axes{stroke:#000;stroke-width:.9}</style><defs id="defs424"><path id="STIXWEBMAIN-2212" stroke-width="1" d="M621 220H64v66h557z"/><path id="STIXWEBMAIN-31" stroke-width="1" d="M394 0H118v15c74 4 95 25 95 80v449c0 34-9 49-30 49-10 0-27-5-45-12l-27-10v14l179 91 9-3V76c0-43 20-61 95-61z"/><path id="STIXWEBMAIN-30" stroke-width="1" d="M476 330c0-172-63-344-226-344C79-14 24 172 24 336c0 177 69 340 230 340 131 0 222-141 222-346Zm-96-5c0 208-44 325-132 325-83 0-128-118-128-321S164 12 250 12c85 0 130 115 130 313z"/><clipPath id="trbl_clip_0_950_150_0"><path id="path171313" d="M0 0h950v150H0Z"/></clipPath><clipPath id="trbl_clip_0_950_150_0-1"><path id="path171313-4" d="M0 0h950v150H0Z"/></clipPath></defs><g id="layer4"><path id="path2917" d="M110.422 360V188.198m0 0V0" class="grid"/><path id="path2919" d="M230.422 360V0" class="grid"/><path id="path2921" d="M350.422 360V188.198m0 0V0" class="grid"/><path id="path2923" d="M50.422 300h171.803m0 0h188.197" class="grid"/><path id="path2925" d="M50.422 180h360" class="grid"/><path id="path2927" d="M50.422 60h171.803m0 0h188.197" class="grid"/><use xlink:href="#STIXWEBMAIN-2212" id="use2929" x="0" y="0" style="fill:#b8b8de;fill-opacity:1" transform="matrix(.01904 0 0 -.01904 81.24 173.27)"/><use xlink:href="#STIXWEBMAIN-31" id="use2931" x="685" y="0" style="fill:#b8b8de;fill-opacity:1" transform="matrix(.01904 0 0 -.01904 81.24 173.27)"/><g id="g2937" style="display:inline;fill:#b8b8de;fill-opacity:1" transform="matrix(.01903 0 0 -.01903 211.88 205.5)"><use xlink:href="#STIXWEBMAIN-30" id="use2935" x="0" y="0" style="fill:#b8b8de;fill-opacity:1" transform="translate(-211.217 43.72)"/></g><g id="g2941" style="fill:#b8b8de;fill-opacity:1" transform="matrix(.01903 0 0 -.01903 345.66 205.5)"><use xlink:href="#STIXWEBMAIN-31" id="use2939" x="0" y="0" style="fill:#b8b8de;fill-opacity:1" transform="translate(612.08 43.72)"/></g><g id="g2947" style="display:inline;fill:#b8b8de;fill-opacity:1" transform="matrix(.01904 0 0 -.01904 196.36 319.885)"><use xlink:href="#STIXWEBMAIN-2212" id="use2943" x="0" y="0" style="fill:#b8b8de;fill-opacity:1"/><use xlink:href="#STIXWEBMAIN-31" id="use2945" x="685" y="0" style="fill:#b8b8de;fill-opacity:1"/></g><g id="g2951" style="display:inline;fill:#b8b8de;fill-opacity:1" transform="matrix(.01903 0 0 -.01903 209.422 -37.817)"><use xlink:href="#STIXWEBMAIN-31" id="use2949" x="0" y="0" style="fill:#b8b8de;fill-opacity:1" transform="translate(0 582.933)"/></g><g id="g285835" style="fill:#b8b8de;fill-opacity:1" transform="matrix(.01903 0 0 -.01903 197.787 54.102)"><use xlink:href="#STIXWEBMAIN-31" id="use285833" x="0" y="0" style="fill:#b8b8de;fill-opacity:1" transform="translate(612.08 43.72)"/></g></g><g id="axes"><path id="path439" d="M50.422 180h360" class="axes"/><path id="path441" d="M230.422 360V0" class="axes"/></g><g id="layer2"><g id="g61320"><g id="g61267"><path id="path61174" d="M-19.816 428.87c-1.064.062-.231 2.02-.495 2.881-.713 1.575 3.742 1.824.823 2.451-1.664-.077-3.373.156-5.01-.118.155-1.12 2.42-1.103 1.688-3.085.01-2.939.014-5.877-.016-8.815-1.322-.525-2.525-1.848-.12-1.634 3.019.175 6.89-.774 8.913 2.085 2.034 3.475-1.873 6.68-5.244 6.224zm.473-7.267c-1.814-.3-.645 2.438-.968 3.602.26.884-.677 2.963.817 2.612 4.524.597 4.799-6.754.15-6.214z" style="font-size:21.5px;font-family:&quot;Song Myung&quot;;-inkscape-font-specification:&quot;Song Myung&quot;;text-align:center;text-anchor:middle;stroke-miterlimit:2"/><path id="path61176" d="M-5.777 420.227c5.209-.2 7.91 6.26 5.77 10.495-1.687 4.558-8.6 5.097-11.075.97-2.903-4.252-.447-11.632 5.305-11.465zm-3.784 7.16c-.348 2.905 1.744 7.37 5.264 5.702 2.83-2.179 2.711-6.558 1.552-9.615-1.285-3.634-6.498-2.107-6.564 1.439-.179.81-.242 1.645-.252 2.474z" style="font-size:21.5px;font-family:&quot;Song Myung&quot;;-inkscape-font-specification:&quot;Song Myung&quot;;text-align:center;text-anchor:middle;stroke-miterlimit:2"/><path id="path61178" d="M6.908 425.946c2.433.709 5.48 2.472 4.634 5.456-1.219 3.61-6.381 3.866-9.127 2.005-.401-1.182.086-4.112 1.59-2.43-.348 2.773 3.4 3.2 4.971 1.505 1.726-2.667-1.723-3.693-3.624-4.406-3.294-.945-4.043-5.974-.68-7.311 1.842-.805 6.078-1.047 6.202 1.562.571 1.882-1.968 2.47-1.84.334-.737-3.499-6.9.345-3.52 2.604.433.286.91.497 1.394.681z" style="font-size:21.5px;font-family:&quot;Song Myung&quot;;-inkscape-font-specification:&quot;Song Myung&quot;;text-align:center;text-anchor:middle;stroke-miterlimit:2"/><path id="path61180" d="M19.25 421.023c-1.593.492-2.114 1.815-1.828 3.65.077 2.757-.171 5.565.161 8.282 2.35.159 1.319 1.75-.595 1.247-1.247-.07-2.534.145-3.753-.118.154-1.12 2.42-1.103 1.687-3.085.01-2.939.014-5.877-.016-8.815-1.322-.525-2.524-1.848-.12-1.634 1.439.071 2.919-.149 4.329.118z" style="font-size:21.5px;font-family:&quot;Song Myung&quot;;-inkscape-font-specification:&quot;Song Myung&quot;;text-align:center;text-anchor:middle;stroke-miterlimit:2"/><path id="path61182" d="M30.795 422.14c-.483-.609-3.323-1.076-3.057.272-.029 3.377-.031 6.757.004 10.135 1.043.499 3.083 1.685.504 1.655-1.63-.073-3.304.15-4.906-.118.148-1.194 2.68-.975 1.88-3.102.003-3.112.033-6.224-.037-9.336-1.168.126-3.263-.569-3.148 1.252.003 2.347-2.296 1.16-1.533-.654-.452-1.741 1.2-1.864 2.511-1.694h8.835c.82.636.994 3.106.13 3.762-1.304.214-.914-1.399-1.183-2.171z" style="font-size:21.5px;font-family:&quot;Song Myung&quot;;-inkscape-font-specification:&quot;Song Myung&quot;;text-align:center;text-anchor:middle;stroke-miterlimit:2"/><path id="path61184" d="M39.846 421.023c-1.592.492-2.113 1.815-1.827 3.65.077 2.757-.171 5.565.161 8.282 2.35.159 1.319 1.75-.595 1.247-1.247-.07-2.534.145-3.753-.118.154-1.12 2.42-1.103 1.687-3.085.01-2.939.014-5.877-.016-8.815-1.322-.525-2.524-1.848-.12-1.634 1.439.071 2.919-.149 4.329.118z" style="font-size:21.5px;font-family:&quot;Song Myung&quot;;-inkscape-font-specification:&quot;Song Myung&quot;;text-align:center;text-anchor:middle;stroke-miterlimit:2"/><path id="path61186" d="M47.93 420.227c5.209-.2 7.91 6.26 5.77 10.495-1.687 4.558-8.6 5.097-11.075.97-2.903-4.252-.447-11.632 5.305-11.465zm-3.784 7.16c-.348 2.905 1.744 7.37 5.264 5.702 2.83-2.179 2.711-6.558 1.552-9.615-1.285-3.634-6.499-2.107-6.564 1.439-.18.81-.242 1.645-.252 2.474z" style="font-size:21.5px;font-family:&quot;Song Myung&quot;;-inkscape-font-specification:&quot;Song Myung&quot;;text-align:center;text-anchor:middle;stroke-miterlimit:2"/><path id="path61188" d="M69.495 420.55c1.282 1.134-2.374 1.152-1.29 3.251-.07 3.49.141 7.016-.108 10.482-1.367.315-1.866-1.688-2.762-2.464l-6.44-8.367v9.03c.956.56 3.61 1.626.784 1.72-1.22-.207-2.968.476-3.772-.473 1.262-.594 2.3-1.333 1.849-3.14-.08-2.92.162-5.877-.13-8.771-2.512-.327-.914-1.764.883-1.268 1.721-.3 2.262 1.768 3.277 2.757l5.28 6.918c-.082-2.773.162-5.595-.124-8.337-2.005.045-2.712-1.705-.278-1.338h2.83z" style="font-size:21.5px;font-family:&quot;Song Myung&quot;;-inkscape-font-specification:&quot;Song Myung&quot;;text-align:center;text-anchor:middle;stroke-miterlimit:2"/></g><g id="g61275"><path id="path61190" d="M92.366 420.55c1.547 1.104-1.988.986-1.643 2.683l-3.754 10.754c-1.273 1.323-1.648-1.256-2.076-2.12l-3.729-9.791c-1.59-.455-1.906-1.864.124-1.526 1.343.072 2.73-.152 4.042.123.31 1.24-2.506.83-1.127 2.554l2.745 7.621c.994-2.913 2.073-5.802 3.015-8.729-.737-.333-2.929-1.386-.745-1.57h3.148z" style="font-size:21.5px;font-family:&quot;Song Myung&quot;;-inkscape-font-specification:&quot;Song Myung&quot;;text-align:center;text-anchor:middle;stroke-miterlimit:2"/><path id="path61192" d="M103.395 431.063c1.337-1.566 1.638.791 1.344 1.845.33 1.615-1.446 1.297-2.514 1.294h-7.86c-1.61-1.096 2.248-.85 1.269-2.666.043-3.117.021-6.235 0-9.352-.524-.534-3.063-1.413-.783-1.634h8.91c.991.598.453 2.24.627 3.319-1.726 1.384-1.22-1.879-2.283-2.223h-3.913c-.076 1.669-.03 3.34-.043 5.01.995-.2 2.777.57 2.97-.816.294-2.08 1.697-.393 1.18.92-.209.89.493 2.425-.516 2.82-.742-.903-.975-2.393-2.727-1.871-1.441-.437-.754 1.255-.907 2.106 0 1.105-.011 2.209.043 3.312 1.57-.073 3.187.153 4.725-.124.357-.572.314-1.299.478-1.94z" style="font-size:21.5px;font-family:&quot;Song Myung&quot;;-inkscape-font-specification:&quot;Song Myung&quot;;text-align:center;text-anchor:middle;stroke-miterlimit:2"/><path id="path61194" d="M116.059 430.977c1.199-1.524 1.856.537 1.493 1.663-.4 2.348-4.185 1.903-6.066 1.691-3.976-.657-6.036-5.177-5.043-8.843.841-4.392 6.208-6.399 10.069-4.674 1.267.486.876 2.286.75 3.364-1.532.748-1.507-1.262-1.768-2.258-3.205-2.164-6.787 1.624-6.514 4.929-.46 3.18 1.72 7.382 5.45 6.504 1.606.04 1.394-1.284 1.629-2.376z" style="font-size:21.5px;font-family:&quot;Song Myung&quot;;-inkscape-font-specification:&quot;Song Myung&quot;;text-align:center;text-anchor:middle;stroke-miterlimit:2"/><path id="path61196" d="M129.174 422.14c-.517-.788-2.385-.564-3.037-.332-.072 3.578-.04 7.16-.016 10.739.658.508 3.329 1.475.814 1.655-1.735-.071-3.51.148-5.216-.118-.306-1.35 2.642-.568 1.865-2.51.034-3.309.041-6.62-.022-9.928-1.003.206-2.649-.534-3.056.655.229 1.072-.983 2.985-1.674 1.474.172-1.046-.243-2.347.417-3.192 3.73-.055 7.477-.056 11.207 0 .65.848.25 2.144.416 3.192-.775 1.552-1.872-.488-1.687-1.559z" style="font-size:21.5px;font-family:&quot;Song Myung&quot;;-inkscape-font-specification:&quot;Song Myung&quot;;text-align:center;text-anchor:middle;stroke-miterlimit:2"/><path id="path61198" d="M138.612 420.227c4.07-.184 6.94 4.064 6.443 7.861-.11 3.808-3.78 7.243-7.652 6.324-4.503-.743-6.403-6.185-4.735-10.057.89-2.44 3.322-4.207 5.944-4.128zm-3.784 7.16c-.348 2.905 1.744 7.37 5.264 5.702 2.735-2.057 2.644-6.168 1.75-9.153-.81-3.682-6.239-3.17-6.632.478-.286.962-.368 1.973-.382 2.973z" style="font-size:21.5px;font-family:&quot;Song Myung&quot;;-inkscape-font-specification:&quot;Song Myung&quot;;text-align:center;text-anchor:middle;stroke-miterlimit:2"/><path id="path61200" d="M157.49 432.633c.5.565 3.125.996 1.058 1.714-2.168.7-3.903-.768-3.909-2.88-.259-1.591-.727-3.82-2.869-3.478-1.362-.348-.562 1.466-.774 2.268.047 1.176-.41 3.175 1.355 2.935 1.452 1.316-1.454.991-2.312 1.01-1.085-.129-2.377.287-3.31-.266.232-1.053 2.383-.687 1.773-2.4.043-3.117.021-6.235 0-9.352-.523-.534-3.063-1.413-.782-1.634 2.807.161 5.78-.47 8.42.707 2.624 1.29 1.867 5.54-.916 6.144-.594.217 2.27 2.379 2.03 4.262l.235.97zm-6.494-5.698c2.13.344 4.92-.758 4.277-3.38-.032-1.91-3.389-2.504-4.245-1.628-.063 1.668-.019 3.339-.032 5.008z" style="font-size:21.5px;font-family:&quot;Song Myung&quot;;-inkscape-font-specification:&quot;Song Myung&quot;;text-align:center;text-anchor:middle;stroke-miterlimit:2"/></g><g id="g61279"><path id="path61202" d="M-1.297 445.394c4.928-.201 7.7 5.68 6.02 9.868-1.184 4.43-7.383 5.95-10.492 2.602-4.086-3.954-1.804-12.64 4.472-12.47zm-3.784 7.16c-.349 2.905 1.744 7.37 5.263 5.702 2.736-2.057 2.645-6.168 1.75-9.153-.808-3.683-6.238-3.17-6.631.478-.287.962-.368 1.973-.382 2.972z" style="font-size:21.5px;font-family:&quot;Song Myung&quot;;-inkscape-font-specification:&quot;Song Myung&quot;;text-align:center;text-anchor:middle;stroke-miterlimit:2"/><path id="path61204" d="M15.645 447.286c-.838-.933-2.487-.277-3.688-.473-1.448-.368-.626 1.628-.849 2.472.226.925-.654 2.956.914 2.537 2.1.823 1.907-1.748 3.252-1.757.218 1.54.219 3.219.005 4.762-1.52.363-.7-2.831-2.795-1.951-1.636-.507-1.449.809-1.376 2.01.129 1.305-.605 3.725 1.42 3.472 1.39 1.437-1.789.932-2.764 1.01-.954.077-4.128.154-2.28-1.008 1.83-.019.89-2.436 1.13-3.646-.091-2.575.196-5.223-.172-7.75-2.27-.153-1.378-1.735.528-1.248 2.707.085 5.47-.17 8.142.13.056 1.056.778 2.936-.285 3.504-1.214.184-.902-1.334-1.182-2.064z" style="font-size:21.5px;font-family:&quot;Song Myung&quot;;-inkscape-font-specification:&quot;Song Myung&quot;;text-align:center;text-anchor:middle;stroke-miterlimit:2"/></g><g id="g61289"><path id="path61206" d="M30.167 454.037c-1.048.056-.248 1.96-.494 2.817-.817 1.648 3.746 1.854.849 2.515-1.674-.075-3.391.152-5.037-.118.144-1.131 2.426-1.1 1.688-3.086.01-2.938.013-5.877-.016-8.815-.832-.495-2.878-1.594-.537-1.634 3.047.202 6.732-.767 9.074 1.71 2.396 3.107-.987 6.957-4.447 6.568l-.541.032zm.473-7.267c-1.79-.423-.682 2.13-.967 3.193.227.901-.466 2.723.365 3.02 3.6.987 5.727-4.718 2.123-6.014-.493-.151-1.008-.199-1.52-.2z" style="font-size:21.5px;font-family:&quot;Song Myung&quot;;-inkscape-font-specification:&quot;Song Myung&quot;;text-align:center;text-anchor:middle;stroke-miterlimit:2"/><path id="path61208" d="M48.958 457.885c2.038.618 1.471 1.863-.57 1.484-1.173-.072-2.387.148-3.531-.118.04-1.118 2.503-1.003 1.074-2.81-.072-1.465-1.086-1.6-2.327-1.415-.935.26-2.683-.635-2.87.688-.318.973-1.438 2.82.434 2.64 1.44 1.376-1.635.971-2.574 1.015-2.548.125-.779-1.132.386-1.784l4.173-11.439c1.432-1.447 1.943 1.21 2.34 2.233l3.465 9.506zm-7.61-3.913h3.74l-1.827-5.267-1.914 5.267z" style="font-size:21.5px;font-family:&quot;Song Myung&quot;;-inkscape-font-specification:&quot;Song Myung&quot;;text-align:center;text-anchor:middle;stroke-miterlimit:2"/><path id="path61210" d="M62.267 457.8c.746.457 3.194 1.355.73 1.74-2.349.715-3.567-1.269-3.66-3.268-.062-1.94-1.408-3.627-3.52-3.117-.04 1.557-.159 3.365.118 4.95 2.294.118 1.446 1.764-.495 1.264-1.274-.067-2.586.141-3.832-.118.143-1.131 2.426-1.1 1.688-3.086.01-2.938.013-5.877-.016-8.815-.832-.495-2.878-1.594-.538-1.634 2.838.191 5.941-.576 8.514.925 3.293 1.938-.417 6.146-1.483 6.268 1.93.844 1.987 3.139 2.494 4.89zm-6.493-5.698c2.767.757 5.852-2.123 3.612-4.687-1.006-.596-4.227-1.563-3.612.634v4.053z" style="font-size:21.5px;font-family:&quot;Song Myung&quot;;-inkscape-font-specification:&quot;Song Myung&quot;;text-align:center;text-anchor:middle;stroke-miterlimit:2"/><path id="path61212" d="M75.123 447.307c-.437-.61-3.061-.978-3.05.054-.046 3.45-.032 6.902-.002 10.352.549.57 3.339 1.312.913 1.656-1.767-.071-3.576.147-5.316-.118-.252-1.354 2.654-.599 1.866-2.57.036-3.289.038-6.58-.022-9.868-1.08.186-3.089-.615-3.115 1.036.324 1.97-2.217 2.036-1.58-.004-.307-1.511.506-2.53 2.072-2.128h9.288c.845.643.953 3.099.129 3.762-1.3.225-.913-1.405-1.182-2.171z" style="font-size:21.5px;font-family:&quot;Song Myung&quot;;-inkscape-font-specification:&quot;Song Myung&quot;;text-align:center;text-anchor:middle;stroke-miterlimit:2"/><path id="path61214" d="M84.175 446.19c-1.573.506-2.118 1.797-1.828 3.633.076 2.762-.169 5.576.162 8.299 2.277.144 1.397 1.736-.517 1.247-1.273-.067-2.586.141-3.832-.118.144-1.131 2.426-1.1 1.688-3.086.01-2.938.013-5.877-.016-8.815-.832-.495-2.878-1.594-.537-1.634 1.577.07 3.196-.146 4.746.119z" style="font-size:21.5px;font-family:&quot;Song Myung&quot;;-inkscape-font-specification:&quot;Song Myung&quot;;text-align:center;text-anchor:middle;stroke-miterlimit:2"/><path id="path61216" d="M95.548 456.144c1.386-1.609 1.768.939 1.485 2.079-1.422 1.942-4.888 1.657-7.096.974-5.688-1.995-5.59-11.364.107-13.287 2.096-.689 5.676-1.067 6.798 1.094.327 1.137-.178 3.558-1.487 1.98.304-2.478-2.548-3.179-4.386-1.956-3.098 2.174-3.215 7.099-1.195 10.042 1.15 1.837 5.682 2.49 5.682-.361l.092-.565z" style="font-size:21.5px;font-family:&quot;Song Myung&quot;;-inkscape-font-specification:&quot;Song Myung&quot;;text-align:center;text-anchor:middle;stroke-miterlimit:2"/><path id="path61218" d="M107.825 455.907c1.32-1.51 1.815.656 1.425 1.78.338 1.59-1.007 1.897-2.305 1.682-2.71-.076-5.463.154-8.145-.118-.219-1.252 2.4-.745 1.672-2.57.043-3.11.022-6.22 0-9.33-1.357-.564-2.459-1.86-.08-1.635 1.438.074 2.92-.15 4.332.119-.415 1.116-2.459 1.465-1.737 3.608.02 2.95-.044 5.902.043 8.85 1.402-.07 2.847.147 4.22-.117.373-.687.372-1.52.575-2.269z" style="font-size:21.5px;font-family:&quot;Song Myung&quot;;-inkscape-font-specification:&quot;Song Myung&quot;;text-align:center;text-anchor:middle;stroke-miterlimit:2"/><path id="path61220" d="M120.36 456.23c1.387-1.587 1.618.871 1.34 1.93.303 1.608-1.575 1.164-2.603 1.209-2.718-.076-5.48.153-8.17-.118-.236-1.258 2.397-.73 1.67-2.548.044-3.117.023-6.236 0-9.353-1.356-.563-2.458-1.859-.08-1.634h8.208c.989.598.459 2.239.627 3.32-1.734 1.384-1.204-1.879-2.283-2.223h-3.913c-.076 1.669-.03 3.34-.043 5.01 1.041-.176 2.975.582 2.996-1 .648-2.08 1.549.235 1.154 1.342.278 1.044-.234 3.831-1.138 1.75.065-1.56-1.845-.905-2.853-1.04-.367.675-.056 2.027-.159 2.966.227.793-.566 2.705.722 2.453 1.344-.073 2.735.152 4.046-.124.357-.572.314-1.3.478-1.94z" style="font-size:21.5px;font-family:&quot;Song Myung&quot;;-inkscape-font-specification:&quot;Song Myung&quot;;text-align:center;text-anchor:middle;stroke-miterlimit:2"/></g><path id="path61222" d="M135.548 457.541c.312.942 4.287.924 1.897 1.828-2.282-.068-4.597.135-6.858-.102-.334-1.635 3.136-.277 2.682-2.235v-8.736c-.306-.886-3.718-.121-1.455-1.48 1.232-.22 2.448-.806 3.691-.799.168 2.806-.028 5.659.043 8.484v3.04z" style="font-size:21.5px;font-family:&quot;Song Myung&quot;;-inkscape-font-specification:&quot;Song Myung&quot;;text-align:center;text-anchor:middle;stroke-miterlimit:2"/></g><g id="g20176" transform="translate(49.132 1.033)"><path id="path20069" d="m190.32 185.145-4.26 8.542-8.358-4.166" style="fill:none;fill-opacity:1;stroke:#000;stroke-width:.7;stroke-miterlimit:2;stroke-dasharray:none;stroke-dashoffset:0"/><path id="path20089" d="m187.587 169.696 8.357 4.166-4.286 8.598" style="fill:none;fill-opacity:1;stroke:#000;stroke-width:.7;stroke-miterlimit:2;stroke-dasharray:none;stroke-dashoffset:0"/><path id="path20085" d="m171.833 172.575 4.286-8.597 8.784 4.38" style="fill:none;fill-opacity:1;stroke:#000;stroke-width:.7;stroke-miterlimit:2;stroke-dasharray:none;stroke-dashoffset:0"/><path id="path20081" d="m175.019 188.183-8.784-4.38 4.259-8.542" style="fill:none;fill-opacity:1;stroke:#000;stroke-width:.7;stroke-miterlimit:2;stroke-dasharray:none;stroke-dashoffset:0"/></g><path id="path14649" d="m123.029 126.46 214.787 107.08" style="fill:#000;fill-opacity:1;stroke:#000;stroke-width:1.8;stroke-miterlimit:2;stroke-dasharray:1.8,1.8;stroke-dashoffset:0"/><path id="path14524" d="m176.882 287.394 107.08-214.789" style="fill:#000;fill-opacity:1;stroke:#000;stroke-width:1.8;stroke-miterlimit:2;stroke-dasharray:1.8,1.8;stroke-dashoffset:0"/><path id="path10324" d="M350.422 180a120 120 0 0 1-120 120 120 120 0 0 1-120-120 120 120 0 0 1 120-120 120 120 0 0 1 120 120z" style="fill:none;stroke:#000;stroke-width:1.8;stroke-miterlimit:2"/><path id="path640" d="M123.029 126.46A120 120 0 0 1 230.422 60a120 120 0 0 1 53.54 12.605A120 120 0 0 1 350.421 180a120 120 0 0 1-12.606 53.54A120 120 0 0 1 230.422 300a120 120 0 0 1-53.54-12.606A120 120 0 0 1 110.422 180a120 120 0 0 1 12.607-53.54" style="fill:none;stroke:#000;stroke-width:1.8;stroke-miterlimit:2"/><path id="path10455" d="M-106.777-30.41a120 120 0 0 1-120 120 120 120 0 0 1-120-120 120 120 0 0 1 120-120 120 120 0 0 1 120 120z" style="fill:none;stroke:#000;stroke-width:1.8;stroke-miterlimit:2"/><circle id="path10465" cx="283.961" cy="72.605" r="12.605" style="fill:red;fill-opacity:1;stroke:none;stroke-width:1.8;stroke-miterlimit:2;stroke-dasharray:none"/><circle id="circle10520" cx="176.882" cy="287.394" r="12.605" style="fill:#e5e500;fill-opacity:1;stroke:none;stroke-width:1.8;stroke-miterlimit:2;stroke-dasharray:none"/><circle id="circle12227" cx="337.816" cy="233.54" r="12.605" style="fill:#00f;fill-opacity:1;stroke:none;stroke-width:1.8;stroke-miterlimit:2;stroke-dasharray:none"/><circle id="circle12296" cx="123.029" cy="126.46" r="12.605" style="fill:#00d900;fill-opacity:1;stroke:none;stroke-width:1.8;stroke-miterlimit:2;stroke-dasharray:none"/><circle id="circle12878" cx="-134.935" cy="287.394" r="12.605" style="fill:#dd0;fill-opacity:1;stroke:none;stroke-width:1.8;stroke-miterlimit:2;stroke-dasharray:none"/><circle id="circle12880" cx="-164.747" cy="125.222" r="12.605" style="fill:#0c0;fill-opacity:1;stroke:none;stroke-width:1.8;stroke-miterlimit:2;stroke-dasharray:none"/><path id="path15451" d="m490.783 1403.31-214.788-107.081 107.081-214.788 214.788 107.08Z" style="fill:none;fill-opacity:1;stroke:#000;stroke-width:1.8;stroke-miterlimit:2;stroke-dasharray:none;stroke-dashoffset:0"/><path id="path15455" d="m-342.707 194.72-19.825-9.883 9.884-19.825 19.825 9.883z" style="fill:none;fill-opacity:1;stroke:#000;stroke-width:.7;stroke-miterlimit:2;stroke-dasharray:none;stroke-dashoffset:0"/><path id="path17844" d="m1149.58 287.394 107.08-214.789m-160.933 53.855 214.788 107.08" style="fill:#000;fill-opacity:1;stroke:#000;stroke-width:3;stroke-miterlimit:2;stroke-dasharray:none;stroke-dashoffset:0"/><path id="path17846" d="m1207.89 194.72-19.825-9.883 9.884-19.825 19.826 9.883z" style="fill:none;fill-opacity:1;stroke:#000;stroke-width:.7;stroke-miterlimit:2;stroke-dasharray:none;stroke-dashoffset:0"/><ellipse id="ellipse25418" cx="180" cy="-345.543" rx="141.053" ry="141.672" style="fill:none;fill-opacity:1;stroke:#000;stroke-width:1.3;stroke-miterlimit:2;stroke-dasharray:none;stroke-dashoffset:0"/><path id="path25420" d="M222.428-505.701 180-345.543l106.316-135.573" style="fill:none;fill-opacity:1;stroke:#000;stroke-width:1.3;stroke-miterlimit:2;stroke-dasharray:none;stroke-dashoffset:0"/><path id="path26292" d="m322.247-173.966 1.516 8.293-8.282.729" style="fill:none;fill-opacity:1;stroke:#000;stroke-width:1.3;stroke-miterlimit:2;stroke-dasharray:none;stroke-dashoffset:0;stroke-opacity:1"/><path id="path31169" d="M367.33 216.269a141.672 141.053 0 0 1-25.612 51.009" style="fill:none;fill-opacity:1;stroke:#000;stroke-width:1.3;stroke-miterlimit:2;stroke-dasharray:none;stroke-dashoffset:0"/><path id="path31173" stroke-linejoin="round" d="M350.17 266.282c-1.96-1.465-7.611-.081-8.515 1.113.904-1.194.675-6.976-1.285-8.442" class="difference-arrows-tips" style="display:inline;fill:none;stroke:#000;stroke-width:1.5;stroke-linecap:round;stroke-linejoin:round;stroke-dasharray:none"/><path id="path31186" d="M194.153 316.908a141.053 141.672 0 0 1-51.009-25.613" style="fill:none;fill-opacity:1;stroke:#000;stroke-width:1.3;stroke-miterlimit:2;stroke-dasharray:none;stroke-dashoffset:0"/><path id="path31190" stroke-linejoin="round" d="M144.14 299.747c1.465-1.96.08-7.611-1.114-8.515 1.195.904 6.977.675 8.442-1.284" class="difference-arrows-tips" style="display:inline;fill:none;stroke:#000;stroke-width:1.5;stroke-linecap:round;stroke-linejoin:round;stroke-dasharray:none"/><path id="path31198" d="M93.514 143.731a141.672 141.053 0 0 1 25.613-51.009" style="fill:none;fill-opacity:1;stroke:#000;stroke-width:1.3;stroke-miterlimit:2;stroke-dasharray:none;stroke-dashoffset:0"/><path id="path31202" stroke-linejoin="round" d="M110.675 93.718c1.96 1.465 7.611.081 8.515-1.113-.904 1.194-.675 6.976 1.284 8.442" class="difference-arrows-tips" style="display:inline;fill:none;stroke:#000;stroke-width:1.5;stroke-linecap:round;stroke-linejoin:round;stroke-dasharray:none"/><g id="g31216" transform="translate(948.304 -110.038)"><path id="path31210" d="M216.268 43.091a141.053 141.672 0 0 1 51.009 25.613" style="fill:none;fill-opacity:1;stroke:#000;stroke-width:1.3;stroke-miterlimit:2;stroke-dasharray:none;stroke-dashoffset:0"/><path id="path31212" d="M222.428 19.841 180 180 286.315 44.426" style="fill:none;fill-opacity:1;stroke:#000;stroke-width:1.3;stroke-miterlimit:2;stroke-dasharray:none;stroke-dashoffset:0"/><path id="path31214" stroke-linejoin="round" d="M266.281 60.252c-1.465 1.96-.081 7.611 1.113 8.515-1.194-.904-6.976-.675-8.442 1.285" class="difference-arrows-tips" style="display:inline;fill:none;stroke:#000;stroke-width:1.5;stroke-linecap:round;stroke-linejoin:round;stroke-dasharray:none"/></g><g id="g44298" transform="translate(50.422)"><path id="path25424" d="M216.268 43.091a141.053 141.672 0 0 1 51.009 25.613" style="fill:none;fill-opacity:1;stroke:#000;stroke-width:1.3;stroke-miterlimit:2;stroke-dasharray:none;stroke-dashoffset:0"/><path id="path117967" stroke-linejoin="round" d="M266.281 60.252c-1.465 1.96-.081 7.611 1.113 8.515-1.194-.904-6.976-.675-8.442 1.285" class="difference-arrows-tips" style="display:inline;fill:none;stroke:#000;stroke-width:1.5;stroke-linecap:round;stroke-linejoin:round;stroke-dasharray:none"/><path id="path36489" d="m228.7 25.752-1.273 3.979q-.318.992-.369 1.254-.05.261.094.446.152.188.641.344l-.109.341q-1.13-.345-1.72-.289l-.09-.028q-.106-.484.2-1.489-.678.56-1.377.728-.692.17-1.395-.055-.608-.194-.987-.617-.377-.431-.426-.888-.043-.455.216-1.262l.66-2.067q.338-1.052.374-1.294.039-.249-.126-.424-.157-.173-.683-.34l.11-.342 2.059.66-1.347 4.207q-.199.623-.215.928-.016.305.22.617.237.305.637.433.57.182 1.207-.022.64-.212.958-.568.328-.36.576-1.138l.439-1.37q.318-.994.364-1.216.047-.222-.074-.432-.111-.215-.637-.383l-.156-.05.11-.34z" style="font-size:25px;font-family:Baskerville;-inkscape-font-specification:Baskerville;text-align:center;text-anchor:middle;stroke:#000;stroke-width:0;stroke-miterlimit:2;stroke-dasharray:none"/><path id="path36491" d="m232.295 26.797.195.078q-.012.514-.298 1.296.765-.407 1.457-.483.691-.076 1.313.171.708.282 1.038.757.337.477.295.963-.04.478-.368 1.302l-.737 1.85q-.408 1.026-.461 1.264-.053.239.088.43.152.185.665.39l-.132.332-3.028-1.206.132-.332.138.055q.52.207.74.118.219-.088.321-.282.102-.194.497-1.184l.76-1.907q.278-.701.324-1.026.056-.33-.155-.682-.205-.35-.667-.533-.528-.21-1.139-.085-.6.12-1.277.58l-.961 2.413q-.409 1.026-.462 1.265-.046.241.096.431.152.187.672.394l-.132.332-2.992-1.191.133-.333q.498.199.734.175.235-.023.359-.208.134-.19.566-1.274l.702-1.763q.411-1.033.454-1.267.053-.239-.099-.425-.142-.19-.662-.397l.133-.333q.829.23 1.758.315z" style="font-size:25px;font-family:Baskerville;-inkscape-font-specification:Baskerville;text-align:center;text-anchor:middle;stroke:#000;stroke-width:0;stroke-miterlimit:2;stroke-dasharray:none"/><path id="path36493" d="M240.64 26.658q.134-.306.444-.434.318-.124.624.01t.424.449q.117.314-.018.62-.137.314-.447.441-.31.128-.617-.006t-.43-.452q-.118-.315.019-.628zm.071 3.58-1.781 4.07q-.409.933-.486 1.188-.078.254.044.46.122.207.578.406l.15.066-.144.328-3.142-1.376.143-.328.243.106q.506.222.718.145.222-.081.33-.271.12-.194.547-1.17l.773-1.768q.45-1.026.45-1.298.007-.268-.132-.397-.132-.126-.531-.3l-.192-.085.143-.327q1.325.427 2.132.483z" style="font-size:25px;font-family:Baskerville;-inkscape-font-specification:Baskerville;text-align:center;text-anchor:middle;stroke:#000;stroke-width:0;stroke-miterlimit:2;stroke-dasharray:none"/><path id="path36495" d="M245.318 32.784 243.563 32l-1.568 3.517q-.36.81-.416 1.126-.053.309.098.58.159.275.422.393.511.228 1.147-.187l.168.236q-.43.371-.97.42-.532.044-.972-.153-.512-.228-.77-.7-.247-.477-.166-.926.089-.446.542-1.462l1.47-3.297-.846-.377.146-.326q.588.245 1.262-.025.675-.27 1.186-1.073l.227.102-.814 1.826 1.755.782z" style="font-size:25px;font-family:Baskerville;-inkscape-font-specification:Baskerville;text-align:center;text-anchor:middle;stroke:#000;stroke-width:0;stroke-miterlimit:2;stroke-dasharray:none"/><path id="path36497" d="m246.452 40.222.89-1.893.275.13q-.293 1.864.94 2.444.534.251.947.05.42-.198.602-.585.212-.45.066-.871-.153-.425-.791-1.224-.671-.84-.856-1.434-.188-.587.093-1.185.269-.57.918-.892.654-.329 1.393.019.753.354.958 1.198.155-.056.516-.384l.26.122-.837 1.78-.26-.122q.16-.706-.034-1.356-.182-.653-.731-.911-.423-.2-.806-.061-.382.138-.545.483-.178.38-.02.79.15.414.777 1.147.941 1.105.967 1.745.022.646-.203 1.125-.354.753-1.076.99-.714.24-1.467-.115-.796-.374-1.107-1.32-.29.122-.595.46z" style="font-size:25px;font-family:Baskerville;-inkscape-font-specification:Baskerville;text-align:center;text-anchor:middle;stroke:#000;stroke-width:0;stroke-miterlimit:2;stroke-dasharray:none"/><path id="path36499" d="m255.238 37.154.184.1q-.093.446-.388.985.69-.225 1.312-.178.632.044 1.192.35 1.16.633 1.484 1.874.328 1.234-.403 2.572-.716 1.31-1.975 1.766-1.253.459-2.515-.231-.52-.283-.881-.756-.36-.462-.56-1.103l-1.159 2.123q-.53.97-.61 1.2-.076.234.046.433.118.206.602.471l-.171.314-2.922-1.596.172-.314.205.112q.484.265.706.2.225-.055.353-.242.132-.176.643-1.111l2.774-5.079q.489-.894.588-1.141.106-.244.003-.46-.103-.216-.54-.454l-.205-.112.172-.314q.713.3 1.893.59zm-2.303 4.929q.122.651.405 1.107.294.453.751.703.771.421 1.707.072.935-.349 1.725-1.796.686-1.256.473-2.179-.214-.923-.978-1.34-.471-.258-1.025-.25-.554.007-1.2.283z" style="font-size:25px;font-family:Baskerville;-inkscape-font-specification:Baskerville;text-align:center;text-anchor:middle;stroke:#000;stroke-width:0;stroke-miterlimit:2;stroke-dasharray:none"/><path id="path36501" d="m264.622 45.413-3.78-2.332q-.268.375-.387.567-.881 1.43-.883 2.425.01.993.897 1.54 1.205.743 2.373-.026l.318.196q-.628.545-1.494.54-.862-.01-1.603-.467-.689-.425-1.092-1.149-.393-.726-.392-1.603.001-.876.561-1.783.792-1.285 2.07-1.667 1.28-.388 2.413.31 1.066.657 1.249 1.665.182 1.008-.25 1.784zm-.996-.98q.114-.14.188-.259.359-.583.21-1.113-.137-.532-.634-.839-1.205-.743-2.359.61z" style="font-size:25px;font-family:Baskerville;-inkscape-font-specification:Baskerville;text-align:center;text-anchor:middle;stroke:#000;stroke-width:0;stroke-miterlimit:2;stroke-dasharray:none"/><path id="path36503" d="m270.032 48.921-3.724-2.42q-.276.369-.4.558-.915 1.409-.94 2.404-.013.992.86 1.56 1.188.771 2.374.03l.313.204q-.64.53-1.506.505-.861-.03-1.592-.505-.678-.44-1.064-1.174-.376-.736-.354-1.612.022-.876.602-1.77.822-1.265 2.108-1.617 1.29-.359 2.406.366 1.05.682 1.21 1.694.158 1.013-.293 1.777zm-.972-1.002q.117-.137.194-.255.373-.574.237-1.107-.125-.536-.615-.854-1.187-.771-2.373.555z" style="font-size:25px;font-family:Baskerville;-inkscape-font-specification:Baskerville;text-align:center;text-anchor:middle;stroke:#000;stroke-width:0;stroke-miterlimit:2;stroke-dasharray:none"/><path id="path36505" d="m275.973 51.373 1.368-2.079q.56-.851.68-1.089.126-.234.04-.458-.085-.223-.5-.497l-.137-.09.196-.299q.8.498 1.902.86l.136.09-4.708 7.154q-.612.93-.712 1.152-.1.223.004.431.111.213.58.521l-.197.3q-.955-.601-1.788-.935.123-.357.555-1.013-.797.164-1.469.067-.665-.093-1.21-.453-1.034-.68-1.24-2.007-.2-1.324.578-2.506.856-1.3 2.149-1.594 1.296-.302 2.356.396.539.355.891.866.353.511.525 1.183zm-.248.377q-.185-.652-.501-1.12-.305-.472-.74-.758-.734-.483-1.6-.243-.86.244-1.702 1.524-.855 1.3-.761 2.247.1.95.84 1.438.495.325 1.071.369.576.044 1.242-.189z" style="font-size:25px;font-family:Baskerville;-inkscape-font-specification:Baskerville;text-align:center;text-anchor:middle;stroke:#000;stroke-width:0;stroke-miterlimit:2;stroke-dasharray:none"/></g><g id="g37358" aria-label="unit speed" style="font-size:25px;font-family:Baskerville;-inkscape-font-specification:Baskerville;text-align:center;text-anchor:middle;stroke-width:2.04012;stroke-miterlimit:2" transform="scale(.63722) rotate(26.362 963.726 257.005)"><path id="path37340" d="M183.234 14.397v6.555q0 1.636.049 2.05.048.416.354.623.317.208 1.123.208v.561q-1.856.025-2.71.39h-.147q-.39-.67-.415-2.319-.745 1.16-1.709 1.746-.952.586-2.112.586-1 0-1.77-.452-.769-.464-1.062-1.123-.28-.659-.28-1.99v-3.405q0-1.734-.061-2.112-.061-.39-.391-.574-.318-.183-1.184-.183v-.561h3.393v6.933q0 1.026.122 1.49.122.463.623.817.5.342 1.16.342.94 0 1.794-.61.855-.623 1.16-1.306.317-.696.317-1.978v-2.258q0-1.636-.036-1.99-.037-.354-.318-.61-.268-.269-1.135-.269h-.256v-.561z" style="stroke-width:2.04012"/><path id="path37342" d="M188.837 13.994h.33q.28.757.317 2.063.879-1.038 1.843-1.55.964-.513 2.014-.513 1.196 0 1.953.5.77.5.989 1.233.22.72.22 2.112v3.125q0 1.733.06 2.112.062.378.38.574.329.183 1.195.183v.561h-5.114v-.561h.232q.879 0 1.147-.257.269-.256.305-.598.037-.342.037-2.014v-3.223q0-1.184-.122-1.684-.11-.513-.623-.904-.5-.39-1.281-.39-.892 0-1.71.537-.805.525-1.525 1.587v4.077q0 1.733.06 2.112.074.378.391.574.33.183 1.209.183v.561h-5.054v-.561q.842 0 1.172-.171.33-.171.403-.513.085-.354.085-2.185v-2.979q0-1.745-.073-2.111-.061-.379-.39-.562-.318-.195-1.197-.195v-.562q1.343-.146 2.747-.561z" style="stroke-width:2.04012"/><path id="path37344" d="M200.348 8.891q0-.525.366-.903.379-.379.904-.379.524 0 .89.379.367.378.367.903 0 .537-.366.916-.367.378-.891.378-.525 0-.904-.378-.366-.379-.366-.916zm2.356 5.103v6.97q0 1.6.049 2.014.049.415.354.635.305.22 1.086.22h.257v.561h-5.384v-.561h.415q.867 0 1.123-.245.269-.256.305-.598.05-.354.05-2.026v-3.027q0-1.758-.172-2.149-.158-.39-.44-.488-.268-.098-.951-.098h-.33v-.561q2.173-.22 3.37-.647z" style="stroke-width:2.04012"/><path id="path37346" d="M211.786 14.958h-3.015v6.043q0 1.391.122 1.88.122.476.513.769.402.293.854.293.879 0 1.526-1.001l.39.231q-.378.806-1.122 1.221-.733.403-1.49.403-.879 0-1.55-.513-.66-.525-.83-1.22-.159-.696-.159-2.442v-5.664h-1.452v-.561q1-.025 1.794-.843.793-.818 1.013-2.295h.39v3.138h3.016z" style="stroke-width:2.04012"/><path id="path37348" d="M219.476 24.712v-3.284h.476q.83 2.844 2.967 2.844.928 0 1.38-.561.463-.562.463-1.233 0-.782-.488-1.282-.5-.5-1.941-1.209-1.514-.744-2.173-1.464-.66-.708-.66-1.746 0-.989.709-1.88.708-.903 1.99-.903 1.306 0 2.16 1.062.183-.183.476-.891h.452v3.088h-.452q-.244-1.11-.952-1.904-.696-.806-1.648-.806-.732 0-1.184.452-.452.451-.452 1.05 0 .659.5 1.135.49.488 1.869 1.11 2.075.94 2.539 1.832.464.903.464 1.733 0 1.306-.867 2.124-.855.818-2.16.818-1.38 0-2.454-1.135-.33.366-.538 1.05z" style="stroke-width:2.04012"/><path id="path37350" d="M229.889 13.994h.33q.207.683.207 1.648.781-.83 1.672-1.233.904-.415 1.905-.415 2.075 0 3.454 1.465 1.38 1.452 1.38 3.845 0 2.344-1.392 3.918-1.38 1.575-3.638 1.575-.927 0-1.782-.378-.842-.367-1.599-1.1v3.797q0 1.734.061 2.112.073.379.39.562.318.195 1.185.195v.562h-5.225v-.562h.366q.867 0 1.123-.256.269-.245.306-.599.048-.341.048-2.014v-9.082q0-1.599-.048-2.014-.037-.415-.342-.635-.305-.22-1.087-.22h-.366v-.56q1.209-.123 3.052-.611zm.537 8.52q.66.806 1.392 1.221.744.403 1.562.403 1.38 0 2.405-1.184t1.025-3.772q0-2.246-.988-3.357-.99-1.111-2.356-1.111-.843 0-1.6.427-.756.427-1.44 1.294z" style="stroke-width:2.04012"/><path id="path37352" d="M249.81 17.778h-6.97q-.048.72-.048 1.074 0 2.637.818 3.967.83 1.319 2.466 1.319 2.221 0 3.149-1.99h.586q-.39 1.245-1.55 1.953-1.16.696-2.527.696-1.27 0-2.405-.635-1.123-.647-1.843-1.819-.72-1.171-.72-2.844 0-2.368 1.391-3.93 1.392-1.575 3.48-1.575 1.964 0 3.039 1.196 1.074 1.196 1.135 2.588zm-2.135-.488q.036-.281.036-.5 0-1.075-.635-1.661-.622-.598-1.538-.598-2.221 0-2.649 2.759z" style="stroke-width:2.04012"/><path id="path37354" d="M260.748 17.778h-6.97q-.049.72-.049 1.074 0 2.637.818 3.967.83 1.319 2.466 1.319 2.222 0 3.15-1.99h.585q-.39 1.245-1.55 1.953-1.16.696-2.527.696-1.27 0-2.405-.635-1.123-.647-1.843-1.819-.72-1.171-.72-2.844 0-2.368 1.392-3.93 1.391-1.575 3.479-1.575 1.965 0 3.04 1.196 1.073 1.196 1.134 2.588zm-2.136-.488q.037-.281.037-.5 0-1.075-.635-1.661-.623-.598-1.538-.598-2.222 0-2.649 2.759z" style="stroke-width:2.04012"/><path id="path37356" d="M271.088 15.459v-3.907q0-1.599-.05-2.014-.036-.415-.34-.635-.306-.22-1.087-.22h-.257v-.56q1.477-.037 3.235-.514h.257v13.44q0 1.746.06 2.124.062.379.379.562.33.183 1.208.183v.562q-1.77.036-3.149.317-.146-.574-.146-1.807-.904.904-1.868 1.355-.952.452-1.978.452-1.94 0-3.357-1.563-1.403-1.562-1.403-3.784 0-2.441 1.44-3.943 1.44-1.513 3.43-1.513 1.013 0 1.917.366.903.366 1.709 1.099zm0 .708q-.806-.696-1.624-1.038-.805-.354-1.623-.354-1.38 0-2.307 1.062-.916 1.062-.916 3.467 0 2.441.94 3.6.952 1.16 2.344 1.16.927 0 1.72-.439.794-.44 1.466-1.318z" style="stroke-width:2.04012"/></g><text xml:space="preserve" id="text45873" x="464.926" y="-108.09" style="font-style:normal;font-variant:normal;font-weight:400;font-stretch:normal;font-size:21.5px;font-family:Baskerville;-inkscape-font-specification:Baskerville;text-align:center;text-anchor:middle;fill:#000;fill-opacity:1;stroke:#f0f;stroke-width:0;stroke-miterlimit:2;stroke-dasharray:none;stroke-dashoffset:0;stroke-opacity:1"><tspan id="tspan45871" x="464.926" y="-108.09" style="font-style:normal;font-variant:normal;font-weight:400;font-stretch:normal;font-size:21.5px;font-family:&quot;Song Myung&quot;;-inkscape-font-specification:&quot;Song Myung&quot;;fill:#000">PARTICLE 2</tspan></text><text xml:space="preserve" id="text45927" x="464.926" y="-78.152" style="font-style:normal;font-variant:normal;font-weight:400;font-stretch:normal;font-size:21.5px;font-family:Baskerville;-inkscape-font-specification:Baskerville;text-align:center;text-anchor:middle;fill:#000;fill-opacity:1;stroke:#f0f;stroke-width:0;stroke-miterlimit:2;stroke-dasharray:none;stroke-dashoffset:0;stroke-opacity:1"><tspan id="tspan45929" x="464.926" y="-78.152" style="font-style:normal;font-variant:normal;font-weight:400;font-stretch:normal;font-size:21.5px;font-family:&quot;Song Myung&quot;;-inkscape-font-specification:&quot;Song Myung&quot;;fill:#000">PARTICLE 3</tspan></text><text xml:space="preserve" id="text45935" x="464.926" y="-48.214" style="font-style:normal;font-variant:normal;font-weight:400;font-stretch:normal;font-size:21.5px;font-family:Baskerville;-inkscape-font-specification:Baskerville;text-align:center;text-anchor:middle;fill:#000;fill-opacity:1;stroke:#f0f;stroke-width:0;stroke-miterlimit:2;stroke-dasharray:none;stroke-dashoffset:0;stroke-opacity:1"><tspan id="tspan45933" x="464.926" y="-48.214" style="font-style:normal;font-variant:normal;font-weight:400;font-stretch:normal;font-size:21.5px;font-family:&quot;Song Myung&quot;;-inkscape-font-specification:&quot;Song Myung&quot;;fill:#000">PARTICLE 4</tspan></text><path id="rect52016" d="M-243.844 339.872h108.41V359.5h-108.41z" style="fill:#fea;fill-opacity:1;stroke:#2b2200;stroke-width:1;stroke-miterlimit:2;stroke-dasharray:none;stroke-dashoffset:0;stroke-opacity:1"/><path id="rect46365" d="M24.558-162.125H149.57v8.894l44.39 2.264-1.427 52.068 14.006 4.106-17.73 1.984-3.412-50.912-35.827 1.36v9.372H24.558Z" style="fill:#fea;stroke:#2b2200;stroke-miterlimit:2"/><path id="path52905" d="M263.217-29.522h-27.902v-50.054H223.73v8.21H115.32v-19.628h108.41v8.291h14.712v50.055h24.775v-3.066l4.615 4.615-4.615 4.614z" style="fill:#fea;fill-opacity:1;stroke:#2b2200;stroke-width:1;stroke-miterlimit:2;stroke-dasharray:none;stroke-dashoffset:0;stroke-opacity:1"/><g id="g52004" transform="translate(-21.742 -158.602)"><g id="g46085" style="stroke-width:1.16635" transform="matrix(.85737 0 0 .85737 -337.793 62.994)"><path id="path46010" d="M564.14 18.417c-1.13.328-.24 2.991-.333 4.07 2.898.329.933 1.793-1.045 1.262-1.111.179-4.93-.009-2.468-1.04 1.61-.566.567-3.067.858-4.526-.094-2.27.199-4.617-.172-6.84-2.823-.396-.69-1.758 1.163-1.246 2.917.028 7-.494 8.152 2.967 1.084 3.862-3.018 5.58-6.155 5.353zm.473-7.267c-1.94-.284-.565 2.794-.967 4.014-1.073 2.954 2.529 2.786 3.871.845 1.345-2.173-.136-5.275-2.904-4.859z" style="font-size:21.5px;font-family:&quot;Song Myung&quot;;-inkscape-font-specification:&quot;Song Myung&quot;;text-align:center;text-anchor:middle;stroke:#f0f;stroke-width:0;stroke-miterlimit:2"/><path id="path46012" d="M582.931 22.266c2.572.845.813 1.89-1.206 1.483-1.303.403-4.54-.485-1.804-1.075.737-.587-.062-3.404-1.2-3.268-1.22.268-3.201-.548-3.92.43-1.012 1.727-.775 2.81.863 3.44-1.04.911-3.119.391-4.552.355.379-1.147 2.577-1.568 2.56-3.638 1.265-3.244 2.26-6.633 3.69-9.789 1.826-.513 1.685 2.22 2.384 3.324l3.185 8.738zm-7.61-3.913c1.016-.272 3.579.556 3.59-.431l-1.677-4.837-1.914 5.268z" style="font-size:21.5px;font-family:&quot;Song Myung&quot;;-inkscape-font-specification:&quot;Song Myung&quot;;text-align:center;text-anchor:middle;stroke:#f0f;stroke-width:0;stroke-miterlimit:2"/><path id="path46014" d="M596.24 22.18c1.362.438 2.918 1.87.086 1.784-2.803.422-2.814-2.655-3.29-4.558-.348-2.445-4.448-2.706-3.29.183-.318 1.892.285 3.129 1.85 3.687-1.003.982-2.993.244-4.417.473-2.978.068-.383-.91.074-2.09-.06-3.428.217-6.933-.15-10.315-2.823-.397-.69-1.759 1.163-1.247 2.863.115 6.99-.733 8.173 2.698 1.833 3.164-5.07 4.059-1.661 5.257.987 1.149 1.048 2.735 1.462 4.128zm-6.493-5.698c2.996.968 6.12-2.804 3.204-4.969-1.985-.935-3.88-.542-3.204 1.84v3.13z" style="font-size:21.5px;font-family:&quot;Song Myung&quot;;-inkscape-font-specification:&quot;Song Myung&quot;;text-align:center;text-anchor:middle;stroke:#f0f;stroke-width:0;stroke-miterlimit:2"/><path id="path46016" d="M609.097 11.688c-.718-.724-3.753-1.124-3.075.795.09 3.334-.195 6.729.172 10.02 2.716.156 1.342 1.795-.742 1.246-1.094-.16-4.746.57-3.429-.989 2.237.24 1.32-2.486 1.505-3.893-.007-2.558.024-5.116-.043-7.674-1.522-.107-3.527-.268-3.24 1.848-1.21 2.32-1.83-.966-1.41-2.228.612-1.399 2.867-.428 4.216-.716 2.491.09 5.042-.182 7.497.134.386 1.12.6 4.846-1.193 3.134l-.258-1.677z" style="font-size:21.5px;font-family:&quot;Song Myung&quot;;-inkscape-font-specification:&quot;Song Myung&quot;;text-align:center;text-anchor:middle;stroke:#f0f;stroke-width:0;stroke-miterlimit:2"/><path id="path46018" d="M618.148 10.57c-1.87.478-2.013 2.252-1.827 4.18.078 2.58-.173 5.212.16 7.752 2.831.388.71 1.762-1.152 1.247-1.104.195-4.805-.026-2.36-1.04 1.61-.566.567-3.067.858-4.526-.094-2.27.199-4.617-.172-6.84-2.823-.396-.69-1.758 1.163-1.246 1.033.216 2.733-.49 3.33.473z" style="font-size:21.5px;font-family:&quot;Song Myung&quot;;-inkscape-font-specification:&quot;Song Myung&quot;;text-align:center;text-anchor:middle;stroke:#f0f;stroke-width:0;stroke-miterlimit:2"/><path id="path46020" d="M629.522 20.524c1.67-1.973 2.263 2.614.66 2.946-4.047 1.74-9.787-.18-10.357-4.994-1.218-4.73 3.122-9.527 7.96-8.659 2.5-.532 4.08 2.512 2.554 4.042-1.674-.542-1.155-4.457-4.424-2.854-4.058 1.432-4.363 7.321-2.168 10.445 1.429 2.02 6.146 2.47 5.775-.926z" style="font-size:21.5px;font-family:&quot;Song Myung&quot;;-inkscape-font-specification:&quot;Song Myung&quot;;text-align:center;text-anchor:middle;stroke:#f0f;stroke-width:0;stroke-miterlimit:2"/><path id="path46022" d="M641.798 20.288c1.9-1.668 1.51 1.736 1.355 2.945-.959 1.063-2.996.272-4.417.516-1.982-.078-4.009.157-5.963-.118.683-1.043 2.478-1.802 1.694-4.1-.095-2.72.2-5.515-.172-8.187-2.823-.397-.69-1.759 1.163-1.247 1.106-.185 4.842.007 2.425 1.057-1.735.461-.596 3.097-.922 4.53.016 2.33-.04 4.661.043 6.99 1.425-.23 3.352.511 4.407-.473l.387-1.913z" style="font-size:21.5px;font-family:&quot;Song Myung&quot;;-inkscape-font-specification:&quot;Song Myung&quot;;text-align:center;text-anchor:middle;stroke:#f0f;stroke-width:0;stroke-miterlimit:2"/><path id="path46024" d="M654.333 20.61c1.753-1.688 1.542 1.907 1.166 3.01-3.358.298-6.804.046-10.196.13-.912-.998 2.534-1.582 1.29-3.97-.095-2.803.2-5.68-.172-8.436-2.823-.397-.69-1.759 1.163-1.247 2.495.087 5.046-.174 7.506.129.366 1.097.618 4.666-1.166 3.031.192-1.926-1.318-2.353-2.935-2.064-1.835-.523-2.164.563-1.902 2.16.241 1.088-.767 3.426 1.14 2.85 1.971 1.044 2.38-3.794 3.009-.67.01 1.086.324 4.835-1.124 2.873.401-1.497-3.265-1.721-3.025-.465.01 1.578-.03 3.156.043 4.733 1.568-.084 3.189.168 4.724-.123.362-.57.311-1.302.479-1.94z" style="font-size:21.5px;font-family:&quot;Song Myung&quot;;-inkscape-font-specification:&quot;Song Myung&quot;;text-align:center;text-anchor:middle;stroke:#f0f;stroke-width:0;stroke-miterlimit:2"/><path id="path46026" d="M670.786 21.922c.8.725 4.483 1.52 1.324 1.827-2.091-.064-4.215.132-6.285-.102-.074-1.555 3.629-.424 2.682-2.866-.085-2.824.172-5.703-.129-8.491-2.247.375-2.465-1.25-.107-1.403 1.536-.698 3.16-.74 2.545 1.395-.066 3.212-.012 6.427-.03 9.64z" style="font-size:21.5px;font-family:&quot;Song Myung&quot;;-inkscape-font-specification:&quot;Song Myung&quot;;text-align:center;text-anchor:middle;stroke:#f0f;stroke-width:0;stroke-miterlimit:2"/></g></g><path id="rect51379" d="M-186.949 193.23h108.41v19.628h-108.41z" style="fill:#fea;fill-opacity:1;stroke:#2b2200;stroke-width:1;stroke-miterlimit:2;stroke-dasharray:none;stroke-dashoffset:0;stroke-opacity:1"/><path id="rect52855" d="M115.32-62.758h108.41v19.628H115.32z" style="fill:#fea;fill-opacity:1;stroke:#2b2200;stroke-width:1;stroke-miterlimit:2;stroke-dasharray:none;stroke-dashoffset:0;stroke-opacity:1"/><g id="g52875" style="stroke-width:1.16635" transform="matrix(.85737 0 0 .85737 -359.535 -67.372)"><path id="path52857" d="M564.14 18.417c-1.13.328-.24 2.991-.333 4.07 2.898.329.933 1.793-1.045 1.262-1.111.179-4.93-.009-2.468-1.04 1.61-.566.567-3.067.858-4.526-.094-2.27.199-4.617-.172-6.84-2.823-.396-.69-1.758 1.163-1.246 2.917.028 7-.494 8.152 2.967 1.084 3.862-3.018 5.58-6.155 5.353zm.473-7.267c-1.94-.284-.565 2.794-.967 4.014-1.073 2.954 2.529 2.786 3.871.845 1.345-2.173-.136-5.275-2.904-4.859z" style="font-size:21.5px;font-family:&quot;Song Myung&quot;;-inkscape-font-specification:&quot;Song Myung&quot;;text-align:center;text-anchor:middle;stroke:#f0f;stroke-width:0;stroke-miterlimit:2"/><path id="path52859" d="M582.931 22.266c2.572.845.813 1.89-1.206 1.483-1.303.403-4.54-.485-1.804-1.075.737-.587-.062-3.404-1.2-3.268-1.22.268-3.201-.548-3.92.43-1.012 1.727-.775 2.81.863 3.44-1.04.911-3.119.391-4.552.355.379-1.147 2.577-1.568 2.56-3.638 1.265-3.244 2.26-6.633 3.69-9.789 1.826-.513 1.685 2.22 2.384 3.324l3.185 8.738zm-7.61-3.913c1.016-.272 3.579.556 3.59-.431l-1.677-4.837-1.914 5.268z" style="font-size:21.5px;font-family:&quot;Song Myung&quot;;-inkscape-font-specification:&quot;Song Myung&quot;;text-align:center;text-anchor:middle;stroke:#f0f;stroke-width:0;stroke-miterlimit:2"/><path id="path52861" d="M596.24 22.18c1.362.438 2.918 1.87.086 1.784-2.803.422-2.814-2.655-3.29-4.558-.348-2.445-4.448-2.706-3.29.183-.318 1.892.285 3.129 1.85 3.687-1.003.982-2.993.244-4.417.473-2.978.068-.383-.91.074-2.09-.06-3.428.217-6.933-.15-10.315-2.823-.397-.69-1.759 1.163-1.247 2.863.115 6.99-.733 8.173 2.698 1.833 3.164-5.07 4.059-1.661 5.257.987 1.149 1.048 2.735 1.462 4.128zm-6.493-5.698c2.996.968 6.12-2.804 3.204-4.969-1.985-.935-3.88-.542-3.204 1.84v3.13z" style="font-size:21.5px;font-family:&quot;Song Myung&quot;;-inkscape-font-specification:&quot;Song Myung&quot;;text-align:center;text-anchor:middle;stroke:#f0f;stroke-width:0;stroke-miterlimit:2"/><path id="path52863" d="M609.097 11.688c-.718-.724-3.753-1.124-3.075.795.09 3.334-.195 6.729.172 10.02 2.716.156 1.342 1.795-.742 1.246-1.094-.16-4.746.57-3.429-.989 2.237.24 1.32-2.486 1.505-3.893-.007-2.558.024-5.116-.043-7.674-1.522-.107-3.527-.268-3.24 1.848-1.21 2.32-1.83-.966-1.41-2.228.612-1.399 2.867-.428 4.216-.716 2.491.09 5.042-.182 7.497.134.386 1.12.6 4.846-1.193 3.134l-.258-1.677z" style="font-size:21.5px;font-family:&quot;Song Myung&quot;;-inkscape-font-specification:&quot;Song Myung&quot;;text-align:center;text-anchor:middle;stroke:#f0f;stroke-width:0;stroke-miterlimit:2"/><path id="path52865" d="M618.148 10.57c-1.87.478-2.013 2.252-1.827 4.18.078 2.58-.173 5.212.16 7.752 2.831.388.71 1.762-1.152 1.247-1.104.195-4.805-.026-2.36-1.04 1.61-.566.567-3.067.858-4.526-.094-2.27.199-4.617-.172-6.84-2.823-.396-.69-1.758 1.163-1.246 1.033.216 2.733-.49 3.33.473z" style="font-size:21.5px;font-family:&quot;Song Myung&quot;;-inkscape-font-specification:&quot;Song Myung&quot;;text-align:center;text-anchor:middle;stroke:#f0f;stroke-width:0;stroke-miterlimit:2"/><path id="path52867" d="M629.522 20.524c1.67-1.973 2.263 2.614.66 2.946-4.047 1.74-9.787-.18-10.357-4.994-1.218-4.73 3.122-9.527 7.96-8.659 2.5-.532 4.08 2.512 2.554 4.042-1.674-.542-1.155-4.457-4.424-2.854-4.058 1.432-4.363 7.321-2.168 10.445 1.429 2.02 6.146 2.47 5.775-.926z" style="font-size:21.5px;font-family:&quot;Song Myung&quot;;-inkscape-font-specification:&quot;Song Myung&quot;;text-align:center;text-anchor:middle;stroke:#f0f;stroke-width:0;stroke-miterlimit:2"/><path id="path52869" d="M641.798 20.288c1.9-1.668 1.51 1.736 1.355 2.945-.959 1.063-2.996.272-4.417.516-1.982-.078-4.009.157-5.963-.118.683-1.043 2.478-1.802 1.694-4.1-.095-2.72.2-5.515-.172-8.187-2.823-.397-.69-1.759 1.163-1.247 1.106-.185 4.842.007 2.425 1.057-1.735.461-.596 3.097-.922 4.53.016 2.33-.04 4.661.043 6.99 1.425-.23 3.352.511 4.407-.473l.387-1.913z" style="font-size:21.5px;font-family:&quot;Song Myung&quot;;-inkscape-font-specification:&quot;Song Myung&quot;;text-align:center;text-anchor:middle;stroke:#f0f;stroke-width:0;stroke-miterlimit:2"/><path id="path52871" d="M654.333 20.61c1.753-1.688 1.542 1.907 1.166 3.01-3.358.298-6.804.046-10.196.13-.912-.998 2.534-1.582 1.29-3.97-.095-2.803.2-5.68-.172-8.436-2.823-.397-.69-1.759 1.163-1.247 2.495.087 5.046-.174 7.506.129.366 1.097.618 4.666-1.166 3.031.192-1.926-1.318-2.353-2.935-2.064-1.835-.523-2.164.563-1.902 2.16.241 1.088-.767 3.426 1.14 2.85 1.971 1.044 2.38-3.794 3.009-.67.01 1.086.324 4.835-1.124 2.873.401-1.497-3.265-1.721-3.025-.465.01 1.578-.03 3.156.043 4.733 1.568-.084 3.189.168 4.724-.123.362-.57.311-1.302.479-1.94z" style="font-size:21.5px;font-family:&quot;Song Myung&quot;;-inkscape-font-specification:&quot;Song Myung&quot;;text-align:center;text-anchor:middle;stroke:#f0f;stroke-width:0;stroke-miterlimit:2"/><path id="path52873" d="M670.786 21.922c.8.725 4.483 1.52 1.324 1.827-2.091-.064-4.215.132-6.285-.102-.074-1.555 3.629-.424 2.682-2.866-.085-2.824.172-5.703-.129-8.491-2.247.375-2.465-1.25-.107-1.403 1.536-.698 3.16-.74 2.545 1.395-.066 3.212-.012 6.427-.03 9.64z" style="font-size:21.5px;font-family:&quot;Song Myung&quot;;-inkscape-font-specification:&quot;Song Myung&quot;;text-align:center;text-anchor:middle;stroke:#f0f;stroke-width:0;stroke-miterlimit:2"/></g><path id="rect54029" d="M197.377-35.826h15.175v6.73h-15.175z" style="fill:#f0f;fill-opacity:1;stroke:none;stroke-width:1;stroke-miterlimit:2;stroke-dasharray:none;stroke-dashoffset:0;stroke-opacity:1"/><path id="path159958" fill="#fed341" stroke="#000" stroke-width="1.2" d="m226.157 177.874 45.15-90.567-6.417-3.2 19.071-11.502 2.293 22.153-6.418-3.2-45.15 90.567z" style="display:inline;opacity:.7;fill:#ac9393;stroke:none"/><path id="path60057" fill="#fed341" stroke="#000" stroke-width="1.2" d="m232.547 175.735 90.567 45.15 3.2-6.417 11.502 19.071-22.153 2.293 3.2-6.418-90.567-45.15z" style="display:inline;opacity:.7;fill:#ac9393;stroke:none"/><path id="path60059" fill="#fed341" stroke="#000" stroke-width="1.2" d="m234.686 182.125-45.15 90.567 6.417 3.2-19.071 11.502-2.293-22.153 6.418 3.2 45.15-90.567z" style="display:inline;opacity:.7;fill:#ac9393;stroke:none"/><path id="path60061" fill="#fed341" stroke="#000" stroke-width="1.2" d="m228.297 184.263-90.567-45.15-3.2 6.418-11.501-19.071 22.153-2.294-3.2 6.418 90.567 45.15z" style="display:inline;opacity:.7;fill:#ac9393;stroke:none"/><circle id="path60343" cx="230.422" cy="180" r="1.934" style="fill:#f0f;fill-opacity:1;stroke:none;stroke-width:1;stroke-miterlimit:2;stroke-dasharray:none;stroke-dashoffset:0;stroke-opacity:1"/></g></svg>