<svg xmlns="http://www.w3.org/2000/svg" xmlns:xlink="http://www.w3.org/1999/xlink" id="svg171797" width="1240" height="190" preserveAspectRatio="none" version="1.1" viewBox="-30 30 1240 190"><style id="style171643" type="text/css">.grid{stroke:#9e9ed1;stroke-width:.4}.axes{stroke:#000;stroke-width:.9}</style><defs id="defs171655"><path id="STIXWEBMAIN-2212" stroke-width="1" d="M621 220H64v66h557z"/><path id="STIXWEBMAIN-31" stroke-width="1" d="M394 0H118v15c74 4 95 25 95 80v449c0 34-9 49-30 49-10 0-27-5-45-12l-27-10v14l179 91 9-3V76c0-43 20-61 95-61z"/><path id="STIXWEBMAIN-32" stroke-width="1" d="M474 137 420 0H29v12l178 189c94 99 130 175 130 260 0 91-54 141-139 141-72 0-107-32-147-130l-21 5c21 117 85 199 208 199 113 0 185-77 185-176 0-79-39-154-128-248L130 76h234c42 0 63 11 96 67z"/><path id="STIXWEBMAIN-39" stroke-width="1" d="M59-22 56-2c152 27 264 132 304 296-43-42-91-57-150-57-108 0-180 81-180 203 0 135 89 236 208 236 64 0 118-28 157-76 40-50 64-122 64-206 0-115-40-224-120-297C254 20 189-4 59-22Zm303 377v39c0 168-45 254-132 254-30 0-56-12-73-34-20-27-35-86-35-140 0-119 48-194 123-194 44 0 117 22 117 75z"/><path id="STIXWEBMAIN-36" stroke-width="1" d="m446 684 2-16c-157-26-269-134-296-285 49 38 83 45 127 45 117 0 189-80 189-209 0-64-18-120-51-160-37-46-93-73-159-73-79 0-142 37-177 101-28 51-47 122-47 192 0 108 38 203 109 276 86 90 165 114 303 129zm-68-496c0 128-42 194-135 194-57 0-116-24-116-116 0-152 48-252 142-252 72 0 109 72 109 174z"/><path id="STIXWEBMAIN-33" stroke-width="1" d="m61 510-16 4c29 95 92 162 196 162 93 0 156-55 156-137 0-48-26-98-93-138 44-19 62-31 83-53 28-31 44-77 44-129 0-53-17-102-46-140-48-64-143-93-232-93C80-14 41 7 41 43c0 21 18 36 41 36 17 0 33-6 61-26 37-26 58-31 86-31 74 0 130 68 130 153 0 76-35 125-104 145-22 7-45 10-102 10v14c38 13 64 24 84 36 49 28 81 73 81 134 0 68-42 102-108 102-62 0-108-32-149-106z"/><path id="STIXWEBMAIN-30" stroke-width="1" d="M476 330c0-172-63-344-226-344C79-14 24 172 24 336c0 177 69 340 230 340 131 0 222-141 222-346Zm-96-5c0 208-44 325-132 325-83 0-128-118-128-321S164 12 250 12c85 0 130 115 130 313z"/><clipPath id="trbl_clip_0_1154.6_138_0"><path id="path171645" d="M0 0h1154.6v138H0Z"/></clipPath></defs><g id="grid"><path id="path171657" d="M39.04 209.87v-49.28m0-13.982V71.87" class="grid"/><path id="path171659" d="M85.04 209.87v-138" class="grid"/><path id="path171661" d="M131.04 209.87v-138" class="grid"/><path id="path171663" d="M177.04 209.87v-49.277m0-13.985V71.87" class="grid"/><path id="path171665" d="M223.04 209.87v-138" class="grid"/><path id="path171667" d="M269.04 209.87v-138" class="grid"/><path id="path171669" d="M315.04 209.87v-48.407m0-14.855V71.87" class="grid"/><path id="path171671" d="M361.04 209.87v-138" class="grid"/><path id="path171673" d="M407.04 209.87v-138" class="grid"/><path id="path171675" d="M453.04 209.87v-49.277m0-13.985V71.87" class="grid"/><path id="path171677" d="M499.04 209.87v-138" class="grid"/><path id="path171679" d="M545.04 209.87v-138" class="grid"/><path id="path171681" d="M591.04 209.87v-138" class="grid"/><path id="path171683" d="M637.04 209.87v-138" class="grid"/><path id="path171685" d="M683.04 209.87v-138" class="grid"/><path id="path171687" d="M729.04 209.87v-49.284m0-13.978V71.87" class="grid"/><path id="path171689" d="M775.04 209.87v-138" class="grid"/><path id="path171691" d="M821.04 209.87v-138" class="grid"/><path id="path171693" d="M867.04 209.87v-48.415m0-14.847V71.87" class="grid"/><path id="path171695" d="M913.04 209.87v-138" class="grid"/><path id="path171697" d="M959.04 209.87v-138" class="grid"/><path id="path171699" d="M1005.04 209.87v-49.284m0-13.978V71.87" class="grid"/><path id="path171701" d="M1051.04 209.87v-138" class="grid"/><path id="path171703" d="M1097.04 209.87v-138" class="grid"/><path id="path171705" d="M1143.04 209.87v-49.278m0-13.984V71.87" class="grid"/><path id="path171707" d="M13.74 186.87h551.306m21.075 0h582.219" class="grid"/><path id="path171709" d="M13.74 140.87h1154.6" class="grid"/><path id="path171711" d="M13.74 94.87h562.668m9.713 0h582.219" class="grid"/></g><g id="axes"><path id="path171714" d="M13.74 140.87h1161.28" class="axes"/><path id="path171716" d="M591.04 209.87V65.878" class="axes"/><path id="path34" d="M587.059 67.734c1.6 0 3.999-2.25 3.999-3 0 .75 2.399 3 3.998 3" class="axes-arrows" style="fill:none;stroke:#000;stroke-width:1.1;stroke-linecap:round;stroke-linejoin:round"/><g id="g35" class="axes-labels" style="fill:#000;stroke:none" transform="matrix(.01858 0 0 -.01858 585.74 54.263)"><path id="use35" stroke-width="1" d="M52 289q7 42 54 97t116 56q35 0 64-18t43-45q42 63 101 63 37 0 64-22t28-59q0-29-14-47t-27-22q-13-4-23-4-19 0-31 11t-12 29q0 46 50 63-11 13-40 13-13 0-19-2-38-16-56-66-60-221-60-258 0-28 16-40t35-12q37 0 73 33t49 81q3 10 6 11t16 2h4q15 0 15-8 0-1-2-11-16-57-62-101T333-11q-70 0-106 63-41-62-94-62h-6q-49 0-70 26T35 71q0 32 19 52t45 20q43 0 43-42 0-20-12-35t-23-20q-11-5-13-5l-3-1q0-1 6-4t16-7q10-4 19-3 36 0 62 45 9 16 23 68t28 108q14 56 16 66 5 27 5 39 0 28-15 40t-34 12q-40 0-75-32t-49-82q-2-9-5-10t-16-2H58q-6 6-6 11z"/></g><path id="path33" d="M1174.742 136.914c0 1.6 2.249 3.999 2.999 3.999-.75 0-3 2.4-3 3.999" class="axes-arrows" style="fill:none;stroke:#000;stroke-width:1.1;stroke-linecap:round;stroke-linejoin:round"/><g id="g34" class="axes-labels" style="fill:#000;stroke:none" transform="matrix(.01858 0 0 -.01858 1187.16 145.314)"><path id="use34" stroke-width="1" d="M153.225 385q-7 7-7 10 0 4 3 16t5 14q2 5 9 5t51 1h53l19 80q3 11 7 29t7 26q3 8 6 20t8 17q5 5 10 12t14 9q9 2 18 2 18-1 25-11t7-19q0-7-9-47t-20-79l-10-37q0-2 50-2h51q7-7 7-11 0-22-13-35h-107l-36-145q-39-160-39-172 0-42 27-42 35 0 68 34t53 84q2 6 5 7t15 2h4q15 0 15-8 0-3-3-12-5-16-18-38t-34-47q-21-25-51-42t-61-17q-30 0-57 15t-39 52q-2 8-2 27v18l35 140q35 141 36 142 0 2-51 2z"/></g></g><g id="notch labels" style="display:inline;stroke:none;fill:#b8b8de"><g id="g171727" transform="matrix(.01656 0 0 -.01656 25.071 158.815)"><use xlink:href="#STIXWEBMAIN-2212" id="use171719" x="0" y="0"/><g id="g171725" transform="translate(685)"><use xlink:href="#STIXWEBMAIN-31" id="use171721"/><use xlink:href="#STIXWEBMAIN-32" id="use171723" x="500" y="0"/></g></g><g id="g171733" transform="matrix(.01657 0 0 -.01657 167.215 158.817)"><use xlink:href="#STIXWEBMAIN-2212" id="use171729" x="0" y="0"/><use xlink:href="#STIXWEBMAIN-39" id="use171731" x="685" y="0"/></g><g id="g171739" transform="matrix(.01657 0 0 -.01657 305.215 159.686)"><use xlink:href="#STIXWEBMAIN-2212" id="use171735" x="0" y="0"/><use xlink:href="#STIXWEBMAIN-36" id="use171737" x="685" y="0"/></g><g id="g171745" transform="matrix(.01657 0 0 -.01657 443.215 158.817)"><use xlink:href="#STIXWEBMAIN-2212" id="use171741" x="0" y="0"/><use xlink:href="#STIXWEBMAIN-33" id="use171743" x="685" y="0"/></g><g id="g171749" transform="matrix(.01656 0 0 -.01656 724.896 158.81)"><use xlink:href="#STIXWEBMAIN-33" id="use171747" x="0" y="0"/></g><g id="g171753" transform="matrix(.01656 0 0 -.01656 862.896 159.68)"><use xlink:href="#STIXWEBMAIN-36" id="use171751" x="0" y="0"/></g><g id="g171757" transform="matrix(.01656 0 0 -.01656 1000.896 158.81)"><use xlink:href="#STIXWEBMAIN-39" id="use171755" x="0" y="0"/></g><g id="g171763" transform="matrix(.01657 0 0 -.01657 1134.748 158.816)"><use xlink:href="#STIXWEBMAIN-31" id="use171759"/><use xlink:href="#STIXWEBMAIN-32" id="use171761" x="500" y="0"/></g><g id="g171767" transform="matrix(.01656 0 0 -.01656 576.3 158.81)"><use xlink:href="#STIXWEBMAIN-30" id="use171765" x="0" y="0"/></g><g id="g171773" transform="matrix(.01657 0 0 -.01657 565.759 192.466)"><use xlink:href="#STIXWEBMAIN-2212" id="use171769" x="0" y="0"/><use xlink:href="#STIXWEBMAIN-31" id="use171771" x="685" y="0"/></g><g id="g171777" transform="matrix(.01656 0 0 -.01656 577.12 100.463)"><use xlink:href="#STIXWEBMAIN-31" id="use171775" x="0" y="0"/></g></g><g id="graphs" style="display:inline"><path id="path47" d="M13.74 94.877c23.766.462 47.533 22.023 71.3 45.79 24.226 24.226 48.453 46.318 72.68 46.202 24.073-.115 48.146-22.11 72.22-46.182 24.073-24.073 48.146-45.894 72.22-45.817 24.073.077 48.146 22.037 72.22 46.11 24.073 24.073 48.146 45.928 72.22 45.89 24.073-.039 48.146-21.964 72.22-46.037 24.073-24.073 48.146-45.963 72.22-45.963 24.073 0 48.146 21.89 72.22 45.963 24.073 24.073 48.146 45.998 72.22 46.037 24.073.038 48.146-21.817 72.22-45.89 24.073-24.073 48.146-46.033 72.22-46.11 24.073-.077 48.146 21.744 72.22 45.817 24.073 24.073 48.147 46.067 72.22 46.182 24.226.116 48.453-21.976 72.68-46.203 23.766-23.766 47.533-45.327 71.3-45.789" style="fill:none;stroke:red;stroke-width:1.7"/><path id="path56" d="M351.544-348.778v-4.756" style="fill:#3384ff;fill-opacity:.5;stroke:#000;stroke-width:1;stroke-dasharray:none;stroke-dashoffset:1.02"/><path id="path21" d="M351.517-356.124v-2.47c-.015-.894.028-1.79-.022-2.682" style="fill:#3384ff;fill-opacity:.5;stroke:#000;stroke-width:1;stroke-dasharray:none;stroke-dashoffset:1.02"/><path id="path25" d="M351.547-364.405a13113.136 13113.136 0 0 1 0-4.85l-.101-.002a10440.847 10440.847 0 0 1 0 4.85z" style="display:inline;fill:#000;fill-opacity:.998808;stroke:#000;stroke-width:1;stroke-dasharray:none;stroke-dashoffset:1.02;stroke-opacity:1"/></g><g id="layer13"><path id="path48" d="M880.264 210.672c-.027-1.145.044-2.29.089-3.434-.035-.682.088-1.529-.013-2.29" style="display:inline;fill:#3384ff;fill-opacity:.5;stroke:#000;stroke-width:1;stroke-dasharray:none;stroke-dashoffset:1.02"/><path id="path49" d="M880.2 202.49c.097-.928.138-2.08.18-3.013.012-.619.054-1.237.094-1.854" style="display:inline;fill:#3384ff;fill-opacity:.5;stroke:#000;stroke-width:1;stroke-dasharray:none;stroke-dashoffset:1.02"/><path id="path50" d="M880.237 194.9c.17-.82.194-1.66.222-2.493.014-.539.008-.284.017-.765" style="display:inline;fill:#3384ff;fill-opacity:.5;stroke:#000;stroke-width:1;stroke-dasharray:none;stroke-dashoffset:1.02"/><path id="path52" d="M880.49 184.537a31.98 31.98 0 0 0-.1 2.09c-.018.784-.033 1.573-.135 2.351" style="display:inline;fill:#3384ff;fill-opacity:.5;stroke:#000;stroke-width:1;stroke-dasharray:none;stroke-dashoffset:1.02"/><path id="path53" d="M880.49 181.85c-.091-.877-.114-1.762-.136-2.644-.01-.447-.015-.894-.02-1.34" style="display:inline;fill:#3384ff;fill-opacity:.5;stroke:#000;stroke-width:1;stroke-dasharray:none;stroke-dashoffset:1.02"/><path id="path54" d="M880.478 171.728c-.03.376-.068.753-.102 1.13-.081.802-.205 1.603-.209 2.41" style="display:inline;fill:#3384ff;fill-opacity:.5;stroke:#000;stroke-width:1;stroke-dasharray:none;stroke-dashoffset:1.02"/><path id="path55" d="M880.4 164.734a123.12 123.12 0 0 1-.032 1.902c-.024.803-.052 1.606-.145 2.404" style="display:inline;fill:#3384ff;fill-opacity:.5;stroke:#000;stroke-width:1;stroke-dasharray:none;stroke-dashoffset:1.02"/><path id="path10" d="M880.36 161.631v-3.782l-.101-.002v3.782z" style="display:inline;fill:#3384ff;fill-opacity:.5;stroke:#000;stroke-width:1;stroke-dasharray:none;stroke-dashoffset:1.02"/><path id="path11" d="M880.36 154.747v-4.02" style="display:inline;fill:#3384ff;fill-opacity:.5;stroke:#000;stroke-width:1;stroke-dasharray:none;stroke-dashoffset:1.02"/><path id="path12" d="M880.459 143.093c.09-.652.116-1.31.136-1.968.019-.965.003-1.929.071-2.892l.03-.307" style="display:inline;fill:#3384ff;fill-opacity:.5;stroke:#000;stroke-width:1;stroke-dasharray:none;stroke-dashoffset:1.02"/><path id="path13" d="M880.414 135.748c-.119-.881-.051-1.777-.03-2.662.02-.785.036-1.57.048-2.356" style="display:inline;fill:#3384ff;fill-opacity:.5;stroke:#000;stroke-width:1;stroke-dasharray:none;stroke-dashoffset:1.02"/><path id="path14" d="M880.41 128.595c.114-.907.117-1.826.135-2.739.038-.666.016-.35.065-.949" style="display:inline;fill:#3384ff;fill-opacity:.5;stroke:#000;stroke-width:1;stroke-dasharray:none;stroke-dashoffset:1.02"/><path id="path15" d="M880.461 122.8c.003-1.143-.013-2.286.021-3.43.026-.643.062-1.285.107-1.927" style="display:inline;fill:#3384ff;fill-opacity:.5;stroke:#000;stroke-width:1;stroke-dasharray:none;stroke-dashoffset:1.02"/><path id="path16" d="M880.36 115.343V111.432" style="display:inline;fill:#3384ff;fill-opacity:.5;stroke:#000;stroke-width:1;stroke-dasharray:none;stroke-dashoffset:1.02"/><path id="path17" d="M880.329 109.313c.107-.975.125-1.958.187-2.936.038-.604.07-1.209.114-1.812" style="display:inline;fill:#3384ff;fill-opacity:.5;stroke:#000;stroke-width:1;stroke-dasharray:none;stroke-dashoffset:1.02"/><path id="path18" d="m880.36 102.465-.001-3.46a28.25 28.25 0 0 1 .106-1.863" style="display:inline;fill:#3384ff;fill-opacity:.5;stroke:#000;stroke-width:1;stroke-dasharray:none;stroke-dashoffset:1.02"/><path id="path19" d="M880.36 94.936c.163-.806.292-1.618.386-2.436.057-.515.089-1.033.118-1.55" style="display:inline;fill:#3384ff;fill-opacity:.5;stroke:#000;stroke-width:1;stroke-dasharray:none;stroke-dashoffset:1.02"/><path id="path56-9" d="M880.515 88.857v-4.756" style="display:inline;fill:#3384ff;fill-opacity:.5;stroke:#000;stroke-width:1;stroke-dasharray:none;stroke-dashoffset:1.02"/><path id="path21-5" d="M880.487 82.036v-2.47c-.015-.894.029-1.789-.021-2.682" style="display:inline;fill:#3384ff;fill-opacity:.5;stroke:#000;stroke-width:1;stroke-dasharray:none;stroke-dashoffset:1.02"/><path id="path25-3" d="M880.517 74.28a13113.058 13113.058 0 0 1 0-4.85l-.1-.002a10440.84 10440.84 0 0 1 0 4.85z" style="display:inline;fill:#000;fill-opacity:.998808;stroke:#000;stroke-width:1;stroke-dasharray:none;stroke-dashoffset:1.02;stroke-opacity:1"/></g><g id="layer17"><path id="use63-9" fill="#fed341" stroke="#000" stroke-width="1.2" d="m884.197 167.757-.02-13.494 4.39-.01-8.208-8.179-8.18 8.21 4.39-.012.02 13.494z" style="display:inline;fill:#f0f"/><path id="path332" fill="#fed341" stroke="#000" stroke-width="1.2" d="M884.197-24.973 884.177-6l4.39.011-8.208 8.178-8.18-8.209 4.39.011.02-18.974z" style="display:inline;fill:#f0f"/></g></svg>