<svg xmlns="http://www.w3.org/2000/svg" width="500" height="240" viewBox="0 0 132.292 63.5"><path d="M43.848 61.95c-.031-.854-.032-1.709-.026-2.564.028-1.385.005-2.77-.02-4.154-.015-1.566-.068-3.13-.103-4.694-.026-1.29-.114-2.577-.174-3.865-.072-1.099.062-2.2.042-3.3-.023-1.347.064-2.692.095-4.038.023-1.334-.067-2.668-.025-4.002.036-1.376-.084-2.753-.049-4.129.067-1.423.116-2.847.143-4.273.019-1.224.022-2.45.023-3.675v-3.19l-.001-2.513c-.007-1.03-.046-2.061-.08-3.091-.026-.79.048-1.287-.012-2.071" style="fill:#fef7dc;stroke:#000;stroke-width:.291042;stroke-dasharray:none"/><path d="M108.573 54.518c.691.13 1.365.34 2.043.523.615.161 1.242.268 1.873.343.093.023.444.012.23.153-.683.263-1.37.514-2.06.756-.568.214-1.156.384-1.704.645" style="fill:none;stroke:#000;stroke-width:.291042;stroke-dasharray:none"/><path d="M111.772 55.564c-.951.02-2.3-.03-3.448.012-1.04.038-2.078-.013-3.119.017-1.626.047-2.954.065-4.431.055-.571-.004-1.508-.021-2.281.013-.846.037-2.467-.068-3.703-.032-.66.007-1.32-.008-1.981-.007-2.28.004-5.241.007-7.416.013-2.25.005-4.5-.042-6.748.009-3.68-.154-7.367-.081-11.048.004-2.33-.107-4.66-.045-6.99-.088a405.85 405.85 0 0 0-11.52-.028c-2.185.023-4.36.068-6.54.048-4.262-.04-8.8-.015-12.782-.047-2.664-.006-5.328-.06-7.99-.01a196.15 196.15 0 0 1-7.357.036 38.292 38.292 0 0 0-2.947.056" style="fill:#fef7dc;stroke:#000;stroke-width:.291042;stroke-dasharray:none"/><path d="M44.94 14.853c-.075-.303-.156-.604-.232-.906-.202-.753-.384-1.51-.578-2.266a52.555 52.555 0 0 0-.42-1.454c-.001-.007-.058-.223-.08-.232-.033-.014-.08.21-.09.203a35.17 35.17 0 0 0-.501 1.72c-.203.758-.4 1.518-.632 2.268-.104.314-.217.625-.32.94" style="fill:none;stroke:#000;stroke-width:.291042;stroke-dasharray:none"/><g style="stroke-width:1.1285"><path d="M119.2 58.965c-.247-.257-.497-.51-.747-.765-.325-.326-.655-.648-.974-.978-.116-.125-.164-.177-.277-.304-.028-.03-.078-.083-.1-.11" style="fill:none;stroke:#000;stroke-width:.328441;stroke-dasharray:none" transform="matrix(.88625 0 0 .88602 12.394 4.26)"/><path d="m116.948 58.996.392-.385c.302-.304.595-.616.883-.931.24-.263.483-.525.755-.761.045-.04.094-.076.14-.116" style="fill:none;stroke:#000;stroke-width:.328441;stroke-dasharray:none" transform="matrix(.88625 0 0 .88602 12.394 4.26)"/></g><path d="M120.454 53.837c.344-.035.694-.026 1.042-.028.203.005.405-.007.61.006" style="fill:none;stroke:#000;stroke-width:.291042;stroke-dasharray:none"/><path d="M120.586 53.67v1.181c.017.65.03 1.301.048 1.952.007.268.005.652.025.92.005.063.008.063.06.079.042.025.083.016.154.014.283-.007.454-.01.766-.019.156-.004.306-.01.462-.01.058 0 .141-.005.222.002" style="fill:none;stroke:#000;stroke-width:.291042;stroke-dasharray:none"/><path d="M122.335 55.594c.062.254.112.51.174.765.031.052.018.121.04.176.006.019-.002-.04-.002-.061 0-.029.002-.057.004-.086.057-.38.327-.678.619-.907.07-.055.146-.102.219-.153.193-.094.478-.263.69-.11.09.065.11.146.154.243.087.31.102.632.148.948.021.042.028.282-.02.092a.823.823 0 0 1 .089-.604c.04-.07.094-.13.141-.194.066-.061.127-.128.197-.183.2-.158.566-.373.83-.38.05-.001.098.014.146.022.038.023.082.039.114.07.192.18.205.563.225.807.01.204.017.408.01.613" style="fill:none;stroke:#000;stroke-width:.291042;stroke-linecap:round;stroke-dasharray:none"/><path d="M126.426 57.644c.31-.065.631-.044.945-.046.195.009.405.019.595.016.006-.015-.158-.006-.026.013 0-.188-.02-.515-.02-.703 0-.599.001-1.198-.003-1.797a19.49 19.49 0 0 0-.011-.578c-.007-.18-.007-.372-.054-.547-.008-.03-.023-.06-.034-.09-.015-.019-.027-.04-.044-.057-.122-.123-.335-.105-.49-.123a5.491 5.491 0 0 0-1.003.064" style="fill:none;stroke:#000;stroke-width:.291042;stroke-dasharray:none"/><g style="display:inline;stroke-width:1.10019;stroke-dasharray:none"><path d="M-26.507 186.231c.07-1.34.014-2.682-.059-4.02-.203-3.762-.371-6.73-.551-10.74-.01-1.81-.04-3.61.33-5.39.14-.65.32-1.35.78-1.87.16-.18.39-.29.59-.43.25-.06.48-.16.73-.18 1.33-.08 2.59.65 3.27 1.76" style="fill:none;stroke:#000;stroke-width:1.10019;stroke-dasharray:none" transform="matrix(.2981 0 0 .23476 44.393 -36.117)"/><path d="m-23.37 175.977-.895.03c-2.332.1-4.68.15-6.994.55" style="fill:none;stroke:#000;stroke-width:1.10018;stroke-dasharray:none" transform="matrix(.2981 0 0 .23476 44.393 -36.117)"/></g><path d="M39.605 6.518a1.77 1.77 0 0 1-1.087-.395 1.281 1.281 0 0 1-.387-.504c-.105-.274-.007-.56.138-.82.155-.253.395-.475.674-.683.125-.087.273-.173.428-.236" style="display:inline;fill:none;stroke:#000;stroke-width:.291043;stroke-miterlimit:2;stroke-dasharray:none"/><path d="M42.872 6.384c.626-.278.946-.689.924-1.115-.022-.429-.243-.724-.62-1.057a2.074 2.074 0 0 0-.548-.305" style="display:inline;fill:none;stroke:#000;stroke-width:.291042;stroke-linecap:butt;stroke-miterlimit:2;stroke-dasharray:none"/><g style="display:inline;stroke-width:5.54365;stroke-dasharray:none"><path d="M6779.195 202.554c-1.047.985-2.014 1.891-2.902 2.746-.416.402-5.218 4.834-5.302 4.912-7.027 6.486-13.991 13.043-21.216 19.311-4.41 3.849-8.778 7.747-12.834 11.973" style="fill:none;stroke:#000;stroke-width:5.54365;stroke-miterlimit:2;stroke-dasharray:none" transform="matrix(.0526 0 0 .0524 -314.411 -6.516)"/><path d="M6778.08 240.633c-6.05-4.443-11.673-9.409-17.066-14.634-6.56-6.355-3.475-3.254-9.87-9.753-3.52-3.578-6.975-7.253-10.615-10.713-.459-.436-.949-.838-1.423-1.257" style="fill:none;stroke:#000;stroke-width:5.54365;stroke-miterlimit:2;stroke-dasharray:none" transform="matrix(.0526 0 0 .0524 -314.411 -6.516)"/></g><g style="display:inline;stroke-width:.402008;stroke-dasharray:none"><path d="M1266.634 185.582c-.05-.71-.126-1.42-.08-2.13.058-.882.088-1.764.08-2.647-.01-.2.022-.4-.01-.599-.187-.084-.468-.011-.694-.031-.619.004-1.237.022-1.855.041" style="display:inline;fill:none;stroke:#000;stroke-width:.402008;stroke-miterlimit:2;stroke-dasharray:none" transform="matrix(.7037 0 0 .74482 -838.23 -131.098)"/><path d="M1266.835 185.368c-.446.01-.213.008-.706.01-.732.008-1.463.009-2.19.035" style="display:inline;fill:none;stroke:#000;stroke-width:.402008;stroke-miterlimit:2;stroke-dasharray:none" transform="matrix(.7037 0 0 .74482 -838.23 -131.098)"/></g><g style="display:inline;stroke-width:.481623;stroke-dasharray:none"><path d="M1073.025 190.33a.57.57 0 0 1-.256.017 22.918 22.918 0 0 0-1.528-.052c-.501 0-.997 0-1.493-.005" style="display:inline;fill:none;stroke:#000;stroke-width:.481623;stroke-miterlimit:2;stroke-dasharray:none" transform="matrix(.65605 0 0 .55662 -655.855 -102.8)"/><path d="M1073.155 197.143c-.262.08-.568.052-.85.049-.582-.008-1.29-.005-1.872-.009-.063.016-.02-.209-.03-.3 0-1.16.053-2.254.015-3.41-.026-.783 0-1.478-.023-2.067-.014-.368-.016-.994-.048-1.36" style="display:inline;fill:none;stroke:#000;stroke-width:.481623;stroke-miterlimit:2;stroke-dasharray:none" transform="matrix(.65605 0 0 .55662 -655.855 -102.8)"/></g><path d="M48.619 5.783c.433.41 1.146.607 1.8.51.217-.03.464-.136.489-.333.047-.263-.165-.5-.38-.68-.405-.337-.967-.497-1.437-.762-.146-.079-.273-.232-.188-.375.117-.156.445-.216.651-.238.327-.035.701.072.96.238" style="fill:none;stroke:#000;stroke-width:.291042;stroke-linecap:square;stroke-dasharray:none"/><path d="M49.406 6.767c0-.12.001-.24.008-.36.022-.343.073-.686.089-1.03.015-.382.01-.765.01-1.148v-.7M50.184 6.721l-.002-.048c.003-.23.031-.46.039-.69.011-.348.02-.696-.02-1.044-.03-.313-.028-.626-.033-.941-.003-.183-.009-.366.012-.548" style="fill:none;stroke:#000;stroke-width:.291042;stroke-linecap:square;stroke-dasharray:none"/><path d="M43.783 55.58a2.769 2.769 0 0 0-.429-.012c-.14.005-.28.016-.418.034-.216.021-.432.015-.65.014a22.618 22.618 0 0 1-.83-.014c-.235-.012-.469-.037-.703-.035-.232.003-.463.009-.693.025-.216.015-.43.026-.646.004-.275-.017-.549-.04-.823-.03-.291-.001-.582-.002-.873-.01-.302-.011-.603-.003-.904-.03-.218-.011-.434.043-.652.036-.265-.007-.53.008-.795-.018-.286-.027-.573.007-.86 0-.262.008-.524-.028-.785-.001-.266.022-.532.033-.799.046a16.02 16.02 0 0 1-.875-.027c-.326-.02-.651-.011-.977-.023-.34-.023-.68.045-1.02.017-.246-.024-.492.005-.738-.012-.262-.017-.523-.04-.786-.028-.3.005-.599.015-.897.038-.318.022-.637-.045-.955-.016-.364.031-.73.029-1.095.029-.418.003-.705-.044-1.123-.026-.406.018-.812-.047-1.219-.053-.378.002-.757.056-1.135.072-.36.016-.718-.01-1.078-.012-.367.008-.733.024-1.1.019-.356-.02-.71.024-1.067.013a19.157 19.157 0 0 0-1.054-.015c-.34 0-.68 0-1.02.002l-1.053.008c-.277 0-.552-.017-.828-.045a5.892 5.892 0 0 0-.756.012 10.31 10.31 0 0 1-.91.022c-.265-.002-.53-.003-.794-.02-.175-.012-.744.068-.92.072M68.286 28.004c-.097.141-.196.282-.298.422-.272.366-.618.688-.882 1.06-.322.41-.68.8-.994 1.214-.353.426-.689.862-1.079 1.265-.412.442-.812.89-1.16 1.37-.398.492-.83.962-1.24 1.447-.387.428-.746.874-1.159 1.285a30.746 30.746 0 0 0-1.473 1.734 38.022 38.022 0 0 1-1.698 1.888c-.522.563-1.053 1.122-1.536 1.71-.503.571-1.002 1.146-1.522 1.706a49.032 49.032 0 0 0-1.39 1.55c-.466.514-.926 1.032-1.416 1.53-.557.572-1.16 1.11-1.694 1.698-.554.614-1.105 1.231-1.665 1.841-.503.556-1.043 1.085-1.54 1.644-.437.516-.857 1.044-1.338 1.532-.447.468-.865.954-1.318 1.417-.337.382-.667.769-.983 1.163M105.427 17.897c-.238.074-.474.155-.712.229-.451.12-.904.238-1.355.36-.48.129-.944.303-1.426.421-.543.158-1.096.277-1.644.415-.505.139-1.02.23-1.527.359-.447.113-.884.263-1.326.394-.539.156-1.076.318-1.622.447-.78.198-1.567.368-2.349.561-.792.214-1.583.43-2.379.627-.562.14-1.13.255-1.685.425-.558.152-1.118.296-1.674.454a30.14 30.14 0 0 1-1.91.497c-.708.167-1.42.323-2.12.523-.747.196-1.495.384-2.239.589-.674.19-1.342.403-2.018.584-.721.216-1.435.458-2.165.638-.756.192-1.509.393-2.261.6-.665.167-1.336.306-1.995.495-.548.152-1.084.342-1.632.492-.541.146-1.079.304-1.617.459-.418.117-.834.246-1.252.362" style="fill:none;stroke:red;stroke-width:.47625;stroke-linecap:square;stroke-dasharray:none"/><path d="M40.473 56.946a1.98 1.98 0 0 1 1.107.082c.424.178.734.557.908.97.113.35.144.766-.066 1.086a1.42 1.42 0 0 1-.632.438 2.291 2.291 0 0 1-1.376.082c-.406-.108-.818-.337-.992-.736a1.071 1.071 0 0 1-.045-.753c.136-.46.49-.844.922-1.052.201-.092.431-.138.65-.092" style="display:inline;fill:none;stroke:#000;stroke-width:.291042;stroke-dasharray:none;stroke-opacity:1"/><path d="M68.386 57.065c-.032-.322.03-.724-.033-1.147-.022-.67.023-1.154.038-1.728M68.412 53.629c-.032-.143.03-.32-.033-.508M68.389 52.15c.032.144-.03.322.033.509M68.412 51.278c.006.119-.028.295-.033.447M68.367 50.477c.006.119.03.256.025.409M68.412 50.031a2.612 2.612 0 0 1-.033-.508M68.37 42.27c-.006.11.003.347.034.508M68.396 40.533c.006.119-.029.295-.033.447M68.39 44.172c.006.12.03.296.025.448M68.411 49.106c-.032-.143.03-.32-.033-.508M68.364 39.562c.032.143-.03.32.033.508M68.421 47.691c.007.12-.028.296-.033.448M68.383 46.861c.006.12.03.257.025.41M68.403 43.724a2.612 2.612 0 0 1-.033-.508M68.377 45.041c-.006.11.003.347.033.508M68.41 45.993c.007.119-.028.295-.033.447M68.391 41.401c.007.12.03.296.026.448M68.412 39.05c-.032-.143.03-.321-.033-.509M68.389 37.571c.032.143-.03.32.033.508M68.412 36.698c.006.12-.028.295-.033.447M68.367 35.897c.006.12.03.257.025.409M68.412 35.451a2.612 2.612 0 0 1-.033-.508M68.37 27.69c-.006.111.003.347.034.509M68.396 25.953c.006.12-.029.295-.033.448M68.39 29.592c.006.12.03.296.025.448M68.411 34.526c-.032-.142.03-.32-.033-.508M68.364 24.982c.032.143-.03.321.033.508M68.421 33.111c.007.12-.028.296-.033.448M68.383 32.282c.006.119.03.256.025.409M68.403 29.144a2.612 2.612 0 0 1-.033-.508M68.377 30.462c-.006.11.003.346.033.508M68.41 31.413c.007.12-.028.296-.033.448M68.391 26.821c.007.12.03.296.026.448M46.073 27.938c-.142.033-.32-.03-.507.033M46.947 27.961c-.12.007-.296-.028-.448-.033M47.748 27.916c-.12.007-.257.03-.41.025M48.193 27.961c.143-.032.38-.034.508-.033M55.954 27.92a2.56 2.56 0 0 0-.508.033M57.692 27.945c-.12.007-.296-.028-.448-.033M54.052 27.94c-.12.006-.295.029-.448.024M49.118 27.96c.143-.032.321.03.508-.032M58.662 27.913c-.142.033-.32-.03-.508.033M50.533 27.97c-.119.007-.295-.027-.447-.032M51.363 27.932c-.12.007-.257.03-.409.025M54.5 27.952c.143-.032.38-.035.509-.033M53.183 27.927a2.56 2.56 0 0 0-.508.033M52.232 27.96c-.12.006-.296-.028-.448-.033M56.823 27.94c-.12.007-.295.03-.448.026M59.175 27.961c.143-.032.32.03.508-.033M60.653 27.938c-.142.033-.32-.03-.508.033M61.527 27.961c-.12.007-.296-.028-.448-.033M62.328 27.916c-.12.007-.257.03-.41.025M62.773 27.961c.143-.032.379-.034.508-.033M70.534 27.92a2.56 2.56 0 0 0-.508.033M72.272 27.945c-.12.007-.296-.028-.448-.033" style="display:inline;fill:none;stroke:#000;stroke-width:.291042;stroke-miterlimit:2;stroke-dasharray:none"/><path d="M68.632 27.94c-.12.006-.296.029-.448.024M63.698 27.96c.143-.032.32.03.508-.032M65.113 27.97c-.12.007-.296-.027-.448-.032M65.943 27.932c-.12.007-.257.03-.41.025M69.08 27.952c.143-.032.38-.035.508-.033M67.763 27.927a2.56 2.56 0 0 0-.508.033M66.811 27.96c-.119.006-.295-.028-.447-.033M71.403 27.94c-.12.007-.296.03-.448.026M42.162 27.952c.322-.033.976.036 1.402.003.668-.052 1.008.004 1.473.002" style="display:inline;fill:none;stroke:#000;stroke-width:.291042;stroke-miterlimit:2;stroke-dasharray:none"/><g style="display:inline;stroke-width:3.03546;stroke-dasharray:none"><path d="M-868.11-3402.88h-1.222c-4.597.233-9.537.64-14.134 1.047" style="fill:none;stroke:#000;stroke-width:3.03546;stroke-dasharray:none;stroke-opacity:1" transform="matrix(.09483 .00696 -.00708 .09642 126.225 392.065)"/><path d="M-883.182-3385.757c.757.583.291.291 1.339.874 3.782 1.514 7.099 1.514 10.882.058 1.047-.583 1.862-.932 2.618-1.922 1.28-1.806.656-4.198-.701-5.644-.454-.484-.952-.983-1.512-1.339-2.718-1.723-6.139-1.834-9.309-.589-1.43.562-1.818.709-3.04 1.64-.407.292-.872.758-1.047.525-.117-.175-.058-.35-.058-.524.699-3.378 1.12-6.067 1.934-9.445" style="fill:none;stroke:#000;stroke-width:3.03546;stroke-dasharray:none;stroke-opacity:1" transform="matrix(.09483 .00696 -.00708 .09642 126.225 392.065)"/></g><path d="M69.475 58.116a.773.773 0 0 1 .333-.012c.042.01.087.018.127.033.21.075.376.247.483.463.017.05.037.098.05.148a.767.767 0 0 1-.1.63c-.034.048-.078.084-.117.126-.052.033-.1.073-.156.1a1.119 1.119 0 0 1-.904.012c-.071-.03-.133-.079-.198-.119-.114-.118-.166-.146-.23-.31a.735.735 0 0 1 .01-.545c.025-.054.065-.094.097-.139.043-.04.084-.084.129-.12.124-.096.388-.242.544-.204.016.003.028.02.042.03" style="display:inline;fill:none;stroke:#000;stroke-width:.291042;stroke-miterlimit:2;stroke-dasharray:none"/><path d="M39.823 27.44c.21-.127.443-.234.692-.256.058-.005.142-.006.2 0 .125.013.29.043.314.21.023.173-.093.309-.202.416a1.375 1.375 0 0 1-.284.214c.083.014.242.042.33.08.166.074.31.168.398.317.105.175.058.328-.09.45a.978.978 0 0 1-.34.161 2.162 2.162 0 0 1-.732.076 1.189 1.189 0 0 1-.33-.074.738.738 0 0 1-.158-.091" style="display:inline;fill:none;fill-opacity:1;stroke:#000;stroke-width:.264583;stroke-linecap:butt;stroke-linejoin:miter;stroke-miterlimit:4;stroke-dasharray:none;stroke-opacity:1"/><path d="M43.873 116.616h24.392M68.471 114.911h24.392" style="fill:none;stroke:#1a1a1a;stroke-width:.291042;stroke-linecap:square;stroke-dasharray:none"/><path d="M92.95 54.2c.032.322-.03.724.033 1.147.022.67-.022 1.154-.038 1.728" style="display:inline;fill:none;stroke:#000;stroke-width:.291042;stroke-miterlimit:2;stroke-dasharray:none"/><path d="M94.879 58.195a.728.728 0 0 1 .66.118c.273.187.468.514.433.85a.845.845 0 0 1-.538.674c-.28.107-.624.075-.856-.123a.783.783 0 0 1-.305-.428.82.82 0 0 1 .193-.779c.161-.178.393-.308.639-.308" style="display:inline;fill:none;fill-opacity:1;stroke:#000;stroke-width:.29104167;stroke-linecap:butt;stroke-linejoin:miter;stroke-miterlimit:4;stroke-dasharray:none;stroke-opacity:1"/><path d="M92.251 58.37a.493.493 0 0 1 .185-.2c.193-.11.472-.048.703.062.333.144.555.51.535.817.004.29-.19.502-.412.643a1.027 1.027 0 0 1-.553.174c-.26.01-.563-.044-.792-.243a.676.676 0 0 1-.198-.691c.112-.38.467-.618.866-.7" style="display:inline;fill:none;stroke:#000;stroke-width:.29104167;stroke-dasharray:none;stroke-opacity:1"/><g style="display:inline;stroke-width:2.6837158;stroke-dasharray:none"><path d="M-1068.518-3395.844c.845-.636 1.665-1.305 2.488-1.97 1.13-.9 2.23-1.836 3.342-2.757l.37-.297m-.058-.074-.37.299c-1.11.924-2.209 1.86-3.34 2.758-.82.662-1.64 1.33-2.487 1.957" style="fill:none;stroke:#000;stroke-width:2.6837158;stroke-dasharray:none" transform="matrix(.10695 0 0 .10996 204.464 431.823)"/><path d="M-1063.331-3383.522c-.051-.646-.06-1.295-.071-1.943-.028-1.284 0-2.567.02-3.85.041-1.568.1-3.135.147-4.702.05-1.632.045-3.266.072-4.899.013-.766.03-1.531.053-2.297M-1058.795-3383.322h-.597c-1.1 0-2.2-.015-3.3-.031-1.13-.014-2.26-.02-3.389.048-.614.027-1.228.05-1.842.067" style="fill:none;stroke:#000;stroke-width:2.6837158;stroke-dasharray:none" transform="matrix(.10695 0 0 .10996 204.464 431.823)"/></g><path d="M19.035 57.065c-.032-.322.03-.724-.033-1.147-.022-.67.023-1.154.038-1.728" style="display:inline;fill:none;stroke:#000;stroke-width:.291042;stroke-miterlimit:2;stroke-dasharray:none"/><path d="M19.191 116.616h24.391" style="fill:none;stroke:#1a1a1a;stroke-width:.291042;stroke-linecap:square;stroke-dasharray:none"/><path d="M18.673 57.908h-.116c-.437.023-.906.062-1.343.102" style="fill:#000;stroke:#000;stroke-width:.291042;stroke-dasharray:none;stroke-opacity:1"/><path d="M17.241 59.565c.072.056.028.028.127.085.36.146.675.146 1.034.005.1-.056.177-.09.249-.186.121-.175.062-.406-.067-.546a.784.784 0 0 0-.144-.13c-.258-.166-.583-.177-.884-.056-.136.054-.172.068-.289.158-.038.028-.082.074-.1.051-.01-.017-.005-.034-.005-.05.067-.328.107-.588.184-.915" style="fill:none;stroke:#000;stroke-width:.291042;stroke-dasharray:none;stroke-opacity:1"/><path d="m16.517 58.958-.12-.007c-.455 0-.943.014-1.398.03" style="fill:#000;stroke:#000;stroke-width:.291042;stroke-dasharray:none;stroke-opacity:1"/><path d="M20.138 58.125a1.2 1.2 0 0 1 .665.05c.254.105.44.33.545.576.068.208.087.456-.04.646a.853.853 0 0 1-.38.26c-.26.1-.555.117-.826.05-.244-.065-.492-.201-.596-.439a.631.631 0 0 1-.027-.447c.082-.274.295-.502.554-.626a.647.647 0 0 1 .39-.055" style="display:inline;fill:none;stroke:#000;stroke-width:.291042;stroke-dasharray:none;stroke-opacity:1"/></svg>