<svg xmlns="http://www.w3.org/2000/svg" xmlns:xlink="http://www.w3.org/1999/xlink" id="svg150195" width="900" height="1180" preserveAspectRatio="none" version="1.1" viewBox="-10 -100 900 1180"><style id="style149861" type="text/css">.axes{stroke:#000;stroke-width:.9}.axes-arrows{stroke-width:1.2100000000000002;stroke:#000;fill:none;stroke-linecap:round;stroke-linejoin:round}.axes-labels{stroke:none;fill:#000}</style><defs id="defs149880"><path id="STIXWEBMAIN-5B" stroke-width="1" d="M299-156H88v818h211v-25h-83c-34 0-52-12-52-48V-77c0-40 19-54 52-54h83z"/><path id="STIXWEBMAIN-5D" stroke-width="1" d="M245-156H34v25h88c35 0 47 15 47 46v668c0 35-13 54-51 54H34v25h211z"/><path id="STIXWEBMAIN-22C5" stroke-width="1" d="M203 253c0-32-27-60-59-60-33 0-61 30-61 60s28 60 61 60c32 0 59-28 59-60z"/><path id="STIXWEBMAIN-2F" stroke-width="1" d="M287 676 59-14H-9l229 690z"/><path id="STIXWEBMAIN-32" stroke-width="1" d="M474 137 420 0H29v12l178 189c94 99 130 175 130 260 0 91-54 141-139 141-72 0-107-32-147-130l-21 5c21 117 85 199 208 199 113 0 185-77 185-176 0-79-39-154-128-248L130 76h234c42 0 63 11 96 67z"/><path id="STIXWEBMAIN-33" stroke-width="1" d="m61 510-16 4c29 95 92 162 196 162 93 0 156-55 156-137 0-48-26-98-93-138 44-19 62-31 83-53 28-31 44-77 44-129 0-53-17-102-46-140-48-64-143-93-232-93C80-14 41 7 41 43c0 21 18 36 41 36 17 0 33-6 61-26 37-26 58-31 86-31 74 0 130 68 130 153 0 76-35 125-104 145-22 7-45 10-102 10v14c38 13 64 24 84 36 49 28 81 73 81 134 0 68-42 102-108 102-62 0-108-32-149-106z"/><path id="STIXWEBNORMALI-1D453" stroke-width="1" d="M248 437h37c63 0 58 77 101 141 31 47 74 90 150 90 50 0 79-24 79-59 0-28-21-40-41-40-28 0-35 11-35 25s9 29 9 37c0 5-3 8-15 8-50 0-89-54-110-132l-19-70h80l-12-38h-76L317 93c-7-27-15-65-30-102-33-83-87-178-175-178-48 0-72 24-72 54 0 24 14 49 43 49 27 0 37-18 37-33 0-19-16-20-16-32 0-6 6-9 15-9 65 0 95 158 110 215l87 342h-77z"/><path id="STIXWEBVARIANTS-2032" stroke-width="1" d="M78 28 44 40c26 123 89 398 107 456 16 51 46 69 76 69 36 0 68-22 68-71 0-11-5-35-10-47-21-57-146-306-207-419Z"/><path id="STIXWEBVARIANTS-2034" stroke-width="1" d="m610 28-33 12c26 123 90 398 107 456 15 51 47 69 77 69 36 0 68-22 68-71 0-11-6-35-11-47-22-57-146-306-208-419Zm-267 0-33 12c26 123 90 398 107 456 15 51 47 69 77 69 36 0 68-22 68-71 0-11-6-35-11-47-22-57-146-306-208-419ZM76 28 43 40c26 123 90 398 107 456 15 51 47 69 77 69 36 0 68-22 68-71 0-11-6-35-11-47-22-57-146-306-208-419Z"/><path id="STIXWEBNORMALI-1D454" stroke-width="1" d="m492 413-13-45h-81c13-15 17-28 17-50 0-75-53-137-141-148-59-8-88-33-88-58 0-63 233-23 233-148 0-71-66-151-215-151C70-187 20-130 20-72S75 16 137 36c-17 11-24 30-24 47 0 38 37 87 85 87v4c-67 15-94 62-94 109 0 79 68 158 174 158 42 0 73-13 88-28zm-156-64c0 37-10 62-54 62-54 0-98-71-98-139 0-46 12-81 56-81 71 0 96 102 96 158zm13-418c0 78-132 73-192 95-8-5-18-10-26-16-26-19-48-45-48-72 0-47 44-97 139-97 91 0 127 46 127 90z"/><path id="STIXWEBNORMALI-210E" stroke-width="1" d="m469 106 14-11C454 61 405-11 350-11c-18 0-41 10-41 42 0 12 1 26 64 267 2 7 7 29 7 44 0 19-7 35-24 35-36 0-102-85-134-133-34-51-62-102-67-122L123 0H45l152 600c1 4 2 7 2 10 0 13-10 22-31 22-10 0-21-1-29-2l-2 14 159 24-109-416h4c53 58 125 189 216 189 42 0 57-34 57-70 0-22-6-43-11-64L395 77c-1-5-2-7-2-10 0-6 3-14 13-14 22 0 49 35 63 53z"/><path id="STIXWEBMAIN-2212" stroke-width="1" d="M621 220H64v66h557z"/><path id="STIXWEBMAIN-31" stroke-width="1" d="M394 0H118v15c74 4 95 25 95 80v449c0 34-9 49-30 49-10 0-27-5-45-12l-27-10v14l179 91 9-3V76c0-43 20-61 95-61z"/><path id="STIXWEBMAIN-30" stroke-width="1" d="M476 330c0-172-63-344-226-344C79-14 24 172 24 336c0 177 69 340 230 340 131 0 222-141 222-346Zm-96-5c0 208-44 325-132 325-83 0-128-118-128-321S164 12 250 12c85 0 130 115 130 313z"/><path id="STIXWEBMAIN-34" stroke-width="1" d="M473 167H370V0h-78v167H12v64l314 445h44V231h103Zm-181 64v343L52 231Z"/><path id="STIXWEBMAIN-35" stroke-width="1" d="m438 681-36-85c-3-7-11-13-27-13H181l-40-85c143-27 193-49 250-128 26-36 35-74 35-127 0-96-30-158-98-208-47-34-102-49-170-49C83-14 31 10 31 48c0 25 17 38 45 38 23 0 42-5 74-31 28-23 51-32 71-32 70 0 135 83 135 169 0 64-22 114-67 150-47 38-117 70-213 70-9 0-12 2-12 8 0 2 1 5 1 5l109 237h207c23 0 32 5 48 26z"/><path id="STIXWEBMAIN-36" stroke-width="1" d="m446 684 2-16c-157-26-269-134-296-285 49 38 83 45 127 45 117 0 189-80 189-209 0-64-18-120-51-160-37-46-93-73-159-73-79 0-142 37-177 101-28 51-47 122-47 192 0 108 38 203 109 276 86 90 165 114 303 129zm-68-496c0 128-42 194-135 194-57 0-116-24-116-116 0-152 48-252 142-252 72 0 109 72 109 174z"/></defs><g id="layer2"><g id="g152649" transform="translate(-7.509 -221.502)"><use xlink:href="#STIXWEBMAIN-5B" id="use149937" x="0" y="0" style="fill:#000;stroke:none" transform="matrix(.01904 0 0 -.01904 168.377 35.585)"/><g id="g149941" style="fill:#000;stroke:none" transform="matrix(.01904 0 0 -.01904 174.717 35.585)"><text id="text149939" stroke="none" direction="ltr" style="font-size:20.5px;font-family:baskerville" transform="scale(52.507 -52.507)">kw</text></g><use xlink:href="#STIXWEBMAIN-22C5" id="use149943" x="1778" y="0" style="fill:#000;stroke:none" transform="matrix(.01904 0 0 -.01904 163.684 35.585)"/><g id="g149947" style="fill:#000;stroke:none" transform="matrix(.01904 0 0 -.01904 202.537 35.585)"><text id="text149945" stroke="none" direction="ltr" style="font-size:20.5px;font-family:baskerville" transform="scale(52.507 -52.507)">hr</text></g><use xlink:href="#STIXWEBMAIN-2F" id="use149949" x="3252" y="0" style="fill:#000;stroke:none" transform="matrix(.01904 0 0 -.01904 158.991 35.585)"/><g id="g149953" style="fill:#000;stroke:none" transform="matrix(.01904 0 0 -.01904 226.205 35.585)"><text id="text149951" stroke="none" direction="ltr" style="font-size:20.5px;font-family:baskerville" transform="scale(52.507 -52.507)">year</text></g><use xlink:href="#STIXWEBMAIN-5D" id="use149955" x="5367" y="0" style="fill:#000;stroke:none" transform="matrix(.01904 0 0 -.01904 158.991 35.585)"/></g><g id="g149981" class="axes-labels" transform="matrix(.01904 0 0 -.01904 520.521 -174.093)"><use xlink:href="#STIXWEBMAIN-5B" id="use149959" x="0" y="0"/><g id="g149963" transform="translate(333)"><text id="text149961" stroke="none" direction="ltr" style="font-size:20.5px;font-family:baskerville" transform="scale(52.507 -52.507)">kw</text></g><use xlink:href="#STIXWEBMAIN-22C5" id="use149965" x="1778" y="0"/><g id="g149969" transform="translate(2287)"><text id="text149967" stroke="none" direction="ltr" style="font-size:20.5px;font-family:baskerville" transform="scale(52.507 -52.507)">hr</text></g><use xlink:href="#STIXWEBMAIN-2F" id="use149971" x="3252" y="0"/><g id="g149977" transform="translate(3530)"><text id="text149973" stroke="none" direction="ltr" style="font-size:20.5px;font-family:baskerville" transform="scale(52.507 -52.507)">year</text><use xlink:href="#STIXWEBMAIN-32" id="use149975" x="2598" y="987" transform="scale(.707)"/></g><use xlink:href="#STIXWEBMAIN-5D" id="use149979" x="5821" y="0"/></g><g id="g150005" class="axes-labels" transform="matrix(.01904 0 0 -.01904 562.032 -232)"><use xlink:href="#STIXWEBMAIN-5B" id="use149983" x="0" y="0"/><g id="g149987" transform="translate(333)"><text id="text149985" stroke="none" direction="ltr" style="font-size:20.5px;font-family:baskerville" transform="scale(52.507 -52.507)">kw</text></g><use xlink:href="#STIXWEBMAIN-22C5" id="use149989" x="1778" y="0"/><g id="g149993" transform="translate(2287)"><text id="text149991" stroke="none" direction="ltr" style="font-size:20.5px;font-family:baskerville" transform="scale(52.507 -52.507)">hr</text></g><use xlink:href="#STIXWEBMAIN-2F" id="use149995" x="3252" y="0"/><g id="g150001" transform="translate(3530)"><text id="text149997" stroke="none" direction="ltr" style="font-size:20.5px;font-family:baskerville" transform="scale(52.507 -52.507)">year</text><use xlink:href="#STIXWEBMAIN-33" id="use149999" x="2598" y="987" transform="scale(.707)"/></g><use xlink:href="#STIXWEBMAIN-5D" id="use150003" x="5821" y="0"/></g><use xlink:href="#STIXWEBMAIN-5B" id="use150007" x="0" y="0" style="fill:#000;stroke:none" transform="matrix(.01904 0 0 -.01904 596.857 -71.806)"/><g id="g150011" style="fill:#000;stroke:none" transform="matrix(.01904 0 0 -.01904 603.197 -71.806)"><text id="text150009" stroke="none" direction="ltr" style="font-size:20.5px;font-family:baskerville" transform="scale(52.507 -52.507)">m</text></g><use xlink:href="#STIXWEBMAIN-2F" id="use150013" x="1197" y="0" style="fill:#000;stroke:none" transform="matrix(.01904 0 0 -.01904 596.857 -71.806)"/><text id="text150015" x="624.94" y="-71.806" stroke="none" direction="ltr" style="font-size:20.4942px;font-family:baskerville;fill:#000;stroke-width:.999715">s</text><use xlink:href="#STIXWEBMAIN-32" id="use150017" x="508" y="987" style="fill:#000;stroke:none" transform="matrix(.01346 0 0 -.01346 625.245 -64.358)"/><use xlink:href="#STIXWEBMAIN-5D" id="use150021" x="2289" y="0" style="fill:#000;stroke:none" transform="matrix(.01904 0 0 -.01904 595.202 -71.806)"/><g id="g35131" transform="translate(-50.412 141.936)"><use xlink:href="#STIXWEBMAIN-5B" id="use150025" x="0" y="0" style="fill:#000;stroke:none" transform="matrix(.01904 0 0 -.01904 399.877 -213.456)"/><g id="g150029" style="fill:#000;stroke:none" transform="matrix(.01904 0 0 -.01904 406.217 -213.456)"><text id="text150027" stroke="none" direction="ltr" style="font-size:20.5px;font-family:baskerville" transform="scale(52.507 -52.507)">m</text></g><use xlink:href="#STIXWEBMAIN-2F" id="use150031" x="1197" y="0" style="fill:#000;stroke:none" transform="matrix(.01904 0 0 -.01904 399.877 -213.456)"/><g id="g150035" style="fill:#000;stroke:none" transform="matrix(.01904 0 0 -.01904 427.961 -213.456)"><text id="text150033" stroke="none" direction="ltr" style="font-size:20.5px;font-family:baskerville" transform="scale(52.507 -52.507)">s</text></g><use xlink:href="#STIXWEBMAIN-5D" id="use150037" x="1835" y="0" style="fill:#000;stroke:none" transform="matrix(.01904 0 0 -.01904 399.877 -213.456)"/></g><g id="g150049" class="axes-labels" transform="matrix(.01904 0 0 -.01904 347.824 -269.386)"><use xlink:href="#STIXWEBMAIN-5B" id="use150041" x="0" y="0"/><g id="g150045" transform="translate(333)"><text id="text150043" stroke="none" direction="ltr" style="font-size:20.5px;font-family:baskerville" transform="scale(52.507 -52.507)">m</text></g><use xlink:href="#STIXWEBMAIN-5D" id="use150047" x="1197" y="0"/></g><g id="g150067" class="axes-labels" transform="matrix(.01904 0 0 -.01904 440.841 -288.543)"><use xlink:href="#STIXWEBMAIN-5B" id="use150051" x="0" y="0"/><g id="g150055" transform="translate(333)"><text id="text150053" stroke="none" direction="ltr" style="font-size:20.5px;font-family:baskerville" transform="scale(52.507 -52.507)">m</text></g><use xlink:href="#STIXWEBMAIN-2F" id="use150057" x="1197" y="0"/><g id="g150063" transform="translate(1475)"><text id="text150059" stroke="none" direction="ltr" style="font-size:20.5px;font-family:baskerville" transform="scale(52.507 -52.507)">s</text><use xlink:href="#STIXWEBMAIN-33" id="use150061" x="508" y="987" transform="scale(.707)"/></g><use xlink:href="#STIXWEBMAIN-5D" id="use150065" x="2289" y="0"/></g><g id="g150077" class="axes-labels" style="stroke-width:.5" transform="matrix(.03427 0 0 -.03427 11.01 -279.689)"><use xlink:href="#STIXWEBNORMALI-1D453" id="use150073" x="0" y="0" style="stroke-width:.5"/><use xlink:href="#STIXWEBVARIANTS-2032" id="use150075" x="895" y="583" style="stroke-width:.5" transform="scale(.707)"/></g><g id="g150083" class="axes-labels" style="stroke-width:.5" transform="matrix(.03427 0 0 -.03427 45.907 -257.946)"><use xlink:href="#STIXWEBNORMALI-1D453" id="use150079" x="0" y="0" style="stroke-width:.5"/><use xlink:href="#STIXWEBVARIANTS-2034" id="use150081" x="895" y="583" style="stroke-width:.5" transform="scale(.707)"/></g><g id="g150087" class="axes-labels" style="stroke-width:.5" transform="matrix(.03428 0 0 -.03428 -87.52 -278.635)"><use xlink:href="#STIXWEBNORMALI-1D454" id="use150085" x="0" y="0" style="stroke-width:.5"/></g><g id="g150093" class="axes-labels" style="stroke-width:.5" transform="matrix(.03427 0 0 -.03427 -52.31 -262.636)"><use xlink:href="#STIXWEBNORMALI-1D454" id="use150089" x="0" y="0" style="stroke-width:.5"/><use xlink:href="#STIXWEBVARIANTS-2032" id="use150091" x="696" y="583" style="stroke-width:.5" transform="scale(.707)"/></g><g id="g150099" class="axes-labels" style="stroke-width:.5" transform="matrix(.03428 0 0 -.03428 194.553 -326.85)"><use xlink:href="#STIXWEBNORMALI-1D454" id="use150095" x="0" y="0" style="stroke-width:.5"/><use xlink:href="#STIXWEBVARIANTS-2034" id="use150097" x="696" y="583" style="stroke-width:.5" transform="scale(.707)"/></g><g id="g150109" class="axes-labels" style="stroke-width:.5" transform="matrix(.03427 0 0 -.03427 -133.907 -264.007)"><use xlink:href="#STIXWEBNORMALI-210E" id="use150105" x="0" y="0" style="stroke-width:.5"/><use xlink:href="#STIXWEBVARIANTS-2032" id="use150107" x="726" y="583" style="stroke-width:.5" transform="scale(.707)"/></g><g id="g150115" class="axes-labels" style="stroke-width:.5" transform="matrix(.03427 0 0 -.03427 -46.74 -188.058)"><use xlink:href="#STIXWEBNORMALI-210E" id="use150111" x="0" y="0" style="stroke-width:.5"/><use xlink:href="#STIXWEBVARIANTS-2034" id="use150113" x="726" y="583" style="stroke-width:.5" transform="scale(.707)"/></g><g id="g152565" class="axes-labels" transform="matrix(.01904 0 0 -.01904 399.94 -142.027)"><use xlink:href="#STIXWEBMAIN-5B" id="use152557" x="0" y="0"/><g id="g152561" transform="translate(333)"><text id="text152559" stroke="none" direction="ltr" style="font-size:20.5px;font-family:baskerville" transform="scale(52.507 -52.507)">s</text></g><use xlink:href="#STIXWEBMAIN-5D" id="use152563" x="692" y="0"/></g><g id="g152599" class="axes-labels" transform="matrix(.01904 0 0 -.01904 660.985 -122.317)"><use xlink:href="#STIXWEBMAIN-5B" id="use152591" x="0" y="0"/><g id="g152595" transform="translate(333)"><text id="text152593" stroke="none" direction="ltr" style="font-size:20.5px;font-family:baskerville" transform="scale(52.507 -52.507)">s</text></g><use xlink:href="#STIXWEBMAIN-5D" id="use152597" x="692" y="0"/></g><use xlink:href="#STIXWEBMAIN-5B" id="use154235" x="0" y="0" style="fill:#000;stroke:none" transform="matrix(.01904 0 0 -.01904 649.614 -330.192)"/><g id="g154239" style="fill:#000;stroke:none" transform="matrix(.01904 0 0 -.01904 655.954 -330.192)"><text id="text154237" stroke="none" direction="ltr" style="font-size:20.5px;font-family:baskerville" transform="scale(52.507 -52.507)">J</text></g><use xlink:href="#STIXWEBMAIN-2F" id="use154241" x="886" y="0" style="fill:#000;stroke:none" transform="matrix(.01904 0 0 -.01904 649.614 -330.192)"/><path id="use154243" stroke-width=".019" d="m677.584-327.127-.229.305c-3.008-1.714-4.645-4.931-4.645-8.168 0-3.523 1.656-6.264 4.702-8.073l.172.305c-2.647 2.265-3.237 4.036-3.237 7.71 0 3.542.571 5.694 3.237 7.921z" style="fill:#000;stroke:none"/><g id="g154247" style="fill:#000;stroke:none" transform="matrix(.01904 0 0 -.01904 678.136 -330.192)"><text id="text154245" stroke="none" direction="ltr" style="font-size:20.5px;font-family:baskerville" transform="scale(52.507 -52.507)">person</text></g><g id="g154251" style="fill:#000;stroke:none" transform="matrix(.01904 0 0 -.01904 733.428 -330.192)"><text id="text154249" stroke="none" direction="ltr" style="font-size:20.5px;font-family:baskerville" transform="scale(52.507 -52.507)">year</text></g><path id="use154253" stroke-width=".019" d="m768.975-342.758.229-.305c2.913 1.752 4.646 4.931 4.646 8.168 0 3.522-1.676 6.226-4.703 8.073l-.172-.305c2.704-2.227 3.237-4.017 3.237-7.71 0-3.561-.476-5.75-3.237-7.921z" style="fill:#000;stroke:none"/><use xlink:href="#STIXWEBMAIN-5D" id="use154255" x="6573" y="0" style="fill:#000;stroke:none" transform="matrix(.01904 0 0 -.01904 649.614 -330.192)"/><g id="g154820" transform="translate(-568.351 -365.67)"><use xlink:href="#STIXWEBMAIN-5B" id="use154814" x="0" y="0" style="fill:#000;stroke:none" transform="matrix(.01904 0 0 -.01904 446.103 222.818)"/><path id="path154816" stroke-width=".019" d="M469.352 222c0 .552-.495 1.028-1.066 1.028-.59 0-1.047-.457-1.047-1.048 0-.59.476-1.066 1.066-1.066.552 0 1.047.514 1.047 1.085zm-6.34 0c0 .552-.496 1.028-1.067 1.028-.59 0-1.047-.457-1.047-1.048 0-.59.476-1.066 1.066-1.066.552 0 1.047.514 1.047 1.085zm-6.341 0c0 .552-.495 1.028-1.066 1.028-.59 0-1.048-.457-1.048-1.048 0-.59.476-1.066 1.067-1.066.552 0 1.047.514 1.047 1.085z" style="fill:#000;stroke:none"/><use xlink:href="#STIXWEBMAIN-5D" id="use154818" x="1334" y="0" style="fill:#000;stroke:none" transform="matrix(.01904 0 0 -.01904 446.103 222.818)"/></g><ellipse id="ellipse156013" cx="75.356" cy="-194.459" rx="13.729" ry="8.804" style="fill:#ffe6d5;stroke:none;stroke-width:3;stroke-dasharray:9,6;stroke-dashoffset:0"/><g id="g165789" style="fill:#000;stroke:none" transform="matrix(.01904 0 0 -.01904 250.53 -273.833)"><text id="text165787" stroke="none" direction="ltr" style="font-size:20.5px;font-family:baskerville" transform="scale(52.507 -52.507)">s</text></g><use xlink:href="#STIXWEBMAIN-5B" id="use169021" x="0" y="0" style="fill:#000;stroke:none" transform="matrix(.01904 0 0 -.01904 399.61 -116.074)"/><g id="g169025" style="fill:#000;stroke:none" transform="matrix(.01904 0 0 -.01904 405.95 -116.074)"><text id="text169023" stroke="none" direction="ltr" style="font-size:20.5px;font-family:baskerville" transform="scale(52.507 -52.507)">customer</text></g><use xlink:href="#STIXWEBMAIN-5D" id="use169027" x="4292" y="0" style="fill:#000;stroke:none" transform="matrix(.01904 0 0 -.01904 399.61 -116.074)"/><g id="g177967" transform="translate(-315.16)"><g id="g171404" aria-label="$" style="font-size:25px;font-family:Hel;-inkscape-font-specification:Hel;stroke:#000;stroke-width:.139922;stroke-dasharray:.419767,.279844;stroke-dashoffset:0;stroke-opacity:1" transform="matrix(.746 0 0 .68469 -48.243 420.879)"><path id="path171402" d="M246.645-272.816q-1.306-.317-2.198-1.123-.903-.83-.903-1.526 0-.39.208-.622.22-.232.5-.232.61 0 .806.89.354 1.466 1.587 1.978v-7.873q-2.942-1.319-2.942-4.016 0-1.343.793-2.356.794-.99 2.149-1.416v-.843h.525v.708q.598-.11 1.27-.11.524 0 1.147.11v-.708h.525v.843q1.416.403 2.209 1.306.806.903.806 1.66 0 .39-.22.623-.22.22-.476.22-.366 0-.562-.257-.207-.28-.366-1.11-.256-1.356-1.391-1.808v6.739q3.38 1.391 3.38 4.419 0 1.416-.841 2.636-.83 1.209-2.54 1.746v2.454h-.524v-2.332q-.794.17-1.49.17-.476.001-.927-.072v2.234h-.525zm.525-10.156 2.417 1.025v-6.762q-.623-.16-1.294-.16-.647 0-1.123.16zm-.525-5.628q-1.831.867-1.831 2.76 0 1.696 1.83 2.611zm.525 7.508v7.8q.476.122 1.062.122.732 0 1.355-.195v-6.665zm2.942 7.483q2.148-.94 2.148-3.223 0-2.026-2.148-2.966z" style="font-family:Baskerville;-inkscape-font-specification:Baskerville;stroke:#000;stroke-width:.139922;stroke-dasharray:.419767,.279844;stroke-dashoffset:0;stroke-opacity:1"/></g><use xlink:href="#STIXWEBMAIN-5B" id="use171406" x="0" y="0" style="fill:#000;stroke:none" transform="matrix(.01904 0 0 -.01904 125.28 233.527)"/><use xlink:href="#STIXWEBMAIN-5D" id="use171408" x="692" y="0" style="fill:#000;stroke:none" transform="matrix(.01904 0 0 -.01904 129.16 233.527)"/></g><g id="g152178" style="stroke-width:1.11158" transform="matrix(.8997 0 0 .89955 235.453 350.15)"><path id="path152174" d="M143.966.955c2.46 0 6.148-3.689 6.148-4.919 0 1.23 3.69 4.92 6.149 4.92" class="axes-arrows"/><path id="path152176" d="M150.114 117.635V-3.964" class="axes"/></g><g id="g149925" class="axes-labels" transform="matrix(.01904 0 0 -.01904 760.28 446.192)"><use xlink:href="#STIXWEBMAIN-5B" id="use149917" x="0" y="0"/><g id="g149921" transform="translate(333)"><text id="text149919" stroke="none" direction="ltr" style="font-size:20.5px;font-family:baskerville" transform="scale(52.507 -52.507)">hr</text></g><use xlink:href="#STIXWEBMAIN-5D" id="use149923" x="1298" y="0"/></g><g id="g150487" style="stroke-width:1.11158" transform="matrix(.8997 0 0 .89955 6.582 284.77)"><path id="path149907" d="M113.208 175h177.37" class="axes"/><path id="path149912" d="M285.66 168.852c0 2.459 3.689 6.148 4.919 6.148-1.23 0-4.919 3.689-4.919 6.148" class="axes-arrows"/></g><g id="g150483" style="stroke-width:1.11158" transform="matrix(.8997 0 0 .89955 1.551 350.15)"><path id="path149914" d="M143.966.955c2.46 0 6.148-3.689 6.148-4.919 0 1.23 3.69 4.92 6.149 4.92" class="axes-arrows"/><path id="path149909" d="M150.114 117.635V-3.964" class="axes"/></g><circle id="path150489" cx="196.561" cy="396.034" r="30.191" style="fill:none;stroke:red;stroke-width:2.7;stroke-dasharray:8.1,5.4;stroke-dashoffset:0"/><circle id="ellipse152184" cx="430.462" cy="396.034" r="30.191" style="fill:none;stroke:red;stroke-width:2.7;stroke-dasharray:8.1,5.4;stroke-dashoffset:0"/><g id="g152587" style="stroke-width:1.11158" transform="matrix(.8997 0 0 .89955 357.805 393.272)"><g id="g152579" style="stroke-width:1.11158" transform="translate(147.228 -120.619)"><path id="path152575" d="M113.208 175h177.37" class="axes"/><path id="path152577" d="M285.66 168.852c0 2.459 3.689 6.148 4.919 6.148-1.23 0-4.919 3.689-4.919 6.148" class="axes-arrows"/></g><g id="g152585" style="stroke-width:1.11158" transform="translate(141.637 -47.936)"><path id="path152581" d="M143.966.955c2.46 0 6.148-3.689 6.148-4.919 0 1.23 3.69 4.92 6.149 4.92" class="axes-arrows"/><path id="path152583" d="M150.114 117.635V-3.964" class="axes"/></g></g><circle id="ellipse152589" cx="680.244" cy="396.034" r="30.191" style="fill:none;stroke:red;stroke-width:2.7;stroke-dasharray:8.1,5.4;stroke-dashoffset:0"/><path id="use154211" stroke-width=".019" d="M-385.87 446.644c0 .552-.494 1.028-1.066 1.028-.59 0-1.047-.457-1.047-1.048 0-.59.476-1.066 1.066-1.066.553 0 1.048.514 1.048 1.086zm-6.34 0c0 .552-.495 1.028-1.066 1.028-.59 0-1.047-.457-1.047-1.048 0-.59.476-1.066 1.066-1.066.552 0 1.047.514 1.047 1.086zm-6.34 0c0 .552-.496 1.028-1.067 1.028-.59 0-1.047-.457-1.047-1.048 0-.59.476-1.066 1.066-1.066.552 0 1.048.514 1.048 1.086z" style="fill:#000;stroke:none"/><path id="path154825" stroke-width=".019" d="M-539.508 336.807c0 .552-.495 1.028-1.067 1.028-.59 0-1.047-.457-1.047-1.047 0-.59.476-1.067 1.066-1.067.553 0 1.048.514 1.048 1.086zm-6.34 0c0 .552-.496 1.028-1.067 1.028-.59 0-1.047-.457-1.047-1.047 0-.59.476-1.067 1.066-1.067.552 0 1.047.514 1.047 1.086zm-6.341 0c0 .552-.496 1.028-1.067 1.028-.59 0-1.047-.457-1.047-1.047 0-.59.476-1.067 1.066-1.067.552 0 1.048.514 1.048 1.086z" style="fill:#000;stroke:none"/><path id="path154829" stroke-width=".019" d="M-154.576 446.644c0 .552-.495 1.028-1.066 1.028-.59 0-1.048-.457-1.048-1.048 0-.59.476-1.066 1.067-1.066.552 0 1.047.514 1.047 1.086zm-6.34 0c0 .552-.496 1.028-1.067 1.028-.59 0-1.047-.457-1.047-1.048 0-.59.476-1.066 1.066-1.066.552 0 1.047.514 1.047 1.086zm-6.341 0c0 .552-.495 1.028-1.067 1.028-.59 0-1.047-.457-1.047-1.048 0-.59.476-1.066 1.067-1.066.552 0 1.047.514 1.047 1.086z" style="fill:#000;stroke:none"/><g id="g31834" transform="translate(-682.684)"><path id="path154831" stroke-width=".019" d="M377.782 335.246c0 .552-.495 1.028-1.067 1.028-.59 0-1.047-.457-1.047-1.047 0-.59.476-1.066 1.066-1.066.553 0 1.048.514 1.048 1.085zm-6.34 0c0 .552-.496 1.028-1.067 1.028-.59 0-1.047-.457-1.047-1.047 0-.59.476-1.066 1.066-1.066.552 0 1.047.514 1.047 1.085zm-6.341 0c0 .552-.495 1.028-1.067 1.028-.59 0-1.047-.457-1.047-1.047 0-.59.476-1.066 1.066-1.066.553 0 1.048.514 1.048 1.085z" style="fill:#000;stroke:none"/></g><g id="g40869"><use xlink:href="#STIXWEBMAIN-5B" id="use155247" x="0" y="0" style="fill:#000;stroke:none" transform="matrix(.01904 0 0 -.01904 589.62 337.806)"/><g id="g155251" style="fill:#000;stroke:none" transform="matrix(.01904 0 0 -.01904 595.96 337.806)"><text id="text155249" stroke="none" direction="ltr" style="font-size:20.5px;font-family:baskerville" transform="scale(52.507 -52.507)">km</text></g><use xlink:href="#STIXWEBMAIN-2F" id="use155253" x="1690" y="0" style="fill:#000;stroke:none" transform="matrix(.01904 0 0 -.01904 589.62 337.806)"/><text id="text155255" x="627.111" y="337.806" stroke="none" direction="ltr" style="font-size:20.4955px;font-family:baskerville;fill:#000;stroke-width:.999781">hr</text><use xlink:href="#STIXWEBMAIN-33" id="use155257" x="1364" y="987" style="fill:#000;stroke:none" transform="matrix(.01346 0 0 -.01346 628.007 344.969)"/><use xlink:href="#STIXWEBMAIN-5D" id="use155261" x="3388" y="0" style="fill:#000;stroke:none" transform="matrix(.01904 0 0 -.01904 588.725 337.806)"/></g><g id="g149935" class="axes-labels" transform="matrix(.01904 0 0 -.01904 127.387 131.823)"><use xlink:href="#STIXWEBMAIN-5B" id="use149927" x="0" y="0"/><g id="g149931" transform="translate(333)"><text id="text149929" stroke="none" direction="ltr" style="font-size:20.5px;font-family:baskerville" transform="scale(52.507 -52.507)">s</text></g><use xlink:href="#STIXWEBMAIN-5D" id="use149933" x="692" y="0"/></g><g id="g152555" class="axes-labels" transform="matrix(.01904 0 0 -.01904 275.154 241.926)"><use xlink:href="#STIXWEBMAIN-5B" id="use152547" x="0" y="0"/><g id="g152551" transform="translate(333)"><text id="text152549" stroke="none" direction="ltr" style="font-size:20.5px;font-family:baskerville" transform="scale(52.507 -52.507)">m</text></g><use xlink:href="#STIXWEBMAIN-5D" id="use152553" x="1197" y="0"/></g><path id="path179879" d="M108.434 238.146h159.579" class="axes" style="stroke:#000"/><path id="path179881" d="M263.587 232.615c0 2.213 3.32 5.531 4.426 5.531-1.107 0-4.426 3.319-4.426 5.53" class="axes-arrows"/><g id="g179889" style="stroke-width:1.11158" transform="matrix(.8997 0 0 .89955 1.552 146.106)"><path id="path179885" d="M143.966.955c2.46 0 6.148-3.689 6.148-4.919 0 1.23 3.69 4.92 6.149 4.92" class="axes-arrows"/><path id="path179887" d="M150.114 117.635V-3.964" class="axes"/></g><circle id="ellipse179895" cx="196.561" cy="191.99" r="30.191" style="fill:none;stroke:red;stroke-width:2.7;stroke-dasharray:8.1,5.4;stroke-dashoffset:0"/><g id="g179911" style="stroke-width:1.11158" transform="matrix(.8997 0 0 .89955 108.023 189.227)"><g id="g179903" style="stroke-width:1.11158" transform="translate(147.228 -120.619)"><path id="path179899" d="M113.208 175h177.37" class="axes"/><path id="path179901" d="M285.66 168.852c0 2.459 3.689 6.148 4.919 6.148-1.23 0-4.919 3.689-4.919 6.148" class="axes-arrows"/></g><g id="g179909" style="stroke-width:1.11158" transform="translate(141.637 -47.936)"><path id="path179905" d="M143.966.955c2.46 0 6.148-3.689 6.148-4.919 0 1.23 3.69 4.92 6.149 4.92" class="axes-arrows"/><path id="path179907" d="M150.114 117.635V-3.964" class="axes"/></g></g><circle id="ellipse179913" cx="430.462" cy="191.99" r="30.191" style="fill:none;stroke:red;stroke-width:2.7;stroke-dasharray:8.1,5.4;stroke-dashoffset:0"/><use xlink:href="#STIXWEBNORMALI-1D454" id="use159996" x="0" y="0" style="fill:#000;stroke:none;stroke-width:.5" transform="matrix(.03428 0 0 -.03428 420.01 200.476)"/><use xlink:href="#STIXWEBVARIANTS-2032" id="use159998" x="895" y="583" style="fill:#000;stroke:none;stroke-width:.5" transform="matrix(.02423 0 0 -.02423 415.253 200.615)"/><use xlink:href="#STIXWEBNORMALI-1D454" id="use31229" x="0" y="0" style="fill:#000;stroke:none;stroke-width:.5" transform="matrix(.03428 0 0 -.03428 667.157 200.476)"/><use xlink:href="#STIXWEBNORMALI-1D454" id="use160006" x="0" y="0" style="fill:#000;stroke:none;stroke-width:.5" transform="matrix(.03428 0 0 -.03428 188.295 200.476)"/><g id="g150103" class="axes-labels" style="stroke-width:.5" transform="matrix(.03428 0 0 -.03428 187.416 408.531)"><use xlink:href="#STIXWEBNORMALI-210E" id="use150101" x="0" y="0" style="stroke-width:.5"/></g><g id="g174308" class="axes-labels" style="stroke-width:.5" transform="matrix(.03427 0 0 -.03427 419.985 409.172)"><use xlink:href="#STIXWEBNORMALI-210E" id="use174304" x="0" y="0" style="stroke-width:.5"/><use xlink:href="#STIXWEBVARIANTS-2032" id="use174306" x="726" y="583" style="stroke-width:.5" transform="scale(.707)"/></g><g id="g18978" transform="translate(0 -407.28)"><use xlink:href="#STIXWEBVARIANTS-2032" id="use171326" x="895" y="583" style="fill:#000;stroke:none;stroke-width:.5" transform="matrix(.02423 0 0 -.02423 664.75 816.485)"/><use xlink:href="#STIXWEBVARIANTS-2032" id="use171328" x="895" y="583" style="fill:#000;stroke:none;stroke-width:.5" transform="matrix(.02423 0 0 -.02423 670.888 816.485)"/><use xlink:href="#STIXWEBNORMALI-210E" id="use174310" x="0" y="0" style="fill:#000;stroke:none;stroke-width:.5" transform="matrix(.03427 0 0 -.03427 668.293 816.453)"/></g><path id="path2573" d="m213.592 490.286 457.215 1.071" style="fill:#000;stroke:#000;stroke-width:3;stroke-dasharray:none"/><path id="path3776" d="m213.592 695.974 457.215 1.072" style="fill:#000;stroke:#000;stroke-width:3;stroke-dasharray:none"/><g id="g9192" class="axes-labels" transform="matrix(.01904 0 0 -.01904 275.104 38.048)"><use xlink:href="#STIXWEBMAIN-5B" id="use9184" x="0" y="0"/><g id="g9188" transform="translate(333)"><text id="text9186" stroke="none" direction="ltr" style="font-size:20.5px;font-family:baskerville" transform="scale(52.507 -52.507)">s</text></g><use xlink:href="#STIXWEBMAIN-5D" id="use9190" x="692" y="0"/></g><g id="g9202" class="axes-labels" transform="matrix(.01904 0 0 -.01904 122.514 -71.53)"><use xlink:href="#STIXWEBMAIN-5B" id="use9194" x="0" y="0"/><g id="g9198" transform="translate(333)"><text id="text9196" stroke="none" direction="ltr" style="font-size:20.5px;font-family:baskerville" transform="scale(52.507 -52.507)">m</text></g><use xlink:href="#STIXWEBMAIN-5D" id="use9200" x="1197" y="0"/></g><use xlink:href="#STIXWEBNORMALI-1D453" id="use9206" x="0" y="0" style="fill:#000;stroke:none;stroke-width:.5" transform="matrix(.03427 0 0 -.03427 416.427 -2.916)"/><use xlink:href="#STIXWEBVARIANTS-2032" id="use9208" x="895" y="583" style="fill:#000;stroke:none;stroke-width:.5" transform="matrix(.02423 0 0 -.02423 416.427 -2.916)"/><path id="path9210" d="M108.434 34.152h159.579" class="axes" style="stroke:#000"/><path id="path9212" d="M263.587 28.62c0 2.213 3.32 5.532 4.426 5.532-1.107 0-4.426 3.318-4.426 5.53" class="axes-arrows"/><g id="g9218" style="stroke-width:1.11158" transform="matrix(.8997 0 0 .89955 1.552 -57.888)"><path id="path9214" d="M143.966.955c2.46 0 6.148-3.689 6.148-4.919 0 1.23 3.69 4.92 6.149 4.92" class="axes-arrows"/><path id="path9216" d="M150.114 117.635V-3.964" class="axes"/></g><g id="g9226" transform="matrix(.9 0 0 .9 62.572 -27.673)"><g id="g9222" class="axes-labels" style="stroke-width:.5" transform="matrix(.0381 0 0 -.0381 135.955 27.688)"><use xlink:href="#STIXWEBNORMALI-1D453" id="use9220" x="0" y="0" style="stroke-width:.5"/></g><circle id="ellipse9224" cx="148.876" cy="17.41" r="33.546" style="fill:none;stroke:red;stroke-width:3;stroke-dasharray:9,6;stroke-dashoffset:0"/></g><g id="g9240" style="stroke-width:1.11158" transform="matrix(.8997 0 0 .89955 108.023 -14.767)"><g id="g9232" style="stroke-width:1.11158" transform="translate(147.228 -120.619)"><path id="path9228" d="M113.208 175h177.37" class="axes"/><path id="path9230" d="M285.66 168.852c0 2.459 3.689 6.148 4.919 6.148-1.23 0-4.919 3.689-4.919 6.148" class="axes-arrows"/></g><g id="g9238" style="stroke-width:1.11158" transform="translate(141.637 -47.936)"><path id="path9234" d="M143.966.955c2.46 0 6.148-3.689 6.148-4.919 0 1.23 3.69 4.92 6.149 4.92" class="axes-arrows"/><path id="path9236" d="M150.114 117.635V-3.964" class="axes"/></g></g><circle id="ellipse9242" cx="430.462" cy="-12.004" r="30.191" style="fill:none;stroke:red;stroke-width:2.7;stroke-dasharray:8.1,5.4;stroke-dashoffset:0"/><path id="path9248" stroke-width=".019" d="M363.193-127.123c0 .552-.495 1.028-1.066 1.028-.59 0-1.047-.457-1.047-1.048 0-.59.476-1.066 1.066-1.066.552 0 1.047.514 1.047 1.086zm-6.34 0c0 .552-.495 1.028-1.066 1.028-.59 0-1.048-.457-1.048-1.048 0-.59.476-1.066 1.067-1.066.552 0 1.047.514 1.047 1.086zm-6.34 0c0 .552-.496 1.028-1.067 1.028-.59 0-1.047-.457-1.047-1.048 0-.59.476-1.066 1.066-1.066.552 0 1.047.514 1.047 1.086z" style="fill:#000;stroke:none"/><path id="path9252" d="m213.592 83.769 457.215 1.071" style="fill:#000;stroke:#000;stroke-width:3;stroke-dasharray:none"/><path id="path9254" d="m213.592 285.756 457.215 1.071" style="fill:#000;stroke:#000;stroke-width:3;stroke-dasharray:none"/><path id="path14211" d="M342.335 442.19h159.579" class="axes" style="stroke:#000"/><path id="path14213" d="M497.488 436.66c0 2.212 3.32 5.53 4.426 5.53-1.107 0-4.426 3.319-4.426 5.531" class="axes-arrows"/><g id="g31120" style="stroke-width:1.11158" transform="matrix(.8997 0 0 .89955 357.805 189.227)"><g id="g31112" style="stroke-width:1.11158" transform="translate(147.228 -120.619)"><path id="path31108" d="M113.208 175h177.37" class="axes"/><path id="path31110" d="M285.66 168.852c0 2.459 3.689 6.148 4.919 6.148-1.23 0-4.919 3.689-4.919 6.148" class="axes-arrows"/></g><g id="g31118" style="stroke-width:1.11158" transform="translate(141.637 -47.936)"><path id="path31114" d="M143.966.955c2.46 0 6.148-3.689 6.148-4.919 0 1.23 3.69 4.92 6.149 4.92" class="axes-arrows"/><path id="path31116" d="M150.114 117.635V-3.964" class="axes"/></g></g><circle id="ellipse31122" cx="680.244" cy="191.99" r="30.191" style="fill:none;stroke:red;stroke-width:2.7;stroke-dasharray:8.1,5.4;stroke-dashoffset:0"/><g id="g31168" style="stroke-width:1.11158" transform="matrix(.8997 0 0 .89955 357.805 -14.767)"><g id="g31160" style="stroke-width:1.11158" transform="translate(147.228 -120.619)"><path id="path31156" d="M113.208 175h177.37" class="axes"/><path id="path31158" d="M285.66 168.852c0 2.459 3.689 6.148 4.919 6.148-1.23 0-4.919 3.689-4.919 6.148" class="axes-arrows"/></g><g id="g31166" style="stroke-width:1.11158" transform="translate(141.637 -47.936)"><path id="path31162" d="M143.966.955c2.46 0 6.148-3.689 6.148-4.919 0 1.23 3.69 4.92 6.149 4.92" class="axes-arrows"/><path id="path31164" d="M150.114 117.635V-3.964" class="axes"/></g></g><circle id="ellipse31170" cx="680.244" cy="-12.004" r="30.191" style="fill:none;stroke:red;stroke-width:2.7;stroke-dasharray:8.1,5.4;stroke-dashoffset:0"/><use xlink:href="#STIXWEBVARIANTS-2032" id="use31234" x="895" y="583" style="fill:#000;stroke:none;stroke-width:.5" transform="matrix(.02423 0 0 -.02423 663.22 200.615)"/><use xlink:href="#STIXWEBVARIANTS-2032" id="use31236" x="895" y="583" style="fill:#000;stroke:none;stroke-width:.5" transform="matrix(.02423 0 0 -.02423 669.613 200.615)"/><use xlink:href="#STIXWEBNORMALI-1D453" id="use31238" x="0" y="0" style="fill:#000;stroke:none;stroke-width:.5" transform="matrix(.03427 0 0 -.03427 665.157 -2.916)"/><use xlink:href="#STIXWEBVARIANTS-2032" id="use31240" x="895" y="583" style="fill:#000;stroke:none;stroke-width:.5" transform="matrix(.02423 0 0 -.02423 665.157 -2.916)"/><use xlink:href="#STIXWEBVARIANTS-2032" id="use31242" x="895" y="583" style="fill:#000;stroke:none;stroke-width:.5" transform="matrix(.02423 0 0 -.02423 670.95 -2.916)"/><g id="g31812" transform="translate(1143.277)"><path id="path31810" stroke-width=".019" d="M528.888 242.6c0 .551-.495 1.027-1.066 1.027-.59 0-1.047-.457-1.047-1.047 0-.59.476-1.066 1.066-1.066.552 0 1.047.514 1.047 1.085zm-6.34 0c0 .551-.495 1.027-1.067 1.027-.59 0-1.047-.457-1.047-1.047 0-.59.476-1.066 1.066-1.066.553 0 1.048.514 1.048 1.085zm-6.34 0c0 .551-.496 1.027-1.067 1.027-.59 0-1.047-.457-1.047-1.047 0-.59.476-1.066 1.066-1.066.552 0 1.047.514 1.047 1.085z" style="fill:#000;stroke:none"/></g><g id="g31818" transform="translate(1143.277 -1.56)"><path id="path31816" stroke-width=".019" d="M377.782 132.762c0 .552-.495 1.028-1.067 1.028-.59 0-1.047-.457-1.047-1.047 0-.59.476-1.066 1.066-1.066.553 0 1.048.514 1.048 1.085zm-6.34 0c0 .552-.496 1.028-1.067 1.028-.59 0-1.047-.457-1.047-1.047 0-.59.476-1.066 1.066-1.066.552 0 1.047.514 1.047 1.085zm-6.341 0c0 .552-.495 1.028-1.067 1.028-.59 0-1.047-.457-1.047-1.047 0-.59.476-1.066 1.066-1.066.553 0 1.048.514 1.048 1.085z" style="fill:#000;stroke:none"/></g><g id="g31824" transform="translate(1167.359)"><path id="path31822" stroke-width=".019" d="M528.888 38.605c0 .552-.495 1.028-1.066 1.028-.59 0-1.047-.457-1.047-1.047 0-.59.476-1.067 1.066-1.067.552 0 1.047.515 1.047 1.086zm-6.34 0c0 .552-.495 1.028-1.067 1.028-.59 0-1.047-.457-1.047-1.047 0-.59.476-1.067 1.066-1.067.553 0 1.048.515 1.048 1.086zm-6.34 0c0 .552-.496 1.028-1.067 1.028-.59 0-1.047-.457-1.047-1.047 0-.59.476-1.067 1.066-1.067.552 0 1.047.515 1.047 1.086z" style="fill:#000;stroke:none"/></g><g id="g31830" transform="translate(250.266 -112.952)"><path id="path31828" stroke-width=".019" d="M377.782-71.232c0 .552-.495 1.028-1.067 1.028-.59 0-1.047-.457-1.047-1.047 0-.59.476-1.066 1.066-1.066.553 0 1.048.514 1.048 1.085zm-6.34 0c0 .552-.496 1.028-1.067 1.028-.59 0-1.047-.457-1.047-1.047 0-.59.476-1.066 1.066-1.066.552 0 1.047.514 1.047 1.085zm-6.341 0c0 .552-.495 1.028-1.067 1.028-.59 0-1.047-.457-1.047-1.047 0-.59.476-1.066 1.066-1.066.553 0 1.048.514 1.048 1.085z" style="fill:#000;stroke:none"/></g><g id="g35702" class="axes-labels" transform="matrix(.01904 0 0 -.01904 508.765 38.048)"><use xlink:href="#STIXWEBMAIN-5B" id="use35694" x="0" y="0"/><g id="g35698" transform="translate(333)"><text id="text35696" stroke="none" direction="ltr" style="font-size:20.5px;font-family:baskerville" transform="scale(52.507 -52.507)">s</text></g><use xlink:href="#STIXWEBMAIN-5D" id="use35700" x="692" y="0"/></g><g id="g35712" class="axes-labels" transform="matrix(.01904 0 0 -.01904 758.59 38.048)"><use xlink:href="#STIXWEBMAIN-5B" id="use35704" x="0" y="0"/><g id="g35708" transform="translate(333)"><text id="text35706" stroke="none" direction="ltr" style="font-size:20.5px;font-family:baskerville" transform="scale(52.507 -52.507)">s</text></g><use xlink:href="#STIXWEBMAIN-5D" id="use35710" x="692" y="0"/></g><use xlink:href="#STIXWEBMAIN-5B" id="use39062" x="0" y="0" style="fill:#000;stroke:none" transform="matrix(.01904 0 0 -.01904 349.465 131.935)"/><g id="g39066" style="fill:#000;stroke:none" transform="matrix(.01904 0 0 -.01904 368.75 131.935)"><text id="text39064" stroke="none" direction="ltr" style="font-size:20.5px;font-family:baskerville" transform="scale(52.507 -52.507)">m</text></g><use xlink:href="#STIXWEBMAIN-2F" id="use39068" x="1197" y="0" style="fill:#000;stroke:none" transform="matrix(.01904 0 0 -.01904 341.089 131.935)"/><g id="g39072" style="fill:#000;stroke:none" transform="matrix(.01904 0 0 -.01904 356.533 131.935)"><text id="text39070" stroke="none" direction="ltr" style="font-size:20.5px;font-family:baskerville" transform="scale(52.507 -52.507)">s</text></g><use xlink:href="#STIXWEBMAIN-5D" id="use39074" x="1835" y="0" style="fill:#000;stroke:none" transform="matrix(.01904 0 0 -.01904 349.465 131.935)"/><use xlink:href="#STIXWEBMAIN-5B" id="use40221" x="0" y="0" style="fill:#000;stroke:none" transform="matrix(.01904 0 0 -.01904 596.779 131.935)"/><g id="g40225" style="fill:#000;stroke:none" transform="matrix(.01904 0 0 -.01904 615.454 131.935)"><text id="text40223" stroke="none" direction="ltr" style="font-size:20.5px;font-family:baskerville" transform="scale(52.507 -52.507)">m</text></g><use xlink:href="#STIXWEBMAIN-2F" id="use40227" x="1197" y="0" style="fill:#000;stroke:none" transform="matrix(.01904 0 0 -.01904 587.794 131.935)"/><g id="g40231" style="fill:#000;stroke:none" transform="matrix(.01904 0 0 -.01904 603.238 131.935)"><text id="text40229" stroke="none" direction="ltr" style="font-size:20.5px;font-family:baskerville" transform="scale(52.507 -52.507)">s</text></g><use xlink:href="#STIXWEBMAIN-5D" id="use40233" x="1835" y="0" style="fill:#000;stroke:none" transform="matrix(.01904 0 0 -.01904 602.566 131.935)"/><use xlink:href="#STIXWEBMAIN-32" id="use40235" x="508" y="987" style="fill:#000;stroke:none" transform="matrix(.01346 0 0 -.01346 624.636 139.402)"/><g id="g40245" class="axes-labels" transform="matrix(.01904 0 0 -.01904 504.803 241.926)"><use xlink:href="#STIXWEBMAIN-5B" id="use40237" x="0" y="0"/><g id="g40241" transform="translate(333)"><text id="text40239" stroke="none" direction="ltr" style="font-size:20.5px;font-family:baskerville" transform="scale(52.507 -52.507)">m</text></g><use xlink:href="#STIXWEBMAIN-5D" id="use40243" x="1197" y="0"/></g><g id="g40255" class="axes-labels" transform="matrix(.01904 0 0 -.01904 754.554 241.926)"><use xlink:href="#STIXWEBMAIN-5B" id="use40247" x="0" y="0"/><g id="g40251" transform="translate(333)"><text id="text40249" stroke="none" direction="ltr" style="font-size:20.5px;font-family:baskerville" transform="scale(52.507 -52.507)">m</text></g><use xlink:href="#STIXWEBMAIN-5D" id="use40253" x="1197" y="0"/></g><g id="g40850" class="axes-labels" transform="matrix(.01904 0 0 -.01904 510.53 446.192)"><use xlink:href="#STIXWEBMAIN-5B" id="use40842" x="0" y="0"/><g id="g40846" transform="translate(333)"><text id="text40844" stroke="none" direction="ltr" style="font-size:20.5px;font-family:baskerville" transform="scale(52.507 -52.507)">hr</text></g><use xlink:href="#STIXWEBMAIN-5D" id="use40848" x="1298" y="0"/></g><g id="g40860" class="axes-labels" transform="matrix(.01904 0 0 -.01904 276.616 446.192)"><use xlink:href="#STIXWEBMAIN-5B" id="use40852" x="0" y="0"/><g id="g40856" transform="translate(333)"><text id="text40854" stroke="none" direction="ltr" style="font-size:20.5px;font-family:baskerville" transform="scale(52.507 -52.507)">hr</text></g><use xlink:href="#STIXWEBMAIN-5D" id="use40858" x="1298" y="0"/></g><use xlink:href="#STIXWEBMAIN-5B" id="use40871" x="0" y="0" style="fill:#000;stroke:none" transform="matrix(.01904 0 0 -.01904 338.042 337.806)"/><g id="g40875" style="fill:#000;stroke:none" transform="matrix(.01904 0 0 -.01904 344.382 337.806)"><text id="text40873" stroke="none" direction="ltr" style="font-size:20.5px;font-family:baskerville" transform="scale(52.507 -52.507)">km</text></g><use xlink:href="#STIXWEBMAIN-2F" id="use40877" x="1690" y="0" style="fill:#000;stroke:none" transform="matrix(.01904 0 0 -.01904 338.042 337.806)"/><text id="text40879" x="375.533" y="337.806" stroke="none" direction="ltr" style="font-size:20.4955px;font-family:baskerville;fill:#000;stroke-width:.999781">hr</text><use xlink:href="#STIXWEBMAIN-5D" id="use40883" x="3388" y="0" style="fill:#000;stroke:none" transform="matrix(.01904 0 0 -.01904 337.146 337.806)"/><use xlink:href="#STIXWEBMAIN-5B" id="use40887" x="0" y="0" style="fill:#000;stroke:none" transform="matrix(.01904 0 0 -.01904 105.956 337.806)"/><g id="g40891" style="fill:#000;stroke:none" transform="matrix(.01904 0 0 -.01904 112.297 337.806)"><text id="text40889" stroke="none" direction="ltr" style="font-size:20.5px;font-family:baskerville" transform="scale(52.507 -52.507)">km</text></g><use xlink:href="#STIXWEBMAIN-2F" id="use40893" x="1690" y="0" style="fill:#000;stroke:none" transform="matrix(.01904 0 0 -.01904 105.956 337.806)"/><text id="text40895" x="143.448" y="337.806" stroke="none" direction="ltr" style="font-size:20.4955px;font-family:baskerville;fill:#000;stroke-width:.999781">hr</text><use xlink:href="#STIXWEBMAIN-5D" id="use40899" x="3388" y="0" style="fill:#000;stroke:none" transform="matrix(.01904 0 0 -.01904 97.446 337.806)"/><use xlink:href="#STIXWEBMAIN-32" id="use40919" x="508" y="987" style="fill:#000;stroke:none" transform="matrix(.01346 0 0 -.01346 387.981 345.142)"/><g id="g150175" style="fill:#b8b8de;stroke:none" transform="matrix(.01903 0 0 -.01903 -172.444 720.52)"><use xlink:href="#STIXWEBMAIN-36" id="use150173" x="0" y="0"/></g><g id="g159896" style="stroke-width:1.11158" transform="matrix(.8997 0 0 .89955 -28.629 488.846)"><path id="path159892" d="M113.208 175h177.37" class="axes" style="stroke:#000;stroke-width:.9"/><path id="path159894" d="M285.66 168.852c0 2.459 3.689 6.148 4.919 6.148-1.23 0-4.919 3.689-4.919 6.148" class="axes-arrows" style="fill:none;stroke:#000;stroke-width:1.21;stroke-linecap:round;stroke-linejoin:round"/></g><g id="g159902" style="stroke-width:1.11158" transform="matrix(.8997 0 0 .89955 -33.659 554.227)"><path id="path159898" d="M143.966.955c2.46 0 6.148-3.689 6.148-4.919 0 1.23 3.69 4.92 6.149 4.92" class="axes-arrows" style="fill:none;stroke:#000;stroke-width:1.21;stroke-linecap:round;stroke-linejoin:round"/><path id="path159900" d="M150.114 117.635V-3.964" class="axes" style="stroke:#000;stroke-width:.9"/></g><circle id="ellipse159910" cx="161.35" cy="600.11" r="30.191" style="fill:none;stroke:red;stroke-width:2.7;stroke-dasharray:8.1,5.4;stroke-dashoffset:0"/><g id="g159926" style="stroke-width:1.11158" transform="matrix(.8997 0 0 .89955 108.121 597.348)"><g id="g159918" style="stroke-width:1.11158" transform="translate(147.228 -120.619)"><path id="path159914" d="M113.208 175h177.37" class="axes" style="stroke:#000;stroke-width:.9"/><path id="path159916" d="M285.66 168.852c0 2.459 3.689 6.148 4.919 6.148-1.23 0-4.919 3.689-4.919 6.148" class="axes-arrows" style="fill:none;stroke:#000;stroke-width:1.21;stroke-linecap:round;stroke-linejoin:round"/></g><g id="g159924" style="stroke-width:1.11158" transform="translate(141.637 -47.936)"><path id="path159920" d="M143.966.955c2.46 0 6.148-3.689 6.148-4.919 0 1.23 3.69 4.92 6.149 4.92" class="axes-arrows" style="fill:none;stroke:#000;stroke-width:1.21;stroke-linecap:round;stroke-linejoin:round"/><path id="path159922" d="M150.114 117.635V-3.964" class="axes" style="stroke:#000;stroke-width:.9"/></g></g><circle id="ellipse159928" cx="430.56" cy="600.11" r="30.191" style="fill:none;stroke:red;stroke-width:2.7;stroke-dasharray:8.1,5.4;stroke-dashoffset:0"/><g id="g159942" style="stroke-width:1.11158" transform="matrix(.8997 0 0 .89955 385.121 597.348)"><g id="g159934" style="stroke-width:1.11158" transform="translate(147.228 -120.619)"><path id="path159930" d="M113.208 175h177.37" class="axes" style="stroke:#000;stroke-width:.9"/><path id="path159932" d="M285.66 168.852c0 2.459 3.689 6.148 4.919 6.148-1.23 0-4.919 3.689-4.919 6.148" class="axes-arrows" style="fill:none;stroke:#000;stroke-width:1.21;stroke-linecap:round;stroke-linejoin:round"/></g><g id="g159940" style="stroke-width:1.11158" transform="translate(141.637 -47.936)"><path id="path159936" d="M143.966.955c2.46 0 6.148-3.689 6.148-4.919 0 1.23 3.69 4.92 6.149 4.92" class="axes-arrows" style="fill:none;stroke:#000;stroke-width:1.21;stroke-linecap:round;stroke-linejoin:round"/><path id="path159938" d="M150.114 117.635V-3.964" class="axes" style="stroke:#000;stroke-width:.9"/></g></g><circle id="ellipse159944" cx="707.56" cy="600.11" r="30.191" style="fill:none;stroke:red;stroke-width:2.7;stroke-dasharray:8.1,5.4;stroke-dashoffset:0"/><g id="g166084" transform="translate(-98.905 815.796)"><g id="text165730" aria-label="$" style="font-size:25px;font-family:Hel;-inkscape-font-specification:Hel;stroke:#000;stroke-width:.139922;stroke-dasharray:.419767,.279844;stroke-dashoffset:0;stroke-opacity:1" transform="matrix(.746 0 0 .68469 15.452 -86.481)"><path id="path165782" d="M246.645-272.816q-1.306-.317-2.198-1.123-.903-.83-.903-1.526 0-.39.208-.622.22-.232.5-.232.61 0 .806.89.354 1.466 1.587 1.978v-7.873q-2.942-1.319-2.942-4.016 0-1.343.793-2.356.794-.99 2.149-1.416v-.843h.525v.708q.598-.11 1.27-.11.524 0 1.147.11v-.708h.525v.843q1.416.403 2.209 1.306.806.903.806 1.66 0 .39-.22.623-.22.22-.476.22-.366 0-.562-.257-.207-.28-.366-1.11-.256-1.356-1.391-1.808v6.739q3.38 1.391 3.38 4.419 0 1.416-.841 2.636-.83 1.209-2.54 1.746v2.454h-.524v-2.332q-.794.17-1.49.17-.476.001-.927-.072v2.234h-.525zm.525-10.156 2.417 1.025v-6.762q-.623-.16-1.294-.16-.647 0-1.123.16zm-.525-5.628q-1.831.867-1.831 2.76 0 1.696 1.83 2.611zm.525 7.508v7.8q.476.122 1.062.122.732 0 1.355-.195v-6.665zm2.942 7.483q2.148-.94 2.148-3.223 0-2.026-2.148-2.966z" style="font-family:Baskerville;-inkscape-font-specification:Baskerville;stroke:#000;stroke-width:.139922;stroke-dasharray:.419767,.279844;stroke-dashoffset:0;stroke-opacity:1"/></g><use xlink:href="#STIXWEBMAIN-5B" id="use165785" x="0" y="0" style="fill:#000;stroke:none" transform="matrix(.01904 0 0 -.01904 188.976 -273.833)"/><use xlink:href="#STIXWEBMAIN-5D" id="use165791" x="692" y="0" style="fill:#000;stroke:none" transform="matrix(.01904 0 0 -.01904 192.855 -273.833)"/></g><g id="g49512" transform="translate(27.316 .077)"><g id="g170267" style="fill:#000;stroke:none" transform="matrix(.01904 0 0 -.01904 582.97 541.885)"><text id="text170265" stroke="none" direction="ltr" style="font-size:20.5px;font-family:baskerville;fill:#000" transform="scale(52.507 -52.507)">customer</text></g><use xlink:href="#STIXWEBMAIN-5D" id="use170269" x="4292" y="0" style="fill:#000;stroke:none" transform="matrix(.01904 0 0 -.01904 585.27 541.885)"/><path id="path168118" d="M572.61 542.444q-.975-.217-1.64-.769-.673-.568-.673-1.044 0-.268.154-.427.164-.158.374-.158.455 0 .6.61.265 1.003 1.185 1.354v-5.391q-2.195-.903-2.195-2.75 0-.92.592-1.613.592-.677 1.603-.97v-.576H573v.485q.446-.076.947-.076.392 0 .856.076v-.485h.392v.576q1.056.276 1.648.895.601.618.601 1.136 0 .268-.164.427-.164.15-.355.15-.273 0-.419-.175-.155-.193-.273-.76-.191-.929-1.038-1.238v4.614q2.522.953 2.522 3.025 0 .97-.628 1.806-.62.827-1.894 1.195v1.68h-.392v-1.597q-.592.117-1.11.117-.356 0-.693-.05v1.53h-.391zm.391-6.953 1.803.702v-4.63q-.464-.11-.965-.11-.483 0-.838.11zm-.391-3.853q-1.366.593-1.366 1.888 0 1.162 1.366 1.789zm.391 5.14v5.34q.355.084.792.084.547 0 1.011-.134v-4.563zm2.195 5.123q1.603-.643 1.603-2.206 0-1.388-1.603-2.031z" style="font-size:25px;font-family:Baskerville;-inkscape-font-specification:Baskerville;stroke:#000;stroke-width:.1;stroke-dasharray:.300002,.200001;stroke-dashoffset:0;stroke-opacity:1"/><use xlink:href="#STIXWEBMAIN-5B" id="use168122" x="0" y="0" style="fill:#000;stroke:none" transform="matrix(.01904 0 0 -.01904 562.137 541.886)"/><use xlink:href="#STIXWEBMAIN-2F" id="use170283" x="1197" y="0" style="fill:#000;stroke:none" transform="matrix(.01904 0 0 -.01904 555.857 541.949)"/><use xlink:href="#STIXWEBMAIN-32" id="use176876" x="508" y="987" style="fill:#000;stroke:none" transform="matrix(.01346 0 0 -.01346 652.999 549.58)"/></g><g id="g171314" style="stroke:#f0f;stroke-width:1.11158" transform="matrix(.8997 0 0 .89955 6.68 692.844)"><path id="path171310" d="M113.208 175h177.37" class="axes" style="stroke:#f0f;stroke-width:.9"/><path id="path171312" d="M285.66 168.852c0 2.459 3.689 6.148 4.919 6.148-1.23 0-4.919 3.689-4.919 6.148" class="axes-arrows" style="fill:none;stroke:#f0f;stroke-width:1.21;stroke-linecap:round;stroke-linejoin:round"/></g><g id="g171336" style="stroke-width:1.11158" transform="matrix(.8997 0 0 .89955 6.68 692.844)"><path id="path171332" d="M113.208 175h177.37" class="axes" style="stroke:#000;stroke-width:.9"/><path id="path171334" d="M285.66 168.852c0 2.459 3.689 6.148 4.919 6.148-1.23 0-4.919 3.689-4.919 6.148" class="axes-arrows" style="fill:none;stroke:#000;stroke-width:1.21;stroke-linecap:round;stroke-linejoin:round"/></g><g id="g171342" style="stroke-width:1.11158" transform="matrix(.8997 0 0 .89955 1.65 758.225)"><path id="path171338" d="M143.966.955c2.46 0 6.148-3.689 6.148-4.919 0 1.23 3.69 4.92 6.149 4.92" class="axes-arrows" style="fill:none;stroke:#000;stroke-width:1.21;stroke-linecap:round;stroke-linejoin:round"/><path id="path171340" d="M150.114 117.635V-3.964" class="axes" style="stroke:#000;stroke-width:.9"/></g><circle id="ellipse171344" cx="196.659" cy="804.109" r="30.191" style="fill:none;stroke:red;stroke-width:2.7;stroke-dasharray:8.1,5.4;stroke-dashoffset:0"/><g id="g171358" style="stroke-width:1.11158" transform="matrix(.8997 0 0 .89955 108.121 801.347)"><g id="g171350" style="stroke-width:1.11158" transform="translate(147.228 -120.619)"><path id="path171346" d="M113.208 175h177.37" class="axes" style="stroke:#000;stroke-width:.9"/><path id="path171348" d="M285.66 168.852c0 2.459 3.689 6.148 4.919 6.148-1.23 0-4.919 3.689-4.919 6.148" class="axes-arrows" style="fill:none;stroke:#000;stroke-width:1.21;stroke-linecap:round;stroke-linejoin:round"/></g><g id="g171356" style="stroke-width:1.11158" transform="translate(141.637 -47.936)"><path id="path171352" d="M143.966.955c2.46 0 6.148-3.689 6.148-4.919 0 1.23 3.69 4.92 6.149 4.92" class="axes-arrows" style="fill:none;stroke:#000;stroke-width:1.21;stroke-linecap:round;stroke-linejoin:round"/><path id="path171354" d="M150.114 117.635V-3.964" class="axes" style="stroke:#000;stroke-width:.9"/></g></g><circle id="ellipse171360" cx="430.56" cy="804.109" r="30.191" style="fill:none;stroke:red;stroke-width:2.7;stroke-dasharray:8.1,5.4;stroke-dashoffset:0"/><g id="g171374" style="stroke-width:1.11158" transform="matrix(.8997 0 0 .89955 357.904 801.347)"><g id="g171366" style="stroke-width:1.11158" transform="translate(147.228 -120.619)"><path id="path171362" d="M113.208 175h177.37" class="axes" style="stroke:#000;stroke-width:.9"/><path id="path171364" d="M285.66 168.852c0 2.459 3.689 6.148 4.919 6.148-1.23 0-4.919 3.689-4.919 6.148" class="axes-arrows" style="fill:none;stroke:#000;stroke-width:1.21;stroke-linecap:round;stroke-linejoin:round"/></g><g id="g171372" style="stroke-width:1.11158" transform="translate(141.637 -47.936)"><path id="path171368" d="M143.966.955c2.46 0 6.148-3.689 6.148-4.919 0 1.23 3.69 4.92 6.149 4.92" class="axes-arrows" style="fill:none;stroke:#000;stroke-width:1.21;stroke-linecap:round;stroke-linejoin:round"/><path id="path171370" d="M150.114 117.635V-3.964" class="axes" style="stroke:#000;stroke-width:.9"/></g></g><circle id="ellipse171376" cx="680.343" cy="804.109" r="30.191" style="fill:none;stroke:red;stroke-width:2.7;stroke-dasharray:8.1,5.4;stroke-dashoffset:0"/><g id="g179489" transform="translate(.695 512.435)"><use xlink:href="#STIXWEBMAIN-5B" id="use177971" x="0" y="0" style="fill:#000;stroke:none" transform="matrix(.01904 0 0 -.01904 105.867 233.465)"/><g id="g177975" style="fill:#000;stroke:none" transform="matrix(.01904 0 0 -.01904 112.207 233.465)"><text id="text177973" stroke="none" direction="ltr" style="font-size:20.5px;font-family:baskerville" transform="scale(52.507 -52.507)">kw</text></g><use xlink:href="#STIXWEBMAIN-22C5" id="use177977" x="1778" y="0" style="fill:#000;stroke:none" transform="matrix(.01904 0 0 -.01904 102.28 233.465)"/><g id="g177981" style="fill:#000;stroke:none" transform="matrix(.01904 0 0 -.01904 142.026 233.465)"><text id="text177979" stroke="none" direction="ltr" style="font-size:20.5px;font-family:baskerville" transform="scale(52.507 -52.507)">hr</text></g><use xlink:href="#STIXWEBMAIN-5D" id="use177991" x="5821" y="0" style="fill:#000;stroke:none" transform="matrix(.01904 0 0 -.01904 49.52 233.465)"/></g><use xlink:href="#STIXWEBMAIN-5B" id="use179086" x="0" y="0" style="fill:#000;stroke:none" transform="matrix(.01904 0 0 -.01904 590.727 745.972)"/><g id="g179090" style="fill:#000;stroke:none" transform="matrix(.01904 0 0 -.01904 597.068 745.972)"><text id="text179088" stroke="none" direction="ltr" style="font-size:20.5px;font-family:baskerville" transform="scale(52.507 -52.507)">kw</text></g><g id="g179096" style="fill:#000;stroke:none" transform="matrix(.01904 0 0 -.01904 626.696 745.972)"><text id="text179094" stroke="none" direction="ltr" style="font-size:20.5px;font-family:baskerville" transform="scale(52.507 -52.507)">hr</text></g><use xlink:href="#STIXWEBMAIN-2F" id="use179098" x="3252" y="0" style="fill:#000;stroke:none" transform="matrix(.01904 0 0 -.01904 559.158 745.972)"/><use xlink:href="#STIXWEBMAIN-5D" id="use179106" x="5821" y="0" style="fill:#000;stroke:none" transform="matrix(.01904 0 0 -.01904 533.609 745.972)"/><g id="g181867" style="stroke-width:1.11158" transform="matrix(.8997 0 0 .89955 6.68 896.843)"><path id="path181863" d="M113.208 175h177.37" class="axes" style="stroke:#000;stroke-width:.9"/><path id="path181865" d="M285.66 168.852c0 2.459 3.689 6.148 4.919 6.148-1.23 0-4.919 3.689-4.919 6.148" class="axes-arrows" style="fill:none;stroke:#000;stroke-width:1.21;stroke-linecap:round;stroke-linejoin:round"/></g><g id="g181873" style="stroke-width:1.11158" transform="matrix(.8997 0 0 .89955 1.65 962.224)"><path id="path181869" d="M143.966.955c2.46 0 6.148-3.689 6.148-4.919 0 1.23 3.69 4.92 6.149 4.92" class="axes-arrows" style="fill:none;stroke:#000;stroke-width:1.21;stroke-linecap:round;stroke-linejoin:round"/><path id="path181871" d="M150.114 117.635V-3.964" class="axes" style="stroke:#000;stroke-width:.9"/></g><circle id="ellipse181875" cx="196.659" cy="1008.108" r="30.191" style="fill:none;stroke:red;stroke-width:2.7;stroke-dasharray:8.1,5.4;stroke-dashoffset:0"/><g id="g181889" style="stroke-width:1.11158" transform="matrix(.8997 0 0 .89955 108.121 1005.346)"><g id="g181881" style="stroke-width:1.11158" transform="translate(147.228 -120.619)"><path id="path181877" d="M113.208 175h177.37" class="axes" style="stroke:#000;stroke-width:.9"/><path id="path181879" d="M285.66 168.852c0 2.459 3.689 6.148 4.919 6.148-1.23 0-4.919 3.689-4.919 6.148" class="axes-arrows" style="fill:none;stroke:#000;stroke-width:1.21;stroke-linecap:round;stroke-linejoin:round"/></g><g id="g181887" style="stroke-width:1.11158" transform="translate(141.637 -47.936)"><path id="path181883" d="M143.966.955c2.46 0 6.148-3.689 6.148-4.919 0 1.23 3.69 4.92 6.149 4.92" class="axes-arrows" style="fill:none;stroke:#000;stroke-width:1.21;stroke-linecap:round;stroke-linejoin:round"/><path id="path181885" d="M150.114 117.635V-3.964" class="axes" style="stroke:#000;stroke-width:.9"/></g></g><circle id="ellipse181891" cx="430.56" cy="1008.108" r="30.191" style="fill:none;stroke:red;stroke-width:2.7;stroke-dasharray:8.1,5.4;stroke-dashoffset:0"/><g id="g181905" style="stroke-width:1.11158" transform="matrix(.8997 0 0 .89955 357.904 1005.346)"><g id="g181897" style="stroke-width:1.11158" transform="translate(147.228 -120.619)"><path id="path181893" d="M113.208 175h177.37" class="axes" style="stroke:#000;stroke-width:.9"/><path id="path181895" d="M285.66 168.852c0 2.459 3.689 6.148 4.919 6.148-1.23 0-4.919 3.689-4.919 6.148" class="axes-arrows" style="fill:none;stroke:#000;stroke-width:1.21;stroke-linecap:round;stroke-linejoin:round"/></g><g id="g181903" style="stroke-width:1.11158" transform="translate(141.637 -47.936)"><path id="path181899" d="M143.966.955c2.46 0 6.148-3.689 6.148-4.919 0 1.23 3.69 4.92 6.149 4.92" class="axes-arrows" style="fill:none;stroke:#000;stroke-width:1.21;stroke-linecap:round;stroke-linejoin:round"/><path id="path181901" d="M150.114 117.635V-3.964" class="axes" style="stroke:#000;stroke-width:.9"/></g></g><circle id="ellipse181907" cx="680.343" cy="1008.108" r="30.191" style="fill:none;stroke:red;stroke-width:2.7;stroke-dasharray:8.1,5.4;stroke-dashoffset:0"/><g id="g181941" transform="translate(-63.596 1223.794)"><g id="g181935" aria-label="$" style="font-size:25px;font-family:Hel;-inkscape-font-specification:Hel;stroke:#000;stroke-width:.139922;stroke-dasharray:.419767,.279844;stroke-dashoffset:0;stroke-opacity:1" transform="matrix(.746 0 0 .68469 15.452 -86.481)"><path id="path181933" d="M246.645-272.816q-1.306-.317-2.198-1.123-.903-.83-.903-1.526 0-.39.208-.622.22-.232.5-.232.61 0 .806.89.354 1.466 1.587 1.978v-7.873q-2.942-1.319-2.942-4.016 0-1.343.793-2.356.794-.99 2.149-1.416v-.843h.525v.708q.598-.11 1.27-.11.524 0 1.147.11v-.708h.525v.843q1.416.403 2.209 1.306.806.903.806 1.66 0 .39-.22.623-.22.22-.476.22-.366 0-.562-.257-.207-.28-.366-1.11-.256-1.356-1.391-1.808v6.739q3.38 1.391 3.38 4.419 0 1.416-.841 2.636-.83 1.209-2.54 1.746v2.454h-.524v-2.332q-.794.17-1.49.17-.476.001-.927-.072v2.234h-.525zm.525-10.156 2.417 1.025v-6.762q-.623-.16-1.294-.16-.647 0-1.123.16zm-.525-5.628q-1.831.867-1.831 2.76 0 1.696 1.83 2.611zm.525 7.508v7.8q.476.122 1.062.122.732 0 1.355-.195v-6.665zm2.942 7.483q2.148-.94 2.148-3.223 0-2.026-2.148-2.966z" style="font-family:Baskerville;-inkscape-font-specification:Baskerville;stroke:#000;stroke-width:.139922;stroke-dasharray:.419767,.279844;stroke-dashoffset:0;stroke-opacity:1"/></g><use xlink:href="#STIXWEBMAIN-5B" id="use181937" x="0" y="0" style="fill:#000;stroke:none" transform="matrix(.01904 0 0 -.01904 188.976 -273.833)"/><use xlink:href="#STIXWEBMAIN-5D" id="use181939" x="692" y="0" style="fill:#000;stroke:none" transform="matrix(.01904 0 0 -.01904 192.855 -273.833)"/></g><g id="g181971" transform="translate(85.38 1332.819)"><g id="g181965" aria-label="$" style="font-size:25px;font-family:Hel;-inkscape-font-specification:Hel;stroke:#000;stroke-width:.139922;stroke-dasharray:.419767,.279844;stroke-dashoffset:0;stroke-opacity:1" transform="matrix(.746 0 0 .68469 15.452 -86.481)"><path id="path181963" d="M246.645-272.816q-1.306-.317-2.198-1.123-.903-.83-.903-1.526 0-.39.208-.622.22-.232.5-.232.61 0 .806.89.354 1.466 1.587 1.978v-7.873q-2.942-1.319-2.942-4.016 0-1.343.793-2.356.794-.99 2.149-1.416v-.843h.525v.708q.598-.11 1.27-.11.524 0 1.147.11v-.708h.525v.843q1.416.403 2.209 1.306.806.903.806 1.66 0 .39-.22.623-.22.22-.476.22-.366 0-.562-.257-.207-.28-.366-1.11-.256-1.356-1.391-1.808v6.739q3.38 1.391 3.38 4.419 0 1.416-.841 2.636-.83 1.209-2.54 1.746v2.454h-.524v-2.332q-.794.17-1.49.17-.476.001-.927-.072v2.234h-.525zm.525-10.156 2.417 1.025v-6.762q-.623-.16-1.294-.16-.647 0-1.123.16zm-.525-5.628q-1.831.867-1.831 2.76 0 1.696 1.83 2.611zm.525 7.508v7.8q.476.122 1.062.122.732 0 1.355-.195v-6.665zm2.942 7.483q2.148-.94 2.148-3.223 0-2.026-2.148-2.966z" style="font-family:Baskerville;-inkscape-font-specification:Baskerville;stroke:#000;stroke-width:.139922;stroke-dasharray:.419767,.279844;stroke-dashoffset:0;stroke-opacity:1"/></g><use xlink:href="#STIXWEBMAIN-5B" id="use181967" x="0" y="0" style="fill:#000;stroke:none" transform="matrix(.01904 0 0 -.01904 188.976 -273.833)"/><use xlink:href="#STIXWEBMAIN-5D" id="use181969" x="692" y="0" style="fill:#000;stroke:none" transform="matrix(.01904 0 0 -.01904 192.855 -273.833)"/></g><path id="path3778" d="m213.69 900.582 457.216 1.071" style="fill:#000;stroke:#000;stroke-width:3;stroke-dasharray:none"/><g id="g28118" class="axes-labels" style="fill:#000;stroke:none" transform="matrix(.03425 0 0 -.03425 156.406 612.314)"><path id="use28116" stroke-width="1" d="M257 566c0-26-22-46-48-46-29 0-48 20-48 46 0 25 19 50 48 50 26 0 48-25 48-50zm-30-125L135 77c-1-6-1-10-1-14 0-7 6-10 13-10 22 0 28 12 64 51l13-10C189 49 139-11 90-11 62-11 50 8 50 35c0 12 0 31 79 338 1 2 2 9 2 12 0 17-8 22-31 22-9 0-21-2-28-4l-3 16z"/></g><g id="g28124" class="axes-labels" style="fill:#000;stroke:none" transform="matrix(.03427 0 0 -.03427 425.03 612.428)"><path id="use28120" stroke-width="1" d="M257 566c0-26-22-46-48-46-29 0-48 20-48 46 0 25 19 50 48 50 26 0 48-25 48-50zm-30-125L135 77c-1-6-1-10-1-14 0-7 6-10 13-10 22 0 28 12 64 51l13-10C189 49 139-11 90-11 62-11 50 8 50 35c0 12 0 31 79 338 1 2 2 9 2 12 0 17-8 22-31 22-9 0-21-2-28-4l-3 16z"/><use xlink:href="#STIXWEBVARIANTS-2032" id="use28122" x="440" y="583" transform="scale(.707)"/></g><g id="g28130" class="axes-labels" style="fill:#000;stroke:none" transform="matrix(.03427 0 0 -.03427 702.49 612.427)"><path id="use28126" stroke-width="1" d="M257 566c0-26-22-46-48-46-29 0-48 20-48 46 0 25 19 50 48 50 26 0 48-25 48-50zm-30-125L135 77c-1-6-1-10-1-14 0-7 6-10 13-10 22 0 28 12 64 51l13-10C189 49 139-11 90-11 62-11 50 8 50 35c0 12 0 31 79 338 1 2 2 9 2 12 0 17-8 22-31 22-9 0-21-2-28-4l-3 16z"/><path id="use28128" stroke-width=".707" d="m553.581 431.977-24.038 8.484c18.382 86.961 61.509 281.386 74.235 322.392 11.312 36.057 34.643 48.783 55.853 48.783 25.452 0 48.076-15.554 48.076-50.197 0-7.777-4.242-24.745-7.777-33.229-14.847-40.299-103.222-216.342-146.349-296.233Zm-188.769 0-23.331 8.484c18.382 86.961 63.63 281.386 75.649 322.392 10.605 36.057 33.229 48.783 54.439 48.783 25.452 0 48.076-15.554 48.076-50.197 0-7.777-4.242-24.745-7.777-33.229-15.554-40.299-103.222-216.342-147.056-296.233Z"/></g><g id="g28134" class="axes-labels" style="fill:#000;stroke:none" transform="matrix(.03429 0 0 -.03429 190.765 813.83)"><path id="use28132" stroke-width="1" d="M372 566c0-26-22-46-48-46-29 0-48 20-48 46 0 25 19 50 48 50 26 0 48-25 48-50zm-21-125L243 16c-22-88-78-203-186-203-53 0-73 33-73 61 0 22 12 52 47 52 19 0 35-15 35-38 0-15-16-18-16-34 0-4 5-10 10-10 46 0 79 76 103 172l92 363c0 12-10 22-32 22-8 0-20-2-27-5l-3 17z"/></g><g id="g28140" class="axes-labels" style="fill:#000;stroke:none" transform="matrix(.03427 0 0 -.03427 424.37 814.214)"><path id="use28136" stroke-width="1" d="M372 566c0-26-22-46-48-46-29 0-48 20-48 46 0 25 19 50 48 50 26 0 48-25 48-50zm-21-125L243 16c-22-88-78-203-186-203-53 0-73 33-73 61 0 22 12 52 47 52 19 0 35-15 35-38 0-15-16-18-16-34 0-4 5-10 10-10 46 0 79 76 103 172l92 363c0 12-10 22-32 22-8 0-20-2-27-5l-3 17z"/><use xlink:href="#STIXWEBVARIANTS-2032" id="use28138" x="550" y="583" transform="scale(.707)"/></g><g id="g28146" class="axes-labels" style="fill:#000;stroke:none" transform="matrix(.03427 0 0 -.03427 672.406 813.938)"><path id="use28142" stroke-width="1" d="M372 566c0-26-22-46-48-46-29 0-48 20-48 46 0 25 19 50 48 50 26 0 48-25 48-50zm-21-125L243 16c-22-88-78-203-186-203-53 0-73 33-73 61 0 22 12 52 47 52 19 0 35-15 35-38 0-15-16-18-16-34 0-4 5-10 10-10 46 0 79 76 103 172l92 363c0 12-10 22-32 22-8 0-20-2-27-5l-3 17z"/><path id="use28144" stroke-width=".707" d="m631.351 431.977-24.038 8.484c18.382 86.961 61.509 281.386 74.235 322.392 11.312 36.057 34.643 48.783 55.853 48.783 25.452 0 48.076-15.554 48.076-50.197 0-7.777-4.242-24.745-7.777-33.229-14.847-40.299-103.222-216.342-146.349-296.233Zm-188.769 0-23.331 8.484c18.382 86.961 63.63 281.386 75.649 322.392 10.605 36.057 33.229 48.783 54.439 48.783 25.452 0 48.076-15.554 48.076-50.197 0-7.777-4.242-24.745-7.777-33.229-15.554-40.299-103.222-216.342-147.056-296.233Z"/></g><g id="g28150" class="axes-labels" style="fill:#000;stroke:none" transform="matrix(.03427 0 0 -.03427 187.64 1019.264)"><path id="use28148" stroke-width="1" d="m527 428-4-12c-67-7-95-25-133-58l-106-92 64-152c15-35 27-59 53-59 30 0 52 43 74 73l15-11C478 96 431-11 363-11c-46 0-67 53-78 79l-63 147-56-49L121 0H45l148 589c2 6 3 13 3 20 0 11-10 22-32 22-9 0-19 0-27-2l-3 14 158 25-113-456 167 149c11 10 21 23 21 36 0 12-16 19-26 19h-12l4 12z"/></g><g id="g28156" class="axes-labels" style="fill:#000;stroke:none" transform="matrix(.03426 0 0 -.03426 421.451 1019.186)"><path id="use28152" stroke-width="1" d="m527 428-4-12c-67-7-95-25-133-58l-106-92 64-152c15-35 27-59 53-59 30 0 52 43 74 73l15-11C478 96 431-11 363-11c-46 0-67 53-78 79l-63 147-56-49L121 0H45l148 589c2 6 3 13 3 20 0 11-10 22-32 22-9 0-19 0-27-2l-3 14 158 25-113-456 167 149c11 10 21 23 21 36 0 12-16 19-26 19h-12l4 12z"/><use xlink:href="#STIXWEBVARIANTS-2032" id="use28154" x="767" y="583" transform="scale(.707)"/></g><g id="g28162" class="axes-labels" style="fill:#000;stroke:none" transform="matrix(.03428 0 0 -.03428 668.3 1018.798)"><path id="use28158" stroke-width="1" d="m527 428-4-12c-67-7-95-25-133-58l-106-92 64-152c15-35 27-59 53-59 30 0 52 43 74 73l15-11C478 96 431-11 363-11c-46 0-67 53-78 79l-63 147-56-49L121 0H45l148 589c2 6 3 13 3 20 0 11-10 22-32 22-9 0-19 0-27-2l-3 14 158 25-113-456 167 149c11 10 21 23 21 36 0 12-16 19-26 19h-12l4 12z"/><path id="use28160" stroke-width=".707" d="m784.77 431.977-24.038 8.484c18.382 86.961 61.509 281.386 74.235 322.392 11.312 36.057 34.643 48.783 55.853 48.783 25.452 0 48.076-15.554 48.076-50.197 0-7.777-4.242-24.745-7.777-33.229-14.847-40.299-103.222-216.342-146.349-296.233Zm-188.769 0-23.331 8.484c18.382 86.961 63.63 281.386 75.649 322.392 10.605 36.057 33.229 48.783 54.439 48.783 25.452 0 48.076-15.554 48.076-50.197 0-7.777-4.242-24.745-7.777-33.229-15.554-40.299-103.222-216.342-147.056-296.233Z"/></g><g id="g50073" transform="matrix(1 0 0 1.13357 5.983 -87.149)"><use xlink:href="#STIXWEBMAIN-5D" id="use49487" x="4292" y="0" style="fill:#000;stroke:none" transform="matrix(.01904 0 0 -.01904 231.554 650.076)"/><use xlink:href="#STIXWEBMAIN-5B" id="use49491" x="0" y="0" style="fill:#000;stroke:none" transform="matrix(.01904 0 0 -.01904 231.828 650.077)"/></g><g id="g50079" transform="translate(.099 .077)"><g id="g49499" style="fill:#000;stroke:none" transform="matrix(.01904 0 0 -.01904 512.909 650.076)"><text id="text49497" stroke="none" direction="ltr" style="font-size:20.5px;font-family:baskerville;fill:#000" transform="scale(52.507 -52.507)">customer</text><text id="text57343" x="-14137.321" stroke="none" direction="ltr" style="font-size:1076.39px;font-family:baskerville;fill:#000;stroke-width:52.507" transform="scale(1 -1)">customer</text></g><use xlink:href="#STIXWEBMAIN-5D" id="use49501" x="4292" y="0" style="fill:#000;stroke:none" transform="matrix(.01904 0 0 -.01904 507.406 650.076)"/><use xlink:href="#STIXWEBMAIN-5B" id="use49503" x="0" y="0" style="fill:#000;stroke:none" transform="matrix(.01904 0 0 -.01904 507.68 650.077)"/></g><g id="g49516" style="fill:#000;stroke:none" transform="matrix(.01904 0 0 -.01904 789.594 650.154)"><text id="text49514" stroke="none" direction="ltr" style="font-size:20.5px;font-family:baskerville;fill:#000" transform="scale(52.507 -52.507)">customer</text></g><use xlink:href="#STIXWEBMAIN-5D" id="use49518" x="4292" y="0" style="fill:#000;stroke:none" transform="matrix(.01904 0 0 -.01904 784.092 650.154)"/><use xlink:href="#STIXWEBMAIN-5B" id="use49520" x="0" y="0" style="fill:#000;stroke:none" transform="matrix(.01904 0 0 -.01904 784.365 650.154)"/><g id="g50083" style="fill:#000;stroke:none" transform="matrix(.01904 0 0 -.01904 340.32 541.962)"><text id="text50081" stroke="none" direction="ltr" style="font-size:20.5px;font-family:baskerville;fill:#000" transform="scale(52.507 -52.507)">customer</text></g><use xlink:href="#STIXWEBMAIN-5D" id="use50085" x="4292" y="0" style="fill:#000;stroke:none" transform="matrix(.01904 0 0 -.01904 335.337 541.962)"/><path id="path50087" d="M329.959 542.522q-.975-.218-1.64-.77-.673-.567-.673-1.044 0-.267.155-.426.163-.159.373-.159.455 0 .6.61.265 1.003 1.185 1.354v-5.39q-2.195-.903-2.195-2.75 0-.92.592-1.614.592-.677 1.603-.97v-.576h.391v.485q.447-.075.947-.075.392 0 .856.075v-.485h.392v.577q1.056.276 1.648.894.601.619.601 1.137 0 .267-.164.426-.164.15-.355.15-.273 0-.419-.175-.154-.192-.273-.76-.191-.928-1.038-1.238v4.614q2.522.953 2.522 3.026 0 .97-.628 1.805-.62.827-1.894 1.195v1.68h-.392v-1.596q-.591.117-1.11.117-.356 0-.693-.05v1.53h-.391zm.391-6.954 1.803.702v-4.63q-.464-.109-.965-.109-.482 0-.838.109zm-.391-3.853q-1.366.593-1.366 1.889 0 1.162 1.366 1.788zm.391 5.14v5.34q.356.084.793.084.546 0 1.01-.133v-4.564zm2.195 5.124q1.603-.644 1.603-2.207 0-1.387-1.603-2.031z" style="font-size:25px;font-family:Baskerville;-inkscape-font-specification:Baskerville;stroke:#000;stroke-width:.1;stroke-dasharray:.300002,.200001;stroke-dashoffset:0;stroke-opacity:1"/><use xlink:href="#STIXWEBMAIN-5B" id="use50089" x="0" y="0" style="fill:#000;stroke:none" transform="matrix(.01904 0 0 -.01904 319.486 541.963)"/><use xlink:href="#STIXWEBMAIN-2F" id="use50091" x="1197" y="0" style="fill:#000;stroke:none" transform="matrix(.01904 0 0 -.01904 313.206 542.026)"/><use xlink:href="#STIXWEBMAIN-2F" id="use54323" x="1197" y="0" style="fill:#000;stroke:none" transform="matrix(.01904 0 0 -.01904 313.206 542.026)"/><use xlink:href="#STIXWEBMAIN-2F" id="use54325" x="1197" y="0" style="fill:#000;stroke:none" transform="matrix(.01904 0 0 -.01904 590.896 949.865)"/><use xlink:href="#STIXWEBMAIN-5B" id="use51226" x="0" y="0" style="fill:#000;stroke:none" transform="matrix(.01904 0 0 -.01904 353.127 745.972)"/><g id="g51230" style="fill:#000;stroke:none" transform="matrix(.01904 0 0 -.01904 359.467 745.972)"><text id="text51228" stroke="none" direction="ltr" style="font-size:20.5px;font-family:baskerville" transform="scale(52.507 -52.507)">kw</text></g><use xlink:href="#STIXWEBMAIN-5D" id="use51238" x="5821" y="0" style="fill:#000;stroke:none" transform="matrix(.01904 0 0 -.01904 272.47 745.972)"/><g id="g51248" class="axes-labels" style="fill:#000;stroke:none" transform="matrix(.01904 0 0 -.01904 758.064 854.638)"><use xlink:href="#STIXWEBMAIN-5B" id="use51240" x="0" y="0"/><g id="g51244" transform="translate(333)"><text id="text51242" stroke="none" direction="ltr" style="font-size:20.5px;font-family:baskerville" transform="scale(52.507 -52.507)">hr</text></g><use xlink:href="#STIXWEBMAIN-5D" id="use51246" x="1298" y="0"/></g><g id="g51258" class="axes-labels" style="fill:#000;stroke:none" transform="matrix(.01904 0 0 -.01904 508.694 854.638)"><use xlink:href="#STIXWEBMAIN-5B" id="use51250" x="0" y="0"/><g id="g51254" transform="translate(333)"><text id="text51252" stroke="none" direction="ltr" style="font-size:20.5px;font-family:baskerville" transform="scale(52.507 -52.507)">hr</text></g><use xlink:href="#STIXWEBMAIN-5D" id="use51256" x="1298" y="0"/></g><g id="g51270" class="axes-labels" style="fill:#000;stroke:none" transform="matrix(.01904 0 0 -.01904 274.037 854.638)"><use xlink:href="#STIXWEBMAIN-5B" id="use51262" x="0" y="0"/><g id="g51266" transform="translate(333)"><text id="text51264" stroke="none" direction="ltr" style="font-size:20.5px;font-family:baskerville" transform="scale(52.507 -52.507)">hr</text></g><use xlink:href="#STIXWEBMAIN-5D" id="use51268" x="1298" y="0"/></g><path id="path51848" d="M518.75 1059.544q-.974-.217-1.64-.769-.673-.568-.673-1.045 0-.267.155-.426.164-.159.373-.159.455 0 .601.61.264 1.003 1.184 1.354v-5.39q-2.195-.903-2.195-2.75 0-.92.592-1.614.592-.677 1.603-.969v-.577h.391v.485q.447-.075.948-.075.391 0 .856.075v-.485h.391v.577q1.056.276 1.648.894.601.619.601 1.137 0 .267-.164.426-.163.15-.355.15-.273 0-.419-.175-.154-.192-.273-.76-.191-.928-1.038-1.237v4.613q2.523.953 2.523 3.026 0 .97-.629 1.805-.619.828-1.894 1.195v1.68h-.391v-1.596q-.592.117-1.111.117-.356 0-.693-.05v1.53h-.391zm.391-6.954 1.804.702v-4.63q-.465-.109-.966-.109-.482 0-.838.109zm-.391-3.853q-1.366.593-1.366 1.889 0 1.162 1.366 1.788zm.391 5.14v5.341q.356.083.793.083.546 0 1.01-.134v-4.563zm2.195 5.124q1.603-.644 1.603-2.207 0-1.387-1.603-2.03z" style="font-size:25px;font-family:Baskerville;-inkscape-font-specification:Baskerville;stroke:#000;stroke-width:.1;stroke-dasharray:.300002,.200001;stroke-dashoffset:0;stroke-opacity:1"/><g id="g54317" transform="translate(.099 .077)"><use xlink:href="#STIXWEBMAIN-5B" id="use51852" x="0" y="0" style="fill:#000;stroke:none" transform="matrix(.01904 0 0 -.01904 508.178 1058.908)"/><use xlink:href="#STIXWEBMAIN-5D" id="use51854" x="692" y="0" style="fill:#000;stroke:none" transform="matrix(.01904 0 0 -.01904 512.058 1058.908)"/></g><g id="g51866" transform="translate(569.039 1332.819)"><g id="g51860" aria-label="$" style="font-size:25px;font-family:Hel;-inkscape-font-specification:Hel;stroke:#000;stroke-width:.139922;stroke-dasharray:.419767,.279844;stroke-dashoffset:0;stroke-opacity:1" transform="matrix(.746 0 0 .68469 15.452 -86.481)"><path id="path51858" d="M246.645-272.816q-1.306-.317-2.198-1.123-.903-.83-.903-1.526 0-.39.208-.622.22-.232.5-.232.61 0 .806.89.354 1.466 1.587 1.978v-7.873q-2.942-1.319-2.942-4.016 0-1.343.793-2.356.794-.99 2.149-1.416v-.843h.525v.708q.598-.11 1.27-.11.524 0 1.147.11v-.708h.525v.843q1.416.403 2.209 1.306.806.903.806 1.66 0 .39-.22.623-.22.22-.476.22-.366 0-.562-.257-.207-.28-.366-1.11-.256-1.356-1.391-1.808v6.739q3.38 1.391 3.38 4.419 0 1.416-.841 2.636-.83 1.209-2.54 1.746v2.454h-.524v-2.332q-.794.17-1.49.17-.476.001-.927-.072v2.234h-.525zm.525-10.156 2.417 1.025v-6.762q-.623-.16-1.294-.16-.647 0-1.123.16zm-.525-5.628q-1.831.867-1.831 2.76 0 1.696 1.83 2.611zm.525 7.508v7.8q.476.122 1.062.122.732 0 1.355-.195v-6.665zm2.942 7.483q2.148-.94 2.148-3.223 0-2.026-2.148-2.966z" style="font-family:Baskerville;-inkscape-font-specification:Baskerville;stroke:#000;stroke-width:.139922;stroke-dasharray:.419767,.279844;stroke-dashoffset:0;stroke-opacity:1"/></g><use xlink:href="#STIXWEBMAIN-5B" id="use51862" x="0" y="0" style="fill:#000;stroke:none" transform="matrix(.01904 0 0 -.01904 188.976 -273.833)"/><use xlink:href="#STIXWEBMAIN-5D" id="use51864" x="692" y="0" style="fill:#000;stroke:none" transform="matrix(.01904 0 0 -.01904 192.855 -273.833)"/></g><g id="g53799" class="axes-labels" style="fill:#000;stroke:none" transform="matrix(.01904 0 0 -.01904 359.217 950.005)"><use xlink:href="#STIXWEBMAIN-5B" id="use53793" x="0" y="0"/><use xlink:href="#STIXWEBMAIN-31" id="use53795" x="333" y="0"/><use xlink:href="#STIXWEBMAIN-5D" id="use53797" x="834" y="0"/></g><use xlink:href="#STIXWEBMAIN-5B" id="use54293" x="0" y="0" style="fill:#000;stroke:none" transform="matrix(.01904 0 0 -.01904 597.553 950.005)"/><use xlink:href="#STIXWEBMAIN-31" id="use54295" x="333" y="0" style="fill:#000;stroke:none" transform="matrix(.01904 0 0 -.01904 597.553 950.005)"/><use xlink:href="#STIXWEBMAIN-5D" id="use54297" x="834" y="0" style="fill:#000;stroke:none" transform="matrix(.01904 0 0 -.01904 612.897 950.005)"/><path id="path54321" d="M622.004 949.517q-.975-.217-1.64-.769-.673-.568-.673-1.044 0-.268.155-.427.163-.158.373-.158.455 0 .6.61.265 1.003 1.185 1.354v-5.391q-2.195-.903-2.195-2.75 0-.92.592-1.613.592-.677 1.603-.97v-.576h.391v.484q.447-.075.947-.075.392 0 .856.075v-.484h.392v.576q1.056.276 1.648.895.601.618.601 1.136 0 .268-.164.427-.164.15-.355.15-.273 0-.419-.175-.154-.193-.273-.761-.191-.928-1.038-1.237v4.614q2.523.952 2.523 3.025 0 .97-.629 1.805-.62.828-1.894 1.196v1.68h-.392v-1.597q-.591.117-1.11.117-.356 0-.693-.05v1.53h-.391zm.391-6.954 1.803.702v-4.63q-.464-.108-.965-.108-.482 0-.838.108zm-.391-3.853q-1.366.594-1.366 1.89 0 1.161 1.366 1.788zm.391 5.14v5.341q.356.083.793.083.546 0 1.01-.133v-4.564zm2.195 5.124q1.603-.644 1.603-2.207 0-1.387-1.603-2.03z" style="font-size:25px;font-family:Baskerville;-inkscape-font-specification:Baskerville;stroke:#000;stroke-width:.1;stroke-dasharray:.300002,.200001;stroke-dashoffset:0;stroke-opacity:1"/></g></svg>