<svg xmlns="http://www.w3.org/2000/svg" xmlns:xlink="http://www.w3.org/1999/xlink" id="svg54" width="1000" height="298.407" preserveAspectRatio="none" version="1.1" viewBox="-10 -38.407 1000 298.407"><style id="style1" type="text/css">.grid{stroke:#9e9ed1;stroke-width:.4}.axes{stroke:#000;stroke-width:.9}.axes-arrows{stroke-width:1.1;stroke:#000;fill:none;stroke-linecap:round;stroke-linejoin:round}.axes-labels{stroke:none;fill:#000}.graph{stroke:red;stroke-width:1.7;fill:none}</style><defs id="defs1"><path id="MJMATHI-78" stroke-width="1" d="M52 289q7 42 54 97t116 56q35 0 64-18t43-45q42 63 101 63 37 0 64-22t28-59q0-29-14-47t-27-22q-13-4-23-4-19 0-31 11t-12 29q0 46 50 63-11 13-40 13-13 0-19-2-38-16-56-66-60-221-60-258 0-28 16-40t35-12q37 0 73 33t49 81q3 10 6 11t16 2h4q15 0 15-8 0-1-2-11-16-57-62-101T333-11q-70 0-106 63-41-62-94-62h-6q-49 0-70 26T35 71q0 32 19 52t45 20q43 0 43-42 0-20-12-35t-23-20q-11-5-13-5l-3-1q0-1 6-4t16-7q10-4 19-3 36 0 62 45 9 16 23 68t28 108q14 56 16 66 5 27 5 39 0 28-15 40t-34 12q-40 0-75-32t-49-82q-2-9-5-10t-16-2H58q-6 6-6 11z"/><path id="MJMATHI-79" stroke-width="1" d="M21 287q0 14 15 48t48 71q33 37 74 36 41 0 66-23t26-64q-2-19-3-21 0-3-16-46t-33-97q-17-54-16-86 0-43 14-60t42-18q23 0 43 11t31 23q11 12 27 33 0 1 5 20t14 59q9 40 19 74 38 150 42 157 13 27 43 27 13 0 21-7t11-12q3-5 2-9 0-13-49-210T391-23q-28-83-97-132t-138-50q-45 0-79 22t-34 66q0 22 7 37t19 22q12 7 20 10t17 3q44 0 44-42 0-20-12-35t-23-20q-11-5-13-5l-3-1q2-5 19-12t34-7h8q17 0 26 2 33 9 61 38t43 62q15 33 23 56t8 30l-6-4q-6-4-19-11T270-6q-20-5-39-5-46 0-81 22t-46 71q-1 7-1 31 0 57 35 149t35 117v14q0 3-4 7t-11 4h-4q-23 0-42-19t-30-41q-11-22-17-42t-8-22q-2-2-16-2H27q-6 6-6 9z"/><path id="MJMAIN-2212" stroke-width="1" d="M84 237v13q0 13 14 20h581q15-8 15-20t-15-20H98q-14 7-14 20z"/><path id="MJMAIN-31" stroke-width="1" d="m213 578-13-5q-14-5-40-10t-58-7H83v46h19q47 2 87 15t56 24q16 11 28 22 2 3 12 3 9 0 17-6V361l1-300q7-7 12-9t24-4q19-2 62-2h26V0h-11q-21 3-159 3-136 0-157-3H88v46h64q16 0 25 1t16 3q7 2 8 2t6 5q5 5 6 4z"/><path id="MJMAIN-30" stroke-width="1" d="M96 585q56 81 153 81 48 0 96-26t78-92q37-83 37-228 0-155-43-237-20-42-55-67t-61-31q-26-6-51-7-26 0-52 6t-61 32q-35 26-55 67-43 82-43 237 0 174 57 265zm225 12q-30 32-71 32-42 0-72-32-25-26-33-72t-8-192q0-158 8-208t36-79q28-30 69-30 40 0 68 30 29 30 36 84t8 203q0 145-8 191t-33 73z"/><path id="MJMAIN-38" stroke-width="1" d="M70 417v77q0 77 54 124t124 48q71 0 126-42t55-109q0-30-11-56t-26-42q-15-16-31-28t-26-18q-10-6-11-8l14-9 28-20q14-10 16-11 75-59 75-149 0-79-58-137T249-22q-90 0-148 51T43 155q0 108 129 180l-18 13q-21 13-27 20-57 49-57 126zm216-31 6 4 9 6q3 2 10 7t12 10q5 5 11 12t11 13q5 6 10 16t9 17q4 7 5 20t2 22q0 43-29 73t-67 38q-7 1-33 1-41 0-77-26t-37-65q0-23 13-42t26-29q13-10 50-32 7-5 11-7zM250 21q58 0 100 34t42 82q0 17-5 32t-12 25q-7 10-22 22t-23 18q-8 6-29 19t-27 17q-14 9-30 19t-26 17l-8 5q-6 0-29-17t-48-55q-25-38-26-82 0-59 43-97t100-39z"/><path id="MJMAIN-36" stroke-width="1" d="M42 313q0 163 81 258t180 95q69 0 99-36t30-80q0-25-14-40t-39-15q-23 0-38 14t-15 39q0 44 47 53-22 22-62 25-71 0-117-60-47-66-47-202l1-4q5 6 8 13 41 60 107 60h4q46 0 81-19 24-14 48-40t39-57q21-49 21-107v-18q0-23-5-43-11-59-64-115T253-22q-28 0-54 8t-56 30q-30 22-51 59t-36 97q-15 60-14 141zm215 84q-30 0-52-17t-34-45q-12-28-17-57t-6-62q0-83 12-119t38-58q24-18 53-18 51 0 78 38 13 18 18 45t5 105q0 80-5 107t-18 45q-27 36-72 36z"/><path id="MJMAIN-34" stroke-width="1" d="M462 0q-18 3-129 3-116 0-134-3h-9v46h58q7 0 17 2t14 5q4 3 7 8 1 2 1 54v50H28v46l151 231q153 232 155 233 2 2 21 2h18l6-6V211h92v-46h-92V66q0-7 6-12 8-7 57-8h29V0ZM293 211v334L74 212l109-1Z"/><path id="MJMAIN-32" stroke-width="1" d="M109 429q-27 0-43 18t-16 44q0 71 53 123t132 52q91 0 152-56t62-145q0-43-20-82t-48-68q-28-29-80-74-36-31-100-92l-59-56 76-1q157 0 167 5 7 2 24 89v3h40v-3q-1-3-13-91T421 3V0H50v31q0 7 6 15t30 35q29 32 50 56 9 10 34 37t34 37q9 10 29 33t28 34q8 11 23 30t21 32q6 13 15 29t13 32q4 16 7 30t3 33q0 63-34 109t-97 46q-33 0-58-17t-35-33q-10-16-10-19 0-1 5-1 18 0 37-14t19-46q0-25-16-42t-45-18z"/><clipPath id="trbl_clip_0_945_250_0"><path id="path1" d="M0 0h945v250H0Z"/></clipPath><clipPath id="clipPath42" clipPathUnits="userSpaceOnUse"/></defs><g id="grid"><path id="path2" d="M39.395 250v-99.748m0-22.853V0" class="grid"/><path id="path3" d="M84.395 250V0" class="grid"/><path id="path4" d="M129.395 250v-99.745m0-22.856V0" class="grid"/><path id="path5" d="M174.395 250V0" class="grid"/><path id="path6" d="M219.395 250v-99.745m0-22.856V0" class="grid"/><path id="path7" d="M264.395 250V0" class="grid"/><path id="path8" d="M309.395 250v-99.745m0-22.856V0" class="grid"/><path id="path9" d="M354.395 250V0" class="grid"/><path id="path10" d="M399.395 250v-99.745m0-22.856V0" class="grid"/><path id="path11" d="M444.395 250V0" class="grid"/><path id="path12" d="M489.395 250V0" class="grid"/><path id="path13" d="M534.395 250V0" class="grid"/><path id="path14" d="M579.395 250V149.27m0-21.87V0" class="grid"/><path id="path15" d="M624.395 250V0" class="grid"/><path id="path16" d="M669.395 250V149.27m0-21.87V0" class="grid"/><path id="path17" d="M714.395 250V0" class="grid"/><path id="path18" d="M759.395 250V149.27m0-21.87V0" class="grid"/><path id="path19" d="M804.395 250V0" class="grid"/><path id="path20" d="M849.395 250V149.27m0-21.87V0" class="grid"/><path id="path21" d="M894.395 250V0" class="grid"/><path id="path22" d="M939.395 250V149.28m0-21.88V0" class="grid"/><path id="path23" d="M16.895 225h440.73m29.37 0h474.9" class="grid"/><path id="path24" d="M16.895 175h945" class="grid"/><path id="path25" d="M16.895 125h945" class="grid"/><path id="path26" d="M16.895 75h945" class="grid"/><path id="path27" d="M16.895 25h454.822m15.278 0h474.9" class="grid"/></g><g id="axes"><path id="path28" d="M16.895 125h948.999" class="axes"/><path id="path29" d="M489.395 250V-3.999" class="axes"/></g><g id="axes arrows"><path id="path30" d="M962.895 121.001c0 1.6 2.249 3.999 2.999 3.999-.75 0-3 2.4-3 3.999" class="axes-arrows"/><path id="path31" d="M485.396-1c1.6 0 3.999-2.25 3.999-2.999 0 .75 2.4 3 3.999 3" class="axes-arrows"/></g><g id="axes labels"><g id="g31" class="axes-labels" transform="matrix(.01904 0 0 -.01904 973.891 129.51)"><use xlink:href="#MJMATHI-78" id="use31" x="0" y="0"/></g><g id="g32" class="axes-labels" transform="matrix(.01903 0 0 -.01903 484.66 -19.994)"><use xlink:href="#MJMATHI-79" id="use32" x="0" y="0" transform="translate(0 -110.961)"/></g></g><g id="notch labels" style="stroke:none;fill:#b8b8de"><g id="g36" transform="matrix(.01809 0 0 -.01809 23.3 144.176)"><use xlink:href="#MJMAIN-2212" id="use33" x="0" y="0"/><g id="g35" transform="translate(778)"><use xlink:href="#MJMAIN-31" id="use34"/><use xlink:href="#MJMAIN-30" id="use35" x="500" y="0"/></g></g><g id="g37" transform="matrix(.0181 0 0 -.0181 117.826 144.179)"><use xlink:href="#MJMAIN-2212" id="use36" x="0" y="0"/><use xlink:href="#MJMAIN-38" id="use37" x="778" y="0"/></g><g id="g39" transform="matrix(.0181 0 0 -.0181 207.826 144.179)"><use xlink:href="#MJMAIN-2212" id="use38" x="0" y="0"/><use xlink:href="#MJMAIN-36" id="use39" x="778" y="0"/></g><g id="g41" transform="matrix(.0181 0 0 -.0181 297.826 144.179)"><use xlink:href="#MJMAIN-2212" id="use40" x="0" y="0"/><use xlink:href="#MJMAIN-34" id="use41" x="778" y="0"/></g><g id="g43" transform="matrix(.0181 0 0 -.0181 387.826 144.179)"><use xlink:href="#MJMAIN-2212" id="use42" x="0" y="0"/><use xlink:href="#MJMAIN-32" id="use43" x="778" y="0"/></g><g id="g44" transform="matrix(.01808 0 0 -.01808 472.073 144.17)"><use xlink:href="#MJMAIN-30" id="use44" x="0" y="0"/></g><g id="g45" transform="matrix(.01808 0 0 -.01808 574.87 144.17)"><use xlink:href="#MJMAIN-32" id="use45" x="0" y="0"/></g><g id="g46" transform="matrix(.01808 0 0 -.01808 664.87 144.17)"><use xlink:href="#MJMAIN-34" id="use46" x="0" y="0"/></g><g id="g47" transform="matrix(.01808 0 0 -.01808 754.87 144.17)"><use xlink:href="#MJMAIN-36" id="use47" x="0" y="0"/></g><g id="g48" transform="matrix(.01808 0 0 -.01808 844.87 144.17)"><use xlink:href="#MJMAIN-38" id="use48" x="0" y="0"/></g><g id="g50" transform="matrix(.01809 0 0 -.01809 930.341 144.178)"><use xlink:href="#MJMAIN-31" id="use49"/><use xlink:href="#MJMAIN-30" id="use50" x="500" y="0"/></g><g id="g52" transform="matrix(.0181 0 0 -.0181 460.741 231.113)"><use xlink:href="#MJMAIN-2212" id="use51" x="0" y="0"/><use xlink:href="#MJMAIN-32" id="use52" x="778" y="0"/></g><g id="g53" transform="matrix(.01808 0 0 -.01808 474.831 31.11)"><use xlink:href="#MJMAIN-32" id="use53" x="0" y="0"/></g></g><g id="graphs"><path id="path46" d="M864.155 125.126c.63.065 1.26.165 1.89.327.63.16 1.26.383 1.89.702.63.32 1.26.735 1.89 1.29.63.555 1.26 1.25 1.89 2.133.63.883 1.26 1.955 1.89 3.263.63 1.307 1.26 2.851 1.89 4.668.63 1.818 1.26 3.909 1.89 6.29.63 2.38 1.26 5.05 1.89 7.994.63 2.944 1.26 6.161 1.89 9.595.63 3.434 1.26 7.085 1.89 10.851.63 3.767 1.26 7.65 1.89 11.51.63 3.862 1.26 7.7 1.89 11.356.63 3.656 1.26 7.127 1.89 10.25.63 3.124 1.26 5.898 1.89 8.183.63 2.285 1.26 4.079 1.89 5.287.63 1.207 1.26 1.828 1.89 1.828.63 0 1.26-.62 1.89-1.828.63-1.208 1.26-3.002 1.89-5.287.63-2.285 1.26-5.06 1.89-8.183.63-3.123 1.26-6.594 1.89-10.25.63-3.655 1.26-7.494 1.89-11.355.63-3.861 1.26-7.744 1.89-11.51.63-3.767 1.26-7.418 1.89-10.852.63-3.434 1.26-6.651 1.89-9.595.63-2.944 1.26-5.614 1.89-7.995.63-2.38 1.26-4.471 1.89-6.289.63-1.817 1.26-3.36 1.89-4.668.63-1.308 1.26-2.38 1.89-3.263.63-.883 1.26-1.578 1.89-2.133.63-.555 1.26-.97 1.89-1.29a9.197 9.197 0 0 1 1.89-.702c.63-.162 1.26-.262 1.89-.327" style="fill:none;stroke:red;stroke-width:1.7;stroke-dasharray:none"/><path id="path44" d="M729.155 124.874c.63-.065 1.26-.165 1.89-.327a9.197 9.197 0 0 0 1.89-.702 8.965 8.965 0 0 0 1.89-1.29c.63-.555 1.26-1.25 1.89-2.133.63-.883 1.26-1.955 1.89-3.262.63-1.308 1.26-2.852 1.89-4.67.63-1.817 1.26-3.908 1.89-6.288.63-2.38 1.26-5.051 1.89-7.995.63-2.944 1.26-6.161 1.89-9.595.63-3.434 1.26-7.085 1.89-10.851.63-3.767 1.26-7.65 1.89-11.51.63-3.862 1.26-7.7 1.89-11.356.63-3.656 1.26-7.127 1.89-10.25.63-3.124 1.26-5.898 1.89-8.183.63-2.285 1.26-4.079 1.89-5.287.63-1.207 1.26-1.828 1.89-1.828.63 0 1.26.62 1.89 1.828.63 1.208 1.26 3.002 1.89 5.287.63 2.285 1.26 5.06 1.89 8.183.63 3.123 1.26 6.594 1.89 10.25.63 3.655 1.26 7.494 1.89 11.355.63 3.861 1.26 7.744 1.89 11.51.63 3.767 1.26 7.418 1.89 10.852.63 3.434 1.26 6.651 1.89 9.595.63 2.944 1.26 5.614 1.89 7.995.63 2.38 1.26 4.471 1.89 6.289.63 1.817 1.26 3.36 1.89 4.669.63 1.307 1.26 2.379 1.89 3.262.63.883 1.26 1.578 1.89 2.133.63.555 1.26.97 1.89 1.29.63.319 1.26.541 1.89.702.63.162 1.26.262 1.89.327" style="fill:none;stroke:red;stroke-width:1.7;stroke-dasharray:none"/><path id="path41" d="M594.155 125.126c.63.065 1.26.165 1.89.327.63.16 1.26.383 1.89.702.63.32 1.26.735 1.89 1.29.63.555 1.26 1.25 1.89 2.133.63.883 1.26 1.955 1.89 3.263.63 1.307 1.26 2.851 1.89 4.668.63 1.818 1.26 3.909 1.89 6.29.63 2.38 1.26 5.05 1.89 7.994.63 2.944 1.26 6.161 1.89 9.595.63 3.434 1.26 7.085 1.89 10.851.63 3.767 1.26 7.65 1.89 11.51.63 3.862 1.26 7.7 1.89 11.356.63 3.656 1.26 7.127 1.89 10.25.63 3.124 1.26 5.898 1.89 8.183.63 2.285 1.26 4.079 1.89 5.287.63 1.207 1.26 1.828 1.89 1.828.63 0 1.26-.62 1.89-1.828.63-1.208 1.26-3.002 1.89-5.287.63-2.285 1.26-5.06 1.89-8.183.63-3.123 1.26-6.594 1.89-10.25.63-3.655 1.26-7.494 1.89-11.355.63-3.861 1.26-7.744 1.89-11.51.63-3.767 1.26-7.418 1.89-10.852.63-3.434 1.26-6.651 1.89-9.595.63-2.944 1.26-5.614 1.89-7.995.63-2.38 1.26-4.471 1.89-6.289.63-1.817 1.26-3.36 1.89-4.668.63-1.308 1.26-2.38 1.89-3.263.63-.883 1.26-1.578 1.89-2.133.63-.555 1.26-.97 1.89-1.29a9.197 9.197 0 0 1 1.89-.702c.63-.162 1.26-.262 1.89-.327" style="fill:none;stroke:red;stroke-width:1.7;stroke-dasharray:none"/><path id="path35" d="M459.155 124.874c.63-.065 1.26-.165 1.89-.327a9.197 9.197 0 0 0 1.89-.702 8.965 8.965 0 0 0 1.89-1.29c.63-.555 1.26-1.25 1.89-2.133.63-.883 1.26-1.955 1.89-3.262.63-1.308 1.26-2.852 1.89-4.67.63-1.817 1.26-3.908 1.89-6.288.63-2.38 1.26-5.051 1.89-7.995.63-2.944 1.26-6.161 1.89-9.595.63-3.434 1.26-7.084 1.89-10.851.63-3.767 1.26-7.65 1.89-11.51.63-3.862 1.26-7.7 1.89-11.356.63-3.656 1.26-7.127 1.89-10.25.63-3.124 1.26-5.898 1.89-8.183.63-2.285 1.26-4.079 1.89-5.287.63-1.207 1.26-1.828 1.89-1.828.63 0 1.26.62 1.89 1.828.63 1.208 1.26 3.002 1.89 5.287.63 2.285 1.26 5.06 1.89 8.183.63 3.123 1.26 6.594 1.89 10.25.63 3.655 1.26 7.494 1.89 11.355.63 3.861 1.26 7.744 1.89 11.51.63 3.768 1.26 7.418 1.89 10.852.63 3.434 1.26 6.651 1.89 9.595.63 2.944 1.26 5.614 1.89 7.995.63 2.38 1.26 4.471 1.89 6.289.63 1.817 1.26 3.36 1.89 4.669.63 1.307 1.26 2.379 1.89 3.262.63.883 1.26 1.578 1.89 2.133.63.555 1.26.97 1.89 1.29.63.319 1.26.541 1.89.702.63.162 1.26.262 1.89.327" style="fill:none;stroke:red;stroke-width:1.7;stroke-dasharray:none"/><path id="path40" d="M324.155 125.126c.63.065 1.26.165 1.89.327.63.16 1.26.383 1.89.702.63.32 1.26.735 1.89 1.29.63.555 1.26 1.25 1.89 2.133.63.883 1.26 1.955 1.89 3.262.63 1.308 1.26 2.852 1.89 4.67.63 1.817 1.26 3.908 1.89 6.288.63 2.38 1.26 5.051 1.89 7.995.63 2.944 1.26 6.161 1.89 9.595.63 3.434 1.26 7.084 1.89 10.851.63 3.767 1.26 7.65 1.89 11.51.63 3.862 1.26 7.7 1.89 11.356.63 3.656 1.26 7.127 1.89 10.25.63 3.124 1.26 5.898 1.89 8.183.63 2.285 1.26 4.079 1.89 5.287.63 1.207 1.26 1.828 1.89 1.828.63 0 1.26-.62 1.89-1.828.63-1.208 1.26-3.002 1.89-5.287.63-2.285 1.26-5.06 1.89-8.183.63-3.123 1.26-6.594 1.89-10.25.63-3.655 1.26-7.494 1.89-11.355.63-3.861 1.26-7.744 1.89-11.51.63-3.768 1.26-7.418 1.89-10.852.63-3.434 1.26-6.651 1.89-9.595.63-2.944 1.26-5.614 1.89-7.995.63-2.38 1.26-4.471 1.89-6.289.63-1.817 1.26-3.36 1.89-4.669.63-1.307 1.26-2.379 1.89-3.262.63-.883 1.26-1.578 1.89-2.133.63-.555 1.26-.97 1.89-1.29a9.197 9.197 0 0 1 1.89-.702c.63-.162 1.26-.262 1.89-.327" style="fill:none;stroke:red;stroke-width:1.7;stroke-dasharray:none"/><path id="path36" d="M189.155 124.874c.63-.065 1.26-.165 1.89-.327a9.197 9.197 0 0 0 1.89-.702 8.965 8.965 0 0 0 1.89-1.29c.63-.555 1.26-1.25 1.89-2.133.63-.883 1.26-1.955 1.89-3.262.63-1.308 1.26-2.852 1.89-4.67.63-1.817 1.26-3.908 1.89-6.288.63-2.38 1.26-5.051 1.89-7.995.63-2.944 1.26-6.161 1.89-9.595.63-3.434 1.26-7.084 1.89-10.851.63-3.767 1.26-7.65 1.89-11.51.63-3.862 1.26-7.7 1.89-11.356.63-3.656 1.26-7.127 1.89-10.25.63-3.124 1.26-5.898 1.89-8.183.63-2.285 1.26-4.079 1.89-5.287.63-1.207 1.26-1.828 1.89-1.828.63 0 1.26.62 1.89 1.828.63 1.208 1.26 3.002 1.89 5.287.63 2.285 1.26 5.06 1.89 8.183.63 3.123 1.26 6.594 1.89 10.25.63 3.655 1.26 7.494 1.89 11.355.63 3.861 1.26 7.744 1.89 11.51.63 3.768 1.26 7.418 1.89 10.852.63 3.434 1.26 6.651 1.89 9.595.63 2.944 1.26 5.614 1.89 7.995.63 2.38 1.26 4.471 1.89 6.289.63 1.817 1.26 3.36 1.89 4.669.63 1.307 1.26 2.379 1.89 3.262.63.883 1.26 1.578 1.89 2.133.63.555 1.26.97 1.89 1.29.63.319 1.26.541 1.89.702.63.162 1.26.262 1.89.327" style="fill:none;stroke:red;stroke-width:1.7;stroke-dasharray:none"/><path id="path38" d="M46.595 125h3.78c.63 0 1.26 0 1.89.016.63.015 1.26.045 1.89.11.63.065 1.26.165 1.89.327.63.16 1.26.383 1.89.702.63.32 1.26.735 1.89 1.29.63.555 1.26 1.25 1.89 2.133.63.883 1.26 1.955 1.89 3.262.63 1.308 1.26 2.852 1.89 4.67.63 1.817 1.26 3.908 1.89 6.288.63 2.38 1.26 5.051 1.89 7.995.63 2.944 1.26 6.161 1.89 9.595.63 3.434 1.26 7.084 1.89 10.851.63 3.767 1.26 7.65 1.89 11.51.63 3.862 1.26 7.7 1.89 11.356.63 3.656 1.26 7.127 1.89 10.25.63 3.124 1.26 5.898 1.89 8.183.63 2.285 1.26 4.079 1.89 5.287.63 1.207 1.26 1.828 1.89 1.828.63 0 1.26-.62 1.89-1.828.63-1.208 1.26-3.002 1.89-5.287.63-2.285 1.26-5.06 1.89-8.183.63-3.123 1.26-6.594 1.89-10.25.63-3.655 1.26-7.494 1.89-11.355.63-3.861 1.26-7.744 1.89-11.51.63-3.768 1.26-7.418 1.89-10.852.63-3.434 1.26-6.651 1.89-9.595.63-2.944 1.26-5.614 1.89-7.995.63-2.38 1.26-4.471 1.89-6.289.63-1.817 1.26-3.36 1.89-4.669.63-1.307 1.26-2.379 1.89-3.262.63-.883 1.26-1.578 1.89-2.133.63-.555 1.26-.97 1.89-1.29a9.197 9.197 0 0 1 1.89-.702c.63-.162 1.26-.262 1.89-.327" style="fill:none;stroke:red;stroke-width:1.7;stroke-dasharray:none"/><path id="path51" d="M46.595 125h-29.7m97.74.126c.63-.065 1.26-.095 1.89-.11.63-.015 1.26-.016 1.89-.016h66.96c.63 0 1.26 0 1.89-.016.63-.015 1.26-.045 1.89-.11m60.48 0c.63.065 1.26.095 1.89.11.63.015 1.26.016 1.89.016h66.96c.63 0 1.26 0 1.89.016.63.015 1.26.045 1.89.11m60.48 0c.63-.065 1.26-.095 1.89-.11.63-.015 1.26-.016 1.89-.016h66.96c.63 0 1.26 0 1.89-.016.63-.015 1.26-.045 1.89-.11m60.48 0c.63.065 1.26.095 1.89.11.63.015 1.26.016 1.89.016h66.96c.63 0 1.26 0 1.89.016.63.015 1.26.045 1.89.11m60.48 0c.63-.065 1.26-.095 1.89-.11.63-.015 1.26-.016 1.89-.016h66.96c.63 0 1.26 0 1.89-.016.63-.015 1.26-.045 1.89-.11m60.48 0c.63.065 1.26.095 1.89.11.63.015 1.26.016 1.89.016h66.96c.63 0 1.26 0 1.89.016.63.015 1.26.045 1.89.11m60.48 0c.63-.065 1.26-.095 1.89-.11.63-.015 1.26-.016 1.89-.016h33.48" style="fill:none;stroke:red;stroke-width:1.75;stroke-dasharray:none"/><path id="path53" d="M589.159 289.348h3.78c.63 0 1.26 0 1.89.016.63.015 1.26.045 1.89.11.63.065 1.26.165 1.89.326.63.161 1.26.384 1.89.703.63.319 1.26.734 1.89 1.29.63.554 1.26 1.25 1.89 2.132.63.884 1.26 1.955 1.89 3.263.63 1.308 1.26 2.852 1.89 4.669.63 1.817 1.26 3.908 1.89 6.289.63 2.38 1.26 5.051 1.89 7.995.63 2.944 1.26 6.161 1.89 9.595.63 3.434 1.26 7.084 1.89 10.85.63 3.768 1.26 7.65 1.89 11.511.63 3.861 1.26 7.7 1.89 11.356.63 3.655 1.26 7.126 1.89 10.25.63 3.123 1.26 5.898 1.89 8.183.63 2.284 1.26 4.079 1.89 5.286.63 1.208 1.26 1.829 1.89 1.829.63 0 1.26-.621 1.89-1.829.63-1.207 1.26-3.002 1.89-5.286.63-2.285 1.26-5.06 1.89-8.183.63-3.124 1.26-6.595 1.89-10.25.63-3.656 1.26-7.495 1.89-11.356.63-3.86 1.26-7.743 1.89-11.51.63-3.767 1.26-7.417 1.89-10.851.63-3.434 1.26-6.651 1.89-9.595.63-2.944 1.26-5.615 1.89-7.995.63-2.38 1.26-4.472 1.89-6.289.63-1.817 1.26-3.361 1.89-4.669.63-1.308 1.26-2.38 1.89-3.263.63-.883 1.26-1.578 1.89-2.133.63-.555 1.26-.97 1.89-1.29a9.197 9.197 0 0 1 1.89-.702c.63-.161 1.26-.261 1.89-.326.63-.065 1.26-.095 1.89-.11.63-.016 1.26-.016 1.89-.016h3.78" class="graph" style="fill:none;stroke:red;stroke-width:1.7"/><path id="path55" d="M723.46 421.303h3.78c.63 0 1.26 0 1.89-.016.63-.015 1.26-.045 1.89-.11.63-.065 1.26-.165 1.89-.326a9.197 9.197 0 0 0 1.89-.703 8.965 8.965 0 0 0 1.89-1.29c.63-.554 1.26-1.25 1.89-2.133.63-.883 1.26-1.955 1.89-3.262.63-1.308 1.26-2.852 1.89-4.67.63-1.816 1.26-3.908 1.89-6.288.63-2.38 1.26-5.051 1.89-7.995.63-2.944 1.26-6.161 1.89-9.595.63-3.434 1.26-7.084 1.89-10.851.63-3.767 1.26-7.65 1.89-11.51.63-3.862 1.26-7.7 1.89-11.356.63-3.655 1.26-7.126 1.89-10.25.63-3.123 1.26-5.898 1.89-8.183.63-2.285 1.26-4.079 1.89-5.286.63-1.208 1.26-1.829 1.89-1.829.63 0 1.26.62 1.89 1.829.63 1.207 1.26 3.001 1.89 5.286.63 2.285 1.26 5.06 1.89 8.183.63 3.124 1.26 6.595 1.89 10.25.63 3.656 1.26 7.494 1.89 11.356.63 3.86 1.26 7.743 1.89 11.51.63 3.767 1.26 7.417 1.89 10.85.63 3.435 1.26 6.652 1.89 9.596.63 2.944 1.26 5.614 1.89 7.995.63 2.38 1.26 4.472 1.89 6.289.63 1.817 1.26 3.361 1.89 4.669.63 1.307 1.26 2.38 1.89 3.262.63.884 1.26 1.579 1.89 2.134.63.555 1.26.97 1.89 1.289.63.319 1.26.541 1.89.703.63.161 1.26.26 1.89.326.63.065 1.26.095 1.89.11.63.015 1.26.016 1.89.016h3.78" class="graph" style="fill:none;stroke:red;stroke-width:1.7"/></g></svg>