<svg xmlns="http://www.w3.org/2000/svg" xmlns:xlink="http://www.w3.org/1999/xlink" width="387.827" height="265.82" viewBox="0 0 290.87 199.365"><defs><symbol id="a" overflow="visible"><path d="M4-1.11c-.078.094-.125.157-.219.266-.219.313-.344.406-.453.406-.14 0-.234-.124-.312-.406-.016-.078-.032-.14-.032-.172-.25-1.015-.359-1.468-.359-1.609.438-.781.797-1.219.969-1.219.062 0 .14.031.25.078.11.079.187.094.265.094.204 0 .344-.14.344-.36 0-.202-.172-.359-.406-.359-.438 0-.813.36-1.5 1.422l-.11-.547c-.14-.687-.25-.875-.53-.875-.22 0-.548.079-1.157.282l-.11.046.032.141c.39-.078.469-.11.562-.11.25 0 .313.095.454.688l.28 1.235-.812 1.156C.953-.641.75-.47.641-.47a.554.554 0 0 1-.25-.094.755.755 0 0 0-.329-.093c-.187 0-.328.14-.328.344 0 .265.204.421.5.421.297 0 .422-.093.922-.703.266-.312.485-.578.89-1.156L2.36-.562c.125.515.25.671.579.671.374 0 .624-.234 1.203-1.14Zm0 0" style="stroke:none"/></symbol><symbol id="b" overflow="visible"><path d="M.156-3.984c.125-.032.188-.047.297-.047.578 0 .719.25 1.188 1.968.156.641.406 1.813.406 1.985 0 .156-.063.312-.219.5-.297.406-.5.672-.61.781C1 1.422.892 1.5.75 1.5c-.047 0-.125-.031-.234-.11-.141-.109-.25-.171-.36-.171a.387.387 0 0 0-.39.39c0 .25.218.438.5.438.64 0 1.953-1.485 3.03-3.469.673-1.219.954-1.937.954-2.422a.554.554 0 0 0-.547-.547c-.234 0-.39.141-.39.36 0 .156.078.265.28.39.188.11.25.204.25.344 0 .39-.359 1.172-1.218 2.578l-.188-1.156c-.156-.875-.718-2.516-.859-2.516h-.125l-.984.172a1.759 1.759 0 0 1-.313.063Zm0 0" style="stroke:none"/></symbol><symbol id="c" overflow="visible"><path d="M6.844-3.266c.156 0 .343 0 .343-.187 0-.203-.187-.203-.328-.203H.891c-.141 0-.329 0-.329.203 0 .187.188.187.329.187Zm.015 1.938c.141 0 .329 0 .329-.203 0-.188-.188-.188-.344-.188H.89c-.141 0-.329 0-.329.188 0 .203.188.203.329.203Zm0 0" style="stroke:none"/></symbol><symbol id="d" overflow="visible"><path d="M2.531-6.734c-.547 0-.969.171-1.328.515-.578.563-.969 1.703-.969 2.875 0 1.078.329 2.25.797 2.813A1.87 1.87 0 0 0 2.5.14c.5 0 .922-.172 1.281-.516.578-.547.969-1.703.969-2.922 0-2.031-.906-3.437-2.219-3.437Zm-.031.25c.844 0 1.281 1.125 1.281 3.218 0 2.079-.437 3.141-1.281 3.141-.86 0-1.297-1.063-1.297-3.14 0-2.11.438-3.22 1.297-3.22Zm0 0" style="stroke:none"/></symbol><symbol id="e" overflow="visible"><path d="M2.969-.813c-.063.063-.094.11-.172.188-.156.234-.25.297-.328.297-.11 0-.188-.094-.235-.297-.015-.063-.015-.11-.03-.125-.188-.75-.267-1.094-.267-1.203.329-.563.594-.89.72-.89.046 0 .109.03.187.062.078.047.14.062.187.062.156 0 .266-.11.266-.265 0-.157-.125-.266-.297-.266-.328 0-.61.266-1.125 1.047l-.078-.406c-.094-.5-.188-.641-.375-.641-.172 0-.422.063-.875.219l-.078.015.031.125c.281-.078.344-.093.422-.093.172 0 .219.078.328.515l.203.906-.594.86c-.156.219-.296.36-.375.36-.046 0-.125-.032-.203-.063a.412.412 0 0 0-.234-.078c-.14 0-.25.109-.25.25 0 .203.156.312.375.312S.484.016.859-.437c.188-.235.344-.438.657-.86l.218.89c.11.376.204.485.438.485.281 0 .469-.172.89-.844Zm0 0" style="stroke:none"/></symbol><symbol id="g" overflow="visible"><path d="M6.563-2.297c.171 0 .359 0 .359-.203 0-.188-.188-.188-.36-.188h-5.39c-.172 0-.344 0-.344.188 0 .203.172.203.344.203Zm0 0" style="stroke:none"/></symbol><symbol id="h" overflow="visible"><path d="M1.531-3.297c.578 0 .813.031 1.047.11.625.234 1.016.796 1.016 1.484 0 .828-.578 1.484-1.313 1.484-.265 0-.469-.078-.828-.312-.312-.172-.469-.25-.64-.25-.235 0-.391.14-.391.36 0 .343.437.562 1.14.562.766 0 1.547-.266 2.016-.672.469-.406.735-.985.735-1.656 0-.5-.172-.97-.454-1.282-.203-.219-.39-.344-.828-.531.688-.469.938-.828.938-1.375 0-.813-.64-1.36-1.563-1.36-.5 0-.937.173-1.297.485-.296.266-.437.531-.656 1.125l.14.047c.407-.734.86-1.063 1.485-1.063.656 0 1.11.438 1.11 1.063a1.4 1.4 0 0 1-.407.969c-.297.296-.578.453-1.25.687Zm0 0" style="stroke:none"/></symbol><symbol id="i" overflow="visible"><path d="M2.531-6.734c-.547 0-.969.171-1.328.515-.578.563-.969 1.703-.969 2.875 0 1.078.329 2.25.797 2.813A1.87 1.87 0 0 0 2.5.14c.5 0 .922-.172 1.281-.516.578-.547.969-1.703.969-2.922 0-2.031-.906-3.437-2.219-3.437Zm-.031.25c.844 0 1.281 1.125 1.281 3.218 0 2.079-.437 3.141-1.281 3.141-.86 0-1.297-1.063-1.297-3.14 0-2.11.438-3.22 1.297-3.22Zm0 0" style="stroke:none"/></symbol><symbol id="j" overflow="visible"><path d="m4.734-1.36-.125-.062c-.375.578-.5.672-.953.672H1.281l1.672-1.766c.89-.921 1.281-1.687 1.281-2.453 0-1-.812-1.765-1.859-1.765-.547 0-1.063.218-1.422.609-.328.344-.469.656-.64 1.375l.203.047C.922-5.687 1.28-6 1.969-6c.828 0 1.406.563 1.406 1.406 0 .782-.469 1.703-1.297 2.594L.297-.125V0h3.89Zm0 0" style="stroke:none"/></symbol><clipPath id="f"><path d="M303 288h111.3v2H303Zm0 0"/></clipPath></defs><use xlink:href="#a" width="100%" height="100%" x="207.302" y="156.682" style="fill:#000;fill-opacity:1" transform="matrix(1.20165 0 0 1.20165 20.472 -69.078)"/><use xlink:href="#b" width="100%" height="100%" x="231.681" y="156.682" style="fill:#000;fill-opacity:1" transform="matrix(1.20165 0 0 1.20165 -151.313 -169.593)"/><use xlink:href="#c" width="100%" height="100%" x="238.318" y="156.682" style="fill:#000;fill-opacity:1" transform="matrix(1.20165 0 0 1.20165 -151.313 -169.593)"/><use xlink:href="#d" width="100%" height="100%" x="248.272" y="156.682" style="fill:#000;fill-opacity:1" transform="matrix(1.20165 0 0 1.20165 -151.313 -169.593)"/><use xlink:href="#e" width="100%" height="100%" x="253.254" y="152.568" style="fill:#000;fill-opacity:1" transform="matrix(1.20165 0 0 1.20165 -150.736 -169.593)"/><path d="M242.585 194.647V38.175M208.57 194.647V38.175M174.55 194.647V38.175M106.519 194.647V38.175M72.503 194.647V38.175M38.488 194.647V38.175M28.28 48.378h224.508M28.28 82.394h224.508M28.28 150.429h224.508M28.28 184.444h224.508" style="fill:none;stroke:#9e9ed1;stroke-miterlimit:10;stroke-width:.19925"/><g style="stroke:#b0b0d9"><path d="M28.28 116.413h230.367" style="fill:none;stroke:#b0b0d9;stroke-miterlimit:10;stroke-width:.51023622"/><path d="M256.874 113.98c.153.914 1.825 2.28 2.278 2.433-.453.149-2.125 1.52-2.278 2.43" style="fill:none;stroke:#b0b0d9;stroke-linecap:round;stroke-linejoin:round;stroke-miterlimit:10;stroke-width:.87672"/><path d="M140.535 194.647V32.418" style="fill:none;stroke:#b0b0d9;stroke-miterlimit:10;stroke-width:.51023622"/><path d="M138.105 34.089c.91-.152 2.277-1.824 2.43-2.277.152.453 1.52 2.125 2.433 2.277" style="fill:none;stroke:#b0b0d9;stroke-linecap:round;stroke-linejoin:round;stroke-miterlimit:10;stroke-width:.87672"/></g><g clip-path="url(#f)" style="clip-rule:nonzero" transform="translate(-161.512 -172.313)"><path d="M2.382-.002h150.691" style="fill:none;stroke:red;stroke-miterlimit:10;stroke-width:1.19553" transform="matrix(1 0 0 -1 302.048 288.725)"/></g><path d="M142.917 82.394a2.381 2.381 0 1 0-4.763.005 2.381 2.381 0 0 0 4.763-.005zm0 0" style="fill:red;fill-opacity:1;fill-rule:nonzero;stroke:red;stroke-miterlimit:10;stroke-width:.3985"/><path d="M142.917 116.413a2.381 2.381 0 1 0-4.76-.003 2.381 2.381 0 0 0 4.76.003zm0 0" style="fill:none;stroke:red;stroke-miterlimit:10;stroke-width:.79701"/><path d="M28.28 130.698v-10.886h20.41v10.886zM232.378 130.698v-10.886h20.41v10.886zM130.331 50.081V46.68h6.805v3.402zM123.527 191.929v-13.61h13.605v13.61zm0 0" style="fill:#fdfdfd;fill-opacity:1;fill-rule:nonzero;stroke:#fdfdfd;stroke-miterlimit:10;stroke-width:.3985"/><g style="stroke:#000"><g style="fill:#b0b0d9;fill-opacity:1;stroke:#000" transform="translate(-161.512 -172.313)"><use xlink:href="#g" width="100%" height="100%" x="193.64" y="300.488" style="stroke:#000"/></g><g style="fill:#b0b0d9;fill-opacity:1;stroke:#000" transform="translate(-161.512 -172.313)"><use xlink:href="#h" width="100%" height="100%" x="201.381" y="300.488" style="stroke:#000"/></g><g style="fill:#b0b0d9;fill-opacity:1;stroke:#000" transform="translate(-161.512 -172.313)"><use xlink:href="#h" width="100%" height="100%" x="401.604" y="300.824" style="stroke:#000"/></g><g style="fill:#b0b0d9;fill-opacity:1;stroke:#000" transform="translate(-161.512 -172.313)"><use xlink:href="#i" width="100%" height="100%" x="292.754" y="299.804" style="stroke:#000"/></g><g style="fill:#b0b0d9;fill-opacity:1;stroke:#000" transform="translate(-161.512 -172.313)"><use xlink:href="#j" width="100%" height="100%" x="292.754" y="224.026" style="stroke:#000"/></g><g style="fill:#b0b0d9;fill-opacity:1;stroke:#000" transform="translate(-161.512 -172.313)"><use xlink:href="#g" width="100%" height="100%" x="285.482" y="360.356" style="stroke:#000"/></g><g style="fill:#b0b0d9;fill-opacity:1;stroke:#000" transform="translate(-161.512 -172.313)"><use xlink:href="#j" width="100%" height="100%" x="293.223" y="360.356" style="stroke:#000"/></g></g></svg>