<svg xmlns="http://www.w3.org/2000/svg" xmlns:xlink="http://www.w3.org/1999/xlink" width="500" height="200" aria-hidden="true" viewBox="0 -29.756 500 200"><defs><path id="a" stroke-width="1" d="M94 250q0 69 10 131t23 107q13 45 37 88t38 67q14 24 42 52t33 34q5 6 25 21h17q14 0 14-9 0-3-17-21t-41-53q-24-35-49-86t-42-138q-17-87-17-193t17-192q17-86 41-139t49-86q25-33 42-53t17-21q0-9-15-9h-16l-28 24q-94 85-137 212T94 250Z"/><path id="b" stroke-width="1" d="M208 74q0-24 46-28 18 0 18-11 0-1-2-13-3-14-6-18t-13-4h-12q-10 0-34 1t-64 1Q70 2 50 0h-8q-7 7-7 11 2 27 13 35h14q70 3 102 50 6 6 181 305t178 303q7 12 24 12h25q6-9 6-10l28-323q28-323 30-326 5-11 65-11 25 0 25-10 0-2-3-14-3-15-5-18t-14-4h-14q-11 0-39 1t-73 1q-94 0-123-2h-12q-6 6-6 9t2 18q4 13 6 16l4 3h20q54 3 64 17l-12 150H283l-34-58q-41-69-41-81Zm308 186q0 11-12 156t-14 146l-27-43q-16-27-63-107l-90-152 103-1q103 0 103 1z"/><path id="c" stroke-width="1" d="M231 637q-27 0-32 1t-5 11q0 27 11 33 1 1 130 1 259 0 273-2 63-10 105-45t43-92q0-64-58-115t-133-69l-10-3q64-9 105-46t42-92q0-73-72-141T453 1q-7-1-211-1Q42 0 39 2q-4 3-4 8 0 7 2 14 5 19 10 21 4 1 15 1h6q27 0 60 3 14 3 19 12 3 4 72 278t69 289q0 7-57 9zm418-93q0 30-15 56t-49 34q-7 2-92 3h-42q-22 0-35-1h-13q-15-1-19-10-2-4-32-120 0-3-1-6l-31-126h81q81 0 93 2 60 10 107 58t48 110zm-54-315q0 44-23 73t-60 34q-6 1-83 1-118 0-119-1 0-2-17-73t-35-141l-18-70q0-4 12-4t81-2q89 0 96 1 62 7 114 58t52 124z"/><path id="d" stroke-width="1" d="m60 749 4 1h22l28-24q94-85 137-212t43-264q0-68-10-131T261 12q-13-44-37-88t-38-67q-14-23-41-51t-32-33q-5-5-23-19l-4-4H63q-3 0-5 3t-3 9q1 1 11 13Q221-64 221 250T66 725q-10 12-11 13 0 8 5 11z"/><path id="e" stroke-width="1" d="M26 385q-7 7-7 10 0 4 3 16t5 14q2 5 9 5t51 1h53l19 80q3 11 7 29t7 26q3 8 6 20t8 17q5 5 10 12t14 9q9 2 18 2 18-1 25-11t7-19q0-7-9-47t-20-79l-10-37q0-2 50-2h51q7-7 7-11 0-22-13-35H210l-36-145Q135 80 135 68q0-42 27-42 35 0 68 34t53 84q2 6 5 7t15 2h4q15 0 15-8 0-3-3-12-5-16-18-38t-34-47q-21-25-51-42t-61-17q-30 0-57 15T59 56q-2 8-2 27v18l35 140q35 141 36 142 0 2-51 2z"/><path id="f" stroke-width="1" d="M96 585q56 81 153 81 48 0 96-26t78-92q37-83 37-228 0-155-43-237-20-42-55-67t-61-31q-26-6-51-7-26 0-52 6t-61 32q-35 26-55 67-43 82-43 237 0 174 57 265zm225 12q-30 32-71 32-42 0-72-32-25-26-33-72t-8-192q0-158 8-208t36-79q28-30 69-30 40 0 68 30 29 30 36 84t8 203q0 145-8 191t-33 73z"/><path id="g" stroke-width="1" d="M56 237v13q0 13 14 20h299v150l1 150q10 13 19 13 13 0 20-15V270h298q15-8 15-20t-15-20H409V-68q-8-14-18-14h-4q-12 0-18 14v298H70q-14 7-14 20z"/><path id="h" stroke-width="1" d="M51 0q-5 4-5 7 0 2 169 350t173 352q3 7 28 7 23 0 28-7 3-4 172-352T786 7q0-3-5-7Zm456 344L384 596 137 92l246-1h247q0 2-123 253z"/><path id="i" stroke-width="1" d="M84 237v13q0 13 14 20h581q15-8 15-20t-15-20H98q-14 7-14 20z"/></defs><path d="M63.443 33.158c-4.833.627-10.423 2.871-15.596 5.438-7.048 3.498-15.443 10.295-20.415 20.537-3.31 6.817-3.815 16.328-2.303 23.935 1.933 9.718 8.422 16.93 15.684 20.892 11.084 6.047 23.997 7.212 33.466 4.577 2.29-.638 7.99-3 5.6-4.146-2.232-.91-2.714.656-2.696 2.796.022 2.64 1.14 5.44 3.95 8.503 5.337 5.818 13.118 9.077 20.886 10.873 8.173 1.889 16.857 1.479 24.832-1.047 4.178-1.324 8.595-3.144 11.185-6.661.21-.286.638-2.202-.327-2.817-1.771-1.13-1.056.645-.796 1.195.843 1.784 3.528 3.864 5.316 4.974 9.753 6.05 21.468 8.056 32.737 9.02 11.263.964 23.077.36 33.615-4.064 4.208-1.766 8.89-5.027 10.711-8.298 1.174-2.109 1.74-6.029-1.035-7.34-3.688-.514 1.223 2.329 5.51 3.613 9.516 2.85 18.088 2.45 26.98.902 16.535-2.877 32.926-13.641 39.8-30.992 4.089-10.324 3.309-24.17-2.015-34.44-4.569-8.811-12.634-16.816-25.268-21.426-10.879-3.969-19.219-3.858-26.178-2.726-3.242.527-4.7 2.123-3.49 2.255 1.306.142-.08-3.57-.561-4.725-2.92-7-10.407-11.789-14.341-13.827-8.493-4.4-19.824-5.266-27.287-4.626-10.13.87-17.48 3.326-22.346 8.163-2.406 2.392-4.284 4.454-4.242 5.79.378 2.62 2.132 1.72 1.733.356-2.217-5.275-11.073-10.459-22.98-14.226-24.06-7.614-53.867-2.567-67.484 7.133-5.626 4.008-11.012 8.345-13.608 14.821-.887 2.215-1.015 5.436-.02 7.516" style="fill:#e5f6ff;fill-opacity:1;stroke:#000;stroke-width:1;stroke-dasharray:none"/><path d="M64.854-268.052c-5.308-3.833-10.48-9.982-9.248-17.416 1.545-9.318 9.695-15.123 17.027-18.824 16.118-8.137 34.56-9.35 52.01-7.195 21.413 2.644 42.27 12.447 57.957 28.694 4.014 4.157 8.52 8.094 11.133 13.546.244.51.016.824-.316.923-3.063-1.481-4.897-5.016-5.908-8.337-1.34-4.406-.511-9.375 1.854-13.255 3.5-5.741 9.433-9.084 15.488-10.352 12.448-2.609 25.912.343 36.311 8.231 5.377 4.079 10.313 9.564 11.773 16.669.564 2.745-.304 5.935-2.127 8.364l-.203.27-.083-.36c2.462-3.354 6.849-4.23 10.585-4.547 12.733-1.081 26.077 6.031 32.44 18.17 6.655 12.697 6.58 28.493 2.165 41.72-5.145 15.412-19.295 27.558-33.947 31.512-12.56 3.39-26.516 3.285-38.219-3.105-1.813-.99-3.972-2.218-4.806-4.367 1.435-.85 8.043 4.88 10.244 8.943 2.466 5.273-.284 11.453-4.374 14.684-8.792 8.242-20.742 11.016-32.018 12.087-18.472 1.325-37.572-2.21-53.671-12.501-7.47-4.723-15.029-10.247-19.72-18.324-.385-.875-.786-2.047-.182-2.928l.695.57c2.628 3.51 1.955 8.76-.197 12.334-2.63 4.083-7.583 5.08-11.89 5.137-5.186-.003-10.323-1.264-15.19-3.148-7.213-3.057-13.786-8.295-18.054-15.377-1.858-3.393-3.675-7.664-2.255-11.623.201-.497.467-.963.788-1.38l-.091-.224c-3.308 4.577-8.48 6.79-13.283 8.642-12.398 4.778-26.526 4.885-38.597-1.235-8.277-4.196-14.714-12.675-16.88-22.712-2.423-11.225 1.834-22.883 8.227-31.294 9.595-12.623 22.096-20.43 36.555-23.097 6.33-1.168 11.471-.955 16.278.565" style="fill:#e5f6ff;fill-opacity:1;stroke:#000;stroke-width:1.3"/><path d="M52.364 78.476h219.474v-1.143H52.364z"/><g transform="matrix(.01904 0 0 -.01904 53.507 68.86)"><use xlink:href="#a"/><use xlink:href="#b" x="389"/><use xlink:href="#c" x="1140"/><use xlink:href="#d" x="1899"/><use xlink:href="#a" x="2289"/><g transform="translate(2678)"><use xlink:href="#e"/><use xlink:href="#f" x="511" y="-213" transform="scale(.707)"/></g><use xlink:href="#g" x="3716"/><use xlink:href="#h" x="4716"/><use xlink:href="#e" x="5550"/><use xlink:href="#d" x="5911"/><use xlink:href="#i" x="6523"/><use xlink:href="#a" x="7524"/><use xlink:href="#b" x="7913"/><use xlink:href="#c" x="8664"/><use xlink:href="#d" x="9423"/><use xlink:href="#a" x="9813"/><g transform="translate(10202)"><use xlink:href="#e"/><use xlink:href="#f" x="511" y="-213" transform="scale(.707)"/></g><use xlink:href="#d" x="11018"/></g><g transform="matrix(.01904 0 0 -.01904 150.725 95.84)"><use xlink:href="#h"/><use xlink:href="#e" x="833"/></g><path d="M336.426 51.286c-4.67.436-9.208 2.116-13.066 4.796-.987.686-1.88 1.5-2.82 2.25-.825.888-1.721 1.716-2.475 2.665-2.99 3.762-4.936 8.56-4.502 13.434.105 1.175.483 2.31.724 3.464.538 1.087.953 2.243 1.615 3.26 3.113 4.779 8.509 7.647 13.914 9.002 1.483.372 3.013.524 4.52.785 5.543.414 11.2-.257 16.067-3.13 2.216-1.309 3.133-2.35 4.945-4.06.536-.754 1.148-1.458 1.606-2.261 1.957-3.432 2.28-7.598 1.696-11.44-.159-1.045-.46-2.064-.69-3.097-1.592-4.965-4.5-9.385-8.653-12.586-.7-.54-1.468-.985-2.201-1.477-.873-.4-1.71-.89-2.62-1.201-3.619-1.24-7.754-.76-11.265.599-.927.359-1.786.874-2.679 1.31" style="fill:#e5f6ff;fill-opacity:1;stroke:#000;stroke-width:1;stroke-dasharray:none"/><path d="M-348.907 32.849c-4.23-1.14-8.664-1.262-12.995-.674-1.49.203-2.96.533-4.44.799-9.634 2.398-18.777 6.826-26.304 13.364-1.55 1.347-2.933 2.873-4.4 4.31-4.741 5.72-8.436 12.338-8.66 19.945-.136 4.573.529 5.542 1.816 9.854.795 1.514 1.443 3.116 2.385 4.543 3.026 4.586 7.372 8.023 12.315 10.341 4.394 2.061 6.24 2.19 10.957 3.23 1.93.176 3.852.466 5.788.53 6.952.232 14.093-1.012 20.622-3.389 1.238-.45 2.425-1.03 3.638-1.545 2.177-1.09 4.373-2.269 6.113-4.009.355-.355.924-1.084.791-1.254-.112-.144-.36-.058-.54-.087-1.947 2.36-1.188 5.8-.075 8.37.46 1.063 1.09 2.043 1.635 3.065.82 1.058 1.561 2.181 2.46 3.173 4.424 4.888 10.242 8.412 16.489 10.44 1.552.505 3.162.81 4.743 1.214 1.527.206 3.044.51 4.58.617 4.28.297 9.709-.103 12.868-3.469.608-.647.96-1.493 1.44-2.24.247-.794.579-1.567.74-2.382.428-2.167.193-4.87-1.325-6.605-.174-.2-.419-.327-.628-.49-.253-.023-.542-.203-.757-.07-.44.272.144 1.773.145 1.776.997 2.319 2.894 4.147 4.562 5.968 5.828 5.677 12.88 9.907 20.187 13.402 1.596.763 3.234 1.432 4.85 2.148 10.107 3.856 20.95 5.522 31.748 5.545 2.405.005 4.807-.166 7.21-.25 8.329-.761 16.687-2.506 24.044-6.653 3.355-1.89 3.969-2.665 6.71-5.084.645-.854 1.406-1.632 1.935-2.562 1.34-2.356 1.644-5.129.672-7.67-.706-1.847-1.54-2.595-2.777-4.072-1.467-1.453-3.15-2.653-4.946-3.663-.407-.23-1.512-.9-2.172-.936-.124-.007-.23.096-.344.144.03.146.018.308.09.439.29.53 1.067 1.19 1.476 1.514 1.976 1.568 4.16 2.555 6.457 3.555 6.465 2.347 13.406 3.276 20.273 2.952 1.658-.079 3.306-.303 4.96-.454 6.677-.907 13.151-2.942 18.906-6.499 3.89-2.403 4.364-3.111 7.754-6.17 6.488-6.626 10.15-14.404 12.16-23.401.39-1.746.605-3.527.909-5.29.736-6.996.255-14.138-2.94-20.528-2.072-4.145-2.967-4.674-6.032-8.06-1.303-1.035-2.529-2.179-3.911-3.107a36.145 36.145 0 0 0-13.565-5.502c-3.671-.67-4.591-.468-8.196-.371-2.668.332-5.328.944-7.641 2.375-.453.28-1.25.869-1.483 1.46-.04.103.038.218.056.326.246.035.496.167.736.105.253-.065.452-.272.635-.459 1.12-1.14 1.504-2.75 1.459-4.316-.023-.804-.216-1.594-.323-2.39-.311-.903-.54-1.837-.933-2.707-2.288-5.054-6.359-9.268-10.984-12.25-1.545-.997-3.214-1.788-4.821-2.681-1.708-.685-3.375-1.484-5.124-2.055-6.89-2.249-14.545-2.97-21.713-1.767-1.58.265-3.112.767-4.668 1.15-1.372.623-2.81 1.118-4.117 1.869-3.366 1.933-6.252 4.86-7.74 8.488-1.088 2.657-.845 3.494-.876 6.253.21.932.33 1.888.63 2.795.77 2.33 2.603 5.175 4.758 6.495.326.2.702.302 1.053.453.132-.086.357-.107.396-.26.146-.575-.688-1.878-.837-2.11-1.767-2.759-4.192-4.947-6.52-7.214-4.754-4.403-9.612-8.73-15.049-12.288-4.723-3.09-6.208-3.668-11.377-6.317-9.577-4.392-19.76-7.379-30.234-8.613-7.573-.892-9.82-.66-17.427-.642-2.87.249-5.755.372-8.611.747-9.859 1.296-20.054 4.032-28.39 9.664-1.563 1.056-2.93 2.377-4.397 3.565-.996 1.278-2.162 2.441-2.99 3.835-2.066 3.48-2.528 7.486-.92 11.234 1.23 2.867 2.5 3.82 4.59 6.038l3.034 2.283" style="fill:#363636;stroke:#000;stroke-width:1.3"/><path d="M380.145 63.859c.614-.885 1.385-1.404 2.199-1.97.473-.234.935-.505 1.42-.7 2.63-1.058 5.03-1.055 7.613.175.428.248.879.446 1.284.745 2.302 1.705 3.736 4.52 4.421 7.606.14 1.467.296 1.957.004 3.414-.537 2.688-2.319 4.453-4.185 5.841-.626.356-1.233.766-1.88 1.067-3.609 1.68-7.511 1.804-11.244.691-.651-.272-1.321-.488-1.954-.817-1.871-.972-3.618-2.642-4.207-5.078-.114-.472-.126-.971-.188-1.457.05-.478.058-.965.153-1.434.637-3.172 2.717-5.516 4.889-7.256.544-.345 1.072-.728 1.632-1.035 2.018-1.108 4.257-1.73 6.477-1.458" style="fill:#e5f6ff;fill-opacity:1;stroke:#000;stroke-width:1;stroke-dasharray:none"/><path d="M-63.462 85.753c2.39.505 3.415 2.482 3.67 4.823.309 2.83-.134 5.872-2.245 8.068-2.705 2.708-6.786 4.354-10.598 3.385-4.176-1.005-7.573-4.773-7.881-9.087-.185-2.644.925-5.277 2.668-7.278 3.17-3.637 7.877-3.736 12.3-1.293 1.134.626 3.056 2.436 3.328 3.488" style="display:inline;fill:#e5f6ff;fill-opacity:1;stroke:#000;stroke-width:.927097;stroke-miterlimit:10;stroke-dasharray:none;stroke-opacity:1"/><path d="M302.585-405.323c-5.646-.313-11.38.817-16.68 3.038-9.354 3.918-17.07 12.352-22.043 22.285-3.31 6.612-3.409 14.652-1.896 22.03 1.932 9.425 8.463 16.343 15.684 20.263 12.305 6.678 27.523 7.808 38.891 4.439 2.275-.675 7.99-2.91 5.877-4.034-1.526-.81-1.902.565-1.888 2.444.017 2.318.89 4.776 3.082 7.465 4.165 5.108 10.238 7.97 16.3 9.545 6.377 1.659 13.154 1.299 19.378-.919 3.261-1.162 6.707-2.76 8.729-5.848.164-.25.416-1.803-.28-1.953-1.7-.367-.978 1.2-.744 1.734.759 1.73 3.178 3.747 4.79 4.824 8.785 5.868 19.338 7.813 29.49 8.748 10.147.935 20.79.35 30.284-3.941 3.79-1.714 8.5-4.62 9.649-8.048.935-2.792-.16-5.847-2.558-7.183-1.333-.743-.764.258-.053.757 4.205 2.949 9.102 4.98 13.908 6.378 10.668 3.106 20.278 2.668 30.246.983 18.536-3.134 36.904-14.864 44.625-33.746 4.09-10.003 3.59-24.491-1.624-34.505-6.678-12.825-14.377-19.984-26.994-24.501-8.673-3.106-20.498-3.57-29.247.332-1.58.704-3.742 2.617-2.532 2.745 1.307.138-.776-3.42-1.52-4.396-3.11-4.092-8.13-8.41-12.038-10.434-7.343-3.803-15.839-5.633-24.026-5.11-7.495.478-15.257 2.763-20.742 8.567-2.363 2.5-4.946 7.296-2.454 9.753.604.595 1.635.677.852-.152-8.433-8.92-20.15-13.152-31.524-15.893-20.076-4.838-41.661-2.984-60.704 5.288-6.225 2.704-12.91 6.856-15.506 12.871-1.143 2.649-1.025 6.849 1.126 8.336M338.886-206.67c-5.646-.323-11.38.842-16.68 3.132-9.354 4.04-17.07 12.736-22.043 22.978-3.31 6.817-3.409 15.107-1.896 22.714 1.932 9.718 8.422 16.93 15.684 20.892 11.084 6.047 23.996 7.213 33.466 4.577 2.29-.637 7.99-3 5.6-4.146-2.232-.91-2.714.656-2.696 2.797.022 2.64 1.14 5.44 3.95 8.502 5.337 5.819 13.118 9.078 20.886 10.873 8.172 1.889 16.856 1.48 24.831-1.047 4.18-1.324 8.595-3.144 11.186-6.661.21-.286.638-2.201-.328-2.817-1.77-1.13-1.055.645-.795 1.196.842 1.783 3.528 3.863 5.316 4.973 9.752 6.05 21.467 8.056 32.737 9.02 11.262.964 23.077.361 33.615-4.063 4.208-1.767 8.89-5.027 10.711-8.299 1.174-2.108 1.74-6.028-1.036-7.34-3.687-.514 1.224 2.33 5.51 3.613 9.517 2.851 18.089 2.45 26.981.902 16.535-2.876 32.926-13.641 39.799-30.991 4.09-10.324 3.584-25.266-1.631-35.591-6.678-13.223-14.377-20.605-26.994-25.263-8.673-3.201-20.498-3.68-29.247.343-1.58.726-3.742 2.698-2.532 2.83 1.307.143-.776-3.526-1.52-4.532-3.11-4.219-8.13-8.672-12.038-10.758-7.343-3.921-15.822-5.908-24.026-5.969-8.851-.066-18.565 3.667-24.582 9.08-2.523 2.268-3.606 5.538-3.564 6.874.023.72 1.525.914 1.055-.157-2.217-5.051-10.995-11.428-22.98-14.791-21.347-5.992-50.612-1.679-65.586 6.57-5.986 3.3-11.826 7.991-14.42 14.193-1.144 2.731-1.026 7.061 1.125 8.595M-159.94-154.554c-5.647-.323-11.38.842-16.68 3.132-9.355 4.04-17.072 12.737-22.044 22.978-3.31 6.818-3.408 15.107-1.896 22.715 1.933 9.718 8.422 16.93 15.684 20.891 11.084 6.048 23.997 7.213 33.466 4.577 2.291-.637 7.99-3 5.6-4.146-2.231-.91-2.714.657-2.696 2.797.022 2.64 1.14 5.44 3.95 8.503 5.337 5.818 13.118 9.077 20.886 10.872 8.173 1.89 16.857 1.48 24.832-1.047 4.178-1.323 8.595-3.144 11.185-6.66.21-.286.638-2.202-.327-2.818-1.771-1.13-1.056.645-.796 1.196.843 1.784 3.528 3.864 5.317 4.973 9.752 6.051 21.467 8.057 32.736 9.02 11.263.964 23.077.361 33.615-4.063 4.208-1.767 8.89-5.027 10.712-8.298 1.173-2.11 1.74-6.029-1.036-7.34-3.688-.514 1.223 2.328 5.51 3.613 9.517 2.85 18.088 2.449 26.98.902 16.535-2.877 32.926-13.642 39.8-30.992 4.09-10.324 3.309-24.17-2.015-34.44-4.569-8.812-13.02-16.828-25.268-22.385-10.015-4.545-21.712-4.242-28.096-2.727-3.196.758-4.7 2.123-3.49 2.255 1.306.143-.15-3.543-.561-4.724-1.002-2.876-7.284-8.666-11.08-10.95-9.069-5.455-20.618-7.058-28.054-6.16-8.788 1.06-17.99 3.858-24.007 9.27-2.522 2.27-3.606 5.54-3.564 6.875.023.72 1.526.914 1.055-.157-2.217-5.05-10.995-11.428-22.979-14.791-21.348-5.992-50.613-1.679-65.586 6.571-5.987 3.299-11.826 7.99-14.422 14.192-1.143 2.731-1.025 7.062 1.127 8.596M-96.058 312.014c-4.833.627-10.423 2.871-15.596 5.438-7.048 3.498-15.443 10.295-20.415 20.537-3.31 6.817-3.816 16.328-2.303 23.935 1.932 9.718 8.422 16.93 15.684 20.892 11.084 6.047 23.996 7.212 33.466 4.577 2.29-.638 7.99-3 5.6-4.146-2.232-.91-2.714.656-2.696 2.796.021 2.64 1.14 5.44 3.95 8.503 5.337 5.818 13.118 9.077 20.886 10.873 8.172 1.888 16.856 1.479 24.831-1.047 4.179-1.324 8.595-3.144 11.186-6.661.21-.286.638-2.202-.328-2.817-1.77-1.13-1.055.645-.795 1.195.842 1.784 3.528 3.864 5.316 4.974 9.752 6.05 21.467 8.056 32.737 9.02 11.262.964 23.076.36 33.615-4.064 4.208-1.766 8.89-5.027 10.711-8.298 1.174-2.109 1.74-6.029-1.036-7.34-3.687-.514 1.224 2.329 5.51 3.613 9.517 2.85 18.089 2.45 26.981.902 16.535-2.877 32.926-13.641 39.799-30.992 4.09-10.324 3.31-24.17-2.015-34.44-4.568-8.811-12.633-16.816-25.268-21.426-10.878-3.969-19.218-3.858-26.178-2.726-3.241.527-4.7 2.122-3.49 2.254 1.307.143-.079-3.57-.56-4.724-2.92-7-10.408-11.789-14.341-13.827-8.494-4.4-19.275-5.14-26.712-4.242-8.787 1.061-17.99 3.859-24.006 9.27-2.523 2.27-3.606 5.54-3.564 6.875l1.055-.728c-2.217-5.275-10.53-11.68-22.437-15.447-24.06-7.613-53.325-2.838-66.942 6.862-5.626 4.008-11.013 8.345-13.608 14.821-.887 2.215-1.015 5.436-.02 7.516" style="fill:#e5f6ff;fill-opacity:1;stroke:#000;stroke-width:1.3"/></svg>