<svg xmlns="http://www.w3.org/2000/svg" xmlns:xlink="http://www.w3.org/1999/xlink" width="800" height="150" aria-hidden="true" viewBox="0 -20.032 800 150"><defs><path id="a" stroke-width="1" d="M299-156H88v818h211v-25h-83c-34 0-52-12-52-48V-77c0-40 19-54 52-54h83z"/><path id="b" stroke-width="1" d="M287 676 59-14H-9l229 690z"/><path id="c" stroke-width="1" d="M245-156H34v25h88c35 0 47 15 47 46v668c0 35-13 54-51 54H34v25h211z"/><path id="d" stroke-width="1" d="m597 22-46-47-231 230L89-25 43 21l230 231L43 483l47 46 230-230 231 230 46-45-230-232Z"/><path id="e" stroke-width="1" d="M637 320H48v66h589zm0-200H48v66h589z"/><path id="f" stroke-width="1" d="m304-161-12-16C134-87 48 82 48 252c0 185 87 329 247 424l9-16C165 541 134 448 134 255c0-186 30-299 170-416Z"/><path id="g" stroke-width="1" d="m29 660 12 16c153-92 244-259 244-429 0-185-88-327-247-424l-9 16C171-44 199 50 199 244c0 187-25 302-170 416Z"/></defs><path d="M264.169 206.672c.352-.667.22-1.375.076-2.113-1.595-8.163-7.97-11.333-14.499-13.516-7.847-2.624-17.037-2.608-24.519-1.37-5.756.951-10.63 2.507-14.77 5.643-2.338 1.77-2.863 4.529-.605 6.49 2.914 2.532 6.823 3.138 7.397 2.893M-43.537-63.69c-1.918 1.38-4.303 3.423-3.462 6.082 1.111 2.604 3.891 4.336 6.31 5.368 5.026 2.144 10.162 3.034 15.443 3.785 11.755 1.673 23.837 1.073 35.418-1.464 4.01-.878 8.207-2.103 11.366-4.852 2.224-2.031-.391-4.688-2.39-5.574-.57-.28-1.24-.447-1.874-.426-1.6 1.83 1.597 3.342 2.945 4.194 4.773 2.74 9.748 4.534 15.092 5.754 7.02 1.833 14.236 2.676 21.495 2.434 5.61.047 12.32-.966 16.582-4.127 1.942-1.44 1.017-3.49-.27-4.98-1.115-1.291-2.227-2.092-4.15-3.085-3.709-.396 1.12 4.146 2.758 4.997 12.743 6.623 27.602 8.43 41.882 7.57 15.336-.923 32.886-6.333 42.205-18.165 6.635-8.425 9.705-19.689 5.726-29.965-2.442-6.307-9.47-9.664-15.836-11.66-11.346-3.56-25.3-2.981-33.826-1.243-2.628.537-10.663 3.1-4.617 4.547 2.764.52.82-3.859.384-5.359-1.906-5.029-6.769-8.09-11.623-9.824-9.338-3.67-19.714-2.899-29.333-.856-4.544 1.22-9.537 2.258-12.97 5.725-1.667 1.543-1.203 4.277.578 5.596 1.543 1.143 3.1 2.61 6.022 2.745-1.387-2.354-4.987-4.8-7.973-6.66-8.072-5.025-19.742-9.752-31.433-12.396-10.322-2.335-21.303-3.48-31.93-1.957-4.537.65-9.867 2.833-11.095 7.756-.968 3.707 1.396 7.426 4.675 9.05 1.26.624 3.503 1.165 2.617-.204-3.452-4.627-10.67-8.216-17.014-8.767-5.757-.5-12.003.066-17.16 2.977-2.224 1.255-4.132 3.49-4.544 5.518-.327 1.61-.115 5.521 3.6 7.093l.498-.19c-1.876-1.777-3.39-2.312-5.361-2.802-1.638-.407-3.948-.48-4.48-.494-1.734-.048-5.147-.03-7.633.241-9.39 1.022-17.461 3.999-25.194 8.632-3.247 1.946-5.79 4.352-8.188 6.966-3.64 3.967-6.054 9.563-4.576 15.32.314 1.225.853 2.4 1.521 3.457.738 1.168 1.655 2.22 2.653 3.15 1.142 1.064 2.985 2.805 4.305 3.61 2.512 1.531 4.445 2.527 7.164 3.614 4.143 1.657 11.161 3.212 16.605 4.01 7.437 1.091 14.958.627 22.409-.1 1.906-.186 4.941-.817 7-1.287M-130.911 15.016c-.636-1.418-5.33-3.232-10.824-1.5-3.338 1.052-6.143 3.244-6.403 6.928-.156 2.206.239 3.064 1.267 4.972.463.857 1.196 1.564 1.943 2.201.822.703 2.623 1.966 3.61 2.423 3.445 1.594 5.383 2.085 9.407 2.265 1.081.048 2.165-.17 3.22-.408.96-.217 1.906-.53 2.796-.948 2.373-1.114 4.407-2.987 4.99-5.58.477-2.126.185-3.17-.428-5.184a6.032 6.032 0 0 0-1.202-2.207c-1.881-2.146-6.533-4.792-9.38-4.829" style="fill:#e5f6ff;fill-opacity:1;stroke:#000;stroke-width:1;stroke-dasharray:none"/><use xlink:href="#a" transform="matrix(.01904 0 0 -.01904 79.88 361.413)"/><path d="M7.84-2.002h.44Q7.6.33 4.876.33 3.124.33 1.922-.86.731-2.053.731-4.015q0-2.012 1.292-3.264 1.291-1.252 3.053-1.252 1.062 0 1.953.471.89.46.89 1.131 0 .25-.17.471-.16.22-.47.22-.66 0-.811-.77-.12-.581-.37-.812-.26-.23-1.012-.23-1.341 0-2.022.931-.671.931-.671 2.804 0 1.932.72 3.023Q3.846-.2 5.318-.2q1.982 0 2.523-1.802z" aria-label="c" style="font-size:20.5055px;font-family:Baskerville;-inkscape-font-specification:Baskerville" transform="matrix(.99973 0 0 .99973 86.22 361.413)"/><use xlink:href="#b" x="793" transform="matrix(.01904 0 0 -.01904 79.88 361.413)"/><path d="M.831.26v-2.693h.39c.252.865.703 1.795 1.578 2.168.582.228 1.319.263 1.834-.14.683-.569.73-1.758.018-2.324-1.02-.826-2.397-1.129-3.293-2.124C.676-5.6.711-6.81 1.296-7.606a1.981 1.981 0 0 1 1.703-.924c.71-.036 1.409.308 1.837.87.242-.179.22-.67.494-.73.115.015.324-.064.267.124v2.409c-.12-.028-.335.062-.383-.057-.19-.787-.632-1.567-1.35-1.98-.632-.34-1.552-.23-1.937.428-.355.547-.143 1.314.379 1.676.92.71 2.114.966 3 1.732.528.424.765 1.109.842 1.761.084.815-.25 1.672-.93 2.15-.957.71-2.398.617-3.274-.185-.18-.224-.355-.338-.47-.007-.192.176-.106.674-.439.6H.831z" aria-label="s" style="font-size:20.5055px;font-family:Baskerville;-inkscape-font-specification:Baskerville" transform="matrix(.99973 0 0 .99973 100.272 361.413)"/><use xlink:href="#c" x="1431" transform="matrix(.01904 0 0 -.01904 79.88 361.413)"/><use xlink:href="#d" x="1986" transform="matrix(.01904 0 0 -.01904 79.88 361.413)"/><use xlink:href="#a" x="2849" transform="matrix(.01904 0 0 -.01904 79.88 361.413)"/><path d="M.831.26v-2.693h.39c.252.865.703 1.795 1.578 2.168.582.228 1.319.263 1.834-.14.683-.569.73-1.758.018-2.324-1.02-.826-2.397-1.129-3.293-2.124C.676-5.6.711-6.81 1.296-7.606a1.981 1.981 0 0 1 1.703-.924c.71-.036 1.409.308 1.837.87.242-.179.22-.67.494-.73.115.015.324-.064.267.124v2.409c-.12-.028-.335.062-.383-.057-.19-.787-.632-1.567-1.35-1.98-.632-.34-1.552-.23-1.937.428-.355.547-.143 1.314.379 1.676.92.71 2.114.966 3 1.732.528.424.765 1.109.842 1.761.084.815-.25 1.672-.93 2.15-.957.71-2.398.617-3.274-.185-.18-.224-.355-.338-.47-.007-.192.176-.106.674-.439.6H.831z" aria-label="s" style="font-size:20.5055px;font-family:Baskerville;-inkscape-font-specification:Baskerville" transform="matrix(.99973 0 0 .99973 140.466 361.413)"/><use xlink:href="#c" x="3542" transform="matrix(.01904 0 0 -.01904 79.88 361.413)"/><use xlink:href="#e" x="4153" transform="matrix(.01904 0 0 -.01904 79.88 361.413)"/><use xlink:href="#a" x="5116" transform="matrix(.01904 0 0 -.01904 79.88 361.413)"/><path d="M7.84-2.002h.44Q7.6.33 4.876.33 3.124.33 1.922-.86.731-2.053.731-4.015q0-2.012 1.292-3.264 1.291-1.252 3.053-1.252 1.062 0 1.953.471.89.46.89 1.131 0 .25-.17.471-.16.22-.47.22-.66 0-.811-.77-.12-.581-.37-.812-.26-.23-1.012-.23-1.341 0-2.022.931-.671.931-.671 2.804 0 1.932.72 3.023Q3.846-.2 5.318-.2q1.982 0 2.523-1.802z" aria-label="c" style="font-size:20.5055px;font-family:Baskerville;-inkscape-font-specification:Baskerville" transform="matrix(.99973 0 0 .99973 183.648 361.413)"/><use xlink:href="#c" x="5910" transform="matrix(.01904 0 0 -.01904 79.88 361.413)"/><use xlink:href="#f" x="6243" transform="matrix(.01904 0 0 -.01904 235.583 -224.437)"/><path d="M7.84-2.002h.44Q7.6.33 4.876.33 3.124.33 1.922-.86.731-2.053.731-4.015q0-2.012 1.292-3.264 1.291-1.252 3.053-1.252 1.062 0 1.953.471.89.46.89 1.131 0 .25-.17.471-.16.22-.47.22-.66 0-.811-.77-.12-.581-.37-.812-.26-.23-1.012-.23-1.341 0-2.022.931-.671.931-.671 2.804 0 1.932.72 3.023Q3.846-.2 5.318-.2q1.982 0 2.523-1.802z" aria-label="c" style="font-size:20.5055px;font-family:Baskerville;-inkscape-font-specification:Baskerville" transform="matrix(.99973 0 0 .99973 360.81 -224.437)"/><use xlink:href="#e" x="7314" transform="matrix(.01904 0 0 -.01904 235.583 -224.437)"/><g aria-label="cells" style="font-size:20.5055px;font-family:Baskerville;-inkscape-font-specification:Baskerville"><path d="M401.034-226.439h.44q-.68 2.332-3.403 2.332-1.752 0-2.953-1.19-1.19-1.192-1.19-3.154 0-2.012 1.29-3.263 1.292-1.251 3.053-1.251 1.061 0 1.952.47.891.46.891 1.131 0 .25-.17.47-.16.22-.47.22-.661 0-.811-.77-.12-.58-.37-.81-.26-.23-1.012-.23-1.341 0-2.022.93-.67.931-.67 2.803 0 1.932.72 3.023.731 1.09 2.203 1.09 1.982 0 2.522-1.8zM410.143-229.862h-5.716q-.04.59-.04.88 0 2.163.671 3.254.68 1.08 2.022 1.08 1.822 0 2.582-1.63h.48q-.32 1.02-1.27 1.6-.951.571-2.072.571-1.041 0-1.972-.52-.921-.53-1.512-1.492-.59-.96-.59-2.332 0-1.942 1.14-3.223 1.142-1.291 2.854-1.291 1.611 0 2.492.98.88.982.93 2.123zm-1.752-.4q.03-.23.03-.411 0-.88-.52-1.361-.51-.49-1.261-.49-1.822 0-2.173 2.261zM414.067-238.2v10.95q0 1.312.03 1.652.04.34.29.52.25.18.89.18h.241v.461h-4.384v-.46h.28q.6 0 .851-.16.26-.17.31-.471.05-.3.05-1.722v-8.108q0-1.29-.23-1.621-.23-.34-1.121-.34v-.461q.61 0 1.431-.14.831-.14 1.142-.28zM418.982-238.2v10.95q0 1.312.03 1.652.04.34.29.52.25.18.89.18h.241v.461h-4.384v-.46h.28q.6 0 .85-.16.261-.17.311-.471.05-.3.05-1.722v-8.108q0-1.29-.23-1.621-.23-.34-1.121-.34v-.461q.61 0 1.431-.14.831-.14 1.141-.28zM421.584-224.177v-2.692h.39q.681 2.332 2.433 2.332.76 0 1.131-.46.38-.461.38-1.012 0-.64-.4-1.05-.41-.41-1.592-.992-1.24-.61-1.781-1.2-.54-.581-.54-1.432 0-.81.58-1.542.58-.74 1.631-.74 1.071 0 1.772.87.15-.15.39-.73h.37v2.532h-.37q-.2-.91-.78-1.561-.57-.66-1.352-.66-.6 0-.97.37-.371.37-.371.86 0 .54.41.931.4.4 1.532.911 1.702.77 2.082 1.502.38.74.38 1.421 0 1.071-.71 1.742-.701.67-1.772.67-1.131 0-2.012-.93-.27.3-.44.86z"/></g><use xlink:href="#g" x="10083" transform="matrix(.01904 0 0 -.01904 235.583 -224.437)"/><text xml:space="preserve" x="135.035" y="-96.599" style="font-style:normal;font-variant:normal;font-weight:400;font-stretch:normal;font-size:20.5px;font-family:Baskerville;-inkscape-font-specification:Baskerville;fill:none;stroke:#000;stroke-width:0;stroke-dasharray:none"><tspan x="135.035" y="-96.599">=</tspan></text><path d="M229.379-165.657h-.553q-2.674-3.324-2.674-7.6 0-4.044 2.586-7.279h.553q-1.273 1.401-1.962 3.307-.68 1.906-.68 3.916 0 2.49.792 4.492.8 2.01 1.938 3.163zM282.67-165.657q1.13-1.154 1.922-3.164.801-2.002.801-4.492 0-1.914-.649-3.828-.648-1.914-1.994-3.395h.561q2.587 3.235 2.587 7.28 0 4.275-2.675 7.598z" style="font-size:20.5px;font-family:Baskerville;-inkscape-font-specification:Baskerville;stroke:#000;stroke-width:.3;stroke-dasharray:none"/><g style="stroke-width:1.25"><g style="font-size:20.5055px;font-family:Baskerville;-inkscape-font-specification:Baskerville;stroke-width:1.25"><path d="M7.84-2.002h.44Q7.6.33 4.876.33 3.124.33 1.922-.86.731-2.053.731-4.015q0-2.012 1.292-3.264 1.291-1.252 3.053-1.252 1.062 0 1.953.471.89.46.89 1.131 0 .25-.17.471-.16.22-.47.22-.66 0-.811-.77-.12-.581-.37-.812-.26-.23-1.012-.23-1.341 0-2.022.931-.671.931-.671 2.804 0 1.932.72 3.023Q3.846-.2 5.318-.2q1.982 0 2.523-1.802z" aria-label="c" style="stroke-width:1.25" transform="matrix(.79979 0 0 .79979 239.266 365.064)"/></g></g><use xlink:href="#e" x="7314" style="stroke-width:1.25" transform="matrix(.01523 0 0 -.01523 139.085 365.064)"/><g style="stroke-width:1.25"><g aria-label="cells" style="font-size:20.5055px;font-family:Baskerville;-inkscape-font-specification:Baskerville;stroke-width:1.25"><path d="M7.84-2.002h.44Q7.6.33 4.876.33 3.124.33 1.922-.86.731-2.053.731-4.015q0-2.012 1.292-3.264 1.291-1.252 3.053-1.252 1.062 0 1.953.471.89.46.89 1.131 0 .25-.17.471-.16.22-.47.22-.66 0-.811-.77-.12-.581-.37-.812-.26-.23-1.012-.23-1.341 0-2.022.931-.671.931-.671 2.804 0 1.932.72 3.023Q3.846-.2 5.318-.2q1.982 0 2.523-1.802zM16.951-5.427h-5.717q-.04.591-.04.881 0 2.163.67 3.254.682 1.082 2.023 1.082 1.823 0 2.583-1.632h.481Q16.631-.821 15.68-.24q-.95.57-2.072.57-1.041 0-1.973-.52-.92-.53-1.511-1.492-.591-.961-.591-2.333 0-1.942 1.141-3.224 1.142-1.292 2.854-1.292 1.612 0 2.493.982.881.98.931 2.122zm-1.752-.4q.03-.23.03-.41 0-.882-.52-1.362-.511-.491-1.262-.491-1.823 0-2.173 2.263zM20.876-13.767v10.954q0 1.311.03 1.652.04.34.29.52.25.18.891.18h.24V0h-4.385v-.46h.28q.601 0 .852-.16.26-.171.31-.471.05-.3.05-1.722v-8.11q0-1.292-.23-1.623-.23-.34-1.122-.34v-.46q.611 0 1.432-.14.831-.14 1.142-.281zM25.792-13.767v10.954q0 1.311.03 1.652.04.34.29.52.25.18.892.18h.24V0h-4.386v-.46h.28q.602 0 .852-.16.26-.171.31-.471.05-.3.05-1.722v-8.11q0-1.292-.23-1.623-.23-.34-1.121-.34v-.46q.61 0 1.431-.14.831-.14 1.142-.281zM28.395.26v-2.693h.39c.252.865.703 1.795 1.579 2.168.582.228 1.318.263 1.834-.14.682-.569.73-1.758.018-2.324-1.02-.826-2.397-1.129-3.293-2.124-.683-.748-.648-1.958-.063-2.753a1.981 1.981 0 0 1 1.703-.924c.71-.036 1.409.308 1.837.87.243-.179.221-.67.494-.73.115.015.325-.064.267.124v2.409c-.12-.028-.335.062-.383-.057-.19-.787-.632-1.567-1.35-1.98-.632-.34-1.552-.23-1.936.428-.355.547-.143 1.314.378 1.676.92.71 2.114.966 3 1.732.529.424.765 1.109.843 1.761.083.815-.251 1.672-.93 2.15-.957.71-2.399.617-3.275-.185-.18-.224-.354-.338-.47-.007-.192.176-.106.674-.438.6h-.205z" style="stroke-width:1.25" transform="matrix(.79979 0 0 .79979 265.176 365.064)"/></g></g><path d="M203.629-220.292h-.691q-3.343-4.154-3.343-9.5 0-5.054 3.233-9.098h.69q-1.591 1.752-2.452 4.134-.85 2.382-.85 4.895 0 3.113.99 5.615 1.001 2.513 2.423 3.954zM211.366-227.189h.44q-.68 2.333-3.403 2.333-1.751 0-2.953-1.192-1.19-1.19-1.19-3.153 0-2.012 1.29-3.263 1.292-1.251 3.054-1.251 1.06 0 1.951.47.891.46.891 1.131 0 .25-.17.47-.16.221-.47.221-.66 0-.811-.77-.12-.581-.37-.811-.26-.23-1.011-.23-1.342 0-2.022.93-.671.931-.671 2.803 0 1.932.72 3.023.731 1.091 2.203 1.091 1.982 0 2.522-1.802zM246.106-227.189h.44q-.68 2.333-3.403 2.333-1.752 0-2.953-1.192-1.191-1.19-1.191-3.153 0-2.012 1.291-3.263t3.053-1.251q1.061 0 1.952.47.89.46.89 1.131 0 .25-.17.47-.16.221-.47.221-.66 0-.81-.77-.12-.581-.371-.811-.26-.23-1.011-.23-1.341 0-2.022.93-.67.931-.67 2.803 0 1.932.72 3.023.73 1.091 2.202 1.091 1.982 0 2.523-1.802zM255.215-230.612h-5.716q-.04.59-.04.88 0 2.163.67 3.254.681 1.081 2.023 1.081 1.821 0 2.582-1.632h.48q-.32 1.021-1.27 1.602-.952.57-2.073.57-1.04 0-1.972-.52-.92-.53-1.511-1.491-.59-.961-.59-2.333 0-1.942 1.14-3.223 1.142-1.291 2.853-1.291 1.612 0 2.493.98.88.982.93 2.123zm-1.752-.4q.03-.23.03-.41 0-.882-.52-1.362-.511-.49-1.262-.49-1.822 0-2.172 2.262zM259.138-238.95V-228q0 1.312.03 1.652.04.34.29.52.251.18.892.18h.24v.461h-4.384v-.46h.28q.6 0 .85-.16.26-.17.311-.47.05-.301.05-1.723v-8.107q0-1.292-.23-1.622-.23-.34-1.121-.34v-.46q.61 0 1.431-.141.83-.14 1.141-.28zM264.053-238.95V-228q0 1.312.03 1.652.04.34.29.52.25.18.891.18h.24v.461h-4.384v-.46h.28q.601 0 .851-.16.26-.17.31-.47.05-.301.05-1.723v-8.107q0-1.292-.23-1.622-.23-.34-1.12-.34v-.46q.61 0 1.43-.141.832-.14 1.142-.28zM266.656-224.927v-2.692h.39q.68 2.332 2.433 2.332.76 0 1.13-.46.381-.46.381-1.011 0-.641-.4-1.051-.41-.41-1.592-.991-1.241-.61-1.782-1.201-.54-.581-.54-1.432 0-.81.58-1.541.58-.741 1.632-.741 1.071 0 1.772.87.15-.15.39-.73h.37v2.532h-.37q-.2-.91-.78-1.561-.571-.66-1.352-.66-.6 0-.971.37-.37.37-.37.86 0 .541.41.931.4.4 1.532.911 1.701.771 2.082 1.502.38.74.38 1.421 0 1.071-.71 1.742-.701.67-1.772.67-1.132 0-2.012-.93-.27.3-.44.86zM272.552-220.292q1.41-1.441 2.402-3.954 1-2.502 1-5.615 0-2.393-.81-4.785-.81-2.392-2.492-4.244h.7q3.233 4.044 3.233 9.099 0 5.345-3.343 9.499z" style="font-size:20.5px;font-family:Baskerville;-inkscape-font-specification:Baskerville;stroke:#000;stroke-width:0"/><use xlink:href="#e" x="7314" transform="matrix(.01904 0 0 -.01904 77.996 -224.876)"/><path d="M105.78 352.108c-2.307 2.55-4.4 5.281-5.807 7.855-.329.591-.304 1.5.454 1.73.744.381 1.576.534 2.357.822 1.5-1.592-.258-2.812-.76-2.073-.439.155-.904.279-1.373.226-.41.336.536.735.781.96.266.15.993.598.965.542-.375-.605.329-1.23.534-1.785 1.272-2.202 3.175-4.716 5.091-6.936l-2.243-1.34zM146.479 353.095a10.307 10.307 0 0 1 2.726-1.034c-.63-.19-1.636-.11-2.4-.19-.806.116-1.047 1.435-1.811 1.736-1.46 1.838-2.825 3.75-4.19 5.657-.641.959-1.235 1.987-1.447 3.134.687.299 2.385.71 3.646.368.342-2.475 2.025-4.428 3.35-6.444.943-1.436 2.096-2.73 2.946-4.23-.957-.218-1.89-.552-2.868-.67-.79.331-1.578 1.416-1.84 2.658z" style="fill:red;fill-opacity:.7;stroke:#000;stroke-width:0;stroke-dasharray:none"/><path d="M107.402 247.372c-1.876-1.69-3.39-2.199-5.361-2.664-1.637-.387-3.947-.456-4.48-.47-1.733-.045-5.165-.05-7.633.34-8.725 1.374-16.705 3.902-24.373 8.408-1.548.91-2.99 1.989-4.484 2.983-1.235 1.11-2.55 2.134-3.704 3.327-3.644 3.768-6.874 9.091-5.397 14.564.315 1.165.853 2.281 1.522 3.287.738 1.11 1.655 2.11 2.652 2.994a22.972 22.972 0 0 0 3.725 2.66c2.512 1.456 5.088 2.816 7.745 3.988 5.07 2.236 11.16 3.274 16.604 4.033 7.438 1.037 14.974.744 22.41-.096.84-.094 2.316.126 2.899-.649" style="fill:none;fill-opacity:1;stroke:#000;stroke-width:1;stroke-dasharray:none"/><path d="M142.022 240.91c-3.451-4.627-10.67-8.216-17.014-8.767-5.757-.5-12.002.066-17.159 2.977-2.224 1.255-4.133 3.49-4.545 5.518-.327 1.61-.115 5.521 3.6 7.093" style="fill:none;fill-opacity:1;stroke:#000;stroke-width:1;stroke-dasharray:none"/><path d="M217.972 246.093c-1.56-3.097-5.755-6.073-8.436-7.548-9.818-5.401-20.083-9.665-31.781-12.28-10.466-2.103-21.29-3.385-31.929-1.957-4.523.743-9.868 2.833-11.095 7.756-.969 3.707 1.401 7.414 4.674 9.05 1.028 1 5.215 2.21 2.617-.204" style="fill:none;fill-opacity:1;stroke:#000;stroke-width:1;stroke-dasharray:none"/><path d="M260.921 247.38c.566.172 1.032.263 1.407-.029.08-1.166.06-.665-.048-2.099-1.533-8.164-7.699-11.332-14.006-13.515-7.58-2.624-15.742-2.374-23.57-1.14-1.769.28-3.536.6-5.267 1.06-3.726.994-7.73 2.016-10.86 4.435-1.014.783-2.162 1.987-2.212 3.376-.045 1.26.551 2.285 1.39 3.032 2.83 2.516 6.048 4.383 9.73 4.302.236-.162.324-.472.487-.709" style="fill:none;fill-opacity:1;stroke:#000;stroke-width:1;stroke-dasharray:none"/><path d="M225.776 291.213c-3.487-.396.961 4.146 2.47 4.997 11.738 6.623 25.425 8.43 38.579 7.57 14.126-.923 28.98-6.333 37.563-18.165 6.112-8.425 10.252-19.689 6.587-29.965-2.25-6.307-8.723-9.664-14.586-11.661-10.452-3.56-23.305-2.98-31.158-1.242-2.421.536-10.087 2.915-4.31 4.633" style="fill:none;fill-opacity:1;stroke:#000;stroke-width:1;stroke-dasharray:none"/><path d="M174.118 291.023c-1.6 1.83 1.596 3.341 2.945 4.194 4.773 2.74 9.747 4.534 15.092 5.754 7.019 1.833 14.235 2.676 21.494 2.434 5.611.046 12.32-.966 16.583-4.127 1.942-1.44 1.016-3.49-.27-4.98-1.115-1.291-2.228-2.093-4.227-3.085" style="fill:none;fill-opacity:1;stroke:#000;stroke-width:1;stroke-dasharray:none"/><path d="M113.306 288.104c-1.918 1.38-4.302 3.423-3.462 6.082 1.112 2.604 4.09 3.466 6.311 4.876 4.765 2.511 10.178 3.423 15.442 4.277 11.77 1.57 23.804.918 35.419-1.464 3.972-1.033 8.206-2.103 11.366-4.852 2.223-2.032-.392-4.688-2.39-5.574-.57-.28-1.24-.447-1.874-.426M28.557 264.435c-.635-1.418-5.33-3.232-10.824-1.5-3.337 1.052-6.143 3.244-6.403 6.928-.155 2.206.24 3.064 1.268 4.972.462.858 1.196 1.564 1.942 2.201.823.703 2.623 1.967 3.61 2.423 3.445 1.595 5.384 2.085 9.408 2.265 1.08.048 2.164-.17 3.219-.408.961-.217 1.907-.53 2.796-.948 2.373-1.114 4.407-2.987 4.99-5.58.477-2.126.186-3.17-.428-5.184a6.033 6.033 0 0 0-1.201-2.207c-1.882-2.146-6.534-4.791-9.381-4.829" style="fill:none;fill-opacity:1;stroke:#000;stroke-width:1;stroke-dasharray:none"/><path d="M-86.915 115.646c6.484 2.062 13.826 1.36 20.113-1.04 16.194-6.183 24.898-29.257 17.229-45.024-5.458-11-16.16-19.546-28.332-21.7-8.263-1.072-17.061.533-23.872 5.521-13.339 8.99-19.165 27.32-13.693 42.405 3.527 10.636 12.74 19.664 24.086 21.225a29.4 29.4 0 0 0 9.44.117" style="fill:#e5f6ff;fill-opacity:1;stroke:#000;stroke-width:.9;stroke-miterlimit:2;stroke-dasharray:none"/><path d="M104.877 183.083c-1.897 2.222-3.824 4.46-5.232 7.035-.329.59-.304 1.5.453 1.729.745.382 1.577.535 2.358.822.95-.152 1.795-.654 2.678-1.01a114.43 114.43 0 0 1 4.674-1.9c.713-.088-.5-.395-.675-.601-.56-.314-1.136-.627-1.77-.76-.978 1.088-2.25 1.844-3.424 2.695-1.1.764-2.2 1.535-3.191 2.437l2.738 1.721c1.578-1.182 3.132-2.397 4.708-3.582.61-.472 1.154-1.03 1.779-1.476.177-.672-.825-1.003-1.228-1.42-.523-.308-.979-1.01-1.565-.44-1.785.853-3.637 1.56-5.485 2.264-.438.155-.903.278-1.372.226-.41.335.536.734.78.96.267.15.994.598.966.541-.375-.605.329-1.23.534-1.785 1.272-2.201 2.928-4.141 4.517-6.115l-2.243-1.34zM144.652 184.862c-2.012 1.153-4.01 2.34-5.896 3.691-.488.89.29 1.922 1.23 1.999 2.389.589 4.843-.019 7.249-.163a10.307 10.307 0 0 1 2.91.19c-.494-.434-1.443-.778-2.104-1.169-.783-.229-1.597.58-2.37.828-2.09 1.067-4.125 2.24-6.16 3.41-.98.606-1.946 1.295-2.615 2.25-.587-.137-1.174-.276-1.76-.414l6.675 3.413-1.75-1.151c1.337-2.11 3.695-3.164 5.72-4.474 1.47-.89 3.041-1.615 4.436-2.626-.78-.595-1.49-1.287-2.331-1.8-1.653-.206-3.316.029-4.97.091-1.242.09-2.541.31-3.746-.101.32.492 1.206 1.175 1.735 1.718.586.55.359-.827 1.006-.837 1.623-1.254 3.448-2.205 5.182-3.292-.814-.52-1.627-1.042-2.441-1.563z" style="fill:red;fill-opacity:.7;stroke:#000;stroke-width:0;stroke-dasharray:none"/><g transform="translate(0 -231)"><path d="M222.717 51.452h-.69q-3.344-4.154-3.344-9.5 0-5.054 3.234-9.098h.69q-1.591 1.751-2.452 4.134-.85 2.382-.85 4.894 0 3.114.99 5.616 1.001 2.512 2.422 3.954zM289.332 51.452q1.411-1.442 2.402-3.954 1.001-2.502 1.001-5.616 0-2.392-.81-4.784-.811-2.393-2.493-4.244h.7q3.234 4.044 3.234 9.099 0 5.345-3.344 9.499z" style="font-size:20.5px;font-family:Baskerville;-inkscape-font-specification:Baskerville;stroke:#000;stroke-width:0"/><path d="M7.84-2.002h.44Q7.6.33 4.876.33 3.124.33 1.922-.86.731-2.053.731-4.015q0-2.012 1.292-3.264 1.291-1.252 3.053-1.252 1.062 0 1.953.471.89.46.89 1.131 0 .25-.17.471-.16.22-.47.22-.66 0-.811-.77-.12-.581-.37-.812-.26-.23-1.012-.23-1.341 0-2.022.931-.671.931-.671 2.804 0 1.932.72 3.023Q3.846-.2 5.318-.2q1.982 0 2.523-1.802z" aria-label="c" style="font-size:20.5055px;font-family:Baskerville;-inkscape-font-specification:Baskerville" transform="matrix(.99973 0 0 .99973 222.772 46.868)"/><use xlink:href="#e" x="7314" transform="matrix(.01904 0 0 -.01904 97.546 46.868)"/><g aria-label="cells" style="font-size:20.5055px;font-family:Baskerville;-inkscape-font-specification:Baskerville"><path d="M262.996 44.866h.44q-.68 2.332-3.402 2.332-1.752 0-2.953-1.191-1.191-1.191-1.191-3.153 0-2.012 1.29-3.263 1.292-1.252 3.054-1.252 1.06 0 1.952.47.89.461.89 1.132 0 .25-.17.47-.16.22-.47.22-.66 0-.81-.77-.121-.58-.371-.81-.26-.231-1.011-.231-1.342 0-2.022.93-.67.932-.67 2.804 0 1.931.72 3.023.73 1.09 2.202 1.09 1.982 0 2.522-1.801zM272.105 41.443h-5.715q-.04.59-.04.88 0 2.162.67 3.254.681 1.08 2.022 1.08 1.822 0 2.583-1.631h.48q-.32 1.021-1.27 1.602-.952.57-2.073.57-1.04 0-1.972-.52-.92-.53-1.511-1.492-.59-.96-.59-2.332 0-1.942 1.14-3.223 1.141-1.292 2.853-1.292 1.612 0 2.492.981.881.981.931 2.123zm-1.751-.4q.03-.231.03-.411 0-.881-.52-1.362-.511-.49-1.262-.49-1.822 0-2.172 2.262zM276.03 33.104v10.951q0 1.311.03 1.652.04.34.29.52.25.18.89.18h.24v.46h-4.384v-.46h.28q.601 0 .851-.16.26-.17.31-.47.05-.3.05-1.722v-8.108q0-1.291-.23-1.621-.23-.34-1.12-.34v-.461q.61 0 1.43-.14.832-.14 1.142-.28zM280.944 33.104v10.951q0 1.311.03 1.652.04.34.29.52.25.18.891.18h.24v.46h-4.384v-.46h.28q.601 0 .851-.16.26-.17.31-.47.05-.3.05-1.722v-8.108q0-1.291-.23-1.621-.23-.34-1.12-.34v-.461q.61 0 1.43-.14.831-.14 1.142-.28zM283.547 47.128v-2.693h.39c.251.865.702 1.795 1.577 2.168.582.228 1.318.262 1.834-.14.682-.569.73-1.758.018-2.323-1.02-.826-2.396-1.129-3.292-2.123-.682-.749-.648-1.958-.063-2.753a1.98 1.98 0 0 1 1.702-.924 2.205 2.205 0 0 1 1.837.87c.243-.179.221-.67.494-.73.115.015.325-.064.267.124v2.408c-.12-.028-.335.062-.383-.057-.19-.786-.632-1.566-1.349-1.979-.632-.34-1.552-.23-1.937.427-.354.547-.142 1.314.379 1.677.92.71 2.113.965 3 1.73.528.424.764 1.11.841 1.762.084.814-.25 1.67-.929 2.149-.957.709-2.398.616-3.274-.186-.18-.223-.354-.337-.47-.006-.192.176-.106.674-.438.6h-.204z"/></g></g><path d="M222.756-157.058h515.811v52.5H222.756z" style="fill:#ffe6d5;fill-opacity:1;stroke:none;stroke-width:.3;stroke-dasharray:none"/><path d="M185.527 209.043c-5.792-.162-11.695.33-17.267 2.136-1.524.494-2.994 1.161-4.491 1.742-6.017 2.938-11.467 7.009-15.32 12.86-.93 1.411-1.853 2.86-2.477 4.454-.665 1.697-.903 3.551-1.355 5.327-.808 8.06.687 16.067 5.644 22.43 3.492 4.481 5.317 5.077 9.986 8.115 2.828 1.276 5.582 2.757 8.483 3.828 7.485 2.764 17.446 4.327 25.323 4.803 7.348.444 11.573-.022 18.922-.448 11.994-1.272 23.886-3.557 35.662-6.284.577-.199 1.169-.358 1.733-.598 3.438-1.455-2.228-3.653-2.858-4.002-3.402-.101-2.682 3.652-1.39 5.86.617 1.055 1.414 1.977 2.122 2.966 4.035 3.61 4.445 4.36 10.158 7.064 8.03 3.8 18.943 2.9 27.48 2.332 9.991-.998 19.73-3.622 28.48-8.93 1.253-.929 2.138-1.719 2.403-3.314M333.084 166.193c.954-1.216 1.67-4.037 1.56-5.998-.445-3.714-2.69-6.301-5.267-8.587-3.614-2.594-7.353-5.144-11.41-6.875-2.717-1.159-3.235-1.19-6.168-1.998-11.131-2.452-22.578-2.81-33.902-3.322-17.489-.43-34.979-.101-52.42 1.335-8.41.825-16.852 1.693-25.116 3.64-3.948.931-8.304 2.164-11.961 4.14-1.295.7-2.425 1.704-3.638 2.556-.657.903-1.518 1.672-1.973 2.708-2.267 5.16 3.733 9.435 6.951 11.813 1.39 2.945 4.32 4.758 6.446 6.052M403.998-37.694c1.15-.027 1.306-3.064.74-5.734-.818-3.855-3.054-8.013-5.236-10.202-7.017-7.037-17.37-11.68-26.836-12.012-10.94-.382-23.351 2.614-31.295 8.667-2.506 1.91-5.094 4.2-6.056 7.338-.608 2.109-.639 3.704.26 4.58" style="fill:none;fill-opacity:1;stroke:#000;stroke-width:1;stroke-dasharray:none"/><path d="M197.883 27.94c-4.339-.637-17.3 2.896-21.943 4.55-10.592 3.774-22.053 11.916-24.511 23.284-3.277 15.158 9.64 23.578 22.162 27.043 19.179 5.306 40.85 3.27 58.448-1.481 2.383-.643 7.229-1.762 7.596-4.256-1.366-.624-2.936 1.005-2.6 2.349.932 3.73 4.278 6.42 7.513 8.43 5.891 3.658 13.634 5.122 20.518 5.166 12.242.078 25.532-1.512 35.112-6.42 3.149-1.613 7.36-3.68 8.429-7.204.304-1.284-1.91-2.192-2.052-.345-.515 6.614 4.758 11.9 9.965 15.209 9.603 6.101 21.247 7.7 32.38 8.076 13.121.442 27.382-.896 38.176-8.13 3.71-2.487 6.98-7.052 6.057-11.567-.615-3.009-1.889-4.341-2.792-4.133-1.609 1.732 1.286 4.98 3.482 6.688 5.592 4.349 12.046 7.623 18.674 10.29 13.029 5.244 36.914 6.903 55.073 3.06 4.923-1.042 9.792-3.085 12.966-6.613 2.12-2.357 2.33-6.09.41-8.924-1.312-1.935-2.319-2.502-2.789-1.848-1.307 1.743 8.298 7.59 11.025 9.115 5.447 3.046 11.046 5.756 16.913 7.788 2.15.745 4.311 1.443 6.502 2.057 14.98 4.2 30.475 6.178 45.95 6.96 3.37.17 6.746.203 10.119.305 12.456-.313 25.633.025 37.38-5.08 1.307-.569 2.525-1.343 3.789-2.014 4.926-3.39 6.751-6.287 5.333-12.368a16.246 16.246 0 0 0-2.887-5.428c-.933-1.074-3.733-2.778-3.414-1.233.975 3.843 7.923 6.544 12.721 7.903 11.398 3.23 21.7 3.075 35.262 1.328 10.59-1.364 25.667-6.413 32.666-14.605 6.678-7.816 8.706-18.296 5.025-28.539-2.16-6.008-7.89-11.23-13.77-14.741-13.167-7.862-31.575-10.327-47.95-9.564-10.977.51-20.543 1.828-29.55 4.416-2.112.606-6.577 2.705-3.715 3.25 1.545.256 8.05.426 3.919-5.442-5.682-8.072-20.324-17.603-32.132-22.518-15.232-6.341-31.122-7.97-45.84-6.435-13.855 1.445-28.604 6.67-35.707 18.748-3.114 5.295-2.955 10.264.086 11.25.587-.188.409-1.269-1.683-3.361-5.358-5.36-14.01-9.408-23.4-12.666-13.88-4.814-31.488-7.53-51.857-7.025-11.561.286-23.316 2.909-31.594 6.653-6.316 2.856-11.918 7.236-13.757 9.975-1.254 1.867-.62 3.975.726 3.748 2.114-.355.934-3.52-1.803-6.324-3.875-3.971-10.221-7.632-18.5-9.933-12.047-3.348-26.427-3.785-38.803-.659-7.628 1.927-14.783 6.608-17.52 10.616-1.608 2.355-2.496 4.167-2.43 6.665.026.951.462 2.183 1.784 2.967.601-.997-.886-3.443-3.101-5.228-3.327-2.68-7.337-5.062-13.464-7.95-9.802-4.621-22.867-6.668-35.14-6.65-11.96.02-27.98 2.65-36.936 8.496-4.16 2.718-7.945 6.646-7.012 11.114.158.757.698 1.434 1.015 2.16" style="fill:#e5f6ff;fill-opacity:1;stroke:#000;stroke-width:.999998;stroke-dasharray:none"/><path d="m199.034 229.168-6.439-5.377c.4.445 1.485.797 1.2 1.333-.192.361-2.884-1.691-.78-.148-3.059-2.2-9.154-6.252-7.117-11.21.414-1.008 1.218-1.774 1.828-2.66 1.136-.875 2.18-1.909 3.41-2.624 3.227-1.877 8.11-3.469 11.57-4.342 8.223-2.077 16.678-2.78 25.064-3.64 17.485-1.345 35.017-1.686 52.545-1.192 11.494.609 23.109 1.126 34.38 3.798 6.349 1.83 7.323 2.23 11.072 4.962 2.527 2.16 4.966 4.65 5.398 8.268.045 1.163.147 2.613-.671 3.524-.178.256-.3.29-.217.495.056.27.058.536.055.815.004.365.087.574-.302.689 1.093.72 2.178 1.454 3.28 2.158.125.08-.241-.178-.347-.286-.797-.807-1.04-1.901-.983-3.046.372-5.181 3.5-9.05 7.166-12.21 1.142-.825 2.24-1.725 3.425-2.476 8.24-5.23 17.702-7.326 27.201-7.477 6.305.271 11.302.614 17.395 2.651 1.631.545 3.21 1.26 4.792 1.954.473.208.95.43 1.365.751 1.105.853 2.117 1.836 3.176 2.754 2.903 3.688 7.351 9.419 4.222 14.373-.266.148-.502.39-.797.446-1.138.217-2.505-1.151.762 1.22.382.277-.787-.526-1.126-.862-1.087-1.076-1.101-1.47-1.756-2.916-.04-.734-.204-1.473-.12-2.203.839-7.302 8.71-11.888 13.968-15.055 1.856-.714 3.676-1.547 5.568-2.141 10.466-3.29 21.547-3.287 32.281-1.83 4.994.836 6.979 1.031 11.831 2.372 6.582 1.819 12.88 4.652 18.92 7.967 3.545 2.15 7.003 4.16 10.465 7.199.819.812 1.379 1.839 2.294 2.514.615.939 1.52 1.555 2.018 2.598.36.413.79 1.323 1.167 1.419-1.055-.293-2.935-1.407 1.543 1.174.284.164-.55-.366-.798-.587-.946-.846-.842-.9-1.488-2.079-.382-1.404-.688-2.124-.6-3.665.28-4.825 3.865-8.505 6.89-11.626 1.438-1.137 2.811-2.373 4.314-3.41 10.537-7.267 23.018-10.74 35.316-12.414 6.812-.434 9.295-.802 16.093-.412 9.519.547 18.86 2.867 27.807 6.334 1.926.85 3.851 1.7 5.778 2.549.807.355 1.648.632 2.422 1.063 4.943 2.756 9.495 6.286 13.658 10.24.793.858 3.503 3.41 3.629 4.846.042.486-.286.529-.591.698-2.062.544-4.147.4-6.236.075-.355-.075-1.32-.496-1.063-.225.729.768 1.742 1.15 2.561 1.804.214.17-.852-.036-.355-.43.27-.214.587-.358.905-.474.571-.207 1.168-.328 1.752-.493 11.448-2.574 23.214-3.175 34.86-3.958 3.034-.022 6.07-.155 9.103-.067 13.156.385 26.225 2.858 38.164 8.983 7.696 4.327 11.557 9.593 11.537 19.055-.185 1.338-.292 2.692-.556 4.015-1.552 7.776-5.711 14.578-10.673 20.347-1.18 1.153-2.299 2.385-3.542 3.46-6.578 5.694-14.712 8.64-22.932 10.232-4.408.688-6.63 1.163-11.1 1.338-6.31.247-12.635-.495-18.823-1.767-4.72-1.11-9.46-2.207-13.958-4.15 5.735 3.797 1.386 1.4 1.28.434.027-.257-.03-.448-.129-.689-.244-.609-.445-1.21-.953-1.625-.204-.28-.192-.158-.153-.51.009-.08.102-.192.04-.236-5.592-4.006-3.8-2.648-2.807-1.664 1.685 1.885 2.956 4.17 3.95 6.54 1.84 6.944.202 10.525-5.222 14.834-1.411.824-2.766 1.772-4.234 2.473-13.425 6.412-28.77 5.79-43.111 6.187-3.932-.133-7.867-.188-11.795-.4-18.173-.98-36.33-3.554-53.897-8.74-2.552-.85-5.124-1.632-7.656-2.547-6.928-2.505-13.546-5.799-19.952-9.558-.593-.335-1.138-.799-1.78-1.005-.454-.146.907.418 1.199.818.264.363-.743-.462-1.112-.699-.61-.39-1.231-.765-1.83-1.175-.268-.183-.52-.388-.78-.582-.93-.664-4.944-4.196-3.966-1.803 1.562 2.362 2.363 4.888 1.437 7.762-.39.66-.679 1.403-1.17 1.98-1.496 1.75-3.62 2.942-5.613 3.836-5.994 2.688-12.45 3.73-18.87 4.427-2.937.143-5.872.432-8.812.428-13.1-.016-26.47-2.67-38.307-8.798-3.526-2.372-11.912-7.498-12.405-12.682.138-.128.235-.341.413-.385.258-.062.928.335.79.093-.258-.45-1.116-1.38-1.234-.869-.031.134 3.85 3.271 3.542 4.18.237.7.586 1.367.712 2.1 1.014 5.907-5.139 9.318-9.103 11.511-4.412 1.898-5.658 2.61-10.42 3.883-8.708 2.327-17.764 3.15-26.714 2.687-8.256-.752-15.161-1.699-22.912-5.065-.9-.39-1.794-.811-2.625-1.348-1.249-.807-2.397-1.78-3.595-2.67-.945-.977-1.964-1.88-2.834-2.934-2.748-3.329-4.497-7.644-3.753-12.117" style="fill:#ffe6d5;fill-opacity:1;stroke:#000;stroke-width:.3;stroke-dasharray:none"/><path d="M469.411 425.275c-.313 2.66-5.896 3.125-8.613 3.883-21.685 6.05-45.091 7.888-67.117 2.235-5.76-1.478-11.57-3.15-16.462-6.729-10.194-7.46-14.113-22.384-8.938-33.615 6.126-13.296 21.492-20.188 35.76-20.188 6.053 0 12.22.67 15.894 1.84" style="fill:none;fill-opacity:1;stroke:#000;stroke-width:1;stroke-dasharray:none"/><path d="M539.664 427.75c-.334 1.4-1.664 3.204-2.564 3.973-2.138 1.491-2.994 2.204-5.516 3.383-7.648 3.576-16.047 5.27-24.41 5.995-7.915.687-15.92.956-23.78-.691-1.51-.316-6.383-1.914-8.405-3.313-1.251-.866-2.606-1.773-3.746-2.774-2.032-1.787-5.251-5.809-4.184-7.891.89-1.216 1.288-1.489 2.568-1.157" style="fill:none;fill-opacity:1;stroke:#000;stroke-width:1;stroke-dasharray:none"/><path d="M709.402 370.9c.86.05 1.135-1.66-1.09-3.946-6.57-6.75-14.067-11.713-22.72-15.953-11.967-5.866-27.365-8.133-41.903-8.153-9.935-.014-18.264 2.736-25.373 7.452-5.423 3.598-8.905 8.452-10.084 13.056-.641 2.503-.897 4.808.084 5.35" style="fill:none;fill-opacity:1;stroke:#000;stroke-width:.999997;stroke-dasharray:none"/><path d="M833.373 375.784c1.537.314 8.871.495 5.417-5.763-4.75-8.609-19.395-18.542-31.746-23.784-15.933-6.763-33.515-8.235-50.509-6.631-16.001 1.574-32.683 7.345-43.254 20.227-4.633 5.648-5.766 10.367-3.783 10.958" style="fill:none;fill-opacity:1;stroke:#000;stroke-width:1;stroke-dasharray:none"/><path d="M845.005 429.151c1.02 4.688 8.086 7.568 12.966 9.018 11.592 3.444 23.925 3.743 35.862 1.416 10.667-2.08 21.407-6.772 28.525-15.509 6.792-8.336 12.39-19.35 9.807-30.505-1.528-6.6-8.024-11.978-14.004-15.722-13.391-8.385-32.112-11.014-48.765-10.2-11.164.545-20.893 1.95-30.054 4.71-2.147.646-6.688 2.885-3.897 3.507" style="fill:none;fill-opacity:1;stroke:#000;stroke-width:1;stroke-dasharray:none"/><path d="M712.121 429.642c-1.35 1.847 8.418 8.083 11.19 9.71 5.54 3.25 11.235 6.14 17.202 8.306 2.186.794 4.384 1.539 6.613 2.194 15.234 4.48 30.993 6.59 46.73 7.423 3.429.181 6.862.217 10.292.325 12.668-.333 26.07.027 38.016-5.417 1.33-.607 2.569-1.432 3.854-2.148 5.01-3.617 6.866-6.706 5.424-13.191-.633-2.127-1.618-4.088-2.936-5.79-.95-1.145-3.797-2.962-3.445-.725" style="fill:none;fill-opacity:1;stroke:#000;stroke-width:.999996;stroke-dasharray:none"/><path d="M621.663 425.613c-1.927 3.181 2.618 6.322 4.75 8.321 5.964 4.452 12.44 8.378 19.436 10.975 18.376 6.114 38.368 7.118 57.32 3.263 5.065-1.353 10.728-2.55 14.46-6.52 2.4-2.887 1.879-7.336-.54-10.05-2.065-2.517-3.416-3.202-5.06-1.982" style="fill:none;fill-opacity:1;stroke:#000;stroke-width:1;stroke-dasharray:none"/><path d="M537.58 427.382c-.548 7.054 5.014 12.742 10.57 16.22 10.154 6.558 22.547 7.984 34.345 8.614 13.925.243 28.306-1.722 40.737-8.322 3.803-2.003 8.084-5.68 7.03-10.48-.937-3.895-4.466-6.69-8.124-7.889l-.475.088M526.506 371.878c.014-3.098-.836-4.28-3.303-6.685-4.201-4.094-8.364-7.393-15.26-11.34-11.743-6.724-26.22-8.427-40.205-8.402-13.63.024-30.599 3.193-42.09 11.072-4.875 3.343-9.053 8.726-7.99 14.592.18.994.795 1.883 1.157 2.835" style="fill:none;fill-opacity:1;stroke:#000;stroke-width:1;stroke-dasharray:none"/><path d="M609.97 368.326c3.71-3.843 2.613-7.755-.342-11.625-4.186-5.481-13.045-9.79-21.813-12.33-13.187-3.818-28.546-4.587-41.914-.272-8.24 2.659-15.969 8.219-18.925 14.652-1.555 3.385-2.101 5-2.46 9.2-.112 1.306.334 3.014 1.903 3.548M953.799 78.776c-.313 2.66-5.878 3.853-8.614 4.539-20.208 5.066-45.091 7.231-67.116 1.58-5.76-1.48-10.915-3.807-15.806-7.386-10.194-7.46-14.769-21.728-9.595-32.959 6.127-13.296 21.493-20.844 35.761-20.844 6.052 0 13.532 1.161 17.206 2.332" style="fill:none;fill-opacity:1;stroke:#000;stroke-width:1;stroke-dasharray:none"/><path d="M1193.79 24.4c.859.05.706-1.31-1.09-3.945-4.6-6.751-11.442-11.713-20.095-15.953-11.968-5.866-27.038-8.79-44.529-8.153-9.928.36-18.264 2.736-25.372 7.452-5.424 3.598-8.905 8.452-10.084 13.056-.641 2.503-.897 4.808.083 5.35" style="fill:none;fill-opacity:1;stroke:#000;stroke-width:.999997;stroke-dasharray:none"/><path d="M1317.76 29.285c1.537.314 8.871.495 5.417-5.763-4.75-8.609-19.394-18.542-31.745-23.784-15.934-6.763-33.515-8.236-50.51-6.632-16 1.575-32.682 7.346-43.253 20.228-4.634 5.647-5.766 10.366-3.783 10.958" style="fill:none;fill-opacity:1;stroke:#000;stroke-width:1;stroke-dasharray:none"/><path d="M1329.393 82.652c1.02 4.687 8.086 7.568 12.966 9.018 11.592 3.444 23.924 3.743 35.861 1.416 10.667-2.08 22.392-6.608 29.51-15.345 6.792-8.336 11.406-19.513 8.823-30.67-1.529-6.598-8.025-11.977-14.005-15.721-13.39-8.385-32.111-11.014-48.765-10.2-11.164.544-20.893 1.95-30.054 4.709-2.147.647-6.688 2.886-3.896 3.508" style="fill:none;fill-opacity:1;stroke:#000;stroke-width:1;stroke-dasharray:none"/><path d="M1196.509 83.143c-1.351 1.847 8.418 8.083 11.19 9.71 5.54 3.249 11.235 6.139 17.201 8.306 2.186.794 4.385 1.539 6.613 2.194 15.234 4.48 30.994 6.589 46.731 7.423 3.428.181 6.861.216 10.292.325 12.668-.333 26.069.027 38.015-5.418 1.33-.606 2.57-1.432 3.854-2.148 5.01-3.616 6.867-6.705 5.424-13.19-.633-2.128-1.618-4.088-2.936-5.79-.95-1.145-3.797-2.962-3.445-.725" style="fill:none;fill-opacity:1;stroke:#000;stroke-width:.999996;stroke-dasharray:none"/><path d="M1106.515 79.027c-1.927 3.18 2 6.587 4.285 8.408 5.821 4.638 12.38 8.552 19.436 10.975 18.317 6.288 38.42 7.361 57.32 3.263 5.124-1.111 10.829-2.458 14.46-6.52 2.503-2.798 1.88-7.336-.54-10.05-2.065-2.517-3.415-3.202-5.06-1.982" style="fill:none;fill-opacity:1;stroke:#000;stroke-width:1;stroke-dasharray:none"/><path d="M1106.525 79.026c2.673-1.15 7.23 3.984 8.124 7.888 1.098 4.792-3.232 8.468-7.03 10.48-12.435 6.591-26.818 8.795-40.736 8.323-11.808-.4-24.16-2.106-34.346-8.613-5.524-3.529-11.117-9.167-10.57-16.221.29-1.965 2.535-1.542 2.085.369-1.086 3.759-5.37 5.962-8.572 7.683-9.743 5.234-23.26 6.93-35.71 6.847-7-.047-14.875-1.609-20.867-5.51-3.29-2.143-6.642-5.025-7.641-8.991-.29-1.445 1.255-3.17 2.753-2.505M1010.893 25.379c.015-3.098-.835-4.281-3.302-6.685-4.201-4.094-8.365-7.393-15.26-11.34-11.744-6.724-26.22-8.428-40.205-8.402-13.63.024-30.6 3.193-42.09 11.072-4.875 3.343-9.053 8.726-7.991 14.592.18.994.796 1.883 1.157 2.835" style="fill:none;fill-opacity:1;stroke:#000;stroke-width:1;stroke-dasharray:none"/><path d="M1094.358 22.543c3.709-2.969 2.613-5.992-.343-8.982-4.186-4.235-13.045-7.565-21.813-9.527-13.186-2.95-28.546-3.545-41.914-.211-8.239 2.055-15.968 6.351-18.924 11.322-1.556 2.616-2.101 3.864-2.46 7.109-.112 1.009.334 2.328 1.903 2.741" style="fill:none;fill-opacity:1;stroke:#000;stroke-width:1;stroke-dasharray:none"/><path d="M-163.798 439.803c-2.443-1.5-10.99-2.742-17.534-2.66-14.267.178-29.634 7.547-35.76 20.844-5.175 11.23-.6 25.498 9.594 32.958 4.891 3.58 10.045 5.907 15.806 7.386 22.025 5.652 46.908 3.487 67.116-1.58 2.736-.685 8.3-1.878 8.721-4.538-1.39-.666-2.934 1.06-2.644 2.505 1 3.966 4.35 6.847 7.64 8.99 5.993 3.902 13.867 5.464 20.868 5.51 12.45.084 25.966-1.613 35.71-6.847 3.202-1.72 7.486-3.924 8.572-7.683.45-1.91-1.795-2.333-2.085-.368-.547 7.054 5.046 12.692 10.57 16.22 10.186 6.508 22.537 8.213 34.346 8.614 13.918.472 28.3-1.732 40.736-8.323 3.798-2.012 8.127-5.689 7.03-10.48-.894-3.905-5.451-9.039-8.13-7.888-1.931 3.181 1.995 6.587 4.281 8.408 5.821 4.639 12.38 8.553 19.436 10.976 18.317 6.288 38.42 7.36 57.32 3.263 5.124-1.112 10.828-2.459 14.46-6.52 2.502-2.799 1.88-7.337-.54-10.051-2.065-2.517-3.415-3.202-5.013-1.97-1.305 1.858 8.463 8.094 11.236 9.72 5.54 3.25 11.235 6.14 17.201 8.307 2.186.794 4.385 1.538 6.613 2.193 15.234 4.48 30.994 6.59 46.731 7.423 3.428.182 6.861.217 10.292.326 12.668-.334 26.069.026 38.015-5.418 1.33-.606 2.57-1.432 3.854-2.148 5.01-3.616 6.867-6.705 5.424-13.19-.633-2.128-1.618-4.089-2.936-5.79-.95-1.146-3.797-2.962-3.472-1.315.992 4.099 8.058 6.98 12.938 8.43 11.592 3.444 23.924 3.742 35.86 1.415 10.668-2.08 22.393-6.607 29.511-15.344 6.792-8.337 11.406-19.514 8.823-30.67-1.529-6.599-8.025-11.977-14.005-15.722-13.391-8.385-32.111-11.013-48.765-10.2-11.164.545-20.893 1.95-30.054 4.71-2.147.646-6.688 2.885-4.067 3.467 1.429.272 8.798.454 4.118-5.805-6.437-8.608-23.026-18.541-36.404-23.784-17.258-6.763-35.128-8.235-51.808-6.631-15.693 1.574-31.244 7.345-39.292 20.228-3.527 5.647-3.736 10.366-2.062 11.011.435.105.282-1.255-1.514-3.89-4.601-6.752-11.442-11.713-20.095-15.954-11.968-5.865-27.038-9.485-44.529-8.849-9.928.361-18.96 3.433-26.068 8.148-5.424 3.598-8.702 8.534-10.045 12.564-.817 2.451-1.225 6.203 2.305 6.215 3.798-3.005 2.702-6.028-.253-9.019-4.186-4.235-13.045-7.565-21.813-9.527-13.187-2.95-28.546-3.544-41.914-.21-8.239 2.054-15.968 6.35-18.924 11.322-1.556 2.615-2.266 3.863-2.625 7.108-.111 1.01.498 2.329 2.11 2.933.879-1.593-.816-4.805-3.34-7.149-3.792-3.52-8.36-6.646-15.342-10.438-11.17-6.067-26.057-8.755-40.042-8.73-13.63.025-30.598 3.275-42.09 11.154-4.875 3.344-9.053 8.726-7.99 14.592.18.994.796 1.883 1.157 2.835" style="fill:#e5f6ff;fill-opacity:1;stroke:#000;stroke-width:1;stroke-dasharray:none"/><path d="M65.283-111.22c-2.21-1.5-9.944-2.743-15.865-2.661-12.908.179-26.812 7.547-32.355 20.844-4.682 11.23-.543 25.499 8.68 32.959 4.426 3.58 9.09 5.907 14.302 7.385 19.928 5.652 42.441 3.487 60.725-1.58 2.476-.685 7.51-1.878 7.891-4.538" style="fill:#e5f6ff;fill-opacity:1;stroke:#000;stroke-width:.999995;stroke-dasharray:none"/><path d="M-194.822 44c-4.413-.679-14.313.792-20.676 2.556-11.081 3.073-25.694 12.292-27.717 24.505-2.84 17.15 9.969 27.444 23.688 31.467 19.489 5.715 41.544 3.487 59.443-1.58 2.423-.686 7.351-1.879 7.724-4.538M129.836 55.271c.395 1.015.477 1.997.514 3.044.202 5.725-3.228 9.187-6.316 10.707-1.191.587-2.44.842-3.66 1.262-1.412.206-2.818.53-4.234.617-5.746.356-12.245-.792-17.724-3.534-1.248-.625-2.444-1.478-3.667-2.216-.613-.516-1.274-.916-1.841-1.547-1.166-1.294-2.548-3.114-2.955-5.423-.65-3.675 1.518-5.974 3.146-7.728.977-.72 1.923-1.554 2.931-2.16 5.3-3.184 11.8-4.464 17.454-4.268 1.487.052 2.966.344 4.449.516 1.291.391 2.603.647 3.874 1.174 3.706 1.537 6.523 3.929 8.985 8.5" style="fill:#e5f6ff;fill-opacity:1;stroke:#000;stroke-width:.999999;stroke-dasharray:none"/><path d="M-20.983 53.372c-4.75-5.28-11.074-9.055-17.98-10.78-2.052-.512-4.164-.748-6.246-1.123-2.403-.15-4.802-.413-7.21-.449-9.394-.139-20.327 1.12-29.231 4.222-1.733.603-3.377 1.438-5.065 2.157-1.189.826-2.521 1.475-3.566 2.476-2.826 2.71-2.835 5.842-.382 8.815 2.634 3.19 6.317 4.646 9.847 6.632 1.982.75 3.924 1.618 5.947 2.25 7.033 2.197 14.424 3.18 21.76 3.555 2.472.126 4.95.217 7.424.135 2.357-.08 4.698-.413 7.048-.62 2.033-.437 4.112-.701 6.1-1.312 5.343-1.64 10.749-5.173 10.793-11.41a8.612 8.612 0 0 0-.598-3.208c-.425-1.07-1.08-2.056-1.834-2.927M-24.945 93.08c2.61-.678 3.475 1.093 4.876 2.088 1.178 1.403 1.725 1.677 2.086 3.503.611 3.092-1.51 5.317-3.807 6.987-.85.458-1.662.99-2.547 1.375-5.854 2.547-12.458 2.672-18.692 1.95-3.971-.87-9.458-1.717-11.26-6.074-.247-.599-.245-1.272-.368-1.908.134-.646.153-1.326.402-1.937 1.947-4.768 7.947-5.97 12.335-7.042 1.292-.197 2.576-.458 3.876-.592 5.374-.557 10.96-.3 16.176 1.137" style="fill:#e5f6ff;fill-opacity:1;stroke:#000;stroke-width:1;stroke-dasharray:none"/><path d="M68.02 49.656c-2.871-.885-5.837-.67-8.698.135-1.7.479-3.521 1.166-4.806 3.207-.869 1.381-1.006 3.77-.264 5.335 1.039 2.192 2.671 3.387 4.264 4.112 2.176.991 4.49 1.085 6.722.589 1.91-.425 3.88-1.445 5.296-3.7.854-1.36 1.11-3.682.387-5.305-.644-1.445-1.633-2.295-2.578-3.099-.958-.815-1.969-1.446-2.952-2.173" style="fill:#e5f6ff;fill-opacity:1;stroke:#000;stroke-width:.999999;stroke-dasharray:none"/><circle cx="61.031" cy="192.592" r=".165" style="fill:#e5f6ff;stroke:#000"/></svg>