<svg xmlns="http://www.w3.org/2000/svg" width="400" height="300"><path d="M1.957 1.005C1.909.81 1.895.609 1.876.45c.12-.996.56-1.818 1.259-2.561 1.141-1.214 2.082-1.85 3.673-2.223 1.083-.255 2.2-.346 3.299-.519 1.156.115 2.333.095 3.468.344 1.876.41 4.024 1.338 5.468 2.668.53.489.948 1.108 1.267 1.755.245.499.262 1.08.393 1.62" style="fill:red;stroke:#000;stroke-width:.0264583" transform="matrix(3.98036 0 0 3.98036 -14.635 -177.987)"/><path d="M21.745.967c-.159-.54-.205-1.128-.476-1.622-.867-1.587-2.15-2.515-3.774-3.29a14.942 14.942 0 0 0-3.157-1.107c-1.133-.254-2.309-.25-3.464-.376-1.091.156-2.224.134-3.275.467-1.267.401-2.462 1.028-3.603 1.712-1.28.767-2.307 1.837-2.978 3.162C.838.27.753.673.693 1.07c-.031.206.037.415.056.622M20.43 16.994c-.8.42-1.519.981-2.225 1.274-1.015.409-2.075.743-3.159.894-4.272.596-8.82-.39-12.314-2.983-1.121-.832-1.95-1.998-2.926-2.997-.532-1.136-1.245-2.204-1.596-3.408-.552-1.9-.476-3.958.259-5.791.244-.608.75-1.076 1.089-1.636.03-.049-.047-.143.003-.17.23-.126.498-.162.748-.243" style="fill:red;stroke:#000;stroke-width:.0264583" transform="matrix(3.98036 0 0 3.98036 -14.635 -177.987)"/><path d="M1.423 1.125c-1.276.39-1.74.448-3.01 1.675-.461.446-.782 1.041-.996 1.646-.657 1.851-.66 3.903-.065 5.778.382 1.204 1.116 2.267 1.674 3.4.997.998 1.852 2.161 2.992 2.992 3.506 2.555 8.053 3.583 12.326 3.059 1.058-.13 2.096-.435 3.092-.816.768-.294 1.44-.795 2.16-1.192M20.161 17.562c1.36-.932 2.567-2.057 3.49-3.436.412-.614.798-1.255 1.076-1.94.276-.68.497-1.394.574-2.123.072-.691-.088-1.387-.132-2.08" style="fill:red;stroke:#000;stroke-width:.0264583" transform="matrix(3.98036 0 0 3.98036 -14.635 -177.987)"/><path d="M24.163 8.503c.014.724.189 1.433.13 2.04-.078.72-.301 1.427-.58 2.097-.286.683-.68 1.32-1.1 1.928-.982 1.419-2.27 2.553-3.71 3.482" style="fill:red;stroke:#000;stroke-width:.0264583" transform="matrix(3.98036 0 0 3.98036 -14.635 -177.987)"/><path d="M12.478 48.866c-.799.42-1.518.98-2.224 1.274-1.015.409-2.075.743-3.16.894-4.271.596-8.818-.39-12.313-2.983-1.122-.832-1.951-1.998-2.926-2.997-.532-1.136-1.246-2.204-1.596-3.408-.552-1.9-.477-3.958.259-5.792.244-.607.75-1.075 1.089-1.635.029-.049-.047-.143.002-.17.23-.126.5-.162.749-.243" style="fill:red;stroke:#000;stroke-width:.0264583" transform="matrix(3.98036 0 0 3.98036 -183.137 55.96)"/><path d="M8.844 56.357c-.14-.467-.682-.974-1.132-1.33-1.44-1.14-2.93-1.5-4.631-1.582a12.853 12.853 0 0 0-3.127.214c-1.058.21-2.034.68-3.051 1.019-.837.577-1.789 1.005-2.512 1.732-.871.877-1.58 1.936-2.219 3.026a7.68 7.68 0 0 0-1.041 4.135c.012.406.125.816.255 1.21.067.205.22.374.329.56" style="fill:red;stroke:#000;stroke-width:.0258836" transform="matrix(3.98036 0 0 3.98036 -183.137 55.96)"/><path d="M14.558 63.203c.54.4.929.974 1.224 1.496.308.543.508 1.131.63 1.726.124.606.132 1.231.101 1.85-.071 1.441-.553 2.828-1.26 4.119-.465.647-.853 1.39-1.418 1.988-.733.775-1.536 1.5-2.433 2.075-3.624 2.324-8.167 3.368-12.434 2.585-1.387-.255-2.662-.933-3.993-1.4-.994-.78-2.116-1.42-2.982-2.339-1.349-1.431-2.235-3.282-2.446-5.235-.068-.638-.037-1.314.185-1.915.613-1.657 1.006-1.91 1.986-2.814" style="fill:red;stroke:#000;stroke-width:.0241819" transform="matrix(3.98036 0 0 3.98036 -183.137 55.96)"/><path d="M57.087 56.09c-.141-.467-.683-.974-1.132-1.33-1.442-1.14-2.93-1.5-4.632-1.582a12.853 12.853 0 0 0-3.127.213c-1.058.211-2.034.68-3.051 1.02-.837.577-1.789 1.005-2.512 1.732-.871.877-1.58 1.935-2.218 3.026a7.68 7.68 0 0 0-1.042 4.135c.012.405.125.816.255 1.21.068.205.22.374.33.56" style="fill:red;stroke:#000;stroke-width:.0258836" transform="matrix(3.98036 0 0 3.98036 14.703 133.44)"/><path d="M62.8 62.935c.54.402.929.975 1.224 1.496.308.544.508 1.132.63 1.726.124.607.132 1.232.102 1.85-.072 1.442-.554 2.828-1.262 4.12-.463.647-.852 1.39-1.417 1.988-.732.774-1.536 1.5-2.433 2.075-3.624 2.324-8.167 3.368-12.434 2.585-1.387-.255-2.662-.933-3.993-1.4-.994-.78-2.116-1.42-2.982-2.34-1.349-1.43-2.235-3.281-2.445-5.235-.07-.637-.038-1.313.184-1.914.614-1.657 1.006-1.91 1.987-2.814" style="fill:red;stroke:#000;stroke-width:.0241819" transform="matrix(3.98036 0 0 3.98036 14.703 133.44)"/><path d="M54.656 62.226c-.49-.686-.677-1.551-.467-2.349.36-1.895 1.794-3.573 3.724-4.142a4.28 4.28 0 0 1 2.976.113c1.191.426 2.286 1.25 2.786 2.4a4.142 4.142 0 0 1-.037 3.458c-.242.665-.744 1.18-1.214 1.699-.05.06-.097.12-.143.183" style="fill:red;stroke:#000;stroke-width:.0268224" transform="matrix(3.98036 0 0 3.98036 14.703 133.44)"/><path d="M58.871 30.58c-.332-.025-.664-.107-.995-.076-1.356.13-2.468.498-3.577 1.354-1.719 1.326-3.018 2.263-2.942 4.538.025.749.443 1.43.665 2.146.569.526 1.038 1.187 1.706 1.579a5.687 5.687 0 0 0 4.367.547c1.283-.373 3.073-1.972 3.666-2.99.273-.47.115-1.08.172-1.619M54.175 26.058c-.508 1.086-1.137 1.466-2.229 1.798-1.423.434-3.037.285-4.33-.458-.655-.377-1.262-.897-1.668-1.534-.392-.615-.56-1.366-.643-2.09-.138-1.199.18-2.426 1.07-3.355.855-.896 1.743-1.23 2.936-1.377.76-.094 1.32.116 1.947.14M81.662 30.741c-.289.02-.583-.002-.866.06-2.23.488-5.297 2.266-4.943 4.975.072.552.43 1.028.644 1.542.44.359.81.826 1.32 1.076 1.816.892 3.917.087 5.142-1.42.466-.574-.01-1.747-.156-2.28M74.563 35.864c.415.506.63.938.666 1.28-.003.1-.343 1.101-.434 1.144-.998.475-2.088.52-3.105.044-.497-.234-.858-.686-1.286-1.029-.205-.495-.55-.953-.614-1.485-.167-1.385.445-1.96 1.237-2.958.096-.122.199-.254.34-.318 1.006-.456 1.11-.393 2.038-.441" style="fill:red;stroke:#000;stroke-width:.0264583" transform="matrix(3.98036 0 0 3.98036 63.598 -208.829)"/><path d="M66.2 17.381c.505.446 1.071 1.164 1.321 1.708.261.568.412 1.17.483 1.773.072.615.028 1.239-.055 1.852a8.814 8.814 0 0 1-1.604 3.998c-.468.645-.966 1.314-1.58 1.862-.795.71-1.657 1.365-2.6 1.863-3.806 2.01-8.421 2.667-12.607 1.527a13.763 13.763 0 0 1-3.86-1.731c-1.06-.689-1.99-1.593-2.775-2.582-1.223-1.54-1.95-3.459-1.995-5.423-.015-.641.073-1.312.345-1.892.64-1.364 1.378-2.122 2.215-2.636-.15-.186-.219-.379-.283-.585a3.823 3.823 0 0 1-.152-1.227 7.68 7.68 0 0 1 1.386-4.033c.728-1.033 1.524-2.028 2.467-2.828.781-.664 1.702-1.142 2.648-1.514a12.314 12.314 0 0 1 3.126-.759 12.853 12.853 0 0 1 3.134.051c1.689.226 3.102.753 4.482 1.967.416.367.79.954 1.008 1.409.333-.19.63-.281 1.011-.33.703-.088 1.885-.026 2.806.421 1.138.553 2.165 1.441 2.574 2.627.395 1.144.235 2.395-.329 3.442a4.12 4.12 0 0 1-1.19 1.343" style="fill:#d5f6ff;stroke:#000;stroke-width:.264583;stroke-miterlimit:4;stroke-dasharray:none" transform="matrix(3.98036 0 0 3.98036 63.598 -208.829)"/><path d="M45.782 35.815a3.03 3.03 0 0 1 1.064-.678c.78-.31 2.157-.591 3.348-.352 1.471.297 2.915 1.012 3.737 2.252.794 1.198.981 2.682.646 4.052a4.888 4.888 0 0 1-.967 1.896" style="fill:#d5f6ff;stroke:#000;stroke-width:.330937;stroke-miterlimit:4;stroke-dasharray:none" transform="matrix(3.98036 0 0 3.98036 63.598 -208.829)"/><path d="M44.947 39.524c.716-1.684 2.555-2.327 4.545-2.066 2.244.295 3.981 1.87 4.74 3.488.884 1.887.647 3.15.044 4.219-.412.731-.917 1.134-1.501 1.395" style="fill:#d5f6ff;stroke:#000;stroke-width:.330937;stroke-miterlimit:4;stroke-dasharray:none" transform="matrix(3.98036 0 0 3.98036 63.598 -208.829)"/><path d="M31.812 28.49c.312-1.563 1.67-2.285 3.285-2.208 1.82.086 3.432 1.36 4.276 2.747.985 1.619.987 2.768.672 3.773-.216.687-.555 1.087-.978 1.367" style="fill:#dbe3e2;stroke:#000;stroke-width:.343958;stroke-miterlimit:4;stroke-dasharray:none" transform="matrix(3.98036 0 0 3.98036 -182.385 -62.142)"/><path d="M15.878 33.694a1.85 1.85 0 0 1-.228-.6 4.136 4.136 0 0 1-.087-1.206c.132-1.446.528-2.828 1.298-3.855.686-.916 1.458-1.718 2.389-2.343.753-.506 1.556-.909 2.41-1.16a9.702 9.702 0 0 1 2.805-.371c.918.007 1.857.156 2.78.413 1.49.415 2.726 1.09 3.903 2.427.355.404.664 1.015.84 1.482" style="fill:#dbe3e2;stroke:#000;stroke-width:.343958;stroke-miterlimit:4;stroke-dasharray:none" transform="matrix(3.98036 0 0 3.98036 -182.385 -62.142)"/><path d="M39.215 33.654c.484.474 1.135 1.441 1.36 2.003.235.586.358 1.202.402 1.815.045.625-.028 1.254-.138 1.87a8.974 8.974 0 0 1-1.783 3.97c-.497.63-1.025 1.284-1.663 1.81-.826.681-1.716 1.304-2.68 1.764-3.894 1.859-8.534 2.313-12.663.968a13.698 13.698 0 0 1-3.778-1.927c-1.027-.745-1.915-1.702-2.655-2.739-1.152-1.613-1.792-3.586-1.748-5.575.014-.649.132-1.323.43-1.897.702-1.35 1.473-2.083 2.332-2.564" style="fill:#dbe3e2;stroke:#000;stroke-width:.343958;stroke-miterlimit:4;stroke-dasharray:none" transform="matrix(3.98036 0 0 3.98036 -182.385 -62.142)"/><path d="m-36.518 252.315-68.99 8.035 27.536-63.765z" style="fill:#fd5;stroke:#000;stroke-width:4.344;stroke-miterlimit:4;stroke-dasharray:none"/><g transform="matrix(3.94056 0 0 3.94056 -113.431 -.605)"><path d="m27.342 38.785-.892-4.06c-.082-.319.01-.768.586-.828.708-.075.874.306.899.661l.173 4.13c.011.169-.141.304-.316.33-.16.022-.404-.05-.45-.233z" style="fill:#000;stroke:none;stroke-width:.237019px;stroke-linecap:butt;stroke-linejoin:miter;stroke-opacity:1"/><ellipse cx="27.97" cy="40.556" rx=".765" ry=".85" style="fill:#000;stroke:none;stroke-width:2.69135;stroke-miterlimit:4;stroke-dasharray:none"/></g><path d="M-130.67-78.953c1.811 1.714 4.247 5.214 5.09 7.248.879 2.12 1.339 4.35 1.502 6.567.168 2.262-.105 4.536-.517 6.767a31.973 31.973 0 0 1-6.671 14.365c-1.858 2.281-3.835 4.646-6.22 6.55-3.092 2.466-6.423 4.72-10.03 6.385-14.567 6.724-31.927 8.366-47.377 3.501a51.922 51.922 0 0 1-14.135-6.975c-3.842-2.695-7.163-6.158-9.932-9.908-4.31-5.839-6.703-12.98-6.54-20.174.053-2.348.648-4.717 1.61-6.866 1.652-3.688 3.943-5.832 6.378-7.451 1.22-.833 1.06 2.635-.32.493-.477-.714-.807-1.78-.993-2.53-.301-1.208-.467-2.955-.331-4.367.503-5.229 2.007-10.228 4.934-13.946 2.609-3.314 5.542-6.213 9.082-8.477 2.862-1.83 5.914-3.285 9.163-4.193 3.426-.956 7.028-1.37 10.664-1.343 3.489.025 7.058.566 10.57 1.495 5.665 1.5 10.359 3.944 14.835 8.78 1.35 1.459 2.525 3.672 3.194 5.36.397.964-1.168 1.005-.955.032 1.143-5.662 6.114-8.274 12.02-7.996 6.658.312 12.558 4.921 15.647 9.944 3.604 5.862 3.614 10.02 2.459 13.659-.79 2.487-2.031 3.937-3.578 4.95M-147.004 20.765c2.282 1.901 4.623 5.496 5.466 7.53.88 2.12 1.34 4.35 1.503 6.567.167 2.262-.105 4.536-.518 6.767a31.973 31.973 0 0 1-6.67 14.365c-1.858 2.281-3.835 4.646-6.22 6.55-3.092 2.466-6.423 4.72-10.03 6.385-14.568 6.724-31.928 8.366-47.377 3.5a51.92 51.92 0 0 1-14.136-6.974c-3.842-2.695-7.163-6.158-9.932-9.908-4.31-5.839-6.703-12.98-6.54-20.174.053-2.348.649-4.717 1.611-6.866 1.652-3.688 3.942-5.832 6.377-7.452.399-.27.05 1.495-.454.868-.497-.695-.899-2.072-1.102-2.81-.328-1.188-.482-3.196-.37-4.597.414-5.19 2.08-9.398 4.754-13.321 2.023-2.97 5.513-6.29 9.066-8.62 2.874-1.883 5.947-3.4 9.23-4.38 3.461-1.033 7.113-1.532 10.805-1.597 3.545-.063 7.18.384 10.764 1.217 5.782 1.343 10.594 3.646 15.23 8.321 1.399 1.411 2.633 3.573 3.343 5.227.322.75-.816.5-.752-.05.798-5.845 5.339-8.52 10.898-8.204 6.266.355 12.03 5.145 15.172 10.35 3.669 6.074 3.88 10.37 2.971 14.124-.62 2.566-2.092 4.435-3.495 5.474" style="fill:#dbe3e2;stroke:#000;stroke-width:1.57971;stroke-miterlimit:4;stroke-dasharray:none"/><path d="M114.614-61.966c-.383.636-.819 1.242-1.148 1.907-.499 1.005-.987 2.023-1.331 3.09-1.453 4.499-1.665 9.033.128 13.505.649 1.618 1.715 3.036 2.572 4.554 1.318 1.293 2.513 2.725 3.955 3.879 1.433 1.147 3.009 2.117 4.624 2.989 3.262 1.762 6.356 2.84 10.057 3.248 4.82.53 5.855-.06 10.502-1.021 5.367-2.264 10.717-4.62 12.92-10.511 1.114-2.98 1.102-6.207.512-9.284-.316-1.654-.978-3.223-1.468-4.835-.781-1.552-1.443-3.171-2.344-4.657-3.28-5.407-8.407-10.424-14.582-12.312-1.32-.403-2.72-.468-4.08-.703-5.298.545-2.735-.069-7.691 1.834M465.94-25.898c.593-.51 2.32-.624.731-1.457-3.817-2.978-8.716-4.217-13.462-4.634-3.414-.36-6.955.163-9.92 1.966-2.099 1.276-4.346 2.595-5.755 4.661-.989 2.128-1.29 4.613-.949 6.925.68 6.076 4.728 11.247 9.413 14.916 4.43 3.448 9.72 5.774 15.236 6.774 3.812.62 8.007.3 11.19-2.1 1.872-1.356 3.94-2.674 5.195-4.659 1.513-3.908 1.199-8.462-.878-12.118-.908-1.801-2.28-3.28-3.542-4.829" style="fill:#000;stroke:none;stroke-width:1.58019;stroke-miterlimit:4;stroke-dasharray:none"/><path d="M139.357 140.545c-.78-1.04-1.31-2.547-1.55-3.813-.176-.922-.38-2.432-.313-3.495.248-3.937 1.406-7.117 3.293-10.07 1.428-2.235 3.91-4.722 6.446-6.456 2.052-1.402 4.25-2.524 6.605-3.235 2.484-.75 5.11-1.094 7.769-1.107 2.552-.012 5.175.363 7.765 1.03 4.179 1.078 7.668 2.874 11.054 6.47.488.52.951 1.168 1.359 1.842.445 1.414-.55.943-.462.269.117-.791.113-.882.418-1.513 1.433-2.961 4.805-4.567 8.789-4.166 5.448.55 10.57 4.479 13.24 9.102 2.452 4.246 3.337 8.404 2.656 11.104-.497 1.975-.78 2.307-1.993 3.054-.562.458-.233-1.251.061-.881 1.739 1.449 2.96 3.812 3.602 5.361.67 1.616 1.02 3.753 1.145 5.442.128 1.723-.08 3.457-.394 5.156a24.36 24.36 0 0 1-5.084 10.945c-1.415 1.738-2.922 3.54-4.74 4.99-2.355 1.88-4.894 3.596-7.642 4.865-11.1 5.124-24.329 6.375-36.102 2.668a39.566 39.566 0 0 1-10.77-5.314c-2.929-2.054-5.46-4.692-7.57-7.55-3.284-4.448-5.107-9.889-4.983-15.37.04-1.79.495-3.594 1.228-5.232 1.156-2.582 3.325-4.695 5.253-5.661 1.409-.706 3.16-.668 4.445.061" style="fill:#e6e6e6;fill-opacity:1;stroke:#000;stroke-width:1.3115;stroke-miterlimit:4;stroke-dasharray:none"/><path d="M50.773 42.81s-1.47.096-2.196.216c-1.15.19-2.34.288-3.326.333-.882.04-1.553.097-2.223.219-.944.172-2.48.24-2.48.24-.837.082-1.622-.446-1.062-1.542 0 0 .705-1.23.853-1.91.149-.689.701-1.393.95-2.129.296-.88.88-1.757 1.176-2.638.286-.85 1.096-2.456 1.096-2.456.469-1.156 1.433-1.044 2.04-.156 0 0 .745.922 1.384 1.93.37.585.489.479.92 1.314.494.954 1.883 2.432 2.242 3.032.468.78 1.3 1.904 1.3 1.904.532.74.234 1.535-.674 1.643z" style="fill:#fd5;stroke:#000;stroke-width:.793749;stroke-miterlimit:4;stroke-dasharray:none" transform="translate(17.626 16.464) scale(3.39553)"/><path d="M44.863 39.664s-.007-.604-.16-1.164c-.114-.411-.187-1.124-.233-1.443-.1-.51-.323-1.195-.323-1.195-.072-.282.009-.678.517-.732.625-.066.771.27.793.584.071.62.052 1.323.087 1.727.064.733.018 1.879.018 1.879a4.757 4.757 0 0 1-.7.344z" style="fill:#000;stroke:none;stroke-width:.793749;stroke-linecap:butt;stroke-linejoin:miter;stroke-miterlimit:4;stroke-dasharray:none;stroke-opacity:1" transform="translate(17.626 16.464) scale(3.39553)"/><path d="M46.175 41.028c-.006.414-.313.745-.686.74-.372-.006-.717-.349-.71-.763.006-.414.36-.742.733-.737.372.006.67.346.663.76z" style="fill:#000;stroke:none;stroke-width:.793749;stroke-miterlimit:4;stroke-dasharray:none" transform="translate(17.626 16.464) scale(3.39553)"/><path d="M229.503 140.825c-1.229-1.329 1.122-4.982 1.715-5.528 2.174-2.002 5.96-2.545 7.975-2.41 4.446.296 10.358 4.57 12.856 9.087 3.268 5.91 4.105 13.406-1.243 17.8-1.872 1.539-4.66 2.429-7.062 2.683-7.334.779-13.236-2.829-16.221-7.107-2.72-3.898-3.429-9.102-2.007-13.37.481-1.444 2.096-3.988 4.03-5.394.233-.17 1.16-.874 1.814.025" style="fill:#e6e6e6;fill-opacity:1;stroke:#000;stroke-width:1.3115;stroke-miterlimit:4;stroke-dasharray:none"/><path d="M287.235 143.49c.77 1.053 1.557 2.116 1.888 3.57.304 1.335.487 2.956.197 4.506-.314 1.679-1.556 3.12-2.753 4.19-2.125 1.901-4.866 2.175-6.83 1.791-3.173-.619-5.963-2.866-7.614-5.769-.842-1.478-1.242-3.355-1.168-5.419.065-1.838 1.02-3.835 1.807-4.819 1.548-1.935 3.779-2.99 5.861-3.098 2.062-.107 4.318.7 5.603 2.264.159.193 1.037 1.538.49 3.103" style="fill:#e6e6e6;fill-opacity:1;stroke:#000;stroke-width:1.3115;stroke-miterlimit:4;stroke-dasharray:none;stroke-opacity:1"/><path d="M-389.488 185.408c-.61-.783-1.387-3.132-1.65-4.158-.249-.978-.413-2.61-.34-3.751.27-4.226 1.535-7.638 3.595-10.807 1.559-2.399 4.268-5.068 7.037-6.929 2.24-1.505 4.639-2.71 7.21-3.473 2.711-.805 5.577-1.173 8.48-1.187 2.787-.013 5.65.389 8.478 1.106 4.561 1.156 8.37 3.083 12.067 6.943 1.115 1.165 2.109 2.94 2.685 4.296.43 1.286-1.051 1.034-.986.062.693-4.772 4.634-6.956 9.459-6.699 5.439.29 10.44 4.201 13.169 8.45 3.184 4.96 3.366 8.467 2.578 11.532-.539 2.096-1.51 3.339-2.727 4.188-.483.314-.207-1.946.244-1.574 1.866 1.555 3.78 4.494 4.47 6.157.719 1.734 1.095 3.557 1.229 5.37.136 1.85-.086 3.71-.424 5.534a26.144 26.144 0 0 1-5.454 11.745c-1.52 1.866-3.136 3.8-5.087 5.356-2.527 2.017-5.251 3.86-8.2 5.22-11.912 5.5-26.107 6.842-38.74 2.864a42.456 42.456 0 0 1-11.559-5.703c-3.141-2.204-5.857-5.035-8.12-8.102-3.526-4.774-5.482-10.613-5.349-16.496.044-1.92.531-3.857 1.318-5.615 1.24-2.771 3.573-5.028 5.637-6.075.182-.092 1.396-.622 2.395-.695" style="fill:#dbe3e2;stroke:#000;stroke-width:1.57971;stroke-miterlimit:4;stroke-dasharray:none"/><g style="stroke-width:.989478" transform="matrix(4.29076 0 0 4.29101 -187.666 -157.217)"><path d="m37.562 41.507-9.367 1.065c-.766.087-1.493-.386-.995-1.4l3.613-8.434c.414-1.067 1.3-.977 1.87-.171 0 0 .695.835 1.295 1.752.349.531.456.432.863 1.192.466.869 1.76 2.205 2.098 2.75.44.71 1.22 1.73 1.22 1.73.497.672.235 1.405-.597 1.516z" style="fill:#fd5;stroke:#000;stroke-width:.697455;stroke-miterlimit:4;stroke-dasharray:none"/><path d="m32.13 38.609-.722-3.395c-.066-.259.009-.622.475-.671.573-.06.707.248.727.535l.14 3.453s-.6.073-.62.078z" style="fill:#000;stroke:none;stroke-width:.189851px;stroke-linecap:butt;stroke-linejoin:miter;stroke-opacity:1"/><ellipse cx="32.639" cy="39.933" rx=".619" ry=".688" style="fill:#000;stroke:none;stroke-width:2.15576;stroke-miterlimit:4;stroke-dasharray:none"/></g><path d="M-219.11 138.157c-.594-.776-.923-2.048-1.178-3.063-.242-.968-.402-2.584-.331-3.713.263-4.182 1.494-7.56 3.498-10.696 1.517-2.375 4.153-5.017 6.847-6.858 2.18-1.49 4.514-2.682 7.016-3.438 2.638-.797 5.427-1.16 8.252-1.175 2.712-.013 5.497.385 8.249 1.095 4.438 1.144 8.145 3.052 11.742 6.872 1.085 1.153 2.052 2.91 2.613 4.252.387 1.09-1.047.807-.976.061.709-4.723 4.738-6.884 9.672-6.63 5.561.287 10.676 4.158 13.466 8.364 3.256 4.909 3.442 8.38 2.637 11.414-.552 2.074-1.545 3.305-2.79 4.145m.345-1.558c1.847 1.54 3.743 4.449 4.425 6.094.712 1.716 1.084 3.52 1.216 5.315.136 1.83-.085 3.672-.419 5.477a25.875 25.875 0 0 1-5.4 11.626c-1.503 1.846-3.103 3.76-5.034 5.301-2.503 1.996-5.199 3.82-8.119 5.168-11.791 5.442-25.843 6.77-38.348 2.833a42.03 42.03 0 0 1-11.442-5.645c-3.11-2.18-5.798-4.983-8.04-8.019-3.488-4.725-5.425-10.504-5.293-16.327.043-1.9.525-3.818 1.304-5.557 1.229-2.743 3.537-4.977 5.58-6.014.18-.09 1.382-.615 2.372-.687M-6.464-49.527c-.594-.776-.923-2.048-1.177-3.063-.243-.968-.403-2.584-.332-3.713.263-4.182 1.494-7.56 3.498-10.696 1.517-2.375 4.153-5.017 6.847-6.858 2.18-1.49 4.514-2.682 7.016-3.438 2.639-.797 5.427-1.16 8.252-1.175 2.712-.013 5.498.385 8.249 1.095 4.439 1.144 8.145 3.052 11.742 6.872 1.085 1.153 2.052 2.91 2.613 4.252m-.976.061c.709-4.723 4.739-6.884 9.672-6.63 5.562.287 10.677 4.158 13.466 8.364 3.256 4.908 3.443 8.38 2.637 11.414-.551 2.074-.813 2.44-2.058 3.28m.212-.76c1.847 1.54 3.144 4.05 3.826 5.696.712 1.716 1.084 3.986 1.217 5.78.135 1.83-.086 3.672-.42 5.477a25.876 25.876 0 0 1-5.4 11.626c-1.503 1.846-3.103 3.76-5.034 5.3-2.502 1.997-5.199 3.82-8.118 5.169-11.792 5.442-25.843 6.77-38.349 2.833A42.03 42.03 0 0 1-.523-14.286c-3.11-2.181-5.798-4.983-8.039-8.019-3.49-4.725-5.426-10.504-5.294-16.327.043-1.9.526-3.818 1.304-5.557 1.229-2.743 3.538-4.977 5.58-6.014.18-.091 1.382-.615 2.372-.687" style="fill:#dbe3e2;stroke:#000;stroke-width:1.57971;stroke-miterlimit:4;stroke-dasharray:none"/><path d="M343.715 337.657h186.17v38.298h-186.17z" style="fill:#999;fill-opacity:1;stroke:#000;stroke-width:1.57971"/><path d="M469.854 129.877h45.003v126.229h-45.003z" style="fill:#c4c4c4;fill-opacity:1;stroke:#000;stroke-width:1.05314"/></svg>