<svg xmlns="http://www.w3.org/2000/svg" xml:space="preserve" width="500" height="400"><path d="M-105.588 163.033c9.093-7.328 22.266-7.177 31.19.444" style="fill:none;stroke:#000;stroke-width:1.07575;stroke-linecap:butt"/><path stroke-linejoin="round" d="M-100.73 164.279c-.946-1.249-4.668-1.395-5.435-.82.767-.575 1.648-4.173.7-5.422" class="difference-arrows-tips" style="display:inline;fill:none;stroke:#000;stroke-width:1.05;stroke-linecap:round;stroke-linejoin:round;stroke-dasharray:none"/><ellipse cx="896.142" cy="201.44" rx="18.257" ry="37.508" style="fill:none;stroke:#000;stroke-width:1;stroke-dasharray:none"/><ellipse cx="961.65" cy="201.44" rx="18.257" ry="37.508" style="fill:none;stroke:#000;stroke-width:1;stroke-dasharray:none"/><ellipse cx="1028.915" cy="201.44" rx="18.257" ry="37.508" style="fill:none;stroke:#000;stroke-width:1;stroke-dasharray:none"/><ellipse cx="1094.932" cy="201.44" rx="18.257" ry="37.508" style="fill:none;stroke:#000;stroke-width:1;stroke-dasharray:none"/><path d="M930.798 139.551h.64c1.088 0 1.001-1.333 1.744-2.441.536-.814 1.279-1.559 2.592-1.559.863 0 1.364.416 1.364 1.022 0 .485-.362.693-.708.693-.484 0-.605-.19-.605-.433s.156-.502.156-.641c0-.086-.052-.139-.26-.139-.863 0-1.537.936-1.9 2.286l-.328 1.212h1.382l-.207.658h-1.313l-1.365 5.3c-.12.467-.259 1.125-.518 1.766-.57 1.437-1.503 3.082-3.023 3.082-.83 0-1.244-.416-1.244-.935 0-.416.242-.849.743-.849.466 0 .639.312.639.572 0 .329-.277.346-.277.554 0 .104.104.156.26.156 1.122 0 1.64-2.736 1.9-3.723l1.503-5.923h-1.33z" style="fill:#000"/><path d="m1000.305 138.987-.225.78h-1.399c.225.26.294.484.294.865 0 1.3-.916 2.373-2.436 2.563-1.02.139-1.52.572-1.52 1.005 0 1.09 4.025.398 4.025 2.562 0 1.23-1.14 2.615-3.715 2.615-2.314 0-3.178-.987-3.178-1.991 0-1.005.95-1.524 2.021-1.87-.294-.19-.415-.52-.415-.814 0-.658.64-1.507 1.469-1.507v-.069c-1.158-.26-1.624-1.074-1.624-1.888 0-1.368 1.175-2.736 3.006-2.736.725 0 1.261.226 1.52.485zm-2.695 1.109c0-.641-.173-1.074-.933-1.074-.933 0-1.693 1.23-1.693 2.407 0 .796.207 1.403.967 1.403 1.227 0 1.659-1.767 1.659-2.736zm.224 7.238c0-1.35-2.28-1.264-3.316-1.645-.139.086-.311.173-.45.277-.449.329-.829.779-.829 1.247 0 .813.76 1.68 2.401 1.68 1.573 0 2.194-.797 2.194-1.56zM1066.275 146.512l.242.19c-.5.59-1.347 1.836-2.298 1.836-.31 0-.708-.173-.708-.727 0-.208.017-.45 1.106-4.624.035-.12.12-.502.12-.762 0-.329-.12-.606-.414-.606-.622 0-1.762 1.472-2.315 2.303-.587.884-1.07 1.767-1.157 2.113l-.553 2.113h-1.348l2.626-10.39c.017-.07.035-.121.035-.173 0-.226-.173-.381-.535-.381-.173 0-.363.017-.501.034l-.035-.242 2.747-.416-1.883 7.204h.069c.915-1.004 2.159-3.273 3.731-3.273.726 0 .985.589.985 1.212 0 .381-.104.745-.19 1.108l-1.002 3.983c-.017.087-.035.121-.035.173 0 .104.052.243.224.243.38 0 .847-.606 1.089-.918zM900.921 256.906h-4.711v-.265h.264c.926 0 1.19-.347 1.19-1.008 0-.1-.016-.232-.033-.347l-.215-1.868h-3.273l-1.388 2.314a.706.706 0 0 0-.166.43c.017.297.281.48.711.48h.48v.264h-3.604v-.265c.578-.066 1.19-.264 1.785-1.223l5.885-9.538h.298l1.29 9.604c.115.81.528 1.157 1.222 1.157h.265zm-3.62-4.1-.414-3.752h-.099l-2.298 3.752zM958.53 246.111h4.165c1.388 0 3.901.149 3.901 2.397 0 1.29-.71 2.033-1.504 2.43-.413.215-.893.347-1.223.43l.05.066c.991.182 2.099.876 2.099 2.281 0 1.637-1.356 3.19-4.778 3.19h-5.356l.066-.264h.33c1.257 0 1.571-.48 1.704-1.041l2.033-8.183a2.24 2.24 0 0 0 .033-.347c0-.43-.314-.695-1.29-.695h-.313zm3.438.694-.976 4.166c.33.066.628.1.876.1 1.852 0 2.778-1.092 2.778-2.695 0-1.273-1.075-1.62-1.968-1.62-.248 0-.496.016-.71.05zm-1.125 4.91-1.124 4.414c.414.116.744.148 1.174.148 1.554 0 3.14-.694 3.14-2.843 0-1.207-1.057-1.785-2.347-1.785-.264 0-.595 0-.843.066zM1035.72 246.012l-.877 3.686h-.264c.017-.132.017-.28.017-.694 0-1.075-.512-2.38-2.513-2.38-3.323 0-5.273 3.322-5.273 6.149 0 1.851.992 3.538 3.223 3.538 1.62 0 2.827-.81 3.571-1.62a2.5 2.5 0 0 0 .281-.331l.33.215a5.899 5.899 0 0 1-1.47 1.52 5.465 5.465 0 0 1-3.191 1.01c-3.19 0-4.761-2.166-4.761-4.596 0-3.803 3.323-6.497 7.323-6.497.893 0 1.753.446 2.612.446.182 0 .447-.033.695-.446zM1093.043 246.111h4.662c3.108 0 4.777 1.703 4.777 4.546 0 3.488-2.694 6.249-6.96 6.249h-5.058l.066-.265h.298c1.223 0 1.603-.463 1.735-1.025l2.017-8.216a1.81 1.81 0 0 0 .066-.396c0-.364-.297-.612-1.273-.612h-.413zm3.488.678-2.017 8.331c-.083.315-.083.397-.083.447 0 .678.992.71 1.57.71 3.175 0 4.48-3.041 4.48-5.372 0-1.901-.545-4.166-2.975-4.166-.33 0-.71.017-.975.05z"/><path d="M1043.538 162.935c10.896-8.937 26.682-8.753 37.376.54" style="fill:none;stroke:#000;stroke-width:1.07575;stroke-linecap:butt"/><path stroke-linejoin="round" d="M1048.762 163.897c-.947-1.249-4.67-1.395-5.437-.82.767-.575 1.648-4.173.701-5.422" class="difference-arrows-tips" style="display:inline;fill:none;stroke:#000;stroke-width:1.05;stroke-linecap:round;stroke-linejoin:round;stroke-dasharray:none"/><path d="M976.685 162.935c10.896-8.937 26.682-8.753 37.375.54" style="fill:none;stroke:#000;stroke-width:1.07575;stroke-linecap:butt"/><path stroke-linejoin="round" d="M981.908 163.897c-.947-1.249-4.669-1.395-5.436-.82.767-.575 1.648-4.173.7-5.422" class="difference-arrows-tips" style="display:inline;fill:none;stroke:#000;stroke-width:1.05;stroke-linecap:round;stroke-linejoin:round;stroke-dasharray:none"/><path d="M909.986 162.935c10.896-8.937 26.682-8.753 37.375.54" style="fill:none;stroke:#000;stroke-width:1.07575;stroke-linecap:butt"/><path stroke-linejoin="round" d="M915.21 163.897c-.948-1.249-4.67-1.395-5.437-.82.767-.575 1.648-4.173.701-5.422" class="difference-arrows-tips" style="display:inline;fill:none;stroke:#000;stroke-width:1.05;stroke-linecap:round;stroke-linejoin:round;stroke-dasharray:none"/><path d="M-182.693 162.886c10.705-9.521 26.13-9.495 36.81.067" style="fill:none;stroke:#000;stroke-width:1.07575;stroke-linecap:butt"/><path stroke-linejoin="round" d="M-177.197 163.478c-.98-1.224-4.704-1.274-5.456-.679.752-.595 1.54-4.214.56-5.438" class="difference-arrows-tips" style="display:inline;fill:none;stroke:#000;stroke-width:1.05;stroke-linecap:round;stroke-linejoin:round;stroke-dasharray:none"/><path d="M-246.56 162.886c10.705-9.521 26.13-9.495 36.81.067" style="fill:none;stroke:#000;stroke-width:1.07575;stroke-linecap:butt"/><path stroke-linejoin="round" d="M-241.064 163.478c-.979-1.224-4.704-1.274-5.456-.679.752-.595 1.54-4.214.56-5.438" class="difference-arrows-tips" style="display:inline;fill:none;stroke:#000;stroke-width:1.05;stroke-linecap:round;stroke-linejoin:round;stroke-dasharray:none"/><ellipse cx="579.14" cy="201.44" rx="18.257" ry="37.508" style="fill:none;stroke:#000;stroke-width:1;stroke-dasharray:none"/><ellipse cx="641.56" cy="201.44" rx="18.257" ry="37.508" style="fill:none;stroke:#000;stroke-width:1;stroke-dasharray:none"/><ellipse cx="705.737" cy="201.44" rx="18.257" ry="37.508" style="fill:none;stroke:#000;stroke-width:1;stroke-dasharray:none"/><ellipse cx="768.667" cy="201.44" rx="18.257" ry="37.508" style="fill:none;stroke:#000;stroke-width:1;stroke-dasharray:none"/><path d="M610.567 137.968h.705c1.2 0 1.105-1.47 1.924-2.692.59-.898 1.41-1.719 2.857-1.719.952 0 1.504.459 1.504 1.127 0 .534-.4.763-.78.763-.534 0-.667-.21-.667-.477s.171-.554.171-.706c0-.096-.057-.153-.286-.153-.952 0-1.695 1.031-2.095 2.52l-.362 1.337h1.524l-.228.725h-1.448l-1.505 5.842c-.133.515-.285 1.24-.571 1.947-.629 1.585-1.657 3.399-3.333 3.399-.914 0-1.371-.459-1.371-1.031 0-.459.266-.936.819-.936.514 0 .704.344.704.63 0 .363-.305.382-.305.611 0 .115.115.172.286.172 1.238 0 1.81-3.016 2.095-4.105l1.657-6.529h-1.466z" style="fill:#000"/><path d="m677.576 137.244-.248.86h-1.543c.248.286.324.534.324.954 0 1.432-1.01 2.616-2.685 2.826-1.124.152-1.676.63-1.676 1.107 0 1.203 4.437.44 4.437 2.826 0 1.355-1.257 2.882-4.095 2.882-2.552 0-3.504-1.088-3.504-2.195 0-1.107 1.047-1.68 2.228-2.062-.323-.21-.457-.573-.457-.897 0-.726.705-1.661 1.62-1.661v-.077c-1.277-.286-1.791-1.183-1.791-2.08 0-1.509 1.295-3.017 3.314-3.017.8 0 1.39.248 1.676.534zm-2.971 1.222c0-.706-.19-1.183-1.029-1.183-1.028 0-1.866 1.355-1.866 2.653 0 .879.228 1.547 1.066 1.547 1.352 0 1.829-1.948 1.829-3.017zm.247 7.98c0-1.489-2.514-1.393-3.657-1.813-.152.095-.343.19-.495.305-.495.363-.914.86-.914 1.375 0 .897.838 1.852 2.647 1.852 1.734 0 2.42-.878 2.42-1.718zM740.117 145.672l.266.21c-.552.649-1.485 2.024-2.533 2.024-.343 0-.78-.191-.78-.802 0-.23.018-.497 1.218-5.098.038-.133.133-.553.133-.84 0-.362-.133-.668-.457-.668-.685 0-1.942 1.623-2.552 2.54-.648.973-1.18 1.947-1.276 2.328l-.61 2.33h-1.485l2.895-11.455c.019-.077.038-.134.038-.191 0-.248-.19-.42-.59-.42-.19 0-.4.019-.553.038l-.038-.267 3.029-.459-2.077 7.942h.077c1.009-1.107 2.38-3.608 4.114-3.608.8 0 1.085.65 1.085 1.337 0 .42-.114.82-.21 1.221l-1.104 4.391c-.02.096-.038.134-.038.191 0 .115.057.268.248.268.419 0 .933-.669 1.2-1.012zM584.47 258.706h-5.195v-.292h.292c1.02 0 1.312-.382 1.312-1.111 0-.11-.018-.255-.036-.383l-.237-2.06h-3.609l-1.53 2.552a.778.778 0 0 0-.183.474c.018.328.31.528.784.528h.528v.292h-3.973v-.292c.638-.072 1.312-.291 1.968-1.348l6.489-10.516h.328l1.421 10.589c.128.893.583 1.275 1.349 1.275h.291zm-3.992-4.52-.455-4.137h-.11l-2.533 4.137zM638.161 246.793h4.593c1.53 0 4.301.164 4.301 2.643 0 1.421-.784 2.241-1.658 2.679-.456.237-.985.382-1.35.474l.056.072c1.093.2 2.314.966 2.314 2.516 0 1.804-1.494 3.517-5.267 3.517h-5.905l.073-.292h.365c1.385 0 1.731-.528 1.877-1.148l2.242-9.021a2.47 2.47 0 0 0 .036-.383c0-.474-.346-.766-1.421-.766h-.347zm3.791.765-1.075 4.593c.364.073.692.11.966.11 2.04 0 3.062-1.203 3.062-2.971 0-1.404-1.185-1.786-2.17-1.786-.273 0-.546.018-.783.054zm-1.24 5.413-1.239 4.867c.456.127.82.163 1.294.163 1.714 0 3.463-.765 3.463-3.134 0-1.33-1.166-1.969-2.588-1.969-.291 0-.656 0-.93.073zM713.102 246.678l-.966 4.065h-.292c.018-.146.018-.31.018-.766 0-1.184-.565-2.624-2.77-2.624-3.663 0-5.814 3.663-5.814 6.78 0 2.04 1.094 3.9 3.554 3.9 1.786 0 3.117-.893 3.937-1.786.127-.128.218-.237.31-.365l.364.237a6.503 6.503 0 0 1-1.622 1.677 6.025 6.025 0 0 1-3.517 1.112c-3.518 0-5.25-2.388-5.25-5.067 0-4.192 3.664-7.163 8.074-7.163.985 0 1.932.493 2.88.493.2 0 .492-.037.766-.493zM766.425 246.793h5.14c3.426 0 5.267 1.877 5.267 5.012 0 3.846-2.97 6.89-7.673 6.89h-5.577l.073-.292h.328c1.349 0 1.768-.51 1.914-1.13l2.223-9.059c.037-.145.073-.31.073-.437 0-.4-.328-.674-1.403-.674h-.456zm3.846.747-2.224 9.186c-.09.346-.09.437-.09.492 0 .747 1.093.784 1.73.784 3.5 0 4.94-3.354 4.94-5.924 0-2.096-.601-4.593-3.28-4.593-.365 0-.784.019-1.076.055z"/><path d="M717.89 162.886c10.705-9.521 26.13-9.495 36.81.067" style="fill:none;stroke:#000;stroke-width:1.07575;stroke-linecap:butt"/><path stroke-linejoin="round" d="M723.386 163.478c-.979-1.224-4.704-1.274-5.456-.679.752-.595 1.54-4.214.56-5.438" class="difference-arrows-tips" style="display:inline;fill:none;stroke:#000;stroke-width:1.05;stroke-linecap:round;stroke-linejoin:round;stroke-dasharray:none"/><path d="M655.224 162.886c10.705-9.521 26.13-9.495 36.81.067" style="fill:none;stroke:#000;stroke-width:1.07575;stroke-linecap:butt"/><path stroke-linejoin="round" d="M660.72 163.478c-.979-1.224-4.704-1.274-5.456-.679.752-.595 1.54-4.214.56-5.438" class="difference-arrows-tips" style="display:inline;fill:none;stroke:#000;stroke-width:1.05;stroke-linecap:round;stroke-linejoin:round;stroke-dasharray:none"/><path d="M591.357 162.886c10.705-9.521 26.131-9.495 36.81.067" style="fill:none;stroke:#000;stroke-width:1.07575;stroke-linecap:butt"/><path stroke-linejoin="round" d="M596.853 163.478c-.979-1.224-4.703-1.274-5.455-.679.752-.595 1.539-4.214.56-5.438" class="difference-arrows-tips" style="display:inline;fill:none;stroke:#000;stroke-width:1.05;stroke-linecap:round;stroke-linejoin:round;stroke-dasharray:none"/><path d="M-61.77 118.266c-6.021-.607-11.99-2.64-16.825-6.395-4.952-3.846-10.137-8.517-11.39-14.842-1.182-5.97 1.688-12.335 6.412-16.186 5.816-4.74 13.482-6.413 20.788-6.798 8.427-.444 17.097 1.396 24.482 5.543 2.154 1.21 4.141 2.689 6.19 4.066" style="fill:none;stroke:#000;stroke-linecap:butt"/><path d="M84.671 208.345c.44 2.681-2.745 2.057-5.202.988-2.484-1.08-5.552-4.393-7.887-8.13-3.524-5.638-4.409-14.618-3.123-21.227 1.311-6.74 5.4-14.066 11.318-18.249 4.885-3.454 9.945-5.767 16.094-5.806 1.044.032 2.174.209 3.063.774" style="fill:none;stroke:#000;stroke-linecap:butt" transform="translate(-256.297 74.727)"/><path d="M84.001 246.591c2.611.16.546 1.696-.593 1.466-2.995-.604-6.45-3.086-9.191-6.866-2.796-3.857-4.018-8.816-4.03-13.39-.013-5.178 1.065-10.77 4.997-15.482 2.534-3.036 4.557-4.312 6.369-5.034 1.316-.525 2.812-.268 3.195 1.06" style="fill:none;stroke:#000;stroke-linecap:butt" transform="translate(-256.297 74.727)"/><path d="M126.361 595.82c1.155-.464 3.048.968 3.84 1.569.286.356.648.666.858 1.067 2.102 3.993-3.397 8.31-6.017 10.466-3.82 2.452-4.885 3.412-9.327 5.065-8.089 3.012-16.92 3.294-25.478 2.794-2.236-.262-4.485-.44-6.708-.787-9.748-1.52-19.011-4.887-27.012-10.445-1.225-.976-2.506-1.891-3.675-2.927-3.769-3.34-7.182-7.483-8.464-12.318-.27-1.016-.336-2.072-.504-3.108.105-2.71-.07-3.304.823-5.916 1.397-4.085 4.307-7.432 7.632-10.247 3.57-2.646 6.178-4.238 8.97-5.541.388-.18 2.394-.837 2.819-.909" style="fill:none;stroke:#000;stroke-width:1;stroke-linecap:butt"/><path d="M233.797 596.681c.733-.051.866.643.962 1.296.089.607.024 1.211.029 1.824.038 4.46-3.73 7.298-7.63 9.164-1.139.406-2.25.89-3.417 1.219-7.374 2.075-15.145 1.762-22.46-.333-1.232-.45-2.499-.826-3.695-1.352-3.82-1.68-7.466-4.262-8.582-8.22-.005-.091-.094-.949-.006-1.009.687-.463 2.003 1.161 2.395 1.403 2.005 2.403 2.233 4.337.332 6.96-.544.465-1.035.99-1.633 1.394-5.304 3.589-12.27 4.221-18.59 4.335-1.775-.088-3.556-.113-5.327-.264-8.957-.763-17.785-2.884-26.102-6.04-1.357-.613-2.751-1.158-4.071-1.836-3.109-1.598-7.245-4.324-9.178-7.212-.228-.34-.349-.734-.523-1.101-.001-.043-.16-.883.145-1.006" style="fill:none;stroke:#000;stroke-width:1;stroke-linecap:butt"/><path d="M293.93 595.298c1.839 1.027 2.01 3.472 1.721 5.15-.81 4.719-6.318 7.96-11.698 9.67-9.672 3.076-20.688 2.532-30.457.123-7.075-1.745-13.856-5.047-17.823-9.956-.837-1.035-2.52-2.62-1.878-3.764" style="fill:none;stroke:#000;stroke-width:.999996;stroke-linecap:butt"/><path d="M356.434 573.722c3.106 1.036 5.556 3.962 7.635 6.787 3.344 4.702 4.8 11.57 2.466 17.287-3.19 8.043-9.962 13.168-16.818 16.177-10.31 4.35-21.691 5.277-32.404 2.587-8.53-2.315-17.174-7.14-22.094-16.023-.815-1.715-1.761-3.792-1.236-5.796" style="fill:none;stroke:#000;stroke-width:.999996;stroke-linecap:butt"/><path d="M520.89-49.253c-.531-.887-1.335-1.671-1.592-2.662-1.04-4.012 2.168-8.197 4.893-10.806 1.36-1.303 2.97-2.347 4.455-3.52 1.813-.993 3.556-2.108 5.437-2.977 7.961-3.678 17.097-5.45 25.922-5.5 2.174-.012 4.342.213 6.514.319 2.065.307 4.15.514 6.195.922 8.811 1.758 17.085 5.421 24.96 9.458 6.285 3.395 12.448 6.985 18.766 10.325.884.594 1.38.83 2.048 1.567.235.26.338.596.306.608-.429.165-1.42-.053-1.74-.098-4.022-.999-7.91-2.511-10.106-6.089-.515-1.764-.952-2.342-.392-4.216 1.33-4.448 6.362-6.525 10.331-8.294 1.577-.522 3.13-1.116 4.732-1.567 10.258-2.89 21.074-3.78 31.726-3.267 2.127.214 4.263.364 6.382.64 8.352 1.092 16.616 3.047 24.594 5.61 2.346.906 7.197 2.411 8.081 5.109.086.261.05.546.075.819-.1.217-.15.462-.3.651-1.402 1.77-4.455.035-5.664-.975-.401-.514-.88-.981-1.202-1.544-1.65-2.877-1.166-6.39.55-9.141.528-.847 1.259-1.564 1.888-2.346 2.497-1.86 3.215-2.697 6.337-3.726 6.613-2.18 13.735-1.348 20.382.134 1.758.535 3.544.99 5.273 1.603 7.79 2.769 14.725 7.224 20.296 13.091.828 1.034 1.718 2.025 2.486 3.1 3.364 4.715 5.425 10.22 5.644 15.92-.289 3.423-.518 8.24-3.932 10.301-.322.05-.843.285-1.064-.156-.643-1.279 2.535-2.45 3.235-2.687.834-.172 1.655-.415 2.501-.515 7.08-.837 14.121 1.414 20.373 4.35 1.354.802 2.76 1.529 4.06 2.406 4.482 3.023 8.585 7.093 10.743 11.964.51 1.149.8 2.374 1.199 3.56.187 1.228.452 2.448.561 3.685.491 5.59-.9 10.988-4.148 15.674-2.041 2.51-4.84 6.09-8.438 6.626-.356.053-.72.009-1.08.013-.278-.076-.572-.111-.834-.229-1.708-.768 1.119-2.373 1.888-1.9 6.986-.478 14.058.523 20.501 3.18 2.915 1.666 3.893 1.94 6.178 4.338 3.02 3.168 4.529 7.245 4.949 11.438-.01 1.024.059 2.052-.032 3.073-.46 5.162-2.785 9.894-6.253 13.836-2.757 2.794-6.395 6.233-10.383 7.357-.449.126-.921.158-1.382.237-.354-.025-.712-.017-1.061-.075-.833-.138-2.028-.856-.67-1.293 2.92-.617 5.883-.55 8.763.275.66.229 1.337.412 1.977.686 4.06 1.737 7.025 5.049 8.784 8.87.28.934.652 1.847.84 2.802 1.1 5.596-.78 11.141-3.83 15.884-.761 1-1.462 2.043-2.285 2.999-3.87 4.495-9.046 7.797-14.903 9.435-3.047.587-7.062 1.419-9.766-.6-.042-.057-.068-.127-.125-.17-.04-.03-.198-.032-.147-.036" style="fill:none;stroke:#000;stroke-width:1;stroke-linecap:butt"/><path d="M607.785 305.807c2.426-2.576 5.68-4.323 9.006-5.463.897-.308 1.826-.513 2.74-.77 5.092-.89 10.297-.264 14.992 1.938 1.072.503 2.076 1.138 3.114 1.707 4.33 2.894 7.834 6.809 10.133 11.499 1.71 3.49 1.803 4.639 2.79 8.422 1.271 8.113.351 16.432-2.506 24.132-.539 1.451-1.233 2.84-1.85 4.26-3.373 6.13-7.643 12.004-13.36 16.167-.892.65-1.863 1.183-2.795 1.774-4.263 2.287-8.959 3.096-13.725 3.374-.174.284-3.458-.361-3.511-.283-.296.43.463.67.61.763 3.411 2.598 6.125 5.98 8.593 9.452 2.394 3.747 4.359 7.823 5.148 12.236.647 3.618.41 4.437.264 8.129-.706 5.974-3.02 11.543-6.891 16.177-2.914 3.488-4.095 4.064-7.732 6.852-6.887 4.432-14.691 6.615-22.856 6.859-5.609.167-7.806-.337-13.351-1.048-7.49-1.365-14.717-3.969-20.917-8.46-1.042-.754-1.978-1.646-2.967-2.47l-.23.19c.996.83 1.937 1.728 2.986 2.489 6.22 4.513 13.473 7.136 20.99 8.513 5.562.719 7.766 1.226 13.393 1.066 8.287-.237 16.221-2.477 23.203-6.98 3.653-2.814 4.835-3.393 7.76-6.908 3.886-4.672 6.204-10.282 6.91-16.296.142-3.72.38-4.542-.274-8.188-.796-4.437-2.77-8.537-5.176-12.307-2.482-3.496-5.214-6.896-8.641-9.518-.221-.137-.63-.579-.97-.29-.06.052.158.028.237.042.247.041.492.092.74.122 1.101.133 1.398.109 2.578.139 4.889-.277 9.708-1.12 14.071-3.481.936-.598 1.912-1.139 2.808-1.795 5.731-4.197 10.018-10.095 13.396-16.26.618-1.426 1.314-2.822 1.853-4.28 2.864-7.739 3.782-16.097 2.5-24.248-.995-3.807-1.088-4.962-2.81-8.475-2.315-4.724-5.843-8.669-10.199-11.589-1.045-.575-2.056-1.216-3.135-1.724-4.818-2.27-10.156-2.901-15.375-1.922-.919.263-1.854.474-2.757.787-3.352 1.162-6.627 2.935-9.062 5.547z" style="fill:none;stroke:#000;stroke-linecap:butt"/><path d="M61.578 480.757c-4.33 1.158-8.26-2.064-10.951-5.294-7.028-8.433-9.61-21.137-4.644-31.291 3.911-7.996 11.197-13.212 18.983-16.402 11.365-4.657 24.753-3.664 35.878 1.588 7.223 3.41 13.975 9.78 15.494 18.17.22 1.222.059 2.48-.193 3.684" style="fill:none;stroke:#000;stroke-width:1;stroke-linecap:butt"/><path d="M63.714 565.605c-5.115 1.665-10.547 1.08-15.49-.55-10.416-3.438-19.021-13.186-22.671-23.964-5.06-14.941-2.212-31.968 5.675-45.065 4.69-7.79 12.853-14.414 20.257-16.892 3.182-1.065 7.122-2.026 10.118-.084.586.392.83 1.444-.025 1.707" style="fill:none;stroke:#000;stroke-width:1;stroke-linecap:butt"/><path d="M436.59-15.815c2.156-1.767 4.058-3.762 5.758-5.967 1.903-2.741 3.248-5.864 3.85-9.154.148-.807.214-1.627.322-2.44.246-5.139-.886-10.206-2.94-14.905-.485-1.111-1.065-2.179-1.598-3.268-3.059-5.204-7.328-10.025-13.177-12.107-1.127-.401-2.323-.57-3.485-.856-1.214-.04-2.43-.192-3.641-.118-4.562.279-9.216 2.034-12.374 5.425-.617.661-1.07 1.458-1.605 2.187-.302.695-.68 1.36-.906 2.084-.413 1.326-.784 3.967.736 4.843.235.135.525.132.787.198 1.709-.174 3.275-1.183 4.007-2.776.151-.33.22-.692.329-1.038.183-3.754-2.615-6.745-4.846-9.472-3.963-5.075-9.253-8.294-14.805-11.364-7.896-4.097-16.574-6.151-25.417-6.766-2.049-.143-4.106-.14-6.159-.211-9.917.213-20.047 1.39-29.198 5.475-1.391.621-2.696 1.42-4.044 2.13-2.485 1.758-4.976 3.808-5.111 7.12-.102 2.493 1.32 4.376 2.723 6.238 1.212 1.112 4.014 4.014 5.922 3.637.003-.122.055-.253.009-.366-.239-.58-1.073-1.186-1.464-1.636-.605-.694-1.273-1.588-1.824-2.302-2.023-2.629-3.99-5.342-6.33-7.706-1.9-1.918-2.683-2.413-4.838-4.092-5.453-3.87-11.759-6.016-18.305-7.136-1.311-.224-2.637-.357-3.955-.536-6.147-.507-12.768-.211-18.158 3.168-.922.577-1.715 1.338-2.572 2.007-.66.786-1.419 1.497-1.98 2.356-1.461 2.238-2.052 4.944-1.272 7.541.53 1.76 1.215 2.333 2.33 3.69 1.206 1.078 4.664 2.993 5.52.407.1-.297.078-.62.116-.93-.12-.382-.187-.784-.359-1.145-1.753-3.687-6.4-6.512-9.702-8.589-3.54-1.876-7.28-3.435-11.19-4.367-3.89-.927-7.848-1.21-11.825-1.403-5.138.057-10.208 1.2-14.56 4.044-2.915 1.905-3.42 2.77-5.722 5.29-.668 1.041-1.432 2.027-2.003 3.125-1.724 3.314-2.971 8.074-1.026 11.599.365.66.973 1.15 1.46 1.726l.25-.162c-.474-.551-1.07-1.019-1.425-1.654-1.932-3.459-.674-8.166 1.023-11.416.567-1.086 1.327-2.06 1.99-3.091 2.288-2.494 2.789-3.35 5.685-5.23 4.259-2.766 9.18-3.903 14.205-3.96 3.96.185 7.906.461 11.782 1.378 3.893.922 7.617 2.471 11.146 4.332 3.287 2.062 7.845 4.823 9.626 8.465.162.333.23.703.346 1.055-.034.282-.014.576-.102.846-.77 2.338-3.912.443-4.982-.48-1.09-1.312-1.77-1.876-2.29-3.583-.77-2.539-.183-5.185 1.252-7.369.556-.845 1.306-1.545 1.96-2.317.849-.658 1.635-1.407 2.547-1.974 5.296-3.293 11.759-3.593 17.791-3.096 1.314.176 2.635.308 3.943.53 6.517 1.105 12.799 3.229 18.231 7.074 2.135 1.66 2.934 2.166 4.815 4.063 2.339 2.359 4.302 5.069 6.322 7.693 1.05 1.364 2.116 2.708 3.331 3.931-2.138-.314-3.925-2.113-5.46-3.568-1.37-1.805-2.779-3.639-2.683-6.062.128-3.248 2.615-5.244 5.044-6.958 1.342-.704 2.642-1.496 4.027-2.111 9.054-4.025 19.056-5.198 28.865-5.41 2.048.068 4.1.064 6.146.204 8.816.605 17.472 2.64 25.347 6.72 5.531 3.053 10.805 6.251 14.754 11.305 2.181 2.662 4.964 5.607 4.803 9.271-.656 2.039-1.735 3.199-3.885 3.599-.234-.04-.49-.015-.703-.122-1.482-.753-1.058-3.403-.682-4.6.222-.708.595-1.36.892-2.04.528-.715.976-1.497 1.585-2.145 3.073-3.276 7.572-5.007 11.995-5.3 1.2-.08 2.402.065 3.603.097 1.15.277 2.335.438 3.451.831 5.814 2.045 10.056 6.835 13.095 11.995.53 1.084 1.108 2.146 1.592 3.251 2.04 4.666 3.168 9.699 2.922 14.802-.107.807-.174 1.62-.321 2.42-.6 3.26-1.938 6.354-3.83 9.068a37.184 37.184 0 0 1-5.748 5.942zM247.66 466.154c2.765-1.066 5.345-2.456 7.821-4.071 2.571-1.939 5.077-4.042 6.982-6.665 1.285-1.768 1.516-2.47 2.47-4.436 1.686-4.4 2.325-9.209 1.531-13.88-.174-1.023-.465-2.023-.698-3.034-1.37-4.248-3.471-8.236-6.653-11.415-2.006-2.004-3.207-2.697-5.516-4.32-5.254-3.068-11.2-5.053-17.35-4.76-1.188.057-2.364.276-3.546.414-4.526.935-8.683 2.96-11.527 6.718-1.729 2.284-2.123 3.656-3.235 6.265-1.19 3.96-.756 2.025-1.364 5.789l.298.01c.605-3.73.173-1.811 1.357-5.739 1.105-2.581 1.496-3.94 3.213-6.197 2.76-3.629 6.792-5.625 11.167-6.563 1.173-.14 2.34-.363 3.52-.423 6.11-.313 12.023 1.65 17.25 4.69 2.29 1.604 3.493 2.298 5.484 4.28 3.163 3.149 5.25 7.106 6.612 11.32.231 1.004.52 1.996.694 3.011.788 4.633.151 9.402-1.528 13.764-.948 1.948-1.175 2.638-2.453 4.388-1.9 2.603-4.392 4.69-6.951 6.61-2.471 1.603-5.046 2.98-7.799 4.042zM80.82-124.636c-1.124-2.442-2.052-5.057-2.062-7.781-.003-.767.119-1.53.178-2.294.212-.77.334-1.57.636-2.31 1.62-3.964 5.479-6.414 9.284-7.98 1.304-.537 2.67-.908 4.006-1.361 8.154-1.972 16.595-1.622 24.8-.133 1.502.272 2.983.654 4.474.98 6.546 1.8 11.837 5.114 15.701 10.756.558.814 1.01 1.694 1.516 2.54.567 1.185 2.997 5.395 1.106 6.561-.19.116-.426.126-.638.189-.907.035-2.744-.177-2.814-1.433-.014-.257.126-.499.189-.748.274-.324.509-.686.823-.971 3.884-3.526 10.279-4.766 15.232-5.7 6.422-.681 13.102-.846 19.516.077 3.566.512 4.52.955 7.876 2.01 4.071 1.735 8.256 4.286 10.378 8.356.22.42.345.883.518 1.325.424 1.882-.405 2.863-2.26 2.953-2.159-.197-2.95-.696-3.823-2.664-.038-.356-.133-.711-.113-1.069.215-3.893 4.246-6.704 7.02-8.784 6.794-4.49 14.513-7.406 22.446-9.147 1.887-.414 3.798-.712 5.696-1.068 8.733-1.001 18.203-1.778 26.468 1.96 1.222.553 2.316 1.354 3.474 2.03.88.832 1.87 1.56 2.639 2.495 2.872 3.493 3.786 8.287 3.456 12.692-.068.915-.283 1.813-.424 2.72-.813 2.706-.28 1.51-1.482 3.639l.287.082c1.21-2.185.675-.963 1.493-3.712.14-.917.356-1.826.423-2.751.327-4.464-.61-9.31-3.516-12.85-.778-.947-1.78-1.686-2.67-2.53-1.169-.685-2.273-1.495-3.506-2.055-8.29-3.768-17.797-3.004-26.565-2.006-1.903.355-3.818.648-5.708 1.065-8.044 1.773-15.88 4.703-22.762 9.276-2.835 2.14-6.886 5-7.065 8.99-.017.38.087.755.13 1.132.918 2.064 1.748 2.602 4.004 2.838 2.08-.22 3.13-1.084 2.64-3.336-.178-.454-.309-.929-.534-1.361-2.131-4.092-6.378-6.721-10.474-8.464-3.365-1.063-4.34-1.514-7.915-2.033-6.395-.927-13.164-.769-19.57-.097-4.925.947-11.774 2.261-15.584 5.87-.33.312-.565.71-.847 1.066-.056.293-.197.582-.17.879.137 1.476 2.235 1.688 3.305 1.536.233-.092.496-.127.698-.275 1.913-1.398-.453-5.438-1.11-6.817-.509-.854-.965-1.741-1.527-2.562-3.889-5.683-9.212-9.037-15.803-10.857-1.496-.33-2.98-.714-4.487-.988-8.323-1.518-16.888-1.873-25.15.183-1.342.46-2.715.836-4.025 1.38-3.858 1.605-7.728 4.111-9.353 8.14-.303.753-.425 1.567-.637 2.35-.059.776-.18 1.55-.175 2.328.015 2.75.948 5.39 2.08 7.857zM-207.145 141.188c-4.438.606-7.953-2.917-10.238-6.304-5.966-8.845-7.007-21.247-.86-30.352 4.841-7.17 12.7-11.302 20.812-13.446 11.841-3.13 25.013-.644 35.429 5.64 6.763 4.08 12.702 10.928 13.204 19.097.074 1.19-.238 2.37-.632 3.488M-414.526 570.93c-2.457 1.633-4.53 3.871-6.172 6.314-.491.732-.915 1.508-1.372 2.262-1.706 3.258-2.457 6.802-1.816 10.457.407 2.317.957 3.325 1.844 5.506 2.706 5.536 6.882 10.094 11.65 13.937 1.172.945 2.404 1.814 3.606 2.721 7.165 4.955 14.968 9.102 23.312 11.692 1.859.577 3.76 1.008 5.64 1.511 8.86 1.88 18.068 2.668 27.066 1.283 1.446-.223 2.868-.58 4.302-.87 4.077-1.24 8.962-2.419 11.725-5.994.238-.308.408-.663.612-.994.328-.771.745-1.718.4-2.558l-.281.106c.34.758-.127 1.673-.404 2.36-.199.32-.366.662-.597.958-2.702 3.453-7.422 4.61-11.381 5.834-1.428.293-2.844.652-4.284.877-8.973 1.397-18.16.617-26.998-1.249-1.875-.5-3.772-.928-5.626-1.502-8.326-2.577-16.113-6.711-23.264-11.65-1.2-.904-2.428-1.77-3.598-2.712-4.745-3.818-8.905-8.347-11.6-13.851-.879-2.155-1.427-3.159-1.829-5.446-.635-3.613.114-7.111 1.805-10.327.455-.748.876-1.518 1.366-2.243 1.632-2.42 3.692-4.635 6.136-6.245z" style="fill:none;stroke:#000;stroke-linecap:butt"/><path d="M-336.458 618.774c-.25 2.884.832 5.106 2.178 7.585 2.57 4.34 6.196 7.87 10.57 10.383 1.14.654 2.343 1.19 3.514 1.785 6.783 2.995 14.06 5.101 21.51 5.365 1.482.053 2.965-.048 4.448-.073 6.024-.608 12.593-2.136 16.356-7.356.549-.76.894-1.65 1.34-2.475.217-.847.525-1.675.65-2.54.501-3.481-.815-6.727-2.594-9.621-.322-.517-1.751-2.45-2.299-.903-.218.616.087 1.868.168 2.378 1.187 3.877 3.661 7.137 6.695 9.78.83.722 1.722 1.367 2.583 2.05 6.045 4.349 12.963 6.273 20.294 7.063 1.664.179 3.339.234 5.008.35 8.059.29 16.23-.484 23.923-3.02 1.552-.512 3.047-1.182 4.571-1.773 1.415-.736 2.877-1.386 4.243-2.207 4.577-2.747 8.902-6.651 11.043-11.648.423-.986.627-2.051.94-3.077.296-2.578.515-2.969.16-5.486-.106-.746-.339-1.468-.508-2.202l-.29.07c.168.723.398 1.434.502 2.169.352 2.482.135 2.868-.158 5.41-.31 1.012-.513 2.063-.931 3.035-2.133 4.958-6.44 8.823-10.986 11.542-1.363.814-2.82 1.46-4.228 2.19-1.52.586-3.012 1.246-4.557 1.758-7.583 2.512-15.654 3.24-23.597 2.973-1.665-.115-3.336-.168-4.995-.345-7.296-.776-14.187-2.675-20.208-6.996-.857-.678-1.746-1.317-2.57-2.034-3.004-2.609-5.46-5.827-6.64-9.658-.074-.457-.839-3.983.863-2.192.264.278.471.605.707.907 1.755 2.841 3.06 6.035 2.564 9.458-.123.848-.426 1.66-.64 2.49-.44.81-.78 1.681-1.321 2.427-3.728 5.137-10.044 6.581-15.978 7.208-1.476.028-2.953.131-4.429.082-7.426-.25-14.68-2.345-21.443-5.321-1.166-.59-2.364-1.122-3.498-1.77-4.35-2.49-7.956-5.99-10.51-10.3-1.302-2.39-2.414-4.67-2.15-7.458zM-203.265 609.113c.083.711.063 1.033.444 1.723 1.31 2.368 4.294 3.735 6.55 4.955 6.23 2.87 13.043 4.261 19.81 5.171 1.677.226 3.363.372 5.044.557 9.048.677 18.26.225 27.044-2.2 1.798-.497 3.545-1.16 5.318-1.74 6.451-2.579 12.348-6.312 16.914-11.606 2.724-3.157 3.123-4.245 5.146-7.796 2.122-4.55 3.42-9.496 2.54-14.53-.41-2.338-.868-3.037-1.804-5.128-.937-1.451-1.281-2.16-2.46-3.365-.347-.354-.757-.64-1.136-.96l-.23.19c.371.31.775.586 1.115.93 1.162 1.18 1.511 1.892 2.434 3.313.927 2.063 1.382 2.754 1.787 5.063.876 4.991-.423 9.894-2.53 14.404-2.016 3.529-2.413 4.61-5.126 7.747-4.552 5.264-10.43 8.97-16.856 11.526-1.68.555-3.337 1.192-5.042 1.665-8.763 2.427-17.951 2.896-26.98 2.224-1.678-.184-3.361-.328-5.034-.552-6.747-.904-13.539-2.285-19.754-5.132-2.198-1.184-5.175-2.535-6.466-4.831-.366-.65-.348-.953-.429-1.622zM-413.507 571.835c-3.176-.608-6.116-1.95-9.055-3.245-3.041-1.454-5.94-3.257-8.526-5.429-1.765-1.483-2.724-2.543-4.345-4.197-3.13-3.345-5.811-7.07-7.412-11.397-1.111-3-1.195-4.2-1.782-7.343-.638-5.364-.107-10.478 2.458-15.314 1.864-3.514 2.986-4.432 5.624-7.454 4.591-4.585 10.087-7.97 16.147-10.238 2.858-1.07 4.503-1.446 7.377-2.22 3.523-.832 6.995-1.222 10.275.535.033.063.773.472.434.577l.284.094c.166-.507-.134-.572-.517-.892-3.412-1.855-7.006-1.425-10.675-.534-2.88.781-4.531 1.161-7.395 2.24-6.083 2.29-11.596 5.703-16.2 10.316-2.65 3.05-3.774 3.972-5.644 7.517-2.572 4.876-3.103 10.032-2.458 15.434.592 3.164.676 4.368 1.795 7.39 1.61 4.349 4.302 8.097 7.448 11.462 1.624 1.659 2.593 2.73 4.362 4.22 2.596 2.185 5.508 3.999 8.562 5.464 2.95 1.3 5.9 2.655 9.088 3.27z" style="fill:none;stroke:#000;stroke-linecap:butt"/><path d="M-403.872 505.044c-1.838-1.016-3.474-2.364-4.507-4.23-.32-.578-.535-1.207-.803-1.81-.15-.731-.395-1.45-.453-2.194-.323-4.139 1.764-8.197 4.225-11.37.78-1.004 1.692-1.897 2.538-2.846 1.008-.86 1.965-1.782 3.022-2.579 4.046-3.05 9.223-5.572 14.243-6.441 1.065-.185 2.155-.179 3.232-.268.95.098 1.91.119 2.85.293 2.646.49 5.341 1.748 7.385 3.513.302.26.557.57.835.855.811.705 1.047 2.643-.174.74-1.37-2.86-1.21-6.18-.405-9.188.271-1.013.677-1.986 1.015-2.978 3.152-6.835 8.65-12.064 14.9-16.117 1.65-1.07 3.394-1.985 5.09-2.977a80.662 80.662 0 0 1 27.097-9.293c2.113-.322 4.248-.478 6.371-.716 7.553-.387 15.335-.006 22.355 3.104 3.33 1.476 3.802 2.12 6.496 4.28 1.896 2.107 4.307 5.02 2.793 8.04-.641 1.28-1.534 1.82-2.602 2.702h.001c1.068-.881 1.96-1.422 2.602-2.702 1.514-3.02-.897-5.933-2.794-8.04-2.693-2.161-3.165-2.804-6.496-4.28-7.019-3.111-14.801-3.492-22.354-3.105-2.124.238-4.259.394-6.372.716a80.665 80.665 0 0 0-27.097 9.294c-1.697.992-3.442 1.907-5.09 2.976-6.251 4.054-11.75 9.283-14.901 16.117-.338.993-.744 1.966-1.015 2.979-.806 3.008-.966 6.328.405 9.188 1.222 1.904.989-.034.176-.74-.278-.285-.534-.595-.835-.856-2.044-1.765-4.74-3.023-7.386-3.513-.94-.174-1.9-.195-2.85-.293-1.077.09-2.167.083-3.232.268-5.02.869-10.198 3.392-14.244 6.442-1.057.797-2.014 1.719-3.021 2.578-.847.95-1.76 1.843-2.54 2.848-2.46 3.172-4.547 7.23-4.224 11.37.058.744.302 1.462.453 2.194.268.603.484 1.231.803 1.809 1.033 1.866 2.67 3.215 4.507 4.23z" style="fill:none;stroke:#000;stroke-linecap:butt"/><path d="M-286.733 452.64c-1.618-1.278-3.05-2.755-4.408-4.302-2.026-2.595-3.318-5.812-2.403-9.134.22-.797.629-1.53.943-2.295.541-.792 1.005-1.642 1.623-2.375 3.472-4.119 8.55-6.83 13.534-8.642 1.529-.556 3.109-.96 4.663-1.441 1.677-.31 3.339-.714 5.03-.929 7.35-.934 15.056-.317 22.088 2.075 1.633.556 3.183 1.33 4.775 1.995 1.364.8 2.791 1.5 4.092 2.399 2.93 2.025 5.803 4.743 6.785 8.298.565 2.045.237 3.028-.04 5.015-.353 1.509-.972 2.91-1.673 4.281h.001c.701-1.37 1.32-2.772 1.674-4.28.275-1.988.604-2.971.04-5.016-.983-3.555-3.856-6.274-6.787-8.299-1.3-.899-2.727-1.6-4.091-2.4-1.592-.664-3.143-1.438-4.776-1.993-7.032-2.393-14.737-3.01-22.088-2.075-1.691.215-3.354.618-5.03.928-1.555.48-3.135.885-4.664 1.442-4.983 1.812-10.062 4.523-13.534 8.641-.618.734-1.082 1.584-1.623 2.376-.314.765-.723 1.497-.943 2.295-.916 3.322.377 6.54 2.403 9.135 1.357 1.546 2.79 3.023 4.408 4.302zM527.021 143.674c3.178.285 6.198 1.28 9.185 2.343a55.91 55.91 0 0 1 11.985 6.735c2.737 2.019 3.752 3.005 6.319 5.254 4.933 4.667 9.17 10.139 11.698 16.493.47 1.18.805 2.41 1.207 3.615 1.114 4.475 1.22 9.096-.534 13.431-1.112 2.748-1.744 3.283-3.505 5.668-4.244 4.7-9.56 8.249-15.268 10.933-1.15.54-2.33 1.01-3.496 1.515-4.4 1.847-8.988 3.148-13.559 4.485 4.571-1.336 9.16-2.638 13.56-4.484 1.165-.505 2.346-.975 3.496-1.515 5.707-2.684 11.023-6.234 15.268-10.934 1.76-2.384 2.393-2.92 3.505-5.668 1.753-4.335 1.648-8.956.534-13.432-.402-1.205-.737-2.434-1.207-3.615-2.529-6.354-6.765-11.825-11.699-16.493-2.566-2.25-3.581-3.235-6.318-5.253a55.91 55.91 0 0 0-11.985-6.736c-2.987-1.064-6.008-2.057-9.185-2.343zM-230.47 450.353c1.282-2.405 3.268-4.476 5.486-6.04.917-.647 1.904-1.189 2.856-1.783 5.403-2.853 11.316-4.525 17.398-5.073 4.738-.427 6.285-.202 11.056-.001 9.068.577 18.054 2.893 25.936 7.514 1.447.85 2.788 1.868 4.182 2.802 3.816 3.122 7.683 6.718 9.246 11.562.679 2.103.504 2.65.458 4.74-.142.62-.23 1.253-.427 1.857-.431 1.325-1.389 3.22-2.88 3.639-.145.04-.3-.006-.45-.01-.06-.092-.188-.169-.178-.278.04-.452.77-.826 1.029-.945 2.028-.934 3.849-.728 6.017-.608.975.214 1.972.348 2.926.642 4.888 1.507 9.293 4.624 12.734 8.363.937 1.018 1.742 2.15 2.613 3.226 4.204 6.133 5.135 12.39 5.576 19.6.004 1.126.11 2.572-.222 3.702-.105.356-.352.653-.528.98.177-.326.424-.624.529-.98.333-1.13.226-2.576.222-3.702-.44-7.21-1.372-13.468-5.576-19.6-.871-1.076-1.676-2.209-2.613-3.227-3.44-3.738-7.846-6.856-12.735-8.362-.954-.295-1.95-.429-2.925-.643-2.169-.12-3.99-.326-6.019.608-.259.12-.99.493-1.03.946-.01.11.12.187.179.28.15.003.306.049.452.008 1.491-.42 2.449-2.314 2.88-3.64.197-.604.285-1.238.427-1.857.046-2.09.22-2.637-.458-4.74-1.564-4.844-5.43-8.44-9.246-11.562-1.394-.934-2.735-1.953-4.182-2.802-7.882-4.622-16.869-6.938-25.936-7.515-4.771-.2-6.319-.426-11.057.001-6.082.549-11.995 2.22-17.399 5.074-.952.594-1.94 1.135-2.856 1.782-2.218 1.565-4.204 3.636-5.486 6.04zM516.926 280.483c2.055-2.028 4.813-2.87 7.532-3.588 4.786-.898 9.724-.716 14.506.135 1.15.204 2.283.49 3.425.734 1.18.366 2.376.68 3.539 1.096 2.247.805 4.86 1.995 6.987 3.08 2.231 1.139 3.841 2.043 5.822 3.575.894.69 1.709 1.478 2.563 2.217 3.014 2.894 5.671 6.178 7.333 10.045 1.135 2.641 1.283 3.775 1.97 6.588 1.006 5.302.894 10.749-.507 15.974-.975 3.637-1.722 4.947-3.256 8.394-2.994 5.603-6.795 10.853-11.692 14.958-3.227 2.705-4.187 3.013-7.836 5.044a31.124 31.124 0 0 1-12.205 2.921c-1.144.039-2.288-.067-3.431-.101 1.143.035 2.287.14 3.43.102a31.126 31.126 0 0 0 12.207-2.922c3.649-2.03 4.609-2.338 7.836-5.044 4.897-4.105 8.698-9.354 11.692-14.958 1.534-3.447 2.28-4.756 3.256-8.394 1.401-5.225 1.513-10.672.506-15.974-.686-2.814-.834-3.947-1.969-6.588-1.662-3.867-4.319-7.152-7.333-10.045-.854-.74-1.67-1.527-2.563-2.218-1.981-1.531-3.591-2.436-5.822-3.574-2.128-1.086-4.74-2.276-6.987-3.08-1.163-.417-2.36-.731-3.54-1.097-1.141-.244-2.275-.53-3.424-.734-4.783-.85-9.72-1.033-14.506-.135-2.72.719-5.478 1.56-7.534 3.588zM-21.572 536.05c.278-.263.57-.494.727-.863.809-1.904-.429-4.544-1.053-6.285-2.48-4.959-5.664-9.822-10.145-13.214-.842-.637-1.781-1.134-2.672-1.701-.925-.336-1.813-.797-2.773-1.007-2.924-.641-5.97.064-8.42 1.754-2.334 1.61-2.84 2.715-4.505 4.987-.546 1.112-1.19 2.182-1.638 3.337-1.965 5.06-2.092 10.703-1.054 15.985.26 1.322.688 2.605 1.033 3.908 1.716 4.656 4.354 9 8.451 11.939 2.481 1.779 3.117 1.756 5.952 2.698 4.753.83 8.88.586 13.126-1.895.737-.43 1.406-.967 2.109-1.45 3.05-2.556 5.29-5.817 6.244-9.715.66-2.692.513-3.754.546-6.51-.325-4.118-.095-2.12-.668-5.995.572 3.874.342 1.877.667 5.995-.033 2.756.113 3.818-.546 6.51-.954 3.897-3.194 7.159-6.244 9.714-.703.484-1.372 1.02-2.108 1.45-4.246 2.48-8.373 2.726-13.126 1.895-2.834-.942-3.47-.92-5.95-2.698-4.099-2.939-6.736-7.283-8.452-11.938-.345-1.303-.773-2.586-1.033-3.909-1.038-5.28-.911-10.925 1.054-15.984.448-1.155 1.092-2.225 1.638-3.337 1.665-2.272 2.17-3.377 4.505-4.987 2.45-1.689 5.495-2.394 8.418-1.754.96.21 1.849.672 2.773 1.008.89.567 1.83 1.063 2.673 1.7 4.48 3.393 7.663 8.256 10.144 13.214.624 1.74 1.862 4.381 1.053 6.284-.157.37-.45.6-.727.863zM-29.85 477.323c-1.09-2.207-2.954-4.03-5.105-5.214-.581-.32-1.21-.543-1.816-.814-.647-.14-1.283-.356-1.942-.42-2.092-.201-4.266.335-6.043 1.45-1.643 1.031-1.976 1.661-3.212 3.128-.352.679-.779 1.324-1.058 2.036-.865 2.21-1.014 4.717-.504 7.028.468 2.121 1.018 2.885 2.002 4.807.53.733 1.013 1.502 1.59 2.2 2.032 2.457 4.752 4.842 7.927 5.616.66.16 1.35.164 2.024.247.658-.098 1.333-.113 1.974-.294 2.889-.815 4.874-3.159 5.998-5.845.318-.76.51-1.566.765-2.349.152-.836.365-1.663.455-2.508.29-2.709.099-7.141-1.544-9.449-.408-.573-1.012-.98-1.518-1.469l-2.098-.777v.001l2.097.777c.506.49 1.11.895 1.518 1.469 1.643 2.307 1.833 6.74 1.544 9.448-.09.845-.303 1.672-.455 2.508-.255.783-.447 1.59-.765 2.348-1.124 2.686-3.109 5.03-5.997 5.845-.64.18-1.316.196-1.974.294-.674-.083-1.363-.086-2.023-.247-3.175-.773-5.896-3.159-7.928-5.616-.576-.697-1.06-1.466-1.589-2.2-.984-1.922-1.534-2.685-2.002-4.806-.51-2.312-.36-4.818.504-7.028.28-.712.705-1.357 1.058-2.035 1.236-1.467 1.568-2.097 3.212-3.128 1.776-1.115 3.95-1.651 6.042-1.45.659.064 1.294.28 1.941.42.606.271 1.235.494 1.816.814 2.152 1.184 4.015 3.007 5.104 5.213z" style="fill:none;stroke:#000;stroke-linecap:butt"/><path d="M-129.613 503.122c4.855.823 9.541 2.418 14.139 4.141 6.552 2.731 12.588 6.626 17.66 11.607 1.047 1.029 2.009 2.142 3.013 3.213 3.627 4.327 6.634 9.202 8.411 14.588 1.07 3.246 1.054 4.147 1.531 7.472.361 4.769-.377 9.44-2.54 13.73-1.437 2.851-2.138 3.512-4.084 6.043-4.367 5.01-10.121 8.349-16.46 10.227-1.148.34-2.325.568-3.487.852-4.098.7-2.124.418-5.92.874v.001c3.796-.457 1.822-.173 5.92-.874 1.162-.284 2.34-.512 3.487-.852 6.34-1.879 12.093-5.217 16.46-10.228 1.947-2.53 2.648-3.192 4.085-6.043 2.163-4.29 2.901-8.961 2.54-13.73-.477-3.325-.46-4.226-1.531-7.472-1.777-5.387-4.784-10.261-8.411-14.588-1.005-1.071-1.966-2.185-3.014-3.214-5.071-4.98-11.108-8.875-17.66-11.607-4.597-1.723-9.283-3.318-14.138-4.14z" style="fill:none;stroke:#000;stroke-linecap:butt"/><path d="M678.676 54c.58 3.87.35 1.87.67 5.99-.03 2.76.11 3.82-.54 6.51-.96 3.9-3.2 7.16-6.25 9.72-.7.48-1.37 1.02-2.11 1.45-4.24 2.48-8.37 2.72-13.12 1.89-2.84-.94-3.47-.92-5.95-2.7-4.1-2.93-6.74-7.28-8.46-11.93-.34-1.31-.77-2.59-1.03-3.91-1.04-5.28-.91-10.93 1.06-15.99.44-1.15 1.09-2.22 1.63-3.33 1.67-2.28 2.17-3.38 4.51-4.99 2.45-1.69 5.49-2.4 8.42-1.75.96.21 1.85.67 2.77 1 .89.57 1.83 1.07 2.67 1.7 4.48 3.4 7.67 8.26 10.15 13.22.62 1.74 1.86 4.38 1.05 6.28-.16.37-.45.6-.73.86" style="fill:none;stroke:#000;stroke-width:1;stroke-linecap:butt"/><path d="M530.267 192.243c2.928-.734 5.452.81 7.737 2.142 2.867 1.832 5.083 4.868 5.392 8.376.295 3.335-1.306 6.68-3.961 8.587-3.167 2.328-7.078 3.14-10.39 3.01-3.242-.126-6.435-1.242-8.495-3.647-2.492-2.812-3.454-7.024-2.548-11.321 1.214-4.462 5.102-7.827 9.122-8.557 1.253-.21 2.5-.067 3.592.423" style="fill:#e5f6ff;fill-opacity:1;stroke:#000;stroke-width:.999999;stroke-linecap:square;stroke-linejoin:round;stroke-miterlimit:2;stroke-dasharray:none"/><path d="m424.361 183.31 2.758-2.904c1.092-.403 2.141-1.082 3.291-1.243 4.572-.663 11.069 3.224 14.717 6.301 1.13.954 2.153 2.107 3.215 3.173.934 1.185 1.93 2.274 2.766 3.552 2.97 4.499 4.76 10.176 3.671 15.972-.243 1.282-.753 2.455-1.126 3.695-.639 1.087-1.193 2.276-1.938 3.27-3.588 4.789-9.12 7.25-14.225 8.439-1.454.342-2.93.444-4.39.67-3.519-.104-5.042.102-8.441-1.096-3.702-1.308-7.174-3.952-9.661-7.544-.797-1.16-1.375-2.515-2.074-3.768-1.132-3.55-1.774-4.72-1.964-8.546-.195-4.144.73-8.424 2.651-11.863.602-1.089 1.417-1.99 2.118-2.969.863-.802 1.67-1.687 2.582-2.39 3.383-2.602 7.449-4.12 11.453-3.896M99.791 234.791c-3.612 1.54-9.775-1.11-14.156-3.746-4.779-2.874-10.182-9.71-12.512-15.51-2.942-7.321-1.839-18.945 1.525-26.006 3.444-7.232 8.618-12.5 16.26-16.685 4.286-2.348 8.506-3.191 12.148-3.35 1.752-.075 2.788.198 3.656.574.354.417.507.767-.435.751-1.126-.306-2.414-1.194-3.313-2.117-2.473-2.536-2.574-6.659-1.629-9.835 1.522-5.11 5.675-9.554 10.218-12.348 4.186-2.574 9.485-3.953 14.338-3.684 3.826.211 8.284 1.989 8.967 4.181.35 1.126-.485 1.345-.932.482-.708-1.172-1.116-2.588-1.192-4.001-.422-7.79 4.646-14.52 10.376-19.067 12.841-10.19 29.563-15.926 46.538-14.957 7.233.412 13.26 2.266 17.091 5.656 2.544 2.251 1.03 3.152-.33 3.337-2.025.032-2.694-1.599-2.182-3.435.892-3.197 4.696-7.084 8.127-9.247 9.522-6.001 23.923-7.408 36.032-3.878 5.142 1.499 12.293 5.523 15.483 9.556 2.275 2.877 2.276 6.61.035 6.544-.78.043-1.29-1.227-.167-2.86 3.464-5.041 14.523-8.256 23.59-8.296 12.36-.055 26.868 3.837 35.83 10.626 4.334 3.284 8.093 8.347 8.833 12.987.596 3.733.493 7.95-2.29 7.47.018-.381.524-.652.792-.73 1.985-.574 5.18-.843 8.225-.433 5.67.763 12.71 4.053 17.291 8.478 4.804 4.638 6.675 10.295 6.798 14.515.077 2.634-1.099 9.126-4.873 8.716l-.526-1.145c3.952-1.138 12.474 1.078 19.441 5.345 8.466 5.185 15.121 12.86 18.125 25.076 1.712 6.963.895 16.568-2.845 22.403-4.336 6.766-10.381 10.801-17.768 12.168-1.818.337-3.406.325-4.854.027l.687-.638c5.332 4.287 5.983 12.187 4.579 18.606-2.208 10.091-10.23 17.141-21.334 21.767-10.151 4.228-27.796 5.692-39.083 3.4-5.131-1.04-10.329-3.297-14.505-5.317-.907-.438-3.244-1.839-2.663-2.593 7.96 5.629 4.417 12.895.234 16.905-7.226 6.926-18.189 9-28.352 9.691-10.631.724-23.01-.96-32.13-6.267-4.528-2.634-8.208-6.058-9.314-9.767-.257-.86.166-1.742.967-.756 1.639 1.99 3.406 5.622 2.16 9.541-1.474 4.633-6.181 7.287-10.857 8.368-9.76 2.255-20.185.48-29.537-3.257-6.798-2.716-13.05-8.032-15.78-14.725-.403-.986-.556-2.053-.51-3.095-.061-1.314 1.411-3.094 1.83-2.358.303 4.595-5.142 6.586-8.81 7.76-11.477 3.678-24.303 2.68-36.054-.666-10.796-3.075-20.948-7.701-28.27-14.468-4.541-4.198-8.693-10.49-9.127-17.385-.3-4.735 1.069-10.016 5.334-13.136" style="fill:#e5f6ff;fill-opacity:1;stroke:#000;stroke-width:.9;stroke-linecap:butt;stroke-dasharray:none"/><path d="M75.256 878.36c.025 5.072-6.032 7.202-10.101 8.454-12.732 3.917-26.623 2.66-39.19-1.174-11.545-3.523-22.473-9.686-31.116-18.161-5.173-5.072-10.006-11.928-9.33-19.51.533-5.991 4.609-11.418 9.457-14.81" style="fill:none;stroke:#000;stroke-width:1;stroke-linecap:butt"/><path d="M129.806 883.11c2.689 3.462 4.29 8.23 2.712 12.54-1.865 5.092-7.038 7.964-12.076 9.099-10.517 2.37-21.48.284-31.176-3.953-7.048-3.079-13.349-9.02-15.818-16.436-.364-1.094-.458-2.272-.342-3.421" style="fill:none;stroke:#000;stroke-width:1;stroke-linecap:butt"/><path d="M207.306 875.26c2.038 6.323-.831 13.205-5.534 17.577-8.126 7.554-19.363 10.745-30.207 11.385-11.343.669-23.57-.301-33.136-7.032-4.503-3.167-8.739-7.617-9.7-13.257-.164-.964.29-1.92 1.077-.823M289.176 836.44c5.686 4.513 6.771 12.795 4.502 19.376-3.666 11.799-14.044 20.51-25.562 24.252-14.333 4.869-30.013 4.22-44.626 1.004-5.6-1.436-11.484-3.143-15.877-7.078-.733-.77-1.321-1.73-1.317-2.824M7.236 768.26c-.828-1.89-3.81-2.196-5.762-2.192-4.825.01-9.511 1.698-13.962 3.444-8.498 3.336-16.313 9.28-20.706 17.398-4.125 7.62-3.35 17.137.162 24.816 2.895 6.329 7.89 11.592 13.501 15.627 4.493 3.23 9.736 5.524 15.127 6.797" style="fill:none;stroke:#000;stroke-width:1;stroke-linecap:butt"/><path d="M37.786 740.76c.428 1.114 1.363.798.563-.245-2.198-2.864-5.79-4.489-9.322-4.968-5.779-.785-11.498 1.442-16.388 4.352-5.306 3.158-9.978 7.79-12.224 13.65-1.384 3.61-1.008 7.974 1.602 10.925.95 1.074 2.121 1.93 3.369 2.626" style="fill:none;stroke:#000;stroke-width:1;stroke-linecap:butt"/><path d="M120.896 717.62c3.16-1.635 3.843-5.699 1.598-8.553-5.102-6.489-13.546-8.993-21.39-9.536-18.408-1.275-37.138 4.694-51.785 15.78-6.537 4.947-12.496 12.31-12.552 20.91-.01 1.56.34 3.127 1.019 4.539" style="fill:none;stroke:#000;stroke-width:1;stroke-linecap:butt"/><path d="M177.536 709.64c1.95-3.54 2.94-8.158.653-11.81-3.204-5.117-8.79-8.116-14.287-10.073-12.943-4.608-28.09-3.347-39.851 3.916-4.008 2.475-8.122 6.192-8.606 11.134-.492 5.013 3.514 8.95 7.08 11.893M251.476 731.34c2.996.466 4.153-4.48 3.989-7.075-.39-6.16-5.165-10.877-9.76-14.435-9.739-7.544-22.322-10.268-34.465-10.522-9.868-.206-20.26 1.873-28.185 7.992-1.764 1.362-3.21 3.137-4.26 5.11" style="fill:none;stroke:#000;stroke-width:1;stroke-linecap:butt"/><path d="M281.626 766.3c1.187-1.767 1.307-4.03 1.205-6.021-.347-6.8-2.53-13.815-6.839-19.285-3.974-5.045-9.327-9.33-15.632-10.844-2.686-.645-5.777-.931-8.284.472-.27.15-.556.386-.6.718M358.49 787.201l2.734-2.377c1.082-.33 2.122-.885 3.262-1.017 4.53-.543 10.97 2.639 14.586 5.157 1.12.78 2.134 1.724 3.186 2.597.926.969 1.913 1.86 2.741 2.906 2.944 3.682 4.718 8.328 3.64 13.072-.242 1.05-.747 2.009-1.117 3.024-.633.89-1.182 1.863-1.92 2.676-3.557 3.92-9.039 5.934-14.099 6.906-1.442.28-2.905.364-4.35.55-3.489-.086-4.999.082-8.368-.898-3.669-1.07-7.11-3.235-9.575-6.174-.789-.95-1.363-2.058-2.055-3.084-1.122-2.905-1.759-3.863-1.947-6.994-.193-3.392.724-6.894 2.628-9.708.597-.891 1.405-1.63 2.1-2.43.855-.657 1.655-1.381 2.558-1.957 3.353-2.13 7.382-3.372 11.352-3.188" style="fill:none;stroke:#000;stroke-width:1;stroke-linecap:butt"/><path d="M291.916 837.93c9.98-.856 20.021-4.9 26.536-12.83 5.076-6.178 7.075-14.515 5.478-22.275-2.453-11.914-10.766-21.982-20.76-28.55-7.072-4.647-16.34-7.938-23.524-9.095" style="fill:none;stroke:#000;stroke-width:1;stroke-linecap:butt"/><path d="M-377.696 155.094c-5.185.168-3.52-9.482-.996-14.195 4.812-11.646 12.971-20.836 21.675-26.225 14.044-8.955 28.952-11.89 42.538-10.403 18.105 2.377 33.83 14.759 42.53 34.48a44.533 44.533 0 0 1 2.601 9.475l-1.033-.53c1.455-6.136 7.507-12.985 13.53-15.804 18.213-8.523 35.788-4.474 49.23-.072 18.163 5.947 31.923 18.56 41.453 34.468 5.967 10.699 9.26 25.08 3.58 41.493-5.629-1.166 1.835-8.917 5.085-10.168 7.358-2.832 15.07-2.828 21.806-.023 11.239 4.68 20.122 12.968 27.755 22.247 10.707 13.017 18.724 28.826 21.23 46.174 1.69 11.691.89 25.407-7.754 35.478-3.337 3.888-12.984 7.177-16.874 4.943" style="display:inline;fill:#e5f6ff;fill-opacity:1;stroke:#000;stroke-width:.999999;stroke-linecap:butt;stroke-linejoin:miter;stroke-miterlimit:4;stroke-dasharray:none;stroke-dashoffset:0;stroke-opacity:1"/><path d="M605.405 873.993c.026 5.072-6.031 7.202-10.1 8.454-12.732 3.917-26.624 2.66-39.19-1.174-11.546-3.523-22.473-9.686-31.117-18.161-5.172-5.072-10.006-11.928-9.33-19.51.534-5.99 4.61-11.418 9.457-14.81" style="fill:none;stroke:#000;stroke-width:1;stroke-linecap:butt"/><path d="M661.324 878.743c2.754 3.462 4.393 8.23 2.778 12.54-1.91 5.092-7.208 7.964-12.367 9.099-10.771 2.37-21.998.284-31.928-3.953-7.218-3.079-13.67-9.02-16.2-16.436-.372-1.094-.468-2.272-.35-3.421" style="fill:none;stroke:#000;stroke-width:1;stroke-linecap:butt"/><path d="M737.505 870.62c8.46 6.432 4.125 14.406-.692 18.778-8.321 7.554-20.388 9.708-31.494 10.348-11.616.669-24.975-1.339-34.55-7.305-4.752-2.961-9.396-7.78-10.548-12.875-.215-.955.297-1.92 1.103-.823" style="fill:none;stroke:#000;stroke-width:1;stroke-linecap:butt"/><path d="M819.492 832.068c5.519 4.794 6.571 13.592 4.37 20.583-3.558 12.533-13.63 21.787-24.809 25.761-13.91 5.173-30.16 6.869-43.835 2.814-5.414-1.605-11.563-3.996-15.356-7.355-.808-.715-2.02-1.837-2.015-3M537.385 763.893c-.827-1.89-3.81-2.195-5.761-2.192-4.826.01-9.512 1.698-13.962 3.444-8.498 3.336-16.313 9.28-20.707 17.398-4.124 7.62-3.35 17.137.162 24.816 2.895 6.329 7.891 11.592 13.502 15.627 4.492 3.23 9.735 5.524 15.126 6.797" style="fill:none;stroke:#000;stroke-width:1;stroke-linecap:butt"/><path d="M567.935 736.393c.429 1.114 1.364.798.564-.245-2.199-2.864-5.79-4.489-9.322-4.968-5.78-.785-11.499 1.442-16.388 4.352-5.306 3.158-9.978 7.79-12.225 13.65-1.384 3.61-1.007 7.974 1.603 10.925.95 1.074 2.12 1.93 3.368 2.626" style="fill:none;stroke:#000;stroke-width:1;stroke-linecap:butt"/><path d="M651.045 713.253c3.161-1.635 3.843-5.699 1.599-8.553-5.102-6.489-13.546-8.993-21.39-9.536-18.409-1.275-37.139 4.694-51.786 15.78-6.536 4.947-12.495 12.31-12.552 20.91-.01 1.56.34 3.127 1.02 4.539" style="fill:none;stroke:#000;stroke-width:1;stroke-linecap:butt"/><path d="M707.685 705.273c1.95-3.54 2.94-8.158.654-11.81-3.204-5.117-8.79-8.116-14.287-10.073-12.944-4.608-28.09-3.347-39.852 3.916-4.007 2.475-8.121 6.192-8.606 11.134-.491 5.013 3.515 8.95 7.081 11.893M781.625 726.973c2.997.467 4.153-4.48 3.99-7.075-.39-6.16-5.166-10.877-9.76-14.435-9.74-7.544-22.323-10.268-34.465-10.522-9.868-.206-20.261 1.873-28.185 7.992-1.764 1.362-3.21 3.137-4.26 5.11" style="fill:none;stroke:#000;stroke-width:1;stroke-linecap:butt"/><path d="M810.793 761.769c.914-1.384 1.406-3.974 1.478-5.966.199-5.49-1.82-13.705-6.13-19.176-3.973-5.045-9.326-9.33-15.631-10.844-2.686-.645-5.777-.931-8.284.472-.27.15-.557.386-.6.718" style="fill:none;stroke:#000;stroke-width:1;stroke-linecap:butt"/><path d="M818.669 833.331c1.773.42 4.011.231 6.284-.106 8.997-1.335 17.763-5.327 23.649-12.491 5.076-6.179 7.074-14.516 5.477-22.276-2.452-11.914-10.766-21.981-20.759-28.55-7.072-4.647-16.34-7.938-23.525-9.095M360.137 520.438c1.774.42 4.012.231 6.285-.106 8.997-1.335 17.762-5.327 23.648-12.491 5.076-6.179 7.075-14.516 5.478-22.276-2.452-11.914-10.766-21.982-20.76-28.55-7.071-4.647-16.34-7.938-23.524-9.095M499.723 513.196c5.519 4.795 6.571 13.592 4.37 20.583-3.559 12.533-13.63 21.788-24.809 25.762-13.91 5.172-30.16 6.869-43.836 2.814-5.413-1.605-11.562-3.996-15.355-7.356-.808-.715-2.02-1.836-2.016-3M491.024 442.898c.914-1.384 1.406-3.974 1.478-5.967.199-5.489-1.821-13.705-6.13-19.175-3.973-5.046-9.327-9.33-15.631-10.844-2.686-.645-5.777-.931-8.284.471-.27.151-.557.386-.6.718" style="fill:none;stroke:#000;stroke-width:1;stroke-linecap:butt"/><path d="M498.932 514.151c1.557.42 3.264.843 5.285.743 8.283-.409 14.973-4.941 20.139-12.105 4.455-6.179 5.979-16.215 4.576-23.974-2.461-13.613-9.659-22.329-18.22-29.167-6.98-5.574-16.273-8.71-20.65-7.707M491.694 697.236c5.519 4.794 5.704 13.518 3.752 20.583-3.069 11.106-12.264 18.786-24.654 23.754-11.326 4.542-30.623 5.943-42.755 3.277-5.515-1.211-11.562-3.532-15.973-5.811-.958-.495-2.02-1.837-2.015-3M482.995 626.937c.914-1.384 1.406-3.974 1.478-5.966.199-5.49-1.82-13.705-6.129-19.176-3.974-5.045-9.327-9.33-15.632-10.844-2.686-.645-5.777-.931-8.284.472-.27.15-.556.386-.6.718" style="fill:none;stroke:#000;stroke-width:1;stroke-linecap:butt"/><path d="M490.903 697.936c1.557.343 3.284.375 5.285.03 8.129-1.402 14.973-5.73 20.14-13.055 4.454-6.317 5.978-16.78 4.575-24.393-2.46-13.355-9.195-21.803-18.066-27.56-7.299-4.735-16.427-7.254-20.803-6.06" style="fill:none;stroke:#000;stroke-width:.999999;stroke-linecap:butt"/><path d="M661.228 562.119c-3.69 1.629-9.984-1.175-14.46-3.963-4.88-3.04-10.4-10.27-12.78-16.405-3.004-7.745-2.745-20.224.358-27.838 3.518-8.632 9.784-15.06 17.372-18.413 3.973-1.756 9.015-2.61 12.845-2.45 1.79.075 2.847.209 3.734.606l-.11.39c-1.15-.324-2.41-1.147-3.328-2.123-2.525-2.683-3.058-6.786-1.998-10.116 1.721-5.404 5.74-9.99 10.38-12.945 4.276-2.723 9.364-4.443 14.645-3.782 3.227.404 6.565 1.758 8.713 4.365.781.95-.05 1.25-.506.336-.723-1.239-1.14-2.737-1.218-4.232-.43-8.24 4.746-15.359 10.598-20.169 13.116-10.779 30.196-16.845 47.534-15.82 7.388.435 13.545 2.396 17.457 5.982 2.598 2.382 1.052 3.334-.337 3.53-2.069.034-2.751-1.69-2.228-3.633.91-3.382 4.795-7.493 8.3-9.781 9.725-6.349 24.435-7.836 36.802-4.103 5.253 1.586 12.557 5.842 15.815 10.108 2.324 3.044 2.324 6.992.036 6.923-.797.045-1.317-1.299-.17-3.026 3.538-5.332 14.833-8.732 24.095-8.775 12.623-.058 27.442 4.059 36.595 11.24 4.427 3.474 8.267 8.829 9.023 13.738.608 3.948.504 8.409-2.339 7.9.018-.402.535-.688.808-.77 2.028-.609 5.292-.893 8.401-.459 5.792.807 12.982 4.288 17.662 8.967 4.906 4.906 6.817 10.89 6.943 15.355.078 2.786-1.122 9.653-4.977 9.219l-.538-1.21c4.037-1.205 12.742 1.14 19.857 5.653 8.648 5.485 15.445 13.603 18.513 26.524 1.748 7.366.914 17.526-2.906 23.698-4.43 7.157-10.603 11.426-18.148 12.872-1.856.356-3.478.344-4.958.027l.702-.675c5.446 4.535 6.11 12.892 4.676 19.682-2.254 10.674-10.448 18.132-21.79 23.024-10.368 4.473-28.39 6.022-39.919 3.598-5.24-1.102-10.55-3.488-14.815-5.625-.926-.464-3.313-1.945-2.72-2.743 8.13 5.954 4.512 13.64.24 17.881-7.381 7.327-18.58 9.52-28.96 10.252-10.858.765-23.502-1.015-32.817-6.629-4.625-2.786-9.25-7.354-10.617-12.224-.256-.912.17-1.843.987-.8 2.778 3.288 4.584 7.84 3.31 11.985-1.505 4.9-6.313 7.709-11.088 8.851-9.97 2.386-20.617.508-30.17-3.445-6.943-2.873-13.329-8.496-16.118-15.575-.41-1.044-.567-2.172-.52-3.274-.062-1.39 1.441-3.273 1.87-2.494.308 4.86-5.253 6.966-9 8.209-11.722 3.89-24.822 2.833-36.824-.706-11.028-3.252-21.397-8.146-28.875-15.303-4.639-4.44-8.879-11.097-9.323-18.39-.305-5.008 1.092-10.595 5.449-13.895" style="fill:#e5f6ff;fill-opacity:1;stroke:#000;stroke-width:1;stroke-linecap:butt"/><g style="display:inline"><ellipse cx="145.954" cy="201.885" rx="16.429" ry="33.746" style="fill:none;stroke:#000;stroke-width:1;stroke-dasharray:none"/><ellipse cx="204.092" cy="201.885" rx="16.429" ry="33.746" style="fill:none;stroke:#000;stroke-width:1;stroke-dasharray:none"/><ellipse cx="263.811" cy="201.885" rx="16.429" ry="33.746" style="fill:none;stroke:#000;stroke-width:1;stroke-dasharray:none"/><ellipse cx="322.408" cy="201.885" rx="16.429" ry="33.746" style="fill:none;stroke:#000;stroke-width:1;stroke-dasharray:none"/><path d="M174.047 142.722h.699c1.19 0 1.096-1.458 1.909-2.67.585-.89 1.398-1.704 2.834-1.704.945 0 1.493.454 1.493 1.117 0 .53-.397.757-.775.757-.529 0-.661-.208-.661-.473s.17-.55.17-.7c0-.095-.057-.152-.284-.152-.944 0-1.681 1.022-2.078 2.5l-.36 1.325h1.512l-.226.72h-1.436l-1.493 5.795c-.133.511-.284 1.23-.567 1.931-.624 1.572-1.644 3.371-3.307 3.371-.907 0-1.36-.454-1.36-1.022 0-.455.264-.928.812-.928.51 0 .699.34.699.625 0 .36-.303.378-.303.606 0 .113.114.17.284.17 1.228 0 1.795-2.992 2.079-4.072l1.644-6.476h-1.455z" style="fill:#000"/><path d="m239.21 141.914-.245.852h-1.53c.245.284.32.53.32.947 0 1.42-1.001 2.595-2.664 2.803-1.115.151-1.663.625-1.663 1.098 0 1.193 4.403.436 4.403 2.803 0 1.345-1.247 2.86-4.063 2.86-2.532 0-3.477-1.08-3.477-2.178 0-1.099 1.04-1.667 2.211-2.046-.321-.208-.453-.568-.453-.89 0-.72.699-1.647 1.606-1.647v-.076c-1.266-.284-1.776-1.174-1.776-2.064 0-1.496 1.285-2.992 3.288-2.992.793 0 1.38.246 1.663.53zm-2.947 1.212c0-.7-.19-1.174-1.02-1.174-1.021 0-1.853 1.344-1.853 2.632 0 .871.227 1.534 1.059 1.534 1.341 0 1.814-1.931 1.814-2.992zm.245 7.916c0-1.477-2.494-1.383-3.628-1.8-.151.095-.34.19-.491.304-.492.36-.907.852-.907 1.363 0 .89.831 1.837 2.626 1.837 1.72 0 2.4-.87 2.4-1.704zM297.665 150.392l.264.208c-.548.644-1.474 2.007-2.513 2.007-.34 0-.775-.19-.775-.795 0-.227.02-.492 1.21-5.056.037-.133.132-.55.132-.834 0-.36-.132-.662-.454-.662-.68 0-1.927 1.61-2.532 2.518-.642.966-1.172 1.932-1.266 2.31l-.605 2.311h-1.474l2.873-11.363c.019-.075.037-.132.037-.189 0-.246-.189-.417-.585-.417a4.68 4.68 0 0 0-.548.038l-.038-.265 3.004-.454-2.06 7.878h.076c1.002-1.099 2.362-3.58 4.082-3.58.794 0 1.077.644 1.077 1.326 0 .417-.113.814-.208 1.212l-1.096 4.356c-.019.094-.038.132-.038.19 0 .113.057.264.246.264.416 0 .926-.663 1.19-1.003zM151.297 256.534h-5.154v-.29h.29c1.012 0 1.301-.38 1.301-1.102 0-.109-.018-.253-.036-.38l-.235-2.043h-3.58l-1.52 2.531a.772.772 0 0 0-.18.47c.018.326.307.524.778.524h.524v.29h-3.942v-.29c.633-.072 1.302-.289 1.953-1.337l6.437-10.432h.326l1.41 10.504c.127.886.579 1.265 1.338 1.265h.29zm-3.96-4.484-.452-4.104h-.109l-2.513 4.104zM200.758 244.706h4.556c1.52 0 4.268.163 4.268 2.621 0 1.41-.778 2.224-1.646 2.658-.452.235-.976.38-1.338.47l.055.072c1.085.2 2.296.958 2.296 2.495 0 1.79-1.483 3.49-5.226 3.49h-5.858l.072-.29h.362c1.374 0 1.717-.524 1.862-1.139l2.224-8.949c.018-.09.036-.271.036-.38 0-.47-.343-.759-1.41-.759h-.344zm3.76.76-1.066 4.555c.362.073.687.109.958.109 2.026 0 3.038-1.194 3.038-2.947 0-1.392-1.175-1.772-2.152-1.772-.27 0-.542.018-.777.054zm-1.229 5.369-1.23 4.827a4.39 4.39 0 0 0 1.284.162c1.7 0 3.436-.759 3.436-3.11 0-1.319-1.157-1.952-2.568-1.952-.289 0-.65 0-.922.072zM270.994 244.588l-.958 4.032h-.29c.019-.145.019-.308.019-.76 0-1.175-.56-2.603-2.749-2.603-3.634 0-5.768 3.634-5.768 6.725 0 2.025 1.085 3.869 3.526 3.869 1.772 0 3.092-.886 3.906-1.772.126-.126.217-.235.307-.361l.362.235a6.452 6.452 0 0 1-1.61 1.663 5.978 5.978 0 0 1-3.49 1.103c-3.49 0-5.207-2.369-5.207-5.026 0-4.158 3.634-7.105 8.01-7.105.977 0 1.917.488 2.857.488.2 0 .489-.036.76-.488zM320.042 244.706h5.1c3.399 0 5.225 1.862 5.225 4.972 0 3.814-2.947 6.833-7.613 6.833h-5.533l.072-.289h.326c1.338 0 1.754-.506 1.899-1.12l2.206-8.986c.036-.144.072-.307.072-.434 0-.397-.325-.669-1.392-.669h-.452zm3.815.741-2.206 9.112c-.09.343-.09.434-.09.488 0 .741 1.085.777 1.718.777 3.472 0 4.9-3.326 4.9-5.875 0-2.08-.596-4.556-3.255-4.556a9.56 9.56 0 0 0-1.066.054z"/><path d="M275.49 167.198c10.002-8.567 24.413-8.543 34.39.06M216.648 167.198c10.001-8.567 24.413-8.543 34.39.06M157.666 167.198c10.002-8.567 24.413-8.543 34.39.06" style="fill:none;stroke:#000;stroke-width:1.07575;stroke-linecap:butt"/><path stroke-linejoin="round" d="M280.438 167.73c-.88-1.1-4.233-1.146-4.91-.61.677-.536 1.386-3.792.505-4.893M221.596 167.73c-.881-1.1-4.233-1.146-4.91-.61.677-.536 1.385-3.792.504-4.893M162.614 167.73c-.88-1.1-4.233-1.146-4.91-.61.677-.536 1.386-3.792.505-4.893" class="difference-arrows-tips" style="display:inline;fill:none;stroke:#000;stroke-width:1.05;stroke-linecap:round;stroke-linejoin:round;stroke-dasharray:none"/></g></svg>