<svg xmlns="http://www.w3.org/2000/svg" width="600" height="500"><path d="M696.984 276.889c2.595.024 5.19-.03 7.784-.12 4.187-.138 8.369-.395 12.555-.549 3.5-.122 7.003-.156 10.505-.172 1.481-.005 2.962-.007 4.444-.003l.038-.093a823.082 823.082 0 0 0-4.444.003c-3.503.016-7.006.05-10.507.172-4.187.153-8.368.41-12.555.548-2.593.09-5.187.145-7.782.12z" style="fill:#000;stroke:#000"/><path d="M715.52 276.372c.105.795.079 1.6.152 2.398.084.92.178 1.359.335 2.29.525 2.792 1.042 5.586 1.472 8.395.242 1.717.421 3.443.524 5.174.021.37.026.74.023 1.111l.1-.007c.003-.372-.002-.744-.023-1.116a64.685 64.685 0 0 0-.526-5.18c-.43-2.809-.947-5.604-1.472-8.397-.156-.927-.25-1.364-.333-2.282-.073-.8-.047-1.607-.153-2.405zM723.249 284.223c1.855-.143 3.718-.188 5.577-.283 2.206-.087 4.408-.208 6.595-.515.386-.071.772-.159 1.125-.335l-.077-.065a3.965 3.965 0 0 1-1.019.303c-2.185.31-4.385.432-6.59.518-1.86.096-3.725.143-5.584.28z" style="fill:#000;stroke:#000"/><path d="M730.183 283.77c-.147 1.553-.063 3.123-.009 4.68a65.2 65.2 0 0 0 .557 6.835c.097.457.096.946.263 1.388l.095-.033c-.168-.435-.159-.923-.26-1.372a65.04 65.04 0 0 1-.555-6.828c-.054-1.553-.138-3.12.01-4.67z" style="fill:#000;stroke:#000"/><path d="M725.24 296.414c2.402-.306 4.825-.397 7.244-.487 2.013-.11 4.034-.022 6.043-.18.408-.045.224-.02.553-.068l.029-.097c-.326.049-.144.024-.548.07-2.009.163-4.03.07-6.04.182-2.421.089-4.845.178-7.25.485zM743.662 283.009c-.015 2.335-.003 4.67.085 7.004.13 2.213.27 4.436.719 6.612l.057.304.098-.021-.057-.305c-.448-2.172-.588-4.392-.717-6.6-.088-2.334-.1-4.667-.085-7.002z" style="fill:#000;stroke:#000"/><path d="M743.558 282.693c.68 1.112 1.367 2.22 2.066 3.32.976 1.448 2.008 2.857 3.001 4.295.215.2.662 1.159.963 1.199.057-.038.12-.068.169-.114.32-.302.586-.772.834-1.119.67-.937.65-.903 1.373-1.892 1.153-1.52 2.271-3.066 3.443-4.572.28-.453.701-.721 1.122-1.015.238-.176.199-.272.322.042.22 1.353.228 2.732.327 4.098.177 2.113.43 4.218.622 6.329.06.734.122 1.469.157 2.205l.003.069.001.013.1-.013v-.01l-.003-.07c-.036-.737-.098-1.473-.158-2.208-.192-2.111-.446-4.216-.622-6.328-.1-1.373-.105-2.76-.332-4.119-.157-.39-.242-.267-.5-.064-.43.292-.844.582-1.132 1.034-1.171 1.507-2.29 3.053-3.443 4.573-.748 1.023-1.47 2.068-2.25 3.065-.014.008-.027.029-.043.023-.174-.063-.714-1.062-.865-1.175-.992-1.436-2.023-2.845-3-4.291-.7-1.101-1.386-2.21-2.066-3.323zM762.212 281.843c.306 1.256.285 2.568.321 3.852.092 2.102.176 4.204.223 6.308.002 1.022.065 2.045.19 3.06.05.24-.052.318.195.337 1.505-.022 3.01-.04 4.514-.104 1.4-.066 2.8-.129 4.201-.19.733-.032 1.466-.046 2.195-.126l.031-.096c-.727.084-1.46.096-2.19.128-1.4.062-2.801.124-4.201.19-1.509.066-3.016.088-4.525.1-.159.126-.071-.133-.121-.255a25.483 25.483 0 0 1-.19-3.054 302.097 302.097 0 0 0-.222-6.308c-.037-1.291-.015-2.61-.324-3.872z" style="fill:#000;stroke:#000"/><path d="M761.627 288.66c2.122-.124 4.245-.224 6.37-.298 1.258-.039 2.515-.051 3.769-.164l.033-.095c-1.253.115-2.51.127-3.766.166-2.124.074-4.246.17-6.368.298zM761.655 281.49c2.753-.15 5.506-.31 8.26-.442 1.09-.052 2.18-.092 3.27-.143l.035-.095c-1.09.052-2.18.092-3.27.145-2.755.13-5.508.292-8.262.44zM798.18 277.067c-1.337.49-2.5 1.352-3.512 2.342-.356.348-.68.727-1.019 1.09-1.309 1.629-2.457 3.427-2.91 5.495-.29 1.316-.22 1.741-.226 3.08.118 1.535.55 2.94 1.49 4.175.804 1.06 1.86 1.79 2.946 2.524.83.5 1.685.985 2.644 1.173l.05-.087c-.952-.178-1.798-.663-2.621-1.155-1.079-.727-2.13-1.45-2.93-2.5-.934-1.224-1.362-2.615-1.479-4.137.006-1.33-.063-1.753.225-3.06.453-2.058 1.598-3.846 2.901-5.465.339-.36.662-.737 1.016-1.083 1.007-.983 2.165-1.838 3.495-2.32zM799.284 283.778c2.096-.25 4.203-.376 6.31-.477.91-.04 1.82-.046 2.726-.156l.03-.097c-.903.115-1.812.119-2.72.159-2.11.1-4.22.228-6.318.474z" style="fill:#000;stroke:#000"/><path d="M805.734 279.812c-.942 1.61-1.53 3.4-2.072 5.177-.535 1.944-.919 3.94-.983 5.958.043 1.27.469 2.513 1.348 3.454.15.162.328.295.492.443.188.113.365.247.565.338.903.41 1.938.328 2.853-.003.204-.074.392-.185.588-.277.53-.31.912-.76 1.243-1.265l-.096-.032c-.325.492-.702.932-1.223 1.23-.193.09-.38.195-.58.27-.867.32-1.857.387-2.716.004-.196-.087-.37-.218-.555-.327-.162-.144-.337-.275-.486-.433-.87-.926-1.29-2.155-1.333-3.408.065-2.011.448-4.001.982-5.939.542-1.771 1.128-3.556 2.07-5.16zM813.435 276.957c1.773 1.068 2.938 2.89 4.051 4.579 1.288 2.072 2.214 4.356 2.574 6.778.223 1.503.145 1.877.096 3.362-.375 2.912-1.55 4.571-3.555 6.579l.09.045c2.014-2.023 3.19-3.7 3.565-6.63.048-1.492.126-1.867-.099-3.378-.361-2.43-1.29-4.723-2.583-6.803-1.12-1.7-2.294-3.53-4.076-4.61zM706.455 313.228c-.016 2.109.013 4.216.06 6.324.093 2.412.197 4.823.31 7.234l.1-.01c-.114-2.411-.218-4.822-.31-7.234a208.5 208.5 0 0 1-.06-6.322z" style="fill:#000;stroke:#000"/><path d="M700.625 312.718c1.618-.785 3.426-1.152 5.21-1.291.553-.043 1.107-.037 1.66-.056 2.04.094 4.146.404 5.935 1.458.916.54 1.046.778 1.743 1.52.558.88 1.034 1.997.429 2.992-.414.68-.82.851-1.473 1.312-1.417.833-2.999 1.238-4.588 1.585l-.024.097c1.626-.36 3.248-.766 4.695-1.626.666-.476 1.073-.649 1.489-1.351.408-.689.328-1.526.025-2.237-.124-.292-.314-.552-.47-.829-.705-.751-.836-.993-1.76-1.539-1.798-1.063-3.915-1.378-5.964-1.475-.556.018-1.112.01-1.666.053-1.823.14-3.671.52-5.32 1.325zM724.187 312.592a11.006 11.006 0 0 0-3.104 2.28c-.3.313-.567.656-.85.983-1.057 1.431-1.809 3.078-2.01 4.86-.13 1.15-.033 1.373.114 2.5.124.377.207.769.37 1.13.483 1.066 1.294 1.87 2.39 2.293.937.362 1.469.327 2.463.403.457-.03.916-.031 1.37-.091a13.897 13.897 0 0 0 5.184-1.797c.353-.21.68-.462 1.02-.693 1.044-.849 2.035-1.856 2.227-3.25.103-.749-.013-1.085-.137-1.827-.65-2.297-1.953-3.452-3.874-4.722-1.568-.928-3.395-1.238-5.2-1.162-.298.012-.593.056-.89.084l-.032.095c.294-.029.588-.073.883-.087 1.792-.08 3.609.222 5.167 1.14 1.87 1.231 3.23 2.431 3.847 4.671.122.73.238 1.063.136 1.797-.19 1.377-1.179 2.368-2.209 3.204-.338.229-.664.478-1.015.686a13.783 13.783 0 0 1-5.073 1.767c-.45.06-.907.063-1.36.094-.983-.071-1.513-.035-2.44-.386-1.082-.41-1.884-1.198-2.361-2.249-.162-.356-.245-.744-.367-1.117-.146-1.117-.243-1.338-.113-2.478.2-1.77.95-3.404 2-4.824.283-.325.55-.665.848-.976.883-.917 1.936-1.708 3.086-2.256zM744.431 313.537c-1.352-.28-2.975.216-4.269.607-.47.195-1.172.352-1.391.898-.217.543.173 1.06.432 1.484.82 1.08 1.937 1.857 2.991 2.685.908.713 1.04.834 1.932 1.58.943.905 2.623 2.276 2.944 3.615.042.174.024.357.036.536-.047.165-.067.34-.142.493-.614 1.261-2.542 1.357-3.72 1.457-2.213-.026-3.844-.652-5.569-1.981-.425-.377-.25-.196-.54-.528l-.084.056c.295.34.118.155.548.538 1.738 1.342 3.381 1.978 5.612 2.01 1.229-.1 3.23-.213 3.853-1.54.076-.162.095-.345.142-.518-.014-.185.003-.376-.041-.557-.329-1.356-2.006-2.728-2.962-3.645-.885-.74-1.032-.874-1.933-1.582-1.048-.823-2.159-1.594-2.977-2.664-.24-.39-.634-.896-.428-1.402.215-.528.915-.671 1.366-.862.85-.26 1.689-.473 2.57-.599.494-.07.79-.115 1.266-.066.104.01.204.045.306.068zM749.225 314.516c2.468-.15 4.936-.246 7.41-.265 1.385-.027 2.771.063 4.155-.025l.034-.094c-1.382.091-2.768-.001-4.152.027-2.472.018-4.94.112-7.409.264zM755.854 314.65a91.784 91.784 0 0 0-.092 4.795c-.017 1.897.06 3.787.301 5.67l.1-.017c-.242-1.88-.318-3.767-.302-5.662-.012-1.6.022-3.196.093-4.794zM749.808 327.49c1.853-.367 3.754-.396 5.635-.466 2.48-.109 4.962-.066 7.443.018.471.013.943-.005 1.414-.035l.034-.095c-.469.031-.938.05-1.408.038-2.482-.084-4.965-.128-7.447-.02-1.916.071-3.856.094-5.74.485zM765.62 313.675c2.262.011 4.522-.092 6.784-.102 2.042.014 4.083.073 6.124-.013l.036-.094c-2.04.087-4.08.03-6.122.015-2.262.009-4.521.112-6.783.101zM772.513 314.005c.402 1.72.556 3.497.715 5.254.18 2.033.194 4.075.337 6.11.053.638.026.347.078.873l.1-.015c-.052-.524-.026-.234-.078-.87-.144-2.036-.157-4.078-.338-6.112-.16-1.762-.313-3.546-.718-5.27zM782.576 314.072c2.082-.166 4.177-.145 6.265-.163 2.373-.05 4.758.002 7.125-.201.495-.066.272-.03.67-.104l.027-.097c-.394.076-.173.038-.664.105-2.365.21-4.75.152-7.12.204-2.09.018-4.188-.002-6.273.16zM790.17 314.683c.358 1.852.658 3.717.928 5.584.285 1.891.481 3.795.643 5.701l.03.35.1-.014-.03-.35c-.163-1.907-.359-3.812-.645-5.705-.27-1.87-.57-3.737-.93-5.59zM781.92 327.105c2.121-.144 4.246-.224 6.37-.29 2.7-.003 5.4-.003 8.099-.06l.54-.014.037-.093-.54.014c-2.7.058-5.4.059-8.1.06a185.89 185.89 0 0 0-6.376.287zM809.115 312.951c-1.268-.018-2.432.574-3.538 1.123-1.042.565-2.012 1.322-2.698 2.301-.456.65-.552.968-.875 1.7-.502 1.396-.714 2.91-.354 4.373.256 1.037.45 1.207.995 2.11.282.286.532.607.845.86 1.38 1.118 3.235 1.599 4.974 1.712.442.029.886.005 1.329.008 1.159.006 2.276-.23 3.366-.61.631-.221 1.177-.448 1.72-.844.241-.177.446-.4.67-.599 1.066-1.35 1.39-2.856 1.072-4.543-.07-.372-.186-.733-.28-1.1-.653-1.816-1.648-3.572-3.096-4.881-.267-.242-.568-.445-.853-.667-.315-.174-.613-.382-.945-.522a5.954 5.954 0 0 0-3.043-.39c-.265.035-.519.128-.778.192l-.022.098c.255-.066.504-.16.764-.197a5.867 5.867 0 0 1 3.011.37c.329.138.625.343.938.514.282.22.58.42.847.66 1.44 1.298 2.43 3.044 3.08 4.848.093.364.209.722.278 1.091.315 1.664-.005 3.15-1.061 4.478-.221.196-.423.414-.662.587-.547.396-1.075.608-1.71.832-1.053.372-2.136.596-3.258.59-.44-.001-.882.024-1.321-.004-1.724-.108-3.568-.578-4.939-1.681-.309-.249-.557-.565-.836-.847-.54-.89-.733-1.059-.986-2.084-.358-1.45-.146-2.95.353-4.334.132-.299.247-.606.397-.896.693-1.34 1.836-2.357 3.154-3.061 1.071-.529 2.198-1.109 3.423-1.094zM822.515 313.677c.136 2.267.222 4.537.288 6.807.07 1.992.143 3.987.405 5.964.05.315.025.176.074.417l.098-.022c-.048-.237-.022-.1-.073-.412-.261-1.975-.335-3.967-.404-5.956a221.803 221.803 0 0 0-.288-6.813zM822.441 312.946c1.672 1.552 2.96 3.473 4.333 5.283 1.825 2.423 3.469 4.974 5.221 7.448.41.555.797 1.13 1.23 1.668.06.069.074.1.167-.096.125-.266.085-1.29.09-1.48.035-2.869.065-5.74-.02-8.608-.023-.775-.092-1.556.008-2.327l-.1-.001c-.098.775-.033 1.56-.008 2.338.086 2.868.055 5.736.02 8.605-.007.27-.01.539-.022.808a7.033 7.033 0 0 1-.03.428c-.008.073-.038.144-.037.218 0 .033.03.059.044.089.005.011-.12-.119-.026-.027-.434-.536-.818-1.11-1.228-1.664-1.754-2.475-3.398-5.026-5.223-7.45-1.375-1.814-2.667-3.739-4.34-5.296zM854.225 312.252a15.039 15.039 0 0 0-4.252 3.46c-.357.42-.67.876-1.004 1.315-.284.495-.605.97-.854 1.484-.862 1.778-1.469 4.071-.626 5.979.183.415.492.761.739 1.142 1.15 1.25 2.667 1.857 4.24 2.372l.057-.082c-1.558-.506-3.063-1.104-4.209-2.336-.243-.374-.55-.714-.73-1.122-.84-1.888-.23-4.165.625-5.925.248-.51.567-.983.851-1.475.334-.436.645-.89 1.001-1.309a14.981 14.981 0 0 1 4.241-3.44zM854.813 317.36a204.68 204.68 0 0 1 4.783 4.133c1.041.917 2.116 1.795 3.173 2.694.557.474 1.098.933 1.582 1.48l.118.185.09-.046-.124-.194c-.486-.551-1.028-1.012-1.589-1.488-1.056-.9-2.13-1.777-3.172-2.693a207 207 0 0 0-4.783-4.135z" style="fill:#000;stroke:#000"/><path d="M862.915 319.404c-1.422 1.183-2.86 2.346-4.297 3.51-.824.743-1.777 1.354-2.535 2.169l.09.043c.76-.808 1.708-1.42 2.53-2.16 1.438-1.164 2.876-2.327 4.3-3.51zM869.606 314.655c1.63 1.178 2.87 2.778 3.975 4.435.729 1.286 1.284 2.727.947 4.228-.184.819-.48 1.2-.894 1.91-.78 1.21-1.936 2.057-2.991 3l.088.049c1.063-.945 2.217-1.804 3-3.021.419-.724.713-1.104.897-1.94.335-1.517-.221-2.973-.958-4.273-1.11-1.665-2.356-3.272-3.992-4.458z" style="fill:#000;stroke:#000"/><g style="stroke-width:.733118"><path d="M541.472 253.624c-.38 0-.76 0-1.14.003-.898.003-1.798.012-2.697.041-1.073.037-2.148.1-3.22.134-.668.022-1.333.035-1.997.03M537.802 261.346c-.008-.859-.108-1.714-.23-2.563-.186-1.283-.227-2.552-.428-3.833-.062-.39-.034-.787-.086-1.178" style="fill:none;stroke:#000;stroke-width:.733118;stroke-dasharray:none" transform="matrix(1.35164 0 0 1.37655 -205.138 -93.27)"/><path d="M550.178 253.192c-.187.088-.391.14-.596.175-1.274.181-2.56.251-3.85.304-1.088.052-2.175.081-3.262.163" style="fill:none;stroke:#000;stroke-width:.733117" transform="matrix(1.35164 0 0 1.37655 -205.138 -93.27)"/><path d="M547.034 261.139c-.099-.251-.093-.537-.152-.8a37.813 37.813 0 0 1-.32-3.988c-.036-.905-.083-1.822.005-2.727" style="fill:none;stroke:#000;stroke-width:.733117" transform="matrix(1.35164 0 0 1.37655 -205.138 -93.27)"/><path d="M551.4 260.56c-1.169.1-2.355.042-3.53.112-1.414.047-2.828.1-4.237.28" style="fill:none;stroke:#000;stroke-width:.733117" transform="matrix(1.35164 0 0 1.37655 -205.138 -93.27)"/><path d="M561.139 261.104c-.023-.421-.132-1.358-.166-1.78-.108-1.202-.251-2.399-.354-3.607-.057-.78-.057-1.573-.188-2.342-.092-.228-.137-.154-.286-.04-.245.165-.48.33-.645.587-.667.86-1.307 1.744-1.969 2.61-.422.581-.839 1.18-1.284 1.744-.006.006-.012.017-.023.017-.097-.04-.405-.61-.49-.672-.572-.821-1.16-1.619-1.713-2.445-.4-.627-.98-2.052-1.203-1.904-.033 1.322.084 2.873.135 4.2.075 1.26.155 2.525.411 3.762M569.663 260.668c-.383.042-.766.047-1.154.063-.735.037-1.47.069-2.204.1-.787.037-1.58.047-2.372.053-.084.068-.037-.069-.063-.132-.068-.532-.1-1.07-.1-1.613a175.795 175.795 0 0 0-.115-3.32c-.021-.68-.01-1.375-.173-2.045" style="fill:none;stroke:#000;stroke-width:.733118" transform="matrix(1.35164 0 0 1.37655 -205.138 -93.27)"/><path d="M569.12 256.746c-.711.069-1.43.074-2.141.097-1.214.04-2.421.098-3.63.172M569.207 253.247c-.572.027-1.144.048-1.716.08-1.443.068-2.892.152-4.335.231" style="fill:none;stroke:#000;stroke-width:.733118" transform="matrix(1.35164 0 0 1.37655 -205.138 -93.27)"/><path d="M580.708 262.02c-.793-.172-1.469-.662-2.089-1.158-.846-.675-1.204-1.773-1.2-2.83.004-1.262.563-2.443 1.348-3.4.594-.724 1.322-1.386 2.222-1.71M586.937 255.785c-.548.024-1.1 0-1.651-.008a74.644 74.644 0 0 0-3.839.026" style="fill:none;stroke:#000;stroke-width:.733117" transform="matrix(1.35164 0 0 1.37655 -205.138 -93.27)"/><path d="M586.333 260.521c-.29.485-.838.767-1.4.81-.547.043-1.065-.247-1.377-.679-.383-.53-.487-1.201-.42-1.84.15-1.404.516-2.786 1.097-4.074.088-.196.488-.98.765-1.342M589.61 262.685c.74-.704 1.383-1.562 1.586-2.577.256-1.281.034-2.62-.462-3.818-.414-.998-1.013-1.92-1.722-2.737a3.697 3.697 0 0 0-.893-.751" style="fill:none;stroke:#000;stroke-width:.733117" transform="matrix(1.35164 0 0 1.37655 -205.138 -93.27)"/></g><g style="stroke-width:.732802"><path d="M253.832 16.32a308.549 308.549 0 0 1-.177-4.002c-.029-1.16-.046-2.327-.034-3.493" style="fill:none;stroke:#000;stroke-width:.732802" transform="matrix(1.35106 0 0 1.37832 -103.837 3.634)"/><path d="M255.314 12.76c1.184-.258 2.447-.554 3.358-1.404.478-.474.405-1.256.032-1.769-.38-.581-.97-1.003-1.608-1.267-1.181-.488-2.485-.608-3.752-.547-1.084.068-2.175.276-3.162.742M263.158 8.633c1.397-.187 2.881.108 4.031.965.878.654 1.598 1.584 1.72 2.694.094.868-.457 1.631-1.107 2.135a7.484 7.484 0 0 1-4.038 1.523c-.916.063-1.947-.041-2.635-.723-.672-.666-.875-1.68-.787-2.59.192-1.984 1.623-3.735 3.405-4.562M271.065 14.581c.458.483 1.055.826 1.669 1.072 1.048.419 2.244.436 3.318.093.475-.151.92-.6.814-1.127-.133-.66-.678-1.127-1.142-1.577-.86-.835-1.883-1.476-2.79-2.255-.364-.313-.782-.678-.86-1.17-.065-.415.44-.566.76-.666.695-.216 1.418-.39 2.148-.398.095 0 .185.026.276.047M286.002 8.882c-.958.055-1.909 0-2.86.016-1.709.012-3.41.061-5.106.144M282.003 14.946c-.143-1.04-.183-2.084-.177-3.129a51.06 51.06 0 0 1 .057-2.653M286.678 15.578c-.957.06-1.914-.032-2.871-.022a60.724 60.724 0 0 0-4.05.117c-.48.037-.96.093-1.432.187M294.143 9.186c-1.167.05-2.334.017-3.507.006-1.293.006-2.586.06-3.879.055M291.386 16.24c-.035-.294-.018-.133-.046-.482-.086-1.127-.092-2.255-.195-3.377-.091-.978-.177-1.962-.412-2.913M303.642 8.738c-1.35.116-2.717.088-4.073.116-1.196.011-2.397 0-3.587.088M301.262 15.565a44.775 44.775 0 0 0-.366-3.157 62.289 62.289 0 0 0-.532-3.09M303.888 15.952c-1.544.033-3.089.033-4.634.033-1.218.038-2.431.083-3.65.16M308.918 8.655c.143-.033.286-.089.435-.105a3.446 3.446 0 0 1 1.722.204c.19.072.36.188.538.282.16.122.332.233.486.365.824.719 1.39 1.68 1.763 2.681.051.2.12.398.16.603.177.917-.006 1.74-.612 2.476-.126.105-.24.227-.378.32-.315.222-.612.338-.978.465-.601.205-1.219.326-1.865.326-.252 0-.504.011-.756-.006-.984-.06-2.036-.32-2.826-.928-.177-.139-.315-.31-.475-.47-.309-.492-.423-.58-.566-1.15-.206-.802-.08-1.63.2-2.394.08-.165.143-.337.229-.497.4-.74 1.053-1.305 1.808-1.692.612-.293 1.253-.613 1.956-.602" style="fill:none;stroke:#000;stroke-width:.732802" transform="matrix(1.35106 0 0 1.37832 -103.837 3.634)"/><path d="M339.01 17.454c-1.089-.345-2.143-.76-2.939-1.61-.167-.262-.384-.497-.51-.774-.585-1.305-.16-2.88.434-4.097.174-.352.397-.677.6-1.015.23-.304.447-.615.698-.905a10.233 10.233 0 0 1 2.96-2.377M347.323 15.858c-.342-.38-.719-.698-1.11-1.023-.74-.621-1.486-1.23-2.212-1.865a145.066 145.066 0 0 0-3.344-2.853" style="fill:none;stroke:#000;stroke-width:.7328" transform="matrix(1.35106 0 0 1.37832 -103.837 3.634)"/><path d="M341.56 15.528c.662-.7 1.48-1.229 2.202-1.87 1.244-1.013 2.497-2.017 3.742-3.039M350.557 16.967c.747-.656 1.55-1.25 2.094-2.087.294-.504.503-.766.629-1.34.237-1.05-.154-2.059-.67-2.957-.775-1.147-1.64-2.26-2.785-3.074" style="fill:none;stroke:#000;stroke-width:.7328" transform="matrix(1.35106 0 0 1.37832 -103.837 3.634)"/><g style="stroke-width:.732802"><path d="M435.151 265.514c.078 1.363.127 2.727.165 4.092.04 1.197.082 2.395.232 3.584.029.19.014.106.042.25" style="fill:none;stroke:#000;stroke-width:.732802" transform="matrix(1.35106 0 0 1.37832 -263.863 -351)"/><path d="M441.361 266.786c-.056.428-.018.862-.004 1.292.05 1.585.032 3.171.011 4.757-.004.149-.006.298-.012.447-.015.338.043.34-.038.356-.045.01-.517-.65-.693-.885-1.003-1.368-1.944-2.778-2.988-4.118-.787-1.003-1.526-2.067-2.483-2.928" style="fill:none;stroke:#000;stroke-width:.732802" transform="matrix(1.35106 0 0 1.37832 -263.863 -351)"/></g></g><path d="M658.67 149.325c-1.48 0-2.96 0-4.44.01-3.5.01-7.01.05-10.51.17-4.18.15-8.37.41-12.55.55-2.6.09-5.19.14-7.78.12" style="fill:none;stroke:#000;stroke-width:1"/><path d="M644.49 169.105c0-.37 0-.74-.02-1.11-.11-1.73-.29-3.46-.53-5.18-.43-2.81-.95-5.6-1.47-8.4-.16-.93-.25-1.36-.34-2.28-.07-.8-.04-1.61-.15-2.4M662.83 156.405c-.32.15-.67.24-1.02.3-2.18.31-4.38.43-6.59.52-1.86.09-3.72.14-5.58.28" style="fill:none;stroke:#000;stroke-width:1"/><path d="M657.45 170.015c-.17-.43-.16-.92-.26-1.37-.3-2.26-.49-4.54-.55-6.83-.06-1.55-.14-3.12.01-4.67" style="fill:none;stroke:#000;stroke-width:1"/><path d="M664.92 169.025c-2 .17-4.03.07-6.04.19-2.42.08-4.84.17-7.25.48M670.93 169.975c-.45-2.17-.59-4.39-.72-6.6-.09-2.33-.1-4.66-.08-7M684.42 168.835c-.04-.74-.1-1.47-.16-2.21-.19-2.11-.44-4.21-.62-6.33-.1-1.37-.1-2.76-.33-4.11-.16-.4-.24-.27-.5-.07-.43.29-.84.58-1.13 1.03-1.17 1.51-2.29 3.06-3.45 4.58-.74 1.02-1.47 2.07-2.25 3.06-.01.01-.02.03-.04.03-.17-.07-.71-1.07-.86-1.18-1-1.44-2.03-2.84-3-4.29-.7-1.1-1.39-2.21-2.07-3.32M700.45 168.265c-.73.08-1.46.09-2.2.12-1.4.07-2.8.13-4.2.19-1.5.07-3.01.09-4.52.1-.16.13-.07-.13-.12-.25-.13-1.01-.19-2.03-.19-3.06-.05-2.1-.13-4.2-.22-6.3-.04-1.29-.02-2.61-.33-3.88" style="fill:none;stroke:#000;stroke-width:1"/><path d="M698.16 161.475c-1.25.12-2.51.13-3.76.17-2.13.07-4.25.17-6.37.3M699.58 154.185c-1.09.05-2.18.09-3.27.15-2.75.13-5.51.29-8.26.44M724.01 170.235c-.96-.18-1.8-.66-2.63-1.15-1.07-.73-2.12-1.45-2.93-2.5-.93-1.23-1.36-2.62-1.47-4.14 0-1.33-.07-1.75.22-3.06.45-2.06 1.6-3.85 2.9-5.47.34-.36.66-.73 1.02-1.08 1-.98 2.16-1.84 3.49-2.32M734.71 156.425c-.9.11-1.81.12-2.72.16-2.11.1-4.22.23-6.32.47" style="fill:none;stroke:#000;stroke-width:1"/><path d="M736.04 166.985c-.33.49-.71.93-1.23 1.23-.19.09-.38.19-.58.27-.86.32-1.86.38-2.71 0-.2-.09-.37-.22-.56-.33-.16-.14-.34-.27-.48-.43-.88-.93-1.3-2.15-1.34-3.41.07-2.01.45-4 .98-5.94.55-1.77 1.13-3.55 2.07-5.16M743.05 171.675c2.02-2.02 3.19-3.7 3.57-6.63.05-1.49.12-1.87-.1-3.38-.36-2.43-1.29-4.72-2.58-6.8-1.12-1.7-2.3-3.53-4.08-4.61" style="fill:none;stroke:#000;stroke-width:1"/><path d="M517.806 520.475c-1.467.013-2.935.03-4.402.068-3.805.098-7.606.263-11.406.452-4.457.149-8.919-.056-13.378.035-4.678.095-9.342-.328-14.022-.382-3.201-.037-8.66.297-12.987.054-4.249-.238-8.048-.138-13.422-.046-4.623.08-11.047.254-16.569.19-5.996-.072-11.986.56-17.976.272-6.153-.296-12.318-.484-18.479-.502-5.391-.016-10.783.211-16.174.214-4.736.002-9.472.012-14.208-.006-4.868-.018-9.737-.048-14.6-.268-6.301-.285-12.6.29-18.905.076-7.33-.247-14.659.407-21.99.216-6.724-.128-13.45-.383-20.176-.402-6.086 0-12.173.004-18.259-.042-4.458-.05-8.915.27-13.367.031-4.602-.246-9.208.02-13.816.032-5.435.003-10.87.005-16.302.128-6.434.173-12.861-.697-19.272-.143-6.73.455-13.442-.096-20.159.505-6.148.59-12.306-.102-18.474.27-5.336.334-10.665-.073-16.01-.423-5.946-.249-11.883-.046-17.825-.356-6.572-.42-13.148.404-19.724.036-5.6-.323-11.205.265-16.815.128-3.134-.106-6.26-.334-9.392-.431M636.269 259.148c2.04-1.04 4.057-2.124 6.067-3.22 3.747-1.94 7.568-3.956 11.736-4.806.067-.007 2.605.012 1.567-.43-3.427-.935-6.91-1.658-10.35-2.548-4.745-1.09-9.499-2.149-14.276-3.089M98.228 261.83c4.72-.44 9.485-.337 14.222-.25 7.957.237 15.91.52 23.872.607 8.388.053 16.776-.048 25.162-.162 7.16-.163 14.324-.1 21.483.065 7.16.182 14.31.567 21.47.708 7.28-.004 14.558.225 21.838.157 7.852-.168 15.703-.403 23.555-.585 7.26-.177 14.518-.325 21.78-.243 5.604.12 11.21.134 16.816.1 5.445-.062 10.89.133 16.335.188 5.326.04 10.653-.03 15.979-.1 4.532-.065 9.063-.138 13.595-.21a386765.91 386765.91 0 0 1 27.041-.426l15-.236c5.697-.112 11.391-.207 17.089-.11 5.379.157 10.762.072 16.141.178 5.014.153 10.03.228 15.046.233 5.094-.016 10.188-.098 15.282-.176l13.752-.219c3.837-.06 7.67.16 11.507.223 4.65.083 9.299-.076 13.947 0 3.894.13 7.789.224 11.685.25 2.753.012 5.505-.025 8.256-.065 1.799.008 3.603-.045 5.36-.42m.024-.093c-1.752.383-3.553.43-5.346.425-2.751.04-5.503.078-8.254.065-3.897-.025-7.791-.118-11.685-.248-4.649-.079-9.298.082-13.947-.001-3.837-.063-7.672-.283-11.51-.223-4.583.072-9.167.147-13.751.219-5.094.078-10.187.16-15.282.176a508.686 508.686 0 0 1-15.044-.232c-5.38-.107-10.762-.02-16.142-.177-5.698-.099-11.393-.004-17.09.108l-15 .236-14.029.22c-4.337.068-8.675.136-13.012.206-4.532.072-9.064.146-13.596.21-5.325.071-10.651.14-15.977.101-5.446-.055-10.89-.25-16.336-.19-5.606.035-11.21.022-16.815-.098-7.263-.083-14.522.065-21.782.242-7.852.182-15.702.417-23.554.585-7.28.07-14.556-.16-21.836-.156-7.16-.14-14.31-.525-21.47-.708-7.16-.165-14.324-.228-21.485-.066-8.386.114-16.773.215-25.16.163-7.962-.087-15.915-.369-23.872-.607-4.74-.088-9.507-.19-14.23.247" style="fill:none;stroke:#000;stroke-width:1;stroke-dasharray:none"/><path d="M608.863 250.452c3.192.518 6.25 1.61 9.282 2.697 2.81 1.07 5.635 2.1 8.407 3.266.51.225 1.03.435 1.528.69-.78-.095-2.484.313-3.302.442-4.072.616-8.132 1.323-12.161 2.176-.98.158-1.926.472-2.888.7" style="fill:none;stroke:#000;stroke-width:.999999;stroke-dasharray:none"/><path d="M622.298 305.34c3.277.742 6.472 1.774 9.646 2.866 2.598.956 5.187 1.93 7.73 3.023.067.21 1.51.5.55.179-.244-.083-.97-.148-1.168-.17-3.302.021-6.552.793-9.735 1.602-2.259.504-4.41 1.356-6.598 2.089" style="fill:none;stroke:#f0f;stroke-width:1;stroke-dasharray:none"/><path d="M613.163 275.989c3.85.853 7.652 1.902 11.462 2.915 3.124.884 6.236 1.81 9.405 2.52.587.159 1.199.213 1.786.37.036.008.139.044.102.042-.811-.052.241-.142-.929.026-3.704.723-7.372 1.628-11.02 2.588-2.6.716-1.375.372-3.676 1.026" style="fill:none;stroke:#000;stroke-width:1;stroke-dasharray:none"/><path d="M301.3 487.406c.054-3.234-.069-6.459.006-9.695.1-5.903.104-11.811.112-17.718.125-7.14-.026-14.278.048-21.42.065-7.426.07-14.853.075-22.28.002-7.029 0-14.058 0-21.087.022-6.236.102-12.464-.009-18.695-.085-5.103-.102-10.21-.112-15.315-.006-5.515-.003-11.031-.003-16.547l.001-19.775V308.26c-.115-5.604-.26-11.205-.335-16.812-.118-5.883.336-11.746.127-17.618-.223-6.273.032-12.563.003-18.848-.022-7.516-.016-15.031-.015-22.547.002-8.597.003-17.195.003-25.793.03-7.042-.174-14.076-.296-21.112-.142-5.517-.416-11.013-.634-16.519-.147-5.09-.386-10.167-.536-15.256-.15-5.883-.158-11.775-.171-17.664-.068-7.084.111-14.161.242-21.238.1-5.256.142-10.514.16-15.773.067-4.615-.032-9.217-.177-13.822-.147-5.002-.187-10.012-.213-15.021-.02-4.992-.017-9.985-.016-14.977l.002-12.96v-5.136" style="fill:none;stroke:#000;stroke-width:.999997;stroke-dasharray:none"/><path d="M-45.786 85.74c1.39-3.143 2.695-6.322 3.76-9.59a37.349 37.349 0 0 0 1.846-7.84c.052-.823.175-1.652.15-2.478.606 1.966 1.375 3.91 1.99 5.888 1.29 3.963 2.565 7.93 3.665 11.95.217.794.406 1.595.626 2.388l.097-.027c-.22-.793-.408-1.593-.626-2.387-1.1-4.021-2.376-7.989-3.665-11.953a75.823 75.823 0 0 0-1.495-4.343c-.156-.41-.247-.85-.46-1.233-.058-.105-.155-.182-.233-.273-.003.824-.074 1.647-.15 2.467a37.336 37.336 0 0 1-1.845 7.826c-1.064 3.267-2.37 6.444-3.759 9.585z" style="fill:none;stroke:#f0f;stroke-width:1;stroke-dasharray:none"/><path d="M-47.5 68.502c1.627-2.967 3.281-5.92 4.93-8.874 1.415-2.568 3.002-5.034 4.69-7.429.352-.38.673-1.41 1.004-.517.867 2.61 1.982 5.131 3.132 7.626a53.59 53.59 0 0 0 1.674 3.33M304.983 48.091a53.292 53.292 0 0 1-1.672-3.324c-1.15-2.494-2.264-5.014-3.13-7.623-.422-1.08-.81.083-1.193.516-1.689 2.398-3.277 4.866-4.693 7.436l-1.223 2.19" style="fill:none;stroke:#000;stroke-width:1;stroke-dasharray:none"/><path d="M-43.549 56.075c.433-3.072 1.364-6.042 2.193-9.023 1.024-3.809 2.13-7.597 3.49-11.3.606-1.655.735-1.576 1.713-.358 1.665 2.632 3.272 5.289 5.12 7.8l.087-.05c-1.85-2.512-3.456-5.17-5.121-7.803-1.068-1.333-1.264-1.302-1.898.394-1.36 3.706-2.466 7.495-3.49 11.306-.83 2.983-1.762 5.956-2.195 9.03z" style="fill:none;stroke:#f0f;stroke-width:1;stroke-dasharray:none"/><path d="M309.049 227.32c-2.147-.075-1.005-.053-3.428-.053h-12.555" style="fill:none;stroke:#000;stroke-width:1;stroke-dasharray:none"/><path d="M264.697 255.46c.02 4.086 0 8.168-.096 12.252l-.057 2.097M336.692 268.515c-.027-4.328-.27-8.649-.287-12.976" style="fill:none;stroke:#000;stroke-width:.999999;stroke-dasharray:none"/><path d="M294.25 296.267c3.903-.037 7.801 0 11.7.168l2.02.1" style="fill:none;stroke:#000;stroke-width:1;stroke-dasharray:none"/><path d="M457.83-48.558h21.232M-55.495 256.663h21.231M298.914 558.1h21.231" style="fill:none;stroke:#f0f;stroke-width:1;stroke-dasharray:none"/><path d="M258.98 275.847c.727-.079 1.448-.203 2.173-.289a29.738 29.738 0 0 1 2.117-.142l-.214.007c-.635.026-1.27.067-1.902.134-.726.086-1.446.21-2.173.29zM265.67 273.398c.636-.467 1.287-.913 1.919-1.386.099-.03.52-.46.624-.451.035.003.012.054-.012.14-.213.562-.33 1.146-.414 1.74-.099 1.008-.166 2.024-.14 3.037.013.376.06.749.108 1.121.008.065.016.13.02.195v.007h.001v-.007a4.723 4.723 0 0 0-.02-.195c-.047-.372-.095-.745-.108-1.121-.026-1.013.041-2.029.14-3.037.085-.594.201-1.178.414-1.74.012-.046.057-.137.01-.14-.104-.01-.525.42-.624.45-.632.474-1.283.92-1.919 1.386zM265.372 278.374a40.685 40.685 0 0 1 2.468-.41c.639-.074 1.279-.166 1.92-.096.076.01.15.025.222.048v-.001a1.233 1.233 0 0 0-.22-.048c-.643-.07-1.283.022-1.921.095-.827.113-1.65.248-2.468.411zM276.89 296.211c.783-.109 1.57-.175 2.36-.222a46.99 46.99 0 0 1 1.716-.058l.054-.001v-.001h-.054c-.572.01-1.144.028-1.716.06a30.11 30.11 0 0 0-2.36.221zM283.15 293.351c.766-.32 1.529-.645 2.287-.982.123-.02.777-.427.872-.351-.043.566-.137 1.137-.19 1.706-.082.94-.12 1.888-.026 2.828.045.237.06.494.164.716h.001c-.104-.222-.119-.479-.164-.716-.093-.94-.056-1.888.025-2.828.054-.57.149-1.14.19-1.707-.096-.077-.748.332-.873.351-.758.337-1.52.662-2.286.982zM283.465 297.977c1.136-.19 2.285-.27 3.433-.336.791-.036 1.585-.048 2.37-.166h.08v-.002l-.08.001c-.785.118-1.579.13-2.37.166-1.148.066-2.297.146-3.432.336z" style="fill:#000;stroke:#000;stroke-width:1;stroke-dasharray:none"/><path d="M286.456 220.884c.634-.522 1.264-1.05 1.921-1.543.186-.102.55-.443.782-.338.17.421.08.941.056 1.383-.064 1.1-.098 2.2-.017 3.3.044.433.09.867.179 1.293-.087-.427-.134-.86-.178-1.293-.08-1.1-.047-2.2.018-3.3.023-.442.113-.962-.057-1.384-.232-.105-.597.236-.783.339-.658.492-1.287 1.02-1.921 1.542zM286.42 225.337H292.26v-.001H286.42z" style="fill:#000;stroke:#000;stroke-width:1;stroke-dasharray:none" transform="translate(-2.312 4.73)"/><path d="M463.052 259.25c-.766-.09-8.826.092-18.65-.213-4.45-.137-8.788-.04-12.07-.14-3.178-.097-5.365-.153-5.703-.14-2.322 0-4.644-.172-6.966-.172-2.315 0-4.629-.172-6.943-.171-2.004 0-4.008-.17-6.011-.168-2.183 0-4.367.007-6.55-.032a69.158 69.158 0 0 1-5.886-.38c-2.249-.238-4.502-.383-6.757-.506-1.738-.008-3.477-.007-5.213-.128-1.614-.145-3.216-.423-4.83-.565-1.797-.218-3.583-.33-5.37-.641-1.53-.317-3.064-.599-4.59-.946a39.131 39.131 0 0 0-4.427-.866 27.171 27.171 0 0 1-4.04-.821c-1.55-.44-3.106-.423-4.66-.832-1.793-.494-3.584-.702-5.376-1.198-2.133-.587-4.278-1.105-6.381-1.858-2.139-.737-4.29-1.117-6.425-1.872-1.877-.743-3.768-1.234-5.616-2.087-1.78-.822-3.594-1.654-5.354-2.545-1.832-.89-3.665-1.626-5.503-2.495-1.437-.7-2.877-1.838-4.3-2.583-1.576-.914-3.187-2.185-4.759-3.113-1.63-1.002-3.214-2.35-4.766-3.534-1.733-1.311-3.318-2.56-4.8-3.899a56.243 56.243 0 0 0-4.075-3.779c-1.655-1.793-3.181-2.707-4.57-4.493-1.203-1.548-3.497-2.902-4.594-4.625-.843-1.324-3.91-4.58-5.222-6.199-1.462-1.805-3.325-3.637-4.718-5.558-1.58-2.204-2.643-3.507-4.237-5.69-1.42-1.837-2.733-4.323-4.172-6.131-1.763-2.215-3.883-5.637-5.491-8.184-2.207-3.495-3.574-5.85-5.828-9.284-2.963-4.447-5.29-8.955-7.975-13.747-2.818-4.922-5.336-10.16-7.972-15.282-2.77-5.38-5.112-10.79-7.812-16.242-2.35-4.86-4.62-9.792-6.73-14.87-2.085-5.031-4.175-10.077-5.82-15.438-1.45-4.68-2.881-9.374-4.43-13.992-1.553-4.603-3.137-9.197-4.387-13.99-1.175-4.472-2.244-9.005-2.89-13.7-1.08-3.183-1.35-4.36-2.196-8.56" style="fill:none;stroke:#00f;stroke-width:2;stroke-dasharray:none"/><path d="M205.871 487.393c.153-1.784.274-3.568.492-5.344.315-2.27.797-4.502 1.246-6.74.4-2.216.678-4.455 1.105-6.664.493-2.118 1.062-4.213 1.558-6.33.515-2.107 1.147-4.17 1.663-6.278.556-2.455 1.71-4.915 2.404-7.326.744-2.584 1.313-4.938 2.357-7.372.92-2.089 1.56-4.313 2.304-6.486.656-1.777 1.116-3.627 1.548-5.487.314-1.845.86-3.611 1.45-5.36.583-2.072 1.14-4.151 1.8-6.194.59-1.754 1.284-3.46 1.874-5.214.6-2.046 1.63-3.891 2.235-5.472a96.616 96.616 0 0 1 1.551-3.698c1.028-2.261 1.955-5.31 3.037-7.933 1.398-3.358 2.634-5.728 3.737-8.742 1.146-3.13 2.858-6.319 4.156-9.364 1.209-2.719 2.665-5.314 3.87-8.036 1.104-2.397 2.41-4.452 3.71-6.714 1.527-2.558 3.013-5.351 4.669-7.804 2.043-2.866 3.74-5.882 5.818-8.714 2.279-3.078 3.91-6.187 6.206-9.25 2.116-2.766 4.226-5.537 6.334-8.31 1.653-2.352 4.11-4.507 5.977-6.635 1.527-1.97 3.071-3.92 4.695-5.79 1.677-1.914 3.372-3.807 5.122-5.636 1.41-1.446 2.722-3.005 4.097-4.492 1.059-.976 2.162-1.886 3.252-2.816 1.166-.936 2.267-1.974 3.393-2.973a82.47 82.47 0 0 1 3.479-3.155c1.119-.932 2.26-1.82 3.465-2.601 1.526-.96 3.04-1.942 4.535-2.964 1.342-.934 2.658-1.919 4.026-2.803 1.216-.8 2.455-1.555 3.682-2.334 1.675-1.112 3.395-2.123 5.112-3.147 1.69-1.01 3.47-1.808 5.253-2.58 2.127-.855 4.209-1.843 6.313-2.763 2.294-1.007 4.656-1.788 7.002-2.617 2.594-.91 5.219-1.7 7.838-2.51 2.353-.705 4.706-1.425 7.08-2.032 1.76-.44 3.524-.868 5.31-1.139 1.74-.305 3.49-.525 5.23-.829 2.367-.543 4.741-.613 7.122-1.076 2.167-.431 4.361-.421 6.546-.698 1.579-.21 3.166-.288 4.754-.334 1.363-.059 2.72-.03 4.083-.114 1.695-.082 3.39-.06 5.08-.23 1.463-.196 2.936-.19 4.402-.323a61.946 61.946 0 0 1 4.308-.35c1.482-.048 2.964-.045 4.446-.047 1.718-.05 3.42-.294 5.123-.528 1.586-.215 3.184-.26 4.78-.292 1.447-.02 2.894-.017 4.342-.016l3.716.004h4.516c1.821 0 3.643-.21 5.465-.21 3.845-.005 7.519-.301 13.823-.474 4.602-.125 8.598.049 11.582.117 3.351.077 5.808-.19 6.29-.258" style="fill:none;stroke:#e5e500;stroke-width:2;stroke-dasharray:none;stroke-opacity:1"/><circle cx="-88.977" cy="163.477" r="7.812" style="display:inline;fill:#e5e500;fill-opacity:1;stroke:none;stroke-width:1.8;stroke-miterlimit:2;stroke-dasharray:none"/><path d="M-37.454 254.12c-1.677-.157-3.355-.242-5.04-.191h-16.107l-6.96.005c-2.528 0-5.056.006-7.584-.03a100.769 100.769 0 0 1-6.816-.35c-2.604-.217-5.213-.35-7.824-.463-2.013-.007-4.027-.006-6.037-.118-1.869-.133-3.724-.388-5.593-.518-2.08-.2-4.149-.495-6.218-.781-1.771-.29-3.548-.55-5.314-.869a55.982 55.982 0 0 0-5.127-.794 38.802 38.802 0 0 1-4.68-.754c-1.794-.403-3.594-.774-5.395-1.15-2.076-.453-4.15-.916-6.224-1.371-2.47-.539-4.954-1.015-7.39-1.705-2.476-.677-4.967-1.298-7.44-1.991-2.173-.682-4.362-1.27-6.502-2.052-2.062-.755-4.162-1.245-6.2-2.063a764.54 764.54 0 0 0-6.372-2.426c-1.664-.643-3.331-1.278-4.98-1.961-1.824-.839-3.69-1.795-5.509-2.647a69.184 69.184 0 0 1-5.52-3.02 48.21 48.21 0 0 1-5.743-4.013c-.95-.504-3.01-2.121-5.199-3.4-2.033-1.552-3.907-2.889-5.612-4.434-1.479-1.34-3.556-2.512-4.903-4.003-1.035-1.146-4.31-3.418-5.92-4.82-1.795-1.562-3.097-3.147-4.808-4.81-1.939-1.907-3.245-3.035-5.202-4.924-1.746-1.59-3.357-3.741-5.124-5.306-2.165-1.917-4.769-4.878-6.744-7.083-2.71-3.024-4.635-5.063-7.403-8.034-3.64-3.85-6.743-7.932-10.042-12.08-3.46-4.26-6.8-8.611-10.037-13.043a944.538 944.538 0 0 1-10.087-14.057c-2.886-4.205-5.674-8.474-8.266-12.869-2.56-4.354-5.126-8.721-7.146-13.36-1.782-4.051-3.54-8.113-5.44-12.11-1.909-3.984-3.853-7.959-5.388-12.107-1.444-3.87-2.757-7.794-3.55-11.857-.803-3.59-1.622-7.178-2.754-10.683-.574-1.807-1.064-3.662-1.937-5.355" style="fill:none;stroke:#00f;stroke-width:1;stroke-dasharray:none"/><path d="M494.723 254.957c1.153.622 2.305 1.256 3.457 1.882 2.491 1.439 4.973 2.945 7.5 4.1.469.26.957.349 1.426.603.028.014.11.073.08.07-.646-.085.193-.231-.74.041-2.954 1.178-5.88 2.65-8.79 4.214-2.072 1.164-1.095.605-2.93 1.67" style="fill:none;stroke:#000;stroke-width:.999996;stroke-dasharray:none"/><g style="display:inline"><path d="M118.467 259.776c.492-.056 10.147.057 19.803-.002 5.833-.036 11.667.096 15.482-.019 4.59-.138 9.063-.189 12.447-.289 3.278-.097 5.534.057 5.882.07 2.395 0 4.79-.172 7.184-.172 2.387 0 4.774-.067 7.16-.066 2.067 0 4.133-.275 6.2-.272 2.25 0 4.502-.352 6.754-.392 2.026-.05 4.05-.057 6.07-.275 2.32-.237 4.643-.383 6.968-.505 1.793-.008 3.587-.533 5.377-.654 1.664-.145 3.317-.423 4.98-.565 1.854-.218 3.696-.33 5.54-.641 1.577-.317 3.159-.598 4.732-.946 1.513-.368 3.03-.67 4.566-.866 1.404-.163 2.79-.45 4.167-.821 1.598-.44 3.202-.423 4.806-.832 1.849-.494 3.695-.702 5.543-1.198 2.2-.587 4.412-1.105 6.581-1.857 2.205-.738 4.424-1.118 6.626-1.873 1.936-.743 3.886-1.234 5.792-2.087 1.836-.822 3.706-1.654 5.52-2.545 1.89-.89 3.78-1.626 5.676-2.495 1.482-.7 2.967-1.838 4.435-2.583 1.625-.914 3.287-2.185 4.907-3.113 1.682-1.002 3.314-2.35 4.916-3.534 1.787-1.311 3.422-2.56 4.95-3.899.569-.575 2.363-2.3 4.202-3.779 1.707-1.793 3.28-2.707 4.713-4.493 1.241-1.548 3.607-2.902 4.738-4.625.87-1.324 4.033-4.58 5.385-6.199 1.508-1.805 3.43-3.637 4.866-5.558 1.628-2.204 2.725-3.507 4.369-5.69 1.466-1.837 2.819-4.323 4.302-6.131 1.818-2.215 4.005-5.637 5.664-8.184 2.276-3.495 3.685-5.85 6.01-9.284 3.055-4.447 5.454-8.955 8.224-13.747 2.907-4.922 5.503-10.16 8.222-15.282 2.857-5.38 5.271-10.79 8.056-16.242 2.423-4.86 4.764-9.792 6.94-14.87 2.151-5.031 4.306-10.077 6.002-15.438 1.497-4.68 2.972-9.374 4.568-13.992 1.603-4.603 3.236-9.197 4.525-13.99 1.213-4.472 2.315-9.005 2.98-13.7.766-2.189 1.627-6.113 2.374-10.674" style="fill:none;stroke:#ff2a2a;stroke-width:2;stroke-dasharray:none"/></g></svg>